%TF.GenerationSoftware,KiCad,Pcbnew,(6.0.4-0)*%
%TF.CreationDate,2022-10-26T21:30:12+11:00*%
%TF.ProjectId,program counter and adder logic,70726f67-7261-46d2-9063-6f756e746572,rev?*%
%TF.SameCoordinates,Original*%
%TF.FileFunction,Soldermask,Bot*%
%TF.FilePolarity,Negative*%
%FSLAX46Y46*%
G04 Gerber Fmt 4.6, Leading zero omitted, Abs format (unit mm)*
G04 Created by KiCad (PCBNEW (6.0.4-0)) date 2022-10-26 21:30:12*
%MOMM*%
%LPD*%
G01*
G04 APERTURE LIST*
%ADD10R,2.540000X10.000000*%
%ADD11R,1.600000X1.600000*%
%ADD12O,1.600000X1.600000*%
%ADD13R,1.700000X1.700000*%
%ADD14C,1.600000*%
%ADD15C,5.000000*%
G04 APERTURE END LIST*
D10*
%TO.C,J1*%
X251050000Y-174170000D03*
X247087600Y-174170000D03*
X243125200Y-174170000D03*
X239162800Y-174170000D03*
X235200400Y-174170000D03*
X231238000Y-174170000D03*
X227275600Y-174170000D03*
X223313200Y-174170000D03*
X219350800Y-174170000D03*
X215388400Y-174170000D03*
X211426000Y-174170000D03*
X207463600Y-174170000D03*
X203501200Y-174170000D03*
X199538800Y-174170000D03*
X195576400Y-174170000D03*
X191614000Y-174170000D03*
X187651600Y-174170000D03*
X183689200Y-174170000D03*
X179726800Y-174170000D03*
X175764400Y-174170000D03*
X171802000Y-174170000D03*
X167839600Y-174170000D03*
X163877200Y-174170000D03*
X159914800Y-174170000D03*
X155952400Y-174170000D03*
X151990000Y-174170000D03*
X148027600Y-174170000D03*
X144065200Y-174170000D03*
X140102800Y-174170000D03*
X136140400Y-174170000D03*
X132178000Y-174170000D03*
X128215600Y-174170000D03*
%TD*%
%TO.C,J5*%
X98423200Y-174058000D03*
X94460800Y-174058000D03*
X90498400Y-174058000D03*
X86536000Y-174058000D03*
X82573600Y-174058000D03*
X78611200Y-174058000D03*
X74648800Y-174058000D03*
X70686400Y-174058000D03*
X66724000Y-174058000D03*
X62761600Y-174058000D03*
X58799200Y-174058000D03*
X54836800Y-174058000D03*
X50874400Y-174058000D03*
X46912000Y-174058000D03*
X42949600Y-174058000D03*
X38987200Y-174058000D03*
%TD*%
D11*
%TO.C,U5*%
X99120000Y-101740000D03*
D12*
X99120000Y-99200000D03*
X99120000Y-96660000D03*
X99120000Y-94120000D03*
X99120000Y-91580000D03*
X99120000Y-89040000D03*
X99120000Y-86500000D03*
X91500000Y-86500000D03*
X91500000Y-89040000D03*
X91500000Y-91580000D03*
X91500000Y-94120000D03*
X91500000Y-96660000D03*
X91500000Y-99200000D03*
X91500000Y-101740000D03*
%TD*%
D11*
%TO.C,U6*%
X173620000Y-101740000D03*
D12*
X173620000Y-99200000D03*
X173620000Y-96660000D03*
X173620000Y-94120000D03*
X173620000Y-91580000D03*
X173620000Y-89040000D03*
X173620000Y-86500000D03*
X166000000Y-86500000D03*
X166000000Y-89040000D03*
X166000000Y-91580000D03*
X166000000Y-94120000D03*
X166000000Y-96660000D03*
X166000000Y-99200000D03*
X166000000Y-101740000D03*
%TD*%
D11*
%TO.C,U9*%
X70620000Y-141740000D03*
D12*
X70620000Y-139200000D03*
X70620000Y-136660000D03*
X70620000Y-134120000D03*
X70620000Y-131580000D03*
X70620000Y-129040000D03*
X70620000Y-126500000D03*
X63000000Y-126500000D03*
X63000000Y-129040000D03*
X63000000Y-131580000D03*
X63000000Y-134120000D03*
X63000000Y-136660000D03*
X63000000Y-139200000D03*
X63000000Y-141740000D03*
%TD*%
D11*
%TO.C,U10*%
X99120000Y-141740000D03*
D12*
X99120000Y-139200000D03*
X99120000Y-136660000D03*
X99120000Y-134120000D03*
X99120000Y-131580000D03*
X99120000Y-129040000D03*
X99120000Y-126500000D03*
X91500000Y-126500000D03*
X91500000Y-129040000D03*
X91500000Y-131580000D03*
X91500000Y-134120000D03*
X91500000Y-136660000D03*
X91500000Y-139200000D03*
X91500000Y-141740000D03*
%TD*%
D11*
%TO.C,U11*%
X128120000Y-141740000D03*
D12*
X128120000Y-139200000D03*
X128120000Y-136660000D03*
X128120000Y-134120000D03*
X128120000Y-131580000D03*
X128120000Y-129040000D03*
X128120000Y-126500000D03*
X120500000Y-126500000D03*
X120500000Y-129040000D03*
X120500000Y-131580000D03*
X120500000Y-134120000D03*
X120500000Y-136660000D03*
X120500000Y-139200000D03*
X120500000Y-141740000D03*
%TD*%
D11*
%TO.C,U12*%
X173620000Y-141740000D03*
D12*
X173620000Y-139200000D03*
X173620000Y-136660000D03*
X173620000Y-134120000D03*
X173620000Y-131580000D03*
X173620000Y-129040000D03*
X173620000Y-126500000D03*
X166000000Y-126500000D03*
X166000000Y-129040000D03*
X166000000Y-131580000D03*
X166000000Y-134120000D03*
X166000000Y-136660000D03*
X166000000Y-139200000D03*
X166000000Y-141740000D03*
%TD*%
D11*
%TO.C,U13*%
X201620000Y-141740000D03*
D12*
X201620000Y-139200000D03*
X201620000Y-136660000D03*
X201620000Y-134120000D03*
X201620000Y-131580000D03*
X201620000Y-129040000D03*
X201620000Y-126500000D03*
X194000000Y-126500000D03*
X194000000Y-129040000D03*
X194000000Y-131580000D03*
X194000000Y-134120000D03*
X194000000Y-136660000D03*
X194000000Y-139200000D03*
X194000000Y-141740000D03*
%TD*%
D11*
%TO.C,U14*%
X230620000Y-141740000D03*
D12*
X230620000Y-139200000D03*
X230620000Y-136660000D03*
X230620000Y-134120000D03*
X230620000Y-131580000D03*
X230620000Y-129040000D03*
X230620000Y-126500000D03*
X223000000Y-126500000D03*
X223000000Y-129040000D03*
X223000000Y-131580000D03*
X223000000Y-134120000D03*
X223000000Y-136660000D03*
X223000000Y-139200000D03*
X223000000Y-141740000D03*
%TD*%
D13*
%TO.C,J2*%
X116915000Y-30775000D03*
%TD*%
%TO.C,J3*%
X120725000Y-30775000D03*
%TD*%
%TO.C,J4*%
X124535000Y-30775000D03*
%TD*%
%TO.C,J6*%
X172922000Y-30394000D03*
%TD*%
%TO.C,J7*%
X168350000Y-30480000D03*
%TD*%
%TO.C,J8*%
X163778000Y-30500000D03*
%TD*%
D11*
%TO.C,U1*%
X70620000Y-63780000D03*
D12*
X70620000Y-61240000D03*
X70620000Y-58700000D03*
X70620000Y-56160000D03*
X70620000Y-53620000D03*
X70620000Y-51080000D03*
X70620000Y-48540000D03*
X70620000Y-46000000D03*
X63000000Y-46000000D03*
X63000000Y-48540000D03*
X63000000Y-51080000D03*
X63000000Y-53620000D03*
X63000000Y-56160000D03*
X63000000Y-58700000D03*
X63000000Y-61240000D03*
X63000000Y-63780000D03*
%TD*%
D11*
%TO.C,U2*%
X125000000Y-48000000D03*
D12*
X127540000Y-48000000D03*
X130080000Y-48000000D03*
X132620000Y-48000000D03*
X135160000Y-48000000D03*
X137700000Y-48000000D03*
X140240000Y-48000000D03*
X142780000Y-48000000D03*
X142780000Y-40380000D03*
X140240000Y-40380000D03*
X137700000Y-40380000D03*
X135160000Y-40380000D03*
X132620000Y-40380000D03*
X130080000Y-40380000D03*
X127540000Y-40380000D03*
X125000000Y-40380000D03*
%TD*%
D11*
%TO.C,U7*%
X201620000Y-101740000D03*
D12*
X201620000Y-99200000D03*
X201620000Y-96660000D03*
X201620000Y-94120000D03*
X201620000Y-91580000D03*
X201620000Y-89040000D03*
X201620000Y-86500000D03*
X194000000Y-86500000D03*
X194000000Y-89040000D03*
X194000000Y-91580000D03*
X194000000Y-94120000D03*
X194000000Y-96660000D03*
X194000000Y-99200000D03*
X194000000Y-101740000D03*
%TD*%
D14*
%TO.C,R1*%
X238125000Y-45720000D03*
D12*
X238125000Y-55880000D03*
%TD*%
D14*
%TO.C,R2*%
X217805000Y-101600000D03*
D12*
X217805000Y-91440000D03*
%TD*%
D11*
%TO.C,U4*%
X230620000Y-61240000D03*
D12*
X230620000Y-58700000D03*
X230620000Y-56160000D03*
X230620000Y-53620000D03*
X230620000Y-51080000D03*
X230620000Y-48540000D03*
X230620000Y-46000000D03*
X223000000Y-46000000D03*
X223000000Y-48540000D03*
X223000000Y-51080000D03*
X223000000Y-53620000D03*
X223000000Y-56160000D03*
X223000000Y-58700000D03*
X223000000Y-61240000D03*
%TD*%
D11*
%TO.C,U8*%
X230620000Y-101740000D03*
D12*
X230620000Y-99200000D03*
X230620000Y-96660000D03*
X230620000Y-94120000D03*
X230620000Y-91580000D03*
X230620000Y-89040000D03*
X230620000Y-86500000D03*
X223000000Y-86500000D03*
X223000000Y-89040000D03*
X223000000Y-91580000D03*
X223000000Y-94120000D03*
X223000000Y-96660000D03*
X223000000Y-99200000D03*
X223000000Y-101740000D03*
%TD*%
D14*
%TO.C,C1*%
X245745000Y-46355000D03*
X250745000Y-46355000D03*
%TD*%
%TO.C,C2*%
X245745000Y-162560000D03*
X250745000Y-162560000D03*
%TD*%
%TO.C,C3*%
X80645000Y-104140000D03*
X75645000Y-104140000D03*
%TD*%
%TO.C,C4*%
X182245000Y-43815000D03*
D12*
X182245000Y-31315000D03*
%TD*%
D14*
%TO.C,C5*%
X72390000Y-39370000D03*
X72390000Y-34370000D03*
%TD*%
D11*
%TO.C,U3*%
X201620000Y-61340000D03*
D12*
X201620000Y-58800000D03*
X201620000Y-56260000D03*
X201620000Y-53720000D03*
X201620000Y-51180000D03*
X201620000Y-48640000D03*
X201620000Y-46100000D03*
X194000000Y-46100000D03*
X194000000Y-48640000D03*
X194000000Y-51180000D03*
X194000000Y-53720000D03*
X194000000Y-56260000D03*
X194000000Y-58800000D03*
X194000000Y-61340000D03*
%TD*%
D14*
%TO.C,C6*%
X81915000Y-132080000D03*
X81915000Y-127080000D03*
%TD*%
D15*
%TO.C,H1*%
X40000000Y-23000000D03*
X130000000Y-23000000D03*
%TD*%
%TO.C,H2*%
X160000000Y-23000000D03*
X250000000Y-23000000D03*
%TD*%
M02*
