  0
SECTION
  2
HEADER
  9
$ANGBASE
  50
0.0
  9
$ANGDIR
  70
1
  9
$MEASUREMENT
  70
0
  0
ENDSEC
  0
SECTION
  2
TABLES
  0
TABLE
  2
LTYPE
  70
4
  0
LTYPE
  5
40F
  2
CONTINUOUS
  70
0
  3
Solid line
  72
65
  73
0
  40
0.0
  0
LTYPE
  5
410
  2
DASHDOT
 70
0
  3
Dash Dot ____ _ ____ _
 72
65
 73
4
 40
2.0
 49
1.25
 49
-0.25
 49
0.25
 49
-0.25
  0
LTYPE
  5
411
  2
DASHED
 70
0
  3
Dashed __ __ __ __ __
 72
65
 73
2
 40
0.75
 49
0.5
 49
-0.25
  0
LTYPE
  5
43B
  2
DOTTED
 70
0
  3
Dotted .  .  .  .
 72
65
 73
2
 40
0.2
 49
0.0
 49
-0.2
  0
ENDTAB
  0
TABLE
  2
STYLE
  70
4
  0
STYLE
  2
KICAD
  70
0
  40
0
  41
1
  42
1
  50
0
  71
0
  3
isocp.shx
  0
STYLE
  2
KICADB
  70
0
  40
0
  41
1
  42
1
  50
0
  71
0
  3
isocp.shx
  0
STYLE
  2
KICADI
  70
0
  40
0
  41
1
  42
1
  50
15
  71
0
  3
isocp.shx
  0
STYLE
  2
KICADBI
  70
0
  40
0
  41
1
  42
1
  50
15
  71
0
  3
isocp.shx
  0
ENDTAB
  0
TABLE
  2
LAYER
  70
1
  0
LAYER
  2
BLACK
  70
0
  62
7
  6
CONTINUOUS
  0
ENDTAB
  0
ENDSEC
  0
SECTION
  2
ENTITIES
0
LINE
8
BLACK
6
CONTINUOUS
10
4.62205
20
-9.84252
11
1.9685
21
-9.84252
0
LINE
8
BLACK
6
CONTINUOUS
10
10.6299
20
-9.84252
11
5.47638
21
-9.84252
0
LINE
8
BLACK
6
CONTINUOUS
10
4.62205
20
-9.3937
11
4.62205
21
-9.84252
0
LINE
8
BLACK
6
CONTINUOUS
10
5.47638
20
-9.3937
11
4.62205
21
-9.3937
0
LINE
8
BLACK
6
CONTINUOUS
10
5.47638
20
-9.84252
11
5.47638
21
-9.3937
0
LINE
8
BLACK
6
CONTINUOUS
10
10.6299
20
-3.54331
11
10.6299
21
-9.84252
0
LINE
8
BLACK
6
CONTINUOUS
10
10.4331
20
-3.54331
11
10.6299
21
-3.54331
0
LINE
8
BLACK
6
CONTINUOUS
10
1.9685
20
-3.54331
11
1.9685
21
-9.84252
0
LINE
8
BLACK
6
CONTINUOUS
10
10.4331
20
-3.54331
11
1.9685
21
-3.54331
0
LINE
8
BLACK
6
CONTINUOUS
10
2.08029
20
-10.0269
11
2.08029
21
-9.90875
0
LINE
8
BLACK
6
CONTINUOUS
10
2.08029
20
-9.90875
11
2.10841
21
-9.90875
0
LINE
8
BLACK
6
CONTINUOUS
10
2.10841
20
-9.90875
11
2.12528
21
-9.91437
0
LINE
8
BLACK
6
CONTINUOUS
10
2.12528
20
-9.91437
11
2.13653
21
-9.92562
0
LINE
8
BLACK
6
CONTINUOUS
10
2.13653
20
-9.92562
11
2.14215
21
-9.93687
0
LINE
8
BLACK
6
CONTINUOUS
10
2.14215
20
-9.93687
11
2.14778
21
-9.95936
0
LINE
8
BLACK
6
CONTINUOUS
10
2.14778
20
-9.95936
11
2.14778
21
-9.97624
0
LINE
8
BLACK
6
CONTINUOUS
10
2.14778
20
-9.97624
11
2.14215
21
-9.99873
0
LINE
8
BLACK
6
CONTINUOUS
10
2.14215
20
-9.99873
11
2.13653
21
-10.01
0
LINE
8
BLACK
6
CONTINUOUS
10
2.13653
20
-10.01
11
2.12528
21
-10.0212
0
LINE
8
BLACK
6
CONTINUOUS
10
2.12528
20
-10.0212
11
2.10841
21
-10.0269
0
LINE
8
BLACK
6
CONTINUOUS
10
2.10841
20
-10.0269
11
2.08029
21
-10.0269
0
LINE
8
BLACK
6
CONTINUOUS
10
2.1984
20
-10.0269
11
2.1984
21
-9.94812
0
LINE
8
BLACK
6
CONTINUOUS
10
2.1984
20
-9.97061
11
2.20402
21
-9.95936
0
LINE
8
BLACK
6
CONTINUOUS
10
2.20402
20
-9.95936
11
2.20965
21
-9.95374
0
LINE
8
BLACK
6
CONTINUOUS
10
2.20965
20
-9.95374
11
2.22089
21
-9.94812
0
LINE
8
BLACK
6
CONTINUOUS
10
2.22089
20
-9.94812
11
2.23214
21
-9.94812
0
LINE
8
BLACK
6
CONTINUOUS
10
2.27151
20
-10.0269
11
2.27151
21
-9.94812
0
LINE
8
BLACK
6
CONTINUOUS
10
2.27151
20
-9.90875
11
2.26589
21
-9.91437
0
LINE
8
BLACK
6
CONTINUOUS
10
2.26589
20
-9.91437
11
2.27151
21
-9.91999
0
LINE
8
BLACK
6
CONTINUOUS
10
2.27151
20
-9.91999
11
2.27714
21
-9.91437
0
LINE
8
BLACK
6
CONTINUOUS
10
2.27714
20
-9.91437
11
2.27151
21
-9.90875
0
LINE
8
BLACK
6
CONTINUOUS
10
2.27151
20
-9.90875
11
2.27151
21
-9.91999
0
LINE
8
BLACK
6
CONTINUOUS
10
2.34463
20
-10.0269
11
2.33338
21
-10.0212
0
LINE
8
BLACK
6
CONTINUOUS
10
2.33338
20
-10.0212
11
2.32776
21
-10.01
0
LINE
8
BLACK
6
CONTINUOUS
10
2.32776
20
-10.01
11
2.32776
21
-9.90875
0
LINE
8
BLACK
6
CONTINUOUS
10
2.4065
20
-10.0269
11
2.39525
21
-10.0212
0
LINE
8
BLACK
6
CONTINUOUS
10
2.39525
20
-10.0212
11
2.38962
21
-10.01
0
LINE
8
BLACK
6
CONTINUOUS
10
2.38962
20
-10.01
11
2.38962
21
-9.90875
0
LINE
8
BLACK
6
CONTINUOUS
10
2.54148
20
-10.0269
11
2.54148
21
-9.90875
0
LINE
8
BLACK
6
CONTINUOUS
10
2.54148
20
-9.90875
11
2.58085
21
-9.99311
0
LINE
8
BLACK
6
CONTINUOUS
10
2.58085
20
-9.99311
11
2.62022
21
-9.90875
0
LINE
8
BLACK
6
CONTINUOUS
10
2.62022
20
-9.90875
11
2.62022
21
-10.0269
0
LINE
8
BLACK
6
CONTINUOUS
10
2.72708
20
-10.0269
11
2.72708
21
-9.96499
0
LINE
8
BLACK
6
CONTINUOUS
10
2.72708
20
-9.96499
11
2.72146
21
-9.95374
0
LINE
8
BLACK
6
CONTINUOUS
10
2.72146
20
-9.95374
11
2.71021
21
-9.94812
0
LINE
8
BLACK
6
CONTINUOUS
10
2.71021
20
-9.94812
11
2.68771
21
-9.94812
0
LINE
8
BLACK
6
CONTINUOUS
10
2.68771
20
-9.94812
11
2.67646
21
-9.95374
0
LINE
8
BLACK
6
CONTINUOUS
10
2.72708
20
-10.0212
11
2.71583
21
-10.0269
0
LINE
8
BLACK
6
CONTINUOUS
10
2.71583
20
-10.0269
11
2.68771
21
-10.0269
0
LINE
8
BLACK
6
CONTINUOUS
10
2.68771
20
-10.0269
11
2.67646
21
-10.0212
0
LINE
8
BLACK
6
CONTINUOUS
10
2.67646
20
-10.0212
11
2.67084
21
-10.01
0
LINE
8
BLACK
6
CONTINUOUS
10
2.67084
20
-10.01
11
2.67084
21
-9.99873
0
LINE
8
BLACK
6
CONTINUOUS
10
2.67084
20
-9.99873
11
2.67646
21
-9.98749
0
LINE
8
BLACK
6
CONTINUOUS
10
2.67646
20
-9.98749
11
2.68771
21
-9.98186
0
LINE
8
BLACK
6
CONTINUOUS
10
2.68771
20
-9.98186
11
2.71583
21
-9.98186
0
LINE
8
BLACK
6
CONTINUOUS
10
2.71583
20
-9.98186
11
2.72708
21
-9.97624
0
LINE
8
BLACK
6
CONTINUOUS
10
2.78332
20
-9.94812
11
2.78332
21
-10.0662
0
LINE
8
BLACK
6
CONTINUOUS
10
2.78332
20
-9.95374
11
2.79457
21
-9.94812
0
LINE
8
BLACK
6
CONTINUOUS
10
2.79457
20
-9.94812
11
2.81707
21
-9.94812
0
LINE
8
BLACK
6
CONTINUOUS
10
2.81707
20
-9.94812
11
2.82832
21
-9.95374
0
LINE
8
BLACK
6
CONTINUOUS
10
2.82832
20
-9.95374
11
2.83394
21
-9.95936
0
LINE
8
BLACK
6
CONTINUOUS
10
2.83394
20
-9.95936
11
2.83957
21
-9.97061
0
LINE
8
BLACK
6
CONTINUOUS
10
2.83957
20
-9.97061
11
2.83957
21
-10.0044
0
LINE
8
BLACK
6
CONTINUOUS
10
2.83957
20
-10.0044
11
2.83394
21
-10.0156
0
LINE
8
BLACK
6
CONTINUOUS
10
2.83394
20
-10.0156
11
2.82832
21
-10.0212
0
LINE
8
BLACK
6
CONTINUOUS
10
2.82832
20
-10.0212
11
2.81707
21
-10.0269
0
LINE
8
BLACK
6
CONTINUOUS
10
2.81707
20
-10.0269
11
2.79457
21
-10.0269
0
LINE
8
BLACK
6
CONTINUOUS
10
2.79457
20
-10.0269
11
2.78332
21
-10.0212
0
LINE
8
BLACK
6
CONTINUOUS
10
2.89019
20
-10.0156
11
2.89581
21
-10.0212
0
LINE
8
BLACK
6
CONTINUOUS
10
2.89581
20
-10.0212
11
2.89019
21
-10.0269
0
LINE
8
BLACK
6
CONTINUOUS
10
2.89019
20
-10.0269
11
2.88456
21
-10.0212
0
LINE
8
BLACK
6
CONTINUOUS
10
2.88456
20
-10.0212
11
2.89019
21
-10.0156
0
LINE
8
BLACK
6
CONTINUOUS
10
2.89019
20
-10.0156
11
2.89019
21
-10.0269
0
LINE
8
BLACK
6
CONTINUOUS
10
2.89019
20
-9.95374
11
2.89581
21
-9.95936
0
LINE
8
BLACK
6
CONTINUOUS
10
2.89581
20
-9.95936
11
2.89019
21
-9.96499
0
LINE
8
BLACK
6
CONTINUOUS
10
2.89019
20
-9.96499
11
2.88456
21
-9.95936
0
LINE
8
BLACK
6
CONTINUOUS
10
2.88456
20
-9.95936
11
2.89019
21
-9.95374
0
LINE
8
BLACK
6
CONTINUOUS
10
2.89019
20
-9.95374
11
2.89019
21
-9.96499
  0
ENDSEC
  0
EOF
