G04 #@! TF.GenerationSoftware,KiCad,Pcbnew,(5.1.10-1-10_14)*
G04 #@! TF.CreationDate,2022-02-06T21:24:09+11:00*
G04 #@! TF.ProjectId,educ 8 decoder,65647563-2038-4206-9465-636f6465722e,rev?*
G04 #@! TF.SameCoordinates,Original*
G04 #@! TF.FileFunction,Copper,L1,Top*
G04 #@! TF.FilePolarity,Positive*
%FSLAX46Y46*%
G04 Gerber Fmt 4.6, Leading zero omitted, Abs format (unit mm)*
G04 Created by KiCad (PCBNEW (5.1.10-1-10_14)) date 2022-02-06 21:24:09*
%MOMM*%
%LPD*%
G01*
G04 APERTURE LIST*
G04 #@! TA.AperFunction,ComponentPad*
%ADD10C,5.000000*%
G04 #@! TD*
G04 #@! TA.AperFunction,ComponentPad*
%ADD11O,2.400000X1.600000*%
G04 #@! TD*
G04 #@! TA.AperFunction,ComponentPad*
%ADD12R,2.400000X1.600000*%
G04 #@! TD*
G04 #@! TA.AperFunction,ComponentPad*
%ADD13O,1.600000X1.600000*%
G04 #@! TD*
G04 #@! TA.AperFunction,ComponentPad*
%ADD14C,1.600000*%
G04 #@! TD*
G04 #@! TA.AperFunction,ComponentPad*
%ADD15C,2.000000*%
G04 #@! TD*
G04 #@! TA.AperFunction,ViaPad*
%ADD16C,2.000000*%
G04 #@! TD*
G04 #@! TA.AperFunction,ViaPad*
%ADD17C,2.250000*%
G04 #@! TD*
G04 #@! TA.AperFunction,Conductor*
%ADD18C,2.000000*%
G04 #@! TD*
G04 #@! TA.AperFunction,Conductor*
%ADD19C,0.500000*%
G04 #@! TD*
G04 APERTURE END LIST*
D10*
X265000000Y-93000000D03*
X175000000Y-93000000D03*
X145000000Y-93000000D03*
X55000000Y-93000000D03*
D11*
X129700000Y-148740000D03*
X137320000Y-133500000D03*
X129700000Y-146200000D03*
X137320000Y-136040000D03*
X129700000Y-143660000D03*
X137320000Y-138580000D03*
X129700000Y-141120000D03*
X137320000Y-141120000D03*
X129700000Y-138580000D03*
X137320000Y-143660000D03*
X129700000Y-136040000D03*
X137320000Y-146200000D03*
X129700000Y-133500000D03*
D12*
X137320000Y-148740000D03*
D13*
X60626800Y-197342000D03*
D14*
X60626800Y-210042000D03*
D11*
X100700000Y-148740000D03*
X108320000Y-133500000D03*
X100700000Y-146200000D03*
X108320000Y-136040000D03*
X100700000Y-143660000D03*
X108320000Y-138580000D03*
X100700000Y-141120000D03*
X108320000Y-141120000D03*
X100700000Y-138580000D03*
X108320000Y-143660000D03*
X100700000Y-136040000D03*
X108320000Y-146200000D03*
X100700000Y-133500000D03*
D12*
X108320000Y-148740000D03*
D13*
X178905000Y-136081000D03*
D14*
X178905000Y-148781000D03*
D15*
X267090000Y-205550000D03*
X262090000Y-205550000D03*
X267090000Y-178245000D03*
X262090000Y-178245000D03*
X51985000Y-156020000D03*
X56985000Y-156020000D03*
X51905000Y-206185000D03*
X56905000Y-206185000D03*
X267090000Y-155385000D03*
X262090000Y-155385000D03*
X267090000Y-126000000D03*
X262090000Y-126000000D03*
D11*
X71800000Y-148740000D03*
X79420000Y-133500000D03*
X71800000Y-146200000D03*
X79420000Y-136040000D03*
X71800000Y-143660000D03*
X79420000Y-138580000D03*
X71800000Y-141120000D03*
X79420000Y-141120000D03*
X71800000Y-138580000D03*
X79420000Y-143660000D03*
X71800000Y-136040000D03*
X79420000Y-146200000D03*
X71800000Y-133500000D03*
D12*
X79420000Y-148740000D03*
D11*
X158700000Y-148740000D03*
X166320000Y-133500000D03*
X158700000Y-146200000D03*
X166320000Y-136040000D03*
X158700000Y-143660000D03*
X166320000Y-138580000D03*
X158700000Y-141120000D03*
X166320000Y-141120000D03*
X158700000Y-138580000D03*
X166320000Y-143660000D03*
X158700000Y-136040000D03*
X166320000Y-146200000D03*
X158700000Y-133500000D03*
D12*
X166320000Y-148740000D03*
D11*
X187700000Y-148740000D03*
X195320000Y-133500000D03*
X187700000Y-146200000D03*
X195320000Y-136040000D03*
X187700000Y-143660000D03*
X195320000Y-138580000D03*
X187700000Y-141120000D03*
X195320000Y-141120000D03*
X187700000Y-138580000D03*
X195320000Y-143660000D03*
X187700000Y-136040000D03*
X195320000Y-146200000D03*
X187700000Y-133500000D03*
D12*
X195320000Y-148740000D03*
D11*
X216700000Y-148740000D03*
X224320000Y-133500000D03*
X216700000Y-146200000D03*
X224320000Y-136040000D03*
X216700000Y-143660000D03*
X224320000Y-138580000D03*
X216700000Y-141120000D03*
X224320000Y-141120000D03*
X216700000Y-138580000D03*
X224320000Y-143660000D03*
X216700000Y-136040000D03*
X224320000Y-146200000D03*
X216700000Y-133500000D03*
D12*
X224320000Y-148740000D03*
D11*
X245700000Y-148740000D03*
X253320000Y-133500000D03*
X245700000Y-146200000D03*
X253320000Y-136040000D03*
X245700000Y-143660000D03*
X253320000Y-138580000D03*
X245700000Y-141120000D03*
X253320000Y-141120000D03*
X245700000Y-138580000D03*
X253320000Y-143660000D03*
X245700000Y-136040000D03*
X253320000Y-146200000D03*
X245700000Y-133500000D03*
D12*
X253320000Y-148740000D03*
D11*
X71800000Y-204880000D03*
X79420000Y-187100000D03*
X71800000Y-202340000D03*
X79420000Y-189640000D03*
X71800000Y-199800000D03*
X79420000Y-192180000D03*
X71800000Y-197260000D03*
X79420000Y-194720000D03*
X71800000Y-194720000D03*
X79420000Y-197260000D03*
X71800000Y-192180000D03*
X79420000Y-199800000D03*
X71800000Y-189640000D03*
X79420000Y-202340000D03*
X71800000Y-187100000D03*
D12*
X79420000Y-204880000D03*
D11*
X100600000Y-202240000D03*
X108220000Y-187000000D03*
X100600000Y-199700000D03*
X108220000Y-189540000D03*
X100600000Y-197160000D03*
X108220000Y-192080000D03*
X100600000Y-194620000D03*
X108220000Y-194620000D03*
X100600000Y-192080000D03*
X108220000Y-197160000D03*
X100600000Y-189540000D03*
X108220000Y-199700000D03*
X100600000Y-187000000D03*
D12*
X108220000Y-202240000D03*
D11*
X129700000Y-202240000D03*
X137320000Y-187000000D03*
X129700000Y-199700000D03*
X137320000Y-189540000D03*
X129700000Y-197160000D03*
X137320000Y-192080000D03*
X129700000Y-194620000D03*
X137320000Y-194620000D03*
X129700000Y-192080000D03*
X137320000Y-197160000D03*
X129700000Y-189540000D03*
X137320000Y-199700000D03*
X129700000Y-187000000D03*
D12*
X137320000Y-202240000D03*
D11*
X158700000Y-202240000D03*
X166320000Y-187000000D03*
X158700000Y-199700000D03*
X166320000Y-189540000D03*
X158700000Y-197160000D03*
X166320000Y-192080000D03*
X158700000Y-194620000D03*
X166320000Y-194620000D03*
X158700000Y-192080000D03*
X166320000Y-197160000D03*
X158700000Y-189540000D03*
X166320000Y-199700000D03*
X158700000Y-187000000D03*
D12*
X166320000Y-202240000D03*
D11*
X187700000Y-202240000D03*
X195320000Y-187000000D03*
X187700000Y-199700000D03*
X195320000Y-189540000D03*
X187700000Y-197160000D03*
X195320000Y-192080000D03*
X187700000Y-194620000D03*
X195320000Y-194620000D03*
X187700000Y-192080000D03*
X195320000Y-197160000D03*
X187700000Y-189540000D03*
X195320000Y-199700000D03*
X187700000Y-187000000D03*
D12*
X195320000Y-202240000D03*
D11*
X216700000Y-202240000D03*
X224320000Y-187000000D03*
X216700000Y-199700000D03*
X224320000Y-189540000D03*
X216700000Y-197160000D03*
X224320000Y-192080000D03*
X216700000Y-194620000D03*
X224320000Y-194620000D03*
X216700000Y-192080000D03*
X224320000Y-197160000D03*
X216700000Y-189540000D03*
X224320000Y-199700000D03*
X216700000Y-187000000D03*
D12*
X224320000Y-202240000D03*
D11*
X245700000Y-202240000D03*
X253320000Y-187000000D03*
X245700000Y-199700000D03*
X253320000Y-189540000D03*
X245700000Y-197160000D03*
X253320000Y-192080000D03*
X245700000Y-194620000D03*
X253320000Y-194620000D03*
X245700000Y-192080000D03*
X253320000Y-197160000D03*
X245700000Y-189540000D03*
X253320000Y-199700000D03*
X245700000Y-187000000D03*
D12*
X253320000Y-202240000D03*
D16*
X60160000Y-182690000D03*
D17*
X108420000Y-182690000D03*
X166205000Y-182690000D03*
X195415000Y-182690000D03*
X224625000Y-182690000D03*
X253200000Y-182690000D03*
X265956400Y-182746400D03*
X265956400Y-129293600D03*
X59581400Y-129293600D03*
X79337000Y-129223000D03*
X108476400Y-129293600D03*
X137686400Y-129293600D03*
X166332000Y-129293600D03*
X195288000Y-129293600D03*
X224371000Y-129293600D03*
X253256400Y-129293600D03*
D16*
X79220000Y-182690000D03*
D17*
X138110000Y-182690000D03*
X71770000Y-152030000D03*
X100726000Y-152030000D03*
X158765000Y-152030000D03*
X187721000Y-152030000D03*
X216677000Y-152030000D03*
X245760000Y-152030000D03*
X261999999Y-209904999D03*
X245580000Y-209995000D03*
X216370000Y-209995000D03*
X187795000Y-209995000D03*
X129375000Y-209995000D03*
X158585000Y-209995000D03*
X100165000Y-209995000D03*
X70955000Y-209995000D03*
X129775000Y-152030000D03*
X262090000Y-152030000D03*
X57440000Y-152665000D03*
X236055000Y-230950000D03*
X258280000Y-230950000D03*
X250025000Y-236030000D03*
X124930000Y-236030000D03*
X230340000Y-230950000D03*
X200495000Y-230950000D03*
X241770000Y-176340000D03*
X206845000Y-176340000D03*
X200995000Y-189540000D03*
X206210000Y-189675000D03*
X158585000Y-164910000D03*
X232245000Y-164910000D03*
X177000000Y-230950000D03*
X191605000Y-230950000D03*
X97625000Y-223330000D03*
X110325000Y-223330000D03*
X71590000Y-169355000D03*
X103975000Y-169355000D03*
X182715000Y-223330000D03*
X191605000Y-225870000D03*
X230340000Y-225870000D03*
X203670000Y-149035000D03*
X203670000Y-135700000D03*
X135090000Y-169990000D03*
X147790000Y-169990000D03*
X154140000Y-162370000D03*
X229705000Y-162370000D03*
X73333799Y-165383799D03*
X87303799Y-165383799D03*
X129375000Y-165545000D03*
X145250000Y-165545000D03*
X115405000Y-154750000D03*
X213195000Y-154750000D03*
X117310000Y-157925000D03*
X142710000Y-157925000D03*
X211290000Y-157925000D03*
X99530000Y-160465000D03*
X149695000Y-160465000D03*
X190335000Y-160465000D03*
X224625000Y-160465000D03*
X208965000Y-160465000D03*
X101512800Y-220712200D03*
X200495000Y-220790000D03*
X90005000Y-176340000D03*
X69050000Y-176340000D03*
X184620000Y-176340000D03*
X89370000Y-173165000D03*
X70955000Y-173165000D03*
X182080000Y-173165000D03*
X242405000Y-116015000D03*
X90640000Y-116015000D03*
X90005000Y-161735000D03*
X74765000Y-161735000D03*
X81115000Y-225870000D03*
X150965000Y-225870000D03*
X250025000Y-179515000D03*
X163030000Y-179515000D03*
X173190000Y-225870000D03*
X77305000Y-228410000D03*
X143345000Y-228410000D03*
X247485000Y-228410000D03*
X168745000Y-228410000D03*
X73495000Y-230950000D03*
X135090000Y-230950000D03*
X244945000Y-233490000D03*
X164935000Y-230950000D03*
X164935000Y-233490000D03*
X69685000Y-233490000D03*
X127470000Y-233490000D03*
X161125000Y-233490000D03*
X149695000Y-193485000D03*
X149695000Y-187770000D03*
X119215000Y-236030000D03*
X65875000Y-236030000D03*
X258280000Y-125540000D03*
X149060000Y-125540000D03*
X208750000Y-118555000D03*
X160490000Y-118555000D03*
X151600000Y-121730000D03*
X219545000Y-121730000D03*
X245580000Y-157925000D03*
X217005000Y-157925000D03*
X194145000Y-223330000D03*
X251295000Y-223330000D03*
X241770000Y-173165000D03*
X222720000Y-173165000D03*
X70320000Y-126175000D03*
X135090000Y-126175000D03*
X61430000Y-216980000D03*
X232245000Y-216980000D03*
X65875000Y-214440000D03*
X236055000Y-214440000D03*
D18*
X166205000Y-182690000D02*
X195415000Y-182690000D01*
X195415000Y-182690000D02*
X224625000Y-182690000D01*
X224625000Y-182690000D02*
X253200000Y-182690000D01*
X265900000Y-182690000D02*
X265956400Y-182746400D01*
X253200000Y-182690000D02*
X265900000Y-182690000D01*
X265956400Y-129293600D02*
X253256400Y-129293600D01*
X79901400Y-129293600D02*
X59581400Y-129293600D01*
X108476400Y-129293600D02*
X79901400Y-129293600D01*
X137686400Y-129293600D02*
X108476400Y-129293600D01*
X166261400Y-129293600D02*
X137686400Y-129293600D01*
X195471400Y-129293600D02*
X166261400Y-129293600D01*
X224046400Y-129293600D02*
X195471400Y-129293600D01*
X238665600Y-129293600D02*
X224046400Y-129293600D01*
X253256400Y-129293600D02*
X238665600Y-129293600D01*
X60160000Y-182690000D02*
X79220000Y-182690000D01*
X108420000Y-182690000D02*
X79220000Y-182690000D01*
X138110000Y-182690000D02*
X166205000Y-182690000D01*
X138110000Y-182690000D02*
X108420000Y-182690000D01*
X100726000Y-152030000D02*
X71770000Y-152030000D01*
X187721000Y-152030000D02*
X158765000Y-152030000D01*
X216677000Y-152030000D02*
X187721000Y-152030000D01*
X245760000Y-152030000D02*
X238775000Y-152030000D01*
X238775000Y-152030000D02*
X216677000Y-152030000D01*
X60160000Y-209995000D02*
X66510000Y-209995000D01*
X261909998Y-209995000D02*
X261999999Y-209904999D01*
X129375000Y-209995000D02*
X261909998Y-209995000D01*
X66510000Y-209995000D02*
X129375000Y-209995000D01*
X158765000Y-152030000D02*
X129775000Y-152030000D01*
X100726000Y-152030000D02*
X129775000Y-152030000D01*
X262090000Y-152030000D02*
X245760000Y-152030000D01*
X60160000Y-209995000D02*
X56905000Y-209995000D01*
X56905000Y-153200000D02*
X56905000Y-209995000D01*
X57440000Y-152665000D02*
X56905000Y-153200000D01*
D19*
X258280000Y-230950000D02*
X236055000Y-230950000D01*
X250025000Y-236030000D02*
X124930000Y-236030000D01*
X200495000Y-230950000D02*
X230340000Y-230950000D01*
X241770000Y-176340000D02*
X206845000Y-176340000D01*
X206075000Y-189540000D02*
X206210000Y-189675000D01*
X200995000Y-189540000D02*
X206075000Y-189540000D01*
X158585000Y-164910000D02*
X232245000Y-164910000D01*
X177000000Y-230950000D02*
X191605000Y-230950000D01*
X97625000Y-223330000D02*
X110325000Y-223330000D01*
X71590000Y-169355000D02*
X103975000Y-169355000D01*
X110325000Y-223330000D02*
X182715000Y-223330000D01*
X191605000Y-225870000D02*
X230340000Y-225870000D01*
X203670000Y-149035000D02*
X203670000Y-135700000D01*
X135090000Y-169990000D02*
X147790000Y-169990000D01*
X154140000Y-162370000D02*
X229705000Y-162370000D01*
X87303799Y-165383799D02*
X73333799Y-165383799D01*
X129375000Y-165545000D02*
X145250000Y-165545000D01*
X115405000Y-154750000D02*
X213195000Y-154750000D01*
X142710000Y-157925000D02*
X117310000Y-157925000D01*
X142710000Y-157925000D02*
X211290000Y-157925000D01*
X99530000Y-160465000D02*
X149695000Y-160465000D01*
X149695000Y-160465000D02*
X190335000Y-160465000D01*
X190335000Y-160465000D02*
X224625000Y-160465000D01*
X200417200Y-220712200D02*
X200495000Y-220790000D01*
X101512800Y-220712200D02*
X200417200Y-220712200D01*
X90005000Y-176340000D02*
X69050000Y-176340000D01*
X90005000Y-176340000D02*
X184620000Y-176340000D01*
X90005000Y-173165000D02*
X89370000Y-173165000D01*
X70955000Y-173165000D02*
X89370000Y-173165000D01*
X89370000Y-173165000D02*
X182080000Y-173165000D01*
X242405000Y-116015000D02*
X90640000Y-116015000D01*
X90005000Y-161735000D02*
X74765000Y-161735000D01*
X81115000Y-225870000D02*
X150965000Y-225870000D01*
X250025000Y-179515000D02*
X163030000Y-179515000D01*
X173190000Y-225870000D02*
X150965000Y-225870000D01*
X77305000Y-228410000D02*
X143345000Y-228410000D01*
X168745000Y-228410000D02*
X143345000Y-228410000D01*
X247485000Y-228410000D02*
X168745000Y-228410000D01*
X73495000Y-230950000D02*
X135090000Y-230950000D01*
X164935000Y-230950000D02*
X135090000Y-230950000D01*
X164935000Y-233490000D02*
X164935000Y-233490000D01*
X164935000Y-233490000D02*
X244945000Y-233490000D01*
X69685000Y-233490000D02*
X127470000Y-233490000D01*
X127470000Y-233490000D02*
X161125000Y-233490000D01*
X149695000Y-193485000D02*
X149695000Y-187770000D01*
X119215000Y-236030000D02*
X65875000Y-236030000D01*
X258280000Y-125540000D02*
X149060000Y-125540000D01*
X149060000Y-125540000D02*
X149060000Y-125540000D01*
X160490000Y-118555000D02*
X208750000Y-118555000D01*
X151600000Y-121730000D02*
X219545000Y-121730000D01*
X245580000Y-157925000D02*
X217005000Y-157925000D01*
X194145000Y-223330000D02*
X251295000Y-223330000D01*
X241770000Y-173165000D02*
X222720000Y-173165000D01*
X70320000Y-126175000D02*
X135090000Y-126175000D01*
X61430000Y-216980000D02*
X232245000Y-216980000D01*
X65875000Y-214440000D02*
X236055000Y-214440000D01*
M02*
