G04 #@! TF.GenerationSoftware,KiCad,Pcbnew,(5.1.10-1-10_14)*
G04 #@! TF.CreationDate,2022-02-06T21:24:09+11:00*
G04 #@! TF.ProjectId,educ 8 decoder,65647563-2038-4206-9465-636f6465722e,rev?*
G04 #@! TF.SameCoordinates,Original*
G04 #@! TF.FileFunction,Soldermask,Top*
G04 #@! TF.FilePolarity,Negative*
%FSLAX46Y46*%
G04 Gerber Fmt 4.6, Leading zero omitted, Abs format (unit mm)*
G04 Created by KiCad (PCBNEW (5.1.10-1-10_14)) date 2022-02-06 21:24:09*
%MOMM*%
%LPD*%
G01*
G04 APERTURE LIST*
%ADD10C,5.102000*%
%ADD11O,2.502000X1.702000*%
%ADD12O,1.702000X1.702000*%
%ADD13C,1.702000*%
%ADD14C,2.102000*%
G04 APERTURE END LIST*
D10*
X265000000Y-93000000D03*
X175000000Y-93000000D03*
X145000000Y-93000000D03*
X55000000Y-93000000D03*
D11*
X129700000Y-148740000D03*
X137320000Y-133500000D03*
X129700000Y-146200000D03*
X137320000Y-136040000D03*
X129700000Y-143660000D03*
X137320000Y-138580000D03*
X129700000Y-141120000D03*
X137320000Y-141120000D03*
X129700000Y-138580000D03*
X137320000Y-143660000D03*
X129700000Y-136040000D03*
X137320000Y-146200000D03*
X129700000Y-133500000D03*
G36*
G01*
X138571000Y-147940000D02*
X138571000Y-149540000D01*
G75*
G02*
X138520000Y-149591000I-51000J0D01*
G01*
X136120000Y-149591000D01*
G75*
G02*
X136069000Y-149540000I0J51000D01*
G01*
X136069000Y-147940000D01*
G75*
G02*
X136120000Y-147889000I51000J0D01*
G01*
X138520000Y-147889000D01*
G75*
G02*
X138571000Y-147940000I0J-51000D01*
G01*
G37*
D12*
X60626800Y-197342000D03*
D13*
X60626800Y-210042000D03*
D11*
X100700000Y-148740000D03*
X108320000Y-133500000D03*
X100700000Y-146200000D03*
X108320000Y-136040000D03*
X100700000Y-143660000D03*
X108320000Y-138580000D03*
X100700000Y-141120000D03*
X108320000Y-141120000D03*
X100700000Y-138580000D03*
X108320000Y-143660000D03*
X100700000Y-136040000D03*
X108320000Y-146200000D03*
X100700000Y-133500000D03*
G36*
G01*
X109571000Y-147940000D02*
X109571000Y-149540000D01*
G75*
G02*
X109520000Y-149591000I-51000J0D01*
G01*
X107120000Y-149591000D01*
G75*
G02*
X107069000Y-149540000I0J51000D01*
G01*
X107069000Y-147940000D01*
G75*
G02*
X107120000Y-147889000I51000J0D01*
G01*
X109520000Y-147889000D01*
G75*
G02*
X109571000Y-147940000I0J-51000D01*
G01*
G37*
D12*
X178905000Y-136081000D03*
D13*
X178905000Y-148781000D03*
D14*
X267090000Y-205550000D03*
X262090000Y-205550000D03*
X267090000Y-178245000D03*
X262090000Y-178245000D03*
X51985000Y-156020000D03*
X56985000Y-156020000D03*
X51905000Y-206185000D03*
X56905000Y-206185000D03*
X267090000Y-155385000D03*
X262090000Y-155385000D03*
X267090000Y-126000000D03*
X262090000Y-126000000D03*
D11*
X71800000Y-148740000D03*
X79420000Y-133500000D03*
X71800000Y-146200000D03*
X79420000Y-136040000D03*
X71800000Y-143660000D03*
X79420000Y-138580000D03*
X71800000Y-141120000D03*
X79420000Y-141120000D03*
X71800000Y-138580000D03*
X79420000Y-143660000D03*
X71800000Y-136040000D03*
X79420000Y-146200000D03*
X71800000Y-133500000D03*
G36*
G01*
X80671000Y-147940000D02*
X80671000Y-149540000D01*
G75*
G02*
X80620000Y-149591000I-51000J0D01*
G01*
X78220000Y-149591000D01*
G75*
G02*
X78169000Y-149540000I0J51000D01*
G01*
X78169000Y-147940000D01*
G75*
G02*
X78220000Y-147889000I51000J0D01*
G01*
X80620000Y-147889000D01*
G75*
G02*
X80671000Y-147940000I0J-51000D01*
G01*
G37*
X158700000Y-148740000D03*
X166320000Y-133500000D03*
X158700000Y-146200000D03*
X166320000Y-136040000D03*
X158700000Y-143660000D03*
X166320000Y-138580000D03*
X158700000Y-141120000D03*
X166320000Y-141120000D03*
X158700000Y-138580000D03*
X166320000Y-143660000D03*
X158700000Y-136040000D03*
X166320000Y-146200000D03*
X158700000Y-133500000D03*
G36*
G01*
X167571000Y-147940000D02*
X167571000Y-149540000D01*
G75*
G02*
X167520000Y-149591000I-51000J0D01*
G01*
X165120000Y-149591000D01*
G75*
G02*
X165069000Y-149540000I0J51000D01*
G01*
X165069000Y-147940000D01*
G75*
G02*
X165120000Y-147889000I51000J0D01*
G01*
X167520000Y-147889000D01*
G75*
G02*
X167571000Y-147940000I0J-51000D01*
G01*
G37*
X187700000Y-148740000D03*
X195320000Y-133500000D03*
X187700000Y-146200000D03*
X195320000Y-136040000D03*
X187700000Y-143660000D03*
X195320000Y-138580000D03*
X187700000Y-141120000D03*
X195320000Y-141120000D03*
X187700000Y-138580000D03*
X195320000Y-143660000D03*
X187700000Y-136040000D03*
X195320000Y-146200000D03*
X187700000Y-133500000D03*
G36*
G01*
X196571000Y-147940000D02*
X196571000Y-149540000D01*
G75*
G02*
X196520000Y-149591000I-51000J0D01*
G01*
X194120000Y-149591000D01*
G75*
G02*
X194069000Y-149540000I0J51000D01*
G01*
X194069000Y-147940000D01*
G75*
G02*
X194120000Y-147889000I51000J0D01*
G01*
X196520000Y-147889000D01*
G75*
G02*
X196571000Y-147940000I0J-51000D01*
G01*
G37*
X216700000Y-148740000D03*
X224320000Y-133500000D03*
X216700000Y-146200000D03*
X224320000Y-136040000D03*
X216700000Y-143660000D03*
X224320000Y-138580000D03*
X216700000Y-141120000D03*
X224320000Y-141120000D03*
X216700000Y-138580000D03*
X224320000Y-143660000D03*
X216700000Y-136040000D03*
X224320000Y-146200000D03*
X216700000Y-133500000D03*
G36*
G01*
X225571000Y-147940000D02*
X225571000Y-149540000D01*
G75*
G02*
X225520000Y-149591000I-51000J0D01*
G01*
X223120000Y-149591000D01*
G75*
G02*
X223069000Y-149540000I0J51000D01*
G01*
X223069000Y-147940000D01*
G75*
G02*
X223120000Y-147889000I51000J0D01*
G01*
X225520000Y-147889000D01*
G75*
G02*
X225571000Y-147940000I0J-51000D01*
G01*
G37*
X245700000Y-148740000D03*
X253320000Y-133500000D03*
X245700000Y-146200000D03*
X253320000Y-136040000D03*
X245700000Y-143660000D03*
X253320000Y-138580000D03*
X245700000Y-141120000D03*
X253320000Y-141120000D03*
X245700000Y-138580000D03*
X253320000Y-143660000D03*
X245700000Y-136040000D03*
X253320000Y-146200000D03*
X245700000Y-133500000D03*
G36*
G01*
X254571000Y-147940000D02*
X254571000Y-149540000D01*
G75*
G02*
X254520000Y-149591000I-51000J0D01*
G01*
X252120000Y-149591000D01*
G75*
G02*
X252069000Y-149540000I0J51000D01*
G01*
X252069000Y-147940000D01*
G75*
G02*
X252120000Y-147889000I51000J0D01*
G01*
X254520000Y-147889000D01*
G75*
G02*
X254571000Y-147940000I0J-51000D01*
G01*
G37*
X71800000Y-204880000D03*
X79420000Y-187100000D03*
X71800000Y-202340000D03*
X79420000Y-189640000D03*
X71800000Y-199800000D03*
X79420000Y-192180000D03*
X71800000Y-197260000D03*
X79420000Y-194720000D03*
X71800000Y-194720000D03*
X79420000Y-197260000D03*
X71800000Y-192180000D03*
X79420000Y-199800000D03*
X71800000Y-189640000D03*
X79420000Y-202340000D03*
X71800000Y-187100000D03*
G36*
G01*
X80671000Y-204080000D02*
X80671000Y-205680000D01*
G75*
G02*
X80620000Y-205731000I-51000J0D01*
G01*
X78220000Y-205731000D01*
G75*
G02*
X78169000Y-205680000I0J51000D01*
G01*
X78169000Y-204080000D01*
G75*
G02*
X78220000Y-204029000I51000J0D01*
G01*
X80620000Y-204029000D01*
G75*
G02*
X80671000Y-204080000I0J-51000D01*
G01*
G37*
X100600000Y-202240000D03*
X108220000Y-187000000D03*
X100600000Y-199700000D03*
X108220000Y-189540000D03*
X100600000Y-197160000D03*
X108220000Y-192080000D03*
X100600000Y-194620000D03*
X108220000Y-194620000D03*
X100600000Y-192080000D03*
X108220000Y-197160000D03*
X100600000Y-189540000D03*
X108220000Y-199700000D03*
X100600000Y-187000000D03*
G36*
G01*
X109471000Y-201440000D02*
X109471000Y-203040000D01*
G75*
G02*
X109420000Y-203091000I-51000J0D01*
G01*
X107020000Y-203091000D01*
G75*
G02*
X106969000Y-203040000I0J51000D01*
G01*
X106969000Y-201440000D01*
G75*
G02*
X107020000Y-201389000I51000J0D01*
G01*
X109420000Y-201389000D01*
G75*
G02*
X109471000Y-201440000I0J-51000D01*
G01*
G37*
X129700000Y-202240000D03*
X137320000Y-187000000D03*
X129700000Y-199700000D03*
X137320000Y-189540000D03*
X129700000Y-197160000D03*
X137320000Y-192080000D03*
X129700000Y-194620000D03*
X137320000Y-194620000D03*
X129700000Y-192080000D03*
X137320000Y-197160000D03*
X129700000Y-189540000D03*
X137320000Y-199700000D03*
X129700000Y-187000000D03*
G36*
G01*
X138571000Y-201440000D02*
X138571000Y-203040000D01*
G75*
G02*
X138520000Y-203091000I-51000J0D01*
G01*
X136120000Y-203091000D01*
G75*
G02*
X136069000Y-203040000I0J51000D01*
G01*
X136069000Y-201440000D01*
G75*
G02*
X136120000Y-201389000I51000J0D01*
G01*
X138520000Y-201389000D01*
G75*
G02*
X138571000Y-201440000I0J-51000D01*
G01*
G37*
X158700000Y-202240000D03*
X166320000Y-187000000D03*
X158700000Y-199700000D03*
X166320000Y-189540000D03*
X158700000Y-197160000D03*
X166320000Y-192080000D03*
X158700000Y-194620000D03*
X166320000Y-194620000D03*
X158700000Y-192080000D03*
X166320000Y-197160000D03*
X158700000Y-189540000D03*
X166320000Y-199700000D03*
X158700000Y-187000000D03*
G36*
G01*
X167571000Y-201440000D02*
X167571000Y-203040000D01*
G75*
G02*
X167520000Y-203091000I-51000J0D01*
G01*
X165120000Y-203091000D01*
G75*
G02*
X165069000Y-203040000I0J51000D01*
G01*
X165069000Y-201440000D01*
G75*
G02*
X165120000Y-201389000I51000J0D01*
G01*
X167520000Y-201389000D01*
G75*
G02*
X167571000Y-201440000I0J-51000D01*
G01*
G37*
X187700000Y-202240000D03*
X195320000Y-187000000D03*
X187700000Y-199700000D03*
X195320000Y-189540000D03*
X187700000Y-197160000D03*
X195320000Y-192080000D03*
X187700000Y-194620000D03*
X195320000Y-194620000D03*
X187700000Y-192080000D03*
X195320000Y-197160000D03*
X187700000Y-189540000D03*
X195320000Y-199700000D03*
X187700000Y-187000000D03*
G36*
G01*
X196571000Y-201440000D02*
X196571000Y-203040000D01*
G75*
G02*
X196520000Y-203091000I-51000J0D01*
G01*
X194120000Y-203091000D01*
G75*
G02*
X194069000Y-203040000I0J51000D01*
G01*
X194069000Y-201440000D01*
G75*
G02*
X194120000Y-201389000I51000J0D01*
G01*
X196520000Y-201389000D01*
G75*
G02*
X196571000Y-201440000I0J-51000D01*
G01*
G37*
X216700000Y-202240000D03*
X224320000Y-187000000D03*
X216700000Y-199700000D03*
X224320000Y-189540000D03*
X216700000Y-197160000D03*
X224320000Y-192080000D03*
X216700000Y-194620000D03*
X224320000Y-194620000D03*
X216700000Y-192080000D03*
X224320000Y-197160000D03*
X216700000Y-189540000D03*
X224320000Y-199700000D03*
X216700000Y-187000000D03*
G36*
G01*
X225571000Y-201440000D02*
X225571000Y-203040000D01*
G75*
G02*
X225520000Y-203091000I-51000J0D01*
G01*
X223120000Y-203091000D01*
G75*
G02*
X223069000Y-203040000I0J51000D01*
G01*
X223069000Y-201440000D01*
G75*
G02*
X223120000Y-201389000I51000J0D01*
G01*
X225520000Y-201389000D01*
G75*
G02*
X225571000Y-201440000I0J-51000D01*
G01*
G37*
X245700000Y-202240000D03*
X253320000Y-187000000D03*
X245700000Y-199700000D03*
X253320000Y-189540000D03*
X245700000Y-197160000D03*
X253320000Y-192080000D03*
X245700000Y-194620000D03*
X253320000Y-194620000D03*
X245700000Y-192080000D03*
X253320000Y-197160000D03*
X245700000Y-189540000D03*
X253320000Y-199700000D03*
X245700000Y-187000000D03*
G36*
G01*
X254571000Y-201440000D02*
X254571000Y-203040000D01*
G75*
G02*
X254520000Y-203091000I-51000J0D01*
G01*
X252120000Y-203091000D01*
G75*
G02*
X252069000Y-203040000I0J51000D01*
G01*
X252069000Y-201440000D01*
G75*
G02*
X252120000Y-201389000I51000J0D01*
G01*
X254520000Y-201389000D01*
G75*
G02*
X254571000Y-201440000I0J-51000D01*
G01*
G37*
M02*
