M48
; DRILL file {KiCad (6.0.4-0)} date Sunday, 14 April 2024 at 03:18:31 pm
; FORMAT={-:-/ absolute / inch / decimal}
; #@! TF.CreationDate,2024-04-14T15:18:31+10:00
; #@! TF.GenerationSoftware,Kicad,Pcbnew,(6.0.4-0)
; #@! TF.FileFunction,Plated,1,2,PTH
FMAT,2
INCH
; #@! TA.AperFunction,Plated,PTH,ComponentDrill
T1C0.0315
; #@! TA.AperFunction,Plated,PTH,ViaDrill
T2C0.0394
; #@! TA.AperFunction,Plated,PTH,ComponentDrill
T3C0.0394
; #@! TA.AperFunction,Plated,PTH,ComponentDrill
T4C0.1260
%
G90
G05
T1
X2.3869Y-7.7694
X2.3869Y-8.2694
X2.8268Y-5.2559
X2.8268Y-5.3559
X2.8268Y-5.4559
X2.8268Y-5.5559
X2.8268Y-5.6559
X2.8268Y-5.7559
X2.8268Y-5.8559
X2.8268Y-7.3661
X2.8268Y-7.4661
X2.8268Y-7.5661
X2.8268Y-7.6661
X2.8268Y-7.7661
X2.8268Y-7.8661
X2.8268Y-7.9661
X2.8268Y-8.0661
X3.1268Y-5.2559
X3.1268Y-5.3559
X3.1268Y-5.4559
X3.1268Y-5.5559
X3.1268Y-5.6559
X3.1268Y-5.7559
X3.1268Y-5.8559
X3.1268Y-7.3661
X3.1268Y-7.4661
X3.1268Y-7.5661
X3.1268Y-7.6661
X3.1268Y-7.7661
X3.1268Y-7.8661
X3.1268Y-7.9661
X3.1268Y-8.0661
X3.9606Y-7.3622
X3.9606Y-7.4622
X3.9606Y-7.5622
X3.9606Y-7.6622
X3.9606Y-7.7622
X3.9606Y-7.8622
X3.9606Y-7.9622
X3.9646Y-5.2559
X3.9646Y-5.3559
X3.9646Y-5.4559
X3.9646Y-5.5559
X3.9646Y-5.6559
X3.9646Y-5.7559
X3.9646Y-5.8559
X4.2606Y-7.3622
X4.2606Y-7.4622
X4.2606Y-7.5622
X4.2606Y-7.6622
X4.2606Y-7.7622
X4.2606Y-7.8622
X4.2606Y-7.9622
X4.2646Y-5.2559
X4.2646Y-5.3559
X4.2646Y-5.4559
X4.2646Y-5.5559
X4.2646Y-5.6559
X4.2646Y-5.7559
X4.2646Y-5.8559
X5.1063Y-5.2559
X5.1063Y-5.3559
X5.1063Y-5.4559
X5.1063Y-5.5559
X5.1063Y-5.6559
X5.1063Y-5.7559
X5.1063Y-5.8559
X5.1063Y-7.3622
X5.1063Y-7.4622
X5.1063Y-7.5622
X5.1063Y-7.6622
X5.1063Y-7.7622
X5.1063Y-7.8622
X5.1063Y-7.9622
X5.4063Y-5.2559
X5.4063Y-5.3559
X5.4063Y-5.4559
X5.4063Y-5.5559
X5.4063Y-5.6559
X5.4063Y-5.7559
X5.4063Y-5.8559
X5.4063Y-7.3622
X5.4063Y-7.4622
X5.4063Y-7.5622
X5.4063Y-7.6622
X5.4063Y-7.7622
X5.4063Y-7.8622
X5.4063Y-7.9622
X6.248Y-5.2559
X6.248Y-5.3559
X6.248Y-5.4559
X6.248Y-5.5559
X6.248Y-5.6559
X6.248Y-5.7559
X6.248Y-5.8559
X6.248Y-7.3622
X6.248Y-7.4622
X6.248Y-7.5622
X6.248Y-7.6622
X6.248Y-7.7622
X6.248Y-7.8622
X6.248Y-7.9622
X6.548Y-5.2559
X6.548Y-5.3559
X6.548Y-5.4559
X6.548Y-5.5559
X6.548Y-5.6559
X6.548Y-5.7559
X6.548Y-5.8559
X6.548Y-7.3622
X6.548Y-7.4622
X6.548Y-7.5622
X6.548Y-7.6622
X6.548Y-7.7622
X6.548Y-7.8622
X6.548Y-7.9622
X7.0435Y-5.3575
X7.0435Y-5.8575
X7.3898Y-5.2559
X7.3898Y-5.3559
X7.3898Y-5.4559
X7.3898Y-5.5559
X7.3898Y-5.6559
X7.3898Y-5.7559
X7.3898Y-5.8559
X7.3898Y-7.3622
X7.3898Y-7.4622
X7.3898Y-7.5622
X7.3898Y-7.6622
X7.3898Y-7.7622
X7.3898Y-7.8622
X7.3898Y-7.9622
X7.6898Y-5.2559
X7.6898Y-5.3559
X7.6898Y-5.4559
X7.6898Y-5.5559
X7.6898Y-5.6559
X7.6898Y-5.7559
X7.6898Y-5.8559
X7.6898Y-7.3622
X7.6898Y-7.4622
X7.6898Y-7.5622
X7.6898Y-7.6622
X7.6898Y-7.7622
X7.6898Y-7.8622
X7.6898Y-7.9622
X8.5315Y-5.2559
X8.5315Y-5.3559
X8.5315Y-5.4559
X8.5315Y-5.5559
X8.5315Y-5.6559
X8.5315Y-5.7559
X8.5315Y-5.8559
X8.5315Y-7.3622
X8.5315Y-7.4622
X8.5315Y-7.5622
X8.5315Y-7.6622
X8.5315Y-7.7622
X8.5315Y-7.8622
X8.5315Y-7.9622
X8.8315Y-5.2559
X8.8315Y-5.3559
X8.8315Y-5.4559
X8.8315Y-5.5559
X8.8315Y-5.6559
X8.8315Y-5.7559
X8.8315Y-5.8559
X8.8315Y-7.3622
X8.8315Y-7.4622
X8.8315Y-7.5622
X8.8315Y-7.6622
X8.8315Y-7.7622
X8.8315Y-7.8622
X8.8315Y-7.9622
X9.6732Y-5.2559
X9.6732Y-5.3559
X9.6732Y-5.4559
X9.6732Y-5.5559
X9.6732Y-5.6559
X9.6732Y-5.7559
X9.6732Y-5.8559
X9.6732Y-7.3622
X9.6732Y-7.4622
X9.6732Y-7.5622
X9.6732Y-7.6622
X9.6732Y-7.7622
X9.6732Y-7.8622
X9.6732Y-7.9622
X9.9732Y-5.2559
X9.9732Y-5.3559
X9.9732Y-5.4559
X9.9732Y-5.5559
X9.9732Y-5.6559
X9.9732Y-5.7559
X9.9732Y-5.8559
X9.9732Y-7.3622
X9.9732Y-7.4622
X9.9732Y-7.5622
X9.9732Y-7.6622
X9.9732Y-7.7622
X9.9732Y-7.8622
X9.9732Y-7.9622
T2
X2.2471Y-5.9938
X2.3457Y-5.0903
X2.3685Y-7.1925
X2.4185Y-8.5425
X2.5935Y-8.4425
X2.5935Y-9.2925
X2.7185Y-6.9425
X2.7435Y-9.1925
X2.7685Y-4.9675
X2.7935Y-6.8175
X2.7935Y-8.2675
X2.8185Y-6.6675
X2.8256Y-5.9854
X2.8872Y-6.5112
X2.8935Y-9.0925
X2.9435Y-6.3675
X3.0435Y-8.9925
X3.1189Y-7.1925
X3.1235Y-5.0875
X3.1935Y-8.8925
X3.4372Y-6.5112
X3.5185Y-6.8175
X3.5435Y-6.3675
X3.5435Y-6.9425
X3.5685Y-4.5675
X3.8435Y-8.7925
X3.9185Y-6.3175
X3.9626Y-8.2675
X3.9656Y-5.9854
X3.9966Y-8.6895
X4.0935Y-6.6675
X4.2685Y-7.1925
X4.2707Y-5.0903
X4.3435Y-8.7925
X4.5435Y-6.0925
X4.6185Y-6.2175
X4.6935Y-9.2925
X4.9185Y-9.2925
X5.0185Y-9.1925
X5.0935Y-6.5175
X5.1076Y-8.2675
X5.1093Y-5.9854
X5.3185Y-4.9675
X5.3185Y-6.6925
X5.3185Y-9.0925
X5.4207Y-5.0903
X5.4374Y-7.1925
X5.6185Y-6.2175
X5.6435Y-8.9925
X5.7185Y-6.5175
X5.8185Y-6.6925
X5.8685Y-4.9425
X5.8935Y-6.3175
X5.8935Y-7.3925
X5.8935Y-7.6175
X5.9435Y-8.8925
X5.9685Y-4.7925
X6.0685Y-6.3925
X6.2435Y-6.4925
X6.2435Y-8.2675
X6.2506Y-5.9854
X6.3185Y-4.6675
X6.3435Y-9.1925
X6.4185Y-7.0675
X6.4935Y-9.0925
X6.4935Y-9.1925
X6.5435Y-7.1925
X6.5485Y-5.0903
X6.6435Y-8.9925
X6.8185Y-8.8925
X6.9685Y-9.0925
X7.1685Y-6.8175
X7.1935Y-8.7925
X7.2685Y-6.9425
X7.3906Y-5.9854
X7.3935Y-8.2675
X7.4935Y-6.3175
X7.5435Y-8.8925
X7.5435Y-9.0925
X7.6435Y-8.7925
X7.6885Y-5.0903
X7.6935Y-7.1925
X7.8935Y-8.6925
X7.8935Y-9.0925
X7.9132Y-7.4622
X8.0185Y-5.3425
X8.0185Y-5.8675
X8.1185Y-7.4675
X8.1435Y-6.9425
X8.2185Y-4.6675
X8.227Y-6.3175
X8.3185Y-6.2175
X8.3935Y-6.0925
X8.5176Y-8.7002
X8.5185Y-8.2675
X8.5306Y-5.9854
X8.5435Y-6.2175
X8.6435Y-4.7925
X8.7685Y-6.8175
X8.8335Y-5.0903
X8.8435Y-6.3175
X8.8435Y-7.1925
X9.0435Y-6.3925
X9.0685Y-8.8925
X9.0685Y-9.0925
X9.1435Y-6.4925
X9.1435Y-8.5425
X9.2935Y-8.4425
X9.2935Y-9.0925
X9.5185Y-6.8175
X9.5185Y-6.9425
X9.5435Y-4.5675
X9.6435Y-9.1925
X9.6685Y-6.2175
X9.6685Y-8.2675
X9.6756Y-5.9854
X9.7435Y-8.9925
X9.8435Y-7.0675
X9.8435Y-9.2925
X9.8726Y-8.7952
X9.9685Y-7.1925
X9.9707Y-5.0903
X10.0526Y-8.6952
X10.1685Y-4.9425
X10.1685Y-9.0925
X10.315Y-8.264
X10.3185Y-5.9854
X10.4707Y-5.0903
X10.4707Y-7.1947
T3
X2.0435Y-8.1175
X2.0467Y-6.1425
X2.2404Y-8.1175
X2.2435Y-6.1425
X10.3185Y-4.9606
X10.3185Y-6.1175
X10.3185Y-7.0175
X10.3185Y-8.0925
X10.5154Y-4.9606
X10.5154Y-6.1175
X10.5154Y-7.0175
X10.5154Y-8.0925
T4
X2.1654Y-3.6614
X5.7087Y-3.6614
X6.8898Y-3.6614
X10.4331Y-3.6614
T0
M30
