  0
SECTION
  2
HEADER
  9
$ANGBASE
  50
0.0
  9
$ANGDIR
  70
1
  9
$MEASUREMENT
  70
0
  0
ENDSEC
  0
SECTION
  2
TABLES
  0
TABLE
  2
LTYPE
  70
4
  0
LTYPE
  5
40F
  2
CONTINUOUS
  70
0
  3
Solid line
  72
65
  73
0
  40
0.0
  0
LTYPE
  5
410
  2
DASHDOT
 70
0
  3
Dash Dot ____ _ ____ _
 72
65
 73
4
 40
2.0
 49
1.25
 49
-0.25
 49
0.25
 49
-0.25
  0
LTYPE
  5
411
  2
DASHED
 70
0
  3
Dashed __ __ __ __ __
 72
65
 73
2
 40
0.75
 49
0.5
 49
-0.25
  0
LTYPE
  5
43B
  2
DOTTED
 70
0
  3
Dotted .  .  .  .
 72
65
 73
2
 40
0.2
 49
0.0
 49
-0.2
  0
ENDTAB
  0
TABLE
  2
STYLE
  70
4
  0
STYLE
  2
KICAD
  70
0
  40
0
  41
1
  42
1
  50
0
  71
0
  3
isocp.shx
  0
STYLE
  2
KICADB
  70
0
  40
0
  41
1
  42
1
  50
0
  71
0
  3
isocp.shx
  0
STYLE
  2
KICADI
  70
0
  40
0
  41
1
  42
1
  50
15
  71
0
  3
isocp.shx
  0
STYLE
  2
KICADBI
  70
0
  40
0
  41
1
  42
1
  50
15
  71
0
  3
isocp.shx
  0
ENDTAB
  0
TABLE
  2
LAYER
  70
1
  0
LAYER
  2
BLACK
  70
0
  62
7
  6
CONTINUOUS
  0
ENDTAB
  0
ENDSEC
  0
SECTION
  2
ENTITIES
0
LINE
8
BLACK
6
CONTINUOUS
10
4.62205
20
-9.84252
11
1.9685
21
-9.84252
0
LINE
8
BLACK
6
CONTINUOUS
10
10.6299
20
-9.84252
11
5.47638
21
-9.84252
0
LINE
8
BLACK
6
CONTINUOUS
10
4.62205
20
-9.3937
11
4.62205
21
-9.84252
0
LINE
8
BLACK
6
CONTINUOUS
10
5.47638
20
-9.3937
11
4.62205
21
-9.3937
0
LINE
8
BLACK
6
CONTINUOUS
10
5.47638
20
-9.84252
11
5.47638
21
-9.3937
0
LINE
8
BLACK
6
CONTINUOUS
10
10.6299
20
-3.54331
11
10.6299
21
-9.84252
0
LINE
8
BLACK
6
CONTINUOUS
10
10.4331
20
-3.54331
11
10.6299
21
-3.54331
0
LINE
8
BLACK
6
CONTINUOUS
10
1.9685
20
-3.54331
11
1.9685
21
-9.84252
0
LINE
8
BLACK
6
CONTINUOUS
10
10.4331
20
-3.54331
11
1.9685
21
-3.54331
0
LINE
8
BLACK
6
CONTINUOUS
10
2.37113
20
-7.75362
11
2.40263
21
-7.78512
0
LINE
8
BLACK
6
CONTINUOUS
10
2.40263
20
-7.75362
11
2.37113
21
-7.78512
0
LINE
8
BLACK
6
CONTINUOUS
10
2.37113
20
-8.25362
11
2.40263
21
-8.28512
0
LINE
8
BLACK
6
CONTINUOUS
10
2.40263
20
-8.25362
11
2.37113
21
-8.28512
0
LINE
8
BLACK
6
CONTINUOUS
10
2.81102
20
-5.24016
11
2.84252
21
-5.27165
0
LINE
8
BLACK
6
CONTINUOUS
10
2.84252
20
-5.24016
11
2.81102
21
-5.27165
0
LINE
8
BLACK
6
CONTINUOUS
10
2.81102
20
-5.34016
11
2.84252
21
-5.37165
0
LINE
8
BLACK
6
CONTINUOUS
10
2.84252
20
-5.34016
11
2.81102
21
-5.37165
0
LINE
8
BLACK
6
CONTINUOUS
10
2.81102
20
-5.44016
11
2.84252
21
-5.47165
0
LINE
8
BLACK
6
CONTINUOUS
10
2.84252
20
-5.44016
11
2.81102
21
-5.47165
0
LINE
8
BLACK
6
CONTINUOUS
10
2.81102
20
-5.54016
11
2.84252
21
-5.57165
0
LINE
8
BLACK
6
CONTINUOUS
10
2.84252
20
-5.54016
11
2.81102
21
-5.57165
0
LINE
8
BLACK
6
CONTINUOUS
10
2.81102
20
-5.64016
11
2.84252
21
-5.67165
0
LINE
8
BLACK
6
CONTINUOUS
10
2.84252
20
-5.64016
11
2.81102
21
-5.67165
0
LINE
8
BLACK
6
CONTINUOUS
10
2.81102
20
-5.74016
11
2.84252
21
-5.77165
0
LINE
8
BLACK
6
CONTINUOUS
10
2.84252
20
-5.74016
11
2.81102
21
-5.77165
0
LINE
8
BLACK
6
CONTINUOUS
10
2.81102
20
-5.84016
11
2.84252
21
-5.87165
0
LINE
8
BLACK
6
CONTINUOUS
10
2.84252
20
-5.84016
11
2.81102
21
-5.87165
0
LINE
8
BLACK
6
CONTINUOUS
10
2.81102
20
-7.35039
11
2.84252
21
-7.38189
0
LINE
8
BLACK
6
CONTINUOUS
10
2.84252
20
-7.35039
11
2.81102
21
-7.38189
0
LINE
8
BLACK
6
CONTINUOUS
10
2.81102
20
-7.45039
11
2.84252
21
-7.48189
0
LINE
8
BLACK
6
CONTINUOUS
10
2.84252
20
-7.45039
11
2.81102
21
-7.48189
0
LINE
8
BLACK
6
CONTINUOUS
10
2.81102
20
-7.55039
11
2.84252
21
-7.58189
0
LINE
8
BLACK
6
CONTINUOUS
10
2.84252
20
-7.55039
11
2.81102
21
-7.58189
0
LINE
8
BLACK
6
CONTINUOUS
10
2.81102
20
-7.65039
11
2.84252
21
-7.68189
0
LINE
8
BLACK
6
CONTINUOUS
10
2.84252
20
-7.65039
11
2.81102
21
-7.68189
0
LINE
8
BLACK
6
CONTINUOUS
10
2.81102
20
-7.75039
11
2.84252
21
-7.78189
0
LINE
8
BLACK
6
CONTINUOUS
10
2.84252
20
-7.75039
11
2.81102
21
-7.78189
0
LINE
8
BLACK
6
CONTINUOUS
10
2.81102
20
-7.85039
11
2.84252
21
-7.88189
0
LINE
8
BLACK
6
CONTINUOUS
10
2.84252
20
-7.85039
11
2.81102
21
-7.88189
0
LINE
8
BLACK
6
CONTINUOUS
10
2.81102
20
-7.95039
11
2.84252
21
-7.98189
0
LINE
8
BLACK
6
CONTINUOUS
10
2.84252
20
-7.95039
11
2.81102
21
-7.98189
0
LINE
8
BLACK
6
CONTINUOUS
10
2.81102
20
-8.05039
11
2.84252
21
-8.08189
0
LINE
8
BLACK
6
CONTINUOUS
10
2.84252
20
-8.05039
11
2.81102
21
-8.08189
0
LINE
8
BLACK
6
CONTINUOUS
10
3.11102
20
-5.24016
11
3.14252
21
-5.27165
0
LINE
8
BLACK
6
CONTINUOUS
10
3.14252
20
-5.24016
11
3.11102
21
-5.27165
0
LINE
8
BLACK
6
CONTINUOUS
10
3.11102
20
-5.34016
11
3.14252
21
-5.37165
0
LINE
8
BLACK
6
CONTINUOUS
10
3.14252
20
-5.34016
11
3.11102
21
-5.37165
0
LINE
8
BLACK
6
CONTINUOUS
10
3.11102
20
-5.44016
11
3.14252
21
-5.47165
0
LINE
8
BLACK
6
CONTINUOUS
10
3.14252
20
-5.44016
11
3.11102
21
-5.47165
0
LINE
8
BLACK
6
CONTINUOUS
10
3.11102
20
-5.54016
11
3.14252
21
-5.57165
0
LINE
8
BLACK
6
CONTINUOUS
10
3.14252
20
-5.54016
11
3.11102
21
-5.57165
0
LINE
8
BLACK
6
CONTINUOUS
10
3.11102
20
-5.64016
11
3.14252
21
-5.67165
0
LINE
8
BLACK
6
CONTINUOUS
10
3.14252
20
-5.64016
11
3.11102
21
-5.67165
0
LINE
8
BLACK
6
CONTINUOUS
10
3.11102
20
-5.74016
11
3.14252
21
-5.77165
0
LINE
8
BLACK
6
CONTINUOUS
10
3.14252
20
-5.74016
11
3.11102
21
-5.77165
0
LINE
8
BLACK
6
CONTINUOUS
10
3.11102
20
-5.84016
11
3.14252
21
-5.87165
0
LINE
8
BLACK
6
CONTINUOUS
10
3.14252
20
-5.84016
11
3.11102
21
-5.87165
0
LINE
8
BLACK
6
CONTINUOUS
10
3.11102
20
-7.35039
11
3.14252
21
-7.38189
0
LINE
8
BLACK
6
CONTINUOUS
10
3.14252
20
-7.35039
11
3.11102
21
-7.38189
0
LINE
8
BLACK
6
CONTINUOUS
10
3.11102
20
-7.45039
11
3.14252
21
-7.48189
0
LINE
8
BLACK
6
CONTINUOUS
10
3.14252
20
-7.45039
11
3.11102
21
-7.48189
0
LINE
8
BLACK
6
CONTINUOUS
10
3.11102
20
-7.55039
11
3.14252
21
-7.58189
0
LINE
8
BLACK
6
CONTINUOUS
10
3.14252
20
-7.55039
11
3.11102
21
-7.58189
0
LINE
8
BLACK
6
CONTINUOUS
10
3.11102
20
-7.65039
11
3.14252
21
-7.68189
0
LINE
8
BLACK
6
CONTINUOUS
10
3.14252
20
-7.65039
11
3.11102
21
-7.68189
0
LINE
8
BLACK
6
CONTINUOUS
10
3.11102
20
-7.75039
11
3.14252
21
-7.78189
0
LINE
8
BLACK
6
CONTINUOUS
10
3.14252
20
-7.75039
11
3.11102
21
-7.78189
0
LINE
8
BLACK
6
CONTINUOUS
10
3.11102
20
-7.85039
11
3.14252
21
-7.88189
0
LINE
8
BLACK
6
CONTINUOUS
10
3.14252
20
-7.85039
11
3.11102
21
-7.88189
0
LINE
8
BLACK
6
CONTINUOUS
10
3.11102
20
-7.95039
11
3.14252
21
-7.98189
0
LINE
8
BLACK
6
CONTINUOUS
10
3.14252
20
-7.95039
11
3.11102
21
-7.98189
0
LINE
8
BLACK
6
CONTINUOUS
10
3.11102
20
-8.05039
11
3.14252
21
-8.08189
0
LINE
8
BLACK
6
CONTINUOUS
10
3.14252
20
-8.05039
11
3.11102
21
-8.08189
0
LINE
8
BLACK
6
CONTINUOUS
10
3.94488
20
-7.34646
11
3.97638
21
-7.37795
0
LINE
8
BLACK
6
CONTINUOUS
10
3.97638
20
-7.34646
11
3.94488
21
-7.37795
0
LINE
8
BLACK
6
CONTINUOUS
10
3.94488
20
-7.44646
11
3.97638
21
-7.47795
0
LINE
8
BLACK
6
CONTINUOUS
10
3.97638
20
-7.44646
11
3.94488
21
-7.47795
0
LINE
8
BLACK
6
CONTINUOUS
10
3.94488
20
-7.54646
11
3.97638
21
-7.57795
0
LINE
8
BLACK
6
CONTINUOUS
10
3.97638
20
-7.54646
11
3.94488
21
-7.57795
0
LINE
8
BLACK
6
CONTINUOUS
10
3.94488
20
-7.64646
11
3.97638
21
-7.67795
0
LINE
8
BLACK
6
CONTINUOUS
10
3.97638
20
-7.64646
11
3.94488
21
-7.67795
0
LINE
8
BLACK
6
CONTINUOUS
10
3.94488
20
-7.74646
11
3.97638
21
-7.77795
0
LINE
8
BLACK
6
CONTINUOUS
10
3.97638
20
-7.74646
11
3.94488
21
-7.77795
0
LINE
8
BLACK
6
CONTINUOUS
10
3.94488
20
-7.84646
11
3.97638
21
-7.87795
0
LINE
8
BLACK
6
CONTINUOUS
10
3.97638
20
-7.84646
11
3.94488
21
-7.87795
0
LINE
8
BLACK
6
CONTINUOUS
10
3.94488
20
-7.94646
11
3.97638
21
-7.97795
0
LINE
8
BLACK
6
CONTINUOUS
10
3.97638
20
-7.94646
11
3.94488
21
-7.97795
0
LINE
8
BLACK
6
CONTINUOUS
10
3.94882
20
-5.24016
11
3.98031
21
-5.27165
0
LINE
8
BLACK
6
CONTINUOUS
10
3.98031
20
-5.24016
11
3.94882
21
-5.27165
0
LINE
8
BLACK
6
CONTINUOUS
10
3.94882
20
-5.34016
11
3.98031
21
-5.37165
0
LINE
8
BLACK
6
CONTINUOUS
10
3.98031
20
-5.34016
11
3.94882
21
-5.37165
0
LINE
8
BLACK
6
CONTINUOUS
10
3.94882
20
-5.44016
11
3.98031
21
-5.47165
0
LINE
8
BLACK
6
CONTINUOUS
10
3.98031
20
-5.44016
11
3.94882
21
-5.47165
0
LINE
8
BLACK
6
CONTINUOUS
10
3.94882
20
-5.54016
11
3.98031
21
-5.57165
0
LINE
8
BLACK
6
CONTINUOUS
10
3.98031
20
-5.54016
11
3.94882
21
-5.57165
0
LINE
8
BLACK
6
CONTINUOUS
10
3.94882
20
-5.64016
11
3.98031
21
-5.67165
0
LINE
8
BLACK
6
CONTINUOUS
10
3.98031
20
-5.64016
11
3.94882
21
-5.67165
0
LINE
8
BLACK
6
CONTINUOUS
10
3.94882
20
-5.74016
11
3.98031
21
-5.77165
0
LINE
8
BLACK
6
CONTINUOUS
10
3.98031
20
-5.74016
11
3.94882
21
-5.77165
0
LINE
8
BLACK
6
CONTINUOUS
10
3.94882
20
-5.84016
11
3.98031
21
-5.87165
0
LINE
8
BLACK
6
CONTINUOUS
10
3.98031
20
-5.84016
11
3.94882
21
-5.87165
0
LINE
8
BLACK
6
CONTINUOUS
10
4.24488
20
-7.34646
11
4.27638
21
-7.37795
0
LINE
8
BLACK
6
CONTINUOUS
10
4.27638
20
-7.34646
11
4.24488
21
-7.37795
0
LINE
8
BLACK
6
CONTINUOUS
10
4.24488
20
-7.44646
11
4.27638
21
-7.47795
0
LINE
8
BLACK
6
CONTINUOUS
10
4.27638
20
-7.44646
11
4.24488
21
-7.47795
0
LINE
8
BLACK
6
CONTINUOUS
10
4.24488
20
-7.54646
11
4.27638
21
-7.57795
0
LINE
8
BLACK
6
CONTINUOUS
10
4.27638
20
-7.54646
11
4.24488
21
-7.57795
0
LINE
8
BLACK
6
CONTINUOUS
10
4.24488
20
-7.64646
11
4.27638
21
-7.67795
0
LINE
8
BLACK
6
CONTINUOUS
10
4.27638
20
-7.64646
11
4.24488
21
-7.67795
0
LINE
8
BLACK
6
CONTINUOUS
10
4.24488
20
-7.74646
11
4.27638
21
-7.77795
0
LINE
8
BLACK
6
CONTINUOUS
10
4.27638
20
-7.74646
11
4.24488
21
-7.77795
0
LINE
8
BLACK
6
CONTINUOUS
10
4.24488
20
-7.84646
11
4.27638
21
-7.87795
0
LINE
8
BLACK
6
CONTINUOUS
10
4.27638
20
-7.84646
11
4.24488
21
-7.87795
0
LINE
8
BLACK
6
CONTINUOUS
10
4.24488
20
-7.94646
11
4.27638
21
-7.97795
0
LINE
8
BLACK
6
CONTINUOUS
10
4.27638
20
-7.94646
11
4.24488
21
-7.97795
0
LINE
8
BLACK
6
CONTINUOUS
10
4.24882
20
-5.24016
11
4.28031
21
-5.27165
0
LINE
8
BLACK
6
CONTINUOUS
10
4.28031
20
-5.24016
11
4.24882
21
-5.27165
0
LINE
8
BLACK
6
CONTINUOUS
10
4.24882
20
-5.34016
11
4.28031
21
-5.37165
0
LINE
8
BLACK
6
CONTINUOUS
10
4.28031
20
-5.34016
11
4.24882
21
-5.37165
0
LINE
8
BLACK
6
CONTINUOUS
10
4.24882
20
-5.44016
11
4.28031
21
-5.47165
0
LINE
8
BLACK
6
CONTINUOUS
10
4.28031
20
-5.44016
11
4.24882
21
-5.47165
0
LINE
8
BLACK
6
CONTINUOUS
10
4.24882
20
-5.54016
11
4.28031
21
-5.57165
0
LINE
8
BLACK
6
CONTINUOUS
10
4.28031
20
-5.54016
11
4.24882
21
-5.57165
0
LINE
8
BLACK
6
CONTINUOUS
10
4.24882
20
-5.64016
11
4.28031
21
-5.67165
0
LINE
8
BLACK
6
CONTINUOUS
10
4.28031
20
-5.64016
11
4.24882
21
-5.67165
0
LINE
8
BLACK
6
CONTINUOUS
10
4.24882
20
-5.74016
11
4.28031
21
-5.77165
0
LINE
8
BLACK
6
CONTINUOUS
10
4.28031
20
-5.74016
11
4.24882
21
-5.77165
0
LINE
8
BLACK
6
CONTINUOUS
10
4.24882
20
-5.84016
11
4.28031
21
-5.87165
0
LINE
8
BLACK
6
CONTINUOUS
10
4.28031
20
-5.84016
11
4.24882
21
-5.87165
0
LINE
8
BLACK
6
CONTINUOUS
10
5.09055
20
-5.24016
11
5.12205
21
-5.27165
0
LINE
8
BLACK
6
CONTINUOUS
10
5.12205
20
-5.24016
11
5.09055
21
-5.27165
0
LINE
8
BLACK
6
CONTINUOUS
10
5.09055
20
-5.34016
11
5.12205
21
-5.37165
0
LINE
8
BLACK
6
CONTINUOUS
10
5.12205
20
-5.34016
11
5.09055
21
-5.37165
0
LINE
8
BLACK
6
CONTINUOUS
10
5.09055
20
-5.44016
11
5.12205
21
-5.47165
0
LINE
8
BLACK
6
CONTINUOUS
10
5.12205
20
-5.44016
11
5.09055
21
-5.47165
0
LINE
8
BLACK
6
CONTINUOUS
10
5.09055
20
-5.54016
11
5.12205
21
-5.57165
0
LINE
8
BLACK
6
CONTINUOUS
10
5.12205
20
-5.54016
11
5.09055
21
-5.57165
0
LINE
8
BLACK
6
CONTINUOUS
10
5.09055
20
-5.64016
11
5.12205
21
-5.67165
0
LINE
8
BLACK
6
CONTINUOUS
10
5.12205
20
-5.64016
11
5.09055
21
-5.67165
0
LINE
8
BLACK
6
CONTINUOUS
10
5.09055
20
-5.74016
11
5.12205
21
-5.77165
0
LINE
8
BLACK
6
CONTINUOUS
10
5.12205
20
-5.74016
11
5.09055
21
-5.77165
0
LINE
8
BLACK
6
CONTINUOUS
10
5.09055
20
-5.84016
11
5.12205
21
-5.87165
0
LINE
8
BLACK
6
CONTINUOUS
10
5.12205
20
-5.84016
11
5.09055
21
-5.87165
0
LINE
8
BLACK
6
CONTINUOUS
10
5.09055
20
-7.34646
11
5.12205
21
-7.37795
0
LINE
8
BLACK
6
CONTINUOUS
10
5.12205
20
-7.34646
11
5.09055
21
-7.37795
0
LINE
8
BLACK
6
CONTINUOUS
10
5.09055
20
-7.44646
11
5.12205
21
-7.47795
0
LINE
8
BLACK
6
CONTINUOUS
10
5.12205
20
-7.44646
11
5.09055
21
-7.47795
0
LINE
8
BLACK
6
CONTINUOUS
10
5.09055
20
-7.54646
11
5.12205
21
-7.57795
0
LINE
8
BLACK
6
CONTINUOUS
10
5.12205
20
-7.54646
11
5.09055
21
-7.57795
0
LINE
8
BLACK
6
CONTINUOUS
10
5.09055
20
-7.64646
11
5.12205
21
-7.67795
0
LINE
8
BLACK
6
CONTINUOUS
10
5.12205
20
-7.64646
11
5.09055
21
-7.67795
0
LINE
8
BLACK
6
CONTINUOUS
10
5.09055
20
-7.74646
11
5.12205
21
-7.77795
0
LINE
8
BLACK
6
CONTINUOUS
10
5.12205
20
-7.74646
11
5.09055
21
-7.77795
0
LINE
8
BLACK
6
CONTINUOUS
10
5.09055
20
-7.84646
11
5.12205
21
-7.87795
0
LINE
8
BLACK
6
CONTINUOUS
10
5.12205
20
-7.84646
11
5.09055
21
-7.87795
0
LINE
8
BLACK
6
CONTINUOUS
10
5.09055
20
-7.94646
11
5.12205
21
-7.97795
0
LINE
8
BLACK
6
CONTINUOUS
10
5.12205
20
-7.94646
11
5.09055
21
-7.97795
0
LINE
8
BLACK
6
CONTINUOUS
10
5.39055
20
-5.24016
11
5.42205
21
-5.27165
0
LINE
8
BLACK
6
CONTINUOUS
10
5.42205
20
-5.24016
11
5.39055
21
-5.27165
0
LINE
8
BLACK
6
CONTINUOUS
10
5.39055
20
-5.34016
11
5.42205
21
-5.37165
0
LINE
8
BLACK
6
CONTINUOUS
10
5.42205
20
-5.34016
11
5.39055
21
-5.37165
0
LINE
8
BLACK
6
CONTINUOUS
10
5.39055
20
-5.44016
11
5.42205
21
-5.47165
0
LINE
8
BLACK
6
CONTINUOUS
10
5.42205
20
-5.44016
11
5.39055
21
-5.47165
0
LINE
8
BLACK
6
CONTINUOUS
10
5.39055
20
-5.54016
11
5.42205
21
-5.57165
0
LINE
8
BLACK
6
CONTINUOUS
10
5.42205
20
-5.54016
11
5.39055
21
-5.57165
0
LINE
8
BLACK
6
CONTINUOUS
10
5.39055
20
-5.64016
11
5.42205
21
-5.67165
0
LINE
8
BLACK
6
CONTINUOUS
10
5.42205
20
-5.64016
11
5.39055
21
-5.67165
0
LINE
8
BLACK
6
CONTINUOUS
10
5.39055
20
-5.74016
11
5.42205
21
-5.77165
0
LINE
8
BLACK
6
CONTINUOUS
10
5.42205
20
-5.74016
11
5.39055
21
-5.77165
0
LINE
8
BLACK
6
CONTINUOUS
10
5.39055
20
-5.84016
11
5.42205
21
-5.87165
0
LINE
8
BLACK
6
CONTINUOUS
10
5.42205
20
-5.84016
11
5.39055
21
-5.87165
0
LINE
8
BLACK
6
CONTINUOUS
10
5.39055
20
-7.34646
11
5.42205
21
-7.37795
0
LINE
8
BLACK
6
CONTINUOUS
10
5.42205
20
-7.34646
11
5.39055
21
-7.37795
0
LINE
8
BLACK
6
CONTINUOUS
10
5.39055
20
-7.44646
11
5.42205
21
-7.47795
0
LINE
8
BLACK
6
CONTINUOUS
10
5.42205
20
-7.44646
11
5.39055
21
-7.47795
0
LINE
8
BLACK
6
CONTINUOUS
10
5.39055
20
-7.54646
11
5.42205
21
-7.57795
0
LINE
8
BLACK
6
CONTINUOUS
10
5.42205
20
-7.54646
11
5.39055
21
-7.57795
0
LINE
8
BLACK
6
CONTINUOUS
10
5.39055
20
-7.64646
11
5.42205
21
-7.67795
0
LINE
8
BLACK
6
CONTINUOUS
10
5.42205
20
-7.64646
11
5.39055
21
-7.67795
0
LINE
8
BLACK
6
CONTINUOUS
10
5.39055
20
-7.74646
11
5.42205
21
-7.77795
0
LINE
8
BLACK
6
CONTINUOUS
10
5.42205
20
-7.74646
11
5.39055
21
-7.77795
0
LINE
8
BLACK
6
CONTINUOUS
10
5.39055
20
-7.84646
11
5.42205
21
-7.87795
0
LINE
8
BLACK
6
CONTINUOUS
10
5.42205
20
-7.84646
11
5.39055
21
-7.87795
0
LINE
8
BLACK
6
CONTINUOUS
10
5.39055
20
-7.94646
11
5.42205
21
-7.97795
0
LINE
8
BLACK
6
CONTINUOUS
10
5.42205
20
-7.94646
11
5.39055
21
-7.97795
0
LINE
8
BLACK
6
CONTINUOUS
10
6.23228
20
-5.24016
11
6.26378
21
-5.27165
0
LINE
8
BLACK
6
CONTINUOUS
10
6.26378
20
-5.24016
11
6.23228
21
-5.27165
0
LINE
8
BLACK
6
CONTINUOUS
10
6.23228
20
-5.34016
11
6.26378
21
-5.37165
0
LINE
8
BLACK
6
CONTINUOUS
10
6.26378
20
-5.34016
11
6.23228
21
-5.37165
0
LINE
8
BLACK
6
CONTINUOUS
10
6.23228
20
-5.44016
11
6.26378
21
-5.47165
0
LINE
8
BLACK
6
CONTINUOUS
10
6.26378
20
-5.44016
11
6.23228
21
-5.47165
0
LINE
8
BLACK
6
CONTINUOUS
10
6.23228
20
-5.54016
11
6.26378
21
-5.57165
0
LINE
8
BLACK
6
CONTINUOUS
10
6.26378
20
-5.54016
11
6.23228
21
-5.57165
0
LINE
8
BLACK
6
CONTINUOUS
10
6.23228
20
-5.64016
11
6.26378
21
-5.67165
0
LINE
8
BLACK
6
CONTINUOUS
10
6.26378
20
-5.64016
11
6.23228
21
-5.67165
0
LINE
8
BLACK
6
CONTINUOUS
10
6.23228
20
-5.74016
11
6.26378
21
-5.77165
0
LINE
8
BLACK
6
CONTINUOUS
10
6.26378
20
-5.74016
11
6.23228
21
-5.77165
0
LINE
8
BLACK
6
CONTINUOUS
10
6.23228
20
-5.84016
11
6.26378
21
-5.87165
0
LINE
8
BLACK
6
CONTINUOUS
10
6.26378
20
-5.84016
11
6.23228
21
-5.87165
0
LINE
8
BLACK
6
CONTINUOUS
10
6.23228
20
-7.34646
11
6.26378
21
-7.37795
0
LINE
8
BLACK
6
CONTINUOUS
10
6.26378
20
-7.34646
11
6.23228
21
-7.37795
0
LINE
8
BLACK
6
CONTINUOUS
10
6.23228
20
-7.44646
11
6.26378
21
-7.47795
0
LINE
8
BLACK
6
CONTINUOUS
10
6.26378
20
-7.44646
11
6.23228
21
-7.47795
0
LINE
8
BLACK
6
CONTINUOUS
10
6.23228
20
-7.54646
11
6.26378
21
-7.57795
0
LINE
8
BLACK
6
CONTINUOUS
10
6.26378
20
-7.54646
11
6.23228
21
-7.57795
0
LINE
8
BLACK
6
CONTINUOUS
10
6.23228
20
-7.64646
11
6.26378
21
-7.67795
0
LINE
8
BLACK
6
CONTINUOUS
10
6.26378
20
-7.64646
11
6.23228
21
-7.67795
0
LINE
8
BLACK
6
CONTINUOUS
10
6.23228
20
-7.74646
11
6.26378
21
-7.77795
0
LINE
8
BLACK
6
CONTINUOUS
10
6.26378
20
-7.74646
11
6.23228
21
-7.77795
0
LINE
8
BLACK
6
CONTINUOUS
10
6.23228
20
-7.84646
11
6.26378
21
-7.87795
0
LINE
8
BLACK
6
CONTINUOUS
10
6.26378
20
-7.84646
11
6.23228
21
-7.87795
0
LINE
8
BLACK
6
CONTINUOUS
10
6.23228
20
-7.94646
11
6.26378
21
-7.97795
0
LINE
8
BLACK
6
CONTINUOUS
10
6.26378
20
-7.94646
11
6.23228
21
-7.97795
0
LINE
8
BLACK
6
CONTINUOUS
10
6.53228
20
-5.24016
11
6.56378
21
-5.27165
0
LINE
8
BLACK
6
CONTINUOUS
10
6.56378
20
-5.24016
11
6.53228
21
-5.27165
0
LINE
8
BLACK
6
CONTINUOUS
10
6.53228
20
-5.34016
11
6.56378
21
-5.37165
0
LINE
8
BLACK
6
CONTINUOUS
10
6.56378
20
-5.34016
11
6.53228
21
-5.37165
0
LINE
8
BLACK
6
CONTINUOUS
10
6.53228
20
-5.44016
11
6.56378
21
-5.47165
0
LINE
8
BLACK
6
CONTINUOUS
10
6.56378
20
-5.44016
11
6.53228
21
-5.47165
0
LINE
8
BLACK
6
CONTINUOUS
10
6.53228
20
-5.54016
11
6.56378
21
-5.57165
0
LINE
8
BLACK
6
CONTINUOUS
10
6.56378
20
-5.54016
11
6.53228
21
-5.57165
0
LINE
8
BLACK
6
CONTINUOUS
10
6.53228
20
-5.64016
11
6.56378
21
-5.67165
0
LINE
8
BLACK
6
CONTINUOUS
10
6.56378
20
-5.64016
11
6.53228
21
-5.67165
0
LINE
8
BLACK
6
CONTINUOUS
10
6.53228
20
-5.74016
11
6.56378
21
-5.77165
0
LINE
8
BLACK
6
CONTINUOUS
10
6.56378
20
-5.74016
11
6.53228
21
-5.77165
0
LINE
8
BLACK
6
CONTINUOUS
10
6.53228
20
-5.84016
11
6.56378
21
-5.87165
0
LINE
8
BLACK
6
CONTINUOUS
10
6.56378
20
-5.84016
11
6.53228
21
-5.87165
0
LINE
8
BLACK
6
CONTINUOUS
10
6.53228
20
-7.34646
11
6.56378
21
-7.37795
0
LINE
8
BLACK
6
CONTINUOUS
10
6.56378
20
-7.34646
11
6.53228
21
-7.37795
0
LINE
8
BLACK
6
CONTINUOUS
10
6.53228
20
-7.44646
11
6.56378
21
-7.47795
0
LINE
8
BLACK
6
CONTINUOUS
10
6.56378
20
-7.44646
11
6.53228
21
-7.47795
0
LINE
8
BLACK
6
CONTINUOUS
10
6.53228
20
-7.54646
11
6.56378
21
-7.57795
0
LINE
8
BLACK
6
CONTINUOUS
10
6.56378
20
-7.54646
11
6.53228
21
-7.57795
0
LINE
8
BLACK
6
CONTINUOUS
10
6.53228
20
-7.64646
11
6.56378
21
-7.67795
0
LINE
8
BLACK
6
CONTINUOUS
10
6.56378
20
-7.64646
11
6.53228
21
-7.67795
0
LINE
8
BLACK
6
CONTINUOUS
10
6.53228
20
-7.74646
11
6.56378
21
-7.77795
0
LINE
8
BLACK
6
CONTINUOUS
10
6.56378
20
-7.74646
11
6.53228
21
-7.77795
0
LINE
8
BLACK
6
CONTINUOUS
10
6.53228
20
-7.84646
11
6.56378
21
-7.87795
0
LINE
8
BLACK
6
CONTINUOUS
10
6.56378
20
-7.84646
11
6.53228
21
-7.87795
0
LINE
8
BLACK
6
CONTINUOUS
10
6.53228
20
-7.94646
11
6.56378
21
-7.97795
0
LINE
8
BLACK
6
CONTINUOUS
10
6.56378
20
-7.94646
11
6.53228
21
-7.97795
0
LINE
8
BLACK
6
CONTINUOUS
10
7.02776
20
-5.34177
11
7.05925
21
-5.37327
0
LINE
8
BLACK
6
CONTINUOUS
10
7.05925
20
-5.34177
11
7.02776
21
-5.37327
0
LINE
8
BLACK
6
CONTINUOUS
10
7.02776
20
-5.84177
11
7.05925
21
-5.87327
0
LINE
8
BLACK
6
CONTINUOUS
10
7.05925
20
-5.84177
11
7.02776
21
-5.87327
0
LINE
8
BLACK
6
CONTINUOUS
10
7.37402
20
-5.24016
11
7.40551
21
-5.27165
0
LINE
8
BLACK
6
CONTINUOUS
10
7.40551
20
-5.24016
11
7.37402
21
-5.27165
0
LINE
8
BLACK
6
CONTINUOUS
10
7.37402
20
-5.34016
11
7.40551
21
-5.37165
0
LINE
8
BLACK
6
CONTINUOUS
10
7.40551
20
-5.34016
11
7.37402
21
-5.37165
0
LINE
8
BLACK
6
CONTINUOUS
10
7.37402
20
-5.44016
11
7.40551
21
-5.47165
0
LINE
8
BLACK
6
CONTINUOUS
10
7.40551
20
-5.44016
11
7.37402
21
-5.47165
0
LINE
8
BLACK
6
CONTINUOUS
10
7.37402
20
-5.54016
11
7.40551
21
-5.57165
0
LINE
8
BLACK
6
CONTINUOUS
10
7.40551
20
-5.54016
11
7.37402
21
-5.57165
0
LINE
8
BLACK
6
CONTINUOUS
10
7.37402
20
-5.64016
11
7.40551
21
-5.67165
0
LINE
8
BLACK
6
CONTINUOUS
10
7.40551
20
-5.64016
11
7.37402
21
-5.67165
0
LINE
8
BLACK
6
CONTINUOUS
10
7.37402
20
-5.74016
11
7.40551
21
-5.77165
0
LINE
8
BLACK
6
CONTINUOUS
10
7.40551
20
-5.74016
11
7.37402
21
-5.77165
0
LINE
8
BLACK
6
CONTINUOUS
10
7.37402
20
-5.84016
11
7.40551
21
-5.87165
0
LINE
8
BLACK
6
CONTINUOUS
10
7.40551
20
-5.84016
11
7.37402
21
-5.87165
0
LINE
8
BLACK
6
CONTINUOUS
10
7.37402
20
-7.34646
11
7.40551
21
-7.37795
0
LINE
8
BLACK
6
CONTINUOUS
10
7.40551
20
-7.34646
11
7.37402
21
-7.37795
0
LINE
8
BLACK
6
CONTINUOUS
10
7.37402
20
-7.44646
11
7.40551
21
-7.47795
0
LINE
8
BLACK
6
CONTINUOUS
10
7.40551
20
-7.44646
11
7.37402
21
-7.47795
0
LINE
8
BLACK
6
CONTINUOUS
10
7.37402
20
-7.54646
11
7.40551
21
-7.57795
0
LINE
8
BLACK
6
CONTINUOUS
10
7.40551
20
-7.54646
11
7.37402
21
-7.57795
0
LINE
8
BLACK
6
CONTINUOUS
10
7.37402
20
-7.64646
11
7.40551
21
-7.67795
0
LINE
8
BLACK
6
CONTINUOUS
10
7.40551
20
-7.64646
11
7.37402
21
-7.67795
0
LINE
8
BLACK
6
CONTINUOUS
10
7.37402
20
-7.74646
11
7.40551
21
-7.77795
0
LINE
8
BLACK
6
CONTINUOUS
10
7.40551
20
-7.74646
11
7.37402
21
-7.77795
0
LINE
8
BLACK
6
CONTINUOUS
10
7.37402
20
-7.84646
11
7.40551
21
-7.87795
0
LINE
8
BLACK
6
CONTINUOUS
10
7.40551
20
-7.84646
11
7.37402
21
-7.87795
0
LINE
8
BLACK
6
CONTINUOUS
10
7.37402
20
-7.94646
11
7.40551
21
-7.97795
0
LINE
8
BLACK
6
CONTINUOUS
10
7.40551
20
-7.94646
11
7.37402
21
-7.97795
0
LINE
8
BLACK
6
CONTINUOUS
10
7.67402
20
-5.24016
11
7.70551
21
-5.27165
0
LINE
8
BLACK
6
CONTINUOUS
10
7.70551
20
-5.24016
11
7.67402
21
-5.27165
0
LINE
8
BLACK
6
CONTINUOUS
10
7.67402
20
-5.34016
11
7.70551
21
-5.37165
0
LINE
8
BLACK
6
CONTINUOUS
10
7.70551
20
-5.34016
11
7.67402
21
-5.37165
0
LINE
8
BLACK
6
CONTINUOUS
10
7.67402
20
-5.44016
11
7.70551
21
-5.47165
0
LINE
8
BLACK
6
CONTINUOUS
10
7.70551
20
-5.44016
11
7.67402
21
-5.47165
0
LINE
8
BLACK
6
CONTINUOUS
10
7.67402
20
-5.54016
11
7.70551
21
-5.57165
0
LINE
8
BLACK
6
CONTINUOUS
10
7.70551
20
-5.54016
11
7.67402
21
-5.57165
0
LINE
8
BLACK
6
CONTINUOUS
10
7.67402
20
-5.64016
11
7.70551
21
-5.67165
0
LINE
8
BLACK
6
CONTINUOUS
10
7.70551
20
-5.64016
11
7.67402
21
-5.67165
0
LINE
8
BLACK
6
CONTINUOUS
10
7.67402
20
-5.74016
11
7.70551
21
-5.77165
0
LINE
8
BLACK
6
CONTINUOUS
10
7.70551
20
-5.74016
11
7.67402
21
-5.77165
0
LINE
8
BLACK
6
CONTINUOUS
10
7.67402
20
-5.84016
11
7.70551
21
-5.87165
0
LINE
8
BLACK
6
CONTINUOUS
10
7.70551
20
-5.84016
11
7.67402
21
-5.87165
0
LINE
8
BLACK
6
CONTINUOUS
10
7.67402
20
-7.34646
11
7.70551
21
-7.37795
0
LINE
8
BLACK
6
CONTINUOUS
10
7.70551
20
-7.34646
11
7.67402
21
-7.37795
0
LINE
8
BLACK
6
CONTINUOUS
10
7.67402
20
-7.44646
11
7.70551
21
-7.47795
0
LINE
8
BLACK
6
CONTINUOUS
10
7.70551
20
-7.44646
11
7.67402
21
-7.47795
0
LINE
8
BLACK
6
CONTINUOUS
10
7.67402
20
-7.54646
11
7.70551
21
-7.57795
0
LINE
8
BLACK
6
CONTINUOUS
10
7.70551
20
-7.54646
11
7.67402
21
-7.57795
0
LINE
8
BLACK
6
CONTINUOUS
10
7.67402
20
-7.64646
11
7.70551
21
-7.67795
0
LINE
8
BLACK
6
CONTINUOUS
10
7.70551
20
-7.64646
11
7.67402
21
-7.67795
0
LINE
8
BLACK
6
CONTINUOUS
10
7.67402
20
-7.74646
11
7.70551
21
-7.77795
0
LINE
8
BLACK
6
CONTINUOUS
10
7.70551
20
-7.74646
11
7.67402
21
-7.77795
0
LINE
8
BLACK
6
CONTINUOUS
10
7.67402
20
-7.84646
11
7.70551
21
-7.87795
0
LINE
8
BLACK
6
CONTINUOUS
10
7.70551
20
-7.84646
11
7.67402
21
-7.87795
0
LINE
8
BLACK
6
CONTINUOUS
10
7.67402
20
-7.94646
11
7.70551
21
-7.97795
0
LINE
8
BLACK
6
CONTINUOUS
10
7.70551
20
-7.94646
11
7.67402
21
-7.97795
0
LINE
8
BLACK
6
CONTINUOUS
10
8.51575
20
-5.24016
11
8.54724
21
-5.27165
0
LINE
8
BLACK
6
CONTINUOUS
10
8.54724
20
-5.24016
11
8.51575
21
-5.27165
0
LINE
8
BLACK
6
CONTINUOUS
10
8.51575
20
-5.34016
11
8.54724
21
-5.37165
0
LINE
8
BLACK
6
CONTINUOUS
10
8.54724
20
-5.34016
11
8.51575
21
-5.37165
0
LINE
8
BLACK
6
CONTINUOUS
10
8.51575
20
-5.44016
11
8.54724
21
-5.47165
0
LINE
8
BLACK
6
CONTINUOUS
10
8.54724
20
-5.44016
11
8.51575
21
-5.47165
0
LINE
8
BLACK
6
CONTINUOUS
10
8.51575
20
-5.54016
11
8.54724
21
-5.57165
0
LINE
8
BLACK
6
CONTINUOUS
10
8.54724
20
-5.54016
11
8.51575
21
-5.57165
0
LINE
8
BLACK
6
CONTINUOUS
10
8.51575
20
-5.64016
11
8.54724
21
-5.67165
0
LINE
8
BLACK
6
CONTINUOUS
10
8.54724
20
-5.64016
11
8.51575
21
-5.67165
0
LINE
8
BLACK
6
CONTINUOUS
10
8.51575
20
-5.74016
11
8.54724
21
-5.77165
0
LINE
8
BLACK
6
CONTINUOUS
10
8.54724
20
-5.74016
11
8.51575
21
-5.77165
0
LINE
8
BLACK
6
CONTINUOUS
10
8.51575
20
-5.84016
11
8.54724
21
-5.87165
0
LINE
8
BLACK
6
CONTINUOUS
10
8.54724
20
-5.84016
11
8.51575
21
-5.87165
0
LINE
8
BLACK
6
CONTINUOUS
10
8.51575
20
-7.34646
11
8.54724
21
-7.37795
0
LINE
8
BLACK
6
CONTINUOUS
10
8.54724
20
-7.34646
11
8.51575
21
-7.37795
0
LINE
8
BLACK
6
CONTINUOUS
10
8.51575
20
-7.44646
11
8.54724
21
-7.47795
0
LINE
8
BLACK
6
CONTINUOUS
10
8.54724
20
-7.44646
11
8.51575
21
-7.47795
0
LINE
8
BLACK
6
CONTINUOUS
10
8.51575
20
-7.54646
11
8.54724
21
-7.57795
0
LINE
8
BLACK
6
CONTINUOUS
10
8.54724
20
-7.54646
11
8.51575
21
-7.57795
0
LINE
8
BLACK
6
CONTINUOUS
10
8.51575
20
-7.64646
11
8.54724
21
-7.67795
0
LINE
8
BLACK
6
CONTINUOUS
10
8.54724
20
-7.64646
11
8.51575
21
-7.67795
0
LINE
8
BLACK
6
CONTINUOUS
10
8.51575
20
-7.74646
11
8.54724
21
-7.77795
0
LINE
8
BLACK
6
CONTINUOUS
10
8.54724
20
-7.74646
11
8.51575
21
-7.77795
0
LINE
8
BLACK
6
CONTINUOUS
10
8.51575
20
-7.84646
11
8.54724
21
-7.87795
0
LINE
8
BLACK
6
CONTINUOUS
10
8.54724
20
-7.84646
11
8.51575
21
-7.87795
0
LINE
8
BLACK
6
CONTINUOUS
10
8.51575
20
-7.94646
11
8.54724
21
-7.97795
0
LINE
8
BLACK
6
CONTINUOUS
10
8.54724
20
-7.94646
11
8.51575
21
-7.97795
0
LINE
8
BLACK
6
CONTINUOUS
10
8.81575
20
-5.24016
11
8.84724
21
-5.27165
0
LINE
8
BLACK
6
CONTINUOUS
10
8.84724
20
-5.24016
11
8.81575
21
-5.27165
0
LINE
8
BLACK
6
CONTINUOUS
10
8.81575
20
-5.34016
11
8.84724
21
-5.37165
0
LINE
8
BLACK
6
CONTINUOUS
10
8.84724
20
-5.34016
11
8.81575
21
-5.37165
0
LINE
8
BLACK
6
CONTINUOUS
10
8.81575
20
-5.44016
11
8.84724
21
-5.47165
0
LINE
8
BLACK
6
CONTINUOUS
10
8.84724
20
-5.44016
11
8.81575
21
-5.47165
0
LINE
8
BLACK
6
CONTINUOUS
10
8.81575
20
-5.54016
11
8.84724
21
-5.57165
0
LINE
8
BLACK
6
CONTINUOUS
10
8.84724
20
-5.54016
11
8.81575
21
-5.57165
0
LINE
8
BLACK
6
CONTINUOUS
10
8.81575
20
-5.64016
11
8.84724
21
-5.67165
0
LINE
8
BLACK
6
CONTINUOUS
10
8.84724
20
-5.64016
11
8.81575
21
-5.67165
0
LINE
8
BLACK
6
CONTINUOUS
10
8.81575
20
-5.74016
11
8.84724
21
-5.77165
0
LINE
8
BLACK
6
CONTINUOUS
10
8.84724
20
-5.74016
11
8.81575
21
-5.77165
0
LINE
8
BLACK
6
CONTINUOUS
10
8.81575
20
-5.84016
11
8.84724
21
-5.87165
0
LINE
8
BLACK
6
CONTINUOUS
10
8.84724
20
-5.84016
11
8.81575
21
-5.87165
0
LINE
8
BLACK
6
CONTINUOUS
10
8.81575
20
-7.34646
11
8.84724
21
-7.37795
0
LINE
8
BLACK
6
CONTINUOUS
10
8.84724
20
-7.34646
11
8.81575
21
-7.37795
0
LINE
8
BLACK
6
CONTINUOUS
10
8.81575
20
-7.44646
11
8.84724
21
-7.47795
0
LINE
8
BLACK
6
CONTINUOUS
10
8.84724
20
-7.44646
11
8.81575
21
-7.47795
0
LINE
8
BLACK
6
CONTINUOUS
10
8.81575
20
-7.54646
11
8.84724
21
-7.57795
0
LINE
8
BLACK
6
CONTINUOUS
10
8.84724
20
-7.54646
11
8.81575
21
-7.57795
0
LINE
8
BLACK
6
CONTINUOUS
10
8.81575
20
-7.64646
11
8.84724
21
-7.67795
0
LINE
8
BLACK
6
CONTINUOUS
10
8.84724
20
-7.64646
11
8.81575
21
-7.67795
0
LINE
8
BLACK
6
CONTINUOUS
10
8.81575
20
-7.74646
11
8.84724
21
-7.77795
0
LINE
8
BLACK
6
CONTINUOUS
10
8.84724
20
-7.74646
11
8.81575
21
-7.77795
0
LINE
8
BLACK
6
CONTINUOUS
10
8.81575
20
-7.84646
11
8.84724
21
-7.87795
0
LINE
8
BLACK
6
CONTINUOUS
10
8.84724
20
-7.84646
11
8.81575
21
-7.87795
0
LINE
8
BLACK
6
CONTINUOUS
10
8.81575
20
-7.94646
11
8.84724
21
-7.97795
0
LINE
8
BLACK
6
CONTINUOUS
10
8.84724
20
-7.94646
11
8.81575
21
-7.97795
0
LINE
8
BLACK
6
CONTINUOUS
10
9.65748
20
-5.24016
11
9.68898
21
-5.27165
0
LINE
8
BLACK
6
CONTINUOUS
10
9.68898
20
-5.24016
11
9.65748
21
-5.27165
0
LINE
8
BLACK
6
CONTINUOUS
10
9.65748
20
-5.34016
11
9.68898
21
-5.37165
0
LINE
8
BLACK
6
CONTINUOUS
10
9.68898
20
-5.34016
11
9.65748
21
-5.37165
0
LINE
8
BLACK
6
CONTINUOUS
10
9.65748
20
-5.44016
11
9.68898
21
-5.47165
0
LINE
8
BLACK
6
CONTINUOUS
10
9.68898
20
-5.44016
11
9.65748
21
-5.47165
0
LINE
8
BLACK
6
CONTINUOUS
10
9.65748
20
-5.54016
11
9.68898
21
-5.57165
0
LINE
8
BLACK
6
CONTINUOUS
10
9.68898
20
-5.54016
11
9.65748
21
-5.57165
0
LINE
8
BLACK
6
CONTINUOUS
10
9.65748
20
-5.64016
11
9.68898
21
-5.67165
0
LINE
8
BLACK
6
CONTINUOUS
10
9.68898
20
-5.64016
11
9.65748
21
-5.67165
0
LINE
8
BLACK
6
CONTINUOUS
10
9.65748
20
-5.74016
11
9.68898
21
-5.77165
0
LINE
8
BLACK
6
CONTINUOUS
10
9.68898
20
-5.74016
11
9.65748
21
-5.77165
0
LINE
8
BLACK
6
CONTINUOUS
10
9.65748
20
-5.84016
11
9.68898
21
-5.87165
0
LINE
8
BLACK
6
CONTINUOUS
10
9.68898
20
-5.84016
11
9.65748
21
-5.87165
0
LINE
8
BLACK
6
CONTINUOUS
10
9.65748
20
-7.34646
11
9.68898
21
-7.37795
0
LINE
8
BLACK
6
CONTINUOUS
10
9.68898
20
-7.34646
11
9.65748
21
-7.37795
0
LINE
8
BLACK
6
CONTINUOUS
10
9.65748
20
-7.44646
11
9.68898
21
-7.47795
0
LINE
8
BLACK
6
CONTINUOUS
10
9.68898
20
-7.44646
11
9.65748
21
-7.47795
0
LINE
8
BLACK
6
CONTINUOUS
10
9.65748
20
-7.54646
11
9.68898
21
-7.57795
0
LINE
8
BLACK
6
CONTINUOUS
10
9.68898
20
-7.54646
11
9.65748
21
-7.57795
0
LINE
8
BLACK
6
CONTINUOUS
10
9.65748
20
-7.64646
11
9.68898
21
-7.67795
0
LINE
8
BLACK
6
CONTINUOUS
10
9.68898
20
-7.64646
11
9.65748
21
-7.67795
0
LINE
8
BLACK
6
CONTINUOUS
10
9.65748
20
-7.74646
11
9.68898
21
-7.77795
0
LINE
8
BLACK
6
CONTINUOUS
10
9.68898
20
-7.74646
11
9.65748
21
-7.77795
0
LINE
8
BLACK
6
CONTINUOUS
10
9.65748
20
-7.84646
11
9.68898
21
-7.87795
0
LINE
8
BLACK
6
CONTINUOUS
10
9.68898
20
-7.84646
11
9.65748
21
-7.87795
0
LINE
8
BLACK
6
CONTINUOUS
10
9.65748
20
-7.94646
11
9.68898
21
-7.97795
0
LINE
8
BLACK
6
CONTINUOUS
10
9.68898
20
-7.94646
11
9.65748
21
-7.97795
0
LINE
8
BLACK
6
CONTINUOUS
10
9.95748
20
-5.24016
11
9.98898
21
-5.27165
0
LINE
8
BLACK
6
CONTINUOUS
10
9.98898
20
-5.24016
11
9.95748
21
-5.27165
0
LINE
8
BLACK
6
CONTINUOUS
10
9.95748
20
-5.34016
11
9.98898
21
-5.37165
0
LINE
8
BLACK
6
CONTINUOUS
10
9.98898
20
-5.34016
11
9.95748
21
-5.37165
0
LINE
8
BLACK
6
CONTINUOUS
10
9.95748
20
-5.44016
11
9.98898
21
-5.47165
0
LINE
8
BLACK
6
CONTINUOUS
10
9.98898
20
-5.44016
11
9.95748
21
-5.47165
0
LINE
8
BLACK
6
CONTINUOUS
10
9.95748
20
-5.54016
11
9.98898
21
-5.57165
0
LINE
8
BLACK
6
CONTINUOUS
10
9.98898
20
-5.54016
11
9.95748
21
-5.57165
0
LINE
8
BLACK
6
CONTINUOUS
10
9.95748
20
-5.64016
11
9.98898
21
-5.67165
0
LINE
8
BLACK
6
CONTINUOUS
10
9.98898
20
-5.64016
11
9.95748
21
-5.67165
0
LINE
8
BLACK
6
CONTINUOUS
10
9.95748
20
-5.74016
11
9.98898
21
-5.77165
0
LINE
8
BLACK
6
CONTINUOUS
10
9.98898
20
-5.74016
11
9.95748
21
-5.77165
0
LINE
8
BLACK
6
CONTINUOUS
10
9.95748
20
-5.84016
11
9.98898
21
-5.87165
0
LINE
8
BLACK
6
CONTINUOUS
10
9.98898
20
-5.84016
11
9.95748
21
-5.87165
0
LINE
8
BLACK
6
CONTINUOUS
10
9.95748
20
-7.34646
11
9.98898
21
-7.37795
0
LINE
8
BLACK
6
CONTINUOUS
10
9.98898
20
-7.34646
11
9.95748
21
-7.37795
0
LINE
8
BLACK
6
CONTINUOUS
10
9.95748
20
-7.44646
11
9.98898
21
-7.47795
0
LINE
8
BLACK
6
CONTINUOUS
10
9.98898
20
-7.44646
11
9.95748
21
-7.47795
0
LINE
8
BLACK
6
CONTINUOUS
10
9.95748
20
-7.54646
11
9.98898
21
-7.57795
0
LINE
8
BLACK
6
CONTINUOUS
10
9.98898
20
-7.54646
11
9.95748
21
-7.57795
0
LINE
8
BLACK
6
CONTINUOUS
10
9.95748
20
-7.64646
11
9.98898
21
-7.67795
0
LINE
8
BLACK
6
CONTINUOUS
10
9.98898
20
-7.64646
11
9.95748
21
-7.67795
0
LINE
8
BLACK
6
CONTINUOUS
10
9.95748
20
-7.74646
11
9.98898
21
-7.77795
0
LINE
8
BLACK
6
CONTINUOUS
10
9.98898
20
-7.74646
11
9.95748
21
-7.77795
0
LINE
8
BLACK
6
CONTINUOUS
10
9.95748
20
-7.84646
11
9.98898
21
-7.87795
0
LINE
8
BLACK
6
CONTINUOUS
10
9.98898
20
-7.84646
11
9.95748
21
-7.87795
0
LINE
8
BLACK
6
CONTINUOUS
10
9.95748
20
-7.94646
11
9.98898
21
-7.97795
0
LINE
8
BLACK
6
CONTINUOUS
10
9.98898
20
-7.94646
11
9.95748
21
-7.97795
0
CIRCLE
8
BLACK
10
2.0435
20
-8.11752
40
0.019685
0
CIRCLE
8
BLACK
10
2.04665
20
-6.14252
40
0.019685
0
CIRCLE
8
BLACK
10
2.24035
20
-8.11752
40
0.019685
0
CIRCLE
8
BLACK
10
2.2435
20
-6.14252
40
0.019685
0
CIRCLE
8
BLACK
10
2.26142
20
-6.01043
40
0.019685
0
CIRCLE
8
BLACK
10
2.34572
20
-5.0903
40
0.019685
0
CIRCLE
8
BLACK
10
2.3685
20
-7.19252
40
0.019685
0
CIRCLE
8
BLACK
10
2.4185
20
-8.54252
40
0.019685
0
CIRCLE
8
BLACK
10
2.5935
20
-8.44252
40
0.019685
0
CIRCLE
8
BLACK
10
2.5935
20
-9.29252
40
0.019685
0
CIRCLE
8
BLACK
10
2.7185
20
-6.94252
40
0.019685
0
CIRCLE
8
BLACK
10
2.7435
20
-9.19252
40
0.019685
0
CIRCLE
8
BLACK
10
2.7685
20
-4.96752
40
0.019685
0
CIRCLE
8
BLACK
10
2.7935
20
-6.81752
40
0.019685
0
CIRCLE
8
BLACK
10
2.7935
20
-8.26752
40
0.019685
0
CIRCLE
8
BLACK
10
2.8185
20
-6.66752
40
0.019685
0
CIRCLE
8
BLACK
10
2.82559
20
-5.98543
40
0.019685
0
CIRCLE
8
BLACK
10
2.88716
20
-6.51117
40
0.019685
0
CIRCLE
8
BLACK
10
2.8935
20
-9.09252
40
0.019685
0
CIRCLE
8
BLACK
10
2.9435
20
-6.36752
40
0.019685
0
CIRCLE
8
BLACK
10
3.0435
20
-8.99252
40
0.019685
0
CIRCLE
8
BLACK
10
3.1189
20
-7.19252
40
0.019685
0
CIRCLE
8
BLACK
10
3.1235
20
-5.08752
40
0.019685
0
CIRCLE
8
BLACK
10
3.1935
20
-8.89252
40
0.019685
0
CIRCLE
8
BLACK
10
3.43716
20
-6.51117
40
0.019685
0
CIRCLE
8
BLACK
10
3.5185
20
-6.81752
40
0.019685
0
CIRCLE
8
BLACK
10
3.5435
20
-6.36752
40
0.019685
0
CIRCLE
8
BLACK
10
3.5435
20
-6.94252
40
0.019685
0
CIRCLE
8
BLACK
10
3.5685
20
-4.56752
40
0.019685
0
CIRCLE
8
BLACK
10
3.8435
20
-8.79252
40
0.019685
0
CIRCLE
8
BLACK
10
3.9185
20
-6.31752
40
0.019685
0
CIRCLE
8
BLACK
10
3.9435
20
-8.26752
40
0.019685
0
CIRCLE
8
BLACK
10
3.96559
20
-5.98543
40
0.019685
0
CIRCLE
8
BLACK
10
3.99657
20
-8.68946
40
0.019685
0
CIRCLE
8
BLACK
10
4.0935
20
-6.66752
40
0.019685
0
CIRCLE
8
BLACK
10
4.2685
20
-7.19252
40
0.019685
0
CIRCLE
8
BLACK
10
4.27072
20
-5.0903
40
0.019685
0
CIRCLE
8
BLACK
10
4.3435
20
-8.79252
40
0.019685
0
CIRCLE
8
BLACK
10
4.5435
20
-6.09252
40
0.019685
0
CIRCLE
8
BLACK
10
4.6185
20
-6.21752
40
0.019685
0
CIRCLE
8
BLACK
10
4.6935
20
-9.29252
40
0.019685
0
CIRCLE
8
BLACK
10
4.9185
20
-9.29252
40
0.019685
0
CIRCLE
8
BLACK
10
5.0185
20
-9.19252
40
0.019685
0
CIRCLE
8
BLACK
10
5.0935
20
-6.51752
40
0.019685
0
CIRCLE
8
BLACK
10
5.0935
20
-8.26752
40
0.019685
0
CIRCLE
8
BLACK
10
5.10925
20
-5.98543
40
0.019685
0
CIRCLE
8
BLACK
10
5.3185
20
-4.96752
40
0.019685
0
CIRCLE
8
BLACK
10
5.3185
20
-6.69252
40
0.019685
0
CIRCLE
8
BLACK
10
5.3185
20
-9.09252
40
0.019685
0
CIRCLE
8
BLACK
10
5.42072
20
-5.0903
40
0.019685
0
CIRCLE
8
BLACK
10
5.4374
20
-7.19252
40
0.019685
0
CIRCLE
8
BLACK
10
5.6185
20
-6.21752
40
0.019685
0
CIRCLE
8
BLACK
10
5.6435
20
-8.99252
40
0.019685
0
CIRCLE
8
BLACK
10
5.7185
20
-6.51752
40
0.019685
0
CIRCLE
8
BLACK
10
5.8185
20
-6.69252
40
0.019685
0
CIRCLE
8
BLACK
10
5.8685
20
-4.94252
40
0.019685
0
CIRCLE
8
BLACK
10
5.8935
20
-6.31752
40
0.019685
0
CIRCLE
8
BLACK
10
5.8935
20
-7.39252
40
0.019685
0
CIRCLE
8
BLACK
10
5.8935
20
-7.61752
40
0.019685
0
CIRCLE
8
BLACK
10
5.9435
20
-8.89252
40
0.019685
0
CIRCLE
8
BLACK
10
5.9685
20
-4.79252
40
0.019685
0
CIRCLE
8
BLACK
10
6.0685
20
-6.39252
40
0.019685
0
CIRCLE
8
BLACK
10
6.2435
20
-6.49252
40
0.019685
0
CIRCLE
8
BLACK
10
6.2435
20
-8.26752
40
0.019685
0
CIRCLE
8
BLACK
10
6.25059
20
-5.98543
40
0.019685
0
CIRCLE
8
BLACK
10
6.3185
20
-4.66752
40
0.019685
0
CIRCLE
8
BLACK
10
6.3435
20
-9.19252
40
0.019685
0
CIRCLE
8
BLACK
10
6.4185
20
-7.06752
40
0.019685
0
CIRCLE
8
BLACK
10
6.4935
20
-9.09252
40
0.019685
0
CIRCLE
8
BLACK
10
6.4935
20
-9.19252
40
0.019685
0
CIRCLE
8
BLACK
10
6.5435
20
-7.19252
40
0.019685
0
CIRCLE
8
BLACK
10
6.5485
20
-5.0903
40
0.019685
0
CIRCLE
8
BLACK
10
6.6435
20
-8.99252
40
0.019685
0
CIRCLE
8
BLACK
10
6.8185
20
-8.89252
40
0.019685
0
CIRCLE
8
BLACK
10
6.9685
20
-9.09252
40
0.019685
0
CIRCLE
8
BLACK
10
7.1685
20
-6.81752
40
0.019685
0
CIRCLE
8
BLACK
10
7.1935
20
-8.79252
40
0.019685
0
CIRCLE
8
BLACK
10
7.2685
20
-6.94252
40
0.019685
0
CIRCLE
8
BLACK
10
7.39059
20
-5.98543
40
0.019685
0
CIRCLE
8
BLACK
10
7.3935
20
-8.26752
40
0.019685
0
CIRCLE
8
BLACK
10
7.4935
20
-6.31752
40
0.019685
0
CIRCLE
8
BLACK
10
7.5435
20
-8.89252
40
0.019685
0
CIRCLE
8
BLACK
10
7.5435
20
-9.09252
40
0.019685
0
CIRCLE
8
BLACK
10
7.6435
20
-8.79252
40
0.019685
0
CIRCLE
8
BLACK
10
7.6885
20
-5.0903
40
0.019685
0
CIRCLE
8
BLACK
10
7.6935
20
-7.19252
40
0.019685
0
CIRCLE
8
BLACK
10
7.8935
20
-8.69252
40
0.019685
0
CIRCLE
8
BLACK
10
7.8935
20
-9.09252
40
0.019685
0
CIRCLE
8
BLACK
10
7.91319
20
-7.4622
40
0.019685
0
CIRCLE
8
BLACK
10
8.0185
20
-5.34252
40
0.019685
0
CIRCLE
8
BLACK
10
8.0185
20
-5.86752
40
0.019685
0
CIRCLE
8
BLACK
10
8.1185
20
-7.46752
40
0.019685
0
CIRCLE
8
BLACK
10
8.1435
20
-6.94252
40
0.019685
0
CIRCLE
8
BLACK
10
8.2185
20
-4.66752
40
0.019685
0
CIRCLE
8
BLACK
10
8.22697
20
-6.31752
40
0.019685
0
CIRCLE
8
BLACK
10
8.3185
20
-6.21752
40
0.019685
0
CIRCLE
8
BLACK
10
8.3935
20
-6.09252
40
0.019685
0
CIRCLE
8
BLACK
10
8.5185
20
-8.26752
40
0.019685
0
CIRCLE
8
BLACK
10
8.53059
20
-5.98543
40
0.019685
0
CIRCLE
8
BLACK
10
8.5435
20
-6.21752
40
0.019685
0
CIRCLE
8
BLACK
10
8.6435
20
-4.79252
40
0.019685
0
CIRCLE
8
BLACK
10
8.7685
20
-6.81752
40
0.019685
0
CIRCLE
8
BLACK
10
8.8335
20
-5.0903
40
0.019685
0
CIRCLE
8
BLACK
10
8.8435
20
-6.31752
40
0.019685
0
CIRCLE
8
BLACK
10
8.8435
20
-7.19252
40
0.019685
0
CIRCLE
8
BLACK
10
9.0435
20
-6.39252
40
0.019685
0
CIRCLE
8
BLACK
10
9.0685
20
-8.89252
40
0.019685
0
CIRCLE
8
BLACK
10
9.0685
20
-9.09252
40
0.019685
0
CIRCLE
8
BLACK
10
9.1435
20
-6.49252
40
0.019685
0
CIRCLE
8
BLACK
10
9.1435
20
-8.54252
40
0.019685
0
CIRCLE
8
BLACK
10
9.2935
20
-8.44252
40
0.019685
0
CIRCLE
8
BLACK
10
9.2935
20
-9.09252
40
0.019685
0
CIRCLE
8
BLACK
10
9.5185
20
-6.81752
40
0.019685
0
CIRCLE
8
BLACK
10
9.5185
20
-6.94252
40
0.019685
0
CIRCLE
8
BLACK
10
9.5435
20
-4.56752
40
0.019685
0
CIRCLE
8
BLACK
10
9.6435
20
-9.19252
40
0.019685
0
CIRCLE
8
BLACK
10
9.6685
20
-6.21752
40
0.019685
0
CIRCLE
8
BLACK
10
9.6685
20
-8.26752
40
0.019685
0
CIRCLE
8
BLACK
10
9.67559
20
-5.98543
40
0.019685
0
CIRCLE
8
BLACK
10
9.7435
20
-8.99252
40
0.019685
0
CIRCLE
8
BLACK
10
9.8435
20
-7.06752
40
0.019685
0
CIRCLE
8
BLACK
10
9.8435
20
-9.29252
40
0.019685
0
CIRCLE
8
BLACK
10
9.8935
20
-8.79252
40
0.019685
0
CIRCLE
8
BLACK
10
9.9685
20
-7.19252
40
0.019685
0
CIRCLE
8
BLACK
10
9.97072
20
-5.0903
40
0.019685
0
CIRCLE
8
BLACK
10
10.1685
20
-4.94252
40
0.019685
0
CIRCLE
8
BLACK
10
10.1685
20
-9.09252
40
0.019685
0
CIRCLE
8
BLACK
10
10.315
20
-8.26398
40
0.019685
0
CIRCLE
8
BLACK
10
10.3185
20
-4.96063
40
0.019685
0
CIRCLE
8
BLACK
10
10.3185
20
-5.98543
40
0.019685
0
CIRCLE
8
BLACK
10
10.3185
20
-6.11752
40
0.019685
0
CIRCLE
8
BLACK
10
10.3185
20
-7.01752
40
0.019685
0
CIRCLE
8
BLACK
10
10.3185
20
-8.09252
40
0.019685
0
CIRCLE
8
BLACK
10
10.4707
20
-5.0903
40
0.019685
0
CIRCLE
8
BLACK
10
10.4707
20
-7.19474
40
0.019685
0
CIRCLE
8
BLACK
10
10.5154
20
-4.96063
40
0.019685
0
CIRCLE
8
BLACK
10
10.5154
20
-6.11752
40
0.019685
0
CIRCLE
8
BLACK
10
10.5154
20
-7.01752
40
0.019685
0
CIRCLE
8
BLACK
10
10.5154
20
-8.09252
40
0.019685
0
LINE
8
BLACK
6
CONTINUOUS
10
2.16535
20
-3.59843
11
2.16535
21
-3.72441
0
LINE
8
BLACK
6
CONTINUOUS
10
2.10236
20
-3.66142
11
2.22835
21
-3.66142
0
LINE
8
BLACK
6
CONTINUOUS
10
5.70866
20
-3.59843
11
5.70866
21
-3.72441
0
LINE
8
BLACK
6
CONTINUOUS
10
5.64567
20
-3.66142
11
5.77165
21
-3.66142
0
LINE
8
BLACK
6
CONTINUOUS
10
6.88976
20
-3.59843
11
6.88976
21
-3.72441
0
LINE
8
BLACK
6
CONTINUOUS
10
6.82677
20
-3.66142
11
6.95276
21
-3.66142
0
LINE
8
BLACK
6
CONTINUOUS
10
10.4331
20
-3.59843
11
10.4331
21
-3.72441
0
LINE
8
BLACK
6
CONTINUOUS
10
10.3701
20
-3.66142
11
10.4961
21
-3.66142
0
LINE
8
BLACK
6
CONTINUOUS
10
2.08029
20
-10.0269
11
2.08029
21
-9.90875
0
LINE
8
BLACK
6
CONTINUOUS
10
2.08029
20
-9.90875
11
2.10841
21
-9.90875
0
LINE
8
BLACK
6
CONTINUOUS
10
2.10841
20
-9.90875
11
2.12528
21
-9.91437
0
LINE
8
BLACK
6
CONTINUOUS
10
2.12528
20
-9.91437
11
2.13653
21
-9.92562
0
LINE
8
BLACK
6
CONTINUOUS
10
2.13653
20
-9.92562
11
2.14215
21
-9.93687
0
LINE
8
BLACK
6
CONTINUOUS
10
2.14215
20
-9.93687
11
2.14778
21
-9.95936
0
LINE
8
BLACK
6
CONTINUOUS
10
2.14778
20
-9.95936
11
2.14778
21
-9.97624
0
LINE
8
BLACK
6
CONTINUOUS
10
2.14778
20
-9.97624
11
2.14215
21
-9.99873
0
LINE
8
BLACK
6
CONTINUOUS
10
2.14215
20
-9.99873
11
2.13653
21
-10.01
0
LINE
8
BLACK
6
CONTINUOUS
10
2.13653
20
-10.01
11
2.12528
21
-10.0212
0
LINE
8
BLACK
6
CONTINUOUS
10
2.12528
20
-10.0212
11
2.10841
21
-10.0269
0
LINE
8
BLACK
6
CONTINUOUS
10
2.10841
20
-10.0269
11
2.08029
21
-10.0269
0
LINE
8
BLACK
6
CONTINUOUS
10
2.1984
20
-10.0269
11
2.1984
21
-9.94812
0
LINE
8
BLACK
6
CONTINUOUS
10
2.1984
20
-9.97061
11
2.20402
21
-9.95936
0
LINE
8
BLACK
6
CONTINUOUS
10
2.20402
20
-9.95936
11
2.20965
21
-9.95374
0
LINE
8
BLACK
6
CONTINUOUS
10
2.20965
20
-9.95374
11
2.22089
21
-9.94812
0
LINE
8
BLACK
6
CONTINUOUS
10
2.22089
20
-9.94812
11
2.23214
21
-9.94812
0
LINE
8
BLACK
6
CONTINUOUS
10
2.27151
20
-10.0269
11
2.27151
21
-9.94812
0
LINE
8
BLACK
6
CONTINUOUS
10
2.27151
20
-9.90875
11
2.26589
21
-9.91437
0
LINE
8
BLACK
6
CONTINUOUS
10
2.26589
20
-9.91437
11
2.27151
21
-9.91999
0
LINE
8
BLACK
6
CONTINUOUS
10
2.27151
20
-9.91999
11
2.27714
21
-9.91437
0
LINE
8
BLACK
6
CONTINUOUS
10
2.27714
20
-9.91437
11
2.27151
21
-9.90875
0
LINE
8
BLACK
6
CONTINUOUS
10
2.27151
20
-9.90875
11
2.27151
21
-9.91999
0
LINE
8
BLACK
6
CONTINUOUS
10
2.34463
20
-10.0269
11
2.33338
21
-10.0212
0
LINE
8
BLACK
6
CONTINUOUS
10
2.33338
20
-10.0212
11
2.32776
21
-10.01
0
LINE
8
BLACK
6
CONTINUOUS
10
2.32776
20
-10.01
11
2.32776
21
-9.90875
0
LINE
8
BLACK
6
CONTINUOUS
10
2.4065
20
-10.0269
11
2.39525
21
-10.0212
0
LINE
8
BLACK
6
CONTINUOUS
10
2.39525
20
-10.0212
11
2.38962
21
-10.01
0
LINE
8
BLACK
6
CONTINUOUS
10
2.38962
20
-10.01
11
2.38962
21
-9.90875
0
LINE
8
BLACK
6
CONTINUOUS
10
2.54148
20
-10.0269
11
2.54148
21
-9.90875
0
LINE
8
BLACK
6
CONTINUOUS
10
2.54148
20
-9.90875
11
2.58085
21
-9.99311
0
LINE
8
BLACK
6
CONTINUOUS
10
2.58085
20
-9.99311
11
2.62022
21
-9.90875
0
LINE
8
BLACK
6
CONTINUOUS
10
2.62022
20
-9.90875
11
2.62022
21
-10.0269
0
LINE
8
BLACK
6
CONTINUOUS
10
2.72708
20
-10.0269
11
2.72708
21
-9.96499
0
LINE
8
BLACK
6
CONTINUOUS
10
2.72708
20
-9.96499
11
2.72146
21
-9.95374
0
LINE
8
BLACK
6
CONTINUOUS
10
2.72146
20
-9.95374
11
2.71021
21
-9.94812
0
LINE
8
BLACK
6
CONTINUOUS
10
2.71021
20
-9.94812
11
2.68771
21
-9.94812
0
LINE
8
BLACK
6
CONTINUOUS
10
2.68771
20
-9.94812
11
2.67646
21
-9.95374
0
LINE
8
BLACK
6
CONTINUOUS
10
2.72708
20
-10.0212
11
2.71583
21
-10.0269
0
LINE
8
BLACK
6
CONTINUOUS
10
2.71583
20
-10.0269
11
2.68771
21
-10.0269
0
LINE
8
BLACK
6
CONTINUOUS
10
2.68771
20
-10.0269
11
2.67646
21
-10.0212
0
LINE
8
BLACK
6
CONTINUOUS
10
2.67646
20
-10.0212
11
2.67084
21
-10.01
0
LINE
8
BLACK
6
CONTINUOUS
10
2.67084
20
-10.01
11
2.67084
21
-9.99873
0
LINE
8
BLACK
6
CONTINUOUS
10
2.67084
20
-9.99873
11
2.67646
21
-9.98749
0
LINE
8
BLACK
6
CONTINUOUS
10
2.67646
20
-9.98749
11
2.68771
21
-9.98186
0
LINE
8
BLACK
6
CONTINUOUS
10
2.68771
20
-9.98186
11
2.71583
21
-9.98186
0
LINE
8
BLACK
6
CONTINUOUS
10
2.71583
20
-9.98186
11
2.72708
21
-9.97624
0
LINE
8
BLACK
6
CONTINUOUS
10
2.78332
20
-9.94812
11
2.78332
21
-10.0662
0
LINE
8
BLACK
6
CONTINUOUS
10
2.78332
20
-9.95374
11
2.79457
21
-9.94812
0
LINE
8
BLACK
6
CONTINUOUS
10
2.79457
20
-9.94812
11
2.81707
21
-9.94812
0
LINE
8
BLACK
6
CONTINUOUS
10
2.81707
20
-9.94812
11
2.82832
21
-9.95374
0
LINE
8
BLACK
6
CONTINUOUS
10
2.82832
20
-9.95374
11
2.83394
21
-9.95936
0
LINE
8
BLACK
6
CONTINUOUS
10
2.83394
20
-9.95936
11
2.83957
21
-9.97061
0
LINE
8
BLACK
6
CONTINUOUS
10
2.83957
20
-9.97061
11
2.83957
21
-10.0044
0
LINE
8
BLACK
6
CONTINUOUS
10
2.83957
20
-10.0044
11
2.83394
21
-10.0156
0
LINE
8
BLACK
6
CONTINUOUS
10
2.83394
20
-10.0156
11
2.82832
21
-10.0212
0
LINE
8
BLACK
6
CONTINUOUS
10
2.82832
20
-10.0212
11
2.81707
21
-10.0269
0
LINE
8
BLACK
6
CONTINUOUS
10
2.81707
20
-10.0269
11
2.79457
21
-10.0269
0
LINE
8
BLACK
6
CONTINUOUS
10
2.79457
20
-10.0269
11
2.78332
21
-10.0212
0
LINE
8
BLACK
6
CONTINUOUS
10
2.89019
20
-10.0156
11
2.89581
21
-10.0212
0
LINE
8
BLACK
6
CONTINUOUS
10
2.89581
20
-10.0212
11
2.89019
21
-10.0269
0
LINE
8
BLACK
6
CONTINUOUS
10
2.89019
20
-10.0269
11
2.88456
21
-10.0212
0
LINE
8
BLACK
6
CONTINUOUS
10
2.88456
20
-10.0212
11
2.89019
21
-10.0156
0
LINE
8
BLACK
6
CONTINUOUS
10
2.89019
20
-10.0156
11
2.89019
21
-10.0269
0
LINE
8
BLACK
6
CONTINUOUS
10
2.89019
20
-9.95374
11
2.89581
21
-9.95936
0
LINE
8
BLACK
6
CONTINUOUS
10
2.89581
20
-9.95936
11
2.89019
21
-9.96499
0
LINE
8
BLACK
6
CONTINUOUS
10
2.89019
20
-9.96499
11
2.88456
21
-9.95936
0
LINE
8
BLACK
6
CONTINUOUS
10
2.88456
20
-9.95936
11
2.89019
21
-9.95374
0
LINE
8
BLACK
6
CONTINUOUS
10
2.89019
20
-9.95374
11
2.89019
21
-9.96499
0
LINE
8
BLACK
6
CONTINUOUS
10
1.93602
20
-10.2057
11
1.96752
21
-10.2372
0
LINE
8
BLACK
6
CONTINUOUS
10
1.96752
20
-10.2057
11
1.93602
21
-10.2372
0
LINE
8
BLACK
6
CONTINUOUS
10
2.10278
20
-10.1568
11
2.11403
21
-10.1568
0
LINE
8
BLACK
6
CONTINUOUS
10
2.11403
20
-10.1568
11
2.12528
21
-10.1624
0
LINE
8
BLACK
6
CONTINUOUS
10
2.12528
20
-10.1624
11
2.13091
21
-10.168
0
LINE
8
BLACK
6
CONTINUOUS
10
2.13091
20
-10.168
11
2.13653
21
-10.1793
0
LINE
8
BLACK
6
CONTINUOUS
10
2.13653
20
-10.1793
11
2.14215
21
-10.2018
0
LINE
8
BLACK
6
CONTINUOUS
10
2.14215
20
-10.2018
11
2.14215
21
-10.2299
0
LINE
8
BLACK
6
CONTINUOUS
10
2.14215
20
-10.2299
11
2.13653
21
-10.2524
0
LINE
8
BLACK
6
CONTINUOUS
10
2.13653
20
-10.2524
11
2.13091
21
-10.2636
0
LINE
8
BLACK
6
CONTINUOUS
10
2.13091
20
-10.2636
11
2.12528
21
-10.2693
0
LINE
8
BLACK
6
CONTINUOUS
10
2.12528
20
-10.2693
11
2.11403
21
-10.2749
0
LINE
8
BLACK
6
CONTINUOUS
10
2.11403
20
-10.2749
11
2.10278
21
-10.2749
0
LINE
8
BLACK
6
CONTINUOUS
10
2.10278
20
-10.2749
11
2.09154
21
-10.2693
0
LINE
8
BLACK
6
CONTINUOUS
10
2.09154
20
-10.2693
11
2.08591
21
-10.2636
0
LINE
8
BLACK
6
CONTINUOUS
10
2.08591
20
-10.2636
11
2.08029
21
-10.2524
0
LINE
8
BLACK
6
CONTINUOUS
10
2.08029
20
-10.2524
11
2.07466
21
-10.2299
0
LINE
8
BLACK
6
CONTINUOUS
10
2.07466
20
-10.2299
11
2.07466
21
-10.2018
0
LINE
8
BLACK
6
CONTINUOUS
10
2.07466
20
-10.2018
11
2.08029
21
-10.1793
0
LINE
8
BLACK
6
CONTINUOUS
10
2.08029
20
-10.1793
11
2.08591
21
-10.168
0
LINE
8
BLACK
6
CONTINUOUS
10
2.08591
20
-10.168
11
2.09154
21
-10.1624
0
LINE
8
BLACK
6
CONTINUOUS
10
2.09154
20
-10.1624
11
2.10278
21
-10.1568
0
LINE
8
BLACK
6
CONTINUOUS
10
2.19277
20
-10.2636
11
2.1984
21
-10.2693
0
LINE
8
BLACK
6
CONTINUOUS
10
2.1984
20
-10.2693
11
2.19277
21
-10.2749
0
LINE
8
BLACK
6
CONTINUOUS
10
2.19277
20
-10.2749
11
2.18715
21
-10.2693
0
LINE
8
BLACK
6
CONTINUOUS
10
2.18715
20
-10.2693
11
2.19277
21
-10.2636
0
LINE
8
BLACK
6
CONTINUOUS
10
2.19277
20
-10.2636
11
2.19277
21
-10.2749
0
LINE
8
BLACK
6
CONTINUOUS
10
2.26589
20
-10.2074
11
2.25464
21
-10.2018
0
LINE
8
BLACK
6
CONTINUOUS
10
2.25464
20
-10.2018
11
2.24902
21
-10.1961
0
LINE
8
BLACK
6
CONTINUOUS
10
2.24902
20
-10.1961
11
2.24339
21
-10.1849
0
LINE
8
BLACK
6
CONTINUOUS
10
2.24339
20
-10.1849
11
2.24339
21
-10.1793
0
LINE
8
BLACK
6
CONTINUOUS
10
2.24339
20
-10.1793
11
2.24902
21
-10.168
0
LINE
8
BLACK
6
CONTINUOUS
10
2.24902
20
-10.168
11
2.25464
21
-10.1624
0
LINE
8
BLACK
6
CONTINUOUS
10
2.25464
20
-10.1624
11
2.26589
21
-10.1568
0
LINE
8
BLACK
6
CONTINUOUS
10
2.26589
20
-10.1568
11
2.28839
21
-10.1568
0
LINE
8
BLACK
6
CONTINUOUS
10
2.28839
20
-10.1568
11
2.29963
21
-10.1624
0
LINE
8
BLACK
6
CONTINUOUS
10
2.29963
20
-10.1624
11
2.30526
21
-10.168
0
LINE
8
BLACK
6
CONTINUOUS
10
2.30526
20
-10.168
11
2.31088
21
-10.1793
0
LINE
8
BLACK
6
CONTINUOUS
10
2.31088
20
-10.1793
11
2.31088
21
-10.1849
0
LINE
8
BLACK
6
CONTINUOUS
10
2.31088
20
-10.1849
11
2.30526
21
-10.1961
0
LINE
8
BLACK
6
CONTINUOUS
10
2.30526
20
-10.1961
11
2.29963
21
-10.2018
0
LINE
8
BLACK
6
CONTINUOUS
10
2.29963
20
-10.2018
11
2.28839
21
-10.2074
0
LINE
8
BLACK
6
CONTINUOUS
10
2.28839
20
-10.2074
11
2.26589
21
-10.2074
0
LINE
8
BLACK
6
CONTINUOUS
10
2.26589
20
-10.2074
11
2.25464
21
-10.213
0
LINE
8
BLACK
6
CONTINUOUS
10
2.25464
20
-10.213
11
2.24902
21
-10.2186
0
LINE
8
BLACK
6
CONTINUOUS
10
2.24902
20
-10.2186
11
2.24339
21
-10.2299
0
LINE
8
BLACK
6
CONTINUOUS
10
2.24339
20
-10.2299
11
2.24339
21
-10.2524
0
LINE
8
BLACK
6
CONTINUOUS
10
2.24339
20
-10.2524
11
2.24902
21
-10.2636
0
LINE
8
BLACK
6
CONTINUOUS
10
2.24902
20
-10.2636
11
2.25464
21
-10.2693
0
LINE
8
BLACK
6
CONTINUOUS
10
2.25464
20
-10.2693
11
2.26589
21
-10.2749
0
LINE
8
BLACK
6
CONTINUOUS
10
2.26589
20
-10.2749
11
2.28839
21
-10.2749
0
LINE
8
BLACK
6
CONTINUOUS
10
2.28839
20
-10.2749
11
2.29963
21
-10.2693
0
LINE
8
BLACK
6
CONTINUOUS
10
2.29963
20
-10.2693
11
2.30526
21
-10.2636
0
LINE
8
BLACK
6
CONTINUOUS
10
2.30526
20
-10.2636
11
2.31088
21
-10.2524
0
LINE
8
BLACK
6
CONTINUOUS
10
2.31088
20
-10.2524
11
2.31088
21
-10.2299
0
LINE
8
BLACK
6
CONTINUOUS
10
2.31088
20
-10.2299
11
2.30526
21
-10.2186
0
LINE
8
BLACK
6
CONTINUOUS
10
2.30526
20
-10.2186
11
2.29963
21
-10.213
0
LINE
8
BLACK
6
CONTINUOUS
10
2.29963
20
-10.213
11
2.28839
21
-10.2074
0
LINE
8
BLACK
6
CONTINUOUS
10
2.384
20
-10.1568
11
2.39525
21
-10.1568
0
LINE
8
BLACK
6
CONTINUOUS
10
2.39525
20
-10.1568
11
2.4065
21
-10.1624
0
LINE
8
BLACK
6
CONTINUOUS
10
2.4065
20
-10.1624
11
2.41212
21
-10.168
0
LINE
8
BLACK
6
CONTINUOUS
10
2.41212
20
-10.168
11
2.41774
21
-10.1793
0
LINE
8
BLACK
6
CONTINUOUS
10
2.41774
20
-10.1793
11
2.42337
21
-10.2018
0
LINE
8
BLACK
6
CONTINUOUS
10
2.42337
20
-10.2018
11
2.42337
21
-10.2299
0
LINE
8
BLACK
6
CONTINUOUS
10
2.42337
20
-10.2299
11
2.41774
21
-10.2524
0
LINE
8
BLACK
6
CONTINUOUS
10
2.41774
20
-10.2524
11
2.41212
21
-10.2636
0
LINE
8
BLACK
6
CONTINUOUS
10
2.41212
20
-10.2636
11
2.4065
21
-10.2693
0
LINE
8
BLACK
6
CONTINUOUS
10
2.4065
20
-10.2693
11
2.39525
21
-10.2749
0
LINE
8
BLACK
6
CONTINUOUS
10
2.39525
20
-10.2749
11
2.384
21
-10.2749
0
LINE
8
BLACK
6
CONTINUOUS
10
2.384
20
-10.2749
11
2.37275
21
-10.2693
0
LINE
8
BLACK
6
CONTINUOUS
10
2.37275
20
-10.2693
11
2.36713
21
-10.2636
0
LINE
8
BLACK
6
CONTINUOUS
10
2.36713
20
-10.2636
11
2.3615
21
-10.2524
0
LINE
8
BLACK
6
CONTINUOUS
10
2.3615
20
-10.2524
11
2.35588
21
-10.2299
0
LINE
8
BLACK
6
CONTINUOUS
10
2.35588
20
-10.2299
11
2.35588
21
-10.2018
0
LINE
8
BLACK
6
CONTINUOUS
10
2.35588
20
-10.2018
11
2.3615
21
-10.1793
0
LINE
8
BLACK
6
CONTINUOUS
10
2.3615
20
-10.1793
11
2.36713
21
-10.168
0
LINE
8
BLACK
6
CONTINUOUS
10
2.36713
20
-10.168
11
2.37275
21
-10.1624
0
LINE
8
BLACK
6
CONTINUOUS
10
2.37275
20
-10.1624
11
2.384
21
-10.1568
0
LINE
8
BLACK
6
CONTINUOUS
10
2.49648
20
-10.1568
11
2.50773
21
-10.1568
0
LINE
8
BLACK
6
CONTINUOUS
10
2.50773
20
-10.1568
11
2.51898
21
-10.1624
0
LINE
8
BLACK
6
CONTINUOUS
10
2.51898
20
-10.1624
11
2.52461
21
-10.168
0
LINE
8
BLACK
6
CONTINUOUS
10
2.52461
20
-10.168
11
2.53023
21
-10.1793
0
LINE
8
BLACK
6
CONTINUOUS
10
2.53023
20
-10.1793
11
2.53585
21
-10.2018
0
LINE
8
BLACK
6
CONTINUOUS
10
2.53585
20
-10.2018
11
2.53585
21
-10.2299
0
LINE
8
BLACK
6
CONTINUOUS
10
2.53585
20
-10.2299
11
2.53023
21
-10.2524
0
LINE
8
BLACK
6
CONTINUOUS
10
2.53023
20
-10.2524
11
2.52461
21
-10.2636
0
LINE
8
BLACK
6
CONTINUOUS
10
2.52461
20
-10.2636
11
2.51898
21
-10.2693
0
LINE
8
BLACK
6
CONTINUOUS
10
2.51898
20
-10.2693
11
2.50773
21
-10.2749
0
LINE
8
BLACK
6
CONTINUOUS
10
2.50773
20
-10.2749
11
2.49648
21
-10.2749
0
LINE
8
BLACK
6
CONTINUOUS
10
2.49648
20
-10.2749
11
2.48524
21
-10.2693
0
LINE
8
BLACK
6
CONTINUOUS
10
2.48524
20
-10.2693
11
2.47961
21
-10.2636
0
LINE
8
BLACK
6
CONTINUOUS
10
2.47961
20
-10.2636
11
2.47399
21
-10.2524
0
LINE
8
BLACK
6
CONTINUOUS
10
2.47399
20
-10.2524
11
2.46836
21
-10.2299
0
LINE
8
BLACK
6
CONTINUOUS
10
2.46836
20
-10.2299
11
2.46836
21
-10.2018
0
LINE
8
BLACK
6
CONTINUOUS
10
2.46836
20
-10.2018
11
2.47399
21
-10.1793
0
LINE
8
BLACK
6
CONTINUOUS
10
2.47399
20
-10.1793
11
2.47961
21
-10.168
0
LINE
8
BLACK
6
CONTINUOUS
10
2.47961
20
-10.168
11
2.48524
21
-10.1624
0
LINE
8
BLACK
6
CONTINUOUS
10
2.48524
20
-10.1624
11
2.49648
21
-10.1568
0
LINE
8
BLACK
6
CONTINUOUS
10
2.58647
20
-10.2749
11
2.58647
21
-10.1961
0
LINE
8
BLACK
6
CONTINUOUS
10
2.58647
20
-10.2074
11
2.5921
21
-10.2018
0
LINE
8
BLACK
6
CONTINUOUS
10
2.5921
20
-10.2018
11
2.60335
21
-10.1961
0
LINE
8
BLACK
6
CONTINUOUS
10
2.60335
20
-10.1961
11
2.62022
21
-10.1961
0
LINE
8
BLACK
6
CONTINUOUS
10
2.62022
20
-10.1961
11
2.63147
21
-10.2018
0
LINE
8
BLACK
6
CONTINUOUS
10
2.63147
20
-10.2018
11
2.63709
21
-10.213
0
LINE
8
BLACK
6
CONTINUOUS
10
2.63709
20
-10.213
11
2.63709
21
-10.2749
0
LINE
8
BLACK
6
CONTINUOUS
10
2.63709
20
-10.213
11
2.64272
21
-10.2018
0
LINE
8
BLACK
6
CONTINUOUS
10
2.64272
20
-10.2018
11
2.65397
21
-10.1961
0
LINE
8
BLACK
6
CONTINUOUS
10
2.65397
20
-10.1961
11
2.67084
21
-10.1961
0
LINE
8
BLACK
6
CONTINUOUS
10
2.67084
20
-10.1961
11
2.68209
21
-10.2018
0
LINE
8
BLACK
6
CONTINUOUS
10
2.68209
20
-10.2018
11
2.68771
21
-10.213
0
LINE
8
BLACK
6
CONTINUOUS
10
2.68771
20
-10.213
11
2.68771
21
-10.2749
0
LINE
8
BLACK
6
CONTINUOUS
10
2.74395
20
-10.2749
11
2.74395
21
-10.1961
0
LINE
8
BLACK
6
CONTINUOUS
10
2.74395
20
-10.2074
11
2.74958
21
-10.2018
0
LINE
8
BLACK
6
CONTINUOUS
10
2.74958
20
-10.2018
11
2.76083
21
-10.1961
0
LINE
8
BLACK
6
CONTINUOUS
10
2.76083
20
-10.1961
11
2.7777
21
-10.1961
0
LINE
8
BLACK
6
CONTINUOUS
10
2.7777
20
-10.1961
11
2.78895
21
-10.2018
0
LINE
8
BLACK
6
CONTINUOUS
10
2.78895
20
-10.2018
11
2.79457
21
-10.213
0
LINE
8
BLACK
6
CONTINUOUS
10
2.79457
20
-10.213
11
2.79457
21
-10.2749
0
LINE
8
BLACK
6
CONTINUOUS
10
2.79457
20
-10.213
11
2.8002
21
-10.2018
0
LINE
8
BLACK
6
CONTINUOUS
10
2.8002
20
-10.2018
11
2.81145
21
-10.1961
0
LINE
8
BLACK
6
CONTINUOUS
10
2.81145
20
-10.1961
11
2.82832
21
-10.1961
0
LINE
8
BLACK
6
CONTINUOUS
10
2.82832
20
-10.1961
11
2.83957
21
-10.2018
0
LINE
8
BLACK
6
CONTINUOUS
10
2.83957
20
-10.2018
11
2.84519
21
-10.213
0
LINE
8
BLACK
6
CONTINUOUS
10
2.84519
20
-10.213
11
2.84519
21
-10.2749
0
LINE
8
BLACK
6
CONTINUOUS
10
3.07579
20
-10.1512
11
2.97455
21
-10.303
0
LINE
8
BLACK
6
CONTINUOUS
10
3.22764
20
-10.1568
11
3.23889
21
-10.1568
0
LINE
8
BLACK
6
CONTINUOUS
10
3.23889
20
-10.1568
11
3.25014
21
-10.1624
0
LINE
8
BLACK
6
CONTINUOUS
10
3.25014
20
-10.1624
11
3.25576
21
-10.168
0
LINE
8
BLACK
6
CONTINUOUS
10
3.25576
20
-10.168
11
3.26139
21
-10.1793
0
LINE
8
BLACK
6
CONTINUOUS
10
3.26139
20
-10.1793
11
3.26701
21
-10.2018
0
LINE
8
BLACK
6
CONTINUOUS
10
3.26701
20
-10.2018
11
3.26701
21
-10.2299
0
LINE
8
BLACK
6
CONTINUOUS
10
3.26701
20
-10.2299
11
3.26139
21
-10.2524
0
LINE
8
BLACK
6
CONTINUOUS
10
3.26139
20
-10.2524
11
3.25576
21
-10.2636
0
LINE
8
BLACK
6
CONTINUOUS
10
3.25576
20
-10.2636
11
3.25014
21
-10.2693
0
LINE
8
BLACK
6
CONTINUOUS
10
3.25014
20
-10.2693
11
3.23889
21
-10.2749
0
LINE
8
BLACK
6
CONTINUOUS
10
3.23889
20
-10.2749
11
3.22764
21
-10.2749
0
LINE
8
BLACK
6
CONTINUOUS
10
3.22764
20
-10.2749
11
3.21639
21
-10.2693
0
LINE
8
BLACK
6
CONTINUOUS
10
3.21639
20
-10.2693
11
3.21077
21
-10.2636
0
LINE
8
BLACK
6
CONTINUOUS
10
3.21077
20
-10.2636
11
3.20515
21
-10.2524
0
LINE
8
BLACK
6
CONTINUOUS
10
3.20515
20
-10.2524
11
3.19952
21
-10.2299
0
LINE
8
BLACK
6
CONTINUOUS
10
3.19952
20
-10.2299
11
3.19952
21
-10.2018
0
LINE
8
BLACK
6
CONTINUOUS
10
3.19952
20
-10.2018
11
3.20515
21
-10.1793
0
LINE
8
BLACK
6
CONTINUOUS
10
3.20515
20
-10.1793
11
3.21077
21
-10.168
0
LINE
8
BLACK
6
CONTINUOUS
10
3.21077
20
-10.168
11
3.21639
21
-10.1624
0
LINE
8
BLACK
6
CONTINUOUS
10
3.21639
20
-10.1624
11
3.22764
21
-10.1568
0
LINE
8
BLACK
6
CONTINUOUS
10
3.31763
20
-10.2636
11
3.32326
21
-10.2693
0
LINE
8
BLACK
6
CONTINUOUS
10
3.32326
20
-10.2693
11
3.31763
21
-10.2749
0
LINE
8
BLACK
6
CONTINUOUS
10
3.31763
20
-10.2749
11
3.31201
21
-10.2693
0
LINE
8
BLACK
6
CONTINUOUS
10
3.31201
20
-10.2693
11
3.31763
21
-10.2636
0
LINE
8
BLACK
6
CONTINUOUS
10
3.31763
20
-10.2636
11
3.31763
21
-10.2749
0
LINE
8
BLACK
6
CONTINUOUS
10
3.39637
20
-10.1568
11
3.40762
21
-10.1568
0
LINE
8
BLACK
6
CONTINUOUS
10
3.40762
20
-10.1568
11
3.41887
21
-10.1624
0
LINE
8
BLACK
6
CONTINUOUS
10
3.41887
20
-10.1624
11
3.42449
21
-10.168
0
LINE
8
BLACK
6
CONTINUOUS
10
3.42449
20
-10.168
11
3.43012
21
-10.1793
0
LINE
8
BLACK
6
CONTINUOUS
10
3.43012
20
-10.1793
11
3.43574
21
-10.2018
0
LINE
8
BLACK
6
CONTINUOUS
10
3.43574
20
-10.2018
11
3.43574
21
-10.2299
0
LINE
8
BLACK
6
CONTINUOUS
10
3.43574
20
-10.2299
11
3.43012
21
-10.2524
0
LINE
8
BLACK
6
CONTINUOUS
10
3.43012
20
-10.2524
11
3.42449
21
-10.2636
0
LINE
8
BLACK
6
CONTINUOUS
10
3.42449
20
-10.2636
11
3.41887
21
-10.2693
0
LINE
8
BLACK
6
CONTINUOUS
10
3.41887
20
-10.2693
11
3.40762
21
-10.2749
0
LINE
8
BLACK
6
CONTINUOUS
10
3.40762
20
-10.2749
11
3.39637
21
-10.2749
0
LINE
8
BLACK
6
CONTINUOUS
10
3.39637
20
-10.2749
11
3.38512
21
-10.2693
0
LINE
8
BLACK
6
CONTINUOUS
10
3.38512
20
-10.2693
11
3.3795
21
-10.2636
0
LINE
8
BLACK
6
CONTINUOUS
10
3.3795
20
-10.2636
11
3.37388
21
-10.2524
0
LINE
8
BLACK
6
CONTINUOUS
10
3.37388
20
-10.2524
11
3.36825
21
-10.2299
0
LINE
8
BLACK
6
CONTINUOUS
10
3.36825
20
-10.2299
11
3.36825
21
-10.2018
0
LINE
8
BLACK
6
CONTINUOUS
10
3.36825
20
-10.2018
11
3.37388
21
-10.1793
0
LINE
8
BLACK
6
CONTINUOUS
10
3.37388
20
-10.1793
11
3.3795
21
-10.168
0
LINE
8
BLACK
6
CONTINUOUS
10
3.3795
20
-10.168
11
3.38512
21
-10.1624
0
LINE
8
BLACK
6
CONTINUOUS
10
3.38512
20
-10.1624
11
3.39637
21
-10.1568
0
LINE
8
BLACK
6
CONTINUOUS
10
3.47511
20
-10.1568
11
3.54823
21
-10.1568
0
LINE
8
BLACK
6
CONTINUOUS
10
3.54823
20
-10.1568
11
3.50886
21
-10.2018
0
LINE
8
BLACK
6
CONTINUOUS
10
3.50886
20
-10.2018
11
3.52573
21
-10.2018
0
LINE
8
BLACK
6
CONTINUOUS
10
3.52573
20
-10.2018
11
3.53698
21
-10.2074
0
LINE
8
BLACK
6
CONTINUOUS
10
3.53698
20
-10.2074
11
3.5426
21
-10.213
0
LINE
8
BLACK
6
CONTINUOUS
10
3.5426
20
-10.213
11
3.54823
21
-10.2243
0
LINE
8
BLACK
6
CONTINUOUS
10
3.54823
20
-10.2243
11
3.54823
21
-10.2524
0
LINE
8
BLACK
6
CONTINUOUS
10
3.54823
20
-10.2524
11
3.5426
21
-10.2636
0
LINE
8
BLACK
6
CONTINUOUS
10
3.5426
20
-10.2636
11
3.53698
21
-10.2693
0
LINE
8
BLACK
6
CONTINUOUS
10
3.53698
20
-10.2693
11
3.52573
21
-10.2749
0
LINE
8
BLACK
6
CONTINUOUS
10
3.52573
20
-10.2749
11
3.49199
21
-10.2749
0
LINE
8
BLACK
6
CONTINUOUS
10
3.49199
20
-10.2749
11
3.48074
21
-10.2693
0
LINE
8
BLACK
6
CONTINUOUS
10
3.48074
20
-10.2693
11
3.47511
21
-10.2636
0
LINE
8
BLACK
6
CONTINUOUS
10
3.66071
20
-10.2749
11
3.59322
21
-10.2749
0
LINE
8
BLACK
6
CONTINUOUS
10
3.62697
20
-10.2749
11
3.62697
21
-10.1568
0
LINE
8
BLACK
6
CONTINUOUS
10
3.62697
20
-10.1568
11
3.61572
21
-10.1737
0
LINE
8
BLACK
6
CONTINUOUS
10
3.61572
20
-10.1737
11
3.60447
21
-10.1849
0
LINE
8
BLACK
6
CONTINUOUS
10
3.60447
20
-10.1849
11
3.59322
21
-10.1905
0
LINE
8
BLACK
6
CONTINUOUS
10
3.76758
20
-10.1568
11
3.71133
21
-10.1568
0
LINE
8
BLACK
6
CONTINUOUS
10
3.71133
20
-10.1568
11
3.70571
21
-10.213
0
LINE
8
BLACK
6
CONTINUOUS
10
3.70571
20
-10.213
11
3.71133
21
-10.2074
0
LINE
8
BLACK
6
CONTINUOUS
10
3.71133
20
-10.2074
11
3.72258
21
-10.2018
0
LINE
8
BLACK
6
CONTINUOUS
10
3.72258
20
-10.2018
11
3.7507
21
-10.2018
0
LINE
8
BLACK
6
CONTINUOUS
10
3.7507
20
-10.2018
11
3.76195
21
-10.2074
0
LINE
8
BLACK
6
CONTINUOUS
10
3.76195
20
-10.2074
11
3.76758
21
-10.213
0
LINE
8
BLACK
6
CONTINUOUS
10
3.76758
20
-10.213
11
3.7732
21
-10.2243
0
LINE
8
BLACK
6
CONTINUOUS
10
3.7732
20
-10.2243
11
3.7732
21
-10.2524
0
LINE
8
BLACK
6
CONTINUOUS
10
3.7732
20
-10.2524
11
3.76758
21
-10.2636
0
LINE
8
BLACK
6
CONTINUOUS
10
3.76758
20
-10.2636
11
3.76195
21
-10.2693
0
LINE
8
BLACK
6
CONTINUOUS
10
3.76195
20
-10.2693
11
3.7507
21
-10.2749
0
LINE
8
BLACK
6
CONTINUOUS
10
3.7507
20
-10.2749
11
3.72258
21
-10.2749
0
LINE
8
BLACK
6
CONTINUOUS
10
3.72258
20
-10.2749
11
3.71133
21
-10.2693
0
LINE
8
BLACK
6
CONTINUOUS
10
3.71133
20
-10.2693
11
3.70571
21
-10.2636
0
LINE
8
BLACK
6
CONTINUOUS
10
3.81819
20
-10.1568
11
3.81819
21
-10.1793
0
LINE
8
BLACK
6
CONTINUOUS
10
3.86319
20
-10.1568
11
3.86319
21
-10.1793
0
LINE
8
BLACK
6
CONTINUOUS
10
4.03754
20
-10.3199
11
4.03192
21
-10.3143
0
LINE
8
BLACK
6
CONTINUOUS
10
4.03192
20
-10.3143
11
4.02067
21
-10.2974
0
LINE
8
BLACK
6
CONTINUOUS
10
4.02067
20
-10.2974
11
4.01504
21
-10.2861
0
LINE
8
BLACK
6
CONTINUOUS
10
4.01504
20
-10.2861
11
4.00942
21
-10.2693
0
LINE
8
BLACK
6
CONTINUOUS
10
4.00942
20
-10.2693
11
4.0038
21
-10.2411
0
LINE
8
BLACK
6
CONTINUOUS
10
4.0038
20
-10.2411
11
4.0038
21
-10.2186
0
LINE
8
BLACK
6
CONTINUOUS
10
4.0038
20
-10.2186
11
4.00942
21
-10.1905
0
LINE
8
BLACK
6
CONTINUOUS
10
4.00942
20
-10.1905
11
4.01504
21
-10.1737
0
LINE
8
BLACK
6
CONTINUOUS
10
4.01504
20
-10.1737
11
4.02067
21
-10.1624
0
LINE
8
BLACK
6
CONTINUOUS
10
4.02067
20
-10.1624
11
4.03192
21
-10.1455
0
LINE
8
BLACK
6
CONTINUOUS
10
4.03192
20
-10.1455
11
4.03754
21
-10.1399
0
LINE
8
BLACK
6
CONTINUOUS
10
4.07691
20
-10.168
11
4.08254
21
-10.1624
0
LINE
8
BLACK
6
CONTINUOUS
10
4.08254
20
-10.1624
11
4.09379
21
-10.1568
0
LINE
8
BLACK
6
CONTINUOUS
10
4.09379
20
-10.1568
11
4.12191
21
-10.1568
0
LINE
8
BLACK
6
CONTINUOUS
10
4.12191
20
-10.1568
11
4.13316
21
-10.1624
0
LINE
8
BLACK
6
CONTINUOUS
10
4.13316
20
-10.1624
11
4.13878
21
-10.168
0
LINE
8
BLACK
6
CONTINUOUS
10
4.13878
20
-10.168
11
4.1444
21
-10.1793
0
LINE
8
BLACK
6
CONTINUOUS
10
4.1444
20
-10.1793
11
4.1444
21
-10.1905
0
LINE
8
BLACK
6
CONTINUOUS
10
4.1444
20
-10.1905
11
4.13878
21
-10.2074
0
LINE
8
BLACK
6
CONTINUOUS
10
4.13878
20
-10.2074
11
4.07129
21
-10.2749
0
LINE
8
BLACK
6
CONTINUOUS
10
4.07129
20
-10.2749
11
4.1444
21
-10.2749
0
LINE
8
BLACK
6
CONTINUOUS
10
4.21752
20
-10.1568
11
4.22877
21
-10.1568
0
LINE
8
BLACK
6
CONTINUOUS
10
4.22877
20
-10.1568
11
4.24002
21
-10.1624
0
LINE
8
BLACK
6
CONTINUOUS
10
4.24002
20
-10.1624
11
4.24564
21
-10.168
0
LINE
8
BLACK
6
CONTINUOUS
10
4.24564
20
-10.168
11
4.25127
21
-10.1793
0
LINE
8
BLACK
6
CONTINUOUS
10
4.25127
20
-10.1793
11
4.25689
21
-10.2018
0
LINE
8
BLACK
6
CONTINUOUS
10
4.25689
20
-10.2018
11
4.25689
21
-10.2299
0
LINE
8
BLACK
6
CONTINUOUS
10
4.25689
20
-10.2299
11
4.25127
21
-10.2524
0
LINE
8
BLACK
6
CONTINUOUS
10
4.25127
20
-10.2524
11
4.24564
21
-10.2636
0
LINE
8
BLACK
6
CONTINUOUS
10
4.24564
20
-10.2636
11
4.24002
21
-10.2693
0
LINE
8
BLACK
6
CONTINUOUS
10
4.24002
20
-10.2693
11
4.22877
21
-10.2749
0
LINE
8
BLACK
6
CONTINUOUS
10
4.22877
20
-10.2749
11
4.21752
21
-10.2749
0
LINE
8
BLACK
6
CONTINUOUS
10
4.21752
20
-10.2749
11
4.20627
21
-10.2693
0
LINE
8
BLACK
6
CONTINUOUS
10
4.20627
20
-10.2693
11
4.20065
21
-10.2636
0
LINE
8
BLACK
6
CONTINUOUS
10
4.20065
20
-10.2636
11
4.19502
21
-10.2524
0
LINE
8
BLACK
6
CONTINUOUS
10
4.19502
20
-10.2524
11
4.1894
21
-10.2299
0
LINE
8
BLACK
6
CONTINUOUS
10
4.1894
20
-10.2299
11
4.1894
21
-10.2018
0
LINE
8
BLACK
6
CONTINUOUS
10
4.1894
20
-10.2018
11
4.19502
21
-10.1793
0
LINE
8
BLACK
6
CONTINUOUS
10
4.19502
20
-10.1793
11
4.20065
21
-10.168
0
LINE
8
BLACK
6
CONTINUOUS
10
4.20065
20
-10.168
11
4.20627
21
-10.1624
0
LINE
8
BLACK
6
CONTINUOUS
10
4.20627
20
-10.1624
11
4.21752
21
-10.1568
0
LINE
8
BLACK
6
CONTINUOUS
10
4.30188
20
-10.168
11
4.30751
21
-10.1624
0
LINE
8
BLACK
6
CONTINUOUS
10
4.30751
20
-10.1624
11
4.31876
21
-10.1568
0
LINE
8
BLACK
6
CONTINUOUS
10
4.31876
20
-10.1568
11
4.34688
21
-10.1568
0
LINE
8
BLACK
6
CONTINUOUS
10
4.34688
20
-10.1568
11
4.35813
21
-10.1624
0
LINE
8
BLACK
6
CONTINUOUS
10
4.35813
20
-10.1624
11
4.36375
21
-10.168
0
LINE
8
BLACK
6
CONTINUOUS
10
4.36375
20
-10.168
11
4.36938
21
-10.1793
0
LINE
8
BLACK
6
CONTINUOUS
10
4.36938
20
-10.1793
11
4.36938
21
-10.1905
0
LINE
8
BLACK
6
CONTINUOUS
10
4.36938
20
-10.1905
11
4.36375
21
-10.2074
0
LINE
8
BLACK
6
CONTINUOUS
10
4.36375
20
-10.2074
11
4.29626
21
-10.2749
0
LINE
8
BLACK
6
CONTINUOUS
10
4.29626
20
-10.2749
11
4.36938
21
-10.2749
0
LINE
8
BLACK
6
CONTINUOUS
10
4.50998
20
-10.2749
11
4.50998
21
-10.1568
0
LINE
8
BLACK
6
CONTINUOUS
10
4.5606
20
-10.2749
11
4.5606
21
-10.213
0
LINE
8
BLACK
6
CONTINUOUS
10
4.5606
20
-10.213
11
4.55498
21
-10.2018
0
LINE
8
BLACK
6
CONTINUOUS
10
4.55498
20
-10.2018
11
4.54373
21
-10.1961
0
LINE
8
BLACK
6
CONTINUOUS
10
4.54373
20
-10.1961
11
4.52686
21
-10.1961
0
LINE
8
BLACK
6
CONTINUOUS
10
4.52686
20
-10.1961
11
4.51561
21
-10.2018
0
LINE
8
BLACK
6
CONTINUOUS
10
4.51561
20
-10.2018
11
4.50998
21
-10.2074
0
LINE
8
BLACK
6
CONTINUOUS
10
4.63372
20
-10.2749
11
4.62247
21
-10.2693
0
LINE
8
BLACK
6
CONTINUOUS
10
4.62247
20
-10.2693
11
4.61684
21
-10.2636
0
LINE
8
BLACK
6
CONTINUOUS
10
4.61684
20
-10.2636
11
4.61122
21
-10.2524
0
LINE
8
BLACK
6
CONTINUOUS
10
4.61122
20
-10.2524
11
4.61122
21
-10.2186
0
LINE
8
BLACK
6
CONTINUOUS
10
4.61122
20
-10.2186
11
4.61684
21
-10.2074
0
LINE
8
BLACK
6
CONTINUOUS
10
4.61684
20
-10.2074
11
4.62247
21
-10.2018
0
LINE
8
BLACK
6
CONTINUOUS
10
4.62247
20
-10.2018
11
4.63372
21
-10.1961
0
LINE
8
BLACK
6
CONTINUOUS
10
4.63372
20
-10.1961
11
4.65059
21
-10.1961
0
LINE
8
BLACK
6
CONTINUOUS
10
4.65059
20
-10.1961
11
4.66184
21
-10.2018
0
LINE
8
BLACK
6
CONTINUOUS
10
4.66184
20
-10.2018
11
4.66746
21
-10.2074
0
LINE
8
BLACK
6
CONTINUOUS
10
4.66746
20
-10.2074
11
4.67309
21
-10.2186
0
LINE
8
BLACK
6
CONTINUOUS
10
4.67309
20
-10.2186
11
4.67309
21
-10.2524
0
LINE
8
BLACK
6
CONTINUOUS
10
4.67309
20
-10.2524
11
4.66746
21
-10.2636
0
LINE
8
BLACK
6
CONTINUOUS
10
4.66746
20
-10.2636
11
4.66184
21
-10.2693
0
LINE
8
BLACK
6
CONTINUOUS
10
4.66184
20
-10.2693
11
4.65059
21
-10.2749
0
LINE
8
BLACK
6
CONTINUOUS
10
4.65059
20
-10.2749
11
4.63372
21
-10.2749
0
LINE
8
BLACK
6
CONTINUOUS
10
4.74058
20
-10.2749
11
4.72933
21
-10.2693
0
LINE
8
BLACK
6
CONTINUOUS
10
4.72933
20
-10.2693
11
4.72371
21
-10.258
0
LINE
8
BLACK
6
CONTINUOUS
10
4.72371
20
-10.258
11
4.72371
21
-10.1568
0
LINE
8
BLACK
6
CONTINUOUS
10
4.83057
20
-10.2693
11
4.81932
21
-10.2749
0
LINE
8
BLACK
6
CONTINUOUS
10
4.81932
20
-10.2749
11
4.79682
21
-10.2749
0
LINE
8
BLACK
6
CONTINUOUS
10
4.79682
20
-10.2749
11
4.78557
21
-10.2693
0
LINE
8
BLACK
6
CONTINUOUS
10
4.78557
20
-10.2693
11
4.77995
21
-10.258
0
LINE
8
BLACK
6
CONTINUOUS
10
4.77995
20
-10.258
11
4.77995
21
-10.213
0
LINE
8
BLACK
6
CONTINUOUS
10
4.77995
20
-10.213
11
4.78557
21
-10.2018
0
LINE
8
BLACK
6
CONTINUOUS
10
4.78557
20
-10.2018
11
4.79682
21
-10.1961
0
LINE
8
BLACK
6
CONTINUOUS
10
4.79682
20
-10.1961
11
4.81932
21
-10.1961
0
LINE
8
BLACK
6
CONTINUOUS
10
4.81932
20
-10.1961
11
4.83057
21
-10.2018
0
LINE
8
BLACK
6
CONTINUOUS
10
4.83057
20
-10.2018
11
4.83619
21
-10.213
0
LINE
8
BLACK
6
CONTINUOUS
10
4.83619
20
-10.213
11
4.83619
21
-10.2243
0
LINE
8
BLACK
6
CONTINUOUS
10
4.83619
20
-10.2243
11
4.77995
21
-10.2355
0
LINE
8
BLACK
6
CONTINUOUS
10
4.88119
20
-10.2693
11
4.89244
21
-10.2749
0
LINE
8
BLACK
6
CONTINUOUS
10
4.89244
20
-10.2749
11
4.91493
21
-10.2749
0
LINE
8
BLACK
6
CONTINUOUS
10
4.91493
20
-10.2749
11
4.92618
21
-10.2693
0
LINE
8
BLACK
6
CONTINUOUS
10
4.92618
20
-10.2693
11
4.93181
21
-10.258
0
LINE
8
BLACK
6
CONTINUOUS
10
4.93181
20
-10.258
11
4.93181
21
-10.2524
0
LINE
8
BLACK
6
CONTINUOUS
10
4.93181
20
-10.2524
11
4.92618
21
-10.2411
0
LINE
8
BLACK
6
CONTINUOUS
10
4.92618
20
-10.2411
11
4.91493
21
-10.2355
0
LINE
8
BLACK
6
CONTINUOUS
10
4.91493
20
-10.2355
11
4.89806
21
-10.2355
0
LINE
8
BLACK
6
CONTINUOUS
10
4.89806
20
-10.2355
11
4.88681
21
-10.2299
0
LINE
8
BLACK
6
CONTINUOUS
10
4.88681
20
-10.2299
11
4.88119
21
-10.2186
0
LINE
8
BLACK
6
CONTINUOUS
10
4.88119
20
-10.2186
11
4.88119
21
-10.213
0
LINE
8
BLACK
6
CONTINUOUS
10
4.88119
20
-10.213
11
4.88681
21
-10.2018
0
LINE
8
BLACK
6
CONTINUOUS
10
4.88681
20
-10.2018
11
4.89806
21
-10.1961
0
LINE
8
BLACK
6
CONTINUOUS
10
4.89806
20
-10.1961
11
4.91493
21
-10.1961
0
LINE
8
BLACK
6
CONTINUOUS
10
4.91493
20
-10.1961
11
4.92618
21
-10.2018
0
LINE
8
BLACK
6
CONTINUOUS
10
4.97118
20
-10.3199
11
4.9768
21
-10.3143
0
LINE
8
BLACK
6
CONTINUOUS
10
4.9768
20
-10.3143
11
4.98805
21
-10.2974
0
LINE
8
BLACK
6
CONTINUOUS
10
4.98805
20
-10.2974
11
4.99367
21
-10.2861
0
LINE
8
BLACK
6
CONTINUOUS
10
4.99367
20
-10.2861
11
4.9993
21
-10.2693
0
LINE
8
BLACK
6
CONTINUOUS
10
4.9993
20
-10.2693
11
5.00492
21
-10.2411
0
LINE
8
BLACK
6
CONTINUOUS
10
5.00492
20
-10.2411
11
5.00492
21
-10.2186
0
LINE
8
BLACK
6
CONTINUOUS
10
5.00492
20
-10.2186
11
4.9993
21
-10.1905
0
LINE
8
BLACK
6
CONTINUOUS
10
4.9993
20
-10.1905
11
4.99367
21
-10.1737
0
LINE
8
BLACK
6
CONTINUOUS
10
4.99367
20
-10.1737
11
4.98805
21
-10.1624
0
LINE
8
BLACK
6
CONTINUOUS
10
4.98805
20
-10.1624
11
4.9768
21
-10.1455
0
LINE
8
BLACK
6
CONTINUOUS
10
4.9768
20
-10.1455
11
4.97118
21
-10.1399
0
CIRCLE
8
BLACK
10
1.94783
20
-10.3774
40
0.019685
0
LINE
8
BLACK
6
CONTINUOUS
10
2.14215
20
-10.4308
11
2.07466
21
-10.4308
0
LINE
8
BLACK
6
CONTINUOUS
10
2.10841
20
-10.4308
11
2.10841
21
-10.3127
0
LINE
8
BLACK
6
CONTINUOUS
10
2.10841
20
-10.3127
11
2.09716
21
-10.3296
0
LINE
8
BLACK
6
CONTINUOUS
10
2.09716
20
-10.3296
11
2.08591
21
-10.3408
0
LINE
8
BLACK
6
CONTINUOUS
10
2.08591
20
-10.3408
11
2.07466
21
-10.3464
0
LINE
8
BLACK
6
CONTINUOUS
10
2.19277
20
-10.4195
11
2.1984
21
-10.4252
0
LINE
8
BLACK
6
CONTINUOUS
10
2.1984
20
-10.4252
11
2.19277
21
-10.4308
0
LINE
8
BLACK
6
CONTINUOUS
10
2.19277
20
-10.4308
11
2.18715
21
-10.4252
0
LINE
8
BLACK
6
CONTINUOUS
10
2.18715
20
-10.4252
11
2.19277
21
-10.4195
0
LINE
8
BLACK
6
CONTINUOUS
10
2.19277
20
-10.4195
11
2.19277
21
-10.4308
0
LINE
8
BLACK
6
CONTINUOUS
10
2.27151
20
-10.3127
11
2.28276
21
-10.3127
0
LINE
8
BLACK
6
CONTINUOUS
10
2.28276
20
-10.3127
11
2.29401
21
-10.3183
0
LINE
8
BLACK
6
CONTINUOUS
10
2.29401
20
-10.3183
11
2.29963
21
-10.3239
0
LINE
8
BLACK
6
CONTINUOUS
10
2.29963
20
-10.3239
11
2.30526
21
-10.3352
0
LINE
8
BLACK
6
CONTINUOUS
10
2.30526
20
-10.3352
11
2.31088
21
-10.3577
0
LINE
8
BLACK
6
CONTINUOUS
10
2.31088
20
-10.3577
11
2.31088
21
-10.3858
0
LINE
8
BLACK
6
CONTINUOUS
10
2.31088
20
-10.3858
11
2.30526
21
-10.4083
0
LINE
8
BLACK
6
CONTINUOUS
10
2.30526
20
-10.4083
11
2.29963
21
-10.4195
0
LINE
8
BLACK
6
CONTINUOUS
10
2.29963
20
-10.4195
11
2.29401
21
-10.4252
0
LINE
8
BLACK
6
CONTINUOUS
10
2.29401
20
-10.4252
11
2.28276
21
-10.4308
0
LINE
8
BLACK
6
CONTINUOUS
10
2.28276
20
-10.4308
11
2.27151
21
-10.4308
0
LINE
8
BLACK
6
CONTINUOUS
10
2.27151
20
-10.4308
11
2.26026
21
-10.4252
0
LINE
8
BLACK
6
CONTINUOUS
10
2.26026
20
-10.4252
11
2.25464
21
-10.4195
0
LINE
8
BLACK
6
CONTINUOUS
10
2.25464
20
-10.4195
11
2.24902
21
-10.4083
0
LINE
8
BLACK
6
CONTINUOUS
10
2.24902
20
-10.4083
11
2.24339
21
-10.3858
0
LINE
8
BLACK
6
CONTINUOUS
10
2.24339
20
-10.3858
11
2.24339
21
-10.3577
0
LINE
8
BLACK
6
CONTINUOUS
10
2.24339
20
-10.3577
11
2.24902
21
-10.3352
0
LINE
8
BLACK
6
CONTINUOUS
10
2.24902
20
-10.3352
11
2.25464
21
-10.3239
0
LINE
8
BLACK
6
CONTINUOUS
10
2.25464
20
-10.3239
11
2.26026
21
-10.3183
0
LINE
8
BLACK
6
CONTINUOUS
10
2.26026
20
-10.3183
11
2.27151
21
-10.3127
0
LINE
8
BLACK
6
CONTINUOUS
10
2.384
20
-10.3127
11
2.39525
21
-10.3127
0
LINE
8
BLACK
6
CONTINUOUS
10
2.39525
20
-10.3127
11
2.4065
21
-10.3183
0
LINE
8
BLACK
6
CONTINUOUS
10
2.4065
20
-10.3183
11
2.41212
21
-10.3239
0
LINE
8
BLACK
6
CONTINUOUS
10
2.41212
20
-10.3239
11
2.41774
21
-10.3352
0
LINE
8
BLACK
6
CONTINUOUS
10
2.41774
20
-10.3352
11
2.42337
21
-10.3577
0
LINE
8
BLACK
6
CONTINUOUS
10
2.42337
20
-10.3577
11
2.42337
21
-10.3858
0
LINE
8
BLACK
6
CONTINUOUS
10
2.42337
20
-10.3858
11
2.41774
21
-10.4083
0
LINE
8
BLACK
6
CONTINUOUS
10
2.41774
20
-10.4083
11
2.41212
21
-10.4195
0
LINE
8
BLACK
6
CONTINUOUS
10
2.41212
20
-10.4195
11
2.4065
21
-10.4252
0
LINE
8
BLACK
6
CONTINUOUS
10
2.4065
20
-10.4252
11
2.39525
21
-10.4308
0
LINE
8
BLACK
6
CONTINUOUS
10
2.39525
20
-10.4308
11
2.384
21
-10.4308
0
LINE
8
BLACK
6
CONTINUOUS
10
2.384
20
-10.4308
11
2.37275
21
-10.4252
0
LINE
8
BLACK
6
CONTINUOUS
10
2.37275
20
-10.4252
11
2.36713
21
-10.4195
0
LINE
8
BLACK
6
CONTINUOUS
10
2.36713
20
-10.4195
11
2.3615
21
-10.4083
0
LINE
8
BLACK
6
CONTINUOUS
10
2.3615
20
-10.4083
11
2.35588
21
-10.3858
0
LINE
8
BLACK
6
CONTINUOUS
10
2.35588
20
-10.3858
11
2.35588
21
-10.3577
0
LINE
8
BLACK
6
CONTINUOUS
10
2.35588
20
-10.3577
11
2.3615
21
-10.3352
0
LINE
8
BLACK
6
CONTINUOUS
10
2.3615
20
-10.3352
11
2.36713
21
-10.3239
0
LINE
8
BLACK
6
CONTINUOUS
10
2.36713
20
-10.3239
11
2.37275
21
-10.3183
0
LINE
8
BLACK
6
CONTINUOUS
10
2.37275
20
-10.3183
11
2.384
21
-10.3127
0
LINE
8
BLACK
6
CONTINUOUS
10
2.49648
20
-10.3127
11
2.50773
21
-10.3127
0
LINE
8
BLACK
6
CONTINUOUS
10
2.50773
20
-10.3127
11
2.51898
21
-10.3183
0
LINE
8
BLACK
6
CONTINUOUS
10
2.51898
20
-10.3183
11
2.52461
21
-10.3239
0
LINE
8
BLACK
6
CONTINUOUS
10
2.52461
20
-10.3239
11
2.53023
21
-10.3352
0
LINE
8
BLACK
6
CONTINUOUS
10
2.53023
20
-10.3352
11
2.53585
21
-10.3577
0
LINE
8
BLACK
6
CONTINUOUS
10
2.53585
20
-10.3577
11
2.53585
21
-10.3858
0
LINE
8
BLACK
6
CONTINUOUS
10
2.53585
20
-10.3858
11
2.53023
21
-10.4083
0
LINE
8
BLACK
6
CONTINUOUS
10
2.53023
20
-10.4083
11
2.52461
21
-10.4195
0
LINE
8
BLACK
6
CONTINUOUS
10
2.52461
20
-10.4195
11
2.51898
21
-10.4252
0
LINE
8
BLACK
6
CONTINUOUS
10
2.51898
20
-10.4252
11
2.50773
21
-10.4308
0
LINE
8
BLACK
6
CONTINUOUS
10
2.50773
20
-10.4308
11
2.49648
21
-10.4308
0
LINE
8
BLACK
6
CONTINUOUS
10
2.49648
20
-10.4308
11
2.48524
21
-10.4252
0
LINE
8
BLACK
6
CONTINUOUS
10
2.48524
20
-10.4252
11
2.47961
21
-10.4195
0
LINE
8
BLACK
6
CONTINUOUS
10
2.47961
20
-10.4195
11
2.47399
21
-10.4083
0
LINE
8
BLACK
6
CONTINUOUS
10
2.47399
20
-10.4083
11
2.46836
21
-10.3858
0
LINE
8
BLACK
6
CONTINUOUS
10
2.46836
20
-10.3858
11
2.46836
21
-10.3577
0
LINE
8
BLACK
6
CONTINUOUS
10
2.46836
20
-10.3577
11
2.47399
21
-10.3352
0
LINE
8
BLACK
6
CONTINUOUS
10
2.47399
20
-10.3352
11
2.47961
21
-10.3239
0
LINE
8
BLACK
6
CONTINUOUS
10
2.47961
20
-10.3239
11
2.48524
21
-10.3183
0
LINE
8
BLACK
6
CONTINUOUS
10
2.48524
20
-10.3183
11
2.49648
21
-10.3127
0
LINE
8
BLACK
6
CONTINUOUS
10
2.58647
20
-10.4308
11
2.58647
21
-10.3521
0
LINE
8
BLACK
6
CONTINUOUS
10
2.58647
20
-10.3633
11
2.5921
21
-10.3577
0
LINE
8
BLACK
6
CONTINUOUS
10
2.5921
20
-10.3577
11
2.60335
21
-10.3521
0
LINE
8
BLACK
6
CONTINUOUS
10
2.60335
20
-10.3521
11
2.62022
21
-10.3521
0
LINE
8
BLACK
6
CONTINUOUS
10
2.62022
20
-10.3521
11
2.63147
21
-10.3577
0
LINE
8
BLACK
6
CONTINUOUS
10
2.63147
20
-10.3577
11
2.63709
21
-10.3689
0
LINE
8
BLACK
6
CONTINUOUS
10
2.63709
20
-10.3689
11
2.63709
21
-10.4308
0
LINE
8
BLACK
6
CONTINUOUS
10
2.63709
20
-10.3689
11
2.64272
21
-10.3577
0
LINE
8
BLACK
6
CONTINUOUS
10
2.64272
20
-10.3577
11
2.65397
21
-10.3521
0
LINE
8
BLACK
6
CONTINUOUS
10
2.65397
20
-10.3521
11
2.67084
21
-10.3521
0
LINE
8
BLACK
6
CONTINUOUS
10
2.67084
20
-10.3521
11
2.68209
21
-10.3577
0
LINE
8
BLACK
6
CONTINUOUS
10
2.68209
20
-10.3577
11
2.68771
21
-10.3689
0
LINE
8
BLACK
6
CONTINUOUS
10
2.68771
20
-10.3689
11
2.68771
21
-10.4308
0
LINE
8
BLACK
6
CONTINUOUS
10
2.74395
20
-10.4308
11
2.74395
21
-10.3521
0
LINE
8
BLACK
6
CONTINUOUS
10
2.74395
20
-10.3633
11
2.74958
21
-10.3577
0
LINE
8
BLACK
6
CONTINUOUS
10
2.74958
20
-10.3577
11
2.76083
21
-10.3521
0
LINE
8
BLACK
6
CONTINUOUS
10
2.76083
20
-10.3521
11
2.7777
21
-10.3521
0
LINE
8
BLACK
6
CONTINUOUS
10
2.7777
20
-10.3521
11
2.78895
21
-10.3577
0
LINE
8
BLACK
6
CONTINUOUS
10
2.78895
20
-10.3577
11
2.79457
21
-10.3689
0
LINE
8
BLACK
6
CONTINUOUS
10
2.79457
20
-10.3689
11
2.79457
21
-10.4308
0
LINE
8
BLACK
6
CONTINUOUS
10
2.79457
20
-10.3689
11
2.8002
21
-10.3577
0
LINE
8
BLACK
6
CONTINUOUS
10
2.8002
20
-10.3577
11
2.81145
21
-10.3521
0
LINE
8
BLACK
6
CONTINUOUS
10
2.81145
20
-10.3521
11
2.82832
21
-10.3521
0
LINE
8
BLACK
6
CONTINUOUS
10
2.82832
20
-10.3521
11
2.83957
21
-10.3577
0
LINE
8
BLACK
6
CONTINUOUS
10
2.83957
20
-10.3577
11
2.84519
21
-10.3689
0
LINE
8
BLACK
6
CONTINUOUS
10
2.84519
20
-10.3689
11
2.84519
21
-10.4308
0
LINE
8
BLACK
6
CONTINUOUS
10
3.07579
20
-10.3071
11
2.97455
21
-10.4589
0
LINE
8
BLACK
6
CONTINUOUS
10
3.22764
20
-10.3127
11
3.23889
21
-10.3127
0
LINE
8
BLACK
6
CONTINUOUS
10
3.23889
20
-10.3127
11
3.25014
21
-10.3183
0
LINE
8
BLACK
6
CONTINUOUS
10
3.25014
20
-10.3183
11
3.25576
21
-10.3239
0
LINE
8
BLACK
6
CONTINUOUS
10
3.25576
20
-10.3239
11
3.26139
21
-10.3352
0
LINE
8
BLACK
6
CONTINUOUS
10
3.26139
20
-10.3352
11
3.26701
21
-10.3577
0
LINE
8
BLACK
6
CONTINUOUS
10
3.26701
20
-10.3577
11
3.26701
21
-10.3858
0
LINE
8
BLACK
6
CONTINUOUS
10
3.26701
20
-10.3858
11
3.26139
21
-10.4083
0
LINE
8
BLACK
6
CONTINUOUS
10
3.26139
20
-10.4083
11
3.25576
21
-10.4195
0
LINE
8
BLACK
6
CONTINUOUS
10
3.25576
20
-10.4195
11
3.25014
21
-10.4252
0
LINE
8
BLACK
6
CONTINUOUS
10
3.25014
20
-10.4252
11
3.23889
21
-10.4308
0
LINE
8
BLACK
6
CONTINUOUS
10
3.23889
20
-10.4308
11
3.22764
21
-10.4308
0
LINE
8
BLACK
6
CONTINUOUS
10
3.22764
20
-10.4308
11
3.21639
21
-10.4252
0
LINE
8
BLACK
6
CONTINUOUS
10
3.21639
20
-10.4252
11
3.21077
21
-10.4195
0
LINE
8
BLACK
6
CONTINUOUS
10
3.21077
20
-10.4195
11
3.20515
21
-10.4083
0
LINE
8
BLACK
6
CONTINUOUS
10
3.20515
20
-10.4083
11
3.19952
21
-10.3858
0
LINE
8
BLACK
6
CONTINUOUS
10
3.19952
20
-10.3858
11
3.19952
21
-10.3577
0
LINE
8
BLACK
6
CONTINUOUS
10
3.19952
20
-10.3577
11
3.20515
21
-10.3352
0
LINE
8
BLACK
6
CONTINUOUS
10
3.20515
20
-10.3352
11
3.21077
21
-10.3239
0
LINE
8
BLACK
6
CONTINUOUS
10
3.21077
20
-10.3239
11
3.21639
21
-10.3183
0
LINE
8
BLACK
6
CONTINUOUS
10
3.21639
20
-10.3183
11
3.22764
21
-10.3127
0
LINE
8
BLACK
6
CONTINUOUS
10
3.31763
20
-10.4195
11
3.32326
21
-10.4252
0
LINE
8
BLACK
6
CONTINUOUS
10
3.32326
20
-10.4252
11
3.31763
21
-10.4308
0
LINE
8
BLACK
6
CONTINUOUS
10
3.31763
20
-10.4308
11
3.31201
21
-10.4252
0
LINE
8
BLACK
6
CONTINUOUS
10
3.31201
20
-10.4252
11
3.31763
21
-10.4195
0
LINE
8
BLACK
6
CONTINUOUS
10
3.31763
20
-10.4195
11
3.31763
21
-10.4308
0
LINE
8
BLACK
6
CONTINUOUS
10
3.39637
20
-10.3127
11
3.40762
21
-10.3127
0
LINE
8
BLACK
6
CONTINUOUS
10
3.40762
20
-10.3127
11
3.41887
21
-10.3183
0
LINE
8
BLACK
6
CONTINUOUS
10
3.41887
20
-10.3183
11
3.42449
21
-10.3239
0
LINE
8
BLACK
6
CONTINUOUS
10
3.42449
20
-10.3239
11
3.43012
21
-10.3352
0
LINE
8
BLACK
6
CONTINUOUS
10
3.43012
20
-10.3352
11
3.43574
21
-10.3577
0
LINE
8
BLACK
6
CONTINUOUS
10
3.43574
20
-10.3577
11
3.43574
21
-10.3858
0
LINE
8
BLACK
6
CONTINUOUS
10
3.43574
20
-10.3858
11
3.43012
21
-10.4083
0
LINE
8
BLACK
6
CONTINUOUS
10
3.43012
20
-10.4083
11
3.42449
21
-10.4195
0
LINE
8
BLACK
6
CONTINUOUS
10
3.42449
20
-10.4195
11
3.41887
21
-10.4252
0
LINE
8
BLACK
6
CONTINUOUS
10
3.41887
20
-10.4252
11
3.40762
21
-10.4308
0
LINE
8
BLACK
6
CONTINUOUS
10
3.40762
20
-10.4308
11
3.39637
21
-10.4308
0
LINE
8
BLACK
6
CONTINUOUS
10
3.39637
20
-10.4308
11
3.38512
21
-10.4252
0
LINE
8
BLACK
6
CONTINUOUS
10
3.38512
20
-10.4252
11
3.3795
21
-10.4195
0
LINE
8
BLACK
6
CONTINUOUS
10
3.3795
20
-10.4195
11
3.37388
21
-10.4083
0
LINE
8
BLACK
6
CONTINUOUS
10
3.37388
20
-10.4083
11
3.36825
21
-10.3858
0
LINE
8
BLACK
6
CONTINUOUS
10
3.36825
20
-10.3858
11
3.36825
21
-10.3577
0
LINE
8
BLACK
6
CONTINUOUS
10
3.36825
20
-10.3577
11
3.37388
21
-10.3352
0
LINE
8
BLACK
6
CONTINUOUS
10
3.37388
20
-10.3352
11
3.3795
21
-10.3239
0
LINE
8
BLACK
6
CONTINUOUS
10
3.3795
20
-10.3239
11
3.38512
21
-10.3183
0
LINE
8
BLACK
6
CONTINUOUS
10
3.38512
20
-10.3183
11
3.39637
21
-10.3127
0
LINE
8
BLACK
6
CONTINUOUS
10
3.47511
20
-10.3127
11
3.54823
21
-10.3127
0
LINE
8
BLACK
6
CONTINUOUS
10
3.54823
20
-10.3127
11
3.50886
21
-10.3577
0
LINE
8
BLACK
6
CONTINUOUS
10
3.50886
20
-10.3577
11
3.52573
21
-10.3577
0
LINE
8
BLACK
6
CONTINUOUS
10
3.52573
20
-10.3577
11
3.53698
21
-10.3633
0
LINE
8
BLACK
6
CONTINUOUS
10
3.53698
20
-10.3633
11
3.5426
21
-10.3689
0
LINE
8
BLACK
6
CONTINUOUS
10
3.5426
20
-10.3689
11
3.54823
21
-10.3802
0
LINE
8
BLACK
6
CONTINUOUS
10
3.54823
20
-10.3802
11
3.54823
21
-10.4083
0
LINE
8
BLACK
6
CONTINUOUS
10
3.54823
20
-10.4083
11
3.5426
21
-10.4195
0
LINE
8
BLACK
6
CONTINUOUS
10
3.5426
20
-10.4195
11
3.53698
21
-10.4252
0
LINE
8
BLACK
6
CONTINUOUS
10
3.53698
20
-10.4252
11
3.52573
21
-10.4308
0
LINE
8
BLACK
6
CONTINUOUS
10
3.52573
20
-10.4308
11
3.49199
21
-10.4308
0
LINE
8
BLACK
6
CONTINUOUS
10
3.49199
20
-10.4308
11
3.48074
21
-10.4252
0
LINE
8
BLACK
6
CONTINUOUS
10
3.48074
20
-10.4252
11
3.47511
21
-10.4195
0
LINE
8
BLACK
6
CONTINUOUS
10
3.60447
20
-10.4308
11
3.62697
21
-10.4308
0
LINE
8
BLACK
6
CONTINUOUS
10
3.62697
20
-10.4308
11
3.63822
21
-10.4252
0
LINE
8
BLACK
6
CONTINUOUS
10
3.63822
20
-10.4252
11
3.64384
21
-10.4195
0
LINE
8
BLACK
6
CONTINUOUS
10
3.64384
20
-10.4195
11
3.65509
21
-10.4027
0
LINE
8
BLACK
6
CONTINUOUS
10
3.65509
20
-10.4027
11
3.66071
21
-10.3802
0
LINE
8
BLACK
6
CONTINUOUS
10
3.66071
20
-10.3802
11
3.66071
21
-10.3352
0
LINE
8
BLACK
6
CONTINUOUS
10
3.66071
20
-10.3352
11
3.65509
21
-10.3239
0
LINE
8
BLACK
6
CONTINUOUS
10
3.65509
20
-10.3239
11
3.64947
21
-10.3183
0
LINE
8
BLACK
6
CONTINUOUS
10
3.64947
20
-10.3183
11
3.63822
21
-10.3127
0
LINE
8
BLACK
6
CONTINUOUS
10
3.63822
20
-10.3127
11
3.61572
21
-10.3127
0
LINE
8
BLACK
6
CONTINUOUS
10
3.61572
20
-10.3127
11
3.60447
21
-10.3183
0
LINE
8
BLACK
6
CONTINUOUS
10
3.60447
20
-10.3183
11
3.59885
21
-10.3239
0
LINE
8
BLACK
6
CONTINUOUS
10
3.59885
20
-10.3239
11
3.59322
21
-10.3352
0
LINE
8
BLACK
6
CONTINUOUS
10
3.59322
20
-10.3352
11
3.59322
21
-10.3633
0
LINE
8
BLACK
6
CONTINUOUS
10
3.59322
20
-10.3633
11
3.59885
21
-10.3746
0
LINE
8
BLACK
6
CONTINUOUS
10
3.59885
20
-10.3746
11
3.60447
21
-10.3802
0
LINE
8
BLACK
6
CONTINUOUS
10
3.60447
20
-10.3802
11
3.61572
21
-10.3858
0
LINE
8
BLACK
6
CONTINUOUS
10
3.61572
20
-10.3858
11
3.63822
21
-10.3858
0
LINE
8
BLACK
6
CONTINUOUS
10
3.63822
20
-10.3858
11
3.64947
21
-10.3802
0
LINE
8
BLACK
6
CONTINUOUS
10
3.64947
20
-10.3802
11
3.65509
21
-10.3746
0
LINE
8
BLACK
6
CONTINUOUS
10
3.65509
20
-10.3746
11
3.66071
21
-10.3633
0
LINE
8
BLACK
6
CONTINUOUS
10
3.76195
20
-10.3521
11
3.76195
21
-10.4308
0
LINE
8
BLACK
6
CONTINUOUS
10
3.73383
20
-10.3071
11
3.70571
21
-10.3914
0
LINE
8
BLACK
6
CONTINUOUS
10
3.70571
20
-10.3914
11
3.77882
21
-10.3914
0
LINE
8
BLACK
6
CONTINUOUS
10
3.81819
20
-10.3127
11
3.81819
21
-10.3352
0
LINE
8
BLACK
6
CONTINUOUS
10
3.86319
20
-10.3127
11
3.86319
21
-10.3352
0
LINE
8
BLACK
6
CONTINUOUS
10
4.03754
20
-10.4758
11
4.03192
21
-10.4702
0
LINE
8
BLACK
6
CONTINUOUS
10
4.03192
20
-10.4702
11
4.02067
21
-10.4533
0
LINE
8
BLACK
6
CONTINUOUS
10
4.02067
20
-10.4533
11
4.01504
21
-10.442
0
LINE
8
BLACK
6
CONTINUOUS
10
4.01504
20
-10.442
11
4.00942
21
-10.4252
0
LINE
8
BLACK
6
CONTINUOUS
10
4.00942
20
-10.4252
11
4.0038
21
-10.397
0
LINE
8
BLACK
6
CONTINUOUS
10
4.0038
20
-10.397
11
4.0038
21
-10.3746
0
LINE
8
BLACK
6
CONTINUOUS
10
4.0038
20
-10.3746
11
4.00942
21
-10.3464
0
LINE
8
BLACK
6
CONTINUOUS
10
4.00942
20
-10.3464
11
4.01504
21
-10.3296
0
LINE
8
BLACK
6
CONTINUOUS
10
4.01504
20
-10.3296
11
4.02067
21
-10.3183
0
LINE
8
BLACK
6
CONTINUOUS
10
4.02067
20
-10.3183
11
4.03192
21
-10.3014
0
LINE
8
BLACK
6
CONTINUOUS
10
4.03192
20
-10.3014
11
4.03754
21
-10.2958
0
LINE
8
BLACK
6
CONTINUOUS
10
4.1444
20
-10.4308
11
4.07691
21
-10.4308
0
LINE
8
BLACK
6
CONTINUOUS
10
4.11066
20
-10.4308
11
4.11066
21
-10.3127
0
LINE
8
BLACK
6
CONTINUOUS
10
4.11066
20
-10.3127
11
4.09941
21
-10.3296
0
LINE
8
BLACK
6
CONTINUOUS
10
4.09941
20
-10.3296
11
4.08816
21
-10.3408
0
LINE
8
BLACK
6
CONTINUOUS
10
4.08816
20
-10.3408
11
4.07691
21
-10.3464
0
LINE
8
BLACK
6
CONTINUOUS
10
4.18377
20
-10.3127
11
4.25689
21
-10.3127
0
LINE
8
BLACK
6
CONTINUOUS
10
4.25689
20
-10.3127
11
4.21752
21
-10.3577
0
LINE
8
BLACK
6
CONTINUOUS
10
4.21752
20
-10.3577
11
4.23439
21
-10.3577
0
LINE
8
BLACK
6
CONTINUOUS
10
4.23439
20
-10.3577
11
4.24564
21
-10.3633
0
LINE
8
BLACK
6
CONTINUOUS
10
4.24564
20
-10.3633
11
4.25127
21
-10.3689
0
LINE
8
BLACK
6
CONTINUOUS
10
4.25127
20
-10.3689
11
4.25689
21
-10.3802
0
LINE
8
BLACK
6
CONTINUOUS
10
4.25689
20
-10.3802
11
4.25689
21
-10.4083
0
LINE
8
BLACK
6
CONTINUOUS
10
4.25689
20
-10.4083
11
4.25127
21
-10.4195
0
LINE
8
BLACK
6
CONTINUOUS
10
4.25127
20
-10.4195
11
4.24564
21
-10.4252
0
LINE
8
BLACK
6
CONTINUOUS
10
4.24564
20
-10.4252
11
4.23439
21
-10.4308
0
LINE
8
BLACK
6
CONTINUOUS
10
4.23439
20
-10.4308
11
4.20065
21
-10.4308
0
LINE
8
BLACK
6
CONTINUOUS
10
4.20065
20
-10.4308
11
4.1894
21
-10.4252
0
LINE
8
BLACK
6
CONTINUOUS
10
4.1894
20
-10.4252
11
4.18377
21
-10.4195
0
LINE
8
BLACK
6
CONTINUOUS
10
4.31313
20
-10.4308
11
4.33563
21
-10.4308
0
LINE
8
BLACK
6
CONTINUOUS
10
4.33563
20
-10.4308
11
4.34688
21
-10.4252
0
LINE
8
BLACK
6
CONTINUOUS
10
4.34688
20
-10.4252
11
4.3525
21
-10.4195
0
LINE
8
BLACK
6
CONTINUOUS
10
4.3525
20
-10.4195
11
4.36375
21
-10.4027
0
LINE
8
BLACK
6
CONTINUOUS
10
4.36375
20
-10.4027
11
4.36938
21
-10.3802
0
LINE
8
BLACK
6
CONTINUOUS
10
4.36938
20
-10.3802
11
4.36938
21
-10.3352
0
LINE
8
BLACK
6
CONTINUOUS
10
4.36938
20
-10.3352
11
4.36375
21
-10.3239
0
LINE
8
BLACK
6
CONTINUOUS
10
4.36375
20
-10.3239
11
4.35813
21
-10.3183
0
LINE
8
BLACK
6
CONTINUOUS
10
4.35813
20
-10.3183
11
4.34688
21
-10.3127
0
LINE
8
BLACK
6
CONTINUOUS
10
4.34688
20
-10.3127
11
4.32438
21
-10.3127
0
LINE
8
BLACK
6
CONTINUOUS
10
4.32438
20
-10.3127
11
4.31313
21
-10.3183
0
LINE
8
BLACK
6
CONTINUOUS
10
4.31313
20
-10.3183
11
4.30751
21
-10.3239
0
LINE
8
BLACK
6
CONTINUOUS
10
4.30751
20
-10.3239
11
4.30188
21
-10.3352
0
LINE
8
BLACK
6
CONTINUOUS
10
4.30188
20
-10.3352
11
4.30188
21
-10.3633
0
LINE
8
BLACK
6
CONTINUOUS
10
4.30188
20
-10.3633
11
4.30751
21
-10.3746
0
LINE
8
BLACK
6
CONTINUOUS
10
4.30751
20
-10.3746
11
4.31313
21
-10.3802
0
LINE
8
BLACK
6
CONTINUOUS
10
4.31313
20
-10.3802
11
4.32438
21
-10.3858
0
LINE
8
BLACK
6
CONTINUOUS
10
4.32438
20
-10.3858
11
4.34688
21
-10.3858
0
LINE
8
BLACK
6
CONTINUOUS
10
4.34688
20
-10.3858
11
4.35813
21
-10.3802
0
LINE
8
BLACK
6
CONTINUOUS
10
4.35813
20
-10.3802
11
4.36375
21
-10.3746
0
LINE
8
BLACK
6
CONTINUOUS
10
4.36375
20
-10.3746
11
4.36938
21
-10.3633
0
LINE
8
BLACK
6
CONTINUOUS
10
4.50998
20
-10.4308
11
4.50998
21
-10.3127
0
LINE
8
BLACK
6
CONTINUOUS
10
4.5606
20
-10.4308
11
4.5606
21
-10.3689
0
LINE
8
BLACK
6
CONTINUOUS
10
4.5606
20
-10.3689
11
4.55498
21
-10.3577
0
LINE
8
BLACK
6
CONTINUOUS
10
4.55498
20
-10.3577
11
4.54373
21
-10.3521
0
LINE
8
BLACK
6
CONTINUOUS
10
4.54373
20
-10.3521
11
4.52686
21
-10.3521
0
LINE
8
BLACK
6
CONTINUOUS
10
4.52686
20
-10.3521
11
4.51561
21
-10.3577
0
LINE
8
BLACK
6
CONTINUOUS
10
4.51561
20
-10.3577
11
4.50998
21
-10.3633
0
LINE
8
BLACK
6
CONTINUOUS
10
4.63372
20
-10.4308
11
4.62247
21
-10.4252
0
LINE
8
BLACK
6
CONTINUOUS
10
4.62247
20
-10.4252
11
4.61684
21
-10.4195
0
LINE
8
BLACK
6
CONTINUOUS
10
4.61684
20
-10.4195
11
4.61122
21
-10.4083
0
LINE
8
BLACK
6
CONTINUOUS
10
4.61122
20
-10.4083
11
4.61122
21
-10.3746
0
LINE
8
BLACK
6
CONTINUOUS
10
4.61122
20
-10.3746
11
4.61684
21
-10.3633
0
LINE
8
BLACK
6
CONTINUOUS
10
4.61684
20
-10.3633
11
4.62247
21
-10.3577
0
LINE
8
BLACK
6
CONTINUOUS
10
4.62247
20
-10.3577
11
4.63372
21
-10.3521
0
LINE
8
BLACK
6
CONTINUOUS
10
4.63372
20
-10.3521
11
4.65059
21
-10.3521
0
LINE
8
BLACK
6
CONTINUOUS
10
4.65059
20
-10.3521
11
4.66184
21
-10.3577
0
LINE
8
BLACK
6
CONTINUOUS
10
4.66184
20
-10.3577
11
4.66746
21
-10.3633
0
LINE
8
BLACK
6
CONTINUOUS
10
4.66746
20
-10.3633
11
4.67309
21
-10.3746
0
LINE
8
BLACK
6
CONTINUOUS
10
4.67309
20
-10.3746
11
4.67309
21
-10.4083
0
LINE
8
BLACK
6
CONTINUOUS
10
4.67309
20
-10.4083
11
4.66746
21
-10.4195
0
LINE
8
BLACK
6
CONTINUOUS
10
4.66746
20
-10.4195
11
4.66184
21
-10.4252
0
LINE
8
BLACK
6
CONTINUOUS
10
4.66184
20
-10.4252
11
4.65059
21
-10.4308
0
LINE
8
BLACK
6
CONTINUOUS
10
4.65059
20
-10.4308
11
4.63372
21
-10.4308
0
LINE
8
BLACK
6
CONTINUOUS
10
4.74058
20
-10.4308
11
4.72933
21
-10.4252
0
LINE
8
BLACK
6
CONTINUOUS
10
4.72933
20
-10.4252
11
4.72371
21
-10.4139
0
LINE
8
BLACK
6
CONTINUOUS
10
4.72371
20
-10.4139
11
4.72371
21
-10.3127
0
LINE
8
BLACK
6
CONTINUOUS
10
4.83057
20
-10.4252
11
4.81932
21
-10.4308
0
LINE
8
BLACK
6
CONTINUOUS
10
4.81932
20
-10.4308
11
4.79682
21
-10.4308
0
LINE
8
BLACK
6
CONTINUOUS
10
4.79682
20
-10.4308
11
4.78557
21
-10.4252
0
LINE
8
BLACK
6
CONTINUOUS
10
4.78557
20
-10.4252
11
4.77995
21
-10.4139
0
LINE
8
BLACK
6
CONTINUOUS
10
4.77995
20
-10.4139
11
4.77995
21
-10.3689
0
LINE
8
BLACK
6
CONTINUOUS
10
4.77995
20
-10.3689
11
4.78557
21
-10.3577
0
LINE
8
BLACK
6
CONTINUOUS
10
4.78557
20
-10.3577
11
4.79682
21
-10.3521
0
LINE
8
BLACK
6
CONTINUOUS
10
4.79682
20
-10.3521
11
4.81932
21
-10.3521
0
LINE
8
BLACK
6
CONTINUOUS
10
4.81932
20
-10.3521
11
4.83057
21
-10.3577
0
LINE
8
BLACK
6
CONTINUOUS
10
4.83057
20
-10.3577
11
4.83619
21
-10.3689
0
LINE
8
BLACK
6
CONTINUOUS
10
4.83619
20
-10.3689
11
4.83619
21
-10.3802
0
LINE
8
BLACK
6
CONTINUOUS
10
4.83619
20
-10.3802
11
4.77995
21
-10.3914
0
LINE
8
BLACK
6
CONTINUOUS
10
4.88119
20
-10.4252
11
4.89244
21
-10.4308
0
LINE
8
BLACK
6
CONTINUOUS
10
4.89244
20
-10.4308
11
4.91493
21
-10.4308
0
LINE
8
BLACK
6
CONTINUOUS
10
4.91493
20
-10.4308
11
4.92618
21
-10.4252
0
LINE
8
BLACK
6
CONTINUOUS
10
4.92618
20
-10.4252
11
4.93181
21
-10.4139
0
LINE
8
BLACK
6
CONTINUOUS
10
4.93181
20
-10.4139
11
4.93181
21
-10.4083
0
LINE
8
BLACK
6
CONTINUOUS
10
4.93181
20
-10.4083
11
4.92618
21
-10.397
0
LINE
8
BLACK
6
CONTINUOUS
10
4.92618
20
-10.397
11
4.91493
21
-10.3914
0
LINE
8
BLACK
6
CONTINUOUS
10
4.91493
20
-10.3914
11
4.89806
21
-10.3914
0
LINE
8
BLACK
6
CONTINUOUS
10
4.89806
20
-10.3914
11
4.88681
21
-10.3858
0
LINE
8
BLACK
6
CONTINUOUS
10
4.88681
20
-10.3858
11
4.88119
21
-10.3746
0
LINE
8
BLACK
6
CONTINUOUS
10
4.88119
20
-10.3746
11
4.88119
21
-10.3689
0
LINE
8
BLACK
6
CONTINUOUS
10
4.88119
20
-10.3689
11
4.88681
21
-10.3577
0
LINE
8
BLACK
6
CONTINUOUS
10
4.88681
20
-10.3577
11
4.89806
21
-10.3521
0
LINE
8
BLACK
6
CONTINUOUS
10
4.89806
20
-10.3521
11
4.91493
21
-10.3521
0
LINE
8
BLACK
6
CONTINUOUS
10
4.91493
20
-10.3521
11
4.92618
21
-10.3577
0
LINE
8
BLACK
6
CONTINUOUS
10
4.97118
20
-10.4758
11
4.9768
21
-10.4702
0
LINE
8
BLACK
6
CONTINUOUS
10
4.9768
20
-10.4702
11
4.98805
21
-10.4533
0
LINE
8
BLACK
6
CONTINUOUS
10
4.98805
20
-10.4533
11
4.99367
21
-10.442
0
LINE
8
BLACK
6
CONTINUOUS
10
4.99367
20
-10.442
11
4.9993
21
-10.4252
0
LINE
8
BLACK
6
CONTINUOUS
10
4.9993
20
-10.4252
11
5.00492
21
-10.397
0
LINE
8
BLACK
6
CONTINUOUS
10
5.00492
20
-10.397
11
5.00492
21
-10.3746
0
LINE
8
BLACK
6
CONTINUOUS
10
5.00492
20
-10.3746
11
4.9993
21
-10.3464
0
LINE
8
BLACK
6
CONTINUOUS
10
4.9993
20
-10.3464
11
4.99367
21
-10.3296
0
LINE
8
BLACK
6
CONTINUOUS
10
4.99367
20
-10.3296
11
4.98805
21
-10.3183
0
LINE
8
BLACK
6
CONTINUOUS
10
4.98805
20
-10.3183
11
4.9768
21
-10.3014
0
LINE
8
BLACK
6
CONTINUOUS
10
4.9768
20
-10.3014
11
4.97118
21
-10.2958
0
LINE
8
BLACK
6
CONTINUOUS
10
1.90453
20
-10.4703
11
1.90453
21
-10.5963
0
LINE
8
BLACK
6
CONTINUOUS
10
1.84154
20
-10.5333
11
1.96752
21
-10.5333
0
LINE
8
BLACK
6
CONTINUOUS
10
2.06904
20
-10.4686
11
2.14215
21
-10.4686
0
LINE
8
BLACK
6
CONTINUOUS
10
2.14215
20
-10.4686
11
2.10278
21
-10.5136
0
LINE
8
BLACK
6
CONTINUOUS
10
2.10278
20
-10.5136
11
2.11966
21
-10.5136
0
LINE
8
BLACK
6
CONTINUOUS
10
2.11966
20
-10.5136
11
2.13091
21
-10.5192
0
LINE
8
BLACK
6
CONTINUOUS
10
2.13091
20
-10.5192
11
2.13653
21
-10.5248
0
LINE
8
BLACK
6
CONTINUOUS
10
2.13653
20
-10.5248
11
2.14215
21
-10.5361
0
LINE
8
BLACK
6
CONTINUOUS
10
2.14215
20
-10.5361
11
2.14215
21
-10.5642
0
LINE
8
BLACK
6
CONTINUOUS
10
2.14215
20
-10.5642
11
2.13653
21
-10.5754
0
LINE
8
BLACK
6
CONTINUOUS
10
2.13653
20
-10.5754
11
2.13091
21
-10.5811
0
LINE
8
BLACK
6
CONTINUOUS
10
2.13091
20
-10.5811
11
2.11966
21
-10.5867
0
LINE
8
BLACK
6
CONTINUOUS
10
2.11966
20
-10.5867
11
2.08591
21
-10.5867
0
LINE
8
BLACK
6
CONTINUOUS
10
2.08591
20
-10.5867
11
2.07466
21
-10.5811
0
LINE
8
BLACK
6
CONTINUOUS
10
2.07466
20
-10.5811
11
2.06904
21
-10.5754
0
LINE
8
BLACK
6
CONTINUOUS
10
2.19277
20
-10.5754
11
2.1984
21
-10.5811
0
LINE
8
BLACK
6
CONTINUOUS
10
2.1984
20
-10.5811
11
2.19277
21
-10.5867
0
LINE
8
BLACK
6
CONTINUOUS
10
2.19277
20
-10.5867
11
2.18715
21
-10.5811
0
LINE
8
BLACK
6
CONTINUOUS
10
2.18715
20
-10.5811
11
2.19277
21
-10.5754
0
LINE
8
BLACK
6
CONTINUOUS
10
2.19277
20
-10.5754
11
2.19277
21
-10.5867
0
LINE
8
BLACK
6
CONTINUOUS
10
2.24339
20
-10.4798
11
2.24902
21
-10.4742
0
LINE
8
BLACK
6
CONTINUOUS
10
2.24902
20
-10.4742
11
2.26026
21
-10.4686
0
LINE
8
BLACK
6
CONTINUOUS
10
2.26026
20
-10.4686
11
2.28839
21
-10.4686
0
LINE
8
BLACK
6
CONTINUOUS
10
2.28839
20
-10.4686
11
2.29963
21
-10.4742
0
LINE
8
BLACK
6
CONTINUOUS
10
2.29963
20
-10.4742
11
2.30526
21
-10.4798
0
LINE
8
BLACK
6
CONTINUOUS
10
2.30526
20
-10.4798
11
2.31088
21
-10.4911
0
LINE
8
BLACK
6
CONTINUOUS
10
2.31088
20
-10.4911
11
2.31088
21
-10.5023
0
LINE
8
BLACK
6
CONTINUOUS
10
2.31088
20
-10.5023
11
2.30526
21
-10.5192
0
LINE
8
BLACK
6
CONTINUOUS
10
2.30526
20
-10.5192
11
2.23777
21
-10.5867
0
LINE
8
BLACK
6
CONTINUOUS
10
2.23777
20
-10.5867
11
2.31088
21
-10.5867
0
LINE
8
BLACK
6
CONTINUOUS
10
2.384
20
-10.4686
11
2.39525
21
-10.4686
0
LINE
8
BLACK
6
CONTINUOUS
10
2.39525
20
-10.4686
11
2.4065
21
-10.4742
0
LINE
8
BLACK
6
CONTINUOUS
10
2.4065
20
-10.4742
11
2.41212
21
-10.4798
0
LINE
8
BLACK
6
CONTINUOUS
10
2.41212
20
-10.4798
11
2.41774
21
-10.4911
0
LINE
8
BLACK
6
CONTINUOUS
10
2.41774
20
-10.4911
11
2.42337
21
-10.5136
0
LINE
8
BLACK
6
CONTINUOUS
10
2.42337
20
-10.5136
11
2.42337
21
-10.5417
0
LINE
8
BLACK
6
CONTINUOUS
10
2.42337
20
-10.5417
11
2.41774
21
-10.5642
0
LINE
8
BLACK
6
CONTINUOUS
10
2.41774
20
-10.5642
11
2.41212
21
-10.5754
0
LINE
8
BLACK
6
CONTINUOUS
10
2.41212
20
-10.5754
11
2.4065
21
-10.5811
0
LINE
8
BLACK
6
CONTINUOUS
10
2.4065
20
-10.5811
11
2.39525
21
-10.5867
0
LINE
8
BLACK
6
CONTINUOUS
10
2.39525
20
-10.5867
11
2.384
21
-10.5867
0
LINE
8
BLACK
6
CONTINUOUS
10
2.384
20
-10.5867
11
2.37275
21
-10.5811
0
LINE
8
BLACK
6
CONTINUOUS
10
2.37275
20
-10.5811
11
2.36713
21
-10.5754
0
LINE
8
BLACK
6
CONTINUOUS
10
2.36713
20
-10.5754
11
2.3615
21
-10.5642
0
LINE
8
BLACK
6
CONTINUOUS
10
2.3615
20
-10.5642
11
2.35588
21
-10.5417
0
LINE
8
BLACK
6
CONTINUOUS
10
2.35588
20
-10.5417
11
2.35588
21
-10.5136
0
LINE
8
BLACK
6
CONTINUOUS
10
2.35588
20
-10.5136
11
2.3615
21
-10.4911
0
LINE
8
BLACK
6
CONTINUOUS
10
2.3615
20
-10.4911
11
2.36713
21
-10.4798
0
LINE
8
BLACK
6
CONTINUOUS
10
2.36713
20
-10.4798
11
2.37275
21
-10.4742
0
LINE
8
BLACK
6
CONTINUOUS
10
2.37275
20
-10.4742
11
2.384
21
-10.4686
0
LINE
8
BLACK
6
CONTINUOUS
10
2.49648
20
-10.4686
11
2.50773
21
-10.4686
0
LINE
8
BLACK
6
CONTINUOUS
10
2.50773
20
-10.4686
11
2.51898
21
-10.4742
0
LINE
8
BLACK
6
CONTINUOUS
10
2.51898
20
-10.4742
11
2.52461
21
-10.4798
0
LINE
8
BLACK
6
CONTINUOUS
10
2.52461
20
-10.4798
11
2.53023
21
-10.4911
0
LINE
8
BLACK
6
CONTINUOUS
10
2.53023
20
-10.4911
11
2.53585
21
-10.5136
0
LINE
8
BLACK
6
CONTINUOUS
10
2.53585
20
-10.5136
11
2.53585
21
-10.5417
0
LINE
8
BLACK
6
CONTINUOUS
10
2.53585
20
-10.5417
11
2.53023
21
-10.5642
0
LINE
8
BLACK
6
CONTINUOUS
10
2.53023
20
-10.5642
11
2.52461
21
-10.5754
0
LINE
8
BLACK
6
CONTINUOUS
10
2.52461
20
-10.5754
11
2.51898
21
-10.5811
0
LINE
8
BLACK
6
CONTINUOUS
10
2.51898
20
-10.5811
11
2.50773
21
-10.5867
0
LINE
8
BLACK
6
CONTINUOUS
10
2.50773
20
-10.5867
11
2.49648
21
-10.5867
0
LINE
8
BLACK
6
CONTINUOUS
10
2.49648
20
-10.5867
11
2.48524
21
-10.5811
0
LINE
8
BLACK
6
CONTINUOUS
10
2.48524
20
-10.5811
11
2.47961
21
-10.5754
0
LINE
8
BLACK
6
CONTINUOUS
10
2.47961
20
-10.5754
11
2.47399
21
-10.5642
0
LINE
8
BLACK
6
CONTINUOUS
10
2.47399
20
-10.5642
11
2.46836
21
-10.5417
0
LINE
8
BLACK
6
CONTINUOUS
10
2.46836
20
-10.5417
11
2.46836
21
-10.5136
0
LINE
8
BLACK
6
CONTINUOUS
10
2.46836
20
-10.5136
11
2.47399
21
-10.4911
0
LINE
8
BLACK
6
CONTINUOUS
10
2.47399
20
-10.4911
11
2.47961
21
-10.4798
0
LINE
8
BLACK
6
CONTINUOUS
10
2.47961
20
-10.4798
11
2.48524
21
-10.4742
0
LINE
8
BLACK
6
CONTINUOUS
10
2.48524
20
-10.4742
11
2.49648
21
-10.4686
0
LINE
8
BLACK
6
CONTINUOUS
10
2.58647
20
-10.5867
11
2.58647
21
-10.508
0
LINE
8
BLACK
6
CONTINUOUS
10
2.58647
20
-10.5192
11
2.5921
21
-10.5136
0
LINE
8
BLACK
6
CONTINUOUS
10
2.5921
20
-10.5136
11
2.60335
21
-10.508
0
LINE
8
BLACK
6
CONTINUOUS
10
2.60335
20
-10.508
11
2.62022
21
-10.508
0
LINE
8
BLACK
6
CONTINUOUS
10
2.62022
20
-10.508
11
2.63147
21
-10.5136
0
LINE
8
BLACK
6
CONTINUOUS
10
2.63147
20
-10.5136
11
2.63709
21
-10.5248
0
LINE
8
BLACK
6
CONTINUOUS
10
2.63709
20
-10.5248
11
2.63709
21
-10.5867
0
LINE
8
BLACK
6
CONTINUOUS
10
2.63709
20
-10.5248
11
2.64272
21
-10.5136
0
LINE
8
BLACK
6
CONTINUOUS
10
2.64272
20
-10.5136
11
2.65397
21
-10.508
0
LINE
8
BLACK
6
CONTINUOUS
10
2.65397
20
-10.508
11
2.67084
21
-10.508
0
LINE
8
BLACK
6
CONTINUOUS
10
2.67084
20
-10.508
11
2.68209
21
-10.5136
0
LINE
8
BLACK
6
CONTINUOUS
10
2.68209
20
-10.5136
11
2.68771
21
-10.5248
0
LINE
8
BLACK
6
CONTINUOUS
10
2.68771
20
-10.5248
11
2.68771
21
-10.5867
0
LINE
8
BLACK
6
CONTINUOUS
10
2.74395
20
-10.5867
11
2.74395
21
-10.508
0
LINE
8
BLACK
6
CONTINUOUS
10
2.74395
20
-10.5192
11
2.74958
21
-10.5136
0
LINE
8
BLACK
6
CONTINUOUS
10
2.74958
20
-10.5136
11
2.76083
21
-10.508
0
LINE
8
BLACK
6
CONTINUOUS
10
2.76083
20
-10.508
11
2.7777
21
-10.508
0
LINE
8
BLACK
6
CONTINUOUS
10
2.7777
20
-10.508
11
2.78895
21
-10.5136
0
LINE
8
BLACK
6
CONTINUOUS
10
2.78895
20
-10.5136
11
2.79457
21
-10.5248
0
LINE
8
BLACK
6
CONTINUOUS
10
2.79457
20
-10.5248
11
2.79457
21
-10.5867
0
LINE
8
BLACK
6
CONTINUOUS
10
2.79457
20
-10.5248
11
2.8002
21
-10.5136
0
LINE
8
BLACK
6
CONTINUOUS
10
2.8002
20
-10.5136
11
2.81145
21
-10.508
0
LINE
8
BLACK
6
CONTINUOUS
10
2.81145
20
-10.508
11
2.82832
21
-10.508
0
LINE
8
BLACK
6
CONTINUOUS
10
2.82832
20
-10.508
11
2.83957
21
-10.5136
0
LINE
8
BLACK
6
CONTINUOUS
10
2.83957
20
-10.5136
11
2.84519
21
-10.5248
0
LINE
8
BLACK
6
CONTINUOUS
10
2.84519
20
-10.5248
11
2.84519
21
-10.5867
0
LINE
8
BLACK
6
CONTINUOUS
10
3.07579
20
-10.463
11
2.97455
21
-10.6148
0
LINE
8
BLACK
6
CONTINUOUS
10
3.22764
20
-10.4686
11
3.23889
21
-10.4686
0
LINE
8
BLACK
6
CONTINUOUS
10
3.23889
20
-10.4686
11
3.25014
21
-10.4742
0
LINE
8
BLACK
6
CONTINUOUS
10
3.25014
20
-10.4742
11
3.25576
21
-10.4798
0
LINE
8
BLACK
6
CONTINUOUS
10
3.25576
20
-10.4798
11
3.26139
21
-10.4911
0
LINE
8
BLACK
6
CONTINUOUS
10
3.26139
20
-10.4911
11
3.26701
21
-10.5136
0
LINE
8
BLACK
6
CONTINUOUS
10
3.26701
20
-10.5136
11
3.26701
21
-10.5417
0
LINE
8
BLACK
6
CONTINUOUS
10
3.26701
20
-10.5417
11
3.26139
21
-10.5642
0
LINE
8
BLACK
6
CONTINUOUS
10
3.26139
20
-10.5642
11
3.25576
21
-10.5754
0
LINE
8
BLACK
6
CONTINUOUS
10
3.25576
20
-10.5754
11
3.25014
21
-10.5811
0
LINE
8
BLACK
6
CONTINUOUS
10
3.25014
20
-10.5811
11
3.23889
21
-10.5867
0
LINE
8
BLACK
6
CONTINUOUS
10
3.23889
20
-10.5867
11
3.22764
21
-10.5867
0
LINE
8
BLACK
6
CONTINUOUS
10
3.22764
20
-10.5867
11
3.21639
21
-10.5811
0
LINE
8
BLACK
6
CONTINUOUS
10
3.21639
20
-10.5811
11
3.21077
21
-10.5754
0
LINE
8
BLACK
6
CONTINUOUS
10
3.21077
20
-10.5754
11
3.20515
21
-10.5642
0
LINE
8
BLACK
6
CONTINUOUS
10
3.20515
20
-10.5642
11
3.19952
21
-10.5417
0
LINE
8
BLACK
6
CONTINUOUS
10
3.19952
20
-10.5417
11
3.19952
21
-10.5136
0
LINE
8
BLACK
6
CONTINUOUS
10
3.19952
20
-10.5136
11
3.20515
21
-10.4911
0
LINE
8
BLACK
6
CONTINUOUS
10
3.20515
20
-10.4911
11
3.21077
21
-10.4798
0
LINE
8
BLACK
6
CONTINUOUS
10
3.21077
20
-10.4798
11
3.21639
21
-10.4742
0
LINE
8
BLACK
6
CONTINUOUS
10
3.21639
20
-10.4742
11
3.22764
21
-10.4686
0
LINE
8
BLACK
6
CONTINUOUS
10
3.31763
20
-10.5754
11
3.32326
21
-10.5811
0
LINE
8
BLACK
6
CONTINUOUS
10
3.32326
20
-10.5811
11
3.31763
21
-10.5867
0
LINE
8
BLACK
6
CONTINUOUS
10
3.31763
20
-10.5867
11
3.31201
21
-10.5811
0
LINE
8
BLACK
6
CONTINUOUS
10
3.31201
20
-10.5811
11
3.31763
21
-10.5754
0
LINE
8
BLACK
6
CONTINUOUS
10
3.31763
20
-10.5754
11
3.31763
21
-10.5867
0
LINE
8
BLACK
6
CONTINUOUS
10
3.43574
20
-10.5867
11
3.36825
21
-10.5867
0
LINE
8
BLACK
6
CONTINUOUS
10
3.402
20
-10.5867
11
3.402
21
-10.4686
0
LINE
8
BLACK
6
CONTINUOUS
10
3.402
20
-10.4686
11
3.39075
21
-10.4855
0
LINE
8
BLACK
6
CONTINUOUS
10
3.39075
20
-10.4855
11
3.3795
21
-10.4967
0
LINE
8
BLACK
6
CONTINUOUS
10
3.3795
20
-10.4967
11
3.36825
21
-10.5023
0
LINE
8
BLACK
6
CONTINUOUS
10
3.48074
20
-10.4798
11
3.48636
21
-10.4742
0
LINE
8
BLACK
6
CONTINUOUS
10
3.48636
20
-10.4742
11
3.49761
21
-10.4686
0
LINE
8
BLACK
6
CONTINUOUS
10
3.49761
20
-10.4686
11
3.52573
21
-10.4686
0
LINE
8
BLACK
6
CONTINUOUS
10
3.52573
20
-10.4686
11
3.53698
21
-10.4742
0
LINE
8
BLACK
6
CONTINUOUS
10
3.53698
20
-10.4742
11
3.5426
21
-10.4798
0
LINE
8
BLACK
6
CONTINUOUS
10
3.5426
20
-10.4798
11
3.54823
21
-10.4911
0
LINE
8
BLACK
6
CONTINUOUS
10
3.54823
20
-10.4911
11
3.54823
21
-10.5023
0
LINE
8
BLACK
6
CONTINUOUS
10
3.54823
20
-10.5023
11
3.5426
21
-10.5192
0
LINE
8
BLACK
6
CONTINUOUS
10
3.5426
20
-10.5192
11
3.47511
21
-10.5867
0
LINE
8
BLACK
6
CONTINUOUS
10
3.47511
20
-10.5867
11
3.54823
21
-10.5867
0
LINE
8
BLACK
6
CONTINUOUS
10
3.64947
20
-10.4686
11
3.62697
21
-10.4686
0
LINE
8
BLACK
6
CONTINUOUS
10
3.62697
20
-10.4686
11
3.61572
21
-10.4742
0
LINE
8
BLACK
6
CONTINUOUS
10
3.61572
20
-10.4742
11
3.6101
21
-10.4798
0
LINE
8
BLACK
6
CONTINUOUS
10
3.6101
20
-10.4798
11
3.59885
21
-10.4967
0
LINE
8
BLACK
6
CONTINUOUS
10
3.59885
20
-10.4967
11
3.59322
21
-10.5192
0
LINE
8
BLACK
6
CONTINUOUS
10
3.59322
20
-10.5192
11
3.59322
21
-10.5642
0
LINE
8
BLACK
6
CONTINUOUS
10
3.59322
20
-10.5642
11
3.59885
21
-10.5754
0
LINE
8
BLACK
6
CONTINUOUS
10
3.59885
20
-10.5754
11
3.60447
21
-10.5811
0
LINE
8
BLACK
6
CONTINUOUS
10
3.60447
20
-10.5811
11
3.61572
21
-10.5867
0
LINE
8
BLACK
6
CONTINUOUS
10
3.61572
20
-10.5867
11
3.63822
21
-10.5867
0
LINE
8
BLACK
6
CONTINUOUS
10
3.63822
20
-10.5867
11
3.64947
21
-10.5811
0
LINE
8
BLACK
6
CONTINUOUS
10
3.64947
20
-10.5811
11
3.65509
21
-10.5754
0
LINE
8
BLACK
6
CONTINUOUS
10
3.65509
20
-10.5754
11
3.66071
21
-10.5642
0
LINE
8
BLACK
6
CONTINUOUS
10
3.66071
20
-10.5642
11
3.66071
21
-10.5361
0
LINE
8
BLACK
6
CONTINUOUS
10
3.66071
20
-10.5361
11
3.65509
21
-10.5248
0
LINE
8
BLACK
6
CONTINUOUS
10
3.65509
20
-10.5248
11
3.64947
21
-10.5192
0
LINE
8
BLACK
6
CONTINUOUS
10
3.64947
20
-10.5192
11
3.63822
21
-10.5136
0
LINE
8
BLACK
6
CONTINUOUS
10
3.63822
20
-10.5136
11
3.61572
21
-10.5136
0
LINE
8
BLACK
6
CONTINUOUS
10
3.61572
20
-10.5136
11
3.60447
21
-10.5192
0
LINE
8
BLACK
6
CONTINUOUS
10
3.60447
20
-10.5192
11
3.59885
21
-10.5248
0
LINE
8
BLACK
6
CONTINUOUS
10
3.59885
20
-10.5248
11
3.59322
21
-10.5361
0
LINE
8
BLACK
6
CONTINUOUS
10
3.73383
20
-10.4686
11
3.74508
21
-10.4686
0
LINE
8
BLACK
6
CONTINUOUS
10
3.74508
20
-10.4686
11
3.75633
21
-10.4742
0
LINE
8
BLACK
6
CONTINUOUS
10
3.75633
20
-10.4742
11
3.76195
21
-10.4798
0
LINE
8
BLACK
6
CONTINUOUS
10
3.76195
20
-10.4798
11
3.76758
21
-10.4911
0
LINE
8
BLACK
6
CONTINUOUS
10
3.76758
20
-10.4911
11
3.7732
21
-10.5136
0
LINE
8
BLACK
6
CONTINUOUS
10
3.7732
20
-10.5136
11
3.7732
21
-10.5417
0
LINE
8
BLACK
6
CONTINUOUS
10
3.7732
20
-10.5417
11
3.76758
21
-10.5642
0
LINE
8
BLACK
6
CONTINUOUS
10
3.76758
20
-10.5642
11
3.76195
21
-10.5754
0
LINE
8
BLACK
6
CONTINUOUS
10
3.76195
20
-10.5754
11
3.75633
21
-10.5811
0
LINE
8
BLACK
6
CONTINUOUS
10
3.75633
20
-10.5811
11
3.74508
21
-10.5867
0
LINE
8
BLACK
6
CONTINUOUS
10
3.74508
20
-10.5867
11
3.73383
21
-10.5867
0
LINE
8
BLACK
6
CONTINUOUS
10
3.73383
20
-10.5867
11
3.72258
21
-10.5811
0
LINE
8
BLACK
6
CONTINUOUS
10
3.72258
20
-10.5811
11
3.71696
21
-10.5754
0
LINE
8
BLACK
6
CONTINUOUS
10
3.71696
20
-10.5754
11
3.71133
21
-10.5642
0
LINE
8
BLACK
6
CONTINUOUS
10
3.71133
20
-10.5642
11
3.70571
21
-10.5417
0
LINE
8
BLACK
6
CONTINUOUS
10
3.70571
20
-10.5417
11
3.70571
21
-10.5136
0
LINE
8
BLACK
6
CONTINUOUS
10
3.70571
20
-10.5136
11
3.71133
21
-10.4911
0
LINE
8
BLACK
6
CONTINUOUS
10
3.71133
20
-10.4911
11
3.71696
21
-10.4798
0
LINE
8
BLACK
6
CONTINUOUS
10
3.71696
20
-10.4798
11
3.72258
21
-10.4742
0
LINE
8
BLACK
6
CONTINUOUS
10
3.72258
20
-10.4742
11
3.73383
21
-10.4686
0
LINE
8
BLACK
6
CONTINUOUS
10
3.81819
20
-10.4686
11
3.81819
21
-10.4911
0
LINE
8
BLACK
6
CONTINUOUS
10
3.86319
20
-10.4686
11
3.86319
21
-10.4911
0
LINE
8
BLACK
6
CONTINUOUS
10
4.03754
20
-10.6317
11
4.03192
21
-10.6261
0
LINE
8
BLACK
6
CONTINUOUS
10
4.03192
20
-10.6261
11
4.02067
21
-10.6092
0
LINE
8
BLACK
6
CONTINUOUS
10
4.02067
20
-10.6092
11
4.01504
21
-10.5979
0
LINE
8
BLACK
6
CONTINUOUS
10
4.01504
20
-10.5979
11
4.00942
21
-10.5811
0
LINE
8
BLACK
6
CONTINUOUS
10
4.00942
20
-10.5811
11
4.0038
21
-10.553
0
LINE
8
BLACK
6
CONTINUOUS
10
4.0038
20
-10.553
11
4.0038
21
-10.5305
0
LINE
8
BLACK
6
CONTINUOUS
10
4.0038
20
-10.5305
11
4.00942
21
-10.5023
0
LINE
8
BLACK
6
CONTINUOUS
10
4.00942
20
-10.5023
11
4.01504
21
-10.4855
0
LINE
8
BLACK
6
CONTINUOUS
10
4.01504
20
-10.4855
11
4.02067
21
-10.4742
0
LINE
8
BLACK
6
CONTINUOUS
10
4.02067
20
-10.4742
11
4.03192
21
-10.4573
0
LINE
8
BLACK
6
CONTINUOUS
10
4.03192
20
-10.4573
11
4.03754
21
-10.4517
0
LINE
8
BLACK
6
CONTINUOUS
10
4.13316
20
-10.508
11
4.13316
21
-10.5867
0
LINE
8
BLACK
6
CONTINUOUS
10
4.10503
20
-10.463
11
4.07691
21
-10.5473
0
LINE
8
BLACK
6
CONTINUOUS
10
4.07691
20
-10.5473
11
4.15003
21
-10.5473
0
LINE
8
BLACK
6
CONTINUOUS
10
4.28501
20
-10.5867
11
4.28501
21
-10.4686
0
LINE
8
BLACK
6
CONTINUOUS
10
4.33563
20
-10.5867
11
4.33563
21
-10.5248
0
LINE
8
BLACK
6
CONTINUOUS
10
4.33563
20
-10.5248
11
4.33001
21
-10.5136
0
LINE
8
BLACK
6
CONTINUOUS
10
4.33001
20
-10.5136
11
4.31876
21
-10.508
0
LINE
8
BLACK
6
CONTINUOUS
10
4.31876
20
-10.508
11
4.30188
21
-10.508
0
LINE
8
BLACK
6
CONTINUOUS
10
4.30188
20
-10.508
11
4.29064
21
-10.5136
0
LINE
8
BLACK
6
CONTINUOUS
10
4.29064
20
-10.5136
11
4.28501
21
-10.5192
0
LINE
8
BLACK
6
CONTINUOUS
10
4.40875
20
-10.5867
11
4.3975
21
-10.5811
0
LINE
8
BLACK
6
CONTINUOUS
10
4.3975
20
-10.5811
11
4.39187
21
-10.5754
0
LINE
8
BLACK
6
CONTINUOUS
10
4.39187
20
-10.5754
11
4.38625
21
-10.5642
0
LINE
8
BLACK
6
CONTINUOUS
10
4.38625
20
-10.5642
11
4.38625
21
-10.5305
0
LINE
8
BLACK
6
CONTINUOUS
10
4.38625
20
-10.5305
11
4.39187
21
-10.5192
0
LINE
8
BLACK
6
CONTINUOUS
10
4.39187
20
-10.5192
11
4.3975
21
-10.5136
0
LINE
8
BLACK
6
CONTINUOUS
10
4.3975
20
-10.5136
11
4.40875
21
-10.508
0
LINE
8
BLACK
6
CONTINUOUS
10
4.40875
20
-10.508
11
4.42562
21
-10.508
0
LINE
8
BLACK
6
CONTINUOUS
10
4.42562
20
-10.508
11
4.43687
21
-10.5136
0
LINE
8
BLACK
6
CONTINUOUS
10
4.43687
20
-10.5136
11
4.44249
21
-10.5192
0
LINE
8
BLACK
6
CONTINUOUS
10
4.44249
20
-10.5192
11
4.44812
21
-10.5305
0
LINE
8
BLACK
6
CONTINUOUS
10
4.44812
20
-10.5305
11
4.44812
21
-10.5642
0
LINE
8
BLACK
6
CONTINUOUS
10
4.44812
20
-10.5642
11
4.44249
21
-10.5754
0
LINE
8
BLACK
6
CONTINUOUS
10
4.44249
20
-10.5754
11
4.43687
21
-10.5811
0
LINE
8
BLACK
6
CONTINUOUS
10
4.43687
20
-10.5811
11
4.42562
21
-10.5867
0
LINE
8
BLACK
6
CONTINUOUS
10
4.42562
20
-10.5867
11
4.40875
21
-10.5867
0
LINE
8
BLACK
6
CONTINUOUS
10
4.51561
20
-10.5867
11
4.50436
21
-10.5811
0
LINE
8
BLACK
6
CONTINUOUS
10
4.50436
20
-10.5811
11
4.49873
21
-10.5698
0
LINE
8
BLACK
6
CONTINUOUS
10
4.49873
20
-10.5698
11
4.49873
21
-10.4686
0
LINE
8
BLACK
6
CONTINUOUS
10
4.6056
20
-10.5811
11
4.59435
21
-10.5867
0
LINE
8
BLACK
6
CONTINUOUS
10
4.59435
20
-10.5867
11
4.57185
21
-10.5867
0
LINE
8
BLACK
6
CONTINUOUS
10
4.57185
20
-10.5867
11
4.5606
21
-10.5811
0
LINE
8
BLACK
6
CONTINUOUS
10
4.5606
20
-10.5811
11
4.55498
21
-10.5698
0
LINE
8
BLACK
6
CONTINUOUS
10
4.55498
20
-10.5698
11
4.55498
21
-10.5248
0
LINE
8
BLACK
6
CONTINUOUS
10
4.55498
20
-10.5248
11
4.5606
21
-10.5136
0
LINE
8
BLACK
6
CONTINUOUS
10
4.5606
20
-10.5136
11
4.57185
21
-10.508
0
LINE
8
BLACK
6
CONTINUOUS
10
4.57185
20
-10.508
11
4.59435
21
-10.508
0
LINE
8
BLACK
6
CONTINUOUS
10
4.59435
20
-10.508
11
4.6056
21
-10.5136
0
LINE
8
BLACK
6
CONTINUOUS
10
4.6056
20
-10.5136
11
4.61122
21
-10.5248
0
LINE
8
BLACK
6
CONTINUOUS
10
4.61122
20
-10.5248
11
4.61122
21
-10.5361
0
LINE
8
BLACK
6
CONTINUOUS
10
4.61122
20
-10.5361
11
4.55498
21
-10.5473
0
LINE
8
BLACK
6
CONTINUOUS
10
4.65621
20
-10.5811
11
4.66746
21
-10.5867
0
LINE
8
BLACK
6
CONTINUOUS
10
4.66746
20
-10.5867
11
4.68996
21
-10.5867
0
LINE
8
BLACK
6
CONTINUOUS
10
4.68996
20
-10.5867
11
4.70121
21
-10.5811
0
LINE
8
BLACK
6
CONTINUOUS
10
4.70121
20
-10.5811
11
4.70683
21
-10.5698
0
LINE
8
BLACK
6
CONTINUOUS
10
4.70683
20
-10.5698
11
4.70683
21
-10.5642
0
LINE
8
BLACK
6
CONTINUOUS
10
4.70683
20
-10.5642
11
4.70121
21
-10.553
0
LINE
8
BLACK
6
CONTINUOUS
10
4.70121
20
-10.553
11
4.68996
21
-10.5473
0
LINE
8
BLACK
6
CONTINUOUS
10
4.68996
20
-10.5473
11
4.67309
21
-10.5473
0
LINE
8
BLACK
6
CONTINUOUS
10
4.67309
20
-10.5473
11
4.66184
21
-10.5417
0
LINE
8
BLACK
6
CONTINUOUS
10
4.66184
20
-10.5417
11
4.65621
21
-10.5305
0
LINE
8
BLACK
6
CONTINUOUS
10
4.65621
20
-10.5305
11
4.65621
21
-10.5248
0
LINE
8
BLACK
6
CONTINUOUS
10
4.65621
20
-10.5248
11
4.66184
21
-10.5136
0
LINE
8
BLACK
6
CONTINUOUS
10
4.66184
20
-10.5136
11
4.67309
21
-10.508
0
LINE
8
BLACK
6
CONTINUOUS
10
4.67309
20
-10.508
11
4.68996
21
-10.508
0
LINE
8
BLACK
6
CONTINUOUS
10
4.68996
20
-10.508
11
4.70121
21
-10.5136
0
LINE
8
BLACK
6
CONTINUOUS
10
4.7462
20
-10.6317
11
4.75183
21
-10.6261
0
LINE
8
BLACK
6
CONTINUOUS
10
4.75183
20
-10.6261
11
4.76308
21
-10.6092
0
LINE
8
BLACK
6
CONTINUOUS
10
4.76308
20
-10.6092
11
4.7687
21
-10.5979
0
LINE
8
BLACK
6
CONTINUOUS
10
4.7687
20
-10.5979
11
4.77433
21
-10.5811
0
LINE
8
BLACK
6
CONTINUOUS
10
4.77433
20
-10.5811
11
4.77995
21
-10.553
0
LINE
8
BLACK
6
CONTINUOUS
10
4.77995
20
-10.553
11
4.77995
21
-10.5305
0
LINE
8
BLACK
6
CONTINUOUS
10
4.77995
20
-10.5305
11
4.77433
21
-10.5023
0
LINE
8
BLACK
6
CONTINUOUS
10
4.77433
20
-10.5023
11
4.7687
21
-10.4855
0
LINE
8
BLACK
6
CONTINUOUS
10
4.7687
20
-10.4855
11
4.76308
21
-10.4742
0
LINE
8
BLACK
6
CONTINUOUS
10
4.76308
20
-10.4742
11
4.75183
21
-10.4573
0
LINE
8
BLACK
6
CONTINUOUS
10
4.75183
20
-10.4573
11
4.7462
21
-10.4517
  0
ENDSEC
  0
EOF
