%TF.GenerationSoftware,KiCad,Pcbnew,(5.1.10-1-10_14)*%
%TF.CreationDate,2021-07-18T13:59:37+10:00*%
%TF.ProjectId,RS232,52533233-322e-46b6-9963-61645f706362,rev?*%
%TF.SameCoordinates,Original*%
%TF.FileFunction,Copper,L2,Bot*%
%TF.FilePolarity,Positive*%
%FSLAX46Y46*%
G04 Gerber Fmt 4.6, Leading zero omitted, Abs format (unit mm)*
G04 Created by KiCad (PCBNEW (5.1.10-1-10_14)) date 2021-07-18 13:59:37*
%MOMM*%
%LPD*%
G01*
G04 APERTURE LIST*
%TA.AperFunction,ComponentPad*%
%ADD10O,1.600000X1.600000*%
%TD*%
%TA.AperFunction,ComponentPad*%
%ADD11C,1.600000*%
%TD*%
%TA.AperFunction,ComponentPad*%
%ADD12R,1.500000X1.500000*%
%TD*%
%TA.AperFunction,ComponentPad*%
%ADD13C,1.500000*%
%TD*%
%TA.AperFunction,ComponentPad*%
%ADD14C,1.800000*%
%TD*%
%TA.AperFunction,ComponentPad*%
%ADD15R,1.800000X1.800000*%
%TD*%
%TA.AperFunction,ComponentPad*%
%ADD16O,1.700000X1.700000*%
%TD*%
%TA.AperFunction,ComponentPad*%
%ADD17R,1.700000X1.700000*%
%TD*%
%TA.AperFunction,ComponentPad*%
%ADD18R,1.600000X1.600000*%
%TD*%
%TA.AperFunction,ComponentPad*%
%ADD19C,4.000000*%
%TD*%
%TA.AperFunction,ComponentPad*%
%ADD20O,2.200000X2.200000*%
%TD*%
%TA.AperFunction,ComponentPad*%
%ADD21R,2.200000X2.200000*%
%TD*%
%TA.AperFunction,ComponentPad*%
%ADD22O,2.400000X2.400000*%
%TD*%
%TA.AperFunction,ComponentPad*%
%ADD23R,2.400000X2.400000*%
%TD*%
%TA.AperFunction,ComponentPad*%
%ADD24O,1.740000X2.190000*%
%TD*%
%TA.AperFunction,ComponentPad*%
%ADD25C,0.800000*%
%TD*%
%TA.AperFunction,ComponentPad*%
%ADD26C,6.400000*%
%TD*%
%TA.AperFunction,Conductor*%
%ADD27C,0.500000*%
%TD*%
%TA.AperFunction,Conductor*%
%ADD28C,1.000000*%
%TD*%
%TA.AperFunction,Conductor*%
%ADD29C,1.500000*%
%TD*%
%TA.AperFunction,Conductor*%
%ADD30C,0.254000*%
%TD*%
%TA.AperFunction,Conductor*%
%ADD31C,0.100000*%
%TD*%
G04 APERTURE END LIST*
D10*
%TO.P,R10,2*%
%TO.N,Net-(D1-Pad1)*%
X146205000Y-108870000D03*
D11*
%TO.P,R10,1*%
%TO.N,Net-(Q1-Pad1)*%
X136045000Y-108870000D03*
%TD*%
D10*
%TO.P,R3,2*%
%TO.N,Net-(Q2-Pad2)*%
X126520000Y-89820000D03*
D11*
%TO.P,R3,1*%
%TO.N,RX*%
X136680000Y-89820000D03*
%TD*%
D10*
%TO.P,R2,2*%
%TO.N,Net-(Q1-Pad2)*%
X126520000Y-103790000D03*
D11*
%TO.P,R2,1*%
%TO.N,TX*%
X116360000Y-103790000D03*
%TD*%
D10*
%TO.P,R1,2*%
%TO.N,Net-(D3-Pad1)*%
X146205000Y-99980000D03*
D11*
%TO.P,R1,1*%
%TO.N,Net-(Q2-Pad1)*%
X136045000Y-99980000D03*
%TD*%
D12*
%TO.P,Q2,1*%
%TO.N,Net-(Q2-Pad1)*%
X129060000Y-97440000D03*
D13*
%TO.P,Q2,3*%
%TO.N,GND*%
X123980000Y-97440000D03*
%TO.P,Q2,2*%
%TO.N,Net-(Q2-Pad2)*%
X126520000Y-97440000D03*
%TD*%
D12*
%TO.P,Q1,1*%
%TO.N,Net-(Q1-Pad1)*%
X129060000Y-108870000D03*
D13*
%TO.P,Q1,3*%
%TO.N,GND*%
X123980000Y-108870000D03*
%TO.P,Q1,2*%
%TO.N,Net-(Q1-Pad2)*%
X126520000Y-108870000D03*
%TD*%
D14*
%TO.P,D3,2*%
%TO.N,+5V*%
X150015000Y-97440000D03*
D15*
%TO.P,D3,1*%
%TO.N,Net-(D3-Pad1)*%
X150015000Y-99980000D03*
%TD*%
D14*
%TO.P,D1,2*%
%TO.N,+5V*%
X150015000Y-106330000D03*
D15*
%TO.P,D1,1*%
%TO.N,Net-(D1-Pad1)*%
X150015000Y-108870000D03*
%TD*%
D16*
%TO.P,J5,4*%
%TO.N,RX*%
X150015000Y-89620000D03*
%TO.P,J5,3*%
%TO.N,GND*%
X150015000Y-87080000D03*
%TO.P,J5,2*%
X150015000Y-84540000D03*
D17*
%TO.P,J5,1*%
%TO.N,TX*%
X150015000Y-82000000D03*
%TD*%
D10*
%TO.P,U1,16*%
%TO.N,+5V*%
X125250000Y-46640000D03*
%TO.P,U1,8*%
%TO.N,RTS*%
X117630000Y-64420000D03*
%TO.P,U1,15*%
%TO.N,GND*%
X125250000Y-49180000D03*
%TO.P,U1,7*%
%TO.N,CTS*%
X117630000Y-61880000D03*
%TO.P,U1,14*%
%TO.N,TX_D*%
X125250000Y-51720000D03*
%TO.P,U1,6*%
%TO.N,Net-(C3-Pad1)*%
X117630000Y-59340000D03*
%TO.P,U1,13*%
%TO.N,RX_D*%
X125250000Y-54260000D03*
%TO.P,U1,5*%
%TO.N,Net-(C4-Pad2)*%
X117630000Y-56800000D03*
%TO.P,U1,12*%
%TO.N,Net-(U1-Pad12)*%
X125250000Y-56800000D03*
%TO.P,U1,4*%
%TO.N,Net-(C4-Pad1)*%
X117630000Y-54260000D03*
%TO.P,U1,11*%
%TO.N,TX*%
X125250000Y-59340000D03*
%TO.P,U1,3*%
%TO.N,Net-(C1-Pad2)*%
X117630000Y-51720000D03*
%TO.P,U1,10*%
%TO.N,Net-(U1-Pad10)*%
X125250000Y-61880000D03*
%TO.P,U1,2*%
%TO.N,Net-(C2-Pad1)*%
X117630000Y-49180000D03*
%TO.P,U1,9*%
%TO.N,Net-(U1-Pad9)*%
X125250000Y-64420000D03*
D18*
%TO.P,U1,1*%
%TO.N,Net-(C1-Pad1)*%
X117630000Y-46640000D03*
%TD*%
D19*
%TO.P,J1,0*%
%TO.N,N/C*%
X147180000Y-40815000D03*
X147180000Y-65815000D03*
D11*
%TO.P,J1,9*%
%TO.N,Net-(J1-Pad9)*%
X149720000Y-49160000D03*
%TO.P,J1,8*%
%TO.N,CTS*%
X149720000Y-51930000D03*
%TO.P,J1,7*%
%TO.N,RTS*%
X149720000Y-54700000D03*
%TO.P,J1,6*%
%TO.N,Net-(J1-Pad6)*%
X149720000Y-57470000D03*
%TO.P,J1,5*%
%TO.N,GND*%
X146880000Y-47775000D03*
%TO.P,J1,4*%
%TO.N,Net-(J1-Pad4)*%
X146880000Y-50545000D03*
%TO.P,J1,3*%
%TO.N,TX_D*%
X146880000Y-53315000D03*
%TO.P,J1,2*%
%TO.N,RX_D*%
X146880000Y-56085000D03*
D18*
%TO.P,J1,1*%
%TO.N,Net-(J1-Pad1)*%
X146880000Y-58855000D03*
%TD*%
D11*
%TO.P,C4,2*%
%TO.N,Net-(C4-Pad2)*%
X110645000Y-56760000D03*
D18*
%TO.P,C4,1*%
%TO.N,Net-(C4-Pad1)*%
X110645000Y-54260000D03*
%TD*%
D11*
%TO.P,C3,2*%
%TO.N,GND*%
X110645000Y-63110000D03*
D18*
%TO.P,C3,1*%
%TO.N,Net-(C3-Pad1)*%
X110645000Y-60610000D03*
%TD*%
D11*
%TO.P,C2,2*%
%TO.N,+5V*%
X123480000Y-39755000D03*
D18*
%TO.P,C2,1*%
%TO.N,Net-(C2-Pad1)*%
X120980000Y-39755000D03*
%TD*%
D11*
%TO.P,C1,2*%
%TO.N,Net-(C1-Pad2)*%
X110645000Y-50450000D03*
D18*
%TO.P,C1,1*%
%TO.N,Net-(C1-Pad1)*%
X110645000Y-47950000D03*
%TD*%
D20*
%TO.P,D2,2*%
%TO.N,Net-(D2-Pad2)*%
X67945000Y-123825000D03*
D21*
%TO.P,D2,1*%
%TO.N,+5V*%
X57785000Y-123825000D03*
%TD*%
D22*
%TO.P,C8,2*%
%TO.N,GND*%
X50800000Y-98840000D03*
D23*
%TO.P,C8,1*%
%TO.N,+5V*%
X50800000Y-116840000D03*
%TD*%
D22*
%TO.P,C6,2*%
%TO.N,GND*%
X57785000Y-98840000D03*
D23*
%TO.P,C6,1*%
%TO.N,+5V*%
X57785000Y-116840000D03*
%TD*%
D24*
%TO.P,J11,6*%
%TO.N,GND*%
X67945000Y-34290000D03*
%TO.P,J11,5*%
%TO.N,Net-(D2-Pad2)*%
X70485000Y-34290000D03*
%TO.P,J11,4*%
%TO.N,clock*%
X73025000Y-34290000D03*
%TO.P,J11,3*%
%TO.N,rst*%
X75565000Y-34290000D03*
%TO.P,J11,2*%
%TO.N,flag*%
X78105000Y-34290000D03*
%TO.P,J11,1*%
%TO.N,data*%
%TA.AperFunction,ComponentPad*%
G36*
G01*
X81515000Y-33444999D02*
X81515000Y-35135001D01*
G75*
G02*
X81265001Y-35385000I-249999J0D01*
G01*
X80024999Y-35385000D01*
G75*
G02*
X79775000Y-35135001I0J249999D01*
G01*
X79775000Y-33444999D01*
G75*
G02*
X80024999Y-33195000I249999J0D01*
G01*
X81265001Y-33195000D01*
G75*
G02*
X81515000Y-33444999I0J-249999D01*
G01*
G37*
%TD.AperFunction*%
%TD*%
%TO.P,J10,6*%
%TO.N,GND*%
X67945000Y-116840000D03*
%TO.P,J10,5*%
%TO.N,Net-(D2-Pad2)*%
X70485000Y-116840000D03*
%TO.P,J10,4*%
%TO.N,I_clock*%
X73025000Y-116840000D03*
%TO.P,J10,3*%
%TO.N,I_rst*%
X75565000Y-116840000D03*
%TO.P,J10,2*%
%TO.N,I_flag*%
X78105000Y-116840000D03*
%TO.P,J10,1*%
%TO.N,I_data*%
%TA.AperFunction,ComponentPad*%
G36*
G01*
X81515000Y-115994999D02*
X81515000Y-117685001D01*
G75*
G02*
X81265001Y-117935000I-249999J0D01*
G01*
X80024999Y-117935000D01*
G75*
G02*
X79775000Y-117685001I0J249999D01*
G01*
X79775000Y-115994999D01*
G75*
G02*
X80024999Y-115745000I249999J0D01*
G01*
X81265001Y-115745000D01*
G75*
G02*
X81515000Y-115994999I0J-249999D01*
G01*
G37*
%TD.AperFunction*%
%TD*%
D16*
%TO.P,J9,4*%
%TO.N,rst*%
X75380000Y-25000000D03*
%TO.P,J9,3*%
%TO.N,flag*%
X77920000Y-25000000D03*
%TO.P,J9,2*%
%TO.N,data*%
X80460000Y-25000000D03*
D17*
%TO.P,J9,1*%
%TO.N,clock*%
X83000000Y-25000000D03*
%TD*%
D16*
%TO.P,J7,4*%
%TO.N,I_rst*%
X75380000Y-128000000D03*
%TO.P,J7,3*%
%TO.N,I_flag*%
X77920000Y-128000000D03*
%TO.P,J7,2*%
%TO.N,I_data*%
X80460000Y-128000000D03*
D17*
%TO.P,J7,1*%
%TO.N,I_clock*%
X83000000Y-128000000D03*
%TD*%
D16*
%TO.P,J6,4*%
%TO.N,+5V*%
X57620000Y-128000000D03*
%TO.P,J6,3*%
X55080000Y-128000000D03*
%TO.P,J6,2*%
%TO.N,GND*%
X52540000Y-128000000D03*
D17*
%TO.P,J6,1*%
X50000000Y-128000000D03*
%TD*%
D25*
%TO.P,H4,1*%
%TO.N,GND*%
X151697056Y-23302944D03*
X150000000Y-22600000D03*
X148302944Y-23302944D03*
X147600000Y-25000000D03*
X148302944Y-26697056D03*
X150000000Y-27400000D03*
X151697056Y-26697056D03*
X152400000Y-25000000D03*
D26*
X150000000Y-25000000D03*
%TD*%
D25*
%TO.P,H3,1*%
%TO.N,GND*%
X36697056Y-126302944D03*
X35000000Y-125600000D03*
X33302944Y-126302944D03*
X32600000Y-128000000D03*
X33302944Y-129697056D03*
X35000000Y-130400000D03*
X36697056Y-129697056D03*
X37400000Y-128000000D03*
D26*
X35000000Y-128000000D03*
%TD*%
D25*
%TO.P,H2,1*%
%TO.N,GND*%
X36697056Y-23302944D03*
X35000000Y-22600000D03*
X33302944Y-23302944D03*
X32600000Y-25000000D03*
X33302944Y-26697056D03*
X35000000Y-27400000D03*
X36697056Y-26697056D03*
X37400000Y-25000000D03*
D26*
X35000000Y-25000000D03*
%TD*%
D25*
%TO.P,H1,1*%
%TO.N,GND*%
X151697056Y-126302944D03*
X150000000Y-125600000D03*
X148302944Y-126302944D03*
X147600000Y-128000000D03*
X148302944Y-129697056D03*
X150000000Y-130400000D03*
X151697056Y-129697056D03*
X152400000Y-128000000D03*
D26*
X150000000Y-128000000D03*
%TD*%
D27*
%TO.N,Net-(D1-Pad1)*%
X146205000Y-108870000D02*
X150015000Y-108870000D01*
D28*
%TO.N,+5V*%
X57540000Y-127920000D02*
X57620000Y-128000000D01*
X55080000Y-128000000D02*
X57620000Y-128000000D01*
D29*
X50800000Y-116840000D02*
X57785000Y-116840000D01*
X57785000Y-127835000D02*
X57620000Y-128000000D01*
X57785000Y-123825000D02*
X57785000Y-127835000D01*
X57785000Y-116840000D02*
X57785000Y-123825000D01*
X57785000Y-116840000D02*
X57785000Y-110930000D01*
X57785000Y-110930000D02*
X59210000Y-109505000D01*
X110645000Y-109505000D02*
X115725000Y-114585000D01*
X115725000Y-114585000D02*
X134775000Y-114585000D01*
X143030000Y-106330000D02*
X150015000Y-106330000D01*
X134775000Y-114585000D02*
X143030000Y-106330000D01*
X143030000Y-106330000D02*
X143030000Y-98075000D01*
X143665000Y-97440000D02*
X150015000Y-97440000D01*
X143030000Y-98075000D02*
X143665000Y-97440000D01*
X123480000Y-44870000D02*
X125250000Y-46640000D01*
X123480000Y-39755000D02*
X123480000Y-44870000D01*
X96040000Y-109505000D02*
X110645000Y-109505000D01*
X59210000Y-109505000D02*
X96040000Y-109505000D01*
X99080000Y-35345000D02*
X96040000Y-38385000D01*
X123480000Y-38520000D02*
X120305000Y-35345000D01*
X96040000Y-38385000D02*
X96040000Y-109505000D01*
X120305000Y-35345000D02*
X99080000Y-35345000D01*
X123480000Y-39755000D02*
X123480000Y-38520000D01*
%TO.N,GND*%
X52705000Y-127835000D02*
X52540000Y-128000000D01*
X52540000Y-128000000D02*
X50000000Y-128000000D01*
D27*
X125250000Y-49180000D02*
X133505000Y-49180000D01*
X134910000Y-47775000D02*
X146880000Y-47775000D01*
X133505000Y-49180000D02*
X134910000Y-47775000D01*
X123980000Y-97440000D02*
X123980000Y-108870000D01*
X123980000Y-97440000D02*
X123980000Y-89820000D01*
X126720000Y-87080000D02*
X150015000Y-87080000D01*
X123980000Y-89820000D02*
X126720000Y-87080000D01*
%TO.N,Net-(C1-Pad1)*%
X110645000Y-47950000D02*
X113780000Y-47950000D01*
X115090000Y-46640000D02*
X117630000Y-46640000D01*
X113780000Y-47950000D02*
X115090000Y-46640000D01*
%TO.N,Net-(C2-Pad1)*%
X120980000Y-45830000D02*
X117630000Y-49180000D01*
X120980000Y-39755000D02*
X120980000Y-45830000D01*
%TO.N,RX*%
X136680000Y-89820000D02*
X143030000Y-89820000D01*
X143230000Y-89620000D02*
X150015000Y-89620000D01*
X143030000Y-89820000D02*
X143230000Y-89620000D01*
%TO.N,TX*%
X150015000Y-82000000D02*
X128625000Y-82000000D01*
X116360000Y-94265000D02*
X116360000Y-103790000D01*
X128625000Y-82000000D02*
X116360000Y-94265000D01*
%TO.N,Net-(C4-Pad1)*%
X110645000Y-54260000D02*
X117630000Y-54260000D01*
%TO.N,rst*%
X75380000Y-34105000D02*
X75565000Y-34290000D01*
X75380000Y-25000000D02*
X75380000Y-34105000D01*
%TO.N,flag*%
X77920000Y-34105000D02*
X78105000Y-34290000D01*
X77920000Y-25000000D02*
X77920000Y-34105000D01*
%TO.N,data*%
X80460000Y-34105000D02*
X80645000Y-34290000D01*
X80460000Y-25000000D02*
X80460000Y-34105000D01*
%TO.N,clock*%
X83000000Y-25000000D02*
X83000000Y-37650000D01*
X83000000Y-37650000D02*
X81915000Y-38735000D01*
X81915000Y-38735000D02*
X74295000Y-38735000D01*
X73025000Y-37465000D02*
X73025000Y-34290000D01*
X74295000Y-38735000D02*
X73025000Y-37465000D01*
%TO.N,I_rst*%
X75565000Y-127815000D02*
X75380000Y-128000000D01*
X75565000Y-116840000D02*
X75565000Y-127815000D01*
%TO.N,I_flag*%
X78105000Y-127815000D02*
X77920000Y-128000000D01*
X78105000Y-116840000D02*
X78105000Y-127815000D01*
%TO.N,I_data*%
X80645000Y-127815000D02*
X80460000Y-128000000D01*
X80645000Y-116840000D02*
X80645000Y-127815000D01*
%TO.N,I_clock*%
X83000000Y-128000000D02*
X83000000Y-113850000D01*
X83000000Y-113850000D02*
X81545000Y-112395000D01*
X81545000Y-112395000D02*
X74930000Y-112395000D01*
X73025000Y-114300000D02*
X73025000Y-116840000D01*
X74930000Y-112395000D02*
X73025000Y-114300000D01*
D29*
%TO.N,Net-(D2-Pad2)*%
X70485000Y-121285000D02*
X70485000Y-116840000D01*
X67945000Y-123825000D02*
X70485000Y-121285000D01*
D27*
%TO.N,Net-(C1-Pad2)*%
X110645000Y-50450000D02*
X114455000Y-50450000D01*
X115725000Y-51720000D02*
X117630000Y-51720000D01*
X114455000Y-50450000D02*
X115725000Y-51720000D01*
%TO.N,Net-(C3-Pad1)*%
X110645000Y-60610000D02*
X113820000Y-60610000D01*
X115090000Y-59340000D02*
X117630000Y-59340000D01*
X113820000Y-60610000D02*
X115090000Y-59340000D01*
%TO.N,Net-(C4-Pad2)*%
X117590000Y-56760000D02*
X117630000Y-56800000D01*
X110645000Y-56760000D02*
X117590000Y-56760000D01*
%TO.N,CTS*%
X113820000Y-65055000D02*
X113820000Y-62515000D01*
X131600000Y-66960000D02*
X115725000Y-66960000D01*
X135195001Y-63364999D02*
X131600000Y-66960000D01*
X150435001Y-63364999D02*
X135195001Y-63364999D01*
X152555000Y-61245000D02*
X150435001Y-63364999D01*
X114455000Y-61880000D02*
X117630000Y-61880000D01*
X113820000Y-62515000D02*
X114455000Y-61880000D01*
X115725000Y-66960000D02*
X113820000Y-65055000D01*
X152555000Y-52990000D02*
X152555000Y-61245000D01*
X151495000Y-51930000D02*
X152555000Y-52990000D01*
X149720000Y-51930000D02*
X151495000Y-51930000D01*
%TO.N,RTS*%
X118919999Y-63130001D02*
X118429999Y-63620001D01*
X132254999Y-63130001D02*
X118919999Y-63130001D01*
X134140000Y-61245000D02*
X132254999Y-63130001D01*
X150455000Y-54700000D02*
X151285000Y-55530000D01*
X151285000Y-55530000D02*
X151285000Y-60286037D01*
X150326037Y-61245000D02*
X134140000Y-61245000D01*
X118429999Y-63620001D02*
X117630000Y-64420000D01*
X151285000Y-60286037D02*
X150326037Y-61245000D01*
X149720000Y-54700000D02*
X150455000Y-54700000D01*
%TO.N,TX_D*%
X125250000Y-51720000D02*
X141760000Y-51720000D01*
X143355000Y-53315000D02*
X146880000Y-53315000D01*
X141760000Y-51720000D02*
X143355000Y-53315000D01*
%TO.N,RX_D*%
X125250000Y-54260000D02*
X141760000Y-54260000D01*
X143585000Y-56085000D02*
X146880000Y-56085000D01*
X141760000Y-54260000D02*
X143585000Y-56085000D01*
%TO.N,Net-(D3-Pad1)*%
X146205000Y-99980000D02*
X150015000Y-99980000D01*
%TO.N,Net-(Q1-Pad1)*%
X129060000Y-108870000D02*
X136045000Y-108870000D01*
%TO.N,Net-(Q1-Pad2)*%
X126520000Y-108870000D02*
X126520000Y-103790000D01*
%TO.N,Net-(Q2-Pad1)*%
X133505000Y-97440000D02*
X136045000Y-99980000D01*
X129060000Y-97440000D02*
X133505000Y-97440000D01*
%TO.N,Net-(Q2-Pad2)*%
X126520000Y-92360000D02*
X126520000Y-97440000D01*
X126520000Y-89820000D02*
X126520000Y-92360000D01*
%TD*%
D30*
%TO.N,GND*%
X154340001Y-132340000D02*
X30660000Y-132340000D01*
X30660000Y-130700881D01*
X32478724Y-130700881D01*
X32838912Y-131190548D01*
X33502882Y-131550849D01*
X34224385Y-131774694D01*
X34975695Y-131853480D01*
X35727938Y-131784178D01*
X36452208Y-131569452D01*
X37120670Y-131217555D01*
X37161088Y-131190548D01*
X37521276Y-130700881D01*
X147478724Y-130700881D01*
X147838912Y-131190548D01*
X148502882Y-131550849D01*
X149224385Y-131774694D01*
X149975695Y-131853480D01*
X150727938Y-131784178D01*
X151452208Y-131569452D01*
X152120670Y-131217555D01*
X152161088Y-131190548D01*
X152521276Y-130700881D01*
X150000000Y-128179605D01*
X147478724Y-130700881D01*
X37521276Y-130700881D01*
X35000000Y-128179605D01*
X32478724Y-130700881D01*
X30660000Y-130700881D01*
X30660000Y-127975695D01*
X31146520Y-127975695D01*
X31215822Y-128727938D01*
X31430548Y-129452208D01*
X31782445Y-130120670D01*
X31809452Y-130161088D01*
X32299119Y-130521276D01*
X34820395Y-128000000D01*
X35179605Y-128000000D01*
X37700881Y-130521276D01*
X38190548Y-130161088D01*
X38550849Y-129497118D01*
X38751616Y-128850000D01*
X48511928Y-128850000D01*
X48524188Y-128974482D01*
X48560498Y-129094180D01*
X48619463Y-129204494D01*
X48698815Y-129301185D01*
X48795506Y-129380537D01*
X48905820Y-129439502D01*
X49025518Y-129475812D01*
X49150000Y-129488072D01*
X49714250Y-129485000D01*
X49873000Y-129326250D01*
X49873000Y-128127000D01*
X50127000Y-128127000D01*
X50127000Y-129326250D01*
X50285750Y-129485000D01*
X50850000Y-129488072D01*
X50974482Y-129475812D01*
X51094180Y-129439502D01*
X51204494Y-129380537D01*
X51301185Y-129301185D01*
X51380537Y-129204494D01*
X51439502Y-129094180D01*
X51463966Y-129013534D01*
X51539731Y-129097588D01*
X51773080Y-129271641D01*
X52035901Y-129396825D01*
X52183110Y-129441476D01*
X52413000Y-129320155D01*
X52413000Y-128127000D01*
X50127000Y-128127000D01*
X49873000Y-128127000D01*
X48673750Y-128127000D01*
X48515000Y-128285750D01*
X48511928Y-128850000D01*
X38751616Y-128850000D01*
X38774694Y-128775615D01*
X38853480Y-128024305D01*
X38784178Y-127272062D01*
X38747990Y-127150000D01*
X48511928Y-127150000D01*
X48515000Y-127714250D01*
X48673750Y-127873000D01*
X49873000Y-127873000D01*
X49873000Y-126673750D01*
X50127000Y-126673750D01*
X50127000Y-127873000D01*
X52413000Y-127873000D01*
X52413000Y-126679845D01*
X52183110Y-126558524D01*
X52035901Y-126603175D01*
X51773080Y-126728359D01*
X51539731Y-126902412D01*
X51463966Y-126986466D01*
X51439502Y-126905820D01*
X51380537Y-126795506D01*
X51301185Y-126698815D01*
X51204494Y-126619463D01*
X51094180Y-126560498D01*
X50974482Y-126524188D01*
X50850000Y-126511928D01*
X50285750Y-126515000D01*
X50127000Y-126673750D01*
X49873000Y-126673750D01*
X49714250Y-126515000D01*
X49150000Y-126511928D01*
X49025518Y-126524188D01*
X48905820Y-126560498D01*
X48795506Y-126619463D01*
X48698815Y-126698815D01*
X48619463Y-126795506D01*
X48560498Y-126905820D01*
X48524188Y-127025518D01*
X48511928Y-127150000D01*
X38747990Y-127150000D01*
X38569452Y-126547792D01*
X38217555Y-125879330D01*
X38190548Y-125838912D01*
X37700881Y-125478724D01*
X35179605Y-128000000D01*
X34820395Y-128000000D01*
X32299119Y-125478724D01*
X31809452Y-125838912D01*
X31449151Y-126502882D01*
X31225306Y-127224385D01*
X31146520Y-127975695D01*
X30660000Y-127975695D01*
X30660000Y-125299119D01*
X32478724Y-125299119D01*
X35000000Y-127820395D01*
X37521276Y-125299119D01*
X37161088Y-124809452D01*
X36497118Y-124449151D01*
X35775615Y-124225306D01*
X35024305Y-124146520D01*
X34272062Y-124215822D01*
X33547792Y-124430548D01*
X32879330Y-124782445D01*
X32838912Y-124809452D01*
X32478724Y-125299119D01*
X30660000Y-125299119D01*
X30660000Y-115640000D01*
X48961928Y-115640000D01*
X48961928Y-118040000D01*
X48974188Y-118164482D01*
X49010498Y-118284180D01*
X49069463Y-118394494D01*
X49148815Y-118491185D01*
X49245506Y-118570537D01*
X49355820Y-118629502D01*
X49475518Y-118665812D01*
X49600000Y-118678072D01*
X52000000Y-118678072D01*
X52124482Y-118665812D01*
X52244180Y-118629502D01*
X52354494Y-118570537D01*
X52451185Y-118491185D01*
X52530537Y-118394494D01*
X52589502Y-118284180D01*
X52607454Y-118225000D01*
X55977546Y-118225000D01*
X55995498Y-118284180D01*
X56054463Y-118394494D01*
X56133815Y-118491185D01*
X56230506Y-118570537D01*
X56340820Y-118629502D01*
X56400000Y-118647454D01*
X56400001Y-122157317D01*
X56330506Y-122194463D01*
X56233815Y-122273815D01*
X56154463Y-122370506D01*
X56095498Y-122480820D01*
X56059188Y-122600518D01*
X56046928Y-122725000D01*
X56046928Y-124925000D01*
X56059188Y-125049482D01*
X56095498Y-125169180D01*
X56154463Y-125279494D01*
X56233815Y-125376185D01*
X56330506Y-125455537D01*
X56400000Y-125492683D01*
X56400001Y-126865000D01*
X56045107Y-126865000D01*
X56026632Y-126846525D01*
X55783411Y-126684010D01*
X55513158Y-126572068D01*
X55226260Y-126515000D01*
X54933740Y-126515000D01*
X54646842Y-126572068D01*
X54376589Y-126684010D01*
X54133368Y-126846525D01*
X53926525Y-127053368D01*
X53804805Y-127235534D01*
X53735178Y-127118645D01*
X53540269Y-126902412D01*
X53306920Y-126728359D01*
X53044099Y-126603175D01*
X52896890Y-126558524D01*
X52667000Y-126679845D01*
X52667000Y-127873000D01*
X52687000Y-127873000D01*
X52687000Y-128127000D01*
X52667000Y-128127000D01*
X52667000Y-129320155D01*
X52896890Y-129441476D01*
X53044099Y-129396825D01*
X53306920Y-129271641D01*
X53540269Y-129097588D01*
X53735178Y-128881355D01*
X53804805Y-128764466D01*
X53926525Y-128946632D01*
X54133368Y-129153475D01*
X54376589Y-129315990D01*
X54646842Y-129427932D01*
X54933740Y-129485000D01*
X55226260Y-129485000D01*
X55513158Y-129427932D01*
X55783411Y-129315990D01*
X56026632Y-129153475D01*
X56045107Y-129135000D01*
X56654893Y-129135000D01*
X56673368Y-129153475D01*
X56916589Y-129315990D01*
X57186842Y-129427932D01*
X57473740Y-129485000D01*
X57766260Y-129485000D01*
X58053158Y-129427932D01*
X58323411Y-129315990D01*
X58566632Y-129153475D01*
X58773475Y-128946632D01*
X58935990Y-128703411D01*
X59047932Y-128433158D01*
X59055175Y-128396746D01*
X59070764Y-128367581D01*
X59149960Y-128106507D01*
X59170000Y-127903037D01*
X59170000Y-127903027D01*
X59176700Y-127835001D01*
X59170000Y-127766974D01*
X59170000Y-125492683D01*
X59239494Y-125455537D01*
X59336185Y-125376185D01*
X59415537Y-125279494D01*
X59474502Y-125169180D01*
X59510812Y-125049482D01*
X59523072Y-124925000D01*
X59523072Y-123654117D01*
X66210000Y-123654117D01*
X66210000Y-123995883D01*
X66276675Y-124331081D01*
X66407463Y-124646831D01*
X66597337Y-124930998D01*
X66839002Y-125172663D01*
X67123169Y-125362537D01*
X67438919Y-125493325D01*
X67774117Y-125560000D01*
X68115883Y-125560000D01*
X68451081Y-125493325D01*
X68766831Y-125362537D01*
X69050998Y-125172663D01*
X69292663Y-124930998D01*
X69482537Y-124646831D01*
X69613325Y-124331081D01*
X69666889Y-124061796D01*
X71416235Y-122312450D01*
X71469080Y-122269081D01*
X71642157Y-122058188D01*
X71770764Y-121817581D01*
X71849960Y-121556507D01*
X71870000Y-121353037D01*
X71870000Y-121353028D01*
X71876700Y-121285001D01*
X71870000Y-121216974D01*
X71870000Y-118029974D01*
X71955655Y-118134345D01*
X72184821Y-118322417D01*
X72446275Y-118462166D01*
X72729968Y-118548224D01*
X73025000Y-118577282D01*
X73320031Y-118548224D01*
X73603724Y-118462166D01*
X73865178Y-118322417D01*
X74094345Y-118134345D01*
X74282417Y-117905179D01*
X74295000Y-117881637D01*
X74307583Y-117905178D01*
X74495655Y-118134345D01*
X74680000Y-118285633D01*
X74680001Y-126682597D01*
X74676589Y-126684010D01*
X74433368Y-126846525D01*
X74226525Y-127053368D01*
X74064010Y-127296589D01*
X73952068Y-127566842D01*
X73895000Y-127853740D01*
X73895000Y-128146260D01*
X73952068Y-128433158D01*
X74064010Y-128703411D01*
X74226525Y-128946632D01*
X74433368Y-129153475D01*
X74676589Y-129315990D01*
X74946842Y-129427932D01*
X75233740Y-129485000D01*
X75526260Y-129485000D01*
X75813158Y-129427932D01*
X76083411Y-129315990D01*
X76326632Y-129153475D01*
X76533475Y-128946632D01*
X76650000Y-128772240D01*
X76766525Y-128946632D01*
X76973368Y-129153475D01*
X77216589Y-129315990D01*
X77486842Y-129427932D01*
X77773740Y-129485000D01*
X78066260Y-129485000D01*
X78353158Y-129427932D01*
X78623411Y-129315990D01*
X78866632Y-129153475D01*
X79073475Y-128946632D01*
X79190000Y-128772240D01*
X79306525Y-128946632D01*
X79513368Y-129153475D01*
X79756589Y-129315990D01*
X80026842Y-129427932D01*
X80313740Y-129485000D01*
X80606260Y-129485000D01*
X80893158Y-129427932D01*
X81163411Y-129315990D01*
X81406632Y-129153475D01*
X81538487Y-129021620D01*
X81560498Y-129094180D01*
X81619463Y-129204494D01*
X81698815Y-129301185D01*
X81795506Y-129380537D01*
X81905820Y-129439502D01*
X82025518Y-129475812D01*
X82150000Y-129488072D01*
X83850000Y-129488072D01*
X83974482Y-129475812D01*
X84094180Y-129439502D01*
X84204494Y-129380537D01*
X84301185Y-129301185D01*
X84380537Y-129204494D01*
X84439502Y-129094180D01*
X84475812Y-128974482D01*
X84488072Y-128850000D01*
X84488072Y-127975695D01*
X146146520Y-127975695D01*
X146215822Y-128727938D01*
X146430548Y-129452208D01*
X146782445Y-130120670D01*
X146809452Y-130161088D01*
X147299119Y-130521276D01*
X149820395Y-128000000D01*
X150179605Y-128000000D01*
X152700881Y-130521276D01*
X153190548Y-130161088D01*
X153550849Y-129497118D01*
X153774694Y-128775615D01*
X153853480Y-128024305D01*
X153784178Y-127272062D01*
X153569452Y-126547792D01*
X153217555Y-125879330D01*
X153190548Y-125838912D01*
X152700881Y-125478724D01*
X150179605Y-128000000D01*
X149820395Y-128000000D01*
X147299119Y-125478724D01*
X146809452Y-125838912D01*
X146449151Y-126502882D01*
X146225306Y-127224385D01*
X146146520Y-127975695D01*
X84488072Y-127975695D01*
X84488072Y-127150000D01*
X84475812Y-127025518D01*
X84439502Y-126905820D01*
X84380537Y-126795506D01*
X84301185Y-126698815D01*
X84204494Y-126619463D01*
X84094180Y-126560498D01*
X83974482Y-126524188D01*
X83885000Y-126515375D01*
X83885000Y-125299119D01*
X147478724Y-125299119D01*
X150000000Y-127820395D01*
X152521276Y-125299119D01*
X152161088Y-124809452D01*
X151497118Y-124449151D01*
X150775615Y-124225306D01*
X150024305Y-124146520D01*
X149272062Y-124215822D01*
X148547792Y-124430548D01*
X147879330Y-124782445D01*
X147838912Y-124809452D01*
X147478724Y-125299119D01*
X83885000Y-125299119D01*
X83885000Y-113893469D01*
X83889281Y-113850000D01*
X83885000Y-113806531D01*
X83885000Y-113806523D01*
X83872195Y-113676510D01*
X83821589Y-113509687D01*
X83739411Y-113355941D01*
X83692874Y-113299236D01*
X83656532Y-113254953D01*
X83656530Y-113254951D01*
X83628817Y-113221183D01*
X83595049Y-113193470D01*
X82201534Y-111799956D01*
X82173817Y-111766183D01*
X82039059Y-111655589D01*
X81885313Y-111573411D01*
X81718490Y-111522805D01*
X81588477Y-111510000D01*
X81588469Y-111510000D01*
X81545000Y-111505719D01*
X81501531Y-111510000D01*
X74973469Y-111510000D01*
X74930000Y-111505719D01*
X74886531Y-111510000D01*
X74886523Y-111510000D01*
X74756510Y-111522805D01*
X74589687Y-111573411D01*
X74435941Y-111655589D01*
X74334953Y-111738468D01*
X74334951Y-111738470D01*
X74301183Y-111766183D01*
X74273470Y-111799951D01*
X72429956Y-113643466D01*
X72396183Y-113671183D01*
X72285589Y-113805942D01*
X72203411Y-113959688D01*
X72152805Y-114126511D01*
X72140000Y-114256524D01*
X72140000Y-114256531D01*
X72135719Y-114300000D01*
X72140000Y-114343469D01*
X72140000Y-115394367D01*
X71955655Y-115545655D01*
X71767583Y-115774821D01*
X71755000Y-115798362D01*
X71742417Y-115774821D01*
X71554345Y-115545655D01*
X71325179Y-115357583D01*
X71063725Y-115217834D01*
X70780032Y-115131776D01*
X70485000Y-115102718D01*
X70189969Y-115131776D01*
X69906276Y-115217834D01*
X69644822Y-115357583D01*
X69415655Y-115545655D01*
X69227583Y-115774821D01*
X69212440Y-115803152D01*
X69119708Y-115662567D01*
X68911326Y-115451694D01*
X68665809Y-115285526D01*
X68392591Y-115170449D01*
X68305031Y-115153698D01*
X68072000Y-115274754D01*
X68072000Y-116713000D01*
X68092000Y-116713000D01*
X68092000Y-116967000D01*
X68072000Y-116967000D01*
X68072000Y-118405246D01*
X68305031Y-118526302D01*
X68392591Y-118509551D01*
X68665809Y-118394474D01*
X68911326Y-118228306D01*
X69100001Y-118037376D01*
X69100000Y-120711315D01*
X67708204Y-122103111D01*
X67438919Y-122156675D01*
X67123169Y-122287463D01*
X66839002Y-122477337D01*
X66597337Y-122719002D01*
X66407463Y-123003169D01*
X66276675Y-123318919D01*
X66210000Y-123654117D01*
X59523072Y-123654117D01*
X59523072Y-122725000D01*
X59510812Y-122600518D01*
X59474502Y-122480820D01*
X59415537Y-122370506D01*
X59336185Y-122273815D01*
X59239494Y-122194463D01*
X59170000Y-122157317D01*
X59170000Y-118647454D01*
X59229180Y-118629502D01*
X59339494Y-118570537D01*
X59436185Y-118491185D01*
X59515537Y-118394494D01*
X59574502Y-118284180D01*
X59610812Y-118164482D01*
X59623072Y-118040000D01*
X59623072Y-117204286D01*
X66439123Y-117204286D01*
X66495231Y-117495392D01*
X66607053Y-117769958D01*
X66770292Y-118017433D01*
X66978674Y-118228306D01*
X67224191Y-118394474D01*
X67497409Y-118509551D01*
X67584969Y-118526302D01*
X67818000Y-118405246D01*
X67818000Y-116967000D01*
X66594624Y-116967000D01*
X66439123Y-117204286D01*
X59623072Y-117204286D01*
X59623072Y-116475714D01*
X66439123Y-116475714D01*
X66594624Y-116713000D01*
X67818000Y-116713000D01*
X67818000Y-115274754D01*
X67584969Y-115153698D01*
X67497409Y-115170449D01*
X67224191Y-115285526D01*
X66978674Y-115451694D01*
X66770292Y-115662567D01*
X66607053Y-115910042D01*
X66495231Y-116184608D01*
X66439123Y-116475714D01*
X59623072Y-116475714D01*
X59623072Y-115640000D01*
X59610812Y-115515518D01*
X59574502Y-115395820D01*
X59515537Y-115285506D01*
X59436185Y-115188815D01*
X59339494Y-115109463D01*
X59229180Y-115050498D01*
X59170000Y-115032546D01*
X59170000Y-111503685D01*
X59783686Y-110890000D01*
X95971964Y-110890000D01*
X96040000Y-110896701D01*
X96108037Y-110890000D01*
X110071315Y-110890000D01*
X114697550Y-115516236D01*
X114740919Y-115569081D01*
X114793764Y-115612450D01*
X114793766Y-115612452D01*
X114827334Y-115640000D01*
X114951812Y-115742157D01*
X115164646Y-115855919D01*
X115192419Y-115870764D01*
X115453492Y-115949960D01*
X115476892Y-115952265D01*
X115656963Y-115970000D01*
X115656971Y-115970000D01*
X115725000Y-115976700D01*
X115793029Y-115970000D01*
X134706971Y-115970000D01*
X134775000Y-115976700D01*
X134843029Y-115970000D01*
X134843037Y-115970000D01*
X135046507Y-115949960D01*
X135307581Y-115870764D01*
X135548188Y-115742157D01*
X135759081Y-115569081D01*
X135802454Y-115516231D01*
X143603686Y-107715000D01*
X145350649Y-107715000D01*
X145290241Y-107755363D01*
X145090363Y-107955241D01*
X144933320Y-108190273D01*
X144825147Y-108451426D01*
X144770000Y-108728665D01*
X144770000Y-109011335D01*
X144825147Y-109288574D01*
X144933320Y-109549727D01*
X145090363Y-109784759D01*
X145290241Y-109984637D01*
X145525273Y-110141680D01*
X145786426Y-110249853D01*
X146063665Y-110305000D01*
X146346335Y-110305000D01*
X146623574Y-110249853D01*
X146884727Y-110141680D01*
X147119759Y-109984637D01*
X147319637Y-109784759D01*
X147339521Y-109755000D01*
X148476928Y-109755000D01*
X148476928Y-109770000D01*
X148489188Y-109894482D01*
X148525498Y-110014180D01*
X148584463Y-110124494D01*
X148663815Y-110221185D01*
X148760506Y-110300537D01*
X148870820Y-110359502D01*
X148990518Y-110395812D01*
X149115000Y-110408072D01*
X150915000Y-110408072D01*
X151039482Y-110395812D01*
X151159180Y-110359502D01*
X151269494Y-110300537D01*
X151366185Y-110221185D01*
X151445537Y-110124494D01*
X151504502Y-110014180D01*
X151540812Y-109894482D01*
X151553072Y-109770000D01*
X151553072Y-107970000D01*
X151540812Y-107845518D01*
X151504502Y-107725820D01*
X151445537Y-107615506D01*
X151366185Y-107518815D01*
X151269494Y-107439463D01*
X151159180Y-107380498D01*
X151140873Y-107374944D01*
X151207312Y-107308505D01*
X151375299Y-107057095D01*
X151491011Y-106777743D01*
X151550000Y-106481184D01*
X151550000Y-106178816D01*
X151491011Y-105882257D01*
X151375299Y-105602905D01*
X151207312Y-105351495D01*
X150993505Y-105137688D01*
X150742095Y-104969701D01*
X150462743Y-104853989D01*
X150166184Y-104795000D01*
X149863816Y-104795000D01*
X149567257Y-104853989D01*
X149347538Y-104945000D01*
X144415000Y-104945000D01*
X144415000Y-98825000D01*
X145350649Y-98825000D01*
X145290241Y-98865363D01*
X145090363Y-99065241D01*
X144933320Y-99300273D01*
X144825147Y-99561426D01*
X144770000Y-99838665D01*
X144770000Y-100121335D01*
X144825147Y-100398574D01*
X144933320Y-100659727D01*
X145090363Y-100894759D01*
X145290241Y-101094637D01*
X145525273Y-101251680D01*
X145786426Y-101359853D01*
X146063665Y-101415000D01*
X146346335Y-101415000D01*
X146623574Y-101359853D01*
X146884727Y-101251680D01*
X147119759Y-101094637D01*
X147319637Y-100894759D01*
X147339521Y-100865000D01*
X148476928Y-100865000D01*
X148476928Y-100880000D01*
X148489188Y-101004482D01*
X148525498Y-101124180D01*
X148584463Y-101234494D01*
X148663815Y-101331185D01*
X148760506Y-101410537D01*
X148870820Y-101469502D01*
X148990518Y-101505812D01*
X149115000Y-101518072D01*
X150915000Y-101518072D01*
X151039482Y-101505812D01*
X151159180Y-101469502D01*
X151269494Y-101410537D01*
X151366185Y-101331185D01*
X151445537Y-101234494D01*
X151504502Y-101124180D01*
X151540812Y-101004482D01*
X151553072Y-100880000D01*
X151553072Y-99080000D01*
X151540812Y-98955518D01*
X151504502Y-98835820D01*
X151445537Y-98725506D01*
X151366185Y-98628815D01*
X151269494Y-98549463D01*
X151159180Y-98490498D01*
X151140873Y-98484944D01*
X151207312Y-98418505D01*
X151375299Y-98167095D01*
X151491011Y-97887743D01*
X151550000Y-97591184D01*
X151550000Y-97288816D01*
X151491011Y-96992257D01*
X151375299Y-96712905D01*
X151207312Y-96461495D01*
X150993505Y-96247688D01*
X150742095Y-96079701D01*
X150462743Y-95963989D01*
X150166184Y-95905000D01*
X149863816Y-95905000D01*
X149567257Y-95963989D01*
X149347538Y-96055000D01*
X143733029Y-96055000D01*
X143665000Y-96048300D01*
X143596971Y-96055000D01*
X143596963Y-96055000D01*
X143393493Y-96075040D01*
X143132419Y-96154236D01*
X142891812Y-96282843D01*
X142680919Y-96455919D01*
X142637546Y-96508769D01*
X142098765Y-97047550D01*
X142045920Y-97090919D01*
X142002551Y-97143764D01*
X142002548Y-97143767D01*
X141872844Y-97301812D01*
X141744236Y-97542420D01*
X141665040Y-97803493D01*
X141638300Y-98075000D01*
X141645001Y-98143039D01*
X141645000Y-105756314D01*
X134201315Y-113200000D01*
X116298686Y-113200000D01*
X112925679Y-109826993D01*
X123202612Y-109826993D01*
X123268137Y-110065860D01*
X123515116Y-110181760D01*
X123779960Y-110247250D01*
X124052492Y-110259812D01*
X124322238Y-110218965D01*
X124578832Y-110126277D01*
X124691863Y-110065860D01*
X124757388Y-109826993D01*
X123980000Y-109049605D01*
X123202612Y-109826993D01*
X112925679Y-109826993D01*
X112041178Y-108942492D01*
X122590188Y-108942492D01*
X122631035Y-109212238D01*
X122723723Y-109468832D01*
X122784140Y-109581863D01*
X123023007Y-109647388D01*
X123800395Y-108870000D01*
X124159605Y-108870000D01*
X124936993Y-109647388D01*
X125175860Y-109581863D01*
X125250164Y-109423523D01*
X125292629Y-109526043D01*
X125444201Y-109752886D01*
X125637114Y-109945799D01*
X125863957Y-110097371D01*
X126116011Y-110201775D01*
X126383589Y-110255000D01*
X126656411Y-110255000D01*
X126923989Y-110201775D01*
X127176043Y-110097371D01*
X127402886Y-109945799D01*
X127595799Y-109752886D01*
X127673555Y-109636517D01*
X127684188Y-109744482D01*
X127720498Y-109864180D01*
X127779463Y-109974494D01*
X127858815Y-110071185D01*
X127955506Y-110150537D01*
X128065820Y-110209502D01*
X128185518Y-110245812D01*
X128310000Y-110258072D01*
X129810000Y-110258072D01*
X129934482Y-110245812D01*
X130054180Y-110209502D01*
X130164494Y-110150537D01*
X130261185Y-110071185D01*
X130340537Y-109974494D01*
X130399502Y-109864180D01*
X130432621Y-109755000D01*
X134910479Y-109755000D01*
X134930363Y-109784759D01*
X135130241Y-109984637D01*
X135365273Y-110141680D01*
X135626426Y-110249853D01*
X135903665Y-110305000D01*
X136186335Y-110305000D01*
X136463574Y-110249853D01*
X136724727Y-110141680D01*
X136959759Y-109984637D01*
X137159637Y-109784759D01*
X137316680Y-109549727D01*
X137424853Y-109288574D01*
X137480000Y-109011335D01*
X137480000Y-108728665D01*
X137424853Y-108451426D01*
X137316680Y-108190273D01*
X137159637Y-107955241D01*
X136959759Y-107755363D01*
X136724727Y-107598320D01*
X136463574Y-107490147D01*
X136186335Y-107435000D01*
X135903665Y-107435000D01*
X135626426Y-107490147D01*
X135365273Y-107598320D01*
X135130241Y-107755363D01*
X134930363Y-107955241D01*
X134910479Y-107985000D01*
X130432621Y-107985000D01*
X130399502Y-107875820D01*
X130340537Y-107765506D01*
X130261185Y-107668815D01*
X130164494Y-107589463D01*
X130054180Y-107530498D01*
X129934482Y-107494188D01*
X129810000Y-107481928D01*
X128310000Y-107481928D01*
X128185518Y-107494188D01*
X128065820Y-107530498D01*
X127955506Y-107589463D01*
X127858815Y-107668815D01*
X127779463Y-107765506D01*
X127720498Y-107875820D01*
X127684188Y-107995518D01*
X127673555Y-108103483D01*
X127595799Y-107987114D01*
X127405000Y-107796315D01*
X127405000Y-104924521D01*
X127434759Y-104904637D01*
X127634637Y-104704759D01*
X127791680Y-104469727D01*
X127899853Y-104208574D01*
X127955000Y-103931335D01*
X127955000Y-103648665D01*
X127899853Y-103371426D01*
X127791680Y-103110273D01*
X127634637Y-102875241D01*
X127434759Y-102675363D01*
X127199727Y-102518320D01*
X126938574Y-102410147D01*
X126661335Y-102355000D01*
X126378665Y-102355000D01*
X126101426Y-102410147D01*
X125840273Y-102518320D01*
X125605241Y-102675363D01*
X125405363Y-102875241D01*
X125248320Y-103110273D01*
X125140147Y-103371426D01*
X125085000Y-103648665D01*
X125085000Y-103931335D01*
X125140147Y-104208574D01*
X125248320Y-104469727D01*
X125405363Y-104704759D01*
X125605241Y-104904637D01*
X125635001Y-104924522D01*
X125635000Y-107796315D01*
X125444201Y-107987114D01*
X125292629Y-108213957D01*
X125251489Y-108313279D01*
X125236277Y-108271168D01*
X125175860Y-108158137D01*
X124936993Y-108092612D01*
X124159605Y-108870000D01*
X123800395Y-108870000D01*
X123023007Y-108092612D01*
X122784140Y-108158137D01*
X122668240Y-108405116D01*
X122602750Y-108669960D01*
X122590188Y-108942492D01*
X112041178Y-108942492D01*
X111672454Y-108573769D01*
X111629081Y-108520919D01*
X111418188Y-108347843D01*
X111177581Y-108219236D01*
X110916507Y-108140040D01*
X110713037Y-108120000D01*
X110713029Y-108120000D01*
X110645000Y-108113300D01*
X110576971Y-108120000D01*
X97425000Y-108120000D01*
X97425000Y-107913007D01*
X123202612Y-107913007D01*
X123980000Y-108690395D01*
X124757388Y-107913007D01*
X124691863Y-107674140D01*
X124444884Y-107558240D01*
X124180040Y-107492750D01*
X123907508Y-107480188D01*
X123637762Y-107521035D01*
X123381168Y-107613723D01*
X123268137Y-107674140D01*
X123202612Y-107913007D01*
X97425000Y-107913007D01*
X97425000Y-103648665D01*
X114925000Y-103648665D01*
X114925000Y-103931335D01*
X114980147Y-104208574D01*
X115088320Y-104469727D01*
X115245363Y-104704759D01*
X115445241Y-104904637D01*
X115680273Y-105061680D01*
X115941426Y-105169853D01*
X116218665Y-105225000D01*
X116501335Y-105225000D01*
X116778574Y-105169853D01*
X117039727Y-105061680D01*
X117274759Y-104904637D01*
X117474637Y-104704759D01*
X117631680Y-104469727D01*
X117739853Y-104208574D01*
X117795000Y-103931335D01*
X117795000Y-103648665D01*
X117739853Y-103371426D01*
X117631680Y-103110273D01*
X117474637Y-102875241D01*
X117274759Y-102675363D01*
X117245000Y-102655479D01*
X117245000Y-98396993D01*
X123202612Y-98396993D01*
X123268137Y-98635860D01*
X123515116Y-98751760D01*
X123779960Y-98817250D01*
X124052492Y-98829812D01*
X124322238Y-98788965D01*
X124578832Y-98696277D01*
X124691863Y-98635860D01*
X124757388Y-98396993D01*
X123980000Y-97619605D01*
X123202612Y-98396993D01*
X117245000Y-98396993D01*
X117245000Y-97512492D01*
X122590188Y-97512492D01*
X122631035Y-97782238D01*
X122723723Y-98038832D01*
X122784140Y-98151863D01*
X123023007Y-98217388D01*
X123800395Y-97440000D01*
X124159605Y-97440000D01*
X124936993Y-98217388D01*
X125175860Y-98151863D01*
X125250164Y-97993523D01*
X125292629Y-98096043D01*
X125444201Y-98322886D01*
X125637114Y-98515799D01*
X125863957Y-98667371D01*
X126116011Y-98771775D01*
X126383589Y-98825000D01*
X126656411Y-98825000D01*
X126923989Y-98771775D01*
X127176043Y-98667371D01*
X127402886Y-98515799D01*
X127595799Y-98322886D01*
X127673555Y-98206517D01*
X127684188Y-98314482D01*
X127720498Y-98434180D01*
X127779463Y-98544494D01*
X127858815Y-98641185D01*
X127955506Y-98720537D01*
X128065820Y-98779502D01*
X128185518Y-98815812D01*
X128310000Y-98828072D01*
X129810000Y-98828072D01*
X129934482Y-98815812D01*
X130054180Y-98779502D01*
X130164494Y-98720537D01*
X130261185Y-98641185D01*
X130340537Y-98544494D01*
X130399502Y-98434180D01*
X130432621Y-98325000D01*
X133138422Y-98325000D01*
X134616983Y-99803561D01*
X134610000Y-99838665D01*
X134610000Y-100121335D01*
X134665147Y-100398574D01*
X134773320Y-100659727D01*
X134930363Y-100894759D01*
X135130241Y-101094637D01*
X135365273Y-101251680D01*
X135626426Y-101359853D01*
X135903665Y-101415000D01*
X136186335Y-101415000D01*
X136463574Y-101359853D01*
X136724727Y-101251680D01*
X136959759Y-101094637D01*
X137159637Y-100894759D01*
X137316680Y-100659727D01*
X137424853Y-100398574D01*
X137480000Y-100121335D01*
X137480000Y-99838665D01*
X137424853Y-99561426D01*
X137316680Y-99300273D01*
X137159637Y-99065241D01*
X136959759Y-98865363D01*
X136724727Y-98708320D01*
X136463574Y-98600147D01*
X136186335Y-98545000D01*
X135903665Y-98545000D01*
X135868561Y-98551983D01*
X134161534Y-96844956D01*
X134133817Y-96811183D01*
X133999059Y-96700589D01*
X133845313Y-96618411D01*
X133678490Y-96567805D01*
X133548477Y-96555000D01*
X133548469Y-96555000D01*
X133505000Y-96550719D01*
X133461531Y-96555000D01*
X130432621Y-96555000D01*
X130399502Y-96445820D01*
X130340537Y-96335506D01*
X130261185Y-96238815D01*
X130164494Y-96159463D01*
X130054180Y-96100498D01*
X129934482Y-96064188D01*
X129810000Y-96051928D01*
X128310000Y-96051928D01*
X128185518Y-96064188D01*
X128065820Y-96100498D01*
X127955506Y-96159463D01*
X127858815Y-96238815D01*
X127779463Y-96335506D01*
X127720498Y-96445820D01*
X127684188Y-96565518D01*
X127673555Y-96673483D01*
X127595799Y-96557114D01*
X127405000Y-96366315D01*
X127405000Y-90954521D01*
X127434759Y-90934637D01*
X127634637Y-90734759D01*
X127791680Y-90499727D01*
X127899853Y-90238574D01*
X127955000Y-89961335D01*
X127955000Y-89678665D01*
X135245000Y-89678665D01*
X135245000Y-89961335D01*
X135300147Y-90238574D01*
X135408320Y-90499727D01*
X135565363Y-90734759D01*
X135765241Y-90934637D01*
X136000273Y-91091680D01*
X136261426Y-91199853D01*
X136538665Y-91255000D01*
X136821335Y-91255000D01*
X137098574Y-91199853D01*
X137359727Y-91091680D01*
X137594759Y-90934637D01*
X137794637Y-90734759D01*
X137814521Y-90705000D01*
X142986531Y-90705000D01*
X143030000Y-90709281D01*
X143073469Y-90705000D01*
X143073477Y-90705000D01*
X143203490Y-90692195D01*
X143370313Y-90641589D01*
X143524059Y-90559411D01*
X143590358Y-90505000D01*
X148820344Y-90505000D01*
X148861525Y-90566632D01*
X149068368Y-90773475D01*
X149311589Y-90935990D01*
X149581842Y-91047932D01*
X149868740Y-91105000D01*
X150161260Y-91105000D01*
X150448158Y-91047932D01*
X150718411Y-90935990D01*
X150961632Y-90773475D01*
X151168475Y-90566632D01*
X151330990Y-90323411D01*
X151442932Y-90053158D01*
X151500000Y-89766260D01*
X151500000Y-89473740D01*
X151442932Y-89186842D01*
X151330990Y-88916589D01*
X151168475Y-88673368D01*
X150961632Y-88466525D01*
X150779466Y-88344805D01*
X150896355Y-88275178D01*
X151112588Y-88080269D01*
X151286641Y-87846920D01*
X151411825Y-87584099D01*
X151456476Y-87436890D01*
X151335155Y-87207000D01*
X150142000Y-87207000D01*
X150142000Y-87227000D01*
X149888000Y-87227000D01*
X149888000Y-87207000D01*
X148694845Y-87207000D01*
X148573524Y-87436890D01*
X148618175Y-87584099D01*
X148743359Y-87846920D01*
X148917412Y-88080269D01*
X149133645Y-88275178D01*
X149250534Y-88344805D01*
X149068368Y-88466525D01*
X148861525Y-88673368D01*
X148820344Y-88735000D01*
X143273469Y-88735000D01*
X143230000Y-88730719D01*
X143186531Y-88735000D01*
X143186523Y-88735000D01*
X143056510Y-88747805D01*
X142889687Y-88798411D01*
X142735941Y-88880589D01*
X142669642Y-88935000D01*
X137814521Y-88935000D01*
X137794637Y-88905241D01*
X137594759Y-88705363D01*
X137359727Y-88548320D01*
X137098574Y-88440147D01*
X136821335Y-88385000D01*
X136538665Y-88385000D01*
X136261426Y-88440147D01*
X136000273Y-88548320D01*
X135765241Y-88705363D01*
X135565363Y-88905241D01*
X135408320Y-89140273D01*
X135300147Y-89401426D01*
X135245000Y-89678665D01*
X127955000Y-89678665D01*
X127899853Y-89401426D01*
X127791680Y-89140273D01*
X127634637Y-88905241D01*
X127434759Y-88705363D01*
X127199727Y-88548320D01*
X126938574Y-88440147D01*
X126661335Y-88385000D01*
X126378665Y-88385000D01*
X126101426Y-88440147D01*
X125840273Y-88548320D01*
X125605241Y-88705363D01*
X125405363Y-88905241D01*
X125248320Y-89140273D01*
X125140147Y-89401426D01*
X125085000Y-89678665D01*
X125085000Y-89961335D01*
X125140147Y-90238574D01*
X125248320Y-90499727D01*
X125405363Y-90734759D01*
X125605241Y-90934637D01*
X125635000Y-90954522D01*
X125635001Y-92316514D01*
X125635000Y-92316524D01*
X125635001Y-96366314D01*
X125444201Y-96557114D01*
X125292629Y-96783957D01*
X125251489Y-96883279D01*
X125236277Y-96841168D01*
X125175860Y-96728137D01*
X124936993Y-96662612D01*
X124159605Y-97440000D01*
X123800395Y-97440000D01*
X123023007Y-96662612D01*
X122784140Y-96728137D01*
X122668240Y-96975116D01*
X122602750Y-97239960D01*
X122590188Y-97512492D01*
X117245000Y-97512492D01*
X117245000Y-96483007D01*
X123202612Y-96483007D01*
X123980000Y-97260395D01*
X124757388Y-96483007D01*
X124691863Y-96244140D01*
X124444884Y-96128240D01*
X124180040Y-96062750D01*
X123907508Y-96050188D01*
X123637762Y-96091035D01*
X123381168Y-96183723D01*
X123268137Y-96244140D01*
X123202612Y-96483007D01*
X117245000Y-96483007D01*
X117245000Y-94631578D01*
X126979688Y-84896890D01*
X148573524Y-84896890D01*
X148618175Y-85044099D01*
X148743359Y-85306920D01*
X148917412Y-85540269D01*
X149133645Y-85735178D01*
X149259255Y-85810000D01*
X149133645Y-85884822D01*
X148917412Y-86079731D01*
X148743359Y-86313080D01*
X148618175Y-86575901D01*
X148573524Y-86723110D01*
X148694845Y-86953000D01*
X149888000Y-86953000D01*
X149888000Y-84667000D01*
X150142000Y-84667000D01*
X150142000Y-86953000D01*
X151335155Y-86953000D01*
X151456476Y-86723110D01*
X151411825Y-86575901D01*
X151286641Y-86313080D01*
X151112588Y-86079731D01*
X150896355Y-85884822D01*
X150770745Y-85810000D01*
X150896355Y-85735178D01*
X151112588Y-85540269D01*
X151286641Y-85306920D01*
X151411825Y-85044099D01*
X151456476Y-84896890D01*
X151335155Y-84667000D01*
X150142000Y-84667000D01*
X149888000Y-84667000D01*
X148694845Y-84667000D01*
X148573524Y-84896890D01*
X126979688Y-84896890D01*
X128991579Y-82885000D01*
X148530375Y-82885000D01*
X148539188Y-82974482D01*
X148575498Y-83094180D01*
X148634463Y-83204494D01*
X148713815Y-83301185D01*
X148810506Y-83380537D01*
X148920820Y-83439502D01*
X149001466Y-83463966D01*
X148917412Y-83539731D01*
X148743359Y-83773080D01*
X148618175Y-84035901D01*
X148573524Y-84183110D01*
X148694845Y-84413000D01*
X149888000Y-84413000D01*
X149888000Y-84393000D01*
X150142000Y-84393000D01*
X150142000Y-84413000D01*
X151335155Y-84413000D01*
X151456476Y-84183110D01*
X151411825Y-84035901D01*
X151286641Y-83773080D01*
X151112588Y-83539731D01*
X151028534Y-83463966D01*
X151109180Y-83439502D01*
X151219494Y-83380537D01*
X151316185Y-83301185D01*
X151395537Y-83204494D01*
X151454502Y-83094180D01*
X151490812Y-82974482D01*
X151503072Y-82850000D01*
X151503072Y-81150000D01*
X151490812Y-81025518D01*
X151454502Y-80905820D01*
X151395537Y-80795506D01*
X151316185Y-80698815D01*
X151219494Y-80619463D01*
X151109180Y-80560498D01*
X150989482Y-80524188D01*
X150865000Y-80511928D01*
X149165000Y-80511928D01*
X149040518Y-80524188D01*
X148920820Y-80560498D01*
X148810506Y-80619463D01*
X148713815Y-80698815D01*
X148634463Y-80795506D01*
X148575498Y-80905820D01*
X148539188Y-81025518D01*
X148530375Y-81115000D01*
X128668465Y-81115000D01*
X128624999Y-81110719D01*
X128581533Y-81115000D01*
X128581523Y-81115000D01*
X128451510Y-81127805D01*
X128284687Y-81178411D01*
X128130941Y-81260589D01*
X128130939Y-81260590D01*
X128130940Y-81260590D01*
X128029953Y-81343468D01*
X128029951Y-81343470D01*
X127996183Y-81371183D01*
X127968470Y-81404951D01*
X115764956Y-93608466D01*
X115731183Y-93636183D01*
X115620589Y-93770942D01*
X115538411Y-93924688D01*
X115487805Y-94091511D01*
X115475000Y-94221524D01*
X115475000Y-94221531D01*
X115470719Y-94265000D01*
X115475000Y-94308469D01*
X115475001Y-102655478D01*
X115445241Y-102675363D01*
X115245363Y-102875241D01*
X115088320Y-103110273D01*
X114980147Y-103371426D01*
X114925000Y-103648665D01*
X97425000Y-103648665D01*
X97425000Y-64102702D01*
X109831903Y-64102702D01*
X109903486Y-64346671D01*
X110158996Y-64467571D01*
X110433184Y-64536300D01*
X110715512Y-64550217D01*
X110995130Y-64508787D01*
X111261292Y-64413603D01*
X111386514Y-64346671D01*
X111458097Y-64102702D01*
X110645000Y-63289605D01*
X109831903Y-64102702D01*
X97425000Y-64102702D01*
X97425000Y-63180512D01*
X109204783Y-63180512D01*
X109246213Y-63460130D01*
X109341397Y-63726292D01*
X109408329Y-63851514D01*
X109652298Y-63923097D01*
X110465395Y-63110000D01*
X110824605Y-63110000D01*
X111637702Y-63923097D01*
X111881671Y-63851514D01*
X112002571Y-63596004D01*
X112071300Y-63321816D01*
X112085217Y-63039488D01*
X112043787Y-62759870D01*
X111948603Y-62493708D01*
X111881671Y-62368486D01*
X111637702Y-62296903D01*
X110824605Y-63110000D01*
X110465395Y-63110000D01*
X109652298Y-62296903D01*
X109408329Y-62368486D01*
X109287429Y-62623996D01*
X109218700Y-62898184D01*
X109204783Y-63180512D01*
X97425000Y-63180512D01*
X97425000Y-38958685D01*
X99653686Y-36730000D01*
X119731315Y-36730000D01*
X121318242Y-38316928D01*
X120180000Y-38316928D01*
X120055518Y-38329188D01*
X119935820Y-38365498D01*
X119825506Y-38424463D01*
X119728815Y-38503815D01*
X119649463Y-38600506D01*
X119590498Y-38710820D01*
X119554188Y-38830518D01*
X119541928Y-38955000D01*
X119541928Y-40555000D01*
X119554188Y-40679482D01*
X119590498Y-40799180D01*
X119649463Y-40909494D01*
X119728815Y-41006185D01*
X119825506Y-41085537D01*
X119935820Y-41144502D01*
X120055518Y-41180812D01*
X120095000Y-41184701D01*
X120095001Y-45463420D01*
X119068072Y-46490349D01*
X119068072Y-45840000D01*
X119055812Y-45715518D01*
X119019502Y-45595820D01*
X118960537Y-45485506D01*
X118881185Y-45388815D01*
X118784494Y-45309463D01*
X118674180Y-45250498D01*
X118554482Y-45214188D01*
X118430000Y-45201928D01*
X116830000Y-45201928D01*
X116705518Y-45214188D01*
X116585820Y-45250498D01*
X116475506Y-45309463D01*
X116378815Y-45388815D01*
X116299463Y-45485506D01*
X116240498Y-45595820D01*
X116204188Y-45715518D01*
X116200299Y-45755000D01*
X115133469Y-45755000D01*
X115090000Y-45750719D01*
X115046531Y-45755000D01*
X115046523Y-45755000D01*
X114916510Y-45767805D01*
X114749687Y-45818411D01*
X114659136Y-45866811D01*
X114595941Y-45900589D01*
X114494953Y-45983468D01*
X114494951Y-45983470D01*
X114461183Y-46011183D01*
X114433470Y-46044951D01*
X113413422Y-47065000D01*
X112074701Y-47065000D01*
X112070812Y-47025518D01*
X112034502Y-46905820D01*
X111975537Y-46795506D01*
X111896185Y-46698815D01*
X111799494Y-46619463D01*
X111689180Y-46560498D01*
X111569482Y-46524188D01*
X111445000Y-46511928D01*
X109845000Y-46511928D01*
X109720518Y-46524188D01*
X109600820Y-46560498D01*
X109490506Y-46619463D01*
X109393815Y-46698815D01*
X109314463Y-46795506D01*
X109255498Y-46905820D01*
X109219188Y-47025518D01*
X109206928Y-47150000D01*
X109206928Y-48750000D01*
X109219188Y-48874482D01*
X109255498Y-48994180D01*
X109314463Y-49104494D01*
X109393815Y-49201185D01*
X109490506Y-49280537D01*
X109600820Y-49339502D01*
X109696943Y-49368661D01*
X109530363Y-49535241D01*
X109373320Y-49770273D01*
X109265147Y-50031426D01*
X109210000Y-50308665D01*
X109210000Y-50591335D01*
X109265147Y-50868574D01*
X109373320Y-51129727D01*
X109530363Y-51364759D01*
X109730241Y-51564637D01*
X109965273Y-51721680D01*
X110226426Y-51829853D01*
X110503665Y-51885000D01*
X110786335Y-51885000D01*
X111063574Y-51829853D01*
X111324727Y-51721680D01*
X111559759Y-51564637D01*
X111759637Y-51364759D01*
X111779521Y-51335000D01*
X114088422Y-51335000D01*
X115068470Y-52315049D01*
X115096183Y-52348817D01*
X115129951Y-52376530D01*
X115129953Y-52376532D01*
X115187865Y-52424059D01*
X115230941Y-52459411D01*
X115384687Y-52541589D01*
X115551510Y-52592195D01*
X115681523Y-52605000D01*
X115681533Y-52605000D01*
X115724999Y-52609281D01*
X115768465Y-52605000D01*
X116495479Y-52605000D01*
X116515363Y-52634759D01*
X116715241Y-52834637D01*
X116947759Y-52990000D01*
X116715241Y-53145363D01*
X116515363Y-53345241D01*
X116495479Y-53375000D01*
X112074701Y-53375000D01*
X112070812Y-53335518D01*
X112034502Y-53215820D01*
X111975537Y-53105506D01*
X111896185Y-53008815D01*
X111799494Y-52929463D01*
X111689180Y-52870498D01*
X111569482Y-52834188D01*
X111445000Y-52821928D01*
X109845000Y-52821928D01*
X109720518Y-52834188D01*
X109600820Y-52870498D01*
X109490506Y-52929463D01*
X109393815Y-53008815D01*
X109314463Y-53105506D01*
X109255498Y-53215820D01*
X109219188Y-53335518D01*
X109206928Y-53460000D01*
X109206928Y-55060000D01*
X109219188Y-55184482D01*
X109255498Y-55304180D01*
X109314463Y-55414494D01*
X109393815Y-55511185D01*
X109490506Y-55590537D01*
X109600820Y-55649502D01*
X109696943Y-55678661D01*
X109530363Y-55845241D01*
X109373320Y-56080273D01*
X109265147Y-56341426D01*
X109210000Y-56618665D01*
X109210000Y-56901335D01*
X109265147Y-57178574D01*
X109373320Y-57439727D01*
X109530363Y-57674759D01*
X109730241Y-57874637D01*
X109965273Y-58031680D01*
X110226426Y-58139853D01*
X110503665Y-58195000D01*
X110786335Y-58195000D01*
X111063574Y-58139853D01*
X111324727Y-58031680D01*
X111559759Y-57874637D01*
X111759637Y-57674759D01*
X111779521Y-57645000D01*
X116468752Y-57645000D01*
X116515363Y-57714759D01*
X116715241Y-57914637D01*
X116947759Y-58070000D01*
X116715241Y-58225363D01*
X116515363Y-58425241D01*
X116495479Y-58455000D01*
X115133465Y-58455000D01*
X115089999Y-58450719D01*
X115046533Y-58455000D01*
X115046523Y-58455000D01*
X114916510Y-58467805D01*
X114749687Y-58518411D01*
X114595941Y-58600589D01*
X114595939Y-58600590D01*
X114595940Y-58600590D01*
X114494953Y-58683468D01*
X114494951Y-58683470D01*
X114461183Y-58711183D01*
X114433470Y-58744951D01*
X113453422Y-59725000D01*
X112074701Y-59725000D01*
X112070812Y-59685518D01*
X112034502Y-59565820D01*
X111975537Y-59455506D01*
X111896185Y-59358815D01*
X111799494Y-59279463D01*
X111689180Y-59220498D01*
X111569482Y-59184188D01*
X111445000Y-59171928D01*
X109845000Y-59171928D01*
X109720518Y-59184188D01*
X109600820Y-59220498D01*
X109490506Y-59279463D01*
X109393815Y-59358815D01*
X109314463Y-59455506D01*
X109255498Y-59565820D01*
X109219188Y-59685518D01*
X109206928Y-59810000D01*
X109206928Y-61410000D01*
X109219188Y-61534482D01*
X109255498Y-61654180D01*
X109314463Y-61764494D01*
X109393815Y-61861185D01*
X109490506Y-61940537D01*
X109600820Y-61999502D01*
X109720518Y-62035812D01*
X109845000Y-62048072D01*
X109852215Y-62048072D01*
X109831903Y-62117298D01*
X110645000Y-62930395D01*
X111458097Y-62117298D01*
X111437785Y-62048072D01*
X111445000Y-62048072D01*
X111569482Y-62035812D01*
X111689180Y-61999502D01*
X111799494Y-61940537D01*
X111896185Y-61861185D01*
X111975537Y-61764494D01*
X112034502Y-61654180D01*
X112070812Y-61534482D01*
X112074701Y-61495000D01*
X113588421Y-61495000D01*
X113224951Y-61858471D01*
X113191184Y-61886183D01*
X113163471Y-61919951D01*
X113163468Y-61919954D01*
X113080590Y-62020941D01*
X112998412Y-62174687D01*
X112947805Y-62341510D01*
X112930719Y-62515000D01*
X112935001Y-62558479D01*
X112935000Y-65011531D01*
X112930719Y-65055000D01*
X112935000Y-65098469D01*
X112935000Y-65098476D01*
X112946212Y-65212314D01*
X112947805Y-65228490D01*
X112963157Y-65279096D01*
X112998411Y-65395312D01*
X113080589Y-65549058D01*
X113191183Y-65683817D01*
X113224956Y-65711534D01*
X115068470Y-67555049D01*
X115096183Y-67588817D01*
X115129951Y-67616530D01*
X115129953Y-67616532D01*
X115230940Y-67699410D01*
X115230941Y-67699411D01*
X115384687Y-67781589D01*
X115551510Y-67832195D01*
X115681523Y-67845000D01*
X115681531Y-67845000D01*
X115725000Y-67849281D01*
X115768469Y-67845000D01*
X131556531Y-67845000D01*
X131600000Y-67849281D01*
X131643469Y-67845000D01*
X131643477Y-67845000D01*
X131773490Y-67832195D01*
X131940313Y-67781589D01*
X132094059Y-67699411D01*
X132228817Y-67588817D01*
X132256534Y-67555044D01*
X135561580Y-64249999D01*
X145056612Y-64249999D01*
X144844893Y-64566859D01*
X144646261Y-65046399D01*
X144545000Y-65555475D01*
X144545000Y-66074525D01*
X144646261Y-66583601D01*
X144844893Y-67063141D01*
X145133262Y-67494715D01*
X145500285Y-67861738D01*
X145931859Y-68150107D01*
X146411399Y-68348739D01*
X146920475Y-68450000D01*
X147439525Y-68450000D01*
X147948601Y-68348739D01*
X148428141Y-68150107D01*
X148859715Y-67861738D01*
X149226738Y-67494715D01*
X149515107Y-67063141D01*
X149713739Y-66583601D01*
X149815000Y-66074525D01*
X149815000Y-65555475D01*
X149713739Y-65046399D01*
X149515107Y-64566859D01*
X149303388Y-64249999D01*
X150391532Y-64249999D01*
X150435001Y-64254280D01*
X150478470Y-64249999D01*
X150478478Y-64249999D01*
X150608491Y-64237194D01*
X150775314Y-64186588D01*
X150929060Y-64104410D01*
X151063818Y-63993816D01*
X151091535Y-63960043D01*
X153150049Y-61901530D01*
X153183817Y-61873817D01*
X153294411Y-61739059D01*
X153376589Y-61585313D01*
X153427195Y-61418490D01*
X153440000Y-61288477D01*
X153440000Y-61288467D01*
X153444281Y-61245001D01*
X153440000Y-61201535D01*
X153440000Y-53033465D01*
X153444281Y-52989999D01*
X153440000Y-52946533D01*
X153440000Y-52946523D01*
X153427195Y-52816510D01*
X153376589Y-52649687D01*
X153294411Y-52495941D01*
X153240294Y-52430000D01*
X153211532Y-52394953D01*
X153211530Y-52394951D01*
X153183817Y-52361183D01*
X153150050Y-52333471D01*
X152151534Y-51334956D01*
X152123817Y-51301183D01*
X151989059Y-51190589D01*
X151835313Y-51108411D01*
X151668490Y-51057805D01*
X151538477Y-51045000D01*
X151538469Y-51045000D01*
X151495000Y-51040719D01*
X151451531Y-51045000D01*
X150854521Y-51045000D01*
X150834637Y-51015241D01*
X150634759Y-50815363D01*
X150399727Y-50658320D01*
X150138574Y-50550147D01*
X150112699Y-50545000D01*
X150138574Y-50539853D01*
X150399727Y-50431680D01*
X150634759Y-50274637D01*
X150834637Y-50074759D01*
X150991680Y-49839727D01*
X151099853Y-49578574D01*
X151155000Y-49301335D01*
X151155000Y-49018665D01*
X151099853Y-48741426D01*
X150991680Y-48480273D01*
X150834637Y-48245241D01*
X150634759Y-48045363D01*
X150399727Y-47888320D01*
X150138574Y-47780147D01*
X149861335Y-47725000D01*
X149578665Y-47725000D01*
X149301426Y-47780147D01*
X149040273Y-47888320D01*
X148805241Y-48045363D01*
X148605363Y-48245241D01*
X148448320Y-48480273D01*
X148340147Y-48741426D01*
X148285000Y-49018665D01*
X148285000Y-49301335D01*
X148340147Y-49578574D01*
X148448320Y-49839727D01*
X148605363Y-50074759D01*
X148805241Y-50274637D01*
X149040273Y-50431680D01*
X149301426Y-50539853D01*
X149327301Y-50545000D01*
X149301426Y-50550147D01*
X149040273Y-50658320D01*
X148805241Y-50815363D01*
X148605363Y-51015241D01*
X148448320Y-51250273D01*
X148340147Y-51511426D01*
X148285000Y-51788665D01*
X148285000Y-52071335D01*
X148340147Y-52348574D01*
X148448320Y-52609727D01*
X148605363Y-52844759D01*
X148805241Y-53044637D01*
X149040273Y-53201680D01*
X149301426Y-53309853D01*
X149327301Y-53315000D01*
X149301426Y-53320147D01*
X149040273Y-53428320D01*
X148805241Y-53585363D01*
X148605363Y-53785241D01*
X148448320Y-54020273D01*
X148340147Y-54281426D01*
X148285000Y-54558665D01*
X148285000Y-54841335D01*
X148340147Y-55118574D01*
X148448320Y-55379727D01*
X148605363Y-55614759D01*
X148805241Y-55814637D01*
X149040273Y-55971680D01*
X149301426Y-56079853D01*
X149327301Y-56085000D01*
X149301426Y-56090147D01*
X149040273Y-56198320D01*
X148805241Y-56355363D01*
X148605363Y-56555241D01*
X148448320Y-56790273D01*
X148340147Y-57051426D01*
X148285000Y-57328665D01*
X148285000Y-57611335D01*
X148340147Y-57888574D01*
X148448320Y-58149727D01*
X148605363Y-58384759D01*
X148805241Y-58584637D01*
X149040273Y-58741680D01*
X149301426Y-58849853D01*
X149578665Y-58905000D01*
X149861335Y-58905000D01*
X150138574Y-58849853D01*
X150399727Y-58741680D01*
X150400001Y-58741497D01*
X150400001Y-59919457D01*
X149959459Y-60360000D01*
X134183469Y-60360000D01*
X134140000Y-60355719D01*
X134096531Y-60360000D01*
X134096523Y-60360000D01*
X133981306Y-60371348D01*
X133966509Y-60372805D01*
X133915903Y-60388157D01*
X133799687Y-60423411D01*
X133645941Y-60505589D01*
X133645939Y-60505590D01*
X133645940Y-60505590D01*
X133544953Y-60588468D01*
X133544951Y-60588470D01*
X133511183Y-60616183D01*
X133483470Y-60649951D01*
X131888421Y-62245001D01*
X126640509Y-62245001D01*
X126685000Y-62021335D01*
X126685000Y-61738665D01*
X126629853Y-61461426D01*
X126521680Y-61200273D01*
X126364637Y-60965241D01*
X126164759Y-60765363D01*
X125932241Y-60610000D01*
X126164759Y-60454637D01*
X126364637Y-60254759D01*
X126521680Y-60019727D01*
X126629853Y-59758574D01*
X126685000Y-59481335D01*
X126685000Y-59198665D01*
X126629853Y-58921426D01*
X126521680Y-58660273D01*
X126364637Y-58425241D01*
X126164759Y-58225363D01*
X125932241Y-58070000D01*
X126164759Y-57914637D01*
X126364637Y-57714759D01*
X126521680Y-57479727D01*
X126629853Y-57218574D01*
X126685000Y-56941335D01*
X126685000Y-56658665D01*
X126629853Y-56381426D01*
X126521680Y-56120273D01*
X126364637Y-55885241D01*
X126164759Y-55685363D01*
X125932241Y-55530000D01*
X126164759Y-55374637D01*
X126364637Y-55174759D01*
X126384521Y-55145000D01*
X141393422Y-55145000D01*
X142928470Y-56680049D01*
X142956183Y-56713817D01*
X142989951Y-56741530D01*
X142989953Y-56741532D01*
X143018216Y-56764727D01*
X143090941Y-56824411D01*
X143244687Y-56906589D01*
X143411510Y-56957195D01*
X143541523Y-56970000D01*
X143541531Y-56970000D01*
X143585000Y-56974281D01*
X143628469Y-56970000D01*
X145745479Y-56970000D01*
X145765363Y-56999759D01*
X145965241Y-57199637D01*
X146200273Y-57356680D01*
X146345725Y-57416928D01*
X146080000Y-57416928D01*
X145955518Y-57429188D01*
X145835820Y-57465498D01*
X145725506Y-57524463D01*
X145628815Y-57603815D01*
X145549463Y-57700506D01*
X145490498Y-57810820D01*
X145454188Y-57930518D01*
X145441928Y-58055000D01*
X145441928Y-59655000D01*
X145454188Y-59779482D01*
X145490498Y-59899180D01*
X145549463Y-60009494D01*
X145628815Y-60106185D01*
X145725506Y-60185537D01*
X145835820Y-60244502D01*
X145955518Y-60280812D01*
X146080000Y-60293072D01*
X147680000Y-60293072D01*
X147804482Y-60280812D01*
X147924180Y-60244502D01*
X148034494Y-60185537D01*
X148131185Y-60106185D01*
X148210537Y-60009494D01*
X148269502Y-59899180D01*
X148305812Y-59779482D01*
X148318072Y-59655000D01*
X148318072Y-58055000D01*
X148305812Y-57930518D01*
X148269502Y-57810820D01*
X148210537Y-57700506D01*
X148131185Y-57603815D01*
X148034494Y-57524463D01*
X147924180Y-57465498D01*
X147804482Y-57429188D01*
X147680000Y-57416928D01*
X147414275Y-57416928D01*
X147559727Y-57356680D01*
X147794759Y-57199637D01*
X147994637Y-56999759D01*
X148151680Y-56764727D01*
X148259853Y-56503574D01*
X148315000Y-56226335D01*
X148315000Y-55943665D01*
X148259853Y-55666426D01*
X148151680Y-55405273D01*
X147994637Y-55170241D01*
X147794759Y-54970363D01*
X147559727Y-54813320D01*
X147298574Y-54705147D01*
X147272699Y-54700000D01*
X147298574Y-54694853D01*
X147559727Y-54586680D01*
X147794759Y-54429637D01*
X147994637Y-54229759D01*
X148151680Y-53994727D01*
X148259853Y-53733574D01*
X148315000Y-53456335D01*
X148315000Y-53173665D01*
X148259853Y-52896426D01*
X148151680Y-52635273D01*
X147994637Y-52400241D01*
X147794759Y-52200363D01*
X147559727Y-52043320D01*
X147298574Y-51935147D01*
X147272699Y-51930000D01*
X147298574Y-51924853D01*
X147559727Y-51816680D01*
X147794759Y-51659637D01*
X147994637Y-51459759D01*
X148151680Y-51224727D01*
X148259853Y-50963574D01*
X148315000Y-50686335D01*
X148315000Y-50403665D01*
X148259853Y-50126426D01*
X148151680Y-49865273D01*
X147994637Y-49630241D01*
X147794759Y-49430363D01*
X147559727Y-49273320D01*
X147298574Y-49165147D01*
X147270118Y-49159487D01*
X147496292Y-49078603D01*
X147621514Y-49011671D01*
X147693097Y-48767702D01*
X146880000Y-47954605D01*
X146066903Y-48767702D01*
X146138486Y-49011671D01*
X146393996Y-49132571D01*
X146496289Y-49158212D01*
X146461426Y-49165147D01*
X146200273Y-49273320D01*
X145965241Y-49430363D01*
X145765363Y-49630241D01*
X145608320Y-49865273D01*
X145500147Y-50126426D01*
X145445000Y-50403665D01*
X145445000Y-50686335D01*
X145500147Y-50963574D01*
X145608320Y-51224727D01*
X145765363Y-51459759D01*
X145965241Y-51659637D01*
X146200273Y-51816680D01*
X146461426Y-51924853D01*
X146487301Y-51930000D01*
X146461426Y-51935147D01*
X146200273Y-52043320D01*
X145965241Y-52200363D01*
X145765363Y-52400241D01*
X145745479Y-52430000D01*
X143721579Y-52430000D01*
X142416534Y-51124956D01*
X142388817Y-51091183D01*
X142254059Y-50980589D01*
X142100313Y-50898411D01*
X141933490Y-50847805D01*
X141803477Y-50835000D01*
X141803469Y-50835000D01*
X141760000Y-50830719D01*
X141716531Y-50835000D01*
X126384521Y-50835000D01*
X126364637Y-50805241D01*
X126164759Y-50605363D01*
X125929727Y-50448320D01*
X125919135Y-50443933D01*
X126105131Y-50332385D01*
X126313519Y-50143414D01*
X126481037Y-49917420D01*
X126601246Y-49663087D01*
X126641904Y-49529039D01*
X126519915Y-49307000D01*
X125377000Y-49307000D01*
X125377000Y-49327000D01*
X125123000Y-49327000D01*
X125123000Y-49307000D01*
X123980085Y-49307000D01*
X123858096Y-49529039D01*
X123898754Y-49663087D01*
X124018963Y-49917420D01*
X124186481Y-50143414D01*
X124394869Y-50332385D01*
X124580865Y-50443933D01*
X124570273Y-50448320D01*
X124335241Y-50605363D01*
X124135363Y-50805241D01*
X123978320Y-51040273D01*
X123870147Y-51301426D01*
X123815000Y-51578665D01*
X123815000Y-51861335D01*
X123870147Y-52138574D01*
X123978320Y-52399727D01*
X124135363Y-52634759D01*
X124335241Y-52834637D01*
X124567759Y-52990000D01*
X124335241Y-53145363D01*
X124135363Y-53345241D01*
X123978320Y-53580273D01*
X123870147Y-53841426D01*
X123815000Y-54118665D01*
X123815000Y-54401335D01*
X123870147Y-54678574D01*
X123978320Y-54939727D01*
X124135363Y-55174759D01*
X124335241Y-55374637D01*
X124567759Y-55530000D01*
X124335241Y-55685363D01*
X124135363Y-55885241D01*
X123978320Y-56120273D01*
X123870147Y-56381426D01*
X123815000Y-56658665D01*
X123815000Y-56941335D01*
X123870147Y-57218574D01*
X123978320Y-57479727D01*
X124135363Y-57714759D01*
X124335241Y-57914637D01*
X124567759Y-58070000D01*
X124335241Y-58225363D01*
X124135363Y-58425241D01*
X123978320Y-58660273D01*
X123870147Y-58921426D01*
X123815000Y-59198665D01*
X123815000Y-59481335D01*
X123870147Y-59758574D01*
X123978320Y-60019727D01*
X124135363Y-60254759D01*
X124335241Y-60454637D01*
X124567759Y-60610000D01*
X124335241Y-60765363D01*
X124135363Y-60965241D01*
X123978320Y-61200273D01*
X123870147Y-61461426D01*
X123815000Y-61738665D01*
X123815000Y-62021335D01*
X123859491Y-62245001D01*
X119020509Y-62245001D01*
X119065000Y-62021335D01*
X119065000Y-61738665D01*
X119009853Y-61461426D01*
X118901680Y-61200273D01*
X118744637Y-60965241D01*
X118544759Y-60765363D01*
X118312241Y-60610000D01*
X118544759Y-60454637D01*
X118744637Y-60254759D01*
X118901680Y-60019727D01*
X119009853Y-59758574D01*
X119065000Y-59481335D01*
X119065000Y-59198665D01*
X119009853Y-58921426D01*
X118901680Y-58660273D01*
X118744637Y-58425241D01*
X118544759Y-58225363D01*
X118312241Y-58070000D01*
X118544759Y-57914637D01*
X118744637Y-57714759D01*
X118901680Y-57479727D01*
X119009853Y-57218574D01*
X119065000Y-56941335D01*
X119065000Y-56658665D01*
X119009853Y-56381426D01*
X118901680Y-56120273D01*
X118744637Y-55885241D01*
X118544759Y-55685363D01*
X118312241Y-55530000D01*
X118544759Y-55374637D01*
X118744637Y-55174759D01*
X118901680Y-54939727D01*
X119009853Y-54678574D01*
X119065000Y-54401335D01*
X119065000Y-54118665D01*
X119009853Y-53841426D01*
X118901680Y-53580273D01*
X118744637Y-53345241D01*
X118544759Y-53145363D01*
X118312241Y-52990000D01*
X118544759Y-52834637D01*
X118744637Y-52634759D01*
X118901680Y-52399727D01*
X119009853Y-52138574D01*
X119065000Y-51861335D01*
X119065000Y-51578665D01*
X119009853Y-51301426D01*
X118901680Y-51040273D01*
X118744637Y-50805241D01*
X118544759Y-50605363D01*
X118312241Y-50450000D01*
X118544759Y-50294637D01*
X118744637Y-50094759D01*
X118901680Y-49859727D01*
X119009853Y-49598574D01*
X119065000Y-49321335D01*
X119065000Y-49038665D01*
X119058017Y-49003561D01*
X121575049Y-46486530D01*
X121608817Y-46458817D01*
X121682946Y-46368492D01*
X121719410Y-46324060D01*
X121719411Y-46324059D01*
X121801589Y-46170313D01*
X121852195Y-46003490D01*
X121865000Y-45873477D01*
X121865000Y-45873467D01*
X121869281Y-45830001D01*
X121865000Y-45786535D01*
X121865000Y-41184701D01*
X121904482Y-41180812D01*
X122024180Y-41144502D01*
X122095000Y-41106647D01*
X122095001Y-44801961D01*
X122088300Y-44870000D01*
X122115040Y-45141507D01*
X122194236Y-45402580D01*
X122322844Y-45643188D01*
X122452548Y-45801233D01*
X122452551Y-45801236D01*
X122495920Y-45854081D01*
X122548764Y-45897449D01*
X123992977Y-47341663D01*
X124135363Y-47554759D01*
X124335241Y-47754637D01*
X124570273Y-47911680D01*
X124580865Y-47916067D01*
X124394869Y-48027615D01*
X124186481Y-48216586D01*
X124018963Y-48442580D01*
X123898754Y-48696913D01*
X123858096Y-48830961D01*
X123980085Y-49053000D01*
X125123000Y-49053000D01*
X125123000Y-49033000D01*
X125377000Y-49033000D01*
X125377000Y-49053000D01*
X126519915Y-49053000D01*
X126641904Y-48830961D01*
X126601246Y-48696913D01*
X126481037Y-48442580D01*
X126313519Y-48216586D01*
X126105131Y-48027615D01*
X125919135Y-47916067D01*
X125929727Y-47911680D01*
X126028754Y-47845512D01*
X145439783Y-47845512D01*
X145481213Y-48125130D01*
X145576397Y-48391292D01*
X145643329Y-48516514D01*
X145887298Y-48588097D01*
X146700395Y-47775000D01*
X147059605Y-47775000D01*
X147872702Y-48588097D01*
X148116671Y-48516514D01*
X148237571Y-48261004D01*
X148306300Y-47986816D01*
X148320217Y-47704488D01*
X148278787Y-47424870D01*
X148183603Y-47158708D01*
X148116671Y-47033486D01*
X147872702Y-46961903D01*
X147059605Y-47775000D01*
X146700395Y-47775000D01*
X145887298Y-46961903D01*
X145643329Y-47033486D01*
X145522429Y-47288996D01*
X145453700Y-47563184D01*
X145439783Y-47845512D01*
X126028754Y-47845512D01*
X126164759Y-47754637D01*
X126364637Y-47554759D01*
X126521680Y-47319727D01*
X126629853Y-47058574D01*
X126684808Y-46782298D01*
X146066903Y-46782298D01*
X146880000Y-47595395D01*
X147693097Y-46782298D01*
X147621514Y-46538329D01*
X147366004Y-46417429D01*
X147091816Y-46348700D01*
X146809488Y-46334783D01*
X146529870Y-46376213D01*
X146263708Y-46471397D01*
X146138486Y-46538329D01*
X146066903Y-46782298D01*
X126684808Y-46782298D01*
X126685000Y-46781335D01*
X126685000Y-46498665D01*
X126629853Y-46221426D01*
X126521680Y-45960273D01*
X126364637Y-45725241D01*
X126164759Y-45525363D01*
X125951663Y-45382977D01*
X124865000Y-44296315D01*
X124865000Y-40555475D01*
X144545000Y-40555475D01*
X144545000Y-41074525D01*
X144646261Y-41583601D01*
X144844893Y-42063141D01*
X145133262Y-42494715D01*
X145500285Y-42861738D01*
X145931859Y-43150107D01*
X146411399Y-43348739D01*
X146920475Y-43450000D01*
X147439525Y-43450000D01*
X147948601Y-43348739D01*
X148428141Y-43150107D01*
X148859715Y-42861738D01*
X149226738Y-42494715D01*
X149515107Y-42063141D01*
X149713739Y-41583601D01*
X149815000Y-41074525D01*
X149815000Y-40555475D01*
X149713739Y-40046399D01*
X149515107Y-39566859D01*
X149226738Y-39135285D01*
X148859715Y-38768262D01*
X148428141Y-38479893D01*
X147948601Y-38281261D01*
X147439525Y-38180000D01*
X146920475Y-38180000D01*
X146411399Y-38281261D01*
X145931859Y-38479893D01*
X145500285Y-38768262D01*
X145133262Y-39135285D01*
X144844893Y-39566859D01*
X144646261Y-40046399D01*
X144545000Y-40555475D01*
X124865000Y-40555475D01*
X124865000Y-40147699D01*
X124915000Y-39896335D01*
X124915000Y-39613665D01*
X124865000Y-39362301D01*
X124865000Y-38588026D01*
X124871700Y-38519999D01*
X124865000Y-38451972D01*
X124865000Y-38451963D01*
X124844960Y-38248493D01*
X124765764Y-37987419D01*
X124637157Y-37746812D01*
X124548259Y-37638490D01*
X124507452Y-37588766D01*
X124507450Y-37588764D01*
X124464081Y-37535919D01*
X124411236Y-37492550D01*
X121332454Y-34413769D01*
X121289081Y-34360919D01*
X121078188Y-34187843D01*
X120837581Y-34059236D01*
X120576507Y-33980040D01*
X120373037Y-33960000D01*
X120373029Y-33960000D01*
X120305000Y-33953300D01*
X120236971Y-33960000D01*
X99148026Y-33960000D01*
X99079999Y-33953300D01*
X99011972Y-33960000D01*
X99011963Y-33960000D01*
X98808493Y-33980040D01*
X98547419Y-34059236D01*
X98306812Y-34187843D01*
X98306810Y-34187844D01*
X98306811Y-34187844D01*
X98148766Y-34317548D01*
X98148764Y-34317550D01*
X98095919Y-34360919D01*
X98052550Y-34413764D01*
X95108765Y-37357550D01*
X95055919Y-37400920D01*
X95012550Y-37453765D01*
X95012548Y-37453767D01*
X94967650Y-37508476D01*
X94882843Y-37611813D01*
X94868584Y-37638490D01*
X94754236Y-37852420D01*
X94677258Y-38106183D01*
X94675040Y-38113494D01*
X94655000Y-38316964D01*
X94655000Y-38316971D01*
X94648300Y-38385000D01*
X94655000Y-38453029D01*
X94655001Y-108120000D01*
X59278026Y-108120000D01*
X59209999Y-108113300D01*
X59141972Y-108120000D01*
X59141963Y-108120000D01*
X58938493Y-108140040D01*
X58677419Y-108219236D01*
X58436812Y-108347843D01*
X58436810Y-108347844D01*
X58436811Y-108347844D01*
X58278766Y-108477548D01*
X58278764Y-108477550D01*
X58225919Y-108520919D01*
X58182550Y-108573764D01*
X56853764Y-109902551D01*
X56800920Y-109945919D01*
X56757551Y-109998764D01*
X56757548Y-109998767D01*
X56627844Y-110156812D01*
X56499236Y-110397420D01*
X56420040Y-110658493D01*
X56393300Y-110930000D01*
X56400001Y-110998039D01*
X56400000Y-115032546D01*
X56340820Y-115050498D01*
X56230506Y-115109463D01*
X56133815Y-115188815D01*
X56054463Y-115285506D01*
X55995498Y-115395820D01*
X55977546Y-115455000D01*
X52607454Y-115455000D01*
X52589502Y-115395820D01*
X52530537Y-115285506D01*
X52451185Y-115188815D01*
X52354494Y-115109463D01*
X52244180Y-115050498D01*
X52124482Y-115014188D01*
X52000000Y-115001928D01*
X49600000Y-115001928D01*
X49475518Y-115014188D01*
X49355820Y-115050498D01*
X49245506Y-115109463D01*
X49148815Y-115188815D01*
X49069463Y-115285506D01*
X49010498Y-115395820D01*
X48974188Y-115515518D01*
X48961928Y-115640000D01*
X30660000Y-115640000D01*
X30660000Y-99251806D01*
X49011801Y-99251806D01*
X49126500Y-99592754D01*
X49305511Y-99904774D01*
X49541954Y-100175875D01*
X49826743Y-100395639D01*
X50148934Y-100555621D01*
X50388195Y-100628195D01*
X50673000Y-100511432D01*
X50673000Y-98967000D01*
X50927000Y-98967000D01*
X50927000Y-100511432D01*
X51211805Y-100628195D01*
X51451066Y-100555621D01*
X51773257Y-100395639D01*
X52058046Y-100175875D01*
X52294489Y-99904774D01*
X52473500Y-99592754D01*
X52588199Y-99251806D01*
X55996801Y-99251806D01*
X56111500Y-99592754D01*
X56290511Y-99904774D01*
X56526954Y-100175875D01*
X56811743Y-100395639D01*
X57133934Y-100555621D01*
X57373195Y-100628195D01*
X57658000Y-100511432D01*
X57658000Y-98967000D01*
X57912000Y-98967000D01*
X57912000Y-100511432D01*
X58196805Y-100628195D01*
X58436066Y-100555621D01*
X58758257Y-100395639D01*
X59043046Y-100175875D01*
X59279489Y-99904774D01*
X59458500Y-99592754D01*
X59573199Y-99251806D01*
X59456854Y-98967000D01*
X57912000Y-98967000D01*
X57658000Y-98967000D01*
X56113146Y-98967000D01*
X55996801Y-99251806D01*
X52588199Y-99251806D01*
X52471854Y-98967000D01*
X50927000Y-98967000D01*
X50673000Y-98967000D01*
X49128146Y-98967000D01*
X49011801Y-99251806D01*
X30660000Y-99251806D01*
X30660000Y-98428194D01*
X49011801Y-98428194D01*
X49128146Y-98713000D01*
X50673000Y-98713000D01*
X50673000Y-97168568D01*
X50927000Y-97168568D01*
X50927000Y-98713000D01*
X52471854Y-98713000D01*
X52588199Y-98428194D01*
X55996801Y-98428194D01*
X56113146Y-98713000D01*
X57658000Y-98713000D01*
X57658000Y-97168568D01*
X57912000Y-97168568D01*
X57912000Y-98713000D01*
X59456854Y-98713000D01*
X59573199Y-98428194D01*
X59458500Y-98087246D01*
X59279489Y-97775226D01*
X59043046Y-97504125D01*
X58758257Y-97284361D01*
X58436066Y-97124379D01*
X58196805Y-97051805D01*
X57912000Y-97168568D01*
X57658000Y-97168568D01*
X57373195Y-97051805D01*
X57133934Y-97124379D01*
X56811743Y-97284361D01*
X56526954Y-97504125D01*
X56290511Y-97775226D01*
X56111500Y-98087246D01*
X55996801Y-98428194D01*
X52588199Y-98428194D01*
X52473500Y-98087246D01*
X52294489Y-97775226D01*
X52058046Y-97504125D01*
X51773257Y-97284361D01*
X51451066Y-97124379D01*
X51211805Y-97051805D01*
X50927000Y-97168568D01*
X50673000Y-97168568D01*
X50388195Y-97051805D01*
X50148934Y-97124379D01*
X49826743Y-97284361D01*
X49541954Y-97504125D01*
X49305511Y-97775226D01*
X49126500Y-98087246D01*
X49011801Y-98428194D01*
X30660000Y-98428194D01*
X30660000Y-83660000D01*
X54967581Y-83660000D01*
X55000000Y-83663193D01*
X55032419Y-83660000D01*
X55129383Y-83650450D01*
X55253793Y-83612710D01*
X55368450Y-83551425D01*
X55468948Y-83468948D01*
X55551425Y-83368450D01*
X55612710Y-83253793D01*
X55650450Y-83129383D01*
X55663193Y-83000000D01*
X55660000Y-82967581D01*
X55660000Y-39032419D01*
X55663193Y-39000000D01*
X55650450Y-38870617D01*
X55612710Y-38746207D01*
X55551425Y-38631550D01*
X55468948Y-38531052D01*
X55368450Y-38448575D01*
X55253793Y-38387290D01*
X55129383Y-38349550D01*
X55032419Y-38340000D01*
X55000000Y-38336807D01*
X54967581Y-38340000D01*
X30660000Y-38340000D01*
X30660000Y-34654286D01*
X66439123Y-34654286D01*
X66495231Y-34945392D01*
X66607053Y-35219958D01*
X66770292Y-35467433D01*
X66978674Y-35678306D01*
X67224191Y-35844474D01*
X67497409Y-35959551D01*
X67584969Y-35976302D01*
X67818000Y-35855246D01*
X67818000Y-34417000D01*
X66594624Y-34417000D01*
X66439123Y-34654286D01*
X30660000Y-34654286D01*
X30660000Y-33925714D01*
X66439123Y-33925714D01*
X66594624Y-34163000D01*
X67818000Y-34163000D01*
X67818000Y-32724754D01*
X68072000Y-32724754D01*
X68072000Y-34163000D01*
X68092000Y-34163000D01*
X68092000Y-34417000D01*
X68072000Y-34417000D01*
X68072000Y-35855246D01*
X68305031Y-35976302D01*
X68392591Y-35959551D01*
X68665809Y-35844474D01*
X68911326Y-35678306D01*
X69119708Y-35467433D01*
X69212440Y-35326848D01*
X69227583Y-35355178D01*
X69415655Y-35584345D01*
X69644821Y-35772417D01*
X69906275Y-35912166D01*
X70189968Y-35998224D01*
X70485000Y-36027282D01*
X70780031Y-35998224D01*
X71063724Y-35912166D01*
X71325178Y-35772417D01*
X71554345Y-35584345D01*
X71742417Y-35355179D01*
X71755000Y-35331637D01*
X71767583Y-35355178D01*
X71955655Y-35584345D01*
X72140001Y-35735634D01*
X72140000Y-37421531D01*
X72135719Y-37465000D01*
X72140000Y-37508469D01*
X72140000Y-37508476D01*
X72152805Y-37638489D01*
X72203411Y-37805312D01*
X72285589Y-37959058D01*
X72396183Y-38093817D01*
X72429956Y-38121534D01*
X73638470Y-39330049D01*
X73666183Y-39363817D01*
X73699951Y-39391530D01*
X73699953Y-39391532D01*
X73728169Y-39414688D01*
X73800941Y-39474411D01*
X73954687Y-39556589D01*
X74121510Y-39607195D01*
X74251523Y-39620000D01*
X74251533Y-39620000D01*
X74294999Y-39624281D01*
X74338465Y-39620000D01*
X81871531Y-39620000D01*
X81915000Y-39624281D01*
X81958469Y-39620000D01*
X81958477Y-39620000D01*
X82088490Y-39607195D01*
X82255313Y-39556589D01*
X82409059Y-39474411D01*
X82543817Y-39363817D01*
X82571534Y-39330044D01*
X83595049Y-38306530D01*
X83628817Y-38278817D01*
X83659902Y-38240941D01*
X83739411Y-38144059D01*
X83759656Y-38106183D01*
X83821589Y-37990313D01*
X83872195Y-37823490D01*
X83885000Y-37693477D01*
X83885000Y-37693469D01*
X83889281Y-37650000D01*
X83885000Y-37606531D01*
X83885000Y-27700881D01*
X147478724Y-27700881D01*
X147838912Y-28190548D01*
X148502882Y-28550849D01*
X149224385Y-28774694D01*
X149975695Y-28853480D01*
X150727938Y-28784178D01*
X151452208Y-28569452D01*
X152120670Y-28217555D01*
X152161088Y-28190548D01*
X152521276Y-27700881D01*
X150000000Y-25179605D01*
X147478724Y-27700881D01*
X83885000Y-27700881D01*
X83885000Y-26484625D01*
X83974482Y-26475812D01*
X84094180Y-26439502D01*
X84204494Y-26380537D01*
X84301185Y-26301185D01*
X84380537Y-26204494D01*
X84439502Y-26094180D01*
X84475812Y-25974482D01*
X84488072Y-25850000D01*
X84488072Y-24975695D01*
X146146520Y-24975695D01*
X146215822Y-25727938D01*
X146430548Y-26452208D01*
X146782445Y-27120670D01*
X146809452Y-27161088D01*
X147299119Y-27521276D01*
X149820395Y-25000000D01*
X150179605Y-25000000D01*
X152700881Y-27521276D01*
X153190548Y-27161088D01*
X153550849Y-26497118D01*
X153774694Y-25775615D01*
X153853480Y-25024305D01*
X153784178Y-24272062D01*
X153569452Y-23547792D01*
X153217555Y-22879330D01*
X153190548Y-22838912D01*
X152700881Y-22478724D01*
X150179605Y-25000000D01*
X149820395Y-25000000D01*
X147299119Y-22478724D01*
X146809452Y-22838912D01*
X146449151Y-23502882D01*
X146225306Y-24224385D01*
X146146520Y-24975695D01*
X84488072Y-24975695D01*
X84488072Y-24150000D01*
X84475812Y-24025518D01*
X84439502Y-23905820D01*
X84380537Y-23795506D01*
X84301185Y-23698815D01*
X84204494Y-23619463D01*
X84094180Y-23560498D01*
X83974482Y-23524188D01*
X83850000Y-23511928D01*
X82150000Y-23511928D01*
X82025518Y-23524188D01*
X81905820Y-23560498D01*
X81795506Y-23619463D01*
X81698815Y-23698815D01*
X81619463Y-23795506D01*
X81560498Y-23905820D01*
X81538487Y-23978380D01*
X81406632Y-23846525D01*
X81163411Y-23684010D01*
X80893158Y-23572068D01*
X80606260Y-23515000D01*
X80313740Y-23515000D01*
X80026842Y-23572068D01*
X79756589Y-23684010D01*
X79513368Y-23846525D01*
X79306525Y-24053368D01*
X79190000Y-24227760D01*
X79073475Y-24053368D01*
X78866632Y-23846525D01*
X78623411Y-23684010D01*
X78353158Y-23572068D01*
X78066260Y-23515000D01*
X77773740Y-23515000D01*
X77486842Y-23572068D01*
X77216589Y-23684010D01*
X76973368Y-23846525D01*
X76766525Y-24053368D01*
X76650000Y-24227760D01*
X76533475Y-24053368D01*
X76326632Y-23846525D01*
X76083411Y-23684010D01*
X75813158Y-23572068D01*
X75526260Y-23515000D01*
X75233740Y-23515000D01*
X74946842Y-23572068D01*
X74676589Y-23684010D01*
X74433368Y-23846525D01*
X74226525Y-24053368D01*
X74064010Y-24296589D01*
X73952068Y-24566842D01*
X73895000Y-24853740D01*
X73895000Y-25146260D01*
X73952068Y-25433158D01*
X74064010Y-25703411D01*
X74226525Y-25946632D01*
X74433368Y-26153475D01*
X74495000Y-26194656D01*
X74495001Y-32996452D01*
X74307583Y-33224821D01*
X74295000Y-33248362D01*
X74282417Y-33224821D01*
X74094345Y-32995655D01*
X73865179Y-32807583D01*
X73603725Y-32667834D01*
X73320032Y-32581776D01*
X73025000Y-32552718D01*
X72729969Y-32581776D01*
X72446276Y-32667834D01*
X72184822Y-32807583D01*
X71955655Y-32995655D01*
X71767583Y-33224821D01*
X71755000Y-33248362D01*
X71742417Y-33224821D01*
X71554345Y-32995655D01*
X71325179Y-32807583D01*
X71063725Y-32667834D01*
X70780032Y-32581776D01*
X70485000Y-32552718D01*
X70189969Y-32581776D01*
X69906276Y-32667834D01*
X69644822Y-32807583D01*
X69415655Y-32995655D01*
X69227583Y-33224821D01*
X69212440Y-33253152D01*
X69119708Y-33112567D01*
X68911326Y-32901694D01*
X68665809Y-32735526D01*
X68392591Y-32620449D01*
X68305031Y-32603698D01*
X68072000Y-32724754D01*
X67818000Y-32724754D01*
X67584969Y-32603698D01*
X67497409Y-32620449D01*
X67224191Y-32735526D01*
X66978674Y-32901694D01*
X66770292Y-33112567D01*
X66607053Y-33360042D01*
X66495231Y-33634608D01*
X66439123Y-33925714D01*
X30660000Y-33925714D01*
X30660000Y-27700881D01*
X32478724Y-27700881D01*
X32838912Y-28190548D01*
X33502882Y-28550849D01*
X34224385Y-28774694D01*
X34975695Y-28853480D01*
X35727938Y-28784178D01*
X36452208Y-28569452D01*
X37120670Y-28217555D01*
X37161088Y-28190548D01*
X37521276Y-27700881D01*
X35000000Y-25179605D01*
X32478724Y-27700881D01*
X30660000Y-27700881D01*
X30660000Y-24975695D01*
X31146520Y-24975695D01*
X31215822Y-25727938D01*
X31430548Y-26452208D01*
X31782445Y-27120670D01*
X31809452Y-27161088D01*
X32299119Y-27521276D01*
X34820395Y-25000000D01*
X35179605Y-25000000D01*
X37700881Y-27521276D01*
X38190548Y-27161088D01*
X38550849Y-26497118D01*
X38774694Y-25775615D01*
X38853480Y-25024305D01*
X38784178Y-24272062D01*
X38569452Y-23547792D01*
X38217555Y-22879330D01*
X38190548Y-22838912D01*
X37700881Y-22478724D01*
X35179605Y-25000000D01*
X34820395Y-25000000D01*
X32299119Y-22478724D01*
X31809452Y-22838912D01*
X31449151Y-23502882D01*
X31225306Y-24224385D01*
X31146520Y-24975695D01*
X30660000Y-24975695D01*
X30660000Y-22299119D01*
X32478724Y-22299119D01*
X35000000Y-24820395D01*
X37521276Y-22299119D01*
X147478724Y-22299119D01*
X150000000Y-24820395D01*
X152521276Y-22299119D01*
X152161088Y-21809452D01*
X151497118Y-21449151D01*
X150775615Y-21225306D01*
X150024305Y-21146520D01*
X149272062Y-21215822D01*
X148547792Y-21430548D01*
X147879330Y-21782445D01*
X147838912Y-21809452D01*
X147478724Y-22299119D01*
X37521276Y-22299119D01*
X37161088Y-21809452D01*
X36497118Y-21449151D01*
X35775615Y-21225306D01*
X35024305Y-21146520D01*
X34272062Y-21215822D01*
X33547792Y-21430548D01*
X32879330Y-21782445D01*
X32838912Y-21809452D01*
X32478724Y-22299119D01*
X30660000Y-22299119D01*
X30660000Y-20660000D01*
X154340000Y-20660000D01*
X154340001Y-132340000D01*
%TA.AperFunction,Conductor*%
D31*
G36*
X154340001Y-132340000D02*
G01*
X30660000Y-132340000D01*
X30660000Y-130700881D01*
X32478724Y-130700881D01*
X32838912Y-131190548D01*
X33502882Y-131550849D01*
X34224385Y-131774694D01*
X34975695Y-131853480D01*
X35727938Y-131784178D01*
X36452208Y-131569452D01*
X37120670Y-131217555D01*
X37161088Y-131190548D01*
X37521276Y-130700881D01*
X147478724Y-130700881D01*
X147838912Y-131190548D01*
X148502882Y-131550849D01*
X149224385Y-131774694D01*
X149975695Y-131853480D01*
X150727938Y-131784178D01*
X151452208Y-131569452D01*
X152120670Y-131217555D01*
X152161088Y-131190548D01*
X152521276Y-130700881D01*
X150000000Y-128179605D01*
X147478724Y-130700881D01*
X37521276Y-130700881D01*
X35000000Y-128179605D01*
X32478724Y-130700881D01*
X30660000Y-130700881D01*
X30660000Y-127975695D01*
X31146520Y-127975695D01*
X31215822Y-128727938D01*
X31430548Y-129452208D01*
X31782445Y-130120670D01*
X31809452Y-130161088D01*
X32299119Y-130521276D01*
X34820395Y-128000000D01*
X35179605Y-128000000D01*
X37700881Y-130521276D01*
X38190548Y-130161088D01*
X38550849Y-129497118D01*
X38751616Y-128850000D01*
X48511928Y-128850000D01*
X48524188Y-128974482D01*
X48560498Y-129094180D01*
X48619463Y-129204494D01*
X48698815Y-129301185D01*
X48795506Y-129380537D01*
X48905820Y-129439502D01*
X49025518Y-129475812D01*
X49150000Y-129488072D01*
X49714250Y-129485000D01*
X49873000Y-129326250D01*
X49873000Y-128127000D01*
X50127000Y-128127000D01*
X50127000Y-129326250D01*
X50285750Y-129485000D01*
X50850000Y-129488072D01*
X50974482Y-129475812D01*
X51094180Y-129439502D01*
X51204494Y-129380537D01*
X51301185Y-129301185D01*
X51380537Y-129204494D01*
X51439502Y-129094180D01*
X51463966Y-129013534D01*
X51539731Y-129097588D01*
X51773080Y-129271641D01*
X52035901Y-129396825D01*
X52183110Y-129441476D01*
X52413000Y-129320155D01*
X52413000Y-128127000D01*
X50127000Y-128127000D01*
X49873000Y-128127000D01*
X48673750Y-128127000D01*
X48515000Y-128285750D01*
X48511928Y-128850000D01*
X38751616Y-128850000D01*
X38774694Y-128775615D01*
X38853480Y-128024305D01*
X38784178Y-127272062D01*
X38747990Y-127150000D01*
X48511928Y-127150000D01*
X48515000Y-127714250D01*
X48673750Y-127873000D01*
X49873000Y-127873000D01*
X49873000Y-126673750D01*
X50127000Y-126673750D01*
X50127000Y-127873000D01*
X52413000Y-127873000D01*
X52413000Y-126679845D01*
X52183110Y-126558524D01*
X52035901Y-126603175D01*
X51773080Y-126728359D01*
X51539731Y-126902412D01*
X51463966Y-126986466D01*
X51439502Y-126905820D01*
X51380537Y-126795506D01*
X51301185Y-126698815D01*
X51204494Y-126619463D01*
X51094180Y-126560498D01*
X50974482Y-126524188D01*
X50850000Y-126511928D01*
X50285750Y-126515000D01*
X50127000Y-126673750D01*
X49873000Y-126673750D01*
X49714250Y-126515000D01*
X49150000Y-126511928D01*
X49025518Y-126524188D01*
X48905820Y-126560498D01*
X48795506Y-126619463D01*
X48698815Y-126698815D01*
X48619463Y-126795506D01*
X48560498Y-126905820D01*
X48524188Y-127025518D01*
X48511928Y-127150000D01*
X38747990Y-127150000D01*
X38569452Y-126547792D01*
X38217555Y-125879330D01*
X38190548Y-125838912D01*
X37700881Y-125478724D01*
X35179605Y-128000000D01*
X34820395Y-128000000D01*
X32299119Y-125478724D01*
X31809452Y-125838912D01*
X31449151Y-126502882D01*
X31225306Y-127224385D01*
X31146520Y-127975695D01*
X30660000Y-127975695D01*
X30660000Y-125299119D01*
X32478724Y-125299119D01*
X35000000Y-127820395D01*
X37521276Y-125299119D01*
X37161088Y-124809452D01*
X36497118Y-124449151D01*
X35775615Y-124225306D01*
X35024305Y-124146520D01*
X34272062Y-124215822D01*
X33547792Y-124430548D01*
X32879330Y-124782445D01*
X32838912Y-124809452D01*
X32478724Y-125299119D01*
X30660000Y-125299119D01*
X30660000Y-115640000D01*
X48961928Y-115640000D01*
X48961928Y-118040000D01*
X48974188Y-118164482D01*
X49010498Y-118284180D01*
X49069463Y-118394494D01*
X49148815Y-118491185D01*
X49245506Y-118570537D01*
X49355820Y-118629502D01*
X49475518Y-118665812D01*
X49600000Y-118678072D01*
X52000000Y-118678072D01*
X52124482Y-118665812D01*
X52244180Y-118629502D01*
X52354494Y-118570537D01*
X52451185Y-118491185D01*
X52530537Y-118394494D01*
X52589502Y-118284180D01*
X52607454Y-118225000D01*
X55977546Y-118225000D01*
X55995498Y-118284180D01*
X56054463Y-118394494D01*
X56133815Y-118491185D01*
X56230506Y-118570537D01*
X56340820Y-118629502D01*
X56400000Y-118647454D01*
X56400001Y-122157317D01*
X56330506Y-122194463D01*
X56233815Y-122273815D01*
X56154463Y-122370506D01*
X56095498Y-122480820D01*
X56059188Y-122600518D01*
X56046928Y-122725000D01*
X56046928Y-124925000D01*
X56059188Y-125049482D01*
X56095498Y-125169180D01*
X56154463Y-125279494D01*
X56233815Y-125376185D01*
X56330506Y-125455537D01*
X56400000Y-125492683D01*
X56400001Y-126865000D01*
X56045107Y-126865000D01*
X56026632Y-126846525D01*
X55783411Y-126684010D01*
X55513158Y-126572068D01*
X55226260Y-126515000D01*
X54933740Y-126515000D01*
X54646842Y-126572068D01*
X54376589Y-126684010D01*
X54133368Y-126846525D01*
X53926525Y-127053368D01*
X53804805Y-127235534D01*
X53735178Y-127118645D01*
X53540269Y-126902412D01*
X53306920Y-126728359D01*
X53044099Y-126603175D01*
X52896890Y-126558524D01*
X52667000Y-126679845D01*
X52667000Y-127873000D01*
X52687000Y-127873000D01*
X52687000Y-128127000D01*
X52667000Y-128127000D01*
X52667000Y-129320155D01*
X52896890Y-129441476D01*
X53044099Y-129396825D01*
X53306920Y-129271641D01*
X53540269Y-129097588D01*
X53735178Y-128881355D01*
X53804805Y-128764466D01*
X53926525Y-128946632D01*
X54133368Y-129153475D01*
X54376589Y-129315990D01*
X54646842Y-129427932D01*
X54933740Y-129485000D01*
X55226260Y-129485000D01*
X55513158Y-129427932D01*
X55783411Y-129315990D01*
X56026632Y-129153475D01*
X56045107Y-129135000D01*
X56654893Y-129135000D01*
X56673368Y-129153475D01*
X56916589Y-129315990D01*
X57186842Y-129427932D01*
X57473740Y-129485000D01*
X57766260Y-129485000D01*
X58053158Y-129427932D01*
X58323411Y-129315990D01*
X58566632Y-129153475D01*
X58773475Y-128946632D01*
X58935990Y-128703411D01*
X59047932Y-128433158D01*
X59055175Y-128396746D01*
X59070764Y-128367581D01*
X59149960Y-128106507D01*
X59170000Y-127903037D01*
X59170000Y-127903027D01*
X59176700Y-127835001D01*
X59170000Y-127766974D01*
X59170000Y-125492683D01*
X59239494Y-125455537D01*
X59336185Y-125376185D01*
X59415537Y-125279494D01*
X59474502Y-125169180D01*
X59510812Y-125049482D01*
X59523072Y-124925000D01*
X59523072Y-123654117D01*
X66210000Y-123654117D01*
X66210000Y-123995883D01*
X66276675Y-124331081D01*
X66407463Y-124646831D01*
X66597337Y-124930998D01*
X66839002Y-125172663D01*
X67123169Y-125362537D01*
X67438919Y-125493325D01*
X67774117Y-125560000D01*
X68115883Y-125560000D01*
X68451081Y-125493325D01*
X68766831Y-125362537D01*
X69050998Y-125172663D01*
X69292663Y-124930998D01*
X69482537Y-124646831D01*
X69613325Y-124331081D01*
X69666889Y-124061796D01*
X71416235Y-122312450D01*
X71469080Y-122269081D01*
X71642157Y-122058188D01*
X71770764Y-121817581D01*
X71849960Y-121556507D01*
X71870000Y-121353037D01*
X71870000Y-121353028D01*
X71876700Y-121285001D01*
X71870000Y-121216974D01*
X71870000Y-118029974D01*
X71955655Y-118134345D01*
X72184821Y-118322417D01*
X72446275Y-118462166D01*
X72729968Y-118548224D01*
X73025000Y-118577282D01*
X73320031Y-118548224D01*
X73603724Y-118462166D01*
X73865178Y-118322417D01*
X74094345Y-118134345D01*
X74282417Y-117905179D01*
X74295000Y-117881637D01*
X74307583Y-117905178D01*
X74495655Y-118134345D01*
X74680000Y-118285633D01*
X74680001Y-126682597D01*
X74676589Y-126684010D01*
X74433368Y-126846525D01*
X74226525Y-127053368D01*
X74064010Y-127296589D01*
X73952068Y-127566842D01*
X73895000Y-127853740D01*
X73895000Y-128146260D01*
X73952068Y-128433158D01*
X74064010Y-128703411D01*
X74226525Y-128946632D01*
X74433368Y-129153475D01*
X74676589Y-129315990D01*
X74946842Y-129427932D01*
X75233740Y-129485000D01*
X75526260Y-129485000D01*
X75813158Y-129427932D01*
X76083411Y-129315990D01*
X76326632Y-129153475D01*
X76533475Y-128946632D01*
X76650000Y-128772240D01*
X76766525Y-128946632D01*
X76973368Y-129153475D01*
X77216589Y-129315990D01*
X77486842Y-129427932D01*
X77773740Y-129485000D01*
X78066260Y-129485000D01*
X78353158Y-129427932D01*
X78623411Y-129315990D01*
X78866632Y-129153475D01*
X79073475Y-128946632D01*
X79190000Y-128772240D01*
X79306525Y-128946632D01*
X79513368Y-129153475D01*
X79756589Y-129315990D01*
X80026842Y-129427932D01*
X80313740Y-129485000D01*
X80606260Y-129485000D01*
X80893158Y-129427932D01*
X81163411Y-129315990D01*
X81406632Y-129153475D01*
X81538487Y-129021620D01*
X81560498Y-129094180D01*
X81619463Y-129204494D01*
X81698815Y-129301185D01*
X81795506Y-129380537D01*
X81905820Y-129439502D01*
X82025518Y-129475812D01*
X82150000Y-129488072D01*
X83850000Y-129488072D01*
X83974482Y-129475812D01*
X84094180Y-129439502D01*
X84204494Y-129380537D01*
X84301185Y-129301185D01*
X84380537Y-129204494D01*
X84439502Y-129094180D01*
X84475812Y-128974482D01*
X84488072Y-128850000D01*
X84488072Y-127975695D01*
X146146520Y-127975695D01*
X146215822Y-128727938D01*
X146430548Y-129452208D01*
X146782445Y-130120670D01*
X146809452Y-130161088D01*
X147299119Y-130521276D01*
X149820395Y-128000000D01*
X150179605Y-128000000D01*
X152700881Y-130521276D01*
X153190548Y-130161088D01*
X153550849Y-129497118D01*
X153774694Y-128775615D01*
X153853480Y-128024305D01*
X153784178Y-127272062D01*
X153569452Y-126547792D01*
X153217555Y-125879330D01*
X153190548Y-125838912D01*
X152700881Y-125478724D01*
X150179605Y-128000000D01*
X149820395Y-128000000D01*
X147299119Y-125478724D01*
X146809452Y-125838912D01*
X146449151Y-126502882D01*
X146225306Y-127224385D01*
X146146520Y-127975695D01*
X84488072Y-127975695D01*
X84488072Y-127150000D01*
X84475812Y-127025518D01*
X84439502Y-126905820D01*
X84380537Y-126795506D01*
X84301185Y-126698815D01*
X84204494Y-126619463D01*
X84094180Y-126560498D01*
X83974482Y-126524188D01*
X83885000Y-126515375D01*
X83885000Y-125299119D01*
X147478724Y-125299119D01*
X150000000Y-127820395D01*
X152521276Y-125299119D01*
X152161088Y-124809452D01*
X151497118Y-124449151D01*
X150775615Y-124225306D01*
X150024305Y-124146520D01*
X149272062Y-124215822D01*
X148547792Y-124430548D01*
X147879330Y-124782445D01*
X147838912Y-124809452D01*
X147478724Y-125299119D01*
X83885000Y-125299119D01*
X83885000Y-113893469D01*
X83889281Y-113850000D01*
X83885000Y-113806531D01*
X83885000Y-113806523D01*
X83872195Y-113676510D01*
X83821589Y-113509687D01*
X83739411Y-113355941D01*
X83692874Y-113299236D01*
X83656532Y-113254953D01*
X83656530Y-113254951D01*
X83628817Y-113221183D01*
X83595049Y-113193470D01*
X82201534Y-111799956D01*
X82173817Y-111766183D01*
X82039059Y-111655589D01*
X81885313Y-111573411D01*
X81718490Y-111522805D01*
X81588477Y-111510000D01*
X81588469Y-111510000D01*
X81545000Y-111505719D01*
X81501531Y-111510000D01*
X74973469Y-111510000D01*
X74930000Y-111505719D01*
X74886531Y-111510000D01*
X74886523Y-111510000D01*
X74756510Y-111522805D01*
X74589687Y-111573411D01*
X74435941Y-111655589D01*
X74334953Y-111738468D01*
X74334951Y-111738470D01*
X74301183Y-111766183D01*
X74273470Y-111799951D01*
X72429956Y-113643466D01*
X72396183Y-113671183D01*
X72285589Y-113805942D01*
X72203411Y-113959688D01*
X72152805Y-114126511D01*
X72140000Y-114256524D01*
X72140000Y-114256531D01*
X72135719Y-114300000D01*
X72140000Y-114343469D01*
X72140000Y-115394367D01*
X71955655Y-115545655D01*
X71767583Y-115774821D01*
X71755000Y-115798362D01*
X71742417Y-115774821D01*
X71554345Y-115545655D01*
X71325179Y-115357583D01*
X71063725Y-115217834D01*
X70780032Y-115131776D01*
X70485000Y-115102718D01*
X70189969Y-115131776D01*
X69906276Y-115217834D01*
X69644822Y-115357583D01*
X69415655Y-115545655D01*
X69227583Y-115774821D01*
X69212440Y-115803152D01*
X69119708Y-115662567D01*
X68911326Y-115451694D01*
X68665809Y-115285526D01*
X68392591Y-115170449D01*
X68305031Y-115153698D01*
X68072000Y-115274754D01*
X68072000Y-116713000D01*
X68092000Y-116713000D01*
X68092000Y-116967000D01*
X68072000Y-116967000D01*
X68072000Y-118405246D01*
X68305031Y-118526302D01*
X68392591Y-118509551D01*
X68665809Y-118394474D01*
X68911326Y-118228306D01*
X69100001Y-118037376D01*
X69100000Y-120711315D01*
X67708204Y-122103111D01*
X67438919Y-122156675D01*
X67123169Y-122287463D01*
X66839002Y-122477337D01*
X66597337Y-122719002D01*
X66407463Y-123003169D01*
X66276675Y-123318919D01*
X66210000Y-123654117D01*
X59523072Y-123654117D01*
X59523072Y-122725000D01*
X59510812Y-122600518D01*
X59474502Y-122480820D01*
X59415537Y-122370506D01*
X59336185Y-122273815D01*
X59239494Y-122194463D01*
X59170000Y-122157317D01*
X59170000Y-118647454D01*
X59229180Y-118629502D01*
X59339494Y-118570537D01*
X59436185Y-118491185D01*
X59515537Y-118394494D01*
X59574502Y-118284180D01*
X59610812Y-118164482D01*
X59623072Y-118040000D01*
X59623072Y-117204286D01*
X66439123Y-117204286D01*
X66495231Y-117495392D01*
X66607053Y-117769958D01*
X66770292Y-118017433D01*
X66978674Y-118228306D01*
X67224191Y-118394474D01*
X67497409Y-118509551D01*
X67584969Y-118526302D01*
X67818000Y-118405246D01*
X67818000Y-116967000D01*
X66594624Y-116967000D01*
X66439123Y-117204286D01*
X59623072Y-117204286D01*
X59623072Y-116475714D01*
X66439123Y-116475714D01*
X66594624Y-116713000D01*
X67818000Y-116713000D01*
X67818000Y-115274754D01*
X67584969Y-115153698D01*
X67497409Y-115170449D01*
X67224191Y-115285526D01*
X66978674Y-115451694D01*
X66770292Y-115662567D01*
X66607053Y-115910042D01*
X66495231Y-116184608D01*
X66439123Y-116475714D01*
X59623072Y-116475714D01*
X59623072Y-115640000D01*
X59610812Y-115515518D01*
X59574502Y-115395820D01*
X59515537Y-115285506D01*
X59436185Y-115188815D01*
X59339494Y-115109463D01*
X59229180Y-115050498D01*
X59170000Y-115032546D01*
X59170000Y-111503685D01*
X59783686Y-110890000D01*
X95971964Y-110890000D01*
X96040000Y-110896701D01*
X96108037Y-110890000D01*
X110071315Y-110890000D01*
X114697550Y-115516236D01*
X114740919Y-115569081D01*
X114793764Y-115612450D01*
X114793766Y-115612452D01*
X114827334Y-115640000D01*
X114951812Y-115742157D01*
X115164646Y-115855919D01*
X115192419Y-115870764D01*
X115453492Y-115949960D01*
X115476892Y-115952265D01*
X115656963Y-115970000D01*
X115656971Y-115970000D01*
X115725000Y-115976700D01*
X115793029Y-115970000D01*
X134706971Y-115970000D01*
X134775000Y-115976700D01*
X134843029Y-115970000D01*
X134843037Y-115970000D01*
X135046507Y-115949960D01*
X135307581Y-115870764D01*
X135548188Y-115742157D01*
X135759081Y-115569081D01*
X135802454Y-115516231D01*
X143603686Y-107715000D01*
X145350649Y-107715000D01*
X145290241Y-107755363D01*
X145090363Y-107955241D01*
X144933320Y-108190273D01*
X144825147Y-108451426D01*
X144770000Y-108728665D01*
X144770000Y-109011335D01*
X144825147Y-109288574D01*
X144933320Y-109549727D01*
X145090363Y-109784759D01*
X145290241Y-109984637D01*
X145525273Y-110141680D01*
X145786426Y-110249853D01*
X146063665Y-110305000D01*
X146346335Y-110305000D01*
X146623574Y-110249853D01*
X146884727Y-110141680D01*
X147119759Y-109984637D01*
X147319637Y-109784759D01*
X147339521Y-109755000D01*
X148476928Y-109755000D01*
X148476928Y-109770000D01*
X148489188Y-109894482D01*
X148525498Y-110014180D01*
X148584463Y-110124494D01*
X148663815Y-110221185D01*
X148760506Y-110300537D01*
X148870820Y-110359502D01*
X148990518Y-110395812D01*
X149115000Y-110408072D01*
X150915000Y-110408072D01*
X151039482Y-110395812D01*
X151159180Y-110359502D01*
X151269494Y-110300537D01*
X151366185Y-110221185D01*
X151445537Y-110124494D01*
X151504502Y-110014180D01*
X151540812Y-109894482D01*
X151553072Y-109770000D01*
X151553072Y-107970000D01*
X151540812Y-107845518D01*
X151504502Y-107725820D01*
X151445537Y-107615506D01*
X151366185Y-107518815D01*
X151269494Y-107439463D01*
X151159180Y-107380498D01*
X151140873Y-107374944D01*
X151207312Y-107308505D01*
X151375299Y-107057095D01*
X151491011Y-106777743D01*
X151550000Y-106481184D01*
X151550000Y-106178816D01*
X151491011Y-105882257D01*
X151375299Y-105602905D01*
X151207312Y-105351495D01*
X150993505Y-105137688D01*
X150742095Y-104969701D01*
X150462743Y-104853989D01*
X150166184Y-104795000D01*
X149863816Y-104795000D01*
X149567257Y-104853989D01*
X149347538Y-104945000D01*
X144415000Y-104945000D01*
X144415000Y-98825000D01*
X145350649Y-98825000D01*
X145290241Y-98865363D01*
X145090363Y-99065241D01*
X144933320Y-99300273D01*
X144825147Y-99561426D01*
X144770000Y-99838665D01*
X144770000Y-100121335D01*
X144825147Y-100398574D01*
X144933320Y-100659727D01*
X145090363Y-100894759D01*
X145290241Y-101094637D01*
X145525273Y-101251680D01*
X145786426Y-101359853D01*
X146063665Y-101415000D01*
X146346335Y-101415000D01*
X146623574Y-101359853D01*
X146884727Y-101251680D01*
X147119759Y-101094637D01*
X147319637Y-100894759D01*
X147339521Y-100865000D01*
X148476928Y-100865000D01*
X148476928Y-100880000D01*
X148489188Y-101004482D01*
X148525498Y-101124180D01*
X148584463Y-101234494D01*
X148663815Y-101331185D01*
X148760506Y-101410537D01*
X148870820Y-101469502D01*
X148990518Y-101505812D01*
X149115000Y-101518072D01*
X150915000Y-101518072D01*
X151039482Y-101505812D01*
X151159180Y-101469502D01*
X151269494Y-101410537D01*
X151366185Y-101331185D01*
X151445537Y-101234494D01*
X151504502Y-101124180D01*
X151540812Y-101004482D01*
X151553072Y-100880000D01*
X151553072Y-99080000D01*
X151540812Y-98955518D01*
X151504502Y-98835820D01*
X151445537Y-98725506D01*
X151366185Y-98628815D01*
X151269494Y-98549463D01*
X151159180Y-98490498D01*
X151140873Y-98484944D01*
X151207312Y-98418505D01*
X151375299Y-98167095D01*
X151491011Y-97887743D01*
X151550000Y-97591184D01*
X151550000Y-97288816D01*
X151491011Y-96992257D01*
X151375299Y-96712905D01*
X151207312Y-96461495D01*
X150993505Y-96247688D01*
X150742095Y-96079701D01*
X150462743Y-95963989D01*
X150166184Y-95905000D01*
X149863816Y-95905000D01*
X149567257Y-95963989D01*
X149347538Y-96055000D01*
X143733029Y-96055000D01*
X143665000Y-96048300D01*
X143596971Y-96055000D01*
X143596963Y-96055000D01*
X143393493Y-96075040D01*
X143132419Y-96154236D01*
X142891812Y-96282843D01*
X142680919Y-96455919D01*
X142637546Y-96508769D01*
X142098765Y-97047550D01*
X142045920Y-97090919D01*
X142002551Y-97143764D01*
X142002548Y-97143767D01*
X141872844Y-97301812D01*
X141744236Y-97542420D01*
X141665040Y-97803493D01*
X141638300Y-98075000D01*
X141645001Y-98143039D01*
X141645000Y-105756314D01*
X134201315Y-113200000D01*
X116298686Y-113200000D01*
X112925679Y-109826993D01*
X123202612Y-109826993D01*
X123268137Y-110065860D01*
X123515116Y-110181760D01*
X123779960Y-110247250D01*
X124052492Y-110259812D01*
X124322238Y-110218965D01*
X124578832Y-110126277D01*
X124691863Y-110065860D01*
X124757388Y-109826993D01*
X123980000Y-109049605D01*
X123202612Y-109826993D01*
X112925679Y-109826993D01*
X112041178Y-108942492D01*
X122590188Y-108942492D01*
X122631035Y-109212238D01*
X122723723Y-109468832D01*
X122784140Y-109581863D01*
X123023007Y-109647388D01*
X123800395Y-108870000D01*
X124159605Y-108870000D01*
X124936993Y-109647388D01*
X125175860Y-109581863D01*
X125250164Y-109423523D01*
X125292629Y-109526043D01*
X125444201Y-109752886D01*
X125637114Y-109945799D01*
X125863957Y-110097371D01*
X126116011Y-110201775D01*
X126383589Y-110255000D01*
X126656411Y-110255000D01*
X126923989Y-110201775D01*
X127176043Y-110097371D01*
X127402886Y-109945799D01*
X127595799Y-109752886D01*
X127673555Y-109636517D01*
X127684188Y-109744482D01*
X127720498Y-109864180D01*
X127779463Y-109974494D01*
X127858815Y-110071185D01*
X127955506Y-110150537D01*
X128065820Y-110209502D01*
X128185518Y-110245812D01*
X128310000Y-110258072D01*
X129810000Y-110258072D01*
X129934482Y-110245812D01*
X130054180Y-110209502D01*
X130164494Y-110150537D01*
X130261185Y-110071185D01*
X130340537Y-109974494D01*
X130399502Y-109864180D01*
X130432621Y-109755000D01*
X134910479Y-109755000D01*
X134930363Y-109784759D01*
X135130241Y-109984637D01*
X135365273Y-110141680D01*
X135626426Y-110249853D01*
X135903665Y-110305000D01*
X136186335Y-110305000D01*
X136463574Y-110249853D01*
X136724727Y-110141680D01*
X136959759Y-109984637D01*
X137159637Y-109784759D01*
X137316680Y-109549727D01*
X137424853Y-109288574D01*
X137480000Y-109011335D01*
X137480000Y-108728665D01*
X137424853Y-108451426D01*
X137316680Y-108190273D01*
X137159637Y-107955241D01*
X136959759Y-107755363D01*
X136724727Y-107598320D01*
X136463574Y-107490147D01*
X136186335Y-107435000D01*
X135903665Y-107435000D01*
X135626426Y-107490147D01*
X135365273Y-107598320D01*
X135130241Y-107755363D01*
X134930363Y-107955241D01*
X134910479Y-107985000D01*
X130432621Y-107985000D01*
X130399502Y-107875820D01*
X130340537Y-107765506D01*
X130261185Y-107668815D01*
X130164494Y-107589463D01*
X130054180Y-107530498D01*
X129934482Y-107494188D01*
X129810000Y-107481928D01*
X128310000Y-107481928D01*
X128185518Y-107494188D01*
X128065820Y-107530498D01*
X127955506Y-107589463D01*
X127858815Y-107668815D01*
X127779463Y-107765506D01*
X127720498Y-107875820D01*
X127684188Y-107995518D01*
X127673555Y-108103483D01*
X127595799Y-107987114D01*
X127405000Y-107796315D01*
X127405000Y-104924521D01*
X127434759Y-104904637D01*
X127634637Y-104704759D01*
X127791680Y-104469727D01*
X127899853Y-104208574D01*
X127955000Y-103931335D01*
X127955000Y-103648665D01*
X127899853Y-103371426D01*
X127791680Y-103110273D01*
X127634637Y-102875241D01*
X127434759Y-102675363D01*
X127199727Y-102518320D01*
X126938574Y-102410147D01*
X126661335Y-102355000D01*
X126378665Y-102355000D01*
X126101426Y-102410147D01*
X125840273Y-102518320D01*
X125605241Y-102675363D01*
X125405363Y-102875241D01*
X125248320Y-103110273D01*
X125140147Y-103371426D01*
X125085000Y-103648665D01*
X125085000Y-103931335D01*
X125140147Y-104208574D01*
X125248320Y-104469727D01*
X125405363Y-104704759D01*
X125605241Y-104904637D01*
X125635001Y-104924522D01*
X125635000Y-107796315D01*
X125444201Y-107987114D01*
X125292629Y-108213957D01*
X125251489Y-108313279D01*
X125236277Y-108271168D01*
X125175860Y-108158137D01*
X124936993Y-108092612D01*
X124159605Y-108870000D01*
X123800395Y-108870000D01*
X123023007Y-108092612D01*
X122784140Y-108158137D01*
X122668240Y-108405116D01*
X122602750Y-108669960D01*
X122590188Y-108942492D01*
X112041178Y-108942492D01*
X111672454Y-108573769D01*
X111629081Y-108520919D01*
X111418188Y-108347843D01*
X111177581Y-108219236D01*
X110916507Y-108140040D01*
X110713037Y-108120000D01*
X110713029Y-108120000D01*
X110645000Y-108113300D01*
X110576971Y-108120000D01*
X97425000Y-108120000D01*
X97425000Y-107913007D01*
X123202612Y-107913007D01*
X123980000Y-108690395D01*
X124757388Y-107913007D01*
X124691863Y-107674140D01*
X124444884Y-107558240D01*
X124180040Y-107492750D01*
X123907508Y-107480188D01*
X123637762Y-107521035D01*
X123381168Y-107613723D01*
X123268137Y-107674140D01*
X123202612Y-107913007D01*
X97425000Y-107913007D01*
X97425000Y-103648665D01*
X114925000Y-103648665D01*
X114925000Y-103931335D01*
X114980147Y-104208574D01*
X115088320Y-104469727D01*
X115245363Y-104704759D01*
X115445241Y-104904637D01*
X115680273Y-105061680D01*
X115941426Y-105169853D01*
X116218665Y-105225000D01*
X116501335Y-105225000D01*
X116778574Y-105169853D01*
X117039727Y-105061680D01*
X117274759Y-104904637D01*
X117474637Y-104704759D01*
X117631680Y-104469727D01*
X117739853Y-104208574D01*
X117795000Y-103931335D01*
X117795000Y-103648665D01*
X117739853Y-103371426D01*
X117631680Y-103110273D01*
X117474637Y-102875241D01*
X117274759Y-102675363D01*
X117245000Y-102655479D01*
X117245000Y-98396993D01*
X123202612Y-98396993D01*
X123268137Y-98635860D01*
X123515116Y-98751760D01*
X123779960Y-98817250D01*
X124052492Y-98829812D01*
X124322238Y-98788965D01*
X124578832Y-98696277D01*
X124691863Y-98635860D01*
X124757388Y-98396993D01*
X123980000Y-97619605D01*
X123202612Y-98396993D01*
X117245000Y-98396993D01*
X117245000Y-97512492D01*
X122590188Y-97512492D01*
X122631035Y-97782238D01*
X122723723Y-98038832D01*
X122784140Y-98151863D01*
X123023007Y-98217388D01*
X123800395Y-97440000D01*
X124159605Y-97440000D01*
X124936993Y-98217388D01*
X125175860Y-98151863D01*
X125250164Y-97993523D01*
X125292629Y-98096043D01*
X125444201Y-98322886D01*
X125637114Y-98515799D01*
X125863957Y-98667371D01*
X126116011Y-98771775D01*
X126383589Y-98825000D01*
X126656411Y-98825000D01*
X126923989Y-98771775D01*
X127176043Y-98667371D01*
X127402886Y-98515799D01*
X127595799Y-98322886D01*
X127673555Y-98206517D01*
X127684188Y-98314482D01*
X127720498Y-98434180D01*
X127779463Y-98544494D01*
X127858815Y-98641185D01*
X127955506Y-98720537D01*
X128065820Y-98779502D01*
X128185518Y-98815812D01*
X128310000Y-98828072D01*
X129810000Y-98828072D01*
X129934482Y-98815812D01*
X130054180Y-98779502D01*
X130164494Y-98720537D01*
X130261185Y-98641185D01*
X130340537Y-98544494D01*
X130399502Y-98434180D01*
X130432621Y-98325000D01*
X133138422Y-98325000D01*
X134616983Y-99803561D01*
X134610000Y-99838665D01*
X134610000Y-100121335D01*
X134665147Y-100398574D01*
X134773320Y-100659727D01*
X134930363Y-100894759D01*
X135130241Y-101094637D01*
X135365273Y-101251680D01*
X135626426Y-101359853D01*
X135903665Y-101415000D01*
X136186335Y-101415000D01*
X136463574Y-101359853D01*
X136724727Y-101251680D01*
X136959759Y-101094637D01*
X137159637Y-100894759D01*
X137316680Y-100659727D01*
X137424853Y-100398574D01*
X137480000Y-100121335D01*
X137480000Y-99838665D01*
X137424853Y-99561426D01*
X137316680Y-99300273D01*
X137159637Y-99065241D01*
X136959759Y-98865363D01*
X136724727Y-98708320D01*
X136463574Y-98600147D01*
X136186335Y-98545000D01*
X135903665Y-98545000D01*
X135868561Y-98551983D01*
X134161534Y-96844956D01*
X134133817Y-96811183D01*
X133999059Y-96700589D01*
X133845313Y-96618411D01*
X133678490Y-96567805D01*
X133548477Y-96555000D01*
X133548469Y-96555000D01*
X133505000Y-96550719D01*
X133461531Y-96555000D01*
X130432621Y-96555000D01*
X130399502Y-96445820D01*
X130340537Y-96335506D01*
X130261185Y-96238815D01*
X130164494Y-96159463D01*
X130054180Y-96100498D01*
X129934482Y-96064188D01*
X129810000Y-96051928D01*
X128310000Y-96051928D01*
X128185518Y-96064188D01*
X128065820Y-96100498D01*
X127955506Y-96159463D01*
X127858815Y-96238815D01*
X127779463Y-96335506D01*
X127720498Y-96445820D01*
X127684188Y-96565518D01*
X127673555Y-96673483D01*
X127595799Y-96557114D01*
X127405000Y-96366315D01*
X127405000Y-90954521D01*
X127434759Y-90934637D01*
X127634637Y-90734759D01*
X127791680Y-90499727D01*
X127899853Y-90238574D01*
X127955000Y-89961335D01*
X127955000Y-89678665D01*
X135245000Y-89678665D01*
X135245000Y-89961335D01*
X135300147Y-90238574D01*
X135408320Y-90499727D01*
X135565363Y-90734759D01*
X135765241Y-90934637D01*
X136000273Y-91091680D01*
X136261426Y-91199853D01*
X136538665Y-91255000D01*
X136821335Y-91255000D01*
X137098574Y-91199853D01*
X137359727Y-91091680D01*
X137594759Y-90934637D01*
X137794637Y-90734759D01*
X137814521Y-90705000D01*
X142986531Y-90705000D01*
X143030000Y-90709281D01*
X143073469Y-90705000D01*
X143073477Y-90705000D01*
X143203490Y-90692195D01*
X143370313Y-90641589D01*
X143524059Y-90559411D01*
X143590358Y-90505000D01*
X148820344Y-90505000D01*
X148861525Y-90566632D01*
X149068368Y-90773475D01*
X149311589Y-90935990D01*
X149581842Y-91047932D01*
X149868740Y-91105000D01*
X150161260Y-91105000D01*
X150448158Y-91047932D01*
X150718411Y-90935990D01*
X150961632Y-90773475D01*
X151168475Y-90566632D01*
X151330990Y-90323411D01*
X151442932Y-90053158D01*
X151500000Y-89766260D01*
X151500000Y-89473740D01*
X151442932Y-89186842D01*
X151330990Y-88916589D01*
X151168475Y-88673368D01*
X150961632Y-88466525D01*
X150779466Y-88344805D01*
X150896355Y-88275178D01*
X151112588Y-88080269D01*
X151286641Y-87846920D01*
X151411825Y-87584099D01*
X151456476Y-87436890D01*
X151335155Y-87207000D01*
X150142000Y-87207000D01*
X150142000Y-87227000D01*
X149888000Y-87227000D01*
X149888000Y-87207000D01*
X148694845Y-87207000D01*
X148573524Y-87436890D01*
X148618175Y-87584099D01*
X148743359Y-87846920D01*
X148917412Y-88080269D01*
X149133645Y-88275178D01*
X149250534Y-88344805D01*
X149068368Y-88466525D01*
X148861525Y-88673368D01*
X148820344Y-88735000D01*
X143273469Y-88735000D01*
X143230000Y-88730719D01*
X143186531Y-88735000D01*
X143186523Y-88735000D01*
X143056510Y-88747805D01*
X142889687Y-88798411D01*
X142735941Y-88880589D01*
X142669642Y-88935000D01*
X137814521Y-88935000D01*
X137794637Y-88905241D01*
X137594759Y-88705363D01*
X137359727Y-88548320D01*
X137098574Y-88440147D01*
X136821335Y-88385000D01*
X136538665Y-88385000D01*
X136261426Y-88440147D01*
X136000273Y-88548320D01*
X135765241Y-88705363D01*
X135565363Y-88905241D01*
X135408320Y-89140273D01*
X135300147Y-89401426D01*
X135245000Y-89678665D01*
X127955000Y-89678665D01*
X127899853Y-89401426D01*
X127791680Y-89140273D01*
X127634637Y-88905241D01*
X127434759Y-88705363D01*
X127199727Y-88548320D01*
X126938574Y-88440147D01*
X126661335Y-88385000D01*
X126378665Y-88385000D01*
X126101426Y-88440147D01*
X125840273Y-88548320D01*
X125605241Y-88705363D01*
X125405363Y-88905241D01*
X125248320Y-89140273D01*
X125140147Y-89401426D01*
X125085000Y-89678665D01*
X125085000Y-89961335D01*
X125140147Y-90238574D01*
X125248320Y-90499727D01*
X125405363Y-90734759D01*
X125605241Y-90934637D01*
X125635000Y-90954522D01*
X125635001Y-92316514D01*
X125635000Y-92316524D01*
X125635001Y-96366314D01*
X125444201Y-96557114D01*
X125292629Y-96783957D01*
X125251489Y-96883279D01*
X125236277Y-96841168D01*
X125175860Y-96728137D01*
X124936993Y-96662612D01*
X124159605Y-97440000D01*
X123800395Y-97440000D01*
X123023007Y-96662612D01*
X122784140Y-96728137D01*
X122668240Y-96975116D01*
X122602750Y-97239960D01*
X122590188Y-97512492D01*
X117245000Y-97512492D01*
X117245000Y-96483007D01*
X123202612Y-96483007D01*
X123980000Y-97260395D01*
X124757388Y-96483007D01*
X124691863Y-96244140D01*
X124444884Y-96128240D01*
X124180040Y-96062750D01*
X123907508Y-96050188D01*
X123637762Y-96091035D01*
X123381168Y-96183723D01*
X123268137Y-96244140D01*
X123202612Y-96483007D01*
X117245000Y-96483007D01*
X117245000Y-94631578D01*
X126979688Y-84896890D01*
X148573524Y-84896890D01*
X148618175Y-85044099D01*
X148743359Y-85306920D01*
X148917412Y-85540269D01*
X149133645Y-85735178D01*
X149259255Y-85810000D01*
X149133645Y-85884822D01*
X148917412Y-86079731D01*
X148743359Y-86313080D01*
X148618175Y-86575901D01*
X148573524Y-86723110D01*
X148694845Y-86953000D01*
X149888000Y-86953000D01*
X149888000Y-84667000D01*
X150142000Y-84667000D01*
X150142000Y-86953000D01*
X151335155Y-86953000D01*
X151456476Y-86723110D01*
X151411825Y-86575901D01*
X151286641Y-86313080D01*
X151112588Y-86079731D01*
X150896355Y-85884822D01*
X150770745Y-85810000D01*
X150896355Y-85735178D01*
X151112588Y-85540269D01*
X151286641Y-85306920D01*
X151411825Y-85044099D01*
X151456476Y-84896890D01*
X151335155Y-84667000D01*
X150142000Y-84667000D01*
X149888000Y-84667000D01*
X148694845Y-84667000D01*
X148573524Y-84896890D01*
X126979688Y-84896890D01*
X128991579Y-82885000D01*
X148530375Y-82885000D01*
X148539188Y-82974482D01*
X148575498Y-83094180D01*
X148634463Y-83204494D01*
X148713815Y-83301185D01*
X148810506Y-83380537D01*
X148920820Y-83439502D01*
X149001466Y-83463966D01*
X148917412Y-83539731D01*
X148743359Y-83773080D01*
X148618175Y-84035901D01*
X148573524Y-84183110D01*
X148694845Y-84413000D01*
X149888000Y-84413000D01*
X149888000Y-84393000D01*
X150142000Y-84393000D01*
X150142000Y-84413000D01*
X151335155Y-84413000D01*
X151456476Y-84183110D01*
X151411825Y-84035901D01*
X151286641Y-83773080D01*
X151112588Y-83539731D01*
X151028534Y-83463966D01*
X151109180Y-83439502D01*
X151219494Y-83380537D01*
X151316185Y-83301185D01*
X151395537Y-83204494D01*
X151454502Y-83094180D01*
X151490812Y-82974482D01*
X151503072Y-82850000D01*
X151503072Y-81150000D01*
X151490812Y-81025518D01*
X151454502Y-80905820D01*
X151395537Y-80795506D01*
X151316185Y-80698815D01*
X151219494Y-80619463D01*
X151109180Y-80560498D01*
X150989482Y-80524188D01*
X150865000Y-80511928D01*
X149165000Y-80511928D01*
X149040518Y-80524188D01*
X148920820Y-80560498D01*
X148810506Y-80619463D01*
X148713815Y-80698815D01*
X148634463Y-80795506D01*
X148575498Y-80905820D01*
X148539188Y-81025518D01*
X148530375Y-81115000D01*
X128668465Y-81115000D01*
X128624999Y-81110719D01*
X128581533Y-81115000D01*
X128581523Y-81115000D01*
X128451510Y-81127805D01*
X128284687Y-81178411D01*
X128130941Y-81260589D01*
X128130939Y-81260590D01*
X128130940Y-81260590D01*
X128029953Y-81343468D01*
X128029951Y-81343470D01*
X127996183Y-81371183D01*
X127968470Y-81404951D01*
X115764956Y-93608466D01*
X115731183Y-93636183D01*
X115620589Y-93770942D01*
X115538411Y-93924688D01*
X115487805Y-94091511D01*
X115475000Y-94221524D01*
X115475000Y-94221531D01*
X115470719Y-94265000D01*
X115475000Y-94308469D01*
X115475001Y-102655478D01*
X115445241Y-102675363D01*
X115245363Y-102875241D01*
X115088320Y-103110273D01*
X114980147Y-103371426D01*
X114925000Y-103648665D01*
X97425000Y-103648665D01*
X97425000Y-64102702D01*
X109831903Y-64102702D01*
X109903486Y-64346671D01*
X110158996Y-64467571D01*
X110433184Y-64536300D01*
X110715512Y-64550217D01*
X110995130Y-64508787D01*
X111261292Y-64413603D01*
X111386514Y-64346671D01*
X111458097Y-64102702D01*
X110645000Y-63289605D01*
X109831903Y-64102702D01*
X97425000Y-64102702D01*
X97425000Y-63180512D01*
X109204783Y-63180512D01*
X109246213Y-63460130D01*
X109341397Y-63726292D01*
X109408329Y-63851514D01*
X109652298Y-63923097D01*
X110465395Y-63110000D01*
X110824605Y-63110000D01*
X111637702Y-63923097D01*
X111881671Y-63851514D01*
X112002571Y-63596004D01*
X112071300Y-63321816D01*
X112085217Y-63039488D01*
X112043787Y-62759870D01*
X111948603Y-62493708D01*
X111881671Y-62368486D01*
X111637702Y-62296903D01*
X110824605Y-63110000D01*
X110465395Y-63110000D01*
X109652298Y-62296903D01*
X109408329Y-62368486D01*
X109287429Y-62623996D01*
X109218700Y-62898184D01*
X109204783Y-63180512D01*
X97425000Y-63180512D01*
X97425000Y-38958685D01*
X99653686Y-36730000D01*
X119731315Y-36730000D01*
X121318242Y-38316928D01*
X120180000Y-38316928D01*
X120055518Y-38329188D01*
X119935820Y-38365498D01*
X119825506Y-38424463D01*
X119728815Y-38503815D01*
X119649463Y-38600506D01*
X119590498Y-38710820D01*
X119554188Y-38830518D01*
X119541928Y-38955000D01*
X119541928Y-40555000D01*
X119554188Y-40679482D01*
X119590498Y-40799180D01*
X119649463Y-40909494D01*
X119728815Y-41006185D01*
X119825506Y-41085537D01*
X119935820Y-41144502D01*
X120055518Y-41180812D01*
X120095000Y-41184701D01*
X120095001Y-45463420D01*
X119068072Y-46490349D01*
X119068072Y-45840000D01*
X119055812Y-45715518D01*
X119019502Y-45595820D01*
X118960537Y-45485506D01*
X118881185Y-45388815D01*
X118784494Y-45309463D01*
X118674180Y-45250498D01*
X118554482Y-45214188D01*
X118430000Y-45201928D01*
X116830000Y-45201928D01*
X116705518Y-45214188D01*
X116585820Y-45250498D01*
X116475506Y-45309463D01*
X116378815Y-45388815D01*
X116299463Y-45485506D01*
X116240498Y-45595820D01*
X116204188Y-45715518D01*
X116200299Y-45755000D01*
X115133469Y-45755000D01*
X115090000Y-45750719D01*
X115046531Y-45755000D01*
X115046523Y-45755000D01*
X114916510Y-45767805D01*
X114749687Y-45818411D01*
X114659136Y-45866811D01*
X114595941Y-45900589D01*
X114494953Y-45983468D01*
X114494951Y-45983470D01*
X114461183Y-46011183D01*
X114433470Y-46044951D01*
X113413422Y-47065000D01*
X112074701Y-47065000D01*
X112070812Y-47025518D01*
X112034502Y-46905820D01*
X111975537Y-46795506D01*
X111896185Y-46698815D01*
X111799494Y-46619463D01*
X111689180Y-46560498D01*
X111569482Y-46524188D01*
X111445000Y-46511928D01*
X109845000Y-46511928D01*
X109720518Y-46524188D01*
X109600820Y-46560498D01*
X109490506Y-46619463D01*
X109393815Y-46698815D01*
X109314463Y-46795506D01*
X109255498Y-46905820D01*
X109219188Y-47025518D01*
X109206928Y-47150000D01*
X109206928Y-48750000D01*
X109219188Y-48874482D01*
X109255498Y-48994180D01*
X109314463Y-49104494D01*
X109393815Y-49201185D01*
X109490506Y-49280537D01*
X109600820Y-49339502D01*
X109696943Y-49368661D01*
X109530363Y-49535241D01*
X109373320Y-49770273D01*
X109265147Y-50031426D01*
X109210000Y-50308665D01*
X109210000Y-50591335D01*
X109265147Y-50868574D01*
X109373320Y-51129727D01*
X109530363Y-51364759D01*
X109730241Y-51564637D01*
X109965273Y-51721680D01*
X110226426Y-51829853D01*
X110503665Y-51885000D01*
X110786335Y-51885000D01*
X111063574Y-51829853D01*
X111324727Y-51721680D01*
X111559759Y-51564637D01*
X111759637Y-51364759D01*
X111779521Y-51335000D01*
X114088422Y-51335000D01*
X115068470Y-52315049D01*
X115096183Y-52348817D01*
X115129951Y-52376530D01*
X115129953Y-52376532D01*
X115187865Y-52424059D01*
X115230941Y-52459411D01*
X115384687Y-52541589D01*
X115551510Y-52592195D01*
X115681523Y-52605000D01*
X115681533Y-52605000D01*
X115724999Y-52609281D01*
X115768465Y-52605000D01*
X116495479Y-52605000D01*
X116515363Y-52634759D01*
X116715241Y-52834637D01*
X116947759Y-52990000D01*
X116715241Y-53145363D01*
X116515363Y-53345241D01*
X116495479Y-53375000D01*
X112074701Y-53375000D01*
X112070812Y-53335518D01*
X112034502Y-53215820D01*
X111975537Y-53105506D01*
X111896185Y-53008815D01*
X111799494Y-52929463D01*
X111689180Y-52870498D01*
X111569482Y-52834188D01*
X111445000Y-52821928D01*
X109845000Y-52821928D01*
X109720518Y-52834188D01*
X109600820Y-52870498D01*
X109490506Y-52929463D01*
X109393815Y-53008815D01*
X109314463Y-53105506D01*
X109255498Y-53215820D01*
X109219188Y-53335518D01*
X109206928Y-53460000D01*
X109206928Y-55060000D01*
X109219188Y-55184482D01*
X109255498Y-55304180D01*
X109314463Y-55414494D01*
X109393815Y-55511185D01*
X109490506Y-55590537D01*
X109600820Y-55649502D01*
X109696943Y-55678661D01*
X109530363Y-55845241D01*
X109373320Y-56080273D01*
X109265147Y-56341426D01*
X109210000Y-56618665D01*
X109210000Y-56901335D01*
X109265147Y-57178574D01*
X109373320Y-57439727D01*
X109530363Y-57674759D01*
X109730241Y-57874637D01*
X109965273Y-58031680D01*
X110226426Y-58139853D01*
X110503665Y-58195000D01*
X110786335Y-58195000D01*
X111063574Y-58139853D01*
X111324727Y-58031680D01*
X111559759Y-57874637D01*
X111759637Y-57674759D01*
X111779521Y-57645000D01*
X116468752Y-57645000D01*
X116515363Y-57714759D01*
X116715241Y-57914637D01*
X116947759Y-58070000D01*
X116715241Y-58225363D01*
X116515363Y-58425241D01*
X116495479Y-58455000D01*
X115133465Y-58455000D01*
X115089999Y-58450719D01*
X115046533Y-58455000D01*
X115046523Y-58455000D01*
X114916510Y-58467805D01*
X114749687Y-58518411D01*
X114595941Y-58600589D01*
X114595939Y-58600590D01*
X114595940Y-58600590D01*
X114494953Y-58683468D01*
X114494951Y-58683470D01*
X114461183Y-58711183D01*
X114433470Y-58744951D01*
X113453422Y-59725000D01*
X112074701Y-59725000D01*
X112070812Y-59685518D01*
X112034502Y-59565820D01*
X111975537Y-59455506D01*
X111896185Y-59358815D01*
X111799494Y-59279463D01*
X111689180Y-59220498D01*
X111569482Y-59184188D01*
X111445000Y-59171928D01*
X109845000Y-59171928D01*
X109720518Y-59184188D01*
X109600820Y-59220498D01*
X109490506Y-59279463D01*
X109393815Y-59358815D01*
X109314463Y-59455506D01*
X109255498Y-59565820D01*
X109219188Y-59685518D01*
X109206928Y-59810000D01*
X109206928Y-61410000D01*
X109219188Y-61534482D01*
X109255498Y-61654180D01*
X109314463Y-61764494D01*
X109393815Y-61861185D01*
X109490506Y-61940537D01*
X109600820Y-61999502D01*
X109720518Y-62035812D01*
X109845000Y-62048072D01*
X109852215Y-62048072D01*
X109831903Y-62117298D01*
X110645000Y-62930395D01*
X111458097Y-62117298D01*
X111437785Y-62048072D01*
X111445000Y-62048072D01*
X111569482Y-62035812D01*
X111689180Y-61999502D01*
X111799494Y-61940537D01*
X111896185Y-61861185D01*
X111975537Y-61764494D01*
X112034502Y-61654180D01*
X112070812Y-61534482D01*
X112074701Y-61495000D01*
X113588421Y-61495000D01*
X113224951Y-61858471D01*
X113191184Y-61886183D01*
X113163471Y-61919951D01*
X113163468Y-61919954D01*
X113080590Y-62020941D01*
X112998412Y-62174687D01*
X112947805Y-62341510D01*
X112930719Y-62515000D01*
X112935001Y-62558479D01*
X112935000Y-65011531D01*
X112930719Y-65055000D01*
X112935000Y-65098469D01*
X112935000Y-65098476D01*
X112946212Y-65212314D01*
X112947805Y-65228490D01*
X112963157Y-65279096D01*
X112998411Y-65395312D01*
X113080589Y-65549058D01*
X113191183Y-65683817D01*
X113224956Y-65711534D01*
X115068470Y-67555049D01*
X115096183Y-67588817D01*
X115129951Y-67616530D01*
X115129953Y-67616532D01*
X115230940Y-67699410D01*
X115230941Y-67699411D01*
X115384687Y-67781589D01*
X115551510Y-67832195D01*
X115681523Y-67845000D01*
X115681531Y-67845000D01*
X115725000Y-67849281D01*
X115768469Y-67845000D01*
X131556531Y-67845000D01*
X131600000Y-67849281D01*
X131643469Y-67845000D01*
X131643477Y-67845000D01*
X131773490Y-67832195D01*
X131940313Y-67781589D01*
X132094059Y-67699411D01*
X132228817Y-67588817D01*
X132256534Y-67555044D01*
X135561580Y-64249999D01*
X145056612Y-64249999D01*
X144844893Y-64566859D01*
X144646261Y-65046399D01*
X144545000Y-65555475D01*
X144545000Y-66074525D01*
X144646261Y-66583601D01*
X144844893Y-67063141D01*
X145133262Y-67494715D01*
X145500285Y-67861738D01*
X145931859Y-68150107D01*
X146411399Y-68348739D01*
X146920475Y-68450000D01*
X147439525Y-68450000D01*
X147948601Y-68348739D01*
X148428141Y-68150107D01*
X148859715Y-67861738D01*
X149226738Y-67494715D01*
X149515107Y-67063141D01*
X149713739Y-66583601D01*
X149815000Y-66074525D01*
X149815000Y-65555475D01*
X149713739Y-65046399D01*
X149515107Y-64566859D01*
X149303388Y-64249999D01*
X150391532Y-64249999D01*
X150435001Y-64254280D01*
X150478470Y-64249999D01*
X150478478Y-64249999D01*
X150608491Y-64237194D01*
X150775314Y-64186588D01*
X150929060Y-64104410D01*
X151063818Y-63993816D01*
X151091535Y-63960043D01*
X153150049Y-61901530D01*
X153183817Y-61873817D01*
X153294411Y-61739059D01*
X153376589Y-61585313D01*
X153427195Y-61418490D01*
X153440000Y-61288477D01*
X153440000Y-61288467D01*
X153444281Y-61245001D01*
X153440000Y-61201535D01*
X153440000Y-53033465D01*
X153444281Y-52989999D01*
X153440000Y-52946533D01*
X153440000Y-52946523D01*
X153427195Y-52816510D01*
X153376589Y-52649687D01*
X153294411Y-52495941D01*
X153240294Y-52430000D01*
X153211532Y-52394953D01*
X153211530Y-52394951D01*
X153183817Y-52361183D01*
X153150050Y-52333471D01*
X152151534Y-51334956D01*
X152123817Y-51301183D01*
X151989059Y-51190589D01*
X151835313Y-51108411D01*
X151668490Y-51057805D01*
X151538477Y-51045000D01*
X151538469Y-51045000D01*
X151495000Y-51040719D01*
X151451531Y-51045000D01*
X150854521Y-51045000D01*
X150834637Y-51015241D01*
X150634759Y-50815363D01*
X150399727Y-50658320D01*
X150138574Y-50550147D01*
X150112699Y-50545000D01*
X150138574Y-50539853D01*
X150399727Y-50431680D01*
X150634759Y-50274637D01*
X150834637Y-50074759D01*
X150991680Y-49839727D01*
X151099853Y-49578574D01*
X151155000Y-49301335D01*
X151155000Y-49018665D01*
X151099853Y-48741426D01*
X150991680Y-48480273D01*
X150834637Y-48245241D01*
X150634759Y-48045363D01*
X150399727Y-47888320D01*
X150138574Y-47780147D01*
X149861335Y-47725000D01*
X149578665Y-47725000D01*
X149301426Y-47780147D01*
X149040273Y-47888320D01*
X148805241Y-48045363D01*
X148605363Y-48245241D01*
X148448320Y-48480273D01*
X148340147Y-48741426D01*
X148285000Y-49018665D01*
X148285000Y-49301335D01*
X148340147Y-49578574D01*
X148448320Y-49839727D01*
X148605363Y-50074759D01*
X148805241Y-50274637D01*
X149040273Y-50431680D01*
X149301426Y-50539853D01*
X149327301Y-50545000D01*
X149301426Y-50550147D01*
X149040273Y-50658320D01*
X148805241Y-50815363D01*
X148605363Y-51015241D01*
X148448320Y-51250273D01*
X148340147Y-51511426D01*
X148285000Y-51788665D01*
X148285000Y-52071335D01*
X148340147Y-52348574D01*
X148448320Y-52609727D01*
X148605363Y-52844759D01*
X148805241Y-53044637D01*
X149040273Y-53201680D01*
X149301426Y-53309853D01*
X149327301Y-53315000D01*
X149301426Y-53320147D01*
X149040273Y-53428320D01*
X148805241Y-53585363D01*
X148605363Y-53785241D01*
X148448320Y-54020273D01*
X148340147Y-54281426D01*
X148285000Y-54558665D01*
X148285000Y-54841335D01*
X148340147Y-55118574D01*
X148448320Y-55379727D01*
X148605363Y-55614759D01*
X148805241Y-55814637D01*
X149040273Y-55971680D01*
X149301426Y-56079853D01*
X149327301Y-56085000D01*
X149301426Y-56090147D01*
X149040273Y-56198320D01*
X148805241Y-56355363D01*
X148605363Y-56555241D01*
X148448320Y-56790273D01*
X148340147Y-57051426D01*
X148285000Y-57328665D01*
X148285000Y-57611335D01*
X148340147Y-57888574D01*
X148448320Y-58149727D01*
X148605363Y-58384759D01*
X148805241Y-58584637D01*
X149040273Y-58741680D01*
X149301426Y-58849853D01*
X149578665Y-58905000D01*
X149861335Y-58905000D01*
X150138574Y-58849853D01*
X150399727Y-58741680D01*
X150400001Y-58741497D01*
X150400001Y-59919457D01*
X149959459Y-60360000D01*
X134183469Y-60360000D01*
X134140000Y-60355719D01*
X134096531Y-60360000D01*
X134096523Y-60360000D01*
X133981306Y-60371348D01*
X133966509Y-60372805D01*
X133915903Y-60388157D01*
X133799687Y-60423411D01*
X133645941Y-60505589D01*
X133645939Y-60505590D01*
X133645940Y-60505590D01*
X133544953Y-60588468D01*
X133544951Y-60588470D01*
X133511183Y-60616183D01*
X133483470Y-60649951D01*
X131888421Y-62245001D01*
X126640509Y-62245001D01*
X126685000Y-62021335D01*
X126685000Y-61738665D01*
X126629853Y-61461426D01*
X126521680Y-61200273D01*
X126364637Y-60965241D01*
X126164759Y-60765363D01*
X125932241Y-60610000D01*
X126164759Y-60454637D01*
X126364637Y-60254759D01*
X126521680Y-60019727D01*
X126629853Y-59758574D01*
X126685000Y-59481335D01*
X126685000Y-59198665D01*
X126629853Y-58921426D01*
X126521680Y-58660273D01*
X126364637Y-58425241D01*
X126164759Y-58225363D01*
X125932241Y-58070000D01*
X126164759Y-57914637D01*
X126364637Y-57714759D01*
X126521680Y-57479727D01*
X126629853Y-57218574D01*
X126685000Y-56941335D01*
X126685000Y-56658665D01*
X126629853Y-56381426D01*
X126521680Y-56120273D01*
X126364637Y-55885241D01*
X126164759Y-55685363D01*
X125932241Y-55530000D01*
X126164759Y-55374637D01*
X126364637Y-55174759D01*
X126384521Y-55145000D01*
X141393422Y-55145000D01*
X142928470Y-56680049D01*
X142956183Y-56713817D01*
X142989951Y-56741530D01*
X142989953Y-56741532D01*
X143018216Y-56764727D01*
X143090941Y-56824411D01*
X143244687Y-56906589D01*
X143411510Y-56957195D01*
X143541523Y-56970000D01*
X143541531Y-56970000D01*
X143585000Y-56974281D01*
X143628469Y-56970000D01*
X145745479Y-56970000D01*
X145765363Y-56999759D01*
X145965241Y-57199637D01*
X146200273Y-57356680D01*
X146345725Y-57416928D01*
X146080000Y-57416928D01*
X145955518Y-57429188D01*
X145835820Y-57465498D01*
X145725506Y-57524463D01*
X145628815Y-57603815D01*
X145549463Y-57700506D01*
X145490498Y-57810820D01*
X145454188Y-57930518D01*
X145441928Y-58055000D01*
X145441928Y-59655000D01*
X145454188Y-59779482D01*
X145490498Y-59899180D01*
X145549463Y-60009494D01*
X145628815Y-60106185D01*
X145725506Y-60185537D01*
X145835820Y-60244502D01*
X145955518Y-60280812D01*
X146080000Y-60293072D01*
X147680000Y-60293072D01*
X147804482Y-60280812D01*
X147924180Y-60244502D01*
X148034494Y-60185537D01*
X148131185Y-60106185D01*
X148210537Y-60009494D01*
X148269502Y-59899180D01*
X148305812Y-59779482D01*
X148318072Y-59655000D01*
X148318072Y-58055000D01*
X148305812Y-57930518D01*
X148269502Y-57810820D01*
X148210537Y-57700506D01*
X148131185Y-57603815D01*
X148034494Y-57524463D01*
X147924180Y-57465498D01*
X147804482Y-57429188D01*
X147680000Y-57416928D01*
X147414275Y-57416928D01*
X147559727Y-57356680D01*
X147794759Y-57199637D01*
X147994637Y-56999759D01*
X148151680Y-56764727D01*
X148259853Y-56503574D01*
X148315000Y-56226335D01*
X148315000Y-55943665D01*
X148259853Y-55666426D01*
X148151680Y-55405273D01*
X147994637Y-55170241D01*
X147794759Y-54970363D01*
X147559727Y-54813320D01*
X147298574Y-54705147D01*
X147272699Y-54700000D01*
X147298574Y-54694853D01*
X147559727Y-54586680D01*
X147794759Y-54429637D01*
X147994637Y-54229759D01*
X148151680Y-53994727D01*
X148259853Y-53733574D01*
X148315000Y-53456335D01*
X148315000Y-53173665D01*
X148259853Y-52896426D01*
X148151680Y-52635273D01*
X147994637Y-52400241D01*
X147794759Y-52200363D01*
X147559727Y-52043320D01*
X147298574Y-51935147D01*
X147272699Y-51930000D01*
X147298574Y-51924853D01*
X147559727Y-51816680D01*
X147794759Y-51659637D01*
X147994637Y-51459759D01*
X148151680Y-51224727D01*
X148259853Y-50963574D01*
X148315000Y-50686335D01*
X148315000Y-50403665D01*
X148259853Y-50126426D01*
X148151680Y-49865273D01*
X147994637Y-49630241D01*
X147794759Y-49430363D01*
X147559727Y-49273320D01*
X147298574Y-49165147D01*
X147270118Y-49159487D01*
X147496292Y-49078603D01*
X147621514Y-49011671D01*
X147693097Y-48767702D01*
X146880000Y-47954605D01*
X146066903Y-48767702D01*
X146138486Y-49011671D01*
X146393996Y-49132571D01*
X146496289Y-49158212D01*
X146461426Y-49165147D01*
X146200273Y-49273320D01*
X145965241Y-49430363D01*
X145765363Y-49630241D01*
X145608320Y-49865273D01*
X145500147Y-50126426D01*
X145445000Y-50403665D01*
X145445000Y-50686335D01*
X145500147Y-50963574D01*
X145608320Y-51224727D01*
X145765363Y-51459759D01*
X145965241Y-51659637D01*
X146200273Y-51816680D01*
X146461426Y-51924853D01*
X146487301Y-51930000D01*
X146461426Y-51935147D01*
X146200273Y-52043320D01*
X145965241Y-52200363D01*
X145765363Y-52400241D01*
X145745479Y-52430000D01*
X143721579Y-52430000D01*
X142416534Y-51124956D01*
X142388817Y-51091183D01*
X142254059Y-50980589D01*
X142100313Y-50898411D01*
X141933490Y-50847805D01*
X141803477Y-50835000D01*
X141803469Y-50835000D01*
X141760000Y-50830719D01*
X141716531Y-50835000D01*
X126384521Y-50835000D01*
X126364637Y-50805241D01*
X126164759Y-50605363D01*
X125929727Y-50448320D01*
X125919135Y-50443933D01*
X126105131Y-50332385D01*
X126313519Y-50143414D01*
X126481037Y-49917420D01*
X126601246Y-49663087D01*
X126641904Y-49529039D01*
X126519915Y-49307000D01*
X125377000Y-49307000D01*
X125377000Y-49327000D01*
X125123000Y-49327000D01*
X125123000Y-49307000D01*
X123980085Y-49307000D01*
X123858096Y-49529039D01*
X123898754Y-49663087D01*
X124018963Y-49917420D01*
X124186481Y-50143414D01*
X124394869Y-50332385D01*
X124580865Y-50443933D01*
X124570273Y-50448320D01*
X124335241Y-50605363D01*
X124135363Y-50805241D01*
X123978320Y-51040273D01*
X123870147Y-51301426D01*
X123815000Y-51578665D01*
X123815000Y-51861335D01*
X123870147Y-52138574D01*
X123978320Y-52399727D01*
X124135363Y-52634759D01*
X124335241Y-52834637D01*
X124567759Y-52990000D01*
X124335241Y-53145363D01*
X124135363Y-53345241D01*
X123978320Y-53580273D01*
X123870147Y-53841426D01*
X123815000Y-54118665D01*
X123815000Y-54401335D01*
X123870147Y-54678574D01*
X123978320Y-54939727D01*
X124135363Y-55174759D01*
X124335241Y-55374637D01*
X124567759Y-55530000D01*
X124335241Y-55685363D01*
X124135363Y-55885241D01*
X123978320Y-56120273D01*
X123870147Y-56381426D01*
X123815000Y-56658665D01*
X123815000Y-56941335D01*
X123870147Y-57218574D01*
X123978320Y-57479727D01*
X124135363Y-57714759D01*
X124335241Y-57914637D01*
X124567759Y-58070000D01*
X124335241Y-58225363D01*
X124135363Y-58425241D01*
X123978320Y-58660273D01*
X123870147Y-58921426D01*
X123815000Y-59198665D01*
X123815000Y-59481335D01*
X123870147Y-59758574D01*
X123978320Y-60019727D01*
X124135363Y-60254759D01*
X124335241Y-60454637D01*
X124567759Y-60610000D01*
X124335241Y-60765363D01*
X124135363Y-60965241D01*
X123978320Y-61200273D01*
X123870147Y-61461426D01*
X123815000Y-61738665D01*
X123815000Y-62021335D01*
X123859491Y-62245001D01*
X119020509Y-62245001D01*
X119065000Y-62021335D01*
X119065000Y-61738665D01*
X119009853Y-61461426D01*
X118901680Y-61200273D01*
X118744637Y-60965241D01*
X118544759Y-60765363D01*
X118312241Y-60610000D01*
X118544759Y-60454637D01*
X118744637Y-60254759D01*
X118901680Y-60019727D01*
X119009853Y-59758574D01*
X119065000Y-59481335D01*
X119065000Y-59198665D01*
X119009853Y-58921426D01*
X118901680Y-58660273D01*
X118744637Y-58425241D01*
X118544759Y-58225363D01*
X118312241Y-58070000D01*
X118544759Y-57914637D01*
X118744637Y-57714759D01*
X118901680Y-57479727D01*
X119009853Y-57218574D01*
X119065000Y-56941335D01*
X119065000Y-56658665D01*
X119009853Y-56381426D01*
X118901680Y-56120273D01*
X118744637Y-55885241D01*
X118544759Y-55685363D01*
X118312241Y-55530000D01*
X118544759Y-55374637D01*
X118744637Y-55174759D01*
X118901680Y-54939727D01*
X119009853Y-54678574D01*
X119065000Y-54401335D01*
X119065000Y-54118665D01*
X119009853Y-53841426D01*
X118901680Y-53580273D01*
X118744637Y-53345241D01*
X118544759Y-53145363D01*
X118312241Y-52990000D01*
X118544759Y-52834637D01*
X118744637Y-52634759D01*
X118901680Y-52399727D01*
X119009853Y-52138574D01*
X119065000Y-51861335D01*
X119065000Y-51578665D01*
X119009853Y-51301426D01*
X118901680Y-51040273D01*
X118744637Y-50805241D01*
X118544759Y-50605363D01*
X118312241Y-50450000D01*
X118544759Y-50294637D01*
X118744637Y-50094759D01*
X118901680Y-49859727D01*
X119009853Y-49598574D01*
X119065000Y-49321335D01*
X119065000Y-49038665D01*
X119058017Y-49003561D01*
X121575049Y-46486530D01*
X121608817Y-46458817D01*
X121682946Y-46368492D01*
X121719410Y-46324060D01*
X121719411Y-46324059D01*
X121801589Y-46170313D01*
X121852195Y-46003490D01*
X121865000Y-45873477D01*
X121865000Y-45873467D01*
X121869281Y-45830001D01*
X121865000Y-45786535D01*
X121865000Y-41184701D01*
X121904482Y-41180812D01*
X122024180Y-41144502D01*
X122095000Y-41106647D01*
X122095001Y-44801961D01*
X122088300Y-44870000D01*
X122115040Y-45141507D01*
X122194236Y-45402580D01*
X122322844Y-45643188D01*
X122452548Y-45801233D01*
X122452551Y-45801236D01*
X122495920Y-45854081D01*
X122548764Y-45897449D01*
X123992977Y-47341663D01*
X124135363Y-47554759D01*
X124335241Y-47754637D01*
X124570273Y-47911680D01*
X124580865Y-47916067D01*
X124394869Y-48027615D01*
X124186481Y-48216586D01*
X124018963Y-48442580D01*
X123898754Y-48696913D01*
X123858096Y-48830961D01*
X123980085Y-49053000D01*
X125123000Y-49053000D01*
X125123000Y-49033000D01*
X125377000Y-49033000D01*
X125377000Y-49053000D01*
X126519915Y-49053000D01*
X126641904Y-48830961D01*
X126601246Y-48696913D01*
X126481037Y-48442580D01*
X126313519Y-48216586D01*
X126105131Y-48027615D01*
X125919135Y-47916067D01*
X125929727Y-47911680D01*
X126028754Y-47845512D01*
X145439783Y-47845512D01*
X145481213Y-48125130D01*
X145576397Y-48391292D01*
X145643329Y-48516514D01*
X145887298Y-48588097D01*
X146700395Y-47775000D01*
X147059605Y-47775000D01*
X147872702Y-48588097D01*
X148116671Y-48516514D01*
X148237571Y-48261004D01*
X148306300Y-47986816D01*
X148320217Y-47704488D01*
X148278787Y-47424870D01*
X148183603Y-47158708D01*
X148116671Y-47033486D01*
X147872702Y-46961903D01*
X147059605Y-47775000D01*
X146700395Y-47775000D01*
X145887298Y-46961903D01*
X145643329Y-47033486D01*
X145522429Y-47288996D01*
X145453700Y-47563184D01*
X145439783Y-47845512D01*
X126028754Y-47845512D01*
X126164759Y-47754637D01*
X126364637Y-47554759D01*
X126521680Y-47319727D01*
X126629853Y-47058574D01*
X126684808Y-46782298D01*
X146066903Y-46782298D01*
X146880000Y-47595395D01*
X147693097Y-46782298D01*
X147621514Y-46538329D01*
X147366004Y-46417429D01*
X147091816Y-46348700D01*
X146809488Y-46334783D01*
X146529870Y-46376213D01*
X146263708Y-46471397D01*
X146138486Y-46538329D01*
X146066903Y-46782298D01*
X126684808Y-46782298D01*
X126685000Y-46781335D01*
X126685000Y-46498665D01*
X126629853Y-46221426D01*
X126521680Y-45960273D01*
X126364637Y-45725241D01*
X126164759Y-45525363D01*
X125951663Y-45382977D01*
X124865000Y-44296315D01*
X124865000Y-40555475D01*
X144545000Y-40555475D01*
X144545000Y-41074525D01*
X144646261Y-41583601D01*
X144844893Y-42063141D01*
X145133262Y-42494715D01*
X145500285Y-42861738D01*
X145931859Y-43150107D01*
X146411399Y-43348739D01*
X146920475Y-43450000D01*
X147439525Y-43450000D01*
X147948601Y-43348739D01*
X148428141Y-43150107D01*
X148859715Y-42861738D01*
X149226738Y-42494715D01*
X149515107Y-42063141D01*
X149713739Y-41583601D01*
X149815000Y-41074525D01*
X149815000Y-40555475D01*
X149713739Y-40046399D01*
X149515107Y-39566859D01*
X149226738Y-39135285D01*
X148859715Y-38768262D01*
X148428141Y-38479893D01*
X147948601Y-38281261D01*
X147439525Y-38180000D01*
X146920475Y-38180000D01*
X146411399Y-38281261D01*
X145931859Y-38479893D01*
X145500285Y-38768262D01*
X145133262Y-39135285D01*
X144844893Y-39566859D01*
X144646261Y-40046399D01*
X144545000Y-40555475D01*
X124865000Y-40555475D01*
X124865000Y-40147699D01*
X124915000Y-39896335D01*
X124915000Y-39613665D01*
X124865000Y-39362301D01*
X124865000Y-38588026D01*
X124871700Y-38519999D01*
X124865000Y-38451972D01*
X124865000Y-38451963D01*
X124844960Y-38248493D01*
X124765764Y-37987419D01*
X124637157Y-37746812D01*
X124548259Y-37638490D01*
X124507452Y-37588766D01*
X124507450Y-37588764D01*
X124464081Y-37535919D01*
X124411236Y-37492550D01*
X121332454Y-34413769D01*
X121289081Y-34360919D01*
X121078188Y-34187843D01*
X120837581Y-34059236D01*
X120576507Y-33980040D01*
X120373037Y-33960000D01*
X120373029Y-33960000D01*
X120305000Y-33953300D01*
X120236971Y-33960000D01*
X99148026Y-33960000D01*
X99079999Y-33953300D01*
X99011972Y-33960000D01*
X99011963Y-33960000D01*
X98808493Y-33980040D01*
X98547419Y-34059236D01*
X98306812Y-34187843D01*
X98306810Y-34187844D01*
X98306811Y-34187844D01*
X98148766Y-34317548D01*
X98148764Y-34317550D01*
X98095919Y-34360919D01*
X98052550Y-34413764D01*
X95108765Y-37357550D01*
X95055919Y-37400920D01*
X95012550Y-37453765D01*
X95012548Y-37453767D01*
X94967650Y-37508476D01*
X94882843Y-37611813D01*
X94868584Y-37638490D01*
X94754236Y-37852420D01*
X94677258Y-38106183D01*
X94675040Y-38113494D01*
X94655000Y-38316964D01*
X94655000Y-38316971D01*
X94648300Y-38385000D01*
X94655000Y-38453029D01*
X94655001Y-108120000D01*
X59278026Y-108120000D01*
X59209999Y-108113300D01*
X59141972Y-108120000D01*
X59141963Y-108120000D01*
X58938493Y-108140040D01*
X58677419Y-108219236D01*
X58436812Y-108347843D01*
X58436810Y-108347844D01*
X58436811Y-108347844D01*
X58278766Y-108477548D01*
X58278764Y-108477550D01*
X58225919Y-108520919D01*
X58182550Y-108573764D01*
X56853764Y-109902551D01*
X56800920Y-109945919D01*
X56757551Y-109998764D01*
X56757548Y-109998767D01*
X56627844Y-110156812D01*
X56499236Y-110397420D01*
X56420040Y-110658493D01*
X56393300Y-110930000D01*
X56400001Y-110998039D01*
X56400000Y-115032546D01*
X56340820Y-115050498D01*
X56230506Y-115109463D01*
X56133815Y-115188815D01*
X56054463Y-115285506D01*
X55995498Y-115395820D01*
X55977546Y-115455000D01*
X52607454Y-115455000D01*
X52589502Y-115395820D01*
X52530537Y-115285506D01*
X52451185Y-115188815D01*
X52354494Y-115109463D01*
X52244180Y-115050498D01*
X52124482Y-115014188D01*
X52000000Y-115001928D01*
X49600000Y-115001928D01*
X49475518Y-115014188D01*
X49355820Y-115050498D01*
X49245506Y-115109463D01*
X49148815Y-115188815D01*
X49069463Y-115285506D01*
X49010498Y-115395820D01*
X48974188Y-115515518D01*
X48961928Y-115640000D01*
X30660000Y-115640000D01*
X30660000Y-99251806D01*
X49011801Y-99251806D01*
X49126500Y-99592754D01*
X49305511Y-99904774D01*
X49541954Y-100175875D01*
X49826743Y-100395639D01*
X50148934Y-100555621D01*
X50388195Y-100628195D01*
X50673000Y-100511432D01*
X50673000Y-98967000D01*
X50927000Y-98967000D01*
X50927000Y-100511432D01*
X51211805Y-100628195D01*
X51451066Y-100555621D01*
X51773257Y-100395639D01*
X52058046Y-100175875D01*
X52294489Y-99904774D01*
X52473500Y-99592754D01*
X52588199Y-99251806D01*
X55996801Y-99251806D01*
X56111500Y-99592754D01*
X56290511Y-99904774D01*
X56526954Y-100175875D01*
X56811743Y-100395639D01*
X57133934Y-100555621D01*
X57373195Y-100628195D01*
X57658000Y-100511432D01*
X57658000Y-98967000D01*
X57912000Y-98967000D01*
X57912000Y-100511432D01*
X58196805Y-100628195D01*
X58436066Y-100555621D01*
X58758257Y-100395639D01*
X59043046Y-100175875D01*
X59279489Y-99904774D01*
X59458500Y-99592754D01*
X59573199Y-99251806D01*
X59456854Y-98967000D01*
X57912000Y-98967000D01*
X57658000Y-98967000D01*
X56113146Y-98967000D01*
X55996801Y-99251806D01*
X52588199Y-99251806D01*
X52471854Y-98967000D01*
X50927000Y-98967000D01*
X50673000Y-98967000D01*
X49128146Y-98967000D01*
X49011801Y-99251806D01*
X30660000Y-99251806D01*
X30660000Y-98428194D01*
X49011801Y-98428194D01*
X49128146Y-98713000D01*
X50673000Y-98713000D01*
X50673000Y-97168568D01*
X50927000Y-97168568D01*
X50927000Y-98713000D01*
X52471854Y-98713000D01*
X52588199Y-98428194D01*
X55996801Y-98428194D01*
X56113146Y-98713000D01*
X57658000Y-98713000D01*
X57658000Y-97168568D01*
X57912000Y-97168568D01*
X57912000Y-98713000D01*
X59456854Y-98713000D01*
X59573199Y-98428194D01*
X59458500Y-98087246D01*
X59279489Y-97775226D01*
X59043046Y-97504125D01*
X58758257Y-97284361D01*
X58436066Y-97124379D01*
X58196805Y-97051805D01*
X57912000Y-97168568D01*
X57658000Y-97168568D01*
X57373195Y-97051805D01*
X57133934Y-97124379D01*
X56811743Y-97284361D01*
X56526954Y-97504125D01*
X56290511Y-97775226D01*
X56111500Y-98087246D01*
X55996801Y-98428194D01*
X52588199Y-98428194D01*
X52473500Y-98087246D01*
X52294489Y-97775226D01*
X52058046Y-97504125D01*
X51773257Y-97284361D01*
X51451066Y-97124379D01*
X51211805Y-97051805D01*
X50927000Y-97168568D01*
X50673000Y-97168568D01*
X50388195Y-97051805D01*
X50148934Y-97124379D01*
X49826743Y-97284361D01*
X49541954Y-97504125D01*
X49305511Y-97775226D01*
X49126500Y-98087246D01*
X49011801Y-98428194D01*
X30660000Y-98428194D01*
X30660000Y-83660000D01*
X54967581Y-83660000D01*
X55000000Y-83663193D01*
X55032419Y-83660000D01*
X55129383Y-83650450D01*
X55253793Y-83612710D01*
X55368450Y-83551425D01*
X55468948Y-83468948D01*
X55551425Y-83368450D01*
X55612710Y-83253793D01*
X55650450Y-83129383D01*
X55663193Y-83000000D01*
X55660000Y-82967581D01*
X55660000Y-39032419D01*
X55663193Y-39000000D01*
X55650450Y-38870617D01*
X55612710Y-38746207D01*
X55551425Y-38631550D01*
X55468948Y-38531052D01*
X55368450Y-38448575D01*
X55253793Y-38387290D01*
X55129383Y-38349550D01*
X55032419Y-38340000D01*
X55000000Y-38336807D01*
X54967581Y-38340000D01*
X30660000Y-38340000D01*
X30660000Y-34654286D01*
X66439123Y-34654286D01*
X66495231Y-34945392D01*
X66607053Y-35219958D01*
X66770292Y-35467433D01*
X66978674Y-35678306D01*
X67224191Y-35844474D01*
X67497409Y-35959551D01*
X67584969Y-35976302D01*
X67818000Y-35855246D01*
X67818000Y-34417000D01*
X66594624Y-34417000D01*
X66439123Y-34654286D01*
X30660000Y-34654286D01*
X30660000Y-33925714D01*
X66439123Y-33925714D01*
X66594624Y-34163000D01*
X67818000Y-34163000D01*
X67818000Y-32724754D01*
X68072000Y-32724754D01*
X68072000Y-34163000D01*
X68092000Y-34163000D01*
X68092000Y-34417000D01*
X68072000Y-34417000D01*
X68072000Y-35855246D01*
X68305031Y-35976302D01*
X68392591Y-35959551D01*
X68665809Y-35844474D01*
X68911326Y-35678306D01*
X69119708Y-35467433D01*
X69212440Y-35326848D01*
X69227583Y-35355178D01*
X69415655Y-35584345D01*
X69644821Y-35772417D01*
X69906275Y-35912166D01*
X70189968Y-35998224D01*
X70485000Y-36027282D01*
X70780031Y-35998224D01*
X71063724Y-35912166D01*
X71325178Y-35772417D01*
X71554345Y-35584345D01*
X71742417Y-35355179D01*
X71755000Y-35331637D01*
X71767583Y-35355178D01*
X71955655Y-35584345D01*
X72140001Y-35735634D01*
X72140000Y-37421531D01*
X72135719Y-37465000D01*
X72140000Y-37508469D01*
X72140000Y-37508476D01*
X72152805Y-37638489D01*
X72203411Y-37805312D01*
X72285589Y-37959058D01*
X72396183Y-38093817D01*
X72429956Y-38121534D01*
X73638470Y-39330049D01*
X73666183Y-39363817D01*
X73699951Y-39391530D01*
X73699953Y-39391532D01*
X73728169Y-39414688D01*
X73800941Y-39474411D01*
X73954687Y-39556589D01*
X74121510Y-39607195D01*
X74251523Y-39620000D01*
X74251533Y-39620000D01*
X74294999Y-39624281D01*
X74338465Y-39620000D01*
X81871531Y-39620000D01*
X81915000Y-39624281D01*
X81958469Y-39620000D01*
X81958477Y-39620000D01*
X82088490Y-39607195D01*
X82255313Y-39556589D01*
X82409059Y-39474411D01*
X82543817Y-39363817D01*
X82571534Y-39330044D01*
X83595049Y-38306530D01*
X83628817Y-38278817D01*
X83659902Y-38240941D01*
X83739411Y-38144059D01*
X83759656Y-38106183D01*
X83821589Y-37990313D01*
X83872195Y-37823490D01*
X83885000Y-37693477D01*
X83885000Y-37693469D01*
X83889281Y-37650000D01*
X83885000Y-37606531D01*
X83885000Y-27700881D01*
X147478724Y-27700881D01*
X147838912Y-28190548D01*
X148502882Y-28550849D01*
X149224385Y-28774694D01*
X149975695Y-28853480D01*
X150727938Y-28784178D01*
X151452208Y-28569452D01*
X152120670Y-28217555D01*
X152161088Y-28190548D01*
X152521276Y-27700881D01*
X150000000Y-25179605D01*
X147478724Y-27700881D01*
X83885000Y-27700881D01*
X83885000Y-26484625D01*
X83974482Y-26475812D01*
X84094180Y-26439502D01*
X84204494Y-26380537D01*
X84301185Y-26301185D01*
X84380537Y-26204494D01*
X84439502Y-26094180D01*
X84475812Y-25974482D01*
X84488072Y-25850000D01*
X84488072Y-24975695D01*
X146146520Y-24975695D01*
X146215822Y-25727938D01*
X146430548Y-26452208D01*
X146782445Y-27120670D01*
X146809452Y-27161088D01*
X147299119Y-27521276D01*
X149820395Y-25000000D01*
X150179605Y-25000000D01*
X152700881Y-27521276D01*
X153190548Y-27161088D01*
X153550849Y-26497118D01*
X153774694Y-25775615D01*
X153853480Y-25024305D01*
X153784178Y-24272062D01*
X153569452Y-23547792D01*
X153217555Y-22879330D01*
X153190548Y-22838912D01*
X152700881Y-22478724D01*
X150179605Y-25000000D01*
X149820395Y-25000000D01*
X147299119Y-22478724D01*
X146809452Y-22838912D01*
X146449151Y-23502882D01*
X146225306Y-24224385D01*
X146146520Y-24975695D01*
X84488072Y-24975695D01*
X84488072Y-24150000D01*
X84475812Y-24025518D01*
X84439502Y-23905820D01*
X84380537Y-23795506D01*
X84301185Y-23698815D01*
X84204494Y-23619463D01*
X84094180Y-23560498D01*
X83974482Y-23524188D01*
X83850000Y-23511928D01*
X82150000Y-23511928D01*
X82025518Y-23524188D01*
X81905820Y-23560498D01*
X81795506Y-23619463D01*
X81698815Y-23698815D01*
X81619463Y-23795506D01*
X81560498Y-23905820D01*
X81538487Y-23978380D01*
X81406632Y-23846525D01*
X81163411Y-23684010D01*
X80893158Y-23572068D01*
X80606260Y-23515000D01*
X80313740Y-23515000D01*
X80026842Y-23572068D01*
X79756589Y-23684010D01*
X79513368Y-23846525D01*
X79306525Y-24053368D01*
X79190000Y-24227760D01*
X79073475Y-24053368D01*
X78866632Y-23846525D01*
X78623411Y-23684010D01*
X78353158Y-23572068D01*
X78066260Y-23515000D01*
X77773740Y-23515000D01*
X77486842Y-23572068D01*
X77216589Y-23684010D01*
X76973368Y-23846525D01*
X76766525Y-24053368D01*
X76650000Y-24227760D01*
X76533475Y-24053368D01*
X76326632Y-23846525D01*
X76083411Y-23684010D01*
X75813158Y-23572068D01*
X75526260Y-23515000D01*
X75233740Y-23515000D01*
X74946842Y-23572068D01*
X74676589Y-23684010D01*
X74433368Y-23846525D01*
X74226525Y-24053368D01*
X74064010Y-24296589D01*
X73952068Y-24566842D01*
X73895000Y-24853740D01*
X73895000Y-25146260D01*
X73952068Y-25433158D01*
X74064010Y-25703411D01*
X74226525Y-25946632D01*
X74433368Y-26153475D01*
X74495000Y-26194656D01*
X74495001Y-32996452D01*
X74307583Y-33224821D01*
X74295000Y-33248362D01*
X74282417Y-33224821D01*
X74094345Y-32995655D01*
X73865179Y-32807583D01*
X73603725Y-32667834D01*
X73320032Y-32581776D01*
X73025000Y-32552718D01*
X72729969Y-32581776D01*
X72446276Y-32667834D01*
X72184822Y-32807583D01*
X71955655Y-32995655D01*
X71767583Y-33224821D01*
X71755000Y-33248362D01*
X71742417Y-33224821D01*
X71554345Y-32995655D01*
X71325179Y-32807583D01*
X71063725Y-32667834D01*
X70780032Y-32581776D01*
X70485000Y-32552718D01*
X70189969Y-32581776D01*
X69906276Y-32667834D01*
X69644822Y-32807583D01*
X69415655Y-32995655D01*
X69227583Y-33224821D01*
X69212440Y-33253152D01*
X69119708Y-33112567D01*
X68911326Y-32901694D01*
X68665809Y-32735526D01*
X68392591Y-32620449D01*
X68305031Y-32603698D01*
X68072000Y-32724754D01*
X67818000Y-32724754D01*
X67584969Y-32603698D01*
X67497409Y-32620449D01*
X67224191Y-32735526D01*
X66978674Y-32901694D01*
X66770292Y-33112567D01*
X66607053Y-33360042D01*
X66495231Y-33634608D01*
X66439123Y-33925714D01*
X30660000Y-33925714D01*
X30660000Y-27700881D01*
X32478724Y-27700881D01*
X32838912Y-28190548D01*
X33502882Y-28550849D01*
X34224385Y-28774694D01*
X34975695Y-28853480D01*
X35727938Y-28784178D01*
X36452208Y-28569452D01*
X37120670Y-28217555D01*
X37161088Y-28190548D01*
X37521276Y-27700881D01*
X35000000Y-25179605D01*
X32478724Y-27700881D01*
X30660000Y-27700881D01*
X30660000Y-24975695D01*
X31146520Y-24975695D01*
X31215822Y-25727938D01*
X31430548Y-26452208D01*
X31782445Y-27120670D01*
X31809452Y-27161088D01*
X32299119Y-27521276D01*
X34820395Y-25000000D01*
X35179605Y-25000000D01*
X37700881Y-27521276D01*
X38190548Y-27161088D01*
X38550849Y-26497118D01*
X38774694Y-25775615D01*
X38853480Y-25024305D01*
X38784178Y-24272062D01*
X38569452Y-23547792D01*
X38217555Y-22879330D01*
X38190548Y-22838912D01*
X37700881Y-22478724D01*
X35179605Y-25000000D01*
X34820395Y-25000000D01*
X32299119Y-22478724D01*
X31809452Y-22838912D01*
X31449151Y-23502882D01*
X31225306Y-24224385D01*
X31146520Y-24975695D01*
X30660000Y-24975695D01*
X30660000Y-22299119D01*
X32478724Y-22299119D01*
X35000000Y-24820395D01*
X37521276Y-22299119D01*
X147478724Y-22299119D01*
X150000000Y-24820395D01*
X152521276Y-22299119D01*
X152161088Y-21809452D01*
X151497118Y-21449151D01*
X150775615Y-21225306D01*
X150024305Y-21146520D01*
X149272062Y-21215822D01*
X148547792Y-21430548D01*
X147879330Y-21782445D01*
X147838912Y-21809452D01*
X147478724Y-22299119D01*
X37521276Y-22299119D01*
X37161088Y-21809452D01*
X36497118Y-21449151D01*
X35775615Y-21225306D01*
X35024305Y-21146520D01*
X34272062Y-21215822D01*
X33547792Y-21430548D01*
X32879330Y-21782445D01*
X32838912Y-21809452D01*
X32478724Y-22299119D01*
X30660000Y-22299119D01*
X30660000Y-20660000D01*
X154340000Y-20660000D01*
X154340001Y-132340000D01*
G37*
%TD.AperFunction*%
%TD*%
M02*
