M48
; DRILL file {KiCad (5.1.10-1-10_14)} date Monday, January 31, 2022 at 11:10:15 PM
; FORMAT={-:-/ absolute / inch / decimal}
; #@! TF.CreationDate,2022-01-31T23:10:15+11:00
; #@! TF.GenerationSoftware,Kicad,Pcbnew,(5.1.10-1-10_14)
; #@! TF.FileFunction,Plated,1,2,PTH
FMAT,2
INCH
T1C0.0197
T2C0.0315
T3C0.0394
T4C0.0469
T5C0.0472
T6C0.0591
T7C0.1260
%
G90
G05
T1
X1.3622Y-6.2479
X1.3622Y-9.6654
X1.3899Y-6.1811
X1.3899Y-6.3147
X1.3899Y-9.5985
X1.3899Y-9.7322
X1.4567Y-6.1534
X1.4567Y-6.3424
X1.4567Y-9.5709
X1.4567Y-9.7598
X1.5235Y-6.1811
X1.5235Y-6.3147
X1.5235Y-9.5985
X1.5235Y-9.7322
X1.5512Y-6.2479
X1.5512Y-9.6654
X6.6575Y-6.2402
X6.6575Y-9.6654
X6.6852Y-6.1733
X6.6852Y-6.307
X6.6852Y-9.5985
X6.6852Y-9.7322
X6.752Y-6.1457
X6.752Y-6.3346
X6.752Y-9.5709
X6.752Y-9.7598
X6.8188Y-6.1733
X6.8188Y-6.307
X6.8188Y-9.5985
X6.8188Y-9.7322
X6.8465Y-6.2402
X6.8465Y-9.6654
X11.9528Y-6.2402
X11.9528Y-9.6654
X11.9804Y-6.1733
X11.9804Y-6.307
X11.9804Y-9.5985
X11.9804Y-9.7322
X12.0472Y-6.1457
X12.0472Y-6.3346
X12.0472Y-9.5709
X12.0472Y-9.7598
X12.1141Y-6.1733
X12.1141Y-6.307
X12.1141Y-9.5985
X12.1141Y-9.7322
X12.1417Y-6.2402
X12.1417Y-9.6654
T2
X1.4764Y-9.2717
X1.7717Y-6.2205
X1.7717Y-6.5748
X1.8307Y-9.2717
X2.8126Y-9.325
X3.2126Y-9.325
X3.325Y-9.325
X3.725Y-9.325
X3.85Y-9.325
X4.25Y-9.325
X4.375Y-9.325
X4.775Y-9.325
X5.8858Y-8.563
X6.9882Y-6.7323
X7.2638Y-6.7323
X7.8346Y-8.563
X7.8346Y-9.4094
X8.1693Y-8.3661
X8.52Y-7.545
X10.0787Y-7.1654
X10.2362Y-7.1654
X10.3937Y-7.1654
X10.5512Y-7.1654
X10.6189Y-7.5239
X10.7087Y-7.1654
X10.8465Y-7.1654
T3
X1.4567Y-6.5791
X1.4567Y-6.6791
X1.4567Y-6.7791
X1.4567Y-6.8791
X1.4567Y-7.7118
X1.4567Y-7.8118
X1.4567Y-7.9118
X1.4567Y-8.0118
X1.4567Y-8.8142
X1.4567Y-8.9142
X1.4567Y-9.0142
X1.4567Y-9.1142
X1.9965Y-6.2406
X2.0965Y-6.2406
X2.1965Y-6.2406
X2.2965Y-6.2406
X2.3547Y-9.2675
X2.6Y-6.55
X2.65Y-9.2675
X2.8953Y-6.55
X3.248Y-6.2402
X3.348Y-6.2402
X3.448Y-6.2402
X3.548Y-6.2402
X4.2126Y-6.2402
X4.3126Y-6.2402
X4.4126Y-6.2402
X4.5126Y-6.2402
X5.085Y-9.2097
X5.085Y-9.505
X5.1181Y-6.2402
X5.2181Y-6.2402
X5.3181Y-6.2402
X5.4181Y-6.2402
X5.9921Y-6.2402
X6.0921Y-6.2402
X6.1921Y-6.2402
X6.2921Y-6.2402
X7.1732Y-6.1417
X7.2732Y-6.1417
X7.3732Y-6.1417
X7.4732Y-6.1417
X7.5732Y-6.1417
X7.6732Y-6.1417
X7.7732Y-6.1417
X7.8732Y-6.1417
X7.9724Y-9.6654
X7.9732Y-6.1417
X8.0724Y-9.6654
X8.0732Y-6.1417
X8.1724Y-9.6654
X8.1732Y-6.1417
X8.2724Y-9.6654
X8.2732Y-6.1417
X8.3724Y-9.6654
X8.3732Y-6.1417
X8.4724Y-9.6654
X8.4732Y-6.1417
X8.5724Y-9.6654
X8.5732Y-6.1417
X8.6724Y-9.6654
X8.6732Y-6.1417
X10.248Y-9.6654
X10.3937Y-9.6654
X12.252Y-7.4024
X12.252Y-7.5024
X12.252Y-7.6024
X12.252Y-7.7024
X12.252Y-7.8024
X12.252Y-7.9024
X12.252Y-8.0024
X12.252Y-8.1024
X12.252Y-8.3425
X12.252Y-8.4425
X12.252Y-8.5425
X12.252Y-8.6425
X12.252Y-8.7425
X12.252Y-8.8425
X12.252Y-8.9425
X12.252Y-9.0425
T4
X9.0709Y-9.6654
X9.1709Y-9.6654
X9.2709Y-9.6654
X9.3709Y-9.6654
X9.778Y-9.6654
X9.878Y-9.6654
X9.978Y-9.6654
X10.078Y-9.6654
X10.6063Y-9.6654
X10.7063Y-9.6654
X10.8063Y-9.6654
X10.9063Y-9.6654
X11.315Y-9.6654
X11.415Y-9.6654
X11.515Y-9.6654
X11.615Y-9.6654
T5
X2.1201Y-6.8315
X2.1201Y-6.9874
X2.1201Y-7.2449
X2.1201Y-7.4008
X2.1201Y-7.6583
X2.1201Y-7.8142
X2.1201Y-8.0717
X2.1201Y-8.2276
X2.276Y-6.8315
X2.276Y-6.9874
X2.276Y-7.2449
X2.276Y-7.4008
X2.276Y-7.6583
X2.276Y-7.8142
X2.276Y-8.0717
X2.276Y-8.2276
X2.4311Y-8.4854
X2.4311Y-8.6413
X2.4315Y-8.8969
X2.4315Y-9.0528
X2.4319Y-6.8315
X2.4319Y-6.9874
X2.4319Y-7.2449
X2.4319Y-7.4008
X2.4319Y-7.6583
X2.4319Y-7.8142
X2.4319Y-8.0717
X2.4319Y-8.2276
X2.587Y-8.4854
X2.587Y-8.6413
X2.5874Y-8.8969
X2.5874Y-9.0528
X2.5878Y-6.8315
X2.5878Y-6.9874
X2.5878Y-7.2449
X2.5878Y-7.4008
X2.5878Y-7.6583
X2.5878Y-7.8142
X2.5878Y-8.0717
X2.5878Y-8.2276
X2.7429Y-8.4854
X2.7429Y-8.6413
X2.7433Y-8.8969
X2.7433Y-9.0528
X2.7437Y-6.8315
X2.7437Y-6.9874
X2.7437Y-7.2449
X2.7437Y-7.4008
X2.7437Y-7.6583
X2.7437Y-7.8142
X2.7437Y-8.0717
X2.7437Y-8.2276
X2.8988Y-8.4854
X2.8988Y-8.6413
X2.8992Y-8.8969
X2.8992Y-9.0528
X2.8996Y-6.8315
X2.8996Y-6.9874
X2.8996Y-7.2449
X2.8996Y-7.4008
X2.8996Y-7.6583
X2.8996Y-7.8142
X2.8996Y-8.0717
X2.8996Y-8.2276
X3.0547Y-8.4854
X3.0547Y-8.6413
X3.0551Y-8.8969
X3.0551Y-9.0528
X3.0555Y-6.8315
X3.0555Y-6.9874
X3.0555Y-7.2449
X3.0555Y-7.4008
X3.0555Y-7.6583
X3.0555Y-7.8142
X3.0555Y-8.0717
X3.0555Y-8.2276
X3.2106Y-8.4854
X3.2106Y-8.6413
X3.211Y-8.8969
X3.211Y-9.0528
X3.2114Y-6.8315
X3.2114Y-6.9874
X3.2114Y-7.2449
X3.2114Y-7.4008
X3.2114Y-7.6583
X3.2114Y-7.8142
X3.2114Y-8.0717
X3.2114Y-8.2276
X3.3665Y-8.4854
X3.3665Y-8.6413
X3.3669Y-8.8969
X3.3669Y-9.0528
X3.3673Y-6.8315
X3.3673Y-6.9874
X3.3673Y-7.2449
X3.3673Y-7.4008
X3.3673Y-7.6583
X3.3673Y-7.8142
X3.3673Y-8.0717
X3.3673Y-8.2276
X3.5224Y-8.4854
X3.5224Y-8.6413
X3.5228Y-8.8969
X3.5228Y-9.0528
X3.5232Y-6.8315
X3.5232Y-6.9874
X3.5232Y-7.2449
X3.5232Y-7.4008
X3.5232Y-7.6583
X3.5232Y-7.8142
X3.5232Y-8.0717
X3.5232Y-8.2276
X3.6783Y-8.4854
X3.6783Y-8.6413
X3.6787Y-8.8969
X3.6787Y-9.0528
X3.6791Y-6.8315
X3.6791Y-6.9874
X3.6791Y-7.2449
X3.6791Y-7.4008
X3.6791Y-7.6583
X3.6791Y-7.8142
X3.6791Y-8.0717
X3.6791Y-8.2276
X3.8343Y-8.4854
X3.8343Y-8.6413
X3.8346Y-8.8969
X3.8346Y-9.0528
X3.835Y-6.8315
X3.835Y-6.9874
X3.835Y-7.2449
X3.835Y-7.4008
X3.835Y-7.6583
X3.835Y-7.8142
X3.835Y-8.0717
X3.835Y-8.2276
X3.9902Y-8.4854
X3.9902Y-8.6413
X3.9906Y-8.8969
X3.9906Y-9.0528
X3.9909Y-6.8315
X3.9909Y-6.9874
X3.9909Y-7.2449
X3.9909Y-7.4008
X3.9909Y-7.6583
X3.9909Y-7.8142
X3.9909Y-8.0717
X3.9909Y-8.2276
X4.1461Y-8.4854
X4.1461Y-8.6413
X4.1465Y-8.8969
X4.1465Y-9.0528
X4.1469Y-6.8315
X4.1469Y-6.9874
X4.1469Y-7.2449
X4.1469Y-7.4008
X4.1469Y-7.6583
X4.1469Y-7.8142
X4.1469Y-8.0717
X4.1469Y-8.2276
X4.302Y-8.4854
X4.302Y-8.6413
X4.3024Y-8.8969
X4.3024Y-9.0528
X4.3028Y-6.8315
X4.3028Y-6.9874
X4.3028Y-7.2449
X4.3028Y-7.4008
X4.3028Y-7.6583
X4.3028Y-7.8142
X4.3028Y-8.0717
X4.3028Y-8.2276
X4.4579Y-8.4854
X4.4579Y-8.6413
X4.4583Y-8.8969
X4.4583Y-9.0528
X4.4587Y-6.8315
X4.4587Y-6.9874
X4.4587Y-7.2449
X4.4587Y-7.4008
X4.4587Y-7.6583
X4.4587Y-7.8142
X4.4587Y-8.0717
X4.4587Y-8.2276
X4.6138Y-8.4854
X4.6138Y-8.6413
X4.6142Y-8.8969
X4.6142Y-9.0528
X4.6146Y-6.8315
X4.6146Y-6.9874
X4.6146Y-7.2449
X4.6146Y-7.4008
X4.6146Y-7.6583
X4.6146Y-7.8142
X4.6146Y-8.0717
X4.6146Y-8.2276
X4.7697Y-8.4854
X4.7697Y-8.6413
X4.7701Y-8.8969
X4.7701Y-9.0528
X4.7705Y-6.8315
X4.7705Y-6.9874
X4.7705Y-7.2449
X4.7705Y-7.4008
X4.7705Y-7.6583
X4.7705Y-7.8142
X4.7705Y-8.0717
X4.7705Y-8.2276
X4.9256Y-8.4854
X4.9256Y-8.6413
X4.926Y-8.8969
X4.926Y-9.0528
X4.9264Y-6.8315
X4.9264Y-6.9874
X4.9264Y-7.2449
X4.9264Y-7.4008
X4.9264Y-7.6583
X4.9264Y-7.8142
X4.9264Y-8.0717
X4.9264Y-8.2276
X5.0815Y-8.4854
X5.0815Y-8.6413
X5.0819Y-8.8969
X5.0819Y-9.0528
X5.0823Y-6.8315
X5.0823Y-6.9874
X5.0823Y-7.2449
X5.0823Y-7.4008
X5.0823Y-7.6583
X5.0823Y-7.8142
X5.0823Y-8.0717
X5.0823Y-8.2276
X5.2382Y-6.8315
X5.2382Y-6.9874
X5.2382Y-7.2449
X5.2382Y-7.4008
X5.2382Y-7.6583
X5.2382Y-7.8142
X5.2382Y-8.0717
X5.2382Y-8.2276
X5.3941Y-6.8315
X5.3941Y-6.9874
X5.3941Y-7.2449
X5.3941Y-7.4008
X5.3941Y-7.6583
X5.3941Y-7.8142
X5.3941Y-8.0717
X5.3941Y-8.2276
X5.55Y-6.8315
X5.55Y-6.9874
X5.55Y-7.2449
X5.55Y-7.4008
X5.55Y-7.6583
X5.55Y-7.8142
X5.55Y-8.0717
X5.55Y-8.2276
X5.7059Y-6.8315
X5.7059Y-6.9874
X5.7059Y-7.2449
X5.7059Y-7.4008
X5.7059Y-7.6583
X5.7059Y-7.8142
X5.7059Y-8.0717
X5.7059Y-8.2276
X5.8618Y-6.8315
X5.8618Y-6.9874
X5.8618Y-7.2449
X5.8618Y-7.4008
X5.8618Y-7.6583
X5.8618Y-7.8142
X5.8618Y-8.0717
X5.8618Y-8.2276
X6.0177Y-6.8315
X6.0177Y-6.9874
X6.0177Y-7.2449
X6.0177Y-7.4008
X6.0177Y-7.6583
X6.0177Y-7.8142
X6.0177Y-8.0717
X6.0177Y-8.2276
X6.1736Y-6.8315
X6.1736Y-6.9874
X6.1736Y-7.2449
X6.1736Y-7.4008
X6.1736Y-7.6583
X6.1736Y-7.8142
X6.1736Y-8.0717
X6.1736Y-8.2276
X6.3295Y-6.8315
X6.3295Y-6.9874
X6.3295Y-7.2449
X6.3295Y-7.4008
X6.3295Y-7.6583
X6.3295Y-7.8142
X6.3295Y-8.0717
X6.3295Y-8.2276
X6.4854Y-6.8315
X6.4854Y-6.9874
X6.4854Y-7.2449
X6.4854Y-7.4008
X6.4854Y-7.6583
X6.4854Y-7.8142
X6.4854Y-8.0717
X6.4854Y-8.2276
X6.6413Y-6.8315
X6.6413Y-6.9874
X6.6413Y-7.2449
X6.6413Y-7.4008
X6.6413Y-7.6583
X6.6413Y-7.8142
X6.6413Y-8.0717
X6.6413Y-8.2276
X6.7972Y-6.8315
X6.7972Y-6.9874
X6.7972Y-7.2449
X6.7972Y-7.4008
X6.7972Y-7.6583
X6.7972Y-7.8142
X6.7972Y-8.0717
X6.7972Y-8.2276
X6.9531Y-6.8315
X6.9531Y-6.9874
X6.9531Y-7.2449
X6.9531Y-7.4008
X6.9531Y-7.6583
X6.9531Y-7.8142
X6.9531Y-8.0717
X6.9531Y-8.2276
X7.1091Y-6.8315
X7.1091Y-6.9874
X7.1091Y-7.2449
X7.1091Y-7.4008
X7.1091Y-7.6583
X7.1091Y-7.8142
X7.1091Y-8.0717
X7.1091Y-8.2276
X7.265Y-6.8315
X7.265Y-6.9874
X7.265Y-7.2449
X7.265Y-7.4008
X7.265Y-7.6583
X7.265Y-7.8142
X7.265Y-8.0717
X7.265Y-8.2276
X7.4209Y-6.8315
X7.4209Y-6.9874
X7.4209Y-7.2449
X7.4209Y-7.4008
X7.4209Y-7.6583
X7.4209Y-7.8142
X7.4209Y-8.0717
X7.4209Y-8.2276
X7.5768Y-6.8315
X7.5768Y-6.9874
X7.5768Y-7.2449
X7.5768Y-7.4008
X7.5768Y-7.6583
X7.5768Y-7.8142
X7.5768Y-8.0717
X7.5768Y-8.2276
X8.7472Y-8.072
X8.7472Y-8.228
X8.748Y-7.6579
X8.748Y-7.8138
X8.7484Y-8.485
X8.7484Y-8.6409
X8.7488Y-7.2445
X8.7488Y-7.4004
X8.7492Y-8.8988
X8.7492Y-9.0547
X8.9031Y-8.072
X8.9031Y-8.228
X8.9039Y-7.6579
X8.9039Y-7.8138
X8.9043Y-8.485
X8.9043Y-8.6409
X8.9047Y-7.2445
X8.9047Y-7.4004
X8.9051Y-8.8988
X8.9051Y-9.0547
X9.0591Y-8.072
X9.0591Y-8.228
X9.0598Y-7.6579
X9.0598Y-7.8138
X9.0602Y-8.485
X9.0602Y-8.6409
X9.0606Y-7.2445
X9.0606Y-7.4004
X9.061Y-8.8988
X9.061Y-9.0547
X9.215Y-8.072
X9.215Y-8.228
X9.2157Y-7.6579
X9.2157Y-7.8138
X9.2161Y-8.485
X9.2161Y-8.6409
X9.2165Y-7.2445
X9.2165Y-7.4004
X9.2169Y-8.8988
X9.2169Y-9.0547
X9.3709Y-8.072
X9.3709Y-8.228
X9.3717Y-7.6579
X9.3717Y-7.8138
X9.372Y-8.485
X9.372Y-8.6409
X9.3724Y-7.2445
X9.3724Y-7.4004
X9.3728Y-8.8988
X9.3728Y-9.0547
X9.5268Y-8.072
X9.5268Y-8.228
X9.5276Y-7.6579
X9.5276Y-7.8138
X9.528Y-8.485
X9.528Y-8.6409
X9.5283Y-7.2445
X9.5283Y-7.4004
X9.5287Y-8.8988
X9.5287Y-9.0547
X9.6827Y-8.072
X9.6827Y-8.228
X9.6835Y-7.6579
X9.6835Y-7.8138
X9.6839Y-8.485
X9.6839Y-8.6409
X9.6843Y-7.2445
X9.6843Y-7.4004
X9.6846Y-8.8988
X9.6846Y-9.0547
X9.8386Y-8.072
X9.8386Y-8.228
X9.8394Y-7.6579
X9.8394Y-7.8138
X9.8398Y-8.485
X9.8398Y-8.6409
X9.8402Y-7.2445
X9.8402Y-7.4004
X9.8406Y-8.8988
X9.8406Y-9.0547
X9.9945Y-8.072
X9.9945Y-8.228
X9.9953Y-7.6579
X9.9953Y-7.8138
X9.9957Y-8.485
X9.9957Y-8.6409
X9.9961Y-7.2445
X9.9961Y-7.4004
X9.9965Y-8.8988
X9.9965Y-9.0547
X10.1504Y-8.072
X10.1504Y-8.228
X10.1512Y-7.6579
X10.1512Y-7.8138
X10.1516Y-8.485
X10.1516Y-8.6409
X10.152Y-7.2445
X10.152Y-7.4004
X10.1524Y-8.8988
X10.1524Y-9.0547
X10.3063Y-8.072
X10.3063Y-8.228
X10.3071Y-7.6579
X10.3071Y-7.8138
X10.3075Y-8.485
X10.3075Y-8.6409
X10.3079Y-7.2445
X10.3079Y-7.4004
X10.3083Y-8.8988
X10.3083Y-9.0547
X10.4622Y-8.072
X10.4622Y-8.228
X10.463Y-7.6579
X10.463Y-7.8138
X10.4634Y-8.485
X10.4634Y-8.6409
X10.4638Y-7.2445
X10.4638Y-7.4004
X10.4642Y-8.8988
X10.4642Y-9.0547
X10.6181Y-8.072
X10.6181Y-8.228
X10.6189Y-7.6579
X10.6189Y-7.8138
X10.6193Y-8.485
X10.6193Y-8.6409
X10.6197Y-7.2445
X10.6197Y-7.4004
X10.6201Y-8.8988
X10.6201Y-9.0547
X10.774Y-8.072
X10.774Y-8.228
X10.7748Y-7.6579
X10.7748Y-7.8138
X10.7752Y-8.485
X10.7752Y-8.6409
X10.7756Y-7.2445
X10.7756Y-7.4004
X10.776Y-8.8988
X10.776Y-9.0547
X10.9299Y-8.072
X10.9299Y-8.228
X10.9307Y-7.6579
X10.9307Y-7.8138
X10.9311Y-8.485
X10.9311Y-8.6409
X10.9315Y-7.2445
X10.9315Y-7.4004
X10.9319Y-8.8988
X10.9319Y-9.0547
X11.0858Y-8.072
X11.0858Y-8.228
X11.0866Y-7.6579
X11.0866Y-7.8138
X11.087Y-8.485
X11.087Y-8.6409
X11.0874Y-7.2445
X11.0874Y-7.4004
X11.0878Y-8.8988
X11.0878Y-9.0547
X11.2417Y-8.072
X11.2417Y-8.228
X11.2425Y-7.6579
X11.2425Y-7.8138
X11.2429Y-8.485
X11.2429Y-8.6409
X11.2433Y-7.2445
X11.2433Y-7.4004
X11.2437Y-8.8988
X11.2437Y-9.0547
X11.3976Y-8.072
X11.3976Y-8.228
X11.3984Y-7.6579
X11.3984Y-7.8138
X11.3988Y-8.485
X11.3988Y-8.6409
X11.3992Y-7.2445
X11.3992Y-7.4004
X11.3996Y-8.8988
X11.3996Y-9.0547
T6
X2.1561Y-9.4925
X2.353Y-9.4925
X2.9311Y-9.4961
X3.128Y-9.4961
T7
X1.4567Y-6.2479
X1.4567Y-9.6654
X1.7441Y-6.9094
X1.7441Y-7.3228
X1.7441Y-7.7362
X1.7441Y-8.1496
X2.0551Y-8.5634
X2.0555Y-8.9748
X5.4575Y-8.5634
X5.4579Y-8.9748
X6.752Y-6.2402
X6.752Y-9.6654
X7.9528Y-6.9094
X7.9528Y-7.3228
X7.9528Y-7.7362
X7.9528Y-8.1496
X8.3713Y-8.15
X8.372Y-7.7358
X8.3724Y-8.563
X8.3728Y-7.3224
X8.3732Y-8.9768
X11.7736Y-8.15
X11.7744Y-7.7358
X11.7748Y-8.563
X11.7752Y-7.3224
X11.7756Y-8.9768
X12.0472Y-6.2402
X12.0472Y-9.6654
T0
M30
