%TF.GenerationSoftware,KiCad,Pcbnew,(6.0.4-0)*%
%TF.CreationDate,2024-05-14T17:36:31+10:00*%
%TF.ProjectId,Video terminal ,56696465-6f20-4746-9572-6d696e616c20,rev?*%
%TF.SameCoordinates,Original*%
%TF.FileFunction,Legend,Bot*%
%TF.FilePolarity,Positive*%
%FSLAX46Y46*%
G04 Gerber Fmt 4.6, Leading zero omitted, Abs format (unit mm)*
G04 Created by KiCad (PCBNEW (6.0.4-0)) date 2024-05-14 17:36:31*
%MOMM*%
%LPD*%
G01*
G04 APERTURE LIST*
%ADD10C,0.150000*%
%ADD11C,0.120000*%
G04 APERTURE END LIST*
D10*
%TO.C,J5*%
X150333333Y-78682380D02*
X150333333Y-79396666D01*
X150380952Y-79539523D01*
X150476190Y-79634761D01*
X150619047Y-79682380D01*
X150714285Y-79682380D01*
X149380952Y-78682380D02*
X149857142Y-78682380D01*
X149904761Y-79158571D01*
X149857142Y-79110952D01*
X149761904Y-79063333D01*
X149523809Y-79063333D01*
X149428571Y-79110952D01*
X149380952Y-79158571D01*
X149333333Y-79253809D01*
X149333333Y-79491904D01*
X149380952Y-79587142D01*
X149428571Y-79634761D01*
X149523809Y-79682380D01*
X149761904Y-79682380D01*
X149857142Y-79634761D01*
X149904761Y-79587142D01*
%TO.C,J6*%
X46682380Y-127666666D02*
X47396666Y-127666666D01*
X47539523Y-127619047D01*
X47634761Y-127523809D01*
X47682380Y-127380952D01*
X47682380Y-127285714D01*
X46682380Y-128571428D02*
X46682380Y-128380952D01*
X46730000Y-128285714D01*
X46777619Y-128238095D01*
X46920476Y-128142857D01*
X47110952Y-128095238D01*
X47491904Y-128095238D01*
X47587142Y-128142857D01*
X47634761Y-128190476D01*
X47682380Y-128285714D01*
X47682380Y-128476190D01*
X47634761Y-128571428D01*
X47587142Y-128619047D01*
X47491904Y-128666666D01*
X47253809Y-128666666D01*
X47158571Y-128619047D01*
X47110952Y-128571428D01*
X47063333Y-128476190D01*
X47063333Y-128285714D01*
X47110952Y-128190476D01*
X47158571Y-128142857D01*
X47253809Y-128095238D01*
%TO.C,J7*%
X85222380Y-127666666D02*
X85936666Y-127666666D01*
X86079523Y-127619047D01*
X86174761Y-127523809D01*
X86222380Y-127380952D01*
X86222380Y-127285714D01*
X85222380Y-128047619D02*
X85222380Y-128714285D01*
X86222380Y-128285714D01*
%TO.C,J9*%
X85222380Y-24666666D02*
X85936666Y-24666666D01*
X86079523Y-24619047D01*
X86174761Y-24523809D01*
X86222380Y-24380952D01*
X86222380Y-24285714D01*
X86222380Y-25190476D02*
X86222380Y-25380952D01*
X86174761Y-25476190D01*
X86127142Y-25523809D01*
X85984285Y-25619047D01*
X85793809Y-25666666D01*
X85412857Y-25666666D01*
X85317619Y-25619047D01*
X85270000Y-25571428D01*
X85222380Y-25476190D01*
X85222380Y-25285714D01*
X85270000Y-25190476D01*
X85317619Y-25142857D01*
X85412857Y-25095238D01*
X85650952Y-25095238D01*
X85746190Y-25142857D01*
X85793809Y-25190476D01*
X85841428Y-25285714D01*
X85841428Y-25476190D01*
X85793809Y-25571428D01*
X85746190Y-25619047D01*
X85650952Y-25666666D01*
D11*
%TO.C,J5*%
X151330000Y-83270000D02*
X151330000Y-90950000D01*
X148670000Y-83270000D02*
X148670000Y-90950000D01*
X151330000Y-90950000D02*
X148670000Y-90950000D01*
X151330000Y-83270000D02*
X148670000Y-83270000D01*
X150000000Y-80670000D02*
X148670000Y-80670000D01*
X148670000Y-80670000D02*
X148670000Y-82000000D01*
%TO.C,J6*%
X58950000Y-126670000D02*
X58950000Y-129330000D01*
X51270000Y-129330000D02*
X58950000Y-129330000D01*
X48670000Y-129330000D02*
X50000000Y-129330000D01*
X51270000Y-126670000D02*
X51270000Y-129330000D01*
X51270000Y-126670000D02*
X58950000Y-126670000D01*
X48670000Y-128000000D02*
X48670000Y-129330000D01*
%TO.C,J7*%
X74050000Y-129330000D02*
X74050000Y-126670000D01*
X84330000Y-128000000D02*
X84330000Y-126670000D01*
X81730000Y-129330000D02*
X81730000Y-126670000D01*
X81730000Y-126670000D02*
X74050000Y-126670000D01*
X81730000Y-129330000D02*
X74050000Y-129330000D01*
X84330000Y-126670000D02*
X83000000Y-126670000D01*
%TO.C,J9*%
X81730000Y-23670000D02*
X74050000Y-23670000D01*
X81730000Y-26330000D02*
X74050000Y-26330000D01*
X74050000Y-26330000D02*
X74050000Y-23670000D01*
X81730000Y-26330000D02*
X81730000Y-23670000D01*
X84330000Y-25000000D02*
X84330000Y-23670000D01*
X84330000Y-23670000D02*
X83000000Y-23670000D01*
%TD*%
M02*
