  0
SECTION
  2
HEADER
  9
$ANGBASE
  50
0.0
  9
$ANGDIR
  70
1
  9
$MEASUREMENT
  70
0
  0
ENDSEC
  0
SECTION
  2
TABLES
  0
TABLE
  2
LTYPE
  70
4
  0
LTYPE
  5
40F
  2
CONTINUOUS
  70
0
  3
Solid line
  72
65
  73
0
  40
0.0
  0
LTYPE
  5
410
  2
DASHDOT
 70
0
  3
Dash Dot ____ _ ____ _
 72
65
 73
4
 40
2.0
 49
1.25
 49
-0.25
 49
0.25
 49
-0.25
  0
LTYPE
  5
411
  2
DASHED
 70
0
  3
Dashed __ __ __ __ __
 72
65
 73
2
 40
0.75
 49
0.5
 49
-0.25
  0
LTYPE
  5
43B
  2
DOTTED
 70
0
  3
Dotted .  .  .  .
 72
65
 73
2
 40
0.2
 49
0.0
 49
-0.2
  0
ENDTAB
  0
TABLE
  2
STYLE
  70
4
  0
STYLE
  2
KICAD
  70
0
  40
0
  41
1
  42
1
  50
0
  71
0
  3
isocp.shx
  0
STYLE
  2
KICADB
  70
0
  40
0
  41
1
  42
1
  50
0
  71
0
  3
isocp.shx
  0
STYLE
  2
KICADI
  70
0
  40
0
  41
1
  42
1
  50
15
  71
0
  3
isocp.shx
  0
STYLE
  2
KICADBI
  70
0
  40
0
  41
1
  42
1
  50
15
  71
0
  3
isocp.shx
  0
ENDTAB
  0
TABLE
  2
LAYER
  70
1
  0
LAYER
  2
BLACK
  70
0
  62
7
  6
CONTINUOUS
  0
ENDTAB
  0
ENDSEC
  0
SECTION
  2
ENTITIES
0
LINE
8
BLACK
6
CONTINUOUS
10
9.4
20
-6.4
11
1.1
21
-6.4
0
LINE
8
BLACK
6
CONTINUOUS
10
9.4
20
-1.8
11
9.4
21
-6.4
0
LINE
8
BLACK
6
CONTINUOUS
10
1.1
20
-1.8
11
9.4
21
-1.8
0
LINE
8
BLACK
6
CONTINUOUS
10
1.1
20
-6.4
11
1.1
21
-1.8
0
LINE
8
BLACK
6
CONTINUOUS
10
2.48425
20
-2.12598
11
2.61024
21
-2.25197
0
LINE
8
BLACK
6
CONTINUOUS
10
2.61024
20
-2.12598
11
2.48425
21
-2.25197
0
LINE
8
BLACK
6
CONTINUOUS
10
7.88583
20
-5.06693
11
8.01181
21
-5.19291
0
LINE
8
BLACK
6
CONTINUOUS
10
8.01181
20
-5.06693
11
7.88583
21
-5.19291
0
LINE
8
BLACK
6
CONTINUOUS
10
7.88976
20
-3.25591
11
8.01575
21
-3.38189
0
LINE
8
BLACK
6
CONTINUOUS
10
8.01575
20
-3.25591
11
7.88976
21
-3.38189
0
LINE
8
BLACK
6
CONTINUOUS
10
1.21178
20
-6.58434
11
1.21178
21
-6.46623
0
LINE
8
BLACK
6
CONTINUOUS
10
1.21178
20
-6.46623
11
1.2399
21
-6.46623
0
LINE
8
BLACK
6
CONTINUOUS
10
1.2399
20
-6.46623
11
1.25678
21
-6.47185
0
LINE
8
BLACK
6
CONTINUOUS
10
1.25678
20
-6.47185
11
1.26803
21
-6.4831
0
LINE
8
BLACK
6
CONTINUOUS
10
1.26803
20
-6.4831
11
1.27365
21
-6.49435
0
LINE
8
BLACK
6
CONTINUOUS
10
1.27365
20
-6.49435
11
1.27927
21
-6.51684
0
LINE
8
BLACK
6
CONTINUOUS
10
1.27927
20
-6.51684
11
1.27927
21
-6.53372
0
LINE
8
BLACK
6
CONTINUOUS
10
1.27927
20
-6.53372
11
1.27365
21
-6.55621
0
LINE
8
BLACK
6
CONTINUOUS
10
1.27365
20
-6.55621
11
1.26803
21
-6.56746
0
LINE
8
BLACK
6
CONTINUOUS
10
1.26803
20
-6.56746
11
1.25678
21
-6.57871
0
LINE
8
BLACK
6
CONTINUOUS
10
1.25678
20
-6.57871
11
1.2399
21
-6.58434
0
LINE
8
BLACK
6
CONTINUOUS
10
1.2399
20
-6.58434
11
1.21178
21
-6.58434
0
LINE
8
BLACK
6
CONTINUOUS
10
1.32989
20
-6.58434
11
1.32989
21
-6.5056
0
LINE
8
BLACK
6
CONTINUOUS
10
1.32989
20
-6.52809
11
1.33552
21
-6.51684
0
LINE
8
BLACK
6
CONTINUOUS
10
1.33552
20
-6.51684
11
1.34114
21
-6.51122
0
LINE
8
BLACK
6
CONTINUOUS
10
1.34114
20
-6.51122
11
1.35239
21
-6.5056
0
LINE
8
BLACK
6
CONTINUOUS
10
1.35239
20
-6.5056
11
1.36364
21
-6.5056
0
LINE
8
BLACK
6
CONTINUOUS
10
1.40301
20
-6.58434
11
1.40301
21
-6.5056
0
LINE
8
BLACK
6
CONTINUOUS
10
1.40301
20
-6.46623
11
1.39738
21
-6.47185
0
LINE
8
BLACK
6
CONTINUOUS
10
1.39738
20
-6.47185
11
1.40301
21
-6.47747
0
LINE
8
BLACK
6
CONTINUOUS
10
1.40301
20
-6.47747
11
1.40863
21
-6.47185
0
LINE
8
BLACK
6
CONTINUOUS
10
1.40863
20
-6.47185
11
1.40301
21
-6.46623
0
LINE
8
BLACK
6
CONTINUOUS
10
1.40301
20
-6.46623
11
1.40301
21
-6.47747
0
LINE
8
BLACK
6
CONTINUOUS
10
1.47612
20
-6.58434
11
1.46488
21
-6.57871
0
LINE
8
BLACK
6
CONTINUOUS
10
1.46488
20
-6.57871
11
1.45925
21
-6.56746
0
LINE
8
BLACK
6
CONTINUOUS
10
1.45925
20
-6.56746
11
1.45925
21
-6.46623
0
LINE
8
BLACK
6
CONTINUOUS
10
1.53799
20
-6.58434
11
1.52674
21
-6.57871
0
LINE
8
BLACK
6
CONTINUOUS
10
1.52674
20
-6.57871
11
1.52112
21
-6.56746
0
LINE
8
BLACK
6
CONTINUOUS
10
1.52112
20
-6.56746
11
1.52112
21
-6.46623
0
LINE
8
BLACK
6
CONTINUOUS
10
1.67298
20
-6.58434
11
1.67298
21
-6.46623
0
LINE
8
BLACK
6
CONTINUOUS
10
1.67298
20
-6.46623
11
1.71235
21
-6.55059
0
LINE
8
BLACK
6
CONTINUOUS
10
1.71235
20
-6.55059
11
1.75172
21
-6.46623
0
LINE
8
BLACK
6
CONTINUOUS
10
1.75172
20
-6.46623
11
1.75172
21
-6.58434
0
LINE
8
BLACK
6
CONTINUOUS
10
1.85858
20
-6.58434
11
1.85858
21
-6.52247
0
LINE
8
BLACK
6
CONTINUOUS
10
1.85858
20
-6.52247
11
1.85295
21
-6.51122
0
LINE
8
BLACK
6
CONTINUOUS
10
1.85295
20
-6.51122
11
1.8417
21
-6.5056
0
LINE
8
BLACK
6
CONTINUOUS
10
1.8417
20
-6.5056
11
1.81921
21
-6.5056
0
LINE
8
BLACK
6
CONTINUOUS
10
1.81921
20
-6.5056
11
1.80796
21
-6.51122
0
LINE
8
BLACK
6
CONTINUOUS
10
1.85858
20
-6.57871
11
1.84733
21
-6.58434
0
LINE
8
BLACK
6
CONTINUOUS
10
1.84733
20
-6.58434
11
1.81921
21
-6.58434
0
LINE
8
BLACK
6
CONTINUOUS
10
1.81921
20
-6.58434
11
1.80796
21
-6.57871
0
LINE
8
BLACK
6
CONTINUOUS
10
1.80796
20
-6.57871
11
1.80233
21
-6.56746
0
LINE
8
BLACK
6
CONTINUOUS
10
1.80233
20
-6.56746
11
1.80233
21
-6.55621
0
LINE
8
BLACK
6
CONTINUOUS
10
1.80233
20
-6.55621
11
1.80796
21
-6.54497
0
LINE
8
BLACK
6
CONTINUOUS
10
1.80796
20
-6.54497
11
1.81921
21
-6.53934
0
LINE
8
BLACK
6
CONTINUOUS
10
1.81921
20
-6.53934
11
1.84733
21
-6.53934
0
LINE
8
BLACK
6
CONTINUOUS
10
1.84733
20
-6.53934
11
1.85858
21
-6.53372
0
LINE
8
BLACK
6
CONTINUOUS
10
1.91482
20
-6.5056
11
1.91482
21
-6.62371
0
LINE
8
BLACK
6
CONTINUOUS
10
1.91482
20
-6.51122
11
1.92607
21
-6.5056
0
LINE
8
BLACK
6
CONTINUOUS
10
1.92607
20
-6.5056
11
1.94857
21
-6.5056
0
LINE
8
BLACK
6
CONTINUOUS
10
1.94857
20
-6.5056
11
1.95981
21
-6.51122
0
LINE
8
BLACK
6
CONTINUOUS
10
1.95981
20
-6.51122
11
1.96544
21
-6.51684
0
LINE
8
BLACK
6
CONTINUOUS
10
1.96544
20
-6.51684
11
1.97106
21
-6.52809
0
LINE
8
BLACK
6
CONTINUOUS
10
1.97106
20
-6.52809
11
1.97106
21
-6.56184
0
LINE
8
BLACK
6
CONTINUOUS
10
1.97106
20
-6.56184
11
1.96544
21
-6.57309
0
LINE
8
BLACK
6
CONTINUOUS
10
1.96544
20
-6.57309
11
1.95981
21
-6.57871
0
LINE
8
BLACK
6
CONTINUOUS
10
1.95981
20
-6.57871
11
1.94857
21
-6.58434
0
LINE
8
BLACK
6
CONTINUOUS
10
1.94857
20
-6.58434
11
1.92607
21
-6.58434
0
LINE
8
BLACK
6
CONTINUOUS
10
1.92607
20
-6.58434
11
1.91482
21
-6.57871
0
LINE
8
BLACK
6
CONTINUOUS
10
2.02168
20
-6.57309
11
2.02731
21
-6.57871
0
LINE
8
BLACK
6
CONTINUOUS
10
2.02731
20
-6.57871
11
2.02168
21
-6.58434
0
LINE
8
BLACK
6
CONTINUOUS
10
2.02168
20
-6.58434
11
2.01606
21
-6.57871
0
LINE
8
BLACK
6
CONTINUOUS
10
2.01606
20
-6.57871
11
2.02168
21
-6.57309
0
LINE
8
BLACK
6
CONTINUOUS
10
2.02168
20
-6.57309
11
2.02168
21
-6.58434
0
LINE
8
BLACK
6
CONTINUOUS
10
2.02168
20
-6.51122
11
2.02731
21
-6.51684
0
LINE
8
BLACK
6
CONTINUOUS
10
2.02731
20
-6.51684
11
2.02168
21
-6.52247
0
LINE
8
BLACK
6
CONTINUOUS
10
2.02168
20
-6.52247
11
2.01606
21
-6.51684
0
LINE
8
BLACK
6
CONTINUOUS
10
2.01606
20
-6.51684
11
2.02168
21
-6.51122
0
LINE
8
BLACK
6
CONTINUOUS
10
2.02168
20
-6.51122
11
2.02168
21
-6.52247
0
LINE
8
BLACK
6
CONTINUOUS
10
0.973031
20
-6.71594
11
1.09902
21
-6.84193
0
LINE
8
BLACK
6
CONTINUOUS
10
1.09902
20
-6.71594
11
0.973031
21
-6.84193
0
LINE
8
BLACK
6
CONTINUOUS
10
1.20053
20
-6.71426
11
1.27365
21
-6.71426
0
LINE
8
BLACK
6
CONTINUOUS
10
1.27365
20
-6.71426
11
1.23428
21
-6.75925
0
LINE
8
BLACK
6
CONTINUOUS
10
1.23428
20
-6.75925
11
1.25115
21
-6.75925
0
LINE
8
BLACK
6
CONTINUOUS
10
1.25115
20
-6.75925
11
1.2624
21
-6.76488
0
LINE
8
BLACK
6
CONTINUOUS
10
1.2624
20
-6.76488
11
1.26803
21
-6.7705
0
LINE
8
BLACK
6
CONTINUOUS
10
1.26803
20
-6.7705
11
1.27365
21
-6.78175
0
LINE
8
BLACK
6
CONTINUOUS
10
1.27365
20
-6.78175
11
1.27365
21
-6.80987
0
LINE
8
BLACK
6
CONTINUOUS
10
1.27365
20
-6.80987
11
1.26803
21
-6.82112
0
LINE
8
BLACK
6
CONTINUOUS
10
1.26803
20
-6.82112
11
1.2624
21
-6.82674
0
LINE
8
BLACK
6
CONTINUOUS
10
1.2624
20
-6.82674
11
1.25115
21
-6.83237
0
LINE
8
BLACK
6
CONTINUOUS
10
1.25115
20
-6.83237
11
1.21741
21
-6.83237
0
LINE
8
BLACK
6
CONTINUOUS
10
1.21741
20
-6.83237
11
1.20616
21
-6.82674
0
LINE
8
BLACK
6
CONTINUOUS
10
1.20616
20
-6.82674
11
1.20053
21
-6.82112
0
LINE
8
BLACK
6
CONTINUOUS
10
1.32427
20
-6.82112
11
1.32989
21
-6.82674
0
LINE
8
BLACK
6
CONTINUOUS
10
1.32989
20
-6.82674
11
1.32427
21
-6.83237
0
LINE
8
BLACK
6
CONTINUOUS
10
1.32427
20
-6.83237
11
1.31864
21
-6.82674
0
LINE
8
BLACK
6
CONTINUOUS
10
1.31864
20
-6.82674
11
1.32427
21
-6.82112
0
LINE
8
BLACK
6
CONTINUOUS
10
1.32427
20
-6.82112
11
1.32427
21
-6.83237
0
LINE
8
BLACK
6
CONTINUOUS
10
1.37489
20
-6.72551
11
1.38051
21
-6.71988
0
LINE
8
BLACK
6
CONTINUOUS
10
1.38051
20
-6.71988
11
1.39176
21
-6.71426
0
LINE
8
BLACK
6
CONTINUOUS
10
1.39176
20
-6.71426
11
1.41988
21
-6.71426
0
LINE
8
BLACK
6
CONTINUOUS
10
1.41988
20
-6.71426
11
1.43113
21
-6.71988
0
LINE
8
BLACK
6
CONTINUOUS
10
1.43113
20
-6.71988
11
1.43675
21
-6.72551
0
LINE
8
BLACK
6
CONTINUOUS
10
1.43675
20
-6.72551
11
1.44238
21
-6.73675
0
LINE
8
BLACK
6
CONTINUOUS
10
1.44238
20
-6.73675
11
1.44238
21
-6.748
0
LINE
8
BLACK
6
CONTINUOUS
10
1.44238
20
-6.748
11
1.43675
21
-6.76488
0
LINE
8
BLACK
6
CONTINUOUS
10
1.43675
20
-6.76488
11
1.36926
21
-6.83237
0
LINE
8
BLACK
6
CONTINUOUS
10
1.36926
20
-6.83237
11
1.44238
21
-6.83237
0
LINE
8
BLACK
6
CONTINUOUS
10
1.51549
20
-6.71426
11
1.52674
21
-6.71426
0
LINE
8
BLACK
6
CONTINUOUS
10
1.52674
20
-6.71426
11
1.53799
21
-6.71988
0
LINE
8
BLACK
6
CONTINUOUS
10
1.53799
20
-6.71988
11
1.54362
21
-6.72551
0
LINE
8
BLACK
6
CONTINUOUS
10
1.54362
20
-6.72551
11
1.54924
21
-6.73675
0
LINE
8
BLACK
6
CONTINUOUS
10
1.54924
20
-6.73675
11
1.55486
21
-6.75925
0
LINE
8
BLACK
6
CONTINUOUS
10
1.55486
20
-6.75925
11
1.55486
21
-6.78737
0
LINE
8
BLACK
6
CONTINUOUS
10
1.55486
20
-6.78737
11
1.54924
21
-6.80987
0
LINE
8
BLACK
6
CONTINUOUS
10
1.54924
20
-6.80987
11
1.54362
21
-6.82112
0
LINE
8
BLACK
6
CONTINUOUS
10
1.54362
20
-6.82112
11
1.53799
21
-6.82674
0
LINE
8
BLACK
6
CONTINUOUS
10
1.53799
20
-6.82674
11
1.52674
21
-6.83237
0
LINE
8
BLACK
6
CONTINUOUS
10
1.52674
20
-6.83237
11
1.51549
21
-6.83237
0
LINE
8
BLACK
6
CONTINUOUS
10
1.51549
20
-6.83237
11
1.50425
21
-6.82674
0
LINE
8
BLACK
6
CONTINUOUS
10
1.50425
20
-6.82674
11
1.49862
21
-6.82112
0
LINE
8
BLACK
6
CONTINUOUS
10
1.49862
20
-6.82112
11
1.493
21
-6.80987
0
LINE
8
BLACK
6
CONTINUOUS
10
1.493
20
-6.80987
11
1.48737
21
-6.78737
0
LINE
8
BLACK
6
CONTINUOUS
10
1.48737
20
-6.78737
11
1.48737
21
-6.75925
0
LINE
8
BLACK
6
CONTINUOUS
10
1.48737
20
-6.75925
11
1.493
21
-6.73675
0
LINE
8
BLACK
6
CONTINUOUS
10
1.493
20
-6.73675
11
1.49862
21
-6.72551
0
LINE
8
BLACK
6
CONTINUOUS
10
1.49862
20
-6.72551
11
1.50425
21
-6.71988
0
LINE
8
BLACK
6
CONTINUOUS
10
1.50425
20
-6.71988
11
1.51549
21
-6.71426
0
LINE
8
BLACK
6
CONTINUOUS
10
1.62798
20
-6.71426
11
1.63923
21
-6.71426
0
LINE
8
BLACK
6
CONTINUOUS
10
1.63923
20
-6.71426
11
1.65048
21
-6.71988
0
LINE
8
BLACK
6
CONTINUOUS
10
1.65048
20
-6.71988
11
1.6561
21
-6.72551
0
LINE
8
BLACK
6
CONTINUOUS
10
1.6561
20
-6.72551
11
1.66173
21
-6.73675
0
LINE
8
BLACK
6
CONTINUOUS
10
1.66173
20
-6.73675
11
1.66735
21
-6.75925
0
LINE
8
BLACK
6
CONTINUOUS
10
1.66735
20
-6.75925
11
1.66735
21
-6.78737
0
LINE
8
BLACK
6
CONTINUOUS
10
1.66735
20
-6.78737
11
1.66173
21
-6.80987
0
LINE
8
BLACK
6
CONTINUOUS
10
1.66173
20
-6.80987
11
1.6561
21
-6.82112
0
LINE
8
BLACK
6
CONTINUOUS
10
1.6561
20
-6.82112
11
1.65048
21
-6.82674
0
LINE
8
BLACK
6
CONTINUOUS
10
1.65048
20
-6.82674
11
1.63923
21
-6.83237
0
LINE
8
BLACK
6
CONTINUOUS
10
1.63923
20
-6.83237
11
1.62798
21
-6.83237
0
LINE
8
BLACK
6
CONTINUOUS
10
1.62798
20
-6.83237
11
1.61673
21
-6.82674
0
LINE
8
BLACK
6
CONTINUOUS
10
1.61673
20
-6.82674
11
1.61111
21
-6.82112
0
LINE
8
BLACK
6
CONTINUOUS
10
1.61111
20
-6.82112
11
1.60548
21
-6.80987
0
LINE
8
BLACK
6
CONTINUOUS
10
1.60548
20
-6.80987
11
1.59986
21
-6.78737
0
LINE
8
BLACK
6
CONTINUOUS
10
1.59986
20
-6.78737
11
1.59986
21
-6.75925
0
LINE
8
BLACK
6
CONTINUOUS
10
1.59986
20
-6.75925
11
1.60548
21
-6.73675
0
LINE
8
BLACK
6
CONTINUOUS
10
1.60548
20
-6.73675
11
1.61111
21
-6.72551
0
LINE
8
BLACK
6
CONTINUOUS
10
1.61111
20
-6.72551
11
1.61673
21
-6.71988
0
LINE
8
BLACK
6
CONTINUOUS
10
1.61673
20
-6.71988
11
1.62798
21
-6.71426
0
LINE
8
BLACK
6
CONTINUOUS
10
1.71797
20
-6.83237
11
1.71797
21
-6.75363
0
LINE
8
BLACK
6
CONTINUOUS
10
1.71797
20
-6.76488
11
1.72359
21
-6.75925
0
LINE
8
BLACK
6
CONTINUOUS
10
1.72359
20
-6.75925
11
1.73484
21
-6.75363
0
LINE
8
BLACK
6
CONTINUOUS
10
1.73484
20
-6.75363
11
1.75172
21
-6.75363
0
LINE
8
BLACK
6
CONTINUOUS
10
1.75172
20
-6.75363
11
1.76296
21
-6.75925
0
LINE
8
BLACK
6
CONTINUOUS
10
1.76296
20
-6.75925
11
1.76859
21
-6.7705
0
LINE
8
BLACK
6
CONTINUOUS
10
1.76859
20
-6.7705
11
1.76859
21
-6.83237
0
LINE
8
BLACK
6
CONTINUOUS
10
1.76859
20
-6.7705
11
1.77421
21
-6.75925
0
LINE
8
BLACK
6
CONTINUOUS
10
1.77421
20
-6.75925
11
1.78546
21
-6.75363
0
LINE
8
BLACK
6
CONTINUOUS
10
1.78546
20
-6.75363
11
1.80233
21
-6.75363
0
LINE
8
BLACK
6
CONTINUOUS
10
1.80233
20
-6.75363
11
1.81358
21
-6.75925
0
LINE
8
BLACK
6
CONTINUOUS
10
1.81358
20
-6.75925
11
1.81921
21
-6.7705
0
LINE
8
BLACK
6
CONTINUOUS
10
1.81921
20
-6.7705
11
1.81921
21
-6.83237
0
LINE
8
BLACK
6
CONTINUOUS
10
1.87545
20
-6.83237
11
1.87545
21
-6.75363
0
LINE
8
BLACK
6
CONTINUOUS
10
1.87545
20
-6.76488
11
1.88107
21
-6.75925
0
LINE
8
BLACK
6
CONTINUOUS
10
1.88107
20
-6.75925
11
1.89232
21
-6.75363
0
LINE
8
BLACK
6
CONTINUOUS
10
1.89232
20
-6.75363
11
1.9092
21
-6.75363
0
LINE
8
BLACK
6
CONTINUOUS
10
1.9092
20
-6.75363
11
1.92044
21
-6.75925
0
LINE
8
BLACK
6
CONTINUOUS
10
1.92044
20
-6.75925
11
1.92607
21
-6.7705
0
LINE
8
BLACK
6
CONTINUOUS
10
1.92607
20
-6.7705
11
1.92607
21
-6.83237
0
LINE
8
BLACK
6
CONTINUOUS
10
1.92607
20
-6.7705
11
1.93169
21
-6.75925
0
LINE
8
BLACK
6
CONTINUOUS
10
1.93169
20
-6.75925
11
1.94294
21
-6.75363
0
LINE
8
BLACK
6
CONTINUOUS
10
1.94294
20
-6.75363
11
1.95981
21
-6.75363
0
LINE
8
BLACK
6
CONTINUOUS
10
1.95981
20
-6.75363
11
1.97106
21
-6.75925
0
LINE
8
BLACK
6
CONTINUOUS
10
1.97106
20
-6.75925
11
1.97669
21
-6.7705
0
LINE
8
BLACK
6
CONTINUOUS
10
1.97669
20
-6.7705
11
1.97669
21
-6.83237
0
LINE
8
BLACK
6
CONTINUOUS
10
2.20728
20
-6.70863
11
2.10605
21
-6.86049
0
LINE
8
BLACK
6
CONTINUOUS
10
2.35914
20
-6.71426
11
2.37039
21
-6.71426
0
LINE
8
BLACK
6
CONTINUOUS
10
2.37039
20
-6.71426
11
2.38164
21
-6.71988
0
LINE
8
BLACK
6
CONTINUOUS
10
2.38164
20
-6.71988
11
2.38726
21
-6.72551
0
LINE
8
BLACK
6
CONTINUOUS
10
2.38726
20
-6.72551
11
2.39289
21
-6.73675
0
LINE
8
BLACK
6
CONTINUOUS
10
2.39289
20
-6.73675
11
2.39851
21
-6.75925
0
LINE
8
BLACK
6
CONTINUOUS
10
2.39851
20
-6.75925
11
2.39851
21
-6.78737
0
LINE
8
BLACK
6
CONTINUOUS
10
2.39851
20
-6.78737
11
2.39289
21
-6.80987
0
LINE
8
BLACK
6
CONTINUOUS
10
2.39289
20
-6.80987
11
2.38726
21
-6.82112
0
LINE
8
BLACK
6
CONTINUOUS
10
2.38726
20
-6.82112
11
2.38164
21
-6.82674
0
LINE
8
BLACK
6
CONTINUOUS
10
2.38164
20
-6.82674
11
2.37039
21
-6.83237
0
LINE
8
BLACK
6
CONTINUOUS
10
2.37039
20
-6.83237
11
2.35914
21
-6.83237
0
LINE
8
BLACK
6
CONTINUOUS
10
2.35914
20
-6.83237
11
2.34789
21
-6.82674
0
LINE
8
BLACK
6
CONTINUOUS
10
2.34789
20
-6.82674
11
2.34227
21
-6.82112
0
LINE
8
BLACK
6
CONTINUOUS
10
2.34227
20
-6.82112
11
2.33664
21
-6.80987
0
LINE
8
BLACK
6
CONTINUOUS
10
2.33664
20
-6.80987
11
2.33102
21
-6.78737
0
LINE
8
BLACK
6
CONTINUOUS
10
2.33102
20
-6.78737
11
2.33102
21
-6.75925
0
LINE
8
BLACK
6
CONTINUOUS
10
2.33102
20
-6.75925
11
2.33664
21
-6.73675
0
LINE
8
BLACK
6
CONTINUOUS
10
2.33664
20
-6.73675
11
2.34227
21
-6.72551
0
LINE
8
BLACK
6
CONTINUOUS
10
2.34227
20
-6.72551
11
2.34789
21
-6.71988
0
LINE
8
BLACK
6
CONTINUOUS
10
2.34789
20
-6.71988
11
2.35914
21
-6.71426
0
LINE
8
BLACK
6
CONTINUOUS
10
2.44913
20
-6.82112
11
2.45475
21
-6.82674
0
LINE
8
BLACK
6
CONTINUOUS
10
2.45475
20
-6.82674
11
2.44913
21
-6.83237
0
LINE
8
BLACK
6
CONTINUOUS
10
2.44913
20
-6.83237
11
2.4435
21
-6.82674
0
LINE
8
BLACK
6
CONTINUOUS
10
2.4435
20
-6.82674
11
2.44913
21
-6.82112
0
LINE
8
BLACK
6
CONTINUOUS
10
2.44913
20
-6.82112
11
2.44913
21
-6.83237
0
LINE
8
BLACK
6
CONTINUOUS
10
2.56724
20
-6.83237
11
2.49975
21
-6.83237
0
LINE
8
BLACK
6
CONTINUOUS
10
2.53349
20
-6.83237
11
2.53349
21
-6.71426
0
LINE
8
BLACK
6
CONTINUOUS
10
2.53349
20
-6.71426
11
2.52224
21
-6.73113
0
LINE
8
BLACK
6
CONTINUOUS
10
2.52224
20
-6.73113
11
2.511
21
-6.74238
0
LINE
8
BLACK
6
CONTINUOUS
10
2.511
20
-6.74238
11
2.49975
21
-6.748
0
LINE
8
BLACK
6
CONTINUOUS
10
2.61223
20
-6.72551
11
2.61786
21
-6.71988
0
LINE
8
BLACK
6
CONTINUOUS
10
2.61786
20
-6.71988
11
2.62911
21
-6.71426
0
LINE
8
BLACK
6
CONTINUOUS
10
2.62911
20
-6.71426
11
2.65723
21
-6.71426
0
LINE
8
BLACK
6
CONTINUOUS
10
2.65723
20
-6.71426
11
2.66848
21
-6.71988
0
LINE
8
BLACK
6
CONTINUOUS
10
2.66848
20
-6.71988
11
2.6741
21
-6.72551
0
LINE
8
BLACK
6
CONTINUOUS
10
2.6741
20
-6.72551
11
2.67972
21
-6.73675
0
LINE
8
BLACK
6
CONTINUOUS
10
2.67972
20
-6.73675
11
2.67972
21
-6.748
0
LINE
8
BLACK
6
CONTINUOUS
10
2.67972
20
-6.748
11
2.6741
21
-6.76488
0
LINE
8
BLACK
6
CONTINUOUS
10
2.6741
20
-6.76488
11
2.60661
21
-6.83237
0
LINE
8
BLACK
6
CONTINUOUS
10
2.60661
20
-6.83237
11
2.67972
21
-6.83237
0
LINE
8
BLACK
6
CONTINUOUS
10
2.78096
20
-6.71426
11
2.75846
21
-6.71426
0
LINE
8
BLACK
6
CONTINUOUS
10
2.75846
20
-6.71426
11
2.74722
21
-6.71988
0
LINE
8
BLACK
6
CONTINUOUS
10
2.74722
20
-6.71988
11
2.74159
21
-6.72551
0
LINE
8
BLACK
6
CONTINUOUS
10
2.74159
20
-6.72551
11
2.73034
21
-6.74238
0
LINE
8
BLACK
6
CONTINUOUS
10
2.73034
20
-6.74238
11
2.72472
21
-6.76488
0
LINE
8
BLACK
6
CONTINUOUS
10
2.72472
20
-6.76488
11
2.72472
21
-6.80987
0
LINE
8
BLACK
6
CONTINUOUS
10
2.72472
20
-6.80987
11
2.73034
21
-6.82112
0
LINE
8
BLACK
6
CONTINUOUS
10
2.73034
20
-6.82112
11
2.73597
21
-6.82674
0
LINE
8
BLACK
6
CONTINUOUS
10
2.73597
20
-6.82674
11
2.74722
21
-6.83237
0
LINE
8
BLACK
6
CONTINUOUS
10
2.74722
20
-6.83237
11
2.76971
21
-6.83237
0
LINE
8
BLACK
6
CONTINUOUS
10
2.76971
20
-6.83237
11
2.78096
21
-6.82674
0
LINE
8
BLACK
6
CONTINUOUS
10
2.78096
20
-6.82674
11
2.78659
21
-6.82112
0
LINE
8
BLACK
6
CONTINUOUS
10
2.78659
20
-6.82112
11
2.79221
21
-6.80987
0
LINE
8
BLACK
6
CONTINUOUS
10
2.79221
20
-6.80987
11
2.79221
21
-6.78175
0
LINE
8
BLACK
6
CONTINUOUS
10
2.79221
20
-6.78175
11
2.78659
21
-6.7705
0
LINE
8
BLACK
6
CONTINUOUS
10
2.78659
20
-6.7705
11
2.78096
21
-6.76488
0
LINE
8
BLACK
6
CONTINUOUS
10
2.78096
20
-6.76488
11
2.76971
21
-6.75925
0
LINE
8
BLACK
6
CONTINUOUS
10
2.76971
20
-6.75925
11
2.74722
21
-6.75925
0
LINE
8
BLACK
6
CONTINUOUS
10
2.74722
20
-6.75925
11
2.73597
21
-6.76488
0
LINE
8
BLACK
6
CONTINUOUS
10
2.73597
20
-6.76488
11
2.73034
21
-6.7705
0
LINE
8
BLACK
6
CONTINUOUS
10
2.73034
20
-6.7705
11
2.72472
21
-6.78175
0
LINE
8
BLACK
6
CONTINUOUS
10
2.86533
20
-6.71426
11
2.87657
21
-6.71426
0
LINE
8
BLACK
6
CONTINUOUS
10
2.87657
20
-6.71426
11
2.88782
21
-6.71988
0
LINE
8
BLACK
6
CONTINUOUS
10
2.88782
20
-6.71988
11
2.89345
21
-6.72551
0
LINE
8
BLACK
6
CONTINUOUS
10
2.89345
20
-6.72551
11
2.89907
21
-6.73675
0
LINE
8
BLACK
6
CONTINUOUS
10
2.89907
20
-6.73675
11
2.9047
21
-6.75925
0
LINE
8
BLACK
6
CONTINUOUS
10
2.9047
20
-6.75925
11
2.9047
21
-6.78737
0
LINE
8
BLACK
6
CONTINUOUS
10
2.9047
20
-6.78737
11
2.89907
21
-6.80987
0
LINE
8
BLACK
6
CONTINUOUS
10
2.89907
20
-6.80987
11
2.89345
21
-6.82112
0
LINE
8
BLACK
6
CONTINUOUS
10
2.89345
20
-6.82112
11
2.88782
21
-6.82674
0
LINE
8
BLACK
6
CONTINUOUS
10
2.88782
20
-6.82674
11
2.87657
21
-6.83237
0
LINE
8
BLACK
6
CONTINUOUS
10
2.87657
20
-6.83237
11
2.86533
21
-6.83237
0
LINE
8
BLACK
6
CONTINUOUS
10
2.86533
20
-6.83237
11
2.85408
21
-6.82674
0
LINE
8
BLACK
6
CONTINUOUS
10
2.85408
20
-6.82674
11
2.84845
21
-6.82112
0
LINE
8
BLACK
6
CONTINUOUS
10
2.84845
20
-6.82112
11
2.84283
21
-6.80987
0
LINE
8
BLACK
6
CONTINUOUS
10
2.84283
20
-6.80987
11
2.8372
21
-6.78737
0
LINE
8
BLACK
6
CONTINUOUS
10
2.8372
20
-6.78737
11
2.8372
21
-6.75925
0
LINE
8
BLACK
6
CONTINUOUS
10
2.8372
20
-6.75925
11
2.84283
21
-6.73675
0
LINE
8
BLACK
6
CONTINUOUS
10
2.84283
20
-6.73675
11
2.84845
21
-6.72551
0
LINE
8
BLACK
6
CONTINUOUS
10
2.84845
20
-6.72551
11
2.85408
21
-6.71988
0
LINE
8
BLACK
6
CONTINUOUS
10
2.85408
20
-6.71988
11
2.86533
21
-6.71426
0
LINE
8
BLACK
6
CONTINUOUS
10
2.94969
20
-6.71426
11
2.94969
21
-6.73675
0
LINE
8
BLACK
6
CONTINUOUS
10
2.99469
20
-6.71426
11
2.99469
21
-6.73675
0
LINE
8
BLACK
6
CONTINUOUS
10
3.16904
20
-6.87736
11
3.16341
21
-6.87174
0
LINE
8
BLACK
6
CONTINUOUS
10
3.16341
20
-6.87174
11
3.15217
21
-6.85487
0
LINE
8
BLACK
6
CONTINUOUS
10
3.15217
20
-6.85487
11
3.14654
21
-6.84362
0
LINE
8
BLACK
6
CONTINUOUS
10
3.14654
20
-6.84362
11
3.14092
21
-6.82674
0
LINE
8
BLACK
6
CONTINUOUS
10
3.14092
20
-6.82674
11
3.13529
21
-6.79862
0
LINE
8
BLACK
6
CONTINUOUS
10
3.13529
20
-6.79862
11
3.13529
21
-6.77612
0
LINE
8
BLACK
6
CONTINUOUS
10
3.13529
20
-6.77612
11
3.14092
21
-6.748
0
LINE
8
BLACK
6
CONTINUOUS
10
3.14092
20
-6.748
11
3.14654
21
-6.73113
0
LINE
8
BLACK
6
CONTINUOUS
10
3.14654
20
-6.73113
11
3.15217
21
-6.71988
0
LINE
8
BLACK
6
CONTINUOUS
10
3.15217
20
-6.71988
11
3.16341
21
-6.70301
0
LINE
8
BLACK
6
CONTINUOUS
10
3.16341
20
-6.70301
11
3.16904
21
-6.69738
0
LINE
8
BLACK
6
CONTINUOUS
10
3.20278
20
-6.71426
11
3.2759
21
-6.71426
0
LINE
8
BLACK
6
CONTINUOUS
10
3.2759
20
-6.71426
11
3.23653
21
-6.75925
0
LINE
8
BLACK
6
CONTINUOUS
10
3.23653
20
-6.75925
11
3.2534
21
-6.75925
0
LINE
8
BLACK
6
CONTINUOUS
10
3.2534
20
-6.75925
11
3.26465
21
-6.76488
0
LINE
8
BLACK
6
CONTINUOUS
10
3.26465
20
-6.76488
11
3.27028
21
-6.7705
0
LINE
8
BLACK
6
CONTINUOUS
10
3.27028
20
-6.7705
11
3.2759
21
-6.78175
0
LINE
8
BLACK
6
CONTINUOUS
10
3.2759
20
-6.78175
11
3.2759
21
-6.80987
0
LINE
8
BLACK
6
CONTINUOUS
10
3.2759
20
-6.80987
11
3.27028
21
-6.82112
0
LINE
8
BLACK
6
CONTINUOUS
10
3.27028
20
-6.82112
11
3.26465
21
-6.82674
0
LINE
8
BLACK
6
CONTINUOUS
10
3.26465
20
-6.82674
11
3.2534
21
-6.83237
0
LINE
8
BLACK
6
CONTINUOUS
10
3.2534
20
-6.83237
11
3.21966
21
-6.83237
0
LINE
8
BLACK
6
CONTINUOUS
10
3.21966
20
-6.83237
11
3.20841
21
-6.82674
0
LINE
8
BLACK
6
CONTINUOUS
10
3.20841
20
-6.82674
11
3.20278
21
-6.82112
0
LINE
8
BLACK
6
CONTINUOUS
10
3.41651
20
-6.83237
11
3.41651
21
-6.71426
0
LINE
8
BLACK
6
CONTINUOUS
10
3.46713
20
-6.83237
11
3.46713
21
-6.7705
0
LINE
8
BLACK
6
CONTINUOUS
10
3.46713
20
-6.7705
11
3.4615
21
-6.75925
0
LINE
8
BLACK
6
CONTINUOUS
10
3.4615
20
-6.75925
11
3.45025
21
-6.75363
0
LINE
8
BLACK
6
CONTINUOUS
10
3.45025
20
-6.75363
11
3.43338
21
-6.75363
0
LINE
8
BLACK
6
CONTINUOUS
10
3.43338
20
-6.75363
11
3.42213
21
-6.75925
0
LINE
8
BLACK
6
CONTINUOUS
10
3.42213
20
-6.75925
11
3.41651
21
-6.76488
0
LINE
8
BLACK
6
CONTINUOUS
10
3.54024
20
-6.83237
11
3.52899
21
-6.82674
0
LINE
8
BLACK
6
CONTINUOUS
10
3.52899
20
-6.82674
11
3.52337
21
-6.82112
0
LINE
8
BLACK
6
CONTINUOUS
10
3.52337
20
-6.82112
11
3.51774
21
-6.80987
0
LINE
8
BLACK
6
CONTINUOUS
10
3.51774
20
-6.80987
11
3.51774
21
-6.77612
0
LINE
8
BLACK
6
CONTINUOUS
10
3.51774
20
-6.77612
11
3.52337
21
-6.76488
0
LINE
8
BLACK
6
CONTINUOUS
10
3.52337
20
-6.76488
11
3.52899
21
-6.75925
0
LINE
8
BLACK
6
CONTINUOUS
10
3.52899
20
-6.75925
11
3.54024
21
-6.75363
0
LINE
8
BLACK
6
CONTINUOUS
10
3.54024
20
-6.75363
11
3.55711
21
-6.75363
0
LINE
8
BLACK
6
CONTINUOUS
10
3.55711
20
-6.75363
11
3.56836
21
-6.75925
0
LINE
8
BLACK
6
CONTINUOUS
10
3.56836
20
-6.75925
11
3.57399
21
-6.76488
0
LINE
8
BLACK
6
CONTINUOUS
10
3.57399
20
-6.76488
11
3.57961
21
-6.77612
0
LINE
8
BLACK
6
CONTINUOUS
10
3.57961
20
-6.77612
11
3.57961
21
-6.80987
0
LINE
8
BLACK
6
CONTINUOUS
10
3.57961
20
-6.80987
11
3.57399
21
-6.82112
0
LINE
8
BLACK
6
CONTINUOUS
10
3.57399
20
-6.82112
11
3.56836
21
-6.82674
0
LINE
8
BLACK
6
CONTINUOUS
10
3.56836
20
-6.82674
11
3.55711
21
-6.83237
0
LINE
8
BLACK
6
CONTINUOUS
10
3.55711
20
-6.83237
11
3.54024
21
-6.83237
0
LINE
8
BLACK
6
CONTINUOUS
10
3.6471
20
-6.83237
11
3.63585
21
-6.82674
0
LINE
8
BLACK
6
CONTINUOUS
10
3.63585
20
-6.82674
11
3.63023
21
-6.81549
0
LINE
8
BLACK
6
CONTINUOUS
10
3.63023
20
-6.81549
11
3.63023
21
-6.71426
0
LINE
8
BLACK
6
CONTINUOUS
10
3.73709
20
-6.82674
11
3.72584
21
-6.83237
0
LINE
8
BLACK
6
CONTINUOUS
10
3.72584
20
-6.83237
11
3.70335
21
-6.83237
0
LINE
8
BLACK
6
CONTINUOUS
10
3.70335
20
-6.83237
11
3.6921
21
-6.82674
0
LINE
8
BLACK
6
CONTINUOUS
10
3.6921
20
-6.82674
11
3.68647
21
-6.81549
0
LINE
8
BLACK
6
CONTINUOUS
10
3.68647
20
-6.81549
11
3.68647
21
-6.7705
0
LINE
8
BLACK
6
CONTINUOUS
10
3.68647
20
-6.7705
11
3.6921
21
-6.75925
0
LINE
8
BLACK
6
CONTINUOUS
10
3.6921
20
-6.75925
11
3.70335
21
-6.75363
0
LINE
8
BLACK
6
CONTINUOUS
10
3.70335
20
-6.75363
11
3.72584
21
-6.75363
0
LINE
8
BLACK
6
CONTINUOUS
10
3.72584
20
-6.75363
11
3.73709
21
-6.75925
0
LINE
8
BLACK
6
CONTINUOUS
10
3.73709
20
-6.75925
11
3.74272
21
-6.7705
0
LINE
8
BLACK
6
CONTINUOUS
10
3.74272
20
-6.7705
11
3.74272
21
-6.78175
0
LINE
8
BLACK
6
CONTINUOUS
10
3.74272
20
-6.78175
11
3.68647
21
-6.793
0
LINE
8
BLACK
6
CONTINUOUS
10
3.78771
20
-6.82674
11
3.79896
21
-6.83237
0
LINE
8
BLACK
6
CONTINUOUS
10
3.79896
20
-6.83237
11
3.82146
21
-6.83237
0
LINE
8
BLACK
6
CONTINUOUS
10
3.82146
20
-6.83237
11
3.83271
21
-6.82674
0
LINE
8
BLACK
6
CONTINUOUS
10
3.83271
20
-6.82674
11
3.83833
21
-6.81549
0
LINE
8
BLACK
6
CONTINUOUS
10
3.83833
20
-6.81549
11
3.83833
21
-6.80987
0
LINE
8
BLACK
6
CONTINUOUS
10
3.83833
20
-6.80987
11
3.83271
21
-6.79862
0
LINE
8
BLACK
6
CONTINUOUS
10
3.83271
20
-6.79862
11
3.82146
21
-6.793
0
LINE
8
BLACK
6
CONTINUOUS
10
3.82146
20
-6.793
11
3.80458
21
-6.793
0
LINE
8
BLACK
6
CONTINUOUS
10
3.80458
20
-6.793
11
3.79334
21
-6.78737
0
LINE
8
BLACK
6
CONTINUOUS
10
3.79334
20
-6.78737
11
3.78771
21
-6.77612
0
LINE
8
BLACK
6
CONTINUOUS
10
3.78771
20
-6.77612
11
3.78771
21
-6.7705
0
LINE
8
BLACK
6
CONTINUOUS
10
3.78771
20
-6.7705
11
3.79334
21
-6.75925
0
LINE
8
BLACK
6
CONTINUOUS
10
3.79334
20
-6.75925
11
3.80458
21
-6.75363
0
LINE
8
BLACK
6
CONTINUOUS
10
3.80458
20
-6.75363
11
3.82146
21
-6.75363
0
LINE
8
BLACK
6
CONTINUOUS
10
3.82146
20
-6.75363
11
3.83271
21
-6.75925
0
LINE
8
BLACK
6
CONTINUOUS
10
3.8777
20
-6.87736
11
3.88332
21
-6.87174
0
LINE
8
BLACK
6
CONTINUOUS
10
3.88332
20
-6.87174
11
3.89457
21
-6.85487
0
LINE
8
BLACK
6
CONTINUOUS
10
3.89457
20
-6.85487
11
3.9002
21
-6.84362
0
LINE
8
BLACK
6
CONTINUOUS
10
3.9002
20
-6.84362
11
3.90582
21
-6.82674
0
LINE
8
BLACK
6
CONTINUOUS
10
3.90582
20
-6.82674
11
3.91145
21
-6.79862
0
LINE
8
BLACK
6
CONTINUOUS
10
3.91145
20
-6.79862
11
3.91145
21
-6.77612
0
LINE
8
BLACK
6
CONTINUOUS
10
3.91145
20
-6.77612
11
3.90582
21
-6.748
0
LINE
8
BLACK
6
CONTINUOUS
10
3.90582
20
-6.748
11
3.9002
21
-6.73113
0
LINE
8
BLACK
6
CONTINUOUS
10
3.9002
20
-6.73113
11
3.89457
21
-6.71988
0
LINE
8
BLACK
6
CONTINUOUS
10
3.89457
20
-6.71988
11
3.88332
21
-6.70301
0
LINE
8
BLACK
6
CONTINUOUS
10
3.88332
20
-6.70301
11
3.8777
21
-6.69738
0
LINE
8
BLACK
6
CONTINUOUS
10
4.09142
20
-6.87736
11
4.0858
21
-6.87174
0
LINE
8
BLACK
6
CONTINUOUS
10
4.0858
20
-6.87174
11
4.07455
21
-6.85487
0
LINE
8
BLACK
6
CONTINUOUS
10
4.07455
20
-6.85487
11
4.06893
21
-6.84362
0
LINE
8
BLACK
6
CONTINUOUS
10
4.06893
20
-6.84362
11
4.0633
21
-6.82674
0
LINE
8
BLACK
6
CONTINUOUS
10
4.0633
20
-6.82674
11
4.05768
21
-6.79862
0
LINE
8
BLACK
6
CONTINUOUS
10
4.05768
20
-6.79862
11
4.05768
21
-6.77612
0
LINE
8
BLACK
6
CONTINUOUS
10
4.05768
20
-6.77612
11
4.0633
21
-6.748
0
LINE
8
BLACK
6
CONTINUOUS
10
4.0633
20
-6.748
11
4.06893
21
-6.73113
0
LINE
8
BLACK
6
CONTINUOUS
10
4.06893
20
-6.73113
11
4.07455
21
-6.71988
0
LINE
8
BLACK
6
CONTINUOUS
10
4.07455
20
-6.71988
11
4.0858
21
-6.70301
0
LINE
8
BLACK
6
CONTINUOUS
10
4.0858
20
-6.70301
11
4.09142
21
-6.69738
0
LINE
8
BLACK
6
CONTINUOUS
10
4.13642
20
-6.75363
11
4.13642
21
-6.83237
0
LINE
8
BLACK
6
CONTINUOUS
10
4.13642
20
-6.76488
11
4.14204
21
-6.75925
0
LINE
8
BLACK
6
CONTINUOUS
10
4.14204
20
-6.75925
11
4.15329
21
-6.75363
0
LINE
8
BLACK
6
CONTINUOUS
10
4.15329
20
-6.75363
11
4.17016
21
-6.75363
0
LINE
8
BLACK
6
CONTINUOUS
10
4.17016
20
-6.75363
11
4.18141
21
-6.75925
0
LINE
8
BLACK
6
CONTINUOUS
10
4.18141
20
-6.75925
11
4.18704
21
-6.7705
0
LINE
8
BLACK
6
CONTINUOUS
10
4.18704
20
-6.7705
11
4.18704
21
-6.83237
0
LINE
8
BLACK
6
CONTINUOUS
10
4.26015
20
-6.83237
11
4.2489
21
-6.82674
0
LINE
8
BLACK
6
CONTINUOUS
10
4.2489
20
-6.82674
11
4.24328
21
-6.82112
0
LINE
8
BLACK
6
CONTINUOUS
10
4.24328
20
-6.82112
11
4.23765
21
-6.80987
0
LINE
8
BLACK
6
CONTINUOUS
10
4.23765
20
-6.80987
11
4.23765
21
-6.77612
0
LINE
8
BLACK
6
CONTINUOUS
10
4.23765
20
-6.77612
11
4.24328
21
-6.76488
0
LINE
8
BLACK
6
CONTINUOUS
10
4.24328
20
-6.76488
11
4.2489
21
-6.75925
0
LINE
8
BLACK
6
CONTINUOUS
10
4.2489
20
-6.75925
11
4.26015
21
-6.75363
0
LINE
8
BLACK
6
CONTINUOUS
10
4.26015
20
-6.75363
11
4.27702
21
-6.75363
0
LINE
8
BLACK
6
CONTINUOUS
10
4.27702
20
-6.75363
11
4.28827
21
-6.75925
0
LINE
8
BLACK
6
CONTINUOUS
10
4.28827
20
-6.75925
11
4.2939
21
-6.76488
0
LINE
8
BLACK
6
CONTINUOUS
10
4.2939
20
-6.76488
11
4.29952
21
-6.77612
0
LINE
8
BLACK
6
CONTINUOUS
10
4.29952
20
-6.77612
11
4.29952
21
-6.80987
0
LINE
8
BLACK
6
CONTINUOUS
10
4.29952
20
-6.80987
11
4.2939
21
-6.82112
0
LINE
8
BLACK
6
CONTINUOUS
10
4.2939
20
-6.82112
11
4.28827
21
-6.82674
0
LINE
8
BLACK
6
CONTINUOUS
10
4.28827
20
-6.82674
11
4.27702
21
-6.83237
0
LINE
8
BLACK
6
CONTINUOUS
10
4.27702
20
-6.83237
11
4.26015
21
-6.83237
0
LINE
8
BLACK
6
CONTINUOUS
10
4.33327
20
-6.75363
11
4.37826
21
-6.75363
0
LINE
8
BLACK
6
CONTINUOUS
10
4.35014
20
-6.71426
11
4.35014
21
-6.81549
0
LINE
8
BLACK
6
CONTINUOUS
10
4.35014
20
-6.81549
11
4.35576
21
-6.82674
0
LINE
8
BLACK
6
CONTINUOUS
10
4.35576
20
-6.82674
11
4.36701
21
-6.83237
0
LINE
8
BLACK
6
CONTINUOUS
10
4.36701
20
-6.83237
11
4.37826
21
-6.83237
0
LINE
8
BLACK
6
CONTINUOUS
10
4.50762
20
-6.75363
11
4.50762
21
-6.87174
0
LINE
8
BLACK
6
CONTINUOUS
10
4.50762
20
-6.75925
11
4.51887
21
-6.75363
0
LINE
8
BLACK
6
CONTINUOUS
10
4.51887
20
-6.75363
11
4.54137
21
-6.75363
0
LINE
8
BLACK
6
CONTINUOUS
10
4.54137
20
-6.75363
11
4.55262
21
-6.75925
0
LINE
8
BLACK
6
CONTINUOUS
10
4.55262
20
-6.75925
11
4.55824
21
-6.76488
0
LINE
8
BLACK
6
CONTINUOUS
10
4.55824
20
-6.76488
11
4.56386
21
-6.77612
0
LINE
8
BLACK
6
CONTINUOUS
10
4.56386
20
-6.77612
11
4.56386
21
-6.80987
0
LINE
8
BLACK
6
CONTINUOUS
10
4.56386
20
-6.80987
11
4.55824
21
-6.82112
0
LINE
8
BLACK
6
CONTINUOUS
10
4.55824
20
-6.82112
11
4.55262
21
-6.82674
0
LINE
8
BLACK
6
CONTINUOUS
10
4.55262
20
-6.82674
11
4.54137
21
-6.83237
0
LINE
8
BLACK
6
CONTINUOUS
10
4.54137
20
-6.83237
11
4.51887
21
-6.83237
0
LINE
8
BLACK
6
CONTINUOUS
10
4.51887
20
-6.83237
11
4.50762
21
-6.82674
0
LINE
8
BLACK
6
CONTINUOUS
10
4.63136
20
-6.83237
11
4.62011
21
-6.82674
0
LINE
8
BLACK
6
CONTINUOUS
10
4.62011
20
-6.82674
11
4.61448
21
-6.81549
0
LINE
8
BLACK
6
CONTINUOUS
10
4.61448
20
-6.81549
11
4.61448
21
-6.71426
0
LINE
8
BLACK
6
CONTINUOUS
10
4.72697
20
-6.83237
11
4.72697
21
-6.7705
0
LINE
8
BLACK
6
CONTINUOUS
10
4.72697
20
-6.7705
11
4.72134
21
-6.75925
0
LINE
8
BLACK
6
CONTINUOUS
10
4.72134
20
-6.75925
11
4.7101
21
-6.75363
0
LINE
8
BLACK
6
CONTINUOUS
10
4.7101
20
-6.75363
11
4.6876
21
-6.75363
0
LINE
8
BLACK
6
CONTINUOUS
10
4.6876
20
-6.75363
11
4.67635
21
-6.75925
0
LINE
8
BLACK
6
CONTINUOUS
10
4.72697
20
-6.82674
11
4.71572
21
-6.83237
0
LINE
8
BLACK
6
CONTINUOUS
10
4.71572
20
-6.83237
11
4.6876
21
-6.83237
0
LINE
8
BLACK
6
CONTINUOUS
10
4.6876
20
-6.83237
11
4.67635
21
-6.82674
0
LINE
8
BLACK
6
CONTINUOUS
10
4.67635
20
-6.82674
11
4.67073
21
-6.81549
0
LINE
8
BLACK
6
CONTINUOUS
10
4.67073
20
-6.81549
11
4.67073
21
-6.80425
0
LINE
8
BLACK
6
CONTINUOUS
10
4.67073
20
-6.80425
11
4.67635
21
-6.793
0
LINE
8
BLACK
6
CONTINUOUS
10
4.67635
20
-6.793
11
4.6876
21
-6.78737
0
LINE
8
BLACK
6
CONTINUOUS
10
4.6876
20
-6.78737
11
4.71572
21
-6.78737
0
LINE
8
BLACK
6
CONTINUOUS
10
4.71572
20
-6.78737
11
4.72697
21
-6.78175
0
LINE
8
BLACK
6
CONTINUOUS
10
4.76634
20
-6.75363
11
4.81133
21
-6.75363
0
LINE
8
BLACK
6
CONTINUOUS
10
4.78321
20
-6.71426
11
4.78321
21
-6.81549
0
LINE
8
BLACK
6
CONTINUOUS
10
4.78321
20
-6.81549
11
4.78884
21
-6.82674
0
LINE
8
BLACK
6
CONTINUOUS
10
4.78884
20
-6.82674
11
4.80008
21
-6.83237
0
LINE
8
BLACK
6
CONTINUOUS
10
4.80008
20
-6.83237
11
4.81133
21
-6.83237
0
LINE
8
BLACK
6
CONTINUOUS
10
4.8957
20
-6.82674
11
4.88445
21
-6.83237
0
LINE
8
BLACK
6
CONTINUOUS
10
4.88445
20
-6.83237
11
4.86195
21
-6.83237
0
LINE
8
BLACK
6
CONTINUOUS
10
4.86195
20
-6.83237
11
4.8507
21
-6.82674
0
LINE
8
BLACK
6
CONTINUOUS
10
4.8507
20
-6.82674
11
4.84508
21
-6.81549
0
LINE
8
BLACK
6
CONTINUOUS
10
4.84508
20
-6.81549
11
4.84508
21
-6.7705
0
LINE
8
BLACK
6
CONTINUOUS
10
4.84508
20
-6.7705
11
4.8507
21
-6.75925
0
LINE
8
BLACK
6
CONTINUOUS
10
4.8507
20
-6.75925
11
4.86195
21
-6.75363
0
LINE
8
BLACK
6
CONTINUOUS
10
4.86195
20
-6.75363
11
4.88445
21
-6.75363
0
LINE
8
BLACK
6
CONTINUOUS
10
4.88445
20
-6.75363
11
4.8957
21
-6.75925
0
LINE
8
BLACK
6
CONTINUOUS
10
4.8957
20
-6.75925
11
4.90132
21
-6.7705
0
LINE
8
BLACK
6
CONTINUOUS
10
4.90132
20
-6.7705
11
4.90132
21
-6.78175
0
LINE
8
BLACK
6
CONTINUOUS
10
4.90132
20
-6.78175
11
4.84508
21
-6.793
0
LINE
8
BLACK
6
CONTINUOUS
10
5.00256
20
-6.83237
11
5.00256
21
-6.71426
0
LINE
8
BLACK
6
CONTINUOUS
10
5.00256
20
-6.82674
11
4.99131
21
-6.83237
0
LINE
8
BLACK
6
CONTINUOUS
10
4.99131
20
-6.83237
11
4.96881
21
-6.83237
0
LINE
8
BLACK
6
CONTINUOUS
10
4.96881
20
-6.83237
11
4.95756
21
-6.82674
0
LINE
8
BLACK
6
CONTINUOUS
10
4.95756
20
-6.82674
11
4.95194
21
-6.82112
0
LINE
8
BLACK
6
CONTINUOUS
10
4.95194
20
-6.82112
11
4.94632
21
-6.80987
0
LINE
8
BLACK
6
CONTINUOUS
10
4.94632
20
-6.80987
11
4.94632
21
-6.77612
0
LINE
8
BLACK
6
CONTINUOUS
10
4.94632
20
-6.77612
11
4.95194
21
-6.76488
0
LINE
8
BLACK
6
CONTINUOUS
10
4.95194
20
-6.76488
11
4.95756
21
-6.75925
0
LINE
8
BLACK
6
CONTINUOUS
10
4.95756
20
-6.75925
11
4.96881
21
-6.75363
0
LINE
8
BLACK
6
CONTINUOUS
10
4.96881
20
-6.75363
11
4.99131
21
-6.75363
0
LINE
8
BLACK
6
CONTINUOUS
10
4.99131
20
-6.75363
11
5.00256
21
-6.75925
0
LINE
8
BLACK
6
CONTINUOUS
10
5.04755
20
-6.87736
11
5.05318
21
-6.87174
0
LINE
8
BLACK
6
CONTINUOUS
10
5.05318
20
-6.87174
11
5.06443
21
-6.85487
0
LINE
8
BLACK
6
CONTINUOUS
10
5.06443
20
-6.85487
11
5.07005
21
-6.84362
0
LINE
8
BLACK
6
CONTINUOUS
10
5.07005
20
-6.84362
11
5.07567
21
-6.82674
0
LINE
8
BLACK
6
CONTINUOUS
10
5.07567
20
-6.82674
11
5.0813
21
-6.79862
0
LINE
8
BLACK
6
CONTINUOUS
10
5.0813
20
-6.79862
11
5.0813
21
-6.77612
0
LINE
8
BLACK
6
CONTINUOUS
10
5.0813
20
-6.77612
11
5.07567
21
-6.748
0
LINE
8
BLACK
6
CONTINUOUS
10
5.07567
20
-6.748
11
5.07005
21
-6.73113
0
LINE
8
BLACK
6
CONTINUOUS
10
5.07005
20
-6.73113
11
5.06443
21
-6.71988
0
LINE
8
BLACK
6
CONTINUOUS
10
5.06443
20
-6.71988
11
5.05318
21
-6.70301
0
LINE
8
BLACK
6
CONTINUOUS
10
5.05318
20
-6.70301
11
5.04755
21
-6.69738
  0
ENDSEC
  0
EOF
