M48
; DRILL file {KiCad (5.1.10-1-10_14)} date Tuesday, February 01, 2022 at 05:34:15 PM
; FORMAT={-:-/ absolute / inch / decimal}
; #@! TF.CreationDate,2022-02-01T17:34:15+11:00
; #@! TF.GenerationSoftware,Kicad,Pcbnew,(5.1.10-1-10_14)
; #@! TF.FileFunction,Plated,1,2,PTH
FMAT,2
INCH
T1C0.0236
T2C0.0276
T3C0.0315
T4C0.0394
T5C0.0433
T6C0.0472
T7C0.0512
T8C0.0591
T9C0.0630
T10C0.0787
T11C0.1575
T12C0.1693
%
G90
G05
T1
X1.248Y-6.15
X1.273Y-2.05
X1.2852Y-6.0602
X1.2852Y-6.2398
X1.3102Y-1.9602
X1.3102Y-2.1398
X1.375Y-6.023
X1.375Y-6.277
X1.4Y-1.923
X1.4Y-2.177
X1.4648Y-6.0602
X1.4648Y-6.2398
X1.4898Y-1.9602
X1.4898Y-2.1398
X1.502Y-6.15
X1.527Y-2.05
X8.993Y-2.04
X8.993Y-6.16
X9.0302Y-1.9502
X9.0302Y-2.1298
X9.0302Y-6.0702
X9.0302Y-6.2498
X9.12Y-1.913
X9.12Y-2.167
X9.12Y-6.033
X9.12Y-6.287
X9.2098Y-1.9502
X9.2098Y-2.1298
X9.2098Y-6.0702
X9.2098Y-6.2498
X9.247Y-2.04
X9.247Y-6.16
T2
X3.875Y-5.3
X3.925Y-5.35
X3.925Y-5.725
X3.975Y-5.3
X3.975Y-5.675
X3.975Y-5.775
X4.625Y-5.575
X4.725Y-5.475
X4.725Y-5.675
T3
X4.5281Y-6.0
X4.725Y-6.0
X4.95Y-4.8781
X4.95Y-5.075
X5.0748Y-3.7559
X5.0748Y-3.9528
T4
X5.1969Y-2.5984
X5.1969Y-3.3071
X5.1969Y-6.1417
X5.2969Y-2.5984
X5.2969Y-3.3071
X5.2969Y-6.1417
T5
X2.725Y-5.125
X3.125Y-5.125
T6
X2.175Y-5.5781
X2.175Y-5.775
X2.725Y-4.925
X2.725Y-5.35
X2.725Y-5.55
X2.725Y-5.75
X2.725Y-5.95
X3.325Y-4.925
X3.325Y-5.35
X3.325Y-5.55
X3.325Y-5.75
X3.325Y-5.95
X3.975Y-4.925
X4.575Y-4.925
X5.075Y-4.1
X5.075Y-4.7
X5.25Y-4.875
X5.25Y-5.475
X8.4Y-2.84
X8.4Y-4.04
X8.4Y-4.6
X8.4Y-5.8
T7
X1.8091Y-2.189
X3.2854Y-2.189
X6.874Y-3.1024
X6.874Y-3.5323
X6.874Y-4.9134
X6.874Y-5.3433
T8
X1.35Y-5.3
X1.5469Y-5.3
X3.878Y-2.0906
X3.878Y-2.2874
X8.9Y-2.8
X8.9Y-3.2
X8.9Y-3.6
X8.9Y-4.4
X8.9Y-4.8
X8.9Y-5.2
X9.0969Y-2.8
X9.0969Y-3.2
X9.0969Y-3.6
X9.0969Y-4.4
X9.0969Y-4.8
X9.0969Y-5.2
T9
X1.6Y-3.3
X1.6Y-3.9
X1.6Y-4.2
X1.6Y-4.8
X1.9Y-3.3
X1.9Y-3.9
X1.9Y-4.2
X1.9Y-4.8
X2.2Y-3.3
X2.2Y-3.9
X2.2Y-4.2
X2.2Y-4.8
X2.475Y-3.3
X2.475Y-3.9
X2.475Y-4.2
X2.475Y-4.8
T10
X3.25Y-2.9063
X3.25Y-3.3
X3.25Y-4.0063
X3.25Y-4.4
X4.35Y-2.9063
X4.35Y-3.3
X4.35Y-4.0063
X4.35Y-4.4
T11
X6.3504Y-3.3169
X6.3504Y-5.128
X7.5394Y-3.3169
X7.5394Y-5.128
T12
X1.375Y-6.15
X1.4Y-2.05
X9.12Y-2.04
X9.12Y-6.16
T0
M30
