M48
; DRILL file {KiCad (6.0.4-0)} date Monday, 01 April 2024 at 10:42:20 am
; FORMAT={-:-/ absolute / inch / decimal}
; #@! TF.CreationDate,2024-04-01T10:42:20+11:00
; #@! TF.GenerationSoftware,Kicad,Pcbnew,(6.0.4-0)
; #@! TF.FileFunction,Plated,1,2,PTH
FMAT,2
INCH
; #@! TA.AperFunction,Plated,PTH,ComponentDrill
T1C0.0236
; #@! TA.AperFunction,Plated,PTH,ComponentDrill
T2C0.0276
; #@! TA.AperFunction,Plated,PTH,ComponentDrill
T3C0.0315
; #@! TA.AperFunction,Plated,PTH,ComponentDrill
T4C0.0394
; #@! TA.AperFunction,Plated,PTH,ComponentDrill
T5C0.0433
; #@! TA.AperFunction,Plated,PTH,ComponentDrill
T6C0.0472
; #@! TA.AperFunction,Plated,PTH,ComponentDrill
T7C0.0512
; #@! TA.AperFunction,Plated,PTH,ComponentDrill
T8C0.0591
; #@! TA.AperFunction,Plated,PTH,ComponentDrill
T9C0.0630
; #@! TA.AperFunction,Plated,PTH,ComponentDrill
T10C0.0787
; #@! TA.AperFunction,Plated,PTH,ComponentDrill
T11C0.1575
; #@! TA.AperFunction,Plated,PTH,ComponentDrill
T12C0.1693
%
G90
G05
T1
X1.9896Y-1.4827
X1.9896Y-5.6559
X2.0268Y-1.3929
X2.0268Y-1.5725
X2.0268Y-5.5661
X2.0268Y-5.7457
X2.1165Y-1.3557
X2.1165Y-1.6096
X2.1165Y-5.5289
X2.1165Y-5.7829
X2.2063Y-1.3929
X2.2063Y-1.5725
X2.2063Y-5.5661
X2.2063Y-5.7457
X2.2435Y-1.4827
X2.2435Y-5.6559
X6.434Y-1.4928
X6.4712Y-1.403
X6.4712Y-1.5825
X6.5171Y-5.6559
X6.5543Y-5.5661
X6.5543Y-5.7457
X6.5609Y-1.3658
X6.5609Y-1.6197
X6.6441Y-5.5289
X6.6441Y-5.7829
X6.6507Y-1.403
X6.6507Y-1.5825
X6.6879Y-1.4928
X6.7339Y-5.5661
X6.7339Y-5.7457
X6.7711Y-5.6559
T2
X5.4756Y-5.2827
X5.4756Y-5.3827
X5.5256Y-5.3327
X5.8606Y-5.2843
X5.8606Y-5.3843
X5.9106Y-5.3343
X6.2094Y-4.6559
X6.3094Y-4.7559
X6.4094Y-4.6559
T3
X4.7356Y-4.7268
X4.7366Y-4.9118
X4.937Y-3.0827
X4.937Y-3.2795
X5.2356Y-4.7268
X5.2366Y-4.9118
X5.3596Y-4.5354
X5.3606Y-5.089
X5.3626Y-4.6992
X5.8596Y-4.5354
X5.8606Y-5.089
X5.8626Y-4.6992
X6.215Y-5.0929
X6.4118Y-5.0929
X6.7205Y-3.0866
X6.7205Y-3.2835
T4
X6.7346Y-1.863
X6.7346Y-1.963
X6.7346Y-2.7173
X6.7346Y-2.8173
X6.7465Y-5.237
X6.7465Y-5.337
T5
X5.3764Y-4.9118
X5.7764Y-4.9118
T6
X4.252Y-1.5197
X4.252Y-1.7165
X4.937Y-3.5031
X4.937Y-4.1031
X4.9787Y-5.1913
X4.9787Y-5.3882
X6.0591Y-1.5197
X6.0591Y-1.7165
X6.7244Y-3.5039
X6.7244Y-4.1039
T7
X2.9055Y-1.9016
X2.9055Y-3.378
X3.8169Y-3.1929
X4.2469Y-3.1929
X5.628Y-3.1929
X6.0579Y-3.1929
T8
X2.2244Y-1.9094
X2.2244Y-2.1063
X2.2244Y-3.1299
X2.2244Y-3.3268
X2.5299Y-1.4945
X2.7268Y-1.4945
X3.0969Y-1.4984
X3.2937Y-1.4984
X3.6638Y-1.5024
X3.8606Y-1.5024
X4.7244Y-1.5157
X4.9213Y-1.5157
X5.3622Y-1.5197
X5.5591Y-1.5197
T9
X2.2197Y-3.6559
X2.2197Y-4.2559
X2.5197Y-3.6559
X2.5197Y-4.2559
X2.8063Y-3.6559
X2.8063Y-4.2559
X3.1063Y-3.6559
X3.1063Y-4.2559
T10
X2.8504Y-4.7362
X2.8504Y-5.1299
X4.0315Y-4.7323
X4.0315Y-5.126
T11
X4.0315Y-2.5276
X4.0315Y-3.7165
X5.8425Y-2.5276
X5.8425Y-3.7165
T12
X2.1165Y-1.4827
X2.1165Y-5.6559
X6.5609Y-1.4928
X6.6441Y-5.6559
T0
M30
