G04 #@! TF.GenerationSoftware,KiCad,Pcbnew,(5.1.10-1-10_14)*
G04 #@! TF.CreationDate,2022-02-01T17:34:12+11:00*
G04 #@! TF.ProjectId,EDUC-8 PSU,45445543-2d38-4205-9053-552e6b696361,rev?*
G04 #@! TF.SameCoordinates,Original*
G04 #@! TF.FileFunction,Legend,Top*
G04 #@! TF.FilePolarity,Positive*
%FSLAX46Y46*%
G04 Gerber Fmt 4.6, Leading zero omitted, Abs format (unit mm)*
G04 Created by KiCad (PCBNEW (5.1.10-1-10_14)) date 2022-02-01 17:34:12*
%MOMM*%
%LPD*%
G01*
G04 APERTURE LIST*
%ADD10C,0.150000*%
%ADD11C,0.300000*%
%ADD12C,0.120000*%
%ADD13C,0.240000*%
G04 APERTURE END LIST*
D10*
X60119047Y-66104761D02*
X59738095Y-66104761D01*
X59547619Y-66200000D01*
X59452380Y-66295238D01*
X59261904Y-66580952D01*
X59166666Y-66961904D01*
X59166666Y-67723809D01*
X59261904Y-67914285D01*
X59357142Y-68009523D01*
X59547619Y-68104761D01*
X59928571Y-68104761D01*
X60119047Y-68009523D01*
X60214285Y-67914285D01*
X60309523Y-67723809D01*
X60309523Y-67247619D01*
X60214285Y-67057142D01*
X60119047Y-66961904D01*
X59928571Y-66866666D01*
X59547619Y-66866666D01*
X59357142Y-66961904D01*
X59261904Y-67057142D01*
X59166666Y-67247619D01*
X61071428Y-67533333D02*
X62023809Y-67533333D01*
X60880952Y-68104761D02*
X61547619Y-66104761D01*
X62214285Y-68104761D01*
X65071428Y-67057142D02*
X64404761Y-67057142D01*
X64404761Y-68104761D02*
X64404761Y-66104761D01*
X65357142Y-66104761D01*
X66976190Y-68104761D02*
X66976190Y-67057142D01*
X66880952Y-66866666D01*
X66690476Y-66771428D01*
X66309523Y-66771428D01*
X66119047Y-66866666D01*
X66976190Y-68009523D02*
X66785714Y-68104761D01*
X66309523Y-68104761D01*
X66119047Y-68009523D01*
X66023809Y-67819047D01*
X66023809Y-67628571D01*
X66119047Y-67438095D01*
X66309523Y-67342857D01*
X66785714Y-67342857D01*
X66976190Y-67247619D01*
X67833333Y-68009523D02*
X68023809Y-68104761D01*
X68404761Y-68104761D01*
X68595238Y-68009523D01*
X68690476Y-67819047D01*
X68690476Y-67723809D01*
X68595238Y-67533333D01*
X68404761Y-67438095D01*
X68119047Y-67438095D01*
X67928571Y-67342857D01*
X67833333Y-67152380D01*
X67833333Y-67057142D01*
X67928571Y-66866666D01*
X68119047Y-66771428D01*
X68404761Y-66771428D01*
X68595238Y-66866666D01*
X69261904Y-66771428D02*
X70023809Y-66771428D01*
X69547619Y-66104761D02*
X69547619Y-67819047D01*
X69642857Y-68009523D01*
X69833333Y-68104761D01*
X70023809Y-68104761D01*
X104333333Y-59461904D02*
X104333333Y-58509523D01*
X104904761Y-59652380D02*
X102904761Y-58985714D01*
X104904761Y-58319047D01*
X104714285Y-56509523D02*
X104809523Y-56604761D01*
X104904761Y-56890476D01*
X104904761Y-57080952D01*
X104809523Y-57366666D01*
X104619047Y-57557142D01*
X104428571Y-57652380D01*
X104047619Y-57747619D01*
X103761904Y-57747619D01*
X103380952Y-57652380D01*
X103190476Y-57557142D01*
X103000000Y-57366666D01*
X102904761Y-57080952D01*
X102904761Y-56890476D01*
X103000000Y-56604761D01*
X103095238Y-56509523D01*
X104904761Y-54128571D02*
X102904761Y-54128571D01*
X104904761Y-53176190D02*
X102904761Y-53176190D01*
X104904761Y-52033333D01*
X102904761Y-52033333D01*
X32938095Y-140333333D02*
X33890476Y-140333333D01*
X32747619Y-140904761D02*
X33414285Y-138904761D01*
X34080952Y-140904761D01*
X35890476Y-140714285D02*
X35795238Y-140809523D01*
X35509523Y-140904761D01*
X35319047Y-140904761D01*
X35033333Y-140809523D01*
X34842857Y-140619047D01*
X34747619Y-140428571D01*
X34652380Y-140047619D01*
X34652380Y-139761904D01*
X34747619Y-139380952D01*
X34842857Y-139190476D01*
X35033333Y-139000000D01*
X35319047Y-138904761D01*
X35509523Y-138904761D01*
X35795238Y-139000000D01*
X35890476Y-139095238D01*
X38271428Y-140904761D02*
X38271428Y-138904761D01*
X39223809Y-140904761D02*
X39223809Y-138904761D01*
X40366666Y-140904761D01*
X40366666Y-138904761D01*
X129052380Y-151057142D02*
X129004761Y-151104761D01*
X128861904Y-151152380D01*
X128766666Y-151152380D01*
X128623809Y-151104761D01*
X128528571Y-151009523D01*
X128480952Y-150914285D01*
X128433333Y-150723809D01*
X128433333Y-150580952D01*
X128480952Y-150390476D01*
X128528571Y-150295238D01*
X128623809Y-150200000D01*
X128766666Y-150152380D01*
X128861904Y-150152380D01*
X129004761Y-150200000D01*
X129052380Y-150247619D01*
X129480952Y-151152380D02*
X129480952Y-150485714D01*
X129480952Y-150676190D02*
X129528571Y-150580952D01*
X129576190Y-150533333D01*
X129671428Y-150485714D01*
X129766666Y-150485714D01*
X130242857Y-151152380D02*
X130147619Y-151104761D01*
X130100000Y-151057142D01*
X130052380Y-150961904D01*
X130052380Y-150676190D01*
X130100000Y-150580952D01*
X130147619Y-150533333D01*
X130242857Y-150485714D01*
X130385714Y-150485714D01*
X130480952Y-150533333D01*
X130528571Y-150580952D01*
X130576190Y-150676190D01*
X130576190Y-150961904D01*
X130528571Y-151057142D01*
X130480952Y-151104761D01*
X130385714Y-151152380D01*
X130242857Y-151152380D01*
X130909523Y-150485714D02*
X131100000Y-151152380D01*
X131290476Y-150676190D01*
X131480952Y-151152380D01*
X131671428Y-150485714D01*
X132052380Y-151152380D02*
X132052380Y-150152380D01*
X132052380Y-150533333D02*
X132147619Y-150485714D01*
X132338095Y-150485714D01*
X132433333Y-150533333D01*
X132480952Y-150580952D01*
X132528571Y-150676190D01*
X132528571Y-150961904D01*
X132480952Y-151057142D01*
X132433333Y-151104761D01*
X132338095Y-151152380D01*
X132147619Y-151152380D01*
X132052380Y-151104761D01*
X133385714Y-151152380D02*
X133385714Y-150628571D01*
X133338095Y-150533333D01*
X133242857Y-150485714D01*
X133052380Y-150485714D01*
X132957142Y-150533333D01*
X133385714Y-151104761D02*
X133290476Y-151152380D01*
X133052380Y-151152380D01*
X132957142Y-151104761D01*
X132909523Y-151009523D01*
X132909523Y-150914285D01*
X132957142Y-150819047D01*
X133052380Y-150771428D01*
X133290476Y-150771428D01*
X133385714Y-150723809D01*
X133861904Y-151152380D02*
X133861904Y-150485714D01*
X133861904Y-150676190D02*
X133909523Y-150580952D01*
X133957142Y-150533333D01*
X134052380Y-150485714D01*
X134147619Y-150485714D01*
X135242857Y-150771428D02*
X136004761Y-150771428D01*
X135623809Y-151152380D02*
X135623809Y-150390476D01*
X136957142Y-150152380D02*
X136480952Y-150152380D01*
X136433333Y-150628571D01*
X136480952Y-150580952D01*
X136576190Y-150533333D01*
X136814285Y-150533333D01*
X136909523Y-150580952D01*
X136957142Y-150628571D01*
X137004761Y-150723809D01*
X137004761Y-150961904D01*
X136957142Y-151057142D01*
X136909523Y-151104761D01*
X136814285Y-151152380D01*
X136576190Y-151152380D01*
X136480952Y-151104761D01*
X136433333Y-151057142D01*
X137338095Y-150485714D02*
X137576190Y-151152380D01*
X137814285Y-150485714D01*
X129678571Y-78907142D02*
X129630952Y-78954761D01*
X129488095Y-79002380D01*
X129392857Y-79002380D01*
X129250000Y-78954761D01*
X129154761Y-78859523D01*
X129107142Y-78764285D01*
X129059523Y-78573809D01*
X129059523Y-78430952D01*
X129107142Y-78240476D01*
X129154761Y-78145238D01*
X129250000Y-78050000D01*
X129392857Y-78002380D01*
X129488095Y-78002380D01*
X129630952Y-78050000D01*
X129678571Y-78097619D01*
X130107142Y-79002380D02*
X130107142Y-78335714D01*
X130107142Y-78526190D02*
X130154761Y-78430952D01*
X130202380Y-78383333D01*
X130297619Y-78335714D01*
X130392857Y-78335714D01*
X130869047Y-79002380D02*
X130773809Y-78954761D01*
X130726190Y-78907142D01*
X130678571Y-78811904D01*
X130678571Y-78526190D01*
X130726190Y-78430952D01*
X130773809Y-78383333D01*
X130869047Y-78335714D01*
X131011904Y-78335714D01*
X131107142Y-78383333D01*
X131154761Y-78430952D01*
X131202380Y-78526190D01*
X131202380Y-78811904D01*
X131154761Y-78907142D01*
X131107142Y-78954761D01*
X131011904Y-79002380D01*
X130869047Y-79002380D01*
X131535714Y-78335714D02*
X131726190Y-79002380D01*
X131916666Y-78526190D01*
X132107142Y-79002380D01*
X132297619Y-78335714D01*
X132678571Y-79002380D02*
X132678571Y-78002380D01*
X132678571Y-78383333D02*
X132773809Y-78335714D01*
X132964285Y-78335714D01*
X133059523Y-78383333D01*
X133107142Y-78430952D01*
X133154761Y-78526190D01*
X133154761Y-78811904D01*
X133107142Y-78907142D01*
X133059523Y-78954761D01*
X132964285Y-79002380D01*
X132773809Y-79002380D01*
X132678571Y-78954761D01*
X134011904Y-79002380D02*
X134011904Y-78478571D01*
X133964285Y-78383333D01*
X133869047Y-78335714D01*
X133678571Y-78335714D01*
X133583333Y-78383333D01*
X134011904Y-78954761D02*
X133916666Y-79002380D01*
X133678571Y-79002380D01*
X133583333Y-78954761D01*
X133535714Y-78859523D01*
X133535714Y-78764285D01*
X133583333Y-78669047D01*
X133678571Y-78621428D01*
X133916666Y-78621428D01*
X134011904Y-78573809D01*
X134488095Y-79002380D02*
X134488095Y-78335714D01*
X134488095Y-78526190D02*
X134535714Y-78430952D01*
X134583333Y-78383333D01*
X134678571Y-78335714D01*
X134773809Y-78335714D01*
X135869047Y-79002380D02*
X135869047Y-78002380D01*
X136107142Y-78002380D01*
X136250000Y-78050000D01*
X136345238Y-78145238D01*
X136392857Y-78240476D01*
X136440476Y-78430952D01*
X136440476Y-78573809D01*
X136392857Y-78764285D01*
X136345238Y-78859523D01*
X136250000Y-78954761D01*
X136107142Y-79002380D01*
X135869047Y-79002380D01*
X137440476Y-78907142D02*
X137392857Y-78954761D01*
X137250000Y-79002380D01*
X137154761Y-79002380D01*
X137011904Y-78954761D01*
X136916666Y-78859523D01*
X136869047Y-78764285D01*
X136821428Y-78573809D01*
X136821428Y-78430952D01*
X136869047Y-78240476D01*
X136916666Y-78145238D01*
X137011904Y-78050000D01*
X137154761Y-78002380D01*
X137250000Y-78002380D01*
X137392857Y-78050000D01*
X137440476Y-78097619D01*
X129154761Y-60457142D02*
X129107142Y-60504761D01*
X128964285Y-60552380D01*
X128869047Y-60552380D01*
X128726190Y-60504761D01*
X128630952Y-60409523D01*
X128583333Y-60314285D01*
X128535714Y-60123809D01*
X128535714Y-59980952D01*
X128583333Y-59790476D01*
X128630952Y-59695238D01*
X128726190Y-59600000D01*
X128869047Y-59552380D01*
X128964285Y-59552380D01*
X129107142Y-59600000D01*
X129154761Y-59647619D01*
X129583333Y-60552380D02*
X129583333Y-59885714D01*
X129583333Y-60076190D02*
X129630952Y-59980952D01*
X129678571Y-59933333D01*
X129773809Y-59885714D01*
X129869047Y-59885714D01*
X130345238Y-60552380D02*
X130250000Y-60504761D01*
X130202380Y-60457142D01*
X130154761Y-60361904D01*
X130154761Y-60076190D01*
X130202380Y-59980952D01*
X130250000Y-59933333D01*
X130345238Y-59885714D01*
X130488095Y-59885714D01*
X130583333Y-59933333D01*
X130630952Y-59980952D01*
X130678571Y-60076190D01*
X130678571Y-60361904D01*
X130630952Y-60457142D01*
X130583333Y-60504761D01*
X130488095Y-60552380D01*
X130345238Y-60552380D01*
X131011904Y-59885714D02*
X131202380Y-60552380D01*
X131392857Y-60076190D01*
X131583333Y-60552380D01*
X131773809Y-59885714D01*
X132154761Y-60552380D02*
X132154761Y-59552380D01*
X132154761Y-59933333D02*
X132250000Y-59885714D01*
X132440476Y-59885714D01*
X132535714Y-59933333D01*
X132583333Y-59980952D01*
X132630952Y-60076190D01*
X132630952Y-60361904D01*
X132583333Y-60457142D01*
X132535714Y-60504761D01*
X132440476Y-60552380D01*
X132250000Y-60552380D01*
X132154761Y-60504761D01*
X133488095Y-60552380D02*
X133488095Y-60028571D01*
X133440476Y-59933333D01*
X133345238Y-59885714D01*
X133154761Y-59885714D01*
X133059523Y-59933333D01*
X133488095Y-60504761D02*
X133392857Y-60552380D01*
X133154761Y-60552380D01*
X133059523Y-60504761D01*
X133011904Y-60409523D01*
X133011904Y-60314285D01*
X133059523Y-60219047D01*
X133154761Y-60171428D01*
X133392857Y-60171428D01*
X133488095Y-60123809D01*
X133964285Y-60552380D02*
X133964285Y-59885714D01*
X133964285Y-60076190D02*
X134011904Y-59980952D01*
X134059523Y-59933333D01*
X134154761Y-59885714D01*
X134250000Y-59885714D01*
X135869047Y-59600000D02*
X135773809Y-59552380D01*
X135630952Y-59552380D01*
X135488095Y-59600000D01*
X135392857Y-59695238D01*
X135345238Y-59790476D01*
X135297619Y-59980952D01*
X135297619Y-60123809D01*
X135345238Y-60314285D01*
X135392857Y-60409523D01*
X135488095Y-60504761D01*
X135630952Y-60552380D01*
X135726190Y-60552380D01*
X135869047Y-60504761D01*
X135916666Y-60457142D01*
X135916666Y-60123809D01*
X135726190Y-60123809D01*
X136345238Y-60552380D02*
X136345238Y-59552380D01*
X136916666Y-60552380D01*
X136916666Y-59552380D01*
X137392857Y-60552380D02*
X137392857Y-59552380D01*
X137630952Y-59552380D01*
X137773809Y-59600000D01*
X137869047Y-59695238D01*
X137916666Y-59790476D01*
X137964285Y-59980952D01*
X137964285Y-60123809D01*
X137916666Y-60314285D01*
X137869047Y-60409523D01*
X137773809Y-60504761D01*
X137630952Y-60552380D01*
X137392857Y-60552380D01*
D11*
X147073660Y-53137142D02*
X148766994Y-53137142D01*
X149160089Y-55798095D02*
X146741041Y-55798095D01*
X147376041Y-50718095D01*
X149795089Y-50718095D01*
X152425803Y-52895238D02*
X151972232Y-52653333D01*
X151760565Y-52411428D01*
X151579136Y-51927619D01*
X151609375Y-51685714D01*
X151911755Y-51201904D01*
X152183898Y-50960000D01*
X152697946Y-50718095D01*
X153665565Y-50718095D01*
X154119136Y-50960000D01*
X154330803Y-51201904D01*
X154512232Y-51685714D01*
X154481994Y-51927619D01*
X154179613Y-52411428D01*
X153907470Y-52653333D01*
X153393422Y-52895238D01*
X152425803Y-52895238D01*
X151911755Y-53137142D01*
X151639613Y-53379047D01*
X151337232Y-53862857D01*
X151216279Y-54830476D01*
X151397708Y-55314285D01*
X151609375Y-55556190D01*
X152062946Y-55798095D01*
X153030565Y-55798095D01*
X153544613Y-55556190D01*
X153816755Y-55314285D01*
X154119136Y-54830476D01*
X154240089Y-53862857D01*
X154058660Y-53379047D01*
X153846994Y-53137142D01*
X153393422Y-52895238D01*
X160469136Y-50476190D02*
X155298422Y-57007619D01*
X161497232Y-55798095D02*
X162132232Y-50718095D01*
X164067470Y-50718095D01*
X164521041Y-50960000D01*
X164732708Y-51201904D01*
X164914136Y-51685714D01*
X164823422Y-52411428D01*
X164521041Y-52895238D01*
X164248898Y-53137142D01*
X163734851Y-53379047D01*
X161799613Y-53379047D01*
X166365565Y-55556190D02*
X167061041Y-55798095D01*
X168270565Y-55798095D01*
X168784613Y-55556190D01*
X169056755Y-55314285D01*
X169359136Y-54830476D01*
X169419613Y-54346666D01*
X169238184Y-53862857D01*
X169026517Y-53620952D01*
X168572946Y-53379047D01*
X167635565Y-53137142D01*
X167181994Y-52895238D01*
X166970327Y-52653333D01*
X166788898Y-52169523D01*
X166849375Y-51685714D01*
X167151755Y-51201904D01*
X167423898Y-50960000D01*
X167937946Y-50718095D01*
X169147470Y-50718095D01*
X169842946Y-50960000D01*
X172050327Y-50718095D02*
X171536279Y-54830476D01*
X171717708Y-55314285D01*
X171929375Y-55556190D01*
X172382946Y-55798095D01*
X173350565Y-55798095D01*
X173864613Y-55556190D01*
X174136755Y-55314285D01*
X174439136Y-54830476D01*
X174953184Y-50718095D01*
D10*
X227076190Y-85360000D02*
X226885714Y-85264761D01*
X226600000Y-85264761D01*
X226314285Y-85360000D01*
X226123809Y-85550476D01*
X226028571Y-85740952D01*
X225933333Y-86121904D01*
X225933333Y-86407619D01*
X226028571Y-86788571D01*
X226123809Y-86979047D01*
X226314285Y-87169523D01*
X226600000Y-87264761D01*
X226790476Y-87264761D01*
X227076190Y-87169523D01*
X227171428Y-87074285D01*
X227171428Y-86407619D01*
X226790476Y-86407619D01*
X228028571Y-87264761D02*
X228028571Y-85264761D01*
X229171428Y-87264761D01*
X229171428Y-85264761D01*
X230123809Y-87264761D02*
X230123809Y-85264761D01*
X230600000Y-85264761D01*
X230885714Y-85360000D01*
X231076190Y-85550476D01*
X231171428Y-85740952D01*
X231266666Y-86121904D01*
X231266666Y-86407619D01*
X231171428Y-86788571D01*
X231076190Y-86979047D01*
X230885714Y-87169523D01*
X230600000Y-87264761D01*
X230123809Y-87264761D01*
X227076190Y-65040000D02*
X226885714Y-64944761D01*
X226600000Y-64944761D01*
X226314285Y-65040000D01*
X226123809Y-65230476D01*
X226028571Y-65420952D01*
X225933333Y-65801904D01*
X225933333Y-66087619D01*
X226028571Y-66468571D01*
X226123809Y-66659047D01*
X226314285Y-66849523D01*
X226600000Y-66944761D01*
X226790476Y-66944761D01*
X227076190Y-66849523D01*
X227171428Y-66754285D01*
X227171428Y-66087619D01*
X226790476Y-66087619D01*
X228028571Y-66944761D02*
X228028571Y-64944761D01*
X229171428Y-66944761D01*
X229171428Y-64944761D01*
X230123809Y-66944761D02*
X230123809Y-64944761D01*
X230600000Y-64944761D01*
X230885714Y-65040000D01*
X231076190Y-65230476D01*
X231171428Y-65420952D01*
X231266666Y-65801904D01*
X231266666Y-66087619D01*
X231171428Y-66468571D01*
X231076190Y-66659047D01*
X230885714Y-66849523D01*
X230600000Y-66944761D01*
X230123809Y-66944761D01*
X227076190Y-75200000D02*
X226885714Y-75104761D01*
X226600000Y-75104761D01*
X226314285Y-75200000D01*
X226123809Y-75390476D01*
X226028571Y-75580952D01*
X225933333Y-75961904D01*
X225933333Y-76247619D01*
X226028571Y-76628571D01*
X226123809Y-76819047D01*
X226314285Y-77009523D01*
X226600000Y-77104761D01*
X226790476Y-77104761D01*
X227076190Y-77009523D01*
X227171428Y-76914285D01*
X227171428Y-76247619D01*
X226790476Y-76247619D01*
X228028571Y-77104761D02*
X228028571Y-75104761D01*
X229171428Y-77104761D01*
X229171428Y-75104761D01*
X230123809Y-77104761D02*
X230123809Y-75104761D01*
X230600000Y-75104761D01*
X230885714Y-75200000D01*
X231076190Y-75390476D01*
X231171428Y-75580952D01*
X231266666Y-75961904D01*
X231266666Y-76247619D01*
X231171428Y-76628571D01*
X231076190Y-76819047D01*
X230885714Y-77009523D01*
X230600000Y-77104761D01*
X230123809Y-77104761D01*
X226028571Y-127142857D02*
X227552380Y-127142857D01*
X226790476Y-127904761D02*
X226790476Y-126380952D01*
X229457142Y-125904761D02*
X228504761Y-125904761D01*
X228409523Y-126857142D01*
X228504761Y-126761904D01*
X228695238Y-126666666D01*
X229171428Y-126666666D01*
X229361904Y-126761904D01*
X229457142Y-126857142D01*
X229552380Y-127047619D01*
X229552380Y-127523809D01*
X229457142Y-127714285D01*
X229361904Y-127809523D01*
X229171428Y-127904761D01*
X228695238Y-127904761D01*
X228504761Y-127809523D01*
X228409523Y-127714285D01*
X230123809Y-125904761D02*
X230790476Y-127904761D01*
X231457142Y-125904761D01*
X226028571Y-137302857D02*
X227552380Y-137302857D01*
X226790476Y-138064761D02*
X226790476Y-136540952D01*
X229457142Y-136064761D02*
X228504761Y-136064761D01*
X228409523Y-137017142D01*
X228504761Y-136921904D01*
X228695238Y-136826666D01*
X229171428Y-136826666D01*
X229361904Y-136921904D01*
X229457142Y-137017142D01*
X229552380Y-137207619D01*
X229552380Y-137683809D01*
X229457142Y-137874285D01*
X229361904Y-137969523D01*
X229171428Y-138064761D01*
X228695238Y-138064761D01*
X228504761Y-137969523D01*
X228409523Y-137874285D01*
X230123809Y-136064761D02*
X230790476Y-138064761D01*
X231457142Y-136064761D01*
X226028571Y-116982857D02*
X227552380Y-116982857D01*
X226790476Y-117744761D02*
X226790476Y-116220952D01*
X229457142Y-115744761D02*
X228504761Y-115744761D01*
X228409523Y-116697142D01*
X228504761Y-116601904D01*
X228695238Y-116506666D01*
X229171428Y-116506666D01*
X229361904Y-116601904D01*
X229457142Y-116697142D01*
X229552380Y-116887619D01*
X229552380Y-117363809D01*
X229457142Y-117554285D01*
X229361904Y-117649523D01*
X229171428Y-117744761D01*
X228695238Y-117744761D01*
X228504761Y-117649523D01*
X228409523Y-117554285D01*
X230123809Y-115744761D02*
X230790476Y-117744761D01*
X231457142Y-115744761D01*
D12*
X135870000Y-67330000D02*
X133270000Y-67330000D01*
X135870000Y-67330000D02*
X135870000Y-64670000D01*
X135870000Y-64670000D02*
X130670000Y-64670000D01*
X130670000Y-64730000D02*
X130670000Y-64670000D01*
X133270000Y-64730000D02*
X130670000Y-64730000D01*
X133270000Y-67330000D02*
X133270000Y-64730000D01*
X130670000Y-67330000D02*
X130670000Y-66000000D01*
X132000000Y-67330000D02*
X130670000Y-67330000D01*
X135870000Y-157330000D02*
X133270000Y-157330000D01*
X135870000Y-157330000D02*
X135870000Y-154670000D01*
X135870000Y-154670000D02*
X130670000Y-154670000D01*
X130670000Y-154730000D02*
X130670000Y-154670000D01*
X133270000Y-154730000D02*
X130670000Y-154730000D01*
X133270000Y-157330000D02*
X133270000Y-154730000D01*
X130670000Y-157330000D02*
X130670000Y-156000000D01*
X132000000Y-157330000D02*
X130670000Y-157330000D01*
X135870000Y-85330000D02*
X133270000Y-85330000D01*
X135870000Y-85330000D02*
X135870000Y-82670000D01*
X135870000Y-82670000D02*
X130670000Y-82670000D01*
X130670000Y-82730000D02*
X130670000Y-82670000D01*
X133270000Y-82730000D02*
X130670000Y-82730000D01*
X133270000Y-85330000D02*
X133270000Y-82730000D01*
X130670000Y-85330000D02*
X130670000Y-84000000D01*
X132000000Y-85330000D02*
X130670000Y-85330000D01*
X44070000Y-57600000D02*
X44070000Y-63230000D01*
X44070000Y-47970000D02*
X44070000Y-53600000D01*
X85330000Y-57600000D02*
X85330000Y-63230000D01*
X85330000Y-47970000D02*
X85330000Y-53600000D01*
X85330000Y-63230000D02*
X44070000Y-63230000D01*
X44070000Y-47970000D02*
X85330000Y-47970000D01*
X43360000Y-110855000D02*
X37920000Y-110855000D01*
X43360000Y-111095000D02*
X37920000Y-111095000D01*
X43360000Y-110975000D02*
X37920000Y-110975000D01*
X40640000Y-120080000D02*
X40640000Y-119170000D01*
X40640000Y-108520000D02*
X40640000Y-109430000D01*
X43360000Y-119170000D02*
X43360000Y-109430000D01*
X37920000Y-119170000D02*
X43360000Y-119170000D01*
X37920000Y-109430000D02*
X37920000Y-119170000D01*
X43360000Y-109430000D02*
X37920000Y-109430000D01*
X65585000Y-110855000D02*
X60145000Y-110855000D01*
X65585000Y-111095000D02*
X60145000Y-111095000D01*
X65585000Y-110975000D02*
X60145000Y-110975000D01*
X62865000Y-120080000D02*
X62865000Y-119170000D01*
X62865000Y-108520000D02*
X62865000Y-109430000D01*
X65585000Y-119170000D02*
X65585000Y-109430000D01*
X60145000Y-119170000D02*
X65585000Y-119170000D01*
X60145000Y-109430000D02*
X60145000Y-119170000D01*
X65585000Y-109430000D02*
X60145000Y-109430000D01*
X43360000Y-87995000D02*
X37920000Y-87995000D01*
X43360000Y-88235000D02*
X37920000Y-88235000D01*
X43360000Y-88115000D02*
X37920000Y-88115000D01*
X40640000Y-97220000D02*
X40640000Y-96310000D01*
X40640000Y-85660000D02*
X40640000Y-86570000D01*
X43360000Y-96310000D02*
X43360000Y-86570000D01*
X37920000Y-96310000D02*
X43360000Y-96310000D01*
X37920000Y-86570000D02*
X37920000Y-96310000D01*
X43360000Y-86570000D02*
X37920000Y-86570000D01*
X65585000Y-87995000D02*
X60145000Y-87995000D01*
X65585000Y-88235000D02*
X60145000Y-88235000D01*
X65585000Y-88115000D02*
X60145000Y-88115000D01*
X62865000Y-97220000D02*
X62865000Y-96310000D01*
X62865000Y-85660000D02*
X62865000Y-86570000D01*
X65585000Y-96310000D02*
X65585000Y-86570000D01*
X60145000Y-96310000D02*
X65585000Y-96310000D01*
X60145000Y-86570000D02*
X60145000Y-96310000D01*
X65585000Y-86570000D02*
X60145000Y-86570000D01*
X76235000Y-131645000D02*
X76235000Y-128705000D01*
X75995000Y-131645000D02*
X75995000Y-128705000D01*
X76115000Y-131645000D02*
X76115000Y-128705000D01*
X70555000Y-130175000D02*
X71575000Y-130175000D01*
X78035000Y-130175000D02*
X77015000Y-130175000D01*
X71575000Y-131645000D02*
X77015000Y-131645000D01*
X71575000Y-128705000D02*
X71575000Y-131645000D01*
X77015000Y-128705000D02*
X71575000Y-128705000D01*
X77015000Y-131645000D02*
X77015000Y-128705000D01*
D13*
X142700000Y-53700000D02*
G75*
G03*
X142700000Y-53700000I-3000000J0D01*
G01*
D11*
X138700000Y-51700000D02*
X138000000Y-54600000D01*
D12*
X138660000Y-51630000D02*
X140270000Y-51630000D01*
X135610000Y-53170000D02*
X139810000Y-53170000D01*
X137950000Y-54650000D02*
X143650000Y-54650000D01*
D11*
X140700000Y-53200000D02*
X139900000Y-55600000D01*
D12*
X140740000Y-53190000D02*
X141700000Y-55660000D01*
X146400000Y-111800000D02*
X146400000Y-114300000D01*
X149400000Y-111800000D02*
X146400000Y-111800000D01*
X149400000Y-114300000D02*
X149400000Y-111800000D01*
X152400000Y-111800000D02*
X152400000Y-114300000D01*
X155400000Y-111800000D02*
X152400000Y-111800000D01*
X155400000Y-114300000D02*
X155400000Y-111800000D01*
X158400000Y-111800000D02*
X158400000Y-114300000D01*
X161400000Y-111800000D02*
X158400000Y-111800000D01*
X161400000Y-114300000D02*
X161400000Y-111800000D01*
X164400000Y-111800000D02*
X164400000Y-114300000D01*
X167400000Y-111800000D02*
X164400000Y-111800000D01*
X167400000Y-114300000D02*
X167400000Y-111800000D01*
X170400000Y-111800000D02*
X170400000Y-114300000D01*
X173400000Y-111800000D02*
X170400000Y-111800000D01*
X173400000Y-114300000D02*
X173400000Y-111800000D01*
X176400000Y-111800000D02*
X176400000Y-114300000D01*
X179400000Y-111800000D02*
X176400000Y-111800000D01*
X179400000Y-114300000D02*
X179400000Y-111800000D01*
X182400000Y-111800000D02*
X182400000Y-114300000D01*
X185400000Y-111800000D02*
X182400000Y-111800000D01*
X185400000Y-114300000D02*
X185400000Y-111800000D01*
X188400000Y-111800000D02*
X188400000Y-114300000D01*
X191400000Y-111800000D02*
X188400000Y-111800000D01*
X191400000Y-114300000D02*
X191400000Y-111800000D01*
X194400000Y-111800000D02*
X194400000Y-114300000D01*
X197400000Y-111800000D02*
X194400000Y-111800000D01*
X197400000Y-114300000D02*
X197400000Y-111800000D01*
X200400000Y-114300000D02*
X197400000Y-114300000D01*
X200400000Y-111800000D02*
X200400000Y-114300000D01*
X203400000Y-111800000D02*
X200400000Y-111800000D01*
X203400000Y-114300000D02*
X203400000Y-111800000D01*
X155400000Y-148800000D02*
X152400000Y-148800000D01*
X146400000Y-148800000D02*
X149400000Y-148800000D01*
X146400000Y-146300000D02*
X146400000Y-148800000D01*
X161400000Y-148800000D02*
X158400000Y-148800000D01*
X167400000Y-148800000D02*
X164400000Y-148800000D01*
X173400000Y-148800000D02*
X170400000Y-148800000D01*
X179400000Y-148800000D02*
X176400000Y-148800000D01*
X185400000Y-148800000D02*
X182400000Y-148800000D01*
X191400000Y-148800000D02*
X188400000Y-148800000D01*
X197400000Y-148800000D02*
X194400000Y-148800000D01*
X203400000Y-148800000D02*
X200400000Y-148800000D01*
X149400000Y-148800000D02*
X149400000Y-146300000D01*
X152400000Y-148800000D02*
X152400000Y-146300000D01*
X155400000Y-148800000D02*
X155400000Y-146300000D01*
X158400000Y-148800000D02*
X158400000Y-146300000D01*
X161400000Y-148800000D02*
X161400000Y-146300000D01*
X164400000Y-148800000D02*
X164400000Y-146300000D01*
X167400000Y-148800000D02*
X167400000Y-146300000D01*
X170400000Y-148800000D02*
X170400000Y-146300000D01*
X173400000Y-148800000D02*
X173400000Y-146300000D01*
X176400000Y-148800000D02*
X176400000Y-146300000D01*
X179400000Y-148800000D02*
X179400000Y-146300000D01*
X182400000Y-148800000D02*
X182400000Y-146300000D01*
X185400000Y-148800000D02*
X185400000Y-146300000D01*
X188400000Y-148800000D02*
X188400000Y-146300000D01*
X191400000Y-148800000D02*
X191400000Y-146300000D01*
X194400000Y-148800000D02*
X194400000Y-146300000D01*
X197400000Y-148800000D02*
X197400000Y-146300000D01*
X200400000Y-148800000D02*
X200400000Y-146300000D01*
X203400000Y-146300000D02*
X203400000Y-148800000D01*
X206400000Y-114300000D02*
X206400000Y-130300000D01*
X145400000Y-114300000D02*
X206400000Y-114300000D01*
X145400000Y-146300000D02*
X145400000Y-114300000D01*
X206400000Y-146300000D02*
X145400000Y-146300000D01*
X206400000Y-130300000D02*
X206400000Y-146300000D01*
X165400000Y-128300000D02*
X161400000Y-128300000D01*
X165400000Y-132300000D02*
X161400000Y-132300000D01*
X172900000Y-137800000D02*
X172900000Y-122800000D01*
X176900000Y-137800000D02*
X176900000Y-122800000D01*
X191400000Y-128300000D02*
X189900000Y-128300000D01*
X191400000Y-132300000D02*
X189900000Y-132300000D01*
X203900000Y-130300000D02*
G75*
G03*
X203900000Y-130300000I-2000000J0D01*
G01*
X161400000Y-132300000D02*
G75*
G02*
X161400000Y-128300000I0J2000000D01*
G01*
X165400000Y-128300000D02*
G75*
G02*
X165400000Y-132300000I0J-2000000D01*
G01*
X176900000Y-137800000D02*
G75*
G02*
X172900000Y-137800000I-2000000J0D01*
G01*
X172900000Y-122800000D02*
G75*
G02*
X176900000Y-122800000I2000000J0D01*
G01*
X189900000Y-132300000D02*
G75*
G02*
X189900000Y-128300000I0J2000000D01*
G01*
X191400000Y-128300000D02*
G75*
G02*
X191400000Y-132300000I0J-2000000D01*
G01*
X146500000Y-65800000D02*
X146500000Y-68300000D01*
X149500000Y-65800000D02*
X146500000Y-65800000D01*
X149500000Y-68300000D02*
X149500000Y-65800000D01*
X152500000Y-65800000D02*
X152500000Y-68300000D01*
X155500000Y-65800000D02*
X152500000Y-65800000D01*
X155500000Y-68300000D02*
X155500000Y-65800000D01*
X158500000Y-65800000D02*
X158500000Y-68300000D01*
X161500000Y-65800000D02*
X158500000Y-65800000D01*
X161500000Y-68300000D02*
X161500000Y-65800000D01*
X164500000Y-65800000D02*
X164500000Y-68300000D01*
X167500000Y-65800000D02*
X164500000Y-65800000D01*
X167500000Y-68300000D02*
X167500000Y-65800000D01*
X170500000Y-65800000D02*
X170500000Y-68300000D01*
X173500000Y-65800000D02*
X170500000Y-65800000D01*
X173500000Y-68300000D02*
X173500000Y-65800000D01*
X176500000Y-65800000D02*
X176500000Y-68300000D01*
X179500000Y-65800000D02*
X176500000Y-65800000D01*
X179500000Y-68300000D02*
X179500000Y-65800000D01*
X182500000Y-65800000D02*
X182500000Y-68300000D01*
X185500000Y-65800000D02*
X182500000Y-65800000D01*
X185500000Y-68300000D02*
X185500000Y-65800000D01*
X188500000Y-65800000D02*
X188500000Y-68300000D01*
X191500000Y-65800000D02*
X188500000Y-65800000D01*
X191500000Y-68300000D02*
X191500000Y-65800000D01*
X194500000Y-65800000D02*
X194500000Y-68300000D01*
X197500000Y-65800000D02*
X194500000Y-65800000D01*
X197500000Y-68300000D02*
X197500000Y-65800000D01*
X200500000Y-68300000D02*
X197500000Y-68300000D01*
X200500000Y-65800000D02*
X200500000Y-68300000D01*
X203500000Y-65800000D02*
X200500000Y-65800000D01*
X203500000Y-68300000D02*
X203500000Y-65800000D01*
X155500000Y-102800000D02*
X152500000Y-102800000D01*
X146500000Y-102800000D02*
X149500000Y-102800000D01*
X146500000Y-100300000D02*
X146500000Y-102800000D01*
X161500000Y-102800000D02*
X158500000Y-102800000D01*
X167500000Y-102800000D02*
X164500000Y-102800000D01*
X173500000Y-102800000D02*
X170500000Y-102800000D01*
X179500000Y-102800000D02*
X176500000Y-102800000D01*
X185500000Y-102800000D02*
X182500000Y-102800000D01*
X191500000Y-102800000D02*
X188500000Y-102800000D01*
X197500000Y-102800000D02*
X194500000Y-102800000D01*
X203500000Y-102800000D02*
X200500000Y-102800000D01*
X149500000Y-102800000D02*
X149500000Y-100300000D01*
X152500000Y-102800000D02*
X152500000Y-100300000D01*
X155500000Y-102800000D02*
X155500000Y-100300000D01*
X158500000Y-102800000D02*
X158500000Y-100300000D01*
X161500000Y-102800000D02*
X161500000Y-100300000D01*
X164500000Y-102800000D02*
X164500000Y-100300000D01*
X167500000Y-102800000D02*
X167500000Y-100300000D01*
X170500000Y-102800000D02*
X170500000Y-100300000D01*
X173500000Y-102800000D02*
X173500000Y-100300000D01*
X176500000Y-102800000D02*
X176500000Y-100300000D01*
X179500000Y-102800000D02*
X179500000Y-100300000D01*
X182500000Y-102800000D02*
X182500000Y-100300000D01*
X185500000Y-102800000D02*
X185500000Y-100300000D01*
X188500000Y-102800000D02*
X188500000Y-100300000D01*
X191500000Y-102800000D02*
X191500000Y-100300000D01*
X194500000Y-102800000D02*
X194500000Y-100300000D01*
X197500000Y-102800000D02*
X197500000Y-100300000D01*
X200500000Y-102800000D02*
X200500000Y-100300000D01*
X203500000Y-100300000D02*
X203500000Y-102800000D01*
X206500000Y-68300000D02*
X206500000Y-84300000D01*
X145500000Y-68300000D02*
X206500000Y-68300000D01*
X145500000Y-100300000D02*
X145500000Y-68300000D01*
X206500000Y-100300000D02*
X145500000Y-100300000D01*
X206500000Y-84300000D02*
X206500000Y-100300000D01*
X165500000Y-82300000D02*
X161500000Y-82300000D01*
X165500000Y-86300000D02*
X161500000Y-86300000D01*
X173000000Y-91800000D02*
X173000000Y-76800000D01*
X177000000Y-91800000D02*
X177000000Y-76800000D01*
X191500000Y-82300000D02*
X190000000Y-82300000D01*
X191500000Y-86300000D02*
X190000000Y-86300000D01*
X204000000Y-84300000D02*
G75*
G03*
X204000000Y-84300000I-2000000J0D01*
G01*
X161500000Y-86300000D02*
G75*
G02*
X161500000Y-82300000I0J2000000D01*
G01*
X165500000Y-82300000D02*
G75*
G02*
X165500000Y-86300000I0J-2000000D01*
G01*
X177000000Y-91800000D02*
G75*
G02*
X173000000Y-91800000I-2000000J0D01*
G01*
X173000000Y-76800000D02*
G75*
G02*
X177000000Y-76800000I2000000J0D01*
G01*
X190000000Y-86300000D02*
G75*
G02*
X190000000Y-82300000I0J2000000D01*
G01*
X191500000Y-82300000D02*
G75*
G02*
X191500000Y-86300000I0J-2000000D01*
G01*
X170300000Y-117900000D02*
X158400000Y-125900000D01*
X170300000Y-142600000D02*
X158300000Y-134500000D01*
X182700000Y-118000000D02*
X194500000Y-126000000D01*
X182700000Y-142500000D02*
X194500000Y-134500000D01*
X194347176Y-134603859D02*
G75*
G03*
X194500000Y-126000000I-2847176J4353859D01*
G01*
X158323034Y-134547693D02*
G75*
G02*
X158400000Y-125900000I2976966J4297693D01*
G01*
X182805870Y-142444151D02*
G75*
G02*
X170300000Y-142600000I-6405870J12194151D01*
G01*
X182805870Y-118055849D02*
G75*
G03*
X170300000Y-117900000I-6405870J-12194151D01*
G01*
X170300000Y-71900000D02*
X158400000Y-79900000D01*
X170300000Y-96600000D02*
X158300000Y-88500000D01*
X182700000Y-72000000D02*
X194500000Y-80000000D01*
X182700000Y-96500000D02*
X194500000Y-88500000D01*
X194347176Y-88603859D02*
G75*
G03*
X194500000Y-80000000I-2847176J4353859D01*
G01*
X158323034Y-88547693D02*
G75*
G02*
X158400000Y-79900000I2976966J4297693D01*
G01*
X182805870Y-96444151D02*
G75*
G02*
X170300000Y-96600000I-6405870J12194151D01*
G01*
X182805870Y-72055849D02*
G75*
G03*
X170300000Y-71900000I-6405870J-12194151D01*
G01*
X96210552Y-132125501D02*
X97122719Y-133037669D01*
X97200501Y-131135552D02*
X96210552Y-132125501D01*
X98112669Y-132047719D02*
X97200501Y-131135552D01*
X97122850Y-133037456D02*
G75*
G03*
X98112669Y-132047719I2572150J-1582544D01*
G01*
X102165000Y-119014259D02*
X104665000Y-119014259D01*
X103415000Y-120264259D02*
X103415000Y-117764259D01*
X109819000Y-94160000D02*
X111161000Y-94160000D01*
X109300000Y-94200000D02*
X111680000Y-94200000D01*
X108944000Y-94240000D02*
X112036000Y-94240000D01*
X108655000Y-94280000D02*
X112325000Y-94280000D01*
X108406000Y-94320000D02*
X112574000Y-94320000D01*
X108183000Y-94360000D02*
X112797000Y-94360000D01*
X107981000Y-94400000D02*
X112999000Y-94400000D01*
X107794000Y-94440000D02*
X113186000Y-94440000D01*
X107620000Y-94480000D02*
X113360000Y-94480000D01*
X107456000Y-94520000D02*
X113524000Y-94520000D01*
X107301000Y-94560000D02*
X113679000Y-94560000D01*
X107153000Y-94600000D02*
X113827000Y-94600000D01*
X107012000Y-94640000D02*
X113968000Y-94640000D01*
X106877000Y-94680000D02*
X114103000Y-94680000D01*
X106748000Y-94720000D02*
X114232000Y-94720000D01*
X106623000Y-94760000D02*
X114357000Y-94760000D01*
X106502000Y-94800000D02*
X114478000Y-94800000D01*
X106385000Y-94840000D02*
X114595000Y-94840000D01*
X106272000Y-94880000D02*
X114708000Y-94880000D01*
X106162000Y-94920000D02*
X114818000Y-94920000D01*
X106055000Y-94960000D02*
X114925000Y-94960000D01*
X105951000Y-95000000D02*
X115029000Y-95000000D01*
X105849000Y-95040000D02*
X115131000Y-95040000D01*
X105750000Y-95080000D02*
X115230000Y-95080000D01*
X105654000Y-95120000D02*
X115326000Y-95120000D01*
X105559000Y-95160000D02*
X115421000Y-95160000D01*
X105467000Y-95200000D02*
X115513000Y-95200000D01*
X105376000Y-95240000D02*
X115604000Y-95240000D01*
X105288000Y-95280000D02*
X115692000Y-95280000D01*
X105201000Y-95320000D02*
X115779000Y-95320000D01*
X105116000Y-95360000D02*
X115864000Y-95360000D01*
X105033000Y-95400000D02*
X115947000Y-95400000D01*
X104951000Y-95440000D02*
X116029000Y-95440000D01*
X104870000Y-95480000D02*
X116110000Y-95480000D01*
X104791000Y-95520000D02*
X116189000Y-95520000D01*
X104714000Y-95560000D02*
X116266000Y-95560000D01*
X104637000Y-95600000D02*
X116343000Y-95600000D01*
X104562000Y-95640000D02*
X116418000Y-95640000D01*
X104488000Y-95680000D02*
X116492000Y-95680000D01*
X104415000Y-95720000D02*
X116565000Y-95720000D01*
X104344000Y-95760000D02*
X116636000Y-95760000D01*
X104273000Y-95800000D02*
X116707000Y-95800000D01*
X104204000Y-95840000D02*
X116776000Y-95840000D01*
X104135000Y-95880000D02*
X116845000Y-95880000D01*
X104067000Y-95920000D02*
X116913000Y-95920000D01*
X104001000Y-95960000D02*
X116979000Y-95960000D01*
X103935000Y-96000000D02*
X117045000Y-96000000D01*
X103870000Y-96040000D02*
X117110000Y-96040000D01*
X103806000Y-96080000D02*
X117174000Y-96080000D01*
X103743000Y-96120000D02*
X117237000Y-96120000D01*
X103681000Y-96160000D02*
X117299000Y-96160000D01*
X103619000Y-96200000D02*
X117361000Y-96200000D01*
X103559000Y-96240000D02*
X117421000Y-96240000D01*
X103499000Y-96280000D02*
X117481000Y-96280000D01*
X103439000Y-96320000D02*
X117541000Y-96320000D01*
X103381000Y-96360000D02*
X117599000Y-96360000D01*
X103323000Y-96400000D02*
X117657000Y-96400000D01*
X103266000Y-96440000D02*
X117714000Y-96440000D01*
X103209000Y-96480000D02*
X117771000Y-96480000D01*
X103153000Y-96520000D02*
X117827000Y-96520000D01*
X103098000Y-96560000D02*
X117882000Y-96560000D01*
X103044000Y-96600000D02*
X117936000Y-96600000D01*
X102990000Y-96640000D02*
X117990000Y-96640000D01*
X102936000Y-96680000D02*
X118044000Y-96680000D01*
X102883000Y-96720000D02*
X118097000Y-96720000D01*
X102831000Y-96760000D02*
X118149000Y-96760000D01*
X102779000Y-96800000D02*
X118201000Y-96800000D01*
X102728000Y-96840000D02*
X118252000Y-96840000D01*
X102678000Y-96880000D02*
X118302000Y-96880000D01*
X102628000Y-96920000D02*
X118352000Y-96920000D01*
X102578000Y-96960000D02*
X118402000Y-96960000D01*
X102529000Y-97000000D02*
X118451000Y-97000000D01*
X102481000Y-97040000D02*
X118499000Y-97040000D01*
X102432000Y-97080000D02*
X118548000Y-97080000D01*
X102385000Y-97120000D02*
X118595000Y-97120000D01*
X102338000Y-97160000D02*
X118642000Y-97160000D01*
X102291000Y-97200000D02*
X118689000Y-97200000D01*
X102245000Y-97240000D02*
X118735000Y-97240000D01*
X102199000Y-97280000D02*
X118781000Y-97280000D01*
X102154000Y-97320000D02*
X118826000Y-97320000D01*
X102109000Y-97360000D02*
X118871000Y-97360000D01*
X102065000Y-97400000D02*
X118915000Y-97400000D01*
X102021000Y-97440000D02*
X118959000Y-97440000D01*
X101977000Y-97480000D02*
X119003000Y-97480000D01*
X101934000Y-97520000D02*
X119046000Y-97520000D01*
X101891000Y-97560000D02*
X119089000Y-97560000D01*
X101849000Y-97600000D02*
X119131000Y-97600000D01*
X101807000Y-97640000D02*
X119173000Y-97640000D01*
X101765000Y-97680000D02*
X119215000Y-97680000D01*
X101724000Y-97720000D02*
X119256000Y-97720000D01*
X101683000Y-97760000D02*
X119297000Y-97760000D01*
X101642000Y-97800000D02*
X119338000Y-97800000D01*
X101602000Y-97840000D02*
X119378000Y-97840000D01*
X101562000Y-97880000D02*
X119418000Y-97880000D01*
X101523000Y-97920000D02*
X119457000Y-97920000D01*
X101484000Y-97960000D02*
X119496000Y-97960000D01*
X101445000Y-98000000D02*
X119535000Y-98000000D01*
X101407000Y-98040000D02*
X119573000Y-98040000D01*
X101369000Y-98080000D02*
X119611000Y-98080000D01*
X101331000Y-98120000D02*
X119649000Y-98120000D01*
X101293000Y-98160000D02*
X119687000Y-98160000D01*
X101256000Y-98200000D02*
X119724000Y-98200000D01*
X101220000Y-98240000D02*
X119760000Y-98240000D01*
X101183000Y-98280000D02*
X119797000Y-98280000D01*
X101147000Y-98320000D02*
X119833000Y-98320000D01*
X101111000Y-98360000D02*
X119869000Y-98360000D01*
X101076000Y-98400000D02*
X119904000Y-98400000D01*
X101040000Y-98440000D02*
X119940000Y-98440000D01*
X101006000Y-98480000D02*
X119974000Y-98480000D01*
X100971000Y-98520000D02*
X120009000Y-98520000D01*
X100937000Y-98560000D02*
X120043000Y-98560000D01*
X100903000Y-98599000D02*
X120077000Y-98599000D01*
X100869000Y-98639000D02*
X120111000Y-98639000D01*
X100835000Y-98679000D02*
X120145000Y-98679000D01*
X100802000Y-98719000D02*
X120178000Y-98719000D01*
X100769000Y-98759000D02*
X120211000Y-98759000D01*
X100737000Y-98799000D02*
X120243000Y-98799000D01*
X100704000Y-98839000D02*
X120276000Y-98839000D01*
X100672000Y-98879000D02*
X120308000Y-98879000D01*
X100640000Y-98919000D02*
X120340000Y-98919000D01*
X100609000Y-98959000D02*
X120371000Y-98959000D01*
X100577000Y-98999000D02*
X120403000Y-98999000D01*
X100546000Y-99039000D02*
X120434000Y-99039000D01*
X100515000Y-99079000D02*
X120465000Y-99079000D01*
X100485000Y-99119000D02*
X120495000Y-99119000D01*
X100455000Y-99159000D02*
X120525000Y-99159000D01*
X100425000Y-99199000D02*
X120555000Y-99199000D01*
X100395000Y-99239000D02*
X120585000Y-99239000D01*
X100365000Y-99279000D02*
X120615000Y-99279000D01*
X100336000Y-99319000D02*
X120644000Y-99319000D01*
X100307000Y-99359000D02*
X120673000Y-99359000D01*
X100278000Y-99399000D02*
X120702000Y-99399000D01*
X100249000Y-99439000D02*
X120731000Y-99439000D01*
X100221000Y-99479000D02*
X120759000Y-99479000D01*
X100193000Y-99519000D02*
X120787000Y-99519000D01*
X112730000Y-99559000D02*
X120815000Y-99559000D01*
X100165000Y-99559000D02*
X108250000Y-99559000D01*
X112730000Y-99599000D02*
X120843000Y-99599000D01*
X100137000Y-99599000D02*
X108250000Y-99599000D01*
X112730000Y-99639000D02*
X120870000Y-99639000D01*
X100110000Y-99639000D02*
X108250000Y-99639000D01*
X112730000Y-99679000D02*
X120897000Y-99679000D01*
X100083000Y-99679000D02*
X108250000Y-99679000D01*
X112730000Y-99719000D02*
X120924000Y-99719000D01*
X100056000Y-99719000D02*
X108250000Y-99719000D01*
X112730000Y-99759000D02*
X120951000Y-99759000D01*
X100029000Y-99759000D02*
X108250000Y-99759000D01*
X112730000Y-99799000D02*
X120978000Y-99799000D01*
X100002000Y-99799000D02*
X108250000Y-99799000D01*
X112730000Y-99839000D02*
X121004000Y-99839000D01*
X99976000Y-99839000D02*
X108250000Y-99839000D01*
X112730000Y-99879000D02*
X121030000Y-99879000D01*
X99950000Y-99879000D02*
X108250000Y-99879000D01*
X112730000Y-99919000D02*
X121056000Y-99919000D01*
X99924000Y-99919000D02*
X108250000Y-99919000D01*
X112730000Y-99959000D02*
X121082000Y-99959000D01*
X99898000Y-99959000D02*
X108250000Y-99959000D01*
X112730000Y-99999000D02*
X121107000Y-99999000D01*
X99873000Y-99999000D02*
X108250000Y-99999000D01*
X112730000Y-100039000D02*
X121133000Y-100039000D01*
X99847000Y-100039000D02*
X108250000Y-100039000D01*
X112730000Y-100079000D02*
X121158000Y-100079000D01*
X99822000Y-100079000D02*
X108250000Y-100079000D01*
X112730000Y-100119000D02*
X121182000Y-100119000D01*
X99798000Y-100119000D02*
X108250000Y-100119000D01*
X112730000Y-100159000D02*
X121207000Y-100159000D01*
X99773000Y-100159000D02*
X108250000Y-100159000D01*
X112730000Y-100199000D02*
X121232000Y-100199000D01*
X99748000Y-100199000D02*
X108250000Y-100199000D01*
X112730000Y-100239000D02*
X121256000Y-100239000D01*
X99724000Y-100239000D02*
X108250000Y-100239000D01*
X112730000Y-100279000D02*
X121280000Y-100279000D01*
X99700000Y-100279000D02*
X108250000Y-100279000D01*
X112730000Y-100319000D02*
X121304000Y-100319000D01*
X99676000Y-100319000D02*
X108250000Y-100319000D01*
X112730000Y-100359000D02*
X121327000Y-100359000D01*
X99653000Y-100359000D02*
X108250000Y-100359000D01*
X112730000Y-100399000D02*
X121351000Y-100399000D01*
X99629000Y-100399000D02*
X108250000Y-100399000D01*
X112730000Y-100439000D02*
X121374000Y-100439000D01*
X99606000Y-100439000D02*
X108250000Y-100439000D01*
X112730000Y-100479000D02*
X121397000Y-100479000D01*
X99583000Y-100479000D02*
X108250000Y-100479000D01*
X112730000Y-100519000D02*
X121420000Y-100519000D01*
X99560000Y-100519000D02*
X108250000Y-100519000D01*
X112730000Y-100559000D02*
X121443000Y-100559000D01*
X99537000Y-100559000D02*
X108250000Y-100559000D01*
X112730000Y-100599000D02*
X121465000Y-100599000D01*
X99515000Y-100599000D02*
X108250000Y-100599000D01*
X112730000Y-100639000D02*
X121487000Y-100639000D01*
X99493000Y-100639000D02*
X108250000Y-100639000D01*
X112730000Y-100679000D02*
X121509000Y-100679000D01*
X99471000Y-100679000D02*
X108250000Y-100679000D01*
X112730000Y-100719000D02*
X121531000Y-100719000D01*
X99449000Y-100719000D02*
X108250000Y-100719000D01*
X112730000Y-100759000D02*
X121553000Y-100759000D01*
X99427000Y-100759000D02*
X108250000Y-100759000D01*
X112730000Y-100799000D02*
X121574000Y-100799000D01*
X99406000Y-100799000D02*
X108250000Y-100799000D01*
X112730000Y-100839000D02*
X121596000Y-100839000D01*
X99384000Y-100839000D02*
X108250000Y-100839000D01*
X112730000Y-100879000D02*
X121617000Y-100879000D01*
X99363000Y-100879000D02*
X108250000Y-100879000D01*
X112730000Y-100919000D02*
X121638000Y-100919000D01*
X99342000Y-100919000D02*
X108250000Y-100919000D01*
X112730000Y-100959000D02*
X121659000Y-100959000D01*
X99321000Y-100959000D02*
X108250000Y-100959000D01*
X112730000Y-100999000D02*
X121679000Y-100999000D01*
X99301000Y-100999000D02*
X108250000Y-100999000D01*
X112730000Y-101039000D02*
X121700000Y-101039000D01*
X99280000Y-101039000D02*
X108250000Y-101039000D01*
X112730000Y-101079000D02*
X121720000Y-101079000D01*
X99260000Y-101079000D02*
X108250000Y-101079000D01*
X112730000Y-101119000D02*
X121740000Y-101119000D01*
X99240000Y-101119000D02*
X108250000Y-101119000D01*
X112730000Y-101159000D02*
X121760000Y-101159000D01*
X99220000Y-101159000D02*
X108250000Y-101159000D01*
X112730000Y-101199000D02*
X121780000Y-101199000D01*
X99200000Y-101199000D02*
X108250000Y-101199000D01*
X112730000Y-101239000D02*
X121799000Y-101239000D01*
X99181000Y-101239000D02*
X108250000Y-101239000D01*
X112730000Y-101279000D02*
X121819000Y-101279000D01*
X99161000Y-101279000D02*
X108250000Y-101279000D01*
X112730000Y-101319000D02*
X121838000Y-101319000D01*
X99142000Y-101319000D02*
X108250000Y-101319000D01*
X112730000Y-101359000D02*
X121857000Y-101359000D01*
X99123000Y-101359000D02*
X108250000Y-101359000D01*
X112730000Y-101399000D02*
X121876000Y-101399000D01*
X99104000Y-101399000D02*
X108250000Y-101399000D01*
X112730000Y-101439000D02*
X121894000Y-101439000D01*
X99086000Y-101439000D02*
X108250000Y-101439000D01*
X112730000Y-101479000D02*
X121913000Y-101479000D01*
X99067000Y-101479000D02*
X108250000Y-101479000D01*
X112730000Y-101519000D02*
X121931000Y-101519000D01*
X99049000Y-101519000D02*
X108250000Y-101519000D01*
X112730000Y-101559000D02*
X121949000Y-101559000D01*
X99031000Y-101559000D02*
X108250000Y-101559000D01*
X112730000Y-101599000D02*
X121967000Y-101599000D01*
X99013000Y-101599000D02*
X108250000Y-101599000D01*
X112730000Y-101639000D02*
X121985000Y-101639000D01*
X98995000Y-101639000D02*
X108250000Y-101639000D01*
X112730000Y-101679000D02*
X122003000Y-101679000D01*
X98977000Y-101679000D02*
X108250000Y-101679000D01*
X112730000Y-101719000D02*
X122020000Y-101719000D01*
X98960000Y-101719000D02*
X108250000Y-101719000D01*
X112730000Y-101759000D02*
X122038000Y-101759000D01*
X98942000Y-101759000D02*
X108250000Y-101759000D01*
X112730000Y-101799000D02*
X122055000Y-101799000D01*
X98925000Y-101799000D02*
X108250000Y-101799000D01*
X112730000Y-101839000D02*
X122072000Y-101839000D01*
X98908000Y-101839000D02*
X108250000Y-101839000D01*
X112730000Y-101879000D02*
X122089000Y-101879000D01*
X98891000Y-101879000D02*
X108250000Y-101879000D01*
X112730000Y-101919000D02*
X122105000Y-101919000D01*
X98875000Y-101919000D02*
X108250000Y-101919000D01*
X112730000Y-101959000D02*
X122122000Y-101959000D01*
X98858000Y-101959000D02*
X108250000Y-101959000D01*
X112730000Y-101999000D02*
X122138000Y-101999000D01*
X98842000Y-101999000D02*
X108250000Y-101999000D01*
X112730000Y-102039000D02*
X122155000Y-102039000D01*
X98825000Y-102039000D02*
X108250000Y-102039000D01*
X112730000Y-102079000D02*
X122171000Y-102079000D01*
X98809000Y-102079000D02*
X108250000Y-102079000D01*
X112730000Y-102119000D02*
X122187000Y-102119000D01*
X98793000Y-102119000D02*
X108250000Y-102119000D01*
X112730000Y-102159000D02*
X122202000Y-102159000D01*
X98778000Y-102159000D02*
X108250000Y-102159000D01*
X112730000Y-102199000D02*
X122218000Y-102199000D01*
X98762000Y-102199000D02*
X108250000Y-102199000D01*
X112730000Y-102239000D02*
X122233000Y-102239000D01*
X98747000Y-102239000D02*
X108250000Y-102239000D01*
X112730000Y-102279000D02*
X122249000Y-102279000D01*
X98731000Y-102279000D02*
X108250000Y-102279000D01*
X112730000Y-102319000D02*
X122264000Y-102319000D01*
X98716000Y-102319000D02*
X108250000Y-102319000D01*
X112730000Y-102359000D02*
X122279000Y-102359000D01*
X98701000Y-102359000D02*
X108250000Y-102359000D01*
X112730000Y-102399000D02*
X122293000Y-102399000D01*
X98687000Y-102399000D02*
X108250000Y-102399000D01*
X112730000Y-102439000D02*
X122308000Y-102439000D01*
X98672000Y-102439000D02*
X108250000Y-102439000D01*
X112730000Y-102479000D02*
X122323000Y-102479000D01*
X98657000Y-102479000D02*
X108250000Y-102479000D01*
X112730000Y-102519000D02*
X122337000Y-102519000D01*
X98643000Y-102519000D02*
X108250000Y-102519000D01*
X112730000Y-102559000D02*
X122351000Y-102559000D01*
X98629000Y-102559000D02*
X108250000Y-102559000D01*
X112730000Y-102599000D02*
X122365000Y-102599000D01*
X98615000Y-102599000D02*
X108250000Y-102599000D01*
X112730000Y-102639000D02*
X122379000Y-102639000D01*
X98601000Y-102639000D02*
X108250000Y-102639000D01*
X112730000Y-102679000D02*
X122393000Y-102679000D01*
X98587000Y-102679000D02*
X108250000Y-102679000D01*
X112730000Y-102719000D02*
X122406000Y-102719000D01*
X98574000Y-102719000D02*
X108250000Y-102719000D01*
X112730000Y-102759000D02*
X122420000Y-102759000D01*
X98560000Y-102759000D02*
X108250000Y-102759000D01*
X112730000Y-102799000D02*
X122433000Y-102799000D01*
X98547000Y-102799000D02*
X108250000Y-102799000D01*
X112730000Y-102839000D02*
X122446000Y-102839000D01*
X98534000Y-102839000D02*
X108250000Y-102839000D01*
X112730000Y-102879000D02*
X122459000Y-102879000D01*
X98521000Y-102879000D02*
X108250000Y-102879000D01*
X112730000Y-102919000D02*
X122472000Y-102919000D01*
X98508000Y-102919000D02*
X108250000Y-102919000D01*
X112730000Y-102959000D02*
X122485000Y-102959000D01*
X98495000Y-102959000D02*
X108250000Y-102959000D01*
X112730000Y-102999000D02*
X122497000Y-102999000D01*
X98483000Y-102999000D02*
X108250000Y-102999000D01*
X112730000Y-103039000D02*
X122510000Y-103039000D01*
X98470000Y-103039000D02*
X108250000Y-103039000D01*
X112730000Y-103079000D02*
X122522000Y-103079000D01*
X98458000Y-103079000D02*
X108250000Y-103079000D01*
X112730000Y-103119000D02*
X122534000Y-103119000D01*
X98446000Y-103119000D02*
X108250000Y-103119000D01*
X112730000Y-103159000D02*
X122546000Y-103159000D01*
X98434000Y-103159000D02*
X108250000Y-103159000D01*
X112730000Y-103199000D02*
X122558000Y-103199000D01*
X98422000Y-103199000D02*
X108250000Y-103199000D01*
X112730000Y-103239000D02*
X122570000Y-103239000D01*
X98410000Y-103239000D02*
X108250000Y-103239000D01*
X112730000Y-103279000D02*
X122581000Y-103279000D01*
X98399000Y-103279000D02*
X108250000Y-103279000D01*
X112730000Y-103319000D02*
X122593000Y-103319000D01*
X98387000Y-103319000D02*
X108250000Y-103319000D01*
X112730000Y-103359000D02*
X122604000Y-103359000D01*
X98376000Y-103359000D02*
X108250000Y-103359000D01*
X112730000Y-103399000D02*
X122615000Y-103399000D01*
X98365000Y-103399000D02*
X108250000Y-103399000D01*
X112730000Y-103439000D02*
X122626000Y-103439000D01*
X98354000Y-103439000D02*
X108250000Y-103439000D01*
X112730000Y-103479000D02*
X122637000Y-103479000D01*
X98343000Y-103479000D02*
X108250000Y-103479000D01*
X112730000Y-103519000D02*
X122647000Y-103519000D01*
X98333000Y-103519000D02*
X108250000Y-103519000D01*
X112730000Y-103559000D02*
X122658000Y-103559000D01*
X98322000Y-103559000D02*
X108250000Y-103559000D01*
X112730000Y-103599000D02*
X122668000Y-103599000D01*
X98312000Y-103599000D02*
X108250000Y-103599000D01*
X112730000Y-103639000D02*
X122679000Y-103639000D01*
X98301000Y-103639000D02*
X108250000Y-103639000D01*
X112730000Y-103679000D02*
X122689000Y-103679000D01*
X98291000Y-103679000D02*
X108250000Y-103679000D01*
X112730000Y-103719000D02*
X122699000Y-103719000D01*
X98281000Y-103719000D02*
X108250000Y-103719000D01*
X112730000Y-103759000D02*
X122709000Y-103759000D01*
X98271000Y-103759000D02*
X108250000Y-103759000D01*
X112730000Y-103799000D02*
X122718000Y-103799000D01*
X98262000Y-103799000D02*
X108250000Y-103799000D01*
X112730000Y-103839000D02*
X122728000Y-103839000D01*
X98252000Y-103839000D02*
X108250000Y-103839000D01*
X112730000Y-103879000D02*
X122737000Y-103879000D01*
X98243000Y-103879000D02*
X108250000Y-103879000D01*
X112730000Y-103919000D02*
X122747000Y-103919000D01*
X98233000Y-103919000D02*
X108250000Y-103919000D01*
X112730000Y-103959000D02*
X122756000Y-103959000D01*
X98224000Y-103959000D02*
X108250000Y-103959000D01*
X112730000Y-103999000D02*
X122765000Y-103999000D01*
X98215000Y-103999000D02*
X108250000Y-103999000D01*
X98206000Y-104039000D02*
X122774000Y-104039000D01*
X98197000Y-104079000D02*
X122783000Y-104079000D01*
X98189000Y-104119000D02*
X122791000Y-104119000D01*
X98180000Y-104159000D02*
X122800000Y-104159000D01*
X98172000Y-104199000D02*
X122808000Y-104199000D01*
X98164000Y-104239000D02*
X122816000Y-104239000D01*
X98156000Y-104279000D02*
X122824000Y-104279000D01*
X98148000Y-104319000D02*
X122832000Y-104319000D01*
X98140000Y-104359000D02*
X122840000Y-104359000D01*
X98132000Y-104399000D02*
X122848000Y-104399000D01*
X98125000Y-104439000D02*
X122855000Y-104439000D01*
X98117000Y-104479000D02*
X122863000Y-104479000D01*
X98110000Y-104519000D02*
X122870000Y-104519000D01*
X98103000Y-104559000D02*
X122877000Y-104559000D01*
X98096000Y-104599000D02*
X122884000Y-104599000D01*
X98089000Y-104639000D02*
X122891000Y-104639000D01*
X98082000Y-104679000D02*
X122898000Y-104679000D01*
X98075000Y-104719000D02*
X122905000Y-104719000D01*
X98069000Y-104759000D02*
X122911000Y-104759000D01*
X98063000Y-104799000D02*
X122917000Y-104799000D01*
X98056000Y-104839000D02*
X122924000Y-104839000D01*
X98050000Y-104879000D02*
X122930000Y-104879000D01*
X98044000Y-104919000D02*
X122936000Y-104919000D01*
X98039000Y-104959000D02*
X122941000Y-104959000D01*
X98033000Y-104999000D02*
X122947000Y-104999000D01*
X98027000Y-105039000D02*
X122953000Y-105039000D01*
X98022000Y-105079000D02*
X122958000Y-105079000D01*
X98017000Y-105119000D02*
X122963000Y-105119000D01*
X98011000Y-105159000D02*
X122969000Y-105159000D01*
X98006000Y-105199000D02*
X122974000Y-105199000D01*
X98001000Y-105239000D02*
X122979000Y-105239000D01*
X97997000Y-105279000D02*
X122983000Y-105279000D01*
X97992000Y-105319000D02*
X122988000Y-105319000D01*
X97987000Y-105359000D02*
X122993000Y-105359000D01*
X97983000Y-105399000D02*
X122997000Y-105399000D01*
X97979000Y-105439000D02*
X123001000Y-105439000D01*
X97975000Y-105479000D02*
X123005000Y-105479000D01*
X97971000Y-105519000D02*
X123009000Y-105519000D01*
X97967000Y-105559000D02*
X123013000Y-105559000D01*
X97963000Y-105599000D02*
X123017000Y-105599000D01*
X97959000Y-105639000D02*
X123021000Y-105639000D01*
X97956000Y-105679000D02*
X123024000Y-105679000D01*
X97952000Y-105719000D02*
X123028000Y-105719000D01*
X97949000Y-105759000D02*
X123031000Y-105759000D01*
X97946000Y-105799000D02*
X123034000Y-105799000D01*
X97943000Y-105839000D02*
X123037000Y-105839000D01*
X97940000Y-105879000D02*
X123040000Y-105879000D01*
X97937000Y-105919000D02*
X123043000Y-105919000D01*
X97935000Y-105959000D02*
X123045000Y-105959000D01*
X97932000Y-105999000D02*
X123048000Y-105999000D01*
X97930000Y-106039000D02*
X123050000Y-106039000D01*
X97928000Y-106080000D02*
X123052000Y-106080000D01*
X97926000Y-106120000D02*
X123054000Y-106120000D01*
X97924000Y-106160000D02*
X123056000Y-106160000D01*
X97922000Y-106200000D02*
X123058000Y-106200000D01*
X97920000Y-106240000D02*
X123060000Y-106240000D01*
X97919000Y-106280000D02*
X123061000Y-106280000D01*
X97917000Y-106320000D02*
X123063000Y-106320000D01*
X97916000Y-106360000D02*
X123064000Y-106360000D01*
X97915000Y-106400000D02*
X123065000Y-106400000D01*
X97914000Y-106440000D02*
X123066000Y-106440000D01*
X97913000Y-106480000D02*
X123067000Y-106480000D01*
X97912000Y-106520000D02*
X123068000Y-106520000D01*
X97911000Y-106560000D02*
X123069000Y-106560000D01*
X97911000Y-106600000D02*
X123069000Y-106600000D01*
X97910000Y-106640000D02*
X123070000Y-106640000D01*
X97910000Y-106680000D02*
X123070000Y-106680000D01*
X97910000Y-106720000D02*
X123070000Y-106720000D01*
X97909000Y-106760000D02*
X123071000Y-106760000D01*
X123110000Y-106760000D02*
G75*
G03*
X123110000Y-106760000I-12620000J0D01*
G01*
X74225000Y-119014259D02*
X76725000Y-119014259D01*
X75475000Y-120264259D02*
X75475000Y-117764259D01*
X81879000Y-94160000D02*
X83221000Y-94160000D01*
X81360000Y-94200000D02*
X83740000Y-94200000D01*
X81004000Y-94240000D02*
X84096000Y-94240000D01*
X80715000Y-94280000D02*
X84385000Y-94280000D01*
X80466000Y-94320000D02*
X84634000Y-94320000D01*
X80243000Y-94360000D02*
X84857000Y-94360000D01*
X80041000Y-94400000D02*
X85059000Y-94400000D01*
X79854000Y-94440000D02*
X85246000Y-94440000D01*
X79680000Y-94480000D02*
X85420000Y-94480000D01*
X79516000Y-94520000D02*
X85584000Y-94520000D01*
X79361000Y-94560000D02*
X85739000Y-94560000D01*
X79213000Y-94600000D02*
X85887000Y-94600000D01*
X79072000Y-94640000D02*
X86028000Y-94640000D01*
X78937000Y-94680000D02*
X86163000Y-94680000D01*
X78808000Y-94720000D02*
X86292000Y-94720000D01*
X78683000Y-94760000D02*
X86417000Y-94760000D01*
X78562000Y-94800000D02*
X86538000Y-94800000D01*
X78445000Y-94840000D02*
X86655000Y-94840000D01*
X78332000Y-94880000D02*
X86768000Y-94880000D01*
X78222000Y-94920000D02*
X86878000Y-94920000D01*
X78115000Y-94960000D02*
X86985000Y-94960000D01*
X78011000Y-95000000D02*
X87089000Y-95000000D01*
X77909000Y-95040000D02*
X87191000Y-95040000D01*
X77810000Y-95080000D02*
X87290000Y-95080000D01*
X77714000Y-95120000D02*
X87386000Y-95120000D01*
X77619000Y-95160000D02*
X87481000Y-95160000D01*
X77527000Y-95200000D02*
X87573000Y-95200000D01*
X77436000Y-95240000D02*
X87664000Y-95240000D01*
X77348000Y-95280000D02*
X87752000Y-95280000D01*
X77261000Y-95320000D02*
X87839000Y-95320000D01*
X77176000Y-95360000D02*
X87924000Y-95360000D01*
X77093000Y-95400000D02*
X88007000Y-95400000D01*
X77011000Y-95440000D02*
X88089000Y-95440000D01*
X76930000Y-95480000D02*
X88170000Y-95480000D01*
X76851000Y-95520000D02*
X88249000Y-95520000D01*
X76774000Y-95560000D02*
X88326000Y-95560000D01*
X76697000Y-95600000D02*
X88403000Y-95600000D01*
X76622000Y-95640000D02*
X88478000Y-95640000D01*
X76548000Y-95680000D02*
X88552000Y-95680000D01*
X76475000Y-95720000D02*
X88625000Y-95720000D01*
X76404000Y-95760000D02*
X88696000Y-95760000D01*
X76333000Y-95800000D02*
X88767000Y-95800000D01*
X76264000Y-95840000D02*
X88836000Y-95840000D01*
X76195000Y-95880000D02*
X88905000Y-95880000D01*
X76127000Y-95920000D02*
X88973000Y-95920000D01*
X76061000Y-95960000D02*
X89039000Y-95960000D01*
X75995000Y-96000000D02*
X89105000Y-96000000D01*
X75930000Y-96040000D02*
X89170000Y-96040000D01*
X75866000Y-96080000D02*
X89234000Y-96080000D01*
X75803000Y-96120000D02*
X89297000Y-96120000D01*
X75741000Y-96160000D02*
X89359000Y-96160000D01*
X75679000Y-96200000D02*
X89421000Y-96200000D01*
X75619000Y-96240000D02*
X89481000Y-96240000D01*
X75559000Y-96280000D02*
X89541000Y-96280000D01*
X75499000Y-96320000D02*
X89601000Y-96320000D01*
X75441000Y-96360000D02*
X89659000Y-96360000D01*
X75383000Y-96400000D02*
X89717000Y-96400000D01*
X75326000Y-96440000D02*
X89774000Y-96440000D01*
X75269000Y-96480000D02*
X89831000Y-96480000D01*
X75213000Y-96520000D02*
X89887000Y-96520000D01*
X75158000Y-96560000D02*
X89942000Y-96560000D01*
X75104000Y-96600000D02*
X89996000Y-96600000D01*
X75050000Y-96640000D02*
X90050000Y-96640000D01*
X74996000Y-96680000D02*
X90104000Y-96680000D01*
X74943000Y-96720000D02*
X90157000Y-96720000D01*
X74891000Y-96760000D02*
X90209000Y-96760000D01*
X74839000Y-96800000D02*
X90261000Y-96800000D01*
X74788000Y-96840000D02*
X90312000Y-96840000D01*
X74738000Y-96880000D02*
X90362000Y-96880000D01*
X74688000Y-96920000D02*
X90412000Y-96920000D01*
X74638000Y-96960000D02*
X90462000Y-96960000D01*
X74589000Y-97000000D02*
X90511000Y-97000000D01*
X74541000Y-97040000D02*
X90559000Y-97040000D01*
X74492000Y-97080000D02*
X90608000Y-97080000D01*
X74445000Y-97120000D02*
X90655000Y-97120000D01*
X74398000Y-97160000D02*
X90702000Y-97160000D01*
X74351000Y-97200000D02*
X90749000Y-97200000D01*
X74305000Y-97240000D02*
X90795000Y-97240000D01*
X74259000Y-97280000D02*
X90841000Y-97280000D01*
X74214000Y-97320000D02*
X90886000Y-97320000D01*
X74169000Y-97360000D02*
X90931000Y-97360000D01*
X74125000Y-97400000D02*
X90975000Y-97400000D01*
X74081000Y-97440000D02*
X91019000Y-97440000D01*
X74037000Y-97480000D02*
X91063000Y-97480000D01*
X73994000Y-97520000D02*
X91106000Y-97520000D01*
X73951000Y-97560000D02*
X91149000Y-97560000D01*
X73909000Y-97600000D02*
X91191000Y-97600000D01*
X73867000Y-97640000D02*
X91233000Y-97640000D01*
X73825000Y-97680000D02*
X91275000Y-97680000D01*
X73784000Y-97720000D02*
X91316000Y-97720000D01*
X73743000Y-97760000D02*
X91357000Y-97760000D01*
X73702000Y-97800000D02*
X91398000Y-97800000D01*
X73662000Y-97840000D02*
X91438000Y-97840000D01*
X73622000Y-97880000D02*
X91478000Y-97880000D01*
X73583000Y-97920000D02*
X91517000Y-97920000D01*
X73544000Y-97960000D02*
X91556000Y-97960000D01*
X73505000Y-98000000D02*
X91595000Y-98000000D01*
X73467000Y-98040000D02*
X91633000Y-98040000D01*
X73429000Y-98080000D02*
X91671000Y-98080000D01*
X73391000Y-98120000D02*
X91709000Y-98120000D01*
X73353000Y-98160000D02*
X91747000Y-98160000D01*
X73316000Y-98200000D02*
X91784000Y-98200000D01*
X73280000Y-98240000D02*
X91820000Y-98240000D01*
X73243000Y-98280000D02*
X91857000Y-98280000D01*
X73207000Y-98320000D02*
X91893000Y-98320000D01*
X73171000Y-98360000D02*
X91929000Y-98360000D01*
X73136000Y-98400000D02*
X91964000Y-98400000D01*
X73100000Y-98440000D02*
X92000000Y-98440000D01*
X73066000Y-98480000D02*
X92034000Y-98480000D01*
X73031000Y-98520000D02*
X92069000Y-98520000D01*
X72997000Y-98560000D02*
X92103000Y-98560000D01*
X72963000Y-98599000D02*
X92137000Y-98599000D01*
X72929000Y-98639000D02*
X92171000Y-98639000D01*
X72895000Y-98679000D02*
X92205000Y-98679000D01*
X72862000Y-98719000D02*
X92238000Y-98719000D01*
X72829000Y-98759000D02*
X92271000Y-98759000D01*
X72797000Y-98799000D02*
X92303000Y-98799000D01*
X72764000Y-98839000D02*
X92336000Y-98839000D01*
X72732000Y-98879000D02*
X92368000Y-98879000D01*
X72700000Y-98919000D02*
X92400000Y-98919000D01*
X72669000Y-98959000D02*
X92431000Y-98959000D01*
X72637000Y-98999000D02*
X92463000Y-98999000D01*
X72606000Y-99039000D02*
X92494000Y-99039000D01*
X72575000Y-99079000D02*
X92525000Y-99079000D01*
X72545000Y-99119000D02*
X92555000Y-99119000D01*
X72515000Y-99159000D02*
X92585000Y-99159000D01*
X72485000Y-99199000D02*
X92615000Y-99199000D01*
X72455000Y-99239000D02*
X92645000Y-99239000D01*
X72425000Y-99279000D02*
X92675000Y-99279000D01*
X72396000Y-99319000D02*
X92704000Y-99319000D01*
X72367000Y-99359000D02*
X92733000Y-99359000D01*
X72338000Y-99399000D02*
X92762000Y-99399000D01*
X72309000Y-99439000D02*
X92791000Y-99439000D01*
X72281000Y-99479000D02*
X92819000Y-99479000D01*
X72253000Y-99519000D02*
X92847000Y-99519000D01*
X84790000Y-99559000D02*
X92875000Y-99559000D01*
X72225000Y-99559000D02*
X80310000Y-99559000D01*
X84790000Y-99599000D02*
X92903000Y-99599000D01*
X72197000Y-99599000D02*
X80310000Y-99599000D01*
X84790000Y-99639000D02*
X92930000Y-99639000D01*
X72170000Y-99639000D02*
X80310000Y-99639000D01*
X84790000Y-99679000D02*
X92957000Y-99679000D01*
X72143000Y-99679000D02*
X80310000Y-99679000D01*
X84790000Y-99719000D02*
X92984000Y-99719000D01*
X72116000Y-99719000D02*
X80310000Y-99719000D01*
X84790000Y-99759000D02*
X93011000Y-99759000D01*
X72089000Y-99759000D02*
X80310000Y-99759000D01*
X84790000Y-99799000D02*
X93038000Y-99799000D01*
X72062000Y-99799000D02*
X80310000Y-99799000D01*
X84790000Y-99839000D02*
X93064000Y-99839000D01*
X72036000Y-99839000D02*
X80310000Y-99839000D01*
X84790000Y-99879000D02*
X93090000Y-99879000D01*
X72010000Y-99879000D02*
X80310000Y-99879000D01*
X84790000Y-99919000D02*
X93116000Y-99919000D01*
X71984000Y-99919000D02*
X80310000Y-99919000D01*
X84790000Y-99959000D02*
X93142000Y-99959000D01*
X71958000Y-99959000D02*
X80310000Y-99959000D01*
X84790000Y-99999000D02*
X93167000Y-99999000D01*
X71933000Y-99999000D02*
X80310000Y-99999000D01*
X84790000Y-100039000D02*
X93193000Y-100039000D01*
X71907000Y-100039000D02*
X80310000Y-100039000D01*
X84790000Y-100079000D02*
X93218000Y-100079000D01*
X71882000Y-100079000D02*
X80310000Y-100079000D01*
X84790000Y-100119000D02*
X93242000Y-100119000D01*
X71858000Y-100119000D02*
X80310000Y-100119000D01*
X84790000Y-100159000D02*
X93267000Y-100159000D01*
X71833000Y-100159000D02*
X80310000Y-100159000D01*
X84790000Y-100199000D02*
X93292000Y-100199000D01*
X71808000Y-100199000D02*
X80310000Y-100199000D01*
X84790000Y-100239000D02*
X93316000Y-100239000D01*
X71784000Y-100239000D02*
X80310000Y-100239000D01*
X84790000Y-100279000D02*
X93340000Y-100279000D01*
X71760000Y-100279000D02*
X80310000Y-100279000D01*
X84790000Y-100319000D02*
X93364000Y-100319000D01*
X71736000Y-100319000D02*
X80310000Y-100319000D01*
X84790000Y-100359000D02*
X93387000Y-100359000D01*
X71713000Y-100359000D02*
X80310000Y-100359000D01*
X84790000Y-100399000D02*
X93411000Y-100399000D01*
X71689000Y-100399000D02*
X80310000Y-100399000D01*
X84790000Y-100439000D02*
X93434000Y-100439000D01*
X71666000Y-100439000D02*
X80310000Y-100439000D01*
X84790000Y-100479000D02*
X93457000Y-100479000D01*
X71643000Y-100479000D02*
X80310000Y-100479000D01*
X84790000Y-100519000D02*
X93480000Y-100519000D01*
X71620000Y-100519000D02*
X80310000Y-100519000D01*
X84790000Y-100559000D02*
X93503000Y-100559000D01*
X71597000Y-100559000D02*
X80310000Y-100559000D01*
X84790000Y-100599000D02*
X93525000Y-100599000D01*
X71575000Y-100599000D02*
X80310000Y-100599000D01*
X84790000Y-100639000D02*
X93547000Y-100639000D01*
X71553000Y-100639000D02*
X80310000Y-100639000D01*
X84790000Y-100679000D02*
X93569000Y-100679000D01*
X71531000Y-100679000D02*
X80310000Y-100679000D01*
X84790000Y-100719000D02*
X93591000Y-100719000D01*
X71509000Y-100719000D02*
X80310000Y-100719000D01*
X84790000Y-100759000D02*
X93613000Y-100759000D01*
X71487000Y-100759000D02*
X80310000Y-100759000D01*
X84790000Y-100799000D02*
X93634000Y-100799000D01*
X71466000Y-100799000D02*
X80310000Y-100799000D01*
X84790000Y-100839000D02*
X93656000Y-100839000D01*
X71444000Y-100839000D02*
X80310000Y-100839000D01*
X84790000Y-100879000D02*
X93677000Y-100879000D01*
X71423000Y-100879000D02*
X80310000Y-100879000D01*
X84790000Y-100919000D02*
X93698000Y-100919000D01*
X71402000Y-100919000D02*
X80310000Y-100919000D01*
X84790000Y-100959000D02*
X93719000Y-100959000D01*
X71381000Y-100959000D02*
X80310000Y-100959000D01*
X84790000Y-100999000D02*
X93739000Y-100999000D01*
X71361000Y-100999000D02*
X80310000Y-100999000D01*
X84790000Y-101039000D02*
X93760000Y-101039000D01*
X71340000Y-101039000D02*
X80310000Y-101039000D01*
X84790000Y-101079000D02*
X93780000Y-101079000D01*
X71320000Y-101079000D02*
X80310000Y-101079000D01*
X84790000Y-101119000D02*
X93800000Y-101119000D01*
X71300000Y-101119000D02*
X80310000Y-101119000D01*
X84790000Y-101159000D02*
X93820000Y-101159000D01*
X71280000Y-101159000D02*
X80310000Y-101159000D01*
X84790000Y-101199000D02*
X93840000Y-101199000D01*
X71260000Y-101199000D02*
X80310000Y-101199000D01*
X84790000Y-101239000D02*
X93859000Y-101239000D01*
X71241000Y-101239000D02*
X80310000Y-101239000D01*
X84790000Y-101279000D02*
X93879000Y-101279000D01*
X71221000Y-101279000D02*
X80310000Y-101279000D01*
X84790000Y-101319000D02*
X93898000Y-101319000D01*
X71202000Y-101319000D02*
X80310000Y-101319000D01*
X84790000Y-101359000D02*
X93917000Y-101359000D01*
X71183000Y-101359000D02*
X80310000Y-101359000D01*
X84790000Y-101399000D02*
X93936000Y-101399000D01*
X71164000Y-101399000D02*
X80310000Y-101399000D01*
X84790000Y-101439000D02*
X93954000Y-101439000D01*
X71146000Y-101439000D02*
X80310000Y-101439000D01*
X84790000Y-101479000D02*
X93973000Y-101479000D01*
X71127000Y-101479000D02*
X80310000Y-101479000D01*
X84790000Y-101519000D02*
X93991000Y-101519000D01*
X71109000Y-101519000D02*
X80310000Y-101519000D01*
X84790000Y-101559000D02*
X94009000Y-101559000D01*
X71091000Y-101559000D02*
X80310000Y-101559000D01*
X84790000Y-101599000D02*
X94027000Y-101599000D01*
X71073000Y-101599000D02*
X80310000Y-101599000D01*
X84790000Y-101639000D02*
X94045000Y-101639000D01*
X71055000Y-101639000D02*
X80310000Y-101639000D01*
X84790000Y-101679000D02*
X94063000Y-101679000D01*
X71037000Y-101679000D02*
X80310000Y-101679000D01*
X84790000Y-101719000D02*
X94080000Y-101719000D01*
X71020000Y-101719000D02*
X80310000Y-101719000D01*
X84790000Y-101759000D02*
X94098000Y-101759000D01*
X71002000Y-101759000D02*
X80310000Y-101759000D01*
X84790000Y-101799000D02*
X94115000Y-101799000D01*
X70985000Y-101799000D02*
X80310000Y-101799000D01*
X84790000Y-101839000D02*
X94132000Y-101839000D01*
X70968000Y-101839000D02*
X80310000Y-101839000D01*
X84790000Y-101879000D02*
X94149000Y-101879000D01*
X70951000Y-101879000D02*
X80310000Y-101879000D01*
X84790000Y-101919000D02*
X94165000Y-101919000D01*
X70935000Y-101919000D02*
X80310000Y-101919000D01*
X84790000Y-101959000D02*
X94182000Y-101959000D01*
X70918000Y-101959000D02*
X80310000Y-101959000D01*
X84790000Y-101999000D02*
X94198000Y-101999000D01*
X70902000Y-101999000D02*
X80310000Y-101999000D01*
X84790000Y-102039000D02*
X94215000Y-102039000D01*
X70885000Y-102039000D02*
X80310000Y-102039000D01*
X84790000Y-102079000D02*
X94231000Y-102079000D01*
X70869000Y-102079000D02*
X80310000Y-102079000D01*
X84790000Y-102119000D02*
X94247000Y-102119000D01*
X70853000Y-102119000D02*
X80310000Y-102119000D01*
X84790000Y-102159000D02*
X94262000Y-102159000D01*
X70838000Y-102159000D02*
X80310000Y-102159000D01*
X84790000Y-102199000D02*
X94278000Y-102199000D01*
X70822000Y-102199000D02*
X80310000Y-102199000D01*
X84790000Y-102239000D02*
X94293000Y-102239000D01*
X70807000Y-102239000D02*
X80310000Y-102239000D01*
X84790000Y-102279000D02*
X94309000Y-102279000D01*
X70791000Y-102279000D02*
X80310000Y-102279000D01*
X84790000Y-102319000D02*
X94324000Y-102319000D01*
X70776000Y-102319000D02*
X80310000Y-102319000D01*
X84790000Y-102359000D02*
X94339000Y-102359000D01*
X70761000Y-102359000D02*
X80310000Y-102359000D01*
X84790000Y-102399000D02*
X94353000Y-102399000D01*
X70747000Y-102399000D02*
X80310000Y-102399000D01*
X84790000Y-102439000D02*
X94368000Y-102439000D01*
X70732000Y-102439000D02*
X80310000Y-102439000D01*
X84790000Y-102479000D02*
X94383000Y-102479000D01*
X70717000Y-102479000D02*
X80310000Y-102479000D01*
X84790000Y-102519000D02*
X94397000Y-102519000D01*
X70703000Y-102519000D02*
X80310000Y-102519000D01*
X84790000Y-102559000D02*
X94411000Y-102559000D01*
X70689000Y-102559000D02*
X80310000Y-102559000D01*
X84790000Y-102599000D02*
X94425000Y-102599000D01*
X70675000Y-102599000D02*
X80310000Y-102599000D01*
X84790000Y-102639000D02*
X94439000Y-102639000D01*
X70661000Y-102639000D02*
X80310000Y-102639000D01*
X84790000Y-102679000D02*
X94453000Y-102679000D01*
X70647000Y-102679000D02*
X80310000Y-102679000D01*
X84790000Y-102719000D02*
X94466000Y-102719000D01*
X70634000Y-102719000D02*
X80310000Y-102719000D01*
X84790000Y-102759000D02*
X94480000Y-102759000D01*
X70620000Y-102759000D02*
X80310000Y-102759000D01*
X84790000Y-102799000D02*
X94493000Y-102799000D01*
X70607000Y-102799000D02*
X80310000Y-102799000D01*
X84790000Y-102839000D02*
X94506000Y-102839000D01*
X70594000Y-102839000D02*
X80310000Y-102839000D01*
X84790000Y-102879000D02*
X94519000Y-102879000D01*
X70581000Y-102879000D02*
X80310000Y-102879000D01*
X84790000Y-102919000D02*
X94532000Y-102919000D01*
X70568000Y-102919000D02*
X80310000Y-102919000D01*
X84790000Y-102959000D02*
X94545000Y-102959000D01*
X70555000Y-102959000D02*
X80310000Y-102959000D01*
X84790000Y-102999000D02*
X94557000Y-102999000D01*
X70543000Y-102999000D02*
X80310000Y-102999000D01*
X84790000Y-103039000D02*
X94570000Y-103039000D01*
X70530000Y-103039000D02*
X80310000Y-103039000D01*
X84790000Y-103079000D02*
X94582000Y-103079000D01*
X70518000Y-103079000D02*
X80310000Y-103079000D01*
X84790000Y-103119000D02*
X94594000Y-103119000D01*
X70506000Y-103119000D02*
X80310000Y-103119000D01*
X84790000Y-103159000D02*
X94606000Y-103159000D01*
X70494000Y-103159000D02*
X80310000Y-103159000D01*
X84790000Y-103199000D02*
X94618000Y-103199000D01*
X70482000Y-103199000D02*
X80310000Y-103199000D01*
X84790000Y-103239000D02*
X94630000Y-103239000D01*
X70470000Y-103239000D02*
X80310000Y-103239000D01*
X84790000Y-103279000D02*
X94641000Y-103279000D01*
X70459000Y-103279000D02*
X80310000Y-103279000D01*
X84790000Y-103319000D02*
X94653000Y-103319000D01*
X70447000Y-103319000D02*
X80310000Y-103319000D01*
X84790000Y-103359000D02*
X94664000Y-103359000D01*
X70436000Y-103359000D02*
X80310000Y-103359000D01*
X84790000Y-103399000D02*
X94675000Y-103399000D01*
X70425000Y-103399000D02*
X80310000Y-103399000D01*
X84790000Y-103439000D02*
X94686000Y-103439000D01*
X70414000Y-103439000D02*
X80310000Y-103439000D01*
X84790000Y-103479000D02*
X94697000Y-103479000D01*
X70403000Y-103479000D02*
X80310000Y-103479000D01*
X84790000Y-103519000D02*
X94707000Y-103519000D01*
X70393000Y-103519000D02*
X80310000Y-103519000D01*
X84790000Y-103559000D02*
X94718000Y-103559000D01*
X70382000Y-103559000D02*
X80310000Y-103559000D01*
X84790000Y-103599000D02*
X94728000Y-103599000D01*
X70372000Y-103599000D02*
X80310000Y-103599000D01*
X84790000Y-103639000D02*
X94739000Y-103639000D01*
X70361000Y-103639000D02*
X80310000Y-103639000D01*
X84790000Y-103679000D02*
X94749000Y-103679000D01*
X70351000Y-103679000D02*
X80310000Y-103679000D01*
X84790000Y-103719000D02*
X94759000Y-103719000D01*
X70341000Y-103719000D02*
X80310000Y-103719000D01*
X84790000Y-103759000D02*
X94769000Y-103759000D01*
X70331000Y-103759000D02*
X80310000Y-103759000D01*
X84790000Y-103799000D02*
X94778000Y-103799000D01*
X70322000Y-103799000D02*
X80310000Y-103799000D01*
X84790000Y-103839000D02*
X94788000Y-103839000D01*
X70312000Y-103839000D02*
X80310000Y-103839000D01*
X84790000Y-103879000D02*
X94797000Y-103879000D01*
X70303000Y-103879000D02*
X80310000Y-103879000D01*
X84790000Y-103919000D02*
X94807000Y-103919000D01*
X70293000Y-103919000D02*
X80310000Y-103919000D01*
X84790000Y-103959000D02*
X94816000Y-103959000D01*
X70284000Y-103959000D02*
X80310000Y-103959000D01*
X84790000Y-103999000D02*
X94825000Y-103999000D01*
X70275000Y-103999000D02*
X80310000Y-103999000D01*
X70266000Y-104039000D02*
X94834000Y-104039000D01*
X70257000Y-104079000D02*
X94843000Y-104079000D01*
X70249000Y-104119000D02*
X94851000Y-104119000D01*
X70240000Y-104159000D02*
X94860000Y-104159000D01*
X70232000Y-104199000D02*
X94868000Y-104199000D01*
X70224000Y-104239000D02*
X94876000Y-104239000D01*
X70216000Y-104279000D02*
X94884000Y-104279000D01*
X70208000Y-104319000D02*
X94892000Y-104319000D01*
X70200000Y-104359000D02*
X94900000Y-104359000D01*
X70192000Y-104399000D02*
X94908000Y-104399000D01*
X70185000Y-104439000D02*
X94915000Y-104439000D01*
X70177000Y-104479000D02*
X94923000Y-104479000D01*
X70170000Y-104519000D02*
X94930000Y-104519000D01*
X70163000Y-104559000D02*
X94937000Y-104559000D01*
X70156000Y-104599000D02*
X94944000Y-104599000D01*
X70149000Y-104639000D02*
X94951000Y-104639000D01*
X70142000Y-104679000D02*
X94958000Y-104679000D01*
X70135000Y-104719000D02*
X94965000Y-104719000D01*
X70129000Y-104759000D02*
X94971000Y-104759000D01*
X70123000Y-104799000D02*
X94977000Y-104799000D01*
X70116000Y-104839000D02*
X94984000Y-104839000D01*
X70110000Y-104879000D02*
X94990000Y-104879000D01*
X70104000Y-104919000D02*
X94996000Y-104919000D01*
X70099000Y-104959000D02*
X95001000Y-104959000D01*
X70093000Y-104999000D02*
X95007000Y-104999000D01*
X70087000Y-105039000D02*
X95013000Y-105039000D01*
X70082000Y-105079000D02*
X95018000Y-105079000D01*
X70077000Y-105119000D02*
X95023000Y-105119000D01*
X70071000Y-105159000D02*
X95029000Y-105159000D01*
X70066000Y-105199000D02*
X95034000Y-105199000D01*
X70061000Y-105239000D02*
X95039000Y-105239000D01*
X70057000Y-105279000D02*
X95043000Y-105279000D01*
X70052000Y-105319000D02*
X95048000Y-105319000D01*
X70047000Y-105359000D02*
X95053000Y-105359000D01*
X70043000Y-105399000D02*
X95057000Y-105399000D01*
X70039000Y-105439000D02*
X95061000Y-105439000D01*
X70035000Y-105479000D02*
X95065000Y-105479000D01*
X70031000Y-105519000D02*
X95069000Y-105519000D01*
X70027000Y-105559000D02*
X95073000Y-105559000D01*
X70023000Y-105599000D02*
X95077000Y-105599000D01*
X70019000Y-105639000D02*
X95081000Y-105639000D01*
X70016000Y-105679000D02*
X95084000Y-105679000D01*
X70012000Y-105719000D02*
X95088000Y-105719000D01*
X70009000Y-105759000D02*
X95091000Y-105759000D01*
X70006000Y-105799000D02*
X95094000Y-105799000D01*
X70003000Y-105839000D02*
X95097000Y-105839000D01*
X70000000Y-105879000D02*
X95100000Y-105879000D01*
X69997000Y-105919000D02*
X95103000Y-105919000D01*
X69995000Y-105959000D02*
X95105000Y-105959000D01*
X69992000Y-105999000D02*
X95108000Y-105999000D01*
X69990000Y-106039000D02*
X95110000Y-106039000D01*
X69988000Y-106080000D02*
X95112000Y-106080000D01*
X69986000Y-106120000D02*
X95114000Y-106120000D01*
X69984000Y-106160000D02*
X95116000Y-106160000D01*
X69982000Y-106200000D02*
X95118000Y-106200000D01*
X69980000Y-106240000D02*
X95120000Y-106240000D01*
X69979000Y-106280000D02*
X95121000Y-106280000D01*
X69977000Y-106320000D02*
X95123000Y-106320000D01*
X69976000Y-106360000D02*
X95124000Y-106360000D01*
X69975000Y-106400000D02*
X95125000Y-106400000D01*
X69974000Y-106440000D02*
X95126000Y-106440000D01*
X69973000Y-106480000D02*
X95127000Y-106480000D01*
X69972000Y-106520000D02*
X95128000Y-106520000D01*
X69971000Y-106560000D02*
X95129000Y-106560000D01*
X69971000Y-106600000D02*
X95129000Y-106600000D01*
X69970000Y-106640000D02*
X95130000Y-106640000D01*
X69970000Y-106680000D02*
X95130000Y-106680000D01*
X69970000Y-106720000D02*
X95130000Y-106720000D01*
X69969000Y-106760000D02*
X95131000Y-106760000D01*
X95170000Y-106760000D02*
G75*
G03*
X95170000Y-106760000I-12620000J0D01*
G01*
X74225000Y-91074259D02*
X76725000Y-91074259D01*
X75475000Y-92324259D02*
X75475000Y-89824259D01*
X81879000Y-66220000D02*
X83221000Y-66220000D01*
X81360000Y-66260000D02*
X83740000Y-66260000D01*
X81004000Y-66300000D02*
X84096000Y-66300000D01*
X80715000Y-66340000D02*
X84385000Y-66340000D01*
X80466000Y-66380000D02*
X84634000Y-66380000D01*
X80243000Y-66420000D02*
X84857000Y-66420000D01*
X80041000Y-66460000D02*
X85059000Y-66460000D01*
X79854000Y-66500000D02*
X85246000Y-66500000D01*
X79680000Y-66540000D02*
X85420000Y-66540000D01*
X79516000Y-66580000D02*
X85584000Y-66580000D01*
X79361000Y-66620000D02*
X85739000Y-66620000D01*
X79213000Y-66660000D02*
X85887000Y-66660000D01*
X79072000Y-66700000D02*
X86028000Y-66700000D01*
X78937000Y-66740000D02*
X86163000Y-66740000D01*
X78808000Y-66780000D02*
X86292000Y-66780000D01*
X78683000Y-66820000D02*
X86417000Y-66820000D01*
X78562000Y-66860000D02*
X86538000Y-66860000D01*
X78445000Y-66900000D02*
X86655000Y-66900000D01*
X78332000Y-66940000D02*
X86768000Y-66940000D01*
X78222000Y-66980000D02*
X86878000Y-66980000D01*
X78115000Y-67020000D02*
X86985000Y-67020000D01*
X78011000Y-67060000D02*
X87089000Y-67060000D01*
X77909000Y-67100000D02*
X87191000Y-67100000D01*
X77810000Y-67140000D02*
X87290000Y-67140000D01*
X77714000Y-67180000D02*
X87386000Y-67180000D01*
X77619000Y-67220000D02*
X87481000Y-67220000D01*
X77527000Y-67260000D02*
X87573000Y-67260000D01*
X77436000Y-67300000D02*
X87664000Y-67300000D01*
X77348000Y-67340000D02*
X87752000Y-67340000D01*
X77261000Y-67380000D02*
X87839000Y-67380000D01*
X77176000Y-67420000D02*
X87924000Y-67420000D01*
X77093000Y-67460000D02*
X88007000Y-67460000D01*
X77011000Y-67500000D02*
X88089000Y-67500000D01*
X76930000Y-67540000D02*
X88170000Y-67540000D01*
X76851000Y-67580000D02*
X88249000Y-67580000D01*
X76774000Y-67620000D02*
X88326000Y-67620000D01*
X76697000Y-67660000D02*
X88403000Y-67660000D01*
X76622000Y-67700000D02*
X88478000Y-67700000D01*
X76548000Y-67740000D02*
X88552000Y-67740000D01*
X76475000Y-67780000D02*
X88625000Y-67780000D01*
X76404000Y-67820000D02*
X88696000Y-67820000D01*
X76333000Y-67860000D02*
X88767000Y-67860000D01*
X76264000Y-67900000D02*
X88836000Y-67900000D01*
X76195000Y-67940000D02*
X88905000Y-67940000D01*
X76127000Y-67980000D02*
X88973000Y-67980000D01*
X76061000Y-68020000D02*
X89039000Y-68020000D01*
X75995000Y-68060000D02*
X89105000Y-68060000D01*
X75930000Y-68100000D02*
X89170000Y-68100000D01*
X75866000Y-68140000D02*
X89234000Y-68140000D01*
X75803000Y-68180000D02*
X89297000Y-68180000D01*
X75741000Y-68220000D02*
X89359000Y-68220000D01*
X75679000Y-68260000D02*
X89421000Y-68260000D01*
X75619000Y-68300000D02*
X89481000Y-68300000D01*
X75559000Y-68340000D02*
X89541000Y-68340000D01*
X75499000Y-68380000D02*
X89601000Y-68380000D01*
X75441000Y-68420000D02*
X89659000Y-68420000D01*
X75383000Y-68460000D02*
X89717000Y-68460000D01*
X75326000Y-68500000D02*
X89774000Y-68500000D01*
X75269000Y-68540000D02*
X89831000Y-68540000D01*
X75213000Y-68580000D02*
X89887000Y-68580000D01*
X75158000Y-68620000D02*
X89942000Y-68620000D01*
X75104000Y-68660000D02*
X89996000Y-68660000D01*
X75050000Y-68700000D02*
X90050000Y-68700000D01*
X74996000Y-68740000D02*
X90104000Y-68740000D01*
X74943000Y-68780000D02*
X90157000Y-68780000D01*
X74891000Y-68820000D02*
X90209000Y-68820000D01*
X74839000Y-68860000D02*
X90261000Y-68860000D01*
X74788000Y-68900000D02*
X90312000Y-68900000D01*
X74738000Y-68940000D02*
X90362000Y-68940000D01*
X74688000Y-68980000D02*
X90412000Y-68980000D01*
X74638000Y-69020000D02*
X90462000Y-69020000D01*
X74589000Y-69060000D02*
X90511000Y-69060000D01*
X74541000Y-69100000D02*
X90559000Y-69100000D01*
X74492000Y-69140000D02*
X90608000Y-69140000D01*
X74445000Y-69180000D02*
X90655000Y-69180000D01*
X74398000Y-69220000D02*
X90702000Y-69220000D01*
X74351000Y-69260000D02*
X90749000Y-69260000D01*
X74305000Y-69300000D02*
X90795000Y-69300000D01*
X74259000Y-69340000D02*
X90841000Y-69340000D01*
X74214000Y-69380000D02*
X90886000Y-69380000D01*
X74169000Y-69420000D02*
X90931000Y-69420000D01*
X74125000Y-69460000D02*
X90975000Y-69460000D01*
X74081000Y-69500000D02*
X91019000Y-69500000D01*
X74037000Y-69540000D02*
X91063000Y-69540000D01*
X73994000Y-69580000D02*
X91106000Y-69580000D01*
X73951000Y-69620000D02*
X91149000Y-69620000D01*
X73909000Y-69660000D02*
X91191000Y-69660000D01*
X73867000Y-69700000D02*
X91233000Y-69700000D01*
X73825000Y-69740000D02*
X91275000Y-69740000D01*
X73784000Y-69780000D02*
X91316000Y-69780000D01*
X73743000Y-69820000D02*
X91357000Y-69820000D01*
X73702000Y-69860000D02*
X91398000Y-69860000D01*
X73662000Y-69900000D02*
X91438000Y-69900000D01*
X73622000Y-69940000D02*
X91478000Y-69940000D01*
X73583000Y-69980000D02*
X91517000Y-69980000D01*
X73544000Y-70020000D02*
X91556000Y-70020000D01*
X73505000Y-70060000D02*
X91595000Y-70060000D01*
X73467000Y-70100000D02*
X91633000Y-70100000D01*
X73429000Y-70140000D02*
X91671000Y-70140000D01*
X73391000Y-70180000D02*
X91709000Y-70180000D01*
X73353000Y-70220000D02*
X91747000Y-70220000D01*
X73316000Y-70260000D02*
X91784000Y-70260000D01*
X73280000Y-70300000D02*
X91820000Y-70300000D01*
X73243000Y-70340000D02*
X91857000Y-70340000D01*
X73207000Y-70380000D02*
X91893000Y-70380000D01*
X73171000Y-70420000D02*
X91929000Y-70420000D01*
X73136000Y-70460000D02*
X91964000Y-70460000D01*
X73100000Y-70500000D02*
X92000000Y-70500000D01*
X73066000Y-70540000D02*
X92034000Y-70540000D01*
X73031000Y-70580000D02*
X92069000Y-70580000D01*
X72997000Y-70620000D02*
X92103000Y-70620000D01*
X72963000Y-70659000D02*
X92137000Y-70659000D01*
X72929000Y-70699000D02*
X92171000Y-70699000D01*
X72895000Y-70739000D02*
X92205000Y-70739000D01*
X72862000Y-70779000D02*
X92238000Y-70779000D01*
X72829000Y-70819000D02*
X92271000Y-70819000D01*
X72797000Y-70859000D02*
X92303000Y-70859000D01*
X72764000Y-70899000D02*
X92336000Y-70899000D01*
X72732000Y-70939000D02*
X92368000Y-70939000D01*
X72700000Y-70979000D02*
X92400000Y-70979000D01*
X72669000Y-71019000D02*
X92431000Y-71019000D01*
X72637000Y-71059000D02*
X92463000Y-71059000D01*
X72606000Y-71099000D02*
X92494000Y-71099000D01*
X72575000Y-71139000D02*
X92525000Y-71139000D01*
X72545000Y-71179000D02*
X92555000Y-71179000D01*
X72515000Y-71219000D02*
X92585000Y-71219000D01*
X72485000Y-71259000D02*
X92615000Y-71259000D01*
X72455000Y-71299000D02*
X92645000Y-71299000D01*
X72425000Y-71339000D02*
X92675000Y-71339000D01*
X72396000Y-71379000D02*
X92704000Y-71379000D01*
X72367000Y-71419000D02*
X92733000Y-71419000D01*
X72338000Y-71459000D02*
X92762000Y-71459000D01*
X72309000Y-71499000D02*
X92791000Y-71499000D01*
X72281000Y-71539000D02*
X92819000Y-71539000D01*
X72253000Y-71579000D02*
X92847000Y-71579000D01*
X84790000Y-71619000D02*
X92875000Y-71619000D01*
X72225000Y-71619000D02*
X80310000Y-71619000D01*
X84790000Y-71659000D02*
X92903000Y-71659000D01*
X72197000Y-71659000D02*
X80310000Y-71659000D01*
X84790000Y-71699000D02*
X92930000Y-71699000D01*
X72170000Y-71699000D02*
X80310000Y-71699000D01*
X84790000Y-71739000D02*
X92957000Y-71739000D01*
X72143000Y-71739000D02*
X80310000Y-71739000D01*
X84790000Y-71779000D02*
X92984000Y-71779000D01*
X72116000Y-71779000D02*
X80310000Y-71779000D01*
X84790000Y-71819000D02*
X93011000Y-71819000D01*
X72089000Y-71819000D02*
X80310000Y-71819000D01*
X84790000Y-71859000D02*
X93038000Y-71859000D01*
X72062000Y-71859000D02*
X80310000Y-71859000D01*
X84790000Y-71899000D02*
X93064000Y-71899000D01*
X72036000Y-71899000D02*
X80310000Y-71899000D01*
X84790000Y-71939000D02*
X93090000Y-71939000D01*
X72010000Y-71939000D02*
X80310000Y-71939000D01*
X84790000Y-71979000D02*
X93116000Y-71979000D01*
X71984000Y-71979000D02*
X80310000Y-71979000D01*
X84790000Y-72019000D02*
X93142000Y-72019000D01*
X71958000Y-72019000D02*
X80310000Y-72019000D01*
X84790000Y-72059000D02*
X93167000Y-72059000D01*
X71933000Y-72059000D02*
X80310000Y-72059000D01*
X84790000Y-72099000D02*
X93193000Y-72099000D01*
X71907000Y-72099000D02*
X80310000Y-72099000D01*
X84790000Y-72139000D02*
X93218000Y-72139000D01*
X71882000Y-72139000D02*
X80310000Y-72139000D01*
X84790000Y-72179000D02*
X93242000Y-72179000D01*
X71858000Y-72179000D02*
X80310000Y-72179000D01*
X84790000Y-72219000D02*
X93267000Y-72219000D01*
X71833000Y-72219000D02*
X80310000Y-72219000D01*
X84790000Y-72259000D02*
X93292000Y-72259000D01*
X71808000Y-72259000D02*
X80310000Y-72259000D01*
X84790000Y-72299000D02*
X93316000Y-72299000D01*
X71784000Y-72299000D02*
X80310000Y-72299000D01*
X84790000Y-72339000D02*
X93340000Y-72339000D01*
X71760000Y-72339000D02*
X80310000Y-72339000D01*
X84790000Y-72379000D02*
X93364000Y-72379000D01*
X71736000Y-72379000D02*
X80310000Y-72379000D01*
X84790000Y-72419000D02*
X93387000Y-72419000D01*
X71713000Y-72419000D02*
X80310000Y-72419000D01*
X84790000Y-72459000D02*
X93411000Y-72459000D01*
X71689000Y-72459000D02*
X80310000Y-72459000D01*
X84790000Y-72499000D02*
X93434000Y-72499000D01*
X71666000Y-72499000D02*
X80310000Y-72499000D01*
X84790000Y-72539000D02*
X93457000Y-72539000D01*
X71643000Y-72539000D02*
X80310000Y-72539000D01*
X84790000Y-72579000D02*
X93480000Y-72579000D01*
X71620000Y-72579000D02*
X80310000Y-72579000D01*
X84790000Y-72619000D02*
X93503000Y-72619000D01*
X71597000Y-72619000D02*
X80310000Y-72619000D01*
X84790000Y-72659000D02*
X93525000Y-72659000D01*
X71575000Y-72659000D02*
X80310000Y-72659000D01*
X84790000Y-72699000D02*
X93547000Y-72699000D01*
X71553000Y-72699000D02*
X80310000Y-72699000D01*
X84790000Y-72739000D02*
X93569000Y-72739000D01*
X71531000Y-72739000D02*
X80310000Y-72739000D01*
X84790000Y-72779000D02*
X93591000Y-72779000D01*
X71509000Y-72779000D02*
X80310000Y-72779000D01*
X84790000Y-72819000D02*
X93613000Y-72819000D01*
X71487000Y-72819000D02*
X80310000Y-72819000D01*
X84790000Y-72859000D02*
X93634000Y-72859000D01*
X71466000Y-72859000D02*
X80310000Y-72859000D01*
X84790000Y-72899000D02*
X93656000Y-72899000D01*
X71444000Y-72899000D02*
X80310000Y-72899000D01*
X84790000Y-72939000D02*
X93677000Y-72939000D01*
X71423000Y-72939000D02*
X80310000Y-72939000D01*
X84790000Y-72979000D02*
X93698000Y-72979000D01*
X71402000Y-72979000D02*
X80310000Y-72979000D01*
X84790000Y-73019000D02*
X93719000Y-73019000D01*
X71381000Y-73019000D02*
X80310000Y-73019000D01*
X84790000Y-73059000D02*
X93739000Y-73059000D01*
X71361000Y-73059000D02*
X80310000Y-73059000D01*
X84790000Y-73099000D02*
X93760000Y-73099000D01*
X71340000Y-73099000D02*
X80310000Y-73099000D01*
X84790000Y-73139000D02*
X93780000Y-73139000D01*
X71320000Y-73139000D02*
X80310000Y-73139000D01*
X84790000Y-73179000D02*
X93800000Y-73179000D01*
X71300000Y-73179000D02*
X80310000Y-73179000D01*
X84790000Y-73219000D02*
X93820000Y-73219000D01*
X71280000Y-73219000D02*
X80310000Y-73219000D01*
X84790000Y-73259000D02*
X93840000Y-73259000D01*
X71260000Y-73259000D02*
X80310000Y-73259000D01*
X84790000Y-73299000D02*
X93859000Y-73299000D01*
X71241000Y-73299000D02*
X80310000Y-73299000D01*
X84790000Y-73339000D02*
X93879000Y-73339000D01*
X71221000Y-73339000D02*
X80310000Y-73339000D01*
X84790000Y-73379000D02*
X93898000Y-73379000D01*
X71202000Y-73379000D02*
X80310000Y-73379000D01*
X84790000Y-73419000D02*
X93917000Y-73419000D01*
X71183000Y-73419000D02*
X80310000Y-73419000D01*
X84790000Y-73459000D02*
X93936000Y-73459000D01*
X71164000Y-73459000D02*
X80310000Y-73459000D01*
X84790000Y-73499000D02*
X93954000Y-73499000D01*
X71146000Y-73499000D02*
X80310000Y-73499000D01*
X84790000Y-73539000D02*
X93973000Y-73539000D01*
X71127000Y-73539000D02*
X80310000Y-73539000D01*
X84790000Y-73579000D02*
X93991000Y-73579000D01*
X71109000Y-73579000D02*
X80310000Y-73579000D01*
X84790000Y-73619000D02*
X94009000Y-73619000D01*
X71091000Y-73619000D02*
X80310000Y-73619000D01*
X84790000Y-73659000D02*
X94027000Y-73659000D01*
X71073000Y-73659000D02*
X80310000Y-73659000D01*
X84790000Y-73699000D02*
X94045000Y-73699000D01*
X71055000Y-73699000D02*
X80310000Y-73699000D01*
X84790000Y-73739000D02*
X94063000Y-73739000D01*
X71037000Y-73739000D02*
X80310000Y-73739000D01*
X84790000Y-73779000D02*
X94080000Y-73779000D01*
X71020000Y-73779000D02*
X80310000Y-73779000D01*
X84790000Y-73819000D02*
X94098000Y-73819000D01*
X71002000Y-73819000D02*
X80310000Y-73819000D01*
X84790000Y-73859000D02*
X94115000Y-73859000D01*
X70985000Y-73859000D02*
X80310000Y-73859000D01*
X84790000Y-73899000D02*
X94132000Y-73899000D01*
X70968000Y-73899000D02*
X80310000Y-73899000D01*
X84790000Y-73939000D02*
X94149000Y-73939000D01*
X70951000Y-73939000D02*
X80310000Y-73939000D01*
X84790000Y-73979000D02*
X94165000Y-73979000D01*
X70935000Y-73979000D02*
X80310000Y-73979000D01*
X84790000Y-74019000D02*
X94182000Y-74019000D01*
X70918000Y-74019000D02*
X80310000Y-74019000D01*
X84790000Y-74059000D02*
X94198000Y-74059000D01*
X70902000Y-74059000D02*
X80310000Y-74059000D01*
X84790000Y-74099000D02*
X94215000Y-74099000D01*
X70885000Y-74099000D02*
X80310000Y-74099000D01*
X84790000Y-74139000D02*
X94231000Y-74139000D01*
X70869000Y-74139000D02*
X80310000Y-74139000D01*
X84790000Y-74179000D02*
X94247000Y-74179000D01*
X70853000Y-74179000D02*
X80310000Y-74179000D01*
X84790000Y-74219000D02*
X94262000Y-74219000D01*
X70838000Y-74219000D02*
X80310000Y-74219000D01*
X84790000Y-74259000D02*
X94278000Y-74259000D01*
X70822000Y-74259000D02*
X80310000Y-74259000D01*
X84790000Y-74299000D02*
X94293000Y-74299000D01*
X70807000Y-74299000D02*
X80310000Y-74299000D01*
X84790000Y-74339000D02*
X94309000Y-74339000D01*
X70791000Y-74339000D02*
X80310000Y-74339000D01*
X84790000Y-74379000D02*
X94324000Y-74379000D01*
X70776000Y-74379000D02*
X80310000Y-74379000D01*
X84790000Y-74419000D02*
X94339000Y-74419000D01*
X70761000Y-74419000D02*
X80310000Y-74419000D01*
X84790000Y-74459000D02*
X94353000Y-74459000D01*
X70747000Y-74459000D02*
X80310000Y-74459000D01*
X84790000Y-74499000D02*
X94368000Y-74499000D01*
X70732000Y-74499000D02*
X80310000Y-74499000D01*
X84790000Y-74539000D02*
X94383000Y-74539000D01*
X70717000Y-74539000D02*
X80310000Y-74539000D01*
X84790000Y-74579000D02*
X94397000Y-74579000D01*
X70703000Y-74579000D02*
X80310000Y-74579000D01*
X84790000Y-74619000D02*
X94411000Y-74619000D01*
X70689000Y-74619000D02*
X80310000Y-74619000D01*
X84790000Y-74659000D02*
X94425000Y-74659000D01*
X70675000Y-74659000D02*
X80310000Y-74659000D01*
X84790000Y-74699000D02*
X94439000Y-74699000D01*
X70661000Y-74699000D02*
X80310000Y-74699000D01*
X84790000Y-74739000D02*
X94453000Y-74739000D01*
X70647000Y-74739000D02*
X80310000Y-74739000D01*
X84790000Y-74779000D02*
X94466000Y-74779000D01*
X70634000Y-74779000D02*
X80310000Y-74779000D01*
X84790000Y-74819000D02*
X94480000Y-74819000D01*
X70620000Y-74819000D02*
X80310000Y-74819000D01*
X84790000Y-74859000D02*
X94493000Y-74859000D01*
X70607000Y-74859000D02*
X80310000Y-74859000D01*
X84790000Y-74899000D02*
X94506000Y-74899000D01*
X70594000Y-74899000D02*
X80310000Y-74899000D01*
X84790000Y-74939000D02*
X94519000Y-74939000D01*
X70581000Y-74939000D02*
X80310000Y-74939000D01*
X84790000Y-74979000D02*
X94532000Y-74979000D01*
X70568000Y-74979000D02*
X80310000Y-74979000D01*
X84790000Y-75019000D02*
X94545000Y-75019000D01*
X70555000Y-75019000D02*
X80310000Y-75019000D01*
X84790000Y-75059000D02*
X94557000Y-75059000D01*
X70543000Y-75059000D02*
X80310000Y-75059000D01*
X84790000Y-75099000D02*
X94570000Y-75099000D01*
X70530000Y-75099000D02*
X80310000Y-75099000D01*
X84790000Y-75139000D02*
X94582000Y-75139000D01*
X70518000Y-75139000D02*
X80310000Y-75139000D01*
X84790000Y-75179000D02*
X94594000Y-75179000D01*
X70506000Y-75179000D02*
X80310000Y-75179000D01*
X84790000Y-75219000D02*
X94606000Y-75219000D01*
X70494000Y-75219000D02*
X80310000Y-75219000D01*
X84790000Y-75259000D02*
X94618000Y-75259000D01*
X70482000Y-75259000D02*
X80310000Y-75259000D01*
X84790000Y-75299000D02*
X94630000Y-75299000D01*
X70470000Y-75299000D02*
X80310000Y-75299000D01*
X84790000Y-75339000D02*
X94641000Y-75339000D01*
X70459000Y-75339000D02*
X80310000Y-75339000D01*
X84790000Y-75379000D02*
X94653000Y-75379000D01*
X70447000Y-75379000D02*
X80310000Y-75379000D01*
X84790000Y-75419000D02*
X94664000Y-75419000D01*
X70436000Y-75419000D02*
X80310000Y-75419000D01*
X84790000Y-75459000D02*
X94675000Y-75459000D01*
X70425000Y-75459000D02*
X80310000Y-75459000D01*
X84790000Y-75499000D02*
X94686000Y-75499000D01*
X70414000Y-75499000D02*
X80310000Y-75499000D01*
X84790000Y-75539000D02*
X94697000Y-75539000D01*
X70403000Y-75539000D02*
X80310000Y-75539000D01*
X84790000Y-75579000D02*
X94707000Y-75579000D01*
X70393000Y-75579000D02*
X80310000Y-75579000D01*
X84790000Y-75619000D02*
X94718000Y-75619000D01*
X70382000Y-75619000D02*
X80310000Y-75619000D01*
X84790000Y-75659000D02*
X94728000Y-75659000D01*
X70372000Y-75659000D02*
X80310000Y-75659000D01*
X84790000Y-75699000D02*
X94739000Y-75699000D01*
X70361000Y-75699000D02*
X80310000Y-75699000D01*
X84790000Y-75739000D02*
X94749000Y-75739000D01*
X70351000Y-75739000D02*
X80310000Y-75739000D01*
X84790000Y-75779000D02*
X94759000Y-75779000D01*
X70341000Y-75779000D02*
X80310000Y-75779000D01*
X84790000Y-75819000D02*
X94769000Y-75819000D01*
X70331000Y-75819000D02*
X80310000Y-75819000D01*
X84790000Y-75859000D02*
X94778000Y-75859000D01*
X70322000Y-75859000D02*
X80310000Y-75859000D01*
X84790000Y-75899000D02*
X94788000Y-75899000D01*
X70312000Y-75899000D02*
X80310000Y-75899000D01*
X84790000Y-75939000D02*
X94797000Y-75939000D01*
X70303000Y-75939000D02*
X80310000Y-75939000D01*
X84790000Y-75979000D02*
X94807000Y-75979000D01*
X70293000Y-75979000D02*
X80310000Y-75979000D01*
X84790000Y-76019000D02*
X94816000Y-76019000D01*
X70284000Y-76019000D02*
X80310000Y-76019000D01*
X84790000Y-76059000D02*
X94825000Y-76059000D01*
X70275000Y-76059000D02*
X80310000Y-76059000D01*
X70266000Y-76099000D02*
X94834000Y-76099000D01*
X70257000Y-76139000D02*
X94843000Y-76139000D01*
X70249000Y-76179000D02*
X94851000Y-76179000D01*
X70240000Y-76219000D02*
X94860000Y-76219000D01*
X70232000Y-76259000D02*
X94868000Y-76259000D01*
X70224000Y-76299000D02*
X94876000Y-76299000D01*
X70216000Y-76339000D02*
X94884000Y-76339000D01*
X70208000Y-76379000D02*
X94892000Y-76379000D01*
X70200000Y-76419000D02*
X94900000Y-76419000D01*
X70192000Y-76459000D02*
X94908000Y-76459000D01*
X70185000Y-76499000D02*
X94915000Y-76499000D01*
X70177000Y-76539000D02*
X94923000Y-76539000D01*
X70170000Y-76579000D02*
X94930000Y-76579000D01*
X70163000Y-76619000D02*
X94937000Y-76619000D01*
X70156000Y-76659000D02*
X94944000Y-76659000D01*
X70149000Y-76699000D02*
X94951000Y-76699000D01*
X70142000Y-76739000D02*
X94958000Y-76739000D01*
X70135000Y-76779000D02*
X94965000Y-76779000D01*
X70129000Y-76819000D02*
X94971000Y-76819000D01*
X70123000Y-76859000D02*
X94977000Y-76859000D01*
X70116000Y-76899000D02*
X94984000Y-76899000D01*
X70110000Y-76939000D02*
X94990000Y-76939000D01*
X70104000Y-76979000D02*
X94996000Y-76979000D01*
X70099000Y-77019000D02*
X95001000Y-77019000D01*
X70093000Y-77059000D02*
X95007000Y-77059000D01*
X70087000Y-77099000D02*
X95013000Y-77099000D01*
X70082000Y-77139000D02*
X95018000Y-77139000D01*
X70077000Y-77179000D02*
X95023000Y-77179000D01*
X70071000Y-77219000D02*
X95029000Y-77219000D01*
X70066000Y-77259000D02*
X95034000Y-77259000D01*
X70061000Y-77299000D02*
X95039000Y-77299000D01*
X70057000Y-77339000D02*
X95043000Y-77339000D01*
X70052000Y-77379000D02*
X95048000Y-77379000D01*
X70047000Y-77419000D02*
X95053000Y-77419000D01*
X70043000Y-77459000D02*
X95057000Y-77459000D01*
X70039000Y-77499000D02*
X95061000Y-77499000D01*
X70035000Y-77539000D02*
X95065000Y-77539000D01*
X70031000Y-77579000D02*
X95069000Y-77579000D01*
X70027000Y-77619000D02*
X95073000Y-77619000D01*
X70023000Y-77659000D02*
X95077000Y-77659000D01*
X70019000Y-77699000D02*
X95081000Y-77699000D01*
X70016000Y-77739000D02*
X95084000Y-77739000D01*
X70012000Y-77779000D02*
X95088000Y-77779000D01*
X70009000Y-77819000D02*
X95091000Y-77819000D01*
X70006000Y-77859000D02*
X95094000Y-77859000D01*
X70003000Y-77899000D02*
X95097000Y-77899000D01*
X70000000Y-77939000D02*
X95100000Y-77939000D01*
X69997000Y-77979000D02*
X95103000Y-77979000D01*
X69995000Y-78019000D02*
X95105000Y-78019000D01*
X69992000Y-78059000D02*
X95108000Y-78059000D01*
X69990000Y-78099000D02*
X95110000Y-78099000D01*
X69988000Y-78140000D02*
X95112000Y-78140000D01*
X69986000Y-78180000D02*
X95114000Y-78180000D01*
X69984000Y-78220000D02*
X95116000Y-78220000D01*
X69982000Y-78260000D02*
X95118000Y-78260000D01*
X69980000Y-78300000D02*
X95120000Y-78300000D01*
X69979000Y-78340000D02*
X95121000Y-78340000D01*
X69977000Y-78380000D02*
X95123000Y-78380000D01*
X69976000Y-78420000D02*
X95124000Y-78420000D01*
X69975000Y-78460000D02*
X95125000Y-78460000D01*
X69974000Y-78500000D02*
X95126000Y-78500000D01*
X69973000Y-78540000D02*
X95127000Y-78540000D01*
X69972000Y-78580000D02*
X95128000Y-78580000D01*
X69971000Y-78620000D02*
X95129000Y-78620000D01*
X69971000Y-78660000D02*
X95129000Y-78660000D01*
X69970000Y-78700000D02*
X95130000Y-78700000D01*
X69970000Y-78740000D02*
X95130000Y-78740000D01*
X69970000Y-78780000D02*
X95130000Y-78780000D01*
X69969000Y-78820000D02*
X95131000Y-78820000D01*
X95170000Y-78820000D02*
G75*
G03*
X95170000Y-78820000I-12620000J0D01*
G01*
X102165000Y-91074259D02*
X104665000Y-91074259D01*
X103415000Y-92324259D02*
X103415000Y-89824259D01*
X109819000Y-66220000D02*
X111161000Y-66220000D01*
X109300000Y-66260000D02*
X111680000Y-66260000D01*
X108944000Y-66300000D02*
X112036000Y-66300000D01*
X108655000Y-66340000D02*
X112325000Y-66340000D01*
X108406000Y-66380000D02*
X112574000Y-66380000D01*
X108183000Y-66420000D02*
X112797000Y-66420000D01*
X107981000Y-66460000D02*
X112999000Y-66460000D01*
X107794000Y-66500000D02*
X113186000Y-66500000D01*
X107620000Y-66540000D02*
X113360000Y-66540000D01*
X107456000Y-66580000D02*
X113524000Y-66580000D01*
X107301000Y-66620000D02*
X113679000Y-66620000D01*
X107153000Y-66660000D02*
X113827000Y-66660000D01*
X107012000Y-66700000D02*
X113968000Y-66700000D01*
X106877000Y-66740000D02*
X114103000Y-66740000D01*
X106748000Y-66780000D02*
X114232000Y-66780000D01*
X106623000Y-66820000D02*
X114357000Y-66820000D01*
X106502000Y-66860000D02*
X114478000Y-66860000D01*
X106385000Y-66900000D02*
X114595000Y-66900000D01*
X106272000Y-66940000D02*
X114708000Y-66940000D01*
X106162000Y-66980000D02*
X114818000Y-66980000D01*
X106055000Y-67020000D02*
X114925000Y-67020000D01*
X105951000Y-67060000D02*
X115029000Y-67060000D01*
X105849000Y-67100000D02*
X115131000Y-67100000D01*
X105750000Y-67140000D02*
X115230000Y-67140000D01*
X105654000Y-67180000D02*
X115326000Y-67180000D01*
X105559000Y-67220000D02*
X115421000Y-67220000D01*
X105467000Y-67260000D02*
X115513000Y-67260000D01*
X105376000Y-67300000D02*
X115604000Y-67300000D01*
X105288000Y-67340000D02*
X115692000Y-67340000D01*
X105201000Y-67380000D02*
X115779000Y-67380000D01*
X105116000Y-67420000D02*
X115864000Y-67420000D01*
X105033000Y-67460000D02*
X115947000Y-67460000D01*
X104951000Y-67500000D02*
X116029000Y-67500000D01*
X104870000Y-67540000D02*
X116110000Y-67540000D01*
X104791000Y-67580000D02*
X116189000Y-67580000D01*
X104714000Y-67620000D02*
X116266000Y-67620000D01*
X104637000Y-67660000D02*
X116343000Y-67660000D01*
X104562000Y-67700000D02*
X116418000Y-67700000D01*
X104488000Y-67740000D02*
X116492000Y-67740000D01*
X104415000Y-67780000D02*
X116565000Y-67780000D01*
X104344000Y-67820000D02*
X116636000Y-67820000D01*
X104273000Y-67860000D02*
X116707000Y-67860000D01*
X104204000Y-67900000D02*
X116776000Y-67900000D01*
X104135000Y-67940000D02*
X116845000Y-67940000D01*
X104067000Y-67980000D02*
X116913000Y-67980000D01*
X104001000Y-68020000D02*
X116979000Y-68020000D01*
X103935000Y-68060000D02*
X117045000Y-68060000D01*
X103870000Y-68100000D02*
X117110000Y-68100000D01*
X103806000Y-68140000D02*
X117174000Y-68140000D01*
X103743000Y-68180000D02*
X117237000Y-68180000D01*
X103681000Y-68220000D02*
X117299000Y-68220000D01*
X103619000Y-68260000D02*
X117361000Y-68260000D01*
X103559000Y-68300000D02*
X117421000Y-68300000D01*
X103499000Y-68340000D02*
X117481000Y-68340000D01*
X103439000Y-68380000D02*
X117541000Y-68380000D01*
X103381000Y-68420000D02*
X117599000Y-68420000D01*
X103323000Y-68460000D02*
X117657000Y-68460000D01*
X103266000Y-68500000D02*
X117714000Y-68500000D01*
X103209000Y-68540000D02*
X117771000Y-68540000D01*
X103153000Y-68580000D02*
X117827000Y-68580000D01*
X103098000Y-68620000D02*
X117882000Y-68620000D01*
X103044000Y-68660000D02*
X117936000Y-68660000D01*
X102990000Y-68700000D02*
X117990000Y-68700000D01*
X102936000Y-68740000D02*
X118044000Y-68740000D01*
X102883000Y-68780000D02*
X118097000Y-68780000D01*
X102831000Y-68820000D02*
X118149000Y-68820000D01*
X102779000Y-68860000D02*
X118201000Y-68860000D01*
X102728000Y-68900000D02*
X118252000Y-68900000D01*
X102678000Y-68940000D02*
X118302000Y-68940000D01*
X102628000Y-68980000D02*
X118352000Y-68980000D01*
X102578000Y-69020000D02*
X118402000Y-69020000D01*
X102529000Y-69060000D02*
X118451000Y-69060000D01*
X102481000Y-69100000D02*
X118499000Y-69100000D01*
X102432000Y-69140000D02*
X118548000Y-69140000D01*
X102385000Y-69180000D02*
X118595000Y-69180000D01*
X102338000Y-69220000D02*
X118642000Y-69220000D01*
X102291000Y-69260000D02*
X118689000Y-69260000D01*
X102245000Y-69300000D02*
X118735000Y-69300000D01*
X102199000Y-69340000D02*
X118781000Y-69340000D01*
X102154000Y-69380000D02*
X118826000Y-69380000D01*
X102109000Y-69420000D02*
X118871000Y-69420000D01*
X102065000Y-69460000D02*
X118915000Y-69460000D01*
X102021000Y-69500000D02*
X118959000Y-69500000D01*
X101977000Y-69540000D02*
X119003000Y-69540000D01*
X101934000Y-69580000D02*
X119046000Y-69580000D01*
X101891000Y-69620000D02*
X119089000Y-69620000D01*
X101849000Y-69660000D02*
X119131000Y-69660000D01*
X101807000Y-69700000D02*
X119173000Y-69700000D01*
X101765000Y-69740000D02*
X119215000Y-69740000D01*
X101724000Y-69780000D02*
X119256000Y-69780000D01*
X101683000Y-69820000D02*
X119297000Y-69820000D01*
X101642000Y-69860000D02*
X119338000Y-69860000D01*
X101602000Y-69900000D02*
X119378000Y-69900000D01*
X101562000Y-69940000D02*
X119418000Y-69940000D01*
X101523000Y-69980000D02*
X119457000Y-69980000D01*
X101484000Y-70020000D02*
X119496000Y-70020000D01*
X101445000Y-70060000D02*
X119535000Y-70060000D01*
X101407000Y-70100000D02*
X119573000Y-70100000D01*
X101369000Y-70140000D02*
X119611000Y-70140000D01*
X101331000Y-70180000D02*
X119649000Y-70180000D01*
X101293000Y-70220000D02*
X119687000Y-70220000D01*
X101256000Y-70260000D02*
X119724000Y-70260000D01*
X101220000Y-70300000D02*
X119760000Y-70300000D01*
X101183000Y-70340000D02*
X119797000Y-70340000D01*
X101147000Y-70380000D02*
X119833000Y-70380000D01*
X101111000Y-70420000D02*
X119869000Y-70420000D01*
X101076000Y-70460000D02*
X119904000Y-70460000D01*
X101040000Y-70500000D02*
X119940000Y-70500000D01*
X101006000Y-70540000D02*
X119974000Y-70540000D01*
X100971000Y-70580000D02*
X120009000Y-70580000D01*
X100937000Y-70620000D02*
X120043000Y-70620000D01*
X100903000Y-70659000D02*
X120077000Y-70659000D01*
X100869000Y-70699000D02*
X120111000Y-70699000D01*
X100835000Y-70739000D02*
X120145000Y-70739000D01*
X100802000Y-70779000D02*
X120178000Y-70779000D01*
X100769000Y-70819000D02*
X120211000Y-70819000D01*
X100737000Y-70859000D02*
X120243000Y-70859000D01*
X100704000Y-70899000D02*
X120276000Y-70899000D01*
X100672000Y-70939000D02*
X120308000Y-70939000D01*
X100640000Y-70979000D02*
X120340000Y-70979000D01*
X100609000Y-71019000D02*
X120371000Y-71019000D01*
X100577000Y-71059000D02*
X120403000Y-71059000D01*
X100546000Y-71099000D02*
X120434000Y-71099000D01*
X100515000Y-71139000D02*
X120465000Y-71139000D01*
X100485000Y-71179000D02*
X120495000Y-71179000D01*
X100455000Y-71219000D02*
X120525000Y-71219000D01*
X100425000Y-71259000D02*
X120555000Y-71259000D01*
X100395000Y-71299000D02*
X120585000Y-71299000D01*
X100365000Y-71339000D02*
X120615000Y-71339000D01*
X100336000Y-71379000D02*
X120644000Y-71379000D01*
X100307000Y-71419000D02*
X120673000Y-71419000D01*
X100278000Y-71459000D02*
X120702000Y-71459000D01*
X100249000Y-71499000D02*
X120731000Y-71499000D01*
X100221000Y-71539000D02*
X120759000Y-71539000D01*
X100193000Y-71579000D02*
X120787000Y-71579000D01*
X112730000Y-71619000D02*
X120815000Y-71619000D01*
X100165000Y-71619000D02*
X108250000Y-71619000D01*
X112730000Y-71659000D02*
X120843000Y-71659000D01*
X100137000Y-71659000D02*
X108250000Y-71659000D01*
X112730000Y-71699000D02*
X120870000Y-71699000D01*
X100110000Y-71699000D02*
X108250000Y-71699000D01*
X112730000Y-71739000D02*
X120897000Y-71739000D01*
X100083000Y-71739000D02*
X108250000Y-71739000D01*
X112730000Y-71779000D02*
X120924000Y-71779000D01*
X100056000Y-71779000D02*
X108250000Y-71779000D01*
X112730000Y-71819000D02*
X120951000Y-71819000D01*
X100029000Y-71819000D02*
X108250000Y-71819000D01*
X112730000Y-71859000D02*
X120978000Y-71859000D01*
X100002000Y-71859000D02*
X108250000Y-71859000D01*
X112730000Y-71899000D02*
X121004000Y-71899000D01*
X99976000Y-71899000D02*
X108250000Y-71899000D01*
X112730000Y-71939000D02*
X121030000Y-71939000D01*
X99950000Y-71939000D02*
X108250000Y-71939000D01*
X112730000Y-71979000D02*
X121056000Y-71979000D01*
X99924000Y-71979000D02*
X108250000Y-71979000D01*
X112730000Y-72019000D02*
X121082000Y-72019000D01*
X99898000Y-72019000D02*
X108250000Y-72019000D01*
X112730000Y-72059000D02*
X121107000Y-72059000D01*
X99873000Y-72059000D02*
X108250000Y-72059000D01*
X112730000Y-72099000D02*
X121133000Y-72099000D01*
X99847000Y-72099000D02*
X108250000Y-72099000D01*
X112730000Y-72139000D02*
X121158000Y-72139000D01*
X99822000Y-72139000D02*
X108250000Y-72139000D01*
X112730000Y-72179000D02*
X121182000Y-72179000D01*
X99798000Y-72179000D02*
X108250000Y-72179000D01*
X112730000Y-72219000D02*
X121207000Y-72219000D01*
X99773000Y-72219000D02*
X108250000Y-72219000D01*
X112730000Y-72259000D02*
X121232000Y-72259000D01*
X99748000Y-72259000D02*
X108250000Y-72259000D01*
X112730000Y-72299000D02*
X121256000Y-72299000D01*
X99724000Y-72299000D02*
X108250000Y-72299000D01*
X112730000Y-72339000D02*
X121280000Y-72339000D01*
X99700000Y-72339000D02*
X108250000Y-72339000D01*
X112730000Y-72379000D02*
X121304000Y-72379000D01*
X99676000Y-72379000D02*
X108250000Y-72379000D01*
X112730000Y-72419000D02*
X121327000Y-72419000D01*
X99653000Y-72419000D02*
X108250000Y-72419000D01*
X112730000Y-72459000D02*
X121351000Y-72459000D01*
X99629000Y-72459000D02*
X108250000Y-72459000D01*
X112730000Y-72499000D02*
X121374000Y-72499000D01*
X99606000Y-72499000D02*
X108250000Y-72499000D01*
X112730000Y-72539000D02*
X121397000Y-72539000D01*
X99583000Y-72539000D02*
X108250000Y-72539000D01*
X112730000Y-72579000D02*
X121420000Y-72579000D01*
X99560000Y-72579000D02*
X108250000Y-72579000D01*
X112730000Y-72619000D02*
X121443000Y-72619000D01*
X99537000Y-72619000D02*
X108250000Y-72619000D01*
X112730000Y-72659000D02*
X121465000Y-72659000D01*
X99515000Y-72659000D02*
X108250000Y-72659000D01*
X112730000Y-72699000D02*
X121487000Y-72699000D01*
X99493000Y-72699000D02*
X108250000Y-72699000D01*
X112730000Y-72739000D02*
X121509000Y-72739000D01*
X99471000Y-72739000D02*
X108250000Y-72739000D01*
X112730000Y-72779000D02*
X121531000Y-72779000D01*
X99449000Y-72779000D02*
X108250000Y-72779000D01*
X112730000Y-72819000D02*
X121553000Y-72819000D01*
X99427000Y-72819000D02*
X108250000Y-72819000D01*
X112730000Y-72859000D02*
X121574000Y-72859000D01*
X99406000Y-72859000D02*
X108250000Y-72859000D01*
X112730000Y-72899000D02*
X121596000Y-72899000D01*
X99384000Y-72899000D02*
X108250000Y-72899000D01*
X112730000Y-72939000D02*
X121617000Y-72939000D01*
X99363000Y-72939000D02*
X108250000Y-72939000D01*
X112730000Y-72979000D02*
X121638000Y-72979000D01*
X99342000Y-72979000D02*
X108250000Y-72979000D01*
X112730000Y-73019000D02*
X121659000Y-73019000D01*
X99321000Y-73019000D02*
X108250000Y-73019000D01*
X112730000Y-73059000D02*
X121679000Y-73059000D01*
X99301000Y-73059000D02*
X108250000Y-73059000D01*
X112730000Y-73099000D02*
X121700000Y-73099000D01*
X99280000Y-73099000D02*
X108250000Y-73099000D01*
X112730000Y-73139000D02*
X121720000Y-73139000D01*
X99260000Y-73139000D02*
X108250000Y-73139000D01*
X112730000Y-73179000D02*
X121740000Y-73179000D01*
X99240000Y-73179000D02*
X108250000Y-73179000D01*
X112730000Y-73219000D02*
X121760000Y-73219000D01*
X99220000Y-73219000D02*
X108250000Y-73219000D01*
X112730000Y-73259000D02*
X121780000Y-73259000D01*
X99200000Y-73259000D02*
X108250000Y-73259000D01*
X112730000Y-73299000D02*
X121799000Y-73299000D01*
X99181000Y-73299000D02*
X108250000Y-73299000D01*
X112730000Y-73339000D02*
X121819000Y-73339000D01*
X99161000Y-73339000D02*
X108250000Y-73339000D01*
X112730000Y-73379000D02*
X121838000Y-73379000D01*
X99142000Y-73379000D02*
X108250000Y-73379000D01*
X112730000Y-73419000D02*
X121857000Y-73419000D01*
X99123000Y-73419000D02*
X108250000Y-73419000D01*
X112730000Y-73459000D02*
X121876000Y-73459000D01*
X99104000Y-73459000D02*
X108250000Y-73459000D01*
X112730000Y-73499000D02*
X121894000Y-73499000D01*
X99086000Y-73499000D02*
X108250000Y-73499000D01*
X112730000Y-73539000D02*
X121913000Y-73539000D01*
X99067000Y-73539000D02*
X108250000Y-73539000D01*
X112730000Y-73579000D02*
X121931000Y-73579000D01*
X99049000Y-73579000D02*
X108250000Y-73579000D01*
X112730000Y-73619000D02*
X121949000Y-73619000D01*
X99031000Y-73619000D02*
X108250000Y-73619000D01*
X112730000Y-73659000D02*
X121967000Y-73659000D01*
X99013000Y-73659000D02*
X108250000Y-73659000D01*
X112730000Y-73699000D02*
X121985000Y-73699000D01*
X98995000Y-73699000D02*
X108250000Y-73699000D01*
X112730000Y-73739000D02*
X122003000Y-73739000D01*
X98977000Y-73739000D02*
X108250000Y-73739000D01*
X112730000Y-73779000D02*
X122020000Y-73779000D01*
X98960000Y-73779000D02*
X108250000Y-73779000D01*
X112730000Y-73819000D02*
X122038000Y-73819000D01*
X98942000Y-73819000D02*
X108250000Y-73819000D01*
X112730000Y-73859000D02*
X122055000Y-73859000D01*
X98925000Y-73859000D02*
X108250000Y-73859000D01*
X112730000Y-73899000D02*
X122072000Y-73899000D01*
X98908000Y-73899000D02*
X108250000Y-73899000D01*
X112730000Y-73939000D02*
X122089000Y-73939000D01*
X98891000Y-73939000D02*
X108250000Y-73939000D01*
X112730000Y-73979000D02*
X122105000Y-73979000D01*
X98875000Y-73979000D02*
X108250000Y-73979000D01*
X112730000Y-74019000D02*
X122122000Y-74019000D01*
X98858000Y-74019000D02*
X108250000Y-74019000D01*
X112730000Y-74059000D02*
X122138000Y-74059000D01*
X98842000Y-74059000D02*
X108250000Y-74059000D01*
X112730000Y-74099000D02*
X122155000Y-74099000D01*
X98825000Y-74099000D02*
X108250000Y-74099000D01*
X112730000Y-74139000D02*
X122171000Y-74139000D01*
X98809000Y-74139000D02*
X108250000Y-74139000D01*
X112730000Y-74179000D02*
X122187000Y-74179000D01*
X98793000Y-74179000D02*
X108250000Y-74179000D01*
X112730000Y-74219000D02*
X122202000Y-74219000D01*
X98778000Y-74219000D02*
X108250000Y-74219000D01*
X112730000Y-74259000D02*
X122218000Y-74259000D01*
X98762000Y-74259000D02*
X108250000Y-74259000D01*
X112730000Y-74299000D02*
X122233000Y-74299000D01*
X98747000Y-74299000D02*
X108250000Y-74299000D01*
X112730000Y-74339000D02*
X122249000Y-74339000D01*
X98731000Y-74339000D02*
X108250000Y-74339000D01*
X112730000Y-74379000D02*
X122264000Y-74379000D01*
X98716000Y-74379000D02*
X108250000Y-74379000D01*
X112730000Y-74419000D02*
X122279000Y-74419000D01*
X98701000Y-74419000D02*
X108250000Y-74419000D01*
X112730000Y-74459000D02*
X122293000Y-74459000D01*
X98687000Y-74459000D02*
X108250000Y-74459000D01*
X112730000Y-74499000D02*
X122308000Y-74499000D01*
X98672000Y-74499000D02*
X108250000Y-74499000D01*
X112730000Y-74539000D02*
X122323000Y-74539000D01*
X98657000Y-74539000D02*
X108250000Y-74539000D01*
X112730000Y-74579000D02*
X122337000Y-74579000D01*
X98643000Y-74579000D02*
X108250000Y-74579000D01*
X112730000Y-74619000D02*
X122351000Y-74619000D01*
X98629000Y-74619000D02*
X108250000Y-74619000D01*
X112730000Y-74659000D02*
X122365000Y-74659000D01*
X98615000Y-74659000D02*
X108250000Y-74659000D01*
X112730000Y-74699000D02*
X122379000Y-74699000D01*
X98601000Y-74699000D02*
X108250000Y-74699000D01*
X112730000Y-74739000D02*
X122393000Y-74739000D01*
X98587000Y-74739000D02*
X108250000Y-74739000D01*
X112730000Y-74779000D02*
X122406000Y-74779000D01*
X98574000Y-74779000D02*
X108250000Y-74779000D01*
X112730000Y-74819000D02*
X122420000Y-74819000D01*
X98560000Y-74819000D02*
X108250000Y-74819000D01*
X112730000Y-74859000D02*
X122433000Y-74859000D01*
X98547000Y-74859000D02*
X108250000Y-74859000D01*
X112730000Y-74899000D02*
X122446000Y-74899000D01*
X98534000Y-74899000D02*
X108250000Y-74899000D01*
X112730000Y-74939000D02*
X122459000Y-74939000D01*
X98521000Y-74939000D02*
X108250000Y-74939000D01*
X112730000Y-74979000D02*
X122472000Y-74979000D01*
X98508000Y-74979000D02*
X108250000Y-74979000D01*
X112730000Y-75019000D02*
X122485000Y-75019000D01*
X98495000Y-75019000D02*
X108250000Y-75019000D01*
X112730000Y-75059000D02*
X122497000Y-75059000D01*
X98483000Y-75059000D02*
X108250000Y-75059000D01*
X112730000Y-75099000D02*
X122510000Y-75099000D01*
X98470000Y-75099000D02*
X108250000Y-75099000D01*
X112730000Y-75139000D02*
X122522000Y-75139000D01*
X98458000Y-75139000D02*
X108250000Y-75139000D01*
X112730000Y-75179000D02*
X122534000Y-75179000D01*
X98446000Y-75179000D02*
X108250000Y-75179000D01*
X112730000Y-75219000D02*
X122546000Y-75219000D01*
X98434000Y-75219000D02*
X108250000Y-75219000D01*
X112730000Y-75259000D02*
X122558000Y-75259000D01*
X98422000Y-75259000D02*
X108250000Y-75259000D01*
X112730000Y-75299000D02*
X122570000Y-75299000D01*
X98410000Y-75299000D02*
X108250000Y-75299000D01*
X112730000Y-75339000D02*
X122581000Y-75339000D01*
X98399000Y-75339000D02*
X108250000Y-75339000D01*
X112730000Y-75379000D02*
X122593000Y-75379000D01*
X98387000Y-75379000D02*
X108250000Y-75379000D01*
X112730000Y-75419000D02*
X122604000Y-75419000D01*
X98376000Y-75419000D02*
X108250000Y-75419000D01*
X112730000Y-75459000D02*
X122615000Y-75459000D01*
X98365000Y-75459000D02*
X108250000Y-75459000D01*
X112730000Y-75499000D02*
X122626000Y-75499000D01*
X98354000Y-75499000D02*
X108250000Y-75499000D01*
X112730000Y-75539000D02*
X122637000Y-75539000D01*
X98343000Y-75539000D02*
X108250000Y-75539000D01*
X112730000Y-75579000D02*
X122647000Y-75579000D01*
X98333000Y-75579000D02*
X108250000Y-75579000D01*
X112730000Y-75619000D02*
X122658000Y-75619000D01*
X98322000Y-75619000D02*
X108250000Y-75619000D01*
X112730000Y-75659000D02*
X122668000Y-75659000D01*
X98312000Y-75659000D02*
X108250000Y-75659000D01*
X112730000Y-75699000D02*
X122679000Y-75699000D01*
X98301000Y-75699000D02*
X108250000Y-75699000D01*
X112730000Y-75739000D02*
X122689000Y-75739000D01*
X98291000Y-75739000D02*
X108250000Y-75739000D01*
X112730000Y-75779000D02*
X122699000Y-75779000D01*
X98281000Y-75779000D02*
X108250000Y-75779000D01*
X112730000Y-75819000D02*
X122709000Y-75819000D01*
X98271000Y-75819000D02*
X108250000Y-75819000D01*
X112730000Y-75859000D02*
X122718000Y-75859000D01*
X98262000Y-75859000D02*
X108250000Y-75859000D01*
X112730000Y-75899000D02*
X122728000Y-75899000D01*
X98252000Y-75899000D02*
X108250000Y-75899000D01*
X112730000Y-75939000D02*
X122737000Y-75939000D01*
X98243000Y-75939000D02*
X108250000Y-75939000D01*
X112730000Y-75979000D02*
X122747000Y-75979000D01*
X98233000Y-75979000D02*
X108250000Y-75979000D01*
X112730000Y-76019000D02*
X122756000Y-76019000D01*
X98224000Y-76019000D02*
X108250000Y-76019000D01*
X112730000Y-76059000D02*
X122765000Y-76059000D01*
X98215000Y-76059000D02*
X108250000Y-76059000D01*
X98206000Y-76099000D02*
X122774000Y-76099000D01*
X98197000Y-76139000D02*
X122783000Y-76139000D01*
X98189000Y-76179000D02*
X122791000Y-76179000D01*
X98180000Y-76219000D02*
X122800000Y-76219000D01*
X98172000Y-76259000D02*
X122808000Y-76259000D01*
X98164000Y-76299000D02*
X122816000Y-76299000D01*
X98156000Y-76339000D02*
X122824000Y-76339000D01*
X98148000Y-76379000D02*
X122832000Y-76379000D01*
X98140000Y-76419000D02*
X122840000Y-76419000D01*
X98132000Y-76459000D02*
X122848000Y-76459000D01*
X98125000Y-76499000D02*
X122855000Y-76499000D01*
X98117000Y-76539000D02*
X122863000Y-76539000D01*
X98110000Y-76579000D02*
X122870000Y-76579000D01*
X98103000Y-76619000D02*
X122877000Y-76619000D01*
X98096000Y-76659000D02*
X122884000Y-76659000D01*
X98089000Y-76699000D02*
X122891000Y-76699000D01*
X98082000Y-76739000D02*
X122898000Y-76739000D01*
X98075000Y-76779000D02*
X122905000Y-76779000D01*
X98069000Y-76819000D02*
X122911000Y-76819000D01*
X98063000Y-76859000D02*
X122917000Y-76859000D01*
X98056000Y-76899000D02*
X122924000Y-76899000D01*
X98050000Y-76939000D02*
X122930000Y-76939000D01*
X98044000Y-76979000D02*
X122936000Y-76979000D01*
X98039000Y-77019000D02*
X122941000Y-77019000D01*
X98033000Y-77059000D02*
X122947000Y-77059000D01*
X98027000Y-77099000D02*
X122953000Y-77099000D01*
X98022000Y-77139000D02*
X122958000Y-77139000D01*
X98017000Y-77179000D02*
X122963000Y-77179000D01*
X98011000Y-77219000D02*
X122969000Y-77219000D01*
X98006000Y-77259000D02*
X122974000Y-77259000D01*
X98001000Y-77299000D02*
X122979000Y-77299000D01*
X97997000Y-77339000D02*
X122983000Y-77339000D01*
X97992000Y-77379000D02*
X122988000Y-77379000D01*
X97987000Y-77419000D02*
X122993000Y-77419000D01*
X97983000Y-77459000D02*
X122997000Y-77459000D01*
X97979000Y-77499000D02*
X123001000Y-77499000D01*
X97975000Y-77539000D02*
X123005000Y-77539000D01*
X97971000Y-77579000D02*
X123009000Y-77579000D01*
X97967000Y-77619000D02*
X123013000Y-77619000D01*
X97963000Y-77659000D02*
X123017000Y-77659000D01*
X97959000Y-77699000D02*
X123021000Y-77699000D01*
X97956000Y-77739000D02*
X123024000Y-77739000D01*
X97952000Y-77779000D02*
X123028000Y-77779000D01*
X97949000Y-77819000D02*
X123031000Y-77819000D01*
X97946000Y-77859000D02*
X123034000Y-77859000D01*
X97943000Y-77899000D02*
X123037000Y-77899000D01*
X97940000Y-77939000D02*
X123040000Y-77939000D01*
X97937000Y-77979000D02*
X123043000Y-77979000D01*
X97935000Y-78019000D02*
X123045000Y-78019000D01*
X97932000Y-78059000D02*
X123048000Y-78059000D01*
X97930000Y-78099000D02*
X123050000Y-78099000D01*
X97928000Y-78140000D02*
X123052000Y-78140000D01*
X97926000Y-78180000D02*
X123054000Y-78180000D01*
X97924000Y-78220000D02*
X123056000Y-78220000D01*
X97922000Y-78260000D02*
X123058000Y-78260000D01*
X97920000Y-78300000D02*
X123060000Y-78300000D01*
X97919000Y-78340000D02*
X123061000Y-78340000D01*
X97917000Y-78380000D02*
X123063000Y-78380000D01*
X97916000Y-78420000D02*
X123064000Y-78420000D01*
X97915000Y-78460000D02*
X123065000Y-78460000D01*
X97914000Y-78500000D02*
X123066000Y-78500000D01*
X97913000Y-78540000D02*
X123067000Y-78540000D01*
X97912000Y-78580000D02*
X123068000Y-78580000D01*
X97911000Y-78620000D02*
X123069000Y-78620000D01*
X97911000Y-78660000D02*
X123069000Y-78660000D01*
X97910000Y-78700000D02*
X123070000Y-78700000D01*
X97910000Y-78740000D02*
X123070000Y-78740000D01*
X97910000Y-78780000D02*
X123070000Y-78780000D01*
X97909000Y-78820000D02*
X123071000Y-78820000D01*
X123110000Y-78820000D02*
G75*
G03*
X123110000Y-78820000I-12620000J0D01*
G01*
X123860000Y-122685000D02*
X127600000Y-122685000D01*
X123860000Y-130125000D02*
X127600000Y-130125000D01*
X127600000Y-130125000D02*
X127600000Y-122685000D01*
X123860000Y-130125000D02*
X123860000Y-122685000D01*
X130770000Y-101620000D02*
X127030000Y-101620000D01*
X130770000Y-94180000D02*
X127030000Y-94180000D01*
X127030000Y-94180000D02*
X127030000Y-101620000D01*
X130770000Y-94180000D02*
X130770000Y-101620000D01*
X113895000Y-155520000D02*
X113895000Y-149280000D01*
X121135000Y-155520000D02*
X121135000Y-149280000D01*
X121135000Y-149280000D02*
X113895000Y-149280000D01*
X121135000Y-155520000D02*
X113895000Y-155520000D01*
X51045000Y-150377082D02*
X52295000Y-150377082D01*
X51670000Y-151002082D02*
X51670000Y-149752082D01*
X54928000Y-137824000D02*
X55562000Y-137824000D01*
X54488000Y-137864000D02*
X56002000Y-137864000D01*
X54217000Y-137904000D02*
X56273000Y-137904000D01*
X54004000Y-137944000D02*
X56486000Y-137944000D01*
X53823000Y-137984000D02*
X56667000Y-137984000D01*
X53662000Y-138024000D02*
X56828000Y-138024000D01*
X53517000Y-138064000D02*
X56973000Y-138064000D01*
X53384000Y-138104000D02*
X57106000Y-138104000D01*
X53261000Y-138144000D02*
X57229000Y-138144000D01*
X53145000Y-138184000D02*
X57345000Y-138184000D01*
X53036000Y-138224000D02*
X57454000Y-138224000D01*
X52933000Y-138264000D02*
X57557000Y-138264000D01*
X52835000Y-138304000D02*
X57655000Y-138304000D01*
X52741000Y-138344000D02*
X57749000Y-138344000D01*
X52651000Y-138384000D02*
X57839000Y-138384000D01*
X52564000Y-138424000D02*
X57926000Y-138424000D01*
X52481000Y-138464000D02*
X58009000Y-138464000D01*
X52401000Y-138504000D02*
X58089000Y-138504000D01*
X52324000Y-138544000D02*
X58166000Y-138544000D01*
X52249000Y-138584000D02*
X58241000Y-138584000D01*
X52176000Y-138624000D02*
X58314000Y-138624000D01*
X52105000Y-138664000D02*
X58385000Y-138664000D01*
X52037000Y-138704000D02*
X58453000Y-138704000D01*
X51970000Y-138744000D02*
X58520000Y-138744000D01*
X51906000Y-138784000D02*
X58584000Y-138784000D01*
X51843000Y-138824000D02*
X58647000Y-138824000D01*
X51781000Y-138864000D02*
X58709000Y-138864000D01*
X51721000Y-138904000D02*
X58769000Y-138904000D01*
X51662000Y-138944000D02*
X58828000Y-138944000D01*
X51605000Y-138984000D02*
X58885000Y-138984000D01*
X51549000Y-139024000D02*
X58941000Y-139024000D01*
X51495000Y-139064000D02*
X58995000Y-139064000D01*
X51441000Y-139104000D02*
X59049000Y-139104000D01*
X51389000Y-139144000D02*
X59101000Y-139144000D01*
X51338000Y-139184000D02*
X59152000Y-139184000D01*
X51288000Y-139224000D02*
X59202000Y-139224000D01*
X51238000Y-139264000D02*
X59252000Y-139264000D01*
X51190000Y-139304000D02*
X59300000Y-139304000D01*
X51143000Y-139344000D02*
X59347000Y-139344000D01*
X51097000Y-139384000D02*
X59393000Y-139384000D01*
X51051000Y-139424000D02*
X59439000Y-139424000D01*
X51007000Y-139464000D02*
X59483000Y-139464000D01*
X50963000Y-139504000D02*
X59527000Y-139504000D01*
X50920000Y-139544000D02*
X59570000Y-139544000D01*
X50878000Y-139584000D02*
X59612000Y-139584000D01*
X50837000Y-139624000D02*
X59653000Y-139624000D01*
X50796000Y-139664000D02*
X59694000Y-139664000D01*
X50756000Y-139704000D02*
X59734000Y-139704000D01*
X50717000Y-139744000D02*
X59773000Y-139744000D01*
X50678000Y-139784000D02*
X59812000Y-139784000D01*
X50640000Y-139824000D02*
X59850000Y-139824000D01*
X50603000Y-139864000D02*
X59887000Y-139864000D01*
X50567000Y-139904000D02*
X59923000Y-139904000D01*
X50531000Y-139944000D02*
X59959000Y-139944000D01*
X50495000Y-139984000D02*
X59995000Y-139984000D01*
X50460000Y-140024000D02*
X60030000Y-140024000D01*
X50426000Y-140064000D02*
X60064000Y-140064000D01*
X50393000Y-140104000D02*
X60097000Y-140104000D01*
X50360000Y-140144000D02*
X60130000Y-140144000D01*
X50327000Y-140184000D02*
X60163000Y-140184000D01*
X50295000Y-140224000D02*
X60195000Y-140224000D01*
X56685000Y-140264000D02*
X60227000Y-140264000D01*
X50263000Y-140264000D02*
X53805000Y-140264000D01*
X56685000Y-140304000D02*
X60257000Y-140304000D01*
X50233000Y-140304000D02*
X53805000Y-140304000D01*
X56685000Y-140344000D02*
X60288000Y-140344000D01*
X50202000Y-140344000D02*
X53805000Y-140344000D01*
X56685000Y-140384000D02*
X60318000Y-140384000D01*
X50172000Y-140384000D02*
X53805000Y-140384000D01*
X56685000Y-140424000D02*
X60347000Y-140424000D01*
X50143000Y-140424000D02*
X53805000Y-140424000D01*
X56685000Y-140464000D02*
X60376000Y-140464000D01*
X50114000Y-140464000D02*
X53805000Y-140464000D01*
X56685000Y-140504000D02*
X60405000Y-140504000D01*
X50085000Y-140504000D02*
X53805000Y-140504000D01*
X56685000Y-140544000D02*
X60433000Y-140544000D01*
X50057000Y-140544000D02*
X53805000Y-140544000D01*
X56685000Y-140584000D02*
X60461000Y-140584000D01*
X50029000Y-140584000D02*
X53805000Y-140584000D01*
X56685000Y-140624000D02*
X60488000Y-140624000D01*
X50002000Y-140624000D02*
X53805000Y-140624000D01*
X56685000Y-140664000D02*
X60515000Y-140664000D01*
X49975000Y-140664000D02*
X53805000Y-140664000D01*
X56685000Y-140704000D02*
X60541000Y-140704000D01*
X49949000Y-140704000D02*
X53805000Y-140704000D01*
X56685000Y-140744000D02*
X60567000Y-140744000D01*
X49923000Y-140744000D02*
X53805000Y-140744000D01*
X56685000Y-140784000D02*
X60592000Y-140784000D01*
X49898000Y-140784000D02*
X53805000Y-140784000D01*
X56685000Y-140824000D02*
X60617000Y-140824000D01*
X49873000Y-140824000D02*
X53805000Y-140824000D01*
X56685000Y-140864000D02*
X60642000Y-140864000D01*
X49848000Y-140864000D02*
X53805000Y-140864000D01*
X56685000Y-140904000D02*
X60666000Y-140904000D01*
X49824000Y-140904000D02*
X53805000Y-140904000D01*
X56685000Y-140944000D02*
X60690000Y-140944000D01*
X49800000Y-140944000D02*
X53805000Y-140944000D01*
X56685000Y-140984000D02*
X60713000Y-140984000D01*
X49777000Y-140984000D02*
X53805000Y-140984000D01*
X56685000Y-141024000D02*
X60736000Y-141024000D01*
X49754000Y-141024000D02*
X53805000Y-141024000D01*
X56685000Y-141064000D02*
X60759000Y-141064000D01*
X49731000Y-141064000D02*
X53805000Y-141064000D01*
X56685000Y-141104000D02*
X60781000Y-141104000D01*
X49709000Y-141104000D02*
X53805000Y-141104000D01*
X56685000Y-141144000D02*
X60803000Y-141144000D01*
X49687000Y-141144000D02*
X53805000Y-141144000D01*
X56685000Y-141184000D02*
X60825000Y-141184000D01*
X49665000Y-141184000D02*
X53805000Y-141184000D01*
X56685000Y-141224000D02*
X60846000Y-141224000D01*
X49644000Y-141224000D02*
X53805000Y-141224000D01*
X56685000Y-141264000D02*
X60867000Y-141264000D01*
X49623000Y-141264000D02*
X53805000Y-141264000D01*
X56685000Y-141304000D02*
X60887000Y-141304000D01*
X49603000Y-141304000D02*
X53805000Y-141304000D01*
X56685000Y-141344000D02*
X60907000Y-141344000D01*
X49583000Y-141344000D02*
X53805000Y-141344000D01*
X56685000Y-141384000D02*
X60927000Y-141384000D01*
X49563000Y-141384000D02*
X53805000Y-141384000D01*
X56685000Y-141424000D02*
X60947000Y-141424000D01*
X49543000Y-141424000D02*
X53805000Y-141424000D01*
X56685000Y-141464000D02*
X60966000Y-141464000D01*
X49524000Y-141464000D02*
X53805000Y-141464000D01*
X56685000Y-141504000D02*
X60984000Y-141504000D01*
X49506000Y-141504000D02*
X53805000Y-141504000D01*
X56685000Y-141544000D02*
X61003000Y-141544000D01*
X49487000Y-141544000D02*
X53805000Y-141544000D01*
X56685000Y-141584000D02*
X61021000Y-141584000D01*
X49469000Y-141584000D02*
X53805000Y-141584000D01*
X56685000Y-141624000D02*
X61038000Y-141624000D01*
X49452000Y-141624000D02*
X53805000Y-141624000D01*
X56685000Y-141664000D02*
X61056000Y-141664000D01*
X49434000Y-141664000D02*
X53805000Y-141664000D01*
X56685000Y-141704000D02*
X61073000Y-141704000D01*
X49417000Y-141704000D02*
X53805000Y-141704000D01*
X56685000Y-141744000D02*
X61090000Y-141744000D01*
X49400000Y-141744000D02*
X53805000Y-141744000D01*
X56685000Y-141784000D02*
X61106000Y-141784000D01*
X49384000Y-141784000D02*
X53805000Y-141784000D01*
X56685000Y-141824000D02*
X61122000Y-141824000D01*
X49368000Y-141824000D02*
X53805000Y-141824000D01*
X56685000Y-141864000D02*
X61138000Y-141864000D01*
X49352000Y-141864000D02*
X53805000Y-141864000D01*
X56685000Y-141904000D02*
X61153000Y-141904000D01*
X49337000Y-141904000D02*
X53805000Y-141904000D01*
X56685000Y-141944000D02*
X61169000Y-141944000D01*
X49321000Y-141944000D02*
X53805000Y-141944000D01*
X56685000Y-141984000D02*
X61184000Y-141984000D01*
X49306000Y-141984000D02*
X53805000Y-141984000D01*
X56685000Y-142024000D02*
X61198000Y-142024000D01*
X49292000Y-142024000D02*
X53805000Y-142024000D01*
X56685000Y-142064000D02*
X61212000Y-142064000D01*
X49278000Y-142064000D02*
X53805000Y-142064000D01*
X56685000Y-142104000D02*
X61226000Y-142104000D01*
X49264000Y-142104000D02*
X53805000Y-142104000D01*
X56685000Y-142144000D02*
X61240000Y-142144000D01*
X49250000Y-142144000D02*
X53805000Y-142144000D01*
X56685000Y-142184000D02*
X61253000Y-142184000D01*
X49237000Y-142184000D02*
X53805000Y-142184000D01*
X56685000Y-142224000D02*
X61266000Y-142224000D01*
X49224000Y-142224000D02*
X53805000Y-142224000D01*
X56685000Y-142264000D02*
X61279000Y-142264000D01*
X49211000Y-142264000D02*
X53805000Y-142264000D01*
X56685000Y-142304000D02*
X61292000Y-142304000D01*
X49198000Y-142304000D02*
X53805000Y-142304000D01*
X56685000Y-142344000D02*
X61304000Y-142344000D01*
X49186000Y-142344000D02*
X53805000Y-142344000D01*
X56685000Y-142384000D02*
X61316000Y-142384000D01*
X49174000Y-142384000D02*
X53805000Y-142384000D01*
X56685000Y-142424000D02*
X61328000Y-142424000D01*
X49162000Y-142424000D02*
X53805000Y-142424000D01*
X56685000Y-142464000D02*
X61339000Y-142464000D01*
X49151000Y-142464000D02*
X53805000Y-142464000D01*
X56685000Y-142504000D02*
X61350000Y-142504000D01*
X49140000Y-142504000D02*
X53805000Y-142504000D01*
X56685000Y-142544000D02*
X61361000Y-142544000D01*
X49129000Y-142544000D02*
X53805000Y-142544000D01*
X56685000Y-142584000D02*
X61371000Y-142584000D01*
X49119000Y-142584000D02*
X53805000Y-142584000D01*
X56685000Y-142624000D02*
X61382000Y-142624000D01*
X49108000Y-142624000D02*
X53805000Y-142624000D01*
X56685000Y-142664000D02*
X61391000Y-142664000D01*
X49099000Y-142664000D02*
X53805000Y-142664000D01*
X56685000Y-142704000D02*
X61401000Y-142704000D01*
X49089000Y-142704000D02*
X53805000Y-142704000D01*
X56685000Y-142744000D02*
X61411000Y-142744000D01*
X49079000Y-142744000D02*
X53805000Y-142744000D01*
X56685000Y-142784000D02*
X61420000Y-142784000D01*
X49070000Y-142784000D02*
X53805000Y-142784000D01*
X56685000Y-142824000D02*
X61429000Y-142824000D01*
X49061000Y-142824000D02*
X53805000Y-142824000D01*
X56685000Y-142864000D02*
X61437000Y-142864000D01*
X49053000Y-142864000D02*
X53805000Y-142864000D01*
X56685000Y-142904000D02*
X61446000Y-142904000D01*
X49044000Y-142904000D02*
X53805000Y-142904000D01*
X56685000Y-142944000D02*
X61454000Y-142944000D01*
X49036000Y-142944000D02*
X53805000Y-142944000D01*
X56685000Y-142984000D02*
X61461000Y-142984000D01*
X49029000Y-142984000D02*
X53805000Y-142984000D01*
X56685000Y-143024000D02*
X61469000Y-143024000D01*
X49021000Y-143024000D02*
X53805000Y-143024000D01*
X56685000Y-143064000D02*
X61476000Y-143064000D01*
X49014000Y-143064000D02*
X53805000Y-143064000D01*
X56685000Y-143104000D02*
X61483000Y-143104000D01*
X49007000Y-143104000D02*
X53805000Y-143104000D01*
X49000000Y-143144000D02*
X61490000Y-143144000D01*
X48993000Y-143184000D02*
X61497000Y-143184000D01*
X48987000Y-143224000D02*
X61503000Y-143224000D01*
X48981000Y-143264000D02*
X61509000Y-143264000D01*
X48976000Y-143304000D02*
X61514000Y-143304000D01*
X48970000Y-143344000D02*
X61520000Y-143344000D01*
X48965000Y-143384000D02*
X61525000Y-143384000D01*
X48960000Y-143424000D02*
X61530000Y-143424000D01*
X48955000Y-143464000D02*
X61535000Y-143464000D01*
X48951000Y-143505000D02*
X61539000Y-143505000D01*
X48947000Y-143545000D02*
X61543000Y-143545000D01*
X48943000Y-143585000D02*
X61547000Y-143585000D01*
X48939000Y-143625000D02*
X61551000Y-143625000D01*
X48936000Y-143665000D02*
X61554000Y-143665000D01*
X48933000Y-143705000D02*
X61557000Y-143705000D01*
X48930000Y-143745000D02*
X61560000Y-143745000D01*
X48927000Y-143785000D02*
X61563000Y-143785000D01*
X48925000Y-143825000D02*
X61565000Y-143825000D01*
X48923000Y-143865000D02*
X61567000Y-143865000D01*
X48921000Y-143905000D02*
X61569000Y-143905000D01*
X48919000Y-143945000D02*
X61571000Y-143945000D01*
X48918000Y-143985000D02*
X61572000Y-143985000D01*
X48917000Y-144025000D02*
X61573000Y-144025000D01*
X48916000Y-144065000D02*
X61574000Y-144065000D01*
X48915000Y-144105000D02*
X61575000Y-144105000D01*
X48915000Y-144145000D02*
X61575000Y-144145000D01*
X48915000Y-144185000D02*
X61575000Y-144185000D01*
X61615000Y-144185000D02*
G75*
G03*
X61615000Y-144185000I-6370000J0D01*
G01*
X58600000Y-87995000D02*
X53160000Y-87995000D01*
X58600000Y-88235000D02*
X53160000Y-88235000D01*
X58600000Y-88115000D02*
X53160000Y-88115000D01*
X55880000Y-97220000D02*
X55880000Y-96310000D01*
X55880000Y-85660000D02*
X55880000Y-86570000D01*
X58600000Y-96310000D02*
X58600000Y-86570000D01*
X53160000Y-96310000D02*
X58600000Y-96310000D01*
X53160000Y-86570000D02*
X53160000Y-96310000D01*
X58600000Y-86570000D02*
X53160000Y-86570000D01*
X50980000Y-87995000D02*
X45540000Y-87995000D01*
X50980000Y-88235000D02*
X45540000Y-88235000D01*
X50980000Y-88115000D02*
X45540000Y-88115000D01*
X48260000Y-97220000D02*
X48260000Y-96310000D01*
X48260000Y-85660000D02*
X48260000Y-86570000D01*
X50980000Y-96310000D02*
X50980000Y-86570000D01*
X45540000Y-96310000D02*
X50980000Y-96310000D01*
X45540000Y-86570000D02*
X45540000Y-96310000D01*
X50980000Y-86570000D02*
X45540000Y-86570000D01*
X58600000Y-110855000D02*
X53160000Y-110855000D01*
X58600000Y-111095000D02*
X53160000Y-111095000D01*
X58600000Y-110975000D02*
X53160000Y-110975000D01*
X55880000Y-120080000D02*
X55880000Y-119170000D01*
X55880000Y-108520000D02*
X55880000Y-109430000D01*
X58600000Y-119170000D02*
X58600000Y-109430000D01*
X53160000Y-119170000D02*
X58600000Y-119170000D01*
X53160000Y-109430000D02*
X53160000Y-119170000D01*
X58600000Y-109430000D02*
X53160000Y-109430000D01*
X50980000Y-110855000D02*
X45540000Y-110855000D01*
X50980000Y-111095000D02*
X45540000Y-111095000D01*
X50980000Y-110975000D02*
X45540000Y-110975000D01*
X48260000Y-120080000D02*
X48260000Y-119170000D01*
X48260000Y-108520000D02*
X48260000Y-109430000D01*
X50980000Y-119170000D02*
X50980000Y-109430000D01*
X45540000Y-119170000D02*
X50980000Y-119170000D01*
X45540000Y-109430000D02*
X45540000Y-119170000D01*
X50980000Y-109430000D02*
X45540000Y-109430000D01*
X123903039Y-136939144D02*
X123012084Y-137830098D01*
X124680856Y-137716961D02*
X123903039Y-136939144D01*
X123789902Y-138607916D02*
X124680856Y-137716961D01*
X123012371Y-137830326D02*
G75*
G03*
X123789902Y-138607916I-2997371J-3774674D01*
G01*
X103459499Y-141930552D02*
X102547331Y-142842719D01*
X104449448Y-142920501D02*
X103459499Y-141930552D01*
X103537281Y-143832669D02*
X104449448Y-142920501D01*
X102547544Y-142842850D02*
G75*
G03*
X103537281Y-143832669I-1582544J-2572150D01*
G01*
X133350000Y-137625000D02*
X133350000Y-136515000D01*
X133350000Y-125265000D02*
X133350000Y-126375000D01*
X135270000Y-136515000D02*
X135270000Y-126375000D01*
X131430000Y-136515000D02*
X135270000Y-136515000D01*
X131430000Y-126375000D02*
X131430000Y-136515000D01*
X135270000Y-126375000D02*
X131430000Y-126375000D01*
X128905000Y-117940000D02*
X128905000Y-116830000D01*
X128905000Y-105580000D02*
X128905000Y-106690000D01*
X130825000Y-116830000D02*
X130825000Y-106690000D01*
X126985000Y-116830000D02*
X130825000Y-116830000D01*
X126985000Y-106690000D02*
X126985000Y-116830000D01*
X130825000Y-106690000D02*
X126985000Y-106690000D01*
X213360000Y-118280000D02*
X213360000Y-119460000D01*
X213360000Y-145880000D02*
X213360000Y-144700000D01*
X208740000Y-119460000D02*
X208740000Y-144700000D01*
X217980000Y-119460000D02*
X208740000Y-119460000D01*
X217980000Y-144700000D02*
X217980000Y-119460000D01*
X208740000Y-144700000D02*
X217980000Y-144700000D01*
X213360000Y-73576000D02*
X213360000Y-74756000D01*
X213360000Y-101176000D02*
X213360000Y-99996000D01*
X208740000Y-74756000D02*
X208740000Y-99996000D01*
X217980000Y-74756000D02*
X208740000Y-74756000D01*
X217980000Y-99996000D02*
X217980000Y-74756000D01*
X208740000Y-99996000D02*
X217980000Y-99996000D01*
X70655000Y-151130000D02*
X71765000Y-151130000D01*
X83015000Y-151130000D02*
X81905000Y-151130000D01*
X71765000Y-153050000D02*
X81905000Y-153050000D01*
X71765000Y-149210000D02*
X71765000Y-153050000D01*
X81905000Y-149210000D02*
X71765000Y-149210000D01*
X81905000Y-153050000D02*
X81905000Y-149210000D01*
X83015000Y-146050000D02*
X81905000Y-146050000D01*
X70655000Y-146050000D02*
X71765000Y-146050000D01*
X81905000Y-144130000D02*
X71765000Y-144130000D01*
X81905000Y-147970000D02*
X81905000Y-144130000D01*
X71765000Y-147970000D02*
X81905000Y-147970000D01*
X71765000Y-144130000D02*
X71765000Y-147970000D01*
X70655000Y-140970000D02*
X71765000Y-140970000D01*
X83015000Y-140970000D02*
X81905000Y-140970000D01*
X71765000Y-142890000D02*
X81905000Y-142890000D01*
X71765000Y-139050000D02*
X71765000Y-142890000D01*
X81905000Y-139050000D02*
X71765000Y-139050000D01*
X81905000Y-142890000D02*
X81905000Y-139050000D01*
X102405000Y-125095000D02*
X103515000Y-125095000D01*
X114765000Y-125095000D02*
X113655000Y-125095000D01*
X103515000Y-127015000D02*
X113655000Y-127015000D01*
X103515000Y-123175000D02*
X103515000Y-127015000D01*
X113655000Y-123175000D02*
X103515000Y-123175000D01*
X113655000Y-127015000D02*
X113655000Y-123175000D01*
X70655000Y-135890000D02*
X71765000Y-135890000D01*
X83015000Y-135890000D02*
X81905000Y-135890000D01*
X71765000Y-137810000D02*
X81905000Y-137810000D01*
X71765000Y-133970000D02*
X71765000Y-137810000D01*
X81905000Y-133970000D02*
X71765000Y-133970000D01*
X81905000Y-137810000D02*
X81905000Y-133970000D01*
X70655000Y-125095000D02*
X71765000Y-125095000D01*
X83015000Y-125095000D02*
X81905000Y-125095000D01*
X71765000Y-127015000D02*
X81905000Y-127015000D01*
X71765000Y-123175000D02*
X71765000Y-127015000D01*
X81905000Y-123175000D02*
X71765000Y-123175000D01*
X81905000Y-127015000D02*
X81905000Y-123175000D01*
D10*
X132460476Y-68222380D02*
X132460476Y-68936666D01*
X132412857Y-69079523D01*
X132317619Y-69174761D01*
X132174761Y-69222380D01*
X132079523Y-69222380D01*
X133460476Y-69222380D02*
X132889047Y-69222380D01*
X133174761Y-69222380D02*
X133174761Y-68222380D01*
X133079523Y-68365238D01*
X132984285Y-68460476D01*
X132889047Y-68508095D01*
X134412857Y-69222380D02*
X133841428Y-69222380D01*
X134127142Y-69222380D02*
X134127142Y-68222380D01*
X134031904Y-68365238D01*
X133936666Y-68460476D01*
X133841428Y-68508095D01*
X132460476Y-158222380D02*
X132460476Y-158936666D01*
X132412857Y-159079523D01*
X132317619Y-159174761D01*
X132174761Y-159222380D01*
X132079523Y-159222380D01*
X133460476Y-159222380D02*
X132889047Y-159222380D01*
X133174761Y-159222380D02*
X133174761Y-158222380D01*
X133079523Y-158365238D01*
X132984285Y-158460476D01*
X132889047Y-158508095D01*
X134079523Y-158222380D02*
X134174761Y-158222380D01*
X134270000Y-158270000D01*
X134317619Y-158317619D01*
X134365238Y-158412857D01*
X134412857Y-158603333D01*
X134412857Y-158841428D01*
X134365238Y-159031904D01*
X134317619Y-159127142D01*
X134270000Y-159174761D01*
X134174761Y-159222380D01*
X134079523Y-159222380D01*
X133984285Y-159174761D01*
X133936666Y-159127142D01*
X133889047Y-159031904D01*
X133841428Y-158841428D01*
X133841428Y-158603333D01*
X133889047Y-158412857D01*
X133936666Y-158317619D01*
X133984285Y-158270000D01*
X134079523Y-158222380D01*
X132936666Y-86222380D02*
X132936666Y-86936666D01*
X132889047Y-87079523D01*
X132793809Y-87174761D01*
X132650952Y-87222380D01*
X132555714Y-87222380D01*
X133460476Y-87222380D02*
X133650952Y-87222380D01*
X133746190Y-87174761D01*
X133793809Y-87127142D01*
X133889047Y-86984285D01*
X133936666Y-86793809D01*
X133936666Y-86412857D01*
X133889047Y-86317619D01*
X133841428Y-86270000D01*
X133746190Y-86222380D01*
X133555714Y-86222380D01*
X133460476Y-86270000D01*
X133412857Y-86317619D01*
X133365238Y-86412857D01*
X133365238Y-86650952D01*
X133412857Y-86746190D01*
X133460476Y-86793809D01*
X133555714Y-86841428D01*
X133746190Y-86841428D01*
X133841428Y-86793809D01*
X133889047Y-86746190D01*
X133936666Y-86650952D01*
X64466666Y-46878571D02*
X64133333Y-46878571D01*
X64133333Y-47402380D02*
X64133333Y-46402380D01*
X64609523Y-46402380D01*
X65514285Y-47402380D02*
X64942857Y-47402380D01*
X65228571Y-47402380D02*
X65228571Y-46402380D01*
X65133333Y-46545238D01*
X65038095Y-46640476D01*
X64942857Y-46688095D01*
X44812380Y-115038095D02*
X43812380Y-115038095D01*
X43812380Y-114800000D01*
X43860000Y-114657142D01*
X43955238Y-114561904D01*
X44050476Y-114514285D01*
X44240952Y-114466666D01*
X44383809Y-114466666D01*
X44574285Y-114514285D01*
X44669523Y-114561904D01*
X44764761Y-114657142D01*
X44812380Y-114800000D01*
X44812380Y-115038095D01*
X44812380Y-113990476D02*
X44812380Y-113800000D01*
X44764761Y-113704761D01*
X44717142Y-113657142D01*
X44574285Y-113561904D01*
X44383809Y-113514285D01*
X44002857Y-113514285D01*
X43907619Y-113561904D01*
X43860000Y-113609523D01*
X43812380Y-113704761D01*
X43812380Y-113895238D01*
X43860000Y-113990476D01*
X43907619Y-114038095D01*
X44002857Y-114085714D01*
X44240952Y-114085714D01*
X44336190Y-114038095D01*
X44383809Y-113990476D01*
X44431428Y-113895238D01*
X44431428Y-113704761D01*
X44383809Y-113609523D01*
X44336190Y-113561904D01*
X44240952Y-113514285D01*
X43692380Y-106941904D02*
X42692380Y-106941904D01*
X43692380Y-106370476D02*
X43120952Y-106799047D01*
X42692380Y-106370476D02*
X43263809Y-106941904D01*
X67037380Y-115038095D02*
X66037380Y-115038095D01*
X66037380Y-114800000D01*
X66085000Y-114657142D01*
X66180238Y-114561904D01*
X66275476Y-114514285D01*
X66465952Y-114466666D01*
X66608809Y-114466666D01*
X66799285Y-114514285D01*
X66894523Y-114561904D01*
X66989761Y-114657142D01*
X67037380Y-114800000D01*
X67037380Y-115038095D01*
X66465952Y-113895238D02*
X66418333Y-113990476D01*
X66370714Y-114038095D01*
X66275476Y-114085714D01*
X66227857Y-114085714D01*
X66132619Y-114038095D01*
X66085000Y-113990476D01*
X66037380Y-113895238D01*
X66037380Y-113704761D01*
X66085000Y-113609523D01*
X66132619Y-113561904D01*
X66227857Y-113514285D01*
X66275476Y-113514285D01*
X66370714Y-113561904D01*
X66418333Y-113609523D01*
X66465952Y-113704761D01*
X66465952Y-113895238D01*
X66513571Y-113990476D01*
X66561190Y-114038095D01*
X66656428Y-114085714D01*
X66846904Y-114085714D01*
X66942142Y-114038095D01*
X66989761Y-113990476D01*
X67037380Y-113895238D01*
X67037380Y-113704761D01*
X66989761Y-113609523D01*
X66942142Y-113561904D01*
X66846904Y-113514285D01*
X66656428Y-113514285D01*
X66561190Y-113561904D01*
X66513571Y-113609523D01*
X66465952Y-113704761D01*
X65917380Y-106941904D02*
X64917380Y-106941904D01*
X65917380Y-106370476D02*
X65345952Y-106799047D01*
X64917380Y-106370476D02*
X65488809Y-106941904D01*
X44812380Y-92178095D02*
X43812380Y-92178095D01*
X43812380Y-91940000D01*
X43860000Y-91797142D01*
X43955238Y-91701904D01*
X44050476Y-91654285D01*
X44240952Y-91606666D01*
X44383809Y-91606666D01*
X44574285Y-91654285D01*
X44669523Y-91701904D01*
X44764761Y-91797142D01*
X44812380Y-91940000D01*
X44812380Y-92178095D01*
X43812380Y-91273333D02*
X43812380Y-90606666D01*
X44812380Y-91035238D01*
X43692380Y-84081904D02*
X42692380Y-84081904D01*
X43692380Y-83510476D02*
X43120952Y-83939047D01*
X42692380Y-83510476D02*
X43263809Y-84081904D01*
X67037380Y-92178095D02*
X66037380Y-92178095D01*
X66037380Y-91940000D01*
X66085000Y-91797142D01*
X66180238Y-91701904D01*
X66275476Y-91654285D01*
X66465952Y-91606666D01*
X66608809Y-91606666D01*
X66799285Y-91654285D01*
X66894523Y-91701904D01*
X66989761Y-91797142D01*
X67037380Y-91940000D01*
X67037380Y-92178095D01*
X66037380Y-90749523D02*
X66037380Y-90940000D01*
X66085000Y-91035238D01*
X66132619Y-91082857D01*
X66275476Y-91178095D01*
X66465952Y-91225714D01*
X66846904Y-91225714D01*
X66942142Y-91178095D01*
X66989761Y-91130476D01*
X67037380Y-91035238D01*
X67037380Y-90844761D01*
X66989761Y-90749523D01*
X66942142Y-90701904D01*
X66846904Y-90654285D01*
X66608809Y-90654285D01*
X66513571Y-90701904D01*
X66465952Y-90749523D01*
X66418333Y-90844761D01*
X66418333Y-91035238D01*
X66465952Y-91130476D01*
X66513571Y-91178095D01*
X66608809Y-91225714D01*
X65917380Y-84081904D02*
X64917380Y-84081904D01*
X65917380Y-83510476D02*
X65345952Y-83939047D01*
X64917380Y-83510476D02*
X65488809Y-84081904D01*
X73556904Y-133097380D02*
X73556904Y-132097380D01*
X73795000Y-132097380D01*
X73937857Y-132145000D01*
X74033095Y-132240238D01*
X74080714Y-132335476D01*
X74128333Y-132525952D01*
X74128333Y-132668809D01*
X74080714Y-132859285D01*
X74033095Y-132954523D01*
X73937857Y-133049761D01*
X73795000Y-133097380D01*
X73556904Y-133097380D01*
X75033095Y-132097380D02*
X74556904Y-132097380D01*
X74509285Y-132573571D01*
X74556904Y-132525952D01*
X74652142Y-132478333D01*
X74890238Y-132478333D01*
X74985476Y-132525952D01*
X75033095Y-132573571D01*
X75080714Y-132668809D01*
X75080714Y-132906904D01*
X75033095Y-133002142D01*
X74985476Y-133049761D01*
X74890238Y-133097380D01*
X74652142Y-133097380D01*
X74556904Y-133049761D01*
X74509285Y-133002142D01*
X79113095Y-132727380D02*
X79113095Y-131727380D01*
X79684523Y-132727380D02*
X79255952Y-132155952D01*
X79684523Y-131727380D02*
X79113095Y-132298809D01*
X100952380Y-55433333D02*
X101666666Y-55433333D01*
X101809523Y-55480952D01*
X101904761Y-55576190D01*
X101952380Y-55719047D01*
X101952380Y-55814285D01*
X101380952Y-54814285D02*
X101333333Y-54909523D01*
X101285714Y-54957142D01*
X101190476Y-55004761D01*
X101142857Y-55004761D01*
X101047619Y-54957142D01*
X101000000Y-54909523D01*
X100952380Y-54814285D01*
X100952380Y-54623809D01*
X101000000Y-54528571D01*
X101047619Y-54480952D01*
X101142857Y-54433333D01*
X101190476Y-54433333D01*
X101285714Y-54480952D01*
X101333333Y-54528571D01*
X101380952Y-54623809D01*
X101380952Y-54814285D01*
X101428571Y-54909523D01*
X101476190Y-54957142D01*
X101571428Y-55004761D01*
X101761904Y-55004761D01*
X101857142Y-54957142D01*
X101904761Y-54909523D01*
X101952380Y-54814285D01*
X101952380Y-54623809D01*
X101904761Y-54528571D01*
X101857142Y-54480952D01*
X101761904Y-54433333D01*
X101571428Y-54433333D01*
X101476190Y-54480952D01*
X101428571Y-54528571D01*
X101380952Y-54623809D01*
X36956666Y-137072380D02*
X36956666Y-137786666D01*
X36909047Y-137929523D01*
X36813809Y-138024761D01*
X36670952Y-138072380D01*
X36575714Y-138072380D01*
X37337619Y-137072380D02*
X38004285Y-137072380D01*
X37575714Y-138072380D01*
X228726666Y-73572380D02*
X228726666Y-74286666D01*
X228679047Y-74429523D01*
X228583809Y-74524761D01*
X228440952Y-74572380D01*
X228345714Y-74572380D01*
X229631428Y-73572380D02*
X229440952Y-73572380D01*
X229345714Y-73620000D01*
X229298095Y-73667619D01*
X229202857Y-73810476D01*
X229155238Y-74000952D01*
X229155238Y-74381904D01*
X229202857Y-74477142D01*
X229250476Y-74524761D01*
X229345714Y-74572380D01*
X229536190Y-74572380D01*
X229631428Y-74524761D01*
X229679047Y-74477142D01*
X229726666Y-74381904D01*
X229726666Y-74143809D01*
X229679047Y-74048571D01*
X229631428Y-74000952D01*
X229536190Y-73953333D01*
X229345714Y-73953333D01*
X229250476Y-74000952D01*
X229202857Y-74048571D01*
X229155238Y-74143809D01*
X228726666Y-93892380D02*
X228726666Y-94606666D01*
X228679047Y-94749523D01*
X228583809Y-94844761D01*
X228440952Y-94892380D01*
X228345714Y-94892380D01*
X229679047Y-93892380D02*
X229202857Y-93892380D01*
X229155238Y-94368571D01*
X229202857Y-94320952D01*
X229298095Y-94273333D01*
X229536190Y-94273333D01*
X229631428Y-94320952D01*
X229679047Y-94368571D01*
X229726666Y-94463809D01*
X229726666Y-94701904D01*
X229679047Y-94797142D01*
X229631428Y-94844761D01*
X229536190Y-94892380D01*
X229298095Y-94892380D01*
X229202857Y-94844761D01*
X229155238Y-94797142D01*
X228726666Y-83732380D02*
X228726666Y-84446666D01*
X228679047Y-84589523D01*
X228583809Y-84684761D01*
X228440952Y-84732380D01*
X228345714Y-84732380D01*
X229631428Y-84065714D02*
X229631428Y-84732380D01*
X229393333Y-83684761D02*
X229155238Y-84399047D01*
X229774285Y-84399047D01*
X228726666Y-134532380D02*
X228726666Y-135246666D01*
X228679047Y-135389523D01*
X228583809Y-135484761D01*
X228440952Y-135532380D01*
X228345714Y-135532380D01*
X229107619Y-134532380D02*
X229726666Y-134532380D01*
X229393333Y-134913333D01*
X229536190Y-134913333D01*
X229631428Y-134960952D01*
X229679047Y-135008571D01*
X229726666Y-135103809D01*
X229726666Y-135341904D01*
X229679047Y-135437142D01*
X229631428Y-135484761D01*
X229536190Y-135532380D01*
X229250476Y-135532380D01*
X229155238Y-135484761D01*
X229107619Y-135437142D01*
X228726666Y-124372380D02*
X228726666Y-125086666D01*
X228679047Y-125229523D01*
X228583809Y-125324761D01*
X228440952Y-125372380D01*
X228345714Y-125372380D01*
X229155238Y-124467619D02*
X229202857Y-124420000D01*
X229298095Y-124372380D01*
X229536190Y-124372380D01*
X229631428Y-124420000D01*
X229679047Y-124467619D01*
X229726666Y-124562857D01*
X229726666Y-124658095D01*
X229679047Y-124800952D01*
X229107619Y-125372380D01*
X229726666Y-125372380D01*
X228726666Y-114212380D02*
X228726666Y-114926666D01*
X228679047Y-115069523D01*
X228583809Y-115164761D01*
X228440952Y-115212380D01*
X228345714Y-115212380D01*
X229726666Y-115212380D02*
X229155238Y-115212380D01*
X229440952Y-115212380D02*
X229440952Y-114212380D01*
X229345714Y-114355238D01*
X229250476Y-114450476D01*
X229155238Y-114498095D01*
X217766666Y-158692380D02*
X217433333Y-158216190D01*
X217195238Y-158692380D02*
X217195238Y-157692380D01*
X217576190Y-157692380D01*
X217671428Y-157740000D01*
X217719047Y-157787619D01*
X217766666Y-157882857D01*
X217766666Y-158025714D01*
X217719047Y-158120952D01*
X217671428Y-158168571D01*
X217576190Y-158216190D01*
X217195238Y-158216190D01*
X218195238Y-158168571D02*
X218528571Y-158168571D01*
X218671428Y-158692380D02*
X218195238Y-158692380D01*
X218195238Y-157692380D01*
X218671428Y-157692380D01*
X219433333Y-158168571D02*
X219100000Y-158168571D01*
X219100000Y-158692380D02*
X219100000Y-157692380D01*
X219576190Y-157692380D01*
X220100000Y-157692380D02*
X220100000Y-157930476D01*
X219861904Y-157835238D02*
X220100000Y-157930476D01*
X220338095Y-157835238D01*
X219957142Y-158120952D02*
X220100000Y-157930476D01*
X220242857Y-158120952D01*
X220861904Y-157692380D02*
X220861904Y-157930476D01*
X220623809Y-157835238D02*
X220861904Y-157930476D01*
X221100000Y-157835238D01*
X220719047Y-158120952D02*
X220861904Y-157930476D01*
X221004761Y-158120952D01*
X217866666Y-112692380D02*
X217533333Y-112216190D01*
X217295238Y-112692380D02*
X217295238Y-111692380D01*
X217676190Y-111692380D01*
X217771428Y-111740000D01*
X217819047Y-111787619D01*
X217866666Y-111882857D01*
X217866666Y-112025714D01*
X217819047Y-112120952D01*
X217771428Y-112168571D01*
X217676190Y-112216190D01*
X217295238Y-112216190D01*
X218295238Y-112168571D02*
X218628571Y-112168571D01*
X218771428Y-112692380D02*
X218295238Y-112692380D01*
X218295238Y-111692380D01*
X218771428Y-111692380D01*
X219533333Y-112168571D02*
X219200000Y-112168571D01*
X219200000Y-112692380D02*
X219200000Y-111692380D01*
X219676190Y-111692380D01*
X220200000Y-111692380D02*
X220200000Y-111930476D01*
X219961904Y-111835238D02*
X220200000Y-111930476D01*
X220438095Y-111835238D01*
X220057142Y-112120952D02*
X220200000Y-111930476D01*
X220342857Y-112120952D01*
X220961904Y-111692380D02*
X220961904Y-111930476D01*
X220723809Y-111835238D02*
X220961904Y-111930476D01*
X221200000Y-111835238D01*
X220819047Y-112120952D02*
X220961904Y-111930476D01*
X221104761Y-112120952D01*
X230886095Y-151616380D02*
X230886095Y-150616380D01*
X230886095Y-151092571D02*
X231457523Y-151092571D01*
X231457523Y-151616380D02*
X231457523Y-150616380D01*
X232362285Y-150616380D02*
X232171809Y-150616380D01*
X232076571Y-150664000D01*
X232028952Y-150711619D01*
X231933714Y-150854476D01*
X231886095Y-151044952D01*
X231886095Y-151425904D01*
X231933714Y-151521142D01*
X231981333Y-151568761D01*
X232076571Y-151616380D01*
X232267047Y-151616380D01*
X232362285Y-151568761D01*
X232409904Y-151521142D01*
X232457523Y-151425904D01*
X232457523Y-151187809D01*
X232409904Y-151092571D01*
X232362285Y-151044952D01*
X232267047Y-150997333D01*
X232076571Y-150997333D01*
X231981333Y-151044952D01*
X231933714Y-151092571D01*
X231886095Y-151187809D01*
X230886095Y-46968380D02*
X230886095Y-45968380D01*
X230886095Y-46444571D02*
X231457523Y-46444571D01*
X231457523Y-46968380D02*
X231457523Y-45968380D01*
X232409904Y-45968380D02*
X231933714Y-45968380D01*
X231886095Y-46444571D01*
X231933714Y-46396952D01*
X232028952Y-46349333D01*
X232267047Y-46349333D01*
X232362285Y-46396952D01*
X232409904Y-46444571D01*
X232457523Y-46539809D01*
X232457523Y-46777904D01*
X232409904Y-46873142D01*
X232362285Y-46920761D01*
X232267047Y-46968380D01*
X232028952Y-46968380D01*
X231933714Y-46920761D01*
X231886095Y-46873142D01*
X34798095Y-47222380D02*
X34798095Y-46222380D01*
X34798095Y-46698571D02*
X35369523Y-46698571D01*
X35369523Y-47222380D02*
X35369523Y-46222380D01*
X35750476Y-46222380D02*
X36369523Y-46222380D01*
X36036190Y-46603333D01*
X36179047Y-46603333D01*
X36274285Y-46650952D01*
X36321904Y-46698571D01*
X36369523Y-46793809D01*
X36369523Y-47031904D01*
X36321904Y-47127142D01*
X36274285Y-47174761D01*
X36179047Y-47222380D01*
X35893333Y-47222380D01*
X35798095Y-47174761D01*
X35750476Y-47127142D01*
X34163095Y-151362380D02*
X34163095Y-150362380D01*
X34163095Y-150838571D02*
X34734523Y-150838571D01*
X34734523Y-151362380D02*
X34734523Y-150362380D01*
X35163095Y-150457619D02*
X35210714Y-150410000D01*
X35305952Y-150362380D01*
X35544047Y-150362380D01*
X35639285Y-150410000D01*
X35686904Y-150457619D01*
X35734523Y-150552857D01*
X35734523Y-150648095D01*
X35686904Y-150790952D01*
X35115476Y-151362380D01*
X35734523Y-151362380D01*
X176304761Y-116097619D02*
X176209523Y-116050000D01*
X176114285Y-115954761D01*
X175971428Y-115811904D01*
X175876190Y-115764285D01*
X175780952Y-115764285D01*
X175828571Y-116002380D02*
X175733333Y-115954761D01*
X175638095Y-115859523D01*
X175590476Y-115669047D01*
X175590476Y-115335714D01*
X175638095Y-115145238D01*
X175733333Y-115050000D01*
X175828571Y-115002380D01*
X176019047Y-115002380D01*
X176114285Y-115050000D01*
X176209523Y-115145238D01*
X176257142Y-115335714D01*
X176257142Y-115669047D01*
X176209523Y-115859523D01*
X176114285Y-115954761D01*
X176019047Y-116002380D01*
X175828571Y-116002380D01*
X177209523Y-116002380D02*
X176638095Y-116002380D01*
X176923809Y-116002380D02*
X176923809Y-115002380D01*
X176828571Y-115145238D01*
X176733333Y-115240476D01*
X176638095Y-115288095D01*
X140847619Y-128214285D02*
X140800000Y-128166666D01*
X140752380Y-128071428D01*
X140752380Y-127833333D01*
X140800000Y-127738095D01*
X140847619Y-127690476D01*
X140942857Y-127642857D01*
X141038095Y-127642857D01*
X141180952Y-127690476D01*
X141752380Y-128261904D01*
X141752380Y-127642857D01*
X141752380Y-127214285D02*
X140752380Y-127214285D01*
X141752380Y-126642857D01*
X140752380Y-126642857D01*
X140752380Y-126261904D02*
X140752380Y-125642857D01*
X141133333Y-125976190D01*
X141133333Y-125833333D01*
X141180952Y-125738095D01*
X141228571Y-125690476D01*
X141323809Y-125642857D01*
X141561904Y-125642857D01*
X141657142Y-125690476D01*
X141704761Y-125738095D01*
X141752380Y-125833333D01*
X141752380Y-126119047D01*
X141704761Y-126214285D01*
X141657142Y-126261904D01*
X140752380Y-125023809D02*
X140752380Y-124928571D01*
X140800000Y-124833333D01*
X140847619Y-124785714D01*
X140942857Y-124738095D01*
X141133333Y-124690476D01*
X141371428Y-124690476D01*
X141561904Y-124738095D01*
X141657142Y-124785714D01*
X141704761Y-124833333D01*
X141752380Y-124928571D01*
X141752380Y-125023809D01*
X141704761Y-125119047D01*
X141657142Y-125166666D01*
X141561904Y-125214285D01*
X141371428Y-125261904D01*
X141133333Y-125261904D01*
X140942857Y-125214285D01*
X140847619Y-125166666D01*
X140800000Y-125119047D01*
X140752380Y-125023809D01*
X140752380Y-123785714D02*
X140752380Y-124261904D01*
X141228571Y-124309523D01*
X141180952Y-124261904D01*
X141133333Y-124166666D01*
X141133333Y-123928571D01*
X141180952Y-123833333D01*
X141228571Y-123785714D01*
X141323809Y-123738095D01*
X141561904Y-123738095D01*
X141657142Y-123785714D01*
X141704761Y-123833333D01*
X141752380Y-123928571D01*
X141752380Y-124166666D01*
X141704761Y-124261904D01*
X141657142Y-124309523D01*
X140752380Y-122833333D02*
X140752380Y-123309523D01*
X141228571Y-123357142D01*
X141180952Y-123309523D01*
X141133333Y-123214285D01*
X141133333Y-122976190D01*
X141180952Y-122880952D01*
X141228571Y-122833333D01*
X141323809Y-122785714D01*
X141561904Y-122785714D01*
X141657142Y-122833333D01*
X141704761Y-122880952D01*
X141752380Y-122976190D01*
X141752380Y-123214285D01*
X141704761Y-123309523D01*
X141657142Y-123357142D01*
X176304761Y-70097619D02*
X176209523Y-70050000D01*
X176114285Y-69954761D01*
X175971428Y-69811904D01*
X175876190Y-69764285D01*
X175780952Y-69764285D01*
X175828571Y-70002380D02*
X175733333Y-69954761D01*
X175638095Y-69859523D01*
X175590476Y-69669047D01*
X175590476Y-69335714D01*
X175638095Y-69145238D01*
X175733333Y-69050000D01*
X175828571Y-69002380D01*
X176019047Y-69002380D01*
X176114285Y-69050000D01*
X176209523Y-69145238D01*
X176257142Y-69335714D01*
X176257142Y-69669047D01*
X176209523Y-69859523D01*
X176114285Y-69954761D01*
X176019047Y-70002380D01*
X175828571Y-70002380D01*
X176638095Y-69097619D02*
X176685714Y-69050000D01*
X176780952Y-69002380D01*
X177019047Y-69002380D01*
X177114285Y-69050000D01*
X177161904Y-69097619D01*
X177209523Y-69192857D01*
X177209523Y-69288095D01*
X177161904Y-69430952D01*
X176590476Y-70002380D01*
X177209523Y-70002380D01*
X140747619Y-93414285D02*
X140700000Y-93366666D01*
X140652380Y-93271428D01*
X140652380Y-93033333D01*
X140700000Y-92938095D01*
X140747619Y-92890476D01*
X140842857Y-92842857D01*
X140938095Y-92842857D01*
X141080952Y-92890476D01*
X141652380Y-93461904D01*
X141652380Y-92842857D01*
X141652380Y-92414285D02*
X140652380Y-92414285D01*
X141652380Y-91842857D01*
X140652380Y-91842857D01*
X140652380Y-91461904D02*
X140652380Y-90842857D01*
X141033333Y-91176190D01*
X141033333Y-91033333D01*
X141080952Y-90938095D01*
X141128571Y-90890476D01*
X141223809Y-90842857D01*
X141461904Y-90842857D01*
X141557142Y-90890476D01*
X141604761Y-90938095D01*
X141652380Y-91033333D01*
X141652380Y-91319047D01*
X141604761Y-91414285D01*
X141557142Y-91461904D01*
X140652380Y-90223809D02*
X140652380Y-90128571D01*
X140700000Y-90033333D01*
X140747619Y-89985714D01*
X140842857Y-89938095D01*
X141033333Y-89890476D01*
X141271428Y-89890476D01*
X141461904Y-89938095D01*
X141557142Y-89985714D01*
X141604761Y-90033333D01*
X141652380Y-90128571D01*
X141652380Y-90223809D01*
X141604761Y-90319047D01*
X141557142Y-90366666D01*
X141461904Y-90414285D01*
X141271428Y-90461904D01*
X141033333Y-90461904D01*
X140842857Y-90414285D01*
X140747619Y-90366666D01*
X140700000Y-90319047D01*
X140652380Y-90223809D01*
X140652380Y-88985714D02*
X140652380Y-89461904D01*
X141128571Y-89509523D01*
X141080952Y-89461904D01*
X141033333Y-89366666D01*
X141033333Y-89128571D01*
X141080952Y-89033333D01*
X141128571Y-88985714D01*
X141223809Y-88938095D01*
X141461904Y-88938095D01*
X141557142Y-88985714D01*
X141604761Y-89033333D01*
X141652380Y-89128571D01*
X141652380Y-89366666D01*
X141604761Y-89461904D01*
X141557142Y-89509523D01*
X140652380Y-88033333D02*
X140652380Y-88509523D01*
X141128571Y-88557142D01*
X141080952Y-88509523D01*
X141033333Y-88414285D01*
X141033333Y-88176190D01*
X141080952Y-88080952D01*
X141128571Y-88033333D01*
X141223809Y-87985714D01*
X141461904Y-87985714D01*
X141557142Y-88033333D01*
X141604761Y-88080952D01*
X141652380Y-88176190D01*
X141652380Y-88414285D01*
X141604761Y-88509523D01*
X141557142Y-88557142D01*
X99599761Y-131147619D02*
X99504523Y-131100000D01*
X99409285Y-131004761D01*
X99266428Y-130861904D01*
X99171190Y-130814285D01*
X99075952Y-130814285D01*
X99123571Y-131052380D02*
X99028333Y-131004761D01*
X98933095Y-130909523D01*
X98885476Y-130719047D01*
X98885476Y-130385714D01*
X98933095Y-130195238D01*
X99028333Y-130100000D01*
X99123571Y-130052380D01*
X99314047Y-130052380D01*
X99409285Y-130100000D01*
X99504523Y-130195238D01*
X99552142Y-130385714D01*
X99552142Y-130719047D01*
X99504523Y-130909523D01*
X99409285Y-131004761D01*
X99314047Y-131052380D01*
X99123571Y-131052380D01*
X100409285Y-130385714D02*
X100409285Y-131052380D01*
X100171190Y-130004761D02*
X99933095Y-130719047D01*
X100552142Y-130719047D01*
X97837857Y-138568571D02*
X97980714Y-138616190D01*
X98028333Y-138663809D01*
X98075952Y-138759047D01*
X98075952Y-138901904D01*
X98028333Y-138997142D01*
X97980714Y-139044761D01*
X97885476Y-139092380D01*
X97504523Y-139092380D01*
X97504523Y-138092380D01*
X97837857Y-138092380D01*
X97933095Y-138140000D01*
X97980714Y-138187619D01*
X98028333Y-138282857D01*
X98028333Y-138378095D01*
X97980714Y-138473333D01*
X97933095Y-138520952D01*
X97837857Y-138568571D01*
X97504523Y-138568571D01*
X99075952Y-138997142D02*
X99028333Y-139044761D01*
X98885476Y-139092380D01*
X98790238Y-139092380D01*
X98647380Y-139044761D01*
X98552142Y-138949523D01*
X98504523Y-138854285D01*
X98456904Y-138663809D01*
X98456904Y-138520952D01*
X98504523Y-138330476D01*
X98552142Y-138235238D01*
X98647380Y-138140000D01*
X98790238Y-138092380D01*
X98885476Y-138092380D01*
X99028333Y-138140000D01*
X99075952Y-138187619D01*
X100028333Y-139092380D02*
X99456904Y-139092380D01*
X99742619Y-139092380D02*
X99742619Y-138092380D01*
X99647380Y-138235238D01*
X99552142Y-138330476D01*
X99456904Y-138378095D01*
X100647380Y-138092380D02*
X100742619Y-138092380D01*
X100837857Y-138140000D01*
X100885476Y-138187619D01*
X100933095Y-138282857D01*
X100980714Y-138473333D01*
X100980714Y-138711428D01*
X100933095Y-138901904D01*
X100885476Y-138997142D01*
X100837857Y-139044761D01*
X100742619Y-139092380D01*
X100647380Y-139092380D01*
X100552142Y-139044761D01*
X100504523Y-138997142D01*
X100456904Y-138901904D01*
X100409285Y-138711428D01*
X100409285Y-138473333D01*
X100456904Y-138282857D01*
X100504523Y-138187619D01*
X100552142Y-138140000D01*
X100647380Y-138092380D01*
X101552142Y-138520952D02*
X101456904Y-138473333D01*
X101409285Y-138425714D01*
X101361666Y-138330476D01*
X101361666Y-138282857D01*
X101409285Y-138187619D01*
X101456904Y-138140000D01*
X101552142Y-138092380D01*
X101742619Y-138092380D01*
X101837857Y-138140000D01*
X101885476Y-138187619D01*
X101933095Y-138282857D01*
X101933095Y-138330476D01*
X101885476Y-138425714D01*
X101837857Y-138473333D01*
X101742619Y-138520952D01*
X101552142Y-138520952D01*
X101456904Y-138568571D01*
X101409285Y-138616190D01*
X101361666Y-138711428D01*
X101361666Y-138901904D01*
X101409285Y-138997142D01*
X101456904Y-139044761D01*
X101552142Y-139092380D01*
X101742619Y-139092380D01*
X101837857Y-139044761D01*
X101885476Y-138997142D01*
X101933095Y-138901904D01*
X101933095Y-138711428D01*
X101885476Y-138616190D01*
X101837857Y-138568571D01*
X101742619Y-138520952D01*
X97097142Y-106926666D02*
X97144761Y-106974285D01*
X97192380Y-107117142D01*
X97192380Y-107212380D01*
X97144761Y-107355238D01*
X97049523Y-107450476D01*
X96954285Y-107498095D01*
X96763809Y-107545714D01*
X96620952Y-107545714D01*
X96430476Y-107498095D01*
X96335238Y-107450476D01*
X96240000Y-107355238D01*
X96192380Y-107212380D01*
X96192380Y-107117142D01*
X96240000Y-106974285D01*
X96287619Y-106926666D01*
X97192380Y-105974285D02*
X97192380Y-106545714D01*
X97192380Y-106260000D02*
X96192380Y-106260000D01*
X96335238Y-106355238D01*
X96430476Y-106450476D01*
X96478095Y-106545714D01*
X69157142Y-106926666D02*
X69204761Y-106974285D01*
X69252380Y-107117142D01*
X69252380Y-107212380D01*
X69204761Y-107355238D01*
X69109523Y-107450476D01*
X69014285Y-107498095D01*
X68823809Y-107545714D01*
X68680952Y-107545714D01*
X68490476Y-107498095D01*
X68395238Y-107450476D01*
X68300000Y-107355238D01*
X68252380Y-107212380D01*
X68252380Y-107117142D01*
X68300000Y-106974285D01*
X68347619Y-106926666D01*
X68347619Y-106545714D02*
X68300000Y-106498095D01*
X68252380Y-106402857D01*
X68252380Y-106164761D01*
X68300000Y-106069523D01*
X68347619Y-106021904D01*
X68442857Y-105974285D01*
X68538095Y-105974285D01*
X68680952Y-106021904D01*
X69252380Y-106593333D01*
X69252380Y-105974285D01*
X69157142Y-78986666D02*
X69204761Y-79034285D01*
X69252380Y-79177142D01*
X69252380Y-79272380D01*
X69204761Y-79415238D01*
X69109523Y-79510476D01*
X69014285Y-79558095D01*
X68823809Y-79605714D01*
X68680952Y-79605714D01*
X68490476Y-79558095D01*
X68395238Y-79510476D01*
X68300000Y-79415238D01*
X68252380Y-79272380D01*
X68252380Y-79177142D01*
X68300000Y-79034285D01*
X68347619Y-78986666D01*
X68252380Y-78653333D02*
X68252380Y-78034285D01*
X68633333Y-78367619D01*
X68633333Y-78224761D01*
X68680952Y-78129523D01*
X68728571Y-78081904D01*
X68823809Y-78034285D01*
X69061904Y-78034285D01*
X69157142Y-78081904D01*
X69204761Y-78129523D01*
X69252380Y-78224761D01*
X69252380Y-78510476D01*
X69204761Y-78605714D01*
X69157142Y-78653333D01*
X97097142Y-78986666D02*
X97144761Y-79034285D01*
X97192380Y-79177142D01*
X97192380Y-79272380D01*
X97144761Y-79415238D01*
X97049523Y-79510476D01*
X96954285Y-79558095D01*
X96763809Y-79605714D01*
X96620952Y-79605714D01*
X96430476Y-79558095D01*
X96335238Y-79510476D01*
X96240000Y-79415238D01*
X96192380Y-79272380D01*
X96192380Y-79177142D01*
X96240000Y-79034285D01*
X96287619Y-78986666D01*
X96525714Y-78129523D02*
X97192380Y-78129523D01*
X96144761Y-78367619D02*
X96859047Y-78605714D01*
X96859047Y-77986666D01*
X123087142Y-126571666D02*
X123134761Y-126619285D01*
X123182380Y-126762142D01*
X123182380Y-126857380D01*
X123134761Y-127000238D01*
X123039523Y-127095476D01*
X122944285Y-127143095D01*
X122753809Y-127190714D01*
X122610952Y-127190714D01*
X122420476Y-127143095D01*
X122325238Y-127095476D01*
X122230000Y-127000238D01*
X122182380Y-126857380D01*
X122182380Y-126762142D01*
X122230000Y-126619285D01*
X122277619Y-126571666D01*
X122182380Y-125666904D02*
X122182380Y-126143095D01*
X122658571Y-126190714D01*
X122610952Y-126143095D01*
X122563333Y-126047857D01*
X122563333Y-125809761D01*
X122610952Y-125714523D01*
X122658571Y-125666904D01*
X122753809Y-125619285D01*
X122991904Y-125619285D01*
X123087142Y-125666904D01*
X123134761Y-125714523D01*
X123182380Y-125809761D01*
X123182380Y-126047857D01*
X123134761Y-126143095D01*
X123087142Y-126190714D01*
X132257142Y-98066666D02*
X132304761Y-98114285D01*
X132352380Y-98257142D01*
X132352380Y-98352380D01*
X132304761Y-98495238D01*
X132209523Y-98590476D01*
X132114285Y-98638095D01*
X131923809Y-98685714D01*
X131780952Y-98685714D01*
X131590476Y-98638095D01*
X131495238Y-98590476D01*
X131400000Y-98495238D01*
X131352380Y-98352380D01*
X131352380Y-98257142D01*
X131400000Y-98114285D01*
X131447619Y-98066666D01*
X131352380Y-97209523D02*
X131352380Y-97400000D01*
X131400000Y-97495238D01*
X131447619Y-97542857D01*
X131590476Y-97638095D01*
X131780952Y-97685714D01*
X132161904Y-97685714D01*
X132257142Y-97638095D01*
X132304761Y-97590476D01*
X132352380Y-97495238D01*
X132352380Y-97304761D01*
X132304761Y-97209523D01*
X132257142Y-97161904D01*
X132161904Y-97114285D01*
X131923809Y-97114285D01*
X131828571Y-97161904D01*
X131780952Y-97209523D01*
X131733333Y-97304761D01*
X131733333Y-97495238D01*
X131780952Y-97590476D01*
X131828571Y-97638095D01*
X131923809Y-97685714D01*
X117348333Y-157007142D02*
X117300714Y-157054761D01*
X117157857Y-157102380D01*
X117062619Y-157102380D01*
X116919761Y-157054761D01*
X116824523Y-156959523D01*
X116776904Y-156864285D01*
X116729285Y-156673809D01*
X116729285Y-156530952D01*
X116776904Y-156340476D01*
X116824523Y-156245238D01*
X116919761Y-156150000D01*
X117062619Y-156102380D01*
X117157857Y-156102380D01*
X117300714Y-156150000D01*
X117348333Y-156197619D01*
X117681666Y-156102380D02*
X118348333Y-156102380D01*
X117919761Y-157102380D01*
X48102142Y-144351666D02*
X48149761Y-144399285D01*
X48197380Y-144542142D01*
X48197380Y-144637380D01*
X48149761Y-144780238D01*
X48054523Y-144875476D01*
X47959285Y-144923095D01*
X47768809Y-144970714D01*
X47625952Y-144970714D01*
X47435476Y-144923095D01*
X47340238Y-144875476D01*
X47245000Y-144780238D01*
X47197380Y-144637380D01*
X47197380Y-144542142D01*
X47245000Y-144399285D01*
X47292619Y-144351666D01*
X47625952Y-143780238D02*
X47578333Y-143875476D01*
X47530714Y-143923095D01*
X47435476Y-143970714D01*
X47387857Y-143970714D01*
X47292619Y-143923095D01*
X47245000Y-143875476D01*
X47197380Y-143780238D01*
X47197380Y-143589761D01*
X47245000Y-143494523D01*
X47292619Y-143446904D01*
X47387857Y-143399285D01*
X47435476Y-143399285D01*
X47530714Y-143446904D01*
X47578333Y-143494523D01*
X47625952Y-143589761D01*
X47625952Y-143780238D01*
X47673571Y-143875476D01*
X47721190Y-143923095D01*
X47816428Y-143970714D01*
X48006904Y-143970714D01*
X48102142Y-143923095D01*
X48149761Y-143875476D01*
X48197380Y-143780238D01*
X48197380Y-143589761D01*
X48149761Y-143494523D01*
X48102142Y-143446904D01*
X48006904Y-143399285D01*
X47816428Y-143399285D01*
X47721190Y-143446904D01*
X47673571Y-143494523D01*
X47625952Y-143589761D01*
X60052380Y-92178095D02*
X59052380Y-92178095D01*
X59052380Y-91940000D01*
X59100000Y-91797142D01*
X59195238Y-91701904D01*
X59290476Y-91654285D01*
X59480952Y-91606666D01*
X59623809Y-91606666D01*
X59814285Y-91654285D01*
X59909523Y-91701904D01*
X60004761Y-91797142D01*
X60052380Y-91940000D01*
X60052380Y-92178095D01*
X60052380Y-90654285D02*
X60052380Y-91225714D01*
X60052380Y-90940000D02*
X59052380Y-90940000D01*
X59195238Y-91035238D01*
X59290476Y-91130476D01*
X59338095Y-91225714D01*
X58932380Y-84081904D02*
X57932380Y-84081904D01*
X58932380Y-83510476D02*
X58360952Y-83939047D01*
X57932380Y-83510476D02*
X58503809Y-84081904D01*
X52432380Y-92178095D02*
X51432380Y-92178095D01*
X51432380Y-91940000D01*
X51480000Y-91797142D01*
X51575238Y-91701904D01*
X51670476Y-91654285D01*
X51860952Y-91606666D01*
X52003809Y-91606666D01*
X52194285Y-91654285D01*
X52289523Y-91701904D01*
X52384761Y-91797142D01*
X52432380Y-91940000D01*
X52432380Y-92178095D01*
X51527619Y-91225714D02*
X51480000Y-91178095D01*
X51432380Y-91082857D01*
X51432380Y-90844761D01*
X51480000Y-90749523D01*
X51527619Y-90701904D01*
X51622857Y-90654285D01*
X51718095Y-90654285D01*
X51860952Y-90701904D01*
X52432380Y-91273333D01*
X52432380Y-90654285D01*
X51312380Y-84081904D02*
X50312380Y-84081904D01*
X51312380Y-83510476D02*
X50740952Y-83939047D01*
X50312380Y-83510476D02*
X50883809Y-84081904D01*
X60052380Y-115038095D02*
X59052380Y-115038095D01*
X59052380Y-114800000D01*
X59100000Y-114657142D01*
X59195238Y-114561904D01*
X59290476Y-114514285D01*
X59480952Y-114466666D01*
X59623809Y-114466666D01*
X59814285Y-114514285D01*
X59909523Y-114561904D01*
X60004761Y-114657142D01*
X60052380Y-114800000D01*
X60052380Y-115038095D01*
X59052380Y-114133333D02*
X59052380Y-113514285D01*
X59433333Y-113847619D01*
X59433333Y-113704761D01*
X59480952Y-113609523D01*
X59528571Y-113561904D01*
X59623809Y-113514285D01*
X59861904Y-113514285D01*
X59957142Y-113561904D01*
X60004761Y-113609523D01*
X60052380Y-113704761D01*
X60052380Y-113990476D01*
X60004761Y-114085714D01*
X59957142Y-114133333D01*
X58932380Y-106941904D02*
X57932380Y-106941904D01*
X58932380Y-106370476D02*
X58360952Y-106799047D01*
X57932380Y-106370476D02*
X58503809Y-106941904D01*
X52432380Y-115038095D02*
X51432380Y-115038095D01*
X51432380Y-114800000D01*
X51480000Y-114657142D01*
X51575238Y-114561904D01*
X51670476Y-114514285D01*
X51860952Y-114466666D01*
X52003809Y-114466666D01*
X52194285Y-114514285D01*
X52289523Y-114561904D01*
X52384761Y-114657142D01*
X52432380Y-114800000D01*
X52432380Y-115038095D01*
X51765714Y-113609523D02*
X52432380Y-113609523D01*
X51384761Y-113847619D02*
X52099047Y-114085714D01*
X52099047Y-113466666D01*
X51312380Y-106941904D02*
X50312380Y-106941904D01*
X51312380Y-106370476D02*
X50740952Y-106799047D01*
X50312380Y-106370476D02*
X50883809Y-106941904D01*
X126382619Y-141700238D02*
X126335000Y-141795476D01*
X126239761Y-141890714D01*
X126096904Y-142033571D01*
X126049285Y-142128809D01*
X126049285Y-142224047D01*
X126287380Y-142176428D02*
X126239761Y-142271666D01*
X126144523Y-142366904D01*
X125954047Y-142414523D01*
X125620714Y-142414523D01*
X125430238Y-142366904D01*
X125335000Y-142271666D01*
X125287380Y-142176428D01*
X125287380Y-141985952D01*
X125335000Y-141890714D01*
X125430238Y-141795476D01*
X125620714Y-141747857D01*
X125954047Y-141747857D01*
X126144523Y-141795476D01*
X126239761Y-141890714D01*
X126287380Y-141985952D01*
X126287380Y-142176428D01*
X125287380Y-141414523D02*
X125287380Y-140795476D01*
X125668333Y-141128809D01*
X125668333Y-140985952D01*
X125715952Y-140890714D01*
X125763571Y-140843095D01*
X125858809Y-140795476D01*
X126096904Y-140795476D01*
X126192142Y-140843095D01*
X126239761Y-140890714D01*
X126287380Y-140985952D01*
X126287380Y-141271666D01*
X126239761Y-141366904D01*
X126192142Y-141414523D01*
X113742619Y-144319285D02*
X113695000Y-144271666D01*
X113647380Y-144176428D01*
X113647380Y-143938333D01*
X113695000Y-143843095D01*
X113742619Y-143795476D01*
X113837857Y-143747857D01*
X113933095Y-143747857D01*
X114075952Y-143795476D01*
X114647380Y-144366904D01*
X114647380Y-143747857D01*
X114647380Y-143319285D02*
X113647380Y-143319285D01*
X114647380Y-142747857D01*
X113647380Y-142747857D01*
X113980714Y-141843095D02*
X114647380Y-141843095D01*
X113599761Y-142081190D02*
X114314047Y-142319285D01*
X114314047Y-141700238D01*
X113647380Y-141128809D02*
X113647380Y-141033571D01*
X113695000Y-140938333D01*
X113742619Y-140890714D01*
X113837857Y-140843095D01*
X114028333Y-140795476D01*
X114266428Y-140795476D01*
X114456904Y-140843095D01*
X114552142Y-140890714D01*
X114599761Y-140938333D01*
X114647380Y-141033571D01*
X114647380Y-141128809D01*
X114599761Y-141224047D01*
X114552142Y-141271666D01*
X114456904Y-141319285D01*
X114266428Y-141366904D01*
X114028333Y-141366904D01*
X113837857Y-141319285D01*
X113742619Y-141271666D01*
X113695000Y-141224047D01*
X113647380Y-141128809D01*
X113647380Y-140462142D02*
X113647380Y-139843095D01*
X114028333Y-140176428D01*
X114028333Y-140033571D01*
X114075952Y-139938333D01*
X114123571Y-139890714D01*
X114218809Y-139843095D01*
X114456904Y-139843095D01*
X114552142Y-139890714D01*
X114599761Y-139938333D01*
X114647380Y-140033571D01*
X114647380Y-140319285D01*
X114599761Y-140414523D01*
X114552142Y-140462142D01*
X113647380Y-139509761D02*
X113647380Y-138843095D01*
X114647380Y-139271666D01*
X105532619Y-145510238D02*
X105485000Y-145605476D01*
X105389761Y-145700714D01*
X105246904Y-145843571D01*
X105199285Y-145938809D01*
X105199285Y-146034047D01*
X105437380Y-145986428D02*
X105389761Y-146081666D01*
X105294523Y-146176904D01*
X105104047Y-146224523D01*
X104770714Y-146224523D01*
X104580238Y-146176904D01*
X104485000Y-146081666D01*
X104437380Y-145986428D01*
X104437380Y-145795952D01*
X104485000Y-145700714D01*
X104580238Y-145605476D01*
X104770714Y-145557857D01*
X105104047Y-145557857D01*
X105294523Y-145605476D01*
X105389761Y-145700714D01*
X105437380Y-145795952D01*
X105437380Y-145986428D01*
X104437380Y-144653095D02*
X104437380Y-145129285D01*
X104913571Y-145176904D01*
X104865952Y-145129285D01*
X104818333Y-145034047D01*
X104818333Y-144795952D01*
X104865952Y-144700714D01*
X104913571Y-144653095D01*
X105008809Y-144605476D01*
X105246904Y-144605476D01*
X105342142Y-144653095D01*
X105389761Y-144700714D01*
X105437380Y-144795952D01*
X105437380Y-145034047D01*
X105389761Y-145129285D01*
X105342142Y-145176904D01*
X96873571Y-147272142D02*
X96921190Y-147129285D01*
X96968809Y-147081666D01*
X97064047Y-147034047D01*
X97206904Y-147034047D01*
X97302142Y-147081666D01*
X97349761Y-147129285D01*
X97397380Y-147224523D01*
X97397380Y-147605476D01*
X96397380Y-147605476D01*
X96397380Y-147272142D01*
X96445000Y-147176904D01*
X96492619Y-147129285D01*
X96587857Y-147081666D01*
X96683095Y-147081666D01*
X96778333Y-147129285D01*
X96825952Y-147176904D01*
X96873571Y-147272142D01*
X96873571Y-147605476D01*
X97302142Y-146034047D02*
X97349761Y-146081666D01*
X97397380Y-146224523D01*
X97397380Y-146319761D01*
X97349761Y-146462619D01*
X97254523Y-146557857D01*
X97159285Y-146605476D01*
X96968809Y-146653095D01*
X96825952Y-146653095D01*
X96635476Y-146605476D01*
X96540238Y-146557857D01*
X96445000Y-146462619D01*
X96397380Y-146319761D01*
X96397380Y-146224523D01*
X96445000Y-146081666D01*
X96492619Y-146034047D01*
X97397380Y-145081666D02*
X97397380Y-145653095D01*
X97397380Y-145367380D02*
X96397380Y-145367380D01*
X96540238Y-145462619D01*
X96635476Y-145557857D01*
X96683095Y-145653095D01*
X96397380Y-144462619D02*
X96397380Y-144367380D01*
X96445000Y-144272142D01*
X96492619Y-144224523D01*
X96587857Y-144176904D01*
X96778333Y-144129285D01*
X97016428Y-144129285D01*
X97206904Y-144176904D01*
X97302142Y-144224523D01*
X97349761Y-144272142D01*
X97397380Y-144367380D01*
X97397380Y-144462619D01*
X97349761Y-144557857D01*
X97302142Y-144605476D01*
X97206904Y-144653095D01*
X97016428Y-144700714D01*
X96778333Y-144700714D01*
X96587857Y-144653095D01*
X96492619Y-144605476D01*
X96445000Y-144557857D01*
X96397380Y-144462619D01*
X96825952Y-143557857D02*
X96778333Y-143653095D01*
X96730714Y-143700714D01*
X96635476Y-143748333D01*
X96587857Y-143748333D01*
X96492619Y-143700714D01*
X96445000Y-143653095D01*
X96397380Y-143557857D01*
X96397380Y-143367380D01*
X96445000Y-143272142D01*
X96492619Y-143224523D01*
X96587857Y-143176904D01*
X96635476Y-143176904D01*
X96730714Y-143224523D01*
X96778333Y-143272142D01*
X96825952Y-143367380D01*
X96825952Y-143557857D01*
X96873571Y-143653095D01*
X96921190Y-143700714D01*
X97016428Y-143748333D01*
X97206904Y-143748333D01*
X97302142Y-143700714D01*
X97349761Y-143653095D01*
X97397380Y-143557857D01*
X97397380Y-143367380D01*
X97349761Y-143272142D01*
X97302142Y-143224523D01*
X97206904Y-143176904D01*
X97016428Y-143176904D01*
X96921190Y-143224523D01*
X96873571Y-143272142D01*
X96825952Y-143367380D01*
X136722380Y-131611666D02*
X136246190Y-131945000D01*
X136722380Y-132183095D02*
X135722380Y-132183095D01*
X135722380Y-131802142D01*
X135770000Y-131706904D01*
X135817619Y-131659285D01*
X135912857Y-131611666D01*
X136055714Y-131611666D01*
X136150952Y-131659285D01*
X136198571Y-131706904D01*
X136246190Y-131802142D01*
X136246190Y-132183095D01*
X136722380Y-130659285D02*
X136722380Y-131230714D01*
X136722380Y-130945000D02*
X135722380Y-130945000D01*
X135865238Y-131040238D01*
X135960476Y-131135476D01*
X136008095Y-131230714D01*
X132277380Y-111926666D02*
X131801190Y-112260000D01*
X132277380Y-112498095D02*
X131277380Y-112498095D01*
X131277380Y-112117142D01*
X131325000Y-112021904D01*
X131372619Y-111974285D01*
X131467857Y-111926666D01*
X131610714Y-111926666D01*
X131705952Y-111974285D01*
X131753571Y-112021904D01*
X131801190Y-112117142D01*
X131801190Y-112498095D01*
X131372619Y-111545714D02*
X131325000Y-111498095D01*
X131277380Y-111402857D01*
X131277380Y-111164761D01*
X131325000Y-111069523D01*
X131372619Y-111021904D01*
X131467857Y-110974285D01*
X131563095Y-110974285D01*
X131705952Y-111021904D01*
X132277380Y-111593333D01*
X132277380Y-110974285D01*
X208192380Y-132246666D02*
X207716190Y-132580000D01*
X208192380Y-132818095D02*
X207192380Y-132818095D01*
X207192380Y-132437142D01*
X207240000Y-132341904D01*
X207287619Y-132294285D01*
X207382857Y-132246666D01*
X207525714Y-132246666D01*
X207620952Y-132294285D01*
X207668571Y-132341904D01*
X207716190Y-132437142D01*
X207716190Y-132818095D01*
X207192380Y-131913333D02*
X207192380Y-131294285D01*
X207573333Y-131627619D01*
X207573333Y-131484761D01*
X207620952Y-131389523D01*
X207668571Y-131341904D01*
X207763809Y-131294285D01*
X208001904Y-131294285D01*
X208097142Y-131341904D01*
X208144761Y-131389523D01*
X208192380Y-131484761D01*
X208192380Y-131770476D01*
X208144761Y-131865714D01*
X208097142Y-131913333D01*
X208192380Y-87542666D02*
X207716190Y-87876000D01*
X208192380Y-88114095D02*
X207192380Y-88114095D01*
X207192380Y-87733142D01*
X207240000Y-87637904D01*
X207287619Y-87590285D01*
X207382857Y-87542666D01*
X207525714Y-87542666D01*
X207620952Y-87590285D01*
X207668571Y-87637904D01*
X207716190Y-87733142D01*
X207716190Y-88114095D01*
X207525714Y-86685523D02*
X208192380Y-86685523D01*
X207144761Y-86923619D02*
X207859047Y-87161714D01*
X207859047Y-86542666D01*
X76668333Y-154502380D02*
X76335000Y-154026190D01*
X76096904Y-154502380D02*
X76096904Y-153502380D01*
X76477857Y-153502380D01*
X76573095Y-153550000D01*
X76620714Y-153597619D01*
X76668333Y-153692857D01*
X76668333Y-153835714D01*
X76620714Y-153930952D01*
X76573095Y-153978571D01*
X76477857Y-154026190D01*
X76096904Y-154026190D01*
X77573095Y-153502380D02*
X77096904Y-153502380D01*
X77049285Y-153978571D01*
X77096904Y-153930952D01*
X77192142Y-153883333D01*
X77430238Y-153883333D01*
X77525476Y-153930952D01*
X77573095Y-153978571D01*
X77620714Y-154073809D01*
X77620714Y-154311904D01*
X77573095Y-154407142D01*
X77525476Y-154454761D01*
X77430238Y-154502380D01*
X77192142Y-154502380D01*
X77096904Y-154454761D01*
X77049285Y-154407142D01*
X76668333Y-143582380D02*
X76335000Y-143106190D01*
X76096904Y-143582380D02*
X76096904Y-142582380D01*
X76477857Y-142582380D01*
X76573095Y-142630000D01*
X76620714Y-142677619D01*
X76668333Y-142772857D01*
X76668333Y-142915714D01*
X76620714Y-143010952D01*
X76573095Y-143058571D01*
X76477857Y-143106190D01*
X76096904Y-143106190D01*
X77525476Y-142582380D02*
X77335000Y-142582380D01*
X77239761Y-142630000D01*
X77192142Y-142677619D01*
X77096904Y-142820476D01*
X77049285Y-143010952D01*
X77049285Y-143391904D01*
X77096904Y-143487142D01*
X77144523Y-143534761D01*
X77239761Y-143582380D01*
X77430238Y-143582380D01*
X77525476Y-143534761D01*
X77573095Y-143487142D01*
X77620714Y-143391904D01*
X77620714Y-143153809D01*
X77573095Y-143058571D01*
X77525476Y-143010952D01*
X77430238Y-142963333D01*
X77239761Y-142963333D01*
X77144523Y-143010952D01*
X77096904Y-143058571D01*
X77049285Y-143153809D01*
X76668333Y-144342380D02*
X76335000Y-143866190D01*
X76096904Y-144342380D02*
X76096904Y-143342380D01*
X76477857Y-143342380D01*
X76573095Y-143390000D01*
X76620714Y-143437619D01*
X76668333Y-143532857D01*
X76668333Y-143675714D01*
X76620714Y-143770952D01*
X76573095Y-143818571D01*
X76477857Y-143866190D01*
X76096904Y-143866190D01*
X77001666Y-143342380D02*
X77668333Y-143342380D01*
X77239761Y-144342380D01*
X108418333Y-128467380D02*
X108085000Y-127991190D01*
X107846904Y-128467380D02*
X107846904Y-127467380D01*
X108227857Y-127467380D01*
X108323095Y-127515000D01*
X108370714Y-127562619D01*
X108418333Y-127657857D01*
X108418333Y-127800714D01*
X108370714Y-127895952D01*
X108323095Y-127943571D01*
X108227857Y-127991190D01*
X107846904Y-127991190D01*
X108989761Y-127895952D02*
X108894523Y-127848333D01*
X108846904Y-127800714D01*
X108799285Y-127705476D01*
X108799285Y-127657857D01*
X108846904Y-127562619D01*
X108894523Y-127515000D01*
X108989761Y-127467380D01*
X109180238Y-127467380D01*
X109275476Y-127515000D01*
X109323095Y-127562619D01*
X109370714Y-127657857D01*
X109370714Y-127705476D01*
X109323095Y-127800714D01*
X109275476Y-127848333D01*
X109180238Y-127895952D01*
X108989761Y-127895952D01*
X108894523Y-127943571D01*
X108846904Y-127991190D01*
X108799285Y-128086428D01*
X108799285Y-128276904D01*
X108846904Y-128372142D01*
X108894523Y-128419761D01*
X108989761Y-128467380D01*
X109180238Y-128467380D01*
X109275476Y-128419761D01*
X109323095Y-128372142D01*
X109370714Y-128276904D01*
X109370714Y-128086428D01*
X109323095Y-127991190D01*
X109275476Y-127943571D01*
X109180238Y-127895952D01*
X76668333Y-139262380D02*
X76335000Y-138786190D01*
X76096904Y-139262380D02*
X76096904Y-138262380D01*
X76477857Y-138262380D01*
X76573095Y-138310000D01*
X76620714Y-138357619D01*
X76668333Y-138452857D01*
X76668333Y-138595714D01*
X76620714Y-138690952D01*
X76573095Y-138738571D01*
X76477857Y-138786190D01*
X76096904Y-138786190D01*
X77144523Y-139262380D02*
X77335000Y-139262380D01*
X77430238Y-139214761D01*
X77477857Y-139167142D01*
X77573095Y-139024285D01*
X77620714Y-138833809D01*
X77620714Y-138452857D01*
X77573095Y-138357619D01*
X77525476Y-138310000D01*
X77430238Y-138262380D01*
X77239761Y-138262380D01*
X77144523Y-138310000D01*
X77096904Y-138357619D01*
X77049285Y-138452857D01*
X77049285Y-138690952D01*
X77096904Y-138786190D01*
X77144523Y-138833809D01*
X77239761Y-138881428D01*
X77430238Y-138881428D01*
X77525476Y-138833809D01*
X77573095Y-138786190D01*
X77620714Y-138690952D01*
X76192142Y-128467380D02*
X75858809Y-127991190D01*
X75620714Y-128467380D02*
X75620714Y-127467380D01*
X76001666Y-127467380D01*
X76096904Y-127515000D01*
X76144523Y-127562619D01*
X76192142Y-127657857D01*
X76192142Y-127800714D01*
X76144523Y-127895952D01*
X76096904Y-127943571D01*
X76001666Y-127991190D01*
X75620714Y-127991190D01*
X77144523Y-128467380D02*
X76573095Y-128467380D01*
X76858809Y-128467380D02*
X76858809Y-127467380D01*
X76763571Y-127610238D01*
X76668333Y-127705476D01*
X76573095Y-127753095D01*
X77763571Y-127467380D02*
X77858809Y-127467380D01*
X77954047Y-127515000D01*
X78001666Y-127562619D01*
X78049285Y-127657857D01*
X78096904Y-127848333D01*
X78096904Y-128086428D01*
X78049285Y-128276904D01*
X78001666Y-128372142D01*
X77954047Y-128419761D01*
X77858809Y-128467380D01*
X77763571Y-128467380D01*
X77668333Y-128419761D01*
X77620714Y-128372142D01*
X77573095Y-128276904D01*
X77525476Y-128086428D01*
X77525476Y-127848333D01*
X77573095Y-127657857D01*
X77620714Y-127562619D01*
X77668333Y-127515000D01*
X77763571Y-127467380D01*
M02*
