M48
; DRILL file {KiCad (5.1.10-1-10_14)} date Saturday, January 29, 2022 at 05:57:17 PM
; FORMAT={-:-/ absolute / inch / decimal}
; #@! TF.CreationDate,2022-01-29T17:57:17+11:00
; #@! TF.GenerationSoftware,Kicad,Pcbnew,(5.1.10-1-10_14)
; #@! TF.FileFunction,Plated,1,2,PTH
FMAT,2
INCH
T1C0.0197
T2C0.0276
T3C0.0315
T4C0.0354
T5C0.0394
T6C0.0512
T7C0.0591
T8C0.1260
%
G90
G05
T1
X2.7402Y-1.378
X2.7402Y-6.6929
X2.7678Y-1.3111
X2.7678Y-1.4448
X2.7678Y-6.6261
X2.7678Y-6.7597
X2.8346Y-1.2835
X2.8346Y-1.4724
X2.8346Y-6.5984
X2.8346Y-6.7874
X2.9015Y-1.3111
X2.9015Y-1.4448
X2.9015Y-6.6261
X2.9015Y-6.7597
X2.9291Y-1.378
X2.9291Y-6.6929
X8.5669Y-1.378
X8.5669Y-6.6929
X8.5946Y-1.3111
X8.5946Y-1.4448
X8.5946Y-6.6261
X8.5946Y-6.7597
X8.6614Y-1.2835
X8.6614Y-1.4724
X8.6614Y-6.5984
X8.6614Y-6.7874
X8.7282Y-1.3111
X8.7282Y-1.4448
X8.7282Y-6.6261
X8.7282Y-6.7597
X8.7559Y-1.378
X8.7559Y-6.6929
X14.3937Y-1.378
X14.3937Y-6.6929
X14.4214Y-1.3111
X14.4214Y-1.4448
X14.4214Y-6.6261
X14.4214Y-6.7597
X14.4882Y-1.2835
X14.4882Y-1.4724
X14.4882Y-6.5984
X14.4882Y-6.7874
X14.555Y-1.3111
X14.555Y-1.4448
X14.555Y-6.6261
X14.555Y-6.7597
X14.5827Y-1.378
X14.5827Y-6.6929
T2
X2.8831Y-2.3622
X2.9331Y-2.4122
X2.9831Y-2.3622
X3.1496Y-2.3622
X3.1996Y-2.4122
X3.2496Y-2.3622
X3.4154Y-2.3622
X3.4654Y-2.4122
X3.5154Y-2.3622
X3.837Y-2.3524
X3.887Y-2.3024
X3.937Y-2.3524
T3
X2.9331Y-1.7323
X2.9331Y-2.1323
X3.061Y-2.2441
X3.1594Y-4.1929
X3.248Y-1.7421
X3.248Y-2.1421
X3.3366Y-2.6772
X3.3465Y-2.5709
X3.3465Y-2.9709
X3.3465Y-6.437
X3.3563Y-4.1929
X3.3957Y-3.1744
X3.3957Y-3.4744
X3.425Y-4.875
X3.4701Y-2.5787
X3.4744Y-1.7323
X3.4744Y-2.1323
X3.626Y-3.6606
X3.626Y-3.9606
X3.6516Y-4.2177
X3.6516Y-4.5177
X3.6614Y-1.7421
X3.6614Y-2.1421
X3.6959Y-2.6427
X3.7795Y-6.2598
X3.7894Y-3.622
X3.7894Y-3.922
X3.8189Y-4.1193
X3.8189Y-4.4193
X3.8386Y-1.7421
X3.8386Y-2.1421
X3.8701Y-2.5787
X3.8996Y-2.7461
X3.9Y-5.875
X3.95Y-6.375
X4.0551Y-1.7323
X4.0551Y-2.1323
X4.0882Y-2.4311
X4.252Y-1.5748
X4.252Y-1.6748
X4.252Y-1.7748
X4.252Y-1.8748
X4.252Y-1.9748
X4.252Y-2.0748
X4.252Y-2.1748
X4.252Y-2.2638
X4.4094Y-1.437
X4.4882Y-2.4311
X4.552Y-1.5748
X4.552Y-1.6748
X4.552Y-1.7748
X4.552Y-1.8748
X4.552Y-1.9748
X4.552Y-2.0748
X4.552Y-2.1748
X4.6339Y-2.7441
X4.6339Y-3.4843
X4.6949Y-1.7768
X4.6949Y-2.0768
X4.7736Y-2.2638
X4.8071Y-6.5906
X4.8594Y-6.775
X4.872Y-1.4469
X4.872Y-1.8469
X4.975Y-6.3
X4.975Y-6.6
X5.0591Y-1.5748
X5.0591Y-1.6748
X5.0591Y-1.7748
X5.0591Y-1.8748
X5.0591Y-1.9748
X5.0591Y-2.0748
X5.0591Y-2.1748
X5.0591Y-2.2638
X5.0591Y-4.2323
X5.075Y-6.3
X5.075Y-6.6
X5.1476Y-1.7028
X5.175Y-6.3
X5.175Y-6.6
X5.1969Y-2.6673
X5.2067Y-2.4606
X5.275Y-6.3
X5.275Y-6.6
X5.3591Y-1.5748
X5.3591Y-1.6748
X5.3591Y-1.7748
X5.3591Y-1.8748
X5.3591Y-1.9748
X5.3591Y-2.0748
X5.3591Y-2.1748
X5.3693Y-5.876
X5.374Y-1.437
X5.375Y-6.3
X5.375Y-6.6
X5.4331Y-4.9902
X5.45Y-6.775
X5.475Y-6.3
X5.475Y-6.6
X5.5118Y-1.9622
X5.5118Y-2.3622
X5.575Y-6.3
X5.575Y-6.6
X5.575Y-6.775
X5.5906Y-4.8327
X5.6496Y-1.9622
X5.6496Y-2.3622
X5.6693Y-5.876
X5.675Y-6.3
X5.675Y-6.6
X5.7585Y-3.4282
X5.8205Y-2.0669
X5.8205Y-2.2047
X5.8268Y-1.437
X5.8268Y-1.837
X5.8386Y-6.1969
X5.8386Y-6.5969
X5.9205Y-1.9488
X5.9547Y-2.6555
X5.975Y-6.775
X5.9843Y-1.437
X5.9843Y-1.837
X6.0113Y-2.1383
X6.1811Y-1.437
X6.1811Y-1.837
X6.2205Y-1.9488
X6.2205Y-2.0669
X6.2205Y-2.2047
X6.3386Y-3.5433
X6.3583Y-1.5488
X6.3583Y-1.9488
X6.3583Y-2.372
X6.4567Y-5.0098
X6.5354Y-1.5551
X6.5354Y-1.9551
X6.7126Y-1.5551
X6.7126Y-1.6551
X6.7126Y-1.7551
X6.7126Y-1.8551
X6.7126Y-1.9551
X6.7126Y-2.0551
X6.7126Y-2.1551
X6.7126Y-2.2638
X6.752Y-3.4646
X7.0079Y-1.437
X7.0126Y-1.5551
X7.0126Y-1.6551
X7.0126Y-1.7551
X7.0126Y-1.8551
X7.0126Y-1.9551
X7.0126Y-2.0551
X7.0126Y-2.1551
X7.1063Y-3.5433
X7.1063Y-4.3307
X7.1654Y-1.8638
X7.1654Y-2.2638
X7.2441Y-1.6535
X7.2441Y-2.0472
X7.2539Y-2.6575
X7.3031Y-1.437
X7.3031Y-1.837
X7.3031Y-1.9488
X7.3031Y-2.3488
X7.4606Y-1.437
X7.4606Y-1.837
X7.4606Y-1.9488
X7.4606Y-2.3488
X7.5689Y-2.3524
X7.6378Y-2.4016
X7.6378Y-2.6299
X7.6575Y-1.5551
X7.6575Y-1.6551
X7.6575Y-1.7551
X7.6575Y-1.8551
X7.6575Y-1.9551
X7.6575Y-2.0551
X7.6575Y-2.1551
X7.6575Y-2.2638
X7.8051Y-2.3917
X7.8937Y-2.3425
X7.9528Y-1.437
X7.9575Y-1.5551
X7.9575Y-1.6551
X7.9575Y-1.7551
X7.9575Y-1.8551
X7.9575Y-1.9551
X7.9575Y-2.0551
X7.9575Y-2.1551
X7.9849Y-4.2349
X8.2087Y-4.8425
X8.248Y-1.8307
X8.248Y-2.1358
X8.2677Y-2.5787
X8.3071Y-1.7717
X8.3465Y-1.9685
X8.4449Y-1.8898
X8.6417Y-3.4616
X8.6425Y-2.5905
X8.7992Y-4.252
X8.9469Y-4.9213
X9.311Y-5.7185
X9.3209Y-5.0295
X9.3752Y-1.422
X9.3898Y-1.9539
X9.3898Y-2.2539
X9.3898Y-2.4114
X9.4898Y-1.9539
X9.4898Y-2.2539
X9.4933Y-1.8406
X9.5898Y-1.9539
X9.5898Y-2.2539
X9.6898Y-1.9539
X9.6898Y-2.2539
X9.7898Y-1.9539
X9.7898Y-2.2539
X9.7898Y-2.4114
X9.7933Y-1.8406
X9.7933Y-6.1319
X9.8898Y-1.9539
X9.8898Y-2.2539
X9.8917Y-2.4114
X9.9213Y-1.437
X9.9213Y-1.837
X9.9898Y-1.9539
X9.9898Y-2.2539
X10.0886Y-2.4114
X10.0898Y-1.9539
X10.0898Y-2.2539
X10.1575Y-1.6929
X10.185Y-2.8063
X10.185Y-3.1063
X10.2028Y-3.5099
X10.2953Y-3.376
X10.374Y-1.6929
X10.4134Y-3.3071
X10.4724Y-4.0157
X10.6154Y-5.8858
X10.6201Y-4.9114
X10.6224Y-1.9488
X10.6224Y-2.5488
X10.7224Y-1.9488
X10.7224Y-2.5488
X10.8224Y-1.9488
X10.8224Y-2.5488
X10.9154Y-5.8858
X10.9224Y-1.9488
X10.9224Y-2.5488
X11.0224Y-1.9488
X11.0224Y-2.5488
X11.035Y-3.5252
X11.1224Y-1.9488
X11.1224Y-2.5488
X11.2224Y-1.9488
X11.2224Y-2.5488
X11.3091Y-4.0157
X11.3224Y-1.9488
X11.3224Y-2.5488
X11.3878Y-3.376
X11.4224Y-1.9488
X11.4224Y-2.5488
X11.5224Y-1.9488
X11.5224Y-2.5488
X11.6224Y-1.9488
X11.6224Y-2.5488
X11.7142Y-3.463
X11.7224Y-1.9488
X11.7224Y-2.5488
X11.8898Y-1.5291
X11.8898Y-1.9291
X11.9488Y-3.376
X12.1358Y-4.9705
X12.4819Y-3.5252
X12.5Y-1.5551
X12.5Y-1.6551
X12.5Y-1.7551
X12.5Y-1.8551
X12.5Y-1.9551
X12.5Y-2.0551
X12.5Y-2.1551
X12.5Y-2.2551
X12.5Y-2.3819
X12.7165Y-5.0591
X12.8Y-1.422
X12.8Y-1.5551
X12.8Y-1.6551
X12.8Y-1.7551
X12.8Y-1.8551
X12.8Y-1.9551
X12.8Y-2.0551
X12.8Y-2.1551
X12.8Y-2.2551
X12.9331Y-2.3819
X13.1496Y-3.3071
X13.1693Y-1.6929
X13.4402Y-1.5551
X13.4402Y-1.6551
X13.4402Y-1.7551
X13.4402Y-1.8551
X13.4402Y-1.9551
X13.4402Y-2.0551
X13.4402Y-2.1551
X13.7354Y-1.422
X13.7402Y-1.5551
X13.7402Y-1.6551
X13.7402Y-1.7551
X13.7402Y-1.8551
X13.7402Y-1.9551
X13.7402Y-2.0551
X13.7402Y-2.1551
X13.8142Y-3.4646
X14.1142Y-3.4646
X14.4193Y-4.4488
X14.4193Y-4.7488
X14.4685Y-1.752
T4
X3.4728Y-1.5551
X3.5728Y-1.5551
T5
X3.8583Y-1.565
X4.0551Y-1.565
X9.1535Y-1.6634
X9.1535Y-2.2539
X12.963Y-1.2795
X13.063Y-1.2795
X13.163Y-1.2795
X13.263Y-1.2795
X13.363Y-1.2795
X13.463Y-1.2795
X13.563Y-1.2795
X13.663Y-1.2795
T6
X12.0654Y-1.4291
X12.1654Y-1.9291
X12.1654Y-2.0791
X12.1654Y-2.2291
X12.2654Y-1.4291
T7
X2.8776Y-2.9709
X3.0626Y-5.9827
X3.0665Y-3.7228
X3.1276Y-2.8709
X3.1594Y-4.474
X3.3126Y-5.8827
X3.3165Y-3.6228
X3.3421Y-5.2268
X3.4094Y-4.374
X3.5921Y-5.1268
X3.6295Y-2.9709
X3.8795Y-2.8709
X4.0114Y-3.7228
X4.1925Y-4.4748
X4.1925Y-5.9827
X4.2614Y-3.6228
X4.3815Y-2.9709
X4.4425Y-4.3748
X4.4425Y-5.8827
X4.5626Y-5.2268
X4.6315Y-2.8709
X4.7634Y-3.7228
X4.8126Y-5.1268
X4.9406Y-4.4748
X5.0134Y-3.6228
X5.1335Y-2.9709
X5.1906Y-4.3748
X5.3146Y-5.2268
X5.3835Y-2.8709
X5.5154Y-3.7228
X5.5646Y-5.1268
X5.6925Y-4.4748
X5.7654Y-3.6228
X5.8854Y-2.9709
X5.9425Y-4.3748
X6.0665Y-5.2268
X6.1354Y-2.8709
X6.2673Y-3.7228
X6.3165Y-5.1268
X6.4445Y-4.4748
X6.5173Y-3.6228
X6.6374Y-2.9709
X6.6945Y-4.3748
X6.8185Y-5.2268
X6.8874Y-2.8709
X7.0193Y-3.7228
X7.0685Y-5.1268
X7.1965Y-4.4748
X7.2693Y-3.6228
X7.3894Y-2.9709
X7.4465Y-4.3748
X7.5705Y-5.2268
X7.6394Y-2.8709
X7.7673Y-3.7228
X7.8205Y-5.1268
X7.9484Y-4.4748
X7.9492Y-5.9827
X8.0173Y-3.6228
X8.1413Y-2.9709
X8.1984Y-4.3748
X8.1992Y-5.8827
X8.3224Y-5.2268
X8.3913Y-2.8709
X8.5193Y-3.7228
X8.5724Y-5.1268
X8.7004Y-4.4748
X8.7693Y-3.6228
X8.8933Y-2.9709
X8.9504Y-4.3748
X9.0744Y-5.2268
X9.1433Y-2.8709
X9.2697Y-3.722
X9.3244Y-5.1268
X9.4524Y-4.4748
X9.5197Y-3.622
X9.6453Y-2.9709
X9.7024Y-4.3748
X9.8303Y-5.2268
X9.8953Y-2.8709
X10.0177Y-3.722
X10.0803Y-5.1268
X10.2043Y-4.4748
X10.2677Y-3.622
X10.3972Y-2.9709
X10.4543Y-4.3748
X10.5823Y-5.2268
X10.6472Y-2.8709
X10.7697Y-3.722
X10.8323Y-5.1268
X10.9563Y-4.4748
X11.0197Y-3.622
X11.1453Y-2.9709
X11.2063Y-4.3748
X11.3343Y-5.2268
X11.3953Y-2.8709
X11.5217Y-3.722
X11.5843Y-5.1268
X11.7083Y-4.4748
X11.7717Y-3.622
X11.8972Y-2.9709
X11.9583Y-4.3748
X12.1472Y-2.8709
X12.2736Y-3.722
X12.4602Y-4.4748
X12.5236Y-3.622
X12.6453Y-2.9709
X12.7102Y-4.3748
X12.8343Y-5.9827
X12.8953Y-2.8709
X13.0256Y-3.7228
X13.0843Y-5.8827
X13.2756Y-3.6228
X13.6791Y-4.4748
X13.6807Y-5.2268
X13.7713Y-2.9709
X13.9291Y-4.3748
X13.9307Y-5.1268
X13.9602Y-3.7228
X13.9626Y-5.9819
X14.0213Y-2.8709
X14.2102Y-3.6228
X14.2126Y-5.8819
T8
X2.8346Y-1.378
X2.8346Y-6.6929
X8.6614Y-1.378
X8.6614Y-6.6929
X14.4882Y-1.378
X14.4882Y-6.6929
T0
M30
