  0
SECTION
  2
HEADER
  9
$ANGBASE
  50
0.0
  9
$ANGDIR
  70
1
  9
$MEASUREMENT
  70
0
  0
ENDSEC
  0
SECTION
  2
TABLES
  0
TABLE
  2
LTYPE
  70
4
  0
LTYPE
  5
40F
  2
CONTINUOUS
  70
0
  3
Solid line
  72
65
  73
0
  40
0.0
  0
LTYPE
  5
410
  2
DASHDOT
 70
0
  3
Dash Dot ____ _ ____ _
 72
65
 73
4
 40
2.0
 49
1.25
 49
-0.25
 49
0.25
 49
-0.25
  0
LTYPE
  5
411
  2
DASHED
 70
0
  3
Dashed __ __ __ __ __
 72
65
 73
2
 40
0.75
 49
0.5
 49
-0.25
  0
LTYPE
  5
43B
  2
DOTTED
 70
0
  3
Dotted .  .  .  .
 72
65
 73
2
 40
0.2
 49
0.0
 49
-0.2
  0
ENDTAB
  0
TABLE
  2
STYLE
  70
4
  0
STYLE
  2
KICAD
  70
0
  40
0
  41
1
  42
1
  50
0
  71
0
  3
isocp.shx
  0
STYLE
  2
KICADB
  70
0
  40
0
  41
1
  42
1
  50
0
  71
0
  3
isocp.shx
  0
STYLE
  2
KICADI
  70
0
  40
0
  41
1
  42
1
  50
15
  71
0
  3
isocp.shx
  0
STYLE
  2
KICADBI
  70
0
  40
0
  41
1
  42
1
  50
15
  71
0
  3
isocp.shx
  0
ENDTAB
  0
TABLE
  2
LAYER
  70
1
  0
LAYER
  2
BLACK
  70
0
  62
7
  6
CONTINUOUS
  0
ENDTAB
  0
ENDSEC
  0
SECTION
  2
ENTITIES
0
LINE
8
BLACK
6
CONTINUOUS
10
2.6378
20
-6.88976
11
2.6378
21
-1.1811
0
LINE
8
BLACK
6
CONTINUOUS
10
14.685
20
-6.88976
11
14.3307
21
-6.88976
0
LINE
8
BLACK
6
CONTINUOUS
10
14.685
20
-1.1811
11
14.685
21
-6.88976
0
LINE
8
BLACK
6
CONTINUOUS
10
14.3307
20
-1.1811
11
14.685
21
-1.1811
0
LINE
8
BLACK
6
CONTINUOUS
10
14.3307
20
-1.1811
11
2.6378
21
-1.1811
0
LINE
8
BLACK
6
CONTINUOUS
10
2.6378
20
-6.88976
11
14.3307
21
-6.88976
0
LINE
8
BLACK
6
CONTINUOUS
10
2.79409
20
-3.0374
11
2.86102
21
-3.10433
0
LINE
8
BLACK
6
CONTINUOUS
10
2.86102
20
-3.0374
11
2.79409
21
-3.10433
0
LINE
8
BLACK
6
CONTINUOUS
10
2.97913
20
-6.04921
11
3.04606
21
-6.11614
0
LINE
8
BLACK
6
CONTINUOUS
10
3.04606
20
-6.04921
11
2.97913
21
-6.11614
0
LINE
8
BLACK
6
CONTINUOUS
10
2.98307
20
-3.78937
11
3.05
21
-3.8563
0
LINE
8
BLACK
6
CONTINUOUS
10
3.05
20
-3.78937
11
2.98307
21
-3.8563
0
LINE
8
BLACK
6
CONTINUOUS
10
3.07598
20
-4.54055
11
3.14291
21
-4.60748
0
LINE
8
BLACK
6
CONTINUOUS
10
3.14291
20
-4.54055
11
3.07598
21
-4.60748
0
LINE
8
BLACK
6
CONTINUOUS
10
3.19409
20
-3.0374
11
3.26102
21
-3.10433
0
LINE
8
BLACK
6
CONTINUOUS
10
3.26102
20
-3.0374
11
3.19409
21
-3.10433
0
LINE
8
BLACK
6
CONTINUOUS
10
3.25866
20
-5.29331
11
3.32559
21
-5.36024
0
LINE
8
BLACK
6
CONTINUOUS
10
3.32559
20
-5.29331
11
3.25866
21
-5.36024
0
LINE
8
BLACK
6
CONTINUOUS
10
3.37913
20
-6.04921
11
3.44606
21
-6.11614
0
LINE
8
BLACK
6
CONTINUOUS
10
3.44606
20
-6.04921
11
3.37913
21
-6.11614
0
LINE
8
BLACK
6
CONTINUOUS
10
3.38307
20
-3.78937
11
3.45
21
-3.8563
0
LINE
8
BLACK
6
CONTINUOUS
10
3.45
20
-3.78937
11
3.38307
21
-3.8563
0
LINE
8
BLACK
6
CONTINUOUS
10
3.47598
20
-4.54055
11
3.54291
21
-4.60748
0
LINE
8
BLACK
6
CONTINUOUS
10
3.54291
20
-4.54055
11
3.47598
21
-4.60748
0
LINE
8
BLACK
6
CONTINUOUS
10
3.54606
20
-3.0374
11
3.61299
21
-3.10433
0
LINE
8
BLACK
6
CONTINUOUS
10
3.61299
20
-3.0374
11
3.54606
21
-3.10433
0
LINE
8
BLACK
6
CONTINUOUS
10
3.65866
20
-5.29331
11
3.72559
21
-5.36024
0
LINE
8
BLACK
6
CONTINUOUS
10
3.72559
20
-5.29331
11
3.65866
21
-5.36024
0
LINE
8
BLACK
6
CONTINUOUS
10
3.92795
20
-3.78937
11
3.99488
21
-3.8563
0
LINE
8
BLACK
6
CONTINUOUS
10
3.99488
20
-3.78937
11
3.92795
21
-3.8563
0
LINE
8
BLACK
6
CONTINUOUS
10
3.94606
20
-3.0374
11
4.01299
21
-3.10433
0
LINE
8
BLACK
6
CONTINUOUS
10
4.01299
20
-3.0374
11
3.94606
21
-3.10433
0
LINE
8
BLACK
6
CONTINUOUS
10
4.10906
20
-4.54134
11
4.17598
21
-4.60827
0
LINE
8
BLACK
6
CONTINUOUS
10
4.17598
20
-4.54134
11
4.10906
21
-4.60827
0
LINE
8
BLACK
6
CONTINUOUS
10
4.10906
20
-6.04921
11
4.17598
21
-6.11614
0
LINE
8
BLACK
6
CONTINUOUS
10
4.17598
20
-6.04921
11
4.10906
21
-6.11614
0
LINE
8
BLACK
6
CONTINUOUS
10
4.29803
20
-3.0374
11
4.36496
21
-3.10433
0
LINE
8
BLACK
6
CONTINUOUS
10
4.36496
20
-3.0374
11
4.29803
21
-3.10433
0
LINE
8
BLACK
6
CONTINUOUS
10
4.32795
20
-3.78937
11
4.39488
21
-3.8563
0
LINE
8
BLACK
6
CONTINUOUS
10
4.39488
20
-3.78937
11
4.32795
21
-3.8563
0
LINE
8
BLACK
6
CONTINUOUS
10
4.47913
20
-5.29331
11
4.54606
21
-5.36024
0
LINE
8
BLACK
6
CONTINUOUS
10
4.54606
20
-5.29331
11
4.47913
21
-5.36024
0
LINE
8
BLACK
6
CONTINUOUS
10
4.50906
20
-4.54134
11
4.57598
21
-4.60827
0
LINE
8
BLACK
6
CONTINUOUS
10
4.57598
20
-4.54134
11
4.50906
21
-4.60827
0
LINE
8
BLACK
6
CONTINUOUS
10
4.50906
20
-6.04921
11
4.57598
21
-6.11614
0
LINE
8
BLACK
6
CONTINUOUS
10
4.57598
20
-6.04921
11
4.50906
21
-6.11614
0
LINE
8
BLACK
6
CONTINUOUS
10
4.67992
20
-3.78937
11
4.74685
21
-3.8563
0
LINE
8
BLACK
6
CONTINUOUS
10
4.74685
20
-3.78937
11
4.67992
21
-3.8563
0
LINE
8
BLACK
6
CONTINUOUS
10
4.69803
20
-3.0374
11
4.76496
21
-3.10433
0
LINE
8
BLACK
6
CONTINUOUS
10
4.76496
20
-3.0374
11
4.69803
21
-3.10433
0
LINE
8
BLACK
6
CONTINUOUS
10
4.85709
20
-4.54134
11
4.92402
21
-4.60827
0
LINE
8
BLACK
6
CONTINUOUS
10
4.92402
20
-4.54134
11
4.85709
21
-4.60827
0
LINE
8
BLACK
6
CONTINUOUS
10
4.87913
20
-5.29331
11
4.94606
21
-5.36024
0
LINE
8
BLACK
6
CONTINUOUS
10
4.94606
20
-5.29331
11
4.87913
21
-5.36024
0
LINE
8
BLACK
6
CONTINUOUS
10
5.05
20
-3.0374
11
5.11693
21
-3.10433
0
LINE
8
BLACK
6
CONTINUOUS
10
5.11693
20
-3.0374
11
5.05
21
-3.10433
0
LINE
8
BLACK
6
CONTINUOUS
10
5.07992
20
-3.78937
11
5.14685
21
-3.8563
0
LINE
8
BLACK
6
CONTINUOUS
10
5.14685
20
-3.78937
11
5.07992
21
-3.8563
0
LINE
8
BLACK
6
CONTINUOUS
10
5.2311
20
-5.29331
11
5.29803
21
-5.36024
0
LINE
8
BLACK
6
CONTINUOUS
10
5.29803
20
-5.29331
11
5.2311
21
-5.36024
0
LINE
8
BLACK
6
CONTINUOUS
10
5.25709
20
-4.54134
11
5.32402
21
-4.60827
0
LINE
8
BLACK
6
CONTINUOUS
10
5.32402
20
-4.54134
11
5.25709
21
-4.60827
0
LINE
8
BLACK
6
CONTINUOUS
10
5.43189
20
-3.78937
11
5.49882
21
-3.8563
0
LINE
8
BLACK
6
CONTINUOUS
10
5.49882
20
-3.78937
11
5.43189
21
-3.8563
0
LINE
8
BLACK
6
CONTINUOUS
10
5.45
20
-3.0374
11
5.51693
21
-3.10433
0
LINE
8
BLACK
6
CONTINUOUS
10
5.51693
20
-3.0374
11
5.45
21
-3.10433
0
LINE
8
BLACK
6
CONTINUOUS
10
5.60906
20
-4.54134
11
5.67598
21
-4.60827
0
LINE
8
BLACK
6
CONTINUOUS
10
5.67598
20
-4.54134
11
5.60906
21
-4.60827
0
LINE
8
BLACK
6
CONTINUOUS
10
5.6311
20
-5.29331
11
5.69803
21
-5.36024
0
LINE
8
BLACK
6
CONTINUOUS
10
5.69803
20
-5.29331
11
5.6311
21
-5.36024
0
LINE
8
BLACK
6
CONTINUOUS
10
5.80197
20
-3.0374
11
5.8689
21
-3.10433
0
LINE
8
BLACK
6
CONTINUOUS
10
5.8689
20
-3.0374
11
5.80197
21
-3.10433
0
LINE
8
BLACK
6
CONTINUOUS
10
5.83189
20
-3.78937
11
5.89882
21
-3.8563
0
LINE
8
BLACK
6
CONTINUOUS
10
5.89882
20
-3.78937
11
5.83189
21
-3.8563
0
LINE
8
BLACK
6
CONTINUOUS
10
5.98307
20
-5.29331
11
6.05
21
-5.36024
0
LINE
8
BLACK
6
CONTINUOUS
10
6.05
20
-5.29331
11
5.98307
21
-5.36024
0
LINE
8
BLACK
6
CONTINUOUS
10
6.00906
20
-4.54134
11
6.07598
21
-4.60827
0
LINE
8
BLACK
6
CONTINUOUS
10
6.07598
20
-4.54134
11
6.00906
21
-4.60827
0
LINE
8
BLACK
6
CONTINUOUS
10
6.18386
20
-3.78937
11
6.25079
21
-3.8563
0
LINE
8
BLACK
6
CONTINUOUS
10
6.25079
20
-3.78937
11
6.18386
21
-3.8563
0
LINE
8
BLACK
6
CONTINUOUS
10
6.20197
20
-3.0374
11
6.2689
21
-3.10433
0
LINE
8
BLACK
6
CONTINUOUS
10
6.2689
20
-3.0374
11
6.20197
21
-3.10433
0
LINE
8
BLACK
6
CONTINUOUS
10
6.36102
20
-4.54134
11
6.42795
21
-4.60827
0
LINE
8
BLACK
6
CONTINUOUS
10
6.42795
20
-4.54134
11
6.36102
21
-4.60827
0
LINE
8
BLACK
6
CONTINUOUS
10
6.38307
20
-5.29331
11
6.45
21
-5.36024
0
LINE
8
BLACK
6
CONTINUOUS
10
6.45
20
-5.29331
11
6.38307
21
-5.36024
0
LINE
8
BLACK
6
CONTINUOUS
10
6.55394
20
-3.0374
11
6.62087
21
-3.10433
0
LINE
8
BLACK
6
CONTINUOUS
10
6.62087
20
-3.0374
11
6.55394
21
-3.10433
0
LINE
8
BLACK
6
CONTINUOUS
10
6.58386
20
-3.78937
11
6.65079
21
-3.8563
0
LINE
8
BLACK
6
CONTINUOUS
10
6.65079
20
-3.78937
11
6.58386
21
-3.8563
0
LINE
8
BLACK
6
CONTINUOUS
10
6.73504
20
-5.29331
11
6.80197
21
-5.36024
0
LINE
8
BLACK
6
CONTINUOUS
10
6.80197
20
-5.29331
11
6.73504
21
-5.36024
0
LINE
8
BLACK
6
CONTINUOUS
10
6.76102
20
-4.54134
11
6.82795
21
-4.60827
0
LINE
8
BLACK
6
CONTINUOUS
10
6.82795
20
-4.54134
11
6.76102
21
-4.60827
0
LINE
8
BLACK
6
CONTINUOUS
10
6.93583
20
-3.78937
11
7.00276
21
-3.8563
0
LINE
8
BLACK
6
CONTINUOUS
10
7.00276
20
-3.78937
11
6.93583
21
-3.8563
0
LINE
8
BLACK
6
CONTINUOUS
10
6.95394
20
-3.0374
11
7.02087
21
-3.10433
0
LINE
8
BLACK
6
CONTINUOUS
10
7.02087
20
-3.0374
11
6.95394
21
-3.10433
0
LINE
8
BLACK
6
CONTINUOUS
10
7.11299
20
-4.54134
11
7.17992
21
-4.60827
0
LINE
8
BLACK
6
CONTINUOUS
10
7.17992
20
-4.54134
11
7.11299
21
-4.60827
0
LINE
8
BLACK
6
CONTINUOUS
10
7.13504
20
-5.29331
11
7.20197
21
-5.36024
0
LINE
8
BLACK
6
CONTINUOUS
10
7.20197
20
-5.29331
11
7.13504
21
-5.36024
0
LINE
8
BLACK
6
CONTINUOUS
10
7.30591
20
-3.0374
11
7.37283
21
-3.10433
0
LINE
8
BLACK
6
CONTINUOUS
10
7.37283
20
-3.0374
11
7.30591
21
-3.10433
0
LINE
8
BLACK
6
CONTINUOUS
10
7.33583
20
-3.78937
11
7.40276
21
-3.8563
0
LINE
8
BLACK
6
CONTINUOUS
10
7.40276
20
-3.78937
11
7.33583
21
-3.8563
0
LINE
8
BLACK
6
CONTINUOUS
10
7.48701
20
-5.29331
11
7.55394
21
-5.36024
0
LINE
8
BLACK
6
CONTINUOUS
10
7.55394
20
-5.29331
11
7.48701
21
-5.36024
0
LINE
8
BLACK
6
CONTINUOUS
10
7.51299
20
-4.54134
11
7.57992
21
-4.60827
0
LINE
8
BLACK
6
CONTINUOUS
10
7.57992
20
-4.54134
11
7.51299
21
-4.60827
0
LINE
8
BLACK
6
CONTINUOUS
10
7.68386
20
-3.78937
11
7.75079
21
-3.8563
0
LINE
8
BLACK
6
CONTINUOUS
10
7.75079
20
-3.78937
11
7.68386
21
-3.8563
0
LINE
8
BLACK
6
CONTINUOUS
10
7.70591
20
-3.0374
11
7.77283
21
-3.10433
0
LINE
8
BLACK
6
CONTINUOUS
10
7.77283
20
-3.0374
11
7.70591
21
-3.10433
0
LINE
8
BLACK
6
CONTINUOUS
10
7.86496
20
-4.54134
11
7.93189
21
-4.60827
0
LINE
8
BLACK
6
CONTINUOUS
10
7.93189
20
-4.54134
11
7.86496
21
-4.60827
0
LINE
8
BLACK
6
CONTINUOUS
10
7.86575
20
-6.04921
11
7.93268
21
-6.11614
0
LINE
8
BLACK
6
CONTINUOUS
10
7.93268
20
-6.04921
11
7.86575
21
-6.11614
0
LINE
8
BLACK
6
CONTINUOUS
10
7.88701
20
-5.29331
11
7.95394
21
-5.36024
0
LINE
8
BLACK
6
CONTINUOUS
10
7.95394
20
-5.29331
11
7.88701
21
-5.36024
0
LINE
8
BLACK
6
CONTINUOUS
10
8.05787
20
-3.0374
11
8.1248
21
-3.10433
0
LINE
8
BLACK
6
CONTINUOUS
10
8.1248
20
-3.0374
11
8.05787
21
-3.10433
0
LINE
8
BLACK
6
CONTINUOUS
10
8.08386
20
-3.78937
11
8.15079
21
-3.8563
0
LINE
8
BLACK
6
CONTINUOUS
10
8.15079
20
-3.78937
11
8.08386
21
-3.8563
0
LINE
8
BLACK
6
CONTINUOUS
10
8.23898
20
-5.29331
11
8.30591
21
-5.36024
0
LINE
8
BLACK
6
CONTINUOUS
10
8.30591
20
-5.29331
11
8.23898
21
-5.36024
0
LINE
8
BLACK
6
CONTINUOUS
10
8.26496
20
-4.54134
11
8.33189
21
-4.60827
0
LINE
8
BLACK
6
CONTINUOUS
10
8.33189
20
-4.54134
11
8.26496
21
-4.60827
0
LINE
8
BLACK
6
CONTINUOUS
10
8.26575
20
-6.04921
11
8.33268
21
-6.11614
0
LINE
8
BLACK
6
CONTINUOUS
10
8.33268
20
-6.04921
11
8.26575
21
-6.11614
0
LINE
8
BLACK
6
CONTINUOUS
10
8.43583
20
-3.78937
11
8.50276
21
-3.8563
0
LINE
8
BLACK
6
CONTINUOUS
10
8.50276
20
-3.78937
11
8.43583
21
-3.8563
0
LINE
8
BLACK
6
CONTINUOUS
10
8.45787
20
-3.0374
11
8.5248
21
-3.10433
0
LINE
8
BLACK
6
CONTINUOUS
10
8.5248
20
-3.0374
11
8.45787
21
-3.10433
0
LINE
8
BLACK
6
CONTINUOUS
10
8.61693
20
-4.54134
11
8.68386
21
-4.60827
0
LINE
8
BLACK
6
CONTINUOUS
10
8.68386
20
-4.54134
11
8.61693
21
-4.60827
0
LINE
8
BLACK
6
CONTINUOUS
10
8.63898
20
-5.29331
11
8.70591
21
-5.36024
0
LINE
8
BLACK
6
CONTINUOUS
10
8.70591
20
-5.29331
11
8.63898
21
-5.36024
0
LINE
8
BLACK
6
CONTINUOUS
10
8.80984
20
-3.0374
11
8.87677
21
-3.10433
0
LINE
8
BLACK
6
CONTINUOUS
10
8.87677
20
-3.0374
11
8.80984
21
-3.10433
0
LINE
8
BLACK
6
CONTINUOUS
10
8.83583
20
-3.78937
11
8.90276
21
-3.8563
0
LINE
8
BLACK
6
CONTINUOUS
10
8.90276
20
-3.78937
11
8.83583
21
-3.8563
0
LINE
8
BLACK
6
CONTINUOUS
10
8.99094
20
-5.29331
11
9.05787
21
-5.36024
0
LINE
8
BLACK
6
CONTINUOUS
10
9.05787
20
-5.29331
11
8.99094
21
-5.36024
0
LINE
8
BLACK
6
CONTINUOUS
10
9.01693
20
-4.54134
11
9.08386
21
-4.60827
0
LINE
8
BLACK
6
CONTINUOUS
10
9.08386
20
-4.54134
11
9.01693
21
-4.60827
0
LINE
8
BLACK
6
CONTINUOUS
10
9.18622
20
-3.78858
11
9.25315
21
-3.85551
0
LINE
8
BLACK
6
CONTINUOUS
10
9.25315
20
-3.78858
11
9.18622
21
-3.85551
0
LINE
8
BLACK
6
CONTINUOUS
10
9.20984
20
-3.0374
11
9.27677
21
-3.10433
0
LINE
8
BLACK
6
CONTINUOUS
10
9.27677
20
-3.0374
11
9.20984
21
-3.10433
0
LINE
8
BLACK
6
CONTINUOUS
10
9.3689
20
-4.54134
11
9.43583
21
-4.60827
0
LINE
8
BLACK
6
CONTINUOUS
10
9.43583
20
-4.54134
11
9.3689
21
-4.60827
0
LINE
8
BLACK
6
CONTINUOUS
10
9.39094
20
-5.29331
11
9.45787
21
-5.36024
0
LINE
8
BLACK
6
CONTINUOUS
10
9.45787
20
-5.29331
11
9.39094
21
-5.36024
0
LINE
8
BLACK
6
CONTINUOUS
10
9.56181
20
-3.0374
11
9.62874
21
-3.10433
0
LINE
8
BLACK
6
CONTINUOUS
10
9.62874
20
-3.0374
11
9.56181
21
-3.10433
0
LINE
8
BLACK
6
CONTINUOUS
10
9.58622
20
-3.78858
11
9.65315
21
-3.85551
0
LINE
8
BLACK
6
CONTINUOUS
10
9.65315
20
-3.78858
11
9.58622
21
-3.85551
0
LINE
8
BLACK
6
CONTINUOUS
10
9.74685
20
-5.29331
11
9.81378
21
-5.36024
0
LINE
8
BLACK
6
CONTINUOUS
10
9.81378
20
-5.29331
11
9.74685
21
-5.36024
0
LINE
8
BLACK
6
CONTINUOUS
10
9.7689
20
-4.54134
11
9.83583
21
-4.60827
0
LINE
8
BLACK
6
CONTINUOUS
10
9.83583
20
-4.54134
11
9.7689
21
-4.60827
0
LINE
8
BLACK
6
CONTINUOUS
10
9.93425
20
-3.78858
11
10.0012
21
-3.85551
0
LINE
8
BLACK
6
CONTINUOUS
10
10.0012
20
-3.78858
11
9.93425
21
-3.85551
0
LINE
8
BLACK
6
CONTINUOUS
10
9.96181
20
-3.0374
11
10.0287
21
-3.10433
0
LINE
8
BLACK
6
CONTINUOUS
10
10.0287
20
-3.0374
11
9.96181
21
-3.10433
0
LINE
8
BLACK
6
CONTINUOUS
10
10.1209
20
-4.54134
11
10.1878
21
-4.60827
0
LINE
8
BLACK
6
CONTINUOUS
10
10.1878
20
-4.54134
11
10.1209
21
-4.60827
0
LINE
8
BLACK
6
CONTINUOUS
10
10.1469
20
-5.29331
11
10.2138
21
-5.36024
0
LINE
8
BLACK
6
CONTINUOUS
10
10.2138
20
-5.29331
11
10.1469
21
-5.36024
0
LINE
8
BLACK
6
CONTINUOUS
10
10.3138
20
-3.0374
11
10.3807
21
-3.10433
0
LINE
8
BLACK
6
CONTINUOUS
10
10.3807
20
-3.0374
11
10.3138
21
-3.10433
0
LINE
8
BLACK
6
CONTINUOUS
10
10.3343
20
-3.78858
11
10.4012
21
-3.85551
0
LINE
8
BLACK
6
CONTINUOUS
10
10.4012
20
-3.78858
11
10.3343
21
-3.85551
0
LINE
8
BLACK
6
CONTINUOUS
10
10.4988
20
-5.29331
11
10.5657
21
-5.36024
0
LINE
8
BLACK
6
CONTINUOUS
10
10.5657
20
-5.29331
11
10.4988
21
-5.36024
0
LINE
8
BLACK
6
CONTINUOUS
10
10.5209
20
-4.54134
11
10.5878
21
-4.60827
0
LINE
8
BLACK
6
CONTINUOUS
10
10.5878
20
-4.54134
11
10.5209
21
-4.60827
0
LINE
8
BLACK
6
CONTINUOUS
10
10.6862
20
-3.78858
11
10.7531
21
-3.85551
0
LINE
8
BLACK
6
CONTINUOUS
10
10.7531
20
-3.78858
11
10.6862
21
-3.85551
0
LINE
8
BLACK
6
CONTINUOUS
10
10.7138
20
-3.0374
11
10.7807
21
-3.10433
0
LINE
8
BLACK
6
CONTINUOUS
10
10.7807
20
-3.0374
11
10.7138
21
-3.10433
0
LINE
8
BLACK
6
CONTINUOUS
10
10.8728
20
-4.54134
11
10.9398
21
-4.60827
0
LINE
8
BLACK
6
CONTINUOUS
10
10.9398
20
-4.54134
11
10.8728
21
-4.60827
0
LINE
8
BLACK
6
CONTINUOUS
10
10.8988
20
-5.29331
11
10.9657
21
-5.36024
0
LINE
8
BLACK
6
CONTINUOUS
10
10.9657
20
-5.29331
11
10.8988
21
-5.36024
0
LINE
8
BLACK
6
CONTINUOUS
10
11.0618
20
-3.0374
11
11.1287
21
-3.10433
0
LINE
8
BLACK
6
CONTINUOUS
10
11.1287
20
-3.0374
11
11.0618
21
-3.10433
0
LINE
8
BLACK
6
CONTINUOUS
10
11.0862
20
-3.78858
11
11.1531
21
-3.85551
0
LINE
8
BLACK
6
CONTINUOUS
10
11.1531
20
-3.78858
11
11.0862
21
-3.85551
0
LINE
8
BLACK
6
CONTINUOUS
10
11.2508
20
-5.29331
11
11.3177
21
-5.36024
0
LINE
8
BLACK
6
CONTINUOUS
10
11.3177
20
-5.29331
11
11.2508
21
-5.36024
0
LINE
8
BLACK
6
CONTINUOUS
10
11.2728
20
-4.54134
11
11.3398
21
-4.60827
0
LINE
8
BLACK
6
CONTINUOUS
10
11.3398
20
-4.54134
11
11.2728
21
-4.60827
0
LINE
8
BLACK
6
CONTINUOUS
10
11.4382
20
-3.78858
11
11.5051
21
-3.85551
0
LINE
8
BLACK
6
CONTINUOUS
10
11.5051
20
-3.78858
11
11.4382
21
-3.85551
0
LINE
8
BLACK
6
CONTINUOUS
10
11.4618
20
-3.0374
11
11.5287
21
-3.10433
0
LINE
8
BLACK
6
CONTINUOUS
10
11.5287
20
-3.0374
11
11.4618
21
-3.10433
0
LINE
8
BLACK
6
CONTINUOUS
10
11.6248
20
-4.54134
11
11.6917
21
-4.60827
0
LINE
8
BLACK
6
CONTINUOUS
10
11.6917
20
-4.54134
11
11.6248
21
-4.60827
0
LINE
8
BLACK
6
CONTINUOUS
10
11.6508
20
-5.29331
11
11.7177
21
-5.36024
0
LINE
8
BLACK
6
CONTINUOUS
10
11.7177
20
-5.29331
11
11.6508
21
-5.36024
0
LINE
8
BLACK
6
CONTINUOUS
10
11.8138
20
-3.0374
11
11.8807
21
-3.10433
0
LINE
8
BLACK
6
CONTINUOUS
10
11.8807
20
-3.0374
11
11.8138
21
-3.10433
0
LINE
8
BLACK
6
CONTINUOUS
10
11.8382
20
-3.78858
11
11.9051
21
-3.85551
0
LINE
8
BLACK
6
CONTINUOUS
10
11.9051
20
-3.78858
11
11.8382
21
-3.85551
0
LINE
8
BLACK
6
CONTINUOUS
10
12.0248
20
-4.54134
11
12.0917
21
-4.60827
0
LINE
8
BLACK
6
CONTINUOUS
10
12.0917
20
-4.54134
11
12.0248
21
-4.60827
0
LINE
8
BLACK
6
CONTINUOUS
10
12.1902
20
-3.78858
11
12.2571
21
-3.85551
0
LINE
8
BLACK
6
CONTINUOUS
10
12.2571
20
-3.78858
11
12.1902
21
-3.85551
0
LINE
8
BLACK
6
CONTINUOUS
10
12.2138
20
-3.0374
11
12.2807
21
-3.10433
0
LINE
8
BLACK
6
CONTINUOUS
10
12.2807
20
-3.0374
11
12.2138
21
-3.10433
0
LINE
8
BLACK
6
CONTINUOUS
10
12.3768
20
-4.54134
11
12.4437
21
-4.60827
0
LINE
8
BLACK
6
CONTINUOUS
10
12.4437
20
-4.54134
11
12.3768
21
-4.60827
0
LINE
8
BLACK
6
CONTINUOUS
10
12.5618
20
-3.0374
11
12.6287
21
-3.10433
0
LINE
8
BLACK
6
CONTINUOUS
10
12.6287
20
-3.0374
11
12.5618
21
-3.10433
0
LINE
8
BLACK
6
CONTINUOUS
10
12.5902
20
-3.78858
11
12.6571
21
-3.85551
0
LINE
8
BLACK
6
CONTINUOUS
10
12.6571
20
-3.78858
11
12.5902
21
-3.85551
0
LINE
8
BLACK
6
CONTINUOUS
10
12.7508
20
-6.04921
11
12.8177
21
-6.11614
0
LINE
8
BLACK
6
CONTINUOUS
10
12.8177
20
-6.04921
11
12.7508
21
-6.11614
0
LINE
8
BLACK
6
CONTINUOUS
10
12.7768
20
-4.54134
11
12.8437
21
-4.60827
0
LINE
8
BLACK
6
CONTINUOUS
10
12.8437
20
-4.54134
11
12.7768
21
-4.60827
0
LINE
8
BLACK
6
CONTINUOUS
10
12.9421
20
-3.78937
11
13.0091
21
-3.8563
0
LINE
8
BLACK
6
CONTINUOUS
10
13.0091
20
-3.78937
11
12.9421
21
-3.8563
0
LINE
8
BLACK
6
CONTINUOUS
10
12.9618
20
-3.0374
11
13.0287
21
-3.10433
0
LINE
8
BLACK
6
CONTINUOUS
10
13.0287
20
-3.0374
11
12.9618
21
-3.10433
0
LINE
8
BLACK
6
CONTINUOUS
10
13.1508
20
-6.04921
11
13.2177
21
-6.11614
0
LINE
8
BLACK
6
CONTINUOUS
10
13.2177
20
-6.04921
11
13.1508
21
-6.11614
0
LINE
8
BLACK
6
CONTINUOUS
10
13.3421
20
-3.78937
11
13.4091
21
-3.8563
0
LINE
8
BLACK
6
CONTINUOUS
10
13.4091
20
-3.78937
11
13.3421
21
-3.8563
0
LINE
8
BLACK
6
CONTINUOUS
10
13.5957
20
-4.54134
11
13.6626
21
-4.60827
0
LINE
8
BLACK
6
CONTINUOUS
10
13.6626
20
-4.54134
11
13.5957
21
-4.60827
0
LINE
8
BLACK
6
CONTINUOUS
10
13.5972
20
-5.29331
11
13.6642
21
-5.36024
0
LINE
8
BLACK
6
CONTINUOUS
10
13.6642
20
-5.29331
11
13.5972
21
-5.36024
0
LINE
8
BLACK
6
CONTINUOUS
10
13.6878
20
-3.0374
11
13.7547
21
-3.10433
0
LINE
8
BLACK
6
CONTINUOUS
10
13.7547
20
-3.0374
11
13.6878
21
-3.10433
0
LINE
8
BLACK
6
CONTINUOUS
10
13.8768
20
-3.78937
11
13.9437
21
-3.8563
0
LINE
8
BLACK
6
CONTINUOUS
10
13.9437
20
-3.78937
11
13.8768
21
-3.8563
0
LINE
8
BLACK
6
CONTINUOUS
10
13.8791
20
-6.04843
11
13.9461
21
-6.11535
0
LINE
8
BLACK
6
CONTINUOUS
10
13.9461
20
-6.04843
11
13.8791
21
-6.11535
0
LINE
8
BLACK
6
CONTINUOUS
10
13.9957
20
-4.54134
11
14.0626
21
-4.60827
0
LINE
8
BLACK
6
CONTINUOUS
10
14.0626
20
-4.54134
11
13.9957
21
-4.60827
0
LINE
8
BLACK
6
CONTINUOUS
10
13.9972
20
-5.29331
11
14.0642
21
-5.36024
0
LINE
8
BLACK
6
CONTINUOUS
10
14.0642
20
-5.29331
11
13.9972
21
-5.36024
0
LINE
8
BLACK
6
CONTINUOUS
10
14.0878
20
-3.0374
11
14.1547
21
-3.10433
0
LINE
8
BLACK
6
CONTINUOUS
10
14.1547
20
-3.0374
11
14.0878
21
-3.10433
0
LINE
8
BLACK
6
CONTINUOUS
10
14.2768
20
-3.78937
11
14.3437
21
-3.8563
0
LINE
8
BLACK
6
CONTINUOUS
10
14.3437
20
-3.78937
11
14.2768
21
-3.8563
0
LINE
8
BLACK
6
CONTINUOUS
10
14.2791
20
-6.04843
11
14.3461
21
-6.11535
0
LINE
8
BLACK
6
CONTINUOUS
10
14.3461
20
-6.04843
11
14.2791
21
-6.11535
0
CIRCLE
8
BLACK
10
3.02362
20
-5.05118
40
0.0600394
0
CIRCLE
8
BLACK
10
3.96063
20
-5.05118
40
0.0600394
0
CIRCLE
8
BLACK
10
6.13071
20
-5.80709
40
0.0600394
0
CIRCLE
8
BLACK
10
10.0677
20
-5.80709
40
0.0600394
0
CIRCLE
8
BLACK
10
13.3606
20
-4.29921
40
0.0600394
0
CIRCLE
8
BLACK
10
13.3622
20
-5.05118
40
0.0600394
0
CIRCLE
8
BLACK
10
13.4528
20
-2.79528
40
0.0600394
0
CIRCLE
8
BLACK
10
14.2976
20
-4.29921
40
0.0600394
0
CIRCLE
8
BLACK
10
14.2992
20
-5.05118
40
0.0600394
0
CIRCLE
8
BLACK
10
14.3898
20
-2.79528
40
0.0600394
0
LINE
8
BLACK
6
CONTINUOUS
10
3.02362
20
-5.57244
11
3.02362
21
-5.72992
0
LINE
8
BLACK
6
CONTINUOUS
10
2.94488
20
-5.65118
11
3.10236
21
-5.65118
0
LINE
8
BLACK
6
CONTINUOUS
10
3.02756
20
-2.99213
11
3.02756
21
-3.14961
0
LINE
8
BLACK
6
CONTINUOUS
10
2.94882
20
-3.07087
11
3.1063
21
-3.07087
0
LINE
8
BLACK
6
CONTINUOUS
10
3.2126
20
-6.00394
11
3.2126
21
-6.16142
0
LINE
8
BLACK
6
CONTINUOUS
10
3.13386
20
-6.08268
11
3.29134
21
-6.08268
0
LINE
8
BLACK
6
CONTINUOUS
10
3.21654
20
-3.74409
11
3.21654
21
-3.90157
0
LINE
8
BLACK
6
CONTINUOUS
10
3.1378
20
-3.82283
11
3.29528
21
-3.82283
0
LINE
8
BLACK
6
CONTINUOUS
10
3.30945
20
-4.49528
11
3.30945
21
-4.65276
0
LINE
8
BLACK
6
CONTINUOUS
10
3.23071
20
-4.57402
11
3.38819
21
-4.57402
0
LINE
8
BLACK
6
CONTINUOUS
10
3.49213
20
-5.24803
11
3.49213
21
-5.40551
0
LINE
8
BLACK
6
CONTINUOUS
10
3.41339
20
-5.32677
11
3.57087
21
-5.32677
0
LINE
8
BLACK
6
CONTINUOUS
10
3.77953
20
-2.99213
11
3.77953
21
-3.14961
0
LINE
8
BLACK
6
CONTINUOUS
10
3.70079
20
-3.07087
11
3.85827
21
-3.07087
0
LINE
8
BLACK
6
CONTINUOUS
10
3.96063
20
-5.57244
11
3.96063
21
-5.72992
0
LINE
8
BLACK
6
CONTINUOUS
10
3.88189
20
-5.65118
11
4.03937
21
-5.65118
0
LINE
8
BLACK
6
CONTINUOUS
10
4.16142
20
-3.74409
11
4.16142
21
-3.90157
0
LINE
8
BLACK
6
CONTINUOUS
10
4.08268
20
-3.82283
11
4.24016
21
-3.82283
0
LINE
8
BLACK
6
CONTINUOUS
10
4.34252
20
-4.49606
11
4.34252
21
-4.65354
0
LINE
8
BLACK
6
CONTINUOUS
10
4.26378
20
-4.5748
11
4.42126
21
-4.5748
0
LINE
8
BLACK
6
CONTINUOUS
10
4.34252
20
-6.00394
11
4.34252
21
-6.16142
0
LINE
8
BLACK
6
CONTINUOUS
10
4.26378
20
-6.08268
11
4.42126
21
-6.08268
0
LINE
8
BLACK
6
CONTINUOUS
10
4.5315
20
-2.99213
11
4.5315
21
-3.14961
0
LINE
8
BLACK
6
CONTINUOUS
10
4.45276
20
-3.07087
11
4.61024
21
-3.07087
0
LINE
8
BLACK
6
CONTINUOUS
10
4.7126
20
-5.24803
11
4.7126
21
-5.40551
0
LINE
8
BLACK
6
CONTINUOUS
10
4.63386
20
-5.32677
11
4.79134
21
-5.32677
0
LINE
8
BLACK
6
CONTINUOUS
10
4.91339
20
-3.74409
11
4.91339
21
-3.90157
0
LINE
8
BLACK
6
CONTINUOUS
10
4.83465
20
-3.82283
11
4.99213
21
-3.82283
0
LINE
8
BLACK
6
CONTINUOUS
10
5.09055
20
-4.49606
11
5.09055
21
-4.65354
0
LINE
8
BLACK
6
CONTINUOUS
10
5.01181
20
-4.5748
11
5.16929
21
-4.5748
0
LINE
8
BLACK
6
CONTINUOUS
10
5.28346
20
-2.99213
11
5.28346
21
-3.14961
0
LINE
8
BLACK
6
CONTINUOUS
10
5.20472
20
-3.07087
11
5.3622
21
-3.07087
0
LINE
8
BLACK
6
CONTINUOUS
10
5.46457
20
-5.24803
11
5.46457
21
-5.40551
0
LINE
8
BLACK
6
CONTINUOUS
10
5.38583
20
-5.32677
11
5.54331
21
-5.32677
0
LINE
8
BLACK
6
CONTINUOUS
10
5.66535
20
-3.74409
11
5.66535
21
-3.90157
0
LINE
8
BLACK
6
CONTINUOUS
10
5.58661
20
-3.82283
11
5.74409
21
-3.82283
0
LINE
8
BLACK
6
CONTINUOUS
10
5.84252
20
-4.49606
11
5.84252
21
-4.65354
0
LINE
8
BLACK
6
CONTINUOUS
10
5.76378
20
-4.5748
11
5.92126
21
-4.5748
0
LINE
8
BLACK
6
CONTINUOUS
10
6.03543
20
-2.99213
11
6.03543
21
-3.14961
0
LINE
8
BLACK
6
CONTINUOUS
10
5.95669
20
-3.07087
11
6.11417
21
-3.07087
0
LINE
8
BLACK
6
CONTINUOUS
10
6.13071
20
-6.32835
11
6.13071
21
-6.48583
0
LINE
8
BLACK
6
CONTINUOUS
10
6.05197
20
-6.40709
11
6.20945
21
-6.40709
0
LINE
8
BLACK
6
CONTINUOUS
10
6.21654
20
-5.24803
11
6.21654
21
-5.40551
0
LINE
8
BLACK
6
CONTINUOUS
10
6.1378
20
-5.32677
11
6.29528
21
-5.32677
0
LINE
8
BLACK
6
CONTINUOUS
10
6.41732
20
-3.74409
11
6.41732
21
-3.90157
0
LINE
8
BLACK
6
CONTINUOUS
10
6.33858
20
-3.82283
11
6.49606
21
-3.82283
0
LINE
8
BLACK
6
CONTINUOUS
10
6.59449
20
-4.49606
11
6.59449
21
-4.65354
0
LINE
8
BLACK
6
CONTINUOUS
10
6.51575
20
-4.5748
11
6.67323
21
-4.5748
0
LINE
8
BLACK
6
CONTINUOUS
10
6.7874
20
-2.99213
11
6.7874
21
-3.14961
0
LINE
8
BLACK
6
CONTINUOUS
10
6.70866
20
-3.07087
11
6.86614
21
-3.07087
0
LINE
8
BLACK
6
CONTINUOUS
10
6.9685
20
-5.24803
11
6.9685
21
-5.40551
0
LINE
8
BLACK
6
CONTINUOUS
10
6.88976
20
-5.32677
11
7.04724
21
-5.32677
0
LINE
8
BLACK
6
CONTINUOUS
10
7.16929
20
-3.74409
11
7.16929
21
-3.90157
0
LINE
8
BLACK
6
CONTINUOUS
10
7.09055
20
-3.82283
11
7.24803
21
-3.82283
0
LINE
8
BLACK
6
CONTINUOUS
10
7.34646
20
-4.49606
11
7.34646
21
-4.65354
0
LINE
8
BLACK
6
CONTINUOUS
10
7.26772
20
-4.5748
11
7.4252
21
-4.5748
0
LINE
8
BLACK
6
CONTINUOUS
10
7.53937
20
-2.99213
11
7.53937
21
-3.14961
0
LINE
8
BLACK
6
CONTINUOUS
10
7.46063
20
-3.07087
11
7.61811
21
-3.07087
0
LINE
8
BLACK
6
CONTINUOUS
10
7.72047
20
-5.24803
11
7.72047
21
-5.40551
0
LINE
8
BLACK
6
CONTINUOUS
10
7.64173
20
-5.32677
11
7.79921
21
-5.32677
0
LINE
8
BLACK
6
CONTINUOUS
10
7.91732
20
-3.74409
11
7.91732
21
-3.90157
0
LINE
8
BLACK
6
CONTINUOUS
10
7.83858
20
-3.82283
11
7.99606
21
-3.82283
0
LINE
8
BLACK
6
CONTINUOUS
10
8.09843
20
-4.49606
11
8.09843
21
-4.65354
0
LINE
8
BLACK
6
CONTINUOUS
10
8.01969
20
-4.5748
11
8.17717
21
-4.5748
0
LINE
8
BLACK
6
CONTINUOUS
10
8.09921
20
-6.00394
11
8.09921
21
-6.16142
0
LINE
8
BLACK
6
CONTINUOUS
10
8.02047
20
-6.08268
11
8.17795
21
-6.08268
0
LINE
8
BLACK
6
CONTINUOUS
10
8.29134
20
-2.99213
11
8.29134
21
-3.14961
0
LINE
8
BLACK
6
CONTINUOUS
10
8.2126
20
-3.07087
11
8.37008
21
-3.07087
0
LINE
8
BLACK
6
CONTINUOUS
10
8.47244
20
-5.24803
11
8.47244
21
-5.40551
0
LINE
8
BLACK
6
CONTINUOUS
10
8.3937
20
-5.32677
11
8.55118
21
-5.32677
0
LINE
8
BLACK
6
CONTINUOUS
10
8.66929
20
-3.74409
11
8.66929
21
-3.90157
0
LINE
8
BLACK
6
CONTINUOUS
10
8.59055
20
-3.82283
11
8.74803
21
-3.82283
0
LINE
8
BLACK
6
CONTINUOUS
10
8.85039
20
-4.49606
11
8.85039
21
-4.65354
0
LINE
8
BLACK
6
CONTINUOUS
10
8.77165
20
-4.5748
11
8.92913
21
-4.5748
0
LINE
8
BLACK
6
CONTINUOUS
10
9.04331
20
-2.99213
11
9.04331
21
-3.14961
0
LINE
8
BLACK
6
CONTINUOUS
10
8.96457
20
-3.07087
11
9.12205
21
-3.07087
0
LINE
8
BLACK
6
CONTINUOUS
10
9.22441
20
-5.24803
11
9.22441
21
-5.40551
0
LINE
8
BLACK
6
CONTINUOUS
10
9.14567
20
-5.32677
11
9.30315
21
-5.32677
0
LINE
8
BLACK
6
CONTINUOUS
10
9.41969
20
-3.74331
11
9.41969
21
-3.90079
0
LINE
8
BLACK
6
CONTINUOUS
10
9.34094
20
-3.82205
11
9.49843
21
-3.82205
0
LINE
8
BLACK
6
CONTINUOUS
10
9.60236
20
-4.49606
11
9.60236
21
-4.65354
0
LINE
8
BLACK
6
CONTINUOUS
10
9.52362
20
-4.5748
11
9.6811
21
-4.5748
0
LINE
8
BLACK
6
CONTINUOUS
10
9.79528
20
-2.99213
11
9.79528
21
-3.14961
0
LINE
8
BLACK
6
CONTINUOUS
10
9.71654
20
-3.07087
11
9.87402
21
-3.07087
0
LINE
8
BLACK
6
CONTINUOUS
10
9.98031
20
-5.24803
11
9.98031
21
-5.40551
0
LINE
8
BLACK
6
CONTINUOUS
10
9.90157
20
-5.32677
11
10.0591
21
-5.32677
0
LINE
8
BLACK
6
CONTINUOUS
10
10.0677
20
-6.32835
11
10.0677
21
-6.48583
0
LINE
8
BLACK
6
CONTINUOUS
10
9.98898
20
-6.40709
11
10.1465
21
-6.40709
0
LINE
8
BLACK
6
CONTINUOUS
10
10.1677
20
-3.74331
11
10.1677
21
-3.90079
0
LINE
8
BLACK
6
CONTINUOUS
10
10.089
20
-3.82205
11
10.2465
21
-3.82205
0
LINE
8
BLACK
6
CONTINUOUS
10
10.3543
20
-4.49606
11
10.3543
21
-4.65354
0
LINE
8
BLACK
6
CONTINUOUS
10
10.2756
20
-4.5748
11
10.4331
21
-4.5748
0
LINE
8
BLACK
6
CONTINUOUS
10
10.5472
20
-2.99213
11
10.5472
21
-3.14961
0
LINE
8
BLACK
6
CONTINUOUS
10
10.4685
20
-3.07087
11
10.626
21
-3.07087
0
LINE
8
BLACK
6
CONTINUOUS
10
10.7323
20
-5.24803
11
10.7323
21
-5.40551
0
LINE
8
BLACK
6
CONTINUOUS
10
10.6535
20
-5.32677
11
10.811
21
-5.32677
0
LINE
8
BLACK
6
CONTINUOUS
10
10.9197
20
-3.74331
11
10.9197
21
-3.90079
0
LINE
8
BLACK
6
CONTINUOUS
10
10.8409
20
-3.82205
11
10.9984
21
-3.82205
0
LINE
8
BLACK
6
CONTINUOUS
10
11.1063
20
-4.49606
11
11.1063
21
-4.65354
0
LINE
8
BLACK
6
CONTINUOUS
10
11.0276
20
-4.5748
11
11.185
21
-4.5748
0
LINE
8
BLACK
6
CONTINUOUS
10
11.2953
20
-2.99213
11
11.2953
21
-3.14961
0
LINE
8
BLACK
6
CONTINUOUS
10
11.2165
20
-3.07087
11
11.374
21
-3.07087
0
LINE
8
BLACK
6
CONTINUOUS
10
11.4843
20
-5.24803
11
11.4843
21
-5.40551
0
LINE
8
BLACK
6
CONTINUOUS
10
11.4055
20
-5.32677
11
11.563
21
-5.32677
0
LINE
8
BLACK
6
CONTINUOUS
10
11.6717
20
-3.74331
11
11.6717
21
-3.90079
0
LINE
8
BLACK
6
CONTINUOUS
10
11.5929
20
-3.82205
11
11.7504
21
-3.82205
0
LINE
8
BLACK
6
CONTINUOUS
10
11.8583
20
-4.49606
11
11.8583
21
-4.65354
0
LINE
8
BLACK
6
CONTINUOUS
10
11.7795
20
-4.5748
11
11.937
21
-4.5748
0
LINE
8
BLACK
6
CONTINUOUS
10
12.0472
20
-2.99213
11
12.0472
21
-3.14961
0
LINE
8
BLACK
6
CONTINUOUS
10
11.9685
20
-3.07087
11
12.126
21
-3.07087
0
LINE
8
BLACK
6
CONTINUOUS
10
12.4236
20
-3.74331
11
12.4236
21
-3.90079
0
LINE
8
BLACK
6
CONTINUOUS
10
12.3449
20
-3.82205
11
12.5024
21
-3.82205
0
LINE
8
BLACK
6
CONTINUOUS
10
12.6102
20
-4.49606
11
12.6102
21
-4.65354
0
LINE
8
BLACK
6
CONTINUOUS
10
12.5315
20
-4.5748
11
12.689
21
-4.5748
0
LINE
8
BLACK
6
CONTINUOUS
10
12.7953
20
-2.99213
11
12.7953
21
-3.14961
0
LINE
8
BLACK
6
CONTINUOUS
10
12.7165
20
-3.07087
11
12.874
21
-3.07087
0
LINE
8
BLACK
6
CONTINUOUS
10
12.9843
20
-6.00394
11
12.9843
21
-6.16142
0
LINE
8
BLACK
6
CONTINUOUS
10
12.9055
20
-6.08268
11
13.063
21
-6.08268
0
LINE
8
BLACK
6
CONTINUOUS
10
13.1756
20
-3.74409
11
13.1756
21
-3.90157
0
LINE
8
BLACK
6
CONTINUOUS
10
13.0969
20
-3.82283
11
13.2543
21
-3.82283
0
LINE
8
BLACK
6
CONTINUOUS
10
13.3606
20
-4.82047
11
13.3606
21
-4.97795
0
LINE
8
BLACK
6
CONTINUOUS
10
13.2819
20
-4.89921
11
13.4394
21
-4.89921
0
LINE
8
BLACK
6
CONTINUOUS
10
13.3622
20
-5.57244
11
13.3622
21
-5.72992
0
LINE
8
BLACK
6
CONTINUOUS
10
13.2835
20
-5.65118
11
13.4409
21
-5.65118
0
LINE
8
BLACK
6
CONTINUOUS
10
13.4528
20
-3.31654
11
13.4528
21
-3.47402
0
LINE
8
BLACK
6
CONTINUOUS
10
13.374
20
-3.39528
11
13.5315
21
-3.39528
0
LINE
8
BLACK
6
CONTINUOUS
10
13.8291
20
-4.49606
11
13.8291
21
-4.65354
0
LINE
8
BLACK
6
CONTINUOUS
10
13.7504
20
-4.5748
11
13.9079
21
-4.5748
0
LINE
8
BLACK
6
CONTINUOUS
10
13.8307
20
-5.24803
11
13.8307
21
-5.40551
0
LINE
8
BLACK
6
CONTINUOUS
10
13.752
20
-5.32677
11
13.9094
21
-5.32677
0
LINE
8
BLACK
6
CONTINUOUS
10
13.9213
20
-2.99213
11
13.9213
21
-3.14961
0
LINE
8
BLACK
6
CONTINUOUS
10
13.8425
20
-3.07087
11
14
21
-3.07087
0
LINE
8
BLACK
6
CONTINUOUS
10
14.1102
20
-3.74409
11
14.1102
21
-3.90157
0
LINE
8
BLACK
6
CONTINUOUS
10
14.0315
20
-3.82283
11
14.189
21
-3.82283
0
LINE
8
BLACK
6
CONTINUOUS
10
14.1126
20
-6.00315
11
14.1126
21
-6.16063
0
LINE
8
BLACK
6
CONTINUOUS
10
14.0339
20
-6.08189
11
14.1913
21
-6.08189
0
LINE
8
BLACK
6
CONTINUOUS
10
14.2976
20
-4.82047
11
14.2976
21
-4.97795
0
LINE
8
BLACK
6
CONTINUOUS
10
14.2189
20
-4.89921
11
14.3764
21
-4.89921
0
LINE
8
BLACK
6
CONTINUOUS
10
14.2992
20
-5.57244
11
14.2992
21
-5.72992
0
LINE
8
BLACK
6
CONTINUOUS
10
14.2205
20
-5.65118
11
14.378
21
-5.65118
0
LINE
8
BLACK
6
CONTINUOUS
10
14.3898
20
-3.31654
11
14.3898
21
-3.47402
0
LINE
8
BLACK
6
CONTINUOUS
10
14.311
20
-3.39528
11
14.4685
21
-3.39528
0
LINE
8
BLACK
6
CONTINUOUS
10
2.74958
20
-7.0741
11
2.74958
21
-6.95599
0
LINE
8
BLACK
6
CONTINUOUS
10
2.74958
20
-6.95599
11
2.7777
21
-6.95599
0
LINE
8
BLACK
6
CONTINUOUS
10
2.7777
20
-6.95599
11
2.79457
21
-6.96161
0
LINE
8
BLACK
6
CONTINUOUS
10
2.79457
20
-6.96161
11
2.80582
21
-6.97286
0
LINE
8
BLACK
6
CONTINUOUS
10
2.80582
20
-6.97286
11
2.81145
21
-6.98411
0
LINE
8
BLACK
6
CONTINUOUS
10
2.81145
20
-6.98411
11
2.81707
21
-7.00661
0
LINE
8
BLACK
6
CONTINUOUS
10
2.81707
20
-7.00661
11
2.81707
21
-7.02348
0
LINE
8
BLACK
6
CONTINUOUS
10
2.81707
20
-7.02348
11
2.81145
21
-7.04598
0
LINE
8
BLACK
6
CONTINUOUS
10
2.81145
20
-7.04598
11
2.80582
21
-7.05723
0
LINE
8
BLACK
6
CONTINUOUS
10
2.80582
20
-7.05723
11
2.79457
21
-7.06848
0
LINE
8
BLACK
6
CONTINUOUS
10
2.79457
20
-7.06848
11
2.7777
21
-7.0741
0
LINE
8
BLACK
6
CONTINUOUS
10
2.7777
20
-7.0741
11
2.74958
21
-7.0741
0
LINE
8
BLACK
6
CONTINUOUS
10
2.86769
20
-7.0741
11
2.86769
21
-6.99536
0
LINE
8
BLACK
6
CONTINUOUS
10
2.86769
20
-7.01786
11
2.87331
21
-7.00661
0
LINE
8
BLACK
6
CONTINUOUS
10
2.87331
20
-7.00661
11
2.87894
21
-7.00098
0
LINE
8
BLACK
6
CONTINUOUS
10
2.87894
20
-7.00098
11
2.89019
21
-6.99536
0
LINE
8
BLACK
6
CONTINUOUS
10
2.89019
20
-6.99536
11
2.90143
21
-6.99536
0
LINE
8
BLACK
6
CONTINUOUS
10
2.9408
20
-7.0741
11
2.9408
21
-6.99536
0
LINE
8
BLACK
6
CONTINUOUS
10
2.9408
20
-6.95599
11
2.93518
21
-6.96161
0
LINE
8
BLACK
6
CONTINUOUS
10
2.93518
20
-6.96161
11
2.9408
21
-6.96724
0
LINE
8
BLACK
6
CONTINUOUS
10
2.9408
20
-6.96724
11
2.94643
21
-6.96161
0
LINE
8
BLACK
6
CONTINUOUS
10
2.94643
20
-6.96161
11
2.9408
21
-6.95599
0
LINE
8
BLACK
6
CONTINUOUS
10
2.9408
20
-6.95599
11
2.9408
21
-6.96724
0
LINE
8
BLACK
6
CONTINUOUS
10
3.01392
20
-7.0741
11
3.00267
21
-7.06848
0
LINE
8
BLACK
6
CONTINUOUS
10
3.00267
20
-7.06848
11
2.99705
21
-7.05723
0
LINE
8
BLACK
6
CONTINUOUS
10
2.99705
20
-7.05723
11
2.99705
21
-6.95599
0
LINE
8
BLACK
6
CONTINUOUS
10
3.07579
20
-7.0741
11
3.06454
21
-7.06848
0
LINE
8
BLACK
6
CONTINUOUS
10
3.06454
20
-7.06848
11
3.05891
21
-7.05723
0
LINE
8
BLACK
6
CONTINUOUS
10
3.05891
20
-7.05723
11
3.05891
21
-6.95599
0
LINE
8
BLACK
6
CONTINUOUS
10
3.21077
20
-7.0741
11
3.21077
21
-6.95599
0
LINE
8
BLACK
6
CONTINUOUS
10
3.21077
20
-6.95599
11
3.25014
21
-7.04035
0
LINE
8
BLACK
6
CONTINUOUS
10
3.25014
20
-7.04035
11
3.28951
21
-6.95599
0
LINE
8
BLACK
6
CONTINUOUS
10
3.28951
20
-6.95599
11
3.28951
21
-7.0741
0
LINE
8
BLACK
6
CONTINUOUS
10
3.39637
20
-7.0741
11
3.39637
21
-7.01223
0
LINE
8
BLACK
6
CONTINUOUS
10
3.39637
20
-7.01223
11
3.39075
21
-7.00098
0
LINE
8
BLACK
6
CONTINUOUS
10
3.39075
20
-7.00098
11
3.3795
21
-6.99536
0
LINE
8
BLACK
6
CONTINUOUS
10
3.3795
20
-6.99536
11
3.357
21
-6.99536
0
LINE
8
BLACK
6
CONTINUOUS
10
3.357
20
-6.99536
11
3.34575
21
-7.00098
0
LINE
8
BLACK
6
CONTINUOUS
10
3.39637
20
-7.06848
11
3.38512
21
-7.0741
0
LINE
8
BLACK
6
CONTINUOUS
10
3.38512
20
-7.0741
11
3.357
21
-7.0741
0
LINE
8
BLACK
6
CONTINUOUS
10
3.357
20
-7.0741
11
3.34575
21
-7.06848
0
LINE
8
BLACK
6
CONTINUOUS
10
3.34575
20
-7.06848
11
3.34013
21
-7.05723
0
LINE
8
BLACK
6
CONTINUOUS
10
3.34013
20
-7.05723
11
3.34013
21
-7.04598
0
LINE
8
BLACK
6
CONTINUOUS
10
3.34013
20
-7.04598
11
3.34575
21
-7.03473
0
LINE
8
BLACK
6
CONTINUOUS
10
3.34575
20
-7.03473
11
3.357
21
-7.02911
0
LINE
8
BLACK
6
CONTINUOUS
10
3.357
20
-7.02911
11
3.38512
21
-7.02911
0
LINE
8
BLACK
6
CONTINUOUS
10
3.38512
20
-7.02911
11
3.39637
21
-7.02348
0
LINE
8
BLACK
6
CONTINUOUS
10
3.45262
20
-6.99536
11
3.45262
21
-7.11347
0
LINE
8
BLACK
6
CONTINUOUS
10
3.45262
20
-7.00098
11
3.46386
21
-6.99536
0
LINE
8
BLACK
6
CONTINUOUS
10
3.46386
20
-6.99536
11
3.48636
21
-6.99536
0
LINE
8
BLACK
6
CONTINUOUS
10
3.48636
20
-6.99536
11
3.49761
21
-7.00098
0
LINE
8
BLACK
6
CONTINUOUS
10
3.49761
20
-7.00098
11
3.50323
21
-7.00661
0
LINE
8
BLACK
6
CONTINUOUS
10
3.50323
20
-7.00661
11
3.50886
21
-7.01786
0
LINE
8
BLACK
6
CONTINUOUS
10
3.50886
20
-7.01786
11
3.50886
21
-7.0516
0
LINE
8
BLACK
6
CONTINUOUS
10
3.50886
20
-7.0516
11
3.50323
21
-7.06285
0
LINE
8
BLACK
6
CONTINUOUS
10
3.50323
20
-7.06285
11
3.49761
21
-7.06848
0
LINE
8
BLACK
6
CONTINUOUS
10
3.49761
20
-7.06848
11
3.48636
21
-7.0741
0
LINE
8
BLACK
6
CONTINUOUS
10
3.48636
20
-7.0741
11
3.46386
21
-7.0741
0
LINE
8
BLACK
6
CONTINUOUS
10
3.46386
20
-7.0741
11
3.45262
21
-7.06848
0
LINE
8
BLACK
6
CONTINUOUS
10
3.55948
20
-7.06285
11
3.5651
21
-7.06848
0
LINE
8
BLACK
6
CONTINUOUS
10
3.5651
20
-7.06848
11
3.55948
21
-7.0741
0
LINE
8
BLACK
6
CONTINUOUS
10
3.55948
20
-7.0741
11
3.55385
21
-7.06848
0
LINE
8
BLACK
6
CONTINUOUS
10
3.55385
20
-7.06848
11
3.55948
21
-7.06285
0
LINE
8
BLACK
6
CONTINUOUS
10
3.55948
20
-7.06285
11
3.55948
21
-7.0741
0
LINE
8
BLACK
6
CONTINUOUS
10
3.55948
20
-7.00098
11
3.5651
21
-7.00661
0
LINE
8
BLACK
6
CONTINUOUS
10
3.5651
20
-7.00661
11
3.55948
21
-7.01223
0
LINE
8
BLACK
6
CONTINUOUS
10
3.55948
20
-7.01223
11
3.55385
21
-7.00661
0
LINE
8
BLACK
6
CONTINUOUS
10
3.55385
20
-7.00661
11
3.55948
21
-7.00098
0
LINE
8
BLACK
6
CONTINUOUS
10
3.55948
20
-7.00098
11
3.55948
21
-7.01223
0
LINE
8
BLACK
6
CONTINUOUS
10
2.56988
20
-7.23524
11
2.63681
21
-7.30217
0
LINE
8
BLACK
6
CONTINUOUS
10
2.63681
20
-7.23524
11
2.56988
21
-7.30217
0
LINE
8
BLACK
6
CONTINUOUS
10
2.81145
20
-7.32213
11
2.74395
21
-7.32213
0
LINE
8
BLACK
6
CONTINUOUS
10
2.7777
20
-7.32213
11
2.7777
21
-7.20402
0
LINE
8
BLACK
6
CONTINUOUS
10
2.7777
20
-7.20402
11
2.76645
21
-7.22089
0
LINE
8
BLACK
6
CONTINUOUS
10
2.76645
20
-7.22089
11
2.7552
21
-7.23214
0
LINE
8
BLACK
6
CONTINUOUS
10
2.7552
20
-7.23214
11
2.74395
21
-7.23777
0
LINE
8
BLACK
6
CONTINUOUS
10
2.86206
20
-7.31088
11
2.86769
21
-7.31651
0
LINE
8
BLACK
6
CONTINUOUS
10
2.86769
20
-7.31651
11
2.86206
21
-7.32213
0
LINE
8
BLACK
6
CONTINUOUS
10
2.86206
20
-7.32213
11
2.85644
21
-7.31651
0
LINE
8
BLACK
6
CONTINUOUS
10
2.85644
20
-7.31651
11
2.86206
21
-7.31088
0
LINE
8
BLACK
6
CONTINUOUS
10
2.86206
20
-7.31088
11
2.86206
21
-7.32213
0
LINE
8
BLACK
6
CONTINUOUS
10
2.90706
20
-7.20402
11
2.9858
21
-7.20402
0
LINE
8
BLACK
6
CONTINUOUS
10
2.9858
20
-7.20402
11
2.93518
21
-7.32213
0
LINE
8
BLACK
6
CONTINUOUS
10
3.05329
20
-7.20402
11
3.06454
21
-7.20402
0
LINE
8
BLACK
6
CONTINUOUS
10
3.06454
20
-7.20402
11
3.07579
21
-7.20965
0
LINE
8
BLACK
6
CONTINUOUS
10
3.07579
20
-7.20965
11
3.08141
21
-7.21527
0
LINE
8
BLACK
6
CONTINUOUS
10
3.08141
20
-7.21527
11
3.08704
21
-7.22652
0
LINE
8
BLACK
6
CONTINUOUS
10
3.08704
20
-7.22652
11
3.09266
21
-7.24902
0
LINE
8
BLACK
6
CONTINUOUS
10
3.09266
20
-7.24902
11
3.09266
21
-7.27714
0
LINE
8
BLACK
6
CONTINUOUS
10
3.09266
20
-7.27714
11
3.08704
21
-7.29963
0
LINE
8
BLACK
6
CONTINUOUS
10
3.08704
20
-7.29963
11
3.08141
21
-7.31088
0
LINE
8
BLACK
6
CONTINUOUS
10
3.08141
20
-7.31088
11
3.07579
21
-7.31651
0
LINE
8
BLACK
6
CONTINUOUS
10
3.07579
20
-7.31651
11
3.06454
21
-7.32213
0
LINE
8
BLACK
6
CONTINUOUS
10
3.06454
20
-7.32213
11
3.05329
21
-7.32213
0
LINE
8
BLACK
6
CONTINUOUS
10
3.05329
20
-7.32213
11
3.04204
21
-7.31651
0
LINE
8
BLACK
6
CONTINUOUS
10
3.04204
20
-7.31651
11
3.03642
21
-7.31088
0
LINE
8
BLACK
6
CONTINUOUS
10
3.03642
20
-7.31088
11
3.03079
21
-7.29963
0
LINE
8
BLACK
6
CONTINUOUS
10
3.03079
20
-7.29963
11
3.02517
21
-7.27714
0
LINE
8
BLACK
6
CONTINUOUS
10
3.02517
20
-7.27714
11
3.02517
21
-7.24902
0
LINE
8
BLACK
6
CONTINUOUS
10
3.02517
20
-7.24902
11
3.03079
21
-7.22652
0
LINE
8
BLACK
6
CONTINUOUS
10
3.03079
20
-7.22652
11
3.03642
21
-7.21527
0
LINE
8
BLACK
6
CONTINUOUS
10
3.03642
20
-7.21527
11
3.04204
21
-7.20965
0
LINE
8
BLACK
6
CONTINUOUS
10
3.04204
20
-7.20965
11
3.05329
21
-7.20402
0
LINE
8
BLACK
6
CONTINUOUS
10
3.16578
20
-7.20402
11
3.17702
21
-7.20402
0
LINE
8
BLACK
6
CONTINUOUS
10
3.17702
20
-7.20402
11
3.18827
21
-7.20965
0
LINE
8
BLACK
6
CONTINUOUS
10
3.18827
20
-7.20965
11
3.1939
21
-7.21527
0
LINE
8
BLACK
6
CONTINUOUS
10
3.1939
20
-7.21527
11
3.19952
21
-7.22652
0
LINE
8
BLACK
6
CONTINUOUS
10
3.19952
20
-7.22652
11
3.20515
21
-7.24902
0
LINE
8
BLACK
6
CONTINUOUS
10
3.20515
20
-7.24902
11
3.20515
21
-7.27714
0
LINE
8
BLACK
6
CONTINUOUS
10
3.20515
20
-7.27714
11
3.19952
21
-7.29963
0
LINE
8
BLACK
6
CONTINUOUS
10
3.19952
20
-7.29963
11
3.1939
21
-7.31088
0
LINE
8
BLACK
6
CONTINUOUS
10
3.1939
20
-7.31088
11
3.18827
21
-7.31651
0
LINE
8
BLACK
6
CONTINUOUS
10
3.18827
20
-7.31651
11
3.17702
21
-7.32213
0
LINE
8
BLACK
6
CONTINUOUS
10
3.17702
20
-7.32213
11
3.16578
21
-7.32213
0
LINE
8
BLACK
6
CONTINUOUS
10
3.16578
20
-7.32213
11
3.15453
21
-7.31651
0
LINE
8
BLACK
6
CONTINUOUS
10
3.15453
20
-7.31651
11
3.1489
21
-7.31088
0
LINE
8
BLACK
6
CONTINUOUS
10
3.1489
20
-7.31088
11
3.14328
21
-7.29963
0
LINE
8
BLACK
6
CONTINUOUS
10
3.14328
20
-7.29963
11
3.13765
21
-7.27714
0
LINE
8
BLACK
6
CONTINUOUS
10
3.13765
20
-7.27714
11
3.13765
21
-7.24902
0
LINE
8
BLACK
6
CONTINUOUS
10
3.13765
20
-7.24902
11
3.14328
21
-7.22652
0
LINE
8
BLACK
6
CONTINUOUS
10
3.14328
20
-7.22652
11
3.1489
21
-7.21527
0
LINE
8
BLACK
6
CONTINUOUS
10
3.1489
20
-7.21527
11
3.15453
21
-7.20965
0
LINE
8
BLACK
6
CONTINUOUS
10
3.15453
20
-7.20965
11
3.16578
21
-7.20402
0
LINE
8
BLACK
6
CONTINUOUS
10
3.25576
20
-7.32213
11
3.25576
21
-7.24339
0
LINE
8
BLACK
6
CONTINUOUS
10
3.25576
20
-7.25464
11
3.26139
21
-7.24902
0
LINE
8
BLACK
6
CONTINUOUS
10
3.26139
20
-7.24902
11
3.27264
21
-7.24339
0
LINE
8
BLACK
6
CONTINUOUS
10
3.27264
20
-7.24339
11
3.28951
21
-7.24339
0
LINE
8
BLACK
6
CONTINUOUS
10
3.28951
20
-7.24339
11
3.30076
21
-7.24902
0
LINE
8
BLACK
6
CONTINUOUS
10
3.30076
20
-7.24902
11
3.30638
21
-7.26026
0
LINE
8
BLACK
6
CONTINUOUS
10
3.30638
20
-7.26026
11
3.30638
21
-7.32213
0
LINE
8
BLACK
6
CONTINUOUS
10
3.30638
20
-7.26026
11
3.31201
21
-7.24902
0
LINE
8
BLACK
6
CONTINUOUS
10
3.31201
20
-7.24902
11
3.32326
21
-7.24339
0
LINE
8
BLACK
6
CONTINUOUS
10
3.32326
20
-7.24339
11
3.34013
21
-7.24339
0
LINE
8
BLACK
6
CONTINUOUS
10
3.34013
20
-7.24339
11
3.35138
21
-7.24902
0
LINE
8
BLACK
6
CONTINUOUS
10
3.35138
20
-7.24902
11
3.357
21
-7.26026
0
LINE
8
BLACK
6
CONTINUOUS
10
3.357
20
-7.26026
11
3.357
21
-7.32213
0
LINE
8
BLACK
6
CONTINUOUS
10
3.41325
20
-7.32213
11
3.41325
21
-7.24339
0
LINE
8
BLACK
6
CONTINUOUS
10
3.41325
20
-7.25464
11
3.41887
21
-7.24902
0
LINE
8
BLACK
6
CONTINUOUS
10
3.41887
20
-7.24902
11
3.43012
21
-7.24339
0
LINE
8
BLACK
6
CONTINUOUS
10
3.43012
20
-7.24339
11
3.44699
21
-7.24339
0
LINE
8
BLACK
6
CONTINUOUS
10
3.44699
20
-7.24339
11
3.45824
21
-7.24902
0
LINE
8
BLACK
6
CONTINUOUS
10
3.45824
20
-7.24902
11
3.46386
21
-7.26026
0
LINE
8
BLACK
6
CONTINUOUS
10
3.46386
20
-7.26026
11
3.46386
21
-7.32213
0
LINE
8
BLACK
6
CONTINUOUS
10
3.46386
20
-7.26026
11
3.46949
21
-7.24902
0
LINE
8
BLACK
6
CONTINUOUS
10
3.46949
20
-7.24902
11
3.48074
21
-7.24339
0
LINE
8
BLACK
6
CONTINUOUS
10
3.48074
20
-7.24339
11
3.49761
21
-7.24339
0
LINE
8
BLACK
6
CONTINUOUS
10
3.49761
20
-7.24339
11
3.50886
21
-7.24902
0
LINE
8
BLACK
6
CONTINUOUS
10
3.50886
20
-7.24902
11
3.51448
21
-7.26026
0
LINE
8
BLACK
6
CONTINUOUS
10
3.51448
20
-7.26026
11
3.51448
21
-7.32213
0
LINE
8
BLACK
6
CONTINUOUS
10
3.74508
20
-7.1984
11
3.64384
21
-7.35025
0
LINE
8
BLACK
6
CONTINUOUS
10
3.89693
20
-7.20402
11
3.90818
21
-7.20402
0
LINE
8
BLACK
6
CONTINUOUS
10
3.90818
20
-7.20402
11
3.91943
21
-7.20965
0
LINE
8
BLACK
6
CONTINUOUS
10
3.91943
20
-7.20965
11
3.92506
21
-7.21527
0
LINE
8
BLACK
6
CONTINUOUS
10
3.92506
20
-7.21527
11
3.93068
21
-7.22652
0
LINE
8
BLACK
6
CONTINUOUS
10
3.93068
20
-7.22652
11
3.9363
21
-7.24902
0
LINE
8
BLACK
6
CONTINUOUS
10
3.9363
20
-7.24902
11
3.9363
21
-7.27714
0
LINE
8
BLACK
6
CONTINUOUS
10
3.9363
20
-7.27714
11
3.93068
21
-7.29963
0
LINE
8
BLACK
6
CONTINUOUS
10
3.93068
20
-7.29963
11
3.92506
21
-7.31088
0
LINE
8
BLACK
6
CONTINUOUS
10
3.92506
20
-7.31088
11
3.91943
21
-7.31651
0
LINE
8
BLACK
6
CONTINUOUS
10
3.91943
20
-7.31651
11
3.90818
21
-7.32213
0
LINE
8
BLACK
6
CONTINUOUS
10
3.90818
20
-7.32213
11
3.89693
21
-7.32213
0
LINE
8
BLACK
6
CONTINUOUS
10
3.89693
20
-7.32213
11
3.88569
21
-7.31651
0
LINE
8
BLACK
6
CONTINUOUS
10
3.88569
20
-7.31651
11
3.88006
21
-7.31088
0
LINE
8
BLACK
6
CONTINUOUS
10
3.88006
20
-7.31088
11
3.87444
21
-7.29963
0
LINE
8
BLACK
6
CONTINUOUS
10
3.87444
20
-7.29963
11
3.86881
21
-7.27714
0
LINE
8
BLACK
6
CONTINUOUS
10
3.86881
20
-7.27714
11
3.86881
21
-7.24902
0
LINE
8
BLACK
6
CONTINUOUS
10
3.86881
20
-7.24902
11
3.87444
21
-7.22652
0
LINE
8
BLACK
6
CONTINUOUS
10
3.87444
20
-7.22652
11
3.88006
21
-7.21527
0
LINE
8
BLACK
6
CONTINUOUS
10
3.88006
20
-7.21527
11
3.88569
21
-7.20965
0
LINE
8
BLACK
6
CONTINUOUS
10
3.88569
20
-7.20965
11
3.89693
21
-7.20402
0
LINE
8
BLACK
6
CONTINUOUS
10
3.98692
20
-7.31088
11
3.99255
21
-7.31651
0
LINE
8
BLACK
6
CONTINUOUS
10
3.99255
20
-7.31651
11
3.98692
21
-7.32213
0
LINE
8
BLACK
6
CONTINUOUS
10
3.98692
20
-7.32213
11
3.9813
21
-7.31651
0
LINE
8
BLACK
6
CONTINUOUS
10
3.9813
20
-7.31651
11
3.98692
21
-7.31088
0
LINE
8
BLACK
6
CONTINUOUS
10
3.98692
20
-7.31088
11
3.98692
21
-7.32213
0
LINE
8
BLACK
6
CONTINUOUS
10
4.06566
20
-7.20402
11
4.07691
21
-7.20402
0
LINE
8
BLACK
6
CONTINUOUS
10
4.07691
20
-7.20402
11
4.08816
21
-7.20965
0
LINE
8
BLACK
6
CONTINUOUS
10
4.08816
20
-7.20965
11
4.09379
21
-7.21527
0
LINE
8
BLACK
6
CONTINUOUS
10
4.09379
20
-7.21527
11
4.09941
21
-7.22652
0
LINE
8
BLACK
6
CONTINUOUS
10
4.09941
20
-7.22652
11
4.10503
21
-7.24902
0
LINE
8
BLACK
6
CONTINUOUS
10
4.10503
20
-7.24902
11
4.10503
21
-7.27714
0
LINE
8
BLACK
6
CONTINUOUS
10
4.10503
20
-7.27714
11
4.09941
21
-7.29963
0
LINE
8
BLACK
6
CONTINUOUS
10
4.09941
20
-7.29963
11
4.09379
21
-7.31088
0
LINE
8
BLACK
6
CONTINUOUS
10
4.09379
20
-7.31088
11
4.08816
21
-7.31651
0
LINE
8
BLACK
6
CONTINUOUS
10
4.08816
20
-7.31651
11
4.07691
21
-7.32213
0
LINE
8
BLACK
6
CONTINUOUS
10
4.07691
20
-7.32213
11
4.06566
21
-7.32213
0
LINE
8
BLACK
6
CONTINUOUS
10
4.06566
20
-7.32213
11
4.05441
21
-7.31651
0
LINE
8
BLACK
6
CONTINUOUS
10
4.05441
20
-7.31651
11
4.04879
21
-7.31088
0
LINE
8
BLACK
6
CONTINUOUS
10
4.04879
20
-7.31088
11
4.04317
21
-7.29963
0
LINE
8
BLACK
6
CONTINUOUS
10
4.04317
20
-7.29963
11
4.03754
21
-7.27714
0
LINE
8
BLACK
6
CONTINUOUS
10
4.03754
20
-7.27714
11
4.03754
21
-7.24902
0
LINE
8
BLACK
6
CONTINUOUS
10
4.03754
20
-7.24902
11
4.04317
21
-7.22652
0
LINE
8
BLACK
6
CONTINUOUS
10
4.04317
20
-7.22652
11
4.04879
21
-7.21527
0
LINE
8
BLACK
6
CONTINUOUS
10
4.04879
20
-7.21527
11
4.05441
21
-7.20965
0
LINE
8
BLACK
6
CONTINUOUS
10
4.05441
20
-7.20965
11
4.06566
21
-7.20402
0
LINE
8
BLACK
6
CONTINUOUS
10
4.20627
20
-7.20402
11
4.18377
21
-7.20402
0
LINE
8
BLACK
6
CONTINUOUS
10
4.18377
20
-7.20402
11
4.17253
21
-7.20965
0
LINE
8
BLACK
6
CONTINUOUS
10
4.17253
20
-7.20965
11
4.1669
21
-7.21527
0
LINE
8
BLACK
6
CONTINUOUS
10
4.1669
20
-7.21527
11
4.15565
21
-7.23214
0
LINE
8
BLACK
6
CONTINUOUS
10
4.15565
20
-7.23214
11
4.15003
21
-7.25464
0
LINE
8
BLACK
6
CONTINUOUS
10
4.15003
20
-7.25464
11
4.15003
21
-7.29963
0
LINE
8
BLACK
6
CONTINUOUS
10
4.15003
20
-7.29963
11
4.15565
21
-7.31088
0
LINE
8
BLACK
6
CONTINUOUS
10
4.15565
20
-7.31088
11
4.16128
21
-7.31651
0
LINE
8
BLACK
6
CONTINUOUS
10
4.16128
20
-7.31651
11
4.17253
21
-7.32213
0
LINE
8
BLACK
6
CONTINUOUS
10
4.17253
20
-7.32213
11
4.19502
21
-7.32213
0
LINE
8
BLACK
6
CONTINUOUS
10
4.19502
20
-7.32213
11
4.20627
21
-7.31651
0
LINE
8
BLACK
6
CONTINUOUS
10
4.20627
20
-7.31651
11
4.2119
21
-7.31088
0
LINE
8
BLACK
6
CONTINUOUS
10
4.2119
20
-7.31088
11
4.21752
21
-7.29963
0
LINE
8
BLACK
6
CONTINUOUS
10
4.21752
20
-7.29963
11
4.21752
21
-7.27151
0
LINE
8
BLACK
6
CONTINUOUS
10
4.21752
20
-7.27151
11
4.2119
21
-7.26026
0
LINE
8
BLACK
6
CONTINUOUS
10
4.2119
20
-7.26026
11
4.20627
21
-7.25464
0
LINE
8
BLACK
6
CONTINUOUS
10
4.20627
20
-7.25464
11
4.19502
21
-7.24902
0
LINE
8
BLACK
6
CONTINUOUS
10
4.19502
20
-7.24902
11
4.17253
21
-7.24902
0
LINE
8
BLACK
6
CONTINUOUS
10
4.17253
20
-7.24902
11
4.16128
21
-7.25464
0
LINE
8
BLACK
6
CONTINUOUS
10
4.16128
20
-7.25464
11
4.15565
21
-7.26026
0
LINE
8
BLACK
6
CONTINUOUS
10
4.15565
20
-7.26026
11
4.15003
21
-7.27151
0
LINE
8
BLACK
6
CONTINUOUS
10
4.31876
20
-7.20402
11
4.29626
21
-7.20402
0
LINE
8
BLACK
6
CONTINUOUS
10
4.29626
20
-7.20402
11
4.28501
21
-7.20965
0
LINE
8
BLACK
6
CONTINUOUS
10
4.28501
20
-7.20965
11
4.27939
21
-7.21527
0
LINE
8
BLACK
6
CONTINUOUS
10
4.27939
20
-7.21527
11
4.26814
21
-7.23214
0
LINE
8
BLACK
6
CONTINUOUS
10
4.26814
20
-7.23214
11
4.26251
21
-7.25464
0
LINE
8
BLACK
6
CONTINUOUS
10
4.26251
20
-7.25464
11
4.26251
21
-7.29963
0
LINE
8
BLACK
6
CONTINUOUS
10
4.26251
20
-7.29963
11
4.26814
21
-7.31088
0
LINE
8
BLACK
6
CONTINUOUS
10
4.26814
20
-7.31088
11
4.27376
21
-7.31651
0
LINE
8
BLACK
6
CONTINUOUS
10
4.27376
20
-7.31651
11
4.28501
21
-7.32213
0
LINE
8
BLACK
6
CONTINUOUS
10
4.28501
20
-7.32213
11
4.30751
21
-7.32213
0
LINE
8
BLACK
6
CONTINUOUS
10
4.30751
20
-7.32213
11
4.31876
21
-7.31651
0
LINE
8
BLACK
6
CONTINUOUS
10
4.31876
20
-7.31651
11
4.32438
21
-7.31088
0
LINE
8
BLACK
6
CONTINUOUS
10
4.32438
20
-7.31088
11
4.33001
21
-7.29963
0
LINE
8
BLACK
6
CONTINUOUS
10
4.33001
20
-7.29963
11
4.33001
21
-7.27151
0
LINE
8
BLACK
6
CONTINUOUS
10
4.33001
20
-7.27151
11
4.32438
21
-7.26026
0
LINE
8
BLACK
6
CONTINUOUS
10
4.32438
20
-7.26026
11
4.31876
21
-7.25464
0
LINE
8
BLACK
6
CONTINUOUS
10
4.31876
20
-7.25464
11
4.30751
21
-7.24902
0
LINE
8
BLACK
6
CONTINUOUS
10
4.30751
20
-7.24902
11
4.28501
21
-7.24902
0
LINE
8
BLACK
6
CONTINUOUS
10
4.28501
20
-7.24902
11
4.27376
21
-7.25464
0
LINE
8
BLACK
6
CONTINUOUS
10
4.27376
20
-7.25464
11
4.26814
21
-7.26026
0
LINE
8
BLACK
6
CONTINUOUS
10
4.26814
20
-7.26026
11
4.26251
21
-7.27151
0
LINE
8
BLACK
6
CONTINUOUS
10
4.38625
20
-7.32213
11
4.40875
21
-7.32213
0
LINE
8
BLACK
6
CONTINUOUS
10
4.40875
20
-7.32213
11
4.41999
21
-7.31651
0
LINE
8
BLACK
6
CONTINUOUS
10
4.41999
20
-7.31651
11
4.42562
21
-7.31088
0
LINE
8
BLACK
6
CONTINUOUS
10
4.42562
20
-7.31088
11
4.43687
21
-7.29401
0
LINE
8
BLACK
6
CONTINUOUS
10
4.43687
20
-7.29401
11
4.44249
21
-7.27151
0
LINE
8
BLACK
6
CONTINUOUS
10
4.44249
20
-7.27151
11
4.44249
21
-7.22652
0
LINE
8
BLACK
6
CONTINUOUS
10
4.44249
20
-7.22652
11
4.43687
21
-7.21527
0
LINE
8
BLACK
6
CONTINUOUS
10
4.43687
20
-7.21527
11
4.43124
21
-7.20965
0
LINE
8
BLACK
6
CONTINUOUS
10
4.43124
20
-7.20965
11
4.41999
21
-7.20402
0
LINE
8
BLACK
6
CONTINUOUS
10
4.41999
20
-7.20402
11
4.3975
21
-7.20402
0
LINE
8
BLACK
6
CONTINUOUS
10
4.3975
20
-7.20402
11
4.38625
21
-7.20965
0
LINE
8
BLACK
6
CONTINUOUS
10
4.38625
20
-7.20965
11
4.38062
21
-7.21527
0
LINE
8
BLACK
6
CONTINUOUS
10
4.38062
20
-7.21527
11
4.375
21
-7.22652
0
LINE
8
BLACK
6
CONTINUOUS
10
4.375
20
-7.22652
11
4.375
21
-7.25464
0
LINE
8
BLACK
6
CONTINUOUS
10
4.375
20
-7.25464
11
4.38062
21
-7.26589
0
LINE
8
BLACK
6
CONTINUOUS
10
4.38062
20
-7.26589
11
4.38625
21
-7.27151
0
LINE
8
BLACK
6
CONTINUOUS
10
4.38625
20
-7.27151
11
4.3975
21
-7.27714
0
LINE
8
BLACK
6
CONTINUOUS
10
4.3975
20
-7.27714
11
4.41999
21
-7.27714
0
LINE
8
BLACK
6
CONTINUOUS
10
4.41999
20
-7.27714
11
4.43124
21
-7.27151
0
LINE
8
BLACK
6
CONTINUOUS
10
4.43124
20
-7.27151
11
4.43687
21
-7.26589
0
LINE
8
BLACK
6
CONTINUOUS
10
4.43687
20
-7.26589
11
4.44249
21
-7.25464
0
LINE
8
BLACK
6
CONTINUOUS
10
4.48749
20
-7.20402
11
4.48749
21
-7.22652
0
LINE
8
BLACK
6
CONTINUOUS
10
4.53248
20
-7.20402
11
4.53248
21
-7.22652
0
LINE
8
BLACK
6
CONTINUOUS
10
4.70683
20
-7.36713
11
4.70121
21
-7.3615
0
LINE
8
BLACK
6
CONTINUOUS
10
4.70121
20
-7.3615
11
4.68996
21
-7.34463
0
LINE
8
BLACK
6
CONTINUOUS
10
4.68996
20
-7.34463
11
4.68434
21
-7.33338
0
LINE
8
BLACK
6
CONTINUOUS
10
4.68434
20
-7.33338
11
4.67871
21
-7.31651
0
LINE
8
BLACK
6
CONTINUOUS
10
4.67871
20
-7.31651
11
4.67309
21
-7.28839
0
LINE
8
BLACK
6
CONTINUOUS
10
4.67309
20
-7.28839
11
4.67309
21
-7.26589
0
LINE
8
BLACK
6
CONTINUOUS
10
4.67309
20
-7.26589
11
4.67871
21
-7.23777
0
LINE
8
BLACK
6
CONTINUOUS
10
4.67871
20
-7.23777
11
4.68434
21
-7.22089
0
LINE
8
BLACK
6
CONTINUOUS
10
4.68434
20
-7.22089
11
4.68996
21
-7.20965
0
LINE
8
BLACK
6
CONTINUOUS
10
4.68996
20
-7.20965
11
4.70121
21
-7.19277
0
LINE
8
BLACK
6
CONTINUOUS
10
4.70121
20
-7.19277
11
4.70683
21
-7.18715
0
LINE
8
BLACK
6
CONTINUOUS
10
4.8137
20
-7.32213
11
4.7462
21
-7.32213
0
LINE
8
BLACK
6
CONTINUOUS
10
4.77995
20
-7.32213
11
4.77995
21
-7.20402
0
LINE
8
BLACK
6
CONTINUOUS
10
4.77995
20
-7.20402
11
4.7687
21
-7.22089
0
LINE
8
BLACK
6
CONTINUOUS
10
4.7687
20
-7.22089
11
4.75745
21
-7.23214
0
LINE
8
BLACK
6
CONTINUOUS
10
4.75745
20
-7.23214
11
4.7462
21
-7.23777
0
LINE
8
BLACK
6
CONTINUOUS
10
4.85869
20
-7.21527
11
4.86431
21
-7.20965
0
LINE
8
BLACK
6
CONTINUOUS
10
4.86431
20
-7.20965
11
4.87556
21
-7.20402
0
LINE
8
BLACK
6
CONTINUOUS
10
4.87556
20
-7.20402
11
4.90368
21
-7.20402
0
LINE
8
BLACK
6
CONTINUOUS
10
4.90368
20
-7.20402
11
4.91493
21
-7.20965
0
LINE
8
BLACK
6
CONTINUOUS
10
4.91493
20
-7.20965
11
4.92056
21
-7.21527
0
LINE
8
BLACK
6
CONTINUOUS
10
4.92056
20
-7.21527
11
4.92618
21
-7.22652
0
LINE
8
BLACK
6
CONTINUOUS
10
4.92618
20
-7.22652
11
4.92618
21
-7.23777
0
LINE
8
BLACK
6
CONTINUOUS
10
4.92618
20
-7.23777
11
4.92056
21
-7.25464
0
LINE
8
BLACK
6
CONTINUOUS
10
4.92056
20
-7.25464
11
4.85307
21
-7.32213
0
LINE
8
BLACK
6
CONTINUOUS
10
4.85307
20
-7.32213
11
4.92618
21
-7.32213
0
LINE
8
BLACK
6
CONTINUOUS
10
4.97118
20
-7.21527
11
4.9768
21
-7.20965
0
LINE
8
BLACK
6
CONTINUOUS
10
4.9768
20
-7.20965
11
4.98805
21
-7.20402
0
LINE
8
BLACK
6
CONTINUOUS
10
4.98805
20
-7.20402
11
5.01617
21
-7.20402
0
LINE
8
BLACK
6
CONTINUOUS
10
5.01617
20
-7.20402
11
5.02742
21
-7.20965
0
LINE
8
BLACK
6
CONTINUOUS
10
5.02742
20
-7.20965
11
5.03304
21
-7.21527
0
LINE
8
BLACK
6
CONTINUOUS
10
5.03304
20
-7.21527
11
5.03867
21
-7.22652
0
LINE
8
BLACK
6
CONTINUOUS
10
5.03867
20
-7.22652
11
5.03867
21
-7.23777
0
LINE
8
BLACK
6
CONTINUOUS
10
5.03867
20
-7.23777
11
5.03304
21
-7.25464
0
LINE
8
BLACK
6
CONTINUOUS
10
5.03304
20
-7.25464
11
4.96555
21
-7.32213
0
LINE
8
BLACK
6
CONTINUOUS
10
4.96555
20
-7.32213
11
5.03867
21
-7.32213
0
LINE
8
BLACK
6
CONTINUOUS
10
5.17927
20
-7.32213
11
5.17927
21
-7.20402
0
LINE
8
BLACK
6
CONTINUOUS
10
5.22989
20
-7.32213
11
5.22989
21
-7.26026
0
LINE
8
BLACK
6
CONTINUOUS
10
5.22989
20
-7.26026
11
5.22427
21
-7.24902
0
LINE
8
BLACK
6
CONTINUOUS
10
5.22427
20
-7.24902
11
5.21302
21
-7.24339
0
LINE
8
BLACK
6
CONTINUOUS
10
5.21302
20
-7.24339
11
5.19615
21
-7.24339
0
LINE
8
BLACK
6
CONTINUOUS
10
5.19615
20
-7.24339
11
5.1849
21
-7.24902
0
LINE
8
BLACK
6
CONTINUOUS
10
5.1849
20
-7.24902
11
5.17927
21
-7.25464
0
LINE
8
BLACK
6
CONTINUOUS
10
5.30301
20
-7.32213
11
5.29176
21
-7.31651
0
LINE
8
BLACK
6
CONTINUOUS
10
5.29176
20
-7.31651
11
5.28614
21
-7.31088
0
LINE
8
BLACK
6
CONTINUOUS
10
5.28614
20
-7.31088
11
5.28051
21
-7.29963
0
LINE
8
BLACK
6
CONTINUOUS
10
5.28051
20
-7.29963
11
5.28051
21
-7.26589
0
LINE
8
BLACK
6
CONTINUOUS
10
5.28051
20
-7.26589
11
5.28614
21
-7.25464
0
LINE
8
BLACK
6
CONTINUOUS
10
5.28614
20
-7.25464
11
5.29176
21
-7.24902
0
LINE
8
BLACK
6
CONTINUOUS
10
5.29176
20
-7.24902
11
5.30301
21
-7.24339
0
LINE
8
BLACK
6
CONTINUOUS
10
5.30301
20
-7.24339
11
5.31988
21
-7.24339
0
LINE
8
BLACK
6
CONTINUOUS
10
5.31988
20
-7.24339
11
5.33113
21
-7.24902
0
LINE
8
BLACK
6
CONTINUOUS
10
5.33113
20
-7.24902
11
5.33675
21
-7.25464
0
LINE
8
BLACK
6
CONTINUOUS
10
5.33675
20
-7.25464
11
5.34238
21
-7.26589
0
LINE
8
BLACK
6
CONTINUOUS
10
5.34238
20
-7.26589
11
5.34238
21
-7.29963
0
LINE
8
BLACK
6
CONTINUOUS
10
5.34238
20
-7.29963
11
5.33675
21
-7.31088
0
LINE
8
BLACK
6
CONTINUOUS
10
5.33675
20
-7.31088
11
5.33113
21
-7.31651
0
LINE
8
BLACK
6
CONTINUOUS
10
5.33113
20
-7.31651
11
5.31988
21
-7.32213
0
LINE
8
BLACK
6
CONTINUOUS
10
5.31988
20
-7.32213
11
5.30301
21
-7.32213
0
LINE
8
BLACK
6
CONTINUOUS
10
5.40987
20
-7.32213
11
5.39862
21
-7.31651
0
LINE
8
BLACK
6
CONTINUOUS
10
5.39862
20
-7.31651
11
5.393
21
-7.30526
0
LINE
8
BLACK
6
CONTINUOUS
10
5.393
20
-7.30526
11
5.393
21
-7.20402
0
LINE
8
BLACK
6
CONTINUOUS
10
5.49986
20
-7.31651
11
5.48861
21
-7.32213
0
LINE
8
BLACK
6
CONTINUOUS
10
5.48861
20
-7.32213
11
5.46611
21
-7.32213
0
LINE
8
BLACK
6
CONTINUOUS
10
5.46611
20
-7.32213
11
5.45486
21
-7.31651
0
LINE
8
BLACK
6
CONTINUOUS
10
5.45486
20
-7.31651
11
5.44924
21
-7.30526
0
LINE
8
BLACK
6
CONTINUOUS
10
5.44924
20
-7.30526
11
5.44924
21
-7.26026
0
LINE
8
BLACK
6
CONTINUOUS
10
5.44924
20
-7.26026
11
5.45486
21
-7.24902
0
LINE
8
BLACK
6
CONTINUOUS
10
5.45486
20
-7.24902
11
5.46611
21
-7.24339
0
LINE
8
BLACK
6
CONTINUOUS
10
5.46611
20
-7.24339
11
5.48861
21
-7.24339
0
LINE
8
BLACK
6
CONTINUOUS
10
5.48861
20
-7.24339
11
5.49986
21
-7.24902
0
LINE
8
BLACK
6
CONTINUOUS
10
5.49986
20
-7.24902
11
5.50548
21
-7.26026
0
LINE
8
BLACK
6
CONTINUOUS
10
5.50548
20
-7.26026
11
5.50548
21
-7.27151
0
LINE
8
BLACK
6
CONTINUOUS
10
5.50548
20
-7.27151
11
5.44924
21
-7.28276
0
LINE
8
BLACK
6
CONTINUOUS
10
5.55048
20
-7.31651
11
5.56173
21
-7.32213
0
LINE
8
BLACK
6
CONTINUOUS
10
5.56173
20
-7.32213
11
5.58422
21
-7.32213
0
LINE
8
BLACK
6
CONTINUOUS
10
5.58422
20
-7.32213
11
5.59547
21
-7.31651
0
LINE
8
BLACK
6
CONTINUOUS
10
5.59547
20
-7.31651
11
5.6011
21
-7.30526
0
LINE
8
BLACK
6
CONTINUOUS
10
5.6011
20
-7.30526
11
5.6011
21
-7.29963
0
LINE
8
BLACK
6
CONTINUOUS
10
5.6011
20
-7.29963
11
5.59547
21
-7.28839
0
LINE
8
BLACK
6
CONTINUOUS
10
5.59547
20
-7.28839
11
5.58422
21
-7.28276
0
LINE
8
BLACK
6
CONTINUOUS
10
5.58422
20
-7.28276
11
5.56735
21
-7.28276
0
LINE
8
BLACK
6
CONTINUOUS
10
5.56735
20
-7.28276
11
5.5561
21
-7.27714
0
LINE
8
BLACK
6
CONTINUOUS
10
5.5561
20
-7.27714
11
5.55048
21
-7.26589
0
LINE
8
BLACK
6
CONTINUOUS
10
5.55048
20
-7.26589
11
5.55048
21
-7.26026
0
LINE
8
BLACK
6
CONTINUOUS
10
5.55048
20
-7.26026
11
5.5561
21
-7.24902
0
LINE
8
BLACK
6
CONTINUOUS
10
5.5561
20
-7.24902
11
5.56735
21
-7.24339
0
LINE
8
BLACK
6
CONTINUOUS
10
5.56735
20
-7.24339
11
5.58422
21
-7.24339
0
LINE
8
BLACK
6
CONTINUOUS
10
5.58422
20
-7.24339
11
5.59547
21
-7.24902
0
LINE
8
BLACK
6
CONTINUOUS
10
5.64047
20
-7.36713
11
5.64609
21
-7.3615
0
LINE
8
BLACK
6
CONTINUOUS
10
5.64609
20
-7.3615
11
5.65734
21
-7.34463
0
LINE
8
BLACK
6
CONTINUOUS
10
5.65734
20
-7.34463
11
5.66296
21
-7.33338
0
LINE
8
BLACK
6
CONTINUOUS
10
5.66296
20
-7.33338
11
5.66859
21
-7.31651
0
LINE
8
BLACK
6
CONTINUOUS
10
5.66859
20
-7.31651
11
5.67421
21
-7.28839
0
LINE
8
BLACK
6
CONTINUOUS
10
5.67421
20
-7.28839
11
5.67421
21
-7.26589
0
LINE
8
BLACK
6
CONTINUOUS
10
5.67421
20
-7.26589
11
5.66859
21
-7.23777
0
LINE
8
BLACK
6
CONTINUOUS
10
5.66859
20
-7.23777
11
5.66296
21
-7.22089
0
LINE
8
BLACK
6
CONTINUOUS
10
5.66296
20
-7.22089
11
5.65734
21
-7.20965
0
LINE
8
BLACK
6
CONTINUOUS
10
5.65734
20
-7.20965
11
5.64609
21
-7.19277
0
LINE
8
BLACK
6
CONTINUOUS
10
5.64609
20
-7.19277
11
5.64047
21
-7.18715
0
LINE
8
BLACK
6
CONTINUOUS
10
5.85419
20
-7.36713
11
5.84857
21
-7.3615
0
LINE
8
BLACK
6
CONTINUOUS
10
5.84857
20
-7.3615
11
5.83732
21
-7.34463
0
LINE
8
BLACK
6
CONTINUOUS
10
5.83732
20
-7.34463
11
5.83169
21
-7.33338
0
LINE
8
BLACK
6
CONTINUOUS
10
5.83169
20
-7.33338
11
5.82607
21
-7.31651
0
LINE
8
BLACK
6
CONTINUOUS
10
5.82607
20
-7.31651
11
5.82044
21
-7.28839
0
LINE
8
BLACK
6
CONTINUOUS
10
5.82044
20
-7.28839
11
5.82044
21
-7.26589
0
LINE
8
BLACK
6
CONTINUOUS
10
5.82044
20
-7.26589
11
5.82607
21
-7.23777
0
LINE
8
BLACK
6
CONTINUOUS
10
5.82607
20
-7.23777
11
5.83169
21
-7.22089
0
LINE
8
BLACK
6
CONTINUOUS
10
5.83169
20
-7.22089
11
5.83732
21
-7.20965
0
LINE
8
BLACK
6
CONTINUOUS
10
5.83732
20
-7.20965
11
5.84857
21
-7.19277
0
LINE
8
BLACK
6
CONTINUOUS
10
5.84857
20
-7.19277
11
5.85419
21
-7.18715
0
LINE
8
BLACK
6
CONTINUOUS
10
5.89918
20
-7.24339
11
5.89918
21
-7.32213
0
LINE
8
BLACK
6
CONTINUOUS
10
5.89918
20
-7.25464
11
5.90481
21
-7.24902
0
LINE
8
BLACK
6
CONTINUOUS
10
5.90481
20
-7.24902
11
5.91606
21
-7.24339
0
LINE
8
BLACK
6
CONTINUOUS
10
5.91606
20
-7.24339
11
5.93293
21
-7.24339
0
LINE
8
BLACK
6
CONTINUOUS
10
5.93293
20
-7.24339
11
5.94418
21
-7.24902
0
LINE
8
BLACK
6
CONTINUOUS
10
5.94418
20
-7.24902
11
5.9498
21
-7.26026
0
LINE
8
BLACK
6
CONTINUOUS
10
5.9498
20
-7.26026
11
5.9498
21
-7.32213
0
LINE
8
BLACK
6
CONTINUOUS
10
6.02292
20
-7.32213
11
6.01167
21
-7.31651
0
LINE
8
BLACK
6
CONTINUOUS
10
6.01167
20
-7.31651
11
6.00605
21
-7.31088
0
LINE
8
BLACK
6
CONTINUOUS
10
6.00605
20
-7.31088
11
6.00042
21
-7.29963
0
LINE
8
BLACK
6
CONTINUOUS
10
6.00042
20
-7.29963
11
6.00042
21
-7.26589
0
LINE
8
BLACK
6
CONTINUOUS
10
6.00042
20
-7.26589
11
6.00605
21
-7.25464
0
LINE
8
BLACK
6
CONTINUOUS
10
6.00605
20
-7.25464
11
6.01167
21
-7.24902
0
LINE
8
BLACK
6
CONTINUOUS
10
6.01167
20
-7.24902
11
6.02292
21
-7.24339
0
LINE
8
BLACK
6
CONTINUOUS
10
6.02292
20
-7.24339
11
6.03979
21
-7.24339
0
LINE
8
BLACK
6
CONTINUOUS
10
6.03979
20
-7.24339
11
6.05104
21
-7.24902
0
LINE
8
BLACK
6
CONTINUOUS
10
6.05104
20
-7.24902
11
6.05666
21
-7.25464
0
LINE
8
BLACK
6
CONTINUOUS
10
6.05666
20
-7.25464
11
6.06229
21
-7.26589
0
LINE
8
BLACK
6
CONTINUOUS
10
6.06229
20
-7.26589
11
6.06229
21
-7.29963
0
LINE
8
BLACK
6
CONTINUOUS
10
6.06229
20
-7.29963
11
6.05666
21
-7.31088
0
LINE
8
BLACK
6
CONTINUOUS
10
6.05666
20
-7.31088
11
6.05104
21
-7.31651
0
LINE
8
BLACK
6
CONTINUOUS
10
6.05104
20
-7.31651
11
6.03979
21
-7.32213
0
LINE
8
BLACK
6
CONTINUOUS
10
6.03979
20
-7.32213
11
6.02292
21
-7.32213
0
LINE
8
BLACK
6
CONTINUOUS
10
6.09603
20
-7.24339
11
6.14103
21
-7.24339
0
LINE
8
BLACK
6
CONTINUOUS
10
6.11291
20
-7.20402
11
6.11291
21
-7.30526
0
LINE
8
BLACK
6
CONTINUOUS
10
6.11291
20
-7.30526
11
6.11853
21
-7.31651
0
LINE
8
BLACK
6
CONTINUOUS
10
6.11853
20
-7.31651
11
6.12978
21
-7.32213
0
LINE
8
BLACK
6
CONTINUOUS
10
6.12978
20
-7.32213
11
6.14103
21
-7.32213
0
LINE
8
BLACK
6
CONTINUOUS
10
6.27039
20
-7.24339
11
6.27039
21
-7.3615
0
LINE
8
BLACK
6
CONTINUOUS
10
6.27039
20
-7.24902
11
6.28164
21
-7.24339
0
LINE
8
BLACK
6
CONTINUOUS
10
6.28164
20
-7.24339
11
6.30413
21
-7.24339
0
LINE
8
BLACK
6
CONTINUOUS
10
6.30413
20
-7.24339
11
6.31538
21
-7.24902
0
LINE
8
BLACK
6
CONTINUOUS
10
6.31538
20
-7.24902
11
6.32101
21
-7.25464
0
LINE
8
BLACK
6
CONTINUOUS
10
6.32101
20
-7.25464
11
6.32663
21
-7.26589
0
LINE
8
BLACK
6
CONTINUOUS
10
6.32663
20
-7.26589
11
6.32663
21
-7.29963
0
LINE
8
BLACK
6
CONTINUOUS
10
6.32663
20
-7.29963
11
6.32101
21
-7.31088
0
LINE
8
BLACK
6
CONTINUOUS
10
6.32101
20
-7.31088
11
6.31538
21
-7.31651
0
LINE
8
BLACK
6
CONTINUOUS
10
6.31538
20
-7.31651
11
6.30413
21
-7.32213
0
LINE
8
BLACK
6
CONTINUOUS
10
6.30413
20
-7.32213
11
6.28164
21
-7.32213
0
LINE
8
BLACK
6
CONTINUOUS
10
6.28164
20
-7.32213
11
6.27039
21
-7.31651
0
LINE
8
BLACK
6
CONTINUOUS
10
6.39412
20
-7.32213
11
6.38287
21
-7.31651
0
LINE
8
BLACK
6
CONTINUOUS
10
6.38287
20
-7.31651
11
6.37725
21
-7.30526
0
LINE
8
BLACK
6
CONTINUOUS
10
6.37725
20
-7.30526
11
6.37725
21
-7.20402
0
LINE
8
BLACK
6
CONTINUOUS
10
6.48974
20
-7.32213
11
6.48974
21
-7.26026
0
LINE
8
BLACK
6
CONTINUOUS
10
6.48974
20
-7.26026
11
6.48411
21
-7.24902
0
LINE
8
BLACK
6
CONTINUOUS
10
6.48411
20
-7.24902
11
6.47286
21
-7.24339
0
LINE
8
BLACK
6
CONTINUOUS
10
6.47286
20
-7.24339
11
6.45037
21
-7.24339
0
LINE
8
BLACK
6
CONTINUOUS
10
6.45037
20
-7.24339
11
6.43912
21
-7.24902
0
LINE
8
BLACK
6
CONTINUOUS
10
6.48974
20
-7.31651
11
6.47849
21
-7.32213
0
LINE
8
BLACK
6
CONTINUOUS
10
6.47849
20
-7.32213
11
6.45037
21
-7.32213
0
LINE
8
BLACK
6
CONTINUOUS
10
6.45037
20
-7.32213
11
6.43912
21
-7.31651
0
LINE
8
BLACK
6
CONTINUOUS
10
6.43912
20
-7.31651
11
6.43349
21
-7.30526
0
LINE
8
BLACK
6
CONTINUOUS
10
6.43349
20
-7.30526
11
6.43349
21
-7.29401
0
LINE
8
BLACK
6
CONTINUOUS
10
6.43349
20
-7.29401
11
6.43912
21
-7.28276
0
LINE
8
BLACK
6
CONTINUOUS
10
6.43912
20
-7.28276
11
6.45037
21
-7.27714
0
LINE
8
BLACK
6
CONTINUOUS
10
6.45037
20
-7.27714
11
6.47849
21
-7.27714
0
LINE
8
BLACK
6
CONTINUOUS
10
6.47849
20
-7.27714
11
6.48974
21
-7.27151
0
LINE
8
BLACK
6
CONTINUOUS
10
6.52911
20
-7.24339
11
6.5741
21
-7.24339
0
LINE
8
BLACK
6
CONTINUOUS
10
6.54598
20
-7.20402
11
6.54598
21
-7.30526
0
LINE
8
BLACK
6
CONTINUOUS
10
6.54598
20
-7.30526
11
6.5516
21
-7.31651
0
LINE
8
BLACK
6
CONTINUOUS
10
6.5516
20
-7.31651
11
6.56285
21
-7.32213
0
LINE
8
BLACK
6
CONTINUOUS
10
6.56285
20
-7.32213
11
6.5741
21
-7.32213
0
LINE
8
BLACK
6
CONTINUOUS
10
6.65846
20
-7.31651
11
6.64722
21
-7.32213
0
LINE
8
BLACK
6
CONTINUOUS
10
6.64722
20
-7.32213
11
6.62472
21
-7.32213
0
LINE
8
BLACK
6
CONTINUOUS
10
6.62472
20
-7.32213
11
6.61347
21
-7.31651
0
LINE
8
BLACK
6
CONTINUOUS
10
6.61347
20
-7.31651
11
6.60785
21
-7.30526
0
LINE
8
BLACK
6
CONTINUOUS
10
6.60785
20
-7.30526
11
6.60785
21
-7.26026
0
LINE
8
BLACK
6
CONTINUOUS
10
6.60785
20
-7.26026
11
6.61347
21
-7.24902
0
LINE
8
BLACK
6
CONTINUOUS
10
6.61347
20
-7.24902
11
6.62472
21
-7.24339
0
LINE
8
BLACK
6
CONTINUOUS
10
6.62472
20
-7.24339
11
6.64722
21
-7.24339
0
LINE
8
BLACK
6
CONTINUOUS
10
6.64722
20
-7.24339
11
6.65846
21
-7.24902
0
LINE
8
BLACK
6
CONTINUOUS
10
6.65846
20
-7.24902
11
6.66409
21
-7.26026
0
LINE
8
BLACK
6
CONTINUOUS
10
6.66409
20
-7.26026
11
6.66409
21
-7.27151
0
LINE
8
BLACK
6
CONTINUOUS
10
6.66409
20
-7.27151
11
6.60785
21
-7.28276
0
LINE
8
BLACK
6
CONTINUOUS
10
6.76533
20
-7.32213
11
6.76533
21
-7.20402
0
LINE
8
BLACK
6
CONTINUOUS
10
6.76533
20
-7.31651
11
6.75408
21
-7.32213
0
LINE
8
BLACK
6
CONTINUOUS
10
6.75408
20
-7.32213
11
6.73158
21
-7.32213
0
LINE
8
BLACK
6
CONTINUOUS
10
6.73158
20
-7.32213
11
6.72033
21
-7.31651
0
LINE
8
BLACK
6
CONTINUOUS
10
6.72033
20
-7.31651
11
6.71471
21
-7.31088
0
LINE
8
BLACK
6
CONTINUOUS
10
6.71471
20
-7.31088
11
6.70908
21
-7.29963
0
LINE
8
BLACK
6
CONTINUOUS
10
6.70908
20
-7.29963
11
6.70908
21
-7.26589
0
LINE
8
BLACK
6
CONTINUOUS
10
6.70908
20
-7.26589
11
6.71471
21
-7.25464
0
LINE
8
BLACK
6
CONTINUOUS
10
6.71471
20
-7.25464
11
6.72033
21
-7.24902
0
LINE
8
BLACK
6
CONTINUOUS
10
6.72033
20
-7.24902
11
6.73158
21
-7.24339
0
LINE
8
BLACK
6
CONTINUOUS
10
6.73158
20
-7.24339
11
6.75408
21
-7.24339
0
LINE
8
BLACK
6
CONTINUOUS
10
6.75408
20
-7.24339
11
6.76533
21
-7.24902
0
LINE
8
BLACK
6
CONTINUOUS
10
6.81032
20
-7.36713
11
6.81594
21
-7.3615
0
LINE
8
BLACK
6
CONTINUOUS
10
6.81594
20
-7.3615
11
6.82719
21
-7.34463
0
LINE
8
BLACK
6
CONTINUOUS
10
6.82719
20
-7.34463
11
6.83282
21
-7.33338
0
LINE
8
BLACK
6
CONTINUOUS
10
6.83282
20
-7.33338
11
6.83844
21
-7.31651
0
LINE
8
BLACK
6
CONTINUOUS
10
6.83844
20
-7.31651
11
6.84407
21
-7.28839
0
LINE
8
BLACK
6
CONTINUOUS
10
6.84407
20
-7.28839
11
6.84407
21
-7.26589
0
LINE
8
BLACK
6
CONTINUOUS
10
6.84407
20
-7.26589
11
6.83844
21
-7.23777
0
LINE
8
BLACK
6
CONTINUOUS
10
6.83844
20
-7.23777
11
6.83282
21
-7.22089
0
LINE
8
BLACK
6
CONTINUOUS
10
6.83282
20
-7.22089
11
6.82719
21
-7.20965
0
LINE
8
BLACK
6
CONTINUOUS
10
6.82719
20
-7.20965
11
6.81594
21
-7.19277
0
LINE
8
BLACK
6
CONTINUOUS
10
6.81594
20
-7.19277
11
6.81032
21
-7.18715
0
CIRCLE
8
BLACK
10
2.57677
20
-7.42461
40
0.0600394
0
LINE
8
BLACK
6
CONTINUOUS
10
2.73833
20
-7.35993
11
2.81145
21
-7.35993
0
LINE
8
BLACK
6
CONTINUOUS
10
2.81145
20
-7.35993
11
2.77208
21
-7.40492
0
LINE
8
BLACK
6
CONTINUOUS
10
2.77208
20
-7.40492
11
2.78895
21
-7.40492
0
LINE
8
BLACK
6
CONTINUOUS
10
2.78895
20
-7.40492
11
2.8002
21
-7.41055
0
LINE
8
BLACK
6
CONTINUOUS
10
2.8002
20
-7.41055
11
2.80582
21
-7.41617
0
LINE
8
BLACK
6
CONTINUOUS
10
2.80582
20
-7.41617
11
2.81145
21
-7.42742
0
LINE
8
BLACK
6
CONTINUOUS
10
2.81145
20
-7.42742
11
2.81145
21
-7.45554
0
LINE
8
BLACK
6
CONTINUOUS
10
2.81145
20
-7.45554
11
2.80582
21
-7.46679
0
LINE
8
BLACK
6
CONTINUOUS
10
2.80582
20
-7.46679
11
2.8002
21
-7.47241
0
LINE
8
BLACK
6
CONTINUOUS
10
2.8002
20
-7.47241
11
2.78895
21
-7.47804
0
LINE
8
BLACK
6
CONTINUOUS
10
2.78895
20
-7.47804
11
2.7552
21
-7.47804
0
LINE
8
BLACK
6
CONTINUOUS
10
2.7552
20
-7.47804
11
2.74395
21
-7.47241
0
LINE
8
BLACK
6
CONTINUOUS
10
2.74395
20
-7.47241
11
2.73833
21
-7.46679
0
LINE
8
BLACK
6
CONTINUOUS
10
2.86206
20
-7.46679
11
2.86769
21
-7.47241
0
LINE
8
BLACK
6
CONTINUOUS
10
2.86769
20
-7.47241
11
2.86206
21
-7.47804
0
LINE
8
BLACK
6
CONTINUOUS
10
2.86206
20
-7.47804
11
2.85644
21
-7.47241
0
LINE
8
BLACK
6
CONTINUOUS
10
2.85644
20
-7.47241
11
2.86206
21
-7.46679
0
LINE
8
BLACK
6
CONTINUOUS
10
2.86206
20
-7.46679
11
2.86206
21
-7.47804
0
LINE
8
BLACK
6
CONTINUOUS
10
2.9408
20
-7.35993
11
2.95205
21
-7.35993
0
LINE
8
BLACK
6
CONTINUOUS
10
2.95205
20
-7.35993
11
2.9633
21
-7.36555
0
LINE
8
BLACK
6
CONTINUOUS
10
2.9633
20
-7.36555
11
2.96893
21
-7.37118
0
LINE
8
BLACK
6
CONTINUOUS
10
2.96893
20
-7.37118
11
2.97455
21
-7.38242
0
LINE
8
BLACK
6
CONTINUOUS
10
2.97455
20
-7.38242
11
2.98017
21
-7.40492
0
LINE
8
BLACK
6
CONTINUOUS
10
2.98017
20
-7.40492
11
2.98017
21
-7.43304
0
LINE
8
BLACK
6
CONTINUOUS
10
2.98017
20
-7.43304
11
2.97455
21
-7.45554
0
LINE
8
BLACK
6
CONTINUOUS
10
2.97455
20
-7.45554
11
2.96893
21
-7.46679
0
LINE
8
BLACK
6
CONTINUOUS
10
2.96893
20
-7.46679
11
2.9633
21
-7.47241
0
LINE
8
BLACK
6
CONTINUOUS
10
2.9633
20
-7.47241
11
2.95205
21
-7.47804
0
LINE
8
BLACK
6
CONTINUOUS
10
2.95205
20
-7.47804
11
2.9408
21
-7.47804
0
LINE
8
BLACK
6
CONTINUOUS
10
2.9408
20
-7.47804
11
2.92956
21
-7.47241
0
LINE
8
BLACK
6
CONTINUOUS
10
2.92956
20
-7.47241
11
2.92393
21
-7.46679
0
LINE
8
BLACK
6
CONTINUOUS
10
2.92393
20
-7.46679
11
2.91831
21
-7.45554
0
LINE
8
BLACK
6
CONTINUOUS
10
2.91831
20
-7.45554
11
2.91268
21
-7.43304
0
LINE
8
BLACK
6
CONTINUOUS
10
2.91268
20
-7.43304
11
2.91268
21
-7.40492
0
LINE
8
BLACK
6
CONTINUOUS
10
2.91268
20
-7.40492
11
2.91831
21
-7.38242
0
LINE
8
BLACK
6
CONTINUOUS
10
2.91831
20
-7.38242
11
2.92393
21
-7.37118
0
LINE
8
BLACK
6
CONTINUOUS
10
2.92393
20
-7.37118
11
2.92956
21
-7.36555
0
LINE
8
BLACK
6
CONTINUOUS
10
2.92956
20
-7.36555
11
2.9408
21
-7.35993
0
LINE
8
BLACK
6
CONTINUOUS
10
3.08704
20
-7.35993
11
3.03079
21
-7.35993
0
LINE
8
BLACK
6
CONTINUOUS
10
3.03079
20
-7.35993
11
3.02517
21
-7.41617
0
LINE
8
BLACK
6
CONTINUOUS
10
3.02517
20
-7.41617
11
3.03079
21
-7.41055
0
LINE
8
BLACK
6
CONTINUOUS
10
3.03079
20
-7.41055
11
3.04204
21
-7.40492
0
LINE
8
BLACK
6
CONTINUOUS
10
3.04204
20
-7.40492
11
3.07016
21
-7.40492
0
LINE
8
BLACK
6
CONTINUOUS
10
3.07016
20
-7.40492
11
3.08141
21
-7.41055
0
LINE
8
BLACK
6
CONTINUOUS
10
3.08141
20
-7.41055
11
3.08704
21
-7.41617
0
LINE
8
BLACK
6
CONTINUOUS
10
3.08704
20
-7.41617
11
3.09266
21
-7.42742
0
LINE
8
BLACK
6
CONTINUOUS
10
3.09266
20
-7.42742
11
3.09266
21
-7.45554
0
LINE
8
BLACK
6
CONTINUOUS
10
3.09266
20
-7.45554
11
3.08704
21
-7.46679
0
LINE
8
BLACK
6
CONTINUOUS
10
3.08704
20
-7.46679
11
3.08141
21
-7.47241
0
LINE
8
BLACK
6
CONTINUOUS
10
3.08141
20
-7.47241
11
3.07016
21
-7.47804
0
LINE
8
BLACK
6
CONTINUOUS
10
3.07016
20
-7.47804
11
3.04204
21
-7.47804
0
LINE
8
BLACK
6
CONTINUOUS
10
3.04204
20
-7.47804
11
3.03079
21
-7.47241
0
LINE
8
BLACK
6
CONTINUOUS
10
3.03079
20
-7.47241
11
3.02517
21
-7.46679
0
LINE
8
BLACK
6
CONTINUOUS
10
3.16578
20
-7.35993
11
3.17702
21
-7.35993
0
LINE
8
BLACK
6
CONTINUOUS
10
3.17702
20
-7.35993
11
3.18827
21
-7.36555
0
LINE
8
BLACK
6
CONTINUOUS
10
3.18827
20
-7.36555
11
3.1939
21
-7.37118
0
LINE
8
BLACK
6
CONTINUOUS
10
3.1939
20
-7.37118
11
3.19952
21
-7.38242
0
LINE
8
BLACK
6
CONTINUOUS
10
3.19952
20
-7.38242
11
3.20515
21
-7.40492
0
LINE
8
BLACK
6
CONTINUOUS
10
3.20515
20
-7.40492
11
3.20515
21
-7.43304
0
LINE
8
BLACK
6
CONTINUOUS
10
3.20515
20
-7.43304
11
3.19952
21
-7.45554
0
LINE
8
BLACK
6
CONTINUOUS
10
3.19952
20
-7.45554
11
3.1939
21
-7.46679
0
LINE
8
BLACK
6
CONTINUOUS
10
3.1939
20
-7.46679
11
3.18827
21
-7.47241
0
LINE
8
BLACK
6
CONTINUOUS
10
3.18827
20
-7.47241
11
3.17702
21
-7.47804
0
LINE
8
BLACK
6
CONTINUOUS
10
3.17702
20
-7.47804
11
3.16578
21
-7.47804
0
LINE
8
BLACK
6
CONTINUOUS
10
3.16578
20
-7.47804
11
3.15453
21
-7.47241
0
LINE
8
BLACK
6
CONTINUOUS
10
3.15453
20
-7.47241
11
3.1489
21
-7.46679
0
LINE
8
BLACK
6
CONTINUOUS
10
3.1489
20
-7.46679
11
3.14328
21
-7.45554
0
LINE
8
BLACK
6
CONTINUOUS
10
3.14328
20
-7.45554
11
3.13765
21
-7.43304
0
LINE
8
BLACK
6
CONTINUOUS
10
3.13765
20
-7.43304
11
3.13765
21
-7.40492
0
LINE
8
BLACK
6
CONTINUOUS
10
3.13765
20
-7.40492
11
3.14328
21
-7.38242
0
LINE
8
BLACK
6
CONTINUOUS
10
3.14328
20
-7.38242
11
3.1489
21
-7.37118
0
LINE
8
BLACK
6
CONTINUOUS
10
3.1489
20
-7.37118
11
3.15453
21
-7.36555
0
LINE
8
BLACK
6
CONTINUOUS
10
3.15453
20
-7.36555
11
3.16578
21
-7.35993
0
LINE
8
BLACK
6
CONTINUOUS
10
3.25576
20
-7.47804
11
3.25576
21
-7.3993
0
LINE
8
BLACK
6
CONTINUOUS
10
3.25576
20
-7.41055
11
3.26139
21
-7.40492
0
LINE
8
BLACK
6
CONTINUOUS
10
3.26139
20
-7.40492
11
3.27264
21
-7.3993
0
LINE
8
BLACK
6
CONTINUOUS
10
3.27264
20
-7.3993
11
3.28951
21
-7.3993
0
LINE
8
BLACK
6
CONTINUOUS
10
3.28951
20
-7.3993
11
3.30076
21
-7.40492
0
LINE
8
BLACK
6
CONTINUOUS
10
3.30076
20
-7.40492
11
3.30638
21
-7.41617
0
LINE
8
BLACK
6
CONTINUOUS
10
3.30638
20
-7.41617
11
3.30638
21
-7.47804
0
LINE
8
BLACK
6
CONTINUOUS
10
3.30638
20
-7.41617
11
3.31201
21
-7.40492
0
LINE
8
BLACK
6
CONTINUOUS
10
3.31201
20
-7.40492
11
3.32326
21
-7.3993
0
LINE
8
BLACK
6
CONTINUOUS
10
3.32326
20
-7.3993
11
3.34013
21
-7.3993
0
LINE
8
BLACK
6
CONTINUOUS
10
3.34013
20
-7.3993
11
3.35138
21
-7.40492
0
LINE
8
BLACK
6
CONTINUOUS
10
3.35138
20
-7.40492
11
3.357
21
-7.41617
0
LINE
8
BLACK
6
CONTINUOUS
10
3.357
20
-7.41617
11
3.357
21
-7.47804
0
LINE
8
BLACK
6
CONTINUOUS
10
3.41325
20
-7.47804
11
3.41325
21
-7.3993
0
LINE
8
BLACK
6
CONTINUOUS
10
3.41325
20
-7.41055
11
3.41887
21
-7.40492
0
LINE
8
BLACK
6
CONTINUOUS
10
3.41887
20
-7.40492
11
3.43012
21
-7.3993
0
LINE
8
BLACK
6
CONTINUOUS
10
3.43012
20
-7.3993
11
3.44699
21
-7.3993
0
LINE
8
BLACK
6
CONTINUOUS
10
3.44699
20
-7.3993
11
3.45824
21
-7.40492
0
LINE
8
BLACK
6
CONTINUOUS
10
3.45824
20
-7.40492
11
3.46386
21
-7.41617
0
LINE
8
BLACK
6
CONTINUOUS
10
3.46386
20
-7.41617
11
3.46386
21
-7.47804
0
LINE
8
BLACK
6
CONTINUOUS
10
3.46386
20
-7.41617
11
3.46949
21
-7.40492
0
LINE
8
BLACK
6
CONTINUOUS
10
3.46949
20
-7.40492
11
3.48074
21
-7.3993
0
LINE
8
BLACK
6
CONTINUOUS
10
3.48074
20
-7.3993
11
3.49761
21
-7.3993
0
LINE
8
BLACK
6
CONTINUOUS
10
3.49761
20
-7.3993
11
3.50886
21
-7.40492
0
LINE
8
BLACK
6
CONTINUOUS
10
3.50886
20
-7.40492
11
3.51448
21
-7.41617
0
LINE
8
BLACK
6
CONTINUOUS
10
3.51448
20
-7.41617
11
3.51448
21
-7.47804
0
LINE
8
BLACK
6
CONTINUOUS
10
3.74508
20
-7.3543
11
3.64384
21
-7.50616
0
LINE
8
BLACK
6
CONTINUOUS
10
3.89693
20
-7.35993
11
3.90818
21
-7.35993
0
LINE
8
BLACK
6
CONTINUOUS
10
3.90818
20
-7.35993
11
3.91943
21
-7.36555
0
LINE
8
BLACK
6
CONTINUOUS
10
3.91943
20
-7.36555
11
3.92506
21
-7.37118
0
LINE
8
BLACK
6
CONTINUOUS
10
3.92506
20
-7.37118
11
3.93068
21
-7.38242
0
LINE
8
BLACK
6
CONTINUOUS
10
3.93068
20
-7.38242
11
3.9363
21
-7.40492
0
LINE
8
BLACK
6
CONTINUOUS
10
3.9363
20
-7.40492
11
3.9363
21
-7.43304
0
LINE
8
BLACK
6
CONTINUOUS
10
3.9363
20
-7.43304
11
3.93068
21
-7.45554
0
LINE
8
BLACK
6
CONTINUOUS
10
3.93068
20
-7.45554
11
3.92506
21
-7.46679
0
LINE
8
BLACK
6
CONTINUOUS
10
3.92506
20
-7.46679
11
3.91943
21
-7.47241
0
LINE
8
BLACK
6
CONTINUOUS
10
3.91943
20
-7.47241
11
3.90818
21
-7.47804
0
LINE
8
BLACK
6
CONTINUOUS
10
3.90818
20
-7.47804
11
3.89693
21
-7.47804
0
LINE
8
BLACK
6
CONTINUOUS
10
3.89693
20
-7.47804
11
3.88569
21
-7.47241
0
LINE
8
BLACK
6
CONTINUOUS
10
3.88569
20
-7.47241
11
3.88006
21
-7.46679
0
LINE
8
BLACK
6
CONTINUOUS
10
3.88006
20
-7.46679
11
3.87444
21
-7.45554
0
LINE
8
BLACK
6
CONTINUOUS
10
3.87444
20
-7.45554
11
3.86881
21
-7.43304
0
LINE
8
BLACK
6
CONTINUOUS
10
3.86881
20
-7.43304
11
3.86881
21
-7.40492
0
LINE
8
BLACK
6
CONTINUOUS
10
3.86881
20
-7.40492
11
3.87444
21
-7.38242
0
LINE
8
BLACK
6
CONTINUOUS
10
3.87444
20
-7.38242
11
3.88006
21
-7.37118
0
LINE
8
BLACK
6
CONTINUOUS
10
3.88006
20
-7.37118
11
3.88569
21
-7.36555
0
LINE
8
BLACK
6
CONTINUOUS
10
3.88569
20
-7.36555
11
3.89693
21
-7.35993
0
LINE
8
BLACK
6
CONTINUOUS
10
3.98692
20
-7.46679
11
3.99255
21
-7.47241
0
LINE
8
BLACK
6
CONTINUOUS
10
3.99255
20
-7.47241
11
3.98692
21
-7.47804
0
LINE
8
BLACK
6
CONTINUOUS
10
3.98692
20
-7.47804
11
3.9813
21
-7.47241
0
LINE
8
BLACK
6
CONTINUOUS
10
3.9813
20
-7.47241
11
3.98692
21
-7.46679
0
LINE
8
BLACK
6
CONTINUOUS
10
3.98692
20
-7.46679
11
3.98692
21
-7.47804
0
LINE
8
BLACK
6
CONTINUOUS
10
4.10503
20
-7.47804
11
4.03754
21
-7.47804
0
LINE
8
BLACK
6
CONTINUOUS
10
4.07129
20
-7.47804
11
4.07129
21
-7.35993
0
LINE
8
BLACK
6
CONTINUOUS
10
4.07129
20
-7.35993
11
4.06004
21
-7.3768
0
LINE
8
BLACK
6
CONTINUOUS
10
4.06004
20
-7.3768
11
4.04879
21
-7.38805
0
LINE
8
BLACK
6
CONTINUOUS
10
4.04879
20
-7.38805
11
4.03754
21
-7.39367
0
LINE
8
BLACK
6
CONTINUOUS
10
4.15003
20
-7.37118
11
4.15565
21
-7.36555
0
LINE
8
BLACK
6
CONTINUOUS
10
4.15565
20
-7.36555
11
4.1669
21
-7.35993
0
LINE
8
BLACK
6
CONTINUOUS
10
4.1669
20
-7.35993
11
4.19502
21
-7.35993
0
LINE
8
BLACK
6
CONTINUOUS
10
4.19502
20
-7.35993
11
4.20627
21
-7.36555
0
LINE
8
BLACK
6
CONTINUOUS
10
4.20627
20
-7.36555
11
4.2119
21
-7.37118
0
LINE
8
BLACK
6
CONTINUOUS
10
4.2119
20
-7.37118
11
4.21752
21
-7.38242
0
LINE
8
BLACK
6
CONTINUOUS
10
4.21752
20
-7.38242
11
4.21752
21
-7.39367
0
LINE
8
BLACK
6
CONTINUOUS
10
4.21752
20
-7.39367
11
4.2119
21
-7.41055
0
LINE
8
BLACK
6
CONTINUOUS
10
4.2119
20
-7.41055
11
4.1444
21
-7.47804
0
LINE
8
BLACK
6
CONTINUOUS
10
4.1444
20
-7.47804
11
4.21752
21
-7.47804
0
LINE
8
BLACK
6
CONTINUOUS
10
4.29064
20
-7.35993
11
4.30188
21
-7.35993
0
LINE
8
BLACK
6
CONTINUOUS
10
4.30188
20
-7.35993
11
4.31313
21
-7.36555
0
LINE
8
BLACK
6
CONTINUOUS
10
4.31313
20
-7.36555
11
4.31876
21
-7.37118
0
LINE
8
BLACK
6
CONTINUOUS
10
4.31876
20
-7.37118
11
4.32438
21
-7.38242
0
LINE
8
BLACK
6
CONTINUOUS
10
4.32438
20
-7.38242
11
4.33001
21
-7.40492
0
LINE
8
BLACK
6
CONTINUOUS
10
4.33001
20
-7.40492
11
4.33001
21
-7.43304
0
LINE
8
BLACK
6
CONTINUOUS
10
4.33001
20
-7.43304
11
4.32438
21
-7.45554
0
LINE
8
BLACK
6
CONTINUOUS
10
4.32438
20
-7.45554
11
4.31876
21
-7.46679
0
LINE
8
BLACK
6
CONTINUOUS
10
4.31876
20
-7.46679
11
4.31313
21
-7.47241
0
LINE
8
BLACK
6
CONTINUOUS
10
4.31313
20
-7.47241
11
4.30188
21
-7.47804
0
LINE
8
BLACK
6
CONTINUOUS
10
4.30188
20
-7.47804
11
4.29064
21
-7.47804
0
LINE
8
BLACK
6
CONTINUOUS
10
4.29064
20
-7.47804
11
4.27939
21
-7.47241
0
LINE
8
BLACK
6
CONTINUOUS
10
4.27939
20
-7.47241
11
4.27376
21
-7.46679
0
LINE
8
BLACK
6
CONTINUOUS
10
4.27376
20
-7.46679
11
4.26814
21
-7.45554
0
LINE
8
BLACK
6
CONTINUOUS
10
4.26814
20
-7.45554
11
4.26251
21
-7.43304
0
LINE
8
BLACK
6
CONTINUOUS
10
4.26251
20
-7.43304
11
4.26251
21
-7.40492
0
LINE
8
BLACK
6
CONTINUOUS
10
4.26251
20
-7.40492
11
4.26814
21
-7.38242
0
LINE
8
BLACK
6
CONTINUOUS
10
4.26814
20
-7.38242
11
4.27376
21
-7.37118
0
LINE
8
BLACK
6
CONTINUOUS
10
4.27376
20
-7.37118
11
4.27939
21
-7.36555
0
LINE
8
BLACK
6
CONTINUOUS
10
4.27939
20
-7.36555
11
4.29064
21
-7.35993
0
LINE
8
BLACK
6
CONTINUOUS
10
4.44249
20
-7.47804
11
4.375
21
-7.47804
0
LINE
8
BLACK
6
CONTINUOUS
10
4.40875
20
-7.47804
11
4.40875
21
-7.35993
0
LINE
8
BLACK
6
CONTINUOUS
10
4.40875
20
-7.35993
11
4.3975
21
-7.3768
0
LINE
8
BLACK
6
CONTINUOUS
10
4.3975
20
-7.3768
11
4.38625
21
-7.38805
0
LINE
8
BLACK
6
CONTINUOUS
10
4.38625
20
-7.38805
11
4.375
21
-7.39367
0
LINE
8
BLACK
6
CONTINUOUS
10
4.48749
20
-7.35993
11
4.48749
21
-7.38242
0
LINE
8
BLACK
6
CONTINUOUS
10
4.53248
20
-7.35993
11
4.53248
21
-7.38242
0
LINE
8
BLACK
6
CONTINUOUS
10
4.70683
20
-7.52303
11
4.70121
21
-7.51741
0
LINE
8
BLACK
6
CONTINUOUS
10
4.70121
20
-7.51741
11
4.68996
21
-7.50053
0
LINE
8
BLACK
6
CONTINUOUS
10
4.68996
20
-7.50053
11
4.68434
21
-7.48929
0
LINE
8
BLACK
6
CONTINUOUS
10
4.68434
20
-7.48929
11
4.67871
21
-7.47241
0
LINE
8
BLACK
6
CONTINUOUS
10
4.67871
20
-7.47241
11
4.67309
21
-7.44429
0
LINE
8
BLACK
6
CONTINUOUS
10
4.67309
20
-7.44429
11
4.67309
21
-7.42179
0
LINE
8
BLACK
6
CONTINUOUS
10
4.67309
20
-7.42179
11
4.67871
21
-7.39367
0
LINE
8
BLACK
6
CONTINUOUS
10
4.67871
20
-7.39367
11
4.68434
21
-7.3768
0
LINE
8
BLACK
6
CONTINUOUS
10
4.68434
20
-7.3768
11
4.68996
21
-7.36555
0
LINE
8
BLACK
6
CONTINUOUS
10
4.68996
20
-7.36555
11
4.70121
21
-7.34868
0
LINE
8
BLACK
6
CONTINUOUS
10
4.70121
20
-7.34868
11
4.70683
21
-7.34305
0
LINE
8
BLACK
6
CONTINUOUS
10
4.8137
20
-7.47804
11
4.7462
21
-7.47804
0
LINE
8
BLACK
6
CONTINUOUS
10
4.77995
20
-7.47804
11
4.77995
21
-7.35993
0
LINE
8
BLACK
6
CONTINUOUS
10
4.77995
20
-7.35993
11
4.7687
21
-7.3768
0
LINE
8
BLACK
6
CONTINUOUS
10
4.7687
20
-7.3768
11
4.75745
21
-7.38805
0
LINE
8
BLACK
6
CONTINUOUS
10
4.75745
20
-7.38805
11
4.7462
21
-7.39367
0
LINE
8
BLACK
6
CONTINUOUS
10
4.88681
20
-7.35993
11
4.89806
21
-7.35993
0
LINE
8
BLACK
6
CONTINUOUS
10
4.89806
20
-7.35993
11
4.90931
21
-7.36555
0
LINE
8
BLACK
6
CONTINUOUS
10
4.90931
20
-7.36555
11
4.91493
21
-7.37118
0
LINE
8
BLACK
6
CONTINUOUS
10
4.91493
20
-7.37118
11
4.92056
21
-7.38242
0
LINE
8
BLACK
6
CONTINUOUS
10
4.92056
20
-7.38242
11
4.92618
21
-7.40492
0
LINE
8
BLACK
6
CONTINUOUS
10
4.92618
20
-7.40492
11
4.92618
21
-7.43304
0
LINE
8
BLACK
6
CONTINUOUS
10
4.92618
20
-7.43304
11
4.92056
21
-7.45554
0
LINE
8
BLACK
6
CONTINUOUS
10
4.92056
20
-7.45554
11
4.91493
21
-7.46679
0
LINE
8
BLACK
6
CONTINUOUS
10
4.91493
20
-7.46679
11
4.90931
21
-7.47241
0
LINE
8
BLACK
6
CONTINUOUS
10
4.90931
20
-7.47241
11
4.89806
21
-7.47804
0
LINE
8
BLACK
6
CONTINUOUS
10
4.89806
20
-7.47804
11
4.88681
21
-7.47804
0
LINE
8
BLACK
6
CONTINUOUS
10
4.88681
20
-7.47804
11
4.87556
21
-7.47241
0
LINE
8
BLACK
6
CONTINUOUS
10
4.87556
20
-7.47241
11
4.86994
21
-7.46679
0
LINE
8
BLACK
6
CONTINUOUS
10
4.86994
20
-7.46679
11
4.86431
21
-7.45554
0
LINE
8
BLACK
6
CONTINUOUS
10
4.86431
20
-7.45554
11
4.85869
21
-7.43304
0
LINE
8
BLACK
6
CONTINUOUS
10
4.85869
20
-7.43304
11
4.85869
21
-7.40492
0
LINE
8
BLACK
6
CONTINUOUS
10
4.85869
20
-7.40492
11
4.86431
21
-7.38242
0
LINE
8
BLACK
6
CONTINUOUS
10
4.86431
20
-7.38242
11
4.86994
21
-7.37118
0
LINE
8
BLACK
6
CONTINUOUS
10
4.86994
20
-7.37118
11
4.87556
21
-7.36555
0
LINE
8
BLACK
6
CONTINUOUS
10
4.87556
20
-7.36555
11
4.88681
21
-7.35993
0
LINE
8
BLACK
6
CONTINUOUS
10
5.06679
20
-7.47804
11
5.06679
21
-7.35993
0
LINE
8
BLACK
6
CONTINUOUS
10
5.11741
20
-7.47804
11
5.11741
21
-7.41617
0
LINE
8
BLACK
6
CONTINUOUS
10
5.11741
20
-7.41617
11
5.11178
21
-7.40492
0
LINE
8
BLACK
6
CONTINUOUS
10
5.11178
20
-7.40492
11
5.10053
21
-7.3993
0
LINE
8
BLACK
6
CONTINUOUS
10
5.10053
20
-7.3993
11
5.08366
21
-7.3993
0
LINE
8
BLACK
6
CONTINUOUS
10
5.08366
20
-7.3993
11
5.07241
21
-7.40492
0
LINE
8
BLACK
6
CONTINUOUS
10
5.07241
20
-7.40492
11
5.06679
21
-7.41055
0
LINE
8
BLACK
6
CONTINUOUS
10
5.19052
20
-7.47804
11
5.17927
21
-7.47241
0
LINE
8
BLACK
6
CONTINUOUS
10
5.17927
20
-7.47241
11
5.17365
21
-7.46679
0
LINE
8
BLACK
6
CONTINUOUS
10
5.17365
20
-7.46679
11
5.16803
21
-7.45554
0
LINE
8
BLACK
6
CONTINUOUS
10
5.16803
20
-7.45554
11
5.16803
21
-7.42179
0
LINE
8
BLACK
6
CONTINUOUS
10
5.16803
20
-7.42179
11
5.17365
21
-7.41055
0
LINE
8
BLACK
6
CONTINUOUS
10
5.17365
20
-7.41055
11
5.17927
21
-7.40492
0
LINE
8
BLACK
6
CONTINUOUS
10
5.17927
20
-7.40492
11
5.19052
21
-7.3993
0
LINE
8
BLACK
6
CONTINUOUS
10
5.19052
20
-7.3993
11
5.2074
21
-7.3993
0
LINE
8
BLACK
6
CONTINUOUS
10
5.2074
20
-7.3993
11
5.21864
21
-7.40492
0
LINE
8
BLACK
6
CONTINUOUS
10
5.21864
20
-7.40492
11
5.22427
21
-7.41055
0
LINE
8
BLACK
6
CONTINUOUS
10
5.22427
20
-7.41055
11
5.22989
21
-7.42179
0
LINE
8
BLACK
6
CONTINUOUS
10
5.22989
20
-7.42179
11
5.22989
21
-7.45554
0
LINE
8
BLACK
6
CONTINUOUS
10
5.22989
20
-7.45554
11
5.22427
21
-7.46679
0
LINE
8
BLACK
6
CONTINUOUS
10
5.22427
20
-7.46679
11
5.21864
21
-7.47241
0
LINE
8
BLACK
6
CONTINUOUS
10
5.21864
20
-7.47241
11
5.2074
21
-7.47804
0
LINE
8
BLACK
6
CONTINUOUS
10
5.2074
20
-7.47804
11
5.19052
21
-7.47804
0
LINE
8
BLACK
6
CONTINUOUS
10
5.29738
20
-7.47804
11
5.28614
21
-7.47241
0
LINE
8
BLACK
6
CONTINUOUS
10
5.28614
20
-7.47241
11
5.28051
21
-7.46116
0
LINE
8
BLACK
6
CONTINUOUS
10
5.28051
20
-7.46116
11
5.28051
21
-7.35993
0
LINE
8
BLACK
6
CONTINUOUS
10
5.38737
20
-7.47241
11
5.37612
21
-7.47804
0
LINE
8
BLACK
6
CONTINUOUS
10
5.37612
20
-7.47804
11
5.35363
21
-7.47804
0
LINE
8
BLACK
6
CONTINUOUS
10
5.35363
20
-7.47804
11
5.34238
21
-7.47241
0
LINE
8
BLACK
6
CONTINUOUS
10
5.34238
20
-7.47241
11
5.33675
21
-7.46116
0
LINE
8
BLACK
6
CONTINUOUS
10
5.33675
20
-7.46116
11
5.33675
21
-7.41617
0
LINE
8
BLACK
6
CONTINUOUS
10
5.33675
20
-7.41617
11
5.34238
21
-7.40492
0
LINE
8
BLACK
6
CONTINUOUS
10
5.34238
20
-7.40492
11
5.35363
21
-7.3993
0
LINE
8
BLACK
6
CONTINUOUS
10
5.35363
20
-7.3993
11
5.37612
21
-7.3993
0
LINE
8
BLACK
6
CONTINUOUS
10
5.37612
20
-7.3993
11
5.38737
21
-7.40492
0
LINE
8
BLACK
6
CONTINUOUS
10
5.38737
20
-7.40492
11
5.393
21
-7.41617
0
LINE
8
BLACK
6
CONTINUOUS
10
5.393
20
-7.41617
11
5.393
21
-7.42742
0
LINE
8
BLACK
6
CONTINUOUS
10
5.393
20
-7.42742
11
5.33675
21
-7.43867
0
LINE
8
BLACK
6
CONTINUOUS
10
5.43799
20
-7.47241
11
5.44924
21
-7.47804
0
LINE
8
BLACK
6
CONTINUOUS
10
5.44924
20
-7.47804
11
5.47174
21
-7.47804
0
LINE
8
BLACK
6
CONTINUOUS
10
5.47174
20
-7.47804
11
5.48299
21
-7.47241
0
LINE
8
BLACK
6
CONTINUOUS
10
5.48299
20
-7.47241
11
5.48861
21
-7.46116
0
LINE
8
BLACK
6
CONTINUOUS
10
5.48861
20
-7.46116
11
5.48861
21
-7.45554
0
LINE
8
BLACK
6
CONTINUOUS
10
5.48861
20
-7.45554
11
5.48299
21
-7.44429
0
LINE
8
BLACK
6
CONTINUOUS
10
5.48299
20
-7.44429
11
5.47174
21
-7.43867
0
LINE
8
BLACK
6
CONTINUOUS
10
5.47174
20
-7.43867
11
5.45486
21
-7.43867
0
LINE
8
BLACK
6
CONTINUOUS
10
5.45486
20
-7.43867
11
5.44362
21
-7.43304
0
LINE
8
BLACK
6
CONTINUOUS
10
5.44362
20
-7.43304
11
5.43799
21
-7.42179
0
LINE
8
BLACK
6
CONTINUOUS
10
5.43799
20
-7.42179
11
5.43799
21
-7.41617
0
LINE
8
BLACK
6
CONTINUOUS
10
5.43799
20
-7.41617
11
5.44362
21
-7.40492
0
LINE
8
BLACK
6
CONTINUOUS
10
5.44362
20
-7.40492
11
5.45486
21
-7.3993
0
LINE
8
BLACK
6
CONTINUOUS
10
5.45486
20
-7.3993
11
5.47174
21
-7.3993
0
LINE
8
BLACK
6
CONTINUOUS
10
5.47174
20
-7.3993
11
5.48299
21
-7.40492
0
LINE
8
BLACK
6
CONTINUOUS
10
5.52798
20
-7.52303
11
5.53361
21
-7.51741
0
LINE
8
BLACK
6
CONTINUOUS
10
5.53361
20
-7.51741
11
5.54485
21
-7.50053
0
LINE
8
BLACK
6
CONTINUOUS
10
5.54485
20
-7.50053
11
5.55048
21
-7.48929
0
LINE
8
BLACK
6
CONTINUOUS
10
5.55048
20
-7.48929
11
5.5561
21
-7.47241
0
LINE
8
BLACK
6
CONTINUOUS
10
5.5561
20
-7.47241
11
5.56173
21
-7.44429
0
LINE
8
BLACK
6
CONTINUOUS
10
5.56173
20
-7.44429
11
5.56173
21
-7.42179
0
LINE
8
BLACK
6
CONTINUOUS
10
5.56173
20
-7.42179
11
5.5561
21
-7.39367
0
LINE
8
BLACK
6
CONTINUOUS
10
5.5561
20
-7.39367
11
5.55048
21
-7.3768
0
LINE
8
BLACK
6
CONTINUOUS
10
5.55048
20
-7.3768
11
5.54485
21
-7.36555
0
LINE
8
BLACK
6
CONTINUOUS
10
5.54485
20
-7.36555
11
5.53361
21
-7.34868
0
LINE
8
BLACK
6
CONTINUOUS
10
5.53361
20
-7.34868
11
5.52798
21
-7.34305
0
LINE
8
BLACK
6
CONTINUOUS
10
5.7417
20
-7.52303
11
5.73608
21
-7.51741
0
LINE
8
BLACK
6
CONTINUOUS
10
5.73608
20
-7.51741
11
5.72483
21
-7.50053
0
LINE
8
BLACK
6
CONTINUOUS
10
5.72483
20
-7.50053
11
5.71921
21
-7.48929
0
LINE
8
BLACK
6
CONTINUOUS
10
5.71921
20
-7.48929
11
5.71358
21
-7.47241
0
LINE
8
BLACK
6
CONTINUOUS
10
5.71358
20
-7.47241
11
5.70796
21
-7.44429
0
LINE
8
BLACK
6
CONTINUOUS
10
5.70796
20
-7.44429
11
5.70796
21
-7.42179
0
LINE
8
BLACK
6
CONTINUOUS
10
5.70796
20
-7.42179
11
5.71358
21
-7.39367
0
LINE
8
BLACK
6
CONTINUOUS
10
5.71358
20
-7.39367
11
5.71921
21
-7.3768
0
LINE
8
BLACK
6
CONTINUOUS
10
5.71921
20
-7.3768
11
5.72483
21
-7.36555
0
LINE
8
BLACK
6
CONTINUOUS
10
5.72483
20
-7.36555
11
5.73608
21
-7.34868
0
LINE
8
BLACK
6
CONTINUOUS
10
5.73608
20
-7.34868
11
5.7417
21
-7.34305
0
LINE
8
BLACK
6
CONTINUOUS
10
5.7867
20
-7.3993
11
5.7867
21
-7.47804
0
LINE
8
BLACK
6
CONTINUOUS
10
5.7867
20
-7.41055
11
5.79232
21
-7.40492
0
LINE
8
BLACK
6
CONTINUOUS
10
5.79232
20
-7.40492
11
5.80357
21
-7.3993
0
LINE
8
BLACK
6
CONTINUOUS
10
5.80357
20
-7.3993
11
5.82044
21
-7.3993
0
LINE
8
BLACK
6
CONTINUOUS
10
5.82044
20
-7.3993
11
5.83169
21
-7.40492
0
LINE
8
BLACK
6
CONTINUOUS
10
5.83169
20
-7.40492
11
5.83732
21
-7.41617
0
LINE
8
BLACK
6
CONTINUOUS
10
5.83732
20
-7.41617
11
5.83732
21
-7.47804
0
LINE
8
BLACK
6
CONTINUOUS
10
5.91043
20
-7.47804
11
5.89918
21
-7.47241
0
LINE
8
BLACK
6
CONTINUOUS
10
5.89918
20
-7.47241
11
5.89356
21
-7.46679
0
LINE
8
BLACK
6
CONTINUOUS
10
5.89356
20
-7.46679
11
5.88794
21
-7.45554
0
LINE
8
BLACK
6
CONTINUOUS
10
5.88794
20
-7.45554
11
5.88794
21
-7.42179
0
LINE
8
BLACK
6
CONTINUOUS
10
5.88794
20
-7.42179
11
5.89356
21
-7.41055
0
LINE
8
BLACK
6
CONTINUOUS
10
5.89356
20
-7.41055
11
5.89918
21
-7.40492
0
LINE
8
BLACK
6
CONTINUOUS
10
5.89918
20
-7.40492
11
5.91043
21
-7.3993
0
LINE
8
BLACK
6
CONTINUOUS
10
5.91043
20
-7.3993
11
5.92731
21
-7.3993
0
LINE
8
BLACK
6
CONTINUOUS
10
5.92731
20
-7.3993
11
5.93855
21
-7.40492
0
LINE
8
BLACK
6
CONTINUOUS
10
5.93855
20
-7.40492
11
5.94418
21
-7.41055
0
LINE
8
BLACK
6
CONTINUOUS
10
5.94418
20
-7.41055
11
5.9498
21
-7.42179
0
LINE
8
BLACK
6
CONTINUOUS
10
5.9498
20
-7.42179
11
5.9498
21
-7.45554
0
LINE
8
BLACK
6
CONTINUOUS
10
5.9498
20
-7.45554
11
5.94418
21
-7.46679
0
LINE
8
BLACK
6
CONTINUOUS
10
5.94418
20
-7.46679
11
5.93855
21
-7.47241
0
LINE
8
BLACK
6
CONTINUOUS
10
5.93855
20
-7.47241
11
5.92731
21
-7.47804
0
LINE
8
BLACK
6
CONTINUOUS
10
5.92731
20
-7.47804
11
5.91043
21
-7.47804
0
LINE
8
BLACK
6
CONTINUOUS
10
5.98355
20
-7.3993
11
6.02854
21
-7.3993
0
LINE
8
BLACK
6
CONTINUOUS
10
6.00042
20
-7.35993
11
6.00042
21
-7.46116
0
LINE
8
BLACK
6
CONTINUOUS
10
6.00042
20
-7.46116
11
6.00605
21
-7.47241
0
LINE
8
BLACK
6
CONTINUOUS
10
6.00605
20
-7.47241
11
6.01729
21
-7.47804
0
LINE
8
BLACK
6
CONTINUOUS
10
6.01729
20
-7.47804
11
6.02854
21
-7.47804
0
LINE
8
BLACK
6
CONTINUOUS
10
6.1579
20
-7.3993
11
6.1579
21
-7.51741
0
LINE
8
BLACK
6
CONTINUOUS
10
6.1579
20
-7.40492
11
6.16915
21
-7.3993
0
LINE
8
BLACK
6
CONTINUOUS
10
6.16915
20
-7.3993
11
6.19165
21
-7.3993
0
LINE
8
BLACK
6
CONTINUOUS
10
6.19165
20
-7.3993
11
6.2029
21
-7.40492
0
LINE
8
BLACK
6
CONTINUOUS
10
6.2029
20
-7.40492
11
6.20852
21
-7.41055
0
LINE
8
BLACK
6
CONTINUOUS
10
6.20852
20
-7.41055
11
6.21415
21
-7.42179
0
LINE
8
BLACK
6
CONTINUOUS
10
6.21415
20
-7.42179
11
6.21415
21
-7.45554
0
LINE
8
BLACK
6
CONTINUOUS
10
6.21415
20
-7.45554
11
6.20852
21
-7.46679
0
LINE
8
BLACK
6
CONTINUOUS
10
6.20852
20
-7.46679
11
6.2029
21
-7.47241
0
LINE
8
BLACK
6
CONTINUOUS
10
6.2029
20
-7.47241
11
6.19165
21
-7.47804
0
LINE
8
BLACK
6
CONTINUOUS
10
6.19165
20
-7.47804
11
6.16915
21
-7.47804
0
LINE
8
BLACK
6
CONTINUOUS
10
6.16915
20
-7.47804
11
6.1579
21
-7.47241
0
LINE
8
BLACK
6
CONTINUOUS
10
6.28164
20
-7.47804
11
6.27039
21
-7.47241
0
LINE
8
BLACK
6
CONTINUOUS
10
6.27039
20
-7.47241
11
6.26476
21
-7.46116
0
LINE
8
BLACK
6
CONTINUOUS
10
6.26476
20
-7.46116
11
6.26476
21
-7.35993
0
LINE
8
BLACK
6
CONTINUOUS
10
6.37725
20
-7.47804
11
6.37725
21
-7.41617
0
LINE
8
BLACK
6
CONTINUOUS
10
6.37725
20
-7.41617
11
6.37163
21
-7.40492
0
LINE
8
BLACK
6
CONTINUOUS
10
6.37163
20
-7.40492
11
6.36038
21
-7.3993
0
LINE
8
BLACK
6
CONTINUOUS
10
6.36038
20
-7.3993
11
6.33788
21
-7.3993
0
LINE
8
BLACK
6
CONTINUOUS
10
6.33788
20
-7.3993
11
6.32663
21
-7.40492
0
LINE
8
BLACK
6
CONTINUOUS
10
6.37725
20
-7.47241
11
6.366
21
-7.47804
0
LINE
8
BLACK
6
CONTINUOUS
10
6.366
20
-7.47804
11
6.33788
21
-7.47804
0
LINE
8
BLACK
6
CONTINUOUS
10
6.33788
20
-7.47804
11
6.32663
21
-7.47241
0
LINE
8
BLACK
6
CONTINUOUS
10
6.32663
20
-7.47241
11
6.32101
21
-7.46116
0
LINE
8
BLACK
6
CONTINUOUS
10
6.32101
20
-7.46116
11
6.32101
21
-7.44992
0
LINE
8
BLACK
6
CONTINUOUS
10
6.32101
20
-7.44992
11
6.32663
21
-7.43867
0
LINE
8
BLACK
6
CONTINUOUS
10
6.32663
20
-7.43867
11
6.33788
21
-7.43304
0
LINE
8
BLACK
6
CONTINUOUS
10
6.33788
20
-7.43304
11
6.366
21
-7.43304
0
LINE
8
BLACK
6
CONTINUOUS
10
6.366
20
-7.43304
11
6.37725
21
-7.42742
0
LINE
8
BLACK
6
CONTINUOUS
10
6.41662
20
-7.3993
11
6.46161
21
-7.3993
0
LINE
8
BLACK
6
CONTINUOUS
10
6.43349
20
-7.35993
11
6.43349
21
-7.46116
0
LINE
8
BLACK
6
CONTINUOUS
10
6.43349
20
-7.46116
11
6.43912
21
-7.47241
0
LINE
8
BLACK
6
CONTINUOUS
10
6.43912
20
-7.47241
11
6.45037
21
-7.47804
0
LINE
8
BLACK
6
CONTINUOUS
10
6.45037
20
-7.47804
11
6.46161
21
-7.47804
0
LINE
8
BLACK
6
CONTINUOUS
10
6.54598
20
-7.47241
11
6.53473
21
-7.47804
0
LINE
8
BLACK
6
CONTINUOUS
10
6.53473
20
-7.47804
11
6.51223
21
-7.47804
0
LINE
8
BLACK
6
CONTINUOUS
10
6.51223
20
-7.47804
11
6.50098
21
-7.47241
0
LINE
8
BLACK
6
CONTINUOUS
10
6.50098
20
-7.47241
11
6.49536
21
-7.46116
0
LINE
8
BLACK
6
CONTINUOUS
10
6.49536
20
-7.46116
11
6.49536
21
-7.41617
0
LINE
8
BLACK
6
CONTINUOUS
10
6.49536
20
-7.41617
11
6.50098
21
-7.40492
0
LINE
8
BLACK
6
CONTINUOUS
10
6.50098
20
-7.40492
11
6.51223
21
-7.3993
0
LINE
8
BLACK
6
CONTINUOUS
10
6.51223
20
-7.3993
11
6.53473
21
-7.3993
0
LINE
8
BLACK
6
CONTINUOUS
10
6.53473
20
-7.3993
11
6.54598
21
-7.40492
0
LINE
8
BLACK
6
CONTINUOUS
10
6.54598
20
-7.40492
11
6.5516
21
-7.41617
0
LINE
8
BLACK
6
CONTINUOUS
10
6.5516
20
-7.41617
11
6.5516
21
-7.42742
0
LINE
8
BLACK
6
CONTINUOUS
10
6.5516
20
-7.42742
11
6.49536
21
-7.43867
0
LINE
8
BLACK
6
CONTINUOUS
10
6.65284
20
-7.47804
11
6.65284
21
-7.35993
0
LINE
8
BLACK
6
CONTINUOUS
10
6.65284
20
-7.47241
11
6.64159
21
-7.47804
0
LINE
8
BLACK
6
CONTINUOUS
10
6.64159
20
-7.47804
11
6.61909
21
-7.47804
0
LINE
8
BLACK
6
CONTINUOUS
10
6.61909
20
-7.47804
11
6.60785
21
-7.47241
0
LINE
8
BLACK
6
CONTINUOUS
10
6.60785
20
-7.47241
11
6.60222
21
-7.46679
0
LINE
8
BLACK
6
CONTINUOUS
10
6.60222
20
-7.46679
11
6.5966
21
-7.45554
0
LINE
8
BLACK
6
CONTINUOUS
10
6.5966
20
-7.45554
11
6.5966
21
-7.42179
0
LINE
8
BLACK
6
CONTINUOUS
10
6.5966
20
-7.42179
11
6.60222
21
-7.41055
0
LINE
8
BLACK
6
CONTINUOUS
10
6.60222
20
-7.41055
11
6.60785
21
-7.40492
0
LINE
8
BLACK
6
CONTINUOUS
10
6.60785
20
-7.40492
11
6.61909
21
-7.3993
0
LINE
8
BLACK
6
CONTINUOUS
10
6.61909
20
-7.3993
11
6.64159
21
-7.3993
0
LINE
8
BLACK
6
CONTINUOUS
10
6.64159
20
-7.3993
11
6.65284
21
-7.40492
0
LINE
8
BLACK
6
CONTINUOUS
10
6.69783
20
-7.52303
11
6.70346
21
-7.51741
0
LINE
8
BLACK
6
CONTINUOUS
10
6.70346
20
-7.51741
11
6.71471
21
-7.50053
0
LINE
8
BLACK
6
CONTINUOUS
10
6.71471
20
-7.50053
11
6.72033
21
-7.48929
0
LINE
8
BLACK
6
CONTINUOUS
10
6.72033
20
-7.48929
11
6.72596
21
-7.47241
0
LINE
8
BLACK
6
CONTINUOUS
10
6.72596
20
-7.47241
11
6.73158
21
-7.44429
0
LINE
8
BLACK
6
CONTINUOUS
10
6.73158
20
-7.44429
11
6.73158
21
-7.42179
0
LINE
8
BLACK
6
CONTINUOUS
10
6.73158
20
-7.42179
11
6.72596
21
-7.39367
0
LINE
8
BLACK
6
CONTINUOUS
10
6.72596
20
-7.39367
11
6.72033
21
-7.3768
0
LINE
8
BLACK
6
CONTINUOUS
10
6.72033
20
-7.3768
11
6.71471
21
-7.36555
0
LINE
8
BLACK
6
CONTINUOUS
10
6.71471
20
-7.36555
11
6.70346
21
-7.34868
0
LINE
8
BLACK
6
CONTINUOUS
10
6.70346
20
-7.34868
11
6.69783
21
-7.34305
0
LINE
8
BLACK
6
CONTINUOUS
10
2.55807
20
-7.51713
11
2.55807
21
-7.67461
0
LINE
8
BLACK
6
CONTINUOUS
10
2.47933
20
-7.59587
11
2.63681
21
-7.59587
0
LINE
8
BLACK
6
CONTINUOUS
10
2.8002
20
-7.57056
11
2.8002
21
-7.6493
0
LINE
8
BLACK
6
CONTINUOUS
10
2.77208
20
-7.52556
11
2.74395
21
-7.60993
0
LINE
8
BLACK
6
CONTINUOUS
10
2.74395
20
-7.60993
11
2.81707
21
-7.60993
0
LINE
8
BLACK
6
CONTINUOUS
10
2.86206
20
-7.63805
11
2.86769
21
-7.64367
0
LINE
8
BLACK
6
CONTINUOUS
10
2.86769
20
-7.64367
11
2.86206
21
-7.6493
0
LINE
8
BLACK
6
CONTINUOUS
10
2.86206
20
-7.6493
11
2.85644
21
-7.64367
0
LINE
8
BLACK
6
CONTINUOUS
10
2.85644
20
-7.64367
11
2.86206
21
-7.63805
0
LINE
8
BLACK
6
CONTINUOUS
10
2.86206
20
-7.63805
11
2.86206
21
-7.6493
0
LINE
8
BLACK
6
CONTINUOUS
10
2.9408
20
-7.53119
11
2.95205
21
-7.53119
0
LINE
8
BLACK
6
CONTINUOUS
10
2.95205
20
-7.53119
11
2.9633
21
-7.53681
0
LINE
8
BLACK
6
CONTINUOUS
10
2.9633
20
-7.53681
11
2.96893
21
-7.54244
0
LINE
8
BLACK
6
CONTINUOUS
10
2.96893
20
-7.54244
11
2.97455
21
-7.55368
0
LINE
8
BLACK
6
CONTINUOUS
10
2.97455
20
-7.55368
11
2.98017
21
-7.57618
0
LINE
8
BLACK
6
CONTINUOUS
10
2.98017
20
-7.57618
11
2.98017
21
-7.6043
0
LINE
8
BLACK
6
CONTINUOUS
10
2.98017
20
-7.6043
11
2.97455
21
-7.6268
0
LINE
8
BLACK
6
CONTINUOUS
10
2.97455
20
-7.6268
11
2.96893
21
-7.63805
0
LINE
8
BLACK
6
CONTINUOUS
10
2.96893
20
-7.63805
11
2.9633
21
-7.64367
0
LINE
8
BLACK
6
CONTINUOUS
10
2.9633
20
-7.64367
11
2.95205
21
-7.6493
0
LINE
8
BLACK
6
CONTINUOUS
10
2.95205
20
-7.6493
11
2.9408
21
-7.6493
0
LINE
8
BLACK
6
CONTINUOUS
10
2.9408
20
-7.6493
11
2.92956
21
-7.64367
0
LINE
8
BLACK
6
CONTINUOUS
10
2.92956
20
-7.64367
11
2.92393
21
-7.63805
0
LINE
8
BLACK
6
CONTINUOUS
10
2.92393
20
-7.63805
11
2.91831
21
-7.6268
0
LINE
8
BLACK
6
CONTINUOUS
10
2.91831
20
-7.6268
11
2.91268
21
-7.6043
0
LINE
8
BLACK
6
CONTINUOUS
10
2.91268
20
-7.6043
11
2.91268
21
-7.57618
0
LINE
8
BLACK
6
CONTINUOUS
10
2.91268
20
-7.57618
11
2.91831
21
-7.55368
0
LINE
8
BLACK
6
CONTINUOUS
10
2.91831
20
-7.55368
11
2.92393
21
-7.54244
0
LINE
8
BLACK
6
CONTINUOUS
10
2.92393
20
-7.54244
11
2.92956
21
-7.53681
0
LINE
8
BLACK
6
CONTINUOUS
10
2.92956
20
-7.53681
11
2.9408
21
-7.53119
0
LINE
8
BLACK
6
CONTINUOUS
10
3.05329
20
-7.53119
11
3.06454
21
-7.53119
0
LINE
8
BLACK
6
CONTINUOUS
10
3.06454
20
-7.53119
11
3.07579
21
-7.53681
0
LINE
8
BLACK
6
CONTINUOUS
10
3.07579
20
-7.53681
11
3.08141
21
-7.54244
0
LINE
8
BLACK
6
CONTINUOUS
10
3.08141
20
-7.54244
11
3.08704
21
-7.55368
0
LINE
8
BLACK
6
CONTINUOUS
10
3.08704
20
-7.55368
11
3.09266
21
-7.57618
0
LINE
8
BLACK
6
CONTINUOUS
10
3.09266
20
-7.57618
11
3.09266
21
-7.6043
0
LINE
8
BLACK
6
CONTINUOUS
10
3.09266
20
-7.6043
11
3.08704
21
-7.6268
0
LINE
8
BLACK
6
CONTINUOUS
10
3.08704
20
-7.6268
11
3.08141
21
-7.63805
0
LINE
8
BLACK
6
CONTINUOUS
10
3.08141
20
-7.63805
11
3.07579
21
-7.64367
0
LINE
8
BLACK
6
CONTINUOUS
10
3.07579
20
-7.64367
11
3.06454
21
-7.6493
0
LINE
8
BLACK
6
CONTINUOUS
10
3.06454
20
-7.6493
11
3.05329
21
-7.6493
0
LINE
8
BLACK
6
CONTINUOUS
10
3.05329
20
-7.6493
11
3.04204
21
-7.64367
0
LINE
8
BLACK
6
CONTINUOUS
10
3.04204
20
-7.64367
11
3.03642
21
-7.63805
0
LINE
8
BLACK
6
CONTINUOUS
10
3.03642
20
-7.63805
11
3.03079
21
-7.6268
0
LINE
8
BLACK
6
CONTINUOUS
10
3.03079
20
-7.6268
11
3.02517
21
-7.6043
0
LINE
8
BLACK
6
CONTINUOUS
10
3.02517
20
-7.6043
11
3.02517
21
-7.57618
0
LINE
8
BLACK
6
CONTINUOUS
10
3.02517
20
-7.57618
11
3.03079
21
-7.55368
0
LINE
8
BLACK
6
CONTINUOUS
10
3.03079
20
-7.55368
11
3.03642
21
-7.54244
0
LINE
8
BLACK
6
CONTINUOUS
10
3.03642
20
-7.54244
11
3.04204
21
-7.53681
0
LINE
8
BLACK
6
CONTINUOUS
10
3.04204
20
-7.53681
11
3.05329
21
-7.53119
0
LINE
8
BLACK
6
CONTINUOUS
10
3.16578
20
-7.53119
11
3.17702
21
-7.53119
0
LINE
8
BLACK
6
CONTINUOUS
10
3.17702
20
-7.53119
11
3.18827
21
-7.53681
0
LINE
8
BLACK
6
CONTINUOUS
10
3.18827
20
-7.53681
11
3.1939
21
-7.54244
0
LINE
8
BLACK
6
CONTINUOUS
10
3.1939
20
-7.54244
11
3.19952
21
-7.55368
0
LINE
8
BLACK
6
CONTINUOUS
10
3.19952
20
-7.55368
11
3.20515
21
-7.57618
0
LINE
8
BLACK
6
CONTINUOUS
10
3.20515
20
-7.57618
11
3.20515
21
-7.6043
0
LINE
8
BLACK
6
CONTINUOUS
10
3.20515
20
-7.6043
11
3.19952
21
-7.6268
0
LINE
8
BLACK
6
CONTINUOUS
10
3.19952
20
-7.6268
11
3.1939
21
-7.63805
0
LINE
8
BLACK
6
CONTINUOUS
10
3.1939
20
-7.63805
11
3.18827
21
-7.64367
0
LINE
8
BLACK
6
CONTINUOUS
10
3.18827
20
-7.64367
11
3.17702
21
-7.6493
0
LINE
8
BLACK
6
CONTINUOUS
10
3.17702
20
-7.6493
11
3.16578
21
-7.6493
0
LINE
8
BLACK
6
CONTINUOUS
10
3.16578
20
-7.6493
11
3.15453
21
-7.64367
0
LINE
8
BLACK
6
CONTINUOUS
10
3.15453
20
-7.64367
11
3.1489
21
-7.63805
0
LINE
8
BLACK
6
CONTINUOUS
10
3.1489
20
-7.63805
11
3.14328
21
-7.6268
0
LINE
8
BLACK
6
CONTINUOUS
10
3.14328
20
-7.6268
11
3.13765
21
-7.6043
0
LINE
8
BLACK
6
CONTINUOUS
10
3.13765
20
-7.6043
11
3.13765
21
-7.57618
0
LINE
8
BLACK
6
CONTINUOUS
10
3.13765
20
-7.57618
11
3.14328
21
-7.55368
0
LINE
8
BLACK
6
CONTINUOUS
10
3.14328
20
-7.55368
11
3.1489
21
-7.54244
0
LINE
8
BLACK
6
CONTINUOUS
10
3.1489
20
-7.54244
11
3.15453
21
-7.53681
0
LINE
8
BLACK
6
CONTINUOUS
10
3.15453
20
-7.53681
11
3.16578
21
-7.53119
0
LINE
8
BLACK
6
CONTINUOUS
10
3.25576
20
-7.6493
11
3.25576
21
-7.57056
0
LINE
8
BLACK
6
CONTINUOUS
10
3.25576
20
-7.58181
11
3.26139
21
-7.57618
0
LINE
8
BLACK
6
CONTINUOUS
10
3.26139
20
-7.57618
11
3.27264
21
-7.57056
0
LINE
8
BLACK
6
CONTINUOUS
10
3.27264
20
-7.57056
11
3.28951
21
-7.57056
0
LINE
8
BLACK
6
CONTINUOUS
10
3.28951
20
-7.57056
11
3.30076
21
-7.57618
0
LINE
8
BLACK
6
CONTINUOUS
10
3.30076
20
-7.57618
11
3.30638
21
-7.58743
0
LINE
8
BLACK
6
CONTINUOUS
10
3.30638
20
-7.58743
11
3.30638
21
-7.6493
0
LINE
8
BLACK
6
CONTINUOUS
10
3.30638
20
-7.58743
11
3.31201
21
-7.57618
0
LINE
8
BLACK
6
CONTINUOUS
10
3.31201
20
-7.57618
11
3.32326
21
-7.57056
0
LINE
8
BLACK
6
CONTINUOUS
10
3.32326
20
-7.57056
11
3.34013
21
-7.57056
0
LINE
8
BLACK
6
CONTINUOUS
10
3.34013
20
-7.57056
11
3.35138
21
-7.57618
0
LINE
8
BLACK
6
CONTINUOUS
10
3.35138
20
-7.57618
11
3.357
21
-7.58743
0
LINE
8
BLACK
6
CONTINUOUS
10
3.357
20
-7.58743
11
3.357
21
-7.6493
0
LINE
8
BLACK
6
CONTINUOUS
10
3.41325
20
-7.6493
11
3.41325
21
-7.57056
0
LINE
8
BLACK
6
CONTINUOUS
10
3.41325
20
-7.58181
11
3.41887
21
-7.57618
0
LINE
8
BLACK
6
CONTINUOUS
10
3.41887
20
-7.57618
11
3.43012
21
-7.57056
0
LINE
8
BLACK
6
CONTINUOUS
10
3.43012
20
-7.57056
11
3.44699
21
-7.57056
0
LINE
8
BLACK
6
CONTINUOUS
10
3.44699
20
-7.57056
11
3.45824
21
-7.57618
0
LINE
8
BLACK
6
CONTINUOUS
10
3.45824
20
-7.57618
11
3.46386
21
-7.58743
0
LINE
8
BLACK
6
CONTINUOUS
10
3.46386
20
-7.58743
11
3.46386
21
-7.6493
0
LINE
8
BLACK
6
CONTINUOUS
10
3.46386
20
-7.58743
11
3.46949
21
-7.57618
0
LINE
8
BLACK
6
CONTINUOUS
10
3.46949
20
-7.57618
11
3.48074
21
-7.57056
0
LINE
8
BLACK
6
CONTINUOUS
10
3.48074
20
-7.57056
11
3.49761
21
-7.57056
0
LINE
8
BLACK
6
CONTINUOUS
10
3.49761
20
-7.57056
11
3.50886
21
-7.57618
0
LINE
8
BLACK
6
CONTINUOUS
10
3.50886
20
-7.57618
11
3.51448
21
-7.58743
0
LINE
8
BLACK
6
CONTINUOUS
10
3.51448
20
-7.58743
11
3.51448
21
-7.6493
0
LINE
8
BLACK
6
CONTINUOUS
10
3.74508
20
-7.52556
11
3.64384
21
-7.67742
0
LINE
8
BLACK
6
CONTINUOUS
10
3.89693
20
-7.53119
11
3.90818
21
-7.53119
0
LINE
8
BLACK
6
CONTINUOUS
10
3.90818
20
-7.53119
11
3.91943
21
-7.53681
0
LINE
8
BLACK
6
CONTINUOUS
10
3.91943
20
-7.53681
11
3.92506
21
-7.54244
0
LINE
8
BLACK
6
CONTINUOUS
10
3.92506
20
-7.54244
11
3.93068
21
-7.55368
0
LINE
8
BLACK
6
CONTINUOUS
10
3.93068
20
-7.55368
11
3.9363
21
-7.57618
0
LINE
8
BLACK
6
CONTINUOUS
10
3.9363
20
-7.57618
11
3.9363
21
-7.6043
0
LINE
8
BLACK
6
CONTINUOUS
10
3.9363
20
-7.6043
11
3.93068
21
-7.6268
0
LINE
8
BLACK
6
CONTINUOUS
10
3.93068
20
-7.6268
11
3.92506
21
-7.63805
0
LINE
8
BLACK
6
CONTINUOUS
10
3.92506
20
-7.63805
11
3.91943
21
-7.64367
0
LINE
8
BLACK
6
CONTINUOUS
10
3.91943
20
-7.64367
11
3.90818
21
-7.6493
0
LINE
8
BLACK
6
CONTINUOUS
10
3.90818
20
-7.6493
11
3.89693
21
-7.6493
0
LINE
8
BLACK
6
CONTINUOUS
10
3.89693
20
-7.6493
11
3.88569
21
-7.64367
0
LINE
8
BLACK
6
CONTINUOUS
10
3.88569
20
-7.64367
11
3.88006
21
-7.63805
0
LINE
8
BLACK
6
CONTINUOUS
10
3.88006
20
-7.63805
11
3.87444
21
-7.6268
0
LINE
8
BLACK
6
CONTINUOUS
10
3.87444
20
-7.6268
11
3.86881
21
-7.6043
0
LINE
8
BLACK
6
CONTINUOUS
10
3.86881
20
-7.6043
11
3.86881
21
-7.57618
0
LINE
8
BLACK
6
CONTINUOUS
10
3.86881
20
-7.57618
11
3.87444
21
-7.55368
0
LINE
8
BLACK
6
CONTINUOUS
10
3.87444
20
-7.55368
11
3.88006
21
-7.54244
0
LINE
8
BLACK
6
CONTINUOUS
10
3.88006
20
-7.54244
11
3.88569
21
-7.53681
0
LINE
8
BLACK
6
CONTINUOUS
10
3.88569
20
-7.53681
11
3.89693
21
-7.53119
0
LINE
8
BLACK
6
CONTINUOUS
10
3.98692
20
-7.63805
11
3.99255
21
-7.64367
0
LINE
8
BLACK
6
CONTINUOUS
10
3.99255
20
-7.64367
11
3.98692
21
-7.6493
0
LINE
8
BLACK
6
CONTINUOUS
10
3.98692
20
-7.6493
11
3.9813
21
-7.64367
0
LINE
8
BLACK
6
CONTINUOUS
10
3.9813
20
-7.64367
11
3.98692
21
-7.63805
0
LINE
8
BLACK
6
CONTINUOUS
10
3.98692
20
-7.63805
11
3.98692
21
-7.6493
0
LINE
8
BLACK
6
CONTINUOUS
10
4.10503
20
-7.6493
11
4.03754
21
-7.6493
0
LINE
8
BLACK
6
CONTINUOUS
10
4.07129
20
-7.6493
11
4.07129
21
-7.53119
0
LINE
8
BLACK
6
CONTINUOUS
10
4.07129
20
-7.53119
11
4.06004
21
-7.54806
0
LINE
8
BLACK
6
CONTINUOUS
10
4.06004
20
-7.54806
11
4.04879
21
-7.55931
0
LINE
8
BLACK
6
CONTINUOUS
10
4.04879
20
-7.55931
11
4.03754
21
-7.56493
0
LINE
8
BLACK
6
CONTINUOUS
10
4.2119
20
-7.53119
11
4.15565
21
-7.53119
0
LINE
8
BLACK
6
CONTINUOUS
10
4.15565
20
-7.53119
11
4.15003
21
-7.58743
0
LINE
8
BLACK
6
CONTINUOUS
10
4.15003
20
-7.58743
11
4.15565
21
-7.58181
0
LINE
8
BLACK
6
CONTINUOUS
10
4.15565
20
-7.58181
11
4.1669
21
-7.57618
0
LINE
8
BLACK
6
CONTINUOUS
10
4.1669
20
-7.57618
11
4.19502
21
-7.57618
0
LINE
8
BLACK
6
CONTINUOUS
10
4.19502
20
-7.57618
11
4.20627
21
-7.58181
0
LINE
8
BLACK
6
CONTINUOUS
10
4.20627
20
-7.58181
11
4.2119
21
-7.58743
0
LINE
8
BLACK
6
CONTINUOUS
10
4.2119
20
-7.58743
11
4.21752
21
-7.59868
0
LINE
8
BLACK
6
CONTINUOUS
10
4.21752
20
-7.59868
11
4.21752
21
-7.6268
0
LINE
8
BLACK
6
CONTINUOUS
10
4.21752
20
-7.6268
11
4.2119
21
-7.63805
0
LINE
8
BLACK
6
CONTINUOUS
10
4.2119
20
-7.63805
11
4.20627
21
-7.64367
0
LINE
8
BLACK
6
CONTINUOUS
10
4.20627
20
-7.64367
11
4.19502
21
-7.6493
0
LINE
8
BLACK
6
CONTINUOUS
10
4.19502
20
-7.6493
11
4.1669
21
-7.6493
0
LINE
8
BLACK
6
CONTINUOUS
10
4.1669
20
-7.6493
11
4.15565
21
-7.64367
0
LINE
8
BLACK
6
CONTINUOUS
10
4.15565
20
-7.64367
11
4.15003
21
-7.63805
0
LINE
8
BLACK
6
CONTINUOUS
10
4.25689
20
-7.53119
11
4.33563
21
-7.53119
0
LINE
8
BLACK
6
CONTINUOUS
10
4.33563
20
-7.53119
11
4.28501
21
-7.6493
0
LINE
8
BLACK
6
CONTINUOUS
10
4.43687
20
-7.53119
11
4.38062
21
-7.53119
0
LINE
8
BLACK
6
CONTINUOUS
10
4.38062
20
-7.53119
11
4.375
21
-7.58743
0
LINE
8
BLACK
6
CONTINUOUS
10
4.375
20
-7.58743
11
4.38062
21
-7.58181
0
LINE
8
BLACK
6
CONTINUOUS
10
4.38062
20
-7.58181
11
4.39187
21
-7.57618
0
LINE
8
BLACK
6
CONTINUOUS
10
4.39187
20
-7.57618
11
4.41999
21
-7.57618
0
LINE
8
BLACK
6
CONTINUOUS
10
4.41999
20
-7.57618
11
4.43124
21
-7.58181
0
LINE
8
BLACK
6
CONTINUOUS
10
4.43124
20
-7.58181
11
4.43687
21
-7.58743
0
LINE
8
BLACK
6
CONTINUOUS
10
4.43687
20
-7.58743
11
4.44249
21
-7.59868
0
LINE
8
BLACK
6
CONTINUOUS
10
4.44249
20
-7.59868
11
4.44249
21
-7.6268
0
LINE
8
BLACK
6
CONTINUOUS
10
4.44249
20
-7.6268
11
4.43687
21
-7.63805
0
LINE
8
BLACK
6
CONTINUOUS
10
4.43687
20
-7.63805
11
4.43124
21
-7.64367
0
LINE
8
BLACK
6
CONTINUOUS
10
4.43124
20
-7.64367
11
4.41999
21
-7.6493
0
LINE
8
BLACK
6
CONTINUOUS
10
4.41999
20
-7.6493
11
4.39187
21
-7.6493
0
LINE
8
BLACK
6
CONTINUOUS
10
4.39187
20
-7.6493
11
4.38062
21
-7.64367
0
LINE
8
BLACK
6
CONTINUOUS
10
4.38062
20
-7.64367
11
4.375
21
-7.63805
0
LINE
8
BLACK
6
CONTINUOUS
10
4.48749
20
-7.53119
11
4.48749
21
-7.55368
0
LINE
8
BLACK
6
CONTINUOUS
10
4.53248
20
-7.53119
11
4.53248
21
-7.55368
0
LINE
8
BLACK
6
CONTINUOUS
10
4.70683
20
-7.69429
11
4.70121
21
-7.68867
0
LINE
8
BLACK
6
CONTINUOUS
10
4.70121
20
-7.68867
11
4.68996
21
-7.67179
0
LINE
8
BLACK
6
CONTINUOUS
10
4.68996
20
-7.67179
11
4.68434
21
-7.66055
0
LINE
8
BLACK
6
CONTINUOUS
10
4.68434
20
-7.66055
11
4.67871
21
-7.64367
0
LINE
8
BLACK
6
CONTINUOUS
10
4.67871
20
-7.64367
11
4.67309
21
-7.61555
0
LINE
8
BLACK
6
CONTINUOUS
10
4.67309
20
-7.61555
11
4.67309
21
-7.59305
0
LINE
8
BLACK
6
CONTINUOUS
10
4.67309
20
-7.59305
11
4.67871
21
-7.56493
0
LINE
8
BLACK
6
CONTINUOUS
10
4.67871
20
-7.56493
11
4.68434
21
-7.54806
0
LINE
8
BLACK
6
CONTINUOUS
10
4.68434
20
-7.54806
11
4.68996
21
-7.53681
0
LINE
8
BLACK
6
CONTINUOUS
10
4.68996
20
-7.53681
11
4.70121
21
-7.51994
0
LINE
8
BLACK
6
CONTINUOUS
10
4.70121
20
-7.51994
11
4.70683
21
-7.51431
0
LINE
8
BLACK
6
CONTINUOUS
10
4.74058
20
-7.53119
11
4.81932
21
-7.53119
0
LINE
8
BLACK
6
CONTINUOUS
10
4.81932
20
-7.53119
11
4.7687
21
-7.6493
0
LINE
8
BLACK
6
CONTINUOUS
10
4.92618
20
-7.6493
11
4.85869
21
-7.6493
0
LINE
8
BLACK
6
CONTINUOUS
10
4.89244
20
-7.6493
11
4.89244
21
-7.53119
0
LINE
8
BLACK
6
CONTINUOUS
10
4.89244
20
-7.53119
11
4.88119
21
-7.54806
0
LINE
8
BLACK
6
CONTINUOUS
10
4.88119
20
-7.54806
11
4.86994
21
-7.55931
0
LINE
8
BLACK
6
CONTINUOUS
10
4.86994
20
-7.55931
11
4.85869
21
-7.56493
0
LINE
8
BLACK
6
CONTINUOUS
10
5.06679
20
-7.6493
11
5.06679
21
-7.53119
0
LINE
8
BLACK
6
CONTINUOUS
10
5.11741
20
-7.6493
11
5.11741
21
-7.58743
0
LINE
8
BLACK
6
CONTINUOUS
10
5.11741
20
-7.58743
11
5.11178
21
-7.57618
0
LINE
8
BLACK
6
CONTINUOUS
10
5.11178
20
-7.57618
11
5.10053
21
-7.57056
0
LINE
8
BLACK
6
CONTINUOUS
10
5.10053
20
-7.57056
11
5.08366
21
-7.57056
0
LINE
8
BLACK
6
CONTINUOUS
10
5.08366
20
-7.57056
11
5.07241
21
-7.57618
0
LINE
8
BLACK
6
CONTINUOUS
10
5.07241
20
-7.57618
11
5.06679
21
-7.58181
0
LINE
8
BLACK
6
CONTINUOUS
10
5.19052
20
-7.6493
11
5.17927
21
-7.64367
0
LINE
8
BLACK
6
CONTINUOUS
10
5.17927
20
-7.64367
11
5.17365
21
-7.63805
0
LINE
8
BLACK
6
CONTINUOUS
10
5.17365
20
-7.63805
11
5.16803
21
-7.6268
0
LINE
8
BLACK
6
CONTINUOUS
10
5.16803
20
-7.6268
11
5.16803
21
-7.59305
0
LINE
8
BLACK
6
CONTINUOUS
10
5.16803
20
-7.59305
11
5.17365
21
-7.58181
0
LINE
8
BLACK
6
CONTINUOUS
10
5.17365
20
-7.58181
11
5.17927
21
-7.57618
0
LINE
8
BLACK
6
CONTINUOUS
10
5.17927
20
-7.57618
11
5.19052
21
-7.57056
0
LINE
8
BLACK
6
CONTINUOUS
10
5.19052
20
-7.57056
11
5.2074
21
-7.57056
0
LINE
8
BLACK
6
CONTINUOUS
10
5.2074
20
-7.57056
11
5.21864
21
-7.57618
0
LINE
8
BLACK
6
CONTINUOUS
10
5.21864
20
-7.57618
11
5.22427
21
-7.58181
0
LINE
8
BLACK
6
CONTINUOUS
10
5.22427
20
-7.58181
11
5.22989
21
-7.59305
0
LINE
8
BLACK
6
CONTINUOUS
10
5.22989
20
-7.59305
11
5.22989
21
-7.6268
0
LINE
8
BLACK
6
CONTINUOUS
10
5.22989
20
-7.6268
11
5.22427
21
-7.63805
0
LINE
8
BLACK
6
CONTINUOUS
10
5.22427
20
-7.63805
11
5.21864
21
-7.64367
0
LINE
8
BLACK
6
CONTINUOUS
10
5.21864
20
-7.64367
11
5.2074
21
-7.6493
0
LINE
8
BLACK
6
CONTINUOUS
10
5.2074
20
-7.6493
11
5.19052
21
-7.6493
0
LINE
8
BLACK
6
CONTINUOUS
10
5.29738
20
-7.6493
11
5.28614
21
-7.64367
0
LINE
8
BLACK
6
CONTINUOUS
10
5.28614
20
-7.64367
11
5.28051
21
-7.63242
0
LINE
8
BLACK
6
CONTINUOUS
10
5.28051
20
-7.63242
11
5.28051
21
-7.53119
0
LINE
8
BLACK
6
CONTINUOUS
10
5.38737
20
-7.64367
11
5.37612
21
-7.6493
0
LINE
8
BLACK
6
CONTINUOUS
10
5.37612
20
-7.6493
11
5.35363
21
-7.6493
0
LINE
8
BLACK
6
CONTINUOUS
10
5.35363
20
-7.6493
11
5.34238
21
-7.64367
0
LINE
8
BLACK
6
CONTINUOUS
10
5.34238
20
-7.64367
11
5.33675
21
-7.63242
0
LINE
8
BLACK
6
CONTINUOUS
10
5.33675
20
-7.63242
11
5.33675
21
-7.58743
0
LINE
8
BLACK
6
CONTINUOUS
10
5.33675
20
-7.58743
11
5.34238
21
-7.57618
0
LINE
8
BLACK
6
CONTINUOUS
10
5.34238
20
-7.57618
11
5.35363
21
-7.57056
0
LINE
8
BLACK
6
CONTINUOUS
10
5.35363
20
-7.57056
11
5.37612
21
-7.57056
0
LINE
8
BLACK
6
CONTINUOUS
10
5.37612
20
-7.57056
11
5.38737
21
-7.57618
0
LINE
8
BLACK
6
CONTINUOUS
10
5.38737
20
-7.57618
11
5.393
21
-7.58743
0
LINE
8
BLACK
6
CONTINUOUS
10
5.393
20
-7.58743
11
5.393
21
-7.59868
0
LINE
8
BLACK
6
CONTINUOUS
10
5.393
20
-7.59868
11
5.33675
21
-7.60993
0
LINE
8
BLACK
6
CONTINUOUS
10
5.43799
20
-7.64367
11
5.44924
21
-7.6493
0
LINE
8
BLACK
6
CONTINUOUS
10
5.44924
20
-7.6493
11
5.47174
21
-7.6493
0
LINE
8
BLACK
6
CONTINUOUS
10
5.47174
20
-7.6493
11
5.48299
21
-7.64367
0
LINE
8
BLACK
6
CONTINUOUS
10
5.48299
20
-7.64367
11
5.48861
21
-7.63242
0
LINE
8
BLACK
6
CONTINUOUS
10
5.48861
20
-7.63242
11
5.48861
21
-7.6268
0
LINE
8
BLACK
6
CONTINUOUS
10
5.48861
20
-7.6268
11
5.48299
21
-7.61555
0
LINE
8
BLACK
6
CONTINUOUS
10
5.48299
20
-7.61555
11
5.47174
21
-7.60993
0
LINE
8
BLACK
6
CONTINUOUS
10
5.47174
20
-7.60993
11
5.45486
21
-7.60993
0
LINE
8
BLACK
6
CONTINUOUS
10
5.45486
20
-7.60993
11
5.44362
21
-7.6043
0
LINE
8
BLACK
6
CONTINUOUS
10
5.44362
20
-7.6043
11
5.43799
21
-7.59305
0
LINE
8
BLACK
6
CONTINUOUS
10
5.43799
20
-7.59305
11
5.43799
21
-7.58743
0
LINE
8
BLACK
6
CONTINUOUS
10
5.43799
20
-7.58743
11
5.44362
21
-7.57618
0
LINE
8
BLACK
6
CONTINUOUS
10
5.44362
20
-7.57618
11
5.45486
21
-7.57056
0
LINE
8
BLACK
6
CONTINUOUS
10
5.45486
20
-7.57056
11
5.47174
21
-7.57056
0
LINE
8
BLACK
6
CONTINUOUS
10
5.47174
20
-7.57056
11
5.48299
21
-7.57618
0
LINE
8
BLACK
6
CONTINUOUS
10
5.52798
20
-7.69429
11
5.53361
21
-7.68867
0
LINE
8
BLACK
6
CONTINUOUS
10
5.53361
20
-7.68867
11
5.54485
21
-7.67179
0
LINE
8
BLACK
6
CONTINUOUS
10
5.54485
20
-7.67179
11
5.55048
21
-7.66055
0
LINE
8
BLACK
6
CONTINUOUS
10
5.55048
20
-7.66055
11
5.5561
21
-7.64367
0
LINE
8
BLACK
6
CONTINUOUS
10
5.5561
20
-7.64367
11
5.56173
21
-7.61555
0
LINE
8
BLACK
6
CONTINUOUS
10
5.56173
20
-7.61555
11
5.56173
21
-7.59305
0
LINE
8
BLACK
6
CONTINUOUS
10
5.56173
20
-7.59305
11
5.5561
21
-7.56493
0
LINE
8
BLACK
6
CONTINUOUS
10
5.5561
20
-7.56493
11
5.55048
21
-7.54806
0
LINE
8
BLACK
6
CONTINUOUS
10
5.55048
20
-7.54806
11
5.54485
21
-7.53681
0
LINE
8
BLACK
6
CONTINUOUS
10
5.54485
20
-7.53681
11
5.53361
21
-7.51994
0
LINE
8
BLACK
6
CONTINUOUS
10
5.53361
20
-7.51994
11
5.52798
21
-7.51431
0
LINE
8
BLACK
6
CONTINUOUS
10
5.7417
20
-7.69429
11
5.73608
21
-7.68867
0
LINE
8
BLACK
6
CONTINUOUS
10
5.73608
20
-7.68867
11
5.72483
21
-7.67179
0
LINE
8
BLACK
6
CONTINUOUS
10
5.72483
20
-7.67179
11
5.71921
21
-7.66055
0
LINE
8
BLACK
6
CONTINUOUS
10
5.71921
20
-7.66055
11
5.71358
21
-7.64367
0
LINE
8
BLACK
6
CONTINUOUS
10
5.71358
20
-7.64367
11
5.70796
21
-7.61555
0
LINE
8
BLACK
6
CONTINUOUS
10
5.70796
20
-7.61555
11
5.70796
21
-7.59305
0
LINE
8
BLACK
6
CONTINUOUS
10
5.70796
20
-7.59305
11
5.71358
21
-7.56493
0
LINE
8
BLACK
6
CONTINUOUS
10
5.71358
20
-7.56493
11
5.71921
21
-7.54806
0
LINE
8
BLACK
6
CONTINUOUS
10
5.71921
20
-7.54806
11
5.72483
21
-7.53681
0
LINE
8
BLACK
6
CONTINUOUS
10
5.72483
20
-7.53681
11
5.73608
21
-7.51994
0
LINE
8
BLACK
6
CONTINUOUS
10
5.73608
20
-7.51994
11
5.7417
21
-7.51431
0
LINE
8
BLACK
6
CONTINUOUS
10
5.7867
20
-7.57056
11
5.7867
21
-7.6493
0
LINE
8
BLACK
6
CONTINUOUS
10
5.7867
20
-7.58181
11
5.79232
21
-7.57618
0
LINE
8
BLACK
6
CONTINUOUS
10
5.79232
20
-7.57618
11
5.80357
21
-7.57056
0
LINE
8
BLACK
6
CONTINUOUS
10
5.80357
20
-7.57056
11
5.82044
21
-7.57056
0
LINE
8
BLACK
6
CONTINUOUS
10
5.82044
20
-7.57056
11
5.83169
21
-7.57618
0
LINE
8
BLACK
6
CONTINUOUS
10
5.83169
20
-7.57618
11
5.83732
21
-7.58743
0
LINE
8
BLACK
6
CONTINUOUS
10
5.83732
20
-7.58743
11
5.83732
21
-7.6493
0
LINE
8
BLACK
6
CONTINUOUS
10
5.91043
20
-7.6493
11
5.89918
21
-7.64367
0
LINE
8
BLACK
6
CONTINUOUS
10
5.89918
20
-7.64367
11
5.89356
21
-7.63805
0
LINE
8
BLACK
6
CONTINUOUS
10
5.89356
20
-7.63805
11
5.88794
21
-7.6268
0
LINE
8
BLACK
6
CONTINUOUS
10
5.88794
20
-7.6268
11
5.88794
21
-7.59305
0
LINE
8
BLACK
6
CONTINUOUS
10
5.88794
20
-7.59305
11
5.89356
21
-7.58181
0
LINE
8
BLACK
6
CONTINUOUS
10
5.89356
20
-7.58181
11
5.89918
21
-7.57618
0
LINE
8
BLACK
6
CONTINUOUS
10
5.89918
20
-7.57618
11
5.91043
21
-7.57056
0
LINE
8
BLACK
6
CONTINUOUS
10
5.91043
20
-7.57056
11
5.92731
21
-7.57056
0
LINE
8
BLACK
6
CONTINUOUS
10
5.92731
20
-7.57056
11
5.93855
21
-7.57618
0
LINE
8
BLACK
6
CONTINUOUS
10
5.93855
20
-7.57618
11
5.94418
21
-7.58181
0
LINE
8
BLACK
6
CONTINUOUS
10
5.94418
20
-7.58181
11
5.9498
21
-7.59305
0
LINE
8
BLACK
6
CONTINUOUS
10
5.9498
20
-7.59305
11
5.9498
21
-7.6268
0
LINE
8
BLACK
6
CONTINUOUS
10
5.9498
20
-7.6268
11
5.94418
21
-7.63805
0
LINE
8
BLACK
6
CONTINUOUS
10
5.94418
20
-7.63805
11
5.93855
21
-7.64367
0
LINE
8
BLACK
6
CONTINUOUS
10
5.93855
20
-7.64367
11
5.92731
21
-7.6493
0
LINE
8
BLACK
6
CONTINUOUS
10
5.92731
20
-7.6493
11
5.91043
21
-7.6493
0
LINE
8
BLACK
6
CONTINUOUS
10
5.98355
20
-7.57056
11
6.02854
21
-7.57056
0
LINE
8
BLACK
6
CONTINUOUS
10
6.00042
20
-7.53119
11
6.00042
21
-7.63242
0
LINE
8
BLACK
6
CONTINUOUS
10
6.00042
20
-7.63242
11
6.00605
21
-7.64367
0
LINE
8
BLACK
6
CONTINUOUS
10
6.00605
20
-7.64367
11
6.01729
21
-7.6493
0
LINE
8
BLACK
6
CONTINUOUS
10
6.01729
20
-7.6493
11
6.02854
21
-7.6493
0
LINE
8
BLACK
6
CONTINUOUS
10
6.1579
20
-7.57056
11
6.1579
21
-7.68867
0
LINE
8
BLACK
6
CONTINUOUS
10
6.1579
20
-7.57618
11
6.16915
21
-7.57056
0
LINE
8
BLACK
6
CONTINUOUS
10
6.16915
20
-7.57056
11
6.19165
21
-7.57056
0
LINE
8
BLACK
6
CONTINUOUS
10
6.19165
20
-7.57056
11
6.2029
21
-7.57618
0
LINE
8
BLACK
6
CONTINUOUS
10
6.2029
20
-7.57618
11
6.20852
21
-7.58181
0
LINE
8
BLACK
6
CONTINUOUS
10
6.20852
20
-7.58181
11
6.21415
21
-7.59305
0
LINE
8
BLACK
6
CONTINUOUS
10
6.21415
20
-7.59305
11
6.21415
21
-7.6268
0
LINE
8
BLACK
6
CONTINUOUS
10
6.21415
20
-7.6268
11
6.20852
21
-7.63805
0
LINE
8
BLACK
6
CONTINUOUS
10
6.20852
20
-7.63805
11
6.2029
21
-7.64367
0
LINE
8
BLACK
6
CONTINUOUS
10
6.2029
20
-7.64367
11
6.19165
21
-7.6493
0
LINE
8
BLACK
6
CONTINUOUS
10
6.19165
20
-7.6493
11
6.16915
21
-7.6493
0
LINE
8
BLACK
6
CONTINUOUS
10
6.16915
20
-7.6493
11
6.1579
21
-7.64367
0
LINE
8
BLACK
6
CONTINUOUS
10
6.28164
20
-7.6493
11
6.27039
21
-7.64367
0
LINE
8
BLACK
6
CONTINUOUS
10
6.27039
20
-7.64367
11
6.26476
21
-7.63242
0
LINE
8
BLACK
6
CONTINUOUS
10
6.26476
20
-7.63242
11
6.26476
21
-7.53119
0
LINE
8
BLACK
6
CONTINUOUS
10
6.37725
20
-7.6493
11
6.37725
21
-7.58743
0
LINE
8
BLACK
6
CONTINUOUS
10
6.37725
20
-7.58743
11
6.37163
21
-7.57618
0
LINE
8
BLACK
6
CONTINUOUS
10
6.37163
20
-7.57618
11
6.36038
21
-7.57056
0
LINE
8
BLACK
6
CONTINUOUS
10
6.36038
20
-7.57056
11
6.33788
21
-7.57056
0
LINE
8
BLACK
6
CONTINUOUS
10
6.33788
20
-7.57056
11
6.32663
21
-7.57618
0
LINE
8
BLACK
6
CONTINUOUS
10
6.37725
20
-7.64367
11
6.366
21
-7.6493
0
LINE
8
BLACK
6
CONTINUOUS
10
6.366
20
-7.6493
11
6.33788
21
-7.6493
0
LINE
8
BLACK
6
CONTINUOUS
10
6.33788
20
-7.6493
11
6.32663
21
-7.64367
0
LINE
8
BLACK
6
CONTINUOUS
10
6.32663
20
-7.64367
11
6.32101
21
-7.63242
0
LINE
8
BLACK
6
CONTINUOUS
10
6.32101
20
-7.63242
11
6.32101
21
-7.62118
0
LINE
8
BLACK
6
CONTINUOUS
10
6.32101
20
-7.62118
11
6.32663
21
-7.60993
0
LINE
8
BLACK
6
CONTINUOUS
10
6.32663
20
-7.60993
11
6.33788
21
-7.6043
0
LINE
8
BLACK
6
CONTINUOUS
10
6.33788
20
-7.6043
11
6.366
21
-7.6043
0
LINE
8
BLACK
6
CONTINUOUS
10
6.366
20
-7.6043
11
6.37725
21
-7.59868
0
LINE
8
BLACK
6
CONTINUOUS
10
6.41662
20
-7.57056
11
6.46161
21
-7.57056
0
LINE
8
BLACK
6
CONTINUOUS
10
6.43349
20
-7.53119
11
6.43349
21
-7.63242
0
LINE
8
BLACK
6
CONTINUOUS
10
6.43349
20
-7.63242
11
6.43912
21
-7.64367
0
LINE
8
BLACK
6
CONTINUOUS
10
6.43912
20
-7.64367
11
6.45037
21
-7.6493
0
LINE
8
BLACK
6
CONTINUOUS
10
6.45037
20
-7.6493
11
6.46161
21
-7.6493
0
LINE
8
BLACK
6
CONTINUOUS
10
6.54598
20
-7.64367
11
6.53473
21
-7.6493
0
LINE
8
BLACK
6
CONTINUOUS
10
6.53473
20
-7.6493
11
6.51223
21
-7.6493
0
LINE
8
BLACK
6
CONTINUOUS
10
6.51223
20
-7.6493
11
6.50098
21
-7.64367
0
LINE
8
BLACK
6
CONTINUOUS
10
6.50098
20
-7.64367
11
6.49536
21
-7.63242
0
LINE
8
BLACK
6
CONTINUOUS
10
6.49536
20
-7.63242
11
6.49536
21
-7.58743
0
LINE
8
BLACK
6
CONTINUOUS
10
6.49536
20
-7.58743
11
6.50098
21
-7.57618
0
LINE
8
BLACK
6
CONTINUOUS
10
6.50098
20
-7.57618
11
6.51223
21
-7.57056
0
LINE
8
BLACK
6
CONTINUOUS
10
6.51223
20
-7.57056
11
6.53473
21
-7.57056
0
LINE
8
BLACK
6
CONTINUOUS
10
6.53473
20
-7.57056
11
6.54598
21
-7.57618
0
LINE
8
BLACK
6
CONTINUOUS
10
6.54598
20
-7.57618
11
6.5516
21
-7.58743
0
LINE
8
BLACK
6
CONTINUOUS
10
6.5516
20
-7.58743
11
6.5516
21
-7.59868
0
LINE
8
BLACK
6
CONTINUOUS
10
6.5516
20
-7.59868
11
6.49536
21
-7.60993
0
LINE
8
BLACK
6
CONTINUOUS
10
6.65284
20
-7.6493
11
6.65284
21
-7.53119
0
LINE
8
BLACK
6
CONTINUOUS
10
6.65284
20
-7.64367
11
6.64159
21
-7.6493
0
LINE
8
BLACK
6
CONTINUOUS
10
6.64159
20
-7.6493
11
6.61909
21
-7.6493
0
LINE
8
BLACK
6
CONTINUOUS
10
6.61909
20
-7.6493
11
6.60785
21
-7.64367
0
LINE
8
BLACK
6
CONTINUOUS
10
6.60785
20
-7.64367
11
6.60222
21
-7.63805
0
LINE
8
BLACK
6
CONTINUOUS
10
6.60222
20
-7.63805
11
6.5966
21
-7.6268
0
LINE
8
BLACK
6
CONTINUOUS
10
6.5966
20
-7.6268
11
6.5966
21
-7.59305
0
LINE
8
BLACK
6
CONTINUOUS
10
6.5966
20
-7.59305
11
6.60222
21
-7.58181
0
LINE
8
BLACK
6
CONTINUOUS
10
6.60222
20
-7.58181
11
6.60785
21
-7.57618
0
LINE
8
BLACK
6
CONTINUOUS
10
6.60785
20
-7.57618
11
6.61909
21
-7.57056
0
LINE
8
BLACK
6
CONTINUOUS
10
6.61909
20
-7.57056
11
6.64159
21
-7.57056
0
LINE
8
BLACK
6
CONTINUOUS
10
6.64159
20
-7.57056
11
6.65284
21
-7.57618
0
LINE
8
BLACK
6
CONTINUOUS
10
6.69783
20
-7.69429
11
6.70346
21
-7.68867
0
LINE
8
BLACK
6
CONTINUOUS
10
6.70346
20
-7.68867
11
6.71471
21
-7.67179
0
LINE
8
BLACK
6
CONTINUOUS
10
6.71471
20
-7.67179
11
6.72033
21
-7.66055
0
LINE
8
BLACK
6
CONTINUOUS
10
6.72033
20
-7.66055
11
6.72596
21
-7.64367
0
LINE
8
BLACK
6
CONTINUOUS
10
6.72596
20
-7.64367
11
6.73158
21
-7.61555
0
LINE
8
BLACK
6
CONTINUOUS
10
6.73158
20
-7.61555
11
6.73158
21
-7.59305
0
LINE
8
BLACK
6
CONTINUOUS
10
6.73158
20
-7.59305
11
6.72596
21
-7.56493
0
LINE
8
BLACK
6
CONTINUOUS
10
6.72596
20
-7.56493
11
6.72033
21
-7.54806
0
LINE
8
BLACK
6
CONTINUOUS
10
6.72033
20
-7.54806
11
6.71471
21
-7.53681
0
LINE
8
BLACK
6
CONTINUOUS
10
6.71471
20
-7.53681
11
6.70346
21
-7.51994
0
LINE
8
BLACK
6
CONTINUOUS
10
6.70346
20
-7.51994
11
6.69783
21
-7.51431
  0
ENDSEC
  0
EOF
