%TF.GenerationSoftware,KiCad,Pcbnew,(5.1.10-1-10_14)*%
%TF.CreationDate,2022-01-29T17:57:15+11:00*%
%TF.ProjectId,ASCII keyboard,41534349-4920-46b6-9579-626f6172642e,rev?*%
%TF.SameCoordinates,Original*%
%TF.FileFunction,Copper,L1,Top*%
%TF.FilePolarity,Positive*%
%FSLAX46Y46*%
G04 Gerber Fmt 4.6, Leading zero omitted, Abs format (unit mm)*
G04 Created by KiCad (PCBNEW (5.1.10-1-10_14)) date 2022-01-29 17:57:15*
%MOMM*%
%LPD*%
G01*
G04 APERTURE LIST*
%TA.AperFunction,ComponentPad*%
%ADD10C,2.000000*%
%TD*%
%TA.AperFunction,ComponentPad*%
%ADD11O,1.600000X1.600000*%
%TD*%
%TA.AperFunction,ComponentPad*%
%ADD12C,1.600000*%
%TD*%
%TA.AperFunction,ComponentPad*%
%ADD13O,1.600000X2.400000*%
%TD*%
%TA.AperFunction,ComponentPad*%
%ADD14R,1.600000X2.400000*%
%TD*%
%TA.AperFunction,ComponentPad*%
%ADD15O,2.400000X1.600000*%
%TD*%
%TA.AperFunction,ComponentPad*%
%ADD16R,2.400000X1.600000*%
%TD*%
%TA.AperFunction,ComponentPad*%
%ADD17C,1.800000*%
%TD*%
%TA.AperFunction,ComponentPad*%
%ADD18R,1.800000X1.800000*%
%TD*%
%TA.AperFunction,ComponentPad*%
%ADD19O,1.200000X1.200000*%
%TD*%
%TA.AperFunction,ComponentPad*%
%ADD20O,1.600000X1.200000*%
%TD*%
%TA.AperFunction,ComponentPad*%
%ADD21R,1.600000X1.600000*%
%TD*%
%TA.AperFunction,ComponentPad*%
%ADD22C,2.200000*%
%TD*%
%TA.AperFunction,ComponentPad*%
%ADD23C,3.000000*%
%TD*%
%TA.AperFunction,ComponentPad*%
%ADD24O,1.700000X1.700000*%
%TD*%
%TA.AperFunction,ComponentPad*%
%ADD25R,1.700000X1.700000*%
%TD*%
%TA.AperFunction,ComponentPad*%
%ADD26C,0.800000*%
%TD*%
%TA.AperFunction,ComponentPad*%
%ADD27C,6.400000*%
%TD*%
%TA.AperFunction,ComponentPad*%
%ADD28O,2.000000X2.000000*%
%TD*%
%TA.AperFunction,ComponentPad*%
%ADD29R,2.000000X2.000000*%
%TD*%
%TA.AperFunction,ViaPad*%
%ADD30C,1.500000*%
%TD*%
%TA.AperFunction,ViaPad*%
%ADD31C,2.000000*%
%TD*%
%TA.AperFunction,Conductor*%
%ADD32C,0.750000*%
%TD*%
%TA.AperFunction,Conductor*%
%ADD33C,0.500000*%
%TD*%
%TA.AperFunction,Conductor*%
%ADD34C,2.000000*%
%TD*%
%TA.AperFunction,Conductor*%
%ADD35C,2.500000*%
%TD*%
G04 APERTURE END LIST*
D10*
%TO.P,C3,2*%
%TO.N,GND*%
X98000000Y-39750000D03*
%TO.P,C3,1*%
%TO.N,Net-(C3-Pad1)*%
X103000000Y-39750000D03*
%TD*%
D11*
%TO.P,R29,2*%
%TO.N,+5V*%
X148300000Y-167560000D03*
D12*
%TO.P,R29,1*%
%TO.N,Net-(R29-Pad1)*%
X148300000Y-157400000D03*
%TD*%
D13*
%TO.P,U9,16*%
%TO.N,+5V*%
X144145000Y-167640000D03*
%TO.P,U9,8*%
%TO.N,GND*%
X126365000Y-160020000D03*
%TO.P,U9,15*%
%TO.N,Net-(C5-Pad1)*%
X141605000Y-167640000D03*
%TO.P,U9,7*%
%TO.N,Net-(U9-Pad7)*%
X128905000Y-160020000D03*
%TO.P,U9,14*%
%TO.N,Net-(C5-Pad2)*%
X139065000Y-167640000D03*
%TO.P,U9,6*%
%TO.N,Net-(U9-Pad6)*%
X131445000Y-160020000D03*
%TO.P,U9,13*%
%TO.N,Net-(U9-Pad13)*%
X136525000Y-167640000D03*
%TO.P,U9,5*%
%TO.N,Net-(U9-Pad5)*%
X133985000Y-160020000D03*
%TO.P,U9,12*%
%TO.N,Net-(U9-Pad12)*%
X133985000Y-167640000D03*
%TO.P,U9,4*%
%TO.N,CAPS_LOCK_PULSE*%
X136525000Y-160020000D03*
%TO.P,U9,11*%
%TO.N,Net-(R29-Pad1)*%
X131445000Y-167640000D03*
%TO.P,U9,3*%
X139065000Y-160020000D03*
%TO.P,U9,10*%
%TO.N,GND*%
X128905000Y-167640000D03*
%TO.P,U9,2*%
%TO.N,CAPS_LOCK*%
X141605000Y-160020000D03*
%TO.P,U9,9*%
%TO.N,GND*%
X126365000Y-167640000D03*
D14*
%TO.P,U9,1*%
X144145000Y-160020000D03*
%TD*%
D15*
%TO.P,U2,16*%
%TO.N,+5V*%
X325120000Y-39500000D03*
%TO.P,U2,8*%
%TO.N,GND*%
X317500000Y-57280000D03*
%TO.P,U2,15*%
X325120000Y-42040000D03*
%TO.P,U2,7*%
%TO.N,Net-(U2-Pad7)*%
X317500000Y-54740000D03*
%TO.P,U2,14*%
%TO.N,PD*%
X325120000Y-44580000D03*
%TO.P,U2,6*%
%TO.N,Net-(U1-Pad22)*%
X317500000Y-52200000D03*
%TO.P,U2,13*%
%TO.N,PC*%
X325120000Y-47120000D03*
%TO.P,U2,5*%
%TO.N,Net-(U1-Pad21)*%
X317500000Y-49660000D03*
%TO.P,U2,12*%
%TO.N,PB*%
X325120000Y-49660000D03*
%TO.P,U2,4*%
%TO.N,Net-(U1-Pad2)*%
X317500000Y-47120000D03*
%TO.P,U2,11*%
%TO.N,PA*%
X325120000Y-52200000D03*
%TO.P,U2,3*%
%TO.N,Net-(U1-Pad3)*%
X317500000Y-44580000D03*
%TO.P,U2,10*%
%TO.N,Net-(U2-Pad10)*%
X325120000Y-54740000D03*
%TO.P,U2,2*%
%TO.N,~CLOCK*%
X317500000Y-42040000D03*
%TO.P,U2,9*%
%TO.N,Net-(U2-Pad9)*%
X325120000Y-57280000D03*
D16*
%TO.P,U2,1*%
%TO.N,SI*%
X317500000Y-39500000D03*
%TD*%
D13*
%TO.P,U3,16*%
%TO.N,+5V*%
X238500000Y-49630000D03*
%TO.P,U3,8*%
%TO.N,GND*%
X256280000Y-57250000D03*
%TO.P,U3,15*%
%TO.N,Net-(D11-Pad1)*%
X241040000Y-49630000D03*
%TO.P,U3,7*%
%TO.N,Net-(C1-Pad2)*%
X253740000Y-57250000D03*
%TO.P,U3,14*%
%TO.N,Net-(C2-Pad2)*%
X243580000Y-49630000D03*
%TO.P,U3,6*%
%TO.N,Net-(C1-Pad1)*%
X251200000Y-57250000D03*
%TO.P,U3,13*%
%TO.N,Net-(U3-Pad13)*%
X246120000Y-49630000D03*
%TO.P,U3,5*%
%TO.N,Net-(U3-Pad5)*%
X248660000Y-57250000D03*
%TO.P,U3,12*%
%TO.N,SI*%
X248660000Y-49630000D03*
%TO.P,U3,4*%
%TO.N,Net-(U3-Pad4)*%
X246120000Y-57250000D03*
%TO.P,U3,11*%
%TO.N,Net-(R4-Pad2)*%
X251200000Y-49630000D03*
%TO.P,U3,3*%
%TO.N,~CLR*%
X243580000Y-57250000D03*
%TO.P,U3,10*%
%TO.N,GND*%
X253740000Y-49630000D03*
%TO.P,U3,2*%
%TO.N,Net-(R4-Pad2)*%
X241040000Y-57250000D03*
%TO.P,U3,9*%
%TO.N,Net-(U3-Pad4)*%
X256280000Y-49630000D03*
D14*
%TO.P,U3,1*%
%TO.N,~CLR*%
X238500000Y-57250000D03*
%TD*%
D15*
%TO.P,U8,14*%
%TO.N,N/C*%
X115620000Y-40000000D03*
%TO.P,U8,7*%
%TO.N,+5V*%
X108000000Y-55240000D03*
%TO.P,U8,13*%
%TO.N,N/C*%
X115620000Y-42540000D03*
%TO.P,U8,6*%
%TO.N,Net-(C3-Pad1)*%
X108000000Y-52700000D03*
%TO.P,U8,12*%
%TO.N,N/C*%
X115620000Y-45080000D03*
%TO.P,U8,5*%
%TO.N,CAPS_LOCK_PULSE*%
X108000000Y-50160000D03*
%TO.P,U8,11*%
%TO.N,GND*%
X115620000Y-47620000D03*
%TO.P,U8,4*%
%TO.N,+5V*%
X108000000Y-47620000D03*
%TO.P,U8,10*%
X115620000Y-50160000D03*
%TO.P,U8,3*%
%TO.N,N/C*%
X108000000Y-45080000D03*
%TO.P,U8,9*%
%TO.N,Net-(D14-Pad2)*%
X115620000Y-52700000D03*
%TO.P,U8,2*%
%TO.N,N/C*%
X108000000Y-42540000D03*
%TO.P,U8,8*%
%TO.N,Net-(U8-Pad8)*%
X115620000Y-55240000D03*
D16*
%TO.P,U8,1*%
%TO.N,N/C*%
X108000000Y-40000000D03*
%TD*%
D15*
%TO.P,U5,14*%
%TO.N,+5V*%
X349000000Y-39500000D03*
%TO.P,U5,7*%
%TO.N,GND*%
X341380000Y-54740000D03*
%TO.P,U5,13*%
%TO.N,Net-(U2-Pad7)*%
X349000000Y-42040000D03*
%TO.P,U5,6*%
%TO.N,Net-(U5-Pad2)*%
X341380000Y-52200000D03*
%TO.P,U5,12*%
%TO.N,Net-(U2-Pad7)*%
X349000000Y-44580000D03*
%TO.P,U5,5*%
%TO.N,~FLAG_RESET*%
X341380000Y-49660000D03*
%TO.P,U5,11*%
%TO.N,~DATA*%
X349000000Y-47120000D03*
%TO.P,U5,4*%
%TO.N,Net-(U5-Pad10)*%
X341380000Y-47120000D03*
%TO.P,U5,10*%
X349000000Y-49660000D03*
%TO.P,U5,3*%
X341380000Y-44580000D03*
%TO.P,U5,9*%
X349000000Y-52200000D03*
%TO.P,U5,2*%
%TO.N,Net-(U5-Pad2)*%
X341380000Y-42040000D03*
%TO.P,U5,8*%
%TO.N,~FLAG*%
X349000000Y-54740000D03*
D16*
%TO.P,U5,1*%
%TO.N,SI*%
X341380000Y-39500000D03*
%TD*%
D15*
%TO.P,U7,14*%
%TO.N,+5V*%
X178120000Y-39500000D03*
%TO.P,U7,7*%
%TO.N,GND*%
X170500000Y-54740000D03*
%TO.P,U7,13*%
%TO.N,Net-(R22-Pad1)*%
X178120000Y-42040000D03*
%TO.P,U7,6*%
%TO.N,PB*%
X170500000Y-52200000D03*
%TO.P,U7,12*%
%TO.N,PD*%
X178120000Y-44580000D03*
%TO.P,U7,5*%
%TO.N,Net-(R21-Pad1)*%
X170500000Y-49660000D03*
%TO.P,U7,11*%
%TO.N,Net-(R14-Pad1)*%
X178120000Y-47120000D03*
%TO.P,U7,4*%
%TO.N,Net-(R12-Pad2)*%
X170500000Y-47120000D03*
%TO.P,U7,10*%
%TO.N,PD*%
X178120000Y-49660000D03*
%TO.P,U7,3*%
%TO.N,Net-(U6-Pad3)*%
X170500000Y-44580000D03*
%TO.P,U7,9*%
%TO.N,Net-(R22-Pad1)*%
X178120000Y-52200000D03*
%TO.P,U7,2*%
%TO.N,Net-(R11-Pad2)*%
X170500000Y-42040000D03*
%TO.P,U7,8*%
%TO.N,PC*%
X178120000Y-54740000D03*
D16*
%TO.P,U7,1*%
%TO.N,Net-(D14-Pad1)*%
X170500000Y-39500000D03*
%TD*%
D15*
%TO.P,U6,14*%
%TO.N,+5V*%
X202120000Y-39500000D03*
%TO.P,U6,7*%
%TO.N,GND*%
X194500000Y-54740000D03*
%TO.P,U6,13*%
%TO.N,Net-(U6-Pad13)*%
X202120000Y-42040000D03*
%TO.P,U6,6*%
%TO.N,Net-(U6-Pad12)*%
X194500000Y-52200000D03*
%TO.P,U6,12*%
X202120000Y-44580000D03*
%TO.P,U6,5*%
%TO.N,Net-(D14-Pad1)*%
X194500000Y-49660000D03*
%TO.P,U6,11*%
%TO.N,Net-(U4-Pad5)*%
X202120000Y-47120000D03*
%TO.P,U6,4*%
%TO.N,Net-(U6-Pad3)*%
X194500000Y-47120000D03*
%TO.P,U6,10*%
%TO.N,Net-(R11-Pad2)*%
X202120000Y-49660000D03*
%TO.P,U6,3*%
%TO.N,Net-(U6-Pad3)*%
X194500000Y-44580000D03*
%TO.P,U6,9*%
%TO.N,Net-(R12-Pad2)*%
X202120000Y-52200000D03*
%TO.P,U6,2*%
%TO.N,Net-(U1-Pad2)*%
X194500000Y-42040000D03*
%TO.P,U6,8*%
%TO.N,Net-(U6-Pad13)*%
X202120000Y-54740000D03*
D16*
%TO.P,U6,1*%
%TO.N,Net-(U1-Pad3)*%
X194500000Y-39500000D03*
%TD*%
D15*
%TO.P,U4,14*%
%TO.N,+5V*%
X136120000Y-40000000D03*
%TO.P,U4,7*%
%TO.N,GND*%
X128500000Y-55240000D03*
%TO.P,U4,13*%
%TO.N,N/C*%
X136120000Y-42540000D03*
%TO.P,U4,6*%
%TO.N,Net-(R14-Pad1)*%
X128500000Y-52700000D03*
%TO.P,U4,12*%
%TO.N,N/C*%
X136120000Y-45080000D03*
%TO.P,U4,5*%
%TO.N,Net-(U4-Pad5)*%
X128500000Y-50160000D03*
%TO.P,U4,11*%
%TO.N,N/C*%
X136120000Y-47620000D03*
%TO.P,U4,4*%
%TO.N,PB*%
X128500000Y-47620000D03*
%TO.P,U4,10*%
%TO.N,PC*%
X136120000Y-50160000D03*
%TO.P,U4,3*%
%TO.N,Net-(U1-Pad4)*%
X128500000Y-45080000D03*
%TO.P,U4,9*%
%TO.N,Net-(R19-Pad1)*%
X136120000Y-52700000D03*
%TO.P,U4,2*%
%TO.N,Net-(U1-Pad4)*%
X128500000Y-42540000D03*
%TO.P,U4,8*%
%TO.N,Net-(R11-Pad2)*%
X136120000Y-55240000D03*
D16*
%TO.P,U4,1*%
%TO.N,Net-(R4-Pad2)*%
X128500000Y-40000000D03*
%TD*%
D13*
%TO.P,U1,24*%
%TO.N,Net-(R4-Pad2)*%
X297750000Y-64740000D03*
%TO.P,U1,12*%
%TO.N,/H*%
X269810000Y-49500000D03*
%TO.P,U1,23*%
%TO.N,GND*%
X295210000Y-64740000D03*
%TO.P,U1,11*%
%TO.N,/G*%
X272350000Y-49500000D03*
%TO.P,U1,22*%
%TO.N,Net-(U1-Pad22)*%
X292670000Y-64740000D03*
%TO.P,U1,10*%
%TO.N,/F*%
X274890000Y-49500000D03*
%TO.P,U1,21*%
%TO.N,Net-(U1-Pad21)*%
X290130000Y-64740000D03*
%TO.P,U1,9*%
%TO.N,/E*%
X277430000Y-49500000D03*
%TO.P,U1,20*%
%TO.N,/Q*%
X287590000Y-64740000D03*
%TO.P,U1,8*%
%TO.N,/D*%
X279970000Y-49500000D03*
%TO.P,U1,19*%
%TO.N,/P*%
X285050000Y-64740000D03*
%TO.P,U1,7*%
%TO.N,/C*%
X282510000Y-49500000D03*
%TO.P,U1,18*%
%TO.N,/N*%
X282510000Y-64740000D03*
%TO.P,U1,6*%
%TO.N,/B*%
X285050000Y-49500000D03*
%TO.P,U1,17*%
%TO.N,/M*%
X279970000Y-64740000D03*
%TO.P,U1,5*%
%TO.N,/A*%
X287590000Y-49500000D03*
%TO.P,U1,16*%
%TO.N,/L*%
X277430000Y-64740000D03*
%TO.P,U1,4*%
%TO.N,Net-(U1-Pad4)*%
X290130000Y-49500000D03*
%TO.P,U1,15*%
%TO.N,/K*%
X274890000Y-64740000D03*
%TO.P,U1,3*%
%TO.N,Net-(U1-Pad3)*%
X292670000Y-49500000D03*
%TO.P,U1,14*%
%TO.N,/J*%
X272350000Y-64740000D03*
%TO.P,U1,2*%
%TO.N,Net-(U1-Pad2)*%
X295210000Y-49500000D03*
%TO.P,U1,13*%
%TO.N,/I*%
X269810000Y-64740000D03*
D14*
%TO.P,U1,1*%
%TO.N,+5V*%
X297750000Y-49500000D03*
%TD*%
D11*
%TO.P,R28,2*%
%TO.N,Net-(C5-Pad1)*%
X141605000Y-172085000D03*
D12*
%TO.P,R28,1*%
%TO.N,+5V*%
X151765000Y-172085000D03*
%TD*%
D11*
%TO.P,C5,2*%
%TO.N,Net-(C5-Pad2)*%
X123430000Y-172085000D03*
D12*
%TO.P,C5,1*%
%TO.N,Net-(C5-Pad1)*%
X138430000Y-172085000D03*
%TD*%
D17*
%TO.P,D13,2*%
%TO.N,+5V*%
X88210000Y-39500000D03*
D18*
%TO.P,D13,1*%
%TO.N,Net-(D13-Pad1)*%
X90750000Y-39500000D03*
%TD*%
D11*
%TO.P,R27,2*%
%TO.N,Net-(C3-Pad1)*%
X103000000Y-44000000D03*
D12*
%TO.P,R27,1*%
%TO.N,+5V*%
X103000000Y-54160000D03*
%TD*%
D11*
%TO.P,R26,2*%
%TO.N,Net-(D14-Pad2)*%
X114000000Y-61750000D03*
D12*
%TO.P,R26,1*%
%TO.N,Net-(Q4-Pad2)*%
X103840000Y-61750000D03*
%TD*%
D11*
%TO.P,R25,2*%
%TO.N,Net-(Q4-Pad3)*%
X97500000Y-54410000D03*
D12*
%TO.P,R25,1*%
%TO.N,Net-(D13-Pad1)*%
X97500000Y-44250000D03*
%TD*%
D19*
%TO.P,Q4,3*%
%TO.N,Net-(Q4-Pad3)*%
X97460000Y-59750000D03*
%TO.P,Q4,2*%
%TO.N,Net-(Q4-Pad2)*%
X98730000Y-58480000D03*
D20*
%TO.P,Q4,1*%
%TO.N,GND*%
X100000000Y-59750000D03*
%TD*%
D11*
%TO.P,D14,2*%
%TO.N,Net-(D14-Pad2)*%
X119250000Y-52750000D03*
D21*
%TO.P,D14,1*%
%TO.N,Net-(D14-Pad1)*%
X119250000Y-45130000D03*
%TD*%
D12*
%TO.P,C4,2*%
%TO.N,CAPS_LOCK*%
X85250000Y-106500000D03*
%TO.P,C4,1*%
%TO.N,+5V*%
X80250000Y-106500000D03*
%TD*%
D22*
%TO.P,SW37,2*%
%TO.N,/ROW_B*%
X297390000Y-113660000D03*
%TO.P,SW37,1*%
%TO.N,/Q*%
X303740000Y-111120000D03*
%TD*%
%TO.P,SW62,2*%
%TO.N,+5V*%
X354650000Y-151940000D03*
%TO.P,SW62,1*%
%TO.N,Net-(D3-Pad1)*%
X361000000Y-149400000D03*
%TD*%
%TO.P,SW1,2*%
%TO.N,+5V*%
X347490000Y-132760000D03*
%TO.P,SW1,1*%
%TO.N,Net-(D1-Pad1)*%
X353840000Y-130220000D03*
%TD*%
%TO.P,SW61,2*%
%TO.N,+5V*%
X80250000Y-113640000D03*
%TO.P,SW61,1*%
%TO.N,CAPS_LOCK*%
X86600000Y-111100000D03*
%TD*%
%TO.P,SW56,2*%
%TO.N,/ROW_C*%
X354590000Y-94560000D03*
%TO.P,SW56,1*%
%TO.N,Net-(D4-Pad2)*%
X360940000Y-92020000D03*
%TD*%
%TO.P,SW58,2*%
%TO.N,/ROW_C*%
X77890000Y-94560000D03*
%TO.P,SW58,1*%
%TO.N,Net-(D10-Pad2)*%
X84240000Y-92020000D03*
%TD*%
%TO.P,SW59,2*%
%TO.N,+5V*%
X106490000Y-151960000D03*
%TO.P,SW59,1*%
%TO.N,/N*%
X112840000Y-149420000D03*
%TD*%
%TO.P,SW2,2*%
%TO.N,+5V*%
X325990000Y-151960000D03*
%TO.P,SW2,1*%
%TO.N,/N*%
X332340000Y-149420000D03*
%TD*%
%TO.P,SW38,2*%
%TO.N,+5V*%
X77790000Y-151960000D03*
%TO.P,SW38,1*%
%TO.N,Net-(D3-Pad1)*%
X84140000Y-149420000D03*
%TD*%
%TO.P,SW55,2*%
%TO.N,/ROW_C*%
X347450000Y-113660000D03*
%TO.P,SW55,1*%
%TO.N,Net-(D3-Pad2)*%
X353800000Y-111120000D03*
%TD*%
%TO.P,SW57,2*%
%TO.N,/ROW_C*%
X349790000Y-75460000D03*
%TO.P,SW57,1*%
%TO.N,Net-(D5-Pad2)*%
X356140000Y-72920000D03*
%TD*%
%TO.P,SW53,2*%
%TO.N,/ROW_C*%
X211390000Y-132760000D03*
%TO.P,SW53,1*%
%TO.N,/P*%
X217740000Y-130220000D03*
%TD*%
%TO.P,SW19,2*%
%TO.N,/ROW_A*%
X268790000Y-132760000D03*
%TO.P,SW19,1*%
%TO.N,/P*%
X275140000Y-130220000D03*
%TD*%
%TO.P,SW51,2*%
%TO.N,/ROW_C*%
X259190000Y-113660000D03*
%TO.P,SW51,1*%
%TO.N,/M*%
X265540000Y-111120000D03*
%TD*%
%TO.P,SW48,2*%
%TO.N,/ROW_C*%
X235450000Y-94540000D03*
%TO.P,SW48,1*%
%TO.N,/J*%
X241800000Y-92000000D03*
%TD*%
D23*
%TO.P,SW60,5*%
%TO.N,N/C*%
X306460000Y-36300000D03*
%TO.P,SW60,4*%
X311540000Y-36300000D03*
%TO.P,SW60,3*%
%TO.N,Net-(R15-Pad1)*%
X309000000Y-49000000D03*
%TO.P,SW60,2*%
%TO.N,PA*%
X309000000Y-52810000D03*
%TO.P,SW60,1*%
%TO.N,GND*%
X309000000Y-56620000D03*
%TD*%
D24*
%TO.P,J1,8*%
%TO.N,GND*%
X347040000Y-32500000D03*
%TO.P,J1,7*%
X344500000Y-32500000D03*
%TO.P,J1,6*%
%TO.N,+5V*%
X341960000Y-32500000D03*
%TO.P,J1,5*%
X339420000Y-32500000D03*
%TO.P,J1,4*%
%TO.N,~DATA*%
X336880000Y-32500000D03*
%TO.P,J1,3*%
%TO.N,~CLOCK*%
X334340000Y-32500000D03*
%TO.P,J1,2*%
%TO.N,~FLAG*%
X331800000Y-32500000D03*
D25*
%TO.P,J1,1*%
%TO.N,~FLAG_RESET*%
X329260000Y-32500000D03*
%TD*%
D26*
%TO.P,H6,1*%
%TO.N,GND*%
X73697056Y-168302944D03*
X72000000Y-167600000D03*
X70302944Y-168302944D03*
X69600000Y-170000000D03*
X70302944Y-171697056D03*
X72000000Y-172400000D03*
X73697056Y-171697056D03*
X74400000Y-170000000D03*
D27*
X72000000Y-170000000D03*
%TD*%
D26*
%TO.P,H5,1*%
%TO.N,GND*%
X221697056Y-168302944D03*
X220000000Y-167600000D03*
X218302944Y-168302944D03*
X217600000Y-170000000D03*
X218302944Y-171697056D03*
X220000000Y-172400000D03*
X221697056Y-171697056D03*
X222400000Y-170000000D03*
D27*
X220000000Y-170000000D03*
%TD*%
D26*
%TO.P,H4,1*%
%TO.N,GND*%
X369697056Y-168302944D03*
X368000000Y-167600000D03*
X366302944Y-168302944D03*
X365600000Y-170000000D03*
X366302944Y-171697056D03*
X368000000Y-172400000D03*
X369697056Y-171697056D03*
X370400000Y-170000000D03*
D27*
X368000000Y-170000000D03*
%TD*%
D26*
%TO.P,H3,1*%
%TO.N,GND*%
X369697056Y-33302944D03*
X368000000Y-32600000D03*
X366302944Y-33302944D03*
X365600000Y-35000000D03*
X366302944Y-36697056D03*
X368000000Y-37400000D03*
X369697056Y-36697056D03*
X370400000Y-35000000D03*
D27*
X368000000Y-35000000D03*
%TD*%
D26*
%TO.P,H2,1*%
%TO.N,GND*%
X221697056Y-33302944D03*
X220000000Y-32600000D03*
X218302944Y-33302944D03*
X217600000Y-35000000D03*
X218302944Y-36697056D03*
X220000000Y-37400000D03*
X221697056Y-36697056D03*
X222400000Y-35000000D03*
D27*
X220000000Y-35000000D03*
%TD*%
D26*
%TO.P,H1,1*%
%TO.N,GND*%
X73697056Y-33302944D03*
X72000000Y-32600000D03*
X70302944Y-33302944D03*
X69600000Y-35000000D03*
X70302944Y-36697056D03*
X72000000Y-37400000D03*
X73697056Y-36697056D03*
X74400000Y-35000000D03*
D27*
X72000000Y-35000000D03*
%TD*%
D11*
%TO.P,R24,2*%
%TO.N,Net-(D3-Pad1)*%
X185500000Y-59660000D03*
D12*
%TO.P,R24,1*%
%TO.N,Net-(R22-Pad1)*%
X185500000Y-49500000D03*
%TD*%
D11*
%TO.P,R23,2*%
%TO.N,GND*%
X140000000Y-60000000D03*
D12*
%TO.P,R23,1*%
%TO.N,Net-(D12-Pad2)*%
X140000000Y-49840000D03*
%TD*%
D11*
%TO.P,R22,2*%
%TO.N,GND*%
X189500000Y-59660000D03*
D12*
%TO.P,R22,1*%
%TO.N,Net-(R22-Pad1)*%
X189500000Y-49500000D03*
%TD*%
D11*
%TO.P,R21,2*%
%TO.N,Net-(D12-Pad2)*%
X147840000Y-56000000D03*
D12*
%TO.P,R21,1*%
%TO.N,Net-(R21-Pad1)*%
X158000000Y-56000000D03*
%TD*%
D11*
%TO.P,R20,2*%
%TO.N,Net-(D12-Pad1)*%
X158000000Y-52500000D03*
D12*
%TO.P,R20,1*%
%TO.N,Net-(R19-Pad1)*%
X147840000Y-52500000D03*
%TD*%
D11*
%TO.P,R19,2*%
%TO.N,GND*%
X143500000Y-60000000D03*
D12*
%TO.P,R19,1*%
%TO.N,Net-(R19-Pad1)*%
X143500000Y-49840000D03*
%TD*%
D11*
%TO.P,R18,2*%
%TO.N,PB*%
X157000000Y-46660000D03*
D12*
%TO.P,R18,1*%
%TO.N,+5V*%
X157000000Y-36500000D03*
%TD*%
D11*
%TO.P,R17,2*%
%TO.N,PD*%
X185500000Y-46660000D03*
D12*
%TO.P,R17,1*%
%TO.N,+5V*%
X185500000Y-36500000D03*
%TD*%
D11*
%TO.P,R16,2*%
%TO.N,PC*%
X189500000Y-46660000D03*
D12*
%TO.P,R16,1*%
%TO.N,+5V*%
X189500000Y-36500000D03*
%TD*%
D11*
%TO.P,R15,2*%
%TO.N,+5V*%
X302000000Y-38840000D03*
D12*
%TO.P,R15,1*%
%TO.N,Net-(R15-Pad1)*%
X302000000Y-49000000D03*
%TD*%
D11*
%TO.P,R14,2*%
%TO.N,GND*%
X182000000Y-57500000D03*
D12*
%TO.P,R14,1*%
%TO.N,Net-(R14-Pad1)*%
X182000000Y-47340000D03*
%TD*%
D11*
%TO.P,R13,2*%
%TO.N,GND*%
X166000000Y-49660000D03*
D12*
%TO.P,R13,1*%
%TO.N,Net-(D14-Pad1)*%
X166000000Y-39500000D03*
%TD*%
D11*
%TO.P,R12,2*%
%TO.N,Net-(R12-Pad2)*%
X148000000Y-46660000D03*
D12*
%TO.P,R12,1*%
%TO.N,+5V*%
X148000000Y-36500000D03*
%TD*%
D11*
%TO.P,R11,2*%
%TO.N,Net-(R11-Pad2)*%
X152000000Y-46660000D03*
D12*
%TO.P,R11,1*%
%TO.N,+5V*%
X152000000Y-36500000D03*
%TD*%
D11*
%TO.P,D12,2*%
%TO.N,Net-(D12-Pad2)*%
X150380000Y-49500000D03*
D21*
%TO.P,D12,1*%
%TO.N,Net-(D12-Pad1)*%
X158000000Y-49500000D03*
%TD*%
D28*
%TO.P,C2,2*%
%TO.N,Net-(C2-Pad2)*%
X232500000Y-57250000D03*
D29*
%TO.P,C2,1*%
%TO.N,Net-(C2-Pad1)*%
X232500000Y-42250000D03*
%TD*%
D12*
%TO.P,C1,2*%
%TO.N,Net-(C1-Pad2)*%
X256250000Y-61250000D03*
%TO.P,C1,1*%
%TO.N,Net-(C1-Pad1)*%
X251250000Y-61250000D03*
%TD*%
D11*
%TO.P,R10,2*%
%TO.N,/ROW_B*%
X88250000Y-54160000D03*
D12*
%TO.P,R10,1*%
%TO.N,+5V*%
X88250000Y-44000000D03*
%TD*%
D11*
%TO.P,R9,2*%
%TO.N,/ROW_A*%
X85000000Y-75460000D03*
D12*
%TO.P,R9,1*%
%TO.N,+5V*%
X85000000Y-65300000D03*
%TD*%
D11*
%TO.P,R8,2*%
%TO.N,Net-(Q3-Pad3)*%
X93000000Y-54410000D03*
D12*
%TO.P,R8,1*%
%TO.N,Net-(R19-Pad1)*%
X93000000Y-44250000D03*
%TD*%
D11*
%TO.P,R7,2*%
%TO.N,Net-(Q2-Pad3)*%
X82500000Y-54410000D03*
D12*
%TO.P,R7,1*%
%TO.N,Net-(R14-Pad1)*%
X82500000Y-44250000D03*
%TD*%
D11*
%TO.P,R6,2*%
%TO.N,Net-(D1-Pad1)*%
X161500000Y-49500000D03*
D12*
%TO.P,R6,1*%
%TO.N,Net-(D14-Pad1)*%
X161500000Y-39340000D03*
%TD*%
D11*
%TO.P,R5,2*%
%TO.N,+5V*%
X88140000Y-65500000D03*
D12*
%TO.P,R5,1*%
%TO.N,~CLR*%
X98300000Y-65500000D03*
%TD*%
D11*
%TO.P,R4,2*%
%TO.N,Net-(R4-Pad2)*%
X123750000Y-46910000D03*
D12*
%TO.P,R4,1*%
%TO.N,+5V*%
X123750000Y-36750000D03*
%TD*%
D11*
%TO.P,R3,2*%
%TO.N,Net-(C2-Pad1)*%
X252000000Y-46660000D03*
D12*
%TO.P,R3,1*%
%TO.N,+5V*%
X252000000Y-36500000D03*
%TD*%
D11*
%TO.P,R2,2*%
%TO.N,+5V*%
X238500000Y-61250000D03*
D12*
%TO.P,R2,1*%
%TO.N,Net-(C1-Pad1)*%
X248660000Y-61250000D03*
%TD*%
D11*
%TO.P,R1,2*%
%TO.N,/ROW_C*%
X74500000Y-54160000D03*
D12*
%TO.P,R1,1*%
%TO.N,+5V*%
X74500000Y-44000000D03*
%TD*%
D19*
%TO.P,Q3,3*%
%TO.N,Net-(Q3-Pad3)*%
X89290000Y-60000000D03*
%TO.P,Q3,2*%
%TO.N,/ROW_B*%
X88020000Y-61270000D03*
D20*
%TO.P,Q3,1*%
%TO.N,+5V*%
X86750000Y-60000000D03*
%TD*%
D19*
%TO.P,Q2,3*%
%TO.N,Net-(Q2-Pad3)*%
X82540000Y-60000000D03*
%TO.P,Q2,2*%
%TO.N,/ROW_A*%
X81270000Y-61270000D03*
D20*
%TO.P,Q2,1*%
%TO.N,+5V*%
X80000000Y-60000000D03*
%TD*%
D11*
%TO.P,D11,2*%
%TO.N,Net-(C2-Pad1)*%
X248750000Y-46750000D03*
D21*
%TO.P,D11,1*%
%TO.N,Net-(D11-Pad1)*%
X241130000Y-46750000D03*
%TD*%
D22*
%TO.P,SW5,2*%
%TO.N,/ROW_A*%
X264090000Y-75460000D03*
%TO.P,SW5,1*%
%TO.N,/A*%
X270440000Y-72920000D03*
%TD*%
%TO.P,SW4,2*%
%TO.N,+5V*%
X84890000Y-132760000D03*
%TO.P,SW4,1*%
%TO.N,Net-(D1-Pad1)*%
X91240000Y-130220000D03*
%TD*%
%TO.P,SW25,2*%
%TO.N,/ROW_B*%
X125490000Y-113660000D03*
%TO.P,SW25,1*%
%TO.N,/D*%
X131840000Y-111120000D03*
%TD*%
%TO.P,SW35,2*%
%TO.N,/ROW_B*%
X292650000Y-94540000D03*
%TO.P,SW35,1*%
%TO.N,/N*%
X299000000Y-92000000D03*
%TD*%
%TO.P,SW3,2*%
%TO.N,+5V*%
X73090000Y-75460000D03*
%TO.P,SW3,1*%
%TO.N,/Q*%
X79440000Y-72920000D03*
%TD*%
%TO.P,SW22,2*%
%TO.N,/ROW_B*%
X273550000Y-94540000D03*
%TO.P,SW22,1*%
%TO.N,/A*%
X279900000Y-92000000D03*
%TD*%
%TO.P,SW54,2*%
%TO.N,/ROW_C*%
X254450000Y-94540000D03*
%TO.P,SW54,1*%
%TO.N,/Q*%
X260800000Y-92000000D03*
%TD*%
%TO.P,SW49,2*%
%TO.N,/ROW_C*%
X220990000Y-113660000D03*
%TO.P,SW49,1*%
%TO.N,/K*%
X227340000Y-111120000D03*
%TD*%
%TO.P,SW50,2*%
%TO.N,/ROW_C*%
X240090000Y-113660000D03*
%TO.P,SW50,1*%
%TO.N,/L*%
X246440000Y-111120000D03*
%TD*%
%TO.P,SW52,2*%
%TO.N,/ROW_C*%
X230490000Y-132760000D03*
%TO.P,SW52,1*%
%TO.N,/N*%
X236840000Y-130220000D03*
%TD*%
%TO.P,SW6,2*%
%TO.N,/ROW_A*%
X92190000Y-75460000D03*
%TO.P,SW6,1*%
%TO.N,/B*%
X98540000Y-72920000D03*
%TD*%
%TO.P,SW7,2*%
%TO.N,/ROW_A*%
X111290000Y-75460000D03*
%TO.P,SW7,1*%
%TO.N,/C*%
X117640000Y-72920000D03*
%TD*%
%TO.P,SW30,2*%
%TO.N,/ROW_B*%
X134990000Y-132760000D03*
%TO.P,SW30,1*%
%TO.N,/I*%
X141340000Y-130220000D03*
%TD*%
%TO.P,SW31,2*%
%TO.N,/ROW_B*%
X197290000Y-94560000D03*
%TO.P,SW31,1*%
%TO.N,/J*%
X203640000Y-92020000D03*
%TD*%
%TO.P,SW32,2*%
%TO.N,/ROW_B*%
X115890000Y-132760000D03*
%TO.P,SW32,1*%
%TO.N,/K*%
X122240000Y-130220000D03*
%TD*%
%TO.P,SW33,2*%
%TO.N,/ROW_B*%
X311750000Y-94540000D03*
%TO.P,SW33,1*%
%TO.N,/L*%
X318100000Y-92000000D03*
%TD*%
%TO.P,SW34,2*%
%TO.N,/ROW_B*%
X330850000Y-94560000D03*
%TO.P,SW34,1*%
%TO.N,/M*%
X337200000Y-92020000D03*
%TD*%
%TO.P,SW36,2*%
%TO.N,/ROW_B*%
X316490000Y-113660000D03*
%TO.P,SW36,1*%
%TO.N,/P*%
X322840000Y-111120000D03*
%TD*%
%TO.P,SW39,2*%
%TO.N,/ROW_C*%
X278290000Y-113660000D03*
%TO.P,SW39,1*%
%TO.N,/A*%
X284640000Y-111120000D03*
%TD*%
%TO.P,SW40,2*%
%TO.N,/ROW_C*%
X106490000Y-113660000D03*
%TO.P,SW40,1*%
%TO.N,/B*%
X112840000Y-111120000D03*
%TD*%
%TO.P,SW41,2*%
%TO.N,/ROW_C*%
X192290000Y-132760000D03*
%TO.P,SW41,1*%
%TO.N,/C*%
X198640000Y-130220000D03*
%TD*%
%TO.P,SW42,2*%
%TO.N,/ROW_C*%
X154090000Y-132760000D03*
%TO.P,SW42,1*%
%TO.N,/D*%
X160440000Y-130220000D03*
%TD*%
%TO.P,SW43,2*%
%TO.N,/ROW_C*%
X144590000Y-113660000D03*
%TO.P,SW43,1*%
%TO.N,/E*%
X150940000Y-111120000D03*
%TD*%
%TO.P,SW44,2*%
%TO.N,/ROW_C*%
X140090000Y-94560000D03*
%TO.P,SW44,1*%
%TO.N,/F*%
X146440000Y-92020000D03*
%TD*%
%TO.P,SW45,2*%
%TO.N,/ROW_C*%
X163690000Y-113660000D03*
%TO.P,SW45,1*%
%TO.N,/G*%
X170040000Y-111120000D03*
%TD*%
%TO.P,SW46,2*%
%TO.N,/ROW_C*%
X182790000Y-113660000D03*
%TO.P,SW46,1*%
%TO.N,/H*%
X189140000Y-111120000D03*
%TD*%
%TO.P,SW47,2*%
%TO.N,/ROW_C*%
X201890000Y-113660000D03*
%TO.P,SW47,1*%
%TO.N,/I*%
X208240000Y-111120000D03*
%TD*%
%TO.P,SW23,2*%
%TO.N,/ROW_B*%
X101890000Y-94560000D03*
%TO.P,SW23,1*%
%TO.N,/B*%
X108240000Y-92020000D03*
%TD*%
%TO.P,SW24,2*%
%TO.N,/ROW_B*%
X159190000Y-94560000D03*
%TO.P,SW24,1*%
%TO.N,/C*%
X165540000Y-92020000D03*
%TD*%
%TO.P,SW26,2*%
%TO.N,/ROW_B*%
X178290000Y-94560000D03*
%TO.P,SW26,1*%
%TO.N,/E*%
X184640000Y-92020000D03*
%TD*%
%TO.P,SW27,2*%
%TO.N,/ROW_B*%
X216390000Y-94560000D03*
%TO.P,SW27,1*%
%TO.N,/F*%
X222740000Y-92020000D03*
%TD*%
%TO.P,SW28,2*%
%TO.N,/ROW_B*%
X173190000Y-132760000D03*
%TO.P,SW28,1*%
%TO.N,/G*%
X179540000Y-130220000D03*
%TD*%
%TO.P,SW29,2*%
%TO.N,/ROW_B*%
X120990000Y-94560000D03*
%TO.P,SW29,1*%
%TO.N,/H*%
X127340000Y-92020000D03*
%TD*%
%TO.P,SW8,2*%
%TO.N,/ROW_A*%
X130390000Y-75460000D03*
%TO.P,SW8,1*%
%TO.N,/D*%
X136740000Y-72920000D03*
%TD*%
%TO.P,SW9,2*%
%TO.N,/ROW_A*%
X149490000Y-75460000D03*
%TO.P,SW9,1*%
%TO.N,/E*%
X155840000Y-72920000D03*
%TD*%
%TO.P,SW10,2*%
%TO.N,/ROW_A*%
X168590000Y-75460000D03*
%TO.P,SW10,1*%
%TO.N,/F*%
X174940000Y-72920000D03*
%TD*%
%TO.P,SW11,2*%
%TO.N,/ROW_A*%
X187690000Y-75460000D03*
%TO.P,SW11,1*%
%TO.N,/G*%
X194040000Y-72920000D03*
%TD*%
%TO.P,SW12,2*%
%TO.N,/ROW_A*%
X206790000Y-75460000D03*
%TO.P,SW12,1*%
%TO.N,/H*%
X213140000Y-72920000D03*
%TD*%
%TO.P,SW13,2*%
%TO.N,/ROW_A*%
X225890000Y-75460000D03*
%TO.P,SW13,1*%
%TO.N,/I*%
X232240000Y-72920000D03*
%TD*%
%TO.P,SW14,2*%
%TO.N,/ROW_A*%
X244990000Y-75460000D03*
%TO.P,SW14,1*%
%TO.N,/J*%
X251340000Y-72920000D03*
%TD*%
%TO.P,SW15,2*%
%TO.N,/ROW_A*%
X321190000Y-75460000D03*
%TO.P,SW15,1*%
%TO.N,/K*%
X327540000Y-72920000D03*
%TD*%
%TO.P,SW16,2*%
%TO.N,/ROW_A*%
X302190000Y-75460000D03*
%TO.P,SW16,1*%
%TO.N,/L*%
X308540000Y-72920000D03*
%TD*%
%TO.P,SW17,2*%
%TO.N,/ROW_A*%
X249690000Y-132760000D03*
%TO.P,SW17,1*%
%TO.N,/M*%
X256040000Y-130220000D03*
%TD*%
%TO.P,SW18,2*%
%TO.N,/ROW_A*%
X283090000Y-75460000D03*
%TO.P,SW18,1*%
%TO.N,/N*%
X289440000Y-72920000D03*
%TD*%
%TO.P,SW20,2*%
%TO.N,/ROW_A*%
X287890000Y-132760000D03*
%TO.P,SW20,1*%
%TO.N,/Q*%
X294240000Y-130220000D03*
%TD*%
%TO.P,SW21,2*%
%TO.N,/ROW_A*%
X201910000Y-151960000D03*
%TO.P,SW21,1*%
%TO.N,Net-(D1-Pad2)*%
X208260000Y-149420000D03*
%TD*%
D19*
%TO.P,Q1,3*%
%TO.N,Net-(D12-Pad2)*%
X75770000Y-60000000D03*
%TO.P,Q1,2*%
%TO.N,/ROW_C*%
X74500000Y-61270000D03*
D20*
%TO.P,Q1,1*%
%TO.N,+5V*%
X73230000Y-60000000D03*
%TD*%
D11*
%TO.P,D10,2*%
%TO.N,Net-(D10-Pad2)*%
X96250000Y-99620000D03*
D21*
%TO.P,D10,1*%
%TO.N,/H*%
X96250000Y-92000000D03*
%TD*%
D11*
%TO.P,D9,2*%
%TO.N,Net-(D5-Pad2)*%
X258700000Y-78900000D03*
D21*
%TO.P,D9,1*%
%TO.N,/I*%
X258700000Y-71280000D03*
%TD*%
D11*
%TO.P,D8,2*%
%TO.N,Net-(D4-Pad2)*%
X366250000Y-120620000D03*
D21*
%TO.P,D8,1*%
%TO.N,/K*%
X366250000Y-113000000D03*
%TD*%
D11*
%TO.P,D7,2*%
%TO.N,Net-(D3-Pad2)*%
X358500000Y-88000000D03*
D21*
%TO.P,D7,1*%
%TO.N,/N*%
X350880000Y-88000000D03*
%TD*%
D11*
%TO.P,D6,2*%
%TO.N,Net-(D10-Pad2)*%
X92100000Y-92980000D03*
D21*
%TO.P,D6,1*%
%TO.N,Net-(D3-Pad1)*%
X92100000Y-100600000D03*
%TD*%
D11*
%TO.P,D5,2*%
%TO.N,Net-(D5-Pad2)*%
X86250000Y-80630000D03*
D21*
%TO.P,D5,1*%
%TO.N,Net-(D3-Pad1)*%
X86250000Y-88250000D03*
%TD*%
D11*
%TO.P,D4,2*%
%TO.N,Net-(D4-Pad2)*%
X97000000Y-104630000D03*
D21*
%TO.P,D4,1*%
%TO.N,Net-(D3-Pad1)*%
X97000000Y-112250000D03*
%TD*%
D11*
%TO.P,D3,2*%
%TO.N,Net-(D3-Pad2)*%
X92750000Y-107130000D03*
D21*
%TO.P,D3,1*%
%TO.N,Net-(D3-Pad1)*%
X92750000Y-114750000D03*
%TD*%
D11*
%TO.P,D2,2*%
%TO.N,Net-(D1-Pad2)*%
X269630000Y-149500000D03*
D21*
%TO.P,D2,1*%
%TO.N,/A*%
X277250000Y-149500000D03*
%TD*%
D11*
%TO.P,D1,2*%
%TO.N,Net-(D1-Pad2)*%
X144000000Y-149250000D03*
D21*
%TO.P,D1,1*%
%TO.N,Net-(D1-Pad1)*%
X136380000Y-149250000D03*
%TD*%
D30*
%TO.N,Net-(D1-Pad1)*%
X96000000Y-159000000D03*
X161500000Y-60250000D03*
%TO.N,Net-(D3-Pad1)*%
X85000000Y-163500000D03*
X93875000Y-67125000D03*
X184250000Y-67500000D03*
D31*
%TO.N,+5V*%
X348880000Y-36120000D03*
X325120000Y-36120000D03*
X367500000Y-44500000D03*
D30*
X178000000Y-36500000D03*
X202000000Y-36500000D03*
X112000000Y-36500000D03*
X136500000Y-36500000D03*
X238130000Y-36120000D03*
%TO.N,Net-(U1-Pad4)*%
X263500000Y-43000000D03*
X258000000Y-43000000D03*
%TO.N,Net-(U1-Pad3)*%
X211000000Y-45000000D03*
%TO.N,/M*%
X287250000Y-102000000D03*
X266000000Y-102000000D03*
%TO.N,/P*%
X323000000Y-128500000D03*
%TO.N,/ROW_A*%
X248750000Y-155750000D03*
D31*
%TO.N,/B*%
X99050000Y-69750000D03*
D30*
%TO.N,/C*%
X117700000Y-88500000D03*
X117700000Y-69700000D03*
X164000000Y-127250000D03*
%TO.N,/D*%
X132000000Y-67750000D03*
X138000000Y-126750000D03*
%TO.N,/E*%
X180500000Y-110000000D03*
X180500000Y-90000000D03*
X161000000Y-90000000D03*
X151250000Y-67450010D03*
%TO.N,/F*%
X171500000Y-88000000D03*
X219519852Y-65799969D03*
X219500000Y-87924990D03*
X146265016Y-87075010D03*
%TO.N,/G*%
X194000000Y-66800034D03*
%TO.N,/H*%
X210000000Y-65500000D03*
X128500000Y-107500000D03*
X202817507Y-107567507D03*
%TO.N,/I*%
X142000000Y-122750000D03*
X208500000Y-123000000D03*
X223500000Y-108000000D03*
%TO.N,/K*%
X264500000Y-84000000D03*
X227250000Y-125000000D03*
X269750000Y-124750000D03*
X334000000Y-84000000D03*
%TO.N,/L*%
X317040000Y-89540000D03*
X259151464Y-89151464D03*
X280290000Y-89540000D03*
%TO.N,/N*%
X297540000Y-87960000D03*
X236500000Y-145250000D03*
X236750000Y-127750000D03*
X308250000Y-126250000D03*
%TO.N,/Q*%
X84750000Y-68000000D03*
X303500000Y-85750000D03*
X289250000Y-85750000D03*
X261500000Y-85750000D03*
%TO.N,Net-(R4-Pad2)*%
X132250000Y-62500000D03*
X209500010Y-54250000D03*
D31*
%TO.N,GND*%
X317500000Y-60500000D03*
X328500000Y-60500000D03*
D30*
X170500000Y-57500000D03*
X194500000Y-57500000D03*
X128500000Y-57500000D03*
X108000000Y-57500000D03*
X121250000Y-57500000D03*
%TO.N,Net-(R14-Pad1)*%
X130750000Y-43250000D03*
%TO.N,Net-(R11-Pad2)*%
X152687000Y-54313000D03*
X194000000Y-60999998D03*
X198250000Y-60750000D03*
%TO.N,Net-(R12-Pad2)*%
X192250000Y-59750000D03*
X200500000Y-59500000D03*
%TO.N,PC*%
X214500000Y-48000000D03*
%TO.N,PD*%
X209500000Y-46500000D03*
%TO.N,PB*%
X212000000Y-50000000D03*
%TO.N,Net-(R22-Pad1)*%
X184000000Y-42000000D03*
X184000000Y-52000000D03*
D31*
%TO.N,~CLOCK*%
X334500000Y-43000000D03*
D30*
%TO.N,CAPS_LOCK*%
X99060000Y-149225000D03*
X100330000Y-161925000D03*
%TO.N,CAPS_LOCK_PULSE*%
X77750000Y-57000000D03*
X86995000Y-123825000D03*
X122100000Y-167400000D03*
%TD*%
D32*
%TO.N,Net-(D1-Pad1)*%
X96000000Y-134980000D02*
X91240000Y-130220000D01*
X96000000Y-159000000D02*
X96000000Y-134980000D01*
X136200000Y-100800000D02*
X140000000Y-104600000D01*
X136200000Y-90200000D02*
X136200000Y-100800000D01*
X150750000Y-60250000D02*
X146794999Y-64205001D01*
X146794999Y-79605001D02*
X136200000Y-90200000D01*
X146794999Y-64205001D02*
X146794999Y-79605001D01*
X161500000Y-60250000D02*
X150750000Y-60250000D01*
X139664999Y-104935001D02*
X139664999Y-127535001D01*
X140000000Y-104600000D02*
X139664999Y-104935001D01*
X139664999Y-127535001D02*
X139000000Y-128200000D01*
X139000000Y-128200000D02*
X139000000Y-131000000D01*
X141375001Y-133375001D02*
X141375001Y-143624999D01*
X139000000Y-131000000D02*
X141375001Y-133375001D01*
X136380000Y-148620000D02*
X136380000Y-149250000D01*
X141375001Y-143624999D02*
X136380000Y-148620000D01*
%TO.N,Net-(D3-Pad2)*%
X354899999Y-96729003D02*
X358500000Y-93129002D01*
X354899999Y-110020001D02*
X354899999Y-96729003D01*
X358500000Y-93129002D02*
X358500000Y-88000000D01*
X353800000Y-111120000D02*
X354899999Y-110020001D01*
%TO.N,Net-(D3-Pad1)*%
X91275001Y-136536001D02*
X90289989Y-137521013D01*
X90289989Y-137521013D02*
X90289989Y-143270011D01*
X89564999Y-117935001D02*
X89564999Y-132353997D01*
X92750000Y-114750000D02*
X89564999Y-117935001D01*
X89564999Y-132353997D02*
X91275001Y-134063999D01*
X91275001Y-134063999D02*
X91275001Y-136536001D01*
X90289989Y-143270011D02*
X84140000Y-149420000D01*
X85000000Y-150280000D02*
X84140000Y-149420000D01*
X85000000Y-163500000D02*
X85000000Y-150280000D01*
X86250000Y-88250000D02*
X91750000Y-88250000D01*
X93475001Y-99224999D02*
X92100000Y-100600000D01*
X91750000Y-88250000D02*
X93475001Y-89975001D01*
X92100000Y-100600000D02*
X92100000Y-101600000D01*
X94125001Y-113374999D02*
X92750000Y-114750000D01*
X94125001Y-103625001D02*
X94125001Y-113374999D01*
X92100000Y-101600000D02*
X94125001Y-103625001D01*
X93424999Y-76763999D02*
X93424999Y-90424999D01*
X93875000Y-76313998D02*
X93424999Y-76763999D01*
X93875000Y-67125000D02*
X93875000Y-76313998D01*
X93475001Y-90475001D02*
X93475001Y-99224999D01*
X93424999Y-90424999D02*
X93475001Y-90475001D01*
X93475001Y-89975001D02*
X93475001Y-90475001D01*
D33*
X185500000Y-59660000D02*
X185500000Y-66750000D01*
X184750000Y-67500000D02*
X184250000Y-67500000D01*
X185500000Y-66750000D02*
X184750000Y-67500000D01*
D34*
%TO.N,+5V*%
X339420000Y-35820000D02*
X339120000Y-36120000D01*
X339420000Y-32500000D02*
X339420000Y-35820000D01*
D35*
X339120000Y-36120000D02*
X325120000Y-36120000D01*
D34*
X341960000Y-36040000D02*
X341880000Y-36120000D01*
X341960000Y-32500000D02*
X341960000Y-36040000D01*
D35*
X341880000Y-36120000D02*
X339120000Y-36120000D01*
X348880000Y-36120000D02*
X341880000Y-36120000D01*
D32*
X354650000Y-151940000D02*
X354650000Y-146150000D01*
X348589999Y-133859999D02*
X347490000Y-132760000D01*
X348589999Y-140089999D02*
X348589999Y-133859999D01*
X354650000Y-146150000D02*
X348589999Y-140089999D01*
X347525001Y-132724999D02*
X365775001Y-132724999D01*
X347490000Y-132760000D02*
X347525001Y-132724999D01*
X365775001Y-132724999D02*
X367500000Y-131000000D01*
X368075001Y-45075001D02*
X367500000Y-44500000D01*
X368075001Y-130424999D02*
X368075001Y-45075001D01*
X367500000Y-131000000D02*
X368075001Y-130424999D01*
X81349999Y-114739999D02*
X81349999Y-129219999D01*
X81349999Y-129219999D02*
X84890000Y-132760000D01*
X80250000Y-113640000D02*
X81349999Y-114739999D01*
X85989999Y-143760001D02*
X77790000Y-151960000D01*
X85989999Y-133859999D02*
X85989999Y-143760001D01*
X84890000Y-132760000D02*
X85989999Y-133859999D01*
D34*
X325120000Y-36120000D02*
X321000000Y-32000000D01*
X297750000Y-32250000D02*
X298000000Y-32000000D01*
X321000000Y-32000000D02*
X298000000Y-32000000D01*
D33*
X302000000Y-38840000D02*
X298840000Y-38840000D01*
X298840000Y-38840000D02*
X297750000Y-37750000D01*
D34*
X297750000Y-49500000D02*
X297750000Y-37750000D01*
X296500000Y-36500000D02*
X297750000Y-35250000D01*
X252000000Y-36500000D02*
X296500000Y-36500000D01*
X297750000Y-35250000D02*
X297750000Y-32250000D01*
X297750000Y-37750000D02*
X297750000Y-35250000D01*
X202000000Y-36500000D02*
X178000000Y-36500000D01*
X209000000Y-36500000D02*
X202000000Y-36500000D01*
X252000000Y-36500000D02*
X251620000Y-36120000D01*
X230380000Y-36120000D02*
X226000000Y-40500000D01*
X213000000Y-40500000D02*
X209000000Y-36500000D01*
X226000000Y-40500000D02*
X213000000Y-40500000D01*
X251620000Y-36120000D02*
X238130000Y-36120000D01*
X178000000Y-36500000D02*
X148000000Y-36500000D01*
X82000000Y-36500000D02*
X74500000Y-44000000D01*
X88250000Y-39460000D02*
X88210000Y-39500000D01*
X88250000Y-36500000D02*
X88250000Y-39460000D01*
X88250000Y-36500000D02*
X82000000Y-36500000D01*
X88250000Y-39540000D02*
X88210000Y-39500000D01*
X88250000Y-44000000D02*
X88250000Y-39540000D01*
X112000000Y-36500000D02*
X88250000Y-36500000D01*
D32*
X74500000Y-44000000D02*
X71250000Y-47250000D01*
X71250000Y-58020000D02*
X73230000Y-60000000D01*
X71250000Y-47250000D02*
X71250000Y-58020000D01*
X73230000Y-75320000D02*
X73090000Y-75460000D01*
X73230000Y-60000000D02*
X73230000Y-75320000D01*
X80250000Y-113640000D02*
X80250000Y-106500000D01*
X73090000Y-75460000D02*
X69540000Y-75460000D01*
X69540000Y-75460000D02*
X69000000Y-76000000D01*
X69000000Y-95250000D02*
X74500000Y-100750000D01*
X69000000Y-76000000D02*
X69000000Y-95250000D01*
X80250000Y-106500000D02*
X74500000Y-100750000D01*
D34*
X136500000Y-36500000D02*
X112000000Y-36500000D01*
X148000000Y-36500000D02*
X136500000Y-36500000D01*
X238130000Y-36120000D02*
X230380000Y-36120000D01*
D33*
%TO.N,Net-(U1-Pad4)*%
X263500000Y-43000000D02*
X258000000Y-43000000D01*
%TO.N,Net-(U1-Pad3)*%
X211500000Y-44500000D02*
X211000000Y-45000000D01*
X226750000Y-44500000D02*
X211500000Y-44500000D01*
X231750000Y-39500000D02*
X226750000Y-44500000D01*
X291500000Y-39500000D02*
X231750000Y-39500000D01*
X292670000Y-40670000D02*
X291500000Y-39500000D01*
X292670000Y-49500000D02*
X292670000Y-40670000D01*
%TO.N,Net-(U1-Pad2)*%
X293000000Y-38500000D02*
X295210000Y-40710000D01*
X231000000Y-38500000D02*
X293000000Y-38500000D01*
X295210000Y-40710000D02*
X295210000Y-49500000D01*
X226170001Y-43329999D02*
X231000000Y-38500000D01*
X197540000Y-42040000D02*
X198829999Y-43329999D01*
X198829999Y-43329999D02*
X226170001Y-43329999D01*
X194500000Y-42040000D02*
X197540000Y-42040000D01*
D32*
%TO.N,/ROW_C*%
X354590000Y-89074998D02*
X354590000Y-94560000D01*
X350889999Y-76559999D02*
X350889999Y-85374997D01*
X350889999Y-85374997D02*
X354590000Y-89074998D01*
X349790000Y-75460000D02*
X350889999Y-76559999D01*
X354590000Y-94560000D02*
X351440000Y-94560000D01*
X347450000Y-98550000D02*
X347450000Y-113660000D01*
X351440000Y-94560000D02*
X347450000Y-98550000D01*
X222089999Y-124359999D02*
X230490000Y-132760000D01*
X222089999Y-114759999D02*
X222089999Y-124359999D01*
X220990000Y-113660000D02*
X222089999Y-114759999D01*
X236549999Y-110119999D02*
X240090000Y-113660000D01*
X236549999Y-95639999D02*
X236549999Y-110119999D01*
X235450000Y-94540000D02*
X236549999Y-95639999D01*
X145824999Y-124494999D02*
X154090000Y-132760000D01*
X145824999Y-114894999D02*
X145824999Y-124494999D01*
X144590000Y-113660000D02*
X145824999Y-114894999D01*
X141189999Y-95659999D02*
X141189999Y-110259999D01*
X141189999Y-110259999D02*
X144590000Y-113660000D01*
X140090000Y-94560000D02*
X141189999Y-95659999D01*
X73500000Y-90170000D02*
X74540000Y-91210000D01*
X73500000Y-77588998D02*
X73500000Y-90170000D01*
X76000000Y-75088998D02*
X73500000Y-77588998D01*
X76000000Y-72500000D02*
X76000000Y-75088998D01*
X74500000Y-61270000D02*
X74765001Y-61535001D01*
X74765001Y-61535001D02*
X74765001Y-71265001D01*
X74540000Y-91210000D02*
X77890000Y-94560000D01*
X74765001Y-71265001D02*
X76000000Y-72500000D01*
%TO.N,/M*%
X287250000Y-87019002D02*
X287250000Y-102000000D01*
X278914999Y-78684001D02*
X287250000Y-87019002D01*
X278914999Y-65795001D02*
X278914999Y-78684001D01*
X279970000Y-64740000D02*
X278914999Y-65795001D01*
X265540000Y-102460000D02*
X266000000Y-102000000D01*
X265540000Y-111120000D02*
X265540000Y-102460000D01*
X266639999Y-119620001D02*
X256040000Y-130220000D01*
X266639999Y-112219999D02*
X266639999Y-119620001D01*
X265540000Y-111120000D02*
X266639999Y-112219999D01*
%TO.N,/P*%
X323000000Y-128500000D02*
X329250000Y-122250000D01*
X329250000Y-117960998D02*
X322840000Y-111550998D01*
X322840000Y-111550998D02*
X322840000Y-111120000D01*
X329250000Y-122250000D02*
X329250000Y-117960998D01*
X322410998Y-111120000D02*
X322840000Y-111120000D01*
X305250000Y-91500000D02*
X305250000Y-93959002D01*
X297750000Y-84000000D02*
X305250000Y-91500000D01*
X305250000Y-93959002D02*
X322410998Y-111120000D01*
X297750000Y-72250000D02*
X297750000Y-84000000D01*
X295750000Y-70250000D02*
X297750000Y-72250000D01*
X285050000Y-64740000D02*
X285050000Y-67300000D01*
X288000000Y-70250000D02*
X295750000Y-70250000D01*
X285050000Y-67300000D02*
X288000000Y-70250000D01*
%TO.N,/ROW_A*%
X246994999Y-114505001D02*
X246994999Y-130064999D01*
X247000000Y-114500000D02*
X246994999Y-114505001D01*
X242914999Y-110414999D02*
X247000000Y-114500000D01*
X245500000Y-77000000D02*
X245500000Y-91210002D01*
X246994999Y-130064999D02*
X249690000Y-132760000D01*
X242914999Y-93795003D02*
X242914999Y-110414999D01*
X244990000Y-76490000D02*
X245500000Y-77000000D01*
X245500000Y-91210002D02*
X242914999Y-93795003D01*
X244990000Y-75460000D02*
X244990000Y-76490000D01*
X250789999Y-133859999D02*
X249690000Y-132760000D01*
X250789999Y-153710001D02*
X250789999Y-133859999D01*
X248750000Y-155750000D02*
X250789999Y-153710001D01*
%TO.N,/A*%
X270440000Y-77569002D02*
X272250000Y-79379002D01*
X270440000Y-72920000D02*
X270440000Y-77569002D01*
X272250000Y-84350000D02*
X279900000Y-92000000D01*
X272250000Y-79379002D02*
X272250000Y-84350000D01*
X280999999Y-107479999D02*
X284640000Y-111120000D01*
X280999999Y-93099999D02*
X280999999Y-107479999D01*
X279900000Y-92000000D02*
X280999999Y-93099999D01*
X282500000Y-149500000D02*
X277250000Y-149500000D01*
X284675001Y-147324999D02*
X282500000Y-149500000D01*
X284675001Y-111155001D02*
X284675001Y-147324999D01*
X284640000Y-111120000D02*
X284675001Y-111155001D01*
%TO.N,/B*%
X98540000Y-70260000D02*
X99050000Y-69750000D01*
X98540000Y-72920000D02*
X98540000Y-70260000D01*
X98540000Y-72920000D02*
X101170000Y-72920000D01*
X108240000Y-79990000D02*
X108240000Y-92020000D01*
X101170000Y-72920000D02*
X108240000Y-79990000D01*
X112875001Y-111084999D02*
X112840000Y-111120000D01*
X112875001Y-93374999D02*
X112875001Y-111084999D01*
X111520002Y-92020000D02*
X112875001Y-93374999D01*
X108240000Y-92020000D02*
X111520002Y-92020000D01*
%TO.N,/C*%
X117700000Y-69700000D02*
X117700000Y-88500000D01*
X164000000Y-115888998D02*
X164000000Y-127250000D01*
X165540000Y-92020000D02*
X166639999Y-93119999D01*
X166639999Y-93119999D02*
X166639999Y-113248999D01*
X166639999Y-113248999D02*
X164000000Y-115888998D01*
%TO.N,/D*%
X132000000Y-68180000D02*
X136740000Y-72920000D01*
X132000000Y-67750000D02*
X132000000Y-68180000D01*
X131840000Y-111120000D02*
X134370000Y-111120000D01*
X138000000Y-114750000D02*
X138000000Y-126750000D01*
X134370000Y-111120000D02*
X138000000Y-114750000D01*
X131840000Y-90760000D02*
X131840000Y-95960000D01*
X131840000Y-95960000D02*
X131840000Y-111120000D01*
X137839999Y-84760001D02*
X131840000Y-90760000D01*
X137839999Y-74019999D02*
X137839999Y-84760001D01*
X136740000Y-72920000D02*
X137839999Y-74019999D01*
%TO.N,/E*%
X180500000Y-110000000D02*
X181249999Y-109250001D01*
X180540000Y-90040000D02*
X180500000Y-90000000D01*
X155840000Y-72920000D02*
X155840000Y-77220000D01*
X161000000Y-82729002D02*
X161000000Y-90000000D01*
X155840000Y-77569002D02*
X161000000Y-82729002D01*
X155840000Y-77220000D02*
X155840000Y-77569002D01*
X180500000Y-110000000D02*
X185250000Y-105250000D01*
X185250000Y-92630000D02*
X184640000Y-92020000D01*
X185250000Y-105250000D02*
X185250000Y-92630000D01*
X161000000Y-90000000D02*
X156750000Y-90000000D01*
X150940000Y-95810000D02*
X150940000Y-111120000D01*
X156750000Y-90000000D02*
X150940000Y-95810000D01*
D33*
X151250000Y-68330000D02*
X151250000Y-67450010D01*
X155840000Y-72920000D02*
X151250000Y-68330000D01*
D32*
%TO.N,/F*%
X173668998Y-72920000D02*
X169400000Y-77188998D01*
X174940000Y-72920000D02*
X173668998Y-72920000D01*
X169400000Y-85900000D02*
X171500000Y-88000000D01*
X169400000Y-77188998D02*
X169400000Y-85900000D01*
D33*
X219519852Y-87905138D02*
X219500000Y-87924990D01*
D32*
X219500000Y-88780000D02*
X219500000Y-87924990D01*
X222740000Y-92020000D02*
X219500000Y-88780000D01*
X219500000Y-88000000D02*
X219500000Y-87924990D01*
X219540000Y-88040000D02*
X219500000Y-88000000D01*
D33*
X219519852Y-65799969D02*
X219519852Y-87905138D01*
D32*
X146440000Y-87249994D02*
X146265016Y-87075010D01*
X146440000Y-92020000D02*
X146440000Y-87249994D01*
%TO.N,/G*%
X187750998Y-72920000D02*
X174000000Y-86670998D01*
X194040000Y-72920000D02*
X187750998Y-72920000D01*
X174000000Y-107160000D02*
X170040000Y-111120000D01*
X174000000Y-86670998D02*
X174000000Y-107160000D01*
X170040000Y-111120000D02*
X172620000Y-111120000D01*
X179540000Y-118040000D02*
X179540000Y-130220000D01*
X172620000Y-111120000D02*
X179540000Y-118040000D01*
D33*
X194040000Y-72920000D02*
X194040000Y-66840034D01*
X194040000Y-66840034D02*
X194000000Y-66800034D01*
D32*
%TO.N,/H*%
X210000000Y-69780000D02*
X213140000Y-72920000D01*
X210000000Y-65500000D02*
X210000000Y-69780000D01*
X128439999Y-93119999D02*
X128439999Y-107439999D01*
X128439999Y-107439999D02*
X128500000Y-107500000D01*
X127340000Y-92020000D02*
X128439999Y-93119999D01*
X210075001Y-85575001D02*
X213600000Y-82050002D01*
X213600000Y-75000000D02*
X213140000Y-74540000D01*
X202817507Y-107567507D02*
X210075001Y-100310013D01*
X213600000Y-82050002D02*
X213600000Y-75000000D01*
X213140000Y-74540000D02*
X213140000Y-72920000D01*
X210075001Y-100310013D02*
X210075001Y-85575001D01*
%TO.N,/I*%
X141340000Y-123410000D02*
X142000000Y-122750000D01*
X141340000Y-130220000D02*
X141340000Y-123410000D01*
X208500000Y-111380000D02*
X208240000Y-111120000D01*
X208500000Y-123000000D02*
X208500000Y-111380000D01*
X232240000Y-72920000D02*
X222830000Y-72920000D01*
X222830000Y-72920000D02*
X221250000Y-74500000D01*
X221250000Y-74500000D02*
X221250000Y-84250000D01*
X221250000Y-84250000D02*
X228750000Y-91750000D01*
X228750000Y-102750000D02*
X223500000Y-108000000D01*
X228750000Y-91750000D02*
X228750000Y-102750000D01*
%TO.N,/J*%
X251260000Y-73000000D02*
X251340000Y-72920000D01*
X243250000Y-73000000D02*
X251260000Y-73000000D01*
X241800000Y-74450000D02*
X243250000Y-73000000D01*
X241800000Y-92000000D02*
X241800000Y-74450000D01*
%TO.N,/K*%
X327500000Y-73380000D02*
X327040000Y-72920000D01*
X227999999Y-124250001D02*
X230999999Y-124250001D01*
X227250000Y-125000000D02*
X227999999Y-124250001D01*
X230999999Y-124250001D02*
X233500000Y-121750000D01*
X233500000Y-121750000D02*
X233500000Y-113500000D01*
X231120000Y-111120000D02*
X227340000Y-111120000D01*
X233500000Y-113500000D02*
X231120000Y-111120000D01*
X264500000Y-84000000D02*
X264500000Y-88750000D01*
X264500000Y-91409002D02*
X271500000Y-98409002D01*
X264500000Y-88750000D02*
X264500000Y-91409002D01*
X271500000Y-123000000D02*
X269750000Y-124750000D01*
X271500000Y-98409002D02*
X271500000Y-123000000D01*
X274890000Y-67110000D02*
X274890000Y-64740000D01*
X267364999Y-70864999D02*
X271135001Y-70864999D01*
X266864999Y-75164003D02*
X266864999Y-71364999D01*
X271135001Y-70864999D02*
X274890000Y-67110000D01*
X264500000Y-77529002D02*
X266864999Y-75164003D01*
X266864999Y-71364999D02*
X267364999Y-70864999D01*
X264500000Y-84000000D02*
X264500000Y-77529002D01*
X327540000Y-72920000D02*
X333330000Y-72920000D01*
X334000000Y-73590000D02*
X334000000Y-84000000D01*
X333330000Y-72920000D02*
X334000000Y-73590000D01*
%TO.N,/L*%
X277430000Y-86680000D02*
X280290000Y-89540000D01*
X277430000Y-64740000D02*
X277430000Y-86680000D01*
X317040000Y-81420000D02*
X317040000Y-82960000D01*
X308540000Y-72920000D02*
X317040000Y-81420000D01*
X317040000Y-82460000D02*
X317040000Y-82960000D01*
X317040000Y-82960000D02*
X317040000Y-89540000D01*
X317040000Y-90940000D02*
X318100000Y-92000000D01*
X317040000Y-89540000D02*
X317040000Y-90940000D01*
X246440000Y-111120000D02*
X246440000Y-100070998D01*
X246440000Y-100070998D02*
X257359534Y-89151464D01*
X257848536Y-89151464D02*
X259151464Y-89151464D01*
X257359534Y-89151464D02*
X257848536Y-89151464D01*
%TO.N,/N*%
X282510000Y-67470000D02*
X283145000Y-68105000D01*
X282510000Y-64740000D02*
X282510000Y-67470000D01*
X283145000Y-68105000D02*
X282895000Y-67855000D01*
X287960000Y-72920000D02*
X283520000Y-68480000D01*
X283520000Y-68480000D02*
X283145000Y-68105000D01*
X289440000Y-72920000D02*
X287960000Y-72920000D01*
X289440000Y-72920000D02*
X294620000Y-72920000D01*
X294620000Y-72920000D02*
X296000000Y-74300000D01*
X296000000Y-86420000D02*
X297540000Y-87960000D01*
X296000000Y-74300000D02*
X296000000Y-86420000D01*
X237249999Y-130629999D02*
X236840000Y-130220000D01*
X237249999Y-144500001D02*
X237249999Y-130629999D01*
X236500000Y-145250000D02*
X237249999Y-144500001D01*
X236840000Y-127840000D02*
X236750000Y-127750000D01*
X236840000Y-130220000D02*
X236840000Y-127840000D01*
X309250000Y-111750000D02*
X299750000Y-102250000D01*
X309250000Y-124000000D02*
X309250000Y-111750000D01*
X299750000Y-95750000D02*
X299000000Y-95000000D01*
X299750000Y-102250000D02*
X299750000Y-95750000D01*
X308250000Y-125000000D02*
X309250000Y-124000000D01*
X299000000Y-95000000D02*
X299000000Y-92000000D01*
X308250000Y-126250000D02*
X308250000Y-125000000D01*
X299000000Y-89420000D02*
X297540000Y-87960000D01*
X299000000Y-92000000D02*
X299000000Y-89420000D01*
X331420000Y-149420000D02*
X332340000Y-149420000D01*
X308250000Y-126250000D02*
X331420000Y-149420000D01*
%TO.N,/ROW_B*%
X122089999Y-110259999D02*
X125490000Y-113660000D01*
X122089999Y-95659999D02*
X122089999Y-110259999D01*
X120990000Y-94560000D02*
X122089999Y-95659999D01*
X126589999Y-124359999D02*
X134990000Y-132760000D01*
X126589999Y-114759999D02*
X126589999Y-124359999D01*
X125490000Y-113660000D02*
X126589999Y-114759999D01*
X88020000Y-61270000D02*
X90270000Y-61270000D01*
X96864999Y-73724001D02*
X99654999Y-76514001D01*
X96864999Y-67864999D02*
X96864999Y-73724001D01*
X99654999Y-92324999D02*
X101890000Y-94560000D01*
X99654999Y-76514001D02*
X99654999Y-92324999D01*
X90270000Y-61270000D02*
X96864999Y-67864999D01*
D33*
X293749999Y-110019999D02*
X297390000Y-113660000D01*
X293749999Y-95639999D02*
X293749999Y-110019999D01*
X292650000Y-94540000D02*
X293749999Y-95639999D01*
D32*
%TO.N,/Q*%
X79830000Y-72920000D02*
X84750000Y-68000000D01*
X79440000Y-72920000D02*
X79830000Y-72920000D01*
D33*
X303650001Y-111209999D02*
X303740000Y-111120000D01*
X303650001Y-120809999D02*
X303650001Y-111209999D01*
X294240000Y-130220000D02*
X303650001Y-120809999D01*
X294240000Y-130220000D02*
X294240000Y-124240000D01*
X290079999Y-120079999D02*
X290079999Y-105079999D01*
X294240000Y-124240000D02*
X290079999Y-120079999D01*
X290079999Y-105079999D02*
X289250000Y-104250000D01*
X289250000Y-104250000D02*
X289250000Y-85750000D01*
X260800000Y-86450000D02*
X261500000Y-85750000D01*
X260800000Y-92000000D02*
X260800000Y-86450000D01*
D32*
X288000000Y-66800000D02*
X294072620Y-66800000D01*
X287590000Y-66390000D02*
X288000000Y-66800000D01*
X287590000Y-64740000D02*
X287590000Y-66390000D01*
X299494999Y-81744999D02*
X303500000Y-85750000D01*
X299494999Y-69755001D02*
X299494999Y-81744999D01*
X299500000Y-69750000D02*
X299494999Y-69755001D01*
X296550000Y-66800000D02*
X299500000Y-69750000D01*
X294072620Y-66800000D02*
X296550000Y-66800000D01*
D33*
%TO.N,Net-(C2-Pad1)*%
X232500000Y-42250000D02*
X247750000Y-42250000D01*
X248750000Y-43250000D02*
X248750000Y-46750000D01*
X247750000Y-42250000D02*
X248750000Y-43250000D01*
%TO.N,Net-(R4-Pad2)*%
X242500000Y-53500000D02*
X241040000Y-54960000D01*
X241040000Y-54960000D02*
X241040000Y-57250000D01*
X295000000Y-58500000D02*
X267000000Y-58500000D01*
X297750000Y-61250000D02*
X295000000Y-58500000D01*
X267000000Y-58500000D02*
X262000000Y-53500000D01*
X297750000Y-64740000D02*
X297750000Y-61250000D01*
X251200000Y-53300000D02*
X251000000Y-53500000D01*
X251200000Y-49630000D02*
X251200000Y-53300000D01*
X262000000Y-53500000D02*
X251000000Y-53500000D01*
X251000000Y-53500000D02*
X243250000Y-53500000D01*
X243250000Y-53500000D02*
X242500000Y-53500000D01*
X243250000Y-53500000D02*
X210250009Y-53500001D01*
X210250009Y-53500001D02*
X209500010Y-54250000D01*
D34*
%TO.N,GND*%
X295210000Y-64740000D02*
X295210000Y-61710000D01*
X295210000Y-61710000D02*
X294000000Y-60500000D01*
X259530000Y-60500000D02*
X256280000Y-57250000D01*
X294000000Y-60500000D02*
X259530000Y-60500000D01*
X341380000Y-54740000D02*
X341380000Y-58620000D01*
X341380000Y-58620000D02*
X339500000Y-60500000D01*
X328500000Y-60500000D02*
X317500000Y-60500000D01*
X338500000Y-60500000D02*
X350500000Y-60500000D01*
X339500000Y-60500000D02*
X338500000Y-60500000D01*
X338500000Y-60500000D02*
X328500000Y-60500000D01*
X350500000Y-60500000D02*
X353500000Y-57500000D01*
X353500000Y-57500000D02*
X353500000Y-34500000D01*
X351500000Y-32500000D02*
X344500000Y-32500000D01*
X353500000Y-34500000D02*
X351500000Y-32500000D01*
X189500000Y-59660000D02*
X189500000Y-57500000D01*
X189500000Y-57500000D02*
X170500000Y-57500000D01*
X194500000Y-57500000D02*
X189500000Y-57500000D01*
X131000000Y-60000000D02*
X128500000Y-57500000D01*
X143500000Y-60000000D02*
X131000000Y-60000000D01*
X112500000Y-57500000D02*
X108000000Y-57500000D01*
X121250000Y-57500000D02*
X112500000Y-57500000D01*
X128500000Y-57500000D02*
X121250000Y-57500000D01*
X259530000Y-60500000D02*
X259530000Y-63470000D01*
X259530000Y-63470000D02*
X234523373Y-63470000D01*
X234523373Y-63470000D02*
X228553373Y-57500000D01*
X201000000Y-57500000D02*
X194500000Y-57500000D01*
X201000000Y-57500000D02*
X206250000Y-57500000D01*
X206250000Y-57500000D02*
X205500000Y-57500000D01*
X228553373Y-57500000D02*
X206250000Y-57500000D01*
X145499999Y-58000001D02*
X143500000Y-60000000D01*
X159363995Y-58000001D02*
X145499999Y-58000001D01*
X159813998Y-57549998D02*
X159363995Y-58000001D01*
X170450002Y-57549998D02*
X159813998Y-57549998D01*
X170500000Y-57500000D02*
X170450002Y-57549998D01*
D33*
%TO.N,Net-(D12-Pad2)*%
X100309997Y-48909999D02*
X95000000Y-43600002D01*
X139069999Y-48909999D02*
X100309997Y-48909999D01*
X140000000Y-49840000D02*
X139069999Y-48909999D01*
X95000000Y-43600002D02*
X95000000Y-43500000D01*
X94499999Y-42999999D02*
X91500001Y-42999999D01*
X95000000Y-43500000D02*
X94499999Y-42999999D01*
X87649387Y-45450010D02*
X87199377Y-45000000D01*
X89049990Y-45450010D02*
X87649387Y-45450010D01*
X91500001Y-42999999D02*
X89049990Y-45450010D01*
X87199377Y-45000000D02*
X86000000Y-45000000D01*
X86000000Y-45000000D02*
X83250000Y-42250000D01*
X83250000Y-42250000D02*
X81250000Y-42250000D01*
X75770000Y-47730000D02*
X75770000Y-60000000D01*
X81250000Y-42250000D02*
X75770000Y-47730000D01*
%TO.N,Net-(R14-Pad1)*%
X84450012Y-46200012D02*
X92450012Y-46200012D01*
X82500000Y-44250000D02*
X84450012Y-46200012D01*
X92450012Y-46200012D02*
X99000000Y-52750000D01*
X99000000Y-52750000D02*
X105750000Y-52750000D01*
X118649999Y-54000001D02*
X127199999Y-54000001D01*
X118639997Y-53989999D02*
X118649999Y-54000001D01*
X106989999Y-53989999D02*
X118639997Y-53989999D01*
X127199999Y-54000001D02*
X128500000Y-52700000D01*
X105750000Y-52750000D02*
X106989999Y-53989999D01*
X174329999Y-43329999D02*
X178120000Y-47120000D01*
X131290001Y-43790001D02*
X167539998Y-43790001D01*
X168000000Y-43329999D02*
X174329999Y-43329999D01*
X167539998Y-43790001D02*
X168000000Y-43329999D01*
X130750000Y-43250000D02*
X131290001Y-43790001D01*
%TO.N,Net-(R19-Pad1)*%
X100160001Y-51410001D02*
X134830001Y-51410001D01*
X134830001Y-51410001D02*
X136120000Y-52700000D01*
X93000000Y-44250000D02*
X100160001Y-51410001D01*
%TO.N,Net-(R11-Pad2)*%
X137047000Y-54313000D02*
X152687000Y-54313000D01*
X136120000Y-55240000D02*
X137047000Y-54313000D01*
X194000000Y-60999998D02*
X198000002Y-60999998D01*
X198000002Y-60999998D02*
X198250000Y-60750000D01*
%TO.N,Net-(R12-Pad2)*%
X170500000Y-47120000D02*
X169120000Y-47120000D01*
X149250001Y-45409999D02*
X148000000Y-46660000D01*
X167409999Y-45409999D02*
X149250001Y-45409999D01*
X169120000Y-47120000D02*
X167409999Y-45409999D01*
X192500000Y-59500000D02*
X200500000Y-59500000D01*
X192250000Y-59750000D02*
X192500000Y-59500000D01*
%TO.N,Net-(R15-Pad1)*%
X302000000Y-49000000D02*
X309000000Y-49000000D01*
%TO.N,PC*%
X191210001Y-48370001D02*
X189500000Y-46660000D01*
X214129999Y-48370001D02*
X191210001Y-48370001D01*
X214500000Y-48000000D02*
X214129999Y-48370001D01*
X176860000Y-56000000D02*
X178120000Y-54740000D01*
X164390001Y-51090001D02*
X169300000Y-56000000D01*
X137050001Y-51090001D02*
X164390001Y-51090001D01*
X169300000Y-56000000D02*
X176860000Y-56000000D01*
X136120000Y-50160000D02*
X137050001Y-51090001D01*
%TO.N,PD*%
X208869999Y-45869999D02*
X191869999Y-45869999D01*
X209500000Y-46500000D02*
X208869999Y-45869999D01*
X191869999Y-45869999D02*
X191000000Y-45000000D01*
X187160000Y-45000000D02*
X185500000Y-46660000D01*
X191000000Y-45000000D02*
X187160000Y-45000000D01*
%TO.N,PB*%
X211089999Y-50910001D02*
X188089999Y-50910001D01*
X212000000Y-50000000D02*
X211089999Y-50910001D01*
X171789999Y-53489999D02*
X170500000Y-52200000D01*
X185510001Y-53489999D02*
X171789999Y-53489999D01*
X188089999Y-50910001D02*
X185510001Y-53489999D01*
X157000000Y-46660000D02*
X155410000Y-48250000D01*
X155410000Y-48250000D02*
X140250000Y-48250000D01*
X129750001Y-46369999D02*
X128500000Y-47620000D01*
X138369999Y-46369999D02*
X129750001Y-46369999D01*
X140250000Y-48250000D02*
X138369999Y-46369999D01*
%TO.N,Net-(R22-Pad1)*%
X184000000Y-42000000D02*
X184000000Y-52000000D01*
%TO.N,~CLOCK*%
X317500000Y-42040000D02*
X321540000Y-42040000D01*
X334209999Y-43290001D02*
X334500000Y-43000000D01*
X322790001Y-43290001D02*
X334209999Y-43290001D01*
X321540000Y-42040000D02*
X322790001Y-43290001D01*
%TO.N,Net-(U5-Pad2)*%
X339700000Y-52200000D02*
X341380000Y-52200000D01*
X338000000Y-50500000D02*
X339700000Y-52200000D01*
X338000000Y-43500000D02*
X338000000Y-50500000D01*
X339460000Y-42040000D02*
X338000000Y-43500000D01*
X341380000Y-42040000D02*
X339460000Y-42040000D01*
%TO.N,SI*%
X341380000Y-39500000D02*
X328000000Y-39500000D01*
X326710001Y-40789999D02*
X322289999Y-40789999D01*
X328000000Y-39500000D02*
X326710001Y-40789999D01*
X321000000Y-39500000D02*
X317500000Y-39500000D01*
X322289999Y-40789999D02*
X321000000Y-39500000D01*
%TO.N,CAPS_LOCK*%
X85090000Y-106340000D02*
X85250000Y-106500000D01*
D32*
X99060000Y-160655000D02*
X100330000Y-161925000D01*
X99060000Y-149225000D02*
X99060000Y-160655000D01*
D33*
%TO.N,CAPS_LOCK_PULSE*%
X77750000Y-57000000D02*
X77750000Y-73500000D01*
X77750000Y-73500000D02*
X79500000Y-75250000D01*
X79500000Y-75250000D02*
X79500000Y-90250000D01*
D32*
X83185000Y-105410000D02*
X85090000Y-103505000D01*
X83185000Y-110164002D02*
X83185000Y-105410000D01*
X86995000Y-113974002D02*
X83185000Y-110164002D01*
X86995000Y-123825000D02*
X86995000Y-113974002D01*
X79475001Y-75434003D02*
X79475001Y-90704999D01*
X77750000Y-73709002D02*
X79475001Y-75434003D01*
X77750000Y-57000000D02*
X77750000Y-73709002D01*
X85090000Y-96319998D02*
X85090000Y-96520000D01*
X79475001Y-90704999D02*
X85090000Y-96319998D01*
X85090000Y-103505000D02*
X85090000Y-96520000D01*
D33*
X136525000Y-162175000D02*
X136525000Y-160020000D01*
X126400000Y-163100000D02*
X135600000Y-163100000D01*
X135600000Y-163100000D02*
X136525000Y-162175000D01*
X122100000Y-167400000D02*
X126400000Y-163100000D01*
%TO.N,Net-(R29-Pad1)*%
X131445000Y-167640000D02*
X131445000Y-165855000D01*
X131445000Y-165855000D02*
X132800000Y-164500000D01*
X132800000Y-164500000D02*
X137400000Y-164500000D01*
X139065000Y-162835000D02*
X139065000Y-160020000D01*
X137400000Y-164500000D02*
X139065000Y-162835000D01*
%TD*%
M02*
