  0
SECTION
  2
HEADER
  9
$ANGBASE
  50
0.0
  9
$ANGDIR
  70
1
  9
$MEASUREMENT
  70
0
  0
ENDSEC
  0
SECTION
  2
TABLES
  0
TABLE
  2
LTYPE
  70
4
  0
LTYPE
  5
40F
  2
CONTINUOUS
  70
0
  3
Solid line
  72
65
  73
0
  40
0.0
  0
LTYPE
  5
410
  2
DASHDOT
 70
0
  3
Dash Dot ____ _ ____ _
 72
65
 73
4
 40
2.0
 49
1.25
 49
-0.25
 49
0.25
 49
-0.25
  0
LTYPE
  5
411
  2
DASHED
 70
0
  3
Dashed __ __ __ __ __
 72
65
 73
2
 40
0.75
 49
0.5
 49
-0.25
  0
LTYPE
  5
43B
  2
DOTTED
 70
0
  3
Dotted .  .  .  .
 72
65
 73
2
 40
0.2
 49
0.0
 49
-0.2
  0
ENDTAB
  0
TABLE
  2
STYLE
  70
4
  0
STYLE
  2
KICAD
  70
0
  40
0
  41
1
  42
1
  50
0
  71
0
  3
isocp.shx
  0
STYLE
  2
KICADB
  70
0
  40
0
  41
1
  42
1
  50
0
  71
0
  3
isocp.shx
  0
STYLE
  2
KICADI
  70
0
  40
0
  41
1
  42
1
  50
15
  71
0
  3
isocp.shx
  0
STYLE
  2
KICADBI
  70
0
  40
0
  41
1
  42
1
  50
15
  71
0
  3
isocp.shx
  0
ENDTAB
  0
TABLE
  2
LAYER
  70
1
  0
LAYER
  2
BLACK
  70
0
  62
7
  6
CONTINUOUS
  0
ENDTAB
  0
ENDSEC
  0
SECTION
  2
ENTITIES
0
LINE
8
BLACK
6
CONTINUOUS
10
1.1811
20
-6.06299
11
1.1811
21
-9.84252
0
LINE
8
BLACK
6
CONTINUOUS
10
12.3228
20
-6.06299
11
1.1811
21
-6.06299
0
LINE
8
BLACK
6
CONTINUOUS
10
12.3228
20
-9.84252
11
12.3228
21
-6.06299
0
LINE
8
BLACK
6
CONTINUOUS
10
1.1811
20
-9.84252
11
12.3228
21
-9.84252
0
LINE
8
BLACK
6
CONTINUOUS
10
1.29289
20
-10.0269
11
1.29289
21
-9.90875
0
LINE
8
BLACK
6
CONTINUOUS
10
1.29289
20
-9.90875
11
1.32101
21
-9.90875
0
LINE
8
BLACK
6
CONTINUOUS
10
1.32101
20
-9.90875
11
1.33788
21
-9.91437
0
LINE
8
BLACK
6
CONTINUOUS
10
1.33788
20
-9.91437
11
1.34913
21
-9.92562
0
LINE
8
BLACK
6
CONTINUOUS
10
1.34913
20
-9.92562
11
1.35475
21
-9.93687
0
LINE
8
BLACK
6
CONTINUOUS
10
1.35475
20
-9.93687
11
1.36038
21
-9.95936
0
LINE
8
BLACK
6
CONTINUOUS
10
1.36038
20
-9.95936
11
1.36038
21
-9.97624
0
LINE
8
BLACK
6
CONTINUOUS
10
1.36038
20
-9.97624
11
1.35475
21
-9.99873
0
LINE
8
BLACK
6
CONTINUOUS
10
1.35475
20
-9.99873
11
1.34913
21
-10.01
0
LINE
8
BLACK
6
CONTINUOUS
10
1.34913
20
-10.01
11
1.33788
21
-10.0212
0
LINE
8
BLACK
6
CONTINUOUS
10
1.33788
20
-10.0212
11
1.32101
21
-10.0269
0
LINE
8
BLACK
6
CONTINUOUS
10
1.32101
20
-10.0269
11
1.29289
21
-10.0269
0
LINE
8
BLACK
6
CONTINUOUS
10
1.411
20
-10.0269
11
1.411
21
-9.94812
0
LINE
8
BLACK
6
CONTINUOUS
10
1.411
20
-9.97061
11
1.41662
21
-9.95936
0
LINE
8
BLACK
6
CONTINUOUS
10
1.41662
20
-9.95936
11
1.42224
21
-9.95374
0
LINE
8
BLACK
6
CONTINUOUS
10
1.42224
20
-9.95374
11
1.43349
21
-9.94812
0
LINE
8
BLACK
6
CONTINUOUS
10
1.43349
20
-9.94812
11
1.44474
21
-9.94812
0
LINE
8
BLACK
6
CONTINUOUS
10
1.48411
20
-10.0269
11
1.48411
21
-9.94812
0
LINE
8
BLACK
6
CONTINUOUS
10
1.48411
20
-9.90875
11
1.47849
21
-9.91437
0
LINE
8
BLACK
6
CONTINUOUS
10
1.47849
20
-9.91437
11
1.48411
21
-9.91999
0
LINE
8
BLACK
6
CONTINUOUS
10
1.48411
20
-9.91999
11
1.48974
21
-9.91437
0
LINE
8
BLACK
6
CONTINUOUS
10
1.48974
20
-9.91437
11
1.48411
21
-9.90875
0
LINE
8
BLACK
6
CONTINUOUS
10
1.48411
20
-9.90875
11
1.48411
21
-9.91999
0
LINE
8
BLACK
6
CONTINUOUS
10
1.55723
20
-10.0269
11
1.54598
21
-10.0212
0
LINE
8
BLACK
6
CONTINUOUS
10
1.54598
20
-10.0212
11
1.54035
21
-10.01
0
LINE
8
BLACK
6
CONTINUOUS
10
1.54035
20
-10.01
11
1.54035
21
-9.90875
0
LINE
8
BLACK
6
CONTINUOUS
10
1.61909
20
-10.0269
11
1.60785
21
-10.0212
0
LINE
8
BLACK
6
CONTINUOUS
10
1.60785
20
-10.0212
11
1.60222
21
-10.01
0
LINE
8
BLACK
6
CONTINUOUS
10
1.60222
20
-10.01
11
1.60222
21
-9.90875
0
LINE
8
BLACK
6
CONTINUOUS
10
1.75408
20
-10.0269
11
1.75408
21
-9.90875
0
LINE
8
BLACK
6
CONTINUOUS
10
1.75408
20
-9.90875
11
1.79345
21
-9.99311
0
LINE
8
BLACK
6
CONTINUOUS
10
1.79345
20
-9.99311
11
1.83282
21
-9.90875
0
LINE
8
BLACK
6
CONTINUOUS
10
1.83282
20
-9.90875
11
1.83282
21
-10.0269
0
LINE
8
BLACK
6
CONTINUOUS
10
1.93968
20
-10.0269
11
1.93968
21
-9.96499
0
LINE
8
BLACK
6
CONTINUOUS
10
1.93968
20
-9.96499
11
1.93406
21
-9.95374
0
LINE
8
BLACK
6
CONTINUOUS
10
1.93406
20
-9.95374
11
1.92281
21
-9.94812
0
LINE
8
BLACK
6
CONTINUOUS
10
1.92281
20
-9.94812
11
1.90031
21
-9.94812
0
LINE
8
BLACK
6
CONTINUOUS
10
1.90031
20
-9.94812
11
1.88906
21
-9.95374
0
LINE
8
BLACK
6
CONTINUOUS
10
1.93968
20
-10.0212
11
1.92843
21
-10.0269
0
LINE
8
BLACK
6
CONTINUOUS
10
1.92843
20
-10.0269
11
1.90031
21
-10.0269
0
LINE
8
BLACK
6
CONTINUOUS
10
1.90031
20
-10.0269
11
1.88906
21
-10.0212
0
LINE
8
BLACK
6
CONTINUOUS
10
1.88906
20
-10.0212
11
1.88344
21
-10.01
0
LINE
8
BLACK
6
CONTINUOUS
10
1.88344
20
-10.01
11
1.88344
21
-9.99873
0
LINE
8
BLACK
6
CONTINUOUS
10
1.88344
20
-9.99873
11
1.88906
21
-9.98749
0
LINE
8
BLACK
6
CONTINUOUS
10
1.88906
20
-9.98749
11
1.90031
21
-9.98186
0
LINE
8
BLACK
6
CONTINUOUS
10
1.90031
20
-9.98186
11
1.92843
21
-9.98186
0
LINE
8
BLACK
6
CONTINUOUS
10
1.92843
20
-9.98186
11
1.93968
21
-9.97624
0
LINE
8
BLACK
6
CONTINUOUS
10
1.99592
20
-9.94812
11
1.99592
21
-10.0662
0
LINE
8
BLACK
6
CONTINUOUS
10
1.99592
20
-9.95374
11
2.00717
21
-9.94812
0
LINE
8
BLACK
6
CONTINUOUS
10
2.00717
20
-9.94812
11
2.02967
21
-9.94812
0
LINE
8
BLACK
6
CONTINUOUS
10
2.02967
20
-9.94812
11
2.04092
21
-9.95374
0
LINE
8
BLACK
6
CONTINUOUS
10
2.04092
20
-9.95374
11
2.04654
21
-9.95936
0
LINE
8
BLACK
6
CONTINUOUS
10
2.04654
20
-9.95936
11
2.05217
21
-9.97061
0
LINE
8
BLACK
6
CONTINUOUS
10
2.05217
20
-9.97061
11
2.05217
21
-10.0044
0
LINE
8
BLACK
6
CONTINUOUS
10
2.05217
20
-10.0044
11
2.04654
21
-10.0156
0
LINE
8
BLACK
6
CONTINUOUS
10
2.04654
20
-10.0156
11
2.04092
21
-10.0212
0
LINE
8
BLACK
6
CONTINUOUS
10
2.04092
20
-10.0212
11
2.02967
21
-10.0269
0
LINE
8
BLACK
6
CONTINUOUS
10
2.02967
20
-10.0269
11
2.00717
21
-10.0269
0
LINE
8
BLACK
6
CONTINUOUS
10
2.00717
20
-10.0269
11
1.99592
21
-10.0212
0
LINE
8
BLACK
6
CONTINUOUS
10
2.10278
20
-10.0156
11
2.10841
21
-10.0212
0
LINE
8
BLACK
6
CONTINUOUS
10
2.10841
20
-10.0212
11
2.10278
21
-10.0269
0
LINE
8
BLACK
6
CONTINUOUS
10
2.10278
20
-10.0269
11
2.09716
21
-10.0212
0
LINE
8
BLACK
6
CONTINUOUS
10
2.09716
20
-10.0212
11
2.10278
21
-10.0156
0
LINE
8
BLACK
6
CONTINUOUS
10
2.10278
20
-10.0156
11
2.10278
21
-10.0269
0
LINE
8
BLACK
6
CONTINUOUS
10
2.10278
20
-9.95374
11
2.10841
21
-9.95936
0
LINE
8
BLACK
6
CONTINUOUS
10
2.10841
20
-9.95936
11
2.10278
21
-9.96499
0
LINE
8
BLACK
6
CONTINUOUS
10
2.10278
20
-9.96499
11
2.09716
21
-9.95936
0
LINE
8
BLACK
6
CONTINUOUS
10
2.09716
20
-9.95936
11
2.10278
21
-9.95374
0
LINE
8
BLACK
6
CONTINUOUS
10
2.10278
20
-9.95374
11
2.10278
21
-9.96499
  0
ENDSEC
  0
EOF
