%TF.GenerationSoftware,KiCad,Pcbnew,(5.1.10-1-10_14)*%
%TF.CreationDate,2022-02-21T18:02:18+11:00*%
%TF.ProjectId,Video terminal ,56696465-6f20-4746-9572-6d696e616c20,rev?*%
%TF.SameCoordinates,Original*%
%TF.FileFunction,Copper,L1,Top*%
%TF.FilePolarity,Positive*%
%FSLAX46Y46*%
G04 Gerber Fmt 4.6, Leading zero omitted, Abs format (unit mm)*
G04 Created by KiCad (PCBNEW (5.1.10-1-10_14)) date 2022-02-21 18:02:18*
%MOMM*%
%LPD*%
G01*
G04 APERTURE LIST*
%TA.AperFunction,ComponentPad*%
%ADD10O,1.700000X1.950000*%
%TD*%
%TA.AperFunction,ComponentPad*%
%ADD11C,1.800000*%
%TD*%
%TA.AperFunction,ComponentPad*%
%ADD12R,1.800000X1.800000*%
%TD*%
%TA.AperFunction,ComponentPad*%
%ADD13O,1.700000X1.700000*%
%TD*%
%TA.AperFunction,ComponentPad*%
%ADD14R,1.700000X1.700000*%
%TD*%
%TA.AperFunction,ComponentPad*%
%ADD15O,2.200000X2.200000*%
%TD*%
%TA.AperFunction,ComponentPad*%
%ADD16R,2.200000X2.200000*%
%TD*%
%TA.AperFunction,ComponentPad*%
%ADD17O,2.400000X2.400000*%
%TD*%
%TA.AperFunction,ComponentPad*%
%ADD18R,2.400000X2.400000*%
%TD*%
%TA.AperFunction,ComponentPad*%
%ADD19R,1.500000X1.500000*%
%TD*%
%TA.AperFunction,ComponentPad*%
%ADD20C,1.500000*%
%TD*%
%TA.AperFunction,ComponentPad*%
%ADD21O,2.500000X1.600000*%
%TD*%
%TA.AperFunction,ComponentPad*%
%ADD22O,7.000000X3.500000*%
%TD*%
%TA.AperFunction,ComponentPad*%
%ADD23O,1.600000X1.600000*%
%TD*%
%TA.AperFunction,ComponentPad*%
%ADD24C,1.600000*%
%TD*%
%TA.AperFunction,ComponentPad*%
%ADD25C,4.000000*%
%TD*%
%TA.AperFunction,ComponentPad*%
%ADD26R,1.600000X1.600000*%
%TD*%
%TA.AperFunction,ComponentPad*%
%ADD27C,0.800000*%
%TD*%
%TA.AperFunction,ComponentPad*%
%ADD28C,6.400000*%
%TD*%
%TA.AperFunction,ComponentPad*%
%ADD29C,3.000000*%
%TD*%
%TA.AperFunction,ComponentPad*%
%ADD30C,1.524000*%
%TD*%
%TA.AperFunction,ViaPad*%
%ADD31C,1.200000*%
%TD*%
%TA.AperFunction,Conductor*%
%ADD32C,0.500000*%
%TD*%
%TA.AperFunction,Conductor*%
%ADD33C,1.000000*%
%TD*%
%TA.AperFunction,Conductor*%
%ADD34C,1.500000*%
%TD*%
G04 APERTURE END LIST*
D10*
%TO.P,J11,6*%
%TO.N,Net-(D2-Pad2)*%
X68145000Y-34290000D03*
%TO.P,J11,5*%
%TO.N,rst*%
X70645000Y-34290000D03*
%TO.P,J11,4*%
%TO.N,flag*%
X73145000Y-34290000D03*
%TO.P,J11,3*%
%TO.N,GND*%
X75645000Y-34290000D03*
%TO.P,J11,2*%
%TO.N,data*%
X78145000Y-34290000D03*
%TO.P,J11,1*%
%TO.N,clock*%
%TA.AperFunction,ComponentPad*%
G36*
G01*
X81495000Y-33565000D02*
X81495000Y-35015000D01*
G75*
G02*
X81245000Y-35265000I-250000J0D01*
G01*
X80045000Y-35265000D01*
G75*
G02*
X79795000Y-35015000I0J250000D01*
G01*
X79795000Y-33565000D01*
G75*
G02*
X80045000Y-33315000I250000J0D01*
G01*
X81245000Y-33315000D01*
G75*
G02*
X81495000Y-33565000I0J-250000D01*
G01*
G37*
%TD.AperFunction*%
%TD*%
%TO.P,J10,6*%
%TO.N,Net-(D2-Pad2)*%
X68145000Y-116840000D03*
%TO.P,J10,5*%
%TO.N,I_rst*%
X70645000Y-116840000D03*
%TO.P,J10,4*%
%TO.N,I_flag*%
X73145000Y-116840000D03*
%TO.P,J10,3*%
%TO.N,GND*%
X75645000Y-116840000D03*
%TO.P,J10,2*%
%TO.N,I_data*%
X78145000Y-116840000D03*
%TO.P,J10,1*%
%TO.N,I_clock*%
%TA.AperFunction,ComponentPad*%
G36*
G01*
X81495000Y-116115000D02*
X81495000Y-117565000D01*
G75*
G02*
X81245000Y-117815000I-250000J0D01*
G01*
X80045000Y-117815000D01*
G75*
G02*
X79795000Y-117565000I0J250000D01*
G01*
X79795000Y-116115000D01*
G75*
G02*
X80045000Y-115865000I250000J0D01*
G01*
X81245000Y-115865000D01*
G75*
G02*
X81495000Y-116115000I0J-250000D01*
G01*
G37*
%TD.AperFunction*%
%TD*%
D11*
%TO.P,D1,2*%
%TO.N,+3V3*%
X143000000Y-83820000D03*
D12*
%TO.P,D1,1*%
%TO.N,Net-(D1-Pad1)*%
X143000000Y-86360000D03*
%TD*%
D13*
%TO.P,J13,6*%
%TO.N,/BLUE*%
X132080000Y-45720000D03*
%TO.P,J13,5*%
%TO.N,Net-(J13-Pad1)*%
X129540000Y-45720000D03*
%TO.P,J13,4*%
%TO.N,/GREEN*%
X132080000Y-43180000D03*
%TO.P,J13,3*%
%TO.N,Net-(J13-Pad1)*%
X129540000Y-43180000D03*
%TO.P,J13,2*%
%TO.N,/RED*%
X132080000Y-40640000D03*
D14*
%TO.P,J13,1*%
%TO.N,Net-(J13-Pad1)*%
X129540000Y-40640000D03*
%TD*%
D13*
%TO.P,J12,6*%
%TO.N,GND*%
X73660000Y-69850000D03*
%TO.P,J12,5*%
%TO.N,C*%
X76200000Y-69850000D03*
%TO.P,J12,4*%
%TO.N,GND*%
X73660000Y-72390000D03*
%TO.P,J12,3*%
%TO.N,B*%
X76200000Y-72390000D03*
%TO.P,J12,2*%
%TO.N,GND*%
X73660000Y-74930000D03*
D14*
%TO.P,J12,1*%
%TO.N,A*%
X76200000Y-74930000D03*
%TD*%
D15*
%TO.P,D2,2*%
%TO.N,Net-(D2-Pad2)*%
X67945000Y-123825000D03*
D16*
%TO.P,D2,1*%
%TO.N,+5V*%
X57785000Y-123825000D03*
%TD*%
D17*
%TO.P,C9,2*%
%TO.N,GND*%
X53340000Y-91855000D03*
D18*
%TO.P,C9,1*%
%TO.N,+3V3*%
X53340000Y-109855000D03*
%TD*%
D17*
%TO.P,C8,2*%
%TO.N,GND*%
X39370000Y-91855000D03*
D18*
%TO.P,C8,1*%
%TO.N,+5V*%
X39370000Y-109855000D03*
%TD*%
D17*
%TO.P,C7,2*%
%TO.N,GND*%
X60325000Y-91855000D03*
D18*
%TO.P,C7,1*%
%TO.N,+3V3*%
X60325000Y-109855000D03*
%TD*%
D17*
%TO.P,C6,2*%
%TO.N,GND*%
X46355000Y-91855000D03*
D18*
%TO.P,C6,1*%
%TO.N,+5V*%
X46355000Y-109855000D03*
%TD*%
D19*
%TO.P,U2,1*%
%TO.N,GND*%
X52705000Y-118745000D03*
D20*
%TO.P,U2,3*%
%TO.N,+5V*%
X57785000Y-118745000D03*
%TO.P,U2,2*%
%TO.N,+3V3*%
X55245000Y-118745000D03*
%TD*%
D21*
%TO.P,J2,2*%
%TO.N,GND*%
X142240000Y-67945000D03*
%TO.P,J2,1*%
%TO.N,Net-(J2-Pad1)*%
X142240000Y-70485000D03*
D22*
%TO.P,J2,2*%
%TO.N,GND*%
X147320000Y-75565000D03*
X147320000Y-65405000D03*
%TD*%
D23*
%TO.P,R5,2*%
%TO.N,H_SYNC*%
X121285000Y-63500000D03*
D24*
%TO.P,R5,1*%
%TO.N,Net-(J2-Pad1)*%
X131445000Y-63500000D03*
%TD*%
D13*
%TO.P,J9,4*%
%TO.N,rst*%
X75380000Y-25000000D03*
%TO.P,J9,3*%
%TO.N,flag*%
X77920000Y-25000000D03*
%TO.P,J9,2*%
%TO.N,data*%
X80460000Y-25000000D03*
D14*
%TO.P,J9,1*%
%TO.N,clock*%
X83000000Y-25000000D03*
%TD*%
D23*
%TO.P,R10,2*%
%TO.N,Net-(D1-Pad1)*%
X129540000Y-95250000D03*
D24*
%TO.P,R10,1*%
%TO.N,Net-(JP8-Pad1)*%
X119380000Y-95250000D03*
%TD*%
D23*
%TO.P,R9,2*%
%TO.N,Net-(J8-Pad1)*%
X129540000Y-99060000D03*
D24*
%TO.P,R9,1*%
%TO.N,VBUS*%
X119380000Y-99060000D03*
%TD*%
D13*
%TO.P,JP8,2*%
%TO.N,GND*%
X102870000Y-96520000D03*
D14*
%TO.P,JP8,1*%
%TO.N,Net-(JP8-Pad1)*%
X102870000Y-93980000D03*
%TD*%
D13*
%TO.P,JP7,2*%
%TO.N,Net-(J8-Pad1)*%
X127000000Y-119380000D03*
D14*
%TO.P,JP7,1*%
%TO.N,+5V*%
X127000000Y-121920000D03*
%TD*%
D25*
%TO.P,J8,5*%
%TO.N,GND*%
X144860000Y-94310000D03*
X144860000Y-106310000D03*
D24*
%TO.P,J8,4*%
X142000000Y-99060000D03*
%TO.P,J8,3*%
%TO.N,D+*%
X142000000Y-101560000D03*
%TO.P,J8,2*%
%TO.N,D-*%
X140000000Y-101560000D03*
D26*
%TO.P,J8,1*%
%TO.N,Net-(J8-Pad1)*%
X140000000Y-99060000D03*
%TD*%
D24*
%TO.P,C5,2*%
%TO.N,GND*%
X114380000Y-58420000D03*
%TO.P,C5,1*%
%TO.N,+3V3*%
X119380000Y-58420000D03*
%TD*%
%TO.P,C4,2*%
%TO.N,GND*%
X118000000Y-78700000D03*
D26*
%TO.P,C4,1*%
%TO.N,Net-(C4-Pad1)*%
X118000000Y-76200000D03*
%TD*%
D24*
%TO.P,C3,2*%
%TO.N,GND*%
X94695000Y-86360000D03*
%TO.P,C3,1*%
%TO.N,+3V3*%
X99695000Y-86360000D03*
%TD*%
D13*
%TO.P,J7,4*%
%TO.N,I_rst*%
X75380000Y-128000000D03*
%TO.P,J7,3*%
%TO.N,I_flag*%
X77920000Y-128000000D03*
%TO.P,J7,2*%
%TO.N,I_data*%
X80460000Y-128000000D03*
D14*
%TO.P,J7,1*%
%TO.N,I_clock*%
X83000000Y-128000000D03*
%TD*%
D13*
%TO.P,J6,4*%
%TO.N,+5V*%
X57620000Y-128000000D03*
%TO.P,J6,3*%
X55080000Y-128000000D03*
%TO.P,J6,2*%
%TO.N,GND*%
X52540000Y-128000000D03*
D14*
%TO.P,J6,1*%
X50000000Y-128000000D03*
%TD*%
D13*
%TO.P,J5,4*%
%TO.N,Net-(J5-Pad4)*%
X150000000Y-89620000D03*
%TO.P,J5,3*%
%TO.N,GND*%
X150000000Y-87080000D03*
%TO.P,J5,2*%
X150000000Y-84540000D03*
D14*
%TO.P,J5,1*%
%TO.N,TX*%
X150000000Y-82000000D03*
%TD*%
D27*
%TO.P,H4,1*%
%TO.N,GND*%
X151697056Y-23302944D03*
X150000000Y-22600000D03*
X148302944Y-23302944D03*
X147600000Y-25000000D03*
X148302944Y-26697056D03*
X150000000Y-27400000D03*
X151697056Y-26697056D03*
X152400000Y-25000000D03*
D28*
X150000000Y-25000000D03*
%TD*%
D27*
%TO.P,H3,1*%
%TO.N,GND*%
X36697056Y-126302944D03*
X35000000Y-125600000D03*
X33302944Y-126302944D03*
X32600000Y-128000000D03*
X33302944Y-129697056D03*
X35000000Y-130400000D03*
X36697056Y-129697056D03*
X37400000Y-128000000D03*
D28*
X35000000Y-128000000D03*
%TD*%
D27*
%TO.P,H2,1*%
%TO.N,GND*%
X36697056Y-23302944D03*
X35000000Y-22600000D03*
X33302944Y-23302944D03*
X32600000Y-25000000D03*
X33302944Y-26697056D03*
X35000000Y-27400000D03*
X36697056Y-26697056D03*
X37400000Y-25000000D03*
D28*
X35000000Y-25000000D03*
%TD*%
D27*
%TO.P,H1,1*%
%TO.N,GND*%
X151697056Y-126302944D03*
X150000000Y-125600000D03*
X148302944Y-126302944D03*
X147600000Y-128000000D03*
X148302944Y-129697056D03*
X150000000Y-130400000D03*
X151697056Y-129697056D03*
X152400000Y-128000000D03*
D28*
X150000000Y-128000000D03*
%TD*%
D20*
%TO.P,Y1,2*%
%TO.N,Net-(C2-Pad1)*%
X86560000Y-80645000D03*
%TO.P,Y1,1*%
%TO.N,Net-(C1-Pad1)*%
X91440000Y-80645000D03*
%TD*%
D23*
%TO.P,R8,2*%
%TO.N,Net-(J5-Pad4)*%
X131445000Y-66675000D03*
D24*
%TO.P,R8,1*%
%TO.N,RX*%
X121285000Y-66675000D03*
%TD*%
D23*
%TO.P,R7,2*%
%TO.N,+3V3*%
X138430000Y-83820000D03*
D24*
%TO.P,R7,1*%
%TO.N,Net-(J5-Pad4)*%
X128270000Y-83820000D03*
%TD*%
D23*
%TO.P,R2,2*%
%TO.N,+5V*%
X133350000Y-123825000D03*
D24*
%TO.P,R2,1*%
%TO.N,DATA*%
X133350000Y-113665000D03*
%TD*%
%TO.P,C2,2*%
%TO.N,GND*%
X81360000Y-76200000D03*
%TO.P,C2,1*%
%TO.N,Net-(C2-Pad1)*%
X86360000Y-76200000D03*
%TD*%
%TO.P,C1,2*%
%TO.N,GND*%
X96440000Y-76200000D03*
%TO.P,C1,1*%
%TO.N,Net-(C1-Pad1)*%
X91440000Y-76200000D03*
%TD*%
D23*
%TO.P,R6,2*%
%TO.N,+3V3*%
X111760000Y-49530000D03*
D24*
%TO.P,R6,1*%
%TO.N,~MCLR*%
X101600000Y-49530000D03*
%TD*%
D13*
%TO.P,J3,6*%
%TO.N,Net-(J3-Pad6)*%
X68580000Y-63500000D03*
%TO.P,J3,5*%
%TO.N,C*%
X68580000Y-60960000D03*
%TO.P,J3,4*%
%TO.N,PGD*%
X68580000Y-58420000D03*
%TO.P,J3,3*%
%TO.N,GND*%
X68580000Y-55880000D03*
%TO.P,J3,2*%
%TO.N,+3V3*%
X68580000Y-53340000D03*
D14*
%TO.P,J3,1*%
%TO.N,~MCLR*%
X68580000Y-50800000D03*
%TD*%
D23*
%TO.P,U1,28*%
%TO.N,+3V3*%
X110620000Y-55880000D03*
%TO.P,U1,14*%
%TO.N,Net-(JP8-Pad1)*%
X103000000Y-88900000D03*
%TO.P,U1,27*%
%TO.N,GND*%
X110620000Y-58420000D03*
%TO.P,U1,13*%
%TO.N,+3V3*%
X103000000Y-86360000D03*
%TO.P,U1,26*%
%TO.N,Net-(U1-Pad26)*%
X110620000Y-60960000D03*
%TO.P,U1,12*%
%TO.N,VIDEO*%
X103000000Y-83820000D03*
%TO.P,U1,25*%
%TO.N,H_SYNC*%
X110620000Y-63500000D03*
%TO.P,U1,11*%
%TO.N,A*%
X103000000Y-81280000D03*
%TO.P,U1,24*%
%TO.N,V_SYNC*%
X110620000Y-66040000D03*
%TO.P,U1,10*%
%TO.N,Net-(C2-Pad1)*%
X103000000Y-78740000D03*
%TO.P,U1,23*%
%TO.N,+3V3*%
X110620000Y-68580000D03*
%TO.P,U1,9*%
%TO.N,Net-(C1-Pad1)*%
X103000000Y-76200000D03*
%TO.P,U1,22*%
%TO.N,D+*%
X110620000Y-71120000D03*
%TO.P,U1,8*%
%TO.N,GND*%
X103000000Y-73660000D03*
%TO.P,U1,21*%
%TO.N,D-*%
X110620000Y-73660000D03*
%TO.P,U1,7*%
%TO.N,B*%
X103000000Y-71120000D03*
%TO.P,U1,20*%
%TO.N,Net-(C4-Pad1)*%
X110620000Y-76200000D03*
%TO.P,U1,6*%
%TO.N,C_VIDEO*%
X103000000Y-68580000D03*
%TO.P,U1,19*%
%TO.N,GND*%
X110620000Y-78740000D03*
%TO.P,U1,5*%
%TO.N,RX*%
X103000000Y-66040000D03*
%TO.P,U1,18*%
%TO.N,H_SYNC*%
X110620000Y-81280000D03*
%TO.P,U1,4*%
%TO.N,TX*%
X103000000Y-63500000D03*
%TO.P,U1,17*%
%TO.N,CLOCK*%
X110620000Y-83820000D03*
%TO.P,U1,3*%
%TO.N,C*%
X103000000Y-60960000D03*
%TO.P,U1,16*%
%TO.N,DATA*%
X110620000Y-86360000D03*
%TO.P,U1,2*%
%TO.N,PGD*%
X103000000Y-58420000D03*
%TO.P,U1,15*%
%TO.N,VBUS*%
X110620000Y-88900000D03*
D26*
%TO.P,U1,1*%
%TO.N,~MCLR*%
X103000000Y-55880000D03*
%TD*%
D23*
%TO.P,R4,2*%
%TO.N,C_VIDEO*%
X121285000Y-70000000D03*
D24*
%TO.P,R4,1*%
%TO.N,Net-(J2-Pad1)*%
X131445000Y-70000000D03*
%TD*%
D23*
%TO.P,R3,2*%
%TO.N,VIDEO*%
X115840000Y-45720000D03*
D24*
%TO.P,R3,1*%
%TO.N,Net-(J13-Pad1)*%
X126000000Y-45720000D03*
%TD*%
D23*
%TO.P,R1,2*%
%TO.N,+5V*%
X136525000Y-123825000D03*
D24*
%TO.P,R1,1*%
%TO.N,CLOCK*%
X136525000Y-113665000D03*
%TD*%
D29*
%TO.P,J4,0*%
%TO.N,N/C*%
X149800000Y-117000000D03*
D30*
%TO.P,J4,5*%
%TO.N,CLOCK*%
X143500000Y-113600000D03*
%TO.P,J4,6*%
%TO.N,Net-(J4-Pad6)*%
X143500000Y-120400000D03*
%TO.P,J4,4*%
%TO.N,+5V*%
X146000000Y-120400000D03*
%TO.P,J4,3*%
%TO.N,GND*%
X146000000Y-113600000D03*
%TO.P,J4,1*%
%TO.N,DATA*%
X146000000Y-115700000D03*
%TO.P,J4,2*%
%TO.N,Net-(J4-Pad2)*%
X146000000Y-118300000D03*
%TD*%
D25*
%TO.P,J1,0*%
%TO.N,N/C*%
X143940000Y-32455000D03*
X143940000Y-57455000D03*
D24*
%TO.P,J1,15*%
%TO.N,Net-(J1-Pad15)*%
X146480000Y-49800000D03*
%TO.P,J1,14*%
%TO.N,V_SYNC*%
X146480000Y-47510000D03*
%TO.P,J1,13*%
%TO.N,H_SYNC*%
X146480000Y-45220000D03*
%TO.P,J1,12*%
%TO.N,Net-(J1-Pad12)*%
X146480000Y-42930000D03*
%TO.P,J1,11*%
%TO.N,Net-(J1-Pad11)*%
X146480000Y-40640000D03*
%TO.P,J1,10*%
%TO.N,GND*%
X144500000Y-48655000D03*
%TO.P,J1,9*%
%TO.N,Net-(J1-Pad9)*%
X144500000Y-46365000D03*
%TO.P,J1,8*%
%TO.N,GND*%
X144500000Y-44075000D03*
%TO.P,J1,7*%
X144500000Y-41785000D03*
%TO.P,J1,6*%
X144500000Y-39495000D03*
%TO.P,J1,5*%
X142520000Y-49800000D03*
%TO.P,J1,4*%
%TO.N,Net-(J1-Pad4)*%
X142520000Y-47510000D03*
%TO.P,J1,3*%
%TO.N,/BLUE*%
X142520000Y-45220000D03*
%TO.P,J1,2*%
%TO.N,/GREEN*%
X142520000Y-42930000D03*
D26*
%TO.P,J1,1*%
%TO.N,/RED*%
X142520000Y-40640000D03*
%TD*%
D31*
%TO.N,H_SYNC*%
X130175000Y-60325000D03*
X137160000Y-88265000D03*
X120650000Y-81280000D03*
%TD*%
D32*
%TO.N,V_SYNC*%
X111419999Y-65240001D02*
X131609999Y-65240001D01*
X110620000Y-66040000D02*
X111419999Y-65240001D01*
X131609999Y-65240001D02*
X143510000Y-53340000D01*
X143510000Y-53340000D02*
X146685000Y-53340000D01*
X146685000Y-53340000D02*
X148590000Y-51435000D01*
X148590000Y-51435000D02*
X148590000Y-48260000D01*
X147840000Y-47510000D02*
X146480000Y-47510000D01*
X148590000Y-48260000D02*
X147840000Y-47510000D01*
%TO.N,H_SYNC*%
X127000000Y-63500000D02*
X121285000Y-63500000D01*
X130175000Y-60325000D02*
X127000000Y-63500000D01*
X127635000Y-88265000D02*
X120650000Y-81280000D01*
X137160000Y-88265000D02*
X127635000Y-88265000D01*
D33*
%TO.N,GND*%
X81360000Y-76200000D02*
X81360000Y-78660000D01*
X81360000Y-78660000D02*
X80010000Y-80010000D01*
X80010000Y-80010000D02*
X75565000Y-80010000D01*
X75565000Y-80010000D02*
X73660000Y-78105000D01*
X92075000Y-96520000D02*
X73660000Y-78105000D01*
X102870000Y-96520000D02*
X92075000Y-96520000D01*
X73660000Y-78105000D02*
X73660000Y-74930000D01*
D32*
%TO.N,VIDEO*%
X103000000Y-83820000D02*
X104140000Y-83820000D01*
X104140000Y-83820000D02*
X105410000Y-82550000D01*
X105410000Y-82550000D02*
X105410000Y-52070000D01*
X111760000Y-45720000D02*
X115840000Y-45720000D01*
X105410000Y-52070000D02*
X111760000Y-45720000D01*
D33*
%TO.N,+3V3*%
X103000000Y-86360000D02*
X104775000Y-86360000D01*
X104775000Y-86360000D02*
X107315000Y-83820000D01*
X107315000Y-83820000D02*
X107315000Y-69215000D01*
X107950000Y-68580000D02*
X110620000Y-68580000D01*
X107315000Y-69215000D02*
X107950000Y-68580000D01*
X110620000Y-68580000D02*
X114300000Y-68580000D01*
X114300000Y-68580000D02*
X127635000Y-81915000D01*
X136525000Y-81915000D02*
X138430000Y-83820000D01*
X127635000Y-81915000D02*
X136525000Y-81915000D01*
X138430000Y-83820000D02*
X143000000Y-83820000D01*
X110620000Y-55880000D02*
X107950000Y-55880000D01*
X107315000Y-56515000D02*
X107315000Y-69215000D01*
X107950000Y-55880000D02*
X107315000Y-56515000D01*
D32*
%TO.N,Net-(J8-Pad1)*%
X127000000Y-101600000D02*
X129540000Y-99060000D01*
X127000000Y-119380000D02*
X127000000Y-101600000D01*
D34*
%TO.N,I_rst*%
X70485000Y-116840000D02*
X70700000Y-116625000D01*
%TO.N,Net-(D2-Pad2)*%
X67945000Y-123825000D02*
X67945000Y-120455000D01*
X68145000Y-120255000D02*
X68145000Y-116840000D01*
X67945000Y-120455000D02*
X68145000Y-120255000D01*
X68145000Y-34290000D02*
X68145000Y-40245000D01*
X68145000Y-40245000D02*
X63655000Y-44735000D01*
X63655000Y-44735000D02*
X63655000Y-80930000D01*
X68145000Y-85420000D02*
X68145000Y-116840000D01*
X63655000Y-80930000D02*
X68145000Y-85420000D01*
%TD*%
M02*
