M48
; DRILL file {KiCad (5.1.10-1-10_14)} date Monday, February 21, 2022 at 06:02:21 PM
; FORMAT={-:-/ absolute / inch / decimal}
; #@! TF.CreationDate,2022-02-21T18:02:21+11:00
; #@! TF.GenerationSoftware,Kicad,Pcbnew,(5.1.10-1-10_14)
; #@! TF.FileFunction,Plated,1,2,PTH
FMAT,2
INCH
T1C0.0197
T2C0.0276
T3C0.0315
T4C0.0350
T5C0.0354
T6C0.0374
T7C0.0394
T8C0.0433
T9C0.0472
T10C0.0791
T11C0.0866
T12C0.0906
T13C0.1260
%
G90
G05
T1
X1.2835Y-0.9843
X1.2835Y-5.0394
X1.3111Y-0.9174
X1.3111Y-1.0511
X1.3111Y-4.9726
X1.3111Y-5.1062
X1.378Y-0.8898
X1.378Y-1.0787
X1.378Y-4.9449
X1.378Y-5.1339
X1.4448Y-0.9174
X1.4448Y-1.0511
X1.4448Y-4.9726
X1.4448Y-5.1062
X1.4724Y-0.9843
X1.4724Y-5.0394
X5.811Y-0.9843
X5.811Y-5.0394
X5.8387Y-0.9174
X5.8387Y-1.0511
X5.8387Y-4.9726
X5.8387Y-5.1062
X5.9055Y-0.8898
X5.9055Y-1.0787
X5.9055Y-4.9449
X5.9055Y-5.1339
X5.9723Y-0.9174
X5.9723Y-1.0511
X5.9723Y-4.9726
X5.9723Y-5.1062
X6.0Y-0.9843
X6.0Y-5.0394
T2
X4.75Y-3.2
X5.125Y-2.375
X5.4Y-3.475
T3
X2.075Y-4.675
X2.175Y-4.675
X2.275Y-4.675
X3.2031Y-3.0
X3.4Y-3.0
X3.4079Y-3.175
X3.6Y-3.0
X3.6Y-3.175
X3.7281Y-3.4
X3.7969Y-3.0
X3.925Y-3.4
X4.0Y-1.95
X4.0551Y-2.2
X4.0551Y-2.3
X4.0551Y-2.4
X4.0551Y-2.5
X4.0551Y-2.6
X4.0551Y-2.7
X4.0551Y-2.8
X4.0551Y-2.9
X4.0551Y-3.0
X4.0551Y-3.1
X4.0551Y-3.2
X4.0551Y-3.3
X4.0551Y-3.4
X4.0551Y-3.5
X4.3551Y-2.2
X4.3551Y-2.3
X4.3551Y-2.4
X4.3551Y-2.5
X4.3551Y-2.6
X4.3551Y-2.7
X4.3551Y-2.8
X4.3551Y-2.9
X4.3551Y-3.0
X4.3551Y-3.1
X4.3551Y-3.2
X4.3551Y-3.3
X4.3551Y-3.4
X4.3551Y-3.5
X4.4Y-1.95
X4.5031Y-2.3
X4.5606Y-1.8
X4.6457Y-3.0
X4.6457Y-3.0984
X4.7Y-2.3
X4.7Y-3.75
X4.7Y-3.9
X4.775Y-2.5
X4.775Y-2.625
X4.775Y-2.7559
X4.9606Y-1.8
X5.05Y-3.3
X5.1Y-3.75
X5.1Y-3.9
X5.175Y-2.5
X5.175Y-2.625
X5.175Y-2.7559
X5.25Y-4.475
X5.25Y-4.875
X5.375Y-4.475
X5.375Y-4.875
X5.45Y-3.3
T4
X5.6Y-2.675
X5.6Y-2.775
T5
X5.6299Y-3.3
X5.6299Y-3.4
X5.6496Y-4.4724
X5.6496Y-4.7402
X5.748Y-4.4724
X5.748Y-4.5551
X5.748Y-4.6575
X5.748Y-4.7402
T6
X2.6829Y-1.35
X2.6829Y-4.6
X2.7813Y-1.35
X2.7813Y-4.6
X2.8797Y-1.35
X2.8797Y-4.6
X2.9781Y-1.35
X2.9781Y-4.6
X3.0766Y-1.35
X3.0766Y-4.6
X3.175Y-1.35
X3.175Y-4.6
X5.5118Y-3.9
X5.5118Y-3.9984
X5.5906Y-3.9
X5.5906Y-3.9984
T7
X1.9685Y-5.0394
X2.0685Y-5.0394
X2.1685Y-5.0394
X2.2685Y-5.0394
X2.7Y-2.0
X2.7Y-2.1
X2.7Y-2.2
X2.7Y-2.3
X2.7Y-2.4
X2.7Y-2.5
X2.9Y-2.75
X2.9Y-2.85
X2.9Y-2.95
X2.9677Y-0.9843
X2.9677Y-5.0394
X3.0Y-2.75
X3.0Y-2.85
X3.0Y-2.95
X3.0677Y-0.9843
X3.0677Y-5.0394
X3.1677Y-0.9843
X3.1677Y-5.0394
X3.2677Y-0.9843
X3.2677Y-5.0394
X4.05Y-3.7
X4.05Y-3.8
X5.0Y-4.7
X5.0Y-4.8
X5.1Y-1.6
X5.1Y-1.7
X5.1Y-1.8
X5.2Y-1.6
X5.2Y-1.7
X5.2Y-1.8
X5.611Y-1.6
X5.611Y-1.6902
X5.611Y-1.7803
X5.611Y-1.8705
X5.611Y-1.9606
X5.689Y-1.5549
X5.689Y-1.6451
X5.689Y-1.7352
X5.689Y-1.8254
X5.689Y-1.9156
X5.7669Y-1.6
X5.7669Y-1.6902
X5.7669Y-1.7803
X5.7669Y-1.8705
X5.7669Y-1.9606
X5.9055Y-3.2283
X5.9055Y-3.3283
X5.9055Y-3.4283
X5.9055Y-3.5283
T8
X2.275Y-4.875
X2.675Y-4.875
T9
X1.55Y-3.6163
X1.55Y-4.325
X1.825Y-3.6163
X1.825Y-4.325
X2.1Y-3.6163
X2.1Y-4.325
X2.375Y-3.6163
X2.375Y-4.325
T10
X5.8Y-2.575
X5.8Y-2.975
T11
X5.8976Y-4.6063
T12
X5.7031Y-3.713
X5.7031Y-4.1854
T13
X1.378Y-0.9843
X1.378Y-5.0394
X5.6669Y-1.2778
X5.6669Y-2.262
X5.9055Y-0.9843
X5.9055Y-5.0394
T0
M30
