  0
SECTION
  2
HEADER
  9
$ANGBASE
  50
0.0
  9
$ANGDIR
  70
1
  9
$MEASUREMENT
  70
0
  0
ENDSEC
  0
SECTION
  2
TABLES
  0
TABLE
  2
LTYPE
  70
4
  0
LTYPE
  5
40F
  2
CONTINUOUS
  70
0
  3
Solid line
  72
65
  73
0
  40
0.0
  0
LTYPE
  5
410
  2
DASHDOT
 70
0
  3
Dash Dot ____ _ ____ _
 72
65
 73
4
 40
2.0
 49
1.25
 49
-0.25
 49
0.25
 49
-0.25
  0
LTYPE
  5
411
  2
DASHED
 70
0
  3
Dashed __ __ __ __ __
 72
65
 73
2
 40
0.75
 49
0.5
 49
-0.25
  0
LTYPE
  5
43B
  2
DOTTED
 70
0
  3
Dotted .  .  .  .
 72
65
 73
2
 40
0.2
 49
0.0
 49
-0.2
  0
ENDTAB
  0
TABLE
  2
STYLE
  70
4
  0
STYLE
  2
KICAD
  70
0
  40
0
  41
1
  42
1
  50
0
  71
0
  3
isocp.shx
  0
STYLE
  2
KICADB
  70
0
  40
0
  41
1
  42
1
  50
0
  71
0
  3
isocp.shx
  0
STYLE
  2
KICADI
  70
0
  40
0
  41
1
  42
1
  50
15
  71
0
  3
isocp.shx
  0
STYLE
  2
KICADBI
  70
0
  40
0
  41
1
  42
1
  50
15
  71
0
  3
isocp.shx
  0
ENDTAB
  0
TABLE
  2
LAYER
  70
1
  0
LAYER
  2
BLACK
  70
0
  62
7
  6
CONTINUOUS
  0
ENDTAB
  0
ENDSEC
  0
SECTION
  2
ENTITIES
0
LINE
8
BLACK
6
CONTINUOUS
10
7.87402
20
-5.51181
11
2.3622
21
-5.51181
0
LINE
8
BLACK
6
CONTINUOUS
10
7.87402
20
-1.5748
11
7.87402
21
-5.51181
0
LINE
8
BLACK
6
CONTINUOUS
10
2.3622
20
-1.5748
11
7.87402
21
-1.5748
0
LINE
8
BLACK
6
CONTINUOUS
10
2.3622
20
-1.5748
11
2.3622
21
-5.51181
0
LINE
8
BLACK
6
CONTINUOUS
10
3.24803
20
-4.03543
11
3.83858
21
-4.62598
0
LINE
8
BLACK
6
CONTINUOUS
10
3.83858
20
-4.03543
11
3.24803
21
-4.62598
0
LINE
8
BLACK
6
CONTINUOUS
10
2.47399
20
-5.69615
11
2.47399
21
-5.57804
0
LINE
8
BLACK
6
CONTINUOUS
10
2.47399
20
-5.57804
11
2.50211
21
-5.57804
0
LINE
8
BLACK
6
CONTINUOUS
10
2.50211
20
-5.57804
11
2.51898
21
-5.58366
0
LINE
8
BLACK
6
CONTINUOUS
10
2.51898
20
-5.58366
11
2.53023
21
-5.59491
0
LINE
8
BLACK
6
CONTINUOUS
10
2.53023
20
-5.59491
11
2.53585
21
-5.60616
0
LINE
8
BLACK
6
CONTINUOUS
10
2.53585
20
-5.60616
11
2.54148
21
-5.62866
0
LINE
8
BLACK
6
CONTINUOUS
10
2.54148
20
-5.62866
11
2.54148
21
-5.64553
0
LINE
8
BLACK
6
CONTINUOUS
10
2.54148
20
-5.64553
11
2.53585
21
-5.66803
0
LINE
8
BLACK
6
CONTINUOUS
10
2.53585
20
-5.66803
11
2.53023
21
-5.67927
0
LINE
8
BLACK
6
CONTINUOUS
10
2.53023
20
-5.67927
11
2.51898
21
-5.69052
0
LINE
8
BLACK
6
CONTINUOUS
10
2.51898
20
-5.69052
11
2.50211
21
-5.69615
0
LINE
8
BLACK
6
CONTINUOUS
10
2.50211
20
-5.69615
11
2.47399
21
-5.69615
0
LINE
8
BLACK
6
CONTINUOUS
10
2.5921
20
-5.69615
11
2.5921
21
-5.61741
0
LINE
8
BLACK
6
CONTINUOUS
10
2.5921
20
-5.6399
11
2.59772
21
-5.62866
0
LINE
8
BLACK
6
CONTINUOUS
10
2.59772
20
-5.62866
11
2.60335
21
-5.62303
0
LINE
8
BLACK
6
CONTINUOUS
10
2.60335
20
-5.62303
11
2.6146
21
-5.61741
0
LINE
8
BLACK
6
CONTINUOUS
10
2.6146
20
-5.61741
11
2.62584
21
-5.61741
0
LINE
8
BLACK
6
CONTINUOUS
10
2.66521
20
-5.69615
11
2.66521
21
-5.61741
0
LINE
8
BLACK
6
CONTINUOUS
10
2.66521
20
-5.57804
11
2.65959
21
-5.58366
0
LINE
8
BLACK
6
CONTINUOUS
10
2.65959
20
-5.58366
11
2.66521
21
-5.58929
0
LINE
8
BLACK
6
CONTINUOUS
10
2.66521
20
-5.58929
11
2.67084
21
-5.58366
0
LINE
8
BLACK
6
CONTINUOUS
10
2.67084
20
-5.58366
11
2.66521
21
-5.57804
0
LINE
8
BLACK
6
CONTINUOUS
10
2.66521
20
-5.57804
11
2.66521
21
-5.58929
0
LINE
8
BLACK
6
CONTINUOUS
10
2.73833
20
-5.69615
11
2.72708
21
-5.69052
0
LINE
8
BLACK
6
CONTINUOUS
10
2.72708
20
-5.69052
11
2.72146
21
-5.67927
0
LINE
8
BLACK
6
CONTINUOUS
10
2.72146
20
-5.67927
11
2.72146
21
-5.57804
0
LINE
8
BLACK
6
CONTINUOUS
10
2.8002
20
-5.69615
11
2.78895
21
-5.69052
0
LINE
8
BLACK
6
CONTINUOUS
10
2.78895
20
-5.69052
11
2.78332
21
-5.67927
0
LINE
8
BLACK
6
CONTINUOUS
10
2.78332
20
-5.67927
11
2.78332
21
-5.57804
0
LINE
8
BLACK
6
CONTINUOUS
10
2.93518
20
-5.69615
11
2.93518
21
-5.57804
0
LINE
8
BLACK
6
CONTINUOUS
10
2.93518
20
-5.57804
11
2.97455
21
-5.6624
0
LINE
8
BLACK
6
CONTINUOUS
10
2.97455
20
-5.6624
11
3.01392
21
-5.57804
0
LINE
8
BLACK
6
CONTINUOUS
10
3.01392
20
-5.57804
11
3.01392
21
-5.69615
0
LINE
8
BLACK
6
CONTINUOUS
10
3.12078
20
-5.69615
11
3.12078
21
-5.63428
0
LINE
8
BLACK
6
CONTINUOUS
10
3.12078
20
-5.63428
11
3.11516
21
-5.62303
0
LINE
8
BLACK
6
CONTINUOUS
10
3.11516
20
-5.62303
11
3.10391
21
-5.61741
0
LINE
8
BLACK
6
CONTINUOUS
10
3.10391
20
-5.61741
11
3.08141
21
-5.61741
0
LINE
8
BLACK
6
CONTINUOUS
10
3.08141
20
-5.61741
11
3.07016
21
-5.62303
0
LINE
8
BLACK
6
CONTINUOUS
10
3.12078
20
-5.69052
11
3.10953
21
-5.69615
0
LINE
8
BLACK
6
CONTINUOUS
10
3.10953
20
-5.69615
11
3.08141
21
-5.69615
0
LINE
8
BLACK
6
CONTINUOUS
10
3.08141
20
-5.69615
11
3.07016
21
-5.69052
0
LINE
8
BLACK
6
CONTINUOUS
10
3.07016
20
-5.69052
11
3.06454
21
-5.67927
0
LINE
8
BLACK
6
CONTINUOUS
10
3.06454
20
-5.67927
11
3.06454
21
-5.66803
0
LINE
8
BLACK
6
CONTINUOUS
10
3.06454
20
-5.66803
11
3.07016
21
-5.65678
0
LINE
8
BLACK
6
CONTINUOUS
10
3.07016
20
-5.65678
11
3.08141
21
-5.65115
0
LINE
8
BLACK
6
CONTINUOUS
10
3.08141
20
-5.65115
11
3.10953
21
-5.65115
0
LINE
8
BLACK
6
CONTINUOUS
10
3.10953
20
-5.65115
11
3.12078
21
-5.64553
0
LINE
8
BLACK
6
CONTINUOUS
10
3.17702
20
-5.61741
11
3.17702
21
-5.73552
0
LINE
8
BLACK
6
CONTINUOUS
10
3.17702
20
-5.62303
11
3.18827
21
-5.61741
0
LINE
8
BLACK
6
CONTINUOUS
10
3.18827
20
-5.61741
11
3.21077
21
-5.61741
0
LINE
8
BLACK
6
CONTINUOUS
10
3.21077
20
-5.61741
11
3.22202
21
-5.62303
0
LINE
8
BLACK
6
CONTINUOUS
10
3.22202
20
-5.62303
11
3.22764
21
-5.62866
0
LINE
8
BLACK
6
CONTINUOUS
10
3.22764
20
-5.62866
11
3.23327
21
-5.6399
0
LINE
8
BLACK
6
CONTINUOUS
10
3.23327
20
-5.6399
11
3.23327
21
-5.67365
0
LINE
8
BLACK
6
CONTINUOUS
10
3.23327
20
-5.67365
11
3.22764
21
-5.6849
0
LINE
8
BLACK
6
CONTINUOUS
10
3.22764
20
-5.6849
11
3.22202
21
-5.69052
0
LINE
8
BLACK
6
CONTINUOUS
10
3.22202
20
-5.69052
11
3.21077
21
-5.69615
0
LINE
8
BLACK
6
CONTINUOUS
10
3.21077
20
-5.69615
11
3.18827
21
-5.69615
0
LINE
8
BLACK
6
CONTINUOUS
10
3.18827
20
-5.69615
11
3.17702
21
-5.69052
0
LINE
8
BLACK
6
CONTINUOUS
10
3.28389
20
-5.6849
11
3.28951
21
-5.69052
0
LINE
8
BLACK
6
CONTINUOUS
10
3.28951
20
-5.69052
11
3.28389
21
-5.69615
0
LINE
8
BLACK
6
CONTINUOUS
10
3.28389
20
-5.69615
11
3.27826
21
-5.69052
0
LINE
8
BLACK
6
CONTINUOUS
10
3.27826
20
-5.69052
11
3.28389
21
-5.6849
0
LINE
8
BLACK
6
CONTINUOUS
10
3.28389
20
-5.6849
11
3.28389
21
-5.69615
0
LINE
8
BLACK
6
CONTINUOUS
10
3.28389
20
-5.62303
11
3.28951
21
-5.62866
0
LINE
8
BLACK
6
CONTINUOUS
10
3.28951
20
-5.62866
11
3.28389
21
-5.63428
0
LINE
8
BLACK
6
CONTINUOUS
10
3.28389
20
-5.63428
11
3.27826
21
-5.62866
0
LINE
8
BLACK
6
CONTINUOUS
10
3.27826
20
-5.62866
11
3.28389
21
-5.62303
0
LINE
8
BLACK
6
CONTINUOUS
10
3.28389
20
-5.62303
11
3.28389
21
-5.63428
0
LINE
8
BLACK
6
CONTINUOUS
10
1.77067
20
-5.59547
11
2.36122
21
-6.18602
0
LINE
8
BLACK
6
CONTINUOUS
10
2.36122
20
-5.59547
11
1.77067
21
-6.18602
0
LINE
8
BLACK
6
CONTINUOUS
10
2.53585
20
-5.94418
11
2.46836
21
-5.94418
0
LINE
8
BLACK
6
CONTINUOUS
10
2.50211
20
-5.94418
11
2.50211
21
-5.82607
0
LINE
8
BLACK
6
CONTINUOUS
10
2.50211
20
-5.82607
11
2.49086
21
-5.84294
0
LINE
8
BLACK
6
CONTINUOUS
10
2.49086
20
-5.84294
11
2.47961
21
-5.85419
0
LINE
8
BLACK
6
CONTINUOUS
10
2.47961
20
-5.85419
11
2.46836
21
-5.85981
0
LINE
8
BLACK
6
CONTINUOUS
10
2.64272
20
-5.82607
11
2.58647
21
-5.82607
0
LINE
8
BLACK
6
CONTINUOUS
10
2.58647
20
-5.82607
11
2.58085
21
-5.88231
0
LINE
8
BLACK
6
CONTINUOUS
10
2.58085
20
-5.88231
11
2.58647
21
-5.87669
0
LINE
8
BLACK
6
CONTINUOUS
10
2.58647
20
-5.87669
11
2.59772
21
-5.87106
0
LINE
8
BLACK
6
CONTINUOUS
10
2.59772
20
-5.87106
11
2.62584
21
-5.87106
0
LINE
8
BLACK
6
CONTINUOUS
10
2.62584
20
-5.87106
11
2.63709
21
-5.87669
0
LINE
8
BLACK
6
CONTINUOUS
10
2.63709
20
-5.87669
11
2.64272
21
-5.88231
0
LINE
8
BLACK
6
CONTINUOUS
10
2.64272
20
-5.88231
11
2.64834
21
-5.89356
0
LINE
8
BLACK
6
CONTINUOUS
10
2.64834
20
-5.89356
11
2.64834
21
-5.92168
0
LINE
8
BLACK
6
CONTINUOUS
10
2.64834
20
-5.92168
11
2.64272
21
-5.93293
0
LINE
8
BLACK
6
CONTINUOUS
10
2.64272
20
-5.93293
11
2.63709
21
-5.93855
0
LINE
8
BLACK
6
CONTINUOUS
10
2.63709
20
-5.93855
11
2.62584
21
-5.94418
0
LINE
8
BLACK
6
CONTINUOUS
10
2.62584
20
-5.94418
11
2.59772
21
-5.94418
0
LINE
8
BLACK
6
CONTINUOUS
10
2.59772
20
-5.94418
11
2.58647
21
-5.93855
0
LINE
8
BLACK
6
CONTINUOUS
10
2.58647
20
-5.93855
11
2.58085
21
-5.93293
0
LINE
8
BLACK
6
CONTINUOUS
10
2.69896
20
-5.93293
11
2.70458
21
-5.93855
0
LINE
8
BLACK
6
CONTINUOUS
10
2.70458
20
-5.93855
11
2.69896
21
-5.94418
0
LINE
8
BLACK
6
CONTINUOUS
10
2.69896
20
-5.94418
11
2.69334
21
-5.93855
0
LINE
8
BLACK
6
CONTINUOUS
10
2.69334
20
-5.93855
11
2.69896
21
-5.93293
0
LINE
8
BLACK
6
CONTINUOUS
10
2.69896
20
-5.93293
11
2.69896
21
-5.94418
0
LINE
8
BLACK
6
CONTINUOUS
10
2.7777
20
-5.82607
11
2.78895
21
-5.82607
0
LINE
8
BLACK
6
CONTINUOUS
10
2.78895
20
-5.82607
11
2.8002
21
-5.83169
0
LINE
8
BLACK
6
CONTINUOUS
10
2.8002
20
-5.83169
11
2.80582
21
-5.83732
0
LINE
8
BLACK
6
CONTINUOUS
10
2.80582
20
-5.83732
11
2.81145
21
-5.84857
0
LINE
8
BLACK
6
CONTINUOUS
10
2.81145
20
-5.84857
11
2.81707
21
-5.87106
0
LINE
8
BLACK
6
CONTINUOUS
10
2.81707
20
-5.87106
11
2.81707
21
-5.89918
0
LINE
8
BLACK
6
CONTINUOUS
10
2.81707
20
-5.89918
11
2.81145
21
-5.92168
0
LINE
8
BLACK
6
CONTINUOUS
10
2.81145
20
-5.92168
11
2.80582
21
-5.93293
0
LINE
8
BLACK
6
CONTINUOUS
10
2.80582
20
-5.93293
11
2.8002
21
-5.93855
0
LINE
8
BLACK
6
CONTINUOUS
10
2.8002
20
-5.93855
11
2.78895
21
-5.94418
0
LINE
8
BLACK
6
CONTINUOUS
10
2.78895
20
-5.94418
11
2.7777
21
-5.94418
0
LINE
8
BLACK
6
CONTINUOUS
10
2.7777
20
-5.94418
11
2.76645
21
-5.93855
0
LINE
8
BLACK
6
CONTINUOUS
10
2.76645
20
-5.93855
11
2.76083
21
-5.93293
0
LINE
8
BLACK
6
CONTINUOUS
10
2.76083
20
-5.93293
11
2.7552
21
-5.92168
0
LINE
8
BLACK
6
CONTINUOUS
10
2.7552
20
-5.92168
11
2.74958
21
-5.89918
0
LINE
8
BLACK
6
CONTINUOUS
10
2.74958
20
-5.89918
11
2.74958
21
-5.87106
0
LINE
8
BLACK
6
CONTINUOUS
10
2.74958
20
-5.87106
11
2.7552
21
-5.84857
0
LINE
8
BLACK
6
CONTINUOUS
10
2.7552
20
-5.84857
11
2.76083
21
-5.83732
0
LINE
8
BLACK
6
CONTINUOUS
10
2.76083
20
-5.83732
11
2.76645
21
-5.83169
0
LINE
8
BLACK
6
CONTINUOUS
10
2.76645
20
-5.83169
11
2.7777
21
-5.82607
0
LINE
8
BLACK
6
CONTINUOUS
10
2.89019
20
-5.82607
11
2.90143
21
-5.82607
0
LINE
8
BLACK
6
CONTINUOUS
10
2.90143
20
-5.82607
11
2.91268
21
-5.83169
0
LINE
8
BLACK
6
CONTINUOUS
10
2.91268
20
-5.83169
11
2.91831
21
-5.83732
0
LINE
8
BLACK
6
CONTINUOUS
10
2.91831
20
-5.83732
11
2.92393
21
-5.84857
0
LINE
8
BLACK
6
CONTINUOUS
10
2.92393
20
-5.84857
11
2.92956
21
-5.87106
0
LINE
8
BLACK
6
CONTINUOUS
10
2.92956
20
-5.87106
11
2.92956
21
-5.89918
0
LINE
8
BLACK
6
CONTINUOUS
10
2.92956
20
-5.89918
11
2.92393
21
-5.92168
0
LINE
8
BLACK
6
CONTINUOUS
10
2.92393
20
-5.92168
11
2.91831
21
-5.93293
0
LINE
8
BLACK
6
CONTINUOUS
10
2.91831
20
-5.93293
11
2.91268
21
-5.93855
0
LINE
8
BLACK
6
CONTINUOUS
10
2.91268
20
-5.93855
11
2.90143
21
-5.94418
0
LINE
8
BLACK
6
CONTINUOUS
10
2.90143
20
-5.94418
11
2.89019
21
-5.94418
0
LINE
8
BLACK
6
CONTINUOUS
10
2.89019
20
-5.94418
11
2.87894
21
-5.93855
0
LINE
8
BLACK
6
CONTINUOUS
10
2.87894
20
-5.93855
11
2.87331
21
-5.93293
0
LINE
8
BLACK
6
CONTINUOUS
10
2.87331
20
-5.93293
11
2.86769
21
-5.92168
0
LINE
8
BLACK
6
CONTINUOUS
10
2.86769
20
-5.92168
11
2.86206
21
-5.89918
0
LINE
8
BLACK
6
CONTINUOUS
10
2.86206
20
-5.89918
11
2.86206
21
-5.87106
0
LINE
8
BLACK
6
CONTINUOUS
10
2.86206
20
-5.87106
11
2.86769
21
-5.84857
0
LINE
8
BLACK
6
CONTINUOUS
10
2.86769
20
-5.84857
11
2.87331
21
-5.83732
0
LINE
8
BLACK
6
CONTINUOUS
10
2.87331
20
-5.83732
11
2.87894
21
-5.83169
0
LINE
8
BLACK
6
CONTINUOUS
10
2.87894
20
-5.83169
11
2.89019
21
-5.82607
0
LINE
8
BLACK
6
CONTINUOUS
10
3.00267
20
-5.82607
11
3.01392
21
-5.82607
0
LINE
8
BLACK
6
CONTINUOUS
10
3.01392
20
-5.82607
11
3.02517
21
-5.83169
0
LINE
8
BLACK
6
CONTINUOUS
10
3.02517
20
-5.83169
11
3.03079
21
-5.83732
0
LINE
8
BLACK
6
CONTINUOUS
10
3.03079
20
-5.83732
11
3.03642
21
-5.84857
0
LINE
8
BLACK
6
CONTINUOUS
10
3.03642
20
-5.84857
11
3.04204
21
-5.87106
0
LINE
8
BLACK
6
CONTINUOUS
10
3.04204
20
-5.87106
11
3.04204
21
-5.89918
0
LINE
8
BLACK
6
CONTINUOUS
10
3.04204
20
-5.89918
11
3.03642
21
-5.92168
0
LINE
8
BLACK
6
CONTINUOUS
10
3.03642
20
-5.92168
11
3.03079
21
-5.93293
0
LINE
8
BLACK
6
CONTINUOUS
10
3.03079
20
-5.93293
11
3.02517
21
-5.93855
0
LINE
8
BLACK
6
CONTINUOUS
10
3.02517
20
-5.93855
11
3.01392
21
-5.94418
0
LINE
8
BLACK
6
CONTINUOUS
10
3.01392
20
-5.94418
11
3.00267
21
-5.94418
0
LINE
8
BLACK
6
CONTINUOUS
10
3.00267
20
-5.94418
11
2.99142
21
-5.93855
0
LINE
8
BLACK
6
CONTINUOUS
10
2.99142
20
-5.93855
11
2.9858
21
-5.93293
0
LINE
8
BLACK
6
CONTINUOUS
10
2.9858
20
-5.93293
11
2.98017
21
-5.92168
0
LINE
8
BLACK
6
CONTINUOUS
10
2.98017
20
-5.92168
11
2.97455
21
-5.89918
0
LINE
8
BLACK
6
CONTINUOUS
10
2.97455
20
-5.89918
11
2.97455
21
-5.87106
0
LINE
8
BLACK
6
CONTINUOUS
10
2.97455
20
-5.87106
11
2.98017
21
-5.84857
0
LINE
8
BLACK
6
CONTINUOUS
10
2.98017
20
-5.84857
11
2.9858
21
-5.83732
0
LINE
8
BLACK
6
CONTINUOUS
10
2.9858
20
-5.83732
11
2.99142
21
-5.83169
0
LINE
8
BLACK
6
CONTINUOUS
10
2.99142
20
-5.83169
11
3.00267
21
-5.82607
0
LINE
8
BLACK
6
CONTINUOUS
10
3.09266
20
-5.94418
11
3.09266
21
-5.86544
0
LINE
8
BLACK
6
CONTINUOUS
10
3.09266
20
-5.87669
11
3.09828
21
-5.87106
0
LINE
8
BLACK
6
CONTINUOUS
10
3.09828
20
-5.87106
11
3.10953
21
-5.86544
0
LINE
8
BLACK
6
CONTINUOUS
10
3.10953
20
-5.86544
11
3.12641
21
-5.86544
0
LINE
8
BLACK
6
CONTINUOUS
10
3.12641
20
-5.86544
11
3.13765
21
-5.87106
0
LINE
8
BLACK
6
CONTINUOUS
10
3.13765
20
-5.87106
11
3.14328
21
-5.88231
0
LINE
8
BLACK
6
CONTINUOUS
10
3.14328
20
-5.88231
11
3.14328
21
-5.94418
0
LINE
8
BLACK
6
CONTINUOUS
10
3.14328
20
-5.88231
11
3.1489
21
-5.87106
0
LINE
8
BLACK
6
CONTINUOUS
10
3.1489
20
-5.87106
11
3.16015
21
-5.86544
0
LINE
8
BLACK
6
CONTINUOUS
10
3.16015
20
-5.86544
11
3.17702
21
-5.86544
0
LINE
8
BLACK
6
CONTINUOUS
10
3.17702
20
-5.86544
11
3.18827
21
-5.87106
0
LINE
8
BLACK
6
CONTINUOUS
10
3.18827
20
-5.87106
11
3.1939
21
-5.88231
0
LINE
8
BLACK
6
CONTINUOUS
10
3.1939
20
-5.88231
11
3.1939
21
-5.94418
0
LINE
8
BLACK
6
CONTINUOUS
10
3.25014
20
-5.94418
11
3.25014
21
-5.86544
0
LINE
8
BLACK
6
CONTINUOUS
10
3.25014
20
-5.87669
11
3.25576
21
-5.87106
0
LINE
8
BLACK
6
CONTINUOUS
10
3.25576
20
-5.87106
11
3.26701
21
-5.86544
0
LINE
8
BLACK
6
CONTINUOUS
10
3.26701
20
-5.86544
11
3.28389
21
-5.86544
0
LINE
8
BLACK
6
CONTINUOUS
10
3.28389
20
-5.86544
11
3.29513
21
-5.87106
0
LINE
8
BLACK
6
CONTINUOUS
10
3.29513
20
-5.87106
11
3.30076
21
-5.88231
0
LINE
8
BLACK
6
CONTINUOUS
10
3.30076
20
-5.88231
11
3.30076
21
-5.94418
0
LINE
8
BLACK
6
CONTINUOUS
10
3.30076
20
-5.88231
11
3.30638
21
-5.87106
0
LINE
8
BLACK
6
CONTINUOUS
10
3.30638
20
-5.87106
11
3.31763
21
-5.86544
0
LINE
8
BLACK
6
CONTINUOUS
10
3.31763
20
-5.86544
11
3.33451
21
-5.86544
0
LINE
8
BLACK
6
CONTINUOUS
10
3.33451
20
-5.86544
11
3.34575
21
-5.87106
0
LINE
8
BLACK
6
CONTINUOUS
10
3.34575
20
-5.87106
11
3.35138
21
-5.88231
0
LINE
8
BLACK
6
CONTINUOUS
10
3.35138
20
-5.88231
11
3.35138
21
-5.94418
0
LINE
8
BLACK
6
CONTINUOUS
10
3.58197
20
-5.82044
11
3.48074
21
-5.9723
0
LINE
8
BLACK
6
CONTINUOUS
10
3.73383
20
-5.82607
11
3.74508
21
-5.82607
0
LINE
8
BLACK
6
CONTINUOUS
10
3.74508
20
-5.82607
11
3.75633
21
-5.83169
0
LINE
8
BLACK
6
CONTINUOUS
10
3.75633
20
-5.83169
11
3.76195
21
-5.83732
0
LINE
8
BLACK
6
CONTINUOUS
10
3.76195
20
-5.83732
11
3.76758
21
-5.84857
0
LINE
8
BLACK
6
CONTINUOUS
10
3.76758
20
-5.84857
11
3.7732
21
-5.87106
0
LINE
8
BLACK
6
CONTINUOUS
10
3.7732
20
-5.87106
11
3.7732
21
-5.89918
0
LINE
8
BLACK
6
CONTINUOUS
10
3.7732
20
-5.89918
11
3.76758
21
-5.92168
0
LINE
8
BLACK
6
CONTINUOUS
10
3.76758
20
-5.92168
11
3.76195
21
-5.93293
0
LINE
8
BLACK
6
CONTINUOUS
10
3.76195
20
-5.93293
11
3.75633
21
-5.93855
0
LINE
8
BLACK
6
CONTINUOUS
10
3.75633
20
-5.93855
11
3.74508
21
-5.94418
0
LINE
8
BLACK
6
CONTINUOUS
10
3.74508
20
-5.94418
11
3.73383
21
-5.94418
0
LINE
8
BLACK
6
CONTINUOUS
10
3.73383
20
-5.94418
11
3.72258
21
-5.93855
0
LINE
8
BLACK
6
CONTINUOUS
10
3.72258
20
-5.93855
11
3.71696
21
-5.93293
0
LINE
8
BLACK
6
CONTINUOUS
10
3.71696
20
-5.93293
11
3.71133
21
-5.92168
0
LINE
8
BLACK
6
CONTINUOUS
10
3.71133
20
-5.92168
11
3.70571
21
-5.89918
0
LINE
8
BLACK
6
CONTINUOUS
10
3.70571
20
-5.89918
11
3.70571
21
-5.87106
0
LINE
8
BLACK
6
CONTINUOUS
10
3.70571
20
-5.87106
11
3.71133
21
-5.84857
0
LINE
8
BLACK
6
CONTINUOUS
10
3.71133
20
-5.84857
11
3.71696
21
-5.83732
0
LINE
8
BLACK
6
CONTINUOUS
10
3.71696
20
-5.83732
11
3.72258
21
-5.83169
0
LINE
8
BLACK
6
CONTINUOUS
10
3.72258
20
-5.83169
11
3.73383
21
-5.82607
0
LINE
8
BLACK
6
CONTINUOUS
10
3.82382
20
-5.93293
11
3.82944
21
-5.93855
0
LINE
8
BLACK
6
CONTINUOUS
10
3.82944
20
-5.93855
11
3.82382
21
-5.94418
0
LINE
8
BLACK
6
CONTINUOUS
10
3.82382
20
-5.94418
11
3.81819
21
-5.93855
0
LINE
8
BLACK
6
CONTINUOUS
10
3.81819
20
-5.93855
11
3.82382
21
-5.93293
0
LINE
8
BLACK
6
CONTINUOUS
10
3.82382
20
-5.93293
11
3.82382
21
-5.94418
0
LINE
8
BLACK
6
CONTINUOUS
10
3.9363
20
-5.82607
11
3.88006
21
-5.82607
0
LINE
8
BLACK
6
CONTINUOUS
10
3.88006
20
-5.82607
11
3.87444
21
-5.88231
0
LINE
8
BLACK
6
CONTINUOUS
10
3.87444
20
-5.88231
11
3.88006
21
-5.87669
0
LINE
8
BLACK
6
CONTINUOUS
10
3.88006
20
-5.87669
11
3.89131
21
-5.87106
0
LINE
8
BLACK
6
CONTINUOUS
10
3.89131
20
-5.87106
11
3.91943
21
-5.87106
0
LINE
8
BLACK
6
CONTINUOUS
10
3.91943
20
-5.87106
11
3.93068
21
-5.87669
0
LINE
8
BLACK
6
CONTINUOUS
10
3.93068
20
-5.87669
11
3.9363
21
-5.88231
0
LINE
8
BLACK
6
CONTINUOUS
10
3.9363
20
-5.88231
11
3.94193
21
-5.89356
0
LINE
8
BLACK
6
CONTINUOUS
10
3.94193
20
-5.89356
11
3.94193
21
-5.92168
0
LINE
8
BLACK
6
CONTINUOUS
10
3.94193
20
-5.92168
11
3.9363
21
-5.93293
0
LINE
8
BLACK
6
CONTINUOUS
10
3.9363
20
-5.93293
11
3.93068
21
-5.93855
0
LINE
8
BLACK
6
CONTINUOUS
10
3.93068
20
-5.93855
11
3.91943
21
-5.94418
0
LINE
8
BLACK
6
CONTINUOUS
10
3.91943
20
-5.94418
11
3.89131
21
-5.94418
0
LINE
8
BLACK
6
CONTINUOUS
10
3.89131
20
-5.94418
11
3.88006
21
-5.93855
0
LINE
8
BLACK
6
CONTINUOUS
10
3.88006
20
-5.93855
11
3.87444
21
-5.93293
0
LINE
8
BLACK
6
CONTINUOUS
10
3.99817
20
-5.94418
11
4.02067
21
-5.94418
0
LINE
8
BLACK
6
CONTINUOUS
10
4.02067
20
-5.94418
11
4.03192
21
-5.93855
0
LINE
8
BLACK
6
CONTINUOUS
10
4.03192
20
-5.93855
11
4.03754
21
-5.93293
0
LINE
8
BLACK
6
CONTINUOUS
10
4.03754
20
-5.93293
11
4.04879
21
-5.91606
0
LINE
8
BLACK
6
CONTINUOUS
10
4.04879
20
-5.91606
11
4.05441
21
-5.89356
0
LINE
8
BLACK
6
CONTINUOUS
10
4.05441
20
-5.89356
11
4.05441
21
-5.84857
0
LINE
8
BLACK
6
CONTINUOUS
10
4.05441
20
-5.84857
11
4.04879
21
-5.83732
0
LINE
8
BLACK
6
CONTINUOUS
10
4.04879
20
-5.83732
11
4.04317
21
-5.83169
0
LINE
8
BLACK
6
CONTINUOUS
10
4.04317
20
-5.83169
11
4.03192
21
-5.82607
0
LINE
8
BLACK
6
CONTINUOUS
10
4.03192
20
-5.82607
11
4.00942
21
-5.82607
0
LINE
8
BLACK
6
CONTINUOUS
10
4.00942
20
-5.82607
11
3.99817
21
-5.83169
0
LINE
8
BLACK
6
CONTINUOUS
10
3.99817
20
-5.83169
11
3.99255
21
-5.83732
0
LINE
8
BLACK
6
CONTINUOUS
10
3.99255
20
-5.83732
11
3.98692
21
-5.84857
0
LINE
8
BLACK
6
CONTINUOUS
10
3.98692
20
-5.84857
11
3.98692
21
-5.87669
0
LINE
8
BLACK
6
CONTINUOUS
10
3.98692
20
-5.87669
11
3.99255
21
-5.88794
0
LINE
8
BLACK
6
CONTINUOUS
10
3.99255
20
-5.88794
11
3.99817
21
-5.89356
0
LINE
8
BLACK
6
CONTINUOUS
10
3.99817
20
-5.89356
11
4.00942
21
-5.89918
0
LINE
8
BLACK
6
CONTINUOUS
10
4.00942
20
-5.89918
11
4.03192
21
-5.89918
0
LINE
8
BLACK
6
CONTINUOUS
10
4.03192
20
-5.89918
11
4.04317
21
-5.89356
0
LINE
8
BLACK
6
CONTINUOUS
10
4.04317
20
-5.89356
11
4.04879
21
-5.88794
0
LINE
8
BLACK
6
CONTINUOUS
10
4.04879
20
-5.88794
11
4.05441
21
-5.87669
0
LINE
8
BLACK
6
CONTINUOUS
10
4.12753
20
-5.82607
11
4.13878
21
-5.82607
0
LINE
8
BLACK
6
CONTINUOUS
10
4.13878
20
-5.82607
11
4.15003
21
-5.83169
0
LINE
8
BLACK
6
CONTINUOUS
10
4.15003
20
-5.83169
11
4.15565
21
-5.83732
0
LINE
8
BLACK
6
CONTINUOUS
10
4.15565
20
-5.83732
11
4.16128
21
-5.84857
0
LINE
8
BLACK
6
CONTINUOUS
10
4.16128
20
-5.84857
11
4.1669
21
-5.87106
0
LINE
8
BLACK
6
CONTINUOUS
10
4.1669
20
-5.87106
11
4.1669
21
-5.89918
0
LINE
8
BLACK
6
CONTINUOUS
10
4.1669
20
-5.89918
11
4.16128
21
-5.92168
0
LINE
8
BLACK
6
CONTINUOUS
10
4.16128
20
-5.92168
11
4.15565
21
-5.93293
0
LINE
8
BLACK
6
CONTINUOUS
10
4.15565
20
-5.93293
11
4.15003
21
-5.93855
0
LINE
8
BLACK
6
CONTINUOUS
10
4.15003
20
-5.93855
11
4.13878
21
-5.94418
0
LINE
8
BLACK
6
CONTINUOUS
10
4.13878
20
-5.94418
11
4.12753
21
-5.94418
0
LINE
8
BLACK
6
CONTINUOUS
10
4.12753
20
-5.94418
11
4.11628
21
-5.93855
0
LINE
8
BLACK
6
CONTINUOUS
10
4.11628
20
-5.93855
11
4.11066
21
-5.93293
0
LINE
8
BLACK
6
CONTINUOUS
10
4.11066
20
-5.93293
11
4.10503
21
-5.92168
0
LINE
8
BLACK
6
CONTINUOUS
10
4.10503
20
-5.92168
11
4.09941
21
-5.89918
0
LINE
8
BLACK
6
CONTINUOUS
10
4.09941
20
-5.89918
11
4.09941
21
-5.87106
0
LINE
8
BLACK
6
CONTINUOUS
10
4.09941
20
-5.87106
11
4.10503
21
-5.84857
0
LINE
8
BLACK
6
CONTINUOUS
10
4.10503
20
-5.84857
11
4.11066
21
-5.83732
0
LINE
8
BLACK
6
CONTINUOUS
10
4.11066
20
-5.83732
11
4.11628
21
-5.83169
0
LINE
8
BLACK
6
CONTINUOUS
10
4.11628
20
-5.83169
11
4.12753
21
-5.82607
0
LINE
8
BLACK
6
CONTINUOUS
10
4.26814
20
-5.82607
11
4.24564
21
-5.82607
0
LINE
8
BLACK
6
CONTINUOUS
10
4.24564
20
-5.82607
11
4.23439
21
-5.83169
0
LINE
8
BLACK
6
CONTINUOUS
10
4.23439
20
-5.83169
11
4.22877
21
-5.83732
0
LINE
8
BLACK
6
CONTINUOUS
10
4.22877
20
-5.83732
11
4.21752
21
-5.85419
0
LINE
8
BLACK
6
CONTINUOUS
10
4.21752
20
-5.85419
11
4.2119
21
-5.87669
0
LINE
8
BLACK
6
CONTINUOUS
10
4.2119
20
-5.87669
11
4.2119
21
-5.92168
0
LINE
8
BLACK
6
CONTINUOUS
10
4.2119
20
-5.92168
11
4.21752
21
-5.93293
0
LINE
8
BLACK
6
CONTINUOUS
10
4.21752
20
-5.93293
11
4.22314
21
-5.93855
0
LINE
8
BLACK
6
CONTINUOUS
10
4.22314
20
-5.93855
11
4.23439
21
-5.94418
0
LINE
8
BLACK
6
CONTINUOUS
10
4.23439
20
-5.94418
11
4.25689
21
-5.94418
0
LINE
8
BLACK
6
CONTINUOUS
10
4.25689
20
-5.94418
11
4.26814
21
-5.93855
0
LINE
8
BLACK
6
CONTINUOUS
10
4.26814
20
-5.93855
11
4.27376
21
-5.93293
0
LINE
8
BLACK
6
CONTINUOUS
10
4.27376
20
-5.93293
11
4.27939
21
-5.92168
0
LINE
8
BLACK
6
CONTINUOUS
10
4.27939
20
-5.92168
11
4.27939
21
-5.89356
0
LINE
8
BLACK
6
CONTINUOUS
10
4.27939
20
-5.89356
11
4.27376
21
-5.88231
0
LINE
8
BLACK
6
CONTINUOUS
10
4.27376
20
-5.88231
11
4.26814
21
-5.87669
0
LINE
8
BLACK
6
CONTINUOUS
10
4.26814
20
-5.87669
11
4.25689
21
-5.87106
0
LINE
8
BLACK
6
CONTINUOUS
10
4.25689
20
-5.87106
11
4.23439
21
-5.87106
0
LINE
8
BLACK
6
CONTINUOUS
10
4.23439
20
-5.87106
11
4.22314
21
-5.87669
0
LINE
8
BLACK
6
CONTINUOUS
10
4.22314
20
-5.87669
11
4.21752
21
-5.88231
0
LINE
8
BLACK
6
CONTINUOUS
10
4.21752
20
-5.88231
11
4.2119
21
-5.89356
0
LINE
8
BLACK
6
CONTINUOUS
10
4.32438
20
-5.82607
11
4.32438
21
-5.84857
0
LINE
8
BLACK
6
CONTINUOUS
10
4.36938
20
-5.82607
11
4.36938
21
-5.84857
0
LINE
8
BLACK
6
CONTINUOUS
10
4.54373
20
-5.98917
11
4.5381
21
-5.98355
0
LINE
8
BLACK
6
CONTINUOUS
10
4.5381
20
-5.98355
11
4.52686
21
-5.96668
0
LINE
8
BLACK
6
CONTINUOUS
10
4.52686
20
-5.96668
11
4.52123
21
-5.95543
0
LINE
8
BLACK
6
CONTINUOUS
10
4.52123
20
-5.95543
11
4.51561
21
-5.93855
0
LINE
8
BLACK
6
CONTINUOUS
10
4.51561
20
-5.93855
11
4.50998
21
-5.91043
0
LINE
8
BLACK
6
CONTINUOUS
10
4.50998
20
-5.91043
11
4.50998
21
-5.88794
0
LINE
8
BLACK
6
CONTINUOUS
10
4.50998
20
-5.88794
11
4.51561
21
-5.85981
0
LINE
8
BLACK
6
CONTINUOUS
10
4.51561
20
-5.85981
11
4.52123
21
-5.84294
0
LINE
8
BLACK
6
CONTINUOUS
10
4.52123
20
-5.84294
11
4.52686
21
-5.83169
0
LINE
8
BLACK
6
CONTINUOUS
10
4.52686
20
-5.83169
11
4.5381
21
-5.81482
0
LINE
8
BLACK
6
CONTINUOUS
10
4.5381
20
-5.81482
11
4.54373
21
-5.8092
0
LINE
8
BLACK
6
CONTINUOUS
10
4.65059
20
-5.94418
11
4.5831
21
-5.94418
0
LINE
8
BLACK
6
CONTINUOUS
10
4.61684
20
-5.94418
11
4.61684
21
-5.82607
0
LINE
8
BLACK
6
CONTINUOUS
10
4.61684
20
-5.82607
11
4.6056
21
-5.84294
0
LINE
8
BLACK
6
CONTINUOUS
10
4.6056
20
-5.84294
11
4.59435
21
-5.85419
0
LINE
8
BLACK
6
CONTINUOUS
10
4.59435
20
-5.85419
11
4.5831
21
-5.85981
0
LINE
8
BLACK
6
CONTINUOUS
10
4.7912
20
-5.94418
11
4.7912
21
-5.82607
0
LINE
8
BLACK
6
CONTINUOUS
10
4.84182
20
-5.94418
11
4.84182
21
-5.88231
0
LINE
8
BLACK
6
CONTINUOUS
10
4.84182
20
-5.88231
11
4.83619
21
-5.87106
0
LINE
8
BLACK
6
CONTINUOUS
10
4.83619
20
-5.87106
11
4.82494
21
-5.86544
0
LINE
8
BLACK
6
CONTINUOUS
10
4.82494
20
-5.86544
11
4.80807
21
-5.86544
0
LINE
8
BLACK
6
CONTINUOUS
10
4.80807
20
-5.86544
11
4.79682
21
-5.87106
0
LINE
8
BLACK
6
CONTINUOUS
10
4.79682
20
-5.87106
11
4.7912
21
-5.87669
0
LINE
8
BLACK
6
CONTINUOUS
10
4.91493
20
-5.94418
11
4.90368
21
-5.93855
0
LINE
8
BLACK
6
CONTINUOUS
10
4.90368
20
-5.93855
11
4.89806
21
-5.93293
0
LINE
8
BLACK
6
CONTINUOUS
10
4.89806
20
-5.93293
11
4.89244
21
-5.92168
0
LINE
8
BLACK
6
CONTINUOUS
10
4.89244
20
-5.92168
11
4.89244
21
-5.88794
0
LINE
8
BLACK
6
CONTINUOUS
10
4.89244
20
-5.88794
11
4.89806
21
-5.87669
0
LINE
8
BLACK
6
CONTINUOUS
10
4.89806
20
-5.87669
11
4.90368
21
-5.87106
0
LINE
8
BLACK
6
CONTINUOUS
10
4.90368
20
-5.87106
11
4.91493
21
-5.86544
0
LINE
8
BLACK
6
CONTINUOUS
10
4.91493
20
-5.86544
11
4.93181
21
-5.86544
0
LINE
8
BLACK
6
CONTINUOUS
10
4.93181
20
-5.86544
11
4.94305
21
-5.87106
0
LINE
8
BLACK
6
CONTINUOUS
10
4.94305
20
-5.87106
11
4.94868
21
-5.87669
0
LINE
8
BLACK
6
CONTINUOUS
10
4.94868
20
-5.87669
11
4.9543
21
-5.88794
0
LINE
8
BLACK
6
CONTINUOUS
10
4.9543
20
-5.88794
11
4.9543
21
-5.92168
0
LINE
8
BLACK
6
CONTINUOUS
10
4.9543
20
-5.92168
11
4.94868
21
-5.93293
0
LINE
8
BLACK
6
CONTINUOUS
10
4.94868
20
-5.93293
11
4.94305
21
-5.93855
0
LINE
8
BLACK
6
CONTINUOUS
10
4.94305
20
-5.93855
11
4.93181
21
-5.94418
0
LINE
8
BLACK
6
CONTINUOUS
10
4.93181
20
-5.94418
11
4.91493
21
-5.94418
0
LINE
8
BLACK
6
CONTINUOUS
10
5.02179
20
-5.94418
11
5.01055
21
-5.93855
0
LINE
8
BLACK
6
CONTINUOUS
10
5.01055
20
-5.93855
11
5.00492
21
-5.92731
0
LINE
8
BLACK
6
CONTINUOUS
10
5.00492
20
-5.92731
11
5.00492
21
-5.82607
0
LINE
8
BLACK
6
CONTINUOUS
10
5.11178
20
-5.93855
11
5.10053
21
-5.94418
0
LINE
8
BLACK
6
CONTINUOUS
10
5.10053
20
-5.94418
11
5.07804
21
-5.94418
0
LINE
8
BLACK
6
CONTINUOUS
10
5.07804
20
-5.94418
11
5.06679
21
-5.93855
0
LINE
8
BLACK
6
CONTINUOUS
10
5.06679
20
-5.93855
11
5.06116
21
-5.92731
0
LINE
8
BLACK
6
CONTINUOUS
10
5.06116
20
-5.92731
11
5.06116
21
-5.88231
0
LINE
8
BLACK
6
CONTINUOUS
10
5.06116
20
-5.88231
11
5.06679
21
-5.87106
0
LINE
8
BLACK
6
CONTINUOUS
10
5.06679
20
-5.87106
11
5.07804
21
-5.86544
0
LINE
8
BLACK
6
CONTINUOUS
10
5.07804
20
-5.86544
11
5.10053
21
-5.86544
0
LINE
8
BLACK
6
CONTINUOUS
10
5.10053
20
-5.86544
11
5.11178
21
-5.87106
0
LINE
8
BLACK
6
CONTINUOUS
10
5.11178
20
-5.87106
11
5.11741
21
-5.88231
0
LINE
8
BLACK
6
CONTINUOUS
10
5.11741
20
-5.88231
11
5.11741
21
-5.89356
0
LINE
8
BLACK
6
CONTINUOUS
10
5.11741
20
-5.89356
11
5.06116
21
-5.90481
0
LINE
8
BLACK
6
CONTINUOUS
10
5.15678
20
-5.98917
11
5.1624
21
-5.98355
0
LINE
8
BLACK
6
CONTINUOUS
10
5.1624
20
-5.98355
11
5.17365
21
-5.96668
0
LINE
8
BLACK
6
CONTINUOUS
10
5.17365
20
-5.96668
11
5.17927
21
-5.95543
0
LINE
8
BLACK
6
CONTINUOUS
10
5.17927
20
-5.95543
11
5.1849
21
-5.93855
0
LINE
8
BLACK
6
CONTINUOUS
10
5.1849
20
-5.93855
11
5.19052
21
-5.91043
0
LINE
8
BLACK
6
CONTINUOUS
10
5.19052
20
-5.91043
11
5.19052
21
-5.88794
0
LINE
8
BLACK
6
CONTINUOUS
10
5.19052
20
-5.88794
11
5.1849
21
-5.85981
0
LINE
8
BLACK
6
CONTINUOUS
10
5.1849
20
-5.85981
11
5.17927
21
-5.84294
0
LINE
8
BLACK
6
CONTINUOUS
10
5.17927
20
-5.84294
11
5.17365
21
-5.83169
0
LINE
8
BLACK
6
CONTINUOUS
10
5.17365
20
-5.83169
11
5.1624
21
-5.81482
0
LINE
8
BLACK
6
CONTINUOUS
10
5.1624
20
-5.81482
11
5.15678
21
-5.8092
0
LINE
8
BLACK
6
CONTINUOUS
10
5.3705
20
-5.98917
11
5.36488
21
-5.98355
0
LINE
8
BLACK
6
CONTINUOUS
10
5.36488
20
-5.98355
11
5.35363
21
-5.96668
0
LINE
8
BLACK
6
CONTINUOUS
10
5.35363
20
-5.96668
11
5.348
21
-5.95543
0
LINE
8
BLACK
6
CONTINUOUS
10
5.348
20
-5.95543
11
5.34238
21
-5.93855
0
LINE
8
BLACK
6
CONTINUOUS
10
5.34238
20
-5.93855
11
5.33675
21
-5.91043
0
LINE
8
BLACK
6
CONTINUOUS
10
5.33675
20
-5.91043
11
5.33675
21
-5.88794
0
LINE
8
BLACK
6
CONTINUOUS
10
5.33675
20
-5.88794
11
5.34238
21
-5.85981
0
LINE
8
BLACK
6
CONTINUOUS
10
5.34238
20
-5.85981
11
5.348
21
-5.84294
0
LINE
8
BLACK
6
CONTINUOUS
10
5.348
20
-5.84294
11
5.35363
21
-5.83169
0
LINE
8
BLACK
6
CONTINUOUS
10
5.35363
20
-5.83169
11
5.36488
21
-5.81482
0
LINE
8
BLACK
6
CONTINUOUS
10
5.36488
20
-5.81482
11
5.3705
21
-5.8092
0
LINE
8
BLACK
6
CONTINUOUS
10
5.41549
20
-5.86544
11
5.41549
21
-5.94418
0
LINE
8
BLACK
6
CONTINUOUS
10
5.41549
20
-5.87669
11
5.42112
21
-5.87106
0
LINE
8
BLACK
6
CONTINUOUS
10
5.42112
20
-5.87106
11
5.43237
21
-5.86544
0
LINE
8
BLACK
6
CONTINUOUS
10
5.43237
20
-5.86544
11
5.44924
21
-5.86544
0
LINE
8
BLACK
6
CONTINUOUS
10
5.44924
20
-5.86544
11
5.46049
21
-5.87106
0
LINE
8
BLACK
6
CONTINUOUS
10
5.46049
20
-5.87106
11
5.46611
21
-5.88231
0
LINE
8
BLACK
6
CONTINUOUS
10
5.46611
20
-5.88231
11
5.46611
21
-5.94418
0
LINE
8
BLACK
6
CONTINUOUS
10
5.53923
20
-5.94418
11
5.52798
21
-5.93855
0
LINE
8
BLACK
6
CONTINUOUS
10
5.52798
20
-5.93855
11
5.52236
21
-5.93293
0
LINE
8
BLACK
6
CONTINUOUS
10
5.52236
20
-5.93293
11
5.51673
21
-5.92168
0
LINE
8
BLACK
6
CONTINUOUS
10
5.51673
20
-5.92168
11
5.51673
21
-5.88794
0
LINE
8
BLACK
6
CONTINUOUS
10
5.51673
20
-5.88794
11
5.52236
21
-5.87669
0
LINE
8
BLACK
6
CONTINUOUS
10
5.52236
20
-5.87669
11
5.52798
21
-5.87106
0
LINE
8
BLACK
6
CONTINUOUS
10
5.52798
20
-5.87106
11
5.53923
21
-5.86544
0
LINE
8
BLACK
6
CONTINUOUS
10
5.53923
20
-5.86544
11
5.5561
21
-5.86544
0
LINE
8
BLACK
6
CONTINUOUS
10
5.5561
20
-5.86544
11
5.56735
21
-5.87106
0
LINE
8
BLACK
6
CONTINUOUS
10
5.56735
20
-5.87106
11
5.57298
21
-5.87669
0
LINE
8
BLACK
6
CONTINUOUS
10
5.57298
20
-5.87669
11
5.5786
21
-5.88794
0
LINE
8
BLACK
6
CONTINUOUS
10
5.5786
20
-5.88794
11
5.5786
21
-5.92168
0
LINE
8
BLACK
6
CONTINUOUS
10
5.5786
20
-5.92168
11
5.57298
21
-5.93293
0
LINE
8
BLACK
6
CONTINUOUS
10
5.57298
20
-5.93293
11
5.56735
21
-5.93855
0
LINE
8
BLACK
6
CONTINUOUS
10
5.56735
20
-5.93855
11
5.5561
21
-5.94418
0
LINE
8
BLACK
6
CONTINUOUS
10
5.5561
20
-5.94418
11
5.53923
21
-5.94418
0
LINE
8
BLACK
6
CONTINUOUS
10
5.61235
20
-5.86544
11
5.65734
21
-5.86544
0
LINE
8
BLACK
6
CONTINUOUS
10
5.62922
20
-5.82607
11
5.62922
21
-5.92731
0
LINE
8
BLACK
6
CONTINUOUS
10
5.62922
20
-5.92731
11
5.63484
21
-5.93855
0
LINE
8
BLACK
6
CONTINUOUS
10
5.63484
20
-5.93855
11
5.64609
21
-5.94418
0
LINE
8
BLACK
6
CONTINUOUS
10
5.64609
20
-5.94418
11
5.65734
21
-5.94418
0
LINE
8
BLACK
6
CONTINUOUS
10
5.7867
20
-5.86544
11
5.7867
21
-5.98355
0
LINE
8
BLACK
6
CONTINUOUS
10
5.7867
20
-5.87106
11
5.79795
21
-5.86544
0
LINE
8
BLACK
6
CONTINUOUS
10
5.79795
20
-5.86544
11
5.82044
21
-5.86544
0
LINE
8
BLACK
6
CONTINUOUS
10
5.82044
20
-5.86544
11
5.83169
21
-5.87106
0
LINE
8
BLACK
6
CONTINUOUS
10
5.83169
20
-5.87106
11
5.83732
21
-5.87669
0
LINE
8
BLACK
6
CONTINUOUS
10
5.83732
20
-5.87669
11
5.84294
21
-5.88794
0
LINE
8
BLACK
6
CONTINUOUS
10
5.84294
20
-5.88794
11
5.84294
21
-5.92168
0
LINE
8
BLACK
6
CONTINUOUS
10
5.84294
20
-5.92168
11
5.83732
21
-5.93293
0
LINE
8
BLACK
6
CONTINUOUS
10
5.83732
20
-5.93293
11
5.83169
21
-5.93855
0
LINE
8
BLACK
6
CONTINUOUS
10
5.83169
20
-5.93855
11
5.82044
21
-5.94418
0
LINE
8
BLACK
6
CONTINUOUS
10
5.82044
20
-5.94418
11
5.79795
21
-5.94418
0
LINE
8
BLACK
6
CONTINUOUS
10
5.79795
20
-5.94418
11
5.7867
21
-5.93855
0
LINE
8
BLACK
6
CONTINUOUS
10
5.91043
20
-5.94418
11
5.89918
21
-5.93855
0
LINE
8
BLACK
6
CONTINUOUS
10
5.89918
20
-5.93855
11
5.89356
21
-5.92731
0
LINE
8
BLACK
6
CONTINUOUS
10
5.89356
20
-5.92731
11
5.89356
21
-5.82607
0
LINE
8
BLACK
6
CONTINUOUS
10
6.00605
20
-5.94418
11
6.00605
21
-5.88231
0
LINE
8
BLACK
6
CONTINUOUS
10
6.00605
20
-5.88231
11
6.00042
21
-5.87106
0
LINE
8
BLACK
6
CONTINUOUS
10
6.00042
20
-5.87106
11
5.98917
21
-5.86544
0
LINE
8
BLACK
6
CONTINUOUS
10
5.98917
20
-5.86544
11
5.96668
21
-5.86544
0
LINE
8
BLACK
6
CONTINUOUS
10
5.96668
20
-5.86544
11
5.95543
21
-5.87106
0
LINE
8
BLACK
6
CONTINUOUS
10
6.00605
20
-5.93855
11
5.9948
21
-5.94418
0
LINE
8
BLACK
6
CONTINUOUS
10
5.9948
20
-5.94418
11
5.96668
21
-5.94418
0
LINE
8
BLACK
6
CONTINUOUS
10
5.96668
20
-5.94418
11
5.95543
21
-5.93855
0
LINE
8
BLACK
6
CONTINUOUS
10
5.95543
20
-5.93855
11
5.9498
21
-5.92731
0
LINE
8
BLACK
6
CONTINUOUS
10
5.9498
20
-5.92731
11
5.9498
21
-5.91606
0
LINE
8
BLACK
6
CONTINUOUS
10
5.9498
20
-5.91606
11
5.95543
21
-5.90481
0
LINE
8
BLACK
6
CONTINUOUS
10
5.95543
20
-5.90481
11
5.96668
21
-5.89918
0
LINE
8
BLACK
6
CONTINUOUS
10
5.96668
20
-5.89918
11
5.9948
21
-5.89918
0
LINE
8
BLACK
6
CONTINUOUS
10
5.9948
20
-5.89918
11
6.00605
21
-5.89356
0
LINE
8
BLACK
6
CONTINUOUS
10
6.04542
20
-5.86544
11
6.09041
21
-5.86544
0
LINE
8
BLACK
6
CONTINUOUS
10
6.06229
20
-5.82607
11
6.06229
21
-5.92731
0
LINE
8
BLACK
6
CONTINUOUS
10
6.06229
20
-5.92731
11
6.06791
21
-5.93855
0
LINE
8
BLACK
6
CONTINUOUS
10
6.06791
20
-5.93855
11
6.07916
21
-5.94418
0
LINE
8
BLACK
6
CONTINUOUS
10
6.07916
20
-5.94418
11
6.09041
21
-5.94418
0
LINE
8
BLACK
6
CONTINUOUS
10
6.17477
20
-5.93855
11
6.16353
21
-5.94418
0
LINE
8
BLACK
6
CONTINUOUS
10
6.16353
20
-5.94418
11
6.14103
21
-5.94418
0
LINE
8
BLACK
6
CONTINUOUS
10
6.14103
20
-5.94418
11
6.12978
21
-5.93855
0
LINE
8
BLACK
6
CONTINUOUS
10
6.12978
20
-5.93855
11
6.12416
21
-5.92731
0
LINE
8
BLACK
6
CONTINUOUS
10
6.12416
20
-5.92731
11
6.12416
21
-5.88231
0
LINE
8
BLACK
6
CONTINUOUS
10
6.12416
20
-5.88231
11
6.12978
21
-5.87106
0
LINE
8
BLACK
6
CONTINUOUS
10
6.12978
20
-5.87106
11
6.14103
21
-5.86544
0
LINE
8
BLACK
6
CONTINUOUS
10
6.14103
20
-5.86544
11
6.16353
21
-5.86544
0
LINE
8
BLACK
6
CONTINUOUS
10
6.16353
20
-5.86544
11
6.17477
21
-5.87106
0
LINE
8
BLACK
6
CONTINUOUS
10
6.17477
20
-5.87106
11
6.1804
21
-5.88231
0
LINE
8
BLACK
6
CONTINUOUS
10
6.1804
20
-5.88231
11
6.1804
21
-5.89356
0
LINE
8
BLACK
6
CONTINUOUS
10
6.1804
20
-5.89356
11
6.12416
21
-5.90481
0
LINE
8
BLACK
6
CONTINUOUS
10
6.28164
20
-5.94418
11
6.28164
21
-5.82607
0
LINE
8
BLACK
6
CONTINUOUS
10
6.28164
20
-5.93855
11
6.27039
21
-5.94418
0
LINE
8
BLACK
6
CONTINUOUS
10
6.27039
20
-5.94418
11
6.24789
21
-5.94418
0
LINE
8
BLACK
6
CONTINUOUS
10
6.24789
20
-5.94418
11
6.23664
21
-5.93855
0
LINE
8
BLACK
6
CONTINUOUS
10
6.23664
20
-5.93855
11
6.23102
21
-5.93293
0
LINE
8
BLACK
6
CONTINUOUS
10
6.23102
20
-5.93293
11
6.22539
21
-5.92168
0
LINE
8
BLACK
6
CONTINUOUS
10
6.22539
20
-5.92168
11
6.22539
21
-5.88794
0
LINE
8
BLACK
6
CONTINUOUS
10
6.22539
20
-5.88794
11
6.23102
21
-5.87669
0
LINE
8
BLACK
6
CONTINUOUS
10
6.23102
20
-5.87669
11
6.23664
21
-5.87106
0
LINE
8
BLACK
6
CONTINUOUS
10
6.23664
20
-5.87106
11
6.24789
21
-5.86544
0
LINE
8
BLACK
6
CONTINUOUS
10
6.24789
20
-5.86544
11
6.27039
21
-5.86544
0
LINE
8
BLACK
6
CONTINUOUS
10
6.27039
20
-5.86544
11
6.28164
21
-5.87106
0
LINE
8
BLACK
6
CONTINUOUS
10
6.32663
20
-5.98917
11
6.33226
21
-5.98355
0
LINE
8
BLACK
6
CONTINUOUS
10
6.33226
20
-5.98355
11
6.3435
21
-5.96668
0
LINE
8
BLACK
6
CONTINUOUS
10
6.3435
20
-5.96668
11
6.34913
21
-5.95543
0
LINE
8
BLACK
6
CONTINUOUS
10
6.34913
20
-5.95543
11
6.35475
21
-5.93855
0
LINE
8
BLACK
6
CONTINUOUS
10
6.35475
20
-5.93855
11
6.36038
21
-5.91043
0
LINE
8
BLACK
6
CONTINUOUS
10
6.36038
20
-5.91043
11
6.36038
21
-5.88794
0
LINE
8
BLACK
6
CONTINUOUS
10
6.36038
20
-5.88794
11
6.35475
21
-5.85981
0
LINE
8
BLACK
6
CONTINUOUS
10
6.35475
20
-5.85981
11
6.34913
21
-5.84294
0
LINE
8
BLACK
6
CONTINUOUS
10
6.34913
20
-5.84294
11
6.3435
21
-5.83169
0
LINE
8
BLACK
6
CONTINUOUS
10
6.3435
20
-5.83169
11
6.33226
21
-5.81482
0
LINE
8
BLACK
6
CONTINUOUS
10
6.33226
20
-5.81482
11
6.32663
21
-5.8092
  0
ENDSEC
  0
EOF
