%TF.GenerationSoftware,KiCad,Pcbnew,(6.0.4-0)*%
%TF.CreationDate,2024-04-14T14:43:09+10:00*%
%TF.ProjectId,256 word memory,32353620-776f-4726-9420-6d656d6f7279,rev?*%
%TF.SameCoordinates,Original*%
%TF.FileFunction,Copper,L2,Bot*%
%TF.FilePolarity,Positive*%
%FSLAX46Y46*%
G04 Gerber Fmt 4.6, Leading zero omitted, Abs format (unit mm)*
G04 Created by KiCad (PCBNEW (6.0.4-0)) date 2024-04-14 14:43:09*
%MOMM*%
%LPD*%
G01*
G04 APERTURE LIST*
G04 Aperture macros list*
%AMRoundRect*
0 Rectangle with rounded corners*
0 $1 Rounding radius*
0 $2 $3 $4 $5 $6 $7 $8 $9 X,Y pos of 4 corners*
0 Add a 4 corners polygon primitive as box body*
4,1,4,$2,$3,$4,$5,$6,$7,$8,$9,$2,$3,0*
0 Add four circle primitives for the rounded corners*
1,1,$1+$1,$2,$3*
1,1,$1+$1,$4,$5*
1,1,$1+$1,$6,$7*
1,1,$1+$1,$8,$9*
0 Add four rect primitives between the rounded corners*
20,1,$1+$1,$2,$3,$4,$5,0*
20,1,$1+$1,$4,$5,$6,$7,0*
20,1,$1+$1,$6,$7,$8,$9,0*
20,1,$1+$1,$8,$9,$2,$3,0*%
G04 Aperture macros list end*
%TA.AperFunction,ComponentPad*%
%ADD10C,1.600000*%
%TD*%
%TA.AperFunction,ComponentPad*%
%ADD11O,1.600000X1.600000*%
%TD*%
%TA.AperFunction,ComponentPad*%
%ADD12R,1.600000X1.600000*%
%TD*%
%TA.AperFunction,ConnectorPad*%
%ADD13R,2.540000X10.000000*%
%TD*%
%TA.AperFunction,ComponentPad*%
%ADD14C,2.000000*%
%TD*%
%TA.AperFunction,ComponentPad*%
%ADD15C,5.000000*%
%TD*%
%TA.AperFunction,ComponentPad*%
%ADD16RoundRect,0.250000X-0.750000X0.600000X-0.750000X-0.600000X0.750000X-0.600000X0.750000X0.600000X0*%
%TD*%
%TA.AperFunction,ComponentPad*%
%ADD17O,2.000000X1.700000*%
%TD*%
%TA.AperFunction,ComponentPad*%
%ADD18RoundRect,0.250000X0.600000X0.725000X-0.600000X0.725000X-0.600000X-0.725000X0.600000X-0.725000X0*%
%TD*%
%TA.AperFunction,ComponentPad*%
%ADD19O,1.700000X1.950000*%
%TD*%
%TA.AperFunction,ViaPad*%
%ADD20C,2.000000*%
%TD*%
%TA.AperFunction,ViaPad*%
%ADD21C,1.270000*%
%TD*%
%TA.AperFunction,Conductor*%
%ADD22C,0.500000*%
%TD*%
%TA.AperFunction,Conductor*%
%ADD23C,2.000000*%
%TD*%
%TA.AperFunction,Conductor*%
%ADD24C,1.000000*%
%TD*%
%TA.AperFunction,Conductor*%
%ADD25C,0.300000*%
%TD*%
%TA.AperFunction,Conductor*%
%ADD26C,0.250000*%
%TD*%
G04 APERTURE END LIST*
D10*
%TO.P,R4,1*%
%TO.N,+5V*%
X34550000Y-110800000D03*
D11*
%TO.P,R4,2*%
%TO.N,/R0(1-20*%
X34550000Y-100640000D03*
%TD*%
D10*
%TO.P,R5,1*%
%TO.N,+5V*%
X29845000Y-121920000D03*
D11*
%TO.P,R5,2*%
%TO.N,MB=0*%
X29845000Y-132080000D03*
%TD*%
D12*
%TO.P,U7,1*%
%TO.N,MA7*%
X45120000Y-57740000D03*
D11*
%TO.P,U7,2*%
%TO.N,MEMORY_ENABLE*%
X45120000Y-55200000D03*
%TO.P,U7,3*%
%TO.N,~{CS_H}*%
X45120000Y-52660000D03*
%TO.P,U7,4*%
%TO.N,MEMORY_ENABLE*%
X45120000Y-50120000D03*
%TO.P,U7,5*%
%TO.N,Net-(U7-Pad5)*%
X45120000Y-47580000D03*
%TO.P,U7,6*%
%TO.N,~{CS_L}*%
X45120000Y-45040000D03*
%TO.P,U7,7,GND*%
%TO.N,GND*%
X45120000Y-42500000D03*
%TO.P,U7,8*%
%TO.N,Net-(U7-Pad5)*%
X37500000Y-42500000D03*
%TO.P,U7,9*%
%TO.N,MA7*%
X37500000Y-45040000D03*
%TO.P,U7,10*%
X37500000Y-47580000D03*
%TO.P,U7,11*%
%TO.N,Net-(U5-Pad8)*%
X37500000Y-50120000D03*
%TO.P,U7,12*%
%TO.N,Net-(U14-Pad6)*%
X37500000Y-52660000D03*
%TO.P,U7,13*%
X37500000Y-55200000D03*
%TO.P,U7,14,VCC*%
%TO.N,+5V*%
X37500000Y-57740000D03*
%TD*%
D12*
%TO.P,U3,1,~{CS}*%
%TO.N,~{CS_H}*%
X87620000Y-60280000D03*
D11*
%TO.P,U3,2,A0*%
%TO.N,MA_A*%
X87620000Y-57740000D03*
%TO.P,U3,3,A1*%
%TO.N,MA_B*%
X87620000Y-55200000D03*
%TO.P,U3,4,A2*%
%TO.N,MA_C*%
X87620000Y-52660000D03*
%TO.P,U3,5,A3*%
%TO.N,MA0*%
X87620000Y-50120000D03*
%TO.P,U3,6,A4*%
%TO.N,MA1*%
X87620000Y-47580000D03*
%TO.P,U3,7,D_OUT*%
%TO.N,D-BUS*%
X87620000Y-45040000D03*
%TO.P,U3,8,GND*%
%TO.N,GND*%
X87620000Y-42500000D03*
%TO.P,U3,9,A5*%
%TO.N,MA2*%
X80000000Y-42500000D03*
%TO.P,U3,10,A6*%
%TO.N,MA3*%
X80000000Y-45040000D03*
%TO.P,U3,11,A7*%
%TO.N,MA4*%
X80000000Y-47580000D03*
%TO.P,U3,12,A8*%
%TO.N,MA5*%
X80000000Y-50120000D03*
%TO.P,U3,13,A9*%
%TO.N,MA6*%
X80000000Y-52660000D03*
%TO.P,U3,14,~{WE}*%
%TO.N,~{WE}*%
X80000000Y-55200000D03*
%TO.P,U3,15,D_IN*%
%TO.N,D-IN*%
X80000000Y-57740000D03*
%TO.P,U3,16,+5V*%
%TO.N,+5V*%
X80000000Y-60280000D03*
%TD*%
D12*
%TO.P,U8,1,~{CS}*%
%TO.N,~{CS_L}*%
X116120000Y-60280000D03*
D11*
%TO.P,U8,2,A0*%
%TO.N,MA_A*%
X116120000Y-57740000D03*
%TO.P,U8,3,A1*%
%TO.N,MA_B*%
X116120000Y-55200000D03*
%TO.P,U8,4,A2*%
%TO.N,MA_C*%
X116120000Y-52660000D03*
%TO.P,U8,5,A3*%
%TO.N,MA0*%
X116120000Y-50120000D03*
%TO.P,U8,6,A4*%
%TO.N,MA1*%
X116120000Y-47580000D03*
%TO.P,U8,7,D_OUT*%
%TO.N,D-BUS*%
X116120000Y-45040000D03*
%TO.P,U8,8,GND*%
%TO.N,GND*%
X116120000Y-42500000D03*
%TO.P,U8,9,A5*%
%TO.N,MA2*%
X108500000Y-42500000D03*
%TO.P,U8,10,A6*%
%TO.N,MA3*%
X108500000Y-45040000D03*
%TO.P,U8,11,A7*%
%TO.N,MA4*%
X108500000Y-47580000D03*
%TO.P,U8,12,A8*%
%TO.N,MA5*%
X108500000Y-50120000D03*
%TO.P,U8,13,A9*%
%TO.N,MA6*%
X108500000Y-52660000D03*
%TO.P,U8,14,~{WE}*%
%TO.N,~{WE}*%
X108500000Y-55200000D03*
%TO.P,U8,15,D_IN*%
%TO.N,D-IN*%
X108500000Y-57740000D03*
%TO.P,U8,16,+5V*%
%TO.N,+5V*%
X108500000Y-60280000D03*
%TD*%
D12*
%TO.P,U13,1,CP1..3*%
%TO.N,Net-(U10-Pad9)*%
X145620000Y-57740000D03*
D11*
%TO.P,U13,2,R0(1)*%
%TO.N,/R0(1-20*%
X145620000Y-55200000D03*
%TO.P,U13,3,R0(2)*%
X145620000Y-52660000D03*
%TO.P,U13,4*%
%TO.N,N/C*%
X145620000Y-50120000D03*
%TO.P,U13,5,VCC*%
%TO.N,+5V*%
X145620000Y-47580000D03*
%TO.P,U13,6*%
%TO.N,N/C*%
X145620000Y-45040000D03*
%TO.P,U13,7*%
X145620000Y-42500000D03*
%TO.P,U13,8,Q2*%
%TO.N,MA_B*%
X138000000Y-42500000D03*
%TO.P,U13,9,Q1*%
%TO.N,MA_A*%
X138000000Y-45040000D03*
%TO.P,U13,10,GND*%
%TO.N,GND*%
X138000000Y-47580000D03*
%TO.P,U13,11,Q3*%
%TO.N,MA_C*%
X138000000Y-50120000D03*
%TO.P,U13,12,Q0*%
%TO.N,unconnected-(U13-Pad12)*%
X138000000Y-52660000D03*
%TO.P,U13,13*%
%TO.N,N/C*%
X138000000Y-55200000D03*
%TO.P,U13,14,CP0*%
%TO.N,unconnected-(U13-Pad14)*%
X138000000Y-57740000D03*
%TD*%
D12*
%TO.P,U9,1,CLK*%
%TO.N,Net-(U12-Pad6)*%
X87620000Y-113280000D03*
D11*
%TO.P,U9,2,A*%
%TO.N,MB4*%
X87620000Y-110740000D03*
%TO.P,U9,3,B*%
%TO.N,MB3*%
X87620000Y-108200000D03*
%TO.P,U9,4,C*%
%TO.N,MB2*%
X87620000Y-105660000D03*
%TO.P,U9,5,VCC*%
%TO.N,+5V*%
X87620000Y-103120000D03*
%TO.P,U9,6,D*%
%TO.N,MB1*%
X87620000Y-100580000D03*
%TO.P,U9,7,E*%
%TO.N,MB0*%
X87620000Y-98040000D03*
%TO.P,U9,8,PRE*%
%TO.N,Net-(U5-Pad8)*%
X87620000Y-95500000D03*
%TO.P,U9,9,SER*%
%TO.N,MA5*%
X80000000Y-95500000D03*
%TO.P,U9,10,QE*%
%TO.N,MA0*%
X80000000Y-98040000D03*
%TO.P,U9,11,QD*%
%TO.N,MA1*%
X80000000Y-100580000D03*
%TO.P,U9,12,GND*%
%TO.N,GND*%
X80000000Y-103120000D03*
%TO.P,U9,13,QC*%
%TO.N,MA2*%
X80000000Y-105660000D03*
%TO.P,U9,14,QB*%
%TO.N,MA3*%
X80000000Y-108200000D03*
%TO.P,U9,15,QA*%
%TO.N,MA4*%
X80000000Y-110740000D03*
%TO.P,U9,16,~{CLR}*%
%TO.N,~{T0.5}*%
X80000000Y-113280000D03*
%TD*%
D12*
%TO.P,U10,1,Ds*%
%TO.N,MB4*%
X116120000Y-110740000D03*
D11*
%TO.P,U10,2,P0*%
%TO.N,SR3*%
X116120000Y-108200000D03*
%TO.P,U10,3,P1*%
%TO.N,SR2*%
X116120000Y-105660000D03*
%TO.P,U10,4,P2*%
%TO.N,SR1*%
X116120000Y-103120000D03*
%TO.P,U10,5,P3*%
%TO.N,SR0*%
X116120000Y-100580000D03*
%TO.P,U10,6,Mode*%
%TO.N,Net-(U10-Pad6)*%
X116120000Y-98040000D03*
%TO.P,U10,7,GND*%
%TO.N,GND*%
X116120000Y-95500000D03*
%TO.P,U10,8,Cp2.Lshift*%
%TO.N,MCP*%
X108500000Y-95500000D03*
%TO.P,U10,9,Cp1.Rshift*%
%TO.N,Net-(U10-Pad9)*%
X108500000Y-98040000D03*
%TO.P,U10,10,Q3*%
%TO.N,MB0*%
X108500000Y-100580000D03*
%TO.P,U10,11,Q2*%
%TO.N,MB1*%
X108500000Y-103120000D03*
%TO.P,U10,12,Q1*%
%TO.N,MB2*%
X108500000Y-105660000D03*
%TO.P,U10,13,Q0*%
%TO.N,MB3*%
X108500000Y-108200000D03*
%TO.P,U10,14,VCC*%
%TO.N,+5V*%
X108500000Y-110740000D03*
%TD*%
D12*
%TO.P,U12,1*%
%TO.N,~{T2-9(F+D+E})*%
X184120000Y-110740000D03*
D11*
%TO.P,U12,2*%
%TO.N,~{T14-21(JMS+JMP})*%
X184120000Y-108200000D03*
%TO.P,U12,3*%
%TO.N,Net-(U12-Pad3)*%
X184120000Y-105660000D03*
%TO.P,U12,4*%
X184120000Y-103120000D03*
%TO.P,U12,5*%
%TO.N,MCP*%
X184120000Y-100580000D03*
%TO.P,U12,6*%
%TO.N,Net-(U12-Pad6)*%
X184120000Y-98040000D03*
%TO.P,U12,7,GND*%
%TO.N,GND*%
X184120000Y-95500000D03*
%TO.P,U12,8*%
%TO.N,~{WE}*%
X176500000Y-95500000D03*
%TO.P,U12,9*%
%TO.N,/T14-21~{ISZ.DEP}T2-9.JMS.DCA*%
X176500000Y-98040000D03*
%TO.P,U12,10*%
%TO.N,MCP*%
X176500000Y-100580000D03*
%TO.P,U12,11*%
%TO.N,Net-(U12-Pad11)*%
X176500000Y-103120000D03*
%TO.P,U12,12*%
%TO.N,MCP*%
X176500000Y-105660000D03*
%TO.P,U12,13*%
%TO.N,MEMORY_ENABLE*%
X176500000Y-108200000D03*
%TO.P,U12,14,VCC*%
%TO.N,+5V*%
X176500000Y-110740000D03*
%TD*%
D12*
%TO.P,U5,1,CLK*%
%TO.N,Net-(U12-Pad6)*%
X87620000Y-152780000D03*
D11*
%TO.P,U5,2,A*%
%TO.N,MB7*%
X87620000Y-150240000D03*
%TO.P,U5,3,B*%
%TO.N,MB6*%
X87620000Y-147700000D03*
%TO.P,U5,4,C*%
%TO.N,MB5*%
X87620000Y-145160000D03*
%TO.P,U5,5,VCC*%
%TO.N,+5V*%
X87620000Y-142620000D03*
%TO.P,U5,6,D*%
%TO.N,unconnected-(U5-Pad6)*%
X87620000Y-140080000D03*
%TO.P,U5,7,E*%
%TO.N,unconnected-(U5-Pad7)*%
X87620000Y-137540000D03*
%TO.P,U5,8,PRE*%
%TO.N,Net-(U5-Pad8)*%
X87620000Y-135000000D03*
%TO.P,U5,9,SER*%
%TO.N,D-IN*%
X80000000Y-135000000D03*
%TO.P,U5,10,QE*%
%TO.N,unconnected-(U5-Pad10)*%
X80000000Y-137540000D03*
%TO.P,U5,11,QD*%
%TO.N,unconnected-(U5-Pad11)*%
X80000000Y-140080000D03*
%TO.P,U5,12,GND*%
%TO.N,GND*%
X80000000Y-142620000D03*
%TO.P,U5,13,QC*%
%TO.N,MA5*%
X80000000Y-145160000D03*
%TO.P,U5,14,QB*%
%TO.N,MA6*%
X80000000Y-147700000D03*
%TO.P,U5,15,QA*%
%TO.N,MA7*%
X80000000Y-150240000D03*
%TO.P,U5,16,~{CLR}*%
%TO.N,~{T0.5}*%
X80000000Y-152780000D03*
%TD*%
D12*
%TO.P,U6,1,Ds*%
%TO.N,D-IN*%
X116120000Y-150240000D03*
D11*
%TO.P,U6,2,P0*%
%TO.N,Net-(U4-Pad12)*%
X116120000Y-147700000D03*
%TO.P,U6,3,P1*%
%TO.N,Net-(U4-Pad9)*%
X116120000Y-145160000D03*
%TO.P,U6,4,P2*%
%TO.N,Net-(U4-Pad4)*%
X116120000Y-142620000D03*
%TO.P,U6,5,P3*%
%TO.N,Net-(U4-Pad7)*%
X116120000Y-140080000D03*
%TO.P,U6,6,Mode*%
%TO.N,Net-(U15-Pad11)*%
X116120000Y-137540000D03*
%TO.P,U6,7,GND*%
%TO.N,GND*%
X116120000Y-135000000D03*
%TO.P,U6,8,Cp2.Lshift*%
%TO.N,MCP*%
X108500000Y-135000000D03*
%TO.P,U6,9,Cp1.Rshift*%
%TO.N,Net-(U10-Pad9)*%
X108500000Y-137540000D03*
%TO.P,U6,10,Q3*%
%TO.N,MB4*%
X108500000Y-140080000D03*
%TO.P,U6,11,Q2*%
%TO.N,MB5*%
X108500000Y-142620000D03*
%TO.P,U6,12,Q1*%
%TO.N,MB6*%
X108500000Y-145160000D03*
%TO.P,U6,13,Q0*%
%TO.N,MB7*%
X108500000Y-147700000D03*
%TO.P,U6,14,VCC*%
%TO.N,+5V*%
X108500000Y-150240000D03*
%TD*%
D12*
%TO.P,U1,1*%
%TO.N,MB1*%
X45120000Y-110740000D03*
D11*
%TO.P,U1,2*%
%TO.N,MB=0*%
X45120000Y-108200000D03*
%TO.P,U1,3*%
%TO.N,MB5*%
X45120000Y-105660000D03*
%TO.P,U1,4*%
%TO.N,Net-(R1-Pad2)*%
X45120000Y-103120000D03*
%TO.P,U1,5*%
%TO.N,MB0*%
X45120000Y-100580000D03*
%TO.P,U1,6*%
%TO.N,MB=0*%
X45120000Y-98040000D03*
%TO.P,U1,7,GND*%
%TO.N,GND*%
X45120000Y-95500000D03*
%TO.P,U1,8*%
%TO.N,~{MA7}*%
X37500000Y-95500000D03*
%TO.P,U1,9*%
%TO.N,MA7*%
X37500000Y-98040000D03*
%TO.P,U1,10*%
%TO.N,/R0(1-20*%
X37500000Y-100580000D03*
%TO.P,U1,11*%
%TO.N,~{T0.5}*%
X37500000Y-103120000D03*
%TO.P,U1,12*%
%TO.N,~{PC7}*%
X37500000Y-105660000D03*
%TO.P,U1,13*%
%TO.N,PC7*%
X37500000Y-108200000D03*
%TO.P,U1,14,VCC*%
%TO.N,+5V*%
X37500000Y-110740000D03*
%TD*%
D12*
%TO.P,U16,1*%
%TO.N,MB4*%
X45120000Y-150240000D03*
D11*
%TO.P,U16,2*%
%TO.N,MB=0*%
X45120000Y-147700000D03*
%TO.P,U16,3*%
%TO.N,MB3*%
X45120000Y-145160000D03*
%TO.P,U16,4*%
%TO.N,MB=0*%
X45120000Y-142620000D03*
%TO.P,U16,5*%
%TO.N,MB2*%
X45120000Y-140080000D03*
%TO.P,U16,6*%
%TO.N,MB=0*%
X45120000Y-137540000D03*
%TO.P,U16,7,GND*%
%TO.N,GND*%
X45120000Y-135000000D03*
%TO.P,U16,8*%
%TO.N,MB=0*%
X37500000Y-135000000D03*
%TO.P,U16,9*%
%TO.N,MB7*%
X37500000Y-137540000D03*
%TO.P,U16,10*%
%TO.N,MB=0*%
X37500000Y-140080000D03*
%TO.P,U16,11*%
%TO.N,MB6*%
X37500000Y-142620000D03*
%TO.P,U16,12*%
%TO.N,MB=0*%
X37500000Y-145160000D03*
%TO.P,U16,13*%
%TO.N,MB5*%
X37500000Y-147700000D03*
%TO.P,U16,14,VCC*%
%TO.N,+5V*%
X37500000Y-150240000D03*
%TD*%
D12*
%TO.P,U4,1,S*%
%TO.N,~{F.23.OPR+IOT}*%
X145620000Y-152780000D03*
D11*
%TO.P,U4,2,I0a*%
%TO.N,MA5*%
X145620000Y-150240000D03*
%TO.P,U4,3,I1a*%
%TO.N,SR5*%
X145620000Y-147700000D03*
%TO.P,U4,4,Za*%
%TO.N,Net-(U4-Pad4)*%
X145620000Y-145160000D03*
%TO.P,U4,5,I0b*%
%TO.N,MA4*%
X145620000Y-142620000D03*
%TO.P,U4,6,I1b*%
%TO.N,SR4*%
X145620000Y-140080000D03*
%TO.P,U4,7,Zb*%
%TO.N,Net-(U4-Pad7)*%
X145620000Y-137540000D03*
%TO.P,U4,8,GND*%
%TO.N,GND*%
X145620000Y-135000000D03*
%TO.P,U4,9,Zc*%
%TO.N,Net-(U4-Pad9)*%
X138000000Y-135000000D03*
%TO.P,U4,10,I1c*%
%TO.N,SR6*%
X138000000Y-137540000D03*
%TO.P,U4,11,I0c*%
%TO.N,MA6*%
X138000000Y-140080000D03*
%TO.P,U4,12,Zd*%
%TO.N,Net-(U4-Pad12)*%
X138000000Y-142620000D03*
%TO.P,U4,13,I1d*%
%TO.N,SR7*%
X138000000Y-145160000D03*
%TO.P,U4,14,I0d*%
%TO.N,MA7*%
X138000000Y-147700000D03*
%TO.P,U4,15,E*%
%TO.N,Z-BIT*%
X138000000Y-150240000D03*
%TO.P,U4,16,VCC*%
%TO.N,+5V*%
X138000000Y-152780000D03*
%TD*%
D13*
%TO.P,J3,1,1*%
%TO.N,MB=0*%
X82900000Y-174100000D03*
%TO.P,J3,2,2*%
%TO.N,Z-BIT*%
X78937600Y-174100000D03*
%TO.P,J3,3,3*%
%TO.N,~{ISZ}*%
X74975200Y-174100000D03*
%TO.P,J3,4,4*%
%TO.N,MA0*%
X71012800Y-174100000D03*
%TO.P,J3,5,5*%
%TO.N,MA1*%
X67050400Y-174100000D03*
%TO.P,J3,6,6*%
%TO.N,MA2*%
X63088000Y-174100000D03*
%TO.P,J3,7,7*%
%TO.N,MA3*%
X59125600Y-174100000D03*
%TO.P,J3,8,8*%
%TO.N,MA4*%
X55163200Y-174100000D03*
%TO.P,J3,9,9*%
%TO.N,MB0*%
X51200800Y-174100000D03*
%TO.P,J3,10,10*%
%TO.N,MB1*%
X47238400Y-174100000D03*
%TO.P,J3,11,11*%
%TO.N,MB2*%
X43276000Y-174100000D03*
%TO.P,J3,12,12*%
%TO.N,MB3*%
X39313600Y-174100000D03*
%TO.P,J3,13,13*%
%TO.N,MB4*%
X35351200Y-174100000D03*
%TO.P,J3,14,14*%
%TO.N,MB5*%
X31388800Y-174100000D03*
%TO.P,J3,15,15*%
%TO.N,MB6*%
X27426400Y-174100000D03*
%TO.P,J3,16,16*%
%TO.N,MB7*%
X23464000Y-174100000D03*
%TD*%
D10*
%TO.P,R1,1*%
%TO.N,+5V*%
X149225000Y-58000000D03*
D11*
%TO.P,R1,2*%
%TO.N,Net-(R1-Pad2)*%
X149225000Y-47840000D03*
%TD*%
D10*
%TO.P,R2,1*%
%TO.N,+5V*%
X167000000Y-58000000D03*
D11*
%TO.P,R2,2*%
%TO.N,Net-(R2-Pad2)*%
X167000000Y-47840000D03*
%TD*%
D12*
%TO.P,U2,1*%
%TO.N,Z-BIT*%
X163620000Y-57740000D03*
D11*
%TO.P,U2,2*%
%TO.N,MB7*%
X163620000Y-55200000D03*
%TO.P,U2,3*%
%TO.N,Net-(R2-Pad2)*%
X163620000Y-52660000D03*
%TO.P,U2,4*%
%TO.N,Z-BIT*%
X163620000Y-50120000D03*
%TO.P,U2,5*%
%TO.N,MB3*%
X163620000Y-47580000D03*
%TO.P,U2,6*%
X163620000Y-45040000D03*
%TO.P,U2,7,GND*%
%TO.N,GND*%
X163620000Y-42500000D03*
%TO.P,U2,8*%
%TO.N,~{F.23.OPR+IOT}*%
X156000000Y-42500000D03*
%TO.P,U2,9*%
X156000000Y-45040000D03*
%TO.P,U2,10*%
%TO.N,Z-BIT*%
X156000000Y-47580000D03*
%TO.P,U2,11*%
%TO.N,Net-(R1-Pad2)*%
X156000000Y-50120000D03*
%TO.P,U2,12*%
%TO.N,MB4*%
X156000000Y-52660000D03*
%TO.P,U2,13*%
%TO.N,Net-(R2-Pad2)*%
X156000000Y-55200000D03*
%TO.P,U2,14,VCC*%
%TO.N,+5V*%
X156000000Y-57740000D03*
%TD*%
D10*
%TO.P,R3,1*%
%TO.N,+5V*%
X152400000Y-58000000D03*
D11*
%TO.P,R3,2*%
%TO.N,Z-BIT*%
X152400000Y-47840000D03*
%TD*%
D13*
%TO.P,J5,1,1*%
%TO.N,GND*%
X235534400Y-174200000D03*
%TO.P,J5,2,2*%
%TO.N,+5V*%
X231572000Y-174200000D03*
%TO.P,J5,3,3*%
X227609600Y-174200000D03*
%TO.P,J5,4,4*%
%TO.N,B-BUS*%
X223647200Y-174200000D03*
%TO.P,J5,5,5*%
%TO.N,C-BUS*%
X219684800Y-174200000D03*
%TO.P,J5,6,6*%
%TO.N,D-BUS*%
X215722400Y-174200000D03*
%TO.P,J5,7,7*%
%TO.N,~{T0.5}*%
X211760000Y-174200000D03*
%TO.P,J5,8,8*%
%TO.N,T14-21*%
X207797600Y-174200000D03*
%TO.P,J5,9,9*%
%TO.N,MCP*%
X203835200Y-174200000D03*
%TO.P,J5,10,10*%
%TO.N,T13*%
X199872800Y-174200000D03*
%TO.P,J5,11,11*%
%TO.N,T2-9*%
X195910400Y-174200000D03*
%TO.P,J5,12,12*%
%TO.N,T1*%
X191948000Y-174200000D03*
%TO.P,J5,13,13*%
%TO.N,~{T2-9.ISZ}*%
X187985600Y-174200000D03*
%TO.P,J5,14,14*%
%TO.N,~{F.23.OPR+IOT}*%
X184023200Y-174200000D03*
%TO.P,J5,15,15*%
%TO.N,~{T2-9(F+D+E})*%
X180060800Y-174200000D03*
%TO.P,J5,16,16*%
%TO.N,OPR+IOT*%
X176098400Y-174200000D03*
%TO.P,J5,17,17*%
%TO.N,~{T14-21(JMS+JMP})*%
X172136000Y-174200000D03*
%TO.P,J5,18,18*%
%TO.N,JMS+DCA*%
X168173600Y-174200000D03*
%TO.P,J5,19,19*%
%TO.N,~{DEP}*%
X164211200Y-174200000D03*
%TO.P,J5,20,20*%
%TO.N,unconnected-(J5-Pad20)*%
X160248800Y-174200000D03*
%TO.P,J5,21,21*%
%TO.N,unconnected-(J5-Pad21)*%
X156286400Y-174200000D03*
%TO.P,J5,22,22*%
%TO.N,~{F+D+E}*%
X152324000Y-174200000D03*
%TO.P,J5,23,23*%
%TO.N,MEMORY_ENABLE*%
X148361600Y-174200000D03*
%TO.P,J5,24,24*%
%TO.N,SR0*%
X144399200Y-174200000D03*
%TO.P,J5,25,25*%
%TO.N,SR1*%
X140436800Y-174200000D03*
%TO.P,J5,26,26*%
%TO.N,SR2*%
X136474400Y-174200000D03*
%TO.P,J5,27,27*%
%TO.N,SR3*%
X132512000Y-174200000D03*
%TO.P,J5,28,28*%
%TO.N,SR4*%
X128549600Y-174200000D03*
%TO.P,J5,29,29*%
%TO.N,SR5*%
X124587200Y-174200000D03*
%TO.P,J5,30,30*%
%TO.N,SR6*%
X120624800Y-174200000D03*
%TO.P,J5,31,31*%
%TO.N,SR7*%
X116662400Y-174200000D03*
%TO.P,J5,32,32*%
%TO.N,GND*%
X112700000Y-174200000D03*
%TD*%
D12*
%TO.P,U17,1*%
%TO.N,~{T2-9.ISZ}*%
X217620000Y-110740000D03*
D11*
%TO.P,U17,2*%
%TO.N,Net-(U14-Pad3)*%
X217620000Y-108200000D03*
%TO.P,U17,3*%
%TO.N,Net-(U17-Pad3)*%
X217620000Y-105660000D03*
%TO.P,U17,4*%
%TO.N,C-BUS*%
X217620000Y-103120000D03*
%TO.P,U17,5*%
X217620000Y-100580000D03*
%TO.P,U17,6*%
%TO.N,D-IN*%
X217620000Y-98040000D03*
%TO.P,U17,7,GND*%
%TO.N,GND*%
X217620000Y-95500000D03*
%TO.P,U17,8*%
%TO.N,Net-(U17-Pad8)*%
X210000000Y-95500000D03*
%TO.P,U17,9*%
%TO.N,/~{T14-21}.ISZ.DEP*%
X210000000Y-98040000D03*
%TO.P,U17,10*%
X210000000Y-100580000D03*
%TO.P,U17,11*%
X210000000Y-103120000D03*
%TO.P,U17,12*%
%TO.N,T14-21*%
X210000000Y-105660000D03*
%TO.P,U17,13*%
%TO.N,Net-(U15-Pad3)*%
X210000000Y-108200000D03*
%TO.P,U17,14,VCC*%
%TO.N,+5V*%
X210000000Y-110740000D03*
%TD*%
D12*
%TO.P,U19,1*%
%TO.N,B-BUS*%
X217620000Y-150240000D03*
D11*
%TO.P,U19,2*%
%TO.N,Net-(U18-Pad2)*%
X217620000Y-147700000D03*
%TO.P,U19,3*%
%TO.N,D-BUS*%
X217620000Y-145160000D03*
%TO.P,U19,4*%
%TO.N,C-BUS*%
X217620000Y-142620000D03*
%TO.P,U19,5*%
%TO.N,MA0*%
X217620000Y-140080000D03*
%TO.P,U19,6*%
%TO.N,Net-(U18-Pad12)*%
X217620000Y-137540000D03*
%TO.P,U19,7,GND*%
%TO.N,GND*%
X217620000Y-135000000D03*
%TO.P,U19,8*%
%TO.N,MB0*%
X210000000Y-135000000D03*
%TO.P,U19,9*%
%TO.N,Net-(U17-Pad8)*%
X210000000Y-137540000D03*
%TO.P,U19,10*%
%TO.N,C-BUS*%
X210000000Y-140080000D03*
%TO.P,U19,11*%
%TO.N,Net-(U18-Pad6)*%
X210000000Y-142620000D03*
%TO.P,U19,12*%
%TO.N,D-BUS*%
X210000000Y-145160000D03*
%TO.P,U19,13*%
%TO.N,C-BUS*%
X210000000Y-147700000D03*
%TO.P,U19,14,VCC*%
%TO.N,+5V*%
X210000000Y-150240000D03*
%TD*%
D12*
%TO.P,U15,1*%
%TO.N,~{ISZ}*%
X145620000Y-110740000D03*
D11*
%TO.P,U15,2*%
%TO.N,~{DEP}*%
X145620000Y-108200000D03*
%TO.P,U15,3*%
%TO.N,Net-(U15-Pad3)*%
X145620000Y-105660000D03*
%TO.P,U15,4*%
%TO.N,T13*%
X145620000Y-103120000D03*
%TO.P,U15,5*%
%TO.N,Net-(U15-Pad5)*%
X145620000Y-100580000D03*
%TO.P,U15,6*%
%TO.N,Net-(U15-Pad10)*%
X145620000Y-98040000D03*
%TO.P,U15,7,GND*%
%TO.N,GND*%
X145620000Y-95500000D03*
%TO.P,U15,8*%
%TO.N,Net-(U10-Pad6)*%
X138000000Y-95500000D03*
%TO.P,U15,9*%
%TO.N,Net-(U15-Pad10)*%
X138000000Y-98040000D03*
%TO.P,U15,10*%
X138000000Y-100580000D03*
%TO.P,U15,11*%
%TO.N,Net-(U15-Pad11)*%
X138000000Y-103120000D03*
%TO.P,U15,12*%
%TO.N,Net-(U15-Pad10)*%
X138000000Y-105660000D03*
%TO.P,U15,13*%
%TO.N,~{F.23.OPR+IOT}*%
X138000000Y-108200000D03*
%TO.P,U15,14,VCC*%
%TO.N,+5V*%
X138000000Y-110740000D03*
%TD*%
D12*
%TO.P,U11,1*%
%TO.N,JMS+DCA*%
X184120000Y-57740000D03*
D11*
%TO.P,U11,2*%
%TO.N,T2-9*%
X184120000Y-55200000D03*
%TO.P,U11,3*%
%TO.N,/~{T2-9.JMS+DCA}*%
X184120000Y-52660000D03*
%TO.P,U11,4*%
%TO.N,Net-(U11-Pad4)*%
X184120000Y-50120000D03*
%TO.P,U11,5*%
%TO.N,MEMORY_ENABLE*%
X184120000Y-47580000D03*
%TO.P,U11,6*%
%TO.N,Net-(U11-Pad6)*%
X184120000Y-45040000D03*
%TO.P,U11,7,GND*%
%TO.N,GND*%
X184120000Y-42500000D03*
%TO.P,U11,8*%
%TO.N,Net-(U11-Pad4)*%
X176500000Y-42500000D03*
%TO.P,U11,9*%
%TO.N,/T14-21~{ISZ.DEP}T2-9.JMS.DCA*%
X176500000Y-45040000D03*
%TO.P,U11,10*%
X176500000Y-47580000D03*
%TO.P,U11,11*%
X176500000Y-50120000D03*
%TO.P,U11,12*%
%TO.N,/~{T2-9.JMS+DCA}*%
X176500000Y-52660000D03*
%TO.P,U11,13*%
%TO.N,/~{T14-21}.ISZ.DEP*%
X176500000Y-55200000D03*
%TO.P,U11,14,VCC*%
%TO.N,+5V*%
X176500000Y-57740000D03*
%TD*%
D12*
%TO.P,U14,1*%
%TO.N,Net-(U11-Pad6)*%
X217620000Y-57740000D03*
D11*
%TO.P,U14,2*%
X217620000Y-55200000D03*
%TO.P,U14,3*%
%TO.N,Net-(U14-Pad3)*%
X217620000Y-52660000D03*
%TO.P,U14,4*%
%TO.N,T1*%
X217620000Y-50120000D03*
%TO.P,U14,5*%
%TO.N,Net-(U14-Pad5)*%
X217620000Y-47580000D03*
%TO.P,U14,6*%
%TO.N,Net-(U14-Pad6)*%
X217620000Y-45040000D03*
%TO.P,U14,7,GND*%
%TO.N,GND*%
X217620000Y-42500000D03*
%TO.P,U14,8*%
%TO.N,Net-(U14-Pad5)*%
X210000000Y-42500000D03*
%TO.P,U14,9*%
%TO.N,Net-(U14-Pad10)*%
X210000000Y-45040000D03*
%TO.P,U14,10*%
X210000000Y-47580000D03*
%TO.P,U14,11*%
X210000000Y-50120000D03*
%TO.P,U14,12*%
%TO.N,~{F+D+E}*%
X210000000Y-52660000D03*
%TO.P,U14,13*%
%TO.N,Net-(U14-Pad13)*%
X210000000Y-55200000D03*
%TO.P,U14,14,VCC*%
%TO.N,+5V*%
X210000000Y-57740000D03*
%TD*%
D12*
%TO.P,U18,1*%
%TO.N,~{T2-9.ISZ}*%
X184120000Y-150240000D03*
D11*
%TO.P,U18,2*%
%TO.N,Net-(U18-Pad2)*%
X184120000Y-147700000D03*
%TO.P,U18,3*%
%TO.N,OPR+IOT*%
X184120000Y-145160000D03*
%TO.P,U18,4*%
%TO.N,Net-(U14-Pad13)*%
X184120000Y-142620000D03*
%TO.P,U18,5*%
%TO.N,Net-(U17-Pad3)*%
X184120000Y-140080000D03*
%TO.P,U18,6*%
%TO.N,Net-(U18-Pad6)*%
X184120000Y-137540000D03*
%TO.P,U18,7,GND*%
%TO.N,GND*%
X184120000Y-135000000D03*
%TO.P,U18,8*%
%TO.N,Net-(U10-Pad9)*%
X176500000Y-135000000D03*
%TO.P,U18,9*%
%TO.N,Net-(U12-Pad11)*%
X176500000Y-137540000D03*
%TO.P,U18,10*%
%TO.N,Net-(U15-Pad5)*%
X176500000Y-140080000D03*
%TO.P,U18,11*%
%TO.N,~{DEP}*%
X176500000Y-142620000D03*
%TO.P,U18,12*%
%TO.N,Net-(U18-Pad12)*%
X176500000Y-145160000D03*
%TO.P,U18,13*%
%TO.N,~{T14-21(JMS+JMP})*%
X176500000Y-147700000D03*
%TO.P,U18,14,VCC*%
%TO.N,+5V*%
X176500000Y-150240000D03*
%TD*%
D14*
%TO.P,J4,1,Pin_1*%
%TO.N,MCP*%
X173000000Y-105500000D03*
%TD*%
D10*
%TO.P,C1,1*%
%TO.N,+5V*%
X34527500Y-60388500D03*
%TO.P,C1,2*%
%TO.N,GND*%
X29527500Y-60388500D03*
%TD*%
%TO.P,C2,1*%
%TO.N,+5V*%
X230759000Y-60198000D03*
%TO.P,C2,2*%
%TO.N,GND*%
X235759000Y-60198000D03*
%TD*%
%TO.P,C3,1*%
%TO.N,+5V*%
X28321000Y-117856000D03*
%TO.P,C3,2*%
%TO.N,GND*%
X23321000Y-117856000D03*
%TD*%
%TO.P,C4,1*%
%TO.N,+5V*%
X26162000Y-154940000D03*
%TO.P,C4,2*%
%TO.N,GND*%
X21162000Y-154940000D03*
%TD*%
%TO.P,C5,1*%
%TO.N,+5V*%
X231203500Y-142303500D03*
%TO.P,C5,2*%
%TO.N,GND*%
X236203500Y-142303500D03*
%TD*%
D15*
%TO.P,H1,1,GND*%
%TO.N,GND*%
X24500000Y-23000000D03*
X114500000Y-23000000D03*
%TD*%
%TO.P,H2,1,GND*%
%TO.N,GND*%
X234500000Y-23000000D03*
X144500000Y-23000000D03*
%TD*%
D16*
%TO.P,J1,1,Pin_1*%
%TO.N,~{PC7}*%
X30100000Y-105700000D03*
D17*
%TO.P,J1,2,Pin_2*%
%TO.N,PC7*%
X30100000Y-108200000D03*
%TD*%
D18*
%TO.P,J2,1,Pin_1*%
%TO.N,MA5*%
X132000000Y-34500000D03*
D19*
%TO.P,J2,2,Pin_2*%
%TO.N,MA6*%
X129500000Y-34500000D03*
%TO.P,J2,3,Pin_3*%
%TO.N,~{MA7}*%
X127000000Y-34500000D03*
%TD*%
D20*
%TO.N,+5V*%
X150495000Y-62865000D03*
X37465000Y-116205000D03*
X142240000Y-62865000D03*
X227965000Y-62865000D03*
X227965000Y-116205000D03*
X166370000Y-62865000D03*
X178735000Y-62865000D03*
X231572000Y-116408000D03*
X107950000Y-155575000D03*
X107950000Y-116205000D03*
X176530000Y-116205000D03*
X137922000Y-116205000D03*
X231572000Y-152603000D03*
X86995000Y-116205000D03*
X210058000Y-116205000D03*
X105410000Y-154940000D03*
X136525000Y-155575000D03*
X208788000Y-62865000D03*
X209797000Y-152603000D03*
X37465000Y-60325000D03*
X156210000Y-62865000D03*
X176733000Y-152603000D03*
D21*
%TO.N,MA2*%
X76835000Y-106045000D03*
X50800000Y-106045000D03*
%TO.N,MA3*%
X52705000Y-108585000D03*
X67310000Y-108585000D03*
%TO.N,MA4*%
X76835000Y-110490000D03*
X52705000Y-118745000D03*
X50800000Y-110490000D03*
X124460000Y-118745000D03*
%TO.N,MA5*%
X74930000Y-50165000D03*
X62865000Y-50165000D03*
X139065000Y-129540000D03*
X73660000Y-129540000D03*
%TO.N,MA0*%
X53340000Y-97790000D03*
X119380000Y-71120000D03*
X77470000Y-97790000D03*
X219078993Y-71120000D03*
%TO.N,MA6*%
X114300000Y-161925000D03*
X61595000Y-52705000D03*
X95885000Y-161925000D03*
%TO.N,MA1*%
X50800000Y-100680783D03*
X77085000Y-100580000D03*
D20*
%TO.N,GND*%
X217932000Y-93345000D03*
X45085000Y-132080000D03*
X26289000Y-93345000D03*
X146685000Y-132080000D03*
X235534400Y-128854400D03*
X116840000Y-132080000D03*
X32766000Y-132080000D03*
X76200000Y-132080000D03*
X184150000Y-93345000D03*
X45087102Y-93347102D03*
X163995000Y-40005000D03*
X120650000Y-150495000D03*
X37973000Y-132080000D03*
X217805000Y-40005000D03*
X116205000Y-93345000D03*
X235585000Y-93345000D03*
X218567000Y-128905000D03*
X116205000Y-40005000D03*
X184150000Y-132080000D03*
X235585000Y-40005000D03*
X68580000Y-93345000D03*
X87630000Y-40005000D03*
X25654000Y-129540000D03*
X133985000Y-47625000D03*
X184305000Y-40005000D03*
X146177000Y-93345000D03*
D21*
%TO.N,~{T0.5}*%
X59690000Y-113030000D03*
X210185000Y-157861000D03*
X80010000Y-157861000D03*
X69850000Y-113030000D03*
%TO.N,MB0*%
X84836000Y-88900000D03*
X51816000Y-88900000D03*
X210185000Y-88900000D03*
%TO.N,MB1*%
X83312000Y-90932000D03*
X44958000Y-90805000D03*
%TO.N,MB2*%
X103505000Y-125095000D03*
X42545000Y-125095000D03*
%TO.N,MB3*%
X158115000Y-69215000D03*
X165735000Y-120650000D03*
X168275000Y-69215000D03*
X102870000Y-120650000D03*
X45720000Y-120650000D03*
%TO.N,MB4*%
X97155000Y-123190000D03*
D20*
X116120000Y-113750000D03*
D21*
X118745000Y-123190000D03*
D20*
X159385000Y-113665000D03*
D21*
X46355000Y-123190000D03*
%TO.N,Net-(U10-Pad9)*%
X113030000Y-82550000D03*
X167005000Y-82550000D03*
%TO.N,MB7*%
X104140000Y-149860000D03*
X23638400Y-158115000D03*
X160020000Y-73025000D03*
X104140000Y-137160000D03*
X77470000Y-158115000D03*
X128905000Y-73025000D03*
X99695000Y-110490000D03*
X99695000Y-96520000D03*
%TO.N,MB6*%
X92710000Y-161925000D03*
X102235000Y-147955000D03*
X27600800Y-161925000D03*
X95250000Y-147955000D03*
%TO.N,MB5*%
X95250000Y-145415000D03*
X31563200Y-160020000D03*
X102235000Y-145415000D03*
X88265000Y-160020000D03*
%TO.N,Net-(U4-Pad12)*%
X133985000Y-142240000D03*
X133985000Y-137795000D03*
%TO.N,~{F.23.OPR+IOT}*%
X184150000Y-163830000D03*
X170000000Y-79000000D03*
X150270000Y-163830000D03*
X137900000Y-79100000D03*
X127000000Y-163830000D03*
%TO.N,MB=0*%
X73025000Y-166624000D03*
X34036000Y-166624000D03*
%TO.N,Net-(R1-Pad2)*%
X147600000Y-69100000D03*
%TO.N,Z-BIT*%
X79375000Y-167640000D03*
X168275000Y-135255000D03*
X114935000Y-167640000D03*
%TO.N,~{ISZ}*%
X156135006Y-165735000D03*
X77470000Y-165735000D03*
%TO.N,Net-(U18-Pad6)*%
X205740000Y-137795000D03*
X186690000Y-137795000D03*
%TO.N,Net-(U18-Pad12)*%
X176530000Y-126365000D03*
X217805000Y-126365000D03*
%TO.N,Net-(U18-Pad2)*%
X188595000Y-154940000D03*
X220345000Y-154940000D03*
%TO.N,C-BUS*%
X207645000Y-147637500D03*
X207825010Y-132064948D03*
%TO.N,Net-(U15-Pad3)*%
X161925000Y-124460000D03*
X207010000Y-124460000D03*
%TO.N,Net-(U11-Pad6)*%
X196850000Y-73025000D03*
X213360000Y-73025000D03*
%TO.N,Net-(U17-Pad3)*%
X188595000Y-122555000D03*
X218440000Y-122555000D03*
%TO.N,~{T2-9.ISZ}*%
X217170000Y-120650000D03*
X190500000Y-120650000D03*
D20*
%TO.N,/R0(1-20*%
X147955000Y-35560000D03*
D21*
X31100000Y-35600000D03*
%TO.N,MEMORY_ENABLE*%
X172350010Y-74930000D03*
X140970000Y-74930000D03*
X48260000Y-74930000D03*
%TO.N,T2-9*%
X199390000Y-95885000D03*
X199390000Y-113665000D03*
%TO.N,JMS+DCA*%
X186690000Y-73025000D03*
X164465000Y-73025000D03*
X170900000Y-138400000D03*
X171000000Y-147700000D03*
%TO.N,T13*%
X158750000Y-118745000D03*
X199363071Y-118564990D03*
%TO.N,MCP*%
X108585000Y-90805000D03*
X170815000Y-90805000D03*
%TO.N,Net-(U5-Pad8)*%
X86995000Y-81915000D03*
X93980000Y-95885000D03*
X37465000Y-81915000D03*
X93980000Y-113030000D03*
%TO.N,~{MA7}*%
X34250000Y-34450000D03*
%TO.N,MA7*%
X85725000Y-163830000D03*
X115570000Y-163830000D03*
%TO.N,~{F+D+E}*%
X201295000Y-76835000D03*
X142875000Y-76835000D03*
%TO.N,OPR+IOT*%
X176100000Y-165800000D03*
X186055000Y-165735000D03*
%TO.N,T1*%
X225425000Y-73025000D03*
X221615000Y-73025000D03*
X225425000Y-165735000D03*
X192405000Y-165735000D03*
%TO.N,~{WE}*%
X173990000Y-65405000D03*
X102235000Y-65884500D03*
%TO.N,~{CS_L}*%
X116205000Y-71120000D03*
X52070000Y-71120000D03*
%TO.N,~{CS_H}*%
X50165000Y-73025000D03*
X87630000Y-73025000D03*
%TO.N,D-IN*%
X29210000Y-67310000D03*
X112395000Y-127635000D03*
X216535000Y-67310000D03*
X104775000Y-67310000D03*
X80010000Y-127635000D03*
X38735000Y-127635000D03*
%TO.N,Net-(U14-Pad6)*%
X199390000Y-84455000D03*
X35105010Y-84455000D03*
%TO.N,Net-(U14-Pad13)*%
X195580000Y-95885000D03*
X195580000Y-113665000D03*
%TO.N,Net-(U12-Pad6)*%
X92075000Y-152739990D03*
X205740000Y-159385000D03*
X100330000Y-159385000D03*
X92075000Y-134620000D03*
%TO.N,Net-(U12-Pad11)*%
X165100000Y-102870000D03*
X171450000Y-102870000D03*
%TD*%
D22*
%TO.N,D-BUS*%
X205105000Y-151130000D02*
X205105000Y-146050000D01*
X205105000Y-146050000D02*
X205995000Y-145160000D01*
X218419999Y-144360001D02*
X217620000Y-145160000D01*
X215722400Y-159122400D02*
X212200000Y-155600000D01*
X217620000Y-145160000D02*
X210000000Y-145160000D01*
X127680000Y-45040000D02*
X141720000Y-31000000D01*
X209575000Y-155600000D02*
X205105000Y-151130000D01*
X222000000Y-31000000D02*
X223500000Y-32500000D01*
X215722400Y-174200000D02*
X215722400Y-159122400D01*
X223500000Y-32500000D02*
X223500000Y-139280000D01*
X116120000Y-45040000D02*
X122600000Y-45040000D01*
X223500000Y-139280000D02*
X218419999Y-144360001D01*
X122600000Y-45040000D02*
X127680000Y-45040000D01*
X205995000Y-145160000D02*
X210000000Y-145160000D01*
X212200000Y-155600000D02*
X209575000Y-155600000D01*
X141720000Y-31000000D02*
X222000000Y-31000000D01*
D23*
%TO.N,+5V*%
X176500000Y-116175000D02*
X176530000Y-116205000D01*
X136525000Y-155575000D02*
X138000000Y-154100000D01*
D24*
X85500000Y-114710000D02*
X86995000Y-116205000D01*
D23*
X108500000Y-110740000D02*
X108500000Y-115655000D01*
X210000000Y-152400000D02*
X209797000Y-152603000D01*
X32770000Y-110740000D02*
X32385000Y-111125000D01*
X145620000Y-47580000D02*
X142920000Y-47580000D01*
D24*
X86110000Y-103120000D02*
X85500000Y-103730000D01*
X87620000Y-103120000D02*
X86110000Y-103120000D01*
D23*
X34527500Y-60388500D02*
X37401500Y-60388500D01*
X37147500Y-115887500D02*
X37465000Y-116205000D01*
X210000000Y-61653000D02*
X208788000Y-62865000D01*
X176500000Y-57740000D02*
X176500000Y-60630000D01*
X96900000Y-142620000D02*
X87620000Y-142620000D01*
X176500000Y-110740000D02*
X176500000Y-116175000D01*
X31432500Y-115887500D02*
X37147500Y-115887500D01*
X227609600Y-174200000D02*
X231572000Y-174200000D01*
X210000000Y-57740000D02*
X210000000Y-61653000D01*
X37500000Y-60290000D02*
X37465000Y-60325000D01*
X176500000Y-150240000D02*
X176500000Y-152370000D01*
X156000000Y-57740000D02*
X156000000Y-62655000D01*
X149225000Y-58000000D02*
X152400000Y-58000000D01*
X150495000Y-62865000D02*
X150495000Y-59270000D01*
X166370000Y-62865000D02*
X166370000Y-58630000D01*
X99695000Y-149225000D02*
X99695000Y-145415000D01*
X227965000Y-173844600D02*
X227609600Y-174200000D01*
D24*
X85500000Y-103730000D02*
X85500000Y-114710000D01*
D23*
X108500000Y-155025000D02*
X107950000Y-155575000D01*
X176500000Y-152370000D02*
X176733000Y-152603000D01*
X99695000Y-145415000D02*
X96900000Y-142620000D01*
X105410000Y-154940000D02*
X106045000Y-155575000D01*
X210000000Y-116147000D02*
X210058000Y-116205000D01*
X142240000Y-48260000D02*
X142240000Y-62865000D01*
X138000000Y-116127000D02*
X137922000Y-116205000D01*
X106045000Y-155575000D02*
X107950000Y-155575000D01*
X105410000Y-154940000D02*
X99695000Y-149225000D01*
X142920000Y-47580000D02*
X142240000Y-48260000D01*
X176500000Y-60630000D02*
X178735000Y-62865000D01*
X32385000Y-111125000D02*
X32385000Y-114935000D01*
X31432500Y-115887500D02*
X29845000Y-117475000D01*
X29464000Y-117856000D02*
X29845000Y-117475000D01*
X210000000Y-150240000D02*
X210000000Y-152400000D01*
X156000000Y-62655000D02*
X156210000Y-62865000D01*
X138000000Y-110740000D02*
X138000000Y-116127000D01*
X231572000Y-152603000D02*
X231572000Y-174200000D01*
X138000000Y-154100000D02*
X138000000Y-152780000D01*
X32385000Y-114935000D02*
X31432500Y-115887500D01*
X210000000Y-110740000D02*
X210000000Y-116147000D01*
X150495000Y-59270000D02*
X149225000Y-58000000D01*
X37500000Y-110740000D02*
X32770000Y-110740000D01*
X166370000Y-58630000D02*
X167000000Y-58000000D01*
X108500000Y-115655000D02*
X107950000Y-116205000D01*
X108500000Y-150240000D02*
X108500000Y-155025000D01*
X29845000Y-117475000D02*
X29845000Y-121920000D01*
X28321000Y-117856000D02*
X29464000Y-117856000D01*
X37500000Y-57740000D02*
X37500000Y-60290000D01*
D22*
%TO.N,Net-(U7-Pad5)*%
X39960000Y-42500000D02*
X41910000Y-44450000D01*
X43135000Y-47580000D02*
X45120000Y-47580000D01*
X37500000Y-42500000D02*
X39960000Y-42500000D01*
X41910000Y-46355000D02*
X43135000Y-47580000D01*
X41910000Y-44450000D02*
X41910000Y-46355000D01*
%TO.N,MA2*%
X53340000Y-106045000D02*
X50800000Y-106045000D01*
X76835000Y-106045000D02*
X79615000Y-106045000D01*
X56515000Y-120650000D02*
X56515000Y-117475000D01*
X68580000Y-118110000D02*
X80490000Y-118110000D01*
X82165000Y-105660000D02*
X80000000Y-105660000D01*
X80490000Y-118110000D02*
X83100000Y-115500000D01*
X54610000Y-115570000D02*
X54610000Y-107315000D01*
X66040000Y-110490000D02*
X66040000Y-115570000D01*
X79615000Y-106045000D02*
X80000000Y-105660000D01*
X54610000Y-107315000D02*
X53340000Y-106045000D01*
X80000000Y-42500000D02*
X66720000Y-42500000D01*
X83100000Y-115500000D02*
X83100000Y-106595000D01*
X64135000Y-108585000D02*
X66040000Y-110490000D01*
X63262400Y-174100000D02*
X63262400Y-127397400D01*
X63262400Y-127397400D02*
X56515000Y-120650000D01*
X66720000Y-42500000D02*
X64135000Y-45085000D01*
X66040000Y-115570000D02*
X68580000Y-118110000D01*
X56515000Y-117475000D02*
X54610000Y-115570000D01*
X83100000Y-106595000D02*
X82165000Y-105660000D01*
X64135000Y-45085000D02*
X64135000Y-108585000D01*
%TO.N,MA3*%
X52705000Y-108585000D02*
X53340000Y-109855000D01*
X61595000Y-163830000D02*
X59300000Y-166125000D01*
X80895000Y-108200000D02*
X81915000Y-109220000D01*
X67310000Y-108585000D02*
X67310000Y-114300000D01*
X66720000Y-45040000D02*
X80000000Y-45040000D01*
X55245000Y-121285000D02*
X61595000Y-127635000D01*
X80000000Y-108200000D02*
X80895000Y-108200000D01*
X65405000Y-105410000D02*
X65405000Y-46355000D01*
X81915000Y-114935000D02*
X80010000Y-116840000D01*
X55245000Y-118745000D02*
X55245000Y-121285000D01*
X65405000Y-46355000D02*
X66720000Y-45040000D01*
X61595000Y-127635000D02*
X61595000Y-163830000D01*
X67310000Y-108585000D02*
X65405000Y-106680000D01*
X65405000Y-106680000D02*
X65405000Y-105410000D01*
X59300000Y-166125000D02*
X59300000Y-174100000D01*
X53340000Y-109855000D02*
X53340000Y-116840000D01*
X67310000Y-114300000D02*
X69850000Y-116840000D01*
X53340000Y-116840000D02*
X55245000Y-118745000D01*
X81915000Y-109220000D02*
X81915000Y-114935000D01*
X80010000Y-116840000D02*
X69850000Y-116840000D01*
%TO.N,MA4*%
X60325000Y-128270000D02*
X60325000Y-161290000D01*
X138985000Y-125015000D02*
X143510000Y-129540000D01*
X67990000Y-47580000D02*
X66675000Y-48895000D01*
X79750000Y-110490000D02*
X80000000Y-110740000D01*
X138985000Y-125015000D02*
X125515000Y-125015000D01*
X80000000Y-47580000D02*
X67990000Y-47580000D01*
X73025000Y-110490000D02*
X76835000Y-110490000D01*
X60325000Y-161290000D02*
X55163200Y-166451800D01*
X143510000Y-129540000D02*
X143422500Y-129627500D01*
X124460000Y-123960000D02*
X124460000Y-118745000D01*
X50800000Y-110490000D02*
X50800000Y-116840000D01*
X143422500Y-129627500D02*
X143422500Y-140422500D01*
X53975000Y-120015000D02*
X53975000Y-121920000D01*
X66675000Y-48895000D02*
X66675000Y-104140000D01*
X125515000Y-125015000D02*
X124460000Y-123960000D01*
X143422500Y-140422500D02*
X145620000Y-142620000D01*
X53975000Y-121920000D02*
X60325000Y-128270000D01*
X52705000Y-118745000D02*
X53975000Y-120015000D01*
X55163200Y-166451800D02*
X55163200Y-174100000D01*
X66675000Y-104140000D02*
X73025000Y-110490000D01*
X76835000Y-110490000D02*
X79750000Y-110490000D01*
X50800000Y-116840000D02*
X52705000Y-118745000D01*
%TO.N,MA5*%
X73660000Y-129540000D02*
X73660000Y-144145000D01*
X131200000Y-36700000D02*
X132000000Y-35900000D01*
X73660000Y-129540000D02*
X73660000Y-126365000D01*
X74675000Y-145160000D02*
X80000000Y-145160000D01*
X64770000Y-117475000D02*
X65405000Y-118110000D01*
X73660000Y-126365000D02*
X73025000Y-125730000D01*
X65405000Y-118110000D02*
X66675000Y-119380000D01*
X139065000Y-129540000D02*
X140970000Y-131445000D01*
X111100000Y-38400000D02*
X112800000Y-36700000D01*
X143510000Y-144780000D02*
X143510000Y-149225000D01*
X73660000Y-144145000D02*
X74675000Y-145160000D01*
X64770000Y-111125000D02*
X64770000Y-117475000D01*
X143510000Y-149225000D02*
X144525000Y-150240000D01*
X62865000Y-109220000D02*
X64770000Y-111125000D01*
X81530000Y-95500000D02*
X80000000Y-95500000D01*
X74975000Y-50120000D02*
X74930000Y-50165000D01*
X132000000Y-35900000D02*
X132000000Y-34500000D01*
X112800000Y-36700000D02*
X131200000Y-36700000D01*
X62865000Y-50165000D02*
X62865000Y-109220000D01*
X82550000Y-96520000D02*
X81530000Y-95500000D01*
X140970000Y-142240000D02*
X143510000Y-144780000D01*
X111100000Y-47520000D02*
X111100000Y-38400000D01*
X82550000Y-103505000D02*
X82550000Y-96520000D01*
X140970000Y-131445000D02*
X140970000Y-142240000D01*
X144525000Y-150240000D02*
X145620000Y-150240000D01*
X81120000Y-119380000D02*
X84200000Y-116300000D01*
X80000000Y-50120000D02*
X74975000Y-50120000D01*
X108500000Y-50120000D02*
X111100000Y-47520000D01*
X84200000Y-116300000D02*
X84200000Y-105155000D01*
X66675000Y-119380000D02*
X73025000Y-125730000D01*
X66675000Y-119380000D02*
X81120000Y-119380000D01*
X84200000Y-105155000D02*
X82550000Y-103505000D01*
%TO.N,MA0*%
X67945000Y-163195000D02*
X71187200Y-166437200D01*
X59055000Y-116205000D02*
X59055000Y-119380000D01*
X219078993Y-73021007D02*
X219075000Y-73025000D01*
X71187200Y-166437200D02*
X71187200Y-174100000D01*
X55245000Y-97790000D02*
X57150000Y-99695000D01*
X59055000Y-119380000D02*
X67945000Y-128270000D01*
X83185000Y-74930000D02*
X83185000Y-78740000D01*
X53340000Y-97790000D02*
X55245000Y-97790000D01*
X87620000Y-50120000D02*
X83865000Y-50120000D01*
X219075000Y-73025000D02*
X222250000Y-76200000D01*
X222250000Y-76200000D02*
X222250000Y-137795000D01*
X83185000Y-78740000D02*
X76835000Y-85090000D01*
X57150000Y-99695000D02*
X57150000Y-114300000D01*
X77720000Y-98040000D02*
X80000000Y-98040000D01*
X114935000Y-75565000D02*
X87630000Y-75565000D01*
X222250000Y-137795000D02*
X219965000Y-140080000D01*
X83185000Y-50800000D02*
X83185000Y-74930000D01*
X57150000Y-114300000D02*
X59055000Y-116205000D01*
X67945000Y-128270000D02*
X67945000Y-163195000D01*
X219078993Y-71120000D02*
X219078993Y-73021007D01*
X76835000Y-97155000D02*
X77720000Y-98040000D01*
X219965000Y-140080000D02*
X217620000Y-140080000D01*
X87630000Y-75565000D02*
X83185000Y-75565000D01*
X119380000Y-71120000D02*
X114935000Y-75565000D01*
X83865000Y-50120000D02*
X83185000Y-50800000D01*
X76835000Y-85090000D02*
X76835000Y-97155000D01*
%TO.N,MA6*%
X61595000Y-52705000D02*
X61595000Y-109855000D01*
X131700000Y-140080000D02*
X138000000Y-140080000D01*
X114300000Y-161925000D02*
X114300000Y-160655000D01*
X114300000Y-160655000D02*
X129540000Y-145415000D01*
X129540000Y-145415000D02*
X129540000Y-142240000D01*
X129540000Y-142240000D02*
X131700000Y-140080000D01*
X71755000Y-145415000D02*
X74040000Y-147700000D01*
X61595000Y-109855000D02*
X63500000Y-111760000D01*
X129500000Y-33100000D02*
X129500000Y-34500000D01*
X112395000Y-38735000D02*
X113530000Y-37600000D01*
X63500000Y-118110000D02*
X71755000Y-126365000D01*
X134300000Y-33300000D02*
X133700000Y-32700000D01*
X129900000Y-32700000D02*
X129500000Y-33100000D01*
X81660000Y-147700000D02*
X80000000Y-147700000D01*
X112395000Y-48765000D02*
X112395000Y-38735000D01*
X89535000Y-163830000D02*
X83185000Y-157480000D01*
X113530000Y-37600000D02*
X132800000Y-37600000D01*
X83185000Y-149225000D02*
X81660000Y-147700000D01*
X95885000Y-161925000D02*
X93980000Y-163830000D01*
X93980000Y-163830000D02*
X89535000Y-163830000D01*
X83185000Y-157480000D02*
X83185000Y-149225000D01*
X134300000Y-36100000D02*
X134300000Y-33300000D01*
X63500000Y-111760000D02*
X63500000Y-118110000D01*
X74040000Y-147700000D02*
X80000000Y-147700000D01*
X133700000Y-32700000D02*
X129900000Y-32700000D01*
X132800000Y-37600000D02*
X134300000Y-36100000D01*
X71755000Y-126365000D02*
X71755000Y-145415000D01*
X108500000Y-52660000D02*
X112395000Y-48765000D01*
%TO.N,MA1*%
X55880000Y-114935000D02*
X57785000Y-116840000D01*
X81915000Y-78105000D02*
X81915000Y-48895000D01*
X55880000Y-102936566D02*
X55880000Y-114935000D01*
X67224800Y-166284800D02*
X67224800Y-174100000D01*
X66675000Y-128905000D02*
X66675000Y-165735000D01*
X50800000Y-100680783D02*
X53624217Y-100680783D01*
X80000000Y-100580000D02*
X76450000Y-100580000D01*
X75565000Y-84455000D02*
X81915000Y-78105000D01*
X83230000Y-47580000D02*
X85680000Y-47580000D01*
X75565000Y-99695000D02*
X75565000Y-84455000D01*
X57785000Y-120015000D02*
X66675000Y-128905000D01*
X76450000Y-100580000D02*
X75565000Y-99695000D01*
X57785000Y-116840000D02*
X57785000Y-120015000D01*
X66675000Y-165735000D02*
X67224800Y-166284800D01*
X53624217Y-100680783D02*
X55880000Y-102936566D01*
X81915000Y-48895000D02*
X83230000Y-47580000D01*
X85680000Y-47580000D02*
X87620000Y-47580000D01*
D23*
%TO.N,GND*%
X45087102Y-95467102D02*
X45120000Y-95500000D01*
X80000000Y-142620000D02*
X77215000Y-142620000D01*
X45120000Y-42500000D02*
X45120000Y-30780000D01*
X145620000Y-135000000D02*
X145620000Y-133145000D01*
X163620000Y-40380000D02*
X163995000Y-40005000D01*
D24*
X112140000Y-167640000D02*
X112700000Y-168200000D01*
D23*
X217620000Y-129852000D02*
X218567000Y-128905000D01*
X184120000Y-42500000D02*
X184120000Y-40190000D01*
X217620000Y-93657000D02*
X217932000Y-93345000D01*
X163620000Y-42500000D02*
X163620000Y-40380000D01*
X120650000Y-150495000D02*
X107950000Y-163195000D01*
X45085000Y-134965000D02*
X45120000Y-135000000D01*
X107950000Y-163195000D02*
X105855000Y-163195000D01*
X116120000Y-42500000D02*
X116120000Y-40090000D01*
X134030000Y-47580000D02*
X133985000Y-47625000D01*
X21162000Y-137778500D02*
X25654000Y-133286500D01*
X80000000Y-103120000D02*
X70100000Y-103120000D01*
X77215000Y-142620000D02*
X76200000Y-141605000D01*
X25654000Y-133286500D02*
X25654000Y-129540000D01*
X105855000Y-163195000D02*
X101600000Y-167450000D01*
X184120000Y-93375000D02*
X184150000Y-93345000D01*
X45087102Y-93347102D02*
X45087102Y-95467102D01*
X68580000Y-101600000D02*
X68580000Y-93345000D01*
X145620000Y-93902000D02*
X146177000Y-93345000D01*
X184120000Y-135000000D02*
X184120000Y-132110000D01*
X21162000Y-154940000D02*
X21162000Y-137778500D01*
X235534400Y-174200000D02*
X235534400Y-169765600D01*
X70100000Y-103120000D02*
X68580000Y-101600000D01*
X45085000Y-132080000D02*
X45085000Y-134965000D01*
X235534400Y-93395600D02*
X235585000Y-93345000D01*
D24*
X101600000Y-167640000D02*
X102870000Y-167640000D01*
X112700000Y-168200000D02*
X112700000Y-174200000D01*
D23*
X184120000Y-95500000D02*
X184120000Y-93375000D01*
X184120000Y-132110000D02*
X184150000Y-132080000D01*
X145620000Y-133145000D02*
X146685000Y-132080000D01*
X76200000Y-141605000D02*
X76200000Y-132080000D01*
X184120000Y-40190000D02*
X184305000Y-40005000D01*
X138000000Y-47580000D02*
X134030000Y-47580000D01*
X145620000Y-95500000D02*
X145620000Y-93902000D01*
X217620000Y-42500000D02*
X217620000Y-40190000D01*
D24*
X102870000Y-167640000D02*
X112140000Y-167640000D01*
D23*
X217620000Y-95500000D02*
X217620000Y-93657000D01*
X217620000Y-40190000D02*
X217805000Y-40005000D01*
X87630000Y-40005000D02*
X87630000Y-42490000D01*
X217620000Y-135000000D02*
X217620000Y-129852000D01*
X37973000Y-132080000D02*
X32766000Y-132080000D01*
X116840000Y-132080000D02*
X116120000Y-135000000D01*
X116120000Y-40090000D02*
X116205000Y-40005000D01*
X116205000Y-93345000D02*
X116205000Y-95415000D01*
X87630000Y-42490000D02*
X87620000Y-42500000D01*
X116205000Y-95415000D02*
X116120000Y-95500000D01*
D22*
%TO.N,~{T0.5}*%
X57150000Y-85090000D02*
X42545000Y-85090000D01*
X80000000Y-113280000D02*
X70100000Y-113280000D01*
X80010000Y-157861000D02*
X80010000Y-152790000D01*
X42545000Y-85090000D02*
X40640000Y-86995000D01*
X73405000Y-152780000D02*
X69215000Y-148590000D01*
X211760000Y-159460000D02*
X211760000Y-174200000D01*
X69215000Y-148590000D02*
X69215000Y-127635000D01*
X40640000Y-86995000D02*
X40640000Y-102235000D01*
X60325000Y-118745000D02*
X60325000Y-113030000D01*
X39755000Y-103120000D02*
X37500000Y-103120000D01*
X40640000Y-102235000D02*
X39755000Y-103120000D01*
X210185000Y-157885000D02*
X211760000Y-159460000D01*
X59055000Y-111760000D02*
X59055000Y-86995000D01*
X59055000Y-86995000D02*
X57150000Y-85090000D01*
X80000000Y-152780000D02*
X73405000Y-152780000D01*
X69215000Y-127635000D02*
X60325000Y-118745000D01*
X210185000Y-157861000D02*
X210185000Y-157885000D01*
X70100000Y-113280000D02*
X69850000Y-113030000D01*
X60325000Y-113030000D02*
X59055000Y-111760000D01*
%TO.N,MB0*%
X85344000Y-89916000D02*
X85344000Y-97536000D01*
X207010000Y-128270000D02*
X210185000Y-128270000D01*
X52705000Y-123190000D02*
X59055000Y-129540000D01*
X213360000Y-121920000D02*
X213360000Y-92075000D01*
X108500000Y-100580000D02*
X99945000Y-100580000D01*
X84836000Y-89408000D02*
X85344000Y-89916000D01*
X97405000Y-98040000D02*
X87620000Y-98040000D01*
X84836000Y-88900000D02*
X84836000Y-89408000D01*
X85344000Y-97536000D02*
X85848000Y-98040000D01*
X212090000Y-123190000D02*
X213360000Y-121920000D01*
X48895000Y-100965000D02*
X48895000Y-100330000D01*
X48510000Y-100580000D02*
X48895000Y-100965000D01*
X51435000Y-97790000D02*
X51435000Y-91440000D01*
X206375000Y-133985000D02*
X206375000Y-128905000D01*
X51685000Y-91190000D02*
X51685000Y-89031000D01*
X48895000Y-100330000D02*
X51435000Y-97790000D01*
X51200800Y-166770800D02*
X51200800Y-174100000D01*
X59055000Y-129540000D02*
X59055000Y-158916600D01*
X99945000Y-100580000D02*
X97405000Y-98040000D01*
X210000000Y-135000000D02*
X207390000Y-135000000D01*
X51435000Y-91440000D02*
X51685000Y-91190000D01*
X59055000Y-158916600D02*
X51200800Y-166770800D01*
X210185000Y-128270000D02*
X212090000Y-126365000D01*
X85848000Y-98040000D02*
X87620000Y-98040000D01*
X48895000Y-117475000D02*
X52705000Y-121285000D01*
X45120000Y-100580000D02*
X48510000Y-100580000D01*
X206375000Y-128905000D02*
X207010000Y-128270000D01*
X52705000Y-121285000D02*
X52705000Y-123190000D01*
X51685000Y-89031000D02*
X51816000Y-88900000D01*
X207390000Y-135000000D02*
X206375000Y-133985000D01*
X48895000Y-100965000D02*
X48895000Y-117475000D01*
X212090000Y-126365000D02*
X212090000Y-123190000D01*
X213360000Y-92075000D02*
X210185000Y-88900000D01*
%TO.N,MB1*%
X47375000Y-117860000D02*
X47375000Y-111375000D01*
X51435000Y-121920000D02*
X47375000Y-117860000D01*
X44958000Y-90805000D02*
X43180000Y-92583000D01*
X49005200Y-166121600D02*
X47238400Y-167888400D01*
X43561000Y-104394000D02*
X46609000Y-104394000D01*
X108500000Y-103120000D02*
X99945000Y-103120000D01*
X47238400Y-174100000D02*
X47238400Y-167888400D01*
X47375000Y-105160000D02*
X46609000Y-104394000D01*
X49143400Y-166121600D02*
X49005200Y-166121600D01*
D25*
X46609000Y-104394000D02*
X47244000Y-105029000D01*
D22*
X57785000Y-157480000D02*
X57785000Y-130175000D01*
X43180000Y-92583000D02*
X43180000Y-104013000D01*
X46740000Y-110740000D02*
X47375000Y-111375000D01*
X84832000Y-100580000D02*
X87620000Y-100580000D01*
X49143400Y-166121600D02*
X57785000Y-157480000D01*
X97405000Y-100580000D02*
X87620000Y-100580000D01*
X83312000Y-96012000D02*
X83820000Y-96520000D01*
X57785000Y-130175000D02*
X51435000Y-123825000D01*
X99945000Y-103120000D02*
X97405000Y-100580000D01*
X47375000Y-111375000D02*
X47375000Y-105160000D01*
X43180000Y-104013000D02*
X43561000Y-104394000D01*
X51435000Y-123825000D02*
X51435000Y-121920000D01*
X45120000Y-110740000D02*
X46740000Y-110740000D01*
X83820000Y-96520000D02*
X83820000Y-99568000D01*
X83312000Y-90932000D02*
X83312000Y-96012000D01*
X83820000Y-99568000D02*
X84832000Y-100580000D01*
D26*
X47375000Y-105160000D02*
X47244000Y-105029000D01*
D22*
%TO.N,MB2*%
X42545000Y-137505000D02*
X42690000Y-137650000D01*
X103505000Y-125095000D02*
X110490000Y-118110000D01*
X50165000Y-122555000D02*
X50165000Y-124460000D01*
X43276000Y-170370000D02*
X43276000Y-174100000D01*
X42690000Y-137650000D02*
X45120000Y-140080000D01*
X42545000Y-119380000D02*
X42545000Y-125095000D01*
X110490000Y-106045000D02*
X110105000Y-105660000D01*
X110105000Y-105660000D02*
X108500000Y-105660000D01*
X46355000Y-118745000D02*
X50165000Y-122555000D01*
X43180000Y-118745000D02*
X42545000Y-119380000D01*
X56515000Y-157131000D02*
X43276000Y-170370000D01*
X42545000Y-125095000D02*
X42545000Y-137505000D01*
X56515000Y-130810000D02*
X56515000Y-157131000D01*
X43180000Y-118745000D02*
X46355000Y-118745000D01*
X108500000Y-105660000D02*
X87620000Y-105660000D01*
X50165000Y-124460000D02*
X56515000Y-130810000D01*
X110490000Y-118110000D02*
X110490000Y-106045000D01*
%TO.N,MB3*%
X45720000Y-120650000D02*
X46355000Y-120650000D01*
X168275000Y-60960000D02*
X169545000Y-59690000D01*
X103255000Y-120265000D02*
X102870000Y-120650000D01*
X165735000Y-120650000D02*
X165735000Y-117475000D01*
X48895000Y-123190000D02*
X48895000Y-125095000D01*
X46355000Y-120650000D02*
X48895000Y-123190000D01*
X48895000Y-125095000D02*
X55245000Y-131445000D01*
X108500000Y-108200000D02*
X103255000Y-108200000D01*
X39313600Y-167696400D02*
X39313600Y-174100000D01*
X158115000Y-109855000D02*
X158115000Y-69215000D01*
X165735000Y-117475000D02*
X158115000Y-109855000D01*
X168275000Y-69215000D02*
X168275000Y-60960000D01*
X55245000Y-151765000D02*
X39313600Y-167696400D01*
X44450000Y-124460000D02*
X50800000Y-130810000D01*
X169545000Y-59690000D02*
X169545000Y-46355000D01*
X169545000Y-46355000D02*
X168230000Y-45040000D01*
X168230000Y-45040000D02*
X163620000Y-45040000D01*
X55245000Y-131445000D02*
X55245000Y-151765000D01*
X103255000Y-108200000D02*
X87620000Y-108200000D01*
X50800000Y-144145000D02*
X49785000Y-145160000D01*
X50800000Y-130810000D02*
X50800000Y-144145000D01*
X45720000Y-120650000D02*
X44450000Y-121920000D01*
X163620000Y-47580000D02*
X163620000Y-45040000D01*
X103255000Y-108200000D02*
X103255000Y-120265000D01*
X44450000Y-121920000D02*
X44450000Y-124460000D01*
X49785000Y-145160000D02*
X45120000Y-145160000D01*
%TO.N,MB4*%
X116120000Y-113750000D02*
X116120000Y-120565000D01*
X46355000Y-124460000D02*
X53975000Y-132080000D01*
X35525600Y-174100000D02*
X35525600Y-166658400D01*
X116120000Y-110740000D02*
X116120000Y-113750000D01*
X159385000Y-113665000D02*
X154305000Y-108585000D01*
X45120000Y-153508000D02*
X45120000Y-150240000D01*
X97155000Y-111760000D02*
X96135000Y-110740000D01*
X46355000Y-123190000D02*
X46355000Y-124460000D01*
X97155000Y-137795000D02*
X97155000Y-111760000D01*
X35525600Y-166658400D02*
X37084000Y-165100000D01*
X116120000Y-120565000D02*
X118745000Y-123190000D01*
X37084000Y-165100000D02*
X37084000Y-161544000D01*
X99440000Y-140080000D02*
X97155000Y-137795000D01*
X37084000Y-161544000D02*
X45120000Y-153508000D01*
X154305000Y-108585000D02*
X154305000Y-54355000D01*
X154305000Y-54355000D02*
X156000000Y-52660000D01*
X53975000Y-149225000D02*
X52960000Y-150240000D01*
X53975000Y-132080000D02*
X53975000Y-149225000D01*
X52960000Y-150240000D02*
X45120000Y-150240000D01*
X108500000Y-140080000D02*
X99440000Y-140080000D01*
X96135000Y-110740000D02*
X87620000Y-110740000D01*
%TO.N,Net-(U10-Pad9)*%
X106425000Y-124715000D02*
X111760000Y-119380000D01*
X104775000Y-90805000D02*
X104775000Y-97155000D01*
X104775000Y-97155000D02*
X105660000Y-98040000D01*
X145620000Y-65200000D02*
X132715000Y-78105000D01*
X111760000Y-99060000D02*
X110740000Y-98040000D01*
X167005000Y-106045000D02*
X167005000Y-100330000D01*
X106425000Y-137540000D02*
X106425000Y-124715000D01*
X176500000Y-132685000D02*
X173990000Y-130175000D01*
X173990000Y-113030000D02*
X167005000Y-106045000D01*
X176500000Y-135000000D02*
X176500000Y-132685000D01*
X113030000Y-82550000D02*
X104775000Y-90805000D01*
X117475000Y-78105000D02*
X113030000Y-82550000D01*
X145620000Y-57740000D02*
X145620000Y-65200000D01*
X111760000Y-119380000D02*
X111760000Y-99060000D01*
X110740000Y-98040000D02*
X108500000Y-98040000D01*
X173990000Y-130175000D02*
X173990000Y-113030000D01*
X105660000Y-98040000D02*
X108500000Y-98040000D01*
X167005000Y-100330000D02*
X167005000Y-82550000D01*
X132715000Y-78105000D02*
X117475000Y-78105000D01*
X108500000Y-137540000D02*
X106425000Y-137540000D01*
%TO.N,MB7*%
X23638400Y-161781600D02*
X23638400Y-141461600D01*
X109855000Y-77470000D02*
X114935000Y-77470000D01*
X101600000Y-137160000D02*
X104140000Y-137160000D01*
X99695000Y-87630000D02*
X109855000Y-77470000D01*
X99695000Y-128270000D02*
X99695000Y-110490000D01*
X160020000Y-73025000D02*
X160020000Y-55880000D01*
X99695000Y-135255000D02*
X101600000Y-137160000D01*
X99695000Y-128270000D02*
X99695000Y-135255000D01*
X110490000Y-156210000D02*
X110490000Y-148590000D01*
X108245000Y-147955000D02*
X108500000Y-147700000D01*
X110490000Y-148590000D02*
X109600000Y-147700000D01*
X77470000Y-158115000D02*
X85090000Y-165735000D01*
X104140000Y-157480000D02*
X109220000Y-157480000D01*
X104140000Y-149860000D02*
X106045000Y-147955000D01*
X27560000Y-137540000D02*
X37500000Y-137540000D01*
X109600000Y-147700000D02*
X108500000Y-147700000D01*
X119380000Y-73025000D02*
X128905000Y-73025000D01*
X114935000Y-77470000D02*
X119380000Y-73025000D01*
X160020000Y-55880000D02*
X160700000Y-55200000D01*
X23638400Y-141461600D02*
X27560000Y-137540000D01*
X99695000Y-96520000D02*
X99695000Y-87630000D01*
X160700000Y-55200000D02*
X163620000Y-55200000D01*
X104140000Y-156845000D02*
X104140000Y-157480000D01*
X96520000Y-165735000D02*
X104140000Y-158115000D01*
X97535000Y-150240000D02*
X104140000Y-156845000D01*
X87620000Y-150240000D02*
X97535000Y-150240000D01*
X85090000Y-165735000D02*
X96520000Y-165735000D01*
X109220000Y-157480000D02*
X110490000Y-156210000D01*
X104140000Y-158115000D02*
X104140000Y-157480000D01*
X106045000Y-147955000D02*
X108245000Y-147955000D01*
X23638400Y-174100000D02*
X23638400Y-161781600D01*
%TO.N,MB6*%
X27600800Y-164169200D02*
X27600800Y-160994200D01*
X27600800Y-160994200D02*
X27600800Y-145119200D01*
X106300000Y-145160000D02*
X108500000Y-145160000D01*
X87620000Y-147700000D02*
X94995000Y-147700000D01*
X103505000Y-147955000D02*
X106300000Y-145160000D01*
X85725000Y-147955000D02*
X85980000Y-147700000D01*
X94995000Y-147700000D02*
X95250000Y-147955000D01*
X85725000Y-154305000D02*
X85725000Y-147955000D01*
X30100000Y-142620000D02*
X37500000Y-142620000D01*
X27600800Y-174100000D02*
X27600800Y-164169200D01*
X85980000Y-147700000D02*
X87620000Y-147700000D01*
X27600800Y-145119200D02*
X30100000Y-142620000D01*
X102235000Y-147955000D02*
X103505000Y-147955000D01*
X92710000Y-161925000D02*
X92710000Y-161290000D01*
X92710000Y-161290000D02*
X85725000Y-154305000D01*
%TO.N,MB5*%
X94995000Y-145160000D02*
X95250000Y-145415000D01*
X31563200Y-150300800D02*
X34164000Y-147700000D01*
X88265000Y-160020000D02*
X84455000Y-156210000D01*
X34164000Y-147700000D02*
X37500000Y-147700000D01*
X103505000Y-145415000D02*
X106300000Y-142620000D01*
X84455000Y-146050000D02*
X85345000Y-145160000D01*
X31563200Y-160020000D02*
X31563200Y-150300800D01*
X85345000Y-145160000D02*
X87620000Y-145160000D01*
X84455000Y-156210000D02*
X84455000Y-146050000D01*
X31563200Y-174100000D02*
X31563200Y-160020000D01*
X106300000Y-142620000D02*
X108500000Y-142620000D01*
X87620000Y-145160000D02*
X94995000Y-145160000D01*
X102235000Y-145415000D02*
X103505000Y-145415000D01*
%TO.N,Net-(U4-Pad7)*%
X141842500Y-124062500D02*
X148590000Y-130810000D01*
X148590000Y-135890000D02*
X146940000Y-137540000D01*
X123190000Y-136525000D02*
X123190000Y-121285000D01*
X122555000Y-120650000D02*
X122555000Y-117475000D01*
X145620000Y-137540000D02*
X146960000Y-137540000D01*
X146940000Y-137540000D02*
X145620000Y-137540000D01*
X119635000Y-140080000D02*
X123190000Y-136525000D01*
X123190000Y-116840000D02*
X125160000Y-116840000D01*
X116120000Y-140080000D02*
X119635000Y-140080000D01*
X123190000Y-121285000D02*
X122555000Y-120650000D01*
X126000000Y-121625000D02*
X128437500Y-124062500D01*
X126000000Y-117680000D02*
X126000000Y-121625000D01*
X148590000Y-130810000D02*
X148590000Y-135890000D01*
X122555000Y-117475000D02*
X123190000Y-116840000D01*
X128437500Y-124062500D02*
X141842500Y-124062500D01*
X125160000Y-116840000D02*
X126000000Y-117680000D01*
%TO.N,Net-(U4-Pad4)*%
X124460000Y-137795000D02*
X119635000Y-142620000D01*
X125095000Y-126365000D02*
X124460000Y-127000000D01*
X145620000Y-145160000D02*
X142152500Y-141692500D01*
X124460000Y-127000000D02*
X124460000Y-137795000D01*
X138430000Y-126365000D02*
X125095000Y-126365000D01*
X142152500Y-130262500D02*
X142240000Y-130175000D01*
X142152500Y-141692500D02*
X142152500Y-130262500D01*
X119635000Y-142620000D02*
X116120000Y-142620000D01*
X142240000Y-130175000D02*
X138430000Y-126365000D01*
%TO.N,Net-(U4-Pad9)*%
X130430000Y-135000000D02*
X138000000Y-135000000D01*
X120270000Y-145160000D02*
X130430000Y-135000000D01*
X116120000Y-145160000D02*
X120270000Y-145160000D01*
%TO.N,Net-(U4-Pad12)*%
X122175000Y-147700000D02*
X132080000Y-137795000D01*
X133985000Y-142240000D02*
X137620000Y-142240000D01*
X132080000Y-137795000D02*
X133985000Y-137795000D01*
X116120000Y-147700000D02*
X122175000Y-147700000D01*
X137620000Y-142240000D02*
X138000000Y-142620000D01*
%TO.N,~{F.23.OPR+IOT}*%
X156000000Y-38300000D02*
X157800000Y-36500000D01*
X156000000Y-42500000D02*
X156000000Y-45040000D01*
X170900000Y-39000000D02*
X170900000Y-67500000D01*
X170900000Y-67500000D02*
X170000000Y-68400000D01*
X184150000Y-163830000D02*
X184150000Y-174073200D01*
X142000000Y-106500000D02*
X142000000Y-83200000D01*
X131127500Y-159702500D02*
X140597500Y-159702500D01*
X140200000Y-108300000D02*
X140200000Y-112895000D01*
X156000000Y-42500000D02*
X156000000Y-38300000D01*
X155575000Y-128270000D02*
X155575000Y-158525000D01*
X138000000Y-108200000D02*
X140100000Y-108200000D01*
X138000000Y-108200000D02*
X140300000Y-108200000D01*
X140100000Y-108200000D02*
X140200000Y-108300000D01*
X140300000Y-108200000D02*
X142000000Y-106500000D01*
X140597500Y-159702500D02*
X145620000Y-154680000D01*
X155575000Y-158525000D02*
X150270000Y-163830000D01*
X184150000Y-174073200D02*
X184023200Y-174200000D01*
X145620000Y-154680000D02*
X145620000Y-152780000D01*
X168400000Y-36500000D02*
X170900000Y-39000000D01*
X142000000Y-83200000D02*
X137900000Y-79100000D01*
X170000000Y-68400000D02*
X170000000Y-79000000D01*
X157800000Y-36500000D02*
X168400000Y-36500000D01*
X140200000Y-112895000D02*
X155575000Y-128270000D01*
X127000000Y-163830000D02*
X131127500Y-159702500D01*
%TO.N,MB=0*%
X41020000Y-142620000D02*
X40640000Y-142240000D01*
X45120000Y-108200000D02*
X40890000Y-108200000D01*
X40640000Y-145415000D02*
X40640000Y-146685000D01*
X40640000Y-135890000D02*
X40640000Y-110490000D01*
X78740000Y-161925000D02*
X83185000Y-166370000D01*
X39750000Y-135000000D02*
X37500000Y-135000000D01*
X74295000Y-161925000D02*
X78740000Y-161925000D01*
X41910000Y-88900000D02*
X43815000Y-86995000D01*
X40640000Y-146685000D02*
X41655000Y-147700000D01*
X40640000Y-139825000D02*
X40640000Y-135890000D01*
X29845000Y-133350000D02*
X29845000Y-132080000D01*
X40385000Y-140080000D02*
X40640000Y-139825000D01*
X50165000Y-88265000D02*
X50165000Y-97155000D01*
X34036000Y-158496000D02*
X41655000Y-150877000D01*
X47625000Y-138430000D02*
X47625000Y-142240000D01*
X73025000Y-166370000D02*
X73025000Y-163195000D01*
X41910000Y-104775000D02*
X41910000Y-88900000D01*
X40640000Y-106045000D02*
X41910000Y-104775000D01*
X45120000Y-137540000D02*
X46735000Y-137540000D01*
X49280000Y-98040000D02*
X45120000Y-98040000D01*
X40640000Y-107950000D02*
X40640000Y-106045000D01*
X40640000Y-142240000D02*
X40640000Y-145415000D01*
X41655000Y-147700000D02*
X45120000Y-147700000D01*
X46735000Y-137540000D02*
X47625000Y-138430000D01*
X41655000Y-150877000D02*
X41655000Y-147700000D01*
X37500000Y-145160000D02*
X40385000Y-145160000D01*
X34036000Y-166624000D02*
X34036000Y-158496000D01*
X48895000Y-86995000D02*
X50165000Y-88265000D01*
X43815000Y-86995000D02*
X48895000Y-86995000D01*
X47245000Y-142620000D02*
X47625000Y-142240000D01*
X40640000Y-110490000D02*
X40640000Y-107950000D01*
X45120000Y-142620000D02*
X47245000Y-142620000D01*
X40640000Y-137795000D02*
X40640000Y-142240000D01*
X40890000Y-108200000D02*
X40640000Y-107950000D01*
X45120000Y-142620000D02*
X41020000Y-142620000D01*
X37500000Y-135000000D02*
X31495000Y-135000000D01*
X50165000Y-97155000D02*
X49280000Y-98040000D01*
X40640000Y-135890000D02*
X39750000Y-135000000D01*
X83185000Y-173815000D02*
X82900000Y-174100000D01*
X73025000Y-163195000D02*
X74295000Y-161925000D01*
X37500000Y-140080000D02*
X40385000Y-140080000D01*
X83185000Y-166370000D02*
X83185000Y-173815000D01*
X31495000Y-135000000D02*
X29845000Y-133350000D01*
X40385000Y-145160000D02*
X40640000Y-145415000D01*
%TO.N,Net-(R1-Pad2)*%
X150000000Y-49035000D02*
X150000000Y-47840000D01*
X150000000Y-49035000D02*
X150000000Y-54470000D01*
X147600000Y-56870000D02*
X147600000Y-69100000D01*
X156000000Y-50120000D02*
X150620000Y-50120000D01*
X150000000Y-54470000D02*
X147600000Y-56870000D01*
X150620000Y-50120000D02*
X150000000Y-49500000D01*
X150000000Y-49500000D02*
X150000000Y-49035000D01*
%TO.N,Net-(R2-Pad2)*%
X156000000Y-55200000D02*
X157525000Y-55200000D01*
X163620000Y-52660000D02*
X166160000Y-52660000D01*
X160065000Y-52660000D02*
X163620000Y-52660000D01*
X157525000Y-55200000D02*
X160065000Y-52660000D01*
X166160000Y-52660000D02*
X167000000Y-51820000D01*
X167000000Y-47840000D02*
X167000000Y-51820000D01*
%TO.N,Z-BIT*%
X168275000Y-135255000D02*
X168275000Y-116205000D01*
X79375000Y-173662600D02*
X78937600Y-174100000D01*
X168275000Y-116205000D02*
X161925000Y-109855000D01*
X114935000Y-167640000D02*
X114935000Y-166370000D01*
X115570000Y-165735000D02*
X116205000Y-165735000D01*
X155740000Y-47840000D02*
X156000000Y-47580000D01*
X162120000Y-50120000D02*
X159580000Y-47580000D01*
X162300000Y-57800000D02*
X163560000Y-57800000D01*
X161925000Y-109855000D02*
X161925000Y-58175000D01*
X138000000Y-150240000D02*
X131700000Y-150240000D01*
X161925000Y-58175000D02*
X162300000Y-57800000D01*
X131700000Y-150240000D02*
X116205000Y-165735000D01*
X153000000Y-47840000D02*
X155740000Y-47840000D01*
X159580000Y-47580000D02*
X156000000Y-47580000D01*
X163620000Y-50120000D02*
X162120000Y-50120000D01*
X79375000Y-167640000D02*
X79375000Y-173662600D01*
X163560000Y-57800000D02*
X163620000Y-57740000D01*
X114935000Y-166370000D02*
X115570000Y-165735000D01*
%TO.N,SR7*%
X116662400Y-168452600D02*
X127635000Y-157480000D01*
X138810000Y-145160000D02*
X138000000Y-145160000D01*
X139065000Y-157480000D02*
X139700000Y-156845000D01*
X116662400Y-174200000D02*
X116662400Y-168452600D01*
X127635000Y-157480000D02*
X139065000Y-157480000D01*
X139700000Y-146050000D02*
X138810000Y-145160000D01*
X139700000Y-156845000D02*
X139700000Y-146050000D01*
%TO.N,SR0*%
X130500000Y-112160000D02*
X118920000Y-100580000D01*
X144399200Y-174200000D02*
X144399200Y-167500800D01*
X137700000Y-119300000D02*
X130560000Y-112160000D01*
X144399200Y-167500800D02*
X154305000Y-157595000D01*
X154305000Y-157595000D02*
X154305000Y-128905000D01*
X118920000Y-100580000D02*
X116120000Y-100580000D01*
X130560000Y-112160000D02*
X130500000Y-112160000D01*
X154305000Y-128905000D02*
X144700000Y-119300000D01*
X144700000Y-119300000D02*
X137700000Y-119300000D01*
%TO.N,SR1*%
X153035000Y-156965000D02*
X153035000Y-129540000D01*
X142865000Y-165735000D02*
X144265000Y-165735000D01*
X140436800Y-168163200D02*
X142865000Y-165735000D01*
X129500000Y-114000000D02*
X118620000Y-103120000D01*
X129500000Y-114005000D02*
X129500000Y-114000000D01*
X118620000Y-103120000D02*
X116120000Y-103120000D01*
X140436800Y-174200000D02*
X140436800Y-168163200D01*
X135997500Y-120502500D02*
X129500000Y-114005000D01*
X143997500Y-120502500D02*
X135997500Y-120502500D01*
X153035000Y-129540000D02*
X143997500Y-120502500D01*
X144265000Y-165735000D02*
X153035000Y-156965000D01*
%TO.N,SR2*%
X143545000Y-121955000D02*
X134545000Y-121955000D01*
X128500000Y-115820000D02*
X118340000Y-105660000D01*
X118340000Y-105660000D02*
X116120000Y-105660000D01*
X128500000Y-115910000D02*
X128500000Y-115820000D01*
X136474400Y-168525600D02*
X140535000Y-164465000D01*
X143635000Y-164465000D02*
X151765000Y-156335000D01*
X151765000Y-130175000D02*
X143545000Y-121955000D01*
X140535000Y-164465000D02*
X143635000Y-164465000D01*
X134545000Y-121955000D02*
X128500000Y-115910000D01*
X136474400Y-174200000D02*
X136474400Y-168525600D01*
X151765000Y-156335000D02*
X151765000Y-130175000D01*
%TO.N,SR3*%
X127135000Y-116950000D02*
X127050000Y-116950000D01*
X118300000Y-108200000D02*
X116120000Y-108200000D01*
X132512000Y-174200000D02*
X132512000Y-168588000D01*
X132512000Y-168588000D02*
X137905000Y-163195000D01*
X137905000Y-163195000D02*
X143005000Y-163195000D01*
X133092500Y-122907500D02*
X127135000Y-116950000D01*
X143005000Y-163195000D02*
X150495000Y-155705000D01*
X127050000Y-116950000D02*
X118300000Y-108200000D01*
X150495000Y-130810000D02*
X142592500Y-122907500D01*
X150495000Y-155705000D02*
X150495000Y-130810000D01*
X142592500Y-122907500D02*
X133092500Y-122907500D01*
%TO.N,SR4*%
X128549600Y-174200000D02*
X128549600Y-166725400D01*
X133350000Y-161925000D02*
X142375000Y-161925000D01*
X149225000Y-155075000D02*
X149225000Y-140970000D01*
X148335000Y-140080000D02*
X145620000Y-140080000D01*
X142375000Y-161925000D02*
X149225000Y-155075000D01*
X128549600Y-166725400D02*
X133350000Y-161925000D01*
X149225000Y-140970000D02*
X148335000Y-140080000D01*
%TO.N,SR5*%
X147955000Y-148590000D02*
X147065000Y-147700000D01*
X132715000Y-160655000D02*
X141645000Y-160655000D01*
X147065000Y-147700000D02*
X145620000Y-147700000D01*
X141645000Y-160655000D02*
X147955000Y-154345000D01*
X147955000Y-154345000D02*
X147955000Y-148590000D01*
X124587200Y-174200000D02*
X124587200Y-168782800D01*
X124587200Y-168782800D02*
X132715000Y-160655000D01*
%TO.N,SR6*%
X140017500Y-158432500D02*
X140970000Y-157480000D01*
X139700000Y-138430000D02*
X138810000Y-137540000D01*
X120624800Y-174200000D02*
X120624800Y-167030200D01*
X140970000Y-157480000D02*
X140970000Y-144145000D01*
X120624800Y-167030200D02*
X129222500Y-158432500D01*
X129222500Y-158432500D02*
X140017500Y-158432500D01*
X138810000Y-137540000D02*
X138000000Y-137540000D01*
X139700000Y-142875000D02*
X139700000Y-138430000D01*
X140970000Y-144145000D02*
X139700000Y-142875000D01*
%TO.N,~{ISZ}*%
X159400000Y-162470006D02*
X156135006Y-165735000D01*
X159400000Y-126380000D02*
X159400000Y-162470006D01*
X77470000Y-165735000D02*
X74975200Y-168229800D01*
X145620000Y-112600000D02*
X159400000Y-126380000D01*
X145620000Y-110740000D02*
X145620000Y-112600000D01*
X74975200Y-168229800D02*
X74975200Y-174100000D01*
%TO.N,/~{T2-9.JMS+DCA}*%
X176500000Y-52660000D02*
X184120000Y-52660000D01*
%TO.N,Net-(U17-Pad8)*%
X210820000Y-121920000D02*
X212090000Y-120650000D01*
X211705000Y-95500000D02*
X210000000Y-95500000D01*
X210000000Y-137540000D02*
X208025000Y-137540000D01*
X212090000Y-120650000D02*
X212090000Y-95885000D01*
X208025000Y-137540000D02*
X205105000Y-134620000D01*
X209550000Y-127000000D02*
X210820000Y-125730000D01*
X210820000Y-125730000D02*
X210820000Y-121920000D01*
X205105000Y-134620000D02*
X205105000Y-127635000D01*
X212090000Y-95885000D02*
X211705000Y-95500000D01*
X205740000Y-127000000D02*
X209550000Y-127000000D01*
X205105000Y-127635000D02*
X205740000Y-127000000D01*
%TO.N,~{T14-21(JMS+JMP})*%
X174300000Y-147700000D02*
X176500000Y-147700000D01*
X179400000Y-144800000D02*
X179400000Y-111788630D01*
X182988630Y-108200000D02*
X184120000Y-108200000D01*
X179400000Y-111788630D02*
X182988630Y-108200000D01*
X172136000Y-149864000D02*
X174300000Y-147700000D01*
X172136000Y-174200000D02*
X172136000Y-149864000D01*
X176500000Y-147700000D02*
X179400000Y-144800000D01*
%TO.N,Net-(U18-Pad6)*%
X186435000Y-137540000D02*
X186690000Y-137795000D01*
X184120000Y-137540000D02*
X186435000Y-137540000D01*
X205740000Y-137795000D02*
X205740000Y-140335000D01*
X205740000Y-140335000D02*
X208025000Y-142620000D01*
X208025000Y-142620000D02*
X210000000Y-142620000D01*
%TO.N,Net-(U18-Pad12)*%
X217620000Y-137540000D02*
X216280000Y-137540000D01*
X215265000Y-128905000D02*
X217805000Y-126365000D01*
X178300000Y-143360000D02*
X176500000Y-145160000D01*
X215265000Y-136525000D02*
X215265000Y-128905000D01*
X216280000Y-137540000D02*
X215265000Y-136525000D01*
X176530000Y-126365000D02*
X178300000Y-128135000D01*
X178300000Y-128135000D02*
X178300000Y-143360000D01*
%TO.N,Net-(U18-Pad2)*%
X188595000Y-148590000D02*
X187705000Y-147700000D01*
X187705000Y-147700000D02*
X184120000Y-147700000D01*
X217620000Y-147700000D02*
X219455000Y-147700000D01*
X219455000Y-147700000D02*
X220345000Y-148590000D01*
X188595000Y-154940000D02*
X188595000Y-148590000D01*
X220345000Y-148590000D02*
X220345000Y-154940000D01*
%TO.N,C-BUS*%
X207645000Y-147637500D02*
X207265000Y-147700000D01*
X220980000Y-104775000D02*
X220980000Y-124066004D01*
X213000000Y-140000000D02*
X212920000Y-140080000D01*
X207265000Y-147700000D02*
X210000000Y-147700000D01*
X217620000Y-142620000D02*
X215620000Y-142620000D01*
X212470000Y-147700000D02*
X210000000Y-147700000D01*
X217620000Y-103120000D02*
X217620000Y-100580000D01*
X220406002Y-124640002D02*
X215084998Y-124640002D01*
X217620000Y-103120000D02*
X219325000Y-103120000D01*
X220980000Y-124066004D02*
X220406002Y-124640002D01*
X219325000Y-103120000D02*
X220980000Y-104775000D01*
X213000000Y-140000000D02*
X213000000Y-133500000D01*
X219684800Y-160384800D02*
X213995000Y-154695000D01*
X215084998Y-124640002D02*
X213000000Y-126725000D01*
X213995000Y-149225000D02*
X212470000Y-147700000D01*
X213995000Y-154695000D02*
X213995000Y-149225000D01*
X209260062Y-133500000D02*
X207825010Y-132064948D01*
X219684800Y-174200000D02*
X219684800Y-160384800D01*
X212920000Y-140080000D02*
X210000000Y-140080000D01*
X213000000Y-133500000D02*
X209260062Y-133500000D01*
X213000000Y-126725000D02*
X213000000Y-133500000D01*
X215620000Y-142620000D02*
X213000000Y-140000000D01*
%TO.N,B-BUS*%
X223647200Y-161647200D02*
X217620000Y-155620000D01*
X217620000Y-155620000D02*
X217620000Y-150240000D01*
X223647200Y-174200000D02*
X223647200Y-161647200D01*
%TO.N,Net-(U15-Pad3)*%
X207010000Y-111190000D02*
X207010000Y-124460000D01*
X149927500Y-112327500D02*
X149927500Y-106612500D01*
X149860000Y-112395000D02*
X149927500Y-112327500D01*
X161925000Y-124460000D02*
X149860000Y-112395000D01*
X149927500Y-106612500D02*
X148975000Y-105660000D01*
X148975000Y-105660000D02*
X145620000Y-105660000D01*
X210000000Y-108200000D02*
X207010000Y-111190000D01*
%TO.N,T14-21*%
X203835000Y-151765000D02*
X203835000Y-107950000D01*
X207797600Y-155727600D02*
X203835000Y-151765000D01*
X206125000Y-105660000D02*
X210000000Y-105660000D01*
X207797600Y-174200000D02*
X207797600Y-155727600D01*
X203835000Y-107950000D02*
X206125000Y-105660000D01*
%TO.N,Net-(U11-Pad6)*%
X213360000Y-66940000D02*
X217620000Y-62680000D01*
X213360000Y-73025000D02*
X213360000Y-66940000D01*
X217620000Y-62680000D02*
X217620000Y-57740000D01*
X217620000Y-55200000D02*
X217620000Y-57740000D01*
X196850000Y-73025000D02*
X196850000Y-50165000D01*
X196850000Y-50165000D02*
X191725000Y-45040000D01*
X191725000Y-45040000D02*
X184120000Y-45040000D01*
%TO.N,Net-(U11-Pad4)*%
X179705000Y-48260000D02*
X181565000Y-50120000D01*
X181565000Y-50120000D02*
X184120000Y-50120000D01*
X179025000Y-42500000D02*
X179705000Y-43180000D01*
X176500000Y-42500000D02*
X179025000Y-42500000D01*
X179705000Y-43180000D02*
X179705000Y-48260000D01*
%TO.N,Net-(U14-Pad3)*%
X214630000Y-76835000D02*
X211455000Y-73660000D01*
X211455000Y-73660000D02*
X211455000Y-66675000D01*
X215310000Y-52660000D02*
X217620000Y-52660000D01*
X215515000Y-108200000D02*
X214630000Y-107315000D01*
X217620000Y-108200000D02*
X215515000Y-108200000D01*
X214630000Y-107315000D02*
X214630000Y-76835000D01*
X214630000Y-63500000D02*
X214630000Y-53340000D01*
X214630000Y-53340000D02*
X215310000Y-52660000D01*
X211455000Y-66675000D02*
X214630000Y-63500000D01*
%TO.N,Net-(U17-Pad3)*%
X188595000Y-139065000D02*
X187580000Y-140080000D01*
X219325000Y-105660000D02*
X217620000Y-105660000D01*
X188595000Y-122555000D02*
X188595000Y-139065000D01*
X219710000Y-106045000D02*
X219325000Y-105660000D01*
X218440000Y-122555000D02*
X219710000Y-121920000D01*
X219710000Y-121920000D02*
X219710000Y-106045000D01*
X187580000Y-140080000D02*
X184120000Y-140080000D01*
%TO.N,~{T2-9.ISZ}*%
X187960000Y-174174400D02*
X187985600Y-174200000D01*
X185800000Y-150240000D02*
X186690000Y-151130000D01*
X186690000Y-151130000D02*
X186690000Y-156845000D01*
X190500000Y-156845000D02*
X189865000Y-157480000D01*
X184120000Y-150240000D02*
X185800000Y-150240000D01*
X190500000Y-120650000D02*
X190500000Y-156845000D01*
X217620000Y-116655000D02*
X217620000Y-110740000D01*
X217170000Y-117105000D02*
X217620000Y-116655000D01*
X187325000Y-157480000D02*
X186690000Y-156845000D01*
X187960000Y-157480000D02*
X187325000Y-157480000D01*
X217170000Y-120650000D02*
X217170000Y-117105000D01*
X189865000Y-157480000D02*
X187960000Y-157480000D01*
X187960000Y-157480000D02*
X187960000Y-174174400D01*
%TO.N,/R0(1-20*%
X145620000Y-52660000D02*
X145620000Y-55200000D01*
X147955000Y-53975000D02*
X146730000Y-55200000D01*
X147955000Y-35560000D02*
X147955000Y-53975000D01*
X37500000Y-100580000D02*
X32530000Y-100580000D01*
X31100000Y-99150000D02*
X31100000Y-35600000D01*
X32530000Y-100580000D02*
X31100000Y-99150000D01*
X146730000Y-55200000D02*
X145620000Y-55200000D01*
%TO.N,MEMORY_ENABLE*%
X142875000Y-80645000D02*
X140970000Y-78740000D01*
X43770000Y-55200000D02*
X43180000Y-54610000D01*
X148361600Y-174200000D02*
X148361600Y-168503400D01*
X48260000Y-74930000D02*
X48260000Y-56515000D01*
X48260000Y-56515000D02*
X46945000Y-55200000D01*
X43860000Y-50120000D02*
X45120000Y-50120000D01*
X172350010Y-79109990D02*
X172350010Y-74930000D01*
X180340000Y-40005000D02*
X172720000Y-40005000D01*
X172720000Y-40005000D02*
X172350010Y-40374990D01*
X168910000Y-82550000D02*
X172350010Y-79109990D01*
X46945000Y-55200000D02*
X45120000Y-55200000D01*
X184120000Y-47580000D02*
X180975000Y-44435000D01*
X171700000Y-108200000D02*
X168910000Y-105410000D01*
X180975000Y-40640000D02*
X180340000Y-40005000D01*
X45120000Y-55200000D02*
X43770000Y-55200000D01*
X156845000Y-160020000D02*
X156845000Y-127635000D01*
X148361600Y-168503400D02*
X156845000Y-160020000D01*
X43180000Y-50800000D02*
X43860000Y-50120000D01*
X156845000Y-127635000D02*
X142875000Y-113665000D01*
X180975000Y-44435000D02*
X180975000Y-40640000D01*
X176500000Y-108200000D02*
X171700000Y-108200000D01*
X168910000Y-105410000D02*
X168910000Y-82550000D01*
X43180000Y-54610000D02*
X43180000Y-50800000D01*
X172350010Y-40374990D02*
X172350010Y-74930000D01*
X142875000Y-113665000D02*
X142875000Y-80645000D01*
X140970000Y-78740000D02*
X140970000Y-74930000D01*
%TO.N,Net-(U10-Pad6)*%
X116120000Y-98040000D02*
X127385000Y-98040000D01*
X127385000Y-98040000D02*
X129925000Y-95500000D01*
X129925000Y-95500000D02*
X138000000Y-95500000D01*
%TO.N,/T14-21~{ISZ.DEP}T2-9.JMS.DCA*%
X179070000Y-97155000D02*
X179070000Y-66675000D01*
X176500000Y-45040000D02*
X176500000Y-47580000D01*
X178185000Y-98040000D02*
X179070000Y-97155000D01*
X173990000Y-61595000D02*
X173990000Y-50800000D01*
X176500000Y-98040000D02*
X178185000Y-98040000D01*
X176500000Y-47580000D02*
X176500000Y-50120000D01*
X173990000Y-50800000D02*
X174670000Y-50120000D01*
X174670000Y-50120000D02*
X176500000Y-50120000D01*
X179070000Y-66675000D02*
X173990000Y-61595000D01*
%TO.N,T2-9*%
X199390000Y-95885000D02*
X199390000Y-91440000D01*
X195910400Y-167944600D02*
X197485000Y-166370000D01*
X193040000Y-85090000D02*
X193040000Y-56515000D01*
X199390000Y-91440000D02*
X193040000Y-85090000D01*
X193040000Y-56515000D02*
X191725000Y-55200000D01*
X195910400Y-174200000D02*
X195910400Y-167944600D01*
X197485000Y-166370000D02*
X197485000Y-115570000D01*
X191725000Y-55200000D02*
X184120000Y-55200000D01*
X197485000Y-115570000D02*
X199390000Y-113665000D01*
%TO.N,JMS+DCA*%
X186690000Y-59055000D02*
X186690000Y-73025000D01*
X163465001Y-74024999D02*
X163465001Y-108855001D01*
X168173600Y-150526400D02*
X171000000Y-147700000D01*
X170900000Y-116290000D02*
X170900000Y-138400000D01*
X168173600Y-174200000D02*
X168173600Y-150526400D01*
X185375000Y-57740000D02*
X186690000Y-59055000D01*
X184120000Y-57740000D02*
X185375000Y-57740000D01*
X164465000Y-73025000D02*
X163465001Y-74024999D01*
X163465001Y-108855001D02*
X170900000Y-116290000D01*
%TO.N,Net-(U15-Pad10)*%
X135400000Y-82100000D02*
X137500000Y-84200000D01*
X138000000Y-105660000D02*
X136140000Y-105660000D01*
X138250000Y-105410000D02*
X138000000Y-105660000D01*
X135890000Y-100330000D02*
X137750000Y-100330000D01*
X140030000Y-105410000D02*
X138250000Y-105410000D01*
X135255000Y-104775000D02*
X135255000Y-100965000D01*
X140970000Y-85670000D02*
X140970000Y-104470000D01*
X137500000Y-84200000D02*
X139500000Y-84200000D01*
X135400000Y-77300000D02*
X135400000Y-82100000D01*
X147705000Y-98040000D02*
X149225000Y-96520000D01*
X138000000Y-98040000D02*
X138000000Y-100580000D01*
X140970000Y-104470000D02*
X140030000Y-105410000D01*
X137750000Y-100330000D02*
X138000000Y-100580000D01*
X147320000Y-72390000D02*
X140310000Y-72390000D01*
X135255000Y-100965000D02*
X135890000Y-100330000D01*
X145620000Y-98040000D02*
X147705000Y-98040000D01*
X136140000Y-105660000D02*
X135255000Y-104775000D01*
X140310000Y-72390000D02*
X135400000Y-77300000D01*
X139500000Y-84200000D02*
X140970000Y-85670000D01*
X149225000Y-74295000D02*
X147320000Y-72390000D01*
X149225000Y-96520000D02*
X149225000Y-74295000D01*
%TO.N,Net-(U15-Pad5)*%
X168655000Y-140080000D02*
X163830000Y-135255000D01*
X152717500Y-109537500D02*
X152717500Y-103187500D01*
X150110000Y-100580000D02*
X145620000Y-100580000D01*
X163830000Y-121920000D02*
X160655000Y-118745000D01*
X152717500Y-103187500D02*
X150110000Y-100580000D01*
X176500000Y-140080000D02*
X168655000Y-140080000D01*
X163830000Y-135255000D02*
X163830000Y-121920000D01*
X160655000Y-117475000D02*
X152717500Y-109537500D01*
X160655000Y-118745000D02*
X160655000Y-117475000D01*
%TO.N,Net-(U15-Pad11)*%
X114385000Y-90714974D02*
X115249987Y-89849987D01*
X114385000Y-135805000D02*
X114385000Y-90714974D01*
X139700000Y-101420000D02*
X138000000Y-103120000D01*
X138109987Y-89849987D02*
X139700000Y-91440000D01*
X139700000Y-91440000D02*
X139700000Y-101420000D01*
X116120000Y-137540000D02*
X114385000Y-135805000D01*
X115249987Y-89849987D02*
X138109987Y-89849987D01*
%TO.N,T13*%
X149475000Y-103120000D02*
X145620000Y-103120000D01*
X151130000Y-104775000D02*
X149475000Y-103120000D01*
X151130000Y-111125000D02*
X151130000Y-104775000D01*
X199872800Y-119074719D02*
X199363071Y-118564990D01*
X199872800Y-174200000D02*
X199872800Y-119074719D01*
X158750000Y-118745000D02*
X151130000Y-111125000D01*
%TO.N,~{DEP}*%
X148205000Y-108200000D02*
X145620000Y-108200000D01*
X160655000Y-139065000D02*
X160655000Y-125730000D01*
X160655000Y-125730000D02*
X148590000Y-113665000D01*
X148590000Y-113665000D02*
X148590000Y-108585000D01*
X164211200Y-142621200D02*
X164147500Y-142557500D01*
X148590000Y-108585000D02*
X148205000Y-108200000D01*
X176500000Y-142620000D02*
X164210000Y-142620000D01*
X164147500Y-142557500D02*
X160655000Y-139065000D01*
X164210000Y-142620000D02*
X164147500Y-142557500D01*
X164211200Y-174200000D02*
X164211200Y-142621200D01*
%TO.N,MCP*%
X190115000Y-100580000D02*
X201295000Y-111760000D01*
X180090000Y-100580000D02*
X179455000Y-100580000D01*
X176500000Y-100580000D02*
X179455000Y-100580000D01*
X108500000Y-125180000D02*
X113030000Y-120650000D01*
X108500000Y-135000000D02*
X108500000Y-125180000D01*
X108585000Y-95415000D02*
X108500000Y-95500000D01*
X176500000Y-100580000D02*
X173105000Y-100580000D01*
X178185000Y-105660000D02*
X180090000Y-103755000D01*
X184120000Y-100580000D02*
X180090000Y-100580000D01*
X170815000Y-98290000D02*
X170815000Y-90805000D01*
X173355000Y-105500000D02*
X176340000Y-105500000D01*
X184120000Y-100580000D02*
X190115000Y-100580000D01*
X176500000Y-105660000D02*
X178185000Y-105660000D01*
X113030000Y-120650000D02*
X113030000Y-97155000D01*
X173105000Y-100580000D02*
X170815000Y-98290000D01*
X108585000Y-90805000D02*
X108585000Y-95415000D01*
X180090000Y-103755000D02*
X180090000Y-100580000D01*
X111375000Y-95500000D02*
X108500000Y-95500000D01*
X201295000Y-157480000D02*
X203835200Y-160020200D01*
X203835200Y-160020200D02*
X203835200Y-174200000D01*
X201295000Y-111760000D02*
X201295000Y-157480000D01*
X176340000Y-105500000D02*
X176500000Y-105660000D01*
X113030000Y-97155000D02*
X111375000Y-95500000D01*
%TO.N,Net-(U5-Pad8)*%
X89280000Y-135000000D02*
X87620000Y-135000000D01*
X98425000Y-84455000D02*
X98425000Y-94615000D01*
X87620000Y-95500000D02*
X93595000Y-95500000D01*
X93345000Y-136525000D02*
X90805000Y-136525000D01*
X37500000Y-50120000D02*
X38690000Y-50120000D01*
X38690000Y-50120000D02*
X40640000Y-52070000D01*
X97540000Y-95500000D02*
X87620000Y-95500000D01*
X86995000Y-81915000D02*
X95885000Y-81915000D01*
X90805000Y-136525000D02*
X89280000Y-135000000D01*
X40640000Y-78740000D02*
X37465000Y-81915000D01*
X98425000Y-94615000D02*
X97540000Y-95500000D01*
X93980000Y-113030000D02*
X93980000Y-135890000D01*
X95885000Y-81915000D02*
X98425000Y-84455000D01*
X40640000Y-52070000D02*
X40640000Y-78740000D01*
X93980000Y-135890000D02*
X93345000Y-136525000D01*
X93595000Y-95500000D02*
X93980000Y-95885000D01*
%TO.N,PC7*%
X37490000Y-108190000D02*
X37500000Y-108200000D01*
X30100000Y-108200000D02*
X30110000Y-108190000D01*
X30110000Y-108190000D02*
X37490000Y-108190000D01*
%TO.N,~{PC7}*%
X30140000Y-105660000D02*
X37500000Y-105660000D01*
X30100000Y-105700000D02*
X30140000Y-105660000D01*
%TO.N,~{MA7}*%
X32900000Y-35800000D02*
X34250000Y-34450000D01*
X32900000Y-90900000D02*
X32900000Y-35800000D01*
X37500000Y-95500000D02*
X32900000Y-90900000D01*
%TO.N,MA7*%
X60325000Y-85725000D02*
X58420000Y-83820000D01*
X45120000Y-57740000D02*
X45120000Y-83785000D01*
X81915000Y-151130000D02*
X81915000Y-160110865D01*
X41910000Y-57060000D02*
X42590000Y-57740000D01*
X42090001Y-83820000D02*
X39370000Y-86540001D01*
X138000000Y-147700000D02*
X131700000Y-147700000D01*
X37500000Y-47580000D02*
X37500000Y-45040000D01*
X81915000Y-160110865D02*
X82005865Y-160110865D01*
X70485000Y-127000000D02*
X62230000Y-118745000D01*
X131127500Y-148272500D02*
X115570000Y-163830000D01*
X81025000Y-150240000D02*
X81915000Y-151130000D01*
X45120000Y-83785000D02*
X45085000Y-83820000D01*
X37500000Y-47580000D02*
X39325000Y-47580000D01*
X62230000Y-112395000D02*
X62230000Y-118745000D01*
X39370000Y-96170000D02*
X38299999Y-97240001D01*
X41910000Y-50165000D02*
X41910000Y-57060000D01*
X58420000Y-83820000D02*
X45085000Y-83820000D01*
X82005865Y-160110865D02*
X85725000Y-163830000D01*
X38299999Y-97240001D02*
X37500000Y-98040000D01*
X39325000Y-47580000D02*
X41910000Y-50165000D01*
X45085000Y-83820000D02*
X42090001Y-83820000D01*
X42590000Y-57740000D02*
X45120000Y-57740000D01*
X80000000Y-150240000D02*
X81025000Y-150240000D01*
X60325000Y-110490000D02*
X62230000Y-112395000D01*
X131700000Y-147700000D02*
X131127500Y-148272500D01*
X73405000Y-150240000D02*
X70485000Y-147320000D01*
X70485000Y-147320000D02*
X70485000Y-127000000D01*
X80000000Y-150240000D02*
X73405000Y-150240000D01*
X39370000Y-86540001D02*
X39370000Y-96170000D01*
X60325000Y-110490000D02*
X60325000Y-85725000D01*
%TO.N,~{F+D+E}*%
X201295000Y-76835000D02*
X201295000Y-55880000D01*
X158115000Y-160808998D02*
X158115000Y-127000000D01*
X143874999Y-112759999D02*
X143874999Y-77834999D01*
X158115000Y-127000000D02*
X143874999Y-112759999D01*
X201295000Y-55880000D02*
X204515000Y-52660000D01*
X143874999Y-77834999D02*
X142875000Y-76835000D01*
X204515000Y-52660000D02*
X210000000Y-52660000D01*
X152324000Y-166599998D02*
X158115000Y-160808998D01*
X152324000Y-174200000D02*
X152324000Y-166599998D01*
%TO.N,OPR+IOT*%
X181610000Y-156845000D02*
X181610000Y-147670000D01*
X181610000Y-147670000D02*
X184120000Y-145160000D01*
X176098400Y-174200000D02*
X176098400Y-165801600D01*
X186055000Y-161290000D02*
X181610000Y-156845000D01*
X176098400Y-165801600D02*
X176100000Y-165800000D01*
X186055000Y-165735000D02*
X186055000Y-161290000D01*
%TO.N,~{T2-9(F+D+E})*%
X180500000Y-173760800D02*
X180060800Y-174200000D01*
X184120000Y-110740000D02*
X181995000Y-110740000D01*
X180500000Y-112235000D02*
X180500000Y-173760800D01*
X181995000Y-110740000D02*
X180500000Y-112235000D01*
%TO.N,T1*%
X220300000Y-50120000D02*
X221615000Y-51435000D01*
X221615000Y-52705000D02*
X221615000Y-73025000D01*
X225425000Y-73025000D02*
X225425000Y-165735000D01*
X192405000Y-173743000D02*
X191948000Y-174200000D01*
X221615000Y-51435000D02*
X221615000Y-52705000D01*
X192405000Y-165735000D02*
X192405000Y-173743000D01*
X217620000Y-50120000D02*
X220300000Y-50120000D01*
%TO.N,~{WE}*%
X102235000Y-58420000D02*
X102235000Y-65884500D01*
X108500000Y-55200000D02*
X105455000Y-55200000D01*
X105455000Y-55200000D02*
X102235000Y-58420000D01*
X173990000Y-65405000D02*
X176530000Y-67945000D01*
X176530000Y-67945000D02*
X176500000Y-95500000D01*
%TO.N,~{CS_L}*%
X116205000Y-60365000D02*
X116120000Y-60280000D01*
X116205000Y-71120000D02*
X116205000Y-60365000D01*
X50120000Y-45040000D02*
X46400000Y-45040000D01*
X52070000Y-71120000D02*
X52070000Y-46990000D01*
X52070000Y-46990000D02*
X50120000Y-45040000D01*
X46400000Y-45040000D02*
X45120000Y-45040000D01*
%TO.N,~{CS_H}*%
X87630000Y-60290000D02*
X87620000Y-60280000D01*
X50165000Y-53975000D02*
X48850000Y-52660000D01*
X47580000Y-52660000D02*
X45120000Y-52660000D01*
X87630000Y-73025000D02*
X87630000Y-60290000D01*
X48850000Y-52660000D02*
X47580000Y-52660000D01*
X50165000Y-73025000D02*
X50165000Y-53975000D01*
%TO.N,D-IN*%
X27305000Y-127635000D02*
X38735000Y-127635000D01*
X216535000Y-67310000D02*
X216535000Y-72390000D01*
X114820000Y-150240000D02*
X116120000Y-150240000D01*
X220980000Y-76835000D02*
X220980000Y-97155000D01*
X106090000Y-57740000D02*
X104775000Y-59055000D01*
X80010000Y-134990000D02*
X80000000Y-135000000D01*
X112214990Y-147634990D02*
X114820000Y-150240000D01*
X220980000Y-97155000D02*
X220095000Y-98040000D01*
X29210000Y-67310000D02*
X29210000Y-94615000D01*
X104775000Y-59055000D02*
X104775000Y-67310000D01*
X112395000Y-127635000D02*
X112214990Y-147634990D01*
X108500000Y-57740000D02*
X106090000Y-57740000D01*
X220095000Y-98040000D02*
X217620000Y-98040000D01*
X80010000Y-127635000D02*
X80010000Y-134990000D01*
X216535000Y-72390000D02*
X220980000Y-76835000D01*
X29210000Y-94615000D02*
X26035000Y-97790000D01*
X26035000Y-126365000D02*
X27305000Y-127635000D01*
X26035000Y-97790000D02*
X26035000Y-126365000D01*
%TO.N,MA_C*%
X117251370Y-52660000D02*
X116120000Y-52660000D01*
X138000000Y-50120000D02*
X140245000Y-47875000D01*
X140245000Y-41185000D02*
X139700000Y-40640000D01*
X140245000Y-47875000D02*
X140245000Y-41185000D01*
X139700000Y-40640000D02*
X133704965Y-40640000D01*
X121684965Y-52660000D02*
X117251370Y-52660000D01*
X133704965Y-40640000D02*
X121684965Y-52660000D01*
%TO.N,MA_B*%
X120695000Y-55200000D02*
X133395000Y-42500000D01*
X134030000Y-42500000D02*
X138000000Y-42500000D01*
X116120000Y-55200000D02*
X120695000Y-55200000D01*
X133395000Y-42500000D02*
X134030000Y-42500000D01*
%TO.N,MA_A*%
X116120000Y-57740000D02*
X120695000Y-57740000D01*
X133395000Y-45040000D02*
X138000000Y-45040000D01*
X120695000Y-57740000D02*
X133395000Y-45040000D01*
%TO.N,Net-(U14-Pad6)*%
X215265000Y-44450000D02*
X215265000Y-40640000D01*
X39370000Y-53975000D02*
X38055000Y-52660000D01*
X39325000Y-55200000D02*
X39370000Y-55245000D01*
X205740000Y-40005000D02*
X199390000Y-46355000D01*
X39370000Y-55245000D02*
X39370000Y-74930000D01*
X214630000Y-40005000D02*
X205740000Y-40005000D01*
X39370000Y-55245000D02*
X39370000Y-53975000D01*
X38055000Y-52660000D02*
X37500000Y-52660000D01*
X37500000Y-55200000D02*
X39325000Y-55200000D01*
X35105010Y-79194990D02*
X35105010Y-84455000D01*
X199390000Y-46355000D02*
X199390000Y-84455000D01*
X37500000Y-52660000D02*
X37500000Y-55200000D01*
X39370000Y-74930000D02*
X35105010Y-79194990D01*
X217620000Y-45040000D02*
X215855000Y-45040000D01*
X215265000Y-40640000D02*
X214630000Y-40005000D01*
X215855000Y-45040000D02*
X215265000Y-44450000D01*
%TO.N,/~{T14-21}.ISZ.DEP*%
X203065000Y-100965000D02*
X205990000Y-98040000D01*
X205990000Y-98040000D02*
X210000000Y-98040000D01*
X210000000Y-100580000D02*
X210000000Y-103120000D01*
X179660000Y-55200000D02*
X180340000Y-55880000D01*
X176500000Y-55200000D02*
X179660000Y-55200000D01*
X183515000Y-89115000D02*
X195365000Y-100965000D01*
X180340000Y-59690000D02*
X183515000Y-62865000D01*
X183515000Y-62865000D02*
X183515000Y-89115000D01*
X210000000Y-98040000D02*
X210000000Y-100580000D01*
X195365000Y-100965000D02*
X203065000Y-100965000D01*
X180340000Y-55880000D02*
X180340000Y-59690000D01*
%TO.N,Net-(U14-Pad13)*%
X211410000Y-55200000D02*
X210000000Y-55200000D01*
X195580000Y-97790000D02*
X196215000Y-98425000D01*
X181610000Y-142240000D02*
X181610000Y-120015000D01*
X187960000Y-113665000D02*
X195580000Y-113665000D01*
X184120000Y-142620000D02*
X181990000Y-142620000D01*
X196215000Y-98425000D02*
X201295000Y-98425000D01*
X212090000Y-55880000D02*
X211410000Y-55200000D01*
X195580000Y-95885000D02*
X195580000Y-97790000D01*
X181610000Y-120015000D02*
X187960000Y-113665000D01*
X201295000Y-98425000D02*
X206375000Y-93345000D01*
X212090000Y-62865000D02*
X212090000Y-55880000D01*
X206375000Y-68580000D02*
X212090000Y-62865000D01*
X206375000Y-93345000D02*
X206375000Y-68580000D01*
X181990000Y-142620000D02*
X181610000Y-142240000D01*
%TO.N,Net-(U14-Pad5)*%
X210000000Y-42500000D02*
X212680000Y-42500000D01*
X212680000Y-42500000D02*
X213995000Y-43815000D01*
X215220000Y-47580000D02*
X217620000Y-47580000D01*
X213995000Y-43815000D02*
X213995000Y-46355000D01*
X213995000Y-46355000D02*
X215220000Y-47580000D01*
%TO.N,Net-(U14-Pad10)*%
X210000000Y-50120000D02*
X210000000Y-48710000D01*
X210000000Y-47580000D02*
X210000000Y-45040000D01*
X210000000Y-48710000D02*
X210000000Y-47580000D01*
%TO.N,Net-(U12-Pad6)*%
X186940000Y-98040000D02*
X184120000Y-98040000D01*
X202565000Y-156210000D02*
X202565000Y-110490000D01*
X92034990Y-152780000D02*
X92075000Y-152739990D01*
X93684990Y-152739990D02*
X92075000Y-152739990D01*
X91055000Y-113280000D02*
X87620000Y-113280000D01*
X190115000Y-98040000D02*
X186940000Y-98040000D01*
X205740000Y-159385000D02*
X202565000Y-156210000D01*
X100330000Y-159385000D02*
X93684990Y-152739990D01*
X92075000Y-114300000D02*
X91055000Y-113280000D01*
X202565000Y-110490000D02*
X190115000Y-98040000D01*
X87620000Y-152780000D02*
X92034990Y-152780000D01*
X92075000Y-134620000D02*
X92075000Y-114300000D01*
%TO.N,Net-(U12-Pad11)*%
X172720000Y-135255000D02*
X175005000Y-137540000D01*
X165100000Y-106680000D02*
X172720000Y-114300000D01*
X165100000Y-102870000D02*
X165100000Y-106680000D01*
X171700000Y-103120000D02*
X171450000Y-102870000D01*
X175005000Y-137540000D02*
X176500000Y-137540000D01*
X172720000Y-114300000D02*
X172720000Y-135255000D01*
X176500000Y-103120000D02*
X171700000Y-103120000D01*
%TO.N,Net-(U12-Pad3)*%
X184120000Y-105660000D02*
X184120000Y-103120000D01*
%TD*%
%TA.AperFunction,Conductor*%
%TO.N,GND*%
G36*
X112526041Y-20528502D02*
G01*
X112572534Y-20582158D01*
X112582638Y-20652432D01*
X112564658Y-20697938D01*
X112564576Y-20700069D01*
X112571527Y-20712316D01*
X114487190Y-22627980D01*
X114501131Y-22635592D01*
X114502966Y-22635461D01*
X114509580Y-22631210D01*
X116427074Y-20713716D01*
X116434688Y-20699772D01*
X116434145Y-20692169D01*
X116416387Y-20639447D01*
X116433699Y-20570594D01*
X116485488Y-20522030D01*
X116542290Y-20508500D01*
X141074000Y-20508500D01*
X141142121Y-20528502D01*
X141188614Y-20582158D01*
X141200000Y-20634500D01*
X141200000Y-29847810D01*
X141179998Y-29915931D01*
X141163095Y-29936905D01*
X139436864Y-31663136D01*
X139374552Y-31697162D01*
X139347872Y-31700041D01*
X75050000Y-31750000D01*
X75050000Y-25301681D01*
X112563860Y-25301681D01*
X112563878Y-25301933D01*
X112569793Y-25310677D01*
X112601111Y-25339174D01*
X112606748Y-25343738D01*
X112882544Y-25541918D01*
X112888682Y-25545813D01*
X113185435Y-25710984D01*
X113191955Y-25714136D01*
X113505738Y-25844109D01*
X113512589Y-25846495D01*
X113839212Y-25939536D01*
X113846301Y-25941120D01*
X114181465Y-25996006D01*
X114188671Y-25996763D01*
X114527926Y-26012762D01*
X114535176Y-26012686D01*
X114874010Y-25989587D01*
X114881219Y-25988676D01*
X115215160Y-25926784D01*
X115222190Y-25925057D01*
X115546819Y-25825187D01*
X115553597Y-25822667D01*
X115864603Y-25686145D01*
X115871043Y-25682864D01*
X116164293Y-25511502D01*
X116170326Y-25507493D01*
X116428828Y-25313405D01*
X116437282Y-25302078D01*
X116430537Y-25289748D01*
X114512810Y-23372020D01*
X114498869Y-23364408D01*
X114497034Y-23364539D01*
X114490420Y-23368790D01*
X112571474Y-25287737D01*
X112563860Y-25301681D01*
X75050000Y-25301681D01*
X75050000Y-22908987D01*
X111488484Y-22908987D01*
X111497374Y-23248505D01*
X111497980Y-23255721D01*
X111545835Y-23591963D01*
X111547269Y-23599074D01*
X111633455Y-23927595D01*
X111635692Y-23934478D01*
X111759064Y-24250914D01*
X111762081Y-24257503D01*
X111921002Y-24557652D01*
X111924761Y-24563860D01*
X112117129Y-24843757D01*
X112121574Y-24849486D01*
X112188743Y-24926484D01*
X112201917Y-24934888D01*
X112211769Y-24929020D01*
X114127980Y-23012810D01*
X114134357Y-23001131D01*
X114864408Y-23001131D01*
X114864539Y-23002966D01*
X114868790Y-23009580D01*
X116786268Y-24927057D01*
X116799622Y-24934349D01*
X116809594Y-24927295D01*
X116916641Y-24799267D01*
X116920957Y-24793456D01*
X117107432Y-24509575D01*
X117111046Y-24503313D01*
X117263658Y-24199882D01*
X117266530Y-24193244D01*
X117383249Y-23874293D01*
X117385345Y-23867351D01*
X117464631Y-23537103D01*
X117465915Y-23529964D01*
X117506816Y-23191973D01*
X117507240Y-23186403D01*
X117513010Y-23002797D01*
X117512937Y-22997204D01*
X117493338Y-22657303D01*
X117492506Y-22650113D01*
X117434113Y-22315529D01*
X117432458Y-22308474D01*
X117335998Y-21982834D01*
X117333540Y-21976006D01*
X117200290Y-21663608D01*
X117197073Y-21657125D01*
X117028788Y-21362089D01*
X117024856Y-21356034D01*
X116823774Y-21082295D01*
X116819166Y-21076726D01*
X116813830Y-21070984D01*
X116800178Y-21062866D01*
X116799570Y-21062887D01*
X116791092Y-21068119D01*
X114872020Y-22987190D01*
X114864408Y-23001131D01*
X114134357Y-23001131D01*
X114135592Y-22998869D01*
X114135461Y-22997034D01*
X114131210Y-22990420D01*
X112212374Y-21071585D01*
X112199581Y-21064599D01*
X112188827Y-21072464D01*
X112028037Y-21277527D01*
X112023902Y-21283476D01*
X111846440Y-21573068D01*
X111843019Y-21579447D01*
X111700016Y-21887522D01*
X111697356Y-21894241D01*
X111590711Y-22216707D01*
X111588834Y-22223711D01*
X111519961Y-22556288D01*
X111518904Y-22563449D01*
X111488712Y-22901735D01*
X111488484Y-22908987D01*
X75050000Y-22908987D01*
X75050000Y-20508500D01*
X112457920Y-20508500D01*
X112526041Y-20528502D01*
G37*
%TD.AperFunction*%
%TD*%
%TA.AperFunction,Conductor*%
%TO.N,GND*%
G36*
X22526041Y-20528502D02*
G01*
X22572534Y-20582158D01*
X22582638Y-20652432D01*
X22564658Y-20697938D01*
X22564576Y-20700069D01*
X22571527Y-20712316D01*
X24487190Y-22627980D01*
X24501131Y-22635592D01*
X24502966Y-22635461D01*
X24509580Y-22631210D01*
X26427074Y-20713716D01*
X26434688Y-20699772D01*
X26434145Y-20692169D01*
X26416387Y-20639447D01*
X26433699Y-20570594D01*
X26485488Y-20522030D01*
X26542290Y-20508500D01*
X75598485Y-20508500D01*
X75565001Y-31749600D01*
X75565001Y-31749790D01*
X75563545Y-31750000D01*
X35152921Y-31750000D01*
X35084800Y-31729998D01*
X35062950Y-31712211D01*
X34976343Y-31623875D01*
X34008529Y-30636748D01*
X33975121Y-30574103D01*
X33972500Y-30548537D01*
X33972500Y-27305000D01*
X32702500Y-26035000D01*
X27622500Y-26035000D01*
X26352500Y-27305000D01*
X26352528Y-27315599D01*
X26364173Y-31750000D01*
X26365000Y-32065000D01*
X27635000Y-33335000D01*
X28267277Y-33358742D01*
X28850161Y-33380629D01*
X28917483Y-33403173D01*
X28935056Y-33417975D01*
X29491123Y-33980688D01*
X29524777Y-34043202D01*
X29527500Y-34069253D01*
X29527500Y-58960046D01*
X29507498Y-59028167D01*
X29453842Y-59074660D01*
X29412481Y-59085567D01*
X29304980Y-59094972D01*
X29294188Y-59096875D01*
X29083739Y-59153264D01*
X29073447Y-59157010D01*
X28875989Y-59249086D01*
X28866494Y-59254569D01*
X28814452Y-59291009D01*
X28806076Y-59301488D01*
X28813144Y-59314934D01*
X29527500Y-60029290D01*
X29527500Y-60747710D01*
X28812423Y-61462787D01*
X28805993Y-61474562D01*
X28815289Y-61486577D01*
X28866494Y-61522431D01*
X28875989Y-61527914D01*
X29073447Y-61619990D01*
X29083739Y-61623736D01*
X29294188Y-61680125D01*
X29304980Y-61682028D01*
X29412481Y-61691433D01*
X29478599Y-61717296D01*
X29520239Y-61774800D01*
X29527500Y-61816954D01*
X29527500Y-62812810D01*
X29507498Y-62880931D01*
X29490595Y-62901905D01*
X26987500Y-65405000D01*
X26987500Y-93927810D01*
X26967498Y-93995931D01*
X26950595Y-94016905D01*
X24447500Y-96520000D01*
X24447500Y-117037704D01*
X24427498Y-117105825D01*
X24405746Y-117125758D01*
X24408099Y-117128111D01*
X23693022Y-117843188D01*
X23685408Y-117857132D01*
X23685539Y-117858965D01*
X23689790Y-117865580D01*
X24408099Y-118583889D01*
X24405057Y-118586931D01*
X24432089Y-118613964D01*
X24447500Y-118674347D01*
X24447500Y-126365000D01*
X26315595Y-128233095D01*
X26349621Y-128295407D01*
X26352500Y-128322190D01*
X26352500Y-132664517D01*
X26332498Y-132732638D01*
X26317643Y-132751517D01*
X20225643Y-139133612D01*
X20164138Y-139169077D01*
X20093224Y-139165659D01*
X20035415Y-139124446D01*
X20009064Y-139058520D01*
X20008500Y-139046612D01*
X20008500Y-118942062D01*
X22599493Y-118942062D01*
X22608789Y-118954077D01*
X22659994Y-118989931D01*
X22669489Y-118995414D01*
X22866947Y-119087490D01*
X22877239Y-119091236D01*
X23087688Y-119147625D01*
X23098481Y-119149528D01*
X23315525Y-119168517D01*
X23326475Y-119168517D01*
X23543519Y-119149528D01*
X23554312Y-119147625D01*
X23764761Y-119091236D01*
X23775053Y-119087490D01*
X23972511Y-118995414D01*
X23982006Y-118989931D01*
X24034048Y-118953491D01*
X24042424Y-118943012D01*
X24035356Y-118929566D01*
X23333812Y-118228022D01*
X23319868Y-118220408D01*
X23318035Y-118220539D01*
X23311420Y-118224790D01*
X22605923Y-118930287D01*
X22599493Y-118942062D01*
X20008500Y-118942062D01*
X20008500Y-117861475D01*
X22008483Y-117861475D01*
X22027472Y-118078519D01*
X22029375Y-118089312D01*
X22085764Y-118299761D01*
X22089510Y-118310053D01*
X22181586Y-118507511D01*
X22187069Y-118517006D01*
X22223509Y-118569048D01*
X22233988Y-118577424D01*
X22247434Y-118570356D01*
X22948978Y-117868812D01*
X22956592Y-117854868D01*
X22956461Y-117853035D01*
X22952210Y-117846420D01*
X22246713Y-117140923D01*
X22234938Y-117134493D01*
X22222923Y-117143789D01*
X22187069Y-117194994D01*
X22181586Y-117204489D01*
X22089510Y-117401947D01*
X22085764Y-117412239D01*
X22029375Y-117622688D01*
X22027472Y-117633481D01*
X22008483Y-117850525D01*
X22008483Y-117861475D01*
X20008500Y-117861475D01*
X20008500Y-116768988D01*
X22599576Y-116768988D01*
X22606644Y-116782434D01*
X23308188Y-117483978D01*
X23322132Y-117491592D01*
X23323965Y-117491461D01*
X23330580Y-117487210D01*
X24036077Y-116781713D01*
X24042507Y-116769938D01*
X24033211Y-116757923D01*
X23982006Y-116722069D01*
X23972511Y-116716586D01*
X23775053Y-116624510D01*
X23764761Y-116620764D01*
X23554312Y-116564375D01*
X23543519Y-116562472D01*
X23326475Y-116543483D01*
X23315525Y-116543483D01*
X23098481Y-116562472D01*
X23087688Y-116564375D01*
X22877239Y-116620764D01*
X22866947Y-116624510D01*
X22669489Y-116716586D01*
X22659994Y-116722069D01*
X22607952Y-116758509D01*
X22599576Y-116768988D01*
X20008500Y-116768988D01*
X20008500Y-60393975D01*
X28214983Y-60393975D01*
X28233972Y-60611019D01*
X28235875Y-60621812D01*
X28292264Y-60832261D01*
X28296010Y-60842553D01*
X28388086Y-61040011D01*
X28393569Y-61049506D01*
X28430009Y-61101548D01*
X28440488Y-61109924D01*
X28453934Y-61102856D01*
X29155478Y-60401312D01*
X29163092Y-60387368D01*
X29162961Y-60385535D01*
X29158710Y-60378920D01*
X28453213Y-59673423D01*
X28441438Y-59666993D01*
X28429423Y-59676289D01*
X28393569Y-59727494D01*
X28388086Y-59736989D01*
X28296010Y-59934447D01*
X28292264Y-59944739D01*
X28235875Y-60155188D01*
X28233972Y-60165981D01*
X28214983Y-60383025D01*
X28214983Y-60393975D01*
X20008500Y-60393975D01*
X20008500Y-25301681D01*
X22563860Y-25301681D01*
X22563878Y-25301933D01*
X22569793Y-25310677D01*
X22601111Y-25339174D01*
X22606748Y-25343738D01*
X22882544Y-25541918D01*
X22888682Y-25545813D01*
X23185435Y-25710984D01*
X23191955Y-25714136D01*
X23505738Y-25844109D01*
X23512589Y-25846495D01*
X23839212Y-25939536D01*
X23846301Y-25941120D01*
X24181465Y-25996006D01*
X24188671Y-25996763D01*
X24527926Y-26012762D01*
X24535176Y-26012686D01*
X24874010Y-25989587D01*
X24881219Y-25988676D01*
X25215160Y-25926784D01*
X25222190Y-25925057D01*
X25546819Y-25825187D01*
X25553597Y-25822667D01*
X25864603Y-25686145D01*
X25871043Y-25682864D01*
X26164293Y-25511502D01*
X26170326Y-25507493D01*
X26428828Y-25313405D01*
X26437282Y-25302078D01*
X26430537Y-25289748D01*
X24512810Y-23372020D01*
X24498869Y-23364408D01*
X24497034Y-23364539D01*
X24490420Y-23368790D01*
X22571474Y-25287737D01*
X22563860Y-25301681D01*
X20008500Y-25301681D01*
X20008500Y-22908987D01*
X21488484Y-22908987D01*
X21497374Y-23248505D01*
X21497980Y-23255721D01*
X21545835Y-23591963D01*
X21547269Y-23599074D01*
X21633455Y-23927595D01*
X21635692Y-23934478D01*
X21759064Y-24250914D01*
X21762081Y-24257503D01*
X21921002Y-24557652D01*
X21924761Y-24563860D01*
X22117129Y-24843757D01*
X22121574Y-24849486D01*
X22188743Y-24926484D01*
X22201917Y-24934888D01*
X22211769Y-24929020D01*
X24127980Y-23012810D01*
X24134357Y-23001131D01*
X24864408Y-23001131D01*
X24864539Y-23002966D01*
X24868790Y-23009580D01*
X26786268Y-24927057D01*
X26799622Y-24934349D01*
X26809594Y-24927295D01*
X26916641Y-24799267D01*
X26920957Y-24793456D01*
X27107432Y-24509575D01*
X27111046Y-24503313D01*
X27263658Y-24199882D01*
X27266530Y-24193244D01*
X27383249Y-23874293D01*
X27385345Y-23867351D01*
X27464631Y-23537103D01*
X27465915Y-23529964D01*
X27506816Y-23191973D01*
X27507240Y-23186403D01*
X27513010Y-23002797D01*
X27512937Y-22997204D01*
X27493338Y-22657303D01*
X27492506Y-22650113D01*
X27434113Y-22315529D01*
X27432458Y-22308474D01*
X27335998Y-21982834D01*
X27333540Y-21976006D01*
X27200290Y-21663608D01*
X27197073Y-21657125D01*
X27028788Y-21362089D01*
X27024856Y-21356034D01*
X26823774Y-21082295D01*
X26819166Y-21076726D01*
X26813830Y-21070984D01*
X26800178Y-21062866D01*
X26799570Y-21062887D01*
X26791092Y-21068119D01*
X24872020Y-22987190D01*
X24864408Y-23001131D01*
X24134357Y-23001131D01*
X24135592Y-22998869D01*
X24135461Y-22997034D01*
X24131210Y-22990420D01*
X22212374Y-21071585D01*
X22199581Y-21064599D01*
X22188827Y-21072464D01*
X22028037Y-21277527D01*
X22023902Y-21283476D01*
X21846440Y-21573068D01*
X21843019Y-21579447D01*
X21700016Y-21887522D01*
X21697356Y-21894241D01*
X21590711Y-22216707D01*
X21588834Y-22223711D01*
X21519961Y-22556288D01*
X21518904Y-22563449D01*
X21488712Y-22901735D01*
X21488484Y-22908987D01*
X20008500Y-22908987D01*
X20008500Y-20634500D01*
X20028502Y-20566379D01*
X20082158Y-20519886D01*
X20134500Y-20508500D01*
X22457920Y-20508500D01*
X22526041Y-20528502D01*
G37*
%TD.AperFunction*%
%TD*%
%TA.AperFunction,Conductor*%
%TO.N,GND*%
G36*
X142526041Y-20528502D02*
G01*
X142572534Y-20582158D01*
X142582638Y-20652432D01*
X142564658Y-20697938D01*
X142564576Y-20700069D01*
X142571527Y-20712316D01*
X144487190Y-22627980D01*
X144501131Y-22635592D01*
X144502966Y-22635461D01*
X144509580Y-22631210D01*
X146427074Y-20713716D01*
X146434688Y-20699772D01*
X146434145Y-20692169D01*
X146416387Y-20639447D01*
X146433699Y-20570594D01*
X146485488Y-20522030D01*
X146542290Y-20508500D01*
X232457920Y-20508500D01*
X232526041Y-20528502D01*
X232572534Y-20582158D01*
X232582638Y-20652432D01*
X232564658Y-20697938D01*
X232564576Y-20700069D01*
X232571527Y-20712316D01*
X234487190Y-22627980D01*
X234501131Y-22635592D01*
X234502966Y-22635461D01*
X234509580Y-22631210D01*
X236427074Y-20713716D01*
X236434688Y-20699772D01*
X236434145Y-20692169D01*
X236416387Y-20639447D01*
X236433699Y-20570594D01*
X236485488Y-20522030D01*
X236542290Y-20508500D01*
X238865500Y-20508500D01*
X238933621Y-20528502D01*
X238980114Y-20582158D01*
X238991500Y-20634500D01*
X238991500Y-174499000D01*
X238971498Y-174567121D01*
X238917842Y-174613614D01*
X238865500Y-174625000D01*
X237438400Y-174625000D01*
X237370279Y-174604998D01*
X237323786Y-174551342D01*
X237312400Y-174499000D01*
X237312400Y-174472115D01*
X237307925Y-174456876D01*
X237306535Y-174455671D01*
X237298852Y-174454000D01*
X235406400Y-174454000D01*
X235338279Y-174433998D01*
X235291786Y-174380342D01*
X235280400Y-174328000D01*
X235280400Y-173927885D01*
X235788400Y-173927885D01*
X235792875Y-173943124D01*
X235794265Y-173944329D01*
X235801948Y-173946000D01*
X237294285Y-173946000D01*
X237309524Y-173941525D01*
X237310729Y-173940135D01*
X237312400Y-173932452D01*
X237312399Y-169155331D01*
X237312029Y-169148510D01*
X237306505Y-169097648D01*
X237302879Y-169082396D01*
X237257724Y-168961946D01*
X237249186Y-168946351D01*
X237172685Y-168844276D01*
X237160124Y-168831715D01*
X237058049Y-168755214D01*
X237042454Y-168746676D01*
X236922006Y-168701522D01*
X236906751Y-168697895D01*
X236855886Y-168692369D01*
X236849072Y-168692000D01*
X235806515Y-168692000D01*
X235791276Y-168696475D01*
X235790071Y-168697865D01*
X235788400Y-168705548D01*
X235788400Y-173927885D01*
X235280400Y-173927885D01*
X235280400Y-168710116D01*
X235275925Y-168694877D01*
X235274535Y-168693672D01*
X235266852Y-168692001D01*
X234441000Y-168692001D01*
X234372879Y-168671999D01*
X234326386Y-168618343D01*
X234315000Y-168566001D01*
X234315000Y-143389562D01*
X235481993Y-143389562D01*
X235491289Y-143401577D01*
X235542494Y-143437431D01*
X235551989Y-143442914D01*
X235749447Y-143534990D01*
X235759739Y-143538736D01*
X235970188Y-143595125D01*
X235980981Y-143597028D01*
X236198025Y-143616017D01*
X236208975Y-143616017D01*
X236426019Y-143597028D01*
X236436812Y-143595125D01*
X236647261Y-143538736D01*
X236657553Y-143534990D01*
X236855011Y-143442914D01*
X236864506Y-143437431D01*
X236916548Y-143400991D01*
X236924924Y-143390512D01*
X236917856Y-143377066D01*
X236216312Y-142675522D01*
X236202368Y-142667908D01*
X236200535Y-142668039D01*
X236193920Y-142672290D01*
X235488423Y-143377787D01*
X235481993Y-143389562D01*
X234315000Y-143389562D01*
X234315000Y-142308975D01*
X234890983Y-142308975D01*
X234909972Y-142526019D01*
X234911875Y-142536812D01*
X234968264Y-142747261D01*
X234972010Y-142757553D01*
X235064086Y-142955011D01*
X235069569Y-142964506D01*
X235106009Y-143016548D01*
X235116488Y-143024924D01*
X235129934Y-143017856D01*
X235831478Y-142316312D01*
X235837856Y-142304632D01*
X236567908Y-142304632D01*
X236568039Y-142306465D01*
X236572290Y-142313080D01*
X237277787Y-143018577D01*
X237289562Y-143025007D01*
X237301577Y-143015711D01*
X237337431Y-142964506D01*
X237342914Y-142955011D01*
X237434990Y-142757553D01*
X237438736Y-142747261D01*
X237495125Y-142536812D01*
X237497028Y-142526019D01*
X237516017Y-142308975D01*
X237516017Y-142298025D01*
X237497028Y-142080981D01*
X237495125Y-142070188D01*
X237438736Y-141859739D01*
X237434990Y-141849447D01*
X237342914Y-141651989D01*
X237337431Y-141642494D01*
X237300991Y-141590452D01*
X237290512Y-141582076D01*
X237277066Y-141589144D01*
X236575522Y-142290688D01*
X236567908Y-142304632D01*
X235837856Y-142304632D01*
X235839092Y-142302368D01*
X235838961Y-142300535D01*
X235834710Y-142293920D01*
X235129213Y-141588423D01*
X235117438Y-141581993D01*
X235105423Y-141591289D01*
X235069569Y-141642494D01*
X235064086Y-141651989D01*
X234972010Y-141849447D01*
X234968264Y-141859739D01*
X234911875Y-142070188D01*
X234909972Y-142080981D01*
X234890983Y-142298025D01*
X234890983Y-142308975D01*
X234315000Y-142308975D01*
X234315000Y-141216488D01*
X235482076Y-141216488D01*
X235489144Y-141229934D01*
X236190688Y-141931478D01*
X236204632Y-141939092D01*
X236206465Y-141938961D01*
X236213080Y-141934710D01*
X236918577Y-141229213D01*
X236925007Y-141217438D01*
X236915711Y-141205423D01*
X236864506Y-141169569D01*
X236855011Y-141164086D01*
X236657553Y-141072010D01*
X236647261Y-141068264D01*
X236436812Y-141011875D01*
X236426019Y-141009972D01*
X236208975Y-140990983D01*
X236198025Y-140990983D01*
X235980981Y-141009972D01*
X235970188Y-141011875D01*
X235759739Y-141068264D01*
X235749447Y-141072010D01*
X235551989Y-141164086D01*
X235542494Y-141169569D01*
X235490452Y-141206009D01*
X235482076Y-141216488D01*
X234315000Y-141216488D01*
X234315000Y-61284062D01*
X235037493Y-61284062D01*
X235046789Y-61296077D01*
X235097994Y-61331931D01*
X235107489Y-61337414D01*
X235304947Y-61429490D01*
X235315239Y-61433236D01*
X235525688Y-61489625D01*
X235536481Y-61491528D01*
X235753525Y-61510517D01*
X235764475Y-61510517D01*
X235981519Y-61491528D01*
X235992312Y-61489625D01*
X236202761Y-61433236D01*
X236213053Y-61429490D01*
X236410511Y-61337414D01*
X236420006Y-61331931D01*
X236472048Y-61295491D01*
X236480424Y-61285012D01*
X236473356Y-61271566D01*
X235771812Y-60570022D01*
X235757868Y-60562408D01*
X235756035Y-60562539D01*
X235749420Y-60566790D01*
X235043923Y-61272287D01*
X235037493Y-61284062D01*
X234315000Y-61284062D01*
X234315000Y-60764673D01*
X234335002Y-60696552D01*
X234388658Y-60650059D01*
X234458932Y-60639955D01*
X234523512Y-60669449D01*
X234555195Y-60711423D01*
X234619586Y-60849511D01*
X234625069Y-60859006D01*
X234661509Y-60911048D01*
X234671988Y-60919424D01*
X234685434Y-60912356D01*
X235386978Y-60210812D01*
X235393356Y-60199132D01*
X236123408Y-60199132D01*
X236123539Y-60200965D01*
X236127790Y-60207580D01*
X236833287Y-60913077D01*
X236845062Y-60919507D01*
X236857077Y-60910211D01*
X236892931Y-60859006D01*
X236898414Y-60849511D01*
X236990490Y-60652053D01*
X236994236Y-60641761D01*
X237050625Y-60431312D01*
X237052528Y-60420519D01*
X237071517Y-60203475D01*
X237071517Y-60192525D01*
X237052528Y-59975481D01*
X237050625Y-59964688D01*
X236994236Y-59754239D01*
X236990490Y-59743947D01*
X236898414Y-59546489D01*
X236892931Y-59536994D01*
X236856491Y-59484952D01*
X236846012Y-59476576D01*
X236832566Y-59483644D01*
X236131022Y-60185188D01*
X236123408Y-60199132D01*
X235393356Y-60199132D01*
X235394592Y-60196868D01*
X235394461Y-60195035D01*
X235390210Y-60188420D01*
X234684713Y-59482923D01*
X234672938Y-59476493D01*
X234660923Y-59485789D01*
X234625069Y-59536994D01*
X234619586Y-59546489D01*
X234555195Y-59684577D01*
X234508278Y-59737862D01*
X234440000Y-59757323D01*
X234372040Y-59736781D01*
X234325975Y-59682758D01*
X234315000Y-59631327D01*
X234315000Y-59110988D01*
X235037576Y-59110988D01*
X235044644Y-59124434D01*
X235746188Y-59825978D01*
X235760132Y-59833592D01*
X235761965Y-59833461D01*
X235768580Y-59829210D01*
X236474077Y-59123713D01*
X236480507Y-59111938D01*
X236471211Y-59099923D01*
X236420006Y-59064069D01*
X236410511Y-59058586D01*
X236213053Y-58966510D01*
X236202761Y-58962764D01*
X235992312Y-58906375D01*
X235981519Y-58904472D01*
X235764475Y-58885483D01*
X235753525Y-58885483D01*
X235536481Y-58904472D01*
X235525688Y-58906375D01*
X235315239Y-58962764D01*
X235304947Y-58966510D01*
X235107489Y-59058586D01*
X235097994Y-59064069D01*
X235045952Y-59100509D01*
X235037576Y-59110988D01*
X234315000Y-59110988D01*
X234315000Y-56515000D01*
X233045000Y-55245000D01*
X226747190Y-55245000D01*
X226679069Y-55224998D01*
X226658095Y-55208095D01*
X224826905Y-53376905D01*
X224792879Y-53314593D01*
X224790000Y-53287810D01*
X224790000Y-31750000D01*
X222885000Y-29845000D01*
X139700000Y-29845000D01*
X139700000Y-25301681D01*
X142563860Y-25301681D01*
X142563878Y-25301933D01*
X142569793Y-25310677D01*
X142601111Y-25339174D01*
X142606748Y-25343738D01*
X142882544Y-25541918D01*
X142888682Y-25545813D01*
X143185435Y-25710984D01*
X143191955Y-25714136D01*
X143505738Y-25844109D01*
X143512589Y-25846495D01*
X143839212Y-25939536D01*
X143846301Y-25941120D01*
X144181465Y-25996006D01*
X144188671Y-25996763D01*
X144527926Y-26012762D01*
X144535176Y-26012686D01*
X144874010Y-25989587D01*
X144881219Y-25988676D01*
X145215160Y-25926784D01*
X145222190Y-25925057D01*
X145546819Y-25825187D01*
X145553597Y-25822667D01*
X145864603Y-25686145D01*
X145871043Y-25682864D01*
X146164293Y-25511502D01*
X146170326Y-25507493D01*
X146428828Y-25313405D01*
X146437282Y-25302078D01*
X146437065Y-25301681D01*
X232563860Y-25301681D01*
X232563878Y-25301933D01*
X232569793Y-25310677D01*
X232601111Y-25339174D01*
X232606748Y-25343738D01*
X232882544Y-25541918D01*
X232888682Y-25545813D01*
X233185435Y-25710984D01*
X233191955Y-25714136D01*
X233505738Y-25844109D01*
X233512589Y-25846495D01*
X233839212Y-25939536D01*
X233846301Y-25941120D01*
X234181465Y-25996006D01*
X234188671Y-25996763D01*
X234527926Y-26012762D01*
X234535176Y-26012686D01*
X234874010Y-25989587D01*
X234881219Y-25988676D01*
X235215160Y-25926784D01*
X235222190Y-25925057D01*
X235546819Y-25825187D01*
X235553597Y-25822667D01*
X235864603Y-25686145D01*
X235871043Y-25682864D01*
X236164293Y-25511502D01*
X236170326Y-25507493D01*
X236428828Y-25313405D01*
X236437282Y-25302078D01*
X236430537Y-25289748D01*
X234512810Y-23372020D01*
X234498869Y-23364408D01*
X234497034Y-23364539D01*
X234490420Y-23368790D01*
X232571474Y-25287737D01*
X232563860Y-25301681D01*
X146437065Y-25301681D01*
X146430537Y-25289748D01*
X144512810Y-23372020D01*
X144498869Y-23364408D01*
X144497034Y-23364539D01*
X144490420Y-23368790D01*
X142571474Y-25287737D01*
X142563860Y-25301681D01*
X139700000Y-25301681D01*
X139700000Y-22908987D01*
X141488484Y-22908987D01*
X141497374Y-23248505D01*
X141497980Y-23255721D01*
X141545835Y-23591963D01*
X141547269Y-23599074D01*
X141633455Y-23927595D01*
X141635692Y-23934478D01*
X141759064Y-24250914D01*
X141762081Y-24257503D01*
X141921002Y-24557652D01*
X141924761Y-24563860D01*
X142117129Y-24843757D01*
X142121574Y-24849486D01*
X142188743Y-24926484D01*
X142201917Y-24934888D01*
X142211769Y-24929020D01*
X144127980Y-23012810D01*
X144134357Y-23001131D01*
X144864408Y-23001131D01*
X144864539Y-23002966D01*
X144868790Y-23009580D01*
X146786268Y-24927057D01*
X146799622Y-24934349D01*
X146809594Y-24927295D01*
X146916641Y-24799267D01*
X146920957Y-24793456D01*
X147107432Y-24509575D01*
X147111046Y-24503313D01*
X147263658Y-24199882D01*
X147266530Y-24193244D01*
X147383249Y-23874293D01*
X147385345Y-23867351D01*
X147464631Y-23537103D01*
X147465915Y-23529964D01*
X147506816Y-23191973D01*
X147507240Y-23186403D01*
X147513010Y-23002797D01*
X147512937Y-22997204D01*
X147507850Y-22908987D01*
X231488484Y-22908987D01*
X231497374Y-23248505D01*
X231497980Y-23255721D01*
X231545835Y-23591963D01*
X231547269Y-23599074D01*
X231633455Y-23927595D01*
X231635692Y-23934478D01*
X231759064Y-24250914D01*
X231762081Y-24257503D01*
X231921002Y-24557652D01*
X231924761Y-24563860D01*
X232117129Y-24843757D01*
X232121574Y-24849486D01*
X232188743Y-24926484D01*
X232201917Y-24934888D01*
X232211769Y-24929020D01*
X234127980Y-23012810D01*
X234134357Y-23001131D01*
X234864408Y-23001131D01*
X234864539Y-23002966D01*
X234868790Y-23009580D01*
X236786268Y-24927057D01*
X236799622Y-24934349D01*
X236809594Y-24927295D01*
X236916641Y-24799267D01*
X236920957Y-24793456D01*
X237107432Y-24509575D01*
X237111046Y-24503313D01*
X237263658Y-24199882D01*
X237266530Y-24193244D01*
X237383249Y-23874293D01*
X237385345Y-23867351D01*
X237464631Y-23537103D01*
X237465915Y-23529964D01*
X237506816Y-23191973D01*
X237507240Y-23186403D01*
X237513010Y-23002797D01*
X237512937Y-22997204D01*
X237493338Y-22657303D01*
X237492506Y-22650113D01*
X237434113Y-22315529D01*
X237432458Y-22308474D01*
X237335998Y-21982834D01*
X237333540Y-21976006D01*
X237200290Y-21663608D01*
X237197073Y-21657125D01*
X237028788Y-21362089D01*
X237024856Y-21356034D01*
X236823774Y-21082295D01*
X236819166Y-21076726D01*
X236813830Y-21070984D01*
X236800178Y-21062866D01*
X236799570Y-21062887D01*
X236791092Y-21068119D01*
X234872020Y-22987190D01*
X234864408Y-23001131D01*
X234134357Y-23001131D01*
X234135592Y-22998869D01*
X234135461Y-22997034D01*
X234131210Y-22990420D01*
X232212374Y-21071585D01*
X232199581Y-21064599D01*
X232188827Y-21072464D01*
X232028037Y-21277527D01*
X232023902Y-21283476D01*
X231846440Y-21573068D01*
X231843019Y-21579447D01*
X231700016Y-21887522D01*
X231697356Y-21894241D01*
X231590711Y-22216707D01*
X231588834Y-22223711D01*
X231519961Y-22556288D01*
X231518904Y-22563449D01*
X231488712Y-22901735D01*
X231488484Y-22908987D01*
X147507850Y-22908987D01*
X147493338Y-22657303D01*
X147492506Y-22650113D01*
X147434113Y-22315529D01*
X147432458Y-22308474D01*
X147335998Y-21982834D01*
X147333540Y-21976006D01*
X147200290Y-21663608D01*
X147197073Y-21657125D01*
X147028788Y-21362089D01*
X147024856Y-21356034D01*
X146823774Y-21082295D01*
X146819166Y-21076726D01*
X146813830Y-21070984D01*
X146800178Y-21062866D01*
X146799570Y-21062887D01*
X146791092Y-21068119D01*
X144872020Y-22987190D01*
X144864408Y-23001131D01*
X144134357Y-23001131D01*
X144135592Y-22998869D01*
X144135461Y-22997034D01*
X144131210Y-22990420D01*
X142212374Y-21071585D01*
X142199581Y-21064599D01*
X142188827Y-21072464D01*
X142028037Y-21277527D01*
X142023902Y-21283476D01*
X141846440Y-21573068D01*
X141843019Y-21579447D01*
X141700016Y-21887522D01*
X141697356Y-21894241D01*
X141590711Y-22216707D01*
X141588834Y-22223711D01*
X141519961Y-22556288D01*
X141518904Y-22563449D01*
X141488712Y-22901735D01*
X141488484Y-22908987D01*
X139700000Y-22908987D01*
X139700000Y-20508500D01*
X142457920Y-20508500D01*
X142526041Y-20528502D01*
G37*
%TD.AperFunction*%
%TD*%
%TA.AperFunction,Conductor*%
%TO.N,+5V*%
G36*
X232860121Y-58440002D02*
G01*
X232906614Y-58493658D01*
X232918000Y-58546000D01*
X232918000Y-173737000D01*
X232897998Y-173805121D01*
X232844342Y-173851614D01*
X232792000Y-173863000D01*
X227202000Y-173863000D01*
X227133879Y-173842998D01*
X227087386Y-173789342D01*
X227076000Y-173737000D01*
X227076000Y-168529000D01*
X227202855Y-58545855D01*
X227222936Y-58477757D01*
X227276645Y-58431326D01*
X227328855Y-58420000D01*
X232792000Y-58420000D01*
X232860121Y-58440002D01*
G37*
%TD.AperFunction*%
%TD*%
%TA.AperFunction,Conductor*%
%TO.N,GND*%
G36*
X113281121Y-168173407D02*
G01*
X113284000Y-168200190D01*
X113284000Y-179071000D01*
X113263998Y-179139121D01*
X113210342Y-179185614D01*
X113158000Y-179197000D01*
X110968317Y-179197000D01*
X110900196Y-179176998D01*
X110879222Y-179160095D01*
X109045405Y-177326278D01*
X109011379Y-177263966D01*
X109008500Y-177237183D01*
X109008500Y-169008623D01*
X109008502Y-169007853D01*
X109008921Y-168939254D01*
X109008976Y-168930279D01*
X109000850Y-168901847D01*
X108997272Y-168885085D01*
X108994352Y-168864698D01*
X108993080Y-168855813D01*
X108982451Y-168832436D01*
X108976004Y-168814913D01*
X108971416Y-168798862D01*
X108968949Y-168790229D01*
X108964156Y-168782632D01*
X108953170Y-168765220D01*
X108945030Y-168750135D01*
X108932792Y-168723218D01*
X108916030Y-168703765D01*
X108904927Y-168688761D01*
X108891224Y-168667042D01*
X108884499Y-168661103D01*
X108884496Y-168661099D01*
X108869062Y-168647468D01*
X108857018Y-168635276D01*
X108843573Y-168619673D01*
X108843570Y-168619671D01*
X108839000Y-168614367D01*
X108839000Y-168148000D01*
X113267247Y-168148000D01*
X113281121Y-168173407D01*
G37*
%TD.AperFunction*%
%TD*%
%TA.AperFunction,Conductor*%
%TO.N,GND*%
G36*
X102856367Y-164847638D02*
G01*
X102888966Y-164864703D01*
X104329791Y-165912575D01*
X104373118Y-165968818D01*
X104379159Y-166039557D01*
X104344071Y-166104271D01*
X103300000Y-167132000D01*
X112215810Y-167132000D01*
X112283931Y-167152002D01*
X112304905Y-167168905D01*
X113247095Y-168111095D01*
X113281121Y-168173407D01*
X113284000Y-168200190D01*
X113284000Y-169291000D01*
X109008500Y-169291000D01*
X109008500Y-169008623D01*
X109008502Y-169007853D01*
X109008921Y-168939254D01*
X109008976Y-168930279D01*
X109000850Y-168901847D01*
X108997272Y-168885085D01*
X108994352Y-168864698D01*
X108993080Y-168855813D01*
X108982451Y-168832436D01*
X108976004Y-168814913D01*
X108971416Y-168798862D01*
X108968949Y-168790229D01*
X108964156Y-168782632D01*
X108953170Y-168765220D01*
X108945030Y-168750135D01*
X108932792Y-168723218D01*
X108916030Y-168703765D01*
X108904927Y-168688761D01*
X108891224Y-168667042D01*
X108884499Y-168661103D01*
X108884496Y-168661099D01*
X108869062Y-168647468D01*
X108857018Y-168635276D01*
X108843573Y-168619673D01*
X108843570Y-168619671D01*
X108837713Y-168612873D01*
X108816165Y-168598906D01*
X108801291Y-168587615D01*
X108788783Y-168576569D01*
X108788782Y-168576568D01*
X108782049Y-168570622D01*
X108755287Y-168558057D01*
X108740309Y-168549737D01*
X108723017Y-168538529D01*
X108723012Y-168538527D01*
X108715485Y-168533648D01*
X108706892Y-168531078D01*
X108706887Y-168531076D01*
X108690880Y-168526289D01*
X108673436Y-168519628D01*
X108658324Y-168512533D01*
X108658322Y-168512532D01*
X108650200Y-168508719D01*
X108641333Y-168507338D01*
X108641332Y-168507338D01*
X108631690Y-168505837D01*
X108620983Y-168504170D01*
X108604268Y-168500387D01*
X108584534Y-168494485D01*
X108584528Y-168494484D01*
X108575934Y-168491914D01*
X108566963Y-168491859D01*
X108566962Y-168491859D01*
X108556903Y-168491798D01*
X108541494Y-168491704D01*
X108540711Y-168491671D01*
X108539614Y-168491500D01*
X108508623Y-168491500D01*
X108507853Y-168491498D01*
X108434215Y-168491048D01*
X108434214Y-168491048D01*
X108430279Y-168491024D01*
X108428935Y-168491408D01*
X108427590Y-168491500D01*
X100576000Y-168491500D01*
X100507879Y-168471498D01*
X100461386Y-168417842D01*
X100450000Y-168365500D01*
X100450000Y-167252190D01*
X100470002Y-167184069D01*
X100486905Y-167163095D01*
X101650000Y-166000000D01*
X102723886Y-164879424D01*
X102785460Y-164844081D01*
X102856367Y-164847638D01*
G37*
%TD.AperFunction*%
%TD*%
M02*
