%TF.GenerationSoftware,KiCad,Pcbnew,(6.0.4-0)*%
%TF.CreationDate,2024-04-14T14:43:09+10:00*%
%TF.ProjectId,256 word memory,32353620-776f-4726-9420-6d656d6f7279,rev?*%
%TF.SameCoordinates,Original*%
%TF.FileFunction,Soldermask,Bot*%
%TF.FilePolarity,Negative*%
%FSLAX46Y46*%
G04 Gerber Fmt 4.6, Leading zero omitted, Abs format (unit mm)*
G04 Created by KiCad (PCBNEW (6.0.4-0)) date 2024-04-14 14:43:09*
%MOMM*%
%LPD*%
G01*
G04 APERTURE LIST*
G04 Aperture macros list*
%AMRoundRect*
0 Rectangle with rounded corners*
0 $1 Rounding radius*
0 $2 $3 $4 $5 $6 $7 $8 $9 X,Y pos of 4 corners*
0 Add a 4 corners polygon primitive as box body*
4,1,4,$2,$3,$4,$5,$6,$7,$8,$9,$2,$3,0*
0 Add four circle primitives for the rounded corners*
1,1,$1+$1,$2,$3*
1,1,$1+$1,$4,$5*
1,1,$1+$1,$6,$7*
1,1,$1+$1,$8,$9*
0 Add four rect primitives between the rounded corners*
20,1,$1+$1,$2,$3,$4,$5,0*
20,1,$1+$1,$4,$5,$6,$7,0*
20,1,$1+$1,$6,$7,$8,$9,0*
20,1,$1+$1,$8,$9,$2,$3,0*%
G04 Aperture macros list end*
%ADD10C,1.600000*%
%ADD11O,1.600000X1.600000*%
%ADD12R,1.600000X1.600000*%
%ADD13R,2.540000X10.000000*%
%ADD14C,2.000000*%
%ADD15C,5.000000*%
%ADD16RoundRect,0.250000X-0.750000X0.600000X-0.750000X-0.600000X0.750000X-0.600000X0.750000X0.600000X0*%
%ADD17O,2.000000X1.700000*%
%ADD18RoundRect,0.250000X0.600000X0.725000X-0.600000X0.725000X-0.600000X-0.725000X0.600000X-0.725000X0*%
%ADD19O,1.700000X1.950000*%
G04 APERTURE END LIST*
D10*
%TO.C,R4*%
X34550000Y-110800000D03*
D11*
X34550000Y-100640000D03*
%TD*%
D10*
%TO.C,R5*%
X29845000Y-121920000D03*
D11*
X29845000Y-132080000D03*
%TD*%
D12*
%TO.C,U7*%
X45120000Y-57740000D03*
D11*
X45120000Y-55200000D03*
X45120000Y-52660000D03*
X45120000Y-50120000D03*
X45120000Y-47580000D03*
X45120000Y-45040000D03*
X45120000Y-42500000D03*
X37500000Y-42500000D03*
X37500000Y-45040000D03*
X37500000Y-47580000D03*
X37500000Y-50120000D03*
X37500000Y-52660000D03*
X37500000Y-55200000D03*
X37500000Y-57740000D03*
%TD*%
D12*
%TO.C,U3*%
X87620000Y-60280000D03*
D11*
X87620000Y-57740000D03*
X87620000Y-55200000D03*
X87620000Y-52660000D03*
X87620000Y-50120000D03*
X87620000Y-47580000D03*
X87620000Y-45040000D03*
X87620000Y-42500000D03*
X80000000Y-42500000D03*
X80000000Y-45040000D03*
X80000000Y-47580000D03*
X80000000Y-50120000D03*
X80000000Y-52660000D03*
X80000000Y-55200000D03*
X80000000Y-57740000D03*
X80000000Y-60280000D03*
%TD*%
D12*
%TO.C,U8*%
X116120000Y-60280000D03*
D11*
X116120000Y-57740000D03*
X116120000Y-55200000D03*
X116120000Y-52660000D03*
X116120000Y-50120000D03*
X116120000Y-47580000D03*
X116120000Y-45040000D03*
X116120000Y-42500000D03*
X108500000Y-42500000D03*
X108500000Y-45040000D03*
X108500000Y-47580000D03*
X108500000Y-50120000D03*
X108500000Y-52660000D03*
X108500000Y-55200000D03*
X108500000Y-57740000D03*
X108500000Y-60280000D03*
%TD*%
D12*
%TO.C,U13*%
X145620000Y-57740000D03*
D11*
X145620000Y-55200000D03*
X145620000Y-52660000D03*
X145620000Y-50120000D03*
X145620000Y-47580000D03*
X145620000Y-45040000D03*
X145620000Y-42500000D03*
X138000000Y-42500000D03*
X138000000Y-45040000D03*
X138000000Y-47580000D03*
X138000000Y-50120000D03*
X138000000Y-52660000D03*
X138000000Y-55200000D03*
X138000000Y-57740000D03*
%TD*%
D12*
%TO.C,U9*%
X87620000Y-113280000D03*
D11*
X87620000Y-110740000D03*
X87620000Y-108200000D03*
X87620000Y-105660000D03*
X87620000Y-103120000D03*
X87620000Y-100580000D03*
X87620000Y-98040000D03*
X87620000Y-95500000D03*
X80000000Y-95500000D03*
X80000000Y-98040000D03*
X80000000Y-100580000D03*
X80000000Y-103120000D03*
X80000000Y-105660000D03*
X80000000Y-108200000D03*
X80000000Y-110740000D03*
X80000000Y-113280000D03*
%TD*%
D12*
%TO.C,U10*%
X116120000Y-110740000D03*
D11*
X116120000Y-108200000D03*
X116120000Y-105660000D03*
X116120000Y-103120000D03*
X116120000Y-100580000D03*
X116120000Y-98040000D03*
X116120000Y-95500000D03*
X108500000Y-95500000D03*
X108500000Y-98040000D03*
X108500000Y-100580000D03*
X108500000Y-103120000D03*
X108500000Y-105660000D03*
X108500000Y-108200000D03*
X108500000Y-110740000D03*
%TD*%
D12*
%TO.C,U12*%
X184120000Y-110740000D03*
D11*
X184120000Y-108200000D03*
X184120000Y-105660000D03*
X184120000Y-103120000D03*
X184120000Y-100580000D03*
X184120000Y-98040000D03*
X184120000Y-95500000D03*
X176500000Y-95500000D03*
X176500000Y-98040000D03*
X176500000Y-100580000D03*
X176500000Y-103120000D03*
X176500000Y-105660000D03*
X176500000Y-108200000D03*
X176500000Y-110740000D03*
%TD*%
D12*
%TO.C,U5*%
X87620000Y-152780000D03*
D11*
X87620000Y-150240000D03*
X87620000Y-147700000D03*
X87620000Y-145160000D03*
X87620000Y-142620000D03*
X87620000Y-140080000D03*
X87620000Y-137540000D03*
X87620000Y-135000000D03*
X80000000Y-135000000D03*
X80000000Y-137540000D03*
X80000000Y-140080000D03*
X80000000Y-142620000D03*
X80000000Y-145160000D03*
X80000000Y-147700000D03*
X80000000Y-150240000D03*
X80000000Y-152780000D03*
%TD*%
D12*
%TO.C,U6*%
X116120000Y-150240000D03*
D11*
X116120000Y-147700000D03*
X116120000Y-145160000D03*
X116120000Y-142620000D03*
X116120000Y-140080000D03*
X116120000Y-137540000D03*
X116120000Y-135000000D03*
X108500000Y-135000000D03*
X108500000Y-137540000D03*
X108500000Y-140080000D03*
X108500000Y-142620000D03*
X108500000Y-145160000D03*
X108500000Y-147700000D03*
X108500000Y-150240000D03*
%TD*%
D12*
%TO.C,U1*%
X45120000Y-110740000D03*
D11*
X45120000Y-108200000D03*
X45120000Y-105660000D03*
X45120000Y-103120000D03*
X45120000Y-100580000D03*
X45120000Y-98040000D03*
X45120000Y-95500000D03*
X37500000Y-95500000D03*
X37500000Y-98040000D03*
X37500000Y-100580000D03*
X37500000Y-103120000D03*
X37500000Y-105660000D03*
X37500000Y-108200000D03*
X37500000Y-110740000D03*
%TD*%
D12*
%TO.C,U16*%
X45120000Y-150240000D03*
D11*
X45120000Y-147700000D03*
X45120000Y-145160000D03*
X45120000Y-142620000D03*
X45120000Y-140080000D03*
X45120000Y-137540000D03*
X45120000Y-135000000D03*
X37500000Y-135000000D03*
X37500000Y-137540000D03*
X37500000Y-140080000D03*
X37500000Y-142620000D03*
X37500000Y-145160000D03*
X37500000Y-147700000D03*
X37500000Y-150240000D03*
%TD*%
D12*
%TO.C,U4*%
X145620000Y-152780000D03*
D11*
X145620000Y-150240000D03*
X145620000Y-147700000D03*
X145620000Y-145160000D03*
X145620000Y-142620000D03*
X145620000Y-140080000D03*
X145620000Y-137540000D03*
X145620000Y-135000000D03*
X138000000Y-135000000D03*
X138000000Y-137540000D03*
X138000000Y-140080000D03*
X138000000Y-142620000D03*
X138000000Y-145160000D03*
X138000000Y-147700000D03*
X138000000Y-150240000D03*
X138000000Y-152780000D03*
%TD*%
D13*
%TO.C,J3*%
X82900000Y-174100000D03*
X78937600Y-174100000D03*
X74975200Y-174100000D03*
X71012800Y-174100000D03*
X67050400Y-174100000D03*
X63088000Y-174100000D03*
X59125600Y-174100000D03*
X55163200Y-174100000D03*
X51200800Y-174100000D03*
X47238400Y-174100000D03*
X43276000Y-174100000D03*
X39313600Y-174100000D03*
X35351200Y-174100000D03*
X31388800Y-174100000D03*
X27426400Y-174100000D03*
X23464000Y-174100000D03*
%TD*%
D10*
%TO.C,R1*%
X149225000Y-58000000D03*
D11*
X149225000Y-47840000D03*
%TD*%
D10*
%TO.C,R2*%
X167000000Y-58000000D03*
D11*
X167000000Y-47840000D03*
%TD*%
D12*
%TO.C,U2*%
X163620000Y-57740000D03*
D11*
X163620000Y-55200000D03*
X163620000Y-52660000D03*
X163620000Y-50120000D03*
X163620000Y-47580000D03*
X163620000Y-45040000D03*
X163620000Y-42500000D03*
X156000000Y-42500000D03*
X156000000Y-45040000D03*
X156000000Y-47580000D03*
X156000000Y-50120000D03*
X156000000Y-52660000D03*
X156000000Y-55200000D03*
X156000000Y-57740000D03*
%TD*%
D10*
%TO.C,R3*%
X152400000Y-58000000D03*
D11*
X152400000Y-47840000D03*
%TD*%
D13*
%TO.C,J5*%
X235534400Y-174200000D03*
X231572000Y-174200000D03*
X227609600Y-174200000D03*
X223647200Y-174200000D03*
X219684800Y-174200000D03*
X215722400Y-174200000D03*
X211760000Y-174200000D03*
X207797600Y-174200000D03*
X203835200Y-174200000D03*
X199872800Y-174200000D03*
X195910400Y-174200000D03*
X191948000Y-174200000D03*
X187985600Y-174200000D03*
X184023200Y-174200000D03*
X180060800Y-174200000D03*
X176098400Y-174200000D03*
X172136000Y-174200000D03*
X168173600Y-174200000D03*
X164211200Y-174200000D03*
X160248800Y-174200000D03*
X156286400Y-174200000D03*
X152324000Y-174200000D03*
X148361600Y-174200000D03*
X144399200Y-174200000D03*
X140436800Y-174200000D03*
X136474400Y-174200000D03*
X132512000Y-174200000D03*
X128549600Y-174200000D03*
X124587200Y-174200000D03*
X120624800Y-174200000D03*
X116662400Y-174200000D03*
X112700000Y-174200000D03*
%TD*%
D12*
%TO.C,U17*%
X217620000Y-110740000D03*
D11*
X217620000Y-108200000D03*
X217620000Y-105660000D03*
X217620000Y-103120000D03*
X217620000Y-100580000D03*
X217620000Y-98040000D03*
X217620000Y-95500000D03*
X210000000Y-95500000D03*
X210000000Y-98040000D03*
X210000000Y-100580000D03*
X210000000Y-103120000D03*
X210000000Y-105660000D03*
X210000000Y-108200000D03*
X210000000Y-110740000D03*
%TD*%
D12*
%TO.C,U19*%
X217620000Y-150240000D03*
D11*
X217620000Y-147700000D03*
X217620000Y-145160000D03*
X217620000Y-142620000D03*
X217620000Y-140080000D03*
X217620000Y-137540000D03*
X217620000Y-135000000D03*
X210000000Y-135000000D03*
X210000000Y-137540000D03*
X210000000Y-140080000D03*
X210000000Y-142620000D03*
X210000000Y-145160000D03*
X210000000Y-147700000D03*
X210000000Y-150240000D03*
%TD*%
D12*
%TO.C,U15*%
X145620000Y-110740000D03*
D11*
X145620000Y-108200000D03*
X145620000Y-105660000D03*
X145620000Y-103120000D03*
X145620000Y-100580000D03*
X145620000Y-98040000D03*
X145620000Y-95500000D03*
X138000000Y-95500000D03*
X138000000Y-98040000D03*
X138000000Y-100580000D03*
X138000000Y-103120000D03*
X138000000Y-105660000D03*
X138000000Y-108200000D03*
X138000000Y-110740000D03*
%TD*%
D12*
%TO.C,U11*%
X184120000Y-57740000D03*
D11*
X184120000Y-55200000D03*
X184120000Y-52660000D03*
X184120000Y-50120000D03*
X184120000Y-47580000D03*
X184120000Y-45040000D03*
X184120000Y-42500000D03*
X176500000Y-42500000D03*
X176500000Y-45040000D03*
X176500000Y-47580000D03*
X176500000Y-50120000D03*
X176500000Y-52660000D03*
X176500000Y-55200000D03*
X176500000Y-57740000D03*
%TD*%
D12*
%TO.C,U14*%
X217620000Y-57740000D03*
D11*
X217620000Y-55200000D03*
X217620000Y-52660000D03*
X217620000Y-50120000D03*
X217620000Y-47580000D03*
X217620000Y-45040000D03*
X217620000Y-42500000D03*
X210000000Y-42500000D03*
X210000000Y-45040000D03*
X210000000Y-47580000D03*
X210000000Y-50120000D03*
X210000000Y-52660000D03*
X210000000Y-55200000D03*
X210000000Y-57740000D03*
%TD*%
D12*
%TO.C,U18*%
X184120000Y-150240000D03*
D11*
X184120000Y-147700000D03*
X184120000Y-145160000D03*
X184120000Y-142620000D03*
X184120000Y-140080000D03*
X184120000Y-137540000D03*
X184120000Y-135000000D03*
X176500000Y-135000000D03*
X176500000Y-137540000D03*
X176500000Y-140080000D03*
X176500000Y-142620000D03*
X176500000Y-145160000D03*
X176500000Y-147700000D03*
X176500000Y-150240000D03*
%TD*%
D14*
%TO.C,J4*%
X173000000Y-105500000D03*
%TD*%
D10*
%TO.C,C1*%
X34527500Y-60388500D03*
X29527500Y-60388500D03*
%TD*%
%TO.C,C2*%
X230759000Y-60198000D03*
X235759000Y-60198000D03*
%TD*%
%TO.C,C3*%
X28321000Y-117856000D03*
X23321000Y-117856000D03*
%TD*%
%TO.C,C4*%
X26162000Y-154940000D03*
X21162000Y-154940000D03*
%TD*%
%TO.C,C5*%
X231203500Y-142303500D03*
X236203500Y-142303500D03*
%TD*%
D15*
%TO.C,H1*%
X24500000Y-23000000D03*
X114500000Y-23000000D03*
%TD*%
%TO.C,H2*%
X234500000Y-23000000D03*
X144500000Y-23000000D03*
%TD*%
D16*
%TO.C,J1*%
X30100000Y-105700000D03*
D17*
X30100000Y-108200000D03*
%TD*%
D18*
%TO.C,J2*%
X132000000Y-34500000D03*
D19*
X129500000Y-34500000D03*
X127000000Y-34500000D03*
%TD*%
M02*
