%TF.GenerationSoftware,KiCad,Pcbnew,(6.0.4-0)*%
%TF.CreationDate,2024-04-20T10:43:37+10:00*%
%TF.ProjectId,E8Serial,45385365-7269-4616-9c2e-6b696361645f,rev?*%
%TF.SameCoordinates,Original*%
%TF.FileFunction,Soldermask,Bot*%
%TF.FilePolarity,Negative*%
%FSLAX46Y46*%
G04 Gerber Fmt 4.6, Leading zero omitted, Abs format (unit mm)*
G04 Created by KiCad (PCBNEW (6.0.4-0)) date 2024-04-20 10:43:37*
%MOMM*%
%LPD*%
G01*
G04 APERTURE LIST*
%ADD10C,1.600000*%
%ADD11O,1.600000X1.600000*%
%ADD12C,3.000000*%
%ADD13R,1.600000X1.600000*%
%ADD14R,1.800000X1.800000*%
%ADD15C,1.800000*%
%ADD16C,2.000000*%
%ADD17R,1.700000X1.700000*%
%ADD18O,1.700000X1.700000*%
%ADD19R,1.500000X1.500000*%
%ADD20C,1.500000*%
%ADD21C,0.800000*%
%ADD22C,6.400000*%
G04 APERTURE END LIST*
D10*
%TO.C,C1*%
X158500000Y-69500000D03*
X158500000Y-74500000D03*
%TD*%
%TO.C,R1*%
X52500000Y-54000000D03*
D11*
X52500000Y-64160000D03*
%TD*%
D10*
%TO.C,R2*%
X142000000Y-72500000D03*
D11*
X142000000Y-62340000D03*
%TD*%
D10*
%TO.C,R3*%
X156845000Y-64500000D03*
D11*
X146685000Y-64500000D03*
%TD*%
D12*
%TO.C,SW1*%
X62620000Y-88000000D03*
X58810000Y-88000000D03*
X55000000Y-88000000D03*
X42300000Y-90540000D03*
X42300000Y-85460000D03*
%TD*%
%TO.C,SW2*%
X62620000Y-97000000D03*
X58810000Y-97000000D03*
X55000000Y-97000000D03*
X42300000Y-99540000D03*
X42300000Y-94460000D03*
%TD*%
%TO.C,SW3*%
X62620000Y-106000000D03*
X58810000Y-106000000D03*
X55000000Y-106000000D03*
X42300000Y-108540000D03*
X42300000Y-103460000D03*
%TD*%
%TO.C,SW4*%
X62620000Y-79000000D03*
X58810000Y-79000000D03*
X55000000Y-79000000D03*
X42300000Y-81540000D03*
X42300000Y-76460000D03*
%TD*%
%TO.C,SW5*%
X62620000Y-70000000D03*
X58810000Y-70000000D03*
X55000000Y-70000000D03*
X42300000Y-72540000D03*
X42300000Y-67460000D03*
%TD*%
D13*
%TO.C,U5*%
X139700000Y-108585000D03*
D11*
X142240000Y-108585000D03*
X144780000Y-108585000D03*
X147320000Y-108585000D03*
X149860000Y-108585000D03*
X152400000Y-108585000D03*
X154940000Y-108585000D03*
X154940000Y-100965000D03*
X152400000Y-100965000D03*
X149860000Y-100965000D03*
X147320000Y-100965000D03*
X144780000Y-100965000D03*
X142240000Y-100965000D03*
X139700000Y-100965000D03*
%TD*%
D13*
%TO.C,U3*%
X147320000Y-75565000D03*
D11*
X149860000Y-75565000D03*
X152400000Y-75565000D03*
X154940000Y-75565000D03*
X154940000Y-67945000D03*
X152400000Y-67945000D03*
X149860000Y-67945000D03*
X147320000Y-67945000D03*
%TD*%
D13*
%TO.C,U4*%
X80645000Y-112240000D03*
D11*
X83185000Y-112240000D03*
X85725000Y-112240000D03*
X88265000Y-112240000D03*
X90805000Y-112240000D03*
X93345000Y-112240000D03*
X95885000Y-112240000D03*
X98425000Y-112240000D03*
X100965000Y-112240000D03*
X103505000Y-112240000D03*
X106045000Y-112240000D03*
X108585000Y-112240000D03*
X111125000Y-112240000D03*
X113665000Y-112240000D03*
X116205000Y-112240000D03*
X118745000Y-112240000D03*
X121285000Y-112240000D03*
X123825000Y-112240000D03*
X126365000Y-112240000D03*
X128905000Y-112240000D03*
X128905000Y-97000000D03*
X126365000Y-97000000D03*
X123825000Y-97000000D03*
X121285000Y-97000000D03*
X118745000Y-97000000D03*
X116205000Y-97000000D03*
X113665000Y-97000000D03*
X111125000Y-97000000D03*
X108585000Y-97000000D03*
X106045000Y-97000000D03*
X103505000Y-97000000D03*
X100965000Y-97000000D03*
X98425000Y-97000000D03*
X95885000Y-97000000D03*
X93345000Y-97000000D03*
X90805000Y-97000000D03*
X88265000Y-97000000D03*
X85725000Y-97000000D03*
X83185000Y-97000000D03*
X80645000Y-97000000D03*
%TD*%
D13*
%TO.C,U7*%
X94615000Y-138430000D03*
D11*
X97155000Y-138430000D03*
X99695000Y-138430000D03*
X102235000Y-138430000D03*
X104775000Y-138430000D03*
X107315000Y-138430000D03*
X109855000Y-138430000D03*
X112395000Y-138430000D03*
X112395000Y-130810000D03*
X109855000Y-130810000D03*
X107315000Y-130810000D03*
X104775000Y-130810000D03*
X102235000Y-130810000D03*
X99695000Y-130810000D03*
X97155000Y-130810000D03*
X94615000Y-130810000D03*
%TD*%
D10*
%TO.C,C2*%
X150000000Y-81500000D03*
X145000000Y-81500000D03*
%TD*%
D14*
%TO.C,D1*%
X43450000Y-114285000D03*
D15*
X43450000Y-116825000D03*
%TD*%
D14*
%TO.C,D2*%
X43450000Y-121905000D03*
D15*
X43450000Y-124445000D03*
%TD*%
D14*
%TO.C,D3*%
X43450000Y-129525000D03*
D15*
X43450000Y-132065000D03*
%TD*%
D14*
%TO.C,D4*%
X43450000Y-136500000D03*
D15*
X43450000Y-139040000D03*
%TD*%
D10*
%TO.C,R4*%
X56500000Y-114285000D03*
D11*
X46340000Y-114285000D03*
%TD*%
D10*
%TO.C,R5*%
X56500000Y-121905000D03*
D11*
X46340000Y-121905000D03*
%TD*%
D10*
%TO.C,R6*%
X56515000Y-129525000D03*
D11*
X46355000Y-129525000D03*
%TD*%
D10*
%TO.C,R7*%
X57000000Y-136500000D03*
D11*
X46840000Y-136500000D03*
%TD*%
D14*
%TO.C,D5*%
X43500000Y-143495000D03*
D15*
X43500000Y-146035000D03*
%TD*%
D10*
%TO.C,R8*%
X56660000Y-143495000D03*
D11*
X46500000Y-143495000D03*
%TD*%
D10*
%TO.C,R15*%
X51435000Y-117714000D03*
D11*
X61595000Y-117714000D03*
%TD*%
D16*
%TO.C,C3*%
X124460000Y-67945000D03*
X131960000Y-67945000D03*
%TD*%
D10*
%TO.C,C4*%
X142240000Y-96520000D03*
X147240000Y-96520000D03*
%TD*%
%TO.C,C5*%
X142240000Y-127635000D03*
X137240000Y-127635000D03*
%TD*%
%TO.C,C6*%
X152400000Y-141605000D03*
X147400000Y-141605000D03*
%TD*%
D17*
%TO.C,J1*%
X93000000Y-52000000D03*
D18*
X90460000Y-52000000D03*
X87920000Y-52000000D03*
X85380000Y-52000000D03*
%TD*%
D19*
%TO.C,Q1*%
X59055000Y-114285000D03*
D20*
X61595000Y-114285000D03*
X64135000Y-114285000D03*
%TD*%
D19*
%TO.C,Q2*%
X59055000Y-121905000D03*
D20*
X61595000Y-121905000D03*
X64135000Y-121905000D03*
%TD*%
D19*
%TO.C,Q3*%
X59055000Y-129525000D03*
D20*
X61595000Y-129525000D03*
X64135000Y-129525000D03*
%TD*%
D10*
%TO.C,R9*%
X57150000Y-64135000D03*
D11*
X57150000Y-53975000D03*
%TD*%
D10*
%TO.C,R10*%
X51308000Y-125334000D03*
D11*
X61468000Y-125334000D03*
%TD*%
D10*
%TO.C,R11*%
X51435000Y-133208000D03*
D11*
X61595000Y-133208000D03*
%TD*%
D10*
%TO.C,R12*%
X148590000Y-92710000D03*
D11*
X138430000Y-92710000D03*
%TD*%
D10*
%TO.C,R13*%
X142240000Y-122555000D03*
D11*
X132080000Y-122555000D03*
%TD*%
D10*
%TO.C,R14*%
X152400000Y-145415000D03*
D11*
X142240000Y-145415000D03*
%TD*%
D15*
%TO.C,RV1*%
X147500000Y-57500000D03*
X155120000Y-60040000D03*
X160200000Y-57500000D03*
%TD*%
D13*
%TO.C,U1*%
X62230000Y-62865000D03*
D11*
X64770000Y-62865000D03*
X67310000Y-62865000D03*
X69850000Y-62865000D03*
X72390000Y-62865000D03*
X74930000Y-62865000D03*
X77470000Y-62865000D03*
X77470000Y-55245000D03*
X74930000Y-55245000D03*
X72390000Y-55245000D03*
X69850000Y-55245000D03*
X67310000Y-55245000D03*
X64770000Y-55245000D03*
X62230000Y-55245000D03*
%TD*%
D13*
%TO.C,U2*%
X93345000Y-75565000D03*
D11*
X95885000Y-75565000D03*
X98425000Y-75565000D03*
X100965000Y-75565000D03*
X103505000Y-75565000D03*
X106045000Y-75565000D03*
X108585000Y-75565000D03*
X108585000Y-67945000D03*
X106045000Y-67945000D03*
X103505000Y-67945000D03*
X100965000Y-67945000D03*
X98425000Y-67945000D03*
X95885000Y-67945000D03*
X93345000Y-67945000D03*
%TD*%
D13*
%TO.C,U6*%
X67945000Y-138430000D03*
D11*
X70485000Y-138430000D03*
X73025000Y-138430000D03*
X75565000Y-138430000D03*
X78105000Y-138430000D03*
X80645000Y-138430000D03*
X83185000Y-138430000D03*
X83185000Y-130810000D03*
X80645000Y-130810000D03*
X78105000Y-130810000D03*
X75565000Y-130810000D03*
X73025000Y-130810000D03*
X70485000Y-130810000D03*
X67945000Y-130810000D03*
%TD*%
D13*
%TO.C,U8*%
X137160000Y-138430000D03*
D11*
X139700000Y-138430000D03*
X142240000Y-138430000D03*
X144780000Y-138430000D03*
X147320000Y-138430000D03*
X149860000Y-138430000D03*
X152400000Y-138430000D03*
X154940000Y-138430000D03*
X154940000Y-130810000D03*
X152400000Y-130810000D03*
X149860000Y-130810000D03*
X147320000Y-130810000D03*
X144780000Y-130810000D03*
X142240000Y-130810000D03*
X139700000Y-130810000D03*
X137160000Y-130810000D03*
%TD*%
D21*
%TO.C,H1*%
X46697056Y-53697056D03*
X46697056Y-50302944D03*
X43302944Y-50302944D03*
X43302944Y-53697056D03*
X45000000Y-54400000D03*
X42600000Y-52000000D03*
X47400000Y-52000000D03*
X45000000Y-49600000D03*
D22*
X45000000Y-52000000D03*
%TD*%
D21*
%TO.C,H2*%
X158302944Y-53697056D03*
X160000000Y-49600000D03*
X161697056Y-53697056D03*
X160000000Y-54400000D03*
X158302944Y-50302944D03*
X162400000Y-52000000D03*
X161697056Y-50302944D03*
D22*
X160000000Y-52000000D03*
D21*
X157600000Y-52000000D03*
%TD*%
%TO.C,H3*%
X160000000Y-152600000D03*
X162400000Y-155000000D03*
D22*
X160000000Y-155000000D03*
D21*
X161697056Y-153302944D03*
X158302944Y-156697056D03*
X158302944Y-153302944D03*
X160000000Y-157400000D03*
X157600000Y-155000000D03*
X161697056Y-156697056D03*
%TD*%
%TO.C,H4*%
X42600000Y-155000000D03*
X43302944Y-153302944D03*
X46697056Y-156697056D03*
X46697056Y-153302944D03*
X43302944Y-156697056D03*
X47400000Y-155000000D03*
X45000000Y-152600000D03*
X45000000Y-157400000D03*
D22*
X45000000Y-155000000D03*
%TD*%
D17*
%TO.C,J2*%
X93000000Y-155000000D03*
D18*
X90460000Y-155000000D03*
X87920000Y-155000000D03*
X85380000Y-155000000D03*
%TD*%
D17*
%TO.C,J3*%
X160020000Y-109000000D03*
D18*
X160020000Y-111540000D03*
X160020000Y-114080000D03*
X160020000Y-116620000D03*
%TD*%
D17*
%TO.C,J4*%
X60000000Y-155000000D03*
D18*
X62540000Y-155000000D03*
X65080000Y-155000000D03*
X67620000Y-155000000D03*
%TD*%
M02*
