%TF.GenerationSoftware,KiCad,Pcbnew,9.0.1*%
%TF.CreationDate,2025-07-19T09:37:53+10:00*%
%TF.ProjectId,128 X 16 RAM V4 FINAL ,31323820-5820-4313-9620-52414d205634,rev?*%
%TF.SameCoordinates,Original*%
%TF.FileFunction,Soldermask,Top*%
%TF.FilePolarity,Negative*%
%FSLAX46Y46*%
G04 Gerber Fmt 4.6, Leading zero omitted, Abs format (unit mm)*
G04 Created by KiCad (PCBNEW 9.0.1) date 2025-07-19 09:37:53*
%MOMM*%
%LPD*%
G01*
G04 APERTURE LIST*
G04 Aperture macros list*
%AMRoundRect*
0 Rectangle with rounded corners*
0 $1 Rounding radius*
0 $2 $3 $4 $5 $6 $7 $8 $9 X,Y pos of 4 corners*
0 Add a 4 corners polygon primitive as box body*
4,1,4,$2,$3,$4,$5,$6,$7,$8,$9,$2,$3,0*
0 Add four circle primitives for the rounded corners*
1,1,$1+$1,$2,$3*
1,1,$1+$1,$4,$5*
1,1,$1+$1,$6,$7*
1,1,$1+$1,$8,$9*
0 Add four rect primitives between the rounded corners*
20,1,$1+$1,$2,$3,$4,$5,0*
20,1,$1+$1,$4,$5,$6,$7,0*
20,1,$1+$1,$6,$7,$8,$9,0*
20,1,$1+$1,$8,$9,$2,$3,0*%
G04 Aperture macros list end*
%ADD10RoundRect,0.250000X-0.950000X-0.550000X0.950000X-0.550000X0.950000X0.550000X-0.950000X0.550000X0*%
%ADD11O,2.400000X1.600000*%
%ADD12R,1.800000X1.800000*%
%ADD13C,1.800000*%
%ADD14R,1.600000X1.600000*%
%ADD15O,1.600000X1.600000*%
%ADD16C,1.600000*%
%ADD17RoundRect,0.250000X0.550000X-0.950000X0.550000X0.950000X-0.550000X0.950000X-0.550000X-0.950000X0*%
%ADD18O,1.600000X2.400000*%
%ADD19C,5.600000*%
%ADD20RoundRect,0.250000X-0.725000X0.600000X-0.725000X-0.600000X0.725000X-0.600000X0.725000X0.600000X0*%
%ADD21O,1.950000X1.700000*%
%ADD22R,2.400000X2.400000*%
%ADD23C,2.400000*%
%ADD24R,2.200000X2.200000*%
%ADD25O,2.200000X2.200000*%
%ADD26RoundRect,0.250000X0.725000X-0.600000X0.725000X0.600000X-0.725000X0.600000X-0.725000X-0.600000X0*%
%ADD27C,4.000000*%
%ADD28RoundRect,0.250000X1.050000X-1.050000X1.050000X1.050000X-1.050000X1.050000X-1.050000X-1.050000X0*%
%ADD29C,2.600000*%
%ADD30RoundRect,0.250000X0.750000X-0.600000X0.750000X0.600000X-0.750000X0.600000X-0.750000X-0.600000X0*%
%ADD31O,2.000000X1.700000*%
G04 APERTURE END LIST*
D10*
%TO.C,U15*%
X194691000Y-127202000D03*
D11*
X194691000Y-129742000D03*
X194691000Y-132282000D03*
X194691000Y-134822000D03*
X194691000Y-137362000D03*
X194691000Y-139902000D03*
X194691000Y-142442000D03*
X194691000Y-144982000D03*
X202311000Y-144982000D03*
X202311000Y-142442000D03*
X202311000Y-139902000D03*
X202311000Y-137362000D03*
X202311000Y-134822000D03*
X202311000Y-132282000D03*
X202311000Y-129742000D03*
X202311000Y-127202000D03*
%TD*%
D10*
%TO.C,J1*%
X97155000Y-98754000D03*
D11*
X97155000Y-101294000D03*
X97155000Y-103834000D03*
X97155000Y-106374000D03*
X97155000Y-108914000D03*
X97155000Y-111454000D03*
X97155000Y-113994000D03*
X97155000Y-116534000D03*
X104775000Y-116534000D03*
X104775000Y-113994000D03*
X104775000Y-111454000D03*
X104775000Y-108914000D03*
X104775000Y-106374000D03*
X104775000Y-103834000D03*
X104775000Y-101294000D03*
X104775000Y-98754000D03*
%TD*%
D10*
%TO.C,U8*%
X206756000Y-98754000D03*
D11*
X206756000Y-101294000D03*
X206756000Y-103834000D03*
X206756000Y-106374000D03*
X206756000Y-108914000D03*
X206756000Y-111454000D03*
X206756000Y-113994000D03*
X206756000Y-116534000D03*
X214376000Y-116534000D03*
X214376000Y-113994000D03*
X214376000Y-111454000D03*
X214376000Y-108914000D03*
X214376000Y-106374000D03*
X214376000Y-103834000D03*
X214376000Y-101294000D03*
X214376000Y-98754000D03*
%TD*%
D12*
%TO.C,D10*%
X238760000Y-111962000D03*
D13*
X241300000Y-111962000D03*
%TD*%
D10*
%TO.C,U21*%
X109855000Y-127202000D03*
D11*
X109855000Y-129742000D03*
X109855000Y-132282000D03*
X109855000Y-134822000D03*
X109855000Y-137362000D03*
X109855000Y-139902000D03*
X109855000Y-142442000D03*
X117475000Y-142442000D03*
X117475000Y-139902000D03*
X117475000Y-137362000D03*
X117475000Y-134822000D03*
X117475000Y-132282000D03*
X117475000Y-129742000D03*
X117475000Y-127202000D03*
%TD*%
D14*
%TO.C,D17*%
X175895000Y-62686000D03*
D15*
X183515000Y-62686000D03*
%TD*%
D12*
%TO.C,D11*%
X238760000Y-117296000D03*
D13*
X241300000Y-117296000D03*
%TD*%
D14*
%TO.C,D20*%
X151257000Y-60146000D03*
D15*
X158877000Y-60146000D03*
%TD*%
D10*
%TO.C,U11*%
X146431000Y-127202000D03*
D11*
X146431000Y-129742000D03*
X146431000Y-132282000D03*
X146431000Y-134822000D03*
X146431000Y-137362000D03*
X146431000Y-139902000D03*
X146431000Y-142442000D03*
X146431000Y-144982000D03*
X154051000Y-144982000D03*
X154051000Y-142442000D03*
X154051000Y-139902000D03*
X154051000Y-137362000D03*
X154051000Y-134822000D03*
X154051000Y-132282000D03*
X154051000Y-129742000D03*
X154051000Y-127202000D03*
%TD*%
D16*
%TO.C,R20*%
X225298000Y-111962000D03*
D15*
X235458000Y-111962000D03*
%TD*%
D17*
%TO.C,U20*%
X160020000Y-89610000D03*
D18*
X162560000Y-89610000D03*
X165100000Y-89610000D03*
X167640000Y-89610000D03*
X170180000Y-89610000D03*
X172720000Y-89610000D03*
X175260000Y-89610000D03*
X177800000Y-89610000D03*
X177800000Y-81990000D03*
X175260000Y-81990000D03*
X172720000Y-81990000D03*
X170180000Y-81990000D03*
X167640000Y-81990000D03*
X165100000Y-81990000D03*
X162560000Y-81990000D03*
X160020000Y-81990000D03*
%TD*%
D16*
%TO.C,R15*%
X225298000Y-84022000D03*
D15*
X235458000Y-84022000D03*
%TD*%
D10*
%TO.C,U1*%
X122301000Y-98754000D03*
D11*
X122301000Y-101294000D03*
X122301000Y-103834000D03*
X122301000Y-106374000D03*
X122301000Y-108914000D03*
X122301000Y-111454000D03*
X122301000Y-113994000D03*
X122301000Y-116534000D03*
X129921000Y-116534000D03*
X129921000Y-113994000D03*
X129921000Y-111454000D03*
X129921000Y-108914000D03*
X129921000Y-106374000D03*
X129921000Y-103834000D03*
X129921000Y-101294000D03*
X129921000Y-98754000D03*
%TD*%
D10*
%TO.C,U7*%
X194691000Y-98754000D03*
D11*
X194691000Y-101294000D03*
X194691000Y-103834000D03*
X194691000Y-106374000D03*
X194691000Y-108914000D03*
X194691000Y-111454000D03*
X194691000Y-113994000D03*
X194691000Y-116534000D03*
X202311000Y-116534000D03*
X202311000Y-113994000D03*
X202311000Y-111454000D03*
X202311000Y-108914000D03*
X202311000Y-106374000D03*
X202311000Y-103834000D03*
X202311000Y-101294000D03*
X202311000Y-98754000D03*
%TD*%
D16*
%TO.C,C17*%
X177245000Y-57352000D03*
X182245000Y-57352000D03*
%TD*%
%TO.C,C19*%
X209931000Y-57606000D03*
X209931000Y-62606000D03*
%TD*%
%TO.C,R10*%
X95884000Y-136026000D03*
D15*
X106044000Y-136026000D03*
%TD*%
D10*
%TO.C,U16*%
X206756000Y-127202000D03*
D11*
X206756000Y-129742000D03*
X206756000Y-132282000D03*
X206756000Y-134822000D03*
X206756000Y-137362000D03*
X206756000Y-139902000D03*
X206756000Y-142442000D03*
X206756000Y-144982000D03*
X214376000Y-144982000D03*
X214376000Y-142442000D03*
X214376000Y-139902000D03*
X214376000Y-137362000D03*
X214376000Y-134822000D03*
X214376000Y-132282000D03*
X214376000Y-129742000D03*
X214376000Y-127202000D03*
%TD*%
D16*
%TO.C,C21*%
X144144000Y-75828000D03*
X149144000Y-75828000D03*
%TD*%
%TO.C,R24*%
X225552000Y-134314000D03*
D15*
X235712000Y-134314000D03*
%TD*%
D16*
%TO.C,C6*%
X184150000Y-94182000D03*
X189150000Y-94182000D03*
%TD*%
%TO.C,C7*%
X195834000Y-94182000D03*
X200834000Y-94182000D03*
%TD*%
D10*
%TO.C,U5*%
X170561000Y-98754000D03*
D11*
X170561000Y-101294000D03*
X170561000Y-103834000D03*
X170561000Y-106374000D03*
X170561000Y-108914000D03*
X170561000Y-111454000D03*
X170561000Y-113994000D03*
X170561000Y-116534000D03*
X178181000Y-116534000D03*
X178181000Y-113994000D03*
X178181000Y-111454000D03*
X178181000Y-108914000D03*
X178181000Y-106374000D03*
X178181000Y-103834000D03*
X178181000Y-101294000D03*
X178181000Y-98754000D03*
%TD*%
D17*
%TO.C,U22*%
X132842000Y-89610000D03*
D18*
X135382000Y-89610000D03*
X137922000Y-89610000D03*
X140462000Y-89610000D03*
X143002000Y-89610000D03*
X145542000Y-89610000D03*
X148082000Y-89610000D03*
X150622000Y-89610000D03*
X150622000Y-81990000D03*
X148082000Y-81990000D03*
X145542000Y-81990000D03*
X143002000Y-81990000D03*
X140462000Y-81990000D03*
X137922000Y-81990000D03*
X135382000Y-81990000D03*
X132842000Y-81990000D03*
%TD*%
D19*
%TO.C,H2*%
X70000000Y-145000000D03*
%TD*%
%TO.C,H1*%
X70000000Y-60000000D03*
%TD*%
D10*
%TO.C,U9*%
X122301000Y-127202000D03*
D11*
X122301000Y-129742000D03*
X122301000Y-132282000D03*
X122301000Y-134822000D03*
X122301000Y-137362000D03*
X122301000Y-139902000D03*
X122301000Y-142442000D03*
X122301000Y-144982000D03*
X129921000Y-144982000D03*
X129921000Y-142442000D03*
X129921000Y-139902000D03*
X129921000Y-137362000D03*
X129921000Y-134822000D03*
X129921000Y-132282000D03*
X129921000Y-129742000D03*
X129921000Y-127202000D03*
%TD*%
D12*
%TO.C,D4*%
X238506000Y-78688000D03*
D13*
X241046000Y-78688000D03*
%TD*%
D10*
%TO.C,U27*%
X133350000Y-57658000D03*
D11*
X133350000Y-60198000D03*
X133350000Y-62738000D03*
X133350000Y-65278000D03*
X133350000Y-67818000D03*
X133350000Y-70358000D03*
X133350000Y-72898000D03*
X133350000Y-75438000D03*
X140970000Y-75438000D03*
X140970000Y-72898000D03*
X140970000Y-70358000D03*
X140970000Y-67818000D03*
X140970000Y-65278000D03*
X140970000Y-62738000D03*
X140970000Y-60198000D03*
X140970000Y-57658000D03*
%TD*%
D12*
%TO.C,D7*%
X238506000Y-94944000D03*
D13*
X241046000Y-94944000D03*
%TD*%
D20*
%TO.C,J4*%
X87540000Y-82829000D03*
D21*
X87540000Y-85329000D03*
X87540000Y-87829000D03*
X87540000Y-90329000D03*
X87540000Y-92829000D03*
X87540000Y-95329000D03*
X87540000Y-97829000D03*
X87540000Y-100329000D03*
X87540000Y-102829000D03*
X87540000Y-105329000D03*
%TD*%
D16*
%TO.C,R9*%
X95884000Y-142630000D03*
D15*
X106044000Y-142630000D03*
%TD*%
D16*
%TO.C,R27*%
X185292000Y-68716000D03*
D15*
X175132000Y-68716000D03*
%TD*%
D16*
%TO.C,R30*%
X190881000Y-65226000D03*
D15*
X190881000Y-75386000D03*
%TD*%
D16*
%TO.C,R21*%
X225298000Y-117296000D03*
D15*
X235458000Y-117296000D03*
%TD*%
D12*
%TO.C,D12*%
X238760000Y-122766000D03*
D13*
X241300000Y-122766000D03*
%TD*%
D16*
%TO.C,R32*%
X95884000Y-139328000D03*
D15*
X106044000Y-139328000D03*
%TD*%
D16*
%TO.C,C10*%
X136144000Y-122630000D03*
X141144000Y-122630000D03*
%TD*%
%TO.C,R16*%
X225298000Y-89610000D03*
D15*
X235458000Y-89610000D03*
%TD*%
D22*
%TO.C,C18*%
X87285959Y-125866000D03*
D23*
X82285959Y-125866000D03*
%TD*%
D10*
%TO.C,U24*%
X105282000Y-60334000D03*
D11*
X105282000Y-62874000D03*
X105282000Y-65414000D03*
X105282000Y-67954000D03*
X105282000Y-70494000D03*
X105282000Y-73034000D03*
X105282000Y-75574000D03*
X112902000Y-75574000D03*
X112902000Y-73034000D03*
X112902000Y-70494000D03*
X112902000Y-67954000D03*
X112902000Y-65414000D03*
X112902000Y-62874000D03*
X112902000Y-60334000D03*
%TD*%
D16*
%TO.C,R14*%
X225298000Y-78688000D03*
D15*
X235458000Y-78688000D03*
%TD*%
D16*
%TO.C,R18*%
X225298000Y-100532000D03*
D15*
X235458000Y-100532000D03*
%TD*%
D16*
%TO.C,C13*%
X171704000Y-122630000D03*
X176704000Y-122630000D03*
%TD*%
D10*
%TO.C,U10*%
X134366000Y-127202000D03*
D11*
X134366000Y-129742000D03*
X134366000Y-132282000D03*
X134366000Y-134822000D03*
X134366000Y-137362000D03*
X134366000Y-139902000D03*
X134366000Y-142442000D03*
X134366000Y-144982000D03*
X141986000Y-144982000D03*
X141986000Y-142442000D03*
X141986000Y-139902000D03*
X141986000Y-137362000D03*
X141986000Y-134822000D03*
X141986000Y-132282000D03*
X141986000Y-129742000D03*
X141986000Y-127202000D03*
%TD*%
D16*
%TO.C,C11*%
X148336000Y-122630000D03*
X153336000Y-122630000D03*
%TD*%
D12*
%TO.C,D9*%
X238760000Y-106356000D03*
D13*
X241300000Y-106356000D03*
%TD*%
D16*
%TO.C,C2*%
X135890000Y-94182000D03*
X140890000Y-94182000D03*
%TD*%
D20*
%TO.C,J2*%
X125984000Y-83340000D03*
D21*
X125984000Y-85840000D03*
X125984000Y-88340000D03*
%TD*%
D16*
%TO.C,R4*%
X110617000Y-90753000D03*
D15*
X110617000Y-80593000D03*
%TD*%
D16*
%TO.C,R19*%
X225298000Y-106374000D03*
D15*
X235458000Y-106374000D03*
%TD*%
D10*
%TO.C,U26*%
X118236000Y-60334000D03*
D11*
X118236000Y-62874000D03*
X118236000Y-65414000D03*
X118236000Y-67954000D03*
X118236000Y-70494000D03*
X118236000Y-73034000D03*
X118236000Y-75574000D03*
X125856000Y-75574000D03*
X125856000Y-73034000D03*
X125856000Y-70494000D03*
X125856000Y-67954000D03*
X125856000Y-65414000D03*
X125856000Y-62874000D03*
X125856000Y-60334000D03*
%TD*%
D16*
%TO.C,R7*%
X95884000Y-129422000D03*
D15*
X106044000Y-129422000D03*
%TD*%
D10*
%TO.C,U19*%
X164465000Y-57606000D03*
D11*
X164465000Y-60146000D03*
X164465000Y-62686000D03*
X164465000Y-65226000D03*
X164465000Y-67766000D03*
X164465000Y-70306000D03*
X164465000Y-72846000D03*
X164465000Y-75386000D03*
X172085000Y-75386000D03*
X172085000Y-72846000D03*
X172085000Y-70306000D03*
X172085000Y-67766000D03*
X172085000Y-65226000D03*
X172085000Y-62686000D03*
X172085000Y-60146000D03*
X172085000Y-57606000D03*
%TD*%
D16*
%TO.C,C8*%
X208280000Y-94182000D03*
X213280000Y-94182000D03*
%TD*%
%TO.C,C5*%
X171958000Y-94182000D03*
X176958000Y-94182000D03*
%TD*%
D10*
%TO.C,U4*%
X158496000Y-98754000D03*
D11*
X158496000Y-101294000D03*
X158496000Y-103834000D03*
X158496000Y-106374000D03*
X158496000Y-108914000D03*
X158496000Y-111454000D03*
X158496000Y-113994000D03*
X158496000Y-116534000D03*
X166116000Y-116534000D03*
X166116000Y-113994000D03*
X166116000Y-111454000D03*
X166116000Y-108914000D03*
X166116000Y-106374000D03*
X166116000Y-103834000D03*
X166116000Y-101294000D03*
X166116000Y-98754000D03*
%TD*%
D12*
%TO.C,D6*%
X238506000Y-89610000D03*
D13*
X241046000Y-89610000D03*
%TD*%
D16*
%TO.C,C15*%
X196088000Y-122630000D03*
X201088000Y-122630000D03*
%TD*%
D10*
%TO.C,U25*%
X197993000Y-57606000D03*
D11*
X197993000Y-60146000D03*
X197993000Y-62686000D03*
X197993000Y-65226000D03*
X197993000Y-67766000D03*
X197993000Y-70306000D03*
X197993000Y-72846000D03*
X197993000Y-75386000D03*
X205613000Y-75386000D03*
X205613000Y-72846000D03*
X205613000Y-70306000D03*
X205613000Y-67766000D03*
X205613000Y-65226000D03*
X205613000Y-62686000D03*
X205613000Y-60146000D03*
X205613000Y-57606000D03*
%TD*%
D16*
%TO.C,R1*%
X101388000Y-90753000D03*
D15*
X101388000Y-80593000D03*
%TD*%
D12*
%TO.C,D14*%
X238760000Y-134042000D03*
D13*
X241300000Y-134042000D03*
%TD*%
D16*
%TO.C,R17*%
X225298000Y-94944000D03*
D15*
X235458000Y-94944000D03*
%TD*%
D10*
%TO.C,U14*%
X182626000Y-127202000D03*
D11*
X182626000Y-129742000D03*
X182626000Y-132282000D03*
X182626000Y-134822000D03*
X182626000Y-137362000D03*
X182626000Y-139902000D03*
X182626000Y-142442000D03*
X182626000Y-144982000D03*
X190246000Y-144982000D03*
X190246000Y-142442000D03*
X190246000Y-139902000D03*
X190246000Y-137362000D03*
X190246000Y-134822000D03*
X190246000Y-132282000D03*
X190246000Y-129742000D03*
X190246000Y-127202000D03*
%TD*%
D14*
%TO.C,D18*%
X175895000Y-60146000D03*
D15*
X183515000Y-60146000D03*
%TD*%
D16*
%TO.C,R29*%
X212979000Y-67766000D03*
D15*
X212979000Y-57606000D03*
%TD*%
D16*
%TO.C,R31*%
X154304000Y-73034000D03*
D15*
X144144000Y-73034000D03*
%TD*%
D16*
%TO.C,C3*%
X148082000Y-94182000D03*
X153082000Y-94182000D03*
%TD*%
%TO.C,R12*%
X225298000Y-67512000D03*
D15*
X235458000Y-67512000D03*
%TD*%
D14*
%TO.C,D19*%
X151257000Y-62940000D03*
D15*
X158877000Y-62940000D03*
%TD*%
D16*
%TO.C,C9*%
X123698000Y-122630000D03*
X128698000Y-122630000D03*
%TD*%
D24*
%TO.C,D21*%
X88264000Y-146948000D03*
D25*
X78104000Y-146948000D03*
%TD*%
D16*
%TO.C,R23*%
X225552000Y-128472000D03*
D15*
X235712000Y-128472000D03*
%TD*%
D26*
%TO.C,J7*%
X97154000Y-73034000D03*
D21*
X97154000Y-70534000D03*
X97154000Y-68034000D03*
X97154000Y-65534000D03*
X97154000Y-63034000D03*
%TD*%
D16*
%TO.C,C4*%
X160020000Y-94182000D03*
X165020000Y-94182000D03*
%TD*%
%TO.C,R28*%
X151257000Y-65988000D03*
D15*
X161417000Y-65988000D03*
%TD*%
D16*
%TO.C,C14*%
X183896000Y-122630000D03*
X188896000Y-122630000D03*
%TD*%
D10*
%TO.C,U13*%
X170561000Y-127202000D03*
D11*
X170561000Y-129742000D03*
X170561000Y-132282000D03*
X170561000Y-134822000D03*
X170561000Y-137362000D03*
X170561000Y-139902000D03*
X170561000Y-142442000D03*
X170561000Y-144982000D03*
X178181000Y-144982000D03*
X178181000Y-142442000D03*
X178181000Y-139902000D03*
X178181000Y-137362000D03*
X178181000Y-134822000D03*
X178181000Y-132282000D03*
X178181000Y-129742000D03*
X178181000Y-127202000D03*
%TD*%
D26*
%TO.C,J5*%
X87375000Y-73034000D03*
D21*
X87375000Y-70534000D03*
X87375000Y-68034000D03*
X87375000Y-65534000D03*
X87375000Y-63034000D03*
%TD*%
D27*
%TO.C,J3*%
X74172000Y-77900000D03*
X74172000Y-125000000D03*
D14*
X75592000Y-84830000D03*
D16*
X75592000Y-87600000D03*
X75592000Y-90370000D03*
X75592000Y-93140000D03*
X75592000Y-95910000D03*
X75592000Y-98680000D03*
X75592000Y-101450000D03*
X75592000Y-104220000D03*
X75592000Y-106990000D03*
X75592000Y-109760000D03*
X75592000Y-112530000D03*
X75592000Y-115300000D03*
X75592000Y-118070000D03*
X72752000Y-86215000D03*
X72752000Y-88985000D03*
X72752000Y-91755000D03*
X72752000Y-94525000D03*
X72752000Y-97295000D03*
X72752000Y-100065000D03*
X72752000Y-102835000D03*
X72752000Y-105605000D03*
X72752000Y-108375000D03*
X72752000Y-111145000D03*
X72752000Y-113915000D03*
X72752000Y-116685000D03*
%TD*%
%TO.C,R22*%
X225298000Y-122884000D03*
D15*
X235458000Y-122884000D03*
%TD*%
D12*
%TO.C,D3*%
X238506000Y-73100000D03*
D13*
X241046000Y-73100000D03*
%TD*%
D16*
%TO.C,R8*%
X95884000Y-132766000D03*
D15*
X106044000Y-132766000D03*
%TD*%
D16*
%TO.C,C20*%
X193929000Y-75386000D03*
X193929000Y-70386000D03*
%TD*%
D10*
%TO.C,U23*%
X109855000Y-96214000D03*
D11*
X109855000Y-98754000D03*
X109855000Y-101294000D03*
X109855000Y-103834000D03*
X109855000Y-106374000D03*
X109855000Y-108914000D03*
X109855000Y-111454000D03*
X109855000Y-113994000D03*
X109855000Y-116534000D03*
X109855000Y-119074000D03*
X117475000Y-119074000D03*
X117475000Y-116534000D03*
X117475000Y-113994000D03*
X117475000Y-111454000D03*
X117475000Y-108914000D03*
X117475000Y-106374000D03*
X117475000Y-103834000D03*
X117475000Y-101294000D03*
X117475000Y-98754000D03*
X117475000Y-96214000D03*
%TD*%
D12*
%TO.C,D1*%
X238506000Y-61924000D03*
D13*
X241046000Y-61924000D03*
%TD*%
D12*
%TO.C,D13*%
X238760000Y-128572000D03*
D13*
X241300000Y-128572000D03*
%TD*%
D16*
%TO.C,C16*%
X208280000Y-122630000D03*
X213280000Y-122630000D03*
%TD*%
%TO.C,R26*%
X225552000Y-144982000D03*
D15*
X235712000Y-144982000D03*
%TD*%
D12*
%TO.C,D2*%
X238506000Y-67512000D03*
D13*
X241046000Y-67512000D03*
%TD*%
D10*
%TO.C,U3*%
X146431000Y-98754000D03*
D11*
X146431000Y-101294000D03*
X146431000Y-103834000D03*
X146431000Y-106374000D03*
X146431000Y-108914000D03*
X146431000Y-111454000D03*
X146431000Y-113994000D03*
X146431000Y-116534000D03*
X154051000Y-116534000D03*
X154051000Y-113994000D03*
X154051000Y-111454000D03*
X154051000Y-108914000D03*
X154051000Y-106374000D03*
X154051000Y-103834000D03*
X154051000Y-101294000D03*
X154051000Y-98754000D03*
%TD*%
D16*
%TO.C,R11*%
X225298000Y-61924000D03*
D15*
X235458000Y-61924000D03*
%TD*%
D16*
%TO.C,C12*%
X160274000Y-122630000D03*
X165274000Y-122630000D03*
%TD*%
D19*
%TO.C,H4*%
X220000000Y-145000000D03*
%TD*%
D12*
%TO.C,D5*%
X238506000Y-84004000D03*
D13*
X241046000Y-84004000D03*
%TD*%
D12*
%TO.C,D15*%
X238760000Y-139512000D03*
D13*
X241300000Y-139512000D03*
%TD*%
D17*
%TO.C,U18*%
X183134000Y-89610000D03*
D18*
X185674000Y-89610000D03*
X188214000Y-89610000D03*
X190754000Y-89610000D03*
X193294000Y-89610000D03*
X195834000Y-89610000D03*
X198374000Y-89610000D03*
X200914000Y-89610000D03*
X200914000Y-81990000D03*
X198374000Y-81990000D03*
X195834000Y-81990000D03*
X193294000Y-81990000D03*
X190754000Y-81990000D03*
X188214000Y-81990000D03*
X185674000Y-81990000D03*
X183134000Y-81990000D03*
%TD*%
D16*
%TO.C,R3*%
X106045000Y-90753000D03*
D15*
X106045000Y-80593000D03*
%TD*%
D16*
%TO.C,R2*%
X107314000Y-146186000D03*
D15*
X117474000Y-146186000D03*
%TD*%
D28*
%TO.C,J11*%
X82930000Y-141106000D03*
D29*
X82930000Y-136026000D03*
%TD*%
D30*
%TO.C,J6*%
X86270000Y-114800000D03*
D31*
X86270000Y-112300000D03*
%TD*%
D10*
%TO.C,U6*%
X182626000Y-98754000D03*
D11*
X182626000Y-101294000D03*
X182626000Y-103834000D03*
X182626000Y-106374000D03*
X182626000Y-108914000D03*
X182626000Y-111454000D03*
X182626000Y-113994000D03*
X182626000Y-116534000D03*
X190246000Y-116534000D03*
X190246000Y-113994000D03*
X190246000Y-111454000D03*
X190246000Y-108914000D03*
X190246000Y-106374000D03*
X190246000Y-103834000D03*
X190246000Y-101294000D03*
X190246000Y-98754000D03*
%TD*%
D10*
%TO.C,U12*%
X158496000Y-127202000D03*
D11*
X158496000Y-129742000D03*
X158496000Y-132282000D03*
X158496000Y-134822000D03*
X158496000Y-137362000D03*
X158496000Y-139902000D03*
X158496000Y-142442000D03*
X158496000Y-144982000D03*
X166116000Y-144982000D03*
X166116000Y-142442000D03*
X166116000Y-139902000D03*
X166116000Y-137362000D03*
X166116000Y-134822000D03*
X166116000Y-132282000D03*
X166116000Y-129742000D03*
X166116000Y-127202000D03*
%TD*%
D10*
%TO.C,U2*%
X134366000Y-98754000D03*
D11*
X134366000Y-101294000D03*
X134366000Y-103834000D03*
X134366000Y-106374000D03*
X134366000Y-108914000D03*
X134366000Y-111454000D03*
X134366000Y-113994000D03*
X134366000Y-116534000D03*
X141986000Y-116534000D03*
X141986000Y-113994000D03*
X141986000Y-111454000D03*
X141986000Y-108914000D03*
X141986000Y-106374000D03*
X141986000Y-103834000D03*
X141986000Y-101294000D03*
X141986000Y-98754000D03*
%TD*%
D19*
%TO.C,H3*%
X220000000Y-60000000D03*
%TD*%
D16*
%TO.C,R25*%
X225552000Y-139512000D03*
D15*
X235712000Y-139512000D03*
%TD*%
D16*
%TO.C,R13*%
X225298000Y-73100000D03*
D15*
X235458000Y-73100000D03*
%TD*%
D16*
%TO.C,R5*%
X115316000Y-90753000D03*
D15*
X115316000Y-80593000D03*
%TD*%
D16*
%TO.C,C1*%
X123698000Y-94182000D03*
X128698000Y-94182000D03*
%TD*%
%TO.C,R6*%
X186562000Y-65541000D03*
D15*
X176402000Y-65541000D03*
%TD*%
D12*
%TO.C,D8*%
X238506000Y-100532000D03*
D13*
X241046000Y-100532000D03*
%TD*%
D12*
%TO.C,D16*%
X238760000Y-144982000D03*
D13*
X241300000Y-144982000D03*
%TD*%
M02*
