M48
; DRILL file {KiCad 9.0.1} date 2025-07-19T09:38:00+1000
; FORMAT={-:-/ absolute / metric / decimal}
; #@! TF.CreationDate,2025-07-19T09:38:00+10:00
; #@! TF.GenerationSoftware,Kicad,Pcbnew,9.0.1
; #@! TF.FileFunction,Plated,1,4,PTH
FMAT,2
METRIC
; #@! TA.AperFunction,Plated,PTH,ViaDrill
T1C0.400
; #@! TA.AperFunction,Plated,PTH,ViaDrill
T2C0.500
; #@! TA.AperFunction,Plated,PTH,ComponentDrill
T3C0.800
; #@! TA.AperFunction,Plated,PTH,ComponentDrill
T4C0.900
; #@! TA.AperFunction,Plated,PTH,ComponentDrill
T5C0.950
; #@! TA.AperFunction,Plated,PTH,ComponentDrill
T6C1.000
; #@! TA.AperFunction,Plated,PTH,ComponentDrill
T7C1.100
; #@! TA.AperFunction,Plated,PTH,ComponentDrill
T8C1.200
; #@! TA.AperFunction,Plated,PTH,ComponentDrill
T9C1.300
; #@! TA.AperFunction,Plated,PTH,ComponentDrill
T10C3.200
%
G90
G05
T1
X106.044Y-121.802
X114.3Y-121.548
X126.745Y-131.012
X127.761Y-102.564
X138.81Y-128.472
X138.937Y-131.012
X139.953Y-100.024
X139.953Y-102.564
X141.096Y-84.21
X150.749Y-133.552
X150.749Y-136.092
X150.749Y-138.632
X150.876Y-86.308
X152.018Y-107.644
X152.018Y-110.184
X152.145Y-105.104
X154.304Y-82.432
X154.304Y-87.258
T2
X108.584Y-62.874
X108.845Y-77.666
X113.664Y-137.55
X114.554Y-100.024
X115.316Y-102.564
X115.316Y-129.742
X115.696Y-67.954
X120.459Y-131.012
X121.538Y-62.874
X121.538Y-70.494
X125.222Y-105.231
X126.238Y-93.674
X129.412Y-73.542
X131.826Y-124.662
X136.506Y-78.114
X136.778Y-65.414
X137.706Y-78.114
X137.794Y-67.954
X138.43Y-93.928
X140.334Y-78.117
X142.62Y-71.764
X150.876Y-94.182
X160.02Y-87.133
X162.306Y-93.928
X164.338Y-86.269
X167.894Y-85.228
X169.037Y-59.13
X169.037Y-87.958
X172.466Y-84.276
X173.482Y-94.182
X179.832Y-92.746
X179.832Y-94.436
X183.134Y-87.134
X186.309Y-86.181
X189.738Y-85.292
X194.437Y-84.276
X200.66Y-125.932
X209.042Y-107.5
X209.042Y-110.04
X209.042Y-112.58
X209.042Y-115.12
X209.042Y-117.66
T3
X95.884Y-129.422
X95.884Y-132.766
X95.884Y-136.026
X95.884Y-139.328
X95.884Y-142.63
X97.155Y-98.754
X97.155Y-101.294
X97.155Y-103.834
X97.155Y-106.374
X97.155Y-108.914
X97.155Y-111.454
X97.155Y-113.994
X97.155Y-116.534
X101.388Y-80.593
X101.388Y-90.753
X104.775Y-98.754
X104.775Y-101.294
X104.775Y-103.834
X104.775Y-106.374
X104.775Y-108.914
X104.775Y-111.454
X104.775Y-113.994
X104.775Y-116.534
X105.282Y-60.334
X105.282Y-62.874
X105.282Y-65.414
X105.282Y-67.954
X105.282Y-70.494
X105.282Y-73.034
X105.282Y-75.574
X106.044Y-129.422
X106.044Y-132.766
X106.044Y-136.026
X106.044Y-139.328
X106.044Y-142.63
X106.045Y-80.593
X106.045Y-90.753
X107.314Y-146.186
X109.855Y-96.214
X109.855Y-98.754
X109.855Y-101.294
X109.855Y-103.834
X109.855Y-106.374
X109.855Y-108.914
X109.855Y-111.454
X109.855Y-113.994
X109.855Y-116.534
X109.855Y-119.074
X109.855Y-127.202
X109.855Y-129.742
X109.855Y-132.282
X109.855Y-134.822
X109.855Y-137.362
X109.855Y-139.902
X109.855Y-142.442
X110.617Y-80.593
X110.617Y-90.753
X112.902Y-60.334
X112.902Y-62.874
X112.902Y-65.414
X112.902Y-67.954
X112.902Y-70.494
X112.902Y-73.034
X112.902Y-75.574
X115.316Y-80.593
X115.316Y-90.753
X117.474Y-146.186
X117.475Y-96.214
X117.475Y-98.754
X117.475Y-101.294
X117.475Y-103.834
X117.475Y-106.374
X117.475Y-108.914
X117.475Y-111.454
X117.475Y-113.994
X117.475Y-116.534
X117.475Y-119.074
X117.475Y-127.202
X117.475Y-129.742
X117.475Y-132.282
X117.475Y-134.822
X117.475Y-137.362
X117.475Y-139.902
X117.475Y-142.442
X118.236Y-60.334
X118.236Y-62.874
X118.236Y-65.414
X118.236Y-67.954
X118.236Y-70.494
X118.236Y-73.034
X118.236Y-75.574
X122.301Y-98.754
X122.301Y-101.294
X122.301Y-103.834
X122.301Y-106.374
X122.301Y-108.914
X122.301Y-111.454
X122.301Y-113.994
X122.301Y-116.534
X122.301Y-127.202
X122.301Y-129.742
X122.301Y-132.282
X122.301Y-134.822
X122.301Y-137.362
X122.301Y-139.902
X122.301Y-142.442
X122.301Y-144.982
X123.698Y-94.182
X123.698Y-122.63
X125.856Y-60.334
X125.856Y-62.874
X125.856Y-65.414
X125.856Y-67.954
X125.856Y-70.494
X125.856Y-73.034
X125.856Y-75.574
X128.698Y-94.182
X128.698Y-122.63
X129.921Y-98.754
X129.921Y-101.294
X129.921Y-103.834
X129.921Y-106.374
X129.921Y-108.914
X129.921Y-111.454
X129.921Y-113.994
X129.921Y-116.534
X129.921Y-127.202
X129.921Y-129.742
X129.921Y-132.282
X129.921Y-134.822
X129.921Y-137.362
X129.921Y-139.902
X129.921Y-142.442
X129.921Y-144.982
X132.842Y-81.99
X132.842Y-89.61
X133.35Y-57.658
X133.35Y-60.198
X133.35Y-62.738
X133.35Y-65.278
X133.35Y-67.818
X133.35Y-70.358
X133.35Y-72.898
X133.35Y-75.438
X134.366Y-98.754
X134.366Y-101.294
X134.366Y-103.834
X134.366Y-106.374
X134.366Y-108.914
X134.366Y-111.454
X134.366Y-113.994
X134.366Y-116.534
X134.366Y-127.202
X134.366Y-129.742
X134.366Y-132.282
X134.366Y-134.822
X134.366Y-137.362
X134.366Y-139.902
X134.366Y-142.442
X134.366Y-144.982
X135.382Y-81.99
X135.382Y-89.61
X135.89Y-94.182
X136.144Y-122.63
X137.922Y-81.99
X137.922Y-89.61
X140.462Y-81.99
X140.462Y-89.61
X140.89Y-94.182
X140.97Y-57.658
X140.97Y-60.198
X140.97Y-62.738
X140.97Y-65.278
X140.97Y-67.818
X140.97Y-70.358
X140.97Y-72.898
X140.97Y-75.438
X141.144Y-122.63
X141.986Y-98.754
X141.986Y-101.294
X141.986Y-103.834
X141.986Y-106.374
X141.986Y-108.914
X141.986Y-111.454
X141.986Y-113.994
X141.986Y-116.534
X141.986Y-127.202
X141.986Y-129.742
X141.986Y-132.282
X141.986Y-134.822
X141.986Y-137.362
X141.986Y-139.902
X141.986Y-142.442
X141.986Y-144.982
X143.002Y-81.99
X143.002Y-89.61
X144.144Y-73.034
X144.144Y-75.828
X145.542Y-81.99
X145.542Y-89.61
X146.431Y-98.754
X146.431Y-101.294
X146.431Y-103.834
X146.431Y-106.374
X146.431Y-108.914
X146.431Y-111.454
X146.431Y-113.994
X146.431Y-116.534
X146.431Y-127.202
X146.431Y-129.742
X146.431Y-132.282
X146.431Y-134.822
X146.431Y-137.362
X146.431Y-139.902
X146.431Y-142.442
X146.431Y-144.982
X148.082Y-81.99
X148.082Y-89.61
X148.082Y-94.182
X148.336Y-122.63
X149.144Y-75.828
X150.622Y-81.99
X150.622Y-89.61
X151.257Y-60.146
X151.257Y-62.94
X151.257Y-65.988
X153.082Y-94.182
X153.336Y-122.63
X154.051Y-98.754
X154.051Y-101.294
X154.051Y-103.834
X154.051Y-106.374
X154.051Y-108.914
X154.051Y-111.454
X154.051Y-113.994
X154.051Y-116.534
X154.051Y-127.202
X154.051Y-129.742
X154.051Y-132.282
X154.051Y-134.822
X154.051Y-137.362
X154.051Y-139.902
X154.051Y-142.442
X154.051Y-144.982
X154.304Y-73.034
X158.496Y-98.754
X158.496Y-101.294
X158.496Y-103.834
X158.496Y-106.374
X158.496Y-108.914
X158.496Y-111.454
X158.496Y-113.994
X158.496Y-116.534
X158.496Y-127.202
X158.496Y-129.742
X158.496Y-132.282
X158.496Y-134.822
X158.496Y-137.362
X158.496Y-139.902
X158.496Y-142.442
X158.496Y-144.982
X158.877Y-60.146
X158.877Y-62.94
X160.02Y-81.99
X160.02Y-89.61
X160.02Y-94.182
X160.274Y-122.63
X161.417Y-65.988
X162.56Y-81.99
X162.56Y-89.61
X164.465Y-57.606
X164.465Y-60.146
X164.465Y-62.686
X164.465Y-65.226
X164.465Y-67.766
X164.465Y-70.306
X164.465Y-72.846
X164.465Y-75.386
X165.02Y-94.182
X165.1Y-81.99
X165.1Y-89.61
X165.274Y-122.63
X166.116Y-98.754
X166.116Y-101.294
X166.116Y-103.834
X166.116Y-106.374
X166.116Y-108.914
X166.116Y-111.454
X166.116Y-113.994
X166.116Y-116.534
X166.116Y-127.202
X166.116Y-129.742
X166.116Y-132.282
X166.116Y-134.822
X166.116Y-137.362
X166.116Y-139.902
X166.116Y-142.442
X166.116Y-144.982
X167.64Y-81.99
X167.64Y-89.61
X170.18Y-81.99
X170.18Y-89.61
X170.561Y-98.754
X170.561Y-101.294
X170.561Y-103.834
X170.561Y-106.374
X170.561Y-108.914
X170.561Y-111.454
X170.561Y-113.994
X170.561Y-116.534
X170.561Y-127.202
X170.561Y-129.742
X170.561Y-132.282
X170.561Y-134.822
X170.561Y-137.362
X170.561Y-139.902
X170.561Y-142.442
X170.561Y-144.982
X171.704Y-122.63
X171.958Y-94.182
X172.085Y-57.606
X172.085Y-60.146
X172.085Y-62.686
X172.085Y-65.226
X172.085Y-67.766
X172.085Y-70.306
X172.085Y-72.846
X172.085Y-75.386
X172.72Y-81.99
X172.72Y-89.61
X175.132Y-68.716
X175.26Y-81.99
X175.26Y-89.61
X175.895Y-60.146
X175.895Y-62.686
X176.402Y-65.541
X176.704Y-122.63
X176.958Y-94.182
X177.245Y-57.352
X177.8Y-81.99
X177.8Y-89.61
X178.181Y-98.754
X178.181Y-101.294
X178.181Y-103.834
X178.181Y-106.374
X178.181Y-108.914
X178.181Y-111.454
X178.181Y-113.994
X178.181Y-116.534
X178.181Y-127.202
X178.181Y-129.742
X178.181Y-132.282
X178.181Y-134.822
X178.181Y-137.362
X178.181Y-139.902
X178.181Y-142.442
X178.181Y-144.982
X182.245Y-57.352
X182.626Y-98.754
X182.626Y-101.294
X182.626Y-103.834
X182.626Y-106.374
X182.626Y-108.914
X182.626Y-111.454
X182.626Y-113.994
X182.626Y-116.534
X182.626Y-127.202
X182.626Y-129.742
X182.626Y-132.282
X182.626Y-134.822
X182.626Y-137.362
X182.626Y-139.902
X182.626Y-142.442
X182.626Y-144.982
X183.134Y-81.99
X183.134Y-89.61
X183.515Y-60.146
X183.515Y-62.686
X183.896Y-122.63
X184.15Y-94.182
X185.292Y-68.716
X185.674Y-81.99
X185.674Y-89.61
X186.562Y-65.541
X188.214Y-81.99
X188.214Y-89.61
X188.896Y-122.63
X189.15Y-94.182
X190.246Y-98.754
X190.246Y-101.294
X190.246Y-103.834
X190.246Y-106.374
X190.246Y-108.914
X190.246Y-111.454
X190.246Y-113.994
X190.246Y-116.534
X190.246Y-127.202
X190.246Y-129.742
X190.246Y-132.282
X190.246Y-134.822
X190.246Y-137.362
X190.246Y-139.902
X190.246Y-142.442
X190.246Y-144.982
X190.754Y-81.99
X190.754Y-89.61
X190.881Y-65.226
X190.881Y-75.386
X193.294Y-81.99
X193.294Y-89.61
X193.929Y-70.386
X193.929Y-75.386
X194.691Y-98.754
X194.691Y-101.294
X194.691Y-103.834
X194.691Y-106.374
X194.691Y-108.914
X194.691Y-111.454
X194.691Y-113.994
X194.691Y-116.534
X194.691Y-127.202
X194.691Y-129.742
X194.691Y-132.282
X194.691Y-134.822
X194.691Y-137.362
X194.691Y-139.902
X194.691Y-142.442
X194.691Y-144.982
X195.834Y-81.99
X195.834Y-89.61
X195.834Y-94.182
X196.088Y-122.63
X197.993Y-57.606
X197.993Y-60.146
X197.993Y-62.686
X197.993Y-65.226
X197.993Y-67.766
X197.993Y-70.306
X197.993Y-72.846
X197.993Y-75.386
X198.374Y-81.99
X198.374Y-89.61
X200.834Y-94.182
X200.914Y-81.99
X200.914Y-89.61
X201.088Y-122.63
X202.311Y-98.754
X202.311Y-101.294
X202.311Y-103.834
X202.311Y-106.374
X202.311Y-108.914
X202.311Y-111.454
X202.311Y-113.994
X202.311Y-116.534
X202.311Y-127.202
X202.311Y-129.742
X202.311Y-132.282
X202.311Y-134.822
X202.311Y-137.362
X202.311Y-139.902
X202.311Y-142.442
X202.311Y-144.982
X205.613Y-57.606
X205.613Y-60.146
X205.613Y-62.686
X205.613Y-65.226
X205.613Y-67.766
X205.613Y-70.306
X205.613Y-72.846
X205.613Y-75.386
X206.756Y-98.754
X206.756Y-101.294
X206.756Y-103.834
X206.756Y-106.374
X206.756Y-108.914
X206.756Y-111.454
X206.756Y-113.994
X206.756Y-116.534
X206.756Y-127.202
X206.756Y-129.742
X206.756Y-132.282
X206.756Y-134.822
X206.756Y-137.362
X206.756Y-139.902
X206.756Y-142.442
X206.756Y-144.982
X208.28Y-94.182
X208.28Y-122.63
X209.931Y-57.606
X209.931Y-62.606
X212.979Y-57.606
X212.979Y-67.766
X213.28Y-94.182
X213.28Y-122.63
X214.376Y-98.754
X214.376Y-101.294
X214.376Y-103.834
X214.376Y-106.374
X214.376Y-108.914
X214.376Y-111.454
X214.376Y-113.994
X214.376Y-116.534
X214.376Y-127.202
X214.376Y-129.742
X214.376Y-132.282
X214.376Y-134.822
X214.376Y-137.362
X214.376Y-139.902
X214.376Y-142.442
X214.376Y-144.982
X225.298Y-61.924
X225.298Y-67.512
X225.298Y-73.1
X225.298Y-78.688
X225.298Y-84.022
X225.298Y-89.61
X225.298Y-94.944
X225.298Y-100.532
X225.298Y-106.374
X225.298Y-111.962
X225.298Y-117.296
X225.298Y-122.884
X225.552Y-128.472
X225.552Y-134.314
X225.552Y-139.512
X225.552Y-144.982
X235.458Y-61.924
X235.458Y-67.512
X235.458Y-73.1
X235.458Y-78.688
X235.458Y-84.022
X235.458Y-89.61
X235.458Y-94.944
X235.458Y-100.532
X235.458Y-106.374
X235.458Y-111.962
X235.458Y-117.296
X235.458Y-122.884
X235.712Y-128.472
X235.712Y-134.314
X235.712Y-139.512
X235.712Y-144.982
T4
X238.506Y-61.924
X238.506Y-67.512
X238.506Y-73.1
X238.506Y-78.688
X238.506Y-84.004
X238.506Y-89.61
X238.506Y-94.944
X238.506Y-100.532
X238.76Y-106.356
X238.76Y-111.962
X238.76Y-117.296
X238.76Y-122.766
X238.76Y-128.572
X238.76Y-134.042
X238.76Y-139.512
X238.76Y-144.982
X241.046Y-61.924
X241.046Y-67.512
X241.046Y-73.1
X241.046Y-78.688
X241.046Y-84.004
X241.046Y-89.61
X241.046Y-94.944
X241.046Y-100.532
X241.3Y-106.356
X241.3Y-111.962
X241.3Y-117.296
X241.3Y-122.766
X241.3Y-128.572
X241.3Y-134.042
X241.3Y-139.512
X241.3Y-144.982
T5
X87.375Y-63.034
X87.375Y-65.534
X87.375Y-68.034
X87.375Y-70.534
X87.375Y-73.034
X87.54Y-82.829
X87.54Y-85.329
X87.54Y-87.829
X87.54Y-90.329
X87.54Y-92.829
X87.54Y-95.329
X87.54Y-97.829
X87.54Y-100.329
X87.54Y-102.829
X87.54Y-105.329
X97.154Y-63.034
X97.154Y-65.534
X97.154Y-68.034
X97.154Y-70.534
X97.154Y-73.034
X125.984Y-83.34
X125.984Y-85.84
X125.984Y-88.34
T6
X72.752Y-86.215
X72.752Y-88.985
X72.752Y-91.755
X72.752Y-94.525
X72.752Y-97.295
X72.752Y-100.065
X72.752Y-102.835
X72.752Y-105.605
X72.752Y-108.375
X72.752Y-111.145
X72.752Y-113.915
X72.752Y-116.685
X75.592Y-84.83
X75.592Y-87.6
X75.592Y-90.37
X75.592Y-93.14
X75.592Y-95.91
X75.592Y-98.68
X75.592Y-101.45
X75.592Y-104.22
X75.592Y-106.99
X75.592Y-109.76
X75.592Y-112.53
X75.592Y-115.3
X75.592Y-118.07
X86.27Y-112.3
X86.27Y-114.8
T7
X78.104Y-146.948
X88.264Y-146.948
T8
X82.286Y-125.866
X87.286Y-125.866
T9
X82.93Y-136.026
X82.93Y-141.106
T10
X70.0Y-60.0
X70.0Y-145.0
X74.172Y-77.9
X74.172Y-125.0
X220.0Y-60.0
X220.0Y-145.0
M30
