G04 #@! TF.GenerationSoftware,KiCad,Pcbnew,9.0.1*
G04 #@! TF.CreationDate,2025-07-20T11:57:54+10:00*
G04 #@! TF.ProjectId,front panel 9602,66726f6e-7420-4706-916e-656c20393630,rev?*
G04 #@! TF.SameCoordinates,Original*
G04 #@! TF.FileFunction,Copper,L1,Top*
G04 #@! TF.FilePolarity,Positive*
%FSLAX46Y46*%
G04 Gerber Fmt 4.6, Leading zero omitted, Abs format (unit mm)*
G04 Created by KiCad (PCBNEW 9.0.1) date 2025-07-20 11:57:54*
%MOMM*%
%LPD*%
G01*
G04 APERTURE LIST*
G04 Aperture macros list*
%AMRoundRect*
0 Rectangle with rounded corners*
0 $1 Rounding radius*
0 $2 $3 $4 $5 $6 $7 $8 $9 X,Y pos of 4 corners*
0 Add a 4 corners polygon primitive as box body*
4,1,4,$2,$3,$4,$5,$6,$7,$8,$9,$2,$3,0*
0 Add four circle primitives for the rounded corners*
1,1,$1+$1,$2,$3*
1,1,$1+$1,$4,$5*
1,1,$1+$1,$6,$7*
1,1,$1+$1,$8,$9*
0 Add four rect primitives between the rounded corners*
20,1,$1+$1,$2,$3,$4,$5,0*
20,1,$1+$1,$4,$5,$6,$7,0*
20,1,$1+$1,$6,$7,$8,$9,0*
20,1,$1+$1,$8,$9,$2,$3,0*%
G04 Aperture macros list end*
G04 #@! TA.AperFunction,ComponentPad*
%ADD10R,1.800000X1.800000*%
G04 #@! TD*
G04 #@! TA.AperFunction,ComponentPad*
%ADD11C,1.800000*%
G04 #@! TD*
G04 #@! TA.AperFunction,ComponentPad*
%ADD12C,1.600000*%
G04 #@! TD*
G04 #@! TA.AperFunction,ComponentPad*
%ADD13O,1.600000X1.600000*%
G04 #@! TD*
G04 #@! TA.AperFunction,ComponentPad*
%ADD14RoundRect,0.250000X0.950000X0.550000X-0.950000X0.550000X-0.950000X-0.550000X0.950000X-0.550000X0*%
G04 #@! TD*
G04 #@! TA.AperFunction,ComponentPad*
%ADD15O,2.400000X1.600000*%
G04 #@! TD*
G04 #@! TA.AperFunction,ComponentPad*
%ADD16RoundRect,0.250000X-0.550000X0.550000X-0.550000X-0.550000X0.550000X-0.550000X0.550000X0.550000X0*%
G04 #@! TD*
G04 #@! TA.AperFunction,ComponentPad*
%ADD17RoundRect,0.250000X-0.950000X-0.550000X0.950000X-0.550000X0.950000X0.550000X-0.950000X0.550000X0*%
G04 #@! TD*
G04 #@! TA.AperFunction,ComponentPad*
%ADD18RoundRect,0.250000X0.550000X-0.950000X0.550000X0.950000X-0.550000X0.950000X-0.550000X-0.950000X0*%
G04 #@! TD*
G04 #@! TA.AperFunction,ComponentPad*
%ADD19O,1.600000X2.400000*%
G04 #@! TD*
G04 #@! TA.AperFunction,ComponentPad*
%ADD20R,1.600000X1.600000*%
G04 #@! TD*
G04 #@! TA.AperFunction,ComponentPad*
%ADD21C,0.800000*%
G04 #@! TD*
G04 #@! TA.AperFunction,ComponentPad*
%ADD22C,6.400000*%
G04 #@! TD*
G04 #@! TA.AperFunction,ComponentPad*
%ADD23O,4.000000X2.800000*%
G04 #@! TD*
G04 #@! TA.AperFunction,ComponentPad*
%ADD24R,1.700000X1.700000*%
G04 #@! TD*
G04 #@! TA.AperFunction,ComponentPad*
%ADD25C,1.700000*%
G04 #@! TD*
G04 #@! TA.AperFunction,ComponentPad*
%ADD26RoundRect,0.250000X0.600000X0.750000X-0.600000X0.750000X-0.600000X-0.750000X0.600000X-0.750000X0*%
G04 #@! TD*
G04 #@! TA.AperFunction,ComponentPad*
%ADD27O,1.700000X2.000000*%
G04 #@! TD*
G04 #@! TA.AperFunction,ViaPad*
%ADD28C,0.800000*%
G04 #@! TD*
G04 #@! TA.AperFunction,ViaPad*
%ADD29C,1.270000*%
G04 #@! TD*
G04 #@! TA.AperFunction,ViaPad*
%ADD30C,1.778000*%
G04 #@! TD*
G04 #@! TA.AperFunction,Conductor*
%ADD31C,0.304800*%
G04 #@! TD*
G04 #@! TA.AperFunction,Conductor*
%ADD32C,0.508000*%
G04 #@! TD*
G04 #@! TA.AperFunction,Conductor*
%ADD33C,1.778000*%
G04 #@! TD*
G04 APERTURE END LIST*
D10*
X170700000Y-92900000D03*
D11*
X173240000Y-92900000D03*
D10*
X156900000Y-92900000D03*
D11*
X159440000Y-92900000D03*
D10*
X143100000Y-92878000D03*
D11*
X145640000Y-92878000D03*
D10*
X129300000Y-92900000D03*
D11*
X131840000Y-92900000D03*
D10*
X101700000Y-92900000D03*
D11*
X104240000Y-92900000D03*
D10*
X87900000Y-92900000D03*
D11*
X90440000Y-92900000D03*
D10*
X74100000Y-92900000D03*
D11*
X76640000Y-92900000D03*
D10*
X173240000Y-64100000D03*
D11*
X170700000Y-64100000D03*
D10*
X159440000Y-64100000D03*
D11*
X156900000Y-64100000D03*
D10*
X145640000Y-64100000D03*
D11*
X143100000Y-64100000D03*
D10*
X118040000Y-64100000D03*
D11*
X115500000Y-64100000D03*
D10*
X76640000Y-64100000D03*
D11*
X74100000Y-64100000D03*
D10*
X173240000Y-73700000D03*
D11*
X170700000Y-73700000D03*
D10*
X145640000Y-73700000D03*
D11*
X143100000Y-73700000D03*
D10*
X131840000Y-73700000D03*
D11*
X129300000Y-73700000D03*
D10*
X118040000Y-73700000D03*
D11*
X115500000Y-73700000D03*
D10*
X104240000Y-73650000D03*
D11*
X101700000Y-73650000D03*
D10*
X90440000Y-73700000D03*
D11*
X87900000Y-73700000D03*
D10*
X76640000Y-73700000D03*
D11*
X74100000Y-73700000D03*
D10*
X170700000Y-83350000D03*
D11*
X173240000Y-83350000D03*
D10*
X156900000Y-83300000D03*
D11*
X159440000Y-83300000D03*
D10*
X143100000Y-83300000D03*
D11*
X145640000Y-83300000D03*
D10*
X115500000Y-83300000D03*
D11*
X118040000Y-83300000D03*
D10*
X101700000Y-83300000D03*
D11*
X104240000Y-83300000D03*
D10*
X87900000Y-83300000D03*
D11*
X90440000Y-83300000D03*
D10*
X74100000Y-83300000D03*
D11*
X76640000Y-83300000D03*
D10*
X227540000Y-64100000D03*
D11*
X225000000Y-64100000D03*
D10*
X227540000Y-83300000D03*
D11*
X225000000Y-83300000D03*
D10*
X227540000Y-92900000D03*
D11*
X225000000Y-92900000D03*
D10*
X227540000Y-73700000D03*
D11*
X225000000Y-73700000D03*
D10*
X213740000Y-92900000D03*
D11*
X211200000Y-92900000D03*
D10*
X213740000Y-83300000D03*
D11*
X211200000Y-83300000D03*
D10*
X213740000Y-73700000D03*
D11*
X211200000Y-73700000D03*
D10*
X213740000Y-64100000D03*
D11*
X211200000Y-64100000D03*
D10*
X297040000Y-92900000D03*
D11*
X294500000Y-92900000D03*
D10*
X297040000Y-83300000D03*
D11*
X294500000Y-83300000D03*
D10*
X297040000Y-73700000D03*
D11*
X294500000Y-73700000D03*
D10*
X297040000Y-64100000D03*
D11*
X294500000Y-64100000D03*
D12*
X167200000Y-103165000D03*
D13*
X167200000Y-93005000D03*
D12*
X139554000Y-103038000D03*
D13*
X139554000Y-92878000D03*
D12*
X125838000Y-103038000D03*
D13*
X125838000Y-92878000D03*
D12*
X94060000Y-97900000D03*
D13*
X104220000Y-97900000D03*
D12*
X75260000Y-98100000D03*
D13*
X85420000Y-98100000D03*
D12*
X77070000Y-89830000D03*
D13*
X87230000Y-89830000D03*
D12*
X177400000Y-68875000D03*
D13*
X167240000Y-68875000D03*
D12*
X124840000Y-53940000D03*
D13*
X124840000Y-64100000D03*
D12*
X63100000Y-47920000D03*
D13*
X73260000Y-47920000D03*
D12*
X63100000Y-51730000D03*
D13*
X73260000Y-51730000D03*
D12*
X196560000Y-89600000D03*
D13*
X186400000Y-89600000D03*
D12*
X196560000Y-81000000D03*
D13*
X186400000Y-81000000D03*
D12*
X153060000Y-61300000D03*
D13*
X153060000Y-71460000D03*
D12*
X149260000Y-61300000D03*
D13*
X149260000Y-71460000D03*
D12*
X196560000Y-85300000D03*
D13*
X186400000Y-85300000D03*
D12*
X109860000Y-63500000D03*
D13*
X109860000Y-73660000D03*
D12*
X94160000Y-58500000D03*
D13*
X94160000Y-73740000D03*
D12*
X90760000Y-51800000D03*
D13*
X80600000Y-51800000D03*
D12*
X70085000Y-67605000D03*
D13*
X80245000Y-67605000D03*
D12*
X105260000Y-78480000D03*
D13*
X115420000Y-78480000D03*
D12*
X91680000Y-78470000D03*
D13*
X101840000Y-78470000D03*
D12*
X77700000Y-78760000D03*
D13*
X87860000Y-78760000D03*
D12*
X241535000Y-67700000D03*
D13*
X241535000Y-77860000D03*
D12*
X251660000Y-67600000D03*
D13*
X251660000Y-77760000D03*
D12*
X262744000Y-67700000D03*
D13*
X262744000Y-77860000D03*
D12*
X246660000Y-67600000D03*
D13*
X246660000Y-77760000D03*
D12*
X266808000Y-67700000D03*
D13*
X266808000Y-77860000D03*
D12*
X270960000Y-67700000D03*
D13*
X270960000Y-77860000D03*
D12*
X275160000Y-67700000D03*
D13*
X275160000Y-77860000D03*
D12*
X288550000Y-59220000D03*
D13*
X298710000Y-59220000D03*
D12*
X288570000Y-56190000D03*
D13*
X298730000Y-56190000D03*
D12*
X163800000Y-118060000D03*
D13*
X163800000Y-107900000D03*
D12*
X151160000Y-120500000D03*
D13*
X151160000Y-110340000D03*
D12*
X136260000Y-120600000D03*
D13*
X136260000Y-110440000D03*
D12*
X109560000Y-120800000D03*
D13*
X109560000Y-110640000D03*
D12*
X86160000Y-113600000D03*
D13*
X96320000Y-113600000D03*
D12*
X183800000Y-111000000D03*
D13*
X183800000Y-121160000D03*
D12*
X276460000Y-112690000D03*
D13*
X286620000Y-112690000D03*
D12*
X291510000Y-107980000D03*
D13*
X281350000Y-107980000D03*
D12*
X190100000Y-119300000D03*
D13*
X190100000Y-109140000D03*
D12*
X246620000Y-108530000D03*
D13*
X246620000Y-118690000D03*
D12*
X305960000Y-68830000D03*
D13*
X316120000Y-68830000D03*
D12*
X305280000Y-90900000D03*
D13*
X315440000Y-90900000D03*
D14*
X65020000Y-72050000D03*
D15*
X65020000Y-69510000D03*
X65020000Y-66970000D03*
X65020000Y-64430000D03*
X65020000Y-61890000D03*
X65020000Y-59350000D03*
X65020000Y-56810000D03*
X57400000Y-56810000D03*
X57400000Y-59350000D03*
X57400000Y-61890000D03*
X57400000Y-64430000D03*
X57400000Y-66970000D03*
X57400000Y-69510000D03*
X57400000Y-72050000D03*
D16*
X155810000Y-50714000D03*
D12*
X153270000Y-50714000D03*
X150730000Y-50714000D03*
X148190000Y-50714000D03*
X145650000Y-50714000D03*
X143110000Y-50714000D03*
X140570000Y-50714000D03*
X140570000Y-58334000D03*
X143110000Y-58334000D03*
X145650000Y-58334000D03*
X148190000Y-58334000D03*
X150730000Y-58334000D03*
X153270000Y-58334000D03*
X155810000Y-58334000D03*
D17*
X185655000Y-60620000D03*
D15*
X185655000Y-63160000D03*
X185655000Y-65700000D03*
X185655000Y-68240000D03*
X185655000Y-70780000D03*
X185655000Y-73320000D03*
X185655000Y-75860000D03*
X193275000Y-75860000D03*
X193275000Y-73320000D03*
X193275000Y-70780000D03*
X193275000Y-68240000D03*
X193275000Y-65700000D03*
X193275000Y-63160000D03*
X193275000Y-60620000D03*
D18*
X268600000Y-64112500D03*
D19*
X271140000Y-64112500D03*
X273680000Y-64112500D03*
X276220000Y-64112500D03*
X278760000Y-64112500D03*
X281300000Y-64112500D03*
X283840000Y-64112500D03*
X283840000Y-56492500D03*
X281300000Y-56492500D03*
X278760000Y-56492500D03*
X276220000Y-56492500D03*
X273680000Y-56492500D03*
X271140000Y-56492500D03*
X268600000Y-56492500D03*
D18*
X305400000Y-64100000D03*
D19*
X307940000Y-64100000D03*
X310480000Y-64100000D03*
X313020000Y-64100000D03*
X315560000Y-64100000D03*
X318100000Y-64100000D03*
X320640000Y-64100000D03*
X320640000Y-56480000D03*
X318100000Y-56480000D03*
X315560000Y-56480000D03*
X313020000Y-56480000D03*
X310480000Y-56480000D03*
X307940000Y-56480000D03*
X305400000Y-56480000D03*
D14*
X68688000Y-95672000D03*
D15*
X68688000Y-93132000D03*
X68688000Y-90592000D03*
X68688000Y-88052000D03*
X68688000Y-85512000D03*
X68688000Y-82972000D03*
X68688000Y-80432000D03*
X61068000Y-80432000D03*
X61068000Y-82972000D03*
X61068000Y-85512000D03*
X61068000Y-88052000D03*
X61068000Y-90592000D03*
X61068000Y-93132000D03*
X61068000Y-95672000D03*
D18*
X243440000Y-98720000D03*
D19*
X245980000Y-98720000D03*
X248520000Y-98720000D03*
X251060000Y-98720000D03*
X253600000Y-98720000D03*
X256140000Y-98720000D03*
X258680000Y-98720000D03*
X258680000Y-91100000D03*
X256140000Y-91100000D03*
X253600000Y-91100000D03*
X251060000Y-91100000D03*
X248520000Y-91100000D03*
X245980000Y-91100000D03*
X243440000Y-91100000D03*
D18*
X272650000Y-98720000D03*
D19*
X275190000Y-98720000D03*
X277730000Y-98720000D03*
X280270000Y-98720000D03*
X282810000Y-98720000D03*
X285350000Y-98720000D03*
X287890000Y-98720000D03*
X287890000Y-91100000D03*
X285350000Y-91100000D03*
X282810000Y-91100000D03*
X280270000Y-91100000D03*
X277730000Y-91100000D03*
X275190000Y-91100000D03*
X272650000Y-91100000D03*
D18*
X90260000Y-109100000D03*
D19*
X92800000Y-109100000D03*
X95340000Y-109100000D03*
X97880000Y-109100000D03*
X100420000Y-109100000D03*
X102960000Y-109100000D03*
X105500000Y-109100000D03*
X105500000Y-101480000D03*
X102960000Y-101480000D03*
X100420000Y-101480000D03*
X97880000Y-101480000D03*
X95340000Y-101480000D03*
X92800000Y-101480000D03*
X90260000Y-101480000D03*
D18*
X311160000Y-106340000D03*
D19*
X313700000Y-106340000D03*
X316240000Y-106340000D03*
X318780000Y-106340000D03*
X321320000Y-106340000D03*
X323860000Y-106340000D03*
X326400000Y-106340000D03*
X326400000Y-98720000D03*
X323860000Y-98720000D03*
X321320000Y-98720000D03*
X318780000Y-98720000D03*
X316240000Y-98720000D03*
X313700000Y-98720000D03*
X311160000Y-98720000D03*
D18*
X238995000Y-64049000D03*
D19*
X241535000Y-64049000D03*
X244075000Y-64049000D03*
X246615000Y-64049000D03*
X249155000Y-64049000D03*
X251695000Y-64049000D03*
X254235000Y-64049000D03*
X254235000Y-56429000D03*
X251695000Y-56429000D03*
X249155000Y-56429000D03*
X246615000Y-56429000D03*
X244075000Y-56429000D03*
X241535000Y-56429000D03*
X238995000Y-56429000D03*
D12*
X299960000Y-107200000D03*
X299960000Y-112200000D03*
X311060000Y-72500000D03*
X316060000Y-72500000D03*
X308560000Y-87800000D03*
X313560000Y-87800000D03*
X287360000Y-84600000D03*
X282360000Y-84600000D03*
D10*
X90440000Y-64050000D03*
D11*
X87900000Y-64050000D03*
D10*
X159440000Y-73700000D03*
D11*
X156900000Y-73700000D03*
D10*
X115500000Y-92900000D03*
D11*
X118040000Y-92900000D03*
D10*
X104240000Y-64100000D03*
D11*
X101700000Y-64100000D03*
D12*
X70720000Y-58000000D03*
D13*
X80880000Y-58000000D03*
D12*
X288490000Y-68890000D03*
D13*
X298650000Y-68890000D03*
D12*
X288530000Y-78490000D03*
D13*
X298690000Y-78490000D03*
D12*
X77070000Y-86655000D03*
D13*
X87230000Y-86655000D03*
D12*
X90760000Y-47920000D03*
D13*
X80600000Y-47920000D03*
D12*
X121560000Y-61900000D03*
D13*
X121560000Y-72060000D03*
D12*
X153397000Y-103038000D03*
D13*
X153397000Y-92878000D03*
D12*
X137860000Y-59070000D03*
D13*
X127700000Y-59070000D03*
D10*
X131840000Y-64100000D03*
D11*
X129300000Y-64100000D03*
D12*
X107960000Y-97900000D03*
D13*
X118120000Y-97900000D03*
D12*
X172960000Y-58700000D03*
D13*
X162800000Y-58700000D03*
D12*
X70720000Y-54900000D03*
D13*
X80880000Y-54900000D03*
D12*
X123660000Y-120600000D03*
D13*
X123660000Y-110440000D03*
D12*
X268360000Y-84600000D03*
D13*
X278520000Y-84600000D03*
D12*
X279360000Y-67700000D03*
D13*
X279360000Y-77860000D03*
D12*
X177600000Y-118060000D03*
D13*
X177600000Y-107900000D03*
D12*
X69540000Y-113600000D03*
D13*
X79700000Y-113600000D03*
D12*
X231960000Y-106100000D03*
D13*
X231960000Y-116260000D03*
D12*
X187000000Y-119300000D03*
D13*
X187000000Y-109140000D03*
D20*
X311580000Y-112055000D03*
D12*
X309080000Y-112055000D03*
X218160000Y-128280000D03*
D13*
X218160000Y-118120000D03*
D21*
X55000000Y-137400000D03*
X55702944Y-135702944D03*
X55702944Y-139097056D03*
X57400000Y-135000000D03*
D22*
X57400000Y-137400000D03*
D21*
X57400000Y-139800000D03*
X59097056Y-135702944D03*
X59097056Y-139097056D03*
X59800000Y-137400000D03*
X324000000Y-137400000D03*
X324702944Y-135702944D03*
X324702944Y-139097056D03*
X326400000Y-135000000D03*
D22*
X326400000Y-137400000D03*
D21*
X326400000Y-139800000D03*
X328097056Y-135702944D03*
X328097056Y-139097056D03*
X328800000Y-137400000D03*
X189500000Y-137300000D03*
X190202944Y-135602944D03*
X190202944Y-138997056D03*
X191900000Y-134900000D03*
D22*
X191900000Y-137300000D03*
D21*
X191900000Y-139700000D03*
X193597056Y-135602944D03*
X193597056Y-138997056D03*
X194300000Y-137300000D03*
D12*
X174160000Y-109000000D03*
X174160000Y-114000000D03*
X168360000Y-109100000D03*
X168360000Y-114100000D03*
X296018000Y-102784000D03*
X291018000Y-102784000D03*
D10*
X129300000Y-83300000D03*
D11*
X131840000Y-83300000D03*
D12*
X70085000Y-70780000D03*
D13*
X80245000Y-70780000D03*
D23*
X158160000Y-118701000D03*
X158160000Y-123400000D03*
X158160000Y-128100000D03*
D18*
X308560000Y-83220000D03*
D19*
X311100000Y-83220000D03*
X313640000Y-83220000D03*
X316180000Y-83220000D03*
X318720000Y-83220000D03*
X321260000Y-83220000D03*
X323800000Y-83220000D03*
X326340000Y-83220000D03*
X326340000Y-75600000D03*
X323800000Y-75600000D03*
X321260000Y-75600000D03*
X318720000Y-75600000D03*
X316180000Y-75600000D03*
X313640000Y-75600000D03*
X311100000Y-75600000D03*
X308560000Y-75600000D03*
D23*
X102960000Y-118731000D03*
X102960000Y-123430000D03*
X102960000Y-128130000D03*
X211160000Y-128099000D03*
X211160000Y-123400000D03*
X211160000Y-118700000D03*
X308260000Y-118701000D03*
X308260000Y-123400000D03*
X308260000Y-128100000D03*
X294460000Y-127999000D03*
X294460000Y-123300000D03*
X294460000Y-118600000D03*
X171960000Y-118731000D03*
X171960000Y-123430000D03*
X171960000Y-128130000D03*
X238860000Y-128099000D03*
X238860000Y-123400000D03*
X238860000Y-118700000D03*
X224960000Y-128199000D03*
X224960000Y-123500000D03*
X224960000Y-118800000D03*
X197360000Y-118601000D03*
X197360000Y-123300000D03*
X197360000Y-128000000D03*
D12*
X305360000Y-85880000D03*
D13*
X305360000Y-75720000D03*
D23*
X116760000Y-118731000D03*
X116760000Y-123430000D03*
X116760000Y-128130000D03*
X266860000Y-128099000D03*
X266860000Y-123400000D03*
X266860000Y-118700000D03*
X75360000Y-118731000D03*
X75360000Y-123430000D03*
X75360000Y-128130000D03*
X89160000Y-118731000D03*
X89160000Y-123430000D03*
X89160000Y-128130000D03*
X130560000Y-118731000D03*
X130560000Y-123430000D03*
X130560000Y-128130000D03*
X280760000Y-127999000D03*
X280760000Y-123300000D03*
X280760000Y-118600000D03*
X144360000Y-118731000D03*
X144360000Y-123430000D03*
X144360000Y-128130000D03*
D24*
X52200000Y-121580000D03*
D25*
X52200000Y-119040000D03*
X52200000Y-116500000D03*
X52200000Y-113960000D03*
X52200000Y-111420000D03*
X52200000Y-108880000D03*
X52200000Y-106340000D03*
X52200000Y-103800000D03*
D24*
X52228800Y-79924000D03*
D25*
X52228800Y-82464000D03*
X52228800Y-85004000D03*
X52228800Y-87544000D03*
X52228800Y-90084000D03*
X52228800Y-92624000D03*
X52228800Y-95164000D03*
X52228800Y-97704000D03*
D24*
X181210000Y-47920000D03*
D25*
X178670000Y-47920000D03*
X176130000Y-47920000D03*
X173590000Y-47920000D03*
X171050000Y-47920000D03*
X168510000Y-47920000D03*
X165970000Y-47920000D03*
X163430000Y-47920000D03*
X160890000Y-47920000D03*
X158350000Y-47920000D03*
X155810000Y-47920000D03*
X153270000Y-47920000D03*
X150730000Y-47920000D03*
X148190000Y-47920000D03*
X145650000Y-47920000D03*
X143110000Y-47920000D03*
D24*
X225780000Y-50400000D03*
D25*
X228320000Y-50400000D03*
X230860000Y-50400000D03*
X233400000Y-50400000D03*
D24*
X248780000Y-50400000D03*
D25*
X251320000Y-50400000D03*
X253860000Y-50400000D03*
X256400000Y-50400000D03*
D24*
X273280000Y-50400000D03*
D25*
X275820000Y-50400000D03*
X278360000Y-50400000D03*
X280900000Y-50400000D03*
D24*
X160900000Y-137400000D03*
D25*
X158360000Y-137400000D03*
X155820000Y-137400000D03*
X153280000Y-137400000D03*
X150740000Y-137400000D03*
X148200000Y-137400000D03*
X145660000Y-137400000D03*
X143120000Y-137400000D03*
D24*
X312700000Y-50400000D03*
D25*
X310160000Y-50400000D03*
X307620000Y-50400000D03*
X305080000Y-50400000D03*
D24*
X326500000Y-123400000D03*
D25*
X326500000Y-120860000D03*
X326500000Y-118320000D03*
X326500000Y-115780000D03*
D24*
X326400000Y-95440000D03*
D25*
X326400000Y-92900000D03*
X326400000Y-90360000D03*
X326400000Y-87820000D03*
D24*
X326400000Y-66640000D03*
D25*
X326400000Y-64100000D03*
X326400000Y-61560000D03*
X326400000Y-59020000D03*
D24*
X211200000Y-50400000D03*
D25*
X208660000Y-50400000D03*
X206120000Y-50400000D03*
X203580000Y-50400000D03*
D26*
X198550000Y-112715000D03*
D27*
X196050000Y-112715000D03*
D28*
X85030000Y-49300000D03*
X78975000Y-54905000D03*
D29*
X313760000Y-110100000D03*
X329800000Y-110150000D03*
X287890000Y-131740000D03*
X183800000Y-115960000D03*
X287890000Y-115230000D03*
X230740000Y-89195000D03*
X218040000Y-89195000D03*
X217405000Y-81575000D03*
X230360000Y-80387400D03*
D30*
X236455000Y-47285000D03*
X303360000Y-98700000D03*
X268840000Y-47285000D03*
X236460000Y-56400000D03*
X268660000Y-53200000D03*
D29*
X273920000Y-123485000D03*
X314560000Y-131105000D03*
X273920000Y-112690000D03*
X314560000Y-114595000D03*
X259600000Y-115100000D03*
X259560000Y-128100000D03*
D30*
X106915000Y-115230000D03*
X180060000Y-116300000D03*
X181260900Y-75860000D03*
X332285990Y-83425990D03*
D29*
X253560000Y-112700000D03*
X253560000Y-128100000D03*
X231756000Y-128184000D03*
X233760000Y-103200000D03*
X230105000Y-103165000D03*
X256140000Y-101260000D03*
X301422259Y-101100342D03*
X243440000Y-101260000D03*
X275160000Y-105400000D03*
X308210000Y-105324000D03*
X285350000Y-105324000D03*
X300160000Y-87900000D03*
X287890000Y-87925000D03*
D31*
X146920000Y-47410446D02*
X147680446Y-46650000D01*
X145650000Y-50714000D02*
X146920000Y-49444000D01*
X147680446Y-46650000D02*
X157080000Y-46650000D01*
X157080000Y-46650000D02*
X158350000Y-47920000D01*
X146920000Y-49444000D02*
X146920000Y-47410446D01*
X81130489Y-53199511D02*
X85030000Y-49300000D01*
X78975000Y-54905000D02*
X80680489Y-53199511D01*
X80680489Y-53199511D02*
X81130489Y-53199511D01*
X148206555Y-52402999D02*
X149460000Y-51149554D01*
X149460000Y-49190000D02*
X150730000Y-47920000D01*
X90760000Y-51800000D02*
X91362999Y-52402999D01*
X91362999Y-52402999D02*
X148206555Y-52402999D01*
X149460000Y-51149554D02*
X149460000Y-49190000D01*
X287890000Y-115230000D02*
X287890000Y-131740000D01*
D32*
X313810000Y-110150000D02*
X313760000Y-110100000D01*
D31*
X183800000Y-115960000D02*
X183800000Y-111000000D01*
X329800000Y-110150000D02*
X313810000Y-110150000D01*
D33*
X86160000Y-113600000D02*
X85050000Y-113600000D01*
X85050000Y-113600000D02*
X80880000Y-117770000D01*
X80880000Y-117770000D02*
X80880000Y-122850000D01*
X80880000Y-122850000D02*
X81430000Y-123400000D01*
X81430000Y-123400000D02*
X89130000Y-123400000D01*
X89130000Y-123400000D02*
X89160000Y-123430000D01*
D31*
X218040000Y-89195000D02*
X230740000Y-89195000D01*
X229565000Y-80400000D02*
X218580000Y-80400000D01*
X229577600Y-80387400D02*
X229565000Y-80400000D01*
X230360000Y-80387400D02*
X229577600Y-80387400D01*
X218580000Y-80400000D02*
X217405000Y-81575000D01*
D33*
X57385000Y-94910000D02*
X58147000Y-95672000D01*
X303380000Y-98720000D02*
X303360000Y-98700000D01*
X87230000Y-76495000D02*
X87900000Y-75825000D01*
X57385000Y-76495000D02*
X57385000Y-72065000D01*
X57385000Y-76495000D02*
X57385000Y-94910000D01*
X75165000Y-76495000D02*
X57385000Y-76495000D01*
X58147000Y-95672000D02*
X61068000Y-95672000D01*
X75165000Y-76495000D02*
X87230000Y-76495000D01*
X57385000Y-72065000D02*
X57400000Y-72050000D01*
X156900000Y-60694000D02*
X156900000Y-64100000D01*
X268600000Y-53140000D02*
X268660000Y-53200000D01*
X74100000Y-75430000D02*
X75165000Y-76495000D01*
X236455000Y-56395000D02*
X236460000Y-56400000D01*
X311160000Y-98720000D02*
X303380000Y-98720000D01*
D31*
X183800000Y-117750000D02*
X183800000Y-121160000D01*
X187000000Y-114550000D02*
X183800000Y-117750000D01*
D33*
X155810000Y-59604000D02*
X156900000Y-60694000D01*
X74100000Y-73700000D02*
X74100000Y-75430000D01*
X155810000Y-58334000D02*
X155810000Y-59604000D01*
X236455000Y-47285000D02*
X236455000Y-56395000D01*
X87900000Y-75825000D02*
X87900000Y-73700000D01*
X268840000Y-47285000D02*
X268600000Y-47525000D01*
D31*
X187000000Y-109140000D02*
X187000000Y-114550000D01*
D33*
X268600000Y-47525000D02*
X268600000Y-53140000D01*
D32*
X314560000Y-114595000D02*
X314560000Y-131105000D01*
D31*
X273920000Y-112690000D02*
X273920000Y-123485000D01*
X259600000Y-115100000D02*
X259600000Y-128000000D01*
X259560000Y-128040000D02*
X259560000Y-128100000D01*
X259600000Y-128000000D02*
X259560000Y-128040000D01*
D32*
X70720000Y-46650000D02*
X65020000Y-52350000D01*
D33*
X180060000Y-116300000D02*
X181210000Y-115150000D01*
X62480000Y-54270000D02*
X56750000Y-54270000D01*
X68688000Y-80432000D02*
X69958000Y-80432000D01*
D32*
X65020000Y-52350000D02*
X65020000Y-56810000D01*
D33*
X105500000Y-113815000D02*
X106915000Y-115230000D01*
X58655000Y-99355000D02*
X71355000Y-99355000D01*
X326400000Y-83300000D02*
X332160000Y-83300000D01*
X65020000Y-56810000D02*
X62480000Y-54270000D01*
X105500000Y-109100000D02*
X105500000Y-113815000D01*
X54845000Y-56175000D02*
X56750000Y-54270000D01*
D32*
X98774000Y-50714000D02*
X94710000Y-46650000D01*
D33*
X69958000Y-80432000D02*
X71355000Y-81829000D01*
D32*
X140570000Y-50714000D02*
X98774000Y-50714000D01*
D33*
X54845000Y-95545000D02*
X58655000Y-99355000D01*
X332160000Y-83300000D02*
X332285990Y-83425990D01*
X54845000Y-56175000D02*
X54845000Y-95545000D01*
X181210000Y-75910900D02*
X181260900Y-75860000D01*
X76500000Y-114025000D02*
X76500000Y-118700000D01*
X71355000Y-81829000D02*
X71355000Y-99355000D01*
D32*
X94710000Y-46650000D02*
X70720000Y-46650000D01*
D33*
X181210000Y-115150000D02*
X181210000Y-75910900D01*
X71355000Y-108880000D02*
X76500000Y-114025000D01*
X71355000Y-99355000D02*
X71355000Y-108880000D01*
D31*
X253560000Y-128100000D02*
X253560000Y-112700000D01*
X233760000Y-126180000D02*
X233760000Y-103200000D01*
X231756000Y-128184000D02*
X233760000Y-126180000D01*
X230105000Y-103165000D02*
X230105000Y-114405000D01*
X230105000Y-114405000D02*
X231960000Y-116260000D01*
D32*
X301262601Y-101260000D02*
X301422259Y-101100342D01*
X243440000Y-101260000D02*
X256140000Y-101260000D01*
X256140000Y-101260000D02*
X301262601Y-101260000D01*
X313640000Y-85220000D02*
X313640000Y-83220000D01*
X312980000Y-85880000D02*
X313640000Y-85220000D01*
X305360000Y-85880000D02*
X312980000Y-85880000D01*
D31*
X285350000Y-105324000D02*
X308210000Y-105324000D01*
D32*
X275236000Y-105324000D02*
X275160000Y-105400000D01*
D31*
X285350000Y-105324000D02*
X275236000Y-105324000D01*
X280060000Y-95200000D02*
X277730000Y-92870000D01*
X277730000Y-92870000D02*
X277730000Y-91100000D01*
X301760000Y-95200000D02*
X280060000Y-95200000D01*
X326400000Y-92900000D02*
X304060000Y-92900000D01*
X304060000Y-92900000D02*
X301760000Y-95200000D01*
X287890000Y-87925000D02*
X300135000Y-87925000D01*
D32*
X300135000Y-87925000D02*
X300160000Y-87900000D01*
D31*
X76640000Y-64100000D02*
X76640000Y-54475000D01*
X74648089Y-52483089D02*
X74648089Y-50183822D01*
X79448089Y-49071911D02*
X80600000Y-47920000D01*
X76640000Y-54475000D02*
X74648089Y-52483089D01*
X74648089Y-50183822D02*
X75760000Y-49071911D01*
X75760000Y-49071911D02*
X79448089Y-49071911D01*
X77892401Y-68252045D02*
X77892401Y-54507599D01*
X76640000Y-73700000D02*
X76640000Y-69504446D01*
X76640000Y-69504446D02*
X77892401Y-68252045D01*
X77892401Y-54507599D02*
X80600000Y-51800000D01*
X67421920Y-58198080D02*
X70720000Y-54900000D01*
X60470000Y-56810000D02*
X61860000Y-58200000D01*
X61860000Y-58200000D02*
X61861920Y-58198080D01*
X61861920Y-58198080D02*
X67421920Y-58198080D01*
X57400000Y-56810000D02*
X60470000Y-56810000D01*
D33*
X66910000Y-122215000D02*
X68095000Y-123400000D01*
X75330000Y-123400000D02*
X75360000Y-123430000D01*
X69540000Y-114505000D02*
X66910000Y-117135000D01*
X68095000Y-123400000D02*
X75330000Y-123400000D01*
X66910000Y-117135000D02*
X66910000Y-122215000D01*
X69540000Y-113600000D02*
X69540000Y-114505000D01*
D32*
X305992000Y-112000000D02*
X306500000Y-112000000D01*
X302944000Y-125970000D02*
X302944000Y-115048000D01*
X302944000Y-115048000D02*
X305992000Y-112000000D01*
X306500000Y-112000000D02*
X307770000Y-112000000D01*
X307825000Y-112055000D02*
X309080000Y-112055000D01*
X307770000Y-112000000D02*
X307825000Y-112055000D01*
X307825000Y-112055000D02*
X307825000Y-112000000D01*
X305074000Y-128100000D02*
X302944000Y-125970000D01*
X308260000Y-128100000D02*
X305074000Y-128100000D01*
D31*
X326500000Y-115780000D02*
X322775000Y-112055000D01*
X322775000Y-112055000D02*
X311580000Y-112055000D01*
M02*
