M48
; DRILL file {KiCad 9.0.1} date 2025-07-20T15:05:25+1000
; FORMAT={-:-/ absolute / metric / decimal}
; #@! TF.CreationDate,2025-07-20T15:05:25+10:00
; #@! TF.GenerationSoftware,Kicad,Pcbnew,9.0.1
; #@! TF.FileFunction,Plated,1,4,PTH
FMAT,2
METRIC
; #@! TA.AperFunction,Plated,PTH,ViaDrill
T1C0.600
; #@! TA.AperFunction,Plated,PTH,ViaDrill
T2C0.800
; #@! TA.AperFunction,Plated,PTH,ComponentDrill
T3C0.800
; #@! TA.AperFunction,Plated,PTH,ViaDrill
T4C0.870
; #@! TA.AperFunction,Plated,PTH,ComponentDrill
T5C0.950
; #@! TA.AperFunction,Plated,PTH,ComponentDrill
T6C1.000
; #@! TA.AperFunction,Plated,PTH,ComponentDrill
T7C3.200
%
G90
G05
T1
X29.766Y-62.865
X29.766Y-103.505
X31.916Y-101.6
X44.958Y-99.568
X51.688Y-157.312
X54.737Y-99.568
X55.6Y-29.3
X57.441Y-155.592
X57.6Y-151.5
X60.1Y-131.5
X60.325Y-103.505
X63.0Y-159.5
X63.2Y-50.0
X65.8Y-129.9
X70.0Y-165.5
X70.485Y-62.865
X74.0Y-125.5
X81.0Y-136.5
X81.0Y-144.5
X84.0Y-136.5
X84.0Y-144.5
X87.63Y-92.075
X89.0Y-131.5
X90.0Y-161.5
X90.17Y-95.885
X91.0Y-58.42
X96.7Y-151.5
X98.0Y-123.0
X98.425Y-60.96
X99.5Y-159.5
X102.235Y-56.515
X104.775Y-92.075
X113.665Y-93.98
X121.92Y-62.23
X123.072Y-131.572
X124.475Y-58.405
X132.715Y-92.075
X133.0Y-163.5
X134.0Y-128.0
X135.255Y-56.515
X135.255Y-93.98
X140.97Y-93.98
X141.6Y-123.05
X143.5Y-161.5
X143.51Y-95.885
X147.32Y-95.885
X149.86Y-92.075
X151.5Y-159.5
X158.0Y-159.032
X159.5Y-132.0
X161.587Y-153.5
X161.597Y-147.5
X161.645Y-144.5
X161.666Y-150.5
X161.671Y-141.478
X165.735Y-99.695
X167.5Y-165.5
X170.5Y-159.032
X170.561Y-122.809
X170.815Y-72.517
X170.815Y-165.735
X173.99Y-29.21
X173.99Y-97.79
X174.0Y-147.5
X174.5Y-160.5
X176.784Y-141.478
X177.165Y-101.6
X177.8Y-72.39
X179.07Y-95.885
X180.0Y-150.5
X182.0Y-109.0
X182.0Y-117.5
X183.515Y-92.26
X186.055Y-93.98
X186.824Y-155.592
X188.0Y-132.0
X188.309Y-122.809
X192.0Y-108.5
X192.0Y-117.5
X192.5Y-128.0
X192.5Y-144.5
X193.04Y-93.345
X193.675Y-60.96
X193.675Y-75.057
X194.945Y-90.805
X196.215Y-108.404
X196.215Y-117.475
X197.935Y-133.35
X200.0Y-125.5
X200.025Y-99.695
X200.66Y-60.325
X200.66Y-63.5
X201.0Y-160.5
X203.5Y-163.5
X204.2Y-133.3
X205.725Y-93.524
X208.0Y-153.5
X208.3Y-97.7
X212.09Y-160.655
X214.5Y-130.0
X215.9Y-60.325
X215.9Y-63.5
X216.188Y-157.312
X228.075Y-165.735
X229.235Y-160.655
T2
X27.0Y-89.0
X28.0Y-121.0
X28.0Y-147.0
X52.07Y-88.9
X55.0Y-53.5
X55.0Y-134.0
X62.865Y-106.045
X63.0Y-120.8
X71.0Y-147.0
X73.0Y-53.5
X74.295Y-88.9
X86.0Y-134.0
X86.5Y-53.5
X90.0Y-53.5
X100.965Y-106.045
X102.235Y-88.9
X102.5Y-147.0
X104.3Y-53.5
X116.205Y-120.7
X122.5Y-50.0
X126.0Y-53.5
X128.27Y-88.9
X133.985Y-106.045
X139.7Y-69.85
X140.5Y-53.5
X140.5Y-57.8
X145.415Y-56.515
X145.415Y-78.105
X149.2Y-120.6
X149.86Y-53.34
X149.86Y-88.9
X158.0Y-117.5
X161.925Y-106.045
X165.1Y-53.34
X169.545Y-53.34
X177.1Y-120.6
X181.84Y-53.34
X194.945Y-53.34
X198.12Y-88.9
X201.93Y-106.045
X204.47Y-88.9
X217.2Y-120.6
X218.0Y-147.0
X225.425Y-55.88
X232.029Y-55.9
X232.029Y-105.791
X232.029Y-146.971
X236.22Y-88.9
X236.22Y-120.6
T3
X28.401Y-53.467
X28.996Y-127.889
X29.036Y-106.045
X33.401Y-53.467
X33.996Y-127.889
X34.036Y-106.045
X46.0Y-106.045
X46.0Y-118.745
X52.0Y-70.0
X52.0Y-72.54
X52.0Y-75.08
X52.0Y-77.62
X52.0Y-80.16
X52.0Y-82.7
X52.0Y-85.24
X53.0Y-39.0
X53.0Y-46.62
X55.0Y-109.5
X55.0Y-117.12
X55.0Y-136.5
X55.0Y-144.12
X55.54Y-39.0
X55.54Y-46.62
X57.54Y-109.5
X57.54Y-117.12
X57.54Y-136.5
X57.54Y-144.12
X58.08Y-39.0
X58.08Y-46.62
X59.62Y-70.0
X59.62Y-72.54
X59.62Y-75.08
X59.62Y-77.62
X59.62Y-80.16
X59.62Y-82.7
X59.62Y-85.24
X60.08Y-109.5
X60.08Y-117.12
X60.08Y-136.5
X60.08Y-144.12
X60.62Y-39.0
X60.62Y-46.62
X62.62Y-109.5
X62.62Y-117.12
X62.62Y-136.5
X62.62Y-144.12
X63.16Y-39.0
X63.16Y-46.62
X65.16Y-109.5
X65.16Y-117.12
X65.16Y-136.5
X65.16Y-144.12
X65.7Y-39.0
X65.7Y-46.62
X67.7Y-109.5
X67.7Y-117.12
X67.7Y-136.5
X67.7Y-144.12
X68.24Y-39.0
X68.24Y-46.62
X70.24Y-109.5
X70.24Y-117.12
X70.24Y-136.5
X70.24Y-144.12
X73.025Y-34.29
X73.025Y-46.99
X77.5Y-39.0
X77.5Y-46.62
X77.5Y-70.0
X77.5Y-72.54
X77.5Y-75.08
X77.5Y-77.62
X77.5Y-80.16
X77.5Y-82.7
X77.5Y-85.24
X80.04Y-39.0
X80.04Y-46.62
X82.58Y-39.0
X82.58Y-46.62
X85.12Y-39.0
X85.12Y-46.62
X85.12Y-70.0
X85.12Y-72.54
X85.12Y-75.08
X85.12Y-77.62
X85.12Y-80.16
X85.12Y-82.7
X85.12Y-85.24
X86.5Y-136.5
X86.5Y-144.12
X87.66Y-39.0
X87.66Y-46.62
X89.04Y-136.5
X89.04Y-144.12
X90.2Y-39.0
X90.2Y-46.62
X91.58Y-136.5
X91.58Y-144.12
X92.74Y-39.0
X92.74Y-46.62
X94.12Y-136.5
X94.12Y-144.12
X96.66Y-136.5
X96.66Y-144.12
X99.2Y-136.5
X99.2Y-144.12
X99.9Y-34.4
X99.9Y-36.9
X99.9Y-40.55
X99.9Y-53.25
X101.0Y-109.5
X101.0Y-117.12
X101.74Y-136.5
X101.74Y-144.12
X102.5Y-70.0
X102.5Y-72.54
X102.5Y-75.08
X102.5Y-77.62
X102.5Y-80.16
X102.5Y-82.7
X102.5Y-85.24
X103.54Y-109.5
X103.54Y-117.12
X106.08Y-109.5
X106.08Y-117.12
X108.62Y-109.5
X108.62Y-117.12
X110.0Y-39.0
X110.0Y-46.62
X110.12Y-70.0
X110.12Y-72.54
X110.12Y-75.08
X110.12Y-77.62
X110.12Y-80.16
X110.12Y-82.7
X110.12Y-85.24
X111.16Y-109.5
X111.16Y-117.12
X112.54Y-39.0
X112.54Y-46.62
X113.7Y-109.5
X113.7Y-117.12
X115.08Y-39.0
X115.08Y-46.62
X116.24Y-109.5
X116.24Y-117.12
X117.62Y-39.0
X117.62Y-46.62
X120.16Y-39.0
X120.16Y-46.62
X122.7Y-39.0
X122.7Y-46.62
X125.24Y-39.0
X125.24Y-46.62
X128.5Y-70.0
X128.5Y-72.54
X128.5Y-75.08
X128.5Y-77.62
X128.5Y-80.16
X128.5Y-82.7
X128.5Y-85.24
X134.0Y-109.5
X134.0Y-117.12
X134.5Y-39.0
X134.5Y-46.62
X136.12Y-70.0
X136.12Y-72.54
X136.12Y-75.08
X136.12Y-77.62
X136.12Y-80.16
X136.12Y-82.7
X136.12Y-85.24
X136.54Y-109.5
X136.54Y-117.12
X137.04Y-39.0
X137.04Y-46.62
X139.08Y-109.5
X139.08Y-117.12
X139.58Y-39.0
X139.58Y-46.62
X141.62Y-109.5
X141.62Y-117.12
X142.12Y-39.0
X142.12Y-46.62
X144.16Y-109.5
X144.16Y-117.12
X144.66Y-39.0
X144.66Y-46.62
X146.7Y-109.5
X146.7Y-117.12
X147.2Y-39.0
X147.2Y-46.62
X149.24Y-109.5
X149.24Y-117.12
X149.74Y-39.0
X149.74Y-46.62
X150.0Y-56.5
X150.0Y-59.04
X150.0Y-61.58
X150.0Y-64.12
X150.0Y-66.66
X150.0Y-69.2
X150.0Y-71.74
X150.0Y-74.28
X150.0Y-76.82
X150.0Y-79.36
X150.0Y-81.9
X150.0Y-84.44
X162.0Y-109.5
X162.0Y-117.12
X164.54Y-109.5
X164.54Y-117.12
X165.24Y-56.5
X165.24Y-59.04
X165.24Y-61.58
X165.24Y-64.12
X165.24Y-66.66
X165.24Y-69.2
X165.24Y-71.74
X165.24Y-74.28
X165.24Y-76.82
X165.24Y-79.36
X165.24Y-81.9
X165.24Y-84.44
X167.005Y-35.56
X167.005Y-48.26
X167.08Y-109.5
X167.08Y-117.12
X169.62Y-109.5
X169.62Y-117.12
X172.16Y-109.5
X172.16Y-117.12
X172.5Y-33.0
X172.5Y-35.54
X172.5Y-38.08
X172.5Y-40.62
X172.5Y-43.16
X172.5Y-45.7
X172.5Y-48.24
X172.5Y-50.78
X174.7Y-109.5
X174.7Y-117.12
X177.24Y-109.5
X177.24Y-117.12
X180.12Y-33.0
X180.12Y-35.54
X180.12Y-38.08
X180.12Y-40.62
X180.12Y-43.16
X180.12Y-45.7
X180.12Y-48.24
X180.12Y-50.78
X180.5Y-70.0
X180.5Y-72.54
X180.5Y-75.08
X180.5Y-77.62
X180.5Y-80.16
X180.5Y-82.7
X180.5Y-85.24
X188.12Y-70.0
X188.12Y-72.54
X188.12Y-75.08
X188.12Y-77.62
X188.12Y-80.16
X188.12Y-82.7
X188.12Y-85.24
X192.5Y-38.0
X192.5Y-50.7
X197.0Y-35.46
X197.0Y-38.0
X197.0Y-40.54
X197.0Y-43.08
X197.0Y-45.62
X197.0Y-48.16
X197.0Y-50.7
X201.76Y-136.5
X201.76Y-144.12
X202.0Y-109.5
X202.0Y-117.12
X204.3Y-136.5
X204.3Y-144.12
X204.54Y-109.5
X204.54Y-117.12
X204.62Y-35.46
X204.62Y-38.0
X204.62Y-40.54
X204.62Y-43.08
X204.62Y-45.62
X204.62Y-48.16
X204.62Y-50.7
X205.0Y-70.0
X205.0Y-72.54
X205.0Y-75.08
X205.0Y-77.62
X205.0Y-80.16
X205.0Y-82.7
X205.0Y-85.24
X206.84Y-136.5
X206.84Y-144.12
X207.08Y-109.5
X207.08Y-117.12
X209.38Y-136.5
X209.38Y-144.12
X209.62Y-109.5
X209.62Y-117.12
X210.185Y-35.56
X210.185Y-48.26
X211.92Y-136.5
X211.92Y-144.12
X212.16Y-109.5
X212.16Y-117.12
X212.62Y-70.0
X212.62Y-72.54
X212.62Y-75.08
X212.62Y-77.62
X212.62Y-80.16
X212.62Y-82.7
X212.62Y-85.24
X214.46Y-136.5
X214.46Y-144.12
X214.63Y-35.56
X214.63Y-48.26
X214.7Y-109.5
X214.7Y-117.12
X217.0Y-136.5
X217.0Y-144.12
X217.24Y-109.5
X217.24Y-117.12
X219.075Y-38.815
X219.075Y-43.815
X224.663Y-43.815
X227.203Y-41.275
X227.203Y-46.355
X232.0Y-51.2
X232.0Y-75.6
X232.0Y-131.1
X232.029Y-108.204
X232.029Y-153.67
X237.0Y-51.2
X237.0Y-75.6
X237.0Y-131.1
X237.029Y-108.204
X237.029Y-153.67
T4
X158.0Y-108.5
T5
X219.155Y-96.774
X221.655Y-96.774
X224.155Y-96.774
T6
X184.15Y-50.8
X192.405Y-33.02
T7
X24.9Y-25.1
X114.9Y-25.1
X145.0Y-25.1
X235.0Y-25.1
M30
