M48
; DRILL file {KiCad (6.0.4-0)} date Sunday, 14 April 2024 at 03:44:01 pm
; FORMAT={-:-/ absolute / inch / decimal}
; #@! TF.CreationDate,2024-04-14T15:44:01+10:00
; #@! TF.GenerationSoftware,Kicad,Pcbnew,(6.0.4-0)
; #@! TF.FileFunction,Plated,1,4,PTH
FMAT,2
INCH
; #@! TA.AperFunction,Plated,PTH,ComponentDrill
T1C0.0276
; #@! TA.AperFunction,Plated,PTH,ViaDrill
T2C0.0315
; #@! TA.AperFunction,Plated,PTH,ComponentDrill
T3C0.0315
; #@! TA.AperFunction,Plated,PTH,ViaDrill
T4C0.0343
; #@! TA.AperFunction,Plated,PTH,ComponentDrill
T5C0.0394
; #@! TA.AperFunction,Plated,PTH,ComponentDrill
T6C0.1260
%
G90
G05
T1
X8.85Y-1.725
X8.9Y-1.675
X8.9Y-1.775
T2
X1.063Y-3.5039
X1.1024Y-4.7638
X1.1024Y-5.7874
X1.175Y-2.475
X1.175Y-4.075
X1.325Y-4.0
X1.77Y-3.92
X2.035Y-6.1934
X2.05Y-3.5
X2.155Y-3.92
X2.1654Y-2.1063
X2.1654Y-5.2756
X2.189Y-1.1535
X2.2615Y-6.1257
X2.2677Y-5.9646
X2.3661Y-5.1772
X2.375Y-4.075
X2.475Y-4.175
X2.4803Y-4.7559
X2.4803Y-6.2795
X2.4882Y-1.9685
X2.5906Y-5.1142
X2.7559Y-6.5157
X2.775Y-2.475
X2.7953Y-5.7874
X2.874Y-2.1063
X2.9134Y-4.9409
X2.925Y-3.5
X3.189Y-5.374
X3.189Y-5.689
X3.3071Y-5.374
X3.3071Y-5.689
X3.3858Y-5.2756
X3.4055Y-2.1063
X3.45Y-3.625
X3.5039Y-5.1772
X3.5433Y-2.1063
X3.5433Y-6.3583
X3.55Y-3.775
X3.5827Y-2.3
X3.8071Y-5.9646
X3.8583Y-4.8425
X3.875Y-2.4
X3.9173Y-6.2795
X3.975Y-4.175
X4.025Y-2.225
X4.025Y-3.5
X4.0354Y-5.7874
X4.1063Y-2.1063
X4.125Y-3.625
X4.475Y-3.7
X4.575Y-4.752
X4.8Y-2.45
X4.8228Y-1.9685
X4.8454Y-5.18
X4.9006Y-2.2994
X4.9606Y-2.1063
X5.05Y-3.5
X5.225Y-3.625
X5.2362Y-6.437
X5.275Y-4.175
X5.2756Y-5.0394
X5.325Y-2.225
X5.325Y-3.7
X5.5Y-2.75
X5.5315Y-2.1063
X5.5315Y-2.2756
X5.5748Y-4.8445
X5.6496Y-6.3583
X5.65Y-3.775
X5.725Y-2.225
X5.725Y-3.075
X5.8Y-3.775
X5.874Y-4.748
X5.9Y-2.1
X5.9Y-3.5
X5.9Y-3.625
X5.9646Y-6.2795
X6.2205Y-4.626
X6.2205Y-6.2611
X6.2795Y-5.1969
X6.3617Y-6.0433
X6.3621Y-5.8071
X6.364Y-5.689
X6.3648Y-5.9252
X6.365Y-5.57
X6.375Y-4.175
X6.5Y-2.1
X6.525Y-3.925
X6.5945Y-6.5157
X6.675Y-2.1
X6.7126Y-6.2611
X6.715Y-4.835
X6.725Y-6.525
X6.7427Y-2.8559
X6.85Y-1.15
X6.85Y-3.85
X6.8504Y-5.8071
X6.8701Y-6.3189
X6.96Y-5.57
X6.9724Y-4.748
X6.975Y-4.0
X7.0Y-2.85
X7.05Y-3.775
X7.0866Y-5.9252
X7.1591Y-2.1
X7.1654Y-4.2913
X7.1654Y-4.626
X7.225Y-3.6323
X7.325Y-3.7
X7.3553Y-6.1257
X7.4016Y-5.1969
X7.4137Y-4.835
X7.5591Y-4.2717
X7.5591Y-4.626
X7.5787Y-5.0394
X7.5787Y-5.689
X7.6Y-3.675
X7.625Y-2.4
X7.6354Y-2.9604
X7.675Y-2.1
X7.725Y-4.2679
X7.725Y-4.625
X7.7927Y-5.25
X7.8Y-3.5
X7.874Y-4.9409
X7.875Y-3.925
X7.9Y-2.375
X7.9Y-2.5
X7.9134Y-6.3189
X7.95Y-4.175
X8.0118Y-6.437
X8.0394Y-5.248
X8.05Y-3.5
X8.1Y-3.675
X8.189Y-6.0433
X8.2008Y-3.8465
X8.35Y-6.325
X8.4449Y-5.1181
X8.5Y-2.375
X8.5Y-2.5
X8.5113Y-6.1934
X8.5512Y-4.748
X8.5827Y-5.7874
X8.875Y-2.2
X8.9793Y-6.525
X9.025Y-6.325
X9.135Y-2.2008
X9.135Y-4.165
X9.135Y-5.7863
X9.3Y-3.5
X9.3Y-4.748
T3
X1.1024Y-2.1063
X1.1417Y-4.2126
X1.1417Y-5.1772
X1.5945Y-2.1063
X1.6339Y-4.2126
X1.6339Y-5.1772
X1.811Y-4.175
X1.811Y-4.675
X2.0472Y-2.7559
X2.0472Y-2.8559
X2.0472Y-2.9559
X2.0472Y-3.0559
X2.0472Y-3.1559
X2.0472Y-3.2559
X2.0472Y-3.3559
X2.0866Y-1.5354
X2.0866Y-1.8354
X2.1654Y-4.311
X2.1654Y-4.611
X2.1654Y-5.374
X2.1654Y-5.674
X2.1866Y-1.5354
X2.1866Y-1.8354
X2.2654Y-4.311
X2.2654Y-4.611
X2.2654Y-5.374
X2.2654Y-5.674
X2.2866Y-1.5354
X2.2866Y-1.8354
X2.3472Y-2.7559
X2.3472Y-2.8559
X2.3472Y-2.9559
X2.3472Y-3.0559
X2.3472Y-3.1559
X2.3472Y-3.2559
X2.3472Y-3.3559
X2.3654Y-4.311
X2.3654Y-4.611
X2.3654Y-5.374
X2.3654Y-5.674
X2.3866Y-1.5354
X2.3866Y-1.8354
X2.4654Y-4.311
X2.4654Y-4.611
X2.4654Y-5.374
X2.4654Y-5.674
X2.4866Y-1.5354
X2.4866Y-1.8354
X2.5654Y-4.311
X2.5654Y-4.611
X2.5654Y-5.374
X2.5654Y-5.674
X2.5866Y-1.5354
X2.5866Y-1.8354
X2.6654Y-4.311
X2.6654Y-4.611
X2.6654Y-5.374
X2.6654Y-5.674
X2.6866Y-1.5354
X2.6866Y-1.8354
X2.7654Y-4.311
X2.7654Y-4.611
X2.7654Y-5.374
X2.7654Y-5.674
X2.875Y-1.35
X2.875Y-1.85
X3.0512Y-1.5354
X3.0512Y-1.8354
X3.0512Y-2.7559
X3.0512Y-2.8559
X3.0512Y-2.9559
X3.0512Y-3.0559
X3.0512Y-3.1559
X3.0512Y-3.2559
X3.0512Y-3.3559
X3.1512Y-1.5354
X3.1512Y-1.8354
X3.2512Y-1.5354
X3.2512Y-1.8354
X3.3512Y-1.5354
X3.3512Y-1.8354
X3.3512Y-2.7559
X3.3512Y-2.8559
X3.3512Y-2.9559
X3.3512Y-3.0559
X3.3512Y-3.1559
X3.3512Y-3.2559
X3.3512Y-3.3559
X3.4055Y-5.374
X3.4055Y-5.674
X3.4512Y-1.5354
X3.4512Y-1.8354
X3.5055Y-5.374
X3.5055Y-5.674
X3.5512Y-1.5354
X3.5512Y-1.8354
X3.6055Y-5.374
X3.6055Y-5.674
X3.6512Y-1.5354
X3.6512Y-1.8354
X3.7055Y-5.374
X3.7055Y-5.674
X3.8055Y-5.374
X3.8055Y-5.674
X3.9055Y-5.374
X3.9055Y-5.674
X3.9331Y-1.3543
X3.9331Y-1.4528
X3.9331Y-1.5965
X3.9331Y-2.0965
X3.9764Y-4.311
X3.9764Y-4.611
X4.0055Y-5.374
X4.0055Y-5.674
X4.0354Y-2.7559
X4.0354Y-2.8559
X4.0354Y-2.9559
X4.0354Y-3.0559
X4.0354Y-3.1559
X4.0354Y-3.2559
X4.0354Y-3.3559
X4.0764Y-4.311
X4.0764Y-4.611
X4.1764Y-4.311
X4.1764Y-4.611
X4.2764Y-4.311
X4.2764Y-4.611
X4.3307Y-1.5354
X4.3307Y-1.8354
X4.3354Y-2.7559
X4.3354Y-2.8559
X4.3354Y-2.9559
X4.3354Y-3.0559
X4.3354Y-3.1559
X4.3354Y-3.2559
X4.3354Y-3.3559
X4.3764Y-4.311
X4.3764Y-4.611
X4.4307Y-1.5354
X4.4307Y-1.8354
X4.4764Y-4.311
X4.4764Y-4.611
X4.5307Y-1.5354
X4.5307Y-1.8354
X4.5764Y-4.311
X4.5764Y-4.611
X4.6307Y-1.5354
X4.6307Y-1.8354
X4.7307Y-1.5354
X4.7307Y-1.8354
X4.8307Y-1.5354
X4.8307Y-1.8354
X4.9307Y-1.5354
X4.9307Y-1.8354
X5.0591Y-2.7559
X5.0591Y-2.8559
X5.0591Y-2.9559
X5.0591Y-3.0559
X5.0591Y-3.1559
X5.0591Y-3.2559
X5.0591Y-3.3559
X5.2756Y-4.311
X5.2756Y-4.611
X5.2953Y-1.5354
X5.2953Y-1.8354
X5.3591Y-2.7559
X5.3591Y-2.8559
X5.3591Y-2.9559
X5.3591Y-3.0559
X5.3591Y-3.1559
X5.3591Y-3.2559
X5.3591Y-3.3559
X5.3756Y-4.311
X5.3756Y-4.611
X5.3953Y-1.5354
X5.3953Y-1.8354
X5.4756Y-4.311
X5.4756Y-4.611
X5.4953Y-1.5354
X5.4953Y-1.8354
X5.5756Y-4.311
X5.5756Y-4.611
X5.5953Y-1.5354
X5.5953Y-1.8354
X5.6756Y-4.311
X5.6756Y-4.611
X5.6953Y-1.5354
X5.6953Y-1.8354
X5.7756Y-4.311
X5.7756Y-4.611
X5.7953Y-1.5354
X5.7953Y-1.8354
X5.8756Y-4.311
X5.8756Y-4.611
X5.8953Y-1.5354
X5.8953Y-1.8354
X5.9055Y-2.2244
X5.9055Y-2.3244
X5.9055Y-2.4244
X5.9055Y-2.5244
X5.9055Y-2.6244
X5.9055Y-2.7244
X5.9055Y-2.8244
X5.9055Y-2.9244
X5.9055Y-3.0244
X5.9055Y-3.1244
X5.9055Y-3.2244
X5.9055Y-3.3244
X6.378Y-4.311
X6.378Y-4.611
X6.478Y-4.311
X6.478Y-4.611
X6.5055Y-2.2244
X6.5055Y-2.3244
X6.5055Y-2.4244
X6.5055Y-2.5244
X6.5055Y-2.6244
X6.5055Y-2.7244
X6.5055Y-2.8244
X6.5055Y-2.9244
X6.5055Y-3.0244
X6.5055Y-3.1244
X6.5055Y-3.2244
X6.5055Y-3.3244
X6.575Y-1.4
X6.575Y-1.9
X6.578Y-4.311
X6.578Y-4.611
X6.678Y-4.311
X6.678Y-4.611
X6.778Y-4.311
X6.778Y-4.611
X6.7913Y-1.2992
X6.7913Y-1.3992
X6.7913Y-1.4992
X6.7913Y-1.5992
X6.7913Y-1.6992
X6.7913Y-1.7992
X6.7913Y-1.8992
X6.7913Y-1.9992
X6.878Y-4.311
X6.878Y-4.611
X6.978Y-4.311
X6.978Y-4.611
X7.0913Y-1.2992
X7.0913Y-1.3992
X7.0913Y-1.4992
X7.0913Y-1.5992
X7.0913Y-1.6992
X7.0913Y-1.7992
X7.0913Y-1.8992
X7.0913Y-1.9992
X7.1063Y-2.7559
X7.1063Y-2.8559
X7.1063Y-2.9559
X7.1063Y-3.0559
X7.1063Y-3.1559
X7.1063Y-3.2559
X7.1063Y-3.3559
X7.4063Y-2.7559
X7.4063Y-2.8559
X7.4063Y-2.9559
X7.4063Y-3.0559
X7.4063Y-3.1559
X7.4063Y-3.2559
X7.4063Y-3.3559
X7.5787Y-1.4961
X7.5787Y-1.9961
X7.7559Y-1.3961
X7.7559Y-1.4961
X7.7559Y-1.5961
X7.7559Y-1.6961
X7.7559Y-1.7961
X7.7559Y-1.8961
X7.7559Y-1.9961
X7.9433Y-5.374
X7.9433Y-5.674
X7.9528Y-4.311
X7.9528Y-4.611
X8.0433Y-5.374
X8.0433Y-5.674
X8.0528Y-4.311
X8.0528Y-4.611
X8.0559Y-1.3961
X8.0559Y-1.4961
X8.0559Y-1.5961
X8.0559Y-1.6961
X8.0559Y-1.7961
X8.0559Y-1.8961
X8.0559Y-1.9961
X8.0709Y-2.7559
X8.0709Y-2.8559
X8.0709Y-2.9559
X8.0709Y-3.0559
X8.0709Y-3.1559
X8.0709Y-3.2559
X8.0709Y-3.3559
X8.1433Y-5.374
X8.1433Y-5.674
X8.1528Y-4.311
X8.1528Y-4.611
X8.2433Y-5.374
X8.2433Y-5.674
X8.2528Y-4.311
X8.2528Y-4.611
X8.275Y-1.4
X8.275Y-1.9
X8.3433Y-5.374
X8.3433Y-5.674
X8.3528Y-4.311
X8.3528Y-4.611
X8.3709Y-2.7559
X8.3709Y-2.8559
X8.3709Y-2.9559
X8.3709Y-3.0559
X8.3709Y-3.1559
X8.3709Y-3.2559
X8.3709Y-3.3559
X8.4433Y-5.374
X8.4433Y-5.674
X8.45Y-1.4
X8.45Y-1.9
X8.4528Y-4.311
X8.4528Y-4.611
X8.5433Y-5.374
X8.5433Y-5.674
X8.5528Y-4.311
X8.5528Y-4.611
X8.625Y-1.5281
X8.625Y-1.725
X9.1339Y-2.0157
X9.1339Y-2.9764
X9.1339Y-5.1614
X9.135Y-4.26
X9.135Y-6.05
X9.3307Y-2.0157
X9.3307Y-2.9764
X9.3307Y-5.1614
X9.3319Y-4.26
X9.3319Y-6.05
T4
X5.55Y-3.7
X6.2205Y-4.2717
T5
X7.25Y-2.0
X7.575Y-1.3
T6
X0.9803Y-0.9882
X4.5236Y-0.9882
X5.7087Y-0.9882
X9.252Y-0.9882
T0
M30
