  0
SECTION
  2
HEADER
  9
$ANGBASE
  50
0.0
  9
$ANGDIR
  70
1
  9
$MEASUREMENT
  70
0
  0
ENDSEC
  0
SECTION
  2
TABLES
  0
TABLE
  2
LTYPE
  70
4
  0
LTYPE
  5
40F
  2
CONTINUOUS
  70
0
  3
Solid line
  72
65
  73
0
  40
0.0
  0
LTYPE
  5
410
  2
DASHDOT
 70
0
  3
Dash Dot ____ _ ____ _
 72
65
 73
4
 40
2.0
 49
1.25
 49
-0.25
 49
0.25
 49
-0.25
  0
LTYPE
  5
411
  2
DASHED
 70
0
  3
Dashed __ __ __ __ __
 72
65
 73
2
 40
0.75
 49
0.5
 49
-0.25
  0
LTYPE
  5
43B
  2
DOTTED
 70
0
  3
Dotted .  .  .  .
 72
65
 73
2
 40
0.2
 49
0.0
 49
-0.2
  0
ENDTAB
  0
TABLE
  2
STYLE
  70
4
  0
STYLE
  2
KICAD
  70
0
  40
0
  41
1
  42
1
  50
0
  71
0
  3
isocp.shx
  0
STYLE
  2
KICADB
  70
0
  40
0
  41
1
  42
1
  50
0
  71
0
  3
isocp.shx
  0
STYLE
  2
KICADI
  70
0
  40
0
  41
1
  42
1
  50
15
  71
0
  3
isocp.shx
  0
STYLE
  2
KICADBI
  70
0
  40
0
  41
1
  42
1
  50
15
  71
0
  3
isocp.shx
  0
ENDTAB
  0
TABLE
  2
LAYER
  70
1
  0
LAYER
  2
BLACK
  70
0
  62
7
  6
CONTINUOUS
  0
ENDTAB
  0
ENDSEC
  0
SECTION
  2
ENTITIES
0
LINE
8
BLACK
6
CONTINUOUS
10
3.99606
20
-5.70866
11
4.05512
21
-5.70866
0
LINE
8
BLACK
6
CONTINUOUS
10
3.99606
20
-1.5748
11
3.99606
21
-5.70866
0
LINE
8
BLACK
6
CONTINUOUS
10
4.05512
20
-1.5748
11
3.99606
21
-1.5748
0
LINE
8
BLACK
6
CONTINUOUS
10
7.93307
20
-5.70866
11
7.87402
21
-5.70866
0
LINE
8
BLACK
6
CONTINUOUS
10
7.93307
20
-1.5748
11
7.93307
21
-5.70866
0
LINE
8
BLACK
6
CONTINUOUS
10
7.87402
20
-1.5748
11
7.93307
21
-1.5748
0
LINE
8
BLACK
6
CONTINUOUS
10
4.05512
20
-1.5748
11
4.09449
21
-1.5748
0
LINE
8
BLACK
6
CONTINUOUS
10
4.09449
20
-5.70866
11
4.05512
21
-5.70866
0
LINE
8
BLACK
6
CONTINUOUS
10
4.09449
20
-5.70866
11
7.87402
21
-5.70866
0
LINE
8
BLACK
6
CONTINUOUS
10
7.87402
20
-1.5748
11
4.09449
21
-1.5748
0
LINE
8
BLACK
6
CONTINUOUS
10
4.54843
20
-2.64685
11
4.61535
21
-2.71378
0
LINE
8
BLACK
6
CONTINUOUS
10
4.61535
20
-2.64685
11
4.54843
21
-2.71378
0
LINE
8
BLACK
6
CONTINUOUS
10
4.54843
20
-3.43425
11
4.61535
21
-3.50118
0
LINE
8
BLACK
6
CONTINUOUS
10
4.61535
20
-3.43425
11
4.54843
21
-3.50118
0
LINE
8
BLACK
6
CONTINUOUS
10
4.54843
20
-4.22165
11
4.61535
21
-4.28858
0
LINE
8
BLACK
6
CONTINUOUS
10
4.61535
20
-4.22165
11
4.54843
21
-4.28858
0
LINE
8
BLACK
6
CONTINUOUS
10
4.54843
20
-5.00591
11
4.61535
21
-5.07283
0
LINE
8
BLACK
6
CONTINUOUS
10
4.61535
20
-5.00591
11
4.54843
21
-5.07283
0
LINE
8
BLACK
6
CONTINUOUS
10
4.94843
20
-2.64685
11
5.01535
21
-2.71378
0
LINE
8
BLACK
6
CONTINUOUS
10
5.01535
20
-2.64685
11
4.94843
21
-2.71378
0
LINE
8
BLACK
6
CONTINUOUS
10
4.94843
20
-3.43425
11
5.01535
21
-3.50118
0
LINE
8
BLACK
6
CONTINUOUS
10
5.01535
20
-3.43425
11
4.94843
21
-3.50118
0
LINE
8
BLACK
6
CONTINUOUS
10
4.94843
20
-4.22165
11
5.01535
21
-4.28858
0
LINE
8
BLACK
6
CONTINUOUS
10
5.01535
20
-4.22165
11
4.94843
21
-4.28858
0
LINE
8
BLACK
6
CONTINUOUS
10
4.94843
20
-5.00591
11
5.01535
21
-5.07283
0
LINE
8
BLACK
6
CONTINUOUS
10
5.01535
20
-5.00591
11
4.94843
21
-5.07283
0
LINE
8
BLACK
6
CONTINUOUS
10
5.33583
20
-2.64685
11
5.40276
21
-2.71378
0
LINE
8
BLACK
6
CONTINUOUS
10
5.40276
20
-2.64685
11
5.33583
21
-2.71378
0
LINE
8
BLACK
6
CONTINUOUS
10
5.33583
20
-3.43425
11
5.40276
21
-3.50118
0
LINE
8
BLACK
6
CONTINUOUS
10
5.40276
20
-3.43425
11
5.33583
21
-3.50118
0
LINE
8
BLACK
6
CONTINUOUS
10
5.33583
20
-4.22165
11
5.40276
21
-4.28858
0
LINE
8
BLACK
6
CONTINUOUS
10
5.40276
20
-4.22165
11
5.33583
21
-4.28858
0
LINE
8
BLACK
6
CONTINUOUS
10
5.33583
20
-5.00906
11
5.40276
21
-5.07598
0
LINE
8
BLACK
6
CONTINUOUS
10
5.40276
20
-5.00906
11
5.33583
21
-5.07598
0
LINE
8
BLACK
6
CONTINUOUS
10
5.73583
20
-2.64685
11
5.80276
21
-2.71378
0
LINE
8
BLACK
6
CONTINUOUS
10
5.80276
20
-2.64685
11
5.73583
21
-2.71378
0
LINE
8
BLACK
6
CONTINUOUS
10
5.73583
20
-3.43425
11
5.80276
21
-3.50118
0
LINE
8
BLACK
6
CONTINUOUS
10
5.80276
20
-3.43425
11
5.73583
21
-3.50118
0
LINE
8
BLACK
6
CONTINUOUS
10
5.73583
20
-4.22165
11
5.80276
21
-4.28858
0
LINE
8
BLACK
6
CONTINUOUS
10
5.80276
20
-4.22165
11
5.73583
21
-4.28858
0
LINE
8
BLACK
6
CONTINUOUS
10
5.73583
20
-5.00906
11
5.80276
21
-5.07598
0
LINE
8
BLACK
6
CONTINUOUS
10
5.80276
20
-5.00906
11
5.73583
21
-5.07598
0
LINE
8
BLACK
6
CONTINUOUS
10
6.12323
20
-2.64685
11
6.19016
21
-2.71378
0
LINE
8
BLACK
6
CONTINUOUS
10
6.19016
20
-2.64685
11
6.12323
21
-2.71378
0
LINE
8
BLACK
6
CONTINUOUS
10
6.12323
20
-3.43425
11
6.19016
21
-3.50118
0
LINE
8
BLACK
6
CONTINUOUS
10
6.19016
20
-3.43425
11
6.12323
21
-3.50118
0
LINE
8
BLACK
6
CONTINUOUS
10
6.12323
20
-4.22165
11
6.19016
21
-4.28858
0
LINE
8
BLACK
6
CONTINUOUS
10
6.19016
20
-4.22165
11
6.12323
21
-4.28858
0
LINE
8
BLACK
6
CONTINUOUS
10
6.12323
20
-5.00906
11
6.19016
21
-5.07598
0
LINE
8
BLACK
6
CONTINUOUS
10
6.19016
20
-5.00906
11
6.12323
21
-5.07598
0
LINE
8
BLACK
6
CONTINUOUS
10
6.52323
20
-2.64685
11
6.59016
21
-2.71378
0
LINE
8
BLACK
6
CONTINUOUS
10
6.59016
20
-2.64685
11
6.52323
21
-2.71378
0
LINE
8
BLACK
6
CONTINUOUS
10
6.52323
20
-3.43425
11
6.59016
21
-3.50118
0
LINE
8
BLACK
6
CONTINUOUS
10
6.59016
20
-3.43425
11
6.52323
21
-3.50118
0
LINE
8
BLACK
6
CONTINUOUS
10
6.52323
20
-4.22165
11
6.59016
21
-4.28858
0
LINE
8
BLACK
6
CONTINUOUS
10
6.59016
20
-4.22165
11
6.52323
21
-4.28858
0
LINE
8
BLACK
6
CONTINUOUS
10
6.52323
20
-5.00906
11
6.59016
21
-5.07598
0
LINE
8
BLACK
6
CONTINUOUS
10
6.59016
20
-5.00906
11
6.52323
21
-5.07598
0
LINE
8
BLACK
6
CONTINUOUS
10
6.91063
20
-2.64685
11
6.97756
21
-2.71378
0
LINE
8
BLACK
6
CONTINUOUS
10
6.97756
20
-2.64685
11
6.91063
21
-2.71378
0
LINE
8
BLACK
6
CONTINUOUS
10
6.91063
20
-3.43425
11
6.97756
21
-3.50118
0
LINE
8
BLACK
6
CONTINUOUS
10
6.97756
20
-3.43425
11
6.91063
21
-3.50118
0
LINE
8
BLACK
6
CONTINUOUS
10
6.91063
20
-4.22165
11
6.97756
21
-4.28858
0
LINE
8
BLACK
6
CONTINUOUS
10
6.97756
20
-4.22165
11
6.91063
21
-4.28858
0
LINE
8
BLACK
6
CONTINUOUS
10
6.91063
20
-5.00906
11
6.97756
21
-5.07598
0
LINE
8
BLACK
6
CONTINUOUS
10
6.97756
20
-5.00906
11
6.91063
21
-5.07598
0
LINE
8
BLACK
6
CONTINUOUS
10
7.31063
20
-2.64685
11
7.37756
21
-2.71378
0
LINE
8
BLACK
6
CONTINUOUS
10
7.37756
20
-2.64685
11
7.31063
21
-2.71378
0
LINE
8
BLACK
6
CONTINUOUS
10
7.31063
20
-3.43425
11
7.37756
21
-3.50118
0
LINE
8
BLACK
6
CONTINUOUS
10
7.37756
20
-3.43425
11
7.31063
21
-3.50118
0
LINE
8
BLACK
6
CONTINUOUS
10
7.31063
20
-4.22165
11
7.37756
21
-4.28858
0
LINE
8
BLACK
6
CONTINUOUS
10
7.37756
20
-4.22165
11
7.31063
21
-4.28858
0
LINE
8
BLACK
6
CONTINUOUS
10
7.31063
20
-5.00906
11
7.37756
21
-5.07598
0
LINE
8
BLACK
6
CONTINUOUS
10
7.37756
20
-5.00906
11
7.31063
21
-5.07598
0
CIRCLE
8
BLACK
10
4.78189
20
-2.68031
40
0.0787402
0
CIRCLE
8
BLACK
10
4.78189
20
-3.46772
40
0.0787402
0
CIRCLE
8
BLACK
10
4.78189
20
-4.25512
40
0.0787402
0
CIRCLE
8
BLACK
10
4.78189
20
-5.03937
40
0.0787402
0
CIRCLE
8
BLACK
10
5.56929
20
-2.68031
40
0.0787402
0
CIRCLE
8
BLACK
10
5.56929
20
-3.46772
40
0.0787402
0
CIRCLE
8
BLACK
10
5.56929
20
-4.25512
40
0.0787402
0
CIRCLE
8
BLACK
10
5.56929
20
-5.04252
40
0.0787402
0
CIRCLE
8
BLACK
10
6.35669
20
-2.68031
40
0.0787402
0
CIRCLE
8
BLACK
10
6.35669
20
-3.46772
40
0.0787402
0
CIRCLE
8
BLACK
10
6.35669
20
-4.25512
40
0.0787402
0
CIRCLE
8
BLACK
10
6.35669
20
-5.04252
40
0.0787402
0
CIRCLE
8
BLACK
10
7.14409
20
-2.68031
40
0.0787402
0
CIRCLE
8
BLACK
10
7.14409
20
-3.46772
40
0.0787402
0
CIRCLE
8
BLACK
10
7.14409
20
-4.25512
40
0.0787402
0
CIRCLE
8
BLACK
10
7.14409
20
-5.04252
40
0.0787402
0
LINE
8
BLACK
6
CONTINUOUS
10
4.10785
20
-5.893
11
4.10785
21
-5.77489
0
LINE
8
BLACK
6
CONTINUOUS
10
4.10785
20
-5.77489
11
4.13597
21
-5.77489
0
LINE
8
BLACK
6
CONTINUOUS
10
4.13597
20
-5.77489
11
4.15284
21
-5.78051
0
LINE
8
BLACK
6
CONTINUOUS
10
4.15284
20
-5.78051
11
4.16409
21
-5.79176
0
LINE
8
BLACK
6
CONTINUOUS
10
4.16409
20
-5.79176
11
4.16971
21
-5.80301
0
LINE
8
BLACK
6
CONTINUOUS
10
4.16971
20
-5.80301
11
4.17534
21
-5.82551
0
LINE
8
BLACK
6
CONTINUOUS
10
4.17534
20
-5.82551
11
4.17534
21
-5.84238
0
LINE
8
BLACK
6
CONTINUOUS
10
4.17534
20
-5.84238
11
4.16971
21
-5.86488
0
LINE
8
BLACK
6
CONTINUOUS
10
4.16971
20
-5.86488
11
4.16409
21
-5.87612
0
LINE
8
BLACK
6
CONTINUOUS
10
4.16409
20
-5.87612
11
4.15284
21
-5.88737
0
LINE
8
BLACK
6
CONTINUOUS
10
4.15284
20
-5.88737
11
4.13597
21
-5.893
0
LINE
8
BLACK
6
CONTINUOUS
10
4.13597
20
-5.893
11
4.10785
21
-5.893
0
LINE
8
BLACK
6
CONTINUOUS
10
4.22596
20
-5.893
11
4.22596
21
-5.81426
0
LINE
8
BLACK
6
CONTINUOUS
10
4.22596
20
-5.83675
11
4.23158
21
-5.82551
0
LINE
8
BLACK
6
CONTINUOUS
10
4.23158
20
-5.82551
11
4.2372
21
-5.81988
0
LINE
8
BLACK
6
CONTINUOUS
10
4.2372
20
-5.81988
11
4.24845
21
-5.81426
0
LINE
8
BLACK
6
CONTINUOUS
10
4.24845
20
-5.81426
11
4.2597
21
-5.81426
0
LINE
8
BLACK
6
CONTINUOUS
10
4.29907
20
-5.893
11
4.29907
21
-5.81426
0
LINE
8
BLACK
6
CONTINUOUS
10
4.29907
20
-5.77489
11
4.29345
21
-5.78051
0
LINE
8
BLACK
6
CONTINUOUS
10
4.29345
20
-5.78051
11
4.29907
21
-5.78614
0
LINE
8
BLACK
6
CONTINUOUS
10
4.29907
20
-5.78614
11
4.3047
21
-5.78051
0
LINE
8
BLACK
6
CONTINUOUS
10
4.3047
20
-5.78051
11
4.29907
21
-5.77489
0
LINE
8
BLACK
6
CONTINUOUS
10
4.29907
20
-5.77489
11
4.29907
21
-5.78614
0
LINE
8
BLACK
6
CONTINUOUS
10
4.37219
20
-5.893
11
4.36094
21
-5.88737
0
LINE
8
BLACK
6
CONTINUOUS
10
4.36094
20
-5.88737
11
4.35531
21
-5.87612
0
LINE
8
BLACK
6
CONTINUOUS
10
4.35531
20
-5.87612
11
4.35531
21
-5.77489
0
LINE
8
BLACK
6
CONTINUOUS
10
4.43406
20
-5.893
11
4.42281
21
-5.88737
0
LINE
8
BLACK
6
CONTINUOUS
10
4.42281
20
-5.88737
11
4.41718
21
-5.87612
0
LINE
8
BLACK
6
CONTINUOUS
10
4.41718
20
-5.87612
11
4.41718
21
-5.77489
0
LINE
8
BLACK
6
CONTINUOUS
10
4.56904
20
-5.893
11
4.56904
21
-5.77489
0
LINE
8
BLACK
6
CONTINUOUS
10
4.56904
20
-5.77489
11
4.60841
21
-5.85925
0
LINE
8
BLACK
6
CONTINUOUS
10
4.60841
20
-5.85925
11
4.64778
21
-5.77489
0
LINE
8
BLACK
6
CONTINUOUS
10
4.64778
20
-5.77489
11
4.64778
21
-5.893
0
LINE
8
BLACK
6
CONTINUOUS
10
4.75464
20
-5.893
11
4.75464
21
-5.83113
0
LINE
8
BLACK
6
CONTINUOUS
10
4.75464
20
-5.83113
11
4.74902
21
-5.81988
0
LINE
8
BLACK
6
CONTINUOUS
10
4.74902
20
-5.81988
11
4.73777
21
-5.81426
0
LINE
8
BLACK
6
CONTINUOUS
10
4.73777
20
-5.81426
11
4.71527
21
-5.81426
0
LINE
8
BLACK
6
CONTINUOUS
10
4.71527
20
-5.81426
11
4.70402
21
-5.81988
0
LINE
8
BLACK
6
CONTINUOUS
10
4.75464
20
-5.88737
11
4.74339
21
-5.893
0
LINE
8
BLACK
6
CONTINUOUS
10
4.74339
20
-5.893
11
4.71527
21
-5.893
0
LINE
8
BLACK
6
CONTINUOUS
10
4.71527
20
-5.893
11
4.70402
21
-5.88737
0
LINE
8
BLACK
6
CONTINUOUS
10
4.70402
20
-5.88737
11
4.6984
21
-5.87612
0
LINE
8
BLACK
6
CONTINUOUS
10
4.6984
20
-5.87612
11
4.6984
21
-5.86488
0
LINE
8
BLACK
6
CONTINUOUS
10
4.6984
20
-5.86488
11
4.70402
21
-5.85363
0
LINE
8
BLACK
6
CONTINUOUS
10
4.70402
20
-5.85363
11
4.71527
21
-5.848
0
LINE
8
BLACK
6
CONTINUOUS
10
4.71527
20
-5.848
11
4.74339
21
-5.848
0
LINE
8
BLACK
6
CONTINUOUS
10
4.74339
20
-5.848
11
4.75464
21
-5.84238
0
LINE
8
BLACK
6
CONTINUOUS
10
4.81088
20
-5.81426
11
4.81088
21
-5.93237
0
LINE
8
BLACK
6
CONTINUOUS
10
4.81088
20
-5.81988
11
4.82213
21
-5.81426
0
LINE
8
BLACK
6
CONTINUOUS
10
4.82213
20
-5.81426
11
4.84463
21
-5.81426
0
LINE
8
BLACK
6
CONTINUOUS
10
4.84463
20
-5.81426
11
4.85588
21
-5.81988
0
LINE
8
BLACK
6
CONTINUOUS
10
4.85588
20
-5.81988
11
4.8615
21
-5.82551
0
LINE
8
BLACK
6
CONTINUOUS
10
4.8615
20
-5.82551
11
4.86713
21
-5.83675
0
LINE
8
BLACK
6
CONTINUOUS
10
4.86713
20
-5.83675
11
4.86713
21
-5.8705
0
LINE
8
BLACK
6
CONTINUOUS
10
4.86713
20
-5.8705
11
4.8615
21
-5.88175
0
LINE
8
BLACK
6
CONTINUOUS
10
4.8615
20
-5.88175
11
4.85588
21
-5.88737
0
LINE
8
BLACK
6
CONTINUOUS
10
4.85588
20
-5.88737
11
4.84463
21
-5.893
0
LINE
8
BLACK
6
CONTINUOUS
10
4.84463
20
-5.893
11
4.82213
21
-5.893
0
LINE
8
BLACK
6
CONTINUOUS
10
4.82213
20
-5.893
11
4.81088
21
-5.88737
0
LINE
8
BLACK
6
CONTINUOUS
10
4.91774
20
-5.88175
11
4.92337
21
-5.88737
0
LINE
8
BLACK
6
CONTINUOUS
10
4.92337
20
-5.88737
11
4.91774
21
-5.893
0
LINE
8
BLACK
6
CONTINUOUS
10
4.91774
20
-5.893
11
4.91212
21
-5.88737
0
LINE
8
BLACK
6
CONTINUOUS
10
4.91212
20
-5.88737
11
4.91774
21
-5.88175
0
LINE
8
BLACK
6
CONTINUOUS
10
4.91774
20
-5.88175
11
4.91774
21
-5.893
0
LINE
8
BLACK
6
CONTINUOUS
10
4.91774
20
-5.81988
11
4.92337
21
-5.82551
0
LINE
8
BLACK
6
CONTINUOUS
10
4.92337
20
-5.82551
11
4.91774
21
-5.83113
0
LINE
8
BLACK
6
CONTINUOUS
10
4.91774
20
-5.83113
11
4.91212
21
-5.82551
0
LINE
8
BLACK
6
CONTINUOUS
10
4.91212
20
-5.82551
11
4.91774
21
-5.81988
0
LINE
8
BLACK
6
CONTINUOUS
10
4.91774
20
-5.81988
11
4.91774
21
-5.83113
0
LINE
8
BLACK
6
CONTINUOUS
10
3.92815
20
-6.05413
11
3.99508
21
-6.12106
0
LINE
8
BLACK
6
CONTINUOUS
10
3.99508
20
-6.05413
11
3.92815
21
-6.12106
0
LINE
8
BLACK
6
CONTINUOUS
10
4.16971
20
-6.14103
11
4.10222
21
-6.14103
0
LINE
8
BLACK
6
CONTINUOUS
10
4.13597
20
-6.14103
11
4.13597
21
-6.02292
0
LINE
8
BLACK
6
CONTINUOUS
10
4.13597
20
-6.02292
11
4.12472
21
-6.03979
0
LINE
8
BLACK
6
CONTINUOUS
10
4.12472
20
-6.03979
11
4.11347
21
-6.05104
0
LINE
8
BLACK
6
CONTINUOUS
10
4.11347
20
-6.05104
11
4.10222
21
-6.05666
0
LINE
8
BLACK
6
CONTINUOUS
10
4.22033
20
-6.12978
11
4.22596
21
-6.1354
0
LINE
8
BLACK
6
CONTINUOUS
10
4.22596
20
-6.1354
11
4.22033
21
-6.14103
0
LINE
8
BLACK
6
CONTINUOUS
10
4.22033
20
-6.14103
11
4.21471
21
-6.1354
0
LINE
8
BLACK
6
CONTINUOUS
10
4.21471
20
-6.1354
11
4.22033
21
-6.12978
0
LINE
8
BLACK
6
CONTINUOUS
10
4.22033
20
-6.12978
11
4.22033
21
-6.14103
0
LINE
8
BLACK
6
CONTINUOUS
10
4.26533
20
-6.02292
11
4.34407
21
-6.02292
0
LINE
8
BLACK
6
CONTINUOUS
10
4.34407
20
-6.02292
11
4.29345
21
-6.14103
0
LINE
8
BLACK
6
CONTINUOUS
10
4.41156
20
-6.02292
11
4.42281
21
-6.02292
0
LINE
8
BLACK
6
CONTINUOUS
10
4.42281
20
-6.02292
11
4.43406
21
-6.02854
0
LINE
8
BLACK
6
CONTINUOUS
10
4.43406
20
-6.02854
11
4.43968
21
-6.03417
0
LINE
8
BLACK
6
CONTINUOUS
10
4.43968
20
-6.03417
11
4.4453
21
-6.04542
0
LINE
8
BLACK
6
CONTINUOUS
10
4.4453
20
-6.04542
11
4.45093
21
-6.06791
0
LINE
8
BLACK
6
CONTINUOUS
10
4.45093
20
-6.06791
11
4.45093
21
-6.09603
0
LINE
8
BLACK
6
CONTINUOUS
10
4.45093
20
-6.09603
11
4.4453
21
-6.11853
0
LINE
8
BLACK
6
CONTINUOUS
10
4.4453
20
-6.11853
11
4.43968
21
-6.12978
0
LINE
8
BLACK
6
CONTINUOUS
10
4.43968
20
-6.12978
11
4.43406
21
-6.1354
0
LINE
8
BLACK
6
CONTINUOUS
10
4.43406
20
-6.1354
11
4.42281
21
-6.14103
0
LINE
8
BLACK
6
CONTINUOUS
10
4.42281
20
-6.14103
11
4.41156
21
-6.14103
0
LINE
8
BLACK
6
CONTINUOUS
10
4.41156
20
-6.14103
11
4.40031
21
-6.1354
0
LINE
8
BLACK
6
CONTINUOUS
10
4.40031
20
-6.1354
11
4.39468
21
-6.12978
0
LINE
8
BLACK
6
CONTINUOUS
10
4.39468
20
-6.12978
11
4.38906
21
-6.11853
0
LINE
8
BLACK
6
CONTINUOUS
10
4.38906
20
-6.11853
11
4.38344
21
-6.09603
0
LINE
8
BLACK
6
CONTINUOUS
10
4.38344
20
-6.09603
11
4.38344
21
-6.06791
0
LINE
8
BLACK
6
CONTINUOUS
10
4.38344
20
-6.06791
11
4.38906
21
-6.04542
0
LINE
8
BLACK
6
CONTINUOUS
10
4.38906
20
-6.04542
11
4.39468
21
-6.03417
0
LINE
8
BLACK
6
CONTINUOUS
10
4.39468
20
-6.03417
11
4.40031
21
-6.02854
0
LINE
8
BLACK
6
CONTINUOUS
10
4.40031
20
-6.02854
11
4.41156
21
-6.02292
0
LINE
8
BLACK
6
CONTINUOUS
10
4.52404
20
-6.02292
11
4.53529
21
-6.02292
0
LINE
8
BLACK
6
CONTINUOUS
10
4.53529
20
-6.02292
11
4.54654
21
-6.02854
0
LINE
8
BLACK
6
CONTINUOUS
10
4.54654
20
-6.02854
11
4.55217
21
-6.03417
0
LINE
8
BLACK
6
CONTINUOUS
10
4.55217
20
-6.03417
11
4.55779
21
-6.04542
0
LINE
8
BLACK
6
CONTINUOUS
10
4.55779
20
-6.04542
11
4.56341
21
-6.06791
0
LINE
8
BLACK
6
CONTINUOUS
10
4.56341
20
-6.06791
11
4.56341
21
-6.09603
0
LINE
8
BLACK
6
CONTINUOUS
10
4.56341
20
-6.09603
11
4.55779
21
-6.11853
0
LINE
8
BLACK
6
CONTINUOUS
10
4.55779
20
-6.11853
11
4.55217
21
-6.12978
0
LINE
8
BLACK
6
CONTINUOUS
10
4.55217
20
-6.12978
11
4.54654
21
-6.1354
0
LINE
8
BLACK
6
CONTINUOUS
10
4.54654
20
-6.1354
11
4.53529
21
-6.14103
0
LINE
8
BLACK
6
CONTINUOUS
10
4.53529
20
-6.14103
11
4.52404
21
-6.14103
0
LINE
8
BLACK
6
CONTINUOUS
10
4.52404
20
-6.14103
11
4.5128
21
-6.1354
0
LINE
8
BLACK
6
CONTINUOUS
10
4.5128
20
-6.1354
11
4.50717
21
-6.12978
0
LINE
8
BLACK
6
CONTINUOUS
10
4.50717
20
-6.12978
11
4.50155
21
-6.11853
0
LINE
8
BLACK
6
CONTINUOUS
10
4.50155
20
-6.11853
11
4.49592
21
-6.09603
0
LINE
8
BLACK
6
CONTINUOUS
10
4.49592
20
-6.09603
11
4.49592
21
-6.06791
0
LINE
8
BLACK
6
CONTINUOUS
10
4.49592
20
-6.06791
11
4.50155
21
-6.04542
0
LINE
8
BLACK
6
CONTINUOUS
10
4.50155
20
-6.04542
11
4.50717
21
-6.03417
0
LINE
8
BLACK
6
CONTINUOUS
10
4.50717
20
-6.03417
11
4.5128
21
-6.02854
0
LINE
8
BLACK
6
CONTINUOUS
10
4.5128
20
-6.02854
11
4.52404
21
-6.02292
0
LINE
8
BLACK
6
CONTINUOUS
10
4.61403
20
-6.14103
11
4.61403
21
-6.06229
0
LINE
8
BLACK
6
CONTINUOUS
10
4.61403
20
-6.07354
11
4.61966
21
-6.06791
0
LINE
8
BLACK
6
CONTINUOUS
10
4.61966
20
-6.06791
11
4.63091
21
-6.06229
0
LINE
8
BLACK
6
CONTINUOUS
10
4.63091
20
-6.06229
11
4.64778
21
-6.06229
0
LINE
8
BLACK
6
CONTINUOUS
10
4.64778
20
-6.06229
11
4.65903
21
-6.06791
0
LINE
8
BLACK
6
CONTINUOUS
10
4.65903
20
-6.06791
11
4.66465
21
-6.07916
0
LINE
8
BLACK
6
CONTINUOUS
10
4.66465
20
-6.07916
11
4.66465
21
-6.14103
0
LINE
8
BLACK
6
CONTINUOUS
10
4.66465
20
-6.07916
11
4.67028
21
-6.06791
0
LINE
8
BLACK
6
CONTINUOUS
10
4.67028
20
-6.06791
11
4.68152
21
-6.06229
0
LINE
8
BLACK
6
CONTINUOUS
10
4.68152
20
-6.06229
11
4.6984
21
-6.06229
0
LINE
8
BLACK
6
CONTINUOUS
10
4.6984
20
-6.06229
11
4.70965
21
-6.06791
0
LINE
8
BLACK
6
CONTINUOUS
10
4.70965
20
-6.06791
11
4.71527
21
-6.07916
0
LINE
8
BLACK
6
CONTINUOUS
10
4.71527
20
-6.07916
11
4.71527
21
-6.14103
0
LINE
8
BLACK
6
CONTINUOUS
10
4.77151
20
-6.14103
11
4.77151
21
-6.06229
0
LINE
8
BLACK
6
CONTINUOUS
10
4.77151
20
-6.07354
11
4.77714
21
-6.06791
0
LINE
8
BLACK
6
CONTINUOUS
10
4.77714
20
-6.06791
11
4.78839
21
-6.06229
0
LINE
8
BLACK
6
CONTINUOUS
10
4.78839
20
-6.06229
11
4.80526
21
-6.06229
0
LINE
8
BLACK
6
CONTINUOUS
10
4.80526
20
-6.06229
11
4.81651
21
-6.06791
0
LINE
8
BLACK
6
CONTINUOUS
10
4.81651
20
-6.06791
11
4.82213
21
-6.07916
0
LINE
8
BLACK
6
CONTINUOUS
10
4.82213
20
-6.07916
11
4.82213
21
-6.14103
0
LINE
8
BLACK
6
CONTINUOUS
10
4.82213
20
-6.07916
11
4.82776
21
-6.06791
0
LINE
8
BLACK
6
CONTINUOUS
10
4.82776
20
-6.06791
11
4.839
21
-6.06229
0
LINE
8
BLACK
6
CONTINUOUS
10
4.839
20
-6.06229
11
4.85588
21
-6.06229
0
LINE
8
BLACK
6
CONTINUOUS
10
4.85588
20
-6.06229
11
4.86713
21
-6.06791
0
LINE
8
BLACK
6
CONTINUOUS
10
4.86713
20
-6.06791
11
4.87275
21
-6.07916
0
LINE
8
BLACK
6
CONTINUOUS
10
4.87275
20
-6.07916
11
4.87275
21
-6.14103
0
LINE
8
BLACK
6
CONTINUOUS
10
5.10335
20
-6.01729
11
5.00211
21
-6.16915
0
LINE
8
BLACK
6
CONTINUOUS
10
5.2552
20
-6.02292
11
5.26645
21
-6.02292
0
LINE
8
BLACK
6
CONTINUOUS
10
5.26645
20
-6.02292
11
5.2777
21
-6.02854
0
LINE
8
BLACK
6
CONTINUOUS
10
5.2777
20
-6.02854
11
5.28332
21
-6.03417
0
LINE
8
BLACK
6
CONTINUOUS
10
5.28332
20
-6.03417
11
5.28895
21
-6.04542
0
LINE
8
BLACK
6
CONTINUOUS
10
5.28895
20
-6.04542
11
5.29457
21
-6.06791
0
LINE
8
BLACK
6
CONTINUOUS
10
5.29457
20
-6.06791
11
5.29457
21
-6.09603
0
LINE
8
BLACK
6
CONTINUOUS
10
5.29457
20
-6.09603
11
5.28895
21
-6.11853
0
LINE
8
BLACK
6
CONTINUOUS
10
5.28895
20
-6.11853
11
5.28332
21
-6.12978
0
LINE
8
BLACK
6
CONTINUOUS
10
5.28332
20
-6.12978
11
5.2777
21
-6.1354
0
LINE
8
BLACK
6
CONTINUOUS
10
5.2777
20
-6.1354
11
5.26645
21
-6.14103
0
LINE
8
BLACK
6
CONTINUOUS
10
5.26645
20
-6.14103
11
5.2552
21
-6.14103
0
LINE
8
BLACK
6
CONTINUOUS
10
5.2552
20
-6.14103
11
5.24395
21
-6.1354
0
LINE
8
BLACK
6
CONTINUOUS
10
5.24395
20
-6.1354
11
5.23833
21
-6.12978
0
LINE
8
BLACK
6
CONTINUOUS
10
5.23833
20
-6.12978
11
5.23271
21
-6.11853
0
LINE
8
BLACK
6
CONTINUOUS
10
5.23271
20
-6.11853
11
5.22708
21
-6.09603
0
LINE
8
BLACK
6
CONTINUOUS
10
5.22708
20
-6.09603
11
5.22708
21
-6.06791
0
LINE
8
BLACK
6
CONTINUOUS
10
5.22708
20
-6.06791
11
5.23271
21
-6.04542
0
LINE
8
BLACK
6
CONTINUOUS
10
5.23271
20
-6.04542
11
5.23833
21
-6.03417
0
LINE
8
BLACK
6
CONTINUOUS
10
5.23833
20
-6.03417
11
5.24395
21
-6.02854
0
LINE
8
BLACK
6
CONTINUOUS
10
5.24395
20
-6.02854
11
5.2552
21
-6.02292
0
LINE
8
BLACK
6
CONTINUOUS
10
5.34519
20
-6.12978
11
5.35082
21
-6.1354
0
LINE
8
BLACK
6
CONTINUOUS
10
5.35082
20
-6.1354
11
5.34519
21
-6.14103
0
LINE
8
BLACK
6
CONTINUOUS
10
5.34519
20
-6.14103
11
5.33957
21
-6.1354
0
LINE
8
BLACK
6
CONTINUOUS
10
5.33957
20
-6.1354
11
5.34519
21
-6.12978
0
LINE
8
BLACK
6
CONTINUOUS
10
5.34519
20
-6.12978
11
5.34519
21
-6.14103
0
LINE
8
BLACK
6
CONTINUOUS
10
5.42393
20
-6.02292
11
5.43518
21
-6.02292
0
LINE
8
BLACK
6
CONTINUOUS
10
5.43518
20
-6.02292
11
5.44643
21
-6.02854
0
LINE
8
BLACK
6
CONTINUOUS
10
5.44643
20
-6.02854
11
5.45205
21
-6.03417
0
LINE
8
BLACK
6
CONTINUOUS
10
5.45205
20
-6.03417
11
5.45768
21
-6.04542
0
LINE
8
BLACK
6
CONTINUOUS
10
5.45768
20
-6.04542
11
5.4633
21
-6.06791
0
LINE
8
BLACK
6
CONTINUOUS
10
5.4633
20
-6.06791
11
5.4633
21
-6.09603
0
LINE
8
BLACK
6
CONTINUOUS
10
5.4633
20
-6.09603
11
5.45768
21
-6.11853
0
LINE
8
BLACK
6
CONTINUOUS
10
5.45768
20
-6.11853
11
5.45205
21
-6.12978
0
LINE
8
BLACK
6
CONTINUOUS
10
5.45205
20
-6.12978
11
5.44643
21
-6.1354
0
LINE
8
BLACK
6
CONTINUOUS
10
5.44643
20
-6.1354
11
5.43518
21
-6.14103
0
LINE
8
BLACK
6
CONTINUOUS
10
5.43518
20
-6.14103
11
5.42393
21
-6.14103
0
LINE
8
BLACK
6
CONTINUOUS
10
5.42393
20
-6.14103
11
5.41268
21
-6.1354
0
LINE
8
BLACK
6
CONTINUOUS
10
5.41268
20
-6.1354
11
5.40706
21
-6.12978
0
LINE
8
BLACK
6
CONTINUOUS
10
5.40706
20
-6.12978
11
5.40143
21
-6.11853
0
LINE
8
BLACK
6
CONTINUOUS
10
5.40143
20
-6.11853
11
5.39581
21
-6.09603
0
LINE
8
BLACK
6
CONTINUOUS
10
5.39581
20
-6.09603
11
5.39581
21
-6.06791
0
LINE
8
BLACK
6
CONTINUOUS
10
5.39581
20
-6.06791
11
5.40143
21
-6.04542
0
LINE
8
BLACK
6
CONTINUOUS
10
5.40143
20
-6.04542
11
5.40706
21
-6.03417
0
LINE
8
BLACK
6
CONTINUOUS
10
5.40706
20
-6.03417
11
5.41268
21
-6.02854
0
LINE
8
BLACK
6
CONTINUOUS
10
5.41268
20
-6.02854
11
5.42393
21
-6.02292
0
LINE
8
BLACK
6
CONTINUOUS
10
5.56454
20
-6.02292
11
5.54204
21
-6.02292
0
LINE
8
BLACK
6
CONTINUOUS
10
5.54204
20
-6.02292
11
5.53079
21
-6.02854
0
LINE
8
BLACK
6
CONTINUOUS
10
5.53079
20
-6.02854
11
5.52517
21
-6.03417
0
LINE
8
BLACK
6
CONTINUOUS
10
5.52517
20
-6.03417
11
5.51392
21
-6.05104
0
LINE
8
BLACK
6
CONTINUOUS
10
5.51392
20
-6.05104
11
5.5083
21
-6.07354
0
LINE
8
BLACK
6
CONTINUOUS
10
5.5083
20
-6.07354
11
5.5083
21
-6.11853
0
LINE
8
BLACK
6
CONTINUOUS
10
5.5083
20
-6.11853
11
5.51392
21
-6.12978
0
LINE
8
BLACK
6
CONTINUOUS
10
5.51392
20
-6.12978
11
5.51954
21
-6.1354
0
LINE
8
BLACK
6
CONTINUOUS
10
5.51954
20
-6.1354
11
5.53079
21
-6.14103
0
LINE
8
BLACK
6
CONTINUOUS
10
5.53079
20
-6.14103
11
5.55329
21
-6.14103
0
LINE
8
BLACK
6
CONTINUOUS
10
5.55329
20
-6.14103
11
5.56454
21
-6.1354
0
LINE
8
BLACK
6
CONTINUOUS
10
5.56454
20
-6.1354
11
5.57016
21
-6.12978
0
LINE
8
BLACK
6
CONTINUOUS
10
5.57016
20
-6.12978
11
5.57579
21
-6.11853
0
LINE
8
BLACK
6
CONTINUOUS
10
5.57579
20
-6.11853
11
5.57579
21
-6.09041
0
LINE
8
BLACK
6
CONTINUOUS
10
5.57579
20
-6.09041
11
5.57016
21
-6.07916
0
LINE
8
BLACK
6
CONTINUOUS
10
5.57016
20
-6.07916
11
5.56454
21
-6.07354
0
LINE
8
BLACK
6
CONTINUOUS
10
5.56454
20
-6.07354
11
5.55329
21
-6.06791
0
LINE
8
BLACK
6
CONTINUOUS
10
5.55329
20
-6.06791
11
5.53079
21
-6.06791
0
LINE
8
BLACK
6
CONTINUOUS
10
5.53079
20
-6.06791
11
5.51954
21
-6.07354
0
LINE
8
BLACK
6
CONTINUOUS
10
5.51954
20
-6.07354
11
5.51392
21
-6.07916
0
LINE
8
BLACK
6
CONTINUOUS
10
5.51392
20
-6.07916
11
5.5083
21
-6.09041
0
LINE
8
BLACK
6
CONTINUOUS
10
5.67702
20
-6.02292
11
5.65453
21
-6.02292
0
LINE
8
BLACK
6
CONTINUOUS
10
5.65453
20
-6.02292
11
5.64328
21
-6.02854
0
LINE
8
BLACK
6
CONTINUOUS
10
5.64328
20
-6.02854
11
5.63765
21
-6.03417
0
LINE
8
BLACK
6
CONTINUOUS
10
5.63765
20
-6.03417
11
5.62641
21
-6.05104
0
LINE
8
BLACK
6
CONTINUOUS
10
5.62641
20
-6.05104
11
5.62078
21
-6.07354
0
LINE
8
BLACK
6
CONTINUOUS
10
5.62078
20
-6.07354
11
5.62078
21
-6.11853
0
LINE
8
BLACK
6
CONTINUOUS
10
5.62078
20
-6.11853
11
5.62641
21
-6.12978
0
LINE
8
BLACK
6
CONTINUOUS
10
5.62641
20
-6.12978
11
5.63203
21
-6.1354
0
LINE
8
BLACK
6
CONTINUOUS
10
5.63203
20
-6.1354
11
5.64328
21
-6.14103
0
LINE
8
BLACK
6
CONTINUOUS
10
5.64328
20
-6.14103
11
5.66578
21
-6.14103
0
LINE
8
BLACK
6
CONTINUOUS
10
5.66578
20
-6.14103
11
5.67702
21
-6.1354
0
LINE
8
BLACK
6
CONTINUOUS
10
5.67702
20
-6.1354
11
5.68265
21
-6.12978
0
LINE
8
BLACK
6
CONTINUOUS
10
5.68265
20
-6.12978
11
5.68827
21
-6.11853
0
LINE
8
BLACK
6
CONTINUOUS
10
5.68827
20
-6.11853
11
5.68827
21
-6.09041
0
LINE
8
BLACK
6
CONTINUOUS
10
5.68827
20
-6.09041
11
5.68265
21
-6.07916
0
LINE
8
BLACK
6
CONTINUOUS
10
5.68265
20
-6.07916
11
5.67702
21
-6.07354
0
LINE
8
BLACK
6
CONTINUOUS
10
5.67702
20
-6.07354
11
5.66578
21
-6.06791
0
LINE
8
BLACK
6
CONTINUOUS
10
5.66578
20
-6.06791
11
5.64328
21
-6.06791
0
LINE
8
BLACK
6
CONTINUOUS
10
5.64328
20
-6.06791
11
5.63203
21
-6.07354
0
LINE
8
BLACK
6
CONTINUOUS
10
5.63203
20
-6.07354
11
5.62641
21
-6.07916
0
LINE
8
BLACK
6
CONTINUOUS
10
5.62641
20
-6.07916
11
5.62078
21
-6.09041
0
LINE
8
BLACK
6
CONTINUOUS
10
5.74452
20
-6.14103
11
5.76701
21
-6.14103
0
LINE
8
BLACK
6
CONTINUOUS
10
5.76701
20
-6.14103
11
5.77826
21
-6.1354
0
LINE
8
BLACK
6
CONTINUOUS
10
5.77826
20
-6.1354
11
5.78389
21
-6.12978
0
LINE
8
BLACK
6
CONTINUOUS
10
5.78389
20
-6.12978
11
5.79513
21
-6.11291
0
LINE
8
BLACK
6
CONTINUOUS
10
5.79513
20
-6.11291
11
5.80076
21
-6.09041
0
LINE
8
BLACK
6
CONTINUOUS
10
5.80076
20
-6.09041
11
5.80076
21
-6.04542
0
LINE
8
BLACK
6
CONTINUOUS
10
5.80076
20
-6.04542
11
5.79513
21
-6.03417
0
LINE
8
BLACK
6
CONTINUOUS
10
5.79513
20
-6.03417
11
5.78951
21
-6.02854
0
LINE
8
BLACK
6
CONTINUOUS
10
5.78951
20
-6.02854
11
5.77826
21
-6.02292
0
LINE
8
BLACK
6
CONTINUOUS
10
5.77826
20
-6.02292
11
5.75576
21
-6.02292
0
LINE
8
BLACK
6
CONTINUOUS
10
5.75576
20
-6.02292
11
5.74452
21
-6.02854
0
LINE
8
BLACK
6
CONTINUOUS
10
5.74452
20
-6.02854
11
5.73889
21
-6.03417
0
LINE
8
BLACK
6
CONTINUOUS
10
5.73889
20
-6.03417
11
5.73327
21
-6.04542
0
LINE
8
BLACK
6
CONTINUOUS
10
5.73327
20
-6.04542
11
5.73327
21
-6.07354
0
LINE
8
BLACK
6
CONTINUOUS
10
5.73327
20
-6.07354
11
5.73889
21
-6.08479
0
LINE
8
BLACK
6
CONTINUOUS
10
5.73889
20
-6.08479
11
5.74452
21
-6.09041
0
LINE
8
BLACK
6
CONTINUOUS
10
5.74452
20
-6.09041
11
5.75576
21
-6.09603
0
LINE
8
BLACK
6
CONTINUOUS
10
5.75576
20
-6.09603
11
5.77826
21
-6.09603
0
LINE
8
BLACK
6
CONTINUOUS
10
5.77826
20
-6.09603
11
5.78951
21
-6.09041
0
LINE
8
BLACK
6
CONTINUOUS
10
5.78951
20
-6.09041
11
5.79513
21
-6.08479
0
LINE
8
BLACK
6
CONTINUOUS
10
5.79513
20
-6.08479
11
5.80076
21
-6.07354
0
LINE
8
BLACK
6
CONTINUOUS
10
5.84575
20
-6.02292
11
5.84575
21
-6.04542
0
LINE
8
BLACK
6
CONTINUOUS
10
5.89075
20
-6.02292
11
5.89075
21
-6.04542
0
LINE
8
BLACK
6
CONTINUOUS
10
6.0651
20
-6.18602
11
6.05948
21
-6.1804
0
LINE
8
BLACK
6
CONTINUOUS
10
6.05948
20
-6.1804
11
6.04823
21
-6.16353
0
LINE
8
BLACK
6
CONTINUOUS
10
6.04823
20
-6.16353
11
6.0426
21
-6.15228
0
LINE
8
BLACK
6
CONTINUOUS
10
6.0426
20
-6.15228
11
6.03698
21
-6.1354
0
LINE
8
BLACK
6
CONTINUOUS
10
6.03698
20
-6.1354
11
6.03136
21
-6.10728
0
LINE
8
BLACK
6
CONTINUOUS
10
6.03136
20
-6.10728
11
6.03136
21
-6.08479
0
LINE
8
BLACK
6
CONTINUOUS
10
6.03136
20
-6.08479
11
6.03698
21
-6.05666
0
LINE
8
BLACK
6
CONTINUOUS
10
6.03698
20
-6.05666
11
6.0426
21
-6.03979
0
LINE
8
BLACK
6
CONTINUOUS
10
6.0426
20
-6.03979
11
6.04823
21
-6.02854
0
LINE
8
BLACK
6
CONTINUOUS
10
6.04823
20
-6.02854
11
6.05948
21
-6.01167
0
LINE
8
BLACK
6
CONTINUOUS
10
6.05948
20
-6.01167
11
6.0651
21
-6.00605
0
LINE
8
BLACK
6
CONTINUOUS
10
6.09885
20
-6.02292
11
6.17196
21
-6.02292
0
LINE
8
BLACK
6
CONTINUOUS
10
6.17196
20
-6.02292
11
6.13259
21
-6.06791
0
LINE
8
BLACK
6
CONTINUOUS
10
6.13259
20
-6.06791
11
6.14947
21
-6.06791
0
LINE
8
BLACK
6
CONTINUOUS
10
6.14947
20
-6.06791
11
6.16071
21
-6.07354
0
LINE
8
BLACK
6
CONTINUOUS
10
6.16071
20
-6.07354
11
6.16634
21
-6.07916
0
LINE
8
BLACK
6
CONTINUOUS
10
6.16634
20
-6.07916
11
6.17196
21
-6.09041
0
LINE
8
BLACK
6
CONTINUOUS
10
6.17196
20
-6.09041
11
6.17196
21
-6.11853
0
LINE
8
BLACK
6
CONTINUOUS
10
6.17196
20
-6.11853
11
6.16634
21
-6.12978
0
LINE
8
BLACK
6
CONTINUOUS
10
6.16634
20
-6.12978
11
6.16071
21
-6.1354
0
LINE
8
BLACK
6
CONTINUOUS
10
6.16071
20
-6.1354
11
6.14947
21
-6.14103
0
LINE
8
BLACK
6
CONTINUOUS
10
6.14947
20
-6.14103
11
6.11572
21
-6.14103
0
LINE
8
BLACK
6
CONTINUOUS
10
6.11572
20
-6.14103
11
6.10447
21
-6.1354
0
LINE
8
BLACK
6
CONTINUOUS
10
6.10447
20
-6.1354
11
6.09885
21
-6.12978
0
LINE
8
BLACK
6
CONTINUOUS
10
6.21696
20
-6.03417
11
6.22258
21
-6.02854
0
LINE
8
BLACK
6
CONTINUOUS
10
6.22258
20
-6.02854
11
6.23383
21
-6.02292
0
LINE
8
BLACK
6
CONTINUOUS
10
6.23383
20
-6.02292
11
6.26195
21
-6.02292
0
LINE
8
BLACK
6
CONTINUOUS
10
6.26195
20
-6.02292
11
6.2732
21
-6.02854
0
LINE
8
BLACK
6
CONTINUOUS
10
6.2732
20
-6.02854
11
6.27882
21
-6.03417
0
LINE
8
BLACK
6
CONTINUOUS
10
6.27882
20
-6.03417
11
6.28445
21
-6.04542
0
LINE
8
BLACK
6
CONTINUOUS
10
6.28445
20
-6.04542
11
6.28445
21
-6.05666
0
LINE
8
BLACK
6
CONTINUOUS
10
6.28445
20
-6.05666
11
6.27882
21
-6.07354
0
LINE
8
BLACK
6
CONTINUOUS
10
6.27882
20
-6.07354
11
6.21133
21
-6.14103
0
LINE
8
BLACK
6
CONTINUOUS
10
6.21133
20
-6.14103
11
6.28445
21
-6.14103
0
LINE
8
BLACK
6
CONTINUOUS
10
6.42506
20
-6.14103
11
6.42506
21
-6.02292
0
LINE
8
BLACK
6
CONTINUOUS
10
6.47567
20
-6.14103
11
6.47567
21
-6.07916
0
LINE
8
BLACK
6
CONTINUOUS
10
6.47567
20
-6.07916
11
6.47005
21
-6.06791
0
LINE
8
BLACK
6
CONTINUOUS
10
6.47005
20
-6.06791
11
6.4588
21
-6.06229
0
LINE
8
BLACK
6
CONTINUOUS
10
6.4588
20
-6.06229
11
6.44193
21
-6.06229
0
LINE
8
BLACK
6
CONTINUOUS
10
6.44193
20
-6.06229
11
6.43068
21
-6.06791
0
LINE
8
BLACK
6
CONTINUOUS
10
6.43068
20
-6.06791
11
6.42506
21
-6.07354
0
LINE
8
BLACK
6
CONTINUOUS
10
6.54879
20
-6.14103
11
6.53754
21
-6.1354
0
LINE
8
BLACK
6
CONTINUOUS
10
6.53754
20
-6.1354
11
6.53192
21
-6.12978
0
LINE
8
BLACK
6
CONTINUOUS
10
6.53192
20
-6.12978
11
6.52629
21
-6.11853
0
LINE
8
BLACK
6
CONTINUOUS
10
6.52629
20
-6.11853
11
6.52629
21
-6.08479
0
LINE
8
BLACK
6
CONTINUOUS
10
6.52629
20
-6.08479
11
6.53192
21
-6.07354
0
LINE
8
BLACK
6
CONTINUOUS
10
6.53192
20
-6.07354
11
6.53754
21
-6.06791
0
LINE
8
BLACK
6
CONTINUOUS
10
6.53754
20
-6.06791
11
6.54879
21
-6.06229
0
LINE
8
BLACK
6
CONTINUOUS
10
6.54879
20
-6.06229
11
6.56566
21
-6.06229
0
LINE
8
BLACK
6
CONTINUOUS
10
6.56566
20
-6.06229
11
6.57691
21
-6.06791
0
LINE
8
BLACK
6
CONTINUOUS
10
6.57691
20
-6.06791
11
6.58254
21
-6.07354
0
LINE
8
BLACK
6
CONTINUOUS
10
6.58254
20
-6.07354
11
6.58816
21
-6.08479
0
LINE
8
BLACK
6
CONTINUOUS
10
6.58816
20
-6.08479
11
6.58816
21
-6.11853
0
LINE
8
BLACK
6
CONTINUOUS
10
6.58816
20
-6.11853
11
6.58254
21
-6.12978
0
LINE
8
BLACK
6
CONTINUOUS
10
6.58254
20
-6.12978
11
6.57691
21
-6.1354
0
LINE
8
BLACK
6
CONTINUOUS
10
6.57691
20
-6.1354
11
6.56566
21
-6.14103
0
LINE
8
BLACK
6
CONTINUOUS
10
6.56566
20
-6.14103
11
6.54879
21
-6.14103
0
LINE
8
BLACK
6
CONTINUOUS
10
6.65565
20
-6.14103
11
6.6444
21
-6.1354
0
LINE
8
BLACK
6
CONTINUOUS
10
6.6444
20
-6.1354
11
6.63878
21
-6.12416
0
LINE
8
BLACK
6
CONTINUOUS
10
6.63878
20
-6.12416
11
6.63878
21
-6.02292
0
LINE
8
BLACK
6
CONTINUOUS
10
6.74564
20
-6.1354
11
6.73439
21
-6.14103
0
LINE
8
BLACK
6
CONTINUOUS
10
6.73439
20
-6.14103
11
6.7119
21
-6.14103
0
LINE
8
BLACK
6
CONTINUOUS
10
6.7119
20
-6.14103
11
6.70065
21
-6.1354
0
LINE
8
BLACK
6
CONTINUOUS
10
6.70065
20
-6.1354
11
6.69502
21
-6.12416
0
LINE
8
BLACK
6
CONTINUOUS
10
6.69502
20
-6.12416
11
6.69502
21
-6.07916
0
LINE
8
BLACK
6
CONTINUOUS
10
6.69502
20
-6.07916
11
6.70065
21
-6.06791
0
LINE
8
BLACK
6
CONTINUOUS
10
6.70065
20
-6.06791
11
6.7119
21
-6.06229
0
LINE
8
BLACK
6
CONTINUOUS
10
6.7119
20
-6.06229
11
6.73439
21
-6.06229
0
LINE
8
BLACK
6
CONTINUOUS
10
6.73439
20
-6.06229
11
6.74564
21
-6.06791
0
LINE
8
BLACK
6
CONTINUOUS
10
6.74564
20
-6.06791
11
6.75127
21
-6.07916
0
LINE
8
BLACK
6
CONTINUOUS
10
6.75127
20
-6.07916
11
6.75127
21
-6.09041
0
LINE
8
BLACK
6
CONTINUOUS
10
6.75127
20
-6.09041
11
6.69502
21
-6.10166
0
LINE
8
BLACK
6
CONTINUOUS
10
6.79626
20
-6.1354
11
6.80751
21
-6.14103
0
LINE
8
BLACK
6
CONTINUOUS
10
6.80751
20
-6.14103
11
6.83001
21
-6.14103
0
LINE
8
BLACK
6
CONTINUOUS
10
6.83001
20
-6.14103
11
6.84125
21
-6.1354
0
LINE
8
BLACK
6
CONTINUOUS
10
6.84125
20
-6.1354
11
6.84688
21
-6.12416
0
LINE
8
BLACK
6
CONTINUOUS
10
6.84688
20
-6.12416
11
6.84688
21
-6.11853
0
LINE
8
BLACK
6
CONTINUOUS
10
6.84688
20
-6.11853
11
6.84125
21
-6.10728
0
LINE
8
BLACK
6
CONTINUOUS
10
6.84125
20
-6.10728
11
6.83001
21
-6.10166
0
LINE
8
BLACK
6
CONTINUOUS
10
6.83001
20
-6.10166
11
6.81313
21
-6.10166
0
LINE
8
BLACK
6
CONTINUOUS
10
6.81313
20
-6.10166
11
6.80188
21
-6.09603
0
LINE
8
BLACK
6
CONTINUOUS
10
6.80188
20
-6.09603
11
6.79626
21
-6.08479
0
LINE
8
BLACK
6
CONTINUOUS
10
6.79626
20
-6.08479
11
6.79626
21
-6.07916
0
LINE
8
BLACK
6
CONTINUOUS
10
6.79626
20
-6.07916
11
6.80188
21
-6.06791
0
LINE
8
BLACK
6
CONTINUOUS
10
6.80188
20
-6.06791
11
6.81313
21
-6.06229
0
LINE
8
BLACK
6
CONTINUOUS
10
6.81313
20
-6.06229
11
6.83001
21
-6.06229
0
LINE
8
BLACK
6
CONTINUOUS
10
6.83001
20
-6.06229
11
6.84125
21
-6.06791
0
LINE
8
BLACK
6
CONTINUOUS
10
6.88625
20
-6.18602
11
6.89187
21
-6.1804
0
LINE
8
BLACK
6
CONTINUOUS
10
6.89187
20
-6.1804
11
6.90312
21
-6.16353
0
LINE
8
BLACK
6
CONTINUOUS
10
6.90312
20
-6.16353
11
6.90875
21
-6.15228
0
LINE
8
BLACK
6
CONTINUOUS
10
6.90875
20
-6.15228
11
6.91437
21
-6.1354
0
LINE
8
BLACK
6
CONTINUOUS
10
6.91437
20
-6.1354
11
6.91999
21
-6.10728
0
LINE
8
BLACK
6
CONTINUOUS
10
6.91999
20
-6.10728
11
6.91999
21
-6.08479
0
LINE
8
BLACK
6
CONTINUOUS
10
6.91999
20
-6.08479
11
6.91437
21
-6.05666
0
LINE
8
BLACK
6
CONTINUOUS
10
6.91437
20
-6.05666
11
6.90875
21
-6.03979
0
LINE
8
BLACK
6
CONTINUOUS
10
6.90875
20
-6.03979
11
6.90312
21
-6.02854
0
LINE
8
BLACK
6
CONTINUOUS
10
6.90312
20
-6.02854
11
6.89187
21
-6.01167
0
LINE
8
BLACK
6
CONTINUOUS
10
6.89187
20
-6.01167
11
6.88625
21
-6.00605
0
LINE
8
BLACK
6
CONTINUOUS
10
7.09997
20
-6.18602
11
7.09435
21
-6.1804
0
LINE
8
BLACK
6
CONTINUOUS
10
7.09435
20
-6.1804
11
7.0831
21
-6.16353
0
LINE
8
BLACK
6
CONTINUOUS
10
7.0831
20
-6.16353
11
7.07747
21
-6.15228
0
LINE
8
BLACK
6
CONTINUOUS
10
7.07747
20
-6.15228
11
7.07185
21
-6.1354
0
LINE
8
BLACK
6
CONTINUOUS
10
7.07185
20
-6.1354
11
7.06623
21
-6.10728
0
LINE
8
BLACK
6
CONTINUOUS
10
7.06623
20
-6.10728
11
7.06623
21
-6.08479
0
LINE
8
BLACK
6
CONTINUOUS
10
7.06623
20
-6.08479
11
7.07185
21
-6.05666
0
LINE
8
BLACK
6
CONTINUOUS
10
7.07185
20
-6.05666
11
7.07747
21
-6.03979
0
LINE
8
BLACK
6
CONTINUOUS
10
7.07747
20
-6.03979
11
7.0831
21
-6.02854
0
LINE
8
BLACK
6
CONTINUOUS
10
7.0831
20
-6.02854
11
7.09435
21
-6.01167
0
LINE
8
BLACK
6
CONTINUOUS
10
7.09435
20
-6.01167
11
7.09997
21
-6.00605
0
LINE
8
BLACK
6
CONTINUOUS
10
7.14497
20
-6.06229
11
7.14497
21
-6.14103
0
LINE
8
BLACK
6
CONTINUOUS
10
7.14497
20
-6.07354
11
7.15059
21
-6.06791
0
LINE
8
BLACK
6
CONTINUOUS
10
7.15059
20
-6.06791
11
7.16184
21
-6.06229
0
LINE
8
BLACK
6
CONTINUOUS
10
7.16184
20
-6.06229
11
7.17871
21
-6.06229
0
LINE
8
BLACK
6
CONTINUOUS
10
7.17871
20
-6.06229
11
7.18996
21
-6.06791
0
LINE
8
BLACK
6
CONTINUOUS
10
7.18996
20
-6.06791
11
7.19558
21
-6.07916
0
LINE
8
BLACK
6
CONTINUOUS
10
7.19558
20
-6.07916
11
7.19558
21
-6.14103
0
LINE
8
BLACK
6
CONTINUOUS
10
7.2687
20
-6.14103
11
7.25745
21
-6.1354
0
LINE
8
BLACK
6
CONTINUOUS
10
7.25745
20
-6.1354
11
7.25183
21
-6.12978
0
LINE
8
BLACK
6
CONTINUOUS
10
7.25183
20
-6.12978
11
7.2462
21
-6.11853
0
LINE
8
BLACK
6
CONTINUOUS
10
7.2462
20
-6.11853
11
7.2462
21
-6.08479
0
LINE
8
BLACK
6
CONTINUOUS
10
7.2462
20
-6.08479
11
7.25183
21
-6.07354
0
LINE
8
BLACK
6
CONTINUOUS
10
7.25183
20
-6.07354
11
7.25745
21
-6.06791
0
LINE
8
BLACK
6
CONTINUOUS
10
7.25745
20
-6.06791
11
7.2687
21
-6.06229
0
LINE
8
BLACK
6
CONTINUOUS
10
7.2687
20
-6.06229
11
7.28557
21
-6.06229
0
LINE
8
BLACK
6
CONTINUOUS
10
7.28557
20
-6.06229
11
7.29682
21
-6.06791
0
LINE
8
BLACK
6
CONTINUOUS
10
7.29682
20
-6.06791
11
7.30245
21
-6.07354
0
LINE
8
BLACK
6
CONTINUOUS
10
7.30245
20
-6.07354
11
7.30807
21
-6.08479
0
LINE
8
BLACK
6
CONTINUOUS
10
7.30807
20
-6.08479
11
7.30807
21
-6.11853
0
LINE
8
BLACK
6
CONTINUOUS
10
7.30807
20
-6.11853
11
7.30245
21
-6.12978
0
LINE
8
BLACK
6
CONTINUOUS
10
7.30245
20
-6.12978
11
7.29682
21
-6.1354
0
LINE
8
BLACK
6
CONTINUOUS
10
7.29682
20
-6.1354
11
7.28557
21
-6.14103
0
LINE
8
BLACK
6
CONTINUOUS
10
7.28557
20
-6.14103
11
7.2687
21
-6.14103
0
LINE
8
BLACK
6
CONTINUOUS
10
7.34182
20
-6.06229
11
7.38681
21
-6.06229
0
LINE
8
BLACK
6
CONTINUOUS
10
7.35869
20
-6.02292
11
7.35869
21
-6.12416
0
LINE
8
BLACK
6
CONTINUOUS
10
7.35869
20
-6.12416
11
7.36431
21
-6.1354
0
LINE
8
BLACK
6
CONTINUOUS
10
7.36431
20
-6.1354
11
7.37556
21
-6.14103
0
LINE
8
BLACK
6
CONTINUOUS
10
7.37556
20
-6.14103
11
7.38681
21
-6.14103
0
LINE
8
BLACK
6
CONTINUOUS
10
7.51617
20
-6.06229
11
7.51617
21
-6.1804
0
LINE
8
BLACK
6
CONTINUOUS
10
7.51617
20
-6.06791
11
7.52742
21
-6.06229
0
LINE
8
BLACK
6
CONTINUOUS
10
7.52742
20
-6.06229
11
7.54992
21
-6.06229
0
LINE
8
BLACK
6
CONTINUOUS
10
7.54992
20
-6.06229
11
7.56116
21
-6.06791
0
LINE
8
BLACK
6
CONTINUOUS
10
7.56116
20
-6.06791
11
7.56679
21
-6.07354
0
LINE
8
BLACK
6
CONTINUOUS
10
7.56679
20
-6.07354
11
7.57241
21
-6.08479
0
LINE
8
BLACK
6
CONTINUOUS
10
7.57241
20
-6.08479
11
7.57241
21
-6.11853
0
LINE
8
BLACK
6
CONTINUOUS
10
7.57241
20
-6.11853
11
7.56679
21
-6.12978
0
LINE
8
BLACK
6
CONTINUOUS
10
7.56679
20
-6.12978
11
7.56116
21
-6.1354
0
LINE
8
BLACK
6
CONTINUOUS
10
7.56116
20
-6.1354
11
7.54992
21
-6.14103
0
LINE
8
BLACK
6
CONTINUOUS
10
7.54992
20
-6.14103
11
7.52742
21
-6.14103
0
LINE
8
BLACK
6
CONTINUOUS
10
7.52742
20
-6.14103
11
7.51617
21
-6.1354
0
LINE
8
BLACK
6
CONTINUOUS
10
7.6399
20
-6.14103
11
7.62866
21
-6.1354
0
LINE
8
BLACK
6
CONTINUOUS
10
7.62866
20
-6.1354
11
7.62303
21
-6.12416
0
LINE
8
BLACK
6
CONTINUOUS
10
7.62303
20
-6.12416
11
7.62303
21
-6.02292
0
LINE
8
BLACK
6
CONTINUOUS
10
7.73552
20
-6.14103
11
7.73552
21
-6.07916
0
LINE
8
BLACK
6
CONTINUOUS
10
7.73552
20
-6.07916
11
7.72989
21
-6.06791
0
LINE
8
BLACK
6
CONTINUOUS
10
7.72989
20
-6.06791
11
7.71864
21
-6.06229
0
LINE
8
BLACK
6
CONTINUOUS
10
7.71864
20
-6.06229
11
7.69615
21
-6.06229
0
LINE
8
BLACK
6
CONTINUOUS
10
7.69615
20
-6.06229
11
7.6849
21
-6.06791
0
LINE
8
BLACK
6
CONTINUOUS
10
7.73552
20
-6.1354
11
7.72427
21
-6.14103
0
LINE
8
BLACK
6
CONTINUOUS
10
7.72427
20
-6.14103
11
7.69615
21
-6.14103
0
LINE
8
BLACK
6
CONTINUOUS
10
7.69615
20
-6.14103
11
7.6849
21
-6.1354
0
LINE
8
BLACK
6
CONTINUOUS
10
7.6849
20
-6.1354
11
7.67927
21
-6.12416
0
LINE
8
BLACK
6
CONTINUOUS
10
7.67927
20
-6.12416
11
7.67927
21
-6.11291
0
LINE
8
BLACK
6
CONTINUOUS
10
7.67927
20
-6.11291
11
7.6849
21
-6.10166
0
LINE
8
BLACK
6
CONTINUOUS
10
7.6849
20
-6.10166
11
7.69615
21
-6.09603
0
LINE
8
BLACK
6
CONTINUOUS
10
7.69615
20
-6.09603
11
7.72427
21
-6.09603
0
LINE
8
BLACK
6
CONTINUOUS
10
7.72427
20
-6.09603
11
7.73552
21
-6.09041
0
LINE
8
BLACK
6
CONTINUOUS
10
7.77489
20
-6.06229
11
7.81988
21
-6.06229
0
LINE
8
BLACK
6
CONTINUOUS
10
7.79176
20
-6.02292
11
7.79176
21
-6.12416
0
LINE
8
BLACK
6
CONTINUOUS
10
7.79176
20
-6.12416
11
7.79738
21
-6.1354
0
LINE
8
BLACK
6
CONTINUOUS
10
7.79738
20
-6.1354
11
7.80863
21
-6.14103
0
LINE
8
BLACK
6
CONTINUOUS
10
7.80863
20
-6.14103
11
7.81988
21
-6.14103
0
LINE
8
BLACK
6
CONTINUOUS
10
7.90425
20
-6.1354
11
7.893
21
-6.14103
0
LINE
8
BLACK
6
CONTINUOUS
10
7.893
20
-6.14103
11
7.8705
21
-6.14103
0
LINE
8
BLACK
6
CONTINUOUS
10
7.8705
20
-6.14103
11
7.85925
21
-6.1354
0
LINE
8
BLACK
6
CONTINUOUS
10
7.85925
20
-6.1354
11
7.85363
21
-6.12416
0
LINE
8
BLACK
6
CONTINUOUS
10
7.85363
20
-6.12416
11
7.85363
21
-6.07916
0
LINE
8
BLACK
6
CONTINUOUS
10
7.85363
20
-6.07916
11
7.85925
21
-6.06791
0
LINE
8
BLACK
6
CONTINUOUS
10
7.85925
20
-6.06791
11
7.8705
21
-6.06229
0
LINE
8
BLACK
6
CONTINUOUS
10
7.8705
20
-6.06229
11
7.893
21
-6.06229
0
LINE
8
BLACK
6
CONTINUOUS
10
7.893
20
-6.06229
11
7.90425
21
-6.06791
0
LINE
8
BLACK
6
CONTINUOUS
10
7.90425
20
-6.06791
11
7.90987
21
-6.07916
0
LINE
8
BLACK
6
CONTINUOUS
10
7.90987
20
-6.07916
11
7.90987
21
-6.09041
0
LINE
8
BLACK
6
CONTINUOUS
10
7.90987
20
-6.09041
11
7.85363
21
-6.10166
0
LINE
8
BLACK
6
CONTINUOUS
10
8.01111
20
-6.14103
11
8.01111
21
-6.02292
0
LINE
8
BLACK
6
CONTINUOUS
10
8.01111
20
-6.1354
11
7.99986
21
-6.14103
0
LINE
8
BLACK
6
CONTINUOUS
10
7.99986
20
-6.14103
11
7.97736
21
-6.14103
0
LINE
8
BLACK
6
CONTINUOUS
10
7.97736
20
-6.14103
11
7.96611
21
-6.1354
0
LINE
8
BLACK
6
CONTINUOUS
10
7.96611
20
-6.1354
11
7.96049
21
-6.12978
0
LINE
8
BLACK
6
CONTINUOUS
10
7.96049
20
-6.12978
11
7.95486
21
-6.11853
0
LINE
8
BLACK
6
CONTINUOUS
10
7.95486
20
-6.11853
11
7.95486
21
-6.08479
0
LINE
8
BLACK
6
CONTINUOUS
10
7.95486
20
-6.08479
11
7.96049
21
-6.07354
0
LINE
8
BLACK
6
CONTINUOUS
10
7.96049
20
-6.07354
11
7.96611
21
-6.06791
0
LINE
8
BLACK
6
CONTINUOUS
10
7.96611
20
-6.06791
11
7.97736
21
-6.06229
0
LINE
8
BLACK
6
CONTINUOUS
10
7.97736
20
-6.06229
11
7.99986
21
-6.06229
0
LINE
8
BLACK
6
CONTINUOUS
10
7.99986
20
-6.06229
11
8.01111
21
-6.06791
0
LINE
8
BLACK
6
CONTINUOUS
10
8.0561
20
-6.18602
11
8.06173
21
-6.1804
0
LINE
8
BLACK
6
CONTINUOUS
10
8.06173
20
-6.1804
11
8.07298
21
-6.16353
0
LINE
8
BLACK
6
CONTINUOUS
10
8.07298
20
-6.16353
11
8.0786
21
-6.15228
0
LINE
8
BLACK
6
CONTINUOUS
10
8.0786
20
-6.15228
11
8.08422
21
-6.1354
0
LINE
8
BLACK
6
CONTINUOUS
10
8.08422
20
-6.1354
11
8.08985
21
-6.10728
0
LINE
8
BLACK
6
CONTINUOUS
10
8.08985
20
-6.10728
11
8.08985
21
-6.08479
0
LINE
8
BLACK
6
CONTINUOUS
10
8.08985
20
-6.08479
11
8.08422
21
-6.05666
0
LINE
8
BLACK
6
CONTINUOUS
10
8.08422
20
-6.05666
11
8.0786
21
-6.03979
0
LINE
8
BLACK
6
CONTINUOUS
10
8.0786
20
-6.03979
11
8.07298
21
-6.02854
0
LINE
8
BLACK
6
CONTINUOUS
10
8.07298
20
-6.02854
11
8.06173
21
-6.01167
0
LINE
8
BLACK
6
CONTINUOUS
10
8.06173
20
-6.01167
11
8.0561
21
-6.00605
0
CIRCLE
8
BLACK
10
3.91634
20
-6.2435
40
0.0787402
0
LINE
8
BLACK
6
CONTINUOUS
10
4.15846
20
-6.21819
11
4.15846
21
-6.29693
0
LINE
8
BLACK
6
CONTINUOUS
10
4.13034
20
-6.1732
11
4.10222
21
-6.25756
0
LINE
8
BLACK
6
CONTINUOUS
10
4.10222
20
-6.25756
11
4.17534
21
-6.25756
0
LINE
8
BLACK
6
CONTINUOUS
10
4.22033
20
-6.28569
11
4.22596
21
-6.29131
0
LINE
8
BLACK
6
CONTINUOUS
10
4.22596
20
-6.29131
11
4.22033
21
-6.29693
0
LINE
8
BLACK
6
CONTINUOUS
10
4.22033
20
-6.29693
11
4.21471
21
-6.29131
0
LINE
8
BLACK
6
CONTINUOUS
10
4.21471
20
-6.29131
11
4.22033
21
-6.28569
0
LINE
8
BLACK
6
CONTINUOUS
10
4.22033
20
-6.28569
11
4.22033
21
-6.29693
0
LINE
8
BLACK
6
CONTINUOUS
10
4.29907
20
-6.17882
11
4.31032
21
-6.17882
0
LINE
8
BLACK
6
CONTINUOUS
10
4.31032
20
-6.17882
11
4.32157
21
-6.18445
0
LINE
8
BLACK
6
CONTINUOUS
10
4.32157
20
-6.18445
11
4.32719
21
-6.19007
0
LINE
8
BLACK
6
CONTINUOUS
10
4.32719
20
-6.19007
11
4.33282
21
-6.20132
0
LINE
8
BLACK
6
CONTINUOUS
10
4.33282
20
-6.20132
11
4.33844
21
-6.22382
0
LINE
8
BLACK
6
CONTINUOUS
10
4.33844
20
-6.22382
11
4.33844
21
-6.25194
0
LINE
8
BLACK
6
CONTINUOUS
10
4.33844
20
-6.25194
11
4.33282
21
-6.27444
0
LINE
8
BLACK
6
CONTINUOUS
10
4.33282
20
-6.27444
11
4.32719
21
-6.28569
0
LINE
8
BLACK
6
CONTINUOUS
10
4.32719
20
-6.28569
11
4.32157
21
-6.29131
0
LINE
8
BLACK
6
CONTINUOUS
10
4.32157
20
-6.29131
11
4.31032
21
-6.29693
0
LINE
8
BLACK
6
CONTINUOUS
10
4.31032
20
-6.29693
11
4.29907
21
-6.29693
0
LINE
8
BLACK
6
CONTINUOUS
10
4.29907
20
-6.29693
11
4.28782
21
-6.29131
0
LINE
8
BLACK
6
CONTINUOUS
10
4.28782
20
-6.29131
11
4.2822
21
-6.28569
0
LINE
8
BLACK
6
CONTINUOUS
10
4.2822
20
-6.28569
11
4.27657
21
-6.27444
0
LINE
8
BLACK
6
CONTINUOUS
10
4.27657
20
-6.27444
11
4.27095
21
-6.25194
0
LINE
8
BLACK
6
CONTINUOUS
10
4.27095
20
-6.25194
11
4.27095
21
-6.22382
0
LINE
8
BLACK
6
CONTINUOUS
10
4.27095
20
-6.22382
11
4.27657
21
-6.20132
0
LINE
8
BLACK
6
CONTINUOUS
10
4.27657
20
-6.20132
11
4.2822
21
-6.19007
0
LINE
8
BLACK
6
CONTINUOUS
10
4.2822
20
-6.19007
11
4.28782
21
-6.18445
0
LINE
8
BLACK
6
CONTINUOUS
10
4.28782
20
-6.18445
11
4.29907
21
-6.17882
0
LINE
8
BLACK
6
CONTINUOUS
10
4.41156
20
-6.17882
11
4.42281
21
-6.17882
0
LINE
8
BLACK
6
CONTINUOUS
10
4.42281
20
-6.17882
11
4.43406
21
-6.18445
0
LINE
8
BLACK
6
CONTINUOUS
10
4.43406
20
-6.18445
11
4.43968
21
-6.19007
0
LINE
8
BLACK
6
CONTINUOUS
10
4.43968
20
-6.19007
11
4.4453
21
-6.20132
0
LINE
8
BLACK
6
CONTINUOUS
10
4.4453
20
-6.20132
11
4.45093
21
-6.22382
0
LINE
8
BLACK
6
CONTINUOUS
10
4.45093
20
-6.22382
11
4.45093
21
-6.25194
0
LINE
8
BLACK
6
CONTINUOUS
10
4.45093
20
-6.25194
11
4.4453
21
-6.27444
0
LINE
8
BLACK
6
CONTINUOUS
10
4.4453
20
-6.27444
11
4.43968
21
-6.28569
0
LINE
8
BLACK
6
CONTINUOUS
10
4.43968
20
-6.28569
11
4.43406
21
-6.29131
0
LINE
8
BLACK
6
CONTINUOUS
10
4.43406
20
-6.29131
11
4.42281
21
-6.29693
0
LINE
8
BLACK
6
CONTINUOUS
10
4.42281
20
-6.29693
11
4.41156
21
-6.29693
0
LINE
8
BLACK
6
CONTINUOUS
10
4.41156
20
-6.29693
11
4.40031
21
-6.29131
0
LINE
8
BLACK
6
CONTINUOUS
10
4.40031
20
-6.29131
11
4.39468
21
-6.28569
0
LINE
8
BLACK
6
CONTINUOUS
10
4.39468
20
-6.28569
11
4.38906
21
-6.27444
0
LINE
8
BLACK
6
CONTINUOUS
10
4.38906
20
-6.27444
11
4.38344
21
-6.25194
0
LINE
8
BLACK
6
CONTINUOUS
10
4.38344
20
-6.25194
11
4.38344
21
-6.22382
0
LINE
8
BLACK
6
CONTINUOUS
10
4.38344
20
-6.22382
11
4.38906
21
-6.20132
0
LINE
8
BLACK
6
CONTINUOUS
10
4.38906
20
-6.20132
11
4.39468
21
-6.19007
0
LINE
8
BLACK
6
CONTINUOUS
10
4.39468
20
-6.19007
11
4.40031
21
-6.18445
0
LINE
8
BLACK
6
CONTINUOUS
10
4.40031
20
-6.18445
11
4.41156
21
-6.17882
0
LINE
8
BLACK
6
CONTINUOUS
10
4.52404
20
-6.17882
11
4.53529
21
-6.17882
0
LINE
8
BLACK
6
CONTINUOUS
10
4.53529
20
-6.17882
11
4.54654
21
-6.18445
0
LINE
8
BLACK
6
CONTINUOUS
10
4.54654
20
-6.18445
11
4.55217
21
-6.19007
0
LINE
8
BLACK
6
CONTINUOUS
10
4.55217
20
-6.19007
11
4.55779
21
-6.20132
0
LINE
8
BLACK
6
CONTINUOUS
10
4.55779
20
-6.20132
11
4.56341
21
-6.22382
0
LINE
8
BLACK
6
CONTINUOUS
10
4.56341
20
-6.22382
11
4.56341
21
-6.25194
0
LINE
8
BLACK
6
CONTINUOUS
10
4.56341
20
-6.25194
11
4.55779
21
-6.27444
0
LINE
8
BLACK
6
CONTINUOUS
10
4.55779
20
-6.27444
11
4.55217
21
-6.28569
0
LINE
8
BLACK
6
CONTINUOUS
10
4.55217
20
-6.28569
11
4.54654
21
-6.29131
0
LINE
8
BLACK
6
CONTINUOUS
10
4.54654
20
-6.29131
11
4.53529
21
-6.29693
0
LINE
8
BLACK
6
CONTINUOUS
10
4.53529
20
-6.29693
11
4.52404
21
-6.29693
0
LINE
8
BLACK
6
CONTINUOUS
10
4.52404
20
-6.29693
11
4.5128
21
-6.29131
0
LINE
8
BLACK
6
CONTINUOUS
10
4.5128
20
-6.29131
11
4.50717
21
-6.28569
0
LINE
8
BLACK
6
CONTINUOUS
10
4.50717
20
-6.28569
11
4.50155
21
-6.27444
0
LINE
8
BLACK
6
CONTINUOUS
10
4.50155
20
-6.27444
11
4.49592
21
-6.25194
0
LINE
8
BLACK
6
CONTINUOUS
10
4.49592
20
-6.25194
11
4.49592
21
-6.22382
0
LINE
8
BLACK
6
CONTINUOUS
10
4.49592
20
-6.22382
11
4.50155
21
-6.20132
0
LINE
8
BLACK
6
CONTINUOUS
10
4.50155
20
-6.20132
11
4.50717
21
-6.19007
0
LINE
8
BLACK
6
CONTINUOUS
10
4.50717
20
-6.19007
11
4.5128
21
-6.18445
0
LINE
8
BLACK
6
CONTINUOUS
10
4.5128
20
-6.18445
11
4.52404
21
-6.17882
0
LINE
8
BLACK
6
CONTINUOUS
10
4.61403
20
-6.29693
11
4.61403
21
-6.21819
0
LINE
8
BLACK
6
CONTINUOUS
10
4.61403
20
-6.22944
11
4.61966
21
-6.22382
0
LINE
8
BLACK
6
CONTINUOUS
10
4.61966
20
-6.22382
11
4.63091
21
-6.21819
0
LINE
8
BLACK
6
CONTINUOUS
10
4.63091
20
-6.21819
11
4.64778
21
-6.21819
0
LINE
8
BLACK
6
CONTINUOUS
10
4.64778
20
-6.21819
11
4.65903
21
-6.22382
0
LINE
8
BLACK
6
CONTINUOUS
10
4.65903
20
-6.22382
11
4.66465
21
-6.23507
0
LINE
8
BLACK
6
CONTINUOUS
10
4.66465
20
-6.23507
11
4.66465
21
-6.29693
0
LINE
8
BLACK
6
CONTINUOUS
10
4.66465
20
-6.23507
11
4.67028
21
-6.22382
0
LINE
8
BLACK
6
CONTINUOUS
10
4.67028
20
-6.22382
11
4.68152
21
-6.21819
0
LINE
8
BLACK
6
CONTINUOUS
10
4.68152
20
-6.21819
11
4.6984
21
-6.21819
0
LINE
8
BLACK
6
CONTINUOUS
10
4.6984
20
-6.21819
11
4.70965
21
-6.22382
0
LINE
8
BLACK
6
CONTINUOUS
10
4.70965
20
-6.22382
11
4.71527
21
-6.23507
0
LINE
8
BLACK
6
CONTINUOUS
10
4.71527
20
-6.23507
11
4.71527
21
-6.29693
0
LINE
8
BLACK
6
CONTINUOUS
10
4.77151
20
-6.29693
11
4.77151
21
-6.21819
0
LINE
8
BLACK
6
CONTINUOUS
10
4.77151
20
-6.22944
11
4.77714
21
-6.22382
0
LINE
8
BLACK
6
CONTINUOUS
10
4.77714
20
-6.22382
11
4.78839
21
-6.21819
0
LINE
8
BLACK
6
CONTINUOUS
10
4.78839
20
-6.21819
11
4.80526
21
-6.21819
0
LINE
8
BLACK
6
CONTINUOUS
10
4.80526
20
-6.21819
11
4.81651
21
-6.22382
0
LINE
8
BLACK
6
CONTINUOUS
10
4.81651
20
-6.22382
11
4.82213
21
-6.23507
0
LINE
8
BLACK
6
CONTINUOUS
10
4.82213
20
-6.23507
11
4.82213
21
-6.29693
0
LINE
8
BLACK
6
CONTINUOUS
10
4.82213
20
-6.23507
11
4.82776
21
-6.22382
0
LINE
8
BLACK
6
CONTINUOUS
10
4.82776
20
-6.22382
11
4.839
21
-6.21819
0
LINE
8
BLACK
6
CONTINUOUS
10
4.839
20
-6.21819
11
4.85588
21
-6.21819
0
LINE
8
BLACK
6
CONTINUOUS
10
4.85588
20
-6.21819
11
4.86713
21
-6.22382
0
LINE
8
BLACK
6
CONTINUOUS
10
4.86713
20
-6.22382
11
4.87275
21
-6.23507
0
LINE
8
BLACK
6
CONTINUOUS
10
4.87275
20
-6.23507
11
4.87275
21
-6.29693
0
LINE
8
BLACK
6
CONTINUOUS
10
5.10335
20
-6.1732
11
5.00211
21
-6.32506
0
LINE
8
BLACK
6
CONTINUOUS
10
5.2552
20
-6.17882
11
5.26645
21
-6.17882
0
LINE
8
BLACK
6
CONTINUOUS
10
5.26645
20
-6.17882
11
5.2777
21
-6.18445
0
LINE
8
BLACK
6
CONTINUOUS
10
5.2777
20
-6.18445
11
5.28332
21
-6.19007
0
LINE
8
BLACK
6
CONTINUOUS
10
5.28332
20
-6.19007
11
5.28895
21
-6.20132
0
LINE
8
BLACK
6
CONTINUOUS
10
5.28895
20
-6.20132
11
5.29457
21
-6.22382
0
LINE
8
BLACK
6
CONTINUOUS
10
5.29457
20
-6.22382
11
5.29457
21
-6.25194
0
LINE
8
BLACK
6
CONTINUOUS
10
5.29457
20
-6.25194
11
5.28895
21
-6.27444
0
LINE
8
BLACK
6
CONTINUOUS
10
5.28895
20
-6.27444
11
5.28332
21
-6.28569
0
LINE
8
BLACK
6
CONTINUOUS
10
5.28332
20
-6.28569
11
5.2777
21
-6.29131
0
LINE
8
BLACK
6
CONTINUOUS
10
5.2777
20
-6.29131
11
5.26645
21
-6.29693
0
LINE
8
BLACK
6
CONTINUOUS
10
5.26645
20
-6.29693
11
5.2552
21
-6.29693
0
LINE
8
BLACK
6
CONTINUOUS
10
5.2552
20
-6.29693
11
5.24395
21
-6.29131
0
LINE
8
BLACK
6
CONTINUOUS
10
5.24395
20
-6.29131
11
5.23833
21
-6.28569
0
LINE
8
BLACK
6
CONTINUOUS
10
5.23833
20
-6.28569
11
5.23271
21
-6.27444
0
LINE
8
BLACK
6
CONTINUOUS
10
5.23271
20
-6.27444
11
5.22708
21
-6.25194
0
LINE
8
BLACK
6
CONTINUOUS
10
5.22708
20
-6.25194
11
5.22708
21
-6.22382
0
LINE
8
BLACK
6
CONTINUOUS
10
5.22708
20
-6.22382
11
5.23271
21
-6.20132
0
LINE
8
BLACK
6
CONTINUOUS
10
5.23271
20
-6.20132
11
5.23833
21
-6.19007
0
LINE
8
BLACK
6
CONTINUOUS
10
5.23833
20
-6.19007
11
5.24395
21
-6.18445
0
LINE
8
BLACK
6
CONTINUOUS
10
5.24395
20
-6.18445
11
5.2552
21
-6.17882
0
LINE
8
BLACK
6
CONTINUOUS
10
5.34519
20
-6.28569
11
5.35082
21
-6.29131
0
LINE
8
BLACK
6
CONTINUOUS
10
5.35082
20
-6.29131
11
5.34519
21
-6.29693
0
LINE
8
BLACK
6
CONTINUOUS
10
5.34519
20
-6.29693
11
5.33957
21
-6.29131
0
LINE
8
BLACK
6
CONTINUOUS
10
5.33957
20
-6.29131
11
5.34519
21
-6.28569
0
LINE
8
BLACK
6
CONTINUOUS
10
5.34519
20
-6.28569
11
5.34519
21
-6.29693
0
LINE
8
BLACK
6
CONTINUOUS
10
5.4633
20
-6.29693
11
5.39581
21
-6.29693
0
LINE
8
BLACK
6
CONTINUOUS
10
5.42956
20
-6.29693
11
5.42956
21
-6.17882
0
LINE
8
BLACK
6
CONTINUOUS
10
5.42956
20
-6.17882
11
5.41831
21
-6.1957
0
LINE
8
BLACK
6
CONTINUOUS
10
5.41831
20
-6.1957
11
5.40706
21
-6.20695
0
LINE
8
BLACK
6
CONTINUOUS
10
5.40706
20
-6.20695
11
5.39581
21
-6.21257
0
LINE
8
BLACK
6
CONTINUOUS
10
5.57016
20
-6.17882
11
5.51392
21
-6.17882
0
LINE
8
BLACK
6
CONTINUOUS
10
5.51392
20
-6.17882
11
5.5083
21
-6.23507
0
LINE
8
BLACK
6
CONTINUOUS
10
5.5083
20
-6.23507
11
5.51392
21
-6.22944
0
LINE
8
BLACK
6
CONTINUOUS
10
5.51392
20
-6.22944
11
5.52517
21
-6.22382
0
LINE
8
BLACK
6
CONTINUOUS
10
5.52517
20
-6.22382
11
5.55329
21
-6.22382
0
LINE
8
BLACK
6
CONTINUOUS
10
5.55329
20
-6.22382
11
5.56454
21
-6.22944
0
LINE
8
BLACK
6
CONTINUOUS
10
5.56454
20
-6.22944
11
5.57016
21
-6.23507
0
LINE
8
BLACK
6
CONTINUOUS
10
5.57016
20
-6.23507
11
5.57579
21
-6.24632
0
LINE
8
BLACK
6
CONTINUOUS
10
5.57579
20
-6.24632
11
5.57579
21
-6.27444
0
LINE
8
BLACK
6
CONTINUOUS
10
5.57579
20
-6.27444
11
5.57016
21
-6.28569
0
LINE
8
BLACK
6
CONTINUOUS
10
5.57016
20
-6.28569
11
5.56454
21
-6.29131
0
LINE
8
BLACK
6
CONTINUOUS
10
5.56454
20
-6.29131
11
5.55329
21
-6.29693
0
LINE
8
BLACK
6
CONTINUOUS
10
5.55329
20
-6.29693
11
5.52517
21
-6.29693
0
LINE
8
BLACK
6
CONTINUOUS
10
5.52517
20
-6.29693
11
5.51392
21
-6.29131
0
LINE
8
BLACK
6
CONTINUOUS
10
5.51392
20
-6.29131
11
5.5083
21
-6.28569
0
LINE
8
BLACK
6
CONTINUOUS
10
5.61516
20
-6.17882
11
5.6939
21
-6.17882
0
LINE
8
BLACK
6
CONTINUOUS
10
5.6939
20
-6.17882
11
5.64328
21
-6.29693
0
LINE
8
BLACK
6
CONTINUOUS
10
5.79513
20
-6.17882
11
5.73889
21
-6.17882
0
LINE
8
BLACK
6
CONTINUOUS
10
5.73889
20
-6.17882
11
5.73327
21
-6.23507
0
LINE
8
BLACK
6
CONTINUOUS
10
5.73327
20
-6.23507
11
5.73889
21
-6.22944
0
LINE
8
BLACK
6
CONTINUOUS
10
5.73889
20
-6.22944
11
5.75014
21
-6.22382
0
LINE
8
BLACK
6
CONTINUOUS
10
5.75014
20
-6.22382
11
5.77826
21
-6.22382
0
LINE
8
BLACK
6
CONTINUOUS
10
5.77826
20
-6.22382
11
5.78951
21
-6.22944
0
LINE
8
BLACK
6
CONTINUOUS
10
5.78951
20
-6.22944
11
5.79513
21
-6.23507
0
LINE
8
BLACK
6
CONTINUOUS
10
5.79513
20
-6.23507
11
5.80076
21
-6.24632
0
LINE
8
BLACK
6
CONTINUOUS
10
5.80076
20
-6.24632
11
5.80076
21
-6.27444
0
LINE
8
BLACK
6
CONTINUOUS
10
5.80076
20
-6.27444
11
5.79513
21
-6.28569
0
LINE
8
BLACK
6
CONTINUOUS
10
5.79513
20
-6.28569
11
5.78951
21
-6.29131
0
LINE
8
BLACK
6
CONTINUOUS
10
5.78951
20
-6.29131
11
5.77826
21
-6.29693
0
LINE
8
BLACK
6
CONTINUOUS
10
5.77826
20
-6.29693
11
5.75014
21
-6.29693
0
LINE
8
BLACK
6
CONTINUOUS
10
5.75014
20
-6.29693
11
5.73889
21
-6.29131
0
LINE
8
BLACK
6
CONTINUOUS
10
5.73889
20
-6.29131
11
5.73327
21
-6.28569
0
LINE
8
BLACK
6
CONTINUOUS
10
5.84575
20
-6.17882
11
5.84575
21
-6.20132
0
LINE
8
BLACK
6
CONTINUOUS
10
5.89075
20
-6.17882
11
5.89075
21
-6.20132
0
LINE
8
BLACK
6
CONTINUOUS
10
6.0651
20
-6.34193
11
6.05948
21
-6.3363
0
LINE
8
BLACK
6
CONTINUOUS
10
6.05948
20
-6.3363
11
6.04823
21
-6.31943
0
LINE
8
BLACK
6
CONTINUOUS
10
6.04823
20
-6.31943
11
6.0426
21
-6.30818
0
LINE
8
BLACK
6
CONTINUOUS
10
6.0426
20
-6.30818
11
6.03698
21
-6.29131
0
LINE
8
BLACK
6
CONTINUOUS
10
6.03698
20
-6.29131
11
6.03136
21
-6.26319
0
LINE
8
BLACK
6
CONTINUOUS
10
6.03136
20
-6.26319
11
6.03136
21
-6.24069
0
LINE
8
BLACK
6
CONTINUOUS
10
6.03136
20
-6.24069
11
6.03698
21
-6.21257
0
LINE
8
BLACK
6
CONTINUOUS
10
6.03698
20
-6.21257
11
6.0426
21
-6.1957
0
LINE
8
BLACK
6
CONTINUOUS
10
6.0426
20
-6.1957
11
6.04823
21
-6.18445
0
LINE
8
BLACK
6
CONTINUOUS
10
6.04823
20
-6.18445
11
6.05948
21
-6.16758
0
LINE
8
BLACK
6
CONTINUOUS
10
6.05948
20
-6.16758
11
6.0651
21
-6.16195
0
LINE
8
BLACK
6
CONTINUOUS
10
6.17196
20
-6.29693
11
6.10447
21
-6.29693
0
LINE
8
BLACK
6
CONTINUOUS
10
6.13822
20
-6.29693
11
6.13822
21
-6.17882
0
LINE
8
BLACK
6
CONTINUOUS
10
6.13822
20
-6.17882
11
6.12697
21
-6.1957
0
LINE
8
BLACK
6
CONTINUOUS
10
6.12697
20
-6.1957
11
6.11572
21
-6.20695
0
LINE
8
BLACK
6
CONTINUOUS
10
6.11572
20
-6.20695
11
6.10447
21
-6.21257
0
LINE
8
BLACK
6
CONTINUOUS
10
6.2732
20
-6.17882
11
6.2507
21
-6.17882
0
LINE
8
BLACK
6
CONTINUOUS
10
6.2507
20
-6.17882
11
6.23945
21
-6.18445
0
LINE
8
BLACK
6
CONTINUOUS
10
6.23945
20
-6.18445
11
6.23383
21
-6.19007
0
LINE
8
BLACK
6
CONTINUOUS
10
6.23383
20
-6.19007
11
6.22258
21
-6.20695
0
LINE
8
BLACK
6
CONTINUOUS
10
6.22258
20
-6.20695
11
6.21696
21
-6.22944
0
LINE
8
BLACK
6
CONTINUOUS
10
6.21696
20
-6.22944
11
6.21696
21
-6.27444
0
LINE
8
BLACK
6
CONTINUOUS
10
6.21696
20
-6.27444
11
6.22258
21
-6.28569
0
LINE
8
BLACK
6
CONTINUOUS
10
6.22258
20
-6.28569
11
6.22821
21
-6.29131
0
LINE
8
BLACK
6
CONTINUOUS
10
6.22821
20
-6.29131
11
6.23945
21
-6.29693
0
LINE
8
BLACK
6
CONTINUOUS
10
6.23945
20
-6.29693
11
6.26195
21
-6.29693
0
LINE
8
BLACK
6
CONTINUOUS
10
6.26195
20
-6.29693
11
6.2732
21
-6.29131
0
LINE
8
BLACK
6
CONTINUOUS
10
6.2732
20
-6.29131
11
6.27882
21
-6.28569
0
LINE
8
BLACK
6
CONTINUOUS
10
6.27882
20
-6.28569
11
6.28445
21
-6.27444
0
LINE
8
BLACK
6
CONTINUOUS
10
6.28445
20
-6.27444
11
6.28445
21
-6.24632
0
LINE
8
BLACK
6
CONTINUOUS
10
6.28445
20
-6.24632
11
6.27882
21
-6.23507
0
LINE
8
BLACK
6
CONTINUOUS
10
6.27882
20
-6.23507
11
6.2732
21
-6.22944
0
LINE
8
BLACK
6
CONTINUOUS
10
6.2732
20
-6.22944
11
6.26195
21
-6.22382
0
LINE
8
BLACK
6
CONTINUOUS
10
6.26195
20
-6.22382
11
6.23945
21
-6.22382
0
LINE
8
BLACK
6
CONTINUOUS
10
6.23945
20
-6.22382
11
6.22821
21
-6.22944
0
LINE
8
BLACK
6
CONTINUOUS
10
6.22821
20
-6.22944
11
6.22258
21
-6.23507
0
LINE
8
BLACK
6
CONTINUOUS
10
6.22258
20
-6.23507
11
6.21696
21
-6.24632
0
LINE
8
BLACK
6
CONTINUOUS
10
6.42506
20
-6.29693
11
6.42506
21
-6.17882
0
LINE
8
BLACK
6
CONTINUOUS
10
6.47567
20
-6.29693
11
6.47567
21
-6.23507
0
LINE
8
BLACK
6
CONTINUOUS
10
6.47567
20
-6.23507
11
6.47005
21
-6.22382
0
LINE
8
BLACK
6
CONTINUOUS
10
6.47005
20
-6.22382
11
6.4588
21
-6.21819
0
LINE
8
BLACK
6
CONTINUOUS
10
6.4588
20
-6.21819
11
6.44193
21
-6.21819
0
LINE
8
BLACK
6
CONTINUOUS
10
6.44193
20
-6.21819
11
6.43068
21
-6.22382
0
LINE
8
BLACK
6
CONTINUOUS
10
6.43068
20
-6.22382
11
6.42506
21
-6.22944
0
LINE
8
BLACK
6
CONTINUOUS
10
6.54879
20
-6.29693
11
6.53754
21
-6.29131
0
LINE
8
BLACK
6
CONTINUOUS
10
6.53754
20
-6.29131
11
6.53192
21
-6.28569
0
LINE
8
BLACK
6
CONTINUOUS
10
6.53192
20
-6.28569
11
6.52629
21
-6.27444
0
LINE
8
BLACK
6
CONTINUOUS
10
6.52629
20
-6.27444
11
6.52629
21
-6.24069
0
LINE
8
BLACK
6
CONTINUOUS
10
6.52629
20
-6.24069
11
6.53192
21
-6.22944
0
LINE
8
BLACK
6
CONTINUOUS
10
6.53192
20
-6.22944
11
6.53754
21
-6.22382
0
LINE
8
BLACK
6
CONTINUOUS
10
6.53754
20
-6.22382
11
6.54879
21
-6.21819
0
LINE
8
BLACK
6
CONTINUOUS
10
6.54879
20
-6.21819
11
6.56566
21
-6.21819
0
LINE
8
BLACK
6
CONTINUOUS
10
6.56566
20
-6.21819
11
6.57691
21
-6.22382
0
LINE
8
BLACK
6
CONTINUOUS
10
6.57691
20
-6.22382
11
6.58254
21
-6.22944
0
LINE
8
BLACK
6
CONTINUOUS
10
6.58254
20
-6.22944
11
6.58816
21
-6.24069
0
LINE
8
BLACK
6
CONTINUOUS
10
6.58816
20
-6.24069
11
6.58816
21
-6.27444
0
LINE
8
BLACK
6
CONTINUOUS
10
6.58816
20
-6.27444
11
6.58254
21
-6.28569
0
LINE
8
BLACK
6
CONTINUOUS
10
6.58254
20
-6.28569
11
6.57691
21
-6.29131
0
LINE
8
BLACK
6
CONTINUOUS
10
6.57691
20
-6.29131
11
6.56566
21
-6.29693
0
LINE
8
BLACK
6
CONTINUOUS
10
6.56566
20
-6.29693
11
6.54879
21
-6.29693
0
LINE
8
BLACK
6
CONTINUOUS
10
6.65565
20
-6.29693
11
6.6444
21
-6.29131
0
LINE
8
BLACK
6
CONTINUOUS
10
6.6444
20
-6.29131
11
6.63878
21
-6.28006
0
LINE
8
BLACK
6
CONTINUOUS
10
6.63878
20
-6.28006
11
6.63878
21
-6.17882
0
LINE
8
BLACK
6
CONTINUOUS
10
6.74564
20
-6.29131
11
6.73439
21
-6.29693
0
LINE
8
BLACK
6
CONTINUOUS
10
6.73439
20
-6.29693
11
6.7119
21
-6.29693
0
LINE
8
BLACK
6
CONTINUOUS
10
6.7119
20
-6.29693
11
6.70065
21
-6.29131
0
LINE
8
BLACK
6
CONTINUOUS
10
6.70065
20
-6.29131
11
6.69502
21
-6.28006
0
LINE
8
BLACK
6
CONTINUOUS
10
6.69502
20
-6.28006
11
6.69502
21
-6.23507
0
LINE
8
BLACK
6
CONTINUOUS
10
6.69502
20
-6.23507
11
6.70065
21
-6.22382
0
LINE
8
BLACK
6
CONTINUOUS
10
6.70065
20
-6.22382
11
6.7119
21
-6.21819
0
LINE
8
BLACK
6
CONTINUOUS
10
6.7119
20
-6.21819
11
6.73439
21
-6.21819
0
LINE
8
BLACK
6
CONTINUOUS
10
6.73439
20
-6.21819
11
6.74564
21
-6.22382
0
LINE
8
BLACK
6
CONTINUOUS
10
6.74564
20
-6.22382
11
6.75127
21
-6.23507
0
LINE
8
BLACK
6
CONTINUOUS
10
6.75127
20
-6.23507
11
6.75127
21
-6.24632
0
LINE
8
BLACK
6
CONTINUOUS
10
6.75127
20
-6.24632
11
6.69502
21
-6.25756
0
LINE
8
BLACK
6
CONTINUOUS
10
6.79626
20
-6.29131
11
6.80751
21
-6.29693
0
LINE
8
BLACK
6
CONTINUOUS
10
6.80751
20
-6.29693
11
6.83001
21
-6.29693
0
LINE
8
BLACK
6
CONTINUOUS
10
6.83001
20
-6.29693
11
6.84125
21
-6.29131
0
LINE
8
BLACK
6
CONTINUOUS
10
6.84125
20
-6.29131
11
6.84688
21
-6.28006
0
LINE
8
BLACK
6
CONTINUOUS
10
6.84688
20
-6.28006
11
6.84688
21
-6.27444
0
LINE
8
BLACK
6
CONTINUOUS
10
6.84688
20
-6.27444
11
6.84125
21
-6.26319
0
LINE
8
BLACK
6
CONTINUOUS
10
6.84125
20
-6.26319
11
6.83001
21
-6.25756
0
LINE
8
BLACK
6
CONTINUOUS
10
6.83001
20
-6.25756
11
6.81313
21
-6.25756
0
LINE
8
BLACK
6
CONTINUOUS
10
6.81313
20
-6.25756
11
6.80188
21
-6.25194
0
LINE
8
BLACK
6
CONTINUOUS
10
6.80188
20
-6.25194
11
6.79626
21
-6.24069
0
LINE
8
BLACK
6
CONTINUOUS
10
6.79626
20
-6.24069
11
6.79626
21
-6.23507
0
LINE
8
BLACK
6
CONTINUOUS
10
6.79626
20
-6.23507
11
6.80188
21
-6.22382
0
LINE
8
BLACK
6
CONTINUOUS
10
6.80188
20
-6.22382
11
6.81313
21
-6.21819
0
LINE
8
BLACK
6
CONTINUOUS
10
6.81313
20
-6.21819
11
6.83001
21
-6.21819
0
LINE
8
BLACK
6
CONTINUOUS
10
6.83001
20
-6.21819
11
6.84125
21
-6.22382
0
LINE
8
BLACK
6
CONTINUOUS
10
6.88625
20
-6.34193
11
6.89187
21
-6.3363
0
LINE
8
BLACK
6
CONTINUOUS
10
6.89187
20
-6.3363
11
6.90312
21
-6.31943
0
LINE
8
BLACK
6
CONTINUOUS
10
6.90312
20
-6.31943
11
6.90875
21
-6.30818
0
LINE
8
BLACK
6
CONTINUOUS
10
6.90875
20
-6.30818
11
6.91437
21
-6.29131
0
LINE
8
BLACK
6
CONTINUOUS
10
6.91437
20
-6.29131
11
6.91999
21
-6.26319
0
LINE
8
BLACK
6
CONTINUOUS
10
6.91999
20
-6.26319
11
6.91999
21
-6.24069
0
LINE
8
BLACK
6
CONTINUOUS
10
6.91999
20
-6.24069
11
6.91437
21
-6.21257
0
LINE
8
BLACK
6
CONTINUOUS
10
6.91437
20
-6.21257
11
6.90875
21
-6.1957
0
LINE
8
BLACK
6
CONTINUOUS
10
6.90875
20
-6.1957
11
6.90312
21
-6.18445
0
LINE
8
BLACK
6
CONTINUOUS
10
6.90312
20
-6.18445
11
6.89187
21
-6.16758
0
LINE
8
BLACK
6
CONTINUOUS
10
6.89187
20
-6.16758
11
6.88625
21
-6.16195
0
LINE
8
BLACK
6
CONTINUOUS
10
7.09997
20
-6.34193
11
7.09435
21
-6.3363
0
LINE
8
BLACK
6
CONTINUOUS
10
7.09435
20
-6.3363
11
7.0831
21
-6.31943
0
LINE
8
BLACK
6
CONTINUOUS
10
7.0831
20
-6.31943
11
7.07747
21
-6.30818
0
LINE
8
BLACK
6
CONTINUOUS
10
7.07747
20
-6.30818
11
7.07185
21
-6.29131
0
LINE
8
BLACK
6
CONTINUOUS
10
7.07185
20
-6.29131
11
7.06623
21
-6.26319
0
LINE
8
BLACK
6
CONTINUOUS
10
7.06623
20
-6.26319
11
7.06623
21
-6.24069
0
LINE
8
BLACK
6
CONTINUOUS
10
7.06623
20
-6.24069
11
7.07185
21
-6.21257
0
LINE
8
BLACK
6
CONTINUOUS
10
7.07185
20
-6.21257
11
7.07747
21
-6.1957
0
LINE
8
BLACK
6
CONTINUOUS
10
7.07747
20
-6.1957
11
7.0831
21
-6.18445
0
LINE
8
BLACK
6
CONTINUOUS
10
7.0831
20
-6.18445
11
7.09435
21
-6.16758
0
LINE
8
BLACK
6
CONTINUOUS
10
7.09435
20
-6.16758
11
7.09997
21
-6.16195
0
LINE
8
BLACK
6
CONTINUOUS
10
7.14497
20
-6.21819
11
7.14497
21
-6.29693
0
LINE
8
BLACK
6
CONTINUOUS
10
7.14497
20
-6.22944
11
7.15059
21
-6.22382
0
LINE
8
BLACK
6
CONTINUOUS
10
7.15059
20
-6.22382
11
7.16184
21
-6.21819
0
LINE
8
BLACK
6
CONTINUOUS
10
7.16184
20
-6.21819
11
7.17871
21
-6.21819
0
LINE
8
BLACK
6
CONTINUOUS
10
7.17871
20
-6.21819
11
7.18996
21
-6.22382
0
LINE
8
BLACK
6
CONTINUOUS
10
7.18996
20
-6.22382
11
7.19558
21
-6.23507
0
LINE
8
BLACK
6
CONTINUOUS
10
7.19558
20
-6.23507
11
7.19558
21
-6.29693
0
LINE
8
BLACK
6
CONTINUOUS
10
7.2687
20
-6.29693
11
7.25745
21
-6.29131
0
LINE
8
BLACK
6
CONTINUOUS
10
7.25745
20
-6.29131
11
7.25183
21
-6.28569
0
LINE
8
BLACK
6
CONTINUOUS
10
7.25183
20
-6.28569
11
7.2462
21
-6.27444
0
LINE
8
BLACK
6
CONTINUOUS
10
7.2462
20
-6.27444
11
7.2462
21
-6.24069
0
LINE
8
BLACK
6
CONTINUOUS
10
7.2462
20
-6.24069
11
7.25183
21
-6.22944
0
LINE
8
BLACK
6
CONTINUOUS
10
7.25183
20
-6.22944
11
7.25745
21
-6.22382
0
LINE
8
BLACK
6
CONTINUOUS
10
7.25745
20
-6.22382
11
7.2687
21
-6.21819
0
LINE
8
BLACK
6
CONTINUOUS
10
7.2687
20
-6.21819
11
7.28557
21
-6.21819
0
LINE
8
BLACK
6
CONTINUOUS
10
7.28557
20
-6.21819
11
7.29682
21
-6.22382
0
LINE
8
BLACK
6
CONTINUOUS
10
7.29682
20
-6.22382
11
7.30245
21
-6.22944
0
LINE
8
BLACK
6
CONTINUOUS
10
7.30245
20
-6.22944
11
7.30807
21
-6.24069
0
LINE
8
BLACK
6
CONTINUOUS
10
7.30807
20
-6.24069
11
7.30807
21
-6.27444
0
LINE
8
BLACK
6
CONTINUOUS
10
7.30807
20
-6.27444
11
7.30245
21
-6.28569
0
LINE
8
BLACK
6
CONTINUOUS
10
7.30245
20
-6.28569
11
7.29682
21
-6.29131
0
LINE
8
BLACK
6
CONTINUOUS
10
7.29682
20
-6.29131
11
7.28557
21
-6.29693
0
LINE
8
BLACK
6
CONTINUOUS
10
7.28557
20
-6.29693
11
7.2687
21
-6.29693
0
LINE
8
BLACK
6
CONTINUOUS
10
7.34182
20
-6.21819
11
7.38681
21
-6.21819
0
LINE
8
BLACK
6
CONTINUOUS
10
7.35869
20
-6.17882
11
7.35869
21
-6.28006
0
LINE
8
BLACK
6
CONTINUOUS
10
7.35869
20
-6.28006
11
7.36431
21
-6.29131
0
LINE
8
BLACK
6
CONTINUOUS
10
7.36431
20
-6.29131
11
7.37556
21
-6.29693
0
LINE
8
BLACK
6
CONTINUOUS
10
7.37556
20
-6.29693
11
7.38681
21
-6.29693
0
LINE
8
BLACK
6
CONTINUOUS
10
7.51617
20
-6.21819
11
7.51617
21
-6.3363
0
LINE
8
BLACK
6
CONTINUOUS
10
7.51617
20
-6.22382
11
7.52742
21
-6.21819
0
LINE
8
BLACK
6
CONTINUOUS
10
7.52742
20
-6.21819
11
7.54992
21
-6.21819
0
LINE
8
BLACK
6
CONTINUOUS
10
7.54992
20
-6.21819
11
7.56116
21
-6.22382
0
LINE
8
BLACK
6
CONTINUOUS
10
7.56116
20
-6.22382
11
7.56679
21
-6.22944
0
LINE
8
BLACK
6
CONTINUOUS
10
7.56679
20
-6.22944
11
7.57241
21
-6.24069
0
LINE
8
BLACK
6
CONTINUOUS
10
7.57241
20
-6.24069
11
7.57241
21
-6.27444
0
LINE
8
BLACK
6
CONTINUOUS
10
7.57241
20
-6.27444
11
7.56679
21
-6.28569
0
LINE
8
BLACK
6
CONTINUOUS
10
7.56679
20
-6.28569
11
7.56116
21
-6.29131
0
LINE
8
BLACK
6
CONTINUOUS
10
7.56116
20
-6.29131
11
7.54992
21
-6.29693
0
LINE
8
BLACK
6
CONTINUOUS
10
7.54992
20
-6.29693
11
7.52742
21
-6.29693
0
LINE
8
BLACK
6
CONTINUOUS
10
7.52742
20
-6.29693
11
7.51617
21
-6.29131
0
LINE
8
BLACK
6
CONTINUOUS
10
7.6399
20
-6.29693
11
7.62866
21
-6.29131
0
LINE
8
BLACK
6
CONTINUOUS
10
7.62866
20
-6.29131
11
7.62303
21
-6.28006
0
LINE
8
BLACK
6
CONTINUOUS
10
7.62303
20
-6.28006
11
7.62303
21
-6.17882
0
LINE
8
BLACK
6
CONTINUOUS
10
7.73552
20
-6.29693
11
7.73552
21
-6.23507
0
LINE
8
BLACK
6
CONTINUOUS
10
7.73552
20
-6.23507
11
7.72989
21
-6.22382
0
LINE
8
BLACK
6
CONTINUOUS
10
7.72989
20
-6.22382
11
7.71864
21
-6.21819
0
LINE
8
BLACK
6
CONTINUOUS
10
7.71864
20
-6.21819
11
7.69615
21
-6.21819
0
LINE
8
BLACK
6
CONTINUOUS
10
7.69615
20
-6.21819
11
7.6849
21
-6.22382
0
LINE
8
BLACK
6
CONTINUOUS
10
7.73552
20
-6.29131
11
7.72427
21
-6.29693
0
LINE
8
BLACK
6
CONTINUOUS
10
7.72427
20
-6.29693
11
7.69615
21
-6.29693
0
LINE
8
BLACK
6
CONTINUOUS
10
7.69615
20
-6.29693
11
7.6849
21
-6.29131
0
LINE
8
BLACK
6
CONTINUOUS
10
7.6849
20
-6.29131
11
7.67927
21
-6.28006
0
LINE
8
BLACK
6
CONTINUOUS
10
7.67927
20
-6.28006
11
7.67927
21
-6.26881
0
LINE
8
BLACK
6
CONTINUOUS
10
7.67927
20
-6.26881
11
7.6849
21
-6.25756
0
LINE
8
BLACK
6
CONTINUOUS
10
7.6849
20
-6.25756
11
7.69615
21
-6.25194
0
LINE
8
BLACK
6
CONTINUOUS
10
7.69615
20
-6.25194
11
7.72427
21
-6.25194
0
LINE
8
BLACK
6
CONTINUOUS
10
7.72427
20
-6.25194
11
7.73552
21
-6.24632
0
LINE
8
BLACK
6
CONTINUOUS
10
7.77489
20
-6.21819
11
7.81988
21
-6.21819
0
LINE
8
BLACK
6
CONTINUOUS
10
7.79176
20
-6.17882
11
7.79176
21
-6.28006
0
LINE
8
BLACK
6
CONTINUOUS
10
7.79176
20
-6.28006
11
7.79738
21
-6.29131
0
LINE
8
BLACK
6
CONTINUOUS
10
7.79738
20
-6.29131
11
7.80863
21
-6.29693
0
LINE
8
BLACK
6
CONTINUOUS
10
7.80863
20
-6.29693
11
7.81988
21
-6.29693
0
LINE
8
BLACK
6
CONTINUOUS
10
7.90425
20
-6.29131
11
7.893
21
-6.29693
0
LINE
8
BLACK
6
CONTINUOUS
10
7.893
20
-6.29693
11
7.8705
21
-6.29693
0
LINE
8
BLACK
6
CONTINUOUS
10
7.8705
20
-6.29693
11
7.85925
21
-6.29131
0
LINE
8
BLACK
6
CONTINUOUS
10
7.85925
20
-6.29131
11
7.85363
21
-6.28006
0
LINE
8
BLACK
6
CONTINUOUS
10
7.85363
20
-6.28006
11
7.85363
21
-6.23507
0
LINE
8
BLACK
6
CONTINUOUS
10
7.85363
20
-6.23507
11
7.85925
21
-6.22382
0
LINE
8
BLACK
6
CONTINUOUS
10
7.85925
20
-6.22382
11
7.8705
21
-6.21819
0
LINE
8
BLACK
6
CONTINUOUS
10
7.8705
20
-6.21819
11
7.893
21
-6.21819
0
LINE
8
BLACK
6
CONTINUOUS
10
7.893
20
-6.21819
11
7.90425
21
-6.22382
0
LINE
8
BLACK
6
CONTINUOUS
10
7.90425
20
-6.22382
11
7.90987
21
-6.23507
0
LINE
8
BLACK
6
CONTINUOUS
10
7.90987
20
-6.23507
11
7.90987
21
-6.24632
0
LINE
8
BLACK
6
CONTINUOUS
10
7.90987
20
-6.24632
11
7.85363
21
-6.25756
0
LINE
8
BLACK
6
CONTINUOUS
10
8.01111
20
-6.29693
11
8.01111
21
-6.17882
0
LINE
8
BLACK
6
CONTINUOUS
10
8.01111
20
-6.29131
11
7.99986
21
-6.29693
0
LINE
8
BLACK
6
CONTINUOUS
10
7.99986
20
-6.29693
11
7.97736
21
-6.29693
0
LINE
8
BLACK
6
CONTINUOUS
10
7.97736
20
-6.29693
11
7.96611
21
-6.29131
0
LINE
8
BLACK
6
CONTINUOUS
10
7.96611
20
-6.29131
11
7.96049
21
-6.28569
0
LINE
8
BLACK
6
CONTINUOUS
10
7.96049
20
-6.28569
11
7.95486
21
-6.27444
0
LINE
8
BLACK
6
CONTINUOUS
10
7.95486
20
-6.27444
11
7.95486
21
-6.24069
0
LINE
8
BLACK
6
CONTINUOUS
10
7.95486
20
-6.24069
11
7.96049
21
-6.22944
0
LINE
8
BLACK
6
CONTINUOUS
10
7.96049
20
-6.22944
11
7.96611
21
-6.22382
0
LINE
8
BLACK
6
CONTINUOUS
10
7.96611
20
-6.22382
11
7.97736
21
-6.21819
0
LINE
8
BLACK
6
CONTINUOUS
10
7.97736
20
-6.21819
11
7.99986
21
-6.21819
0
LINE
8
BLACK
6
CONTINUOUS
10
7.99986
20
-6.21819
11
8.01111
21
-6.22382
0
LINE
8
BLACK
6
CONTINUOUS
10
8.0561
20
-6.34193
11
8.06173
21
-6.3363
0
LINE
8
BLACK
6
CONTINUOUS
10
8.06173
20
-6.3363
11
8.07298
21
-6.31943
0
LINE
8
BLACK
6
CONTINUOUS
10
8.07298
20
-6.31943
11
8.0786
21
-6.30818
0
LINE
8
BLACK
6
CONTINUOUS
10
8.0786
20
-6.30818
11
8.08422
21
-6.29131
0
LINE
8
BLACK
6
CONTINUOUS
10
8.08422
20
-6.29131
11
8.08985
21
-6.26319
0
LINE
8
BLACK
6
CONTINUOUS
10
8.08985
20
-6.26319
11
8.08985
21
-6.24069
0
LINE
8
BLACK
6
CONTINUOUS
10
8.08985
20
-6.24069
11
8.08422
21
-6.21257
0
LINE
8
BLACK
6
CONTINUOUS
10
8.08422
20
-6.21257
11
8.0786
21
-6.1957
0
LINE
8
BLACK
6
CONTINUOUS
10
8.0786
20
-6.1957
11
8.07298
21
-6.18445
0
LINE
8
BLACK
6
CONTINUOUS
10
8.07298
20
-6.18445
11
8.06173
21
-6.16758
0
LINE
8
BLACK
6
CONTINUOUS
10
8.06173
20
-6.16758
11
8.0561
21
-6.16195
  0
ENDSEC
  0
EOF
