%TF.GenerationSoftware,KiCad,Pcbnew,(6.0.4-0)*%
%TF.CreationDate,2024-05-14T12:36:05+10:00*%
%TF.ProjectId,octal keyboard,6f637461-6c20-46b6-9579-626f6172642e,rev?*%
%TF.SameCoordinates,Original*%
%TF.FileFunction,Copper,L1,Top*%
%TF.FilePolarity,Positive*%
%FSLAX46Y46*%
G04 Gerber Fmt 4.6, Leading zero omitted, Abs format (unit mm)*
G04 Created by KiCad (PCBNEW (6.0.4-0)) date 2024-05-14 12:36:05*
%MOMM*%
%LPD*%
G01*
G04 APERTURE LIST*
%TA.AperFunction,ComponentPad*%
%ADD10C,2.200000*%
%TD*%
%TA.AperFunction,ComponentPad*%
%ADD11C,1.600000*%
%TD*%
%TA.AperFunction,ComponentPad*%
%ADD12O,1.600000X1.600000*%
%TD*%
%TA.AperFunction,ComponentPad*%
%ADD13C,0.800000*%
%TD*%
%TA.AperFunction,ComponentPad*%
%ADD14C,6.400000*%
%TD*%
%TA.AperFunction,ComponentPad*%
%ADD15R,1.700000X1.700000*%
%TD*%
%TA.AperFunction,ComponentPad*%
%ADD16O,1.700000X1.700000*%
%TD*%
%TA.AperFunction,ViaPad*%
%ADD17C,1.500000*%
%TD*%
%TA.AperFunction,Conductor*%
%ADD18C,0.500000*%
%TD*%
%TA.AperFunction,Conductor*%
%ADD19C,1.000000*%
%TD*%
G04 APERTURE END LIST*
D10*
%TO.P,SW3,1*%
%TO.N,COM*%
X184000000Y-103000000D03*
%TO.P,SW3,2*%
%TO.N,LF*%
X177650000Y-105540000D03*
%TD*%
%TO.P,SW4,1*%
%TO.N,COM*%
X124000000Y-103000000D03*
%TO.P,SW4,2*%
%TO.N,1*%
X117650000Y-105540000D03*
%TD*%
%TO.P,SW5,1*%
%TO.N,COM*%
X184000000Y-83000000D03*
%TO.P,SW5,2*%
%TO.N,DIV*%
X177650000Y-85540000D03*
%TD*%
%TO.P,SW6,1*%
%TO.N,COM*%
X144000000Y-103000000D03*
%TO.P,SW6,2*%
%TO.N,2*%
X137650000Y-105540000D03*
%TD*%
%TO.P,SW7,1*%
%TO.N,COM*%
X184000000Y-63000000D03*
%TO.P,SW7,2*%
%TO.N,X*%
X177650000Y-65540000D03*
%TD*%
%TO.P,SW8,1*%
%TO.N,COM*%
X164000000Y-103000000D03*
%TO.P,SW8,2*%
%TO.N,3*%
X157650000Y-105540000D03*
%TD*%
%TO.P,SW9,1*%
%TO.N,COM*%
X164000000Y-123000000D03*
%TO.P,SW9,2*%
%TO.N,-*%
X157650000Y-125540000D03*
%TD*%
%TO.P,SW10,1*%
%TO.N,COM*%
X124000000Y-83000000D03*
%TO.P,SW10,2*%
%TO.N,4*%
X117650000Y-85540000D03*
%TD*%
%TO.P,SW11,1*%
%TO.N,COM*%
X184000000Y-123000000D03*
%TO.P,SW11,2*%
%TO.N,CR*%
X177650000Y-125540000D03*
%TD*%
%TO.P,SW12,1*%
%TO.N,COM*%
X144000000Y-83000000D03*
%TO.P,SW12,2*%
%TO.N,5*%
X137650000Y-85540000D03*
%TD*%
%TO.P,SW13,1*%
%TO.N,COM*%
X144000000Y-123000000D03*
%TO.P,SW13,2*%
%TO.N,+*%
X137650000Y-125540000D03*
%TD*%
%TO.P,SW14,1*%
%TO.N,COM*%
X164000000Y-83000000D03*
%TO.P,SW14,2*%
%TO.N,6*%
X157650000Y-85540000D03*
%TD*%
%TO.P,SW15,1*%
%TO.N,COM*%
X124000000Y-63000000D03*
%TO.P,SW15,2*%
%TO.N,7*%
X117650000Y-65540000D03*
%TD*%
%TO.P,SW16,1*%
%TO.N,COM*%
X144000000Y-63000000D03*
%TO.P,SW16,2*%
%TO.N,8*%
X137650000Y-65540000D03*
%TD*%
%TO.P,SW17,1*%
%TO.N,COM*%
X164000000Y-63000000D03*
%TO.P,SW17,2*%
%TO.N,9*%
X157650000Y-65540000D03*
%TD*%
%TO.P,SW1,1*%
%TO.N,COM*%
X124000000Y-122920000D03*
%TO.P,SW1,2*%
%TO.N,0*%
X117650000Y-125460000D03*
%TD*%
D11*
%TO.P,C2,1*%
%TO.N,LF*%
X177500000Y-98000000D03*
D12*
%TO.P,C2,2*%
%TO.N,COM*%
X185000000Y-98000000D03*
%TD*%
D11*
%TO.P,C3,1*%
%TO.N,1*%
X117500000Y-98000000D03*
D12*
%TO.P,C3,2*%
%TO.N,COM*%
X125000000Y-98000000D03*
%TD*%
D11*
%TO.P,C4,1*%
%TO.N,DIV*%
X177500000Y-78000000D03*
D12*
%TO.P,C4,2*%
%TO.N,COM*%
X185000000Y-78000000D03*
%TD*%
D11*
%TO.P,C5,1*%
%TO.N,2*%
X137500000Y-98000000D03*
D12*
%TO.P,C5,2*%
%TO.N,COM*%
X145000000Y-98000000D03*
%TD*%
D11*
%TO.P,C6,1*%
%TO.N,X*%
X177500000Y-58000000D03*
D12*
%TO.P,C6,2*%
%TO.N,COM*%
X185000000Y-58000000D03*
%TD*%
D11*
%TO.P,C7,1*%
%TO.N,3*%
X157000000Y-98000000D03*
D12*
%TO.P,C7,2*%
%TO.N,COM*%
X164500000Y-98000000D03*
%TD*%
D11*
%TO.P,C8,1*%
%TO.N,-*%
X157000000Y-118000000D03*
D12*
%TO.P,C8,2*%
%TO.N,COM*%
X164500000Y-118000000D03*
%TD*%
D11*
%TO.P,C9,1*%
%TO.N,4*%
X117500000Y-78000000D03*
D12*
%TO.P,C9,2*%
%TO.N,COM*%
X125000000Y-78000000D03*
%TD*%
D11*
%TO.P,C10,1*%
%TO.N,CR*%
X177000000Y-118000000D03*
D12*
%TO.P,C10,2*%
%TO.N,COM*%
X184500000Y-118000000D03*
%TD*%
D11*
%TO.P,C11,1*%
%TO.N,5*%
X137000000Y-78000000D03*
D12*
%TO.P,C11,2*%
%TO.N,COM*%
X144500000Y-78000000D03*
%TD*%
D11*
%TO.P,C12,1*%
%TO.N,+*%
X137000000Y-118000000D03*
D12*
%TO.P,C12,2*%
%TO.N,COM*%
X144500000Y-118000000D03*
%TD*%
D11*
%TO.P,C13,1*%
%TO.N,6*%
X157000000Y-78000000D03*
D12*
%TO.P,C13,2*%
%TO.N,COM*%
X164500000Y-78000000D03*
%TD*%
D11*
%TO.P,C15,1*%
%TO.N,8*%
X137000000Y-58000000D03*
D12*
%TO.P,C15,2*%
%TO.N,COM*%
X144500000Y-58000000D03*
%TD*%
D11*
%TO.P,C16,1*%
%TO.N,9*%
X157500000Y-58000000D03*
D12*
%TO.P,C16,2*%
%TO.N,COM*%
X165000000Y-58000000D03*
%TD*%
D13*
%TO.P,H2,1*%
%TO.N,COM*%
X194100000Y-45000000D03*
X194802944Y-43302944D03*
D14*
X196500000Y-45000000D03*
D13*
X194802944Y-46697056D03*
X198900000Y-45000000D03*
X196500000Y-47400000D03*
X196500000Y-42600000D03*
X198197056Y-46697056D03*
X198197056Y-43302944D03*
%TD*%
%TO.P,H4,1*%
%TO.N,COM*%
X196500000Y-137600000D03*
X196500000Y-142400000D03*
X194802944Y-138302944D03*
X198197056Y-141697056D03*
X198197056Y-138302944D03*
X194802944Y-141697056D03*
D14*
X196500000Y-140000000D03*
D13*
X194100000Y-140000000D03*
X198900000Y-140000000D03*
%TD*%
D11*
%TO.P,C1,1*%
%TO.N,0*%
X117000000Y-118000000D03*
D12*
%TO.P,C1,2*%
%TO.N,COM*%
X124500000Y-118000000D03*
%TD*%
D11*
%TO.P,C14,1*%
%TO.N,7*%
X117500000Y-58000000D03*
D12*
%TO.P,C14,2*%
%TO.N,COM*%
X125000000Y-58000000D03*
%TD*%
D14*
%TO.P,H1,1*%
%TO.N,COM*%
X106500000Y-45000000D03*
D13*
X104802944Y-46697056D03*
X108900000Y-45000000D03*
X108197056Y-46697056D03*
X104100000Y-45000000D03*
X104802944Y-43302944D03*
X108197056Y-43302944D03*
X106500000Y-42600000D03*
X106500000Y-47400000D03*
%TD*%
%TO.P,H3,1*%
%TO.N,COM*%
X108197056Y-138302944D03*
X106500000Y-137600000D03*
X104802944Y-141697056D03*
X104802944Y-138302944D03*
X104100000Y-140000000D03*
D14*
X106500000Y-140000000D03*
D13*
X108900000Y-140000000D03*
X108197056Y-141697056D03*
X106500000Y-142400000D03*
%TD*%
D15*
%TO.P,J1,1*%
%TO.N,0*%
X196500000Y-115000000D03*
D16*
%TO.P,J1,2*%
%TO.N,1*%
X196500000Y-112460000D03*
%TO.P,J1,3*%
%TO.N,4*%
X196500000Y-109920000D03*
%TO.P,J1,4*%
%TO.N,7*%
X196500000Y-107380000D03*
%TO.P,J1,5*%
%TO.N,8*%
X196500000Y-104840000D03*
%TO.P,J1,6*%
%TO.N,5*%
X196500000Y-102300000D03*
%TO.P,J1,7*%
%TO.N,2*%
X196500000Y-99760000D03*
%TO.P,J1,8*%
%TO.N,+*%
X196500000Y-97220000D03*
%TO.P,J1,9*%
%TO.N,-*%
X196500000Y-94680000D03*
%TO.P,J1,10*%
%TO.N,3*%
X196500000Y-92140000D03*
%TO.P,J1,11*%
%TO.N,6*%
X196500000Y-89600000D03*
%TO.P,J1,12*%
%TO.N,9*%
X196500000Y-87060000D03*
%TO.P,J1,13*%
%TO.N,X*%
X196500000Y-84520000D03*
%TO.P,J1,14*%
%TO.N,DIV*%
X196500000Y-81980000D03*
%TO.P,J1,15*%
%TO.N,LF*%
X196500000Y-79440000D03*
%TO.P,J1,16*%
%TO.N,CR*%
X196500000Y-76900000D03*
%TD*%
D15*
%TO.P,J2,1*%
%TO.N,COM*%
X196500000Y-120000000D03*
%TD*%
D17*
%TO.N,LF*%
X189500000Y-89000000D03*
%TD*%
D18*
%TO.N,-*%
X173000000Y-114500000D02*
X171500000Y-116000000D01*
X177320000Y-94680000D02*
X173000000Y-99000000D01*
X173000000Y-99000000D02*
X173000000Y-114500000D01*
X159000000Y-116000000D02*
X157000000Y-118000000D01*
X171500000Y-116000000D02*
X159000000Y-116000000D01*
X196500000Y-94680000D02*
X177320000Y-94680000D01*
%TO.N,3*%
X159000000Y-96000000D02*
X157000000Y-98000000D01*
X193500000Y-93500000D02*
X174500000Y-93500000D01*
X194860000Y-92140000D02*
X193500000Y-93500000D01*
X174500000Y-93500000D02*
X172000000Y-96000000D01*
X172000000Y-96000000D02*
X159000000Y-96000000D01*
X196500000Y-92140000D02*
X194860000Y-92140000D01*
%TO.N,6*%
X158190000Y-87460000D02*
X158190000Y-90690000D01*
X191500000Y-92500000D02*
X160000000Y-92500000D01*
X158190000Y-90690000D02*
X160000000Y-92500000D01*
X157650000Y-85540000D02*
X157650000Y-86920000D01*
X194400000Y-89600000D02*
X191500000Y-92500000D01*
X196500000Y-89600000D02*
X194400000Y-89600000D01*
X157650000Y-86920000D02*
X158190000Y-87460000D01*
%TO.N,9*%
X164435000Y-86935000D02*
X164435000Y-89365000D01*
X166070000Y-91000000D02*
X190500000Y-91000000D01*
X164435000Y-89365000D02*
X166070000Y-91000000D01*
X160500000Y-83000000D02*
X164435000Y-86935000D01*
X158749999Y-74749999D02*
X160500000Y-76500000D01*
X157650000Y-65540000D02*
X158749999Y-66639999D01*
X160500000Y-76500000D02*
X160500000Y-83000000D01*
X190500000Y-91000000D02*
X194440000Y-87060000D01*
X194440000Y-87060000D02*
X196500000Y-87060000D01*
X158749999Y-66639999D02*
X158749999Y-74749999D01*
%TO.N,LF*%
X191000000Y-80000000D02*
X195940000Y-80000000D01*
X189500000Y-89000000D02*
X189500000Y-81500000D01*
X189500000Y-81500000D02*
X191000000Y-80000000D01*
X195940000Y-80000000D02*
X196500000Y-79440000D01*
D19*
%TO.N,COM*%
X184500000Y-118000000D02*
X194500000Y-118000000D01*
X184000000Y-83000000D02*
X184000000Y-79000000D01*
X194500000Y-118000000D02*
X196500000Y-120000000D01*
X184000000Y-79000000D02*
X185000000Y-78000000D01*
%TD*%
M02*
