  0
SECTION
  2
HEADER
  9
$ANGBASE
  50
0.0
  9
$ANGDIR
  70
1
  9
$MEASUREMENT
  70
0
  0
ENDSEC
  0
SECTION
  2
TABLES
  0
TABLE
  2
LTYPE
  70
4
  0
LTYPE
  5
40F
  2
CONTINUOUS
  70
0
  3
Solid line
  72
65
  73
0
  40
0.0
  0
LTYPE
  5
410
  2
DASHDOT
 70
0
  3
Dash Dot ____ _ ____ _
 72
65
 73
4
 40
2.0
 49
1.25
 49
-0.25
 49
0.25
 49
-0.25
  0
LTYPE
  5
411
  2
DASHED
 70
0
  3
Dashed __ __ __ __ __
 72
65
 73
2
 40
0.75
 49
0.5
 49
-0.25
  0
LTYPE
  5
43B
  2
DOTTED
 70
0
  3
Dotted .  .  .  .
 72
65
 73
2
 40
0.2
 49
0.0
 49
-0.2
  0
ENDTAB
  0
TABLE
  2
STYLE
  70
4
  0
STYLE
  2
KICAD
  70
0
  40
0
  41
1
  42
1
  50
0
  71
0
  3
isocp.shx
  0
STYLE
  2
KICADB
  70
0
  40
0
  41
1
  42
1
  50
0
  71
0
  3
isocp.shx
  0
STYLE
  2
KICADI
  70
0
  40
0
  41
1
  42
1
  50
15
  71
0
  3
isocp.shx
  0
STYLE
  2
KICADBI
  70
0
  40
0
  41
1
  42
1
  50
15
  71
0
  3
isocp.shx
  0
ENDTAB
  0
TABLE
  2
LAYER
  70
1
  0
LAYER
  2
BLACK
  70
0
  62
7
  6
CONTINUOUS
  0
ENDTAB
  0
ENDSEC
  0
SECTION
  2
ENTITIES
0
LINE
8
BLACK
6
CONTINUOUS
10
3.99606
20
-5.70866
11
4.05512
21
-5.70866
0
LINE
8
BLACK
6
CONTINUOUS
10
3.99606
20
-1.5748
11
3.99606
21
-5.70866
0
LINE
8
BLACK
6
CONTINUOUS
10
4.05512
20
-1.5748
11
3.99606
21
-1.5748
0
LINE
8
BLACK
6
CONTINUOUS
10
7.93307
20
-5.70866
11
7.87402
21
-5.70866
0
LINE
8
BLACK
6
CONTINUOUS
10
7.93307
20
-1.5748
11
7.93307
21
-5.70866
0
LINE
8
BLACK
6
CONTINUOUS
10
7.87402
20
-1.5748
11
7.93307
21
-1.5748
0
LINE
8
BLACK
6
CONTINUOUS
10
4.05512
20
-1.5748
11
4.09449
21
-1.5748
0
LINE
8
BLACK
6
CONTINUOUS
10
4.09449
20
-5.70866
11
4.05512
21
-5.70866
0
LINE
8
BLACK
6
CONTINUOUS
10
4.09449
20
-5.70866
11
7.87402
21
-5.70866
0
LINE
8
BLACK
6
CONTINUOUS
10
7.87402
20
-1.5748
11
4.09449
21
-1.5748
0
LINE
8
BLACK
6
CONTINUOUS
10
4.08858
20
-1.76181
11
4.10827
21
-1.7815
0
LINE
8
BLACK
6
CONTINUOUS
10
4.10827
20
-1.76181
11
4.08858
21
-1.7815
0
LINE
8
BLACK
6
CONTINUOUS
10
4.08858
20
-5.50197
11
4.10827
21
-5.52165
0
LINE
8
BLACK
6
CONTINUOUS
10
4.10827
20
-5.50197
11
4.08858
21
-5.52165
0
LINE
8
BLACK
6
CONTINUOUS
10
4.11626
20
-1.695
11
4.13594
21
-1.71468
0
LINE
8
BLACK
6
CONTINUOUS
10
4.13594
20
-1.695
11
4.11626
21
-1.71468
0
LINE
8
BLACK
6
CONTINUOUS
10
4.11626
20
-1.82862
11
4.13594
21
-1.84831
0
LINE
8
BLACK
6
CONTINUOUS
10
4.13594
20
-1.82862
11
4.11626
21
-1.84831
0
LINE
8
BLACK
6
CONTINUOUS
10
4.11626
20
-5.43516
11
4.13594
21
-5.45484
0
LINE
8
BLACK
6
CONTINUOUS
10
4.13594
20
-5.43516
11
4.11626
21
-5.45484
0
LINE
8
BLACK
6
CONTINUOUS
10
4.11626
20
-5.56878
11
4.13594
21
-5.58847
0
LINE
8
BLACK
6
CONTINUOUS
10
4.13594
20
-5.56878
11
4.11626
21
-5.58847
0
LINE
8
BLACK
6
CONTINUOUS
10
4.18307
20
-1.66732
11
4.20276
21
-1.68701
0
LINE
8
BLACK
6
CONTINUOUS
10
4.20276
20
-1.66732
11
4.18307
21
-1.68701
0
LINE
8
BLACK
6
CONTINUOUS
10
4.18307
20
-1.8563
11
4.20276
21
-1.87598
0
LINE
8
BLACK
6
CONTINUOUS
10
4.20276
20
-1.8563
11
4.18307
21
-1.87598
0
LINE
8
BLACK
6
CONTINUOUS
10
4.18307
20
-5.40748
11
4.20276
21
-5.42717
0
LINE
8
BLACK
6
CONTINUOUS
10
4.20276
20
-5.40748
11
4.18307
21
-5.42717
0
LINE
8
BLACK
6
CONTINUOUS
10
4.18307
20
-5.59646
11
4.20276
21
-5.61614
0
LINE
8
BLACK
6
CONTINUOUS
10
4.20276
20
-5.59646
11
4.18307
21
-5.61614
0
LINE
8
BLACK
6
CONTINUOUS
10
4.24988
20
-1.695
11
4.26957
21
-1.71468
0
LINE
8
BLACK
6
CONTINUOUS
10
4.26957
20
-1.695
11
4.24988
21
-1.71468
0
LINE
8
BLACK
6
CONTINUOUS
10
4.24988
20
-1.82862
11
4.26957
21
-1.84831
0
LINE
8
BLACK
6
CONTINUOUS
10
4.26957
20
-1.82862
11
4.24988
21
-1.84831
0
LINE
8
BLACK
6
CONTINUOUS
10
4.24988
20
-5.43516
11
4.26957
21
-5.45484
0
LINE
8
BLACK
6
CONTINUOUS
10
4.26957
20
-5.43516
11
4.24988
21
-5.45484
0
LINE
8
BLACK
6
CONTINUOUS
10
4.24988
20
-5.56878
11
4.26957
21
-5.58847
0
LINE
8
BLACK
6
CONTINUOUS
10
4.26957
20
-5.56878
11
4.24988
21
-5.58847
0
LINE
8
BLACK
6
CONTINUOUS
10
4.27756
20
-1.76181
11
4.29724
21
-1.7815
0
LINE
8
BLACK
6
CONTINUOUS
10
4.29724
20
-1.76181
11
4.27756
21
-1.7815
0
LINE
8
BLACK
6
CONTINUOUS
10
4.27756
20
-5.50197
11
4.29724
21
-5.52165
0
LINE
8
BLACK
6
CONTINUOUS
10
4.29724
20
-5.50197
11
4.27756
21
-5.52165
0
LINE
8
BLACK
6
CONTINUOUS
10
7.63189
20
-1.76181
11
7.65157
21
-1.7815
0
LINE
8
BLACK
6
CONTINUOUS
10
7.65157
20
-1.76181
11
7.63189
21
-1.7815
0
LINE
8
BLACK
6
CONTINUOUS
10
7.63189
20
-5.50197
11
7.65157
21
-5.52165
0
LINE
8
BLACK
6
CONTINUOUS
10
7.65157
20
-5.50197
11
7.63189
21
-5.52165
0
LINE
8
BLACK
6
CONTINUOUS
10
7.65956
20
-1.695
11
7.67925
21
-1.71468
0
LINE
8
BLACK
6
CONTINUOUS
10
7.67925
20
-1.695
11
7.65956
21
-1.71468
0
LINE
8
BLACK
6
CONTINUOUS
10
7.65956
20
-1.82862
11
7.67925
21
-1.84831
0
LINE
8
BLACK
6
CONTINUOUS
10
7.67925
20
-1.82862
11
7.65956
21
-1.84831
0
LINE
8
BLACK
6
CONTINUOUS
10
7.65956
20
-5.43516
11
7.67925
21
-5.45484
0
LINE
8
BLACK
6
CONTINUOUS
10
7.67925
20
-5.43516
11
7.65956
21
-5.45484
0
LINE
8
BLACK
6
CONTINUOUS
10
7.65956
20
-5.56878
11
7.67925
21
-5.58847
0
LINE
8
BLACK
6
CONTINUOUS
10
7.67925
20
-5.56878
11
7.65956
21
-5.58847
0
LINE
8
BLACK
6
CONTINUOUS
10
7.72638
20
-1.66732
11
7.74606
21
-1.68701
0
LINE
8
BLACK
6
CONTINUOUS
10
7.74606
20
-1.66732
11
7.72638
21
-1.68701
0
LINE
8
BLACK
6
CONTINUOUS
10
7.72638
20
-1.8563
11
7.74606
21
-1.87598
0
LINE
8
BLACK
6
CONTINUOUS
10
7.74606
20
-1.8563
11
7.72638
21
-1.87598
0
LINE
8
BLACK
6
CONTINUOUS
10
7.72638
20
-5.40748
11
7.74606
21
-5.42717
0
LINE
8
BLACK
6
CONTINUOUS
10
7.74606
20
-5.40748
11
7.72638
21
-5.42717
0
LINE
8
BLACK
6
CONTINUOUS
10
7.72638
20
-5.59646
11
7.74606
21
-5.61614
0
LINE
8
BLACK
6
CONTINUOUS
10
7.74606
20
-5.59646
11
7.72638
21
-5.61614
0
LINE
8
BLACK
6
CONTINUOUS
10
7.79319
20
-1.695
11
7.81288
21
-1.71468
0
LINE
8
BLACK
6
CONTINUOUS
10
7.81288
20
-1.695
11
7.79319
21
-1.71468
0
LINE
8
BLACK
6
CONTINUOUS
10
7.79319
20
-1.82862
11
7.81288
21
-1.84831
0
LINE
8
BLACK
6
CONTINUOUS
10
7.81288
20
-1.82862
11
7.79319
21
-1.84831
0
LINE
8
BLACK
6
CONTINUOUS
10
7.79319
20
-5.43516
11
7.81288
21
-5.45484
0
LINE
8
BLACK
6
CONTINUOUS
10
7.81288
20
-5.43516
11
7.79319
21
-5.45484
0
LINE
8
BLACK
6
CONTINUOUS
10
7.79319
20
-5.56878
11
7.81288
21
-5.58847
0
LINE
8
BLACK
6
CONTINUOUS
10
7.81288
20
-5.56878
11
7.79319
21
-5.58847
0
LINE
8
BLACK
6
CONTINUOUS
10
7.82087
20
-1.76181
11
7.84055
21
-1.7815
0
LINE
8
BLACK
6
CONTINUOUS
10
7.84055
20
-1.76181
11
7.82087
21
-1.7815
0
LINE
8
BLACK
6
CONTINUOUS
10
7.82087
20
-5.50197
11
7.84055
21
-5.52165
0
LINE
8
BLACK
6
CONTINUOUS
10
7.84055
20
-5.50197
11
7.82087
21
-5.52165
0
CIRCLE
8
BLACK
10
4.6063
20
-4.64567
40
0.015748
0
CIRCLE
8
BLACK
10
4.62598
20
-2.28346
40
0.015748
0
CIRCLE
8
BLACK
10
4.62598
20
-3.07087
40
0.015748
0
CIRCLE
8
BLACK
10
4.62598
20
-3.85827
40
0.015748
0
CIRCLE
8
BLACK
10
4.90157
20
-4.64567
40
0.015748
0
CIRCLE
8
BLACK
10
4.92126
20
-2.28346
40
0.015748
0
CIRCLE
8
BLACK
10
4.92126
20
-3.07087
40
0.015748
0
CIRCLE
8
BLACK
10
4.92126
20
-3.85827
40
0.015748
0
CIRCLE
8
BLACK
10
5.3937
20
-2.28346
40
0.015748
0
CIRCLE
8
BLACK
10
5.3937
20
-3.07087
40
0.015748
0
CIRCLE
8
BLACK
10
5.3937
20
-4.64567
40
0.015748
0
CIRCLE
8
BLACK
10
5.41339
20
-3.85827
40
0.015748
0
CIRCLE
8
BLACK
10
5.68898
20
-2.28346
40
0.015748
0
CIRCLE
8
BLACK
10
5.68898
20
-3.07087
40
0.015748
0
CIRCLE
8
BLACK
10
5.68898
20
-4.64567
40
0.015748
0
CIRCLE
8
BLACK
10
5.70866
20
-3.85827
40
0.015748
0
CIRCLE
8
BLACK
10
6.1811
20
-3.07087
40
0.015748
0
CIRCLE
8
BLACK
10
6.1811
20
-3.85827
40
0.015748
0
CIRCLE
8
BLACK
10
6.1811
20
-4.64567
40
0.015748
0
CIRCLE
8
BLACK
10
6.20079
20
-2.28346
40
0.015748
0
CIRCLE
8
BLACK
10
6.47638
20
-3.07087
40
0.015748
0
CIRCLE
8
BLACK
10
6.47638
20
-3.85827
40
0.015748
0
CIRCLE
8
BLACK
10
6.47638
20
-4.64567
40
0.015748
0
CIRCLE
8
BLACK
10
6.49606
20
-2.28346
40
0.015748
0
CIRCLE
8
BLACK
10
6.9685
20
-4.64567
40
0.015748
0
CIRCLE
8
BLACK
10
6.98819
20
-2.28346
40
0.015748
0
CIRCLE
8
BLACK
10
6.98819
20
-3.07087
40
0.015748
0
CIRCLE
8
BLACK
10
6.98819
20
-3.85827
40
0.015748
0
CIRCLE
8
BLACK
10
7.26378
20
-4.64567
40
0.015748
0
CIRCLE
8
BLACK
10
7.28346
20
-2.28346
40
0.015748
0
CIRCLE
8
BLACK
10
7.28346
20
-3.07087
40
0.015748
0
CIRCLE
8
BLACK
10
7.28346
20
-3.85827
40
0.015748
0
CIRCLE
8
BLACK
10
7.46063
20
-3.50394
40
0.015748
0
LINE
8
BLACK
6
CONTINUOUS
10
7.73622
20
-3.00787
11
7.73622
21
-3.04724
0
LINE
8
BLACK
6
CONTINUOUS
10
7.71654
20
-3.02756
11
7.75591
21
-3.02756
0
LINE
8
BLACK
6
CONTINUOUS
10
7.73622
20
-3.10787
11
7.73622
21
-3.14724
0
LINE
8
BLACK
6
CONTINUOUS
10
7.71654
20
-3.12756
11
7.75591
21
-3.12756
0
LINE
8
BLACK
6
CONTINUOUS
10
7.73622
20
-3.20787
11
7.73622
21
-3.24724
0
LINE
8
BLACK
6
CONTINUOUS
10
7.71654
20
-3.22756
11
7.75591
21
-3.22756
0
LINE
8
BLACK
6
CONTINUOUS
10
7.73622
20
-3.30787
11
7.73622
21
-3.34724
0
LINE
8
BLACK
6
CONTINUOUS
10
7.71654
20
-3.32756
11
7.75591
21
-3.32756
0
LINE
8
BLACK
6
CONTINUOUS
10
7.73622
20
-3.40787
11
7.73622
21
-3.44724
0
LINE
8
BLACK
6
CONTINUOUS
10
7.71654
20
-3.42756
11
7.75591
21
-3.42756
0
LINE
8
BLACK
6
CONTINUOUS
10
7.73622
20
-3.50787
11
7.73622
21
-3.54724
0
LINE
8
BLACK
6
CONTINUOUS
10
7.71654
20
-3.52756
11
7.75591
21
-3.52756
0
LINE
8
BLACK
6
CONTINUOUS
10
7.73622
20
-3.60787
11
7.73622
21
-3.64724
0
LINE
8
BLACK
6
CONTINUOUS
10
7.71654
20
-3.62756
11
7.75591
21
-3.62756
0
LINE
8
BLACK
6
CONTINUOUS
10
7.73622
20
-3.70787
11
7.73622
21
-3.74724
0
LINE
8
BLACK
6
CONTINUOUS
10
7.71654
20
-3.72756
11
7.75591
21
-3.72756
0
LINE
8
BLACK
6
CONTINUOUS
10
7.73622
20
-3.80787
11
7.73622
21
-3.84724
0
LINE
8
BLACK
6
CONTINUOUS
10
7.71654
20
-3.82756
11
7.75591
21
-3.82756
0
LINE
8
BLACK
6
CONTINUOUS
10
7.73622
20
-3.90787
11
7.73622
21
-3.94724
0
LINE
8
BLACK
6
CONTINUOUS
10
7.71654
20
-3.92756
11
7.75591
21
-3.92756
0
LINE
8
BLACK
6
CONTINUOUS
10
7.73622
20
-4.00787
11
7.73622
21
-4.04724
0
LINE
8
BLACK
6
CONTINUOUS
10
7.71654
20
-4.02756
11
7.75591
21
-4.02756
0
LINE
8
BLACK
6
CONTINUOUS
10
7.73622
20
-4.10787
11
7.73622
21
-4.14724
0
LINE
8
BLACK
6
CONTINUOUS
10
7.71654
20
-4.12756
11
7.75591
21
-4.12756
0
LINE
8
BLACK
6
CONTINUOUS
10
7.73622
20
-4.20787
11
7.73622
21
-4.24724
0
LINE
8
BLACK
6
CONTINUOUS
10
7.71654
20
-4.22756
11
7.75591
21
-4.22756
0
LINE
8
BLACK
6
CONTINUOUS
10
7.73622
20
-4.30787
11
7.73622
21
-4.34724
0
LINE
8
BLACK
6
CONTINUOUS
10
7.71654
20
-4.32756
11
7.75591
21
-4.32756
0
LINE
8
BLACK
6
CONTINUOUS
10
7.73622
20
-4.40787
11
7.73622
21
-4.44724
0
LINE
8
BLACK
6
CONTINUOUS
10
7.71654
20
-4.42756
11
7.75591
21
-4.42756
0
LINE
8
BLACK
6
CONTINUOUS
10
7.73622
20
-4.50787
11
7.73622
21
-4.54724
0
LINE
8
BLACK
6
CONTINUOUS
10
7.71654
20
-4.52756
11
7.75591
21
-4.52756
0
LINE
8
BLACK
6
CONTINUOUS
10
7.73622
20
-4.70472
11
7.73622
21
-4.74409
0
LINE
8
BLACK
6
CONTINUOUS
10
7.71654
20
-4.72441
11
7.75591
21
-4.72441
0
LINE
8
BLACK
6
CONTINUOUS
10
4.65277
20
-2.60119
11
4.65277
21
-2.55944
0
LINE
8
BLACK
6
CONTINUOUS
10
4.65277
20
-2.55944
11
4.61101
21
-2.55944
0
LINE
8
BLACK
6
CONTINUOUS
10
4.61101
20
-2.55944
11
4.61101
21
-2.60119
0
LINE
8
BLACK
6
CONTINUOUS
10
4.61101
20
-2.60119
11
4.65277
21
-2.60119
0
LINE
8
BLACK
6
CONTINUOUS
10
4.65277
20
-3.3886
11
4.65277
21
-3.34684
0
LINE
8
BLACK
6
CONTINUOUS
10
4.65277
20
-3.34684
11
4.61101
21
-3.34684
0
LINE
8
BLACK
6
CONTINUOUS
10
4.61101
20
-3.34684
11
4.61101
21
-3.3886
0
LINE
8
BLACK
6
CONTINUOUS
10
4.61101
20
-3.3886
11
4.65277
21
-3.3886
0
LINE
8
BLACK
6
CONTINUOUS
10
4.65277
20
-4.176
11
4.65277
21
-4.13424
0
LINE
8
BLACK
6
CONTINUOUS
10
4.65277
20
-4.13424
11
4.61101
21
-4.13424
0
LINE
8
BLACK
6
CONTINUOUS
10
4.61101
20
-4.13424
11
4.61101
21
-4.176
0
LINE
8
BLACK
6
CONTINUOUS
10
4.61101
20
-4.176
11
4.65277
21
-4.176
0
LINE
8
BLACK
6
CONTINUOUS
10
4.65277
20
-4.96025
11
4.65277
21
-4.91849
0
LINE
8
BLACK
6
CONTINUOUS
10
4.65277
20
-4.91849
11
4.61101
21
-4.91849
0
LINE
8
BLACK
6
CONTINUOUS
10
4.61101
20
-4.91849
11
4.61101
21
-4.96025
0
LINE
8
BLACK
6
CONTINUOUS
10
4.61101
20
-4.96025
11
4.65277
21
-4.96025
0
LINE
8
BLACK
6
CONTINUOUS
10
4.90277
20
-2.50119
11
4.90277
21
-2.45944
0
LINE
8
BLACK
6
CONTINUOUS
10
4.90277
20
-2.45944
11
4.86101
21
-2.45944
0
LINE
8
BLACK
6
CONTINUOUS
10
4.86101
20
-2.45944
11
4.86101
21
-2.50119
0
LINE
8
BLACK
6
CONTINUOUS
10
4.86101
20
-2.50119
11
4.90277
21
-2.50119
0
LINE
8
BLACK
6
CONTINUOUS
10
4.90277
20
-3.2886
11
4.90277
21
-3.24684
0
LINE
8
BLACK
6
CONTINUOUS
10
4.90277
20
-3.24684
11
4.86101
21
-3.24684
0
LINE
8
BLACK
6
CONTINUOUS
10
4.86101
20
-3.24684
11
4.86101
21
-3.2886
0
LINE
8
BLACK
6
CONTINUOUS
10
4.86101
20
-3.2886
11
4.90277
21
-3.2886
0
LINE
8
BLACK
6
CONTINUOUS
10
4.90277
20
-4.076
11
4.90277
21
-4.03424
0
LINE
8
BLACK
6
CONTINUOUS
10
4.90277
20
-4.03424
11
4.86101
21
-4.03424
0
LINE
8
BLACK
6
CONTINUOUS
10
4.86101
20
-4.03424
11
4.86101
21
-4.076
0
LINE
8
BLACK
6
CONTINUOUS
10
4.86101
20
-4.076
11
4.90277
21
-4.076
0
LINE
8
BLACK
6
CONTINUOUS
10
4.90277
20
-4.86025
11
4.90277
21
-4.81849
0
LINE
8
BLACK
6
CONTINUOUS
10
4.90277
20
-4.81849
11
4.86101
21
-4.81849
0
LINE
8
BLACK
6
CONTINUOUS
10
4.86101
20
-4.81849
11
4.86101
21
-4.86025
0
LINE
8
BLACK
6
CONTINUOUS
10
4.86101
20
-4.86025
11
4.90277
21
-4.86025
0
LINE
8
BLACK
6
CONTINUOUS
10
5.44017
20
-2.60119
11
5.44017
21
-2.55944
0
LINE
8
BLACK
6
CONTINUOUS
10
5.44017
20
-2.55944
11
5.39841
21
-2.55944
0
LINE
8
BLACK
6
CONTINUOUS
10
5.39841
20
-2.55944
11
5.39841
21
-2.60119
0
LINE
8
BLACK
6
CONTINUOUS
10
5.39841
20
-2.60119
11
5.44017
21
-2.60119
0
LINE
8
BLACK
6
CONTINUOUS
10
5.44017
20
-3.3886
11
5.44017
21
-3.34684
0
LINE
8
BLACK
6
CONTINUOUS
10
5.44017
20
-3.34684
11
5.39841
21
-3.34684
0
LINE
8
BLACK
6
CONTINUOUS
10
5.39841
20
-3.34684
11
5.39841
21
-3.3886
0
LINE
8
BLACK
6
CONTINUOUS
10
5.39841
20
-3.3886
11
5.44017
21
-3.3886
0
LINE
8
BLACK
6
CONTINUOUS
10
5.44017
20
-4.176
11
5.44017
21
-4.13424
0
LINE
8
BLACK
6
CONTINUOUS
10
5.44017
20
-4.13424
11
5.39841
21
-4.13424
0
LINE
8
BLACK
6
CONTINUOUS
10
5.39841
20
-4.13424
11
5.39841
21
-4.176
0
LINE
8
BLACK
6
CONTINUOUS
10
5.39841
20
-4.176
11
5.44017
21
-4.176
0
LINE
8
BLACK
6
CONTINUOUS
10
5.44017
20
-4.9634
11
5.44017
21
-4.92164
0
LINE
8
BLACK
6
CONTINUOUS
10
5.44017
20
-4.92164
11
5.39841
21
-4.92164
0
LINE
8
BLACK
6
CONTINUOUS
10
5.39841
20
-4.92164
11
5.39841
21
-4.9634
0
LINE
8
BLACK
6
CONTINUOUS
10
5.39841
20
-4.9634
11
5.44017
21
-4.9634
0
LINE
8
BLACK
6
CONTINUOUS
10
5.69017
20
-2.50119
11
5.69017
21
-2.45944
0
LINE
8
BLACK
6
CONTINUOUS
10
5.69017
20
-2.45944
11
5.64841
21
-2.45944
0
LINE
8
BLACK
6
CONTINUOUS
10
5.64841
20
-2.45944
11
5.64841
21
-2.50119
0
LINE
8
BLACK
6
CONTINUOUS
10
5.64841
20
-2.50119
11
5.69017
21
-2.50119
0
LINE
8
BLACK
6
CONTINUOUS
10
5.69017
20
-3.2886
11
5.69017
21
-3.24684
0
LINE
8
BLACK
6
CONTINUOUS
10
5.69017
20
-3.24684
11
5.64841
21
-3.24684
0
LINE
8
BLACK
6
CONTINUOUS
10
5.64841
20
-3.24684
11
5.64841
21
-3.2886
0
LINE
8
BLACK
6
CONTINUOUS
10
5.64841
20
-3.2886
11
5.69017
21
-3.2886
0
LINE
8
BLACK
6
CONTINUOUS
10
5.69017
20
-4.076
11
5.69017
21
-4.03424
0
LINE
8
BLACK
6
CONTINUOUS
10
5.69017
20
-4.03424
11
5.64841
21
-4.03424
0
LINE
8
BLACK
6
CONTINUOUS
10
5.64841
20
-4.03424
11
5.64841
21
-4.076
0
LINE
8
BLACK
6
CONTINUOUS
10
5.64841
20
-4.076
11
5.69017
21
-4.076
0
LINE
8
BLACK
6
CONTINUOUS
10
5.69017
20
-4.8634
11
5.69017
21
-4.82164
0
LINE
8
BLACK
6
CONTINUOUS
10
5.69017
20
-4.82164
11
5.64841
21
-4.82164
0
LINE
8
BLACK
6
CONTINUOUS
10
5.64841
20
-4.82164
11
5.64841
21
-4.8634
0
LINE
8
BLACK
6
CONTINUOUS
10
5.64841
20
-4.8634
11
5.69017
21
-4.8634
0
LINE
8
BLACK
6
CONTINUOUS
10
6.22757
20
-2.60119
11
6.22757
21
-2.55944
0
LINE
8
BLACK
6
CONTINUOUS
10
6.22757
20
-2.55944
11
6.18581
21
-2.55944
0
LINE
8
BLACK
6
CONTINUOUS
10
6.18581
20
-2.55944
11
6.18581
21
-2.60119
0
LINE
8
BLACK
6
CONTINUOUS
10
6.18581
20
-2.60119
11
6.22757
21
-2.60119
0
LINE
8
BLACK
6
CONTINUOUS
10
6.22757
20
-3.3886
11
6.22757
21
-3.34684
0
LINE
8
BLACK
6
CONTINUOUS
10
6.22757
20
-3.34684
11
6.18581
21
-3.34684
0
LINE
8
BLACK
6
CONTINUOUS
10
6.18581
20
-3.34684
11
6.18581
21
-3.3886
0
LINE
8
BLACK
6
CONTINUOUS
10
6.18581
20
-3.3886
11
6.22757
21
-3.3886
0
LINE
8
BLACK
6
CONTINUOUS
10
6.22757
20
-4.176
11
6.22757
21
-4.13424
0
LINE
8
BLACK
6
CONTINUOUS
10
6.22757
20
-4.13424
11
6.18581
21
-4.13424
0
LINE
8
BLACK
6
CONTINUOUS
10
6.18581
20
-4.13424
11
6.18581
21
-4.176
0
LINE
8
BLACK
6
CONTINUOUS
10
6.18581
20
-4.176
11
6.22757
21
-4.176
0
LINE
8
BLACK
6
CONTINUOUS
10
6.22757
20
-4.9634
11
6.22757
21
-4.92164
0
LINE
8
BLACK
6
CONTINUOUS
10
6.22757
20
-4.92164
11
6.18581
21
-4.92164
0
LINE
8
BLACK
6
CONTINUOUS
10
6.18581
20
-4.92164
11
6.18581
21
-4.9634
0
LINE
8
BLACK
6
CONTINUOUS
10
6.18581
20
-4.9634
11
6.22757
21
-4.9634
0
LINE
8
BLACK
6
CONTINUOUS
10
6.47757
20
-2.50119
11
6.47757
21
-2.45944
0
LINE
8
BLACK
6
CONTINUOUS
10
6.47757
20
-2.45944
11
6.43581
21
-2.45944
0
LINE
8
BLACK
6
CONTINUOUS
10
6.43581
20
-2.45944
11
6.43581
21
-2.50119
0
LINE
8
BLACK
6
CONTINUOUS
10
6.43581
20
-2.50119
11
6.47757
21
-2.50119
0
LINE
8
BLACK
6
CONTINUOUS
10
6.47757
20
-3.2886
11
6.47757
21
-3.24684
0
LINE
8
BLACK
6
CONTINUOUS
10
6.47757
20
-3.24684
11
6.43581
21
-3.24684
0
LINE
8
BLACK
6
CONTINUOUS
10
6.43581
20
-3.24684
11
6.43581
21
-3.2886
0
LINE
8
BLACK
6
CONTINUOUS
10
6.43581
20
-3.2886
11
6.47757
21
-3.2886
0
LINE
8
BLACK
6
CONTINUOUS
10
6.47757
20
-4.076
11
6.47757
21
-4.03424
0
LINE
8
BLACK
6
CONTINUOUS
10
6.47757
20
-4.03424
11
6.43581
21
-4.03424
0
LINE
8
BLACK
6
CONTINUOUS
10
6.43581
20
-4.03424
11
6.43581
21
-4.076
0
LINE
8
BLACK
6
CONTINUOUS
10
6.43581
20
-4.076
11
6.47757
21
-4.076
0
LINE
8
BLACK
6
CONTINUOUS
10
6.47757
20
-4.8634
11
6.47757
21
-4.82164
0
LINE
8
BLACK
6
CONTINUOUS
10
6.47757
20
-4.82164
11
6.43581
21
-4.82164
0
LINE
8
BLACK
6
CONTINUOUS
10
6.43581
20
-4.82164
11
6.43581
21
-4.8634
0
LINE
8
BLACK
6
CONTINUOUS
10
6.43581
20
-4.8634
11
6.47757
21
-4.8634
0
LINE
8
BLACK
6
CONTINUOUS
10
7.01497
20
-2.60119
11
7.01497
21
-2.55944
0
LINE
8
BLACK
6
CONTINUOUS
10
7.01497
20
-2.55944
11
6.97322
21
-2.55944
0
LINE
8
BLACK
6
CONTINUOUS
10
6.97322
20
-2.55944
11
6.97322
21
-2.60119
0
LINE
8
BLACK
6
CONTINUOUS
10
6.97322
20
-2.60119
11
7.01497
21
-2.60119
0
LINE
8
BLACK
6
CONTINUOUS
10
7.01497
20
-3.3886
11
7.01497
21
-3.34684
0
LINE
8
BLACK
6
CONTINUOUS
10
7.01497
20
-3.34684
11
6.97322
21
-3.34684
0
LINE
8
BLACK
6
CONTINUOUS
10
6.97322
20
-3.34684
11
6.97322
21
-3.3886
0
LINE
8
BLACK
6
CONTINUOUS
10
6.97322
20
-3.3886
11
7.01497
21
-3.3886
0
LINE
8
BLACK
6
CONTINUOUS
10
7.01497
20
-4.176
11
7.01497
21
-4.13424
0
LINE
8
BLACK
6
CONTINUOUS
10
7.01497
20
-4.13424
11
6.97322
21
-4.13424
0
LINE
8
BLACK
6
CONTINUOUS
10
6.97322
20
-4.13424
11
6.97322
21
-4.176
0
LINE
8
BLACK
6
CONTINUOUS
10
6.97322
20
-4.176
11
7.01497
21
-4.176
0
LINE
8
BLACK
6
CONTINUOUS
10
7.01497
20
-4.9634
11
7.01497
21
-4.92164
0
LINE
8
BLACK
6
CONTINUOUS
10
7.01497
20
-4.92164
11
6.97322
21
-4.92164
0
LINE
8
BLACK
6
CONTINUOUS
10
6.97322
20
-4.92164
11
6.97322
21
-4.9634
0
LINE
8
BLACK
6
CONTINUOUS
10
6.97322
20
-4.9634
11
7.01497
21
-4.9634
0
LINE
8
BLACK
6
CONTINUOUS
10
7.26497
20
-2.50119
11
7.26497
21
-2.45944
0
LINE
8
BLACK
6
CONTINUOUS
10
7.26497
20
-2.45944
11
7.22322
21
-2.45944
0
LINE
8
BLACK
6
CONTINUOUS
10
7.22322
20
-2.45944
11
7.22322
21
-2.50119
0
LINE
8
BLACK
6
CONTINUOUS
10
7.22322
20
-2.50119
11
7.26497
21
-2.50119
0
LINE
8
BLACK
6
CONTINUOUS
10
7.26497
20
-3.2886
11
7.26497
21
-3.24684
0
LINE
8
BLACK
6
CONTINUOUS
10
7.26497
20
-3.24684
11
7.22322
21
-3.24684
0
LINE
8
BLACK
6
CONTINUOUS
10
7.22322
20
-3.24684
11
7.22322
21
-3.2886
0
LINE
8
BLACK
6
CONTINUOUS
10
7.22322
20
-3.2886
11
7.26497
21
-3.2886
0
LINE
8
BLACK
6
CONTINUOUS
10
7.26497
20
-4.076
11
7.26497
21
-4.03424
0
LINE
8
BLACK
6
CONTINUOUS
10
7.26497
20
-4.03424
11
7.22322
21
-4.03424
0
LINE
8
BLACK
6
CONTINUOUS
10
7.22322
20
-4.03424
11
7.22322
21
-4.076
0
LINE
8
BLACK
6
CONTINUOUS
10
7.22322
20
-4.076
11
7.26497
21
-4.076
0
LINE
8
BLACK
6
CONTINUOUS
10
7.26497
20
-4.8634
11
7.26497
21
-4.82164
0
LINE
8
BLACK
6
CONTINUOUS
10
7.26497
20
-4.82164
11
7.22322
21
-4.82164
0
LINE
8
BLACK
6
CONTINUOUS
10
7.22322
20
-4.82164
11
7.22322
21
-4.8634
0
LINE
8
BLACK
6
CONTINUOUS
10
7.22322
20
-4.8634
11
7.26497
21
-4.8634
0
LINE
8
BLACK
6
CONTINUOUS
10
4.19291
20
-1.83465
11
4.25591
21
-1.77165
0
LINE
8
BLACK
6
CONTINUOUS
10
4.25591
20
-1.77165
11
4.19291
21
-1.70866
0
LINE
8
BLACK
6
CONTINUOUS
10
4.19291
20
-1.70866
11
4.12992
21
-1.77165
0
LINE
8
BLACK
6
CONTINUOUS
10
4.12992
20
-1.77165
11
4.19291
21
-1.83465
0
LINE
8
BLACK
6
CONTINUOUS
10
4.19291
20
-5.5748
11
4.25591
21
-5.51181
0
LINE
8
BLACK
6
CONTINUOUS
10
4.25591
20
-5.51181
11
4.19291
21
-5.44882
0
LINE
8
BLACK
6
CONTINUOUS
10
4.19291
20
-5.44882
11
4.12992
21
-5.51181
0
LINE
8
BLACK
6
CONTINUOUS
10
4.12992
20
-5.51181
11
4.19291
21
-5.5748
0
LINE
8
BLACK
6
CONTINUOUS
10
7.73622
20
-1.83465
11
7.79921
21
-1.77165
0
LINE
8
BLACK
6
CONTINUOUS
10
7.79921
20
-1.77165
11
7.73622
21
-1.70866
0
LINE
8
BLACK
6
CONTINUOUS
10
7.73622
20
-1.70866
11
7.67323
21
-1.77165
0
LINE
8
BLACK
6
CONTINUOUS
10
7.67323
20
-1.77165
11
7.73622
21
-1.83465
0
LINE
8
BLACK
6
CONTINUOUS
10
7.73622
20
-5.5748
11
7.79921
21
-5.51181
0
LINE
8
BLACK
6
CONTINUOUS
10
7.79921
20
-5.51181
11
7.73622
21
-5.44882
0
LINE
8
BLACK
6
CONTINUOUS
10
7.73622
20
-5.44882
11
7.67323
21
-5.51181
0
LINE
8
BLACK
6
CONTINUOUS
10
7.67323
20
-5.51181
11
7.73622
21
-5.5748
0
LINE
8
BLACK
6
CONTINUOUS
10
4.10785
20
-5.893
11
4.10785
21
-5.77489
0
LINE
8
BLACK
6
CONTINUOUS
10
4.10785
20
-5.77489
11
4.13597
21
-5.77489
0
LINE
8
BLACK
6
CONTINUOUS
10
4.13597
20
-5.77489
11
4.15284
21
-5.78051
0
LINE
8
BLACK
6
CONTINUOUS
10
4.15284
20
-5.78051
11
4.16409
21
-5.79176
0
LINE
8
BLACK
6
CONTINUOUS
10
4.16409
20
-5.79176
11
4.16971
21
-5.80301
0
LINE
8
BLACK
6
CONTINUOUS
10
4.16971
20
-5.80301
11
4.17534
21
-5.82551
0
LINE
8
BLACK
6
CONTINUOUS
10
4.17534
20
-5.82551
11
4.17534
21
-5.84238
0
LINE
8
BLACK
6
CONTINUOUS
10
4.17534
20
-5.84238
11
4.16971
21
-5.86488
0
LINE
8
BLACK
6
CONTINUOUS
10
4.16971
20
-5.86488
11
4.16409
21
-5.87612
0
LINE
8
BLACK
6
CONTINUOUS
10
4.16409
20
-5.87612
11
4.15284
21
-5.88737
0
LINE
8
BLACK
6
CONTINUOUS
10
4.15284
20
-5.88737
11
4.13597
21
-5.893
0
LINE
8
BLACK
6
CONTINUOUS
10
4.13597
20
-5.893
11
4.10785
21
-5.893
0
LINE
8
BLACK
6
CONTINUOUS
10
4.22596
20
-5.893
11
4.22596
21
-5.81426
0
LINE
8
BLACK
6
CONTINUOUS
10
4.22596
20
-5.83675
11
4.23158
21
-5.82551
0
LINE
8
BLACK
6
CONTINUOUS
10
4.23158
20
-5.82551
11
4.2372
21
-5.81988
0
LINE
8
BLACK
6
CONTINUOUS
10
4.2372
20
-5.81988
11
4.24845
21
-5.81426
0
LINE
8
BLACK
6
CONTINUOUS
10
4.24845
20
-5.81426
11
4.2597
21
-5.81426
0
LINE
8
BLACK
6
CONTINUOUS
10
4.29907
20
-5.893
11
4.29907
21
-5.81426
0
LINE
8
BLACK
6
CONTINUOUS
10
4.29907
20
-5.77489
11
4.29345
21
-5.78051
0
LINE
8
BLACK
6
CONTINUOUS
10
4.29345
20
-5.78051
11
4.29907
21
-5.78614
0
LINE
8
BLACK
6
CONTINUOUS
10
4.29907
20
-5.78614
11
4.3047
21
-5.78051
0
LINE
8
BLACK
6
CONTINUOUS
10
4.3047
20
-5.78051
11
4.29907
21
-5.77489
0
LINE
8
BLACK
6
CONTINUOUS
10
4.29907
20
-5.77489
11
4.29907
21
-5.78614
0
LINE
8
BLACK
6
CONTINUOUS
10
4.37219
20
-5.893
11
4.36094
21
-5.88737
0
LINE
8
BLACK
6
CONTINUOUS
10
4.36094
20
-5.88737
11
4.35531
21
-5.87612
0
LINE
8
BLACK
6
CONTINUOUS
10
4.35531
20
-5.87612
11
4.35531
21
-5.77489
0
LINE
8
BLACK
6
CONTINUOUS
10
4.43406
20
-5.893
11
4.42281
21
-5.88737
0
LINE
8
BLACK
6
CONTINUOUS
10
4.42281
20
-5.88737
11
4.41718
21
-5.87612
0
LINE
8
BLACK
6
CONTINUOUS
10
4.41718
20
-5.87612
11
4.41718
21
-5.77489
0
LINE
8
BLACK
6
CONTINUOUS
10
4.56904
20
-5.893
11
4.56904
21
-5.77489
0
LINE
8
BLACK
6
CONTINUOUS
10
4.56904
20
-5.77489
11
4.60841
21
-5.85925
0
LINE
8
BLACK
6
CONTINUOUS
10
4.60841
20
-5.85925
11
4.64778
21
-5.77489
0
LINE
8
BLACK
6
CONTINUOUS
10
4.64778
20
-5.77489
11
4.64778
21
-5.893
0
LINE
8
BLACK
6
CONTINUOUS
10
4.75464
20
-5.893
11
4.75464
21
-5.83113
0
LINE
8
BLACK
6
CONTINUOUS
10
4.75464
20
-5.83113
11
4.74902
21
-5.81988
0
LINE
8
BLACK
6
CONTINUOUS
10
4.74902
20
-5.81988
11
4.73777
21
-5.81426
0
LINE
8
BLACK
6
CONTINUOUS
10
4.73777
20
-5.81426
11
4.71527
21
-5.81426
0
LINE
8
BLACK
6
CONTINUOUS
10
4.71527
20
-5.81426
11
4.70402
21
-5.81988
0
LINE
8
BLACK
6
CONTINUOUS
10
4.75464
20
-5.88737
11
4.74339
21
-5.893
0
LINE
8
BLACK
6
CONTINUOUS
10
4.74339
20
-5.893
11
4.71527
21
-5.893
0
LINE
8
BLACK
6
CONTINUOUS
10
4.71527
20
-5.893
11
4.70402
21
-5.88737
0
LINE
8
BLACK
6
CONTINUOUS
10
4.70402
20
-5.88737
11
4.6984
21
-5.87612
0
LINE
8
BLACK
6
CONTINUOUS
10
4.6984
20
-5.87612
11
4.6984
21
-5.86488
0
LINE
8
BLACK
6
CONTINUOUS
10
4.6984
20
-5.86488
11
4.70402
21
-5.85363
0
LINE
8
BLACK
6
CONTINUOUS
10
4.70402
20
-5.85363
11
4.71527
21
-5.848
0
LINE
8
BLACK
6
CONTINUOUS
10
4.71527
20
-5.848
11
4.74339
21
-5.848
0
LINE
8
BLACK
6
CONTINUOUS
10
4.74339
20
-5.848
11
4.75464
21
-5.84238
0
LINE
8
BLACK
6
CONTINUOUS
10
4.81088
20
-5.81426
11
4.81088
21
-5.93237
0
LINE
8
BLACK
6
CONTINUOUS
10
4.81088
20
-5.81988
11
4.82213
21
-5.81426
0
LINE
8
BLACK
6
CONTINUOUS
10
4.82213
20
-5.81426
11
4.84463
21
-5.81426
0
LINE
8
BLACK
6
CONTINUOUS
10
4.84463
20
-5.81426
11
4.85588
21
-5.81988
0
LINE
8
BLACK
6
CONTINUOUS
10
4.85588
20
-5.81988
11
4.8615
21
-5.82551
0
LINE
8
BLACK
6
CONTINUOUS
10
4.8615
20
-5.82551
11
4.86713
21
-5.83675
0
LINE
8
BLACK
6
CONTINUOUS
10
4.86713
20
-5.83675
11
4.86713
21
-5.8705
0
LINE
8
BLACK
6
CONTINUOUS
10
4.86713
20
-5.8705
11
4.8615
21
-5.88175
0
LINE
8
BLACK
6
CONTINUOUS
10
4.8615
20
-5.88175
11
4.85588
21
-5.88737
0
LINE
8
BLACK
6
CONTINUOUS
10
4.85588
20
-5.88737
11
4.84463
21
-5.893
0
LINE
8
BLACK
6
CONTINUOUS
10
4.84463
20
-5.893
11
4.82213
21
-5.893
0
LINE
8
BLACK
6
CONTINUOUS
10
4.82213
20
-5.893
11
4.81088
21
-5.88737
0
LINE
8
BLACK
6
CONTINUOUS
10
4.91774
20
-5.88175
11
4.92337
21
-5.88737
0
LINE
8
BLACK
6
CONTINUOUS
10
4.92337
20
-5.88737
11
4.91774
21
-5.893
0
LINE
8
BLACK
6
CONTINUOUS
10
4.91774
20
-5.893
11
4.91212
21
-5.88737
0
LINE
8
BLACK
6
CONTINUOUS
10
4.91212
20
-5.88737
11
4.91774
21
-5.88175
0
LINE
8
BLACK
6
CONTINUOUS
10
4.91774
20
-5.88175
11
4.91774
21
-5.893
0
LINE
8
BLACK
6
CONTINUOUS
10
4.91774
20
-5.81988
11
4.92337
21
-5.82551
0
LINE
8
BLACK
6
CONTINUOUS
10
4.92337
20
-5.82551
11
4.91774
21
-5.83113
0
LINE
8
BLACK
6
CONTINUOUS
10
4.91774
20
-5.83113
11
4.91212
21
-5.82551
0
LINE
8
BLACK
6
CONTINUOUS
10
4.91212
20
-5.82551
11
4.91774
21
-5.81988
0
LINE
8
BLACK
6
CONTINUOUS
10
4.91774
20
-5.81988
11
4.91774
21
-5.83113
0
LINE
8
BLACK
6
CONTINUOUS
10
3.97539
20
-6.07776
11
3.99508
21
-6.09744
0
LINE
8
BLACK
6
CONTINUOUS
10
3.99508
20
-6.07776
11
3.97539
21
-6.09744
0
LINE
8
BLACK
6
CONTINUOUS
10
4.13034
20
-6.02292
11
4.14159
21
-6.02292
0
LINE
8
BLACK
6
CONTINUOUS
10
4.14159
20
-6.02292
11
4.15284
21
-6.02854
0
LINE
8
BLACK
6
CONTINUOUS
10
4.15284
20
-6.02854
11
4.15846
21
-6.03417
0
LINE
8
BLACK
6
CONTINUOUS
10
4.15846
20
-6.03417
11
4.16409
21
-6.04542
0
LINE
8
BLACK
6
CONTINUOUS
10
4.16409
20
-6.04542
11
4.16971
21
-6.06791
0
LINE
8
BLACK
6
CONTINUOUS
10
4.16971
20
-6.06791
11
4.16971
21
-6.09603
0
LINE
8
BLACK
6
CONTINUOUS
10
4.16971
20
-6.09603
11
4.16409
21
-6.11853
0
LINE
8
BLACK
6
CONTINUOUS
10
4.16409
20
-6.11853
11
4.15846
21
-6.12978
0
LINE
8
BLACK
6
CONTINUOUS
10
4.15846
20
-6.12978
11
4.15284
21
-6.1354
0
LINE
8
BLACK
6
CONTINUOUS
10
4.15284
20
-6.1354
11
4.14159
21
-6.14103
0
LINE
8
BLACK
6
CONTINUOUS
10
4.14159
20
-6.14103
11
4.13034
21
-6.14103
0
LINE
8
BLACK
6
CONTINUOUS
10
4.13034
20
-6.14103
11
4.11909
21
-6.1354
0
LINE
8
BLACK
6
CONTINUOUS
10
4.11909
20
-6.1354
11
4.11347
21
-6.12978
0
LINE
8
BLACK
6
CONTINUOUS
10
4.11347
20
-6.12978
11
4.10785
21
-6.11853
0
LINE
8
BLACK
6
CONTINUOUS
10
4.10785
20
-6.11853
11
4.10222
21
-6.09603
0
LINE
8
BLACK
6
CONTINUOUS
10
4.10222
20
-6.09603
11
4.10222
21
-6.06791
0
LINE
8
BLACK
6
CONTINUOUS
10
4.10222
20
-6.06791
11
4.10785
21
-6.04542
0
LINE
8
BLACK
6
CONTINUOUS
10
4.10785
20
-6.04542
11
4.11347
21
-6.03417
0
LINE
8
BLACK
6
CONTINUOUS
10
4.11347
20
-6.03417
11
4.11909
21
-6.02854
0
LINE
8
BLACK
6
CONTINUOUS
10
4.11909
20
-6.02854
11
4.13034
21
-6.02292
0
LINE
8
BLACK
6
CONTINUOUS
10
4.22033
20
-6.12978
11
4.22596
21
-6.1354
0
LINE
8
BLACK
6
CONTINUOUS
10
4.22596
20
-6.1354
11
4.22033
21
-6.14103
0
LINE
8
BLACK
6
CONTINUOUS
10
4.22033
20
-6.14103
11
4.21471
21
-6.1354
0
LINE
8
BLACK
6
CONTINUOUS
10
4.21471
20
-6.1354
11
4.22033
21
-6.12978
0
LINE
8
BLACK
6
CONTINUOUS
10
4.22033
20
-6.12978
11
4.22033
21
-6.14103
0
LINE
8
BLACK
6
CONTINUOUS
10
4.33282
20
-6.02292
11
4.27657
21
-6.02292
0
LINE
8
BLACK
6
CONTINUOUS
10
4.27657
20
-6.02292
11
4.27095
21
-6.07916
0
LINE
8
BLACK
6
CONTINUOUS
10
4.27095
20
-6.07916
11
4.27657
21
-6.07354
0
LINE
8
BLACK
6
CONTINUOUS
10
4.27657
20
-6.07354
11
4.28782
21
-6.06791
0
LINE
8
BLACK
6
CONTINUOUS
10
4.28782
20
-6.06791
11
4.31594
21
-6.06791
0
LINE
8
BLACK
6
CONTINUOUS
10
4.31594
20
-6.06791
11
4.32719
21
-6.07354
0
LINE
8
BLACK
6
CONTINUOUS
10
4.32719
20
-6.07354
11
4.33282
21
-6.07916
0
LINE
8
BLACK
6
CONTINUOUS
10
4.33282
20
-6.07916
11
4.33844
21
-6.09041
0
LINE
8
BLACK
6
CONTINUOUS
10
4.33844
20
-6.09041
11
4.33844
21
-6.11853
0
LINE
8
BLACK
6
CONTINUOUS
10
4.33844
20
-6.11853
11
4.33282
21
-6.12978
0
LINE
8
BLACK
6
CONTINUOUS
10
4.33282
20
-6.12978
11
4.32719
21
-6.1354
0
LINE
8
BLACK
6
CONTINUOUS
10
4.32719
20
-6.1354
11
4.31594
21
-6.14103
0
LINE
8
BLACK
6
CONTINUOUS
10
4.31594
20
-6.14103
11
4.28782
21
-6.14103
0
LINE
8
BLACK
6
CONTINUOUS
10
4.28782
20
-6.14103
11
4.27657
21
-6.1354
0
LINE
8
BLACK
6
CONTINUOUS
10
4.27657
20
-6.1354
11
4.27095
21
-6.12978
0
LINE
8
BLACK
6
CONTINUOUS
10
4.41156
20
-6.02292
11
4.42281
21
-6.02292
0
LINE
8
BLACK
6
CONTINUOUS
10
4.42281
20
-6.02292
11
4.43406
21
-6.02854
0
LINE
8
BLACK
6
CONTINUOUS
10
4.43406
20
-6.02854
11
4.43968
21
-6.03417
0
LINE
8
BLACK
6
CONTINUOUS
10
4.43968
20
-6.03417
11
4.4453
21
-6.04542
0
LINE
8
BLACK
6
CONTINUOUS
10
4.4453
20
-6.04542
11
4.45093
21
-6.06791
0
LINE
8
BLACK
6
CONTINUOUS
10
4.45093
20
-6.06791
11
4.45093
21
-6.09603
0
LINE
8
BLACK
6
CONTINUOUS
10
4.45093
20
-6.09603
11
4.4453
21
-6.11853
0
LINE
8
BLACK
6
CONTINUOUS
10
4.4453
20
-6.11853
11
4.43968
21
-6.12978
0
LINE
8
BLACK
6
CONTINUOUS
10
4.43968
20
-6.12978
11
4.43406
21
-6.1354
0
LINE
8
BLACK
6
CONTINUOUS
10
4.43406
20
-6.1354
11
4.42281
21
-6.14103
0
LINE
8
BLACK
6
CONTINUOUS
10
4.42281
20
-6.14103
11
4.41156
21
-6.14103
0
LINE
8
BLACK
6
CONTINUOUS
10
4.41156
20
-6.14103
11
4.40031
21
-6.1354
0
LINE
8
BLACK
6
CONTINUOUS
10
4.40031
20
-6.1354
11
4.39468
21
-6.12978
0
LINE
8
BLACK
6
CONTINUOUS
10
4.39468
20
-6.12978
11
4.38906
21
-6.11853
0
LINE
8
BLACK
6
CONTINUOUS
10
4.38906
20
-6.11853
11
4.38344
21
-6.09603
0
LINE
8
BLACK
6
CONTINUOUS
10
4.38344
20
-6.09603
11
4.38344
21
-6.06791
0
LINE
8
BLACK
6
CONTINUOUS
10
4.38344
20
-6.06791
11
4.38906
21
-6.04542
0
LINE
8
BLACK
6
CONTINUOUS
10
4.38906
20
-6.04542
11
4.39468
21
-6.03417
0
LINE
8
BLACK
6
CONTINUOUS
10
4.39468
20
-6.03417
11
4.40031
21
-6.02854
0
LINE
8
BLACK
6
CONTINUOUS
10
4.40031
20
-6.02854
11
4.41156
21
-6.02292
0
LINE
8
BLACK
6
CONTINUOUS
10
4.52404
20
-6.02292
11
4.53529
21
-6.02292
0
LINE
8
BLACK
6
CONTINUOUS
10
4.53529
20
-6.02292
11
4.54654
21
-6.02854
0
LINE
8
BLACK
6
CONTINUOUS
10
4.54654
20
-6.02854
11
4.55217
21
-6.03417
0
LINE
8
BLACK
6
CONTINUOUS
10
4.55217
20
-6.03417
11
4.55779
21
-6.04542
0
LINE
8
BLACK
6
CONTINUOUS
10
4.55779
20
-6.04542
11
4.56341
21
-6.06791
0
LINE
8
BLACK
6
CONTINUOUS
10
4.56341
20
-6.06791
11
4.56341
21
-6.09603
0
LINE
8
BLACK
6
CONTINUOUS
10
4.56341
20
-6.09603
11
4.55779
21
-6.11853
0
LINE
8
BLACK
6
CONTINUOUS
10
4.55779
20
-6.11853
11
4.55217
21
-6.12978
0
LINE
8
BLACK
6
CONTINUOUS
10
4.55217
20
-6.12978
11
4.54654
21
-6.1354
0
LINE
8
BLACK
6
CONTINUOUS
10
4.54654
20
-6.1354
11
4.53529
21
-6.14103
0
LINE
8
BLACK
6
CONTINUOUS
10
4.53529
20
-6.14103
11
4.52404
21
-6.14103
0
LINE
8
BLACK
6
CONTINUOUS
10
4.52404
20
-6.14103
11
4.5128
21
-6.1354
0
LINE
8
BLACK
6
CONTINUOUS
10
4.5128
20
-6.1354
11
4.50717
21
-6.12978
0
LINE
8
BLACK
6
CONTINUOUS
10
4.50717
20
-6.12978
11
4.50155
21
-6.11853
0
LINE
8
BLACK
6
CONTINUOUS
10
4.50155
20
-6.11853
11
4.49592
21
-6.09603
0
LINE
8
BLACK
6
CONTINUOUS
10
4.49592
20
-6.09603
11
4.49592
21
-6.06791
0
LINE
8
BLACK
6
CONTINUOUS
10
4.49592
20
-6.06791
11
4.50155
21
-6.04542
0
LINE
8
BLACK
6
CONTINUOUS
10
4.50155
20
-6.04542
11
4.50717
21
-6.03417
0
LINE
8
BLACK
6
CONTINUOUS
10
4.50717
20
-6.03417
11
4.5128
21
-6.02854
0
LINE
8
BLACK
6
CONTINUOUS
10
4.5128
20
-6.02854
11
4.52404
21
-6.02292
0
LINE
8
BLACK
6
CONTINUOUS
10
4.61403
20
-6.14103
11
4.61403
21
-6.06229
0
LINE
8
BLACK
6
CONTINUOUS
10
4.61403
20
-6.07354
11
4.61966
21
-6.06791
0
LINE
8
BLACK
6
CONTINUOUS
10
4.61966
20
-6.06791
11
4.63091
21
-6.06229
0
LINE
8
BLACK
6
CONTINUOUS
10
4.63091
20
-6.06229
11
4.64778
21
-6.06229
0
LINE
8
BLACK
6
CONTINUOUS
10
4.64778
20
-6.06229
11
4.65903
21
-6.06791
0
LINE
8
BLACK
6
CONTINUOUS
10
4.65903
20
-6.06791
11
4.66465
21
-6.07916
0
LINE
8
BLACK
6
CONTINUOUS
10
4.66465
20
-6.07916
11
4.66465
21
-6.14103
0
LINE
8
BLACK
6
CONTINUOUS
10
4.66465
20
-6.07916
11
4.67028
21
-6.06791
0
LINE
8
BLACK
6
CONTINUOUS
10
4.67028
20
-6.06791
11
4.68152
21
-6.06229
0
LINE
8
BLACK
6
CONTINUOUS
10
4.68152
20
-6.06229
11
4.6984
21
-6.06229
0
LINE
8
BLACK
6
CONTINUOUS
10
4.6984
20
-6.06229
11
4.70965
21
-6.06791
0
LINE
8
BLACK
6
CONTINUOUS
10
4.70965
20
-6.06791
11
4.71527
21
-6.07916
0
LINE
8
BLACK
6
CONTINUOUS
10
4.71527
20
-6.07916
11
4.71527
21
-6.14103
0
LINE
8
BLACK
6
CONTINUOUS
10
4.77151
20
-6.14103
11
4.77151
21
-6.06229
0
LINE
8
BLACK
6
CONTINUOUS
10
4.77151
20
-6.07354
11
4.77714
21
-6.06791
0
LINE
8
BLACK
6
CONTINUOUS
10
4.77714
20
-6.06791
11
4.78839
21
-6.06229
0
LINE
8
BLACK
6
CONTINUOUS
10
4.78839
20
-6.06229
11
4.80526
21
-6.06229
0
LINE
8
BLACK
6
CONTINUOUS
10
4.80526
20
-6.06229
11
4.81651
21
-6.06791
0
LINE
8
BLACK
6
CONTINUOUS
10
4.81651
20
-6.06791
11
4.82213
21
-6.07916
0
LINE
8
BLACK
6
CONTINUOUS
10
4.82213
20
-6.07916
11
4.82213
21
-6.14103
0
LINE
8
BLACK
6
CONTINUOUS
10
4.82213
20
-6.07916
11
4.82776
21
-6.06791
0
LINE
8
BLACK
6
CONTINUOUS
10
4.82776
20
-6.06791
11
4.839
21
-6.06229
0
LINE
8
BLACK
6
CONTINUOUS
10
4.839
20
-6.06229
11
4.85588
21
-6.06229
0
LINE
8
BLACK
6
CONTINUOUS
10
4.85588
20
-6.06229
11
4.86713
21
-6.06791
0
LINE
8
BLACK
6
CONTINUOUS
10
4.86713
20
-6.06791
11
4.87275
21
-6.07916
0
LINE
8
BLACK
6
CONTINUOUS
10
4.87275
20
-6.07916
11
4.87275
21
-6.14103
0
LINE
8
BLACK
6
CONTINUOUS
10
5.10335
20
-6.01729
11
5.00211
21
-6.16915
0
LINE
8
BLACK
6
CONTINUOUS
10
5.2552
20
-6.02292
11
5.26645
21
-6.02292
0
LINE
8
BLACK
6
CONTINUOUS
10
5.26645
20
-6.02292
11
5.2777
21
-6.02854
0
LINE
8
BLACK
6
CONTINUOUS
10
5.2777
20
-6.02854
11
5.28332
21
-6.03417
0
LINE
8
BLACK
6
CONTINUOUS
10
5.28332
20
-6.03417
11
5.28895
21
-6.04542
0
LINE
8
BLACK
6
CONTINUOUS
10
5.28895
20
-6.04542
11
5.29457
21
-6.06791
0
LINE
8
BLACK
6
CONTINUOUS
10
5.29457
20
-6.06791
11
5.29457
21
-6.09603
0
LINE
8
BLACK
6
CONTINUOUS
10
5.29457
20
-6.09603
11
5.28895
21
-6.11853
0
LINE
8
BLACK
6
CONTINUOUS
10
5.28895
20
-6.11853
11
5.28332
21
-6.12978
0
LINE
8
BLACK
6
CONTINUOUS
10
5.28332
20
-6.12978
11
5.2777
21
-6.1354
0
LINE
8
BLACK
6
CONTINUOUS
10
5.2777
20
-6.1354
11
5.26645
21
-6.14103
0
LINE
8
BLACK
6
CONTINUOUS
10
5.26645
20
-6.14103
11
5.2552
21
-6.14103
0
LINE
8
BLACK
6
CONTINUOUS
10
5.2552
20
-6.14103
11
5.24395
21
-6.1354
0
LINE
8
BLACK
6
CONTINUOUS
10
5.24395
20
-6.1354
11
5.23833
21
-6.12978
0
LINE
8
BLACK
6
CONTINUOUS
10
5.23833
20
-6.12978
11
5.23271
21
-6.11853
0
LINE
8
BLACK
6
CONTINUOUS
10
5.23271
20
-6.11853
11
5.22708
21
-6.09603
0
LINE
8
BLACK
6
CONTINUOUS
10
5.22708
20
-6.09603
11
5.22708
21
-6.06791
0
LINE
8
BLACK
6
CONTINUOUS
10
5.22708
20
-6.06791
11
5.23271
21
-6.04542
0
LINE
8
BLACK
6
CONTINUOUS
10
5.23271
20
-6.04542
11
5.23833
21
-6.03417
0
LINE
8
BLACK
6
CONTINUOUS
10
5.23833
20
-6.03417
11
5.24395
21
-6.02854
0
LINE
8
BLACK
6
CONTINUOUS
10
5.24395
20
-6.02854
11
5.2552
21
-6.02292
0
LINE
8
BLACK
6
CONTINUOUS
10
5.34519
20
-6.12978
11
5.35082
21
-6.1354
0
LINE
8
BLACK
6
CONTINUOUS
10
5.35082
20
-6.1354
11
5.34519
21
-6.14103
0
LINE
8
BLACK
6
CONTINUOUS
10
5.34519
20
-6.14103
11
5.33957
21
-6.1354
0
LINE
8
BLACK
6
CONTINUOUS
10
5.33957
20
-6.1354
11
5.34519
21
-6.12978
0
LINE
8
BLACK
6
CONTINUOUS
10
5.34519
20
-6.12978
11
5.34519
21
-6.14103
0
LINE
8
BLACK
6
CONTINUOUS
10
5.42393
20
-6.02292
11
5.43518
21
-6.02292
0
LINE
8
BLACK
6
CONTINUOUS
10
5.43518
20
-6.02292
11
5.44643
21
-6.02854
0
LINE
8
BLACK
6
CONTINUOUS
10
5.44643
20
-6.02854
11
5.45205
21
-6.03417
0
LINE
8
BLACK
6
CONTINUOUS
10
5.45205
20
-6.03417
11
5.45768
21
-6.04542
0
LINE
8
BLACK
6
CONTINUOUS
10
5.45768
20
-6.04542
11
5.4633
21
-6.06791
0
LINE
8
BLACK
6
CONTINUOUS
10
5.4633
20
-6.06791
11
5.4633
21
-6.09603
0
LINE
8
BLACK
6
CONTINUOUS
10
5.4633
20
-6.09603
11
5.45768
21
-6.11853
0
LINE
8
BLACK
6
CONTINUOUS
10
5.45768
20
-6.11853
11
5.45205
21
-6.12978
0
LINE
8
BLACK
6
CONTINUOUS
10
5.45205
20
-6.12978
11
5.44643
21
-6.1354
0
LINE
8
BLACK
6
CONTINUOUS
10
5.44643
20
-6.1354
11
5.43518
21
-6.14103
0
LINE
8
BLACK
6
CONTINUOUS
10
5.43518
20
-6.14103
11
5.42393
21
-6.14103
0
LINE
8
BLACK
6
CONTINUOUS
10
5.42393
20
-6.14103
11
5.41268
21
-6.1354
0
LINE
8
BLACK
6
CONTINUOUS
10
5.41268
20
-6.1354
11
5.40706
21
-6.12978
0
LINE
8
BLACK
6
CONTINUOUS
10
5.40706
20
-6.12978
11
5.40143
21
-6.11853
0
LINE
8
BLACK
6
CONTINUOUS
10
5.40143
20
-6.11853
11
5.39581
21
-6.09603
0
LINE
8
BLACK
6
CONTINUOUS
10
5.39581
20
-6.09603
11
5.39581
21
-6.06791
0
LINE
8
BLACK
6
CONTINUOUS
10
5.39581
20
-6.06791
11
5.40143
21
-6.04542
0
LINE
8
BLACK
6
CONTINUOUS
10
5.40143
20
-6.04542
11
5.40706
21
-6.03417
0
LINE
8
BLACK
6
CONTINUOUS
10
5.40706
20
-6.03417
11
5.41268
21
-6.02854
0
LINE
8
BLACK
6
CONTINUOUS
10
5.41268
20
-6.02854
11
5.42393
21
-6.02292
0
LINE
8
BLACK
6
CONTINUOUS
10
5.57579
20
-6.14103
11
5.5083
21
-6.14103
0
LINE
8
BLACK
6
CONTINUOUS
10
5.54204
20
-6.14103
11
5.54204
21
-6.02292
0
LINE
8
BLACK
6
CONTINUOUS
10
5.54204
20
-6.02292
11
5.53079
21
-6.03979
0
LINE
8
BLACK
6
CONTINUOUS
10
5.53079
20
-6.03979
11
5.51954
21
-6.05104
0
LINE
8
BLACK
6
CONTINUOUS
10
5.51954
20
-6.05104
11
5.5083
21
-6.05666
0
LINE
8
BLACK
6
CONTINUOUS
10
5.63203
20
-6.14103
11
5.65453
21
-6.14103
0
LINE
8
BLACK
6
CONTINUOUS
10
5.65453
20
-6.14103
11
5.66578
21
-6.1354
0
LINE
8
BLACK
6
CONTINUOUS
10
5.66578
20
-6.1354
11
5.6714
21
-6.12978
0
LINE
8
BLACK
6
CONTINUOUS
10
5.6714
20
-6.12978
11
5.68265
21
-6.11291
0
LINE
8
BLACK
6
CONTINUOUS
10
5.68265
20
-6.11291
11
5.68827
21
-6.09041
0
LINE
8
BLACK
6
CONTINUOUS
10
5.68827
20
-6.09041
11
5.68827
21
-6.04542
0
LINE
8
BLACK
6
CONTINUOUS
10
5.68827
20
-6.04542
11
5.68265
21
-6.03417
0
LINE
8
BLACK
6
CONTINUOUS
10
5.68265
20
-6.03417
11
5.67702
21
-6.02854
0
LINE
8
BLACK
6
CONTINUOUS
10
5.67702
20
-6.02854
11
5.66578
21
-6.02292
0
LINE
8
BLACK
6
CONTINUOUS
10
5.66578
20
-6.02292
11
5.64328
21
-6.02292
0
LINE
8
BLACK
6
CONTINUOUS
10
5.64328
20
-6.02292
11
5.63203
21
-6.02854
0
LINE
8
BLACK
6
CONTINUOUS
10
5.63203
20
-6.02854
11
5.62641
21
-6.03417
0
LINE
8
BLACK
6
CONTINUOUS
10
5.62641
20
-6.03417
11
5.62078
21
-6.04542
0
LINE
8
BLACK
6
CONTINUOUS
10
5.62078
20
-6.04542
11
5.62078
21
-6.07354
0
LINE
8
BLACK
6
CONTINUOUS
10
5.62078
20
-6.07354
11
5.62641
21
-6.08479
0
LINE
8
BLACK
6
CONTINUOUS
10
5.62641
20
-6.08479
11
5.63203
21
-6.09041
0
LINE
8
BLACK
6
CONTINUOUS
10
5.63203
20
-6.09041
11
5.64328
21
-6.09603
0
LINE
8
BLACK
6
CONTINUOUS
10
5.64328
20
-6.09603
11
5.66578
21
-6.09603
0
LINE
8
BLACK
6
CONTINUOUS
10
5.66578
20
-6.09603
11
5.67702
21
-6.09041
0
LINE
8
BLACK
6
CONTINUOUS
10
5.67702
20
-6.09041
11
5.68265
21
-6.08479
0
LINE
8
BLACK
6
CONTINUOUS
10
5.68265
20
-6.08479
11
5.68827
21
-6.07354
0
LINE
8
BLACK
6
CONTINUOUS
10
5.72764
20
-6.02292
11
5.80638
21
-6.02292
0
LINE
8
BLACK
6
CONTINUOUS
10
5.80638
20
-6.02292
11
5.75576
21
-6.14103
0
LINE
8
BLACK
6
CONTINUOUS
10
5.84575
20
-6.02292
11
5.84575
21
-6.04542
0
LINE
8
BLACK
6
CONTINUOUS
10
5.89075
20
-6.02292
11
5.89075
21
-6.04542
0
LINE
8
BLACK
6
CONTINUOUS
10
6.0651
20
-6.18602
11
6.05948
21
-6.1804
0
LINE
8
BLACK
6
CONTINUOUS
10
6.05948
20
-6.1804
11
6.04823
21
-6.16353
0
LINE
8
BLACK
6
CONTINUOUS
10
6.04823
20
-6.16353
11
6.0426
21
-6.15228
0
LINE
8
BLACK
6
CONTINUOUS
10
6.0426
20
-6.15228
11
6.03698
21
-6.1354
0
LINE
8
BLACK
6
CONTINUOUS
10
6.03698
20
-6.1354
11
6.03136
21
-6.10728
0
LINE
8
BLACK
6
CONTINUOUS
10
6.03136
20
-6.10728
11
6.03136
21
-6.08479
0
LINE
8
BLACK
6
CONTINUOUS
10
6.03136
20
-6.08479
11
6.03698
21
-6.05666
0
LINE
8
BLACK
6
CONTINUOUS
10
6.03698
20
-6.05666
11
6.0426
21
-6.03979
0
LINE
8
BLACK
6
CONTINUOUS
10
6.0426
20
-6.03979
11
6.04823
21
-6.02854
0
LINE
8
BLACK
6
CONTINUOUS
10
6.04823
20
-6.02854
11
6.05948
21
-6.01167
0
LINE
8
BLACK
6
CONTINUOUS
10
6.05948
20
-6.01167
11
6.0651
21
-6.00605
0
LINE
8
BLACK
6
CONTINUOUS
10
6.09885
20
-6.02292
11
6.17196
21
-6.02292
0
LINE
8
BLACK
6
CONTINUOUS
10
6.17196
20
-6.02292
11
6.13259
21
-6.06791
0
LINE
8
BLACK
6
CONTINUOUS
10
6.13259
20
-6.06791
11
6.14947
21
-6.06791
0
LINE
8
BLACK
6
CONTINUOUS
10
6.14947
20
-6.06791
11
6.16071
21
-6.07354
0
LINE
8
BLACK
6
CONTINUOUS
10
6.16071
20
-6.07354
11
6.16634
21
-6.07916
0
LINE
8
BLACK
6
CONTINUOUS
10
6.16634
20
-6.07916
11
6.17196
21
-6.09041
0
LINE
8
BLACK
6
CONTINUOUS
10
6.17196
20
-6.09041
11
6.17196
21
-6.11853
0
LINE
8
BLACK
6
CONTINUOUS
10
6.17196
20
-6.11853
11
6.16634
21
-6.12978
0
LINE
8
BLACK
6
CONTINUOUS
10
6.16634
20
-6.12978
11
6.16071
21
-6.1354
0
LINE
8
BLACK
6
CONTINUOUS
10
6.16071
20
-6.1354
11
6.14947
21
-6.14103
0
LINE
8
BLACK
6
CONTINUOUS
10
6.14947
20
-6.14103
11
6.11572
21
-6.14103
0
LINE
8
BLACK
6
CONTINUOUS
10
6.11572
20
-6.14103
11
6.10447
21
-6.1354
0
LINE
8
BLACK
6
CONTINUOUS
10
6.10447
20
-6.1354
11
6.09885
21
-6.12978
0
LINE
8
BLACK
6
CONTINUOUS
10
6.21696
20
-6.03417
11
6.22258
21
-6.02854
0
LINE
8
BLACK
6
CONTINUOUS
10
6.22258
20
-6.02854
11
6.23383
21
-6.02292
0
LINE
8
BLACK
6
CONTINUOUS
10
6.23383
20
-6.02292
11
6.26195
21
-6.02292
0
LINE
8
BLACK
6
CONTINUOUS
10
6.26195
20
-6.02292
11
6.2732
21
-6.02854
0
LINE
8
BLACK
6
CONTINUOUS
10
6.2732
20
-6.02854
11
6.27882
21
-6.03417
0
LINE
8
BLACK
6
CONTINUOUS
10
6.27882
20
-6.03417
11
6.28445
21
-6.04542
0
LINE
8
BLACK
6
CONTINUOUS
10
6.28445
20
-6.04542
11
6.28445
21
-6.05666
0
LINE
8
BLACK
6
CONTINUOUS
10
6.28445
20
-6.05666
11
6.27882
21
-6.07354
0
LINE
8
BLACK
6
CONTINUOUS
10
6.27882
20
-6.07354
11
6.21133
21
-6.14103
0
LINE
8
BLACK
6
CONTINUOUS
10
6.21133
20
-6.14103
11
6.28445
21
-6.14103
0
LINE
8
BLACK
6
CONTINUOUS
10
6.42506
20
-6.14103
11
6.42506
21
-6.02292
0
LINE
8
BLACK
6
CONTINUOUS
10
6.47567
20
-6.14103
11
6.47567
21
-6.07916
0
LINE
8
BLACK
6
CONTINUOUS
10
6.47567
20
-6.07916
11
6.47005
21
-6.06791
0
LINE
8
BLACK
6
CONTINUOUS
10
6.47005
20
-6.06791
11
6.4588
21
-6.06229
0
LINE
8
BLACK
6
CONTINUOUS
10
6.4588
20
-6.06229
11
6.44193
21
-6.06229
0
LINE
8
BLACK
6
CONTINUOUS
10
6.44193
20
-6.06229
11
6.43068
21
-6.06791
0
LINE
8
BLACK
6
CONTINUOUS
10
6.43068
20
-6.06791
11
6.42506
21
-6.07354
0
LINE
8
BLACK
6
CONTINUOUS
10
6.54879
20
-6.14103
11
6.53754
21
-6.1354
0
LINE
8
BLACK
6
CONTINUOUS
10
6.53754
20
-6.1354
11
6.53192
21
-6.12978
0
LINE
8
BLACK
6
CONTINUOUS
10
6.53192
20
-6.12978
11
6.52629
21
-6.11853
0
LINE
8
BLACK
6
CONTINUOUS
10
6.52629
20
-6.11853
11
6.52629
21
-6.08479
0
LINE
8
BLACK
6
CONTINUOUS
10
6.52629
20
-6.08479
11
6.53192
21
-6.07354
0
LINE
8
BLACK
6
CONTINUOUS
10
6.53192
20
-6.07354
11
6.53754
21
-6.06791
0
LINE
8
BLACK
6
CONTINUOUS
10
6.53754
20
-6.06791
11
6.54879
21
-6.06229
0
LINE
8
BLACK
6
CONTINUOUS
10
6.54879
20
-6.06229
11
6.56566
21
-6.06229
0
LINE
8
BLACK
6
CONTINUOUS
10
6.56566
20
-6.06229
11
6.57691
21
-6.06791
0
LINE
8
BLACK
6
CONTINUOUS
10
6.57691
20
-6.06791
11
6.58254
21
-6.07354
0
LINE
8
BLACK
6
CONTINUOUS
10
6.58254
20
-6.07354
11
6.58816
21
-6.08479
0
LINE
8
BLACK
6
CONTINUOUS
10
6.58816
20
-6.08479
11
6.58816
21
-6.11853
0
LINE
8
BLACK
6
CONTINUOUS
10
6.58816
20
-6.11853
11
6.58254
21
-6.12978
0
LINE
8
BLACK
6
CONTINUOUS
10
6.58254
20
-6.12978
11
6.57691
21
-6.1354
0
LINE
8
BLACK
6
CONTINUOUS
10
6.57691
20
-6.1354
11
6.56566
21
-6.14103
0
LINE
8
BLACK
6
CONTINUOUS
10
6.56566
20
-6.14103
11
6.54879
21
-6.14103
0
LINE
8
BLACK
6
CONTINUOUS
10
6.65565
20
-6.14103
11
6.6444
21
-6.1354
0
LINE
8
BLACK
6
CONTINUOUS
10
6.6444
20
-6.1354
11
6.63878
21
-6.12416
0
LINE
8
BLACK
6
CONTINUOUS
10
6.63878
20
-6.12416
11
6.63878
21
-6.02292
0
LINE
8
BLACK
6
CONTINUOUS
10
6.74564
20
-6.1354
11
6.73439
21
-6.14103
0
LINE
8
BLACK
6
CONTINUOUS
10
6.73439
20
-6.14103
11
6.7119
21
-6.14103
0
LINE
8
BLACK
6
CONTINUOUS
10
6.7119
20
-6.14103
11
6.70065
21
-6.1354
0
LINE
8
BLACK
6
CONTINUOUS
10
6.70065
20
-6.1354
11
6.69502
21
-6.12416
0
LINE
8
BLACK
6
CONTINUOUS
10
6.69502
20
-6.12416
11
6.69502
21
-6.07916
0
LINE
8
BLACK
6
CONTINUOUS
10
6.69502
20
-6.07916
11
6.70065
21
-6.06791
0
LINE
8
BLACK
6
CONTINUOUS
10
6.70065
20
-6.06791
11
6.7119
21
-6.06229
0
LINE
8
BLACK
6
CONTINUOUS
10
6.7119
20
-6.06229
11
6.73439
21
-6.06229
0
LINE
8
BLACK
6
CONTINUOUS
10
6.73439
20
-6.06229
11
6.74564
21
-6.06791
0
LINE
8
BLACK
6
CONTINUOUS
10
6.74564
20
-6.06791
11
6.75127
21
-6.07916
0
LINE
8
BLACK
6
CONTINUOUS
10
6.75127
20
-6.07916
11
6.75127
21
-6.09041
0
LINE
8
BLACK
6
CONTINUOUS
10
6.75127
20
-6.09041
11
6.69502
21
-6.10166
0
LINE
8
BLACK
6
CONTINUOUS
10
6.79626
20
-6.1354
11
6.80751
21
-6.14103
0
LINE
8
BLACK
6
CONTINUOUS
10
6.80751
20
-6.14103
11
6.83001
21
-6.14103
0
LINE
8
BLACK
6
CONTINUOUS
10
6.83001
20
-6.14103
11
6.84125
21
-6.1354
0
LINE
8
BLACK
6
CONTINUOUS
10
6.84125
20
-6.1354
11
6.84688
21
-6.12416
0
LINE
8
BLACK
6
CONTINUOUS
10
6.84688
20
-6.12416
11
6.84688
21
-6.11853
0
LINE
8
BLACK
6
CONTINUOUS
10
6.84688
20
-6.11853
11
6.84125
21
-6.10728
0
LINE
8
BLACK
6
CONTINUOUS
10
6.84125
20
-6.10728
11
6.83001
21
-6.10166
0
LINE
8
BLACK
6
CONTINUOUS
10
6.83001
20
-6.10166
11
6.81313
21
-6.10166
0
LINE
8
BLACK
6
CONTINUOUS
10
6.81313
20
-6.10166
11
6.80188
21
-6.09603
0
LINE
8
BLACK
6
CONTINUOUS
10
6.80188
20
-6.09603
11
6.79626
21
-6.08479
0
LINE
8
BLACK
6
CONTINUOUS
10
6.79626
20
-6.08479
11
6.79626
21
-6.07916
0
LINE
8
BLACK
6
CONTINUOUS
10
6.79626
20
-6.07916
11
6.80188
21
-6.06791
0
LINE
8
BLACK
6
CONTINUOUS
10
6.80188
20
-6.06791
11
6.81313
21
-6.06229
0
LINE
8
BLACK
6
CONTINUOUS
10
6.81313
20
-6.06229
11
6.83001
21
-6.06229
0
LINE
8
BLACK
6
CONTINUOUS
10
6.83001
20
-6.06229
11
6.84125
21
-6.06791
0
LINE
8
BLACK
6
CONTINUOUS
10
6.88625
20
-6.18602
11
6.89187
21
-6.1804
0
LINE
8
BLACK
6
CONTINUOUS
10
6.89187
20
-6.1804
11
6.90312
21
-6.16353
0
LINE
8
BLACK
6
CONTINUOUS
10
6.90312
20
-6.16353
11
6.90875
21
-6.15228
0
LINE
8
BLACK
6
CONTINUOUS
10
6.90875
20
-6.15228
11
6.91437
21
-6.1354
0
LINE
8
BLACK
6
CONTINUOUS
10
6.91437
20
-6.1354
11
6.91999
21
-6.10728
0
LINE
8
BLACK
6
CONTINUOUS
10
6.91999
20
-6.10728
11
6.91999
21
-6.08479
0
LINE
8
BLACK
6
CONTINUOUS
10
6.91999
20
-6.08479
11
6.91437
21
-6.05666
0
LINE
8
BLACK
6
CONTINUOUS
10
6.91437
20
-6.05666
11
6.90875
21
-6.03979
0
LINE
8
BLACK
6
CONTINUOUS
10
6.90875
20
-6.03979
11
6.90312
21
-6.02854
0
LINE
8
BLACK
6
CONTINUOUS
10
6.90312
20
-6.02854
11
6.89187
21
-6.01167
0
LINE
8
BLACK
6
CONTINUOUS
10
6.89187
20
-6.01167
11
6.88625
21
-6.00605
0
CIRCLE
8
BLACK
10
3.97933
20
-6.2435
40
0.015748
0
LINE
8
BLACK
6
CONTINUOUS
10
4.13034
20
-6.17882
11
4.14159
21
-6.17882
0
LINE
8
BLACK
6
CONTINUOUS
10
4.14159
20
-6.17882
11
4.15284
21
-6.18445
0
LINE
8
BLACK
6
CONTINUOUS
10
4.15284
20
-6.18445
11
4.15846
21
-6.19007
0
LINE
8
BLACK
6
CONTINUOUS
10
4.15846
20
-6.19007
11
4.16409
21
-6.20132
0
LINE
8
BLACK
6
CONTINUOUS
10
4.16409
20
-6.20132
11
4.16971
21
-6.22382
0
LINE
8
BLACK
6
CONTINUOUS
10
4.16971
20
-6.22382
11
4.16971
21
-6.25194
0
LINE
8
BLACK
6
CONTINUOUS
10
4.16971
20
-6.25194
11
4.16409
21
-6.27444
0
LINE
8
BLACK
6
CONTINUOUS
10
4.16409
20
-6.27444
11
4.15846
21
-6.28569
0
LINE
8
BLACK
6
CONTINUOUS
10
4.15846
20
-6.28569
11
4.15284
21
-6.29131
0
LINE
8
BLACK
6
CONTINUOUS
10
4.15284
20
-6.29131
11
4.14159
21
-6.29693
0
LINE
8
BLACK
6
CONTINUOUS
10
4.14159
20
-6.29693
11
4.13034
21
-6.29693
0
LINE
8
BLACK
6
CONTINUOUS
10
4.13034
20
-6.29693
11
4.11909
21
-6.29131
0
LINE
8
BLACK
6
CONTINUOUS
10
4.11909
20
-6.29131
11
4.11347
21
-6.28569
0
LINE
8
BLACK
6
CONTINUOUS
10
4.11347
20
-6.28569
11
4.10785
21
-6.27444
0
LINE
8
BLACK
6
CONTINUOUS
10
4.10785
20
-6.27444
11
4.10222
21
-6.25194
0
LINE
8
BLACK
6
CONTINUOUS
10
4.10222
20
-6.25194
11
4.10222
21
-6.22382
0
LINE
8
BLACK
6
CONTINUOUS
10
4.10222
20
-6.22382
11
4.10785
21
-6.20132
0
LINE
8
BLACK
6
CONTINUOUS
10
4.10785
20
-6.20132
11
4.11347
21
-6.19007
0
LINE
8
BLACK
6
CONTINUOUS
10
4.11347
20
-6.19007
11
4.11909
21
-6.18445
0
LINE
8
BLACK
6
CONTINUOUS
10
4.11909
20
-6.18445
11
4.13034
21
-6.17882
0
LINE
8
BLACK
6
CONTINUOUS
10
4.22033
20
-6.28569
11
4.22596
21
-6.29131
0
LINE
8
BLACK
6
CONTINUOUS
10
4.22596
20
-6.29131
11
4.22033
21
-6.29693
0
LINE
8
BLACK
6
CONTINUOUS
10
4.22033
20
-6.29693
11
4.21471
21
-6.29131
0
LINE
8
BLACK
6
CONTINUOUS
10
4.21471
20
-6.29131
11
4.22033
21
-6.28569
0
LINE
8
BLACK
6
CONTINUOUS
10
4.22033
20
-6.28569
11
4.22033
21
-6.29693
0
LINE
8
BLACK
6
CONTINUOUS
10
4.29345
20
-6.22944
11
4.2822
21
-6.22382
0
LINE
8
BLACK
6
CONTINUOUS
10
4.2822
20
-6.22382
11
4.27657
21
-6.21819
0
LINE
8
BLACK
6
CONTINUOUS
10
4.27657
20
-6.21819
11
4.27095
21
-6.20695
0
LINE
8
BLACK
6
CONTINUOUS
10
4.27095
20
-6.20695
11
4.27095
21
-6.20132
0
LINE
8
BLACK
6
CONTINUOUS
10
4.27095
20
-6.20132
11
4.27657
21
-6.19007
0
LINE
8
BLACK
6
CONTINUOUS
10
4.27657
20
-6.19007
11
4.2822
21
-6.18445
0
LINE
8
BLACK
6
CONTINUOUS
10
4.2822
20
-6.18445
11
4.29345
21
-6.17882
0
LINE
8
BLACK
6
CONTINUOUS
10
4.29345
20
-6.17882
11
4.31594
21
-6.17882
0
LINE
8
BLACK
6
CONTINUOUS
10
4.31594
20
-6.17882
11
4.32719
21
-6.18445
0
LINE
8
BLACK
6
CONTINUOUS
10
4.32719
20
-6.18445
11
4.33282
21
-6.19007
0
LINE
8
BLACK
6
CONTINUOUS
10
4.33282
20
-6.19007
11
4.33844
21
-6.20132
0
LINE
8
BLACK
6
CONTINUOUS
10
4.33844
20
-6.20132
11
4.33844
21
-6.20695
0
LINE
8
BLACK
6
CONTINUOUS
10
4.33844
20
-6.20695
11
4.33282
21
-6.21819
0
LINE
8
BLACK
6
CONTINUOUS
10
4.33282
20
-6.21819
11
4.32719
21
-6.22382
0
LINE
8
BLACK
6
CONTINUOUS
10
4.32719
20
-6.22382
11
4.31594
21
-6.22944
0
LINE
8
BLACK
6
CONTINUOUS
10
4.31594
20
-6.22944
11
4.29345
21
-6.22944
0
LINE
8
BLACK
6
CONTINUOUS
10
4.29345
20
-6.22944
11
4.2822
21
-6.23507
0
LINE
8
BLACK
6
CONTINUOUS
10
4.2822
20
-6.23507
11
4.27657
21
-6.24069
0
LINE
8
BLACK
6
CONTINUOUS
10
4.27657
20
-6.24069
11
4.27095
21
-6.25194
0
LINE
8
BLACK
6
CONTINUOUS
10
4.27095
20
-6.25194
11
4.27095
21
-6.27444
0
LINE
8
BLACK
6
CONTINUOUS
10
4.27095
20
-6.27444
11
4.27657
21
-6.28569
0
LINE
8
BLACK
6
CONTINUOUS
10
4.27657
20
-6.28569
11
4.2822
21
-6.29131
0
LINE
8
BLACK
6
CONTINUOUS
10
4.2822
20
-6.29131
11
4.29345
21
-6.29693
0
LINE
8
BLACK
6
CONTINUOUS
10
4.29345
20
-6.29693
11
4.31594
21
-6.29693
0
LINE
8
BLACK
6
CONTINUOUS
10
4.31594
20
-6.29693
11
4.32719
21
-6.29131
0
LINE
8
BLACK
6
CONTINUOUS
10
4.32719
20
-6.29131
11
4.33282
21
-6.28569
0
LINE
8
BLACK
6
CONTINUOUS
10
4.33282
20
-6.28569
11
4.33844
21
-6.27444
0
LINE
8
BLACK
6
CONTINUOUS
10
4.33844
20
-6.27444
11
4.33844
21
-6.25194
0
LINE
8
BLACK
6
CONTINUOUS
10
4.33844
20
-6.25194
11
4.33282
21
-6.24069
0
LINE
8
BLACK
6
CONTINUOUS
10
4.33282
20
-6.24069
11
4.32719
21
-6.23507
0
LINE
8
BLACK
6
CONTINUOUS
10
4.32719
20
-6.23507
11
4.31594
21
-6.22944
0
LINE
8
BLACK
6
CONTINUOUS
10
4.41156
20
-6.17882
11
4.42281
21
-6.17882
0
LINE
8
BLACK
6
CONTINUOUS
10
4.42281
20
-6.17882
11
4.43406
21
-6.18445
0
LINE
8
BLACK
6
CONTINUOUS
10
4.43406
20
-6.18445
11
4.43968
21
-6.19007
0
LINE
8
BLACK
6
CONTINUOUS
10
4.43968
20
-6.19007
11
4.4453
21
-6.20132
0
LINE
8
BLACK
6
CONTINUOUS
10
4.4453
20
-6.20132
11
4.45093
21
-6.22382
0
LINE
8
BLACK
6
CONTINUOUS
10
4.45093
20
-6.22382
11
4.45093
21
-6.25194
0
LINE
8
BLACK
6
CONTINUOUS
10
4.45093
20
-6.25194
11
4.4453
21
-6.27444
0
LINE
8
BLACK
6
CONTINUOUS
10
4.4453
20
-6.27444
11
4.43968
21
-6.28569
0
LINE
8
BLACK
6
CONTINUOUS
10
4.43968
20
-6.28569
11
4.43406
21
-6.29131
0
LINE
8
BLACK
6
CONTINUOUS
10
4.43406
20
-6.29131
11
4.42281
21
-6.29693
0
LINE
8
BLACK
6
CONTINUOUS
10
4.42281
20
-6.29693
11
4.41156
21
-6.29693
0
LINE
8
BLACK
6
CONTINUOUS
10
4.41156
20
-6.29693
11
4.40031
21
-6.29131
0
LINE
8
BLACK
6
CONTINUOUS
10
4.40031
20
-6.29131
11
4.39468
21
-6.28569
0
LINE
8
BLACK
6
CONTINUOUS
10
4.39468
20
-6.28569
11
4.38906
21
-6.27444
0
LINE
8
BLACK
6
CONTINUOUS
10
4.38906
20
-6.27444
11
4.38344
21
-6.25194
0
LINE
8
BLACK
6
CONTINUOUS
10
4.38344
20
-6.25194
11
4.38344
21
-6.22382
0
LINE
8
BLACK
6
CONTINUOUS
10
4.38344
20
-6.22382
11
4.38906
21
-6.20132
0
LINE
8
BLACK
6
CONTINUOUS
10
4.38906
20
-6.20132
11
4.39468
21
-6.19007
0
LINE
8
BLACK
6
CONTINUOUS
10
4.39468
20
-6.19007
11
4.40031
21
-6.18445
0
LINE
8
BLACK
6
CONTINUOUS
10
4.40031
20
-6.18445
11
4.41156
21
-6.17882
0
LINE
8
BLACK
6
CONTINUOUS
10
4.52404
20
-6.17882
11
4.53529
21
-6.17882
0
LINE
8
BLACK
6
CONTINUOUS
10
4.53529
20
-6.17882
11
4.54654
21
-6.18445
0
LINE
8
BLACK
6
CONTINUOUS
10
4.54654
20
-6.18445
11
4.55217
21
-6.19007
0
LINE
8
BLACK
6
CONTINUOUS
10
4.55217
20
-6.19007
11
4.55779
21
-6.20132
0
LINE
8
BLACK
6
CONTINUOUS
10
4.55779
20
-6.20132
11
4.56341
21
-6.22382
0
LINE
8
BLACK
6
CONTINUOUS
10
4.56341
20
-6.22382
11
4.56341
21
-6.25194
0
LINE
8
BLACK
6
CONTINUOUS
10
4.56341
20
-6.25194
11
4.55779
21
-6.27444
0
LINE
8
BLACK
6
CONTINUOUS
10
4.55779
20
-6.27444
11
4.55217
21
-6.28569
0
LINE
8
BLACK
6
CONTINUOUS
10
4.55217
20
-6.28569
11
4.54654
21
-6.29131
0
LINE
8
BLACK
6
CONTINUOUS
10
4.54654
20
-6.29131
11
4.53529
21
-6.29693
0
LINE
8
BLACK
6
CONTINUOUS
10
4.53529
20
-6.29693
11
4.52404
21
-6.29693
0
LINE
8
BLACK
6
CONTINUOUS
10
4.52404
20
-6.29693
11
4.5128
21
-6.29131
0
LINE
8
BLACK
6
CONTINUOUS
10
4.5128
20
-6.29131
11
4.50717
21
-6.28569
0
LINE
8
BLACK
6
CONTINUOUS
10
4.50717
20
-6.28569
11
4.50155
21
-6.27444
0
LINE
8
BLACK
6
CONTINUOUS
10
4.50155
20
-6.27444
11
4.49592
21
-6.25194
0
LINE
8
BLACK
6
CONTINUOUS
10
4.49592
20
-6.25194
11
4.49592
21
-6.22382
0
LINE
8
BLACK
6
CONTINUOUS
10
4.49592
20
-6.22382
11
4.50155
21
-6.20132
0
LINE
8
BLACK
6
CONTINUOUS
10
4.50155
20
-6.20132
11
4.50717
21
-6.19007
0
LINE
8
BLACK
6
CONTINUOUS
10
4.50717
20
-6.19007
11
4.5128
21
-6.18445
0
LINE
8
BLACK
6
CONTINUOUS
10
4.5128
20
-6.18445
11
4.52404
21
-6.17882
0
LINE
8
BLACK
6
CONTINUOUS
10
4.61403
20
-6.29693
11
4.61403
21
-6.21819
0
LINE
8
BLACK
6
CONTINUOUS
10
4.61403
20
-6.22944
11
4.61966
21
-6.22382
0
LINE
8
BLACK
6
CONTINUOUS
10
4.61966
20
-6.22382
11
4.63091
21
-6.21819
0
LINE
8
BLACK
6
CONTINUOUS
10
4.63091
20
-6.21819
11
4.64778
21
-6.21819
0
LINE
8
BLACK
6
CONTINUOUS
10
4.64778
20
-6.21819
11
4.65903
21
-6.22382
0
LINE
8
BLACK
6
CONTINUOUS
10
4.65903
20
-6.22382
11
4.66465
21
-6.23507
0
LINE
8
BLACK
6
CONTINUOUS
10
4.66465
20
-6.23507
11
4.66465
21
-6.29693
0
LINE
8
BLACK
6
CONTINUOUS
10
4.66465
20
-6.23507
11
4.67028
21
-6.22382
0
LINE
8
BLACK
6
CONTINUOUS
10
4.67028
20
-6.22382
11
4.68152
21
-6.21819
0
LINE
8
BLACK
6
CONTINUOUS
10
4.68152
20
-6.21819
11
4.6984
21
-6.21819
0
LINE
8
BLACK
6
CONTINUOUS
10
4.6984
20
-6.21819
11
4.70965
21
-6.22382
0
LINE
8
BLACK
6
CONTINUOUS
10
4.70965
20
-6.22382
11
4.71527
21
-6.23507
0
LINE
8
BLACK
6
CONTINUOUS
10
4.71527
20
-6.23507
11
4.71527
21
-6.29693
0
LINE
8
BLACK
6
CONTINUOUS
10
4.77151
20
-6.29693
11
4.77151
21
-6.21819
0
LINE
8
BLACK
6
CONTINUOUS
10
4.77151
20
-6.22944
11
4.77714
21
-6.22382
0
LINE
8
BLACK
6
CONTINUOUS
10
4.77714
20
-6.22382
11
4.78839
21
-6.21819
0
LINE
8
BLACK
6
CONTINUOUS
10
4.78839
20
-6.21819
11
4.80526
21
-6.21819
0
LINE
8
BLACK
6
CONTINUOUS
10
4.80526
20
-6.21819
11
4.81651
21
-6.22382
0
LINE
8
BLACK
6
CONTINUOUS
10
4.81651
20
-6.22382
11
4.82213
21
-6.23507
0
LINE
8
BLACK
6
CONTINUOUS
10
4.82213
20
-6.23507
11
4.82213
21
-6.29693
0
LINE
8
BLACK
6
CONTINUOUS
10
4.82213
20
-6.23507
11
4.82776
21
-6.22382
0
LINE
8
BLACK
6
CONTINUOUS
10
4.82776
20
-6.22382
11
4.839
21
-6.21819
0
LINE
8
BLACK
6
CONTINUOUS
10
4.839
20
-6.21819
11
4.85588
21
-6.21819
0
LINE
8
BLACK
6
CONTINUOUS
10
4.85588
20
-6.21819
11
4.86713
21
-6.22382
0
LINE
8
BLACK
6
CONTINUOUS
10
4.86713
20
-6.22382
11
4.87275
21
-6.23507
0
LINE
8
BLACK
6
CONTINUOUS
10
4.87275
20
-6.23507
11
4.87275
21
-6.29693
0
LINE
8
BLACK
6
CONTINUOUS
10
5.10335
20
-6.1732
11
5.00211
21
-6.32506
0
LINE
8
BLACK
6
CONTINUOUS
10
5.2552
20
-6.17882
11
5.26645
21
-6.17882
0
LINE
8
BLACK
6
CONTINUOUS
10
5.26645
20
-6.17882
11
5.2777
21
-6.18445
0
LINE
8
BLACK
6
CONTINUOUS
10
5.2777
20
-6.18445
11
5.28332
21
-6.19007
0
LINE
8
BLACK
6
CONTINUOUS
10
5.28332
20
-6.19007
11
5.28895
21
-6.20132
0
LINE
8
BLACK
6
CONTINUOUS
10
5.28895
20
-6.20132
11
5.29457
21
-6.22382
0
LINE
8
BLACK
6
CONTINUOUS
10
5.29457
20
-6.22382
11
5.29457
21
-6.25194
0
LINE
8
BLACK
6
CONTINUOUS
10
5.29457
20
-6.25194
11
5.28895
21
-6.27444
0
LINE
8
BLACK
6
CONTINUOUS
10
5.28895
20
-6.27444
11
5.28332
21
-6.28569
0
LINE
8
BLACK
6
CONTINUOUS
10
5.28332
20
-6.28569
11
5.2777
21
-6.29131
0
LINE
8
BLACK
6
CONTINUOUS
10
5.2777
20
-6.29131
11
5.26645
21
-6.29693
0
LINE
8
BLACK
6
CONTINUOUS
10
5.26645
20
-6.29693
11
5.2552
21
-6.29693
0
LINE
8
BLACK
6
CONTINUOUS
10
5.2552
20
-6.29693
11
5.24395
21
-6.29131
0
LINE
8
BLACK
6
CONTINUOUS
10
5.24395
20
-6.29131
11
5.23833
21
-6.28569
0
LINE
8
BLACK
6
CONTINUOUS
10
5.23833
20
-6.28569
11
5.23271
21
-6.27444
0
LINE
8
BLACK
6
CONTINUOUS
10
5.23271
20
-6.27444
11
5.22708
21
-6.25194
0
LINE
8
BLACK
6
CONTINUOUS
10
5.22708
20
-6.25194
11
5.22708
21
-6.22382
0
LINE
8
BLACK
6
CONTINUOUS
10
5.22708
20
-6.22382
11
5.23271
21
-6.20132
0
LINE
8
BLACK
6
CONTINUOUS
10
5.23271
20
-6.20132
11
5.23833
21
-6.19007
0
LINE
8
BLACK
6
CONTINUOUS
10
5.23833
20
-6.19007
11
5.24395
21
-6.18445
0
LINE
8
BLACK
6
CONTINUOUS
10
5.24395
20
-6.18445
11
5.2552
21
-6.17882
0
LINE
8
BLACK
6
CONTINUOUS
10
5.34519
20
-6.28569
11
5.35082
21
-6.29131
0
LINE
8
BLACK
6
CONTINUOUS
10
5.35082
20
-6.29131
11
5.34519
21
-6.29693
0
LINE
8
BLACK
6
CONTINUOUS
10
5.34519
20
-6.29693
11
5.33957
21
-6.29131
0
LINE
8
BLACK
6
CONTINUOUS
10
5.33957
20
-6.29131
11
5.34519
21
-6.28569
0
LINE
8
BLACK
6
CONTINUOUS
10
5.34519
20
-6.28569
11
5.34519
21
-6.29693
0
LINE
8
BLACK
6
CONTINUOUS
10
5.42393
20
-6.17882
11
5.43518
21
-6.17882
0
LINE
8
BLACK
6
CONTINUOUS
10
5.43518
20
-6.17882
11
5.44643
21
-6.18445
0
LINE
8
BLACK
6
CONTINUOUS
10
5.44643
20
-6.18445
11
5.45205
21
-6.19007
0
LINE
8
BLACK
6
CONTINUOUS
10
5.45205
20
-6.19007
11
5.45768
21
-6.20132
0
LINE
8
BLACK
6
CONTINUOUS
10
5.45768
20
-6.20132
11
5.4633
21
-6.22382
0
LINE
8
BLACK
6
CONTINUOUS
10
5.4633
20
-6.22382
11
5.4633
21
-6.25194
0
LINE
8
BLACK
6
CONTINUOUS
10
5.4633
20
-6.25194
11
5.45768
21
-6.27444
0
LINE
8
BLACK
6
CONTINUOUS
10
5.45768
20
-6.27444
11
5.45205
21
-6.28569
0
LINE
8
BLACK
6
CONTINUOUS
10
5.45205
20
-6.28569
11
5.44643
21
-6.29131
0
LINE
8
BLACK
6
CONTINUOUS
10
5.44643
20
-6.29131
11
5.43518
21
-6.29693
0
LINE
8
BLACK
6
CONTINUOUS
10
5.43518
20
-6.29693
11
5.42393
21
-6.29693
0
LINE
8
BLACK
6
CONTINUOUS
10
5.42393
20
-6.29693
11
5.41268
21
-6.29131
0
LINE
8
BLACK
6
CONTINUOUS
10
5.41268
20
-6.29131
11
5.40706
21
-6.28569
0
LINE
8
BLACK
6
CONTINUOUS
10
5.40706
20
-6.28569
11
5.40143
21
-6.27444
0
LINE
8
BLACK
6
CONTINUOUS
10
5.40143
20
-6.27444
11
5.39581
21
-6.25194
0
LINE
8
BLACK
6
CONTINUOUS
10
5.39581
20
-6.25194
11
5.39581
21
-6.22382
0
LINE
8
BLACK
6
CONTINUOUS
10
5.39581
20
-6.22382
11
5.40143
21
-6.20132
0
LINE
8
BLACK
6
CONTINUOUS
10
5.40143
20
-6.20132
11
5.40706
21
-6.19007
0
LINE
8
BLACK
6
CONTINUOUS
10
5.40706
20
-6.19007
11
5.41268
21
-6.18445
0
LINE
8
BLACK
6
CONTINUOUS
10
5.41268
20
-6.18445
11
5.42393
21
-6.17882
0
LINE
8
BLACK
6
CONTINUOUS
10
5.50267
20
-6.17882
11
5.57579
21
-6.17882
0
LINE
8
BLACK
6
CONTINUOUS
10
5.57579
20
-6.17882
11
5.53642
21
-6.22382
0
LINE
8
BLACK
6
CONTINUOUS
10
5.53642
20
-6.22382
11
5.55329
21
-6.22382
0
LINE
8
BLACK
6
CONTINUOUS
10
5.55329
20
-6.22382
11
5.56454
21
-6.22944
0
LINE
8
BLACK
6
CONTINUOUS
10
5.56454
20
-6.22944
11
5.57016
21
-6.23507
0
LINE
8
BLACK
6
CONTINUOUS
10
5.57016
20
-6.23507
11
5.57579
21
-6.24632
0
LINE
8
BLACK
6
CONTINUOUS
10
5.57579
20
-6.24632
11
5.57579
21
-6.27444
0
LINE
8
BLACK
6
CONTINUOUS
10
5.57579
20
-6.27444
11
5.57016
21
-6.28569
0
LINE
8
BLACK
6
CONTINUOUS
10
5.57016
20
-6.28569
11
5.56454
21
-6.29131
0
LINE
8
BLACK
6
CONTINUOUS
10
5.56454
20
-6.29131
11
5.55329
21
-6.29693
0
LINE
8
BLACK
6
CONTINUOUS
10
5.55329
20
-6.29693
11
5.51954
21
-6.29693
0
LINE
8
BLACK
6
CONTINUOUS
10
5.51954
20
-6.29693
11
5.5083
21
-6.29131
0
LINE
8
BLACK
6
CONTINUOUS
10
5.5083
20
-6.29131
11
5.50267
21
-6.28569
0
LINE
8
BLACK
6
CONTINUOUS
10
5.68827
20
-6.29693
11
5.62078
21
-6.29693
0
LINE
8
BLACK
6
CONTINUOUS
10
5.65453
20
-6.29693
11
5.65453
21
-6.17882
0
LINE
8
BLACK
6
CONTINUOUS
10
5.65453
20
-6.17882
11
5.64328
21
-6.1957
0
LINE
8
BLACK
6
CONTINUOUS
10
5.64328
20
-6.1957
11
5.63203
21
-6.20695
0
LINE
8
BLACK
6
CONTINUOUS
10
5.63203
20
-6.20695
11
5.62078
21
-6.21257
0
LINE
8
BLACK
6
CONTINUOUS
10
5.79513
20
-6.17882
11
5.73889
21
-6.17882
0
LINE
8
BLACK
6
CONTINUOUS
10
5.73889
20
-6.17882
11
5.73327
21
-6.23507
0
LINE
8
BLACK
6
CONTINUOUS
10
5.73327
20
-6.23507
11
5.73889
21
-6.22944
0
LINE
8
BLACK
6
CONTINUOUS
10
5.73889
20
-6.22944
11
5.75014
21
-6.22382
0
LINE
8
BLACK
6
CONTINUOUS
10
5.75014
20
-6.22382
11
5.77826
21
-6.22382
0
LINE
8
BLACK
6
CONTINUOUS
10
5.77826
20
-6.22382
11
5.78951
21
-6.22944
0
LINE
8
BLACK
6
CONTINUOUS
10
5.78951
20
-6.22944
11
5.79513
21
-6.23507
0
LINE
8
BLACK
6
CONTINUOUS
10
5.79513
20
-6.23507
11
5.80076
21
-6.24632
0
LINE
8
BLACK
6
CONTINUOUS
10
5.80076
20
-6.24632
11
5.80076
21
-6.27444
0
LINE
8
BLACK
6
CONTINUOUS
10
5.80076
20
-6.27444
11
5.79513
21
-6.28569
0
LINE
8
BLACK
6
CONTINUOUS
10
5.79513
20
-6.28569
11
5.78951
21
-6.29131
0
LINE
8
BLACK
6
CONTINUOUS
10
5.78951
20
-6.29131
11
5.77826
21
-6.29693
0
LINE
8
BLACK
6
CONTINUOUS
10
5.77826
20
-6.29693
11
5.75014
21
-6.29693
0
LINE
8
BLACK
6
CONTINUOUS
10
5.75014
20
-6.29693
11
5.73889
21
-6.29131
0
LINE
8
BLACK
6
CONTINUOUS
10
5.73889
20
-6.29131
11
5.73327
21
-6.28569
0
LINE
8
BLACK
6
CONTINUOUS
10
5.84575
20
-6.17882
11
5.84575
21
-6.20132
0
LINE
8
BLACK
6
CONTINUOUS
10
5.89075
20
-6.17882
11
5.89075
21
-6.20132
0
LINE
8
BLACK
6
CONTINUOUS
10
6.0651
20
-6.34193
11
6.05948
21
-6.3363
0
LINE
8
BLACK
6
CONTINUOUS
10
6.05948
20
-6.3363
11
6.04823
21
-6.31943
0
LINE
8
BLACK
6
CONTINUOUS
10
6.04823
20
-6.31943
11
6.0426
21
-6.30818
0
LINE
8
BLACK
6
CONTINUOUS
10
6.0426
20
-6.30818
11
6.03698
21
-6.29131
0
LINE
8
BLACK
6
CONTINUOUS
10
6.03698
20
-6.29131
11
6.03136
21
-6.26319
0
LINE
8
BLACK
6
CONTINUOUS
10
6.03136
20
-6.26319
11
6.03136
21
-6.24069
0
LINE
8
BLACK
6
CONTINUOUS
10
6.03136
20
-6.24069
11
6.03698
21
-6.21257
0
LINE
8
BLACK
6
CONTINUOUS
10
6.03698
20
-6.21257
11
6.0426
21
-6.1957
0
LINE
8
BLACK
6
CONTINUOUS
10
6.0426
20
-6.1957
11
6.04823
21
-6.18445
0
LINE
8
BLACK
6
CONTINUOUS
10
6.04823
20
-6.18445
11
6.05948
21
-6.16758
0
LINE
8
BLACK
6
CONTINUOUS
10
6.05948
20
-6.16758
11
6.0651
21
-6.16195
0
LINE
8
BLACK
6
CONTINUOUS
10
6.09885
20
-6.17882
11
6.17196
21
-6.17882
0
LINE
8
BLACK
6
CONTINUOUS
10
6.17196
20
-6.17882
11
6.13259
21
-6.22382
0
LINE
8
BLACK
6
CONTINUOUS
10
6.13259
20
-6.22382
11
6.14947
21
-6.22382
0
LINE
8
BLACK
6
CONTINUOUS
10
6.14947
20
-6.22382
11
6.16071
21
-6.22944
0
LINE
8
BLACK
6
CONTINUOUS
10
6.16071
20
-6.22944
11
6.16634
21
-6.23507
0
LINE
8
BLACK
6
CONTINUOUS
10
6.16634
20
-6.23507
11
6.17196
21
-6.24632
0
LINE
8
BLACK
6
CONTINUOUS
10
6.17196
20
-6.24632
11
6.17196
21
-6.27444
0
LINE
8
BLACK
6
CONTINUOUS
10
6.17196
20
-6.27444
11
6.16634
21
-6.28569
0
LINE
8
BLACK
6
CONTINUOUS
10
6.16634
20
-6.28569
11
6.16071
21
-6.29131
0
LINE
8
BLACK
6
CONTINUOUS
10
6.16071
20
-6.29131
11
6.14947
21
-6.29693
0
LINE
8
BLACK
6
CONTINUOUS
10
6.14947
20
-6.29693
11
6.11572
21
-6.29693
0
LINE
8
BLACK
6
CONTINUOUS
10
6.11572
20
-6.29693
11
6.10447
21
-6.29131
0
LINE
8
BLACK
6
CONTINUOUS
10
6.10447
20
-6.29131
11
6.09885
21
-6.28569
0
LINE
8
BLACK
6
CONTINUOUS
10
6.21133
20
-6.17882
11
6.28445
21
-6.17882
0
LINE
8
BLACK
6
CONTINUOUS
10
6.28445
20
-6.17882
11
6.24508
21
-6.22382
0
LINE
8
BLACK
6
CONTINUOUS
10
6.24508
20
-6.22382
11
6.26195
21
-6.22382
0
LINE
8
BLACK
6
CONTINUOUS
10
6.26195
20
-6.22382
11
6.2732
21
-6.22944
0
LINE
8
BLACK
6
CONTINUOUS
10
6.2732
20
-6.22944
11
6.27882
21
-6.23507
0
LINE
8
BLACK
6
CONTINUOUS
10
6.27882
20
-6.23507
11
6.28445
21
-6.24632
0
LINE
8
BLACK
6
CONTINUOUS
10
6.28445
20
-6.24632
11
6.28445
21
-6.27444
0
LINE
8
BLACK
6
CONTINUOUS
10
6.28445
20
-6.27444
11
6.27882
21
-6.28569
0
LINE
8
BLACK
6
CONTINUOUS
10
6.27882
20
-6.28569
11
6.2732
21
-6.29131
0
LINE
8
BLACK
6
CONTINUOUS
10
6.2732
20
-6.29131
11
6.26195
21
-6.29693
0
LINE
8
BLACK
6
CONTINUOUS
10
6.26195
20
-6.29693
11
6.22821
21
-6.29693
0
LINE
8
BLACK
6
CONTINUOUS
10
6.22821
20
-6.29693
11
6.21696
21
-6.29131
0
LINE
8
BLACK
6
CONTINUOUS
10
6.21696
20
-6.29131
11
6.21133
21
-6.28569
0
LINE
8
BLACK
6
CONTINUOUS
10
6.42506
20
-6.29693
11
6.42506
21
-6.17882
0
LINE
8
BLACK
6
CONTINUOUS
10
6.47567
20
-6.29693
11
6.47567
21
-6.23507
0
LINE
8
BLACK
6
CONTINUOUS
10
6.47567
20
-6.23507
11
6.47005
21
-6.22382
0
LINE
8
BLACK
6
CONTINUOUS
10
6.47005
20
-6.22382
11
6.4588
21
-6.21819
0
LINE
8
BLACK
6
CONTINUOUS
10
6.4588
20
-6.21819
11
6.44193
21
-6.21819
0
LINE
8
BLACK
6
CONTINUOUS
10
6.44193
20
-6.21819
11
6.43068
21
-6.22382
0
LINE
8
BLACK
6
CONTINUOUS
10
6.43068
20
-6.22382
11
6.42506
21
-6.22944
0
LINE
8
BLACK
6
CONTINUOUS
10
6.54879
20
-6.29693
11
6.53754
21
-6.29131
0
LINE
8
BLACK
6
CONTINUOUS
10
6.53754
20
-6.29131
11
6.53192
21
-6.28569
0
LINE
8
BLACK
6
CONTINUOUS
10
6.53192
20
-6.28569
11
6.52629
21
-6.27444
0
LINE
8
BLACK
6
CONTINUOUS
10
6.52629
20
-6.27444
11
6.52629
21
-6.24069
0
LINE
8
BLACK
6
CONTINUOUS
10
6.52629
20
-6.24069
11
6.53192
21
-6.22944
0
LINE
8
BLACK
6
CONTINUOUS
10
6.53192
20
-6.22944
11
6.53754
21
-6.22382
0
LINE
8
BLACK
6
CONTINUOUS
10
6.53754
20
-6.22382
11
6.54879
21
-6.21819
0
LINE
8
BLACK
6
CONTINUOUS
10
6.54879
20
-6.21819
11
6.56566
21
-6.21819
0
LINE
8
BLACK
6
CONTINUOUS
10
6.56566
20
-6.21819
11
6.57691
21
-6.22382
0
LINE
8
BLACK
6
CONTINUOUS
10
6.57691
20
-6.22382
11
6.58254
21
-6.22944
0
LINE
8
BLACK
6
CONTINUOUS
10
6.58254
20
-6.22944
11
6.58816
21
-6.24069
0
LINE
8
BLACK
6
CONTINUOUS
10
6.58816
20
-6.24069
11
6.58816
21
-6.27444
0
LINE
8
BLACK
6
CONTINUOUS
10
6.58816
20
-6.27444
11
6.58254
21
-6.28569
0
LINE
8
BLACK
6
CONTINUOUS
10
6.58254
20
-6.28569
11
6.57691
21
-6.29131
0
LINE
8
BLACK
6
CONTINUOUS
10
6.57691
20
-6.29131
11
6.56566
21
-6.29693
0
LINE
8
BLACK
6
CONTINUOUS
10
6.56566
20
-6.29693
11
6.54879
21
-6.29693
0
LINE
8
BLACK
6
CONTINUOUS
10
6.65565
20
-6.29693
11
6.6444
21
-6.29131
0
LINE
8
BLACK
6
CONTINUOUS
10
6.6444
20
-6.29131
11
6.63878
21
-6.28006
0
LINE
8
BLACK
6
CONTINUOUS
10
6.63878
20
-6.28006
11
6.63878
21
-6.17882
0
LINE
8
BLACK
6
CONTINUOUS
10
6.74564
20
-6.29131
11
6.73439
21
-6.29693
0
LINE
8
BLACK
6
CONTINUOUS
10
6.73439
20
-6.29693
11
6.7119
21
-6.29693
0
LINE
8
BLACK
6
CONTINUOUS
10
6.7119
20
-6.29693
11
6.70065
21
-6.29131
0
LINE
8
BLACK
6
CONTINUOUS
10
6.70065
20
-6.29131
11
6.69502
21
-6.28006
0
LINE
8
BLACK
6
CONTINUOUS
10
6.69502
20
-6.28006
11
6.69502
21
-6.23507
0
LINE
8
BLACK
6
CONTINUOUS
10
6.69502
20
-6.23507
11
6.70065
21
-6.22382
0
LINE
8
BLACK
6
CONTINUOUS
10
6.70065
20
-6.22382
11
6.7119
21
-6.21819
0
LINE
8
BLACK
6
CONTINUOUS
10
6.7119
20
-6.21819
11
6.73439
21
-6.21819
0
LINE
8
BLACK
6
CONTINUOUS
10
6.73439
20
-6.21819
11
6.74564
21
-6.22382
0
LINE
8
BLACK
6
CONTINUOUS
10
6.74564
20
-6.22382
11
6.75127
21
-6.23507
0
LINE
8
BLACK
6
CONTINUOUS
10
6.75127
20
-6.23507
11
6.75127
21
-6.24632
0
LINE
8
BLACK
6
CONTINUOUS
10
6.75127
20
-6.24632
11
6.69502
21
-6.25756
0
LINE
8
BLACK
6
CONTINUOUS
10
6.79626
20
-6.29131
11
6.80751
21
-6.29693
0
LINE
8
BLACK
6
CONTINUOUS
10
6.80751
20
-6.29693
11
6.83001
21
-6.29693
0
LINE
8
BLACK
6
CONTINUOUS
10
6.83001
20
-6.29693
11
6.84125
21
-6.29131
0
LINE
8
BLACK
6
CONTINUOUS
10
6.84125
20
-6.29131
11
6.84688
21
-6.28006
0
LINE
8
BLACK
6
CONTINUOUS
10
6.84688
20
-6.28006
11
6.84688
21
-6.27444
0
LINE
8
BLACK
6
CONTINUOUS
10
6.84688
20
-6.27444
11
6.84125
21
-6.26319
0
LINE
8
BLACK
6
CONTINUOUS
10
6.84125
20
-6.26319
11
6.83001
21
-6.25756
0
LINE
8
BLACK
6
CONTINUOUS
10
6.83001
20
-6.25756
11
6.81313
21
-6.25756
0
LINE
8
BLACK
6
CONTINUOUS
10
6.81313
20
-6.25756
11
6.80188
21
-6.25194
0
LINE
8
BLACK
6
CONTINUOUS
10
6.80188
20
-6.25194
11
6.79626
21
-6.24069
0
LINE
8
BLACK
6
CONTINUOUS
10
6.79626
20
-6.24069
11
6.79626
21
-6.23507
0
LINE
8
BLACK
6
CONTINUOUS
10
6.79626
20
-6.23507
11
6.80188
21
-6.22382
0
LINE
8
BLACK
6
CONTINUOUS
10
6.80188
20
-6.22382
11
6.81313
21
-6.21819
0
LINE
8
BLACK
6
CONTINUOUS
10
6.81313
20
-6.21819
11
6.83001
21
-6.21819
0
LINE
8
BLACK
6
CONTINUOUS
10
6.83001
20
-6.21819
11
6.84125
21
-6.22382
0
LINE
8
BLACK
6
CONTINUOUS
10
6.88625
20
-6.34193
11
6.89187
21
-6.3363
0
LINE
8
BLACK
6
CONTINUOUS
10
6.89187
20
-6.3363
11
6.90312
21
-6.31943
0
LINE
8
BLACK
6
CONTINUOUS
10
6.90312
20
-6.31943
11
6.90875
21
-6.30818
0
LINE
8
BLACK
6
CONTINUOUS
10
6.90875
20
-6.30818
11
6.91437
21
-6.29131
0
LINE
8
BLACK
6
CONTINUOUS
10
6.91437
20
-6.29131
11
6.91999
21
-6.26319
0
LINE
8
BLACK
6
CONTINUOUS
10
6.91999
20
-6.26319
11
6.91999
21
-6.24069
0
LINE
8
BLACK
6
CONTINUOUS
10
6.91999
20
-6.24069
11
6.91437
21
-6.21257
0
LINE
8
BLACK
6
CONTINUOUS
10
6.91437
20
-6.21257
11
6.90875
21
-6.1957
0
LINE
8
BLACK
6
CONTINUOUS
10
6.90875
20
-6.1957
11
6.90312
21
-6.18445
0
LINE
8
BLACK
6
CONTINUOUS
10
6.90312
20
-6.18445
11
6.89187
21
-6.16758
0
LINE
8
BLACK
6
CONTINUOUS
10
6.89187
20
-6.16758
11
6.88625
21
-6.16195
0
LINE
8
BLACK
6
CONTINUOUS
10
3.97539
20
-6.37972
11
3.97539
21
-6.41909
0
LINE
8
BLACK
6
CONTINUOUS
10
3.95571
20
-6.39941
11
3.99508
21
-6.39941
0
LINE
8
BLACK
6
CONTINUOUS
10
4.16971
20
-6.45284
11
4.10222
21
-6.45284
0
LINE
8
BLACK
6
CONTINUOUS
10
4.13597
20
-6.45284
11
4.13597
21
-6.33473
0
LINE
8
BLACK
6
CONTINUOUS
10
4.13597
20
-6.33473
11
4.12472
21
-6.3516
0
LINE
8
BLACK
6
CONTINUOUS
10
4.12472
20
-6.3516
11
4.11347
21
-6.36285
0
LINE
8
BLACK
6
CONTINUOUS
10
4.11347
20
-6.36285
11
4.10222
21
-6.36848
0
LINE
8
BLACK
6
CONTINUOUS
10
4.22033
20
-6.44159
11
4.22596
21
-6.44722
0
LINE
8
BLACK
6
CONTINUOUS
10
4.22596
20
-6.44722
11
4.22033
21
-6.45284
0
LINE
8
BLACK
6
CONTINUOUS
10
4.22033
20
-6.45284
11
4.21471
21
-6.44722
0
LINE
8
BLACK
6
CONTINUOUS
10
4.21471
20
-6.44722
11
4.22033
21
-6.44159
0
LINE
8
BLACK
6
CONTINUOUS
10
4.22033
20
-6.44159
11
4.22033
21
-6.45284
0
LINE
8
BLACK
6
CONTINUOUS
10
4.29907
20
-6.33473
11
4.31032
21
-6.33473
0
LINE
8
BLACK
6
CONTINUOUS
10
4.31032
20
-6.33473
11
4.32157
21
-6.34035
0
LINE
8
BLACK
6
CONTINUOUS
10
4.32157
20
-6.34035
11
4.32719
21
-6.34598
0
LINE
8
BLACK
6
CONTINUOUS
10
4.32719
20
-6.34598
11
4.33282
21
-6.35723
0
LINE
8
BLACK
6
CONTINUOUS
10
4.33282
20
-6.35723
11
4.33844
21
-6.37972
0
LINE
8
BLACK
6
CONTINUOUS
10
4.33844
20
-6.37972
11
4.33844
21
-6.40785
0
LINE
8
BLACK
6
CONTINUOUS
10
4.33844
20
-6.40785
11
4.33282
21
-6.43034
0
LINE
8
BLACK
6
CONTINUOUS
10
4.33282
20
-6.43034
11
4.32719
21
-6.44159
0
LINE
8
BLACK
6
CONTINUOUS
10
4.32719
20
-6.44159
11
4.32157
21
-6.44722
0
LINE
8
BLACK
6
CONTINUOUS
10
4.32157
20
-6.44722
11
4.31032
21
-6.45284
0
LINE
8
BLACK
6
CONTINUOUS
10
4.31032
20
-6.45284
11
4.29907
21
-6.45284
0
LINE
8
BLACK
6
CONTINUOUS
10
4.29907
20
-6.45284
11
4.28782
21
-6.44722
0
LINE
8
BLACK
6
CONTINUOUS
10
4.28782
20
-6.44722
11
4.2822
21
-6.44159
0
LINE
8
BLACK
6
CONTINUOUS
10
4.2822
20
-6.44159
11
4.27657
21
-6.43034
0
LINE
8
BLACK
6
CONTINUOUS
10
4.27657
20
-6.43034
11
4.27095
21
-6.40785
0
LINE
8
BLACK
6
CONTINUOUS
10
4.27095
20
-6.40785
11
4.27095
21
-6.37972
0
LINE
8
BLACK
6
CONTINUOUS
10
4.27095
20
-6.37972
11
4.27657
21
-6.35723
0
LINE
8
BLACK
6
CONTINUOUS
10
4.27657
20
-6.35723
11
4.2822
21
-6.34598
0
LINE
8
BLACK
6
CONTINUOUS
10
4.2822
20
-6.34598
11
4.28782
21
-6.34035
0
LINE
8
BLACK
6
CONTINUOUS
10
4.28782
20
-6.34035
11
4.29907
21
-6.33473
0
LINE
8
BLACK
6
CONTINUOUS
10
4.41156
20
-6.33473
11
4.42281
21
-6.33473
0
LINE
8
BLACK
6
CONTINUOUS
10
4.42281
20
-6.33473
11
4.43406
21
-6.34035
0
LINE
8
BLACK
6
CONTINUOUS
10
4.43406
20
-6.34035
11
4.43968
21
-6.34598
0
LINE
8
BLACK
6
CONTINUOUS
10
4.43968
20
-6.34598
11
4.4453
21
-6.35723
0
LINE
8
BLACK
6
CONTINUOUS
10
4.4453
20
-6.35723
11
4.45093
21
-6.37972
0
LINE
8
BLACK
6
CONTINUOUS
10
4.45093
20
-6.37972
11
4.45093
21
-6.40785
0
LINE
8
BLACK
6
CONTINUOUS
10
4.45093
20
-6.40785
11
4.4453
21
-6.43034
0
LINE
8
BLACK
6
CONTINUOUS
10
4.4453
20
-6.43034
11
4.43968
21
-6.44159
0
LINE
8
BLACK
6
CONTINUOUS
10
4.43968
20
-6.44159
11
4.43406
21
-6.44722
0
LINE
8
BLACK
6
CONTINUOUS
10
4.43406
20
-6.44722
11
4.42281
21
-6.45284
0
LINE
8
BLACK
6
CONTINUOUS
10
4.42281
20
-6.45284
11
4.41156
21
-6.45284
0
LINE
8
BLACK
6
CONTINUOUS
10
4.41156
20
-6.45284
11
4.40031
21
-6.44722
0
LINE
8
BLACK
6
CONTINUOUS
10
4.40031
20
-6.44722
11
4.39468
21
-6.44159
0
LINE
8
BLACK
6
CONTINUOUS
10
4.39468
20
-6.44159
11
4.38906
21
-6.43034
0
LINE
8
BLACK
6
CONTINUOUS
10
4.38906
20
-6.43034
11
4.38344
21
-6.40785
0
LINE
8
BLACK
6
CONTINUOUS
10
4.38344
20
-6.40785
11
4.38344
21
-6.37972
0
LINE
8
BLACK
6
CONTINUOUS
10
4.38344
20
-6.37972
11
4.38906
21
-6.35723
0
LINE
8
BLACK
6
CONTINUOUS
10
4.38906
20
-6.35723
11
4.39468
21
-6.34598
0
LINE
8
BLACK
6
CONTINUOUS
10
4.39468
20
-6.34598
11
4.40031
21
-6.34035
0
LINE
8
BLACK
6
CONTINUOUS
10
4.40031
20
-6.34035
11
4.41156
21
-6.33473
0
LINE
8
BLACK
6
CONTINUOUS
10
4.52404
20
-6.33473
11
4.53529
21
-6.33473
0
LINE
8
BLACK
6
CONTINUOUS
10
4.53529
20
-6.33473
11
4.54654
21
-6.34035
0
LINE
8
BLACK
6
CONTINUOUS
10
4.54654
20
-6.34035
11
4.55217
21
-6.34598
0
LINE
8
BLACK
6
CONTINUOUS
10
4.55217
20
-6.34598
11
4.55779
21
-6.35723
0
LINE
8
BLACK
6
CONTINUOUS
10
4.55779
20
-6.35723
11
4.56341
21
-6.37972
0
LINE
8
BLACK
6
CONTINUOUS
10
4.56341
20
-6.37972
11
4.56341
21
-6.40785
0
LINE
8
BLACK
6
CONTINUOUS
10
4.56341
20
-6.40785
11
4.55779
21
-6.43034
0
LINE
8
BLACK
6
CONTINUOUS
10
4.55779
20
-6.43034
11
4.55217
21
-6.44159
0
LINE
8
BLACK
6
CONTINUOUS
10
4.55217
20
-6.44159
11
4.54654
21
-6.44722
0
LINE
8
BLACK
6
CONTINUOUS
10
4.54654
20
-6.44722
11
4.53529
21
-6.45284
0
LINE
8
BLACK
6
CONTINUOUS
10
4.53529
20
-6.45284
11
4.52404
21
-6.45284
0
LINE
8
BLACK
6
CONTINUOUS
10
4.52404
20
-6.45284
11
4.5128
21
-6.44722
0
LINE
8
BLACK
6
CONTINUOUS
10
4.5128
20
-6.44722
11
4.50717
21
-6.44159
0
LINE
8
BLACK
6
CONTINUOUS
10
4.50717
20
-6.44159
11
4.50155
21
-6.43034
0
LINE
8
BLACK
6
CONTINUOUS
10
4.50155
20
-6.43034
11
4.49592
21
-6.40785
0
LINE
8
BLACK
6
CONTINUOUS
10
4.49592
20
-6.40785
11
4.49592
21
-6.37972
0
LINE
8
BLACK
6
CONTINUOUS
10
4.49592
20
-6.37972
11
4.50155
21
-6.35723
0
LINE
8
BLACK
6
CONTINUOUS
10
4.50155
20
-6.35723
11
4.50717
21
-6.34598
0
LINE
8
BLACK
6
CONTINUOUS
10
4.50717
20
-6.34598
11
4.5128
21
-6.34035
0
LINE
8
BLACK
6
CONTINUOUS
10
4.5128
20
-6.34035
11
4.52404
21
-6.33473
0
LINE
8
BLACK
6
CONTINUOUS
10
4.61403
20
-6.45284
11
4.61403
21
-6.3741
0
LINE
8
BLACK
6
CONTINUOUS
10
4.61403
20
-6.38535
11
4.61966
21
-6.37972
0
LINE
8
BLACK
6
CONTINUOUS
10
4.61966
20
-6.37972
11
4.63091
21
-6.3741
0
LINE
8
BLACK
6
CONTINUOUS
10
4.63091
20
-6.3741
11
4.64778
21
-6.3741
0
LINE
8
BLACK
6
CONTINUOUS
10
4.64778
20
-6.3741
11
4.65903
21
-6.37972
0
LINE
8
BLACK
6
CONTINUOUS
10
4.65903
20
-6.37972
11
4.66465
21
-6.39097
0
LINE
8
BLACK
6
CONTINUOUS
10
4.66465
20
-6.39097
11
4.66465
21
-6.45284
0
LINE
8
BLACK
6
CONTINUOUS
10
4.66465
20
-6.39097
11
4.67028
21
-6.37972
0
LINE
8
BLACK
6
CONTINUOUS
10
4.67028
20
-6.37972
11
4.68152
21
-6.3741
0
LINE
8
BLACK
6
CONTINUOUS
10
4.68152
20
-6.3741
11
4.6984
21
-6.3741
0
LINE
8
BLACK
6
CONTINUOUS
10
4.6984
20
-6.3741
11
4.70965
21
-6.37972
0
LINE
8
BLACK
6
CONTINUOUS
10
4.70965
20
-6.37972
11
4.71527
21
-6.39097
0
LINE
8
BLACK
6
CONTINUOUS
10
4.71527
20
-6.39097
11
4.71527
21
-6.45284
0
LINE
8
BLACK
6
CONTINUOUS
10
4.77151
20
-6.45284
11
4.77151
21
-6.3741
0
LINE
8
BLACK
6
CONTINUOUS
10
4.77151
20
-6.38535
11
4.77714
21
-6.37972
0
LINE
8
BLACK
6
CONTINUOUS
10
4.77714
20
-6.37972
11
4.78839
21
-6.3741
0
LINE
8
BLACK
6
CONTINUOUS
10
4.78839
20
-6.3741
11
4.80526
21
-6.3741
0
LINE
8
BLACK
6
CONTINUOUS
10
4.80526
20
-6.3741
11
4.81651
21
-6.37972
0
LINE
8
BLACK
6
CONTINUOUS
10
4.81651
20
-6.37972
11
4.82213
21
-6.39097
0
LINE
8
BLACK
6
CONTINUOUS
10
4.82213
20
-6.39097
11
4.82213
21
-6.45284
0
LINE
8
BLACK
6
CONTINUOUS
10
4.82213
20
-6.39097
11
4.82776
21
-6.37972
0
LINE
8
BLACK
6
CONTINUOUS
10
4.82776
20
-6.37972
11
4.839
21
-6.3741
0
LINE
8
BLACK
6
CONTINUOUS
10
4.839
20
-6.3741
11
4.85588
21
-6.3741
0
LINE
8
BLACK
6
CONTINUOUS
10
4.85588
20
-6.3741
11
4.86713
21
-6.37972
0
LINE
8
BLACK
6
CONTINUOUS
10
4.86713
20
-6.37972
11
4.87275
21
-6.39097
0
LINE
8
BLACK
6
CONTINUOUS
10
4.87275
20
-6.39097
11
4.87275
21
-6.45284
0
LINE
8
BLACK
6
CONTINUOUS
10
5.10335
20
-6.32911
11
5.00211
21
-6.48096
0
LINE
8
BLACK
6
CONTINUOUS
10
5.2552
20
-6.33473
11
5.26645
21
-6.33473
0
LINE
8
BLACK
6
CONTINUOUS
10
5.26645
20
-6.33473
11
5.2777
21
-6.34035
0
LINE
8
BLACK
6
CONTINUOUS
10
5.2777
20
-6.34035
11
5.28332
21
-6.34598
0
LINE
8
BLACK
6
CONTINUOUS
10
5.28332
20
-6.34598
11
5.28895
21
-6.35723
0
LINE
8
BLACK
6
CONTINUOUS
10
5.28895
20
-6.35723
11
5.29457
21
-6.37972
0
LINE
8
BLACK
6
CONTINUOUS
10
5.29457
20
-6.37972
11
5.29457
21
-6.40785
0
LINE
8
BLACK
6
CONTINUOUS
10
5.29457
20
-6.40785
11
5.28895
21
-6.43034
0
LINE
8
BLACK
6
CONTINUOUS
10
5.28895
20
-6.43034
11
5.28332
21
-6.44159
0
LINE
8
BLACK
6
CONTINUOUS
10
5.28332
20
-6.44159
11
5.2777
21
-6.44722
0
LINE
8
BLACK
6
CONTINUOUS
10
5.2777
20
-6.44722
11
5.26645
21
-6.45284
0
LINE
8
BLACK
6
CONTINUOUS
10
5.26645
20
-6.45284
11
5.2552
21
-6.45284
0
LINE
8
BLACK
6
CONTINUOUS
10
5.2552
20
-6.45284
11
5.24395
21
-6.44722
0
LINE
8
BLACK
6
CONTINUOUS
10
5.24395
20
-6.44722
11
5.23833
21
-6.44159
0
LINE
8
BLACK
6
CONTINUOUS
10
5.23833
20
-6.44159
11
5.23271
21
-6.43034
0
LINE
8
BLACK
6
CONTINUOUS
10
5.23271
20
-6.43034
11
5.22708
21
-6.40785
0
LINE
8
BLACK
6
CONTINUOUS
10
5.22708
20
-6.40785
11
5.22708
21
-6.37972
0
LINE
8
BLACK
6
CONTINUOUS
10
5.22708
20
-6.37972
11
5.23271
21
-6.35723
0
LINE
8
BLACK
6
CONTINUOUS
10
5.23271
20
-6.35723
11
5.23833
21
-6.34598
0
LINE
8
BLACK
6
CONTINUOUS
10
5.23833
20
-6.34598
11
5.24395
21
-6.34035
0
LINE
8
BLACK
6
CONTINUOUS
10
5.24395
20
-6.34035
11
5.2552
21
-6.33473
0
LINE
8
BLACK
6
CONTINUOUS
10
5.34519
20
-6.44159
11
5.35082
21
-6.44722
0
LINE
8
BLACK
6
CONTINUOUS
10
5.35082
20
-6.44722
11
5.34519
21
-6.45284
0
LINE
8
BLACK
6
CONTINUOUS
10
5.34519
20
-6.45284
11
5.33957
21
-6.44722
0
LINE
8
BLACK
6
CONTINUOUS
10
5.33957
20
-6.44722
11
5.34519
21
-6.44159
0
LINE
8
BLACK
6
CONTINUOUS
10
5.34519
20
-6.44159
11
5.34519
21
-6.45284
0
LINE
8
BLACK
6
CONTINUOUS
10
5.42393
20
-6.33473
11
5.43518
21
-6.33473
0
LINE
8
BLACK
6
CONTINUOUS
10
5.43518
20
-6.33473
11
5.44643
21
-6.34035
0
LINE
8
BLACK
6
CONTINUOUS
10
5.44643
20
-6.34035
11
5.45205
21
-6.34598
0
LINE
8
BLACK
6
CONTINUOUS
10
5.45205
20
-6.34598
11
5.45768
21
-6.35723
0
LINE
8
BLACK
6
CONTINUOUS
10
5.45768
20
-6.35723
11
5.4633
21
-6.37972
0
LINE
8
BLACK
6
CONTINUOUS
10
5.4633
20
-6.37972
11
5.4633
21
-6.40785
0
LINE
8
BLACK
6
CONTINUOUS
10
5.4633
20
-6.40785
11
5.45768
21
-6.43034
0
LINE
8
BLACK
6
CONTINUOUS
10
5.45768
20
-6.43034
11
5.45205
21
-6.44159
0
LINE
8
BLACK
6
CONTINUOUS
10
5.45205
20
-6.44159
11
5.44643
21
-6.44722
0
LINE
8
BLACK
6
CONTINUOUS
10
5.44643
20
-6.44722
11
5.43518
21
-6.45284
0
LINE
8
BLACK
6
CONTINUOUS
10
5.43518
20
-6.45284
11
5.42393
21
-6.45284
0
LINE
8
BLACK
6
CONTINUOUS
10
5.42393
20
-6.45284
11
5.41268
21
-6.44722
0
LINE
8
BLACK
6
CONTINUOUS
10
5.41268
20
-6.44722
11
5.40706
21
-6.44159
0
LINE
8
BLACK
6
CONTINUOUS
10
5.40706
20
-6.44159
11
5.40143
21
-6.43034
0
LINE
8
BLACK
6
CONTINUOUS
10
5.40143
20
-6.43034
11
5.39581
21
-6.40785
0
LINE
8
BLACK
6
CONTINUOUS
10
5.39581
20
-6.40785
11
5.39581
21
-6.37972
0
LINE
8
BLACK
6
CONTINUOUS
10
5.39581
20
-6.37972
11
5.40143
21
-6.35723
0
LINE
8
BLACK
6
CONTINUOUS
10
5.40143
20
-6.35723
11
5.40706
21
-6.34598
0
LINE
8
BLACK
6
CONTINUOUS
10
5.40706
20
-6.34598
11
5.41268
21
-6.34035
0
LINE
8
BLACK
6
CONTINUOUS
10
5.41268
20
-6.34035
11
5.42393
21
-6.33473
0
LINE
8
BLACK
6
CONTINUOUS
10
5.50267
20
-6.33473
11
5.57579
21
-6.33473
0
LINE
8
BLACK
6
CONTINUOUS
10
5.57579
20
-6.33473
11
5.53642
21
-6.37972
0
LINE
8
BLACK
6
CONTINUOUS
10
5.53642
20
-6.37972
11
5.55329
21
-6.37972
0
LINE
8
BLACK
6
CONTINUOUS
10
5.55329
20
-6.37972
11
5.56454
21
-6.38535
0
LINE
8
BLACK
6
CONTINUOUS
10
5.56454
20
-6.38535
11
5.57016
21
-6.39097
0
LINE
8
BLACK
6
CONTINUOUS
10
5.57016
20
-6.39097
11
5.57579
21
-6.40222
0
LINE
8
BLACK
6
CONTINUOUS
10
5.57579
20
-6.40222
11
5.57579
21
-6.43034
0
LINE
8
BLACK
6
CONTINUOUS
10
5.57579
20
-6.43034
11
5.57016
21
-6.44159
0
LINE
8
BLACK
6
CONTINUOUS
10
5.57016
20
-6.44159
11
5.56454
21
-6.44722
0
LINE
8
BLACK
6
CONTINUOUS
10
5.56454
20
-6.44722
11
5.55329
21
-6.45284
0
LINE
8
BLACK
6
CONTINUOUS
10
5.55329
20
-6.45284
11
5.51954
21
-6.45284
0
LINE
8
BLACK
6
CONTINUOUS
10
5.51954
20
-6.45284
11
5.5083
21
-6.44722
0
LINE
8
BLACK
6
CONTINUOUS
10
5.5083
20
-6.44722
11
5.50267
21
-6.44159
0
LINE
8
BLACK
6
CONTINUOUS
10
5.63203
20
-6.45284
11
5.65453
21
-6.45284
0
LINE
8
BLACK
6
CONTINUOUS
10
5.65453
20
-6.45284
11
5.66578
21
-6.44722
0
LINE
8
BLACK
6
CONTINUOUS
10
5.66578
20
-6.44722
11
5.6714
21
-6.44159
0
LINE
8
BLACK
6
CONTINUOUS
10
5.6714
20
-6.44159
11
5.68265
21
-6.42472
0
LINE
8
BLACK
6
CONTINUOUS
10
5.68265
20
-6.42472
11
5.68827
21
-6.40222
0
LINE
8
BLACK
6
CONTINUOUS
10
5.68827
20
-6.40222
11
5.68827
21
-6.35723
0
LINE
8
BLACK
6
CONTINUOUS
10
5.68827
20
-6.35723
11
5.68265
21
-6.34598
0
LINE
8
BLACK
6
CONTINUOUS
10
5.68265
20
-6.34598
11
5.67702
21
-6.34035
0
LINE
8
BLACK
6
CONTINUOUS
10
5.67702
20
-6.34035
11
5.66578
21
-6.33473
0
LINE
8
BLACK
6
CONTINUOUS
10
5.66578
20
-6.33473
11
5.64328
21
-6.33473
0
LINE
8
BLACK
6
CONTINUOUS
10
5.64328
20
-6.33473
11
5.63203
21
-6.34035
0
LINE
8
BLACK
6
CONTINUOUS
10
5.63203
20
-6.34035
11
5.62641
21
-6.34598
0
LINE
8
BLACK
6
CONTINUOUS
10
5.62641
20
-6.34598
11
5.62078
21
-6.35723
0
LINE
8
BLACK
6
CONTINUOUS
10
5.62078
20
-6.35723
11
5.62078
21
-6.38535
0
LINE
8
BLACK
6
CONTINUOUS
10
5.62078
20
-6.38535
11
5.62641
21
-6.3966
0
LINE
8
BLACK
6
CONTINUOUS
10
5.62641
20
-6.3966
11
5.63203
21
-6.40222
0
LINE
8
BLACK
6
CONTINUOUS
10
5.63203
20
-6.40222
11
5.64328
21
-6.40785
0
LINE
8
BLACK
6
CONTINUOUS
10
5.64328
20
-6.40785
11
5.66578
21
-6.40785
0
LINE
8
BLACK
6
CONTINUOUS
10
5.66578
20
-6.40785
11
5.67702
21
-6.40222
0
LINE
8
BLACK
6
CONTINUOUS
10
5.67702
20
-6.40222
11
5.68265
21
-6.3966
0
LINE
8
BLACK
6
CONTINUOUS
10
5.68265
20
-6.3966
11
5.68827
21
-6.38535
0
LINE
8
BLACK
6
CONTINUOUS
10
5.78951
20
-6.3741
11
5.78951
21
-6.45284
0
LINE
8
BLACK
6
CONTINUOUS
10
5.76139
20
-6.32911
11
5.73327
21
-6.41347
0
LINE
8
BLACK
6
CONTINUOUS
10
5.73327
20
-6.41347
11
5.80638
21
-6.41347
0
LINE
8
BLACK
6
CONTINUOUS
10
5.84575
20
-6.33473
11
5.84575
21
-6.35723
0
LINE
8
BLACK
6
CONTINUOUS
10
5.89075
20
-6.33473
11
5.89075
21
-6.35723
0
LINE
8
BLACK
6
CONTINUOUS
10
6.0651
20
-6.49783
11
6.05948
21
-6.49221
0
LINE
8
BLACK
6
CONTINUOUS
10
6.05948
20
-6.49221
11
6.04823
21
-6.47534
0
LINE
8
BLACK
6
CONTINUOUS
10
6.04823
20
-6.47534
11
6.0426
21
-6.46409
0
LINE
8
BLACK
6
CONTINUOUS
10
6.0426
20
-6.46409
11
6.03698
21
-6.44722
0
LINE
8
BLACK
6
CONTINUOUS
10
6.03698
20
-6.44722
11
6.03136
21
-6.41909
0
LINE
8
BLACK
6
CONTINUOUS
10
6.03136
20
-6.41909
11
6.03136
21
-6.3966
0
LINE
8
BLACK
6
CONTINUOUS
10
6.03136
20
-6.3966
11
6.03698
21
-6.36848
0
LINE
8
BLACK
6
CONTINUOUS
10
6.03698
20
-6.36848
11
6.0426
21
-6.3516
0
LINE
8
BLACK
6
CONTINUOUS
10
6.0426
20
-6.3516
11
6.04823
21
-6.34035
0
LINE
8
BLACK
6
CONTINUOUS
10
6.04823
20
-6.34035
11
6.05948
21
-6.32348
0
LINE
8
BLACK
6
CONTINUOUS
10
6.05948
20
-6.32348
11
6.0651
21
-6.31786
0
LINE
8
BLACK
6
CONTINUOUS
10
6.17196
20
-6.45284
11
6.10447
21
-6.45284
0
LINE
8
BLACK
6
CONTINUOUS
10
6.13822
20
-6.45284
11
6.13822
21
-6.33473
0
LINE
8
BLACK
6
CONTINUOUS
10
6.13822
20
-6.33473
11
6.12697
21
-6.3516
0
LINE
8
BLACK
6
CONTINUOUS
10
6.12697
20
-6.3516
11
6.11572
21
-6.36285
0
LINE
8
BLACK
6
CONTINUOUS
10
6.11572
20
-6.36285
11
6.10447
21
-6.36848
0
LINE
8
BLACK
6
CONTINUOUS
10
6.21133
20
-6.33473
11
6.29007
21
-6.33473
0
LINE
8
BLACK
6
CONTINUOUS
10
6.29007
20
-6.33473
11
6.23945
21
-6.45284
0
LINE
8
BLACK
6
CONTINUOUS
10
6.42506
20
-6.45284
11
6.42506
21
-6.33473
0
LINE
8
BLACK
6
CONTINUOUS
10
6.47567
20
-6.45284
11
6.47567
21
-6.39097
0
LINE
8
BLACK
6
CONTINUOUS
10
6.47567
20
-6.39097
11
6.47005
21
-6.37972
0
LINE
8
BLACK
6
CONTINUOUS
10
6.47005
20
-6.37972
11
6.4588
21
-6.3741
0
LINE
8
BLACK
6
CONTINUOUS
10
6.4588
20
-6.3741
11
6.44193
21
-6.3741
0
LINE
8
BLACK
6
CONTINUOUS
10
6.44193
20
-6.3741
11
6.43068
21
-6.37972
0
LINE
8
BLACK
6
CONTINUOUS
10
6.43068
20
-6.37972
11
6.42506
21
-6.38535
0
LINE
8
BLACK
6
CONTINUOUS
10
6.54879
20
-6.45284
11
6.53754
21
-6.44722
0
LINE
8
BLACK
6
CONTINUOUS
10
6.53754
20
-6.44722
11
6.53192
21
-6.44159
0
LINE
8
BLACK
6
CONTINUOUS
10
6.53192
20
-6.44159
11
6.52629
21
-6.43034
0
LINE
8
BLACK
6
CONTINUOUS
10
6.52629
20
-6.43034
11
6.52629
21
-6.3966
0
LINE
8
BLACK
6
CONTINUOUS
10
6.52629
20
-6.3966
11
6.53192
21
-6.38535
0
LINE
8
BLACK
6
CONTINUOUS
10
6.53192
20
-6.38535
11
6.53754
21
-6.37972
0
LINE
8
BLACK
6
CONTINUOUS
10
6.53754
20
-6.37972
11
6.54879
21
-6.3741
0
LINE
8
BLACK
6
CONTINUOUS
10
6.54879
20
-6.3741
11
6.56566
21
-6.3741
0
LINE
8
BLACK
6
CONTINUOUS
10
6.56566
20
-6.3741
11
6.57691
21
-6.37972
0
LINE
8
BLACK
6
CONTINUOUS
10
6.57691
20
-6.37972
11
6.58254
21
-6.38535
0
LINE
8
BLACK
6
CONTINUOUS
10
6.58254
20
-6.38535
11
6.58816
21
-6.3966
0
LINE
8
BLACK
6
CONTINUOUS
10
6.58816
20
-6.3966
11
6.58816
21
-6.43034
0
LINE
8
BLACK
6
CONTINUOUS
10
6.58816
20
-6.43034
11
6.58254
21
-6.44159
0
LINE
8
BLACK
6
CONTINUOUS
10
6.58254
20
-6.44159
11
6.57691
21
-6.44722
0
LINE
8
BLACK
6
CONTINUOUS
10
6.57691
20
-6.44722
11
6.56566
21
-6.45284
0
LINE
8
BLACK
6
CONTINUOUS
10
6.56566
20
-6.45284
11
6.54879
21
-6.45284
0
LINE
8
BLACK
6
CONTINUOUS
10
6.65565
20
-6.45284
11
6.6444
21
-6.44722
0
LINE
8
BLACK
6
CONTINUOUS
10
6.6444
20
-6.44722
11
6.63878
21
-6.43597
0
LINE
8
BLACK
6
CONTINUOUS
10
6.63878
20
-6.43597
11
6.63878
21
-6.33473
0
LINE
8
BLACK
6
CONTINUOUS
10
6.74564
20
-6.44722
11
6.73439
21
-6.45284
0
LINE
8
BLACK
6
CONTINUOUS
10
6.73439
20
-6.45284
11
6.7119
21
-6.45284
0
LINE
8
BLACK
6
CONTINUOUS
10
6.7119
20
-6.45284
11
6.70065
21
-6.44722
0
LINE
8
BLACK
6
CONTINUOUS
10
6.70065
20
-6.44722
11
6.69502
21
-6.43597
0
LINE
8
BLACK
6
CONTINUOUS
10
6.69502
20
-6.43597
11
6.69502
21
-6.39097
0
LINE
8
BLACK
6
CONTINUOUS
10
6.69502
20
-6.39097
11
6.70065
21
-6.37972
0
LINE
8
BLACK
6
CONTINUOUS
10
6.70065
20
-6.37972
11
6.7119
21
-6.3741
0
LINE
8
BLACK
6
CONTINUOUS
10
6.7119
20
-6.3741
11
6.73439
21
-6.3741
0
LINE
8
BLACK
6
CONTINUOUS
10
6.73439
20
-6.3741
11
6.74564
21
-6.37972
0
LINE
8
BLACK
6
CONTINUOUS
10
6.74564
20
-6.37972
11
6.75127
21
-6.39097
0
LINE
8
BLACK
6
CONTINUOUS
10
6.75127
20
-6.39097
11
6.75127
21
-6.40222
0
LINE
8
BLACK
6
CONTINUOUS
10
6.75127
20
-6.40222
11
6.69502
21
-6.41347
0
LINE
8
BLACK
6
CONTINUOUS
10
6.79626
20
-6.44722
11
6.80751
21
-6.45284
0
LINE
8
BLACK
6
CONTINUOUS
10
6.80751
20
-6.45284
11
6.83001
21
-6.45284
0
LINE
8
BLACK
6
CONTINUOUS
10
6.83001
20
-6.45284
11
6.84125
21
-6.44722
0
LINE
8
BLACK
6
CONTINUOUS
10
6.84125
20
-6.44722
11
6.84688
21
-6.43597
0
LINE
8
BLACK
6
CONTINUOUS
10
6.84688
20
-6.43597
11
6.84688
21
-6.43034
0
LINE
8
BLACK
6
CONTINUOUS
10
6.84688
20
-6.43034
11
6.84125
21
-6.41909
0
LINE
8
BLACK
6
CONTINUOUS
10
6.84125
20
-6.41909
11
6.83001
21
-6.41347
0
LINE
8
BLACK
6
CONTINUOUS
10
6.83001
20
-6.41347
11
6.81313
21
-6.41347
0
LINE
8
BLACK
6
CONTINUOUS
10
6.81313
20
-6.41347
11
6.80188
21
-6.40785
0
LINE
8
BLACK
6
CONTINUOUS
10
6.80188
20
-6.40785
11
6.79626
21
-6.3966
0
LINE
8
BLACK
6
CONTINUOUS
10
6.79626
20
-6.3966
11
6.79626
21
-6.39097
0
LINE
8
BLACK
6
CONTINUOUS
10
6.79626
20
-6.39097
11
6.80188
21
-6.37972
0
LINE
8
BLACK
6
CONTINUOUS
10
6.80188
20
-6.37972
11
6.81313
21
-6.3741
0
LINE
8
BLACK
6
CONTINUOUS
10
6.81313
20
-6.3741
11
6.83001
21
-6.3741
0
LINE
8
BLACK
6
CONTINUOUS
10
6.83001
20
-6.3741
11
6.84125
21
-6.37972
0
LINE
8
BLACK
6
CONTINUOUS
10
6.88625
20
-6.49783
11
6.89187
21
-6.49221
0
LINE
8
BLACK
6
CONTINUOUS
10
6.89187
20
-6.49221
11
6.90312
21
-6.47534
0
LINE
8
BLACK
6
CONTINUOUS
10
6.90312
20
-6.47534
11
6.90875
21
-6.46409
0
LINE
8
BLACK
6
CONTINUOUS
10
6.90875
20
-6.46409
11
6.91437
21
-6.44722
0
LINE
8
BLACK
6
CONTINUOUS
10
6.91437
20
-6.44722
11
6.91999
21
-6.41909
0
LINE
8
BLACK
6
CONTINUOUS
10
6.91999
20
-6.41909
11
6.91999
21
-6.3966
0
LINE
8
BLACK
6
CONTINUOUS
10
6.91999
20
-6.3966
11
6.91437
21
-6.36848
0
LINE
8
BLACK
6
CONTINUOUS
10
6.91437
20
-6.36848
11
6.90875
21
-6.3516
0
LINE
8
BLACK
6
CONTINUOUS
10
6.90875
20
-6.3516
11
6.90312
21
-6.34035
0
LINE
8
BLACK
6
CONTINUOUS
10
6.90312
20
-6.34035
11
6.89187
21
-6.32348
0
LINE
8
BLACK
6
CONTINUOUS
10
6.89187
20
-6.32348
11
6.88625
21
-6.31786
0
LINE
8
BLACK
6
CONTINUOUS
10
3.98643
20
-6.57619
11
3.98643
21
-6.53444
0
LINE
8
BLACK
6
CONTINUOUS
10
3.98643
20
-6.53444
11
3.94467
21
-6.53444
0
LINE
8
BLACK
6
CONTINUOUS
10
3.94467
20
-6.53444
11
3.94467
21
-6.57619
0
LINE
8
BLACK
6
CONTINUOUS
10
3.94467
20
-6.57619
11
3.98643
21
-6.57619
0
LINE
8
BLACK
6
CONTINUOUS
10
4.16971
20
-6.60875
11
4.10222
21
-6.60875
0
LINE
8
BLACK
6
CONTINUOUS
10
4.13597
20
-6.60875
11
4.13597
21
-6.49064
0
LINE
8
BLACK
6
CONTINUOUS
10
4.13597
20
-6.49064
11
4.12472
21
-6.50751
0
LINE
8
BLACK
6
CONTINUOUS
10
4.12472
20
-6.50751
11
4.11347
21
-6.51876
0
LINE
8
BLACK
6
CONTINUOUS
10
4.11347
20
-6.51876
11
4.10222
21
-6.52438
0
LINE
8
BLACK
6
CONTINUOUS
10
4.22033
20
-6.5975
11
4.22596
21
-6.60312
0
LINE
8
BLACK
6
CONTINUOUS
10
4.22596
20
-6.60312
11
4.22033
21
-6.60875
0
LINE
8
BLACK
6
CONTINUOUS
10
4.22033
20
-6.60875
11
4.21471
21
-6.60312
0
LINE
8
BLACK
6
CONTINUOUS
10
4.21471
20
-6.60312
11
4.22033
21
-6.5975
0
LINE
8
BLACK
6
CONTINUOUS
10
4.22033
20
-6.5975
11
4.22033
21
-6.60875
0
LINE
8
BLACK
6
CONTINUOUS
10
4.33282
20
-6.49064
11
4.27657
21
-6.49064
0
LINE
8
BLACK
6
CONTINUOUS
10
4.27657
20
-6.49064
11
4.27095
21
-6.54688
0
LINE
8
BLACK
6
CONTINUOUS
10
4.27095
20
-6.54688
11
4.27657
21
-6.54125
0
LINE
8
BLACK
6
CONTINUOUS
10
4.27657
20
-6.54125
11
4.28782
21
-6.53563
0
LINE
8
BLACK
6
CONTINUOUS
10
4.28782
20
-6.53563
11
4.31594
21
-6.53563
0
LINE
8
BLACK
6
CONTINUOUS
10
4.31594
20
-6.53563
11
4.32719
21
-6.54125
0
LINE
8
BLACK
6
CONTINUOUS
10
4.32719
20
-6.54125
11
4.33282
21
-6.54688
0
LINE
8
BLACK
6
CONTINUOUS
10
4.33282
20
-6.54688
11
4.33844
21
-6.55813
0
LINE
8
BLACK
6
CONTINUOUS
10
4.33844
20
-6.55813
11
4.33844
21
-6.58625
0
LINE
8
BLACK
6
CONTINUOUS
10
4.33844
20
-6.58625
11
4.33282
21
-6.5975
0
LINE
8
BLACK
6
CONTINUOUS
10
4.33282
20
-6.5975
11
4.32719
21
-6.60312
0
LINE
8
BLACK
6
CONTINUOUS
10
4.32719
20
-6.60312
11
4.31594
21
-6.60875
0
LINE
8
BLACK
6
CONTINUOUS
10
4.31594
20
-6.60875
11
4.28782
21
-6.60875
0
LINE
8
BLACK
6
CONTINUOUS
10
4.28782
20
-6.60875
11
4.27657
21
-6.60312
0
LINE
8
BLACK
6
CONTINUOUS
10
4.27657
20
-6.60312
11
4.27095
21
-6.5975
0
LINE
8
BLACK
6
CONTINUOUS
10
4.41156
20
-6.49064
11
4.42281
21
-6.49064
0
LINE
8
BLACK
6
CONTINUOUS
10
4.42281
20
-6.49064
11
4.43406
21
-6.49626
0
LINE
8
BLACK
6
CONTINUOUS
10
4.43406
20
-6.49626
11
4.43968
21
-6.50188
0
LINE
8
BLACK
6
CONTINUOUS
10
4.43968
20
-6.50188
11
4.4453
21
-6.51313
0
LINE
8
BLACK
6
CONTINUOUS
10
4.4453
20
-6.51313
11
4.45093
21
-6.53563
0
LINE
8
BLACK
6
CONTINUOUS
10
4.45093
20
-6.53563
11
4.45093
21
-6.56375
0
LINE
8
BLACK
6
CONTINUOUS
10
4.45093
20
-6.56375
11
4.4453
21
-6.58625
0
LINE
8
BLACK
6
CONTINUOUS
10
4.4453
20
-6.58625
11
4.43968
21
-6.5975
0
LINE
8
BLACK
6
CONTINUOUS
10
4.43968
20
-6.5975
11
4.43406
21
-6.60312
0
LINE
8
BLACK
6
CONTINUOUS
10
4.43406
20
-6.60312
11
4.42281
21
-6.60875
0
LINE
8
BLACK
6
CONTINUOUS
10
4.42281
20
-6.60875
11
4.41156
21
-6.60875
0
LINE
8
BLACK
6
CONTINUOUS
10
4.41156
20
-6.60875
11
4.40031
21
-6.60312
0
LINE
8
BLACK
6
CONTINUOUS
10
4.40031
20
-6.60312
11
4.39468
21
-6.5975
0
LINE
8
BLACK
6
CONTINUOUS
10
4.39468
20
-6.5975
11
4.38906
21
-6.58625
0
LINE
8
BLACK
6
CONTINUOUS
10
4.38906
20
-6.58625
11
4.38344
21
-6.56375
0
LINE
8
BLACK
6
CONTINUOUS
10
4.38344
20
-6.56375
11
4.38344
21
-6.53563
0
LINE
8
BLACK
6
CONTINUOUS
10
4.38344
20
-6.53563
11
4.38906
21
-6.51313
0
LINE
8
BLACK
6
CONTINUOUS
10
4.38906
20
-6.51313
11
4.39468
21
-6.50188
0
LINE
8
BLACK
6
CONTINUOUS
10
4.39468
20
-6.50188
11
4.40031
21
-6.49626
0
LINE
8
BLACK
6
CONTINUOUS
10
4.40031
20
-6.49626
11
4.41156
21
-6.49064
0
LINE
8
BLACK
6
CONTINUOUS
10
4.52404
20
-6.49064
11
4.53529
21
-6.49064
0
LINE
8
BLACK
6
CONTINUOUS
10
4.53529
20
-6.49064
11
4.54654
21
-6.49626
0
LINE
8
BLACK
6
CONTINUOUS
10
4.54654
20
-6.49626
11
4.55217
21
-6.50188
0
LINE
8
BLACK
6
CONTINUOUS
10
4.55217
20
-6.50188
11
4.55779
21
-6.51313
0
LINE
8
BLACK
6
CONTINUOUS
10
4.55779
20
-6.51313
11
4.56341
21
-6.53563
0
LINE
8
BLACK
6
CONTINUOUS
10
4.56341
20
-6.53563
11
4.56341
21
-6.56375
0
LINE
8
BLACK
6
CONTINUOUS
10
4.56341
20
-6.56375
11
4.55779
21
-6.58625
0
LINE
8
BLACK
6
CONTINUOUS
10
4.55779
20
-6.58625
11
4.55217
21
-6.5975
0
LINE
8
BLACK
6
CONTINUOUS
10
4.55217
20
-6.5975
11
4.54654
21
-6.60312
0
LINE
8
BLACK
6
CONTINUOUS
10
4.54654
20
-6.60312
11
4.53529
21
-6.60875
0
LINE
8
BLACK
6
CONTINUOUS
10
4.53529
20
-6.60875
11
4.52404
21
-6.60875
0
LINE
8
BLACK
6
CONTINUOUS
10
4.52404
20
-6.60875
11
4.5128
21
-6.60312
0
LINE
8
BLACK
6
CONTINUOUS
10
4.5128
20
-6.60312
11
4.50717
21
-6.5975
0
LINE
8
BLACK
6
CONTINUOUS
10
4.50717
20
-6.5975
11
4.50155
21
-6.58625
0
LINE
8
BLACK
6
CONTINUOUS
10
4.50155
20
-6.58625
11
4.49592
21
-6.56375
0
LINE
8
BLACK
6
CONTINUOUS
10
4.49592
20
-6.56375
11
4.49592
21
-6.53563
0
LINE
8
BLACK
6
CONTINUOUS
10
4.49592
20
-6.53563
11
4.50155
21
-6.51313
0
LINE
8
BLACK
6
CONTINUOUS
10
4.50155
20
-6.51313
11
4.50717
21
-6.50188
0
LINE
8
BLACK
6
CONTINUOUS
10
4.50717
20
-6.50188
11
4.5128
21
-6.49626
0
LINE
8
BLACK
6
CONTINUOUS
10
4.5128
20
-6.49626
11
4.52404
21
-6.49064
0
LINE
8
BLACK
6
CONTINUOUS
10
4.61403
20
-6.60875
11
4.61403
21
-6.53001
0
LINE
8
BLACK
6
CONTINUOUS
10
4.61403
20
-6.54125
11
4.61966
21
-6.53563
0
LINE
8
BLACK
6
CONTINUOUS
10
4.61966
20
-6.53563
11
4.63091
21
-6.53001
0
LINE
8
BLACK
6
CONTINUOUS
10
4.63091
20
-6.53001
11
4.64778
21
-6.53001
0
LINE
8
BLACK
6
CONTINUOUS
10
4.64778
20
-6.53001
11
4.65903
21
-6.53563
0
LINE
8
BLACK
6
CONTINUOUS
10
4.65903
20
-6.53563
11
4.66465
21
-6.54688
0
LINE
8
BLACK
6
CONTINUOUS
10
4.66465
20
-6.54688
11
4.66465
21
-6.60875
0
LINE
8
BLACK
6
CONTINUOUS
10
4.66465
20
-6.54688
11
4.67028
21
-6.53563
0
LINE
8
BLACK
6
CONTINUOUS
10
4.67028
20
-6.53563
11
4.68152
21
-6.53001
0
LINE
8
BLACK
6
CONTINUOUS
10
4.68152
20
-6.53001
11
4.6984
21
-6.53001
0
LINE
8
BLACK
6
CONTINUOUS
10
4.6984
20
-6.53001
11
4.70965
21
-6.53563
0
LINE
8
BLACK
6
CONTINUOUS
10
4.70965
20
-6.53563
11
4.71527
21
-6.54688
0
LINE
8
BLACK
6
CONTINUOUS
10
4.71527
20
-6.54688
11
4.71527
21
-6.60875
0
LINE
8
BLACK
6
CONTINUOUS
10
4.77151
20
-6.60875
11
4.77151
21
-6.53001
0
LINE
8
BLACK
6
CONTINUOUS
10
4.77151
20
-6.54125
11
4.77714
21
-6.53563
0
LINE
8
BLACK
6
CONTINUOUS
10
4.77714
20
-6.53563
11
4.78839
21
-6.53001
0
LINE
8
BLACK
6
CONTINUOUS
10
4.78839
20
-6.53001
11
4.80526
21
-6.53001
0
LINE
8
BLACK
6
CONTINUOUS
10
4.80526
20
-6.53001
11
4.81651
21
-6.53563
0
LINE
8
BLACK
6
CONTINUOUS
10
4.81651
20
-6.53563
11
4.82213
21
-6.54688
0
LINE
8
BLACK
6
CONTINUOUS
10
4.82213
20
-6.54688
11
4.82213
21
-6.60875
0
LINE
8
BLACK
6
CONTINUOUS
10
4.82213
20
-6.54688
11
4.82776
21
-6.53563
0
LINE
8
BLACK
6
CONTINUOUS
10
4.82776
20
-6.53563
11
4.839
21
-6.53001
0
LINE
8
BLACK
6
CONTINUOUS
10
4.839
20
-6.53001
11
4.85588
21
-6.53001
0
LINE
8
BLACK
6
CONTINUOUS
10
4.85588
20
-6.53001
11
4.86713
21
-6.53563
0
LINE
8
BLACK
6
CONTINUOUS
10
4.86713
20
-6.53563
11
4.87275
21
-6.54688
0
LINE
8
BLACK
6
CONTINUOUS
10
4.87275
20
-6.54688
11
4.87275
21
-6.60875
0
LINE
8
BLACK
6
CONTINUOUS
10
5.10335
20
-6.48501
11
5.00211
21
-6.63687
0
LINE
8
BLACK
6
CONTINUOUS
10
5.2552
20
-6.49064
11
5.26645
21
-6.49064
0
LINE
8
BLACK
6
CONTINUOUS
10
5.26645
20
-6.49064
11
5.2777
21
-6.49626
0
LINE
8
BLACK
6
CONTINUOUS
10
5.2777
20
-6.49626
11
5.28332
21
-6.50188
0
LINE
8
BLACK
6
CONTINUOUS
10
5.28332
20
-6.50188
11
5.28895
21
-6.51313
0
LINE
8
BLACK
6
CONTINUOUS
10
5.28895
20
-6.51313
11
5.29457
21
-6.53563
0
LINE
8
BLACK
6
CONTINUOUS
10
5.29457
20
-6.53563
11
5.29457
21
-6.56375
0
LINE
8
BLACK
6
CONTINUOUS
10
5.29457
20
-6.56375
11
5.28895
21
-6.58625
0
LINE
8
BLACK
6
CONTINUOUS
10
5.28895
20
-6.58625
11
5.28332
21
-6.5975
0
LINE
8
BLACK
6
CONTINUOUS
10
5.28332
20
-6.5975
11
5.2777
21
-6.60312
0
LINE
8
BLACK
6
CONTINUOUS
10
5.2777
20
-6.60312
11
5.26645
21
-6.60875
0
LINE
8
BLACK
6
CONTINUOUS
10
5.26645
20
-6.60875
11
5.2552
21
-6.60875
0
LINE
8
BLACK
6
CONTINUOUS
10
5.2552
20
-6.60875
11
5.24395
21
-6.60312
0
LINE
8
BLACK
6
CONTINUOUS
10
5.24395
20
-6.60312
11
5.23833
21
-6.5975
0
LINE
8
BLACK
6
CONTINUOUS
10
5.23833
20
-6.5975
11
5.23271
21
-6.58625
0
LINE
8
BLACK
6
CONTINUOUS
10
5.23271
20
-6.58625
11
5.22708
21
-6.56375
0
LINE
8
BLACK
6
CONTINUOUS
10
5.22708
20
-6.56375
11
5.22708
21
-6.53563
0
LINE
8
BLACK
6
CONTINUOUS
10
5.22708
20
-6.53563
11
5.23271
21
-6.51313
0
LINE
8
BLACK
6
CONTINUOUS
10
5.23271
20
-6.51313
11
5.23833
21
-6.50188
0
LINE
8
BLACK
6
CONTINUOUS
10
5.23833
20
-6.50188
11
5.24395
21
-6.49626
0
LINE
8
BLACK
6
CONTINUOUS
10
5.24395
20
-6.49626
11
5.2552
21
-6.49064
0
LINE
8
BLACK
6
CONTINUOUS
10
5.34519
20
-6.5975
11
5.35082
21
-6.60312
0
LINE
8
BLACK
6
CONTINUOUS
10
5.35082
20
-6.60312
11
5.34519
21
-6.60875
0
LINE
8
BLACK
6
CONTINUOUS
10
5.34519
20
-6.60875
11
5.33957
21
-6.60312
0
LINE
8
BLACK
6
CONTINUOUS
10
5.33957
20
-6.60312
11
5.34519
21
-6.5975
0
LINE
8
BLACK
6
CONTINUOUS
10
5.34519
20
-6.5975
11
5.34519
21
-6.60875
0
LINE
8
BLACK
6
CONTINUOUS
10
5.42393
20
-6.49064
11
5.43518
21
-6.49064
0
LINE
8
BLACK
6
CONTINUOUS
10
5.43518
20
-6.49064
11
5.44643
21
-6.49626
0
LINE
8
BLACK
6
CONTINUOUS
10
5.44643
20
-6.49626
11
5.45205
21
-6.50188
0
LINE
8
BLACK
6
CONTINUOUS
10
5.45205
20
-6.50188
11
5.45768
21
-6.51313
0
LINE
8
BLACK
6
CONTINUOUS
10
5.45768
20
-6.51313
11
5.4633
21
-6.53563
0
LINE
8
BLACK
6
CONTINUOUS
10
5.4633
20
-6.53563
11
5.4633
21
-6.56375
0
LINE
8
BLACK
6
CONTINUOUS
10
5.4633
20
-6.56375
11
5.45768
21
-6.58625
0
LINE
8
BLACK
6
CONTINUOUS
10
5.45768
20
-6.58625
11
5.45205
21
-6.5975
0
LINE
8
BLACK
6
CONTINUOUS
10
5.45205
20
-6.5975
11
5.44643
21
-6.60312
0
LINE
8
BLACK
6
CONTINUOUS
10
5.44643
20
-6.60312
11
5.43518
21
-6.60875
0
LINE
8
BLACK
6
CONTINUOUS
10
5.43518
20
-6.60875
11
5.42393
21
-6.60875
0
LINE
8
BLACK
6
CONTINUOUS
10
5.42393
20
-6.60875
11
5.41268
21
-6.60312
0
LINE
8
BLACK
6
CONTINUOUS
10
5.41268
20
-6.60312
11
5.40706
21
-6.5975
0
LINE
8
BLACK
6
CONTINUOUS
10
5.40706
20
-6.5975
11
5.40143
21
-6.58625
0
LINE
8
BLACK
6
CONTINUOUS
10
5.40143
20
-6.58625
11
5.39581
21
-6.56375
0
LINE
8
BLACK
6
CONTINUOUS
10
5.39581
20
-6.56375
11
5.39581
21
-6.53563
0
LINE
8
BLACK
6
CONTINUOUS
10
5.39581
20
-6.53563
11
5.40143
21
-6.51313
0
LINE
8
BLACK
6
CONTINUOUS
10
5.40143
20
-6.51313
11
5.40706
21
-6.50188
0
LINE
8
BLACK
6
CONTINUOUS
10
5.40706
20
-6.50188
11
5.41268
21
-6.49626
0
LINE
8
BLACK
6
CONTINUOUS
10
5.41268
20
-6.49626
11
5.42393
21
-6.49064
0
LINE
8
BLACK
6
CONTINUOUS
10
5.57016
20
-6.49064
11
5.51392
21
-6.49064
0
LINE
8
BLACK
6
CONTINUOUS
10
5.51392
20
-6.49064
11
5.5083
21
-6.54688
0
LINE
8
BLACK
6
CONTINUOUS
10
5.5083
20
-6.54688
11
5.51392
21
-6.54125
0
LINE
8
BLACK
6
CONTINUOUS
10
5.51392
20
-6.54125
11
5.52517
21
-6.53563
0
LINE
8
BLACK
6
CONTINUOUS
10
5.52517
20
-6.53563
11
5.55329
21
-6.53563
0
LINE
8
BLACK
6
CONTINUOUS
10
5.55329
20
-6.53563
11
5.56454
21
-6.54125
0
LINE
8
BLACK
6
CONTINUOUS
10
5.56454
20
-6.54125
11
5.57016
21
-6.54688
0
LINE
8
BLACK
6
CONTINUOUS
10
5.57016
20
-6.54688
11
5.57579
21
-6.55813
0
LINE
8
BLACK
6
CONTINUOUS
10
5.57579
20
-6.55813
11
5.57579
21
-6.58625
0
LINE
8
BLACK
6
CONTINUOUS
10
5.57579
20
-6.58625
11
5.57016
21
-6.5975
0
LINE
8
BLACK
6
CONTINUOUS
10
5.57016
20
-6.5975
11
5.56454
21
-6.60312
0
LINE
8
BLACK
6
CONTINUOUS
10
5.56454
20
-6.60312
11
5.55329
21
-6.60875
0
LINE
8
BLACK
6
CONTINUOUS
10
5.55329
20
-6.60875
11
5.52517
21
-6.60875
0
LINE
8
BLACK
6
CONTINUOUS
10
5.52517
20
-6.60875
11
5.51392
21
-6.60312
0
LINE
8
BLACK
6
CONTINUOUS
10
5.51392
20
-6.60312
11
5.5083
21
-6.5975
0
LINE
8
BLACK
6
CONTINUOUS
10
5.63203
20
-6.60875
11
5.65453
21
-6.60875
0
LINE
8
BLACK
6
CONTINUOUS
10
5.65453
20
-6.60875
11
5.66578
21
-6.60312
0
LINE
8
BLACK
6
CONTINUOUS
10
5.66578
20
-6.60312
11
5.6714
21
-6.5975
0
LINE
8
BLACK
6
CONTINUOUS
10
5.6714
20
-6.5975
11
5.68265
21
-6.58062
0
LINE
8
BLACK
6
CONTINUOUS
10
5.68265
20
-6.58062
11
5.68827
21
-6.55813
0
LINE
8
BLACK
6
CONTINUOUS
10
5.68827
20
-6.55813
11
5.68827
21
-6.51313
0
LINE
8
BLACK
6
CONTINUOUS
10
5.68827
20
-6.51313
11
5.68265
21
-6.50188
0
LINE
8
BLACK
6
CONTINUOUS
10
5.68265
20
-6.50188
11
5.67702
21
-6.49626
0
LINE
8
BLACK
6
CONTINUOUS
10
5.67702
20
-6.49626
11
5.66578
21
-6.49064
0
LINE
8
BLACK
6
CONTINUOUS
10
5.66578
20
-6.49064
11
5.64328
21
-6.49064
0
LINE
8
BLACK
6
CONTINUOUS
10
5.64328
20
-6.49064
11
5.63203
21
-6.49626
0
LINE
8
BLACK
6
CONTINUOUS
10
5.63203
20
-6.49626
11
5.62641
21
-6.50188
0
LINE
8
BLACK
6
CONTINUOUS
10
5.62641
20
-6.50188
11
5.62078
21
-6.51313
0
LINE
8
BLACK
6
CONTINUOUS
10
5.62078
20
-6.51313
11
5.62078
21
-6.54125
0
LINE
8
BLACK
6
CONTINUOUS
10
5.62078
20
-6.54125
11
5.62641
21
-6.5525
0
LINE
8
BLACK
6
CONTINUOUS
10
5.62641
20
-6.5525
11
5.63203
21
-6.55813
0
LINE
8
BLACK
6
CONTINUOUS
10
5.63203
20
-6.55813
11
5.64328
21
-6.56375
0
LINE
8
BLACK
6
CONTINUOUS
10
5.64328
20
-6.56375
11
5.66578
21
-6.56375
0
LINE
8
BLACK
6
CONTINUOUS
10
5.66578
20
-6.56375
11
5.67702
21
-6.55813
0
LINE
8
BLACK
6
CONTINUOUS
10
5.67702
20
-6.55813
11
5.68265
21
-6.5525
0
LINE
8
BLACK
6
CONTINUOUS
10
5.68265
20
-6.5525
11
5.68827
21
-6.54125
0
LINE
8
BLACK
6
CONTINUOUS
10
5.80076
20
-6.60875
11
5.73327
21
-6.60875
0
LINE
8
BLACK
6
CONTINUOUS
10
5.76701
20
-6.60875
11
5.76701
21
-6.49064
0
LINE
8
BLACK
6
CONTINUOUS
10
5.76701
20
-6.49064
11
5.75576
21
-6.50751
0
LINE
8
BLACK
6
CONTINUOUS
10
5.75576
20
-6.50751
11
5.74452
21
-6.51876
0
LINE
8
BLACK
6
CONTINUOUS
10
5.74452
20
-6.51876
11
5.73327
21
-6.52438
0
LINE
8
BLACK
6
CONTINUOUS
10
5.84575
20
-6.49064
11
5.84575
21
-6.51313
0
LINE
8
BLACK
6
CONTINUOUS
10
5.89075
20
-6.49064
11
5.89075
21
-6.51313
0
LINE
8
BLACK
6
CONTINUOUS
10
6.0651
20
-6.65374
11
6.05948
21
-6.64812
0
LINE
8
BLACK
6
CONTINUOUS
10
6.05948
20
-6.64812
11
6.04823
21
-6.63124
0
LINE
8
BLACK
6
CONTINUOUS
10
6.04823
20
-6.63124
11
6.0426
21
-6.61999
0
LINE
8
BLACK
6
CONTINUOUS
10
6.0426
20
-6.61999
11
6.03698
21
-6.60312
0
LINE
8
BLACK
6
CONTINUOUS
10
6.03698
20
-6.60312
11
6.03136
21
-6.575
0
LINE
8
BLACK
6
CONTINUOUS
10
6.03136
20
-6.575
11
6.03136
21
-6.5525
0
LINE
8
BLACK
6
CONTINUOUS
10
6.03136
20
-6.5525
11
6.03698
21
-6.52438
0
LINE
8
BLACK
6
CONTINUOUS
10
6.03698
20
-6.52438
11
6.0426
21
-6.50751
0
LINE
8
BLACK
6
CONTINUOUS
10
6.0426
20
-6.50751
11
6.04823
21
-6.49626
0
LINE
8
BLACK
6
CONTINUOUS
10
6.04823
20
-6.49626
11
6.05948
21
-6.47939
0
LINE
8
BLACK
6
CONTINUOUS
10
6.05948
20
-6.47939
11
6.0651
21
-6.47376
0
LINE
8
BLACK
6
CONTINUOUS
10
6.09885
20
-6.49064
11
6.17196
21
-6.49064
0
LINE
8
BLACK
6
CONTINUOUS
10
6.17196
20
-6.49064
11
6.13259
21
-6.53563
0
LINE
8
BLACK
6
CONTINUOUS
10
6.13259
20
-6.53563
11
6.14947
21
-6.53563
0
LINE
8
BLACK
6
CONTINUOUS
10
6.14947
20
-6.53563
11
6.16071
21
-6.54125
0
LINE
8
BLACK
6
CONTINUOUS
10
6.16071
20
-6.54125
11
6.16634
21
-6.54688
0
LINE
8
BLACK
6
CONTINUOUS
10
6.16634
20
-6.54688
11
6.17196
21
-6.55813
0
LINE
8
BLACK
6
CONTINUOUS
10
6.17196
20
-6.55813
11
6.17196
21
-6.58625
0
LINE
8
BLACK
6
CONTINUOUS
10
6.17196
20
-6.58625
11
6.16634
21
-6.5975
0
LINE
8
BLACK
6
CONTINUOUS
10
6.16634
20
-6.5975
11
6.16071
21
-6.60312
0
LINE
8
BLACK
6
CONTINUOUS
10
6.16071
20
-6.60312
11
6.14947
21
-6.60875
0
LINE
8
BLACK
6
CONTINUOUS
10
6.14947
20
-6.60875
11
6.11572
21
-6.60875
0
LINE
8
BLACK
6
CONTINUOUS
10
6.11572
20
-6.60875
11
6.10447
21
-6.60312
0
LINE
8
BLACK
6
CONTINUOUS
10
6.10447
20
-6.60312
11
6.09885
21
-6.5975
0
LINE
8
BLACK
6
CONTINUOUS
10
6.21696
20
-6.50188
11
6.22258
21
-6.49626
0
LINE
8
BLACK
6
CONTINUOUS
10
6.22258
20
-6.49626
11
6.23383
21
-6.49064
0
LINE
8
BLACK
6
CONTINUOUS
10
6.23383
20
-6.49064
11
6.26195
21
-6.49064
0
LINE
8
BLACK
6
CONTINUOUS
10
6.26195
20
-6.49064
11
6.2732
21
-6.49626
0
LINE
8
BLACK
6
CONTINUOUS
10
6.2732
20
-6.49626
11
6.27882
21
-6.50188
0
LINE
8
BLACK
6
CONTINUOUS
10
6.27882
20
-6.50188
11
6.28445
21
-6.51313
0
LINE
8
BLACK
6
CONTINUOUS
10
6.28445
20
-6.51313
11
6.28445
21
-6.52438
0
LINE
8
BLACK
6
CONTINUOUS
10
6.28445
20
-6.52438
11
6.27882
21
-6.54125
0
LINE
8
BLACK
6
CONTINUOUS
10
6.27882
20
-6.54125
11
6.21133
21
-6.60875
0
LINE
8
BLACK
6
CONTINUOUS
10
6.21133
20
-6.60875
11
6.28445
21
-6.60875
0
LINE
8
BLACK
6
CONTINUOUS
10
6.42506
20
-6.60875
11
6.42506
21
-6.49064
0
LINE
8
BLACK
6
CONTINUOUS
10
6.47567
20
-6.60875
11
6.47567
21
-6.54688
0
LINE
8
BLACK
6
CONTINUOUS
10
6.47567
20
-6.54688
11
6.47005
21
-6.53563
0
LINE
8
BLACK
6
CONTINUOUS
10
6.47005
20
-6.53563
11
6.4588
21
-6.53001
0
LINE
8
BLACK
6
CONTINUOUS
10
6.4588
20
-6.53001
11
6.44193
21
-6.53001
0
LINE
8
BLACK
6
CONTINUOUS
10
6.44193
20
-6.53001
11
6.43068
21
-6.53563
0
LINE
8
BLACK
6
CONTINUOUS
10
6.43068
20
-6.53563
11
6.42506
21
-6.54125
0
LINE
8
BLACK
6
CONTINUOUS
10
6.54879
20
-6.60875
11
6.53754
21
-6.60312
0
LINE
8
BLACK
6
CONTINUOUS
10
6.53754
20
-6.60312
11
6.53192
21
-6.5975
0
LINE
8
BLACK
6
CONTINUOUS
10
6.53192
20
-6.5975
11
6.52629
21
-6.58625
0
LINE
8
BLACK
6
CONTINUOUS
10
6.52629
20
-6.58625
11
6.52629
21
-6.5525
0
LINE
8
BLACK
6
CONTINUOUS
10
6.52629
20
-6.5525
11
6.53192
21
-6.54125
0
LINE
8
BLACK
6
CONTINUOUS
10
6.53192
20
-6.54125
11
6.53754
21
-6.53563
0
LINE
8
BLACK
6
CONTINUOUS
10
6.53754
20
-6.53563
11
6.54879
21
-6.53001
0
LINE
8
BLACK
6
CONTINUOUS
10
6.54879
20
-6.53001
11
6.56566
21
-6.53001
0
LINE
8
BLACK
6
CONTINUOUS
10
6.56566
20
-6.53001
11
6.57691
21
-6.53563
0
LINE
8
BLACK
6
CONTINUOUS
10
6.57691
20
-6.53563
11
6.58254
21
-6.54125
0
LINE
8
BLACK
6
CONTINUOUS
10
6.58254
20
-6.54125
11
6.58816
21
-6.5525
0
LINE
8
BLACK
6
CONTINUOUS
10
6.58816
20
-6.5525
11
6.58816
21
-6.58625
0
LINE
8
BLACK
6
CONTINUOUS
10
6.58816
20
-6.58625
11
6.58254
21
-6.5975
0
LINE
8
BLACK
6
CONTINUOUS
10
6.58254
20
-6.5975
11
6.57691
21
-6.60312
0
LINE
8
BLACK
6
CONTINUOUS
10
6.57691
20
-6.60312
11
6.56566
21
-6.60875
0
LINE
8
BLACK
6
CONTINUOUS
10
6.56566
20
-6.60875
11
6.54879
21
-6.60875
0
LINE
8
BLACK
6
CONTINUOUS
10
6.65565
20
-6.60875
11
6.6444
21
-6.60312
0
LINE
8
BLACK
6
CONTINUOUS
10
6.6444
20
-6.60312
11
6.63878
21
-6.59187
0
LINE
8
BLACK
6
CONTINUOUS
10
6.63878
20
-6.59187
11
6.63878
21
-6.49064
0
LINE
8
BLACK
6
CONTINUOUS
10
6.74564
20
-6.60312
11
6.73439
21
-6.60875
0
LINE
8
BLACK
6
CONTINUOUS
10
6.73439
20
-6.60875
11
6.7119
21
-6.60875
0
LINE
8
BLACK
6
CONTINUOUS
10
6.7119
20
-6.60875
11
6.70065
21
-6.60312
0
LINE
8
BLACK
6
CONTINUOUS
10
6.70065
20
-6.60312
11
6.69502
21
-6.59187
0
LINE
8
BLACK
6
CONTINUOUS
10
6.69502
20
-6.59187
11
6.69502
21
-6.54688
0
LINE
8
BLACK
6
CONTINUOUS
10
6.69502
20
-6.54688
11
6.70065
21
-6.53563
0
LINE
8
BLACK
6
CONTINUOUS
10
6.70065
20
-6.53563
11
6.7119
21
-6.53001
0
LINE
8
BLACK
6
CONTINUOUS
10
6.7119
20
-6.53001
11
6.73439
21
-6.53001
0
LINE
8
BLACK
6
CONTINUOUS
10
6.73439
20
-6.53001
11
6.74564
21
-6.53563
0
LINE
8
BLACK
6
CONTINUOUS
10
6.74564
20
-6.53563
11
6.75127
21
-6.54688
0
LINE
8
BLACK
6
CONTINUOUS
10
6.75127
20
-6.54688
11
6.75127
21
-6.55813
0
LINE
8
BLACK
6
CONTINUOUS
10
6.75127
20
-6.55813
11
6.69502
21
-6.56938
0
LINE
8
BLACK
6
CONTINUOUS
10
6.79626
20
-6.60312
11
6.80751
21
-6.60875
0
LINE
8
BLACK
6
CONTINUOUS
10
6.80751
20
-6.60875
11
6.83001
21
-6.60875
0
LINE
8
BLACK
6
CONTINUOUS
10
6.83001
20
-6.60875
11
6.84125
21
-6.60312
0
LINE
8
BLACK
6
CONTINUOUS
10
6.84125
20
-6.60312
11
6.84688
21
-6.59187
0
LINE
8
BLACK
6
CONTINUOUS
10
6.84688
20
-6.59187
11
6.84688
21
-6.58625
0
LINE
8
BLACK
6
CONTINUOUS
10
6.84688
20
-6.58625
11
6.84125
21
-6.575
0
LINE
8
BLACK
6
CONTINUOUS
10
6.84125
20
-6.575
11
6.83001
21
-6.56938
0
LINE
8
BLACK
6
CONTINUOUS
10
6.83001
20
-6.56938
11
6.81313
21
-6.56938
0
LINE
8
BLACK
6
CONTINUOUS
10
6.81313
20
-6.56938
11
6.80188
21
-6.56375
0
LINE
8
BLACK
6
CONTINUOUS
10
6.80188
20
-6.56375
11
6.79626
21
-6.5525
0
LINE
8
BLACK
6
CONTINUOUS
10
6.79626
20
-6.5525
11
6.79626
21
-6.54688
0
LINE
8
BLACK
6
CONTINUOUS
10
6.79626
20
-6.54688
11
6.80188
21
-6.53563
0
LINE
8
BLACK
6
CONTINUOUS
10
6.80188
20
-6.53563
11
6.81313
21
-6.53001
0
LINE
8
BLACK
6
CONTINUOUS
10
6.81313
20
-6.53001
11
6.83001
21
-6.53001
0
LINE
8
BLACK
6
CONTINUOUS
10
6.83001
20
-6.53001
11
6.84125
21
-6.53563
0
LINE
8
BLACK
6
CONTINUOUS
10
6.88625
20
-6.65374
11
6.89187
21
-6.64812
0
LINE
8
BLACK
6
CONTINUOUS
10
6.89187
20
-6.64812
11
6.90312
21
-6.63124
0
LINE
8
BLACK
6
CONTINUOUS
10
6.90312
20
-6.63124
11
6.90875
21
-6.61999
0
LINE
8
BLACK
6
CONTINUOUS
10
6.90875
20
-6.61999
11
6.91437
21
-6.60312
0
LINE
8
BLACK
6
CONTINUOUS
10
6.91437
20
-6.60312
11
6.91999
21
-6.575
0
LINE
8
BLACK
6
CONTINUOUS
10
6.91999
20
-6.575
11
6.91999
21
-6.5525
0
LINE
8
BLACK
6
CONTINUOUS
10
6.91999
20
-6.5525
11
6.91437
21
-6.52438
0
LINE
8
BLACK
6
CONTINUOUS
10
6.91437
20
-6.52438
11
6.90875
21
-6.50751
0
LINE
8
BLACK
6
CONTINUOUS
10
6.90875
20
-6.50751
11
6.90312
21
-6.49626
0
LINE
8
BLACK
6
CONTINUOUS
10
6.90312
20
-6.49626
11
6.89187
21
-6.47939
0
LINE
8
BLACK
6
CONTINUOUS
10
6.89187
20
-6.47939
11
6.88625
21
-6.47376
0
LINE
8
BLACK
6
CONTINUOUS
10
3.93209
20
-6.77421
11
3.99508
21
-6.71122
0
LINE
8
BLACK
6
CONTINUOUS
10
3.99508
20
-6.71122
11
3.93209
21
-6.64823
0
LINE
8
BLACK
6
CONTINUOUS
10
3.93209
20
-6.64823
11
3.86909
21
-6.71122
0
LINE
8
BLACK
6
CONTINUOUS
10
3.86909
20
-6.71122
11
3.93209
21
-6.77421
0
LINE
8
BLACK
6
CONTINUOUS
10
4.0966
20
-6.64654
11
4.16971
21
-6.64654
0
LINE
8
BLACK
6
CONTINUOUS
10
4.16971
20
-6.64654
11
4.13034
21
-6.69154
0
LINE
8
BLACK
6
CONTINUOUS
10
4.13034
20
-6.69154
11
4.14722
21
-6.69154
0
LINE
8
BLACK
6
CONTINUOUS
10
4.14722
20
-6.69154
11
4.15846
21
-6.69716
0
LINE
8
BLACK
6
CONTINUOUS
10
4.15846
20
-6.69716
11
4.16409
21
-6.70278
0
LINE
8
BLACK
6
CONTINUOUS
10
4.16409
20
-6.70278
11
4.16971
21
-6.71403
0
LINE
8
BLACK
6
CONTINUOUS
10
4.16971
20
-6.71403
11
4.16971
21
-6.74215
0
LINE
8
BLACK
6
CONTINUOUS
10
4.16971
20
-6.74215
11
4.16409
21
-6.7534
0
LINE
8
BLACK
6
CONTINUOUS
10
4.16409
20
-6.7534
11
4.15846
21
-6.75903
0
LINE
8
BLACK
6
CONTINUOUS
10
4.15846
20
-6.75903
11
4.14722
21
-6.76465
0
LINE
8
BLACK
6
CONTINUOUS
10
4.14722
20
-6.76465
11
4.11347
21
-6.76465
0
LINE
8
BLACK
6
CONTINUOUS
10
4.11347
20
-6.76465
11
4.10222
21
-6.75903
0
LINE
8
BLACK
6
CONTINUOUS
10
4.10222
20
-6.75903
11
4.0966
21
-6.7534
0
LINE
8
BLACK
6
CONTINUOUS
10
4.22033
20
-6.7534
11
4.22596
21
-6.75903
0
LINE
8
BLACK
6
CONTINUOUS
10
4.22596
20
-6.75903
11
4.22033
21
-6.76465
0
LINE
8
BLACK
6
CONTINUOUS
10
4.22033
20
-6.76465
11
4.21471
21
-6.75903
0
LINE
8
BLACK
6
CONTINUOUS
10
4.21471
20
-6.75903
11
4.22033
21
-6.7534
0
LINE
8
BLACK
6
CONTINUOUS
10
4.22033
20
-6.7534
11
4.22033
21
-6.76465
0
LINE
8
BLACK
6
CONTINUOUS
10
4.27095
20
-6.65779
11
4.27657
21
-6.65217
0
LINE
8
BLACK
6
CONTINUOUS
10
4.27657
20
-6.65217
11
4.28782
21
-6.64654
0
LINE
8
BLACK
6
CONTINUOUS
10
4.28782
20
-6.64654
11
4.31594
21
-6.64654
0
LINE
8
BLACK
6
CONTINUOUS
10
4.31594
20
-6.64654
11
4.32719
21
-6.65217
0
LINE
8
BLACK
6
CONTINUOUS
10
4.32719
20
-6.65217
11
4.33282
21
-6.65779
0
LINE
8
BLACK
6
CONTINUOUS
10
4.33282
20
-6.65779
11
4.33844
21
-6.66904
0
LINE
8
BLACK
6
CONTINUOUS
10
4.33844
20
-6.66904
11
4.33844
21
-6.68029
0
LINE
8
BLACK
6
CONTINUOUS
10
4.33844
20
-6.68029
11
4.33282
21
-6.69716
0
LINE
8
BLACK
6
CONTINUOUS
10
4.33282
20
-6.69716
11
4.26533
21
-6.76465
0
LINE
8
BLACK
6
CONTINUOUS
10
4.26533
20
-6.76465
11
4.33844
21
-6.76465
0
LINE
8
BLACK
6
CONTINUOUS
10
4.41156
20
-6.64654
11
4.42281
21
-6.64654
0
LINE
8
BLACK
6
CONTINUOUS
10
4.42281
20
-6.64654
11
4.43406
21
-6.65217
0
LINE
8
BLACK
6
CONTINUOUS
10
4.43406
20
-6.65217
11
4.43968
21
-6.65779
0
LINE
8
BLACK
6
CONTINUOUS
10
4.43968
20
-6.65779
11
4.4453
21
-6.66904
0
LINE
8
BLACK
6
CONTINUOUS
10
4.4453
20
-6.66904
11
4.45093
21
-6.69154
0
LINE
8
BLACK
6
CONTINUOUS
10
4.45093
20
-6.69154
11
4.45093
21
-6.71966
0
LINE
8
BLACK
6
CONTINUOUS
10
4.45093
20
-6.71966
11
4.4453
21
-6.74215
0
LINE
8
BLACK
6
CONTINUOUS
10
4.4453
20
-6.74215
11
4.43968
21
-6.7534
0
LINE
8
BLACK
6
CONTINUOUS
10
4.43968
20
-6.7534
11
4.43406
21
-6.75903
0
LINE
8
BLACK
6
CONTINUOUS
10
4.43406
20
-6.75903
11
4.42281
21
-6.76465
0
LINE
8
BLACK
6
CONTINUOUS
10
4.42281
20
-6.76465
11
4.41156
21
-6.76465
0
LINE
8
BLACK
6
CONTINUOUS
10
4.41156
20
-6.76465
11
4.40031
21
-6.75903
0
LINE
8
BLACK
6
CONTINUOUS
10
4.40031
20
-6.75903
11
4.39468
21
-6.7534
0
LINE
8
BLACK
6
CONTINUOUS
10
4.39468
20
-6.7534
11
4.38906
21
-6.74215
0
LINE
8
BLACK
6
CONTINUOUS
10
4.38906
20
-6.74215
11
4.38344
21
-6.71966
0
LINE
8
BLACK
6
CONTINUOUS
10
4.38344
20
-6.71966
11
4.38344
21
-6.69154
0
LINE
8
BLACK
6
CONTINUOUS
10
4.38344
20
-6.69154
11
4.38906
21
-6.66904
0
LINE
8
BLACK
6
CONTINUOUS
10
4.38906
20
-6.66904
11
4.39468
21
-6.65779
0
LINE
8
BLACK
6
CONTINUOUS
10
4.39468
20
-6.65779
11
4.40031
21
-6.65217
0
LINE
8
BLACK
6
CONTINUOUS
10
4.40031
20
-6.65217
11
4.41156
21
-6.64654
0
LINE
8
BLACK
6
CONTINUOUS
10
4.52404
20
-6.64654
11
4.53529
21
-6.64654
0
LINE
8
BLACK
6
CONTINUOUS
10
4.53529
20
-6.64654
11
4.54654
21
-6.65217
0
LINE
8
BLACK
6
CONTINUOUS
10
4.54654
20
-6.65217
11
4.55217
21
-6.65779
0
LINE
8
BLACK
6
CONTINUOUS
10
4.55217
20
-6.65779
11
4.55779
21
-6.66904
0
LINE
8
BLACK
6
CONTINUOUS
10
4.55779
20
-6.66904
11
4.56341
21
-6.69154
0
LINE
8
BLACK
6
CONTINUOUS
10
4.56341
20
-6.69154
11
4.56341
21
-6.71966
0
LINE
8
BLACK
6
CONTINUOUS
10
4.56341
20
-6.71966
11
4.55779
21
-6.74215
0
LINE
8
BLACK
6
CONTINUOUS
10
4.55779
20
-6.74215
11
4.55217
21
-6.7534
0
LINE
8
BLACK
6
CONTINUOUS
10
4.55217
20
-6.7534
11
4.54654
21
-6.75903
0
LINE
8
BLACK
6
CONTINUOUS
10
4.54654
20
-6.75903
11
4.53529
21
-6.76465
0
LINE
8
BLACK
6
CONTINUOUS
10
4.53529
20
-6.76465
11
4.52404
21
-6.76465
0
LINE
8
BLACK
6
CONTINUOUS
10
4.52404
20
-6.76465
11
4.5128
21
-6.75903
0
LINE
8
BLACK
6
CONTINUOUS
10
4.5128
20
-6.75903
11
4.50717
21
-6.7534
0
LINE
8
BLACK
6
CONTINUOUS
10
4.50717
20
-6.7534
11
4.50155
21
-6.74215
0
LINE
8
BLACK
6
CONTINUOUS
10
4.50155
20
-6.74215
11
4.49592
21
-6.71966
0
LINE
8
BLACK
6
CONTINUOUS
10
4.49592
20
-6.71966
11
4.49592
21
-6.69154
0
LINE
8
BLACK
6
CONTINUOUS
10
4.49592
20
-6.69154
11
4.50155
21
-6.66904
0
LINE
8
BLACK
6
CONTINUOUS
10
4.50155
20
-6.66904
11
4.50717
21
-6.65779
0
LINE
8
BLACK
6
CONTINUOUS
10
4.50717
20
-6.65779
11
4.5128
21
-6.65217
0
LINE
8
BLACK
6
CONTINUOUS
10
4.5128
20
-6.65217
11
4.52404
21
-6.64654
0
LINE
8
BLACK
6
CONTINUOUS
10
4.61403
20
-6.76465
11
4.61403
21
-6.68591
0
LINE
8
BLACK
6
CONTINUOUS
10
4.61403
20
-6.69716
11
4.61966
21
-6.69154
0
LINE
8
BLACK
6
CONTINUOUS
10
4.61966
20
-6.69154
11
4.63091
21
-6.68591
0
LINE
8
BLACK
6
CONTINUOUS
10
4.63091
20
-6.68591
11
4.64778
21
-6.68591
0
LINE
8
BLACK
6
CONTINUOUS
10
4.64778
20
-6.68591
11
4.65903
21
-6.69154
0
LINE
8
BLACK
6
CONTINUOUS
10
4.65903
20
-6.69154
11
4.66465
21
-6.70278
0
LINE
8
BLACK
6
CONTINUOUS
10
4.66465
20
-6.70278
11
4.66465
21
-6.76465
0
LINE
8
BLACK
6
CONTINUOUS
10
4.66465
20
-6.70278
11
4.67028
21
-6.69154
0
LINE
8
BLACK
6
CONTINUOUS
10
4.67028
20
-6.69154
11
4.68152
21
-6.68591
0
LINE
8
BLACK
6
CONTINUOUS
10
4.68152
20
-6.68591
11
4.6984
21
-6.68591
0
LINE
8
BLACK
6
CONTINUOUS
10
4.6984
20
-6.68591
11
4.70965
21
-6.69154
0
LINE
8
BLACK
6
CONTINUOUS
10
4.70965
20
-6.69154
11
4.71527
21
-6.70278
0
LINE
8
BLACK
6
CONTINUOUS
10
4.71527
20
-6.70278
11
4.71527
21
-6.76465
0
LINE
8
BLACK
6
CONTINUOUS
10
4.77151
20
-6.76465
11
4.77151
21
-6.68591
0
LINE
8
BLACK
6
CONTINUOUS
10
4.77151
20
-6.69716
11
4.77714
21
-6.69154
0
LINE
8
BLACK
6
CONTINUOUS
10
4.77714
20
-6.69154
11
4.78839
21
-6.68591
0
LINE
8
BLACK
6
CONTINUOUS
10
4.78839
20
-6.68591
11
4.80526
21
-6.68591
0
LINE
8
BLACK
6
CONTINUOUS
10
4.80526
20
-6.68591
11
4.81651
21
-6.69154
0
LINE
8
BLACK
6
CONTINUOUS
10
4.81651
20
-6.69154
11
4.82213
21
-6.70278
0
LINE
8
BLACK
6
CONTINUOUS
10
4.82213
20
-6.70278
11
4.82213
21
-6.76465
0
LINE
8
BLACK
6
CONTINUOUS
10
4.82213
20
-6.70278
11
4.82776
21
-6.69154
0
LINE
8
BLACK
6
CONTINUOUS
10
4.82776
20
-6.69154
11
4.839
21
-6.68591
0
LINE
8
BLACK
6
CONTINUOUS
10
4.839
20
-6.68591
11
4.85588
21
-6.68591
0
LINE
8
BLACK
6
CONTINUOUS
10
4.85588
20
-6.68591
11
4.86713
21
-6.69154
0
LINE
8
BLACK
6
CONTINUOUS
10
4.86713
20
-6.69154
11
4.87275
21
-6.70278
0
LINE
8
BLACK
6
CONTINUOUS
10
4.87275
20
-6.70278
11
4.87275
21
-6.76465
0
LINE
8
BLACK
6
CONTINUOUS
10
5.10335
20
-6.64092
11
5.00211
21
-6.79277
0
LINE
8
BLACK
6
CONTINUOUS
10
5.2552
20
-6.64654
11
5.26645
21
-6.64654
0
LINE
8
BLACK
6
CONTINUOUS
10
5.26645
20
-6.64654
11
5.2777
21
-6.65217
0
LINE
8
BLACK
6
CONTINUOUS
10
5.2777
20
-6.65217
11
5.28332
21
-6.65779
0
LINE
8
BLACK
6
CONTINUOUS
10
5.28332
20
-6.65779
11
5.28895
21
-6.66904
0
LINE
8
BLACK
6
CONTINUOUS
10
5.28895
20
-6.66904
11
5.29457
21
-6.69154
0
LINE
8
BLACK
6
CONTINUOUS
10
5.29457
20
-6.69154
11
5.29457
21
-6.71966
0
LINE
8
BLACK
6
CONTINUOUS
10
5.29457
20
-6.71966
11
5.28895
21
-6.74215
0
LINE
8
BLACK
6
CONTINUOUS
10
5.28895
20
-6.74215
11
5.28332
21
-6.7534
0
LINE
8
BLACK
6
CONTINUOUS
10
5.28332
20
-6.7534
11
5.2777
21
-6.75903
0
LINE
8
BLACK
6
CONTINUOUS
10
5.2777
20
-6.75903
11
5.26645
21
-6.76465
0
LINE
8
BLACK
6
CONTINUOUS
10
5.26645
20
-6.76465
11
5.2552
21
-6.76465
0
LINE
8
BLACK
6
CONTINUOUS
10
5.2552
20
-6.76465
11
5.24395
21
-6.75903
0
LINE
8
BLACK
6
CONTINUOUS
10
5.24395
20
-6.75903
11
5.23833
21
-6.7534
0
LINE
8
BLACK
6
CONTINUOUS
10
5.23833
20
-6.7534
11
5.23271
21
-6.74215
0
LINE
8
BLACK
6
CONTINUOUS
10
5.23271
20
-6.74215
11
5.22708
21
-6.71966
0
LINE
8
BLACK
6
CONTINUOUS
10
5.22708
20
-6.71966
11
5.22708
21
-6.69154
0
LINE
8
BLACK
6
CONTINUOUS
10
5.22708
20
-6.69154
11
5.23271
21
-6.66904
0
LINE
8
BLACK
6
CONTINUOUS
10
5.23271
20
-6.66904
11
5.23833
21
-6.65779
0
LINE
8
BLACK
6
CONTINUOUS
10
5.23833
20
-6.65779
11
5.24395
21
-6.65217
0
LINE
8
BLACK
6
CONTINUOUS
10
5.24395
20
-6.65217
11
5.2552
21
-6.64654
0
LINE
8
BLACK
6
CONTINUOUS
10
5.34519
20
-6.7534
11
5.35082
21
-6.75903
0
LINE
8
BLACK
6
CONTINUOUS
10
5.35082
20
-6.75903
11
5.34519
21
-6.76465
0
LINE
8
BLACK
6
CONTINUOUS
10
5.34519
20
-6.76465
11
5.33957
21
-6.75903
0
LINE
8
BLACK
6
CONTINUOUS
10
5.33957
20
-6.75903
11
5.34519
21
-6.7534
0
LINE
8
BLACK
6
CONTINUOUS
10
5.34519
20
-6.7534
11
5.34519
21
-6.76465
0
LINE
8
BLACK
6
CONTINUOUS
10
5.4633
20
-6.76465
11
5.39581
21
-6.76465
0
LINE
8
BLACK
6
CONTINUOUS
10
5.42956
20
-6.76465
11
5.42956
21
-6.64654
0
LINE
8
BLACK
6
CONTINUOUS
10
5.42956
20
-6.64654
11
5.41831
21
-6.66341
0
LINE
8
BLACK
6
CONTINUOUS
10
5.41831
20
-6.66341
11
5.40706
21
-6.67466
0
LINE
8
BLACK
6
CONTINUOUS
10
5.40706
20
-6.67466
11
5.39581
21
-6.68029
0
LINE
8
BLACK
6
CONTINUOUS
10
5.5083
20
-6.65779
11
5.51392
21
-6.65217
0
LINE
8
BLACK
6
CONTINUOUS
10
5.51392
20
-6.65217
11
5.52517
21
-6.64654
0
LINE
8
BLACK
6
CONTINUOUS
10
5.52517
20
-6.64654
11
5.55329
21
-6.64654
0
LINE
8
BLACK
6
CONTINUOUS
10
5.55329
20
-6.64654
11
5.56454
21
-6.65217
0
LINE
8
BLACK
6
CONTINUOUS
10
5.56454
20
-6.65217
11
5.57016
21
-6.65779
0
LINE
8
BLACK
6
CONTINUOUS
10
5.57016
20
-6.65779
11
5.57579
21
-6.66904
0
LINE
8
BLACK
6
CONTINUOUS
10
5.57579
20
-6.66904
11
5.57579
21
-6.68029
0
LINE
8
BLACK
6
CONTINUOUS
10
5.57579
20
-6.68029
11
5.57016
21
-6.69716
0
LINE
8
BLACK
6
CONTINUOUS
10
5.57016
20
-6.69716
11
5.50267
21
-6.76465
0
LINE
8
BLACK
6
CONTINUOUS
10
5.50267
20
-6.76465
11
5.57579
21
-6.76465
0
LINE
8
BLACK
6
CONTINUOUS
10
5.67702
20
-6.64654
11
5.65453
21
-6.64654
0
LINE
8
BLACK
6
CONTINUOUS
10
5.65453
20
-6.64654
11
5.64328
21
-6.65217
0
LINE
8
BLACK
6
CONTINUOUS
10
5.64328
20
-6.65217
11
5.63765
21
-6.65779
0
LINE
8
BLACK
6
CONTINUOUS
10
5.63765
20
-6.65779
11
5.62641
21
-6.67466
0
LINE
8
BLACK
6
CONTINUOUS
10
5.62641
20
-6.67466
11
5.62078
21
-6.69716
0
LINE
8
BLACK
6
CONTINUOUS
10
5.62078
20
-6.69716
11
5.62078
21
-6.74215
0
LINE
8
BLACK
6
CONTINUOUS
10
5.62078
20
-6.74215
11
5.62641
21
-6.7534
0
LINE
8
BLACK
6
CONTINUOUS
10
5.62641
20
-6.7534
11
5.63203
21
-6.75903
0
LINE
8
BLACK
6
CONTINUOUS
10
5.63203
20
-6.75903
11
5.64328
21
-6.76465
0
LINE
8
BLACK
6
CONTINUOUS
10
5.64328
20
-6.76465
11
5.66578
21
-6.76465
0
LINE
8
BLACK
6
CONTINUOUS
10
5.66578
20
-6.76465
11
5.67702
21
-6.75903
0
LINE
8
BLACK
6
CONTINUOUS
10
5.67702
20
-6.75903
11
5.68265
21
-6.7534
0
LINE
8
BLACK
6
CONTINUOUS
10
5.68265
20
-6.7534
11
5.68827
21
-6.74215
0
LINE
8
BLACK
6
CONTINUOUS
10
5.68827
20
-6.74215
11
5.68827
21
-6.71403
0
LINE
8
BLACK
6
CONTINUOUS
10
5.68827
20
-6.71403
11
5.68265
21
-6.70278
0
LINE
8
BLACK
6
CONTINUOUS
10
5.68265
20
-6.70278
11
5.67702
21
-6.69716
0
LINE
8
BLACK
6
CONTINUOUS
10
5.67702
20
-6.69716
11
5.66578
21
-6.69154
0
LINE
8
BLACK
6
CONTINUOUS
10
5.66578
20
-6.69154
11
5.64328
21
-6.69154
0
LINE
8
BLACK
6
CONTINUOUS
10
5.64328
20
-6.69154
11
5.63203
21
-6.69716
0
LINE
8
BLACK
6
CONTINUOUS
10
5.63203
20
-6.69716
11
5.62641
21
-6.70278
0
LINE
8
BLACK
6
CONTINUOUS
10
5.62641
20
-6.70278
11
5.62078
21
-6.71403
0
LINE
8
BLACK
6
CONTINUOUS
10
5.76139
20
-6.64654
11
5.77264
21
-6.64654
0
LINE
8
BLACK
6
CONTINUOUS
10
5.77264
20
-6.64654
11
5.78389
21
-6.65217
0
LINE
8
BLACK
6
CONTINUOUS
10
5.78389
20
-6.65217
11
5.78951
21
-6.65779
0
LINE
8
BLACK
6
CONTINUOUS
10
5.78951
20
-6.65779
11
5.79513
21
-6.66904
0
LINE
8
BLACK
6
CONTINUOUS
10
5.79513
20
-6.66904
11
5.80076
21
-6.69154
0
LINE
8
BLACK
6
CONTINUOUS
10
5.80076
20
-6.69154
11
5.80076
21
-6.71966
0
LINE
8
BLACK
6
CONTINUOUS
10
5.80076
20
-6.71966
11
5.79513
21
-6.74215
0
LINE
8
BLACK
6
CONTINUOUS
10
5.79513
20
-6.74215
11
5.78951
21
-6.7534
0
LINE
8
BLACK
6
CONTINUOUS
10
5.78951
20
-6.7534
11
5.78389
21
-6.75903
0
LINE
8
BLACK
6
CONTINUOUS
10
5.78389
20
-6.75903
11
5.77264
21
-6.76465
0
LINE
8
BLACK
6
CONTINUOUS
10
5.77264
20
-6.76465
11
5.76139
21
-6.76465
0
LINE
8
BLACK
6
CONTINUOUS
10
5.76139
20
-6.76465
11
5.75014
21
-6.75903
0
LINE
8
BLACK
6
CONTINUOUS
10
5.75014
20
-6.75903
11
5.74452
21
-6.7534
0
LINE
8
BLACK
6
CONTINUOUS
10
5.74452
20
-6.7534
11
5.73889
21
-6.74215
0
LINE
8
BLACK
6
CONTINUOUS
10
5.73889
20
-6.74215
11
5.73327
21
-6.71966
0
LINE
8
BLACK
6
CONTINUOUS
10
5.73327
20
-6.71966
11
5.73327
21
-6.69154
0
LINE
8
BLACK
6
CONTINUOUS
10
5.73327
20
-6.69154
11
5.73889
21
-6.66904
0
LINE
8
BLACK
6
CONTINUOUS
10
5.73889
20
-6.66904
11
5.74452
21
-6.65779
0
LINE
8
BLACK
6
CONTINUOUS
10
5.74452
20
-6.65779
11
5.75014
21
-6.65217
0
LINE
8
BLACK
6
CONTINUOUS
10
5.75014
20
-6.65217
11
5.76139
21
-6.64654
0
LINE
8
BLACK
6
CONTINUOUS
10
5.84575
20
-6.64654
11
5.84575
21
-6.66904
0
LINE
8
BLACK
6
CONTINUOUS
10
5.89075
20
-6.64654
11
5.89075
21
-6.66904
0
LINE
8
BLACK
6
CONTINUOUS
10
6.0651
20
-6.80965
11
6.05948
21
-6.80402
0
LINE
8
BLACK
6
CONTINUOUS
10
6.05948
20
-6.80402
11
6.04823
21
-6.78715
0
LINE
8
BLACK
6
CONTINUOUS
10
6.04823
20
-6.78715
11
6.0426
21
-6.7759
0
LINE
8
BLACK
6
CONTINUOUS
10
6.0426
20
-6.7759
11
6.03698
21
-6.75903
0
LINE
8
BLACK
6
CONTINUOUS
10
6.03698
20
-6.75903
11
6.03136
21
-6.73091
0
LINE
8
BLACK
6
CONTINUOUS
10
6.03136
20
-6.73091
11
6.03136
21
-6.70841
0
LINE
8
BLACK
6
CONTINUOUS
10
6.03136
20
-6.70841
11
6.03698
21
-6.68029
0
LINE
8
BLACK
6
CONTINUOUS
10
6.03698
20
-6.68029
11
6.0426
21
-6.66341
0
LINE
8
BLACK
6
CONTINUOUS
10
6.0426
20
-6.66341
11
6.04823
21
-6.65217
0
LINE
8
BLACK
6
CONTINUOUS
10
6.04823
20
-6.65217
11
6.05948
21
-6.63529
0
LINE
8
BLACK
6
CONTINUOUS
10
6.05948
20
-6.63529
11
6.0651
21
-6.62967
0
LINE
8
BLACK
6
CONTINUOUS
10
6.16071
20
-6.68591
11
6.16071
21
-6.76465
0
LINE
8
BLACK
6
CONTINUOUS
10
6.13259
20
-6.64092
11
6.10447
21
-6.72528
0
LINE
8
BLACK
6
CONTINUOUS
10
6.10447
20
-6.72528
11
6.17759
21
-6.72528
0
LINE
8
BLACK
6
CONTINUOUS
10
6.31257
20
-6.76465
11
6.31257
21
-6.64654
0
LINE
8
BLACK
6
CONTINUOUS
10
6.36319
20
-6.76465
11
6.36319
21
-6.70278
0
LINE
8
BLACK
6
CONTINUOUS
10
6.36319
20
-6.70278
11
6.35756
21
-6.69154
0
LINE
8
BLACK
6
CONTINUOUS
10
6.35756
20
-6.69154
11
6.34632
21
-6.68591
0
LINE
8
BLACK
6
CONTINUOUS
10
6.34632
20
-6.68591
11
6.32944
21
-6.68591
0
LINE
8
BLACK
6
CONTINUOUS
10
6.32944
20
-6.68591
11
6.31819
21
-6.69154
0
LINE
8
BLACK
6
CONTINUOUS
10
6.31819
20
-6.69154
11
6.31257
21
-6.69716
0
LINE
8
BLACK
6
CONTINUOUS
10
6.4363
20
-6.76465
11
6.42506
21
-6.75903
0
LINE
8
BLACK
6
CONTINUOUS
10
6.42506
20
-6.75903
11
6.41943
21
-6.7534
0
LINE
8
BLACK
6
CONTINUOUS
10
6.41943
20
-6.7534
11
6.41381
21
-6.74215
0
LINE
8
BLACK
6
CONTINUOUS
10
6.41381
20
-6.74215
11
6.41381
21
-6.70841
0
LINE
8
BLACK
6
CONTINUOUS
10
6.41381
20
-6.70841
11
6.41943
21
-6.69716
0
LINE
8
BLACK
6
CONTINUOUS
10
6.41943
20
-6.69716
11
6.42506
21
-6.69154
0
LINE
8
BLACK
6
CONTINUOUS
10
6.42506
20
-6.69154
11
6.4363
21
-6.68591
0
LINE
8
BLACK
6
CONTINUOUS
10
6.4363
20
-6.68591
11
6.45318
21
-6.68591
0
LINE
8
BLACK
6
CONTINUOUS
10
6.45318
20
-6.68591
11
6.46443
21
-6.69154
0
LINE
8
BLACK
6
CONTINUOUS
10
6.46443
20
-6.69154
11
6.47005
21
-6.69716
0
LINE
8
BLACK
6
CONTINUOUS
10
6.47005
20
-6.69716
11
6.47567
21
-6.70841
0
LINE
8
BLACK
6
CONTINUOUS
10
6.47567
20
-6.70841
11
6.47567
21
-6.74215
0
LINE
8
BLACK
6
CONTINUOUS
10
6.47567
20
-6.74215
11
6.47005
21
-6.7534
0
LINE
8
BLACK
6
CONTINUOUS
10
6.47005
20
-6.7534
11
6.46443
21
-6.75903
0
LINE
8
BLACK
6
CONTINUOUS
10
6.46443
20
-6.75903
11
6.45318
21
-6.76465
0
LINE
8
BLACK
6
CONTINUOUS
10
6.45318
20
-6.76465
11
6.4363
21
-6.76465
0
LINE
8
BLACK
6
CONTINUOUS
10
6.54317
20
-6.76465
11
6.53192
21
-6.75903
0
LINE
8
BLACK
6
CONTINUOUS
10
6.53192
20
-6.75903
11
6.52629
21
-6.74778
0
LINE
8
BLACK
6
CONTINUOUS
10
6.52629
20
-6.74778
11
6.52629
21
-6.64654
0
LINE
8
BLACK
6
CONTINUOUS
10
6.63316
20
-6.75903
11
6.62191
21
-6.76465
0
LINE
8
BLACK
6
CONTINUOUS
10
6.62191
20
-6.76465
11
6.59941
21
-6.76465
0
LINE
8
BLACK
6
CONTINUOUS
10
6.59941
20
-6.76465
11
6.58816
21
-6.75903
0
LINE
8
BLACK
6
CONTINUOUS
10
6.58816
20
-6.75903
11
6.58254
21
-6.74778
0
LINE
8
BLACK
6
CONTINUOUS
10
6.58254
20
-6.74778
11
6.58254
21
-6.70278
0
LINE
8
BLACK
6
CONTINUOUS
10
6.58254
20
-6.70278
11
6.58816
21
-6.69154
0
LINE
8
BLACK
6
CONTINUOUS
10
6.58816
20
-6.69154
11
6.59941
21
-6.68591
0
LINE
8
BLACK
6
CONTINUOUS
10
6.59941
20
-6.68591
11
6.62191
21
-6.68591
0
LINE
8
BLACK
6
CONTINUOUS
10
6.62191
20
-6.68591
11
6.63316
21
-6.69154
0
LINE
8
BLACK
6
CONTINUOUS
10
6.63316
20
-6.69154
11
6.63878
21
-6.70278
0
LINE
8
BLACK
6
CONTINUOUS
10
6.63878
20
-6.70278
11
6.63878
21
-6.71403
0
LINE
8
BLACK
6
CONTINUOUS
10
6.63878
20
-6.71403
11
6.58254
21
-6.72528
0
LINE
8
BLACK
6
CONTINUOUS
10
6.68377
20
-6.75903
11
6.69502
21
-6.76465
0
LINE
8
BLACK
6
CONTINUOUS
10
6.69502
20
-6.76465
11
6.71752
21
-6.76465
0
LINE
8
BLACK
6
CONTINUOUS
10
6.71752
20
-6.76465
11
6.72877
21
-6.75903
0
LINE
8
BLACK
6
CONTINUOUS
10
6.72877
20
-6.75903
11
6.73439
21
-6.74778
0
LINE
8
BLACK
6
CONTINUOUS
10
6.73439
20
-6.74778
11
6.73439
21
-6.74215
0
LINE
8
BLACK
6
CONTINUOUS
10
6.73439
20
-6.74215
11
6.72877
21
-6.73091
0
LINE
8
BLACK
6
CONTINUOUS
10
6.72877
20
-6.73091
11
6.71752
21
-6.72528
0
LINE
8
BLACK
6
CONTINUOUS
10
6.71752
20
-6.72528
11
6.70065
21
-6.72528
0
LINE
8
BLACK
6
CONTINUOUS
10
6.70065
20
-6.72528
11
6.6894
21
-6.71966
0
LINE
8
BLACK
6
CONTINUOUS
10
6.6894
20
-6.71966
11
6.68377
21
-6.70841
0
LINE
8
BLACK
6
CONTINUOUS
10
6.68377
20
-6.70841
11
6.68377
21
-6.70278
0
LINE
8
BLACK
6
CONTINUOUS
10
6.68377
20
-6.70278
11
6.6894
21
-6.69154
0
LINE
8
BLACK
6
CONTINUOUS
10
6.6894
20
-6.69154
11
6.70065
21
-6.68591
0
LINE
8
BLACK
6
CONTINUOUS
10
6.70065
20
-6.68591
11
6.71752
21
-6.68591
0
LINE
8
BLACK
6
CONTINUOUS
10
6.71752
20
-6.68591
11
6.72877
21
-6.69154
0
LINE
8
BLACK
6
CONTINUOUS
10
6.77376
20
-6.80965
11
6.77939
21
-6.80402
0
LINE
8
BLACK
6
CONTINUOUS
10
6.77939
20
-6.80402
11
6.79064
21
-6.78715
0
LINE
8
BLACK
6
CONTINUOUS
10
6.79064
20
-6.78715
11
6.79626
21
-6.7759
0
LINE
8
BLACK
6
CONTINUOUS
10
6.79626
20
-6.7759
11
6.80188
21
-6.75903
0
LINE
8
BLACK
6
CONTINUOUS
10
6.80188
20
-6.75903
11
6.80751
21
-6.73091
0
LINE
8
BLACK
6
CONTINUOUS
10
6.80751
20
-6.73091
11
6.80751
21
-6.70841
0
LINE
8
BLACK
6
CONTINUOUS
10
6.80751
20
-6.70841
11
6.80188
21
-6.68029
0
LINE
8
BLACK
6
CONTINUOUS
10
6.80188
20
-6.68029
11
6.79626
21
-6.66341
0
LINE
8
BLACK
6
CONTINUOUS
10
6.79626
20
-6.66341
11
6.79064
21
-6.65217
0
LINE
8
BLACK
6
CONTINUOUS
10
6.79064
20
-6.65217
11
6.77939
21
-6.63529
0
LINE
8
BLACK
6
CONTINUOUS
10
6.77939
20
-6.63529
11
6.77376
21
-6.62967
  0
ENDSEC
  0
EOF
