G04 #@! TF.GenerationSoftware,KiCad,Pcbnew,(5.1.6-0)*
G04 #@! TF.CreationDate,2021-07-15T11:48:56+10:00*
G04 #@! TF.ProjectId,EDUC-8 PSU,45445543-2d38-4205-9053-552e6b696361,rev?*
G04 #@! TF.SameCoordinates,Original*
G04 #@! TF.FileFunction,Soldermask,Top*
G04 #@! TF.FilePolarity,Negative*
%FSLAX46Y46*%
G04 Gerber Fmt 4.6, Leading zero omitted, Abs format (unit mm)*
G04 Created by KiCad (PCBNEW (5.1.6-0)) date 2021-07-15 11:48:56*
%MOMM*%
%LPD*%
G01*
G04 APERTURE LIST*
%ADD10C,0.100000*%
G04 APERTURE END LIST*
D10*
G36*
X232196156Y-152136794D02*
G01*
X232917140Y-152280206D01*
X233708972Y-152608193D01*
X234421601Y-153084357D01*
X235027643Y-153690399D01*
X235503807Y-154403028D01*
X235831794Y-155194860D01*
X235999000Y-156035464D01*
X235999000Y-156892536D01*
X235831794Y-157733140D01*
X235503807Y-158524972D01*
X235027643Y-159237601D01*
X234421601Y-159843643D01*
X233708972Y-160319807D01*
X232917140Y-160647794D01*
X232196156Y-160791206D01*
X232076537Y-160815000D01*
X231219463Y-160815000D01*
X231099844Y-160791206D01*
X230378860Y-160647794D01*
X229587028Y-160319807D01*
X228874399Y-159843643D01*
X228268357Y-159237601D01*
X227792193Y-158524972D01*
X227464206Y-157733140D01*
X227297000Y-156892536D01*
X227297000Y-156035464D01*
X227464206Y-155194860D01*
X227792193Y-154403028D01*
X228268357Y-153690399D01*
X228874399Y-153084357D01*
X229587028Y-152608193D01*
X230378860Y-152280206D01*
X231099844Y-152136794D01*
X231219463Y-152113000D01*
X232076537Y-152113000D01*
X232196156Y-152136794D01*
G37*
G36*
X35473156Y-151882794D02*
G01*
X36194140Y-152026206D01*
X36985972Y-152354193D01*
X37698601Y-152830357D01*
X38304643Y-153436399D01*
X38780807Y-154149028D01*
X39108794Y-154940860D01*
X39276000Y-155781464D01*
X39276000Y-156638536D01*
X39108794Y-157479140D01*
X38780807Y-158270972D01*
X38304643Y-158983601D01*
X37698601Y-159589643D01*
X36985972Y-160065807D01*
X36194140Y-160393794D01*
X35473156Y-160537206D01*
X35353537Y-160561000D01*
X34496463Y-160561000D01*
X34376844Y-160537206D01*
X33655860Y-160393794D01*
X32864028Y-160065807D01*
X32151399Y-159589643D01*
X31545357Y-158983601D01*
X31069193Y-158270972D01*
X30741206Y-157479140D01*
X30574000Y-156638536D01*
X30574000Y-155781464D01*
X30741206Y-154940860D01*
X31069193Y-154149028D01*
X31545357Y-153436399D01*
X32151399Y-152830357D01*
X32864028Y-152354193D01*
X33655860Y-152026206D01*
X34376844Y-151882794D01*
X34496463Y-151859000D01*
X35353537Y-151859000D01*
X35473156Y-151882794D01*
G37*
G36*
X132861000Y-157626000D02*
G01*
X128759000Y-157626000D01*
X128759000Y-153524000D01*
X132861000Y-153524000D01*
X132861000Y-157626000D01*
G37*
G36*
X120263228Y-151581703D02*
G01*
X120418100Y-151645853D01*
X120557481Y-151738985D01*
X120676015Y-151857519D01*
X120769147Y-151996900D01*
X120833297Y-152151772D01*
X120866000Y-152316184D01*
X120866000Y-152483816D01*
X120833297Y-152648228D01*
X120769147Y-152803100D01*
X120676015Y-152942481D01*
X120557481Y-153061015D01*
X120418100Y-153154147D01*
X120263228Y-153218297D01*
X120098816Y-153251000D01*
X119931184Y-153251000D01*
X119766772Y-153218297D01*
X119611900Y-153154147D01*
X119472519Y-153061015D01*
X119353985Y-152942481D01*
X119260853Y-152803100D01*
X119196703Y-152648228D01*
X119164000Y-152483816D01*
X119164000Y-152316184D01*
X119196703Y-152151772D01*
X119260853Y-151996900D01*
X119353985Y-151857519D01*
X119472519Y-151738985D01*
X119611900Y-151645853D01*
X119766772Y-151581703D01*
X119931184Y-151549000D01*
X120098816Y-151549000D01*
X120263228Y-151581703D01*
G37*
G36*
X115263228Y-151581703D02*
G01*
X115418100Y-151645853D01*
X115557481Y-151738985D01*
X115676015Y-151857519D01*
X115769147Y-151996900D01*
X115833297Y-152151772D01*
X115866000Y-152316184D01*
X115866000Y-152483816D01*
X115833297Y-152648228D01*
X115769147Y-152803100D01*
X115676015Y-152942481D01*
X115557481Y-153061015D01*
X115418100Y-153154147D01*
X115263228Y-153218297D01*
X115098816Y-153251000D01*
X114931184Y-153251000D01*
X114766772Y-153218297D01*
X114611900Y-153154147D01*
X114472519Y-153061015D01*
X114353985Y-152942481D01*
X114260853Y-152803100D01*
X114196703Y-152648228D01*
X114164000Y-152483816D01*
X114164000Y-152316184D01*
X114196703Y-152151772D01*
X114260853Y-151996900D01*
X114353985Y-151857519D01*
X114472519Y-151738985D01*
X114611900Y-151645853D01*
X114766772Y-151581703D01*
X114931184Y-151549000D01*
X115098816Y-151549000D01*
X115263228Y-151581703D01*
G37*
G36*
X84819903Y-149927075D02*
G01*
X85047571Y-150021378D01*
X85252466Y-150158285D01*
X85426715Y-150332534D01*
X85563622Y-150537429D01*
X85657925Y-150765097D01*
X85706000Y-151006787D01*
X85706000Y-151253213D01*
X85657925Y-151494903D01*
X85563622Y-151722571D01*
X85426715Y-151927466D01*
X85252466Y-152101715D01*
X85047571Y-152238622D01*
X85047570Y-152238623D01*
X85047569Y-152238623D01*
X84819903Y-152332925D01*
X84578214Y-152381000D01*
X84331786Y-152381000D01*
X84090097Y-152332925D01*
X83862431Y-152238623D01*
X83862430Y-152238623D01*
X83862429Y-152238622D01*
X83657534Y-152101715D01*
X83483285Y-151927466D01*
X83346378Y-151722571D01*
X83252075Y-151494903D01*
X83204000Y-151253213D01*
X83204000Y-151006787D01*
X83252075Y-150765097D01*
X83346378Y-150537429D01*
X83483285Y-150332534D01*
X83657534Y-150158285D01*
X83862429Y-150021378D01*
X84090097Y-149927075D01*
X84331786Y-149879000D01*
X84578214Y-149879000D01*
X84819903Y-149927075D01*
G37*
G36*
X69579903Y-149927075D02*
G01*
X69807571Y-150021378D01*
X70012466Y-150158285D01*
X70186715Y-150332534D01*
X70323622Y-150537429D01*
X70417925Y-150765097D01*
X70466000Y-151006787D01*
X70466000Y-151253213D01*
X70417925Y-151494903D01*
X70323622Y-151722571D01*
X70186715Y-151927466D01*
X70012466Y-152101715D01*
X69807571Y-152238622D01*
X69807570Y-152238623D01*
X69807569Y-152238623D01*
X69579903Y-152332925D01*
X69338214Y-152381000D01*
X69091786Y-152381000D01*
X68850097Y-152332925D01*
X68622431Y-152238623D01*
X68622430Y-152238623D01*
X68622429Y-152238622D01*
X68417534Y-152101715D01*
X68243285Y-151927466D01*
X68106378Y-151722571D01*
X68012075Y-151494903D01*
X67964000Y-151253213D01*
X67964000Y-151006787D01*
X68012075Y-150765097D01*
X68106378Y-150537429D01*
X68243285Y-150332534D01*
X68417534Y-150158285D01*
X68622429Y-150021378D01*
X68850097Y-149927075D01*
X69091786Y-149879000D01*
X69338214Y-149879000D01*
X69579903Y-149927075D01*
G37*
G36*
X213724903Y-146117075D02*
G01*
X213860433Y-146173213D01*
X213952571Y-146211378D01*
X214157466Y-146348285D01*
X214331715Y-146522534D01*
X214468622Y-146727429D01*
X214562925Y-146955097D01*
X214611000Y-147196787D01*
X214611000Y-147443213D01*
X214562925Y-147684903D01*
X214468622Y-147912571D01*
X214331715Y-148117466D01*
X214157466Y-148291715D01*
X213952571Y-148428622D01*
X213952570Y-148428623D01*
X213952569Y-148428623D01*
X213724903Y-148522925D01*
X213483214Y-148571000D01*
X213236786Y-148571000D01*
X212995097Y-148522925D01*
X212767431Y-148428623D01*
X212767430Y-148428623D01*
X212767429Y-148428622D01*
X212562534Y-148291715D01*
X212388285Y-148117466D01*
X212251378Y-147912571D01*
X212157075Y-147684903D01*
X212109000Y-147443213D01*
X212109000Y-147196787D01*
X212157075Y-146955097D01*
X212251378Y-146727429D01*
X212388285Y-146522534D01*
X212562534Y-146348285D01*
X212767429Y-146211378D01*
X212859568Y-146173213D01*
X212995097Y-146117075D01*
X213236786Y-146069000D01*
X213483214Y-146069000D01*
X213724903Y-146117075D01*
G37*
G36*
X56496000Y-147936000D02*
G01*
X53994000Y-147936000D01*
X53994000Y-145434000D01*
X56496000Y-145434000D01*
X56496000Y-147936000D01*
G37*
G36*
X101064225Y-146040983D02*
G01*
X101154890Y-146059017D01*
X101273364Y-146108091D01*
X101379988Y-146179335D01*
X101470665Y-146270012D01*
X101541909Y-146376636D01*
X101590983Y-146495110D01*
X101616000Y-146620882D01*
X101616000Y-146749118D01*
X101590983Y-146874890D01*
X101541909Y-146993364D01*
X101470665Y-147099988D01*
X101379988Y-147190665D01*
X101273364Y-147261909D01*
X101273363Y-147261910D01*
X101273362Y-147261910D01*
X101154890Y-147310983D01*
X101029119Y-147336000D01*
X100900881Y-147336000D01*
X100775110Y-147310983D01*
X100656638Y-147261910D01*
X100656637Y-147261910D01*
X100656636Y-147261909D01*
X100550012Y-147190665D01*
X100459335Y-147099988D01*
X100388091Y-146993364D01*
X100339017Y-146874890D01*
X100314000Y-146749118D01*
X100314000Y-146620882D01*
X100339017Y-146495110D01*
X100388091Y-146376636D01*
X100459335Y-146270012D01*
X100550012Y-146179335D01*
X100656636Y-146108091D01*
X100775110Y-146059017D01*
X100865775Y-146040983D01*
X100900881Y-146034000D01*
X101029119Y-146034000D01*
X101064225Y-146040983D01*
G37*
G36*
X69534732Y-144838090D02*
G01*
X69579903Y-144847075D01*
X69807571Y-144941378D01*
X70012466Y-145078285D01*
X70186715Y-145252534D01*
X70323622Y-145457429D01*
X70417925Y-145685097D01*
X70466000Y-145926787D01*
X70466000Y-146173213D01*
X70417925Y-146414903D01*
X70323622Y-146642571D01*
X70186715Y-146847466D01*
X70012466Y-147021715D01*
X69807571Y-147158622D01*
X69807570Y-147158623D01*
X69807569Y-147158623D01*
X69579903Y-147252925D01*
X69338214Y-147301000D01*
X69091786Y-147301000D01*
X68850097Y-147252925D01*
X68622431Y-147158623D01*
X68622430Y-147158623D01*
X68622429Y-147158622D01*
X68417534Y-147021715D01*
X68243285Y-146847466D01*
X68106378Y-146642571D01*
X68012075Y-146414903D01*
X67964000Y-146173213D01*
X67964000Y-145926787D01*
X68012075Y-145685097D01*
X68106378Y-145457429D01*
X68243285Y-145252534D01*
X68417534Y-145078285D01*
X68622429Y-144941378D01*
X68850097Y-144847075D01*
X68895268Y-144838090D01*
X69091786Y-144799000D01*
X69338214Y-144799000D01*
X69534732Y-144838090D01*
G37*
G36*
X84774732Y-144838090D02*
G01*
X84819903Y-144847075D01*
X85047571Y-144941378D01*
X85252466Y-145078285D01*
X85426715Y-145252534D01*
X85563622Y-145457429D01*
X85657925Y-145685097D01*
X85706000Y-145926787D01*
X85706000Y-146173213D01*
X85657925Y-146414903D01*
X85563622Y-146642571D01*
X85426715Y-146847466D01*
X85252466Y-147021715D01*
X85047571Y-147158622D01*
X85047570Y-147158623D01*
X85047569Y-147158623D01*
X84819903Y-147252925D01*
X84578214Y-147301000D01*
X84331786Y-147301000D01*
X84090097Y-147252925D01*
X83862431Y-147158623D01*
X83862430Y-147158623D01*
X83862429Y-147158622D01*
X83657534Y-147021715D01*
X83483285Y-146847466D01*
X83346378Y-146642571D01*
X83252075Y-146414903D01*
X83204000Y-146173213D01*
X83204000Y-145926787D01*
X83252075Y-145685097D01*
X83346378Y-145457429D01*
X83483285Y-145252534D01*
X83657534Y-145078285D01*
X83862429Y-144941378D01*
X84090097Y-144847075D01*
X84135268Y-144838090D01*
X84331786Y-144799000D01*
X84578214Y-144799000D01*
X84774732Y-144838090D01*
G37*
G36*
X99884890Y-144789017D02*
G01*
X99929640Y-144807553D01*
X100003364Y-144838091D01*
X100109988Y-144909335D01*
X100200665Y-145000012D01*
X100271909Y-145106636D01*
X100320983Y-145225110D01*
X100346000Y-145350882D01*
X100346000Y-145479118D01*
X100320983Y-145604890D01*
X100271909Y-145723364D01*
X100200665Y-145829988D01*
X100109988Y-145920665D01*
X100003364Y-145991909D01*
X100003363Y-145991910D01*
X100003362Y-145991910D01*
X99884890Y-146040983D01*
X99759119Y-146066000D01*
X99630881Y-146066000D01*
X99505110Y-146040983D01*
X99386638Y-145991910D01*
X99386637Y-145991910D01*
X99386636Y-145991909D01*
X99280012Y-145920665D01*
X99189335Y-145829988D01*
X99118091Y-145723364D01*
X99069017Y-145604890D01*
X99044000Y-145479118D01*
X99044000Y-145350882D01*
X99069017Y-145225110D01*
X99118091Y-145106636D01*
X99189335Y-145000012D01*
X99280012Y-144909335D01*
X99386636Y-144838091D01*
X99460361Y-144807553D01*
X99505110Y-144789017D01*
X99630881Y-144764000D01*
X99759119Y-144764000D01*
X99884890Y-144789017D01*
G37*
G36*
X101092618Y-143303420D02*
G01*
X101183404Y-143330960D01*
X101215336Y-143340646D01*
X101328425Y-143401094D01*
X101427554Y-143482446D01*
X101508906Y-143581575D01*
X101569354Y-143694664D01*
X101569355Y-143694668D01*
X101606580Y-143817382D01*
X101616000Y-143913028D01*
X101616000Y-144376973D01*
X101606580Y-144472618D01*
X101579040Y-144563404D01*
X101569354Y-144595336D01*
X101508906Y-144708425D01*
X101427554Y-144807553D01*
X101328424Y-144888906D01*
X101215335Y-144949354D01*
X101183403Y-144959040D01*
X101092617Y-144986580D01*
X100965000Y-144999149D01*
X100837382Y-144986580D01*
X100746596Y-144959040D01*
X100714664Y-144949354D01*
X100601575Y-144888906D01*
X100502447Y-144807554D01*
X100421094Y-144708424D01*
X100360646Y-144595335D01*
X100349924Y-144559988D01*
X100323420Y-144472617D01*
X100314000Y-144376972D01*
X100314000Y-143913027D01*
X100323420Y-143817382D01*
X100360645Y-143694668D01*
X100360646Y-143694664D01*
X100421094Y-143581575D01*
X100502447Y-143482447D01*
X100601576Y-143401094D01*
X100714665Y-143340646D01*
X100746597Y-143330960D01*
X100837383Y-143303420D01*
X100965000Y-143290851D01*
X101092618Y-143303420D01*
G37*
G36*
X120204890Y-143519017D02*
G01*
X120323364Y-143568091D01*
X120343544Y-143581575D01*
X120429988Y-143639335D01*
X120520665Y-143730012D01*
X120591910Y-143836638D01*
X120640983Y-143955110D01*
X120666000Y-144080881D01*
X120666000Y-144209119D01*
X120640983Y-144334890D01*
X120623552Y-144376973D01*
X120591909Y-144453364D01*
X120520665Y-144559988D01*
X120429988Y-144650665D01*
X120323364Y-144721909D01*
X120323363Y-144721910D01*
X120323362Y-144721910D01*
X120204890Y-144770983D01*
X120079119Y-144796000D01*
X119950881Y-144796000D01*
X119825110Y-144770983D01*
X119706638Y-144721910D01*
X119706637Y-144721910D01*
X119706636Y-144721909D01*
X119600012Y-144650665D01*
X119509335Y-144559988D01*
X119438091Y-144453364D01*
X119406449Y-144376973D01*
X119389017Y-144334890D01*
X119364000Y-144209119D01*
X119364000Y-144080881D01*
X119389017Y-143955110D01*
X119438090Y-143836638D01*
X119509335Y-143730012D01*
X119600012Y-143639335D01*
X119686456Y-143581575D01*
X119706636Y-143568091D01*
X119825110Y-143519017D01*
X119950881Y-143494000D01*
X120079119Y-143494000D01*
X120204890Y-143519017D01*
G37*
G36*
X55609903Y-140482075D02*
G01*
X55837571Y-140576378D01*
X56042466Y-140713285D01*
X56216715Y-140887534D01*
X56353622Y-141092429D01*
X56353623Y-141092431D01*
X56447925Y-141320097D01*
X56496000Y-141561786D01*
X56496000Y-141808214D01*
X56447925Y-142049903D01*
X56377055Y-142221000D01*
X56353622Y-142277571D01*
X56216715Y-142482466D01*
X56042466Y-142656715D01*
X55837571Y-142793622D01*
X55837570Y-142793623D01*
X55837569Y-142793623D01*
X55609903Y-142887925D01*
X55368214Y-142936000D01*
X55121786Y-142936000D01*
X54880097Y-142887925D01*
X54652431Y-142793623D01*
X54652430Y-142793623D01*
X54652429Y-142793622D01*
X54447534Y-142656715D01*
X54273285Y-142482466D01*
X54136378Y-142277571D01*
X54112946Y-142221000D01*
X54042075Y-142049903D01*
X53994000Y-141808214D01*
X53994000Y-141561786D01*
X54042075Y-141320097D01*
X54136377Y-141092431D01*
X54136378Y-141092429D01*
X54273285Y-140887534D01*
X54447534Y-140713285D01*
X54652429Y-140576378D01*
X54880097Y-140482075D01*
X55121786Y-140434000D01*
X55368214Y-140434000D01*
X55609903Y-140482075D01*
G37*
G36*
X117664890Y-140979017D02*
G01*
X117783364Y-141028091D01*
X117889988Y-141099335D01*
X117980665Y-141190012D01*
X118051909Y-141296636D01*
X118100983Y-141415110D01*
X118126000Y-141540882D01*
X118126000Y-141669118D01*
X118100983Y-141794890D01*
X118051909Y-141913364D01*
X117980665Y-142019988D01*
X117889988Y-142110665D01*
X117783364Y-142181909D01*
X117783363Y-142181910D01*
X117783362Y-142181910D01*
X117664890Y-142230983D01*
X117539119Y-142256000D01*
X117410881Y-142256000D01*
X117285110Y-142230983D01*
X117166638Y-142181910D01*
X117166637Y-142181910D01*
X117166636Y-142181909D01*
X117060012Y-142110665D01*
X116969335Y-142019988D01*
X116898091Y-141913364D01*
X116849017Y-141794890D01*
X116824000Y-141669118D01*
X116824000Y-141540882D01*
X116849017Y-141415110D01*
X116898091Y-141296636D01*
X116969335Y-141190012D01*
X117060012Y-141099335D01*
X117166636Y-141028091D01*
X117285110Y-140979017D01*
X117410881Y-140954000D01*
X117539119Y-140954000D01*
X117664890Y-140979017D01*
G37*
G36*
X84819903Y-139767075D02*
G01*
X85047571Y-139861378D01*
X85252466Y-139998285D01*
X85426715Y-140172534D01*
X85490453Y-140267925D01*
X85563623Y-140377431D01*
X85606968Y-140482075D01*
X85657925Y-140605097D01*
X85706000Y-140846787D01*
X85706000Y-141093213D01*
X85657925Y-141334903D01*
X85563622Y-141562571D01*
X85426715Y-141767466D01*
X85252466Y-141941715D01*
X85047571Y-142078622D01*
X85047570Y-142078623D01*
X85047569Y-142078623D01*
X84819903Y-142172925D01*
X84578214Y-142221000D01*
X84331786Y-142221000D01*
X84090097Y-142172925D01*
X83862431Y-142078623D01*
X83862430Y-142078623D01*
X83862429Y-142078622D01*
X83657534Y-141941715D01*
X83483285Y-141767466D01*
X83346378Y-141562571D01*
X83252075Y-141334903D01*
X83204000Y-141093213D01*
X83204000Y-140846787D01*
X83252075Y-140605097D01*
X83303032Y-140482075D01*
X83346377Y-140377431D01*
X83419547Y-140267925D01*
X83483285Y-140172534D01*
X83657534Y-139998285D01*
X83862429Y-139861378D01*
X84090097Y-139767075D01*
X84331786Y-139719000D01*
X84578214Y-139719000D01*
X84819903Y-139767075D01*
G37*
G36*
X69579903Y-139767075D02*
G01*
X69807571Y-139861378D01*
X70012466Y-139998285D01*
X70186715Y-140172534D01*
X70250453Y-140267925D01*
X70323623Y-140377431D01*
X70366968Y-140482075D01*
X70417925Y-140605097D01*
X70466000Y-140846787D01*
X70466000Y-141093213D01*
X70417925Y-141334903D01*
X70323622Y-141562571D01*
X70186715Y-141767466D01*
X70012466Y-141941715D01*
X69807571Y-142078622D01*
X69807570Y-142078623D01*
X69807569Y-142078623D01*
X69579903Y-142172925D01*
X69338214Y-142221000D01*
X69091786Y-142221000D01*
X68850097Y-142172925D01*
X68622431Y-142078623D01*
X68622430Y-142078623D01*
X68622429Y-142078622D01*
X68417534Y-141941715D01*
X68243285Y-141767466D01*
X68106378Y-141562571D01*
X68012075Y-141334903D01*
X67964000Y-141093213D01*
X67964000Y-140846787D01*
X68012075Y-140605097D01*
X68063032Y-140482075D01*
X68106377Y-140377431D01*
X68179547Y-140267925D01*
X68243285Y-140172534D01*
X68417534Y-139998285D01*
X68622429Y-139861378D01*
X68850097Y-139767075D01*
X69091786Y-139719000D01*
X69338214Y-139719000D01*
X69579903Y-139767075D01*
G37*
G36*
X133714903Y-137862075D02*
G01*
X133942571Y-137956378D01*
X134147466Y-138093285D01*
X134321715Y-138267534D01*
X134458622Y-138472429D01*
X134552925Y-138700097D01*
X134601000Y-138941787D01*
X134601000Y-139188213D01*
X134552925Y-139429903D01*
X134458622Y-139657571D01*
X134321715Y-139862466D01*
X134147466Y-140036715D01*
X133942571Y-140173622D01*
X133942570Y-140173623D01*
X133942569Y-140173623D01*
X133714903Y-140267925D01*
X133473214Y-140316000D01*
X133226786Y-140316000D01*
X132985097Y-140267925D01*
X132757431Y-140173623D01*
X132757430Y-140173623D01*
X132757429Y-140173622D01*
X132552534Y-140036715D01*
X132378285Y-139862466D01*
X132241378Y-139657571D01*
X132147075Y-139429903D01*
X132099000Y-139188213D01*
X132099000Y-138941787D01*
X132147075Y-138700097D01*
X132241378Y-138472429D01*
X132378285Y-138267534D01*
X132552534Y-138093285D01*
X132757429Y-137956378D01*
X132985097Y-137862075D01*
X133226786Y-137814000D01*
X133473214Y-137814000D01*
X133714903Y-137862075D01*
G37*
G36*
X120142618Y-138223420D02*
G01*
X120233404Y-138250960D01*
X120265336Y-138260646D01*
X120378425Y-138321094D01*
X120477554Y-138402446D01*
X120558906Y-138501575D01*
X120619354Y-138614664D01*
X120619355Y-138614668D01*
X120656580Y-138737382D01*
X120666000Y-138833028D01*
X120666000Y-139296973D01*
X120656580Y-139392618D01*
X120629040Y-139483404D01*
X120619354Y-139515336D01*
X120558906Y-139628425D01*
X120477554Y-139727553D01*
X120378424Y-139808906D01*
X120265335Y-139869354D01*
X120233403Y-139879040D01*
X120142617Y-139906580D01*
X120015000Y-139919149D01*
X119887382Y-139906580D01*
X119796596Y-139879040D01*
X119764664Y-139869354D01*
X119651575Y-139808906D01*
X119552447Y-139727554D01*
X119471094Y-139628424D01*
X119410646Y-139515335D01*
X119384731Y-139429903D01*
X119373420Y-139392617D01*
X119364000Y-139296972D01*
X119364000Y-138833027D01*
X119373420Y-138737382D01*
X119410645Y-138614668D01*
X119410646Y-138614664D01*
X119471094Y-138501575D01*
X119552447Y-138402447D01*
X119651576Y-138321094D01*
X119764665Y-138260646D01*
X119796597Y-138250960D01*
X119887383Y-138223420D01*
X120015000Y-138210851D01*
X120142618Y-138223420D01*
G37*
G36*
X84737123Y-134670609D02*
G01*
X84819903Y-134687075D01*
X85047571Y-134781378D01*
X85252466Y-134918285D01*
X85426715Y-135092534D01*
X85563622Y-135297429D01*
X85563623Y-135297431D01*
X85657925Y-135525097D01*
X85706000Y-135766786D01*
X85706000Y-136013214D01*
X85657925Y-136254903D01*
X85570110Y-136466909D01*
X85563622Y-136482571D01*
X85426715Y-136687466D01*
X85252466Y-136861715D01*
X85047571Y-136998622D01*
X85047570Y-136998623D01*
X85047569Y-136998623D01*
X84819903Y-137092925D01*
X84578214Y-137141000D01*
X84331786Y-137141000D01*
X84090097Y-137092925D01*
X83862431Y-136998623D01*
X83862430Y-136998623D01*
X83862429Y-136998622D01*
X83657534Y-136861715D01*
X83483285Y-136687466D01*
X83346378Y-136482571D01*
X83339891Y-136466909D01*
X83252075Y-136254903D01*
X83204000Y-136013214D01*
X83204000Y-135766786D01*
X83252075Y-135525097D01*
X83346377Y-135297431D01*
X83346378Y-135297429D01*
X83483285Y-135092534D01*
X83657534Y-134918285D01*
X83862429Y-134781378D01*
X84090097Y-134687075D01*
X84172877Y-134670609D01*
X84331786Y-134639000D01*
X84578214Y-134639000D01*
X84737123Y-134670609D01*
G37*
G36*
X69497123Y-134670609D02*
G01*
X69579903Y-134687075D01*
X69807571Y-134781378D01*
X70012466Y-134918285D01*
X70186715Y-135092534D01*
X70323622Y-135297429D01*
X70323623Y-135297431D01*
X70417925Y-135525097D01*
X70466000Y-135766786D01*
X70466000Y-136013214D01*
X70417925Y-136254903D01*
X70330110Y-136466909D01*
X70323622Y-136482571D01*
X70186715Y-136687466D01*
X70012466Y-136861715D01*
X69807571Y-136998622D01*
X69807570Y-136998623D01*
X69807569Y-136998623D01*
X69579903Y-137092925D01*
X69338214Y-137141000D01*
X69091786Y-137141000D01*
X68850097Y-137092925D01*
X68622431Y-136998623D01*
X68622430Y-136998623D01*
X68622429Y-136998622D01*
X68417534Y-136861715D01*
X68243285Y-136687466D01*
X68106378Y-136482571D01*
X68099891Y-136466909D01*
X68012075Y-136254903D01*
X67964000Y-136013214D01*
X67964000Y-135766786D01*
X68012075Y-135525097D01*
X68106377Y-135297431D01*
X68106378Y-135297429D01*
X68243285Y-135092534D01*
X68417534Y-134918285D01*
X68622429Y-134781378D01*
X68850097Y-134687075D01*
X68932877Y-134670609D01*
X69091786Y-134639000D01*
X69338214Y-134639000D01*
X69497123Y-134670609D01*
G37*
G36*
X174994072Y-134420918D02*
G01*
X175239939Y-134522759D01*
X175351328Y-134597187D01*
X175461211Y-134670609D01*
X175649391Y-134858789D01*
X175797242Y-135080063D01*
X175899082Y-135325928D01*
X175949946Y-135581636D01*
X175951000Y-135586938D01*
X175951000Y-135853062D01*
X175899082Y-136114072D01*
X175797241Y-136359939D01*
X175649390Y-136581212D01*
X175461212Y-136769390D01*
X175239939Y-136917241D01*
X175239938Y-136917242D01*
X175239937Y-136917242D01*
X174994072Y-137019082D01*
X174733063Y-137071000D01*
X174466937Y-137071000D01*
X174205928Y-137019082D01*
X173960063Y-136917242D01*
X173960062Y-136917242D01*
X173960061Y-136917241D01*
X173738788Y-136769390D01*
X173550610Y-136581212D01*
X173402759Y-136359939D01*
X173300918Y-136114072D01*
X173249000Y-135853062D01*
X173249000Y-135586938D01*
X173250055Y-135581636D01*
X173300918Y-135325928D01*
X173402758Y-135080063D01*
X173550609Y-134858789D01*
X173738789Y-134670609D01*
X173848672Y-134597187D01*
X173960061Y-134522759D01*
X174205928Y-134420918D01*
X174466937Y-134369000D01*
X174733063Y-134369000D01*
X174994072Y-134420918D01*
G37*
G36*
X99794225Y-135245983D02*
G01*
X99884890Y-135264017D01*
X100003364Y-135313091D01*
X100109988Y-135384335D01*
X100200665Y-135475012D01*
X100271909Y-135581636D01*
X100320983Y-135700110D01*
X100346000Y-135825882D01*
X100346000Y-135954118D01*
X100320983Y-136079890D01*
X100271909Y-136198364D01*
X100200665Y-136304988D01*
X100109988Y-136395665D01*
X100003364Y-136466909D01*
X100003363Y-136466910D01*
X100003362Y-136466910D01*
X99884890Y-136515983D01*
X99759119Y-136541000D01*
X99630881Y-136541000D01*
X99505110Y-136515983D01*
X99386638Y-136466910D01*
X99386637Y-136466910D01*
X99386636Y-136466909D01*
X99280012Y-136395665D01*
X99189335Y-136304988D01*
X99118091Y-136198364D01*
X99069017Y-136079890D01*
X99044000Y-135954118D01*
X99044000Y-135825882D01*
X99069017Y-135700110D01*
X99118091Y-135581636D01*
X99189335Y-135475012D01*
X99280012Y-135384335D01*
X99386636Y-135313091D01*
X99505110Y-135264017D01*
X99595775Y-135245983D01*
X99630881Y-135239000D01*
X99759119Y-135239000D01*
X99794225Y-135245983D01*
G37*
G36*
X41841000Y-136171000D02*
G01*
X31739000Y-136171000D01*
X31739000Y-133069000D01*
X41841000Y-133069000D01*
X41841000Y-136171000D01*
G37*
G36*
X101076477Y-133978420D02*
G01*
X101154890Y-133994017D01*
X101273364Y-134043091D01*
X101322756Y-134076094D01*
X101379988Y-134114335D01*
X101470665Y-134205012D01*
X101541910Y-134311638D01*
X101590983Y-134430110D01*
X101609412Y-134522758D01*
X101616000Y-134555882D01*
X101616000Y-134684118D01*
X101590983Y-134809890D01*
X101541909Y-134928364D01*
X101470665Y-135034988D01*
X101379988Y-135125665D01*
X101273364Y-135196909D01*
X101273363Y-135196910D01*
X101273362Y-135196910D01*
X101154890Y-135245983D01*
X101029119Y-135271000D01*
X100900881Y-135271000D01*
X100775110Y-135245983D01*
X100656638Y-135196910D01*
X100656637Y-135196910D01*
X100656636Y-135196909D01*
X100550012Y-135125665D01*
X100459335Y-135034988D01*
X100388091Y-134928364D01*
X100339017Y-134809890D01*
X100314000Y-134684118D01*
X100314000Y-134555882D01*
X100320589Y-134522758D01*
X100339017Y-134430110D01*
X100388090Y-134311638D01*
X100459335Y-134205012D01*
X100550012Y-134114335D01*
X100607244Y-134076094D01*
X100656636Y-134043091D01*
X100775110Y-133994017D01*
X100853523Y-133978420D01*
X100900881Y-133969000D01*
X101029119Y-133969000D01*
X101076477Y-133978420D01*
G37*
G36*
X98688855Y-133972140D02*
G01*
X98752618Y-133978420D01*
X98843404Y-134005960D01*
X98875336Y-134015646D01*
X98988425Y-134076094D01*
X99087554Y-134157446D01*
X99168906Y-134256575D01*
X99229354Y-134369664D01*
X99229355Y-134369668D01*
X99266580Y-134492382D01*
X99279149Y-134620000D01*
X99266580Y-134747618D01*
X99256339Y-134781377D01*
X99229354Y-134870336D01*
X99168906Y-134983425D01*
X99087554Y-135082554D01*
X98988425Y-135163906D01*
X98875336Y-135224354D01*
X98843404Y-135234040D01*
X98752618Y-135261580D01*
X98688855Y-135267860D01*
X98656974Y-135271000D01*
X98193026Y-135271000D01*
X98161145Y-135267860D01*
X98097382Y-135261580D01*
X98006596Y-135234040D01*
X97974664Y-135224354D01*
X97861575Y-135163906D01*
X97762446Y-135082554D01*
X97681094Y-134983425D01*
X97620646Y-134870336D01*
X97593661Y-134781377D01*
X97583420Y-134747618D01*
X97570851Y-134620000D01*
X97583420Y-134492382D01*
X97620645Y-134369668D01*
X97620646Y-134369664D01*
X97681094Y-134256575D01*
X97762446Y-134157446D01*
X97861575Y-134076094D01*
X97974664Y-134015646D01*
X98006596Y-134005960D01*
X98097382Y-133978420D01*
X98161145Y-133972140D01*
X98193026Y-133969000D01*
X98656974Y-133969000D01*
X98688855Y-133972140D01*
G37*
G36*
X233611000Y-133631000D02*
G01*
X223509000Y-133631000D01*
X223509000Y-130529000D01*
X233611000Y-130529000D01*
X233611000Y-133631000D01*
G37*
G36*
X192440988Y-127147973D02*
G01*
X193028082Y-127391155D01*
X193028084Y-127391156D01*
X193556455Y-127744202D01*
X194005798Y-128193545D01*
X194315316Y-128656772D01*
X194358845Y-128721918D01*
X194602027Y-129309012D01*
X194726000Y-129932265D01*
X194726000Y-130567735D01*
X194602027Y-131190988D01*
X194358845Y-131778082D01*
X194358844Y-131778084D01*
X194005798Y-132306455D01*
X193556455Y-132755798D01*
X193028084Y-133108844D01*
X193028083Y-133108845D01*
X193028082Y-133108845D01*
X192440988Y-133352027D01*
X191817735Y-133476000D01*
X191182265Y-133476000D01*
X190559012Y-133352027D01*
X189971918Y-133108845D01*
X189971917Y-133108845D01*
X189971916Y-133108844D01*
X189443545Y-132755798D01*
X188994202Y-132306455D01*
X188641156Y-131778084D01*
X188641155Y-131778082D01*
X188397973Y-131190988D01*
X188274000Y-130567735D01*
X188274000Y-129932265D01*
X188397973Y-129309012D01*
X188641155Y-128721918D01*
X188684684Y-128656772D01*
X188994202Y-128193545D01*
X189443545Y-127744202D01*
X189971916Y-127391156D01*
X189971918Y-127391155D01*
X190559012Y-127147973D01*
X191182265Y-127024000D01*
X191817735Y-127024000D01*
X192440988Y-127147973D01*
G37*
G36*
X162240988Y-127147973D02*
G01*
X162828082Y-127391155D01*
X162828084Y-127391156D01*
X163356455Y-127744202D01*
X163805798Y-128193545D01*
X164115316Y-128656772D01*
X164158845Y-128721918D01*
X164402027Y-129309012D01*
X164526000Y-129932265D01*
X164526000Y-130567735D01*
X164402027Y-131190988D01*
X164158845Y-131778082D01*
X164158844Y-131778084D01*
X163805798Y-132306455D01*
X163356455Y-132755798D01*
X162828084Y-133108844D01*
X162828083Y-133108845D01*
X162828082Y-133108845D01*
X162240988Y-133352027D01*
X161617735Y-133476000D01*
X160982265Y-133476000D01*
X160359012Y-133352027D01*
X159771918Y-133108845D01*
X159771917Y-133108845D01*
X159771916Y-133108844D01*
X159243545Y-132755798D01*
X158794202Y-132306455D01*
X158441156Y-131778084D01*
X158441155Y-131778082D01*
X158197973Y-131190988D01*
X158074000Y-130567735D01*
X158074000Y-129932265D01*
X158197973Y-129309012D01*
X158441155Y-128721918D01*
X158484684Y-128656772D01*
X158794202Y-128193545D01*
X159243545Y-127744202D01*
X159771916Y-127391156D01*
X159771918Y-127391155D01*
X160359012Y-127147973D01*
X160982265Y-127024000D01*
X161617735Y-127024000D01*
X162240988Y-127147973D01*
G37*
G36*
X202275256Y-128691298D02*
G01*
X202381579Y-128712447D01*
X202594037Y-128800450D01*
X202644096Y-128821185D01*
X202682042Y-128836903D01*
X202952451Y-129017585D01*
X203182415Y-129247549D01*
X203363097Y-129517958D01*
X203487553Y-129818421D01*
X203508702Y-129924744D01*
X203551000Y-130137389D01*
X203551000Y-130462611D01*
X203537794Y-130529000D01*
X203487553Y-130781579D01*
X203363097Y-131082042D01*
X203182415Y-131352451D01*
X202952451Y-131582415D01*
X202682042Y-131763097D01*
X202381579Y-131887553D01*
X202275256Y-131908702D01*
X202062611Y-131951000D01*
X201737389Y-131951000D01*
X201524744Y-131908702D01*
X201418421Y-131887553D01*
X201117958Y-131763097D01*
X200847549Y-131582415D01*
X200617585Y-131352451D01*
X200436903Y-131082042D01*
X200312447Y-130781579D01*
X200262206Y-130529000D01*
X200249000Y-130462611D01*
X200249000Y-130137389D01*
X200291298Y-129924744D01*
X200312447Y-129818421D01*
X200436903Y-129517958D01*
X200617585Y-129247549D01*
X200847549Y-129017585D01*
X201117958Y-128836903D01*
X201155905Y-128821185D01*
X201205963Y-128800450D01*
X201418421Y-128712447D01*
X201524744Y-128691298D01*
X201737389Y-128649000D01*
X202062611Y-128649000D01*
X202275256Y-128691298D01*
G37*
G36*
X80526000Y-131326000D02*
G01*
X78224000Y-131326000D01*
X78224000Y-129024000D01*
X80526000Y-129024000D01*
X80526000Y-131326000D01*
G37*
G36*
X69439549Y-129046116D02*
G01*
X69550734Y-129068232D01*
X69698850Y-129129584D01*
X69755933Y-129153228D01*
X69760203Y-129154997D01*
X69948720Y-129280960D01*
X70109040Y-129441280D01*
X70235003Y-129629797D01*
X70321768Y-129839266D01*
X70366000Y-130061636D01*
X70366000Y-130288364D01*
X70321768Y-130510734D01*
X70235003Y-130720203D01*
X70109040Y-130908720D01*
X69948720Y-131069040D01*
X69760203Y-131195003D01*
X69550734Y-131281768D01*
X69439549Y-131303884D01*
X69328365Y-131326000D01*
X69101635Y-131326000D01*
X68990451Y-131303884D01*
X68879266Y-131281768D01*
X68669797Y-131195003D01*
X68481280Y-131069040D01*
X68320960Y-130908720D01*
X68194997Y-130720203D01*
X68108232Y-130510734D01*
X68064000Y-130288364D01*
X68064000Y-130061636D01*
X68108232Y-129839266D01*
X68194997Y-129629797D01*
X68320960Y-129441280D01*
X68481280Y-129280960D01*
X68669797Y-129154997D01*
X68674068Y-129153228D01*
X68731150Y-129129584D01*
X68879266Y-129068232D01*
X68990451Y-129046116D01*
X69101635Y-129024000D01*
X69328365Y-129024000D01*
X69439549Y-129046116D01*
G37*
G36*
X125978228Y-128086703D02*
G01*
X126133100Y-128150853D01*
X126272481Y-128243985D01*
X126391015Y-128362519D01*
X126484147Y-128501900D01*
X126548297Y-128656772D01*
X126581000Y-128821184D01*
X126581000Y-128988816D01*
X126548297Y-129153228D01*
X126484147Y-129308100D01*
X126391015Y-129447481D01*
X126272481Y-129566015D01*
X126133100Y-129659147D01*
X125978228Y-129723297D01*
X125813816Y-129756000D01*
X125646184Y-129756000D01*
X125481772Y-129723297D01*
X125326900Y-129659147D01*
X125187519Y-129566015D01*
X125068985Y-129447481D01*
X124975853Y-129308100D01*
X124911703Y-129153228D01*
X124879000Y-128988816D01*
X124879000Y-128821184D01*
X124911703Y-128656772D01*
X124975853Y-128501900D01*
X125068985Y-128362519D01*
X125187519Y-128243985D01*
X125326900Y-128150853D01*
X125481772Y-128086703D01*
X125646184Y-128054000D01*
X125813816Y-128054000D01*
X125978228Y-128086703D01*
G37*
G36*
X84819903Y-123892075D02*
G01*
X84955433Y-123948213D01*
X85047571Y-123986378D01*
X85252466Y-124123285D01*
X85426715Y-124297534D01*
X85563622Y-124502429D01*
X85657925Y-124730097D01*
X85706000Y-124971787D01*
X85706000Y-125218213D01*
X85657925Y-125459903D01*
X85563622Y-125687571D01*
X85426715Y-125892466D01*
X85252466Y-126066715D01*
X85047571Y-126203622D01*
X85047570Y-126203623D01*
X85047569Y-126203623D01*
X84819903Y-126297925D01*
X84578214Y-126346000D01*
X84331786Y-126346000D01*
X84090097Y-126297925D01*
X83862431Y-126203623D01*
X83862430Y-126203623D01*
X83862429Y-126203622D01*
X83657534Y-126066715D01*
X83483285Y-125892466D01*
X83346378Y-125687571D01*
X83252075Y-125459903D01*
X83204000Y-125218213D01*
X83204000Y-124971787D01*
X83252075Y-124730097D01*
X83346378Y-124502429D01*
X83483285Y-124297534D01*
X83657534Y-124123285D01*
X83862429Y-123986378D01*
X83954568Y-123948213D01*
X84090097Y-123892075D01*
X84331786Y-123844000D01*
X84578214Y-123844000D01*
X84819903Y-123892075D01*
G37*
G36*
X69579903Y-123892075D02*
G01*
X69715433Y-123948213D01*
X69807571Y-123986378D01*
X70012466Y-124123285D01*
X70186715Y-124297534D01*
X70323622Y-124502429D01*
X70417925Y-124730097D01*
X70466000Y-124971787D01*
X70466000Y-125218213D01*
X70417925Y-125459903D01*
X70323622Y-125687571D01*
X70186715Y-125892466D01*
X70012466Y-126066715D01*
X69807571Y-126203622D01*
X69807570Y-126203623D01*
X69807569Y-126203623D01*
X69579903Y-126297925D01*
X69338214Y-126346000D01*
X69091786Y-126346000D01*
X68850097Y-126297925D01*
X68622431Y-126203623D01*
X68622430Y-126203623D01*
X68622429Y-126203622D01*
X68417534Y-126066715D01*
X68243285Y-125892466D01*
X68106378Y-125687571D01*
X68012075Y-125459903D01*
X67964000Y-125218213D01*
X67964000Y-124971787D01*
X68012075Y-124730097D01*
X68106378Y-124502429D01*
X68243285Y-124297534D01*
X68417534Y-124123285D01*
X68622429Y-123986378D01*
X68714568Y-123948213D01*
X68850097Y-123892075D01*
X69091786Y-123844000D01*
X69338214Y-123844000D01*
X69579903Y-123892075D01*
G37*
G36*
X116569903Y-123892075D02*
G01*
X116705433Y-123948213D01*
X116797571Y-123986378D01*
X117002466Y-124123285D01*
X117176715Y-124297534D01*
X117313622Y-124502429D01*
X117407925Y-124730097D01*
X117456000Y-124971787D01*
X117456000Y-125218213D01*
X117407925Y-125459903D01*
X117313622Y-125687571D01*
X117176715Y-125892466D01*
X117002466Y-126066715D01*
X116797571Y-126203622D01*
X116797570Y-126203623D01*
X116797569Y-126203623D01*
X116569903Y-126297925D01*
X116328214Y-126346000D01*
X116081786Y-126346000D01*
X115840097Y-126297925D01*
X115612431Y-126203623D01*
X115612430Y-126203623D01*
X115612429Y-126203622D01*
X115407534Y-126066715D01*
X115233285Y-125892466D01*
X115096378Y-125687571D01*
X115002075Y-125459903D01*
X114954000Y-125218213D01*
X114954000Y-124971787D01*
X115002075Y-124730097D01*
X115096378Y-124502429D01*
X115233285Y-124297534D01*
X115407534Y-124123285D01*
X115612429Y-123986378D01*
X115704568Y-123948213D01*
X115840097Y-123892075D01*
X116081786Y-123844000D01*
X116328214Y-123844000D01*
X116569903Y-123892075D01*
G37*
G36*
X101329903Y-123892075D02*
G01*
X101465433Y-123948213D01*
X101557571Y-123986378D01*
X101762466Y-124123285D01*
X101936715Y-124297534D01*
X102073622Y-124502429D01*
X102167925Y-124730097D01*
X102216000Y-124971787D01*
X102216000Y-125218213D01*
X102167925Y-125459903D01*
X102073622Y-125687571D01*
X101936715Y-125892466D01*
X101762466Y-126066715D01*
X101557571Y-126203622D01*
X101557570Y-126203623D01*
X101557569Y-126203623D01*
X101329903Y-126297925D01*
X101088214Y-126346000D01*
X100841786Y-126346000D01*
X100600097Y-126297925D01*
X100372431Y-126203623D01*
X100372430Y-126203623D01*
X100372429Y-126203622D01*
X100167534Y-126066715D01*
X99993285Y-125892466D01*
X99856378Y-125687571D01*
X99762075Y-125459903D01*
X99714000Y-125218213D01*
X99714000Y-124971787D01*
X99762075Y-124730097D01*
X99856378Y-124502429D01*
X99993285Y-124297534D01*
X100167534Y-124123285D01*
X100372429Y-123986378D01*
X100464568Y-123948213D01*
X100600097Y-123892075D01*
X100841786Y-123844000D01*
X101088214Y-123844000D01*
X101329903Y-123892075D01*
G37*
G36*
X175951000Y-126151000D02*
G01*
X173249000Y-126151000D01*
X173249000Y-123449000D01*
X175951000Y-123449000D01*
X175951000Y-126151000D01*
G37*
G36*
X133714903Y-122622075D02*
G01*
X133942571Y-122716378D01*
X134147466Y-122853285D01*
X134321715Y-123027534D01*
X134458622Y-123232429D01*
X134552925Y-123460097D01*
X134601000Y-123701787D01*
X134601000Y-123948213D01*
X134552925Y-124189903D01*
X134458622Y-124417571D01*
X134321715Y-124622466D01*
X134147466Y-124796715D01*
X133942571Y-124933622D01*
X133942570Y-124933623D01*
X133942569Y-124933623D01*
X133714903Y-125027925D01*
X133473214Y-125076000D01*
X133226786Y-125076000D01*
X132985097Y-125027925D01*
X132757431Y-124933623D01*
X132757430Y-124933623D01*
X132757429Y-124933622D01*
X132552534Y-124796715D01*
X132378285Y-124622466D01*
X132241378Y-124417571D01*
X132147075Y-124189903D01*
X132099000Y-123948213D01*
X132099000Y-123701787D01*
X132147075Y-123460097D01*
X132241378Y-123232429D01*
X132378285Y-123027534D01*
X132552534Y-122853285D01*
X132757429Y-122716378D01*
X132985097Y-122622075D01*
X133226786Y-122574000D01*
X133473214Y-122574000D01*
X133714903Y-122622075D01*
G37*
G36*
X125978228Y-123086703D02*
G01*
X126133100Y-123150853D01*
X126272481Y-123243985D01*
X126391015Y-123362519D01*
X126484147Y-123501900D01*
X126548297Y-123656772D01*
X126581000Y-123821184D01*
X126581000Y-123988816D01*
X126548297Y-124153228D01*
X126484147Y-124308100D01*
X126391015Y-124447481D01*
X126272481Y-124566015D01*
X126133100Y-124659147D01*
X125978228Y-124723297D01*
X125813816Y-124756000D01*
X125646184Y-124756000D01*
X125481772Y-124723297D01*
X125326900Y-124659147D01*
X125187519Y-124566015D01*
X125068985Y-124447481D01*
X124975853Y-124308100D01*
X124911703Y-124153228D01*
X124879000Y-123988816D01*
X124879000Y-123821184D01*
X124911703Y-123656772D01*
X124975853Y-123501900D01*
X125068985Y-123362519D01*
X125187519Y-123243985D01*
X125326900Y-123150853D01*
X125481772Y-123086703D01*
X125646184Y-123054000D01*
X125813816Y-123054000D01*
X125978228Y-123086703D01*
G37*
G36*
X48635256Y-120311298D02*
G01*
X48741579Y-120332447D01*
X49042042Y-120456903D01*
X49312451Y-120637585D01*
X49542415Y-120867549D01*
X49723097Y-121137958D01*
X49847553Y-121438421D01*
X49911000Y-121757391D01*
X49911000Y-122082609D01*
X49847553Y-122401579D01*
X49723097Y-122702042D01*
X49542415Y-122972451D01*
X49312451Y-123202415D01*
X49042042Y-123383097D01*
X48741579Y-123507553D01*
X48635256Y-123528702D01*
X48422611Y-123571000D01*
X48097389Y-123571000D01*
X47884744Y-123528702D01*
X47778421Y-123507553D01*
X47477958Y-123383097D01*
X47207549Y-123202415D01*
X46977585Y-122972451D01*
X46796903Y-122702042D01*
X46672447Y-122401579D01*
X46609000Y-122082609D01*
X46609000Y-121757391D01*
X46672447Y-121438421D01*
X46796903Y-121137958D01*
X46977585Y-120867549D01*
X47207549Y-120637585D01*
X47477958Y-120456903D01*
X47778421Y-120332447D01*
X47884744Y-120311298D01*
X48097389Y-120269000D01*
X48422611Y-120269000D01*
X48635256Y-120311298D01*
G37*
G36*
X63240256Y-120311298D02*
G01*
X63346579Y-120332447D01*
X63647042Y-120456903D01*
X63917451Y-120637585D01*
X64147415Y-120867549D01*
X64328097Y-121137958D01*
X64452553Y-121438421D01*
X64516000Y-121757391D01*
X64516000Y-122082609D01*
X64452553Y-122401579D01*
X64328097Y-122702042D01*
X64147415Y-122972451D01*
X63917451Y-123202415D01*
X63647042Y-123383097D01*
X63346579Y-123507553D01*
X63240256Y-123528702D01*
X63027611Y-123571000D01*
X62702389Y-123571000D01*
X62489744Y-123528702D01*
X62383421Y-123507553D01*
X62082958Y-123383097D01*
X61812549Y-123202415D01*
X61582585Y-122972451D01*
X61401903Y-122702042D01*
X61277447Y-122401579D01*
X61214000Y-122082609D01*
X61214000Y-121757391D01*
X61277447Y-121438421D01*
X61401903Y-121137958D01*
X61582585Y-120867549D01*
X61812549Y-120637585D01*
X62082958Y-120456903D01*
X62383421Y-120332447D01*
X62489744Y-120311298D01*
X62702389Y-120269000D01*
X63027611Y-120269000D01*
X63240256Y-120311298D01*
G37*
G36*
X56255256Y-120311298D02*
G01*
X56361579Y-120332447D01*
X56662042Y-120456903D01*
X56932451Y-120637585D01*
X57162415Y-120867549D01*
X57343097Y-121137958D01*
X57467553Y-121438421D01*
X57531000Y-121757391D01*
X57531000Y-122082609D01*
X57467553Y-122401579D01*
X57343097Y-122702042D01*
X57162415Y-122972451D01*
X56932451Y-123202415D01*
X56662042Y-123383097D01*
X56361579Y-123507553D01*
X56255256Y-123528702D01*
X56042611Y-123571000D01*
X55717389Y-123571000D01*
X55504744Y-123528702D01*
X55398421Y-123507553D01*
X55097958Y-123383097D01*
X54827549Y-123202415D01*
X54597585Y-122972451D01*
X54416903Y-122702042D01*
X54292447Y-122401579D01*
X54229000Y-122082609D01*
X54229000Y-121757391D01*
X54292447Y-121438421D01*
X54416903Y-121137958D01*
X54597585Y-120867549D01*
X54827549Y-120637585D01*
X55097958Y-120456903D01*
X55398421Y-120332447D01*
X55504744Y-120311298D01*
X55717389Y-120269000D01*
X56042611Y-120269000D01*
X56255256Y-120311298D01*
G37*
G36*
X41015256Y-120311298D02*
G01*
X41121579Y-120332447D01*
X41422042Y-120456903D01*
X41692451Y-120637585D01*
X41922415Y-120867549D01*
X42103097Y-121137958D01*
X42227553Y-121438421D01*
X42291000Y-121757391D01*
X42291000Y-122082609D01*
X42227553Y-122401579D01*
X42103097Y-122702042D01*
X41922415Y-122972451D01*
X41692451Y-123202415D01*
X41422042Y-123383097D01*
X41121579Y-123507553D01*
X41015256Y-123528702D01*
X40802611Y-123571000D01*
X40477389Y-123571000D01*
X40264744Y-123528702D01*
X40158421Y-123507553D01*
X39857958Y-123383097D01*
X39587549Y-123202415D01*
X39357585Y-122972451D01*
X39176903Y-122702042D01*
X39052447Y-122401579D01*
X38989000Y-122082609D01*
X38989000Y-121757391D01*
X39052447Y-121438421D01*
X39176903Y-121137958D01*
X39357585Y-120867549D01*
X39587549Y-120637585D01*
X39857958Y-120456903D01*
X40158421Y-120332447D01*
X40264744Y-120311298D01*
X40477389Y-120269000D01*
X40802611Y-120269000D01*
X41015256Y-120311298D01*
G37*
G36*
X233611000Y-123471000D02*
G01*
X223509000Y-123471000D01*
X223509000Y-120369000D01*
X233611000Y-120369000D01*
X233611000Y-123471000D01*
G37*
G36*
X129269903Y-118177075D02*
G01*
X129497571Y-118271378D01*
X129702466Y-118408285D01*
X129876715Y-118582534D01*
X130013622Y-118787429D01*
X130107925Y-119015097D01*
X130156000Y-119256787D01*
X130156000Y-119503213D01*
X130107925Y-119744903D01*
X130013622Y-119972571D01*
X129876715Y-120177466D01*
X129702466Y-120351715D01*
X129497571Y-120488622D01*
X129497570Y-120488623D01*
X129497569Y-120488623D01*
X129269903Y-120582925D01*
X129028214Y-120631000D01*
X128781786Y-120631000D01*
X128540097Y-120582925D01*
X128312431Y-120488623D01*
X128312430Y-120488623D01*
X128312429Y-120488622D01*
X128107534Y-120351715D01*
X127933285Y-120177466D01*
X127796378Y-119972571D01*
X127702075Y-119744903D01*
X127654000Y-119503213D01*
X127654000Y-119256787D01*
X127702075Y-119015097D01*
X127796378Y-118787429D01*
X127933285Y-118582534D01*
X128107534Y-118408285D01*
X128312429Y-118271378D01*
X128540097Y-118177075D01*
X128781786Y-118129000D01*
X129028214Y-118129000D01*
X129269903Y-118177075D01*
G37*
G36*
X213724903Y-115637075D02*
G01*
X213952571Y-115731378D01*
X214157466Y-115868285D01*
X214331715Y-116042534D01*
X214468622Y-116247429D01*
X214562925Y-116475097D01*
X214611000Y-116716787D01*
X214611000Y-116963213D01*
X214562925Y-117204903D01*
X214468622Y-117432571D01*
X214331715Y-117637466D01*
X214157466Y-117811715D01*
X213952571Y-117948622D01*
X213952570Y-117948623D01*
X213952569Y-117948623D01*
X213724903Y-118042925D01*
X213483214Y-118091000D01*
X213236786Y-118091000D01*
X212995097Y-118042925D01*
X212767431Y-117948623D01*
X212767430Y-117948623D01*
X212767429Y-117948622D01*
X212562534Y-117811715D01*
X212388285Y-117637466D01*
X212251378Y-117432571D01*
X212157075Y-117204903D01*
X212109000Y-116963213D01*
X212109000Y-116716787D01*
X212157075Y-116475097D01*
X212251378Y-116247429D01*
X212388285Y-116042534D01*
X212562534Y-115868285D01*
X212767429Y-115731378D01*
X212995097Y-115637075D01*
X213236786Y-115589000D01*
X213483214Y-115589000D01*
X213724903Y-115637075D01*
G37*
G36*
X84601000Y-113811000D02*
G01*
X80499000Y-113811000D01*
X80499000Y-109709000D01*
X84601000Y-109709000D01*
X84601000Y-113811000D01*
G37*
G36*
X112541000Y-113811000D02*
G01*
X108439000Y-113811000D01*
X108439000Y-109709000D01*
X112541000Y-109709000D01*
X112541000Y-113811000D01*
G37*
G36*
X233611000Y-113311000D02*
G01*
X223509000Y-113311000D01*
X223509000Y-110209000D01*
X233611000Y-110209000D01*
X233611000Y-113311000D01*
G37*
G36*
X57531000Y-108331000D02*
G01*
X54229000Y-108331000D01*
X54229000Y-105029000D01*
X57531000Y-105029000D01*
X57531000Y-108331000D01*
G37*
G36*
X64516000Y-108331000D02*
G01*
X61214000Y-108331000D01*
X61214000Y-105029000D01*
X64516000Y-105029000D01*
X64516000Y-108331000D01*
G37*
G36*
X49911000Y-108331000D02*
G01*
X46609000Y-108331000D01*
X46609000Y-105029000D01*
X49911000Y-105029000D01*
X49911000Y-108331000D01*
G37*
G36*
X42291000Y-108331000D02*
G01*
X38989000Y-108331000D01*
X38989000Y-105029000D01*
X42291000Y-105029000D01*
X42291000Y-108331000D01*
G37*
G36*
X34571000Y-107961000D02*
G01*
X31469000Y-107961000D01*
X31469000Y-97859000D01*
X34571000Y-97859000D01*
X34571000Y-107961000D01*
G37*
G36*
X129269903Y-102937075D02*
G01*
X129375714Y-102980903D01*
X129497571Y-103031378D01*
X129702466Y-103168285D01*
X129876715Y-103342534D01*
X129924109Y-103413464D01*
X130013623Y-103547431D01*
X130087018Y-103724622D01*
X130107925Y-103775097D01*
X130156000Y-104016787D01*
X130156000Y-104263213D01*
X130107925Y-104504903D01*
X130013622Y-104732571D01*
X129876715Y-104937466D01*
X129702466Y-105111715D01*
X129497571Y-105248622D01*
X129497570Y-105248623D01*
X129497569Y-105248623D01*
X129269903Y-105342925D01*
X129028214Y-105391000D01*
X128781786Y-105391000D01*
X128540097Y-105342925D01*
X128312431Y-105248623D01*
X128312430Y-105248623D01*
X128312429Y-105248622D01*
X128107534Y-105111715D01*
X127933285Y-104937466D01*
X127796378Y-104732571D01*
X127702075Y-104504903D01*
X127654000Y-104263213D01*
X127654000Y-104016787D01*
X127702075Y-103775097D01*
X127722982Y-103724622D01*
X127796377Y-103547431D01*
X127885891Y-103413464D01*
X127933285Y-103342534D01*
X128107534Y-103168285D01*
X128312429Y-103031378D01*
X128434287Y-102980903D01*
X128540097Y-102937075D01*
X128781786Y-102889000D01*
X129028214Y-102889000D01*
X129269903Y-102937075D01*
G37*
G36*
X213724903Y-101413075D02*
G01*
X213952571Y-101507378D01*
X214157466Y-101644285D01*
X214331715Y-101818534D01*
X214331716Y-101818536D01*
X214468623Y-102023431D01*
X214562925Y-102251097D01*
X214611000Y-102492786D01*
X214611000Y-102739214D01*
X214562925Y-102980903D01*
X214485310Y-103168284D01*
X214468622Y-103208571D01*
X214331715Y-103413466D01*
X214157466Y-103587715D01*
X213952571Y-103724622D01*
X213952570Y-103724623D01*
X213952569Y-103724623D01*
X213724903Y-103818925D01*
X213483214Y-103867000D01*
X213236786Y-103867000D01*
X212995097Y-103818925D01*
X212767431Y-103724623D01*
X212767430Y-103724623D01*
X212767429Y-103724622D01*
X212562534Y-103587715D01*
X212388285Y-103413466D01*
X212251378Y-103208571D01*
X212234691Y-103168284D01*
X212157075Y-102980903D01*
X212109000Y-102739214D01*
X212109000Y-102492786D01*
X212157075Y-102251097D01*
X212251377Y-102023431D01*
X212388284Y-101818536D01*
X212388285Y-101818534D01*
X212562534Y-101644285D01*
X212767429Y-101507378D01*
X212995097Y-101413075D01*
X213236786Y-101365000D01*
X213483214Y-101365000D01*
X213724903Y-101413075D01*
G37*
G36*
X111088254Y-99787818D02*
G01*
X111461511Y-99942426D01*
X111461513Y-99942427D01*
X111797436Y-100166884D01*
X112083116Y-100452564D01*
X112255798Y-100711000D01*
X112307574Y-100788489D01*
X112462182Y-101161746D01*
X112541000Y-101557993D01*
X112541000Y-101962007D01*
X112462182Y-102358254D01*
X112307574Y-102731511D01*
X112307573Y-102731513D01*
X112083116Y-103067436D01*
X111797436Y-103353116D01*
X111461513Y-103577573D01*
X111461512Y-103577574D01*
X111461511Y-103577574D01*
X111088254Y-103732182D01*
X110692007Y-103811000D01*
X110287993Y-103811000D01*
X109891746Y-103732182D01*
X109518489Y-103577574D01*
X109518488Y-103577574D01*
X109518487Y-103577573D01*
X109182564Y-103353116D01*
X108896884Y-103067436D01*
X108672427Y-102731513D01*
X108672426Y-102731511D01*
X108517818Y-102358254D01*
X108439000Y-101962007D01*
X108439000Y-101557993D01*
X108517818Y-101161746D01*
X108672426Y-100788489D01*
X108724203Y-100711000D01*
X108896884Y-100452564D01*
X109182564Y-100166884D01*
X109518487Y-99942427D01*
X109518489Y-99942426D01*
X109891746Y-99787818D01*
X110287993Y-99709000D01*
X110692007Y-99709000D01*
X111088254Y-99787818D01*
G37*
G36*
X83148254Y-99787818D02*
G01*
X83521511Y-99942426D01*
X83521513Y-99942427D01*
X83857436Y-100166884D01*
X84143116Y-100452564D01*
X84315798Y-100711000D01*
X84367574Y-100788489D01*
X84522182Y-101161746D01*
X84601000Y-101557993D01*
X84601000Y-101962007D01*
X84522182Y-102358254D01*
X84367574Y-102731511D01*
X84367573Y-102731513D01*
X84143116Y-103067436D01*
X83857436Y-103353116D01*
X83521513Y-103577573D01*
X83521512Y-103577574D01*
X83521511Y-103577574D01*
X83148254Y-103732182D01*
X82752007Y-103811000D01*
X82347993Y-103811000D01*
X81951746Y-103732182D01*
X81578489Y-103577574D01*
X81578488Y-103577574D01*
X81578487Y-103577573D01*
X81242564Y-103353116D01*
X80956884Y-103067436D01*
X80732427Y-102731513D01*
X80732426Y-102731511D01*
X80577818Y-102358254D01*
X80499000Y-101962007D01*
X80499000Y-101557993D01*
X80577818Y-101161746D01*
X80732426Y-100788489D01*
X80784203Y-100711000D01*
X80956884Y-100452564D01*
X81242564Y-100166884D01*
X81578487Y-99942427D01*
X81578489Y-99942426D01*
X81951746Y-99787818D01*
X82347993Y-99709000D01*
X82752007Y-99709000D01*
X83148254Y-99787818D01*
G37*
G36*
X129148228Y-99581703D02*
G01*
X129303100Y-99645853D01*
X129442481Y-99738985D01*
X129561015Y-99857519D01*
X129654147Y-99996900D01*
X129718297Y-100151772D01*
X129751000Y-100316184D01*
X129751000Y-100483816D01*
X129718297Y-100648228D01*
X129654147Y-100803100D01*
X129561015Y-100942481D01*
X129442481Y-101061015D01*
X129303100Y-101154147D01*
X129148228Y-101218297D01*
X128983816Y-101251000D01*
X128816184Y-101251000D01*
X128651772Y-101218297D01*
X128496900Y-101154147D01*
X128357519Y-101061015D01*
X128238985Y-100942481D01*
X128145853Y-100803100D01*
X128081703Y-100648228D01*
X128049000Y-100483816D01*
X128049000Y-100316184D01*
X128081703Y-100151772D01*
X128145853Y-99996900D01*
X128238985Y-99857519D01*
X128357519Y-99738985D01*
X128496900Y-99645853D01*
X128651772Y-99581703D01*
X128816184Y-99549000D01*
X128983816Y-99549000D01*
X129148228Y-99581703D01*
G37*
G36*
X56255256Y-97451298D02*
G01*
X56361579Y-97472447D01*
X56662042Y-97596903D01*
X56932451Y-97777585D01*
X57162415Y-98007549D01*
X57343097Y-98277958D01*
X57467553Y-98578421D01*
X57531000Y-98897391D01*
X57531000Y-99222609D01*
X57467553Y-99541579D01*
X57343097Y-99842042D01*
X57162415Y-100112451D01*
X56932451Y-100342415D01*
X56662042Y-100523097D01*
X56361579Y-100647553D01*
X56255256Y-100668702D01*
X56042611Y-100711000D01*
X55717389Y-100711000D01*
X55504744Y-100668702D01*
X55398421Y-100647553D01*
X55097958Y-100523097D01*
X54827549Y-100342415D01*
X54597585Y-100112451D01*
X54416903Y-99842042D01*
X54292447Y-99541579D01*
X54229000Y-99222609D01*
X54229000Y-98897391D01*
X54292447Y-98578421D01*
X54416903Y-98277958D01*
X54597585Y-98007549D01*
X54827549Y-97777585D01*
X55097958Y-97596903D01*
X55398421Y-97472447D01*
X55504744Y-97451298D01*
X55717389Y-97409000D01*
X56042611Y-97409000D01*
X56255256Y-97451298D01*
G37*
G36*
X41015256Y-97451298D02*
G01*
X41121579Y-97472447D01*
X41422042Y-97596903D01*
X41692451Y-97777585D01*
X41922415Y-98007549D01*
X42103097Y-98277958D01*
X42227553Y-98578421D01*
X42291000Y-98897391D01*
X42291000Y-99222609D01*
X42227553Y-99541579D01*
X42103097Y-99842042D01*
X41922415Y-100112451D01*
X41692451Y-100342415D01*
X41422042Y-100523097D01*
X41121579Y-100647553D01*
X41015256Y-100668702D01*
X40802611Y-100711000D01*
X40477389Y-100711000D01*
X40264744Y-100668702D01*
X40158421Y-100647553D01*
X39857958Y-100523097D01*
X39587549Y-100342415D01*
X39357585Y-100112451D01*
X39176903Y-99842042D01*
X39052447Y-99541579D01*
X38989000Y-99222609D01*
X38989000Y-98897391D01*
X39052447Y-98578421D01*
X39176903Y-98277958D01*
X39357585Y-98007549D01*
X39587549Y-97777585D01*
X39857958Y-97596903D01*
X40158421Y-97472447D01*
X40264744Y-97451298D01*
X40477389Y-97409000D01*
X40802611Y-97409000D01*
X41015256Y-97451298D01*
G37*
G36*
X63240256Y-97451298D02*
G01*
X63346579Y-97472447D01*
X63647042Y-97596903D01*
X63917451Y-97777585D01*
X64147415Y-98007549D01*
X64328097Y-98277958D01*
X64452553Y-98578421D01*
X64516000Y-98897391D01*
X64516000Y-99222609D01*
X64452553Y-99541579D01*
X64328097Y-99842042D01*
X64147415Y-100112451D01*
X63917451Y-100342415D01*
X63647042Y-100523097D01*
X63346579Y-100647553D01*
X63240256Y-100668702D01*
X63027611Y-100711000D01*
X62702389Y-100711000D01*
X62489744Y-100668702D01*
X62383421Y-100647553D01*
X62082958Y-100523097D01*
X61812549Y-100342415D01*
X61582585Y-100112451D01*
X61401903Y-99842042D01*
X61277447Y-99541579D01*
X61214000Y-99222609D01*
X61214000Y-98897391D01*
X61277447Y-98578421D01*
X61401903Y-98277958D01*
X61582585Y-98007549D01*
X61812549Y-97777585D01*
X62082958Y-97596903D01*
X62383421Y-97472447D01*
X62489744Y-97451298D01*
X62702389Y-97409000D01*
X63027611Y-97409000D01*
X63240256Y-97451298D01*
G37*
G36*
X48635256Y-97451298D02*
G01*
X48741579Y-97472447D01*
X49042042Y-97596903D01*
X49312451Y-97777585D01*
X49542415Y-98007549D01*
X49723097Y-98277958D01*
X49847553Y-98578421D01*
X49911000Y-98897391D01*
X49911000Y-99222609D01*
X49847553Y-99541579D01*
X49723097Y-99842042D01*
X49542415Y-100112451D01*
X49312451Y-100342415D01*
X49042042Y-100523097D01*
X48741579Y-100647553D01*
X48635256Y-100668702D01*
X48422611Y-100711000D01*
X48097389Y-100711000D01*
X47884744Y-100668702D01*
X47778421Y-100647553D01*
X47477958Y-100523097D01*
X47207549Y-100342415D01*
X46977585Y-100112451D01*
X46796903Y-99842042D01*
X46672447Y-99541579D01*
X46609000Y-99222609D01*
X46609000Y-98897391D01*
X46672447Y-98578421D01*
X46796903Y-98277958D01*
X46977585Y-98007549D01*
X47207549Y-97777585D01*
X47477958Y-97596903D01*
X47778421Y-97472447D01*
X47884744Y-97451298D01*
X48097389Y-97409000D01*
X48422611Y-97409000D01*
X48635256Y-97451298D01*
G37*
G36*
X129148228Y-94581703D02*
G01*
X129303100Y-94645853D01*
X129442481Y-94738985D01*
X129561015Y-94857519D01*
X129654147Y-94996900D01*
X129718297Y-95151772D01*
X129751000Y-95316184D01*
X129751000Y-95483816D01*
X129718297Y-95648228D01*
X129654147Y-95803100D01*
X129561015Y-95942481D01*
X129442481Y-96061015D01*
X129303100Y-96154147D01*
X129148228Y-96218297D01*
X128983816Y-96251000D01*
X128816184Y-96251000D01*
X128651772Y-96218297D01*
X128496900Y-96154147D01*
X128357519Y-96061015D01*
X128238985Y-95942481D01*
X128145853Y-95803100D01*
X128081703Y-95648228D01*
X128049000Y-95483816D01*
X128049000Y-95316184D01*
X128081703Y-95151772D01*
X128145853Y-94996900D01*
X128238985Y-94857519D01*
X128357519Y-94738985D01*
X128496900Y-94645853D01*
X128651772Y-94581703D01*
X128816184Y-94549000D01*
X128983816Y-94549000D01*
X129148228Y-94581703D01*
G37*
G36*
X233611000Y-92991000D02*
G01*
X223509000Y-92991000D01*
X223509000Y-89889000D01*
X233611000Y-89889000D01*
X233611000Y-92991000D01*
G37*
G36*
X174994072Y-88420918D02*
G01*
X175239939Y-88522759D01*
X175461212Y-88670610D01*
X175649390Y-88858788D01*
X175797241Y-89080061D01*
X175899082Y-89325928D01*
X175951000Y-89586938D01*
X175951000Y-89853062D01*
X175899082Y-90114072D01*
X175797241Y-90359939D01*
X175649390Y-90581212D01*
X175461212Y-90769390D01*
X175239939Y-90917241D01*
X175239938Y-90917242D01*
X175239937Y-90917242D01*
X174994072Y-91019082D01*
X174733063Y-91071000D01*
X174466937Y-91071000D01*
X174205928Y-91019082D01*
X173960063Y-90917242D01*
X173960062Y-90917242D01*
X173960061Y-90917241D01*
X173738788Y-90769390D01*
X173550610Y-90581212D01*
X173402759Y-90359939D01*
X173300918Y-90114072D01*
X173249000Y-89853062D01*
X173249000Y-89586938D01*
X173300918Y-89325928D01*
X173402759Y-89080061D01*
X173550610Y-88858788D01*
X173738788Y-88670610D01*
X173960061Y-88522759D01*
X174205928Y-88420918D01*
X174466937Y-88369000D01*
X174733063Y-88369000D01*
X174994072Y-88420918D01*
G37*
G36*
X162240988Y-81147973D02*
G01*
X162828082Y-81391155D01*
X162828084Y-81391156D01*
X163356455Y-81744202D01*
X163805798Y-82193545D01*
X164110123Y-82649000D01*
X164158845Y-82721918D01*
X164402027Y-83309012D01*
X164526000Y-83932265D01*
X164526000Y-84567735D01*
X164402027Y-85190988D01*
X164158845Y-85778082D01*
X164158844Y-85778084D01*
X163805798Y-86306455D01*
X163356455Y-86755798D01*
X162828084Y-87108844D01*
X162828083Y-87108845D01*
X162828082Y-87108845D01*
X162240988Y-87352027D01*
X161617735Y-87476000D01*
X160982265Y-87476000D01*
X160359012Y-87352027D01*
X159771918Y-87108845D01*
X159771917Y-87108845D01*
X159771916Y-87108844D01*
X159243545Y-86755798D01*
X158794202Y-86306455D01*
X158441156Y-85778084D01*
X158441155Y-85778082D01*
X158197973Y-85190988D01*
X158074000Y-84567735D01*
X158074000Y-83932265D01*
X158197973Y-83309012D01*
X158441155Y-82721918D01*
X158489877Y-82649000D01*
X158794202Y-82193545D01*
X159243545Y-81744202D01*
X159771916Y-81391156D01*
X159771918Y-81391155D01*
X160359012Y-81147973D01*
X160982265Y-81024000D01*
X161617735Y-81024000D01*
X162240988Y-81147973D01*
G37*
G36*
X192440988Y-81147973D02*
G01*
X193028082Y-81391155D01*
X193028084Y-81391156D01*
X193556455Y-81744202D01*
X194005798Y-82193545D01*
X194310123Y-82649000D01*
X194358845Y-82721918D01*
X194602027Y-83309012D01*
X194726000Y-83932265D01*
X194726000Y-84567735D01*
X194602027Y-85190988D01*
X194358845Y-85778082D01*
X194358844Y-85778084D01*
X194005798Y-86306455D01*
X193556455Y-86755798D01*
X193028084Y-87108844D01*
X193028083Y-87108845D01*
X193028082Y-87108845D01*
X192440988Y-87352027D01*
X191817735Y-87476000D01*
X191182265Y-87476000D01*
X190559012Y-87352027D01*
X189971918Y-87108845D01*
X189971917Y-87108845D01*
X189971916Y-87108844D01*
X189443545Y-86755798D01*
X188994202Y-86306455D01*
X188641156Y-85778084D01*
X188641155Y-85778082D01*
X188397973Y-85190988D01*
X188274000Y-84567735D01*
X188274000Y-83932265D01*
X188397973Y-83309012D01*
X188641155Y-82721918D01*
X188689877Y-82649000D01*
X188994202Y-82193545D01*
X189443545Y-81744202D01*
X189971916Y-81391156D01*
X189971918Y-81391155D01*
X190559012Y-81147973D01*
X191182265Y-81024000D01*
X191817735Y-81024000D01*
X192440988Y-81147973D01*
G37*
G36*
X202375256Y-82691298D02*
G01*
X202481579Y-82712447D01*
X202782042Y-82836903D01*
X203052451Y-83017585D01*
X203282415Y-83247549D01*
X203463097Y-83517958D01*
X203587553Y-83818421D01*
X203651000Y-84137391D01*
X203651000Y-84462609D01*
X203587553Y-84781579D01*
X203463097Y-85082042D01*
X203282415Y-85352451D01*
X203052451Y-85582415D01*
X202782042Y-85763097D01*
X202481579Y-85887553D01*
X202375256Y-85908702D01*
X202162611Y-85951000D01*
X201837389Y-85951000D01*
X201624744Y-85908702D01*
X201518421Y-85887553D01*
X201217958Y-85763097D01*
X200947549Y-85582415D01*
X200717585Y-85352451D01*
X200536903Y-85082042D01*
X200412447Y-84781579D01*
X200349000Y-84462609D01*
X200349000Y-84137391D01*
X200412447Y-83818421D01*
X200536903Y-83517958D01*
X200717585Y-83247549D01*
X200947549Y-83017585D01*
X201217958Y-82836903D01*
X201518421Y-82712447D01*
X201624744Y-82691298D01*
X201837389Y-82649000D01*
X202162611Y-82649000D01*
X202375256Y-82691298D01*
G37*
G36*
X84601000Y-85871000D02*
G01*
X80499000Y-85871000D01*
X80499000Y-81769000D01*
X84601000Y-81769000D01*
X84601000Y-85871000D01*
G37*
G36*
X112541000Y-85871000D02*
G01*
X108439000Y-85871000D01*
X108439000Y-81769000D01*
X112541000Y-81769000D01*
X112541000Y-85871000D01*
G37*
G36*
X64516000Y-85471000D02*
G01*
X61214000Y-85471000D01*
X61214000Y-82169000D01*
X64516000Y-82169000D01*
X64516000Y-85471000D01*
G37*
G36*
X57531000Y-85471000D02*
G01*
X54229000Y-85471000D01*
X54229000Y-82169000D01*
X57531000Y-82169000D01*
X57531000Y-85471000D01*
G37*
G36*
X49911000Y-85471000D02*
G01*
X46609000Y-85471000D01*
X46609000Y-82169000D01*
X49911000Y-82169000D01*
X49911000Y-85471000D01*
G37*
G36*
X42291000Y-85471000D02*
G01*
X38989000Y-85471000D01*
X38989000Y-82169000D01*
X42291000Y-82169000D01*
X42291000Y-85471000D01*
G37*
G36*
X233611000Y-82831000D02*
G01*
X223509000Y-82831000D01*
X223509000Y-79729000D01*
X233611000Y-79729000D01*
X233611000Y-82831000D01*
G37*
G36*
X175951000Y-80151000D02*
G01*
X173249000Y-80151000D01*
X173249000Y-77449000D01*
X175951000Y-77449000D01*
X175951000Y-80151000D01*
G37*
G36*
X83148254Y-71847818D02*
G01*
X83521511Y-72002426D01*
X83521513Y-72002427D01*
X83857436Y-72226884D01*
X84143116Y-72512564D01*
X84287448Y-72728571D01*
X84367574Y-72848489D01*
X84522182Y-73221746D01*
X84601000Y-73617993D01*
X84601000Y-74022007D01*
X84522182Y-74418254D01*
X84367574Y-74791511D01*
X84367573Y-74791513D01*
X84143116Y-75127436D01*
X83857436Y-75413116D01*
X83521513Y-75637573D01*
X83521512Y-75637574D01*
X83521511Y-75637574D01*
X83148254Y-75792182D01*
X82752007Y-75871000D01*
X82347993Y-75871000D01*
X81951746Y-75792182D01*
X81578489Y-75637574D01*
X81578488Y-75637574D01*
X81578487Y-75637573D01*
X81242564Y-75413116D01*
X80956884Y-75127436D01*
X80732427Y-74791513D01*
X80732426Y-74791511D01*
X80577818Y-74418254D01*
X80499000Y-74022007D01*
X80499000Y-73617993D01*
X80577818Y-73221746D01*
X80732426Y-72848489D01*
X80812553Y-72728571D01*
X80956884Y-72512564D01*
X81242564Y-72226884D01*
X81578487Y-72002427D01*
X81578489Y-72002426D01*
X81951746Y-71847818D01*
X82347993Y-71769000D01*
X82752007Y-71769000D01*
X83148254Y-71847818D01*
G37*
G36*
X111088254Y-71847818D02*
G01*
X111461511Y-72002426D01*
X111461513Y-72002427D01*
X111797436Y-72226884D01*
X112083116Y-72512564D01*
X112227448Y-72728571D01*
X112307574Y-72848489D01*
X112462182Y-73221746D01*
X112541000Y-73617993D01*
X112541000Y-74022007D01*
X112462182Y-74418254D01*
X112307574Y-74791511D01*
X112307573Y-74791513D01*
X112083116Y-75127436D01*
X111797436Y-75413116D01*
X111461513Y-75637573D01*
X111461512Y-75637574D01*
X111461511Y-75637574D01*
X111088254Y-75792182D01*
X110692007Y-75871000D01*
X110287993Y-75871000D01*
X109891746Y-75792182D01*
X109518489Y-75637574D01*
X109518488Y-75637574D01*
X109518487Y-75637573D01*
X109182564Y-75413116D01*
X108896884Y-75127436D01*
X108672427Y-74791513D01*
X108672426Y-74791511D01*
X108517818Y-74418254D01*
X108439000Y-74022007D01*
X108439000Y-73617993D01*
X108517818Y-73221746D01*
X108672426Y-72848489D01*
X108752553Y-72728571D01*
X108896884Y-72512564D01*
X109182564Y-72226884D01*
X109518487Y-72002427D01*
X109518489Y-72002426D01*
X109891746Y-71847818D01*
X110287993Y-71769000D01*
X110692007Y-71769000D01*
X111088254Y-71847818D01*
G37*
G36*
X213724903Y-70933075D02*
G01*
X213952571Y-71027378D01*
X214157466Y-71164285D01*
X214331715Y-71338534D01*
X214468622Y-71543429D01*
X214562925Y-71771097D01*
X214611000Y-72012787D01*
X214611000Y-72259213D01*
X214562925Y-72500903D01*
X214468622Y-72728571D01*
X214331715Y-72933466D01*
X214157466Y-73107715D01*
X213952571Y-73244622D01*
X213952570Y-73244623D01*
X213952569Y-73244623D01*
X213724903Y-73338925D01*
X213483214Y-73387000D01*
X213236786Y-73387000D01*
X212995097Y-73338925D01*
X212767431Y-73244623D01*
X212767430Y-73244623D01*
X212767429Y-73244622D01*
X212562534Y-73107715D01*
X212388285Y-72933466D01*
X212251378Y-72728571D01*
X212157075Y-72500903D01*
X212109000Y-72259213D01*
X212109000Y-72012787D01*
X212157075Y-71771097D01*
X212251378Y-71543429D01*
X212388285Y-71338534D01*
X212562534Y-71164285D01*
X212767429Y-71027378D01*
X212995097Y-70933075D01*
X213236786Y-70885000D01*
X213483214Y-70885000D01*
X213724903Y-70933075D01*
G37*
G36*
X233611000Y-72671000D02*
G01*
X223509000Y-72671000D01*
X223509000Y-69569000D01*
X233611000Y-69569000D01*
X233611000Y-72671000D01*
G37*
G36*
X137687000Y-67583000D02*
G01*
X133585000Y-67583000D01*
X133585000Y-63481000D01*
X137687000Y-63481000D01*
X137687000Y-67583000D01*
G37*
G36*
X36108156Y-47742794D02*
G01*
X36829140Y-47886206D01*
X37620972Y-48214193D01*
X38333601Y-48690357D01*
X38939643Y-49296399D01*
X39415807Y-50009028D01*
X39743794Y-50800860D01*
X39911000Y-51641464D01*
X39911000Y-52498536D01*
X39743794Y-53339140D01*
X39415807Y-54130972D01*
X38939643Y-54843601D01*
X38333601Y-55449643D01*
X37620972Y-55925807D01*
X36829140Y-56253794D01*
X36108156Y-56397206D01*
X35988537Y-56421000D01*
X35131463Y-56421000D01*
X35011844Y-56397206D01*
X34290860Y-56253794D01*
X33499028Y-55925807D01*
X32786399Y-55449643D01*
X32180357Y-54843601D01*
X31704193Y-54130972D01*
X31376206Y-53339140D01*
X31209000Y-52498536D01*
X31209000Y-51641464D01*
X31376206Y-50800860D01*
X31704193Y-50009028D01*
X32180357Y-49296399D01*
X32786399Y-48690357D01*
X33499028Y-48214193D01*
X34290860Y-47886206D01*
X35011844Y-47742794D01*
X35131463Y-47719000D01*
X35988537Y-47719000D01*
X36108156Y-47742794D01*
G37*
G36*
X232196156Y-47488794D02*
G01*
X232917140Y-47632206D01*
X233708972Y-47960193D01*
X234421601Y-48436357D01*
X235027643Y-49042399D01*
X235503807Y-49755028D01*
X235831794Y-50546860D01*
X235999000Y-51387464D01*
X235999000Y-52244536D01*
X235831794Y-53085140D01*
X235503807Y-53876972D01*
X235027643Y-54589601D01*
X234421601Y-55195643D01*
X233708972Y-55671807D01*
X232917140Y-55999794D01*
X232196156Y-56143206D01*
X232076537Y-56167000D01*
X231219463Y-56167000D01*
X231099844Y-56143206D01*
X230378860Y-55999794D01*
X229587028Y-55671807D01*
X228874399Y-55195643D01*
X228268357Y-54589601D01*
X227792193Y-53876972D01*
X227464206Y-53085140D01*
X227297000Y-52244536D01*
X227297000Y-51387464D01*
X227464206Y-50546860D01*
X227792193Y-49755028D01*
X228268357Y-49042399D01*
X228874399Y-48436357D01*
X229587028Y-47960193D01*
X230378860Y-47632206D01*
X231099844Y-47488794D01*
X231219463Y-47465000D01*
X232076537Y-47465000D01*
X232196156Y-47488794D01*
G37*
M02*
