G04 #@! TF.GenerationSoftware,KiCad,Pcbnew,(5.1.6-0)*
G04 #@! TF.CreationDate,2021-07-15T11:48:56+10:00*
G04 #@! TF.ProjectId,EDUC-8 PSU,45445543-2d38-4205-9053-552e6b696361,rev?*
G04 #@! TF.SameCoordinates,Original*
G04 #@! TF.FileFunction,Copper,L1,Top*
G04 #@! TF.FilePolarity,Positive*
%FSLAX46Y46*%
G04 Gerber Fmt 4.6, Leading zero omitted, Abs format (unit mm)*
G04 Created by KiCad (PCBNEW (5.1.6-0)) date 2021-07-15 11:48:56*
%MOMM*%
%LPD*%
G01*
G04 APERTURE LIST*
G04 #@! TA.AperFunction,ComponentPad*
%ADD10O,3.200000X3.200000*%
G04 #@! TD*
G04 #@! TA.AperFunction,ComponentPad*
%ADD11R,3.200000X3.200000*%
G04 #@! TD*
G04 #@! TA.AperFunction,ComponentPad*
%ADD12O,2.200000X2.200000*%
G04 #@! TD*
G04 #@! TA.AperFunction,ComponentPad*
%ADD13R,2.200000X2.200000*%
G04 #@! TD*
G04 #@! TA.AperFunction,ComponentPad*
%ADD14R,3.000000X5.000000*%
G04 #@! TD*
G04 #@! TA.AperFunction,ComponentPad*
%ADD15R,5.000000X3.000000*%
G04 #@! TD*
G04 #@! TA.AperFunction,ComponentPad*
%ADD16C,0.900000*%
G04 #@! TD*
G04 #@! TA.AperFunction,ComponentPad*
%ADD17C,8.600000*%
G04 #@! TD*
G04 #@! TA.AperFunction,ComponentPad*
%ADD18C,6.350000*%
G04 #@! TD*
G04 #@! TA.AperFunction,ComponentPad*
%ADD19C,2.600000*%
G04 #@! TD*
G04 #@! TA.AperFunction,ComponentPad*
%ADD20R,2.600000X2.600000*%
G04 #@! TD*
G04 #@! TA.AperFunction,ComponentPad*
%ADD21O,1.200000X1.200000*%
G04 #@! TD*
G04 #@! TA.AperFunction,ComponentPad*
%ADD22O,1.600000X1.200000*%
G04 #@! TD*
G04 #@! TA.AperFunction,ComponentPad*
%ADD23C,4.000000*%
G04 #@! TD*
G04 #@! TA.AperFunction,ComponentPad*
%ADD24R,4.000000X4.000000*%
G04 #@! TD*
G04 #@! TA.AperFunction,ComponentPad*
%ADD25C,1.600000*%
G04 #@! TD*
G04 #@! TA.AperFunction,ComponentPad*
%ADD26C,2.400000*%
G04 #@! TD*
G04 #@! TA.AperFunction,ComponentPad*
%ADD27R,2.400000X2.400000*%
G04 #@! TD*
G04 #@! TA.AperFunction,ComponentPad*
%ADD28O,1.200000X1.600000*%
G04 #@! TD*
G04 #@! TA.AperFunction,ComponentPad*
%ADD29O,2.400000X2.400000*%
G04 #@! TD*
G04 APERTURE END LIST*
D10*
X40640000Y-121920000D03*
D11*
X40640000Y-106680000D03*
D10*
X62865000Y-121920000D03*
D11*
X62865000Y-106680000D03*
D10*
X40640000Y-99060000D03*
D11*
X40640000Y-83820000D03*
D10*
X62865000Y-99060000D03*
D11*
X62865000Y-83820000D03*
D12*
X69215000Y-130175000D03*
D13*
X79375000Y-130175000D03*
D14*
X33020000Y-100410000D03*
X33020000Y-105410000D03*
D15*
X39290000Y-134620000D03*
X34290000Y-134620000D03*
X231060000Y-71120000D03*
X226060000Y-71120000D03*
X231060000Y-91440000D03*
X226060000Y-91440000D03*
X231060000Y-81280000D03*
X226060000Y-81280000D03*
X231060000Y-132080000D03*
X226060000Y-132080000D03*
X231060000Y-121920000D03*
X226060000Y-121920000D03*
X231060000Y-111760000D03*
X226060000Y-111760000D03*
D16*
X233928419Y-154183581D03*
X231648000Y-153239000D03*
X229367581Y-154183581D03*
X228423000Y-156464000D03*
X229367581Y-158744419D03*
X231648000Y-159689000D03*
X233928419Y-158744419D03*
X234873000Y-156464000D03*
D17*
X231648000Y-156464000D03*
D16*
X233928419Y-49535581D03*
X231648000Y-48591000D03*
X229367581Y-49535581D03*
X228423000Y-51816000D03*
X229367581Y-54096419D03*
X231648000Y-55041000D03*
X233928419Y-54096419D03*
X234873000Y-51816000D03*
D17*
X231648000Y-51816000D03*
D16*
X37840419Y-49789581D03*
X35560000Y-48845000D03*
X33279581Y-49789581D03*
X32335000Y-52070000D03*
X33279581Y-54350419D03*
X35560000Y-55295000D03*
X37840419Y-54350419D03*
X38785000Y-52070000D03*
D17*
X35560000Y-52070000D03*
D16*
X37205419Y-153929581D03*
X34925000Y-152985000D03*
X32644581Y-153929581D03*
X31700000Y-156210000D03*
X32644581Y-158490419D03*
X34925000Y-159435000D03*
X37205419Y-158490419D03*
X38150000Y-156210000D03*
D17*
X34925000Y-156210000D03*
D18*
X191500000Y-130250000D03*
X161300000Y-130250000D03*
D19*
X174600000Y-135720000D03*
D20*
X174600000Y-124800000D03*
D18*
X191500000Y-84250000D03*
X161300000Y-84250000D03*
D19*
X174600000Y-89720000D03*
D20*
X174600000Y-78800000D03*
D21*
X100965000Y-134620000D03*
X99695000Y-135890000D03*
D22*
X98425000Y-134620000D03*
D23*
X110490000Y-101760000D03*
D24*
X110490000Y-111760000D03*
D23*
X82550000Y-101760000D03*
D24*
X82550000Y-111760000D03*
D23*
X82550000Y-73820000D03*
D24*
X82550000Y-83820000D03*
D23*
X110490000Y-73820000D03*
D24*
X110490000Y-83820000D03*
D25*
X125730000Y-123905000D03*
X125730000Y-128905000D03*
X128900000Y-100400000D03*
X128900000Y-95400000D03*
X115015000Y-152400000D03*
X120015000Y-152400000D03*
D26*
X55245000Y-141685000D03*
D27*
X55245000Y-146685000D03*
D10*
X55880000Y-99060000D03*
D11*
X55880000Y-83820000D03*
D10*
X48260000Y-99060000D03*
D11*
X48260000Y-83820000D03*
D10*
X55880000Y-121920000D03*
D11*
X55880000Y-106680000D03*
D10*
X48260000Y-121920000D03*
D11*
X48260000Y-106680000D03*
D24*
X130810000Y-155575000D03*
X135636000Y-65532000D03*
D21*
X120015000Y-144145000D03*
X117475000Y-141605000D03*
D28*
X120015000Y-139065000D03*
D21*
X100965000Y-146685000D03*
X99695000Y-145415000D03*
D28*
X100965000Y-144145000D03*
D29*
X133350000Y-139065000D03*
D26*
X133350000Y-123825000D03*
D29*
X128905000Y-119380000D03*
D26*
X128905000Y-104140000D03*
D29*
X213360000Y-116840000D03*
D26*
X213360000Y-147320000D03*
D29*
X213360000Y-72136000D03*
D26*
X213360000Y-102616000D03*
D29*
X69215000Y-151130000D03*
D26*
X84455000Y-151130000D03*
D29*
X84455000Y-146050000D03*
D26*
X69215000Y-146050000D03*
D29*
X69215000Y-140970000D03*
D26*
X84455000Y-140970000D03*
D29*
X100965000Y-125095000D03*
D26*
X116205000Y-125095000D03*
D29*
X69215000Y-135890000D03*
D26*
X84455000Y-135890000D03*
D29*
X69215000Y-125095000D03*
D26*
X84455000Y-125095000D03*
M02*
