  0
SECTION
  2
HEADER
  9
$ANGBASE
  50
0.0
  9
$ANGDIR
  70
1
  9
$MEASUREMENT
  70
0
  0
ENDSEC
  0
SECTION
  2
TABLES
  0
TABLE
  2
LTYPE
  70
4
  0
LTYPE
  5
40F
  2
CONTINUOUS
  70
0
  3
Solid line
  72
65
  73
0
  40
0.0
  0
LTYPE
  5
410
  2
DASHDOT
 70
0
  3
Dash Dot ____ _ ____ _
 72
65
 73
4
 40
2.0
 49
1.25
 49
-0.25
 49
0.25
 49
-0.25
  0
LTYPE
  5
411
  2
DASHED
 70
0
  3
Dashed __ __ __ __ __
 72
65
 73
2
 40
0.75
 49
0.5
 49
-0.25
  0
LTYPE
  5
43B
  2
DOTTED
 70
0
  3
Dotted .  .  .  .
 72
65
 73
2
 40
0.2
 49
0.0
 49
-0.2
  0
ENDTAB
  0
TABLE
  2
STYLE
  70
4
  0
STYLE
  2
KICAD
  70
0
  40
0
  41
1
  42
1
  50
0
  71
0
  3
isocp.shx
  0
STYLE
  2
KICADB
  70
0
  40
0
  41
1
  42
1
  50
0
  71
0
  3
isocp.shx
  0
STYLE
  2
KICADI
  70
0
  40
0
  41
1
  42
1
  50
15
  71
0
  3
isocp.shx
  0
STYLE
  2
KICADBI
  70
0
  40
0
  41
1
  42
1
  50
15
  71
0
  3
isocp.shx
  0
ENDTAB
  0
TABLE
  2
LAYER
  70
1
  0
LAYER
  2
BLACK
  70
0
  62
7
  6
CONTINUOUS
  0
ENDTAB
  0
ENDSEC
  0
SECTION
  2
ENTITIES
0
LINE
8
BLACK
6
CONTINUOUS
10
7.6378
20
-4.13386
11
3.74016
21
-4.13386
0
LINE
8
BLACK
6
CONTINUOUS
10
3.74016
20
-4.13386
11
3.74016
21
-5.19685
0
LINE
8
BLACK
6
CONTINUOUS
10
7.6378
20
-5.19685
11
7.6378
21
-4.13386
0
LINE
8
BLACK
6
CONTINUOUS
10
3.74016
20
-5.19685
11
7.6378
21
-5.19685
0
LINE
8
BLACK
6
CONTINUOUS
10
3.92087
20
-4.35866
11
4.05866
21
-4.49646
0
LINE
8
BLACK
6
CONTINUOUS
10
4.05866
20
-4.35866
11
3.92087
21
-4.49646
0
LINE
8
BLACK
6
CONTINUOUS
10
5.10197
20
-4.35866
11
5.23976
21
-4.49646
0
LINE
8
BLACK
6
CONTINUOUS
10
5.23976
20
-4.35866
11
5.10197
21
-4.49646
0
LINE
8
BLACK
6
CONTINUOUS
10
3.85194
20
-5.38119
11
3.85194
21
-5.26308
0
LINE
8
BLACK
6
CONTINUOUS
10
3.85194
20
-5.26308
11
3.88006
21
-5.26308
0
LINE
8
BLACK
6
CONTINUOUS
10
3.88006
20
-5.26308
11
3.89693
21
-5.2687
0
LINE
8
BLACK
6
CONTINUOUS
10
3.89693
20
-5.2687
11
3.90818
21
-5.27995
0
LINE
8
BLACK
6
CONTINUOUS
10
3.90818
20
-5.27995
11
3.91381
21
-5.2912
0
LINE
8
BLACK
6
CONTINUOUS
10
3.91381
20
-5.2912
11
3.91943
21
-5.3137
0
LINE
8
BLACK
6
CONTINUOUS
10
3.91943
20
-5.3137
11
3.91943
21
-5.33057
0
LINE
8
BLACK
6
CONTINUOUS
10
3.91943
20
-5.33057
11
3.91381
21
-5.35307
0
LINE
8
BLACK
6
CONTINUOUS
10
3.91381
20
-5.35307
11
3.90818
21
-5.36431
0
LINE
8
BLACK
6
CONTINUOUS
10
3.90818
20
-5.36431
11
3.89693
21
-5.37556
0
LINE
8
BLACK
6
CONTINUOUS
10
3.89693
20
-5.37556
11
3.88006
21
-5.38119
0
LINE
8
BLACK
6
CONTINUOUS
10
3.88006
20
-5.38119
11
3.85194
21
-5.38119
0
LINE
8
BLACK
6
CONTINUOUS
10
3.97005
20
-5.38119
11
3.97005
21
-5.30245
0
LINE
8
BLACK
6
CONTINUOUS
10
3.97005
20
-5.32494
11
3.97567
21
-5.3137
0
LINE
8
BLACK
6
CONTINUOUS
10
3.97567
20
-5.3137
11
3.9813
21
-5.30807
0
LINE
8
BLACK
6
CONTINUOUS
10
3.9813
20
-5.30807
11
3.99255
21
-5.30245
0
LINE
8
BLACK
6
CONTINUOUS
10
3.99255
20
-5.30245
11
4.0038
21
-5.30245
0
LINE
8
BLACK
6
CONTINUOUS
10
4.04317
20
-5.38119
11
4.04317
21
-5.30245
0
LINE
8
BLACK
6
CONTINUOUS
10
4.04317
20
-5.26308
11
4.03754
21
-5.2687
0
LINE
8
BLACK
6
CONTINUOUS
10
4.03754
20
-5.2687
11
4.04317
21
-5.27433
0
LINE
8
BLACK
6
CONTINUOUS
10
4.04317
20
-5.27433
11
4.04879
21
-5.2687
0
LINE
8
BLACK
6
CONTINUOUS
10
4.04879
20
-5.2687
11
4.04317
21
-5.26308
0
LINE
8
BLACK
6
CONTINUOUS
10
4.04317
20
-5.26308
11
4.04317
21
-5.27433
0
LINE
8
BLACK
6
CONTINUOUS
10
4.11628
20
-5.38119
11
4.10503
21
-5.37556
0
LINE
8
BLACK
6
CONTINUOUS
10
4.10503
20
-5.37556
11
4.09941
21
-5.36431
0
LINE
8
BLACK
6
CONTINUOUS
10
4.09941
20
-5.36431
11
4.09941
21
-5.26308
0
LINE
8
BLACK
6
CONTINUOUS
10
4.17815
20
-5.38119
11
4.1669
21
-5.37556
0
LINE
8
BLACK
6
CONTINUOUS
10
4.1669
20
-5.37556
11
4.16128
21
-5.36431
0
LINE
8
BLACK
6
CONTINUOUS
10
4.16128
20
-5.36431
11
4.16128
21
-5.26308
0
LINE
8
BLACK
6
CONTINUOUS
10
4.31313
20
-5.38119
11
4.31313
21
-5.26308
0
LINE
8
BLACK
6
CONTINUOUS
10
4.31313
20
-5.26308
11
4.3525
21
-5.34744
0
LINE
8
BLACK
6
CONTINUOUS
10
4.3525
20
-5.34744
11
4.39187
21
-5.26308
0
LINE
8
BLACK
6
CONTINUOUS
10
4.39187
20
-5.26308
11
4.39187
21
-5.38119
0
LINE
8
BLACK
6
CONTINUOUS
10
4.49873
20
-5.38119
11
4.49873
21
-5.31932
0
LINE
8
BLACK
6
CONTINUOUS
10
4.49873
20
-5.31932
11
4.49311
21
-5.30807
0
LINE
8
BLACK
6
CONTINUOUS
10
4.49311
20
-5.30807
11
4.48186
21
-5.30245
0
LINE
8
BLACK
6
CONTINUOUS
10
4.48186
20
-5.30245
11
4.45936
21
-5.30245
0
LINE
8
BLACK
6
CONTINUOUS
10
4.45936
20
-5.30245
11
4.44812
21
-5.30807
0
LINE
8
BLACK
6
CONTINUOUS
10
4.49873
20
-5.37556
11
4.48749
21
-5.38119
0
LINE
8
BLACK
6
CONTINUOUS
10
4.48749
20
-5.38119
11
4.45936
21
-5.38119
0
LINE
8
BLACK
6
CONTINUOUS
10
4.45936
20
-5.38119
11
4.44812
21
-5.37556
0
LINE
8
BLACK
6
CONTINUOUS
10
4.44812
20
-5.37556
11
4.44249
21
-5.36431
0
LINE
8
BLACK
6
CONTINUOUS
10
4.44249
20
-5.36431
11
4.44249
21
-5.35307
0
LINE
8
BLACK
6
CONTINUOUS
10
4.44249
20
-5.35307
11
4.44812
21
-5.34182
0
LINE
8
BLACK
6
CONTINUOUS
10
4.44812
20
-5.34182
11
4.45936
21
-5.33619
0
LINE
8
BLACK
6
CONTINUOUS
10
4.45936
20
-5.33619
11
4.48749
21
-5.33619
0
LINE
8
BLACK
6
CONTINUOUS
10
4.48749
20
-5.33619
11
4.49873
21
-5.33057
0
LINE
8
BLACK
6
CONTINUOUS
10
4.55498
20
-5.30245
11
4.55498
21
-5.42056
0
LINE
8
BLACK
6
CONTINUOUS
10
4.55498
20
-5.30807
11
4.56623
21
-5.30245
0
LINE
8
BLACK
6
CONTINUOUS
10
4.56623
20
-5.30245
11
4.58872
21
-5.30245
0
LINE
8
BLACK
6
CONTINUOUS
10
4.58872
20
-5.30245
11
4.59997
21
-5.30807
0
LINE
8
BLACK
6
CONTINUOUS
10
4.59997
20
-5.30807
11
4.6056
21
-5.3137
0
LINE
8
BLACK
6
CONTINUOUS
10
4.6056
20
-5.3137
11
4.61122
21
-5.32494
0
LINE
8
BLACK
6
CONTINUOUS
10
4.61122
20
-5.32494
11
4.61122
21
-5.35869
0
LINE
8
BLACK
6
CONTINUOUS
10
4.61122
20
-5.35869
11
4.6056
21
-5.36994
0
LINE
8
BLACK
6
CONTINUOUS
10
4.6056
20
-5.36994
11
4.59997
21
-5.37556
0
LINE
8
BLACK
6
CONTINUOUS
10
4.59997
20
-5.37556
11
4.58872
21
-5.38119
0
LINE
8
BLACK
6
CONTINUOUS
10
4.58872
20
-5.38119
11
4.56623
21
-5.38119
0
LINE
8
BLACK
6
CONTINUOUS
10
4.56623
20
-5.38119
11
4.55498
21
-5.37556
0
LINE
8
BLACK
6
CONTINUOUS
10
4.66184
20
-5.36994
11
4.66746
21
-5.37556
0
LINE
8
BLACK
6
CONTINUOUS
10
4.66746
20
-5.37556
11
4.66184
21
-5.38119
0
LINE
8
BLACK
6
CONTINUOUS
10
4.66184
20
-5.38119
11
4.65621
21
-5.37556
0
LINE
8
BLACK
6
CONTINUOUS
10
4.65621
20
-5.37556
11
4.66184
21
-5.36994
0
LINE
8
BLACK
6
CONTINUOUS
10
4.66184
20
-5.36994
11
4.66184
21
-5.38119
0
LINE
8
BLACK
6
CONTINUOUS
10
4.66184
20
-5.30807
11
4.66746
21
-5.3137
0
LINE
8
BLACK
6
CONTINUOUS
10
4.66746
20
-5.3137
11
4.66184
21
-5.31932
0
LINE
8
BLACK
6
CONTINUOUS
10
4.66184
20
-5.31932
11
4.65621
21
-5.3137
0
LINE
8
BLACK
6
CONTINUOUS
10
4.65621
20
-5.3137
11
4.66184
21
-5.30807
0
LINE
8
BLACK
6
CONTINUOUS
10
4.66184
20
-5.30807
11
4.66184
21
-5.31932
0
LINE
8
BLACK
6
CONTINUOUS
10
3.60138
20
-5.50689
11
3.73917
21
-5.64469
0
LINE
8
BLACK
6
CONTINUOUS
10
3.73917
20
-5.50689
11
3.60138
21
-5.64469
0
LINE
8
BLACK
6
CONTINUOUS
10
3.84069
20
-5.51111
11
3.91381
21
-5.51111
0
LINE
8
BLACK
6
CONTINUOUS
10
3.91381
20
-5.51111
11
3.87444
21
-5.5561
0
LINE
8
BLACK
6
CONTINUOUS
10
3.87444
20
-5.5561
11
3.89131
21
-5.5561
0
LINE
8
BLACK
6
CONTINUOUS
10
3.89131
20
-5.5561
11
3.90256
21
-5.56173
0
LINE
8
BLACK
6
CONTINUOUS
10
3.90256
20
-5.56173
11
3.90818
21
-5.56735
0
LINE
8
BLACK
6
CONTINUOUS
10
3.90818
20
-5.56735
11
3.91381
21
-5.5786
0
LINE
8
BLACK
6
CONTINUOUS
10
3.91381
20
-5.5786
11
3.91381
21
-5.60672
0
LINE
8
BLACK
6
CONTINUOUS
10
3.91381
20
-5.60672
11
3.90818
21
-5.61797
0
LINE
8
BLACK
6
CONTINUOUS
10
3.90818
20
-5.61797
11
3.90256
21
-5.62359
0
LINE
8
BLACK
6
CONTINUOUS
10
3.90256
20
-5.62359
11
3.89131
21
-5.62922
0
LINE
8
BLACK
6
CONTINUOUS
10
3.89131
20
-5.62922
11
3.85756
21
-5.62922
0
LINE
8
BLACK
6
CONTINUOUS
10
3.85756
20
-5.62922
11
3.84632
21
-5.62359
0
LINE
8
BLACK
6
CONTINUOUS
10
3.84632
20
-5.62359
11
3.84069
21
-5.61797
0
LINE
8
BLACK
6
CONTINUOUS
10
3.96443
20
-5.61797
11
3.97005
21
-5.62359
0
LINE
8
BLACK
6
CONTINUOUS
10
3.97005
20
-5.62359
11
3.96443
21
-5.62922
0
LINE
8
BLACK
6
CONTINUOUS
10
3.96443
20
-5.62922
11
3.9588
21
-5.62359
0
LINE
8
BLACK
6
CONTINUOUS
10
3.9588
20
-5.62359
11
3.96443
21
-5.61797
0
LINE
8
BLACK
6
CONTINUOUS
10
3.96443
20
-5.61797
11
3.96443
21
-5.62922
0
LINE
8
BLACK
6
CONTINUOUS
10
4.07691
20
-5.51111
11
4.02067
21
-5.51111
0
LINE
8
BLACK
6
CONTINUOUS
10
4.02067
20
-5.51111
11
4.01504
21
-5.56735
0
LINE
8
BLACK
6
CONTINUOUS
10
4.01504
20
-5.56735
11
4.02067
21
-5.56173
0
LINE
8
BLACK
6
CONTINUOUS
10
4.02067
20
-5.56173
11
4.03192
21
-5.5561
0
LINE
8
BLACK
6
CONTINUOUS
10
4.03192
20
-5.5561
11
4.06004
21
-5.5561
0
LINE
8
BLACK
6
CONTINUOUS
10
4.06004
20
-5.5561
11
4.07129
21
-5.56173
0
LINE
8
BLACK
6
CONTINUOUS
10
4.07129
20
-5.56173
11
4.07691
21
-5.56735
0
LINE
8
BLACK
6
CONTINUOUS
10
4.07691
20
-5.56735
11
4.08254
21
-5.5786
0
LINE
8
BLACK
6
CONTINUOUS
10
4.08254
20
-5.5786
11
4.08254
21
-5.60672
0
LINE
8
BLACK
6
CONTINUOUS
10
4.08254
20
-5.60672
11
4.07691
21
-5.61797
0
LINE
8
BLACK
6
CONTINUOUS
10
4.07691
20
-5.61797
11
4.07129
21
-5.62359
0
LINE
8
BLACK
6
CONTINUOUS
10
4.07129
20
-5.62359
11
4.06004
21
-5.62922
0
LINE
8
BLACK
6
CONTINUOUS
10
4.06004
20
-5.62922
11
4.03192
21
-5.62922
0
LINE
8
BLACK
6
CONTINUOUS
10
4.03192
20
-5.62922
11
4.02067
21
-5.62359
0
LINE
8
BLACK
6
CONTINUOUS
10
4.02067
20
-5.62359
11
4.01504
21
-5.61797
0
LINE
8
BLACK
6
CONTINUOUS
10
4.15565
20
-5.51111
11
4.1669
21
-5.51111
0
LINE
8
BLACK
6
CONTINUOUS
10
4.1669
20
-5.51111
11
4.17815
21
-5.51673
0
LINE
8
BLACK
6
CONTINUOUS
10
4.17815
20
-5.51673
11
4.18377
21
-5.52236
0
LINE
8
BLACK
6
CONTINUOUS
10
4.18377
20
-5.52236
11
4.1894
21
-5.53361
0
LINE
8
BLACK
6
CONTINUOUS
10
4.1894
20
-5.53361
11
4.19502
21
-5.5561
0
LINE
8
BLACK
6
CONTINUOUS
10
4.19502
20
-5.5561
11
4.19502
21
-5.58422
0
LINE
8
BLACK
6
CONTINUOUS
10
4.19502
20
-5.58422
11
4.1894
21
-5.60672
0
LINE
8
BLACK
6
CONTINUOUS
10
4.1894
20
-5.60672
11
4.18377
21
-5.61797
0
LINE
8
BLACK
6
CONTINUOUS
10
4.18377
20
-5.61797
11
4.17815
21
-5.62359
0
LINE
8
BLACK
6
CONTINUOUS
10
4.17815
20
-5.62359
11
4.1669
21
-5.62922
0
LINE
8
BLACK
6
CONTINUOUS
10
4.1669
20
-5.62922
11
4.15565
21
-5.62922
0
LINE
8
BLACK
6
CONTINUOUS
10
4.15565
20
-5.62922
11
4.1444
21
-5.62359
0
LINE
8
BLACK
6
CONTINUOUS
10
4.1444
20
-5.62359
11
4.13878
21
-5.61797
0
LINE
8
BLACK
6
CONTINUOUS
10
4.13878
20
-5.61797
11
4.13316
21
-5.60672
0
LINE
8
BLACK
6
CONTINUOUS
10
4.13316
20
-5.60672
11
4.12753
21
-5.58422
0
LINE
8
BLACK
6
CONTINUOUS
10
4.12753
20
-5.58422
11
4.12753
21
-5.5561
0
LINE
8
BLACK
6
CONTINUOUS
10
4.12753
20
-5.5561
11
4.13316
21
-5.53361
0
LINE
8
BLACK
6
CONTINUOUS
10
4.13316
20
-5.53361
11
4.13878
21
-5.52236
0
LINE
8
BLACK
6
CONTINUOUS
10
4.13878
20
-5.52236
11
4.1444
21
-5.51673
0
LINE
8
BLACK
6
CONTINUOUS
10
4.1444
20
-5.51673
11
4.15565
21
-5.51111
0
LINE
8
BLACK
6
CONTINUOUS
10
4.26814
20
-5.51111
11
4.27939
21
-5.51111
0
LINE
8
BLACK
6
CONTINUOUS
10
4.27939
20
-5.51111
11
4.29064
21
-5.51673
0
LINE
8
BLACK
6
CONTINUOUS
10
4.29064
20
-5.51673
11
4.29626
21
-5.52236
0
LINE
8
BLACK
6
CONTINUOUS
10
4.29626
20
-5.52236
11
4.30188
21
-5.53361
0
LINE
8
BLACK
6
CONTINUOUS
10
4.30188
20
-5.53361
11
4.30751
21
-5.5561
0
LINE
8
BLACK
6
CONTINUOUS
10
4.30751
20
-5.5561
11
4.30751
21
-5.58422
0
LINE
8
BLACK
6
CONTINUOUS
10
4.30751
20
-5.58422
11
4.30188
21
-5.60672
0
LINE
8
BLACK
6
CONTINUOUS
10
4.30188
20
-5.60672
11
4.29626
21
-5.61797
0
LINE
8
BLACK
6
CONTINUOUS
10
4.29626
20
-5.61797
11
4.29064
21
-5.62359
0
LINE
8
BLACK
6
CONTINUOUS
10
4.29064
20
-5.62359
11
4.27939
21
-5.62922
0
LINE
8
BLACK
6
CONTINUOUS
10
4.27939
20
-5.62922
11
4.26814
21
-5.62922
0
LINE
8
BLACK
6
CONTINUOUS
10
4.26814
20
-5.62922
11
4.25689
21
-5.62359
0
LINE
8
BLACK
6
CONTINUOUS
10
4.25689
20
-5.62359
11
4.25127
21
-5.61797
0
LINE
8
BLACK
6
CONTINUOUS
10
4.25127
20
-5.61797
11
4.24564
21
-5.60672
0
LINE
8
BLACK
6
CONTINUOUS
10
4.24564
20
-5.60672
11
4.24002
21
-5.58422
0
LINE
8
BLACK
6
CONTINUOUS
10
4.24002
20
-5.58422
11
4.24002
21
-5.5561
0
LINE
8
BLACK
6
CONTINUOUS
10
4.24002
20
-5.5561
11
4.24564
21
-5.53361
0
LINE
8
BLACK
6
CONTINUOUS
10
4.24564
20
-5.53361
11
4.25127
21
-5.52236
0
LINE
8
BLACK
6
CONTINUOUS
10
4.25127
20
-5.52236
11
4.25689
21
-5.51673
0
LINE
8
BLACK
6
CONTINUOUS
10
4.25689
20
-5.51673
11
4.26814
21
-5.51111
0
LINE
8
BLACK
6
CONTINUOUS
10
4.35813
20
-5.62922
11
4.35813
21
-5.55048
0
LINE
8
BLACK
6
CONTINUOUS
10
4.35813
20
-5.56173
11
4.36375
21
-5.5561
0
LINE
8
BLACK
6
CONTINUOUS
10
4.36375
20
-5.5561
11
4.375
21
-5.55048
0
LINE
8
BLACK
6
CONTINUOUS
10
4.375
20
-5.55048
11
4.39187
21
-5.55048
0
LINE
8
BLACK
6
CONTINUOUS
10
4.39187
20
-5.55048
11
4.40312
21
-5.5561
0
LINE
8
BLACK
6
CONTINUOUS
10
4.40312
20
-5.5561
11
4.40875
21
-5.56735
0
LINE
8
BLACK
6
CONTINUOUS
10
4.40875
20
-5.56735
11
4.40875
21
-5.62922
0
LINE
8
BLACK
6
CONTINUOUS
10
4.40875
20
-5.56735
11
4.41437
21
-5.5561
0
LINE
8
BLACK
6
CONTINUOUS
10
4.41437
20
-5.5561
11
4.42562
21
-5.55048
0
LINE
8
BLACK
6
CONTINUOUS
10
4.42562
20
-5.55048
11
4.44249
21
-5.55048
0
LINE
8
BLACK
6
CONTINUOUS
10
4.44249
20
-5.55048
11
4.45374
21
-5.5561
0
LINE
8
BLACK
6
CONTINUOUS
10
4.45374
20
-5.5561
11
4.45936
21
-5.56735
0
LINE
8
BLACK
6
CONTINUOUS
10
4.45936
20
-5.56735
11
4.45936
21
-5.62922
0
LINE
8
BLACK
6
CONTINUOUS
10
4.51561
20
-5.62922
11
4.51561
21
-5.55048
0
LINE
8
BLACK
6
CONTINUOUS
10
4.51561
20
-5.56173
11
4.52123
21
-5.5561
0
LINE
8
BLACK
6
CONTINUOUS
10
4.52123
20
-5.5561
11
4.53248
21
-5.55048
0
LINE
8
BLACK
6
CONTINUOUS
10
4.53248
20
-5.55048
11
4.54935
21
-5.55048
0
LINE
8
BLACK
6
CONTINUOUS
10
4.54935
20
-5.55048
11
4.5606
21
-5.5561
0
LINE
8
BLACK
6
CONTINUOUS
10
4.5606
20
-5.5561
11
4.56623
21
-5.56735
0
LINE
8
BLACK
6
CONTINUOUS
10
4.56623
20
-5.56735
11
4.56623
21
-5.62922
0
LINE
8
BLACK
6
CONTINUOUS
10
4.56623
20
-5.56735
11
4.57185
21
-5.5561
0
LINE
8
BLACK
6
CONTINUOUS
10
4.57185
20
-5.5561
11
4.5831
21
-5.55048
0
LINE
8
BLACK
6
CONTINUOUS
10
4.5831
20
-5.55048
11
4.59997
21
-5.55048
0
LINE
8
BLACK
6
CONTINUOUS
10
4.59997
20
-5.55048
11
4.61122
21
-5.5561
0
LINE
8
BLACK
6
CONTINUOUS
10
4.61122
20
-5.5561
11
4.61684
21
-5.56735
0
LINE
8
BLACK
6
CONTINUOUS
10
4.61684
20
-5.56735
11
4.61684
21
-5.62922
0
LINE
8
BLACK
6
CONTINUOUS
10
4.84744
20
-5.50548
11
4.7462
21
-5.65734
0
LINE
8
BLACK
6
CONTINUOUS
10
4.9993
20
-5.51111
11
5.01055
21
-5.51111
0
LINE
8
BLACK
6
CONTINUOUS
10
5.01055
20
-5.51111
11
5.02179
21
-5.51673
0
LINE
8
BLACK
6
CONTINUOUS
10
5.02179
20
-5.51673
11
5.02742
21
-5.52236
0
LINE
8
BLACK
6
CONTINUOUS
10
5.02742
20
-5.52236
11
5.03304
21
-5.53361
0
LINE
8
BLACK
6
CONTINUOUS
10
5.03304
20
-5.53361
11
5.03867
21
-5.5561
0
LINE
8
BLACK
6
CONTINUOUS
10
5.03867
20
-5.5561
11
5.03867
21
-5.58422
0
LINE
8
BLACK
6
CONTINUOUS
10
5.03867
20
-5.58422
11
5.03304
21
-5.60672
0
LINE
8
BLACK
6
CONTINUOUS
10
5.03304
20
-5.60672
11
5.02742
21
-5.61797
0
LINE
8
BLACK
6
CONTINUOUS
10
5.02742
20
-5.61797
11
5.02179
21
-5.62359
0
LINE
8
BLACK
6
CONTINUOUS
10
5.02179
20
-5.62359
11
5.01055
21
-5.62922
0
LINE
8
BLACK
6
CONTINUOUS
10
5.01055
20
-5.62922
11
4.9993
21
-5.62922
0
LINE
8
BLACK
6
CONTINUOUS
10
4.9993
20
-5.62922
11
4.98805
21
-5.62359
0
LINE
8
BLACK
6
CONTINUOUS
10
4.98805
20
-5.62359
11
4.98242
21
-5.61797
0
LINE
8
BLACK
6
CONTINUOUS
10
4.98242
20
-5.61797
11
4.9768
21
-5.60672
0
LINE
8
BLACK
6
CONTINUOUS
10
4.9768
20
-5.60672
11
4.97118
21
-5.58422
0
LINE
8
BLACK
6
CONTINUOUS
10
4.97118
20
-5.58422
11
4.97118
21
-5.5561
0
LINE
8
BLACK
6
CONTINUOUS
10
4.97118
20
-5.5561
11
4.9768
21
-5.53361
0
LINE
8
BLACK
6
CONTINUOUS
10
4.9768
20
-5.53361
11
4.98242
21
-5.52236
0
LINE
8
BLACK
6
CONTINUOUS
10
4.98242
20
-5.52236
11
4.98805
21
-5.51673
0
LINE
8
BLACK
6
CONTINUOUS
10
4.98805
20
-5.51673
11
4.9993
21
-5.51111
0
LINE
8
BLACK
6
CONTINUOUS
10
5.08929
20
-5.61797
11
5.09491
21
-5.62359
0
LINE
8
BLACK
6
CONTINUOUS
10
5.09491
20
-5.62359
11
5.08929
21
-5.62922
0
LINE
8
BLACK
6
CONTINUOUS
10
5.08929
20
-5.62922
11
5.08366
21
-5.62359
0
LINE
8
BLACK
6
CONTINUOUS
10
5.08366
20
-5.62359
11
5.08929
21
-5.61797
0
LINE
8
BLACK
6
CONTINUOUS
10
5.08929
20
-5.61797
11
5.08929
21
-5.62922
0
LINE
8
BLACK
6
CONTINUOUS
10
5.2074
20
-5.62922
11
5.1399
21
-5.62922
0
LINE
8
BLACK
6
CONTINUOUS
10
5.17365
20
-5.62922
11
5.17365
21
-5.51111
0
LINE
8
BLACK
6
CONTINUOUS
10
5.17365
20
-5.51111
11
5.1624
21
-5.52798
0
LINE
8
BLACK
6
CONTINUOUS
10
5.1624
20
-5.52798
11
5.15115
21
-5.53923
0
LINE
8
BLACK
6
CONTINUOUS
10
5.15115
20
-5.53923
11
5.1399
21
-5.54485
0
LINE
8
BLACK
6
CONTINUOUS
10
5.24677
20
-5.51111
11
5.31988
21
-5.51111
0
LINE
8
BLACK
6
CONTINUOUS
10
5.31988
20
-5.51111
11
5.28051
21
-5.5561
0
LINE
8
BLACK
6
CONTINUOUS
10
5.28051
20
-5.5561
11
5.29738
21
-5.5561
0
LINE
8
BLACK
6
CONTINUOUS
10
5.29738
20
-5.5561
11
5.30863
21
-5.56173
0
LINE
8
BLACK
6
CONTINUOUS
10
5.30863
20
-5.56173
11
5.31426
21
-5.56735
0
LINE
8
BLACK
6
CONTINUOUS
10
5.31426
20
-5.56735
11
5.31988
21
-5.5786
0
LINE
8
BLACK
6
CONTINUOUS
10
5.31988
20
-5.5786
11
5.31988
21
-5.60672
0
LINE
8
BLACK
6
CONTINUOUS
10
5.31988
20
-5.60672
11
5.31426
21
-5.61797
0
LINE
8
BLACK
6
CONTINUOUS
10
5.31426
20
-5.61797
11
5.30863
21
-5.62359
0
LINE
8
BLACK
6
CONTINUOUS
10
5.30863
20
-5.62359
11
5.29738
21
-5.62922
0
LINE
8
BLACK
6
CONTINUOUS
10
5.29738
20
-5.62922
11
5.26364
21
-5.62922
0
LINE
8
BLACK
6
CONTINUOUS
10
5.26364
20
-5.62922
11
5.25239
21
-5.62359
0
LINE
8
BLACK
6
CONTINUOUS
10
5.25239
20
-5.62359
11
5.24677
21
-5.61797
0
LINE
8
BLACK
6
CONTINUOUS
10
5.35925
20
-5.51111
11
5.43799
21
-5.51111
0
LINE
8
BLACK
6
CONTINUOUS
10
5.43799
20
-5.51111
11
5.38737
21
-5.62922
0
LINE
8
BLACK
6
CONTINUOUS
10
5.49986
20
-5.56173
11
5.48861
21
-5.5561
0
LINE
8
BLACK
6
CONTINUOUS
10
5.48861
20
-5.5561
11
5.48299
21
-5.55048
0
LINE
8
BLACK
6
CONTINUOUS
10
5.48299
20
-5.55048
11
5.47736
21
-5.53923
0
LINE
8
BLACK
6
CONTINUOUS
10
5.47736
20
-5.53923
11
5.47736
21
-5.53361
0
LINE
8
BLACK
6
CONTINUOUS
10
5.47736
20
-5.53361
11
5.48299
21
-5.52236
0
LINE
8
BLACK
6
CONTINUOUS
10
5.48299
20
-5.52236
11
5.48861
21
-5.51673
0
LINE
8
BLACK
6
CONTINUOUS
10
5.48861
20
-5.51673
11
5.49986
21
-5.51111
0
LINE
8
BLACK
6
CONTINUOUS
10
5.49986
20
-5.51111
11
5.52236
21
-5.51111
0
LINE
8
BLACK
6
CONTINUOUS
10
5.52236
20
-5.51111
11
5.53361
21
-5.51673
0
LINE
8
BLACK
6
CONTINUOUS
10
5.53361
20
-5.51673
11
5.53923
21
-5.52236
0
LINE
8
BLACK
6
CONTINUOUS
10
5.53923
20
-5.52236
11
5.54485
21
-5.53361
0
LINE
8
BLACK
6
CONTINUOUS
10
5.54485
20
-5.53361
11
5.54485
21
-5.53923
0
LINE
8
BLACK
6
CONTINUOUS
10
5.54485
20
-5.53923
11
5.53923
21
-5.55048
0
LINE
8
BLACK
6
CONTINUOUS
10
5.53923
20
-5.55048
11
5.53361
21
-5.5561
0
LINE
8
BLACK
6
CONTINUOUS
10
5.53361
20
-5.5561
11
5.52236
21
-5.56173
0
LINE
8
BLACK
6
CONTINUOUS
10
5.52236
20
-5.56173
11
5.49986
21
-5.56173
0
LINE
8
BLACK
6
CONTINUOUS
10
5.49986
20
-5.56173
11
5.48861
21
-5.56735
0
LINE
8
BLACK
6
CONTINUOUS
10
5.48861
20
-5.56735
11
5.48299
21
-5.57298
0
LINE
8
BLACK
6
CONTINUOUS
10
5.48299
20
-5.57298
11
5.47736
21
-5.58422
0
LINE
8
BLACK
6
CONTINUOUS
10
5.47736
20
-5.58422
11
5.47736
21
-5.60672
0
LINE
8
BLACK
6
CONTINUOUS
10
5.47736
20
-5.60672
11
5.48299
21
-5.61797
0
LINE
8
BLACK
6
CONTINUOUS
10
5.48299
20
-5.61797
11
5.48861
21
-5.62359
0
LINE
8
BLACK
6
CONTINUOUS
10
5.48861
20
-5.62359
11
5.49986
21
-5.62922
0
LINE
8
BLACK
6
CONTINUOUS
10
5.49986
20
-5.62922
11
5.52236
21
-5.62922
0
LINE
8
BLACK
6
CONTINUOUS
10
5.52236
20
-5.62922
11
5.53361
21
-5.62359
0
LINE
8
BLACK
6
CONTINUOUS
10
5.53361
20
-5.62359
11
5.53923
21
-5.61797
0
LINE
8
BLACK
6
CONTINUOUS
10
5.53923
20
-5.61797
11
5.54485
21
-5.60672
0
LINE
8
BLACK
6
CONTINUOUS
10
5.54485
20
-5.60672
11
5.54485
21
-5.58422
0
LINE
8
BLACK
6
CONTINUOUS
10
5.54485
20
-5.58422
11
5.53923
21
-5.57298
0
LINE
8
BLACK
6
CONTINUOUS
10
5.53923
20
-5.57298
11
5.53361
21
-5.56735
0
LINE
8
BLACK
6
CONTINUOUS
10
5.53361
20
-5.56735
11
5.52236
21
-5.56173
0
LINE
8
BLACK
6
CONTINUOUS
10
5.58985
20
-5.51111
11
5.58985
21
-5.53361
0
LINE
8
BLACK
6
CONTINUOUS
10
5.63484
20
-5.51111
11
5.63484
21
-5.53361
0
LINE
8
BLACK
6
CONTINUOUS
10
5.8092
20
-5.67421
11
5.80357
21
-5.66859
0
LINE
8
BLACK
6
CONTINUOUS
10
5.80357
20
-5.66859
11
5.79232
21
-5.65172
0
LINE
8
BLACK
6
CONTINUOUS
10
5.79232
20
-5.65172
11
5.7867
21
-5.64047
0
LINE
8
BLACK
6
CONTINUOUS
10
5.7867
20
-5.64047
11
5.78107
21
-5.62359
0
LINE
8
BLACK
6
CONTINUOUS
10
5.78107
20
-5.62359
11
5.77545
21
-5.59547
0
LINE
8
BLACK
6
CONTINUOUS
10
5.77545
20
-5.59547
11
5.77545
21
-5.57298
0
LINE
8
BLACK
6
CONTINUOUS
10
5.77545
20
-5.57298
11
5.78107
21
-5.54485
0
LINE
8
BLACK
6
CONTINUOUS
10
5.78107
20
-5.54485
11
5.7867
21
-5.52798
0
LINE
8
BLACK
6
CONTINUOUS
10
5.7867
20
-5.52798
11
5.79232
21
-5.51673
0
LINE
8
BLACK
6
CONTINUOUS
10
5.79232
20
-5.51673
11
5.80357
21
-5.49986
0
LINE
8
BLACK
6
CONTINUOUS
10
5.80357
20
-5.49986
11
5.8092
21
-5.49424
0
LINE
8
BLACK
6
CONTINUOUS
10
5.84857
20
-5.52236
11
5.85419
21
-5.51673
0
LINE
8
BLACK
6
CONTINUOUS
10
5.85419
20
-5.51673
11
5.86544
21
-5.51111
0
LINE
8
BLACK
6
CONTINUOUS
10
5.86544
20
-5.51111
11
5.89356
21
-5.51111
0
LINE
8
BLACK
6
CONTINUOUS
10
5.89356
20
-5.51111
11
5.90481
21
-5.51673
0
LINE
8
BLACK
6
CONTINUOUS
10
5.90481
20
-5.51673
11
5.91043
21
-5.52236
0
LINE
8
BLACK
6
CONTINUOUS
10
5.91043
20
-5.52236
11
5.91606
21
-5.53361
0
LINE
8
BLACK
6
CONTINUOUS
10
5.91606
20
-5.53361
11
5.91606
21
-5.54485
0
LINE
8
BLACK
6
CONTINUOUS
10
5.91606
20
-5.54485
11
5.91043
21
-5.56173
0
LINE
8
BLACK
6
CONTINUOUS
10
5.91043
20
-5.56173
11
5.84294
21
-5.62922
0
LINE
8
BLACK
6
CONTINUOUS
10
5.84294
20
-5.62922
11
5.91606
21
-5.62922
0
LINE
8
BLACK
6
CONTINUOUS
10
6.05666
20
-5.62922
11
6.05666
21
-5.51111
0
LINE
8
BLACK
6
CONTINUOUS
10
6.10728
20
-5.62922
11
6.10728
21
-5.56735
0
LINE
8
BLACK
6
CONTINUOUS
10
6.10728
20
-5.56735
11
6.10166
21
-5.5561
0
LINE
8
BLACK
6
CONTINUOUS
10
6.10166
20
-5.5561
11
6.09041
21
-5.55048
0
LINE
8
BLACK
6
CONTINUOUS
10
6.09041
20
-5.55048
11
6.07354
21
-5.55048
0
LINE
8
BLACK
6
CONTINUOUS
10
6.07354
20
-5.55048
11
6.06229
21
-5.5561
0
LINE
8
BLACK
6
CONTINUOUS
10
6.06229
20
-5.5561
11
6.05666
21
-5.56173
0
LINE
8
BLACK
6
CONTINUOUS
10
6.1804
20
-5.62922
11
6.16915
21
-5.62359
0
LINE
8
BLACK
6
CONTINUOUS
10
6.16915
20
-5.62359
11
6.16353
21
-5.61797
0
LINE
8
BLACK
6
CONTINUOUS
10
6.16353
20
-5.61797
11
6.1579
21
-5.60672
0
LINE
8
BLACK
6
CONTINUOUS
10
6.1579
20
-5.60672
11
6.1579
21
-5.57298
0
LINE
8
BLACK
6
CONTINUOUS
10
6.1579
20
-5.57298
11
6.16353
21
-5.56173
0
LINE
8
BLACK
6
CONTINUOUS
10
6.16353
20
-5.56173
11
6.16915
21
-5.5561
0
LINE
8
BLACK
6
CONTINUOUS
10
6.16915
20
-5.5561
11
6.1804
21
-5.55048
0
LINE
8
BLACK
6
CONTINUOUS
10
6.1804
20
-5.55048
11
6.19727
21
-5.55048
0
LINE
8
BLACK
6
CONTINUOUS
10
6.19727
20
-5.55048
11
6.20852
21
-5.5561
0
LINE
8
BLACK
6
CONTINUOUS
10
6.20852
20
-5.5561
11
6.21415
21
-5.56173
0
LINE
8
BLACK
6
CONTINUOUS
10
6.21415
20
-5.56173
11
6.21977
21
-5.57298
0
LINE
8
BLACK
6
CONTINUOUS
10
6.21977
20
-5.57298
11
6.21977
21
-5.60672
0
LINE
8
BLACK
6
CONTINUOUS
10
6.21977
20
-5.60672
11
6.21415
21
-5.61797
0
LINE
8
BLACK
6
CONTINUOUS
10
6.21415
20
-5.61797
11
6.20852
21
-5.62359
0
LINE
8
BLACK
6
CONTINUOUS
10
6.20852
20
-5.62359
11
6.19727
21
-5.62922
0
LINE
8
BLACK
6
CONTINUOUS
10
6.19727
20
-5.62922
11
6.1804
21
-5.62922
0
LINE
8
BLACK
6
CONTINUOUS
10
6.28726
20
-5.62922
11
6.27601
21
-5.62359
0
LINE
8
BLACK
6
CONTINUOUS
10
6.27601
20
-5.62359
11
6.27039
21
-5.61235
0
LINE
8
BLACK
6
CONTINUOUS
10
6.27039
20
-5.61235
11
6.27039
21
-5.51111
0
LINE
8
BLACK
6
CONTINUOUS
10
6.37725
20
-5.62359
11
6.366
21
-5.62922
0
LINE
8
BLACK
6
CONTINUOUS
10
6.366
20
-5.62922
11
6.3435
21
-5.62922
0
LINE
8
BLACK
6
CONTINUOUS
10
6.3435
20
-5.62922
11
6.33226
21
-5.62359
0
LINE
8
BLACK
6
CONTINUOUS
10
6.33226
20
-5.62359
11
6.32663
21
-5.61235
0
LINE
8
BLACK
6
CONTINUOUS
10
6.32663
20
-5.61235
11
6.32663
21
-5.56735
0
LINE
8
BLACK
6
CONTINUOUS
10
6.32663
20
-5.56735
11
6.33226
21
-5.5561
0
LINE
8
BLACK
6
CONTINUOUS
10
6.33226
20
-5.5561
11
6.3435
21
-5.55048
0
LINE
8
BLACK
6
CONTINUOUS
10
6.3435
20
-5.55048
11
6.366
21
-5.55048
0
LINE
8
BLACK
6
CONTINUOUS
10
6.366
20
-5.55048
11
6.37725
21
-5.5561
0
LINE
8
BLACK
6
CONTINUOUS
10
6.37725
20
-5.5561
11
6.38287
21
-5.56735
0
LINE
8
BLACK
6
CONTINUOUS
10
6.38287
20
-5.56735
11
6.38287
21
-5.5786
0
LINE
8
BLACK
6
CONTINUOUS
10
6.38287
20
-5.5786
11
6.32663
21
-5.58985
0
LINE
8
BLACK
6
CONTINUOUS
10
6.42787
20
-5.62359
11
6.43912
21
-5.62922
0
LINE
8
BLACK
6
CONTINUOUS
10
6.43912
20
-5.62922
11
6.46161
21
-5.62922
0
LINE
8
BLACK
6
CONTINUOUS
10
6.46161
20
-5.62922
11
6.47286
21
-5.62359
0
LINE
8
BLACK
6
CONTINUOUS
10
6.47286
20
-5.62359
11
6.47849
21
-5.61235
0
LINE
8
BLACK
6
CONTINUOUS
10
6.47849
20
-5.61235
11
6.47849
21
-5.60672
0
LINE
8
BLACK
6
CONTINUOUS
10
6.47849
20
-5.60672
11
6.47286
21
-5.59547
0
LINE
8
BLACK
6
CONTINUOUS
10
6.47286
20
-5.59547
11
6.46161
21
-5.58985
0
LINE
8
BLACK
6
CONTINUOUS
10
6.46161
20
-5.58985
11
6.44474
21
-5.58985
0
LINE
8
BLACK
6
CONTINUOUS
10
6.44474
20
-5.58985
11
6.43349
21
-5.58422
0
LINE
8
BLACK
6
CONTINUOUS
10
6.43349
20
-5.58422
11
6.42787
21
-5.57298
0
LINE
8
BLACK
6
CONTINUOUS
10
6.42787
20
-5.57298
11
6.42787
21
-5.56735
0
LINE
8
BLACK
6
CONTINUOUS
10
6.42787
20
-5.56735
11
6.43349
21
-5.5561
0
LINE
8
BLACK
6
CONTINUOUS
10
6.43349
20
-5.5561
11
6.44474
21
-5.55048
0
LINE
8
BLACK
6
CONTINUOUS
10
6.44474
20
-5.55048
11
6.46161
21
-5.55048
0
LINE
8
BLACK
6
CONTINUOUS
10
6.46161
20
-5.55048
11
6.47286
21
-5.5561
0
LINE
8
BLACK
6
CONTINUOUS
10
6.51786
20
-5.67421
11
6.52348
21
-5.66859
0
LINE
8
BLACK
6
CONTINUOUS
10
6.52348
20
-5.66859
11
6.53473
21
-5.65172
0
LINE
8
BLACK
6
CONTINUOUS
10
6.53473
20
-5.65172
11
6.54035
21
-5.64047
0
LINE
8
BLACK
6
CONTINUOUS
10
6.54035
20
-5.64047
11
6.54598
21
-5.62359
0
LINE
8
BLACK
6
CONTINUOUS
10
6.54598
20
-5.62359
11
6.5516
21
-5.59547
0
LINE
8
BLACK
6
CONTINUOUS
10
6.5516
20
-5.59547
11
6.5516
21
-5.57298
0
LINE
8
BLACK
6
CONTINUOUS
10
6.5516
20
-5.57298
11
6.54598
21
-5.54485
0
LINE
8
BLACK
6
CONTINUOUS
10
6.54598
20
-5.54485
11
6.54035
21
-5.52798
0
LINE
8
BLACK
6
CONTINUOUS
10
6.54035
20
-5.52798
11
6.53473
21
-5.51673
0
LINE
8
BLACK
6
CONTINUOUS
10
6.53473
20
-5.51673
11
6.52348
21
-5.49986
0
LINE
8
BLACK
6
CONTINUOUS
10
6.52348
20
-5.49986
11
6.51786
21
-5.49424
0
LINE
8
BLACK
6
CONTINUOUS
10
6.73158
20
-5.67421
11
6.72596
21
-5.66859
0
LINE
8
BLACK
6
CONTINUOUS
10
6.72596
20
-5.66859
11
6.71471
21
-5.65172
0
LINE
8
BLACK
6
CONTINUOUS
10
6.71471
20
-5.65172
11
6.70908
21
-5.64047
0
LINE
8
BLACK
6
CONTINUOUS
10
6.70908
20
-5.64047
11
6.70346
21
-5.62359
0
LINE
8
BLACK
6
CONTINUOUS
10
6.70346
20
-5.62359
11
6.69783
21
-5.59547
0
LINE
8
BLACK
6
CONTINUOUS
10
6.69783
20
-5.59547
11
6.69783
21
-5.57298
0
LINE
8
BLACK
6
CONTINUOUS
10
6.69783
20
-5.57298
11
6.70346
21
-5.54485
0
LINE
8
BLACK
6
CONTINUOUS
10
6.70346
20
-5.54485
11
6.70908
21
-5.52798
0
LINE
8
BLACK
6
CONTINUOUS
10
6.70908
20
-5.52798
11
6.71471
21
-5.51673
0
LINE
8
BLACK
6
CONTINUOUS
10
6.71471
20
-5.51673
11
6.72596
21
-5.49986
0
LINE
8
BLACK
6
CONTINUOUS
10
6.72596
20
-5.49986
11
6.73158
21
-5.49424
0
LINE
8
BLACK
6
CONTINUOUS
10
6.77657
20
-5.55048
11
6.77657
21
-5.62922
0
LINE
8
BLACK
6
CONTINUOUS
10
6.77657
20
-5.56173
11
6.7822
21
-5.5561
0
LINE
8
BLACK
6
CONTINUOUS
10
6.7822
20
-5.5561
11
6.79345
21
-5.55048
0
LINE
8
BLACK
6
CONTINUOUS
10
6.79345
20
-5.55048
11
6.81032
21
-5.55048
0
LINE
8
BLACK
6
CONTINUOUS
10
6.81032
20
-5.55048
11
6.82157
21
-5.5561
0
LINE
8
BLACK
6
CONTINUOUS
10
6.82157
20
-5.5561
11
6.82719
21
-5.56735
0
LINE
8
BLACK
6
CONTINUOUS
10
6.82719
20
-5.56735
11
6.82719
21
-5.62922
0
LINE
8
BLACK
6
CONTINUOUS
10
6.90031
20
-5.62922
11
6.88906
21
-5.62359
0
LINE
8
BLACK
6
CONTINUOUS
10
6.88906
20
-5.62359
11
6.88344
21
-5.61797
0
LINE
8
BLACK
6
CONTINUOUS
10
6.88344
20
-5.61797
11
6.87781
21
-5.60672
0
LINE
8
BLACK
6
CONTINUOUS
10
6.87781
20
-5.60672
11
6.87781
21
-5.57298
0
LINE
8
BLACK
6
CONTINUOUS
10
6.87781
20
-5.57298
11
6.88344
21
-5.56173
0
LINE
8
BLACK
6
CONTINUOUS
10
6.88344
20
-5.56173
11
6.88906
21
-5.5561
0
LINE
8
BLACK
6
CONTINUOUS
10
6.88906
20
-5.5561
11
6.90031
21
-5.55048
0
LINE
8
BLACK
6
CONTINUOUS
10
6.90031
20
-5.55048
11
6.91718
21
-5.55048
0
LINE
8
BLACK
6
CONTINUOUS
10
6.91718
20
-5.55048
11
6.92843
21
-5.5561
0
LINE
8
BLACK
6
CONTINUOUS
10
6.92843
20
-5.5561
11
6.93406
21
-5.56173
0
LINE
8
BLACK
6
CONTINUOUS
10
6.93406
20
-5.56173
11
6.93968
21
-5.57298
0
LINE
8
BLACK
6
CONTINUOUS
10
6.93968
20
-5.57298
11
6.93968
21
-5.60672
0
LINE
8
BLACK
6
CONTINUOUS
10
6.93968
20
-5.60672
11
6.93406
21
-5.61797
0
LINE
8
BLACK
6
CONTINUOUS
10
6.93406
20
-5.61797
11
6.92843
21
-5.62359
0
LINE
8
BLACK
6
CONTINUOUS
10
6.92843
20
-5.62359
11
6.91718
21
-5.62922
0
LINE
8
BLACK
6
CONTINUOUS
10
6.91718
20
-5.62922
11
6.90031
21
-5.62922
0
LINE
8
BLACK
6
CONTINUOUS
10
6.97343
20
-5.55048
11
7.01842
21
-5.55048
0
LINE
8
BLACK
6
CONTINUOUS
10
6.9903
20
-5.51111
11
6.9903
21
-5.61235
0
LINE
8
BLACK
6
CONTINUOUS
10
6.9903
20
-5.61235
11
6.99592
21
-5.62359
0
LINE
8
BLACK
6
CONTINUOUS
10
6.99592
20
-5.62359
11
7.00717
21
-5.62922
0
LINE
8
BLACK
6
CONTINUOUS
10
7.00717
20
-5.62922
11
7.01842
21
-5.62922
0
LINE
8
BLACK
6
CONTINUOUS
10
7.14778
20
-5.55048
11
7.14778
21
-5.66859
0
LINE
8
BLACK
6
CONTINUOUS
10
7.14778
20
-5.5561
11
7.15903
21
-5.55048
0
LINE
8
BLACK
6
CONTINUOUS
10
7.15903
20
-5.55048
11
7.18152
21
-5.55048
0
LINE
8
BLACK
6
CONTINUOUS
10
7.18152
20
-5.55048
11
7.19277
21
-5.5561
0
LINE
8
BLACK
6
CONTINUOUS
10
7.19277
20
-5.5561
11
7.1984
21
-5.56173
0
LINE
8
BLACK
6
CONTINUOUS
10
7.1984
20
-5.56173
11
7.20402
21
-5.57298
0
LINE
8
BLACK
6
CONTINUOUS
10
7.20402
20
-5.57298
11
7.20402
21
-5.60672
0
LINE
8
BLACK
6
CONTINUOUS
10
7.20402
20
-5.60672
11
7.1984
21
-5.61797
0
LINE
8
BLACK
6
CONTINUOUS
10
7.1984
20
-5.61797
11
7.19277
21
-5.62359
0
LINE
8
BLACK
6
CONTINUOUS
10
7.19277
20
-5.62359
11
7.18152
21
-5.62922
0
LINE
8
BLACK
6
CONTINUOUS
10
7.18152
20
-5.62922
11
7.15903
21
-5.62922
0
LINE
8
BLACK
6
CONTINUOUS
10
7.15903
20
-5.62922
11
7.14778
21
-5.62359
0
LINE
8
BLACK
6
CONTINUOUS
10
7.27151
20
-5.62922
11
7.26026
21
-5.62359
0
LINE
8
BLACK
6
CONTINUOUS
10
7.26026
20
-5.62359
11
7.25464
21
-5.61235
0
LINE
8
BLACK
6
CONTINUOUS
10
7.25464
20
-5.61235
11
7.25464
21
-5.51111
0
LINE
8
BLACK
6
CONTINUOUS
10
7.36713
20
-5.62922
11
7.36713
21
-5.56735
0
LINE
8
BLACK
6
CONTINUOUS
10
7.36713
20
-5.56735
11
7.3615
21
-5.5561
0
LINE
8
BLACK
6
CONTINUOUS
10
7.3615
20
-5.5561
11
7.35025
21
-5.55048
0
LINE
8
BLACK
6
CONTINUOUS
10
7.35025
20
-5.55048
11
7.32776
21
-5.55048
0
LINE
8
BLACK
6
CONTINUOUS
10
7.32776
20
-5.55048
11
7.31651
21
-5.5561
0
LINE
8
BLACK
6
CONTINUOUS
10
7.36713
20
-5.62359
11
7.35588
21
-5.62922
0
LINE
8
BLACK
6
CONTINUOUS
10
7.35588
20
-5.62922
11
7.32776
21
-5.62922
0
LINE
8
BLACK
6
CONTINUOUS
10
7.32776
20
-5.62922
11
7.31651
21
-5.62359
0
LINE
8
BLACK
6
CONTINUOUS
10
7.31651
20
-5.62359
11
7.31088
21
-5.61235
0
LINE
8
BLACK
6
CONTINUOUS
10
7.31088
20
-5.61235
11
7.31088
21
-5.6011
0
LINE
8
BLACK
6
CONTINUOUS
10
7.31088
20
-5.6011
11
7.31651
21
-5.58985
0
LINE
8
BLACK
6
CONTINUOUS
10
7.31651
20
-5.58985
11
7.32776
21
-5.58422
0
LINE
8
BLACK
6
CONTINUOUS
10
7.32776
20
-5.58422
11
7.35588
21
-5.58422
0
LINE
8
BLACK
6
CONTINUOUS
10
7.35588
20
-5.58422
11
7.36713
21
-5.5786
0
LINE
8
BLACK
6
CONTINUOUS
10
7.4065
20
-5.55048
11
7.45149
21
-5.55048
0
LINE
8
BLACK
6
CONTINUOUS
10
7.42337
20
-5.51111
11
7.42337
21
-5.61235
0
LINE
8
BLACK
6
CONTINUOUS
10
7.42337
20
-5.61235
11
7.42899
21
-5.62359
0
LINE
8
BLACK
6
CONTINUOUS
10
7.42899
20
-5.62359
11
7.44024
21
-5.62922
0
LINE
8
BLACK
6
CONTINUOUS
10
7.44024
20
-5.62922
11
7.45149
21
-5.62922
0
LINE
8
BLACK
6
CONTINUOUS
10
7.53585
20
-5.62359
11
7.52461
21
-5.62922
0
LINE
8
BLACK
6
CONTINUOUS
10
7.52461
20
-5.62922
11
7.50211
21
-5.62922
0
LINE
8
BLACK
6
CONTINUOUS
10
7.50211
20
-5.62922
11
7.49086
21
-5.62359
0
LINE
8
BLACK
6
CONTINUOUS
10
7.49086
20
-5.62359
11
7.48524
21
-5.61235
0
LINE
8
BLACK
6
CONTINUOUS
10
7.48524
20
-5.61235
11
7.48524
21
-5.56735
0
LINE
8
BLACK
6
CONTINUOUS
10
7.48524
20
-5.56735
11
7.49086
21
-5.5561
0
LINE
8
BLACK
6
CONTINUOUS
10
7.49086
20
-5.5561
11
7.50211
21
-5.55048
0
LINE
8
BLACK
6
CONTINUOUS
10
7.50211
20
-5.55048
11
7.52461
21
-5.55048
0
LINE
8
BLACK
6
CONTINUOUS
10
7.52461
20
-5.55048
11
7.53585
21
-5.5561
0
LINE
8
BLACK
6
CONTINUOUS
10
7.53585
20
-5.5561
11
7.54148
21
-5.56735
0
LINE
8
BLACK
6
CONTINUOUS
10
7.54148
20
-5.56735
11
7.54148
21
-5.5786
0
LINE
8
BLACK
6
CONTINUOUS
10
7.54148
20
-5.5786
11
7.48524
21
-5.58985
0
LINE
8
BLACK
6
CONTINUOUS
10
7.64272
20
-5.62922
11
7.64272
21
-5.51111
0
LINE
8
BLACK
6
CONTINUOUS
10
7.64272
20
-5.62359
11
7.63147
21
-5.62922
0
LINE
8
BLACK
6
CONTINUOUS
10
7.63147
20
-5.62922
11
7.60897
21
-5.62922
0
LINE
8
BLACK
6
CONTINUOUS
10
7.60897
20
-5.62922
11
7.59772
21
-5.62359
0
LINE
8
BLACK
6
CONTINUOUS
10
7.59772
20
-5.62359
11
7.5921
21
-5.61797
0
LINE
8
BLACK
6
CONTINUOUS
10
7.5921
20
-5.61797
11
7.58647
21
-5.60672
0
LINE
8
BLACK
6
CONTINUOUS
10
7.58647
20
-5.60672
11
7.58647
21
-5.57298
0
LINE
8
BLACK
6
CONTINUOUS
10
7.58647
20
-5.57298
11
7.5921
21
-5.56173
0
LINE
8
BLACK
6
CONTINUOUS
10
7.5921
20
-5.56173
11
7.59772
21
-5.5561
0
LINE
8
BLACK
6
CONTINUOUS
10
7.59772
20
-5.5561
11
7.60897
21
-5.55048
0
LINE
8
BLACK
6
CONTINUOUS
10
7.60897
20
-5.55048
11
7.63147
21
-5.55048
0
LINE
8
BLACK
6
CONTINUOUS
10
7.63147
20
-5.55048
11
7.64272
21
-5.5561
0
LINE
8
BLACK
6
CONTINUOUS
10
7.68771
20
-5.67421
11
7.69334
21
-5.66859
0
LINE
8
BLACK
6
CONTINUOUS
10
7.69334
20
-5.66859
11
7.70458
21
-5.65172
0
LINE
8
BLACK
6
CONTINUOUS
10
7.70458
20
-5.65172
11
7.71021
21
-5.64047
0
LINE
8
BLACK
6
CONTINUOUS
10
7.71021
20
-5.64047
11
7.71583
21
-5.62359
0
LINE
8
BLACK
6
CONTINUOUS
10
7.71583
20
-5.62359
11
7.72146
21
-5.59547
0
LINE
8
BLACK
6
CONTINUOUS
10
7.72146
20
-5.59547
11
7.72146
21
-5.57298
0
LINE
8
BLACK
6
CONTINUOUS
10
7.72146
20
-5.57298
11
7.71583
21
-5.54485
0
LINE
8
BLACK
6
CONTINUOUS
10
7.71583
20
-5.54485
11
7.71021
21
-5.52798
0
LINE
8
BLACK
6
CONTINUOUS
10
7.71021
20
-5.52798
11
7.70458
21
-5.51673
0
LINE
8
BLACK
6
CONTINUOUS
10
7.70458
20
-5.51673
11
7.69334
21
-5.49986
0
LINE
8
BLACK
6
CONTINUOUS
10
7.69334
20
-5.49986
11
7.68771
21
-5.49424
  0
ENDSEC
  0
EOF
