  0
SECTION
  2
HEADER
  9
$ANGBASE
  50
0.0
  9
$ANGDIR
  70
1
  9
$MEASUREMENT
  70
0
  0
ENDSEC
  0
SECTION
  2
TABLES
  0
TABLE
  2
LTYPE
  70
4
  0
LTYPE
  5
40F
  2
CONTINUOUS
  70
0
  3
Solid line
  72
65
  73
0
  40
0.0
  0
LTYPE
  5
410
  2
DASHDOT
 70
0
  3
Dash Dot ____ _ ____ _
 72
65
 73
4
 40
2.0
 49
1.25
 49
-0.25
 49
0.25
 49
-0.25
  0
LTYPE
  5
411
  2
DASHED
 70
0
  3
Dashed __ __ __ __ __
 72
65
 73
2
 40
0.75
 49
0.5
 49
-0.25
  0
LTYPE
  5
43B
  2
DOTTED
 70
0
  3
Dotted .  .  .  .
 72
65
 73
2
 40
0.2
 49
0.0
 49
-0.2
  0
ENDTAB
  0
TABLE
  2
STYLE
  70
4
  0
STYLE
  2
KICAD
  70
0
  40
0
  41
1
  42
1
  50
0
  71
0
  3
isocp.shx
  0
STYLE
  2
KICADB
  70
0
  40
0
  41
1
  42
1
  50
0
  71
0
  3
isocp.shx
  0
STYLE
  2
KICADI
  70
0
  40
0
  41
1
  42
1
  50
15
  71
0
  3
isocp.shx
  0
STYLE
  2
KICADBI
  70
0
  40
0
  41
1
  42
1
  50
15
  71
0
  3
isocp.shx
  0
ENDTAB
  0
TABLE
  2
LAYER
  70
1
  0
LAYER
  2
BLACK
  70
0
  62
7
  6
CONTINUOUS
  0
ENDTAB
  0
ENDSEC
  0
SECTION
  2
ENTITIES
0
LINE
8
BLACK
6
CONTINUOUS
10
7.6378
20
-4.13386
11
3.74016
21
-4.13386
0
LINE
8
BLACK
6
CONTINUOUS
10
3.74016
20
-4.13386
11
3.74016
21
-5.19685
0
LINE
8
BLACK
6
CONTINUOUS
10
7.6378
20
-5.19685
11
7.6378
21
-4.13386
0
LINE
8
BLACK
6
CONTINUOUS
10
3.74016
20
-5.19685
11
7.6378
21
-5.19685
0
LINE
8
BLACK
6
CONTINUOUS
10
6.08661
20
-4.19685
11
6.11811
21
-4.22835
0
LINE
8
BLACK
6
CONTINUOUS
10
6.11811
20
-4.19685
11
6.08661
21
-4.22835
0
LINE
8
BLACK
6
CONTINUOUS
10
6.08661
20
-4.79685
11
6.11811
21
-4.82835
0
LINE
8
BLACK
6
CONTINUOUS
10
6.11811
20
-4.79685
11
6.08661
21
-4.82835
0
LINE
8
BLACK
6
CONTINUOUS
10
6.32283
20
-4.3937
11
6.35433
21
-4.4252
0
LINE
8
BLACK
6
CONTINUOUS
10
6.35433
20
-4.3937
11
6.32283
21
-4.4252
0
LINE
8
BLACK
6
CONTINUOUS
10
6.32283
20
-4.59055
11
6.35433
21
-4.62205
0
LINE
8
BLACK
6
CONTINUOUS
10
6.35433
20
-4.59055
11
6.32283
21
-4.62205
0
CIRCLE
8
BLACK
10
3.93701
20
-4.92126
40
0.019685
0
CIRCLE
8
BLACK
10
3.93701
20
-5.02126
40
0.019685
0
CIRCLE
8
BLACK
10
4.64567
20
-4.92126
40
0.019685
0
CIRCLE
8
BLACK
10
4.64567
20
-5.02126
40
0.019685
0
CIRCLE
8
BLACK
10
7.20472
20
-4.25197
40
0.019685
0
CIRCLE
8
BLACK
10
7.36417
20
-4.25197
40
0.019685
0
CIRCLE
8
BLACK
10
7.48031
20
-4.92126
40
0.019685
0
CIRCLE
8
BLACK
10
7.48031
20
-5.02126
40
0.019685
0
LINE
8
BLACK
6
CONTINUOUS
10
4.64567
20
-4.30591
11
4.64567
21
-4.34921
0
LINE
8
BLACK
6
CONTINUOUS
10
4.62402
20
-4.32756
11
4.66732
21
-4.32756
0
LINE
8
BLACK
6
CONTINUOUS
10
4.64567
20
-4.40591
11
4.64567
21
-4.44921
0
LINE
8
BLACK
6
CONTINUOUS
10
4.62402
20
-4.42756
11
4.66732
21
-4.42756
0
LINE
8
BLACK
6
CONTINUOUS
10
4.64567
20
-4.50591
11
4.64567
21
-4.54921
0
LINE
8
BLACK
6
CONTINUOUS
10
4.62402
20
-4.52756
11
4.66732
21
-4.52756
0
LINE
8
BLACK
6
CONTINUOUS
10
5.82677
20
-4.30591
11
5.82677
21
-4.34921
0
LINE
8
BLACK
6
CONTINUOUS
10
5.80512
20
-4.32756
11
5.84843
21
-4.32756
0
LINE
8
BLACK
6
CONTINUOUS
10
5.82677
20
-4.40591
11
5.82677
21
-4.44921
0
LINE
8
BLACK
6
CONTINUOUS
10
5.80512
20
-4.42756
11
5.84843
21
-4.42756
0
LINE
8
BLACK
6
CONTINUOUS
10
5.82677
20
-4.50591
11
5.82677
21
-4.54921
0
LINE
8
BLACK
6
CONTINUOUS
10
5.80512
20
-4.52756
11
5.84843
21
-4.52756
0
LINE
8
BLACK
6
CONTINUOUS
10
6.63227
20
-4.3488
11
6.63227
21
-4.31261
0
LINE
8
BLACK
6
CONTINUOUS
10
6.63227
20
-4.31261
11
6.59608
21
-4.31261
0
LINE
8
BLACK
6
CONTINUOUS
10
6.59608
20
-4.31261
11
6.59608
21
-4.3488
0
LINE
8
BLACK
6
CONTINUOUS
10
6.59608
20
-4.3488
11
6.63227
21
-4.3488
0
LINE
8
BLACK
6
CONTINUOUS
10
6.63227
20
-4.9488
11
6.63227
21
-4.91261
0
LINE
8
BLACK
6
CONTINUOUS
10
6.63227
20
-4.91261
11
6.59608
21
-4.91261
0
LINE
8
BLACK
6
CONTINUOUS
10
6.59608
20
-4.91261
11
6.59608
21
-4.9488
0
LINE
8
BLACK
6
CONTINUOUS
10
6.59608
20
-4.9488
11
6.63227
21
-4.9488
0
LINE
8
BLACK
6
CONTINUOUS
10
3.85194
20
-5.38119
11
3.85194
21
-5.26308
0
LINE
8
BLACK
6
CONTINUOUS
10
3.85194
20
-5.26308
11
3.88006
21
-5.26308
0
LINE
8
BLACK
6
CONTINUOUS
10
3.88006
20
-5.26308
11
3.89693
21
-5.2687
0
LINE
8
BLACK
6
CONTINUOUS
10
3.89693
20
-5.2687
11
3.90818
21
-5.27995
0
LINE
8
BLACK
6
CONTINUOUS
10
3.90818
20
-5.27995
11
3.91381
21
-5.2912
0
LINE
8
BLACK
6
CONTINUOUS
10
3.91381
20
-5.2912
11
3.91943
21
-5.3137
0
LINE
8
BLACK
6
CONTINUOUS
10
3.91943
20
-5.3137
11
3.91943
21
-5.33057
0
LINE
8
BLACK
6
CONTINUOUS
10
3.91943
20
-5.33057
11
3.91381
21
-5.35307
0
LINE
8
BLACK
6
CONTINUOUS
10
3.91381
20
-5.35307
11
3.90818
21
-5.36431
0
LINE
8
BLACK
6
CONTINUOUS
10
3.90818
20
-5.36431
11
3.89693
21
-5.37556
0
LINE
8
BLACK
6
CONTINUOUS
10
3.89693
20
-5.37556
11
3.88006
21
-5.38119
0
LINE
8
BLACK
6
CONTINUOUS
10
3.88006
20
-5.38119
11
3.85194
21
-5.38119
0
LINE
8
BLACK
6
CONTINUOUS
10
3.97005
20
-5.38119
11
3.97005
21
-5.30245
0
LINE
8
BLACK
6
CONTINUOUS
10
3.97005
20
-5.32494
11
3.97567
21
-5.3137
0
LINE
8
BLACK
6
CONTINUOUS
10
3.97567
20
-5.3137
11
3.9813
21
-5.30807
0
LINE
8
BLACK
6
CONTINUOUS
10
3.9813
20
-5.30807
11
3.99255
21
-5.30245
0
LINE
8
BLACK
6
CONTINUOUS
10
3.99255
20
-5.30245
11
4.0038
21
-5.30245
0
LINE
8
BLACK
6
CONTINUOUS
10
4.04317
20
-5.38119
11
4.04317
21
-5.30245
0
LINE
8
BLACK
6
CONTINUOUS
10
4.04317
20
-5.26308
11
4.03754
21
-5.2687
0
LINE
8
BLACK
6
CONTINUOUS
10
4.03754
20
-5.2687
11
4.04317
21
-5.27433
0
LINE
8
BLACK
6
CONTINUOUS
10
4.04317
20
-5.27433
11
4.04879
21
-5.2687
0
LINE
8
BLACK
6
CONTINUOUS
10
4.04879
20
-5.2687
11
4.04317
21
-5.26308
0
LINE
8
BLACK
6
CONTINUOUS
10
4.04317
20
-5.26308
11
4.04317
21
-5.27433
0
LINE
8
BLACK
6
CONTINUOUS
10
4.11628
20
-5.38119
11
4.10503
21
-5.37556
0
LINE
8
BLACK
6
CONTINUOUS
10
4.10503
20
-5.37556
11
4.09941
21
-5.36431
0
LINE
8
BLACK
6
CONTINUOUS
10
4.09941
20
-5.36431
11
4.09941
21
-5.26308
0
LINE
8
BLACK
6
CONTINUOUS
10
4.17815
20
-5.38119
11
4.1669
21
-5.37556
0
LINE
8
BLACK
6
CONTINUOUS
10
4.1669
20
-5.37556
11
4.16128
21
-5.36431
0
LINE
8
BLACK
6
CONTINUOUS
10
4.16128
20
-5.36431
11
4.16128
21
-5.26308
0
LINE
8
BLACK
6
CONTINUOUS
10
4.31313
20
-5.38119
11
4.31313
21
-5.26308
0
LINE
8
BLACK
6
CONTINUOUS
10
4.31313
20
-5.26308
11
4.3525
21
-5.34744
0
LINE
8
BLACK
6
CONTINUOUS
10
4.3525
20
-5.34744
11
4.39187
21
-5.26308
0
LINE
8
BLACK
6
CONTINUOUS
10
4.39187
20
-5.26308
11
4.39187
21
-5.38119
0
LINE
8
BLACK
6
CONTINUOUS
10
4.49873
20
-5.38119
11
4.49873
21
-5.31932
0
LINE
8
BLACK
6
CONTINUOUS
10
4.49873
20
-5.31932
11
4.49311
21
-5.30807
0
LINE
8
BLACK
6
CONTINUOUS
10
4.49311
20
-5.30807
11
4.48186
21
-5.30245
0
LINE
8
BLACK
6
CONTINUOUS
10
4.48186
20
-5.30245
11
4.45936
21
-5.30245
0
LINE
8
BLACK
6
CONTINUOUS
10
4.45936
20
-5.30245
11
4.44812
21
-5.30807
0
LINE
8
BLACK
6
CONTINUOUS
10
4.49873
20
-5.37556
11
4.48749
21
-5.38119
0
LINE
8
BLACK
6
CONTINUOUS
10
4.48749
20
-5.38119
11
4.45936
21
-5.38119
0
LINE
8
BLACK
6
CONTINUOUS
10
4.45936
20
-5.38119
11
4.44812
21
-5.37556
0
LINE
8
BLACK
6
CONTINUOUS
10
4.44812
20
-5.37556
11
4.44249
21
-5.36431
0
LINE
8
BLACK
6
CONTINUOUS
10
4.44249
20
-5.36431
11
4.44249
21
-5.35307
0
LINE
8
BLACK
6
CONTINUOUS
10
4.44249
20
-5.35307
11
4.44812
21
-5.34182
0
LINE
8
BLACK
6
CONTINUOUS
10
4.44812
20
-5.34182
11
4.45936
21
-5.33619
0
LINE
8
BLACK
6
CONTINUOUS
10
4.45936
20
-5.33619
11
4.48749
21
-5.33619
0
LINE
8
BLACK
6
CONTINUOUS
10
4.48749
20
-5.33619
11
4.49873
21
-5.33057
0
LINE
8
BLACK
6
CONTINUOUS
10
4.55498
20
-5.30245
11
4.55498
21
-5.42056
0
LINE
8
BLACK
6
CONTINUOUS
10
4.55498
20
-5.30807
11
4.56623
21
-5.30245
0
LINE
8
BLACK
6
CONTINUOUS
10
4.56623
20
-5.30245
11
4.58872
21
-5.30245
0
LINE
8
BLACK
6
CONTINUOUS
10
4.58872
20
-5.30245
11
4.59997
21
-5.30807
0
LINE
8
BLACK
6
CONTINUOUS
10
4.59997
20
-5.30807
11
4.6056
21
-5.3137
0
LINE
8
BLACK
6
CONTINUOUS
10
4.6056
20
-5.3137
11
4.61122
21
-5.32494
0
LINE
8
BLACK
6
CONTINUOUS
10
4.61122
20
-5.32494
11
4.61122
21
-5.35869
0
LINE
8
BLACK
6
CONTINUOUS
10
4.61122
20
-5.35869
11
4.6056
21
-5.36994
0
LINE
8
BLACK
6
CONTINUOUS
10
4.6056
20
-5.36994
11
4.59997
21
-5.37556
0
LINE
8
BLACK
6
CONTINUOUS
10
4.59997
20
-5.37556
11
4.58872
21
-5.38119
0
LINE
8
BLACK
6
CONTINUOUS
10
4.58872
20
-5.38119
11
4.56623
21
-5.38119
0
LINE
8
BLACK
6
CONTINUOUS
10
4.56623
20
-5.38119
11
4.55498
21
-5.37556
0
LINE
8
BLACK
6
CONTINUOUS
10
4.66184
20
-5.36994
11
4.66746
21
-5.37556
0
LINE
8
BLACK
6
CONTINUOUS
10
4.66746
20
-5.37556
11
4.66184
21
-5.38119
0
LINE
8
BLACK
6
CONTINUOUS
10
4.66184
20
-5.38119
11
4.65621
21
-5.37556
0
LINE
8
BLACK
6
CONTINUOUS
10
4.65621
20
-5.37556
11
4.66184
21
-5.36994
0
LINE
8
BLACK
6
CONTINUOUS
10
4.66184
20
-5.36994
11
4.66184
21
-5.38119
0
LINE
8
BLACK
6
CONTINUOUS
10
4.66184
20
-5.30807
11
4.66746
21
-5.3137
0
LINE
8
BLACK
6
CONTINUOUS
10
4.66746
20
-5.3137
11
4.66184
21
-5.31932
0
LINE
8
BLACK
6
CONTINUOUS
10
4.66184
20
-5.31932
11
4.65621
21
-5.3137
0
LINE
8
BLACK
6
CONTINUOUS
10
4.65621
20
-5.3137
11
4.66184
21
-5.30807
0
LINE
8
BLACK
6
CONTINUOUS
10
4.66184
20
-5.30807
11
4.66184
21
-5.31932
0
LINE
8
BLACK
6
CONTINUOUS
10
3.70768
20
-5.56004
11
3.73917
21
-5.59154
0
LINE
8
BLACK
6
CONTINUOUS
10
3.73917
20
-5.56004
11
3.70768
21
-5.59154
0
LINE
8
BLACK
6
CONTINUOUS
10
3.87444
20
-5.51111
11
3.88569
21
-5.51111
0
LINE
8
BLACK
6
CONTINUOUS
10
3.88569
20
-5.51111
11
3.89693
21
-5.51673
0
LINE
8
BLACK
6
CONTINUOUS
10
3.89693
20
-5.51673
11
3.90256
21
-5.52236
0
LINE
8
BLACK
6
CONTINUOUS
10
3.90256
20
-5.52236
11
3.90818
21
-5.53361
0
LINE
8
BLACK
6
CONTINUOUS
10
3.90818
20
-5.53361
11
3.91381
21
-5.5561
0
LINE
8
BLACK
6
CONTINUOUS
10
3.91381
20
-5.5561
11
3.91381
21
-5.58422
0
LINE
8
BLACK
6
CONTINUOUS
10
3.91381
20
-5.58422
11
3.90818
21
-5.60672
0
LINE
8
BLACK
6
CONTINUOUS
10
3.90818
20
-5.60672
11
3.90256
21
-5.61797
0
LINE
8
BLACK
6
CONTINUOUS
10
3.90256
20
-5.61797
11
3.89693
21
-5.62359
0
LINE
8
BLACK
6
CONTINUOUS
10
3.89693
20
-5.62359
11
3.88569
21
-5.62922
0
LINE
8
BLACK
6
CONTINUOUS
10
3.88569
20
-5.62922
11
3.87444
21
-5.62922
0
LINE
8
BLACK
6
CONTINUOUS
10
3.87444
20
-5.62922
11
3.86319
21
-5.62359
0
LINE
8
BLACK
6
CONTINUOUS
10
3.86319
20
-5.62359
11
3.85756
21
-5.61797
0
LINE
8
BLACK
6
CONTINUOUS
10
3.85756
20
-5.61797
11
3.85194
21
-5.60672
0
LINE
8
BLACK
6
CONTINUOUS
10
3.85194
20
-5.60672
11
3.84632
21
-5.58422
0
LINE
8
BLACK
6
CONTINUOUS
10
3.84632
20
-5.58422
11
3.84632
21
-5.5561
0
LINE
8
BLACK
6
CONTINUOUS
10
3.84632
20
-5.5561
11
3.85194
21
-5.53361
0
LINE
8
BLACK
6
CONTINUOUS
10
3.85194
20
-5.53361
11
3.85756
21
-5.52236
0
LINE
8
BLACK
6
CONTINUOUS
10
3.85756
20
-5.52236
11
3.86319
21
-5.51673
0
LINE
8
BLACK
6
CONTINUOUS
10
3.86319
20
-5.51673
11
3.87444
21
-5.51111
0
LINE
8
BLACK
6
CONTINUOUS
10
3.96443
20
-5.61797
11
3.97005
21
-5.62359
0
LINE
8
BLACK
6
CONTINUOUS
10
3.97005
20
-5.62359
11
3.96443
21
-5.62922
0
LINE
8
BLACK
6
CONTINUOUS
10
3.96443
20
-5.62922
11
3.9588
21
-5.62359
0
LINE
8
BLACK
6
CONTINUOUS
10
3.9588
20
-5.62359
11
3.96443
21
-5.61797
0
LINE
8
BLACK
6
CONTINUOUS
10
3.96443
20
-5.61797
11
3.96443
21
-5.62922
0
LINE
8
BLACK
6
CONTINUOUS
10
4.03754
20
-5.56173
11
4.02629
21
-5.5561
0
LINE
8
BLACK
6
CONTINUOUS
10
4.02629
20
-5.5561
11
4.02067
21
-5.55048
0
LINE
8
BLACK
6
CONTINUOUS
10
4.02067
20
-5.55048
11
4.01504
21
-5.53923
0
LINE
8
BLACK
6
CONTINUOUS
10
4.01504
20
-5.53923
11
4.01504
21
-5.53361
0
LINE
8
BLACK
6
CONTINUOUS
10
4.01504
20
-5.53361
11
4.02067
21
-5.52236
0
LINE
8
BLACK
6
CONTINUOUS
10
4.02067
20
-5.52236
11
4.02629
21
-5.51673
0
LINE
8
BLACK
6
CONTINUOUS
10
4.02629
20
-5.51673
11
4.03754
21
-5.51111
0
LINE
8
BLACK
6
CONTINUOUS
10
4.03754
20
-5.51111
11
4.06004
21
-5.51111
0
LINE
8
BLACK
6
CONTINUOUS
10
4.06004
20
-5.51111
11
4.07129
21
-5.51673
0
LINE
8
BLACK
6
CONTINUOUS
10
4.07129
20
-5.51673
11
4.07691
21
-5.52236
0
LINE
8
BLACK
6
CONTINUOUS
10
4.07691
20
-5.52236
11
4.08254
21
-5.53361
0
LINE
8
BLACK
6
CONTINUOUS
10
4.08254
20
-5.53361
11
4.08254
21
-5.53923
0
LINE
8
BLACK
6
CONTINUOUS
10
4.08254
20
-5.53923
11
4.07691
21
-5.55048
0
LINE
8
BLACK
6
CONTINUOUS
10
4.07691
20
-5.55048
11
4.07129
21
-5.5561
0
LINE
8
BLACK
6
CONTINUOUS
10
4.07129
20
-5.5561
11
4.06004
21
-5.56173
0
LINE
8
BLACK
6
CONTINUOUS
10
4.06004
20
-5.56173
11
4.03754
21
-5.56173
0
LINE
8
BLACK
6
CONTINUOUS
10
4.03754
20
-5.56173
11
4.02629
21
-5.56735
0
LINE
8
BLACK
6
CONTINUOUS
10
4.02629
20
-5.56735
11
4.02067
21
-5.57298
0
LINE
8
BLACK
6
CONTINUOUS
10
4.02067
20
-5.57298
11
4.01504
21
-5.58422
0
LINE
8
BLACK
6
CONTINUOUS
10
4.01504
20
-5.58422
11
4.01504
21
-5.60672
0
LINE
8
BLACK
6
CONTINUOUS
10
4.01504
20
-5.60672
11
4.02067
21
-5.61797
0
LINE
8
BLACK
6
CONTINUOUS
10
4.02067
20
-5.61797
11
4.02629
21
-5.62359
0
LINE
8
BLACK
6
CONTINUOUS
10
4.02629
20
-5.62359
11
4.03754
21
-5.62922
0
LINE
8
BLACK
6
CONTINUOUS
10
4.03754
20
-5.62922
11
4.06004
21
-5.62922
0
LINE
8
BLACK
6
CONTINUOUS
10
4.06004
20
-5.62922
11
4.07129
21
-5.62359
0
LINE
8
BLACK
6
CONTINUOUS
10
4.07129
20
-5.62359
11
4.07691
21
-5.61797
0
LINE
8
BLACK
6
CONTINUOUS
10
4.07691
20
-5.61797
11
4.08254
21
-5.60672
0
LINE
8
BLACK
6
CONTINUOUS
10
4.08254
20
-5.60672
11
4.08254
21
-5.58422
0
LINE
8
BLACK
6
CONTINUOUS
10
4.08254
20
-5.58422
11
4.07691
21
-5.57298
0
LINE
8
BLACK
6
CONTINUOUS
10
4.07691
20
-5.57298
11
4.07129
21
-5.56735
0
LINE
8
BLACK
6
CONTINUOUS
10
4.07129
20
-5.56735
11
4.06004
21
-5.56173
0
LINE
8
BLACK
6
CONTINUOUS
10
4.15565
20
-5.51111
11
4.1669
21
-5.51111
0
LINE
8
BLACK
6
CONTINUOUS
10
4.1669
20
-5.51111
11
4.17815
21
-5.51673
0
LINE
8
BLACK
6
CONTINUOUS
10
4.17815
20
-5.51673
11
4.18377
21
-5.52236
0
LINE
8
BLACK
6
CONTINUOUS
10
4.18377
20
-5.52236
11
4.1894
21
-5.53361
0
LINE
8
BLACK
6
CONTINUOUS
10
4.1894
20
-5.53361
11
4.19502
21
-5.5561
0
LINE
8
BLACK
6
CONTINUOUS
10
4.19502
20
-5.5561
11
4.19502
21
-5.58422
0
LINE
8
BLACK
6
CONTINUOUS
10
4.19502
20
-5.58422
11
4.1894
21
-5.60672
0
LINE
8
BLACK
6
CONTINUOUS
10
4.1894
20
-5.60672
11
4.18377
21
-5.61797
0
LINE
8
BLACK
6
CONTINUOUS
10
4.18377
20
-5.61797
11
4.17815
21
-5.62359
0
LINE
8
BLACK
6
CONTINUOUS
10
4.17815
20
-5.62359
11
4.1669
21
-5.62922
0
LINE
8
BLACK
6
CONTINUOUS
10
4.1669
20
-5.62922
11
4.15565
21
-5.62922
0
LINE
8
BLACK
6
CONTINUOUS
10
4.15565
20
-5.62922
11
4.1444
21
-5.62359
0
LINE
8
BLACK
6
CONTINUOUS
10
4.1444
20
-5.62359
11
4.13878
21
-5.61797
0
LINE
8
BLACK
6
CONTINUOUS
10
4.13878
20
-5.61797
11
4.13316
21
-5.60672
0
LINE
8
BLACK
6
CONTINUOUS
10
4.13316
20
-5.60672
11
4.12753
21
-5.58422
0
LINE
8
BLACK
6
CONTINUOUS
10
4.12753
20
-5.58422
11
4.12753
21
-5.5561
0
LINE
8
BLACK
6
CONTINUOUS
10
4.12753
20
-5.5561
11
4.13316
21
-5.53361
0
LINE
8
BLACK
6
CONTINUOUS
10
4.13316
20
-5.53361
11
4.13878
21
-5.52236
0
LINE
8
BLACK
6
CONTINUOUS
10
4.13878
20
-5.52236
11
4.1444
21
-5.51673
0
LINE
8
BLACK
6
CONTINUOUS
10
4.1444
20
-5.51673
11
4.15565
21
-5.51111
0
LINE
8
BLACK
6
CONTINUOUS
10
4.26814
20
-5.51111
11
4.27939
21
-5.51111
0
LINE
8
BLACK
6
CONTINUOUS
10
4.27939
20
-5.51111
11
4.29064
21
-5.51673
0
LINE
8
BLACK
6
CONTINUOUS
10
4.29064
20
-5.51673
11
4.29626
21
-5.52236
0
LINE
8
BLACK
6
CONTINUOUS
10
4.29626
20
-5.52236
11
4.30188
21
-5.53361
0
LINE
8
BLACK
6
CONTINUOUS
10
4.30188
20
-5.53361
11
4.30751
21
-5.5561
0
LINE
8
BLACK
6
CONTINUOUS
10
4.30751
20
-5.5561
11
4.30751
21
-5.58422
0
LINE
8
BLACK
6
CONTINUOUS
10
4.30751
20
-5.58422
11
4.30188
21
-5.60672
0
LINE
8
BLACK
6
CONTINUOUS
10
4.30188
20
-5.60672
11
4.29626
21
-5.61797
0
LINE
8
BLACK
6
CONTINUOUS
10
4.29626
20
-5.61797
11
4.29064
21
-5.62359
0
LINE
8
BLACK
6
CONTINUOUS
10
4.29064
20
-5.62359
11
4.27939
21
-5.62922
0
LINE
8
BLACK
6
CONTINUOUS
10
4.27939
20
-5.62922
11
4.26814
21
-5.62922
0
LINE
8
BLACK
6
CONTINUOUS
10
4.26814
20
-5.62922
11
4.25689
21
-5.62359
0
LINE
8
BLACK
6
CONTINUOUS
10
4.25689
20
-5.62359
11
4.25127
21
-5.61797
0
LINE
8
BLACK
6
CONTINUOUS
10
4.25127
20
-5.61797
11
4.24564
21
-5.60672
0
LINE
8
BLACK
6
CONTINUOUS
10
4.24564
20
-5.60672
11
4.24002
21
-5.58422
0
LINE
8
BLACK
6
CONTINUOUS
10
4.24002
20
-5.58422
11
4.24002
21
-5.5561
0
LINE
8
BLACK
6
CONTINUOUS
10
4.24002
20
-5.5561
11
4.24564
21
-5.53361
0
LINE
8
BLACK
6
CONTINUOUS
10
4.24564
20
-5.53361
11
4.25127
21
-5.52236
0
LINE
8
BLACK
6
CONTINUOUS
10
4.25127
20
-5.52236
11
4.25689
21
-5.51673
0
LINE
8
BLACK
6
CONTINUOUS
10
4.25689
20
-5.51673
11
4.26814
21
-5.51111
0
LINE
8
BLACK
6
CONTINUOUS
10
4.35813
20
-5.62922
11
4.35813
21
-5.55048
0
LINE
8
BLACK
6
CONTINUOUS
10
4.35813
20
-5.56173
11
4.36375
21
-5.5561
0
LINE
8
BLACK
6
CONTINUOUS
10
4.36375
20
-5.5561
11
4.375
21
-5.55048
0
LINE
8
BLACK
6
CONTINUOUS
10
4.375
20
-5.55048
11
4.39187
21
-5.55048
0
LINE
8
BLACK
6
CONTINUOUS
10
4.39187
20
-5.55048
11
4.40312
21
-5.5561
0
LINE
8
BLACK
6
CONTINUOUS
10
4.40312
20
-5.5561
11
4.40875
21
-5.56735
0
LINE
8
BLACK
6
CONTINUOUS
10
4.40875
20
-5.56735
11
4.40875
21
-5.62922
0
LINE
8
BLACK
6
CONTINUOUS
10
4.40875
20
-5.56735
11
4.41437
21
-5.5561
0
LINE
8
BLACK
6
CONTINUOUS
10
4.41437
20
-5.5561
11
4.42562
21
-5.55048
0
LINE
8
BLACK
6
CONTINUOUS
10
4.42562
20
-5.55048
11
4.44249
21
-5.55048
0
LINE
8
BLACK
6
CONTINUOUS
10
4.44249
20
-5.55048
11
4.45374
21
-5.5561
0
LINE
8
BLACK
6
CONTINUOUS
10
4.45374
20
-5.5561
11
4.45936
21
-5.56735
0
LINE
8
BLACK
6
CONTINUOUS
10
4.45936
20
-5.56735
11
4.45936
21
-5.62922
0
LINE
8
BLACK
6
CONTINUOUS
10
4.51561
20
-5.62922
11
4.51561
21
-5.55048
0
LINE
8
BLACK
6
CONTINUOUS
10
4.51561
20
-5.56173
11
4.52123
21
-5.5561
0
LINE
8
BLACK
6
CONTINUOUS
10
4.52123
20
-5.5561
11
4.53248
21
-5.55048
0
LINE
8
BLACK
6
CONTINUOUS
10
4.53248
20
-5.55048
11
4.54935
21
-5.55048
0
LINE
8
BLACK
6
CONTINUOUS
10
4.54935
20
-5.55048
11
4.5606
21
-5.5561
0
LINE
8
BLACK
6
CONTINUOUS
10
4.5606
20
-5.5561
11
4.56623
21
-5.56735
0
LINE
8
BLACK
6
CONTINUOUS
10
4.56623
20
-5.56735
11
4.56623
21
-5.62922
0
LINE
8
BLACK
6
CONTINUOUS
10
4.56623
20
-5.56735
11
4.57185
21
-5.5561
0
LINE
8
BLACK
6
CONTINUOUS
10
4.57185
20
-5.5561
11
4.5831
21
-5.55048
0
LINE
8
BLACK
6
CONTINUOUS
10
4.5831
20
-5.55048
11
4.59997
21
-5.55048
0
LINE
8
BLACK
6
CONTINUOUS
10
4.59997
20
-5.55048
11
4.61122
21
-5.5561
0
LINE
8
BLACK
6
CONTINUOUS
10
4.61122
20
-5.5561
11
4.61684
21
-5.56735
0
LINE
8
BLACK
6
CONTINUOUS
10
4.61684
20
-5.56735
11
4.61684
21
-5.62922
0
LINE
8
BLACK
6
CONTINUOUS
10
4.84744
20
-5.50548
11
4.7462
21
-5.65734
0
LINE
8
BLACK
6
CONTINUOUS
10
4.9993
20
-5.51111
11
5.01055
21
-5.51111
0
LINE
8
BLACK
6
CONTINUOUS
10
5.01055
20
-5.51111
11
5.02179
21
-5.51673
0
LINE
8
BLACK
6
CONTINUOUS
10
5.02179
20
-5.51673
11
5.02742
21
-5.52236
0
LINE
8
BLACK
6
CONTINUOUS
10
5.02742
20
-5.52236
11
5.03304
21
-5.53361
0
LINE
8
BLACK
6
CONTINUOUS
10
5.03304
20
-5.53361
11
5.03867
21
-5.5561
0
LINE
8
BLACK
6
CONTINUOUS
10
5.03867
20
-5.5561
11
5.03867
21
-5.58422
0
LINE
8
BLACK
6
CONTINUOUS
10
5.03867
20
-5.58422
11
5.03304
21
-5.60672
0
LINE
8
BLACK
6
CONTINUOUS
10
5.03304
20
-5.60672
11
5.02742
21
-5.61797
0
LINE
8
BLACK
6
CONTINUOUS
10
5.02742
20
-5.61797
11
5.02179
21
-5.62359
0
LINE
8
BLACK
6
CONTINUOUS
10
5.02179
20
-5.62359
11
5.01055
21
-5.62922
0
LINE
8
BLACK
6
CONTINUOUS
10
5.01055
20
-5.62922
11
4.9993
21
-5.62922
0
LINE
8
BLACK
6
CONTINUOUS
10
4.9993
20
-5.62922
11
4.98805
21
-5.62359
0
LINE
8
BLACK
6
CONTINUOUS
10
4.98805
20
-5.62359
11
4.98242
21
-5.61797
0
LINE
8
BLACK
6
CONTINUOUS
10
4.98242
20
-5.61797
11
4.9768
21
-5.60672
0
LINE
8
BLACK
6
CONTINUOUS
10
4.9768
20
-5.60672
11
4.97118
21
-5.58422
0
LINE
8
BLACK
6
CONTINUOUS
10
4.97118
20
-5.58422
11
4.97118
21
-5.5561
0
LINE
8
BLACK
6
CONTINUOUS
10
4.97118
20
-5.5561
11
4.9768
21
-5.53361
0
LINE
8
BLACK
6
CONTINUOUS
10
4.9768
20
-5.53361
11
4.98242
21
-5.52236
0
LINE
8
BLACK
6
CONTINUOUS
10
4.98242
20
-5.52236
11
4.98805
21
-5.51673
0
LINE
8
BLACK
6
CONTINUOUS
10
4.98805
20
-5.51673
11
4.9993
21
-5.51111
0
LINE
8
BLACK
6
CONTINUOUS
10
5.08929
20
-5.61797
11
5.09491
21
-5.62359
0
LINE
8
BLACK
6
CONTINUOUS
10
5.09491
20
-5.62359
11
5.08929
21
-5.62922
0
LINE
8
BLACK
6
CONTINUOUS
10
5.08929
20
-5.62922
11
5.08366
21
-5.62359
0
LINE
8
BLACK
6
CONTINUOUS
10
5.08366
20
-5.62359
11
5.08929
21
-5.61797
0
LINE
8
BLACK
6
CONTINUOUS
10
5.08929
20
-5.61797
11
5.08929
21
-5.62922
0
LINE
8
BLACK
6
CONTINUOUS
10
5.16803
20
-5.51111
11
5.17927
21
-5.51111
0
LINE
8
BLACK
6
CONTINUOUS
10
5.17927
20
-5.51111
11
5.19052
21
-5.51673
0
LINE
8
BLACK
6
CONTINUOUS
10
5.19052
20
-5.51673
11
5.19615
21
-5.52236
0
LINE
8
BLACK
6
CONTINUOUS
10
5.19615
20
-5.52236
11
5.20177
21
-5.53361
0
LINE
8
BLACK
6
CONTINUOUS
10
5.20177
20
-5.53361
11
5.2074
21
-5.5561
0
LINE
8
BLACK
6
CONTINUOUS
10
5.2074
20
-5.5561
11
5.2074
21
-5.58422
0
LINE
8
BLACK
6
CONTINUOUS
10
5.2074
20
-5.58422
11
5.20177
21
-5.60672
0
LINE
8
BLACK
6
CONTINUOUS
10
5.20177
20
-5.60672
11
5.19615
21
-5.61797
0
LINE
8
BLACK
6
CONTINUOUS
10
5.19615
20
-5.61797
11
5.19052
21
-5.62359
0
LINE
8
BLACK
6
CONTINUOUS
10
5.19052
20
-5.62359
11
5.17927
21
-5.62922
0
LINE
8
BLACK
6
CONTINUOUS
10
5.17927
20
-5.62922
11
5.16803
21
-5.62922
0
LINE
8
BLACK
6
CONTINUOUS
10
5.16803
20
-5.62922
11
5.15678
21
-5.62359
0
LINE
8
BLACK
6
CONTINUOUS
10
5.15678
20
-5.62359
11
5.15115
21
-5.61797
0
LINE
8
BLACK
6
CONTINUOUS
10
5.15115
20
-5.61797
11
5.14553
21
-5.60672
0
LINE
8
BLACK
6
CONTINUOUS
10
5.14553
20
-5.60672
11
5.1399
21
-5.58422
0
LINE
8
BLACK
6
CONTINUOUS
10
5.1399
20
-5.58422
11
5.1399
21
-5.5561
0
LINE
8
BLACK
6
CONTINUOUS
10
5.1399
20
-5.5561
11
5.14553
21
-5.53361
0
LINE
8
BLACK
6
CONTINUOUS
10
5.14553
20
-5.53361
11
5.15115
21
-5.52236
0
LINE
8
BLACK
6
CONTINUOUS
10
5.15115
20
-5.52236
11
5.15678
21
-5.51673
0
LINE
8
BLACK
6
CONTINUOUS
10
5.15678
20
-5.51673
11
5.16803
21
-5.51111
0
LINE
8
BLACK
6
CONTINUOUS
10
5.24677
20
-5.51111
11
5.31988
21
-5.51111
0
LINE
8
BLACK
6
CONTINUOUS
10
5.31988
20
-5.51111
11
5.28051
21
-5.5561
0
LINE
8
BLACK
6
CONTINUOUS
10
5.28051
20
-5.5561
11
5.29738
21
-5.5561
0
LINE
8
BLACK
6
CONTINUOUS
10
5.29738
20
-5.5561
11
5.30863
21
-5.56173
0
LINE
8
BLACK
6
CONTINUOUS
10
5.30863
20
-5.56173
11
5.31426
21
-5.56735
0
LINE
8
BLACK
6
CONTINUOUS
10
5.31426
20
-5.56735
11
5.31988
21
-5.5786
0
LINE
8
BLACK
6
CONTINUOUS
10
5.31988
20
-5.5786
11
5.31988
21
-5.60672
0
LINE
8
BLACK
6
CONTINUOUS
10
5.31988
20
-5.60672
11
5.31426
21
-5.61797
0
LINE
8
BLACK
6
CONTINUOUS
10
5.31426
20
-5.61797
11
5.30863
21
-5.62359
0
LINE
8
BLACK
6
CONTINUOUS
10
5.30863
20
-5.62359
11
5.29738
21
-5.62922
0
LINE
8
BLACK
6
CONTINUOUS
10
5.29738
20
-5.62922
11
5.26364
21
-5.62922
0
LINE
8
BLACK
6
CONTINUOUS
10
5.26364
20
-5.62922
11
5.25239
21
-5.62359
0
LINE
8
BLACK
6
CONTINUOUS
10
5.25239
20
-5.62359
11
5.24677
21
-5.61797
0
LINE
8
BLACK
6
CONTINUOUS
10
5.43237
20
-5.62922
11
5.36488
21
-5.62922
0
LINE
8
BLACK
6
CONTINUOUS
10
5.39862
20
-5.62922
11
5.39862
21
-5.51111
0
LINE
8
BLACK
6
CONTINUOUS
10
5.39862
20
-5.51111
11
5.38737
21
-5.52798
0
LINE
8
BLACK
6
CONTINUOUS
10
5.38737
20
-5.52798
11
5.37612
21
-5.53923
0
LINE
8
BLACK
6
CONTINUOUS
10
5.37612
20
-5.53923
11
5.36488
21
-5.54485
0
LINE
8
BLACK
6
CONTINUOUS
10
5.53923
20
-5.51111
11
5.48299
21
-5.51111
0
LINE
8
BLACK
6
CONTINUOUS
10
5.48299
20
-5.51111
11
5.47736
21
-5.56735
0
LINE
8
BLACK
6
CONTINUOUS
10
5.47736
20
-5.56735
11
5.48299
21
-5.56173
0
LINE
8
BLACK
6
CONTINUOUS
10
5.48299
20
-5.56173
11
5.49424
21
-5.5561
0
LINE
8
BLACK
6
CONTINUOUS
10
5.49424
20
-5.5561
11
5.52236
21
-5.5561
0
LINE
8
BLACK
6
CONTINUOUS
10
5.52236
20
-5.5561
11
5.53361
21
-5.56173
0
LINE
8
BLACK
6
CONTINUOUS
10
5.53361
20
-5.56173
11
5.53923
21
-5.56735
0
LINE
8
BLACK
6
CONTINUOUS
10
5.53923
20
-5.56735
11
5.54485
21
-5.5786
0
LINE
8
BLACK
6
CONTINUOUS
10
5.54485
20
-5.5786
11
5.54485
21
-5.60672
0
LINE
8
BLACK
6
CONTINUOUS
10
5.54485
20
-5.60672
11
5.53923
21
-5.61797
0
LINE
8
BLACK
6
CONTINUOUS
10
5.53923
20
-5.61797
11
5.53361
21
-5.62359
0
LINE
8
BLACK
6
CONTINUOUS
10
5.53361
20
-5.62359
11
5.52236
21
-5.62922
0
LINE
8
BLACK
6
CONTINUOUS
10
5.52236
20
-5.62922
11
5.49424
21
-5.62922
0
LINE
8
BLACK
6
CONTINUOUS
10
5.49424
20
-5.62922
11
5.48299
21
-5.62359
0
LINE
8
BLACK
6
CONTINUOUS
10
5.48299
20
-5.62359
11
5.47736
21
-5.61797
0
LINE
8
BLACK
6
CONTINUOUS
10
5.58985
20
-5.51111
11
5.58985
21
-5.53361
0
LINE
8
BLACK
6
CONTINUOUS
10
5.63484
20
-5.51111
11
5.63484
21
-5.53361
0
LINE
8
BLACK
6
CONTINUOUS
10
5.8092
20
-5.67421
11
5.80357
21
-5.66859
0
LINE
8
BLACK
6
CONTINUOUS
10
5.80357
20
-5.66859
11
5.79232
21
-5.65172
0
LINE
8
BLACK
6
CONTINUOUS
10
5.79232
20
-5.65172
11
5.7867
21
-5.64047
0
LINE
8
BLACK
6
CONTINUOUS
10
5.7867
20
-5.64047
11
5.78107
21
-5.62359
0
LINE
8
BLACK
6
CONTINUOUS
10
5.78107
20
-5.62359
11
5.77545
21
-5.59547
0
LINE
8
BLACK
6
CONTINUOUS
10
5.77545
20
-5.59547
11
5.77545
21
-5.57298
0
LINE
8
BLACK
6
CONTINUOUS
10
5.77545
20
-5.57298
11
5.78107
21
-5.54485
0
LINE
8
BLACK
6
CONTINUOUS
10
5.78107
20
-5.54485
11
5.7867
21
-5.52798
0
LINE
8
BLACK
6
CONTINUOUS
10
5.7867
20
-5.52798
11
5.79232
21
-5.51673
0
LINE
8
BLACK
6
CONTINUOUS
10
5.79232
20
-5.51673
11
5.80357
21
-5.49986
0
LINE
8
BLACK
6
CONTINUOUS
10
5.80357
20
-5.49986
11
5.8092
21
-5.49424
0
LINE
8
BLACK
6
CONTINUOUS
10
5.90481
20
-5.55048
11
5.90481
21
-5.62922
0
LINE
8
BLACK
6
CONTINUOUS
10
5.87669
20
-5.50548
11
5.84857
21
-5.58985
0
LINE
8
BLACK
6
CONTINUOUS
10
5.84857
20
-5.58985
11
5.92168
21
-5.58985
0
LINE
8
BLACK
6
CONTINUOUS
10
6.05666
20
-5.62922
11
6.05666
21
-5.51111
0
LINE
8
BLACK
6
CONTINUOUS
10
6.10728
20
-5.62922
11
6.10728
21
-5.56735
0
LINE
8
BLACK
6
CONTINUOUS
10
6.10728
20
-5.56735
11
6.10166
21
-5.5561
0
LINE
8
BLACK
6
CONTINUOUS
10
6.10166
20
-5.5561
11
6.09041
21
-5.55048
0
LINE
8
BLACK
6
CONTINUOUS
10
6.09041
20
-5.55048
11
6.07354
21
-5.55048
0
LINE
8
BLACK
6
CONTINUOUS
10
6.07354
20
-5.55048
11
6.06229
21
-5.5561
0
LINE
8
BLACK
6
CONTINUOUS
10
6.06229
20
-5.5561
11
6.05666
21
-5.56173
0
LINE
8
BLACK
6
CONTINUOUS
10
6.1804
20
-5.62922
11
6.16915
21
-5.62359
0
LINE
8
BLACK
6
CONTINUOUS
10
6.16915
20
-5.62359
11
6.16353
21
-5.61797
0
LINE
8
BLACK
6
CONTINUOUS
10
6.16353
20
-5.61797
11
6.1579
21
-5.60672
0
LINE
8
BLACK
6
CONTINUOUS
10
6.1579
20
-5.60672
11
6.1579
21
-5.57298
0
LINE
8
BLACK
6
CONTINUOUS
10
6.1579
20
-5.57298
11
6.16353
21
-5.56173
0
LINE
8
BLACK
6
CONTINUOUS
10
6.16353
20
-5.56173
11
6.16915
21
-5.5561
0
LINE
8
BLACK
6
CONTINUOUS
10
6.16915
20
-5.5561
11
6.1804
21
-5.55048
0
LINE
8
BLACK
6
CONTINUOUS
10
6.1804
20
-5.55048
11
6.19727
21
-5.55048
0
LINE
8
BLACK
6
CONTINUOUS
10
6.19727
20
-5.55048
11
6.20852
21
-5.5561
0
LINE
8
BLACK
6
CONTINUOUS
10
6.20852
20
-5.5561
11
6.21415
21
-5.56173
0
LINE
8
BLACK
6
CONTINUOUS
10
6.21415
20
-5.56173
11
6.21977
21
-5.57298
0
LINE
8
BLACK
6
CONTINUOUS
10
6.21977
20
-5.57298
11
6.21977
21
-5.60672
0
LINE
8
BLACK
6
CONTINUOUS
10
6.21977
20
-5.60672
11
6.21415
21
-5.61797
0
LINE
8
BLACK
6
CONTINUOUS
10
6.21415
20
-5.61797
11
6.20852
21
-5.62359
0
LINE
8
BLACK
6
CONTINUOUS
10
6.20852
20
-5.62359
11
6.19727
21
-5.62922
0
LINE
8
BLACK
6
CONTINUOUS
10
6.19727
20
-5.62922
11
6.1804
21
-5.62922
0
LINE
8
BLACK
6
CONTINUOUS
10
6.28726
20
-5.62922
11
6.27601
21
-5.62359
0
LINE
8
BLACK
6
CONTINUOUS
10
6.27601
20
-5.62359
11
6.27039
21
-5.61235
0
LINE
8
BLACK
6
CONTINUOUS
10
6.27039
20
-5.61235
11
6.27039
21
-5.51111
0
LINE
8
BLACK
6
CONTINUOUS
10
6.37725
20
-5.62359
11
6.366
21
-5.62922
0
LINE
8
BLACK
6
CONTINUOUS
10
6.366
20
-5.62922
11
6.3435
21
-5.62922
0
LINE
8
BLACK
6
CONTINUOUS
10
6.3435
20
-5.62922
11
6.33226
21
-5.62359
0
LINE
8
BLACK
6
CONTINUOUS
10
6.33226
20
-5.62359
11
6.32663
21
-5.61235
0
LINE
8
BLACK
6
CONTINUOUS
10
6.32663
20
-5.61235
11
6.32663
21
-5.56735
0
LINE
8
BLACK
6
CONTINUOUS
10
6.32663
20
-5.56735
11
6.33226
21
-5.5561
0
LINE
8
BLACK
6
CONTINUOUS
10
6.33226
20
-5.5561
11
6.3435
21
-5.55048
0
LINE
8
BLACK
6
CONTINUOUS
10
6.3435
20
-5.55048
11
6.366
21
-5.55048
0
LINE
8
BLACK
6
CONTINUOUS
10
6.366
20
-5.55048
11
6.37725
21
-5.5561
0
LINE
8
BLACK
6
CONTINUOUS
10
6.37725
20
-5.5561
11
6.38287
21
-5.56735
0
LINE
8
BLACK
6
CONTINUOUS
10
6.38287
20
-5.56735
11
6.38287
21
-5.5786
0
LINE
8
BLACK
6
CONTINUOUS
10
6.38287
20
-5.5786
11
6.32663
21
-5.58985
0
LINE
8
BLACK
6
CONTINUOUS
10
6.42787
20
-5.62359
11
6.43912
21
-5.62922
0
LINE
8
BLACK
6
CONTINUOUS
10
6.43912
20
-5.62922
11
6.46161
21
-5.62922
0
LINE
8
BLACK
6
CONTINUOUS
10
6.46161
20
-5.62922
11
6.47286
21
-5.62359
0
LINE
8
BLACK
6
CONTINUOUS
10
6.47286
20
-5.62359
11
6.47849
21
-5.61235
0
LINE
8
BLACK
6
CONTINUOUS
10
6.47849
20
-5.61235
11
6.47849
21
-5.60672
0
LINE
8
BLACK
6
CONTINUOUS
10
6.47849
20
-5.60672
11
6.47286
21
-5.59547
0
LINE
8
BLACK
6
CONTINUOUS
10
6.47286
20
-5.59547
11
6.46161
21
-5.58985
0
LINE
8
BLACK
6
CONTINUOUS
10
6.46161
20
-5.58985
11
6.44474
21
-5.58985
0
LINE
8
BLACK
6
CONTINUOUS
10
6.44474
20
-5.58985
11
6.43349
21
-5.58422
0
LINE
8
BLACK
6
CONTINUOUS
10
6.43349
20
-5.58422
11
6.42787
21
-5.57298
0
LINE
8
BLACK
6
CONTINUOUS
10
6.42787
20
-5.57298
11
6.42787
21
-5.56735
0
LINE
8
BLACK
6
CONTINUOUS
10
6.42787
20
-5.56735
11
6.43349
21
-5.5561
0
LINE
8
BLACK
6
CONTINUOUS
10
6.43349
20
-5.5561
11
6.44474
21
-5.55048
0
LINE
8
BLACK
6
CONTINUOUS
10
6.44474
20
-5.55048
11
6.46161
21
-5.55048
0
LINE
8
BLACK
6
CONTINUOUS
10
6.46161
20
-5.55048
11
6.47286
21
-5.5561
0
LINE
8
BLACK
6
CONTINUOUS
10
6.51786
20
-5.67421
11
6.52348
21
-5.66859
0
LINE
8
BLACK
6
CONTINUOUS
10
6.52348
20
-5.66859
11
6.53473
21
-5.65172
0
LINE
8
BLACK
6
CONTINUOUS
10
6.53473
20
-5.65172
11
6.54035
21
-5.64047
0
LINE
8
BLACK
6
CONTINUOUS
10
6.54035
20
-5.64047
11
6.54598
21
-5.62359
0
LINE
8
BLACK
6
CONTINUOUS
10
6.54598
20
-5.62359
11
6.5516
21
-5.59547
0
LINE
8
BLACK
6
CONTINUOUS
10
6.5516
20
-5.59547
11
6.5516
21
-5.57298
0
LINE
8
BLACK
6
CONTINUOUS
10
6.5516
20
-5.57298
11
6.54598
21
-5.54485
0
LINE
8
BLACK
6
CONTINUOUS
10
6.54598
20
-5.54485
11
6.54035
21
-5.52798
0
LINE
8
BLACK
6
CONTINUOUS
10
6.54035
20
-5.52798
11
6.53473
21
-5.51673
0
LINE
8
BLACK
6
CONTINUOUS
10
6.53473
20
-5.51673
11
6.52348
21
-5.49986
0
LINE
8
BLACK
6
CONTINUOUS
10
6.52348
20
-5.49986
11
6.51786
21
-5.49424
0
CIRCLE
8
BLACK
10
3.71949
20
-5.73169
40
0.019685
0
LINE
8
BLACK
6
CONTINUOUS
10
3.91381
20
-5.78512
11
3.84632
21
-5.78512
0
LINE
8
BLACK
6
CONTINUOUS
10
3.88006
20
-5.78512
11
3.88006
21
-5.66701
0
LINE
8
BLACK
6
CONTINUOUS
10
3.88006
20
-5.66701
11
3.86881
21
-5.68389
0
LINE
8
BLACK
6
CONTINUOUS
10
3.86881
20
-5.68389
11
3.85756
21
-5.69513
0
LINE
8
BLACK
6
CONTINUOUS
10
3.85756
20
-5.69513
11
3.84632
21
-5.70076
0
LINE
8
BLACK
6
CONTINUOUS
10
3.96443
20
-5.77388
11
3.97005
21
-5.7795
0
LINE
8
BLACK
6
CONTINUOUS
10
3.97005
20
-5.7795
11
3.96443
21
-5.78512
0
LINE
8
BLACK
6
CONTINUOUS
10
3.96443
20
-5.78512
11
3.9588
21
-5.7795
0
LINE
8
BLACK
6
CONTINUOUS
10
3.9588
20
-5.7795
11
3.96443
21
-5.77388
0
LINE
8
BLACK
6
CONTINUOUS
10
3.96443
20
-5.77388
11
3.96443
21
-5.78512
0
LINE
8
BLACK
6
CONTINUOUS
10
4.04317
20
-5.66701
11
4.05441
21
-5.66701
0
LINE
8
BLACK
6
CONTINUOUS
10
4.05441
20
-5.66701
11
4.06566
21
-5.67264
0
LINE
8
BLACK
6
CONTINUOUS
10
4.06566
20
-5.67264
11
4.07129
21
-5.67826
0
LINE
8
BLACK
6
CONTINUOUS
10
4.07129
20
-5.67826
11
4.07691
21
-5.68951
0
LINE
8
BLACK
6
CONTINUOUS
10
4.07691
20
-5.68951
11
4.08254
21
-5.71201
0
LINE
8
BLACK
6
CONTINUOUS
10
4.08254
20
-5.71201
11
4.08254
21
-5.74013
0
LINE
8
BLACK
6
CONTINUOUS
10
4.08254
20
-5.74013
11
4.07691
21
-5.76263
0
LINE
8
BLACK
6
CONTINUOUS
10
4.07691
20
-5.76263
11
4.07129
21
-5.77388
0
LINE
8
BLACK
6
CONTINUOUS
10
4.07129
20
-5.77388
11
4.06566
21
-5.7795
0
LINE
8
BLACK
6
CONTINUOUS
10
4.06566
20
-5.7795
11
4.05441
21
-5.78512
0
LINE
8
BLACK
6
CONTINUOUS
10
4.05441
20
-5.78512
11
4.04317
21
-5.78512
0
LINE
8
BLACK
6
CONTINUOUS
10
4.04317
20
-5.78512
11
4.03192
21
-5.7795
0
LINE
8
BLACK
6
CONTINUOUS
10
4.03192
20
-5.7795
11
4.02629
21
-5.77388
0
LINE
8
BLACK
6
CONTINUOUS
10
4.02629
20
-5.77388
11
4.02067
21
-5.76263
0
LINE
8
BLACK
6
CONTINUOUS
10
4.02067
20
-5.76263
11
4.01504
21
-5.74013
0
LINE
8
BLACK
6
CONTINUOUS
10
4.01504
20
-5.74013
11
4.01504
21
-5.71201
0
LINE
8
BLACK
6
CONTINUOUS
10
4.01504
20
-5.71201
11
4.02067
21
-5.68951
0
LINE
8
BLACK
6
CONTINUOUS
10
4.02067
20
-5.68951
11
4.02629
21
-5.67826
0
LINE
8
BLACK
6
CONTINUOUS
10
4.02629
20
-5.67826
11
4.03192
21
-5.67264
0
LINE
8
BLACK
6
CONTINUOUS
10
4.03192
20
-5.67264
11
4.04317
21
-5.66701
0
LINE
8
BLACK
6
CONTINUOUS
10
4.15565
20
-5.66701
11
4.1669
21
-5.66701
0
LINE
8
BLACK
6
CONTINUOUS
10
4.1669
20
-5.66701
11
4.17815
21
-5.67264
0
LINE
8
BLACK
6
CONTINUOUS
10
4.17815
20
-5.67264
11
4.18377
21
-5.67826
0
LINE
8
BLACK
6
CONTINUOUS
10
4.18377
20
-5.67826
11
4.1894
21
-5.68951
0
LINE
8
BLACK
6
CONTINUOUS
10
4.1894
20
-5.68951
11
4.19502
21
-5.71201
0
LINE
8
BLACK
6
CONTINUOUS
10
4.19502
20
-5.71201
11
4.19502
21
-5.74013
0
LINE
8
BLACK
6
CONTINUOUS
10
4.19502
20
-5.74013
11
4.1894
21
-5.76263
0
LINE
8
BLACK
6
CONTINUOUS
10
4.1894
20
-5.76263
11
4.18377
21
-5.77388
0
LINE
8
BLACK
6
CONTINUOUS
10
4.18377
20
-5.77388
11
4.17815
21
-5.7795
0
LINE
8
BLACK
6
CONTINUOUS
10
4.17815
20
-5.7795
11
4.1669
21
-5.78512
0
LINE
8
BLACK
6
CONTINUOUS
10
4.1669
20
-5.78512
11
4.15565
21
-5.78512
0
LINE
8
BLACK
6
CONTINUOUS
10
4.15565
20
-5.78512
11
4.1444
21
-5.7795
0
LINE
8
BLACK
6
CONTINUOUS
10
4.1444
20
-5.7795
11
4.13878
21
-5.77388
0
LINE
8
BLACK
6
CONTINUOUS
10
4.13878
20
-5.77388
11
4.13316
21
-5.76263
0
LINE
8
BLACK
6
CONTINUOUS
10
4.13316
20
-5.76263
11
4.12753
21
-5.74013
0
LINE
8
BLACK
6
CONTINUOUS
10
4.12753
20
-5.74013
11
4.12753
21
-5.71201
0
LINE
8
BLACK
6
CONTINUOUS
10
4.12753
20
-5.71201
11
4.13316
21
-5.68951
0
LINE
8
BLACK
6
CONTINUOUS
10
4.13316
20
-5.68951
11
4.13878
21
-5.67826
0
LINE
8
BLACK
6
CONTINUOUS
10
4.13878
20
-5.67826
11
4.1444
21
-5.67264
0
LINE
8
BLACK
6
CONTINUOUS
10
4.1444
20
-5.67264
11
4.15565
21
-5.66701
0
LINE
8
BLACK
6
CONTINUOUS
10
4.26814
20
-5.66701
11
4.27939
21
-5.66701
0
LINE
8
BLACK
6
CONTINUOUS
10
4.27939
20
-5.66701
11
4.29064
21
-5.67264
0
LINE
8
BLACK
6
CONTINUOUS
10
4.29064
20
-5.67264
11
4.29626
21
-5.67826
0
LINE
8
BLACK
6
CONTINUOUS
10
4.29626
20
-5.67826
11
4.30188
21
-5.68951
0
LINE
8
BLACK
6
CONTINUOUS
10
4.30188
20
-5.68951
11
4.30751
21
-5.71201
0
LINE
8
BLACK
6
CONTINUOUS
10
4.30751
20
-5.71201
11
4.30751
21
-5.74013
0
LINE
8
BLACK
6
CONTINUOUS
10
4.30751
20
-5.74013
11
4.30188
21
-5.76263
0
LINE
8
BLACK
6
CONTINUOUS
10
4.30188
20
-5.76263
11
4.29626
21
-5.77388
0
LINE
8
BLACK
6
CONTINUOUS
10
4.29626
20
-5.77388
11
4.29064
21
-5.7795
0
LINE
8
BLACK
6
CONTINUOUS
10
4.29064
20
-5.7795
11
4.27939
21
-5.78512
0
LINE
8
BLACK
6
CONTINUOUS
10
4.27939
20
-5.78512
11
4.26814
21
-5.78512
0
LINE
8
BLACK
6
CONTINUOUS
10
4.26814
20
-5.78512
11
4.25689
21
-5.7795
0
LINE
8
BLACK
6
CONTINUOUS
10
4.25689
20
-5.7795
11
4.25127
21
-5.77388
0
LINE
8
BLACK
6
CONTINUOUS
10
4.25127
20
-5.77388
11
4.24564
21
-5.76263
0
LINE
8
BLACK
6
CONTINUOUS
10
4.24564
20
-5.76263
11
4.24002
21
-5.74013
0
LINE
8
BLACK
6
CONTINUOUS
10
4.24002
20
-5.74013
11
4.24002
21
-5.71201
0
LINE
8
BLACK
6
CONTINUOUS
10
4.24002
20
-5.71201
11
4.24564
21
-5.68951
0
LINE
8
BLACK
6
CONTINUOUS
10
4.24564
20
-5.68951
11
4.25127
21
-5.67826
0
LINE
8
BLACK
6
CONTINUOUS
10
4.25127
20
-5.67826
11
4.25689
21
-5.67264
0
LINE
8
BLACK
6
CONTINUOUS
10
4.25689
20
-5.67264
11
4.26814
21
-5.66701
0
LINE
8
BLACK
6
CONTINUOUS
10
4.35813
20
-5.78512
11
4.35813
21
-5.70638
0
LINE
8
BLACK
6
CONTINUOUS
10
4.35813
20
-5.71763
11
4.36375
21
-5.71201
0
LINE
8
BLACK
6
CONTINUOUS
10
4.36375
20
-5.71201
11
4.375
21
-5.70638
0
LINE
8
BLACK
6
CONTINUOUS
10
4.375
20
-5.70638
11
4.39187
21
-5.70638
0
LINE
8
BLACK
6
CONTINUOUS
10
4.39187
20
-5.70638
11
4.40312
21
-5.71201
0
LINE
8
BLACK
6
CONTINUOUS
10
4.40312
20
-5.71201
11
4.40875
21
-5.72326
0
LINE
8
BLACK
6
CONTINUOUS
10
4.40875
20
-5.72326
11
4.40875
21
-5.78512
0
LINE
8
BLACK
6
CONTINUOUS
10
4.40875
20
-5.72326
11
4.41437
21
-5.71201
0
LINE
8
BLACK
6
CONTINUOUS
10
4.41437
20
-5.71201
11
4.42562
21
-5.70638
0
LINE
8
BLACK
6
CONTINUOUS
10
4.42562
20
-5.70638
11
4.44249
21
-5.70638
0
LINE
8
BLACK
6
CONTINUOUS
10
4.44249
20
-5.70638
11
4.45374
21
-5.71201
0
LINE
8
BLACK
6
CONTINUOUS
10
4.45374
20
-5.71201
11
4.45936
21
-5.72326
0
LINE
8
BLACK
6
CONTINUOUS
10
4.45936
20
-5.72326
11
4.45936
21
-5.78512
0
LINE
8
BLACK
6
CONTINUOUS
10
4.51561
20
-5.78512
11
4.51561
21
-5.70638
0
LINE
8
BLACK
6
CONTINUOUS
10
4.51561
20
-5.71763
11
4.52123
21
-5.71201
0
LINE
8
BLACK
6
CONTINUOUS
10
4.52123
20
-5.71201
11
4.53248
21
-5.70638
0
LINE
8
BLACK
6
CONTINUOUS
10
4.53248
20
-5.70638
11
4.54935
21
-5.70638
0
LINE
8
BLACK
6
CONTINUOUS
10
4.54935
20
-5.70638
11
4.5606
21
-5.71201
0
LINE
8
BLACK
6
CONTINUOUS
10
4.5606
20
-5.71201
11
4.56623
21
-5.72326
0
LINE
8
BLACK
6
CONTINUOUS
10
4.56623
20
-5.72326
11
4.56623
21
-5.78512
0
LINE
8
BLACK
6
CONTINUOUS
10
4.56623
20
-5.72326
11
4.57185
21
-5.71201
0
LINE
8
BLACK
6
CONTINUOUS
10
4.57185
20
-5.71201
11
4.5831
21
-5.70638
0
LINE
8
BLACK
6
CONTINUOUS
10
4.5831
20
-5.70638
11
4.59997
21
-5.70638
0
LINE
8
BLACK
6
CONTINUOUS
10
4.59997
20
-5.70638
11
4.61122
21
-5.71201
0
LINE
8
BLACK
6
CONTINUOUS
10
4.61122
20
-5.71201
11
4.61684
21
-5.72326
0
LINE
8
BLACK
6
CONTINUOUS
10
4.61684
20
-5.72326
11
4.61684
21
-5.78512
0
LINE
8
BLACK
6
CONTINUOUS
10
4.84744
20
-5.66139
11
4.7462
21
-5.81325
0
LINE
8
BLACK
6
CONTINUOUS
10
4.9993
20
-5.66701
11
5.01055
21
-5.66701
0
LINE
8
BLACK
6
CONTINUOUS
10
5.01055
20
-5.66701
11
5.02179
21
-5.67264
0
LINE
8
BLACK
6
CONTINUOUS
10
5.02179
20
-5.67264
11
5.02742
21
-5.67826
0
LINE
8
BLACK
6
CONTINUOUS
10
5.02742
20
-5.67826
11
5.03304
21
-5.68951
0
LINE
8
BLACK
6
CONTINUOUS
10
5.03304
20
-5.68951
11
5.03867
21
-5.71201
0
LINE
8
BLACK
6
CONTINUOUS
10
5.03867
20
-5.71201
11
5.03867
21
-5.74013
0
LINE
8
BLACK
6
CONTINUOUS
10
5.03867
20
-5.74013
11
5.03304
21
-5.76263
0
LINE
8
BLACK
6
CONTINUOUS
10
5.03304
20
-5.76263
11
5.02742
21
-5.77388
0
LINE
8
BLACK
6
CONTINUOUS
10
5.02742
20
-5.77388
11
5.02179
21
-5.7795
0
LINE
8
BLACK
6
CONTINUOUS
10
5.02179
20
-5.7795
11
5.01055
21
-5.78512
0
LINE
8
BLACK
6
CONTINUOUS
10
5.01055
20
-5.78512
11
4.9993
21
-5.78512
0
LINE
8
BLACK
6
CONTINUOUS
10
4.9993
20
-5.78512
11
4.98805
21
-5.7795
0
LINE
8
BLACK
6
CONTINUOUS
10
4.98805
20
-5.7795
11
4.98242
21
-5.77388
0
LINE
8
BLACK
6
CONTINUOUS
10
4.98242
20
-5.77388
11
4.9768
21
-5.76263
0
LINE
8
BLACK
6
CONTINUOUS
10
4.9768
20
-5.76263
11
4.97118
21
-5.74013
0
LINE
8
BLACK
6
CONTINUOUS
10
4.97118
20
-5.74013
11
4.97118
21
-5.71201
0
LINE
8
BLACK
6
CONTINUOUS
10
4.97118
20
-5.71201
11
4.9768
21
-5.68951
0
LINE
8
BLACK
6
CONTINUOUS
10
4.9768
20
-5.68951
11
4.98242
21
-5.67826
0
LINE
8
BLACK
6
CONTINUOUS
10
4.98242
20
-5.67826
11
4.98805
21
-5.67264
0
LINE
8
BLACK
6
CONTINUOUS
10
4.98805
20
-5.67264
11
4.9993
21
-5.66701
0
LINE
8
BLACK
6
CONTINUOUS
10
5.08929
20
-5.77388
11
5.09491
21
-5.7795
0
LINE
8
BLACK
6
CONTINUOUS
10
5.09491
20
-5.7795
11
5.08929
21
-5.78512
0
LINE
8
BLACK
6
CONTINUOUS
10
5.08929
20
-5.78512
11
5.08366
21
-5.7795
0
LINE
8
BLACK
6
CONTINUOUS
10
5.08366
20
-5.7795
11
5.08929
21
-5.77388
0
LINE
8
BLACK
6
CONTINUOUS
10
5.08929
20
-5.77388
11
5.08929
21
-5.78512
0
LINE
8
BLACK
6
CONTINUOUS
10
5.16803
20
-5.66701
11
5.17927
21
-5.66701
0
LINE
8
BLACK
6
CONTINUOUS
10
5.17927
20
-5.66701
11
5.19052
21
-5.67264
0
LINE
8
BLACK
6
CONTINUOUS
10
5.19052
20
-5.67264
11
5.19615
21
-5.67826
0
LINE
8
BLACK
6
CONTINUOUS
10
5.19615
20
-5.67826
11
5.20177
21
-5.68951
0
LINE
8
BLACK
6
CONTINUOUS
10
5.20177
20
-5.68951
11
5.2074
21
-5.71201
0
LINE
8
BLACK
6
CONTINUOUS
10
5.2074
20
-5.71201
11
5.2074
21
-5.74013
0
LINE
8
BLACK
6
CONTINUOUS
10
5.2074
20
-5.74013
11
5.20177
21
-5.76263
0
LINE
8
BLACK
6
CONTINUOUS
10
5.20177
20
-5.76263
11
5.19615
21
-5.77388
0
LINE
8
BLACK
6
CONTINUOUS
10
5.19615
20
-5.77388
11
5.19052
21
-5.7795
0
LINE
8
BLACK
6
CONTINUOUS
10
5.19052
20
-5.7795
11
5.17927
21
-5.78512
0
LINE
8
BLACK
6
CONTINUOUS
10
5.17927
20
-5.78512
11
5.16803
21
-5.78512
0
LINE
8
BLACK
6
CONTINUOUS
10
5.16803
20
-5.78512
11
5.15678
21
-5.7795
0
LINE
8
BLACK
6
CONTINUOUS
10
5.15678
20
-5.7795
11
5.15115
21
-5.77388
0
LINE
8
BLACK
6
CONTINUOUS
10
5.15115
20
-5.77388
11
5.14553
21
-5.76263
0
LINE
8
BLACK
6
CONTINUOUS
10
5.14553
20
-5.76263
11
5.1399
21
-5.74013
0
LINE
8
BLACK
6
CONTINUOUS
10
5.1399
20
-5.74013
11
5.1399
21
-5.71201
0
LINE
8
BLACK
6
CONTINUOUS
10
5.1399
20
-5.71201
11
5.14553
21
-5.68951
0
LINE
8
BLACK
6
CONTINUOUS
10
5.14553
20
-5.68951
11
5.15115
21
-5.67826
0
LINE
8
BLACK
6
CONTINUOUS
10
5.15115
20
-5.67826
11
5.15678
21
-5.67264
0
LINE
8
BLACK
6
CONTINUOUS
10
5.15678
20
-5.67264
11
5.16803
21
-5.66701
0
LINE
8
BLACK
6
CONTINUOUS
10
5.24677
20
-5.66701
11
5.31988
21
-5.66701
0
LINE
8
BLACK
6
CONTINUOUS
10
5.31988
20
-5.66701
11
5.28051
21
-5.71201
0
LINE
8
BLACK
6
CONTINUOUS
10
5.28051
20
-5.71201
11
5.29738
21
-5.71201
0
LINE
8
BLACK
6
CONTINUOUS
10
5.29738
20
-5.71201
11
5.30863
21
-5.71763
0
LINE
8
BLACK
6
CONTINUOUS
10
5.30863
20
-5.71763
11
5.31426
21
-5.72326
0
LINE
8
BLACK
6
CONTINUOUS
10
5.31426
20
-5.72326
11
5.31988
21
-5.73451
0
LINE
8
BLACK
6
CONTINUOUS
10
5.31988
20
-5.73451
11
5.31988
21
-5.76263
0
LINE
8
BLACK
6
CONTINUOUS
10
5.31988
20
-5.76263
11
5.31426
21
-5.77388
0
LINE
8
BLACK
6
CONTINUOUS
10
5.31426
20
-5.77388
11
5.30863
21
-5.7795
0
LINE
8
BLACK
6
CONTINUOUS
10
5.30863
20
-5.7795
11
5.29738
21
-5.78512
0
LINE
8
BLACK
6
CONTINUOUS
10
5.29738
20
-5.78512
11
5.26364
21
-5.78512
0
LINE
8
BLACK
6
CONTINUOUS
10
5.26364
20
-5.78512
11
5.25239
21
-5.7795
0
LINE
8
BLACK
6
CONTINUOUS
10
5.25239
20
-5.7795
11
5.24677
21
-5.77388
0
LINE
8
BLACK
6
CONTINUOUS
10
5.37612
20
-5.78512
11
5.39862
21
-5.78512
0
LINE
8
BLACK
6
CONTINUOUS
10
5.39862
20
-5.78512
11
5.40987
21
-5.7795
0
LINE
8
BLACK
6
CONTINUOUS
10
5.40987
20
-5.7795
11
5.41549
21
-5.77388
0
LINE
8
BLACK
6
CONTINUOUS
10
5.41549
20
-5.77388
11
5.42674
21
-5.757
0
LINE
8
BLACK
6
CONTINUOUS
10
5.42674
20
-5.757
11
5.43237
21
-5.73451
0
LINE
8
BLACK
6
CONTINUOUS
10
5.43237
20
-5.73451
11
5.43237
21
-5.68951
0
LINE
8
BLACK
6
CONTINUOUS
10
5.43237
20
-5.68951
11
5.42674
21
-5.67826
0
LINE
8
BLACK
6
CONTINUOUS
10
5.42674
20
-5.67826
11
5.42112
21
-5.67264
0
LINE
8
BLACK
6
CONTINUOUS
10
5.42112
20
-5.67264
11
5.40987
21
-5.66701
0
LINE
8
BLACK
6
CONTINUOUS
10
5.40987
20
-5.66701
11
5.38737
21
-5.66701
0
LINE
8
BLACK
6
CONTINUOUS
10
5.38737
20
-5.66701
11
5.37612
21
-5.67264
0
LINE
8
BLACK
6
CONTINUOUS
10
5.37612
20
-5.67264
11
5.3705
21
-5.67826
0
LINE
8
BLACK
6
CONTINUOUS
10
5.3705
20
-5.67826
11
5.36488
21
-5.68951
0
LINE
8
BLACK
6
CONTINUOUS
10
5.36488
20
-5.68951
11
5.36488
21
-5.71763
0
LINE
8
BLACK
6
CONTINUOUS
10
5.36488
20
-5.71763
11
5.3705
21
-5.72888
0
LINE
8
BLACK
6
CONTINUOUS
10
5.3705
20
-5.72888
11
5.37612
21
-5.73451
0
LINE
8
BLACK
6
CONTINUOUS
10
5.37612
20
-5.73451
11
5.38737
21
-5.74013
0
LINE
8
BLACK
6
CONTINUOUS
10
5.38737
20
-5.74013
11
5.40987
21
-5.74013
0
LINE
8
BLACK
6
CONTINUOUS
10
5.40987
20
-5.74013
11
5.42112
21
-5.73451
0
LINE
8
BLACK
6
CONTINUOUS
10
5.42112
20
-5.73451
11
5.42674
21
-5.72888
0
LINE
8
BLACK
6
CONTINUOUS
10
5.42674
20
-5.72888
11
5.43237
21
-5.71763
0
LINE
8
BLACK
6
CONTINUOUS
10
5.53361
20
-5.70638
11
5.53361
21
-5.78512
0
LINE
8
BLACK
6
CONTINUOUS
10
5.50548
20
-5.66139
11
5.47736
21
-5.74575
0
LINE
8
BLACK
6
CONTINUOUS
10
5.47736
20
-5.74575
11
5.55048
21
-5.74575
0
LINE
8
BLACK
6
CONTINUOUS
10
5.58985
20
-5.66701
11
5.58985
21
-5.68951
0
LINE
8
BLACK
6
CONTINUOUS
10
5.63484
20
-5.66701
11
5.63484
21
-5.68951
0
LINE
8
BLACK
6
CONTINUOUS
10
5.8092
20
-5.83012
11
5.80357
21
-5.82449
0
LINE
8
BLACK
6
CONTINUOUS
10
5.80357
20
-5.82449
11
5.79232
21
-5.80762
0
LINE
8
BLACK
6
CONTINUOUS
10
5.79232
20
-5.80762
11
5.7867
21
-5.79637
0
LINE
8
BLACK
6
CONTINUOUS
10
5.7867
20
-5.79637
11
5.78107
21
-5.7795
0
LINE
8
BLACK
6
CONTINUOUS
10
5.78107
20
-5.7795
11
5.77545
21
-5.75138
0
LINE
8
BLACK
6
CONTINUOUS
10
5.77545
20
-5.75138
11
5.77545
21
-5.72888
0
LINE
8
BLACK
6
CONTINUOUS
10
5.77545
20
-5.72888
11
5.78107
21
-5.70076
0
LINE
8
BLACK
6
CONTINUOUS
10
5.78107
20
-5.70076
11
5.7867
21
-5.68389
0
LINE
8
BLACK
6
CONTINUOUS
10
5.7867
20
-5.68389
11
5.79232
21
-5.67264
0
LINE
8
BLACK
6
CONTINUOUS
10
5.79232
20
-5.67264
11
5.80357
21
-5.65576
0
LINE
8
BLACK
6
CONTINUOUS
10
5.80357
20
-5.65576
11
5.8092
21
-5.65014
0
LINE
8
BLACK
6
CONTINUOUS
10
5.87106
20
-5.71763
11
5.85981
21
-5.71201
0
LINE
8
BLACK
6
CONTINUOUS
10
5.85981
20
-5.71201
11
5.85419
21
-5.70638
0
LINE
8
BLACK
6
CONTINUOUS
10
5.85419
20
-5.70638
11
5.84857
21
-5.69513
0
LINE
8
BLACK
6
CONTINUOUS
10
5.84857
20
-5.69513
11
5.84857
21
-5.68951
0
LINE
8
BLACK
6
CONTINUOUS
10
5.84857
20
-5.68951
11
5.85419
21
-5.67826
0
LINE
8
BLACK
6
CONTINUOUS
10
5.85419
20
-5.67826
11
5.85981
21
-5.67264
0
LINE
8
BLACK
6
CONTINUOUS
10
5.85981
20
-5.67264
11
5.87106
21
-5.66701
0
LINE
8
BLACK
6
CONTINUOUS
10
5.87106
20
-5.66701
11
5.89356
21
-5.66701
0
LINE
8
BLACK
6
CONTINUOUS
10
5.89356
20
-5.66701
11
5.90481
21
-5.67264
0
LINE
8
BLACK
6
CONTINUOUS
10
5.90481
20
-5.67264
11
5.91043
21
-5.67826
0
LINE
8
BLACK
6
CONTINUOUS
10
5.91043
20
-5.67826
11
5.91606
21
-5.68951
0
LINE
8
BLACK
6
CONTINUOUS
10
5.91606
20
-5.68951
11
5.91606
21
-5.69513
0
LINE
8
BLACK
6
CONTINUOUS
10
5.91606
20
-5.69513
11
5.91043
21
-5.70638
0
LINE
8
BLACK
6
CONTINUOUS
10
5.91043
20
-5.70638
11
5.90481
21
-5.71201
0
LINE
8
BLACK
6
CONTINUOUS
10
5.90481
20
-5.71201
11
5.89356
21
-5.71763
0
LINE
8
BLACK
6
CONTINUOUS
10
5.89356
20
-5.71763
11
5.87106
21
-5.71763
0
LINE
8
BLACK
6
CONTINUOUS
10
5.87106
20
-5.71763
11
5.85981
21
-5.72326
0
LINE
8
BLACK
6
CONTINUOUS
10
5.85981
20
-5.72326
11
5.85419
21
-5.72888
0
LINE
8
BLACK
6
CONTINUOUS
10
5.85419
20
-5.72888
11
5.84857
21
-5.74013
0
LINE
8
BLACK
6
CONTINUOUS
10
5.84857
20
-5.74013
11
5.84857
21
-5.76263
0
LINE
8
BLACK
6
CONTINUOUS
10
5.84857
20
-5.76263
11
5.85419
21
-5.77388
0
LINE
8
BLACK
6
CONTINUOUS
10
5.85419
20
-5.77388
11
5.85981
21
-5.7795
0
LINE
8
BLACK
6
CONTINUOUS
10
5.85981
20
-5.7795
11
5.87106
21
-5.78512
0
LINE
8
BLACK
6
CONTINUOUS
10
5.87106
20
-5.78512
11
5.89356
21
-5.78512
0
LINE
8
BLACK
6
CONTINUOUS
10
5.89356
20
-5.78512
11
5.90481
21
-5.7795
0
LINE
8
BLACK
6
CONTINUOUS
10
5.90481
20
-5.7795
11
5.91043
21
-5.77388
0
LINE
8
BLACK
6
CONTINUOUS
10
5.91043
20
-5.77388
11
5.91606
21
-5.76263
0
LINE
8
BLACK
6
CONTINUOUS
10
5.91606
20
-5.76263
11
5.91606
21
-5.74013
0
LINE
8
BLACK
6
CONTINUOUS
10
5.91606
20
-5.74013
11
5.91043
21
-5.72888
0
LINE
8
BLACK
6
CONTINUOUS
10
5.91043
20
-5.72888
11
5.90481
21
-5.72326
0
LINE
8
BLACK
6
CONTINUOUS
10
5.90481
20
-5.72326
11
5.89356
21
-5.71763
0
LINE
8
BLACK
6
CONTINUOUS
10
6.05666
20
-5.78512
11
6.05666
21
-5.66701
0
LINE
8
BLACK
6
CONTINUOUS
10
6.10728
20
-5.78512
11
6.10728
21
-5.72326
0
LINE
8
BLACK
6
CONTINUOUS
10
6.10728
20
-5.72326
11
6.10166
21
-5.71201
0
LINE
8
BLACK
6
CONTINUOUS
10
6.10166
20
-5.71201
11
6.09041
21
-5.70638
0
LINE
8
BLACK
6
CONTINUOUS
10
6.09041
20
-5.70638
11
6.07354
21
-5.70638
0
LINE
8
BLACK
6
CONTINUOUS
10
6.07354
20
-5.70638
11
6.06229
21
-5.71201
0
LINE
8
BLACK
6
CONTINUOUS
10
6.06229
20
-5.71201
11
6.05666
21
-5.71763
0
LINE
8
BLACK
6
CONTINUOUS
10
6.1804
20
-5.78512
11
6.16915
21
-5.7795
0
LINE
8
BLACK
6
CONTINUOUS
10
6.16915
20
-5.7795
11
6.16353
21
-5.77388
0
LINE
8
BLACK
6
CONTINUOUS
10
6.16353
20
-5.77388
11
6.1579
21
-5.76263
0
LINE
8
BLACK
6
CONTINUOUS
10
6.1579
20
-5.76263
11
6.1579
21
-5.72888
0
LINE
8
BLACK
6
CONTINUOUS
10
6.1579
20
-5.72888
11
6.16353
21
-5.71763
0
LINE
8
BLACK
6
CONTINUOUS
10
6.16353
20
-5.71763
11
6.16915
21
-5.71201
0
LINE
8
BLACK
6
CONTINUOUS
10
6.16915
20
-5.71201
11
6.1804
21
-5.70638
0
LINE
8
BLACK
6
CONTINUOUS
10
6.1804
20
-5.70638
11
6.19727
21
-5.70638
0
LINE
8
BLACK
6
CONTINUOUS
10
6.19727
20
-5.70638
11
6.20852
21
-5.71201
0
LINE
8
BLACK
6
CONTINUOUS
10
6.20852
20
-5.71201
11
6.21415
21
-5.71763
0
LINE
8
BLACK
6
CONTINUOUS
10
6.21415
20
-5.71763
11
6.21977
21
-5.72888
0
LINE
8
BLACK
6
CONTINUOUS
10
6.21977
20
-5.72888
11
6.21977
21
-5.76263
0
LINE
8
BLACK
6
CONTINUOUS
10
6.21977
20
-5.76263
11
6.21415
21
-5.77388
0
LINE
8
BLACK
6
CONTINUOUS
10
6.21415
20
-5.77388
11
6.20852
21
-5.7795
0
LINE
8
BLACK
6
CONTINUOUS
10
6.20852
20
-5.7795
11
6.19727
21
-5.78512
0
LINE
8
BLACK
6
CONTINUOUS
10
6.19727
20
-5.78512
11
6.1804
21
-5.78512
0
LINE
8
BLACK
6
CONTINUOUS
10
6.28726
20
-5.78512
11
6.27601
21
-5.7795
0
LINE
8
BLACK
6
CONTINUOUS
10
6.27601
20
-5.7795
11
6.27039
21
-5.76825
0
LINE
8
BLACK
6
CONTINUOUS
10
6.27039
20
-5.76825
11
6.27039
21
-5.66701
0
LINE
8
BLACK
6
CONTINUOUS
10
6.37725
20
-5.7795
11
6.366
21
-5.78512
0
LINE
8
BLACK
6
CONTINUOUS
10
6.366
20
-5.78512
11
6.3435
21
-5.78512
0
LINE
8
BLACK
6
CONTINUOUS
10
6.3435
20
-5.78512
11
6.33226
21
-5.7795
0
LINE
8
BLACK
6
CONTINUOUS
10
6.33226
20
-5.7795
11
6.32663
21
-5.76825
0
LINE
8
BLACK
6
CONTINUOUS
10
6.32663
20
-5.76825
11
6.32663
21
-5.72326
0
LINE
8
BLACK
6
CONTINUOUS
10
6.32663
20
-5.72326
11
6.33226
21
-5.71201
0
LINE
8
BLACK
6
CONTINUOUS
10
6.33226
20
-5.71201
11
6.3435
21
-5.70638
0
LINE
8
BLACK
6
CONTINUOUS
10
6.3435
20
-5.70638
11
6.366
21
-5.70638
0
LINE
8
BLACK
6
CONTINUOUS
10
6.366
20
-5.70638
11
6.37725
21
-5.71201
0
LINE
8
BLACK
6
CONTINUOUS
10
6.37725
20
-5.71201
11
6.38287
21
-5.72326
0
LINE
8
BLACK
6
CONTINUOUS
10
6.38287
20
-5.72326
11
6.38287
21
-5.73451
0
LINE
8
BLACK
6
CONTINUOUS
10
6.38287
20
-5.73451
11
6.32663
21
-5.74575
0
LINE
8
BLACK
6
CONTINUOUS
10
6.42787
20
-5.7795
11
6.43912
21
-5.78512
0
LINE
8
BLACK
6
CONTINUOUS
10
6.43912
20
-5.78512
11
6.46161
21
-5.78512
0
LINE
8
BLACK
6
CONTINUOUS
10
6.46161
20
-5.78512
11
6.47286
21
-5.7795
0
LINE
8
BLACK
6
CONTINUOUS
10
6.47286
20
-5.7795
11
6.47849
21
-5.76825
0
LINE
8
BLACK
6
CONTINUOUS
10
6.47849
20
-5.76825
11
6.47849
21
-5.76263
0
LINE
8
BLACK
6
CONTINUOUS
10
6.47849
20
-5.76263
11
6.47286
21
-5.75138
0
LINE
8
BLACK
6
CONTINUOUS
10
6.47286
20
-5.75138
11
6.46161
21
-5.74575
0
LINE
8
BLACK
6
CONTINUOUS
10
6.46161
20
-5.74575
11
6.44474
21
-5.74575
0
LINE
8
BLACK
6
CONTINUOUS
10
6.44474
20
-5.74575
11
6.43349
21
-5.74013
0
LINE
8
BLACK
6
CONTINUOUS
10
6.43349
20
-5.74013
11
6.42787
21
-5.72888
0
LINE
8
BLACK
6
CONTINUOUS
10
6.42787
20
-5.72888
11
6.42787
21
-5.72326
0
LINE
8
BLACK
6
CONTINUOUS
10
6.42787
20
-5.72326
11
6.43349
21
-5.71201
0
LINE
8
BLACK
6
CONTINUOUS
10
6.43349
20
-5.71201
11
6.44474
21
-5.70638
0
LINE
8
BLACK
6
CONTINUOUS
10
6.44474
20
-5.70638
11
6.46161
21
-5.70638
0
LINE
8
BLACK
6
CONTINUOUS
10
6.46161
20
-5.70638
11
6.47286
21
-5.71201
0
LINE
8
BLACK
6
CONTINUOUS
10
6.51786
20
-5.83012
11
6.52348
21
-5.82449
0
LINE
8
BLACK
6
CONTINUOUS
10
6.52348
20
-5.82449
11
6.53473
21
-5.80762
0
LINE
8
BLACK
6
CONTINUOUS
10
6.53473
20
-5.80762
11
6.54035
21
-5.79637
0
LINE
8
BLACK
6
CONTINUOUS
10
6.54035
20
-5.79637
11
6.54598
21
-5.7795
0
LINE
8
BLACK
6
CONTINUOUS
10
6.54598
20
-5.7795
11
6.5516
21
-5.75138
0
LINE
8
BLACK
6
CONTINUOUS
10
6.5516
20
-5.75138
11
6.5516
21
-5.72888
0
LINE
8
BLACK
6
CONTINUOUS
10
6.5516
20
-5.72888
11
6.54598
21
-5.70076
0
LINE
8
BLACK
6
CONTINUOUS
10
6.54598
20
-5.70076
11
6.54035
21
-5.68389
0
LINE
8
BLACK
6
CONTINUOUS
10
6.54035
20
-5.68389
11
6.53473
21
-5.67264
0
LINE
8
BLACK
6
CONTINUOUS
10
6.53473
20
-5.67264
11
6.52348
21
-5.65576
0
LINE
8
BLACK
6
CONTINUOUS
10
6.52348
20
-5.65576
11
6.51786
21
-5.65014
0
LINE
8
BLACK
6
CONTINUOUS
10
3.71752
20
-5.86594
11
3.71752
21
-5.90925
0
LINE
8
BLACK
6
CONTINUOUS
10
3.69587
20
-5.8876
11
3.73917
21
-5.8876
0
LINE
8
BLACK
6
CONTINUOUS
10
3.91381
20
-5.94103
11
3.84632
21
-5.94103
0
LINE
8
BLACK
6
CONTINUOUS
10
3.88006
20
-5.94103
11
3.88006
21
-5.82292
0
LINE
8
BLACK
6
CONTINUOUS
10
3.88006
20
-5.82292
11
3.86881
21
-5.83979
0
LINE
8
BLACK
6
CONTINUOUS
10
3.86881
20
-5.83979
11
3.85756
21
-5.85104
0
LINE
8
BLACK
6
CONTINUOUS
10
3.85756
20
-5.85104
11
3.84632
21
-5.85666
0
LINE
8
BLACK
6
CONTINUOUS
10
3.96443
20
-5.92978
11
3.97005
21
-5.9354
0
LINE
8
BLACK
6
CONTINUOUS
10
3.97005
20
-5.9354
11
3.96443
21
-5.94103
0
LINE
8
BLACK
6
CONTINUOUS
10
3.96443
20
-5.94103
11
3.9588
21
-5.9354
0
LINE
8
BLACK
6
CONTINUOUS
10
3.9588
20
-5.9354
11
3.96443
21
-5.92978
0
LINE
8
BLACK
6
CONTINUOUS
10
3.96443
20
-5.92978
11
3.96443
21
-5.94103
0
LINE
8
BLACK
6
CONTINUOUS
10
4.08254
20
-5.94103
11
4.01504
21
-5.94103
0
LINE
8
BLACK
6
CONTINUOUS
10
4.04879
20
-5.94103
11
4.04879
21
-5.82292
0
LINE
8
BLACK
6
CONTINUOUS
10
4.04879
20
-5.82292
11
4.03754
21
-5.83979
0
LINE
8
BLACK
6
CONTINUOUS
10
4.03754
20
-5.83979
11
4.02629
21
-5.85104
0
LINE
8
BLACK
6
CONTINUOUS
10
4.02629
20
-5.85104
11
4.01504
21
-5.85666
0
LINE
8
BLACK
6
CONTINUOUS
10
4.15565
20
-5.82292
11
4.1669
21
-5.82292
0
LINE
8
BLACK
6
CONTINUOUS
10
4.1669
20
-5.82292
11
4.17815
21
-5.82854
0
LINE
8
BLACK
6
CONTINUOUS
10
4.17815
20
-5.82854
11
4.18377
21
-5.83417
0
LINE
8
BLACK
6
CONTINUOUS
10
4.18377
20
-5.83417
11
4.1894
21
-5.84542
0
LINE
8
BLACK
6
CONTINUOUS
10
4.1894
20
-5.84542
11
4.19502
21
-5.86791
0
LINE
8
BLACK
6
CONTINUOUS
10
4.19502
20
-5.86791
11
4.19502
21
-5.89603
0
LINE
8
BLACK
6
CONTINUOUS
10
4.19502
20
-5.89603
11
4.1894
21
-5.91853
0
LINE
8
BLACK
6
CONTINUOUS
10
4.1894
20
-5.91853
11
4.18377
21
-5.92978
0
LINE
8
BLACK
6
CONTINUOUS
10
4.18377
20
-5.92978
11
4.17815
21
-5.9354
0
LINE
8
BLACK
6
CONTINUOUS
10
4.17815
20
-5.9354
11
4.1669
21
-5.94103
0
LINE
8
BLACK
6
CONTINUOUS
10
4.1669
20
-5.94103
11
4.15565
21
-5.94103
0
LINE
8
BLACK
6
CONTINUOUS
10
4.15565
20
-5.94103
11
4.1444
21
-5.9354
0
LINE
8
BLACK
6
CONTINUOUS
10
4.1444
20
-5.9354
11
4.13878
21
-5.92978
0
LINE
8
BLACK
6
CONTINUOUS
10
4.13878
20
-5.92978
11
4.13316
21
-5.91853
0
LINE
8
BLACK
6
CONTINUOUS
10
4.13316
20
-5.91853
11
4.12753
21
-5.89603
0
LINE
8
BLACK
6
CONTINUOUS
10
4.12753
20
-5.89603
11
4.12753
21
-5.86791
0
LINE
8
BLACK
6
CONTINUOUS
10
4.12753
20
-5.86791
11
4.13316
21
-5.84542
0
LINE
8
BLACK
6
CONTINUOUS
10
4.13316
20
-5.84542
11
4.13878
21
-5.83417
0
LINE
8
BLACK
6
CONTINUOUS
10
4.13878
20
-5.83417
11
4.1444
21
-5.82854
0
LINE
8
BLACK
6
CONTINUOUS
10
4.1444
20
-5.82854
11
4.15565
21
-5.82292
0
LINE
8
BLACK
6
CONTINUOUS
10
4.26814
20
-5.82292
11
4.27939
21
-5.82292
0
LINE
8
BLACK
6
CONTINUOUS
10
4.27939
20
-5.82292
11
4.29064
21
-5.82854
0
LINE
8
BLACK
6
CONTINUOUS
10
4.29064
20
-5.82854
11
4.29626
21
-5.83417
0
LINE
8
BLACK
6
CONTINUOUS
10
4.29626
20
-5.83417
11
4.30188
21
-5.84542
0
LINE
8
BLACK
6
CONTINUOUS
10
4.30188
20
-5.84542
11
4.30751
21
-5.86791
0
LINE
8
BLACK
6
CONTINUOUS
10
4.30751
20
-5.86791
11
4.30751
21
-5.89603
0
LINE
8
BLACK
6
CONTINUOUS
10
4.30751
20
-5.89603
11
4.30188
21
-5.91853
0
LINE
8
BLACK
6
CONTINUOUS
10
4.30188
20
-5.91853
11
4.29626
21
-5.92978
0
LINE
8
BLACK
6
CONTINUOUS
10
4.29626
20
-5.92978
11
4.29064
21
-5.9354
0
LINE
8
BLACK
6
CONTINUOUS
10
4.29064
20
-5.9354
11
4.27939
21
-5.94103
0
LINE
8
BLACK
6
CONTINUOUS
10
4.27939
20
-5.94103
11
4.26814
21
-5.94103
0
LINE
8
BLACK
6
CONTINUOUS
10
4.26814
20
-5.94103
11
4.25689
21
-5.9354
0
LINE
8
BLACK
6
CONTINUOUS
10
4.25689
20
-5.9354
11
4.25127
21
-5.92978
0
LINE
8
BLACK
6
CONTINUOUS
10
4.25127
20
-5.92978
11
4.24564
21
-5.91853
0
LINE
8
BLACK
6
CONTINUOUS
10
4.24564
20
-5.91853
11
4.24002
21
-5.89603
0
LINE
8
BLACK
6
CONTINUOUS
10
4.24002
20
-5.89603
11
4.24002
21
-5.86791
0
LINE
8
BLACK
6
CONTINUOUS
10
4.24002
20
-5.86791
11
4.24564
21
-5.84542
0
LINE
8
BLACK
6
CONTINUOUS
10
4.24564
20
-5.84542
11
4.25127
21
-5.83417
0
LINE
8
BLACK
6
CONTINUOUS
10
4.25127
20
-5.83417
11
4.25689
21
-5.82854
0
LINE
8
BLACK
6
CONTINUOUS
10
4.25689
20
-5.82854
11
4.26814
21
-5.82292
0
LINE
8
BLACK
6
CONTINUOUS
10
4.35813
20
-5.94103
11
4.35813
21
-5.86229
0
LINE
8
BLACK
6
CONTINUOUS
10
4.35813
20
-5.87354
11
4.36375
21
-5.86791
0
LINE
8
BLACK
6
CONTINUOUS
10
4.36375
20
-5.86791
11
4.375
21
-5.86229
0
LINE
8
BLACK
6
CONTINUOUS
10
4.375
20
-5.86229
11
4.39187
21
-5.86229
0
LINE
8
BLACK
6
CONTINUOUS
10
4.39187
20
-5.86229
11
4.40312
21
-5.86791
0
LINE
8
BLACK
6
CONTINUOUS
10
4.40312
20
-5.86791
11
4.40875
21
-5.87916
0
LINE
8
BLACK
6
CONTINUOUS
10
4.40875
20
-5.87916
11
4.40875
21
-5.94103
0
LINE
8
BLACK
6
CONTINUOUS
10
4.40875
20
-5.87916
11
4.41437
21
-5.86791
0
LINE
8
BLACK
6
CONTINUOUS
10
4.41437
20
-5.86791
11
4.42562
21
-5.86229
0
LINE
8
BLACK
6
CONTINUOUS
10
4.42562
20
-5.86229
11
4.44249
21
-5.86229
0
LINE
8
BLACK
6
CONTINUOUS
10
4.44249
20
-5.86229
11
4.45374
21
-5.86791
0
LINE
8
BLACK
6
CONTINUOUS
10
4.45374
20
-5.86791
11
4.45936
21
-5.87916
0
LINE
8
BLACK
6
CONTINUOUS
10
4.45936
20
-5.87916
11
4.45936
21
-5.94103
0
LINE
8
BLACK
6
CONTINUOUS
10
4.51561
20
-5.94103
11
4.51561
21
-5.86229
0
LINE
8
BLACK
6
CONTINUOUS
10
4.51561
20
-5.87354
11
4.52123
21
-5.86791
0
LINE
8
BLACK
6
CONTINUOUS
10
4.52123
20
-5.86791
11
4.53248
21
-5.86229
0
LINE
8
BLACK
6
CONTINUOUS
10
4.53248
20
-5.86229
11
4.54935
21
-5.86229
0
LINE
8
BLACK
6
CONTINUOUS
10
4.54935
20
-5.86229
11
4.5606
21
-5.86791
0
LINE
8
BLACK
6
CONTINUOUS
10
4.5606
20
-5.86791
11
4.56623
21
-5.87916
0
LINE
8
BLACK
6
CONTINUOUS
10
4.56623
20
-5.87916
11
4.56623
21
-5.94103
0
LINE
8
BLACK
6
CONTINUOUS
10
4.56623
20
-5.87916
11
4.57185
21
-5.86791
0
LINE
8
BLACK
6
CONTINUOUS
10
4.57185
20
-5.86791
11
4.5831
21
-5.86229
0
LINE
8
BLACK
6
CONTINUOUS
10
4.5831
20
-5.86229
11
4.59997
21
-5.86229
0
LINE
8
BLACK
6
CONTINUOUS
10
4.59997
20
-5.86229
11
4.61122
21
-5.86791
0
LINE
8
BLACK
6
CONTINUOUS
10
4.61122
20
-5.86791
11
4.61684
21
-5.87916
0
LINE
8
BLACK
6
CONTINUOUS
10
4.61684
20
-5.87916
11
4.61684
21
-5.94103
0
LINE
8
BLACK
6
CONTINUOUS
10
4.84744
20
-5.81729
11
4.7462
21
-5.96915
0
LINE
8
BLACK
6
CONTINUOUS
10
4.9993
20
-5.82292
11
5.01055
21
-5.82292
0
LINE
8
BLACK
6
CONTINUOUS
10
5.01055
20
-5.82292
11
5.02179
21
-5.82854
0
LINE
8
BLACK
6
CONTINUOUS
10
5.02179
20
-5.82854
11
5.02742
21
-5.83417
0
LINE
8
BLACK
6
CONTINUOUS
10
5.02742
20
-5.83417
11
5.03304
21
-5.84542
0
LINE
8
BLACK
6
CONTINUOUS
10
5.03304
20
-5.84542
11
5.03867
21
-5.86791
0
LINE
8
BLACK
6
CONTINUOUS
10
5.03867
20
-5.86791
11
5.03867
21
-5.89603
0
LINE
8
BLACK
6
CONTINUOUS
10
5.03867
20
-5.89603
11
5.03304
21
-5.91853
0
LINE
8
BLACK
6
CONTINUOUS
10
5.03304
20
-5.91853
11
5.02742
21
-5.92978
0
LINE
8
BLACK
6
CONTINUOUS
10
5.02742
20
-5.92978
11
5.02179
21
-5.9354
0
LINE
8
BLACK
6
CONTINUOUS
10
5.02179
20
-5.9354
11
5.01055
21
-5.94103
0
LINE
8
BLACK
6
CONTINUOUS
10
5.01055
20
-5.94103
11
4.9993
21
-5.94103
0
LINE
8
BLACK
6
CONTINUOUS
10
4.9993
20
-5.94103
11
4.98805
21
-5.9354
0
LINE
8
BLACK
6
CONTINUOUS
10
4.98805
20
-5.9354
11
4.98242
21
-5.92978
0
LINE
8
BLACK
6
CONTINUOUS
10
4.98242
20
-5.92978
11
4.9768
21
-5.91853
0
LINE
8
BLACK
6
CONTINUOUS
10
4.9768
20
-5.91853
11
4.97118
21
-5.89603
0
LINE
8
BLACK
6
CONTINUOUS
10
4.97118
20
-5.89603
11
4.97118
21
-5.86791
0
LINE
8
BLACK
6
CONTINUOUS
10
4.97118
20
-5.86791
11
4.9768
21
-5.84542
0
LINE
8
BLACK
6
CONTINUOUS
10
4.9768
20
-5.84542
11
4.98242
21
-5.83417
0
LINE
8
BLACK
6
CONTINUOUS
10
4.98242
20
-5.83417
11
4.98805
21
-5.82854
0
LINE
8
BLACK
6
CONTINUOUS
10
4.98805
20
-5.82854
11
4.9993
21
-5.82292
0
LINE
8
BLACK
6
CONTINUOUS
10
5.08929
20
-5.92978
11
5.09491
21
-5.9354
0
LINE
8
BLACK
6
CONTINUOUS
10
5.09491
20
-5.9354
11
5.08929
21
-5.94103
0
LINE
8
BLACK
6
CONTINUOUS
10
5.08929
20
-5.94103
11
5.08366
21
-5.9354
0
LINE
8
BLACK
6
CONTINUOUS
10
5.08366
20
-5.9354
11
5.08929
21
-5.92978
0
LINE
8
BLACK
6
CONTINUOUS
10
5.08929
20
-5.92978
11
5.08929
21
-5.94103
0
LINE
8
BLACK
6
CONTINUOUS
10
5.16803
20
-5.82292
11
5.17927
21
-5.82292
0
LINE
8
BLACK
6
CONTINUOUS
10
5.17927
20
-5.82292
11
5.19052
21
-5.82854
0
LINE
8
BLACK
6
CONTINUOUS
10
5.19052
20
-5.82854
11
5.19615
21
-5.83417
0
LINE
8
BLACK
6
CONTINUOUS
10
5.19615
20
-5.83417
11
5.20177
21
-5.84542
0
LINE
8
BLACK
6
CONTINUOUS
10
5.20177
20
-5.84542
11
5.2074
21
-5.86791
0
LINE
8
BLACK
6
CONTINUOUS
10
5.2074
20
-5.86791
11
5.2074
21
-5.89603
0
LINE
8
BLACK
6
CONTINUOUS
10
5.2074
20
-5.89603
11
5.20177
21
-5.91853
0
LINE
8
BLACK
6
CONTINUOUS
10
5.20177
20
-5.91853
11
5.19615
21
-5.92978
0
LINE
8
BLACK
6
CONTINUOUS
10
5.19615
20
-5.92978
11
5.19052
21
-5.9354
0
LINE
8
BLACK
6
CONTINUOUS
10
5.19052
20
-5.9354
11
5.17927
21
-5.94103
0
LINE
8
BLACK
6
CONTINUOUS
10
5.17927
20
-5.94103
11
5.16803
21
-5.94103
0
LINE
8
BLACK
6
CONTINUOUS
10
5.16803
20
-5.94103
11
5.15678
21
-5.9354
0
LINE
8
BLACK
6
CONTINUOUS
10
5.15678
20
-5.9354
11
5.15115
21
-5.92978
0
LINE
8
BLACK
6
CONTINUOUS
10
5.15115
20
-5.92978
11
5.14553
21
-5.91853
0
LINE
8
BLACK
6
CONTINUOUS
10
5.14553
20
-5.91853
11
5.1399
21
-5.89603
0
LINE
8
BLACK
6
CONTINUOUS
10
5.1399
20
-5.89603
11
5.1399
21
-5.86791
0
LINE
8
BLACK
6
CONTINUOUS
10
5.1399
20
-5.86791
11
5.14553
21
-5.84542
0
LINE
8
BLACK
6
CONTINUOUS
10
5.14553
20
-5.84542
11
5.15115
21
-5.83417
0
LINE
8
BLACK
6
CONTINUOUS
10
5.15115
20
-5.83417
11
5.15678
21
-5.82854
0
LINE
8
BLACK
6
CONTINUOUS
10
5.15678
20
-5.82854
11
5.16803
21
-5.82292
0
LINE
8
BLACK
6
CONTINUOUS
10
5.30863
20
-5.86229
11
5.30863
21
-5.94103
0
LINE
8
BLACK
6
CONTINUOUS
10
5.28051
20
-5.81729
11
5.25239
21
-5.90166
0
LINE
8
BLACK
6
CONTINUOUS
10
5.25239
20
-5.90166
11
5.32551
21
-5.90166
0
LINE
8
BLACK
6
CONTINUOUS
10
5.35925
20
-5.82292
11
5.43237
21
-5.82292
0
LINE
8
BLACK
6
CONTINUOUS
10
5.43237
20
-5.82292
11
5.393
21
-5.86791
0
LINE
8
BLACK
6
CONTINUOUS
10
5.393
20
-5.86791
11
5.40987
21
-5.86791
0
LINE
8
BLACK
6
CONTINUOUS
10
5.40987
20
-5.86791
11
5.42112
21
-5.87354
0
LINE
8
BLACK
6
CONTINUOUS
10
5.42112
20
-5.87354
11
5.42674
21
-5.87916
0
LINE
8
BLACK
6
CONTINUOUS
10
5.42674
20
-5.87916
11
5.43237
21
-5.89041
0
LINE
8
BLACK
6
CONTINUOUS
10
5.43237
20
-5.89041
11
5.43237
21
-5.91853
0
LINE
8
BLACK
6
CONTINUOUS
10
5.43237
20
-5.91853
11
5.42674
21
-5.92978
0
LINE
8
BLACK
6
CONTINUOUS
10
5.42674
20
-5.92978
11
5.42112
21
-5.9354
0
LINE
8
BLACK
6
CONTINUOUS
10
5.42112
20
-5.9354
11
5.40987
21
-5.94103
0
LINE
8
BLACK
6
CONTINUOUS
10
5.40987
20
-5.94103
11
5.37612
21
-5.94103
0
LINE
8
BLACK
6
CONTINUOUS
10
5.37612
20
-5.94103
11
5.36488
21
-5.9354
0
LINE
8
BLACK
6
CONTINUOUS
10
5.36488
20
-5.9354
11
5.35925
21
-5.92978
0
LINE
8
BLACK
6
CONTINUOUS
10
5.47174
20
-5.82292
11
5.54485
21
-5.82292
0
LINE
8
BLACK
6
CONTINUOUS
10
5.54485
20
-5.82292
11
5.50548
21
-5.86791
0
LINE
8
BLACK
6
CONTINUOUS
10
5.50548
20
-5.86791
11
5.52236
21
-5.86791
0
LINE
8
BLACK
6
CONTINUOUS
10
5.52236
20
-5.86791
11
5.53361
21
-5.87354
0
LINE
8
BLACK
6
CONTINUOUS
10
5.53361
20
-5.87354
11
5.53923
21
-5.87916
0
LINE
8
BLACK
6
CONTINUOUS
10
5.53923
20
-5.87916
11
5.54485
21
-5.89041
0
LINE
8
BLACK
6
CONTINUOUS
10
5.54485
20
-5.89041
11
5.54485
21
-5.91853
0
LINE
8
BLACK
6
CONTINUOUS
10
5.54485
20
-5.91853
11
5.53923
21
-5.92978
0
LINE
8
BLACK
6
CONTINUOUS
10
5.53923
20
-5.92978
11
5.53361
21
-5.9354
0
LINE
8
BLACK
6
CONTINUOUS
10
5.53361
20
-5.9354
11
5.52236
21
-5.94103
0
LINE
8
BLACK
6
CONTINUOUS
10
5.52236
20
-5.94103
11
5.48861
21
-5.94103
0
LINE
8
BLACK
6
CONTINUOUS
10
5.48861
20
-5.94103
11
5.47736
21
-5.9354
0
LINE
8
BLACK
6
CONTINUOUS
10
5.47736
20
-5.9354
11
5.47174
21
-5.92978
0
LINE
8
BLACK
6
CONTINUOUS
10
5.58985
20
-5.82292
11
5.58985
21
-5.84542
0
LINE
8
BLACK
6
CONTINUOUS
10
5.63484
20
-5.82292
11
5.63484
21
-5.84542
0
LINE
8
BLACK
6
CONTINUOUS
10
5.8092
20
-5.98602
11
5.80357
21
-5.9804
0
LINE
8
BLACK
6
CONTINUOUS
10
5.80357
20
-5.9804
11
5.79232
21
-5.96353
0
LINE
8
BLACK
6
CONTINUOUS
10
5.79232
20
-5.96353
11
5.7867
21
-5.95228
0
LINE
8
BLACK
6
CONTINUOUS
10
5.7867
20
-5.95228
11
5.78107
21
-5.9354
0
LINE
8
BLACK
6
CONTINUOUS
10
5.78107
20
-5.9354
11
5.77545
21
-5.90728
0
LINE
8
BLACK
6
CONTINUOUS
10
5.77545
20
-5.90728
11
5.77545
21
-5.88479
0
LINE
8
BLACK
6
CONTINUOUS
10
5.77545
20
-5.88479
11
5.78107
21
-5.85666
0
LINE
8
BLACK
6
CONTINUOUS
10
5.78107
20
-5.85666
11
5.7867
21
-5.83979
0
LINE
8
BLACK
6
CONTINUOUS
10
5.7867
20
-5.83979
11
5.79232
21
-5.82854
0
LINE
8
BLACK
6
CONTINUOUS
10
5.79232
20
-5.82854
11
5.80357
21
-5.81167
0
LINE
8
BLACK
6
CONTINUOUS
10
5.80357
20
-5.81167
11
5.8092
21
-5.80605
0
LINE
8
BLACK
6
CONTINUOUS
10
5.90481
20
-5.82292
11
5.88231
21
-5.82292
0
LINE
8
BLACK
6
CONTINUOUS
10
5.88231
20
-5.82292
11
5.87106
21
-5.82854
0
LINE
8
BLACK
6
CONTINUOUS
10
5.87106
20
-5.82854
11
5.86544
21
-5.83417
0
LINE
8
BLACK
6
CONTINUOUS
10
5.86544
20
-5.83417
11
5.85419
21
-5.85104
0
LINE
8
BLACK
6
CONTINUOUS
10
5.85419
20
-5.85104
11
5.84857
21
-5.87354
0
LINE
8
BLACK
6
CONTINUOUS
10
5.84857
20
-5.87354
11
5.84857
21
-5.91853
0
LINE
8
BLACK
6
CONTINUOUS
10
5.84857
20
-5.91853
11
5.85419
21
-5.92978
0
LINE
8
BLACK
6
CONTINUOUS
10
5.85419
20
-5.92978
11
5.85981
21
-5.9354
0
LINE
8
BLACK
6
CONTINUOUS
10
5.85981
20
-5.9354
11
5.87106
21
-5.94103
0
LINE
8
BLACK
6
CONTINUOUS
10
5.87106
20
-5.94103
11
5.89356
21
-5.94103
0
LINE
8
BLACK
6
CONTINUOUS
10
5.89356
20
-5.94103
11
5.90481
21
-5.9354
0
LINE
8
BLACK
6
CONTINUOUS
10
5.90481
20
-5.9354
11
5.91043
21
-5.92978
0
LINE
8
BLACK
6
CONTINUOUS
10
5.91043
20
-5.92978
11
5.91606
21
-5.91853
0
LINE
8
BLACK
6
CONTINUOUS
10
5.91606
20
-5.91853
11
5.91606
21
-5.89041
0
LINE
8
BLACK
6
CONTINUOUS
10
5.91606
20
-5.89041
11
5.91043
21
-5.87916
0
LINE
8
BLACK
6
CONTINUOUS
10
5.91043
20
-5.87916
11
5.90481
21
-5.87354
0
LINE
8
BLACK
6
CONTINUOUS
10
5.90481
20
-5.87354
11
5.89356
21
-5.86791
0
LINE
8
BLACK
6
CONTINUOUS
10
5.89356
20
-5.86791
11
5.87106
21
-5.86791
0
LINE
8
BLACK
6
CONTINUOUS
10
5.87106
20
-5.86791
11
5.85981
21
-5.87354
0
LINE
8
BLACK
6
CONTINUOUS
10
5.85981
20
-5.87354
11
5.85419
21
-5.87916
0
LINE
8
BLACK
6
CONTINUOUS
10
5.85419
20
-5.87916
11
5.84857
21
-5.89041
0
LINE
8
BLACK
6
CONTINUOUS
10
6.05666
20
-5.94103
11
6.05666
21
-5.82292
0
LINE
8
BLACK
6
CONTINUOUS
10
6.10728
20
-5.94103
11
6.10728
21
-5.87916
0
LINE
8
BLACK
6
CONTINUOUS
10
6.10728
20
-5.87916
11
6.10166
21
-5.86791
0
LINE
8
BLACK
6
CONTINUOUS
10
6.10166
20
-5.86791
11
6.09041
21
-5.86229
0
LINE
8
BLACK
6
CONTINUOUS
10
6.09041
20
-5.86229
11
6.07354
21
-5.86229
0
LINE
8
BLACK
6
CONTINUOUS
10
6.07354
20
-5.86229
11
6.06229
21
-5.86791
0
LINE
8
BLACK
6
CONTINUOUS
10
6.06229
20
-5.86791
11
6.05666
21
-5.87354
0
LINE
8
BLACK
6
CONTINUOUS
10
6.1804
20
-5.94103
11
6.16915
21
-5.9354
0
LINE
8
BLACK
6
CONTINUOUS
10
6.16915
20
-5.9354
11
6.16353
21
-5.92978
0
LINE
8
BLACK
6
CONTINUOUS
10
6.16353
20
-5.92978
11
6.1579
21
-5.91853
0
LINE
8
BLACK
6
CONTINUOUS
10
6.1579
20
-5.91853
11
6.1579
21
-5.88479
0
LINE
8
BLACK
6
CONTINUOUS
10
6.1579
20
-5.88479
11
6.16353
21
-5.87354
0
LINE
8
BLACK
6
CONTINUOUS
10
6.16353
20
-5.87354
11
6.16915
21
-5.86791
0
LINE
8
BLACK
6
CONTINUOUS
10
6.16915
20
-5.86791
11
6.1804
21
-5.86229
0
LINE
8
BLACK
6
CONTINUOUS
10
6.1804
20
-5.86229
11
6.19727
21
-5.86229
0
LINE
8
BLACK
6
CONTINUOUS
10
6.19727
20
-5.86229
11
6.20852
21
-5.86791
0
LINE
8
BLACK
6
CONTINUOUS
10
6.20852
20
-5.86791
11
6.21415
21
-5.87354
0
LINE
8
BLACK
6
CONTINUOUS
10
6.21415
20
-5.87354
11
6.21977
21
-5.88479
0
LINE
8
BLACK
6
CONTINUOUS
10
6.21977
20
-5.88479
11
6.21977
21
-5.91853
0
LINE
8
BLACK
6
CONTINUOUS
10
6.21977
20
-5.91853
11
6.21415
21
-5.92978
0
LINE
8
BLACK
6
CONTINUOUS
10
6.21415
20
-5.92978
11
6.20852
21
-5.9354
0
LINE
8
BLACK
6
CONTINUOUS
10
6.20852
20
-5.9354
11
6.19727
21
-5.94103
0
LINE
8
BLACK
6
CONTINUOUS
10
6.19727
20
-5.94103
11
6.1804
21
-5.94103
0
LINE
8
BLACK
6
CONTINUOUS
10
6.28726
20
-5.94103
11
6.27601
21
-5.9354
0
LINE
8
BLACK
6
CONTINUOUS
10
6.27601
20
-5.9354
11
6.27039
21
-5.92416
0
LINE
8
BLACK
6
CONTINUOUS
10
6.27039
20
-5.92416
11
6.27039
21
-5.82292
0
LINE
8
BLACK
6
CONTINUOUS
10
6.37725
20
-5.9354
11
6.366
21
-5.94103
0
LINE
8
BLACK
6
CONTINUOUS
10
6.366
20
-5.94103
11
6.3435
21
-5.94103
0
LINE
8
BLACK
6
CONTINUOUS
10
6.3435
20
-5.94103
11
6.33226
21
-5.9354
0
LINE
8
BLACK
6
CONTINUOUS
10
6.33226
20
-5.9354
11
6.32663
21
-5.92416
0
LINE
8
BLACK
6
CONTINUOUS
10
6.32663
20
-5.92416
11
6.32663
21
-5.87916
0
LINE
8
BLACK
6
CONTINUOUS
10
6.32663
20
-5.87916
11
6.33226
21
-5.86791
0
LINE
8
BLACK
6
CONTINUOUS
10
6.33226
20
-5.86791
11
6.3435
21
-5.86229
0
LINE
8
BLACK
6
CONTINUOUS
10
6.3435
20
-5.86229
11
6.366
21
-5.86229
0
LINE
8
BLACK
6
CONTINUOUS
10
6.366
20
-5.86229
11
6.37725
21
-5.86791
0
LINE
8
BLACK
6
CONTINUOUS
10
6.37725
20
-5.86791
11
6.38287
21
-5.87916
0
LINE
8
BLACK
6
CONTINUOUS
10
6.38287
20
-5.87916
11
6.38287
21
-5.89041
0
LINE
8
BLACK
6
CONTINUOUS
10
6.38287
20
-5.89041
11
6.32663
21
-5.90166
0
LINE
8
BLACK
6
CONTINUOUS
10
6.42787
20
-5.9354
11
6.43912
21
-5.94103
0
LINE
8
BLACK
6
CONTINUOUS
10
6.43912
20
-5.94103
11
6.46161
21
-5.94103
0
LINE
8
BLACK
6
CONTINUOUS
10
6.46161
20
-5.94103
11
6.47286
21
-5.9354
0
LINE
8
BLACK
6
CONTINUOUS
10
6.47286
20
-5.9354
11
6.47849
21
-5.92416
0
LINE
8
BLACK
6
CONTINUOUS
10
6.47849
20
-5.92416
11
6.47849
21
-5.91853
0
LINE
8
BLACK
6
CONTINUOUS
10
6.47849
20
-5.91853
11
6.47286
21
-5.90728
0
LINE
8
BLACK
6
CONTINUOUS
10
6.47286
20
-5.90728
11
6.46161
21
-5.90166
0
LINE
8
BLACK
6
CONTINUOUS
10
6.46161
20
-5.90166
11
6.44474
21
-5.90166
0
LINE
8
BLACK
6
CONTINUOUS
10
6.44474
20
-5.90166
11
6.43349
21
-5.89603
0
LINE
8
BLACK
6
CONTINUOUS
10
6.43349
20
-5.89603
11
6.42787
21
-5.88479
0
LINE
8
BLACK
6
CONTINUOUS
10
6.42787
20
-5.88479
11
6.42787
21
-5.87916
0
LINE
8
BLACK
6
CONTINUOUS
10
6.42787
20
-5.87916
11
6.43349
21
-5.86791
0
LINE
8
BLACK
6
CONTINUOUS
10
6.43349
20
-5.86791
11
6.44474
21
-5.86229
0
LINE
8
BLACK
6
CONTINUOUS
10
6.44474
20
-5.86229
11
6.46161
21
-5.86229
0
LINE
8
BLACK
6
CONTINUOUS
10
6.46161
20
-5.86229
11
6.47286
21
-5.86791
0
LINE
8
BLACK
6
CONTINUOUS
10
6.51786
20
-5.98602
11
6.52348
21
-5.9804
0
LINE
8
BLACK
6
CONTINUOUS
10
6.52348
20
-5.9804
11
6.53473
21
-5.96353
0
LINE
8
BLACK
6
CONTINUOUS
10
6.53473
20
-5.96353
11
6.54035
21
-5.95228
0
LINE
8
BLACK
6
CONTINUOUS
10
6.54035
20
-5.95228
11
6.54598
21
-5.9354
0
LINE
8
BLACK
6
CONTINUOUS
10
6.54598
20
-5.9354
11
6.5516
21
-5.90728
0
LINE
8
BLACK
6
CONTINUOUS
10
6.5516
20
-5.90728
11
6.5516
21
-5.88479
0
LINE
8
BLACK
6
CONTINUOUS
10
6.5516
20
-5.88479
11
6.54598
21
-5.85666
0
LINE
8
BLACK
6
CONTINUOUS
10
6.54598
20
-5.85666
11
6.54035
21
-5.83979
0
LINE
8
BLACK
6
CONTINUOUS
10
6.54035
20
-5.83979
11
6.53473
21
-5.82854
0
LINE
8
BLACK
6
CONTINUOUS
10
6.53473
20
-5.82854
11
6.52348
21
-5.81167
0
LINE
8
BLACK
6
CONTINUOUS
10
6.52348
20
-5.81167
11
6.51786
21
-5.80605
0
LINE
8
BLACK
6
CONTINUOUS
10
3.73168
20
-6.0616
11
3.73168
21
-6.02541
0
LINE
8
BLACK
6
CONTINUOUS
10
3.73168
20
-6.02541
11
3.69549
21
-6.02541
0
LINE
8
BLACK
6
CONTINUOUS
10
3.69549
20
-6.02541
11
3.69549
21
-6.0616
0
LINE
8
BLACK
6
CONTINUOUS
10
3.69549
20
-6.0616
11
3.73168
21
-6.0616
0
LINE
8
BLACK
6
CONTINUOUS
10
3.91381
20
-6.09693
11
3.84632
21
-6.09693
0
LINE
8
BLACK
6
CONTINUOUS
10
3.88006
20
-6.09693
11
3.88006
21
-5.97882
0
LINE
8
BLACK
6
CONTINUOUS
10
3.88006
20
-5.97882
11
3.86881
21
-5.9957
0
LINE
8
BLACK
6
CONTINUOUS
10
3.86881
20
-5.9957
11
3.85756
21
-6.00695
0
LINE
8
BLACK
6
CONTINUOUS
10
3.85756
20
-6.00695
11
3.84632
21
-6.01257
0
LINE
8
BLACK
6
CONTINUOUS
10
3.96443
20
-6.08569
11
3.97005
21
-6.09131
0
LINE
8
BLACK
6
CONTINUOUS
10
3.97005
20
-6.09131
11
3.96443
21
-6.09693
0
LINE
8
BLACK
6
CONTINUOUS
10
3.96443
20
-6.09693
11
3.9588
21
-6.09131
0
LINE
8
BLACK
6
CONTINUOUS
10
3.9588
20
-6.09131
11
3.96443
21
-6.08569
0
LINE
8
BLACK
6
CONTINUOUS
10
3.96443
20
-6.08569
11
3.96443
21
-6.09693
0
LINE
8
BLACK
6
CONTINUOUS
10
4.00942
20
-5.97882
11
4.08254
21
-5.97882
0
LINE
8
BLACK
6
CONTINUOUS
10
4.08254
20
-5.97882
11
4.04317
21
-6.02382
0
LINE
8
BLACK
6
CONTINUOUS
10
4.04317
20
-6.02382
11
4.06004
21
-6.02382
0
LINE
8
BLACK
6
CONTINUOUS
10
4.06004
20
-6.02382
11
4.07129
21
-6.02944
0
LINE
8
BLACK
6
CONTINUOUS
10
4.07129
20
-6.02944
11
4.07691
21
-6.03507
0
LINE
8
BLACK
6
CONTINUOUS
10
4.07691
20
-6.03507
11
4.08254
21
-6.04632
0
LINE
8
BLACK
6
CONTINUOUS
10
4.08254
20
-6.04632
11
4.08254
21
-6.07444
0
LINE
8
BLACK
6
CONTINUOUS
10
4.08254
20
-6.07444
11
4.07691
21
-6.08569
0
LINE
8
BLACK
6
CONTINUOUS
10
4.07691
20
-6.08569
11
4.07129
21
-6.09131
0
LINE
8
BLACK
6
CONTINUOUS
10
4.07129
20
-6.09131
11
4.06004
21
-6.09693
0
LINE
8
BLACK
6
CONTINUOUS
10
4.06004
20
-6.09693
11
4.02629
21
-6.09693
0
LINE
8
BLACK
6
CONTINUOUS
10
4.02629
20
-6.09693
11
4.01504
21
-6.09131
0
LINE
8
BLACK
6
CONTINUOUS
10
4.01504
20
-6.09131
11
4.00942
21
-6.08569
0
LINE
8
BLACK
6
CONTINUOUS
10
4.15565
20
-5.97882
11
4.1669
21
-5.97882
0
LINE
8
BLACK
6
CONTINUOUS
10
4.1669
20
-5.97882
11
4.17815
21
-5.98445
0
LINE
8
BLACK
6
CONTINUOUS
10
4.17815
20
-5.98445
11
4.18377
21
-5.99007
0
LINE
8
BLACK
6
CONTINUOUS
10
4.18377
20
-5.99007
11
4.1894
21
-6.00132
0
LINE
8
BLACK
6
CONTINUOUS
10
4.1894
20
-6.00132
11
4.19502
21
-6.02382
0
LINE
8
BLACK
6
CONTINUOUS
10
4.19502
20
-6.02382
11
4.19502
21
-6.05194
0
LINE
8
BLACK
6
CONTINUOUS
10
4.19502
20
-6.05194
11
4.1894
21
-6.07444
0
LINE
8
BLACK
6
CONTINUOUS
10
4.1894
20
-6.07444
11
4.18377
21
-6.08569
0
LINE
8
BLACK
6
CONTINUOUS
10
4.18377
20
-6.08569
11
4.17815
21
-6.09131
0
LINE
8
BLACK
6
CONTINUOUS
10
4.17815
20
-6.09131
11
4.1669
21
-6.09693
0
LINE
8
BLACK
6
CONTINUOUS
10
4.1669
20
-6.09693
11
4.15565
21
-6.09693
0
LINE
8
BLACK
6
CONTINUOUS
10
4.15565
20
-6.09693
11
4.1444
21
-6.09131
0
LINE
8
BLACK
6
CONTINUOUS
10
4.1444
20
-6.09131
11
4.13878
21
-6.08569
0
LINE
8
BLACK
6
CONTINUOUS
10
4.13878
20
-6.08569
11
4.13316
21
-6.07444
0
LINE
8
BLACK
6
CONTINUOUS
10
4.13316
20
-6.07444
11
4.12753
21
-6.05194
0
LINE
8
BLACK
6
CONTINUOUS
10
4.12753
20
-6.05194
11
4.12753
21
-6.02382
0
LINE
8
BLACK
6
CONTINUOUS
10
4.12753
20
-6.02382
11
4.13316
21
-6.00132
0
LINE
8
BLACK
6
CONTINUOUS
10
4.13316
20
-6.00132
11
4.13878
21
-5.99007
0
LINE
8
BLACK
6
CONTINUOUS
10
4.13878
20
-5.99007
11
4.1444
21
-5.98445
0
LINE
8
BLACK
6
CONTINUOUS
10
4.1444
20
-5.98445
11
4.15565
21
-5.97882
0
LINE
8
BLACK
6
CONTINUOUS
10
4.26814
20
-5.97882
11
4.27939
21
-5.97882
0
LINE
8
BLACK
6
CONTINUOUS
10
4.27939
20
-5.97882
11
4.29064
21
-5.98445
0
LINE
8
BLACK
6
CONTINUOUS
10
4.29064
20
-5.98445
11
4.29626
21
-5.99007
0
LINE
8
BLACK
6
CONTINUOUS
10
4.29626
20
-5.99007
11
4.30188
21
-6.00132
0
LINE
8
BLACK
6
CONTINUOUS
10
4.30188
20
-6.00132
11
4.30751
21
-6.02382
0
LINE
8
BLACK
6
CONTINUOUS
10
4.30751
20
-6.02382
11
4.30751
21
-6.05194
0
LINE
8
BLACK
6
CONTINUOUS
10
4.30751
20
-6.05194
11
4.30188
21
-6.07444
0
LINE
8
BLACK
6
CONTINUOUS
10
4.30188
20
-6.07444
11
4.29626
21
-6.08569
0
LINE
8
BLACK
6
CONTINUOUS
10
4.29626
20
-6.08569
11
4.29064
21
-6.09131
0
LINE
8
BLACK
6
CONTINUOUS
10
4.29064
20
-6.09131
11
4.27939
21
-6.09693
0
LINE
8
BLACK
6
CONTINUOUS
10
4.27939
20
-6.09693
11
4.26814
21
-6.09693
0
LINE
8
BLACK
6
CONTINUOUS
10
4.26814
20
-6.09693
11
4.25689
21
-6.09131
0
LINE
8
BLACK
6
CONTINUOUS
10
4.25689
20
-6.09131
11
4.25127
21
-6.08569
0
LINE
8
BLACK
6
CONTINUOUS
10
4.25127
20
-6.08569
11
4.24564
21
-6.07444
0
LINE
8
BLACK
6
CONTINUOUS
10
4.24564
20
-6.07444
11
4.24002
21
-6.05194
0
LINE
8
BLACK
6
CONTINUOUS
10
4.24002
20
-6.05194
11
4.24002
21
-6.02382
0
LINE
8
BLACK
6
CONTINUOUS
10
4.24002
20
-6.02382
11
4.24564
21
-6.00132
0
LINE
8
BLACK
6
CONTINUOUS
10
4.24564
20
-6.00132
11
4.25127
21
-5.99007
0
LINE
8
BLACK
6
CONTINUOUS
10
4.25127
20
-5.99007
11
4.25689
21
-5.98445
0
LINE
8
BLACK
6
CONTINUOUS
10
4.25689
20
-5.98445
11
4.26814
21
-5.97882
0
LINE
8
BLACK
6
CONTINUOUS
10
4.35813
20
-6.09693
11
4.35813
21
-6.01819
0
LINE
8
BLACK
6
CONTINUOUS
10
4.35813
20
-6.02944
11
4.36375
21
-6.02382
0
LINE
8
BLACK
6
CONTINUOUS
10
4.36375
20
-6.02382
11
4.375
21
-6.01819
0
LINE
8
BLACK
6
CONTINUOUS
10
4.375
20
-6.01819
11
4.39187
21
-6.01819
0
LINE
8
BLACK
6
CONTINUOUS
10
4.39187
20
-6.01819
11
4.40312
21
-6.02382
0
LINE
8
BLACK
6
CONTINUOUS
10
4.40312
20
-6.02382
11
4.40875
21
-6.03507
0
LINE
8
BLACK
6
CONTINUOUS
10
4.40875
20
-6.03507
11
4.40875
21
-6.09693
0
LINE
8
BLACK
6
CONTINUOUS
10
4.40875
20
-6.03507
11
4.41437
21
-6.02382
0
LINE
8
BLACK
6
CONTINUOUS
10
4.41437
20
-6.02382
11
4.42562
21
-6.01819
0
LINE
8
BLACK
6
CONTINUOUS
10
4.42562
20
-6.01819
11
4.44249
21
-6.01819
0
LINE
8
BLACK
6
CONTINUOUS
10
4.44249
20
-6.01819
11
4.45374
21
-6.02382
0
LINE
8
BLACK
6
CONTINUOUS
10
4.45374
20
-6.02382
11
4.45936
21
-6.03507
0
LINE
8
BLACK
6
CONTINUOUS
10
4.45936
20
-6.03507
11
4.45936
21
-6.09693
0
LINE
8
BLACK
6
CONTINUOUS
10
4.51561
20
-6.09693
11
4.51561
21
-6.01819
0
LINE
8
BLACK
6
CONTINUOUS
10
4.51561
20
-6.02944
11
4.52123
21
-6.02382
0
LINE
8
BLACK
6
CONTINUOUS
10
4.52123
20
-6.02382
11
4.53248
21
-6.01819
0
LINE
8
BLACK
6
CONTINUOUS
10
4.53248
20
-6.01819
11
4.54935
21
-6.01819
0
LINE
8
BLACK
6
CONTINUOUS
10
4.54935
20
-6.01819
11
4.5606
21
-6.02382
0
LINE
8
BLACK
6
CONTINUOUS
10
4.5606
20
-6.02382
11
4.56623
21
-6.03507
0
LINE
8
BLACK
6
CONTINUOUS
10
4.56623
20
-6.03507
11
4.56623
21
-6.09693
0
LINE
8
BLACK
6
CONTINUOUS
10
4.56623
20
-6.03507
11
4.57185
21
-6.02382
0
LINE
8
BLACK
6
CONTINUOUS
10
4.57185
20
-6.02382
11
4.5831
21
-6.01819
0
LINE
8
BLACK
6
CONTINUOUS
10
4.5831
20
-6.01819
11
4.59997
21
-6.01819
0
LINE
8
BLACK
6
CONTINUOUS
10
4.59997
20
-6.01819
11
4.61122
21
-6.02382
0
LINE
8
BLACK
6
CONTINUOUS
10
4.61122
20
-6.02382
11
4.61684
21
-6.03507
0
LINE
8
BLACK
6
CONTINUOUS
10
4.61684
20
-6.03507
11
4.61684
21
-6.09693
0
LINE
8
BLACK
6
CONTINUOUS
10
4.84744
20
-5.9732
11
4.7462
21
-6.12506
0
LINE
8
BLACK
6
CONTINUOUS
10
4.9993
20
-5.97882
11
5.01055
21
-5.97882
0
LINE
8
BLACK
6
CONTINUOUS
10
5.01055
20
-5.97882
11
5.02179
21
-5.98445
0
LINE
8
BLACK
6
CONTINUOUS
10
5.02179
20
-5.98445
11
5.02742
21
-5.99007
0
LINE
8
BLACK
6
CONTINUOUS
10
5.02742
20
-5.99007
11
5.03304
21
-6.00132
0
LINE
8
BLACK
6
CONTINUOUS
10
5.03304
20
-6.00132
11
5.03867
21
-6.02382
0
LINE
8
BLACK
6
CONTINUOUS
10
5.03867
20
-6.02382
11
5.03867
21
-6.05194
0
LINE
8
BLACK
6
CONTINUOUS
10
5.03867
20
-6.05194
11
5.03304
21
-6.07444
0
LINE
8
BLACK
6
CONTINUOUS
10
5.03304
20
-6.07444
11
5.02742
21
-6.08569
0
LINE
8
BLACK
6
CONTINUOUS
10
5.02742
20
-6.08569
11
5.02179
21
-6.09131
0
LINE
8
BLACK
6
CONTINUOUS
10
5.02179
20
-6.09131
11
5.01055
21
-6.09693
0
LINE
8
BLACK
6
CONTINUOUS
10
5.01055
20
-6.09693
11
4.9993
21
-6.09693
0
LINE
8
BLACK
6
CONTINUOUS
10
4.9993
20
-6.09693
11
4.98805
21
-6.09131
0
LINE
8
BLACK
6
CONTINUOUS
10
4.98805
20
-6.09131
11
4.98242
21
-6.08569
0
LINE
8
BLACK
6
CONTINUOUS
10
4.98242
20
-6.08569
11
4.9768
21
-6.07444
0
LINE
8
BLACK
6
CONTINUOUS
10
4.9768
20
-6.07444
11
4.97118
21
-6.05194
0
LINE
8
BLACK
6
CONTINUOUS
10
4.97118
20
-6.05194
11
4.97118
21
-6.02382
0
LINE
8
BLACK
6
CONTINUOUS
10
4.97118
20
-6.02382
11
4.9768
21
-6.00132
0
LINE
8
BLACK
6
CONTINUOUS
10
4.9768
20
-6.00132
11
4.98242
21
-5.99007
0
LINE
8
BLACK
6
CONTINUOUS
10
4.98242
20
-5.99007
11
4.98805
21
-5.98445
0
LINE
8
BLACK
6
CONTINUOUS
10
4.98805
20
-5.98445
11
4.9993
21
-5.97882
0
LINE
8
BLACK
6
CONTINUOUS
10
5.08929
20
-6.08569
11
5.09491
21
-6.09131
0
LINE
8
BLACK
6
CONTINUOUS
10
5.09491
20
-6.09131
11
5.08929
21
-6.09693
0
LINE
8
BLACK
6
CONTINUOUS
10
5.08929
20
-6.09693
11
5.08366
21
-6.09131
0
LINE
8
BLACK
6
CONTINUOUS
10
5.08366
20
-6.09131
11
5.08929
21
-6.08569
0
LINE
8
BLACK
6
CONTINUOUS
10
5.08929
20
-6.08569
11
5.08929
21
-6.09693
0
LINE
8
BLACK
6
CONTINUOUS
10
5.16803
20
-5.97882
11
5.17927
21
-5.97882
0
LINE
8
BLACK
6
CONTINUOUS
10
5.17927
20
-5.97882
11
5.19052
21
-5.98445
0
LINE
8
BLACK
6
CONTINUOUS
10
5.19052
20
-5.98445
11
5.19615
21
-5.99007
0
LINE
8
BLACK
6
CONTINUOUS
10
5.19615
20
-5.99007
11
5.20177
21
-6.00132
0
LINE
8
BLACK
6
CONTINUOUS
10
5.20177
20
-6.00132
11
5.2074
21
-6.02382
0
LINE
8
BLACK
6
CONTINUOUS
10
5.2074
20
-6.02382
11
5.2074
21
-6.05194
0
LINE
8
BLACK
6
CONTINUOUS
10
5.2074
20
-6.05194
11
5.20177
21
-6.07444
0
LINE
8
BLACK
6
CONTINUOUS
10
5.20177
20
-6.07444
11
5.19615
21
-6.08569
0
LINE
8
BLACK
6
CONTINUOUS
10
5.19615
20
-6.08569
11
5.19052
21
-6.09131
0
LINE
8
BLACK
6
CONTINUOUS
10
5.19052
20
-6.09131
11
5.17927
21
-6.09693
0
LINE
8
BLACK
6
CONTINUOUS
10
5.17927
20
-6.09693
11
5.16803
21
-6.09693
0
LINE
8
BLACK
6
CONTINUOUS
10
5.16803
20
-6.09693
11
5.15678
21
-6.09131
0
LINE
8
BLACK
6
CONTINUOUS
10
5.15678
20
-6.09131
11
5.15115
21
-6.08569
0
LINE
8
BLACK
6
CONTINUOUS
10
5.15115
20
-6.08569
11
5.14553
21
-6.07444
0
LINE
8
BLACK
6
CONTINUOUS
10
5.14553
20
-6.07444
11
5.1399
21
-6.05194
0
LINE
8
BLACK
6
CONTINUOUS
10
5.1399
20
-6.05194
11
5.1399
21
-6.02382
0
LINE
8
BLACK
6
CONTINUOUS
10
5.1399
20
-6.02382
11
5.14553
21
-6.00132
0
LINE
8
BLACK
6
CONTINUOUS
10
5.14553
20
-6.00132
11
5.15115
21
-5.99007
0
LINE
8
BLACK
6
CONTINUOUS
10
5.15115
20
-5.99007
11
5.15678
21
-5.98445
0
LINE
8
BLACK
6
CONTINUOUS
10
5.15678
20
-5.98445
11
5.16803
21
-5.97882
0
LINE
8
BLACK
6
CONTINUOUS
10
5.31426
20
-5.97882
11
5.25801
21
-5.97882
0
LINE
8
BLACK
6
CONTINUOUS
10
5.25801
20
-5.97882
11
5.25239
21
-6.03507
0
LINE
8
BLACK
6
CONTINUOUS
10
5.25239
20
-6.03507
11
5.25801
21
-6.02944
0
LINE
8
BLACK
6
CONTINUOUS
10
5.25801
20
-6.02944
11
5.26926
21
-6.02382
0
LINE
8
BLACK
6
CONTINUOUS
10
5.26926
20
-6.02382
11
5.29738
21
-6.02382
0
LINE
8
BLACK
6
CONTINUOUS
10
5.29738
20
-6.02382
11
5.30863
21
-6.02944
0
LINE
8
BLACK
6
CONTINUOUS
10
5.30863
20
-6.02944
11
5.31426
21
-6.03507
0
LINE
8
BLACK
6
CONTINUOUS
10
5.31426
20
-6.03507
11
5.31988
21
-6.04632
0
LINE
8
BLACK
6
CONTINUOUS
10
5.31988
20
-6.04632
11
5.31988
21
-6.07444
0
LINE
8
BLACK
6
CONTINUOUS
10
5.31988
20
-6.07444
11
5.31426
21
-6.08569
0
LINE
8
BLACK
6
CONTINUOUS
10
5.31426
20
-6.08569
11
5.30863
21
-6.09131
0
LINE
8
BLACK
6
CONTINUOUS
10
5.30863
20
-6.09131
11
5.29738
21
-6.09693
0
LINE
8
BLACK
6
CONTINUOUS
10
5.29738
20
-6.09693
11
5.26926
21
-6.09693
0
LINE
8
BLACK
6
CONTINUOUS
10
5.26926
20
-6.09693
11
5.25801
21
-6.09131
0
LINE
8
BLACK
6
CONTINUOUS
10
5.25801
20
-6.09131
11
5.25239
21
-6.08569
0
LINE
8
BLACK
6
CONTINUOUS
10
5.43237
20
-6.09693
11
5.36488
21
-6.09693
0
LINE
8
BLACK
6
CONTINUOUS
10
5.39862
20
-6.09693
11
5.39862
21
-5.97882
0
LINE
8
BLACK
6
CONTINUOUS
10
5.39862
20
-5.97882
11
5.38737
21
-5.9957
0
LINE
8
BLACK
6
CONTINUOUS
10
5.38737
20
-5.9957
11
5.37612
21
-6.00695
0
LINE
8
BLACK
6
CONTINUOUS
10
5.37612
20
-6.00695
11
5.36488
21
-6.01257
0
LINE
8
BLACK
6
CONTINUOUS
10
5.47736
20
-5.99007
11
5.48299
21
-5.98445
0
LINE
8
BLACK
6
CONTINUOUS
10
5.48299
20
-5.98445
11
5.49424
21
-5.97882
0
LINE
8
BLACK
6
CONTINUOUS
10
5.49424
20
-5.97882
11
5.52236
21
-5.97882
0
LINE
8
BLACK
6
CONTINUOUS
10
5.52236
20
-5.97882
11
5.53361
21
-5.98445
0
LINE
8
BLACK
6
CONTINUOUS
10
5.53361
20
-5.98445
11
5.53923
21
-5.99007
0
LINE
8
BLACK
6
CONTINUOUS
10
5.53923
20
-5.99007
11
5.54485
21
-6.00132
0
LINE
8
BLACK
6
CONTINUOUS
10
5.54485
20
-6.00132
11
5.54485
21
-6.01257
0
LINE
8
BLACK
6
CONTINUOUS
10
5.54485
20
-6.01257
11
5.53923
21
-6.02944
0
LINE
8
BLACK
6
CONTINUOUS
10
5.53923
20
-6.02944
11
5.47174
21
-6.09693
0
LINE
8
BLACK
6
CONTINUOUS
10
5.47174
20
-6.09693
11
5.54485
21
-6.09693
0
LINE
8
BLACK
6
CONTINUOUS
10
5.58985
20
-5.97882
11
5.58985
21
-6.00132
0
LINE
8
BLACK
6
CONTINUOUS
10
5.63484
20
-5.97882
11
5.63484
21
-6.00132
0
LINE
8
BLACK
6
CONTINUOUS
10
5.8092
20
-6.14193
11
5.80357
21
-6.1363
0
LINE
8
BLACK
6
CONTINUOUS
10
5.80357
20
-6.1363
11
5.79232
21
-6.11943
0
LINE
8
BLACK
6
CONTINUOUS
10
5.79232
20
-6.11943
11
5.7867
21
-6.10818
0
LINE
8
BLACK
6
CONTINUOUS
10
5.7867
20
-6.10818
11
5.78107
21
-6.09131
0
LINE
8
BLACK
6
CONTINUOUS
10
5.78107
20
-6.09131
11
5.77545
21
-6.06319
0
LINE
8
BLACK
6
CONTINUOUS
10
5.77545
20
-6.06319
11
5.77545
21
-6.04069
0
LINE
8
BLACK
6
CONTINUOUS
10
5.77545
20
-6.04069
11
5.78107
21
-6.01257
0
LINE
8
BLACK
6
CONTINUOUS
10
5.78107
20
-6.01257
11
5.7867
21
-5.9957
0
LINE
8
BLACK
6
CONTINUOUS
10
5.7867
20
-5.9957
11
5.79232
21
-5.98445
0
LINE
8
BLACK
6
CONTINUOUS
10
5.79232
20
-5.98445
11
5.80357
21
-5.96758
0
LINE
8
BLACK
6
CONTINUOUS
10
5.80357
20
-5.96758
11
5.8092
21
-5.96195
0
LINE
8
BLACK
6
CONTINUOUS
10
5.84857
20
-5.99007
11
5.85419
21
-5.98445
0
LINE
8
BLACK
6
CONTINUOUS
10
5.85419
20
-5.98445
11
5.86544
21
-5.97882
0
LINE
8
BLACK
6
CONTINUOUS
10
5.86544
20
-5.97882
11
5.89356
21
-5.97882
0
LINE
8
BLACK
6
CONTINUOUS
10
5.89356
20
-5.97882
11
5.90481
21
-5.98445
0
LINE
8
BLACK
6
CONTINUOUS
10
5.90481
20
-5.98445
11
5.91043
21
-5.99007
0
LINE
8
BLACK
6
CONTINUOUS
10
5.91043
20
-5.99007
11
5.91606
21
-6.00132
0
LINE
8
BLACK
6
CONTINUOUS
10
5.91606
20
-6.00132
11
5.91606
21
-6.01257
0
LINE
8
BLACK
6
CONTINUOUS
10
5.91606
20
-6.01257
11
5.91043
21
-6.02944
0
LINE
8
BLACK
6
CONTINUOUS
10
5.91043
20
-6.02944
11
5.84294
21
-6.09693
0
LINE
8
BLACK
6
CONTINUOUS
10
5.84294
20
-6.09693
11
5.91606
21
-6.09693
0
LINE
8
BLACK
6
CONTINUOUS
10
6.05666
20
-6.09693
11
6.05666
21
-5.97882
0
LINE
8
BLACK
6
CONTINUOUS
10
6.10728
20
-6.09693
11
6.10728
21
-6.03507
0
LINE
8
BLACK
6
CONTINUOUS
10
6.10728
20
-6.03507
11
6.10166
21
-6.02382
0
LINE
8
BLACK
6
CONTINUOUS
10
6.10166
20
-6.02382
11
6.09041
21
-6.01819
0
LINE
8
BLACK
6
CONTINUOUS
10
6.09041
20
-6.01819
11
6.07354
21
-6.01819
0
LINE
8
BLACK
6
CONTINUOUS
10
6.07354
20
-6.01819
11
6.06229
21
-6.02382
0
LINE
8
BLACK
6
CONTINUOUS
10
6.06229
20
-6.02382
11
6.05666
21
-6.02944
0
LINE
8
BLACK
6
CONTINUOUS
10
6.1804
20
-6.09693
11
6.16915
21
-6.09131
0
LINE
8
BLACK
6
CONTINUOUS
10
6.16915
20
-6.09131
11
6.16353
21
-6.08569
0
LINE
8
BLACK
6
CONTINUOUS
10
6.16353
20
-6.08569
11
6.1579
21
-6.07444
0
LINE
8
BLACK
6
CONTINUOUS
10
6.1579
20
-6.07444
11
6.1579
21
-6.04069
0
LINE
8
BLACK
6
CONTINUOUS
10
6.1579
20
-6.04069
11
6.16353
21
-6.02944
0
LINE
8
BLACK
6
CONTINUOUS
10
6.16353
20
-6.02944
11
6.16915
21
-6.02382
0
LINE
8
BLACK
6
CONTINUOUS
10
6.16915
20
-6.02382
11
6.1804
21
-6.01819
0
LINE
8
BLACK
6
CONTINUOUS
10
6.1804
20
-6.01819
11
6.19727
21
-6.01819
0
LINE
8
BLACK
6
CONTINUOUS
10
6.19727
20
-6.01819
11
6.20852
21
-6.02382
0
LINE
8
BLACK
6
CONTINUOUS
10
6.20852
20
-6.02382
11
6.21415
21
-6.02944
0
LINE
8
BLACK
6
CONTINUOUS
10
6.21415
20
-6.02944
11
6.21977
21
-6.04069
0
LINE
8
BLACK
6
CONTINUOUS
10
6.21977
20
-6.04069
11
6.21977
21
-6.07444
0
LINE
8
BLACK
6
CONTINUOUS
10
6.21977
20
-6.07444
11
6.21415
21
-6.08569
0
LINE
8
BLACK
6
CONTINUOUS
10
6.21415
20
-6.08569
11
6.20852
21
-6.09131
0
LINE
8
BLACK
6
CONTINUOUS
10
6.20852
20
-6.09131
11
6.19727
21
-6.09693
0
LINE
8
BLACK
6
CONTINUOUS
10
6.19727
20
-6.09693
11
6.1804
21
-6.09693
0
LINE
8
BLACK
6
CONTINUOUS
10
6.28726
20
-6.09693
11
6.27601
21
-6.09131
0
LINE
8
BLACK
6
CONTINUOUS
10
6.27601
20
-6.09131
11
6.27039
21
-6.08006
0
LINE
8
BLACK
6
CONTINUOUS
10
6.27039
20
-6.08006
11
6.27039
21
-5.97882
0
LINE
8
BLACK
6
CONTINUOUS
10
6.37725
20
-6.09131
11
6.366
21
-6.09693
0
LINE
8
BLACK
6
CONTINUOUS
10
6.366
20
-6.09693
11
6.3435
21
-6.09693
0
LINE
8
BLACK
6
CONTINUOUS
10
6.3435
20
-6.09693
11
6.33226
21
-6.09131
0
LINE
8
BLACK
6
CONTINUOUS
10
6.33226
20
-6.09131
11
6.32663
21
-6.08006
0
LINE
8
BLACK
6
CONTINUOUS
10
6.32663
20
-6.08006
11
6.32663
21
-6.03507
0
LINE
8
BLACK
6
CONTINUOUS
10
6.32663
20
-6.03507
11
6.33226
21
-6.02382
0
LINE
8
BLACK
6
CONTINUOUS
10
6.33226
20
-6.02382
11
6.3435
21
-6.01819
0
LINE
8
BLACK
6
CONTINUOUS
10
6.3435
20
-6.01819
11
6.366
21
-6.01819
0
LINE
8
BLACK
6
CONTINUOUS
10
6.366
20
-6.01819
11
6.37725
21
-6.02382
0
LINE
8
BLACK
6
CONTINUOUS
10
6.37725
20
-6.02382
11
6.38287
21
-6.03507
0
LINE
8
BLACK
6
CONTINUOUS
10
6.38287
20
-6.03507
11
6.38287
21
-6.04632
0
LINE
8
BLACK
6
CONTINUOUS
10
6.38287
20
-6.04632
11
6.32663
21
-6.05756
0
LINE
8
BLACK
6
CONTINUOUS
10
6.42787
20
-6.09131
11
6.43912
21
-6.09693
0
LINE
8
BLACK
6
CONTINUOUS
10
6.43912
20
-6.09693
11
6.46161
21
-6.09693
0
LINE
8
BLACK
6
CONTINUOUS
10
6.46161
20
-6.09693
11
6.47286
21
-6.09131
0
LINE
8
BLACK
6
CONTINUOUS
10
6.47286
20
-6.09131
11
6.47849
21
-6.08006
0
LINE
8
BLACK
6
CONTINUOUS
10
6.47849
20
-6.08006
11
6.47849
21
-6.07444
0
LINE
8
BLACK
6
CONTINUOUS
10
6.47849
20
-6.07444
11
6.47286
21
-6.06319
0
LINE
8
BLACK
6
CONTINUOUS
10
6.47286
20
-6.06319
11
6.46161
21
-6.05756
0
LINE
8
BLACK
6
CONTINUOUS
10
6.46161
20
-6.05756
11
6.44474
21
-6.05756
0
LINE
8
BLACK
6
CONTINUOUS
10
6.44474
20
-6.05756
11
6.43349
21
-6.05194
0
LINE
8
BLACK
6
CONTINUOUS
10
6.43349
20
-6.05194
11
6.42787
21
-6.04069
0
LINE
8
BLACK
6
CONTINUOUS
10
6.42787
20
-6.04069
11
6.42787
21
-6.03507
0
LINE
8
BLACK
6
CONTINUOUS
10
6.42787
20
-6.03507
11
6.43349
21
-6.02382
0
LINE
8
BLACK
6
CONTINUOUS
10
6.43349
20
-6.02382
11
6.44474
21
-6.01819
0
LINE
8
BLACK
6
CONTINUOUS
10
6.44474
20
-6.01819
11
6.46161
21
-6.01819
0
LINE
8
BLACK
6
CONTINUOUS
10
6.46161
20
-6.01819
11
6.47286
21
-6.02382
0
LINE
8
BLACK
6
CONTINUOUS
10
6.51786
20
-6.14193
11
6.52348
21
-6.1363
0
LINE
8
BLACK
6
CONTINUOUS
10
6.52348
20
-6.1363
11
6.53473
21
-6.11943
0
LINE
8
BLACK
6
CONTINUOUS
10
6.53473
20
-6.11943
11
6.54035
21
-6.10818
0
LINE
8
BLACK
6
CONTINUOUS
10
6.54035
20
-6.10818
11
6.54598
21
-6.09131
0
LINE
8
BLACK
6
CONTINUOUS
10
6.54598
20
-6.09131
11
6.5516
21
-6.06319
0
LINE
8
BLACK
6
CONTINUOUS
10
6.5516
20
-6.06319
11
6.5516
21
-6.04069
0
LINE
8
BLACK
6
CONTINUOUS
10
6.5516
20
-6.04069
11
6.54598
21
-6.01257
0
LINE
8
BLACK
6
CONTINUOUS
10
6.54598
20
-6.01257
11
6.54035
21
-5.9957
0
LINE
8
BLACK
6
CONTINUOUS
10
6.54035
20
-5.9957
11
6.53473
21
-5.98445
0
LINE
8
BLACK
6
CONTINUOUS
10
6.53473
20
-5.98445
11
6.52348
21
-5.96758
0
LINE
8
BLACK
6
CONTINUOUS
10
6.52348
20
-5.96758
11
6.51786
21
-5.96195
  0
ENDSEC
  0
EOF
