  0
SECTION
  2
HEADER
  9
$ANGBASE
  50
0.0
  9
$ANGDIR
  70
1
  9
$MEASUREMENT
  70
0
  0
ENDSEC
  0
SECTION
  2
TABLES
  0
TABLE
  2
LTYPE
  70
4
  0
LTYPE
  5
40F
  2
CONTINUOUS
  70
0
  3
Solid line
  72
65
  73
0
  40
0.0
  0
LTYPE
  5
410
  2
DASHDOT
 70
0
  3
Dash Dot ____ _ ____ _
 72
65
 73
4
 40
2.0
 49
1.25
 49
-0.25
 49
0.25
 49
-0.25
  0
LTYPE
  5
411
  2
DASHED
 70
0
  3
Dashed __ __ __ __ __
 72
65
 73
2
 40
0.75
 49
0.5
 49
-0.25
  0
LTYPE
  5
43B
  2
DOTTED
 70
0
  3
Dotted .  .  .  .
 72
65
 73
2
 40
0.2
 49
0.0
 49
-0.2
  0
ENDTAB
  0
TABLE
  2
STYLE
  70
4
  0
STYLE
  2
KICAD
  70
0
  40
0
  41
1
  42
1
  50
0
  71
0
  3
isocp.shx
  0
STYLE
  2
KICADB
  70
0
  40
0
  41
1
  42
1
  50
0
  71
0
  3
isocp.shx
  0
STYLE
  2
KICADI
  70
0
  40
0
  41
1
  42
1
  50
15
  71
0
  3
isocp.shx
  0
STYLE
  2
KICADBI
  70
0
  40
0
  41
1
  42
1
  50
15
  71
0
  3
isocp.shx
  0
ENDTAB
  0
TABLE
  2
LAYER
  70
1
  0
LAYER
  2
BLACK
  70
0
  62
7
  6
CONTINUOUS
  0
ENDTAB
  0
ENDSEC
  0
SECTION
  2
ENTITIES
0
LINE
8
BLACK
6
CONTINUOUS
10
8.14921
20
-8.6626
11
10.8106
21
-8.6626
0
LINE
8
BLACK
6
CONTINUOUS
10
8.14921
20
-8.65866
11
8.14921
21
-8.6626
0
LINE
8
BLACK
6
CONTINUOUS
10
8.14921
20
-8.22953
11
8.14921
21
-8.65866
0
LINE
8
BLACK
6
CONTINUOUS
10
4.80276
20
-8.22953
11
8.14921
21
-8.22953
0
LINE
8
BLACK
6
CONTINUOUS
10
4.80276
20
-8.6626
11
4.80276
21
-8.22953
0
LINE
8
BLACK
6
CONTINUOUS
10
2.14921
20
-8.6626
11
4.80276
21
-8.6626
0
LINE
8
BLACK
6
CONTINUOUS
10
2.14921
20
-2.36339
11
2.14921
21
-8.6626
0
LINE
8
BLACK
6
CONTINUOUS
10
10.8106
20
-2.36339
11
2.14921
21
-2.36339
0
LINE
8
BLACK
6
CONTINUOUS
10
10.8106
20
-8.6626
11
10.8106
21
-2.36339
0
LINE
8
BLACK
6
CONTINUOUS
10
7.09134
20
-5.6626
11
7.10709
21
-5.67835
0
LINE
8
BLACK
6
CONTINUOUS
10
7.10709
20
-5.6626
11
7.09134
21
-5.67835
0
CIRCLE
8
BLACK
10
4.42421
20
-5.6126
40
0.015748
0
CIRCLE
8
BLACK
10
4.52421
20
-5.4626
40
0.015748
0
CIRCLE
8
BLACK
10
4.59016
20
-3.46575
40
0.015748
0
CIRCLE
8
BLACK
10
4.67874
20
-3.57402
40
0.015748
0
CIRCLE
8
BLACK
10
4.72795
20
-5.02087
40
0.015748
0
CIRCLE
8
BLACK
10
4.77421
20
-5.5376
40
0.015748
0
CIRCLE
8
BLACK
10
4.82638
20
-3.5248
40
0.015748
0
CIRCLE
8
BLACK
10
4.82638
20
-3.81535
40
0.015748
0
CIRCLE
8
BLACK
10
4.82638
20
-3.91535
40
0.015748
0
CIRCLE
8
BLACK
10
4.82638
20
-4.01535
40
0.015748
0
CIRCLE
8
BLACK
10
4.82638
20
-4.11535
40
0.015748
0
CIRCLE
8
BLACK
10
4.82638
20
-4.21535
40
0.015748
0
CIRCLE
8
BLACK
10
4.82638
20
-4.31535
40
0.015748
0
CIRCLE
8
BLACK
10
4.82638
20
-4.41535
40
0.015748
0
CIRCLE
8
BLACK
10
4.82638
20
-4.51535
40
0.015748
0
CIRCLE
8
BLACK
10
4.82638
20
-5.96575
40
0.015748
0
CIRCLE
8
BLACK
10
4.82638
20
-6.06575
40
0.015748
0
CIRCLE
8
BLACK
10
4.82638
20
-6.16575
40
0.015748
0
CIRCLE
8
BLACK
10
4.82638
20
-6.26575
40
0.015748
0
CIRCLE
8
BLACK
10
4.82638
20
-6.36575
40
0.015748
0
CIRCLE
8
BLACK
10
4.82638
20
-6.46575
40
0.015748
0
CIRCLE
8
BLACK
10
4.82638
20
-6.56575
40
0.015748
0
CIRCLE
8
BLACK
10
4.82638
20
-6.79252
40
0.015748
0
CIRCLE
8
BLACK
10
4.99843
20
-5.06496
40
0.015748
0
CIRCLE
8
BLACK
10
5.02323
20
-3.14094
40
0.015748
0
CIRCLE
8
BLACK
10
5.12638
20
-3.81535
40
0.015748
0
CIRCLE
8
BLACK
10
5.12638
20
-3.91535
40
0.015748
0
CIRCLE
8
BLACK
10
5.12638
20
-4.01535
40
0.015748
0
CIRCLE
8
BLACK
10
5.12638
20
-4.11535
40
0.015748
0
CIRCLE
8
BLACK
10
5.12638
20
-4.21535
40
0.015748
0
CIRCLE
8
BLACK
10
5.12638
20
-4.31535
40
0.015748
0
CIRCLE
8
BLACK
10
5.12638
20
-4.41535
40
0.015748
0
CIRCLE
8
BLACK
10
5.12638
20
-4.51535
40
0.015748
0
CIRCLE
8
BLACK
10
5.12638
20
-5.96575
40
0.015748
0
CIRCLE
8
BLACK
10
5.12638
20
-6.06575
40
0.015748
0
CIRCLE
8
BLACK
10
5.12638
20
-6.16575
40
0.015748
0
CIRCLE
8
BLACK
10
5.12638
20
-6.26575
40
0.015748
0
CIRCLE
8
BLACK
10
5.12638
20
-6.36575
40
0.015748
0
CIRCLE
8
BLACK
10
5.12638
20
-6.46575
40
0.015748
0
CIRCLE
8
BLACK
10
5.12638
20
-6.56575
40
0.015748
0
CIRCLE
8
BLACK
10
5.24921
20
-5.6126
40
0.015748
0
CIRCLE
8
BLACK
10
5.27421
20
-3.3376
40
0.015748
0
CIRCLE
8
BLACK
10
5.3185
20
-4.96181
40
0.015748
0
CIRCLE
8
BLACK
10
5.34921
20
-3.2126
40
0.015748
0
CIRCLE
8
BLACK
10
5.39921
20
-3.3876
40
0.015748
0
CIRCLE
8
BLACK
10
5.47421
20
-3.2876
40
0.015748
0
CIRCLE
8
BLACK
10
5.52737
20
-4.92067
40
0.015748
0
CIRCLE
8
BLACK
10
5.95827
20
-5.21772
40
0.015748
0
CIRCLE
8
BLACK
10
5.96811
20
-5.61142
40
0.015748
0
CIRCLE
8
BLACK
10
6.19921
20
-5.5626
40
0.015748
0
CIRCLE
8
BLACK
10
6.28307
20
-3.81535
40
0.015748
0
CIRCLE
8
BLACK
10
6.28307
20
-3.91535
40
0.015748
0
CIRCLE
8
BLACK
10
6.28307
20
-4.01535
40
0.015748
0
CIRCLE
8
BLACK
10
6.28307
20
-4.11535
40
0.015748
0
CIRCLE
8
BLACK
10
6.28307
20
-4.21535
40
0.015748
0
CIRCLE
8
BLACK
10
6.28307
20
-4.31535
40
0.015748
0
CIRCLE
8
BLACK
10
6.28307
20
-4.41535
40
0.015748
0
CIRCLE
8
BLACK
10
6.28307
20
-5.96575
40
0.015748
0
CIRCLE
8
BLACK
10
6.28307
20
-6.06575
40
0.015748
0
CIRCLE
8
BLACK
10
6.28307
20
-6.16575
40
0.015748
0
CIRCLE
8
BLACK
10
6.28307
20
-6.26575
40
0.015748
0
CIRCLE
8
BLACK
10
6.28307
20
-6.36575
40
0.015748
0
CIRCLE
8
BLACK
10
6.28307
20
-6.46575
40
0.015748
0
CIRCLE
8
BLACK
10
6.28307
20
-6.56575
40
0.015748
0
CIRCLE
8
BLACK
10
6.28307
20
-3.5248
40
0.015748
0
CIRCLE
8
BLACK
10
6.32244
20
-6.99921
40
0.015748
0
CIRCLE
8
BLACK
10
6.36181
20
-3.58386
40
0.015748
0
CIRCLE
8
BLACK
10
6.44055
20
-3.58386
40
0.015748
0
CIRCLE
8
BLACK
10
6.49921
20
-5.51831
40
0.015748
0
CIRCLE
8
BLACK
10
6.52421
20
-6.9626
40
0.015748
0
CIRCLE
8
BLACK
10
6.53898
20
-3.5248
40
0.015748
0
CIRCLE
8
BLACK
10
6.57835
20
-4.86339
40
0.015748
0
CIRCLE
8
BLACK
10
6.58307
20
-3.81535
40
0.015748
0
CIRCLE
8
BLACK
10
6.58307
20
-3.91535
40
0.015748
0
CIRCLE
8
BLACK
10
6.58307
20
-4.01535
40
0.015748
0
CIRCLE
8
BLACK
10
6.58307
20
-4.11535
40
0.015748
0
CIRCLE
8
BLACK
10
6.58307
20
-4.21535
40
0.015748
0
CIRCLE
8
BLACK
10
6.58307
20
-4.31535
40
0.015748
0
CIRCLE
8
BLACK
10
6.58307
20
-4.41535
40
0.015748
0
CIRCLE
8
BLACK
10
6.58307
20
-5.96575
40
0.015748
0
CIRCLE
8
BLACK
10
6.58307
20
-6.06575
40
0.015748
0
CIRCLE
8
BLACK
10
6.58307
20
-6.16575
40
0.015748
0
CIRCLE
8
BLACK
10
6.58307
20
-6.26575
40
0.015748
0
CIRCLE
8
BLACK
10
6.58307
20
-6.36575
40
0.015748
0
CIRCLE
8
BLACK
10
6.58307
20
-6.46575
40
0.015748
0
CIRCLE
8
BLACK
10
6.58307
20
-6.56575
40
0.015748
0
CIRCLE
8
BLACK
10
6.68661
20
-3.14094
40
0.015748
0
CIRCLE
8
BLACK
10
6.69646
20
-5.50689
40
0.015748
0
CIRCLE
8
BLACK
10
6.69646
20
-6.26102
40
0.015748
0
CIRCLE
8
BLACK
10
7.04921
20
-6.4626
40
0.015748
0
CIRCLE
8
BLACK
10
7.24764
20
-5.75945
40
0.015748
0
CIRCLE
8
BLACK
10
7.24764
20
-6.35945
40
0.015748
0
CIRCLE
8
BLACK
10
7.24921
20
-6.9626
40
0.015748
0
CIRCLE
8
BLACK
10
7.4248
20
-5.35551
40
0.015748
0
CIRCLE
8
BLACK
10
7.4248
20
-5.75945
40
0.015748
0
CIRCLE
8
BLACK
10
7.4248
20
-6.35945
40
0.015748
0
CIRCLE
8
BLACK
10
7.52421
20
-5.5626
40
0.015748
0
CIRCLE
8
BLACK
10
7.60197
20
-5.75945
40
0.015748
0
CIRCLE
8
BLACK
10
7.60197
20
-6.35945
40
0.015748
0
CIRCLE
8
BLACK
10
7.77421
20
-3.3376
40
0.015748
0
CIRCLE
8
BLACK
10
7.77913
20
-3.81535
40
0.015748
0
CIRCLE
8
BLACK
10
7.77913
20
-3.91535
40
0.015748
0
CIRCLE
8
BLACK
10
7.77913
20
-4.01535
40
0.015748
0
CIRCLE
8
BLACK
10
7.77913
20
-4.11535
40
0.015748
0
CIRCLE
8
BLACK
10
7.77913
20
-4.21535
40
0.015748
0
CIRCLE
8
BLACK
10
7.77913
20
-4.31535
40
0.015748
0
CIRCLE
8
BLACK
10
7.77913
20
-4.41535
40
0.015748
0
CIRCLE
8
BLACK
10
7.77913
20
-5.96575
40
0.015748
0
CIRCLE
8
BLACK
10
7.77913
20
-6.06575
40
0.015748
0
CIRCLE
8
BLACK
10
7.77913
20
-6.16575
40
0.015748
0
CIRCLE
8
BLACK
10
7.77913
20
-6.26575
40
0.015748
0
CIRCLE
8
BLACK
10
7.77913
20
-6.36575
40
0.015748
0
CIRCLE
8
BLACK
10
7.77913
20
-6.46575
40
0.015748
0
CIRCLE
8
BLACK
10
7.77913
20
-6.56575
40
0.015748
0
CIRCLE
8
BLACK
10
7.84921
20
-3.2126
40
0.015748
0
CIRCLE
8
BLACK
10
7.87756
20
-5.29646
40
0.015748
0
CIRCLE
8
BLACK
10
7.87756
20
-5.41457
40
0.015748
0
CIRCLE
8
BLACK
10
7.92421
20
-3.3876
40
0.015748
0
CIRCLE
8
BLACK
10
7.97421
20
-3.2876
40
0.015748
0
CIRCLE
8
BLACK
10
7.97598
20
-5.31614
40
0.015748
0
CIRCLE
8
BLACK
10
8.02028
20
-5.57205
40
0.015748
0
CIRCLE
8
BLACK
10
8.07913
20
-3.81535
40
0.015748
0
CIRCLE
8
BLACK
10
8.07913
20
-3.91535
40
0.015748
0
CIRCLE
8
BLACK
10
8.07913
20
-4.01535
40
0.015748
0
CIRCLE
8
BLACK
10
8.07913
20
-4.11535
40
0.015748
0
CIRCLE
8
BLACK
10
8.07913
20
-4.21535
40
0.015748
0
CIRCLE
8
BLACK
10
8.07913
20
-4.31535
40
0.015748
0
CIRCLE
8
BLACK
10
8.07913
20
-4.41535
40
0.015748
0
CIRCLE
8
BLACK
10
8.07913
20
-5.96575
40
0.015748
0
CIRCLE
8
BLACK
10
8.07913
20
-6.06575
40
0.015748
0
CIRCLE
8
BLACK
10
8.07913
20
-6.16575
40
0.015748
0
CIRCLE
8
BLACK
10
8.07913
20
-6.26575
40
0.015748
0
CIRCLE
8
BLACK
10
8.07913
20
-6.36575
40
0.015748
0
CIRCLE
8
BLACK
10
8.07913
20
-6.46575
40
0.015748
0
CIRCLE
8
BLACK
10
8.07913
20
-6.56575
40
0.015748
0
CIRCLE
8
BLACK
10
8.08425
20
-5.11929
40
0.015748
0
CIRCLE
8
BLACK
10
8.09921
20
-5.4626
40
0.015748
0
CIRCLE
8
BLACK
10
8.2122
20
-5.45886
40
0.015748
0
CIRCLE
8
BLACK
10
8.28701
20
-7.02874
40
0.015748
0
CIRCLE
8
BLACK
10
8.29094
20
-5.75945
40
0.015748
0
CIRCLE
8
BLACK
10
8.29094
20
-6.35945
40
0.015748
0
CIRCLE
8
BLACK
10
8.4189
20
-4.43031
40
0.015748
0
CIRCLE
8
BLACK
10
8.44843
20
-7.03661
40
0.015748
0
CIRCLE
8
BLACK
10
8.4878
20
-5.57205
40
0.015748
0
CIRCLE
8
BLACK
10
8.52717
20
-5.16102
40
0.015748
0
CIRCLE
8
BLACK
10
8.58622
20
-5.75945
40
0.015748
0
CIRCLE
8
BLACK
10
8.58622
20
-6.35945
40
0.015748
0
CIRCLE
8
BLACK
10
8.78307
20
-7.90669
40
0.015748
0
CIRCLE
8
BLACK
10
8.79921
20
-6.9626
40
0.015748
0
CIRCLE
8
BLACK
10
8.80522
20
-5.56102
40
0.015748
0
CIRCLE
8
BLACK
10
8.8815
20
-4.42047
40
0.015748
0
CIRCLE
8
BLACK
10
8.97421
20
-6.9126
40
0.015748
0
CIRCLE
8
BLACK
10
9.15709
20
-5.45886
40
0.015748
0
CIRCLE
8
BLACK
10
9.15709
20
-3.81535
40
0.015748
0
CIRCLE
8
BLACK
10
9.15709
20
-3.91535
40
0.015748
0
CIRCLE
8
BLACK
10
9.15709
20
-4.01535
40
0.015748
0
CIRCLE
8
BLACK
10
9.15709
20
-4.11535
40
0.015748
0
CIRCLE
8
BLACK
10
9.15709
20
-4.21535
40
0.015748
0
CIRCLE
8
BLACK
10
9.15709
20
-4.31535
40
0.015748
0
CIRCLE
8
BLACK
10
9.15709
20
-4.41535
40
0.015748
0
CIRCLE
8
BLACK
10
9.15709
20
-5.96575
40
0.015748
0
CIRCLE
8
BLACK
10
9.15709
20
-6.06575
40
0.015748
0
CIRCLE
8
BLACK
10
9.15709
20
-6.16575
40
0.015748
0
CIRCLE
8
BLACK
10
9.15709
20
-6.26575
40
0.015748
0
CIRCLE
8
BLACK
10
9.15709
20
-6.36575
40
0.015748
0
CIRCLE
8
BLACK
10
9.15709
20
-6.46575
40
0.015748
0
CIRCLE
8
BLACK
10
9.15709
20
-6.56575
40
0.015748
0
CIRCLE
8
BLACK
10
9.23583
20
-4.74134
40
0.015748
0
CIRCLE
8
BLACK
10
9.30472
20
-5.41457
40
0.015748
0
CIRCLE
8
BLACK
10
9.37362
20
-3.46575
40
0.015748
0
CIRCLE
8
BLACK
10
9.45236
20
-5.46102
40
0.015748
0
CIRCLE
8
BLACK
10
9.45709
20
-3.81535
40
0.015748
0
CIRCLE
8
BLACK
10
9.45709
20
-3.91535
40
0.015748
0
CIRCLE
8
BLACK
10
9.45709
20
-4.01535
40
0.015748
0
CIRCLE
8
BLACK
10
9.45709
20
-4.11535
40
0.015748
0
CIRCLE
8
BLACK
10
9.45709
20
-4.21535
40
0.015748
0
CIRCLE
8
BLACK
10
9.45709
20
-4.31535
40
0.015748
0
CIRCLE
8
BLACK
10
9.45709
20
-4.41535
40
0.015748
0
CIRCLE
8
BLACK
10
9.45709
20
-5.96575
40
0.015748
0
CIRCLE
8
BLACK
10
9.45709
20
-6.06575
40
0.015748
0
CIRCLE
8
BLACK
10
9.45709
20
-6.16575
40
0.015748
0
CIRCLE
8
BLACK
10
9.45709
20
-6.26575
40
0.015748
0
CIRCLE
8
BLACK
10
9.45709
20
-6.36575
40
0.015748
0
CIRCLE
8
BLACK
10
9.45709
20
-6.46575
40
0.015748
0
CIRCLE
8
BLACK
10
9.45709
20
-6.56575
40
0.015748
0
CIRCLE
8
BLACK
10
9.89331
20
-4.75315
40
0.015748
0
CIRCLE
8
BLACK
10
9.96024
20
-7.90669
40
0.015748
0
CIRCLE
8
BLACK
10
9.98386
20
-4.80433
40
0.015748
0
CIRCLE
8
BLACK
10
10.0242
20
-5.9126
40
0.015748
0
CIRCLE
8
BLACK
10
10.0242
20
-6.3376
40
0.015748
0
CIRCLE
8
BLACK
10
10.0242
20
-6.9626
40
0.015748
0
CIRCLE
8
BLACK
10
10.1242
20
-6.9126
40
0.015748
0
CIRCLE
8
BLACK
10
10.2594
20
-3.60354
40
0.015748
0
CIRCLE
8
BLACK
10
10.3343
20
-7.03661
40
0.015748
0
CIRCLE
8
BLACK
10
10.3579
20
-3.5248
40
0.015748
0
LINE
8
BLACK
6
CONTINUOUS
10
2.58465
20
-4.74606
11
2.58465
21
-4.78543
0
LINE
8
BLACK
6
CONTINUOUS
10
2.56496
20
-4.76575
11
2.60433
21
-4.76575
0
LINE
8
BLACK
6
CONTINUOUS
10
2.58465
20
-4.84606
11
2.58465
21
-4.88543
0
LINE
8
BLACK
6
CONTINUOUS
10
2.56496
20
-4.86575
11
2.60433
21
-4.86575
0
LINE
8
BLACK
6
CONTINUOUS
10
2.58465
20
-4.94606
11
2.58465
21
-4.98543
0
LINE
8
BLACK
6
CONTINUOUS
10
2.56496
20
-4.96575
11
2.60433
21
-4.96575
0
LINE
8
BLACK
6
CONTINUOUS
10
2.58465
20
-5.04606
11
2.58465
21
-5.08543
0
LINE
8
BLACK
6
CONTINUOUS
10
2.56496
20
-5.06575
11
2.60433
21
-5.06575
0
LINE
8
BLACK
6
CONTINUOUS
10
2.58465
20
-5.14606
11
2.58465
21
-5.18543
0
LINE
8
BLACK
6
CONTINUOUS
10
2.56496
20
-5.16575
11
2.60433
21
-5.16575
0
LINE
8
BLACK
6
CONTINUOUS
10
2.58465
20
-5.24606
11
2.58465
21
-5.28543
0
LINE
8
BLACK
6
CONTINUOUS
10
2.56496
20
-5.26575
11
2.60433
21
-5.26575
0
LINE
8
BLACK
6
CONTINUOUS
10
2.58465
20
-5.34606
11
2.58465
21
-5.38543
0
LINE
8
BLACK
6
CONTINUOUS
10
2.56496
20
-5.36575
11
2.60433
21
-5.36575
0
LINE
8
BLACK
6
CONTINUOUS
10
2.58465
20
-5.44606
11
2.58465
21
-5.48543
0
LINE
8
BLACK
6
CONTINUOUS
10
2.56496
20
-5.46575
11
2.60433
21
-5.46575
0
LINE
8
BLACK
6
CONTINUOUS
10
2.58465
20
-5.54606
11
2.58465
21
-5.58543
0
LINE
8
BLACK
6
CONTINUOUS
10
2.56496
20
-5.56575
11
2.60433
21
-5.56575
0
LINE
8
BLACK
6
CONTINUOUS
10
2.58465
20
-5.64606
11
2.58465
21
-5.68543
0
LINE
8
BLACK
6
CONTINUOUS
10
2.56496
20
-5.66575
11
2.60433
21
-5.66575
0
LINE
8
BLACK
6
CONTINUOUS
10
2.58465
20
-5.74606
11
2.58465
21
-5.78543
0
LINE
8
BLACK
6
CONTINUOUS
10
2.56496
20
-5.76575
11
2.60433
21
-5.76575
0
LINE
8
BLACK
6
CONTINUOUS
10
2.58465
20
-5.84606
11
2.58465
21
-5.88543
0
LINE
8
BLACK
6
CONTINUOUS
10
2.56496
20
-5.86575
11
2.60433
21
-5.86575
0
LINE
8
BLACK
6
CONTINUOUS
10
2.58465
20
-5.94606
11
2.58465
21
-5.98543
0
LINE
8
BLACK
6
CONTINUOUS
10
2.56496
20
-5.96575
11
2.60433
21
-5.96575
0
LINE
8
BLACK
6
CONTINUOUS
10
2.68465
20
-4.74606
11
2.68465
21
-4.78543
0
LINE
8
BLACK
6
CONTINUOUS
10
2.66496
20
-4.76575
11
2.70433
21
-4.76575
0
LINE
8
BLACK
6
CONTINUOUS
10
2.68465
20
-4.84606
11
2.68465
21
-4.88543
0
LINE
8
BLACK
6
CONTINUOUS
10
2.66496
20
-4.86575
11
2.70433
21
-4.86575
0
LINE
8
BLACK
6
CONTINUOUS
10
2.68465
20
-4.94606
11
2.68465
21
-4.98543
0
LINE
8
BLACK
6
CONTINUOUS
10
2.66496
20
-4.96575
11
2.70433
21
-4.96575
0
LINE
8
BLACK
6
CONTINUOUS
10
2.68465
20
-5.04606
11
2.68465
21
-5.08543
0
LINE
8
BLACK
6
CONTINUOUS
10
2.66496
20
-5.06575
11
2.70433
21
-5.06575
0
LINE
8
BLACK
6
CONTINUOUS
10
2.68465
20
-5.14606
11
2.68465
21
-5.18543
0
LINE
8
BLACK
6
CONTINUOUS
10
2.66496
20
-5.16575
11
2.70433
21
-5.16575
0
LINE
8
BLACK
6
CONTINUOUS
10
2.68465
20
-5.24606
11
2.68465
21
-5.28543
0
LINE
8
BLACK
6
CONTINUOUS
10
2.66496
20
-5.26575
11
2.70433
21
-5.26575
0
LINE
8
BLACK
6
CONTINUOUS
10
2.68465
20
-5.34606
11
2.68465
21
-5.38543
0
LINE
8
BLACK
6
CONTINUOUS
10
2.66496
20
-5.36575
11
2.70433
21
-5.36575
0
LINE
8
BLACK
6
CONTINUOUS
10
2.68465
20
-5.44606
11
2.68465
21
-5.48543
0
LINE
8
BLACK
6
CONTINUOUS
10
2.66496
20
-5.46575
11
2.70433
21
-5.46575
0
LINE
8
BLACK
6
CONTINUOUS
10
2.68465
20
-5.54606
11
2.68465
21
-5.58543
0
LINE
8
BLACK
6
CONTINUOUS
10
2.66496
20
-5.56575
11
2.70433
21
-5.56575
0
LINE
8
BLACK
6
CONTINUOUS
10
2.68465
20
-5.64606
11
2.68465
21
-5.68543
0
LINE
8
BLACK
6
CONTINUOUS
10
2.66496
20
-5.66575
11
2.70433
21
-5.66575
0
LINE
8
BLACK
6
CONTINUOUS
10
2.68465
20
-5.74606
11
2.68465
21
-5.78543
0
LINE
8
BLACK
6
CONTINUOUS
10
2.66496
20
-5.76575
11
2.70433
21
-5.76575
0
LINE
8
BLACK
6
CONTINUOUS
10
2.68465
20
-5.84606
11
2.68465
21
-5.88543
0
LINE
8
BLACK
6
CONTINUOUS
10
2.66496
20
-5.86575
11
2.70433
21
-5.86575
0
LINE
8
BLACK
6
CONTINUOUS
10
2.68465
20
-5.94606
11
2.68465
21
-5.98543
0
LINE
8
BLACK
6
CONTINUOUS
10
2.66496
20
-5.96575
11
2.70433
21
-5.96575
0
LINE
8
BLACK
6
CONTINUOUS
10
3.96811
20
-5.74134
11
3.96811
21
-5.78071
0
LINE
8
BLACK
6
CONTINUOUS
10
3.94843
20
-5.76102
11
3.9878
21
-5.76102
0
LINE
8
BLACK
6
CONTINUOUS
10
4.25551
20
-4.59173
11
4.25551
21
-4.6311
0
LINE
8
BLACK
6
CONTINUOUS
10
4.23583
20
-4.61142
11
4.2752
21
-4.61142
0
LINE
8
BLACK
6
CONTINUOUS
10
4.26339
20
-5.74134
11
4.26339
21
-5.78071
0
LINE
8
BLACK
6
CONTINUOUS
10
4.2437
20
-5.76102
11
4.28307
21
-5.76102
0
LINE
8
BLACK
6
CONTINUOUS
10
4.55079
20
-4.59173
11
4.55079
21
-4.6311
0
LINE
8
BLACK
6
CONTINUOUS
10
4.5311
20
-4.61142
11
4.57047
21
-4.61142
0
LINE
8
BLACK
6
CONTINUOUS
10
4.81181
20
-4.59291
11
4.81181
21
-4.63228
0
LINE
8
BLACK
6
CONTINUOUS
10
4.79213
20
-4.6126
11
4.8315
21
-4.6126
0
LINE
8
BLACK
6
CONTINUOUS
10
4.82638
20
-6.77283
11
4.82638
21
-6.8122
0
LINE
8
BLACK
6
CONTINUOUS
10
4.80669
20
-6.79252
11
4.84606
21
-6.79252
0
LINE
8
BLACK
6
CONTINUOUS
10
5.14764
20
-5.74291
11
5.14764
21
-5.78228
0
LINE
8
BLACK
6
CONTINUOUS
10
5.12795
20
-5.7626
11
5.16732
21
-5.7626
0
LINE
8
BLACK
6
CONTINUOUS
10
6.28524
20
-6.7794
11
6.28524
21
-6.81877
0
LINE
8
BLACK
6
CONTINUOUS
10
6.26555
20
-6.79909
11
6.30492
21
-6.79909
0
LINE
8
BLACK
6
CONTINUOUS
10
6.28819
20
-4.59291
11
6.28819
21
-4.63228
0
LINE
8
BLACK
6
CONTINUOUS
10
6.2685
20
-4.6126
11
6.30787
21
-4.6126
0
LINE
8
BLACK
6
CONTINUOUS
10
6.58819
20
-3.67244
11
6.58819
21
-3.71181
0
LINE
8
BLACK
6
CONTINUOUS
10
6.5685
20
-3.69213
11
6.60787
21
-3.69213
0
LINE
8
BLACK
6
CONTINUOUS
10
6.59173
20
-5.74291
11
6.59173
21
-5.78228
0
LINE
8
BLACK
6
CONTINUOUS
10
6.57205
20
-5.7626
11
6.61142
21
-5.7626
0
LINE
8
BLACK
6
CONTINUOUS
10
7.76602
20
-6.7794
11
7.76602
21
-6.81877
0
LINE
8
BLACK
6
CONTINUOUS
10
7.74633
20
-6.79909
11
7.7857
21
-6.79909
0
LINE
8
BLACK
6
CONTINUOUS
10
7.77402
20
-4.59291
11
7.77402
21
-4.63228
0
LINE
8
BLACK
6
CONTINUOUS
10
7.75433
20
-4.6126
11
7.7937
21
-4.6126
0
LINE
8
BLACK
6
CONTINUOUS
10
8.08425
20
-3.67244
11
8.08425
21
-3.71181
0
LINE
8
BLACK
6
CONTINUOUS
10
8.06457
20
-3.69213
11
8.10394
21
-3.69213
0
LINE
8
BLACK
6
CONTINUOUS
10
8.0878
20
-5.74291
11
8.0878
21
-5.78228
0
LINE
8
BLACK
6
CONTINUOUS
10
8.06811
20
-5.7626
11
8.10748
21
-5.7626
0
LINE
8
BLACK
6
CONTINUOUS
10
9.15052
20
-6.7794
11
9.15052
21
-6.81877
0
LINE
8
BLACK
6
CONTINUOUS
10
9.13083
20
-6.79909
11
9.1702
21
-6.79909
0
LINE
8
BLACK
6
CONTINUOUS
10
9.15197
20
-4.59291
11
9.15197
21
-4.63228
0
LINE
8
BLACK
6
CONTINUOUS
10
9.13228
20
-4.6126
11
9.17165
21
-4.6126
0
LINE
8
BLACK
6
CONTINUOUS
10
9.44606
20
-5.74291
11
9.44606
21
-5.78228
0
LINE
8
BLACK
6
CONTINUOUS
10
9.42638
20
-5.7626
11
9.46575
21
-5.7626
0
LINE
8
BLACK
6
CONTINUOUS
10
9.45236
20
-3.67244
11
9.45236
21
-3.71181
0
LINE
8
BLACK
6
CONTINUOUS
10
9.43268
20
-3.69213
11
9.47205
21
-3.69213
0
LINE
8
BLACK
6
CONTINUOUS
10
10.2594
20
-4.74528
11
10.2594
21
-4.78465
0
LINE
8
BLACK
6
CONTINUOUS
10
10.2398
20
-4.76496
11
10.2791
21
-4.76496
0
LINE
8
BLACK
6
CONTINUOUS
10
10.2594
20
-4.84528
11
10.2594
21
-4.88465
0
LINE
8
BLACK
6
CONTINUOUS
10
10.2398
20
-4.86496
11
10.2791
21
-4.86496
0
LINE
8
BLACK
6
CONTINUOUS
10
10.2594
20
-4.94528
11
10.2594
21
-4.98465
0
LINE
8
BLACK
6
CONTINUOUS
10
10.2398
20
-4.96496
11
10.2791
21
-4.96496
0
LINE
8
BLACK
6
CONTINUOUS
10
10.2594
20
-5.04528
11
10.2594
21
-5.08465
0
LINE
8
BLACK
6
CONTINUOUS
10
10.2398
20
-5.06496
11
10.2791
21
-5.06496
0
LINE
8
BLACK
6
CONTINUOUS
10
10.2594
20
-5.14528
11
10.2594
21
-5.18465
0
LINE
8
BLACK
6
CONTINUOUS
10
10.2398
20
-5.16496
11
10.2791
21
-5.16496
0
LINE
8
BLACK
6
CONTINUOUS
10
10.2594
20
-5.24528
11
10.2594
21
-5.28465
0
LINE
8
BLACK
6
CONTINUOUS
10
10.2398
20
-5.26496
11
10.2791
21
-5.26496
0
LINE
8
BLACK
6
CONTINUOUS
10
10.2594
20
-5.34528
11
10.2594
21
-5.38465
0
LINE
8
BLACK
6
CONTINUOUS
10
10.2398
20
-5.36496
11
10.2791
21
-5.36496
0
LINE
8
BLACK
6
CONTINUOUS
10
10.2594
20
-5.44528
11
10.2594
21
-5.48465
0
LINE
8
BLACK
6
CONTINUOUS
10
10.2398
20
-5.46496
11
10.2791
21
-5.46496
0
LINE
8
BLACK
6
CONTINUOUS
10
10.2594
20
-5.54528
11
10.2594
21
-5.58465
0
LINE
8
BLACK
6
CONTINUOUS
10
10.2398
20
-5.56496
11
10.2791
21
-5.56496
0
LINE
8
BLACK
6
CONTINUOUS
10
10.2594
20
-5.64528
11
10.2594
21
-5.68465
0
LINE
8
BLACK
6
CONTINUOUS
10
10.2398
20
-5.66496
11
10.2791
21
-5.66496
0
LINE
8
BLACK
6
CONTINUOUS
10
10.2594
20
-5.74528
11
10.2594
21
-5.78465
0
LINE
8
BLACK
6
CONTINUOUS
10
10.2398
20
-5.76496
11
10.2791
21
-5.76496
0
LINE
8
BLACK
6
CONTINUOUS
10
10.2594
20
-5.84528
11
10.2594
21
-5.88465
0
LINE
8
BLACK
6
CONTINUOUS
10
10.2398
20
-5.86496
11
10.2791
21
-5.86496
0
LINE
8
BLACK
6
CONTINUOUS
10
10.2594
20
-5.94528
11
10.2594
21
-5.98465
0
LINE
8
BLACK
6
CONTINUOUS
10
10.2398
20
-5.96496
11
10.2791
21
-5.96496
0
LINE
8
BLACK
6
CONTINUOUS
10
10.3594
20
-4.74528
11
10.3594
21
-4.78465
0
LINE
8
BLACK
6
CONTINUOUS
10
10.3398
20
-4.76496
11
10.3791
21
-4.76496
0
LINE
8
BLACK
6
CONTINUOUS
10
10.3594
20
-4.84528
11
10.3594
21
-4.88465
0
LINE
8
BLACK
6
CONTINUOUS
10
10.3398
20
-4.86496
11
10.3791
21
-4.86496
0
LINE
8
BLACK
6
CONTINUOUS
10
10.3594
20
-4.94528
11
10.3594
21
-4.98465
0
LINE
8
BLACK
6
CONTINUOUS
10
10.3398
20
-4.96496
11
10.3791
21
-4.96496
0
LINE
8
BLACK
6
CONTINUOUS
10
10.3594
20
-5.04528
11
10.3594
21
-5.08465
0
LINE
8
BLACK
6
CONTINUOUS
10
10.3398
20
-5.06496
11
10.3791
21
-5.06496
0
LINE
8
BLACK
6
CONTINUOUS
10
10.3594
20
-5.14528
11
10.3594
21
-5.18465
0
LINE
8
BLACK
6
CONTINUOUS
10
10.3398
20
-5.16496
11
10.3791
21
-5.16496
0
LINE
8
BLACK
6
CONTINUOUS
10
10.3594
20
-5.24528
11
10.3594
21
-5.28465
0
LINE
8
BLACK
6
CONTINUOUS
10
10.3398
20
-5.26496
11
10.3791
21
-5.26496
0
LINE
8
BLACK
6
CONTINUOUS
10
10.3594
20
-5.34528
11
10.3594
21
-5.38465
0
LINE
8
BLACK
6
CONTINUOUS
10
10.3398
20
-5.36496
11
10.3791
21
-5.36496
0
LINE
8
BLACK
6
CONTINUOUS
10
10.3594
20
-5.44528
11
10.3594
21
-5.48465
0
LINE
8
BLACK
6
CONTINUOUS
10
10.3398
20
-5.46496
11
10.3791
21
-5.46496
0
LINE
8
BLACK
6
CONTINUOUS
10
10.3594
20
-5.54528
11
10.3594
21
-5.58465
0
LINE
8
BLACK
6
CONTINUOUS
10
10.3398
20
-5.56496
11
10.3791
21
-5.56496
0
LINE
8
BLACK
6
CONTINUOUS
10
10.3594
20
-5.64528
11
10.3594
21
-5.68465
0
LINE
8
BLACK
6
CONTINUOUS
10
10.3398
20
-5.66496
11
10.3791
21
-5.66496
0
LINE
8
BLACK
6
CONTINUOUS
10
10.3594
20
-5.74528
11
10.3594
21
-5.78465
0
LINE
8
BLACK
6
CONTINUOUS
10
10.3398
20
-5.76496
11
10.3791
21
-5.76496
0
LINE
8
BLACK
6
CONTINUOUS
10
10.3594
20
-5.84528
11
10.3594
21
-5.88465
0
LINE
8
BLACK
6
CONTINUOUS
10
10.3398
20
-5.86496
11
10.3791
21
-5.86496
0
LINE
8
BLACK
6
CONTINUOUS
10
10.3594
20
-5.94528
11
10.3594
21
-5.98465
0
LINE
8
BLACK
6
CONTINUOUS
10
10.3398
20
-5.96496
11
10.3791
21
-5.96496
0
LINE
8
BLACK
6
CONTINUOUS
10
10.472
20
-3.67441
11
10.472
21
-3.71378
0
LINE
8
BLACK
6
CONTINUOUS
10
10.4524
20
-3.69409
11
10.4917
21
-3.69409
0
LINE
8
BLACK
6
CONTINUOUS
10
10.4957
20
-6.51299
11
10.4957
21
-6.55236
0
LINE
8
BLACK
6
CONTINUOUS
10
10.476
20
-6.53268
11
10.5154
21
-6.53268
0
LINE
8
BLACK
6
CONTINUOUS
10
10.6466
20
-6.7794
11
10.6466
21
-6.81877
0
LINE
8
BLACK
6
CONTINUOUS
10
10.6269
20
-6.79909
11
10.6663
21
-6.79909
0
LINE
8
BLACK
6
CONTINUOUS
10
10.6689
20
-3.67441
11
10.6689
21
-3.71378
0
LINE
8
BLACK
6
CONTINUOUS
10
10.6492
20
-3.69409
11
10.6886
21
-3.69409
0
LINE
8
BLACK
6
CONTINUOUS
10
10.6697
20
-5.94528
11
10.6697
21
-5.98465
0
LINE
8
BLACK
6
CONTINUOUS
10
10.65
20
-5.96496
11
10.6894
21
-5.96496
0
LINE
8
BLACK
6
CONTINUOUS
10
10.6925
20
-6.51299
11
10.6925
21
-6.55236
0
LINE
8
BLACK
6
CONTINUOUS
10
10.6728
20
-6.53268
11
10.7122
21
-6.53268
0
LINE
8
BLACK
6
CONTINUOUS
10
10.6992
20
-4.59291
11
10.6992
21
-4.63228
0
LINE
8
BLACK
6
CONTINUOUS
10
10.6795
20
-4.6126
11
10.7189
21
-4.6126
0
LINE
8
BLACK
6
CONTINUOUS
10
3.25253
20
-3.7108
11
3.25253
21
-3.67739
0
LINE
8
BLACK
6
CONTINUOUS
10
3.25253
20
-3.67739
11
3.21912
21
-3.67739
0
LINE
8
BLACK
6
CONTINUOUS
10
3.21912
20
-3.67739
11
3.21912
21
-3.7108
0
LINE
8
BLACK
6
CONTINUOUS
10
3.21912
20
-3.7108
11
3.25253
21
-3.7108
0
LINE
8
BLACK
6
CONTINUOUS
10
4.27615
20
-3.7108
11
4.27615
21
-3.67739
0
LINE
8
BLACK
6
CONTINUOUS
10
4.27615
20
-3.67739
11
4.24275
21
-3.67739
0
LINE
8
BLACK
6
CONTINUOUS
10
4.24275
20
-3.67739
11
4.24275
21
-3.7108
0
LINE
8
BLACK
6
CONTINUOUS
10
4.24275
20
-3.7108
11
4.27615
21
-3.7108
0
LINE
8
BLACK
6
CONTINUOUS
10
2.34606
20
-2.54449
11
2.40906
21
-2.4815
0
LINE
8
BLACK
6
CONTINUOUS
10
2.40906
20
-2.4815
11
2.34606
21
-2.4185
0
LINE
8
BLACK
6
CONTINUOUS
10
2.34606
20
-2.4185
11
2.28307
21
-2.4815
0
LINE
8
BLACK
6
CONTINUOUS
10
2.28307
20
-2.4815
11
2.34606
21
-2.54449
0
LINE
8
BLACK
6
CONTINUOUS
10
5.88937
20
-2.54449
11
5.95236
21
-2.4815
0
LINE
8
BLACK
6
CONTINUOUS
10
5.95236
20
-2.4815
11
5.88937
21
-2.4185
0
LINE
8
BLACK
6
CONTINUOUS
10
5.88937
20
-2.4185
11
5.82638
21
-2.4815
0
LINE
8
BLACK
6
CONTINUOUS
10
5.82638
20
-2.4815
11
5.88937
21
-2.54449
0
LINE
8
BLACK
6
CONTINUOUS
10
7.07047
20
-2.54449
11
7.13346
21
-2.4815
0
LINE
8
BLACK
6
CONTINUOUS
10
7.13346
20
-2.4815
11
7.07047
21
-2.4185
0
LINE
8
BLACK
6
CONTINUOUS
10
7.07047
20
-2.4185
11
7.00748
21
-2.4815
0
LINE
8
BLACK
6
CONTINUOUS
10
7.00748
20
-2.4815
11
7.07047
21
-2.54449
0
LINE
8
BLACK
6
CONTINUOUS
10
10.6138
20
-2.54449
11
10.6768
21
-2.4815
0
LINE
8
BLACK
6
CONTINUOUS
10
10.6768
20
-2.4815
11
10.6138
21
-2.4185
0
LINE
8
BLACK
6
CONTINUOUS
10
10.6138
20
-2.4185
11
10.5508
21
-2.4815
0
LINE
8
BLACK
6
CONTINUOUS
10
10.5508
20
-2.4815
11
10.6138
21
-2.54449
0
LINE
8
BLACK
6
CONTINUOUS
10
2.261
20
-8.84693
11
2.261
21
-8.72882
0
LINE
8
BLACK
6
CONTINUOUS
10
2.261
20
-8.72882
11
2.28912
21
-8.72882
0
LINE
8
BLACK
6
CONTINUOUS
10
2.28912
20
-8.72882
11
2.30599
21
-8.73445
0
LINE
8
BLACK
6
CONTINUOUS
10
2.30599
20
-8.73445
11
2.31724
21
-8.7457
0
LINE
8
BLACK
6
CONTINUOUS
10
2.31724
20
-8.7457
11
2.32286
21
-8.75695
0
LINE
8
BLACK
6
CONTINUOUS
10
2.32286
20
-8.75695
11
2.32849
21
-8.77944
0
LINE
8
BLACK
6
CONTINUOUS
10
2.32849
20
-8.77944
11
2.32849
21
-8.79632
0
LINE
8
BLACK
6
CONTINUOUS
10
2.32849
20
-8.79632
11
2.32286
21
-8.81881
0
LINE
8
BLACK
6
CONTINUOUS
10
2.32286
20
-8.81881
11
2.31724
21
-8.83006
0
LINE
8
BLACK
6
CONTINUOUS
10
2.31724
20
-8.83006
11
2.30599
21
-8.84131
0
LINE
8
BLACK
6
CONTINUOUS
10
2.30599
20
-8.84131
11
2.28912
21
-8.84693
0
LINE
8
BLACK
6
CONTINUOUS
10
2.28912
20
-8.84693
11
2.261
21
-8.84693
0
LINE
8
BLACK
6
CONTINUOUS
10
2.37911
20
-8.84693
11
2.37911
21
-8.76819
0
LINE
8
BLACK
6
CONTINUOUS
10
2.37911
20
-8.79069
11
2.38473
21
-8.77944
0
LINE
8
BLACK
6
CONTINUOUS
10
2.38473
20
-8.77944
11
2.39035
21
-8.77382
0
LINE
8
BLACK
6
CONTINUOUS
10
2.39035
20
-8.77382
11
2.4016
21
-8.76819
0
LINE
8
BLACK
6
CONTINUOUS
10
2.4016
20
-8.76819
11
2.41285
21
-8.76819
0
LINE
8
BLACK
6
CONTINUOUS
10
2.45222
20
-8.84693
11
2.45222
21
-8.76819
0
LINE
8
BLACK
6
CONTINUOUS
10
2.45222
20
-8.72882
11
2.4466
21
-8.73445
0
LINE
8
BLACK
6
CONTINUOUS
10
2.4466
20
-8.73445
11
2.45222
21
-8.74007
0
LINE
8
BLACK
6
CONTINUOUS
10
2.45222
20
-8.74007
11
2.45785
21
-8.73445
0
LINE
8
BLACK
6
CONTINUOUS
10
2.45785
20
-8.73445
11
2.45222
21
-8.72882
0
LINE
8
BLACK
6
CONTINUOUS
10
2.45222
20
-8.72882
11
2.45222
21
-8.74007
0
LINE
8
BLACK
6
CONTINUOUS
10
2.52534
20
-8.84693
11
2.51409
21
-8.84131
0
LINE
8
BLACK
6
CONTINUOUS
10
2.51409
20
-8.84131
11
2.50846
21
-8.83006
0
LINE
8
BLACK
6
CONTINUOUS
10
2.50846
20
-8.83006
11
2.50846
21
-8.72882
0
LINE
8
BLACK
6
CONTINUOUS
10
2.5872
20
-8.84693
11
2.57596
21
-8.84131
0
LINE
8
BLACK
6
CONTINUOUS
10
2.57596
20
-8.84131
11
2.57033
21
-8.83006
0
LINE
8
BLACK
6
CONTINUOUS
10
2.57033
20
-8.83006
11
2.57033
21
-8.72882
0
LINE
8
BLACK
6
CONTINUOUS
10
2.72219
20
-8.84693
11
2.72219
21
-8.72882
0
LINE
8
BLACK
6
CONTINUOUS
10
2.72219
20
-8.72882
11
2.76156
21
-8.81319
0
LINE
8
BLACK
6
CONTINUOUS
10
2.76156
20
-8.81319
11
2.80093
21
-8.72882
0
LINE
8
BLACK
6
CONTINUOUS
10
2.80093
20
-8.72882
11
2.80093
21
-8.84693
0
LINE
8
BLACK
6
CONTINUOUS
10
2.90779
20
-8.84693
11
2.90779
21
-8.78507
0
LINE
8
BLACK
6
CONTINUOUS
10
2.90779
20
-8.78507
11
2.90217
21
-8.77382
0
LINE
8
BLACK
6
CONTINUOUS
10
2.90217
20
-8.77382
11
2.89092
21
-8.76819
0
LINE
8
BLACK
6
CONTINUOUS
10
2.89092
20
-8.76819
11
2.86842
21
-8.76819
0
LINE
8
BLACK
6
CONTINUOUS
10
2.86842
20
-8.76819
11
2.85717
21
-8.77382
0
LINE
8
BLACK
6
CONTINUOUS
10
2.90779
20
-8.84131
11
2.89654
21
-8.84693
0
LINE
8
BLACK
6
CONTINUOUS
10
2.89654
20
-8.84693
11
2.86842
21
-8.84693
0
LINE
8
BLACK
6
CONTINUOUS
10
2.86842
20
-8.84693
11
2.85717
21
-8.84131
0
LINE
8
BLACK
6
CONTINUOUS
10
2.85717
20
-8.84131
11
2.85155
21
-8.83006
0
LINE
8
BLACK
6
CONTINUOUS
10
2.85155
20
-8.83006
11
2.85155
21
-8.81881
0
LINE
8
BLACK
6
CONTINUOUS
10
2.85155
20
-8.81881
11
2.85717
21
-8.80756
0
LINE
8
BLACK
6
CONTINUOUS
10
2.85717
20
-8.80756
11
2.86842
21
-8.80194
0
LINE
8
BLACK
6
CONTINUOUS
10
2.86842
20
-8.80194
11
2.89654
21
-8.80194
0
LINE
8
BLACK
6
CONTINUOUS
10
2.89654
20
-8.80194
11
2.90779
21
-8.79632
0
LINE
8
BLACK
6
CONTINUOUS
10
2.96403
20
-8.76819
11
2.96403
21
-8.8863
0
LINE
8
BLACK
6
CONTINUOUS
10
2.96403
20
-8.77382
11
2.97528
21
-8.76819
0
LINE
8
BLACK
6
CONTINUOUS
10
2.97528
20
-8.76819
11
2.99778
21
-8.76819
0
LINE
8
BLACK
6
CONTINUOUS
10
2.99778
20
-8.76819
11
3.00903
21
-8.77382
0
LINE
8
BLACK
6
CONTINUOUS
10
3.00903
20
-8.77382
11
3.01465
21
-8.77944
0
LINE
8
BLACK
6
CONTINUOUS
10
3.01465
20
-8.77944
11
3.02028
21
-8.79069
0
LINE
8
BLACK
6
CONTINUOUS
10
3.02028
20
-8.79069
11
3.02028
21
-8.82444
0
LINE
8
BLACK
6
CONTINUOUS
10
3.02028
20
-8.82444
11
3.01465
21
-8.83569
0
LINE
8
BLACK
6
CONTINUOUS
10
3.01465
20
-8.83569
11
3.00903
21
-8.84131
0
LINE
8
BLACK
6
CONTINUOUS
10
3.00903
20
-8.84131
11
2.99778
21
-8.84693
0
LINE
8
BLACK
6
CONTINUOUS
10
2.99778
20
-8.84693
11
2.97528
21
-8.84693
0
LINE
8
BLACK
6
CONTINUOUS
10
2.97528
20
-8.84693
11
2.96403
21
-8.84131
0
LINE
8
BLACK
6
CONTINUOUS
10
3.07089
20
-8.83569
11
3.07652
21
-8.84131
0
LINE
8
BLACK
6
CONTINUOUS
10
3.07652
20
-8.84131
11
3.07089
21
-8.84693
0
LINE
8
BLACK
6
CONTINUOUS
10
3.07089
20
-8.84693
11
3.06527
21
-8.84131
0
LINE
8
BLACK
6
CONTINUOUS
10
3.06527
20
-8.84131
11
3.07089
21
-8.83569
0
LINE
8
BLACK
6
CONTINUOUS
10
3.07089
20
-8.83569
11
3.07089
21
-8.84693
0
LINE
8
BLACK
6
CONTINUOUS
10
3.07089
20
-8.77382
11
3.07652
21
-8.77944
0
LINE
8
BLACK
6
CONTINUOUS
10
3.07652
20
-8.77944
11
3.07089
21
-8.78507
0
LINE
8
BLACK
6
CONTINUOUS
10
3.07089
20
-8.78507
11
3.06527
21
-8.77944
0
LINE
8
BLACK
6
CONTINUOUS
10
3.06527
20
-8.77944
11
3.07089
21
-8.77382
0
LINE
8
BLACK
6
CONTINUOUS
10
3.07089
20
-8.77382
11
3.07089
21
-8.78507
0
LINE
8
BLACK
6
CONTINUOUS
10
2.13248
20
-9.03366
11
2.14823
21
-9.04941
0
LINE
8
BLACK
6
CONTINUOUS
10
2.14823
20
-9.03366
11
2.13248
21
-9.04941
0
LINE
8
BLACK
6
CONTINUOUS
10
2.28349
20
-8.97686
11
2.29474
21
-8.97686
0
LINE
8
BLACK
6
CONTINUOUS
10
2.29474
20
-8.97686
11
2.30599
21
-8.98248
0
LINE
8
BLACK
6
CONTINUOUS
10
2.30599
20
-8.98248
11
2.31161
21
-8.9881
0
LINE
8
BLACK
6
CONTINUOUS
10
2.31161
20
-8.9881
11
2.31724
21
-8.99935
0
LINE
8
BLACK
6
CONTINUOUS
10
2.31724
20
-8.99935
11
2.32286
21
-9.02185
0
LINE
8
BLACK
6
CONTINUOUS
10
2.32286
20
-9.02185
11
2.32286
21
-9.04997
0
LINE
8
BLACK
6
CONTINUOUS
10
2.32286
20
-9.04997
11
2.31724
21
-9.07247
0
LINE
8
BLACK
6
CONTINUOUS
10
2.31724
20
-9.07247
11
2.31161
21
-9.08372
0
LINE
8
BLACK
6
CONTINUOUS
10
2.31161
20
-9.08372
11
2.30599
21
-9.08934
0
LINE
8
BLACK
6
CONTINUOUS
10
2.30599
20
-9.08934
11
2.29474
21
-9.09497
0
LINE
8
BLACK
6
CONTINUOUS
10
2.29474
20
-9.09497
11
2.28349
21
-9.09497
0
LINE
8
BLACK
6
CONTINUOUS
10
2.28349
20
-9.09497
11
2.27224
21
-9.08934
0
LINE
8
BLACK
6
CONTINUOUS
10
2.27224
20
-9.08934
11
2.26662
21
-9.08372
0
LINE
8
BLACK
6
CONTINUOUS
10
2.26662
20
-9.08372
11
2.261
21
-9.07247
0
LINE
8
BLACK
6
CONTINUOUS
10
2.261
20
-9.07247
11
2.25537
21
-9.04997
0
LINE
8
BLACK
6
CONTINUOUS
10
2.25537
20
-9.04997
11
2.25537
21
-9.02185
0
LINE
8
BLACK
6
CONTINUOUS
10
2.25537
20
-9.02185
11
2.261
21
-8.99935
0
LINE
8
BLACK
6
CONTINUOUS
10
2.261
20
-8.99935
11
2.26662
21
-8.9881
0
LINE
8
BLACK
6
CONTINUOUS
10
2.26662
20
-8.9881
11
2.27224
21
-8.98248
0
LINE
8
BLACK
6
CONTINUOUS
10
2.27224
20
-8.98248
11
2.28349
21
-8.97686
0
LINE
8
BLACK
6
CONTINUOUS
10
2.37348
20
-9.08372
11
2.37911
21
-9.08934
0
LINE
8
BLACK
6
CONTINUOUS
10
2.37911
20
-9.08934
11
2.37348
21
-9.09497
0
LINE
8
BLACK
6
CONTINUOUS
10
2.37348
20
-9.09497
11
2.36786
21
-9.08934
0
LINE
8
BLACK
6
CONTINUOUS
10
2.36786
20
-9.08934
11
2.37348
21
-9.08372
0
LINE
8
BLACK
6
CONTINUOUS
10
2.37348
20
-9.08372
11
2.37348
21
-9.09497
0
LINE
8
BLACK
6
CONTINUOUS
10
2.48034
20
-9.01623
11
2.48034
21
-9.09497
0
LINE
8
BLACK
6
CONTINUOUS
10
2.45222
20
-8.97123
11
2.4241
21
-9.0556
0
LINE
8
BLACK
6
CONTINUOUS
10
2.4241
20
-9.0556
11
2.49722
21
-9.0556
0
LINE
8
BLACK
6
CONTINUOUS
10
2.56471
20
-8.97686
11
2.57596
21
-8.97686
0
LINE
8
BLACK
6
CONTINUOUS
10
2.57596
20
-8.97686
11
2.5872
21
-8.98248
0
LINE
8
BLACK
6
CONTINUOUS
10
2.5872
20
-8.98248
11
2.59283
21
-8.9881
0
LINE
8
BLACK
6
CONTINUOUS
10
2.59283
20
-8.9881
11
2.59845
21
-8.99935
0
LINE
8
BLACK
6
CONTINUOUS
10
2.59845
20
-8.99935
11
2.60408
21
-9.02185
0
LINE
8
BLACK
6
CONTINUOUS
10
2.60408
20
-9.02185
11
2.60408
21
-9.04997
0
LINE
8
BLACK
6
CONTINUOUS
10
2.60408
20
-9.04997
11
2.59845
21
-9.07247
0
LINE
8
BLACK
6
CONTINUOUS
10
2.59845
20
-9.07247
11
2.59283
21
-9.08372
0
LINE
8
BLACK
6
CONTINUOUS
10
2.59283
20
-9.08372
11
2.5872
21
-9.08934
0
LINE
8
BLACK
6
CONTINUOUS
10
2.5872
20
-9.08934
11
2.57596
21
-9.09497
0
LINE
8
BLACK
6
CONTINUOUS
10
2.57596
20
-9.09497
11
2.56471
21
-9.09497
0
LINE
8
BLACK
6
CONTINUOUS
10
2.56471
20
-9.09497
11
2.55346
21
-9.08934
0
LINE
8
BLACK
6
CONTINUOUS
10
2.55346
20
-9.08934
11
2.54783
21
-9.08372
0
LINE
8
BLACK
6
CONTINUOUS
10
2.54783
20
-9.08372
11
2.54221
21
-9.07247
0
LINE
8
BLACK
6
CONTINUOUS
10
2.54221
20
-9.07247
11
2.53659
21
-9.04997
0
LINE
8
BLACK
6
CONTINUOUS
10
2.53659
20
-9.04997
11
2.53659
21
-9.02185
0
LINE
8
BLACK
6
CONTINUOUS
10
2.53659
20
-9.02185
11
2.54221
21
-8.99935
0
LINE
8
BLACK
6
CONTINUOUS
10
2.54221
20
-8.99935
11
2.54783
21
-8.9881
0
LINE
8
BLACK
6
CONTINUOUS
10
2.54783
20
-8.9881
11
2.55346
21
-8.98248
0
LINE
8
BLACK
6
CONTINUOUS
10
2.55346
20
-8.98248
11
2.56471
21
-8.97686
0
LINE
8
BLACK
6
CONTINUOUS
10
2.67719
20
-8.97686
11
2.68844
21
-8.97686
0
LINE
8
BLACK
6
CONTINUOUS
10
2.68844
20
-8.97686
11
2.69969
21
-8.98248
0
LINE
8
BLACK
6
CONTINUOUS
10
2.69969
20
-8.98248
11
2.70531
21
-8.9881
0
LINE
8
BLACK
6
CONTINUOUS
10
2.70531
20
-8.9881
11
2.71094
21
-8.99935
0
LINE
8
BLACK
6
CONTINUOUS
10
2.71094
20
-8.99935
11
2.71656
21
-9.02185
0
LINE
8
BLACK
6
CONTINUOUS
10
2.71656
20
-9.02185
11
2.71656
21
-9.04997
0
LINE
8
BLACK
6
CONTINUOUS
10
2.71656
20
-9.04997
11
2.71094
21
-9.07247
0
LINE
8
BLACK
6
CONTINUOUS
10
2.71094
20
-9.07247
11
2.70531
21
-9.08372
0
LINE
8
BLACK
6
CONTINUOUS
10
2.70531
20
-9.08372
11
2.69969
21
-9.08934
0
LINE
8
BLACK
6
CONTINUOUS
10
2.69969
20
-9.08934
11
2.68844
21
-9.09497
0
LINE
8
BLACK
6
CONTINUOUS
10
2.68844
20
-9.09497
11
2.67719
21
-9.09497
0
LINE
8
BLACK
6
CONTINUOUS
10
2.67719
20
-9.09497
11
2.66594
21
-9.08934
0
LINE
8
BLACK
6
CONTINUOUS
10
2.66594
20
-9.08934
11
2.66032
21
-9.08372
0
LINE
8
BLACK
6
CONTINUOUS
10
2.66032
20
-9.08372
11
2.6547
21
-9.07247
0
LINE
8
BLACK
6
CONTINUOUS
10
2.6547
20
-9.07247
11
2.64907
21
-9.04997
0
LINE
8
BLACK
6
CONTINUOUS
10
2.64907
20
-9.04997
11
2.64907
21
-9.02185
0
LINE
8
BLACK
6
CONTINUOUS
10
2.64907
20
-9.02185
11
2.6547
21
-8.99935
0
LINE
8
BLACK
6
CONTINUOUS
10
2.6547
20
-8.99935
11
2.66032
21
-8.9881
0
LINE
8
BLACK
6
CONTINUOUS
10
2.66032
20
-8.9881
11
2.66594
21
-8.98248
0
LINE
8
BLACK
6
CONTINUOUS
10
2.66594
20
-8.98248
11
2.67719
21
-8.97686
0
LINE
8
BLACK
6
CONTINUOUS
10
2.76718
20
-9.09497
11
2.76718
21
-9.01623
0
LINE
8
BLACK
6
CONTINUOUS
10
2.76718
20
-9.02747
11
2.77281
21
-9.02185
0
LINE
8
BLACK
6
CONTINUOUS
10
2.77281
20
-9.02185
11
2.78406
21
-9.01623
0
LINE
8
BLACK
6
CONTINUOUS
10
2.78406
20
-9.01623
11
2.80093
21
-9.01623
0
LINE
8
BLACK
6
CONTINUOUS
10
2.80093
20
-9.01623
11
2.81218
21
-9.02185
0
LINE
8
BLACK
6
CONTINUOUS
10
2.81218
20
-9.02185
11
2.8178
21
-9.0331
0
LINE
8
BLACK
6
CONTINUOUS
10
2.8178
20
-9.0331
11
2.8178
21
-9.09497
0
LINE
8
BLACK
6
CONTINUOUS
10
2.8178
20
-9.0331
11
2.82343
21
-9.02185
0
LINE
8
BLACK
6
CONTINUOUS
10
2.82343
20
-9.02185
11
2.83467
21
-9.01623
0
LINE
8
BLACK
6
CONTINUOUS
10
2.83467
20
-9.01623
11
2.85155
21
-9.01623
0
LINE
8
BLACK
6
CONTINUOUS
10
2.85155
20
-9.01623
11
2.8628
21
-9.02185
0
LINE
8
BLACK
6
CONTINUOUS
10
2.8628
20
-9.02185
11
2.86842
21
-9.0331
0
LINE
8
BLACK
6
CONTINUOUS
10
2.86842
20
-9.0331
11
2.86842
21
-9.09497
0
LINE
8
BLACK
6
CONTINUOUS
10
2.92466
20
-9.09497
11
2.92466
21
-9.01623
0
LINE
8
BLACK
6
CONTINUOUS
10
2.92466
20
-9.02747
11
2.93029
21
-9.02185
0
LINE
8
BLACK
6
CONTINUOUS
10
2.93029
20
-9.02185
11
2.94154
21
-9.01623
0
LINE
8
BLACK
6
CONTINUOUS
10
2.94154
20
-9.01623
11
2.95841
21
-9.01623
0
LINE
8
BLACK
6
CONTINUOUS
10
2.95841
20
-9.01623
11
2.96966
21
-9.02185
0
LINE
8
BLACK
6
CONTINUOUS
10
2.96966
20
-9.02185
11
2.97528
21
-9.0331
0
LINE
8
BLACK
6
CONTINUOUS
10
2.97528
20
-9.0331
11
2.97528
21
-9.09497
0
LINE
8
BLACK
6
CONTINUOUS
10
2.97528
20
-9.0331
11
2.98091
21
-9.02185
0
LINE
8
BLACK
6
CONTINUOUS
10
2.98091
20
-9.02185
11
2.99215
21
-9.01623
0
LINE
8
BLACK
6
CONTINUOUS
10
2.99215
20
-9.01623
11
3.00903
21
-9.01623
0
LINE
8
BLACK
6
CONTINUOUS
10
3.00903
20
-9.01623
11
3.02028
21
-9.02185
0
LINE
8
BLACK
6
CONTINUOUS
10
3.02028
20
-9.02185
11
3.0259
21
-9.0331
0
LINE
8
BLACK
6
CONTINUOUS
10
3.0259
20
-9.0331
11
3.0259
21
-9.09497
0
LINE
8
BLACK
6
CONTINUOUS
10
3.2565
20
-8.97123
11
3.15526
21
-9.12309
0
LINE
8
BLACK
6
CONTINUOUS
10
3.40835
20
-8.97686
11
3.4196
21
-8.97686
0
LINE
8
BLACK
6
CONTINUOUS
10
3.4196
20
-8.97686
11
3.43085
21
-8.98248
0
LINE
8
BLACK
6
CONTINUOUS
10
3.43085
20
-8.98248
11
3.43647
21
-8.9881
0
LINE
8
BLACK
6
CONTINUOUS
10
3.43647
20
-8.9881
11
3.4421
21
-8.99935
0
LINE
8
BLACK
6
CONTINUOUS
10
3.4421
20
-8.99935
11
3.44772
21
-9.02185
0
LINE
8
BLACK
6
CONTINUOUS
10
3.44772
20
-9.02185
11
3.44772
21
-9.04997
0
LINE
8
BLACK
6
CONTINUOUS
10
3.44772
20
-9.04997
11
3.4421
21
-9.07247
0
LINE
8
BLACK
6
CONTINUOUS
10
3.4421
20
-9.07247
11
3.43647
21
-9.08372
0
LINE
8
BLACK
6
CONTINUOUS
10
3.43647
20
-9.08372
11
3.43085
21
-9.08934
0
LINE
8
BLACK
6
CONTINUOUS
10
3.43085
20
-9.08934
11
3.4196
21
-9.09497
0
LINE
8
BLACK
6
CONTINUOUS
10
3.4196
20
-9.09497
11
3.40835
21
-9.09497
0
LINE
8
BLACK
6
CONTINUOUS
10
3.40835
20
-9.09497
11
3.3971
21
-9.08934
0
LINE
8
BLACK
6
CONTINUOUS
10
3.3971
20
-9.08934
11
3.39148
21
-9.08372
0
LINE
8
BLACK
6
CONTINUOUS
10
3.39148
20
-9.08372
11
3.38585
21
-9.07247
0
LINE
8
BLACK
6
CONTINUOUS
10
3.38585
20
-9.07247
11
3.38023
21
-9.04997
0
LINE
8
BLACK
6
CONTINUOUS
10
3.38023
20
-9.04997
11
3.38023
21
-9.02185
0
LINE
8
BLACK
6
CONTINUOUS
10
3.38023
20
-9.02185
11
3.38585
21
-8.99935
0
LINE
8
BLACK
6
CONTINUOUS
10
3.38585
20
-8.99935
11
3.39148
21
-8.9881
0
LINE
8
BLACK
6
CONTINUOUS
10
3.39148
20
-8.9881
11
3.3971
21
-8.98248
0
LINE
8
BLACK
6
CONTINUOUS
10
3.3971
20
-8.98248
11
3.40835
21
-8.97686
0
LINE
8
BLACK
6
CONTINUOUS
10
3.49834
20
-9.08372
11
3.50397
21
-9.08934
0
LINE
8
BLACK
6
CONTINUOUS
10
3.50397
20
-9.08934
11
3.49834
21
-9.09497
0
LINE
8
BLACK
6
CONTINUOUS
10
3.49834
20
-9.09497
11
3.49272
21
-9.08934
0
LINE
8
BLACK
6
CONTINUOUS
10
3.49272
20
-9.08934
11
3.49834
21
-9.08372
0
LINE
8
BLACK
6
CONTINUOUS
10
3.49834
20
-9.08372
11
3.49834
21
-9.09497
0
LINE
8
BLACK
6
CONTINUOUS
10
3.57708
20
-8.97686
11
3.58833
21
-8.97686
0
LINE
8
BLACK
6
CONTINUOUS
10
3.58833
20
-8.97686
11
3.59958
21
-8.98248
0
LINE
8
BLACK
6
CONTINUOUS
10
3.59958
20
-8.98248
11
3.6052
21
-8.9881
0
LINE
8
BLACK
6
CONTINUOUS
10
3.6052
20
-8.9881
11
3.61083
21
-8.99935
0
LINE
8
BLACK
6
CONTINUOUS
10
3.61083
20
-8.99935
11
3.61645
21
-9.02185
0
LINE
8
BLACK
6
CONTINUOUS
10
3.61645
20
-9.02185
11
3.61645
21
-9.04997
0
LINE
8
BLACK
6
CONTINUOUS
10
3.61645
20
-9.04997
11
3.61083
21
-9.07247
0
LINE
8
BLACK
6
CONTINUOUS
10
3.61083
20
-9.07247
11
3.6052
21
-9.08372
0
LINE
8
BLACK
6
CONTINUOUS
10
3.6052
20
-9.08372
11
3.59958
21
-9.08934
0
LINE
8
BLACK
6
CONTINUOUS
10
3.59958
20
-9.08934
11
3.58833
21
-9.09497
0
LINE
8
BLACK
6
CONTINUOUS
10
3.58833
20
-9.09497
11
3.57708
21
-9.09497
0
LINE
8
BLACK
6
CONTINUOUS
10
3.57708
20
-9.09497
11
3.56583
21
-9.08934
0
LINE
8
BLACK
6
CONTINUOUS
10
3.56583
20
-9.08934
11
3.56021
21
-9.08372
0
LINE
8
BLACK
6
CONTINUOUS
10
3.56021
20
-9.08372
11
3.55458
21
-9.07247
0
LINE
8
BLACK
6
CONTINUOUS
10
3.55458
20
-9.07247
11
3.54896
21
-9.04997
0
LINE
8
BLACK
6
CONTINUOUS
10
3.54896
20
-9.04997
11
3.54896
21
-9.02185
0
LINE
8
BLACK
6
CONTINUOUS
10
3.54896
20
-9.02185
11
3.55458
21
-8.99935
0
LINE
8
BLACK
6
CONTINUOUS
10
3.55458
20
-8.99935
11
3.56021
21
-8.9881
0
LINE
8
BLACK
6
CONTINUOUS
10
3.56021
20
-8.9881
11
3.56583
21
-8.98248
0
LINE
8
BLACK
6
CONTINUOUS
10
3.56583
20
-8.98248
11
3.57708
21
-8.97686
0
LINE
8
BLACK
6
CONTINUOUS
10
3.72894
20
-9.09497
11
3.66145
21
-9.09497
0
LINE
8
BLACK
6
CONTINUOUS
10
3.69519
20
-9.09497
11
3.69519
21
-8.97686
0
LINE
8
BLACK
6
CONTINUOUS
10
3.69519
20
-8.97686
11
3.68394
21
-8.99373
0
LINE
8
BLACK
6
CONTINUOUS
10
3.68394
20
-8.99373
11
3.67269
21
-9.00498
0
LINE
8
BLACK
6
CONTINUOUS
10
3.67269
20
-9.00498
11
3.66145
21
-9.0106
0
LINE
8
BLACK
6
CONTINUOUS
10
3.8358
20
-8.97686
11
3.77956
21
-8.97686
0
LINE
8
BLACK
6
CONTINUOUS
10
3.77956
20
-8.97686
11
3.77393
21
-9.0331
0
LINE
8
BLACK
6
CONTINUOUS
10
3.77393
20
-9.0331
11
3.77956
21
-9.02747
0
LINE
8
BLACK
6
CONTINUOUS
10
3.77956
20
-9.02747
11
3.7908
21
-9.02185
0
LINE
8
BLACK
6
CONTINUOUS
10
3.7908
20
-9.02185
11
3.81893
21
-9.02185
0
LINE
8
BLACK
6
CONTINUOUS
10
3.81893
20
-9.02185
11
3.83017
21
-9.02747
0
LINE
8
BLACK
6
CONTINUOUS
10
3.83017
20
-9.02747
11
3.8358
21
-9.0331
0
LINE
8
BLACK
6
CONTINUOUS
10
3.8358
20
-9.0331
11
3.84142
21
-9.04435
0
LINE
8
BLACK
6
CONTINUOUS
10
3.84142
20
-9.04435
11
3.84142
21
-9.07247
0
LINE
8
BLACK
6
CONTINUOUS
10
3.84142
20
-9.07247
11
3.8358
21
-9.08372
0
LINE
8
BLACK
6
CONTINUOUS
10
3.8358
20
-9.08372
11
3.83017
21
-9.08934
0
LINE
8
BLACK
6
CONTINUOUS
10
3.83017
20
-9.08934
11
3.81893
21
-9.09497
0
LINE
8
BLACK
6
CONTINUOUS
10
3.81893
20
-9.09497
11
3.7908
21
-9.09497
0
LINE
8
BLACK
6
CONTINUOUS
10
3.7908
20
-9.09497
11
3.77956
21
-9.08934
0
LINE
8
BLACK
6
CONTINUOUS
10
3.77956
20
-9.08934
11
3.77393
21
-9.08372
0
LINE
8
BLACK
6
CONTINUOUS
10
3.88079
20
-8.97686
11
3.95953
21
-8.97686
0
LINE
8
BLACK
6
CONTINUOUS
10
3.95953
20
-8.97686
11
3.90891
21
-9.09497
0
LINE
8
BLACK
6
CONTINUOUS
10
3.9989
20
-8.97686
11
3.9989
21
-8.99935
0
LINE
8
BLACK
6
CONTINUOUS
10
4.0439
20
-8.97686
11
4.0439
21
-8.99935
0
LINE
8
BLACK
6
CONTINUOUS
10
4.21825
20
-9.13996
11
4.21263
21
-9.13434
0
LINE
8
BLACK
6
CONTINUOUS
10
4.21263
20
-9.13434
11
4.20138
21
-9.11746
0
LINE
8
BLACK
6
CONTINUOUS
10
4.20138
20
-9.11746
11
4.19575
21
-9.10621
0
LINE
8
BLACK
6
CONTINUOUS
10
4.19575
20
-9.10621
11
4.19013
21
-9.08934
0
LINE
8
BLACK
6
CONTINUOUS
10
4.19013
20
-9.08934
11
4.1845
21
-9.06122
0
LINE
8
BLACK
6
CONTINUOUS
10
4.1845
20
-9.06122
11
4.1845
21
-9.03872
0
LINE
8
BLACK
6
CONTINUOUS
10
4.1845
20
-9.03872
11
4.19013
21
-9.0106
0
LINE
8
BLACK
6
CONTINUOUS
10
4.19013
20
-9.0106
11
4.19575
21
-8.99373
0
LINE
8
BLACK
6
CONTINUOUS
10
4.19575
20
-8.99373
11
4.20138
21
-8.98248
0
LINE
8
BLACK
6
CONTINUOUS
10
4.20138
20
-8.98248
11
4.21263
21
-8.96561
0
LINE
8
BLACK
6
CONTINUOUS
10
4.21263
20
-8.96561
11
4.21825
21
-8.95998
0
LINE
8
BLACK
6
CONTINUOUS
10
4.32511
20
-9.09497
11
4.25762
21
-9.09497
0
LINE
8
BLACK
6
CONTINUOUS
10
4.29137
20
-9.09497
11
4.29137
21
-8.97686
0
LINE
8
BLACK
6
CONTINUOUS
10
4.29137
20
-8.97686
11
4.28012
21
-8.99373
0
LINE
8
BLACK
6
CONTINUOUS
10
4.28012
20
-8.99373
11
4.26887
21
-9.00498
0
LINE
8
BLACK
6
CONTINUOUS
10
4.26887
20
-9.00498
11
4.25762
21
-9.0106
0
LINE
8
BLACK
6
CONTINUOUS
10
4.46572
20
-9.09497
11
4.46572
21
-8.97686
0
LINE
8
BLACK
6
CONTINUOUS
10
4.51634
20
-9.09497
11
4.51634
21
-9.0331
0
LINE
8
BLACK
6
CONTINUOUS
10
4.51634
20
-9.0331
11
4.51071
21
-9.02185
0
LINE
8
BLACK
6
CONTINUOUS
10
4.51071
20
-9.02185
11
4.49947
21
-9.01623
0
LINE
8
BLACK
6
CONTINUOUS
10
4.49947
20
-9.01623
11
4.48259
21
-9.01623
0
LINE
8
BLACK
6
CONTINUOUS
10
4.48259
20
-9.01623
11
4.47134
21
-9.02185
0
LINE
8
BLACK
6
CONTINUOUS
10
4.47134
20
-9.02185
11
4.46572
21
-9.02747
0
LINE
8
BLACK
6
CONTINUOUS
10
4.58945
20
-9.09497
11
4.57821
21
-9.08934
0
LINE
8
BLACK
6
CONTINUOUS
10
4.57821
20
-9.08934
11
4.57258
21
-9.08372
0
LINE
8
BLACK
6
CONTINUOUS
10
4.57258
20
-9.08372
11
4.56696
21
-9.07247
0
LINE
8
BLACK
6
CONTINUOUS
10
4.56696
20
-9.07247
11
4.56696
21
-9.03872
0
LINE
8
BLACK
6
CONTINUOUS
10
4.56696
20
-9.03872
11
4.57258
21
-9.02747
0
LINE
8
BLACK
6
CONTINUOUS
10
4.57258
20
-9.02747
11
4.57821
21
-9.02185
0
LINE
8
BLACK
6
CONTINUOUS
10
4.57821
20
-9.02185
11
4.58945
21
-9.01623
0
LINE
8
BLACK
6
CONTINUOUS
10
4.58945
20
-9.01623
11
4.60633
21
-9.01623
0
LINE
8
BLACK
6
CONTINUOUS
10
4.60633
20
-9.01623
11
4.61758
21
-9.02185
0
LINE
8
BLACK
6
CONTINUOUS
10
4.61758
20
-9.02185
11
4.6232
21
-9.02747
0
LINE
8
BLACK
6
CONTINUOUS
10
4.6232
20
-9.02747
11
4.62882
21
-9.03872
0
LINE
8
BLACK
6
CONTINUOUS
10
4.62882
20
-9.03872
11
4.62882
21
-9.07247
0
LINE
8
BLACK
6
CONTINUOUS
10
4.62882
20
-9.07247
11
4.6232
21
-9.08372
0
LINE
8
BLACK
6
CONTINUOUS
10
4.6232
20
-9.08372
11
4.61758
21
-9.08934
0
LINE
8
BLACK
6
CONTINUOUS
10
4.61758
20
-9.08934
11
4.60633
21
-9.09497
0
LINE
8
BLACK
6
CONTINUOUS
10
4.60633
20
-9.09497
11
4.58945
21
-9.09497
0
LINE
8
BLACK
6
CONTINUOUS
10
4.69632
20
-9.09497
11
4.68507
21
-9.08934
0
LINE
8
BLACK
6
CONTINUOUS
10
4.68507
20
-9.08934
11
4.67944
21
-9.07809
0
LINE
8
BLACK
6
CONTINUOUS
10
4.67944
20
-9.07809
11
4.67944
21
-8.97686
0
LINE
8
BLACK
6
CONTINUOUS
10
4.7863
20
-9.08934
11
4.77506
21
-9.09497
0
LINE
8
BLACK
6
CONTINUOUS
10
4.77506
20
-9.09497
11
4.75256
21
-9.09497
0
LINE
8
BLACK
6
CONTINUOUS
10
4.75256
20
-9.09497
11
4.74131
21
-9.08934
0
LINE
8
BLACK
6
CONTINUOUS
10
4.74131
20
-9.08934
11
4.73569
21
-9.07809
0
LINE
8
BLACK
6
CONTINUOUS
10
4.73569
20
-9.07809
11
4.73569
21
-9.0331
0
LINE
8
BLACK
6
CONTINUOUS
10
4.73569
20
-9.0331
11
4.74131
21
-9.02185
0
LINE
8
BLACK
6
CONTINUOUS
10
4.74131
20
-9.02185
11
4.75256
21
-9.01623
0
LINE
8
BLACK
6
CONTINUOUS
10
4.75256
20
-9.01623
11
4.77506
21
-9.01623
0
LINE
8
BLACK
6
CONTINUOUS
10
4.77506
20
-9.01623
11
4.7863
21
-9.02185
0
LINE
8
BLACK
6
CONTINUOUS
10
4.7863
20
-9.02185
11
4.79193
21
-9.0331
0
LINE
8
BLACK
6
CONTINUOUS
10
4.79193
20
-9.0331
11
4.79193
21
-9.04435
0
LINE
8
BLACK
6
CONTINUOUS
10
4.79193
20
-9.04435
11
4.73569
21
-9.0556
0
LINE
8
BLACK
6
CONTINUOUS
10
4.8313
20
-9.13996
11
4.83692
21
-9.13434
0
LINE
8
BLACK
6
CONTINUOUS
10
4.83692
20
-9.13434
11
4.84817
21
-9.11746
0
LINE
8
BLACK
6
CONTINUOUS
10
4.84817
20
-9.11746
11
4.8538
21
-9.10621
0
LINE
8
BLACK
6
CONTINUOUS
10
4.8538
20
-9.10621
11
4.85942
21
-9.08934
0
LINE
8
BLACK
6
CONTINUOUS
10
4.85942
20
-9.08934
11
4.86504
21
-9.06122
0
LINE
8
BLACK
6
CONTINUOUS
10
4.86504
20
-9.06122
11
4.86504
21
-9.03872
0
LINE
8
BLACK
6
CONTINUOUS
10
4.86504
20
-9.03872
11
4.85942
21
-9.0106
0
LINE
8
BLACK
6
CONTINUOUS
10
4.85942
20
-9.0106
11
4.8538
21
-8.99373
0
LINE
8
BLACK
6
CONTINUOUS
10
4.8538
20
-8.99373
11
4.84817
21
-8.98248
0
LINE
8
BLACK
6
CONTINUOUS
10
4.84817
20
-8.98248
11
4.83692
21
-8.96561
0
LINE
8
BLACK
6
CONTINUOUS
10
4.83692
20
-8.96561
11
4.8313
21
-8.95998
0
CIRCLE
8
BLACK
10
2.13248
20
-9.19744
40
0.015748
0
LINE
8
BLACK
6
CONTINUOUS
10
2.28349
20
-9.13276
11
2.29474
21
-9.13276
0
LINE
8
BLACK
6
CONTINUOUS
10
2.29474
20
-9.13276
11
2.30599
21
-9.13839
0
LINE
8
BLACK
6
CONTINUOUS
10
2.30599
20
-9.13839
11
2.31161
21
-9.14401
0
LINE
8
BLACK
6
CONTINUOUS
10
2.31161
20
-9.14401
11
2.31724
21
-9.15526
0
LINE
8
BLACK
6
CONTINUOUS
10
2.31724
20
-9.15526
11
2.32286
21
-9.17776
0
LINE
8
BLACK
6
CONTINUOUS
10
2.32286
20
-9.17776
11
2.32286
21
-9.20588
0
LINE
8
BLACK
6
CONTINUOUS
10
2.32286
20
-9.20588
11
2.31724
21
-9.22837
0
LINE
8
BLACK
6
CONTINUOUS
10
2.31724
20
-9.22837
11
2.31161
21
-9.23962
0
LINE
8
BLACK
6
CONTINUOUS
10
2.31161
20
-9.23962
11
2.30599
21
-9.24525
0
LINE
8
BLACK
6
CONTINUOUS
10
2.30599
20
-9.24525
11
2.29474
21
-9.25087
0
LINE
8
BLACK
6
CONTINUOUS
10
2.29474
20
-9.25087
11
2.28349
21
-9.25087
0
LINE
8
BLACK
6
CONTINUOUS
10
2.28349
20
-9.25087
11
2.27224
21
-9.24525
0
LINE
8
BLACK
6
CONTINUOUS
10
2.27224
20
-9.24525
11
2.26662
21
-9.23962
0
LINE
8
BLACK
6
CONTINUOUS
10
2.26662
20
-9.23962
11
2.261
21
-9.22837
0
LINE
8
BLACK
6
CONTINUOUS
10
2.261
20
-9.22837
11
2.25537
21
-9.20588
0
LINE
8
BLACK
6
CONTINUOUS
10
2.25537
20
-9.20588
11
2.25537
21
-9.17776
0
LINE
8
BLACK
6
CONTINUOUS
10
2.25537
20
-9.17776
11
2.261
21
-9.15526
0
LINE
8
BLACK
6
CONTINUOUS
10
2.261
20
-9.15526
11
2.26662
21
-9.14401
0
LINE
8
BLACK
6
CONTINUOUS
10
2.26662
20
-9.14401
11
2.27224
21
-9.13839
0
LINE
8
BLACK
6
CONTINUOUS
10
2.27224
20
-9.13839
11
2.28349
21
-9.13276
0
LINE
8
BLACK
6
CONTINUOUS
10
2.37348
20
-9.23962
11
2.37911
21
-9.24525
0
LINE
8
BLACK
6
CONTINUOUS
10
2.37911
20
-9.24525
11
2.37348
21
-9.25087
0
LINE
8
BLACK
6
CONTINUOUS
10
2.37348
20
-9.25087
11
2.36786
21
-9.24525
0
LINE
8
BLACK
6
CONTINUOUS
10
2.36786
20
-9.24525
11
2.37348
21
-9.23962
0
LINE
8
BLACK
6
CONTINUOUS
10
2.37348
20
-9.23962
11
2.37348
21
-9.25087
0
LINE
8
BLACK
6
CONTINUOUS
10
2.4466
20
-9.18338
11
2.43535
21
-9.17776
0
LINE
8
BLACK
6
CONTINUOUS
10
2.43535
20
-9.17776
11
2.42972
21
-9.17213
0
LINE
8
BLACK
6
CONTINUOUS
10
2.42972
20
-9.17213
11
2.4241
21
-9.16088
0
LINE
8
BLACK
6
CONTINUOUS
10
2.4241
20
-9.16088
11
2.4241
21
-9.15526
0
LINE
8
BLACK
6
CONTINUOUS
10
2.4241
20
-9.15526
11
2.42972
21
-9.14401
0
LINE
8
BLACK
6
CONTINUOUS
10
2.42972
20
-9.14401
11
2.43535
21
-9.13839
0
LINE
8
BLACK
6
CONTINUOUS
10
2.43535
20
-9.13839
11
2.4466
21
-9.13276
0
LINE
8
BLACK
6
CONTINUOUS
10
2.4466
20
-9.13276
11
2.46909
21
-9.13276
0
LINE
8
BLACK
6
CONTINUOUS
10
2.46909
20
-9.13276
11
2.48034
21
-9.13839
0
LINE
8
BLACK
6
CONTINUOUS
10
2.48034
20
-9.13839
11
2.48597
21
-9.14401
0
LINE
8
BLACK
6
CONTINUOUS
10
2.48597
20
-9.14401
11
2.49159
21
-9.15526
0
LINE
8
BLACK
6
CONTINUOUS
10
2.49159
20
-9.15526
11
2.49159
21
-9.16088
0
LINE
8
BLACK
6
CONTINUOUS
10
2.49159
20
-9.16088
11
2.48597
21
-9.17213
0
LINE
8
BLACK
6
CONTINUOUS
10
2.48597
20
-9.17213
11
2.48034
21
-9.17776
0
LINE
8
BLACK
6
CONTINUOUS
10
2.48034
20
-9.17776
11
2.46909
21
-9.18338
0
LINE
8
BLACK
6
CONTINUOUS
10
2.46909
20
-9.18338
11
2.4466
21
-9.18338
0
LINE
8
BLACK
6
CONTINUOUS
10
2.4466
20
-9.18338
11
2.43535
21
-9.189
0
LINE
8
BLACK
6
CONTINUOUS
10
2.43535
20
-9.189
11
2.42972
21
-9.19463
0
LINE
8
BLACK
6
CONTINUOUS
10
2.42972
20
-9.19463
11
2.4241
21
-9.20588
0
LINE
8
BLACK
6
CONTINUOUS
10
2.4241
20
-9.20588
11
2.4241
21
-9.22837
0
LINE
8
BLACK
6
CONTINUOUS
10
2.4241
20
-9.22837
11
2.42972
21
-9.23962
0
LINE
8
BLACK
6
CONTINUOUS
10
2.42972
20
-9.23962
11
2.43535
21
-9.24525
0
LINE
8
BLACK
6
CONTINUOUS
10
2.43535
20
-9.24525
11
2.4466
21
-9.25087
0
LINE
8
BLACK
6
CONTINUOUS
10
2.4466
20
-9.25087
11
2.46909
21
-9.25087
0
LINE
8
BLACK
6
CONTINUOUS
10
2.46909
20
-9.25087
11
2.48034
21
-9.24525
0
LINE
8
BLACK
6
CONTINUOUS
10
2.48034
20
-9.24525
11
2.48597
21
-9.23962
0
LINE
8
BLACK
6
CONTINUOUS
10
2.48597
20
-9.23962
11
2.49159
21
-9.22837
0
LINE
8
BLACK
6
CONTINUOUS
10
2.49159
20
-9.22837
11
2.49159
21
-9.20588
0
LINE
8
BLACK
6
CONTINUOUS
10
2.49159
20
-9.20588
11
2.48597
21
-9.19463
0
LINE
8
BLACK
6
CONTINUOUS
10
2.48597
20
-9.19463
11
2.48034
21
-9.189
0
LINE
8
BLACK
6
CONTINUOUS
10
2.48034
20
-9.189
11
2.46909
21
-9.18338
0
LINE
8
BLACK
6
CONTINUOUS
10
2.56471
20
-9.13276
11
2.57596
21
-9.13276
0
LINE
8
BLACK
6
CONTINUOUS
10
2.57596
20
-9.13276
11
2.5872
21
-9.13839
0
LINE
8
BLACK
6
CONTINUOUS
10
2.5872
20
-9.13839
11
2.59283
21
-9.14401
0
LINE
8
BLACK
6
CONTINUOUS
10
2.59283
20
-9.14401
11
2.59845
21
-9.15526
0
LINE
8
BLACK
6
CONTINUOUS
10
2.59845
20
-9.15526
11
2.60408
21
-9.17776
0
LINE
8
BLACK
6
CONTINUOUS
10
2.60408
20
-9.17776
11
2.60408
21
-9.20588
0
LINE
8
BLACK
6
CONTINUOUS
10
2.60408
20
-9.20588
11
2.59845
21
-9.22837
0
LINE
8
BLACK
6
CONTINUOUS
10
2.59845
20
-9.22837
11
2.59283
21
-9.23962
0
LINE
8
BLACK
6
CONTINUOUS
10
2.59283
20
-9.23962
11
2.5872
21
-9.24525
0
LINE
8
BLACK
6
CONTINUOUS
10
2.5872
20
-9.24525
11
2.57596
21
-9.25087
0
LINE
8
BLACK
6
CONTINUOUS
10
2.57596
20
-9.25087
11
2.56471
21
-9.25087
0
LINE
8
BLACK
6
CONTINUOUS
10
2.56471
20
-9.25087
11
2.55346
21
-9.24525
0
LINE
8
BLACK
6
CONTINUOUS
10
2.55346
20
-9.24525
11
2.54783
21
-9.23962
0
LINE
8
BLACK
6
CONTINUOUS
10
2.54783
20
-9.23962
11
2.54221
21
-9.22837
0
LINE
8
BLACK
6
CONTINUOUS
10
2.54221
20
-9.22837
11
2.53659
21
-9.20588
0
LINE
8
BLACK
6
CONTINUOUS
10
2.53659
20
-9.20588
11
2.53659
21
-9.17776
0
LINE
8
BLACK
6
CONTINUOUS
10
2.53659
20
-9.17776
11
2.54221
21
-9.15526
0
LINE
8
BLACK
6
CONTINUOUS
10
2.54221
20
-9.15526
11
2.54783
21
-9.14401
0
LINE
8
BLACK
6
CONTINUOUS
10
2.54783
20
-9.14401
11
2.55346
21
-9.13839
0
LINE
8
BLACK
6
CONTINUOUS
10
2.55346
20
-9.13839
11
2.56471
21
-9.13276
0
LINE
8
BLACK
6
CONTINUOUS
10
2.67719
20
-9.13276
11
2.68844
21
-9.13276
0
LINE
8
BLACK
6
CONTINUOUS
10
2.68844
20
-9.13276
11
2.69969
21
-9.13839
0
LINE
8
BLACK
6
CONTINUOUS
10
2.69969
20
-9.13839
11
2.70531
21
-9.14401
0
LINE
8
BLACK
6
CONTINUOUS
10
2.70531
20
-9.14401
11
2.71094
21
-9.15526
0
LINE
8
BLACK
6
CONTINUOUS
10
2.71094
20
-9.15526
11
2.71656
21
-9.17776
0
LINE
8
BLACK
6
CONTINUOUS
10
2.71656
20
-9.17776
11
2.71656
21
-9.20588
0
LINE
8
BLACK
6
CONTINUOUS
10
2.71656
20
-9.20588
11
2.71094
21
-9.22837
0
LINE
8
BLACK
6
CONTINUOUS
10
2.71094
20
-9.22837
11
2.70531
21
-9.23962
0
LINE
8
BLACK
6
CONTINUOUS
10
2.70531
20
-9.23962
11
2.69969
21
-9.24525
0
LINE
8
BLACK
6
CONTINUOUS
10
2.69969
20
-9.24525
11
2.68844
21
-9.25087
0
LINE
8
BLACK
6
CONTINUOUS
10
2.68844
20
-9.25087
11
2.67719
21
-9.25087
0
LINE
8
BLACK
6
CONTINUOUS
10
2.67719
20
-9.25087
11
2.66594
21
-9.24525
0
LINE
8
BLACK
6
CONTINUOUS
10
2.66594
20
-9.24525
11
2.66032
21
-9.23962
0
LINE
8
BLACK
6
CONTINUOUS
10
2.66032
20
-9.23962
11
2.6547
21
-9.22837
0
LINE
8
BLACK
6
CONTINUOUS
10
2.6547
20
-9.22837
11
2.64907
21
-9.20588
0
LINE
8
BLACK
6
CONTINUOUS
10
2.64907
20
-9.20588
11
2.64907
21
-9.17776
0
LINE
8
BLACK
6
CONTINUOUS
10
2.64907
20
-9.17776
11
2.6547
21
-9.15526
0
LINE
8
BLACK
6
CONTINUOUS
10
2.6547
20
-9.15526
11
2.66032
21
-9.14401
0
LINE
8
BLACK
6
CONTINUOUS
10
2.66032
20
-9.14401
11
2.66594
21
-9.13839
0
LINE
8
BLACK
6
CONTINUOUS
10
2.66594
20
-9.13839
11
2.67719
21
-9.13276
0
LINE
8
BLACK
6
CONTINUOUS
10
2.76718
20
-9.25087
11
2.76718
21
-9.17213
0
LINE
8
BLACK
6
CONTINUOUS
10
2.76718
20
-9.18338
11
2.77281
21
-9.17776
0
LINE
8
BLACK
6
CONTINUOUS
10
2.77281
20
-9.17776
11
2.78406
21
-9.17213
0
LINE
8
BLACK
6
CONTINUOUS
10
2.78406
20
-9.17213
11
2.80093
21
-9.17213
0
LINE
8
BLACK
6
CONTINUOUS
10
2.80093
20
-9.17213
11
2.81218
21
-9.17776
0
LINE
8
BLACK
6
CONTINUOUS
10
2.81218
20
-9.17776
11
2.8178
21
-9.189
0
LINE
8
BLACK
6
CONTINUOUS
10
2.8178
20
-9.189
11
2.8178
21
-9.25087
0
LINE
8
BLACK
6
CONTINUOUS
10
2.8178
20
-9.189
11
2.82343
21
-9.17776
0
LINE
8
BLACK
6
CONTINUOUS
10
2.82343
20
-9.17776
11
2.83467
21
-9.17213
0
LINE
8
BLACK
6
CONTINUOUS
10
2.83467
20
-9.17213
11
2.85155
21
-9.17213
0
LINE
8
BLACK
6
CONTINUOUS
10
2.85155
20
-9.17213
11
2.8628
21
-9.17776
0
LINE
8
BLACK
6
CONTINUOUS
10
2.8628
20
-9.17776
11
2.86842
21
-9.189
0
LINE
8
BLACK
6
CONTINUOUS
10
2.86842
20
-9.189
11
2.86842
21
-9.25087
0
LINE
8
BLACK
6
CONTINUOUS
10
2.92466
20
-9.25087
11
2.92466
21
-9.17213
0
LINE
8
BLACK
6
CONTINUOUS
10
2.92466
20
-9.18338
11
2.93029
21
-9.17776
0
LINE
8
BLACK
6
CONTINUOUS
10
2.93029
20
-9.17776
11
2.94154
21
-9.17213
0
LINE
8
BLACK
6
CONTINUOUS
10
2.94154
20
-9.17213
11
2.95841
21
-9.17213
0
LINE
8
BLACK
6
CONTINUOUS
10
2.95841
20
-9.17213
11
2.96966
21
-9.17776
0
LINE
8
BLACK
6
CONTINUOUS
10
2.96966
20
-9.17776
11
2.97528
21
-9.189
0
LINE
8
BLACK
6
CONTINUOUS
10
2.97528
20
-9.189
11
2.97528
21
-9.25087
0
LINE
8
BLACK
6
CONTINUOUS
10
2.97528
20
-9.189
11
2.98091
21
-9.17776
0
LINE
8
BLACK
6
CONTINUOUS
10
2.98091
20
-9.17776
11
2.99215
21
-9.17213
0
LINE
8
BLACK
6
CONTINUOUS
10
2.99215
20
-9.17213
11
3.00903
21
-9.17213
0
LINE
8
BLACK
6
CONTINUOUS
10
3.00903
20
-9.17213
11
3.02028
21
-9.17776
0
LINE
8
BLACK
6
CONTINUOUS
10
3.02028
20
-9.17776
11
3.0259
21
-9.189
0
LINE
8
BLACK
6
CONTINUOUS
10
3.0259
20
-9.189
11
3.0259
21
-9.25087
0
LINE
8
BLACK
6
CONTINUOUS
10
3.2565
20
-9.12714
11
3.15526
21
-9.27899
0
LINE
8
BLACK
6
CONTINUOUS
10
3.40835
20
-9.13276
11
3.4196
21
-9.13276
0
LINE
8
BLACK
6
CONTINUOUS
10
3.4196
20
-9.13276
11
3.43085
21
-9.13839
0
LINE
8
BLACK
6
CONTINUOUS
10
3.43085
20
-9.13839
11
3.43647
21
-9.14401
0
LINE
8
BLACK
6
CONTINUOUS
10
3.43647
20
-9.14401
11
3.4421
21
-9.15526
0
LINE
8
BLACK
6
CONTINUOUS
10
3.4421
20
-9.15526
11
3.44772
21
-9.17776
0
LINE
8
BLACK
6
CONTINUOUS
10
3.44772
20
-9.17776
11
3.44772
21
-9.20588
0
LINE
8
BLACK
6
CONTINUOUS
10
3.44772
20
-9.20588
11
3.4421
21
-9.22837
0
LINE
8
BLACK
6
CONTINUOUS
10
3.4421
20
-9.22837
11
3.43647
21
-9.23962
0
LINE
8
BLACK
6
CONTINUOUS
10
3.43647
20
-9.23962
11
3.43085
21
-9.24525
0
LINE
8
BLACK
6
CONTINUOUS
10
3.43085
20
-9.24525
11
3.4196
21
-9.25087
0
LINE
8
BLACK
6
CONTINUOUS
10
3.4196
20
-9.25087
11
3.40835
21
-9.25087
0
LINE
8
BLACK
6
CONTINUOUS
10
3.40835
20
-9.25087
11
3.3971
21
-9.24525
0
LINE
8
BLACK
6
CONTINUOUS
10
3.3971
20
-9.24525
11
3.39148
21
-9.23962
0
LINE
8
BLACK
6
CONTINUOUS
10
3.39148
20
-9.23962
11
3.38585
21
-9.22837
0
LINE
8
BLACK
6
CONTINUOUS
10
3.38585
20
-9.22837
11
3.38023
21
-9.20588
0
LINE
8
BLACK
6
CONTINUOUS
10
3.38023
20
-9.20588
11
3.38023
21
-9.17776
0
LINE
8
BLACK
6
CONTINUOUS
10
3.38023
20
-9.17776
11
3.38585
21
-9.15526
0
LINE
8
BLACK
6
CONTINUOUS
10
3.38585
20
-9.15526
11
3.39148
21
-9.14401
0
LINE
8
BLACK
6
CONTINUOUS
10
3.39148
20
-9.14401
11
3.3971
21
-9.13839
0
LINE
8
BLACK
6
CONTINUOUS
10
3.3971
20
-9.13839
11
3.40835
21
-9.13276
0
LINE
8
BLACK
6
CONTINUOUS
10
3.49834
20
-9.23962
11
3.50397
21
-9.24525
0
LINE
8
BLACK
6
CONTINUOUS
10
3.50397
20
-9.24525
11
3.49834
21
-9.25087
0
LINE
8
BLACK
6
CONTINUOUS
10
3.49834
20
-9.25087
11
3.49272
21
-9.24525
0
LINE
8
BLACK
6
CONTINUOUS
10
3.49272
20
-9.24525
11
3.49834
21
-9.23962
0
LINE
8
BLACK
6
CONTINUOUS
10
3.49834
20
-9.23962
11
3.49834
21
-9.25087
0
LINE
8
BLACK
6
CONTINUOUS
10
3.57708
20
-9.13276
11
3.58833
21
-9.13276
0
LINE
8
BLACK
6
CONTINUOUS
10
3.58833
20
-9.13276
11
3.59958
21
-9.13839
0
LINE
8
BLACK
6
CONTINUOUS
10
3.59958
20
-9.13839
11
3.6052
21
-9.14401
0
LINE
8
BLACK
6
CONTINUOUS
10
3.6052
20
-9.14401
11
3.61083
21
-9.15526
0
LINE
8
BLACK
6
CONTINUOUS
10
3.61083
20
-9.15526
11
3.61645
21
-9.17776
0
LINE
8
BLACK
6
CONTINUOUS
10
3.61645
20
-9.17776
11
3.61645
21
-9.20588
0
LINE
8
BLACK
6
CONTINUOUS
10
3.61645
20
-9.20588
11
3.61083
21
-9.22837
0
LINE
8
BLACK
6
CONTINUOUS
10
3.61083
20
-9.22837
11
3.6052
21
-9.23962
0
LINE
8
BLACK
6
CONTINUOUS
10
3.6052
20
-9.23962
11
3.59958
21
-9.24525
0
LINE
8
BLACK
6
CONTINUOUS
10
3.59958
20
-9.24525
11
3.58833
21
-9.25087
0
LINE
8
BLACK
6
CONTINUOUS
10
3.58833
20
-9.25087
11
3.57708
21
-9.25087
0
LINE
8
BLACK
6
CONTINUOUS
10
3.57708
20
-9.25087
11
3.56583
21
-9.24525
0
LINE
8
BLACK
6
CONTINUOUS
10
3.56583
20
-9.24525
11
3.56021
21
-9.23962
0
LINE
8
BLACK
6
CONTINUOUS
10
3.56021
20
-9.23962
11
3.55458
21
-9.22837
0
LINE
8
BLACK
6
CONTINUOUS
10
3.55458
20
-9.22837
11
3.54896
21
-9.20588
0
LINE
8
BLACK
6
CONTINUOUS
10
3.54896
20
-9.20588
11
3.54896
21
-9.17776
0
LINE
8
BLACK
6
CONTINUOUS
10
3.54896
20
-9.17776
11
3.55458
21
-9.15526
0
LINE
8
BLACK
6
CONTINUOUS
10
3.55458
20
-9.15526
11
3.56021
21
-9.14401
0
LINE
8
BLACK
6
CONTINUOUS
10
3.56021
20
-9.14401
11
3.56583
21
-9.13839
0
LINE
8
BLACK
6
CONTINUOUS
10
3.56583
20
-9.13839
11
3.57708
21
-9.13276
0
LINE
8
BLACK
6
CONTINUOUS
10
3.65582
20
-9.13276
11
3.72894
21
-9.13276
0
LINE
8
BLACK
6
CONTINUOUS
10
3.72894
20
-9.13276
11
3.68957
21
-9.17776
0
LINE
8
BLACK
6
CONTINUOUS
10
3.68957
20
-9.17776
11
3.70644
21
-9.17776
0
LINE
8
BLACK
6
CONTINUOUS
10
3.70644
20
-9.17776
11
3.71769
21
-9.18338
0
LINE
8
BLACK
6
CONTINUOUS
10
3.71769
20
-9.18338
11
3.72331
21
-9.189
0
LINE
8
BLACK
6
CONTINUOUS
10
3.72331
20
-9.189
11
3.72894
21
-9.20025
0
LINE
8
BLACK
6
CONTINUOUS
10
3.72894
20
-9.20025
11
3.72894
21
-9.22837
0
LINE
8
BLACK
6
CONTINUOUS
10
3.72894
20
-9.22837
11
3.72331
21
-9.23962
0
LINE
8
BLACK
6
CONTINUOUS
10
3.72331
20
-9.23962
11
3.71769
21
-9.24525
0
LINE
8
BLACK
6
CONTINUOUS
10
3.71769
20
-9.24525
11
3.70644
21
-9.25087
0
LINE
8
BLACK
6
CONTINUOUS
10
3.70644
20
-9.25087
11
3.67269
21
-9.25087
0
LINE
8
BLACK
6
CONTINUOUS
10
3.67269
20
-9.25087
11
3.66145
21
-9.24525
0
LINE
8
BLACK
6
CONTINUOUS
10
3.66145
20
-9.24525
11
3.65582
21
-9.23962
0
LINE
8
BLACK
6
CONTINUOUS
10
3.84142
20
-9.25087
11
3.77393
21
-9.25087
0
LINE
8
BLACK
6
CONTINUOUS
10
3.80768
20
-9.25087
11
3.80768
21
-9.13276
0
LINE
8
BLACK
6
CONTINUOUS
10
3.80768
20
-9.13276
11
3.79643
21
-9.14963
0
LINE
8
BLACK
6
CONTINUOUS
10
3.79643
20
-9.14963
11
3.78518
21
-9.16088
0
LINE
8
BLACK
6
CONTINUOUS
10
3.78518
20
-9.16088
11
3.77393
21
-9.16651
0
LINE
8
BLACK
6
CONTINUOUS
10
3.94828
20
-9.13276
11
3.89204
21
-9.13276
0
LINE
8
BLACK
6
CONTINUOUS
10
3.89204
20
-9.13276
11
3.88642
21
-9.189
0
LINE
8
BLACK
6
CONTINUOUS
10
3.88642
20
-9.189
11
3.89204
21
-9.18338
0
LINE
8
BLACK
6
CONTINUOUS
10
3.89204
20
-9.18338
11
3.90329
21
-9.17776
0
LINE
8
BLACK
6
CONTINUOUS
10
3.90329
20
-9.17776
11
3.93141
21
-9.17776
0
LINE
8
BLACK
6
CONTINUOUS
10
3.93141
20
-9.17776
11
3.94266
21
-9.18338
0
LINE
8
BLACK
6
CONTINUOUS
10
3.94266
20
-9.18338
11
3.94828
21
-9.189
0
LINE
8
BLACK
6
CONTINUOUS
10
3.94828
20
-9.189
11
3.95391
21
-9.20025
0
LINE
8
BLACK
6
CONTINUOUS
10
3.95391
20
-9.20025
11
3.95391
21
-9.22837
0
LINE
8
BLACK
6
CONTINUOUS
10
3.95391
20
-9.22837
11
3.94828
21
-9.23962
0
LINE
8
BLACK
6
CONTINUOUS
10
3.94828
20
-9.23962
11
3.94266
21
-9.24525
0
LINE
8
BLACK
6
CONTINUOUS
10
3.94266
20
-9.24525
11
3.93141
21
-9.25087
0
LINE
8
BLACK
6
CONTINUOUS
10
3.93141
20
-9.25087
11
3.90329
21
-9.25087
0
LINE
8
BLACK
6
CONTINUOUS
10
3.90329
20
-9.25087
11
3.89204
21
-9.24525
0
LINE
8
BLACK
6
CONTINUOUS
10
3.89204
20
-9.24525
11
3.88642
21
-9.23962
0
LINE
8
BLACK
6
CONTINUOUS
10
3.9989
20
-9.13276
11
3.9989
21
-9.15526
0
LINE
8
BLACK
6
CONTINUOUS
10
4.0439
20
-9.13276
11
4.0439
21
-9.15526
0
LINE
8
BLACK
6
CONTINUOUS
10
4.21825
20
-9.29587
11
4.21263
21
-9.29024
0
LINE
8
BLACK
6
CONTINUOUS
10
4.21263
20
-9.29024
11
4.20138
21
-9.27337
0
LINE
8
BLACK
6
CONTINUOUS
10
4.20138
20
-9.27337
11
4.19575
21
-9.26212
0
LINE
8
BLACK
6
CONTINUOUS
10
4.19575
20
-9.26212
11
4.19013
21
-9.24525
0
LINE
8
BLACK
6
CONTINUOUS
10
4.19013
20
-9.24525
11
4.1845
21
-9.21713
0
LINE
8
BLACK
6
CONTINUOUS
10
4.1845
20
-9.21713
11
4.1845
21
-9.19463
0
LINE
8
BLACK
6
CONTINUOUS
10
4.1845
20
-9.19463
11
4.19013
21
-9.16651
0
LINE
8
BLACK
6
CONTINUOUS
10
4.19013
20
-9.16651
11
4.19575
21
-9.14963
0
LINE
8
BLACK
6
CONTINUOUS
10
4.19575
20
-9.14963
11
4.20138
21
-9.13839
0
LINE
8
BLACK
6
CONTINUOUS
10
4.20138
20
-9.13839
11
4.21263
21
-9.12151
0
LINE
8
BLACK
6
CONTINUOUS
10
4.21263
20
-9.12151
11
4.21825
21
-9.11589
0
LINE
8
BLACK
6
CONTINUOUS
10
4.32511
20
-9.25087
11
4.25762
21
-9.25087
0
LINE
8
BLACK
6
CONTINUOUS
10
4.29137
20
-9.25087
11
4.29137
21
-9.13276
0
LINE
8
BLACK
6
CONTINUOUS
10
4.29137
20
-9.13276
11
4.28012
21
-9.14963
0
LINE
8
BLACK
6
CONTINUOUS
10
4.28012
20
-9.14963
11
4.26887
21
-9.16088
0
LINE
8
BLACK
6
CONTINUOUS
10
4.26887
20
-9.16088
11
4.25762
21
-9.16651
0
LINE
8
BLACK
6
CONTINUOUS
10
4.38136
20
-9.25087
11
4.40385
21
-9.25087
0
LINE
8
BLACK
6
CONTINUOUS
10
4.40385
20
-9.25087
11
4.4151
21
-9.24525
0
LINE
8
BLACK
6
CONTINUOUS
10
4.4151
20
-9.24525
11
4.42073
21
-9.23962
0
LINE
8
BLACK
6
CONTINUOUS
10
4.42073
20
-9.23962
11
4.43197
21
-9.22275
0
LINE
8
BLACK
6
CONTINUOUS
10
4.43197
20
-9.22275
11
4.4376
21
-9.20025
0
LINE
8
BLACK
6
CONTINUOUS
10
4.4376
20
-9.20025
11
4.4376
21
-9.15526
0
LINE
8
BLACK
6
CONTINUOUS
10
4.4376
20
-9.15526
11
4.43197
21
-9.14401
0
LINE
8
BLACK
6
CONTINUOUS
10
4.43197
20
-9.14401
11
4.42635
21
-9.13839
0
LINE
8
BLACK
6
CONTINUOUS
10
4.42635
20
-9.13839
11
4.4151
21
-9.13276
0
LINE
8
BLACK
6
CONTINUOUS
10
4.4151
20
-9.13276
11
4.3926
21
-9.13276
0
LINE
8
BLACK
6
CONTINUOUS
10
4.3926
20
-9.13276
11
4.38136
21
-9.13839
0
LINE
8
BLACK
6
CONTINUOUS
10
4.38136
20
-9.13839
11
4.37573
21
-9.14401
0
LINE
8
BLACK
6
CONTINUOUS
10
4.37573
20
-9.14401
11
4.37011
21
-9.15526
0
LINE
8
BLACK
6
CONTINUOUS
10
4.37011
20
-9.15526
11
4.37011
21
-9.18338
0
LINE
8
BLACK
6
CONTINUOUS
10
4.37011
20
-9.18338
11
4.37573
21
-9.19463
0
LINE
8
BLACK
6
CONTINUOUS
10
4.37573
20
-9.19463
11
4.38136
21
-9.20025
0
LINE
8
BLACK
6
CONTINUOUS
10
4.38136
20
-9.20025
11
4.3926
21
-9.20588
0
LINE
8
BLACK
6
CONTINUOUS
10
4.3926
20
-9.20588
11
4.4151
21
-9.20588
0
LINE
8
BLACK
6
CONTINUOUS
10
4.4151
20
-9.20588
11
4.42635
21
-9.20025
0
LINE
8
BLACK
6
CONTINUOUS
10
4.42635
20
-9.20025
11
4.43197
21
-9.19463
0
LINE
8
BLACK
6
CONTINUOUS
10
4.43197
20
-9.19463
11
4.4376
21
-9.18338
0
LINE
8
BLACK
6
CONTINUOUS
10
4.54446
20
-9.13276
11
4.48822
21
-9.13276
0
LINE
8
BLACK
6
CONTINUOUS
10
4.48822
20
-9.13276
11
4.48259
21
-9.189
0
LINE
8
BLACK
6
CONTINUOUS
10
4.48259
20
-9.189
11
4.48822
21
-9.18338
0
LINE
8
BLACK
6
CONTINUOUS
10
4.48822
20
-9.18338
11
4.49947
21
-9.17776
0
LINE
8
BLACK
6
CONTINUOUS
10
4.49947
20
-9.17776
11
4.52759
21
-9.17776
0
LINE
8
BLACK
6
CONTINUOUS
10
4.52759
20
-9.17776
11
4.53884
21
-9.18338
0
LINE
8
BLACK
6
CONTINUOUS
10
4.53884
20
-9.18338
11
4.54446
21
-9.189
0
LINE
8
BLACK
6
CONTINUOUS
10
4.54446
20
-9.189
11
4.55008
21
-9.20025
0
LINE
8
BLACK
6
CONTINUOUS
10
4.55008
20
-9.20025
11
4.55008
21
-9.22837
0
LINE
8
BLACK
6
CONTINUOUS
10
4.55008
20
-9.22837
11
4.54446
21
-9.23962
0
LINE
8
BLACK
6
CONTINUOUS
10
4.54446
20
-9.23962
11
4.53884
21
-9.24525
0
LINE
8
BLACK
6
CONTINUOUS
10
4.53884
20
-9.24525
11
4.52759
21
-9.25087
0
LINE
8
BLACK
6
CONTINUOUS
10
4.52759
20
-9.25087
11
4.49947
21
-9.25087
0
LINE
8
BLACK
6
CONTINUOUS
10
4.49947
20
-9.25087
11
4.48822
21
-9.24525
0
LINE
8
BLACK
6
CONTINUOUS
10
4.48822
20
-9.24525
11
4.48259
21
-9.23962
0
LINE
8
BLACK
6
CONTINUOUS
10
4.69069
20
-9.25087
11
4.69069
21
-9.13276
0
LINE
8
BLACK
6
CONTINUOUS
10
4.74131
20
-9.25087
11
4.74131
21
-9.189
0
LINE
8
BLACK
6
CONTINUOUS
10
4.74131
20
-9.189
11
4.73569
21
-9.17776
0
LINE
8
BLACK
6
CONTINUOUS
10
4.73569
20
-9.17776
11
4.72444
21
-9.17213
0
LINE
8
BLACK
6
CONTINUOUS
10
4.72444
20
-9.17213
11
4.70756
21
-9.17213
0
LINE
8
BLACK
6
CONTINUOUS
10
4.70756
20
-9.17213
11
4.69632
21
-9.17776
0
LINE
8
BLACK
6
CONTINUOUS
10
4.69632
20
-9.17776
11
4.69069
21
-9.18338
0
LINE
8
BLACK
6
CONTINUOUS
10
4.81443
20
-9.25087
11
4.80318
21
-9.24525
0
LINE
8
BLACK
6
CONTINUOUS
10
4.80318
20
-9.24525
11
4.79755
21
-9.23962
0
LINE
8
BLACK
6
CONTINUOUS
10
4.79755
20
-9.23962
11
4.79193
21
-9.22837
0
LINE
8
BLACK
6
CONTINUOUS
10
4.79193
20
-9.22837
11
4.79193
21
-9.19463
0
LINE
8
BLACK
6
CONTINUOUS
10
4.79193
20
-9.19463
11
4.79755
21
-9.18338
0
LINE
8
BLACK
6
CONTINUOUS
10
4.79755
20
-9.18338
11
4.80318
21
-9.17776
0
LINE
8
BLACK
6
CONTINUOUS
10
4.80318
20
-9.17776
11
4.81443
21
-9.17213
0
LINE
8
BLACK
6
CONTINUOUS
10
4.81443
20
-9.17213
11
4.8313
21
-9.17213
0
LINE
8
BLACK
6
CONTINUOUS
10
4.8313
20
-9.17213
11
4.84255
21
-9.17776
0
LINE
8
BLACK
6
CONTINUOUS
10
4.84255
20
-9.17776
11
4.84817
21
-9.18338
0
LINE
8
BLACK
6
CONTINUOUS
10
4.84817
20
-9.18338
11
4.8538
21
-9.19463
0
LINE
8
BLACK
6
CONTINUOUS
10
4.8538
20
-9.19463
11
4.8538
21
-9.22837
0
LINE
8
BLACK
6
CONTINUOUS
10
4.8538
20
-9.22837
11
4.84817
21
-9.23962
0
LINE
8
BLACK
6
CONTINUOUS
10
4.84817
20
-9.23962
11
4.84255
21
-9.24525
0
LINE
8
BLACK
6
CONTINUOUS
10
4.84255
20
-9.24525
11
4.8313
21
-9.25087
0
LINE
8
BLACK
6
CONTINUOUS
10
4.8313
20
-9.25087
11
4.81443
21
-9.25087
0
LINE
8
BLACK
6
CONTINUOUS
10
4.92129
20
-9.25087
11
4.91004
21
-9.24525
0
LINE
8
BLACK
6
CONTINUOUS
10
4.91004
20
-9.24525
11
4.90442
21
-9.234
0
LINE
8
BLACK
6
CONTINUOUS
10
4.90442
20
-9.234
11
4.90442
21
-9.13276
0
LINE
8
BLACK
6
CONTINUOUS
10
5.01128
20
-9.24525
11
5.00003
21
-9.25087
0
LINE
8
BLACK
6
CONTINUOUS
10
5.00003
20
-9.25087
11
4.97753
21
-9.25087
0
LINE
8
BLACK
6
CONTINUOUS
10
4.97753
20
-9.25087
11
4.96628
21
-9.24525
0
LINE
8
BLACK
6
CONTINUOUS
10
4.96628
20
-9.24525
11
4.96066
21
-9.234
0
LINE
8
BLACK
6
CONTINUOUS
10
4.96066
20
-9.234
11
4.96066
21
-9.189
0
LINE
8
BLACK
6
CONTINUOUS
10
4.96066
20
-9.189
11
4.96628
21
-9.17776
0
LINE
8
BLACK
6
CONTINUOUS
10
4.96628
20
-9.17776
11
4.97753
21
-9.17213
0
LINE
8
BLACK
6
CONTINUOUS
10
4.97753
20
-9.17213
11
5.00003
21
-9.17213
0
LINE
8
BLACK
6
CONTINUOUS
10
5.00003
20
-9.17213
11
5.01128
21
-9.17776
0
LINE
8
BLACK
6
CONTINUOUS
10
5.01128
20
-9.17776
11
5.0169
21
-9.189
0
LINE
8
BLACK
6
CONTINUOUS
10
5.0169
20
-9.189
11
5.0169
21
-9.20025
0
LINE
8
BLACK
6
CONTINUOUS
10
5.0169
20
-9.20025
11
4.96066
21
-9.2115
0
LINE
8
BLACK
6
CONTINUOUS
10
5.0619
20
-9.24525
11
5.07314
21
-9.25087
0
LINE
8
BLACK
6
CONTINUOUS
10
5.07314
20
-9.25087
11
5.09564
21
-9.25087
0
LINE
8
BLACK
6
CONTINUOUS
10
5.09564
20
-9.25087
11
5.10689
21
-9.24525
0
LINE
8
BLACK
6
CONTINUOUS
10
5.10689
20
-9.24525
11
5.11251
21
-9.234
0
LINE
8
BLACK
6
CONTINUOUS
10
5.11251
20
-9.234
11
5.11251
21
-9.22837
0
LINE
8
BLACK
6
CONTINUOUS
10
5.11251
20
-9.22837
11
5.10689
21
-9.21713
0
LINE
8
BLACK
6
CONTINUOUS
10
5.10689
20
-9.21713
11
5.09564
21
-9.2115
0
LINE
8
BLACK
6
CONTINUOUS
10
5.09564
20
-9.2115
11
5.07877
21
-9.2115
0
LINE
8
BLACK
6
CONTINUOUS
10
5.07877
20
-9.2115
11
5.06752
21
-9.20588
0
LINE
8
BLACK
6
CONTINUOUS
10
5.06752
20
-9.20588
11
5.0619
21
-9.19463
0
LINE
8
BLACK
6
CONTINUOUS
10
5.0619
20
-9.19463
11
5.0619
21
-9.189
0
LINE
8
BLACK
6
CONTINUOUS
10
5.0619
20
-9.189
11
5.06752
21
-9.17776
0
LINE
8
BLACK
6
CONTINUOUS
10
5.06752
20
-9.17776
11
5.07877
21
-9.17213
0
LINE
8
BLACK
6
CONTINUOUS
10
5.07877
20
-9.17213
11
5.09564
21
-9.17213
0
LINE
8
BLACK
6
CONTINUOUS
10
5.09564
20
-9.17213
11
5.10689
21
-9.17776
0
LINE
8
BLACK
6
CONTINUOUS
10
5.15188
20
-9.29587
11
5.15751
21
-9.29024
0
LINE
8
BLACK
6
CONTINUOUS
10
5.15751
20
-9.29024
11
5.16876
21
-9.27337
0
LINE
8
BLACK
6
CONTINUOUS
10
5.16876
20
-9.27337
11
5.17438
21
-9.26212
0
LINE
8
BLACK
6
CONTINUOUS
10
5.17438
20
-9.26212
11
5.18001
21
-9.24525
0
LINE
8
BLACK
6
CONTINUOUS
10
5.18001
20
-9.24525
11
5.18563
21
-9.21713
0
LINE
8
BLACK
6
CONTINUOUS
10
5.18563
20
-9.21713
11
5.18563
21
-9.19463
0
LINE
8
BLACK
6
CONTINUOUS
10
5.18563
20
-9.19463
11
5.18001
21
-9.16651
0
LINE
8
BLACK
6
CONTINUOUS
10
5.18001
20
-9.16651
11
5.17438
21
-9.14963
0
LINE
8
BLACK
6
CONTINUOUS
10
5.17438
20
-9.14963
11
5.16876
21
-9.13839
0
LINE
8
BLACK
6
CONTINUOUS
10
5.16876
20
-9.13839
11
5.15751
21
-9.12151
0
LINE
8
BLACK
6
CONTINUOUS
10
5.15751
20
-9.12151
11
5.15188
21
-9.11589
0
LINE
8
BLACK
6
CONTINUOUS
10
2.12854
20
-9.33366
11
2.12854
21
-9.37303
0
LINE
8
BLACK
6
CONTINUOUS
10
2.10886
20
-9.35335
11
2.14823
21
-9.35335
0
LINE
8
BLACK
6
CONTINUOUS
10
2.32286
20
-9.40678
11
2.25537
21
-9.40678
0
LINE
8
BLACK
6
CONTINUOUS
10
2.28912
20
-9.40678
11
2.28912
21
-9.28867
0
LINE
8
BLACK
6
CONTINUOUS
10
2.28912
20
-9.28867
11
2.27787
21
-9.30554
0
LINE
8
BLACK
6
CONTINUOUS
10
2.27787
20
-9.30554
11
2.26662
21
-9.31679
0
LINE
8
BLACK
6
CONTINUOUS
10
2.26662
20
-9.31679
11
2.25537
21
-9.32241
0
LINE
8
BLACK
6
CONTINUOUS
10
2.37348
20
-9.39553
11
2.37911
21
-9.40115
0
LINE
8
BLACK
6
CONTINUOUS
10
2.37911
20
-9.40115
11
2.37348
21
-9.40678
0
LINE
8
BLACK
6
CONTINUOUS
10
2.37348
20
-9.40678
11
2.36786
21
-9.40115
0
LINE
8
BLACK
6
CONTINUOUS
10
2.36786
20
-9.40115
11
2.37348
21
-9.39553
0
LINE
8
BLACK
6
CONTINUOUS
10
2.37348
20
-9.39553
11
2.37348
21
-9.40678
0
LINE
8
BLACK
6
CONTINUOUS
10
2.45222
20
-9.28867
11
2.46347
21
-9.28867
0
LINE
8
BLACK
6
CONTINUOUS
10
2.46347
20
-9.28867
11
2.47472
21
-9.29429
0
LINE
8
BLACK
6
CONTINUOUS
10
2.47472
20
-9.29429
11
2.48034
21
-9.29992
0
LINE
8
BLACK
6
CONTINUOUS
10
2.48034
20
-9.29992
11
2.48597
21
-9.31116
0
LINE
8
BLACK
6
CONTINUOUS
10
2.48597
20
-9.31116
11
2.49159
21
-9.33366
0
LINE
8
BLACK
6
CONTINUOUS
10
2.49159
20
-9.33366
11
2.49159
21
-9.36178
0
LINE
8
BLACK
6
CONTINUOUS
10
2.49159
20
-9.36178
11
2.48597
21
-9.38428
0
LINE
8
BLACK
6
CONTINUOUS
10
2.48597
20
-9.38428
11
2.48034
21
-9.39553
0
LINE
8
BLACK
6
CONTINUOUS
10
2.48034
20
-9.39553
11
2.47472
21
-9.40115
0
LINE
8
BLACK
6
CONTINUOUS
10
2.47472
20
-9.40115
11
2.46347
21
-9.40678
0
LINE
8
BLACK
6
CONTINUOUS
10
2.46347
20
-9.40678
11
2.45222
21
-9.40678
0
LINE
8
BLACK
6
CONTINUOUS
10
2.45222
20
-9.40678
11
2.44097
21
-9.40115
0
LINE
8
BLACK
6
CONTINUOUS
10
2.44097
20
-9.40115
11
2.43535
21
-9.39553
0
LINE
8
BLACK
6
CONTINUOUS
10
2.43535
20
-9.39553
11
2.42972
21
-9.38428
0
LINE
8
BLACK
6
CONTINUOUS
10
2.42972
20
-9.38428
11
2.4241
21
-9.36178
0
LINE
8
BLACK
6
CONTINUOUS
10
2.4241
20
-9.36178
11
2.4241
21
-9.33366
0
LINE
8
BLACK
6
CONTINUOUS
10
2.4241
20
-9.33366
11
2.42972
21
-9.31116
0
LINE
8
BLACK
6
CONTINUOUS
10
2.42972
20
-9.31116
11
2.43535
21
-9.29992
0
LINE
8
BLACK
6
CONTINUOUS
10
2.43535
20
-9.29992
11
2.44097
21
-9.29429
0
LINE
8
BLACK
6
CONTINUOUS
10
2.44097
20
-9.29429
11
2.45222
21
-9.28867
0
LINE
8
BLACK
6
CONTINUOUS
10
2.56471
20
-9.28867
11
2.57596
21
-9.28867
0
LINE
8
BLACK
6
CONTINUOUS
10
2.57596
20
-9.28867
11
2.5872
21
-9.29429
0
LINE
8
BLACK
6
CONTINUOUS
10
2.5872
20
-9.29429
11
2.59283
21
-9.29992
0
LINE
8
BLACK
6
CONTINUOUS
10
2.59283
20
-9.29992
11
2.59845
21
-9.31116
0
LINE
8
BLACK
6
CONTINUOUS
10
2.59845
20
-9.31116
11
2.60408
21
-9.33366
0
LINE
8
BLACK
6
CONTINUOUS
10
2.60408
20
-9.33366
11
2.60408
21
-9.36178
0
LINE
8
BLACK
6
CONTINUOUS
10
2.60408
20
-9.36178
11
2.59845
21
-9.38428
0
LINE
8
BLACK
6
CONTINUOUS
10
2.59845
20
-9.38428
11
2.59283
21
-9.39553
0
LINE
8
BLACK
6
CONTINUOUS
10
2.59283
20
-9.39553
11
2.5872
21
-9.40115
0
LINE
8
BLACK
6
CONTINUOUS
10
2.5872
20
-9.40115
11
2.57596
21
-9.40678
0
LINE
8
BLACK
6
CONTINUOUS
10
2.57596
20
-9.40678
11
2.56471
21
-9.40678
0
LINE
8
BLACK
6
CONTINUOUS
10
2.56471
20
-9.40678
11
2.55346
21
-9.40115
0
LINE
8
BLACK
6
CONTINUOUS
10
2.55346
20
-9.40115
11
2.54783
21
-9.39553
0
LINE
8
BLACK
6
CONTINUOUS
10
2.54783
20
-9.39553
11
2.54221
21
-9.38428
0
LINE
8
BLACK
6
CONTINUOUS
10
2.54221
20
-9.38428
11
2.53659
21
-9.36178
0
LINE
8
BLACK
6
CONTINUOUS
10
2.53659
20
-9.36178
11
2.53659
21
-9.33366
0
LINE
8
BLACK
6
CONTINUOUS
10
2.53659
20
-9.33366
11
2.54221
21
-9.31116
0
LINE
8
BLACK
6
CONTINUOUS
10
2.54221
20
-9.31116
11
2.54783
21
-9.29992
0
LINE
8
BLACK
6
CONTINUOUS
10
2.54783
20
-9.29992
11
2.55346
21
-9.29429
0
LINE
8
BLACK
6
CONTINUOUS
10
2.55346
20
-9.29429
11
2.56471
21
-9.28867
0
LINE
8
BLACK
6
CONTINUOUS
10
2.67719
20
-9.28867
11
2.68844
21
-9.28867
0
LINE
8
BLACK
6
CONTINUOUS
10
2.68844
20
-9.28867
11
2.69969
21
-9.29429
0
LINE
8
BLACK
6
CONTINUOUS
10
2.69969
20
-9.29429
11
2.70531
21
-9.29992
0
LINE
8
BLACK
6
CONTINUOUS
10
2.70531
20
-9.29992
11
2.71094
21
-9.31116
0
LINE
8
BLACK
6
CONTINUOUS
10
2.71094
20
-9.31116
11
2.71656
21
-9.33366
0
LINE
8
BLACK
6
CONTINUOUS
10
2.71656
20
-9.33366
11
2.71656
21
-9.36178
0
LINE
8
BLACK
6
CONTINUOUS
10
2.71656
20
-9.36178
11
2.71094
21
-9.38428
0
LINE
8
BLACK
6
CONTINUOUS
10
2.71094
20
-9.38428
11
2.70531
21
-9.39553
0
LINE
8
BLACK
6
CONTINUOUS
10
2.70531
20
-9.39553
11
2.69969
21
-9.40115
0
LINE
8
BLACK
6
CONTINUOUS
10
2.69969
20
-9.40115
11
2.68844
21
-9.40678
0
LINE
8
BLACK
6
CONTINUOUS
10
2.68844
20
-9.40678
11
2.67719
21
-9.40678
0
LINE
8
BLACK
6
CONTINUOUS
10
2.67719
20
-9.40678
11
2.66594
21
-9.40115
0
LINE
8
BLACK
6
CONTINUOUS
10
2.66594
20
-9.40115
11
2.66032
21
-9.39553
0
LINE
8
BLACK
6
CONTINUOUS
10
2.66032
20
-9.39553
11
2.6547
21
-9.38428
0
LINE
8
BLACK
6
CONTINUOUS
10
2.6547
20
-9.38428
11
2.64907
21
-9.36178
0
LINE
8
BLACK
6
CONTINUOUS
10
2.64907
20
-9.36178
11
2.64907
21
-9.33366
0
LINE
8
BLACK
6
CONTINUOUS
10
2.64907
20
-9.33366
11
2.6547
21
-9.31116
0
LINE
8
BLACK
6
CONTINUOUS
10
2.6547
20
-9.31116
11
2.66032
21
-9.29992
0
LINE
8
BLACK
6
CONTINUOUS
10
2.66032
20
-9.29992
11
2.66594
21
-9.29429
0
LINE
8
BLACK
6
CONTINUOUS
10
2.66594
20
-9.29429
11
2.67719
21
-9.28867
0
LINE
8
BLACK
6
CONTINUOUS
10
2.76718
20
-9.40678
11
2.76718
21
-9.32804
0
LINE
8
BLACK
6
CONTINUOUS
10
2.76718
20
-9.33929
11
2.77281
21
-9.33366
0
LINE
8
BLACK
6
CONTINUOUS
10
2.77281
20
-9.33366
11
2.78406
21
-9.32804
0
LINE
8
BLACK
6
CONTINUOUS
10
2.78406
20
-9.32804
11
2.80093
21
-9.32804
0
LINE
8
BLACK
6
CONTINUOUS
10
2.80093
20
-9.32804
11
2.81218
21
-9.33366
0
LINE
8
BLACK
6
CONTINUOUS
10
2.81218
20
-9.33366
11
2.8178
21
-9.34491
0
LINE
8
BLACK
6
CONTINUOUS
10
2.8178
20
-9.34491
11
2.8178
21
-9.40678
0
LINE
8
BLACK
6
CONTINUOUS
10
2.8178
20
-9.34491
11
2.82343
21
-9.33366
0
LINE
8
BLACK
6
CONTINUOUS
10
2.82343
20
-9.33366
11
2.83467
21
-9.32804
0
LINE
8
BLACK
6
CONTINUOUS
10
2.83467
20
-9.32804
11
2.85155
21
-9.32804
0
LINE
8
BLACK
6
CONTINUOUS
10
2.85155
20
-9.32804
11
2.8628
21
-9.33366
0
LINE
8
BLACK
6
CONTINUOUS
10
2.8628
20
-9.33366
11
2.86842
21
-9.34491
0
LINE
8
BLACK
6
CONTINUOUS
10
2.86842
20
-9.34491
11
2.86842
21
-9.40678
0
LINE
8
BLACK
6
CONTINUOUS
10
2.92466
20
-9.40678
11
2.92466
21
-9.32804
0
LINE
8
BLACK
6
CONTINUOUS
10
2.92466
20
-9.33929
11
2.93029
21
-9.33366
0
LINE
8
BLACK
6
CONTINUOUS
10
2.93029
20
-9.33366
11
2.94154
21
-9.32804
0
LINE
8
BLACK
6
CONTINUOUS
10
2.94154
20
-9.32804
11
2.95841
21
-9.32804
0
LINE
8
BLACK
6
CONTINUOUS
10
2.95841
20
-9.32804
11
2.96966
21
-9.33366
0
LINE
8
BLACK
6
CONTINUOUS
10
2.96966
20
-9.33366
11
2.97528
21
-9.34491
0
LINE
8
BLACK
6
CONTINUOUS
10
2.97528
20
-9.34491
11
2.97528
21
-9.40678
0
LINE
8
BLACK
6
CONTINUOUS
10
2.97528
20
-9.34491
11
2.98091
21
-9.33366
0
LINE
8
BLACK
6
CONTINUOUS
10
2.98091
20
-9.33366
11
2.99215
21
-9.32804
0
LINE
8
BLACK
6
CONTINUOUS
10
2.99215
20
-9.32804
11
3.00903
21
-9.32804
0
LINE
8
BLACK
6
CONTINUOUS
10
3.00903
20
-9.32804
11
3.02028
21
-9.33366
0
LINE
8
BLACK
6
CONTINUOUS
10
3.02028
20
-9.33366
11
3.0259
21
-9.34491
0
LINE
8
BLACK
6
CONTINUOUS
10
3.0259
20
-9.34491
11
3.0259
21
-9.40678
0
LINE
8
BLACK
6
CONTINUOUS
10
3.2565
20
-9.28304
11
3.15526
21
-9.4349
0
LINE
8
BLACK
6
CONTINUOUS
10
3.40835
20
-9.28867
11
3.4196
21
-9.28867
0
LINE
8
BLACK
6
CONTINUOUS
10
3.4196
20
-9.28867
11
3.43085
21
-9.29429
0
LINE
8
BLACK
6
CONTINUOUS
10
3.43085
20
-9.29429
11
3.43647
21
-9.29992
0
LINE
8
BLACK
6
CONTINUOUS
10
3.43647
20
-9.29992
11
3.4421
21
-9.31116
0
LINE
8
BLACK
6
CONTINUOUS
10
3.4421
20
-9.31116
11
3.44772
21
-9.33366
0
LINE
8
BLACK
6
CONTINUOUS
10
3.44772
20
-9.33366
11
3.44772
21
-9.36178
0
LINE
8
BLACK
6
CONTINUOUS
10
3.44772
20
-9.36178
11
3.4421
21
-9.38428
0
LINE
8
BLACK
6
CONTINUOUS
10
3.4421
20
-9.38428
11
3.43647
21
-9.39553
0
LINE
8
BLACK
6
CONTINUOUS
10
3.43647
20
-9.39553
11
3.43085
21
-9.40115
0
LINE
8
BLACK
6
CONTINUOUS
10
3.43085
20
-9.40115
11
3.4196
21
-9.40678
0
LINE
8
BLACK
6
CONTINUOUS
10
3.4196
20
-9.40678
11
3.40835
21
-9.40678
0
LINE
8
BLACK
6
CONTINUOUS
10
3.40835
20
-9.40678
11
3.3971
21
-9.40115
0
LINE
8
BLACK
6
CONTINUOUS
10
3.3971
20
-9.40115
11
3.39148
21
-9.39553
0
LINE
8
BLACK
6
CONTINUOUS
10
3.39148
20
-9.39553
11
3.38585
21
-9.38428
0
LINE
8
BLACK
6
CONTINUOUS
10
3.38585
20
-9.38428
11
3.38023
21
-9.36178
0
LINE
8
BLACK
6
CONTINUOUS
10
3.38023
20
-9.36178
11
3.38023
21
-9.33366
0
LINE
8
BLACK
6
CONTINUOUS
10
3.38023
20
-9.33366
11
3.38585
21
-9.31116
0
LINE
8
BLACK
6
CONTINUOUS
10
3.38585
20
-9.31116
11
3.39148
21
-9.29992
0
LINE
8
BLACK
6
CONTINUOUS
10
3.39148
20
-9.29992
11
3.3971
21
-9.29429
0
LINE
8
BLACK
6
CONTINUOUS
10
3.3971
20
-9.29429
11
3.40835
21
-9.28867
0
LINE
8
BLACK
6
CONTINUOUS
10
3.49834
20
-9.39553
11
3.50397
21
-9.40115
0
LINE
8
BLACK
6
CONTINUOUS
10
3.50397
20
-9.40115
11
3.49834
21
-9.40678
0
LINE
8
BLACK
6
CONTINUOUS
10
3.49834
20
-9.40678
11
3.49272
21
-9.40115
0
LINE
8
BLACK
6
CONTINUOUS
10
3.49272
20
-9.40115
11
3.49834
21
-9.39553
0
LINE
8
BLACK
6
CONTINUOUS
10
3.49834
20
-9.39553
11
3.49834
21
-9.40678
0
LINE
8
BLACK
6
CONTINUOUS
10
3.57708
20
-9.28867
11
3.58833
21
-9.28867
0
LINE
8
BLACK
6
CONTINUOUS
10
3.58833
20
-9.28867
11
3.59958
21
-9.29429
0
LINE
8
BLACK
6
CONTINUOUS
10
3.59958
20
-9.29429
11
3.6052
21
-9.29992
0
LINE
8
BLACK
6
CONTINUOUS
10
3.6052
20
-9.29992
11
3.61083
21
-9.31116
0
LINE
8
BLACK
6
CONTINUOUS
10
3.61083
20
-9.31116
11
3.61645
21
-9.33366
0
LINE
8
BLACK
6
CONTINUOUS
10
3.61645
20
-9.33366
11
3.61645
21
-9.36178
0
LINE
8
BLACK
6
CONTINUOUS
10
3.61645
20
-9.36178
11
3.61083
21
-9.38428
0
LINE
8
BLACK
6
CONTINUOUS
10
3.61083
20
-9.38428
11
3.6052
21
-9.39553
0
LINE
8
BLACK
6
CONTINUOUS
10
3.6052
20
-9.39553
11
3.59958
21
-9.40115
0
LINE
8
BLACK
6
CONTINUOUS
10
3.59958
20
-9.40115
11
3.58833
21
-9.40678
0
LINE
8
BLACK
6
CONTINUOUS
10
3.58833
20
-9.40678
11
3.57708
21
-9.40678
0
LINE
8
BLACK
6
CONTINUOUS
10
3.57708
20
-9.40678
11
3.56583
21
-9.40115
0
LINE
8
BLACK
6
CONTINUOUS
10
3.56583
20
-9.40115
11
3.56021
21
-9.39553
0
LINE
8
BLACK
6
CONTINUOUS
10
3.56021
20
-9.39553
11
3.55458
21
-9.38428
0
LINE
8
BLACK
6
CONTINUOUS
10
3.55458
20
-9.38428
11
3.54896
21
-9.36178
0
LINE
8
BLACK
6
CONTINUOUS
10
3.54896
20
-9.36178
11
3.54896
21
-9.33366
0
LINE
8
BLACK
6
CONTINUOUS
10
3.54896
20
-9.33366
11
3.55458
21
-9.31116
0
LINE
8
BLACK
6
CONTINUOUS
10
3.55458
20
-9.31116
11
3.56021
21
-9.29992
0
LINE
8
BLACK
6
CONTINUOUS
10
3.56021
20
-9.29992
11
3.56583
21
-9.29429
0
LINE
8
BLACK
6
CONTINUOUS
10
3.56583
20
-9.29429
11
3.57708
21
-9.28867
0
LINE
8
BLACK
6
CONTINUOUS
10
3.65582
20
-9.28867
11
3.72894
21
-9.28867
0
LINE
8
BLACK
6
CONTINUOUS
10
3.72894
20
-9.28867
11
3.68957
21
-9.33366
0
LINE
8
BLACK
6
CONTINUOUS
10
3.68957
20
-9.33366
11
3.70644
21
-9.33366
0
LINE
8
BLACK
6
CONTINUOUS
10
3.70644
20
-9.33366
11
3.71769
21
-9.33929
0
LINE
8
BLACK
6
CONTINUOUS
10
3.71769
20
-9.33929
11
3.72331
21
-9.34491
0
LINE
8
BLACK
6
CONTINUOUS
10
3.72331
20
-9.34491
11
3.72894
21
-9.35616
0
LINE
8
BLACK
6
CONTINUOUS
10
3.72894
20
-9.35616
11
3.72894
21
-9.38428
0
LINE
8
BLACK
6
CONTINUOUS
10
3.72894
20
-9.38428
11
3.72331
21
-9.39553
0
LINE
8
BLACK
6
CONTINUOUS
10
3.72331
20
-9.39553
11
3.71769
21
-9.40115
0
LINE
8
BLACK
6
CONTINUOUS
10
3.71769
20
-9.40115
11
3.70644
21
-9.40678
0
LINE
8
BLACK
6
CONTINUOUS
10
3.70644
20
-9.40678
11
3.67269
21
-9.40678
0
LINE
8
BLACK
6
CONTINUOUS
10
3.67269
20
-9.40678
11
3.66145
21
-9.40115
0
LINE
8
BLACK
6
CONTINUOUS
10
3.66145
20
-9.40115
11
3.65582
21
-9.39553
0
LINE
8
BLACK
6
CONTINUOUS
10
3.78518
20
-9.40678
11
3.80768
21
-9.40678
0
LINE
8
BLACK
6
CONTINUOUS
10
3.80768
20
-9.40678
11
3.81893
21
-9.40115
0
LINE
8
BLACK
6
CONTINUOUS
10
3.81893
20
-9.40115
11
3.82455
21
-9.39553
0
LINE
8
BLACK
6
CONTINUOUS
10
3.82455
20
-9.39553
11
3.8358
21
-9.37866
0
LINE
8
BLACK
6
CONTINUOUS
10
3.8358
20
-9.37866
11
3.84142
21
-9.35616
0
LINE
8
BLACK
6
CONTINUOUS
10
3.84142
20
-9.35616
11
3.84142
21
-9.31116
0
LINE
8
BLACK
6
CONTINUOUS
10
3.84142
20
-9.31116
11
3.8358
21
-9.29992
0
LINE
8
BLACK
6
CONTINUOUS
10
3.8358
20
-9.29992
11
3.83017
21
-9.29429
0
LINE
8
BLACK
6
CONTINUOUS
10
3.83017
20
-9.29429
11
3.81893
21
-9.28867
0
LINE
8
BLACK
6
CONTINUOUS
10
3.81893
20
-9.28867
11
3.79643
21
-9.28867
0
LINE
8
BLACK
6
CONTINUOUS
10
3.79643
20
-9.28867
11
3.78518
21
-9.29429
0
LINE
8
BLACK
6
CONTINUOUS
10
3.78518
20
-9.29429
11
3.77956
21
-9.29992
0
LINE
8
BLACK
6
CONTINUOUS
10
3.77956
20
-9.29992
11
3.77393
21
-9.31116
0
LINE
8
BLACK
6
CONTINUOUS
10
3.77393
20
-9.31116
11
3.77393
21
-9.33929
0
LINE
8
BLACK
6
CONTINUOUS
10
3.77393
20
-9.33929
11
3.77956
21
-9.35053
0
LINE
8
BLACK
6
CONTINUOUS
10
3.77956
20
-9.35053
11
3.78518
21
-9.35616
0
LINE
8
BLACK
6
CONTINUOUS
10
3.78518
20
-9.35616
11
3.79643
21
-9.36178
0
LINE
8
BLACK
6
CONTINUOUS
10
3.79643
20
-9.36178
11
3.81893
21
-9.36178
0
LINE
8
BLACK
6
CONTINUOUS
10
3.81893
20
-9.36178
11
3.83017
21
-9.35616
0
LINE
8
BLACK
6
CONTINUOUS
10
3.83017
20
-9.35616
11
3.8358
21
-9.35053
0
LINE
8
BLACK
6
CONTINUOUS
10
3.8358
20
-9.35053
11
3.84142
21
-9.33929
0
LINE
8
BLACK
6
CONTINUOUS
10
3.94266
20
-9.32804
11
3.94266
21
-9.40678
0
LINE
8
BLACK
6
CONTINUOUS
10
3.91454
20
-9.28304
11
3.88642
21
-9.36741
0
LINE
8
BLACK
6
CONTINUOUS
10
3.88642
20
-9.36741
11
3.95953
21
-9.36741
0
LINE
8
BLACK
6
CONTINUOUS
10
3.9989
20
-9.28867
11
3.9989
21
-9.31116
0
LINE
8
BLACK
6
CONTINUOUS
10
4.0439
20
-9.28867
11
4.0439
21
-9.31116
0
LINE
8
BLACK
6
CONTINUOUS
10
4.21825
20
-9.45177
11
4.21263
21
-9.44615
0
LINE
8
BLACK
6
CONTINUOUS
10
4.21263
20
-9.44615
11
4.20138
21
-9.42927
0
LINE
8
BLACK
6
CONTINUOUS
10
4.20138
20
-9.42927
11
4.19575
21
-9.41803
0
LINE
8
BLACK
6
CONTINUOUS
10
4.19575
20
-9.41803
11
4.19013
21
-9.40115
0
LINE
8
BLACK
6
CONTINUOUS
10
4.19013
20
-9.40115
11
4.1845
21
-9.37303
0
LINE
8
BLACK
6
CONTINUOUS
10
4.1845
20
-9.37303
11
4.1845
21
-9.35053
0
LINE
8
BLACK
6
CONTINUOUS
10
4.1845
20
-9.35053
11
4.19013
21
-9.32241
0
LINE
8
BLACK
6
CONTINUOUS
10
4.19013
20
-9.32241
11
4.19575
21
-9.30554
0
LINE
8
BLACK
6
CONTINUOUS
10
4.19575
20
-9.30554
11
4.20138
21
-9.29429
0
LINE
8
BLACK
6
CONTINUOUS
10
4.20138
20
-9.29429
11
4.21263
21
-9.27742
0
LINE
8
BLACK
6
CONTINUOUS
10
4.21263
20
-9.27742
11
4.21825
21
-9.27179
0
LINE
8
BLACK
6
CONTINUOUS
10
4.252
20
-9.28867
11
4.33074
21
-9.28867
0
LINE
8
BLACK
6
CONTINUOUS
10
4.33074
20
-9.28867
11
4.28012
21
-9.40678
0
LINE
8
BLACK
6
CONTINUOUS
10
4.3926
20
-9.33929
11
4.38136
21
-9.33366
0
LINE
8
BLACK
6
CONTINUOUS
10
4.38136
20
-9.33366
11
4.37573
21
-9.32804
0
LINE
8
BLACK
6
CONTINUOUS
10
4.37573
20
-9.32804
11
4.37011
21
-9.31679
0
LINE
8
BLACK
6
CONTINUOUS
10
4.37011
20
-9.31679
11
4.37011
21
-9.31116
0
LINE
8
BLACK
6
CONTINUOUS
10
4.37011
20
-9.31116
11
4.37573
21
-9.29992
0
LINE
8
BLACK
6
CONTINUOUS
10
4.37573
20
-9.29992
11
4.38136
21
-9.29429
0
LINE
8
BLACK
6
CONTINUOUS
10
4.38136
20
-9.29429
11
4.3926
21
-9.28867
0
LINE
8
BLACK
6
CONTINUOUS
10
4.3926
20
-9.28867
11
4.4151
21
-9.28867
0
LINE
8
BLACK
6
CONTINUOUS
10
4.4151
20
-9.28867
11
4.42635
21
-9.29429
0
LINE
8
BLACK
6
CONTINUOUS
10
4.42635
20
-9.29429
11
4.43197
21
-9.29992
0
LINE
8
BLACK
6
CONTINUOUS
10
4.43197
20
-9.29992
11
4.4376
21
-9.31116
0
LINE
8
BLACK
6
CONTINUOUS
10
4.4376
20
-9.31116
11
4.4376
21
-9.31679
0
LINE
8
BLACK
6
CONTINUOUS
10
4.4376
20
-9.31679
11
4.43197
21
-9.32804
0
LINE
8
BLACK
6
CONTINUOUS
10
4.43197
20
-9.32804
11
4.42635
21
-9.33366
0
LINE
8
BLACK
6
CONTINUOUS
10
4.42635
20
-9.33366
11
4.4151
21
-9.33929
0
LINE
8
BLACK
6
CONTINUOUS
10
4.4151
20
-9.33929
11
4.3926
21
-9.33929
0
LINE
8
BLACK
6
CONTINUOUS
10
4.3926
20
-9.33929
11
4.38136
21
-9.34491
0
LINE
8
BLACK
6
CONTINUOUS
10
4.38136
20
-9.34491
11
4.37573
21
-9.35053
0
LINE
8
BLACK
6
CONTINUOUS
10
4.37573
20
-9.35053
11
4.37011
21
-9.36178
0
LINE
8
BLACK
6
CONTINUOUS
10
4.37011
20
-9.36178
11
4.37011
21
-9.38428
0
LINE
8
BLACK
6
CONTINUOUS
10
4.37011
20
-9.38428
11
4.37573
21
-9.39553
0
LINE
8
BLACK
6
CONTINUOUS
10
4.37573
20
-9.39553
11
4.38136
21
-9.40115
0
LINE
8
BLACK
6
CONTINUOUS
10
4.38136
20
-9.40115
11
4.3926
21
-9.40678
0
LINE
8
BLACK
6
CONTINUOUS
10
4.3926
20
-9.40678
11
4.4151
21
-9.40678
0
LINE
8
BLACK
6
CONTINUOUS
10
4.4151
20
-9.40678
11
4.42635
21
-9.40115
0
LINE
8
BLACK
6
CONTINUOUS
10
4.42635
20
-9.40115
11
4.43197
21
-9.39553
0
LINE
8
BLACK
6
CONTINUOUS
10
4.43197
20
-9.39553
11
4.4376
21
-9.38428
0
LINE
8
BLACK
6
CONTINUOUS
10
4.4376
20
-9.38428
11
4.4376
21
-9.36178
0
LINE
8
BLACK
6
CONTINUOUS
10
4.4376
20
-9.36178
11
4.43197
21
-9.35053
0
LINE
8
BLACK
6
CONTINUOUS
10
4.43197
20
-9.35053
11
4.42635
21
-9.34491
0
LINE
8
BLACK
6
CONTINUOUS
10
4.42635
20
-9.34491
11
4.4151
21
-9.33929
0
LINE
8
BLACK
6
CONTINUOUS
10
4.57821
20
-9.40678
11
4.57821
21
-9.28867
0
LINE
8
BLACK
6
CONTINUOUS
10
4.62882
20
-9.40678
11
4.62882
21
-9.34491
0
LINE
8
BLACK
6
CONTINUOUS
10
4.62882
20
-9.34491
11
4.6232
21
-9.33366
0
LINE
8
BLACK
6
CONTINUOUS
10
4.6232
20
-9.33366
11
4.61195
21
-9.32804
0
LINE
8
BLACK
6
CONTINUOUS
10
4.61195
20
-9.32804
11
4.59508
21
-9.32804
0
LINE
8
BLACK
6
CONTINUOUS
10
4.59508
20
-9.32804
11
4.58383
21
-9.33366
0
LINE
8
BLACK
6
CONTINUOUS
10
4.58383
20
-9.33366
11
4.57821
21
-9.33929
0
LINE
8
BLACK
6
CONTINUOUS
10
4.70194
20
-9.40678
11
4.69069
21
-9.40115
0
LINE
8
BLACK
6
CONTINUOUS
10
4.69069
20
-9.40115
11
4.68507
21
-9.39553
0
LINE
8
BLACK
6
CONTINUOUS
10
4.68507
20
-9.39553
11
4.67944
21
-9.38428
0
LINE
8
BLACK
6
CONTINUOUS
10
4.67944
20
-9.38428
11
4.67944
21
-9.35053
0
LINE
8
BLACK
6
CONTINUOUS
10
4.67944
20
-9.35053
11
4.68507
21
-9.33929
0
LINE
8
BLACK
6
CONTINUOUS
10
4.68507
20
-9.33929
11
4.69069
21
-9.33366
0
LINE
8
BLACK
6
CONTINUOUS
10
4.69069
20
-9.33366
11
4.70194
21
-9.32804
0
LINE
8
BLACK
6
CONTINUOUS
10
4.70194
20
-9.32804
11
4.71881
21
-9.32804
0
LINE
8
BLACK
6
CONTINUOUS
10
4.71881
20
-9.32804
11
4.73006
21
-9.33366
0
LINE
8
BLACK
6
CONTINUOUS
10
4.73006
20
-9.33366
11
4.73569
21
-9.33929
0
LINE
8
BLACK
6
CONTINUOUS
10
4.73569
20
-9.33929
11
4.74131
21
-9.35053
0
LINE
8
BLACK
6
CONTINUOUS
10
4.74131
20
-9.35053
11
4.74131
21
-9.38428
0
LINE
8
BLACK
6
CONTINUOUS
10
4.74131
20
-9.38428
11
4.73569
21
-9.39553
0
LINE
8
BLACK
6
CONTINUOUS
10
4.73569
20
-9.39553
11
4.73006
21
-9.40115
0
LINE
8
BLACK
6
CONTINUOUS
10
4.73006
20
-9.40115
11
4.71881
21
-9.40678
0
LINE
8
BLACK
6
CONTINUOUS
10
4.71881
20
-9.40678
11
4.70194
21
-9.40678
0
LINE
8
BLACK
6
CONTINUOUS
10
4.8088
20
-9.40678
11
4.79755
21
-9.40115
0
LINE
8
BLACK
6
CONTINUOUS
10
4.79755
20
-9.40115
11
4.79193
21
-9.3899
0
LINE
8
BLACK
6
CONTINUOUS
10
4.79193
20
-9.3899
11
4.79193
21
-9.28867
0
LINE
8
BLACK
6
CONTINUOUS
10
4.89879
20
-9.40115
11
4.88754
21
-9.40678
0
LINE
8
BLACK
6
CONTINUOUS
10
4.88754
20
-9.40678
11
4.86504
21
-9.40678
0
LINE
8
BLACK
6
CONTINUOUS
10
4.86504
20
-9.40678
11
4.8538
21
-9.40115
0
LINE
8
BLACK
6
CONTINUOUS
10
4.8538
20
-9.40115
11
4.84817
21
-9.3899
0
LINE
8
BLACK
6
CONTINUOUS
10
4.84817
20
-9.3899
11
4.84817
21
-9.34491
0
LINE
8
BLACK
6
CONTINUOUS
10
4.84817
20
-9.34491
11
4.8538
21
-9.33366
0
LINE
8
BLACK
6
CONTINUOUS
10
4.8538
20
-9.33366
11
4.86504
21
-9.32804
0
LINE
8
BLACK
6
CONTINUOUS
10
4.86504
20
-9.32804
11
4.88754
21
-9.32804
0
LINE
8
BLACK
6
CONTINUOUS
10
4.88754
20
-9.32804
11
4.89879
21
-9.33366
0
LINE
8
BLACK
6
CONTINUOUS
10
4.89879
20
-9.33366
11
4.90442
21
-9.34491
0
LINE
8
BLACK
6
CONTINUOUS
10
4.90442
20
-9.34491
11
4.90442
21
-9.35616
0
LINE
8
BLACK
6
CONTINUOUS
10
4.90442
20
-9.35616
11
4.84817
21
-9.36741
0
LINE
8
BLACK
6
CONTINUOUS
10
4.94941
20
-9.40115
11
4.96066
21
-9.40678
0
LINE
8
BLACK
6
CONTINUOUS
10
4.96066
20
-9.40678
11
4.98316
21
-9.40678
0
LINE
8
BLACK
6
CONTINUOUS
10
4.98316
20
-9.40678
11
4.9944
21
-9.40115
0
LINE
8
BLACK
6
CONTINUOUS
10
4.9944
20
-9.40115
11
5.00003
21
-9.3899
0
LINE
8
BLACK
6
CONTINUOUS
10
5.00003
20
-9.3899
11
5.00003
21
-9.38428
0
LINE
8
BLACK
6
CONTINUOUS
10
5.00003
20
-9.38428
11
4.9944
21
-9.37303
0
LINE
8
BLACK
6
CONTINUOUS
10
4.9944
20
-9.37303
11
4.98316
21
-9.36741
0
LINE
8
BLACK
6
CONTINUOUS
10
4.98316
20
-9.36741
11
4.96628
21
-9.36741
0
LINE
8
BLACK
6
CONTINUOUS
10
4.96628
20
-9.36741
11
4.95503
21
-9.36178
0
LINE
8
BLACK
6
CONTINUOUS
10
4.95503
20
-9.36178
11
4.94941
21
-9.35053
0
LINE
8
BLACK
6
CONTINUOUS
10
4.94941
20
-9.35053
11
4.94941
21
-9.34491
0
LINE
8
BLACK
6
CONTINUOUS
10
4.94941
20
-9.34491
11
4.95503
21
-9.33366
0
LINE
8
BLACK
6
CONTINUOUS
10
4.95503
20
-9.33366
11
4.96628
21
-9.32804
0
LINE
8
BLACK
6
CONTINUOUS
10
4.96628
20
-9.32804
11
4.98316
21
-9.32804
0
LINE
8
BLACK
6
CONTINUOUS
10
4.98316
20
-9.32804
11
4.9944
21
-9.33366
0
LINE
8
BLACK
6
CONTINUOUS
10
5.0394
20
-9.45177
11
5.04502
21
-9.44615
0
LINE
8
BLACK
6
CONTINUOUS
10
5.04502
20
-9.44615
11
5.05627
21
-9.42927
0
LINE
8
BLACK
6
CONTINUOUS
10
5.05627
20
-9.42927
11
5.0619
21
-9.41803
0
LINE
8
BLACK
6
CONTINUOUS
10
5.0619
20
-9.41803
11
5.06752
21
-9.40115
0
LINE
8
BLACK
6
CONTINUOUS
10
5.06752
20
-9.40115
11
5.07314
21
-9.37303
0
LINE
8
BLACK
6
CONTINUOUS
10
5.07314
20
-9.37303
11
5.07314
21
-9.35053
0
LINE
8
BLACK
6
CONTINUOUS
10
5.07314
20
-9.35053
11
5.06752
21
-9.32241
0
LINE
8
BLACK
6
CONTINUOUS
10
5.06752
20
-9.32241
11
5.0619
21
-9.30554
0
LINE
8
BLACK
6
CONTINUOUS
10
5.0619
20
-9.30554
11
5.05627
21
-9.29429
0
LINE
8
BLACK
6
CONTINUOUS
10
5.05627
20
-9.29429
11
5.04502
21
-9.27742
0
LINE
8
BLACK
6
CONTINUOUS
10
5.04502
20
-9.27742
11
5.0394
21
-9.27179
0
LINE
8
BLACK
6
CONTINUOUS
10
2.14131
20
-9.52596
11
2.14131
21
-9.49255
0
LINE
8
BLACK
6
CONTINUOUS
10
2.14131
20
-9.49255
11
2.1079
21
-9.49255
0
LINE
8
BLACK
6
CONTINUOUS
10
2.1079
20
-9.49255
11
2.1079
21
-9.52596
0
LINE
8
BLACK
6
CONTINUOUS
10
2.1079
20
-9.52596
11
2.14131
21
-9.52596
0
LINE
8
BLACK
6
CONTINUOUS
10
2.32286
20
-9.56268
11
2.25537
21
-9.56268
0
LINE
8
BLACK
6
CONTINUOUS
10
2.28912
20
-9.56268
11
2.28912
21
-9.44457
0
LINE
8
BLACK
6
CONTINUOUS
10
2.28912
20
-9.44457
11
2.27787
21
-9.46145
0
LINE
8
BLACK
6
CONTINUOUS
10
2.27787
20
-9.46145
11
2.26662
21
-9.47269
0
LINE
8
BLACK
6
CONTINUOUS
10
2.26662
20
-9.47269
11
2.25537
21
-9.47832
0
LINE
8
BLACK
6
CONTINUOUS
10
2.37348
20
-9.55143
11
2.37911
21
-9.55706
0
LINE
8
BLACK
6
CONTINUOUS
10
2.37911
20
-9.55706
11
2.37348
21
-9.56268
0
LINE
8
BLACK
6
CONTINUOUS
10
2.37348
20
-9.56268
11
2.36786
21
-9.55706
0
LINE
8
BLACK
6
CONTINUOUS
10
2.36786
20
-9.55706
11
2.37348
21
-9.55143
0
LINE
8
BLACK
6
CONTINUOUS
10
2.37348
20
-9.55143
11
2.37348
21
-9.56268
0
LINE
8
BLACK
6
CONTINUOUS
10
2.4241
20
-9.45582
11
2.42972
21
-9.4502
0
LINE
8
BLACK
6
CONTINUOUS
10
2.42972
20
-9.4502
11
2.44097
21
-9.44457
0
LINE
8
BLACK
6
CONTINUOUS
10
2.44097
20
-9.44457
11
2.46909
21
-9.44457
0
LINE
8
BLACK
6
CONTINUOUS
10
2.46909
20
-9.44457
11
2.48034
21
-9.4502
0
LINE
8
BLACK
6
CONTINUOUS
10
2.48034
20
-9.4502
11
2.48597
21
-9.45582
0
LINE
8
BLACK
6
CONTINUOUS
10
2.48597
20
-9.45582
11
2.49159
21
-9.46707
0
LINE
8
BLACK
6
CONTINUOUS
10
2.49159
20
-9.46707
11
2.49159
21
-9.47832
0
LINE
8
BLACK
6
CONTINUOUS
10
2.49159
20
-9.47832
11
2.48597
21
-9.49519
0
LINE
8
BLACK
6
CONTINUOUS
10
2.48597
20
-9.49519
11
2.41848
21
-9.56268
0
LINE
8
BLACK
6
CONTINUOUS
10
2.41848
20
-9.56268
11
2.49159
21
-9.56268
0
LINE
8
BLACK
6
CONTINUOUS
10
2.56471
20
-9.44457
11
2.57596
21
-9.44457
0
LINE
8
BLACK
6
CONTINUOUS
10
2.57596
20
-9.44457
11
2.5872
21
-9.4502
0
LINE
8
BLACK
6
CONTINUOUS
10
2.5872
20
-9.4502
11
2.59283
21
-9.45582
0
LINE
8
BLACK
6
CONTINUOUS
10
2.59283
20
-9.45582
11
2.59845
21
-9.46707
0
LINE
8
BLACK
6
CONTINUOUS
10
2.59845
20
-9.46707
11
2.60408
21
-9.48957
0
LINE
8
BLACK
6
CONTINUOUS
10
2.60408
20
-9.48957
11
2.60408
21
-9.51769
0
LINE
8
BLACK
6
CONTINUOUS
10
2.60408
20
-9.51769
11
2.59845
21
-9.54019
0
LINE
8
BLACK
6
CONTINUOUS
10
2.59845
20
-9.54019
11
2.59283
21
-9.55143
0
LINE
8
BLACK
6
CONTINUOUS
10
2.59283
20
-9.55143
11
2.5872
21
-9.55706
0
LINE
8
BLACK
6
CONTINUOUS
10
2.5872
20
-9.55706
11
2.57596
21
-9.56268
0
LINE
8
BLACK
6
CONTINUOUS
10
2.57596
20
-9.56268
11
2.56471
21
-9.56268
0
LINE
8
BLACK
6
CONTINUOUS
10
2.56471
20
-9.56268
11
2.55346
21
-9.55706
0
LINE
8
BLACK
6
CONTINUOUS
10
2.55346
20
-9.55706
11
2.54783
21
-9.55143
0
LINE
8
BLACK
6
CONTINUOUS
10
2.54783
20
-9.55143
11
2.54221
21
-9.54019
0
LINE
8
BLACK
6
CONTINUOUS
10
2.54221
20
-9.54019
11
2.53659
21
-9.51769
0
LINE
8
BLACK
6
CONTINUOUS
10
2.53659
20
-9.51769
11
2.53659
21
-9.48957
0
LINE
8
BLACK
6
CONTINUOUS
10
2.53659
20
-9.48957
11
2.54221
21
-9.46707
0
LINE
8
BLACK
6
CONTINUOUS
10
2.54221
20
-9.46707
11
2.54783
21
-9.45582
0
LINE
8
BLACK
6
CONTINUOUS
10
2.54783
20
-9.45582
11
2.55346
21
-9.4502
0
LINE
8
BLACK
6
CONTINUOUS
10
2.55346
20
-9.4502
11
2.56471
21
-9.44457
0
LINE
8
BLACK
6
CONTINUOUS
10
2.67719
20
-9.44457
11
2.68844
21
-9.44457
0
LINE
8
BLACK
6
CONTINUOUS
10
2.68844
20
-9.44457
11
2.69969
21
-9.4502
0
LINE
8
BLACK
6
CONTINUOUS
10
2.69969
20
-9.4502
11
2.70531
21
-9.45582
0
LINE
8
BLACK
6
CONTINUOUS
10
2.70531
20
-9.45582
11
2.71094
21
-9.46707
0
LINE
8
BLACK
6
CONTINUOUS
10
2.71094
20
-9.46707
11
2.71656
21
-9.48957
0
LINE
8
BLACK
6
CONTINUOUS
10
2.71656
20
-9.48957
11
2.71656
21
-9.51769
0
LINE
8
BLACK
6
CONTINUOUS
10
2.71656
20
-9.51769
11
2.71094
21
-9.54019
0
LINE
8
BLACK
6
CONTINUOUS
10
2.71094
20
-9.54019
11
2.70531
21
-9.55143
0
LINE
8
BLACK
6
CONTINUOUS
10
2.70531
20
-9.55143
11
2.69969
21
-9.55706
0
LINE
8
BLACK
6
CONTINUOUS
10
2.69969
20
-9.55706
11
2.68844
21
-9.56268
0
LINE
8
BLACK
6
CONTINUOUS
10
2.68844
20
-9.56268
11
2.67719
21
-9.56268
0
LINE
8
BLACK
6
CONTINUOUS
10
2.67719
20
-9.56268
11
2.66594
21
-9.55706
0
LINE
8
BLACK
6
CONTINUOUS
10
2.66594
20
-9.55706
11
2.66032
21
-9.55143
0
LINE
8
BLACK
6
CONTINUOUS
10
2.66032
20
-9.55143
11
2.6547
21
-9.54019
0
LINE
8
BLACK
6
CONTINUOUS
10
2.6547
20
-9.54019
11
2.64907
21
-9.51769
0
LINE
8
BLACK
6
CONTINUOUS
10
2.64907
20
-9.51769
11
2.64907
21
-9.48957
0
LINE
8
BLACK
6
CONTINUOUS
10
2.64907
20
-9.48957
11
2.6547
21
-9.46707
0
LINE
8
BLACK
6
CONTINUOUS
10
2.6547
20
-9.46707
11
2.66032
21
-9.45582
0
LINE
8
BLACK
6
CONTINUOUS
10
2.66032
20
-9.45582
11
2.66594
21
-9.4502
0
LINE
8
BLACK
6
CONTINUOUS
10
2.66594
20
-9.4502
11
2.67719
21
-9.44457
0
LINE
8
BLACK
6
CONTINUOUS
10
2.76718
20
-9.56268
11
2.76718
21
-9.48394
0
LINE
8
BLACK
6
CONTINUOUS
10
2.76718
20
-9.49519
11
2.77281
21
-9.48957
0
LINE
8
BLACK
6
CONTINUOUS
10
2.77281
20
-9.48957
11
2.78406
21
-9.48394
0
LINE
8
BLACK
6
CONTINUOUS
10
2.78406
20
-9.48394
11
2.80093
21
-9.48394
0
LINE
8
BLACK
6
CONTINUOUS
10
2.80093
20
-9.48394
11
2.81218
21
-9.48957
0
LINE
8
BLACK
6
CONTINUOUS
10
2.81218
20
-9.48957
11
2.8178
21
-9.50082
0
LINE
8
BLACK
6
CONTINUOUS
10
2.8178
20
-9.50082
11
2.8178
21
-9.56268
0
LINE
8
BLACK
6
CONTINUOUS
10
2.8178
20
-9.50082
11
2.82343
21
-9.48957
0
LINE
8
BLACK
6
CONTINUOUS
10
2.82343
20
-9.48957
11
2.83467
21
-9.48394
0
LINE
8
BLACK
6
CONTINUOUS
10
2.83467
20
-9.48394
11
2.85155
21
-9.48394
0
LINE
8
BLACK
6
CONTINUOUS
10
2.85155
20
-9.48394
11
2.8628
21
-9.48957
0
LINE
8
BLACK
6
CONTINUOUS
10
2.8628
20
-9.48957
11
2.86842
21
-9.50082
0
LINE
8
BLACK
6
CONTINUOUS
10
2.86842
20
-9.50082
11
2.86842
21
-9.56268
0
LINE
8
BLACK
6
CONTINUOUS
10
2.92466
20
-9.56268
11
2.92466
21
-9.48394
0
LINE
8
BLACK
6
CONTINUOUS
10
2.92466
20
-9.49519
11
2.93029
21
-9.48957
0
LINE
8
BLACK
6
CONTINUOUS
10
2.93029
20
-9.48957
11
2.94154
21
-9.48394
0
LINE
8
BLACK
6
CONTINUOUS
10
2.94154
20
-9.48394
11
2.95841
21
-9.48394
0
LINE
8
BLACK
6
CONTINUOUS
10
2.95841
20
-9.48394
11
2.96966
21
-9.48957
0
LINE
8
BLACK
6
CONTINUOUS
10
2.96966
20
-9.48957
11
2.97528
21
-9.50082
0
LINE
8
BLACK
6
CONTINUOUS
10
2.97528
20
-9.50082
11
2.97528
21
-9.56268
0
LINE
8
BLACK
6
CONTINUOUS
10
2.97528
20
-9.50082
11
2.98091
21
-9.48957
0
LINE
8
BLACK
6
CONTINUOUS
10
2.98091
20
-9.48957
11
2.99215
21
-9.48394
0
LINE
8
BLACK
6
CONTINUOUS
10
2.99215
20
-9.48394
11
3.00903
21
-9.48394
0
LINE
8
BLACK
6
CONTINUOUS
10
3.00903
20
-9.48394
11
3.02028
21
-9.48957
0
LINE
8
BLACK
6
CONTINUOUS
10
3.02028
20
-9.48957
11
3.0259
21
-9.50082
0
LINE
8
BLACK
6
CONTINUOUS
10
3.0259
20
-9.50082
11
3.0259
21
-9.56268
0
LINE
8
BLACK
6
CONTINUOUS
10
3.2565
20
-9.43895
11
3.15526
21
-9.5908
0
LINE
8
BLACK
6
CONTINUOUS
10
3.40835
20
-9.44457
11
3.4196
21
-9.44457
0
LINE
8
BLACK
6
CONTINUOUS
10
3.4196
20
-9.44457
11
3.43085
21
-9.4502
0
LINE
8
BLACK
6
CONTINUOUS
10
3.43085
20
-9.4502
11
3.43647
21
-9.45582
0
LINE
8
BLACK
6
CONTINUOUS
10
3.43647
20
-9.45582
11
3.4421
21
-9.46707
0
LINE
8
BLACK
6
CONTINUOUS
10
3.4421
20
-9.46707
11
3.44772
21
-9.48957
0
LINE
8
BLACK
6
CONTINUOUS
10
3.44772
20
-9.48957
11
3.44772
21
-9.51769
0
LINE
8
BLACK
6
CONTINUOUS
10
3.44772
20
-9.51769
11
3.4421
21
-9.54019
0
LINE
8
BLACK
6
CONTINUOUS
10
3.4421
20
-9.54019
11
3.43647
21
-9.55143
0
LINE
8
BLACK
6
CONTINUOUS
10
3.43647
20
-9.55143
11
3.43085
21
-9.55706
0
LINE
8
BLACK
6
CONTINUOUS
10
3.43085
20
-9.55706
11
3.4196
21
-9.56268
0
LINE
8
BLACK
6
CONTINUOUS
10
3.4196
20
-9.56268
11
3.40835
21
-9.56268
0
LINE
8
BLACK
6
CONTINUOUS
10
3.40835
20
-9.56268
11
3.3971
21
-9.55706
0
LINE
8
BLACK
6
CONTINUOUS
10
3.3971
20
-9.55706
11
3.39148
21
-9.55143
0
LINE
8
BLACK
6
CONTINUOUS
10
3.39148
20
-9.55143
11
3.38585
21
-9.54019
0
LINE
8
BLACK
6
CONTINUOUS
10
3.38585
20
-9.54019
11
3.38023
21
-9.51769
0
LINE
8
BLACK
6
CONTINUOUS
10
3.38023
20
-9.51769
11
3.38023
21
-9.48957
0
LINE
8
BLACK
6
CONTINUOUS
10
3.38023
20
-9.48957
11
3.38585
21
-9.46707
0
LINE
8
BLACK
6
CONTINUOUS
10
3.38585
20
-9.46707
11
3.39148
21
-9.45582
0
LINE
8
BLACK
6
CONTINUOUS
10
3.39148
20
-9.45582
11
3.3971
21
-9.4502
0
LINE
8
BLACK
6
CONTINUOUS
10
3.3971
20
-9.4502
11
3.40835
21
-9.44457
0
LINE
8
BLACK
6
CONTINUOUS
10
3.49834
20
-9.55143
11
3.50397
21
-9.55706
0
LINE
8
BLACK
6
CONTINUOUS
10
3.50397
20
-9.55706
11
3.49834
21
-9.56268
0
LINE
8
BLACK
6
CONTINUOUS
10
3.49834
20
-9.56268
11
3.49272
21
-9.55706
0
LINE
8
BLACK
6
CONTINUOUS
10
3.49272
20
-9.55706
11
3.49834
21
-9.55143
0
LINE
8
BLACK
6
CONTINUOUS
10
3.49834
20
-9.55143
11
3.49834
21
-9.56268
0
LINE
8
BLACK
6
CONTINUOUS
10
3.57708
20
-9.44457
11
3.58833
21
-9.44457
0
LINE
8
BLACK
6
CONTINUOUS
10
3.58833
20
-9.44457
11
3.59958
21
-9.4502
0
LINE
8
BLACK
6
CONTINUOUS
10
3.59958
20
-9.4502
11
3.6052
21
-9.45582
0
LINE
8
BLACK
6
CONTINUOUS
10
3.6052
20
-9.45582
11
3.61083
21
-9.46707
0
LINE
8
BLACK
6
CONTINUOUS
10
3.61083
20
-9.46707
11
3.61645
21
-9.48957
0
LINE
8
BLACK
6
CONTINUOUS
10
3.61645
20
-9.48957
11
3.61645
21
-9.51769
0
LINE
8
BLACK
6
CONTINUOUS
10
3.61645
20
-9.51769
11
3.61083
21
-9.54019
0
LINE
8
BLACK
6
CONTINUOUS
10
3.61083
20
-9.54019
11
3.6052
21
-9.55143
0
LINE
8
BLACK
6
CONTINUOUS
10
3.6052
20
-9.55143
11
3.59958
21
-9.55706
0
LINE
8
BLACK
6
CONTINUOUS
10
3.59958
20
-9.55706
11
3.58833
21
-9.56268
0
LINE
8
BLACK
6
CONTINUOUS
10
3.58833
20
-9.56268
11
3.57708
21
-9.56268
0
LINE
8
BLACK
6
CONTINUOUS
10
3.57708
20
-9.56268
11
3.56583
21
-9.55706
0
LINE
8
BLACK
6
CONTINUOUS
10
3.56583
20
-9.55706
11
3.56021
21
-9.55143
0
LINE
8
BLACK
6
CONTINUOUS
10
3.56021
20
-9.55143
11
3.55458
21
-9.54019
0
LINE
8
BLACK
6
CONTINUOUS
10
3.55458
20
-9.54019
11
3.54896
21
-9.51769
0
LINE
8
BLACK
6
CONTINUOUS
10
3.54896
20
-9.51769
11
3.54896
21
-9.48957
0
LINE
8
BLACK
6
CONTINUOUS
10
3.54896
20
-9.48957
11
3.55458
21
-9.46707
0
LINE
8
BLACK
6
CONTINUOUS
10
3.55458
20
-9.46707
11
3.56021
21
-9.45582
0
LINE
8
BLACK
6
CONTINUOUS
10
3.56021
20
-9.45582
11
3.56583
21
-9.4502
0
LINE
8
BLACK
6
CONTINUOUS
10
3.56583
20
-9.4502
11
3.57708
21
-9.44457
0
LINE
8
BLACK
6
CONTINUOUS
10
3.71769
20
-9.48394
11
3.71769
21
-9.56268
0
LINE
8
BLACK
6
CONTINUOUS
10
3.68957
20
-9.43895
11
3.66145
21
-9.52331
0
LINE
8
BLACK
6
CONTINUOUS
10
3.66145
20
-9.52331
11
3.73456
21
-9.52331
0
LINE
8
BLACK
6
CONTINUOUS
10
3.76831
20
-9.44457
11
3.84705
21
-9.44457
0
LINE
8
BLACK
6
CONTINUOUS
10
3.84705
20
-9.44457
11
3.79643
21
-9.56268
0
LINE
8
BLACK
6
CONTINUOUS
10
3.88642
20
-9.45582
11
3.89204
21
-9.4502
0
LINE
8
BLACK
6
CONTINUOUS
10
3.89204
20
-9.4502
11
3.90329
21
-9.44457
0
LINE
8
BLACK
6
CONTINUOUS
10
3.90329
20
-9.44457
11
3.93141
21
-9.44457
0
LINE
8
BLACK
6
CONTINUOUS
10
3.93141
20
-9.44457
11
3.94266
21
-9.4502
0
LINE
8
BLACK
6
CONTINUOUS
10
3.94266
20
-9.4502
11
3.94828
21
-9.45582
0
LINE
8
BLACK
6
CONTINUOUS
10
3.94828
20
-9.45582
11
3.95391
21
-9.46707
0
LINE
8
BLACK
6
CONTINUOUS
10
3.95391
20
-9.46707
11
3.95391
21
-9.47832
0
LINE
8
BLACK
6
CONTINUOUS
10
3.95391
20
-9.47832
11
3.94828
21
-9.49519
0
LINE
8
BLACK
6
CONTINUOUS
10
3.94828
20
-9.49519
11
3.88079
21
-9.56268
0
LINE
8
BLACK
6
CONTINUOUS
10
3.88079
20
-9.56268
11
3.95391
21
-9.56268
0
LINE
8
BLACK
6
CONTINUOUS
10
3.9989
20
-9.44457
11
3.9989
21
-9.46707
0
LINE
8
BLACK
6
CONTINUOUS
10
4.0439
20
-9.44457
11
4.0439
21
-9.46707
0
LINE
8
BLACK
6
CONTINUOUS
10
4.21825
20
-9.60768
11
4.21263
21
-9.60205
0
LINE
8
BLACK
6
CONTINUOUS
10
4.21263
20
-9.60205
11
4.20138
21
-9.58518
0
LINE
8
BLACK
6
CONTINUOUS
10
4.20138
20
-9.58518
11
4.19575
21
-9.57393
0
LINE
8
BLACK
6
CONTINUOUS
10
4.19575
20
-9.57393
11
4.19013
21
-9.55706
0
LINE
8
BLACK
6
CONTINUOUS
10
4.19013
20
-9.55706
11
4.1845
21
-9.52894
0
LINE
8
BLACK
6
CONTINUOUS
10
4.1845
20
-9.52894
11
4.1845
21
-9.50644
0
LINE
8
BLACK
6
CONTINUOUS
10
4.1845
20
-9.50644
11
4.19013
21
-9.47832
0
LINE
8
BLACK
6
CONTINUOUS
10
4.19013
20
-9.47832
11
4.19575
21
-9.46145
0
LINE
8
BLACK
6
CONTINUOUS
10
4.19575
20
-9.46145
11
4.20138
21
-9.4502
0
LINE
8
BLACK
6
CONTINUOUS
10
4.20138
20
-9.4502
11
4.21263
21
-9.43332
0
LINE
8
BLACK
6
CONTINUOUS
10
4.21263
20
-9.43332
11
4.21825
21
-9.4277
0
LINE
8
BLACK
6
CONTINUOUS
10
4.25762
20
-9.45582
11
4.26325
21
-9.4502
0
LINE
8
BLACK
6
CONTINUOUS
10
4.26325
20
-9.4502
11
4.27449
21
-9.44457
0
LINE
8
BLACK
6
CONTINUOUS
10
4.27449
20
-9.44457
11
4.30262
21
-9.44457
0
LINE
8
BLACK
6
CONTINUOUS
10
4.30262
20
-9.44457
11
4.31386
21
-9.4502
0
LINE
8
BLACK
6
CONTINUOUS
10
4.31386
20
-9.4502
11
4.31949
21
-9.45582
0
LINE
8
BLACK
6
CONTINUOUS
10
4.31949
20
-9.45582
11
4.32511
21
-9.46707
0
LINE
8
BLACK
6
CONTINUOUS
10
4.32511
20
-9.46707
11
4.32511
21
-9.47832
0
LINE
8
BLACK
6
CONTINUOUS
10
4.32511
20
-9.47832
11
4.31949
21
-9.49519
0
LINE
8
BLACK
6
CONTINUOUS
10
4.31949
20
-9.49519
11
4.252
21
-9.56268
0
LINE
8
BLACK
6
CONTINUOUS
10
4.252
20
-9.56268
11
4.32511
21
-9.56268
0
LINE
8
BLACK
6
CONTINUOUS
10
4.46572
20
-9.56268
11
4.46572
21
-9.44457
0
LINE
8
BLACK
6
CONTINUOUS
10
4.51634
20
-9.56268
11
4.51634
21
-9.50082
0
LINE
8
BLACK
6
CONTINUOUS
10
4.51634
20
-9.50082
11
4.51071
21
-9.48957
0
LINE
8
BLACK
6
CONTINUOUS
10
4.51071
20
-9.48957
11
4.49947
21
-9.48394
0
LINE
8
BLACK
6
CONTINUOUS
10
4.49947
20
-9.48394
11
4.48259
21
-9.48394
0
LINE
8
BLACK
6
CONTINUOUS
10
4.48259
20
-9.48394
11
4.47134
21
-9.48957
0
LINE
8
BLACK
6
CONTINUOUS
10
4.47134
20
-9.48957
11
4.46572
21
-9.49519
0
LINE
8
BLACK
6
CONTINUOUS
10
4.58945
20
-9.56268
11
4.57821
21
-9.55706
0
LINE
8
BLACK
6
CONTINUOUS
10
4.57821
20
-9.55706
11
4.57258
21
-9.55143
0
LINE
8
BLACK
6
CONTINUOUS
10
4.57258
20
-9.55143
11
4.56696
21
-9.54019
0
LINE
8
BLACK
6
CONTINUOUS
10
4.56696
20
-9.54019
11
4.56696
21
-9.50644
0
LINE
8
BLACK
6
CONTINUOUS
10
4.56696
20
-9.50644
11
4.57258
21
-9.49519
0
LINE
8
BLACK
6
CONTINUOUS
10
4.57258
20
-9.49519
11
4.57821
21
-9.48957
0
LINE
8
BLACK
6
CONTINUOUS
10
4.57821
20
-9.48957
11
4.58945
21
-9.48394
0
LINE
8
BLACK
6
CONTINUOUS
10
4.58945
20
-9.48394
11
4.60633
21
-9.48394
0
LINE
8
BLACK
6
CONTINUOUS
10
4.60633
20
-9.48394
11
4.61758
21
-9.48957
0
LINE
8
BLACK
6
CONTINUOUS
10
4.61758
20
-9.48957
11
4.6232
21
-9.49519
0
LINE
8
BLACK
6
CONTINUOUS
10
4.6232
20
-9.49519
11
4.62882
21
-9.50644
0
LINE
8
BLACK
6
CONTINUOUS
10
4.62882
20
-9.50644
11
4.62882
21
-9.54019
0
LINE
8
BLACK
6
CONTINUOUS
10
4.62882
20
-9.54019
11
4.6232
21
-9.55143
0
LINE
8
BLACK
6
CONTINUOUS
10
4.6232
20
-9.55143
11
4.61758
21
-9.55706
0
LINE
8
BLACK
6
CONTINUOUS
10
4.61758
20
-9.55706
11
4.60633
21
-9.56268
0
LINE
8
BLACK
6
CONTINUOUS
10
4.60633
20
-9.56268
11
4.58945
21
-9.56268
0
LINE
8
BLACK
6
CONTINUOUS
10
4.69632
20
-9.56268
11
4.68507
21
-9.55706
0
LINE
8
BLACK
6
CONTINUOUS
10
4.68507
20
-9.55706
11
4.67944
21
-9.54581
0
LINE
8
BLACK
6
CONTINUOUS
10
4.67944
20
-9.54581
11
4.67944
21
-9.44457
0
LINE
8
BLACK
6
CONTINUOUS
10
4.7863
20
-9.55706
11
4.77506
21
-9.56268
0
LINE
8
BLACK
6
CONTINUOUS
10
4.77506
20
-9.56268
11
4.75256
21
-9.56268
0
LINE
8
BLACK
6
CONTINUOUS
10
4.75256
20
-9.56268
11
4.74131
21
-9.55706
0
LINE
8
BLACK
6
CONTINUOUS
10
4.74131
20
-9.55706
11
4.73569
21
-9.54581
0
LINE
8
BLACK
6
CONTINUOUS
10
4.73569
20
-9.54581
11
4.73569
21
-9.50082
0
LINE
8
BLACK
6
CONTINUOUS
10
4.73569
20
-9.50082
11
4.74131
21
-9.48957
0
LINE
8
BLACK
6
CONTINUOUS
10
4.74131
20
-9.48957
11
4.75256
21
-9.48394
0
LINE
8
BLACK
6
CONTINUOUS
10
4.75256
20
-9.48394
11
4.77506
21
-9.48394
0
LINE
8
BLACK
6
CONTINUOUS
10
4.77506
20
-9.48394
11
4.7863
21
-9.48957
0
LINE
8
BLACK
6
CONTINUOUS
10
4.7863
20
-9.48957
11
4.79193
21
-9.50082
0
LINE
8
BLACK
6
CONTINUOUS
10
4.79193
20
-9.50082
11
4.79193
21
-9.51206
0
LINE
8
BLACK
6
CONTINUOUS
10
4.79193
20
-9.51206
11
4.73569
21
-9.52331
0
LINE
8
BLACK
6
CONTINUOUS
10
4.83692
20
-9.55706
11
4.84817
21
-9.56268
0
LINE
8
BLACK
6
CONTINUOUS
10
4.84817
20
-9.56268
11
4.87067
21
-9.56268
0
LINE
8
BLACK
6
CONTINUOUS
10
4.87067
20
-9.56268
11
4.88192
21
-9.55706
0
LINE
8
BLACK
6
CONTINUOUS
10
4.88192
20
-9.55706
11
4.88754
21
-9.54581
0
LINE
8
BLACK
6
CONTINUOUS
10
4.88754
20
-9.54581
11
4.88754
21
-9.54019
0
LINE
8
BLACK
6
CONTINUOUS
10
4.88754
20
-9.54019
11
4.88192
21
-9.52894
0
LINE
8
BLACK
6
CONTINUOUS
10
4.88192
20
-9.52894
11
4.87067
21
-9.52331
0
LINE
8
BLACK
6
CONTINUOUS
10
4.87067
20
-9.52331
11
4.8538
21
-9.52331
0
LINE
8
BLACK
6
CONTINUOUS
10
4.8538
20
-9.52331
11
4.84255
21
-9.51769
0
LINE
8
BLACK
6
CONTINUOUS
10
4.84255
20
-9.51769
11
4.83692
21
-9.50644
0
LINE
8
BLACK
6
CONTINUOUS
10
4.83692
20
-9.50644
11
4.83692
21
-9.50082
0
LINE
8
BLACK
6
CONTINUOUS
10
4.83692
20
-9.50082
11
4.84255
21
-9.48957
0
LINE
8
BLACK
6
CONTINUOUS
10
4.84255
20
-9.48957
11
4.8538
21
-9.48394
0
LINE
8
BLACK
6
CONTINUOUS
10
4.8538
20
-9.48394
11
4.87067
21
-9.48394
0
LINE
8
BLACK
6
CONTINUOUS
10
4.87067
20
-9.48394
11
4.88192
21
-9.48957
0
LINE
8
BLACK
6
CONTINUOUS
10
4.92691
20
-9.60768
11
4.93254
21
-9.60205
0
LINE
8
BLACK
6
CONTINUOUS
10
4.93254
20
-9.60205
11
4.94379
21
-9.58518
0
LINE
8
BLACK
6
CONTINUOUS
10
4.94379
20
-9.58518
11
4.94941
21
-9.57393
0
LINE
8
BLACK
6
CONTINUOUS
10
4.94941
20
-9.57393
11
4.95503
21
-9.55706
0
LINE
8
BLACK
6
CONTINUOUS
10
4.95503
20
-9.55706
11
4.96066
21
-9.52894
0
LINE
8
BLACK
6
CONTINUOUS
10
4.96066
20
-9.52894
11
4.96066
21
-9.50644
0
LINE
8
BLACK
6
CONTINUOUS
10
4.96066
20
-9.50644
11
4.95503
21
-9.47832
0
LINE
8
BLACK
6
CONTINUOUS
10
4.95503
20
-9.47832
11
4.94941
21
-9.46145
0
LINE
8
BLACK
6
CONTINUOUS
10
4.94941
20
-9.46145
11
4.94379
21
-9.4502
0
LINE
8
BLACK
6
CONTINUOUS
10
4.94379
20
-9.4502
11
4.93254
21
-9.43332
0
LINE
8
BLACK
6
CONTINUOUS
10
4.93254
20
-9.43332
11
4.92691
21
-9.4277
0
LINE
8
BLACK
6
CONTINUOUS
10
2.08524
20
-9.72815
11
2.14823
21
-9.66516
0
LINE
8
BLACK
6
CONTINUOUS
10
2.14823
20
-9.66516
11
2.08524
21
-9.60217
0
LINE
8
BLACK
6
CONTINUOUS
10
2.08524
20
-9.60217
11
2.02224
21
-9.66516
0
LINE
8
BLACK
6
CONTINUOUS
10
2.02224
20
-9.66516
11
2.08524
21
-9.72815
0
LINE
8
BLACK
6
CONTINUOUS
10
2.24975
20
-9.60048
11
2.32286
21
-9.60048
0
LINE
8
BLACK
6
CONTINUOUS
10
2.32286
20
-9.60048
11
2.28349
21
-9.64547
0
LINE
8
BLACK
6
CONTINUOUS
10
2.28349
20
-9.64547
11
2.30037
21
-9.64547
0
LINE
8
BLACK
6
CONTINUOUS
10
2.30037
20
-9.64547
11
2.31161
21
-9.6511
0
LINE
8
BLACK
6
CONTINUOUS
10
2.31161
20
-9.6511
11
2.31724
21
-9.65672
0
LINE
8
BLACK
6
CONTINUOUS
10
2.31724
20
-9.65672
11
2.32286
21
-9.66797
0
LINE
8
BLACK
6
CONTINUOUS
10
2.32286
20
-9.66797
11
2.32286
21
-9.69609
0
LINE
8
BLACK
6
CONTINUOUS
10
2.32286
20
-9.69609
11
2.31724
21
-9.70734
0
LINE
8
BLACK
6
CONTINUOUS
10
2.31724
20
-9.70734
11
2.31161
21
-9.71296
0
LINE
8
BLACK
6
CONTINUOUS
10
2.31161
20
-9.71296
11
2.30037
21
-9.71859
0
LINE
8
BLACK
6
CONTINUOUS
10
2.30037
20
-9.71859
11
2.26662
21
-9.71859
0
LINE
8
BLACK
6
CONTINUOUS
10
2.26662
20
-9.71859
11
2.25537
21
-9.71296
0
LINE
8
BLACK
6
CONTINUOUS
10
2.25537
20
-9.71296
11
2.24975
21
-9.70734
0
LINE
8
BLACK
6
CONTINUOUS
10
2.37348
20
-9.70734
11
2.37911
21
-9.71296
0
LINE
8
BLACK
6
CONTINUOUS
10
2.37911
20
-9.71296
11
2.37348
21
-9.71859
0
LINE
8
BLACK
6
CONTINUOUS
10
2.37348
20
-9.71859
11
2.36786
21
-9.71296
0
LINE
8
BLACK
6
CONTINUOUS
10
2.36786
20
-9.71296
11
2.37348
21
-9.70734
0
LINE
8
BLACK
6
CONTINUOUS
10
2.37348
20
-9.70734
11
2.37348
21
-9.71859
0
LINE
8
BLACK
6
CONTINUOUS
10
2.4241
20
-9.61173
11
2.42972
21
-9.6061
0
LINE
8
BLACK
6
CONTINUOUS
10
2.42972
20
-9.6061
11
2.44097
21
-9.60048
0
LINE
8
BLACK
6
CONTINUOUS
10
2.44097
20
-9.60048
11
2.46909
21
-9.60048
0
LINE
8
BLACK
6
CONTINUOUS
10
2.46909
20
-9.60048
11
2.48034
21
-9.6061
0
LINE
8
BLACK
6
CONTINUOUS
10
2.48034
20
-9.6061
11
2.48597
21
-9.61173
0
LINE
8
BLACK
6
CONTINUOUS
10
2.48597
20
-9.61173
11
2.49159
21
-9.62298
0
LINE
8
BLACK
6
CONTINUOUS
10
2.49159
20
-9.62298
11
2.49159
21
-9.63422
0
LINE
8
BLACK
6
CONTINUOUS
10
2.49159
20
-9.63422
11
2.48597
21
-9.6511
0
LINE
8
BLACK
6
CONTINUOUS
10
2.48597
20
-9.6511
11
2.41848
21
-9.71859
0
LINE
8
BLACK
6
CONTINUOUS
10
2.41848
20
-9.71859
11
2.49159
21
-9.71859
0
LINE
8
BLACK
6
CONTINUOUS
10
2.56471
20
-9.60048
11
2.57596
21
-9.60048
0
LINE
8
BLACK
6
CONTINUOUS
10
2.57596
20
-9.60048
11
2.5872
21
-9.6061
0
LINE
8
BLACK
6
CONTINUOUS
10
2.5872
20
-9.6061
11
2.59283
21
-9.61173
0
LINE
8
BLACK
6
CONTINUOUS
10
2.59283
20
-9.61173
11
2.59845
21
-9.62298
0
LINE
8
BLACK
6
CONTINUOUS
10
2.59845
20
-9.62298
11
2.60408
21
-9.64547
0
LINE
8
BLACK
6
CONTINUOUS
10
2.60408
20
-9.64547
11
2.60408
21
-9.67359
0
LINE
8
BLACK
6
CONTINUOUS
10
2.60408
20
-9.67359
11
2.59845
21
-9.69609
0
LINE
8
BLACK
6
CONTINUOUS
10
2.59845
20
-9.69609
11
2.59283
21
-9.70734
0
LINE
8
BLACK
6
CONTINUOUS
10
2.59283
20
-9.70734
11
2.5872
21
-9.71296
0
LINE
8
BLACK
6
CONTINUOUS
10
2.5872
20
-9.71296
11
2.57596
21
-9.71859
0
LINE
8
BLACK
6
CONTINUOUS
10
2.57596
20
-9.71859
11
2.56471
21
-9.71859
0
LINE
8
BLACK
6
CONTINUOUS
10
2.56471
20
-9.71859
11
2.55346
21
-9.71296
0
LINE
8
BLACK
6
CONTINUOUS
10
2.55346
20
-9.71296
11
2.54783
21
-9.70734
0
LINE
8
BLACK
6
CONTINUOUS
10
2.54783
20
-9.70734
11
2.54221
21
-9.69609
0
LINE
8
BLACK
6
CONTINUOUS
10
2.54221
20
-9.69609
11
2.53659
21
-9.67359
0
LINE
8
BLACK
6
CONTINUOUS
10
2.53659
20
-9.67359
11
2.53659
21
-9.64547
0
LINE
8
BLACK
6
CONTINUOUS
10
2.53659
20
-9.64547
11
2.54221
21
-9.62298
0
LINE
8
BLACK
6
CONTINUOUS
10
2.54221
20
-9.62298
11
2.54783
21
-9.61173
0
LINE
8
BLACK
6
CONTINUOUS
10
2.54783
20
-9.61173
11
2.55346
21
-9.6061
0
LINE
8
BLACK
6
CONTINUOUS
10
2.55346
20
-9.6061
11
2.56471
21
-9.60048
0
LINE
8
BLACK
6
CONTINUOUS
10
2.67719
20
-9.60048
11
2.68844
21
-9.60048
0
LINE
8
BLACK
6
CONTINUOUS
10
2.68844
20
-9.60048
11
2.69969
21
-9.6061
0
LINE
8
BLACK
6
CONTINUOUS
10
2.69969
20
-9.6061
11
2.70531
21
-9.61173
0
LINE
8
BLACK
6
CONTINUOUS
10
2.70531
20
-9.61173
11
2.71094
21
-9.62298
0
LINE
8
BLACK
6
CONTINUOUS
10
2.71094
20
-9.62298
11
2.71656
21
-9.64547
0
LINE
8
BLACK
6
CONTINUOUS
10
2.71656
20
-9.64547
11
2.71656
21
-9.67359
0
LINE
8
BLACK
6
CONTINUOUS
10
2.71656
20
-9.67359
11
2.71094
21
-9.69609
0
LINE
8
BLACK
6
CONTINUOUS
10
2.71094
20
-9.69609
11
2.70531
21
-9.70734
0
LINE
8
BLACK
6
CONTINUOUS
10
2.70531
20
-9.70734
11
2.69969
21
-9.71296
0
LINE
8
BLACK
6
CONTINUOUS
10
2.69969
20
-9.71296
11
2.68844
21
-9.71859
0
LINE
8
BLACK
6
CONTINUOUS
10
2.68844
20
-9.71859
11
2.67719
21
-9.71859
0
LINE
8
BLACK
6
CONTINUOUS
10
2.67719
20
-9.71859
11
2.66594
21
-9.71296
0
LINE
8
BLACK
6
CONTINUOUS
10
2.66594
20
-9.71296
11
2.66032
21
-9.70734
0
LINE
8
BLACK
6
CONTINUOUS
10
2.66032
20
-9.70734
11
2.6547
21
-9.69609
0
LINE
8
BLACK
6
CONTINUOUS
10
2.6547
20
-9.69609
11
2.64907
21
-9.67359
0
LINE
8
BLACK
6
CONTINUOUS
10
2.64907
20
-9.67359
11
2.64907
21
-9.64547
0
LINE
8
BLACK
6
CONTINUOUS
10
2.64907
20
-9.64547
11
2.6547
21
-9.62298
0
LINE
8
BLACK
6
CONTINUOUS
10
2.6547
20
-9.62298
11
2.66032
21
-9.61173
0
LINE
8
BLACK
6
CONTINUOUS
10
2.66032
20
-9.61173
11
2.66594
21
-9.6061
0
LINE
8
BLACK
6
CONTINUOUS
10
2.66594
20
-9.6061
11
2.67719
21
-9.60048
0
LINE
8
BLACK
6
CONTINUOUS
10
2.76718
20
-9.71859
11
2.76718
21
-9.63985
0
LINE
8
BLACK
6
CONTINUOUS
10
2.76718
20
-9.6511
11
2.77281
21
-9.64547
0
LINE
8
BLACK
6
CONTINUOUS
10
2.77281
20
-9.64547
11
2.78406
21
-9.63985
0
LINE
8
BLACK
6
CONTINUOUS
10
2.78406
20
-9.63985
11
2.80093
21
-9.63985
0
LINE
8
BLACK
6
CONTINUOUS
10
2.80093
20
-9.63985
11
2.81218
21
-9.64547
0
LINE
8
BLACK
6
CONTINUOUS
10
2.81218
20
-9.64547
11
2.8178
21
-9.65672
0
LINE
8
BLACK
6
CONTINUOUS
10
2.8178
20
-9.65672
11
2.8178
21
-9.71859
0
LINE
8
BLACK
6
CONTINUOUS
10
2.8178
20
-9.65672
11
2.82343
21
-9.64547
0
LINE
8
BLACK
6
CONTINUOUS
10
2.82343
20
-9.64547
11
2.83467
21
-9.63985
0
LINE
8
BLACK
6
CONTINUOUS
10
2.83467
20
-9.63985
11
2.85155
21
-9.63985
0
LINE
8
BLACK
6
CONTINUOUS
10
2.85155
20
-9.63985
11
2.8628
21
-9.64547
0
LINE
8
BLACK
6
CONTINUOUS
10
2.8628
20
-9.64547
11
2.86842
21
-9.65672
0
LINE
8
BLACK
6
CONTINUOUS
10
2.86842
20
-9.65672
11
2.86842
21
-9.71859
0
LINE
8
BLACK
6
CONTINUOUS
10
2.92466
20
-9.71859
11
2.92466
21
-9.63985
0
LINE
8
BLACK
6
CONTINUOUS
10
2.92466
20
-9.6511
11
2.93029
21
-9.64547
0
LINE
8
BLACK
6
CONTINUOUS
10
2.93029
20
-9.64547
11
2.94154
21
-9.63985
0
LINE
8
BLACK
6
CONTINUOUS
10
2.94154
20
-9.63985
11
2.95841
21
-9.63985
0
LINE
8
BLACK
6
CONTINUOUS
10
2.95841
20
-9.63985
11
2.96966
21
-9.64547
0
LINE
8
BLACK
6
CONTINUOUS
10
2.96966
20
-9.64547
11
2.97528
21
-9.65672
0
LINE
8
BLACK
6
CONTINUOUS
10
2.97528
20
-9.65672
11
2.97528
21
-9.71859
0
LINE
8
BLACK
6
CONTINUOUS
10
2.97528
20
-9.65672
11
2.98091
21
-9.64547
0
LINE
8
BLACK
6
CONTINUOUS
10
2.98091
20
-9.64547
11
2.99215
21
-9.63985
0
LINE
8
BLACK
6
CONTINUOUS
10
2.99215
20
-9.63985
11
3.00903
21
-9.63985
0
LINE
8
BLACK
6
CONTINUOUS
10
3.00903
20
-9.63985
11
3.02028
21
-9.64547
0
LINE
8
BLACK
6
CONTINUOUS
10
3.02028
20
-9.64547
11
3.0259
21
-9.65672
0
LINE
8
BLACK
6
CONTINUOUS
10
3.0259
20
-9.65672
11
3.0259
21
-9.71859
0
LINE
8
BLACK
6
CONTINUOUS
10
3.2565
20
-9.59485
11
3.15526
21
-9.74671
0
LINE
8
BLACK
6
CONTINUOUS
10
3.40835
20
-9.60048
11
3.4196
21
-9.60048
0
LINE
8
BLACK
6
CONTINUOUS
10
3.4196
20
-9.60048
11
3.43085
21
-9.6061
0
LINE
8
BLACK
6
CONTINUOUS
10
3.43085
20
-9.6061
11
3.43647
21
-9.61173
0
LINE
8
BLACK
6
CONTINUOUS
10
3.43647
20
-9.61173
11
3.4421
21
-9.62298
0
LINE
8
BLACK
6
CONTINUOUS
10
3.4421
20
-9.62298
11
3.44772
21
-9.64547
0
LINE
8
BLACK
6
CONTINUOUS
10
3.44772
20
-9.64547
11
3.44772
21
-9.67359
0
LINE
8
BLACK
6
CONTINUOUS
10
3.44772
20
-9.67359
11
3.4421
21
-9.69609
0
LINE
8
BLACK
6
CONTINUOUS
10
3.4421
20
-9.69609
11
3.43647
21
-9.70734
0
LINE
8
BLACK
6
CONTINUOUS
10
3.43647
20
-9.70734
11
3.43085
21
-9.71296
0
LINE
8
BLACK
6
CONTINUOUS
10
3.43085
20
-9.71296
11
3.4196
21
-9.71859
0
LINE
8
BLACK
6
CONTINUOUS
10
3.4196
20
-9.71859
11
3.40835
21
-9.71859
0
LINE
8
BLACK
6
CONTINUOUS
10
3.40835
20
-9.71859
11
3.3971
21
-9.71296
0
LINE
8
BLACK
6
CONTINUOUS
10
3.3971
20
-9.71296
11
3.39148
21
-9.70734
0
LINE
8
BLACK
6
CONTINUOUS
10
3.39148
20
-9.70734
11
3.38585
21
-9.69609
0
LINE
8
BLACK
6
CONTINUOUS
10
3.38585
20
-9.69609
11
3.38023
21
-9.67359
0
LINE
8
BLACK
6
CONTINUOUS
10
3.38023
20
-9.67359
11
3.38023
21
-9.64547
0
LINE
8
BLACK
6
CONTINUOUS
10
3.38023
20
-9.64547
11
3.38585
21
-9.62298
0
LINE
8
BLACK
6
CONTINUOUS
10
3.38585
20
-9.62298
11
3.39148
21
-9.61173
0
LINE
8
BLACK
6
CONTINUOUS
10
3.39148
20
-9.61173
11
3.3971
21
-9.6061
0
LINE
8
BLACK
6
CONTINUOUS
10
3.3971
20
-9.6061
11
3.40835
21
-9.60048
0
LINE
8
BLACK
6
CONTINUOUS
10
3.49834
20
-9.70734
11
3.50397
21
-9.71296
0
LINE
8
BLACK
6
CONTINUOUS
10
3.50397
20
-9.71296
11
3.49834
21
-9.71859
0
LINE
8
BLACK
6
CONTINUOUS
10
3.49834
20
-9.71859
11
3.49272
21
-9.71296
0
LINE
8
BLACK
6
CONTINUOUS
10
3.49272
20
-9.71296
11
3.49834
21
-9.70734
0
LINE
8
BLACK
6
CONTINUOUS
10
3.49834
20
-9.70734
11
3.49834
21
-9.71859
0
LINE
8
BLACK
6
CONTINUOUS
10
3.61645
20
-9.71859
11
3.54896
21
-9.71859
0
LINE
8
BLACK
6
CONTINUOUS
10
3.58271
20
-9.71859
11
3.58271
21
-9.60048
0
LINE
8
BLACK
6
CONTINUOUS
10
3.58271
20
-9.60048
11
3.57146
21
-9.61735
0
LINE
8
BLACK
6
CONTINUOUS
10
3.57146
20
-9.61735
11
3.56021
21
-9.6286
0
LINE
8
BLACK
6
CONTINUOUS
10
3.56021
20
-9.6286
11
3.54896
21
-9.63422
0
LINE
8
BLACK
6
CONTINUOUS
10
3.66145
20
-9.61173
11
3.66707
21
-9.6061
0
LINE
8
BLACK
6
CONTINUOUS
10
3.66707
20
-9.6061
11
3.67832
21
-9.60048
0
LINE
8
BLACK
6
CONTINUOUS
10
3.67832
20
-9.60048
11
3.70644
21
-9.60048
0
LINE
8
BLACK
6
CONTINUOUS
10
3.70644
20
-9.60048
11
3.71769
21
-9.6061
0
LINE
8
BLACK
6
CONTINUOUS
10
3.71769
20
-9.6061
11
3.72331
21
-9.61173
0
LINE
8
BLACK
6
CONTINUOUS
10
3.72331
20
-9.61173
11
3.72894
21
-9.62298
0
LINE
8
BLACK
6
CONTINUOUS
10
3.72894
20
-9.62298
11
3.72894
21
-9.63422
0
LINE
8
BLACK
6
CONTINUOUS
10
3.72894
20
-9.63422
11
3.72331
21
-9.6511
0
LINE
8
BLACK
6
CONTINUOUS
10
3.72331
20
-9.6511
11
3.65582
21
-9.71859
0
LINE
8
BLACK
6
CONTINUOUS
10
3.65582
20
-9.71859
11
3.72894
21
-9.71859
0
LINE
8
BLACK
6
CONTINUOUS
10
3.83017
20
-9.60048
11
3.80768
21
-9.60048
0
LINE
8
BLACK
6
CONTINUOUS
10
3.80768
20
-9.60048
11
3.79643
21
-9.6061
0
LINE
8
BLACK
6
CONTINUOUS
10
3.79643
20
-9.6061
11
3.7908
21
-9.61173
0
LINE
8
BLACK
6
CONTINUOUS
10
3.7908
20
-9.61173
11
3.77956
21
-9.6286
0
LINE
8
BLACK
6
CONTINUOUS
10
3.77956
20
-9.6286
11
3.77393
21
-9.6511
0
LINE
8
BLACK
6
CONTINUOUS
10
3.77393
20
-9.6511
11
3.77393
21
-9.69609
0
LINE
8
BLACK
6
CONTINUOUS
10
3.77393
20
-9.69609
11
3.77956
21
-9.70734
0
LINE
8
BLACK
6
CONTINUOUS
10
3.77956
20
-9.70734
11
3.78518
21
-9.71296
0
LINE
8
BLACK
6
CONTINUOUS
10
3.78518
20
-9.71296
11
3.79643
21
-9.71859
0
LINE
8
BLACK
6
CONTINUOUS
10
3.79643
20
-9.71859
11
3.81893
21
-9.71859
0
LINE
8
BLACK
6
CONTINUOUS
10
3.81893
20
-9.71859
11
3.83017
21
-9.71296
0
LINE
8
BLACK
6
CONTINUOUS
10
3.83017
20
-9.71296
11
3.8358
21
-9.70734
0
LINE
8
BLACK
6
CONTINUOUS
10
3.8358
20
-9.70734
11
3.84142
21
-9.69609
0
LINE
8
BLACK
6
CONTINUOUS
10
3.84142
20
-9.69609
11
3.84142
21
-9.66797
0
LINE
8
BLACK
6
CONTINUOUS
10
3.84142
20
-9.66797
11
3.8358
21
-9.65672
0
LINE
8
BLACK
6
CONTINUOUS
10
3.8358
20
-9.65672
11
3.83017
21
-9.6511
0
LINE
8
BLACK
6
CONTINUOUS
10
3.83017
20
-9.6511
11
3.81893
21
-9.64547
0
LINE
8
BLACK
6
CONTINUOUS
10
3.81893
20
-9.64547
11
3.79643
21
-9.64547
0
LINE
8
BLACK
6
CONTINUOUS
10
3.79643
20
-9.64547
11
3.78518
21
-9.6511
0
LINE
8
BLACK
6
CONTINUOUS
10
3.78518
20
-9.6511
11
3.77956
21
-9.65672
0
LINE
8
BLACK
6
CONTINUOUS
10
3.77956
20
-9.65672
11
3.77393
21
-9.66797
0
LINE
8
BLACK
6
CONTINUOUS
10
3.91454
20
-9.60048
11
3.92579
21
-9.60048
0
LINE
8
BLACK
6
CONTINUOUS
10
3.92579
20
-9.60048
11
3.93704
21
-9.6061
0
LINE
8
BLACK
6
CONTINUOUS
10
3.93704
20
-9.6061
11
3.94266
21
-9.61173
0
LINE
8
BLACK
6
CONTINUOUS
10
3.94266
20
-9.61173
11
3.94828
21
-9.62298
0
LINE
8
BLACK
6
CONTINUOUS
10
3.94828
20
-9.62298
11
3.95391
21
-9.64547
0
LINE
8
BLACK
6
CONTINUOUS
10
3.95391
20
-9.64547
11
3.95391
21
-9.67359
0
LINE
8
BLACK
6
CONTINUOUS
10
3.95391
20
-9.67359
11
3.94828
21
-9.69609
0
LINE
8
BLACK
6
CONTINUOUS
10
3.94828
20
-9.69609
11
3.94266
21
-9.70734
0
LINE
8
BLACK
6
CONTINUOUS
10
3.94266
20
-9.70734
11
3.93704
21
-9.71296
0
LINE
8
BLACK
6
CONTINUOUS
10
3.93704
20
-9.71296
11
3.92579
21
-9.71859
0
LINE
8
BLACK
6
CONTINUOUS
10
3.92579
20
-9.71859
11
3.91454
21
-9.71859
0
LINE
8
BLACK
6
CONTINUOUS
10
3.91454
20
-9.71859
11
3.90329
21
-9.71296
0
LINE
8
BLACK
6
CONTINUOUS
10
3.90329
20
-9.71296
11
3.89767
21
-9.70734
0
LINE
8
BLACK
6
CONTINUOUS
10
3.89767
20
-9.70734
11
3.89204
21
-9.69609
0
LINE
8
BLACK
6
CONTINUOUS
10
3.89204
20
-9.69609
11
3.88642
21
-9.67359
0
LINE
8
BLACK
6
CONTINUOUS
10
3.88642
20
-9.67359
11
3.88642
21
-9.64547
0
LINE
8
BLACK
6
CONTINUOUS
10
3.88642
20
-9.64547
11
3.89204
21
-9.62298
0
LINE
8
BLACK
6
CONTINUOUS
10
3.89204
20
-9.62298
11
3.89767
21
-9.61173
0
LINE
8
BLACK
6
CONTINUOUS
10
3.89767
20
-9.61173
11
3.90329
21
-9.6061
0
LINE
8
BLACK
6
CONTINUOUS
10
3.90329
20
-9.6061
11
3.91454
21
-9.60048
0
LINE
8
BLACK
6
CONTINUOUS
10
3.9989
20
-9.60048
11
3.9989
21
-9.62298
0
LINE
8
BLACK
6
CONTINUOUS
10
4.0439
20
-9.60048
11
4.0439
21
-9.62298
0
LINE
8
BLACK
6
CONTINUOUS
10
4.21825
20
-9.76358
11
4.21263
21
-9.75796
0
LINE
8
BLACK
6
CONTINUOUS
10
4.21263
20
-9.75796
11
4.20138
21
-9.74109
0
LINE
8
BLACK
6
CONTINUOUS
10
4.20138
20
-9.74109
11
4.19575
21
-9.72984
0
LINE
8
BLACK
6
CONTINUOUS
10
4.19575
20
-9.72984
11
4.19013
21
-9.71296
0
LINE
8
BLACK
6
CONTINUOUS
10
4.19013
20
-9.71296
11
4.1845
21
-9.68484
0
LINE
8
BLACK
6
CONTINUOUS
10
4.1845
20
-9.68484
11
4.1845
21
-9.66235
0
LINE
8
BLACK
6
CONTINUOUS
10
4.1845
20
-9.66235
11
4.19013
21
-9.63422
0
LINE
8
BLACK
6
CONTINUOUS
10
4.19013
20
-9.63422
11
4.19575
21
-9.61735
0
LINE
8
BLACK
6
CONTINUOUS
10
4.19575
20
-9.61735
11
4.20138
21
-9.6061
0
LINE
8
BLACK
6
CONTINUOUS
10
4.20138
20
-9.6061
11
4.21263
21
-9.58923
0
LINE
8
BLACK
6
CONTINUOUS
10
4.21263
20
-9.58923
11
4.21825
21
-9.58361
0
LINE
8
BLACK
6
CONTINUOUS
10
4.31386
20
-9.63985
11
4.31386
21
-9.71859
0
LINE
8
BLACK
6
CONTINUOUS
10
4.28574
20
-9.59485
11
4.25762
21
-9.67922
0
LINE
8
BLACK
6
CONTINUOUS
10
4.25762
20
-9.67922
11
4.33074
21
-9.67922
0
LINE
8
BLACK
6
CONTINUOUS
10
4.46572
20
-9.71859
11
4.46572
21
-9.60048
0
LINE
8
BLACK
6
CONTINUOUS
10
4.51634
20
-9.71859
11
4.51634
21
-9.65672
0
LINE
8
BLACK
6
CONTINUOUS
10
4.51634
20
-9.65672
11
4.51071
21
-9.64547
0
LINE
8
BLACK
6
CONTINUOUS
10
4.51071
20
-9.64547
11
4.49947
21
-9.63985
0
LINE
8
BLACK
6
CONTINUOUS
10
4.49947
20
-9.63985
11
4.48259
21
-9.63985
0
LINE
8
BLACK
6
CONTINUOUS
10
4.48259
20
-9.63985
11
4.47134
21
-9.64547
0
LINE
8
BLACK
6
CONTINUOUS
10
4.47134
20
-9.64547
11
4.46572
21
-9.6511
0
LINE
8
BLACK
6
CONTINUOUS
10
4.58945
20
-9.71859
11
4.57821
21
-9.71296
0
LINE
8
BLACK
6
CONTINUOUS
10
4.57821
20
-9.71296
11
4.57258
21
-9.70734
0
LINE
8
BLACK
6
CONTINUOUS
10
4.57258
20
-9.70734
11
4.56696
21
-9.69609
0
LINE
8
BLACK
6
CONTINUOUS
10
4.56696
20
-9.69609
11
4.56696
21
-9.66235
0
LINE
8
BLACK
6
CONTINUOUS
10
4.56696
20
-9.66235
11
4.57258
21
-9.6511
0
LINE
8
BLACK
6
CONTINUOUS
10
4.57258
20
-9.6511
11
4.57821
21
-9.64547
0
LINE
8
BLACK
6
CONTINUOUS
10
4.57821
20
-9.64547
11
4.58945
21
-9.63985
0
LINE
8
BLACK
6
CONTINUOUS
10
4.58945
20
-9.63985
11
4.60633
21
-9.63985
0
LINE
8
BLACK
6
CONTINUOUS
10
4.60633
20
-9.63985
11
4.61758
21
-9.64547
0
LINE
8
BLACK
6
CONTINUOUS
10
4.61758
20
-9.64547
11
4.6232
21
-9.6511
0
LINE
8
BLACK
6
CONTINUOUS
10
4.6232
20
-9.6511
11
4.62882
21
-9.66235
0
LINE
8
BLACK
6
CONTINUOUS
10
4.62882
20
-9.66235
11
4.62882
21
-9.69609
0
LINE
8
BLACK
6
CONTINUOUS
10
4.62882
20
-9.69609
11
4.6232
21
-9.70734
0
LINE
8
BLACK
6
CONTINUOUS
10
4.6232
20
-9.70734
11
4.61758
21
-9.71296
0
LINE
8
BLACK
6
CONTINUOUS
10
4.61758
20
-9.71296
11
4.60633
21
-9.71859
0
LINE
8
BLACK
6
CONTINUOUS
10
4.60633
20
-9.71859
11
4.58945
21
-9.71859
0
LINE
8
BLACK
6
CONTINUOUS
10
4.69632
20
-9.71859
11
4.68507
21
-9.71296
0
LINE
8
BLACK
6
CONTINUOUS
10
4.68507
20
-9.71296
11
4.67944
21
-9.70172
0
LINE
8
BLACK
6
CONTINUOUS
10
4.67944
20
-9.70172
11
4.67944
21
-9.60048
0
LINE
8
BLACK
6
CONTINUOUS
10
4.7863
20
-9.71296
11
4.77506
21
-9.71859
0
LINE
8
BLACK
6
CONTINUOUS
10
4.77506
20
-9.71859
11
4.75256
21
-9.71859
0
LINE
8
BLACK
6
CONTINUOUS
10
4.75256
20
-9.71859
11
4.74131
21
-9.71296
0
LINE
8
BLACK
6
CONTINUOUS
10
4.74131
20
-9.71296
11
4.73569
21
-9.70172
0
LINE
8
BLACK
6
CONTINUOUS
10
4.73569
20
-9.70172
11
4.73569
21
-9.65672
0
LINE
8
BLACK
6
CONTINUOUS
10
4.73569
20
-9.65672
11
4.74131
21
-9.64547
0
LINE
8
BLACK
6
CONTINUOUS
10
4.74131
20
-9.64547
11
4.75256
21
-9.63985
0
LINE
8
BLACK
6
CONTINUOUS
10
4.75256
20
-9.63985
11
4.77506
21
-9.63985
0
LINE
8
BLACK
6
CONTINUOUS
10
4.77506
20
-9.63985
11
4.7863
21
-9.64547
0
LINE
8
BLACK
6
CONTINUOUS
10
4.7863
20
-9.64547
11
4.79193
21
-9.65672
0
LINE
8
BLACK
6
CONTINUOUS
10
4.79193
20
-9.65672
11
4.79193
21
-9.66797
0
LINE
8
BLACK
6
CONTINUOUS
10
4.79193
20
-9.66797
11
4.73569
21
-9.67922
0
LINE
8
BLACK
6
CONTINUOUS
10
4.83692
20
-9.71296
11
4.84817
21
-9.71859
0
LINE
8
BLACK
6
CONTINUOUS
10
4.84817
20
-9.71859
11
4.87067
21
-9.71859
0
LINE
8
BLACK
6
CONTINUOUS
10
4.87067
20
-9.71859
11
4.88192
21
-9.71296
0
LINE
8
BLACK
6
CONTINUOUS
10
4.88192
20
-9.71296
11
4.88754
21
-9.70172
0
LINE
8
BLACK
6
CONTINUOUS
10
4.88754
20
-9.70172
11
4.88754
21
-9.69609
0
LINE
8
BLACK
6
CONTINUOUS
10
4.88754
20
-9.69609
11
4.88192
21
-9.68484
0
LINE
8
BLACK
6
CONTINUOUS
10
4.88192
20
-9.68484
11
4.87067
21
-9.67922
0
LINE
8
BLACK
6
CONTINUOUS
10
4.87067
20
-9.67922
11
4.8538
21
-9.67922
0
LINE
8
BLACK
6
CONTINUOUS
10
4.8538
20
-9.67922
11
4.84255
21
-9.67359
0
LINE
8
BLACK
6
CONTINUOUS
10
4.84255
20
-9.67359
11
4.83692
21
-9.66235
0
LINE
8
BLACK
6
CONTINUOUS
10
4.83692
20
-9.66235
11
4.83692
21
-9.65672
0
LINE
8
BLACK
6
CONTINUOUS
10
4.83692
20
-9.65672
11
4.84255
21
-9.64547
0
LINE
8
BLACK
6
CONTINUOUS
10
4.84255
20
-9.64547
11
4.8538
21
-9.63985
0
LINE
8
BLACK
6
CONTINUOUS
10
4.8538
20
-9.63985
11
4.87067
21
-9.63985
0
LINE
8
BLACK
6
CONTINUOUS
10
4.87067
20
-9.63985
11
4.88192
21
-9.64547
0
LINE
8
BLACK
6
CONTINUOUS
10
4.92691
20
-9.76358
11
4.93254
21
-9.75796
0
LINE
8
BLACK
6
CONTINUOUS
10
4.93254
20
-9.75796
11
4.94379
21
-9.74109
0
LINE
8
BLACK
6
CONTINUOUS
10
4.94379
20
-9.74109
11
4.94941
21
-9.72984
0
LINE
8
BLACK
6
CONTINUOUS
10
4.94941
20
-9.72984
11
4.95503
21
-9.71296
0
LINE
8
BLACK
6
CONTINUOUS
10
4.95503
20
-9.71296
11
4.96066
21
-9.68484
0
LINE
8
BLACK
6
CONTINUOUS
10
4.96066
20
-9.68484
11
4.96066
21
-9.66235
0
LINE
8
BLACK
6
CONTINUOUS
10
4.96066
20
-9.66235
11
4.95503
21
-9.63422
0
LINE
8
BLACK
6
CONTINUOUS
10
4.95503
20
-9.63422
11
4.94941
21
-9.61735
0
LINE
8
BLACK
6
CONTINUOUS
10
4.94941
20
-9.61735
11
4.94379
21
-9.6061
0
LINE
8
BLACK
6
CONTINUOUS
10
4.94379
20
-9.6061
11
4.93254
21
-9.58923
0
LINE
8
BLACK
6
CONTINUOUS
10
4.93254
20
-9.58923
11
4.92691
21
-9.58361
  0
ENDSEC
  0
EOF
