%TF.GenerationSoftware,KiCad,Pcbnew,(5.1.10-1-10_14)*%
%TF.CreationDate,2022-02-02T20:10:15+11:00*%
%TF.ProjectId,Buffer,42756666-6572-42e6-9b69-6361645f7063,rev?*%
%TF.SameCoordinates,Original*%
%TF.FileFunction,Soldermask,Bot*%
%TF.FilePolarity,Negative*%
%FSLAX46Y46*%
G04 Gerber Fmt 4.6, Leading zero omitted, Abs format (unit mm)*
G04 Created by KiCad (PCBNEW (5.1.10-1-10_14)) date 2022-02-02 20:10:15*
%MOMM*%
%LPD*%
G01*
G04 APERTURE LIST*
%ADD10C,1.700000*%
%ADD11C,2.000000*%
%ADD12O,2.400000X2.400000*%
%ADD13R,2.400000X2.400000*%
%ADD14O,1.600000X1.600000*%
%ADD15C,1.600000*%
%ADD16O,2.400000X1.600000*%
%ADD17R,2.400000X1.600000*%
%ADD18C,5.000000*%
%ADD19R,2.540000X10.000000*%
G04 APERTURE END LIST*
D10*
%TO.C,J5*%
X65650000Y-121050000D03*
X65650000Y-123590000D03*
X65650000Y-126130000D03*
X65650000Y-128670000D03*
X65650000Y-131210000D03*
X65650000Y-133750000D03*
X65650000Y-136290000D03*
X65650000Y-138830000D03*
X65650000Y-141370000D03*
X65650000Y-143910000D03*
X65650000Y-146450000D03*
X65650000Y-148990000D03*
X65650000Y-151530000D03*
X68190000Y-121050000D03*
X68190000Y-123590000D03*
X68190000Y-126130000D03*
X68190000Y-128670000D03*
X68190000Y-131210000D03*
X68190000Y-133750000D03*
X68190000Y-136290000D03*
X68190000Y-138830000D03*
X68190000Y-141370000D03*
X68190000Y-143910000D03*
X68190000Y-146450000D03*
X68190000Y-148990000D03*
G36*
G01*
X69040000Y-150930000D02*
X69040000Y-152130000D01*
G75*
G02*
X68790000Y-152380000I-250000J0D01*
G01*
X67590000Y-152380000D01*
G75*
G02*
X67340000Y-152130000I0J250000D01*
G01*
X67340000Y-150930000D01*
G75*
G02*
X67590000Y-150680000I250000J0D01*
G01*
X68790000Y-150680000D01*
G75*
G02*
X69040000Y-150930000I0J-250000D01*
G01*
G37*
%TD*%
D11*
%TO.C,C4*%
X270990000Y-93830000D03*
X265990000Y-93830000D03*
%TD*%
%TO.C,C3*%
X271590000Y-165930000D03*
X266590000Y-165930000D03*
%TD*%
%TO.C,C2*%
X100790000Y-146330000D03*
X108290000Y-146330000D03*
%TD*%
%TO.C,C1*%
X115590000Y-117130000D03*
X108090000Y-117130000D03*
%TD*%
D12*
%TO.C,C5*%
X82190000Y-93830000D03*
D13*
X108190000Y-93830000D03*
%TD*%
D14*
%TO.C,R26*%
X218090000Y-146290000D03*
D15*
X218090000Y-161530000D03*
%TD*%
D16*
%TO.C,U1*%
X167210000Y-96910000D03*
X159590000Y-112150000D03*
X167210000Y-99450000D03*
X159590000Y-109610000D03*
X167210000Y-101990000D03*
X159590000Y-107070000D03*
X167210000Y-104530000D03*
X159590000Y-104530000D03*
X167210000Y-107070000D03*
X159590000Y-101990000D03*
X167210000Y-109610000D03*
X159590000Y-99450000D03*
X167210000Y-112150000D03*
D17*
X159590000Y-96910000D03*
%TD*%
D14*
%TO.C,R23*%
X193090000Y-161530000D03*
D15*
X193090000Y-146290000D03*
%TD*%
D14*
%TO.C,R24*%
X188590000Y-146290000D03*
D15*
X188590000Y-161530000D03*
%TD*%
D14*
%TO.C,R25*%
X184090000Y-146290000D03*
D15*
X184090000Y-161530000D03*
%TD*%
D14*
%TO.C,R27*%
X210590000Y-146290000D03*
D15*
X210590000Y-161530000D03*
%TD*%
D16*
%TO.C,J3*%
X130210000Y-96910000D03*
X122590000Y-114690000D03*
X130210000Y-99450000D03*
X122590000Y-112150000D03*
X130210000Y-101990000D03*
X122590000Y-109610000D03*
X130210000Y-104530000D03*
X122590000Y-107070000D03*
X130210000Y-107070000D03*
X122590000Y-104530000D03*
X130210000Y-109610000D03*
X122590000Y-101990000D03*
X130210000Y-112150000D03*
X122590000Y-99450000D03*
X130210000Y-114690000D03*
D17*
X122590000Y-96910000D03*
%TD*%
D16*
%TO.C,U7*%
X240210000Y-151530000D03*
X232590000Y-166770000D03*
X240210000Y-154070000D03*
X232590000Y-164230000D03*
X240210000Y-156610000D03*
X232590000Y-161690000D03*
X240210000Y-159150000D03*
X232590000Y-159150000D03*
X240210000Y-161690000D03*
X232590000Y-156610000D03*
X240210000Y-164230000D03*
X232590000Y-154070000D03*
X240210000Y-166770000D03*
D17*
X232590000Y-151530000D03*
%TD*%
D16*
%TO.C,U4*%
X130210000Y-151530000D03*
X122590000Y-166770000D03*
X130210000Y-154070000D03*
X122590000Y-164230000D03*
X130210000Y-156610000D03*
X122590000Y-161690000D03*
X130210000Y-159150000D03*
X122590000Y-159150000D03*
X130210000Y-161690000D03*
X122590000Y-156610000D03*
X130210000Y-164230000D03*
X122590000Y-154070000D03*
X130210000Y-166770000D03*
D17*
X122590000Y-151530000D03*
%TD*%
D16*
%TO.C,U6*%
X205210000Y-151530000D03*
X197590000Y-166770000D03*
X205210000Y-154070000D03*
X197590000Y-164230000D03*
X205210000Y-156610000D03*
X197590000Y-161690000D03*
X205210000Y-159150000D03*
X197590000Y-159150000D03*
X205210000Y-161690000D03*
X197590000Y-156610000D03*
X205210000Y-164230000D03*
X197590000Y-154070000D03*
X205210000Y-166770000D03*
D17*
X197590000Y-151530000D03*
%TD*%
D16*
%TO.C,U5*%
X167210000Y-151530000D03*
X159590000Y-166770000D03*
X167210000Y-154070000D03*
X159590000Y-164230000D03*
X167210000Y-156610000D03*
X159590000Y-161690000D03*
X167210000Y-159150000D03*
X159590000Y-159150000D03*
X167210000Y-161690000D03*
X159590000Y-156610000D03*
X167210000Y-164230000D03*
X159590000Y-154070000D03*
X167210000Y-166770000D03*
D17*
X159590000Y-151530000D03*
%TD*%
D16*
%TO.C,U3*%
X240210000Y-96910000D03*
X232590000Y-112150000D03*
X240210000Y-99450000D03*
X232590000Y-109610000D03*
X240210000Y-101990000D03*
X232590000Y-107070000D03*
X240210000Y-104530000D03*
X232590000Y-104530000D03*
X240210000Y-107070000D03*
X232590000Y-101990000D03*
X240210000Y-109610000D03*
X232590000Y-99450000D03*
X240210000Y-112150000D03*
D17*
X232590000Y-96910000D03*
%TD*%
D16*
%TO.C,U2*%
X205210000Y-96910000D03*
X197590000Y-112150000D03*
X205210000Y-99450000D03*
X197590000Y-109610000D03*
X205210000Y-101990000D03*
X197590000Y-107070000D03*
X205210000Y-104530000D03*
X197590000Y-104530000D03*
X205210000Y-107070000D03*
X197590000Y-101990000D03*
X205210000Y-109610000D03*
X197590000Y-99450000D03*
X205210000Y-112150000D03*
D17*
X197590000Y-96910000D03*
%TD*%
D18*
%TO.C,H2*%
X179590000Y-63030000D03*
X269590000Y-63030000D03*
%TD*%
%TO.C,H1*%
X59590000Y-63030000D03*
X149590000Y-63030000D03*
%TD*%
D10*
%TO.C,J4*%
X263130000Y-151510000D03*
X263130000Y-148970000D03*
X263130000Y-146430000D03*
X263130000Y-143890000D03*
X263130000Y-141350000D03*
X263130000Y-138810000D03*
X263130000Y-136270000D03*
X263130000Y-133730000D03*
X263130000Y-131190000D03*
X263130000Y-128650000D03*
X263130000Y-126110000D03*
X263130000Y-123570000D03*
X263130000Y-121030000D03*
X260590000Y-151510000D03*
X260590000Y-148970000D03*
X260590000Y-146430000D03*
X260590000Y-143890000D03*
X260590000Y-141350000D03*
X260590000Y-138810000D03*
X260590000Y-136270000D03*
X260590000Y-133730000D03*
X260590000Y-131190000D03*
X260590000Y-128650000D03*
X260590000Y-126110000D03*
X260590000Y-123570000D03*
G36*
G01*
X259740000Y-121630000D02*
X259740000Y-120430000D01*
G75*
G02*
X259990000Y-120180000I250000J0D01*
G01*
X261190000Y-120180000D01*
G75*
G02*
X261440000Y-120430000I0J-250000D01*
G01*
X261440000Y-121630000D01*
G75*
G02*
X261190000Y-121880000I-250000J0D01*
G01*
X259990000Y-121880000D01*
G75*
G02*
X259740000Y-121630000I0J250000D01*
G01*
G37*
%TD*%
D19*
%TO.C,J2*%
X58564000Y-214100000D03*
X62526400Y-214100000D03*
X66488800Y-214100000D03*
X70451200Y-214100000D03*
X74413600Y-214100000D03*
X78376000Y-214100000D03*
X82338400Y-214100000D03*
X86300800Y-214100000D03*
X90263200Y-214100000D03*
X94225600Y-214100000D03*
X98188000Y-214100000D03*
X102150400Y-214100000D03*
X106112800Y-214100000D03*
X110075200Y-214100000D03*
X114037600Y-214100000D03*
X118000000Y-214100000D03*
%TD*%
%TO.C,J1*%
X210987200Y-214058000D03*
X214949600Y-214058000D03*
X218912000Y-214058000D03*
X222874400Y-214058000D03*
X226836800Y-214058000D03*
X230799200Y-214058000D03*
X234761600Y-214058000D03*
X238724000Y-214058000D03*
X242686400Y-214058000D03*
X246648800Y-214058000D03*
X250611200Y-214058000D03*
X254573600Y-214058000D03*
X258536000Y-214058000D03*
X262498400Y-214058000D03*
X266460800Y-214058000D03*
X270423200Y-214058000D03*
%TD*%
M02*
