%TF.GenerationSoftware,KiCad,Pcbnew,(5.1.10-1-10_14)*%
%TF.CreationDate,2022-02-02T20:10:15+11:00*%
%TF.ProjectId,Buffer,42756666-6572-42e6-9b69-6361645f7063,rev?*%
%TF.SameCoordinates,Original*%
%TF.FileFunction,Legend,Top*%
%TF.FilePolarity,Positive*%
%FSLAX46Y46*%
G04 Gerber Fmt 4.6, Leading zero omitted, Abs format (unit mm)*
G04 Created by KiCad (PCBNEW (5.1.10-1-10_14)) date 2022-02-02 20:10:15*
%MOMM*%
%LPD*%
G01*
G04 APERTURE LIST*
%ADD10C,0.150000*%
%ADD11C,0.120000*%
%ADD12C,0.300000*%
%ADD13C,0.240000*%
G04 APERTURE END LIST*
D10*
X88428095Y-150930000D02*
X88332857Y-150882380D01*
X88190000Y-150882380D01*
X88047142Y-150930000D01*
X87951904Y-151025238D01*
X87904285Y-151120476D01*
X87856666Y-151310952D01*
X87856666Y-151453809D01*
X87904285Y-151644285D01*
X87951904Y-151739523D01*
X88047142Y-151834761D01*
X88190000Y-151882380D01*
X88285238Y-151882380D01*
X88428095Y-151834761D01*
X88475714Y-151787142D01*
X88475714Y-151453809D01*
X88285238Y-151453809D01*
X88904285Y-151882380D02*
X88904285Y-150882380D01*
X89475714Y-151882380D01*
X89475714Y-150882380D01*
X89951904Y-151882380D02*
X89951904Y-150882380D01*
X90190000Y-150882380D01*
X90332857Y-150930000D01*
X90428095Y-151025238D01*
X90475714Y-151120476D01*
X90523333Y-151310952D01*
X90523333Y-151453809D01*
X90475714Y-151644285D01*
X90428095Y-151739523D01*
X90332857Y-151834761D01*
X90190000Y-151882380D01*
X89951904Y-151882380D01*
X88428095Y-148330000D02*
X88332857Y-148282380D01*
X88190000Y-148282380D01*
X88047142Y-148330000D01*
X87951904Y-148425238D01*
X87904285Y-148520476D01*
X87856666Y-148710952D01*
X87856666Y-148853809D01*
X87904285Y-149044285D01*
X87951904Y-149139523D01*
X88047142Y-149234761D01*
X88190000Y-149282380D01*
X88285238Y-149282380D01*
X88428095Y-149234761D01*
X88475714Y-149187142D01*
X88475714Y-148853809D01*
X88285238Y-148853809D01*
X88904285Y-149282380D02*
X88904285Y-148282380D01*
X89475714Y-149282380D01*
X89475714Y-148282380D01*
X89951904Y-149282380D02*
X89951904Y-148282380D01*
X90190000Y-148282380D01*
X90332857Y-148330000D01*
X90428095Y-148425238D01*
X90475714Y-148520476D01*
X90523333Y-148710952D01*
X90523333Y-148853809D01*
X90475714Y-149044285D01*
X90428095Y-149139523D01*
X90332857Y-149234761D01*
X90190000Y-149282380D01*
X89951904Y-149282380D01*
X88428095Y-142930000D02*
X88332857Y-142882380D01*
X88190000Y-142882380D01*
X88047142Y-142930000D01*
X87951904Y-143025238D01*
X87904285Y-143120476D01*
X87856666Y-143310952D01*
X87856666Y-143453809D01*
X87904285Y-143644285D01*
X87951904Y-143739523D01*
X88047142Y-143834761D01*
X88190000Y-143882380D01*
X88285238Y-143882380D01*
X88428095Y-143834761D01*
X88475714Y-143787142D01*
X88475714Y-143453809D01*
X88285238Y-143453809D01*
X88904285Y-143882380D02*
X88904285Y-142882380D01*
X89475714Y-143882380D01*
X89475714Y-142882380D01*
X89951904Y-143882380D02*
X89951904Y-142882380D01*
X90190000Y-142882380D01*
X90332857Y-142930000D01*
X90428095Y-143025238D01*
X90475714Y-143120476D01*
X90523333Y-143310952D01*
X90523333Y-143453809D01*
X90475714Y-143644285D01*
X90428095Y-143739523D01*
X90332857Y-143834761D01*
X90190000Y-143882380D01*
X89951904Y-143882380D01*
X88428095Y-140530000D02*
X88332857Y-140482380D01*
X88190000Y-140482380D01*
X88047142Y-140530000D01*
X87951904Y-140625238D01*
X87904285Y-140720476D01*
X87856666Y-140910952D01*
X87856666Y-141053809D01*
X87904285Y-141244285D01*
X87951904Y-141339523D01*
X88047142Y-141434761D01*
X88190000Y-141482380D01*
X88285238Y-141482380D01*
X88428095Y-141434761D01*
X88475714Y-141387142D01*
X88475714Y-141053809D01*
X88285238Y-141053809D01*
X88904285Y-141482380D02*
X88904285Y-140482380D01*
X89475714Y-141482380D01*
X89475714Y-140482380D01*
X89951904Y-141482380D02*
X89951904Y-140482380D01*
X90190000Y-140482380D01*
X90332857Y-140530000D01*
X90428095Y-140625238D01*
X90475714Y-140720476D01*
X90523333Y-140910952D01*
X90523333Y-141053809D01*
X90475714Y-141244285D01*
X90428095Y-141339523D01*
X90332857Y-141434761D01*
X90190000Y-141482380D01*
X89951904Y-141482380D01*
X88528095Y-135530000D02*
X88432857Y-135482380D01*
X88290000Y-135482380D01*
X88147142Y-135530000D01*
X88051904Y-135625238D01*
X88004285Y-135720476D01*
X87956666Y-135910952D01*
X87956666Y-136053809D01*
X88004285Y-136244285D01*
X88051904Y-136339523D01*
X88147142Y-136434761D01*
X88290000Y-136482380D01*
X88385238Y-136482380D01*
X88528095Y-136434761D01*
X88575714Y-136387142D01*
X88575714Y-136053809D01*
X88385238Y-136053809D01*
X89004285Y-136482380D02*
X89004285Y-135482380D01*
X89575714Y-136482380D01*
X89575714Y-135482380D01*
X90051904Y-136482380D02*
X90051904Y-135482380D01*
X90290000Y-135482380D01*
X90432857Y-135530000D01*
X90528095Y-135625238D01*
X90575714Y-135720476D01*
X90623333Y-135910952D01*
X90623333Y-136053809D01*
X90575714Y-136244285D01*
X90528095Y-136339523D01*
X90432857Y-136434761D01*
X90290000Y-136482380D01*
X90051904Y-136482380D01*
X88428095Y-133030000D02*
X88332857Y-132982380D01*
X88190000Y-132982380D01*
X88047142Y-133030000D01*
X87951904Y-133125238D01*
X87904285Y-133220476D01*
X87856666Y-133410952D01*
X87856666Y-133553809D01*
X87904285Y-133744285D01*
X87951904Y-133839523D01*
X88047142Y-133934761D01*
X88190000Y-133982380D01*
X88285238Y-133982380D01*
X88428095Y-133934761D01*
X88475714Y-133887142D01*
X88475714Y-133553809D01*
X88285238Y-133553809D01*
X88904285Y-133982380D02*
X88904285Y-132982380D01*
X89475714Y-133982380D01*
X89475714Y-132982380D01*
X89951904Y-133982380D02*
X89951904Y-132982380D01*
X90190000Y-132982380D01*
X90332857Y-133030000D01*
X90428095Y-133125238D01*
X90475714Y-133220476D01*
X90523333Y-133410952D01*
X90523333Y-133553809D01*
X90475714Y-133744285D01*
X90428095Y-133839523D01*
X90332857Y-133934761D01*
X90190000Y-133982380D01*
X89951904Y-133982380D01*
X88428095Y-128030000D02*
X88332857Y-127982380D01*
X88190000Y-127982380D01*
X88047142Y-128030000D01*
X87951904Y-128125238D01*
X87904285Y-128220476D01*
X87856666Y-128410952D01*
X87856666Y-128553809D01*
X87904285Y-128744285D01*
X87951904Y-128839523D01*
X88047142Y-128934761D01*
X88190000Y-128982380D01*
X88285238Y-128982380D01*
X88428095Y-128934761D01*
X88475714Y-128887142D01*
X88475714Y-128553809D01*
X88285238Y-128553809D01*
X88904285Y-128982380D02*
X88904285Y-127982380D01*
X89475714Y-128982380D01*
X89475714Y-127982380D01*
X89951904Y-128982380D02*
X89951904Y-127982380D01*
X90190000Y-127982380D01*
X90332857Y-128030000D01*
X90428095Y-128125238D01*
X90475714Y-128220476D01*
X90523333Y-128410952D01*
X90523333Y-128553809D01*
X90475714Y-128744285D01*
X90428095Y-128839523D01*
X90332857Y-128934761D01*
X90190000Y-128982380D01*
X89951904Y-128982380D01*
X88428095Y-125230000D02*
X88332857Y-125182380D01*
X88190000Y-125182380D01*
X88047142Y-125230000D01*
X87951904Y-125325238D01*
X87904285Y-125420476D01*
X87856666Y-125610952D01*
X87856666Y-125753809D01*
X87904285Y-125944285D01*
X87951904Y-126039523D01*
X88047142Y-126134761D01*
X88190000Y-126182380D01*
X88285238Y-126182380D01*
X88428095Y-126134761D01*
X88475714Y-126087142D01*
X88475714Y-125753809D01*
X88285238Y-125753809D01*
X88904285Y-126182380D02*
X88904285Y-125182380D01*
X89475714Y-126182380D01*
X89475714Y-125182380D01*
X89951904Y-126182380D02*
X89951904Y-125182380D01*
X90190000Y-125182380D01*
X90332857Y-125230000D01*
X90428095Y-125325238D01*
X90475714Y-125420476D01*
X90523333Y-125610952D01*
X90523333Y-125753809D01*
X90475714Y-125944285D01*
X90428095Y-126039523D01*
X90332857Y-126134761D01*
X90190000Y-126182380D01*
X89951904Y-126182380D01*
X88328095Y-120530000D02*
X88232857Y-120482380D01*
X88090000Y-120482380D01*
X87947142Y-120530000D01*
X87851904Y-120625238D01*
X87804285Y-120720476D01*
X87756666Y-120910952D01*
X87756666Y-121053809D01*
X87804285Y-121244285D01*
X87851904Y-121339523D01*
X87947142Y-121434761D01*
X88090000Y-121482380D01*
X88185238Y-121482380D01*
X88328095Y-121434761D01*
X88375714Y-121387142D01*
X88375714Y-121053809D01*
X88185238Y-121053809D01*
X88804285Y-121482380D02*
X88804285Y-120482380D01*
X89375714Y-121482380D01*
X89375714Y-120482380D01*
X89851904Y-121482380D02*
X89851904Y-120482380D01*
X90090000Y-120482380D01*
X90232857Y-120530000D01*
X90328095Y-120625238D01*
X90375714Y-120720476D01*
X90423333Y-120910952D01*
X90423333Y-121053809D01*
X90375714Y-121244285D01*
X90328095Y-121339523D01*
X90232857Y-121434761D01*
X90090000Y-121482380D01*
X89851904Y-121482380D01*
X80328095Y-120530000D02*
X80232857Y-120482380D01*
X80090000Y-120482380D01*
X79947142Y-120530000D01*
X79851904Y-120625238D01*
X79804285Y-120720476D01*
X79756666Y-120910952D01*
X79756666Y-121053809D01*
X79804285Y-121244285D01*
X79851904Y-121339523D01*
X79947142Y-121434761D01*
X80090000Y-121482380D01*
X80185238Y-121482380D01*
X80328095Y-121434761D01*
X80375714Y-121387142D01*
X80375714Y-121053809D01*
X80185238Y-121053809D01*
X80804285Y-121482380D02*
X80804285Y-120482380D01*
X81375714Y-121482380D01*
X81375714Y-120482380D01*
X81851904Y-121482380D02*
X81851904Y-120482380D01*
X82090000Y-120482380D01*
X82232857Y-120530000D01*
X82328095Y-120625238D01*
X82375714Y-120720476D01*
X82423333Y-120910952D01*
X82423333Y-121053809D01*
X82375714Y-121244285D01*
X82328095Y-121339523D01*
X82232857Y-121434761D01*
X82090000Y-121482380D01*
X81851904Y-121482380D01*
D11*
X84090000Y-150530000D02*
X83090000Y-151530000D01*
X84090000Y-152530000D02*
X84090000Y-150530000D01*
X83090000Y-151530000D02*
X84090000Y-152530000D01*
X83090000Y-120030000D02*
X83090000Y-153030000D01*
X87090000Y-120030000D02*
X83090000Y-120030000D01*
X87090000Y-153030000D02*
X87090000Y-120030000D01*
X83090000Y-153030000D02*
X87090000Y-153030000D01*
X249790000Y-122030000D02*
X248690000Y-121230000D01*
X249790000Y-120530000D02*
X249790000Y-122030000D01*
X248690000Y-121230000D02*
X249790000Y-120530000D01*
X251290000Y-120030000D02*
X248690000Y-120030000D01*
X251190000Y-143230000D02*
X251290000Y-120030000D01*
X248690000Y-143230000D02*
X251190000Y-143230000D01*
X248690000Y-120030000D02*
X248690000Y-143230000D01*
D10*
X251928095Y-141930000D02*
X251832857Y-141882380D01*
X251690000Y-141882380D01*
X251547142Y-141930000D01*
X251451904Y-142025238D01*
X251404285Y-142120476D01*
X251356666Y-142310952D01*
X251356666Y-142453809D01*
X251404285Y-142644285D01*
X251451904Y-142739523D01*
X251547142Y-142834761D01*
X251690000Y-142882380D01*
X251785238Y-142882380D01*
X251928095Y-142834761D01*
X251975714Y-142787142D01*
X251975714Y-142453809D01*
X251785238Y-142453809D01*
X252404285Y-142882380D02*
X252404285Y-141882380D01*
X252975714Y-142882380D01*
X252975714Y-141882380D01*
X253451904Y-142882380D02*
X253451904Y-141882380D01*
X253690000Y-141882380D01*
X253832857Y-141930000D01*
X253928095Y-142025238D01*
X253975714Y-142120476D01*
X254023333Y-142310952D01*
X254023333Y-142453809D01*
X253975714Y-142644285D01*
X253928095Y-142739523D01*
X253832857Y-142834761D01*
X253690000Y-142882380D01*
X253451904Y-142882380D01*
X246228095Y-141930000D02*
X246132857Y-141882380D01*
X245990000Y-141882380D01*
X245847142Y-141930000D01*
X245751904Y-142025238D01*
X245704285Y-142120476D01*
X245656666Y-142310952D01*
X245656666Y-142453809D01*
X245704285Y-142644285D01*
X245751904Y-142739523D01*
X245847142Y-142834761D01*
X245990000Y-142882380D01*
X246085238Y-142882380D01*
X246228095Y-142834761D01*
X246275714Y-142787142D01*
X246275714Y-142453809D01*
X246085238Y-142453809D01*
X246704285Y-142882380D02*
X246704285Y-141882380D01*
X247275714Y-142882380D01*
X247275714Y-141882380D01*
X247751904Y-142882380D02*
X247751904Y-141882380D01*
X247990000Y-141882380D01*
X248132857Y-141930000D01*
X248228095Y-142025238D01*
X248275714Y-142120476D01*
X248323333Y-142310952D01*
X248323333Y-142453809D01*
X248275714Y-142644285D01*
X248228095Y-142739523D01*
X248132857Y-142834761D01*
X247990000Y-142882380D01*
X247751904Y-142882380D01*
X251928095Y-140330000D02*
X251832857Y-140282380D01*
X251690000Y-140282380D01*
X251547142Y-140330000D01*
X251451904Y-140425238D01*
X251404285Y-140520476D01*
X251356666Y-140710952D01*
X251356666Y-140853809D01*
X251404285Y-141044285D01*
X251451904Y-141139523D01*
X251547142Y-141234761D01*
X251690000Y-141282380D01*
X251785238Y-141282380D01*
X251928095Y-141234761D01*
X251975714Y-141187142D01*
X251975714Y-140853809D01*
X251785238Y-140853809D01*
X252404285Y-141282380D02*
X252404285Y-140282380D01*
X252975714Y-141282380D01*
X252975714Y-140282380D01*
X253451904Y-141282380D02*
X253451904Y-140282380D01*
X253690000Y-140282380D01*
X253832857Y-140330000D01*
X253928095Y-140425238D01*
X253975714Y-140520476D01*
X254023333Y-140710952D01*
X254023333Y-140853809D01*
X253975714Y-141044285D01*
X253928095Y-141139523D01*
X253832857Y-141234761D01*
X253690000Y-141282380D01*
X253451904Y-141282380D01*
X237290000Y-141282380D02*
X237290000Y-140282380D01*
X237290000Y-140758571D02*
X237861428Y-140758571D01*
X237861428Y-141282380D02*
X237861428Y-140282380D01*
X238290000Y-140996666D02*
X238766190Y-140996666D01*
X238194761Y-141282380D02*
X238528095Y-140282380D01*
X238861428Y-141282380D01*
X239670952Y-141282380D02*
X239194761Y-141282380D01*
X239194761Y-140282380D01*
X239861428Y-140282380D02*
X240432857Y-140282380D01*
X240147142Y-141282380D02*
X240147142Y-140282380D01*
X240528095Y-141377619D02*
X241290000Y-141377619D01*
X242099523Y-141187142D02*
X242051904Y-141234761D01*
X241909047Y-141282380D01*
X241813809Y-141282380D01*
X241670952Y-141234761D01*
X241575714Y-141139523D01*
X241528095Y-141044285D01*
X241480476Y-140853809D01*
X241480476Y-140710952D01*
X241528095Y-140520476D01*
X241575714Y-140425238D01*
X241670952Y-140330000D01*
X241813809Y-140282380D01*
X241909047Y-140282380D01*
X242051904Y-140330000D01*
X242099523Y-140377619D01*
X242718571Y-140282380D02*
X242909047Y-140282380D01*
X243004285Y-140330000D01*
X243099523Y-140425238D01*
X243147142Y-140615714D01*
X243147142Y-140949047D01*
X243099523Y-141139523D01*
X243004285Y-141234761D01*
X242909047Y-141282380D01*
X242718571Y-141282380D01*
X242623333Y-141234761D01*
X242528095Y-141139523D01*
X242480476Y-140949047D01*
X242480476Y-140615714D01*
X242528095Y-140425238D01*
X242623333Y-140330000D01*
X242718571Y-140282380D01*
X243575714Y-141282380D02*
X243575714Y-140282380D01*
X243909047Y-140996666D01*
X244242380Y-140282380D01*
X244242380Y-141282380D01*
X244718571Y-141282380D02*
X244718571Y-140282380D01*
X245051904Y-140996666D01*
X245385238Y-140282380D01*
X245385238Y-141282380D01*
X245813809Y-140996666D02*
X246290000Y-140996666D01*
X245718571Y-141282380D02*
X246051904Y-140282380D01*
X246385238Y-141282380D01*
X246718571Y-141282380D02*
X246718571Y-140282380D01*
X247290000Y-141282380D01*
X247290000Y-140282380D01*
X247766190Y-141282380D02*
X247766190Y-140282380D01*
X248004285Y-140282380D01*
X248147142Y-140330000D01*
X248242380Y-140425238D01*
X248290000Y-140520476D01*
X248337619Y-140710952D01*
X248337619Y-140853809D01*
X248290000Y-141044285D01*
X248242380Y-141139523D01*
X248147142Y-141234761D01*
X248004285Y-141282380D01*
X247766190Y-141282380D01*
X251232857Y-138115000D02*
X252232857Y-138115000D01*
X252042380Y-139482380D02*
X251709047Y-139006190D01*
X251470952Y-139482380D02*
X251470952Y-138482380D01*
X251851904Y-138482380D01*
X251947142Y-138530000D01*
X251994761Y-138577619D01*
X252042380Y-138672857D01*
X252042380Y-138815714D01*
X251994761Y-138910952D01*
X251947142Y-138958571D01*
X251851904Y-139006190D01*
X251470952Y-139006190D01*
X252232857Y-138115000D02*
X253185238Y-138115000D01*
X252423333Y-139434761D02*
X252566190Y-139482380D01*
X252804285Y-139482380D01*
X252899523Y-139434761D01*
X252947142Y-139387142D01*
X252994761Y-139291904D01*
X252994761Y-139196666D01*
X252947142Y-139101428D01*
X252899523Y-139053809D01*
X252804285Y-139006190D01*
X252613809Y-138958571D01*
X252518571Y-138910952D01*
X252470952Y-138863333D01*
X252423333Y-138768095D01*
X252423333Y-138672857D01*
X252470952Y-138577619D01*
X252518571Y-138530000D01*
X252613809Y-138482380D01*
X252851904Y-138482380D01*
X252994761Y-138530000D01*
X253185238Y-138115000D02*
X253947142Y-138115000D01*
X253280476Y-138482380D02*
X253851904Y-138482380D01*
X253566190Y-139482380D02*
X253566190Y-138482380D01*
X245242380Y-138115000D02*
X246242380Y-138115000D01*
X246051904Y-139482380D02*
X245718571Y-139006190D01*
X245480476Y-139482380D02*
X245480476Y-138482380D01*
X245861428Y-138482380D01*
X245956666Y-138530000D01*
X246004285Y-138577619D01*
X246051904Y-138672857D01*
X246051904Y-138815714D01*
X246004285Y-138910952D01*
X245956666Y-138958571D01*
X245861428Y-139006190D01*
X245480476Y-139006190D01*
X246242380Y-138115000D02*
X247290000Y-138115000D01*
X246480476Y-138482380D02*
X246480476Y-139291904D01*
X246528095Y-139387142D01*
X246575714Y-139434761D01*
X246670952Y-139482380D01*
X246861428Y-139482380D01*
X246956666Y-139434761D01*
X247004285Y-139387142D01*
X247051904Y-139291904D01*
X247051904Y-138482380D01*
X247290000Y-138115000D02*
X248337619Y-138115000D01*
X247528095Y-139482380D02*
X247528095Y-138482380D01*
X248099523Y-139482380D01*
X248099523Y-138482380D01*
X251275714Y-136415000D02*
X252418571Y-136415000D01*
X251513809Y-137782380D02*
X251513809Y-136782380D01*
X251847142Y-137496666D01*
X252180476Y-136782380D01*
X252180476Y-137782380D01*
X252418571Y-136415000D02*
X253418571Y-136415000D01*
X252990000Y-137258571D02*
X253132857Y-137306190D01*
X253180476Y-137353809D01*
X253228095Y-137449047D01*
X253228095Y-137591904D01*
X253180476Y-137687142D01*
X253132857Y-137734761D01*
X253037619Y-137782380D01*
X252656666Y-137782380D01*
X252656666Y-136782380D01*
X252990000Y-136782380D01*
X253085238Y-136830000D01*
X253132857Y-136877619D01*
X253180476Y-136972857D01*
X253180476Y-137068095D01*
X253132857Y-137163333D01*
X253085238Y-137210952D01*
X252990000Y-137258571D01*
X252656666Y-137258571D01*
X253418571Y-136415000D02*
X254370952Y-136415000D01*
X254085238Y-137115714D02*
X254085238Y-137782380D01*
X253847142Y-136734761D02*
X253609047Y-137449047D01*
X254228095Y-137449047D01*
X254609047Y-137401428D02*
X255370952Y-137401428D01*
X254990000Y-137782380D02*
X254990000Y-137020476D01*
X255847142Y-137782380D02*
X255847142Y-136782380D01*
X256180476Y-137496666D01*
X256513809Y-136782380D01*
X256513809Y-137782380D01*
X257323333Y-137258571D02*
X257466190Y-137306190D01*
X257513809Y-137353809D01*
X257561428Y-137449047D01*
X257561428Y-137591904D01*
X257513809Y-137687142D01*
X257466190Y-137734761D01*
X257370952Y-137782380D01*
X256990000Y-137782380D01*
X256990000Y-136782380D01*
X257323333Y-136782380D01*
X257418571Y-136830000D01*
X257466190Y-136877619D01*
X257513809Y-136972857D01*
X257513809Y-137068095D01*
X257466190Y-137163333D01*
X257418571Y-137210952D01*
X257323333Y-137258571D01*
X256990000Y-137258571D01*
X257894761Y-136782380D02*
X258561428Y-136782380D01*
X258132857Y-137782380D01*
X244375714Y-137258571D02*
X244042380Y-137258571D01*
X244042380Y-137782380D02*
X244042380Y-136782380D01*
X244518571Y-136782380D01*
X244899523Y-137258571D02*
X245232857Y-137258571D01*
X245375714Y-137782380D02*
X244899523Y-137782380D01*
X244899523Y-136782380D01*
X245375714Y-136782380D01*
X245661428Y-136782380D02*
X246232857Y-136782380D01*
X245947142Y-137782380D02*
X245947142Y-136782380D01*
X247137619Y-137687142D02*
X247090000Y-137734761D01*
X246947142Y-137782380D01*
X246851904Y-137782380D01*
X246709047Y-137734761D01*
X246613809Y-137639523D01*
X246566190Y-137544285D01*
X246518571Y-137353809D01*
X246518571Y-137210952D01*
X246566190Y-137020476D01*
X246613809Y-136925238D01*
X246709047Y-136830000D01*
X246851904Y-136782380D01*
X246947142Y-136782380D01*
X247090000Y-136830000D01*
X247137619Y-136877619D01*
X247566190Y-137782380D02*
X247566190Y-136782380D01*
X247566190Y-137258571D02*
X248137619Y-137258571D01*
X248137619Y-137782380D02*
X248137619Y-136782380D01*
X251390000Y-135458571D02*
X251723333Y-135458571D01*
X251866190Y-135982380D02*
X251390000Y-135982380D01*
X251390000Y-134982380D01*
X251866190Y-134982380D01*
X252199523Y-134982380D02*
X252866190Y-135982380D01*
X252866190Y-134982380D02*
X252199523Y-135982380D01*
X253247142Y-135458571D02*
X253580476Y-135458571D01*
X253723333Y-135982380D02*
X253247142Y-135982380D01*
X253247142Y-134982380D01*
X253723333Y-134982380D01*
X254723333Y-135887142D02*
X254675714Y-135934761D01*
X254532857Y-135982380D01*
X254437619Y-135982380D01*
X254294761Y-135934761D01*
X254199523Y-135839523D01*
X254151904Y-135744285D01*
X254104285Y-135553809D01*
X254104285Y-135410952D01*
X254151904Y-135220476D01*
X254199523Y-135125238D01*
X254294761Y-135030000D01*
X254437619Y-134982380D01*
X254532857Y-134982380D01*
X254675714Y-135030000D01*
X254723333Y-135077619D01*
X255151904Y-134982380D02*
X255151904Y-135791904D01*
X255199523Y-135887142D01*
X255247142Y-135934761D01*
X255342380Y-135982380D01*
X255532857Y-135982380D01*
X255628095Y-135934761D01*
X255675714Y-135887142D01*
X255723333Y-135791904D01*
X255723333Y-134982380D01*
X256056666Y-134982380D02*
X256628095Y-134982380D01*
X256342380Y-135982380D02*
X256342380Y-134982380D01*
X256961428Y-135458571D02*
X257294761Y-135458571D01*
X257437619Y-135982380D02*
X256961428Y-135982380D01*
X256961428Y-134982380D01*
X257437619Y-134982380D01*
X245118571Y-134615000D02*
X245880476Y-134615000D01*
X245213809Y-134982380D02*
X245785238Y-134982380D01*
X245499523Y-135982380D02*
X245499523Y-134982380D01*
X245880476Y-134615000D02*
X246832857Y-134615000D01*
X246309047Y-134982380D02*
X246404285Y-134982380D01*
X246499523Y-135030000D01*
X246547142Y-135077619D01*
X246594761Y-135172857D01*
X246642380Y-135363333D01*
X246642380Y-135601428D01*
X246594761Y-135791904D01*
X246547142Y-135887142D01*
X246499523Y-135934761D01*
X246404285Y-135982380D01*
X246309047Y-135982380D01*
X246213809Y-135934761D01*
X246166190Y-135887142D01*
X246118571Y-135791904D01*
X246070952Y-135601428D01*
X246070952Y-135363333D01*
X246118571Y-135172857D01*
X246166190Y-135077619D01*
X246213809Y-135030000D01*
X246309047Y-134982380D01*
X246832857Y-134615000D02*
X247309047Y-134615000D01*
X247070952Y-135887142D02*
X247118571Y-135934761D01*
X247070952Y-135982380D01*
X247023333Y-135934761D01*
X247070952Y-135887142D01*
X247070952Y-135982380D01*
X247309047Y-134615000D02*
X248261428Y-134615000D01*
X248023333Y-134982380D02*
X247547142Y-134982380D01*
X247499523Y-135458571D01*
X247547142Y-135410952D01*
X247642380Y-135363333D01*
X247880476Y-135363333D01*
X247975714Y-135410952D01*
X248023333Y-135458571D01*
X248070952Y-135553809D01*
X248070952Y-135791904D01*
X248023333Y-135887142D01*
X247975714Y-135934761D01*
X247880476Y-135982380D01*
X247642380Y-135982380D01*
X247547142Y-135934761D01*
X247499523Y-135887142D01*
X251337619Y-133282380D02*
X251909047Y-133282380D01*
X251623333Y-134282380D02*
X251623333Y-133282380D01*
X252194761Y-133377619D02*
X252242380Y-133330000D01*
X252337619Y-133282380D01*
X252575714Y-133282380D01*
X252670952Y-133330000D01*
X252718571Y-133377619D01*
X252766190Y-133472857D01*
X252766190Y-133568095D01*
X252718571Y-133710952D01*
X252147142Y-134282380D01*
X252766190Y-134282380D01*
X253147142Y-133377619D02*
X253194761Y-133330000D01*
X253290000Y-133282380D01*
X253528095Y-133282380D01*
X253623333Y-133330000D01*
X253670952Y-133377619D01*
X253718571Y-133472857D01*
X253718571Y-133568095D01*
X253670952Y-133710952D01*
X253099523Y-134282380D01*
X253718571Y-134282380D01*
X254147142Y-134187142D02*
X254194761Y-134234761D01*
X254147142Y-134282380D01*
X254099523Y-134234761D01*
X254147142Y-134187142D01*
X254147142Y-134282380D01*
X255099523Y-133282380D02*
X254623333Y-133282380D01*
X254575714Y-133758571D01*
X254623333Y-133710952D01*
X254718571Y-133663333D01*
X254956666Y-133663333D01*
X255051904Y-133710952D01*
X255099523Y-133758571D01*
X255147142Y-133853809D01*
X255147142Y-134091904D01*
X255099523Y-134187142D01*
X255051904Y-134234761D01*
X254956666Y-134282380D01*
X254718571Y-134282380D01*
X254623333Y-134234761D01*
X254575714Y-134187142D01*
X239094761Y-132915000D02*
X240237619Y-132915000D01*
X239332857Y-134282380D02*
X239332857Y-133282380D01*
X239666190Y-133996666D01*
X239999523Y-133282380D01*
X239999523Y-134282380D01*
X240237619Y-132915000D02*
X241142380Y-132915000D01*
X240475714Y-133758571D02*
X240809047Y-133758571D01*
X240951904Y-134282380D02*
X240475714Y-134282380D01*
X240475714Y-133282380D01*
X240951904Y-133282380D01*
X241142380Y-132915000D02*
X242285238Y-132915000D01*
X241380476Y-134282380D02*
X241380476Y-133282380D01*
X241713809Y-133996666D01*
X242047142Y-133282380D01*
X242047142Y-134282380D01*
X242285238Y-132915000D02*
X242761428Y-132915000D01*
X242523333Y-134187142D02*
X242570952Y-134234761D01*
X242523333Y-134282380D01*
X242475714Y-134234761D01*
X242523333Y-134187142D01*
X242523333Y-134282380D01*
X242761428Y-132915000D02*
X243666190Y-132915000D01*
X242999523Y-133758571D02*
X243332857Y-133758571D01*
X243475714Y-134282380D02*
X242999523Y-134282380D01*
X242999523Y-133282380D01*
X243475714Y-133282380D01*
X243666190Y-132915000D02*
X244713809Y-132915000D01*
X243904285Y-134282380D02*
X243904285Y-133282380D01*
X244475714Y-134282380D01*
X244475714Y-133282380D01*
X244713809Y-132915000D02*
X245570952Y-132915000D01*
X244904285Y-133996666D02*
X245380476Y-133996666D01*
X244809047Y-134282380D02*
X245142380Y-133282380D01*
X245475714Y-134282380D01*
X245570952Y-132915000D02*
X246570952Y-132915000D01*
X246142380Y-133758571D02*
X246285238Y-133806190D01*
X246332857Y-133853809D01*
X246380476Y-133949047D01*
X246380476Y-134091904D01*
X246332857Y-134187142D01*
X246285238Y-134234761D01*
X246190000Y-134282380D01*
X245809047Y-134282380D01*
X245809047Y-133282380D01*
X246142380Y-133282380D01*
X246237619Y-133330000D01*
X246285238Y-133377619D01*
X246332857Y-133472857D01*
X246332857Y-133568095D01*
X246285238Y-133663333D01*
X246237619Y-133710952D01*
X246142380Y-133758571D01*
X245809047Y-133758571D01*
X246570952Y-132915000D02*
X247380476Y-132915000D01*
X247285238Y-134282380D02*
X246809047Y-134282380D01*
X246809047Y-133282380D01*
X247380476Y-132915000D02*
X248285238Y-132915000D01*
X247618571Y-133758571D02*
X247951904Y-133758571D01*
X248094761Y-134282380D02*
X247618571Y-134282380D01*
X247618571Y-133282380D01*
X248094761Y-133282380D01*
X251180476Y-131015000D02*
X252180476Y-131015000D01*
X251418571Y-132382380D02*
X251418571Y-131382380D01*
X251656666Y-131382380D01*
X251799523Y-131430000D01*
X251894761Y-131525238D01*
X251942380Y-131620476D01*
X251990000Y-131810952D01*
X251990000Y-131953809D01*
X251942380Y-132144285D01*
X251894761Y-132239523D01*
X251799523Y-132334761D01*
X251656666Y-132382380D01*
X251418571Y-132382380D01*
X252180476Y-131015000D02*
X252942380Y-131015000D01*
X252180476Y-132477619D02*
X252942380Y-132477619D01*
X252942380Y-131015000D02*
X253990000Y-131015000D01*
X253370952Y-131382380D02*
X253561428Y-131382380D01*
X253656666Y-131430000D01*
X253751904Y-131525238D01*
X253799523Y-131715714D01*
X253799523Y-132049047D01*
X253751904Y-132239523D01*
X253656666Y-132334761D01*
X253561428Y-132382380D01*
X253370952Y-132382380D01*
X253275714Y-132334761D01*
X253180476Y-132239523D01*
X253132857Y-132049047D01*
X253132857Y-131715714D01*
X253180476Y-131525238D01*
X253275714Y-131430000D01*
X253370952Y-131382380D01*
X253990000Y-131015000D02*
X255037619Y-131015000D01*
X254228095Y-131382380D02*
X254228095Y-132191904D01*
X254275714Y-132287142D01*
X254323333Y-132334761D01*
X254418571Y-132382380D01*
X254609047Y-132382380D01*
X254704285Y-132334761D01*
X254751904Y-132287142D01*
X254799523Y-132191904D01*
X254799523Y-131382380D01*
X255037619Y-131015000D02*
X255799523Y-131015000D01*
X255132857Y-131382380D02*
X255704285Y-131382380D01*
X255418571Y-132382380D02*
X255418571Y-131382380D01*
X245047142Y-131115000D02*
X246047142Y-131115000D01*
X245285238Y-132482380D02*
X245285238Y-131482380D01*
X245523333Y-131482380D01*
X245666190Y-131530000D01*
X245761428Y-131625238D01*
X245809047Y-131720476D01*
X245856666Y-131910952D01*
X245856666Y-132053809D01*
X245809047Y-132244285D01*
X245761428Y-132339523D01*
X245666190Y-132434761D01*
X245523333Y-132482380D01*
X245285238Y-132482380D01*
X246047142Y-131115000D02*
X246809047Y-131115000D01*
X246047142Y-132577619D02*
X246809047Y-132577619D01*
X246809047Y-131115000D02*
X247285238Y-131115000D01*
X247047142Y-132482380D02*
X247047142Y-131482380D01*
X247285238Y-131115000D02*
X248332857Y-131115000D01*
X247523333Y-132482380D02*
X247523333Y-131482380D01*
X248094761Y-132482380D01*
X248094761Y-131482380D01*
X251923333Y-130587142D02*
X251875714Y-130634761D01*
X251732857Y-130682380D01*
X251637619Y-130682380D01*
X251494761Y-130634761D01*
X251399523Y-130539523D01*
X251351904Y-130444285D01*
X251304285Y-130253809D01*
X251304285Y-130110952D01*
X251351904Y-129920476D01*
X251399523Y-129825238D01*
X251494761Y-129730000D01*
X251637619Y-129682380D01*
X251732857Y-129682380D01*
X251875714Y-129730000D01*
X251923333Y-129777619D01*
X252304285Y-130634761D02*
X252447142Y-130682380D01*
X252685238Y-130682380D01*
X252780476Y-130634761D01*
X252828095Y-130587142D01*
X252875714Y-130491904D01*
X252875714Y-130396666D01*
X252828095Y-130301428D01*
X252780476Y-130253809D01*
X252685238Y-130206190D01*
X252494761Y-130158571D01*
X252399523Y-130110952D01*
X252351904Y-130063333D01*
X252304285Y-129968095D01*
X252304285Y-129872857D01*
X252351904Y-129777619D01*
X252399523Y-129730000D01*
X252494761Y-129682380D01*
X252732857Y-129682380D01*
X252875714Y-129730000D01*
X246509047Y-129682380D02*
X246747142Y-130682380D01*
X246937619Y-129968095D01*
X247128095Y-130682380D01*
X247366190Y-129682380D01*
X247747142Y-130158571D02*
X248080476Y-130158571D01*
X248223333Y-130682380D02*
X247747142Y-130682380D01*
X247747142Y-129682380D01*
X248223333Y-129682380D01*
X251285238Y-127715000D02*
X252142380Y-127715000D01*
X251475714Y-128796666D02*
X251951904Y-128796666D01*
X251380476Y-129082380D02*
X251713809Y-128082380D01*
X252047142Y-129082380D01*
X252142380Y-127715000D02*
X253094761Y-127715000D01*
X252428095Y-129082380D02*
X252618571Y-129082380D01*
X252713809Y-129034761D01*
X252761428Y-128987142D01*
X252856666Y-128844285D01*
X252904285Y-128653809D01*
X252904285Y-128272857D01*
X252856666Y-128177619D01*
X252809047Y-128130000D01*
X252713809Y-128082380D01*
X252523333Y-128082380D01*
X252428095Y-128130000D01*
X252380476Y-128177619D01*
X252332857Y-128272857D01*
X252332857Y-128510952D01*
X252380476Y-128606190D01*
X252428095Y-128653809D01*
X252523333Y-128701428D01*
X252713809Y-128701428D01*
X252809047Y-128653809D01*
X252856666Y-128606190D01*
X252904285Y-128510952D01*
X246485238Y-127715000D02*
X247342380Y-127715000D01*
X246675714Y-128796666D02*
X247151904Y-128796666D01*
X246580476Y-129082380D02*
X246913809Y-128082380D01*
X247247142Y-129082380D01*
X247342380Y-127715000D02*
X248294761Y-127715000D01*
X247723333Y-128510952D02*
X247628095Y-128463333D01*
X247580476Y-128415714D01*
X247532857Y-128320476D01*
X247532857Y-128272857D01*
X247580476Y-128177619D01*
X247628095Y-128130000D01*
X247723333Y-128082380D01*
X247913809Y-128082380D01*
X248009047Y-128130000D01*
X248056666Y-128177619D01*
X248104285Y-128272857D01*
X248104285Y-128320476D01*
X248056666Y-128415714D01*
X248009047Y-128463333D01*
X247913809Y-128510952D01*
X247723333Y-128510952D01*
X247628095Y-128558571D01*
X247580476Y-128606190D01*
X247532857Y-128701428D01*
X247532857Y-128891904D01*
X247580476Y-128987142D01*
X247628095Y-129034761D01*
X247723333Y-129082380D01*
X247913809Y-129082380D01*
X248009047Y-129034761D01*
X248056666Y-128987142D01*
X248104285Y-128891904D01*
X248104285Y-128701428D01*
X248056666Y-128606190D01*
X248009047Y-128558571D01*
X247913809Y-128510952D01*
X251285238Y-125915000D02*
X252142380Y-125915000D01*
X251475714Y-126996666D02*
X251951904Y-126996666D01*
X251380476Y-127282380D02*
X251713809Y-126282380D01*
X252047142Y-127282380D01*
X252142380Y-125915000D02*
X253094761Y-125915000D01*
X252285238Y-126282380D02*
X252951904Y-126282380D01*
X252523333Y-127282380D01*
X246485238Y-125915000D02*
X247342380Y-125915000D01*
X246675714Y-126996666D02*
X247151904Y-126996666D01*
X246580476Y-127282380D02*
X246913809Y-126282380D01*
X247247142Y-127282380D01*
X247342380Y-125915000D02*
X248294761Y-125915000D01*
X248009047Y-126282380D02*
X247818571Y-126282380D01*
X247723333Y-126330000D01*
X247675714Y-126377619D01*
X247580476Y-126520476D01*
X247532857Y-126710952D01*
X247532857Y-127091904D01*
X247580476Y-127187142D01*
X247628095Y-127234761D01*
X247723333Y-127282380D01*
X247913809Y-127282380D01*
X248009047Y-127234761D01*
X248056666Y-127187142D01*
X248104285Y-127091904D01*
X248104285Y-126853809D01*
X248056666Y-126758571D01*
X248009047Y-126710952D01*
X247913809Y-126663333D01*
X247723333Y-126663333D01*
X247628095Y-126710952D01*
X247580476Y-126758571D01*
X247532857Y-126853809D01*
X251285238Y-124115000D02*
X252142380Y-124115000D01*
X251475714Y-125196666D02*
X251951904Y-125196666D01*
X251380476Y-125482380D02*
X251713809Y-124482380D01*
X252047142Y-125482380D01*
X252142380Y-124115000D02*
X253094761Y-124115000D01*
X252856666Y-124482380D02*
X252380476Y-124482380D01*
X252332857Y-124958571D01*
X252380476Y-124910952D01*
X252475714Y-124863333D01*
X252713809Y-124863333D01*
X252809047Y-124910952D01*
X252856666Y-124958571D01*
X252904285Y-125053809D01*
X252904285Y-125291904D01*
X252856666Y-125387142D01*
X252809047Y-125434761D01*
X252713809Y-125482380D01*
X252475714Y-125482380D01*
X252380476Y-125434761D01*
X252332857Y-125387142D01*
X246585238Y-124115000D02*
X247442380Y-124115000D01*
X246775714Y-125196666D02*
X247251904Y-125196666D01*
X246680476Y-125482380D02*
X247013809Y-124482380D01*
X247347142Y-125482380D01*
X247442380Y-124115000D02*
X248394761Y-124115000D01*
X248109047Y-124815714D02*
X248109047Y-125482380D01*
X247870952Y-124434761D02*
X247632857Y-125149047D01*
X248251904Y-125149047D01*
X251285238Y-122215000D02*
X252142380Y-122215000D01*
X251475714Y-123296666D02*
X251951904Y-123296666D01*
X251380476Y-123582380D02*
X251713809Y-122582380D01*
X252047142Y-123582380D01*
X252142380Y-122215000D02*
X253094761Y-122215000D01*
X252285238Y-122582380D02*
X252904285Y-122582380D01*
X252570952Y-122963333D01*
X252713809Y-122963333D01*
X252809047Y-123010952D01*
X252856666Y-123058571D01*
X252904285Y-123153809D01*
X252904285Y-123391904D01*
X252856666Y-123487142D01*
X252809047Y-123534761D01*
X252713809Y-123582380D01*
X252428095Y-123582380D01*
X252332857Y-123534761D01*
X252285238Y-123487142D01*
X246585238Y-122215000D02*
X247442380Y-122215000D01*
X246775714Y-123296666D02*
X247251904Y-123296666D01*
X246680476Y-123582380D02*
X247013809Y-122582380D01*
X247347142Y-123582380D01*
X247442380Y-122215000D02*
X248394761Y-122215000D01*
X247632857Y-122677619D02*
X247680476Y-122630000D01*
X247775714Y-122582380D01*
X248013809Y-122582380D01*
X248109047Y-122630000D01*
X248156666Y-122677619D01*
X248204285Y-122772857D01*
X248204285Y-122868095D01*
X248156666Y-123010952D01*
X247585238Y-123582380D01*
X248204285Y-123582380D01*
X251385238Y-120315000D02*
X252242380Y-120315000D01*
X251575714Y-121396666D02*
X252051904Y-121396666D01*
X251480476Y-121682380D02*
X251813809Y-120682380D01*
X252147142Y-121682380D01*
X252242380Y-120315000D02*
X253194761Y-120315000D01*
X253004285Y-121682380D02*
X252432857Y-121682380D01*
X252718571Y-121682380D02*
X252718571Y-120682380D01*
X252623333Y-120825238D01*
X252528095Y-120920476D01*
X252432857Y-120968095D01*
X246685238Y-120315000D02*
X247542380Y-120315000D01*
X246875714Y-121396666D02*
X247351904Y-121396666D01*
X246780476Y-121682380D02*
X247113809Y-120682380D01*
X247447142Y-121682380D01*
X247542380Y-120315000D02*
X248494761Y-120315000D01*
X247970952Y-120682380D02*
X248066190Y-120682380D01*
X248161428Y-120730000D01*
X248209047Y-120777619D01*
X248256666Y-120872857D01*
X248304285Y-121063333D01*
X248304285Y-121301428D01*
X248256666Y-121491904D01*
X248209047Y-121587142D01*
X248161428Y-121634761D01*
X248066190Y-121682380D01*
X247970952Y-121682380D01*
X247875714Y-121634761D01*
X247828095Y-121587142D01*
X247780476Y-121491904D01*
X247732857Y-121301428D01*
X247732857Y-121063333D01*
X247780476Y-120872857D01*
X247828095Y-120777619D01*
X247875714Y-120730000D01*
X247970952Y-120682380D01*
X132475714Y-114796666D02*
X132951904Y-114796666D01*
X132380476Y-115082380D02*
X132713809Y-114082380D01*
X133047142Y-115082380D01*
X133856666Y-114082380D02*
X133380476Y-114082380D01*
X133332857Y-114558571D01*
X133380476Y-114510952D01*
X133475714Y-114463333D01*
X133713809Y-114463333D01*
X133809047Y-114510952D01*
X133856666Y-114558571D01*
X133904285Y-114653809D01*
X133904285Y-114891904D01*
X133856666Y-114987142D01*
X133809047Y-115034761D01*
X133713809Y-115082380D01*
X133475714Y-115082380D01*
X133380476Y-115034761D01*
X133332857Y-114987142D01*
X132475714Y-112296666D02*
X132951904Y-112296666D01*
X132380476Y-112582380D02*
X132713809Y-111582380D01*
X133047142Y-112582380D01*
X133809047Y-111582380D02*
X133618571Y-111582380D01*
X133523333Y-111630000D01*
X133475714Y-111677619D01*
X133380476Y-111820476D01*
X133332857Y-112010952D01*
X133332857Y-112391904D01*
X133380476Y-112487142D01*
X133428095Y-112534761D01*
X133523333Y-112582380D01*
X133713809Y-112582380D01*
X133809047Y-112534761D01*
X133856666Y-112487142D01*
X133904285Y-112391904D01*
X133904285Y-112153809D01*
X133856666Y-112058571D01*
X133809047Y-112010952D01*
X133713809Y-111963333D01*
X133523333Y-111963333D01*
X133428095Y-112010952D01*
X133380476Y-112058571D01*
X133332857Y-112153809D01*
X132475714Y-109796666D02*
X132951904Y-109796666D01*
X132380476Y-110082380D02*
X132713809Y-109082380D01*
X133047142Y-110082380D01*
X133285238Y-109082380D02*
X133951904Y-109082380D01*
X133523333Y-110082380D01*
X132475714Y-107196666D02*
X132951904Y-107196666D01*
X132380476Y-107482380D02*
X132713809Y-106482380D01*
X133047142Y-107482380D01*
X133523333Y-106910952D02*
X133428095Y-106863333D01*
X133380476Y-106815714D01*
X133332857Y-106720476D01*
X133332857Y-106672857D01*
X133380476Y-106577619D01*
X133428095Y-106530000D01*
X133523333Y-106482380D01*
X133713809Y-106482380D01*
X133809047Y-106530000D01*
X133856666Y-106577619D01*
X133904285Y-106672857D01*
X133904285Y-106720476D01*
X133856666Y-106815714D01*
X133809047Y-106863333D01*
X133713809Y-106910952D01*
X133523333Y-106910952D01*
X133428095Y-106958571D01*
X133380476Y-107006190D01*
X133332857Y-107101428D01*
X133332857Y-107291904D01*
X133380476Y-107387142D01*
X133428095Y-107434761D01*
X133523333Y-107482380D01*
X133713809Y-107482380D01*
X133809047Y-107434761D01*
X133856666Y-107387142D01*
X133904285Y-107291904D01*
X133904285Y-107101428D01*
X133856666Y-107006190D01*
X133809047Y-106958571D01*
X133713809Y-106910952D01*
X132475714Y-104696666D02*
X132951904Y-104696666D01*
X132380476Y-104982380D02*
X132713809Y-103982380D01*
X133047142Y-104982380D01*
X133428095Y-104982380D02*
X133618571Y-104982380D01*
X133713809Y-104934761D01*
X133761428Y-104887142D01*
X133856666Y-104744285D01*
X133904285Y-104553809D01*
X133904285Y-104172857D01*
X133856666Y-104077619D01*
X133809047Y-104030000D01*
X133713809Y-103982380D01*
X133523333Y-103982380D01*
X133428095Y-104030000D01*
X133380476Y-104077619D01*
X133332857Y-104172857D01*
X133332857Y-104410952D01*
X133380476Y-104506190D01*
X133428095Y-104553809D01*
X133523333Y-104601428D01*
X133713809Y-104601428D01*
X133809047Y-104553809D01*
X133856666Y-104506190D01*
X133904285Y-104410952D01*
X132266190Y-101215000D02*
X133409047Y-101215000D01*
X132409047Y-101582380D02*
X132647142Y-102582380D01*
X132837619Y-101868095D01*
X133028095Y-102582380D01*
X133266190Y-101582380D01*
X133409047Y-101215000D02*
X134313809Y-101215000D01*
X133647142Y-102058571D02*
X133980476Y-102058571D01*
X134123333Y-102582380D02*
X133647142Y-102582380D01*
X133647142Y-101582380D01*
X134123333Y-101582380D01*
X132385238Y-99882380D02*
X132385238Y-98882380D01*
X132623333Y-98882380D01*
X132766190Y-98930000D01*
X132861428Y-99025238D01*
X132909047Y-99120476D01*
X132956666Y-99310952D01*
X132956666Y-99453809D01*
X132909047Y-99644285D01*
X132861428Y-99739523D01*
X132766190Y-99834761D01*
X132623333Y-99882380D01*
X132385238Y-99882380D01*
X133147142Y-99977619D02*
X133909047Y-99977619D01*
X134147142Y-99882380D02*
X134147142Y-98882380D01*
X134623333Y-99882380D02*
X134623333Y-98882380D01*
X135194761Y-99882380D01*
X135194761Y-98882380D01*
X118528095Y-114430000D02*
X118432857Y-114382380D01*
X118290000Y-114382380D01*
X118147142Y-114430000D01*
X118051904Y-114525238D01*
X118004285Y-114620476D01*
X117956666Y-114810952D01*
X117956666Y-114953809D01*
X118004285Y-115144285D01*
X118051904Y-115239523D01*
X118147142Y-115334761D01*
X118290000Y-115382380D01*
X118385238Y-115382380D01*
X118528095Y-115334761D01*
X118575714Y-115287142D01*
X118575714Y-114953809D01*
X118385238Y-114953809D01*
X119004285Y-115382380D02*
X119004285Y-114382380D01*
X119575714Y-115382380D01*
X119575714Y-114382380D01*
X120051904Y-115382380D02*
X120051904Y-114382380D01*
X120290000Y-114382380D01*
X120432857Y-114430000D01*
X120528095Y-114525238D01*
X120575714Y-114620476D01*
X120623333Y-114810952D01*
X120623333Y-114953809D01*
X120575714Y-115144285D01*
X120528095Y-115239523D01*
X120432857Y-115334761D01*
X120290000Y-115382380D01*
X120051904Y-115382380D01*
X116218571Y-112682380D02*
X116218571Y-111682380D01*
X116456666Y-111682380D01*
X116599523Y-111730000D01*
X116694761Y-111825238D01*
X116742380Y-111920476D01*
X116790000Y-112110952D01*
X116790000Y-112253809D01*
X116742380Y-112444285D01*
X116694761Y-112539523D01*
X116599523Y-112634761D01*
X116456666Y-112682380D01*
X116218571Y-112682380D01*
X116980476Y-112777619D02*
X117742380Y-112777619D01*
X118170952Y-111682380D02*
X118361428Y-111682380D01*
X118456666Y-111730000D01*
X118551904Y-111825238D01*
X118599523Y-112015714D01*
X118599523Y-112349047D01*
X118551904Y-112539523D01*
X118456666Y-112634761D01*
X118361428Y-112682380D01*
X118170952Y-112682380D01*
X118075714Y-112634761D01*
X117980476Y-112539523D01*
X117932857Y-112349047D01*
X117932857Y-112015714D01*
X117980476Y-111825238D01*
X118075714Y-111730000D01*
X118170952Y-111682380D01*
X119028095Y-111682380D02*
X119028095Y-112491904D01*
X119075714Y-112587142D01*
X119123333Y-112634761D01*
X119218571Y-112682380D01*
X119409047Y-112682380D01*
X119504285Y-112634761D01*
X119551904Y-112587142D01*
X119599523Y-112491904D01*
X119599523Y-111682380D01*
X119932857Y-111682380D02*
X120504285Y-111682380D01*
X120218571Y-112682380D02*
X120218571Y-111682380D01*
X118975714Y-109896666D02*
X119451904Y-109896666D01*
X118880476Y-110182380D02*
X119213809Y-109182380D01*
X119547142Y-110182380D01*
X120309047Y-109515714D02*
X120309047Y-110182380D01*
X120070952Y-109134761D02*
X119832857Y-109849047D01*
X120451904Y-109849047D01*
X118975714Y-107396666D02*
X119451904Y-107396666D01*
X118880476Y-107682380D02*
X119213809Y-106682380D01*
X119547142Y-107682380D01*
X119785238Y-106682380D02*
X120404285Y-106682380D01*
X120070952Y-107063333D01*
X120213809Y-107063333D01*
X120309047Y-107110952D01*
X120356666Y-107158571D01*
X120404285Y-107253809D01*
X120404285Y-107491904D01*
X120356666Y-107587142D01*
X120309047Y-107634761D01*
X120213809Y-107682380D01*
X119928095Y-107682380D01*
X119832857Y-107634761D01*
X119785238Y-107587142D01*
X118975714Y-104796666D02*
X119451904Y-104796666D01*
X118880476Y-105082380D02*
X119213809Y-104082380D01*
X119547142Y-105082380D01*
X119832857Y-104177619D02*
X119880476Y-104130000D01*
X119975714Y-104082380D01*
X120213809Y-104082380D01*
X120309047Y-104130000D01*
X120356666Y-104177619D01*
X120404285Y-104272857D01*
X120404285Y-104368095D01*
X120356666Y-104510952D01*
X119785238Y-105082380D01*
X120404285Y-105082380D01*
X118975714Y-102196666D02*
X119451904Y-102196666D01*
X118880476Y-102482380D02*
X119213809Y-101482380D01*
X119547142Y-102482380D01*
X120404285Y-102482380D02*
X119832857Y-102482380D01*
X120118571Y-102482380D02*
X120118571Y-101482380D01*
X120023333Y-101625238D01*
X119928095Y-101720476D01*
X119832857Y-101768095D01*
X118875714Y-99696666D02*
X119351904Y-99696666D01*
X118780476Y-99982380D02*
X119113809Y-98982380D01*
X119447142Y-99982380D01*
X119970952Y-98982380D02*
X120066190Y-98982380D01*
X120161428Y-99030000D01*
X120209047Y-99077619D01*
X120256666Y-99172857D01*
X120304285Y-99363333D01*
X120304285Y-99601428D01*
X120256666Y-99791904D01*
X120209047Y-99887142D01*
X120161428Y-99934761D01*
X120066190Y-99982380D01*
X119970952Y-99982380D01*
X119875714Y-99934761D01*
X119828095Y-99887142D01*
X119780476Y-99791904D01*
X119732857Y-99601428D01*
X119732857Y-99363333D01*
X119780476Y-99172857D01*
X119828095Y-99077619D01*
X119875714Y-99030000D01*
X119970952Y-98982380D01*
X118413809Y-96115000D02*
X119413809Y-96115000D01*
X119223333Y-97387142D02*
X119175714Y-97434761D01*
X119032857Y-97482380D01*
X118937619Y-97482380D01*
X118794761Y-97434761D01*
X118699523Y-97339523D01*
X118651904Y-97244285D01*
X118604285Y-97053809D01*
X118604285Y-96910952D01*
X118651904Y-96720476D01*
X118699523Y-96625238D01*
X118794761Y-96530000D01*
X118937619Y-96482380D01*
X119032857Y-96482380D01*
X119175714Y-96530000D01*
X119223333Y-96577619D01*
X119413809Y-96115000D02*
X120366190Y-96115000D01*
X119604285Y-97434761D02*
X119747142Y-97482380D01*
X119985238Y-97482380D01*
X120080476Y-97434761D01*
X120128095Y-97387142D01*
X120175714Y-97291904D01*
X120175714Y-97196666D01*
X120128095Y-97101428D01*
X120080476Y-97053809D01*
X119985238Y-97006190D01*
X119794761Y-96958571D01*
X119699523Y-96910952D01*
X119651904Y-96863333D01*
X119604285Y-96768095D01*
X119604285Y-96672857D01*
X119651904Y-96577619D01*
X119699523Y-96530000D01*
X119794761Y-96482380D01*
X120032857Y-96482380D01*
X120175714Y-96530000D01*
X74304285Y-152082380D02*
X74304285Y-151082380D01*
X74780476Y-152082380D02*
X74780476Y-151082380D01*
X75018571Y-151082380D01*
X75161428Y-151130000D01*
X75256666Y-151225238D01*
X75304285Y-151320476D01*
X75351904Y-151510952D01*
X75351904Y-151653809D01*
X75304285Y-151844285D01*
X75256666Y-151939523D01*
X75161428Y-152034761D01*
X75018571Y-152082380D01*
X74780476Y-152082380D01*
X75970952Y-151082380D02*
X76066190Y-151082380D01*
X76161428Y-151130000D01*
X76209047Y-151177619D01*
X76256666Y-151272857D01*
X76304285Y-151463333D01*
X76304285Y-151701428D01*
X76256666Y-151891904D01*
X76209047Y-151987142D01*
X76161428Y-152034761D01*
X76066190Y-152082380D01*
X75970952Y-152082380D01*
X75875714Y-152034761D01*
X75828095Y-151987142D01*
X75780476Y-151891904D01*
X75732857Y-151701428D01*
X75732857Y-151463333D01*
X75780476Y-151272857D01*
X75828095Y-151177619D01*
X75875714Y-151130000D01*
X75970952Y-151082380D01*
X76494761Y-152177619D02*
X77256666Y-152177619D01*
X77256666Y-150715000D02*
X78256666Y-150715000D01*
X78066190Y-151987142D02*
X78018571Y-152034761D01*
X77875714Y-152082380D01*
X77780476Y-152082380D01*
X77637619Y-152034761D01*
X77542380Y-151939523D01*
X77494761Y-151844285D01*
X77447142Y-151653809D01*
X77447142Y-151510952D01*
X77494761Y-151320476D01*
X77542380Y-151225238D01*
X77637619Y-151130000D01*
X77780476Y-151082380D01*
X77875714Y-151082380D01*
X78018571Y-151130000D01*
X78066190Y-151177619D01*
X78256666Y-150715000D02*
X79066190Y-150715000D01*
X78970952Y-152082380D02*
X78494761Y-152082380D01*
X78494761Y-151082380D01*
X79066190Y-150715000D02*
X80113809Y-150715000D01*
X79494761Y-151082380D02*
X79685238Y-151082380D01*
X79780476Y-151130000D01*
X79875714Y-151225238D01*
X79923333Y-151415714D01*
X79923333Y-151749047D01*
X79875714Y-151939523D01*
X79780476Y-152034761D01*
X79685238Y-152082380D01*
X79494761Y-152082380D01*
X79399523Y-152034761D01*
X79304285Y-151939523D01*
X79256666Y-151749047D01*
X79256666Y-151415714D01*
X79304285Y-151225238D01*
X79399523Y-151130000D01*
X79494761Y-151082380D01*
X80113809Y-150715000D02*
X81113809Y-150715000D01*
X80923333Y-151987142D02*
X80875714Y-152034761D01*
X80732857Y-152082380D01*
X80637619Y-152082380D01*
X80494761Y-152034761D01*
X80399523Y-151939523D01*
X80351904Y-151844285D01*
X80304285Y-151653809D01*
X80304285Y-151510952D01*
X80351904Y-151320476D01*
X80399523Y-151225238D01*
X80494761Y-151130000D01*
X80637619Y-151082380D01*
X80732857Y-151082380D01*
X80875714Y-151130000D01*
X80923333Y-151177619D01*
X81113809Y-150715000D02*
X82113809Y-150715000D01*
X81351904Y-152082380D02*
X81351904Y-151082380D01*
X81923333Y-152082380D02*
X81494761Y-151510952D01*
X81923333Y-151082380D02*
X81351904Y-151653809D01*
X70728095Y-149482380D02*
X70728095Y-148482380D01*
X71204285Y-149482380D02*
X71204285Y-148482380D01*
X71442380Y-148482380D01*
X71585238Y-148530000D01*
X71680476Y-148625238D01*
X71728095Y-148720476D01*
X71775714Y-148910952D01*
X71775714Y-149053809D01*
X71728095Y-149244285D01*
X71680476Y-149339523D01*
X71585238Y-149434761D01*
X71442380Y-149482380D01*
X71204285Y-149482380D01*
X72394761Y-148482380D02*
X72490000Y-148482380D01*
X72585238Y-148530000D01*
X72632857Y-148577619D01*
X72680476Y-148672857D01*
X72728095Y-148863333D01*
X72728095Y-149101428D01*
X72680476Y-149291904D01*
X72632857Y-149387142D01*
X72585238Y-149434761D01*
X72490000Y-149482380D01*
X72394761Y-149482380D01*
X72299523Y-149434761D01*
X72251904Y-149387142D01*
X72204285Y-149291904D01*
X72156666Y-149101428D01*
X72156666Y-148863333D01*
X72204285Y-148672857D01*
X72251904Y-148577619D01*
X72299523Y-148530000D01*
X72394761Y-148482380D01*
X72918571Y-149577619D02*
X73680476Y-149577619D01*
X73680476Y-148115000D02*
X74680476Y-148115000D01*
X74490000Y-149482380D02*
X74156666Y-149006190D01*
X73918571Y-149482380D02*
X73918571Y-148482380D01*
X74299523Y-148482380D01*
X74394761Y-148530000D01*
X74442380Y-148577619D01*
X74490000Y-148672857D01*
X74490000Y-148815714D01*
X74442380Y-148910952D01*
X74394761Y-148958571D01*
X74299523Y-149006190D01*
X73918571Y-149006190D01*
X74680476Y-148115000D02*
X75585238Y-148115000D01*
X74918571Y-148958571D02*
X75251904Y-148958571D01*
X75394761Y-149482380D02*
X74918571Y-149482380D01*
X74918571Y-148482380D01*
X75394761Y-148482380D01*
X75585238Y-148115000D02*
X76537619Y-148115000D01*
X75775714Y-149434761D02*
X75918571Y-149482380D01*
X76156666Y-149482380D01*
X76251904Y-149434761D01*
X76299523Y-149387142D01*
X76347142Y-149291904D01*
X76347142Y-149196666D01*
X76299523Y-149101428D01*
X76251904Y-149053809D01*
X76156666Y-149006190D01*
X75966190Y-148958571D01*
X75870952Y-148910952D01*
X75823333Y-148863333D01*
X75775714Y-148768095D01*
X75775714Y-148672857D01*
X75823333Y-148577619D01*
X75870952Y-148530000D01*
X75966190Y-148482380D01*
X76204285Y-148482380D01*
X76347142Y-148530000D01*
X76537619Y-148115000D02*
X77442380Y-148115000D01*
X76775714Y-148958571D02*
X77109047Y-148958571D01*
X77251904Y-149482380D02*
X76775714Y-149482380D01*
X76775714Y-148482380D01*
X77251904Y-148482380D01*
X77442380Y-148115000D02*
X78204285Y-148115000D01*
X77537619Y-148482380D02*
X78109047Y-148482380D01*
X77823333Y-149482380D02*
X77823333Y-148482380D01*
X78204285Y-148115000D02*
X78966190Y-148115000D01*
X78966190Y-148115000D02*
X79823333Y-148115000D01*
X79537619Y-148958571D02*
X79204285Y-148958571D01*
X79204285Y-149482380D02*
X79204285Y-148482380D01*
X79680476Y-148482380D01*
X79823333Y-148115000D02*
X80632857Y-148115000D01*
X80537619Y-149482380D02*
X80061428Y-149482380D01*
X80061428Y-148482380D01*
X80632857Y-148115000D02*
X81490000Y-148115000D01*
X80823333Y-149196666D02*
X81299523Y-149196666D01*
X80728095Y-149482380D02*
X81061428Y-148482380D01*
X81394761Y-149482380D01*
X81490000Y-148115000D02*
X82490000Y-148115000D01*
X82251904Y-148530000D02*
X82156666Y-148482380D01*
X82013809Y-148482380D01*
X81870952Y-148530000D01*
X81775714Y-148625238D01*
X81728095Y-148720476D01*
X81680476Y-148910952D01*
X81680476Y-149053809D01*
X81728095Y-149244285D01*
X81775714Y-149339523D01*
X81870952Y-149434761D01*
X82013809Y-149482380D01*
X82109047Y-149482380D01*
X82251904Y-149434761D01*
X82299523Y-149387142D01*
X82299523Y-149053809D01*
X82109047Y-149053809D01*
X87970952Y-146482380D02*
X87970952Y-145482380D01*
X88447142Y-146482380D02*
X88447142Y-145482380D01*
X88685238Y-145482380D01*
X88828095Y-145530000D01*
X88923333Y-145625238D01*
X88970952Y-145720476D01*
X89018571Y-145910952D01*
X89018571Y-146053809D01*
X88970952Y-146244285D01*
X88923333Y-146339523D01*
X88828095Y-146434761D01*
X88685238Y-146482380D01*
X88447142Y-146482380D01*
X89637619Y-145482380D02*
X89732857Y-145482380D01*
X89828095Y-145530000D01*
X89875714Y-145577619D01*
X89923333Y-145672857D01*
X89970952Y-145863333D01*
X89970952Y-146101428D01*
X89923333Y-146291904D01*
X89875714Y-146387142D01*
X89828095Y-146434761D01*
X89732857Y-146482380D01*
X89637619Y-146482380D01*
X89542380Y-146434761D01*
X89494761Y-146387142D01*
X89447142Y-146291904D01*
X89399523Y-146101428D01*
X89399523Y-145863333D01*
X89447142Y-145672857D01*
X89494761Y-145577619D01*
X89542380Y-145530000D01*
X89637619Y-145482380D01*
X90161428Y-146577619D02*
X90923333Y-146577619D01*
X90923333Y-145115000D02*
X91780476Y-145115000D01*
X91494761Y-145958571D02*
X91161428Y-145958571D01*
X91161428Y-146482380D02*
X91161428Y-145482380D01*
X91637619Y-145482380D01*
X91780476Y-145115000D02*
X92590000Y-145115000D01*
X92494761Y-146482380D02*
X92018571Y-146482380D01*
X92018571Y-145482380D01*
X92590000Y-145115000D02*
X93447142Y-145115000D01*
X92780476Y-146196666D02*
X93256666Y-146196666D01*
X92685238Y-146482380D02*
X93018571Y-145482380D01*
X93351904Y-146482380D01*
X93447142Y-145115000D02*
X94447142Y-145115000D01*
X94209047Y-145530000D02*
X94113809Y-145482380D01*
X93970952Y-145482380D01*
X93828095Y-145530000D01*
X93732857Y-145625238D01*
X93685238Y-145720476D01*
X93637619Y-145910952D01*
X93637619Y-146053809D01*
X93685238Y-146244285D01*
X93732857Y-146339523D01*
X93828095Y-146434761D01*
X93970952Y-146482380D01*
X94066190Y-146482380D01*
X94209047Y-146434761D01*
X94256666Y-146387142D01*
X94256666Y-146053809D01*
X94066190Y-146053809D01*
X75694761Y-146582380D02*
X75694761Y-145582380D01*
X76170952Y-146582380D02*
X76170952Y-145582380D01*
X76409047Y-145582380D01*
X76551904Y-145630000D01*
X76647142Y-145725238D01*
X76694761Y-145820476D01*
X76742380Y-146010952D01*
X76742380Y-146153809D01*
X76694761Y-146344285D01*
X76647142Y-146439523D01*
X76551904Y-146534761D01*
X76409047Y-146582380D01*
X76170952Y-146582380D01*
X77361428Y-145582380D02*
X77456666Y-145582380D01*
X77551904Y-145630000D01*
X77599523Y-145677619D01*
X77647142Y-145772857D01*
X77694761Y-145963333D01*
X77694761Y-146201428D01*
X77647142Y-146391904D01*
X77599523Y-146487142D01*
X77551904Y-146534761D01*
X77456666Y-146582380D01*
X77361428Y-146582380D01*
X77266190Y-146534761D01*
X77218571Y-146487142D01*
X77170952Y-146391904D01*
X77123333Y-146201428D01*
X77123333Y-145963333D01*
X77170952Y-145772857D01*
X77218571Y-145677619D01*
X77266190Y-145630000D01*
X77361428Y-145582380D01*
X77885238Y-146677619D02*
X78647142Y-146677619D01*
X78647142Y-145215000D02*
X79647142Y-145215000D01*
X78885238Y-146582380D02*
X78885238Y-145582380D01*
X79123333Y-145582380D01*
X79266190Y-145630000D01*
X79361428Y-145725238D01*
X79409047Y-145820476D01*
X79456666Y-146010952D01*
X79456666Y-146153809D01*
X79409047Y-146344285D01*
X79361428Y-146439523D01*
X79266190Y-146534761D01*
X79123333Y-146582380D01*
X78885238Y-146582380D01*
X79647142Y-145215000D02*
X80504285Y-145215000D01*
X79837619Y-146296666D02*
X80313809Y-146296666D01*
X79742380Y-146582380D02*
X80075714Y-145582380D01*
X80409047Y-146582380D01*
X80504285Y-145215000D02*
X81266190Y-145215000D01*
X80599523Y-145582380D02*
X81170952Y-145582380D01*
X80885238Y-146582380D02*
X80885238Y-145582380D01*
X81266190Y-145215000D02*
X82123333Y-145215000D01*
X81456666Y-146296666D02*
X81932857Y-146296666D01*
X81361428Y-146582380D02*
X81694761Y-145582380D01*
X82028095Y-146582380D01*
X74404285Y-144082380D02*
X74404285Y-143082380D01*
X74880476Y-144082380D02*
X74880476Y-143082380D01*
X75118571Y-143082380D01*
X75261428Y-143130000D01*
X75356666Y-143225238D01*
X75404285Y-143320476D01*
X75451904Y-143510952D01*
X75451904Y-143653809D01*
X75404285Y-143844285D01*
X75356666Y-143939523D01*
X75261428Y-144034761D01*
X75118571Y-144082380D01*
X74880476Y-144082380D01*
X76404285Y-144082380D02*
X75832857Y-144082380D01*
X76118571Y-144082380D02*
X76118571Y-143082380D01*
X76023333Y-143225238D01*
X75928095Y-143320476D01*
X75832857Y-143368095D01*
X76594761Y-144177619D02*
X77356666Y-144177619D01*
X77356666Y-142715000D02*
X78356666Y-142715000D01*
X78166190Y-143987142D02*
X78118571Y-144034761D01*
X77975714Y-144082380D01*
X77880476Y-144082380D01*
X77737619Y-144034761D01*
X77642380Y-143939523D01*
X77594761Y-143844285D01*
X77547142Y-143653809D01*
X77547142Y-143510952D01*
X77594761Y-143320476D01*
X77642380Y-143225238D01*
X77737619Y-143130000D01*
X77880476Y-143082380D01*
X77975714Y-143082380D01*
X78118571Y-143130000D01*
X78166190Y-143177619D01*
X78356666Y-142715000D02*
X79166190Y-142715000D01*
X79070952Y-144082380D02*
X78594761Y-144082380D01*
X78594761Y-143082380D01*
X79166190Y-142715000D02*
X80213809Y-142715000D01*
X79594761Y-143082380D02*
X79785238Y-143082380D01*
X79880476Y-143130000D01*
X79975714Y-143225238D01*
X80023333Y-143415714D01*
X80023333Y-143749047D01*
X79975714Y-143939523D01*
X79880476Y-144034761D01*
X79785238Y-144082380D01*
X79594761Y-144082380D01*
X79499523Y-144034761D01*
X79404285Y-143939523D01*
X79356666Y-143749047D01*
X79356666Y-143415714D01*
X79404285Y-143225238D01*
X79499523Y-143130000D01*
X79594761Y-143082380D01*
X80213809Y-142715000D02*
X81213809Y-142715000D01*
X81023333Y-143987142D02*
X80975714Y-144034761D01*
X80832857Y-144082380D01*
X80737619Y-144082380D01*
X80594761Y-144034761D01*
X80499523Y-143939523D01*
X80451904Y-143844285D01*
X80404285Y-143653809D01*
X80404285Y-143510952D01*
X80451904Y-143320476D01*
X80499523Y-143225238D01*
X80594761Y-143130000D01*
X80737619Y-143082380D01*
X80832857Y-143082380D01*
X80975714Y-143130000D01*
X81023333Y-143177619D01*
X81213809Y-142715000D02*
X82213809Y-142715000D01*
X81451904Y-144082380D02*
X81451904Y-143082380D01*
X82023333Y-144082380D02*
X81594761Y-143510952D01*
X82023333Y-143082380D02*
X81451904Y-143653809D01*
X70528095Y-141682380D02*
X70528095Y-140682380D01*
X71004285Y-141682380D02*
X71004285Y-140682380D01*
X71242380Y-140682380D01*
X71385238Y-140730000D01*
X71480476Y-140825238D01*
X71528095Y-140920476D01*
X71575714Y-141110952D01*
X71575714Y-141253809D01*
X71528095Y-141444285D01*
X71480476Y-141539523D01*
X71385238Y-141634761D01*
X71242380Y-141682380D01*
X71004285Y-141682380D01*
X72528095Y-141682380D02*
X71956666Y-141682380D01*
X72242380Y-141682380D02*
X72242380Y-140682380D01*
X72147142Y-140825238D01*
X72051904Y-140920476D01*
X71956666Y-140968095D01*
X72718571Y-141777619D02*
X73480476Y-141777619D01*
X73480476Y-140315000D02*
X74480476Y-140315000D01*
X74290000Y-141682380D02*
X73956666Y-141206190D01*
X73718571Y-141682380D02*
X73718571Y-140682380D01*
X74099523Y-140682380D01*
X74194761Y-140730000D01*
X74242380Y-140777619D01*
X74290000Y-140872857D01*
X74290000Y-141015714D01*
X74242380Y-141110952D01*
X74194761Y-141158571D01*
X74099523Y-141206190D01*
X73718571Y-141206190D01*
X74480476Y-140315000D02*
X75385238Y-140315000D01*
X74718571Y-141158571D02*
X75051904Y-141158571D01*
X75194761Y-141682380D02*
X74718571Y-141682380D01*
X74718571Y-140682380D01*
X75194761Y-140682380D01*
X75385238Y-140315000D02*
X76337619Y-140315000D01*
X75575714Y-141634761D02*
X75718571Y-141682380D01*
X75956666Y-141682380D01*
X76051904Y-141634761D01*
X76099523Y-141587142D01*
X76147142Y-141491904D01*
X76147142Y-141396666D01*
X76099523Y-141301428D01*
X76051904Y-141253809D01*
X75956666Y-141206190D01*
X75766190Y-141158571D01*
X75670952Y-141110952D01*
X75623333Y-141063333D01*
X75575714Y-140968095D01*
X75575714Y-140872857D01*
X75623333Y-140777619D01*
X75670952Y-140730000D01*
X75766190Y-140682380D01*
X76004285Y-140682380D01*
X76147142Y-140730000D01*
X76337619Y-140315000D02*
X77242380Y-140315000D01*
X76575714Y-141158571D02*
X76909047Y-141158571D01*
X77051904Y-141682380D02*
X76575714Y-141682380D01*
X76575714Y-140682380D01*
X77051904Y-140682380D01*
X77242380Y-140315000D02*
X78004285Y-140315000D01*
X77337619Y-140682380D02*
X77909047Y-140682380D01*
X77623333Y-141682380D02*
X77623333Y-140682380D01*
X78004285Y-140315000D02*
X78766190Y-140315000D01*
X78766190Y-140315000D02*
X79623333Y-140315000D01*
X79337619Y-141158571D02*
X79004285Y-141158571D01*
X79004285Y-141682380D02*
X79004285Y-140682380D01*
X79480476Y-140682380D01*
X79623333Y-140315000D02*
X80432857Y-140315000D01*
X80337619Y-141682380D02*
X79861428Y-141682380D01*
X79861428Y-140682380D01*
X80432857Y-140315000D02*
X81290000Y-140315000D01*
X80623333Y-141396666D02*
X81099523Y-141396666D01*
X80528095Y-141682380D02*
X80861428Y-140682380D01*
X81194761Y-141682380D01*
X81290000Y-140315000D02*
X82290000Y-140315000D01*
X82051904Y-140730000D02*
X81956666Y-140682380D01*
X81813809Y-140682380D01*
X81670952Y-140730000D01*
X81575714Y-140825238D01*
X81528095Y-140920476D01*
X81480476Y-141110952D01*
X81480476Y-141253809D01*
X81528095Y-141444285D01*
X81575714Y-141539523D01*
X81670952Y-141634761D01*
X81813809Y-141682380D01*
X81909047Y-141682380D01*
X82051904Y-141634761D01*
X82099523Y-141587142D01*
X82099523Y-141253809D01*
X81909047Y-141253809D01*
X87970952Y-138982380D02*
X87970952Y-137982380D01*
X88447142Y-138982380D02*
X88447142Y-137982380D01*
X88685238Y-137982380D01*
X88828095Y-138030000D01*
X88923333Y-138125238D01*
X88970952Y-138220476D01*
X89018571Y-138410952D01*
X89018571Y-138553809D01*
X88970952Y-138744285D01*
X88923333Y-138839523D01*
X88828095Y-138934761D01*
X88685238Y-138982380D01*
X88447142Y-138982380D01*
X89970952Y-138982380D02*
X89399523Y-138982380D01*
X89685238Y-138982380D02*
X89685238Y-137982380D01*
X89590000Y-138125238D01*
X89494761Y-138220476D01*
X89399523Y-138268095D01*
X90161428Y-139077619D02*
X90923333Y-139077619D01*
X90923333Y-137615000D02*
X91780476Y-137615000D01*
X91494761Y-138458571D02*
X91161428Y-138458571D01*
X91161428Y-138982380D02*
X91161428Y-137982380D01*
X91637619Y-137982380D01*
X91780476Y-137615000D02*
X92590000Y-137615000D01*
X92494761Y-138982380D02*
X92018571Y-138982380D01*
X92018571Y-137982380D01*
X92590000Y-137615000D02*
X93447142Y-137615000D01*
X92780476Y-138696666D02*
X93256666Y-138696666D01*
X92685238Y-138982380D02*
X93018571Y-137982380D01*
X93351904Y-138982380D01*
X93447142Y-137615000D02*
X94447142Y-137615000D01*
X94209047Y-138030000D02*
X94113809Y-137982380D01*
X93970952Y-137982380D01*
X93828095Y-138030000D01*
X93732857Y-138125238D01*
X93685238Y-138220476D01*
X93637619Y-138410952D01*
X93637619Y-138553809D01*
X93685238Y-138744285D01*
X93732857Y-138839523D01*
X93828095Y-138934761D01*
X93970952Y-138982380D01*
X94066190Y-138982380D01*
X94209047Y-138934761D01*
X94256666Y-138887142D01*
X94256666Y-138553809D01*
X94066190Y-138553809D01*
X75794761Y-139082380D02*
X75794761Y-138082380D01*
X76270952Y-139082380D02*
X76270952Y-138082380D01*
X76509047Y-138082380D01*
X76651904Y-138130000D01*
X76747142Y-138225238D01*
X76794761Y-138320476D01*
X76842380Y-138510952D01*
X76842380Y-138653809D01*
X76794761Y-138844285D01*
X76747142Y-138939523D01*
X76651904Y-139034761D01*
X76509047Y-139082380D01*
X76270952Y-139082380D01*
X77794761Y-139082380D02*
X77223333Y-139082380D01*
X77509047Y-139082380D02*
X77509047Y-138082380D01*
X77413809Y-138225238D01*
X77318571Y-138320476D01*
X77223333Y-138368095D01*
X77985238Y-139177619D02*
X78747142Y-139177619D01*
X78747142Y-137715000D02*
X79747142Y-137715000D01*
X78985238Y-139082380D02*
X78985238Y-138082380D01*
X79223333Y-138082380D01*
X79366190Y-138130000D01*
X79461428Y-138225238D01*
X79509047Y-138320476D01*
X79556666Y-138510952D01*
X79556666Y-138653809D01*
X79509047Y-138844285D01*
X79461428Y-138939523D01*
X79366190Y-139034761D01*
X79223333Y-139082380D01*
X78985238Y-139082380D01*
X79747142Y-137715000D02*
X80604285Y-137715000D01*
X79937619Y-138796666D02*
X80413809Y-138796666D01*
X79842380Y-139082380D02*
X80175714Y-138082380D01*
X80509047Y-139082380D01*
X80604285Y-137715000D02*
X81366190Y-137715000D01*
X80699523Y-138082380D02*
X81270952Y-138082380D01*
X80985238Y-139082380D02*
X80985238Y-138082380D01*
X81366190Y-137715000D02*
X82223333Y-137715000D01*
X81556666Y-138796666D02*
X82032857Y-138796666D01*
X81461428Y-139082380D02*
X81794761Y-138082380D01*
X82128095Y-139082380D01*
X74109047Y-135582380D02*
X74299523Y-135582380D01*
X74394761Y-135630000D01*
X74490000Y-135725238D01*
X74537619Y-135915714D01*
X74537619Y-136249047D01*
X74490000Y-136439523D01*
X74394761Y-136534761D01*
X74299523Y-136582380D01*
X74109047Y-136582380D01*
X74013809Y-136534761D01*
X73918571Y-136439523D01*
X73870952Y-136249047D01*
X73870952Y-135915714D01*
X73918571Y-135725238D01*
X74013809Y-135630000D01*
X74109047Y-135582380D01*
X74966190Y-136582380D02*
X74966190Y-135582380D01*
X75204285Y-135582380D01*
X75347142Y-135630000D01*
X75442380Y-135725238D01*
X75490000Y-135820476D01*
X75537619Y-136010952D01*
X75537619Y-136153809D01*
X75490000Y-136344285D01*
X75442380Y-136439523D01*
X75347142Y-136534761D01*
X75204285Y-136582380D01*
X74966190Y-136582380D01*
X76156666Y-135582380D02*
X76251904Y-135582380D01*
X76347142Y-135630000D01*
X76394761Y-135677619D01*
X76442380Y-135772857D01*
X76490000Y-135963333D01*
X76490000Y-136201428D01*
X76442380Y-136391904D01*
X76394761Y-136487142D01*
X76347142Y-136534761D01*
X76251904Y-136582380D01*
X76156666Y-136582380D01*
X76061428Y-136534761D01*
X76013809Y-136487142D01*
X75966190Y-136391904D01*
X75918571Y-136201428D01*
X75918571Y-135963333D01*
X75966190Y-135772857D01*
X76013809Y-135677619D01*
X76061428Y-135630000D01*
X76156666Y-135582380D01*
X76680476Y-136677619D02*
X77442380Y-136677619D01*
X77442380Y-135215000D02*
X78442380Y-135215000D01*
X78251904Y-136487142D02*
X78204285Y-136534761D01*
X78061428Y-136582380D01*
X77966190Y-136582380D01*
X77823333Y-136534761D01*
X77728095Y-136439523D01*
X77680476Y-136344285D01*
X77632857Y-136153809D01*
X77632857Y-136010952D01*
X77680476Y-135820476D01*
X77728095Y-135725238D01*
X77823333Y-135630000D01*
X77966190Y-135582380D01*
X78061428Y-135582380D01*
X78204285Y-135630000D01*
X78251904Y-135677619D01*
X78442380Y-135215000D02*
X79251904Y-135215000D01*
X79156666Y-136582380D02*
X78680476Y-136582380D01*
X78680476Y-135582380D01*
X79251904Y-135215000D02*
X80299523Y-135215000D01*
X79680476Y-135582380D02*
X79870952Y-135582380D01*
X79966190Y-135630000D01*
X80061428Y-135725238D01*
X80109047Y-135915714D01*
X80109047Y-136249047D01*
X80061428Y-136439523D01*
X79966190Y-136534761D01*
X79870952Y-136582380D01*
X79680476Y-136582380D01*
X79585238Y-136534761D01*
X79490000Y-136439523D01*
X79442380Y-136249047D01*
X79442380Y-135915714D01*
X79490000Y-135725238D01*
X79585238Y-135630000D01*
X79680476Y-135582380D01*
X80299523Y-135215000D02*
X81299523Y-135215000D01*
X81109047Y-136487142D02*
X81061428Y-136534761D01*
X80918571Y-136582380D01*
X80823333Y-136582380D01*
X80680476Y-136534761D01*
X80585238Y-136439523D01*
X80537619Y-136344285D01*
X80490000Y-136153809D01*
X80490000Y-136010952D01*
X80537619Y-135820476D01*
X80585238Y-135725238D01*
X80680476Y-135630000D01*
X80823333Y-135582380D01*
X80918571Y-135582380D01*
X81061428Y-135630000D01*
X81109047Y-135677619D01*
X81299523Y-135215000D02*
X82299523Y-135215000D01*
X81537619Y-136582380D02*
X81537619Y-135582380D01*
X82109047Y-136582380D02*
X81680476Y-136010952D01*
X82109047Y-135582380D02*
X81537619Y-136153809D01*
X70232857Y-133082380D02*
X70423333Y-133082380D01*
X70518571Y-133130000D01*
X70613809Y-133225238D01*
X70661428Y-133415714D01*
X70661428Y-133749047D01*
X70613809Y-133939523D01*
X70518571Y-134034761D01*
X70423333Y-134082380D01*
X70232857Y-134082380D01*
X70137619Y-134034761D01*
X70042380Y-133939523D01*
X69994761Y-133749047D01*
X69994761Y-133415714D01*
X70042380Y-133225238D01*
X70137619Y-133130000D01*
X70232857Y-133082380D01*
X71090000Y-134082380D02*
X71090000Y-133082380D01*
X71328095Y-133082380D01*
X71470952Y-133130000D01*
X71566190Y-133225238D01*
X71613809Y-133320476D01*
X71661428Y-133510952D01*
X71661428Y-133653809D01*
X71613809Y-133844285D01*
X71566190Y-133939523D01*
X71470952Y-134034761D01*
X71328095Y-134082380D01*
X71090000Y-134082380D01*
X72280476Y-133082380D02*
X72375714Y-133082380D01*
X72470952Y-133130000D01*
X72518571Y-133177619D01*
X72566190Y-133272857D01*
X72613809Y-133463333D01*
X72613809Y-133701428D01*
X72566190Y-133891904D01*
X72518571Y-133987142D01*
X72470952Y-134034761D01*
X72375714Y-134082380D01*
X72280476Y-134082380D01*
X72185238Y-134034761D01*
X72137619Y-133987142D01*
X72090000Y-133891904D01*
X72042380Y-133701428D01*
X72042380Y-133463333D01*
X72090000Y-133272857D01*
X72137619Y-133177619D01*
X72185238Y-133130000D01*
X72280476Y-133082380D01*
X72804285Y-134177619D02*
X73566190Y-134177619D01*
X73566190Y-132715000D02*
X74423333Y-132715000D01*
X74137619Y-133558571D02*
X73804285Y-133558571D01*
X73804285Y-134082380D02*
X73804285Y-133082380D01*
X74280476Y-133082380D01*
X74423333Y-132715000D02*
X75232857Y-132715000D01*
X75137619Y-134082380D02*
X74661428Y-134082380D01*
X74661428Y-133082380D01*
X75232857Y-132715000D02*
X76090000Y-132715000D01*
X75423333Y-133796666D02*
X75899523Y-133796666D01*
X75328095Y-134082380D02*
X75661428Y-133082380D01*
X75994761Y-134082380D01*
X76090000Y-132715000D02*
X77090000Y-132715000D01*
X76851904Y-133130000D02*
X76756666Y-133082380D01*
X76613809Y-133082380D01*
X76470952Y-133130000D01*
X76375714Y-133225238D01*
X76328095Y-133320476D01*
X76280476Y-133510952D01*
X76280476Y-133653809D01*
X76328095Y-133844285D01*
X76375714Y-133939523D01*
X76470952Y-134034761D01*
X76613809Y-134082380D01*
X76709047Y-134082380D01*
X76851904Y-134034761D01*
X76899523Y-133987142D01*
X76899523Y-133653809D01*
X76709047Y-133653809D01*
X77090000Y-132715000D02*
X77851904Y-132715000D01*
X77851904Y-132715000D02*
X78851904Y-132715000D01*
X78661428Y-134082380D02*
X78328095Y-133606190D01*
X78090000Y-134082380D02*
X78090000Y-133082380D01*
X78470952Y-133082380D01*
X78566190Y-133130000D01*
X78613809Y-133177619D01*
X78661428Y-133272857D01*
X78661428Y-133415714D01*
X78613809Y-133510952D01*
X78566190Y-133558571D01*
X78470952Y-133606190D01*
X78090000Y-133606190D01*
X78851904Y-132715000D02*
X79756666Y-132715000D01*
X79090000Y-133558571D02*
X79423333Y-133558571D01*
X79566190Y-134082380D02*
X79090000Y-134082380D01*
X79090000Y-133082380D01*
X79566190Y-133082380D01*
X79756666Y-132715000D02*
X80709047Y-132715000D01*
X79947142Y-134034761D02*
X80090000Y-134082380D01*
X80328095Y-134082380D01*
X80423333Y-134034761D01*
X80470952Y-133987142D01*
X80518571Y-133891904D01*
X80518571Y-133796666D01*
X80470952Y-133701428D01*
X80423333Y-133653809D01*
X80328095Y-133606190D01*
X80137619Y-133558571D01*
X80042380Y-133510952D01*
X79994761Y-133463333D01*
X79947142Y-133368095D01*
X79947142Y-133272857D01*
X79994761Y-133177619D01*
X80042380Y-133130000D01*
X80137619Y-133082380D01*
X80375714Y-133082380D01*
X80518571Y-133130000D01*
X80709047Y-132715000D02*
X81613809Y-132715000D01*
X80947142Y-133558571D02*
X81280476Y-133558571D01*
X81423333Y-134082380D02*
X80947142Y-134082380D01*
X80947142Y-133082380D01*
X81423333Y-133082380D01*
X81613809Y-132715000D02*
X82375714Y-132715000D01*
X81709047Y-133082380D02*
X82280476Y-133082380D01*
X81994761Y-134082380D02*
X81994761Y-133082380D01*
X88075714Y-130582380D02*
X88266190Y-130582380D01*
X88361428Y-130630000D01*
X88456666Y-130725238D01*
X88504285Y-130915714D01*
X88504285Y-131249047D01*
X88456666Y-131439523D01*
X88361428Y-131534761D01*
X88266190Y-131582380D01*
X88075714Y-131582380D01*
X87980476Y-131534761D01*
X87885238Y-131439523D01*
X87837619Y-131249047D01*
X87837619Y-130915714D01*
X87885238Y-130725238D01*
X87980476Y-130630000D01*
X88075714Y-130582380D01*
X88932857Y-131582380D02*
X88932857Y-130582380D01*
X89170952Y-130582380D01*
X89313809Y-130630000D01*
X89409047Y-130725238D01*
X89456666Y-130820476D01*
X89504285Y-131010952D01*
X89504285Y-131153809D01*
X89456666Y-131344285D01*
X89409047Y-131439523D01*
X89313809Y-131534761D01*
X89170952Y-131582380D01*
X88932857Y-131582380D01*
X90123333Y-130582380D02*
X90218571Y-130582380D01*
X90313809Y-130630000D01*
X90361428Y-130677619D01*
X90409047Y-130772857D01*
X90456666Y-130963333D01*
X90456666Y-131201428D01*
X90409047Y-131391904D01*
X90361428Y-131487142D01*
X90313809Y-131534761D01*
X90218571Y-131582380D01*
X90123333Y-131582380D01*
X90028095Y-131534761D01*
X89980476Y-131487142D01*
X89932857Y-131391904D01*
X89885238Y-131201428D01*
X89885238Y-130963333D01*
X89932857Y-130772857D01*
X89980476Y-130677619D01*
X90028095Y-130630000D01*
X90123333Y-130582380D01*
X90647142Y-131677619D02*
X91409047Y-131677619D01*
X91409047Y-130215000D02*
X92266190Y-130215000D01*
X91980476Y-131058571D02*
X91647142Y-131058571D01*
X91647142Y-131582380D02*
X91647142Y-130582380D01*
X92123333Y-130582380D01*
X92266190Y-130215000D02*
X93075714Y-130215000D01*
X92980476Y-131582380D02*
X92504285Y-131582380D01*
X92504285Y-130582380D01*
X93075714Y-130215000D02*
X93932857Y-130215000D01*
X93266190Y-131296666D02*
X93742380Y-131296666D01*
X93170952Y-131582380D02*
X93504285Y-130582380D01*
X93837619Y-131582380D01*
X93932857Y-130215000D02*
X94932857Y-130215000D01*
X94694761Y-130630000D02*
X94599523Y-130582380D01*
X94456666Y-130582380D01*
X94313809Y-130630000D01*
X94218571Y-130725238D01*
X94170952Y-130820476D01*
X94123333Y-131010952D01*
X94123333Y-131153809D01*
X94170952Y-131344285D01*
X94218571Y-131439523D01*
X94313809Y-131534761D01*
X94456666Y-131582380D01*
X94551904Y-131582380D01*
X94694761Y-131534761D01*
X94742380Y-131487142D01*
X94742380Y-131153809D01*
X94551904Y-131153809D01*
X75399523Y-130682380D02*
X75590000Y-130682380D01*
X75685238Y-130730000D01*
X75780476Y-130825238D01*
X75828095Y-131015714D01*
X75828095Y-131349047D01*
X75780476Y-131539523D01*
X75685238Y-131634761D01*
X75590000Y-131682380D01*
X75399523Y-131682380D01*
X75304285Y-131634761D01*
X75209047Y-131539523D01*
X75161428Y-131349047D01*
X75161428Y-131015714D01*
X75209047Y-130825238D01*
X75304285Y-130730000D01*
X75399523Y-130682380D01*
X76256666Y-131682380D02*
X76256666Y-130682380D01*
X76494761Y-130682380D01*
X76637619Y-130730000D01*
X76732857Y-130825238D01*
X76780476Y-130920476D01*
X76828095Y-131110952D01*
X76828095Y-131253809D01*
X76780476Y-131444285D01*
X76732857Y-131539523D01*
X76637619Y-131634761D01*
X76494761Y-131682380D01*
X76256666Y-131682380D01*
X77447142Y-130682380D02*
X77542380Y-130682380D01*
X77637619Y-130730000D01*
X77685238Y-130777619D01*
X77732857Y-130872857D01*
X77780476Y-131063333D01*
X77780476Y-131301428D01*
X77732857Y-131491904D01*
X77685238Y-131587142D01*
X77637619Y-131634761D01*
X77542380Y-131682380D01*
X77447142Y-131682380D01*
X77351904Y-131634761D01*
X77304285Y-131587142D01*
X77256666Y-131491904D01*
X77209047Y-131301428D01*
X77209047Y-131063333D01*
X77256666Y-130872857D01*
X77304285Y-130777619D01*
X77351904Y-130730000D01*
X77447142Y-130682380D01*
X77970952Y-131777619D02*
X78732857Y-131777619D01*
X78732857Y-130315000D02*
X79732857Y-130315000D01*
X78970952Y-131682380D02*
X78970952Y-130682380D01*
X79209047Y-130682380D01*
X79351904Y-130730000D01*
X79447142Y-130825238D01*
X79494761Y-130920476D01*
X79542380Y-131110952D01*
X79542380Y-131253809D01*
X79494761Y-131444285D01*
X79447142Y-131539523D01*
X79351904Y-131634761D01*
X79209047Y-131682380D01*
X78970952Y-131682380D01*
X79732857Y-130315000D02*
X80590000Y-130315000D01*
X79923333Y-131396666D02*
X80399523Y-131396666D01*
X79828095Y-131682380D02*
X80161428Y-130682380D01*
X80494761Y-131682380D01*
X80590000Y-130315000D02*
X81351904Y-130315000D01*
X80685238Y-130682380D02*
X81256666Y-130682380D01*
X80970952Y-131682380D02*
X80970952Y-130682380D01*
X81351904Y-130315000D02*
X82209047Y-130315000D01*
X81542380Y-131396666D02*
X82018571Y-131396666D01*
X81447142Y-131682380D02*
X81780476Y-130682380D01*
X82113809Y-131682380D01*
X57309047Y-112934761D02*
X57309047Y-110934761D01*
X58642380Y-110934761D02*
X59023333Y-110934761D01*
X59213809Y-111030000D01*
X59404285Y-111220476D01*
X59499523Y-111601428D01*
X59499523Y-112268095D01*
X59404285Y-112649047D01*
X59213809Y-112839523D01*
X59023333Y-112934761D01*
X58642380Y-112934761D01*
X58451904Y-112839523D01*
X58261428Y-112649047D01*
X58166190Y-112268095D01*
X58166190Y-111601428D01*
X58261428Y-111220476D01*
X58451904Y-111030000D01*
X58642380Y-110934761D01*
X60070952Y-110934761D02*
X61213809Y-110934761D01*
X60642380Y-112934761D02*
X60642380Y-110934761D01*
X63404285Y-112934761D02*
X63404285Y-110934761D01*
X64356666Y-112934761D02*
X64356666Y-110934761D01*
X65499523Y-112934761D01*
X65499523Y-110934761D01*
X66166190Y-110934761D02*
X67309047Y-110934761D01*
X66737619Y-112934761D02*
X66737619Y-110934761D01*
X67975714Y-111887142D02*
X68642380Y-111887142D01*
X68928095Y-112934761D02*
X67975714Y-112934761D01*
X67975714Y-110934761D01*
X68928095Y-110934761D01*
X70928095Y-112934761D02*
X70261428Y-111982380D01*
X69785238Y-112934761D02*
X69785238Y-110934761D01*
X70547142Y-110934761D01*
X70737619Y-111030000D01*
X70832857Y-111125238D01*
X70928095Y-111315714D01*
X70928095Y-111601428D01*
X70832857Y-111791904D01*
X70737619Y-111887142D01*
X70547142Y-111982380D01*
X69785238Y-111982380D01*
X72451904Y-111887142D02*
X71785238Y-111887142D01*
X71785238Y-112934761D02*
X71785238Y-110934761D01*
X72737619Y-110934761D01*
X73404285Y-112363333D02*
X74356666Y-112363333D01*
X73213809Y-112934761D02*
X73880476Y-110934761D01*
X74547142Y-112934761D01*
X76356666Y-112744285D02*
X76261428Y-112839523D01*
X75975714Y-112934761D01*
X75785238Y-112934761D01*
X75499523Y-112839523D01*
X75309047Y-112649047D01*
X75213809Y-112458571D01*
X75118571Y-112077619D01*
X75118571Y-111791904D01*
X75213809Y-111410952D01*
X75309047Y-111220476D01*
X75499523Y-111030000D01*
X75785238Y-110934761D01*
X75975714Y-110934761D01*
X76261428Y-111030000D01*
X76356666Y-111125238D01*
X77213809Y-111887142D02*
X77880476Y-111887142D01*
X78166190Y-112934761D02*
X77213809Y-112934761D01*
X77213809Y-110934761D01*
X78166190Y-110934761D01*
X74409047Y-127982380D02*
X74599523Y-127982380D01*
X74694761Y-128030000D01*
X74790000Y-128125238D01*
X74837619Y-128315714D01*
X74837619Y-128649047D01*
X74790000Y-128839523D01*
X74694761Y-128934761D01*
X74599523Y-128982380D01*
X74409047Y-128982380D01*
X74313809Y-128934761D01*
X74218571Y-128839523D01*
X74170952Y-128649047D01*
X74170952Y-128315714D01*
X74218571Y-128125238D01*
X74313809Y-128030000D01*
X74409047Y-127982380D01*
X75266190Y-128982380D02*
X75266190Y-127982380D01*
X75504285Y-127982380D01*
X75647142Y-128030000D01*
X75742380Y-128125238D01*
X75790000Y-128220476D01*
X75837619Y-128410952D01*
X75837619Y-128553809D01*
X75790000Y-128744285D01*
X75742380Y-128839523D01*
X75647142Y-128934761D01*
X75504285Y-128982380D01*
X75266190Y-128982380D01*
X76790000Y-128982380D02*
X76218571Y-128982380D01*
X76504285Y-128982380D02*
X76504285Y-127982380D01*
X76409047Y-128125238D01*
X76313809Y-128220476D01*
X76218571Y-128268095D01*
X76980476Y-129077619D02*
X77742380Y-129077619D01*
X77742380Y-127615000D02*
X78742380Y-127615000D01*
X78551904Y-128887142D02*
X78504285Y-128934761D01*
X78361428Y-128982380D01*
X78266190Y-128982380D01*
X78123333Y-128934761D01*
X78028095Y-128839523D01*
X77980476Y-128744285D01*
X77932857Y-128553809D01*
X77932857Y-128410952D01*
X77980476Y-128220476D01*
X78028095Y-128125238D01*
X78123333Y-128030000D01*
X78266190Y-127982380D01*
X78361428Y-127982380D01*
X78504285Y-128030000D01*
X78551904Y-128077619D01*
X78742380Y-127615000D02*
X79551904Y-127615000D01*
X79456666Y-128982380D02*
X78980476Y-128982380D01*
X78980476Y-127982380D01*
X79551904Y-127615000D02*
X80599523Y-127615000D01*
X79980476Y-127982380D02*
X80170952Y-127982380D01*
X80266190Y-128030000D01*
X80361428Y-128125238D01*
X80409047Y-128315714D01*
X80409047Y-128649047D01*
X80361428Y-128839523D01*
X80266190Y-128934761D01*
X80170952Y-128982380D01*
X79980476Y-128982380D01*
X79885238Y-128934761D01*
X79790000Y-128839523D01*
X79742380Y-128649047D01*
X79742380Y-128315714D01*
X79790000Y-128125238D01*
X79885238Y-128030000D01*
X79980476Y-127982380D01*
X80599523Y-127615000D02*
X81599523Y-127615000D01*
X81409047Y-128887142D02*
X81361428Y-128934761D01*
X81218571Y-128982380D01*
X81123333Y-128982380D01*
X80980476Y-128934761D01*
X80885238Y-128839523D01*
X80837619Y-128744285D01*
X80790000Y-128553809D01*
X80790000Y-128410952D01*
X80837619Y-128220476D01*
X80885238Y-128125238D01*
X80980476Y-128030000D01*
X81123333Y-127982380D01*
X81218571Y-127982380D01*
X81361428Y-128030000D01*
X81409047Y-128077619D01*
X81599523Y-127615000D02*
X82599523Y-127615000D01*
X81837619Y-128982380D02*
X81837619Y-127982380D01*
X82409047Y-128982380D02*
X81980476Y-128410952D01*
X82409047Y-127982380D02*
X81837619Y-128553809D01*
X70632857Y-125382380D02*
X70823333Y-125382380D01*
X70918571Y-125430000D01*
X71013809Y-125525238D01*
X71061428Y-125715714D01*
X71061428Y-126049047D01*
X71013809Y-126239523D01*
X70918571Y-126334761D01*
X70823333Y-126382380D01*
X70632857Y-126382380D01*
X70537619Y-126334761D01*
X70442380Y-126239523D01*
X70394761Y-126049047D01*
X70394761Y-125715714D01*
X70442380Y-125525238D01*
X70537619Y-125430000D01*
X70632857Y-125382380D01*
X71490000Y-126382380D02*
X71490000Y-125382380D01*
X71728095Y-125382380D01*
X71870952Y-125430000D01*
X71966190Y-125525238D01*
X72013809Y-125620476D01*
X72061428Y-125810952D01*
X72061428Y-125953809D01*
X72013809Y-126144285D01*
X71966190Y-126239523D01*
X71870952Y-126334761D01*
X71728095Y-126382380D01*
X71490000Y-126382380D01*
X73013809Y-126382380D02*
X72442380Y-126382380D01*
X72728095Y-126382380D02*
X72728095Y-125382380D01*
X72632857Y-125525238D01*
X72537619Y-125620476D01*
X72442380Y-125668095D01*
X73204285Y-126477619D02*
X73966190Y-126477619D01*
X73966190Y-125015000D02*
X74823333Y-125015000D01*
X74537619Y-125858571D02*
X74204285Y-125858571D01*
X74204285Y-126382380D02*
X74204285Y-125382380D01*
X74680476Y-125382380D01*
X74823333Y-125015000D02*
X75632857Y-125015000D01*
X75537619Y-126382380D02*
X75061428Y-126382380D01*
X75061428Y-125382380D01*
X75632857Y-125015000D02*
X76490000Y-125015000D01*
X75823333Y-126096666D02*
X76299523Y-126096666D01*
X75728095Y-126382380D02*
X76061428Y-125382380D01*
X76394761Y-126382380D01*
X76490000Y-125015000D02*
X77490000Y-125015000D01*
X77251904Y-125430000D02*
X77156666Y-125382380D01*
X77013809Y-125382380D01*
X76870952Y-125430000D01*
X76775714Y-125525238D01*
X76728095Y-125620476D01*
X76680476Y-125810952D01*
X76680476Y-125953809D01*
X76728095Y-126144285D01*
X76775714Y-126239523D01*
X76870952Y-126334761D01*
X77013809Y-126382380D01*
X77109047Y-126382380D01*
X77251904Y-126334761D01*
X77299523Y-126287142D01*
X77299523Y-125953809D01*
X77109047Y-125953809D01*
X77490000Y-125015000D02*
X78251904Y-125015000D01*
X77490000Y-126477619D02*
X78251904Y-126477619D01*
X78251904Y-125015000D02*
X79251904Y-125015000D01*
X79061428Y-126382380D02*
X78728095Y-125906190D01*
X78490000Y-126382380D02*
X78490000Y-125382380D01*
X78870952Y-125382380D01*
X78966190Y-125430000D01*
X79013809Y-125477619D01*
X79061428Y-125572857D01*
X79061428Y-125715714D01*
X79013809Y-125810952D01*
X78966190Y-125858571D01*
X78870952Y-125906190D01*
X78490000Y-125906190D01*
X79251904Y-125015000D02*
X80156666Y-125015000D01*
X79490000Y-125858571D02*
X79823333Y-125858571D01*
X79966190Y-126382380D02*
X79490000Y-126382380D01*
X79490000Y-125382380D01*
X79966190Y-125382380D01*
X80156666Y-125015000D02*
X81109047Y-125015000D01*
X80347142Y-126334761D02*
X80490000Y-126382380D01*
X80728095Y-126382380D01*
X80823333Y-126334761D01*
X80870952Y-126287142D01*
X80918571Y-126191904D01*
X80918571Y-126096666D01*
X80870952Y-126001428D01*
X80823333Y-125953809D01*
X80728095Y-125906190D01*
X80537619Y-125858571D01*
X80442380Y-125810952D01*
X80394761Y-125763333D01*
X80347142Y-125668095D01*
X80347142Y-125572857D01*
X80394761Y-125477619D01*
X80442380Y-125430000D01*
X80537619Y-125382380D01*
X80775714Y-125382380D01*
X80918571Y-125430000D01*
X81109047Y-125015000D02*
X82013809Y-125015000D01*
X81347142Y-125858571D02*
X81680476Y-125858571D01*
X81823333Y-126382380D02*
X81347142Y-126382380D01*
X81347142Y-125382380D01*
X81823333Y-125382380D01*
X82013809Y-125015000D02*
X82775714Y-125015000D01*
X82109047Y-125382380D02*
X82680476Y-125382380D01*
X82394761Y-126382380D02*
X82394761Y-125382380D01*
X88075714Y-122982380D02*
X88266190Y-122982380D01*
X88361428Y-123030000D01*
X88456666Y-123125238D01*
X88504285Y-123315714D01*
X88504285Y-123649047D01*
X88456666Y-123839523D01*
X88361428Y-123934761D01*
X88266190Y-123982380D01*
X88075714Y-123982380D01*
X87980476Y-123934761D01*
X87885238Y-123839523D01*
X87837619Y-123649047D01*
X87837619Y-123315714D01*
X87885238Y-123125238D01*
X87980476Y-123030000D01*
X88075714Y-122982380D01*
X88932857Y-123982380D02*
X88932857Y-122982380D01*
X89170952Y-122982380D01*
X89313809Y-123030000D01*
X89409047Y-123125238D01*
X89456666Y-123220476D01*
X89504285Y-123410952D01*
X89504285Y-123553809D01*
X89456666Y-123744285D01*
X89409047Y-123839523D01*
X89313809Y-123934761D01*
X89170952Y-123982380D01*
X88932857Y-123982380D01*
X90456666Y-123982380D02*
X89885238Y-123982380D01*
X90170952Y-123982380D02*
X90170952Y-122982380D01*
X90075714Y-123125238D01*
X89980476Y-123220476D01*
X89885238Y-123268095D01*
X90647142Y-124077619D02*
X91409047Y-124077619D01*
X91409047Y-122615000D02*
X92266190Y-122615000D01*
X91980476Y-123458571D02*
X91647142Y-123458571D01*
X91647142Y-123982380D02*
X91647142Y-122982380D01*
X92123333Y-122982380D01*
X92266190Y-122615000D02*
X93075714Y-122615000D01*
X92980476Y-123982380D02*
X92504285Y-123982380D01*
X92504285Y-122982380D01*
X93075714Y-122615000D02*
X93932857Y-122615000D01*
X93266190Y-123696666D02*
X93742380Y-123696666D01*
X93170952Y-123982380D02*
X93504285Y-122982380D01*
X93837619Y-123982380D01*
X93932857Y-122615000D02*
X94932857Y-122615000D01*
X94694761Y-123030000D02*
X94599523Y-122982380D01*
X94456666Y-122982380D01*
X94313809Y-123030000D01*
X94218571Y-123125238D01*
X94170952Y-123220476D01*
X94123333Y-123410952D01*
X94123333Y-123553809D01*
X94170952Y-123744285D01*
X94218571Y-123839523D01*
X94313809Y-123934761D01*
X94456666Y-123982380D01*
X94551904Y-123982380D01*
X94694761Y-123934761D01*
X94742380Y-123887142D01*
X94742380Y-123553809D01*
X94551904Y-123553809D01*
X75999523Y-123082380D02*
X76190000Y-123082380D01*
X76285238Y-123130000D01*
X76380476Y-123225238D01*
X76428095Y-123415714D01*
X76428095Y-123749047D01*
X76380476Y-123939523D01*
X76285238Y-124034761D01*
X76190000Y-124082380D01*
X75999523Y-124082380D01*
X75904285Y-124034761D01*
X75809047Y-123939523D01*
X75761428Y-123749047D01*
X75761428Y-123415714D01*
X75809047Y-123225238D01*
X75904285Y-123130000D01*
X75999523Y-123082380D01*
X76856666Y-124082380D02*
X76856666Y-123082380D01*
X77094761Y-123082380D01*
X77237619Y-123130000D01*
X77332857Y-123225238D01*
X77380476Y-123320476D01*
X77428095Y-123510952D01*
X77428095Y-123653809D01*
X77380476Y-123844285D01*
X77332857Y-123939523D01*
X77237619Y-124034761D01*
X77094761Y-124082380D01*
X76856666Y-124082380D01*
X78380476Y-124082380D02*
X77809047Y-124082380D01*
X78094761Y-124082380D02*
X78094761Y-123082380D01*
X77999523Y-123225238D01*
X77904285Y-123320476D01*
X77809047Y-123368095D01*
X78570952Y-124177619D02*
X79332857Y-124177619D01*
X79332857Y-122715000D02*
X80332857Y-122715000D01*
X79570952Y-124082380D02*
X79570952Y-123082380D01*
X79809047Y-123082380D01*
X79951904Y-123130000D01*
X80047142Y-123225238D01*
X80094761Y-123320476D01*
X80142380Y-123510952D01*
X80142380Y-123653809D01*
X80094761Y-123844285D01*
X80047142Y-123939523D01*
X79951904Y-124034761D01*
X79809047Y-124082380D01*
X79570952Y-124082380D01*
X80332857Y-122715000D02*
X81190000Y-122715000D01*
X80523333Y-123796666D02*
X80999523Y-123796666D01*
X80428095Y-124082380D02*
X80761428Y-123082380D01*
X81094761Y-124082380D01*
X81190000Y-122715000D02*
X81951904Y-122715000D01*
X81285238Y-123082380D02*
X81856666Y-123082380D01*
X81570952Y-124082380D02*
X81570952Y-123082380D01*
X81951904Y-122715000D02*
X82809047Y-122715000D01*
X82142380Y-123796666D02*
X82618571Y-123796666D01*
X82047142Y-124082380D02*
X82380476Y-123082380D01*
X82713809Y-124082380D01*
X259713809Y-109612142D02*
X260380476Y-109612142D01*
X260666190Y-110659761D02*
X259713809Y-110659761D01*
X259713809Y-108659761D01*
X260666190Y-108659761D01*
X261523333Y-110659761D02*
X261523333Y-108659761D01*
X261999523Y-108659761D01*
X262285238Y-108755000D01*
X262475714Y-108945476D01*
X262570952Y-109135952D01*
X262666190Y-109516904D01*
X262666190Y-109802619D01*
X262570952Y-110183571D01*
X262475714Y-110374047D01*
X262285238Y-110564523D01*
X261999523Y-110659761D01*
X261523333Y-110659761D01*
X263523333Y-108659761D02*
X263523333Y-110278809D01*
X263618571Y-110469285D01*
X263713809Y-110564523D01*
X263904285Y-110659761D01*
X264285238Y-110659761D01*
X264475714Y-110564523D01*
X264570952Y-110469285D01*
X264666190Y-110278809D01*
X264666190Y-108659761D01*
X266761428Y-110469285D02*
X266666190Y-110564523D01*
X266380476Y-110659761D01*
X266190000Y-110659761D01*
X265904285Y-110564523D01*
X265713809Y-110374047D01*
X265618571Y-110183571D01*
X265523333Y-109802619D01*
X265523333Y-109516904D01*
X265618571Y-109135952D01*
X265713809Y-108945476D01*
X265904285Y-108755000D01*
X266190000Y-108659761D01*
X266380476Y-108659761D01*
X266666190Y-108755000D01*
X266761428Y-108850238D01*
X267904285Y-109516904D02*
X267713809Y-109421666D01*
X267618571Y-109326428D01*
X267523333Y-109135952D01*
X267523333Y-109040714D01*
X267618571Y-108850238D01*
X267713809Y-108755000D01*
X267904285Y-108659761D01*
X268285238Y-108659761D01*
X268475714Y-108755000D01*
X268570952Y-108850238D01*
X268666190Y-109040714D01*
X268666190Y-109135952D01*
X268570952Y-109326428D01*
X268475714Y-109421666D01*
X268285238Y-109516904D01*
X267904285Y-109516904D01*
X267713809Y-109612142D01*
X267618571Y-109707380D01*
X267523333Y-109897857D01*
X267523333Y-110278809D01*
X267618571Y-110469285D01*
X267713809Y-110564523D01*
X267904285Y-110659761D01*
X268285238Y-110659761D01*
X268475714Y-110564523D01*
X268570952Y-110469285D01*
X268666190Y-110278809D01*
X268666190Y-109897857D01*
X268570952Y-109707380D01*
X268475714Y-109612142D01*
X268285238Y-109516904D01*
X269523333Y-110659761D02*
X269523333Y-108659761D01*
X270190000Y-110088333D01*
X270856666Y-108659761D01*
X270856666Y-110659761D01*
X271809047Y-109612142D02*
X272475714Y-109612142D01*
X272761428Y-110659761D02*
X271809047Y-110659761D01*
X271809047Y-108659761D01*
X272761428Y-108659761D01*
X258856666Y-113809761D02*
X258856666Y-111809761D01*
X259809047Y-113809761D02*
X259809047Y-111809761D01*
X260951904Y-113809761D01*
X260951904Y-111809761D01*
X261618571Y-111809761D02*
X262761428Y-111809761D01*
X262190000Y-113809761D02*
X262190000Y-111809761D01*
X263428095Y-112762142D02*
X264094761Y-112762142D01*
X264380476Y-113809761D02*
X263428095Y-113809761D01*
X263428095Y-111809761D01*
X264380476Y-111809761D01*
X266380476Y-113809761D02*
X265713809Y-112857380D01*
X265237619Y-113809761D02*
X265237619Y-111809761D01*
X265999523Y-111809761D01*
X266190000Y-111905000D01*
X266285238Y-112000238D01*
X266380476Y-112190714D01*
X266380476Y-112476428D01*
X266285238Y-112666904D01*
X266190000Y-112762142D01*
X265999523Y-112857380D01*
X265237619Y-112857380D01*
X267904285Y-112762142D02*
X267237619Y-112762142D01*
X267237619Y-113809761D02*
X267237619Y-111809761D01*
X268190000Y-111809761D01*
X268856666Y-113238333D02*
X269809047Y-113238333D01*
X268666190Y-113809761D02*
X269332857Y-111809761D01*
X269999523Y-113809761D01*
X271809047Y-113619285D02*
X271713809Y-113714523D01*
X271428095Y-113809761D01*
X271237619Y-113809761D01*
X270951904Y-113714523D01*
X270761428Y-113524047D01*
X270666190Y-113333571D01*
X270570952Y-112952619D01*
X270570952Y-112666904D01*
X270666190Y-112285952D01*
X270761428Y-112095476D01*
X270951904Y-111905000D01*
X271237619Y-111809761D01*
X271428095Y-111809761D01*
X271713809Y-111905000D01*
X271809047Y-112000238D01*
X272666190Y-112762142D02*
X273332857Y-112762142D01*
X273618571Y-113809761D02*
X272666190Y-113809761D01*
X272666190Y-111809761D01*
X273618571Y-111809761D01*
X212490000Y-66287142D02*
X212490000Y-63287142D01*
X213204285Y-63287142D01*
X213632857Y-63430000D01*
X213918571Y-63715714D01*
X214061428Y-64001428D01*
X214204285Y-64572857D01*
X214204285Y-65001428D01*
X214061428Y-65572857D01*
X213918571Y-65858571D01*
X213632857Y-66144285D01*
X213204285Y-66287142D01*
X212490000Y-66287142D01*
X216632857Y-66144285D02*
X216347142Y-66287142D01*
X215775714Y-66287142D01*
X215490000Y-66144285D01*
X215347142Y-65858571D01*
X215347142Y-64715714D01*
X215490000Y-64430000D01*
X215775714Y-64287142D01*
X216347142Y-64287142D01*
X216632857Y-64430000D01*
X216775714Y-64715714D01*
X216775714Y-65001428D01*
X215347142Y-65287142D01*
X217918571Y-66144285D02*
X218204285Y-66287142D01*
X218775714Y-66287142D01*
X219061428Y-66144285D01*
X219204285Y-65858571D01*
X219204285Y-65715714D01*
X219061428Y-65430000D01*
X218775714Y-65287142D01*
X218347142Y-65287142D01*
X218061428Y-65144285D01*
X217918571Y-64858571D01*
X217918571Y-64715714D01*
X218061428Y-64430000D01*
X218347142Y-64287142D01*
X218775714Y-64287142D01*
X219061428Y-64430000D01*
X220490000Y-66287142D02*
X220490000Y-64287142D01*
X220490000Y-63287142D02*
X220347142Y-63430000D01*
X220490000Y-63572857D01*
X220632857Y-63430000D01*
X220490000Y-63287142D01*
X220490000Y-63572857D01*
X223204285Y-64287142D02*
X223204285Y-66715714D01*
X223061428Y-67001428D01*
X222918571Y-67144285D01*
X222632857Y-67287142D01*
X222204285Y-67287142D01*
X221918571Y-67144285D01*
X223204285Y-66144285D02*
X222918571Y-66287142D01*
X222347142Y-66287142D01*
X222061428Y-66144285D01*
X221918571Y-66001428D01*
X221775714Y-65715714D01*
X221775714Y-64858571D01*
X221918571Y-64572857D01*
X222061428Y-64430000D01*
X222347142Y-64287142D01*
X222918571Y-64287142D01*
X223204285Y-64430000D01*
X224632857Y-64287142D02*
X224632857Y-66287142D01*
X224632857Y-64572857D02*
X224775714Y-64430000D01*
X225061428Y-64287142D01*
X225490000Y-64287142D01*
X225775714Y-64430000D01*
X225918571Y-64715714D01*
X225918571Y-66287142D01*
X228490000Y-66144285D02*
X228204285Y-66287142D01*
X227632857Y-66287142D01*
X227347142Y-66144285D01*
X227204285Y-65858571D01*
X227204285Y-64715714D01*
X227347142Y-64430000D01*
X227632857Y-64287142D01*
X228204285Y-64287142D01*
X228490000Y-64430000D01*
X228632857Y-64715714D01*
X228632857Y-65001428D01*
X227204285Y-65287142D01*
X231204285Y-66287142D02*
X231204285Y-63287142D01*
X231204285Y-66144285D02*
X230918571Y-66287142D01*
X230347142Y-66287142D01*
X230061428Y-66144285D01*
X229918571Y-66001428D01*
X229775714Y-65715714D01*
X229775714Y-64858571D01*
X229918571Y-64572857D01*
X230061428Y-64430000D01*
X230347142Y-64287142D01*
X230918571Y-64287142D01*
X231204285Y-64430000D01*
X234918571Y-66287142D02*
X234918571Y-63287142D01*
X234918571Y-64430000D02*
X235204285Y-64287142D01*
X235775714Y-64287142D01*
X236061428Y-64430000D01*
X236204285Y-64572857D01*
X236347142Y-64858571D01*
X236347142Y-65715714D01*
X236204285Y-66001428D01*
X236061428Y-66144285D01*
X235775714Y-66287142D01*
X235204285Y-66287142D01*
X234918571Y-66144285D01*
X237347142Y-64287142D02*
X238061428Y-66287142D01*
X238775714Y-64287142D02*
X238061428Y-66287142D01*
X237775714Y-67001428D01*
X237632857Y-67144285D01*
X237347142Y-67287142D01*
X199990000Y-70794285D02*
X200418571Y-70937142D01*
X201132857Y-70937142D01*
X201418571Y-70794285D01*
X201561428Y-70651428D01*
X201704285Y-70365714D01*
X201704285Y-70080000D01*
X201561428Y-69794285D01*
X201418571Y-69651428D01*
X201132857Y-69508571D01*
X200561428Y-69365714D01*
X200275714Y-69222857D01*
X200132857Y-69080000D01*
X199990000Y-68794285D01*
X199990000Y-68508571D01*
X200132857Y-68222857D01*
X200275714Y-68080000D01*
X200561428Y-67937142D01*
X201275714Y-67937142D01*
X201704285Y-68080000D01*
X202561428Y-68937142D02*
X203704285Y-68937142D01*
X202990000Y-67937142D02*
X202990000Y-70508571D01*
X203132857Y-70794285D01*
X203418571Y-70937142D01*
X203704285Y-70937142D01*
X205847142Y-70794285D02*
X205561428Y-70937142D01*
X204990000Y-70937142D01*
X204704285Y-70794285D01*
X204561428Y-70508571D01*
X204561428Y-69365714D01*
X204704285Y-69080000D01*
X204990000Y-68937142D01*
X205561428Y-68937142D01*
X205847142Y-69080000D01*
X205990000Y-69365714D01*
X205990000Y-69651428D01*
X204561428Y-69937142D01*
X206990000Y-68937142D02*
X207704285Y-70937142D01*
X208418571Y-68937142D01*
X210704285Y-70794285D02*
X210418571Y-70937142D01*
X209847142Y-70937142D01*
X209561428Y-70794285D01*
X209418571Y-70508571D01*
X209418571Y-69365714D01*
X209561428Y-69080000D01*
X209847142Y-68937142D01*
X210418571Y-68937142D01*
X210704285Y-69080000D01*
X210847142Y-69365714D01*
X210847142Y-69651428D01*
X209418571Y-69937142D01*
X212132857Y-68937142D02*
X212132857Y-70937142D01*
X212132857Y-69222857D02*
X212275714Y-69080000D01*
X212561428Y-68937142D01*
X212990000Y-68937142D01*
X213275714Y-69080000D01*
X213418571Y-69365714D01*
X213418571Y-70937142D01*
X217132857Y-70937142D02*
X217132857Y-67937142D01*
X218275714Y-67937142D01*
X218561428Y-68080000D01*
X218704285Y-68222857D01*
X218847142Y-68508571D01*
X218847142Y-68937142D01*
X218704285Y-69222857D01*
X218561428Y-69365714D01*
X218275714Y-69508571D01*
X217132857Y-69508571D01*
X221275714Y-70794285D02*
X220990000Y-70937142D01*
X220418571Y-70937142D01*
X220132857Y-70794285D01*
X219990000Y-70508571D01*
X219990000Y-69365714D01*
X220132857Y-69080000D01*
X220418571Y-68937142D01*
X220990000Y-68937142D01*
X221275714Y-69080000D01*
X221418571Y-69365714D01*
X221418571Y-69651428D01*
X219990000Y-69937142D01*
X222704285Y-70937142D02*
X222704285Y-68937142D01*
X222704285Y-67937142D02*
X222561428Y-68080000D01*
X222704285Y-68222857D01*
X222847142Y-68080000D01*
X222704285Y-67937142D01*
X222704285Y-68222857D01*
X223704285Y-68937142D02*
X224847142Y-68937142D01*
X224132857Y-67937142D02*
X224132857Y-70508571D01*
X224275714Y-70794285D01*
X224561428Y-70937142D01*
X224847142Y-70937142D01*
X225847142Y-70937142D02*
X225847142Y-68937142D01*
X225847142Y-69508571D02*
X225990000Y-69222857D01*
X226132857Y-69080000D01*
X226418571Y-68937142D01*
X226704285Y-68937142D01*
X228132857Y-70937142D02*
X227847142Y-70794285D01*
X227704285Y-70651428D01*
X227561428Y-70365714D01*
X227561428Y-69508571D01*
X227704285Y-69222857D01*
X227847142Y-69080000D01*
X228132857Y-68937142D01*
X228561428Y-68937142D01*
X228847142Y-69080000D01*
X228990000Y-69222857D01*
X229132857Y-69508571D01*
X229132857Y-70365714D01*
X228990000Y-70651428D01*
X228847142Y-70794285D01*
X228561428Y-70937142D01*
X228132857Y-70937142D01*
X230418571Y-70937142D02*
X230418571Y-67937142D01*
X230418571Y-69080000D02*
X230704285Y-68937142D01*
X231275714Y-68937142D01*
X231561428Y-69080000D01*
X231704285Y-69222857D01*
X231847142Y-69508571D01*
X231847142Y-70365714D01*
X231704285Y-70651428D01*
X231561428Y-70794285D01*
X231275714Y-70937142D01*
X230704285Y-70937142D01*
X230418571Y-70794285D01*
X233561428Y-70937142D02*
X233275714Y-70794285D01*
X233132857Y-70651428D01*
X232990000Y-70365714D01*
X232990000Y-69508571D01*
X233132857Y-69222857D01*
X233275714Y-69080000D01*
X233561428Y-68937142D01*
X233990000Y-68937142D01*
X234275714Y-69080000D01*
X234418571Y-69222857D01*
X234561428Y-69508571D01*
X234561428Y-70365714D01*
X234418571Y-70651428D01*
X234275714Y-70794285D01*
X233990000Y-70937142D01*
X233561428Y-70937142D01*
X235847142Y-68937142D02*
X235847142Y-70937142D01*
X235847142Y-69222857D02*
X235990000Y-69080000D01*
X236275714Y-68937142D01*
X236704285Y-68937142D01*
X236990000Y-69080000D01*
X237132857Y-69365714D01*
X237132857Y-70937142D01*
X240704285Y-68222857D02*
X240847142Y-68080000D01*
X241132857Y-67937142D01*
X241847142Y-67937142D01*
X242132857Y-68080000D01*
X242275714Y-68222857D01*
X242418571Y-68508571D01*
X242418571Y-68794285D01*
X242275714Y-69222857D01*
X240561428Y-70937142D01*
X242418571Y-70937142D01*
X244275714Y-67937142D02*
X244561428Y-67937142D01*
X244847142Y-68080000D01*
X244990000Y-68222857D01*
X245132857Y-68508571D01*
X245275714Y-69080000D01*
X245275714Y-69794285D01*
X245132857Y-70365714D01*
X244990000Y-70651428D01*
X244847142Y-70794285D01*
X244561428Y-70937142D01*
X244275714Y-70937142D01*
X243990000Y-70794285D01*
X243847142Y-70651428D01*
X243704285Y-70365714D01*
X243561428Y-69794285D01*
X243561428Y-69080000D01*
X243704285Y-68508571D01*
X243847142Y-68222857D01*
X243990000Y-68080000D01*
X244275714Y-67937142D01*
X246418571Y-68222857D02*
X246561428Y-68080000D01*
X246847142Y-67937142D01*
X247561428Y-67937142D01*
X247847142Y-68080000D01*
X247990000Y-68222857D01*
X248132857Y-68508571D01*
X248132857Y-68794285D01*
X247990000Y-69222857D01*
X246275714Y-70937142D01*
X248132857Y-70937142D01*
X249275714Y-68222857D02*
X249418571Y-68080000D01*
X249704285Y-67937142D01*
X250418571Y-67937142D01*
X250704285Y-68080000D01*
X250847142Y-68222857D01*
X250990000Y-68508571D01*
X250990000Y-68794285D01*
X250847142Y-69222857D01*
X249132857Y-70937142D01*
X250990000Y-70937142D01*
X216918571Y-80237142D02*
X216918571Y-77237142D01*
X218061428Y-77237142D01*
X218347142Y-77380000D01*
X218490000Y-77522857D01*
X218632857Y-77808571D01*
X218632857Y-78237142D01*
X218490000Y-78522857D01*
X218347142Y-78665714D01*
X218061428Y-78808571D01*
X216918571Y-78808571D01*
X221632857Y-79951428D02*
X221490000Y-80094285D01*
X221061428Y-80237142D01*
X220775714Y-80237142D01*
X220347142Y-80094285D01*
X220061428Y-79808571D01*
X219918571Y-79522857D01*
X219775714Y-78951428D01*
X219775714Y-78522857D01*
X219918571Y-77951428D01*
X220061428Y-77665714D01*
X220347142Y-77380000D01*
X220775714Y-77237142D01*
X221061428Y-77237142D01*
X221490000Y-77380000D01*
X221632857Y-77522857D01*
X223918571Y-78665714D02*
X224347142Y-78808571D01*
X224490000Y-78951428D01*
X224632857Y-79237142D01*
X224632857Y-79665714D01*
X224490000Y-79951428D01*
X224347142Y-80094285D01*
X224061428Y-80237142D01*
X222918571Y-80237142D01*
X222918571Y-77237142D01*
X223918571Y-77237142D01*
X224204285Y-77380000D01*
X224347142Y-77522857D01*
X224490000Y-77808571D01*
X224490000Y-78094285D01*
X224347142Y-78380000D01*
X224204285Y-78522857D01*
X223918571Y-78665714D01*
X222918571Y-78665714D01*
X228204285Y-80237142D02*
X228204285Y-77237142D01*
X228204285Y-78380000D02*
X228490000Y-78237142D01*
X229061428Y-78237142D01*
X229347142Y-78380000D01*
X229490000Y-78522857D01*
X229632857Y-78808571D01*
X229632857Y-79665714D01*
X229490000Y-79951428D01*
X229347142Y-80094285D01*
X229061428Y-80237142D01*
X228490000Y-80237142D01*
X228204285Y-80094285D01*
X230632857Y-78237142D02*
X231347142Y-80237142D01*
X232061428Y-78237142D02*
X231347142Y-80237142D01*
X231061428Y-80951428D01*
X230918571Y-81094285D01*
X230632857Y-81237142D01*
X211847142Y-82030000D02*
X211561428Y-81887142D01*
X211132857Y-81887142D01*
X210704285Y-82030000D01*
X210418571Y-82315714D01*
X210275714Y-82601428D01*
X210132857Y-83172857D01*
X210132857Y-83601428D01*
X210275714Y-84172857D01*
X210418571Y-84458571D01*
X210704285Y-84744285D01*
X211132857Y-84887142D01*
X211418571Y-84887142D01*
X211847142Y-84744285D01*
X211990000Y-84601428D01*
X211990000Y-83601428D01*
X211418571Y-83601428D01*
X212990000Y-82887142D02*
X213561428Y-84887142D01*
X214132857Y-83458571D01*
X214704285Y-84887142D01*
X215275714Y-82887142D01*
X216132857Y-82887142D02*
X216847142Y-84887142D01*
X217561428Y-82887142D02*
X216847142Y-84887142D01*
X216561428Y-85601428D01*
X216418571Y-85744285D01*
X216132857Y-85887142D01*
X219132857Y-84887142D02*
X218847142Y-84744285D01*
X218704285Y-84458571D01*
X218704285Y-81887142D01*
X220704285Y-84887142D02*
X220418571Y-84744285D01*
X220275714Y-84458571D01*
X220275714Y-81887142D01*
X221561428Y-82887142D02*
X222275714Y-84887142D01*
X222990000Y-82887142D02*
X222275714Y-84887142D01*
X221990000Y-85601428D01*
X221847142Y-85744285D01*
X221561428Y-85887142D01*
X224132857Y-84887142D02*
X224132857Y-82887142D01*
X224132857Y-83172857D02*
X224275714Y-83030000D01*
X224561428Y-82887142D01*
X224990000Y-82887142D01*
X225275714Y-83030000D01*
X225418571Y-83315714D01*
X225418571Y-84887142D01*
X225418571Y-83315714D02*
X225561428Y-83030000D01*
X225847142Y-82887142D01*
X226275714Y-82887142D01*
X226561428Y-83030000D01*
X226704285Y-83315714D01*
X226704285Y-84887142D01*
X230275714Y-84744285D02*
X230704285Y-84887142D01*
X231418571Y-84887142D01*
X231704285Y-84744285D01*
X231847142Y-84601428D01*
X231990000Y-84315714D01*
X231990000Y-84030000D01*
X231847142Y-83744285D01*
X231704285Y-83601428D01*
X231418571Y-83458571D01*
X230847142Y-83315714D01*
X230561428Y-83172857D01*
X230418571Y-83030000D01*
X230275714Y-82744285D01*
X230275714Y-82458571D01*
X230418571Y-82172857D01*
X230561428Y-82030000D01*
X230847142Y-81887142D01*
X231561428Y-81887142D01*
X231990000Y-82030000D01*
X234561428Y-82887142D02*
X234561428Y-84887142D01*
X233275714Y-82887142D02*
X233275714Y-84458571D01*
X233418571Y-84744285D01*
X233704285Y-84887142D01*
X234132857Y-84887142D01*
X234418571Y-84744285D01*
X234561428Y-84601428D01*
X235561428Y-82887142D02*
X236704285Y-82887142D01*
X235990000Y-81887142D02*
X235990000Y-84458571D01*
X236132857Y-84744285D01*
X236418571Y-84887142D01*
X236704285Y-84887142D01*
X238847142Y-84744285D02*
X238561428Y-84887142D01*
X237990000Y-84887142D01*
X237704285Y-84744285D01*
X237561428Y-84458571D01*
X237561428Y-83315714D01*
X237704285Y-83030000D01*
X237990000Y-82887142D01*
X238561428Y-82887142D01*
X238847142Y-83030000D01*
X238990000Y-83315714D01*
X238990000Y-83601428D01*
X237561428Y-83887142D01*
X240275714Y-84887142D02*
X240275714Y-82887142D01*
X240275714Y-83458571D02*
X240418571Y-83172857D01*
X240561428Y-83030000D01*
X240847142Y-82887142D01*
X241132857Y-82887142D01*
D12*
X78982589Y-67472857D02*
X80649255Y-67472857D01*
X81036160Y-70091904D02*
X78655208Y-70091904D01*
X79280208Y-65091904D01*
X81661160Y-65091904D01*
X84250446Y-67234761D02*
X83804017Y-66996666D01*
X83595684Y-66758571D01*
X83417113Y-66282380D01*
X83446875Y-66044285D01*
X83744494Y-65568095D01*
X84012351Y-65330000D01*
X84518303Y-65091904D01*
X85470684Y-65091904D01*
X85917113Y-65330000D01*
X86125446Y-65568095D01*
X86304017Y-66044285D01*
X86274255Y-66282380D01*
X85976636Y-66758571D01*
X85708779Y-66996666D01*
X85202827Y-67234761D01*
X84250446Y-67234761D01*
X83744494Y-67472857D01*
X83476636Y-67710952D01*
X83179017Y-68187142D01*
X83059970Y-69139523D01*
X83238541Y-69615714D01*
X83446875Y-69853809D01*
X83893303Y-70091904D01*
X84845684Y-70091904D01*
X85351636Y-69853809D01*
X85619494Y-69615714D01*
X85917113Y-69139523D01*
X86036160Y-68187142D01*
X85857589Y-67710952D01*
X85649255Y-67472857D01*
X85202827Y-67234761D01*
X92167113Y-64853809D02*
X87077827Y-71282380D01*
X95173065Y-67472857D02*
X95857589Y-67710952D01*
X96065922Y-67949047D01*
X96244494Y-68425238D01*
X96155208Y-69139523D01*
X95857589Y-69615714D01*
X95589732Y-69853809D01*
X95083779Y-70091904D01*
X93179017Y-70091904D01*
X93804017Y-65091904D01*
X95470684Y-65091904D01*
X95917113Y-65330000D01*
X96125446Y-65568095D01*
X96304017Y-66044285D01*
X96244494Y-66520476D01*
X95946875Y-66996666D01*
X95679017Y-67234761D01*
X95173065Y-67472857D01*
X93506398Y-67472857D01*
D10*
X117799523Y-82459761D02*
X118942380Y-82459761D01*
X118370952Y-84459761D02*
X118370952Y-82459761D01*
X119990000Y-82459761D02*
X120370952Y-82459761D01*
X120561428Y-82555000D01*
X120751904Y-82745476D01*
X120847142Y-83126428D01*
X120847142Y-83793095D01*
X120751904Y-84174047D01*
X120561428Y-84364523D01*
X120370952Y-84459761D01*
X119990000Y-84459761D01*
X119799523Y-84364523D01*
X119609047Y-84174047D01*
X119513809Y-83793095D01*
X119513809Y-83126428D01*
X119609047Y-82745476D01*
X119799523Y-82555000D01*
X119990000Y-82459761D01*
X123228095Y-83412142D02*
X123894761Y-83412142D01*
X124180476Y-84459761D02*
X123228095Y-84459761D01*
X123228095Y-82459761D01*
X124180476Y-82459761D01*
X125323333Y-83316904D02*
X125132857Y-83221666D01*
X125037619Y-83126428D01*
X124942380Y-82935952D01*
X124942380Y-82840714D01*
X125037619Y-82650238D01*
X125132857Y-82555000D01*
X125323333Y-82459761D01*
X125704285Y-82459761D01*
X125894761Y-82555000D01*
X125989999Y-82650238D01*
X126085238Y-82840714D01*
X126085238Y-82935952D01*
X125989999Y-83126428D01*
X125894761Y-83221666D01*
X125704285Y-83316904D01*
X125323333Y-83316904D01*
X125132857Y-83412142D01*
X125037619Y-83507380D01*
X124942380Y-83697857D01*
X124942380Y-84078809D01*
X125037619Y-84269285D01*
X125132857Y-84364523D01*
X125323333Y-84459761D01*
X125704285Y-84459761D01*
X125894761Y-84364523D01*
X125989999Y-84269285D01*
X126085238Y-84078809D01*
X126085238Y-83697857D01*
X125989999Y-83507380D01*
X125894761Y-83412142D01*
X125704285Y-83316904D01*
X128370952Y-82364523D02*
X126656666Y-84935952D01*
X129037619Y-84459761D02*
X129037619Y-82459761D01*
X129704285Y-83888333D01*
X130370952Y-82459761D01*
X130370952Y-84459761D01*
X115037619Y-87609761D02*
X115037619Y-85609761D01*
X115037619Y-86562142D02*
X116180476Y-86562142D01*
X116180476Y-87609761D02*
X116180476Y-85609761D01*
X117132857Y-87609761D02*
X117132857Y-85609761D01*
X119132857Y-85705000D02*
X118942380Y-85609761D01*
X118656666Y-85609761D01*
X118370952Y-85705000D01*
X118180476Y-85895476D01*
X118085238Y-86085952D01*
X117990000Y-86466904D01*
X117990000Y-86752619D01*
X118085238Y-87133571D01*
X118180476Y-87324047D01*
X118370952Y-87514523D01*
X118656666Y-87609761D01*
X118847142Y-87609761D01*
X119132857Y-87514523D01*
X119228095Y-87419285D01*
X119228095Y-86752619D01*
X118847142Y-86752619D01*
X120085238Y-87609761D02*
X120085238Y-85609761D01*
X120085238Y-86562142D02*
X121228095Y-86562142D01*
X121228095Y-87609761D02*
X121228095Y-85609761D01*
X123704285Y-87609761D02*
X123704285Y-85609761D01*
X124370952Y-87038333D01*
X125037619Y-85609761D01*
X125037619Y-87609761D01*
X125990000Y-86562142D02*
X126656666Y-86562142D01*
X126942380Y-87609761D02*
X125990000Y-87609761D01*
X125990000Y-85609761D01*
X126942380Y-85609761D01*
X127799523Y-87609761D02*
X127799523Y-85609761D01*
X128466190Y-87038333D01*
X129132857Y-85609761D01*
X129132857Y-87609761D01*
X130466190Y-85609761D02*
X130847142Y-85609761D01*
X131037619Y-85705000D01*
X131228095Y-85895476D01*
X131323333Y-86276428D01*
X131323333Y-86943095D01*
X131228095Y-87324047D01*
X131037619Y-87514523D01*
X130847142Y-87609761D01*
X130466190Y-87609761D01*
X130275714Y-87514523D01*
X130085238Y-87324047D01*
X129990000Y-86943095D01*
X129990000Y-86276428D01*
X130085238Y-85895476D01*
X130275714Y-85705000D01*
X130466190Y-85609761D01*
X133323333Y-87609761D02*
X132656666Y-86657380D01*
X132180476Y-87609761D02*
X132180476Y-85609761D01*
X132942380Y-85609761D01*
X133132857Y-85705000D01*
X133228095Y-85800238D01*
X133323333Y-85990714D01*
X133323333Y-86276428D01*
X133228095Y-86466904D01*
X133132857Y-86562142D01*
X132942380Y-86657380D01*
X132180476Y-86657380D01*
X134561428Y-86657380D02*
X134561428Y-87609761D01*
X133894761Y-85609761D02*
X134561428Y-86657380D01*
X135228095Y-85609761D01*
D11*
%TO.C,J5*%
X70540000Y-151030000D02*
X69540000Y-151530000D01*
X70540000Y-152030000D02*
X70540000Y-151030000D01*
X69540000Y-151530000D02*
X70540000Y-152030000D01*
X63920000Y-115840000D02*
X63920000Y-156740000D01*
X54800000Y-115840000D02*
X63920000Y-115840000D01*
X54800000Y-156740000D02*
X54800000Y-115840000D01*
X63920000Y-156740000D02*
X54800000Y-156740000D01*
X63920000Y-134240000D02*
X54800000Y-134240000D01*
X63920000Y-138340000D02*
X54800000Y-138340000D01*
%TO.C,C4*%
X263120000Y-91210000D02*
X273860000Y-91210000D01*
X263120000Y-96450000D02*
X273860000Y-96450000D01*
X263120000Y-91210000D02*
X263120000Y-96450000D01*
X273860000Y-91210000D02*
X273860000Y-96450000D01*
%TO.C,C3*%
X263720000Y-163310000D02*
X274460000Y-163310000D01*
X263720000Y-168550000D02*
X274460000Y-168550000D01*
X263720000Y-163310000D02*
X263720000Y-168550000D01*
X274460000Y-163310000D02*
X274460000Y-168550000D01*
%TO.C,C2*%
X109910000Y-148950000D02*
X99170000Y-148950000D01*
X109910000Y-143710000D02*
X99170000Y-143710000D01*
X109910000Y-148950000D02*
X109910000Y-143710000D01*
X99170000Y-148950000D02*
X99170000Y-143710000D01*
%TO.C,C1*%
X106470000Y-114510000D02*
X117210000Y-114510000D01*
X106470000Y-119750000D02*
X117210000Y-119750000D01*
X106470000Y-114510000D02*
X106470000Y-119750000D01*
X117210000Y-114510000D02*
X117210000Y-119750000D01*
%TO.C,C5*%
X107410000Y-96430000D02*
X105610000Y-96430000D01*
X106510000Y-97330000D02*
X106510000Y-95530000D01*
X105310000Y-98950000D02*
X105310000Y-88710000D01*
X85070000Y-98950000D02*
X85070000Y-88710000D01*
X105310000Y-98950000D02*
X103510000Y-98950000D01*
X103510000Y-98950000D02*
X102610000Y-98050000D01*
X102610000Y-98050000D02*
X101710000Y-98950000D01*
X101710000Y-98950000D02*
X85070000Y-98950000D01*
X105310000Y-88710000D02*
X103510000Y-88710000D01*
X103510000Y-88710000D02*
X102610000Y-89610000D01*
X102610000Y-89610000D02*
X101710000Y-88710000D01*
X101710000Y-88710000D02*
X85070000Y-88710000D01*
X106750000Y-93830000D02*
X105310000Y-93830000D01*
X83630000Y-93830000D02*
X85070000Y-93830000D01*
%TO.C,R26*%
X216720000Y-157180000D02*
X219460000Y-157180000D01*
X219460000Y-157180000D02*
X219460000Y-150640000D01*
X219460000Y-150640000D02*
X216720000Y-150640000D01*
X216720000Y-150640000D02*
X216720000Y-157180000D01*
X218090000Y-160490000D02*
X218090000Y-157180000D01*
X218090000Y-147330000D02*
X218090000Y-150640000D01*
%TO.C,U1*%
X162400000Y-95580000D02*
X161150000Y-95580000D01*
X161150000Y-95580000D02*
X161150000Y-113480000D01*
X161150000Y-113480000D02*
X165650000Y-113480000D01*
X165650000Y-113480000D02*
X165650000Y-95580000D01*
X165650000Y-95580000D02*
X164400000Y-95580000D01*
X164400000Y-95580000D02*
G75*
G02*
X162400000Y-95580000I-1000000J0D01*
G01*
%TO.C,R23*%
X194460000Y-150640000D02*
X191720000Y-150640000D01*
X191720000Y-150640000D02*
X191720000Y-157180000D01*
X191720000Y-157180000D02*
X194460000Y-157180000D01*
X194460000Y-157180000D02*
X194460000Y-150640000D01*
X193090000Y-147330000D02*
X193090000Y-150640000D01*
X193090000Y-160490000D02*
X193090000Y-157180000D01*
%TO.C,R24*%
X187220000Y-157180000D02*
X189960000Y-157180000D01*
X189960000Y-157180000D02*
X189960000Y-150640000D01*
X189960000Y-150640000D02*
X187220000Y-150640000D01*
X187220000Y-150640000D02*
X187220000Y-157180000D01*
X188590000Y-160490000D02*
X188590000Y-157180000D01*
X188590000Y-147330000D02*
X188590000Y-150640000D01*
%TO.C,R25*%
X182720000Y-157180000D02*
X185460000Y-157180000D01*
X185460000Y-157180000D02*
X185460000Y-150640000D01*
X185460000Y-150640000D02*
X182720000Y-150640000D01*
X182720000Y-150640000D02*
X182720000Y-157180000D01*
X184090000Y-160490000D02*
X184090000Y-157180000D01*
X184090000Y-147330000D02*
X184090000Y-150640000D01*
%TO.C,R27*%
X209220000Y-157180000D02*
X211960000Y-157180000D01*
X211960000Y-157180000D02*
X211960000Y-150640000D01*
X211960000Y-150640000D02*
X209220000Y-150640000D01*
X209220000Y-150640000D02*
X209220000Y-157180000D01*
X210590000Y-160490000D02*
X210590000Y-157180000D01*
X210590000Y-147330000D02*
X210590000Y-150640000D01*
D13*
%TO.C,REF\u002A\u002A*%
X75390000Y-67530000D02*
G75*
G03*
X75390000Y-67530000I-3000000J0D01*
G01*
D12*
X71390000Y-65530000D02*
X70690000Y-68430000D01*
D11*
X71350000Y-65460000D02*
X72960000Y-65460000D01*
X68300000Y-67000000D02*
X72500000Y-67000000D01*
X70640000Y-68480000D02*
X76340000Y-68480000D01*
D12*
X73390000Y-67030000D02*
X72590000Y-69430000D01*
D11*
X73430000Y-67020000D02*
X74390000Y-69490000D01*
%TO.C,J3*%
X125400000Y-95580000D02*
X124150000Y-95580000D01*
X124150000Y-95580000D02*
X124150000Y-116020000D01*
X124150000Y-116020000D02*
X128650000Y-116020000D01*
X128650000Y-116020000D02*
X128650000Y-95580000D01*
X128650000Y-95580000D02*
X127400000Y-95580000D01*
X121150000Y-95520000D02*
X121150000Y-116080000D01*
X121150000Y-116080000D02*
X131650000Y-116080000D01*
X131650000Y-116080000D02*
X131650000Y-95520000D01*
X131650000Y-95520000D02*
X121150000Y-95520000D01*
X127400000Y-95580000D02*
G75*
G02*
X125400000Y-95580000I-1000000J0D01*
G01*
%TO.C,U7*%
X235400000Y-150200000D02*
X234150000Y-150200000D01*
X234150000Y-150200000D02*
X234150000Y-168100000D01*
X234150000Y-168100000D02*
X238650000Y-168100000D01*
X238650000Y-168100000D02*
X238650000Y-150200000D01*
X238650000Y-150200000D02*
X237400000Y-150200000D01*
X237400000Y-150200000D02*
G75*
G02*
X235400000Y-150200000I-1000000J0D01*
G01*
%TO.C,U4*%
X125400000Y-150200000D02*
X124150000Y-150200000D01*
X124150000Y-150200000D02*
X124150000Y-168100000D01*
X124150000Y-168100000D02*
X128650000Y-168100000D01*
X128650000Y-168100000D02*
X128650000Y-150200000D01*
X128650000Y-150200000D02*
X127400000Y-150200000D01*
X127400000Y-150200000D02*
G75*
G02*
X125400000Y-150200000I-1000000J0D01*
G01*
%TO.C,U6*%
X200400000Y-150200000D02*
X199150000Y-150200000D01*
X199150000Y-150200000D02*
X199150000Y-168100000D01*
X199150000Y-168100000D02*
X203650000Y-168100000D01*
X203650000Y-168100000D02*
X203650000Y-150200000D01*
X203650000Y-150200000D02*
X202400000Y-150200000D01*
X202400000Y-150200000D02*
G75*
G02*
X200400000Y-150200000I-1000000J0D01*
G01*
%TO.C,U5*%
X162400000Y-150200000D02*
X161150000Y-150200000D01*
X161150000Y-150200000D02*
X161150000Y-168100000D01*
X161150000Y-168100000D02*
X165650000Y-168100000D01*
X165650000Y-168100000D02*
X165650000Y-150200000D01*
X165650000Y-150200000D02*
X164400000Y-150200000D01*
X164400000Y-150200000D02*
G75*
G02*
X162400000Y-150200000I-1000000J0D01*
G01*
%TO.C,U3*%
X235400000Y-95580000D02*
X234150000Y-95580000D01*
X234150000Y-95580000D02*
X234150000Y-113480000D01*
X234150000Y-113480000D02*
X238650000Y-113480000D01*
X238650000Y-113480000D02*
X238650000Y-95580000D01*
X238650000Y-95580000D02*
X237400000Y-95580000D01*
X237400000Y-95580000D02*
G75*
G02*
X235400000Y-95580000I-1000000J0D01*
G01*
%TO.C,U2*%
X200400000Y-95580000D02*
X199150000Y-95580000D01*
X199150000Y-95580000D02*
X199150000Y-113480000D01*
X199150000Y-113480000D02*
X203650000Y-113480000D01*
X203650000Y-113480000D02*
X203650000Y-95580000D01*
X203650000Y-95580000D02*
X202400000Y-95580000D01*
X202400000Y-95580000D02*
G75*
G02*
X200400000Y-95580000I-1000000J0D01*
G01*
%TO.C,J4*%
X264860000Y-134220000D02*
X273980000Y-134220000D01*
X264860000Y-138320000D02*
X273980000Y-138320000D01*
X264860000Y-115820000D02*
X273980000Y-115820000D01*
X273980000Y-115820000D02*
X273980000Y-156720000D01*
X273980000Y-156720000D02*
X264860000Y-156720000D01*
X264860000Y-156720000D02*
X264860000Y-115820000D01*
X259240000Y-121030000D02*
X258240000Y-120530000D01*
X258240000Y-120530000D02*
X258240000Y-121530000D01*
X258240000Y-121530000D02*
X259240000Y-121030000D01*
%TO.C,J5*%
D10*
X61641666Y-157082380D02*
X61641666Y-157796666D01*
X61594047Y-157939523D01*
X61498809Y-158034761D01*
X61355952Y-158082380D01*
X61260714Y-158082380D01*
X62594047Y-157082380D02*
X62117857Y-157082380D01*
X62070238Y-157558571D01*
X62117857Y-157510952D01*
X62213095Y-157463333D01*
X62451190Y-157463333D01*
X62546428Y-157510952D01*
X62594047Y-157558571D01*
X62641666Y-157653809D01*
X62641666Y-157891904D01*
X62594047Y-157987142D01*
X62546428Y-158034761D01*
X62451190Y-158082380D01*
X62213095Y-158082380D01*
X62117857Y-158034761D01*
X62070238Y-157987142D01*
%TO.C,C4*%
X269573333Y-91337142D02*
X269525714Y-91384761D01*
X269382857Y-91432380D01*
X269287619Y-91432380D01*
X269144761Y-91384761D01*
X269049523Y-91289523D01*
X269001904Y-91194285D01*
X268954285Y-91003809D01*
X268954285Y-90860952D01*
X269001904Y-90670476D01*
X269049523Y-90575238D01*
X269144761Y-90480000D01*
X269287619Y-90432380D01*
X269382857Y-90432380D01*
X269525714Y-90480000D01*
X269573333Y-90527619D01*
X270430476Y-90765714D02*
X270430476Y-91432380D01*
X270192380Y-90384761D02*
X269954285Y-91099047D01*
X270573333Y-91099047D01*
%TO.C,C3*%
X270173333Y-163437142D02*
X270125714Y-163484761D01*
X269982857Y-163532380D01*
X269887619Y-163532380D01*
X269744761Y-163484761D01*
X269649523Y-163389523D01*
X269601904Y-163294285D01*
X269554285Y-163103809D01*
X269554285Y-162960952D01*
X269601904Y-162770476D01*
X269649523Y-162675238D01*
X269744761Y-162580000D01*
X269887619Y-162532380D01*
X269982857Y-162532380D01*
X270125714Y-162580000D01*
X270173333Y-162627619D01*
X270506666Y-162532380D02*
X271125714Y-162532380D01*
X270792380Y-162913333D01*
X270935238Y-162913333D01*
X271030476Y-162960952D01*
X271078095Y-163008571D01*
X271125714Y-163103809D01*
X271125714Y-163341904D01*
X271078095Y-163437142D01*
X271030476Y-163484761D01*
X270935238Y-163532380D01*
X270649523Y-163532380D01*
X270554285Y-163484761D01*
X270506666Y-163437142D01*
%TO.C,C2*%
X104373333Y-149537142D02*
X104325714Y-149584761D01*
X104182857Y-149632380D01*
X104087619Y-149632380D01*
X103944761Y-149584761D01*
X103849523Y-149489523D01*
X103801904Y-149394285D01*
X103754285Y-149203809D01*
X103754285Y-149060952D01*
X103801904Y-148870476D01*
X103849523Y-148775238D01*
X103944761Y-148680000D01*
X104087619Y-148632380D01*
X104182857Y-148632380D01*
X104325714Y-148680000D01*
X104373333Y-148727619D01*
X104754285Y-148727619D02*
X104801904Y-148680000D01*
X104897142Y-148632380D01*
X105135238Y-148632380D01*
X105230476Y-148680000D01*
X105278095Y-148727619D01*
X105325714Y-148822857D01*
X105325714Y-148918095D01*
X105278095Y-149060952D01*
X104706666Y-149632380D01*
X105325714Y-149632380D01*
%TO.C,C1*%
X111673333Y-114637142D02*
X111625714Y-114684761D01*
X111482857Y-114732380D01*
X111387619Y-114732380D01*
X111244761Y-114684761D01*
X111149523Y-114589523D01*
X111101904Y-114494285D01*
X111054285Y-114303809D01*
X111054285Y-114160952D01*
X111101904Y-113970476D01*
X111149523Y-113875238D01*
X111244761Y-113780000D01*
X111387619Y-113732380D01*
X111482857Y-113732380D01*
X111625714Y-113780000D01*
X111673333Y-113827619D01*
X112625714Y-114732380D02*
X112054285Y-114732380D01*
X112340000Y-114732380D02*
X112340000Y-113732380D01*
X112244761Y-113875238D01*
X112149523Y-113970476D01*
X112054285Y-114018095D01*
%TO.C,C5*%
X95023333Y-100307142D02*
X94975714Y-100354761D01*
X94832857Y-100402380D01*
X94737619Y-100402380D01*
X94594761Y-100354761D01*
X94499523Y-100259523D01*
X94451904Y-100164285D01*
X94404285Y-99973809D01*
X94404285Y-99830952D01*
X94451904Y-99640476D01*
X94499523Y-99545238D01*
X94594761Y-99450000D01*
X94737619Y-99402380D01*
X94832857Y-99402380D01*
X94975714Y-99450000D01*
X95023333Y-99497619D01*
X95928095Y-99402380D02*
X95451904Y-99402380D01*
X95404285Y-99878571D01*
X95451904Y-99830952D01*
X95547142Y-99783333D01*
X95785238Y-99783333D01*
X95880476Y-99830952D01*
X95928095Y-99878571D01*
X95975714Y-99973809D01*
X95975714Y-100211904D01*
X95928095Y-100307142D01*
X95880476Y-100354761D01*
X95785238Y-100402380D01*
X95547142Y-100402380D01*
X95451904Y-100354761D01*
X95404285Y-100307142D01*
%TO.C,R26*%
X216172380Y-154552857D02*
X215696190Y-154886190D01*
X216172380Y-155124285D02*
X215172380Y-155124285D01*
X215172380Y-154743333D01*
X215220000Y-154648095D01*
X215267619Y-154600476D01*
X215362857Y-154552857D01*
X215505714Y-154552857D01*
X215600952Y-154600476D01*
X215648571Y-154648095D01*
X215696190Y-154743333D01*
X215696190Y-155124285D01*
X215267619Y-154171904D02*
X215220000Y-154124285D01*
X215172380Y-154029047D01*
X215172380Y-153790952D01*
X215220000Y-153695714D01*
X215267619Y-153648095D01*
X215362857Y-153600476D01*
X215458095Y-153600476D01*
X215600952Y-153648095D01*
X216172380Y-154219523D01*
X216172380Y-153600476D01*
X215172380Y-152743333D02*
X215172380Y-152933809D01*
X215220000Y-153029047D01*
X215267619Y-153076666D01*
X215410476Y-153171904D01*
X215600952Y-153219523D01*
X215981904Y-153219523D01*
X216077142Y-153171904D01*
X216124761Y-153124285D01*
X216172380Y-153029047D01*
X216172380Y-152838571D01*
X216124761Y-152743333D01*
X216077142Y-152695714D01*
X215981904Y-152648095D01*
X215743809Y-152648095D01*
X215648571Y-152695714D01*
X215600952Y-152743333D01*
X215553333Y-152838571D01*
X215553333Y-153029047D01*
X215600952Y-153124285D01*
X215648571Y-153171904D01*
X215743809Y-153219523D01*
%TO.C,U1*%
X162638095Y-94032380D02*
X162638095Y-94841904D01*
X162685714Y-94937142D01*
X162733333Y-94984761D01*
X162828571Y-95032380D01*
X163019047Y-95032380D01*
X163114285Y-94984761D01*
X163161904Y-94937142D01*
X163209523Y-94841904D01*
X163209523Y-94032380D01*
X164209523Y-95032380D02*
X163638095Y-95032380D01*
X163923809Y-95032380D02*
X163923809Y-94032380D01*
X163828571Y-94175238D01*
X163733333Y-94270476D01*
X163638095Y-94318095D01*
X160757142Y-113932380D02*
X161423809Y-113932380D01*
X160995238Y-114932380D01*
X162233333Y-114265714D02*
X162233333Y-114932380D01*
X161995238Y-113884761D02*
X161757142Y-114599047D01*
X162376190Y-114599047D01*
X163233333Y-114932380D02*
X162757142Y-114932380D01*
X162757142Y-113932380D01*
X163519047Y-114884761D02*
X163661904Y-114932380D01*
X163900000Y-114932380D01*
X163995238Y-114884761D01*
X164042857Y-114837142D01*
X164090476Y-114741904D01*
X164090476Y-114646666D01*
X164042857Y-114551428D01*
X163995238Y-114503809D01*
X163900000Y-114456190D01*
X163709523Y-114408571D01*
X163614285Y-114360952D01*
X163566666Y-114313333D01*
X163519047Y-114218095D01*
X163519047Y-114122857D01*
X163566666Y-114027619D01*
X163614285Y-113980000D01*
X163709523Y-113932380D01*
X163947619Y-113932380D01*
X164090476Y-113980000D01*
X164423809Y-113932380D02*
X165042857Y-113932380D01*
X164709523Y-114313333D01*
X164852380Y-114313333D01*
X164947619Y-114360952D01*
X164995238Y-114408571D01*
X165042857Y-114503809D01*
X165042857Y-114741904D01*
X164995238Y-114837142D01*
X164947619Y-114884761D01*
X164852380Y-114932380D01*
X164566666Y-114932380D01*
X164471428Y-114884761D01*
X164423809Y-114837142D01*
X165376190Y-113932380D02*
X166042857Y-113932380D01*
X165614285Y-114932380D01*
%TO.C,R23*%
X195912380Y-154552857D02*
X195436190Y-154886190D01*
X195912380Y-155124285D02*
X194912380Y-155124285D01*
X194912380Y-154743333D01*
X194960000Y-154648095D01*
X195007619Y-154600476D01*
X195102857Y-154552857D01*
X195245714Y-154552857D01*
X195340952Y-154600476D01*
X195388571Y-154648095D01*
X195436190Y-154743333D01*
X195436190Y-155124285D01*
X195007619Y-154171904D02*
X194960000Y-154124285D01*
X194912380Y-154029047D01*
X194912380Y-153790952D01*
X194960000Y-153695714D01*
X195007619Y-153648095D01*
X195102857Y-153600476D01*
X195198095Y-153600476D01*
X195340952Y-153648095D01*
X195912380Y-154219523D01*
X195912380Y-153600476D01*
X194912380Y-153267142D02*
X194912380Y-152648095D01*
X195293333Y-152981428D01*
X195293333Y-152838571D01*
X195340952Y-152743333D01*
X195388571Y-152695714D01*
X195483809Y-152648095D01*
X195721904Y-152648095D01*
X195817142Y-152695714D01*
X195864761Y-152743333D01*
X195912380Y-152838571D01*
X195912380Y-153124285D01*
X195864761Y-153219523D01*
X195817142Y-153267142D01*
%TO.C,R24*%
X186672380Y-154552857D02*
X186196190Y-154886190D01*
X186672380Y-155124285D02*
X185672380Y-155124285D01*
X185672380Y-154743333D01*
X185720000Y-154648095D01*
X185767619Y-154600476D01*
X185862857Y-154552857D01*
X186005714Y-154552857D01*
X186100952Y-154600476D01*
X186148571Y-154648095D01*
X186196190Y-154743333D01*
X186196190Y-155124285D01*
X185767619Y-154171904D02*
X185720000Y-154124285D01*
X185672380Y-154029047D01*
X185672380Y-153790952D01*
X185720000Y-153695714D01*
X185767619Y-153648095D01*
X185862857Y-153600476D01*
X185958095Y-153600476D01*
X186100952Y-153648095D01*
X186672380Y-154219523D01*
X186672380Y-153600476D01*
X186005714Y-152743333D02*
X186672380Y-152743333D01*
X185624761Y-152981428D02*
X186339047Y-153219523D01*
X186339047Y-152600476D01*
%TO.C,R25*%
X182172380Y-154552857D02*
X181696190Y-154886190D01*
X182172380Y-155124285D02*
X181172380Y-155124285D01*
X181172380Y-154743333D01*
X181220000Y-154648095D01*
X181267619Y-154600476D01*
X181362857Y-154552857D01*
X181505714Y-154552857D01*
X181600952Y-154600476D01*
X181648571Y-154648095D01*
X181696190Y-154743333D01*
X181696190Y-155124285D01*
X181267619Y-154171904D02*
X181220000Y-154124285D01*
X181172380Y-154029047D01*
X181172380Y-153790952D01*
X181220000Y-153695714D01*
X181267619Y-153648095D01*
X181362857Y-153600476D01*
X181458095Y-153600476D01*
X181600952Y-153648095D01*
X182172380Y-154219523D01*
X182172380Y-153600476D01*
X181172380Y-152695714D02*
X181172380Y-153171904D01*
X181648571Y-153219523D01*
X181600952Y-153171904D01*
X181553333Y-153076666D01*
X181553333Y-152838571D01*
X181600952Y-152743333D01*
X181648571Y-152695714D01*
X181743809Y-152648095D01*
X181981904Y-152648095D01*
X182077142Y-152695714D01*
X182124761Y-152743333D01*
X182172380Y-152838571D01*
X182172380Y-153076666D01*
X182124761Y-153171904D01*
X182077142Y-153219523D01*
%TO.C,R27*%
X208672380Y-154552857D02*
X208196190Y-154886190D01*
X208672380Y-155124285D02*
X207672380Y-155124285D01*
X207672380Y-154743333D01*
X207720000Y-154648095D01*
X207767619Y-154600476D01*
X207862857Y-154552857D01*
X208005714Y-154552857D01*
X208100952Y-154600476D01*
X208148571Y-154648095D01*
X208196190Y-154743333D01*
X208196190Y-155124285D01*
X207767619Y-154171904D02*
X207720000Y-154124285D01*
X207672380Y-154029047D01*
X207672380Y-153790952D01*
X207720000Y-153695714D01*
X207767619Y-153648095D01*
X207862857Y-153600476D01*
X207958095Y-153600476D01*
X208100952Y-153648095D01*
X208672380Y-154219523D01*
X208672380Y-153600476D01*
X207672380Y-153267142D02*
X207672380Y-152600476D01*
X208672380Y-153029047D01*
%TO.C,J3*%
X126066666Y-94032380D02*
X126066666Y-94746666D01*
X126019047Y-94889523D01*
X125923809Y-94984761D01*
X125780952Y-95032380D01*
X125685714Y-95032380D01*
X126447619Y-94032380D02*
X127066666Y-94032380D01*
X126733333Y-94413333D01*
X126876190Y-94413333D01*
X126971428Y-94460952D01*
X127019047Y-94508571D01*
X127066666Y-94603809D01*
X127066666Y-94841904D01*
X127019047Y-94937142D01*
X126971428Y-94984761D01*
X126876190Y-95032380D01*
X126590476Y-95032380D01*
X126495238Y-94984761D01*
X126447619Y-94937142D01*
X122185714Y-117472380D02*
X122185714Y-116472380D01*
X122423809Y-116472380D01*
X122566666Y-116520000D01*
X122661904Y-116615238D01*
X122709523Y-116710476D01*
X122757142Y-116900952D01*
X122757142Y-117043809D01*
X122709523Y-117234285D01*
X122661904Y-117329523D01*
X122566666Y-117424761D01*
X122423809Y-117472380D01*
X122185714Y-117472380D01*
X123185714Y-117472380D02*
X123185714Y-116472380D01*
X123661904Y-117472380D02*
X123661904Y-116472380D01*
X124042857Y-116472380D01*
X124138095Y-116520000D01*
X124185714Y-116567619D01*
X124233333Y-116662857D01*
X124233333Y-116805714D01*
X124185714Y-116900952D01*
X124138095Y-116948571D01*
X124042857Y-116996190D01*
X123661904Y-116996190D01*
X125376190Y-117424761D02*
X125519047Y-117472380D01*
X125757142Y-117472380D01*
X125852380Y-117424761D01*
X125900000Y-117377142D01*
X125947619Y-117281904D01*
X125947619Y-117186666D01*
X125900000Y-117091428D01*
X125852380Y-117043809D01*
X125757142Y-116996190D01*
X125566666Y-116948571D01*
X125471428Y-116900952D01*
X125423809Y-116853333D01*
X125376190Y-116758095D01*
X125376190Y-116662857D01*
X125423809Y-116567619D01*
X125471428Y-116520000D01*
X125566666Y-116472380D01*
X125804761Y-116472380D01*
X125947619Y-116520000D01*
X126566666Y-116472380D02*
X126757142Y-116472380D01*
X126852380Y-116520000D01*
X126947619Y-116615238D01*
X126995238Y-116805714D01*
X126995238Y-117139047D01*
X126947619Y-117329523D01*
X126852380Y-117424761D01*
X126757142Y-117472380D01*
X126566666Y-117472380D01*
X126471428Y-117424761D01*
X126376190Y-117329523D01*
X126328571Y-117139047D01*
X126328571Y-116805714D01*
X126376190Y-116615238D01*
X126471428Y-116520000D01*
X126566666Y-116472380D01*
X127995238Y-117377142D02*
X127947619Y-117424761D01*
X127804761Y-117472380D01*
X127709523Y-117472380D01*
X127566666Y-117424761D01*
X127471428Y-117329523D01*
X127423809Y-117234285D01*
X127376190Y-117043809D01*
X127376190Y-116900952D01*
X127423809Y-116710476D01*
X127471428Y-116615238D01*
X127566666Y-116520000D01*
X127709523Y-116472380D01*
X127804761Y-116472380D01*
X127947619Y-116520000D01*
X127995238Y-116567619D01*
X128423809Y-117472380D02*
X128423809Y-116472380D01*
X128995238Y-117472380D02*
X128566666Y-116900952D01*
X128995238Y-116472380D02*
X128423809Y-117043809D01*
X129423809Y-116948571D02*
X129757142Y-116948571D01*
X129900000Y-117472380D02*
X129423809Y-117472380D01*
X129423809Y-116472380D01*
X129900000Y-116472380D01*
X130185714Y-116472380D02*
X130757142Y-116472380D01*
X130471428Y-117472380D02*
X130471428Y-116472380D01*
%TO.C,U7*%
X235638095Y-148652380D02*
X235638095Y-149461904D01*
X235685714Y-149557142D01*
X235733333Y-149604761D01*
X235828571Y-149652380D01*
X236019047Y-149652380D01*
X236114285Y-149604761D01*
X236161904Y-149557142D01*
X236209523Y-149461904D01*
X236209523Y-148652380D01*
X236590476Y-148652380D02*
X237257142Y-148652380D01*
X236828571Y-149652380D01*
X233757142Y-168552380D02*
X234423809Y-168552380D01*
X233995238Y-169552380D01*
X235233333Y-168885714D02*
X235233333Y-169552380D01*
X234995238Y-168504761D02*
X234757142Y-169219047D01*
X235376190Y-169219047D01*
X236233333Y-169552380D02*
X235757142Y-169552380D01*
X235757142Y-168552380D01*
X236519047Y-169504761D02*
X236661904Y-169552380D01*
X236900000Y-169552380D01*
X236995238Y-169504761D01*
X237042857Y-169457142D01*
X237090476Y-169361904D01*
X237090476Y-169266666D01*
X237042857Y-169171428D01*
X236995238Y-169123809D01*
X236900000Y-169076190D01*
X236709523Y-169028571D01*
X236614285Y-168980952D01*
X236566666Y-168933333D01*
X236519047Y-168838095D01*
X236519047Y-168742857D01*
X236566666Y-168647619D01*
X236614285Y-168600000D01*
X236709523Y-168552380D01*
X236947619Y-168552380D01*
X237090476Y-168600000D01*
X237423809Y-168552380D02*
X238042857Y-168552380D01*
X237709523Y-168933333D01*
X237852380Y-168933333D01*
X237947619Y-168980952D01*
X237995238Y-169028571D01*
X238042857Y-169123809D01*
X238042857Y-169361904D01*
X237995238Y-169457142D01*
X237947619Y-169504761D01*
X237852380Y-169552380D01*
X237566666Y-169552380D01*
X237471428Y-169504761D01*
X237423809Y-169457142D01*
X238376190Y-168552380D02*
X239042857Y-168552380D01*
X238614285Y-169552380D01*
%TO.C,U4*%
X125638095Y-148652380D02*
X125638095Y-149461904D01*
X125685714Y-149557142D01*
X125733333Y-149604761D01*
X125828571Y-149652380D01*
X126019047Y-149652380D01*
X126114285Y-149604761D01*
X126161904Y-149557142D01*
X126209523Y-149461904D01*
X126209523Y-148652380D01*
X127114285Y-148985714D02*
X127114285Y-149652380D01*
X126876190Y-148604761D02*
X126638095Y-149319047D01*
X127257142Y-149319047D01*
X123757142Y-168552380D02*
X124423809Y-168552380D01*
X123995238Y-169552380D01*
X125233333Y-168885714D02*
X125233333Y-169552380D01*
X124995238Y-168504761D02*
X124757142Y-169219047D01*
X125376190Y-169219047D01*
X126233333Y-169552380D02*
X125757142Y-169552380D01*
X125757142Y-168552380D01*
X126519047Y-169504761D02*
X126661904Y-169552380D01*
X126900000Y-169552380D01*
X126995238Y-169504761D01*
X127042857Y-169457142D01*
X127090476Y-169361904D01*
X127090476Y-169266666D01*
X127042857Y-169171428D01*
X126995238Y-169123809D01*
X126900000Y-169076190D01*
X126709523Y-169028571D01*
X126614285Y-168980952D01*
X126566666Y-168933333D01*
X126519047Y-168838095D01*
X126519047Y-168742857D01*
X126566666Y-168647619D01*
X126614285Y-168600000D01*
X126709523Y-168552380D01*
X126947619Y-168552380D01*
X127090476Y-168600000D01*
X127423809Y-168552380D02*
X128042857Y-168552380D01*
X127709523Y-168933333D01*
X127852380Y-168933333D01*
X127947619Y-168980952D01*
X127995238Y-169028571D01*
X128042857Y-169123809D01*
X128042857Y-169361904D01*
X127995238Y-169457142D01*
X127947619Y-169504761D01*
X127852380Y-169552380D01*
X127566666Y-169552380D01*
X127471428Y-169504761D01*
X127423809Y-169457142D01*
X128376190Y-168552380D02*
X129042857Y-168552380D01*
X128614285Y-169552380D01*
%TO.C,U6*%
X200638095Y-148652380D02*
X200638095Y-149461904D01*
X200685714Y-149557142D01*
X200733333Y-149604761D01*
X200828571Y-149652380D01*
X201019047Y-149652380D01*
X201114285Y-149604761D01*
X201161904Y-149557142D01*
X201209523Y-149461904D01*
X201209523Y-148652380D01*
X202114285Y-148652380D02*
X201923809Y-148652380D01*
X201828571Y-148700000D01*
X201780952Y-148747619D01*
X201685714Y-148890476D01*
X201638095Y-149080952D01*
X201638095Y-149461904D01*
X201685714Y-149557142D01*
X201733333Y-149604761D01*
X201828571Y-149652380D01*
X202019047Y-149652380D01*
X202114285Y-149604761D01*
X202161904Y-149557142D01*
X202209523Y-149461904D01*
X202209523Y-149223809D01*
X202161904Y-149128571D01*
X202114285Y-149080952D01*
X202019047Y-149033333D01*
X201828571Y-149033333D01*
X201733333Y-149080952D01*
X201685714Y-149128571D01*
X201638095Y-149223809D01*
X198757142Y-168552380D02*
X199423809Y-168552380D01*
X198995238Y-169552380D01*
X200233333Y-168885714D02*
X200233333Y-169552380D01*
X199995238Y-168504761D02*
X199757142Y-169219047D01*
X200376190Y-169219047D01*
X201233333Y-169552380D02*
X200757142Y-169552380D01*
X200757142Y-168552380D01*
X201519047Y-169504761D02*
X201661904Y-169552380D01*
X201900000Y-169552380D01*
X201995238Y-169504761D01*
X202042857Y-169457142D01*
X202090476Y-169361904D01*
X202090476Y-169266666D01*
X202042857Y-169171428D01*
X201995238Y-169123809D01*
X201900000Y-169076190D01*
X201709523Y-169028571D01*
X201614285Y-168980952D01*
X201566666Y-168933333D01*
X201519047Y-168838095D01*
X201519047Y-168742857D01*
X201566666Y-168647619D01*
X201614285Y-168600000D01*
X201709523Y-168552380D01*
X201947619Y-168552380D01*
X202090476Y-168600000D01*
X202709523Y-168552380D02*
X202804761Y-168552380D01*
X202900000Y-168600000D01*
X202947619Y-168647619D01*
X202995238Y-168742857D01*
X203042857Y-168933333D01*
X203042857Y-169171428D01*
X202995238Y-169361904D01*
X202947619Y-169457142D01*
X202900000Y-169504761D01*
X202804761Y-169552380D01*
X202709523Y-169552380D01*
X202614285Y-169504761D01*
X202566666Y-169457142D01*
X202519047Y-169361904D01*
X202471428Y-169171428D01*
X202471428Y-168933333D01*
X202519047Y-168742857D01*
X202566666Y-168647619D01*
X202614285Y-168600000D01*
X202709523Y-168552380D01*
X203947619Y-168552380D02*
X203471428Y-168552380D01*
X203423809Y-169028571D01*
X203471428Y-168980952D01*
X203566666Y-168933333D01*
X203804761Y-168933333D01*
X203900000Y-168980952D01*
X203947619Y-169028571D01*
X203995238Y-169123809D01*
X203995238Y-169361904D01*
X203947619Y-169457142D01*
X203900000Y-169504761D01*
X203804761Y-169552380D01*
X203566666Y-169552380D01*
X203471428Y-169504761D01*
X203423809Y-169457142D01*
%TO.C,U5*%
X162638095Y-148652380D02*
X162638095Y-149461904D01*
X162685714Y-149557142D01*
X162733333Y-149604761D01*
X162828571Y-149652380D01*
X163019047Y-149652380D01*
X163114285Y-149604761D01*
X163161904Y-149557142D01*
X163209523Y-149461904D01*
X163209523Y-148652380D01*
X164161904Y-148652380D02*
X163685714Y-148652380D01*
X163638095Y-149128571D01*
X163685714Y-149080952D01*
X163780952Y-149033333D01*
X164019047Y-149033333D01*
X164114285Y-149080952D01*
X164161904Y-149128571D01*
X164209523Y-149223809D01*
X164209523Y-149461904D01*
X164161904Y-149557142D01*
X164114285Y-149604761D01*
X164019047Y-149652380D01*
X163780952Y-149652380D01*
X163685714Y-149604761D01*
X163638095Y-149557142D01*
X160757142Y-168552380D02*
X161423809Y-168552380D01*
X160995238Y-169552380D01*
X162233333Y-168885714D02*
X162233333Y-169552380D01*
X161995238Y-168504761D02*
X161757142Y-169219047D01*
X162376190Y-169219047D01*
X163233333Y-169552380D02*
X162757142Y-169552380D01*
X162757142Y-168552380D01*
X163519047Y-169504761D02*
X163661904Y-169552380D01*
X163900000Y-169552380D01*
X163995238Y-169504761D01*
X164042857Y-169457142D01*
X164090476Y-169361904D01*
X164090476Y-169266666D01*
X164042857Y-169171428D01*
X163995238Y-169123809D01*
X163900000Y-169076190D01*
X163709523Y-169028571D01*
X163614285Y-168980952D01*
X163566666Y-168933333D01*
X163519047Y-168838095D01*
X163519047Y-168742857D01*
X163566666Y-168647619D01*
X163614285Y-168600000D01*
X163709523Y-168552380D01*
X163947619Y-168552380D01*
X164090476Y-168600000D01*
X164423809Y-168552380D02*
X165042857Y-168552380D01*
X164709523Y-168933333D01*
X164852380Y-168933333D01*
X164947619Y-168980952D01*
X164995238Y-169028571D01*
X165042857Y-169123809D01*
X165042857Y-169361904D01*
X164995238Y-169457142D01*
X164947619Y-169504761D01*
X164852380Y-169552380D01*
X164566666Y-169552380D01*
X164471428Y-169504761D01*
X164423809Y-169457142D01*
X165376190Y-168552380D02*
X166042857Y-168552380D01*
X165614285Y-169552380D01*
%TO.C,U3*%
X235638095Y-94032380D02*
X235638095Y-94841904D01*
X235685714Y-94937142D01*
X235733333Y-94984761D01*
X235828571Y-95032380D01*
X236019047Y-95032380D01*
X236114285Y-94984761D01*
X236161904Y-94937142D01*
X236209523Y-94841904D01*
X236209523Y-94032380D01*
X236590476Y-94032380D02*
X237209523Y-94032380D01*
X236876190Y-94413333D01*
X237019047Y-94413333D01*
X237114285Y-94460952D01*
X237161904Y-94508571D01*
X237209523Y-94603809D01*
X237209523Y-94841904D01*
X237161904Y-94937142D01*
X237114285Y-94984761D01*
X237019047Y-95032380D01*
X236733333Y-95032380D01*
X236638095Y-94984761D01*
X236590476Y-94937142D01*
X233757142Y-113932380D02*
X234423809Y-113932380D01*
X233995238Y-114932380D01*
X235233333Y-114265714D02*
X235233333Y-114932380D01*
X234995238Y-113884761D02*
X234757142Y-114599047D01*
X235376190Y-114599047D01*
X236233333Y-114932380D02*
X235757142Y-114932380D01*
X235757142Y-113932380D01*
X236519047Y-114884761D02*
X236661904Y-114932380D01*
X236900000Y-114932380D01*
X236995238Y-114884761D01*
X237042857Y-114837142D01*
X237090476Y-114741904D01*
X237090476Y-114646666D01*
X237042857Y-114551428D01*
X236995238Y-114503809D01*
X236900000Y-114456190D01*
X236709523Y-114408571D01*
X236614285Y-114360952D01*
X236566666Y-114313333D01*
X236519047Y-114218095D01*
X236519047Y-114122857D01*
X236566666Y-114027619D01*
X236614285Y-113980000D01*
X236709523Y-113932380D01*
X236947619Y-113932380D01*
X237090476Y-113980000D01*
X237423809Y-113932380D02*
X238042857Y-113932380D01*
X237709523Y-114313333D01*
X237852380Y-114313333D01*
X237947619Y-114360952D01*
X237995238Y-114408571D01*
X238042857Y-114503809D01*
X238042857Y-114741904D01*
X237995238Y-114837142D01*
X237947619Y-114884761D01*
X237852380Y-114932380D01*
X237566666Y-114932380D01*
X237471428Y-114884761D01*
X237423809Y-114837142D01*
X238376190Y-113932380D02*
X239042857Y-113932380D01*
X238614285Y-114932380D01*
%TO.C,U2*%
X200638095Y-94032380D02*
X200638095Y-94841904D01*
X200685714Y-94937142D01*
X200733333Y-94984761D01*
X200828571Y-95032380D01*
X201019047Y-95032380D01*
X201114285Y-94984761D01*
X201161904Y-94937142D01*
X201209523Y-94841904D01*
X201209523Y-94032380D01*
X201638095Y-94127619D02*
X201685714Y-94080000D01*
X201780952Y-94032380D01*
X202019047Y-94032380D01*
X202114285Y-94080000D01*
X202161904Y-94127619D01*
X202209523Y-94222857D01*
X202209523Y-94318095D01*
X202161904Y-94460952D01*
X201590476Y-95032380D01*
X202209523Y-95032380D01*
X198757142Y-113932380D02*
X199423809Y-113932380D01*
X198995238Y-114932380D01*
X200233333Y-114265714D02*
X200233333Y-114932380D01*
X199995238Y-113884761D02*
X199757142Y-114599047D01*
X200376190Y-114599047D01*
X201233333Y-114932380D02*
X200757142Y-114932380D01*
X200757142Y-113932380D01*
X201519047Y-114884761D02*
X201661904Y-114932380D01*
X201900000Y-114932380D01*
X201995238Y-114884761D01*
X202042857Y-114837142D01*
X202090476Y-114741904D01*
X202090476Y-114646666D01*
X202042857Y-114551428D01*
X201995238Y-114503809D01*
X201900000Y-114456190D01*
X201709523Y-114408571D01*
X201614285Y-114360952D01*
X201566666Y-114313333D01*
X201519047Y-114218095D01*
X201519047Y-114122857D01*
X201566666Y-114027619D01*
X201614285Y-113980000D01*
X201709523Y-113932380D01*
X201947619Y-113932380D01*
X202090476Y-113980000D01*
X202423809Y-113932380D02*
X203042857Y-113932380D01*
X202709523Y-114313333D01*
X202852380Y-114313333D01*
X202947619Y-114360952D01*
X202995238Y-114408571D01*
X203042857Y-114503809D01*
X203042857Y-114741904D01*
X202995238Y-114837142D01*
X202947619Y-114884761D01*
X202852380Y-114932380D01*
X202566666Y-114932380D01*
X202471428Y-114884761D01*
X202423809Y-114837142D01*
X203376190Y-113932380D02*
X204042857Y-113932380D01*
X203614285Y-114932380D01*
%TO.C,J4*%
X266471666Y-114382380D02*
X266471666Y-115096666D01*
X266424047Y-115239523D01*
X266328809Y-115334761D01*
X266185952Y-115382380D01*
X266090714Y-115382380D01*
X267376428Y-114715714D02*
X267376428Y-115382380D01*
X267138333Y-114334761D02*
X266900238Y-115049047D01*
X267519285Y-115049047D01*
%TD*%
M02*
