  0
SECTION
  2
HEADER
  9
$ANGBASE
  50
0.0
  9
$ANGDIR
  70
1
  9
$MEASUREMENT
  70
0
  0
ENDSEC
  0
SECTION
  2
TABLES
  0
TABLE
  2
LTYPE
  70
4
  0
LTYPE
  5
40F
  2
CONTINUOUS
  70
0
  3
Solid line
  72
65
  73
0
  40
0.0
  0
LTYPE
  5
410
  2
DASHDOT
 70
0
  3
Dash Dot ____ _ ____ _
 72
65
 73
4
 40
2.0
 49
1.25
 49
-0.25
 49
0.25
 49
-0.25
  0
LTYPE
  5
411
  2
DASHED
 70
0
  3
Dashed __ __ __ __ __
 72
65
 73
2
 40
0.75
 49
0.5
 49
-0.25
  0
LTYPE
  5
43B
  2
DOTTED
 70
0
  3
Dotted .  .  .  .
 72
65
 73
2
 40
0.2
 49
0.0
 49
-0.2
  0
ENDTAB
  0
TABLE
  2
STYLE
  70
4
  0
STYLE
  2
KICAD
  70
0
  40
0
  41
1
  42
1
  50
0
  71
0
  3
isocp.shx
  0
STYLE
  2
KICADB
  70
0
  40
0
  41
1
  42
1
  50
0
  71
0
  3
isocp.shx
  0
STYLE
  2
KICADI
  70
0
  40
0
  41
1
  42
1
  50
15
  71
0
  3
isocp.shx
  0
STYLE
  2
KICADBI
  70
0
  40
0
  41
1
  42
1
  50
15
  71
0
  3
isocp.shx
  0
ENDTAB
  0
TABLE
  2
LAYER
  70
1
  0
LAYER
  2
BLACK
  70
0
  62
7
  6
CONTINUOUS
  0
ENDTAB
  0
ENDSEC
  0
SECTION
  2
ENTITIES
0
LINE
8
BLACK
6
CONTINUOUS
10
8.14921
20
-8.6626
11
10.8106
21
-8.6626
0
LINE
8
BLACK
6
CONTINUOUS
10
8.14921
20
-8.65866
11
8.14921
21
-8.6626
0
LINE
8
BLACK
6
CONTINUOUS
10
8.14921
20
-8.22953
11
8.14921
21
-8.65866
0
LINE
8
BLACK
6
CONTINUOUS
10
4.80276
20
-8.22953
11
8.14921
21
-8.22953
0
LINE
8
BLACK
6
CONTINUOUS
10
4.80276
20
-8.6626
11
4.80276
21
-8.22953
0
LINE
8
BLACK
6
CONTINUOUS
10
2.14921
20
-8.6626
11
4.80276
21
-8.6626
0
LINE
8
BLACK
6
CONTINUOUS
10
2.14921
20
-2.36339
11
2.14921
21
-8.6626
0
LINE
8
BLACK
6
CONTINUOUS
10
10.8106
20
-2.36339
11
2.14921
21
-2.36339
0
LINE
8
BLACK
6
CONTINUOUS
10
10.8106
20
-8.6626
11
10.8106
21
-2.36339
0
LINE
8
BLACK
6
CONTINUOUS
10
2.261
20
-8.84693
11
2.261
21
-8.72882
0
LINE
8
BLACK
6
CONTINUOUS
10
2.261
20
-8.72882
11
2.28912
21
-8.72882
0
LINE
8
BLACK
6
CONTINUOUS
10
2.28912
20
-8.72882
11
2.30599
21
-8.73445
0
LINE
8
BLACK
6
CONTINUOUS
10
2.30599
20
-8.73445
11
2.31724
21
-8.7457
0
LINE
8
BLACK
6
CONTINUOUS
10
2.31724
20
-8.7457
11
2.32286
21
-8.75695
0
LINE
8
BLACK
6
CONTINUOUS
10
2.32286
20
-8.75695
11
2.32849
21
-8.77944
0
LINE
8
BLACK
6
CONTINUOUS
10
2.32849
20
-8.77944
11
2.32849
21
-8.79632
0
LINE
8
BLACK
6
CONTINUOUS
10
2.32849
20
-8.79632
11
2.32286
21
-8.81881
0
LINE
8
BLACK
6
CONTINUOUS
10
2.32286
20
-8.81881
11
2.31724
21
-8.83006
0
LINE
8
BLACK
6
CONTINUOUS
10
2.31724
20
-8.83006
11
2.30599
21
-8.84131
0
LINE
8
BLACK
6
CONTINUOUS
10
2.30599
20
-8.84131
11
2.28912
21
-8.84693
0
LINE
8
BLACK
6
CONTINUOUS
10
2.28912
20
-8.84693
11
2.261
21
-8.84693
0
LINE
8
BLACK
6
CONTINUOUS
10
2.37911
20
-8.84693
11
2.37911
21
-8.76819
0
LINE
8
BLACK
6
CONTINUOUS
10
2.37911
20
-8.79069
11
2.38473
21
-8.77944
0
LINE
8
BLACK
6
CONTINUOUS
10
2.38473
20
-8.77944
11
2.39035
21
-8.77382
0
LINE
8
BLACK
6
CONTINUOUS
10
2.39035
20
-8.77382
11
2.4016
21
-8.76819
0
LINE
8
BLACK
6
CONTINUOUS
10
2.4016
20
-8.76819
11
2.41285
21
-8.76819
0
LINE
8
BLACK
6
CONTINUOUS
10
2.45222
20
-8.84693
11
2.45222
21
-8.76819
0
LINE
8
BLACK
6
CONTINUOUS
10
2.45222
20
-8.72882
11
2.4466
21
-8.73445
0
LINE
8
BLACK
6
CONTINUOUS
10
2.4466
20
-8.73445
11
2.45222
21
-8.74007
0
LINE
8
BLACK
6
CONTINUOUS
10
2.45222
20
-8.74007
11
2.45785
21
-8.73445
0
LINE
8
BLACK
6
CONTINUOUS
10
2.45785
20
-8.73445
11
2.45222
21
-8.72882
0
LINE
8
BLACK
6
CONTINUOUS
10
2.45222
20
-8.72882
11
2.45222
21
-8.74007
0
LINE
8
BLACK
6
CONTINUOUS
10
2.52534
20
-8.84693
11
2.51409
21
-8.84131
0
LINE
8
BLACK
6
CONTINUOUS
10
2.51409
20
-8.84131
11
2.50846
21
-8.83006
0
LINE
8
BLACK
6
CONTINUOUS
10
2.50846
20
-8.83006
11
2.50846
21
-8.72882
0
LINE
8
BLACK
6
CONTINUOUS
10
2.5872
20
-8.84693
11
2.57596
21
-8.84131
0
LINE
8
BLACK
6
CONTINUOUS
10
2.57596
20
-8.84131
11
2.57033
21
-8.83006
0
LINE
8
BLACK
6
CONTINUOUS
10
2.57033
20
-8.83006
11
2.57033
21
-8.72882
0
LINE
8
BLACK
6
CONTINUOUS
10
2.72219
20
-8.84693
11
2.72219
21
-8.72882
0
LINE
8
BLACK
6
CONTINUOUS
10
2.72219
20
-8.72882
11
2.76156
21
-8.81319
0
LINE
8
BLACK
6
CONTINUOUS
10
2.76156
20
-8.81319
11
2.80093
21
-8.72882
0
LINE
8
BLACK
6
CONTINUOUS
10
2.80093
20
-8.72882
11
2.80093
21
-8.84693
0
LINE
8
BLACK
6
CONTINUOUS
10
2.90779
20
-8.84693
11
2.90779
21
-8.78507
0
LINE
8
BLACK
6
CONTINUOUS
10
2.90779
20
-8.78507
11
2.90217
21
-8.77382
0
LINE
8
BLACK
6
CONTINUOUS
10
2.90217
20
-8.77382
11
2.89092
21
-8.76819
0
LINE
8
BLACK
6
CONTINUOUS
10
2.89092
20
-8.76819
11
2.86842
21
-8.76819
0
LINE
8
BLACK
6
CONTINUOUS
10
2.86842
20
-8.76819
11
2.85717
21
-8.77382
0
LINE
8
BLACK
6
CONTINUOUS
10
2.90779
20
-8.84131
11
2.89654
21
-8.84693
0
LINE
8
BLACK
6
CONTINUOUS
10
2.89654
20
-8.84693
11
2.86842
21
-8.84693
0
LINE
8
BLACK
6
CONTINUOUS
10
2.86842
20
-8.84693
11
2.85717
21
-8.84131
0
LINE
8
BLACK
6
CONTINUOUS
10
2.85717
20
-8.84131
11
2.85155
21
-8.83006
0
LINE
8
BLACK
6
CONTINUOUS
10
2.85155
20
-8.83006
11
2.85155
21
-8.81881
0
LINE
8
BLACK
6
CONTINUOUS
10
2.85155
20
-8.81881
11
2.85717
21
-8.80756
0
LINE
8
BLACK
6
CONTINUOUS
10
2.85717
20
-8.80756
11
2.86842
21
-8.80194
0
LINE
8
BLACK
6
CONTINUOUS
10
2.86842
20
-8.80194
11
2.89654
21
-8.80194
0
LINE
8
BLACK
6
CONTINUOUS
10
2.89654
20
-8.80194
11
2.90779
21
-8.79632
0
LINE
8
BLACK
6
CONTINUOUS
10
2.96403
20
-8.76819
11
2.96403
21
-8.8863
0
LINE
8
BLACK
6
CONTINUOUS
10
2.96403
20
-8.77382
11
2.97528
21
-8.76819
0
LINE
8
BLACK
6
CONTINUOUS
10
2.97528
20
-8.76819
11
2.99778
21
-8.76819
0
LINE
8
BLACK
6
CONTINUOUS
10
2.99778
20
-8.76819
11
3.00903
21
-8.77382
0
LINE
8
BLACK
6
CONTINUOUS
10
3.00903
20
-8.77382
11
3.01465
21
-8.77944
0
LINE
8
BLACK
6
CONTINUOUS
10
3.01465
20
-8.77944
11
3.02028
21
-8.79069
0
LINE
8
BLACK
6
CONTINUOUS
10
3.02028
20
-8.79069
11
3.02028
21
-8.82444
0
LINE
8
BLACK
6
CONTINUOUS
10
3.02028
20
-8.82444
11
3.01465
21
-8.83569
0
LINE
8
BLACK
6
CONTINUOUS
10
3.01465
20
-8.83569
11
3.00903
21
-8.84131
0
LINE
8
BLACK
6
CONTINUOUS
10
3.00903
20
-8.84131
11
2.99778
21
-8.84693
0
LINE
8
BLACK
6
CONTINUOUS
10
2.99778
20
-8.84693
11
2.97528
21
-8.84693
0
LINE
8
BLACK
6
CONTINUOUS
10
2.97528
20
-8.84693
11
2.96403
21
-8.84131
0
LINE
8
BLACK
6
CONTINUOUS
10
3.07089
20
-8.83569
11
3.07652
21
-8.84131
0
LINE
8
BLACK
6
CONTINUOUS
10
3.07652
20
-8.84131
11
3.07089
21
-8.84693
0
LINE
8
BLACK
6
CONTINUOUS
10
3.07089
20
-8.84693
11
3.06527
21
-8.84131
0
LINE
8
BLACK
6
CONTINUOUS
10
3.06527
20
-8.84131
11
3.07089
21
-8.83569
0
LINE
8
BLACK
6
CONTINUOUS
10
3.07089
20
-8.83569
11
3.07089
21
-8.84693
0
LINE
8
BLACK
6
CONTINUOUS
10
3.07089
20
-8.77382
11
3.07652
21
-8.77944
0
LINE
8
BLACK
6
CONTINUOUS
10
3.07652
20
-8.77944
11
3.07089
21
-8.78507
0
LINE
8
BLACK
6
CONTINUOUS
10
3.07089
20
-8.78507
11
3.06527
21
-8.77944
0
LINE
8
BLACK
6
CONTINUOUS
10
3.06527
20
-8.77944
11
3.07089
21
-8.77382
0
LINE
8
BLACK
6
CONTINUOUS
10
3.07089
20
-8.77382
11
3.07089
21
-8.78507
  0
ENDSEC
  0
EOF
