  0
SECTION
  2
HEADER
  9
$ANGBASE
  50
0.0
  9
$ANGDIR
  70
1
  9
$MEASUREMENT
  70
0
  0
ENDSEC
  0
SECTION
  2
TABLES
  0
TABLE
  2
LTYPE
  70
4
  0
LTYPE
  5
40F
  2
CONTINUOUS
  70
0
  3
Solid line
  72
65
  73
0
  40
0.0
  0
LTYPE
  5
410
  2
DASHDOT
 70
0
  3
Dash Dot ____ _ ____ _
 72
65
 73
4
 40
2.0
 49
1.25
 49
-0.25
 49
0.25
 49
-0.25
  0
LTYPE
  5
411
  2
DASHED
 70
0
  3
Dashed __ __ __ __ __
 72
65
 73
2
 40
0.75
 49
0.5
 49
-0.25
  0
LTYPE
  5
43B
  2
DOTTED
 70
0
  3
Dotted .  .  .  .
 72
65
 73
2
 40
0.2
 49
0.0
 49
-0.2
  0
ENDTAB
  0
TABLE
  2
STYLE
  70
4
  0
STYLE
  2
KICAD
  70
0
  40
0
  41
1
  42
1
  50
0
  71
0
  3
isocp.shx
  0
STYLE
  2
KICADB
  70
0
  40
0
  41
1
  42
1
  50
0
  71
0
  3
isocp.shx
  0
STYLE
  2
KICADI
  70
0
  40
0
  41
1
  42
1
  50
15
  71
0
  3
isocp.shx
  0
STYLE
  2
KICADBI
  70
0
  40
0
  41
1
  42
1
  50
15
  71
0
  3
isocp.shx
  0
ENDTAB
  0
TABLE
  2
LAYER
  70
1
  0
LAYER
  2
BLACK
  70
0
  62
7
  6
CONTINUOUS
  0
ENDTAB
  0
ENDSEC
  0
SECTION
  2
ENTITIES
0
LINE
8
BLACK
6
CONTINUOUS
10
1.9685
20
-5.90551
11
7.48031
21
-5.90551
0
LINE
8
BLACK
6
CONTINUOUS
10
1.9685
20
-1.9685
11
1.9685
21
-5.90551
0
LINE
8
BLACK
6
CONTINUOUS
10
7.48031
20
-1.9685
11
1.9685
21
-1.9685
0
LINE
8
BLACK
6
CONTINUOUS
10
7.48031
20
-5.90551
11
7.48031
21
-1.9685
0
LINE
8
BLACK
6
CONTINUOUS
10
2.08029
20
-6.08985
11
2.08029
21
-5.97174
0
LINE
8
BLACK
6
CONTINUOUS
10
2.08029
20
-5.97174
11
2.10841
21
-5.97174
0
LINE
8
BLACK
6
CONTINUOUS
10
2.10841
20
-5.97174
11
2.12528
21
-5.97736
0
LINE
8
BLACK
6
CONTINUOUS
10
2.12528
20
-5.97736
11
2.13653
21
-5.98861
0
LINE
8
BLACK
6
CONTINUOUS
10
2.13653
20
-5.98861
11
2.14215
21
-5.99986
0
LINE
8
BLACK
6
CONTINUOUS
10
2.14215
20
-5.99986
11
2.14778
21
-6.02236
0
LINE
8
BLACK
6
CONTINUOUS
10
2.14778
20
-6.02236
11
2.14778
21
-6.03923
0
LINE
8
BLACK
6
CONTINUOUS
10
2.14778
20
-6.03923
11
2.14215
21
-6.06173
0
LINE
8
BLACK
6
CONTINUOUS
10
2.14215
20
-6.06173
11
2.13653
21
-6.07298
0
LINE
8
BLACK
6
CONTINUOUS
10
2.13653
20
-6.07298
11
2.12528
21
-6.08422
0
LINE
8
BLACK
6
CONTINUOUS
10
2.12528
20
-6.08422
11
2.10841
21
-6.08985
0
LINE
8
BLACK
6
CONTINUOUS
10
2.10841
20
-6.08985
11
2.08029
21
-6.08985
0
LINE
8
BLACK
6
CONTINUOUS
10
2.1984
20
-6.08985
11
2.1984
21
-6.01111
0
LINE
8
BLACK
6
CONTINUOUS
10
2.1984
20
-6.03361
11
2.20402
21
-6.02236
0
LINE
8
BLACK
6
CONTINUOUS
10
2.20402
20
-6.02236
11
2.20965
21
-6.01673
0
LINE
8
BLACK
6
CONTINUOUS
10
2.20965
20
-6.01673
11
2.22089
21
-6.01111
0
LINE
8
BLACK
6
CONTINUOUS
10
2.22089
20
-6.01111
11
2.23214
21
-6.01111
0
LINE
8
BLACK
6
CONTINUOUS
10
2.27151
20
-6.08985
11
2.27151
21
-6.01111
0
LINE
8
BLACK
6
CONTINUOUS
10
2.27151
20
-5.97174
11
2.26589
21
-5.97736
0
LINE
8
BLACK
6
CONTINUOUS
10
2.26589
20
-5.97736
11
2.27151
21
-5.98299
0
LINE
8
BLACK
6
CONTINUOUS
10
2.27151
20
-5.98299
11
2.27714
21
-5.97736
0
LINE
8
BLACK
6
CONTINUOUS
10
2.27714
20
-5.97736
11
2.27151
21
-5.97174
0
LINE
8
BLACK
6
CONTINUOUS
10
2.27151
20
-5.97174
11
2.27151
21
-5.98299
0
LINE
8
BLACK
6
CONTINUOUS
10
2.34463
20
-6.08985
11
2.33338
21
-6.08422
0
LINE
8
BLACK
6
CONTINUOUS
10
2.33338
20
-6.08422
11
2.32776
21
-6.07298
0
LINE
8
BLACK
6
CONTINUOUS
10
2.32776
20
-6.07298
11
2.32776
21
-5.97174
0
LINE
8
BLACK
6
CONTINUOUS
10
2.4065
20
-6.08985
11
2.39525
21
-6.08422
0
LINE
8
BLACK
6
CONTINUOUS
10
2.39525
20
-6.08422
11
2.38962
21
-6.07298
0
LINE
8
BLACK
6
CONTINUOUS
10
2.38962
20
-6.07298
11
2.38962
21
-5.97174
0
LINE
8
BLACK
6
CONTINUOUS
10
2.54148
20
-6.08985
11
2.54148
21
-5.97174
0
LINE
8
BLACK
6
CONTINUOUS
10
2.54148
20
-5.97174
11
2.58085
21
-6.0561
0
LINE
8
BLACK
6
CONTINUOUS
10
2.58085
20
-6.0561
11
2.62022
21
-5.97174
0
LINE
8
BLACK
6
CONTINUOUS
10
2.62022
20
-5.97174
11
2.62022
21
-6.08985
0
LINE
8
BLACK
6
CONTINUOUS
10
2.72708
20
-6.08985
11
2.72708
21
-6.02798
0
LINE
8
BLACK
6
CONTINUOUS
10
2.72708
20
-6.02798
11
2.72146
21
-6.01673
0
LINE
8
BLACK
6
CONTINUOUS
10
2.72146
20
-6.01673
11
2.71021
21
-6.01111
0
LINE
8
BLACK
6
CONTINUOUS
10
2.71021
20
-6.01111
11
2.68771
21
-6.01111
0
LINE
8
BLACK
6
CONTINUOUS
10
2.68771
20
-6.01111
11
2.67646
21
-6.01673
0
LINE
8
BLACK
6
CONTINUOUS
10
2.72708
20
-6.08422
11
2.71583
21
-6.08985
0
LINE
8
BLACK
6
CONTINUOUS
10
2.71583
20
-6.08985
11
2.68771
21
-6.08985
0
LINE
8
BLACK
6
CONTINUOUS
10
2.68771
20
-6.08985
11
2.67646
21
-6.08422
0
LINE
8
BLACK
6
CONTINUOUS
10
2.67646
20
-6.08422
11
2.67084
21
-6.07298
0
LINE
8
BLACK
6
CONTINUOUS
10
2.67084
20
-6.07298
11
2.67084
21
-6.06173
0
LINE
8
BLACK
6
CONTINUOUS
10
2.67084
20
-6.06173
11
2.67646
21
-6.05048
0
LINE
8
BLACK
6
CONTINUOUS
10
2.67646
20
-6.05048
11
2.68771
21
-6.04485
0
LINE
8
BLACK
6
CONTINUOUS
10
2.68771
20
-6.04485
11
2.71583
21
-6.04485
0
LINE
8
BLACK
6
CONTINUOUS
10
2.71583
20
-6.04485
11
2.72708
21
-6.03923
0
LINE
8
BLACK
6
CONTINUOUS
10
2.78332
20
-6.01111
11
2.78332
21
-6.12922
0
LINE
8
BLACK
6
CONTINUOUS
10
2.78332
20
-6.01673
11
2.79457
21
-6.01111
0
LINE
8
BLACK
6
CONTINUOUS
10
2.79457
20
-6.01111
11
2.81707
21
-6.01111
0
LINE
8
BLACK
6
CONTINUOUS
10
2.81707
20
-6.01111
11
2.82832
21
-6.01673
0
LINE
8
BLACK
6
CONTINUOUS
10
2.82832
20
-6.01673
11
2.83394
21
-6.02236
0
LINE
8
BLACK
6
CONTINUOUS
10
2.83394
20
-6.02236
11
2.83957
21
-6.03361
0
LINE
8
BLACK
6
CONTINUOUS
10
2.83957
20
-6.03361
11
2.83957
21
-6.06735
0
LINE
8
BLACK
6
CONTINUOUS
10
2.83957
20
-6.06735
11
2.83394
21
-6.0786
0
LINE
8
BLACK
6
CONTINUOUS
10
2.83394
20
-6.0786
11
2.82832
21
-6.08422
0
LINE
8
BLACK
6
CONTINUOUS
10
2.82832
20
-6.08422
11
2.81707
21
-6.08985
0
LINE
8
BLACK
6
CONTINUOUS
10
2.81707
20
-6.08985
11
2.79457
21
-6.08985
0
LINE
8
BLACK
6
CONTINUOUS
10
2.79457
20
-6.08985
11
2.78332
21
-6.08422
0
LINE
8
BLACK
6
CONTINUOUS
10
2.89019
20
-6.0786
11
2.89581
21
-6.08422
0
LINE
8
BLACK
6
CONTINUOUS
10
2.89581
20
-6.08422
11
2.89019
21
-6.08985
0
LINE
8
BLACK
6
CONTINUOUS
10
2.89019
20
-6.08985
11
2.88456
21
-6.08422
0
LINE
8
BLACK
6
CONTINUOUS
10
2.88456
20
-6.08422
11
2.89019
21
-6.0786
0
LINE
8
BLACK
6
CONTINUOUS
10
2.89019
20
-6.0786
11
2.89019
21
-6.08985
0
LINE
8
BLACK
6
CONTINUOUS
10
2.89019
20
-6.01673
11
2.89581
21
-6.02236
0
LINE
8
BLACK
6
CONTINUOUS
10
2.89581
20
-6.02236
11
2.89019
21
-6.02798
0
LINE
8
BLACK
6
CONTINUOUS
10
2.89019
20
-6.02798
11
2.88456
21
-6.02236
0
LINE
8
BLACK
6
CONTINUOUS
10
2.88456
20
-6.02236
11
2.89019
21
-6.01673
0
LINE
8
BLACK
6
CONTINUOUS
10
2.89019
20
-6.01673
11
2.89019
21
-6.02798
  0
ENDSEC
  0
EOF
