  0
SECTION
  2
HEADER
  9
$ANGBASE
  50
0.0
  9
$ANGDIR
  70
1
  9
$MEASUREMENT
  70
0
  0
ENDSEC
  0
SECTION
  2
TABLES
  0
TABLE
  2
LTYPE
  70
4
  0
LTYPE
  5
40F
  2
CONTINUOUS
  70
0
  3
Solid line
  72
65
  73
0
  40
0.0
  0
LTYPE
  5
410
  2
DASHDOT
 70
0
  3
Dash Dot ____ _ ____ _
 72
65
 73
4
 40
2.0
 49
1.25
 49
-0.25
 49
0.25
 49
-0.25
  0
LTYPE
  5
411
  2
DASHED
 70
0
  3
Dashed __ __ __ __ __
 72
65
 73
2
 40
0.75
 49
0.5
 49
-0.25
  0
LTYPE
  5
43B
  2
DOTTED
 70
0
  3
Dotted .  .  .  .
 72
65
 73
2
 40
0.2
 49
0.0
 49
-0.2
  0
ENDTAB
  0
TABLE
  2
STYLE
  70
4
  0
STYLE
  2
KICAD
  70
0
  40
0
  41
1
  42
1
  50
0
  71
0
  3
isocp.shx
  0
STYLE
  2
KICADB
  70
0
  40
0
  41
1
  42
1
  50
0
  71
0
  3
isocp.shx
  0
STYLE
  2
KICADI
  70
0
  40
0
  41
1
  42
1
  50
15
  71
0
  3
isocp.shx
  0
STYLE
  2
KICADBI
  70
0
  40
0
  41
1
  42
1
  50
15
  71
0
  3
isocp.shx
  0
ENDTAB
  0
TABLE
  2
LAYER
  70
1
  0
LAYER
  2
BLACK
  70
0
  62
7
  6
CONTINUOUS
  0
ENDTAB
  0
ENDSEC
  0
SECTION
  2
ENTITIES
0
LINE
8
BLACK
6
CONTINUOUS
10
1.9685
20
-5.90551
11
7.48031
21
-5.90551
0
LINE
8
BLACK
6
CONTINUOUS
10
1.9685
20
-1.9685
11
1.9685
21
-5.90551
0
LINE
8
BLACK
6
CONTINUOUS
10
7.48031
20
-1.9685
11
1.9685
21
-1.9685
0
LINE
8
BLACK
6
CONTINUOUS
10
7.48031
20
-5.90551
11
7.48031
21
-1.9685
0
LINE
8
BLACK
6
CONTINUOUS
10
2.06102
20
-2.15551
11
2.08071
21
-2.1752
0
LINE
8
BLACK
6
CONTINUOUS
10
2.08071
20
-2.15551
11
2.06102
21
-2.1752
0
LINE
8
BLACK
6
CONTINUOUS
10
2.06102
20
-5.69882
11
2.08071
21
-5.7185
0
LINE
8
BLACK
6
CONTINUOUS
10
2.08071
20
-5.69882
11
2.06102
21
-5.7185
0
LINE
8
BLACK
6
CONTINUOUS
10
2.0887
20
-2.0887
11
2.10838
21
-2.10838
0
LINE
8
BLACK
6
CONTINUOUS
10
2.10838
20
-2.0887
11
2.0887
21
-2.10838
0
LINE
8
BLACK
6
CONTINUOUS
10
2.0887
20
-2.22233
11
2.10838
21
-2.24201
0
LINE
8
BLACK
6
CONTINUOUS
10
2.10838
20
-2.22233
11
2.0887
21
-2.24201
0
LINE
8
BLACK
6
CONTINUOUS
10
2.0887
20
-5.63201
11
2.10838
21
-5.65169
0
LINE
8
BLACK
6
CONTINUOUS
10
2.10838
20
-5.63201
11
2.0887
21
-5.65169
0
LINE
8
BLACK
6
CONTINUOUS
10
2.0887
20
-5.76563
11
2.10838
21
-5.78532
0
LINE
8
BLACK
6
CONTINUOUS
10
2.10838
20
-5.76563
11
2.0887
21
-5.78532
0
LINE
8
BLACK
6
CONTINUOUS
10
2.15551
20
-2.06102
11
2.1752
21
-2.08071
0
LINE
8
BLACK
6
CONTINUOUS
10
2.1752
20
-2.06102
11
2.15551
21
-2.08071
0
LINE
8
BLACK
6
CONTINUOUS
10
2.15551
20
-2.25
11
2.1752
21
-2.26969
0
LINE
8
BLACK
6
CONTINUOUS
10
2.1752
20
-2.25
11
2.15551
21
-2.26969
0
LINE
8
BLACK
6
CONTINUOUS
10
2.15551
20
-5.60433
11
2.1752
21
-5.62402
0
LINE
8
BLACK
6
CONTINUOUS
10
2.1752
20
-5.60433
11
2.15551
21
-5.62402
0
LINE
8
BLACK
6
CONTINUOUS
10
2.15551
20
-5.79331
11
2.1752
21
-5.81299
0
LINE
8
BLACK
6
CONTINUOUS
10
2.1752
20
-5.79331
11
2.15551
21
-5.81299
0
LINE
8
BLACK
6
CONTINUOUS
10
2.22233
20
-2.0887
11
2.24201
21
-2.10838
0
LINE
8
BLACK
6
CONTINUOUS
10
2.24201
20
-2.0887
11
2.22233
21
-2.10838
0
LINE
8
BLACK
6
CONTINUOUS
10
2.22233
20
-2.22233
11
2.24201
21
-2.24201
0
LINE
8
BLACK
6
CONTINUOUS
10
2.24201
20
-2.22233
11
2.22233
21
-2.24201
0
LINE
8
BLACK
6
CONTINUOUS
10
2.22233
20
-5.63201
11
2.24201
21
-5.65169
0
LINE
8
BLACK
6
CONTINUOUS
10
2.24201
20
-5.63201
11
2.22233
21
-5.65169
0
LINE
8
BLACK
6
CONTINUOUS
10
2.22233
20
-5.76563
11
2.24201
21
-5.78532
0
LINE
8
BLACK
6
CONTINUOUS
10
2.24201
20
-5.76563
11
2.22233
21
-5.78532
0
LINE
8
BLACK
6
CONTINUOUS
10
2.25
20
-2.15551
11
2.26969
21
-2.1752
0
LINE
8
BLACK
6
CONTINUOUS
10
2.26969
20
-2.15551
11
2.25
21
-2.1752
0
LINE
8
BLACK
6
CONTINUOUS
10
2.25
20
-5.69882
11
2.26969
21
-5.7185
0
LINE
8
BLACK
6
CONTINUOUS
10
2.26969
20
-5.69882
11
2.25
21
-5.7185
0
LINE
8
BLACK
6
CONTINUOUS
10
7.17913
20
-2.15551
11
7.19882
21
-2.1752
0
LINE
8
BLACK
6
CONTINUOUS
10
7.19882
20
-2.15551
11
7.17913
21
-2.1752
0
LINE
8
BLACK
6
CONTINUOUS
10
7.17913
20
-5.69882
11
7.19882
21
-5.7185
0
LINE
8
BLACK
6
CONTINUOUS
10
7.19882
20
-5.69882
11
7.17913
21
-5.7185
0
LINE
8
BLACK
6
CONTINUOUS
10
7.20681
20
-2.0887
11
7.22649
21
-2.10838
0
LINE
8
BLACK
6
CONTINUOUS
10
7.22649
20
-2.0887
11
7.20681
21
-2.10838
0
LINE
8
BLACK
6
CONTINUOUS
10
7.20681
20
-2.22233
11
7.22649
21
-2.24201
0
LINE
8
BLACK
6
CONTINUOUS
10
7.22649
20
-2.22233
11
7.20681
21
-2.24201
0
LINE
8
BLACK
6
CONTINUOUS
10
7.20681
20
-5.63201
11
7.22649
21
-5.65169
0
LINE
8
BLACK
6
CONTINUOUS
10
7.22649
20
-5.63201
11
7.20681
21
-5.65169
0
LINE
8
BLACK
6
CONTINUOUS
10
7.20681
20
-5.76563
11
7.22649
21
-5.78532
0
LINE
8
BLACK
6
CONTINUOUS
10
7.22649
20
-5.76563
11
7.20681
21
-5.78532
0
LINE
8
BLACK
6
CONTINUOUS
10
7.27362
20
-2.06102
11
7.29331
21
-2.08071
0
LINE
8
BLACK
6
CONTINUOUS
10
7.29331
20
-2.06102
11
7.27362
21
-2.08071
0
LINE
8
BLACK
6
CONTINUOUS
10
7.27362
20
-2.25
11
7.29331
21
-2.26969
0
LINE
8
BLACK
6
CONTINUOUS
10
7.29331
20
-2.25
11
7.27362
21
-2.26969
0
LINE
8
BLACK
6
CONTINUOUS
10
7.27362
20
-5.60433
11
7.29331
21
-5.62402
0
LINE
8
BLACK
6
CONTINUOUS
10
7.29331
20
-5.60433
11
7.27362
21
-5.62402
0
LINE
8
BLACK
6
CONTINUOUS
10
7.27362
20
-5.79331
11
7.29331
21
-5.81299
0
LINE
8
BLACK
6
CONTINUOUS
10
7.29331
20
-5.79331
11
7.27362
21
-5.81299
0
LINE
8
BLACK
6
CONTINUOUS
10
7.34044
20
-2.0887
11
7.36012
21
-2.10838
0
LINE
8
BLACK
6
CONTINUOUS
10
7.36012
20
-2.0887
11
7.34044
21
-2.10838
0
LINE
8
BLACK
6
CONTINUOUS
10
7.34044
20
-2.22233
11
7.36012
21
-2.24201
0
LINE
8
BLACK
6
CONTINUOUS
10
7.36012
20
-2.22233
11
7.34044
21
-2.24201
0
LINE
8
BLACK
6
CONTINUOUS
10
7.34044
20
-5.63201
11
7.36012
21
-5.65169
0
LINE
8
BLACK
6
CONTINUOUS
10
7.36012
20
-5.63201
11
7.34044
21
-5.65169
0
LINE
8
BLACK
6
CONTINUOUS
10
7.34044
20
-5.76563
11
7.36012
21
-5.78532
0
LINE
8
BLACK
6
CONTINUOUS
10
7.36012
20
-5.76563
11
7.34044
21
-5.78532
0
LINE
8
BLACK
6
CONTINUOUS
10
7.36811
20
-2.15551
11
7.3878
21
-2.1752
0
LINE
8
BLACK
6
CONTINUOUS
10
7.3878
20
-2.15551
11
7.36811
21
-2.1752
0
LINE
8
BLACK
6
CONTINUOUS
10
7.36811
20
-5.69882
11
7.3878
21
-5.7185
0
LINE
8
BLACK
6
CONTINUOUS
10
7.3878
20
-5.69882
11
7.36811
21
-5.7185
0
CIRCLE
8
BLACK
10
2.87402
20
-4.52756
40
0.0137795
0
CIRCLE
8
BLACK
10
3.23661
20
-5.18701
40
0.0137795
0
CIRCLE
8
BLACK
10
3.23661
20
-5.51181
40
0.0137795
0
CIRCLE
8
BLACK
10
3.28661
20
-5.13701
40
0.0137795
0
CIRCLE
8
BLACK
10
3.28661
20
-5.46181
40
0.0137795
0
CIRCLE
8
BLACK
10
3.33661
20
-5.18701
40
0.0137795
0
CIRCLE
8
BLACK
10
3.33661
20
-5.51181
40
0.0137795
0
CIRCLE
8
BLACK
10
3.74016
20
-4.15354
40
0.0137795
0
CIRCLE
8
BLACK
10
3.74016
20
-4.47835
40
0.0137795
0
CIRCLE
8
BLACK
10
4.62598
20
-4.58661
40
0.0137795
0
CIRCLE
8
BLACK
10
4.72441
20
-4.52756
40
0.0137795
0
CIRCLE
8
BLACK
10
4.94094
20
-4.84252
40
0.0137795
0
CIRCLE
8
BLACK
10
6.45669
20
-4.58661
40
0.0137795
0
CIRCLE
8
BLACK
10
7.08661
20
-5.29528
40
0.0137795
0
LINE
8
BLACK
6
CONTINUOUS
10
2.19843
20
-3.76378
11
2.19843
21
-3.79528
0
LINE
8
BLACK
6
CONTINUOUS
10
2.18268
20
-3.77953
11
2.21417
21
-3.77953
0
LINE
8
BLACK
6
CONTINUOUS
10
2.35591
20
-2.64173
11
2.35591
21
-2.67323
0
LINE
8
BLACK
6
CONTINUOUS
10
2.34016
20
-2.65748
11
2.37165
21
-2.65748
0
LINE
8
BLACK
6
CONTINUOUS
10
2.35591
20
-2.76969
11
2.35591
21
-2.80118
0
LINE
8
BLACK
6
CONTINUOUS
10
2.34016
20
-2.78543
11
2.37165
21
-2.78543
0
LINE
8
BLACK
6
CONTINUOUS
10
2.37205
20
-5.22047
11
2.37205
21
-5.25197
0
LINE
8
BLACK
6
CONTINUOUS
10
2.3563
20
-5.23622
11
2.3878
21
-5.23622
0
LINE
8
BLACK
6
CONTINUOUS
10
2.37205
20
-5.3189
11
2.37205
21
-5.35039
0
LINE
8
BLACK
6
CONTINUOUS
10
2.3563
20
-5.33465
11
2.3878
21
-5.33465
0
LINE
8
BLACK
6
CONTINUOUS
10
2.44094
20
-3.17323
11
2.44094
21
-3.20472
0
LINE
8
BLACK
6
CONTINUOUS
10
2.4252
20
-3.18898
11
2.45669
21
-3.18898
0
LINE
8
BLACK
6
CONTINUOUS
10
2.44094
20
-3.27323
11
2.44094
21
-3.30472
0
LINE
8
BLACK
6
CONTINUOUS
10
2.4252
20
-3.28898
11
2.45669
21
-3.28898
0
LINE
8
BLACK
6
CONTINUOUS
10
2.44094
20
-3.37323
11
2.44094
21
-3.40472
0
LINE
8
BLACK
6
CONTINUOUS
10
2.4252
20
-3.38898
11
2.45669
21
-3.38898
0
LINE
8
BLACK
6
CONTINUOUS
10
2.55906
20
-4.11811
11
2.55906
21
-4.14961
0
LINE
8
BLACK
6
CONTINUOUS
10
2.54331
20
-4.13386
11
2.5748
21
-4.13386
0
LINE
8
BLACK
6
CONTINUOUS
10
2.55906
20
-4.41811
11
2.55906
21
-4.44961
0
LINE
8
BLACK
6
CONTINUOUS
10
2.54331
20
-4.43386
11
2.5748
21
-4.43386
0
LINE
8
BLACK
6
CONTINUOUS
10
2.59843
20
-3.76378
11
2.59843
21
-3.79528
0
LINE
8
BLACK
6
CONTINUOUS
10
2.58268
20
-3.77953
11
2.61417
21
-3.77953
0
LINE
8
BLACK
6
CONTINUOUS
10
2.6378
20
-3.17323
11
2.6378
21
-3.20472
0
LINE
8
BLACK
6
CONTINUOUS
10
2.62205
20
-3.18898
11
2.65354
21
-3.18898
0
LINE
8
BLACK
6
CONTINUOUS
10
2.6378
20
-3.27323
11
2.6378
21
-3.30472
0
LINE
8
BLACK
6
CONTINUOUS
10
2.62205
20
-3.28898
11
2.65354
21
-3.28898
0
LINE
8
BLACK
6
CONTINUOUS
10
2.6378
20
-3.37323
11
2.6378
21
-3.40472
0
LINE
8
BLACK
6
CONTINUOUS
10
2.62205
20
-3.38898
11
2.65354
21
-3.38898
0
LINE
8
BLACK
6
CONTINUOUS
10
2.6378
20
-5.08268
11
2.6378
21
-5.11417
0
LINE
8
BLACK
6
CONTINUOUS
10
2.62205
20
-5.09843
11
2.65354
21
-5.09843
0
LINE
8
BLACK
6
CONTINUOUS
10
2.6378
20
-5.48268
11
2.6378
21
-5.51417
0
LINE
8
BLACK
6
CONTINUOUS
10
2.62205
20
-5.49843
11
2.65354
21
-5.49843
0
LINE
8
BLACK
6
CONTINUOUS
10
2.65906
20
-4.11811
11
2.65906
21
-4.14961
0
LINE
8
BLACK
6
CONTINUOUS
10
2.64331
20
-4.13386
11
2.6748
21
-4.13386
0
LINE
8
BLACK
6
CONTINUOUS
10
2.65906
20
-4.41811
11
2.65906
21
-4.44961
0
LINE
8
BLACK
6
CONTINUOUS
10
2.64331
20
-4.43386
11
2.6748
21
-4.43386
0
LINE
8
BLACK
6
CONTINUOUS
10
2.71024
20
-3.48819
11
2.71024
21
-3.51969
0
LINE
8
BLACK
6
CONTINUOUS
10
2.69449
20
-3.50394
11
2.72598
21
-3.50394
0
LINE
8
BLACK
6
CONTINUOUS
10
2.75591
20
-2.64173
11
2.75591
21
-2.67323
0
LINE
8
BLACK
6
CONTINUOUS
10
2.74016
20
-2.65748
11
2.77165
21
-2.65748
0
LINE
8
BLACK
6
CONTINUOUS
10
2.75591
20
-2.76969
11
2.75591
21
-2.80118
0
LINE
8
BLACK
6
CONTINUOUS
10
2.74016
20
-2.78543
11
2.77165
21
-2.78543
0
LINE
8
BLACK
6
CONTINUOUS
10
2.75906
20
-4.11811
11
2.75906
21
-4.14961
0
LINE
8
BLACK
6
CONTINUOUS
10
2.74331
20
-4.13386
11
2.7748
21
-4.13386
0
LINE
8
BLACK
6
CONTINUOUS
10
2.75906
20
-4.41811
11
2.75906
21
-4.44961
0
LINE
8
BLACK
6
CONTINUOUS
10
2.74331
20
-4.43386
11
2.7748
21
-4.43386
0
LINE
8
BLACK
6
CONTINUOUS
10
2.8248
20
-5.08622
11
2.8248
21
-5.11772
0
LINE
8
BLACK
6
CONTINUOUS
10
2.80906
20
-5.10197
11
2.84055
21
-5.10197
0
LINE
8
BLACK
6
CONTINUOUS
10
2.8248
20
-5.48622
11
2.8248
21
-5.51772
0
LINE
8
BLACK
6
CONTINUOUS
10
2.80906
20
-5.50197
11
2.84055
21
-5.50197
0
LINE
8
BLACK
6
CONTINUOUS
10
2.83465
20
-3.17323
11
2.83465
21
-3.20472
0
LINE
8
BLACK
6
CONTINUOUS
10
2.8189
20
-3.18898
11
2.85039
21
-3.18898
0
LINE
8
BLACK
6
CONTINUOUS
10
2.83465
20
-3.27323
11
2.83465
21
-3.30472
0
LINE
8
BLACK
6
CONTINUOUS
10
2.8189
20
-3.28898
11
2.85039
21
-3.28898
0
LINE
8
BLACK
6
CONTINUOUS
10
2.83465
20
-3.37323
11
2.83465
21
-3.40472
0
LINE
8
BLACK
6
CONTINUOUS
10
2.8189
20
-3.38898
11
2.85039
21
-3.38898
0
LINE
8
BLACK
6
CONTINUOUS
10
2.83819
20
-3.61614
11
2.83819
21
-3.64764
0
LINE
8
BLACK
6
CONTINUOUS
10
2.82244
20
-3.63189
11
2.85394
21
-3.63189
0
LINE
8
BLACK
6
CONTINUOUS
10
2.85906
20
-4.11811
11
2.85906
21
-4.14961
0
LINE
8
BLACK
6
CONTINUOUS
10
2.84331
20
-4.13386
11
2.8748
21
-4.13386
0
LINE
8
BLACK
6
CONTINUOUS
10
2.85906
20
-4.41811
11
2.85906
21
-4.44961
0
LINE
8
BLACK
6
CONTINUOUS
10
2.84331
20
-4.43386
11
2.8748
21
-4.43386
0
LINE
8
BLACK
6
CONTINUOUS
10
2.95276
20
-2.42205
11
2.95276
21
-2.45354
0
LINE
8
BLACK
6
CONTINUOUS
10
2.93701
20
-2.4378
11
2.9685
21
-2.4378
0
LINE
8
BLACK
6
CONTINUOUS
10
2.95276
20
-2.52205
11
2.95276
21
-2.55354
0
LINE
8
BLACK
6
CONTINUOUS
10
2.93701
20
-2.5378
11
2.9685
21
-2.5378
0
LINE
8
BLACK
6
CONTINUOUS
10
2.95276
20
-2.62205
11
2.95276
21
-2.65354
0
LINE
8
BLACK
6
CONTINUOUS
10
2.93701
20
-2.6378
11
2.9685
21
-2.6378
0
LINE
8
BLACK
6
CONTINUOUS
10
2.95906
20
-4.11811
11
2.95906
21
-4.14961
0
LINE
8
BLACK
6
CONTINUOUS
10
2.94331
20
-4.13386
11
2.9748
21
-4.13386
0
LINE
8
BLACK
6
CONTINUOUS
10
2.95906
20
-4.41811
11
2.95906
21
-4.44961
0
LINE
8
BLACK
6
CONTINUOUS
10
2.94331
20
-4.43386
11
2.9748
21
-4.43386
0
LINE
8
BLACK
6
CONTINUOUS
10
3.01181
20
-5.08622
11
3.01181
21
-5.11772
0
LINE
8
BLACK
6
CONTINUOUS
10
2.99606
20
-5.10197
11
3.02756
21
-5.10197
0
LINE
8
BLACK
6
CONTINUOUS
10
3.01181
20
-5.48622
11
3.01181
21
-5.51772
0
LINE
8
BLACK
6
CONTINUOUS
10
2.99606
20
-5.50197
11
3.02756
21
-5.50197
0
LINE
8
BLACK
6
CONTINUOUS
10
3.0315
20
-3.17323
11
3.0315
21
-3.20472
0
LINE
8
BLACK
6
CONTINUOUS
10
3.01575
20
-3.18898
11
3.04724
21
-3.18898
0
LINE
8
BLACK
6
CONTINUOUS
10
3.0315
20
-3.27323
11
3.0315
21
-3.30472
0
LINE
8
BLACK
6
CONTINUOUS
10
3.01575
20
-3.28898
11
3.04724
21
-3.28898
0
LINE
8
BLACK
6
CONTINUOUS
10
3.0315
20
-3.37323
11
3.0315
21
-3.40472
0
LINE
8
BLACK
6
CONTINUOUS
10
3.01575
20
-3.38898
11
3.04724
21
-3.38898
0
LINE
8
BLACK
6
CONTINUOUS
10
3.03504
20
-3.74409
11
3.03504
21
-3.77559
0
LINE
8
BLACK
6
CONTINUOUS
10
3.01929
20
-3.75984
11
3.05079
21
-3.75984
0
LINE
8
BLACK
6
CONTINUOUS
10
3.05906
20
-4.11811
11
3.05906
21
-4.14961
0
LINE
8
BLACK
6
CONTINUOUS
10
3.04331
20
-4.13386
11
3.0748
21
-4.13386
0
LINE
8
BLACK
6
CONTINUOUS
10
3.05906
20
-4.41811
11
3.05906
21
-4.44961
0
LINE
8
BLACK
6
CONTINUOUS
10
3.04331
20
-4.43386
11
3.0748
21
-4.43386
0
LINE
8
BLACK
6
CONTINUOUS
10
3.11024
20
-3.48819
11
3.11024
21
-3.51969
0
LINE
8
BLACK
6
CONTINUOUS
10
3.09449
20
-3.50394
11
3.12598
21
-3.50394
0
LINE
8
BLACK
6
CONTINUOUS
10
3.15906
20
-4.11811
11
3.15906
21
-4.14961
0
LINE
8
BLACK
6
CONTINUOUS
10
3.14331
20
-4.13386
11
3.1748
21
-4.13386
0
LINE
8
BLACK
6
CONTINUOUS
10
3.15906
20
-4.41811
11
3.15906
21
-4.44961
0
LINE
8
BLACK
6
CONTINUOUS
10
3.14331
20
-4.43386
11
3.1748
21
-4.43386
0
LINE
8
BLACK
6
CONTINUOUS
10
3.20866
20
-2.42205
11
3.20866
21
-2.45354
0
LINE
8
BLACK
6
CONTINUOUS
10
3.19291
20
-2.4378
11
3.22441
21
-2.4378
0
LINE
8
BLACK
6
CONTINUOUS
10
3.20866
20
-2.52205
11
3.20866
21
-2.55354
0
LINE
8
BLACK
6
CONTINUOUS
10
3.19291
20
-2.5378
11
3.22441
21
-2.5378
0
LINE
8
BLACK
6
CONTINUOUS
10
3.20866
20
-2.62205
11
3.20866
21
-2.65354
0
LINE
8
BLACK
6
CONTINUOUS
10
3.19291
20
-2.6378
11
3.22441
21
-2.6378
0
LINE
8
BLACK
6
CONTINUOUS
10
3.21535
20
-4.84646
11
3.21535
21
-4.87795
0
LINE
8
BLACK
6
CONTINUOUS
10
3.19961
20
-4.8622
11
3.2311
21
-4.8622
0
LINE
8
BLACK
6
CONTINUOUS
10
3.22835
20
-3.17323
11
3.22835
21
-3.20472
0
LINE
8
BLACK
6
CONTINUOUS
10
3.2126
20
-3.18898
11
3.24409
21
-3.18898
0
LINE
8
BLACK
6
CONTINUOUS
10
3.22835
20
-3.27323
11
3.22835
21
-3.30472
0
LINE
8
BLACK
6
CONTINUOUS
10
3.2126
20
-3.28898
11
3.24409
21
-3.28898
0
LINE
8
BLACK
6
CONTINUOUS
10
3.22835
20
-3.37323
11
3.22835
21
-3.40472
0
LINE
8
BLACK
6
CONTINUOUS
10
3.2126
20
-3.38898
11
3.24409
21
-3.38898
0
LINE
8
BLACK
6
CONTINUOUS
10
3.23819
20
-3.61614
11
3.23819
21
-3.64764
0
LINE
8
BLACK
6
CONTINUOUS
10
3.22244
20
-3.63189
11
3.25394
21
-3.63189
0
LINE
8
BLACK
6
CONTINUOUS
10
3.25906
20
-4.11811
11
3.25906
21
-4.14961
0
LINE
8
BLACK
6
CONTINUOUS
10
3.24331
20
-4.13386
11
3.2748
21
-4.13386
0
LINE
8
BLACK
6
CONTINUOUS
10
3.25906
20
-4.41811
11
3.25906
21
-4.44961
0
LINE
8
BLACK
6
CONTINUOUS
10
3.24331
20
-4.43386
11
3.2748
21
-4.43386
0
LINE
8
BLACK
6
CONTINUOUS
10
3.31535
20
-4.84646
11
3.31535
21
-4.87795
0
LINE
8
BLACK
6
CONTINUOUS
10
3.29961
20
-4.8622
11
3.3311
21
-4.8622
0
LINE
8
BLACK
6
CONTINUOUS
10
3.41535
20
-4.84646
11
3.41535
21
-4.87795
0
LINE
8
BLACK
6
CONTINUOUS
10
3.39961
20
-4.8622
11
3.4311
21
-4.8622
0
LINE
8
BLACK
6
CONTINUOUS
10
3.4252
20
-3.17323
11
3.4252
21
-3.20472
0
LINE
8
BLACK
6
CONTINUOUS
10
3.40945
20
-3.18898
11
3.44094
21
-3.18898
0
LINE
8
BLACK
6
CONTINUOUS
10
3.4252
20
-3.57323
11
3.4252
21
-3.60472
0
LINE
8
BLACK
6
CONTINUOUS
10
3.40945
20
-3.58898
11
3.44094
21
-3.58898
0
LINE
8
BLACK
6
CONTINUOUS
10
3.43504
20
-3.74409
11
3.43504
21
-3.77559
0
LINE
8
BLACK
6
CONTINUOUS
10
3.41929
20
-3.75984
11
3.45079
21
-3.75984
0
LINE
8
BLACK
6
CONTINUOUS
10
3.50394
20
-2.24803
11
3.50394
21
-2.27953
0
LINE
8
BLACK
6
CONTINUOUS
10
3.48819
20
-2.26378
11
3.51969
21
-2.26378
0
LINE
8
BLACK
6
CONTINUOUS
10
3.50394
20
-2.84803
11
3.50394
21
-2.87953
0
LINE
8
BLACK
6
CONTINUOUS
10
3.48819
20
-2.86378
11
3.51969
21
-2.86378
0
LINE
8
BLACK
6
CONTINUOUS
10
3.60394
20
-2.24803
11
3.60394
21
-2.27953
0
LINE
8
BLACK
6
CONTINUOUS
10
3.58819
20
-2.26378
11
3.61969
21
-2.26378
0
LINE
8
BLACK
6
CONTINUOUS
10
3.60394
20
-2.84803
11
3.60394
21
-2.87953
0
LINE
8
BLACK
6
CONTINUOUS
10
3.58819
20
-2.86378
11
3.61969
21
-2.86378
0
LINE
8
BLACK
6
CONTINUOUS
10
3.62205
20
-3.17323
11
3.62205
21
-3.20472
0
LINE
8
BLACK
6
CONTINUOUS
10
3.6063
20
-3.18898
11
3.6378
21
-3.18898
0
LINE
8
BLACK
6
CONTINUOUS
10
3.62205
20
-3.57323
11
3.62205
21
-3.60472
0
LINE
8
BLACK
6
CONTINUOUS
10
3.6063
20
-3.58898
11
3.6378
21
-3.58898
0
LINE
8
BLACK
6
CONTINUOUS
10
3.70394
20
-2.24803
11
3.70394
21
-2.27953
0
LINE
8
BLACK
6
CONTINUOUS
10
3.68819
20
-2.26378
11
3.71969
21
-2.26378
0
LINE
8
BLACK
6
CONTINUOUS
10
3.70394
20
-2.84803
11
3.70394
21
-2.87953
0
LINE
8
BLACK
6
CONTINUOUS
10
3.68819
20
-2.86378
11
3.71969
21
-2.86378
0
LINE
8
BLACK
6
CONTINUOUS
10
3.73386
20
-4.74803
11
3.73386
21
-4.77953
0
LINE
8
BLACK
6
CONTINUOUS
10
3.71811
20
-4.76378
11
3.74961
21
-4.76378
0
LINE
8
BLACK
6
CONTINUOUS
10
3.74016
20
-4.98425
11
3.74016
21
-5.01575
0
LINE
8
BLACK
6
CONTINUOUS
10
3.72441
20
-5
11
3.75591
21
-5
0
LINE
8
BLACK
6
CONTINUOUS
10
3.74016
20
-5.28425
11
3.74016
21
-5.31575
0
LINE
8
BLACK
6
CONTINUOUS
10
3.72441
20
-5.3
11
3.75591
21
-5.3
0
LINE
8
BLACK
6
CONTINUOUS
10
3.74016
20
-5.49606
11
3.74016
21
-5.52756
0
LINE
8
BLACK
6
CONTINUOUS
10
3.72441
20
-5.51181
11
3.75591
21
-5.51181
0
LINE
8
BLACK
6
CONTINUOUS
10
3.78307
20
-3.55709
11
3.78307
21
-3.58858
0
LINE
8
BLACK
6
CONTINUOUS
10
3.76732
20
-3.57283
11
3.79882
21
-3.57283
0
LINE
8
BLACK
6
CONTINUOUS
10
3.78307
20
-3.75394
11
3.78307
21
-3.78543
0
LINE
8
BLACK
6
CONTINUOUS
10
3.76732
20
-3.76969
11
3.79882
21
-3.76969
0
LINE
8
BLACK
6
CONTINUOUS
10
3.80394
20
-2.24803
11
3.80394
21
-2.27953
0
LINE
8
BLACK
6
CONTINUOUS
10
3.78819
20
-2.26378
11
3.81969
21
-2.26378
0
LINE
8
BLACK
6
CONTINUOUS
10
3.80394
20
-2.84803
11
3.80394
21
-2.87953
0
LINE
8
BLACK
6
CONTINUOUS
10
3.78819
20
-2.86378
11
3.81969
21
-2.86378
0
LINE
8
BLACK
6
CONTINUOUS
10
3.8189
20
-3.17323
11
3.8189
21
-3.20472
0
LINE
8
BLACK
6
CONTINUOUS
10
3.80315
20
-3.18898
11
3.83465
21
-3.18898
0
LINE
8
BLACK
6
CONTINUOUS
10
3.8189
20
-3.27323
11
3.8189
21
-3.30472
0
LINE
8
BLACK
6
CONTINUOUS
10
3.80315
20
-3.28898
11
3.83465
21
-3.28898
0
LINE
8
BLACK
6
CONTINUOUS
10
3.8189
20
-3.37323
11
3.8189
21
-3.40472
0
LINE
8
BLACK
6
CONTINUOUS
10
3.80315
20
-3.38898
11
3.83465
21
-3.38898
0
LINE
8
BLACK
6
CONTINUOUS
10
3.84016
20
-4.98425
11
3.84016
21
-5.01575
0
LINE
8
BLACK
6
CONTINUOUS
10
3.82441
20
-5
11
3.85591
21
-5
0
LINE
8
BLACK
6
CONTINUOUS
10
3.84016
20
-5.28425
11
3.84016
21
-5.31575
0
LINE
8
BLACK
6
CONTINUOUS
10
3.82441
20
-5.3
11
3.85591
21
-5.3
0
LINE
8
BLACK
6
CONTINUOUS
10
3.87795
20
-4.15118
11
3.87795
21
-4.18268
0
LINE
8
BLACK
6
CONTINUOUS
10
3.8622
20
-4.16693
11
3.8937
21
-4.16693
0
LINE
8
BLACK
6
CONTINUOUS
10
3.87795
20
-4.55118
11
3.87795
21
-4.58268
0
LINE
8
BLACK
6
CONTINUOUS
10
3.8622
20
-4.56693
11
3.8937
21
-4.56693
0
LINE
8
BLACK
6
CONTINUOUS
10
3.90394
20
-2.24803
11
3.90394
21
-2.27953
0
LINE
8
BLACK
6
CONTINUOUS
10
3.88819
20
-2.26378
11
3.91969
21
-2.26378
0
LINE
8
BLACK
6
CONTINUOUS
10
3.90394
20
-2.84803
11
3.90394
21
-2.87953
0
LINE
8
BLACK
6
CONTINUOUS
10
3.88819
20
-2.86378
11
3.91969
21
-2.86378
0
LINE
8
BLACK
6
CONTINUOUS
10
3.94016
20
-4.98425
11
3.94016
21
-5.01575
0
LINE
8
BLACK
6
CONTINUOUS
10
3.92441
20
-5
11
3.95591
21
-5
0
LINE
8
BLACK
6
CONTINUOUS
10
3.94016
20
-5.28425
11
3.94016
21
-5.31575
0
LINE
8
BLACK
6
CONTINUOUS
10
3.92441
20
-5.3
11
3.95591
21
-5.3
0
LINE
8
BLACK
6
CONTINUOUS
10
4.01575
20
-3.17323
11
4.01575
21
-3.20472
0
LINE
8
BLACK
6
CONTINUOUS
10
4
20
-3.18898
11
4.0315
21
-3.18898
0
LINE
8
BLACK
6
CONTINUOUS
10
4.01575
20
-3.27323
11
4.01575
21
-3.30472
0
LINE
8
BLACK
6
CONTINUOUS
10
4
20
-3.28898
11
4.0315
21
-3.28898
0
LINE
8
BLACK
6
CONTINUOUS
10
4.01575
20
-3.37323
11
4.01575
21
-3.40472
0
LINE
8
BLACK
6
CONTINUOUS
10
4
20
-3.38898
11
4.0315
21
-3.38898
0
LINE
8
BLACK
6
CONTINUOUS
10
4.04016
20
-4.98425
11
4.04016
21
-5.01575
0
LINE
8
BLACK
6
CONTINUOUS
10
4.02441
20
-5
11
4.05591
21
-5
0
LINE
8
BLACK
6
CONTINUOUS
10
4.04016
20
-5.28425
11
4.04016
21
-5.31575
0
LINE
8
BLACK
6
CONTINUOUS
10
4.02441
20
-5.3
11
4.05591
21
-5.3
0
LINE
8
BLACK
6
CONTINUOUS
10
4.13386
20
-4.74803
11
4.13386
21
-4.77953
0
LINE
8
BLACK
6
CONTINUOUS
10
4.11811
20
-4.76378
11
4.14961
21
-4.76378
0
LINE
8
BLACK
6
CONTINUOUS
10
4.14016
20
-4.98425
11
4.14016
21
-5.01575
0
LINE
8
BLACK
6
CONTINUOUS
10
4.12441
20
-5
11
4.15591
21
-5
0
LINE
8
BLACK
6
CONTINUOUS
10
4.14016
20
-5.28425
11
4.14016
21
-5.31575
0
LINE
8
BLACK
6
CONTINUOUS
10
4.12441
20
-5.3
11
4.15591
21
-5.3
0
LINE
8
BLACK
6
CONTINUOUS
10
4.14016
20
-5.49606
11
4.14016
21
-5.52756
0
LINE
8
BLACK
6
CONTINUOUS
10
4.12441
20
-5.51181
11
4.15591
21
-5.51181
0
LINE
8
BLACK
6
CONTINUOUS
10
4.18307
20
-3.55709
11
4.18307
21
-3.58858
0
LINE
8
BLACK
6
CONTINUOUS
10
4.16732
20
-3.57283
11
4.19882
21
-3.57283
0
LINE
8
BLACK
6
CONTINUOUS
10
4.18307
20
-3.75394
11
4.18307
21
-3.78543
0
LINE
8
BLACK
6
CONTINUOUS
10
4.16732
20
-3.76969
11
4.19882
21
-3.76969
0
LINE
8
BLACK
6
CONTINUOUS
10
4.2126
20
-3.17323
11
4.2126
21
-3.20472
0
LINE
8
BLACK
6
CONTINUOUS
10
4.19685
20
-3.18898
11
4.22835
21
-3.18898
0
LINE
8
BLACK
6
CONTINUOUS
10
4.2126
20
-3.27323
11
4.2126
21
-3.30472
0
LINE
8
BLACK
6
CONTINUOUS
10
4.19685
20
-3.28898
11
4.22835
21
-3.28898
0
LINE
8
BLACK
6
CONTINUOUS
10
4.2126
20
-3.37323
11
4.2126
21
-3.40472
0
LINE
8
BLACK
6
CONTINUOUS
10
4.19685
20
-3.38898
11
4.22835
21
-3.38898
0
LINE
8
BLACK
6
CONTINUOUS
10
4.24016
20
-4.98425
11
4.24016
21
-5.01575
0
LINE
8
BLACK
6
CONTINUOUS
10
4.22441
20
-5
11
4.25591
21
-5
0
LINE
8
BLACK
6
CONTINUOUS
10
4.24016
20
-5.28425
11
4.24016
21
-5.31575
0
LINE
8
BLACK
6
CONTINUOUS
10
4.22441
20
-5.3
11
4.25591
21
-5.3
0
LINE
8
BLACK
6
CONTINUOUS
10
4.33071
20
-4.11811
11
4.33071
21
-4.14961
0
LINE
8
BLACK
6
CONTINUOUS
10
4.31496
20
-4.13386
11
4.34646
21
-4.13386
0
LINE
8
BLACK
6
CONTINUOUS
10
4.33071
20
-4.41811
11
4.33071
21
-4.44961
0
LINE
8
BLACK
6
CONTINUOUS
10
4.31496
20
-4.43386
11
4.34646
21
-4.43386
0
LINE
8
BLACK
6
CONTINUOUS
10
4.34016
20
-4.98425
11
4.34016
21
-5.01575
0
LINE
8
BLACK
6
CONTINUOUS
10
4.32441
20
-5
11
4.35591
21
-5
0
LINE
8
BLACK
6
CONTINUOUS
10
4.34016
20
-5.28425
11
4.34016
21
-5.31575
0
LINE
8
BLACK
6
CONTINUOUS
10
4.32441
20
-5.3
11
4.35591
21
-5.3
0
LINE
8
BLACK
6
CONTINUOUS
10
4.37008
20
-2.24803
11
4.37008
21
-2.27953
0
LINE
8
BLACK
6
CONTINUOUS
10
4.35433
20
-2.26378
11
4.38583
21
-2.26378
0
LINE
8
BLACK
6
CONTINUOUS
10
4.37008
20
-2.84803
11
4.37008
21
-2.87953
0
LINE
8
BLACK
6
CONTINUOUS
10
4.35433
20
-2.86378
11
4.38583
21
-2.86378
0
LINE
8
BLACK
6
CONTINUOUS
10
4.40945
20
-3.17323
11
4.40945
21
-3.20472
0
LINE
8
BLACK
6
CONTINUOUS
10
4.3937
20
-3.18898
11
4.4252
21
-3.18898
0
LINE
8
BLACK
6
CONTINUOUS
10
4.40945
20
-3.27323
11
4.40945
21
-3.30472
0
LINE
8
BLACK
6
CONTINUOUS
10
4.3937
20
-3.28898
11
4.4252
21
-3.28898
0
LINE
8
BLACK
6
CONTINUOUS
10
4.40945
20
-3.37323
11
4.40945
21
-3.40472
0
LINE
8
BLACK
6
CONTINUOUS
10
4.3937
20
-3.38898
11
4.4252
21
-3.38898
0
LINE
8
BLACK
6
CONTINUOUS
10
4.43071
20
-4.11811
11
4.43071
21
-4.14961
0
LINE
8
BLACK
6
CONTINUOUS
10
4.41496
20
-4.13386
11
4.44646
21
-4.13386
0
LINE
8
BLACK
6
CONTINUOUS
10
4.43071
20
-4.41811
11
4.43071
21
-4.44961
0
LINE
8
BLACK
6
CONTINUOUS
10
4.41496
20
-4.43386
11
4.44646
21
-4.43386
0
LINE
8
BLACK
6
CONTINUOUS
10
4.47008
20
-2.24803
11
4.47008
21
-2.27953
0
LINE
8
BLACK
6
CONTINUOUS
10
4.45433
20
-2.26378
11
4.48583
21
-2.26378
0
LINE
8
BLACK
6
CONTINUOUS
10
4.47008
20
-2.84803
11
4.47008
21
-2.87953
0
LINE
8
BLACK
6
CONTINUOUS
10
4.45433
20
-2.86378
11
4.48583
21
-2.86378
0
LINE
8
BLACK
6
CONTINUOUS
10
4.51142
20
-3.51772
11
4.51142
21
-3.54921
0
LINE
8
BLACK
6
CONTINUOUS
10
4.49567
20
-3.53346
11
4.52717
21
-3.53346
0
LINE
8
BLACK
6
CONTINUOUS
10
4.53071
20
-4.11811
11
4.53071
21
-4.14961
0
LINE
8
BLACK
6
CONTINUOUS
10
4.51496
20
-4.13386
11
4.54646
21
-4.13386
0
LINE
8
BLACK
6
CONTINUOUS
10
4.53071
20
-4.41811
11
4.53071
21
-4.44961
0
LINE
8
BLACK
6
CONTINUOUS
10
4.51496
20
-4.43386
11
4.54646
21
-4.43386
0
LINE
8
BLACK
6
CONTINUOUS
10
4.55709
20
-4.99409
11
4.55709
21
-5.02559
0
LINE
8
BLACK
6
CONTINUOUS
10
4.54134
20
-5.00984
11
4.57283
21
-5.00984
0
LINE
8
BLACK
6
CONTINUOUS
10
4.55709
20
-5.19094
11
4.55709
21
-5.22244
0
LINE
8
BLACK
6
CONTINUOUS
10
4.54134
20
-5.20669
11
4.57283
21
-5.20669
0
LINE
8
BLACK
6
CONTINUOUS
10
4.57008
20
-2.24803
11
4.57008
21
-2.27953
0
LINE
8
BLACK
6
CONTINUOUS
10
4.55433
20
-2.26378
11
4.58583
21
-2.26378
0
LINE
8
BLACK
6
CONTINUOUS
10
4.57008
20
-2.84803
11
4.57008
21
-2.87953
0
LINE
8
BLACK
6
CONTINUOUS
10
4.55433
20
-2.86378
11
4.58583
21
-2.86378
0
LINE
8
BLACK
6
CONTINUOUS
10
4.58661
20
-3.64567
11
4.58661
21
-3.67717
0
LINE
8
BLACK
6
CONTINUOUS
10
4.57087
20
-3.66142
11
4.60236
21
-3.66142
0
LINE
8
BLACK
6
CONTINUOUS
10
4.6063
20
-3.17323
11
4.6063
21
-3.20472
0
LINE
8
BLACK
6
CONTINUOUS
10
4.59055
20
-3.18898
11
4.62205
21
-3.18898
0
LINE
8
BLACK
6
CONTINUOUS
10
4.6063
20
-3.27323
11
4.6063
21
-3.30472
0
LINE
8
BLACK
6
CONTINUOUS
10
4.59055
20
-3.28898
11
4.62205
21
-3.28898
0
LINE
8
BLACK
6
CONTINUOUS
10
4.6063
20
-3.37323
11
4.6063
21
-3.40472
0
LINE
8
BLACK
6
CONTINUOUS
10
4.59055
20
-3.38898
11
4.62205
21
-3.38898
0
LINE
8
BLACK
6
CONTINUOUS
10
4.63071
20
-4.11811
11
4.63071
21
-4.14961
0
LINE
8
BLACK
6
CONTINUOUS
10
4.61496
20
-4.13386
11
4.64646
21
-4.13386
0
LINE
8
BLACK
6
CONTINUOUS
10
4.63071
20
-4.41811
11
4.63071
21
-4.44961
0
LINE
8
BLACK
6
CONTINUOUS
10
4.61496
20
-4.43386
11
4.64646
21
-4.43386
0
LINE
8
BLACK
6
CONTINUOUS
10
4.67008
20
-2.24803
11
4.67008
21
-2.27953
0
LINE
8
BLACK
6
CONTINUOUS
10
4.65433
20
-2.26378
11
4.68583
21
-2.26378
0
LINE
8
BLACK
6
CONTINUOUS
10
4.67008
20
-2.84803
11
4.67008
21
-2.87953
0
LINE
8
BLACK
6
CONTINUOUS
10
4.65433
20
-2.86378
11
4.68583
21
-2.86378
0
LINE
8
BLACK
6
CONTINUOUS
10
4.70472
20
-4.9252
11
4.70472
21
-4.95669
0
LINE
8
BLACK
6
CONTINUOUS
10
4.68898
20
-4.94094
11
4.72047
21
-4.94094
0
LINE
8
BLACK
6
CONTINUOUS
10
4.70472
20
-5.3252
11
4.70472
21
-5.35669
0
LINE
8
BLACK
6
CONTINUOUS
10
4.68898
20
-5.34094
11
4.72047
21
-5.34094
0
LINE
8
BLACK
6
CONTINUOUS
10
4.73071
20
-4.11811
11
4.73071
21
-4.14961
0
LINE
8
BLACK
6
CONTINUOUS
10
4.71496
20
-4.13386
11
4.74646
21
-4.13386
0
LINE
8
BLACK
6
CONTINUOUS
10
4.73071
20
-4.41811
11
4.73071
21
-4.44961
0
LINE
8
BLACK
6
CONTINUOUS
10
4.71496
20
-4.43386
11
4.74646
21
-4.43386
0
LINE
8
BLACK
6
CONTINUOUS
10
4.77008
20
-2.24803
11
4.77008
21
-2.27953
0
LINE
8
BLACK
6
CONTINUOUS
10
4.75433
20
-2.26378
11
4.78583
21
-2.26378
0
LINE
8
BLACK
6
CONTINUOUS
10
4.77008
20
-2.84803
11
4.77008
21
-2.87953
0
LINE
8
BLACK
6
CONTINUOUS
10
4.75433
20
-2.86378
11
4.78583
21
-2.86378
0
LINE
8
BLACK
6
CONTINUOUS
10
4.80315
20
-3.17323
11
4.80315
21
-3.20472
0
LINE
8
BLACK
6
CONTINUOUS
10
4.7874
20
-3.18898
11
4.8189
21
-3.18898
0
LINE
8
BLACK
6
CONTINUOUS
10
4.80315
20
-3.27323
11
4.80315
21
-3.30472
0
LINE
8
BLACK
6
CONTINUOUS
10
4.7874
20
-3.28898
11
4.8189
21
-3.28898
0
LINE
8
BLACK
6
CONTINUOUS
10
4.80315
20
-3.37323
11
4.80315
21
-3.40472
0
LINE
8
BLACK
6
CONTINUOUS
10
4.7874
20
-3.38898
11
4.8189
21
-3.38898
0
LINE
8
BLACK
6
CONTINUOUS
10
4.83071
20
-4.11811
11
4.83071
21
-4.14961
0
LINE
8
BLACK
6
CONTINUOUS
10
4.81496
20
-4.13386
11
4.84646
21
-4.13386
0
LINE
8
BLACK
6
CONTINUOUS
10
4.83071
20
-4.41811
11
4.83071
21
-4.44961
0
LINE
8
BLACK
6
CONTINUOUS
10
4.81496
20
-4.43386
11
4.84646
21
-4.43386
0
LINE
8
BLACK
6
CONTINUOUS
10
4.84252
20
-3.76378
11
4.84252
21
-3.79528
0
LINE
8
BLACK
6
CONTINUOUS
10
4.82677
20
-3.77953
11
4.85827
21
-3.77953
0
LINE
8
BLACK
6
CONTINUOUS
10
4.91142
20
-3.51772
11
4.91142
21
-3.54921
0
LINE
8
BLACK
6
CONTINUOUS
10
4.89567
20
-3.53346
11
4.92717
21
-3.53346
0
LINE
8
BLACK
6
CONTINUOUS
10
4.93071
20
-4.11811
11
4.93071
21
-4.14961
0
LINE
8
BLACK
6
CONTINUOUS
10
4.91496
20
-4.13386
11
4.94646
21
-4.13386
0
LINE
8
BLACK
6
CONTINUOUS
10
4.93071
20
-4.41811
11
4.93071
21
-4.44961
0
LINE
8
BLACK
6
CONTINUOUS
10
4.91496
20
-4.43386
11
4.94646
21
-4.43386
0
LINE
8
BLACK
6
CONTINUOUS
10
4.94094
20
-4.98425
11
4.94094
21
-5.01575
0
LINE
8
BLACK
6
CONTINUOUS
10
4.9252
20
-5
11
4.95669
21
-5
0
LINE
8
BLACK
6
CONTINUOUS
10
4.94094
20
-5.28425
11
4.94094
21
-5.31575
0
LINE
8
BLACK
6
CONTINUOUS
10
4.9252
20
-5.3
11
4.95669
21
-5.3
0
LINE
8
BLACK
6
CONTINUOUS
10
4.98661
20
-3.64567
11
4.98661
21
-3.67717
0
LINE
8
BLACK
6
CONTINUOUS
10
4.97087
20
-3.66142
11
5.00236
21
-3.66142
0
LINE
8
BLACK
6
CONTINUOUS
10
5.03071
20
-4.11811
11
5.03071
21
-4.14961
0
LINE
8
BLACK
6
CONTINUOUS
10
5.01496
20
-4.13386
11
5.04646
21
-4.13386
0
LINE
8
BLACK
6
CONTINUOUS
10
5.03071
20
-4.41811
11
5.03071
21
-4.44961
0
LINE
8
BLACK
6
CONTINUOUS
10
5.01496
20
-4.43386
11
5.04646
21
-4.43386
0
LINE
8
BLACK
6
CONTINUOUS
10
5.03937
20
-3.17008
11
5.03937
21
-3.20157
0
LINE
8
BLACK
6
CONTINUOUS
10
5.02362
20
-3.18583
11
5.05512
21
-3.18583
0
LINE
8
BLACK
6
CONTINUOUS
10
5.03937
20
-3.27008
11
5.03937
21
-3.30157
0
LINE
8
BLACK
6
CONTINUOUS
10
5.02362
20
-3.28583
11
5.05512
21
-3.28583
0
LINE
8
BLACK
6
CONTINUOUS
10
5.03937
20
-3.37008
11
5.03937
21
-3.40157
0
LINE
8
BLACK
6
CONTINUOUS
10
5.02362
20
-3.38583
11
5.05512
21
-3.38583
0
LINE
8
BLACK
6
CONTINUOUS
10
5.04094
20
-4.98425
11
5.04094
21
-5.01575
0
LINE
8
BLACK
6
CONTINUOUS
10
5.0252
20
-5
11
5.05669
21
-5
0
LINE
8
BLACK
6
CONTINUOUS
10
5.04094
20
-5.28425
11
5.04094
21
-5.31575
0
LINE
8
BLACK
6
CONTINUOUS
10
5.0252
20
-5.3
11
5.05669
21
-5.3
0
LINE
8
BLACK
6
CONTINUOUS
10
5.14094
20
-4.98425
11
5.14094
21
-5.01575
0
LINE
8
BLACK
6
CONTINUOUS
10
5.1252
20
-5
11
5.15669
21
-5
0
LINE
8
BLACK
6
CONTINUOUS
10
5.14094
20
-5.28425
11
5.14094
21
-5.31575
0
LINE
8
BLACK
6
CONTINUOUS
10
5.1252
20
-5.3
11
5.15669
21
-5.3
0
LINE
8
BLACK
6
CONTINUOUS
10
5.23622
20
-2.24803
11
5.23622
21
-2.27953
0
LINE
8
BLACK
6
CONTINUOUS
10
5.22047
20
-2.26378
11
5.25197
21
-2.26378
0
LINE
8
BLACK
6
CONTINUOUS
10
5.23622
20
-2.84803
11
5.23622
21
-2.87953
0
LINE
8
BLACK
6
CONTINUOUS
10
5.22047
20
-2.86378
11
5.25197
21
-2.86378
0
LINE
8
BLACK
6
CONTINUOUS
10
5.23622
20
-3.17323
11
5.23622
21
-3.20472
0
LINE
8
BLACK
6
CONTINUOUS
10
5.22047
20
-3.18898
11
5.25197
21
-3.18898
0
LINE
8
BLACK
6
CONTINUOUS
10
5.23622
20
-3.57323
11
5.23622
21
-3.60472
0
LINE
8
BLACK
6
CONTINUOUS
10
5.22047
20
-3.58898
11
5.25197
21
-3.58898
0
LINE
8
BLACK
6
CONTINUOUS
10
5.24094
20
-4.98425
11
5.24094
21
-5.01575
0
LINE
8
BLACK
6
CONTINUOUS
10
5.2252
20
-5
11
5.25669
21
-5
0
LINE
8
BLACK
6
CONTINUOUS
10
5.24094
20
-5.28425
11
5.24094
21
-5.31575
0
LINE
8
BLACK
6
CONTINUOUS
10
5.2252
20
-5.3
11
5.25669
21
-5.3
0
LINE
8
BLACK
6
CONTINUOUS
10
5.24252
20
-3.76378
11
5.24252
21
-3.79528
0
LINE
8
BLACK
6
CONTINUOUS
10
5.22677
20
-3.77953
11
5.25827
21
-3.77953
0
LINE
8
BLACK
6
CONTINUOUS
10
5.33622
20
-2.24803
11
5.33622
21
-2.27953
0
LINE
8
BLACK
6
CONTINUOUS
10
5.32047
20
-2.26378
11
5.35197
21
-2.26378
0
LINE
8
BLACK
6
CONTINUOUS
10
5.33622
20
-2.84803
11
5.33622
21
-2.87953
0
LINE
8
BLACK
6
CONTINUOUS
10
5.32047
20
-2.86378
11
5.35197
21
-2.86378
0
LINE
8
BLACK
6
CONTINUOUS
10
5.34094
20
-4.98425
11
5.34094
21
-5.01575
0
LINE
8
BLACK
6
CONTINUOUS
10
5.3252
20
-5
11
5.35669
21
-5
0
LINE
8
BLACK
6
CONTINUOUS
10
5.34094
20
-5.28425
11
5.34094
21
-5.31575
0
LINE
8
BLACK
6
CONTINUOUS
10
5.3252
20
-5.3
11
5.35669
21
-5.3
0
LINE
8
BLACK
6
CONTINUOUS
10
5.43307
20
-3.17323
11
5.43307
21
-3.20472
0
LINE
8
BLACK
6
CONTINUOUS
10
5.41732
20
-3.18898
11
5.44882
21
-3.18898
0
LINE
8
BLACK
6
CONTINUOUS
10
5.43307
20
-3.57323
11
5.43307
21
-3.60472
0
LINE
8
BLACK
6
CONTINUOUS
10
5.41732
20
-3.58898
11
5.44882
21
-3.58898
0
LINE
8
BLACK
6
CONTINUOUS
10
5.43622
20
-2.24803
11
5.43622
21
-2.27953
0
LINE
8
BLACK
6
CONTINUOUS
10
5.42047
20
-2.26378
11
5.45197
21
-2.26378
0
LINE
8
BLACK
6
CONTINUOUS
10
5.43622
20
-2.84803
11
5.43622
21
-2.87953
0
LINE
8
BLACK
6
CONTINUOUS
10
5.42047
20
-2.86378
11
5.45197
21
-2.86378
0
LINE
8
BLACK
6
CONTINUOUS
10
5.44094
20
-4.98425
11
5.44094
21
-5.01575
0
LINE
8
BLACK
6
CONTINUOUS
10
5.4252
20
-5
11
5.45669
21
-5
0
LINE
8
BLACK
6
CONTINUOUS
10
5.44094
20
-5.28425
11
5.44094
21
-5.31575
0
LINE
8
BLACK
6
CONTINUOUS
10
5.4252
20
-5.3
11
5.45669
21
-5.3
0
LINE
8
BLACK
6
CONTINUOUS
10
5.53622
20
-2.24803
11
5.53622
21
-2.27953
0
LINE
8
BLACK
6
CONTINUOUS
10
5.52047
20
-2.26378
11
5.55197
21
-2.26378
0
LINE
8
BLACK
6
CONTINUOUS
10
5.53622
20
-2.84803
11
5.53622
21
-2.87953
0
LINE
8
BLACK
6
CONTINUOUS
10
5.52047
20
-2.86378
11
5.55197
21
-2.86378
0
LINE
8
BLACK
6
CONTINUOUS
10
5.54094
20
-4.98425
11
5.54094
21
-5.01575
0
LINE
8
BLACK
6
CONTINUOUS
10
5.5252
20
-5
11
5.55669
21
-5
0
LINE
8
BLACK
6
CONTINUOUS
10
5.54094
20
-5.28425
11
5.54094
21
-5.31575
0
LINE
8
BLACK
6
CONTINUOUS
10
5.5252
20
-5.3
11
5.55669
21
-5.3
0
LINE
8
BLACK
6
CONTINUOUS
10
5.56457
20
-3.56693
11
5.56457
21
-3.59843
0
LINE
8
BLACK
6
CONTINUOUS
10
5.54882
20
-3.58268
11
5.58031
21
-3.58268
0
LINE
8
BLACK
6
CONTINUOUS
10
5.62992
20
-3.17323
11
5.62992
21
-3.20472
0
LINE
8
BLACK
6
CONTINUOUS
10
5.61417
20
-3.18898
11
5.64567
21
-3.18898
0
LINE
8
BLACK
6
CONTINUOUS
10
5.62992
20
-3.27323
11
5.62992
21
-3.30472
0
LINE
8
BLACK
6
CONTINUOUS
10
5.61417
20
-3.28898
11
5.64567
21
-3.28898
0
LINE
8
BLACK
6
CONTINUOUS
10
5.62992
20
-3.37323
11
5.62992
21
-3.40472
0
LINE
8
BLACK
6
CONTINUOUS
10
5.61417
20
-3.38898
11
5.64567
21
-3.38898
0
LINE
8
BLACK
6
CONTINUOUS
10
5.63622
20
-2.24803
11
5.63622
21
-2.27953
0
LINE
8
BLACK
6
CONTINUOUS
10
5.62047
20
-2.26378
11
5.65197
21
-2.26378
0
LINE
8
BLACK
6
CONTINUOUS
10
5.63622
20
-2.84803
11
5.63622
21
-2.87953
0
LINE
8
BLACK
6
CONTINUOUS
10
5.62047
20
-2.86378
11
5.65197
21
-2.86378
0
LINE
8
BLACK
6
CONTINUOUS
10
5.73189
20
-3.72441
11
5.73189
21
-3.75591
0
LINE
8
BLACK
6
CONTINUOUS
10
5.71614
20
-3.74016
11
5.74764
21
-3.74016
0
LINE
8
BLACK
6
CONTINUOUS
10
5.82677
20
-3.17323
11
5.82677
21
-3.20472
0
LINE
8
BLACK
6
CONTINUOUS
10
5.81102
20
-3.18898
11
5.84252
21
-3.18898
0
LINE
8
BLACK
6
CONTINUOUS
10
5.82677
20
-3.27323
11
5.82677
21
-3.30472
0
LINE
8
BLACK
6
CONTINUOUS
10
5.81102
20
-3.28898
11
5.84252
21
-3.28898
0
LINE
8
BLACK
6
CONTINUOUS
10
5.82677
20
-3.37323
11
5.82677
21
-3.40472
0
LINE
8
BLACK
6
CONTINUOUS
10
5.81102
20
-3.38898
11
5.84252
21
-3.38898
0
LINE
8
BLACK
6
CONTINUOUS
10
5.84646
20
-3.8622
11
5.84646
21
-3.8937
0
LINE
8
BLACK
6
CONTINUOUS
10
5.83071
20
-3.87795
11
5.8622
21
-3.87795
0
LINE
8
BLACK
6
CONTINUOUS
10
5.96457
20
-3.56693
11
5.96457
21
-3.59843
0
LINE
8
BLACK
6
CONTINUOUS
10
5.94882
20
-3.58268
11
5.98031
21
-3.58268
0
LINE
8
BLACK
6
CONTINUOUS
10
6.02362
20
-3.17323
11
6.02362
21
-3.20472
0
LINE
8
BLACK
6
CONTINUOUS
10
6.00787
20
-3.18898
11
6.03937
21
-3.18898
0
LINE
8
BLACK
6
CONTINUOUS
10
6.02362
20
-3.27323
11
6.02362
21
-3.30472
0
LINE
8
BLACK
6
CONTINUOUS
10
6.00787
20
-3.28898
11
6.03937
21
-3.28898
0
LINE
8
BLACK
6
CONTINUOUS
10
6.02362
20
-3.37323
11
6.02362
21
-3.40472
0
LINE
8
BLACK
6
CONTINUOUS
10
6.00787
20
-3.38898
11
6.03937
21
-3.38898
0
LINE
8
BLACK
6
CONTINUOUS
10
6.06299
20
-4.11811
11
6.06299
21
-4.14961
0
LINE
8
BLACK
6
CONTINUOUS
10
6.04724
20
-4.13386
11
6.07874
21
-4.13386
0
LINE
8
BLACK
6
CONTINUOUS
10
6.06299
20
-4.41811
11
6.06299
21
-4.44961
0
LINE
8
BLACK
6
CONTINUOUS
10
6.04724
20
-4.43386
11
6.07874
21
-4.43386
0
LINE
8
BLACK
6
CONTINUOUS
10
6.12205
20
-4.82677
11
6.12205
21
-4.85827
0
LINE
8
BLACK
6
CONTINUOUS
10
6.1063
20
-4.84252
11
6.1378
21
-4.84252
0
LINE
8
BLACK
6
CONTINUOUS
10
6.13189
20
-3.72441
11
6.13189
21
-3.75591
0
LINE
8
BLACK
6
CONTINUOUS
10
6.11614
20
-3.74016
11
6.14764
21
-3.74016
0
LINE
8
BLACK
6
CONTINUOUS
10
6.14173
20
-4.98425
11
6.14173
21
-5.01575
0
LINE
8
BLACK
6
CONTINUOUS
10
6.12598
20
-5
11
6.15748
21
-5
0
LINE
8
BLACK
6
CONTINUOUS
10
6.14173
20
-5.28425
11
6.14173
21
-5.31575
0
LINE
8
BLACK
6
CONTINUOUS
10
6.12598
20
-5.3
11
6.15748
21
-5.3
0
LINE
8
BLACK
6
CONTINUOUS
10
6.16299
20
-4.11811
11
6.16299
21
-4.14961
0
LINE
8
BLACK
6
CONTINUOUS
10
6.14724
20
-4.13386
11
6.17874
21
-4.13386
0
LINE
8
BLACK
6
CONTINUOUS
10
6.16299
20
-4.41811
11
6.16299
21
-4.44961
0
LINE
8
BLACK
6
CONTINUOUS
10
6.14724
20
-4.43386
11
6.17874
21
-4.43386
0
LINE
8
BLACK
6
CONTINUOUS
10
6.22047
20
-3.17323
11
6.22047
21
-3.20472
0
LINE
8
BLACK
6
CONTINUOUS
10
6.20472
20
-3.18898
11
6.23622
21
-3.18898
0
LINE
8
BLACK
6
CONTINUOUS
10
6.22047
20
-3.27323
11
6.22047
21
-3.30472
0
LINE
8
BLACK
6
CONTINUOUS
10
6.20472
20
-3.28898
11
6.23622
21
-3.28898
0
LINE
8
BLACK
6
CONTINUOUS
10
6.22047
20
-3.37323
11
6.22047
21
-3.40472
0
LINE
8
BLACK
6
CONTINUOUS
10
6.20472
20
-3.38898
11
6.23622
21
-3.38898
0
LINE
8
BLACK
6
CONTINUOUS
10
6.24173
20
-4.98425
11
6.24173
21
-5.01575
0
LINE
8
BLACK
6
CONTINUOUS
10
6.22598
20
-5
11
6.25748
21
-5
0
LINE
8
BLACK
6
CONTINUOUS
10
6.24173
20
-5.28425
11
6.24173
21
-5.31575
0
LINE
8
BLACK
6
CONTINUOUS
10
6.22598
20
-5.3
11
6.25748
21
-5.3
0
LINE
8
BLACK
6
CONTINUOUS
10
6.24646
20
-3.8622
11
6.24646
21
-3.8937
0
LINE
8
BLACK
6
CONTINUOUS
10
6.23071
20
-3.87795
11
6.2622
21
-3.87795
0
LINE
8
BLACK
6
CONTINUOUS
10
6.26299
20
-4.11811
11
6.26299
21
-4.14961
0
LINE
8
BLACK
6
CONTINUOUS
10
6.24724
20
-4.13386
11
6.27874
21
-4.13386
0
LINE
8
BLACK
6
CONTINUOUS
10
6.26299
20
-4.41811
11
6.26299
21
-4.44961
0
LINE
8
BLACK
6
CONTINUOUS
10
6.24724
20
-4.43386
11
6.27874
21
-4.43386
0
LINE
8
BLACK
6
CONTINUOUS
10
6.34173
20
-4.98425
11
6.34173
21
-5.01575
0
LINE
8
BLACK
6
CONTINUOUS
10
6.32598
20
-5
11
6.35748
21
-5
0
LINE
8
BLACK
6
CONTINUOUS
10
6.34173
20
-5.28425
11
6.34173
21
-5.31575
0
LINE
8
BLACK
6
CONTINUOUS
10
6.32598
20
-5.3
11
6.35748
21
-5.3
0
LINE
8
BLACK
6
CONTINUOUS
10
6.36299
20
-4.11811
11
6.36299
21
-4.14961
0
LINE
8
BLACK
6
CONTINUOUS
10
6.34724
20
-4.13386
11
6.37874
21
-4.13386
0
LINE
8
BLACK
6
CONTINUOUS
10
6.36299
20
-4.41811
11
6.36299
21
-4.44961
0
LINE
8
BLACK
6
CONTINUOUS
10
6.34724
20
-4.43386
11
6.37874
21
-4.43386
0
LINE
8
BLACK
6
CONTINUOUS
10
6.41732
20
-3.17323
11
6.41732
21
-3.20472
0
LINE
8
BLACK
6
CONTINUOUS
10
6.40157
20
-3.18898
11
6.43307
21
-3.18898
0
LINE
8
BLACK
6
CONTINUOUS
10
6.41732
20
-3.27323
11
6.41732
21
-3.30472
0
LINE
8
BLACK
6
CONTINUOUS
10
6.40157
20
-3.28898
11
6.43307
21
-3.28898
0
LINE
8
BLACK
6
CONTINUOUS
10
6.41732
20
-3.37323
11
6.41732
21
-3.40472
0
LINE
8
BLACK
6
CONTINUOUS
10
6.40157
20
-3.38898
11
6.43307
21
-3.38898
0
LINE
8
BLACK
6
CONTINUOUS
10
6.42717
20
-3.5374
11
6.42717
21
-3.5689
0
LINE
8
BLACK
6
CONTINUOUS
10
6.41142
20
-3.55315
11
6.44291
21
-3.55315
0
LINE
8
BLACK
6
CONTINUOUS
10
6.44173
20
-4.98425
11
6.44173
21
-5.01575
0
LINE
8
BLACK
6
CONTINUOUS
10
6.42598
20
-5
11
6.45748
21
-5
0
LINE
8
BLACK
6
CONTINUOUS
10
6.44173
20
-5.28425
11
6.44173
21
-5.31575
0
LINE
8
BLACK
6
CONTINUOUS
10
6.42598
20
-5.3
11
6.45748
21
-5.3
0
LINE
8
BLACK
6
CONTINUOUS
10
6.46299
20
-4.11811
11
6.46299
21
-4.14961
0
LINE
8
BLACK
6
CONTINUOUS
10
6.44724
20
-4.13386
11
6.47874
21
-4.13386
0
LINE
8
BLACK
6
CONTINUOUS
10
6.46299
20
-4.41811
11
6.46299
21
-4.44961
0
LINE
8
BLACK
6
CONTINUOUS
10
6.44724
20
-4.43386
11
6.47874
21
-4.43386
0
LINE
8
BLACK
6
CONTINUOUS
10
6.52205
20
-4.82677
11
6.52205
21
-4.85827
0
LINE
8
BLACK
6
CONTINUOUS
10
6.5063
20
-4.84252
11
6.5378
21
-4.84252
0
LINE
8
BLACK
6
CONTINUOUS
10
6.53543
20
-3.69488
11
6.53543
21
-3.72638
0
LINE
8
BLACK
6
CONTINUOUS
10
6.51969
20
-3.71063
11
6.55118
21
-3.71063
0
LINE
8
BLACK
6
CONTINUOUS
10
6.54173
20
-4.98425
11
6.54173
21
-5.01575
0
LINE
8
BLACK
6
CONTINUOUS
10
6.52598
20
-5
11
6.55748
21
-5
0
LINE
8
BLACK
6
CONTINUOUS
10
6.54173
20
-5.28425
11
6.54173
21
-5.31575
0
LINE
8
BLACK
6
CONTINUOUS
10
6.52598
20
-5.3
11
6.55748
21
-5.3
0
LINE
8
BLACK
6
CONTINUOUS
10
6.56299
20
-4.11811
11
6.56299
21
-4.14961
0
LINE
8
BLACK
6
CONTINUOUS
10
6.54724
20
-4.13386
11
6.57874
21
-4.13386
0
LINE
8
BLACK
6
CONTINUOUS
10
6.56299
20
-4.41811
11
6.56299
21
-4.44961
0
LINE
8
BLACK
6
CONTINUOUS
10
6.54724
20
-4.43386
11
6.57874
21
-4.43386
0
LINE
8
BLACK
6
CONTINUOUS
10
6.61417
20
-3.17323
11
6.61417
21
-3.20472
0
LINE
8
BLACK
6
CONTINUOUS
10
6.59843
20
-3.18898
11
6.62992
21
-3.18898
0
LINE
8
BLACK
6
CONTINUOUS
10
6.61417
20
-3.27323
11
6.61417
21
-3.30472
0
LINE
8
BLACK
6
CONTINUOUS
10
6.59843
20
-3.28898
11
6.62992
21
-3.28898
0
LINE
8
BLACK
6
CONTINUOUS
10
6.61417
20
-3.37323
11
6.61417
21
-3.40472
0
LINE
8
BLACK
6
CONTINUOUS
10
6.59843
20
-3.38898
11
6.62992
21
-3.38898
0
LINE
8
BLACK
6
CONTINUOUS
10
6.64173
20
-4.98425
11
6.64173
21
-5.01575
0
LINE
8
BLACK
6
CONTINUOUS
10
6.62598
20
-5
11
6.65748
21
-5
0
LINE
8
BLACK
6
CONTINUOUS
10
6.64173
20
-5.28425
11
6.64173
21
-5.31575
0
LINE
8
BLACK
6
CONTINUOUS
10
6.62598
20
-5.3
11
6.65748
21
-5.3
0
LINE
8
BLACK
6
CONTINUOUS
10
6.66299
20
-4.11811
11
6.66299
21
-4.14961
0
LINE
8
BLACK
6
CONTINUOUS
10
6.64724
20
-4.13386
11
6.67874
21
-4.13386
0
LINE
8
BLACK
6
CONTINUOUS
10
6.66299
20
-4.41811
11
6.66299
21
-4.44961
0
LINE
8
BLACK
6
CONTINUOUS
10
6.64724
20
-4.43386
11
6.67874
21
-4.43386
0
LINE
8
BLACK
6
CONTINUOUS
10
6.72244
20
-3.85236
11
6.72244
21
-3.88386
0
LINE
8
BLACK
6
CONTINUOUS
10
6.70669
20
-3.86811
11
6.73819
21
-3.86811
0
LINE
8
BLACK
6
CONTINUOUS
10
6.74173
20
-4.98425
11
6.74173
21
-5.01575
0
LINE
8
BLACK
6
CONTINUOUS
10
6.72598
20
-5
11
6.75748
21
-5
0
LINE
8
BLACK
6
CONTINUOUS
10
6.74173
20
-5.28425
11
6.74173
21
-5.31575
0
LINE
8
BLACK
6
CONTINUOUS
10
6.72598
20
-5.3
11
6.75748
21
-5.3
0
LINE
8
BLACK
6
CONTINUOUS
10
6.76299
20
-4.11811
11
6.76299
21
-4.14961
0
LINE
8
BLACK
6
CONTINUOUS
10
6.74724
20
-4.13386
11
6.77874
21
-4.13386
0
LINE
8
BLACK
6
CONTINUOUS
10
6.76299
20
-4.41811
11
6.76299
21
-4.44961
0
LINE
8
BLACK
6
CONTINUOUS
10
6.74724
20
-4.43386
11
6.77874
21
-4.43386
0
LINE
8
BLACK
6
CONTINUOUS
10
6.77165
20
-4.82677
11
6.77165
21
-4.85827
0
LINE
8
BLACK
6
CONTINUOUS
10
6.75591
20
-4.84252
11
6.7874
21
-4.84252
0
LINE
8
BLACK
6
CONTINUOUS
10
6.81102
20
-3.17323
11
6.81102
21
-3.20472
0
LINE
8
BLACK
6
CONTINUOUS
10
6.79528
20
-3.18898
11
6.82677
21
-3.18898
0
LINE
8
BLACK
6
CONTINUOUS
10
6.81102
20
-3.27323
11
6.81102
21
-3.30472
0
LINE
8
BLACK
6
CONTINUOUS
10
6.79528
20
-3.28898
11
6.82677
21
-3.28898
0
LINE
8
BLACK
6
CONTINUOUS
10
6.81102
20
-3.37323
11
6.81102
21
-3.40472
0
LINE
8
BLACK
6
CONTINUOUS
10
6.79528
20
-3.38898
11
6.82677
21
-3.38898
0
LINE
8
BLACK
6
CONTINUOUS
10
6.82717
20
-3.5374
11
6.82717
21
-3.5689
0
LINE
8
BLACK
6
CONTINUOUS
10
6.81142
20
-3.55315
11
6.84291
21
-3.55315
0
LINE
8
BLACK
6
CONTINUOUS
10
6.93543
20
-3.69488
11
6.93543
21
-3.72638
0
LINE
8
BLACK
6
CONTINUOUS
10
6.91969
20
-3.71063
11
6.95118
21
-3.71063
0
LINE
8
BLACK
6
CONTINUOUS
10
6.9685
20
-4.82677
11
6.9685
21
-4.85827
0
LINE
8
BLACK
6
CONTINUOUS
10
6.95276
20
-4.84252
11
6.98425
21
-4.84252
0
LINE
8
BLACK
6
CONTINUOUS
10
7.12244
20
-3.85236
11
7.12244
21
-3.88386
0
LINE
8
BLACK
6
CONTINUOUS
10
7.10669
20
-3.86811
11
7.13819
21
-3.86811
0
LINE
8
BLACK
6
CONTINUOUS
10
2.17927
20
-3.94778
11
2.17927
21
-3.91994
0
LINE
8
BLACK
6
CONTINUOUS
10
2.17927
20
-3.91994
11
2.15143
21
-3.91994
0
LINE
8
BLACK
6
CONTINUOUS
10
2.15143
20
-3.91994
11
2.15143
21
-3.94778
0
LINE
8
BLACK
6
CONTINUOUS
10
2.15143
20
-3.94778
11
2.17927
21
-3.94778
0
LINE
8
BLACK
6
CONTINUOUS
10
2.17927
20
-4.04778
11
2.17927
21
-4.01994
0
LINE
8
BLACK
6
CONTINUOUS
10
2.17927
20
-4.01994
11
2.15143
21
-4.01994
0
LINE
8
BLACK
6
CONTINUOUS
10
2.15143
20
-4.01994
11
2.15143
21
-4.04778
0
LINE
8
BLACK
6
CONTINUOUS
10
2.15143
20
-4.04778
11
2.17927
21
-4.04778
0
LINE
8
BLACK
6
CONTINUOUS
10
2.17927
20
-4.14778
11
2.17927
21
-4.11994
0
LINE
8
BLACK
6
CONTINUOUS
10
2.17927
20
-4.11994
11
2.15143
21
-4.11994
0
LINE
8
BLACK
6
CONTINUOUS
10
2.15143
20
-4.11994
11
2.15143
21
-4.14778
0
LINE
8
BLACK
6
CONTINUOUS
10
2.15143
20
-4.14778
11
2.17927
21
-4.14778
0
LINE
8
BLACK
6
CONTINUOUS
10
2.17927
20
-4.24778
11
2.17927
21
-4.21994
0
LINE
8
BLACK
6
CONTINUOUS
10
2.17927
20
-4.21994
11
2.15143
21
-4.21994
0
LINE
8
BLACK
6
CONTINUOUS
10
2.15143
20
-4.21994
11
2.15143
21
-4.24778
0
LINE
8
BLACK
6
CONTINUOUS
10
2.15143
20
-4.24778
11
2.17927
21
-4.24778
0
LINE
8
BLACK
6
CONTINUOUS
10
2.17927
20
-4.34778
11
2.17927
21
-4.31994
0
LINE
8
BLACK
6
CONTINUOUS
10
2.17927
20
-4.31994
11
2.15143
21
-4.31994
0
LINE
8
BLACK
6
CONTINUOUS
10
2.15143
20
-4.31994
11
2.15143
21
-4.34778
0
LINE
8
BLACK
6
CONTINUOUS
10
2.15143
20
-4.34778
11
2.17927
21
-4.34778
0
LINE
8
BLACK
6
CONTINUOUS
10
2.17927
20
-4.44778
11
2.17927
21
-4.41994
0
LINE
8
BLACK
6
CONTINUOUS
10
2.17927
20
-4.41994
11
2.15143
21
-4.41994
0
LINE
8
BLACK
6
CONTINUOUS
10
2.15143
20
-4.41994
11
2.15143
21
-4.44778
0
LINE
8
BLACK
6
CONTINUOUS
10
2.15143
20
-4.44778
11
2.17927
21
-4.44778
0
LINE
8
BLACK
6
CONTINUOUS
10
2.17927
20
-4.54778
11
2.17927
21
-4.51994
0
LINE
8
BLACK
6
CONTINUOUS
10
2.17927
20
-4.51994
11
2.15143
21
-4.51994
0
LINE
8
BLACK
6
CONTINUOUS
10
2.15143
20
-4.51994
11
2.15143
21
-4.54778
0
LINE
8
BLACK
6
CONTINUOUS
10
2.15143
20
-4.54778
11
2.17927
21
-4.54778
0
LINE
8
BLACK
6
CONTINUOUS
10
2.17927
20
-4.64778
11
2.17927
21
-4.61994
0
LINE
8
BLACK
6
CONTINUOUS
10
2.17927
20
-4.61994
11
2.15143
21
-4.61994
0
LINE
8
BLACK
6
CONTINUOUS
10
2.15143
20
-4.61994
11
2.15143
21
-4.64778
0
LINE
8
BLACK
6
CONTINUOUS
10
2.15143
20
-4.64778
11
2.17927
21
-4.64778
0
LINE
8
BLACK
6
CONTINUOUS
10
2.55329
20
-5.72258
11
2.55329
21
-5.69474
0
LINE
8
BLACK
6
CONTINUOUS
10
2.55329
20
-5.69474
11
2.52545
21
-5.69474
0
LINE
8
BLACK
6
CONTINUOUS
10
2.52545
20
-5.69474
11
2.52545
21
-5.72258
0
LINE
8
BLACK
6
CONTINUOUS
10
2.52545
20
-5.72258
11
2.55329
21
-5.72258
0
LINE
8
BLACK
6
CONTINUOUS
10
2.65329
20
-5.72258
11
2.65329
21
-5.69474
0
LINE
8
BLACK
6
CONTINUOUS
10
2.65329
20
-5.69474
11
2.62545
21
-5.69474
0
LINE
8
BLACK
6
CONTINUOUS
10
2.62545
20
-5.69474
11
2.62545
21
-5.72258
0
LINE
8
BLACK
6
CONTINUOUS
10
2.62545
20
-5.72258
11
2.65329
21
-5.72258
0
LINE
8
BLACK
6
CONTINUOUS
10
2.75329
20
-5.72258
11
2.75329
21
-5.69474
0
LINE
8
BLACK
6
CONTINUOUS
10
2.75329
20
-5.69474
11
2.72545
21
-5.69474
0
LINE
8
BLACK
6
CONTINUOUS
10
2.72545
20
-5.69474
11
2.72545
21
-5.72258
0
LINE
8
BLACK
6
CONTINUOUS
10
2.72545
20
-5.72258
11
2.75329
21
-5.72258
0
LINE
8
BLACK
6
CONTINUOUS
10
2.85329
20
-5.72258
11
2.85329
21
-5.69474
0
LINE
8
BLACK
6
CONTINUOUS
10
2.85329
20
-5.69474
11
2.82545
21
-5.69474
0
LINE
8
BLACK
6
CONTINUOUS
10
2.82545
20
-5.69474
11
2.82545
21
-5.72258
0
LINE
8
BLACK
6
CONTINUOUS
10
2.82545
20
-5.72258
11
2.85329
21
-5.72258
0
LINE
8
BLACK
6
CONTINUOUS
10
5.16668
20
-5.72258
11
5.16668
21
-5.69474
0
LINE
8
BLACK
6
CONTINUOUS
10
5.16668
20
-5.69474
11
5.13884
21
-5.69474
0
LINE
8
BLACK
6
CONTINUOUS
10
5.13884
20
-5.69474
11
5.13884
21
-5.72258
0
LINE
8
BLACK
6
CONTINUOUS
10
5.13884
20
-5.72258
11
5.16668
21
-5.72258
0
LINE
8
BLACK
6
CONTINUOUS
10
5.26668
20
-5.72258
11
5.26668
21
-5.69474
0
LINE
8
BLACK
6
CONTINUOUS
10
5.26668
20
-5.69474
11
5.23884
21
-5.69474
0
LINE
8
BLACK
6
CONTINUOUS
10
5.23884
20
-5.69474
11
5.23884
21
-5.72258
0
LINE
8
BLACK
6
CONTINUOUS
10
5.23884
20
-5.72258
11
5.26668
21
-5.72258
0
LINE
8
BLACK
6
CONTINUOUS
10
5.36668
20
-5.72258
11
5.36668
21
-5.69474
0
LINE
8
BLACK
6
CONTINUOUS
10
5.36668
20
-5.69474
11
5.33884
21
-5.69474
0
LINE
8
BLACK
6
CONTINUOUS
10
5.33884
20
-5.69474
11
5.33884
21
-5.72258
0
LINE
8
BLACK
6
CONTINUOUS
10
5.33884
20
-5.72258
11
5.36668
21
-5.72258
0
LINE
8
BLACK
6
CONTINUOUS
10
5.46668
20
-5.72258
11
5.46668
21
-5.69474
0
LINE
8
BLACK
6
CONTINUOUS
10
5.46668
20
-5.69474
11
5.43884
21
-5.69474
0
LINE
8
BLACK
6
CONTINUOUS
10
5.43884
20
-5.69474
11
5.43884
21
-5.72258
0
LINE
8
BLACK
6
CONTINUOUS
10
5.43884
20
-5.72258
11
5.46668
21
-5.72258
0
LINE
8
BLACK
6
CONTINUOUS
10
6.34778
20
-5.72258
11
6.34778
21
-5.69474
0
LINE
8
BLACK
6
CONTINUOUS
10
6.34778
20
-5.69474
11
6.31994
21
-5.69474
0
LINE
8
BLACK
6
CONTINUOUS
10
6.31994
20
-5.69474
11
6.31994
21
-5.72258
0
LINE
8
BLACK
6
CONTINUOUS
10
6.31994
20
-5.72258
11
6.34778
21
-5.72258
0
LINE
8
BLACK
6
CONTINUOUS
10
6.44778
20
-5.72258
11
6.44778
21
-5.69474
0
LINE
8
BLACK
6
CONTINUOUS
10
6.44778
20
-5.69474
11
6.41994
21
-5.69474
0
LINE
8
BLACK
6
CONTINUOUS
10
6.41994
20
-5.69474
11
6.41994
21
-5.72258
0
LINE
8
BLACK
6
CONTINUOUS
10
6.41994
20
-5.72258
11
6.44778
21
-5.72258
0
LINE
8
BLACK
6
CONTINUOUS
10
6.54778
20
-5.72258
11
6.54778
21
-5.69474
0
LINE
8
BLACK
6
CONTINUOUS
10
6.54778
20
-5.69474
11
6.51994
21
-5.69474
0
LINE
8
BLACK
6
CONTINUOUS
10
6.51994
20
-5.69474
11
6.51994
21
-5.72258
0
LINE
8
BLACK
6
CONTINUOUS
10
6.51994
20
-5.72258
11
6.54778
21
-5.72258
0
LINE
8
BLACK
6
CONTINUOUS
10
6.64778
20
-5.72258
11
6.64778
21
-5.69474
0
LINE
8
BLACK
6
CONTINUOUS
10
6.64778
20
-5.69474
11
6.61994
21
-5.69474
0
LINE
8
BLACK
6
CONTINUOUS
10
6.61994
20
-5.69474
11
6.61994
21
-5.72258
0
LINE
8
BLACK
6
CONTINUOUS
10
6.61994
20
-5.72258
11
6.64778
21
-5.72258
0
LINE
8
BLACK
6
CONTINUOUS
10
2.16535
20
-2.22835
11
2.22835
21
-2.16535
0
LINE
8
BLACK
6
CONTINUOUS
10
2.22835
20
-2.16535
11
2.16535
21
-2.10236
0
LINE
8
BLACK
6
CONTINUOUS
10
2.16535
20
-2.10236
11
2.10236
21
-2.16535
0
LINE
8
BLACK
6
CONTINUOUS
10
2.10236
20
-2.16535
11
2.16535
21
-2.22835
0
LINE
8
BLACK
6
CONTINUOUS
10
2.16535
20
-5.77165
11
2.22835
21
-5.70866
0
LINE
8
BLACK
6
CONTINUOUS
10
2.22835
20
-5.70866
11
2.16535
21
-5.64567
0
LINE
8
BLACK
6
CONTINUOUS
10
2.16535
20
-5.64567
11
2.10236
21
-5.70866
0
LINE
8
BLACK
6
CONTINUOUS
10
2.10236
20
-5.70866
11
2.16535
21
-5.77165
0
LINE
8
BLACK
6
CONTINUOUS
10
7.28346
20
-2.22835
11
7.34646
21
-2.16535
0
LINE
8
BLACK
6
CONTINUOUS
10
7.34646
20
-2.16535
11
7.28346
21
-2.10236
0
LINE
8
BLACK
6
CONTINUOUS
10
7.28346
20
-2.10236
11
7.22047
21
-2.16535
0
LINE
8
BLACK
6
CONTINUOUS
10
7.22047
20
-2.16535
11
7.28346
21
-2.22835
0
LINE
8
BLACK
6
CONTINUOUS
10
7.28346
20
-5.77165
11
7.34646
21
-5.70866
0
LINE
8
BLACK
6
CONTINUOUS
10
7.34646
20
-5.70866
11
7.28346
21
-5.64567
0
LINE
8
BLACK
6
CONTINUOUS
10
7.28346
20
-5.64567
11
7.22047
21
-5.70866
0
LINE
8
BLACK
6
CONTINUOUS
10
7.22047
20
-5.70866
11
7.28346
21
-5.77165
0
LINE
8
BLACK
6
CONTINUOUS
10
2.08029
20
-6.08985
11
2.08029
21
-5.97174
0
LINE
8
BLACK
6
CONTINUOUS
10
2.08029
20
-5.97174
11
2.10841
21
-5.97174
0
LINE
8
BLACK
6
CONTINUOUS
10
2.10841
20
-5.97174
11
2.12528
21
-5.97736
0
LINE
8
BLACK
6
CONTINUOUS
10
2.12528
20
-5.97736
11
2.13653
21
-5.98861
0
LINE
8
BLACK
6
CONTINUOUS
10
2.13653
20
-5.98861
11
2.14215
21
-5.99986
0
LINE
8
BLACK
6
CONTINUOUS
10
2.14215
20
-5.99986
11
2.14778
21
-6.02236
0
LINE
8
BLACK
6
CONTINUOUS
10
2.14778
20
-6.02236
11
2.14778
21
-6.03923
0
LINE
8
BLACK
6
CONTINUOUS
10
2.14778
20
-6.03923
11
2.14215
21
-6.06173
0
LINE
8
BLACK
6
CONTINUOUS
10
2.14215
20
-6.06173
11
2.13653
21
-6.07298
0
LINE
8
BLACK
6
CONTINUOUS
10
2.13653
20
-6.07298
11
2.12528
21
-6.08422
0
LINE
8
BLACK
6
CONTINUOUS
10
2.12528
20
-6.08422
11
2.10841
21
-6.08985
0
LINE
8
BLACK
6
CONTINUOUS
10
2.10841
20
-6.08985
11
2.08029
21
-6.08985
0
LINE
8
BLACK
6
CONTINUOUS
10
2.1984
20
-6.08985
11
2.1984
21
-6.01111
0
LINE
8
BLACK
6
CONTINUOUS
10
2.1984
20
-6.03361
11
2.20402
21
-6.02236
0
LINE
8
BLACK
6
CONTINUOUS
10
2.20402
20
-6.02236
11
2.20965
21
-6.01673
0
LINE
8
BLACK
6
CONTINUOUS
10
2.20965
20
-6.01673
11
2.22089
21
-6.01111
0
LINE
8
BLACK
6
CONTINUOUS
10
2.22089
20
-6.01111
11
2.23214
21
-6.01111
0
LINE
8
BLACK
6
CONTINUOUS
10
2.27151
20
-6.08985
11
2.27151
21
-6.01111
0
LINE
8
BLACK
6
CONTINUOUS
10
2.27151
20
-5.97174
11
2.26589
21
-5.97736
0
LINE
8
BLACK
6
CONTINUOUS
10
2.26589
20
-5.97736
11
2.27151
21
-5.98299
0
LINE
8
BLACK
6
CONTINUOUS
10
2.27151
20
-5.98299
11
2.27714
21
-5.97736
0
LINE
8
BLACK
6
CONTINUOUS
10
2.27714
20
-5.97736
11
2.27151
21
-5.97174
0
LINE
8
BLACK
6
CONTINUOUS
10
2.27151
20
-5.97174
11
2.27151
21
-5.98299
0
LINE
8
BLACK
6
CONTINUOUS
10
2.34463
20
-6.08985
11
2.33338
21
-6.08422
0
LINE
8
BLACK
6
CONTINUOUS
10
2.33338
20
-6.08422
11
2.32776
21
-6.07298
0
LINE
8
BLACK
6
CONTINUOUS
10
2.32776
20
-6.07298
11
2.32776
21
-5.97174
0
LINE
8
BLACK
6
CONTINUOUS
10
2.4065
20
-6.08985
11
2.39525
21
-6.08422
0
LINE
8
BLACK
6
CONTINUOUS
10
2.39525
20
-6.08422
11
2.38962
21
-6.07298
0
LINE
8
BLACK
6
CONTINUOUS
10
2.38962
20
-6.07298
11
2.38962
21
-5.97174
0
LINE
8
BLACK
6
CONTINUOUS
10
2.54148
20
-6.08985
11
2.54148
21
-5.97174
0
LINE
8
BLACK
6
CONTINUOUS
10
2.54148
20
-5.97174
11
2.58085
21
-6.0561
0
LINE
8
BLACK
6
CONTINUOUS
10
2.58085
20
-6.0561
11
2.62022
21
-5.97174
0
LINE
8
BLACK
6
CONTINUOUS
10
2.62022
20
-5.97174
11
2.62022
21
-6.08985
0
LINE
8
BLACK
6
CONTINUOUS
10
2.72708
20
-6.08985
11
2.72708
21
-6.02798
0
LINE
8
BLACK
6
CONTINUOUS
10
2.72708
20
-6.02798
11
2.72146
21
-6.01673
0
LINE
8
BLACK
6
CONTINUOUS
10
2.72146
20
-6.01673
11
2.71021
21
-6.01111
0
LINE
8
BLACK
6
CONTINUOUS
10
2.71021
20
-6.01111
11
2.68771
21
-6.01111
0
LINE
8
BLACK
6
CONTINUOUS
10
2.68771
20
-6.01111
11
2.67646
21
-6.01673
0
LINE
8
BLACK
6
CONTINUOUS
10
2.72708
20
-6.08422
11
2.71583
21
-6.08985
0
LINE
8
BLACK
6
CONTINUOUS
10
2.71583
20
-6.08985
11
2.68771
21
-6.08985
0
LINE
8
BLACK
6
CONTINUOUS
10
2.68771
20
-6.08985
11
2.67646
21
-6.08422
0
LINE
8
BLACK
6
CONTINUOUS
10
2.67646
20
-6.08422
11
2.67084
21
-6.07298
0
LINE
8
BLACK
6
CONTINUOUS
10
2.67084
20
-6.07298
11
2.67084
21
-6.06173
0
LINE
8
BLACK
6
CONTINUOUS
10
2.67084
20
-6.06173
11
2.67646
21
-6.05048
0
LINE
8
BLACK
6
CONTINUOUS
10
2.67646
20
-6.05048
11
2.68771
21
-6.04485
0
LINE
8
BLACK
6
CONTINUOUS
10
2.68771
20
-6.04485
11
2.71583
21
-6.04485
0
LINE
8
BLACK
6
CONTINUOUS
10
2.71583
20
-6.04485
11
2.72708
21
-6.03923
0
LINE
8
BLACK
6
CONTINUOUS
10
2.78332
20
-6.01111
11
2.78332
21
-6.12922
0
LINE
8
BLACK
6
CONTINUOUS
10
2.78332
20
-6.01673
11
2.79457
21
-6.01111
0
LINE
8
BLACK
6
CONTINUOUS
10
2.79457
20
-6.01111
11
2.81707
21
-6.01111
0
LINE
8
BLACK
6
CONTINUOUS
10
2.81707
20
-6.01111
11
2.82832
21
-6.01673
0
LINE
8
BLACK
6
CONTINUOUS
10
2.82832
20
-6.01673
11
2.83394
21
-6.02236
0
LINE
8
BLACK
6
CONTINUOUS
10
2.83394
20
-6.02236
11
2.83957
21
-6.03361
0
LINE
8
BLACK
6
CONTINUOUS
10
2.83957
20
-6.03361
11
2.83957
21
-6.06735
0
LINE
8
BLACK
6
CONTINUOUS
10
2.83957
20
-6.06735
11
2.83394
21
-6.0786
0
LINE
8
BLACK
6
CONTINUOUS
10
2.83394
20
-6.0786
11
2.82832
21
-6.08422
0
LINE
8
BLACK
6
CONTINUOUS
10
2.82832
20
-6.08422
11
2.81707
21
-6.08985
0
LINE
8
BLACK
6
CONTINUOUS
10
2.81707
20
-6.08985
11
2.79457
21
-6.08985
0
LINE
8
BLACK
6
CONTINUOUS
10
2.79457
20
-6.08985
11
2.78332
21
-6.08422
0
LINE
8
BLACK
6
CONTINUOUS
10
2.89019
20
-6.0786
11
2.89581
21
-6.08422
0
LINE
8
BLACK
6
CONTINUOUS
10
2.89581
20
-6.08422
11
2.89019
21
-6.08985
0
LINE
8
BLACK
6
CONTINUOUS
10
2.89019
20
-6.08985
11
2.88456
21
-6.08422
0
LINE
8
BLACK
6
CONTINUOUS
10
2.88456
20
-6.08422
11
2.89019
21
-6.0786
0
LINE
8
BLACK
6
CONTINUOUS
10
2.89019
20
-6.0786
11
2.89019
21
-6.08985
0
LINE
8
BLACK
6
CONTINUOUS
10
2.89019
20
-6.01673
11
2.89581
21
-6.02236
0
LINE
8
BLACK
6
CONTINUOUS
10
2.89581
20
-6.02236
11
2.89019
21
-6.02798
0
LINE
8
BLACK
6
CONTINUOUS
10
2.89019
20
-6.02798
11
2.88456
21
-6.02236
0
LINE
8
BLACK
6
CONTINUOUS
10
2.88456
20
-6.02236
11
2.89019
21
-6.01673
0
LINE
8
BLACK
6
CONTINUOUS
10
2.89019
20
-6.01673
11
2.89019
21
-6.02798
0
LINE
8
BLACK
6
CONTINUOUS
10
1.94783
20
-6.27461
11
1.96752
21
-6.29429
0
LINE
8
BLACK
6
CONTINUOUS
10
1.96752
20
-6.27461
11
1.94783
21
-6.29429
0
LINE
8
BLACK
6
CONTINUOUS
10
2.10278
20
-6.21977
11
2.11403
21
-6.21977
0
LINE
8
BLACK
6
CONTINUOUS
10
2.11403
20
-6.21977
11
2.12528
21
-6.22539
0
LINE
8
BLACK
6
CONTINUOUS
10
2.12528
20
-6.22539
11
2.13091
21
-6.23102
0
LINE
8
BLACK
6
CONTINUOUS
10
2.13091
20
-6.23102
11
2.13653
21
-6.24227
0
LINE
8
BLACK
6
CONTINUOUS
10
2.13653
20
-6.24227
11
2.14215
21
-6.26476
0
LINE
8
BLACK
6
CONTINUOUS
10
2.14215
20
-6.26476
11
2.14215
21
-6.29289
0
LINE
8
BLACK
6
CONTINUOUS
10
2.14215
20
-6.29289
11
2.13653
21
-6.31538
0
LINE
8
BLACK
6
CONTINUOUS
10
2.13653
20
-6.31538
11
2.13091
21
-6.32663
0
LINE
8
BLACK
6
CONTINUOUS
10
2.13091
20
-6.32663
11
2.12528
21
-6.33226
0
LINE
8
BLACK
6
CONTINUOUS
10
2.12528
20
-6.33226
11
2.11403
21
-6.33788
0
LINE
8
BLACK
6
CONTINUOUS
10
2.11403
20
-6.33788
11
2.10278
21
-6.33788
0
LINE
8
BLACK
6
CONTINUOUS
10
2.10278
20
-6.33788
11
2.09154
21
-6.33226
0
LINE
8
BLACK
6
CONTINUOUS
10
2.09154
20
-6.33226
11
2.08591
21
-6.32663
0
LINE
8
BLACK
6
CONTINUOUS
10
2.08591
20
-6.32663
11
2.08029
21
-6.31538
0
LINE
8
BLACK
6
CONTINUOUS
10
2.08029
20
-6.31538
11
2.07466
21
-6.29289
0
LINE
8
BLACK
6
CONTINUOUS
10
2.07466
20
-6.29289
11
2.07466
21
-6.26476
0
LINE
8
BLACK
6
CONTINUOUS
10
2.07466
20
-6.26476
11
2.08029
21
-6.24227
0
LINE
8
BLACK
6
CONTINUOUS
10
2.08029
20
-6.24227
11
2.08591
21
-6.23102
0
LINE
8
BLACK
6
CONTINUOUS
10
2.08591
20
-6.23102
11
2.09154
21
-6.22539
0
LINE
8
BLACK
6
CONTINUOUS
10
2.09154
20
-6.22539
11
2.10278
21
-6.21977
0
LINE
8
BLACK
6
CONTINUOUS
10
2.19277
20
-6.32663
11
2.1984
21
-6.33226
0
LINE
8
BLACK
6
CONTINUOUS
10
2.1984
20
-6.33226
11
2.19277
21
-6.33788
0
LINE
8
BLACK
6
CONTINUOUS
10
2.19277
20
-6.33788
11
2.18715
21
-6.33226
0
LINE
8
BLACK
6
CONTINUOUS
10
2.18715
20
-6.33226
11
2.19277
21
-6.32663
0
LINE
8
BLACK
6
CONTINUOUS
10
2.19277
20
-6.32663
11
2.19277
21
-6.33788
0
LINE
8
BLACK
6
CONTINUOUS
10
2.30526
20
-6.21977
11
2.24902
21
-6.21977
0
LINE
8
BLACK
6
CONTINUOUS
10
2.24902
20
-6.21977
11
2.24339
21
-6.27601
0
LINE
8
BLACK
6
CONTINUOUS
10
2.24339
20
-6.27601
11
2.24902
21
-6.27039
0
LINE
8
BLACK
6
CONTINUOUS
10
2.24902
20
-6.27039
11
2.26026
21
-6.26476
0
LINE
8
BLACK
6
CONTINUOUS
10
2.26026
20
-6.26476
11
2.28839
21
-6.26476
0
LINE
8
BLACK
6
CONTINUOUS
10
2.28839
20
-6.26476
11
2.29963
21
-6.27039
0
LINE
8
BLACK
6
CONTINUOUS
10
2.29963
20
-6.27039
11
2.30526
21
-6.27601
0
LINE
8
BLACK
6
CONTINUOUS
10
2.30526
20
-6.27601
11
2.31088
21
-6.28726
0
LINE
8
BLACK
6
CONTINUOUS
10
2.31088
20
-6.28726
11
2.31088
21
-6.31538
0
LINE
8
BLACK
6
CONTINUOUS
10
2.31088
20
-6.31538
11
2.30526
21
-6.32663
0
LINE
8
BLACK
6
CONTINUOUS
10
2.30526
20
-6.32663
11
2.29963
21
-6.33226
0
LINE
8
BLACK
6
CONTINUOUS
10
2.29963
20
-6.33226
11
2.28839
21
-6.33788
0
LINE
8
BLACK
6
CONTINUOUS
10
2.28839
20
-6.33788
11
2.26026
21
-6.33788
0
LINE
8
BLACK
6
CONTINUOUS
10
2.26026
20
-6.33788
11
2.24902
21
-6.33226
0
LINE
8
BLACK
6
CONTINUOUS
10
2.24902
20
-6.33226
11
2.24339
21
-6.32663
0
LINE
8
BLACK
6
CONTINUOUS
10
2.384
20
-6.21977
11
2.39525
21
-6.21977
0
LINE
8
BLACK
6
CONTINUOUS
10
2.39525
20
-6.21977
11
2.4065
21
-6.22539
0
LINE
8
BLACK
6
CONTINUOUS
10
2.4065
20
-6.22539
11
2.41212
21
-6.23102
0
LINE
8
BLACK
6
CONTINUOUS
10
2.41212
20
-6.23102
11
2.41774
21
-6.24227
0
LINE
8
BLACK
6
CONTINUOUS
10
2.41774
20
-6.24227
11
2.42337
21
-6.26476
0
LINE
8
BLACK
6
CONTINUOUS
10
2.42337
20
-6.26476
11
2.42337
21
-6.29289
0
LINE
8
BLACK
6
CONTINUOUS
10
2.42337
20
-6.29289
11
2.41774
21
-6.31538
0
LINE
8
BLACK
6
CONTINUOUS
10
2.41774
20
-6.31538
11
2.41212
21
-6.32663
0
LINE
8
BLACK
6
CONTINUOUS
10
2.41212
20
-6.32663
11
2.4065
21
-6.33226
0
LINE
8
BLACK
6
CONTINUOUS
10
2.4065
20
-6.33226
11
2.39525
21
-6.33788
0
LINE
8
BLACK
6
CONTINUOUS
10
2.39525
20
-6.33788
11
2.384
21
-6.33788
0
LINE
8
BLACK
6
CONTINUOUS
10
2.384
20
-6.33788
11
2.37275
21
-6.33226
0
LINE
8
BLACK
6
CONTINUOUS
10
2.37275
20
-6.33226
11
2.36713
21
-6.32663
0
LINE
8
BLACK
6
CONTINUOUS
10
2.36713
20
-6.32663
11
2.3615
21
-6.31538
0
LINE
8
BLACK
6
CONTINUOUS
10
2.3615
20
-6.31538
11
2.35588
21
-6.29289
0
LINE
8
BLACK
6
CONTINUOUS
10
2.35588
20
-6.29289
11
2.35588
21
-6.26476
0
LINE
8
BLACK
6
CONTINUOUS
10
2.35588
20
-6.26476
11
2.3615
21
-6.24227
0
LINE
8
BLACK
6
CONTINUOUS
10
2.3615
20
-6.24227
11
2.36713
21
-6.23102
0
LINE
8
BLACK
6
CONTINUOUS
10
2.36713
20
-6.23102
11
2.37275
21
-6.22539
0
LINE
8
BLACK
6
CONTINUOUS
10
2.37275
20
-6.22539
11
2.384
21
-6.21977
0
LINE
8
BLACK
6
CONTINUOUS
10
2.49648
20
-6.21977
11
2.50773
21
-6.21977
0
LINE
8
BLACK
6
CONTINUOUS
10
2.50773
20
-6.21977
11
2.51898
21
-6.22539
0
LINE
8
BLACK
6
CONTINUOUS
10
2.51898
20
-6.22539
11
2.52461
21
-6.23102
0
LINE
8
BLACK
6
CONTINUOUS
10
2.52461
20
-6.23102
11
2.53023
21
-6.24227
0
LINE
8
BLACK
6
CONTINUOUS
10
2.53023
20
-6.24227
11
2.53585
21
-6.26476
0
LINE
8
BLACK
6
CONTINUOUS
10
2.53585
20
-6.26476
11
2.53585
21
-6.29289
0
LINE
8
BLACK
6
CONTINUOUS
10
2.53585
20
-6.29289
11
2.53023
21
-6.31538
0
LINE
8
BLACK
6
CONTINUOUS
10
2.53023
20
-6.31538
11
2.52461
21
-6.32663
0
LINE
8
BLACK
6
CONTINUOUS
10
2.52461
20
-6.32663
11
2.51898
21
-6.33226
0
LINE
8
BLACK
6
CONTINUOUS
10
2.51898
20
-6.33226
11
2.50773
21
-6.33788
0
LINE
8
BLACK
6
CONTINUOUS
10
2.50773
20
-6.33788
11
2.49648
21
-6.33788
0
LINE
8
BLACK
6
CONTINUOUS
10
2.49648
20
-6.33788
11
2.48524
21
-6.33226
0
LINE
8
BLACK
6
CONTINUOUS
10
2.48524
20
-6.33226
11
2.47961
21
-6.32663
0
LINE
8
BLACK
6
CONTINUOUS
10
2.47961
20
-6.32663
11
2.47399
21
-6.31538
0
LINE
8
BLACK
6
CONTINUOUS
10
2.47399
20
-6.31538
11
2.46836
21
-6.29289
0
LINE
8
BLACK
6
CONTINUOUS
10
2.46836
20
-6.29289
11
2.46836
21
-6.26476
0
LINE
8
BLACK
6
CONTINUOUS
10
2.46836
20
-6.26476
11
2.47399
21
-6.24227
0
LINE
8
BLACK
6
CONTINUOUS
10
2.47399
20
-6.24227
11
2.47961
21
-6.23102
0
LINE
8
BLACK
6
CONTINUOUS
10
2.47961
20
-6.23102
11
2.48524
21
-6.22539
0
LINE
8
BLACK
6
CONTINUOUS
10
2.48524
20
-6.22539
11
2.49648
21
-6.21977
0
LINE
8
BLACK
6
CONTINUOUS
10
2.58647
20
-6.33788
11
2.58647
21
-6.25914
0
LINE
8
BLACK
6
CONTINUOUS
10
2.58647
20
-6.27039
11
2.5921
21
-6.26476
0
LINE
8
BLACK
6
CONTINUOUS
10
2.5921
20
-6.26476
11
2.60335
21
-6.25914
0
LINE
8
BLACK
6
CONTINUOUS
10
2.60335
20
-6.25914
11
2.62022
21
-6.25914
0
LINE
8
BLACK
6
CONTINUOUS
10
2.62022
20
-6.25914
11
2.63147
21
-6.26476
0
LINE
8
BLACK
6
CONTINUOUS
10
2.63147
20
-6.26476
11
2.63709
21
-6.27601
0
LINE
8
BLACK
6
CONTINUOUS
10
2.63709
20
-6.27601
11
2.63709
21
-6.33788
0
LINE
8
BLACK
6
CONTINUOUS
10
2.63709
20
-6.27601
11
2.64272
21
-6.26476
0
LINE
8
BLACK
6
CONTINUOUS
10
2.64272
20
-6.26476
11
2.65397
21
-6.25914
0
LINE
8
BLACK
6
CONTINUOUS
10
2.65397
20
-6.25914
11
2.67084
21
-6.25914
0
LINE
8
BLACK
6
CONTINUOUS
10
2.67084
20
-6.25914
11
2.68209
21
-6.26476
0
LINE
8
BLACK
6
CONTINUOUS
10
2.68209
20
-6.26476
11
2.68771
21
-6.27601
0
LINE
8
BLACK
6
CONTINUOUS
10
2.68771
20
-6.27601
11
2.68771
21
-6.33788
0
LINE
8
BLACK
6
CONTINUOUS
10
2.74395
20
-6.33788
11
2.74395
21
-6.25914
0
LINE
8
BLACK
6
CONTINUOUS
10
2.74395
20
-6.27039
11
2.74958
21
-6.26476
0
LINE
8
BLACK
6
CONTINUOUS
10
2.74958
20
-6.26476
11
2.76083
21
-6.25914
0
LINE
8
BLACK
6
CONTINUOUS
10
2.76083
20
-6.25914
11
2.7777
21
-6.25914
0
LINE
8
BLACK
6
CONTINUOUS
10
2.7777
20
-6.25914
11
2.78895
21
-6.26476
0
LINE
8
BLACK
6
CONTINUOUS
10
2.78895
20
-6.26476
11
2.79457
21
-6.27601
0
LINE
8
BLACK
6
CONTINUOUS
10
2.79457
20
-6.27601
11
2.79457
21
-6.33788
0
LINE
8
BLACK
6
CONTINUOUS
10
2.79457
20
-6.27601
11
2.8002
21
-6.26476
0
LINE
8
BLACK
6
CONTINUOUS
10
2.8002
20
-6.26476
11
2.81145
21
-6.25914
0
LINE
8
BLACK
6
CONTINUOUS
10
2.81145
20
-6.25914
11
2.82832
21
-6.25914
0
LINE
8
BLACK
6
CONTINUOUS
10
2.82832
20
-6.25914
11
2.83957
21
-6.26476
0
LINE
8
BLACK
6
CONTINUOUS
10
2.83957
20
-6.26476
11
2.84519
21
-6.27601
0
LINE
8
BLACK
6
CONTINUOUS
10
2.84519
20
-6.27601
11
2.84519
21
-6.33788
0
LINE
8
BLACK
6
CONTINUOUS
10
3.07579
20
-6.21415
11
2.97455
21
-6.366
0
LINE
8
BLACK
6
CONTINUOUS
10
3.22764
20
-6.21977
11
3.23889
21
-6.21977
0
LINE
8
BLACK
6
CONTINUOUS
10
3.23889
20
-6.21977
11
3.25014
21
-6.22539
0
LINE
8
BLACK
6
CONTINUOUS
10
3.25014
20
-6.22539
11
3.25576
21
-6.23102
0
LINE
8
BLACK
6
CONTINUOUS
10
3.25576
20
-6.23102
11
3.26139
21
-6.24227
0
LINE
8
BLACK
6
CONTINUOUS
10
3.26139
20
-6.24227
11
3.26701
21
-6.26476
0
LINE
8
BLACK
6
CONTINUOUS
10
3.26701
20
-6.26476
11
3.26701
21
-6.29289
0
LINE
8
BLACK
6
CONTINUOUS
10
3.26701
20
-6.29289
11
3.26139
21
-6.31538
0
LINE
8
BLACK
6
CONTINUOUS
10
3.26139
20
-6.31538
11
3.25576
21
-6.32663
0
LINE
8
BLACK
6
CONTINUOUS
10
3.25576
20
-6.32663
11
3.25014
21
-6.33226
0
LINE
8
BLACK
6
CONTINUOUS
10
3.25014
20
-6.33226
11
3.23889
21
-6.33788
0
LINE
8
BLACK
6
CONTINUOUS
10
3.23889
20
-6.33788
11
3.22764
21
-6.33788
0
LINE
8
BLACK
6
CONTINUOUS
10
3.22764
20
-6.33788
11
3.21639
21
-6.33226
0
LINE
8
BLACK
6
CONTINUOUS
10
3.21639
20
-6.33226
11
3.21077
21
-6.32663
0
LINE
8
BLACK
6
CONTINUOUS
10
3.21077
20
-6.32663
11
3.20515
21
-6.31538
0
LINE
8
BLACK
6
CONTINUOUS
10
3.20515
20
-6.31538
11
3.19952
21
-6.29289
0
LINE
8
BLACK
6
CONTINUOUS
10
3.19952
20
-6.29289
11
3.19952
21
-6.26476
0
LINE
8
BLACK
6
CONTINUOUS
10
3.19952
20
-6.26476
11
3.20515
21
-6.24227
0
LINE
8
BLACK
6
CONTINUOUS
10
3.20515
20
-6.24227
11
3.21077
21
-6.23102
0
LINE
8
BLACK
6
CONTINUOUS
10
3.21077
20
-6.23102
11
3.21639
21
-6.22539
0
LINE
8
BLACK
6
CONTINUOUS
10
3.21639
20
-6.22539
11
3.22764
21
-6.21977
0
LINE
8
BLACK
6
CONTINUOUS
10
3.31763
20
-6.32663
11
3.32326
21
-6.33226
0
LINE
8
BLACK
6
CONTINUOUS
10
3.32326
20
-6.33226
11
3.31763
21
-6.33788
0
LINE
8
BLACK
6
CONTINUOUS
10
3.31763
20
-6.33788
11
3.31201
21
-6.33226
0
LINE
8
BLACK
6
CONTINUOUS
10
3.31201
20
-6.33226
11
3.31763
21
-6.32663
0
LINE
8
BLACK
6
CONTINUOUS
10
3.31763
20
-6.32663
11
3.31763
21
-6.33788
0
LINE
8
BLACK
6
CONTINUOUS
10
3.39637
20
-6.21977
11
3.40762
21
-6.21977
0
LINE
8
BLACK
6
CONTINUOUS
10
3.40762
20
-6.21977
11
3.41887
21
-6.22539
0
LINE
8
BLACK
6
CONTINUOUS
10
3.41887
20
-6.22539
11
3.42449
21
-6.23102
0
LINE
8
BLACK
6
CONTINUOUS
10
3.42449
20
-6.23102
11
3.43012
21
-6.24227
0
LINE
8
BLACK
6
CONTINUOUS
10
3.43012
20
-6.24227
11
3.43574
21
-6.26476
0
LINE
8
BLACK
6
CONTINUOUS
10
3.43574
20
-6.26476
11
3.43574
21
-6.29289
0
LINE
8
BLACK
6
CONTINUOUS
10
3.43574
20
-6.29289
11
3.43012
21
-6.31538
0
LINE
8
BLACK
6
CONTINUOUS
10
3.43012
20
-6.31538
11
3.42449
21
-6.32663
0
LINE
8
BLACK
6
CONTINUOUS
10
3.42449
20
-6.32663
11
3.41887
21
-6.33226
0
LINE
8
BLACK
6
CONTINUOUS
10
3.41887
20
-6.33226
11
3.40762
21
-6.33788
0
LINE
8
BLACK
6
CONTINUOUS
10
3.40762
20
-6.33788
11
3.39637
21
-6.33788
0
LINE
8
BLACK
6
CONTINUOUS
10
3.39637
20
-6.33788
11
3.38512
21
-6.33226
0
LINE
8
BLACK
6
CONTINUOUS
10
3.38512
20
-6.33226
11
3.3795
21
-6.32663
0
LINE
8
BLACK
6
CONTINUOUS
10
3.3795
20
-6.32663
11
3.37388
21
-6.31538
0
LINE
8
BLACK
6
CONTINUOUS
10
3.37388
20
-6.31538
11
3.36825
21
-6.29289
0
LINE
8
BLACK
6
CONTINUOUS
10
3.36825
20
-6.29289
11
3.36825
21
-6.26476
0
LINE
8
BLACK
6
CONTINUOUS
10
3.36825
20
-6.26476
11
3.37388
21
-6.24227
0
LINE
8
BLACK
6
CONTINUOUS
10
3.37388
20
-6.24227
11
3.3795
21
-6.23102
0
LINE
8
BLACK
6
CONTINUOUS
10
3.3795
20
-6.23102
11
3.38512
21
-6.22539
0
LINE
8
BLACK
6
CONTINUOUS
10
3.38512
20
-6.22539
11
3.39637
21
-6.21977
0
LINE
8
BLACK
6
CONTINUOUS
10
3.54823
20
-6.33788
11
3.48074
21
-6.33788
0
LINE
8
BLACK
6
CONTINUOUS
10
3.51448
20
-6.33788
11
3.51448
21
-6.21977
0
LINE
8
BLACK
6
CONTINUOUS
10
3.51448
20
-6.21977
11
3.50323
21
-6.23664
0
LINE
8
BLACK
6
CONTINUOUS
10
3.50323
20
-6.23664
11
3.49199
21
-6.24789
0
LINE
8
BLACK
6
CONTINUOUS
10
3.49199
20
-6.24789
11
3.48074
21
-6.25352
0
LINE
8
BLACK
6
CONTINUOUS
10
3.60447
20
-6.33788
11
3.62697
21
-6.33788
0
LINE
8
BLACK
6
CONTINUOUS
10
3.62697
20
-6.33788
11
3.63822
21
-6.33226
0
LINE
8
BLACK
6
CONTINUOUS
10
3.63822
20
-6.33226
11
3.64384
21
-6.32663
0
LINE
8
BLACK
6
CONTINUOUS
10
3.64384
20
-6.32663
11
3.65509
21
-6.30976
0
LINE
8
BLACK
6
CONTINUOUS
10
3.65509
20
-6.30976
11
3.66071
21
-6.28726
0
LINE
8
BLACK
6
CONTINUOUS
10
3.66071
20
-6.28726
11
3.66071
21
-6.24227
0
LINE
8
BLACK
6
CONTINUOUS
10
3.66071
20
-6.24227
11
3.65509
21
-6.23102
0
LINE
8
BLACK
6
CONTINUOUS
10
3.65509
20
-6.23102
11
3.64947
21
-6.22539
0
LINE
8
BLACK
6
CONTINUOUS
10
3.64947
20
-6.22539
11
3.63822
21
-6.21977
0
LINE
8
BLACK
6
CONTINUOUS
10
3.63822
20
-6.21977
11
3.61572
21
-6.21977
0
LINE
8
BLACK
6
CONTINUOUS
10
3.61572
20
-6.21977
11
3.60447
21
-6.22539
0
LINE
8
BLACK
6
CONTINUOUS
10
3.60447
20
-6.22539
11
3.59885
21
-6.23102
0
LINE
8
BLACK
6
CONTINUOUS
10
3.59885
20
-6.23102
11
3.59322
21
-6.24227
0
LINE
8
BLACK
6
CONTINUOUS
10
3.59322
20
-6.24227
11
3.59322
21
-6.27039
0
LINE
8
BLACK
6
CONTINUOUS
10
3.59322
20
-6.27039
11
3.59885
21
-6.28164
0
LINE
8
BLACK
6
CONTINUOUS
10
3.59885
20
-6.28164
11
3.60447
21
-6.28726
0
LINE
8
BLACK
6
CONTINUOUS
10
3.60447
20
-6.28726
11
3.61572
21
-6.29289
0
LINE
8
BLACK
6
CONTINUOUS
10
3.61572
20
-6.29289
11
3.63822
21
-6.29289
0
LINE
8
BLACK
6
CONTINUOUS
10
3.63822
20
-6.29289
11
3.64947
21
-6.28726
0
LINE
8
BLACK
6
CONTINUOUS
10
3.64947
20
-6.28726
11
3.65509
21
-6.28164
0
LINE
8
BLACK
6
CONTINUOUS
10
3.65509
20
-6.28164
11
3.66071
21
-6.27039
0
LINE
8
BLACK
6
CONTINUOUS
10
3.70008
20
-6.21977
11
3.77882
21
-6.21977
0
LINE
8
BLACK
6
CONTINUOUS
10
3.77882
20
-6.21977
11
3.72821
21
-6.33788
0
LINE
8
BLACK
6
CONTINUOUS
10
3.81819
20
-6.21977
11
3.81819
21
-6.24227
0
LINE
8
BLACK
6
CONTINUOUS
10
3.86319
20
-6.21977
11
3.86319
21
-6.24227
0
LINE
8
BLACK
6
CONTINUOUS
10
4.03754
20
-6.38287
11
4.03192
21
-6.37725
0
LINE
8
BLACK
6
CONTINUOUS
10
4.03192
20
-6.37725
11
4.02067
21
-6.36038
0
LINE
8
BLACK
6
CONTINUOUS
10
4.02067
20
-6.36038
11
4.01504
21
-6.34913
0
LINE
8
BLACK
6
CONTINUOUS
10
4.01504
20
-6.34913
11
4.00942
21
-6.33226
0
LINE
8
BLACK
6
CONTINUOUS
10
4.00942
20
-6.33226
11
4.0038
21
-6.30413
0
LINE
8
BLACK
6
CONTINUOUS
10
4.0038
20
-6.30413
11
4.0038
21
-6.28164
0
LINE
8
BLACK
6
CONTINUOUS
10
4.0038
20
-6.28164
11
4.00942
21
-6.25352
0
LINE
8
BLACK
6
CONTINUOUS
10
4.00942
20
-6.25352
11
4.01504
21
-6.23664
0
LINE
8
BLACK
6
CONTINUOUS
10
4.01504
20
-6.23664
11
4.02067
21
-6.22539
0
LINE
8
BLACK
6
CONTINUOUS
10
4.02067
20
-6.22539
11
4.03192
21
-6.20852
0
LINE
8
BLACK
6
CONTINUOUS
10
4.03192
20
-6.20852
11
4.03754
21
-6.2029
0
LINE
8
BLACK
6
CONTINUOUS
10
4.07129
20
-6.21977
11
4.1444
21
-6.21977
0
LINE
8
BLACK
6
CONTINUOUS
10
4.1444
20
-6.21977
11
4.10503
21
-6.26476
0
LINE
8
BLACK
6
CONTINUOUS
10
4.10503
20
-6.26476
11
4.12191
21
-6.26476
0
LINE
8
BLACK
6
CONTINUOUS
10
4.12191
20
-6.26476
11
4.13316
21
-6.27039
0
LINE
8
BLACK
6
CONTINUOUS
10
4.13316
20
-6.27039
11
4.13878
21
-6.27601
0
LINE
8
BLACK
6
CONTINUOUS
10
4.13878
20
-6.27601
11
4.1444
21
-6.28726
0
LINE
8
BLACK
6
CONTINUOUS
10
4.1444
20
-6.28726
11
4.1444
21
-6.31538
0
LINE
8
BLACK
6
CONTINUOUS
10
4.1444
20
-6.31538
11
4.13878
21
-6.32663
0
LINE
8
BLACK
6
CONTINUOUS
10
4.13878
20
-6.32663
11
4.13316
21
-6.33226
0
LINE
8
BLACK
6
CONTINUOUS
10
4.13316
20
-6.33226
11
4.12191
21
-6.33788
0
LINE
8
BLACK
6
CONTINUOUS
10
4.12191
20
-6.33788
11
4.08816
21
-6.33788
0
LINE
8
BLACK
6
CONTINUOUS
10
4.08816
20
-6.33788
11
4.07691
21
-6.33226
0
LINE
8
BLACK
6
CONTINUOUS
10
4.07691
20
-6.33226
11
4.07129
21
-6.32663
0
LINE
8
BLACK
6
CONTINUOUS
10
4.1894
20
-6.23102
11
4.19502
21
-6.22539
0
LINE
8
BLACK
6
CONTINUOUS
10
4.19502
20
-6.22539
11
4.20627
21
-6.21977
0
LINE
8
BLACK
6
CONTINUOUS
10
4.20627
20
-6.21977
11
4.23439
21
-6.21977
0
LINE
8
BLACK
6
CONTINUOUS
10
4.23439
20
-6.21977
11
4.24564
21
-6.22539
0
LINE
8
BLACK
6
CONTINUOUS
10
4.24564
20
-6.22539
11
4.25127
21
-6.23102
0
LINE
8
BLACK
6
CONTINUOUS
10
4.25127
20
-6.23102
11
4.25689
21
-6.24227
0
LINE
8
BLACK
6
CONTINUOUS
10
4.25689
20
-6.24227
11
4.25689
21
-6.25352
0
LINE
8
BLACK
6
CONTINUOUS
10
4.25689
20
-6.25352
11
4.25127
21
-6.27039
0
LINE
8
BLACK
6
CONTINUOUS
10
4.25127
20
-6.27039
11
4.18377
21
-6.33788
0
LINE
8
BLACK
6
CONTINUOUS
10
4.18377
20
-6.33788
11
4.25689
21
-6.33788
0
LINE
8
BLACK
6
CONTINUOUS
10
4.3975
20
-6.33788
11
4.3975
21
-6.21977
0
LINE
8
BLACK
6
CONTINUOUS
10
4.44812
20
-6.33788
11
4.44812
21
-6.27601
0
LINE
8
BLACK
6
CONTINUOUS
10
4.44812
20
-6.27601
11
4.44249
21
-6.26476
0
LINE
8
BLACK
6
CONTINUOUS
10
4.44249
20
-6.26476
11
4.43124
21
-6.25914
0
LINE
8
BLACK
6
CONTINUOUS
10
4.43124
20
-6.25914
11
4.41437
21
-6.25914
0
LINE
8
BLACK
6
CONTINUOUS
10
4.41437
20
-6.25914
11
4.40312
21
-6.26476
0
LINE
8
BLACK
6
CONTINUOUS
10
4.40312
20
-6.26476
11
4.3975
21
-6.27039
0
LINE
8
BLACK
6
CONTINUOUS
10
4.52123
20
-6.33788
11
4.50998
21
-6.33226
0
LINE
8
BLACK
6
CONTINUOUS
10
4.50998
20
-6.33226
11
4.50436
21
-6.32663
0
LINE
8
BLACK
6
CONTINUOUS
10
4.50436
20
-6.32663
11
4.49873
21
-6.31538
0
LINE
8
BLACK
6
CONTINUOUS
10
4.49873
20
-6.31538
11
4.49873
21
-6.28164
0
LINE
8
BLACK
6
CONTINUOUS
10
4.49873
20
-6.28164
11
4.50436
21
-6.27039
0
LINE
8
BLACK
6
CONTINUOUS
10
4.50436
20
-6.27039
11
4.50998
21
-6.26476
0
LINE
8
BLACK
6
CONTINUOUS
10
4.50998
20
-6.26476
11
4.52123
21
-6.25914
0
LINE
8
BLACK
6
CONTINUOUS
10
4.52123
20
-6.25914
11
4.5381
21
-6.25914
0
LINE
8
BLACK
6
CONTINUOUS
10
4.5381
20
-6.25914
11
4.54935
21
-6.26476
0
LINE
8
BLACK
6
CONTINUOUS
10
4.54935
20
-6.26476
11
4.55498
21
-6.27039
0
LINE
8
BLACK
6
CONTINUOUS
10
4.55498
20
-6.27039
11
4.5606
21
-6.28164
0
LINE
8
BLACK
6
CONTINUOUS
10
4.5606
20
-6.28164
11
4.5606
21
-6.31538
0
LINE
8
BLACK
6
CONTINUOUS
10
4.5606
20
-6.31538
11
4.55498
21
-6.32663
0
LINE
8
BLACK
6
CONTINUOUS
10
4.55498
20
-6.32663
11
4.54935
21
-6.33226
0
LINE
8
BLACK
6
CONTINUOUS
10
4.54935
20
-6.33226
11
4.5381
21
-6.33788
0
LINE
8
BLACK
6
CONTINUOUS
10
4.5381
20
-6.33788
11
4.52123
21
-6.33788
0
LINE
8
BLACK
6
CONTINUOUS
10
4.62809
20
-6.33788
11
4.61684
21
-6.33226
0
LINE
8
BLACK
6
CONTINUOUS
10
4.61684
20
-6.33226
11
4.61122
21
-6.32101
0
LINE
8
BLACK
6
CONTINUOUS
10
4.61122
20
-6.32101
11
4.61122
21
-6.21977
0
LINE
8
BLACK
6
CONTINUOUS
10
4.71808
20
-6.33226
11
4.70683
21
-6.33788
0
LINE
8
BLACK
6
CONTINUOUS
10
4.70683
20
-6.33788
11
4.68434
21
-6.33788
0
LINE
8
BLACK
6
CONTINUOUS
10
4.68434
20
-6.33788
11
4.67309
21
-6.33226
0
LINE
8
BLACK
6
CONTINUOUS
10
4.67309
20
-6.33226
11
4.66746
21
-6.32101
0
LINE
8
BLACK
6
CONTINUOUS
10
4.66746
20
-6.32101
11
4.66746
21
-6.27601
0
LINE
8
BLACK
6
CONTINUOUS
10
4.66746
20
-6.27601
11
4.67309
21
-6.26476
0
LINE
8
BLACK
6
CONTINUOUS
10
4.67309
20
-6.26476
11
4.68434
21
-6.25914
0
LINE
8
BLACK
6
CONTINUOUS
10
4.68434
20
-6.25914
11
4.70683
21
-6.25914
0
LINE
8
BLACK
6
CONTINUOUS
10
4.70683
20
-6.25914
11
4.71808
21
-6.26476
0
LINE
8
BLACK
6
CONTINUOUS
10
4.71808
20
-6.26476
11
4.72371
21
-6.27601
0
LINE
8
BLACK
6
CONTINUOUS
10
4.72371
20
-6.27601
11
4.72371
21
-6.28726
0
LINE
8
BLACK
6
CONTINUOUS
10
4.72371
20
-6.28726
11
4.66746
21
-6.29851
0
LINE
8
BLACK
6
CONTINUOUS
10
4.7687
20
-6.33226
11
4.77995
21
-6.33788
0
LINE
8
BLACK
6
CONTINUOUS
10
4.77995
20
-6.33788
11
4.80245
21
-6.33788
0
LINE
8
BLACK
6
CONTINUOUS
10
4.80245
20
-6.33788
11
4.8137
21
-6.33226
0
LINE
8
BLACK
6
CONTINUOUS
10
4.8137
20
-6.33226
11
4.81932
21
-6.32101
0
LINE
8
BLACK
6
CONTINUOUS
10
4.81932
20
-6.32101
11
4.81932
21
-6.31538
0
LINE
8
BLACK
6
CONTINUOUS
10
4.81932
20
-6.31538
11
4.8137
21
-6.30413
0
LINE
8
BLACK
6
CONTINUOUS
10
4.8137
20
-6.30413
11
4.80245
21
-6.29851
0
LINE
8
BLACK
6
CONTINUOUS
10
4.80245
20
-6.29851
11
4.78557
21
-6.29851
0
LINE
8
BLACK
6
CONTINUOUS
10
4.78557
20
-6.29851
11
4.77433
21
-6.29289
0
LINE
8
BLACK
6
CONTINUOUS
10
4.77433
20
-6.29289
11
4.7687
21
-6.28164
0
LINE
8
BLACK
6
CONTINUOUS
10
4.7687
20
-6.28164
11
4.7687
21
-6.27601
0
LINE
8
BLACK
6
CONTINUOUS
10
4.7687
20
-6.27601
11
4.77433
21
-6.26476
0
LINE
8
BLACK
6
CONTINUOUS
10
4.77433
20
-6.26476
11
4.78557
21
-6.25914
0
LINE
8
BLACK
6
CONTINUOUS
10
4.78557
20
-6.25914
11
4.80245
21
-6.25914
0
LINE
8
BLACK
6
CONTINUOUS
10
4.80245
20
-6.25914
11
4.8137
21
-6.26476
0
LINE
8
BLACK
6
CONTINUOUS
10
4.85869
20
-6.38287
11
4.86431
21
-6.37725
0
LINE
8
BLACK
6
CONTINUOUS
10
4.86431
20
-6.37725
11
4.87556
21
-6.36038
0
LINE
8
BLACK
6
CONTINUOUS
10
4.87556
20
-6.36038
11
4.88119
21
-6.34913
0
LINE
8
BLACK
6
CONTINUOUS
10
4.88119
20
-6.34913
11
4.88681
21
-6.33226
0
LINE
8
BLACK
6
CONTINUOUS
10
4.88681
20
-6.33226
11
4.89244
21
-6.30413
0
LINE
8
BLACK
6
CONTINUOUS
10
4.89244
20
-6.30413
11
4.89244
21
-6.28164
0
LINE
8
BLACK
6
CONTINUOUS
10
4.89244
20
-6.28164
11
4.88681
21
-6.25352
0
LINE
8
BLACK
6
CONTINUOUS
10
4.88681
20
-6.25352
11
4.88119
21
-6.23664
0
LINE
8
BLACK
6
CONTINUOUS
10
4.88119
20
-6.23664
11
4.87556
21
-6.22539
0
LINE
8
BLACK
6
CONTINUOUS
10
4.87556
20
-6.22539
11
4.86431
21
-6.20852
0
LINE
8
BLACK
6
CONTINUOUS
10
4.86431
20
-6.20852
11
4.85869
21
-6.2029
0
CIRCLE
8
BLACK
10
1.95374
20
-6.44035
40
0.0137795
0
LINE
8
BLACK
6
CONTINUOUS
10
2.10278
20
-6.37567
11
2.11403
21
-6.37567
0
LINE
8
BLACK
6
CONTINUOUS
10
2.11403
20
-6.37567
11
2.12528
21
-6.3813
0
LINE
8
BLACK
6
CONTINUOUS
10
2.12528
20
-6.3813
11
2.13091
21
-6.38692
0
LINE
8
BLACK
6
CONTINUOUS
10
2.13091
20
-6.38692
11
2.13653
21
-6.39817
0
LINE
8
BLACK
6
CONTINUOUS
10
2.13653
20
-6.39817
11
2.14215
21
-6.42067
0
LINE
8
BLACK
6
CONTINUOUS
10
2.14215
20
-6.42067
11
2.14215
21
-6.44879
0
LINE
8
BLACK
6
CONTINUOUS
10
2.14215
20
-6.44879
11
2.13653
21
-6.47129
0
LINE
8
BLACK
6
CONTINUOUS
10
2.13653
20
-6.47129
11
2.13091
21
-6.48254
0
LINE
8
BLACK
6
CONTINUOUS
10
2.13091
20
-6.48254
11
2.12528
21
-6.48816
0
LINE
8
BLACK
6
CONTINUOUS
10
2.12528
20
-6.48816
11
2.11403
21
-6.49379
0
LINE
8
BLACK
6
CONTINUOUS
10
2.11403
20
-6.49379
11
2.10278
21
-6.49379
0
LINE
8
BLACK
6
CONTINUOUS
10
2.10278
20
-6.49379
11
2.09154
21
-6.48816
0
LINE
8
BLACK
6
CONTINUOUS
10
2.09154
20
-6.48816
11
2.08591
21
-6.48254
0
LINE
8
BLACK
6
CONTINUOUS
10
2.08591
20
-6.48254
11
2.08029
21
-6.47129
0
LINE
8
BLACK
6
CONTINUOUS
10
2.08029
20
-6.47129
11
2.07466
21
-6.44879
0
LINE
8
BLACK
6
CONTINUOUS
10
2.07466
20
-6.44879
11
2.07466
21
-6.42067
0
LINE
8
BLACK
6
CONTINUOUS
10
2.07466
20
-6.42067
11
2.08029
21
-6.39817
0
LINE
8
BLACK
6
CONTINUOUS
10
2.08029
20
-6.39817
11
2.08591
21
-6.38692
0
LINE
8
BLACK
6
CONTINUOUS
10
2.08591
20
-6.38692
11
2.09154
21
-6.3813
0
LINE
8
BLACK
6
CONTINUOUS
10
2.09154
20
-6.3813
11
2.10278
21
-6.37567
0
LINE
8
BLACK
6
CONTINUOUS
10
2.19277
20
-6.48254
11
2.1984
21
-6.48816
0
LINE
8
BLACK
6
CONTINUOUS
10
2.1984
20
-6.48816
11
2.19277
21
-6.49379
0
LINE
8
BLACK
6
CONTINUOUS
10
2.19277
20
-6.49379
11
2.18715
21
-6.48816
0
LINE
8
BLACK
6
CONTINUOUS
10
2.18715
20
-6.48816
11
2.19277
21
-6.48254
0
LINE
8
BLACK
6
CONTINUOUS
10
2.19277
20
-6.48254
11
2.19277
21
-6.49379
0
LINE
8
BLACK
6
CONTINUOUS
10
2.23777
20
-6.37567
11
2.31651
21
-6.37567
0
LINE
8
BLACK
6
CONTINUOUS
10
2.31651
20
-6.37567
11
2.26589
21
-6.49379
0
LINE
8
BLACK
6
CONTINUOUS
10
2.384
20
-6.37567
11
2.39525
21
-6.37567
0
LINE
8
BLACK
6
CONTINUOUS
10
2.39525
20
-6.37567
11
2.4065
21
-6.3813
0
LINE
8
BLACK
6
CONTINUOUS
10
2.4065
20
-6.3813
11
2.41212
21
-6.38692
0
LINE
8
BLACK
6
CONTINUOUS
10
2.41212
20
-6.38692
11
2.41774
21
-6.39817
0
LINE
8
BLACK
6
CONTINUOUS
10
2.41774
20
-6.39817
11
2.42337
21
-6.42067
0
LINE
8
BLACK
6
CONTINUOUS
10
2.42337
20
-6.42067
11
2.42337
21
-6.44879
0
LINE
8
BLACK
6
CONTINUOUS
10
2.42337
20
-6.44879
11
2.41774
21
-6.47129
0
LINE
8
BLACK
6
CONTINUOUS
10
2.41774
20
-6.47129
11
2.41212
21
-6.48254
0
LINE
8
BLACK
6
CONTINUOUS
10
2.41212
20
-6.48254
11
2.4065
21
-6.48816
0
LINE
8
BLACK
6
CONTINUOUS
10
2.4065
20
-6.48816
11
2.39525
21
-6.49379
0
LINE
8
BLACK
6
CONTINUOUS
10
2.39525
20
-6.49379
11
2.384
21
-6.49379
0
LINE
8
BLACK
6
CONTINUOUS
10
2.384
20
-6.49379
11
2.37275
21
-6.48816
0
LINE
8
BLACK
6
CONTINUOUS
10
2.37275
20
-6.48816
11
2.36713
21
-6.48254
0
LINE
8
BLACK
6
CONTINUOUS
10
2.36713
20
-6.48254
11
2.3615
21
-6.47129
0
LINE
8
BLACK
6
CONTINUOUS
10
2.3615
20
-6.47129
11
2.35588
21
-6.44879
0
LINE
8
BLACK
6
CONTINUOUS
10
2.35588
20
-6.44879
11
2.35588
21
-6.42067
0
LINE
8
BLACK
6
CONTINUOUS
10
2.35588
20
-6.42067
11
2.3615
21
-6.39817
0
LINE
8
BLACK
6
CONTINUOUS
10
2.3615
20
-6.39817
11
2.36713
21
-6.38692
0
LINE
8
BLACK
6
CONTINUOUS
10
2.36713
20
-6.38692
11
2.37275
21
-6.3813
0
LINE
8
BLACK
6
CONTINUOUS
10
2.37275
20
-6.3813
11
2.384
21
-6.37567
0
LINE
8
BLACK
6
CONTINUOUS
10
2.49648
20
-6.37567
11
2.50773
21
-6.37567
0
LINE
8
BLACK
6
CONTINUOUS
10
2.50773
20
-6.37567
11
2.51898
21
-6.3813
0
LINE
8
BLACK
6
CONTINUOUS
10
2.51898
20
-6.3813
11
2.52461
21
-6.38692
0
LINE
8
BLACK
6
CONTINUOUS
10
2.52461
20
-6.38692
11
2.53023
21
-6.39817
0
LINE
8
BLACK
6
CONTINUOUS
10
2.53023
20
-6.39817
11
2.53585
21
-6.42067
0
LINE
8
BLACK
6
CONTINUOUS
10
2.53585
20
-6.42067
11
2.53585
21
-6.44879
0
LINE
8
BLACK
6
CONTINUOUS
10
2.53585
20
-6.44879
11
2.53023
21
-6.47129
0
LINE
8
BLACK
6
CONTINUOUS
10
2.53023
20
-6.47129
11
2.52461
21
-6.48254
0
LINE
8
BLACK
6
CONTINUOUS
10
2.52461
20
-6.48254
11
2.51898
21
-6.48816
0
LINE
8
BLACK
6
CONTINUOUS
10
2.51898
20
-6.48816
11
2.50773
21
-6.49379
0
LINE
8
BLACK
6
CONTINUOUS
10
2.50773
20
-6.49379
11
2.49648
21
-6.49379
0
LINE
8
BLACK
6
CONTINUOUS
10
2.49648
20
-6.49379
11
2.48524
21
-6.48816
0
LINE
8
BLACK
6
CONTINUOUS
10
2.48524
20
-6.48816
11
2.47961
21
-6.48254
0
LINE
8
BLACK
6
CONTINUOUS
10
2.47961
20
-6.48254
11
2.47399
21
-6.47129
0
LINE
8
BLACK
6
CONTINUOUS
10
2.47399
20
-6.47129
11
2.46836
21
-6.44879
0
LINE
8
BLACK
6
CONTINUOUS
10
2.46836
20
-6.44879
11
2.46836
21
-6.42067
0
LINE
8
BLACK
6
CONTINUOUS
10
2.46836
20
-6.42067
11
2.47399
21
-6.39817
0
LINE
8
BLACK
6
CONTINUOUS
10
2.47399
20
-6.39817
11
2.47961
21
-6.38692
0
LINE
8
BLACK
6
CONTINUOUS
10
2.47961
20
-6.38692
11
2.48524
21
-6.3813
0
LINE
8
BLACK
6
CONTINUOUS
10
2.48524
20
-6.3813
11
2.49648
21
-6.37567
0
LINE
8
BLACK
6
CONTINUOUS
10
2.58647
20
-6.49379
11
2.58647
21
-6.41505
0
LINE
8
BLACK
6
CONTINUOUS
10
2.58647
20
-6.42629
11
2.5921
21
-6.42067
0
LINE
8
BLACK
6
CONTINUOUS
10
2.5921
20
-6.42067
11
2.60335
21
-6.41505
0
LINE
8
BLACK
6
CONTINUOUS
10
2.60335
20
-6.41505
11
2.62022
21
-6.41505
0
LINE
8
BLACK
6
CONTINUOUS
10
2.62022
20
-6.41505
11
2.63147
21
-6.42067
0
LINE
8
BLACK
6
CONTINUOUS
10
2.63147
20
-6.42067
11
2.63709
21
-6.43192
0
LINE
8
BLACK
6
CONTINUOUS
10
2.63709
20
-6.43192
11
2.63709
21
-6.49379
0
LINE
8
BLACK
6
CONTINUOUS
10
2.63709
20
-6.43192
11
2.64272
21
-6.42067
0
LINE
8
BLACK
6
CONTINUOUS
10
2.64272
20
-6.42067
11
2.65397
21
-6.41505
0
LINE
8
BLACK
6
CONTINUOUS
10
2.65397
20
-6.41505
11
2.67084
21
-6.41505
0
LINE
8
BLACK
6
CONTINUOUS
10
2.67084
20
-6.41505
11
2.68209
21
-6.42067
0
LINE
8
BLACK
6
CONTINUOUS
10
2.68209
20
-6.42067
11
2.68771
21
-6.43192
0
LINE
8
BLACK
6
CONTINUOUS
10
2.68771
20
-6.43192
11
2.68771
21
-6.49379
0
LINE
8
BLACK
6
CONTINUOUS
10
2.74395
20
-6.49379
11
2.74395
21
-6.41505
0
LINE
8
BLACK
6
CONTINUOUS
10
2.74395
20
-6.42629
11
2.74958
21
-6.42067
0
LINE
8
BLACK
6
CONTINUOUS
10
2.74958
20
-6.42067
11
2.76083
21
-6.41505
0
LINE
8
BLACK
6
CONTINUOUS
10
2.76083
20
-6.41505
11
2.7777
21
-6.41505
0
LINE
8
BLACK
6
CONTINUOUS
10
2.7777
20
-6.41505
11
2.78895
21
-6.42067
0
LINE
8
BLACK
6
CONTINUOUS
10
2.78895
20
-6.42067
11
2.79457
21
-6.43192
0
LINE
8
BLACK
6
CONTINUOUS
10
2.79457
20
-6.43192
11
2.79457
21
-6.49379
0
LINE
8
BLACK
6
CONTINUOUS
10
2.79457
20
-6.43192
11
2.8002
21
-6.42067
0
LINE
8
BLACK
6
CONTINUOUS
10
2.8002
20
-6.42067
11
2.81145
21
-6.41505
0
LINE
8
BLACK
6
CONTINUOUS
10
2.81145
20
-6.41505
11
2.82832
21
-6.41505
0
LINE
8
BLACK
6
CONTINUOUS
10
2.82832
20
-6.41505
11
2.83957
21
-6.42067
0
LINE
8
BLACK
6
CONTINUOUS
10
2.83957
20
-6.42067
11
2.84519
21
-6.43192
0
LINE
8
BLACK
6
CONTINUOUS
10
2.84519
20
-6.43192
11
2.84519
21
-6.49379
0
LINE
8
BLACK
6
CONTINUOUS
10
3.07579
20
-6.37005
11
2.97455
21
-6.52191
0
LINE
8
BLACK
6
CONTINUOUS
10
3.22764
20
-6.37567
11
3.23889
21
-6.37567
0
LINE
8
BLACK
6
CONTINUOUS
10
3.23889
20
-6.37567
11
3.25014
21
-6.3813
0
LINE
8
BLACK
6
CONTINUOUS
10
3.25014
20
-6.3813
11
3.25576
21
-6.38692
0
LINE
8
BLACK
6
CONTINUOUS
10
3.25576
20
-6.38692
11
3.26139
21
-6.39817
0
LINE
8
BLACK
6
CONTINUOUS
10
3.26139
20
-6.39817
11
3.26701
21
-6.42067
0
LINE
8
BLACK
6
CONTINUOUS
10
3.26701
20
-6.42067
11
3.26701
21
-6.44879
0
LINE
8
BLACK
6
CONTINUOUS
10
3.26701
20
-6.44879
11
3.26139
21
-6.47129
0
LINE
8
BLACK
6
CONTINUOUS
10
3.26139
20
-6.47129
11
3.25576
21
-6.48254
0
LINE
8
BLACK
6
CONTINUOUS
10
3.25576
20
-6.48254
11
3.25014
21
-6.48816
0
LINE
8
BLACK
6
CONTINUOUS
10
3.25014
20
-6.48816
11
3.23889
21
-6.49379
0
LINE
8
BLACK
6
CONTINUOUS
10
3.23889
20
-6.49379
11
3.22764
21
-6.49379
0
LINE
8
BLACK
6
CONTINUOUS
10
3.22764
20
-6.49379
11
3.21639
21
-6.48816
0
LINE
8
BLACK
6
CONTINUOUS
10
3.21639
20
-6.48816
11
3.21077
21
-6.48254
0
LINE
8
BLACK
6
CONTINUOUS
10
3.21077
20
-6.48254
11
3.20515
21
-6.47129
0
LINE
8
BLACK
6
CONTINUOUS
10
3.20515
20
-6.47129
11
3.19952
21
-6.44879
0
LINE
8
BLACK
6
CONTINUOUS
10
3.19952
20
-6.44879
11
3.19952
21
-6.42067
0
LINE
8
BLACK
6
CONTINUOUS
10
3.19952
20
-6.42067
11
3.20515
21
-6.39817
0
LINE
8
BLACK
6
CONTINUOUS
10
3.20515
20
-6.39817
11
3.21077
21
-6.38692
0
LINE
8
BLACK
6
CONTINUOUS
10
3.21077
20
-6.38692
11
3.21639
21
-6.3813
0
LINE
8
BLACK
6
CONTINUOUS
10
3.21639
20
-6.3813
11
3.22764
21
-6.37567
0
LINE
8
BLACK
6
CONTINUOUS
10
3.31763
20
-6.48254
11
3.32326
21
-6.48816
0
LINE
8
BLACK
6
CONTINUOUS
10
3.32326
20
-6.48816
11
3.31763
21
-6.49379
0
LINE
8
BLACK
6
CONTINUOUS
10
3.31763
20
-6.49379
11
3.31201
21
-6.48816
0
LINE
8
BLACK
6
CONTINUOUS
10
3.31201
20
-6.48816
11
3.31763
21
-6.48254
0
LINE
8
BLACK
6
CONTINUOUS
10
3.31763
20
-6.48254
11
3.31763
21
-6.49379
0
LINE
8
BLACK
6
CONTINUOUS
10
3.39637
20
-6.37567
11
3.40762
21
-6.37567
0
LINE
8
BLACK
6
CONTINUOUS
10
3.40762
20
-6.37567
11
3.41887
21
-6.3813
0
LINE
8
BLACK
6
CONTINUOUS
10
3.41887
20
-6.3813
11
3.42449
21
-6.38692
0
LINE
8
BLACK
6
CONTINUOUS
10
3.42449
20
-6.38692
11
3.43012
21
-6.39817
0
LINE
8
BLACK
6
CONTINUOUS
10
3.43012
20
-6.39817
11
3.43574
21
-6.42067
0
LINE
8
BLACK
6
CONTINUOUS
10
3.43574
20
-6.42067
11
3.43574
21
-6.44879
0
LINE
8
BLACK
6
CONTINUOUS
10
3.43574
20
-6.44879
11
3.43012
21
-6.47129
0
LINE
8
BLACK
6
CONTINUOUS
10
3.43012
20
-6.47129
11
3.42449
21
-6.48254
0
LINE
8
BLACK
6
CONTINUOUS
10
3.42449
20
-6.48254
11
3.41887
21
-6.48816
0
LINE
8
BLACK
6
CONTINUOUS
10
3.41887
20
-6.48816
11
3.40762
21
-6.49379
0
LINE
8
BLACK
6
CONTINUOUS
10
3.40762
20
-6.49379
11
3.39637
21
-6.49379
0
LINE
8
BLACK
6
CONTINUOUS
10
3.39637
20
-6.49379
11
3.38512
21
-6.48816
0
LINE
8
BLACK
6
CONTINUOUS
10
3.38512
20
-6.48816
11
3.3795
21
-6.48254
0
LINE
8
BLACK
6
CONTINUOUS
10
3.3795
20
-6.48254
11
3.37388
21
-6.47129
0
LINE
8
BLACK
6
CONTINUOUS
10
3.37388
20
-6.47129
11
3.36825
21
-6.44879
0
LINE
8
BLACK
6
CONTINUOUS
10
3.36825
20
-6.44879
11
3.36825
21
-6.42067
0
LINE
8
BLACK
6
CONTINUOUS
10
3.36825
20
-6.42067
11
3.37388
21
-6.39817
0
LINE
8
BLACK
6
CONTINUOUS
10
3.37388
20
-6.39817
11
3.3795
21
-6.38692
0
LINE
8
BLACK
6
CONTINUOUS
10
3.3795
20
-6.38692
11
3.38512
21
-6.3813
0
LINE
8
BLACK
6
CONTINUOUS
10
3.38512
20
-6.3813
11
3.39637
21
-6.37567
0
LINE
8
BLACK
6
CONTINUOUS
10
3.48074
20
-6.38692
11
3.48636
21
-6.3813
0
LINE
8
BLACK
6
CONTINUOUS
10
3.48636
20
-6.3813
11
3.49761
21
-6.37567
0
LINE
8
BLACK
6
CONTINUOUS
10
3.49761
20
-6.37567
11
3.52573
21
-6.37567
0
LINE
8
BLACK
6
CONTINUOUS
10
3.52573
20
-6.37567
11
3.53698
21
-6.3813
0
LINE
8
BLACK
6
CONTINUOUS
10
3.53698
20
-6.3813
11
3.5426
21
-6.38692
0
LINE
8
BLACK
6
CONTINUOUS
10
3.5426
20
-6.38692
11
3.54823
21
-6.39817
0
LINE
8
BLACK
6
CONTINUOUS
10
3.54823
20
-6.39817
11
3.54823
21
-6.40942
0
LINE
8
BLACK
6
CONTINUOUS
10
3.54823
20
-6.40942
11
3.5426
21
-6.42629
0
LINE
8
BLACK
6
CONTINUOUS
10
3.5426
20
-6.42629
11
3.47511
21
-6.49379
0
LINE
8
BLACK
6
CONTINUOUS
10
3.47511
20
-6.49379
11
3.54823
21
-6.49379
0
LINE
8
BLACK
6
CONTINUOUS
10
3.5876
20
-6.37567
11
3.66634
21
-6.37567
0
LINE
8
BLACK
6
CONTINUOUS
10
3.66634
20
-6.37567
11
3.61572
21
-6.49379
0
LINE
8
BLACK
6
CONTINUOUS
10
3.76195
20
-6.37567
11
3.73945
21
-6.37567
0
LINE
8
BLACK
6
CONTINUOUS
10
3.73945
20
-6.37567
11
3.72821
21
-6.3813
0
LINE
8
BLACK
6
CONTINUOUS
10
3.72821
20
-6.3813
11
3.72258
21
-6.38692
0
LINE
8
BLACK
6
CONTINUOUS
10
3.72258
20
-6.38692
11
3.71133
21
-6.4038
0
LINE
8
BLACK
6
CONTINUOUS
10
3.71133
20
-6.4038
11
3.70571
21
-6.42629
0
LINE
8
BLACK
6
CONTINUOUS
10
3.70571
20
-6.42629
11
3.70571
21
-6.47129
0
LINE
8
BLACK
6
CONTINUOUS
10
3.70571
20
-6.47129
11
3.71133
21
-6.48254
0
LINE
8
BLACK
6
CONTINUOUS
10
3.71133
20
-6.48254
11
3.71696
21
-6.48816
0
LINE
8
BLACK
6
CONTINUOUS
10
3.71696
20
-6.48816
11
3.72821
21
-6.49379
0
LINE
8
BLACK
6
CONTINUOUS
10
3.72821
20
-6.49379
11
3.7507
21
-6.49379
0
LINE
8
BLACK
6
CONTINUOUS
10
3.7507
20
-6.49379
11
3.76195
21
-6.48816
0
LINE
8
BLACK
6
CONTINUOUS
10
3.76195
20
-6.48816
11
3.76758
21
-6.48254
0
LINE
8
BLACK
6
CONTINUOUS
10
3.76758
20
-6.48254
11
3.7732
21
-6.47129
0
LINE
8
BLACK
6
CONTINUOUS
10
3.7732
20
-6.47129
11
3.7732
21
-6.44317
0
LINE
8
BLACK
6
CONTINUOUS
10
3.7732
20
-6.44317
11
3.76758
21
-6.43192
0
LINE
8
BLACK
6
CONTINUOUS
10
3.76758
20
-6.43192
11
3.76195
21
-6.42629
0
LINE
8
BLACK
6
CONTINUOUS
10
3.76195
20
-6.42629
11
3.7507
21
-6.42067
0
LINE
8
BLACK
6
CONTINUOUS
10
3.7507
20
-6.42067
11
3.72821
21
-6.42067
0
LINE
8
BLACK
6
CONTINUOUS
10
3.72821
20
-6.42067
11
3.71696
21
-6.42629
0
LINE
8
BLACK
6
CONTINUOUS
10
3.71696
20
-6.42629
11
3.71133
21
-6.43192
0
LINE
8
BLACK
6
CONTINUOUS
10
3.71133
20
-6.43192
11
3.70571
21
-6.44317
0
LINE
8
BLACK
6
CONTINUOUS
10
3.81819
20
-6.37567
11
3.81819
21
-6.39817
0
LINE
8
BLACK
6
CONTINUOUS
10
3.86319
20
-6.37567
11
3.86319
21
-6.39817
0
LINE
8
BLACK
6
CONTINUOUS
10
4.03754
20
-6.53878
11
4.03192
21
-6.53316
0
LINE
8
BLACK
6
CONTINUOUS
10
4.03192
20
-6.53316
11
4.02067
21
-6.51628
0
LINE
8
BLACK
6
CONTINUOUS
10
4.02067
20
-6.51628
11
4.01504
21
-6.50503
0
LINE
8
BLACK
6
CONTINUOUS
10
4.01504
20
-6.50503
11
4.00942
21
-6.48816
0
LINE
8
BLACK
6
CONTINUOUS
10
4.00942
20
-6.48816
11
4.0038
21
-6.46004
0
LINE
8
BLACK
6
CONTINUOUS
10
4.0038
20
-6.46004
11
4.0038
21
-6.43754
0
LINE
8
BLACK
6
CONTINUOUS
10
4.0038
20
-6.43754
11
4.00942
21
-6.40942
0
LINE
8
BLACK
6
CONTINUOUS
10
4.00942
20
-6.40942
11
4.01504
21
-6.39255
0
LINE
8
BLACK
6
CONTINUOUS
10
4.01504
20
-6.39255
11
4.02067
21
-6.3813
0
LINE
8
BLACK
6
CONTINUOUS
10
4.02067
20
-6.3813
11
4.03192
21
-6.36443
0
LINE
8
BLACK
6
CONTINUOUS
10
4.03192
20
-6.36443
11
4.03754
21
-6.3588
0
LINE
8
BLACK
6
CONTINUOUS
10
4.1444
20
-6.49379
11
4.07691
21
-6.49379
0
LINE
8
BLACK
6
CONTINUOUS
10
4.11066
20
-6.49379
11
4.11066
21
-6.37567
0
LINE
8
BLACK
6
CONTINUOUS
10
4.11066
20
-6.37567
11
4.09941
21
-6.39255
0
LINE
8
BLACK
6
CONTINUOUS
10
4.09941
20
-6.39255
11
4.08816
21
-6.4038
0
LINE
8
BLACK
6
CONTINUOUS
10
4.08816
20
-6.4038
11
4.07691
21
-6.40942
0
LINE
8
BLACK
6
CONTINUOUS
10
4.24564
20
-6.41505
11
4.24564
21
-6.49379
0
LINE
8
BLACK
6
CONTINUOUS
10
4.21752
20
-6.37005
11
4.1894
21
-6.45442
0
LINE
8
BLACK
6
CONTINUOUS
10
4.1894
20
-6.45442
11
4.26251
21
-6.45442
0
LINE
8
BLACK
6
CONTINUOUS
10
4.3975
20
-6.49379
11
4.3975
21
-6.37567
0
LINE
8
BLACK
6
CONTINUOUS
10
4.44812
20
-6.49379
11
4.44812
21
-6.43192
0
LINE
8
BLACK
6
CONTINUOUS
10
4.44812
20
-6.43192
11
4.44249
21
-6.42067
0
LINE
8
BLACK
6
CONTINUOUS
10
4.44249
20
-6.42067
11
4.43124
21
-6.41505
0
LINE
8
BLACK
6
CONTINUOUS
10
4.43124
20
-6.41505
11
4.41437
21
-6.41505
0
LINE
8
BLACK
6
CONTINUOUS
10
4.41437
20
-6.41505
11
4.40312
21
-6.42067
0
LINE
8
BLACK
6
CONTINUOUS
10
4.40312
20
-6.42067
11
4.3975
21
-6.42629
0
LINE
8
BLACK
6
CONTINUOUS
10
4.52123
20
-6.49379
11
4.50998
21
-6.48816
0
LINE
8
BLACK
6
CONTINUOUS
10
4.50998
20
-6.48816
11
4.50436
21
-6.48254
0
LINE
8
BLACK
6
CONTINUOUS
10
4.50436
20
-6.48254
11
4.49873
21
-6.47129
0
LINE
8
BLACK
6
CONTINUOUS
10
4.49873
20
-6.47129
11
4.49873
21
-6.43754
0
LINE
8
BLACK
6
CONTINUOUS
10
4.49873
20
-6.43754
11
4.50436
21
-6.42629
0
LINE
8
BLACK
6
CONTINUOUS
10
4.50436
20
-6.42629
11
4.50998
21
-6.42067
0
LINE
8
BLACK
6
CONTINUOUS
10
4.50998
20
-6.42067
11
4.52123
21
-6.41505
0
LINE
8
BLACK
6
CONTINUOUS
10
4.52123
20
-6.41505
11
4.5381
21
-6.41505
0
LINE
8
BLACK
6
CONTINUOUS
10
4.5381
20
-6.41505
11
4.54935
21
-6.42067
0
LINE
8
BLACK
6
CONTINUOUS
10
4.54935
20
-6.42067
11
4.55498
21
-6.42629
0
LINE
8
BLACK
6
CONTINUOUS
10
4.55498
20
-6.42629
11
4.5606
21
-6.43754
0
LINE
8
BLACK
6
CONTINUOUS
10
4.5606
20
-6.43754
11
4.5606
21
-6.47129
0
LINE
8
BLACK
6
CONTINUOUS
10
4.5606
20
-6.47129
11
4.55498
21
-6.48254
0
LINE
8
BLACK
6
CONTINUOUS
10
4.55498
20
-6.48254
11
4.54935
21
-6.48816
0
LINE
8
BLACK
6
CONTINUOUS
10
4.54935
20
-6.48816
11
4.5381
21
-6.49379
0
LINE
8
BLACK
6
CONTINUOUS
10
4.5381
20
-6.49379
11
4.52123
21
-6.49379
0
LINE
8
BLACK
6
CONTINUOUS
10
4.62809
20
-6.49379
11
4.61684
21
-6.48816
0
LINE
8
BLACK
6
CONTINUOUS
10
4.61684
20
-6.48816
11
4.61122
21
-6.47691
0
LINE
8
BLACK
6
CONTINUOUS
10
4.61122
20
-6.47691
11
4.61122
21
-6.37567
0
LINE
8
BLACK
6
CONTINUOUS
10
4.71808
20
-6.48816
11
4.70683
21
-6.49379
0
LINE
8
BLACK
6
CONTINUOUS
10
4.70683
20
-6.49379
11
4.68434
21
-6.49379
0
LINE
8
BLACK
6
CONTINUOUS
10
4.68434
20
-6.49379
11
4.67309
21
-6.48816
0
LINE
8
BLACK
6
CONTINUOUS
10
4.67309
20
-6.48816
11
4.66746
21
-6.47691
0
LINE
8
BLACK
6
CONTINUOUS
10
4.66746
20
-6.47691
11
4.66746
21
-6.43192
0
LINE
8
BLACK
6
CONTINUOUS
10
4.66746
20
-6.43192
11
4.67309
21
-6.42067
0
LINE
8
BLACK
6
CONTINUOUS
10
4.67309
20
-6.42067
11
4.68434
21
-6.41505
0
LINE
8
BLACK
6
CONTINUOUS
10
4.68434
20
-6.41505
11
4.70683
21
-6.41505
0
LINE
8
BLACK
6
CONTINUOUS
10
4.70683
20
-6.41505
11
4.71808
21
-6.42067
0
LINE
8
BLACK
6
CONTINUOUS
10
4.71808
20
-6.42067
11
4.72371
21
-6.43192
0
LINE
8
BLACK
6
CONTINUOUS
10
4.72371
20
-6.43192
11
4.72371
21
-6.44317
0
LINE
8
BLACK
6
CONTINUOUS
10
4.72371
20
-6.44317
11
4.66746
21
-6.45442
0
LINE
8
BLACK
6
CONTINUOUS
10
4.7687
20
-6.48816
11
4.77995
21
-6.49379
0
LINE
8
BLACK
6
CONTINUOUS
10
4.77995
20
-6.49379
11
4.80245
21
-6.49379
0
LINE
8
BLACK
6
CONTINUOUS
10
4.80245
20
-6.49379
11
4.8137
21
-6.48816
0
LINE
8
BLACK
6
CONTINUOUS
10
4.8137
20
-6.48816
11
4.81932
21
-6.47691
0
LINE
8
BLACK
6
CONTINUOUS
10
4.81932
20
-6.47691
11
4.81932
21
-6.47129
0
LINE
8
BLACK
6
CONTINUOUS
10
4.81932
20
-6.47129
11
4.8137
21
-6.46004
0
LINE
8
BLACK
6
CONTINUOUS
10
4.8137
20
-6.46004
11
4.80245
21
-6.45442
0
LINE
8
BLACK
6
CONTINUOUS
10
4.80245
20
-6.45442
11
4.78557
21
-6.45442
0
LINE
8
BLACK
6
CONTINUOUS
10
4.78557
20
-6.45442
11
4.77433
21
-6.44879
0
LINE
8
BLACK
6
CONTINUOUS
10
4.77433
20
-6.44879
11
4.7687
21
-6.43754
0
LINE
8
BLACK
6
CONTINUOUS
10
4.7687
20
-6.43754
11
4.7687
21
-6.43192
0
LINE
8
BLACK
6
CONTINUOUS
10
4.7687
20
-6.43192
11
4.77433
21
-6.42067
0
LINE
8
BLACK
6
CONTINUOUS
10
4.77433
20
-6.42067
11
4.78557
21
-6.41505
0
LINE
8
BLACK
6
CONTINUOUS
10
4.78557
20
-6.41505
11
4.80245
21
-6.41505
0
LINE
8
BLACK
6
CONTINUOUS
10
4.80245
20
-6.41505
11
4.8137
21
-6.42067
0
LINE
8
BLACK
6
CONTINUOUS
10
4.85869
20
-6.53878
11
4.86431
21
-6.53316
0
LINE
8
BLACK
6
CONTINUOUS
10
4.86431
20
-6.53316
11
4.87556
21
-6.51628
0
LINE
8
BLACK
6
CONTINUOUS
10
4.87556
20
-6.51628
11
4.88119
21
-6.50503
0
LINE
8
BLACK
6
CONTINUOUS
10
4.88119
20
-6.50503
11
4.88681
21
-6.48816
0
LINE
8
BLACK
6
CONTINUOUS
10
4.88681
20
-6.48816
11
4.89244
21
-6.46004
0
LINE
8
BLACK
6
CONTINUOUS
10
4.89244
20
-6.46004
11
4.89244
21
-6.43754
0
LINE
8
BLACK
6
CONTINUOUS
10
4.89244
20
-6.43754
11
4.88681
21
-6.40942
0
LINE
8
BLACK
6
CONTINUOUS
10
4.88681
20
-6.40942
11
4.88119
21
-6.39255
0
LINE
8
BLACK
6
CONTINUOUS
10
4.88119
20
-6.39255
11
4.87556
21
-6.3813
0
LINE
8
BLACK
6
CONTINUOUS
10
4.87556
20
-6.3813
11
4.86431
21
-6.36443
0
LINE
8
BLACK
6
CONTINUOUS
10
4.86431
20
-6.36443
11
4.85869
21
-6.3588
0
LINE
8
BLACK
6
CONTINUOUS
10
1.95177
20
-6.58051
11
1.95177
21
-6.61201
0
LINE
8
BLACK
6
CONTINUOUS
10
1.93602
20
-6.59626
11
1.96752
21
-6.59626
0
LINE
8
BLACK
6
CONTINUOUS
10
2.10278
20
-6.53158
11
2.11403
21
-6.53158
0
LINE
8
BLACK
6
CONTINUOUS
10
2.11403
20
-6.53158
11
2.12528
21
-6.5372
0
LINE
8
BLACK
6
CONTINUOUS
10
2.12528
20
-6.5372
11
2.13091
21
-6.54283
0
LINE
8
BLACK
6
CONTINUOUS
10
2.13091
20
-6.54283
11
2.13653
21
-6.55408
0
LINE
8
BLACK
6
CONTINUOUS
10
2.13653
20
-6.55408
11
2.14215
21
-6.57657
0
LINE
8
BLACK
6
CONTINUOUS
10
2.14215
20
-6.57657
11
2.14215
21
-6.6047
0
LINE
8
BLACK
6
CONTINUOUS
10
2.14215
20
-6.6047
11
2.13653
21
-6.62719
0
LINE
8
BLACK
6
CONTINUOUS
10
2.13653
20
-6.62719
11
2.13091
21
-6.63844
0
LINE
8
BLACK
6
CONTINUOUS
10
2.13091
20
-6.63844
11
2.12528
21
-6.64407
0
LINE
8
BLACK
6
CONTINUOUS
10
2.12528
20
-6.64407
11
2.11403
21
-6.64969
0
LINE
8
BLACK
6
CONTINUOUS
10
2.11403
20
-6.64969
11
2.10278
21
-6.64969
0
LINE
8
BLACK
6
CONTINUOUS
10
2.10278
20
-6.64969
11
2.09154
21
-6.64407
0
LINE
8
BLACK
6
CONTINUOUS
10
2.09154
20
-6.64407
11
2.08591
21
-6.63844
0
LINE
8
BLACK
6
CONTINUOUS
10
2.08591
20
-6.63844
11
2.08029
21
-6.62719
0
LINE
8
BLACK
6
CONTINUOUS
10
2.08029
20
-6.62719
11
2.07466
21
-6.6047
0
LINE
8
BLACK
6
CONTINUOUS
10
2.07466
20
-6.6047
11
2.07466
21
-6.57657
0
LINE
8
BLACK
6
CONTINUOUS
10
2.07466
20
-6.57657
11
2.08029
21
-6.55408
0
LINE
8
BLACK
6
CONTINUOUS
10
2.08029
20
-6.55408
11
2.08591
21
-6.54283
0
LINE
8
BLACK
6
CONTINUOUS
10
2.08591
20
-6.54283
11
2.09154
21
-6.5372
0
LINE
8
BLACK
6
CONTINUOUS
10
2.09154
20
-6.5372
11
2.10278
21
-6.53158
0
LINE
8
BLACK
6
CONTINUOUS
10
2.19277
20
-6.63844
11
2.1984
21
-6.64407
0
LINE
8
BLACK
6
CONTINUOUS
10
2.1984
20
-6.64407
11
2.19277
21
-6.64969
0
LINE
8
BLACK
6
CONTINUOUS
10
2.19277
20
-6.64969
11
2.18715
21
-6.64407
0
LINE
8
BLACK
6
CONTINUOUS
10
2.18715
20
-6.64407
11
2.19277
21
-6.63844
0
LINE
8
BLACK
6
CONTINUOUS
10
2.19277
20
-6.63844
11
2.19277
21
-6.64969
0
LINE
8
BLACK
6
CONTINUOUS
10
2.26589
20
-6.5822
11
2.25464
21
-6.57657
0
LINE
8
BLACK
6
CONTINUOUS
10
2.25464
20
-6.57657
11
2.24902
21
-6.57095
0
LINE
8
BLACK
6
CONTINUOUS
10
2.24902
20
-6.57095
11
2.24339
21
-6.5597
0
LINE
8
BLACK
6
CONTINUOUS
10
2.24339
20
-6.5597
11
2.24339
21
-6.55408
0
LINE
8
BLACK
6
CONTINUOUS
10
2.24339
20
-6.55408
11
2.24902
21
-6.54283
0
LINE
8
BLACK
6
CONTINUOUS
10
2.24902
20
-6.54283
11
2.25464
21
-6.5372
0
LINE
8
BLACK
6
CONTINUOUS
10
2.25464
20
-6.5372
11
2.26589
21
-6.53158
0
LINE
8
BLACK
6
CONTINUOUS
10
2.26589
20
-6.53158
11
2.28839
21
-6.53158
0
LINE
8
BLACK
6
CONTINUOUS
10
2.28839
20
-6.53158
11
2.29963
21
-6.5372
0
LINE
8
BLACK
6
CONTINUOUS
10
2.29963
20
-6.5372
11
2.30526
21
-6.54283
0
LINE
8
BLACK
6
CONTINUOUS
10
2.30526
20
-6.54283
11
2.31088
21
-6.55408
0
LINE
8
BLACK
6
CONTINUOUS
10
2.31088
20
-6.55408
11
2.31088
21
-6.5597
0
LINE
8
BLACK
6
CONTINUOUS
10
2.31088
20
-6.5597
11
2.30526
21
-6.57095
0
LINE
8
BLACK
6
CONTINUOUS
10
2.30526
20
-6.57095
11
2.29963
21
-6.57657
0
LINE
8
BLACK
6
CONTINUOUS
10
2.29963
20
-6.57657
11
2.28839
21
-6.5822
0
LINE
8
BLACK
6
CONTINUOUS
10
2.28839
20
-6.5822
11
2.26589
21
-6.5822
0
LINE
8
BLACK
6
CONTINUOUS
10
2.26589
20
-6.5822
11
2.25464
21
-6.58782
0
LINE
8
BLACK
6
CONTINUOUS
10
2.25464
20
-6.58782
11
2.24902
21
-6.59345
0
LINE
8
BLACK
6
CONTINUOUS
10
2.24902
20
-6.59345
11
2.24339
21
-6.6047
0
LINE
8
BLACK
6
CONTINUOUS
10
2.24339
20
-6.6047
11
2.24339
21
-6.62719
0
LINE
8
BLACK
6
CONTINUOUS
10
2.24339
20
-6.62719
11
2.24902
21
-6.63844
0
LINE
8
BLACK
6
CONTINUOUS
10
2.24902
20
-6.63844
11
2.25464
21
-6.64407
0
LINE
8
BLACK
6
CONTINUOUS
10
2.25464
20
-6.64407
11
2.26589
21
-6.64969
0
LINE
8
BLACK
6
CONTINUOUS
10
2.26589
20
-6.64969
11
2.28839
21
-6.64969
0
LINE
8
BLACK
6
CONTINUOUS
10
2.28839
20
-6.64969
11
2.29963
21
-6.64407
0
LINE
8
BLACK
6
CONTINUOUS
10
2.29963
20
-6.64407
11
2.30526
21
-6.63844
0
LINE
8
BLACK
6
CONTINUOUS
10
2.30526
20
-6.63844
11
2.31088
21
-6.62719
0
LINE
8
BLACK
6
CONTINUOUS
10
2.31088
20
-6.62719
11
2.31088
21
-6.6047
0
LINE
8
BLACK
6
CONTINUOUS
10
2.31088
20
-6.6047
11
2.30526
21
-6.59345
0
LINE
8
BLACK
6
CONTINUOUS
10
2.30526
20
-6.59345
11
2.29963
21
-6.58782
0
LINE
8
BLACK
6
CONTINUOUS
10
2.29963
20
-6.58782
11
2.28839
21
-6.5822
0
LINE
8
BLACK
6
CONTINUOUS
10
2.384
20
-6.53158
11
2.39525
21
-6.53158
0
LINE
8
BLACK
6
CONTINUOUS
10
2.39525
20
-6.53158
11
2.4065
21
-6.5372
0
LINE
8
BLACK
6
CONTINUOUS
10
2.4065
20
-6.5372
11
2.41212
21
-6.54283
0
LINE
8
BLACK
6
CONTINUOUS
10
2.41212
20
-6.54283
11
2.41774
21
-6.55408
0
LINE
8
BLACK
6
CONTINUOUS
10
2.41774
20
-6.55408
11
2.42337
21
-6.57657
0
LINE
8
BLACK
6
CONTINUOUS
10
2.42337
20
-6.57657
11
2.42337
21
-6.6047
0
LINE
8
BLACK
6
CONTINUOUS
10
2.42337
20
-6.6047
11
2.41774
21
-6.62719
0
LINE
8
BLACK
6
CONTINUOUS
10
2.41774
20
-6.62719
11
2.41212
21
-6.63844
0
LINE
8
BLACK
6
CONTINUOUS
10
2.41212
20
-6.63844
11
2.4065
21
-6.64407
0
LINE
8
BLACK
6
CONTINUOUS
10
2.4065
20
-6.64407
11
2.39525
21
-6.64969
0
LINE
8
BLACK
6
CONTINUOUS
10
2.39525
20
-6.64969
11
2.384
21
-6.64969
0
LINE
8
BLACK
6
CONTINUOUS
10
2.384
20
-6.64969
11
2.37275
21
-6.64407
0
LINE
8
BLACK
6
CONTINUOUS
10
2.37275
20
-6.64407
11
2.36713
21
-6.63844
0
LINE
8
BLACK
6
CONTINUOUS
10
2.36713
20
-6.63844
11
2.3615
21
-6.62719
0
LINE
8
BLACK
6
CONTINUOUS
10
2.3615
20
-6.62719
11
2.35588
21
-6.6047
0
LINE
8
BLACK
6
CONTINUOUS
10
2.35588
20
-6.6047
11
2.35588
21
-6.57657
0
LINE
8
BLACK
6
CONTINUOUS
10
2.35588
20
-6.57657
11
2.3615
21
-6.55408
0
LINE
8
BLACK
6
CONTINUOUS
10
2.3615
20
-6.55408
11
2.36713
21
-6.54283
0
LINE
8
BLACK
6
CONTINUOUS
10
2.36713
20
-6.54283
11
2.37275
21
-6.5372
0
LINE
8
BLACK
6
CONTINUOUS
10
2.37275
20
-6.5372
11
2.384
21
-6.53158
0
LINE
8
BLACK
6
CONTINUOUS
10
2.49648
20
-6.53158
11
2.50773
21
-6.53158
0
LINE
8
BLACK
6
CONTINUOUS
10
2.50773
20
-6.53158
11
2.51898
21
-6.5372
0
LINE
8
BLACK
6
CONTINUOUS
10
2.51898
20
-6.5372
11
2.52461
21
-6.54283
0
LINE
8
BLACK
6
CONTINUOUS
10
2.52461
20
-6.54283
11
2.53023
21
-6.55408
0
LINE
8
BLACK
6
CONTINUOUS
10
2.53023
20
-6.55408
11
2.53585
21
-6.57657
0
LINE
8
BLACK
6
CONTINUOUS
10
2.53585
20
-6.57657
11
2.53585
21
-6.6047
0
LINE
8
BLACK
6
CONTINUOUS
10
2.53585
20
-6.6047
11
2.53023
21
-6.62719
0
LINE
8
BLACK
6
CONTINUOUS
10
2.53023
20
-6.62719
11
2.52461
21
-6.63844
0
LINE
8
BLACK
6
CONTINUOUS
10
2.52461
20
-6.63844
11
2.51898
21
-6.64407
0
LINE
8
BLACK
6
CONTINUOUS
10
2.51898
20
-6.64407
11
2.50773
21
-6.64969
0
LINE
8
BLACK
6
CONTINUOUS
10
2.50773
20
-6.64969
11
2.49648
21
-6.64969
0
LINE
8
BLACK
6
CONTINUOUS
10
2.49648
20
-6.64969
11
2.48524
21
-6.64407
0
LINE
8
BLACK
6
CONTINUOUS
10
2.48524
20
-6.64407
11
2.47961
21
-6.63844
0
LINE
8
BLACK
6
CONTINUOUS
10
2.47961
20
-6.63844
11
2.47399
21
-6.62719
0
LINE
8
BLACK
6
CONTINUOUS
10
2.47399
20
-6.62719
11
2.46836
21
-6.6047
0
LINE
8
BLACK
6
CONTINUOUS
10
2.46836
20
-6.6047
11
2.46836
21
-6.57657
0
LINE
8
BLACK
6
CONTINUOUS
10
2.46836
20
-6.57657
11
2.47399
21
-6.55408
0
LINE
8
BLACK
6
CONTINUOUS
10
2.47399
20
-6.55408
11
2.47961
21
-6.54283
0
LINE
8
BLACK
6
CONTINUOUS
10
2.47961
20
-6.54283
11
2.48524
21
-6.5372
0
LINE
8
BLACK
6
CONTINUOUS
10
2.48524
20
-6.5372
11
2.49648
21
-6.53158
0
LINE
8
BLACK
6
CONTINUOUS
10
2.58647
20
-6.64969
11
2.58647
21
-6.57095
0
LINE
8
BLACK
6
CONTINUOUS
10
2.58647
20
-6.5822
11
2.5921
21
-6.57657
0
LINE
8
BLACK
6
CONTINUOUS
10
2.5921
20
-6.57657
11
2.60335
21
-6.57095
0
LINE
8
BLACK
6
CONTINUOUS
10
2.60335
20
-6.57095
11
2.62022
21
-6.57095
0
LINE
8
BLACK
6
CONTINUOUS
10
2.62022
20
-6.57095
11
2.63147
21
-6.57657
0
LINE
8
BLACK
6
CONTINUOUS
10
2.63147
20
-6.57657
11
2.63709
21
-6.58782
0
LINE
8
BLACK
6
CONTINUOUS
10
2.63709
20
-6.58782
11
2.63709
21
-6.64969
0
LINE
8
BLACK
6
CONTINUOUS
10
2.63709
20
-6.58782
11
2.64272
21
-6.57657
0
LINE
8
BLACK
6
CONTINUOUS
10
2.64272
20
-6.57657
11
2.65397
21
-6.57095
0
LINE
8
BLACK
6
CONTINUOUS
10
2.65397
20
-6.57095
11
2.67084
21
-6.57095
0
LINE
8
BLACK
6
CONTINUOUS
10
2.67084
20
-6.57095
11
2.68209
21
-6.57657
0
LINE
8
BLACK
6
CONTINUOUS
10
2.68209
20
-6.57657
11
2.68771
21
-6.58782
0
LINE
8
BLACK
6
CONTINUOUS
10
2.68771
20
-6.58782
11
2.68771
21
-6.64969
0
LINE
8
BLACK
6
CONTINUOUS
10
2.74395
20
-6.64969
11
2.74395
21
-6.57095
0
LINE
8
BLACK
6
CONTINUOUS
10
2.74395
20
-6.5822
11
2.74958
21
-6.57657
0
LINE
8
BLACK
6
CONTINUOUS
10
2.74958
20
-6.57657
11
2.76083
21
-6.57095
0
LINE
8
BLACK
6
CONTINUOUS
10
2.76083
20
-6.57095
11
2.7777
21
-6.57095
0
LINE
8
BLACK
6
CONTINUOUS
10
2.7777
20
-6.57095
11
2.78895
21
-6.57657
0
LINE
8
BLACK
6
CONTINUOUS
10
2.78895
20
-6.57657
11
2.79457
21
-6.58782
0
LINE
8
BLACK
6
CONTINUOUS
10
2.79457
20
-6.58782
11
2.79457
21
-6.64969
0
LINE
8
BLACK
6
CONTINUOUS
10
2.79457
20
-6.58782
11
2.8002
21
-6.57657
0
LINE
8
BLACK
6
CONTINUOUS
10
2.8002
20
-6.57657
11
2.81145
21
-6.57095
0
LINE
8
BLACK
6
CONTINUOUS
10
2.81145
20
-6.57095
11
2.82832
21
-6.57095
0
LINE
8
BLACK
6
CONTINUOUS
10
2.82832
20
-6.57095
11
2.83957
21
-6.57657
0
LINE
8
BLACK
6
CONTINUOUS
10
2.83957
20
-6.57657
11
2.84519
21
-6.58782
0
LINE
8
BLACK
6
CONTINUOUS
10
2.84519
20
-6.58782
11
2.84519
21
-6.64969
0
LINE
8
BLACK
6
CONTINUOUS
10
3.07579
20
-6.52596
11
2.97455
21
-6.67781
0
LINE
8
BLACK
6
CONTINUOUS
10
3.22764
20
-6.53158
11
3.23889
21
-6.53158
0
LINE
8
BLACK
6
CONTINUOUS
10
3.23889
20
-6.53158
11
3.25014
21
-6.5372
0
LINE
8
BLACK
6
CONTINUOUS
10
3.25014
20
-6.5372
11
3.25576
21
-6.54283
0
LINE
8
BLACK
6
CONTINUOUS
10
3.25576
20
-6.54283
11
3.26139
21
-6.55408
0
LINE
8
BLACK
6
CONTINUOUS
10
3.26139
20
-6.55408
11
3.26701
21
-6.57657
0
LINE
8
BLACK
6
CONTINUOUS
10
3.26701
20
-6.57657
11
3.26701
21
-6.6047
0
LINE
8
BLACK
6
CONTINUOUS
10
3.26701
20
-6.6047
11
3.26139
21
-6.62719
0
LINE
8
BLACK
6
CONTINUOUS
10
3.26139
20
-6.62719
11
3.25576
21
-6.63844
0
LINE
8
BLACK
6
CONTINUOUS
10
3.25576
20
-6.63844
11
3.25014
21
-6.64407
0
LINE
8
BLACK
6
CONTINUOUS
10
3.25014
20
-6.64407
11
3.23889
21
-6.64969
0
LINE
8
BLACK
6
CONTINUOUS
10
3.23889
20
-6.64969
11
3.22764
21
-6.64969
0
LINE
8
BLACK
6
CONTINUOUS
10
3.22764
20
-6.64969
11
3.21639
21
-6.64407
0
LINE
8
BLACK
6
CONTINUOUS
10
3.21639
20
-6.64407
11
3.21077
21
-6.63844
0
LINE
8
BLACK
6
CONTINUOUS
10
3.21077
20
-6.63844
11
3.20515
21
-6.62719
0
LINE
8
BLACK
6
CONTINUOUS
10
3.20515
20
-6.62719
11
3.19952
21
-6.6047
0
LINE
8
BLACK
6
CONTINUOUS
10
3.19952
20
-6.6047
11
3.19952
21
-6.57657
0
LINE
8
BLACK
6
CONTINUOUS
10
3.19952
20
-6.57657
11
3.20515
21
-6.55408
0
LINE
8
BLACK
6
CONTINUOUS
10
3.20515
20
-6.55408
11
3.21077
21
-6.54283
0
LINE
8
BLACK
6
CONTINUOUS
10
3.21077
20
-6.54283
11
3.21639
21
-6.5372
0
LINE
8
BLACK
6
CONTINUOUS
10
3.21639
20
-6.5372
11
3.22764
21
-6.53158
0
LINE
8
BLACK
6
CONTINUOUS
10
3.31763
20
-6.63844
11
3.32326
21
-6.64407
0
LINE
8
BLACK
6
CONTINUOUS
10
3.32326
20
-6.64407
11
3.31763
21
-6.64969
0
LINE
8
BLACK
6
CONTINUOUS
10
3.31763
20
-6.64969
11
3.31201
21
-6.64407
0
LINE
8
BLACK
6
CONTINUOUS
10
3.31201
20
-6.64407
11
3.31763
21
-6.63844
0
LINE
8
BLACK
6
CONTINUOUS
10
3.31763
20
-6.63844
11
3.31763
21
-6.64969
0
LINE
8
BLACK
6
CONTINUOUS
10
3.39637
20
-6.53158
11
3.40762
21
-6.53158
0
LINE
8
BLACK
6
CONTINUOUS
10
3.40762
20
-6.53158
11
3.41887
21
-6.5372
0
LINE
8
BLACK
6
CONTINUOUS
10
3.41887
20
-6.5372
11
3.42449
21
-6.54283
0
LINE
8
BLACK
6
CONTINUOUS
10
3.42449
20
-6.54283
11
3.43012
21
-6.55408
0
LINE
8
BLACK
6
CONTINUOUS
10
3.43012
20
-6.55408
11
3.43574
21
-6.57657
0
LINE
8
BLACK
6
CONTINUOUS
10
3.43574
20
-6.57657
11
3.43574
21
-6.6047
0
LINE
8
BLACK
6
CONTINUOUS
10
3.43574
20
-6.6047
11
3.43012
21
-6.62719
0
LINE
8
BLACK
6
CONTINUOUS
10
3.43012
20
-6.62719
11
3.42449
21
-6.63844
0
LINE
8
BLACK
6
CONTINUOUS
10
3.42449
20
-6.63844
11
3.41887
21
-6.64407
0
LINE
8
BLACK
6
CONTINUOUS
10
3.41887
20
-6.64407
11
3.40762
21
-6.64969
0
LINE
8
BLACK
6
CONTINUOUS
10
3.40762
20
-6.64969
11
3.39637
21
-6.64969
0
LINE
8
BLACK
6
CONTINUOUS
10
3.39637
20
-6.64969
11
3.38512
21
-6.64407
0
LINE
8
BLACK
6
CONTINUOUS
10
3.38512
20
-6.64407
11
3.3795
21
-6.63844
0
LINE
8
BLACK
6
CONTINUOUS
10
3.3795
20
-6.63844
11
3.37388
21
-6.62719
0
LINE
8
BLACK
6
CONTINUOUS
10
3.37388
20
-6.62719
11
3.36825
21
-6.6047
0
LINE
8
BLACK
6
CONTINUOUS
10
3.36825
20
-6.6047
11
3.36825
21
-6.57657
0
LINE
8
BLACK
6
CONTINUOUS
10
3.36825
20
-6.57657
11
3.37388
21
-6.55408
0
LINE
8
BLACK
6
CONTINUOUS
10
3.37388
20
-6.55408
11
3.3795
21
-6.54283
0
LINE
8
BLACK
6
CONTINUOUS
10
3.3795
20
-6.54283
11
3.38512
21
-6.5372
0
LINE
8
BLACK
6
CONTINUOUS
10
3.38512
20
-6.5372
11
3.39637
21
-6.53158
0
LINE
8
BLACK
6
CONTINUOUS
10
3.47511
20
-6.53158
11
3.54823
21
-6.53158
0
LINE
8
BLACK
6
CONTINUOUS
10
3.54823
20
-6.53158
11
3.50886
21
-6.57657
0
LINE
8
BLACK
6
CONTINUOUS
10
3.50886
20
-6.57657
11
3.52573
21
-6.57657
0
LINE
8
BLACK
6
CONTINUOUS
10
3.52573
20
-6.57657
11
3.53698
21
-6.5822
0
LINE
8
BLACK
6
CONTINUOUS
10
3.53698
20
-6.5822
11
3.5426
21
-6.58782
0
LINE
8
BLACK
6
CONTINUOUS
10
3.5426
20
-6.58782
11
3.54823
21
-6.59907
0
LINE
8
BLACK
6
CONTINUOUS
10
3.54823
20
-6.59907
11
3.54823
21
-6.62719
0
LINE
8
BLACK
6
CONTINUOUS
10
3.54823
20
-6.62719
11
3.5426
21
-6.63844
0
LINE
8
BLACK
6
CONTINUOUS
10
3.5426
20
-6.63844
11
3.53698
21
-6.64407
0
LINE
8
BLACK
6
CONTINUOUS
10
3.53698
20
-6.64407
11
3.52573
21
-6.64969
0
LINE
8
BLACK
6
CONTINUOUS
10
3.52573
20
-6.64969
11
3.49199
21
-6.64969
0
LINE
8
BLACK
6
CONTINUOUS
10
3.49199
20
-6.64969
11
3.48074
21
-6.64407
0
LINE
8
BLACK
6
CONTINUOUS
10
3.48074
20
-6.64407
11
3.47511
21
-6.63844
0
LINE
8
BLACK
6
CONTINUOUS
10
3.66071
20
-6.64969
11
3.59322
21
-6.64969
0
LINE
8
BLACK
6
CONTINUOUS
10
3.62697
20
-6.64969
11
3.62697
21
-6.53158
0
LINE
8
BLACK
6
CONTINUOUS
10
3.62697
20
-6.53158
11
3.61572
21
-6.54845
0
LINE
8
BLACK
6
CONTINUOUS
10
3.61572
20
-6.54845
11
3.60447
21
-6.5597
0
LINE
8
BLACK
6
CONTINUOUS
10
3.60447
20
-6.5597
11
3.59322
21
-6.56533
0
LINE
8
BLACK
6
CONTINUOUS
10
3.76758
20
-6.53158
11
3.71133
21
-6.53158
0
LINE
8
BLACK
6
CONTINUOUS
10
3.71133
20
-6.53158
11
3.70571
21
-6.58782
0
LINE
8
BLACK
6
CONTINUOUS
10
3.70571
20
-6.58782
11
3.71133
21
-6.5822
0
LINE
8
BLACK
6
CONTINUOUS
10
3.71133
20
-6.5822
11
3.72258
21
-6.57657
0
LINE
8
BLACK
6
CONTINUOUS
10
3.72258
20
-6.57657
11
3.7507
21
-6.57657
0
LINE
8
BLACK
6
CONTINUOUS
10
3.7507
20
-6.57657
11
3.76195
21
-6.5822
0
LINE
8
BLACK
6
CONTINUOUS
10
3.76195
20
-6.5822
11
3.76758
21
-6.58782
0
LINE
8
BLACK
6
CONTINUOUS
10
3.76758
20
-6.58782
11
3.7732
21
-6.59907
0
LINE
8
BLACK
6
CONTINUOUS
10
3.7732
20
-6.59907
11
3.7732
21
-6.62719
0
LINE
8
BLACK
6
CONTINUOUS
10
3.7732
20
-6.62719
11
3.76758
21
-6.63844
0
LINE
8
BLACK
6
CONTINUOUS
10
3.76758
20
-6.63844
11
3.76195
21
-6.64407
0
LINE
8
BLACK
6
CONTINUOUS
10
3.76195
20
-6.64407
11
3.7507
21
-6.64969
0
LINE
8
BLACK
6
CONTINUOUS
10
3.7507
20
-6.64969
11
3.72258
21
-6.64969
0
LINE
8
BLACK
6
CONTINUOUS
10
3.72258
20
-6.64969
11
3.71133
21
-6.64407
0
LINE
8
BLACK
6
CONTINUOUS
10
3.71133
20
-6.64407
11
3.70571
21
-6.63844
0
LINE
8
BLACK
6
CONTINUOUS
10
3.81819
20
-6.53158
11
3.81819
21
-6.55408
0
LINE
8
BLACK
6
CONTINUOUS
10
3.86319
20
-6.53158
11
3.86319
21
-6.55408
0
LINE
8
BLACK
6
CONTINUOUS
10
4.03754
20
-6.69469
11
4.03192
21
-6.68906
0
LINE
8
BLACK
6
CONTINUOUS
10
4.03192
20
-6.68906
11
4.02067
21
-6.67219
0
LINE
8
BLACK
6
CONTINUOUS
10
4.02067
20
-6.67219
11
4.01504
21
-6.66094
0
LINE
8
BLACK
6
CONTINUOUS
10
4.01504
20
-6.66094
11
4.00942
21
-6.64407
0
LINE
8
BLACK
6
CONTINUOUS
10
4.00942
20
-6.64407
11
4.0038
21
-6.61594
0
LINE
8
BLACK
6
CONTINUOUS
10
4.0038
20
-6.61594
11
4.0038
21
-6.59345
0
LINE
8
BLACK
6
CONTINUOUS
10
4.0038
20
-6.59345
11
4.00942
21
-6.56533
0
LINE
8
BLACK
6
CONTINUOUS
10
4.00942
20
-6.56533
11
4.01504
21
-6.54845
0
LINE
8
BLACK
6
CONTINUOUS
10
4.01504
20
-6.54845
11
4.02067
21
-6.5372
0
LINE
8
BLACK
6
CONTINUOUS
10
4.02067
20
-6.5372
11
4.03192
21
-6.52033
0
LINE
8
BLACK
6
CONTINUOUS
10
4.03192
20
-6.52033
11
4.03754
21
-6.51471
0
LINE
8
BLACK
6
CONTINUOUS
10
4.07691
20
-6.54283
11
4.08254
21
-6.5372
0
LINE
8
BLACK
6
CONTINUOUS
10
4.08254
20
-6.5372
11
4.09379
21
-6.53158
0
LINE
8
BLACK
6
CONTINUOUS
10
4.09379
20
-6.53158
11
4.12191
21
-6.53158
0
LINE
8
BLACK
6
CONTINUOUS
10
4.12191
20
-6.53158
11
4.13316
21
-6.5372
0
LINE
8
BLACK
6
CONTINUOUS
10
4.13316
20
-6.5372
11
4.13878
21
-6.54283
0
LINE
8
BLACK
6
CONTINUOUS
10
4.13878
20
-6.54283
11
4.1444
21
-6.55408
0
LINE
8
BLACK
6
CONTINUOUS
10
4.1444
20
-6.55408
11
4.1444
21
-6.56533
0
LINE
8
BLACK
6
CONTINUOUS
10
4.1444
20
-6.56533
11
4.13878
21
-6.5822
0
LINE
8
BLACK
6
CONTINUOUS
10
4.13878
20
-6.5822
11
4.07129
21
-6.64969
0
LINE
8
BLACK
6
CONTINUOUS
10
4.07129
20
-6.64969
11
4.1444
21
-6.64969
0
LINE
8
BLACK
6
CONTINUOUS
10
4.25127
20
-6.53158
11
4.19502
21
-6.53158
0
LINE
8
BLACK
6
CONTINUOUS
10
4.19502
20
-6.53158
11
4.1894
21
-6.58782
0
LINE
8
BLACK
6
CONTINUOUS
10
4.1894
20
-6.58782
11
4.19502
21
-6.5822
0
LINE
8
BLACK
6
CONTINUOUS
10
4.19502
20
-6.5822
11
4.20627
21
-6.57657
0
LINE
8
BLACK
6
CONTINUOUS
10
4.20627
20
-6.57657
11
4.23439
21
-6.57657
0
LINE
8
BLACK
6
CONTINUOUS
10
4.23439
20
-6.57657
11
4.24564
21
-6.5822
0
LINE
8
BLACK
6
CONTINUOUS
10
4.24564
20
-6.5822
11
4.25127
21
-6.58782
0
LINE
8
BLACK
6
CONTINUOUS
10
4.25127
20
-6.58782
11
4.25689
21
-6.59907
0
LINE
8
BLACK
6
CONTINUOUS
10
4.25689
20
-6.59907
11
4.25689
21
-6.62719
0
LINE
8
BLACK
6
CONTINUOUS
10
4.25689
20
-6.62719
11
4.25127
21
-6.63844
0
LINE
8
BLACK
6
CONTINUOUS
10
4.25127
20
-6.63844
11
4.24564
21
-6.64407
0
LINE
8
BLACK
6
CONTINUOUS
10
4.24564
20
-6.64407
11
4.23439
21
-6.64969
0
LINE
8
BLACK
6
CONTINUOUS
10
4.23439
20
-6.64969
11
4.20627
21
-6.64969
0
LINE
8
BLACK
6
CONTINUOUS
10
4.20627
20
-6.64969
11
4.19502
21
-6.64407
0
LINE
8
BLACK
6
CONTINUOUS
10
4.19502
20
-6.64407
11
4.1894
21
-6.63844
0
LINE
8
BLACK
6
CONTINUOUS
10
4.33001
20
-6.53158
11
4.34125
21
-6.53158
0
LINE
8
BLACK
6
CONTINUOUS
10
4.34125
20
-6.53158
11
4.3525
21
-6.5372
0
LINE
8
BLACK
6
CONTINUOUS
10
4.3525
20
-6.5372
11
4.35813
21
-6.54283
0
LINE
8
BLACK
6
CONTINUOUS
10
4.35813
20
-6.54283
11
4.36375
21
-6.55408
0
LINE
8
BLACK
6
CONTINUOUS
10
4.36375
20
-6.55408
11
4.36938
21
-6.57657
0
LINE
8
BLACK
6
CONTINUOUS
10
4.36938
20
-6.57657
11
4.36938
21
-6.6047
0
LINE
8
BLACK
6
CONTINUOUS
10
4.36938
20
-6.6047
11
4.36375
21
-6.62719
0
LINE
8
BLACK
6
CONTINUOUS
10
4.36375
20
-6.62719
11
4.35813
21
-6.63844
0
LINE
8
BLACK
6
CONTINUOUS
10
4.35813
20
-6.63844
11
4.3525
21
-6.64407
0
LINE
8
BLACK
6
CONTINUOUS
10
4.3525
20
-6.64407
11
4.34125
21
-6.64969
0
LINE
8
BLACK
6
CONTINUOUS
10
4.34125
20
-6.64969
11
4.33001
21
-6.64969
0
LINE
8
BLACK
6
CONTINUOUS
10
4.33001
20
-6.64969
11
4.31876
21
-6.64407
0
LINE
8
BLACK
6
CONTINUOUS
10
4.31876
20
-6.64407
11
4.31313
21
-6.63844
0
LINE
8
BLACK
6
CONTINUOUS
10
4.31313
20
-6.63844
11
4.30751
21
-6.62719
0
LINE
8
BLACK
6
CONTINUOUS
10
4.30751
20
-6.62719
11
4.30188
21
-6.6047
0
LINE
8
BLACK
6
CONTINUOUS
10
4.30188
20
-6.6047
11
4.30188
21
-6.57657
0
LINE
8
BLACK
6
CONTINUOUS
10
4.30188
20
-6.57657
11
4.30751
21
-6.55408
0
LINE
8
BLACK
6
CONTINUOUS
10
4.30751
20
-6.55408
11
4.31313
21
-6.54283
0
LINE
8
BLACK
6
CONTINUOUS
10
4.31313
20
-6.54283
11
4.31876
21
-6.5372
0
LINE
8
BLACK
6
CONTINUOUS
10
4.31876
20
-6.5372
11
4.33001
21
-6.53158
0
LINE
8
BLACK
6
CONTINUOUS
10
4.50998
20
-6.64969
11
4.50998
21
-6.53158
0
LINE
8
BLACK
6
CONTINUOUS
10
4.5606
20
-6.64969
11
4.5606
21
-6.58782
0
LINE
8
BLACK
6
CONTINUOUS
10
4.5606
20
-6.58782
11
4.55498
21
-6.57657
0
LINE
8
BLACK
6
CONTINUOUS
10
4.55498
20
-6.57657
11
4.54373
21
-6.57095
0
LINE
8
BLACK
6
CONTINUOUS
10
4.54373
20
-6.57095
11
4.52686
21
-6.57095
0
LINE
8
BLACK
6
CONTINUOUS
10
4.52686
20
-6.57095
11
4.51561
21
-6.57657
0
LINE
8
BLACK
6
CONTINUOUS
10
4.51561
20
-6.57657
11
4.50998
21
-6.5822
0
LINE
8
BLACK
6
CONTINUOUS
10
4.63372
20
-6.64969
11
4.62247
21
-6.64407
0
LINE
8
BLACK
6
CONTINUOUS
10
4.62247
20
-6.64407
11
4.61684
21
-6.63844
0
LINE
8
BLACK
6
CONTINUOUS
10
4.61684
20
-6.63844
11
4.61122
21
-6.62719
0
LINE
8
BLACK
6
CONTINUOUS
10
4.61122
20
-6.62719
11
4.61122
21
-6.59345
0
LINE
8
BLACK
6
CONTINUOUS
10
4.61122
20
-6.59345
11
4.61684
21
-6.5822
0
LINE
8
BLACK
6
CONTINUOUS
10
4.61684
20
-6.5822
11
4.62247
21
-6.57657
0
LINE
8
BLACK
6
CONTINUOUS
10
4.62247
20
-6.57657
11
4.63372
21
-6.57095
0
LINE
8
BLACK
6
CONTINUOUS
10
4.63372
20
-6.57095
11
4.65059
21
-6.57095
0
LINE
8
BLACK
6
CONTINUOUS
10
4.65059
20
-6.57095
11
4.66184
21
-6.57657
0
LINE
8
BLACK
6
CONTINUOUS
10
4.66184
20
-6.57657
11
4.66746
21
-6.5822
0
LINE
8
BLACK
6
CONTINUOUS
10
4.66746
20
-6.5822
11
4.67309
21
-6.59345
0
LINE
8
BLACK
6
CONTINUOUS
10
4.67309
20
-6.59345
11
4.67309
21
-6.62719
0
LINE
8
BLACK
6
CONTINUOUS
10
4.67309
20
-6.62719
11
4.66746
21
-6.63844
0
LINE
8
BLACK
6
CONTINUOUS
10
4.66746
20
-6.63844
11
4.66184
21
-6.64407
0
LINE
8
BLACK
6
CONTINUOUS
10
4.66184
20
-6.64407
11
4.65059
21
-6.64969
0
LINE
8
BLACK
6
CONTINUOUS
10
4.65059
20
-6.64969
11
4.63372
21
-6.64969
0
LINE
8
BLACK
6
CONTINUOUS
10
4.74058
20
-6.64969
11
4.72933
21
-6.64407
0
LINE
8
BLACK
6
CONTINUOUS
10
4.72933
20
-6.64407
11
4.72371
21
-6.63282
0
LINE
8
BLACK
6
CONTINUOUS
10
4.72371
20
-6.63282
11
4.72371
21
-6.53158
0
LINE
8
BLACK
6
CONTINUOUS
10
4.83057
20
-6.64407
11
4.81932
21
-6.64969
0
LINE
8
BLACK
6
CONTINUOUS
10
4.81932
20
-6.64969
11
4.79682
21
-6.64969
0
LINE
8
BLACK
6
CONTINUOUS
10
4.79682
20
-6.64969
11
4.78557
21
-6.64407
0
LINE
8
BLACK
6
CONTINUOUS
10
4.78557
20
-6.64407
11
4.77995
21
-6.63282
0
LINE
8
BLACK
6
CONTINUOUS
10
4.77995
20
-6.63282
11
4.77995
21
-6.58782
0
LINE
8
BLACK
6
CONTINUOUS
10
4.77995
20
-6.58782
11
4.78557
21
-6.57657
0
LINE
8
BLACK
6
CONTINUOUS
10
4.78557
20
-6.57657
11
4.79682
21
-6.57095
0
LINE
8
BLACK
6
CONTINUOUS
10
4.79682
20
-6.57095
11
4.81932
21
-6.57095
0
LINE
8
BLACK
6
CONTINUOUS
10
4.81932
20
-6.57095
11
4.83057
21
-6.57657
0
LINE
8
BLACK
6
CONTINUOUS
10
4.83057
20
-6.57657
11
4.83619
21
-6.58782
0
LINE
8
BLACK
6
CONTINUOUS
10
4.83619
20
-6.58782
11
4.83619
21
-6.59907
0
LINE
8
BLACK
6
CONTINUOUS
10
4.83619
20
-6.59907
11
4.77995
21
-6.61032
0
LINE
8
BLACK
6
CONTINUOUS
10
4.88119
20
-6.64407
11
4.89244
21
-6.64969
0
LINE
8
BLACK
6
CONTINUOUS
10
4.89244
20
-6.64969
11
4.91493
21
-6.64969
0
LINE
8
BLACK
6
CONTINUOUS
10
4.91493
20
-6.64969
11
4.92618
21
-6.64407
0
LINE
8
BLACK
6
CONTINUOUS
10
4.92618
20
-6.64407
11
4.93181
21
-6.63282
0
LINE
8
BLACK
6
CONTINUOUS
10
4.93181
20
-6.63282
11
4.93181
21
-6.62719
0
LINE
8
BLACK
6
CONTINUOUS
10
4.93181
20
-6.62719
11
4.92618
21
-6.61594
0
LINE
8
BLACK
6
CONTINUOUS
10
4.92618
20
-6.61594
11
4.91493
21
-6.61032
0
LINE
8
BLACK
6
CONTINUOUS
10
4.91493
20
-6.61032
11
4.89806
21
-6.61032
0
LINE
8
BLACK
6
CONTINUOUS
10
4.89806
20
-6.61032
11
4.88681
21
-6.6047
0
LINE
8
BLACK
6
CONTINUOUS
10
4.88681
20
-6.6047
11
4.88119
21
-6.59345
0
LINE
8
BLACK
6
CONTINUOUS
10
4.88119
20
-6.59345
11
4.88119
21
-6.58782
0
LINE
8
BLACK
6
CONTINUOUS
10
4.88119
20
-6.58782
11
4.88681
21
-6.57657
0
LINE
8
BLACK
6
CONTINUOUS
10
4.88681
20
-6.57657
11
4.89806
21
-6.57095
0
LINE
8
BLACK
6
CONTINUOUS
10
4.89806
20
-6.57095
11
4.91493
21
-6.57095
0
LINE
8
BLACK
6
CONTINUOUS
10
4.91493
20
-6.57095
11
4.92618
21
-6.57657
0
LINE
8
BLACK
6
CONTINUOUS
10
4.97118
20
-6.69469
11
4.9768
21
-6.68906
0
LINE
8
BLACK
6
CONTINUOUS
10
4.9768
20
-6.68906
11
4.98805
21
-6.67219
0
LINE
8
BLACK
6
CONTINUOUS
10
4.98805
20
-6.67219
11
4.99367
21
-6.66094
0
LINE
8
BLACK
6
CONTINUOUS
10
4.99367
20
-6.66094
11
4.9993
21
-6.64407
0
LINE
8
BLACK
6
CONTINUOUS
10
4.9993
20
-6.64407
11
5.00492
21
-6.61594
0
LINE
8
BLACK
6
CONTINUOUS
10
5.00492
20
-6.61594
11
5.00492
21
-6.59345
0
LINE
8
BLACK
6
CONTINUOUS
10
5.00492
20
-6.59345
11
4.9993
21
-6.56533
0
LINE
8
BLACK
6
CONTINUOUS
10
4.9993
20
-6.56533
11
4.99367
21
-6.54845
0
LINE
8
BLACK
6
CONTINUOUS
10
4.99367
20
-6.54845
11
4.98805
21
-6.5372
0
LINE
8
BLACK
6
CONTINUOUS
10
4.98805
20
-6.5372
11
4.9768
21
-6.52033
0
LINE
8
BLACK
6
CONTINUOUS
10
4.9768
20
-6.52033
11
4.97118
21
-6.51471
0
LINE
8
BLACK
6
CONTINUOUS
10
1.96175
20
-6.76608
11
1.96175
21
-6.73825
0
LINE
8
BLACK
6
CONTINUOUS
10
1.96175
20
-6.73825
11
1.93392
21
-6.73825
0
LINE
8
BLACK
6
CONTINUOUS
10
1.93392
20
-6.73825
11
1.93392
21
-6.76608
0
LINE
8
BLACK
6
CONTINUOUS
10
1.93392
20
-6.76608
11
1.96175
21
-6.76608
0
LINE
8
BLACK
6
CONTINUOUS
10
2.14215
20
-6.8056
11
2.07466
21
-6.8056
0
LINE
8
BLACK
6
CONTINUOUS
10
2.10841
20
-6.8056
11
2.10841
21
-6.68749
0
LINE
8
BLACK
6
CONTINUOUS
10
2.10841
20
-6.68749
11
2.09716
21
-6.70436
0
LINE
8
BLACK
6
CONTINUOUS
10
2.09716
20
-6.70436
11
2.08591
21
-6.71561
0
LINE
8
BLACK
6
CONTINUOUS
10
2.08591
20
-6.71561
11
2.07466
21
-6.72123
0
LINE
8
BLACK
6
CONTINUOUS
10
2.19277
20
-6.79435
11
2.1984
21
-6.79997
0
LINE
8
BLACK
6
CONTINUOUS
10
2.1984
20
-6.79997
11
2.19277
21
-6.8056
0
LINE
8
BLACK
6
CONTINUOUS
10
2.19277
20
-6.8056
11
2.18715
21
-6.79997
0
LINE
8
BLACK
6
CONTINUOUS
10
2.18715
20
-6.79997
11
2.19277
21
-6.79435
0
LINE
8
BLACK
6
CONTINUOUS
10
2.19277
20
-6.79435
11
2.19277
21
-6.8056
0
LINE
8
BLACK
6
CONTINUOUS
10
2.27151
20
-6.68749
11
2.28276
21
-6.68749
0
LINE
8
BLACK
6
CONTINUOUS
10
2.28276
20
-6.68749
11
2.29401
21
-6.69311
0
LINE
8
BLACK
6
CONTINUOUS
10
2.29401
20
-6.69311
11
2.29963
21
-6.69873
0
LINE
8
BLACK
6
CONTINUOUS
10
2.29963
20
-6.69873
11
2.30526
21
-6.70998
0
LINE
8
BLACK
6
CONTINUOUS
10
2.30526
20
-6.70998
11
2.31088
21
-6.73248
0
LINE
8
BLACK
6
CONTINUOUS
10
2.31088
20
-6.73248
11
2.31088
21
-6.7606
0
LINE
8
BLACK
6
CONTINUOUS
10
2.31088
20
-6.7606
11
2.30526
21
-6.7831
0
LINE
8
BLACK
6
CONTINUOUS
10
2.30526
20
-6.7831
11
2.29963
21
-6.79435
0
LINE
8
BLACK
6
CONTINUOUS
10
2.29963
20
-6.79435
11
2.29401
21
-6.79997
0
LINE
8
BLACK
6
CONTINUOUS
10
2.29401
20
-6.79997
11
2.28276
21
-6.8056
0
LINE
8
BLACK
6
CONTINUOUS
10
2.28276
20
-6.8056
11
2.27151
21
-6.8056
0
LINE
8
BLACK
6
CONTINUOUS
10
2.27151
20
-6.8056
11
2.26026
21
-6.79997
0
LINE
8
BLACK
6
CONTINUOUS
10
2.26026
20
-6.79997
11
2.25464
21
-6.79435
0
LINE
8
BLACK
6
CONTINUOUS
10
2.25464
20
-6.79435
11
2.24902
21
-6.7831
0
LINE
8
BLACK
6
CONTINUOUS
10
2.24902
20
-6.7831
11
2.24339
21
-6.7606
0
LINE
8
BLACK
6
CONTINUOUS
10
2.24339
20
-6.7606
11
2.24339
21
-6.73248
0
LINE
8
BLACK
6
CONTINUOUS
10
2.24339
20
-6.73248
11
2.24902
21
-6.70998
0
LINE
8
BLACK
6
CONTINUOUS
10
2.24902
20
-6.70998
11
2.25464
21
-6.69873
0
LINE
8
BLACK
6
CONTINUOUS
10
2.25464
20
-6.69873
11
2.26026
21
-6.69311
0
LINE
8
BLACK
6
CONTINUOUS
10
2.26026
20
-6.69311
11
2.27151
21
-6.68749
0
LINE
8
BLACK
6
CONTINUOUS
10
2.384
20
-6.68749
11
2.39525
21
-6.68749
0
LINE
8
BLACK
6
CONTINUOUS
10
2.39525
20
-6.68749
11
2.4065
21
-6.69311
0
LINE
8
BLACK
6
CONTINUOUS
10
2.4065
20
-6.69311
11
2.41212
21
-6.69873
0
LINE
8
BLACK
6
CONTINUOUS
10
2.41212
20
-6.69873
11
2.41774
21
-6.70998
0
LINE
8
BLACK
6
CONTINUOUS
10
2.41774
20
-6.70998
11
2.42337
21
-6.73248
0
LINE
8
BLACK
6
CONTINUOUS
10
2.42337
20
-6.73248
11
2.42337
21
-6.7606
0
LINE
8
BLACK
6
CONTINUOUS
10
2.42337
20
-6.7606
11
2.41774
21
-6.7831
0
LINE
8
BLACK
6
CONTINUOUS
10
2.41774
20
-6.7831
11
2.41212
21
-6.79435
0
LINE
8
BLACK
6
CONTINUOUS
10
2.41212
20
-6.79435
11
2.4065
21
-6.79997
0
LINE
8
BLACK
6
CONTINUOUS
10
2.4065
20
-6.79997
11
2.39525
21
-6.8056
0
LINE
8
BLACK
6
CONTINUOUS
10
2.39525
20
-6.8056
11
2.384
21
-6.8056
0
LINE
8
BLACK
6
CONTINUOUS
10
2.384
20
-6.8056
11
2.37275
21
-6.79997
0
LINE
8
BLACK
6
CONTINUOUS
10
2.37275
20
-6.79997
11
2.36713
21
-6.79435
0
LINE
8
BLACK
6
CONTINUOUS
10
2.36713
20
-6.79435
11
2.3615
21
-6.7831
0
LINE
8
BLACK
6
CONTINUOUS
10
2.3615
20
-6.7831
11
2.35588
21
-6.7606
0
LINE
8
BLACK
6
CONTINUOUS
10
2.35588
20
-6.7606
11
2.35588
21
-6.73248
0
LINE
8
BLACK
6
CONTINUOUS
10
2.35588
20
-6.73248
11
2.3615
21
-6.70998
0
LINE
8
BLACK
6
CONTINUOUS
10
2.3615
20
-6.70998
11
2.36713
21
-6.69873
0
LINE
8
BLACK
6
CONTINUOUS
10
2.36713
20
-6.69873
11
2.37275
21
-6.69311
0
LINE
8
BLACK
6
CONTINUOUS
10
2.37275
20
-6.69311
11
2.384
21
-6.68749
0
LINE
8
BLACK
6
CONTINUOUS
10
2.49648
20
-6.68749
11
2.50773
21
-6.68749
0
LINE
8
BLACK
6
CONTINUOUS
10
2.50773
20
-6.68749
11
2.51898
21
-6.69311
0
LINE
8
BLACK
6
CONTINUOUS
10
2.51898
20
-6.69311
11
2.52461
21
-6.69873
0
LINE
8
BLACK
6
CONTINUOUS
10
2.52461
20
-6.69873
11
2.53023
21
-6.70998
0
LINE
8
BLACK
6
CONTINUOUS
10
2.53023
20
-6.70998
11
2.53585
21
-6.73248
0
LINE
8
BLACK
6
CONTINUOUS
10
2.53585
20
-6.73248
11
2.53585
21
-6.7606
0
LINE
8
BLACK
6
CONTINUOUS
10
2.53585
20
-6.7606
11
2.53023
21
-6.7831
0
LINE
8
BLACK
6
CONTINUOUS
10
2.53023
20
-6.7831
11
2.52461
21
-6.79435
0
LINE
8
BLACK
6
CONTINUOUS
10
2.52461
20
-6.79435
11
2.51898
21
-6.79997
0
LINE
8
BLACK
6
CONTINUOUS
10
2.51898
20
-6.79997
11
2.50773
21
-6.8056
0
LINE
8
BLACK
6
CONTINUOUS
10
2.50773
20
-6.8056
11
2.49648
21
-6.8056
0
LINE
8
BLACK
6
CONTINUOUS
10
2.49648
20
-6.8056
11
2.48524
21
-6.79997
0
LINE
8
BLACK
6
CONTINUOUS
10
2.48524
20
-6.79997
11
2.47961
21
-6.79435
0
LINE
8
BLACK
6
CONTINUOUS
10
2.47961
20
-6.79435
11
2.47399
21
-6.7831
0
LINE
8
BLACK
6
CONTINUOUS
10
2.47399
20
-6.7831
11
2.46836
21
-6.7606
0
LINE
8
BLACK
6
CONTINUOUS
10
2.46836
20
-6.7606
11
2.46836
21
-6.73248
0
LINE
8
BLACK
6
CONTINUOUS
10
2.46836
20
-6.73248
11
2.47399
21
-6.70998
0
LINE
8
BLACK
6
CONTINUOUS
10
2.47399
20
-6.70998
11
2.47961
21
-6.69873
0
LINE
8
BLACK
6
CONTINUOUS
10
2.47961
20
-6.69873
11
2.48524
21
-6.69311
0
LINE
8
BLACK
6
CONTINUOUS
10
2.48524
20
-6.69311
11
2.49648
21
-6.68749
0
LINE
8
BLACK
6
CONTINUOUS
10
2.58647
20
-6.8056
11
2.58647
21
-6.72686
0
LINE
8
BLACK
6
CONTINUOUS
10
2.58647
20
-6.7381
11
2.5921
21
-6.73248
0
LINE
8
BLACK
6
CONTINUOUS
10
2.5921
20
-6.73248
11
2.60335
21
-6.72686
0
LINE
8
BLACK
6
CONTINUOUS
10
2.60335
20
-6.72686
11
2.62022
21
-6.72686
0
LINE
8
BLACK
6
CONTINUOUS
10
2.62022
20
-6.72686
11
2.63147
21
-6.73248
0
LINE
8
BLACK
6
CONTINUOUS
10
2.63147
20
-6.73248
11
2.63709
21
-6.74373
0
LINE
8
BLACK
6
CONTINUOUS
10
2.63709
20
-6.74373
11
2.63709
21
-6.8056
0
LINE
8
BLACK
6
CONTINUOUS
10
2.63709
20
-6.74373
11
2.64272
21
-6.73248
0
LINE
8
BLACK
6
CONTINUOUS
10
2.64272
20
-6.73248
11
2.65397
21
-6.72686
0
LINE
8
BLACK
6
CONTINUOUS
10
2.65397
20
-6.72686
11
2.67084
21
-6.72686
0
LINE
8
BLACK
6
CONTINUOUS
10
2.67084
20
-6.72686
11
2.68209
21
-6.73248
0
LINE
8
BLACK
6
CONTINUOUS
10
2.68209
20
-6.73248
11
2.68771
21
-6.74373
0
LINE
8
BLACK
6
CONTINUOUS
10
2.68771
20
-6.74373
11
2.68771
21
-6.8056
0
LINE
8
BLACK
6
CONTINUOUS
10
2.74395
20
-6.8056
11
2.74395
21
-6.72686
0
LINE
8
BLACK
6
CONTINUOUS
10
2.74395
20
-6.7381
11
2.74958
21
-6.73248
0
LINE
8
BLACK
6
CONTINUOUS
10
2.74958
20
-6.73248
11
2.76083
21
-6.72686
0
LINE
8
BLACK
6
CONTINUOUS
10
2.76083
20
-6.72686
11
2.7777
21
-6.72686
0
LINE
8
BLACK
6
CONTINUOUS
10
2.7777
20
-6.72686
11
2.78895
21
-6.73248
0
LINE
8
BLACK
6
CONTINUOUS
10
2.78895
20
-6.73248
11
2.79457
21
-6.74373
0
LINE
8
BLACK
6
CONTINUOUS
10
2.79457
20
-6.74373
11
2.79457
21
-6.8056
0
LINE
8
BLACK
6
CONTINUOUS
10
2.79457
20
-6.74373
11
2.8002
21
-6.73248
0
LINE
8
BLACK
6
CONTINUOUS
10
2.8002
20
-6.73248
11
2.81145
21
-6.72686
0
LINE
8
BLACK
6
CONTINUOUS
10
2.81145
20
-6.72686
11
2.82832
21
-6.72686
0
LINE
8
BLACK
6
CONTINUOUS
10
2.82832
20
-6.72686
11
2.83957
21
-6.73248
0
LINE
8
BLACK
6
CONTINUOUS
10
2.83957
20
-6.73248
11
2.84519
21
-6.74373
0
LINE
8
BLACK
6
CONTINUOUS
10
2.84519
20
-6.74373
11
2.84519
21
-6.8056
0
LINE
8
BLACK
6
CONTINUOUS
10
3.07579
20
-6.68186
11
2.97455
21
-6.83372
0
LINE
8
BLACK
6
CONTINUOUS
10
3.22764
20
-6.68749
11
3.23889
21
-6.68749
0
LINE
8
BLACK
6
CONTINUOUS
10
3.23889
20
-6.68749
11
3.25014
21
-6.69311
0
LINE
8
BLACK
6
CONTINUOUS
10
3.25014
20
-6.69311
11
3.25576
21
-6.69873
0
LINE
8
BLACK
6
CONTINUOUS
10
3.25576
20
-6.69873
11
3.26139
21
-6.70998
0
LINE
8
BLACK
6
CONTINUOUS
10
3.26139
20
-6.70998
11
3.26701
21
-6.73248
0
LINE
8
BLACK
6
CONTINUOUS
10
3.26701
20
-6.73248
11
3.26701
21
-6.7606
0
LINE
8
BLACK
6
CONTINUOUS
10
3.26701
20
-6.7606
11
3.26139
21
-6.7831
0
LINE
8
BLACK
6
CONTINUOUS
10
3.26139
20
-6.7831
11
3.25576
21
-6.79435
0
LINE
8
BLACK
6
CONTINUOUS
10
3.25576
20
-6.79435
11
3.25014
21
-6.79997
0
LINE
8
BLACK
6
CONTINUOUS
10
3.25014
20
-6.79997
11
3.23889
21
-6.8056
0
LINE
8
BLACK
6
CONTINUOUS
10
3.23889
20
-6.8056
11
3.22764
21
-6.8056
0
LINE
8
BLACK
6
CONTINUOUS
10
3.22764
20
-6.8056
11
3.21639
21
-6.79997
0
LINE
8
BLACK
6
CONTINUOUS
10
3.21639
20
-6.79997
11
3.21077
21
-6.79435
0
LINE
8
BLACK
6
CONTINUOUS
10
3.21077
20
-6.79435
11
3.20515
21
-6.7831
0
LINE
8
BLACK
6
CONTINUOUS
10
3.20515
20
-6.7831
11
3.19952
21
-6.7606
0
LINE
8
BLACK
6
CONTINUOUS
10
3.19952
20
-6.7606
11
3.19952
21
-6.73248
0
LINE
8
BLACK
6
CONTINUOUS
10
3.19952
20
-6.73248
11
3.20515
21
-6.70998
0
LINE
8
BLACK
6
CONTINUOUS
10
3.20515
20
-6.70998
11
3.21077
21
-6.69873
0
LINE
8
BLACK
6
CONTINUOUS
10
3.21077
20
-6.69873
11
3.21639
21
-6.69311
0
LINE
8
BLACK
6
CONTINUOUS
10
3.21639
20
-6.69311
11
3.22764
21
-6.68749
0
LINE
8
BLACK
6
CONTINUOUS
10
3.31763
20
-6.79435
11
3.32326
21
-6.79997
0
LINE
8
BLACK
6
CONTINUOUS
10
3.32326
20
-6.79997
11
3.31763
21
-6.8056
0
LINE
8
BLACK
6
CONTINUOUS
10
3.31763
20
-6.8056
11
3.31201
21
-6.79997
0
LINE
8
BLACK
6
CONTINUOUS
10
3.31201
20
-6.79997
11
3.31763
21
-6.79435
0
LINE
8
BLACK
6
CONTINUOUS
10
3.31763
20
-6.79435
11
3.31763
21
-6.8056
0
LINE
8
BLACK
6
CONTINUOUS
10
3.39637
20
-6.68749
11
3.40762
21
-6.68749
0
LINE
8
BLACK
6
CONTINUOUS
10
3.40762
20
-6.68749
11
3.41887
21
-6.69311
0
LINE
8
BLACK
6
CONTINUOUS
10
3.41887
20
-6.69311
11
3.42449
21
-6.69873
0
LINE
8
BLACK
6
CONTINUOUS
10
3.42449
20
-6.69873
11
3.43012
21
-6.70998
0
LINE
8
BLACK
6
CONTINUOUS
10
3.43012
20
-6.70998
11
3.43574
21
-6.73248
0
LINE
8
BLACK
6
CONTINUOUS
10
3.43574
20
-6.73248
11
3.43574
21
-6.7606
0
LINE
8
BLACK
6
CONTINUOUS
10
3.43574
20
-6.7606
11
3.43012
21
-6.7831
0
LINE
8
BLACK
6
CONTINUOUS
10
3.43012
20
-6.7831
11
3.42449
21
-6.79435
0
LINE
8
BLACK
6
CONTINUOUS
10
3.42449
20
-6.79435
11
3.41887
21
-6.79997
0
LINE
8
BLACK
6
CONTINUOUS
10
3.41887
20
-6.79997
11
3.40762
21
-6.8056
0
LINE
8
BLACK
6
CONTINUOUS
10
3.40762
20
-6.8056
11
3.39637
21
-6.8056
0
LINE
8
BLACK
6
CONTINUOUS
10
3.39637
20
-6.8056
11
3.38512
21
-6.79997
0
LINE
8
BLACK
6
CONTINUOUS
10
3.38512
20
-6.79997
11
3.3795
21
-6.79435
0
LINE
8
BLACK
6
CONTINUOUS
10
3.3795
20
-6.79435
11
3.37388
21
-6.7831
0
LINE
8
BLACK
6
CONTINUOUS
10
3.37388
20
-6.7831
11
3.36825
21
-6.7606
0
LINE
8
BLACK
6
CONTINUOUS
10
3.36825
20
-6.7606
11
3.36825
21
-6.73248
0
LINE
8
BLACK
6
CONTINUOUS
10
3.36825
20
-6.73248
11
3.37388
21
-6.70998
0
LINE
8
BLACK
6
CONTINUOUS
10
3.37388
20
-6.70998
11
3.3795
21
-6.69873
0
LINE
8
BLACK
6
CONTINUOUS
10
3.3795
20
-6.69873
11
3.38512
21
-6.69311
0
LINE
8
BLACK
6
CONTINUOUS
10
3.38512
20
-6.69311
11
3.39637
21
-6.68749
0
LINE
8
BLACK
6
CONTINUOUS
10
3.47511
20
-6.68749
11
3.54823
21
-6.68749
0
LINE
8
BLACK
6
CONTINUOUS
10
3.54823
20
-6.68749
11
3.50886
21
-6.73248
0
LINE
8
BLACK
6
CONTINUOUS
10
3.50886
20
-6.73248
11
3.52573
21
-6.73248
0
LINE
8
BLACK
6
CONTINUOUS
10
3.52573
20
-6.73248
11
3.53698
21
-6.7381
0
LINE
8
BLACK
6
CONTINUOUS
10
3.53698
20
-6.7381
11
3.5426
21
-6.74373
0
LINE
8
BLACK
6
CONTINUOUS
10
3.5426
20
-6.74373
11
3.54823
21
-6.75498
0
LINE
8
BLACK
6
CONTINUOUS
10
3.54823
20
-6.75498
11
3.54823
21
-6.7831
0
LINE
8
BLACK
6
CONTINUOUS
10
3.54823
20
-6.7831
11
3.5426
21
-6.79435
0
LINE
8
BLACK
6
CONTINUOUS
10
3.5426
20
-6.79435
11
3.53698
21
-6.79997
0
LINE
8
BLACK
6
CONTINUOUS
10
3.53698
20
-6.79997
11
3.52573
21
-6.8056
0
LINE
8
BLACK
6
CONTINUOUS
10
3.52573
20
-6.8056
11
3.49199
21
-6.8056
0
LINE
8
BLACK
6
CONTINUOUS
10
3.49199
20
-6.8056
11
3.48074
21
-6.79997
0
LINE
8
BLACK
6
CONTINUOUS
10
3.48074
20
-6.79997
11
3.47511
21
-6.79435
0
LINE
8
BLACK
6
CONTINUOUS
10
3.60447
20
-6.8056
11
3.62697
21
-6.8056
0
LINE
8
BLACK
6
CONTINUOUS
10
3.62697
20
-6.8056
11
3.63822
21
-6.79997
0
LINE
8
BLACK
6
CONTINUOUS
10
3.63822
20
-6.79997
11
3.64384
21
-6.79435
0
LINE
8
BLACK
6
CONTINUOUS
10
3.64384
20
-6.79435
11
3.65509
21
-6.77747
0
LINE
8
BLACK
6
CONTINUOUS
10
3.65509
20
-6.77747
11
3.66071
21
-6.75498
0
LINE
8
BLACK
6
CONTINUOUS
10
3.66071
20
-6.75498
11
3.66071
21
-6.70998
0
LINE
8
BLACK
6
CONTINUOUS
10
3.66071
20
-6.70998
11
3.65509
21
-6.69873
0
LINE
8
BLACK
6
CONTINUOUS
10
3.65509
20
-6.69873
11
3.64947
21
-6.69311
0
LINE
8
BLACK
6
CONTINUOUS
10
3.64947
20
-6.69311
11
3.63822
21
-6.68749
0
LINE
8
BLACK
6
CONTINUOUS
10
3.63822
20
-6.68749
11
3.61572
21
-6.68749
0
LINE
8
BLACK
6
CONTINUOUS
10
3.61572
20
-6.68749
11
3.60447
21
-6.69311
0
LINE
8
BLACK
6
CONTINUOUS
10
3.60447
20
-6.69311
11
3.59885
21
-6.69873
0
LINE
8
BLACK
6
CONTINUOUS
10
3.59885
20
-6.69873
11
3.59322
21
-6.70998
0
LINE
8
BLACK
6
CONTINUOUS
10
3.59322
20
-6.70998
11
3.59322
21
-6.7381
0
LINE
8
BLACK
6
CONTINUOUS
10
3.59322
20
-6.7381
11
3.59885
21
-6.74935
0
LINE
8
BLACK
6
CONTINUOUS
10
3.59885
20
-6.74935
11
3.60447
21
-6.75498
0
LINE
8
BLACK
6
CONTINUOUS
10
3.60447
20
-6.75498
11
3.61572
21
-6.7606
0
LINE
8
BLACK
6
CONTINUOUS
10
3.61572
20
-6.7606
11
3.63822
21
-6.7606
0
LINE
8
BLACK
6
CONTINUOUS
10
3.63822
20
-6.7606
11
3.64947
21
-6.75498
0
LINE
8
BLACK
6
CONTINUOUS
10
3.64947
20
-6.75498
11
3.65509
21
-6.74935
0
LINE
8
BLACK
6
CONTINUOUS
10
3.65509
20
-6.74935
11
3.66071
21
-6.7381
0
LINE
8
BLACK
6
CONTINUOUS
10
3.76195
20
-6.72686
11
3.76195
21
-6.8056
0
LINE
8
BLACK
6
CONTINUOUS
10
3.73383
20
-6.68186
11
3.70571
21
-6.76623
0
LINE
8
BLACK
6
CONTINUOUS
10
3.70571
20
-6.76623
11
3.77882
21
-6.76623
0
LINE
8
BLACK
6
CONTINUOUS
10
3.81819
20
-6.68749
11
3.81819
21
-6.70998
0
LINE
8
BLACK
6
CONTINUOUS
10
3.86319
20
-6.68749
11
3.86319
21
-6.70998
0
LINE
8
BLACK
6
CONTINUOUS
10
4.03754
20
-6.85059
11
4.03192
21
-6.84497
0
LINE
8
BLACK
6
CONTINUOUS
10
4.03192
20
-6.84497
11
4.02067
21
-6.82809
0
LINE
8
BLACK
6
CONTINUOUS
10
4.02067
20
-6.82809
11
4.01504
21
-6.81684
0
LINE
8
BLACK
6
CONTINUOUS
10
4.01504
20
-6.81684
11
4.00942
21
-6.79997
0
LINE
8
BLACK
6
CONTINUOUS
10
4.00942
20
-6.79997
11
4.0038
21
-6.77185
0
LINE
8
BLACK
6
CONTINUOUS
10
4.0038
20
-6.77185
11
4.0038
21
-6.74935
0
LINE
8
BLACK
6
CONTINUOUS
10
4.0038
20
-6.74935
11
4.00942
21
-6.72123
0
LINE
8
BLACK
6
CONTINUOUS
10
4.00942
20
-6.72123
11
4.01504
21
-6.70436
0
LINE
8
BLACK
6
CONTINUOUS
10
4.01504
20
-6.70436
11
4.02067
21
-6.69311
0
LINE
8
BLACK
6
CONTINUOUS
10
4.02067
20
-6.69311
11
4.03192
21
-6.67624
0
LINE
8
BLACK
6
CONTINUOUS
10
4.03192
20
-6.67624
11
4.03754
21
-6.67061
0
LINE
8
BLACK
6
CONTINUOUS
10
4.07691
20
-6.69873
11
4.08254
21
-6.69311
0
LINE
8
BLACK
6
CONTINUOUS
10
4.08254
20
-6.69311
11
4.09379
21
-6.68749
0
LINE
8
BLACK
6
CONTINUOUS
10
4.09379
20
-6.68749
11
4.12191
21
-6.68749
0
LINE
8
BLACK
6
CONTINUOUS
10
4.12191
20
-6.68749
11
4.13316
21
-6.69311
0
LINE
8
BLACK
6
CONTINUOUS
10
4.13316
20
-6.69311
11
4.13878
21
-6.69873
0
LINE
8
BLACK
6
CONTINUOUS
10
4.13878
20
-6.69873
11
4.1444
21
-6.70998
0
LINE
8
BLACK
6
CONTINUOUS
10
4.1444
20
-6.70998
11
4.1444
21
-6.72123
0
LINE
8
BLACK
6
CONTINUOUS
10
4.1444
20
-6.72123
11
4.13878
21
-6.7381
0
LINE
8
BLACK
6
CONTINUOUS
10
4.13878
20
-6.7381
11
4.07129
21
-6.8056
0
LINE
8
BLACK
6
CONTINUOUS
10
4.07129
20
-6.8056
11
4.1444
21
-6.8056
0
LINE
8
BLACK
6
CONTINUOUS
10
4.21752
20
-6.68749
11
4.22877
21
-6.68749
0
LINE
8
BLACK
6
CONTINUOUS
10
4.22877
20
-6.68749
11
4.24002
21
-6.69311
0
LINE
8
BLACK
6
CONTINUOUS
10
4.24002
20
-6.69311
11
4.24564
21
-6.69873
0
LINE
8
BLACK
6
CONTINUOUS
10
4.24564
20
-6.69873
11
4.25127
21
-6.70998
0
LINE
8
BLACK
6
CONTINUOUS
10
4.25127
20
-6.70998
11
4.25689
21
-6.73248
0
LINE
8
BLACK
6
CONTINUOUS
10
4.25689
20
-6.73248
11
4.25689
21
-6.7606
0
LINE
8
BLACK
6
CONTINUOUS
10
4.25689
20
-6.7606
11
4.25127
21
-6.7831
0
LINE
8
BLACK
6
CONTINUOUS
10
4.25127
20
-6.7831
11
4.24564
21
-6.79435
0
LINE
8
BLACK
6
CONTINUOUS
10
4.24564
20
-6.79435
11
4.24002
21
-6.79997
0
LINE
8
BLACK
6
CONTINUOUS
10
4.24002
20
-6.79997
11
4.22877
21
-6.8056
0
LINE
8
BLACK
6
CONTINUOUS
10
4.22877
20
-6.8056
11
4.21752
21
-6.8056
0
LINE
8
BLACK
6
CONTINUOUS
10
4.21752
20
-6.8056
11
4.20627
21
-6.79997
0
LINE
8
BLACK
6
CONTINUOUS
10
4.20627
20
-6.79997
11
4.20065
21
-6.79435
0
LINE
8
BLACK
6
CONTINUOUS
10
4.20065
20
-6.79435
11
4.19502
21
-6.7831
0
LINE
8
BLACK
6
CONTINUOUS
10
4.19502
20
-6.7831
11
4.1894
21
-6.7606
0
LINE
8
BLACK
6
CONTINUOUS
10
4.1894
20
-6.7606
11
4.1894
21
-6.73248
0
LINE
8
BLACK
6
CONTINUOUS
10
4.1894
20
-6.73248
11
4.19502
21
-6.70998
0
LINE
8
BLACK
6
CONTINUOUS
10
4.19502
20
-6.70998
11
4.20065
21
-6.69873
0
LINE
8
BLACK
6
CONTINUOUS
10
4.20065
20
-6.69873
11
4.20627
21
-6.69311
0
LINE
8
BLACK
6
CONTINUOUS
10
4.20627
20
-6.69311
11
4.21752
21
-6.68749
0
LINE
8
BLACK
6
CONTINUOUS
10
4.3975
20
-6.8056
11
4.3975
21
-6.68749
0
LINE
8
BLACK
6
CONTINUOUS
10
4.44812
20
-6.8056
11
4.44812
21
-6.74373
0
LINE
8
BLACK
6
CONTINUOUS
10
4.44812
20
-6.74373
11
4.44249
21
-6.73248
0
LINE
8
BLACK
6
CONTINUOUS
10
4.44249
20
-6.73248
11
4.43124
21
-6.72686
0
LINE
8
BLACK
6
CONTINUOUS
10
4.43124
20
-6.72686
11
4.41437
21
-6.72686
0
LINE
8
BLACK
6
CONTINUOUS
10
4.41437
20
-6.72686
11
4.40312
21
-6.73248
0
LINE
8
BLACK
6
CONTINUOUS
10
4.40312
20
-6.73248
11
4.3975
21
-6.7381
0
LINE
8
BLACK
6
CONTINUOUS
10
4.52123
20
-6.8056
11
4.50998
21
-6.79997
0
LINE
8
BLACK
6
CONTINUOUS
10
4.50998
20
-6.79997
11
4.50436
21
-6.79435
0
LINE
8
BLACK
6
CONTINUOUS
10
4.50436
20
-6.79435
11
4.49873
21
-6.7831
0
LINE
8
BLACK
6
CONTINUOUS
10
4.49873
20
-6.7831
11
4.49873
21
-6.74935
0
LINE
8
BLACK
6
CONTINUOUS
10
4.49873
20
-6.74935
11
4.50436
21
-6.7381
0
LINE
8
BLACK
6
CONTINUOUS
10
4.50436
20
-6.7381
11
4.50998
21
-6.73248
0
LINE
8
BLACK
6
CONTINUOUS
10
4.50998
20
-6.73248
11
4.52123
21
-6.72686
0
LINE
8
BLACK
6
CONTINUOUS
10
4.52123
20
-6.72686
11
4.5381
21
-6.72686
0
LINE
8
BLACK
6
CONTINUOUS
10
4.5381
20
-6.72686
11
4.54935
21
-6.73248
0
LINE
8
BLACK
6
CONTINUOUS
10
4.54935
20
-6.73248
11
4.55498
21
-6.7381
0
LINE
8
BLACK
6
CONTINUOUS
10
4.55498
20
-6.7381
11
4.5606
21
-6.74935
0
LINE
8
BLACK
6
CONTINUOUS
10
4.5606
20
-6.74935
11
4.5606
21
-6.7831
0
LINE
8
BLACK
6
CONTINUOUS
10
4.5606
20
-6.7831
11
4.55498
21
-6.79435
0
LINE
8
BLACK
6
CONTINUOUS
10
4.55498
20
-6.79435
11
4.54935
21
-6.79997
0
LINE
8
BLACK
6
CONTINUOUS
10
4.54935
20
-6.79997
11
4.5381
21
-6.8056
0
LINE
8
BLACK
6
CONTINUOUS
10
4.5381
20
-6.8056
11
4.52123
21
-6.8056
0
LINE
8
BLACK
6
CONTINUOUS
10
4.62809
20
-6.8056
11
4.61684
21
-6.79997
0
LINE
8
BLACK
6
CONTINUOUS
10
4.61684
20
-6.79997
11
4.61122
21
-6.78872
0
LINE
8
BLACK
6
CONTINUOUS
10
4.61122
20
-6.78872
11
4.61122
21
-6.68749
0
LINE
8
BLACK
6
CONTINUOUS
10
4.71808
20
-6.79997
11
4.70683
21
-6.8056
0
LINE
8
BLACK
6
CONTINUOUS
10
4.70683
20
-6.8056
11
4.68434
21
-6.8056
0
LINE
8
BLACK
6
CONTINUOUS
10
4.68434
20
-6.8056
11
4.67309
21
-6.79997
0
LINE
8
BLACK
6
CONTINUOUS
10
4.67309
20
-6.79997
11
4.66746
21
-6.78872
0
LINE
8
BLACK
6
CONTINUOUS
10
4.66746
20
-6.78872
11
4.66746
21
-6.74373
0
LINE
8
BLACK
6
CONTINUOUS
10
4.66746
20
-6.74373
11
4.67309
21
-6.73248
0
LINE
8
BLACK
6
CONTINUOUS
10
4.67309
20
-6.73248
11
4.68434
21
-6.72686
0
LINE
8
BLACK
6
CONTINUOUS
10
4.68434
20
-6.72686
11
4.70683
21
-6.72686
0
LINE
8
BLACK
6
CONTINUOUS
10
4.70683
20
-6.72686
11
4.71808
21
-6.73248
0
LINE
8
BLACK
6
CONTINUOUS
10
4.71808
20
-6.73248
11
4.72371
21
-6.74373
0
LINE
8
BLACK
6
CONTINUOUS
10
4.72371
20
-6.74373
11
4.72371
21
-6.75498
0
LINE
8
BLACK
6
CONTINUOUS
10
4.72371
20
-6.75498
11
4.66746
21
-6.76623
0
LINE
8
BLACK
6
CONTINUOUS
10
4.7687
20
-6.79997
11
4.77995
21
-6.8056
0
LINE
8
BLACK
6
CONTINUOUS
10
4.77995
20
-6.8056
11
4.80245
21
-6.8056
0
LINE
8
BLACK
6
CONTINUOUS
10
4.80245
20
-6.8056
11
4.8137
21
-6.79997
0
LINE
8
BLACK
6
CONTINUOUS
10
4.8137
20
-6.79997
11
4.81932
21
-6.78872
0
LINE
8
BLACK
6
CONTINUOUS
10
4.81932
20
-6.78872
11
4.81932
21
-6.7831
0
LINE
8
BLACK
6
CONTINUOUS
10
4.81932
20
-6.7831
11
4.8137
21
-6.77185
0
LINE
8
BLACK
6
CONTINUOUS
10
4.8137
20
-6.77185
11
4.80245
21
-6.76623
0
LINE
8
BLACK
6
CONTINUOUS
10
4.80245
20
-6.76623
11
4.78557
21
-6.76623
0
LINE
8
BLACK
6
CONTINUOUS
10
4.78557
20
-6.76623
11
4.77433
21
-6.7606
0
LINE
8
BLACK
6
CONTINUOUS
10
4.77433
20
-6.7606
11
4.7687
21
-6.74935
0
LINE
8
BLACK
6
CONTINUOUS
10
4.7687
20
-6.74935
11
4.7687
21
-6.74373
0
LINE
8
BLACK
6
CONTINUOUS
10
4.7687
20
-6.74373
11
4.77433
21
-6.73248
0
LINE
8
BLACK
6
CONTINUOUS
10
4.77433
20
-6.73248
11
4.78557
21
-6.72686
0
LINE
8
BLACK
6
CONTINUOUS
10
4.78557
20
-6.72686
11
4.80245
21
-6.72686
0
LINE
8
BLACK
6
CONTINUOUS
10
4.80245
20
-6.72686
11
4.8137
21
-6.73248
0
LINE
8
BLACK
6
CONTINUOUS
10
4.85869
20
-6.85059
11
4.86431
21
-6.84497
0
LINE
8
BLACK
6
CONTINUOUS
10
4.86431
20
-6.84497
11
4.87556
21
-6.82809
0
LINE
8
BLACK
6
CONTINUOUS
10
4.87556
20
-6.82809
11
4.88119
21
-6.81684
0
LINE
8
BLACK
6
CONTINUOUS
10
4.88119
20
-6.81684
11
4.88681
21
-6.79997
0
LINE
8
BLACK
6
CONTINUOUS
10
4.88681
20
-6.79997
11
4.89244
21
-6.77185
0
LINE
8
BLACK
6
CONTINUOUS
10
4.89244
20
-6.77185
11
4.89244
21
-6.74935
0
LINE
8
BLACK
6
CONTINUOUS
10
4.89244
20
-6.74935
11
4.88681
21
-6.72123
0
LINE
8
BLACK
6
CONTINUOUS
10
4.88681
20
-6.72123
11
4.88119
21
-6.70436
0
LINE
8
BLACK
6
CONTINUOUS
10
4.88119
20
-6.70436
11
4.87556
21
-6.69311
0
LINE
8
BLACK
6
CONTINUOUS
10
4.87556
20
-6.69311
11
4.86431
21
-6.67624
0
LINE
8
BLACK
6
CONTINUOUS
10
4.86431
20
-6.67624
11
4.85869
21
-6.67061
0
LINE
8
BLACK
6
CONTINUOUS
10
1.90453
20
-6.97106
11
1.96752
21
-6.90807
0
LINE
8
BLACK
6
CONTINUOUS
10
1.96752
20
-6.90807
11
1.90453
21
-6.84508
0
LINE
8
BLACK
6
CONTINUOUS
10
1.90453
20
-6.84508
11
1.84154
21
-6.90807
0
LINE
8
BLACK
6
CONTINUOUS
10
1.84154
20
-6.90807
11
1.90453
21
-6.97106
0
LINE
8
BLACK
6
CONTINUOUS
10
2.06904
20
-6.84339
11
2.14215
21
-6.84339
0
LINE
8
BLACK
6
CONTINUOUS
10
2.14215
20
-6.84339
11
2.10278
21
-6.88839
0
LINE
8
BLACK
6
CONTINUOUS
10
2.10278
20
-6.88839
11
2.11966
21
-6.88839
0
LINE
8
BLACK
6
CONTINUOUS
10
2.11966
20
-6.88839
11
2.13091
21
-6.89401
0
LINE
8
BLACK
6
CONTINUOUS
10
2.13091
20
-6.89401
11
2.13653
21
-6.89963
0
LINE
8
BLACK
6
CONTINUOUS
10
2.13653
20
-6.89963
11
2.14215
21
-6.91088
0
LINE
8
BLACK
6
CONTINUOUS
10
2.14215
20
-6.91088
11
2.14215
21
-6.939
0
LINE
8
BLACK
6
CONTINUOUS
10
2.14215
20
-6.939
11
2.13653
21
-6.95025
0
LINE
8
BLACK
6
CONTINUOUS
10
2.13653
20
-6.95025
11
2.13091
21
-6.95588
0
LINE
8
BLACK
6
CONTINUOUS
10
2.13091
20
-6.95588
11
2.11966
21
-6.9615
0
LINE
8
BLACK
6
CONTINUOUS
10
2.11966
20
-6.9615
11
2.08591
21
-6.9615
0
LINE
8
BLACK
6
CONTINUOUS
10
2.08591
20
-6.9615
11
2.07466
21
-6.95588
0
LINE
8
BLACK
6
CONTINUOUS
10
2.07466
20
-6.95588
11
2.06904
21
-6.95025
0
LINE
8
BLACK
6
CONTINUOUS
10
2.19277
20
-6.95025
11
2.1984
21
-6.95588
0
LINE
8
BLACK
6
CONTINUOUS
10
2.1984
20
-6.95588
11
2.19277
21
-6.9615
0
LINE
8
BLACK
6
CONTINUOUS
10
2.19277
20
-6.9615
11
2.18715
21
-6.95588
0
LINE
8
BLACK
6
CONTINUOUS
10
2.18715
20
-6.95588
11
2.19277
21
-6.95025
0
LINE
8
BLACK
6
CONTINUOUS
10
2.19277
20
-6.95025
11
2.19277
21
-6.9615
0
LINE
8
BLACK
6
CONTINUOUS
10
2.24339
20
-6.85464
11
2.24902
21
-6.84902
0
LINE
8
BLACK
6
CONTINUOUS
10
2.24902
20
-6.84902
11
2.26026
21
-6.84339
0
LINE
8
BLACK
6
CONTINUOUS
10
2.26026
20
-6.84339
11
2.28839
21
-6.84339
0
LINE
8
BLACK
6
CONTINUOUS
10
2.28839
20
-6.84339
11
2.29963
21
-6.84902
0
LINE
8
BLACK
6
CONTINUOUS
10
2.29963
20
-6.84902
11
2.30526
21
-6.85464
0
LINE
8
BLACK
6
CONTINUOUS
10
2.30526
20
-6.85464
11
2.31088
21
-6.86589
0
LINE
8
BLACK
6
CONTINUOUS
10
2.31088
20
-6.86589
11
2.31088
21
-6.87714
0
LINE
8
BLACK
6
CONTINUOUS
10
2.31088
20
-6.87714
11
2.30526
21
-6.89401
0
LINE
8
BLACK
6
CONTINUOUS
10
2.30526
20
-6.89401
11
2.23777
21
-6.9615
0
LINE
8
BLACK
6
CONTINUOUS
10
2.23777
20
-6.9615
11
2.31088
21
-6.9615
0
LINE
8
BLACK
6
CONTINUOUS
10
2.384
20
-6.84339
11
2.39525
21
-6.84339
0
LINE
8
BLACK
6
CONTINUOUS
10
2.39525
20
-6.84339
11
2.4065
21
-6.84902
0
LINE
8
BLACK
6
CONTINUOUS
10
2.4065
20
-6.84902
11
2.41212
21
-6.85464
0
LINE
8
BLACK
6
CONTINUOUS
10
2.41212
20
-6.85464
11
2.41774
21
-6.86589
0
LINE
8
BLACK
6
CONTINUOUS
10
2.41774
20
-6.86589
11
2.42337
21
-6.88839
0
LINE
8
BLACK
6
CONTINUOUS
10
2.42337
20
-6.88839
11
2.42337
21
-6.91651
0
LINE
8
BLACK
6
CONTINUOUS
10
2.42337
20
-6.91651
11
2.41774
21
-6.939
0
LINE
8
BLACK
6
CONTINUOUS
10
2.41774
20
-6.939
11
2.41212
21
-6.95025
0
LINE
8
BLACK
6
CONTINUOUS
10
2.41212
20
-6.95025
11
2.4065
21
-6.95588
0
LINE
8
BLACK
6
CONTINUOUS
10
2.4065
20
-6.95588
11
2.39525
21
-6.9615
0
LINE
8
BLACK
6
CONTINUOUS
10
2.39525
20
-6.9615
11
2.384
21
-6.9615
0
LINE
8
BLACK
6
CONTINUOUS
10
2.384
20
-6.9615
11
2.37275
21
-6.95588
0
LINE
8
BLACK
6
CONTINUOUS
10
2.37275
20
-6.95588
11
2.36713
21
-6.95025
0
LINE
8
BLACK
6
CONTINUOUS
10
2.36713
20
-6.95025
11
2.3615
21
-6.939
0
LINE
8
BLACK
6
CONTINUOUS
10
2.3615
20
-6.939
11
2.35588
21
-6.91651
0
LINE
8
BLACK
6
CONTINUOUS
10
2.35588
20
-6.91651
11
2.35588
21
-6.88839
0
LINE
8
BLACK
6
CONTINUOUS
10
2.35588
20
-6.88839
11
2.3615
21
-6.86589
0
LINE
8
BLACK
6
CONTINUOUS
10
2.3615
20
-6.86589
11
2.36713
21
-6.85464
0
LINE
8
BLACK
6
CONTINUOUS
10
2.36713
20
-6.85464
11
2.37275
21
-6.84902
0
LINE
8
BLACK
6
CONTINUOUS
10
2.37275
20
-6.84902
11
2.384
21
-6.84339
0
LINE
8
BLACK
6
CONTINUOUS
10
2.49648
20
-6.84339
11
2.50773
21
-6.84339
0
LINE
8
BLACK
6
CONTINUOUS
10
2.50773
20
-6.84339
11
2.51898
21
-6.84902
0
LINE
8
BLACK
6
CONTINUOUS
10
2.51898
20
-6.84902
11
2.52461
21
-6.85464
0
LINE
8
BLACK
6
CONTINUOUS
10
2.52461
20
-6.85464
11
2.53023
21
-6.86589
0
LINE
8
BLACK
6
CONTINUOUS
10
2.53023
20
-6.86589
11
2.53585
21
-6.88839
0
LINE
8
BLACK
6
CONTINUOUS
10
2.53585
20
-6.88839
11
2.53585
21
-6.91651
0
LINE
8
BLACK
6
CONTINUOUS
10
2.53585
20
-6.91651
11
2.53023
21
-6.939
0
LINE
8
BLACK
6
CONTINUOUS
10
2.53023
20
-6.939
11
2.52461
21
-6.95025
0
LINE
8
BLACK
6
CONTINUOUS
10
2.52461
20
-6.95025
11
2.51898
21
-6.95588
0
LINE
8
BLACK
6
CONTINUOUS
10
2.51898
20
-6.95588
11
2.50773
21
-6.9615
0
LINE
8
BLACK
6
CONTINUOUS
10
2.50773
20
-6.9615
11
2.49648
21
-6.9615
0
LINE
8
BLACK
6
CONTINUOUS
10
2.49648
20
-6.9615
11
2.48524
21
-6.95588
0
LINE
8
BLACK
6
CONTINUOUS
10
2.48524
20
-6.95588
11
2.47961
21
-6.95025
0
LINE
8
BLACK
6
CONTINUOUS
10
2.47961
20
-6.95025
11
2.47399
21
-6.939
0
LINE
8
BLACK
6
CONTINUOUS
10
2.47399
20
-6.939
11
2.46836
21
-6.91651
0
LINE
8
BLACK
6
CONTINUOUS
10
2.46836
20
-6.91651
11
2.46836
21
-6.88839
0
LINE
8
BLACK
6
CONTINUOUS
10
2.46836
20
-6.88839
11
2.47399
21
-6.86589
0
LINE
8
BLACK
6
CONTINUOUS
10
2.47399
20
-6.86589
11
2.47961
21
-6.85464
0
LINE
8
BLACK
6
CONTINUOUS
10
2.47961
20
-6.85464
11
2.48524
21
-6.84902
0
LINE
8
BLACK
6
CONTINUOUS
10
2.48524
20
-6.84902
11
2.49648
21
-6.84339
0
LINE
8
BLACK
6
CONTINUOUS
10
2.58647
20
-6.9615
11
2.58647
21
-6.88276
0
LINE
8
BLACK
6
CONTINUOUS
10
2.58647
20
-6.89401
11
2.5921
21
-6.88839
0
LINE
8
BLACK
6
CONTINUOUS
10
2.5921
20
-6.88839
11
2.60335
21
-6.88276
0
LINE
8
BLACK
6
CONTINUOUS
10
2.60335
20
-6.88276
11
2.62022
21
-6.88276
0
LINE
8
BLACK
6
CONTINUOUS
10
2.62022
20
-6.88276
11
2.63147
21
-6.88839
0
LINE
8
BLACK
6
CONTINUOUS
10
2.63147
20
-6.88839
11
2.63709
21
-6.89963
0
LINE
8
BLACK
6
CONTINUOUS
10
2.63709
20
-6.89963
11
2.63709
21
-6.9615
0
LINE
8
BLACK
6
CONTINUOUS
10
2.63709
20
-6.89963
11
2.64272
21
-6.88839
0
LINE
8
BLACK
6
CONTINUOUS
10
2.64272
20
-6.88839
11
2.65397
21
-6.88276
0
LINE
8
BLACK
6
CONTINUOUS
10
2.65397
20
-6.88276
11
2.67084
21
-6.88276
0
LINE
8
BLACK
6
CONTINUOUS
10
2.67084
20
-6.88276
11
2.68209
21
-6.88839
0
LINE
8
BLACK
6
CONTINUOUS
10
2.68209
20
-6.88839
11
2.68771
21
-6.89963
0
LINE
8
BLACK
6
CONTINUOUS
10
2.68771
20
-6.89963
11
2.68771
21
-6.9615
0
LINE
8
BLACK
6
CONTINUOUS
10
2.74395
20
-6.9615
11
2.74395
21
-6.88276
0
LINE
8
BLACK
6
CONTINUOUS
10
2.74395
20
-6.89401
11
2.74958
21
-6.88839
0
LINE
8
BLACK
6
CONTINUOUS
10
2.74958
20
-6.88839
11
2.76083
21
-6.88276
0
LINE
8
BLACK
6
CONTINUOUS
10
2.76083
20
-6.88276
11
2.7777
21
-6.88276
0
LINE
8
BLACK
6
CONTINUOUS
10
2.7777
20
-6.88276
11
2.78895
21
-6.88839
0
LINE
8
BLACK
6
CONTINUOUS
10
2.78895
20
-6.88839
11
2.79457
21
-6.89963
0
LINE
8
BLACK
6
CONTINUOUS
10
2.79457
20
-6.89963
11
2.79457
21
-6.9615
0
LINE
8
BLACK
6
CONTINUOUS
10
2.79457
20
-6.89963
11
2.8002
21
-6.88839
0
LINE
8
BLACK
6
CONTINUOUS
10
2.8002
20
-6.88839
11
2.81145
21
-6.88276
0
LINE
8
BLACK
6
CONTINUOUS
10
2.81145
20
-6.88276
11
2.82832
21
-6.88276
0
LINE
8
BLACK
6
CONTINUOUS
10
2.82832
20
-6.88276
11
2.83957
21
-6.88839
0
LINE
8
BLACK
6
CONTINUOUS
10
2.83957
20
-6.88839
11
2.84519
21
-6.89963
0
LINE
8
BLACK
6
CONTINUOUS
10
2.84519
20
-6.89963
11
2.84519
21
-6.9615
0
LINE
8
BLACK
6
CONTINUOUS
10
3.07579
20
-6.83777
11
2.97455
21
-6.98962
0
LINE
8
BLACK
6
CONTINUOUS
10
3.22764
20
-6.84339
11
3.23889
21
-6.84339
0
LINE
8
BLACK
6
CONTINUOUS
10
3.23889
20
-6.84339
11
3.25014
21
-6.84902
0
LINE
8
BLACK
6
CONTINUOUS
10
3.25014
20
-6.84902
11
3.25576
21
-6.85464
0
LINE
8
BLACK
6
CONTINUOUS
10
3.25576
20
-6.85464
11
3.26139
21
-6.86589
0
LINE
8
BLACK
6
CONTINUOUS
10
3.26139
20
-6.86589
11
3.26701
21
-6.88839
0
LINE
8
BLACK
6
CONTINUOUS
10
3.26701
20
-6.88839
11
3.26701
21
-6.91651
0
LINE
8
BLACK
6
CONTINUOUS
10
3.26701
20
-6.91651
11
3.26139
21
-6.939
0
LINE
8
BLACK
6
CONTINUOUS
10
3.26139
20
-6.939
11
3.25576
21
-6.95025
0
LINE
8
BLACK
6
CONTINUOUS
10
3.25576
20
-6.95025
11
3.25014
21
-6.95588
0
LINE
8
BLACK
6
CONTINUOUS
10
3.25014
20
-6.95588
11
3.23889
21
-6.9615
0
LINE
8
BLACK
6
CONTINUOUS
10
3.23889
20
-6.9615
11
3.22764
21
-6.9615
0
LINE
8
BLACK
6
CONTINUOUS
10
3.22764
20
-6.9615
11
3.21639
21
-6.95588
0
LINE
8
BLACK
6
CONTINUOUS
10
3.21639
20
-6.95588
11
3.21077
21
-6.95025
0
LINE
8
BLACK
6
CONTINUOUS
10
3.21077
20
-6.95025
11
3.20515
21
-6.939
0
LINE
8
BLACK
6
CONTINUOUS
10
3.20515
20
-6.939
11
3.19952
21
-6.91651
0
LINE
8
BLACK
6
CONTINUOUS
10
3.19952
20
-6.91651
11
3.19952
21
-6.88839
0
LINE
8
BLACK
6
CONTINUOUS
10
3.19952
20
-6.88839
11
3.20515
21
-6.86589
0
LINE
8
BLACK
6
CONTINUOUS
10
3.20515
20
-6.86589
11
3.21077
21
-6.85464
0
LINE
8
BLACK
6
CONTINUOUS
10
3.21077
20
-6.85464
11
3.21639
21
-6.84902
0
LINE
8
BLACK
6
CONTINUOUS
10
3.21639
20
-6.84902
11
3.22764
21
-6.84339
0
LINE
8
BLACK
6
CONTINUOUS
10
3.31763
20
-6.95025
11
3.32326
21
-6.95588
0
LINE
8
BLACK
6
CONTINUOUS
10
3.32326
20
-6.95588
11
3.31763
21
-6.9615
0
LINE
8
BLACK
6
CONTINUOUS
10
3.31763
20
-6.9615
11
3.31201
21
-6.95588
0
LINE
8
BLACK
6
CONTINUOUS
10
3.31201
20
-6.95588
11
3.31763
21
-6.95025
0
LINE
8
BLACK
6
CONTINUOUS
10
3.31763
20
-6.95025
11
3.31763
21
-6.9615
0
LINE
8
BLACK
6
CONTINUOUS
10
3.43574
20
-6.9615
11
3.36825
21
-6.9615
0
LINE
8
BLACK
6
CONTINUOUS
10
3.402
20
-6.9615
11
3.402
21
-6.84339
0
LINE
8
BLACK
6
CONTINUOUS
10
3.402
20
-6.84339
11
3.39075
21
-6.86026
0
LINE
8
BLACK
6
CONTINUOUS
10
3.39075
20
-6.86026
11
3.3795
21
-6.87151
0
LINE
8
BLACK
6
CONTINUOUS
10
3.3795
20
-6.87151
11
3.36825
21
-6.87714
0
LINE
8
BLACK
6
CONTINUOUS
10
3.48074
20
-6.85464
11
3.48636
21
-6.84902
0
LINE
8
BLACK
6
CONTINUOUS
10
3.48636
20
-6.84902
11
3.49761
21
-6.84339
0
LINE
8
BLACK
6
CONTINUOUS
10
3.49761
20
-6.84339
11
3.52573
21
-6.84339
0
LINE
8
BLACK
6
CONTINUOUS
10
3.52573
20
-6.84339
11
3.53698
21
-6.84902
0
LINE
8
BLACK
6
CONTINUOUS
10
3.53698
20
-6.84902
11
3.5426
21
-6.85464
0
LINE
8
BLACK
6
CONTINUOUS
10
3.5426
20
-6.85464
11
3.54823
21
-6.86589
0
LINE
8
BLACK
6
CONTINUOUS
10
3.54823
20
-6.86589
11
3.54823
21
-6.87714
0
LINE
8
BLACK
6
CONTINUOUS
10
3.54823
20
-6.87714
11
3.5426
21
-6.89401
0
LINE
8
BLACK
6
CONTINUOUS
10
3.5426
20
-6.89401
11
3.47511
21
-6.9615
0
LINE
8
BLACK
6
CONTINUOUS
10
3.47511
20
-6.9615
11
3.54823
21
-6.9615
0
LINE
8
BLACK
6
CONTINUOUS
10
3.64947
20
-6.84339
11
3.62697
21
-6.84339
0
LINE
8
BLACK
6
CONTINUOUS
10
3.62697
20
-6.84339
11
3.61572
21
-6.84902
0
LINE
8
BLACK
6
CONTINUOUS
10
3.61572
20
-6.84902
11
3.6101
21
-6.85464
0
LINE
8
BLACK
6
CONTINUOUS
10
3.6101
20
-6.85464
11
3.59885
21
-6.87151
0
LINE
8
BLACK
6
CONTINUOUS
10
3.59885
20
-6.87151
11
3.59322
21
-6.89401
0
LINE
8
BLACK
6
CONTINUOUS
10
3.59322
20
-6.89401
11
3.59322
21
-6.939
0
LINE
8
BLACK
6
CONTINUOUS
10
3.59322
20
-6.939
11
3.59885
21
-6.95025
0
LINE
8
BLACK
6
CONTINUOUS
10
3.59885
20
-6.95025
11
3.60447
21
-6.95588
0
LINE
8
BLACK
6
CONTINUOUS
10
3.60447
20
-6.95588
11
3.61572
21
-6.9615
0
LINE
8
BLACK
6
CONTINUOUS
10
3.61572
20
-6.9615
11
3.63822
21
-6.9615
0
LINE
8
BLACK
6
CONTINUOUS
10
3.63822
20
-6.9615
11
3.64947
21
-6.95588
0
LINE
8
BLACK
6
CONTINUOUS
10
3.64947
20
-6.95588
11
3.65509
21
-6.95025
0
LINE
8
BLACK
6
CONTINUOUS
10
3.65509
20
-6.95025
11
3.66071
21
-6.939
0
LINE
8
BLACK
6
CONTINUOUS
10
3.66071
20
-6.939
11
3.66071
21
-6.91088
0
LINE
8
BLACK
6
CONTINUOUS
10
3.66071
20
-6.91088
11
3.65509
21
-6.89963
0
LINE
8
BLACK
6
CONTINUOUS
10
3.65509
20
-6.89963
11
3.64947
21
-6.89401
0
LINE
8
BLACK
6
CONTINUOUS
10
3.64947
20
-6.89401
11
3.63822
21
-6.88839
0
LINE
8
BLACK
6
CONTINUOUS
10
3.63822
20
-6.88839
11
3.61572
21
-6.88839
0
LINE
8
BLACK
6
CONTINUOUS
10
3.61572
20
-6.88839
11
3.60447
21
-6.89401
0
LINE
8
BLACK
6
CONTINUOUS
10
3.60447
20
-6.89401
11
3.59885
21
-6.89963
0
LINE
8
BLACK
6
CONTINUOUS
10
3.59885
20
-6.89963
11
3.59322
21
-6.91088
0
LINE
8
BLACK
6
CONTINUOUS
10
3.73383
20
-6.84339
11
3.74508
21
-6.84339
0
LINE
8
BLACK
6
CONTINUOUS
10
3.74508
20
-6.84339
11
3.75633
21
-6.84902
0
LINE
8
BLACK
6
CONTINUOUS
10
3.75633
20
-6.84902
11
3.76195
21
-6.85464
0
LINE
8
BLACK
6
CONTINUOUS
10
3.76195
20
-6.85464
11
3.76758
21
-6.86589
0
LINE
8
BLACK
6
CONTINUOUS
10
3.76758
20
-6.86589
11
3.7732
21
-6.88839
0
LINE
8
BLACK
6
CONTINUOUS
10
3.7732
20
-6.88839
11
3.7732
21
-6.91651
0
LINE
8
BLACK
6
CONTINUOUS
10
3.7732
20
-6.91651
11
3.76758
21
-6.939
0
LINE
8
BLACK
6
CONTINUOUS
10
3.76758
20
-6.939
11
3.76195
21
-6.95025
0
LINE
8
BLACK
6
CONTINUOUS
10
3.76195
20
-6.95025
11
3.75633
21
-6.95588
0
LINE
8
BLACK
6
CONTINUOUS
10
3.75633
20
-6.95588
11
3.74508
21
-6.9615
0
LINE
8
BLACK
6
CONTINUOUS
10
3.74508
20
-6.9615
11
3.73383
21
-6.9615
0
LINE
8
BLACK
6
CONTINUOUS
10
3.73383
20
-6.9615
11
3.72258
21
-6.95588
0
LINE
8
BLACK
6
CONTINUOUS
10
3.72258
20
-6.95588
11
3.71696
21
-6.95025
0
LINE
8
BLACK
6
CONTINUOUS
10
3.71696
20
-6.95025
11
3.71133
21
-6.939
0
LINE
8
BLACK
6
CONTINUOUS
10
3.71133
20
-6.939
11
3.70571
21
-6.91651
0
LINE
8
BLACK
6
CONTINUOUS
10
3.70571
20
-6.91651
11
3.70571
21
-6.88839
0
LINE
8
BLACK
6
CONTINUOUS
10
3.70571
20
-6.88839
11
3.71133
21
-6.86589
0
LINE
8
BLACK
6
CONTINUOUS
10
3.71133
20
-6.86589
11
3.71696
21
-6.85464
0
LINE
8
BLACK
6
CONTINUOUS
10
3.71696
20
-6.85464
11
3.72258
21
-6.84902
0
LINE
8
BLACK
6
CONTINUOUS
10
3.72258
20
-6.84902
11
3.73383
21
-6.84339
0
LINE
8
BLACK
6
CONTINUOUS
10
3.81819
20
-6.84339
11
3.81819
21
-6.86589
0
LINE
8
BLACK
6
CONTINUOUS
10
3.86319
20
-6.84339
11
3.86319
21
-6.86589
0
LINE
8
BLACK
6
CONTINUOUS
10
4.03754
20
-7.0065
11
4.03192
21
-7.00087
0
LINE
8
BLACK
6
CONTINUOUS
10
4.03192
20
-7.00087
11
4.02067
21
-6.984
0
LINE
8
BLACK
6
CONTINUOUS
10
4.02067
20
-6.984
11
4.01504
21
-6.97275
0
LINE
8
BLACK
6
CONTINUOUS
10
4.01504
20
-6.97275
11
4.00942
21
-6.95588
0
LINE
8
BLACK
6
CONTINUOUS
10
4.00942
20
-6.95588
11
4.0038
21
-6.92776
0
LINE
8
BLACK
6
CONTINUOUS
10
4.0038
20
-6.92776
11
4.0038
21
-6.90526
0
LINE
8
BLACK
6
CONTINUOUS
10
4.0038
20
-6.90526
11
4.00942
21
-6.87714
0
LINE
8
BLACK
6
CONTINUOUS
10
4.00942
20
-6.87714
11
4.01504
21
-6.86026
0
LINE
8
BLACK
6
CONTINUOUS
10
4.01504
20
-6.86026
11
4.02067
21
-6.84902
0
LINE
8
BLACK
6
CONTINUOUS
10
4.02067
20
-6.84902
11
4.03192
21
-6.83214
0
LINE
8
BLACK
6
CONTINUOUS
10
4.03192
20
-6.83214
11
4.03754
21
-6.82652
0
LINE
8
BLACK
6
CONTINUOUS
10
4.13316
20
-6.88276
11
4.13316
21
-6.9615
0
LINE
8
BLACK
6
CONTINUOUS
10
4.10503
20
-6.83777
11
4.07691
21
-6.92213
0
LINE
8
BLACK
6
CONTINUOUS
10
4.07691
20
-6.92213
11
4.15003
21
-6.92213
0
LINE
8
BLACK
6
CONTINUOUS
10
4.28501
20
-6.9615
11
4.28501
21
-6.84339
0
LINE
8
BLACK
6
CONTINUOUS
10
4.33563
20
-6.9615
11
4.33563
21
-6.89963
0
LINE
8
BLACK
6
CONTINUOUS
10
4.33563
20
-6.89963
11
4.33001
21
-6.88839
0
LINE
8
BLACK
6
CONTINUOUS
10
4.33001
20
-6.88839
11
4.31876
21
-6.88276
0
LINE
8
BLACK
6
CONTINUOUS
10
4.31876
20
-6.88276
11
4.30188
21
-6.88276
0
LINE
8
BLACK
6
CONTINUOUS
10
4.30188
20
-6.88276
11
4.29064
21
-6.88839
0
LINE
8
BLACK
6
CONTINUOUS
10
4.29064
20
-6.88839
11
4.28501
21
-6.89401
0
LINE
8
BLACK
6
CONTINUOUS
10
4.40875
20
-6.9615
11
4.3975
21
-6.95588
0
LINE
8
BLACK
6
CONTINUOUS
10
4.3975
20
-6.95588
11
4.39187
21
-6.95025
0
LINE
8
BLACK
6
CONTINUOUS
10
4.39187
20
-6.95025
11
4.38625
21
-6.939
0
LINE
8
BLACK
6
CONTINUOUS
10
4.38625
20
-6.939
11
4.38625
21
-6.90526
0
LINE
8
BLACK
6
CONTINUOUS
10
4.38625
20
-6.90526
11
4.39187
21
-6.89401
0
LINE
8
BLACK
6
CONTINUOUS
10
4.39187
20
-6.89401
11
4.3975
21
-6.88839
0
LINE
8
BLACK
6
CONTINUOUS
10
4.3975
20
-6.88839
11
4.40875
21
-6.88276
0
LINE
8
BLACK
6
CONTINUOUS
10
4.40875
20
-6.88276
11
4.42562
21
-6.88276
0
LINE
8
BLACK
6
CONTINUOUS
10
4.42562
20
-6.88276
11
4.43687
21
-6.88839
0
LINE
8
BLACK
6
CONTINUOUS
10
4.43687
20
-6.88839
11
4.44249
21
-6.89401
0
LINE
8
BLACK
6
CONTINUOUS
10
4.44249
20
-6.89401
11
4.44812
21
-6.90526
0
LINE
8
BLACK
6
CONTINUOUS
10
4.44812
20
-6.90526
11
4.44812
21
-6.939
0
LINE
8
BLACK
6
CONTINUOUS
10
4.44812
20
-6.939
11
4.44249
21
-6.95025
0
LINE
8
BLACK
6
CONTINUOUS
10
4.44249
20
-6.95025
11
4.43687
21
-6.95588
0
LINE
8
BLACK
6
CONTINUOUS
10
4.43687
20
-6.95588
11
4.42562
21
-6.9615
0
LINE
8
BLACK
6
CONTINUOUS
10
4.42562
20
-6.9615
11
4.40875
21
-6.9615
0
LINE
8
BLACK
6
CONTINUOUS
10
4.51561
20
-6.9615
11
4.50436
21
-6.95588
0
LINE
8
BLACK
6
CONTINUOUS
10
4.50436
20
-6.95588
11
4.49873
21
-6.94463
0
LINE
8
BLACK
6
CONTINUOUS
10
4.49873
20
-6.94463
11
4.49873
21
-6.84339
0
LINE
8
BLACK
6
CONTINUOUS
10
4.6056
20
-6.95588
11
4.59435
21
-6.9615
0
LINE
8
BLACK
6
CONTINUOUS
10
4.59435
20
-6.9615
11
4.57185
21
-6.9615
0
LINE
8
BLACK
6
CONTINUOUS
10
4.57185
20
-6.9615
11
4.5606
21
-6.95588
0
LINE
8
BLACK
6
CONTINUOUS
10
4.5606
20
-6.95588
11
4.55498
21
-6.94463
0
LINE
8
BLACK
6
CONTINUOUS
10
4.55498
20
-6.94463
11
4.55498
21
-6.89963
0
LINE
8
BLACK
6
CONTINUOUS
10
4.55498
20
-6.89963
11
4.5606
21
-6.88839
0
LINE
8
BLACK
6
CONTINUOUS
10
4.5606
20
-6.88839
11
4.57185
21
-6.88276
0
LINE
8
BLACK
6
CONTINUOUS
10
4.57185
20
-6.88276
11
4.59435
21
-6.88276
0
LINE
8
BLACK
6
CONTINUOUS
10
4.59435
20
-6.88276
11
4.6056
21
-6.88839
0
LINE
8
BLACK
6
CONTINUOUS
10
4.6056
20
-6.88839
11
4.61122
21
-6.89963
0
LINE
8
BLACK
6
CONTINUOUS
10
4.61122
20
-6.89963
11
4.61122
21
-6.91088
0
LINE
8
BLACK
6
CONTINUOUS
10
4.61122
20
-6.91088
11
4.55498
21
-6.92213
0
LINE
8
BLACK
6
CONTINUOUS
10
4.65621
20
-6.95588
11
4.66746
21
-6.9615
0
LINE
8
BLACK
6
CONTINUOUS
10
4.66746
20
-6.9615
11
4.68996
21
-6.9615
0
LINE
8
BLACK
6
CONTINUOUS
10
4.68996
20
-6.9615
11
4.70121
21
-6.95588
0
LINE
8
BLACK
6
CONTINUOUS
10
4.70121
20
-6.95588
11
4.70683
21
-6.94463
0
LINE
8
BLACK
6
CONTINUOUS
10
4.70683
20
-6.94463
11
4.70683
21
-6.939
0
LINE
8
BLACK
6
CONTINUOUS
10
4.70683
20
-6.939
11
4.70121
21
-6.92776
0
LINE
8
BLACK
6
CONTINUOUS
10
4.70121
20
-6.92776
11
4.68996
21
-6.92213
0
LINE
8
BLACK
6
CONTINUOUS
10
4.68996
20
-6.92213
11
4.67309
21
-6.92213
0
LINE
8
BLACK
6
CONTINUOUS
10
4.67309
20
-6.92213
11
4.66184
21
-6.91651
0
LINE
8
BLACK
6
CONTINUOUS
10
4.66184
20
-6.91651
11
4.65621
21
-6.90526
0
LINE
8
BLACK
6
CONTINUOUS
10
4.65621
20
-6.90526
11
4.65621
21
-6.89963
0
LINE
8
BLACK
6
CONTINUOUS
10
4.65621
20
-6.89963
11
4.66184
21
-6.88839
0
LINE
8
BLACK
6
CONTINUOUS
10
4.66184
20
-6.88839
11
4.67309
21
-6.88276
0
LINE
8
BLACK
6
CONTINUOUS
10
4.67309
20
-6.88276
11
4.68996
21
-6.88276
0
LINE
8
BLACK
6
CONTINUOUS
10
4.68996
20
-6.88276
11
4.70121
21
-6.88839
0
LINE
8
BLACK
6
CONTINUOUS
10
4.7462
20
-7.0065
11
4.75183
21
-7.00087
0
LINE
8
BLACK
6
CONTINUOUS
10
4.75183
20
-7.00087
11
4.76308
21
-6.984
0
LINE
8
BLACK
6
CONTINUOUS
10
4.76308
20
-6.984
11
4.7687
21
-6.97275
0
LINE
8
BLACK
6
CONTINUOUS
10
4.7687
20
-6.97275
11
4.77433
21
-6.95588
0
LINE
8
BLACK
6
CONTINUOUS
10
4.77433
20
-6.95588
11
4.77995
21
-6.92776
0
LINE
8
BLACK
6
CONTINUOUS
10
4.77995
20
-6.92776
11
4.77995
21
-6.90526
0
LINE
8
BLACK
6
CONTINUOUS
10
4.77995
20
-6.90526
11
4.77433
21
-6.87714
0
LINE
8
BLACK
6
CONTINUOUS
10
4.77433
20
-6.87714
11
4.7687
21
-6.86026
0
LINE
8
BLACK
6
CONTINUOUS
10
4.7687
20
-6.86026
11
4.76308
21
-6.84902
0
LINE
8
BLACK
6
CONTINUOUS
10
4.76308
20
-6.84902
11
4.75183
21
-6.83214
0
LINE
8
BLACK
6
CONTINUOUS
10
4.75183
20
-6.83214
11
4.7462
21
-6.82652
  0
ENDSEC
  0
EOF
