%TF.GenerationSoftware,KiCad,Pcbnew,(5.1.10-1-10_14)*%
%TF.CreationDate,2021-06-26T21:10:23+10:00*%
%TF.ProjectId,Octal display,4f637461-6c20-4646-9973-706c61792e6b,rev?*%
%TF.SameCoordinates,Original*%
%TF.FileFunction,Legend,Top*%
%TF.FilePolarity,Positive*%
%FSLAX46Y46*%
G04 Gerber Fmt 4.6, Leading zero omitted, Abs format (unit mm)*
G04 Created by KiCad (PCBNEW (5.1.10-1-10_14)) date 2021-06-26 21:10:23*
%MOMM*%
%LPD*%
G01*
G04 APERTURE LIST*
%ADD10C,0.150000*%
%ADD11C,0.300000*%
%ADD12C,0.120000*%
%ADD13C,0.240000*%
G04 APERTURE END LIST*
D10*
X61642857Y-148452380D02*
X61642857Y-147452380D01*
X61880952Y-147452380D01*
X62023809Y-147500000D01*
X62119047Y-147595238D01*
X62166666Y-147690476D01*
X62214285Y-147880952D01*
X62214285Y-148023809D01*
X62166666Y-148214285D01*
X62119047Y-148309523D01*
X62023809Y-148404761D01*
X61880952Y-148452380D01*
X61642857Y-148452380D01*
X62642857Y-148452380D02*
X62642857Y-147452380D01*
X63071428Y-148404761D02*
X63214285Y-148452380D01*
X63452380Y-148452380D01*
X63547619Y-148404761D01*
X63595238Y-148357142D01*
X63642857Y-148261904D01*
X63642857Y-148166666D01*
X63595238Y-148071428D01*
X63547619Y-148023809D01*
X63452380Y-147976190D01*
X63261904Y-147928571D01*
X63166666Y-147880952D01*
X63119047Y-147833333D01*
X63071428Y-147738095D01*
X63071428Y-147642857D01*
X63119047Y-147547619D01*
X63166666Y-147500000D01*
X63261904Y-147452380D01*
X63500000Y-147452380D01*
X63642857Y-147500000D01*
X64071428Y-148452380D02*
X64071428Y-147452380D01*
X64452380Y-147452380D01*
X64547619Y-147500000D01*
X64595238Y-147547619D01*
X64642857Y-147642857D01*
X64642857Y-147785714D01*
X64595238Y-147880952D01*
X64547619Y-147928571D01*
X64452380Y-147976190D01*
X64071428Y-147976190D01*
X65547619Y-148452380D02*
X65071428Y-148452380D01*
X65071428Y-147452380D01*
X65833333Y-148166666D02*
X66309523Y-148166666D01*
X65738095Y-148452380D02*
X66071428Y-147452380D01*
X66404761Y-148452380D01*
X66928571Y-147976190D02*
X66928571Y-148452380D01*
X66595238Y-147452380D02*
X66928571Y-147976190D01*
X67261904Y-147452380D01*
X68214285Y-147452380D02*
X68785714Y-147452380D01*
X68500000Y-148452380D02*
X68500000Y-147452380D01*
X69119047Y-148452380D02*
X69119047Y-147452380D01*
X69595238Y-148452380D02*
X69595238Y-147452380D01*
X69928571Y-148166666D01*
X70261904Y-147452380D01*
X70261904Y-148452380D01*
X70738095Y-148452380D02*
X70738095Y-147452380D01*
X71214285Y-148452380D02*
X71214285Y-147452380D01*
X71785714Y-148452380D01*
X71785714Y-147452380D01*
X72785714Y-147500000D02*
X72690476Y-147452380D01*
X72547619Y-147452380D01*
X72404761Y-147500000D01*
X72309523Y-147595238D01*
X72261904Y-147690476D01*
X72214285Y-147880952D01*
X72214285Y-148023809D01*
X72261904Y-148214285D01*
X72309523Y-148309523D01*
X72404761Y-148404761D01*
X72547619Y-148452380D01*
X72642857Y-148452380D01*
X72785714Y-148404761D01*
X72833333Y-148357142D01*
X72833333Y-148023809D01*
X72642857Y-148023809D01*
X74023809Y-148452380D02*
X74023809Y-147452380D01*
X74404761Y-147452380D01*
X74500000Y-147500000D01*
X74547619Y-147547619D01*
X74595238Y-147642857D01*
X74595238Y-147785714D01*
X74547619Y-147880952D01*
X74500000Y-147928571D01*
X74404761Y-147976190D01*
X74023809Y-147976190D01*
X75214285Y-147452380D02*
X75404761Y-147452380D01*
X75500000Y-147500000D01*
X75595238Y-147595238D01*
X75642857Y-147785714D01*
X75642857Y-148119047D01*
X75595238Y-148309523D01*
X75500000Y-148404761D01*
X75404761Y-148452380D01*
X75214285Y-148452380D01*
X75119047Y-148404761D01*
X75023809Y-148309523D01*
X74976190Y-148119047D01*
X74976190Y-147785714D01*
X75023809Y-147595238D01*
X75119047Y-147500000D01*
X75214285Y-147452380D01*
X75928571Y-147452380D02*
X76500000Y-147452380D01*
X76214285Y-148452380D02*
X76214285Y-147452380D01*
X151083333Y-62130952D02*
X151559523Y-62130952D01*
X151797619Y-62250000D01*
X152035714Y-62488095D01*
X152154761Y-62964285D01*
X152154761Y-63797619D01*
X152035714Y-64273809D01*
X151797619Y-64511904D01*
X151559523Y-64630952D01*
X151083333Y-64630952D01*
X150845238Y-64511904D01*
X150607142Y-64273809D01*
X150488095Y-63797619D01*
X150488095Y-62964285D01*
X150607142Y-62488095D01*
X150845238Y-62250000D01*
X151083333Y-62130952D01*
X154654761Y-64392857D02*
X154535714Y-64511904D01*
X154178571Y-64630952D01*
X153940476Y-64630952D01*
X153583333Y-64511904D01*
X153345238Y-64273809D01*
X153226190Y-64035714D01*
X153107142Y-63559523D01*
X153107142Y-63202380D01*
X153226190Y-62726190D01*
X153345238Y-62488095D01*
X153583333Y-62250000D01*
X153940476Y-62130952D01*
X154178571Y-62130952D01*
X154535714Y-62250000D01*
X154654761Y-62369047D01*
X155369047Y-62130952D02*
X156797619Y-62130952D01*
X156083333Y-64630952D02*
X156083333Y-62130952D01*
X157511904Y-63916666D02*
X158702380Y-63916666D01*
X157273809Y-64630952D02*
X158107142Y-62130952D01*
X158940476Y-64630952D01*
X160964285Y-64630952D02*
X159773809Y-64630952D01*
X159773809Y-62130952D01*
X163702380Y-64630952D02*
X163702380Y-62130952D01*
X164297619Y-62130952D01*
X164654761Y-62250000D01*
X164892857Y-62488095D01*
X165011904Y-62726190D01*
X165130952Y-63202380D01*
X165130952Y-63559523D01*
X165011904Y-64035714D01*
X164892857Y-64273809D01*
X164654761Y-64511904D01*
X164297619Y-64630952D01*
X163702380Y-64630952D01*
X166202380Y-64630952D02*
X166202380Y-62130952D01*
X167273809Y-64511904D02*
X167630952Y-64630952D01*
X168226190Y-64630952D01*
X168464285Y-64511904D01*
X168583333Y-64392857D01*
X168702380Y-64154761D01*
X168702380Y-63916666D01*
X168583333Y-63678571D01*
X168464285Y-63559523D01*
X168226190Y-63440476D01*
X167750000Y-63321428D01*
X167511904Y-63202380D01*
X167392857Y-63083333D01*
X167273809Y-62845238D01*
X167273809Y-62607142D01*
X167392857Y-62369047D01*
X167511904Y-62250000D01*
X167750000Y-62130952D01*
X168345238Y-62130952D01*
X168702380Y-62250000D01*
X169773809Y-64630952D02*
X169773809Y-62130952D01*
X170726190Y-62130952D01*
X170964285Y-62250000D01*
X171083333Y-62369047D01*
X171202380Y-62607142D01*
X171202380Y-62964285D01*
X171083333Y-63202380D01*
X170964285Y-63321428D01*
X170726190Y-63440476D01*
X169773809Y-63440476D01*
X173464285Y-64630952D02*
X172273809Y-64630952D01*
X172273809Y-62130952D01*
X174178571Y-63916666D02*
X175369047Y-63916666D01*
X173940476Y-64630952D02*
X174773809Y-62130952D01*
X175607142Y-64630952D01*
X176916666Y-63440476D02*
X176916666Y-64630952D01*
X176083333Y-62130952D02*
X176916666Y-63440476D01*
X177750000Y-62130952D01*
X168666666Y-143014285D02*
X168666666Y-142538095D01*
X168952380Y-143109523D02*
X167952380Y-142776190D01*
X168952380Y-142442857D01*
X168047619Y-142157142D02*
X168000000Y-142109523D01*
X167952380Y-142014285D01*
X167952380Y-141776190D01*
X168000000Y-141680952D01*
X168047619Y-141633333D01*
X168142857Y-141585714D01*
X168238095Y-141585714D01*
X168380952Y-141633333D01*
X168952380Y-142204761D01*
X168952380Y-141585714D01*
X168428571Y-140823809D02*
X168476190Y-140680952D01*
X168523809Y-140633333D01*
X168619047Y-140585714D01*
X168761904Y-140585714D01*
X168857142Y-140633333D01*
X168904761Y-140680952D01*
X168952380Y-140776190D01*
X168952380Y-141157142D01*
X167952380Y-141157142D01*
X167952380Y-140823809D01*
X168000000Y-140728571D01*
X168047619Y-140680952D01*
X168142857Y-140633333D01*
X168238095Y-140633333D01*
X168333333Y-140680952D01*
X168380952Y-140728571D01*
X168428571Y-140823809D01*
X168428571Y-141157142D01*
X166447619Y-141776190D02*
X166447619Y-141966666D01*
X166400000Y-142061904D01*
X166304761Y-142157142D01*
X166114285Y-142204761D01*
X165780952Y-142204761D01*
X165590476Y-142157142D01*
X165495238Y-142061904D01*
X165447619Y-141966666D01*
X165447619Y-141776190D01*
X165495238Y-141680952D01*
X165590476Y-141585714D01*
X165780952Y-141538095D01*
X166114285Y-141538095D01*
X166304761Y-141585714D01*
X166400000Y-141680952D01*
X166447619Y-141776190D01*
X165971428Y-142966666D02*
X165971428Y-142633333D01*
X165447619Y-142633333D02*
X166447619Y-142633333D01*
X166447619Y-143109523D01*
X163847619Y-141704761D02*
X163847619Y-141895238D01*
X163800000Y-141990476D01*
X163704761Y-142085714D01*
X163514285Y-142133333D01*
X163180952Y-142133333D01*
X162990476Y-142085714D01*
X162895238Y-141990476D01*
X162847619Y-141895238D01*
X162847619Y-141704761D01*
X162895238Y-141609523D01*
X162990476Y-141514285D01*
X163180952Y-141466666D01*
X163514285Y-141466666D01*
X163704761Y-141514285D01*
X163800000Y-141609523D01*
X163847619Y-141704761D01*
X163800000Y-143085714D02*
X163847619Y-142990476D01*
X163847619Y-142847619D01*
X163800000Y-142704761D01*
X163704761Y-142609523D01*
X163609523Y-142561904D01*
X163419047Y-142514285D01*
X163276190Y-142514285D01*
X163085714Y-142561904D01*
X162990476Y-142609523D01*
X162895238Y-142704761D01*
X162847619Y-142847619D01*
X162847619Y-142942857D01*
X162895238Y-143085714D01*
X162942857Y-143133333D01*
X163276190Y-143133333D01*
X163276190Y-142942857D01*
X161447619Y-141680952D02*
X161447619Y-141871428D01*
X161400000Y-141966666D01*
X161304761Y-142061904D01*
X161114285Y-142109523D01*
X160780952Y-142109523D01*
X160590476Y-142061904D01*
X160495238Y-141966666D01*
X160447619Y-141871428D01*
X160447619Y-141680952D01*
X160495238Y-141585714D01*
X160590476Y-141490476D01*
X160780952Y-141442857D01*
X161114285Y-141442857D01*
X161304761Y-141490476D01*
X161400000Y-141585714D01*
X161447619Y-141680952D01*
X160447619Y-142538095D02*
X161447619Y-142538095D01*
X160971428Y-142538095D02*
X160971428Y-143109523D01*
X160447619Y-143109523D02*
X161447619Y-143109523D01*
X56985714Y-117866666D02*
X57461904Y-117866666D01*
X56890476Y-118152380D02*
X57223809Y-117152380D01*
X57557142Y-118152380D01*
X58080952Y-117152380D02*
X58176190Y-117152380D01*
X58271428Y-117200000D01*
X58319047Y-117247619D01*
X58366666Y-117342857D01*
X58414285Y-117533333D01*
X58414285Y-117771428D01*
X58366666Y-117961904D01*
X58319047Y-118057142D01*
X58271428Y-118104761D01*
X58176190Y-118152380D01*
X58080952Y-118152380D01*
X57985714Y-118104761D01*
X57938095Y-118057142D01*
X57890476Y-117961904D01*
X57842857Y-117771428D01*
X57842857Y-117533333D01*
X57890476Y-117342857D01*
X57938095Y-117247619D01*
X57985714Y-117200000D01*
X58080952Y-117152380D01*
X59414285Y-118057142D02*
X59366666Y-118104761D01*
X59223809Y-118152380D01*
X59128571Y-118152380D01*
X58985714Y-118104761D01*
X58890476Y-118009523D01*
X58842857Y-117914285D01*
X58795238Y-117723809D01*
X58795238Y-117580952D01*
X58842857Y-117390476D01*
X58890476Y-117295238D01*
X58985714Y-117200000D01*
X59128571Y-117152380D01*
X59223809Y-117152380D01*
X59366666Y-117200000D01*
X59414285Y-117247619D01*
X56761904Y-114385000D02*
X57761904Y-114385000D01*
X57571428Y-115752380D02*
X57238095Y-115276190D01*
X57000000Y-115752380D02*
X57000000Y-114752380D01*
X57380952Y-114752380D01*
X57476190Y-114800000D01*
X57523809Y-114847619D01*
X57571428Y-114942857D01*
X57571428Y-115085714D01*
X57523809Y-115180952D01*
X57476190Y-115228571D01*
X57380952Y-115276190D01*
X57000000Y-115276190D01*
X57761904Y-114385000D02*
X58761904Y-114385000D01*
X58333333Y-115228571D02*
X58476190Y-115276190D01*
X58523809Y-115323809D01*
X58571428Y-115419047D01*
X58571428Y-115561904D01*
X58523809Y-115657142D01*
X58476190Y-115704761D01*
X58380952Y-115752380D01*
X58000000Y-115752380D01*
X58000000Y-114752380D01*
X58333333Y-114752380D01*
X58428571Y-114800000D01*
X58476190Y-114847619D01*
X58523809Y-114942857D01*
X58523809Y-115038095D01*
X58476190Y-115133333D01*
X58428571Y-115180952D01*
X58333333Y-115228571D01*
X58000000Y-115228571D01*
X58761904Y-114385000D02*
X59238095Y-114385000D01*
X59000000Y-115752380D02*
X59000000Y-114752380D01*
X56985714Y-112966666D02*
X57461904Y-112966666D01*
X56890476Y-113252380D02*
X57223809Y-112252380D01*
X57557142Y-113252380D01*
X57842857Y-112347619D02*
X57890476Y-112300000D01*
X57985714Y-112252380D01*
X58223809Y-112252380D01*
X58319047Y-112300000D01*
X58366666Y-112347619D01*
X58414285Y-112442857D01*
X58414285Y-112538095D01*
X58366666Y-112680952D01*
X57795238Y-113252380D01*
X58414285Y-113252380D01*
X59414285Y-113157142D02*
X59366666Y-113204761D01*
X59223809Y-113252380D01*
X59128571Y-113252380D01*
X58985714Y-113204761D01*
X58890476Y-113109523D01*
X58842857Y-113014285D01*
X58795238Y-112823809D01*
X58795238Y-112680952D01*
X58842857Y-112490476D01*
X58890476Y-112395238D01*
X58985714Y-112300000D01*
X59128571Y-112252380D01*
X59223809Y-112252380D01*
X59366666Y-112300000D01*
X59414285Y-112347619D01*
X56985714Y-110366666D02*
X57461904Y-110366666D01*
X56890476Y-110652380D02*
X57223809Y-109652380D01*
X57557142Y-110652380D01*
X58414285Y-110652380D02*
X57842857Y-110652380D01*
X58128571Y-110652380D02*
X58128571Y-109652380D01*
X58033333Y-109795238D01*
X57938095Y-109890476D01*
X57842857Y-109938095D01*
X59414285Y-110557142D02*
X59366666Y-110604761D01*
X59223809Y-110652380D01*
X59128571Y-110652380D01*
X58985714Y-110604761D01*
X58890476Y-110509523D01*
X58842857Y-110414285D01*
X58795238Y-110223809D01*
X58795238Y-110080952D01*
X58842857Y-109890476D01*
X58890476Y-109795238D01*
X58985714Y-109700000D01*
X59128571Y-109652380D01*
X59223809Y-109652380D01*
X59366666Y-109700000D01*
X59414285Y-109747619D01*
X56614285Y-107571428D02*
X57376190Y-107571428D01*
X56995238Y-107952380D02*
X56995238Y-107190476D01*
X58328571Y-106952380D02*
X57852380Y-106952380D01*
X57804761Y-107428571D01*
X57852380Y-107380952D01*
X57947619Y-107333333D01*
X58185714Y-107333333D01*
X58280952Y-107380952D01*
X58328571Y-107428571D01*
X58376190Y-107523809D01*
X58376190Y-107761904D01*
X58328571Y-107857142D01*
X58280952Y-107904761D01*
X58185714Y-107952380D01*
X57947619Y-107952380D01*
X57852380Y-107904761D01*
X57804761Y-107857142D01*
X58661904Y-106952380D02*
X58995238Y-107952380D01*
X59328571Y-106952380D01*
X56614285Y-105071428D02*
X57376190Y-105071428D01*
X56995238Y-105452380D02*
X56995238Y-104690476D01*
X58328571Y-104452380D02*
X57852380Y-104452380D01*
X57804761Y-104928571D01*
X57852380Y-104880952D01*
X57947619Y-104833333D01*
X58185714Y-104833333D01*
X58280952Y-104880952D01*
X58328571Y-104928571D01*
X58376190Y-105023809D01*
X58376190Y-105261904D01*
X58328571Y-105357142D01*
X58280952Y-105404761D01*
X58185714Y-105452380D01*
X57947619Y-105452380D01*
X57852380Y-105404761D01*
X57804761Y-105357142D01*
X58661904Y-104452380D02*
X58995238Y-105452380D01*
X59328571Y-104452380D01*
X57338095Y-101900000D02*
X57242857Y-101852380D01*
X57100000Y-101852380D01*
X56957142Y-101900000D01*
X56861904Y-101995238D01*
X56814285Y-102090476D01*
X56766666Y-102280952D01*
X56766666Y-102423809D01*
X56814285Y-102614285D01*
X56861904Y-102709523D01*
X56957142Y-102804761D01*
X57100000Y-102852380D01*
X57195238Y-102852380D01*
X57338095Y-102804761D01*
X57385714Y-102757142D01*
X57385714Y-102423809D01*
X57195238Y-102423809D01*
X57814285Y-102852380D02*
X57814285Y-101852380D01*
X58385714Y-102852380D01*
X58385714Y-101852380D01*
X58861904Y-102852380D02*
X58861904Y-101852380D01*
X59100000Y-101852380D01*
X59242857Y-101900000D01*
X59338095Y-101995238D01*
X59385714Y-102090476D01*
X59433333Y-102280952D01*
X59433333Y-102423809D01*
X59385714Y-102614285D01*
X59338095Y-102709523D01*
X59242857Y-102804761D01*
X59100000Y-102852380D01*
X58861904Y-102852380D01*
X57338095Y-99600000D02*
X57242857Y-99552380D01*
X57100000Y-99552380D01*
X56957142Y-99600000D01*
X56861904Y-99695238D01*
X56814285Y-99790476D01*
X56766666Y-99980952D01*
X56766666Y-100123809D01*
X56814285Y-100314285D01*
X56861904Y-100409523D01*
X56957142Y-100504761D01*
X57100000Y-100552380D01*
X57195238Y-100552380D01*
X57338095Y-100504761D01*
X57385714Y-100457142D01*
X57385714Y-100123809D01*
X57195238Y-100123809D01*
X57814285Y-100552380D02*
X57814285Y-99552380D01*
X58385714Y-100552380D01*
X58385714Y-99552380D01*
X58861904Y-100552380D02*
X58861904Y-99552380D01*
X59100000Y-99552380D01*
X59242857Y-99600000D01*
X59338095Y-99695238D01*
X59385714Y-99790476D01*
X59433333Y-99980952D01*
X59433333Y-100123809D01*
X59385714Y-100314285D01*
X59338095Y-100409523D01*
X59242857Y-100504761D01*
X59100000Y-100552380D01*
X58861904Y-100552380D01*
D11*
X158774613Y-57537142D02*
X160467946Y-57537142D01*
X160861041Y-60198095D02*
X158441994Y-60198095D01*
X159076994Y-55118095D01*
X161496041Y-55118095D01*
X164126755Y-57295238D02*
X163673184Y-57053333D01*
X163461517Y-56811428D01*
X163280089Y-56327619D01*
X163310327Y-56085714D01*
X163612708Y-55601904D01*
X163884851Y-55360000D01*
X164398898Y-55118095D01*
X165366517Y-55118095D01*
X165820089Y-55360000D01*
X166031755Y-55601904D01*
X166213184Y-56085714D01*
X166182946Y-56327619D01*
X165880565Y-56811428D01*
X165608422Y-57053333D01*
X165094375Y-57295238D01*
X164126755Y-57295238D01*
X163612708Y-57537142D01*
X163340565Y-57779047D01*
X163038184Y-58262857D01*
X162917232Y-59230476D01*
X163098660Y-59714285D01*
X163310327Y-59956190D01*
X163763898Y-60198095D01*
X164731517Y-60198095D01*
X165245565Y-59956190D01*
X165517708Y-59714285D01*
X165820089Y-59230476D01*
X165941041Y-58262857D01*
X165759613Y-57779047D01*
X165547946Y-57537142D01*
X165094375Y-57295238D01*
X172170089Y-54876190D02*
X166999375Y-61407619D01*
X172986517Y-59956190D02*
X173681994Y-60198095D01*
X174891517Y-60198095D01*
X175405565Y-59956190D01*
X175677708Y-59714285D01*
X175980089Y-59230476D01*
X176040565Y-58746666D01*
X175859136Y-58262857D01*
X175647470Y-58020952D01*
X175193898Y-57779047D01*
X174256517Y-57537142D01*
X173802946Y-57295238D01*
X173591279Y-57053333D01*
X173409851Y-56569523D01*
X173470327Y-56085714D01*
X173772708Y-55601904D01*
X174044851Y-55360000D01*
X174558898Y-55118095D01*
X175768422Y-55118095D01*
X176463898Y-55360000D01*
D12*
%TO.C,C2*%
X114380000Y-132370000D02*
X114380000Y-127130000D01*
X117120000Y-132370000D02*
X117120000Y-127130000D01*
X114380000Y-132370000D02*
X114695000Y-132370000D01*
X116805000Y-132370000D02*
X117120000Y-132370000D01*
X114380000Y-127130000D02*
X114695000Y-127130000D01*
X116805000Y-127130000D02*
X117120000Y-127130000D01*
%TO.C,C3*%
X62870000Y-134250000D02*
G75*
G03*
X62870000Y-134250000I-2620000J0D01*
G01*
X57670000Y-134250000D02*
X62830000Y-134250000D01*
X57670000Y-134210000D02*
X62830000Y-134210000D01*
X57671000Y-134170000D02*
X62829000Y-134170000D01*
X57672000Y-134130000D02*
X62828000Y-134130000D01*
X57674000Y-134090000D02*
X62826000Y-134090000D01*
X57677000Y-134050000D02*
X62823000Y-134050000D01*
X57681000Y-134010000D02*
X59210000Y-134010000D01*
X61290000Y-134010000D02*
X62819000Y-134010000D01*
X57685000Y-133970000D02*
X59210000Y-133970000D01*
X61290000Y-133970000D02*
X62815000Y-133970000D01*
X57689000Y-133930000D02*
X59210000Y-133930000D01*
X61290000Y-133930000D02*
X62811000Y-133930000D01*
X57694000Y-133890000D02*
X59210000Y-133890000D01*
X61290000Y-133890000D02*
X62806000Y-133890000D01*
X57700000Y-133850000D02*
X59210000Y-133850000D01*
X61290000Y-133850000D02*
X62800000Y-133850000D01*
X57707000Y-133810000D02*
X59210000Y-133810000D01*
X61290000Y-133810000D02*
X62793000Y-133810000D01*
X57714000Y-133770000D02*
X59210000Y-133770000D01*
X61290000Y-133770000D02*
X62786000Y-133770000D01*
X57722000Y-133730000D02*
X59210000Y-133730000D01*
X61290000Y-133730000D02*
X62778000Y-133730000D01*
X57730000Y-133690000D02*
X59210000Y-133690000D01*
X61290000Y-133690000D02*
X62770000Y-133690000D01*
X57739000Y-133650000D02*
X59210000Y-133650000D01*
X61290000Y-133650000D02*
X62761000Y-133650000D01*
X57749000Y-133610000D02*
X59210000Y-133610000D01*
X61290000Y-133610000D02*
X62751000Y-133610000D01*
X57759000Y-133570000D02*
X59210000Y-133570000D01*
X61290000Y-133570000D02*
X62741000Y-133570000D01*
X57770000Y-133529000D02*
X59210000Y-133529000D01*
X61290000Y-133529000D02*
X62730000Y-133529000D01*
X57782000Y-133489000D02*
X59210000Y-133489000D01*
X61290000Y-133489000D02*
X62718000Y-133489000D01*
X57795000Y-133449000D02*
X59210000Y-133449000D01*
X61290000Y-133449000D02*
X62705000Y-133449000D01*
X57808000Y-133409000D02*
X59210000Y-133409000D01*
X61290000Y-133409000D02*
X62692000Y-133409000D01*
X57822000Y-133369000D02*
X59210000Y-133369000D01*
X61290000Y-133369000D02*
X62678000Y-133369000D01*
X57836000Y-133329000D02*
X59210000Y-133329000D01*
X61290000Y-133329000D02*
X62664000Y-133329000D01*
X57852000Y-133289000D02*
X59210000Y-133289000D01*
X61290000Y-133289000D02*
X62648000Y-133289000D01*
X57868000Y-133249000D02*
X59210000Y-133249000D01*
X61290000Y-133249000D02*
X62632000Y-133249000D01*
X57885000Y-133209000D02*
X59210000Y-133209000D01*
X61290000Y-133209000D02*
X62615000Y-133209000D01*
X57902000Y-133169000D02*
X59210000Y-133169000D01*
X61290000Y-133169000D02*
X62598000Y-133169000D01*
X57921000Y-133129000D02*
X59210000Y-133129000D01*
X61290000Y-133129000D02*
X62579000Y-133129000D01*
X57940000Y-133089000D02*
X59210000Y-133089000D01*
X61290000Y-133089000D02*
X62560000Y-133089000D01*
X57960000Y-133049000D02*
X59210000Y-133049000D01*
X61290000Y-133049000D02*
X62540000Y-133049000D01*
X57982000Y-133009000D02*
X59210000Y-133009000D01*
X61290000Y-133009000D02*
X62518000Y-133009000D01*
X58003000Y-132969000D02*
X59210000Y-132969000D01*
X61290000Y-132969000D02*
X62497000Y-132969000D01*
X58026000Y-132929000D02*
X59210000Y-132929000D01*
X61290000Y-132929000D02*
X62474000Y-132929000D01*
X58050000Y-132889000D02*
X59210000Y-132889000D01*
X61290000Y-132889000D02*
X62450000Y-132889000D01*
X58075000Y-132849000D02*
X59210000Y-132849000D01*
X61290000Y-132849000D02*
X62425000Y-132849000D01*
X58101000Y-132809000D02*
X59210000Y-132809000D01*
X61290000Y-132809000D02*
X62399000Y-132809000D01*
X58128000Y-132769000D02*
X59210000Y-132769000D01*
X61290000Y-132769000D02*
X62372000Y-132769000D01*
X58155000Y-132729000D02*
X59210000Y-132729000D01*
X61290000Y-132729000D02*
X62345000Y-132729000D01*
X58185000Y-132689000D02*
X59210000Y-132689000D01*
X61290000Y-132689000D02*
X62315000Y-132689000D01*
X58215000Y-132649000D02*
X59210000Y-132649000D01*
X61290000Y-132649000D02*
X62285000Y-132649000D01*
X58246000Y-132609000D02*
X59210000Y-132609000D01*
X61290000Y-132609000D02*
X62254000Y-132609000D01*
X58279000Y-132569000D02*
X59210000Y-132569000D01*
X61290000Y-132569000D02*
X62221000Y-132569000D01*
X58313000Y-132529000D02*
X59210000Y-132529000D01*
X61290000Y-132529000D02*
X62187000Y-132529000D01*
X58349000Y-132489000D02*
X59210000Y-132489000D01*
X61290000Y-132489000D02*
X62151000Y-132489000D01*
X58386000Y-132449000D02*
X59210000Y-132449000D01*
X61290000Y-132449000D02*
X62114000Y-132449000D01*
X58424000Y-132409000D02*
X59210000Y-132409000D01*
X61290000Y-132409000D02*
X62076000Y-132409000D01*
X58465000Y-132369000D02*
X59210000Y-132369000D01*
X61290000Y-132369000D02*
X62035000Y-132369000D01*
X58507000Y-132329000D02*
X59210000Y-132329000D01*
X61290000Y-132329000D02*
X61993000Y-132329000D01*
X58551000Y-132289000D02*
X59210000Y-132289000D01*
X61290000Y-132289000D02*
X61949000Y-132289000D01*
X58597000Y-132249000D02*
X59210000Y-132249000D01*
X61290000Y-132249000D02*
X61903000Y-132249000D01*
X58645000Y-132209000D02*
X59210000Y-132209000D01*
X61290000Y-132209000D02*
X61855000Y-132209000D01*
X58696000Y-132169000D02*
X59210000Y-132169000D01*
X61290000Y-132169000D02*
X61804000Y-132169000D01*
X58750000Y-132129000D02*
X59210000Y-132129000D01*
X61290000Y-132129000D02*
X61750000Y-132129000D01*
X58807000Y-132089000D02*
X59210000Y-132089000D01*
X61290000Y-132089000D02*
X61693000Y-132089000D01*
X58867000Y-132049000D02*
X59210000Y-132049000D01*
X61290000Y-132049000D02*
X61633000Y-132049000D01*
X58931000Y-132009000D02*
X59210000Y-132009000D01*
X61290000Y-132009000D02*
X61569000Y-132009000D01*
X58999000Y-131969000D02*
X59210000Y-131969000D01*
X61290000Y-131969000D02*
X61501000Y-131969000D01*
X59072000Y-131929000D02*
X61428000Y-131929000D01*
X59152000Y-131889000D02*
X61348000Y-131889000D01*
X59239000Y-131849000D02*
X61261000Y-131849000D01*
X59335000Y-131809000D02*
X61165000Y-131809000D01*
X59445000Y-131769000D02*
X61055000Y-131769000D01*
X59573000Y-131729000D02*
X60927000Y-131729000D01*
X59732000Y-131689000D02*
X60768000Y-131689000D01*
X59966000Y-131649000D02*
X60534000Y-131649000D01*
X58775000Y-137054775D02*
X58775000Y-136554775D01*
X58525000Y-136804775D02*
X59025000Y-136804775D01*
%TO.C,R29*%
X65630000Y-137850000D02*
X68370000Y-137850000D01*
X68370000Y-137850000D02*
X68370000Y-131310000D01*
X68370000Y-131310000D02*
X65630000Y-131310000D01*
X65630000Y-131310000D02*
X65630000Y-137850000D01*
X67000000Y-138620000D02*
X67000000Y-137850000D01*
X67000000Y-130540000D02*
X67000000Y-131310000D01*
%TO.C,R28*%
X70380000Y-137940000D02*
X73120000Y-137940000D01*
X73120000Y-137940000D02*
X73120000Y-131400000D01*
X73120000Y-131400000D02*
X70380000Y-131400000D01*
X70380000Y-131400000D02*
X70380000Y-137940000D01*
X71750000Y-138710000D02*
X71750000Y-137940000D01*
X71750000Y-130630000D02*
X71750000Y-131400000D01*
%TO.C,Q24*%
X86052150Y-141582544D02*
G75*
G03*
X85062331Y-142572281I-2572150J1582544D01*
G01*
X85062331Y-142572281D02*
X85974499Y-143484448D01*
X85974499Y-143484448D02*
X86964448Y-142494499D01*
X86964448Y-142494499D02*
X86052281Y-141582331D01*
%TO.C,Q23*%
X86052150Y-133332544D02*
G75*
G03*
X85062331Y-134322281I-2572150J1582544D01*
G01*
X85062331Y-134322281D02*
X85974499Y-135234448D01*
X85974499Y-135234448D02*
X86964448Y-134244499D01*
X86964448Y-134244499D02*
X86052281Y-133332331D01*
%TO.C,D1*%
X81885816Y-122377205D02*
G75*
G02*
X82410000Y-121650000I2324184J-1122795D01*
G01*
X81853600Y-124598807D02*
G75*
G03*
X84210000Y-126100000I2356400J1098807D01*
G01*
X86566400Y-124598807D02*
G75*
G02*
X84210000Y-126100000I-2356400J1098807D01*
G01*
X86534184Y-122377205D02*
G75*
G03*
X86010000Y-121650000I-2324184J-1122795D01*
G01*
X86010000Y-121650000D02*
X82410000Y-121650000D01*
%TO.C,U6*%
X93670000Y-129810000D02*
G75*
G02*
X93670000Y-131810000I0J-1000000D01*
G01*
X93670000Y-131810000D02*
X93670000Y-133460000D01*
X93670000Y-133460000D02*
X111570000Y-133460000D01*
X111570000Y-133460000D02*
X111570000Y-128160000D01*
X111570000Y-128160000D02*
X93670000Y-128160000D01*
X93670000Y-128160000D02*
X93670000Y-129810000D01*
%TO.C,R27*%
X97130000Y-114190000D02*
X99870000Y-114190000D01*
X99870000Y-114190000D02*
X99870000Y-107650000D01*
X99870000Y-107650000D02*
X97130000Y-107650000D01*
X97130000Y-107650000D02*
X97130000Y-114190000D01*
X98500000Y-114960000D02*
X98500000Y-114190000D01*
X98500000Y-106880000D02*
X98500000Y-107650000D01*
%TO.C,R26*%
X103350000Y-141370000D02*
X103350000Y-138630000D01*
X103350000Y-138630000D02*
X96810000Y-138630000D01*
X96810000Y-138630000D02*
X96810000Y-141370000D01*
X96810000Y-141370000D02*
X103350000Y-141370000D01*
X104120000Y-140000000D02*
X103350000Y-140000000D01*
X96040000Y-140000000D02*
X96810000Y-140000000D01*
%TO.C,R25*%
X75130000Y-137940000D02*
X77870000Y-137940000D01*
X77870000Y-137940000D02*
X77870000Y-131400000D01*
X77870000Y-131400000D02*
X75130000Y-131400000D01*
X75130000Y-131400000D02*
X75130000Y-137940000D01*
X76500000Y-138710000D02*
X76500000Y-137940000D01*
X76500000Y-130630000D02*
X76500000Y-131400000D01*
%TO.C,R24*%
X103190000Y-122370000D02*
X103190000Y-119630000D01*
X103190000Y-119630000D02*
X96650000Y-119630000D01*
X96650000Y-119630000D02*
X96650000Y-122370000D01*
X96650000Y-122370000D02*
X103190000Y-122370000D01*
X103960000Y-121000000D02*
X103190000Y-121000000D01*
X95880000Y-121000000D02*
X96650000Y-121000000D01*
%TO.C,R23*%
X120870000Y-127310000D02*
X118130000Y-127310000D01*
X118130000Y-127310000D02*
X118130000Y-133850000D01*
X118130000Y-133850000D02*
X120870000Y-133850000D01*
X120870000Y-133850000D02*
X120870000Y-127310000D01*
X119500000Y-126540000D02*
X119500000Y-127310000D01*
X119500000Y-134620000D02*
X119500000Y-133850000D01*
%TO.C,U5*%
X124170000Y-129810000D02*
G75*
G02*
X124170000Y-131810000I0J-1000000D01*
G01*
X124170000Y-131810000D02*
X124170000Y-133460000D01*
X124170000Y-133460000D02*
X142070000Y-133460000D01*
X142070000Y-133460000D02*
X142070000Y-128160000D01*
X142070000Y-128160000D02*
X124170000Y-128160000D01*
X124170000Y-128160000D02*
X124170000Y-129810000D01*
%TO.C,R22*%
X157310000Y-121630000D02*
X157310000Y-124370000D01*
X157310000Y-124370000D02*
X163850000Y-124370000D01*
X163850000Y-124370000D02*
X163850000Y-121630000D01*
X163850000Y-121630000D02*
X157310000Y-121630000D01*
X156540000Y-123000000D02*
X157310000Y-123000000D01*
X164620000Y-123000000D02*
X163850000Y-123000000D01*
%TO.C,C1*%
X170880000Y-121630000D02*
X178120000Y-121630000D01*
X170880000Y-124370000D02*
X178120000Y-124370000D01*
X170880000Y-121630000D02*
X170880000Y-124370000D01*
X178120000Y-121630000D02*
X178120000Y-124370000D01*
%TO.C,REF\u002A\u002A*%
X154540000Y-56990000D02*
X155500000Y-59460000D01*
D11*
X154500000Y-57000000D02*
X153700000Y-59400000D01*
D12*
X151750000Y-58450000D02*
X157450000Y-58450000D01*
X149410000Y-56970000D02*
X153610000Y-56970000D01*
X152460000Y-55430000D02*
X154070000Y-55430000D01*
D11*
X152500000Y-55500000D02*
X151800000Y-58400000D01*
D13*
X156500000Y-57500000D02*
G75*
G03*
X156500000Y-57500000I-3000000J0D01*
G01*
D12*
%TO.C,AFF2*%
X120527214Y-70120000D02*
G75*
G03*
X120527214Y-70120000I-447214J0D01*
G01*
X113080000Y-60120000D02*
X120080000Y-60120000D01*
X119080000Y-65120000D02*
X112080000Y-65120000D01*
X120080000Y-60120000D02*
X119080000Y-65120000D01*
X118080000Y-70120000D02*
X119080000Y-65120000D01*
X111080000Y-70120000D02*
X118080000Y-70120000D01*
X112080000Y-65120000D02*
X111080000Y-70120000D01*
X113080000Y-60120000D02*
X112080000Y-65120000D01*
X122380000Y-55485000D02*
X109780000Y-55485000D01*
X110780000Y-74755000D02*
X122380000Y-74755000D01*
X122490000Y-70835000D02*
X122490000Y-59405000D01*
X109670000Y-70835000D02*
X109670000Y-59405000D01*
%TO.C,R2*%
X77190000Y-90370000D02*
X77190000Y-87630000D01*
X77190000Y-87630000D02*
X70650000Y-87630000D01*
X70650000Y-87630000D02*
X70650000Y-90370000D01*
X70650000Y-90370000D02*
X77190000Y-90370000D01*
X77960000Y-89000000D02*
X77190000Y-89000000D01*
X69880000Y-89000000D02*
X70650000Y-89000000D01*
%TO.C,U2*%
X63670000Y-107810000D02*
G75*
G02*
X63670000Y-109810000I0J-1000000D01*
G01*
X63670000Y-109810000D02*
X63670000Y-111460000D01*
X63670000Y-111460000D02*
X84110000Y-111460000D01*
X84110000Y-111460000D02*
X84110000Y-106160000D01*
X84110000Y-106160000D02*
X63670000Y-106160000D01*
X63670000Y-106160000D02*
X63670000Y-107810000D01*
%TO.C,U4*%
X152670000Y-107810000D02*
G75*
G02*
X152670000Y-109810000I0J-1000000D01*
G01*
X152670000Y-109810000D02*
X152670000Y-111460000D01*
X152670000Y-111460000D02*
X173110000Y-111460000D01*
X173110000Y-111460000D02*
X173110000Y-106160000D01*
X173110000Y-106160000D02*
X152670000Y-106160000D01*
X152670000Y-106160000D02*
X152670000Y-107810000D01*
%TO.C,U3*%
X108670000Y-107810000D02*
G75*
G02*
X108670000Y-109810000I0J-1000000D01*
G01*
X108670000Y-109810000D02*
X108670000Y-111460000D01*
X108670000Y-111460000D02*
X129110000Y-111460000D01*
X129110000Y-111460000D02*
X129110000Y-106160000D01*
X129110000Y-106160000D02*
X108670000Y-106160000D01*
X108670000Y-106160000D02*
X108670000Y-107810000D01*
%TO.C,U1*%
X154670000Y-129810000D02*
G75*
G02*
X154670000Y-131810000I0J-1000000D01*
G01*
X154670000Y-131810000D02*
X154670000Y-133060000D01*
X154670000Y-133060000D02*
X172570000Y-133060000D01*
X172570000Y-133060000D02*
X172570000Y-128560000D01*
X172570000Y-128560000D02*
X154670000Y-128560000D01*
X154670000Y-128560000D02*
X154670000Y-129810000D01*
%TO.C,R21*%
X143150000Y-89630000D02*
X143150000Y-92370000D01*
X143150000Y-92370000D02*
X149690000Y-92370000D01*
X149690000Y-92370000D02*
X149690000Y-89630000D01*
X149690000Y-89630000D02*
X143150000Y-89630000D01*
X142380000Y-91000000D02*
X143150000Y-91000000D01*
X150460000Y-91000000D02*
X149690000Y-91000000D01*
%TO.C,R20*%
X136630000Y-89350000D02*
X139370000Y-89350000D01*
X139370000Y-89350000D02*
X139370000Y-82810000D01*
X139370000Y-82810000D02*
X136630000Y-82810000D01*
X136630000Y-82810000D02*
X136630000Y-89350000D01*
X138000000Y-90120000D02*
X138000000Y-89350000D01*
X138000000Y-82040000D02*
X138000000Y-82810000D01*
%TO.C,R19*%
X179100000Y-99620000D02*
X179100000Y-96880000D01*
X179100000Y-96880000D02*
X172560000Y-96880000D01*
X172560000Y-96880000D02*
X172560000Y-99620000D01*
X172560000Y-99620000D02*
X179100000Y-99620000D01*
X179870000Y-98250000D02*
X179100000Y-98250000D01*
X171790000Y-98250000D02*
X172560000Y-98250000D01*
%TO.C,R18*%
X174350000Y-95620000D02*
X174350000Y-92880000D01*
X174350000Y-92880000D02*
X167810000Y-92880000D01*
X167810000Y-92880000D02*
X167810000Y-95620000D01*
X167810000Y-95620000D02*
X174350000Y-95620000D01*
X175120000Y-94250000D02*
X174350000Y-94250000D01*
X167040000Y-94250000D02*
X167810000Y-94250000D01*
%TO.C,R17*%
X171600000Y-91620000D02*
X171600000Y-88880000D01*
X171600000Y-88880000D02*
X165060000Y-88880000D01*
X165060000Y-88880000D02*
X165060000Y-91620000D01*
X165060000Y-91620000D02*
X171600000Y-91620000D01*
X172370000Y-90250000D02*
X171600000Y-90250000D01*
X164290000Y-90250000D02*
X165060000Y-90250000D01*
%TO.C,R16*%
X150310000Y-97130000D02*
X150310000Y-99870000D01*
X150310000Y-99870000D02*
X156850000Y-99870000D01*
X156850000Y-99870000D02*
X156850000Y-97130000D01*
X156850000Y-97130000D02*
X150310000Y-97130000D01*
X149540000Y-98500000D02*
X150310000Y-98500000D01*
X157620000Y-98500000D02*
X156850000Y-98500000D01*
%TO.C,R15*%
X147400000Y-93630000D02*
X147400000Y-96370000D01*
X147400000Y-96370000D02*
X153940000Y-96370000D01*
X153940000Y-96370000D02*
X153940000Y-93630000D01*
X153940000Y-93630000D02*
X147400000Y-93630000D01*
X146630000Y-95000000D02*
X147400000Y-95000000D01*
X154710000Y-95000000D02*
X153940000Y-95000000D01*
%TO.C,R14*%
X97900000Y-94380000D02*
X97900000Y-97120000D01*
X97900000Y-97120000D02*
X104440000Y-97120000D01*
X104440000Y-97120000D02*
X104440000Y-94380000D01*
X104440000Y-94380000D02*
X97900000Y-94380000D01*
X97130000Y-95750000D02*
X97900000Y-95750000D01*
X105210000Y-95750000D02*
X104440000Y-95750000D01*
%TO.C,R13*%
X90630000Y-89350000D02*
X93370000Y-89350000D01*
X93370000Y-89350000D02*
X93370000Y-82810000D01*
X93370000Y-82810000D02*
X90630000Y-82810000D01*
X90630000Y-82810000D02*
X90630000Y-89350000D01*
X92000000Y-90120000D02*
X92000000Y-89350000D01*
X92000000Y-82040000D02*
X92000000Y-82810000D01*
%TO.C,R12*%
X131630000Y-89350000D02*
X134370000Y-89350000D01*
X134370000Y-89350000D02*
X134370000Y-82810000D01*
X134370000Y-82810000D02*
X131630000Y-82810000D01*
X131630000Y-82810000D02*
X131630000Y-89350000D01*
X133000000Y-90120000D02*
X133000000Y-89350000D01*
X133000000Y-82040000D02*
X133000000Y-82810000D01*
%TO.C,R11*%
X131350000Y-97370000D02*
X131350000Y-94630000D01*
X131350000Y-94630000D02*
X124810000Y-94630000D01*
X124810000Y-94630000D02*
X124810000Y-97370000D01*
X124810000Y-97370000D02*
X131350000Y-97370000D01*
X132120000Y-96000000D02*
X131350000Y-96000000D01*
X124040000Y-96000000D02*
X124810000Y-96000000D01*
%TO.C,R10*%
X124850000Y-94370000D02*
X124850000Y-91630000D01*
X124850000Y-91630000D02*
X118310000Y-91630000D01*
X118310000Y-91630000D02*
X118310000Y-94370000D01*
X118310000Y-94370000D02*
X124850000Y-94370000D01*
X125620000Y-93000000D02*
X124850000Y-93000000D01*
X117540000Y-93000000D02*
X118310000Y-93000000D01*
%TO.C,R9*%
X122940000Y-91120000D02*
X122940000Y-88380000D01*
X122940000Y-88380000D02*
X116400000Y-88380000D01*
X116400000Y-88380000D02*
X116400000Y-91120000D01*
X116400000Y-91120000D02*
X122940000Y-91120000D01*
X123710000Y-89750000D02*
X122940000Y-89750000D01*
X115630000Y-89750000D02*
X116400000Y-89750000D01*
%TO.C,R8*%
X97900000Y-89380000D02*
X97900000Y-92120000D01*
X97900000Y-92120000D02*
X104440000Y-92120000D01*
X104440000Y-92120000D02*
X104440000Y-89380000D01*
X104440000Y-89380000D02*
X97900000Y-89380000D01*
X97130000Y-90750000D02*
X97900000Y-90750000D01*
X105210000Y-90750000D02*
X104440000Y-90750000D01*
%TO.C,R7*%
X61650000Y-69380000D02*
X61650000Y-72120000D01*
X61650000Y-72120000D02*
X68190000Y-72120000D01*
X68190000Y-72120000D02*
X68190000Y-69380000D01*
X68190000Y-69380000D02*
X61650000Y-69380000D01*
X60880000Y-70750000D02*
X61650000Y-70750000D01*
X68960000Y-70750000D02*
X68190000Y-70750000D01*
%TO.C,R6*%
X61650000Y-66130000D02*
X61650000Y-68870000D01*
X61650000Y-68870000D02*
X68190000Y-68870000D01*
X68190000Y-68870000D02*
X68190000Y-66130000D01*
X68190000Y-66130000D02*
X61650000Y-66130000D01*
X60880000Y-67500000D02*
X61650000Y-67500000D01*
X68960000Y-67500000D02*
X68190000Y-67500000D01*
%TO.C,R5*%
X85630000Y-89350000D02*
X88370000Y-89350000D01*
X88370000Y-89350000D02*
X88370000Y-82810000D01*
X88370000Y-82810000D02*
X85630000Y-82810000D01*
X85630000Y-82810000D02*
X85630000Y-89350000D01*
X87000000Y-90120000D02*
X87000000Y-89350000D01*
X87000000Y-82040000D02*
X87000000Y-82810000D01*
%TO.C,R4*%
X85440000Y-96870000D02*
X85440000Y-94130000D01*
X85440000Y-94130000D02*
X78900000Y-94130000D01*
X78900000Y-94130000D02*
X78900000Y-96870000D01*
X78900000Y-96870000D02*
X85440000Y-96870000D01*
X86210000Y-95500000D02*
X85440000Y-95500000D01*
X78130000Y-95500000D02*
X78900000Y-95500000D01*
%TO.C,R3*%
X80440000Y-93620000D02*
X80440000Y-90880000D01*
X80440000Y-90880000D02*
X73900000Y-90880000D01*
X73900000Y-90880000D02*
X73900000Y-93620000D01*
X73900000Y-93620000D02*
X80440000Y-93620000D01*
X81210000Y-92250000D02*
X80440000Y-92250000D01*
X73130000Y-92250000D02*
X73900000Y-92250000D01*
%TO.C,R1*%
X57650000Y-94630000D02*
X57650000Y-97370000D01*
X57650000Y-97370000D02*
X64190000Y-97370000D01*
X64190000Y-97370000D02*
X64190000Y-94630000D01*
X64190000Y-94630000D02*
X57650000Y-94630000D01*
X56880000Y-96000000D02*
X57650000Y-96000000D01*
X64960000Y-96000000D02*
X64190000Y-96000000D01*
%TO.C,Q21*%
X149122795Y-81215816D02*
G75*
G02*
X149850000Y-81740000I-1122795J-2324184D01*
G01*
X146901193Y-81183600D02*
G75*
G03*
X145400000Y-83540000I1098807J-2356400D01*
G01*
X146901193Y-85896400D02*
G75*
G02*
X145400000Y-83540000I1098807J2356400D01*
G01*
X149122795Y-85864184D02*
G75*
G03*
X149850000Y-85340000I-1122795J2324184D01*
G01*
X149850000Y-85340000D02*
X149850000Y-81740000D01*
%TO.C,Q20*%
X144122795Y-81215816D02*
G75*
G02*
X144850000Y-81740000I-1122795J-2324184D01*
G01*
X141901193Y-81183600D02*
G75*
G03*
X140400000Y-83540000I1098807J-2356400D01*
G01*
X141901193Y-85896400D02*
G75*
G02*
X140400000Y-83540000I1098807J2356400D01*
G01*
X144122795Y-85864184D02*
G75*
G03*
X144850000Y-85340000I-1122795J2324184D01*
G01*
X144850000Y-85340000D02*
X144850000Y-81740000D01*
%TO.C,Q19*%
X174122795Y-81215816D02*
G75*
G02*
X174850000Y-81740000I-1122795J-2324184D01*
G01*
X171901193Y-81183600D02*
G75*
G03*
X170400000Y-83540000I1098807J-2356400D01*
G01*
X171901193Y-85896400D02*
G75*
G02*
X170400000Y-83540000I1098807J2356400D01*
G01*
X174122795Y-85864184D02*
G75*
G03*
X174850000Y-85340000I-1122795J2324184D01*
G01*
X174850000Y-85340000D02*
X174850000Y-81740000D01*
%TO.C,Q18*%
X169122795Y-81215816D02*
G75*
G02*
X169850000Y-81740000I-1122795J-2324184D01*
G01*
X166901193Y-81183600D02*
G75*
G03*
X165400000Y-83540000I1098807J-2356400D01*
G01*
X166901193Y-85896400D02*
G75*
G02*
X165400000Y-83540000I1098807J2356400D01*
G01*
X169122795Y-85864184D02*
G75*
G03*
X169850000Y-85340000I-1122795J2324184D01*
G01*
X169850000Y-85340000D02*
X169850000Y-81740000D01*
%TO.C,Q17*%
X164122795Y-81215816D02*
G75*
G02*
X164850000Y-81740000I-1122795J-2324184D01*
G01*
X161901193Y-81183600D02*
G75*
G03*
X160400000Y-83540000I1098807J-2356400D01*
G01*
X161901193Y-85896400D02*
G75*
G02*
X160400000Y-83540000I1098807J2356400D01*
G01*
X164122795Y-85864184D02*
G75*
G03*
X164850000Y-85340000I-1122795J2324184D01*
G01*
X164850000Y-85340000D02*
X164850000Y-81740000D01*
%TO.C,Q16*%
X159122795Y-81215816D02*
G75*
G02*
X159850000Y-81740000I-1122795J-2324184D01*
G01*
X156901193Y-81183600D02*
G75*
G03*
X155400000Y-83540000I1098807J-2356400D01*
G01*
X156901193Y-85896400D02*
G75*
G02*
X155400000Y-83540000I1098807J2356400D01*
G01*
X159122795Y-85864184D02*
G75*
G03*
X159850000Y-85340000I-1122795J2324184D01*
G01*
X159850000Y-85340000D02*
X159850000Y-81740000D01*
%TO.C,Q15*%
X154122795Y-81215816D02*
G75*
G02*
X154850000Y-81740000I-1122795J-2324184D01*
G01*
X151901193Y-81183600D02*
G75*
G03*
X150400000Y-83540000I1098807J-2356400D01*
G01*
X151901193Y-85896400D02*
G75*
G02*
X150400000Y-83540000I1098807J2356400D01*
G01*
X154122795Y-85864184D02*
G75*
G03*
X154850000Y-85340000I-1122795J2324184D01*
G01*
X154850000Y-85340000D02*
X154850000Y-81740000D01*
%TO.C,Q14*%
X103122795Y-81215816D02*
G75*
G02*
X103850000Y-81740000I-1122795J-2324184D01*
G01*
X100901193Y-81183600D02*
G75*
G03*
X99400000Y-83540000I1098807J-2356400D01*
G01*
X100901193Y-85896400D02*
G75*
G02*
X99400000Y-83540000I1098807J2356400D01*
G01*
X103122795Y-85864184D02*
G75*
G03*
X103850000Y-85340000I-1122795J2324184D01*
G01*
X103850000Y-85340000D02*
X103850000Y-81740000D01*
%TO.C,Q13*%
X98122795Y-81215816D02*
G75*
G02*
X98850000Y-81740000I-1122795J-2324184D01*
G01*
X95901193Y-81183600D02*
G75*
G03*
X94400000Y-83540000I1098807J-2356400D01*
G01*
X95901193Y-85896400D02*
G75*
G02*
X94400000Y-83540000I1098807J2356400D01*
G01*
X98122795Y-85864184D02*
G75*
G03*
X98850000Y-85340000I-1122795J2324184D01*
G01*
X98850000Y-85340000D02*
X98850000Y-81740000D01*
%TO.C,Q12*%
X129122795Y-81135816D02*
G75*
G02*
X129850000Y-81660000I-1122795J-2324184D01*
G01*
X126901193Y-81103600D02*
G75*
G03*
X125400000Y-83460000I1098807J-2356400D01*
G01*
X126901193Y-85816400D02*
G75*
G02*
X125400000Y-83460000I1098807J2356400D01*
G01*
X129122795Y-85784184D02*
G75*
G03*
X129850000Y-85260000I-1122795J2324184D01*
G01*
X129850000Y-85260000D02*
X129850000Y-81660000D01*
%TO.C,Q11*%
X123122795Y-81215816D02*
G75*
G02*
X123850000Y-81740000I-1122795J-2324184D01*
G01*
X120901193Y-81183600D02*
G75*
G03*
X119400000Y-83540000I1098807J-2356400D01*
G01*
X120901193Y-85896400D02*
G75*
G02*
X119400000Y-83540000I1098807J2356400D01*
G01*
X123122795Y-85864184D02*
G75*
G03*
X123850000Y-85340000I-1122795J2324184D01*
G01*
X123850000Y-85340000D02*
X123850000Y-81740000D01*
%TO.C,Q10*%
X118122795Y-81215816D02*
G75*
G02*
X118850000Y-81740000I-1122795J-2324184D01*
G01*
X115901193Y-81183600D02*
G75*
G03*
X114400000Y-83540000I1098807J-2356400D01*
G01*
X115901193Y-85896400D02*
G75*
G02*
X114400000Y-83540000I1098807J2356400D01*
G01*
X118122795Y-85864184D02*
G75*
G03*
X118850000Y-85340000I-1122795J2324184D01*
G01*
X118850000Y-85340000D02*
X118850000Y-81740000D01*
%TO.C,Q9*%
X113122795Y-81215816D02*
G75*
G02*
X113850000Y-81740000I-1122795J-2324184D01*
G01*
X110901193Y-81183600D02*
G75*
G03*
X109400000Y-83540000I1098807J-2356400D01*
G01*
X110901193Y-85896400D02*
G75*
G02*
X109400000Y-83540000I1098807J2356400D01*
G01*
X113122795Y-85864184D02*
G75*
G03*
X113850000Y-85340000I-1122795J2324184D01*
G01*
X113850000Y-85340000D02*
X113850000Y-81740000D01*
%TO.C,Q8*%
X108122795Y-81215816D02*
G75*
G02*
X108850000Y-81740000I-1122795J-2324184D01*
G01*
X105901193Y-81183600D02*
G75*
G03*
X104400000Y-83540000I1098807J-2356400D01*
G01*
X105901193Y-85896400D02*
G75*
G02*
X104400000Y-83540000I1098807J2356400D01*
G01*
X108122795Y-85864184D02*
G75*
G03*
X108850000Y-85340000I-1122795J2324184D01*
G01*
X108850000Y-85340000D02*
X108850000Y-81740000D01*
%TO.C,Q7*%
X82622795Y-62135816D02*
G75*
G02*
X83350000Y-62660000I-1122795J-2324184D01*
G01*
X80401193Y-62103600D02*
G75*
G03*
X78900000Y-64460000I1098807J-2356400D01*
G01*
X80401193Y-66816400D02*
G75*
G02*
X78900000Y-64460000I1098807J2356400D01*
G01*
X82622795Y-66784184D02*
G75*
G03*
X83350000Y-66260000I-1122795J2324184D01*
G01*
X83350000Y-66260000D02*
X83350000Y-62660000D01*
%TO.C,Q6*%
X76122795Y-62135816D02*
G75*
G02*
X76850000Y-62660000I-1122795J-2324184D01*
G01*
X73901193Y-62103600D02*
G75*
G03*
X72400000Y-64460000I1098807J-2356400D01*
G01*
X73901193Y-66816400D02*
G75*
G02*
X72400000Y-64460000I1098807J2356400D01*
G01*
X76122795Y-66784184D02*
G75*
G03*
X76850000Y-66260000I-1122795J2324184D01*
G01*
X76850000Y-66260000D02*
X76850000Y-62660000D01*
%TO.C,Q5*%
X83122795Y-81215816D02*
G75*
G02*
X83850000Y-81740000I-1122795J-2324184D01*
G01*
X80901193Y-81183600D02*
G75*
G03*
X79400000Y-83540000I1098807J-2356400D01*
G01*
X80901193Y-85896400D02*
G75*
G02*
X79400000Y-83540000I1098807J2356400D01*
G01*
X83122795Y-85864184D02*
G75*
G03*
X83850000Y-85340000I-1122795J2324184D01*
G01*
X83850000Y-85340000D02*
X83850000Y-81740000D01*
%TO.C,Q4*%
X78122795Y-81215816D02*
G75*
G02*
X78850000Y-81740000I-1122795J-2324184D01*
G01*
X75901193Y-81183600D02*
G75*
G03*
X74400000Y-83540000I1098807J-2356400D01*
G01*
X75901193Y-85896400D02*
G75*
G02*
X74400000Y-83540000I1098807J2356400D01*
G01*
X78122795Y-85864184D02*
G75*
G03*
X78850000Y-85340000I-1122795J2324184D01*
G01*
X78850000Y-85340000D02*
X78850000Y-81740000D01*
%TO.C,Q3*%
X73122795Y-81215816D02*
G75*
G02*
X73850000Y-81740000I-1122795J-2324184D01*
G01*
X70901193Y-81183600D02*
G75*
G03*
X69400000Y-83540000I1098807J-2356400D01*
G01*
X70901193Y-85896400D02*
G75*
G02*
X69400000Y-83540000I1098807J2356400D01*
G01*
X73122795Y-85864184D02*
G75*
G03*
X73850000Y-85340000I-1122795J2324184D01*
G01*
X73850000Y-85340000D02*
X73850000Y-81740000D01*
%TO.C,Q2*%
X68122795Y-81215816D02*
G75*
G02*
X68850000Y-81740000I-1122795J-2324184D01*
G01*
X65901193Y-81183600D02*
G75*
G03*
X64400000Y-83540000I1098807J-2356400D01*
G01*
X65901193Y-85896400D02*
G75*
G02*
X64400000Y-83540000I1098807J2356400D01*
G01*
X68122795Y-85864184D02*
G75*
G03*
X68850000Y-85340000I-1122795J2324184D01*
G01*
X68850000Y-85340000D02*
X68850000Y-81740000D01*
%TO.C,Q1*%
X63122795Y-81215816D02*
G75*
G02*
X63850000Y-81740000I-1122795J-2324184D01*
G01*
X60901193Y-81183600D02*
G75*
G03*
X59400000Y-83540000I1098807J-2356400D01*
G01*
X60901193Y-85896400D02*
G75*
G02*
X59400000Y-83540000I1098807J2356400D01*
G01*
X63122795Y-85864184D02*
G75*
G03*
X63850000Y-85340000I-1122795J2324184D01*
G01*
X63850000Y-85340000D02*
X63850000Y-81740000D01*
%TO.C,AFF3*%
X142527214Y-70120000D02*
G75*
G03*
X142527214Y-70120000I-447214J0D01*
G01*
X135080000Y-60120000D02*
X142080000Y-60120000D01*
X141080000Y-65120000D02*
X134080000Y-65120000D01*
X142080000Y-60120000D02*
X141080000Y-65120000D01*
X140080000Y-70120000D02*
X141080000Y-65120000D01*
X133080000Y-70120000D02*
X140080000Y-70120000D01*
X134080000Y-65120000D02*
X133080000Y-70120000D01*
X135080000Y-60120000D02*
X134080000Y-65120000D01*
X144380000Y-55485000D02*
X131780000Y-55485000D01*
X132780000Y-74755000D02*
X144380000Y-74755000D01*
X144490000Y-70835000D02*
X144490000Y-59405000D01*
X131670000Y-70835000D02*
X131670000Y-59405000D01*
%TO.C,AFF1*%
X98527214Y-70120000D02*
G75*
G03*
X98527214Y-70120000I-447214J0D01*
G01*
X91080000Y-60120000D02*
X98080000Y-60120000D01*
X97080000Y-65120000D02*
X90080000Y-65120000D01*
X98080000Y-60120000D02*
X97080000Y-65120000D01*
X96080000Y-70120000D02*
X97080000Y-65120000D01*
X89080000Y-70120000D02*
X96080000Y-70120000D01*
X90080000Y-65120000D02*
X89080000Y-70120000D01*
X91080000Y-60120000D02*
X90080000Y-65120000D01*
X100380000Y-55485000D02*
X87780000Y-55485000D01*
X88780000Y-74755000D02*
X100380000Y-74755000D01*
X100490000Y-70835000D02*
X100490000Y-59405000D01*
X87670000Y-70835000D02*
X87670000Y-59405000D01*
%TO.C,C2*%
D10*
X113607142Y-129916666D02*
X113654761Y-129964285D01*
X113702380Y-130107142D01*
X113702380Y-130202380D01*
X113654761Y-130345238D01*
X113559523Y-130440476D01*
X113464285Y-130488095D01*
X113273809Y-130535714D01*
X113130952Y-130535714D01*
X112940476Y-130488095D01*
X112845238Y-130440476D01*
X112750000Y-130345238D01*
X112702380Y-130202380D01*
X112702380Y-130107142D01*
X112750000Y-129964285D01*
X112797619Y-129916666D01*
X112797619Y-129535714D02*
X112750000Y-129488095D01*
X112702380Y-129392857D01*
X112702380Y-129154761D01*
X112750000Y-129059523D01*
X112797619Y-129011904D01*
X112892857Y-128964285D01*
X112988095Y-128964285D01*
X113130952Y-129011904D01*
X113702380Y-129583333D01*
X113702380Y-128964285D01*
%TO.C,C3*%
X56857142Y-134416666D02*
X56904761Y-134464285D01*
X56952380Y-134607142D01*
X56952380Y-134702380D01*
X56904761Y-134845238D01*
X56809523Y-134940476D01*
X56714285Y-134988095D01*
X56523809Y-135035714D01*
X56380952Y-135035714D01*
X56190476Y-134988095D01*
X56095238Y-134940476D01*
X56000000Y-134845238D01*
X55952380Y-134702380D01*
X55952380Y-134607142D01*
X56000000Y-134464285D01*
X56047619Y-134416666D01*
X55952380Y-134083333D02*
X55952380Y-133464285D01*
X56333333Y-133797619D01*
X56333333Y-133654761D01*
X56380952Y-133559523D01*
X56428571Y-133511904D01*
X56523809Y-133464285D01*
X56761904Y-133464285D01*
X56857142Y-133511904D01*
X56904761Y-133559523D01*
X56952380Y-133654761D01*
X56952380Y-133940476D01*
X56904761Y-134035714D01*
X56857142Y-134083333D01*
%TO.C,R29*%
X65082380Y-135222857D02*
X64606190Y-135556190D01*
X65082380Y-135794285D02*
X64082380Y-135794285D01*
X64082380Y-135413333D01*
X64130000Y-135318095D01*
X64177619Y-135270476D01*
X64272857Y-135222857D01*
X64415714Y-135222857D01*
X64510952Y-135270476D01*
X64558571Y-135318095D01*
X64606190Y-135413333D01*
X64606190Y-135794285D01*
X64177619Y-134841904D02*
X64130000Y-134794285D01*
X64082380Y-134699047D01*
X64082380Y-134460952D01*
X64130000Y-134365714D01*
X64177619Y-134318095D01*
X64272857Y-134270476D01*
X64368095Y-134270476D01*
X64510952Y-134318095D01*
X65082380Y-134889523D01*
X65082380Y-134270476D01*
X65082380Y-133794285D02*
X65082380Y-133603809D01*
X65034761Y-133508571D01*
X64987142Y-133460952D01*
X64844285Y-133365714D01*
X64653809Y-133318095D01*
X64272857Y-133318095D01*
X64177619Y-133365714D01*
X64130000Y-133413333D01*
X64082380Y-133508571D01*
X64082380Y-133699047D01*
X64130000Y-133794285D01*
X64177619Y-133841904D01*
X64272857Y-133889523D01*
X64510952Y-133889523D01*
X64606190Y-133841904D01*
X64653809Y-133794285D01*
X64701428Y-133699047D01*
X64701428Y-133508571D01*
X64653809Y-133413333D01*
X64606190Y-133365714D01*
X64510952Y-133318095D01*
%TO.C,R28*%
X69832380Y-135312857D02*
X69356190Y-135646190D01*
X69832380Y-135884285D02*
X68832380Y-135884285D01*
X68832380Y-135503333D01*
X68880000Y-135408095D01*
X68927619Y-135360476D01*
X69022857Y-135312857D01*
X69165714Y-135312857D01*
X69260952Y-135360476D01*
X69308571Y-135408095D01*
X69356190Y-135503333D01*
X69356190Y-135884285D01*
X68927619Y-134931904D02*
X68880000Y-134884285D01*
X68832380Y-134789047D01*
X68832380Y-134550952D01*
X68880000Y-134455714D01*
X68927619Y-134408095D01*
X69022857Y-134360476D01*
X69118095Y-134360476D01*
X69260952Y-134408095D01*
X69832380Y-134979523D01*
X69832380Y-134360476D01*
X69260952Y-133789047D02*
X69213333Y-133884285D01*
X69165714Y-133931904D01*
X69070476Y-133979523D01*
X69022857Y-133979523D01*
X68927619Y-133931904D01*
X68880000Y-133884285D01*
X68832380Y-133789047D01*
X68832380Y-133598571D01*
X68880000Y-133503333D01*
X68927619Y-133455714D01*
X69022857Y-133408095D01*
X69070476Y-133408095D01*
X69165714Y-133455714D01*
X69213333Y-133503333D01*
X69260952Y-133598571D01*
X69260952Y-133789047D01*
X69308571Y-133884285D01*
X69356190Y-133931904D01*
X69451428Y-133979523D01*
X69641904Y-133979523D01*
X69737142Y-133931904D01*
X69784761Y-133884285D01*
X69832380Y-133789047D01*
X69832380Y-133598571D01*
X69784761Y-133503333D01*
X69737142Y-133455714D01*
X69641904Y-133408095D01*
X69451428Y-133408095D01*
X69356190Y-133455714D01*
X69308571Y-133503333D01*
X69260952Y-133598571D01*
%TO.C,Q24*%
X82908571Y-144567619D02*
X82813333Y-144520000D01*
X82718095Y-144424761D01*
X82575238Y-144281904D01*
X82480000Y-144234285D01*
X82384761Y-144234285D01*
X82432380Y-144472380D02*
X82337142Y-144424761D01*
X82241904Y-144329523D01*
X82194285Y-144139047D01*
X82194285Y-143805714D01*
X82241904Y-143615238D01*
X82337142Y-143520000D01*
X82432380Y-143472380D01*
X82622857Y-143472380D01*
X82718095Y-143520000D01*
X82813333Y-143615238D01*
X82860952Y-143805714D01*
X82860952Y-144139047D01*
X82813333Y-144329523D01*
X82718095Y-144424761D01*
X82622857Y-144472380D01*
X82432380Y-144472380D01*
X83241904Y-143567619D02*
X83289523Y-143520000D01*
X83384761Y-143472380D01*
X83622857Y-143472380D01*
X83718095Y-143520000D01*
X83765714Y-143567619D01*
X83813333Y-143662857D01*
X83813333Y-143758095D01*
X83765714Y-143900952D01*
X83194285Y-144472380D01*
X83813333Y-144472380D01*
X84670476Y-143805714D02*
X84670476Y-144472380D01*
X84432380Y-143424761D02*
X84194285Y-144139047D01*
X84813333Y-144139047D01*
%TO.C,Q23*%
X82908571Y-136317619D02*
X82813333Y-136270000D01*
X82718095Y-136174761D01*
X82575238Y-136031904D01*
X82480000Y-135984285D01*
X82384761Y-135984285D01*
X82432380Y-136222380D02*
X82337142Y-136174761D01*
X82241904Y-136079523D01*
X82194285Y-135889047D01*
X82194285Y-135555714D01*
X82241904Y-135365238D01*
X82337142Y-135270000D01*
X82432380Y-135222380D01*
X82622857Y-135222380D01*
X82718095Y-135270000D01*
X82813333Y-135365238D01*
X82860952Y-135555714D01*
X82860952Y-135889047D01*
X82813333Y-136079523D01*
X82718095Y-136174761D01*
X82622857Y-136222380D01*
X82432380Y-136222380D01*
X83241904Y-135317619D02*
X83289523Y-135270000D01*
X83384761Y-135222380D01*
X83622857Y-135222380D01*
X83718095Y-135270000D01*
X83765714Y-135317619D01*
X83813333Y-135412857D01*
X83813333Y-135508095D01*
X83765714Y-135650952D01*
X83194285Y-136222380D01*
X83813333Y-136222380D01*
X84146666Y-135222380D02*
X84765714Y-135222380D01*
X84432380Y-135603333D01*
X84575238Y-135603333D01*
X84670476Y-135650952D01*
X84718095Y-135698571D01*
X84765714Y-135793809D01*
X84765714Y-136031904D01*
X84718095Y-136127142D01*
X84670476Y-136174761D01*
X84575238Y-136222380D01*
X84289523Y-136222380D01*
X84194285Y-136174761D01*
X84146666Y-136127142D01*
%TO.C,D1*%
X83471904Y-127512380D02*
X83471904Y-126512380D01*
X83710000Y-126512380D01*
X83852857Y-126560000D01*
X83948095Y-126655238D01*
X83995714Y-126750476D01*
X84043333Y-126940952D01*
X84043333Y-127083809D01*
X83995714Y-127274285D01*
X83948095Y-127369523D01*
X83852857Y-127464761D01*
X83710000Y-127512380D01*
X83471904Y-127512380D01*
X84995714Y-127512380D02*
X84424285Y-127512380D01*
X84710000Y-127512380D02*
X84710000Y-126512380D01*
X84614761Y-126655238D01*
X84519523Y-126750476D01*
X84424285Y-126798095D01*
%TO.C,U6*%
X92122380Y-131571904D02*
X92931904Y-131571904D01*
X93027142Y-131524285D01*
X93074761Y-131476666D01*
X93122380Y-131381428D01*
X93122380Y-131190952D01*
X93074761Y-131095714D01*
X93027142Y-131048095D01*
X92931904Y-131000476D01*
X92122380Y-131000476D01*
X92122380Y-130095714D02*
X92122380Y-130286190D01*
X92170000Y-130381428D01*
X92217619Y-130429047D01*
X92360476Y-130524285D01*
X92550952Y-130571904D01*
X92931904Y-130571904D01*
X93027142Y-130524285D01*
X93074761Y-130476666D01*
X93122380Y-130381428D01*
X93122380Y-130190952D01*
X93074761Y-130095714D01*
X93027142Y-130048095D01*
X92931904Y-130000476D01*
X92693809Y-130000476D01*
X92598571Y-130048095D01*
X92550952Y-130095714D01*
X92503333Y-130190952D01*
X92503333Y-130381428D01*
X92550952Y-130476666D01*
X92598571Y-130524285D01*
X92693809Y-130571904D01*
%TO.C,R27*%
X96582380Y-111562857D02*
X96106190Y-111896190D01*
X96582380Y-112134285D02*
X95582380Y-112134285D01*
X95582380Y-111753333D01*
X95630000Y-111658095D01*
X95677619Y-111610476D01*
X95772857Y-111562857D01*
X95915714Y-111562857D01*
X96010952Y-111610476D01*
X96058571Y-111658095D01*
X96106190Y-111753333D01*
X96106190Y-112134285D01*
X95677619Y-111181904D02*
X95630000Y-111134285D01*
X95582380Y-111039047D01*
X95582380Y-110800952D01*
X95630000Y-110705714D01*
X95677619Y-110658095D01*
X95772857Y-110610476D01*
X95868095Y-110610476D01*
X96010952Y-110658095D01*
X96582380Y-111229523D01*
X96582380Y-110610476D01*
X95582380Y-110277142D02*
X95582380Y-109610476D01*
X96582380Y-110039047D01*
%TO.C,R26*%
X99437142Y-142822380D02*
X99103809Y-142346190D01*
X98865714Y-142822380D02*
X98865714Y-141822380D01*
X99246666Y-141822380D01*
X99341904Y-141870000D01*
X99389523Y-141917619D01*
X99437142Y-142012857D01*
X99437142Y-142155714D01*
X99389523Y-142250952D01*
X99341904Y-142298571D01*
X99246666Y-142346190D01*
X98865714Y-142346190D01*
X99818095Y-141917619D02*
X99865714Y-141870000D01*
X99960952Y-141822380D01*
X100199047Y-141822380D01*
X100294285Y-141870000D01*
X100341904Y-141917619D01*
X100389523Y-142012857D01*
X100389523Y-142108095D01*
X100341904Y-142250952D01*
X99770476Y-142822380D01*
X100389523Y-142822380D01*
X101246666Y-141822380D02*
X101056190Y-141822380D01*
X100960952Y-141870000D01*
X100913333Y-141917619D01*
X100818095Y-142060476D01*
X100770476Y-142250952D01*
X100770476Y-142631904D01*
X100818095Y-142727142D01*
X100865714Y-142774761D01*
X100960952Y-142822380D01*
X101151428Y-142822380D01*
X101246666Y-142774761D01*
X101294285Y-142727142D01*
X101341904Y-142631904D01*
X101341904Y-142393809D01*
X101294285Y-142298571D01*
X101246666Y-142250952D01*
X101151428Y-142203333D01*
X100960952Y-142203333D01*
X100865714Y-142250952D01*
X100818095Y-142298571D01*
X100770476Y-142393809D01*
%TO.C,R25*%
X74582380Y-135312857D02*
X74106190Y-135646190D01*
X74582380Y-135884285D02*
X73582380Y-135884285D01*
X73582380Y-135503333D01*
X73630000Y-135408095D01*
X73677619Y-135360476D01*
X73772857Y-135312857D01*
X73915714Y-135312857D01*
X74010952Y-135360476D01*
X74058571Y-135408095D01*
X74106190Y-135503333D01*
X74106190Y-135884285D01*
X73677619Y-134931904D02*
X73630000Y-134884285D01*
X73582380Y-134789047D01*
X73582380Y-134550952D01*
X73630000Y-134455714D01*
X73677619Y-134408095D01*
X73772857Y-134360476D01*
X73868095Y-134360476D01*
X74010952Y-134408095D01*
X74582380Y-134979523D01*
X74582380Y-134360476D01*
X73582380Y-133455714D02*
X73582380Y-133931904D01*
X74058571Y-133979523D01*
X74010952Y-133931904D01*
X73963333Y-133836666D01*
X73963333Y-133598571D01*
X74010952Y-133503333D01*
X74058571Y-133455714D01*
X74153809Y-133408095D01*
X74391904Y-133408095D01*
X74487142Y-133455714D01*
X74534761Y-133503333D01*
X74582380Y-133598571D01*
X74582380Y-133836666D01*
X74534761Y-133931904D01*
X74487142Y-133979523D01*
%TO.C,R24*%
X99277142Y-123822380D02*
X98943809Y-123346190D01*
X98705714Y-123822380D02*
X98705714Y-122822380D01*
X99086666Y-122822380D01*
X99181904Y-122870000D01*
X99229523Y-122917619D01*
X99277142Y-123012857D01*
X99277142Y-123155714D01*
X99229523Y-123250952D01*
X99181904Y-123298571D01*
X99086666Y-123346190D01*
X98705714Y-123346190D01*
X99658095Y-122917619D02*
X99705714Y-122870000D01*
X99800952Y-122822380D01*
X100039047Y-122822380D01*
X100134285Y-122870000D01*
X100181904Y-122917619D01*
X100229523Y-123012857D01*
X100229523Y-123108095D01*
X100181904Y-123250952D01*
X99610476Y-123822380D01*
X100229523Y-123822380D01*
X101086666Y-123155714D02*
X101086666Y-123822380D01*
X100848571Y-122774761D02*
X100610476Y-123489047D01*
X101229523Y-123489047D01*
%TO.C,R23*%
X122322380Y-131222857D02*
X121846190Y-131556190D01*
X122322380Y-131794285D02*
X121322380Y-131794285D01*
X121322380Y-131413333D01*
X121370000Y-131318095D01*
X121417619Y-131270476D01*
X121512857Y-131222857D01*
X121655714Y-131222857D01*
X121750952Y-131270476D01*
X121798571Y-131318095D01*
X121846190Y-131413333D01*
X121846190Y-131794285D01*
X121417619Y-130841904D02*
X121370000Y-130794285D01*
X121322380Y-130699047D01*
X121322380Y-130460952D01*
X121370000Y-130365714D01*
X121417619Y-130318095D01*
X121512857Y-130270476D01*
X121608095Y-130270476D01*
X121750952Y-130318095D01*
X122322380Y-130889523D01*
X122322380Y-130270476D01*
X121322380Y-129937142D02*
X121322380Y-129318095D01*
X121703333Y-129651428D01*
X121703333Y-129508571D01*
X121750952Y-129413333D01*
X121798571Y-129365714D01*
X121893809Y-129318095D01*
X122131904Y-129318095D01*
X122227142Y-129365714D01*
X122274761Y-129413333D01*
X122322380Y-129508571D01*
X122322380Y-129794285D01*
X122274761Y-129889523D01*
X122227142Y-129937142D01*
%TO.C,U5*%
X122622380Y-131571904D02*
X123431904Y-131571904D01*
X123527142Y-131524285D01*
X123574761Y-131476666D01*
X123622380Y-131381428D01*
X123622380Y-131190952D01*
X123574761Y-131095714D01*
X123527142Y-131048095D01*
X123431904Y-131000476D01*
X122622380Y-131000476D01*
X122622380Y-130048095D02*
X122622380Y-130524285D01*
X123098571Y-130571904D01*
X123050952Y-130524285D01*
X123003333Y-130429047D01*
X123003333Y-130190952D01*
X123050952Y-130095714D01*
X123098571Y-130048095D01*
X123193809Y-130000476D01*
X123431904Y-130000476D01*
X123527142Y-130048095D01*
X123574761Y-130095714D01*
X123622380Y-130190952D01*
X123622380Y-130429047D01*
X123574761Y-130524285D01*
X123527142Y-130571904D01*
%TO.C,R22*%
X159937142Y-121082380D02*
X159603809Y-120606190D01*
X159365714Y-121082380D02*
X159365714Y-120082380D01*
X159746666Y-120082380D01*
X159841904Y-120130000D01*
X159889523Y-120177619D01*
X159937142Y-120272857D01*
X159937142Y-120415714D01*
X159889523Y-120510952D01*
X159841904Y-120558571D01*
X159746666Y-120606190D01*
X159365714Y-120606190D01*
X160318095Y-120177619D02*
X160365714Y-120130000D01*
X160460952Y-120082380D01*
X160699047Y-120082380D01*
X160794285Y-120130000D01*
X160841904Y-120177619D01*
X160889523Y-120272857D01*
X160889523Y-120368095D01*
X160841904Y-120510952D01*
X160270476Y-121082380D01*
X160889523Y-121082380D01*
X161270476Y-120177619D02*
X161318095Y-120130000D01*
X161413333Y-120082380D01*
X161651428Y-120082380D01*
X161746666Y-120130000D01*
X161794285Y-120177619D01*
X161841904Y-120272857D01*
X161841904Y-120368095D01*
X161794285Y-120510952D01*
X161222857Y-121082380D01*
X161841904Y-121082380D01*
%TO.C,C1*%
X174333333Y-120857142D02*
X174285714Y-120904761D01*
X174142857Y-120952380D01*
X174047619Y-120952380D01*
X173904761Y-120904761D01*
X173809523Y-120809523D01*
X173761904Y-120714285D01*
X173714285Y-120523809D01*
X173714285Y-120380952D01*
X173761904Y-120190476D01*
X173809523Y-120095238D01*
X173904761Y-120000000D01*
X174047619Y-119952380D01*
X174142857Y-119952380D01*
X174285714Y-120000000D01*
X174333333Y-120047619D01*
X175285714Y-120952380D02*
X174714285Y-120952380D01*
X175000000Y-120952380D02*
X175000000Y-119952380D01*
X174904761Y-120095238D01*
X174809523Y-120190476D01*
X174714285Y-120238095D01*
%TO.C,H4*%
X54238095Y-141252380D02*
X54238095Y-140252380D01*
X54238095Y-140728571D02*
X54809523Y-140728571D01*
X54809523Y-141252380D02*
X54809523Y-140252380D01*
X55714285Y-140585714D02*
X55714285Y-141252380D01*
X55476190Y-140204761D02*
X55238095Y-140919047D01*
X55857142Y-140919047D01*
%TO.C,H3*%
X184238095Y-141252380D02*
X184238095Y-140252380D01*
X184238095Y-140728571D02*
X184809523Y-140728571D01*
X184809523Y-141252380D02*
X184809523Y-140252380D01*
X185190476Y-140252380D02*
X185809523Y-140252380D01*
X185476190Y-140633333D01*
X185619047Y-140633333D01*
X185714285Y-140680952D01*
X185761904Y-140728571D01*
X185809523Y-140823809D01*
X185809523Y-141061904D01*
X185761904Y-141157142D01*
X185714285Y-141204761D01*
X185619047Y-141252380D01*
X185333333Y-141252380D01*
X185238095Y-141204761D01*
X185190476Y-141157142D01*
%TO.C,H2*%
X184238095Y-51252380D02*
X184238095Y-50252380D01*
X184238095Y-50728571D02*
X184809523Y-50728571D01*
X184809523Y-51252380D02*
X184809523Y-50252380D01*
X185238095Y-50347619D02*
X185285714Y-50300000D01*
X185380952Y-50252380D01*
X185619047Y-50252380D01*
X185714285Y-50300000D01*
X185761904Y-50347619D01*
X185809523Y-50442857D01*
X185809523Y-50538095D01*
X185761904Y-50680952D01*
X185190476Y-51252380D01*
X185809523Y-51252380D01*
%TO.C,H1*%
X54238095Y-51252380D02*
X54238095Y-50252380D01*
X54238095Y-50728571D02*
X54809523Y-50728571D01*
X54809523Y-51252380D02*
X54809523Y-50252380D01*
X55809523Y-51252380D02*
X55238095Y-51252380D01*
X55523809Y-51252380D02*
X55523809Y-50252380D01*
X55428571Y-50395238D01*
X55333333Y-50490476D01*
X55238095Y-50538095D01*
%TO.C,AFF2*%
X108746666Y-66691428D02*
X108746666Y-66215238D01*
X109032380Y-66786666D02*
X108032380Y-66453333D01*
X109032380Y-66120000D01*
X108508571Y-65453333D02*
X108508571Y-65786666D01*
X109032380Y-65786666D02*
X108032380Y-65786666D01*
X108032380Y-65310476D01*
X108508571Y-64596190D02*
X108508571Y-64929523D01*
X109032380Y-64929523D02*
X108032380Y-64929523D01*
X108032380Y-64453333D01*
X108127619Y-64120000D02*
X108080000Y-64072380D01*
X108032380Y-63977142D01*
X108032380Y-63739047D01*
X108080000Y-63643809D01*
X108127619Y-63596190D01*
X108222857Y-63548571D01*
X108318095Y-63548571D01*
X108460952Y-63596190D01*
X109032380Y-64167619D01*
X109032380Y-63548571D01*
%TO.C,R2*%
X66333333Y-89452380D02*
X66000000Y-88976190D01*
X65761904Y-89452380D02*
X65761904Y-88452380D01*
X66142857Y-88452380D01*
X66238095Y-88500000D01*
X66285714Y-88547619D01*
X66333333Y-88642857D01*
X66333333Y-88785714D01*
X66285714Y-88880952D01*
X66238095Y-88928571D01*
X66142857Y-88976190D01*
X65761904Y-88976190D01*
X66714285Y-88547619D02*
X66761904Y-88500000D01*
X66857142Y-88452380D01*
X67095238Y-88452380D01*
X67190476Y-88500000D01*
X67238095Y-88547619D01*
X67285714Y-88642857D01*
X67285714Y-88738095D01*
X67238095Y-88880952D01*
X66666666Y-89452380D01*
X67285714Y-89452380D01*
X72678571Y-88880952D02*
X72583333Y-88833333D01*
X72535714Y-88785714D01*
X72488095Y-88690476D01*
X72488095Y-88642857D01*
X72535714Y-88547619D01*
X72583333Y-88500000D01*
X72678571Y-88452380D01*
X72869047Y-88452380D01*
X72964285Y-88500000D01*
X73011904Y-88547619D01*
X73059523Y-88642857D01*
X73059523Y-88690476D01*
X73011904Y-88785714D01*
X72964285Y-88833333D01*
X72869047Y-88880952D01*
X72678571Y-88880952D01*
X72583333Y-88928571D01*
X72535714Y-88976190D01*
X72488095Y-89071428D01*
X72488095Y-89261904D01*
X72535714Y-89357142D01*
X72583333Y-89404761D01*
X72678571Y-89452380D01*
X72869047Y-89452380D01*
X72964285Y-89404761D01*
X73011904Y-89357142D01*
X73059523Y-89261904D01*
X73059523Y-89071428D01*
X73011904Y-88976190D01*
X72964285Y-88928571D01*
X72869047Y-88880952D01*
X74011904Y-89452380D02*
X73440476Y-89452380D01*
X73726190Y-89452380D02*
X73726190Y-88452380D01*
X73630952Y-88595238D01*
X73535714Y-88690476D01*
X73440476Y-88738095D01*
X75011904Y-89452380D02*
X74678571Y-88976190D01*
X74440476Y-89452380D02*
X74440476Y-88452380D01*
X74821428Y-88452380D01*
X74916666Y-88500000D01*
X74964285Y-88547619D01*
X75011904Y-88642857D01*
X75011904Y-88785714D01*
X74964285Y-88880952D01*
X74916666Y-88928571D01*
X74821428Y-88976190D01*
X74440476Y-88976190D01*
%TO.C,U2*%
X62122380Y-109571904D02*
X62931904Y-109571904D01*
X63027142Y-109524285D01*
X63074761Y-109476666D01*
X63122380Y-109381428D01*
X63122380Y-109190952D01*
X63074761Y-109095714D01*
X63027142Y-109048095D01*
X62931904Y-109000476D01*
X62122380Y-109000476D01*
X62217619Y-108571904D02*
X62170000Y-108524285D01*
X62122380Y-108429047D01*
X62122380Y-108190952D01*
X62170000Y-108095714D01*
X62217619Y-108048095D01*
X62312857Y-108000476D01*
X62408095Y-108000476D01*
X62550952Y-108048095D01*
X63122380Y-108619523D01*
X63122380Y-108000476D01*
X84562380Y-111452857D02*
X84562380Y-110786190D01*
X85562380Y-111214761D01*
X84895714Y-109976666D02*
X85562380Y-109976666D01*
X84514761Y-110214761D02*
X85229047Y-110452857D01*
X85229047Y-109833809D01*
X85562380Y-108976666D02*
X85562380Y-109452857D01*
X84562380Y-109452857D01*
X85514761Y-108690952D02*
X85562380Y-108548095D01*
X85562380Y-108310000D01*
X85514761Y-108214761D01*
X85467142Y-108167142D01*
X85371904Y-108119523D01*
X85276666Y-108119523D01*
X85181428Y-108167142D01*
X85133809Y-108214761D01*
X85086190Y-108310000D01*
X85038571Y-108500476D01*
X84990952Y-108595714D01*
X84943333Y-108643333D01*
X84848095Y-108690952D01*
X84752857Y-108690952D01*
X84657619Y-108643333D01*
X84610000Y-108595714D01*
X84562380Y-108500476D01*
X84562380Y-108262380D01*
X84610000Y-108119523D01*
X84895714Y-107262380D02*
X85562380Y-107262380D01*
X84514761Y-107500476D02*
X85229047Y-107738571D01*
X85229047Y-107119523D01*
X84990952Y-106595714D02*
X84943333Y-106690952D01*
X84895714Y-106738571D01*
X84800476Y-106786190D01*
X84752857Y-106786190D01*
X84657619Y-106738571D01*
X84610000Y-106690952D01*
X84562380Y-106595714D01*
X84562380Y-106405238D01*
X84610000Y-106310000D01*
X84657619Y-106262380D01*
X84752857Y-106214761D01*
X84800476Y-106214761D01*
X84895714Y-106262380D01*
X84943333Y-106310000D01*
X84990952Y-106405238D01*
X84990952Y-106595714D01*
X85038571Y-106690952D01*
X85086190Y-106738571D01*
X85181428Y-106786190D01*
X85371904Y-106786190D01*
X85467142Y-106738571D01*
X85514761Y-106690952D01*
X85562380Y-106595714D01*
X85562380Y-106405238D01*
X85514761Y-106310000D01*
X85467142Y-106262380D01*
X85371904Y-106214761D01*
X85181428Y-106214761D01*
X85086190Y-106262380D01*
X85038571Y-106310000D01*
X84990952Y-106405238D01*
%TO.C,U4*%
X151122380Y-109571904D02*
X151931904Y-109571904D01*
X152027142Y-109524285D01*
X152074761Y-109476666D01*
X152122380Y-109381428D01*
X152122380Y-109190952D01*
X152074761Y-109095714D01*
X152027142Y-109048095D01*
X151931904Y-109000476D01*
X151122380Y-109000476D01*
X151455714Y-108095714D02*
X152122380Y-108095714D01*
X151074761Y-108333809D02*
X151789047Y-108571904D01*
X151789047Y-107952857D01*
X173562380Y-111452857D02*
X173562380Y-110786190D01*
X174562380Y-111214761D01*
X173895714Y-109976666D02*
X174562380Y-109976666D01*
X173514761Y-110214761D02*
X174229047Y-110452857D01*
X174229047Y-109833809D01*
X174562380Y-108976666D02*
X174562380Y-109452857D01*
X173562380Y-109452857D01*
X174514761Y-108690952D02*
X174562380Y-108548095D01*
X174562380Y-108310000D01*
X174514761Y-108214761D01*
X174467142Y-108167142D01*
X174371904Y-108119523D01*
X174276666Y-108119523D01*
X174181428Y-108167142D01*
X174133809Y-108214761D01*
X174086190Y-108310000D01*
X174038571Y-108500476D01*
X173990952Y-108595714D01*
X173943333Y-108643333D01*
X173848095Y-108690952D01*
X173752857Y-108690952D01*
X173657619Y-108643333D01*
X173610000Y-108595714D01*
X173562380Y-108500476D01*
X173562380Y-108262380D01*
X173610000Y-108119523D01*
X173895714Y-107262380D02*
X174562380Y-107262380D01*
X173514761Y-107500476D02*
X174229047Y-107738571D01*
X174229047Y-107119523D01*
X173990952Y-106595714D02*
X173943333Y-106690952D01*
X173895714Y-106738571D01*
X173800476Y-106786190D01*
X173752857Y-106786190D01*
X173657619Y-106738571D01*
X173610000Y-106690952D01*
X173562380Y-106595714D01*
X173562380Y-106405238D01*
X173610000Y-106310000D01*
X173657619Y-106262380D01*
X173752857Y-106214761D01*
X173800476Y-106214761D01*
X173895714Y-106262380D01*
X173943333Y-106310000D01*
X173990952Y-106405238D01*
X173990952Y-106595714D01*
X174038571Y-106690952D01*
X174086190Y-106738571D01*
X174181428Y-106786190D01*
X174371904Y-106786190D01*
X174467142Y-106738571D01*
X174514761Y-106690952D01*
X174562380Y-106595714D01*
X174562380Y-106405238D01*
X174514761Y-106310000D01*
X174467142Y-106262380D01*
X174371904Y-106214761D01*
X174181428Y-106214761D01*
X174086190Y-106262380D01*
X174038571Y-106310000D01*
X173990952Y-106405238D01*
%TO.C,U3*%
X107122380Y-109571904D02*
X107931904Y-109571904D01*
X108027142Y-109524285D01*
X108074761Y-109476666D01*
X108122380Y-109381428D01*
X108122380Y-109190952D01*
X108074761Y-109095714D01*
X108027142Y-109048095D01*
X107931904Y-109000476D01*
X107122380Y-109000476D01*
X107122380Y-108619523D02*
X107122380Y-108000476D01*
X107503333Y-108333809D01*
X107503333Y-108190952D01*
X107550952Y-108095714D01*
X107598571Y-108048095D01*
X107693809Y-108000476D01*
X107931904Y-108000476D01*
X108027142Y-108048095D01*
X108074761Y-108095714D01*
X108122380Y-108190952D01*
X108122380Y-108476666D01*
X108074761Y-108571904D01*
X108027142Y-108619523D01*
X129562380Y-111452857D02*
X129562380Y-110786190D01*
X130562380Y-111214761D01*
X129895714Y-109976666D02*
X130562380Y-109976666D01*
X129514761Y-110214761D02*
X130229047Y-110452857D01*
X130229047Y-109833809D01*
X130562380Y-108976666D02*
X130562380Y-109452857D01*
X129562380Y-109452857D01*
X130514761Y-108690952D02*
X130562380Y-108548095D01*
X130562380Y-108310000D01*
X130514761Y-108214761D01*
X130467142Y-108167142D01*
X130371904Y-108119523D01*
X130276666Y-108119523D01*
X130181428Y-108167142D01*
X130133809Y-108214761D01*
X130086190Y-108310000D01*
X130038571Y-108500476D01*
X129990952Y-108595714D01*
X129943333Y-108643333D01*
X129848095Y-108690952D01*
X129752857Y-108690952D01*
X129657619Y-108643333D01*
X129610000Y-108595714D01*
X129562380Y-108500476D01*
X129562380Y-108262380D01*
X129610000Y-108119523D01*
X129895714Y-107262380D02*
X130562380Y-107262380D01*
X129514761Y-107500476D02*
X130229047Y-107738571D01*
X130229047Y-107119523D01*
X129990952Y-106595714D02*
X129943333Y-106690952D01*
X129895714Y-106738571D01*
X129800476Y-106786190D01*
X129752857Y-106786190D01*
X129657619Y-106738571D01*
X129610000Y-106690952D01*
X129562380Y-106595714D01*
X129562380Y-106405238D01*
X129610000Y-106310000D01*
X129657619Y-106262380D01*
X129752857Y-106214761D01*
X129800476Y-106214761D01*
X129895714Y-106262380D01*
X129943333Y-106310000D01*
X129990952Y-106405238D01*
X129990952Y-106595714D01*
X130038571Y-106690952D01*
X130086190Y-106738571D01*
X130181428Y-106786190D01*
X130371904Y-106786190D01*
X130467142Y-106738571D01*
X130514761Y-106690952D01*
X130562380Y-106595714D01*
X130562380Y-106405238D01*
X130514761Y-106310000D01*
X130467142Y-106262380D01*
X130371904Y-106214761D01*
X130181428Y-106214761D01*
X130086190Y-106262380D01*
X130038571Y-106310000D01*
X129990952Y-106405238D01*
%TO.C,U1*%
X153122380Y-131571904D02*
X153931904Y-131571904D01*
X154027142Y-131524285D01*
X154074761Y-131476666D01*
X154122380Y-131381428D01*
X154122380Y-131190952D01*
X154074761Y-131095714D01*
X154027142Y-131048095D01*
X153931904Y-131000476D01*
X153122380Y-131000476D01*
X154122380Y-130000476D02*
X154122380Y-130571904D01*
X154122380Y-130286190D02*
X153122380Y-130286190D01*
X153265238Y-130381428D01*
X153360476Y-130476666D01*
X153408095Y-130571904D01*
%TO.C,R21*%
X153357142Y-91702380D02*
X153023809Y-91226190D01*
X152785714Y-91702380D02*
X152785714Y-90702380D01*
X153166666Y-90702380D01*
X153261904Y-90750000D01*
X153309523Y-90797619D01*
X153357142Y-90892857D01*
X153357142Y-91035714D01*
X153309523Y-91130952D01*
X153261904Y-91178571D01*
X153166666Y-91226190D01*
X152785714Y-91226190D01*
X153738095Y-90797619D02*
X153785714Y-90750000D01*
X153880952Y-90702380D01*
X154119047Y-90702380D01*
X154214285Y-90750000D01*
X154261904Y-90797619D01*
X154309523Y-90892857D01*
X154309523Y-90988095D01*
X154261904Y-91130952D01*
X153690476Y-91702380D01*
X154309523Y-91702380D01*
X155261904Y-91702380D02*
X154690476Y-91702380D01*
X154976190Y-91702380D02*
X154976190Y-90702380D01*
X154880952Y-90845238D01*
X154785714Y-90940476D01*
X154690476Y-90988095D01*
X145348571Y-90880952D02*
X145253333Y-90833333D01*
X145205714Y-90785714D01*
X145158095Y-90690476D01*
X145158095Y-90642857D01*
X145205714Y-90547619D01*
X145253333Y-90500000D01*
X145348571Y-90452380D01*
X145539047Y-90452380D01*
X145634285Y-90500000D01*
X145681904Y-90547619D01*
X145729523Y-90642857D01*
X145729523Y-90690476D01*
X145681904Y-90785714D01*
X145634285Y-90833333D01*
X145539047Y-90880952D01*
X145348571Y-90880952D01*
X145253333Y-90928571D01*
X145205714Y-90976190D01*
X145158095Y-91071428D01*
X145158095Y-91261904D01*
X145205714Y-91357142D01*
X145253333Y-91404761D01*
X145348571Y-91452380D01*
X145539047Y-91452380D01*
X145634285Y-91404761D01*
X145681904Y-91357142D01*
X145729523Y-91261904D01*
X145729523Y-91071428D01*
X145681904Y-90976190D01*
X145634285Y-90928571D01*
X145539047Y-90880952D01*
X146681904Y-91452380D02*
X146110476Y-91452380D01*
X146396190Y-91452380D02*
X146396190Y-90452380D01*
X146300952Y-90595238D01*
X146205714Y-90690476D01*
X146110476Y-90738095D01*
X147681904Y-91452380D02*
X147348571Y-90976190D01*
X147110476Y-91452380D02*
X147110476Y-90452380D01*
X147491428Y-90452380D01*
X147586666Y-90500000D01*
X147634285Y-90547619D01*
X147681904Y-90642857D01*
X147681904Y-90785714D01*
X147634285Y-90880952D01*
X147586666Y-90928571D01*
X147491428Y-90976190D01*
X147110476Y-90976190D01*
%TO.C,R20*%
X138702380Y-78892857D02*
X138226190Y-79226190D01*
X138702380Y-79464285D02*
X137702380Y-79464285D01*
X137702380Y-79083333D01*
X137750000Y-78988095D01*
X137797619Y-78940476D01*
X137892857Y-78892857D01*
X138035714Y-78892857D01*
X138130952Y-78940476D01*
X138178571Y-78988095D01*
X138226190Y-79083333D01*
X138226190Y-79464285D01*
X137797619Y-78511904D02*
X137750000Y-78464285D01*
X137702380Y-78369047D01*
X137702380Y-78130952D01*
X137750000Y-78035714D01*
X137797619Y-77988095D01*
X137892857Y-77940476D01*
X137988095Y-77940476D01*
X138130952Y-77988095D01*
X138702380Y-78559523D01*
X138702380Y-77940476D01*
X137702380Y-77321428D02*
X137702380Y-77226190D01*
X137750000Y-77130952D01*
X137797619Y-77083333D01*
X137892857Y-77035714D01*
X138083333Y-76988095D01*
X138321428Y-76988095D01*
X138511904Y-77035714D01*
X138607142Y-77083333D01*
X138654761Y-77130952D01*
X138702380Y-77226190D01*
X138702380Y-77321428D01*
X138654761Y-77416666D01*
X138607142Y-77464285D01*
X138511904Y-77511904D01*
X138321428Y-77559523D01*
X138083333Y-77559523D01*
X137892857Y-77511904D01*
X137797619Y-77464285D01*
X137750000Y-77416666D01*
X137702380Y-77321428D01*
X137880952Y-87151428D02*
X137833333Y-87246666D01*
X137785714Y-87294285D01*
X137690476Y-87341904D01*
X137642857Y-87341904D01*
X137547619Y-87294285D01*
X137500000Y-87246666D01*
X137452380Y-87151428D01*
X137452380Y-86960952D01*
X137500000Y-86865714D01*
X137547619Y-86818095D01*
X137642857Y-86770476D01*
X137690476Y-86770476D01*
X137785714Y-86818095D01*
X137833333Y-86865714D01*
X137880952Y-86960952D01*
X137880952Y-87151428D01*
X137928571Y-87246666D01*
X137976190Y-87294285D01*
X138071428Y-87341904D01*
X138261904Y-87341904D01*
X138357142Y-87294285D01*
X138404761Y-87246666D01*
X138452380Y-87151428D01*
X138452380Y-86960952D01*
X138404761Y-86865714D01*
X138357142Y-86818095D01*
X138261904Y-86770476D01*
X138071428Y-86770476D01*
X137976190Y-86818095D01*
X137928571Y-86865714D01*
X137880952Y-86960952D01*
X138452380Y-85818095D02*
X138452380Y-86389523D01*
X138452380Y-86103809D02*
X137452380Y-86103809D01*
X137595238Y-86199047D01*
X137690476Y-86294285D01*
X137738095Y-86389523D01*
X138452380Y-84818095D02*
X137976190Y-85151428D01*
X138452380Y-85389523D02*
X137452380Y-85389523D01*
X137452380Y-85008571D01*
X137500000Y-84913333D01*
X137547619Y-84865714D01*
X137642857Y-84818095D01*
X137785714Y-84818095D01*
X137880952Y-84865714D01*
X137928571Y-84913333D01*
X137976190Y-85008571D01*
X137976190Y-85389523D01*
%TO.C,R19*%
X183357142Y-98702380D02*
X183023809Y-98226190D01*
X182785714Y-98702380D02*
X182785714Y-97702380D01*
X183166666Y-97702380D01*
X183261904Y-97750000D01*
X183309523Y-97797619D01*
X183357142Y-97892857D01*
X183357142Y-98035714D01*
X183309523Y-98130952D01*
X183261904Y-98178571D01*
X183166666Y-98226190D01*
X182785714Y-98226190D01*
X184309523Y-98702380D02*
X183738095Y-98702380D01*
X184023809Y-98702380D02*
X184023809Y-97702380D01*
X183928571Y-97845238D01*
X183833333Y-97940476D01*
X183738095Y-97988095D01*
X184785714Y-98702380D02*
X184976190Y-98702380D01*
X185071428Y-98654761D01*
X185119047Y-98607142D01*
X185214285Y-98464285D01*
X185261904Y-98273809D01*
X185261904Y-97892857D01*
X185214285Y-97797619D01*
X185166666Y-97750000D01*
X185071428Y-97702380D01*
X184880952Y-97702380D01*
X184785714Y-97750000D01*
X184738095Y-97797619D01*
X184690476Y-97892857D01*
X184690476Y-98130952D01*
X184738095Y-98226190D01*
X184785714Y-98273809D01*
X184880952Y-98321428D01*
X185071428Y-98321428D01*
X185166666Y-98273809D01*
X185214285Y-98226190D01*
X185261904Y-98130952D01*
X174758571Y-98130952D02*
X174663333Y-98083333D01*
X174615714Y-98035714D01*
X174568095Y-97940476D01*
X174568095Y-97892857D01*
X174615714Y-97797619D01*
X174663333Y-97750000D01*
X174758571Y-97702380D01*
X174949047Y-97702380D01*
X175044285Y-97750000D01*
X175091904Y-97797619D01*
X175139523Y-97892857D01*
X175139523Y-97940476D01*
X175091904Y-98035714D01*
X175044285Y-98083333D01*
X174949047Y-98130952D01*
X174758571Y-98130952D01*
X174663333Y-98178571D01*
X174615714Y-98226190D01*
X174568095Y-98321428D01*
X174568095Y-98511904D01*
X174615714Y-98607142D01*
X174663333Y-98654761D01*
X174758571Y-98702380D01*
X174949047Y-98702380D01*
X175044285Y-98654761D01*
X175091904Y-98607142D01*
X175139523Y-98511904D01*
X175139523Y-98321428D01*
X175091904Y-98226190D01*
X175044285Y-98178571D01*
X174949047Y-98130952D01*
X176091904Y-98702380D02*
X175520476Y-98702380D01*
X175806190Y-98702380D02*
X175806190Y-97702380D01*
X175710952Y-97845238D01*
X175615714Y-97940476D01*
X175520476Y-97988095D01*
X177091904Y-98702380D02*
X176758571Y-98226190D01*
X176520476Y-98702380D02*
X176520476Y-97702380D01*
X176901428Y-97702380D01*
X176996666Y-97750000D01*
X177044285Y-97797619D01*
X177091904Y-97892857D01*
X177091904Y-98035714D01*
X177044285Y-98130952D01*
X176996666Y-98178571D01*
X176901428Y-98226190D01*
X176520476Y-98226190D01*
%TO.C,R18*%
X178357142Y-94702380D02*
X178023809Y-94226190D01*
X177785714Y-94702380D02*
X177785714Y-93702380D01*
X178166666Y-93702380D01*
X178261904Y-93750000D01*
X178309523Y-93797619D01*
X178357142Y-93892857D01*
X178357142Y-94035714D01*
X178309523Y-94130952D01*
X178261904Y-94178571D01*
X178166666Y-94226190D01*
X177785714Y-94226190D01*
X179309523Y-94702380D02*
X178738095Y-94702380D01*
X179023809Y-94702380D02*
X179023809Y-93702380D01*
X178928571Y-93845238D01*
X178833333Y-93940476D01*
X178738095Y-93988095D01*
X179880952Y-94130952D02*
X179785714Y-94083333D01*
X179738095Y-94035714D01*
X179690476Y-93940476D01*
X179690476Y-93892857D01*
X179738095Y-93797619D01*
X179785714Y-93750000D01*
X179880952Y-93702380D01*
X180071428Y-93702380D01*
X180166666Y-93750000D01*
X180214285Y-93797619D01*
X180261904Y-93892857D01*
X180261904Y-93940476D01*
X180214285Y-94035714D01*
X180166666Y-94083333D01*
X180071428Y-94130952D01*
X179880952Y-94130952D01*
X179785714Y-94178571D01*
X179738095Y-94226190D01*
X179690476Y-94321428D01*
X179690476Y-94511904D01*
X179738095Y-94607142D01*
X179785714Y-94654761D01*
X179880952Y-94702380D01*
X180071428Y-94702380D01*
X180166666Y-94654761D01*
X180214285Y-94607142D01*
X180261904Y-94511904D01*
X180261904Y-94321428D01*
X180214285Y-94226190D01*
X180166666Y-94178571D01*
X180071428Y-94130952D01*
X170178571Y-94130952D02*
X170083333Y-94083333D01*
X170035714Y-94035714D01*
X169988095Y-93940476D01*
X169988095Y-93892857D01*
X170035714Y-93797619D01*
X170083333Y-93750000D01*
X170178571Y-93702380D01*
X170369047Y-93702380D01*
X170464285Y-93750000D01*
X170511904Y-93797619D01*
X170559523Y-93892857D01*
X170559523Y-93940476D01*
X170511904Y-94035714D01*
X170464285Y-94083333D01*
X170369047Y-94130952D01*
X170178571Y-94130952D01*
X170083333Y-94178571D01*
X170035714Y-94226190D01*
X169988095Y-94321428D01*
X169988095Y-94511904D01*
X170035714Y-94607142D01*
X170083333Y-94654761D01*
X170178571Y-94702380D01*
X170369047Y-94702380D01*
X170464285Y-94654761D01*
X170511904Y-94607142D01*
X170559523Y-94511904D01*
X170559523Y-94321428D01*
X170511904Y-94226190D01*
X170464285Y-94178571D01*
X170369047Y-94130952D01*
X171511904Y-94702380D02*
X170940476Y-94702380D01*
X171226190Y-94702380D02*
X171226190Y-93702380D01*
X171130952Y-93845238D01*
X171035714Y-93940476D01*
X170940476Y-93988095D01*
X172511904Y-94702380D02*
X172178571Y-94226190D01*
X171940476Y-94702380D02*
X171940476Y-93702380D01*
X172321428Y-93702380D01*
X172416666Y-93750000D01*
X172464285Y-93797619D01*
X172511904Y-93892857D01*
X172511904Y-94035714D01*
X172464285Y-94130952D01*
X172416666Y-94178571D01*
X172321428Y-94226190D01*
X171940476Y-94226190D01*
%TO.C,R17*%
X176607142Y-90702380D02*
X176273809Y-90226190D01*
X176035714Y-90702380D02*
X176035714Y-89702380D01*
X176416666Y-89702380D01*
X176511904Y-89750000D01*
X176559523Y-89797619D01*
X176607142Y-89892857D01*
X176607142Y-90035714D01*
X176559523Y-90130952D01*
X176511904Y-90178571D01*
X176416666Y-90226190D01*
X176035714Y-90226190D01*
X177559523Y-90702380D02*
X176988095Y-90702380D01*
X177273809Y-90702380D02*
X177273809Y-89702380D01*
X177178571Y-89845238D01*
X177083333Y-89940476D01*
X176988095Y-89988095D01*
X177892857Y-89702380D02*
X178559523Y-89702380D01*
X178130952Y-90702380D01*
X167258571Y-90130952D02*
X167163333Y-90083333D01*
X167115714Y-90035714D01*
X167068095Y-89940476D01*
X167068095Y-89892857D01*
X167115714Y-89797619D01*
X167163333Y-89750000D01*
X167258571Y-89702380D01*
X167449047Y-89702380D01*
X167544285Y-89750000D01*
X167591904Y-89797619D01*
X167639523Y-89892857D01*
X167639523Y-89940476D01*
X167591904Y-90035714D01*
X167544285Y-90083333D01*
X167449047Y-90130952D01*
X167258571Y-90130952D01*
X167163333Y-90178571D01*
X167115714Y-90226190D01*
X167068095Y-90321428D01*
X167068095Y-90511904D01*
X167115714Y-90607142D01*
X167163333Y-90654761D01*
X167258571Y-90702380D01*
X167449047Y-90702380D01*
X167544285Y-90654761D01*
X167591904Y-90607142D01*
X167639523Y-90511904D01*
X167639523Y-90321428D01*
X167591904Y-90226190D01*
X167544285Y-90178571D01*
X167449047Y-90130952D01*
X168591904Y-90702380D02*
X168020476Y-90702380D01*
X168306190Y-90702380D02*
X168306190Y-89702380D01*
X168210952Y-89845238D01*
X168115714Y-89940476D01*
X168020476Y-89988095D01*
X169591904Y-90702380D02*
X169258571Y-90226190D01*
X169020476Y-90702380D02*
X169020476Y-89702380D01*
X169401428Y-89702380D01*
X169496666Y-89750000D01*
X169544285Y-89797619D01*
X169591904Y-89892857D01*
X169591904Y-90035714D01*
X169544285Y-90130952D01*
X169496666Y-90178571D01*
X169401428Y-90226190D01*
X169020476Y-90226190D01*
%TO.C,R16*%
X160607142Y-98952380D02*
X160273809Y-98476190D01*
X160035714Y-98952380D02*
X160035714Y-97952380D01*
X160416666Y-97952380D01*
X160511904Y-98000000D01*
X160559523Y-98047619D01*
X160607142Y-98142857D01*
X160607142Y-98285714D01*
X160559523Y-98380952D01*
X160511904Y-98428571D01*
X160416666Y-98476190D01*
X160035714Y-98476190D01*
X161559523Y-98952380D02*
X160988095Y-98952380D01*
X161273809Y-98952380D02*
X161273809Y-97952380D01*
X161178571Y-98095238D01*
X161083333Y-98190476D01*
X160988095Y-98238095D01*
X162416666Y-97952380D02*
X162226190Y-97952380D01*
X162130952Y-98000000D01*
X162083333Y-98047619D01*
X161988095Y-98190476D01*
X161940476Y-98380952D01*
X161940476Y-98761904D01*
X161988095Y-98857142D01*
X162035714Y-98904761D01*
X162130952Y-98952380D01*
X162321428Y-98952380D01*
X162416666Y-98904761D01*
X162464285Y-98857142D01*
X162511904Y-98761904D01*
X162511904Y-98523809D01*
X162464285Y-98428571D01*
X162416666Y-98380952D01*
X162321428Y-98333333D01*
X162130952Y-98333333D01*
X162035714Y-98380952D01*
X161988095Y-98428571D01*
X161940476Y-98523809D01*
X152428571Y-98380952D02*
X152333333Y-98333333D01*
X152285714Y-98285714D01*
X152238095Y-98190476D01*
X152238095Y-98142857D01*
X152285714Y-98047619D01*
X152333333Y-98000000D01*
X152428571Y-97952380D01*
X152619047Y-97952380D01*
X152714285Y-98000000D01*
X152761904Y-98047619D01*
X152809523Y-98142857D01*
X152809523Y-98190476D01*
X152761904Y-98285714D01*
X152714285Y-98333333D01*
X152619047Y-98380952D01*
X152428571Y-98380952D01*
X152333333Y-98428571D01*
X152285714Y-98476190D01*
X152238095Y-98571428D01*
X152238095Y-98761904D01*
X152285714Y-98857142D01*
X152333333Y-98904761D01*
X152428571Y-98952380D01*
X152619047Y-98952380D01*
X152714285Y-98904761D01*
X152761904Y-98857142D01*
X152809523Y-98761904D01*
X152809523Y-98571428D01*
X152761904Y-98476190D01*
X152714285Y-98428571D01*
X152619047Y-98380952D01*
X153761904Y-98952380D02*
X153190476Y-98952380D01*
X153476190Y-98952380D02*
X153476190Y-97952380D01*
X153380952Y-98095238D01*
X153285714Y-98190476D01*
X153190476Y-98238095D01*
X154761904Y-98952380D02*
X154428571Y-98476190D01*
X154190476Y-98952380D02*
X154190476Y-97952380D01*
X154571428Y-97952380D01*
X154666666Y-98000000D01*
X154714285Y-98047619D01*
X154761904Y-98142857D01*
X154761904Y-98285714D01*
X154714285Y-98380952D01*
X154666666Y-98428571D01*
X154571428Y-98476190D01*
X154190476Y-98476190D01*
%TO.C,R15*%
X157857142Y-95452380D02*
X157523809Y-94976190D01*
X157285714Y-95452380D02*
X157285714Y-94452380D01*
X157666666Y-94452380D01*
X157761904Y-94500000D01*
X157809523Y-94547619D01*
X157857142Y-94642857D01*
X157857142Y-94785714D01*
X157809523Y-94880952D01*
X157761904Y-94928571D01*
X157666666Y-94976190D01*
X157285714Y-94976190D01*
X158809523Y-95452380D02*
X158238095Y-95452380D01*
X158523809Y-95452380D02*
X158523809Y-94452380D01*
X158428571Y-94595238D01*
X158333333Y-94690476D01*
X158238095Y-94738095D01*
X159714285Y-94452380D02*
X159238095Y-94452380D01*
X159190476Y-94928571D01*
X159238095Y-94880952D01*
X159333333Y-94833333D01*
X159571428Y-94833333D01*
X159666666Y-94880952D01*
X159714285Y-94928571D01*
X159761904Y-95023809D01*
X159761904Y-95261904D01*
X159714285Y-95357142D01*
X159666666Y-95404761D01*
X159571428Y-95452380D01*
X159333333Y-95452380D01*
X159238095Y-95404761D01*
X159190476Y-95357142D01*
%TO.C,R14*%
X100527142Y-93832380D02*
X100193809Y-93356190D01*
X99955714Y-93832380D02*
X99955714Y-92832380D01*
X100336666Y-92832380D01*
X100431904Y-92880000D01*
X100479523Y-92927619D01*
X100527142Y-93022857D01*
X100527142Y-93165714D01*
X100479523Y-93260952D01*
X100431904Y-93308571D01*
X100336666Y-93356190D01*
X99955714Y-93356190D01*
X101479523Y-93832380D02*
X100908095Y-93832380D01*
X101193809Y-93832380D02*
X101193809Y-92832380D01*
X101098571Y-92975238D01*
X101003333Y-93070476D01*
X100908095Y-93118095D01*
X102336666Y-93165714D02*
X102336666Y-93832380D01*
X102098571Y-92784761D02*
X101860476Y-93499047D01*
X102479523Y-93499047D01*
%TO.C,R13*%
X92452380Y-78892857D02*
X91976190Y-79226190D01*
X92452380Y-79464285D02*
X91452380Y-79464285D01*
X91452380Y-79083333D01*
X91500000Y-78988095D01*
X91547619Y-78940476D01*
X91642857Y-78892857D01*
X91785714Y-78892857D01*
X91880952Y-78940476D01*
X91928571Y-78988095D01*
X91976190Y-79083333D01*
X91976190Y-79464285D01*
X92452380Y-77940476D02*
X92452380Y-78511904D01*
X92452380Y-78226190D02*
X91452380Y-78226190D01*
X91595238Y-78321428D01*
X91690476Y-78416666D01*
X91738095Y-78511904D01*
X91452380Y-77607142D02*
X91452380Y-76988095D01*
X91833333Y-77321428D01*
X91833333Y-77178571D01*
X91880952Y-77083333D01*
X91928571Y-77035714D01*
X92023809Y-76988095D01*
X92261904Y-76988095D01*
X92357142Y-77035714D01*
X92404761Y-77083333D01*
X92452380Y-77178571D01*
X92452380Y-77464285D01*
X92404761Y-77559523D01*
X92357142Y-77607142D01*
X91880952Y-87071428D02*
X91833333Y-87166666D01*
X91785714Y-87214285D01*
X91690476Y-87261904D01*
X91642857Y-87261904D01*
X91547619Y-87214285D01*
X91500000Y-87166666D01*
X91452380Y-87071428D01*
X91452380Y-86880952D01*
X91500000Y-86785714D01*
X91547619Y-86738095D01*
X91642857Y-86690476D01*
X91690476Y-86690476D01*
X91785714Y-86738095D01*
X91833333Y-86785714D01*
X91880952Y-86880952D01*
X91880952Y-87071428D01*
X91928571Y-87166666D01*
X91976190Y-87214285D01*
X92071428Y-87261904D01*
X92261904Y-87261904D01*
X92357142Y-87214285D01*
X92404761Y-87166666D01*
X92452380Y-87071428D01*
X92452380Y-86880952D01*
X92404761Y-86785714D01*
X92357142Y-86738095D01*
X92261904Y-86690476D01*
X92071428Y-86690476D01*
X91976190Y-86738095D01*
X91928571Y-86785714D01*
X91880952Y-86880952D01*
X92452380Y-85738095D02*
X92452380Y-86309523D01*
X92452380Y-86023809D02*
X91452380Y-86023809D01*
X91595238Y-86119047D01*
X91690476Y-86214285D01*
X91738095Y-86309523D01*
X92452380Y-84738095D02*
X91976190Y-85071428D01*
X92452380Y-85309523D02*
X91452380Y-85309523D01*
X91452380Y-84928571D01*
X91500000Y-84833333D01*
X91547619Y-84785714D01*
X91642857Y-84738095D01*
X91785714Y-84738095D01*
X91880952Y-84785714D01*
X91928571Y-84833333D01*
X91976190Y-84928571D01*
X91976190Y-85309523D01*
%TO.C,R12*%
X133452380Y-78892857D02*
X132976190Y-79226190D01*
X133452380Y-79464285D02*
X132452380Y-79464285D01*
X132452380Y-79083333D01*
X132500000Y-78988095D01*
X132547619Y-78940476D01*
X132642857Y-78892857D01*
X132785714Y-78892857D01*
X132880952Y-78940476D01*
X132928571Y-78988095D01*
X132976190Y-79083333D01*
X132976190Y-79464285D01*
X133452380Y-77940476D02*
X133452380Y-78511904D01*
X133452380Y-78226190D02*
X132452380Y-78226190D01*
X132595238Y-78321428D01*
X132690476Y-78416666D01*
X132738095Y-78511904D01*
X132547619Y-77559523D02*
X132500000Y-77511904D01*
X132452380Y-77416666D01*
X132452380Y-77178571D01*
X132500000Y-77083333D01*
X132547619Y-77035714D01*
X132642857Y-76988095D01*
X132738095Y-76988095D01*
X132880952Y-77035714D01*
X133452380Y-77607142D01*
X133452380Y-76988095D01*
X132880952Y-87151428D02*
X132833333Y-87246666D01*
X132785714Y-87294285D01*
X132690476Y-87341904D01*
X132642857Y-87341904D01*
X132547619Y-87294285D01*
X132500000Y-87246666D01*
X132452380Y-87151428D01*
X132452380Y-86960952D01*
X132500000Y-86865714D01*
X132547619Y-86818095D01*
X132642857Y-86770476D01*
X132690476Y-86770476D01*
X132785714Y-86818095D01*
X132833333Y-86865714D01*
X132880952Y-86960952D01*
X132880952Y-87151428D01*
X132928571Y-87246666D01*
X132976190Y-87294285D01*
X133071428Y-87341904D01*
X133261904Y-87341904D01*
X133357142Y-87294285D01*
X133404761Y-87246666D01*
X133452380Y-87151428D01*
X133452380Y-86960952D01*
X133404761Y-86865714D01*
X133357142Y-86818095D01*
X133261904Y-86770476D01*
X133071428Y-86770476D01*
X132976190Y-86818095D01*
X132928571Y-86865714D01*
X132880952Y-86960952D01*
X133452380Y-85818095D02*
X133452380Y-86389523D01*
X133452380Y-86103809D02*
X132452380Y-86103809D01*
X132595238Y-86199047D01*
X132690476Y-86294285D01*
X132738095Y-86389523D01*
X133452380Y-84818095D02*
X132976190Y-85151428D01*
X133452380Y-85389523D02*
X132452380Y-85389523D01*
X132452380Y-85008571D01*
X132500000Y-84913333D01*
X132547619Y-84865714D01*
X132642857Y-84818095D01*
X132785714Y-84818095D01*
X132880952Y-84865714D01*
X132928571Y-84913333D01*
X132976190Y-85008571D01*
X132976190Y-85389523D01*
%TO.C,R11*%
X135607142Y-96702380D02*
X135273809Y-96226190D01*
X135035714Y-96702380D02*
X135035714Y-95702380D01*
X135416666Y-95702380D01*
X135511904Y-95750000D01*
X135559523Y-95797619D01*
X135607142Y-95892857D01*
X135607142Y-96035714D01*
X135559523Y-96130952D01*
X135511904Y-96178571D01*
X135416666Y-96226190D01*
X135035714Y-96226190D01*
X136559523Y-96702380D02*
X135988095Y-96702380D01*
X136273809Y-96702380D02*
X136273809Y-95702380D01*
X136178571Y-95845238D01*
X136083333Y-95940476D01*
X135988095Y-95988095D01*
X137511904Y-96702380D02*
X136940476Y-96702380D01*
X137226190Y-96702380D02*
X137226190Y-95702380D01*
X137130952Y-95845238D01*
X137035714Y-95940476D01*
X136940476Y-95988095D01*
X127008571Y-95880952D02*
X126913333Y-95833333D01*
X126865714Y-95785714D01*
X126818095Y-95690476D01*
X126818095Y-95642857D01*
X126865714Y-95547619D01*
X126913333Y-95500000D01*
X127008571Y-95452380D01*
X127199047Y-95452380D01*
X127294285Y-95500000D01*
X127341904Y-95547619D01*
X127389523Y-95642857D01*
X127389523Y-95690476D01*
X127341904Y-95785714D01*
X127294285Y-95833333D01*
X127199047Y-95880952D01*
X127008571Y-95880952D01*
X126913333Y-95928571D01*
X126865714Y-95976190D01*
X126818095Y-96071428D01*
X126818095Y-96261904D01*
X126865714Y-96357142D01*
X126913333Y-96404761D01*
X127008571Y-96452380D01*
X127199047Y-96452380D01*
X127294285Y-96404761D01*
X127341904Y-96357142D01*
X127389523Y-96261904D01*
X127389523Y-96071428D01*
X127341904Y-95976190D01*
X127294285Y-95928571D01*
X127199047Y-95880952D01*
X128341904Y-96452380D02*
X127770476Y-96452380D01*
X128056190Y-96452380D02*
X128056190Y-95452380D01*
X127960952Y-95595238D01*
X127865714Y-95690476D01*
X127770476Y-95738095D01*
X129341904Y-96452380D02*
X129008571Y-95976190D01*
X128770476Y-96452380D02*
X128770476Y-95452380D01*
X129151428Y-95452380D01*
X129246666Y-95500000D01*
X129294285Y-95547619D01*
X129341904Y-95642857D01*
X129341904Y-95785714D01*
X129294285Y-95880952D01*
X129246666Y-95928571D01*
X129151428Y-95976190D01*
X128770476Y-95976190D01*
%TO.C,R10*%
X128857142Y-93202380D02*
X128523809Y-92726190D01*
X128285714Y-93202380D02*
X128285714Y-92202380D01*
X128666666Y-92202380D01*
X128761904Y-92250000D01*
X128809523Y-92297619D01*
X128857142Y-92392857D01*
X128857142Y-92535714D01*
X128809523Y-92630952D01*
X128761904Y-92678571D01*
X128666666Y-92726190D01*
X128285714Y-92726190D01*
X129809523Y-93202380D02*
X129238095Y-93202380D01*
X129523809Y-93202380D02*
X129523809Y-92202380D01*
X129428571Y-92345238D01*
X129333333Y-92440476D01*
X129238095Y-92488095D01*
X130428571Y-92202380D02*
X130523809Y-92202380D01*
X130619047Y-92250000D01*
X130666666Y-92297619D01*
X130714285Y-92392857D01*
X130761904Y-92583333D01*
X130761904Y-92821428D01*
X130714285Y-93011904D01*
X130666666Y-93107142D01*
X130619047Y-93154761D01*
X130523809Y-93202380D01*
X130428571Y-93202380D01*
X130333333Y-93154761D01*
X130285714Y-93107142D01*
X130238095Y-93011904D01*
X130190476Y-92821428D01*
X130190476Y-92583333D01*
X130238095Y-92392857D01*
X130285714Y-92297619D01*
X130333333Y-92250000D01*
X130428571Y-92202380D01*
X120428571Y-92880952D02*
X120333333Y-92833333D01*
X120285714Y-92785714D01*
X120238095Y-92690476D01*
X120238095Y-92642857D01*
X120285714Y-92547619D01*
X120333333Y-92500000D01*
X120428571Y-92452380D01*
X120619047Y-92452380D01*
X120714285Y-92500000D01*
X120761904Y-92547619D01*
X120809523Y-92642857D01*
X120809523Y-92690476D01*
X120761904Y-92785714D01*
X120714285Y-92833333D01*
X120619047Y-92880952D01*
X120428571Y-92880952D01*
X120333333Y-92928571D01*
X120285714Y-92976190D01*
X120238095Y-93071428D01*
X120238095Y-93261904D01*
X120285714Y-93357142D01*
X120333333Y-93404761D01*
X120428571Y-93452380D01*
X120619047Y-93452380D01*
X120714285Y-93404761D01*
X120761904Y-93357142D01*
X120809523Y-93261904D01*
X120809523Y-93071428D01*
X120761904Y-92976190D01*
X120714285Y-92928571D01*
X120619047Y-92880952D01*
X121761904Y-93452380D02*
X121190476Y-93452380D01*
X121476190Y-93452380D02*
X121476190Y-92452380D01*
X121380952Y-92595238D01*
X121285714Y-92690476D01*
X121190476Y-92738095D01*
X122761904Y-93452380D02*
X122428571Y-92976190D01*
X122190476Y-93452380D02*
X122190476Y-92452380D01*
X122571428Y-92452380D01*
X122666666Y-92500000D01*
X122714285Y-92547619D01*
X122761904Y-92642857D01*
X122761904Y-92785714D01*
X122714285Y-92880952D01*
X122666666Y-92928571D01*
X122571428Y-92976190D01*
X122190476Y-92976190D01*
%TO.C,R9*%
X127083333Y-90202380D02*
X126750000Y-89726190D01*
X126511904Y-90202380D02*
X126511904Y-89202380D01*
X126892857Y-89202380D01*
X126988095Y-89250000D01*
X127035714Y-89297619D01*
X127083333Y-89392857D01*
X127083333Y-89535714D01*
X127035714Y-89630952D01*
X126988095Y-89678571D01*
X126892857Y-89726190D01*
X126511904Y-89726190D01*
X127559523Y-90202380D02*
X127750000Y-90202380D01*
X127845238Y-90154761D01*
X127892857Y-90107142D01*
X127988095Y-89964285D01*
X128035714Y-89773809D01*
X128035714Y-89392857D01*
X127988095Y-89297619D01*
X127940476Y-89250000D01*
X127845238Y-89202380D01*
X127654761Y-89202380D01*
X127559523Y-89250000D01*
X127511904Y-89297619D01*
X127464285Y-89392857D01*
X127464285Y-89630952D01*
X127511904Y-89726190D01*
X127559523Y-89773809D01*
X127654761Y-89821428D01*
X127845238Y-89821428D01*
X127940476Y-89773809D01*
X127988095Y-89726190D01*
X128035714Y-89630952D01*
X118928571Y-89630952D02*
X118833333Y-89583333D01*
X118785714Y-89535714D01*
X118738095Y-89440476D01*
X118738095Y-89392857D01*
X118785714Y-89297619D01*
X118833333Y-89250000D01*
X118928571Y-89202380D01*
X119119047Y-89202380D01*
X119214285Y-89250000D01*
X119261904Y-89297619D01*
X119309523Y-89392857D01*
X119309523Y-89440476D01*
X119261904Y-89535714D01*
X119214285Y-89583333D01*
X119119047Y-89630952D01*
X118928571Y-89630952D01*
X118833333Y-89678571D01*
X118785714Y-89726190D01*
X118738095Y-89821428D01*
X118738095Y-90011904D01*
X118785714Y-90107142D01*
X118833333Y-90154761D01*
X118928571Y-90202380D01*
X119119047Y-90202380D01*
X119214285Y-90154761D01*
X119261904Y-90107142D01*
X119309523Y-90011904D01*
X119309523Y-89821428D01*
X119261904Y-89726190D01*
X119214285Y-89678571D01*
X119119047Y-89630952D01*
X120261904Y-90202380D02*
X119690476Y-90202380D01*
X119976190Y-90202380D02*
X119976190Y-89202380D01*
X119880952Y-89345238D01*
X119785714Y-89440476D01*
X119690476Y-89488095D01*
X121261904Y-90202380D02*
X120928571Y-89726190D01*
X120690476Y-90202380D02*
X120690476Y-89202380D01*
X121071428Y-89202380D01*
X121166666Y-89250000D01*
X121214285Y-89297619D01*
X121261904Y-89392857D01*
X121261904Y-89535714D01*
X121214285Y-89630952D01*
X121166666Y-89678571D01*
X121071428Y-89726190D01*
X120690476Y-89726190D01*
%TO.C,R8*%
X101003333Y-88832380D02*
X100670000Y-88356190D01*
X100431904Y-88832380D02*
X100431904Y-87832380D01*
X100812857Y-87832380D01*
X100908095Y-87880000D01*
X100955714Y-87927619D01*
X101003333Y-88022857D01*
X101003333Y-88165714D01*
X100955714Y-88260952D01*
X100908095Y-88308571D01*
X100812857Y-88356190D01*
X100431904Y-88356190D01*
X101574761Y-88260952D02*
X101479523Y-88213333D01*
X101431904Y-88165714D01*
X101384285Y-88070476D01*
X101384285Y-88022857D01*
X101431904Y-87927619D01*
X101479523Y-87880000D01*
X101574761Y-87832380D01*
X101765238Y-87832380D01*
X101860476Y-87880000D01*
X101908095Y-87927619D01*
X101955714Y-88022857D01*
X101955714Y-88070476D01*
X101908095Y-88165714D01*
X101860476Y-88213333D01*
X101765238Y-88260952D01*
X101574761Y-88260952D01*
X101479523Y-88308571D01*
X101431904Y-88356190D01*
X101384285Y-88451428D01*
X101384285Y-88641904D01*
X101431904Y-88737142D01*
X101479523Y-88784761D01*
X101574761Y-88832380D01*
X101765238Y-88832380D01*
X101860476Y-88784761D01*
X101908095Y-88737142D01*
X101955714Y-88641904D01*
X101955714Y-88451428D01*
X101908095Y-88356190D01*
X101860476Y-88308571D01*
X101765238Y-88260952D01*
%TO.C,R7*%
X57083333Y-71202380D02*
X56750000Y-70726190D01*
X56511904Y-71202380D02*
X56511904Y-70202380D01*
X56892857Y-70202380D01*
X56988095Y-70250000D01*
X57035714Y-70297619D01*
X57083333Y-70392857D01*
X57083333Y-70535714D01*
X57035714Y-70630952D01*
X56988095Y-70678571D01*
X56892857Y-70726190D01*
X56511904Y-70726190D01*
X57416666Y-70202380D02*
X58083333Y-70202380D01*
X57654761Y-71202380D01*
X63678571Y-70630952D02*
X63583333Y-70583333D01*
X63535714Y-70535714D01*
X63488095Y-70440476D01*
X63488095Y-70392857D01*
X63535714Y-70297619D01*
X63583333Y-70250000D01*
X63678571Y-70202380D01*
X63869047Y-70202380D01*
X63964285Y-70250000D01*
X64011904Y-70297619D01*
X64059523Y-70392857D01*
X64059523Y-70440476D01*
X64011904Y-70535714D01*
X63964285Y-70583333D01*
X63869047Y-70630952D01*
X63678571Y-70630952D01*
X63583333Y-70678571D01*
X63535714Y-70726190D01*
X63488095Y-70821428D01*
X63488095Y-71011904D01*
X63535714Y-71107142D01*
X63583333Y-71154761D01*
X63678571Y-71202380D01*
X63869047Y-71202380D01*
X63964285Y-71154761D01*
X64011904Y-71107142D01*
X64059523Y-71011904D01*
X64059523Y-70821428D01*
X64011904Y-70726190D01*
X63964285Y-70678571D01*
X63869047Y-70630952D01*
X65011904Y-71202380D02*
X64440476Y-71202380D01*
X64726190Y-71202380D02*
X64726190Y-70202380D01*
X64630952Y-70345238D01*
X64535714Y-70440476D01*
X64440476Y-70488095D01*
X66011904Y-71202380D02*
X65678571Y-70726190D01*
X65440476Y-71202380D02*
X65440476Y-70202380D01*
X65821428Y-70202380D01*
X65916666Y-70250000D01*
X65964285Y-70297619D01*
X66011904Y-70392857D01*
X66011904Y-70535714D01*
X65964285Y-70630952D01*
X65916666Y-70678571D01*
X65821428Y-70726190D01*
X65440476Y-70726190D01*
%TO.C,R6*%
X57083333Y-68202380D02*
X56750000Y-67726190D01*
X56511904Y-68202380D02*
X56511904Y-67202380D01*
X56892857Y-67202380D01*
X56988095Y-67250000D01*
X57035714Y-67297619D01*
X57083333Y-67392857D01*
X57083333Y-67535714D01*
X57035714Y-67630952D01*
X56988095Y-67678571D01*
X56892857Y-67726190D01*
X56511904Y-67726190D01*
X57940476Y-67202380D02*
X57750000Y-67202380D01*
X57654761Y-67250000D01*
X57607142Y-67297619D01*
X57511904Y-67440476D01*
X57464285Y-67630952D01*
X57464285Y-68011904D01*
X57511904Y-68107142D01*
X57559523Y-68154761D01*
X57654761Y-68202380D01*
X57845238Y-68202380D01*
X57940476Y-68154761D01*
X57988095Y-68107142D01*
X58035714Y-68011904D01*
X58035714Y-67773809D01*
X57988095Y-67678571D01*
X57940476Y-67630952D01*
X57845238Y-67583333D01*
X57654761Y-67583333D01*
X57559523Y-67630952D01*
X57511904Y-67678571D01*
X57464285Y-67773809D01*
X63678571Y-67380952D02*
X63583333Y-67333333D01*
X63535714Y-67285714D01*
X63488095Y-67190476D01*
X63488095Y-67142857D01*
X63535714Y-67047619D01*
X63583333Y-67000000D01*
X63678571Y-66952380D01*
X63869047Y-66952380D01*
X63964285Y-67000000D01*
X64011904Y-67047619D01*
X64059523Y-67142857D01*
X64059523Y-67190476D01*
X64011904Y-67285714D01*
X63964285Y-67333333D01*
X63869047Y-67380952D01*
X63678571Y-67380952D01*
X63583333Y-67428571D01*
X63535714Y-67476190D01*
X63488095Y-67571428D01*
X63488095Y-67761904D01*
X63535714Y-67857142D01*
X63583333Y-67904761D01*
X63678571Y-67952380D01*
X63869047Y-67952380D01*
X63964285Y-67904761D01*
X64011904Y-67857142D01*
X64059523Y-67761904D01*
X64059523Y-67571428D01*
X64011904Y-67476190D01*
X63964285Y-67428571D01*
X63869047Y-67380952D01*
X65011904Y-67952380D02*
X64440476Y-67952380D01*
X64726190Y-67952380D02*
X64726190Y-66952380D01*
X64630952Y-67095238D01*
X64535714Y-67190476D01*
X64440476Y-67238095D01*
X66011904Y-67952380D02*
X65678571Y-67476190D01*
X65440476Y-67952380D02*
X65440476Y-66952380D01*
X65821428Y-66952380D01*
X65916666Y-67000000D01*
X65964285Y-67047619D01*
X66011904Y-67142857D01*
X66011904Y-67285714D01*
X65964285Y-67380952D01*
X65916666Y-67428571D01*
X65821428Y-67476190D01*
X65440476Y-67476190D01*
%TO.C,R5*%
X87452380Y-78916666D02*
X86976190Y-79250000D01*
X87452380Y-79488095D02*
X86452380Y-79488095D01*
X86452380Y-79107142D01*
X86500000Y-79011904D01*
X86547619Y-78964285D01*
X86642857Y-78916666D01*
X86785714Y-78916666D01*
X86880952Y-78964285D01*
X86928571Y-79011904D01*
X86976190Y-79107142D01*
X86976190Y-79488095D01*
X86452380Y-78011904D02*
X86452380Y-78488095D01*
X86928571Y-78535714D01*
X86880952Y-78488095D01*
X86833333Y-78392857D01*
X86833333Y-78154761D01*
X86880952Y-78059523D01*
X86928571Y-78011904D01*
X87023809Y-77964285D01*
X87261904Y-77964285D01*
X87357142Y-78011904D01*
X87404761Y-78059523D01*
X87452380Y-78154761D01*
X87452380Y-78392857D01*
X87404761Y-78488095D01*
X87357142Y-78535714D01*
X86880952Y-87071428D02*
X86833333Y-87166666D01*
X86785714Y-87214285D01*
X86690476Y-87261904D01*
X86642857Y-87261904D01*
X86547619Y-87214285D01*
X86500000Y-87166666D01*
X86452380Y-87071428D01*
X86452380Y-86880952D01*
X86500000Y-86785714D01*
X86547619Y-86738095D01*
X86642857Y-86690476D01*
X86690476Y-86690476D01*
X86785714Y-86738095D01*
X86833333Y-86785714D01*
X86880952Y-86880952D01*
X86880952Y-87071428D01*
X86928571Y-87166666D01*
X86976190Y-87214285D01*
X87071428Y-87261904D01*
X87261904Y-87261904D01*
X87357142Y-87214285D01*
X87404761Y-87166666D01*
X87452380Y-87071428D01*
X87452380Y-86880952D01*
X87404761Y-86785714D01*
X87357142Y-86738095D01*
X87261904Y-86690476D01*
X87071428Y-86690476D01*
X86976190Y-86738095D01*
X86928571Y-86785714D01*
X86880952Y-86880952D01*
X87452380Y-85738095D02*
X87452380Y-86309523D01*
X87452380Y-86023809D02*
X86452380Y-86023809D01*
X86595238Y-86119047D01*
X86690476Y-86214285D01*
X86738095Y-86309523D01*
X87452380Y-84738095D02*
X86976190Y-85071428D01*
X87452380Y-85309523D02*
X86452380Y-85309523D01*
X86452380Y-84928571D01*
X86500000Y-84833333D01*
X86547619Y-84785714D01*
X86642857Y-84738095D01*
X86785714Y-84738095D01*
X86880952Y-84785714D01*
X86928571Y-84833333D01*
X86976190Y-84928571D01*
X86976190Y-85309523D01*
%TO.C,R4*%
X74583333Y-95702380D02*
X74250000Y-95226190D01*
X74011904Y-95702380D02*
X74011904Y-94702380D01*
X74392857Y-94702380D01*
X74488095Y-94750000D01*
X74535714Y-94797619D01*
X74583333Y-94892857D01*
X74583333Y-95035714D01*
X74535714Y-95130952D01*
X74488095Y-95178571D01*
X74392857Y-95226190D01*
X74011904Y-95226190D01*
X75440476Y-95035714D02*
X75440476Y-95702380D01*
X75202380Y-94654761D02*
X74964285Y-95369047D01*
X75583333Y-95369047D01*
X80678571Y-95380952D02*
X80583333Y-95333333D01*
X80535714Y-95285714D01*
X80488095Y-95190476D01*
X80488095Y-95142857D01*
X80535714Y-95047619D01*
X80583333Y-95000000D01*
X80678571Y-94952380D01*
X80869047Y-94952380D01*
X80964285Y-95000000D01*
X81011904Y-95047619D01*
X81059523Y-95142857D01*
X81059523Y-95190476D01*
X81011904Y-95285714D01*
X80964285Y-95333333D01*
X80869047Y-95380952D01*
X80678571Y-95380952D01*
X80583333Y-95428571D01*
X80535714Y-95476190D01*
X80488095Y-95571428D01*
X80488095Y-95761904D01*
X80535714Y-95857142D01*
X80583333Y-95904761D01*
X80678571Y-95952380D01*
X80869047Y-95952380D01*
X80964285Y-95904761D01*
X81011904Y-95857142D01*
X81059523Y-95761904D01*
X81059523Y-95571428D01*
X81011904Y-95476190D01*
X80964285Y-95428571D01*
X80869047Y-95380952D01*
X82011904Y-95952380D02*
X81440476Y-95952380D01*
X81726190Y-95952380D02*
X81726190Y-94952380D01*
X81630952Y-95095238D01*
X81535714Y-95190476D01*
X81440476Y-95238095D01*
X83011904Y-95952380D02*
X82678571Y-95476190D01*
X82440476Y-95952380D02*
X82440476Y-94952380D01*
X82821428Y-94952380D01*
X82916666Y-95000000D01*
X82964285Y-95047619D01*
X83011904Y-95142857D01*
X83011904Y-95285714D01*
X82964285Y-95380952D01*
X82916666Y-95428571D01*
X82821428Y-95476190D01*
X82440476Y-95476190D01*
%TO.C,R3*%
X69583333Y-92702380D02*
X69250000Y-92226190D01*
X69011904Y-92702380D02*
X69011904Y-91702380D01*
X69392857Y-91702380D01*
X69488095Y-91750000D01*
X69535714Y-91797619D01*
X69583333Y-91892857D01*
X69583333Y-92035714D01*
X69535714Y-92130952D01*
X69488095Y-92178571D01*
X69392857Y-92226190D01*
X69011904Y-92226190D01*
X69916666Y-91702380D02*
X70535714Y-91702380D01*
X70202380Y-92083333D01*
X70345238Y-92083333D01*
X70440476Y-92130952D01*
X70488095Y-92178571D01*
X70535714Y-92273809D01*
X70535714Y-92511904D01*
X70488095Y-92607142D01*
X70440476Y-92654761D01*
X70345238Y-92702380D01*
X70059523Y-92702380D01*
X69964285Y-92654761D01*
X69916666Y-92607142D01*
X75928571Y-92130952D02*
X75833333Y-92083333D01*
X75785714Y-92035714D01*
X75738095Y-91940476D01*
X75738095Y-91892857D01*
X75785714Y-91797619D01*
X75833333Y-91750000D01*
X75928571Y-91702380D01*
X76119047Y-91702380D01*
X76214285Y-91750000D01*
X76261904Y-91797619D01*
X76309523Y-91892857D01*
X76309523Y-91940476D01*
X76261904Y-92035714D01*
X76214285Y-92083333D01*
X76119047Y-92130952D01*
X75928571Y-92130952D01*
X75833333Y-92178571D01*
X75785714Y-92226190D01*
X75738095Y-92321428D01*
X75738095Y-92511904D01*
X75785714Y-92607142D01*
X75833333Y-92654761D01*
X75928571Y-92702380D01*
X76119047Y-92702380D01*
X76214285Y-92654761D01*
X76261904Y-92607142D01*
X76309523Y-92511904D01*
X76309523Y-92321428D01*
X76261904Y-92226190D01*
X76214285Y-92178571D01*
X76119047Y-92130952D01*
X77261904Y-92702380D02*
X76690476Y-92702380D01*
X76976190Y-92702380D02*
X76976190Y-91702380D01*
X76880952Y-91845238D01*
X76785714Y-91940476D01*
X76690476Y-91988095D01*
X78261904Y-92702380D02*
X77928571Y-92226190D01*
X77690476Y-92702380D02*
X77690476Y-91702380D01*
X78071428Y-91702380D01*
X78166666Y-91750000D01*
X78214285Y-91797619D01*
X78261904Y-91892857D01*
X78261904Y-92035714D01*
X78214285Y-92130952D01*
X78166666Y-92178571D01*
X78071428Y-92226190D01*
X77690476Y-92226190D01*
%TO.C,R1*%
X68083333Y-96452380D02*
X67750000Y-95976190D01*
X67511904Y-96452380D02*
X67511904Y-95452380D01*
X67892857Y-95452380D01*
X67988095Y-95500000D01*
X68035714Y-95547619D01*
X68083333Y-95642857D01*
X68083333Y-95785714D01*
X68035714Y-95880952D01*
X67988095Y-95928571D01*
X67892857Y-95976190D01*
X67511904Y-95976190D01*
X69035714Y-96452380D02*
X68464285Y-96452380D01*
X68750000Y-96452380D02*
X68750000Y-95452380D01*
X68654761Y-95595238D01*
X68559523Y-95690476D01*
X68464285Y-95738095D01*
X59678571Y-95880952D02*
X59583333Y-95833333D01*
X59535714Y-95785714D01*
X59488095Y-95690476D01*
X59488095Y-95642857D01*
X59535714Y-95547619D01*
X59583333Y-95500000D01*
X59678571Y-95452380D01*
X59869047Y-95452380D01*
X59964285Y-95500000D01*
X60011904Y-95547619D01*
X60059523Y-95642857D01*
X60059523Y-95690476D01*
X60011904Y-95785714D01*
X59964285Y-95833333D01*
X59869047Y-95880952D01*
X59678571Y-95880952D01*
X59583333Y-95928571D01*
X59535714Y-95976190D01*
X59488095Y-96071428D01*
X59488095Y-96261904D01*
X59535714Y-96357142D01*
X59583333Y-96404761D01*
X59678571Y-96452380D01*
X59869047Y-96452380D01*
X59964285Y-96404761D01*
X60011904Y-96357142D01*
X60059523Y-96261904D01*
X60059523Y-96071428D01*
X60011904Y-95976190D01*
X59964285Y-95928571D01*
X59869047Y-95880952D01*
X61011904Y-96452380D02*
X60440476Y-96452380D01*
X60726190Y-96452380D02*
X60726190Y-95452380D01*
X60630952Y-95595238D01*
X60535714Y-95690476D01*
X60440476Y-95738095D01*
X62011904Y-96452380D02*
X61678571Y-95976190D01*
X61440476Y-96452380D02*
X61440476Y-95452380D01*
X61821428Y-95452380D01*
X61916666Y-95500000D01*
X61964285Y-95547619D01*
X62011904Y-95642857D01*
X62011904Y-95785714D01*
X61964285Y-95880952D01*
X61916666Y-95928571D01*
X61821428Y-95976190D01*
X61440476Y-95976190D01*
%TO.C,Q21*%
X148297619Y-78821428D02*
X148250000Y-78916666D01*
X148154761Y-79011904D01*
X148011904Y-79154761D01*
X147964285Y-79250000D01*
X147964285Y-79345238D01*
X148202380Y-79297619D02*
X148154761Y-79392857D01*
X148059523Y-79488095D01*
X147869047Y-79535714D01*
X147535714Y-79535714D01*
X147345238Y-79488095D01*
X147250000Y-79392857D01*
X147202380Y-79297619D01*
X147202380Y-79107142D01*
X147250000Y-79011904D01*
X147345238Y-78916666D01*
X147535714Y-78869047D01*
X147869047Y-78869047D01*
X148059523Y-78916666D01*
X148154761Y-79011904D01*
X148202380Y-79107142D01*
X148202380Y-79297619D01*
X147297619Y-78488095D02*
X147250000Y-78440476D01*
X147202380Y-78345238D01*
X147202380Y-78107142D01*
X147250000Y-78011904D01*
X147297619Y-77964285D01*
X147392857Y-77916666D01*
X147488095Y-77916666D01*
X147630952Y-77964285D01*
X148202380Y-78535714D01*
X148202380Y-77916666D01*
X148202380Y-76964285D02*
X148202380Y-77535714D01*
X148202380Y-77250000D02*
X147202380Y-77250000D01*
X147345238Y-77345238D01*
X147440476Y-77440476D01*
X147488095Y-77535714D01*
%TO.C,Q20*%
X143547619Y-78821428D02*
X143500000Y-78916666D01*
X143404761Y-79011904D01*
X143261904Y-79154761D01*
X143214285Y-79250000D01*
X143214285Y-79345238D01*
X143452380Y-79297619D02*
X143404761Y-79392857D01*
X143309523Y-79488095D01*
X143119047Y-79535714D01*
X142785714Y-79535714D01*
X142595238Y-79488095D01*
X142500000Y-79392857D01*
X142452380Y-79297619D01*
X142452380Y-79107142D01*
X142500000Y-79011904D01*
X142595238Y-78916666D01*
X142785714Y-78869047D01*
X143119047Y-78869047D01*
X143309523Y-78916666D01*
X143404761Y-79011904D01*
X143452380Y-79107142D01*
X143452380Y-79297619D01*
X142547619Y-78488095D02*
X142500000Y-78440476D01*
X142452380Y-78345238D01*
X142452380Y-78107142D01*
X142500000Y-78011904D01*
X142547619Y-77964285D01*
X142642857Y-77916666D01*
X142738095Y-77916666D01*
X142880952Y-77964285D01*
X143452380Y-78535714D01*
X143452380Y-77916666D01*
X142452380Y-77297619D02*
X142452380Y-77202380D01*
X142500000Y-77107142D01*
X142547619Y-77059523D01*
X142642857Y-77011904D01*
X142833333Y-76964285D01*
X143071428Y-76964285D01*
X143261904Y-77011904D01*
X143357142Y-77059523D01*
X143404761Y-77107142D01*
X143452380Y-77202380D01*
X143452380Y-77297619D01*
X143404761Y-77392857D01*
X143357142Y-77440476D01*
X143261904Y-77488095D01*
X143071428Y-77535714D01*
X142833333Y-77535714D01*
X142642857Y-77488095D01*
X142547619Y-77440476D01*
X142500000Y-77392857D01*
X142452380Y-77297619D01*
%TO.C,Q19*%
X173547619Y-78821428D02*
X173500000Y-78916666D01*
X173404761Y-79011904D01*
X173261904Y-79154761D01*
X173214285Y-79250000D01*
X173214285Y-79345238D01*
X173452380Y-79297619D02*
X173404761Y-79392857D01*
X173309523Y-79488095D01*
X173119047Y-79535714D01*
X172785714Y-79535714D01*
X172595238Y-79488095D01*
X172500000Y-79392857D01*
X172452380Y-79297619D01*
X172452380Y-79107142D01*
X172500000Y-79011904D01*
X172595238Y-78916666D01*
X172785714Y-78869047D01*
X173119047Y-78869047D01*
X173309523Y-78916666D01*
X173404761Y-79011904D01*
X173452380Y-79107142D01*
X173452380Y-79297619D01*
X173452380Y-77916666D02*
X173452380Y-78488095D01*
X173452380Y-78202380D02*
X172452380Y-78202380D01*
X172595238Y-78297619D01*
X172690476Y-78392857D01*
X172738095Y-78488095D01*
X173452380Y-77440476D02*
X173452380Y-77250000D01*
X173404761Y-77154761D01*
X173357142Y-77107142D01*
X173214285Y-77011904D01*
X173023809Y-76964285D01*
X172642857Y-76964285D01*
X172547619Y-77011904D01*
X172500000Y-77059523D01*
X172452380Y-77154761D01*
X172452380Y-77345238D01*
X172500000Y-77440476D01*
X172547619Y-77488095D01*
X172642857Y-77535714D01*
X172880952Y-77535714D01*
X172976190Y-77488095D01*
X173023809Y-77440476D01*
X173071428Y-77345238D01*
X173071428Y-77154761D01*
X173023809Y-77059523D01*
X172976190Y-77011904D01*
X172880952Y-76964285D01*
%TO.C,Q18*%
X168297619Y-78821428D02*
X168250000Y-78916666D01*
X168154761Y-79011904D01*
X168011904Y-79154761D01*
X167964285Y-79250000D01*
X167964285Y-79345238D01*
X168202380Y-79297619D02*
X168154761Y-79392857D01*
X168059523Y-79488095D01*
X167869047Y-79535714D01*
X167535714Y-79535714D01*
X167345238Y-79488095D01*
X167250000Y-79392857D01*
X167202380Y-79297619D01*
X167202380Y-79107142D01*
X167250000Y-79011904D01*
X167345238Y-78916666D01*
X167535714Y-78869047D01*
X167869047Y-78869047D01*
X168059523Y-78916666D01*
X168154761Y-79011904D01*
X168202380Y-79107142D01*
X168202380Y-79297619D01*
X168202380Y-77916666D02*
X168202380Y-78488095D01*
X168202380Y-78202380D02*
X167202380Y-78202380D01*
X167345238Y-78297619D01*
X167440476Y-78392857D01*
X167488095Y-78488095D01*
X167630952Y-77345238D02*
X167583333Y-77440476D01*
X167535714Y-77488095D01*
X167440476Y-77535714D01*
X167392857Y-77535714D01*
X167297619Y-77488095D01*
X167250000Y-77440476D01*
X167202380Y-77345238D01*
X167202380Y-77154761D01*
X167250000Y-77059523D01*
X167297619Y-77011904D01*
X167392857Y-76964285D01*
X167440476Y-76964285D01*
X167535714Y-77011904D01*
X167583333Y-77059523D01*
X167630952Y-77154761D01*
X167630952Y-77345238D01*
X167678571Y-77440476D01*
X167726190Y-77488095D01*
X167821428Y-77535714D01*
X168011904Y-77535714D01*
X168107142Y-77488095D01*
X168154761Y-77440476D01*
X168202380Y-77345238D01*
X168202380Y-77154761D01*
X168154761Y-77059523D01*
X168107142Y-77011904D01*
X168011904Y-76964285D01*
X167821428Y-76964285D01*
X167726190Y-77011904D01*
X167678571Y-77059523D01*
X167630952Y-77154761D01*
%TO.C,Q17*%
X163547619Y-78821428D02*
X163500000Y-78916666D01*
X163404761Y-79011904D01*
X163261904Y-79154761D01*
X163214285Y-79250000D01*
X163214285Y-79345238D01*
X163452380Y-79297619D02*
X163404761Y-79392857D01*
X163309523Y-79488095D01*
X163119047Y-79535714D01*
X162785714Y-79535714D01*
X162595238Y-79488095D01*
X162500000Y-79392857D01*
X162452380Y-79297619D01*
X162452380Y-79107142D01*
X162500000Y-79011904D01*
X162595238Y-78916666D01*
X162785714Y-78869047D01*
X163119047Y-78869047D01*
X163309523Y-78916666D01*
X163404761Y-79011904D01*
X163452380Y-79107142D01*
X163452380Y-79297619D01*
X163452380Y-77916666D02*
X163452380Y-78488095D01*
X163452380Y-78202380D02*
X162452380Y-78202380D01*
X162595238Y-78297619D01*
X162690476Y-78392857D01*
X162738095Y-78488095D01*
X162452380Y-77583333D02*
X162452380Y-76916666D01*
X163452380Y-77345238D01*
%TO.C,Q16*%
X158297619Y-78821428D02*
X158250000Y-78916666D01*
X158154761Y-79011904D01*
X158011904Y-79154761D01*
X157964285Y-79250000D01*
X157964285Y-79345238D01*
X158202380Y-79297619D02*
X158154761Y-79392857D01*
X158059523Y-79488095D01*
X157869047Y-79535714D01*
X157535714Y-79535714D01*
X157345238Y-79488095D01*
X157250000Y-79392857D01*
X157202380Y-79297619D01*
X157202380Y-79107142D01*
X157250000Y-79011904D01*
X157345238Y-78916666D01*
X157535714Y-78869047D01*
X157869047Y-78869047D01*
X158059523Y-78916666D01*
X158154761Y-79011904D01*
X158202380Y-79107142D01*
X158202380Y-79297619D01*
X158202380Y-77916666D02*
X158202380Y-78488095D01*
X158202380Y-78202380D02*
X157202380Y-78202380D01*
X157345238Y-78297619D01*
X157440476Y-78392857D01*
X157488095Y-78488095D01*
X157202380Y-77059523D02*
X157202380Y-77250000D01*
X157250000Y-77345238D01*
X157297619Y-77392857D01*
X157440476Y-77488095D01*
X157630952Y-77535714D01*
X158011904Y-77535714D01*
X158107142Y-77488095D01*
X158154761Y-77440476D01*
X158202380Y-77345238D01*
X158202380Y-77154761D01*
X158154761Y-77059523D01*
X158107142Y-77011904D01*
X158011904Y-76964285D01*
X157773809Y-76964285D01*
X157678571Y-77011904D01*
X157630952Y-77059523D01*
X157583333Y-77154761D01*
X157583333Y-77345238D01*
X157630952Y-77440476D01*
X157678571Y-77488095D01*
X157773809Y-77535714D01*
%TO.C,Q15*%
X153547619Y-78821428D02*
X153500000Y-78916666D01*
X153404761Y-79011904D01*
X153261904Y-79154761D01*
X153214285Y-79250000D01*
X153214285Y-79345238D01*
X153452380Y-79297619D02*
X153404761Y-79392857D01*
X153309523Y-79488095D01*
X153119047Y-79535714D01*
X152785714Y-79535714D01*
X152595238Y-79488095D01*
X152500000Y-79392857D01*
X152452380Y-79297619D01*
X152452380Y-79107142D01*
X152500000Y-79011904D01*
X152595238Y-78916666D01*
X152785714Y-78869047D01*
X153119047Y-78869047D01*
X153309523Y-78916666D01*
X153404761Y-79011904D01*
X153452380Y-79107142D01*
X153452380Y-79297619D01*
X153452380Y-77916666D02*
X153452380Y-78488095D01*
X153452380Y-78202380D02*
X152452380Y-78202380D01*
X152595238Y-78297619D01*
X152690476Y-78392857D01*
X152738095Y-78488095D01*
X152452380Y-77011904D02*
X152452380Y-77488095D01*
X152928571Y-77535714D01*
X152880952Y-77488095D01*
X152833333Y-77392857D01*
X152833333Y-77154761D01*
X152880952Y-77059523D01*
X152928571Y-77011904D01*
X153023809Y-76964285D01*
X153261904Y-76964285D01*
X153357142Y-77011904D01*
X153404761Y-77059523D01*
X153452380Y-77154761D01*
X153452380Y-77392857D01*
X153404761Y-77488095D01*
X153357142Y-77535714D01*
%TO.C,Q14*%
X102547619Y-78821428D02*
X102500000Y-78916666D01*
X102404761Y-79011904D01*
X102261904Y-79154761D01*
X102214285Y-79250000D01*
X102214285Y-79345238D01*
X102452380Y-79297619D02*
X102404761Y-79392857D01*
X102309523Y-79488095D01*
X102119047Y-79535714D01*
X101785714Y-79535714D01*
X101595238Y-79488095D01*
X101500000Y-79392857D01*
X101452380Y-79297619D01*
X101452380Y-79107142D01*
X101500000Y-79011904D01*
X101595238Y-78916666D01*
X101785714Y-78869047D01*
X102119047Y-78869047D01*
X102309523Y-78916666D01*
X102404761Y-79011904D01*
X102452380Y-79107142D01*
X102452380Y-79297619D01*
X102452380Y-77916666D02*
X102452380Y-78488095D01*
X102452380Y-78202380D02*
X101452380Y-78202380D01*
X101595238Y-78297619D01*
X101690476Y-78392857D01*
X101738095Y-78488095D01*
X101785714Y-77059523D02*
X102452380Y-77059523D01*
X101404761Y-77297619D02*
X102119047Y-77535714D01*
X102119047Y-76916666D01*
%TO.C,Q13*%
X97547619Y-78821428D02*
X97500000Y-78916666D01*
X97404761Y-79011904D01*
X97261904Y-79154761D01*
X97214285Y-79250000D01*
X97214285Y-79345238D01*
X97452380Y-79297619D02*
X97404761Y-79392857D01*
X97309523Y-79488095D01*
X97119047Y-79535714D01*
X96785714Y-79535714D01*
X96595238Y-79488095D01*
X96500000Y-79392857D01*
X96452380Y-79297619D01*
X96452380Y-79107142D01*
X96500000Y-79011904D01*
X96595238Y-78916666D01*
X96785714Y-78869047D01*
X97119047Y-78869047D01*
X97309523Y-78916666D01*
X97404761Y-79011904D01*
X97452380Y-79107142D01*
X97452380Y-79297619D01*
X97452380Y-77916666D02*
X97452380Y-78488095D01*
X97452380Y-78202380D02*
X96452380Y-78202380D01*
X96595238Y-78297619D01*
X96690476Y-78392857D01*
X96738095Y-78488095D01*
X96452380Y-77583333D02*
X96452380Y-76964285D01*
X96833333Y-77297619D01*
X96833333Y-77154761D01*
X96880952Y-77059523D01*
X96928571Y-77011904D01*
X97023809Y-76964285D01*
X97261904Y-76964285D01*
X97357142Y-77011904D01*
X97404761Y-77059523D01*
X97452380Y-77154761D01*
X97452380Y-77440476D01*
X97404761Y-77535714D01*
X97357142Y-77583333D01*
%TO.C,Q12*%
X128297619Y-78821428D02*
X128250000Y-78916666D01*
X128154761Y-79011904D01*
X128011904Y-79154761D01*
X127964285Y-79250000D01*
X127964285Y-79345238D01*
X128202380Y-79297619D02*
X128154761Y-79392857D01*
X128059523Y-79488095D01*
X127869047Y-79535714D01*
X127535714Y-79535714D01*
X127345238Y-79488095D01*
X127250000Y-79392857D01*
X127202380Y-79297619D01*
X127202380Y-79107142D01*
X127250000Y-79011904D01*
X127345238Y-78916666D01*
X127535714Y-78869047D01*
X127869047Y-78869047D01*
X128059523Y-78916666D01*
X128154761Y-79011904D01*
X128202380Y-79107142D01*
X128202380Y-79297619D01*
X128202380Y-77916666D02*
X128202380Y-78488095D01*
X128202380Y-78202380D02*
X127202380Y-78202380D01*
X127345238Y-78297619D01*
X127440476Y-78392857D01*
X127488095Y-78488095D01*
X127297619Y-77535714D02*
X127250000Y-77488095D01*
X127202380Y-77392857D01*
X127202380Y-77154761D01*
X127250000Y-77059523D01*
X127297619Y-77011904D01*
X127392857Y-76964285D01*
X127488095Y-76964285D01*
X127630952Y-77011904D01*
X128202380Y-77583333D01*
X128202380Y-76964285D01*
%TO.C,Q11*%
X122547619Y-78821428D02*
X122500000Y-78916666D01*
X122404761Y-79011904D01*
X122261904Y-79154761D01*
X122214285Y-79250000D01*
X122214285Y-79345238D01*
X122452380Y-79297619D02*
X122404761Y-79392857D01*
X122309523Y-79488095D01*
X122119047Y-79535714D01*
X121785714Y-79535714D01*
X121595238Y-79488095D01*
X121500000Y-79392857D01*
X121452380Y-79297619D01*
X121452380Y-79107142D01*
X121500000Y-79011904D01*
X121595238Y-78916666D01*
X121785714Y-78869047D01*
X122119047Y-78869047D01*
X122309523Y-78916666D01*
X122404761Y-79011904D01*
X122452380Y-79107142D01*
X122452380Y-79297619D01*
X122452380Y-77916666D02*
X122452380Y-78488095D01*
X122452380Y-78202380D02*
X121452380Y-78202380D01*
X121595238Y-78297619D01*
X121690476Y-78392857D01*
X121738095Y-78488095D01*
X122452380Y-76964285D02*
X122452380Y-77535714D01*
X122452380Y-77250000D02*
X121452380Y-77250000D01*
X121595238Y-77345238D01*
X121690476Y-77440476D01*
X121738095Y-77535714D01*
%TO.C,Q10*%
X117547619Y-79071428D02*
X117500000Y-79166666D01*
X117404761Y-79261904D01*
X117261904Y-79404761D01*
X117214285Y-79500000D01*
X117214285Y-79595238D01*
X117452380Y-79547619D02*
X117404761Y-79642857D01*
X117309523Y-79738095D01*
X117119047Y-79785714D01*
X116785714Y-79785714D01*
X116595238Y-79738095D01*
X116500000Y-79642857D01*
X116452380Y-79547619D01*
X116452380Y-79357142D01*
X116500000Y-79261904D01*
X116595238Y-79166666D01*
X116785714Y-79119047D01*
X117119047Y-79119047D01*
X117309523Y-79166666D01*
X117404761Y-79261904D01*
X117452380Y-79357142D01*
X117452380Y-79547619D01*
X117452380Y-78166666D02*
X117452380Y-78738095D01*
X117452380Y-78452380D02*
X116452380Y-78452380D01*
X116595238Y-78547619D01*
X116690476Y-78642857D01*
X116738095Y-78738095D01*
X116452380Y-77547619D02*
X116452380Y-77452380D01*
X116500000Y-77357142D01*
X116547619Y-77309523D01*
X116642857Y-77261904D01*
X116833333Y-77214285D01*
X117071428Y-77214285D01*
X117261904Y-77261904D01*
X117357142Y-77309523D01*
X117404761Y-77357142D01*
X117452380Y-77452380D01*
X117452380Y-77547619D01*
X117404761Y-77642857D01*
X117357142Y-77690476D01*
X117261904Y-77738095D01*
X117071428Y-77785714D01*
X116833333Y-77785714D01*
X116642857Y-77738095D01*
X116547619Y-77690476D01*
X116500000Y-77642857D01*
X116452380Y-77547619D01*
%TO.C,Q9*%
X112547619Y-78925238D02*
X112500000Y-79020476D01*
X112404761Y-79115714D01*
X112261904Y-79258571D01*
X112214285Y-79353809D01*
X112214285Y-79449047D01*
X112452380Y-79401428D02*
X112404761Y-79496666D01*
X112309523Y-79591904D01*
X112119047Y-79639523D01*
X111785714Y-79639523D01*
X111595238Y-79591904D01*
X111500000Y-79496666D01*
X111452380Y-79401428D01*
X111452380Y-79210952D01*
X111500000Y-79115714D01*
X111595238Y-79020476D01*
X111785714Y-78972857D01*
X112119047Y-78972857D01*
X112309523Y-79020476D01*
X112404761Y-79115714D01*
X112452380Y-79210952D01*
X112452380Y-79401428D01*
X112452380Y-78496666D02*
X112452380Y-78306190D01*
X112404761Y-78210952D01*
X112357142Y-78163333D01*
X112214285Y-78068095D01*
X112023809Y-78020476D01*
X111642857Y-78020476D01*
X111547619Y-78068095D01*
X111500000Y-78115714D01*
X111452380Y-78210952D01*
X111452380Y-78401428D01*
X111500000Y-78496666D01*
X111547619Y-78544285D01*
X111642857Y-78591904D01*
X111880952Y-78591904D01*
X111976190Y-78544285D01*
X112023809Y-78496666D01*
X112071428Y-78401428D01*
X112071428Y-78210952D01*
X112023809Y-78115714D01*
X111976190Y-78068095D01*
X111880952Y-78020476D01*
%TO.C,Q8*%
X107547619Y-78845238D02*
X107500000Y-78940476D01*
X107404761Y-79035714D01*
X107261904Y-79178571D01*
X107214285Y-79273809D01*
X107214285Y-79369047D01*
X107452380Y-79321428D02*
X107404761Y-79416666D01*
X107309523Y-79511904D01*
X107119047Y-79559523D01*
X106785714Y-79559523D01*
X106595238Y-79511904D01*
X106500000Y-79416666D01*
X106452380Y-79321428D01*
X106452380Y-79130952D01*
X106500000Y-79035714D01*
X106595238Y-78940476D01*
X106785714Y-78892857D01*
X107119047Y-78892857D01*
X107309523Y-78940476D01*
X107404761Y-79035714D01*
X107452380Y-79130952D01*
X107452380Y-79321428D01*
X106880952Y-78321428D02*
X106833333Y-78416666D01*
X106785714Y-78464285D01*
X106690476Y-78511904D01*
X106642857Y-78511904D01*
X106547619Y-78464285D01*
X106500000Y-78416666D01*
X106452380Y-78321428D01*
X106452380Y-78130952D01*
X106500000Y-78035714D01*
X106547619Y-77988095D01*
X106642857Y-77940476D01*
X106690476Y-77940476D01*
X106785714Y-77988095D01*
X106833333Y-78035714D01*
X106880952Y-78130952D01*
X106880952Y-78321428D01*
X106928571Y-78416666D01*
X106976190Y-78464285D01*
X107071428Y-78511904D01*
X107261904Y-78511904D01*
X107357142Y-78464285D01*
X107404761Y-78416666D01*
X107452380Y-78321428D01*
X107452380Y-78130952D01*
X107404761Y-78035714D01*
X107357142Y-77988095D01*
X107261904Y-77940476D01*
X107071428Y-77940476D01*
X106976190Y-77988095D01*
X106928571Y-78035714D01*
X106880952Y-78130952D01*
%TO.C,Q7*%
X82047619Y-69095238D02*
X82000000Y-69190476D01*
X81904761Y-69285714D01*
X81761904Y-69428571D01*
X81714285Y-69523809D01*
X81714285Y-69619047D01*
X81952380Y-69571428D02*
X81904761Y-69666666D01*
X81809523Y-69761904D01*
X81619047Y-69809523D01*
X81285714Y-69809523D01*
X81095238Y-69761904D01*
X81000000Y-69666666D01*
X80952380Y-69571428D01*
X80952380Y-69380952D01*
X81000000Y-69285714D01*
X81095238Y-69190476D01*
X81285714Y-69142857D01*
X81619047Y-69142857D01*
X81809523Y-69190476D01*
X81904761Y-69285714D01*
X81952380Y-69380952D01*
X81952380Y-69571428D01*
X80952380Y-68809523D02*
X80952380Y-68142857D01*
X81952380Y-68571428D01*
%TO.C,Q6*%
X75547619Y-69095238D02*
X75500000Y-69190476D01*
X75404761Y-69285714D01*
X75261904Y-69428571D01*
X75214285Y-69523809D01*
X75214285Y-69619047D01*
X75452380Y-69571428D02*
X75404761Y-69666666D01*
X75309523Y-69761904D01*
X75119047Y-69809523D01*
X74785714Y-69809523D01*
X74595238Y-69761904D01*
X74500000Y-69666666D01*
X74452380Y-69571428D01*
X74452380Y-69380952D01*
X74500000Y-69285714D01*
X74595238Y-69190476D01*
X74785714Y-69142857D01*
X75119047Y-69142857D01*
X75309523Y-69190476D01*
X75404761Y-69285714D01*
X75452380Y-69380952D01*
X75452380Y-69571428D01*
X74452380Y-68285714D02*
X74452380Y-68476190D01*
X74500000Y-68571428D01*
X74547619Y-68619047D01*
X74690476Y-68714285D01*
X74880952Y-68761904D01*
X75261904Y-68761904D01*
X75357142Y-68714285D01*
X75404761Y-68666666D01*
X75452380Y-68571428D01*
X75452380Y-68380952D01*
X75404761Y-68285714D01*
X75357142Y-68238095D01*
X75261904Y-68190476D01*
X75023809Y-68190476D01*
X74928571Y-68238095D01*
X74880952Y-68285714D01*
X74833333Y-68380952D01*
X74833333Y-68571428D01*
X74880952Y-68666666D01*
X74928571Y-68714285D01*
X75023809Y-68761904D01*
%TO.C,Q5*%
X82547619Y-78845238D02*
X82500000Y-78940476D01*
X82404761Y-79035714D01*
X82261904Y-79178571D01*
X82214285Y-79273809D01*
X82214285Y-79369047D01*
X82452380Y-79321428D02*
X82404761Y-79416666D01*
X82309523Y-79511904D01*
X82119047Y-79559523D01*
X81785714Y-79559523D01*
X81595238Y-79511904D01*
X81500000Y-79416666D01*
X81452380Y-79321428D01*
X81452380Y-79130952D01*
X81500000Y-79035714D01*
X81595238Y-78940476D01*
X81785714Y-78892857D01*
X82119047Y-78892857D01*
X82309523Y-78940476D01*
X82404761Y-79035714D01*
X82452380Y-79130952D01*
X82452380Y-79321428D01*
X81452380Y-77988095D02*
X81452380Y-78464285D01*
X81928571Y-78511904D01*
X81880952Y-78464285D01*
X81833333Y-78369047D01*
X81833333Y-78130952D01*
X81880952Y-78035714D01*
X81928571Y-77988095D01*
X82023809Y-77940476D01*
X82261904Y-77940476D01*
X82357142Y-77988095D01*
X82404761Y-78035714D01*
X82452380Y-78130952D01*
X82452380Y-78369047D01*
X82404761Y-78464285D01*
X82357142Y-78511904D01*
%TO.C,Q4*%
X77547619Y-78845238D02*
X77500000Y-78940476D01*
X77404761Y-79035714D01*
X77261904Y-79178571D01*
X77214285Y-79273809D01*
X77214285Y-79369047D01*
X77452380Y-79321428D02*
X77404761Y-79416666D01*
X77309523Y-79511904D01*
X77119047Y-79559523D01*
X76785714Y-79559523D01*
X76595238Y-79511904D01*
X76500000Y-79416666D01*
X76452380Y-79321428D01*
X76452380Y-79130952D01*
X76500000Y-79035714D01*
X76595238Y-78940476D01*
X76785714Y-78892857D01*
X77119047Y-78892857D01*
X77309523Y-78940476D01*
X77404761Y-79035714D01*
X77452380Y-79130952D01*
X77452380Y-79321428D01*
X76785714Y-78035714D02*
X77452380Y-78035714D01*
X76404761Y-78273809D02*
X77119047Y-78511904D01*
X77119047Y-77892857D01*
%TO.C,Q3*%
X72547619Y-78845238D02*
X72500000Y-78940476D01*
X72404761Y-79035714D01*
X72261904Y-79178571D01*
X72214285Y-79273809D01*
X72214285Y-79369047D01*
X72452380Y-79321428D02*
X72404761Y-79416666D01*
X72309523Y-79511904D01*
X72119047Y-79559523D01*
X71785714Y-79559523D01*
X71595238Y-79511904D01*
X71500000Y-79416666D01*
X71452380Y-79321428D01*
X71452380Y-79130952D01*
X71500000Y-79035714D01*
X71595238Y-78940476D01*
X71785714Y-78892857D01*
X72119047Y-78892857D01*
X72309523Y-78940476D01*
X72404761Y-79035714D01*
X72452380Y-79130952D01*
X72452380Y-79321428D01*
X71452380Y-78559523D02*
X71452380Y-77940476D01*
X71833333Y-78273809D01*
X71833333Y-78130952D01*
X71880952Y-78035714D01*
X71928571Y-77988095D01*
X72023809Y-77940476D01*
X72261904Y-77940476D01*
X72357142Y-77988095D01*
X72404761Y-78035714D01*
X72452380Y-78130952D01*
X72452380Y-78416666D01*
X72404761Y-78511904D01*
X72357142Y-78559523D01*
%TO.C,Q2*%
X67547619Y-78845238D02*
X67500000Y-78940476D01*
X67404761Y-79035714D01*
X67261904Y-79178571D01*
X67214285Y-79273809D01*
X67214285Y-79369047D01*
X67452380Y-79321428D02*
X67404761Y-79416666D01*
X67309523Y-79511904D01*
X67119047Y-79559523D01*
X66785714Y-79559523D01*
X66595238Y-79511904D01*
X66500000Y-79416666D01*
X66452380Y-79321428D01*
X66452380Y-79130952D01*
X66500000Y-79035714D01*
X66595238Y-78940476D01*
X66785714Y-78892857D01*
X67119047Y-78892857D01*
X67309523Y-78940476D01*
X67404761Y-79035714D01*
X67452380Y-79130952D01*
X67452380Y-79321428D01*
X66547619Y-78511904D02*
X66500000Y-78464285D01*
X66452380Y-78369047D01*
X66452380Y-78130952D01*
X66500000Y-78035714D01*
X66547619Y-77988095D01*
X66642857Y-77940476D01*
X66738095Y-77940476D01*
X66880952Y-77988095D01*
X67452380Y-78559523D01*
X67452380Y-77940476D01*
%TO.C,Q1*%
X62547619Y-78845238D02*
X62500000Y-78940476D01*
X62404761Y-79035714D01*
X62261904Y-79178571D01*
X62214285Y-79273809D01*
X62214285Y-79369047D01*
X62452380Y-79321428D02*
X62404761Y-79416666D01*
X62309523Y-79511904D01*
X62119047Y-79559523D01*
X61785714Y-79559523D01*
X61595238Y-79511904D01*
X61500000Y-79416666D01*
X61452380Y-79321428D01*
X61452380Y-79130952D01*
X61500000Y-79035714D01*
X61595238Y-78940476D01*
X61785714Y-78892857D01*
X62119047Y-78892857D01*
X62309523Y-78940476D01*
X62404761Y-79035714D01*
X62452380Y-79130952D01*
X62452380Y-79321428D01*
X62452380Y-77940476D02*
X62452380Y-78511904D01*
X62452380Y-78226190D02*
X61452380Y-78226190D01*
X61595238Y-78321428D01*
X61690476Y-78416666D01*
X61738095Y-78511904D01*
%TO.C,AFF3*%
X130746666Y-66691428D02*
X130746666Y-66215238D01*
X131032380Y-66786666D02*
X130032380Y-66453333D01*
X131032380Y-66120000D01*
X130508571Y-65453333D02*
X130508571Y-65786666D01*
X131032380Y-65786666D02*
X130032380Y-65786666D01*
X130032380Y-65310476D01*
X130508571Y-64596190D02*
X130508571Y-64929523D01*
X131032380Y-64929523D02*
X130032380Y-64929523D01*
X130032380Y-64453333D01*
X130032380Y-64167619D02*
X130032380Y-63548571D01*
X130413333Y-63881904D01*
X130413333Y-63739047D01*
X130460952Y-63643809D01*
X130508571Y-63596190D01*
X130603809Y-63548571D01*
X130841904Y-63548571D01*
X130937142Y-63596190D01*
X130984761Y-63643809D01*
X131032380Y-63739047D01*
X131032380Y-64024761D01*
X130984761Y-64120000D01*
X130937142Y-64167619D01*
%TO.C,AFF1*%
X86746666Y-66691428D02*
X86746666Y-66215238D01*
X87032380Y-66786666D02*
X86032380Y-66453333D01*
X87032380Y-66120000D01*
X86508571Y-65453333D02*
X86508571Y-65786666D01*
X87032380Y-65786666D02*
X86032380Y-65786666D01*
X86032380Y-65310476D01*
X86508571Y-64596190D02*
X86508571Y-64929523D01*
X87032380Y-64929523D02*
X86032380Y-64929523D01*
X86032380Y-64453333D01*
X87032380Y-63548571D02*
X87032380Y-64120000D01*
X87032380Y-63834285D02*
X86032380Y-63834285D01*
X86175238Y-63929523D01*
X86270476Y-64024761D01*
X86318095Y-64120000D01*
%TD*%
M02*
