%TF.GenerationSoftware,KiCad,Pcbnew,(5.1.10-1-10_14)*%
%TF.CreationDate,2021-06-26T21:10:23+10:00*%
%TF.ProjectId,Octal display,4f637461-6c20-4646-9973-706c61792e6b,rev?*%
%TF.SameCoordinates,Original*%
%TF.FileFunction,Copper,L2,Bot*%
%TF.FilePolarity,Positive*%
%FSLAX46Y46*%
G04 Gerber Fmt 4.6, Leading zero omitted, Abs format (unit mm)*
G04 Created by KiCad (PCBNEW (5.1.10-1-10_14)) date 2021-06-26 21:10:23*
%MOMM*%
%LPD*%
G01*
G04 APERTURE LIST*
%TA.AperFunction,ComponentPad*%
%ADD10O,1.700000X1.700000*%
%TD*%
%TA.AperFunction,ComponentPad*%
%ADD11R,1.700000X1.700000*%
%TD*%
%TA.AperFunction,ComponentPad*%
%ADD12C,1.600000*%
%TD*%
%TA.AperFunction,ComponentPad*%
%ADD13R,1.600000X1.600000*%
%TD*%
%TA.AperFunction,ComponentPad*%
%ADD14O,1.600000X1.600000*%
%TD*%
%TA.AperFunction,ComponentPad*%
%ADD15O,1.200000X1.200000*%
%TD*%
%TA.AperFunction,ComponentPad*%
%ADD16O,1.600000X1.200000*%
%TD*%
%TA.AperFunction,ComponentPad*%
%ADD17R,1.500000X1.500000*%
%TD*%
%TA.AperFunction,ComponentPad*%
%ADD18C,1.500000*%
%TD*%
%TA.AperFunction,ComponentPad*%
%ADD19C,0.800000*%
%TD*%
%TA.AperFunction,ComponentPad*%
%ADD20C,6.400000*%
%TD*%
%TA.AperFunction,ComponentPad*%
%ADD21R,1.524000X2.524000*%
%TD*%
%TA.AperFunction,ComponentPad*%
%ADD22O,1.524000X2.524000*%
%TD*%
%TA.AperFunction,ComponentPad*%
%ADD23O,1.600000X2.400000*%
%TD*%
%TA.AperFunction,ComponentPad*%
%ADD24R,1.600000X2.400000*%
%TD*%
%TA.AperFunction,ViaPad*%
%ADD25C,1.200000*%
%TD*%
%TA.AperFunction,Conductor*%
%ADD26C,0.500000*%
%TD*%
%TA.AperFunction,Conductor*%
%ADD27C,1.250000*%
%TD*%
%TA.AperFunction,Conductor*%
%ADD28C,2.500000*%
%TD*%
%TA.AperFunction,Conductor*%
%ADD29C,0.254000*%
%TD*%
%TA.AperFunction,Conductor*%
%ADD30C,0.100000*%
%TD*%
G04 APERTURE END LIST*
D10*
%TO.P,J4,4*%
%TO.N,Pot_t*%
X72120000Y-145000000D03*
%TO.P,J4,3*%
%TO.N,Pot_b*%
X69580000Y-145000000D03*
%TO.P,J4,2*%
X67040000Y-145000000D03*
D11*
%TO.P,J4,1*%
%TO.N,GND*%
X64500000Y-145000000D03*
%TD*%
D12*
%TO.P,C2,2*%
%TO.N,Net-(C2-Pad2)*%
X115750000Y-127250000D03*
%TO.P,C2,1*%
%TO.N,Net-(C2-Pad1)*%
X115750000Y-132250000D03*
%TD*%
%TO.P,C3,2*%
%TO.N,GND*%
X60250000Y-133000000D03*
D13*
%TO.P,C3,1*%
%TO.N,Pot_b*%
X60250000Y-135500000D03*
%TD*%
D14*
%TO.P,R29,2*%
%TO.N,Net-(D1-Pad1)*%
X67000000Y-129500000D03*
D12*
%TO.P,R29,1*%
%TO.N,Pot_b*%
X67000000Y-139660000D03*
%TD*%
D14*
%TO.P,R28,2*%
%TO.N,+5V*%
X71750000Y-129590000D03*
D12*
%TO.P,R28,1*%
%TO.N,Pot_t*%
X71750000Y-139750000D03*
%TD*%
D15*
%TO.P,Q24,3*%
%TO.N,+5V*%
X82210000Y-140000000D03*
%TO.P,Q24,2*%
%TO.N,Net-(Q23-Pad1)*%
X83480000Y-138730000D03*
D16*
%TO.P,Q24,1*%
%TO.N,Net-(Q24-Pad1)*%
X84750000Y-140000000D03*
%TD*%
D15*
%TO.P,Q23,3*%
%TO.N,+5V*%
X82210000Y-131750000D03*
%TO.P,Q23,2*%
%TO.N,Pot_b*%
X83480000Y-130480000D03*
D16*
%TO.P,Q23,1*%
%TO.N,Net-(Q23-Pad1)*%
X84750000Y-131750000D03*
%TD*%
D17*
%TO.P,D1,1*%
%TO.N,Net-(D1-Pad1)*%
X86750000Y-123500000D03*
D18*
%TO.P,D1,3*%
%TO.N,GND*%
X81670000Y-123500000D03*
%TO.P,D1,2*%
%TO.N,Net-(D1-Pad2)*%
X84210000Y-123500000D03*
%TD*%
D14*
%TO.P,U6,14*%
%TO.N,+5V*%
X95000000Y-127000000D03*
%TO.P,U6,7*%
%TO.N,GND*%
X110240000Y-134620000D03*
%TO.P,U6,13*%
%TO.N,N/C*%
X97540000Y-127000000D03*
%TO.P,U6,6*%
%TO.N,Net-(C2-Pad1)*%
X107700000Y-134620000D03*
%TO.P,U6,12*%
%TO.N,N/C*%
X100080000Y-127000000D03*
%TO.P,U6,5*%
%TO.N,Net-(R25-Pad1)*%
X105160000Y-134620000D03*
%TO.P,U6,11*%
%TO.N,N/C*%
X102620000Y-127000000D03*
%TO.P,U6,4*%
%TO.N,Net-(R25-Pad1)*%
X102620000Y-134620000D03*
%TO.P,U6,10*%
%TO.N,N/C*%
X105160000Y-127000000D03*
%TO.P,U6,3*%
X100080000Y-134620000D03*
%TO.P,U6,9*%
X107700000Y-127000000D03*
%TO.P,U6,2*%
%TO.N,Net-(R25-Pad1)*%
X97540000Y-134620000D03*
%TO.P,U6,8*%
%TO.N,N/C*%
X110240000Y-127000000D03*
D13*
%TO.P,U6,1*%
%TO.N,Net-(Q24-Pad1)*%
X95000000Y-134620000D03*
%TD*%
D14*
%TO.P,R27,2*%
%TO.N,+5V*%
X98500000Y-105840000D03*
D12*
%TO.P,R27,1*%
%TO.N,Net-(C2-Pad2)*%
X98500000Y-116000000D03*
%TD*%
D14*
%TO.P,R26,2*%
%TO.N,Net-(Q24-Pad1)*%
X95000000Y-140000000D03*
D12*
%TO.P,R26,1*%
%TO.N,GND*%
X105160000Y-140000000D03*
%TD*%
D14*
%TO.P,R25,2*%
%TO.N,+5V*%
X76500000Y-129590000D03*
D12*
%TO.P,R25,1*%
%TO.N,Net-(R25-Pad1)*%
X76500000Y-139750000D03*
%TD*%
D14*
%TO.P,R24,2*%
%TO.N,+5V*%
X94840000Y-121000000D03*
D12*
%TO.P,R24,1*%
%TO.N,Net-(D1-Pad2)*%
X105000000Y-121000000D03*
%TD*%
D14*
%TO.P,R23,2*%
%TO.N,~RESET_FLAG*%
X119500000Y-135660000D03*
D12*
%TO.P,R23,1*%
%TO.N,Net-(D1-Pad2)*%
X119500000Y-125500000D03*
%TD*%
D10*
%TO.P,J3,4*%
%TO.N,~RESET_FLAG*%
X130880000Y-145000000D03*
%TO.P,J3,3*%
%TO.N,~FLAG*%
X133420000Y-145000000D03*
%TO.P,J3,2*%
%TO.N,~DATA*%
X135960000Y-145000000D03*
D11*
%TO.P,J3,1*%
%TO.N,~CLOCK*%
X138500000Y-145000000D03*
%TD*%
D14*
%TO.P,U5,14*%
%TO.N,+5V*%
X125500000Y-127000000D03*
%TO.P,U5,7*%
%TO.N,GND*%
X140740000Y-134620000D03*
%TO.P,U5,13*%
%TO.N,~RESET_FLAG*%
X128040000Y-127000000D03*
%TO.P,U5,6*%
%TO.N,Net-(U1-Pad1)*%
X138200000Y-134620000D03*
%TO.P,U5,12*%
%TO.N,Net-(U5-Pad1)*%
X130580000Y-127000000D03*
%TO.P,U5,5*%
%TO.N,~DATA*%
X135660000Y-134620000D03*
%TO.P,U5,11*%
%TO.N,Net-(U5-Pad10)*%
X133120000Y-127000000D03*
%TO.P,U5,4*%
%TO.N,~DATA*%
X133120000Y-134620000D03*
%TO.P,U5,10*%
%TO.N,Net-(U5-Pad10)*%
X135660000Y-127000000D03*
%TO.P,U5,3*%
%TO.N,~FLAG*%
X130580000Y-134620000D03*
%TO.P,U5,9*%
%TO.N,Net-(C2-Pad2)*%
X138200000Y-127000000D03*
%TO.P,U5,2*%
%TO.N,Net-(U5-Pad1)*%
X128040000Y-134620000D03*
%TO.P,U5,8*%
X140740000Y-127000000D03*
D13*
%TO.P,U5,1*%
X125500000Y-134620000D03*
%TD*%
D14*
%TO.P,R22,2*%
%TO.N,Net-(C1-Pad1)*%
X165660000Y-123000000D03*
D12*
%TO.P,R22,1*%
%TO.N,+5V*%
X155500000Y-123000000D03*
%TD*%
%TO.P,C1,2*%
%TO.N,GND*%
X177000000Y-123000000D03*
%TO.P,C1,1*%
%TO.N,Net-(C1-Pad1)*%
X172000000Y-123000000D03*
%TD*%
D19*
%TO.P,H4,1*%
%TO.N,GND*%
X56697056Y-143302944D03*
X55000000Y-142600000D03*
X53302944Y-143302944D03*
X52600000Y-145000000D03*
X53302944Y-146697056D03*
X55000000Y-147400000D03*
X56697056Y-146697056D03*
X57400000Y-145000000D03*
D20*
X55000000Y-145000000D03*
%TD*%
D19*
%TO.P,H3,1*%
%TO.N,GND*%
X186697056Y-143302944D03*
X185000000Y-142600000D03*
X183302944Y-143302944D03*
X182600000Y-145000000D03*
X183302944Y-146697056D03*
X185000000Y-147400000D03*
X186697056Y-146697056D03*
X187400000Y-145000000D03*
D20*
X185000000Y-145000000D03*
%TD*%
D19*
%TO.P,H2,1*%
%TO.N,GND*%
X186697056Y-53302944D03*
X185000000Y-52600000D03*
X183302944Y-53302944D03*
X182600000Y-55000000D03*
X183302944Y-56697056D03*
X185000000Y-57400000D03*
X186697056Y-56697056D03*
X187400000Y-55000000D03*
D20*
X185000000Y-55000000D03*
%TD*%
D19*
%TO.P,H1,1*%
%TO.N,GND*%
X56697056Y-53302944D03*
X55000000Y-52600000D03*
X53302944Y-53302944D03*
X52600000Y-55000000D03*
X53302944Y-56697056D03*
X55000000Y-57400000D03*
X56697056Y-56697056D03*
X57400000Y-55000000D03*
D20*
X55000000Y-55000000D03*
%TD*%
D10*
%TO.P,J2,4*%
%TO.N,OH*%
X160880000Y-145000000D03*
%TO.P,J2,3*%
%TO.N,OG*%
X163420000Y-145000000D03*
%TO.P,J2,2*%
%TO.N,OF*%
X165960000Y-145000000D03*
D11*
%TO.P,J2,1*%
%TO.N,A2B*%
X168500000Y-145000000D03*
%TD*%
D10*
%TO.P,J1,8*%
%TO.N,GND*%
X55000000Y-99920000D03*
%TO.P,J1,7*%
X55000000Y-102460000D03*
%TO.P,J1,6*%
%TO.N,+5V*%
X55000000Y-105000000D03*
%TO.P,J1,5*%
X55000000Y-107540000D03*
%TO.P,J1,4*%
%TO.N,A1C*%
X55000000Y-110080000D03*
%TO.P,J1,3*%
%TO.N,A2C*%
X55000000Y-112620000D03*
%TO.P,J1,2*%
%TO.N,~RBI*%
X55000000Y-115160000D03*
D11*
%TO.P,J1,1*%
%TO.N,A0C*%
X55000000Y-117700000D03*
%TD*%
D21*
%TO.P,AFF2,1*%
%TO.N,Net-(AFF2-Pad1)*%
X111000000Y-72740000D03*
D22*
%TO.P,AFF2,2*%
%TO.N,Net-(AFF2-Pad2)*%
X113540000Y-72740000D03*
%TO.P,AFF2,3*%
%TO.N,GND*%
X116080000Y-72740000D03*
%TO.P,AFF2,4*%
%TO.N,Net-(AFF2-Pad4)*%
X118620000Y-72740000D03*
%TO.P,AFF2,5*%
%TO.N,Net-(AFF2-Pad5)*%
X121160000Y-72740000D03*
%TO.P,AFF2,6*%
%TO.N,Net-(AFF2-Pad6)*%
X121160000Y-57500000D03*
%TO.P,AFF2,7*%
%TO.N,Net-(AFF2-Pad7)*%
X118620000Y-57500000D03*
%TO.P,AFF2,8*%
%TO.N,GND*%
X116080000Y-57500000D03*
%TO.P,AFF2,9*%
%TO.N,Net-(AFF2-Pad9)*%
X113540000Y-57500000D03*
%TO.P,AFF2,10*%
%TO.N,Net-(AFF2-Pad10)*%
X111000000Y-57500000D03*
%TD*%
D14*
%TO.P,R2,2*%
%TO.N,Net-(Q2-Pad1)*%
X68840000Y-89000000D03*
D12*
%TO.P,R2,1*%
%TO.N,+5V*%
X79000000Y-89000000D03*
%TD*%
D14*
%TO.P,U2,16*%
%TO.N,+5V*%
X65000000Y-105000000D03*
%TO.P,U2,8*%
%TO.N,GND*%
X82780000Y-112620000D03*
%TO.P,U2,15*%
%TO.N,Net-(Q6-Pad2)*%
X67540000Y-105000000D03*
%TO.P,U2,7*%
%TO.N,A0C*%
X80240000Y-112620000D03*
%TO.P,U2,14*%
%TO.N,Net-(Q7-Pad2)*%
X70080000Y-105000000D03*
%TO.P,U2,6*%
%TO.N,GND*%
X77700000Y-112620000D03*
%TO.P,U2,13*%
%TO.N,Net-(Q1-Pad2)*%
X72620000Y-105000000D03*
%TO.P,U2,5*%
%TO.N,~RBI*%
X75160000Y-112620000D03*
%TO.P,U2,12*%
%TO.N,Net-(Q2-Pad2)*%
X75160000Y-105000000D03*
%TO.P,U2,4*%
%TO.N,Net-(U2-Pad4)*%
X72620000Y-112620000D03*
%TO.P,U2,11*%
%TO.N,Net-(Q3-Pad2)*%
X77700000Y-105000000D03*
%TO.P,U2,3*%
%TO.N,Net-(U2-Pad3)*%
X70080000Y-112620000D03*
%TO.P,U2,10*%
%TO.N,Net-(Q4-Pad2)*%
X80240000Y-105000000D03*
%TO.P,U2,2*%
%TO.N,A2C*%
X67540000Y-112620000D03*
%TO.P,U2,9*%
%TO.N,Net-(Q5-Pad2)*%
X82780000Y-105000000D03*
D13*
%TO.P,U2,1*%
%TO.N,A1C*%
X65000000Y-112620000D03*
%TD*%
D14*
%TO.P,U4,16*%
%TO.N,+5V*%
X154000000Y-105000000D03*
%TO.P,U4,8*%
%TO.N,GND*%
X171780000Y-112620000D03*
%TO.P,U4,15*%
%TO.N,Net-(Q20-Pad2)*%
X156540000Y-105000000D03*
%TO.P,U4,7*%
%TO.N,QH*%
X169240000Y-112620000D03*
%TO.P,U4,14*%
%TO.N,Net-(Q21-Pad2)*%
X159080000Y-105000000D03*
%TO.P,U4,6*%
%TO.N,GND*%
X166700000Y-112620000D03*
%TO.P,U4,13*%
%TO.N,Net-(Q15-Pad2)*%
X161620000Y-105000000D03*
%TO.P,U4,5*%
%TO.N,Net-(U3-Pad4)*%
X164160000Y-112620000D03*
%TO.P,U4,12*%
%TO.N,Net-(Q16-Pad2)*%
X164160000Y-105000000D03*
%TO.P,U4,4*%
%TO.N,Net-(U4-Pad4)*%
X161620000Y-112620000D03*
%TO.P,U4,11*%
%TO.N,Net-(Q17-Pad2)*%
X166700000Y-105000000D03*
%TO.P,U4,3*%
%TO.N,Net-(U4-Pad3)*%
X159080000Y-112620000D03*
%TO.P,U4,10*%
%TO.N,Net-(Q18-Pad2)*%
X169240000Y-105000000D03*
%TO.P,U4,2*%
%TO.N,QF*%
X156540000Y-112620000D03*
%TO.P,U4,9*%
%TO.N,Net-(Q19-Pad2)*%
X171780000Y-105000000D03*
D13*
%TO.P,U4,1*%
%TO.N,QG*%
X154000000Y-112620000D03*
%TD*%
D14*
%TO.P,U3,16*%
%TO.N,+5V*%
X110000000Y-105000000D03*
%TO.P,U3,8*%
%TO.N,GND*%
X127780000Y-112620000D03*
%TO.P,U3,15*%
%TO.N,Net-(Q13-Pad2)*%
X112540000Y-105000000D03*
%TO.P,U3,7*%
%TO.N,QE*%
X125240000Y-112620000D03*
%TO.P,U3,14*%
%TO.N,Net-(Q14-Pad2)*%
X115080000Y-105000000D03*
%TO.P,U3,6*%
%TO.N,GND*%
X122700000Y-112620000D03*
%TO.P,U3,13*%
%TO.N,Net-(Q8-Pad2)*%
X117620000Y-105000000D03*
%TO.P,U3,5*%
%TO.N,Net-(U2-Pad4)*%
X120160000Y-112620000D03*
%TO.P,U3,12*%
%TO.N,Net-(Q9-Pad2)*%
X120160000Y-105000000D03*
%TO.P,U3,4*%
%TO.N,Net-(U3-Pad4)*%
X117620000Y-112620000D03*
%TO.P,U3,11*%
%TO.N,Net-(Q10-Pad2)*%
X122700000Y-105000000D03*
%TO.P,U3,3*%
%TO.N,Net-(U3-Pad3)*%
X115080000Y-112620000D03*
%TO.P,U3,10*%
%TO.N,Net-(Q11-Pad2)*%
X125240000Y-105000000D03*
%TO.P,U3,2*%
%TO.N,A2B*%
X112540000Y-112620000D03*
%TO.P,U3,9*%
%TO.N,Net-(Q12-Pad2)*%
X127780000Y-105000000D03*
D13*
%TO.P,U3,1*%
%TO.N,QD*%
X110000000Y-112620000D03*
%TD*%
D23*
%TO.P,U1,14*%
%TO.N,+5V*%
X156000000Y-127000000D03*
%TO.P,U1,7*%
%TO.N,Vss*%
X171240000Y-134620000D03*
%TO.P,U1,13*%
%TO.N,QH*%
X158540000Y-127000000D03*
%TO.P,U1,6*%
%TO.N,QD*%
X168700000Y-134620000D03*
%TO.P,U1,12*%
%TO.N,QG*%
X161080000Y-127000000D03*
%TO.P,U1,5*%
%TO.N,OF*%
X166160000Y-134620000D03*
%TO.P,U1,11*%
%TO.N,QF*%
X163620000Y-127000000D03*
%TO.P,U1,4*%
%TO.N,OG*%
X163620000Y-134620000D03*
%TO.P,U1,10*%
%TO.N,QE*%
X166160000Y-127000000D03*
%TO.P,U1,3*%
%TO.N,OH*%
X161080000Y-134620000D03*
%TO.P,U1,9*%
%TO.N,Net-(C1-Pad1)*%
X168700000Y-127000000D03*
%TO.P,U1,2*%
%TO.N,Net-(U1-Pad1)*%
X158540000Y-134620000D03*
%TO.P,U1,8*%
%TO.N,~CLOCK*%
X171240000Y-127000000D03*
D24*
%TO.P,U1,1*%
%TO.N,Net-(U1-Pad1)*%
X156000000Y-134620000D03*
%TD*%
D14*
%TO.P,R21,2*%
%TO.N,Net-(Q21-Pad1)*%
X151500000Y-91000000D03*
D12*
%TO.P,R21,1*%
%TO.N,+5V*%
X141340000Y-91000000D03*
%TD*%
D14*
%TO.P,R20,2*%
%TO.N,Net-(Q20-Pad1)*%
X138000000Y-81000000D03*
D12*
%TO.P,R20,1*%
%TO.N,+5V*%
X138000000Y-91160000D03*
%TD*%
D14*
%TO.P,R19,2*%
%TO.N,Net-(Q19-Pad1)*%
X170750000Y-98250000D03*
D12*
%TO.P,R19,1*%
%TO.N,+5V*%
X180910000Y-98250000D03*
%TD*%
D14*
%TO.P,R18,2*%
%TO.N,Net-(Q18-Pad1)*%
X166000000Y-94250000D03*
D12*
%TO.P,R18,1*%
%TO.N,+5V*%
X176160000Y-94250000D03*
%TD*%
D14*
%TO.P,R17,2*%
%TO.N,Net-(Q17-Pad1)*%
X163250000Y-90250000D03*
D12*
%TO.P,R17,1*%
%TO.N,+5V*%
X173410000Y-90250000D03*
%TD*%
D14*
%TO.P,R16,2*%
%TO.N,Net-(Q16-Pad1)*%
X158660000Y-98500000D03*
D12*
%TO.P,R16,1*%
%TO.N,+5V*%
X148500000Y-98500000D03*
%TD*%
D14*
%TO.P,R15,2*%
%TO.N,Net-(Q15-Pad1)*%
X155750000Y-95000000D03*
D12*
%TO.P,R15,1*%
%TO.N,+5V*%
X145590000Y-95000000D03*
%TD*%
D14*
%TO.P,R14,2*%
%TO.N,Net-(Q14-Pad1)*%
X106250000Y-95750000D03*
D12*
%TO.P,R14,1*%
%TO.N,+5V*%
X96090000Y-95750000D03*
%TD*%
D14*
%TO.P,R13,2*%
%TO.N,Net-(Q13-Pad1)*%
X92000000Y-81000000D03*
D12*
%TO.P,R13,1*%
%TO.N,+5V*%
X92000000Y-91160000D03*
%TD*%
D14*
%TO.P,R12,2*%
%TO.N,Net-(Q12-Pad1)*%
X133000000Y-81000000D03*
D12*
%TO.P,R12,1*%
%TO.N,+5V*%
X133000000Y-91160000D03*
%TD*%
D14*
%TO.P,R11,2*%
%TO.N,Net-(Q11-Pad1)*%
X123000000Y-96000000D03*
D12*
%TO.P,R11,1*%
%TO.N,+5V*%
X133160000Y-96000000D03*
%TD*%
D14*
%TO.P,R10,2*%
%TO.N,Net-(Q10-Pad1)*%
X116500000Y-93000000D03*
D12*
%TO.P,R10,1*%
%TO.N,+5V*%
X126660000Y-93000000D03*
%TD*%
D14*
%TO.P,R9,2*%
%TO.N,Net-(Q9-Pad1)*%
X114590000Y-89750000D03*
D12*
%TO.P,R9,1*%
%TO.N,+5V*%
X124750000Y-89750000D03*
%TD*%
D14*
%TO.P,R8,2*%
%TO.N,Net-(Q8-Pad1)*%
X106250000Y-90750000D03*
D12*
%TO.P,R8,1*%
%TO.N,+5V*%
X96090000Y-90750000D03*
%TD*%
D14*
%TO.P,R7,2*%
%TO.N,Net-(Q7-Pad1)*%
X70000000Y-70750000D03*
D12*
%TO.P,R7,1*%
%TO.N,+5V*%
X59840000Y-70750000D03*
%TD*%
D14*
%TO.P,R6,2*%
%TO.N,Net-(Q6-Pad1)*%
X70000000Y-67500000D03*
D12*
%TO.P,R6,1*%
%TO.N,+5V*%
X59840000Y-67500000D03*
%TD*%
D14*
%TO.P,R5,2*%
%TO.N,Net-(Q5-Pad1)*%
X87000000Y-81000000D03*
D12*
%TO.P,R5,1*%
%TO.N,+5V*%
X87000000Y-91160000D03*
%TD*%
D14*
%TO.P,R4,2*%
%TO.N,Net-(Q4-Pad1)*%
X77090000Y-95500000D03*
D12*
%TO.P,R4,1*%
%TO.N,+5V*%
X87250000Y-95500000D03*
%TD*%
D14*
%TO.P,R3,2*%
%TO.N,Net-(Q3-Pad1)*%
X72090000Y-92250000D03*
D12*
%TO.P,R3,1*%
%TO.N,+5V*%
X82250000Y-92250000D03*
%TD*%
D14*
%TO.P,R1,2*%
%TO.N,Net-(Q1-Pad1)*%
X66000000Y-96000000D03*
D12*
%TO.P,R1,1*%
%TO.N,+5V*%
X55840000Y-96000000D03*
%TD*%
D17*
%TO.P,Q21,1*%
%TO.N,Net-(Q21-Pad1)*%
X148000000Y-86080000D03*
D18*
%TO.P,Q21,3*%
%TO.N,Net-(AFF3-Pad10)*%
X148000000Y-81000000D03*
%TO.P,Q21,2*%
%TO.N,Net-(Q21-Pad2)*%
X148000000Y-83540000D03*
%TD*%
D17*
%TO.P,Q20,1*%
%TO.N,Net-(Q20-Pad1)*%
X143000000Y-86080000D03*
D18*
%TO.P,Q20,3*%
%TO.N,Net-(AFF3-Pad9)*%
X143000000Y-81000000D03*
%TO.P,Q20,2*%
%TO.N,Net-(Q20-Pad2)*%
X143000000Y-83540000D03*
%TD*%
D17*
%TO.P,Q19,1*%
%TO.N,Net-(Q19-Pad1)*%
X173000000Y-86080000D03*
D18*
%TO.P,Q19,3*%
%TO.N,Net-(AFF3-Pad1)*%
X173000000Y-81000000D03*
%TO.P,Q19,2*%
%TO.N,Net-(Q19-Pad2)*%
X173000000Y-83540000D03*
%TD*%
D17*
%TO.P,Q18,1*%
%TO.N,Net-(Q18-Pad1)*%
X168000000Y-86080000D03*
D18*
%TO.P,Q18,3*%
%TO.N,Net-(AFF3-Pad2)*%
X168000000Y-81000000D03*
%TO.P,Q18,2*%
%TO.N,Net-(Q18-Pad2)*%
X168000000Y-83540000D03*
%TD*%
D17*
%TO.P,Q17,1*%
%TO.N,Net-(Q17-Pad1)*%
X163000000Y-86080000D03*
D18*
%TO.P,Q17,3*%
%TO.N,Net-(AFF3-Pad4)*%
X163000000Y-81000000D03*
%TO.P,Q17,2*%
%TO.N,Net-(Q17-Pad2)*%
X163000000Y-83540000D03*
%TD*%
D17*
%TO.P,Q16,1*%
%TO.N,Net-(Q16-Pad1)*%
X158000000Y-86080000D03*
D18*
%TO.P,Q16,3*%
%TO.N,Net-(AFF3-Pad6)*%
X158000000Y-81000000D03*
%TO.P,Q16,2*%
%TO.N,Net-(Q16-Pad2)*%
X158000000Y-83540000D03*
%TD*%
D17*
%TO.P,Q15,1*%
%TO.N,Net-(Q15-Pad1)*%
X153000000Y-86080000D03*
D18*
%TO.P,Q15,3*%
%TO.N,Net-(AFF3-Pad7)*%
X153000000Y-81000000D03*
%TO.P,Q15,2*%
%TO.N,Net-(Q15-Pad2)*%
X153000000Y-83540000D03*
%TD*%
D17*
%TO.P,Q14,1*%
%TO.N,Net-(Q14-Pad1)*%
X102000000Y-86080000D03*
D18*
%TO.P,Q14,3*%
%TO.N,Net-(AFF2-Pad10)*%
X102000000Y-81000000D03*
%TO.P,Q14,2*%
%TO.N,Net-(Q14-Pad2)*%
X102000000Y-83540000D03*
%TD*%
D17*
%TO.P,Q13,1*%
%TO.N,Net-(Q13-Pad1)*%
X97000000Y-86080000D03*
D18*
%TO.P,Q13,3*%
%TO.N,Net-(AFF2-Pad9)*%
X97000000Y-81000000D03*
%TO.P,Q13,2*%
%TO.N,Net-(Q13-Pad2)*%
X97000000Y-83540000D03*
%TD*%
D17*
%TO.P,Q12,1*%
%TO.N,Net-(Q12-Pad1)*%
X128000000Y-86000000D03*
D18*
%TO.P,Q12,3*%
%TO.N,Net-(AFF2-Pad1)*%
X128000000Y-80920000D03*
%TO.P,Q12,2*%
%TO.N,Net-(Q12-Pad2)*%
X128000000Y-83460000D03*
%TD*%
D17*
%TO.P,Q11,1*%
%TO.N,Net-(Q11-Pad1)*%
X122000000Y-86080000D03*
D18*
%TO.P,Q11,3*%
%TO.N,Net-(AFF2-Pad2)*%
X122000000Y-81000000D03*
%TO.P,Q11,2*%
%TO.N,Net-(Q11-Pad2)*%
X122000000Y-83540000D03*
%TD*%
D17*
%TO.P,Q10,1*%
%TO.N,Net-(Q10-Pad1)*%
X117000000Y-86080000D03*
D18*
%TO.P,Q10,3*%
%TO.N,Net-(AFF2-Pad4)*%
X117000000Y-81000000D03*
%TO.P,Q10,2*%
%TO.N,Net-(Q10-Pad2)*%
X117000000Y-83540000D03*
%TD*%
D17*
%TO.P,Q9,1*%
%TO.N,Net-(Q9-Pad1)*%
X112000000Y-86080000D03*
D18*
%TO.P,Q9,3*%
%TO.N,Net-(AFF2-Pad6)*%
X112000000Y-81000000D03*
%TO.P,Q9,2*%
%TO.N,Net-(Q9-Pad2)*%
X112000000Y-83540000D03*
%TD*%
D17*
%TO.P,Q8,1*%
%TO.N,Net-(Q8-Pad1)*%
X107000000Y-86080000D03*
D18*
%TO.P,Q8,3*%
%TO.N,Net-(AFF2-Pad7)*%
X107000000Y-81000000D03*
%TO.P,Q8,2*%
%TO.N,Net-(Q8-Pad2)*%
X107000000Y-83540000D03*
%TD*%
D17*
%TO.P,Q7,1*%
%TO.N,Net-(Q7-Pad1)*%
X81500000Y-67000000D03*
D18*
%TO.P,Q7,3*%
%TO.N,Net-(AFF1-Pad10)*%
X81500000Y-61920000D03*
%TO.P,Q7,2*%
%TO.N,Net-(Q7-Pad2)*%
X81500000Y-64460000D03*
%TD*%
D17*
%TO.P,Q6,1*%
%TO.N,Net-(Q6-Pad1)*%
X75000000Y-67000000D03*
D18*
%TO.P,Q6,3*%
%TO.N,Net-(AFF1-Pad9)*%
X75000000Y-61920000D03*
%TO.P,Q6,2*%
%TO.N,Net-(Q6-Pad2)*%
X75000000Y-64460000D03*
%TD*%
D17*
%TO.P,Q5,1*%
%TO.N,Net-(Q5-Pad1)*%
X82000000Y-86080000D03*
D18*
%TO.P,Q5,3*%
%TO.N,Net-(AFF1-Pad1)*%
X82000000Y-81000000D03*
%TO.P,Q5,2*%
%TO.N,Net-(Q5-Pad2)*%
X82000000Y-83540000D03*
%TD*%
D17*
%TO.P,Q4,1*%
%TO.N,Net-(Q4-Pad1)*%
X77000000Y-86080000D03*
D18*
%TO.P,Q4,3*%
%TO.N,Net-(AFF1-Pad2)*%
X77000000Y-81000000D03*
%TO.P,Q4,2*%
%TO.N,Net-(Q4-Pad2)*%
X77000000Y-83540000D03*
%TD*%
D17*
%TO.P,Q3,1*%
%TO.N,Net-(Q3-Pad1)*%
X72000000Y-86080000D03*
D18*
%TO.P,Q3,3*%
%TO.N,Net-(AFF1-Pad4)*%
X72000000Y-81000000D03*
%TO.P,Q3,2*%
%TO.N,Net-(Q3-Pad2)*%
X72000000Y-83540000D03*
%TD*%
D17*
%TO.P,Q2,1*%
%TO.N,Net-(Q2-Pad1)*%
X67000000Y-86080000D03*
D18*
%TO.P,Q2,3*%
%TO.N,Net-(AFF1-Pad6)*%
X67000000Y-81000000D03*
%TO.P,Q2,2*%
%TO.N,Net-(Q2-Pad2)*%
X67000000Y-83540000D03*
%TD*%
D17*
%TO.P,Q1,1*%
%TO.N,Net-(Q1-Pad1)*%
X62000000Y-86080000D03*
D18*
%TO.P,Q1,3*%
%TO.N,Net-(AFF1-Pad7)*%
X62000000Y-81000000D03*
%TO.P,Q1,2*%
%TO.N,Net-(Q1-Pad2)*%
X62000000Y-83540000D03*
%TD*%
D21*
%TO.P,AFF3,1*%
%TO.N,Net-(AFF3-Pad1)*%
X133000000Y-72740000D03*
D22*
%TO.P,AFF3,2*%
%TO.N,Net-(AFF3-Pad2)*%
X135540000Y-72740000D03*
%TO.P,AFF3,3*%
%TO.N,GND*%
X138080000Y-72740000D03*
%TO.P,AFF3,4*%
%TO.N,Net-(AFF3-Pad4)*%
X140620000Y-72740000D03*
%TO.P,AFF3,5*%
%TO.N,Net-(AFF3-Pad5)*%
X143160000Y-72740000D03*
%TO.P,AFF3,6*%
%TO.N,Net-(AFF3-Pad6)*%
X143160000Y-57500000D03*
%TO.P,AFF3,7*%
%TO.N,Net-(AFF3-Pad7)*%
X140620000Y-57500000D03*
%TO.P,AFF3,8*%
%TO.N,GND*%
X138080000Y-57500000D03*
%TO.P,AFF3,9*%
%TO.N,Net-(AFF3-Pad9)*%
X135540000Y-57500000D03*
%TO.P,AFF3,10*%
%TO.N,Net-(AFF3-Pad10)*%
X133000000Y-57500000D03*
%TD*%
D21*
%TO.P,AFF1,1*%
%TO.N,Net-(AFF1-Pad1)*%
X89000000Y-72740000D03*
D22*
%TO.P,AFF1,2*%
%TO.N,Net-(AFF1-Pad2)*%
X91540000Y-72740000D03*
%TO.P,AFF1,3*%
%TO.N,GND*%
X94080000Y-72740000D03*
%TO.P,AFF1,4*%
%TO.N,Net-(AFF1-Pad4)*%
X96620000Y-72740000D03*
%TO.P,AFF1,5*%
%TO.N,Net-(AFF1-Pad5)*%
X99160000Y-72740000D03*
%TO.P,AFF1,6*%
%TO.N,Net-(AFF1-Pad6)*%
X99160000Y-57500000D03*
%TO.P,AFF1,7*%
%TO.N,Net-(AFF1-Pad7)*%
X96620000Y-57500000D03*
%TO.P,AFF1,8*%
%TO.N,GND*%
X94080000Y-57500000D03*
%TO.P,AFF1,9*%
%TO.N,Net-(AFF1-Pad9)*%
X91540000Y-57500000D03*
%TO.P,AFF1,10*%
%TO.N,Net-(AFF1-Pad10)*%
X89000000Y-57500000D03*
%TD*%
D25*
%TO.N,+5V*%
X125500000Y-123000000D03*
X95000000Y-105500000D03*
X95000000Y-113750000D03*
%TO.N,Vss*%
X180000000Y-134500000D03*
%TO.N,Net-(U2-Pad4)*%
X73000000Y-115000000D03*
X120000000Y-115000000D03*
%TO.N,Net-(U3-Pad4)*%
X117500000Y-116500000D03*
X164000000Y-116500000D03*
%TD*%
D26*
%TO.N,Net-(AFF1-Pad1)*%
X82000000Y-81000000D02*
X83500000Y-81000000D01*
X83500000Y-81000000D02*
X86000000Y-78500000D01*
X86000000Y-78500000D02*
X94000000Y-78500000D01*
X97832010Y-74667990D02*
X97832010Y-69332010D01*
X94000000Y-78500000D02*
X97832010Y-74667990D01*
X97832010Y-69332010D02*
X96750000Y-68250000D01*
X96750000Y-68250000D02*
X91250000Y-68250000D01*
X89000000Y-70500000D02*
X89000000Y-72740000D01*
X91250000Y-68250000D02*
X89000000Y-70500000D01*
%TO.N,Net-(AFF1-Pad2)*%
X77000000Y-81000000D02*
X77000000Y-79500000D01*
X77000000Y-79500000D02*
X80250000Y-76250000D01*
X80250000Y-76250000D02*
X90750000Y-76250000D01*
X91540000Y-75460000D02*
X91540000Y-72740000D01*
X90750000Y-76250000D02*
X91540000Y-75460000D01*
D27*
%TO.N,GND*%
X82780000Y-112620000D02*
X82780000Y-110530000D01*
X82780000Y-110530000D02*
X82750000Y-110500000D01*
X171780000Y-110590000D02*
X171720000Y-110530000D01*
X171780000Y-112620000D02*
X171780000Y-110590000D01*
X127780000Y-110780000D02*
X127530000Y-110530000D01*
X127780000Y-112620000D02*
X127780000Y-110780000D01*
X82780000Y-110530000D02*
X77970000Y-110530000D01*
X77700000Y-110800000D02*
X77700000Y-112620000D01*
X77970000Y-110530000D02*
X77700000Y-110800000D01*
X171780000Y-110590000D02*
X171590000Y-110590000D01*
X171590000Y-110590000D02*
X170500000Y-109500000D01*
X170500000Y-109500000D02*
X149000000Y-109500000D01*
X147970000Y-110530000D02*
X148250000Y-110250000D01*
X126470000Y-110530000D02*
X147970000Y-110530000D01*
X149000000Y-109500000D02*
X148250000Y-110250000D01*
X126470000Y-110530000D02*
X127530000Y-110530000D01*
D26*
X166700000Y-112620000D02*
X166700000Y-114600000D01*
X166700000Y-114600000D02*
X167400000Y-115300000D01*
X167400000Y-115300000D02*
X171100000Y-115300000D01*
X171780000Y-114620000D02*
X171780000Y-112620000D01*
X171100000Y-115300000D02*
X171780000Y-114620000D01*
X177000000Y-123000000D02*
X177000000Y-115500000D01*
X177000000Y-115500000D02*
X177000000Y-114000000D01*
X122700000Y-110800000D02*
X122970000Y-110530000D01*
X122700000Y-112620000D02*
X122700000Y-110800000D01*
D27*
X122970000Y-110530000D02*
X126470000Y-110530000D01*
X82780000Y-110530000D02*
X122970000Y-110530000D01*
D26*
X105160000Y-140000000D02*
X109500000Y-140000000D01*
X60250000Y-127750000D02*
X60250000Y-133000000D01*
X64500000Y-123500000D02*
X60250000Y-127750000D01*
X81670000Y-123500000D02*
X64500000Y-123500000D01*
X64500000Y-145000000D02*
X55000000Y-145000000D01*
D27*
X82780000Y-112620000D02*
X82780000Y-117220000D01*
X81670000Y-118330000D02*
X81670000Y-123500000D01*
X82780000Y-117220000D02*
X81670000Y-118330000D01*
D26*
%TO.N,Net-(AFF1-Pad4)*%
X96620000Y-72740000D02*
X96620000Y-71120000D01*
X96620000Y-71120000D02*
X95750000Y-70250000D01*
X95750000Y-70250000D02*
X91750000Y-70250000D01*
X90212001Y-74362001D02*
X89074002Y-75500000D01*
X90212001Y-71787999D02*
X90212001Y-74362001D01*
X91750000Y-70250000D02*
X90212001Y-71787999D01*
X77500000Y-75500000D02*
X72000000Y-81000000D01*
X89074002Y-75500000D02*
X77500000Y-75500000D01*
%TO.N,Net-(AFF1-Pad6)*%
X71500000Y-74250000D02*
X67000000Y-78750000D01*
X83500000Y-74250000D02*
X71500000Y-74250000D01*
X67000000Y-78750000D02*
X67000000Y-81000000D01*
X99160000Y-58590000D02*
X83500000Y-74250000D01*
X99160000Y-57500000D02*
X99160000Y-58590000D01*
%TO.N,Net-(AFF1-Pad7)*%
X67500000Y-73000000D02*
X62000000Y-78500000D01*
X62000000Y-78500000D02*
X62000000Y-81000000D01*
X82500000Y-73000000D02*
X67500000Y-73000000D01*
X96620000Y-58880000D02*
X82500000Y-73000000D01*
X96620000Y-57500000D02*
X96620000Y-58880000D01*
%TO.N,Net-(AFF1-Pad9)*%
X91540000Y-57500000D02*
X91540000Y-56290000D01*
X91540000Y-56290000D02*
X91037990Y-55787990D01*
X91037990Y-55787990D02*
X82712010Y-55787990D01*
X76580000Y-61920000D02*
X75000000Y-61920000D01*
X82712010Y-55787990D02*
X76580000Y-61920000D01*
%TO.N,Net-(AFF1-Pad10)*%
X85920000Y-57500000D02*
X81500000Y-61920000D01*
X89000000Y-57500000D02*
X85920000Y-57500000D01*
%TO.N,Net-(AFF2-Pad1)*%
X128000000Y-80920000D02*
X128000000Y-78000000D01*
X128000000Y-78000000D02*
X127000000Y-77000000D01*
X127000000Y-77000000D02*
X127000000Y-71000000D01*
X127000000Y-71000000D02*
X124500000Y-68500000D01*
X124500000Y-68500000D02*
X113000000Y-68500000D01*
X113000000Y-68500000D02*
X111000000Y-70500000D01*
X111000000Y-70500000D02*
X111000000Y-72740000D01*
%TO.N,Net-(AFF2-Pad2)*%
X122000000Y-81000000D02*
X122000000Y-77500000D01*
X122000000Y-77500000D02*
X124500000Y-75000000D01*
X124500000Y-75000000D02*
X124500000Y-71500000D01*
X124500000Y-71500000D02*
X123000000Y-70000000D01*
X123000000Y-70000000D02*
X114500000Y-70000000D01*
X113540000Y-70960000D02*
X113540000Y-72740000D01*
X114500000Y-70000000D02*
X113540000Y-70960000D01*
%TO.N,Net-(AFF2-Pad4)*%
X117000000Y-81000000D02*
X117000000Y-77500000D01*
X118620000Y-75880000D02*
X118620000Y-72740000D01*
X117000000Y-77500000D02*
X118620000Y-75880000D01*
%TO.N,Net-(AFF2-Pad6)*%
X112000000Y-81000000D02*
X112000000Y-78000000D01*
X112000000Y-78000000D02*
X109500000Y-75500000D01*
X109500000Y-75500000D02*
X109500000Y-70500000D01*
X121160000Y-58840000D02*
X121160000Y-57500000D01*
X109500000Y-70500000D02*
X121160000Y-58840000D01*
%TO.N,Net-(AFF2-Pad7)*%
X118620000Y-57500000D02*
X118620000Y-59380000D01*
X118620000Y-59380000D02*
X107000000Y-71000000D01*
X107000000Y-71000000D02*
X107000000Y-81000000D01*
%TO.N,Net-(AFF2-Pad9)*%
X97000000Y-81000000D02*
X99500000Y-81000000D01*
X99500000Y-81000000D02*
X104500000Y-76000000D01*
X104500000Y-76000000D02*
X104500000Y-70500000D01*
X104500000Y-70500000D02*
X109000000Y-66000000D01*
X109000000Y-66000000D02*
X109000000Y-56000000D01*
X109000000Y-56000000D02*
X110500000Y-54500000D01*
X110500000Y-54500000D02*
X113000000Y-54500000D01*
X113540000Y-55040000D02*
X113540000Y-57500000D01*
X113000000Y-54500000D02*
X113540000Y-55040000D01*
%TO.N,Net-(AFF2-Pad10)*%
X111000000Y-58029963D02*
X111240010Y-57789953D01*
X111240010Y-57789953D02*
X111240010Y-57500000D01*
X106000000Y-77000000D02*
X106000000Y-70500000D01*
X111000000Y-65500000D02*
X111000000Y-58029963D01*
X106000000Y-70500000D02*
X111000000Y-65500000D01*
X102000000Y-81000000D02*
X106000000Y-77000000D01*
%TO.N,Net-(AFF3-Pad1)*%
X173000000Y-78500000D02*
X173000000Y-81000000D01*
X163000000Y-68500000D02*
X173000000Y-78500000D01*
X133000000Y-71000000D02*
X135500000Y-68500000D01*
X133000000Y-72740000D02*
X133000000Y-71000000D01*
X135500000Y-68500000D02*
X163000000Y-68500000D01*
%TO.N,Net-(AFF3-Pad2)*%
X168000000Y-81000000D02*
X168000000Y-75250000D01*
X168000000Y-75250000D02*
X162250000Y-69500000D01*
X135540000Y-71460000D02*
X137500000Y-69500000D01*
X135540000Y-72740000D02*
X135540000Y-71460000D01*
X162250000Y-69500000D02*
X137500000Y-69500000D01*
%TO.N,Net-(AFF3-Pad4)*%
X157500000Y-75500000D02*
X163000000Y-81000000D01*
X140620000Y-74620000D02*
X141500000Y-75500000D01*
X140620000Y-72740000D02*
X140620000Y-74620000D01*
X141500000Y-75500000D02*
X157500000Y-75500000D01*
%TO.N,Net-(AFF3-Pad6)*%
X158000000Y-79500000D02*
X155000000Y-76500000D01*
X158000000Y-81000000D02*
X158000000Y-79500000D01*
X143160000Y-57500000D02*
X143160000Y-58340000D01*
X143160000Y-58340000D02*
X131000000Y-70500000D01*
X131000000Y-70500000D02*
X131000000Y-74500000D01*
X131000000Y-74500000D02*
X133000000Y-76500000D01*
X155000000Y-76500000D02*
X133000000Y-76500000D01*
%TO.N,Net-(AFF3-Pad7)*%
X153000000Y-78500000D02*
X151875000Y-77375000D01*
X153000000Y-81000000D02*
X153000000Y-78500000D01*
X140620000Y-57500000D02*
X140620000Y-59380000D01*
X140620000Y-59380000D02*
X130000000Y-70000000D01*
X130000000Y-70000000D02*
X130000000Y-75000000D01*
X130000000Y-75000000D02*
X132375000Y-77375000D01*
X151875000Y-77375000D02*
X132375000Y-77375000D01*
%TO.N,Net-(AFF3-Pad9)*%
X142250000Y-79000000D02*
X143000000Y-79750000D01*
X143000000Y-79750000D02*
X143000000Y-81000000D01*
X128000000Y-76500000D02*
X130500000Y-79000000D01*
X128000000Y-69000000D02*
X128000000Y-76500000D01*
X131000000Y-56000000D02*
X131000000Y-66000000D01*
X131000000Y-66000000D02*
X128000000Y-69000000D01*
X132000000Y-55000000D02*
X131000000Y-56000000D01*
X135000000Y-55000000D02*
X132000000Y-55000000D01*
X135540000Y-55540000D02*
X135000000Y-55000000D01*
X135540000Y-57500000D02*
X135540000Y-55540000D01*
X130500000Y-79000000D02*
X142250000Y-79000000D01*
%TO.N,Net-(AFF3-Pad10)*%
X148000000Y-79250000D02*
X146875000Y-78125000D01*
X148000000Y-81000000D02*
X148000000Y-79250000D01*
X133000000Y-57500000D02*
X133000000Y-65500000D01*
X133000000Y-65500000D02*
X129000000Y-69500000D01*
X129000000Y-69500000D02*
X129000000Y-75750000D01*
X129000000Y-75750000D02*
X131375000Y-78125000D01*
X146875000Y-78125000D02*
X131375000Y-78125000D01*
%TO.N,Net-(Q1-Pad2)*%
X64250000Y-84250000D02*
X64250000Y-86260002D01*
X62000000Y-83540000D02*
X63540000Y-83540000D01*
X63540000Y-83540000D02*
X64250000Y-84250000D01*
X66744999Y-88755001D02*
X66744999Y-91494999D01*
X64250000Y-86260002D02*
X66744999Y-88755001D01*
X66744999Y-91494999D02*
X68875000Y-93625000D01*
X72620000Y-100870000D02*
X68875000Y-97125000D01*
X72620000Y-105000000D02*
X72620000Y-100870000D01*
X68875000Y-93625000D02*
X68875000Y-97125000D01*
%TO.N,Net-(Q2-Pad2)*%
X67000000Y-83540000D02*
X70505012Y-87045012D01*
X75160000Y-101160000D02*
X70505012Y-96505012D01*
X75160000Y-105000000D02*
X75160000Y-101160000D01*
X70505012Y-87045012D02*
X70505012Y-96505012D01*
%TO.N,Net-(Q3-Pad2)*%
X72000000Y-83769998D02*
X72000000Y-83540000D01*
X73500000Y-85269998D02*
X72000000Y-83769998D01*
X77700000Y-101950000D02*
X73500000Y-97750000D01*
X77700000Y-105000000D02*
X77700000Y-101950000D01*
X73500000Y-97750000D02*
X73500000Y-85269998D01*
%TO.N,Net-(Q4-Pad2)*%
X80240000Y-105000000D02*
X80240000Y-102240000D01*
X80240000Y-102240000D02*
X75000000Y-97000000D01*
X75000000Y-85540000D02*
X77000000Y-83540000D01*
X75000000Y-97000000D02*
X75000000Y-85540000D01*
%TO.N,Net-(Q5-Pad2)*%
X82780000Y-105000000D02*
X82780000Y-102780000D01*
X80799999Y-84740001D02*
X80759999Y-84740001D01*
X82000000Y-83540000D02*
X80799999Y-84740001D01*
X80759999Y-84740001D02*
X77500000Y-88000000D01*
X82780000Y-99339998D02*
X82780000Y-102780000D01*
X77500000Y-94059998D02*
X82780000Y-99339998D01*
X77500000Y-88000000D02*
X77500000Y-94059998D01*
%TO.N,Net-(Q6-Pad2)*%
X74960000Y-64500000D02*
X75000000Y-64460000D01*
X68000000Y-64500000D02*
X74960000Y-64500000D01*
X58125000Y-74375000D02*
X68000000Y-64500000D01*
X58125000Y-93625000D02*
X58125000Y-74375000D01*
X67540000Y-103040000D02*
X58125000Y-93625000D01*
X67540000Y-105000000D02*
X67540000Y-103040000D01*
%TO.N,Net-(Q7-Pad2)*%
X70080000Y-103580000D02*
X70080000Y-105000000D01*
X59125000Y-75375000D02*
X59125000Y-92625000D01*
X59125000Y-92625000D02*
X70080000Y-103580000D01*
X68839999Y-65660001D02*
X59125000Y-75375000D01*
X80299999Y-65660001D02*
X68839999Y-65660001D01*
X81500000Y-64460000D02*
X80299999Y-65660001D01*
%TO.N,Net-(Q8-Pad2)*%
X107000000Y-83540000D02*
X108040000Y-83540000D01*
X108040000Y-83540000D02*
X110750000Y-86250000D01*
X110750000Y-86250000D02*
X110750000Y-95500000D01*
X117620000Y-102370000D02*
X117620000Y-105000000D01*
X110750000Y-95500000D02*
X117620000Y-102370000D01*
%TO.N,Net-(Q9-Pad2)*%
X112000000Y-83460000D02*
X116000000Y-87460000D01*
X116000000Y-87460000D02*
X116000000Y-90750000D01*
X115249999Y-91500001D02*
X115249999Y-96999999D01*
X116000000Y-90750000D02*
X115249999Y-91500001D01*
X120160000Y-101910000D02*
X120160000Y-105000000D01*
X115249999Y-96999999D02*
X120160000Y-101910000D01*
%TO.N,Net-(Q10-Pad2)*%
X122700000Y-100450000D02*
X122700000Y-105000000D01*
X119299990Y-97049990D02*
X122700000Y-100450000D01*
X119299990Y-85839990D02*
X119299990Y-97049990D01*
X117000000Y-83540000D02*
X119299990Y-85839990D01*
%TO.N,Net-(Q11-Pad2)*%
X122000000Y-83540000D02*
X120500000Y-85040000D01*
X120500000Y-95350002D02*
X125240000Y-100090002D01*
X120500000Y-85040000D02*
X120500000Y-95350002D01*
X125240000Y-101510000D02*
X125240000Y-105000000D01*
X125240000Y-100090002D02*
X125240000Y-101510000D01*
%TO.N,Net-(Q12-Pad2)*%
X126799999Y-84660001D02*
X126799999Y-84950001D01*
X128000000Y-83460000D02*
X126799999Y-84660001D01*
X126799999Y-84950001D02*
X122750000Y-89000000D01*
X122750000Y-89000000D02*
X122750000Y-92500000D01*
X127780000Y-97530000D02*
X127780000Y-105000000D01*
X122750000Y-92500000D02*
X127780000Y-97530000D01*
%TO.N,Net-(Q13-Pad2)*%
X112540000Y-105000000D02*
X107790000Y-100250000D01*
X107790000Y-100250000D02*
X103500000Y-100250000D01*
X103500000Y-100250000D02*
X99000000Y-95750000D01*
X99000000Y-95750000D02*
X99000000Y-84500000D01*
X98040000Y-83540000D02*
X97000000Y-83540000D01*
X99000000Y-84500000D02*
X98040000Y-83540000D01*
%TO.N,Net-(Q14-Pad2)*%
X115080000Y-105000000D02*
X115080000Y-102080000D01*
X115080000Y-102080000D02*
X104000000Y-91000000D01*
X104000000Y-91000000D02*
X104000000Y-83750000D01*
X103790000Y-83540000D02*
X102000000Y-83540000D01*
X104000000Y-83750000D02*
X103790000Y-83540000D01*
%TO.N,Net-(Q15-Pad2)*%
X161620000Y-105000000D02*
X161620000Y-103620000D01*
X161620000Y-103620000D02*
X157000000Y-99000000D01*
X157000000Y-99000000D02*
X157000000Y-88500000D01*
X157000000Y-88500000D02*
X155000000Y-86500000D01*
X155000000Y-86500000D02*
X155000000Y-84500000D01*
X154040000Y-83540000D02*
X153000000Y-83540000D01*
X155000000Y-84500000D02*
X154040000Y-83540000D01*
%TO.N,Net-(Q16-Pad2)*%
X164160000Y-105000000D02*
X164160000Y-101160000D01*
X164160000Y-101160000D02*
X160750000Y-97750000D01*
X160750000Y-97750000D02*
X160750000Y-85500000D01*
X160750000Y-85500000D02*
X159000000Y-83750000D01*
X158210000Y-83750000D02*
X158000000Y-83540000D01*
X159000000Y-83750000D02*
X158210000Y-83750000D01*
%TO.N,Net-(Q17-Pad2)*%
X166700000Y-105000000D02*
X166700000Y-97700000D01*
X166700000Y-97700000D02*
X164000000Y-95000000D01*
X164749999Y-85289999D02*
X163749999Y-84289999D01*
X164000000Y-92249998D02*
X164749999Y-91499999D01*
X164749999Y-91499999D02*
X164749999Y-85289999D01*
X163749999Y-84289999D02*
X163000000Y-83540000D01*
X164000000Y-95000000D02*
X164000000Y-92249998D01*
%TO.N,Net-(Q18-Pad2)*%
X169240000Y-105000000D02*
X169240000Y-88760000D01*
X169240000Y-88760000D02*
X169750000Y-88250000D01*
X169750000Y-85290000D02*
X168000000Y-83540000D01*
X169750000Y-88250000D02*
X169750000Y-85290000D01*
%TO.N,Net-(Q19-Pad2)*%
X175750000Y-84250000D02*
X175040000Y-83540000D01*
X175040000Y-83540000D02*
X173000000Y-83540000D01*
X175750000Y-86059998D02*
X175750000Y-84250000D01*
X173559998Y-88250000D02*
X175750000Y-86059998D01*
X172500000Y-88250000D02*
X173559998Y-88250000D01*
X172159999Y-88590001D02*
X172500000Y-88250000D01*
X172159999Y-104620001D02*
X172159999Y-88590001D01*
X171780000Y-105000000D02*
X172159999Y-104620001D01*
%TO.N,Net-(Q20-Pad2)*%
X156540000Y-103868630D02*
X145000000Y-92328630D01*
X156540000Y-105000000D02*
X156540000Y-103868630D01*
X145000000Y-85540000D02*
X143000000Y-83540000D01*
X145000000Y-92328630D02*
X145000000Y-85540000D01*
%TO.N,Net-(Q21-Pad2)*%
X159080000Y-105000000D02*
X159080000Y-103580000D01*
X159080000Y-103580000D02*
X153250000Y-97750000D01*
X153250000Y-97750000D02*
X153250000Y-90500000D01*
X153250000Y-90500000D02*
X150250000Y-87500000D01*
X150250000Y-87500000D02*
X150250000Y-84250000D01*
X149540000Y-83540000D02*
X148000000Y-83540000D01*
X150250000Y-84250000D02*
X149540000Y-83540000D01*
D27*
%TO.N,+5V*%
X59840000Y-67500000D02*
X59840000Y-70750000D01*
X64840000Y-105000000D02*
X65000000Y-105000000D01*
X55840000Y-96000000D02*
X64840000Y-105000000D01*
X55840000Y-74750000D02*
X59840000Y-70750000D01*
X55840000Y-96000000D02*
X55840000Y-74750000D01*
D28*
X65000000Y-105000000D02*
X65000000Y-107800000D01*
X153800000Y-105200000D02*
X154000000Y-105000000D01*
X64740000Y-107540000D02*
X65000000Y-107800000D01*
D26*
X156000000Y-123500000D02*
X155500000Y-123000000D01*
X156000000Y-127000000D02*
X156000000Y-123500000D01*
D27*
X125500000Y-127000000D02*
X125500000Y-123000000D01*
X95000000Y-128500000D02*
X95000000Y-127000000D01*
X122500000Y-130000000D02*
X96500000Y-130000000D01*
X96500000Y-130000000D02*
X95000000Y-128500000D01*
X125500000Y-127000000D02*
X122500000Y-130000000D01*
X95000000Y-127000000D02*
X95000000Y-113750000D01*
D26*
X94750000Y-127250000D02*
X95000000Y-127000000D01*
X78840000Y-127250000D02*
X94750000Y-127250000D01*
D27*
X79090000Y-127000000D02*
X78045000Y-128045000D01*
X78045000Y-128045000D02*
X78840000Y-127250000D01*
X95000000Y-127000000D02*
X79090000Y-127000000D01*
X76500000Y-129590000D02*
X78045000Y-128045000D01*
X71750000Y-129590000D02*
X76500000Y-129590000D01*
X81610001Y-139400001D02*
X82210000Y-140000000D01*
X81610001Y-132349999D02*
X81610001Y-139400001D01*
X82210000Y-131750000D02*
X81610001Y-132349999D01*
D26*
%TO.N,Net-(U2-Pad4)*%
X72620000Y-114620000D02*
X73000000Y-115000000D01*
X72620000Y-112620000D02*
X72620000Y-114620000D01*
X120000000Y-112780000D02*
X120160000Y-112620000D01*
X120000000Y-115000000D02*
X120000000Y-112780000D01*
%TO.N,Net-(U3-Pad4)*%
X117620000Y-116380000D02*
X117500000Y-116500000D01*
X117620000Y-112620000D02*
X117620000Y-116380000D01*
X164000000Y-112780000D02*
X164160000Y-112620000D01*
X164000000Y-116500000D02*
X164000000Y-112780000D01*
%TO.N,Net-(U5-Pad1)*%
X140740000Y-127000000D02*
X140740000Y-129260000D01*
X140740000Y-129260000D02*
X139500000Y-130500000D01*
X128040000Y-131460000D02*
X128040000Y-134620000D01*
X129000000Y-130500000D02*
X128040000Y-131460000D01*
X130580000Y-130420000D02*
X130500000Y-130500000D01*
X130500000Y-130500000D02*
X129000000Y-130500000D01*
X130580000Y-127000000D02*
X130580000Y-130420000D01*
X139500000Y-130500000D02*
X130500000Y-130500000D01*
X125500000Y-134620000D02*
X128040000Y-134620000D01*
%TO.N,Net-(U1-Pad1)*%
X158540000Y-134620000D02*
X156000000Y-134620000D01*
X156000000Y-134620000D02*
X148620000Y-134620000D01*
X148620000Y-134620000D02*
X146000000Y-132000000D01*
X146000000Y-132000000D02*
X139000000Y-132000000D01*
X138200000Y-132800000D02*
X139000000Y-132000000D01*
X138200000Y-134620000D02*
X138200000Y-132800000D01*
%TO.N,Net-(Q1-Pad1)*%
X62000000Y-92000000D02*
X66000000Y-96000000D01*
X62000000Y-86080000D02*
X62000000Y-92000000D01*
%TO.N,Net-(Q2-Pad1)*%
X68840000Y-89000000D02*
X67340000Y-87500000D01*
X67340000Y-86420000D02*
X67000000Y-86080000D01*
X67340000Y-87500000D02*
X67340000Y-86420000D01*
%TO.N,Net-(Q3-Pad1)*%
X72000000Y-92000000D02*
X72000000Y-86080000D01*
%TO.N,Net-(Q4-Pad1)*%
X77000000Y-86080000D02*
X77000000Y-87000000D01*
X77000000Y-87000000D02*
X76250000Y-87750000D01*
X76250000Y-94660000D02*
X77090000Y-95500000D01*
X76250000Y-87750000D02*
X76250000Y-94660000D01*
%TO.N,Net-(Q5-Pad1)*%
X87000000Y-81000000D02*
X87000000Y-84250000D01*
X85170000Y-86080000D02*
X82000000Y-86080000D01*
X87000000Y-84250000D02*
X85170000Y-86080000D01*
%TO.N,Net-(Q6-Pad1)*%
X74500000Y-67500000D02*
X75000000Y-67000000D01*
X70000000Y-67500000D02*
X74500000Y-67500000D01*
%TO.N,Net-(Q7-Pad1)*%
X77750000Y-70750000D02*
X81500000Y-67000000D01*
X70000000Y-70750000D02*
X77750000Y-70750000D01*
%TO.N,Net-(Q8-Pad1)*%
X106250000Y-90750000D02*
X106250000Y-89000000D01*
X107000000Y-88250000D02*
X107000000Y-86080000D01*
X106250000Y-89000000D02*
X107000000Y-88250000D01*
%TO.N,Net-(Q9-Pad1)*%
X112000000Y-87160000D02*
X114590000Y-89750000D01*
X112000000Y-86000000D02*
X112000000Y-87160000D01*
%TO.N,Net-(Q10-Pad1)*%
X116500000Y-93000000D02*
X117000000Y-92500000D01*
X117000000Y-92500000D02*
X117000000Y-86080000D01*
%TO.N,Net-(Q11-Pad1)*%
X122000000Y-86080000D02*
X121920000Y-86080000D01*
X121750000Y-86330000D02*
X122000000Y-86080000D01*
X123000000Y-96000000D02*
X121750000Y-94750000D01*
X121750000Y-94750000D02*
X121750000Y-86330000D01*
%TO.N,Net-(Q12-Pad1)*%
X133000000Y-80840000D02*
X133000000Y-82750000D01*
X129750000Y-86000000D02*
X128000000Y-86000000D01*
X133000000Y-82750000D02*
X129750000Y-86000000D01*
%TO.N,Net-(Q13-Pad1)*%
X92000000Y-80750000D02*
X92000000Y-84250000D01*
X93830000Y-86080000D02*
X97000000Y-86080000D01*
X92000000Y-84250000D02*
X93830000Y-86080000D01*
%TO.N,Net-(Q14-Pad1)*%
X102000000Y-91500000D02*
X102000000Y-86080000D01*
X106250000Y-95750000D02*
X102000000Y-91500000D01*
%TO.N,Net-(Q15-Pad1)*%
X155750000Y-95000000D02*
X155750000Y-88830000D01*
X155750000Y-88830000D02*
X153000000Y-86080000D01*
%TO.N,Net-(Q16-Pad1)*%
X158000000Y-86080000D02*
X158000000Y-89250000D01*
X158660000Y-89910000D02*
X158660000Y-98500000D01*
X158000000Y-89250000D02*
X158660000Y-89910000D01*
%TO.N,Net-(Q17-Pad1)*%
X163000000Y-90000000D02*
X163250000Y-90250000D01*
X163000000Y-86080000D02*
X163000000Y-90000000D01*
%TO.N,Net-(Q18-Pad1)*%
X166000000Y-94250000D02*
X166000000Y-92000000D01*
X168000000Y-90000000D02*
X168000000Y-86080000D01*
X166000000Y-92000000D02*
X168000000Y-90000000D01*
%TO.N,Net-(Q19-Pad1)*%
X170750000Y-88330000D02*
X173000000Y-86080000D01*
X170750000Y-98250000D02*
X170750000Y-88330000D01*
%TO.N,Net-(Q20-Pad1)*%
X143000000Y-86080000D02*
X140580000Y-86080000D01*
X138000000Y-83500000D02*
X138000000Y-81000000D01*
X140580000Y-86080000D02*
X138000000Y-83500000D01*
%TO.N,Net-(Q21-Pad1)*%
X151500000Y-91000000D02*
X149750000Y-91000000D01*
X148000000Y-89250000D02*
X148000000Y-86080000D01*
X149750000Y-91000000D02*
X148000000Y-89250000D01*
%TO.N,A1C*%
X65000000Y-112620000D02*
X59620000Y-112620000D01*
X57080000Y-110080000D02*
X56000000Y-110080000D01*
X59620000Y-112620000D02*
X57080000Y-110080000D01*
%TO.N,A2C*%
X67540000Y-112620000D02*
X67540000Y-114960000D01*
X67540000Y-114960000D02*
X67000000Y-115500000D01*
X67000000Y-115500000D02*
X60500000Y-115500000D01*
X60500000Y-115500000D02*
X57620000Y-112620000D01*
%TO.N,~RBI*%
X58160000Y-115160000D02*
X59500000Y-116500000D01*
X59500000Y-116500000D02*
X74500000Y-116500000D01*
X75160000Y-115840000D02*
X75160000Y-112620000D01*
X74500000Y-116500000D02*
X75160000Y-115840000D01*
X55000000Y-115160000D02*
X56840000Y-115160000D01*
X56840000Y-115160000D02*
X58160000Y-115160000D01*
X56000000Y-115160000D02*
X56840000Y-115160000D01*
%TO.N,A1C*%
X55000000Y-110080000D02*
X56920000Y-110080000D01*
%TO.N,A2C*%
X55000000Y-112620000D02*
X56380000Y-112620000D01*
X56380000Y-112620000D02*
X56000000Y-112620000D01*
X57620000Y-112620000D02*
X56380000Y-112620000D01*
%TO.N,A0C*%
X80240000Y-115760000D02*
X80240000Y-112620000D01*
X78300000Y-117700000D02*
X80240000Y-115760000D01*
X55000000Y-117700000D02*
X78300000Y-117700000D01*
%TO.N,QH*%
X169240000Y-112620000D02*
X169240000Y-111740000D01*
X169240000Y-111740000D02*
X168500000Y-111000000D01*
X168500000Y-111000000D02*
X152500000Y-111000000D01*
X152500000Y-111000000D02*
X152000000Y-111500000D01*
X158540000Y-124540000D02*
X158250000Y-124250000D01*
X158540000Y-127000000D02*
X158540000Y-124540000D01*
X158250000Y-124250000D02*
X158500000Y-124500000D01*
X158540000Y-127000000D02*
X158540000Y-122540000D01*
X158540000Y-122540000D02*
X152000000Y-116000000D01*
X152000000Y-111500000D02*
X152000000Y-116000000D01*
%TO.N,QD*%
X142000000Y-119000000D02*
X144000000Y-121000000D01*
X111000000Y-119000000D02*
X142000000Y-119000000D01*
X110000000Y-112620000D02*
X110000000Y-118000000D01*
X110000000Y-118000000D02*
X111000000Y-119000000D01*
X144000000Y-121000000D02*
X144000000Y-127000000D01*
X168700000Y-134620000D02*
X168700000Y-132200000D01*
X168700000Y-132200000D02*
X168000000Y-131500000D01*
X168000000Y-131500000D02*
X148500000Y-131500000D01*
X144000000Y-127000000D02*
X148500000Y-131500000D01*
%TO.N,QG*%
X154000000Y-116000000D02*
X154000000Y-112620000D01*
X161080000Y-123080000D02*
X154000000Y-116000000D01*
X161080000Y-127000000D02*
X161080000Y-123080000D01*
%TO.N,OF*%
X165910000Y-144950000D02*
X165960000Y-145000000D01*
X165910000Y-138620000D02*
X165910000Y-144950000D01*
X165960000Y-134820000D02*
X166160000Y-134620000D01*
X165960000Y-145000000D02*
X165960000Y-134820000D01*
%TO.N,QF*%
X163620000Y-127000000D02*
X163620000Y-123620000D01*
X156540000Y-116040000D02*
X156540000Y-112620000D01*
X163620000Y-123120000D02*
X156540000Y-116040000D01*
X163620000Y-127000000D02*
X163620000Y-123120000D01*
%TO.N,OG*%
X163370000Y-144950000D02*
X163420000Y-145000000D01*
X163370000Y-138620000D02*
X163370000Y-144950000D01*
X163420000Y-145000000D02*
X163420000Y-138080000D01*
X163620000Y-137880000D02*
X163620000Y-134620000D01*
X163420000Y-138080000D02*
X163620000Y-137880000D01*
%TO.N,QE*%
X143000000Y-117000000D02*
X126000000Y-117000000D01*
X146000000Y-126000000D02*
X146000000Y-120000000D01*
X149500000Y-129500000D02*
X146000000Y-126000000D01*
X165500000Y-129500000D02*
X149500000Y-129500000D01*
X125240000Y-116240000D02*
X125240000Y-112620000D01*
X126000000Y-117000000D02*
X125240000Y-116240000D01*
X146000000Y-120000000D02*
X143000000Y-117000000D01*
X166160000Y-128840000D02*
X165500000Y-129500000D01*
X166160000Y-127000000D02*
X166160000Y-128840000D01*
%TO.N,OH*%
X160830000Y-144950000D02*
X160880000Y-145000000D01*
X160830000Y-138620000D02*
X160830000Y-144950000D01*
X160880000Y-145000000D02*
X160880000Y-138120000D01*
X161080000Y-137920000D02*
X161080000Y-134620000D01*
X160880000Y-138120000D02*
X161080000Y-137920000D01*
%TO.N,A2B*%
X175500000Y-145000000D02*
X168500000Y-145000000D01*
X174500000Y-130500000D02*
X177000000Y-133000000D01*
X177000000Y-143500000D02*
X175500000Y-145000000D01*
X177000000Y-133000000D02*
X177000000Y-143500000D01*
X145000000Y-120500000D02*
X145000000Y-126500000D01*
X142500000Y-118000000D02*
X145000000Y-120500000D01*
X113000000Y-118000000D02*
X142500000Y-118000000D01*
X149000000Y-130500000D02*
X174500000Y-130500000D01*
X112540000Y-117540000D02*
X113000000Y-118000000D01*
X145000000Y-126500000D02*
X149000000Y-130500000D01*
X112540000Y-112620000D02*
X112540000Y-117540000D01*
%TO.N,Net-(C1-Pad1)*%
X165660000Y-123000000D02*
X167000000Y-123000000D01*
X168700000Y-124700000D02*
X168700000Y-127000000D01*
X167000000Y-123000000D02*
X168700000Y-124700000D01*
X168700000Y-124700000D02*
X168800000Y-124700000D01*
X168800000Y-124700000D02*
X170500000Y-123000000D01*
X170500000Y-123000000D02*
X172000000Y-123000000D01*
X165660000Y-123000000D02*
X170500000Y-123000000D01*
%TO.N,~DATA*%
X135660000Y-134620000D02*
X133120000Y-134620000D01*
X135960000Y-140960000D02*
X135960000Y-145000000D01*
X133120000Y-138120000D02*
X135960000Y-140960000D01*
X133120000Y-134620000D02*
X133120000Y-138120000D01*
%TO.N,~RESET_FLAG*%
X130000000Y-145000000D02*
X130880000Y-145000000D01*
X128040000Y-127000000D02*
X123040000Y-132000000D01*
X128840000Y-145000000D02*
X119500000Y-135660000D01*
X130880000Y-145000000D02*
X128840000Y-145000000D01*
X128040000Y-127120000D02*
X128040000Y-127000000D01*
X119500000Y-135660000D02*
X128040000Y-127120000D01*
%TO.N,Net-(U5-Pad10)*%
X133120000Y-127000000D02*
X135660000Y-127000000D01*
%TO.N,~FLAG*%
X133420000Y-141420000D02*
X133420000Y-145000000D01*
X130580000Y-138580000D02*
X133420000Y-141420000D01*
X130580000Y-134620000D02*
X130580000Y-138580000D01*
%TO.N,Net-(D1-Pad2)*%
X119500000Y-125500000D02*
X116000000Y-122000000D01*
X106000000Y-122000000D02*
X105000000Y-121000000D01*
X116000000Y-122000000D02*
X106000000Y-122000000D01*
%TO.N,Net-(C2-Pad2)*%
X115750000Y-127250000D02*
X120500000Y-127250000D01*
X120500000Y-127250000D02*
X123000000Y-124750000D01*
X123000000Y-124750000D02*
X123000000Y-122500000D01*
X123000000Y-122500000D02*
X124500000Y-121000000D01*
X124500000Y-121000000D02*
X137250000Y-121000000D01*
X138200000Y-121950000D02*
X138200000Y-127000000D01*
X137250000Y-121000000D02*
X138200000Y-121950000D01*
X98500000Y-116000000D02*
X98500000Y-119750000D01*
X98500000Y-119750000D02*
X102750000Y-124000000D01*
X102750000Y-124000000D02*
X114250000Y-124000000D01*
X115750000Y-125500000D02*
X115750000Y-127250000D01*
X114250000Y-124000000D02*
X115750000Y-125500000D01*
%TO.N,Net-(C2-Pad1)*%
X107700000Y-134620000D02*
X107700000Y-133300000D01*
X108750000Y-132250000D02*
X115750000Y-132250000D01*
X107700000Y-133300000D02*
X108750000Y-132250000D01*
%TO.N,Net-(Q24-Pad1)*%
X95000000Y-134620000D02*
X95000000Y-140000000D01*
%TO.N,Net-(R25-Pad1)*%
X97540000Y-134620000D02*
X97540000Y-135790000D01*
X97540000Y-135790000D02*
X98500000Y-136750000D01*
X102620000Y-135630000D02*
X102620000Y-134620000D01*
X101500000Y-136750000D02*
X102620000Y-135630000D01*
X102620000Y-134620000D02*
X105160000Y-134620000D01*
X99000000Y-136750000D02*
X99000000Y-140250000D01*
X98500000Y-136750000D02*
X99000000Y-136750000D01*
X99000000Y-136750000D02*
X101500000Y-136750000D01*
X99000000Y-140250000D02*
X97750000Y-141500000D01*
X78250000Y-141500000D02*
X76500000Y-139750000D01*
X97750000Y-141500000D02*
X78250000Y-141500000D01*
%TO.N,Net-(D1-Pad1)*%
X67000000Y-128500000D02*
X67000000Y-129500000D01*
X86750000Y-123500000D02*
X86750000Y-125000000D01*
X86125000Y-125625000D02*
X69875000Y-125625000D01*
X86750000Y-125000000D02*
X86125000Y-125625000D01*
X69875000Y-125625000D02*
X67000000Y-128500000D01*
%TO.N,Pot_b*%
X68500000Y-135750000D02*
X67000000Y-137250000D01*
X73899998Y-135750000D02*
X68500000Y-135750000D01*
X74149998Y-135500000D02*
X74199999Y-135449999D01*
X74199999Y-135449999D02*
X73899998Y-135750000D01*
X79169998Y-130480000D02*
X74199999Y-135449999D01*
X67500000Y-135500000D02*
X74149998Y-135500000D01*
X67000000Y-136000000D02*
X67500000Y-135500000D01*
X60250000Y-135500000D02*
X67500000Y-135500000D01*
X67000000Y-137750000D02*
X67000000Y-136000000D01*
X67000000Y-137250000D02*
X67000000Y-137750000D01*
X67000000Y-137750000D02*
X67000000Y-139660000D01*
%TO.N,Net-(Q23-Pad1)*%
X83480000Y-138730000D02*
X83480000Y-135770000D01*
X84750000Y-134500000D02*
X84750000Y-131750000D01*
X83480000Y-135770000D02*
X84750000Y-134500000D01*
%TO.N,Net-(Q24-Pad1)*%
X84750000Y-140000000D02*
X95000000Y-140000000D01*
%TO.N,Net-(D1-Pad2)*%
X105000000Y-118000000D02*
X105000000Y-121000000D01*
X99000000Y-112000000D02*
X105000000Y-118000000D01*
X84210000Y-118790000D02*
X91000000Y-112000000D01*
X91000000Y-112000000D02*
X99000000Y-112000000D01*
X84210000Y-123500000D02*
X84210000Y-118790000D01*
%TO.N,Pot_b*%
X67040000Y-145000000D02*
X69580000Y-145000000D01*
X67000000Y-144960000D02*
X67040000Y-145000000D01*
X67000000Y-139660000D02*
X67000000Y-144960000D01*
D27*
X74149998Y-135500000D02*
X79169998Y-130480000D01*
X82880001Y-129880001D02*
X83480000Y-130480000D01*
X79769997Y-129880001D02*
X82880001Y-129880001D01*
X79169998Y-130480000D02*
X79769997Y-129880001D01*
X67000000Y-136000000D02*
X66500000Y-135500000D01*
X67000000Y-139660000D02*
X67000000Y-136000000D01*
X66500000Y-135500000D02*
X74149998Y-135500000D01*
X60250000Y-135500000D02*
X66500000Y-135500000D01*
D26*
%TO.N,Pot_t*%
X72120000Y-145000000D02*
X72120000Y-142370000D01*
X71750000Y-142000000D02*
X71750000Y-139750000D01*
X72120000Y-142370000D02*
X71750000Y-142000000D01*
%TD*%
D29*
%TO.N,+5V*%
X81005820Y-87419502D02*
X81125518Y-87455812D01*
X81250000Y-87468072D01*
X82750000Y-87468072D01*
X82874482Y-87455812D01*
X82994180Y-87419502D01*
X83073694Y-87377000D01*
X95926306Y-87377000D01*
X96005820Y-87419502D01*
X96125518Y-87455812D01*
X96250000Y-87468072D01*
X97750000Y-87468072D01*
X97874482Y-87455812D01*
X97994180Y-87419502D01*
X98073694Y-87377000D01*
X98115001Y-87377000D01*
X98115000Y-95706531D01*
X98110719Y-95750000D01*
X98115000Y-95793469D01*
X98115000Y-95793476D01*
X98117663Y-95820512D01*
X98127805Y-95923490D01*
X98143157Y-95974096D01*
X98178411Y-96090312D01*
X98260589Y-96244058D01*
X98371183Y-96378817D01*
X98404954Y-96406532D01*
X102843470Y-100845049D01*
X102871183Y-100878817D01*
X102904951Y-100906530D01*
X102904953Y-100906532D01*
X102976452Y-100965210D01*
X103005941Y-100989411D01*
X103159687Y-101071589D01*
X103326510Y-101122195D01*
X103456523Y-101135000D01*
X103456533Y-101135000D01*
X103499999Y-101139281D01*
X103543466Y-101135000D01*
X107423422Y-101135000D01*
X109872998Y-103584577D01*
X109872998Y-103730084D01*
X109650961Y-103608096D01*
X109516913Y-103648754D01*
X109262580Y-103768963D01*
X109036586Y-103936481D01*
X108847615Y-104144869D01*
X108702930Y-104386119D01*
X108608091Y-104650960D01*
X108729376Y-104873000D01*
X109873000Y-104873000D01*
X109873000Y-104853000D01*
X110127000Y-104853000D01*
X110127000Y-104873000D01*
X110147000Y-104873000D01*
X110147000Y-105127000D01*
X110127000Y-105127000D01*
X110127000Y-106269915D01*
X110349039Y-106391904D01*
X110483087Y-106351246D01*
X110737420Y-106231037D01*
X110963414Y-106063519D01*
X111123000Y-105887535D01*
X111123000Y-108873000D01*
X84377000Y-108873000D01*
X84377000Y-106189040D01*
X97108091Y-106189040D01*
X97202930Y-106453881D01*
X97347615Y-106695131D01*
X97536586Y-106903519D01*
X97762580Y-107071037D01*
X98016913Y-107191246D01*
X98150961Y-107231904D01*
X98373000Y-107109915D01*
X98373000Y-105967000D01*
X98627000Y-105967000D01*
X98627000Y-107109915D01*
X98849039Y-107231904D01*
X98983087Y-107191246D01*
X99237420Y-107071037D01*
X99463414Y-106903519D01*
X99652385Y-106695131D01*
X99797070Y-106453881D01*
X99891909Y-106189040D01*
X99770624Y-105967000D01*
X98627000Y-105967000D01*
X98373000Y-105967000D01*
X97229376Y-105967000D01*
X97108091Y-106189040D01*
X84377000Y-106189040D01*
X84377000Y-105490960D01*
X97108091Y-105490960D01*
X97229376Y-105713000D01*
X98373000Y-105713000D01*
X98373000Y-104570085D01*
X98627000Y-104570085D01*
X98627000Y-105713000D01*
X99770624Y-105713000D01*
X99891909Y-105490960D01*
X99841088Y-105349040D01*
X108608091Y-105349040D01*
X108702930Y-105613881D01*
X108847615Y-105855131D01*
X109036586Y-106063519D01*
X109262580Y-106231037D01*
X109516913Y-106351246D01*
X109650961Y-106391904D01*
X109873000Y-106269915D01*
X109873000Y-105127000D01*
X108729376Y-105127000D01*
X108608091Y-105349040D01*
X99841088Y-105349040D01*
X99797070Y-105226119D01*
X99652385Y-104984869D01*
X99463414Y-104776481D01*
X99237420Y-104608963D01*
X98983087Y-104488754D01*
X98849039Y-104448096D01*
X98627000Y-104570085D01*
X98373000Y-104570085D01*
X98150961Y-104448096D01*
X98016913Y-104488754D01*
X97762580Y-104608963D01*
X97536586Y-104776481D01*
X97347615Y-104984869D01*
X97202930Y-105226119D01*
X97108091Y-105490960D01*
X84377000Y-105490960D01*
X84377000Y-99750000D01*
X84374560Y-99725224D01*
X84367333Y-99701399D01*
X84355597Y-99679443D01*
X84339803Y-99660197D01*
X83491338Y-98811732D01*
X83436532Y-98744951D01*
X83436530Y-98744949D01*
X83408817Y-98711181D01*
X83375051Y-98683470D01*
X81184283Y-96492702D01*
X86436903Y-96492702D01*
X86508486Y-96736671D01*
X86763996Y-96857571D01*
X87038184Y-96926300D01*
X87320512Y-96940217D01*
X87600130Y-96898787D01*
X87866292Y-96803603D01*
X87980230Y-96742702D01*
X95276903Y-96742702D01*
X95348486Y-96986671D01*
X95603996Y-97107571D01*
X95878184Y-97176300D01*
X96160512Y-97190217D01*
X96440130Y-97148787D01*
X96706292Y-97053603D01*
X96831514Y-96986671D01*
X96903097Y-96742702D01*
X96090000Y-95929605D01*
X95276903Y-96742702D01*
X87980230Y-96742702D01*
X87991514Y-96736671D01*
X88063097Y-96492702D01*
X87250000Y-95679605D01*
X86436903Y-96492702D01*
X81184283Y-96492702D01*
X80262093Y-95570512D01*
X85809783Y-95570512D01*
X85851213Y-95850130D01*
X85946397Y-96116292D01*
X86013329Y-96241514D01*
X86257298Y-96313097D01*
X87070395Y-95500000D01*
X87429605Y-95500000D01*
X88242702Y-96313097D01*
X88486671Y-96241514D01*
X88607571Y-95986004D01*
X88649053Y-95820512D01*
X94649783Y-95820512D01*
X94691213Y-96100130D01*
X94786397Y-96366292D01*
X94853329Y-96491514D01*
X95097298Y-96563097D01*
X95910395Y-95750000D01*
X96269605Y-95750000D01*
X97082702Y-96563097D01*
X97326671Y-96491514D01*
X97447571Y-96236004D01*
X97516300Y-95961816D01*
X97530217Y-95679488D01*
X97488787Y-95399870D01*
X97393603Y-95133708D01*
X97326671Y-95008486D01*
X97082702Y-94936903D01*
X96269605Y-95750000D01*
X95910395Y-95750000D01*
X95097298Y-94936903D01*
X94853329Y-95008486D01*
X94732429Y-95263996D01*
X94663700Y-95538184D01*
X94649783Y-95820512D01*
X88649053Y-95820512D01*
X88676300Y-95711816D01*
X88690217Y-95429488D01*
X88648787Y-95149870D01*
X88553603Y-94883708D01*
X88486671Y-94758486D01*
X88482623Y-94757298D01*
X95276903Y-94757298D01*
X96090000Y-95570395D01*
X96903097Y-94757298D01*
X96831514Y-94513329D01*
X96576004Y-94392429D01*
X96301816Y-94323700D01*
X96019488Y-94309783D01*
X95739870Y-94351213D01*
X95473708Y-94446397D01*
X95348486Y-94513329D01*
X95276903Y-94757298D01*
X88482623Y-94757298D01*
X88242702Y-94686903D01*
X87429605Y-95500000D01*
X87070395Y-95500000D01*
X86257298Y-94686903D01*
X86013329Y-94758486D01*
X85892429Y-95013996D01*
X85823700Y-95288184D01*
X85809783Y-95570512D01*
X80262093Y-95570512D01*
X79198879Y-94507298D01*
X86436903Y-94507298D01*
X87250000Y-95320395D01*
X88063097Y-94507298D01*
X87991514Y-94263329D01*
X87736004Y-94142429D01*
X87461816Y-94073700D01*
X87179488Y-94059783D01*
X86899870Y-94101213D01*
X86633708Y-94196397D01*
X86508486Y-94263329D01*
X86436903Y-94507298D01*
X79198879Y-94507298D01*
X78385000Y-93693420D01*
X78385000Y-93242702D01*
X81436903Y-93242702D01*
X81508486Y-93486671D01*
X81763996Y-93607571D01*
X82038184Y-93676300D01*
X82320512Y-93690217D01*
X82600130Y-93648787D01*
X82866292Y-93553603D01*
X82991514Y-93486671D01*
X83063097Y-93242702D01*
X82250000Y-92429605D01*
X81436903Y-93242702D01*
X78385000Y-93242702D01*
X78385000Y-92320512D01*
X80809783Y-92320512D01*
X80851213Y-92600130D01*
X80946397Y-92866292D01*
X81013329Y-92991514D01*
X81257298Y-93063097D01*
X82070395Y-92250000D01*
X82429605Y-92250000D01*
X83242702Y-93063097D01*
X83486671Y-92991514D01*
X83607571Y-92736004D01*
X83676300Y-92461816D01*
X83690217Y-92179488D01*
X83686249Y-92152702D01*
X86186903Y-92152702D01*
X86258486Y-92396671D01*
X86513996Y-92517571D01*
X86788184Y-92586300D01*
X87070512Y-92600217D01*
X87350130Y-92558787D01*
X87616292Y-92463603D01*
X87741514Y-92396671D01*
X87813097Y-92152702D01*
X91186903Y-92152702D01*
X91258486Y-92396671D01*
X91513996Y-92517571D01*
X91788184Y-92586300D01*
X92070512Y-92600217D01*
X92350130Y-92558787D01*
X92616292Y-92463603D01*
X92741514Y-92396671D01*
X92813097Y-92152702D01*
X92000000Y-91339605D01*
X91186903Y-92152702D01*
X87813097Y-92152702D01*
X87000000Y-91339605D01*
X86186903Y-92152702D01*
X83686249Y-92152702D01*
X83648787Y-91899870D01*
X83553603Y-91633708D01*
X83486671Y-91508486D01*
X83242702Y-91436903D01*
X82429605Y-92250000D01*
X82070395Y-92250000D01*
X81257298Y-91436903D01*
X81013329Y-91508486D01*
X80892429Y-91763996D01*
X80823700Y-92038184D01*
X80809783Y-92320512D01*
X78385000Y-92320512D01*
X78385000Y-91257298D01*
X81436903Y-91257298D01*
X82250000Y-92070395D01*
X83063097Y-91257298D01*
X83055238Y-91230512D01*
X85559783Y-91230512D01*
X85601213Y-91510130D01*
X85696397Y-91776292D01*
X85763329Y-91901514D01*
X86007298Y-91973097D01*
X86820395Y-91160000D01*
X87179605Y-91160000D01*
X87992702Y-91973097D01*
X88236671Y-91901514D01*
X88357571Y-91646004D01*
X88426300Y-91371816D01*
X88433265Y-91230512D01*
X90559783Y-91230512D01*
X90601213Y-91510130D01*
X90696397Y-91776292D01*
X90763329Y-91901514D01*
X91007298Y-91973097D01*
X91820395Y-91160000D01*
X92179605Y-91160000D01*
X92992702Y-91973097D01*
X93236671Y-91901514D01*
X93311816Y-91742702D01*
X95276903Y-91742702D01*
X95348486Y-91986671D01*
X95603996Y-92107571D01*
X95878184Y-92176300D01*
X96160512Y-92190217D01*
X96440130Y-92148787D01*
X96706292Y-92053603D01*
X96831514Y-91986671D01*
X96903097Y-91742702D01*
X96090000Y-90929605D01*
X95276903Y-91742702D01*
X93311816Y-91742702D01*
X93357571Y-91646004D01*
X93426300Y-91371816D01*
X93440217Y-91089488D01*
X93400364Y-90820512D01*
X94649783Y-90820512D01*
X94691213Y-91100130D01*
X94786397Y-91366292D01*
X94853329Y-91491514D01*
X95097298Y-91563097D01*
X95910395Y-90750000D01*
X96269605Y-90750000D01*
X97082702Y-91563097D01*
X97326671Y-91491514D01*
X97447571Y-91236004D01*
X97516300Y-90961816D01*
X97530217Y-90679488D01*
X97488787Y-90399870D01*
X97393603Y-90133708D01*
X97326671Y-90008486D01*
X97082702Y-89936903D01*
X96269605Y-90750000D01*
X95910395Y-90750000D01*
X95097298Y-89936903D01*
X94853329Y-90008486D01*
X94732429Y-90263996D01*
X94663700Y-90538184D01*
X94649783Y-90820512D01*
X93400364Y-90820512D01*
X93398787Y-90809870D01*
X93303603Y-90543708D01*
X93236671Y-90418486D01*
X92992702Y-90346903D01*
X92179605Y-91160000D01*
X91820395Y-91160000D01*
X91007298Y-90346903D01*
X90763329Y-90418486D01*
X90642429Y-90673996D01*
X90573700Y-90948184D01*
X90559783Y-91230512D01*
X88433265Y-91230512D01*
X88440217Y-91089488D01*
X88398787Y-90809870D01*
X88303603Y-90543708D01*
X88236671Y-90418486D01*
X87992702Y-90346903D01*
X87179605Y-91160000D01*
X86820395Y-91160000D01*
X86007298Y-90346903D01*
X85763329Y-90418486D01*
X85642429Y-90673996D01*
X85573700Y-90948184D01*
X85559783Y-91230512D01*
X83055238Y-91230512D01*
X82991514Y-91013329D01*
X82736004Y-90892429D01*
X82461816Y-90823700D01*
X82179488Y-90809783D01*
X81899870Y-90851213D01*
X81633708Y-90946397D01*
X81508486Y-91013329D01*
X81436903Y-91257298D01*
X78385000Y-91257298D01*
X78385000Y-90296534D01*
X78513996Y-90357571D01*
X78788184Y-90426300D01*
X79070512Y-90440217D01*
X79350130Y-90398787D01*
X79616292Y-90303603D01*
X79741514Y-90236671D01*
X79761868Y-90167298D01*
X86186903Y-90167298D01*
X87000000Y-90980395D01*
X87813097Y-90167298D01*
X91186903Y-90167298D01*
X92000000Y-90980395D01*
X92813097Y-90167298D01*
X92741514Y-89923329D01*
X92486004Y-89802429D01*
X92305959Y-89757298D01*
X95276903Y-89757298D01*
X96090000Y-90570395D01*
X96903097Y-89757298D01*
X96831514Y-89513329D01*
X96576004Y-89392429D01*
X96301816Y-89323700D01*
X96019488Y-89309783D01*
X95739870Y-89351213D01*
X95473708Y-89446397D01*
X95348486Y-89513329D01*
X95276903Y-89757298D01*
X92305959Y-89757298D01*
X92211816Y-89733700D01*
X91929488Y-89719783D01*
X91649870Y-89761213D01*
X91383708Y-89856397D01*
X91258486Y-89923329D01*
X91186903Y-90167298D01*
X87813097Y-90167298D01*
X87741514Y-89923329D01*
X87486004Y-89802429D01*
X87211816Y-89733700D01*
X86929488Y-89719783D01*
X86649870Y-89761213D01*
X86383708Y-89856397D01*
X86258486Y-89923329D01*
X86186903Y-90167298D01*
X79761868Y-90167298D01*
X79813097Y-89992702D01*
X79000000Y-89179605D01*
X78985858Y-89193748D01*
X78806253Y-89014143D01*
X78820395Y-89000000D01*
X79179605Y-89000000D01*
X79992702Y-89813097D01*
X80236671Y-89741514D01*
X80357571Y-89486004D01*
X80426300Y-89211816D01*
X80440217Y-88929488D01*
X80398787Y-88649870D01*
X80303603Y-88383708D01*
X80236671Y-88258486D01*
X79992702Y-88186903D01*
X79179605Y-89000000D01*
X78820395Y-89000000D01*
X78806253Y-88985858D01*
X78985858Y-88806253D01*
X79000000Y-88820395D01*
X79813097Y-88007298D01*
X79741514Y-87763329D01*
X79486004Y-87642429D01*
X79211816Y-87573700D01*
X79179473Y-87572106D01*
X79374579Y-87377000D01*
X80926306Y-87377000D01*
X81005820Y-87419502D01*
%TA.AperFunction,Conductor*%
D30*
G36*
X81005820Y-87419502D02*
G01*
X81125518Y-87455812D01*
X81250000Y-87468072D01*
X82750000Y-87468072D01*
X82874482Y-87455812D01*
X82994180Y-87419502D01*
X83073694Y-87377000D01*
X95926306Y-87377000D01*
X96005820Y-87419502D01*
X96125518Y-87455812D01*
X96250000Y-87468072D01*
X97750000Y-87468072D01*
X97874482Y-87455812D01*
X97994180Y-87419502D01*
X98073694Y-87377000D01*
X98115001Y-87377000D01*
X98115000Y-95706531D01*
X98110719Y-95750000D01*
X98115000Y-95793469D01*
X98115000Y-95793476D01*
X98117663Y-95820512D01*
X98127805Y-95923490D01*
X98143157Y-95974096D01*
X98178411Y-96090312D01*
X98260589Y-96244058D01*
X98371183Y-96378817D01*
X98404954Y-96406532D01*
X102843470Y-100845049D01*
X102871183Y-100878817D01*
X102904951Y-100906530D01*
X102904953Y-100906532D01*
X102976452Y-100965210D01*
X103005941Y-100989411D01*
X103159687Y-101071589D01*
X103326510Y-101122195D01*
X103456523Y-101135000D01*
X103456533Y-101135000D01*
X103499999Y-101139281D01*
X103543466Y-101135000D01*
X107423422Y-101135000D01*
X109872998Y-103584577D01*
X109872998Y-103730084D01*
X109650961Y-103608096D01*
X109516913Y-103648754D01*
X109262580Y-103768963D01*
X109036586Y-103936481D01*
X108847615Y-104144869D01*
X108702930Y-104386119D01*
X108608091Y-104650960D01*
X108729376Y-104873000D01*
X109873000Y-104873000D01*
X109873000Y-104853000D01*
X110127000Y-104853000D01*
X110127000Y-104873000D01*
X110147000Y-104873000D01*
X110147000Y-105127000D01*
X110127000Y-105127000D01*
X110127000Y-106269915D01*
X110349039Y-106391904D01*
X110483087Y-106351246D01*
X110737420Y-106231037D01*
X110963414Y-106063519D01*
X111123000Y-105887535D01*
X111123000Y-108873000D01*
X84377000Y-108873000D01*
X84377000Y-106189040D01*
X97108091Y-106189040D01*
X97202930Y-106453881D01*
X97347615Y-106695131D01*
X97536586Y-106903519D01*
X97762580Y-107071037D01*
X98016913Y-107191246D01*
X98150961Y-107231904D01*
X98373000Y-107109915D01*
X98373000Y-105967000D01*
X98627000Y-105967000D01*
X98627000Y-107109915D01*
X98849039Y-107231904D01*
X98983087Y-107191246D01*
X99237420Y-107071037D01*
X99463414Y-106903519D01*
X99652385Y-106695131D01*
X99797070Y-106453881D01*
X99891909Y-106189040D01*
X99770624Y-105967000D01*
X98627000Y-105967000D01*
X98373000Y-105967000D01*
X97229376Y-105967000D01*
X97108091Y-106189040D01*
X84377000Y-106189040D01*
X84377000Y-105490960D01*
X97108091Y-105490960D01*
X97229376Y-105713000D01*
X98373000Y-105713000D01*
X98373000Y-104570085D01*
X98627000Y-104570085D01*
X98627000Y-105713000D01*
X99770624Y-105713000D01*
X99891909Y-105490960D01*
X99841088Y-105349040D01*
X108608091Y-105349040D01*
X108702930Y-105613881D01*
X108847615Y-105855131D01*
X109036586Y-106063519D01*
X109262580Y-106231037D01*
X109516913Y-106351246D01*
X109650961Y-106391904D01*
X109873000Y-106269915D01*
X109873000Y-105127000D01*
X108729376Y-105127000D01*
X108608091Y-105349040D01*
X99841088Y-105349040D01*
X99797070Y-105226119D01*
X99652385Y-104984869D01*
X99463414Y-104776481D01*
X99237420Y-104608963D01*
X98983087Y-104488754D01*
X98849039Y-104448096D01*
X98627000Y-104570085D01*
X98373000Y-104570085D01*
X98150961Y-104448096D01*
X98016913Y-104488754D01*
X97762580Y-104608963D01*
X97536586Y-104776481D01*
X97347615Y-104984869D01*
X97202930Y-105226119D01*
X97108091Y-105490960D01*
X84377000Y-105490960D01*
X84377000Y-99750000D01*
X84374560Y-99725224D01*
X84367333Y-99701399D01*
X84355597Y-99679443D01*
X84339803Y-99660197D01*
X83491338Y-98811732D01*
X83436532Y-98744951D01*
X83436530Y-98744949D01*
X83408817Y-98711181D01*
X83375051Y-98683470D01*
X81184283Y-96492702D01*
X86436903Y-96492702D01*
X86508486Y-96736671D01*
X86763996Y-96857571D01*
X87038184Y-96926300D01*
X87320512Y-96940217D01*
X87600130Y-96898787D01*
X87866292Y-96803603D01*
X87980230Y-96742702D01*
X95276903Y-96742702D01*
X95348486Y-96986671D01*
X95603996Y-97107571D01*
X95878184Y-97176300D01*
X96160512Y-97190217D01*
X96440130Y-97148787D01*
X96706292Y-97053603D01*
X96831514Y-96986671D01*
X96903097Y-96742702D01*
X96090000Y-95929605D01*
X95276903Y-96742702D01*
X87980230Y-96742702D01*
X87991514Y-96736671D01*
X88063097Y-96492702D01*
X87250000Y-95679605D01*
X86436903Y-96492702D01*
X81184283Y-96492702D01*
X80262093Y-95570512D01*
X85809783Y-95570512D01*
X85851213Y-95850130D01*
X85946397Y-96116292D01*
X86013329Y-96241514D01*
X86257298Y-96313097D01*
X87070395Y-95500000D01*
X87429605Y-95500000D01*
X88242702Y-96313097D01*
X88486671Y-96241514D01*
X88607571Y-95986004D01*
X88649053Y-95820512D01*
X94649783Y-95820512D01*
X94691213Y-96100130D01*
X94786397Y-96366292D01*
X94853329Y-96491514D01*
X95097298Y-96563097D01*
X95910395Y-95750000D01*
X96269605Y-95750000D01*
X97082702Y-96563097D01*
X97326671Y-96491514D01*
X97447571Y-96236004D01*
X97516300Y-95961816D01*
X97530217Y-95679488D01*
X97488787Y-95399870D01*
X97393603Y-95133708D01*
X97326671Y-95008486D01*
X97082702Y-94936903D01*
X96269605Y-95750000D01*
X95910395Y-95750000D01*
X95097298Y-94936903D01*
X94853329Y-95008486D01*
X94732429Y-95263996D01*
X94663700Y-95538184D01*
X94649783Y-95820512D01*
X88649053Y-95820512D01*
X88676300Y-95711816D01*
X88690217Y-95429488D01*
X88648787Y-95149870D01*
X88553603Y-94883708D01*
X88486671Y-94758486D01*
X88482623Y-94757298D01*
X95276903Y-94757298D01*
X96090000Y-95570395D01*
X96903097Y-94757298D01*
X96831514Y-94513329D01*
X96576004Y-94392429D01*
X96301816Y-94323700D01*
X96019488Y-94309783D01*
X95739870Y-94351213D01*
X95473708Y-94446397D01*
X95348486Y-94513329D01*
X95276903Y-94757298D01*
X88482623Y-94757298D01*
X88242702Y-94686903D01*
X87429605Y-95500000D01*
X87070395Y-95500000D01*
X86257298Y-94686903D01*
X86013329Y-94758486D01*
X85892429Y-95013996D01*
X85823700Y-95288184D01*
X85809783Y-95570512D01*
X80262093Y-95570512D01*
X79198879Y-94507298D01*
X86436903Y-94507298D01*
X87250000Y-95320395D01*
X88063097Y-94507298D01*
X87991514Y-94263329D01*
X87736004Y-94142429D01*
X87461816Y-94073700D01*
X87179488Y-94059783D01*
X86899870Y-94101213D01*
X86633708Y-94196397D01*
X86508486Y-94263329D01*
X86436903Y-94507298D01*
X79198879Y-94507298D01*
X78385000Y-93693420D01*
X78385000Y-93242702D01*
X81436903Y-93242702D01*
X81508486Y-93486671D01*
X81763996Y-93607571D01*
X82038184Y-93676300D01*
X82320512Y-93690217D01*
X82600130Y-93648787D01*
X82866292Y-93553603D01*
X82991514Y-93486671D01*
X83063097Y-93242702D01*
X82250000Y-92429605D01*
X81436903Y-93242702D01*
X78385000Y-93242702D01*
X78385000Y-92320512D01*
X80809783Y-92320512D01*
X80851213Y-92600130D01*
X80946397Y-92866292D01*
X81013329Y-92991514D01*
X81257298Y-93063097D01*
X82070395Y-92250000D01*
X82429605Y-92250000D01*
X83242702Y-93063097D01*
X83486671Y-92991514D01*
X83607571Y-92736004D01*
X83676300Y-92461816D01*
X83690217Y-92179488D01*
X83686249Y-92152702D01*
X86186903Y-92152702D01*
X86258486Y-92396671D01*
X86513996Y-92517571D01*
X86788184Y-92586300D01*
X87070512Y-92600217D01*
X87350130Y-92558787D01*
X87616292Y-92463603D01*
X87741514Y-92396671D01*
X87813097Y-92152702D01*
X91186903Y-92152702D01*
X91258486Y-92396671D01*
X91513996Y-92517571D01*
X91788184Y-92586300D01*
X92070512Y-92600217D01*
X92350130Y-92558787D01*
X92616292Y-92463603D01*
X92741514Y-92396671D01*
X92813097Y-92152702D01*
X92000000Y-91339605D01*
X91186903Y-92152702D01*
X87813097Y-92152702D01*
X87000000Y-91339605D01*
X86186903Y-92152702D01*
X83686249Y-92152702D01*
X83648787Y-91899870D01*
X83553603Y-91633708D01*
X83486671Y-91508486D01*
X83242702Y-91436903D01*
X82429605Y-92250000D01*
X82070395Y-92250000D01*
X81257298Y-91436903D01*
X81013329Y-91508486D01*
X80892429Y-91763996D01*
X80823700Y-92038184D01*
X80809783Y-92320512D01*
X78385000Y-92320512D01*
X78385000Y-91257298D01*
X81436903Y-91257298D01*
X82250000Y-92070395D01*
X83063097Y-91257298D01*
X83055238Y-91230512D01*
X85559783Y-91230512D01*
X85601213Y-91510130D01*
X85696397Y-91776292D01*
X85763329Y-91901514D01*
X86007298Y-91973097D01*
X86820395Y-91160000D01*
X87179605Y-91160000D01*
X87992702Y-91973097D01*
X88236671Y-91901514D01*
X88357571Y-91646004D01*
X88426300Y-91371816D01*
X88433265Y-91230512D01*
X90559783Y-91230512D01*
X90601213Y-91510130D01*
X90696397Y-91776292D01*
X90763329Y-91901514D01*
X91007298Y-91973097D01*
X91820395Y-91160000D01*
X92179605Y-91160000D01*
X92992702Y-91973097D01*
X93236671Y-91901514D01*
X93311816Y-91742702D01*
X95276903Y-91742702D01*
X95348486Y-91986671D01*
X95603996Y-92107571D01*
X95878184Y-92176300D01*
X96160512Y-92190217D01*
X96440130Y-92148787D01*
X96706292Y-92053603D01*
X96831514Y-91986671D01*
X96903097Y-91742702D01*
X96090000Y-90929605D01*
X95276903Y-91742702D01*
X93311816Y-91742702D01*
X93357571Y-91646004D01*
X93426300Y-91371816D01*
X93440217Y-91089488D01*
X93400364Y-90820512D01*
X94649783Y-90820512D01*
X94691213Y-91100130D01*
X94786397Y-91366292D01*
X94853329Y-91491514D01*
X95097298Y-91563097D01*
X95910395Y-90750000D01*
X96269605Y-90750000D01*
X97082702Y-91563097D01*
X97326671Y-91491514D01*
X97447571Y-91236004D01*
X97516300Y-90961816D01*
X97530217Y-90679488D01*
X97488787Y-90399870D01*
X97393603Y-90133708D01*
X97326671Y-90008486D01*
X97082702Y-89936903D01*
X96269605Y-90750000D01*
X95910395Y-90750000D01*
X95097298Y-89936903D01*
X94853329Y-90008486D01*
X94732429Y-90263996D01*
X94663700Y-90538184D01*
X94649783Y-90820512D01*
X93400364Y-90820512D01*
X93398787Y-90809870D01*
X93303603Y-90543708D01*
X93236671Y-90418486D01*
X92992702Y-90346903D01*
X92179605Y-91160000D01*
X91820395Y-91160000D01*
X91007298Y-90346903D01*
X90763329Y-90418486D01*
X90642429Y-90673996D01*
X90573700Y-90948184D01*
X90559783Y-91230512D01*
X88433265Y-91230512D01*
X88440217Y-91089488D01*
X88398787Y-90809870D01*
X88303603Y-90543708D01*
X88236671Y-90418486D01*
X87992702Y-90346903D01*
X87179605Y-91160000D01*
X86820395Y-91160000D01*
X86007298Y-90346903D01*
X85763329Y-90418486D01*
X85642429Y-90673996D01*
X85573700Y-90948184D01*
X85559783Y-91230512D01*
X83055238Y-91230512D01*
X82991514Y-91013329D01*
X82736004Y-90892429D01*
X82461816Y-90823700D01*
X82179488Y-90809783D01*
X81899870Y-90851213D01*
X81633708Y-90946397D01*
X81508486Y-91013329D01*
X81436903Y-91257298D01*
X78385000Y-91257298D01*
X78385000Y-90296534D01*
X78513996Y-90357571D01*
X78788184Y-90426300D01*
X79070512Y-90440217D01*
X79350130Y-90398787D01*
X79616292Y-90303603D01*
X79741514Y-90236671D01*
X79761868Y-90167298D01*
X86186903Y-90167298D01*
X87000000Y-90980395D01*
X87813097Y-90167298D01*
X91186903Y-90167298D01*
X92000000Y-90980395D01*
X92813097Y-90167298D01*
X92741514Y-89923329D01*
X92486004Y-89802429D01*
X92305959Y-89757298D01*
X95276903Y-89757298D01*
X96090000Y-90570395D01*
X96903097Y-89757298D01*
X96831514Y-89513329D01*
X96576004Y-89392429D01*
X96301816Y-89323700D01*
X96019488Y-89309783D01*
X95739870Y-89351213D01*
X95473708Y-89446397D01*
X95348486Y-89513329D01*
X95276903Y-89757298D01*
X92305959Y-89757298D01*
X92211816Y-89733700D01*
X91929488Y-89719783D01*
X91649870Y-89761213D01*
X91383708Y-89856397D01*
X91258486Y-89923329D01*
X91186903Y-90167298D01*
X87813097Y-90167298D01*
X87741514Y-89923329D01*
X87486004Y-89802429D01*
X87211816Y-89733700D01*
X86929488Y-89719783D01*
X86649870Y-89761213D01*
X86383708Y-89856397D01*
X86258486Y-89923329D01*
X86186903Y-90167298D01*
X79761868Y-90167298D01*
X79813097Y-89992702D01*
X79000000Y-89179605D01*
X78985858Y-89193748D01*
X78806253Y-89014143D01*
X78820395Y-89000000D01*
X79179605Y-89000000D01*
X79992702Y-89813097D01*
X80236671Y-89741514D01*
X80357571Y-89486004D01*
X80426300Y-89211816D01*
X80440217Y-88929488D01*
X80398787Y-88649870D01*
X80303603Y-88383708D01*
X80236671Y-88258486D01*
X79992702Y-88186903D01*
X79179605Y-89000000D01*
X78820395Y-89000000D01*
X78806253Y-88985858D01*
X78985858Y-88806253D01*
X79000000Y-88820395D01*
X79813097Y-88007298D01*
X79741514Y-87763329D01*
X79486004Y-87642429D01*
X79211816Y-87573700D01*
X79179473Y-87572106D01*
X79374579Y-87377000D01*
X80926306Y-87377000D01*
X81005820Y-87419502D01*
G37*
%TD.AperFunction*%
%TD*%
D29*
%TO.N,+5V*%
X141095464Y-89585568D02*
X140989870Y-89601213D01*
X140723708Y-89696397D01*
X140598486Y-89763329D01*
X140526903Y-90007298D01*
X141340000Y-90820395D01*
X141354143Y-90806253D01*
X141533748Y-90985858D01*
X141519605Y-91000000D01*
X142332702Y-91813097D01*
X142576671Y-91741514D01*
X142697571Y-91486004D01*
X142747019Y-91288734D01*
X145053910Y-93667715D01*
X144973708Y-93696397D01*
X144848486Y-93763329D01*
X144776903Y-94007298D01*
X145590000Y-94820395D01*
X145604143Y-94806253D01*
X145783748Y-94985858D01*
X145769605Y-95000000D01*
X146582702Y-95813097D01*
X146826671Y-95741514D01*
X146904784Y-95576429D01*
X148354029Y-97070963D01*
X148149870Y-97101213D01*
X147883708Y-97196397D01*
X147758486Y-97263329D01*
X147686903Y-97507298D01*
X148500000Y-98320395D01*
X148514143Y-98306253D01*
X148693748Y-98485858D01*
X148679605Y-98500000D01*
X149492702Y-99313097D01*
X149736671Y-99241514D01*
X149857571Y-98986004D01*
X149926300Y-98711816D01*
X149927212Y-98693308D01*
X155122370Y-104050815D01*
X155121637Y-104110961D01*
X154963414Y-103936481D01*
X154737420Y-103768963D01*
X154483087Y-103648754D01*
X154349039Y-103608096D01*
X154127000Y-103730085D01*
X154127000Y-104873000D01*
X154147000Y-104873000D01*
X154147000Y-105127000D01*
X154127000Y-105127000D01*
X154127000Y-106269915D01*
X154349039Y-106391904D01*
X154483087Y-106351246D01*
X154737420Y-106231037D01*
X154963414Y-106063519D01*
X155099657Y-105913277D01*
X155074539Y-107973000D01*
X130327681Y-107973000D01*
X130341712Y-105349040D01*
X152608091Y-105349040D01*
X152702930Y-105613881D01*
X152847615Y-105855131D01*
X153036586Y-106063519D01*
X153262580Y-106231037D01*
X153516913Y-106351246D01*
X153650961Y-106391904D01*
X153873000Y-106269915D01*
X153873000Y-105127000D01*
X152729376Y-105127000D01*
X152608091Y-105349040D01*
X130341712Y-105349040D01*
X130345445Y-104650960D01*
X152608091Y-104650960D01*
X152729376Y-104873000D01*
X153873000Y-104873000D01*
X153873000Y-103730085D01*
X153650961Y-103608096D01*
X153516913Y-103648754D01*
X153262580Y-103768963D01*
X153036586Y-103936481D01*
X152847615Y-104144869D01*
X152702930Y-104386119D01*
X152608091Y-104650960D01*
X130345445Y-104650960D01*
X130373029Y-99492702D01*
X147686903Y-99492702D01*
X147758486Y-99736671D01*
X148013996Y-99857571D01*
X148288184Y-99926300D01*
X148570512Y-99940217D01*
X148850130Y-99898787D01*
X149116292Y-99803603D01*
X149241514Y-99736671D01*
X149313097Y-99492702D01*
X148500000Y-98679605D01*
X147686903Y-99492702D01*
X130373029Y-99492702D01*
X130376998Y-98750679D01*
X130374690Y-98725890D01*
X130367591Y-98702027D01*
X130355972Y-98680008D01*
X130338092Y-98658519D01*
X130246701Y-98570512D01*
X147059783Y-98570512D01*
X147101213Y-98850130D01*
X147196397Y-99116292D01*
X147263329Y-99241514D01*
X147507298Y-99313097D01*
X148320395Y-98500000D01*
X147507298Y-97686903D01*
X147263329Y-97758486D01*
X147142429Y-98013996D01*
X147073700Y-98288184D01*
X147059783Y-98570512D01*
X130246701Y-98570512D01*
X128608206Y-96992702D01*
X132346903Y-96992702D01*
X132418486Y-97236671D01*
X132673996Y-97357571D01*
X132948184Y-97426300D01*
X133230512Y-97440217D01*
X133510130Y-97398787D01*
X133776292Y-97303603D01*
X133901514Y-97236671D01*
X133973097Y-96992702D01*
X133160000Y-96179605D01*
X132346903Y-96992702D01*
X128608206Y-96992702D01*
X127650547Y-96070512D01*
X131719783Y-96070512D01*
X131761213Y-96350130D01*
X131856397Y-96616292D01*
X131923329Y-96741514D01*
X132167298Y-96813097D01*
X132980395Y-96000000D01*
X133339605Y-96000000D01*
X134152702Y-96813097D01*
X134396671Y-96741514D01*
X134517571Y-96486004D01*
X134586300Y-96211816D01*
X134597100Y-95992702D01*
X144776903Y-95992702D01*
X144848486Y-96236671D01*
X145103996Y-96357571D01*
X145378184Y-96426300D01*
X145660512Y-96440217D01*
X145940130Y-96398787D01*
X146206292Y-96303603D01*
X146331514Y-96236671D01*
X146403097Y-95992702D01*
X145590000Y-95179605D01*
X144776903Y-95992702D01*
X134597100Y-95992702D01*
X134600217Y-95929488D01*
X134558787Y-95649870D01*
X134463603Y-95383708D01*
X134396671Y-95258486D01*
X134152702Y-95186903D01*
X133339605Y-96000000D01*
X132980395Y-96000000D01*
X132167298Y-95186903D01*
X131923329Y-95258486D01*
X131802429Y-95513996D01*
X131733700Y-95788184D01*
X131719783Y-96070512D01*
X127650547Y-96070512D01*
X126546441Y-95007298D01*
X132346903Y-95007298D01*
X133160000Y-95820395D01*
X133909883Y-95070512D01*
X144149783Y-95070512D01*
X144191213Y-95350130D01*
X144286397Y-95616292D01*
X144353329Y-95741514D01*
X144597298Y-95813097D01*
X145410395Y-95000000D01*
X144597298Y-94186903D01*
X144353329Y-94258486D01*
X144232429Y-94513996D01*
X144163700Y-94788184D01*
X144149783Y-95070512D01*
X133909883Y-95070512D01*
X133973097Y-95007298D01*
X133901514Y-94763329D01*
X133646004Y-94642429D01*
X133371816Y-94573700D01*
X133089488Y-94559783D01*
X132809870Y-94601213D01*
X132543708Y-94696397D01*
X132418486Y-94763329D01*
X132346903Y-95007298D01*
X126546441Y-95007298D01*
X125532239Y-94030660D01*
X125494281Y-93992702D01*
X125846903Y-93992702D01*
X125918486Y-94236671D01*
X126173996Y-94357571D01*
X126448184Y-94426300D01*
X126730512Y-94440217D01*
X127010130Y-94398787D01*
X127276292Y-94303603D01*
X127401514Y-94236671D01*
X127473097Y-93992702D01*
X126660000Y-93179605D01*
X125846903Y-93992702D01*
X125494281Y-93992702D01*
X124572091Y-93070512D01*
X125219783Y-93070512D01*
X125261213Y-93350130D01*
X125356397Y-93616292D01*
X125423329Y-93741514D01*
X125667298Y-93813097D01*
X126480395Y-93000000D01*
X126839605Y-93000000D01*
X127652702Y-93813097D01*
X127896671Y-93741514D01*
X128017571Y-93486004D01*
X128086300Y-93211816D01*
X128100217Y-92929488D01*
X128058787Y-92649870D01*
X127963603Y-92383708D01*
X127896671Y-92258486D01*
X127652702Y-92186903D01*
X126839605Y-93000000D01*
X126480395Y-93000000D01*
X125667298Y-92186903D01*
X125423329Y-92258486D01*
X125302429Y-92513996D01*
X125233700Y-92788184D01*
X125219783Y-93070512D01*
X124572091Y-93070512D01*
X123635000Y-92133422D01*
X123635000Y-92007298D01*
X125846903Y-92007298D01*
X126660000Y-92820395D01*
X127327693Y-92152702D01*
X132186903Y-92152702D01*
X132258486Y-92396671D01*
X132513996Y-92517571D01*
X132788184Y-92586300D01*
X133070512Y-92600217D01*
X133350130Y-92558787D01*
X133616292Y-92463603D01*
X133741514Y-92396671D01*
X133813097Y-92152702D01*
X137186903Y-92152702D01*
X137258486Y-92396671D01*
X137513996Y-92517571D01*
X137788184Y-92586300D01*
X138070512Y-92600217D01*
X138350130Y-92558787D01*
X138616292Y-92463603D01*
X138741514Y-92396671D01*
X138813097Y-92152702D01*
X138653097Y-91992702D01*
X140526903Y-91992702D01*
X140598486Y-92236671D01*
X140853996Y-92357571D01*
X141128184Y-92426300D01*
X141410512Y-92440217D01*
X141690130Y-92398787D01*
X141956292Y-92303603D01*
X142081514Y-92236671D01*
X142153097Y-91992702D01*
X141340000Y-91179605D01*
X140526903Y-91992702D01*
X138653097Y-91992702D01*
X138000000Y-91339605D01*
X137186903Y-92152702D01*
X133813097Y-92152702D01*
X133000000Y-91339605D01*
X132186903Y-92152702D01*
X127327693Y-92152702D01*
X127473097Y-92007298D01*
X127401514Y-91763329D01*
X127146004Y-91642429D01*
X126871816Y-91573700D01*
X126589488Y-91559783D01*
X126309870Y-91601213D01*
X126043708Y-91696397D01*
X125918486Y-91763329D01*
X125846903Y-92007298D01*
X123635000Y-92007298D01*
X123635000Y-91230512D01*
X131559783Y-91230512D01*
X131601213Y-91510130D01*
X131696397Y-91776292D01*
X131763329Y-91901514D01*
X132007298Y-91973097D01*
X132820395Y-91160000D01*
X133179605Y-91160000D01*
X133992702Y-91973097D01*
X134236671Y-91901514D01*
X134357571Y-91646004D01*
X134426300Y-91371816D01*
X134433265Y-91230512D01*
X136559783Y-91230512D01*
X136601213Y-91510130D01*
X136696397Y-91776292D01*
X136763329Y-91901514D01*
X137007298Y-91973097D01*
X137820395Y-91160000D01*
X138179605Y-91160000D01*
X138992702Y-91973097D01*
X139236671Y-91901514D01*
X139357571Y-91646004D01*
X139426300Y-91371816D01*
X139440217Y-91089488D01*
X139437406Y-91070512D01*
X139899783Y-91070512D01*
X139941213Y-91350130D01*
X140036397Y-91616292D01*
X140103329Y-91741514D01*
X140347298Y-91813097D01*
X141160395Y-91000000D01*
X140347298Y-90186903D01*
X140103329Y-90258486D01*
X139982429Y-90513996D01*
X139913700Y-90788184D01*
X139899783Y-91070512D01*
X139437406Y-91070512D01*
X139398787Y-90809870D01*
X139303603Y-90543708D01*
X139236671Y-90418486D01*
X138992702Y-90346903D01*
X138179605Y-91160000D01*
X137820395Y-91160000D01*
X137007298Y-90346903D01*
X136763329Y-90418486D01*
X136642429Y-90673996D01*
X136573700Y-90948184D01*
X136559783Y-91230512D01*
X134433265Y-91230512D01*
X134440217Y-91089488D01*
X134398787Y-90809870D01*
X134303603Y-90543708D01*
X134236671Y-90418486D01*
X133992702Y-90346903D01*
X133179605Y-91160000D01*
X132820395Y-91160000D01*
X132007298Y-90346903D01*
X131763329Y-90418486D01*
X131642429Y-90673996D01*
X131573700Y-90948184D01*
X131559783Y-91230512D01*
X123635000Y-91230512D01*
X123635000Y-90742702D01*
X123936903Y-90742702D01*
X124008486Y-90986671D01*
X124263996Y-91107571D01*
X124538184Y-91176300D01*
X124820512Y-91190217D01*
X125100130Y-91148787D01*
X125366292Y-91053603D01*
X125491514Y-90986671D01*
X125563097Y-90742702D01*
X124750000Y-89929605D01*
X123936903Y-90742702D01*
X123635000Y-90742702D01*
X123635000Y-90527214D01*
X123757298Y-90563097D01*
X124570395Y-89750000D01*
X124929605Y-89750000D01*
X125742702Y-90563097D01*
X125986671Y-90491514D01*
X126107571Y-90236004D01*
X126124793Y-90167298D01*
X132186903Y-90167298D01*
X133000000Y-90980395D01*
X133813097Y-90167298D01*
X137186903Y-90167298D01*
X138000000Y-90980395D01*
X138813097Y-90167298D01*
X138741514Y-89923329D01*
X138486004Y-89802429D01*
X138211816Y-89733700D01*
X137929488Y-89719783D01*
X137649870Y-89761213D01*
X137383708Y-89856397D01*
X137258486Y-89923329D01*
X137186903Y-90167298D01*
X133813097Y-90167298D01*
X133741514Y-89923329D01*
X133486004Y-89802429D01*
X133211816Y-89733700D01*
X132929488Y-89719783D01*
X132649870Y-89761213D01*
X132383708Y-89856397D01*
X132258486Y-89923329D01*
X132186903Y-90167298D01*
X126124793Y-90167298D01*
X126176300Y-89961816D01*
X126190217Y-89679488D01*
X126148787Y-89399870D01*
X126053603Y-89133708D01*
X125986671Y-89008486D01*
X125742702Y-88936903D01*
X124929605Y-89750000D01*
X124570395Y-89750000D01*
X124556253Y-89735858D01*
X124735858Y-89556253D01*
X124750000Y-89570395D01*
X125563097Y-88757298D01*
X125491514Y-88513329D01*
X125236004Y-88392429D01*
X124961816Y-88323700D01*
X124691217Y-88310361D01*
X125374578Y-87627000D01*
X139196247Y-87627000D01*
X141095464Y-89585568D01*
%TA.AperFunction,Conductor*%
D30*
G36*
X141095464Y-89585568D02*
G01*
X140989870Y-89601213D01*
X140723708Y-89696397D01*
X140598486Y-89763329D01*
X140526903Y-90007298D01*
X141340000Y-90820395D01*
X141354143Y-90806253D01*
X141533748Y-90985858D01*
X141519605Y-91000000D01*
X142332702Y-91813097D01*
X142576671Y-91741514D01*
X142697571Y-91486004D01*
X142747019Y-91288734D01*
X145053910Y-93667715D01*
X144973708Y-93696397D01*
X144848486Y-93763329D01*
X144776903Y-94007298D01*
X145590000Y-94820395D01*
X145604143Y-94806253D01*
X145783748Y-94985858D01*
X145769605Y-95000000D01*
X146582702Y-95813097D01*
X146826671Y-95741514D01*
X146904784Y-95576429D01*
X148354029Y-97070963D01*
X148149870Y-97101213D01*
X147883708Y-97196397D01*
X147758486Y-97263329D01*
X147686903Y-97507298D01*
X148500000Y-98320395D01*
X148514143Y-98306253D01*
X148693748Y-98485858D01*
X148679605Y-98500000D01*
X149492702Y-99313097D01*
X149736671Y-99241514D01*
X149857571Y-98986004D01*
X149926300Y-98711816D01*
X149927212Y-98693308D01*
X155122370Y-104050815D01*
X155121637Y-104110961D01*
X154963414Y-103936481D01*
X154737420Y-103768963D01*
X154483087Y-103648754D01*
X154349039Y-103608096D01*
X154127000Y-103730085D01*
X154127000Y-104873000D01*
X154147000Y-104873000D01*
X154147000Y-105127000D01*
X154127000Y-105127000D01*
X154127000Y-106269915D01*
X154349039Y-106391904D01*
X154483087Y-106351246D01*
X154737420Y-106231037D01*
X154963414Y-106063519D01*
X155099657Y-105913277D01*
X155074539Y-107973000D01*
X130327681Y-107973000D01*
X130341712Y-105349040D01*
X152608091Y-105349040D01*
X152702930Y-105613881D01*
X152847615Y-105855131D01*
X153036586Y-106063519D01*
X153262580Y-106231037D01*
X153516913Y-106351246D01*
X153650961Y-106391904D01*
X153873000Y-106269915D01*
X153873000Y-105127000D01*
X152729376Y-105127000D01*
X152608091Y-105349040D01*
X130341712Y-105349040D01*
X130345445Y-104650960D01*
X152608091Y-104650960D01*
X152729376Y-104873000D01*
X153873000Y-104873000D01*
X153873000Y-103730085D01*
X153650961Y-103608096D01*
X153516913Y-103648754D01*
X153262580Y-103768963D01*
X153036586Y-103936481D01*
X152847615Y-104144869D01*
X152702930Y-104386119D01*
X152608091Y-104650960D01*
X130345445Y-104650960D01*
X130373029Y-99492702D01*
X147686903Y-99492702D01*
X147758486Y-99736671D01*
X148013996Y-99857571D01*
X148288184Y-99926300D01*
X148570512Y-99940217D01*
X148850130Y-99898787D01*
X149116292Y-99803603D01*
X149241514Y-99736671D01*
X149313097Y-99492702D01*
X148500000Y-98679605D01*
X147686903Y-99492702D01*
X130373029Y-99492702D01*
X130376998Y-98750679D01*
X130374690Y-98725890D01*
X130367591Y-98702027D01*
X130355972Y-98680008D01*
X130338092Y-98658519D01*
X130246701Y-98570512D01*
X147059783Y-98570512D01*
X147101213Y-98850130D01*
X147196397Y-99116292D01*
X147263329Y-99241514D01*
X147507298Y-99313097D01*
X148320395Y-98500000D01*
X147507298Y-97686903D01*
X147263329Y-97758486D01*
X147142429Y-98013996D01*
X147073700Y-98288184D01*
X147059783Y-98570512D01*
X130246701Y-98570512D01*
X128608206Y-96992702D01*
X132346903Y-96992702D01*
X132418486Y-97236671D01*
X132673996Y-97357571D01*
X132948184Y-97426300D01*
X133230512Y-97440217D01*
X133510130Y-97398787D01*
X133776292Y-97303603D01*
X133901514Y-97236671D01*
X133973097Y-96992702D01*
X133160000Y-96179605D01*
X132346903Y-96992702D01*
X128608206Y-96992702D01*
X127650547Y-96070512D01*
X131719783Y-96070512D01*
X131761213Y-96350130D01*
X131856397Y-96616292D01*
X131923329Y-96741514D01*
X132167298Y-96813097D01*
X132980395Y-96000000D01*
X133339605Y-96000000D01*
X134152702Y-96813097D01*
X134396671Y-96741514D01*
X134517571Y-96486004D01*
X134586300Y-96211816D01*
X134597100Y-95992702D01*
X144776903Y-95992702D01*
X144848486Y-96236671D01*
X145103996Y-96357571D01*
X145378184Y-96426300D01*
X145660512Y-96440217D01*
X145940130Y-96398787D01*
X146206292Y-96303603D01*
X146331514Y-96236671D01*
X146403097Y-95992702D01*
X145590000Y-95179605D01*
X144776903Y-95992702D01*
X134597100Y-95992702D01*
X134600217Y-95929488D01*
X134558787Y-95649870D01*
X134463603Y-95383708D01*
X134396671Y-95258486D01*
X134152702Y-95186903D01*
X133339605Y-96000000D01*
X132980395Y-96000000D01*
X132167298Y-95186903D01*
X131923329Y-95258486D01*
X131802429Y-95513996D01*
X131733700Y-95788184D01*
X131719783Y-96070512D01*
X127650547Y-96070512D01*
X126546441Y-95007298D01*
X132346903Y-95007298D01*
X133160000Y-95820395D01*
X133909883Y-95070512D01*
X144149783Y-95070512D01*
X144191213Y-95350130D01*
X144286397Y-95616292D01*
X144353329Y-95741514D01*
X144597298Y-95813097D01*
X145410395Y-95000000D01*
X144597298Y-94186903D01*
X144353329Y-94258486D01*
X144232429Y-94513996D01*
X144163700Y-94788184D01*
X144149783Y-95070512D01*
X133909883Y-95070512D01*
X133973097Y-95007298D01*
X133901514Y-94763329D01*
X133646004Y-94642429D01*
X133371816Y-94573700D01*
X133089488Y-94559783D01*
X132809870Y-94601213D01*
X132543708Y-94696397D01*
X132418486Y-94763329D01*
X132346903Y-95007298D01*
X126546441Y-95007298D01*
X125532239Y-94030660D01*
X125494281Y-93992702D01*
X125846903Y-93992702D01*
X125918486Y-94236671D01*
X126173996Y-94357571D01*
X126448184Y-94426300D01*
X126730512Y-94440217D01*
X127010130Y-94398787D01*
X127276292Y-94303603D01*
X127401514Y-94236671D01*
X127473097Y-93992702D01*
X126660000Y-93179605D01*
X125846903Y-93992702D01*
X125494281Y-93992702D01*
X124572091Y-93070512D01*
X125219783Y-93070512D01*
X125261213Y-93350130D01*
X125356397Y-93616292D01*
X125423329Y-93741514D01*
X125667298Y-93813097D01*
X126480395Y-93000000D01*
X126839605Y-93000000D01*
X127652702Y-93813097D01*
X127896671Y-93741514D01*
X128017571Y-93486004D01*
X128086300Y-93211816D01*
X128100217Y-92929488D01*
X128058787Y-92649870D01*
X127963603Y-92383708D01*
X127896671Y-92258486D01*
X127652702Y-92186903D01*
X126839605Y-93000000D01*
X126480395Y-93000000D01*
X125667298Y-92186903D01*
X125423329Y-92258486D01*
X125302429Y-92513996D01*
X125233700Y-92788184D01*
X125219783Y-93070512D01*
X124572091Y-93070512D01*
X123635000Y-92133422D01*
X123635000Y-92007298D01*
X125846903Y-92007298D01*
X126660000Y-92820395D01*
X127327693Y-92152702D01*
X132186903Y-92152702D01*
X132258486Y-92396671D01*
X132513996Y-92517571D01*
X132788184Y-92586300D01*
X133070512Y-92600217D01*
X133350130Y-92558787D01*
X133616292Y-92463603D01*
X133741514Y-92396671D01*
X133813097Y-92152702D01*
X137186903Y-92152702D01*
X137258486Y-92396671D01*
X137513996Y-92517571D01*
X137788184Y-92586300D01*
X138070512Y-92600217D01*
X138350130Y-92558787D01*
X138616292Y-92463603D01*
X138741514Y-92396671D01*
X138813097Y-92152702D01*
X138653097Y-91992702D01*
X140526903Y-91992702D01*
X140598486Y-92236671D01*
X140853996Y-92357571D01*
X141128184Y-92426300D01*
X141410512Y-92440217D01*
X141690130Y-92398787D01*
X141956292Y-92303603D01*
X142081514Y-92236671D01*
X142153097Y-91992702D01*
X141340000Y-91179605D01*
X140526903Y-91992702D01*
X138653097Y-91992702D01*
X138000000Y-91339605D01*
X137186903Y-92152702D01*
X133813097Y-92152702D01*
X133000000Y-91339605D01*
X132186903Y-92152702D01*
X127327693Y-92152702D01*
X127473097Y-92007298D01*
X127401514Y-91763329D01*
X127146004Y-91642429D01*
X126871816Y-91573700D01*
X126589488Y-91559783D01*
X126309870Y-91601213D01*
X126043708Y-91696397D01*
X125918486Y-91763329D01*
X125846903Y-92007298D01*
X123635000Y-92007298D01*
X123635000Y-91230512D01*
X131559783Y-91230512D01*
X131601213Y-91510130D01*
X131696397Y-91776292D01*
X131763329Y-91901514D01*
X132007298Y-91973097D01*
X132820395Y-91160000D01*
X133179605Y-91160000D01*
X133992702Y-91973097D01*
X134236671Y-91901514D01*
X134357571Y-91646004D01*
X134426300Y-91371816D01*
X134433265Y-91230512D01*
X136559783Y-91230512D01*
X136601213Y-91510130D01*
X136696397Y-91776292D01*
X136763329Y-91901514D01*
X137007298Y-91973097D01*
X137820395Y-91160000D01*
X138179605Y-91160000D01*
X138992702Y-91973097D01*
X139236671Y-91901514D01*
X139357571Y-91646004D01*
X139426300Y-91371816D01*
X139440217Y-91089488D01*
X139437406Y-91070512D01*
X139899783Y-91070512D01*
X139941213Y-91350130D01*
X140036397Y-91616292D01*
X140103329Y-91741514D01*
X140347298Y-91813097D01*
X141160395Y-91000000D01*
X140347298Y-90186903D01*
X140103329Y-90258486D01*
X139982429Y-90513996D01*
X139913700Y-90788184D01*
X139899783Y-91070512D01*
X139437406Y-91070512D01*
X139398787Y-90809870D01*
X139303603Y-90543708D01*
X139236671Y-90418486D01*
X138992702Y-90346903D01*
X138179605Y-91160000D01*
X137820395Y-91160000D01*
X137007298Y-90346903D01*
X136763329Y-90418486D01*
X136642429Y-90673996D01*
X136573700Y-90948184D01*
X136559783Y-91230512D01*
X134433265Y-91230512D01*
X134440217Y-91089488D01*
X134398787Y-90809870D01*
X134303603Y-90543708D01*
X134236671Y-90418486D01*
X133992702Y-90346903D01*
X133179605Y-91160000D01*
X132820395Y-91160000D01*
X132007298Y-90346903D01*
X131763329Y-90418486D01*
X131642429Y-90673996D01*
X131573700Y-90948184D01*
X131559783Y-91230512D01*
X123635000Y-91230512D01*
X123635000Y-90742702D01*
X123936903Y-90742702D01*
X124008486Y-90986671D01*
X124263996Y-91107571D01*
X124538184Y-91176300D01*
X124820512Y-91190217D01*
X125100130Y-91148787D01*
X125366292Y-91053603D01*
X125491514Y-90986671D01*
X125563097Y-90742702D01*
X124750000Y-89929605D01*
X123936903Y-90742702D01*
X123635000Y-90742702D01*
X123635000Y-90527214D01*
X123757298Y-90563097D01*
X124570395Y-89750000D01*
X124929605Y-89750000D01*
X125742702Y-90563097D01*
X125986671Y-90491514D01*
X126107571Y-90236004D01*
X126124793Y-90167298D01*
X132186903Y-90167298D01*
X133000000Y-90980395D01*
X133813097Y-90167298D01*
X137186903Y-90167298D01*
X138000000Y-90980395D01*
X138813097Y-90167298D01*
X138741514Y-89923329D01*
X138486004Y-89802429D01*
X138211816Y-89733700D01*
X137929488Y-89719783D01*
X137649870Y-89761213D01*
X137383708Y-89856397D01*
X137258486Y-89923329D01*
X137186903Y-90167298D01*
X133813097Y-90167298D01*
X133741514Y-89923329D01*
X133486004Y-89802429D01*
X133211816Y-89733700D01*
X132929488Y-89719783D01*
X132649870Y-89761213D01*
X132383708Y-89856397D01*
X132258486Y-89923329D01*
X132186903Y-90167298D01*
X126124793Y-90167298D01*
X126176300Y-89961816D01*
X126190217Y-89679488D01*
X126148787Y-89399870D01*
X126053603Y-89133708D01*
X125986671Y-89008486D01*
X125742702Y-88936903D01*
X124929605Y-89750000D01*
X124570395Y-89750000D01*
X124556253Y-89735858D01*
X124735858Y-89556253D01*
X124750000Y-89570395D01*
X125563097Y-88757298D01*
X125491514Y-88513329D01*
X125236004Y-88392429D01*
X124961816Y-88323700D01*
X124691217Y-88310361D01*
X125374578Y-87627000D01*
X139196247Y-87627000D01*
X141095464Y-89585568D01*
G37*
%TD.AperFunction*%
%TD*%
D29*
%TO.N,+5V*%
X129079491Y-108947821D02*
X110127000Y-108873497D01*
X110127000Y-106435000D01*
X110127002Y-106435000D01*
X110127002Y-106376720D01*
X110320622Y-106376292D01*
X110349039Y-106391904D01*
X110401099Y-106376114D01*
X112103306Y-106372348D01*
X112121426Y-106379853D01*
X112398665Y-106435000D01*
X112681335Y-106435000D01*
X112958574Y-106379853D01*
X112981384Y-106370405D01*
X114629812Y-106366758D01*
X114661426Y-106379853D01*
X114938665Y-106435000D01*
X115221335Y-106435000D01*
X115498574Y-106379853D01*
X115535023Y-106364755D01*
X117156317Y-106361168D01*
X117201426Y-106379853D01*
X117478665Y-106435000D01*
X117761335Y-106435000D01*
X118038574Y-106379853D01*
X118088663Y-106359106D01*
X119682822Y-106355579D01*
X119741426Y-106379853D01*
X120018665Y-106435000D01*
X120301335Y-106435000D01*
X120578574Y-106379853D01*
X120642302Y-106353456D01*
X122209328Y-106349989D01*
X122281426Y-106379853D01*
X122558665Y-106435000D01*
X122841335Y-106435000D01*
X123118574Y-106379853D01*
X123195942Y-106347806D01*
X124735833Y-106344399D01*
X124821426Y-106379853D01*
X125098665Y-106435000D01*
X125381335Y-106435000D01*
X125658574Y-106379853D01*
X125749582Y-106342156D01*
X127262338Y-106338810D01*
X127361426Y-106379853D01*
X127638665Y-106435000D01*
X127921335Y-106435000D01*
X128198574Y-106379853D01*
X128303221Y-106336507D01*
X132246319Y-106327783D01*
X129079491Y-108947821D01*
%TA.AperFunction,Conductor*%
D30*
G36*
X129079491Y-108947821D02*
G01*
X110127000Y-108873497D01*
X110127000Y-106435000D01*
X110127002Y-106435000D01*
X110127002Y-106376720D01*
X110320622Y-106376292D01*
X110349039Y-106391904D01*
X110401099Y-106376114D01*
X112103306Y-106372348D01*
X112121426Y-106379853D01*
X112398665Y-106435000D01*
X112681335Y-106435000D01*
X112958574Y-106379853D01*
X112981384Y-106370405D01*
X114629812Y-106366758D01*
X114661426Y-106379853D01*
X114938665Y-106435000D01*
X115221335Y-106435000D01*
X115498574Y-106379853D01*
X115535023Y-106364755D01*
X117156317Y-106361168D01*
X117201426Y-106379853D01*
X117478665Y-106435000D01*
X117761335Y-106435000D01*
X118038574Y-106379853D01*
X118088663Y-106359106D01*
X119682822Y-106355579D01*
X119741426Y-106379853D01*
X120018665Y-106435000D01*
X120301335Y-106435000D01*
X120578574Y-106379853D01*
X120642302Y-106353456D01*
X122209328Y-106349989D01*
X122281426Y-106379853D01*
X122558665Y-106435000D01*
X122841335Y-106435000D01*
X123118574Y-106379853D01*
X123195942Y-106347806D01*
X124735833Y-106344399D01*
X124821426Y-106379853D01*
X125098665Y-106435000D01*
X125381335Y-106435000D01*
X125658574Y-106379853D01*
X125749582Y-106342156D01*
X127262338Y-106338810D01*
X127361426Y-106379853D01*
X127638665Y-106435000D01*
X127921335Y-106435000D01*
X128198574Y-106379853D01*
X128303221Y-106336507D01*
X132246319Y-106327783D01*
X129079491Y-108947821D01*
G37*
%TD.AperFunction*%
%TD*%
D29*
%TO.N,+5V*%
X64650961Y-106391904D02*
X64678089Y-106377000D01*
X65321911Y-106377000D01*
X65349039Y-106391904D01*
X65398177Y-106377000D01*
X67114538Y-106377000D01*
X67121426Y-106379853D01*
X67398665Y-106435000D01*
X67681335Y-106435000D01*
X67958574Y-106379853D01*
X67965462Y-106377000D01*
X69654538Y-106377000D01*
X69661426Y-106379853D01*
X69938665Y-106435000D01*
X70221335Y-106435000D01*
X70498574Y-106379853D01*
X70505462Y-106377000D01*
X72194538Y-106377000D01*
X72201426Y-106379853D01*
X72478665Y-106435000D01*
X72761335Y-106435000D01*
X73038574Y-106379853D01*
X73045462Y-106377000D01*
X74734538Y-106377000D01*
X74741426Y-106379853D01*
X75018665Y-106435000D01*
X75301335Y-106435000D01*
X75578574Y-106379853D01*
X75585462Y-106377000D01*
X77274538Y-106377000D01*
X77281426Y-106379853D01*
X77558665Y-106435000D01*
X77841335Y-106435000D01*
X78118574Y-106379853D01*
X78125462Y-106377000D01*
X79814538Y-106377000D01*
X79821426Y-106379853D01*
X80098665Y-106435000D01*
X80381335Y-106435000D01*
X80658574Y-106379853D01*
X80665462Y-106377000D01*
X82354538Y-106377000D01*
X82361426Y-106379853D01*
X82638665Y-106435000D01*
X82921335Y-106435000D01*
X83198574Y-106379853D01*
X83205462Y-106377000D01*
X84873000Y-106377000D01*
X84873000Y-108873000D01*
X63877000Y-108873000D01*
X63877000Y-106377000D01*
X64601823Y-106377000D01*
X64650961Y-106391904D01*
%TA.AperFunction,Conductor*%
D30*
G36*
X64650961Y-106391904D02*
G01*
X64678089Y-106377000D01*
X65321911Y-106377000D01*
X65349039Y-106391904D01*
X65398177Y-106377000D01*
X67114538Y-106377000D01*
X67121426Y-106379853D01*
X67398665Y-106435000D01*
X67681335Y-106435000D01*
X67958574Y-106379853D01*
X67965462Y-106377000D01*
X69654538Y-106377000D01*
X69661426Y-106379853D01*
X69938665Y-106435000D01*
X70221335Y-106435000D01*
X70498574Y-106379853D01*
X70505462Y-106377000D01*
X72194538Y-106377000D01*
X72201426Y-106379853D01*
X72478665Y-106435000D01*
X72761335Y-106435000D01*
X73038574Y-106379853D01*
X73045462Y-106377000D01*
X74734538Y-106377000D01*
X74741426Y-106379853D01*
X75018665Y-106435000D01*
X75301335Y-106435000D01*
X75578574Y-106379853D01*
X75585462Y-106377000D01*
X77274538Y-106377000D01*
X77281426Y-106379853D01*
X77558665Y-106435000D01*
X77841335Y-106435000D01*
X78118574Y-106379853D01*
X78125462Y-106377000D01*
X79814538Y-106377000D01*
X79821426Y-106379853D01*
X80098665Y-106435000D01*
X80381335Y-106435000D01*
X80658574Y-106379853D01*
X80665462Y-106377000D01*
X82354538Y-106377000D01*
X82361426Y-106379853D01*
X82638665Y-106435000D01*
X82921335Y-106435000D01*
X83198574Y-106379853D01*
X83205462Y-106377000D01*
X84873000Y-106377000D01*
X84873000Y-108873000D01*
X63877000Y-108873000D01*
X63877000Y-106377000D01*
X64601823Y-106377000D01*
X64650961Y-106391904D01*
G37*
%TD.AperFunction*%
%TD*%
D29*
%TO.N,+5V*%
X182873000Y-96306299D02*
X182873000Y-107873000D01*
X154127000Y-107873000D01*
X154127000Y-106877000D01*
X174500000Y-106877000D01*
X174524776Y-106874560D01*
X174548601Y-106867333D01*
X174570557Y-106855597D01*
X174589803Y-106839803D01*
X174605597Y-106820557D01*
X174617333Y-106798601D01*
X174624560Y-106774776D01*
X174627000Y-106750000D01*
X174627000Y-103750000D01*
X174624560Y-103725224D01*
X174617333Y-103701399D01*
X174605597Y-103679443D01*
X174589803Y-103660197D01*
X174563010Y-103639733D01*
X173044999Y-102772298D01*
X173044999Y-99242702D01*
X180096903Y-99242702D01*
X180168486Y-99486671D01*
X180423996Y-99607571D01*
X180698184Y-99676300D01*
X180980512Y-99690217D01*
X181260130Y-99648787D01*
X181526292Y-99553603D01*
X181651514Y-99486671D01*
X181723097Y-99242702D01*
X180910000Y-98429605D01*
X180096903Y-99242702D01*
X173044999Y-99242702D01*
X173044999Y-98320512D01*
X179469783Y-98320512D01*
X179511213Y-98600130D01*
X179606397Y-98866292D01*
X179673329Y-98991514D01*
X179917298Y-99063097D01*
X180730395Y-98250000D01*
X181089605Y-98250000D01*
X181902702Y-99063097D01*
X182146671Y-98991514D01*
X182267571Y-98736004D01*
X182336300Y-98461816D01*
X182350217Y-98179488D01*
X182308787Y-97899870D01*
X182213603Y-97633708D01*
X182146671Y-97508486D01*
X181902702Y-97436903D01*
X181089605Y-98250000D01*
X180730395Y-98250000D01*
X179917298Y-97436903D01*
X179673329Y-97508486D01*
X179552429Y-97763996D01*
X179483700Y-98038184D01*
X179469783Y-98320512D01*
X173044999Y-98320512D01*
X173044999Y-97257298D01*
X180096903Y-97257298D01*
X180910000Y-98070395D01*
X181723097Y-97257298D01*
X181651514Y-97013329D01*
X181396004Y-96892429D01*
X181121816Y-96823700D01*
X180839488Y-96809783D01*
X180559870Y-96851213D01*
X180293708Y-96946397D01*
X180168486Y-97013329D01*
X180096903Y-97257298D01*
X173044999Y-97257298D01*
X173044999Y-95242702D01*
X175346903Y-95242702D01*
X175418486Y-95486671D01*
X175673996Y-95607571D01*
X175948184Y-95676300D01*
X176230512Y-95690217D01*
X176510130Y-95648787D01*
X176776292Y-95553603D01*
X176901514Y-95486671D01*
X176973097Y-95242702D01*
X176160000Y-94429605D01*
X175346903Y-95242702D01*
X173044999Y-95242702D01*
X173044999Y-94320512D01*
X174719783Y-94320512D01*
X174761213Y-94600130D01*
X174856397Y-94866292D01*
X174923329Y-94991514D01*
X175167298Y-95063097D01*
X175980395Y-94250000D01*
X176339605Y-94250000D01*
X177152702Y-95063097D01*
X177396671Y-94991514D01*
X177517571Y-94736004D01*
X177586300Y-94461816D01*
X177600217Y-94179488D01*
X177558787Y-93899870D01*
X177463603Y-93633708D01*
X177396671Y-93508486D01*
X177152702Y-93436903D01*
X176339605Y-94250000D01*
X175980395Y-94250000D01*
X175167298Y-93436903D01*
X174923329Y-93508486D01*
X174802429Y-93763996D01*
X174733700Y-94038184D01*
X174719783Y-94320512D01*
X173044999Y-94320512D01*
X173044999Y-93257298D01*
X175346903Y-93257298D01*
X176160000Y-94070395D01*
X176973097Y-93257298D01*
X176901514Y-93013329D01*
X176646004Y-92892429D01*
X176371816Y-92823700D01*
X176089488Y-92809783D01*
X175809870Y-92851213D01*
X175543708Y-92946397D01*
X175418486Y-93013329D01*
X175346903Y-93257298D01*
X173044999Y-93257298D01*
X173044999Y-91637902D01*
X173198184Y-91676300D01*
X173480512Y-91690217D01*
X173760130Y-91648787D01*
X174026292Y-91553603D01*
X174151514Y-91486671D01*
X174223097Y-91242702D01*
X173410000Y-90429605D01*
X173395858Y-90443748D01*
X173216253Y-90264143D01*
X173230395Y-90250000D01*
X173589605Y-90250000D01*
X174402702Y-91063097D01*
X174646671Y-90991514D01*
X174767571Y-90736004D01*
X174836300Y-90461816D01*
X174850217Y-90179488D01*
X174808787Y-89899870D01*
X174713603Y-89633708D01*
X174646671Y-89508486D01*
X174402702Y-89436903D01*
X173589605Y-90250000D01*
X173230395Y-90250000D01*
X173216253Y-90235858D01*
X173395858Y-90056253D01*
X173410000Y-90070395D01*
X174223097Y-89257298D01*
X174184866Y-89127000D01*
X174951015Y-89127000D01*
X182873000Y-96306299D01*
%TA.AperFunction,Conductor*%
D30*
G36*
X182873000Y-96306299D02*
G01*
X182873000Y-107873000D01*
X154127000Y-107873000D01*
X154127000Y-106877000D01*
X174500000Y-106877000D01*
X174524776Y-106874560D01*
X174548601Y-106867333D01*
X174570557Y-106855597D01*
X174589803Y-106839803D01*
X174605597Y-106820557D01*
X174617333Y-106798601D01*
X174624560Y-106774776D01*
X174627000Y-106750000D01*
X174627000Y-103750000D01*
X174624560Y-103725224D01*
X174617333Y-103701399D01*
X174605597Y-103679443D01*
X174589803Y-103660197D01*
X174563010Y-103639733D01*
X173044999Y-102772298D01*
X173044999Y-99242702D01*
X180096903Y-99242702D01*
X180168486Y-99486671D01*
X180423996Y-99607571D01*
X180698184Y-99676300D01*
X180980512Y-99690217D01*
X181260130Y-99648787D01*
X181526292Y-99553603D01*
X181651514Y-99486671D01*
X181723097Y-99242702D01*
X180910000Y-98429605D01*
X180096903Y-99242702D01*
X173044999Y-99242702D01*
X173044999Y-98320512D01*
X179469783Y-98320512D01*
X179511213Y-98600130D01*
X179606397Y-98866292D01*
X179673329Y-98991514D01*
X179917298Y-99063097D01*
X180730395Y-98250000D01*
X181089605Y-98250000D01*
X181902702Y-99063097D01*
X182146671Y-98991514D01*
X182267571Y-98736004D01*
X182336300Y-98461816D01*
X182350217Y-98179488D01*
X182308787Y-97899870D01*
X182213603Y-97633708D01*
X182146671Y-97508486D01*
X181902702Y-97436903D01*
X181089605Y-98250000D01*
X180730395Y-98250000D01*
X179917298Y-97436903D01*
X179673329Y-97508486D01*
X179552429Y-97763996D01*
X179483700Y-98038184D01*
X179469783Y-98320512D01*
X173044999Y-98320512D01*
X173044999Y-97257298D01*
X180096903Y-97257298D01*
X180910000Y-98070395D01*
X181723097Y-97257298D01*
X181651514Y-97013329D01*
X181396004Y-96892429D01*
X181121816Y-96823700D01*
X180839488Y-96809783D01*
X180559870Y-96851213D01*
X180293708Y-96946397D01*
X180168486Y-97013329D01*
X180096903Y-97257298D01*
X173044999Y-97257298D01*
X173044999Y-95242702D01*
X175346903Y-95242702D01*
X175418486Y-95486671D01*
X175673996Y-95607571D01*
X175948184Y-95676300D01*
X176230512Y-95690217D01*
X176510130Y-95648787D01*
X176776292Y-95553603D01*
X176901514Y-95486671D01*
X176973097Y-95242702D01*
X176160000Y-94429605D01*
X175346903Y-95242702D01*
X173044999Y-95242702D01*
X173044999Y-94320512D01*
X174719783Y-94320512D01*
X174761213Y-94600130D01*
X174856397Y-94866292D01*
X174923329Y-94991514D01*
X175167298Y-95063097D01*
X175980395Y-94250000D01*
X176339605Y-94250000D01*
X177152702Y-95063097D01*
X177396671Y-94991514D01*
X177517571Y-94736004D01*
X177586300Y-94461816D01*
X177600217Y-94179488D01*
X177558787Y-93899870D01*
X177463603Y-93633708D01*
X177396671Y-93508486D01*
X177152702Y-93436903D01*
X176339605Y-94250000D01*
X175980395Y-94250000D01*
X175167298Y-93436903D01*
X174923329Y-93508486D01*
X174802429Y-93763996D01*
X174733700Y-94038184D01*
X174719783Y-94320512D01*
X173044999Y-94320512D01*
X173044999Y-93257298D01*
X175346903Y-93257298D01*
X176160000Y-94070395D01*
X176973097Y-93257298D01*
X176901514Y-93013329D01*
X176646004Y-92892429D01*
X176371816Y-92823700D01*
X176089488Y-92809783D01*
X175809870Y-92851213D01*
X175543708Y-92946397D01*
X175418486Y-93013329D01*
X175346903Y-93257298D01*
X173044999Y-93257298D01*
X173044999Y-91637902D01*
X173198184Y-91676300D01*
X173480512Y-91690217D01*
X173760130Y-91648787D01*
X174026292Y-91553603D01*
X174151514Y-91486671D01*
X174223097Y-91242702D01*
X173410000Y-90429605D01*
X173395858Y-90443748D01*
X173216253Y-90264143D01*
X173230395Y-90250000D01*
X173589605Y-90250000D01*
X174402702Y-91063097D01*
X174646671Y-90991514D01*
X174767571Y-90736004D01*
X174836300Y-90461816D01*
X174850217Y-90179488D01*
X174808787Y-89899870D01*
X174713603Y-89633708D01*
X174646671Y-89508486D01*
X174402702Y-89436903D01*
X173589605Y-90250000D01*
X173230395Y-90250000D01*
X173216253Y-90235858D01*
X173395858Y-90056253D01*
X173410000Y-90070395D01*
X174223097Y-89257298D01*
X174184866Y-89127000D01*
X174951015Y-89127000D01*
X182873000Y-96306299D01*
G37*
%TD.AperFunction*%
%TD*%
D29*
%TO.N,GND*%
X189340001Y-57373000D02*
X187902459Y-57373000D01*
X188190548Y-57161088D01*
X188550849Y-56497118D01*
X188774694Y-55775615D01*
X188853480Y-55024305D01*
X188784178Y-54272062D01*
X188569452Y-53547792D01*
X188217555Y-52879330D01*
X188190548Y-52838912D01*
X187700881Y-52478724D01*
X185179605Y-55000000D01*
X185193748Y-55014143D01*
X185014143Y-55193748D01*
X185000000Y-55179605D01*
X184985858Y-55193748D01*
X184806253Y-55014143D01*
X184820395Y-55000000D01*
X182299119Y-52478724D01*
X181809452Y-52838912D01*
X181449151Y-53502882D01*
X181225306Y-54224385D01*
X181146520Y-54975695D01*
X181215822Y-55727938D01*
X181430548Y-56452208D01*
X181782445Y-57120670D01*
X181809452Y-57161088D01*
X182097541Y-57373000D01*
X144557000Y-57373000D01*
X144557000Y-56931375D01*
X144536786Y-56726140D01*
X144456904Y-56462805D01*
X144327183Y-56220113D01*
X144152607Y-56007392D01*
X143939886Y-55832817D01*
X143697194Y-55703096D01*
X143433859Y-55623214D01*
X143160000Y-55596241D01*
X142886140Y-55623214D01*
X142622805Y-55703096D01*
X142380113Y-55832817D01*
X142167392Y-56007393D01*
X141992817Y-56220114D01*
X141890000Y-56412471D01*
X141787183Y-56220113D01*
X141612607Y-56007392D01*
X141399886Y-55832817D01*
X141157194Y-55703096D01*
X140893859Y-55623214D01*
X140620000Y-55596241D01*
X140346140Y-55623214D01*
X140082805Y-55703096D01*
X139840113Y-55832817D01*
X139627392Y-56007393D01*
X139452817Y-56220114D01*
X139348962Y-56414414D01*
X139322059Y-56348058D01*
X139171006Y-56118271D01*
X138978026Y-55922368D01*
X138750535Y-55767878D01*
X138497276Y-55660738D01*
X138423070Y-55645780D01*
X138207000Y-55768280D01*
X138207000Y-57373000D01*
X137953000Y-57373000D01*
X137953000Y-55768280D01*
X137736930Y-55645780D01*
X137662724Y-55660738D01*
X137409465Y-55767878D01*
X137181974Y-55922368D01*
X136988994Y-56118271D01*
X136837941Y-56348058D01*
X136811038Y-56414413D01*
X136707183Y-56220113D01*
X136532607Y-56007392D01*
X136425000Y-55919082D01*
X136425000Y-55583465D01*
X136429281Y-55539999D01*
X136425000Y-55496533D01*
X136425000Y-55496523D01*
X136412195Y-55366510D01*
X136361589Y-55199687D01*
X136279411Y-55045941D01*
X136168817Y-54911183D01*
X136135044Y-54883466D01*
X135656534Y-54404956D01*
X135628817Y-54371183D01*
X135494059Y-54260589D01*
X135340313Y-54178411D01*
X135173490Y-54127805D01*
X135043477Y-54115000D01*
X135043469Y-54115000D01*
X135000000Y-54110719D01*
X134956531Y-54115000D01*
X132043469Y-54115000D01*
X132000000Y-54110719D01*
X131956531Y-54115000D01*
X131956523Y-54115000D01*
X131826510Y-54127805D01*
X131659686Y-54178411D01*
X131505941Y-54260589D01*
X131404953Y-54343468D01*
X131404951Y-54343470D01*
X131371183Y-54371183D01*
X131343470Y-54404951D01*
X130404956Y-55343466D01*
X130371183Y-55371183D01*
X130260589Y-55505942D01*
X130178411Y-55659688D01*
X130127805Y-55826511D01*
X130115000Y-55956524D01*
X130115000Y-55956531D01*
X130110719Y-56000000D01*
X130115000Y-56043469D01*
X130115000Y-57373000D01*
X122557000Y-57373000D01*
X122557000Y-56931375D01*
X122536786Y-56726140D01*
X122456904Y-56462805D01*
X122327183Y-56220113D01*
X122152607Y-56007392D01*
X121939886Y-55832817D01*
X121697194Y-55703096D01*
X121433859Y-55623214D01*
X121160000Y-55596241D01*
X120886140Y-55623214D01*
X120622805Y-55703096D01*
X120380113Y-55832817D01*
X120167392Y-56007393D01*
X119992817Y-56220114D01*
X119890000Y-56412471D01*
X119787183Y-56220113D01*
X119612607Y-56007392D01*
X119399886Y-55832817D01*
X119157194Y-55703096D01*
X118893859Y-55623214D01*
X118620000Y-55596241D01*
X118346140Y-55623214D01*
X118082805Y-55703096D01*
X117840113Y-55832817D01*
X117627392Y-56007393D01*
X117452817Y-56220114D01*
X117348962Y-56414414D01*
X117322059Y-56348058D01*
X117171006Y-56118271D01*
X116978026Y-55922368D01*
X116750535Y-55767878D01*
X116497276Y-55660738D01*
X116423070Y-55645780D01*
X116207000Y-55768280D01*
X116207000Y-57373000D01*
X115953000Y-57373000D01*
X115953000Y-55768280D01*
X115736930Y-55645780D01*
X115662724Y-55660738D01*
X115409465Y-55767878D01*
X115181974Y-55922368D01*
X114988994Y-56118271D01*
X114837941Y-56348058D01*
X114811038Y-56414413D01*
X114707183Y-56220113D01*
X114532607Y-56007392D01*
X114425000Y-55919082D01*
X114425000Y-55083465D01*
X114429281Y-55039999D01*
X114425000Y-54996533D01*
X114425000Y-54996523D01*
X114412195Y-54866510D01*
X114361589Y-54699687D01*
X114279411Y-54545941D01*
X114168817Y-54411183D01*
X114135045Y-54383467D01*
X113656534Y-53904956D01*
X113628817Y-53871183D01*
X113494059Y-53760589D01*
X113340313Y-53678411D01*
X113173490Y-53627805D01*
X113043477Y-53615000D01*
X113043469Y-53615000D01*
X113000000Y-53610719D01*
X112956531Y-53615000D01*
X110543465Y-53615000D01*
X110499999Y-53610719D01*
X110456533Y-53615000D01*
X110456523Y-53615000D01*
X110326510Y-53627805D01*
X110159687Y-53678411D01*
X110005941Y-53760589D01*
X110005939Y-53760590D01*
X110005940Y-53760590D01*
X109904953Y-53843468D01*
X109904951Y-53843470D01*
X109871183Y-53871183D01*
X109843470Y-53904951D01*
X108404951Y-55343471D01*
X108371184Y-55371183D01*
X108343471Y-55404951D01*
X108343468Y-55404954D01*
X108260590Y-55505941D01*
X108178412Y-55659687D01*
X108127805Y-55826510D01*
X108110719Y-56000000D01*
X108115001Y-56043479D01*
X108115001Y-57373000D01*
X100557000Y-57373000D01*
X100557000Y-56931375D01*
X100536786Y-56726140D01*
X100456904Y-56462805D01*
X100327183Y-56220113D01*
X100152607Y-56007392D01*
X99939886Y-55832817D01*
X99697194Y-55703096D01*
X99433859Y-55623214D01*
X99160000Y-55596241D01*
X98886140Y-55623214D01*
X98622805Y-55703096D01*
X98380113Y-55832817D01*
X98167392Y-56007393D01*
X97992817Y-56220114D01*
X97890000Y-56412471D01*
X97787183Y-56220113D01*
X97612607Y-56007392D01*
X97399886Y-55832817D01*
X97157194Y-55703096D01*
X96893859Y-55623214D01*
X96620000Y-55596241D01*
X96346140Y-55623214D01*
X96082805Y-55703096D01*
X95840113Y-55832817D01*
X95627392Y-56007393D01*
X95452817Y-56220114D01*
X95348962Y-56414414D01*
X95322059Y-56348058D01*
X95171006Y-56118271D01*
X94978026Y-55922368D01*
X94750535Y-55767878D01*
X94497276Y-55660738D01*
X94423070Y-55645780D01*
X94207000Y-55768280D01*
X94207000Y-57373000D01*
X93953000Y-57373000D01*
X93953000Y-55768280D01*
X93736930Y-55645780D01*
X93662724Y-55660738D01*
X93409465Y-55767878D01*
X93181974Y-55922368D01*
X92988994Y-56118271D01*
X92837941Y-56348058D01*
X92811038Y-56414413D01*
X92707183Y-56220113D01*
X92532607Y-56007392D01*
X92319886Y-55832817D01*
X92290816Y-55817279D01*
X92279411Y-55795941D01*
X92168817Y-55661183D01*
X92135044Y-55633466D01*
X91694524Y-55192946D01*
X91666807Y-55159173D01*
X91532049Y-55048579D01*
X91378303Y-54966401D01*
X91211480Y-54915795D01*
X91081467Y-54902990D01*
X91081459Y-54902990D01*
X91037990Y-54898709D01*
X90994521Y-54902990D01*
X82755479Y-54902990D01*
X82712010Y-54898709D01*
X82668541Y-54902990D01*
X82668533Y-54902990D01*
X82538520Y-54915795D01*
X82371697Y-54966401D01*
X82308837Y-55000000D01*
X82217951Y-55048579D01*
X82116963Y-55131458D01*
X82116961Y-55131460D01*
X82083193Y-55159173D01*
X82055480Y-55192941D01*
X79875421Y-57373000D01*
X57902459Y-57373000D01*
X58190548Y-57161088D01*
X58550849Y-56497118D01*
X58774694Y-55775615D01*
X58853480Y-55024305D01*
X58784178Y-54272062D01*
X58569452Y-53547792D01*
X58217555Y-52879330D01*
X58190548Y-52838912D01*
X57700881Y-52478724D01*
X55179605Y-55000000D01*
X55193748Y-55014143D01*
X55014143Y-55193748D01*
X55000000Y-55179605D01*
X54985858Y-55193748D01*
X54806253Y-55014143D01*
X54820395Y-55000000D01*
X52299119Y-52478724D01*
X51809452Y-52838912D01*
X51449151Y-53502882D01*
X51225306Y-54224385D01*
X51146520Y-54975695D01*
X51215822Y-55727938D01*
X51430548Y-56452208D01*
X51782445Y-57120670D01*
X51809452Y-57161088D01*
X52097541Y-57373000D01*
X50660000Y-57373000D01*
X50660000Y-52299119D01*
X52478724Y-52299119D01*
X55000000Y-54820395D01*
X57521276Y-52299119D01*
X182478724Y-52299119D01*
X185000000Y-54820395D01*
X187521276Y-52299119D01*
X187161088Y-51809452D01*
X186497118Y-51449151D01*
X185775615Y-51225306D01*
X185024305Y-51146520D01*
X184272062Y-51215822D01*
X183547792Y-51430548D01*
X182879330Y-51782445D01*
X182838912Y-51809452D01*
X182478724Y-52299119D01*
X57521276Y-52299119D01*
X57161088Y-51809452D01*
X56497118Y-51449151D01*
X55775615Y-51225306D01*
X55024305Y-51146520D01*
X54272062Y-51215822D01*
X53547792Y-51430548D01*
X52879330Y-51782445D01*
X52838912Y-51809452D01*
X52478724Y-52299119D01*
X50660000Y-52299119D01*
X50660000Y-50660000D01*
X189340001Y-50660000D01*
X189340001Y-57373000D01*
%TA.AperFunction,Conductor*%
D30*
G36*
X189340001Y-57373000D02*
G01*
X187902459Y-57373000D01*
X188190548Y-57161088D01*
X188550849Y-56497118D01*
X188774694Y-55775615D01*
X188853480Y-55024305D01*
X188784178Y-54272062D01*
X188569452Y-53547792D01*
X188217555Y-52879330D01*
X188190548Y-52838912D01*
X187700881Y-52478724D01*
X185179605Y-55000000D01*
X185193748Y-55014143D01*
X185014143Y-55193748D01*
X185000000Y-55179605D01*
X184985858Y-55193748D01*
X184806253Y-55014143D01*
X184820395Y-55000000D01*
X182299119Y-52478724D01*
X181809452Y-52838912D01*
X181449151Y-53502882D01*
X181225306Y-54224385D01*
X181146520Y-54975695D01*
X181215822Y-55727938D01*
X181430548Y-56452208D01*
X181782445Y-57120670D01*
X181809452Y-57161088D01*
X182097541Y-57373000D01*
X144557000Y-57373000D01*
X144557000Y-56931375D01*
X144536786Y-56726140D01*
X144456904Y-56462805D01*
X144327183Y-56220113D01*
X144152607Y-56007392D01*
X143939886Y-55832817D01*
X143697194Y-55703096D01*
X143433859Y-55623214D01*
X143160000Y-55596241D01*
X142886140Y-55623214D01*
X142622805Y-55703096D01*
X142380113Y-55832817D01*
X142167392Y-56007393D01*
X141992817Y-56220114D01*
X141890000Y-56412471D01*
X141787183Y-56220113D01*
X141612607Y-56007392D01*
X141399886Y-55832817D01*
X141157194Y-55703096D01*
X140893859Y-55623214D01*
X140620000Y-55596241D01*
X140346140Y-55623214D01*
X140082805Y-55703096D01*
X139840113Y-55832817D01*
X139627392Y-56007393D01*
X139452817Y-56220114D01*
X139348962Y-56414414D01*
X139322059Y-56348058D01*
X139171006Y-56118271D01*
X138978026Y-55922368D01*
X138750535Y-55767878D01*
X138497276Y-55660738D01*
X138423070Y-55645780D01*
X138207000Y-55768280D01*
X138207000Y-57373000D01*
X137953000Y-57373000D01*
X137953000Y-55768280D01*
X137736930Y-55645780D01*
X137662724Y-55660738D01*
X137409465Y-55767878D01*
X137181974Y-55922368D01*
X136988994Y-56118271D01*
X136837941Y-56348058D01*
X136811038Y-56414413D01*
X136707183Y-56220113D01*
X136532607Y-56007392D01*
X136425000Y-55919082D01*
X136425000Y-55583465D01*
X136429281Y-55539999D01*
X136425000Y-55496533D01*
X136425000Y-55496523D01*
X136412195Y-55366510D01*
X136361589Y-55199687D01*
X136279411Y-55045941D01*
X136168817Y-54911183D01*
X136135044Y-54883466D01*
X135656534Y-54404956D01*
X135628817Y-54371183D01*
X135494059Y-54260589D01*
X135340313Y-54178411D01*
X135173490Y-54127805D01*
X135043477Y-54115000D01*
X135043469Y-54115000D01*
X135000000Y-54110719D01*
X134956531Y-54115000D01*
X132043469Y-54115000D01*
X132000000Y-54110719D01*
X131956531Y-54115000D01*
X131956523Y-54115000D01*
X131826510Y-54127805D01*
X131659686Y-54178411D01*
X131505941Y-54260589D01*
X131404953Y-54343468D01*
X131404951Y-54343470D01*
X131371183Y-54371183D01*
X131343470Y-54404951D01*
X130404956Y-55343466D01*
X130371183Y-55371183D01*
X130260589Y-55505942D01*
X130178411Y-55659688D01*
X130127805Y-55826511D01*
X130115000Y-55956524D01*
X130115000Y-55956531D01*
X130110719Y-56000000D01*
X130115000Y-56043469D01*
X130115000Y-57373000D01*
X122557000Y-57373000D01*
X122557000Y-56931375D01*
X122536786Y-56726140D01*
X122456904Y-56462805D01*
X122327183Y-56220113D01*
X122152607Y-56007392D01*
X121939886Y-55832817D01*
X121697194Y-55703096D01*
X121433859Y-55623214D01*
X121160000Y-55596241D01*
X120886140Y-55623214D01*
X120622805Y-55703096D01*
X120380113Y-55832817D01*
X120167392Y-56007393D01*
X119992817Y-56220114D01*
X119890000Y-56412471D01*
X119787183Y-56220113D01*
X119612607Y-56007392D01*
X119399886Y-55832817D01*
X119157194Y-55703096D01*
X118893859Y-55623214D01*
X118620000Y-55596241D01*
X118346140Y-55623214D01*
X118082805Y-55703096D01*
X117840113Y-55832817D01*
X117627392Y-56007393D01*
X117452817Y-56220114D01*
X117348962Y-56414414D01*
X117322059Y-56348058D01*
X117171006Y-56118271D01*
X116978026Y-55922368D01*
X116750535Y-55767878D01*
X116497276Y-55660738D01*
X116423070Y-55645780D01*
X116207000Y-55768280D01*
X116207000Y-57373000D01*
X115953000Y-57373000D01*
X115953000Y-55768280D01*
X115736930Y-55645780D01*
X115662724Y-55660738D01*
X115409465Y-55767878D01*
X115181974Y-55922368D01*
X114988994Y-56118271D01*
X114837941Y-56348058D01*
X114811038Y-56414413D01*
X114707183Y-56220113D01*
X114532607Y-56007392D01*
X114425000Y-55919082D01*
X114425000Y-55083465D01*
X114429281Y-55039999D01*
X114425000Y-54996533D01*
X114425000Y-54996523D01*
X114412195Y-54866510D01*
X114361589Y-54699687D01*
X114279411Y-54545941D01*
X114168817Y-54411183D01*
X114135045Y-54383467D01*
X113656534Y-53904956D01*
X113628817Y-53871183D01*
X113494059Y-53760589D01*
X113340313Y-53678411D01*
X113173490Y-53627805D01*
X113043477Y-53615000D01*
X113043469Y-53615000D01*
X113000000Y-53610719D01*
X112956531Y-53615000D01*
X110543465Y-53615000D01*
X110499999Y-53610719D01*
X110456533Y-53615000D01*
X110456523Y-53615000D01*
X110326510Y-53627805D01*
X110159687Y-53678411D01*
X110005941Y-53760589D01*
X110005939Y-53760590D01*
X110005940Y-53760590D01*
X109904953Y-53843468D01*
X109904951Y-53843470D01*
X109871183Y-53871183D01*
X109843470Y-53904951D01*
X108404951Y-55343471D01*
X108371184Y-55371183D01*
X108343471Y-55404951D01*
X108343468Y-55404954D01*
X108260590Y-55505941D01*
X108178412Y-55659687D01*
X108127805Y-55826510D01*
X108110719Y-56000000D01*
X108115001Y-56043479D01*
X108115001Y-57373000D01*
X100557000Y-57373000D01*
X100557000Y-56931375D01*
X100536786Y-56726140D01*
X100456904Y-56462805D01*
X100327183Y-56220113D01*
X100152607Y-56007392D01*
X99939886Y-55832817D01*
X99697194Y-55703096D01*
X99433859Y-55623214D01*
X99160000Y-55596241D01*
X98886140Y-55623214D01*
X98622805Y-55703096D01*
X98380113Y-55832817D01*
X98167392Y-56007393D01*
X97992817Y-56220114D01*
X97890000Y-56412471D01*
X97787183Y-56220113D01*
X97612607Y-56007392D01*
X97399886Y-55832817D01*
X97157194Y-55703096D01*
X96893859Y-55623214D01*
X96620000Y-55596241D01*
X96346140Y-55623214D01*
X96082805Y-55703096D01*
X95840113Y-55832817D01*
X95627392Y-56007393D01*
X95452817Y-56220114D01*
X95348962Y-56414414D01*
X95322059Y-56348058D01*
X95171006Y-56118271D01*
X94978026Y-55922368D01*
X94750535Y-55767878D01*
X94497276Y-55660738D01*
X94423070Y-55645780D01*
X94207000Y-55768280D01*
X94207000Y-57373000D01*
X93953000Y-57373000D01*
X93953000Y-55768280D01*
X93736930Y-55645780D01*
X93662724Y-55660738D01*
X93409465Y-55767878D01*
X93181974Y-55922368D01*
X92988994Y-56118271D01*
X92837941Y-56348058D01*
X92811038Y-56414413D01*
X92707183Y-56220113D01*
X92532607Y-56007392D01*
X92319886Y-55832817D01*
X92290816Y-55817279D01*
X92279411Y-55795941D01*
X92168817Y-55661183D01*
X92135044Y-55633466D01*
X91694524Y-55192946D01*
X91666807Y-55159173D01*
X91532049Y-55048579D01*
X91378303Y-54966401D01*
X91211480Y-54915795D01*
X91081467Y-54902990D01*
X91081459Y-54902990D01*
X91037990Y-54898709D01*
X90994521Y-54902990D01*
X82755479Y-54902990D01*
X82712010Y-54898709D01*
X82668541Y-54902990D01*
X82668533Y-54902990D01*
X82538520Y-54915795D01*
X82371697Y-54966401D01*
X82308837Y-55000000D01*
X82217951Y-55048579D01*
X82116963Y-55131458D01*
X82116961Y-55131460D01*
X82083193Y-55159173D01*
X82055480Y-55192941D01*
X79875421Y-57373000D01*
X57902459Y-57373000D01*
X58190548Y-57161088D01*
X58550849Y-56497118D01*
X58774694Y-55775615D01*
X58853480Y-55024305D01*
X58784178Y-54272062D01*
X58569452Y-53547792D01*
X58217555Y-52879330D01*
X58190548Y-52838912D01*
X57700881Y-52478724D01*
X55179605Y-55000000D01*
X55193748Y-55014143D01*
X55014143Y-55193748D01*
X55000000Y-55179605D01*
X54985858Y-55193748D01*
X54806253Y-55014143D01*
X54820395Y-55000000D01*
X52299119Y-52478724D01*
X51809452Y-52838912D01*
X51449151Y-53502882D01*
X51225306Y-54224385D01*
X51146520Y-54975695D01*
X51215822Y-55727938D01*
X51430548Y-56452208D01*
X51782445Y-57120670D01*
X51809452Y-57161088D01*
X52097541Y-57373000D01*
X50660000Y-57373000D01*
X50660000Y-52299119D01*
X52478724Y-52299119D01*
X55000000Y-54820395D01*
X57521276Y-52299119D01*
X182478724Y-52299119D01*
X185000000Y-54820395D01*
X187521276Y-52299119D01*
X187161088Y-51809452D01*
X186497118Y-51449151D01*
X185775615Y-51225306D01*
X185024305Y-51146520D01*
X184272062Y-51215822D01*
X183547792Y-51430548D01*
X182879330Y-51782445D01*
X182838912Y-51809452D01*
X182478724Y-52299119D01*
X57521276Y-52299119D01*
X57161088Y-51809452D01*
X56497118Y-51449151D01*
X55775615Y-51225306D01*
X55024305Y-51146520D01*
X54272062Y-51215822D01*
X53547792Y-51430548D01*
X52879330Y-51782445D01*
X52838912Y-51809452D01*
X52478724Y-52299119D01*
X50660000Y-52299119D01*
X50660000Y-50660000D01*
X189340001Y-50660000D01*
X189340001Y-57373000D01*
G37*
%TD.AperFunction*%
%TD*%
D29*
%TO.N,GND*%
X53873000Y-97500000D02*
X53875440Y-97524776D01*
X53882667Y-97548601D01*
X53894403Y-97570557D01*
X53910197Y-97589803D01*
X53920664Y-97599170D01*
X56373000Y-99561039D01*
X56373000Y-102947394D01*
X55947394Y-103373000D01*
X50660000Y-103373000D01*
X50660000Y-57127000D01*
X53873000Y-57127000D01*
X53873000Y-97500000D01*
%TA.AperFunction,Conductor*%
D30*
G36*
X53873000Y-97500000D02*
G01*
X53875440Y-97524776D01*
X53882667Y-97548601D01*
X53894403Y-97570557D01*
X53910197Y-97589803D01*
X53920664Y-97599170D01*
X56373000Y-99561039D01*
X56373000Y-102947394D01*
X55947394Y-103373000D01*
X50660000Y-103373000D01*
X50660000Y-57127000D01*
X53873000Y-57127000D01*
X53873000Y-97500000D01*
G37*
%TD.AperFunction*%
%TD*%
D29*
%TO.N,+5V*%
X65873000Y-108873000D02*
X58052606Y-108873000D01*
X57589803Y-108410197D01*
X57570557Y-108394403D01*
X57548601Y-108382667D01*
X57524776Y-108375440D01*
X57500000Y-108373000D01*
X54627000Y-108373000D01*
X54627000Y-104127000D01*
X65873000Y-104127000D01*
X65873000Y-108873000D01*
%TA.AperFunction,Conductor*%
D30*
G36*
X65873000Y-108873000D02*
G01*
X58052606Y-108873000D01*
X57589803Y-108410197D01*
X57570557Y-108394403D01*
X57548601Y-108382667D01*
X57524776Y-108375440D01*
X57500000Y-108373000D01*
X54627000Y-108373000D01*
X54627000Y-104127000D01*
X65873000Y-104127000D01*
X65873000Y-108873000D01*
G37*
%TD.AperFunction*%
%TD*%
D29*
%TO.N,GND*%
X189340000Y-115373000D02*
X171127000Y-115373000D01*
X171127000Y-110127000D01*
X184000000Y-110127000D01*
X184024776Y-110124560D01*
X184048601Y-110117333D01*
X184070557Y-110105597D01*
X184089803Y-110089803D01*
X185089803Y-109089803D01*
X185105597Y-109070557D01*
X185117333Y-109048601D01*
X185124560Y-109024776D01*
X185127000Y-109000000D01*
X185127000Y-96000000D01*
X185124560Y-95975224D01*
X185117333Y-95951399D01*
X185105597Y-95929443D01*
X185086142Y-95906680D01*
X178627000Y-89944395D01*
X178627000Y-50660000D01*
X189340001Y-50660000D01*
X189340000Y-115373000D01*
%TA.AperFunction,Conductor*%
D30*
G36*
X189340000Y-115373000D02*
G01*
X171127000Y-115373000D01*
X171127000Y-110127000D01*
X184000000Y-110127000D01*
X184024776Y-110124560D01*
X184048601Y-110117333D01*
X184070557Y-110105597D01*
X184089803Y-110089803D01*
X185089803Y-109089803D01*
X185105597Y-109070557D01*
X185117333Y-109048601D01*
X185124560Y-109024776D01*
X185127000Y-109000000D01*
X185127000Y-96000000D01*
X185124560Y-95975224D01*
X185117333Y-95951399D01*
X185105597Y-95929443D01*
X185086142Y-95906680D01*
X178627000Y-89944395D01*
X178627000Y-50660000D01*
X189340001Y-50660000D01*
X189340000Y-115373000D01*
G37*
%TD.AperFunction*%
%TD*%
D29*
%TO.N,GND*%
X185373000Y-110868545D02*
X171054406Y-110374800D01*
X169806606Y-109127000D01*
X185373000Y-109127000D01*
X185373000Y-110868545D01*
%TA.AperFunction,Conductor*%
D30*
G36*
X185373000Y-110868545D02*
G01*
X171054406Y-110374800D01*
X169806606Y-109127000D01*
X185373000Y-109127000D01*
X185373000Y-110868545D01*
G37*
%TD.AperFunction*%
%TD*%
D29*
%TO.N,GND*%
X189340000Y-149340000D02*
X109127000Y-149340000D01*
X109127000Y-134801553D01*
X109135000Y-134761335D01*
X109135000Y-134478665D01*
X109127000Y-134438447D01*
X109127000Y-134052606D01*
X109552606Y-133627000D01*
X111421510Y-133627000D01*
X111873000Y-134529980D01*
X111873000Y-146500000D01*
X111875440Y-146524776D01*
X111882667Y-146548601D01*
X111894403Y-146570557D01*
X111910197Y-146589803D01*
X112410197Y-147089803D01*
X112429443Y-147105597D01*
X112451399Y-147117333D01*
X112475224Y-147124560D01*
X112500000Y-147127000D01*
X141000000Y-147127000D01*
X141024776Y-147124560D01*
X141048601Y-147117333D01*
X141070557Y-147105597D01*
X141089803Y-147089803D01*
X141105597Y-147070557D01*
X141117333Y-147048601D01*
X141124560Y-147024776D01*
X141127000Y-147000000D01*
X141127000Y-142500000D01*
X141124560Y-142475224D01*
X141117333Y-142451399D01*
X141105597Y-142429443D01*
X141089803Y-142410197D01*
X141070447Y-142394330D01*
X139627000Y-141432032D01*
X139627000Y-134801553D01*
X139635000Y-134761335D01*
X139635000Y-134478665D01*
X139627000Y-134438447D01*
X139627000Y-134078490D01*
X140529980Y-133627000D01*
X144947394Y-133627000D01*
X148910197Y-137589803D01*
X148929443Y-137605597D01*
X148951399Y-137617333D01*
X148975224Y-137624560D01*
X149000000Y-137627000D01*
X156447394Y-137627000D01*
X157373000Y-138552606D01*
X157373000Y-146500000D01*
X157375440Y-146524776D01*
X157382667Y-146548601D01*
X157394403Y-146570557D01*
X157410197Y-146589803D01*
X157429443Y-146605597D01*
X157443204Y-146613592D01*
X158443204Y-147113592D01*
X158466456Y-147122490D01*
X158500000Y-147127000D01*
X175000000Y-147127000D01*
X175024776Y-147124560D01*
X175048601Y-147117333D01*
X175070557Y-147105597D01*
X175089803Y-147089803D01*
X178589803Y-143589803D01*
X178605597Y-143570557D01*
X178617333Y-143548601D01*
X178624560Y-143524776D01*
X178627000Y-143500000D01*
X178627000Y-134378363D01*
X178765000Y-134378363D01*
X178765000Y-134621637D01*
X178812460Y-134860236D01*
X178905557Y-135084992D01*
X179040713Y-135287267D01*
X179212733Y-135459287D01*
X179415008Y-135594443D01*
X179639764Y-135687540D01*
X179878363Y-135735000D01*
X180121637Y-135735000D01*
X180360236Y-135687540D01*
X180584992Y-135594443D01*
X180787267Y-135459287D01*
X180959287Y-135287267D01*
X181094443Y-135084992D01*
X181187540Y-134860236D01*
X181235000Y-134621637D01*
X181235000Y-134378363D01*
X181187540Y-134139764D01*
X181094443Y-133915008D01*
X180959287Y-133712733D01*
X180787267Y-133540713D01*
X180584992Y-133405557D01*
X180360236Y-133312460D01*
X180121637Y-133265000D01*
X179878363Y-133265000D01*
X179639764Y-133312460D01*
X179415008Y-133405557D01*
X179212733Y-133540713D01*
X179040713Y-133712733D01*
X178905557Y-133915008D01*
X178812460Y-134139764D01*
X178765000Y-134378363D01*
X178627000Y-134378363D01*
X178627000Y-132500000D01*
X178624560Y-132475224D01*
X178617333Y-132451399D01*
X178605597Y-132429443D01*
X178589803Y-132410197D01*
X175089803Y-128910197D01*
X175070557Y-128894403D01*
X175048601Y-128882667D01*
X175024776Y-128875440D01*
X175000000Y-128873000D01*
X174127000Y-128873000D01*
X174127000Y-122000000D01*
X174124560Y-121975224D01*
X174117333Y-121951399D01*
X174105597Y-121929443D01*
X174089803Y-121910197D01*
X174070557Y-121894403D01*
X174056796Y-121886408D01*
X173056796Y-121386408D01*
X173033544Y-121377510D01*
X173000000Y-121373000D01*
X171127000Y-121373000D01*
X171127000Y-115127000D01*
X189340000Y-115127000D01*
X189340000Y-149340000D01*
%TA.AperFunction,Conductor*%
D30*
G36*
X189340000Y-149340000D02*
G01*
X109127000Y-149340000D01*
X109127000Y-134801553D01*
X109135000Y-134761335D01*
X109135000Y-134478665D01*
X109127000Y-134438447D01*
X109127000Y-134052606D01*
X109552606Y-133627000D01*
X111421510Y-133627000D01*
X111873000Y-134529980D01*
X111873000Y-146500000D01*
X111875440Y-146524776D01*
X111882667Y-146548601D01*
X111894403Y-146570557D01*
X111910197Y-146589803D01*
X112410197Y-147089803D01*
X112429443Y-147105597D01*
X112451399Y-147117333D01*
X112475224Y-147124560D01*
X112500000Y-147127000D01*
X141000000Y-147127000D01*
X141024776Y-147124560D01*
X141048601Y-147117333D01*
X141070557Y-147105597D01*
X141089803Y-147089803D01*
X141105597Y-147070557D01*
X141117333Y-147048601D01*
X141124560Y-147024776D01*
X141127000Y-147000000D01*
X141127000Y-142500000D01*
X141124560Y-142475224D01*
X141117333Y-142451399D01*
X141105597Y-142429443D01*
X141089803Y-142410197D01*
X141070447Y-142394330D01*
X139627000Y-141432032D01*
X139627000Y-134801553D01*
X139635000Y-134761335D01*
X139635000Y-134478665D01*
X139627000Y-134438447D01*
X139627000Y-134078490D01*
X140529980Y-133627000D01*
X144947394Y-133627000D01*
X148910197Y-137589803D01*
X148929443Y-137605597D01*
X148951399Y-137617333D01*
X148975224Y-137624560D01*
X149000000Y-137627000D01*
X156447394Y-137627000D01*
X157373000Y-138552606D01*
X157373000Y-146500000D01*
X157375440Y-146524776D01*
X157382667Y-146548601D01*
X157394403Y-146570557D01*
X157410197Y-146589803D01*
X157429443Y-146605597D01*
X157443204Y-146613592D01*
X158443204Y-147113592D01*
X158466456Y-147122490D01*
X158500000Y-147127000D01*
X175000000Y-147127000D01*
X175024776Y-147124560D01*
X175048601Y-147117333D01*
X175070557Y-147105597D01*
X175089803Y-147089803D01*
X178589803Y-143589803D01*
X178605597Y-143570557D01*
X178617333Y-143548601D01*
X178624560Y-143524776D01*
X178627000Y-143500000D01*
X178627000Y-134378363D01*
X178765000Y-134378363D01*
X178765000Y-134621637D01*
X178812460Y-134860236D01*
X178905557Y-135084992D01*
X179040713Y-135287267D01*
X179212733Y-135459287D01*
X179415008Y-135594443D01*
X179639764Y-135687540D01*
X179878363Y-135735000D01*
X180121637Y-135735000D01*
X180360236Y-135687540D01*
X180584992Y-135594443D01*
X180787267Y-135459287D01*
X180959287Y-135287267D01*
X181094443Y-135084992D01*
X181187540Y-134860236D01*
X181235000Y-134621637D01*
X181235000Y-134378363D01*
X181187540Y-134139764D01*
X181094443Y-133915008D01*
X180959287Y-133712733D01*
X180787267Y-133540713D01*
X180584992Y-133405557D01*
X180360236Y-133312460D01*
X180121637Y-133265000D01*
X179878363Y-133265000D01*
X179639764Y-133312460D01*
X179415008Y-133405557D01*
X179212733Y-133540713D01*
X179040713Y-133712733D01*
X178905557Y-133915008D01*
X178812460Y-134139764D01*
X178765000Y-134378363D01*
X178627000Y-134378363D01*
X178627000Y-132500000D01*
X178624560Y-132475224D01*
X178617333Y-132451399D01*
X178605597Y-132429443D01*
X178589803Y-132410197D01*
X175089803Y-128910197D01*
X175070557Y-128894403D01*
X175048601Y-128882667D01*
X175024776Y-128875440D01*
X175000000Y-128873000D01*
X174127000Y-128873000D01*
X174127000Y-122000000D01*
X174124560Y-121975224D01*
X174117333Y-121951399D01*
X174105597Y-121929443D01*
X174089803Y-121910197D01*
X174070557Y-121894403D01*
X174056796Y-121886408D01*
X173056796Y-121386408D01*
X173033544Y-121377510D01*
X173000000Y-121373000D01*
X171127000Y-121373000D01*
X171127000Y-115127000D01*
X189340000Y-115127000D01*
X189340000Y-149340000D01*
G37*
%TD.AperFunction*%
%TD*%
D29*
%TO.N,GND*%
X52873000Y-119000000D02*
X52875440Y-119024776D01*
X52882667Y-119048601D01*
X52894403Y-119070557D01*
X52910197Y-119089803D01*
X52929443Y-119105597D01*
X52951399Y-119117333D01*
X52975224Y-119124560D01*
X53000000Y-119127000D01*
X53882431Y-119127000D01*
X53905820Y-119139502D01*
X54025518Y-119175812D01*
X54150000Y-119188072D01*
X55850000Y-119188072D01*
X55974482Y-119175812D01*
X56094180Y-119139502D01*
X56117569Y-119127000D01*
X81873000Y-119127000D01*
X81873000Y-123873000D01*
X67000000Y-123873000D01*
X66975224Y-123875440D01*
X66951399Y-123882667D01*
X66929443Y-123894403D01*
X66910197Y-123910197D01*
X61910197Y-128910197D01*
X61894403Y-128929443D01*
X61882667Y-128951399D01*
X61875440Y-128975224D01*
X61873000Y-129000000D01*
X61873000Y-133873000D01*
X59000000Y-133873000D01*
X58975224Y-133875440D01*
X58951399Y-133882667D01*
X58929443Y-133894403D01*
X58910197Y-133910197D01*
X58894403Y-133929443D01*
X58882667Y-133951399D01*
X58875440Y-133975224D01*
X58873000Y-134000000D01*
X58873000Y-134432431D01*
X58860498Y-134455820D01*
X58824188Y-134575518D01*
X58811928Y-134700000D01*
X58811928Y-136300000D01*
X58824188Y-136424482D01*
X58860498Y-136544180D01*
X58873000Y-136567569D01*
X58873000Y-138000000D01*
X58875440Y-138024776D01*
X58882667Y-138048601D01*
X58894403Y-138070557D01*
X58910197Y-138089803D01*
X58929443Y-138105597D01*
X58951399Y-138117333D01*
X58975224Y-138124560D01*
X59000000Y-138127000D01*
X62947394Y-138127000D01*
X65873000Y-141052606D01*
X65873000Y-144073610D01*
X65724010Y-144296589D01*
X65612068Y-144566842D01*
X65555000Y-144853740D01*
X65555000Y-145146260D01*
X65612068Y-145433158D01*
X65724010Y-145703411D01*
X65873000Y-145926390D01*
X65873000Y-147000000D01*
X65875440Y-147024776D01*
X65882667Y-147048601D01*
X65894403Y-147070557D01*
X65910197Y-147089803D01*
X65929443Y-147105597D01*
X65951399Y-147117333D01*
X65975224Y-147124560D01*
X66000000Y-147127000D01*
X75000000Y-147127000D01*
X75024776Y-147124560D01*
X75048601Y-147117333D01*
X75070557Y-147105597D01*
X75089803Y-147089803D01*
X75105597Y-147070557D01*
X75117333Y-147048601D01*
X75124560Y-147024776D01*
X75127000Y-147000000D01*
X75127000Y-143127000D01*
X109873000Y-143127000D01*
X109873000Y-149340000D01*
X50660000Y-149340000D01*
X50660000Y-103127000D01*
X52873000Y-103127000D01*
X52873000Y-119000000D01*
%TA.AperFunction,Conductor*%
D30*
G36*
X52873000Y-119000000D02*
G01*
X52875440Y-119024776D01*
X52882667Y-119048601D01*
X52894403Y-119070557D01*
X52910197Y-119089803D01*
X52929443Y-119105597D01*
X52951399Y-119117333D01*
X52975224Y-119124560D01*
X53000000Y-119127000D01*
X53882431Y-119127000D01*
X53905820Y-119139502D01*
X54025518Y-119175812D01*
X54150000Y-119188072D01*
X55850000Y-119188072D01*
X55974482Y-119175812D01*
X56094180Y-119139502D01*
X56117569Y-119127000D01*
X81873000Y-119127000D01*
X81873000Y-123873000D01*
X67000000Y-123873000D01*
X66975224Y-123875440D01*
X66951399Y-123882667D01*
X66929443Y-123894403D01*
X66910197Y-123910197D01*
X61910197Y-128910197D01*
X61894403Y-128929443D01*
X61882667Y-128951399D01*
X61875440Y-128975224D01*
X61873000Y-129000000D01*
X61873000Y-133873000D01*
X59000000Y-133873000D01*
X58975224Y-133875440D01*
X58951399Y-133882667D01*
X58929443Y-133894403D01*
X58910197Y-133910197D01*
X58894403Y-133929443D01*
X58882667Y-133951399D01*
X58875440Y-133975224D01*
X58873000Y-134000000D01*
X58873000Y-134432431D01*
X58860498Y-134455820D01*
X58824188Y-134575518D01*
X58811928Y-134700000D01*
X58811928Y-136300000D01*
X58824188Y-136424482D01*
X58860498Y-136544180D01*
X58873000Y-136567569D01*
X58873000Y-138000000D01*
X58875440Y-138024776D01*
X58882667Y-138048601D01*
X58894403Y-138070557D01*
X58910197Y-138089803D01*
X58929443Y-138105597D01*
X58951399Y-138117333D01*
X58975224Y-138124560D01*
X59000000Y-138127000D01*
X62947394Y-138127000D01*
X65873000Y-141052606D01*
X65873000Y-144073610D01*
X65724010Y-144296589D01*
X65612068Y-144566842D01*
X65555000Y-144853740D01*
X65555000Y-145146260D01*
X65612068Y-145433158D01*
X65724010Y-145703411D01*
X65873000Y-145926390D01*
X65873000Y-147000000D01*
X65875440Y-147024776D01*
X65882667Y-147048601D01*
X65894403Y-147070557D01*
X65910197Y-147089803D01*
X65929443Y-147105597D01*
X65951399Y-147117333D01*
X65975224Y-147124560D01*
X66000000Y-147127000D01*
X75000000Y-147127000D01*
X75024776Y-147124560D01*
X75048601Y-147117333D01*
X75070557Y-147105597D01*
X75089803Y-147089803D01*
X75105597Y-147070557D01*
X75117333Y-147048601D01*
X75124560Y-147024776D01*
X75127000Y-147000000D01*
X75127000Y-143127000D01*
X109873000Y-143127000D01*
X109873000Y-149340000D01*
X50660000Y-149340000D01*
X50660000Y-103127000D01*
X52873000Y-103127000D01*
X52873000Y-119000000D01*
G37*
%TD.AperFunction*%
%TD*%
D29*
%TO.N,GND*%
X61066996Y-66753398D02*
X60954637Y-66585241D01*
X60754759Y-66385363D01*
X60519727Y-66228320D01*
X60258574Y-66120147D01*
X59981335Y-66065000D01*
X59698665Y-66065000D01*
X59421426Y-66120147D01*
X59160273Y-66228320D01*
X58925241Y-66385363D01*
X58725363Y-66585241D01*
X58568320Y-66820273D01*
X58460147Y-67081426D01*
X58405000Y-67358665D01*
X58405000Y-67641335D01*
X58460147Y-67918574D01*
X58568320Y-68179727D01*
X58580000Y-68197208D01*
X58580001Y-69240393D01*
X54127000Y-73693394D01*
X54127000Y-57127000D01*
X70693394Y-57127000D01*
X61066996Y-66753398D01*
%TA.AperFunction,Conductor*%
D30*
G36*
X61066996Y-66753398D02*
G01*
X60954637Y-66585241D01*
X60754759Y-66385363D01*
X60519727Y-66228320D01*
X60258574Y-66120147D01*
X59981335Y-66065000D01*
X59698665Y-66065000D01*
X59421426Y-66120147D01*
X59160273Y-66228320D01*
X58925241Y-66385363D01*
X58725363Y-66585241D01*
X58568320Y-66820273D01*
X58460147Y-67081426D01*
X58405000Y-67358665D01*
X58405000Y-67641335D01*
X58460147Y-67918574D01*
X58568320Y-68179727D01*
X58580000Y-68197208D01*
X58580001Y-69240393D01*
X54127000Y-73693394D01*
X54127000Y-57127000D01*
X70693394Y-57127000D01*
X61066996Y-66753398D01*
G37*
%TD.AperFunction*%
%TD*%
M02*
