%TF.GenerationSoftware,KiCad,Pcbnew,(6.0.4-0)*%
%TF.CreationDate,2024-05-14T18:17:27+10:00*%
%TF.ProjectId,RS232,52533233-322e-46b6-9963-61645f706362,rev?*%
%TF.SameCoordinates,Original*%
%TF.FileFunction,Copper,L1,Top*%
%TF.FilePolarity,Positive*%
%FSLAX46Y46*%
G04 Gerber Fmt 4.6, Leading zero omitted, Abs format (unit mm)*
G04 Created by KiCad (PCBNEW (6.0.4-0)) date 2024-05-14 18:17:27*
%MOMM*%
%LPD*%
G01*
G04 APERTURE LIST*
G04 Aperture macros list*
%AMRoundRect*
0 Rectangle with rounded corners*
0 $1 Rounding radius*
0 $2 $3 $4 $5 $6 $7 $8 $9 X,Y pos of 4 corners*
0 Add a 4 corners polygon primitive as box body*
4,1,4,$2,$3,$4,$5,$6,$7,$8,$9,$2,$3,0*
0 Add four circle primitives for the rounded corners*
1,1,$1+$1,$2,$3*
1,1,$1+$1,$4,$5*
1,1,$1+$1,$6,$7*
1,1,$1+$1,$8,$9*
0 Add four rect primitives between the rounded corners*
20,1,$1+$1,$2,$3,$4,$5,0*
20,1,$1+$1,$4,$5,$6,$7,0*
20,1,$1+$1,$6,$7,$8,$9,0*
20,1,$1+$1,$8,$9,$2,$3,0*%
G04 Aperture macros list end*
%TA.AperFunction,ComponentPad*%
%ADD10R,1.600000X1.600000*%
%TD*%
%TA.AperFunction,ComponentPad*%
%ADD11C,1.600000*%
%TD*%
%TA.AperFunction,ComponentPad*%
%ADD12C,0.800000*%
%TD*%
%TA.AperFunction,ComponentPad*%
%ADD13C,6.400000*%
%TD*%
%TA.AperFunction,ComponentPad*%
%ADD14C,4.000000*%
%TD*%
%TA.AperFunction,ComponentPad*%
%ADD15O,1.600000X1.600000*%
%TD*%
%TA.AperFunction,ComponentPad*%
%ADD16R,1.800000X1.800000*%
%TD*%
%TA.AperFunction,ComponentPad*%
%ADD17C,1.800000*%
%TD*%
%TA.AperFunction,ComponentPad*%
%ADD18R,1.500000X1.500000*%
%TD*%
%TA.AperFunction,ComponentPad*%
%ADD19C,1.500000*%
%TD*%
%TA.AperFunction,ComponentPad*%
%ADD20RoundRect,0.249999X-0.620001X-0.845001X0.620001X-0.845001X0.620001X0.845001X-0.620001X0.845001X0*%
%TD*%
%TA.AperFunction,ComponentPad*%
%ADD21O,1.740000X2.190000*%
%TD*%
%TA.AperFunction,ComponentPad*%
%ADD22R,1.700000X1.700000*%
%TD*%
%TA.AperFunction,ComponentPad*%
%ADD23O,1.700000X1.700000*%
%TD*%
%TA.AperFunction,Conductor*%
%ADD24C,0.500000*%
%TD*%
G04 APERTURE END LIST*
D10*
%TO.P,C6,1*%
%TO.N,+5V*%
X57785000Y-116840000D03*
D11*
%TO.P,C6,2*%
%TO.N,GND*%
X57785000Y-114340000D03*
%TD*%
D10*
%TO.P,C8,1*%
%TO.N,+5V*%
X62400000Y-109382380D03*
D11*
%TO.P,C8,2*%
%TO.N,GND*%
X62400000Y-106882380D03*
%TD*%
D12*
%TO.P,H1,1,1*%
%TO.N,GND*%
X151697056Y-126302944D03*
D13*
X150000000Y-128000000D03*
D12*
X152400000Y-128000000D03*
X150000000Y-125600000D03*
X148302944Y-126302944D03*
X150000000Y-130400000D03*
X151697056Y-129697056D03*
X148302944Y-129697056D03*
X147600000Y-128000000D03*
%TD*%
%TO.P,H2,1,1*%
%TO.N,GND*%
X37400000Y-25000000D03*
X36697056Y-26697056D03*
X35000000Y-27400000D03*
X33302944Y-23302944D03*
X33302944Y-26697056D03*
D13*
X35000000Y-25000000D03*
D12*
X32600000Y-25000000D03*
X36697056Y-23302944D03*
X35000000Y-22600000D03*
%TD*%
%TO.P,H4,1,1*%
%TO.N,GND*%
X148302944Y-26697056D03*
X148302944Y-23302944D03*
X152400000Y-25000000D03*
X147600000Y-25000000D03*
X151697056Y-23302944D03*
X150000000Y-27400000D03*
D13*
X150000000Y-25000000D03*
D12*
X150000000Y-22600000D03*
X151697056Y-26697056D03*
%TD*%
D10*
%TO.P,C1,1*%
%TO.N,Net-(C1-Pad1)*%
X110645000Y-47950000D03*
D11*
%TO.P,C1,2*%
%TO.N,Net-(C1-Pad2)*%
X110645000Y-50450000D03*
%TD*%
D10*
%TO.P,C2,1*%
%TO.N,Net-(C2-Pad1)*%
X120980000Y-39755000D03*
D11*
%TO.P,C2,2*%
%TO.N,+5V*%
X123480000Y-39755000D03*
%TD*%
D10*
%TO.P,C4,1*%
%TO.N,Net-(C4-Pad1)*%
X110645000Y-54260000D03*
D11*
%TO.P,C4,2*%
%TO.N,Net-(C4-Pad2)*%
X110645000Y-56760000D03*
%TD*%
D14*
%TO.P,J1,0*%
%TO.N,N/C*%
X147180000Y-65815000D03*
X147180000Y-40815000D03*
D10*
%TO.P,J1,1,1*%
%TO.N,unconnected-(J1-Pad1)*%
X146880000Y-58855000D03*
D11*
%TO.P,J1,2,2*%
%TO.N,RX_D*%
X146880000Y-56085000D03*
%TO.P,J1,3,3*%
%TO.N,TX_D*%
X146880000Y-53315000D03*
%TO.P,J1,4,4*%
%TO.N,unconnected-(J1-Pad4)*%
X146880000Y-50545000D03*
%TO.P,J1,5,5*%
%TO.N,GND*%
X146880000Y-47775000D03*
%TO.P,J1,6,6*%
%TO.N,unconnected-(J1-Pad6)*%
X149720000Y-57470000D03*
%TO.P,J1,7,7*%
%TO.N,RTS*%
X149720000Y-54700000D03*
%TO.P,J1,8,8*%
%TO.N,CTS*%
X149720000Y-51930000D03*
%TO.P,J1,9,9*%
%TO.N,unconnected-(J1-Pad9)*%
X149720000Y-49160000D03*
%TD*%
D10*
%TO.P,U1,1,C1+*%
%TO.N,Net-(C1-Pad1)*%
X117630000Y-46640000D03*
D15*
%TO.P,U1,2,VS+*%
%TO.N,Net-(C2-Pad1)*%
X117630000Y-49180000D03*
%TO.P,U1,3,C1-*%
%TO.N,Net-(C1-Pad2)*%
X117630000Y-51720000D03*
%TO.P,U1,4,C2+*%
%TO.N,Net-(C4-Pad1)*%
X117630000Y-54260000D03*
%TO.P,U1,5,C2-*%
%TO.N,Net-(C4-Pad2)*%
X117630000Y-56800000D03*
%TO.P,U1,6,VS-*%
%TO.N,Net-(C3-Pad1)*%
X117630000Y-59340000D03*
%TO.P,U1,7,T2OUT*%
%TO.N,CTS*%
X117630000Y-61880000D03*
%TO.P,U1,8,R2IN*%
%TO.N,RTS*%
X117630000Y-64420000D03*
%TO.P,U1,9,R2OUT*%
%TO.N,unconnected-(U1-Pad9)*%
X125250000Y-64420000D03*
%TO.P,U1,10,T2IN*%
%TO.N,unconnected-(U1-Pad10)*%
X125250000Y-61880000D03*
%TO.P,U1,11,T1IN*%
%TO.N,TX*%
X125250000Y-59340000D03*
%TO.P,U1,12,R1OUT*%
%TO.N,RX*%
X125250000Y-56800000D03*
%TO.P,U1,13,R1IN*%
%TO.N,RX_D*%
X125250000Y-54260000D03*
%TO.P,U1,14,T1OUT*%
%TO.N,TX_D*%
X125250000Y-51720000D03*
%TO.P,U1,15,GND*%
%TO.N,GND*%
X125250000Y-49180000D03*
%TO.P,U1,16,VCC*%
%TO.N,+5V*%
X125250000Y-46640000D03*
%TD*%
D10*
%TO.P,C3,1*%
%TO.N,Net-(C3-Pad1)*%
X110645000Y-60610000D03*
D11*
%TO.P,C3,2*%
%TO.N,GND*%
X110645000Y-63110000D03*
%TD*%
D16*
%TO.P,D1,1,K*%
%TO.N,Net-(D1-Pad1)*%
X150015000Y-108870000D03*
D17*
%TO.P,D1,2,A*%
%TO.N,+5V*%
X150015000Y-106330000D03*
%TD*%
D16*
%TO.P,D3,1,K*%
%TO.N,Net-(D3-Pad1)*%
X150015000Y-99980000D03*
D17*
%TO.P,D3,2,A*%
%TO.N,+5V*%
X150015000Y-97440000D03*
%TD*%
D18*
%TO.P,Q1,1,C*%
%TO.N,Net-(Q1-Pad1)*%
X129060000Y-108870000D03*
D19*
%TO.P,Q1,2,B*%
%TO.N,Net-(Q1-Pad2)*%
X126520000Y-108870000D03*
%TO.P,Q1,3,E*%
%TO.N,GND*%
X123980000Y-108870000D03*
%TD*%
D18*
%TO.P,Q2,1,C*%
%TO.N,Net-(Q2-Pad1)*%
X129060000Y-97440000D03*
D19*
%TO.P,Q2,2,B*%
%TO.N,Net-(Q2-Pad2)*%
X126520000Y-97440000D03*
%TO.P,Q2,3,E*%
%TO.N,GND*%
X123980000Y-97440000D03*
%TD*%
D11*
%TO.P,R1,1*%
%TO.N,Net-(Q2-Pad1)*%
X136045000Y-99980000D03*
D15*
%TO.P,R1,2*%
%TO.N,Net-(D3-Pad1)*%
X146205000Y-99980000D03*
%TD*%
D11*
%TO.P,R2,1*%
%TO.N,TX*%
X116360000Y-103790000D03*
D15*
%TO.P,R2,2*%
%TO.N,Net-(Q1-Pad2)*%
X126520000Y-103790000D03*
%TD*%
D11*
%TO.P,R3,1*%
%TO.N,RX*%
X136680000Y-89820000D03*
D15*
%TO.P,R3,2*%
%TO.N,Net-(Q2-Pad2)*%
X126520000Y-89820000D03*
%TD*%
D11*
%TO.P,R10,1*%
%TO.N,Net-(Q1-Pad1)*%
X136045000Y-108870000D03*
D15*
%TO.P,R10,2*%
%TO.N,Net-(D1-Pad1)*%
X146205000Y-108870000D03*
%TD*%
D20*
%TO.P,J10,1,Pin_1*%
%TO.N,I_rst*%
X75400000Y-116840000D03*
D21*
%TO.P,J10,2,Pin_2*%
%TO.N,I_flag*%
X77940000Y-116840000D03*
%TO.P,J10,3,Pin_3*%
%TO.N,GND*%
X80480000Y-116840000D03*
%TO.P,J10,4,Pin_4*%
%TO.N,I_data*%
X83020000Y-116840000D03*
%TO.P,J10,5,Pin_5*%
%TO.N,I_clock*%
X85560000Y-116840000D03*
%TO.P,J10,6,Pin_6*%
%TO.N,+5V*%
X88100000Y-116840000D03*
%TD*%
D20*
%TO.P,J11,1,Pin_1*%
%TO.N,rst*%
X75400000Y-33800000D03*
D21*
%TO.P,J11,2,Pin_2*%
%TO.N,flag*%
X77940000Y-33800000D03*
%TO.P,J11,3,Pin_3*%
%TO.N,GND*%
X80480000Y-33800000D03*
%TO.P,J11,4,Pin_4*%
%TO.N,data*%
X83020000Y-33800000D03*
%TO.P,J11,5,Pin_5*%
%TO.N,clock*%
X85560000Y-33800000D03*
%TO.P,J11,6,Pin_6*%
%TO.N,+5V*%
X88100000Y-33800000D03*
%TD*%
D12*
%TO.P,H3,1,1*%
%TO.N,GND*%
X35000000Y-130400000D03*
X33302944Y-129697056D03*
X35000000Y-125600000D03*
X32600000Y-128000000D03*
X33302944Y-126302944D03*
D13*
X35000000Y-128000000D03*
D12*
X36697056Y-126302944D03*
X37400000Y-128000000D03*
X36697056Y-129697056D03*
%TD*%
D22*
%TO.P,J6,1,Pin_1*%
%TO.N,GND*%
X50000000Y-128000000D03*
D23*
%TO.P,J6,2,Pin_2*%
X52540000Y-128000000D03*
%TO.P,J6,3,Pin_3*%
%TO.N,+5V*%
X55080000Y-128000000D03*
%TO.P,J6,4,Pin_4*%
X57620000Y-128000000D03*
%TD*%
D22*
%TO.P,J7,1,Pin_1*%
%TO.N,I_clock*%
X83000000Y-128000000D03*
D23*
%TO.P,J7,2,Pin_2*%
%TO.N,I_data*%
X80460000Y-128000000D03*
%TO.P,J7,3,Pin_3*%
%TO.N,I_flag*%
X77920000Y-128000000D03*
%TO.P,J7,4,Pin_4*%
%TO.N,I_rst*%
X75380000Y-128000000D03*
%TD*%
D22*
%TO.P,J9,1,Pin_1*%
%TO.N,clock*%
X83000000Y-25000000D03*
D23*
%TO.P,J9,2,Pin_2*%
%TO.N,data*%
X80460000Y-25000000D03*
%TO.P,J9,3,Pin_3*%
%TO.N,flag*%
X77920000Y-25000000D03*
%TO.P,J9,4,Pin_4*%
%TO.N,rst*%
X75380000Y-25000000D03*
%TD*%
D22*
%TO.P,J5,1,Pin_1*%
%TO.N,TX*%
X150015000Y-82000000D03*
D23*
%TO.P,J5,2,Pin_2*%
%TO.N,GND*%
X150015000Y-84540000D03*
%TO.P,J5,3,Pin_3*%
X150015000Y-87080000D03*
%TO.P,J5,4,Pin_4*%
%TO.N,RX*%
X150015000Y-89620000D03*
%TD*%
D24*
%TO.N,RX*%
X147910000Y-89620000D02*
X123345000Y-65055000D01*
X123980000Y-56800000D02*
X125250000Y-56800000D01*
X150015000Y-89620000D02*
X147910000Y-89620000D01*
X123345000Y-65055000D02*
X123345000Y-57435000D01*
X123345000Y-57435000D02*
X123980000Y-56800000D01*
%TO.N,TX*%
X127155000Y-59340000D02*
X125250000Y-59340000D01*
X149815000Y-82000000D02*
X127155000Y-59340000D01*
X150015000Y-82000000D02*
X149815000Y-82000000D01*
%TD*%
M02*
