  0
SECTION
  2
HEADER
  9
$ANGBASE
  50
0.0
  9
$ANGDIR
  70
1
  9
$MEASUREMENT
  70
0
  0
ENDSEC
  0
SECTION
  2
TABLES
  0
TABLE
  2
LTYPE
  70
4
  0
LTYPE
  5
40F
  2
CONTINUOUS
  70
0
  3
Solid line
  72
65
  73
0
  40
0.0
  0
LTYPE
  5
410
  2
DASHDOT
 70
0
  3
Dash Dot ____ _ ____ _
 72
65
 73
4
 40
2.0
 49
1.25
 49
-0.25
 49
0.25
 49
-0.25
  0
LTYPE
  5
411
  2
DASHED
 70
0
  3
Dashed __ __ __ __ __
 72
65
 73
2
 40
0.75
 49
0.5
 49
-0.25
  0
LTYPE
  5
43B
  2
DOTTED
 70
0
  3
Dotted .  .  .  .
 72
65
 73
2
 40
0.2
 49
0.0
 49
-0.2
  0
ENDTAB
  0
TABLE
  2
STYLE
  70
4
  0
STYLE
  2
KICAD
  70
0
  40
0
  41
1
  42
1
  50
0
  71
0
  3
isocp.shx
  0
STYLE
  2
KICADB
  70
0
  40
0
  41
1
  42
1
  50
0
  71
0
  3
isocp.shx
  0
STYLE
  2
KICADI
  70
0
  40
0
  41
1
  42
1
  50
15
  71
0
  3
isocp.shx
  0
STYLE
  2
KICADBI
  70
0
  40
0
  41
1
  42
1
  50
15
  71
0
  3
isocp.shx
  0
ENDTAB
  0
TABLE
  2
LAYER
  70
1
  0
LAYER
  2
BLACK
  70
0
  62
7
  6
CONTINUOUS
  0
ENDTAB
  0
ENDSEC
  0
SECTION
  2
ENTITIES
0
LINE
8
BLACK
6
CONTINUOUS
10
2.16535
20
-1.53543
11
2.16535
21
-3.26772
0
LINE
8
BLACK
6
CONTINUOUS
10
1.1811
20
-1.53543
11
2.16535
21
-1.53543
0
LINE
8
BLACK
6
CONTINUOUS
10
1.1811
20
-1.29921
11
1.1811
21
-1.53543
0
LINE
8
BLACK
6
CONTINUOUS
10
1.1811
20
-1.29921
11
1.1811
21
-0.787402
0
LINE
8
BLACK
6
CONTINUOUS
10
1.1811
20
-3.26772
11
2.16535
21
-3.26772
0
LINE
8
BLACK
6
CONTINUOUS
10
1.1811
20
-5.23622
11
1.1811
21
-3.26772
0
LINE
8
BLACK
6
CONTINUOUS
10
6.10236
20
-5.23622
11
1.1811
21
-5.23622
0
LINE
8
BLACK
6
CONTINUOUS
10
6.10236
20
-0.787402
11
6.10236
21
-5.23622
0
LINE
8
BLACK
6
CONTINUOUS
10
1.1811
20
-0.787402
11
6.10236
21
-0.787402
0
LINE
8
BLACK
6
CONTINUOUS
10
1.29289
20
-5.42056
11
1.29289
21
-5.30245
0
LINE
8
BLACK
6
CONTINUOUS
10
1.29289
20
-5.30245
11
1.32101
21
-5.30245
0
LINE
8
BLACK
6
CONTINUOUS
10
1.32101
20
-5.30245
11
1.33788
21
-5.30807
0
LINE
8
BLACK
6
CONTINUOUS
10
1.33788
20
-5.30807
11
1.34913
21
-5.31932
0
LINE
8
BLACK
6
CONTINUOUS
10
1.34913
20
-5.31932
11
1.35475
21
-5.33057
0
LINE
8
BLACK
6
CONTINUOUS
10
1.35475
20
-5.33057
11
1.36038
21
-5.35307
0
LINE
8
BLACK
6
CONTINUOUS
10
1.36038
20
-5.35307
11
1.36038
21
-5.36994
0
LINE
8
BLACK
6
CONTINUOUS
10
1.36038
20
-5.36994
11
1.35475
21
-5.39244
0
LINE
8
BLACK
6
CONTINUOUS
10
1.35475
20
-5.39244
11
1.34913
21
-5.40368
0
LINE
8
BLACK
6
CONTINUOUS
10
1.34913
20
-5.40368
11
1.33788
21
-5.41493
0
LINE
8
BLACK
6
CONTINUOUS
10
1.33788
20
-5.41493
11
1.32101
21
-5.42056
0
LINE
8
BLACK
6
CONTINUOUS
10
1.32101
20
-5.42056
11
1.29289
21
-5.42056
0
LINE
8
BLACK
6
CONTINUOUS
10
1.411
20
-5.42056
11
1.411
21
-5.34182
0
LINE
8
BLACK
6
CONTINUOUS
10
1.411
20
-5.36431
11
1.41662
21
-5.35307
0
LINE
8
BLACK
6
CONTINUOUS
10
1.41662
20
-5.35307
11
1.42224
21
-5.34744
0
LINE
8
BLACK
6
CONTINUOUS
10
1.42224
20
-5.34744
11
1.43349
21
-5.34182
0
LINE
8
BLACK
6
CONTINUOUS
10
1.43349
20
-5.34182
11
1.44474
21
-5.34182
0
LINE
8
BLACK
6
CONTINUOUS
10
1.48411
20
-5.42056
11
1.48411
21
-5.34182
0
LINE
8
BLACK
6
CONTINUOUS
10
1.48411
20
-5.30245
11
1.47849
21
-5.30807
0
LINE
8
BLACK
6
CONTINUOUS
10
1.47849
20
-5.30807
11
1.48411
21
-5.3137
0
LINE
8
BLACK
6
CONTINUOUS
10
1.48411
20
-5.3137
11
1.48974
21
-5.30807
0
LINE
8
BLACK
6
CONTINUOUS
10
1.48974
20
-5.30807
11
1.48411
21
-5.30245
0
LINE
8
BLACK
6
CONTINUOUS
10
1.48411
20
-5.30245
11
1.48411
21
-5.3137
0
LINE
8
BLACK
6
CONTINUOUS
10
1.55723
20
-5.42056
11
1.54598
21
-5.41493
0
LINE
8
BLACK
6
CONTINUOUS
10
1.54598
20
-5.41493
11
1.54035
21
-5.40368
0
LINE
8
BLACK
6
CONTINUOUS
10
1.54035
20
-5.40368
11
1.54035
21
-5.30245
0
LINE
8
BLACK
6
CONTINUOUS
10
1.61909
20
-5.42056
11
1.60785
21
-5.41493
0
LINE
8
BLACK
6
CONTINUOUS
10
1.60785
20
-5.41493
11
1.60222
21
-5.40368
0
LINE
8
BLACK
6
CONTINUOUS
10
1.60222
20
-5.40368
11
1.60222
21
-5.30245
0
LINE
8
BLACK
6
CONTINUOUS
10
1.75408
20
-5.42056
11
1.75408
21
-5.30245
0
LINE
8
BLACK
6
CONTINUOUS
10
1.75408
20
-5.30245
11
1.79345
21
-5.38681
0
LINE
8
BLACK
6
CONTINUOUS
10
1.79345
20
-5.38681
11
1.83282
21
-5.30245
0
LINE
8
BLACK
6
CONTINUOUS
10
1.83282
20
-5.30245
11
1.83282
21
-5.42056
0
LINE
8
BLACK
6
CONTINUOUS
10
1.93968
20
-5.42056
11
1.93968
21
-5.35869
0
LINE
8
BLACK
6
CONTINUOUS
10
1.93968
20
-5.35869
11
1.93406
21
-5.34744
0
LINE
8
BLACK
6
CONTINUOUS
10
1.93406
20
-5.34744
11
1.92281
21
-5.34182
0
LINE
8
BLACK
6
CONTINUOUS
10
1.92281
20
-5.34182
11
1.90031
21
-5.34182
0
LINE
8
BLACK
6
CONTINUOUS
10
1.90031
20
-5.34182
11
1.88906
21
-5.34744
0
LINE
8
BLACK
6
CONTINUOUS
10
1.93968
20
-5.41493
11
1.92843
21
-5.42056
0
LINE
8
BLACK
6
CONTINUOUS
10
1.92843
20
-5.42056
11
1.90031
21
-5.42056
0
LINE
8
BLACK
6
CONTINUOUS
10
1.90031
20
-5.42056
11
1.88906
21
-5.41493
0
LINE
8
BLACK
6
CONTINUOUS
10
1.88906
20
-5.41493
11
1.88344
21
-5.40368
0
LINE
8
BLACK
6
CONTINUOUS
10
1.88344
20
-5.40368
11
1.88344
21
-5.39244
0
LINE
8
BLACK
6
CONTINUOUS
10
1.88344
20
-5.39244
11
1.88906
21
-5.38119
0
LINE
8
BLACK
6
CONTINUOUS
10
1.88906
20
-5.38119
11
1.90031
21
-5.37556
0
LINE
8
BLACK
6
CONTINUOUS
10
1.90031
20
-5.37556
11
1.92843
21
-5.37556
0
LINE
8
BLACK
6
CONTINUOUS
10
1.92843
20
-5.37556
11
1.93968
21
-5.36994
0
LINE
8
BLACK
6
CONTINUOUS
10
1.99592
20
-5.34182
11
1.99592
21
-5.45993
0
LINE
8
BLACK
6
CONTINUOUS
10
1.99592
20
-5.34744
11
2.00717
21
-5.34182
0
LINE
8
BLACK
6
CONTINUOUS
10
2.00717
20
-5.34182
11
2.02967
21
-5.34182
0
LINE
8
BLACK
6
CONTINUOUS
10
2.02967
20
-5.34182
11
2.04092
21
-5.34744
0
LINE
8
BLACK
6
CONTINUOUS
10
2.04092
20
-5.34744
11
2.04654
21
-5.35307
0
LINE
8
BLACK
6
CONTINUOUS
10
2.04654
20
-5.35307
11
2.05217
21
-5.36431
0
LINE
8
BLACK
6
CONTINUOUS
10
2.05217
20
-5.36431
11
2.05217
21
-5.39806
0
LINE
8
BLACK
6
CONTINUOUS
10
2.05217
20
-5.39806
11
2.04654
21
-5.40931
0
LINE
8
BLACK
6
CONTINUOUS
10
2.04654
20
-5.40931
11
2.04092
21
-5.41493
0
LINE
8
BLACK
6
CONTINUOUS
10
2.04092
20
-5.41493
11
2.02967
21
-5.42056
0
LINE
8
BLACK
6
CONTINUOUS
10
2.02967
20
-5.42056
11
2.00717
21
-5.42056
0
LINE
8
BLACK
6
CONTINUOUS
10
2.00717
20
-5.42056
11
1.99592
21
-5.41493
0
LINE
8
BLACK
6
CONTINUOUS
10
2.10278
20
-5.40931
11
2.10841
21
-5.41493
0
LINE
8
BLACK
6
CONTINUOUS
10
2.10841
20
-5.41493
11
2.10278
21
-5.42056
0
LINE
8
BLACK
6
CONTINUOUS
10
2.10278
20
-5.42056
11
2.09716
21
-5.41493
0
LINE
8
BLACK
6
CONTINUOUS
10
2.09716
20
-5.41493
11
2.10278
21
-5.40931
0
LINE
8
BLACK
6
CONTINUOUS
10
2.10278
20
-5.40931
11
2.10278
21
-5.42056
0
LINE
8
BLACK
6
CONTINUOUS
10
2.10278
20
-5.34744
11
2.10841
21
-5.35307
0
LINE
8
BLACK
6
CONTINUOUS
10
2.10841
20
-5.35307
11
2.10278
21
-5.35869
0
LINE
8
BLACK
6
CONTINUOUS
10
2.10278
20
-5.35869
11
2.09716
21
-5.35307
0
LINE
8
BLACK
6
CONTINUOUS
10
2.09716
20
-5.35307
11
2.10278
21
-5.34744
0
LINE
8
BLACK
6
CONTINUOUS
10
2.10278
20
-5.34744
11
2.10278
21
-5.35869
  0
ENDSEC
  0
EOF
