%TF.GenerationSoftware,KiCad,Pcbnew,(6.0.4-0)*%
%TF.CreationDate,2024-05-14T18:17:28+10:00*%
%TF.ProjectId,RS232,52533233-322e-46b6-9963-61645f706362,rev?*%
%TF.SameCoordinates,Original*%
%TF.FileFunction,Soldermask,Bot*%
%TF.FilePolarity,Negative*%
%FSLAX46Y46*%
G04 Gerber Fmt 4.6, Leading zero omitted, Abs format (unit mm)*
G04 Created by KiCad (PCBNEW (6.0.4-0)) date 2024-05-14 18:17:28*
%MOMM*%
%LPD*%
G01*
G04 APERTURE LIST*
G04 Aperture macros list*
%AMRoundRect*
0 Rectangle with rounded corners*
0 $1 Rounding radius*
0 $2 $3 $4 $5 $6 $7 $8 $9 X,Y pos of 4 corners*
0 Add a 4 corners polygon primitive as box body*
4,1,4,$2,$3,$4,$5,$6,$7,$8,$9,$2,$3,0*
0 Add four circle primitives for the rounded corners*
1,1,$1+$1,$2,$3*
1,1,$1+$1,$4,$5*
1,1,$1+$1,$6,$7*
1,1,$1+$1,$8,$9*
0 Add four rect primitives between the rounded corners*
20,1,$1+$1,$2,$3,$4,$5,0*
20,1,$1+$1,$4,$5,$6,$7,0*
20,1,$1+$1,$6,$7,$8,$9,0*
20,1,$1+$1,$8,$9,$2,$3,0*%
G04 Aperture macros list end*
%ADD10R,1.600000X1.600000*%
%ADD11C,1.600000*%
%ADD12C,0.800000*%
%ADD13C,6.400000*%
%ADD14C,4.000000*%
%ADD15O,1.600000X1.600000*%
%ADD16R,1.800000X1.800000*%
%ADD17C,1.800000*%
%ADD18R,1.500000X1.500000*%
%ADD19C,1.500000*%
%ADD20RoundRect,0.249999X-0.620001X-0.845001X0.620001X-0.845001X0.620001X0.845001X-0.620001X0.845001X0*%
%ADD21O,1.740000X2.190000*%
%ADD22R,1.700000X1.700000*%
%ADD23O,1.700000X1.700000*%
G04 APERTURE END LIST*
D10*
%TO.C,C6*%
X57785000Y-116840000D03*
D11*
X57785000Y-114340000D03*
%TD*%
D10*
%TO.C,C8*%
X62400000Y-109382380D03*
D11*
X62400000Y-106882380D03*
%TD*%
D12*
%TO.C,H1*%
X151697056Y-126302944D03*
D13*
X150000000Y-128000000D03*
D12*
X152400000Y-128000000D03*
X150000000Y-125600000D03*
X148302944Y-126302944D03*
X150000000Y-130400000D03*
X151697056Y-129697056D03*
X148302944Y-129697056D03*
X147600000Y-128000000D03*
%TD*%
%TO.C,H2*%
X37400000Y-25000000D03*
X36697056Y-26697056D03*
X35000000Y-27400000D03*
X33302944Y-23302944D03*
X33302944Y-26697056D03*
D13*
X35000000Y-25000000D03*
D12*
X32600000Y-25000000D03*
X36697056Y-23302944D03*
X35000000Y-22600000D03*
%TD*%
%TO.C,H4*%
X148302944Y-26697056D03*
X148302944Y-23302944D03*
X152400000Y-25000000D03*
X147600000Y-25000000D03*
X151697056Y-23302944D03*
X150000000Y-27400000D03*
D13*
X150000000Y-25000000D03*
D12*
X150000000Y-22600000D03*
X151697056Y-26697056D03*
%TD*%
D10*
%TO.C,C1*%
X110645000Y-47950000D03*
D11*
X110645000Y-50450000D03*
%TD*%
D10*
%TO.C,C2*%
X120980000Y-39755000D03*
D11*
X123480000Y-39755000D03*
%TD*%
D10*
%TO.C,C4*%
X110645000Y-54260000D03*
D11*
X110645000Y-56760000D03*
%TD*%
D14*
%TO.C,J1*%
X147180000Y-65815000D03*
X147180000Y-40815000D03*
D10*
X146880000Y-58855000D03*
D11*
X146880000Y-56085000D03*
X146880000Y-53315000D03*
X146880000Y-50545000D03*
X146880000Y-47775000D03*
X149720000Y-57470000D03*
X149720000Y-54700000D03*
X149720000Y-51930000D03*
X149720000Y-49160000D03*
%TD*%
D10*
%TO.C,U1*%
X117630000Y-46640000D03*
D15*
X117630000Y-49180000D03*
X117630000Y-51720000D03*
X117630000Y-54260000D03*
X117630000Y-56800000D03*
X117630000Y-59340000D03*
X117630000Y-61880000D03*
X117630000Y-64420000D03*
X125250000Y-64420000D03*
X125250000Y-61880000D03*
X125250000Y-59340000D03*
X125250000Y-56800000D03*
X125250000Y-54260000D03*
X125250000Y-51720000D03*
X125250000Y-49180000D03*
X125250000Y-46640000D03*
%TD*%
D10*
%TO.C,C3*%
X110645000Y-60610000D03*
D11*
X110645000Y-63110000D03*
%TD*%
D16*
%TO.C,D1*%
X150015000Y-108870000D03*
D17*
X150015000Y-106330000D03*
%TD*%
D16*
%TO.C,D3*%
X150015000Y-99980000D03*
D17*
X150015000Y-97440000D03*
%TD*%
D18*
%TO.C,Q1*%
X129060000Y-108870000D03*
D19*
X126520000Y-108870000D03*
X123980000Y-108870000D03*
%TD*%
D18*
%TO.C,Q2*%
X129060000Y-97440000D03*
D19*
X126520000Y-97440000D03*
X123980000Y-97440000D03*
%TD*%
D11*
%TO.C,R1*%
X136045000Y-99980000D03*
D15*
X146205000Y-99980000D03*
%TD*%
D11*
%TO.C,R2*%
X116360000Y-103790000D03*
D15*
X126520000Y-103790000D03*
%TD*%
D11*
%TO.C,R3*%
X136680000Y-89820000D03*
D15*
X126520000Y-89820000D03*
%TD*%
D11*
%TO.C,R10*%
X136045000Y-108870000D03*
D15*
X146205000Y-108870000D03*
%TD*%
D20*
%TO.C,J10*%
X75400000Y-116840000D03*
D21*
X77940000Y-116840000D03*
X80480000Y-116840000D03*
X83020000Y-116840000D03*
X85560000Y-116840000D03*
X88100000Y-116840000D03*
%TD*%
D20*
%TO.C,J11*%
X75400000Y-33800000D03*
D21*
X77940000Y-33800000D03*
X80480000Y-33800000D03*
X83020000Y-33800000D03*
X85560000Y-33800000D03*
X88100000Y-33800000D03*
%TD*%
D12*
%TO.C,H3*%
X35000000Y-130400000D03*
X33302944Y-129697056D03*
X35000000Y-125600000D03*
X32600000Y-128000000D03*
X33302944Y-126302944D03*
D13*
X35000000Y-128000000D03*
D12*
X36697056Y-126302944D03*
X37400000Y-128000000D03*
X36697056Y-129697056D03*
%TD*%
D22*
%TO.C,J6*%
X50000000Y-128000000D03*
D23*
X52540000Y-128000000D03*
X55080000Y-128000000D03*
X57620000Y-128000000D03*
%TD*%
D22*
%TO.C,J7*%
X83000000Y-128000000D03*
D23*
X80460000Y-128000000D03*
X77920000Y-128000000D03*
X75380000Y-128000000D03*
%TD*%
D22*
%TO.C,J9*%
X83000000Y-25000000D03*
D23*
X80460000Y-25000000D03*
X77920000Y-25000000D03*
X75380000Y-25000000D03*
%TD*%
D22*
%TO.C,J5*%
X150015000Y-82000000D03*
D23*
X150015000Y-84540000D03*
X150015000Y-87080000D03*
X150015000Y-89620000D03*
%TD*%
M02*
