  0
SECTION
  2
HEADER
  9
$ANGBASE
  50
0.0
  9
$ANGDIR
  70
1
  9
$MEASUREMENT
  70
0
  0
ENDSEC
  0
SECTION
  2
TABLES
  0
TABLE
  2
LTYPE
  70
4
  0
LTYPE
  5
40F
  2
CONTINUOUS
  70
0
  3
Solid line
  72
65
  73
0
  40
0.0
  0
LTYPE
  5
410
  2
DASHDOT
 70
0
  3
Dash Dot ____ _ ____ _
 72
65
 73
4
 40
2.0
 49
1.25
 49
-0.25
 49
0.25
 49
-0.25
  0
LTYPE
  5
411
  2
DASHED
 70
0
  3
Dashed __ __ __ __ __
 72
65
 73
2
 40
0.75
 49
0.5
 49
-0.25
  0
LTYPE
  5
43B
  2
DOTTED
 70
0
  3
Dotted .  .  .  .
 72
65
 73
2
 40
0.2
 49
0.0
 49
-0.2
  0
ENDTAB
  0
TABLE
  2
STYLE
  70
4
  0
STYLE
  2
KICAD
  70
0
  40
0
  41
1
  42
1
  50
0
  71
0
  3
isocp.shx
  0
STYLE
  2
KICADB
  70
0
  40
0
  41
1
  42
1
  50
0
  71
0
  3
isocp.shx
  0
STYLE
  2
KICADI
  70
0
  40
0
  41
1
  42
1
  50
15
  71
0
  3
isocp.shx
  0
STYLE
  2
KICADBI
  70
0
  40
0
  41
1
  42
1
  50
15
  71
0
  3
isocp.shx
  0
ENDTAB
  0
TABLE
  2
LAYER
  70
1
  0
LAYER
  2
BLACK
  70
0
  62
7
  6
CONTINUOUS
  0
ENDTAB
  0
ENDSEC
  0
SECTION
  2
ENTITIES
0
LINE
8
BLACK
6
CONTINUOUS
10
1.5748
20
-1.85039
11
1.5748
21
-6.29921
0
LINE
8
BLACK
6
CONTINUOUS
10
6.49606
20
-1.85039
11
1.5748
21
-1.85039
0
LINE
8
BLACK
6
CONTINUOUS
10
6.49606
20
-6.29921
11
6.49606
21
-1.85039
0
LINE
8
BLACK
6
CONTINUOUS
10
1.5748
20
-6.29921
11
6.49606
21
-6.29921
0
LINE
8
BLACK
6
CONTINUOUS
10
1.66732
20
-2.0374
11
1.68701
21
-2.05709
0
LINE
8
BLACK
6
CONTINUOUS
10
1.68701
20
-2.0374
11
1.66732
21
-2.05709
0
LINE
8
BLACK
6
CONTINUOUS
10
1.66732
20
-6.09252
11
1.68701
21
-6.1122
0
LINE
8
BLACK
6
CONTINUOUS
10
1.68701
20
-6.09252
11
1.66732
21
-6.1122
0
LINE
8
BLACK
6
CONTINUOUS
10
1.695
20
-1.97059
11
1.71468
21
-1.99027
0
LINE
8
BLACK
6
CONTINUOUS
10
1.71468
20
-1.97059
11
1.695
21
-1.99027
0
LINE
8
BLACK
6
CONTINUOUS
10
1.695
20
-2.10421
11
1.71468
21
-2.1239
0
LINE
8
BLACK
6
CONTINUOUS
10
1.71468
20
-2.10421
11
1.695
21
-2.1239
0
LINE
8
BLACK
6
CONTINUOUS
10
1.695
20
-6.02571
11
1.71468
21
-6.04539
0
LINE
8
BLACK
6
CONTINUOUS
10
1.71468
20
-6.02571
11
1.695
21
-6.04539
0
LINE
8
BLACK
6
CONTINUOUS
10
1.695
20
-6.15933
11
1.71468
21
-6.17902
0
LINE
8
BLACK
6
CONTINUOUS
10
1.71468
20
-6.15933
11
1.695
21
-6.17902
0
LINE
8
BLACK
6
CONTINUOUS
10
1.76181
20
-1.94291
11
1.7815
21
-1.9626
0
LINE
8
BLACK
6
CONTINUOUS
10
1.7815
20
-1.94291
11
1.76181
21
-1.9626
0
LINE
8
BLACK
6
CONTINUOUS
10
1.76181
20
-2.13189
11
1.7815
21
-2.15157
0
LINE
8
BLACK
6
CONTINUOUS
10
1.7815
20
-2.13189
11
1.76181
21
-2.15157
0
LINE
8
BLACK
6
CONTINUOUS
10
1.76181
20
-5.99803
11
1.7815
21
-6.01772
0
LINE
8
BLACK
6
CONTINUOUS
10
1.7815
20
-5.99803
11
1.76181
21
-6.01772
0
LINE
8
BLACK
6
CONTINUOUS
10
1.76181
20
-6.18701
11
1.7815
21
-6.20669
0
LINE
8
BLACK
6
CONTINUOUS
10
1.7815
20
-6.18701
11
1.76181
21
-6.20669
0
LINE
8
BLACK
6
CONTINUOUS
10
1.82862
20
-1.97059
11
1.84831
21
-1.99027
0
LINE
8
BLACK
6
CONTINUOUS
10
1.84831
20
-1.97059
11
1.82862
21
-1.99027
0
LINE
8
BLACK
6
CONTINUOUS
10
1.82862
20
-2.10421
11
1.84831
21
-2.1239
0
LINE
8
BLACK
6
CONTINUOUS
10
1.84831
20
-2.10421
11
1.82862
21
-2.1239
0
LINE
8
BLACK
6
CONTINUOUS
10
1.82862
20
-6.02571
11
1.84831
21
-6.04539
0
LINE
8
BLACK
6
CONTINUOUS
10
1.84831
20
-6.02571
11
1.82862
21
-6.04539
0
LINE
8
BLACK
6
CONTINUOUS
10
1.82862
20
-6.15933
11
1.84831
21
-6.17902
0
LINE
8
BLACK
6
CONTINUOUS
10
1.84831
20
-6.15933
11
1.82862
21
-6.17902
0
LINE
8
BLACK
6
CONTINUOUS
10
1.8563
20
-2.0374
11
1.87598
21
-2.05709
0
LINE
8
BLACK
6
CONTINUOUS
10
1.87598
20
-2.0374
11
1.8563
21
-2.05709
0
LINE
8
BLACK
6
CONTINUOUS
10
1.8563
20
-6.09252
11
1.87598
21
-6.1122
0
LINE
8
BLACK
6
CONTINUOUS
10
1.87598
20
-6.09252
11
1.8563
21
-6.1122
0
LINE
8
BLACK
6
CONTINUOUS
10
6.19488
20
-2.0374
11
6.21457
21
-2.05709
0
LINE
8
BLACK
6
CONTINUOUS
10
6.21457
20
-2.0374
11
6.19488
21
-2.05709
0
LINE
8
BLACK
6
CONTINUOUS
10
6.19488
20
-6.09252
11
6.21457
21
-6.1122
0
LINE
8
BLACK
6
CONTINUOUS
10
6.21457
20
-6.09252
11
6.19488
21
-6.1122
0
LINE
8
BLACK
6
CONTINUOUS
10
6.22256
20
-1.97059
11
6.24224
21
-1.99027
0
LINE
8
BLACK
6
CONTINUOUS
10
6.24224
20
-1.97059
11
6.22256
21
-1.99027
0
LINE
8
BLACK
6
CONTINUOUS
10
6.22256
20
-2.10421
11
6.24224
21
-2.1239
0
LINE
8
BLACK
6
CONTINUOUS
10
6.24224
20
-2.10421
11
6.22256
21
-2.1239
0
LINE
8
BLACK
6
CONTINUOUS
10
6.22256
20
-6.02571
11
6.24224
21
-6.04539
0
LINE
8
BLACK
6
CONTINUOUS
10
6.24224
20
-6.02571
11
6.22256
21
-6.04539
0
LINE
8
BLACK
6
CONTINUOUS
10
6.22256
20
-6.15933
11
6.24224
21
-6.17902
0
LINE
8
BLACK
6
CONTINUOUS
10
6.24224
20
-6.15933
11
6.22256
21
-6.17902
0
LINE
8
BLACK
6
CONTINUOUS
10
6.28937
20
-1.94291
11
6.30906
21
-1.9626
0
LINE
8
BLACK
6
CONTINUOUS
10
6.30906
20
-1.94291
11
6.28937
21
-1.9626
0
LINE
8
BLACK
6
CONTINUOUS
10
6.28937
20
-2.13189
11
6.30906
21
-2.15157
0
LINE
8
BLACK
6
CONTINUOUS
10
6.30906
20
-2.13189
11
6.28937
21
-2.15157
0
LINE
8
BLACK
6
CONTINUOUS
10
6.28937
20
-5.99803
11
6.30906
21
-6.01772
0
LINE
8
BLACK
6
CONTINUOUS
10
6.30906
20
-5.99803
11
6.28937
21
-6.01772
0
LINE
8
BLACK
6
CONTINUOUS
10
6.28937
20
-6.18701
11
6.30906
21
-6.20669
0
LINE
8
BLACK
6
CONTINUOUS
10
6.30906
20
-6.18701
11
6.28937
21
-6.20669
0
LINE
8
BLACK
6
CONTINUOUS
10
6.35618
20
-1.97059
11
6.37587
21
-1.99027
0
LINE
8
BLACK
6
CONTINUOUS
10
6.37587
20
-1.97059
11
6.35618
21
-1.99027
0
LINE
8
BLACK
6
CONTINUOUS
10
6.35618
20
-2.10421
11
6.37587
21
-2.1239
0
LINE
8
BLACK
6
CONTINUOUS
10
6.37587
20
-2.10421
11
6.35618
21
-2.1239
0
LINE
8
BLACK
6
CONTINUOUS
10
6.35618
20
-6.02571
11
6.37587
21
-6.04539
0
LINE
8
BLACK
6
CONTINUOUS
10
6.37587
20
-6.02571
11
6.35618
21
-6.04539
0
LINE
8
BLACK
6
CONTINUOUS
10
6.35618
20
-6.15933
11
6.37587
21
-6.17902
0
LINE
8
BLACK
6
CONTINUOUS
10
6.37587
20
-6.15933
11
6.35618
21
-6.17902
0
LINE
8
BLACK
6
CONTINUOUS
10
6.38386
20
-2.0374
11
6.40354
21
-2.05709
0
LINE
8
BLACK
6
CONTINUOUS
10
6.40354
20
-2.0374
11
6.38386
21
-2.05709
0
LINE
8
BLACK
6
CONTINUOUS
10
6.38386
20
-6.09252
11
6.40354
21
-6.1122
0
LINE
8
BLACK
6
CONTINUOUS
10
6.40354
20
-6.09252
11
6.38386
21
-6.1122
0
CIRCLE
8
BLACK
10
1.82441
20
-4.49941
40
0.015748
0
CIRCLE
8
BLACK
10
1.82441
20
-4.79941
40
0.015748
0
CIRCLE
8
BLACK
10
1.825
20
-5.09941
40
0.015748
0
CIRCLE
8
BLACK
10
1.83071
20
-5.64941
40
0.015748
0
CIRCLE
8
BLACK
10
1.84409
20
-5.37402
40
0.015748
0
CIRCLE
8
BLACK
10
2.02
20
-4.93441
40
0.015748
0
CIRCLE
8
BLACK
10
2.025
20
-4.63441
40
0.015748
0
CIRCLE
8
BLACK
10
2.025
20
-5.24441
40
0.015748
0
CIRCLE
8
BLACK
10
2.06693
20
-2.12598
40
0.015748
0
CIRCLE
8
BLACK
10
2.06693
20
-2.52598
40
0.015748
0
CIRCLE
8
BLACK
10
2.22441
20
-4.49941
40
0.015748
0
CIRCLE
8
BLACK
10
2.22441
20
-4.79941
40
0.015748
0
CIRCLE
8
BLACK
10
2.225
20
-5.09941
40
0.015748
0
CIRCLE
8
BLACK
10
2.23071
20
-5.64941
40
0.015748
0
CIRCLE
8
BLACK
10
2.24409
20
-5.37402
40
0.015748
0
CIRCLE
8
BLACK
10
2.25
20
-2.125
40
0.015748
0
CIRCLE
8
BLACK
10
2.25
20
-2.525
40
0.015748
0
CIRCLE
8
BLACK
10
2.25
20
-4.89941
40
0.015748
0
CIRCLE
8
BLACK
10
2.325
20
-4.49941
40
0.015748
0
CIRCLE
8
BLACK
10
2.325
20
-4.79941
40
0.015748
0
CIRCLE
8
BLACK
10
2.325
20
-5.09941
40
0.015748
0
CIRCLE
8
BLACK
10
2.35
20
-2
40
0.015748
0
CIRCLE
8
BLACK
10
2.35
20
-2.475
40
0.015748
0
CIRCLE
8
BLACK
10
2.42
20
-4.93441
40
0.015748
0
CIRCLE
8
BLACK
10
2.425
20
-4.49941
40
0.015748
0
CIRCLE
8
BLACK
10
2.425
20
-4.63441
40
0.015748
0
CIRCLE
8
BLACK
10
2.425
20
-4.79941
40
0.015748
0
CIRCLE
8
BLACK
10
2.425
20
-5.09941
40
0.015748
0
CIRCLE
8
BLACK
10
2.425
20
-5.24441
40
0.015748
0
CIRCLE
8
BLACK
10
2.45
20
-2.175
40
0.015748
0
CIRCLE
8
BLACK
10
2.45
20
-2.475
40
0.015748
0
CIRCLE
8
BLACK
10
2.525
20
-4.49941
40
0.015748
0
CIRCLE
8
BLACK
10
2.525
20
-4.79941
40
0.015748
0
CIRCLE
8
BLACK
10
2.525
20
-5.09941
40
0.015748
0
CIRCLE
8
BLACK
10
2.55
20
-2.175
40
0.015748
0
CIRCLE
8
BLACK
10
2.55
20
-2.475
40
0.015748
0
CIRCLE
8
BLACK
10
2.65
20
-2.175
40
0.015748
0
CIRCLE
8
BLACK
10
2.65
20
-2.475
40
0.015748
0
CIRCLE
8
BLACK
10
2.65
20
-5.7
40
0.015748
0
CIRCLE
8
BLACK
10
2.675
20
-5.15
40
0.015748
0
CIRCLE
8
BLACK
10
2.675
20
-5.45
40
0.015748
0
CIRCLE
8
BLACK
10
2.75
20
-2.175
40
0.015748
0
CIRCLE
8
BLACK
10
2.75
20
-2.475
40
0.015748
0
CIRCLE
8
BLACK
10
2.775
20
-5.15
40
0.015748
0
CIRCLE
8
BLACK
10
2.775
20
-5.45
40
0.015748
0
CIRCLE
8
BLACK
10
2.85
20
-2.175
40
0.015748
0
CIRCLE
8
BLACK
10
2.85
20
-2.475
40
0.015748
0
CIRCLE
8
BLACK
10
2.875
20
-5.15
40
0.015748
0
CIRCLE
8
BLACK
10
2.875
20
-5.45
40
0.015748
0
CIRCLE
8
BLACK
10
2.95
20
-2.175
40
0.015748
0
CIRCLE
8
BLACK
10
2.95
20
-2.475
40
0.015748
0
CIRCLE
8
BLACK
10
2.975
20
-5.15
40
0.015748
0
CIRCLE
8
BLACK
10
2.975
20
-5.45
40
0.015748
0
CIRCLE
8
BLACK
10
3.05
20
-2.175
40
0.015748
0
CIRCLE
8
BLACK
10
3.05
20
-2.475
40
0.015748
0
CIRCLE
8
BLACK
10
3.075
20
-5.15
40
0.015748
0
CIRCLE
8
BLACK
10
3.075
20
-5.45
40
0.015748
0
CIRCLE
8
BLACK
10
3.1
20
-2.75
40
0.015748
0
CIRCLE
8
BLACK
10
3.175
20
-3.8189
40
0.015748
0
CIRCLE
8
BLACK
10
3.175
20
-4.4189
40
0.015748
0
CIRCLE
8
BLACK
10
3.175
20
-4.95
40
0.015748
0
CIRCLE
8
BLACK
10
3.175
20
-5.15
40
0.015748
0
CIRCLE
8
BLACK
10
3.175
20
-5.45
40
0.015748
0
CIRCLE
8
BLACK
10
3.275
20
-3.8189
40
0.015748
0
CIRCLE
8
BLACK
10
3.275
20
-4.4189
40
0.015748
0
CIRCLE
8
BLACK
10
3.275
20
-5.15
40
0.015748
0
CIRCLE
8
BLACK
10
3.275
20
-5.45
40
0.015748
0
CIRCLE
8
BLACK
10
3.375
20
-3.8189
40
0.015748
0
CIRCLE
8
BLACK
10
3.375
20
-4.4189
40
0.015748
0
CIRCLE
8
BLACK
10
3.4
20
-4.875
40
0.015748
0
CIRCLE
8
BLACK
10
3.46457
20
-5.51181
40
0.015748
0
CIRCLE
8
BLACK
10
3.475
20
-3.8189
40
0.015748
0
CIRCLE
8
BLACK
10
3.475
20
-4.4189
40
0.015748
0
CIRCLE
8
BLACK
10
3.525
20
-2.7
40
0.015748
0
CIRCLE
8
BLACK
10
3.525
20
-3.05
40
0.015748
0
CIRCLE
8
BLACK
10
3.575
20
-3.8189
40
0.015748
0
CIRCLE
8
BLACK
10
3.575
20
-4.4189
40
0.015748
0
CIRCLE
8
BLACK
10
3.675
20
-2.675
40
0.015748
0
CIRCLE
8
BLACK
10
3.675
20
-2.975
40
0.015748
0
CIRCLE
8
BLACK
10
3.675
20
-3.8189
40
0.015748
0
CIRCLE
8
BLACK
10
3.675
20
-4.4189
40
0.015748
0
CIRCLE
8
BLACK
10
3.725
20
-4.95
40
0.015748
0
CIRCLE
8
BLACK
10
3.725
20
-5.15
40
0.015748
0
CIRCLE
8
BLACK
10
3.725
20
-5.45
40
0.015748
0
CIRCLE
8
BLACK
10
3.725
20
-5.575
40
0.015748
0
CIRCLE
8
BLACK
10
3.775
20
-2.675
40
0.015748
0
CIRCLE
8
BLACK
10
3.775
20
-2.975
40
0.015748
0
CIRCLE
8
BLACK
10
3.775
20
-3.8189
40
0.015748
0
CIRCLE
8
BLACK
10
3.775
20
-4.4189
40
0.015748
0
CIRCLE
8
BLACK
10
3.825
20
-5.15
40
0.015748
0
CIRCLE
8
BLACK
10
3.825
20
-5.45
40
0.015748
0
CIRCLE
8
BLACK
10
3.875
20
-2.675
40
0.015748
0
CIRCLE
8
BLACK
10
3.875
20
-2.975
40
0.015748
0
CIRCLE
8
BLACK
10
3.875
20
-3.8189
40
0.015748
0
CIRCLE
8
BLACK
10
3.875
20
-4.4189
40
0.015748
0
CIRCLE
8
BLACK
10
3.925
20
-5.15
40
0.015748
0
CIRCLE
8
BLACK
10
3.925
20
-5.45
40
0.015748
0
CIRCLE
8
BLACK
10
3.975
20
-2.675
40
0.015748
0
CIRCLE
8
BLACK
10
3.975
20
-2.975
40
0.015748
0
CIRCLE
8
BLACK
10
3.975
20
-3.8189
40
0.015748
0
CIRCLE
8
BLACK
10
3.975
20
-4.4189
40
0.015748
0
CIRCLE
8
BLACK
10
4.025
20
-5.15
40
0.015748
0
CIRCLE
8
BLACK
10
4.025
20
-5.45
40
0.015748
0
CIRCLE
8
BLACK
10
4.075
20
-2.675
40
0.015748
0
CIRCLE
8
BLACK
10
4.075
20
-2.975
40
0.015748
0
CIRCLE
8
BLACK
10
4.075
20
-3.8189
40
0.015748
0
CIRCLE
8
BLACK
10
4.075
20
-4.4189
40
0.015748
0
CIRCLE
8
BLACK
10
4.125
20
-5.15
40
0.015748
0
CIRCLE
8
BLACK
10
4.125
20
-5.45
40
0.015748
0
CIRCLE
8
BLACK
10
4.175
20
-2.675
40
0.015748
0
CIRCLE
8
BLACK
10
4.175
20
-2.975
40
0.015748
0
CIRCLE
8
BLACK
10
4.175
20
-3.8189
40
0.015748
0
CIRCLE
8
BLACK
10
4.175
20
-4.4189
40
0.015748
0
CIRCLE
8
BLACK
10
4.225
20
-4.875
40
0.015748
0
CIRCLE
8
BLACK
10
4.225
20
-5.15
40
0.015748
0
CIRCLE
8
BLACK
10
4.225
20
-5.45
40
0.015748
0
CIRCLE
8
BLACK
10
4.275
20
-2.675
40
0.015748
0
CIRCLE
8
BLACK
10
4.275
20
-2.975
40
0.015748
0
CIRCLE
8
BLACK
10
4.275
20
-3.8189
40
0.015748
0
CIRCLE
8
BLACK
10
4.275
20
-4.4189
40
0.015748
0
CIRCLE
8
BLACK
10
4.325
20
-5.15
40
0.015748
0
CIRCLE
8
BLACK
10
4.325
20
-5.45
40
0.015748
0
CIRCLE
8
BLACK
10
4.375
20
-3.8189
40
0.015748
0
CIRCLE
8
BLACK
10
4.375
20
-4.4189
40
0.015748
0
CIRCLE
8
BLACK
10
4.425
20
-5.15
40
0.015748
0
CIRCLE
8
BLACK
10
4.425
20
-5.45
40
0.015748
0
CIRCLE
8
BLACK
10
4.425
20
-5.7
40
0.015748
0
CIRCLE
8
BLACK
10
4.475
20
-3.8189
40
0.015748
0
CIRCLE
8
BLACK
10
4.475
20
-4.4189
40
0.015748
0
CIRCLE
8
BLACK
10
4.55
20
-4.825
40
0.015748
0
CIRCLE
8
BLACK
10
4.55
20
-5
40
0.015748
0
CIRCLE
8
BLACK
10
4.575
20
-3.8189
40
0.015748
0
CIRCLE
8
BLACK
10
4.575
20
-4.4189
40
0.015748
0
CIRCLE
8
BLACK
10
4.675
20
-3.8189
40
0.015748
0
CIRCLE
8
BLACK
10
4.675
20
-4.4189
40
0.015748
0
CIRCLE
8
BLACK
10
4.775
20
-3.8189
40
0.015748
0
CIRCLE
8
BLACK
10
4.775
20
-4.4189
40
0.015748
0
CIRCLE
8
BLACK
10
4.875
20
-3.8189
40
0.015748
0
CIRCLE
8
BLACK
10
4.875
20
-4.4189
40
0.015748
0
CIRCLE
8
BLACK
10
4.975
20
-3.8189
40
0.015748
0
CIRCLE
8
BLACK
10
4.975
20
-4.4189
40
0.015748
0
CIRCLE
8
BLACK
10
5.075
20
-3.8189
40
0.015748
0
CIRCLE
8
BLACK
10
5.075
20
-4.4189
40
0.015748
0
CIRCLE
8
BLACK
10
5.2
20
-4.825
40
0.015748
0
CIRCLE
8
BLACK
10
5.225
20
-3.975
40
0.015748
0
CIRCLE
8
BLACK
10
5.4
20
-5.15
40
0.015748
0
CIRCLE
8
BLACK
10
5.4
20
-5.45
40
0.015748
0
CIRCLE
8
BLACK
10
5.40315
20
-5.025
40
0.015748
0
CIRCLE
8
BLACK
10
5.45
20
-3.65
40
0.015748
0
CIRCLE
8
BLACK
10
5.5
20
-3.975
40
0.015748
0
CIRCLE
8
BLACK
10
5.5
20
-4.275
40
0.015748
0
CIRCLE
8
BLACK
10
5.5
20
-5.15
40
0.015748
0
CIRCLE
8
BLACK
10
5.5
20
-5.45
40
0.015748
0
CIRCLE
8
BLACK
10
5.59055
20
-2.45433
40
0.015748
0
CIRCLE
8
BLACK
10
5.59055
20
-2.85433
40
0.015748
0
CIRCLE
8
BLACK
10
5.6
20
-3.8
40
0.015748
0
CIRCLE
8
BLACK
10
5.6
20
-3.975
40
0.015748
0
CIRCLE
8
BLACK
10
5.6
20
-4.275
40
0.015748
0
CIRCLE
8
BLACK
10
5.6
20
-4.825
40
0.015748
0
CIRCLE
8
BLACK
10
5.6
20
-5.025
40
0.015748
0
CIRCLE
8
BLACK
10
5.6
20
-5.15
40
0.015748
0
CIRCLE
8
BLACK
10
5.6
20
-5.45
40
0.015748
0
CIRCLE
8
BLACK
10
5.6
20
-5.725
40
0.015748
0
CIRCLE
8
BLACK
10
5.7
20
-3.975
40
0.015748
0
CIRCLE
8
BLACK
10
5.7
20
-4.275
40
0.015748
0
CIRCLE
8
BLACK
10
5.7
20
-5.15
40
0.015748
0
CIRCLE
8
BLACK
10
5.7
20
-5.45
40
0.015748
0
CIRCLE
8
BLACK
10
5.7
20
-5.575
40
0.015748
0
CIRCLE
8
BLACK
10
5.70866
20
-3.20866
40
0.015748
0
CIRCLE
8
BLACK
10
5.775
20
-2.53937
40
0.015748
0
CIRCLE
8
BLACK
10
5.79685
20
-3.8
40
0.015748
0
CIRCLE
8
BLACK
10
5.8
20
-2.675
40
0.015748
0
CIRCLE
8
BLACK
10
5.8
20
-2.975
40
0.015748
0
CIRCLE
8
BLACK
10
5.8
20
-3.975
40
0.015748
0
CIRCLE
8
BLACK
10
5.8
20
-4.275
40
0.015748
0
CIRCLE
8
BLACK
10
5.8
20
-5.15
40
0.015748
0
CIRCLE
8
BLACK
10
5.8
20
-5.45
40
0.015748
0
CIRCLE
8
BLACK
10
5.80315
20
-5.575
40
0.015748
0
CIRCLE
8
BLACK
10
5.85
20
-3.65
40
0.015748
0
CIRCLE
8
BLACK
10
5.9
20
-2.675
40
0.015748
0
CIRCLE
8
BLACK
10
5.9
20
-2.975
40
0.015748
0
CIRCLE
8
BLACK
10
5.9
20
-3.975
40
0.015748
0
CIRCLE
8
BLACK
10
5.9
20
-4.275
40
0.015748
0
CIRCLE
8
BLACK
10
5.9
20
-5.15
40
0.015748
0
CIRCLE
8
BLACK
10
5.9
20
-5.45
40
0.015748
0
CIRCLE
8
BLACK
10
5.90551
20
-3.20866
40
0.015748
0
CIRCLE
8
BLACK
10
6
20
-2.675
40
0.015748
0
CIRCLE
8
BLACK
10
6
20
-2.975
40
0.015748
0
CIRCLE
8
BLACK
10
6
20
-3.975
40
0.015748
0
CIRCLE
8
BLACK
10
6
20
-4.275
40
0.015748
0
CIRCLE
8
BLACK
10
6
20
-5.15
40
0.015748
0
CIRCLE
8
BLACK
10
6
20
-5.45
40
0.015748
0
CIRCLE
8
BLACK
10
6
20
-5.575
40
0.015748
0
CIRCLE
8
BLACK
10
6
20
-5.725
40
0.015748
0
CIRCLE
8
BLACK
10
6.1
20
-2.675
40
0.015748
0
CIRCLE
8
BLACK
10
6.1
20
-2.975
40
0.015748
0
CIRCLE
8
BLACK
10
6.1
20
-3.975
40
0.015748
0
CIRCLE
8
BLACK
10
6.1
20
-4.275
40
0.015748
0
CIRCLE
8
BLACK
10
6.1
20
-5.15
40
0.015748
0
CIRCLE
8
BLACK
10
6.1
20
-5.45
40
0.015748
0
CIRCLE
8
BLACK
10
6.175
20
-2.53937
40
0.015748
0
CIRCLE
8
BLACK
10
6.24016
20
-2.73622
40
0.015748
0
CIRCLE
8
BLACK
10
6.24016
20
-2.93307
40
0.015748
0
LINE
8
BLACK
6
CONTINUOUS
10
1.71063
20
-4.48169
11
1.71063
21
-4.51713
0
LINE
8
BLACK
6
CONTINUOUS
10
1.69291
20
-4.49941
11
1.72835
21
-4.49941
0
LINE
8
BLACK
6
CONTINUOUS
10
1.71063
20
-4.58169
11
1.71063
21
-4.61713
0
LINE
8
BLACK
6
CONTINUOUS
10
1.69291
20
-4.59941
11
1.72835
21
-4.59941
0
LINE
8
BLACK
6
CONTINUOUS
10
1.71063
20
-4.78169
11
1.71063
21
-4.81713
0
LINE
8
BLACK
6
CONTINUOUS
10
1.69291
20
-4.79941
11
1.72835
21
-4.79941
0
LINE
8
BLACK
6
CONTINUOUS
10
1.71063
20
-4.88169
11
1.71063
21
-4.91713
0
LINE
8
BLACK
6
CONTINUOUS
10
1.69291
20
-4.89941
11
1.72835
21
-4.89941
0
LINE
8
BLACK
6
CONTINUOUS
10
1.71063
20
-5.08169
11
1.71063
21
-5.11713
0
LINE
8
BLACK
6
CONTINUOUS
10
1.69291
20
-5.09941
11
1.72835
21
-5.09941
0
LINE
8
BLACK
6
CONTINUOUS
10
1.71063
20
-5.18169
11
1.71063
21
-5.21713
0
LINE
8
BLACK
6
CONTINUOUS
10
1.69291
20
-5.19941
11
1.72835
21
-5.19941
0
LINE
8
BLACK
6
CONTINUOUS
10
1.71063
20
-5.3563
11
1.71063
21
-5.39173
0
LINE
8
BLACK
6
CONTINUOUS
10
1.69291
20
-5.37402
11
1.72835
21
-5.37402
0
LINE
8
BLACK
6
CONTINUOUS
10
1.71063
20
-5.4563
11
1.71063
21
-5.49173
0
LINE
8
BLACK
6
CONTINUOUS
10
1.69291
20
-5.47402
11
1.72835
21
-5.47402
0
LINE
8
BLACK
6
CONTINUOUS
10
1.7126
20
-5.63169
11
1.7126
21
-5.66713
0
LINE
8
BLACK
6
CONTINUOUS
10
1.69488
20
-5.64941
11
1.73031
21
-5.64941
0
LINE
8
BLACK
6
CONTINUOUS
10
1.7126
20
-5.73169
11
1.7126
21
-5.76713
0
LINE
8
BLACK
6
CONTINUOUS
10
1.69488
20
-5.74941
11
1.73031
21
-5.74941
0
LINE
8
BLACK
6
CONTINUOUS
10
3.37534
20
-2.06116
11
3.37534
21
-2.03332
0
LINE
8
BLACK
6
CONTINUOUS
10
3.37534
20
-2.03332
11
3.3475
21
-2.03332
0
LINE
8
BLACK
6
CONTINUOUS
10
3.3475
20
-2.03332
11
3.3475
21
-2.06116
0
LINE
8
BLACK
6
CONTINUOUS
10
3.3475
20
-2.06116
11
3.37534
21
-2.06116
0
LINE
8
BLACK
6
CONTINUOUS
10
3.37534
20
-6.11628
11
3.37534
21
-6.08844
0
LINE
8
BLACK
6
CONTINUOUS
10
3.37534
20
-6.08844
11
3.3475
21
-6.08844
0
LINE
8
BLACK
6
CONTINUOUS
10
3.3475
20
-6.08844
11
3.3475
21
-6.11628
0
LINE
8
BLACK
6
CONTINUOUS
10
3.3475
20
-6.11628
11
3.37534
21
-6.11628
0
LINE
8
BLACK
6
CONTINUOUS
10
3.47534
20
-2.06116
11
3.47534
21
-2.03332
0
LINE
8
BLACK
6
CONTINUOUS
10
3.47534
20
-2.03332
11
3.4475
21
-2.03332
0
LINE
8
BLACK
6
CONTINUOUS
10
3.4475
20
-2.03332
11
3.4475
21
-2.06116
0
LINE
8
BLACK
6
CONTINUOUS
10
3.4475
20
-2.06116
11
3.47534
21
-2.06116
0
LINE
8
BLACK
6
CONTINUOUS
10
3.47534
20
-6.11628
11
3.47534
21
-6.08844
0
LINE
8
BLACK
6
CONTINUOUS
10
3.47534
20
-6.08844
11
3.4475
21
-6.08844
0
LINE
8
BLACK
6
CONTINUOUS
10
3.4475
20
-6.08844
11
3.4475
21
-6.11628
0
LINE
8
BLACK
6
CONTINUOUS
10
3.4475
20
-6.11628
11
3.47534
21
-6.11628
0
LINE
8
BLACK
6
CONTINUOUS
10
3.57534
20
-2.06116
11
3.57534
21
-2.03332
0
LINE
8
BLACK
6
CONTINUOUS
10
3.57534
20
-2.03332
11
3.5475
21
-2.03332
0
LINE
8
BLACK
6
CONTINUOUS
10
3.5475
20
-2.03332
11
3.5475
21
-2.06116
0
LINE
8
BLACK
6
CONTINUOUS
10
3.5475
20
-2.06116
11
3.57534
21
-2.06116
0
LINE
8
BLACK
6
CONTINUOUS
10
3.57534
20
-6.11628
11
3.57534
21
-6.08844
0
LINE
8
BLACK
6
CONTINUOUS
10
3.57534
20
-6.08844
11
3.5475
21
-6.08844
0
LINE
8
BLACK
6
CONTINUOUS
10
3.5475
20
-6.08844
11
3.5475
21
-6.11628
0
LINE
8
BLACK
6
CONTINUOUS
10
3.5475
20
-6.11628
11
3.57534
21
-6.11628
0
LINE
8
BLACK
6
CONTINUOUS
10
3.67534
20
-2.06116
11
3.67534
21
-2.03332
0
LINE
8
BLACK
6
CONTINUOUS
10
3.67534
20
-2.03332
11
3.6475
21
-2.03332
0
LINE
8
BLACK
6
CONTINUOUS
10
3.6475
20
-2.03332
11
3.6475
21
-2.06116
0
LINE
8
BLACK
6
CONTINUOUS
10
3.6475
20
-2.06116
11
3.67534
21
-2.06116
0
LINE
8
BLACK
6
CONTINUOUS
10
3.67534
20
-6.11628
11
3.67534
21
-6.08844
0
LINE
8
BLACK
6
CONTINUOUS
10
3.67534
20
-6.08844
11
3.6475
21
-6.08844
0
LINE
8
BLACK
6
CONTINUOUS
10
3.6475
20
-6.08844
11
3.6475
21
-6.11628
0
LINE
8
BLACK
6
CONTINUOUS
10
3.6475
20
-6.11628
11
3.67534
21
-6.11628
0
LINE
8
BLACK
6
CONTINUOUS
10
4.91392
20
-2.68892
11
4.91392
21
-2.66108
0
LINE
8
BLACK
6
CONTINUOUS
10
4.91392
20
-2.66108
11
4.88608
21
-2.66108
0
LINE
8
BLACK
6
CONTINUOUS
10
4.88608
20
-2.66108
11
4.88608
21
-2.68892
0
LINE
8
BLACK
6
CONTINUOUS
10
4.88608
20
-2.68892
11
4.91392
21
-2.68892
0
LINE
8
BLACK
6
CONTINUOUS
10
5.2092
20
-2.68892
11
5.2092
21
-2.66108
0
LINE
8
BLACK
6
CONTINUOUS
10
5.2092
20
-2.66108
11
5.18136
21
-2.66108
0
LINE
8
BLACK
6
CONTINUOUS
10
5.18136
20
-2.66108
11
5.18136
21
-2.68892
0
LINE
8
BLACK
6
CONTINUOUS
10
5.18136
20
-2.68892
11
5.2092
21
-2.68892
0
LINE
8
BLACK
6
CONTINUOUS
10
5.82101
20
-2.2777
11
5.82101
21
-2.24986
0
LINE
8
BLACK
6
CONTINUOUS
10
5.82101
20
-2.24986
11
5.79317
21
-2.24986
0
LINE
8
BLACK
6
CONTINUOUS
10
5.79317
20
-2.24986
11
5.79317
21
-2.2777
0
LINE
8
BLACK
6
CONTINUOUS
10
5.79317
20
-2.2777
11
5.82101
21
-2.2777
0
LINE
8
BLACK
6
CONTINUOUS
10
6.12101
20
-2.3777
11
6.12101
21
-2.34986
0
LINE
8
BLACK
6
CONTINUOUS
10
6.12101
20
-2.34986
11
6.09317
21
-2.34986
0
LINE
8
BLACK
6
CONTINUOUS
10
6.09317
20
-2.34986
11
6.09317
21
-2.3777
0
LINE
8
BLACK
6
CONTINUOUS
10
6.09317
20
-2.3777
11
6.12101
21
-2.3777
0
LINE
8
BLACK
6
CONTINUOUS
10
6.31392
20
-4.30526
11
6.31392
21
-4.27742
0
LINE
8
BLACK
6
CONTINUOUS
10
6.31392
20
-4.27742
11
6.28608
21
-4.27742
0
LINE
8
BLACK
6
CONTINUOUS
10
6.28608
20
-4.27742
11
6.28608
21
-4.30526
0
LINE
8
BLACK
6
CONTINUOUS
10
6.28608
20
-4.30526
11
6.31392
21
-4.30526
0
LINE
8
BLACK
6
CONTINUOUS
10
6.31392
20
-4.40526
11
6.31392
21
-4.37742
0
LINE
8
BLACK
6
CONTINUOUS
10
6.31392
20
-4.37742
11
6.28608
21
-4.37742
0
LINE
8
BLACK
6
CONTINUOUS
10
6.28608
20
-4.37742
11
6.28608
21
-4.40526
0
LINE
8
BLACK
6
CONTINUOUS
10
6.28608
20
-4.40526
11
6.31392
21
-4.40526
0
LINE
8
BLACK
6
CONTINUOUS
10
6.31392
20
-4.50526
11
6.31392
21
-4.47742
0
LINE
8
BLACK
6
CONTINUOUS
10
6.31392
20
-4.47742
11
6.28608
21
-4.47742
0
LINE
8
BLACK
6
CONTINUOUS
10
6.28608
20
-4.47742
11
6.28608
21
-4.50526
0
LINE
8
BLACK
6
CONTINUOUS
10
6.28608
20
-4.50526
11
6.31392
21
-4.50526
0
LINE
8
BLACK
6
CONTINUOUS
10
6.31392
20
-4.60526
11
6.31392
21
-4.57742
0
LINE
8
BLACK
6
CONTINUOUS
10
6.31392
20
-4.57742
11
6.28608
21
-4.57742
0
LINE
8
BLACK
6
CONTINUOUS
10
6.28608
20
-4.57742
11
6.28608
21
-4.60526
0
LINE
8
BLACK
6
CONTINUOUS
10
6.28608
20
-4.60526
11
6.31392
21
-4.60526
0
LINE
8
BLACK
6
CONTINUOUS
10
6.32101
20
-2.2777
11
6.32101
21
-2.24986
0
LINE
8
BLACK
6
CONTINUOUS
10
6.32101
20
-2.24986
11
6.29317
21
-2.24986
0
LINE
8
BLACK
6
CONTINUOUS
10
6.29317
20
-2.24986
11
6.29317
21
-2.2777
0
LINE
8
BLACK
6
CONTINUOUS
10
6.29317
20
-2.2777
11
6.32101
21
-2.2777
0
LINE
8
BLACK
6
CONTINUOUS
10
1.66535
20
-2.6815
11
1.69094
21
-2.65591
0
LINE
8
BLACK
6
CONTINUOUS
10
1.69094
20
-2.65591
11
1.66535
21
-2.63031
0
LINE
8
BLACK
6
CONTINUOUS
10
1.66535
20
-2.63031
11
1.63976
21
-2.65591
0
LINE
8
BLACK
6
CONTINUOUS
10
1.63976
20
-2.65591
11
1.66535
21
-2.6815
0
LINE
8
BLACK
6
CONTINUOUS
10
1.66535
20
-2.8815
11
1.69094
21
-2.85591
0
LINE
8
BLACK
6
CONTINUOUS
10
1.69094
20
-2.85591
11
1.66535
21
-2.83031
0
LINE
8
BLACK
6
CONTINUOUS
10
1.66535
20
-2.83031
11
1.63976
21
-2.85591
0
LINE
8
BLACK
6
CONTINUOUS
10
1.63976
20
-2.85591
11
1.66535
21
-2.8815
0
LINE
8
BLACK
6
CONTINUOUS
10
1.66535
20
-3.03583
11
1.69094
21
-3.01024
0
LINE
8
BLACK
6
CONTINUOUS
10
1.69094
20
-3.01024
11
1.66535
21
-2.98465
0
LINE
8
BLACK
6
CONTINUOUS
10
1.66535
20
-2.98465
11
1.63976
21
-3.01024
0
LINE
8
BLACK
6
CONTINUOUS
10
1.63976
20
-3.01024
11
1.66535
21
-3.03583
0
LINE
8
BLACK
6
CONTINUOUS
10
1.66535
20
-3.23583
11
1.69094
21
-3.21024
0
LINE
8
BLACK
6
CONTINUOUS
10
1.69094
20
-3.21024
11
1.66535
21
-3.18465
0
LINE
8
BLACK
6
CONTINUOUS
10
1.66535
20
-3.18465
11
1.63976
21
-3.21024
0
LINE
8
BLACK
6
CONTINUOUS
10
1.63976
20
-3.21024
11
1.66535
21
-3.23583
0
LINE
8
BLACK
6
CONTINUOUS
10
1.66535
20
-3.39016
11
1.69094
21
-3.36457
0
LINE
8
BLACK
6
CONTINUOUS
10
1.69094
20
-3.36457
11
1.66535
21
-3.33898
0
LINE
8
BLACK
6
CONTINUOUS
10
1.66535
20
-3.33898
11
1.63976
21
-3.36457
0
LINE
8
BLACK
6
CONTINUOUS
10
1.63976
20
-3.36457
11
1.66535
21
-3.39016
0
LINE
8
BLACK
6
CONTINUOUS
10
1.66535
20
-3.59016
11
1.69094
21
-3.56457
0
LINE
8
BLACK
6
CONTINUOUS
10
1.69094
20
-3.56457
11
1.66535
21
-3.53898
0
LINE
8
BLACK
6
CONTINUOUS
10
1.66535
20
-3.53898
11
1.63976
21
-3.56457
0
LINE
8
BLACK
6
CONTINUOUS
10
1.63976
20
-3.56457
11
1.66535
21
-3.59016
0
LINE
8
BLACK
6
CONTINUOUS
10
1.66535
20
-3.74449
11
1.69094
21
-3.7189
0
LINE
8
BLACK
6
CONTINUOUS
10
1.69094
20
-3.7189
11
1.66535
21
-3.69331
0
LINE
8
BLACK
6
CONTINUOUS
10
1.66535
20
-3.69331
11
1.63976
21
-3.7189
0
LINE
8
BLACK
6
CONTINUOUS
10
1.63976
20
-3.7189
11
1.66535
21
-3.74449
0
LINE
8
BLACK
6
CONTINUOUS
10
1.66535
20
-3.94449
11
1.69094
21
-3.9189
0
LINE
8
BLACK
6
CONTINUOUS
10
1.69094
20
-3.9189
11
1.66535
21
-3.89331
0
LINE
8
BLACK
6
CONTINUOUS
10
1.66535
20
-3.89331
11
1.63976
21
-3.9189
0
LINE
8
BLACK
6
CONTINUOUS
10
1.63976
20
-3.9189
11
1.66535
21
-3.94449
0
LINE
8
BLACK
6
CONTINUOUS
10
1.66535
20
-4.09882
11
1.69094
21
-4.07323
0
LINE
8
BLACK
6
CONTINUOUS
10
1.69094
20
-4.07323
11
1.66535
21
-4.04764
0
LINE
8
BLACK
6
CONTINUOUS
10
1.66535
20
-4.04764
11
1.63976
21
-4.07323
0
LINE
8
BLACK
6
CONTINUOUS
10
1.63976
20
-4.07323
11
1.66535
21
-4.09882
0
LINE
8
BLACK
6
CONTINUOUS
10
1.66535
20
-4.29882
11
1.69094
21
-4.27323
0
LINE
8
BLACK
6
CONTINUOUS
10
1.69094
20
-4.27323
11
1.66535
21
-4.24764
0
LINE
8
BLACK
6
CONTINUOUS
10
1.66535
20
-4.24764
11
1.63976
21
-4.27323
0
LINE
8
BLACK
6
CONTINUOUS
10
1.63976
20
-4.27323
11
1.66535
21
-4.29882
0
LINE
8
BLACK
6
CONTINUOUS
10
2.16535
20
-2.7815
11
2.19094
21
-2.75591
0
LINE
8
BLACK
6
CONTINUOUS
10
2.19094
20
-2.75591
11
2.16535
21
-2.73031
0
LINE
8
BLACK
6
CONTINUOUS
10
2.16535
20
-2.73031
11
2.13976
21
-2.75591
0
LINE
8
BLACK
6
CONTINUOUS
10
2.13976
20
-2.75591
11
2.16535
21
-2.7815
0
LINE
8
BLACK
6
CONTINUOUS
10
2.16535
20
-3.13583
11
2.19094
21
-3.11024
0
LINE
8
BLACK
6
CONTINUOUS
10
2.19094
20
-3.11024
11
2.16535
21
-3.08465
0
LINE
8
BLACK
6
CONTINUOUS
10
2.16535
20
-3.08465
11
2.13976
21
-3.11024
0
LINE
8
BLACK
6
CONTINUOUS
10
2.13976
20
-3.11024
11
2.16535
21
-3.13583
0
LINE
8
BLACK
6
CONTINUOUS
10
2.16535
20
-3.49016
11
2.19094
21
-3.46457
0
LINE
8
BLACK
6
CONTINUOUS
10
2.19094
20
-3.46457
11
2.16535
21
-3.43898
0
LINE
8
BLACK
6
CONTINUOUS
10
2.16535
20
-3.43898
11
2.13976
21
-3.46457
0
LINE
8
BLACK
6
CONTINUOUS
10
2.13976
20
-3.46457
11
2.16535
21
-3.49016
0
LINE
8
BLACK
6
CONTINUOUS
10
2.16535
20
-3.84449
11
2.19094
21
-3.8189
0
LINE
8
BLACK
6
CONTINUOUS
10
2.19094
20
-3.8189
11
2.16535
21
-3.79331
0
LINE
8
BLACK
6
CONTINUOUS
10
2.16535
20
-3.79331
11
2.13976
21
-3.8189
0
LINE
8
BLACK
6
CONTINUOUS
10
2.13976
20
-3.8189
11
2.16535
21
-3.84449
0
LINE
8
BLACK
6
CONTINUOUS
10
2.16535
20
-4.19882
11
2.19094
21
-4.17323
0
LINE
8
BLACK
6
CONTINUOUS
10
2.19094
20
-4.17323
11
2.16535
21
-4.14764
0
LINE
8
BLACK
6
CONTINUOUS
10
2.16535
20
-4.14764
11
2.13976
21
-4.17323
0
LINE
8
BLACK
6
CONTINUOUS
10
2.13976
20
-4.17323
11
2.16535
21
-4.19882
0
LINE
8
BLACK
6
CONTINUOUS
10
2.31535
20
-2.7815
11
2.34094
21
-2.75591
0
LINE
8
BLACK
6
CONTINUOUS
10
2.34094
20
-2.75591
11
2.31535
21
-2.73031
0
LINE
8
BLACK
6
CONTINUOUS
10
2.31535
20
-2.73031
11
2.28976
21
-2.75591
0
LINE
8
BLACK
6
CONTINUOUS
10
2.28976
20
-2.75591
11
2.31535
21
-2.7815
0
LINE
8
BLACK
6
CONTINUOUS
10
2.31535
20
-3.13583
11
2.34094
21
-3.11024
0
LINE
8
BLACK
6
CONTINUOUS
10
2.34094
20
-3.11024
11
2.31535
21
-3.08465
0
LINE
8
BLACK
6
CONTINUOUS
10
2.31535
20
-3.08465
11
2.28976
21
-3.11024
0
LINE
8
BLACK
6
CONTINUOUS
10
2.28976
20
-3.11024
11
2.31535
21
-3.13583
0
LINE
8
BLACK
6
CONTINUOUS
10
2.31535
20
-3.49016
11
2.34094
21
-3.46457
0
LINE
8
BLACK
6
CONTINUOUS
10
2.34094
20
-3.46457
11
2.31535
21
-3.43898
0
LINE
8
BLACK
6
CONTINUOUS
10
2.31535
20
-3.43898
11
2.28976
21
-3.46457
0
LINE
8
BLACK
6
CONTINUOUS
10
2.28976
20
-3.46457
11
2.31535
21
-3.49016
0
LINE
8
BLACK
6
CONTINUOUS
10
2.31535
20
-3.84449
11
2.34094
21
-3.8189
0
LINE
8
BLACK
6
CONTINUOUS
10
2.34094
20
-3.8189
11
2.31535
21
-3.79331
0
LINE
8
BLACK
6
CONTINUOUS
10
2.31535
20
-3.79331
11
2.28976
21
-3.8189
0
LINE
8
BLACK
6
CONTINUOUS
10
2.28976
20
-3.8189
11
2.31535
21
-3.84449
0
LINE
8
BLACK
6
CONTINUOUS
10
2.31535
20
-4.19882
11
2.34094
21
-4.17323
0
LINE
8
BLACK
6
CONTINUOUS
10
2.34094
20
-4.17323
11
2.31535
21
-4.14764
0
LINE
8
BLACK
6
CONTINUOUS
10
2.31535
20
-4.14764
11
2.28976
21
-4.17323
0
LINE
8
BLACK
6
CONTINUOUS
10
2.28976
20
-4.17323
11
2.31535
21
-4.19882
0
LINE
8
BLACK
6
CONTINUOUS
10
2.46535
20
-2.7815
11
2.49094
21
-2.75591
0
LINE
8
BLACK
6
CONTINUOUS
10
2.49094
20
-2.75591
11
2.46535
21
-2.73031
0
LINE
8
BLACK
6
CONTINUOUS
10
2.46535
20
-2.73031
11
2.43976
21
-2.75591
0
LINE
8
BLACK
6
CONTINUOUS
10
2.43976
20
-2.75591
11
2.46535
21
-2.7815
0
LINE
8
BLACK
6
CONTINUOUS
10
2.46535
20
-3.13583
11
2.49094
21
-3.11024
0
LINE
8
BLACK
6
CONTINUOUS
10
2.49094
20
-3.11024
11
2.46535
21
-3.08465
0
LINE
8
BLACK
6
CONTINUOUS
10
2.46535
20
-3.08465
11
2.43976
21
-3.11024
0
LINE
8
BLACK
6
CONTINUOUS
10
2.43976
20
-3.11024
11
2.46535
21
-3.13583
0
LINE
8
BLACK
6
CONTINUOUS
10
2.46535
20
-3.49016
11
2.49094
21
-3.46457
0
LINE
8
BLACK
6
CONTINUOUS
10
2.49094
20
-3.46457
11
2.46535
21
-3.43898
0
LINE
8
BLACK
6
CONTINUOUS
10
2.46535
20
-3.43898
11
2.43976
21
-3.46457
0
LINE
8
BLACK
6
CONTINUOUS
10
2.43976
20
-3.46457
11
2.46535
21
-3.49016
0
LINE
8
BLACK
6
CONTINUOUS
10
2.46535
20
-3.84449
11
2.49094
21
-3.8189
0
LINE
8
BLACK
6
CONTINUOUS
10
2.49094
20
-3.8189
11
2.46535
21
-3.79331
0
LINE
8
BLACK
6
CONTINUOUS
10
2.46535
20
-3.79331
11
2.43976
21
-3.8189
0
LINE
8
BLACK
6
CONTINUOUS
10
2.43976
20
-3.8189
11
2.46535
21
-3.84449
0
LINE
8
BLACK
6
CONTINUOUS
10
2.46535
20
-4.19882
11
2.49094
21
-4.17323
0
LINE
8
BLACK
6
CONTINUOUS
10
2.49094
20
-4.17323
11
2.46535
21
-4.14764
0
LINE
8
BLACK
6
CONTINUOUS
10
2.46535
20
-4.14764
11
2.43976
21
-4.17323
0
LINE
8
BLACK
6
CONTINUOUS
10
2.43976
20
-4.17323
11
2.46535
21
-4.19882
0
LINE
8
BLACK
6
CONTINUOUS
10
1.70866
20
-1.98425
11
1.83465
21
-2.11024
0
LINE
8
BLACK
6
CONTINUOUS
10
1.83465
20
-1.98425
11
1.70866
21
-2.11024
0
CIRCLE
8
BLACK
10
1.77165
20
-2.04724
40
0.0629921
0
LINE
8
BLACK
6
CONTINUOUS
10
1.70866
20
-6.03937
11
1.83465
21
-6.16535
0
LINE
8
BLACK
6
CONTINUOUS
10
1.83465
20
-6.03937
11
1.70866
21
-6.16535
0
CIRCLE
8
BLACK
10
1.77165
20
-6.10236
40
0.0629921
0
LINE
8
BLACK
6
CONTINUOUS
10
6.23622
20
-1.98425
11
6.3622
21
-2.11024
0
LINE
8
BLACK
6
CONTINUOUS
10
6.3622
20
-1.98425
11
6.23622
21
-2.11024
0
CIRCLE
8
BLACK
10
6.29921
20
-2.04724
40
0.0629921
0
LINE
8
BLACK
6
CONTINUOUS
10
6.23622
20
-6.03937
11
6.3622
21
-6.16535
0
LINE
8
BLACK
6
CONTINUOUS
10
6.3622
20
-6.03937
11
6.23622
21
-6.16535
0
CIRCLE
8
BLACK
10
6.29921
20
-6.10236
40
0.0629921
0
LINE
8
BLACK
6
CONTINUOUS
10
1.68659
20
-6.48355
11
1.68659
21
-6.36544
0
LINE
8
BLACK
6
CONTINUOUS
10
1.68659
20
-6.36544
11
1.71471
21
-6.36544
0
LINE
8
BLACK
6
CONTINUOUS
10
1.71471
20
-6.36544
11
1.73158
21
-6.37106
0
LINE
8
BLACK
6
CONTINUOUS
10
1.73158
20
-6.37106
11
1.74283
21
-6.38231
0
LINE
8
BLACK
6
CONTINUOUS
10
1.74283
20
-6.38231
11
1.74845
21
-6.39356
0
LINE
8
BLACK
6
CONTINUOUS
10
1.74845
20
-6.39356
11
1.75408
21
-6.41606
0
LINE
8
BLACK
6
CONTINUOUS
10
1.75408
20
-6.41606
11
1.75408
21
-6.43293
0
LINE
8
BLACK
6
CONTINUOUS
10
1.75408
20
-6.43293
11
1.74845
21
-6.45543
0
LINE
8
BLACK
6
CONTINUOUS
10
1.74845
20
-6.45543
11
1.74283
21
-6.46668
0
LINE
8
BLACK
6
CONTINUOUS
10
1.74283
20
-6.46668
11
1.73158
21
-6.47792
0
LINE
8
BLACK
6
CONTINUOUS
10
1.73158
20
-6.47792
11
1.71471
21
-6.48355
0
LINE
8
BLACK
6
CONTINUOUS
10
1.71471
20
-6.48355
11
1.68659
21
-6.48355
0
LINE
8
BLACK
6
CONTINUOUS
10
1.8047
20
-6.48355
11
1.8047
21
-6.40481
0
LINE
8
BLACK
6
CONTINUOUS
10
1.8047
20
-6.42731
11
1.81032
21
-6.41606
0
LINE
8
BLACK
6
CONTINUOUS
10
1.81032
20
-6.41606
11
1.81594
21
-6.41043
0
LINE
8
BLACK
6
CONTINUOUS
10
1.81594
20
-6.41043
11
1.82719
21
-6.40481
0
LINE
8
BLACK
6
CONTINUOUS
10
1.82719
20
-6.40481
11
1.83844
21
-6.40481
0
LINE
8
BLACK
6
CONTINUOUS
10
1.87781
20
-6.48355
11
1.87781
21
-6.40481
0
LINE
8
BLACK
6
CONTINUOUS
10
1.87781
20
-6.36544
11
1.87219
21
-6.37106
0
LINE
8
BLACK
6
CONTINUOUS
10
1.87219
20
-6.37106
11
1.87781
21
-6.37669
0
LINE
8
BLACK
6
CONTINUOUS
10
1.87781
20
-6.37669
11
1.88344
21
-6.37106
0
LINE
8
BLACK
6
CONTINUOUS
10
1.88344
20
-6.37106
11
1.87781
21
-6.36544
0
LINE
8
BLACK
6
CONTINUOUS
10
1.87781
20
-6.36544
11
1.87781
21
-6.37669
0
LINE
8
BLACK
6
CONTINUOUS
10
1.95093
20
-6.48355
11
1.93968
21
-6.47792
0
LINE
8
BLACK
6
CONTINUOUS
10
1.93968
20
-6.47792
11
1.93406
21
-6.46668
0
LINE
8
BLACK
6
CONTINUOUS
10
1.93406
20
-6.46668
11
1.93406
21
-6.36544
0
LINE
8
BLACK
6
CONTINUOUS
10
2.0128
20
-6.48355
11
2.00155
21
-6.47792
0
LINE
8
BLACK
6
CONTINUOUS
10
2.00155
20
-6.47792
11
1.99592
21
-6.46668
0
LINE
8
BLACK
6
CONTINUOUS
10
1.99592
20
-6.46668
11
1.99592
21
-6.36544
0
LINE
8
BLACK
6
CONTINUOUS
10
2.14778
20
-6.48355
11
2.14778
21
-6.36544
0
LINE
8
BLACK
6
CONTINUOUS
10
2.14778
20
-6.36544
11
2.18715
21
-6.4498
0
LINE
8
BLACK
6
CONTINUOUS
10
2.18715
20
-6.4498
11
2.22652
21
-6.36544
0
LINE
8
BLACK
6
CONTINUOUS
10
2.22652
20
-6.36544
11
2.22652
21
-6.48355
0
LINE
8
BLACK
6
CONTINUOUS
10
2.33338
20
-6.48355
11
2.33338
21
-6.42168
0
LINE
8
BLACK
6
CONTINUOUS
10
2.33338
20
-6.42168
11
2.32776
21
-6.41043
0
LINE
8
BLACK
6
CONTINUOUS
10
2.32776
20
-6.41043
11
2.31651
21
-6.40481
0
LINE
8
BLACK
6
CONTINUOUS
10
2.31651
20
-6.40481
11
2.29401
21
-6.40481
0
LINE
8
BLACK
6
CONTINUOUS
10
2.29401
20
-6.40481
11
2.28276
21
-6.41043
0
LINE
8
BLACK
6
CONTINUOUS
10
2.33338
20
-6.47792
11
2.32213
21
-6.48355
0
LINE
8
BLACK
6
CONTINUOUS
10
2.32213
20
-6.48355
11
2.29401
21
-6.48355
0
LINE
8
BLACK
6
CONTINUOUS
10
2.29401
20
-6.48355
11
2.28276
21
-6.47792
0
LINE
8
BLACK
6
CONTINUOUS
10
2.28276
20
-6.47792
11
2.27714
21
-6.46668
0
LINE
8
BLACK
6
CONTINUOUS
10
2.27714
20
-6.46668
11
2.27714
21
-6.45543
0
LINE
8
BLACK
6
CONTINUOUS
10
2.27714
20
-6.45543
11
2.28276
21
-6.44418
0
LINE
8
BLACK
6
CONTINUOUS
10
2.28276
20
-6.44418
11
2.29401
21
-6.43855
0
LINE
8
BLACK
6
CONTINUOUS
10
2.29401
20
-6.43855
11
2.32213
21
-6.43855
0
LINE
8
BLACK
6
CONTINUOUS
10
2.32213
20
-6.43855
11
2.33338
21
-6.43293
0
LINE
8
BLACK
6
CONTINUOUS
10
2.38962
20
-6.40481
11
2.38962
21
-6.52292
0
LINE
8
BLACK
6
CONTINUOUS
10
2.38962
20
-6.41043
11
2.40087
21
-6.40481
0
LINE
8
BLACK
6
CONTINUOUS
10
2.40087
20
-6.40481
11
2.42337
21
-6.40481
0
LINE
8
BLACK
6
CONTINUOUS
10
2.42337
20
-6.40481
11
2.43462
21
-6.41043
0
LINE
8
BLACK
6
CONTINUOUS
10
2.43462
20
-6.41043
11
2.44024
21
-6.41606
0
LINE
8
BLACK
6
CONTINUOUS
10
2.44024
20
-6.41606
11
2.44587
21
-6.42731
0
LINE
8
BLACK
6
CONTINUOUS
10
2.44587
20
-6.42731
11
2.44587
21
-6.46105
0
LINE
8
BLACK
6
CONTINUOUS
10
2.44587
20
-6.46105
11
2.44024
21
-6.4723
0
LINE
8
BLACK
6
CONTINUOUS
10
2.44024
20
-6.4723
11
2.43462
21
-6.47792
0
LINE
8
BLACK
6
CONTINUOUS
10
2.43462
20
-6.47792
11
2.42337
21
-6.48355
0
LINE
8
BLACK
6
CONTINUOUS
10
2.42337
20
-6.48355
11
2.40087
21
-6.48355
0
LINE
8
BLACK
6
CONTINUOUS
10
2.40087
20
-6.48355
11
2.38962
21
-6.47792
0
LINE
8
BLACK
6
CONTINUOUS
10
2.49648
20
-6.4723
11
2.50211
21
-6.47792
0
LINE
8
BLACK
6
CONTINUOUS
10
2.50211
20
-6.47792
11
2.49648
21
-6.48355
0
LINE
8
BLACK
6
CONTINUOUS
10
2.49648
20
-6.48355
11
2.49086
21
-6.47792
0
LINE
8
BLACK
6
CONTINUOUS
10
2.49086
20
-6.47792
11
2.49648
21
-6.4723
0
LINE
8
BLACK
6
CONTINUOUS
10
2.49648
20
-6.4723
11
2.49648
21
-6.48355
0
LINE
8
BLACK
6
CONTINUOUS
10
2.49648
20
-6.41043
11
2.50211
21
-6.41606
0
LINE
8
BLACK
6
CONTINUOUS
10
2.50211
20
-6.41606
11
2.49648
21
-6.42168
0
LINE
8
BLACK
6
CONTINUOUS
10
2.49648
20
-6.42168
11
2.49086
21
-6.41606
0
LINE
8
BLACK
6
CONTINUOUS
10
2.49086
20
-6.41606
11
2.49648
21
-6.41043
0
LINE
8
BLACK
6
CONTINUOUS
10
2.49648
20
-6.41043
11
2.49648
21
-6.42168
0
LINE
8
BLACK
6
CONTINUOUS
10
1.55413
20
-6.66831
11
1.57382
21
-6.68799
0
LINE
8
BLACK
6
CONTINUOUS
10
1.57382
20
-6.66831
11
1.55413
21
-6.68799
0
LINE
8
BLACK
6
CONTINUOUS
10
1.70908
20
-6.61347
11
1.72033
21
-6.61347
0
LINE
8
BLACK
6
CONTINUOUS
10
1.72033
20
-6.61347
11
1.73158
21
-6.61909
0
LINE
8
BLACK
6
CONTINUOUS
10
1.73158
20
-6.61909
11
1.7372
21
-6.62472
0
LINE
8
BLACK
6
CONTINUOUS
10
1.7372
20
-6.62472
11
1.74283
21
-6.63597
0
LINE
8
BLACK
6
CONTINUOUS
10
1.74283
20
-6.63597
11
1.74845
21
-6.65846
0
LINE
8
BLACK
6
CONTINUOUS
10
1.74845
20
-6.65846
11
1.74845
21
-6.68659
0
LINE
8
BLACK
6
CONTINUOUS
10
1.74845
20
-6.68659
11
1.74283
21
-6.70908
0
LINE
8
BLACK
6
CONTINUOUS
10
1.74283
20
-6.70908
11
1.7372
21
-6.72033
0
LINE
8
BLACK
6
CONTINUOUS
10
1.7372
20
-6.72033
11
1.73158
21
-6.72596
0
LINE
8
BLACK
6
CONTINUOUS
10
1.73158
20
-6.72596
11
1.72033
21
-6.73158
0
LINE
8
BLACK
6
CONTINUOUS
10
1.72033
20
-6.73158
11
1.70908
21
-6.73158
0
LINE
8
BLACK
6
CONTINUOUS
10
1.70908
20
-6.73158
11
1.69783
21
-6.72596
0
LINE
8
BLACK
6
CONTINUOUS
10
1.69783
20
-6.72596
11
1.69221
21
-6.72033
0
LINE
8
BLACK
6
CONTINUOUS
10
1.69221
20
-6.72033
11
1.68659
21
-6.70908
0
LINE
8
BLACK
6
CONTINUOUS
10
1.68659
20
-6.70908
11
1.68096
21
-6.68659
0
LINE
8
BLACK
6
CONTINUOUS
10
1.68096
20
-6.68659
11
1.68096
21
-6.65846
0
LINE
8
BLACK
6
CONTINUOUS
10
1.68096
20
-6.65846
11
1.68659
21
-6.63597
0
LINE
8
BLACK
6
CONTINUOUS
10
1.68659
20
-6.63597
11
1.69221
21
-6.62472
0
LINE
8
BLACK
6
CONTINUOUS
10
1.69221
20
-6.62472
11
1.69783
21
-6.61909
0
LINE
8
BLACK
6
CONTINUOUS
10
1.69783
20
-6.61909
11
1.70908
21
-6.61347
0
LINE
8
BLACK
6
CONTINUOUS
10
1.79907
20
-6.72033
11
1.8047
21
-6.72596
0
LINE
8
BLACK
6
CONTINUOUS
10
1.8047
20
-6.72596
11
1.79907
21
-6.73158
0
LINE
8
BLACK
6
CONTINUOUS
10
1.79907
20
-6.73158
11
1.79345
21
-6.72596
0
LINE
8
BLACK
6
CONTINUOUS
10
1.79345
20
-6.72596
11
1.79907
21
-6.72033
0
LINE
8
BLACK
6
CONTINUOUS
10
1.79907
20
-6.72033
11
1.79907
21
-6.73158
0
LINE
8
BLACK
6
CONTINUOUS
10
1.91156
20
-6.61347
11
1.85531
21
-6.61347
0
LINE
8
BLACK
6
CONTINUOUS
10
1.85531
20
-6.61347
11
1.84969
21
-6.66971
0
LINE
8
BLACK
6
CONTINUOUS
10
1.84969
20
-6.66971
11
1.85531
21
-6.66409
0
LINE
8
BLACK
6
CONTINUOUS
10
1.85531
20
-6.66409
11
1.86656
21
-6.65846
0
LINE
8
BLACK
6
CONTINUOUS
10
1.86656
20
-6.65846
11
1.89468
21
-6.65846
0
LINE
8
BLACK
6
CONTINUOUS
10
1.89468
20
-6.65846
11
1.90593
21
-6.66409
0
LINE
8
BLACK
6
CONTINUOUS
10
1.90593
20
-6.66409
11
1.91156
21
-6.66971
0
LINE
8
BLACK
6
CONTINUOUS
10
1.91156
20
-6.66971
11
1.91718
21
-6.68096
0
LINE
8
BLACK
6
CONTINUOUS
10
1.91718
20
-6.68096
11
1.91718
21
-6.70908
0
LINE
8
BLACK
6
CONTINUOUS
10
1.91718
20
-6.70908
11
1.91156
21
-6.72033
0
LINE
8
BLACK
6
CONTINUOUS
10
1.91156
20
-6.72033
11
1.90593
21
-6.72596
0
LINE
8
BLACK
6
CONTINUOUS
10
1.90593
20
-6.72596
11
1.89468
21
-6.73158
0
LINE
8
BLACK
6
CONTINUOUS
10
1.89468
20
-6.73158
11
1.86656
21
-6.73158
0
LINE
8
BLACK
6
CONTINUOUS
10
1.86656
20
-6.73158
11
1.85531
21
-6.72596
0
LINE
8
BLACK
6
CONTINUOUS
10
1.85531
20
-6.72596
11
1.84969
21
-6.72033
0
LINE
8
BLACK
6
CONTINUOUS
10
1.9903
20
-6.61347
11
2.00155
21
-6.61347
0
LINE
8
BLACK
6
CONTINUOUS
10
2.00155
20
-6.61347
11
2.0128
21
-6.61909
0
LINE
8
BLACK
6
CONTINUOUS
10
2.0128
20
-6.61909
11
2.01842
21
-6.62472
0
LINE
8
BLACK
6
CONTINUOUS
10
2.01842
20
-6.62472
11
2.02404
21
-6.63597
0
LINE
8
BLACK
6
CONTINUOUS
10
2.02404
20
-6.63597
11
2.02967
21
-6.65846
0
LINE
8
BLACK
6
CONTINUOUS
10
2.02967
20
-6.65846
11
2.02967
21
-6.68659
0
LINE
8
BLACK
6
CONTINUOUS
10
2.02967
20
-6.68659
11
2.02404
21
-6.70908
0
LINE
8
BLACK
6
CONTINUOUS
10
2.02404
20
-6.70908
11
2.01842
21
-6.72033
0
LINE
8
BLACK
6
CONTINUOUS
10
2.01842
20
-6.72033
11
2.0128
21
-6.72596
0
LINE
8
BLACK
6
CONTINUOUS
10
2.0128
20
-6.72596
11
2.00155
21
-6.73158
0
LINE
8
BLACK
6
CONTINUOUS
10
2.00155
20
-6.73158
11
1.9903
21
-6.73158
0
LINE
8
BLACK
6
CONTINUOUS
10
1.9903
20
-6.73158
11
1.97905
21
-6.72596
0
LINE
8
BLACK
6
CONTINUOUS
10
1.97905
20
-6.72596
11
1.97343
21
-6.72033
0
LINE
8
BLACK
6
CONTINUOUS
10
1.97343
20
-6.72033
11
1.9678
21
-6.70908
0
LINE
8
BLACK
6
CONTINUOUS
10
1.9678
20
-6.70908
11
1.96218
21
-6.68659
0
LINE
8
BLACK
6
CONTINUOUS
10
1.96218
20
-6.68659
11
1.96218
21
-6.65846
0
LINE
8
BLACK
6
CONTINUOUS
10
1.96218
20
-6.65846
11
1.9678
21
-6.63597
0
LINE
8
BLACK
6
CONTINUOUS
10
1.9678
20
-6.63597
11
1.97343
21
-6.62472
0
LINE
8
BLACK
6
CONTINUOUS
10
1.97343
20
-6.62472
11
1.97905
21
-6.61909
0
LINE
8
BLACK
6
CONTINUOUS
10
1.97905
20
-6.61909
11
1.9903
21
-6.61347
0
LINE
8
BLACK
6
CONTINUOUS
10
2.10278
20
-6.61347
11
2.11403
21
-6.61347
0
LINE
8
BLACK
6
CONTINUOUS
10
2.11403
20
-6.61347
11
2.12528
21
-6.61909
0
LINE
8
BLACK
6
CONTINUOUS
10
2.12528
20
-6.61909
11
2.13091
21
-6.62472
0
LINE
8
BLACK
6
CONTINUOUS
10
2.13091
20
-6.62472
11
2.13653
21
-6.63597
0
LINE
8
BLACK
6
CONTINUOUS
10
2.13653
20
-6.63597
11
2.14215
21
-6.65846
0
LINE
8
BLACK
6
CONTINUOUS
10
2.14215
20
-6.65846
11
2.14215
21
-6.68659
0
LINE
8
BLACK
6
CONTINUOUS
10
2.14215
20
-6.68659
11
2.13653
21
-6.70908
0
LINE
8
BLACK
6
CONTINUOUS
10
2.13653
20
-6.70908
11
2.13091
21
-6.72033
0
LINE
8
BLACK
6
CONTINUOUS
10
2.13091
20
-6.72033
11
2.12528
21
-6.72596
0
LINE
8
BLACK
6
CONTINUOUS
10
2.12528
20
-6.72596
11
2.11403
21
-6.73158
0
LINE
8
BLACK
6
CONTINUOUS
10
2.11403
20
-6.73158
11
2.10278
21
-6.73158
0
LINE
8
BLACK
6
CONTINUOUS
10
2.10278
20
-6.73158
11
2.09154
21
-6.72596
0
LINE
8
BLACK
6
CONTINUOUS
10
2.09154
20
-6.72596
11
2.08591
21
-6.72033
0
LINE
8
BLACK
6
CONTINUOUS
10
2.08591
20
-6.72033
11
2.08029
21
-6.70908
0
LINE
8
BLACK
6
CONTINUOUS
10
2.08029
20
-6.70908
11
2.07466
21
-6.68659
0
LINE
8
BLACK
6
CONTINUOUS
10
2.07466
20
-6.68659
11
2.07466
21
-6.65846
0
LINE
8
BLACK
6
CONTINUOUS
10
2.07466
20
-6.65846
11
2.08029
21
-6.63597
0
LINE
8
BLACK
6
CONTINUOUS
10
2.08029
20
-6.63597
11
2.08591
21
-6.62472
0
LINE
8
BLACK
6
CONTINUOUS
10
2.08591
20
-6.62472
11
2.09154
21
-6.61909
0
LINE
8
BLACK
6
CONTINUOUS
10
2.09154
20
-6.61909
11
2.10278
21
-6.61347
0
LINE
8
BLACK
6
CONTINUOUS
10
2.19277
20
-6.73158
11
2.19277
21
-6.65284
0
LINE
8
BLACK
6
CONTINUOUS
10
2.19277
20
-6.66409
11
2.1984
21
-6.65846
0
LINE
8
BLACK
6
CONTINUOUS
10
2.1984
20
-6.65846
11
2.20965
21
-6.65284
0
LINE
8
BLACK
6
CONTINUOUS
10
2.20965
20
-6.65284
11
2.22652
21
-6.65284
0
LINE
8
BLACK
6
CONTINUOUS
10
2.22652
20
-6.65284
11
2.23777
21
-6.65846
0
LINE
8
BLACK
6
CONTINUOUS
10
2.23777
20
-6.65846
11
2.24339
21
-6.66971
0
LINE
8
BLACK
6
CONTINUOUS
10
2.24339
20
-6.66971
11
2.24339
21
-6.73158
0
LINE
8
BLACK
6
CONTINUOUS
10
2.24339
20
-6.66971
11
2.24902
21
-6.65846
0
LINE
8
BLACK
6
CONTINUOUS
10
2.24902
20
-6.65846
11
2.26026
21
-6.65284
0
LINE
8
BLACK
6
CONTINUOUS
10
2.26026
20
-6.65284
11
2.27714
21
-6.65284
0
LINE
8
BLACK
6
CONTINUOUS
10
2.27714
20
-6.65284
11
2.28839
21
-6.65846
0
LINE
8
BLACK
6
CONTINUOUS
10
2.28839
20
-6.65846
11
2.29401
21
-6.66971
0
LINE
8
BLACK
6
CONTINUOUS
10
2.29401
20
-6.66971
11
2.29401
21
-6.73158
0
LINE
8
BLACK
6
CONTINUOUS
10
2.35025
20
-6.73158
11
2.35025
21
-6.65284
0
LINE
8
BLACK
6
CONTINUOUS
10
2.35025
20
-6.66409
11
2.35588
21
-6.65846
0
LINE
8
BLACK
6
CONTINUOUS
10
2.35588
20
-6.65846
11
2.36713
21
-6.65284
0
LINE
8
BLACK
6
CONTINUOUS
10
2.36713
20
-6.65284
11
2.384
21
-6.65284
0
LINE
8
BLACK
6
CONTINUOUS
10
2.384
20
-6.65284
11
2.39525
21
-6.65846
0
LINE
8
BLACK
6
CONTINUOUS
10
2.39525
20
-6.65846
11
2.40087
21
-6.66971
0
LINE
8
BLACK
6
CONTINUOUS
10
2.40087
20
-6.66971
11
2.40087
21
-6.73158
0
LINE
8
BLACK
6
CONTINUOUS
10
2.40087
20
-6.66971
11
2.4065
21
-6.65846
0
LINE
8
BLACK
6
CONTINUOUS
10
2.4065
20
-6.65846
11
2.41774
21
-6.65284
0
LINE
8
BLACK
6
CONTINUOUS
10
2.41774
20
-6.65284
11
2.43462
21
-6.65284
0
LINE
8
BLACK
6
CONTINUOUS
10
2.43462
20
-6.65284
11
2.44587
21
-6.65846
0
LINE
8
BLACK
6
CONTINUOUS
10
2.44587
20
-6.65846
11
2.45149
21
-6.66971
0
LINE
8
BLACK
6
CONTINUOUS
10
2.45149
20
-6.66971
11
2.45149
21
-6.73158
0
LINE
8
BLACK
6
CONTINUOUS
10
2.68209
20
-6.60785
11
2.58085
21
-6.7597
0
LINE
8
BLACK
6
CONTINUOUS
10
2.83394
20
-6.61347
11
2.84519
21
-6.61347
0
LINE
8
BLACK
6
CONTINUOUS
10
2.84519
20
-6.61347
11
2.85644
21
-6.61909
0
LINE
8
BLACK
6
CONTINUOUS
10
2.85644
20
-6.61909
11
2.86206
21
-6.62472
0
LINE
8
BLACK
6
CONTINUOUS
10
2.86206
20
-6.62472
11
2.86769
21
-6.63597
0
LINE
8
BLACK
6
CONTINUOUS
10
2.86769
20
-6.63597
11
2.87331
21
-6.65846
0
LINE
8
BLACK
6
CONTINUOUS
10
2.87331
20
-6.65846
11
2.87331
21
-6.68659
0
LINE
8
BLACK
6
CONTINUOUS
10
2.87331
20
-6.68659
11
2.86769
21
-6.70908
0
LINE
8
BLACK
6
CONTINUOUS
10
2.86769
20
-6.70908
11
2.86206
21
-6.72033
0
LINE
8
BLACK
6
CONTINUOUS
10
2.86206
20
-6.72033
11
2.85644
21
-6.72596
0
LINE
8
BLACK
6
CONTINUOUS
10
2.85644
20
-6.72596
11
2.84519
21
-6.73158
0
LINE
8
BLACK
6
CONTINUOUS
10
2.84519
20
-6.73158
11
2.83394
21
-6.73158
0
LINE
8
BLACK
6
CONTINUOUS
10
2.83394
20
-6.73158
11
2.82269
21
-6.72596
0
LINE
8
BLACK
6
CONTINUOUS
10
2.82269
20
-6.72596
11
2.81707
21
-6.72033
0
LINE
8
BLACK
6
CONTINUOUS
10
2.81707
20
-6.72033
11
2.81145
21
-6.70908
0
LINE
8
BLACK
6
CONTINUOUS
10
2.81145
20
-6.70908
11
2.80582
21
-6.68659
0
LINE
8
BLACK
6
CONTINUOUS
10
2.80582
20
-6.68659
11
2.80582
21
-6.65846
0
LINE
8
BLACK
6
CONTINUOUS
10
2.80582
20
-6.65846
11
2.81145
21
-6.63597
0
LINE
8
BLACK
6
CONTINUOUS
10
2.81145
20
-6.63597
11
2.81707
21
-6.62472
0
LINE
8
BLACK
6
CONTINUOUS
10
2.81707
20
-6.62472
11
2.82269
21
-6.61909
0
LINE
8
BLACK
6
CONTINUOUS
10
2.82269
20
-6.61909
11
2.83394
21
-6.61347
0
LINE
8
BLACK
6
CONTINUOUS
10
2.92393
20
-6.72033
11
2.92956
21
-6.72596
0
LINE
8
BLACK
6
CONTINUOUS
10
2.92956
20
-6.72596
11
2.92393
21
-6.73158
0
LINE
8
BLACK
6
CONTINUOUS
10
2.92393
20
-6.73158
11
2.91831
21
-6.72596
0
LINE
8
BLACK
6
CONTINUOUS
10
2.91831
20
-6.72596
11
2.92393
21
-6.72033
0
LINE
8
BLACK
6
CONTINUOUS
10
2.92393
20
-6.72033
11
2.92393
21
-6.73158
0
LINE
8
BLACK
6
CONTINUOUS
10
3.00267
20
-6.61347
11
3.01392
21
-6.61347
0
LINE
8
BLACK
6
CONTINUOUS
10
3.01392
20
-6.61347
11
3.02517
21
-6.61909
0
LINE
8
BLACK
6
CONTINUOUS
10
3.02517
20
-6.61909
11
3.03079
21
-6.62472
0
LINE
8
BLACK
6
CONTINUOUS
10
3.03079
20
-6.62472
11
3.03642
21
-6.63597
0
LINE
8
BLACK
6
CONTINUOUS
10
3.03642
20
-6.63597
11
3.04204
21
-6.65846
0
LINE
8
BLACK
6
CONTINUOUS
10
3.04204
20
-6.65846
11
3.04204
21
-6.68659
0
LINE
8
BLACK
6
CONTINUOUS
10
3.04204
20
-6.68659
11
3.03642
21
-6.70908
0
LINE
8
BLACK
6
CONTINUOUS
10
3.03642
20
-6.70908
11
3.03079
21
-6.72033
0
LINE
8
BLACK
6
CONTINUOUS
10
3.03079
20
-6.72033
11
3.02517
21
-6.72596
0
LINE
8
BLACK
6
CONTINUOUS
10
3.02517
20
-6.72596
11
3.01392
21
-6.73158
0
LINE
8
BLACK
6
CONTINUOUS
10
3.01392
20
-6.73158
11
3.00267
21
-6.73158
0
LINE
8
BLACK
6
CONTINUOUS
10
3.00267
20
-6.73158
11
2.99142
21
-6.72596
0
LINE
8
BLACK
6
CONTINUOUS
10
2.99142
20
-6.72596
11
2.9858
21
-6.72033
0
LINE
8
BLACK
6
CONTINUOUS
10
2.9858
20
-6.72033
11
2.98017
21
-6.70908
0
LINE
8
BLACK
6
CONTINUOUS
10
2.98017
20
-6.70908
11
2.97455
21
-6.68659
0
LINE
8
BLACK
6
CONTINUOUS
10
2.97455
20
-6.68659
11
2.97455
21
-6.65846
0
LINE
8
BLACK
6
CONTINUOUS
10
2.97455
20
-6.65846
11
2.98017
21
-6.63597
0
LINE
8
BLACK
6
CONTINUOUS
10
2.98017
20
-6.63597
11
2.9858
21
-6.62472
0
LINE
8
BLACK
6
CONTINUOUS
10
2.9858
20
-6.62472
11
2.99142
21
-6.61909
0
LINE
8
BLACK
6
CONTINUOUS
10
2.99142
20
-6.61909
11
3.00267
21
-6.61347
0
LINE
8
BLACK
6
CONTINUOUS
10
3.15453
20
-6.73158
11
3.08704
21
-6.73158
0
LINE
8
BLACK
6
CONTINUOUS
10
3.12078
20
-6.73158
11
3.12078
21
-6.61347
0
LINE
8
BLACK
6
CONTINUOUS
10
3.12078
20
-6.61347
11
3.10953
21
-6.63034
0
LINE
8
BLACK
6
CONTINUOUS
10
3.10953
20
-6.63034
11
3.09828
21
-6.64159
0
LINE
8
BLACK
6
CONTINUOUS
10
3.09828
20
-6.64159
11
3.08704
21
-6.64722
0
LINE
8
BLACK
6
CONTINUOUS
10
3.21077
20
-6.73158
11
3.23327
21
-6.73158
0
LINE
8
BLACK
6
CONTINUOUS
10
3.23327
20
-6.73158
11
3.24452
21
-6.72596
0
LINE
8
BLACK
6
CONTINUOUS
10
3.24452
20
-6.72596
11
3.25014
21
-6.72033
0
LINE
8
BLACK
6
CONTINUOUS
10
3.25014
20
-6.72033
11
3.26139
21
-6.70346
0
LINE
8
BLACK
6
CONTINUOUS
10
3.26139
20
-6.70346
11
3.26701
21
-6.68096
0
LINE
8
BLACK
6
CONTINUOUS
10
3.26701
20
-6.68096
11
3.26701
21
-6.63597
0
LINE
8
BLACK
6
CONTINUOUS
10
3.26701
20
-6.63597
11
3.26139
21
-6.62472
0
LINE
8
BLACK
6
CONTINUOUS
10
3.26139
20
-6.62472
11
3.25576
21
-6.61909
0
LINE
8
BLACK
6
CONTINUOUS
10
3.25576
20
-6.61909
11
3.24452
21
-6.61347
0
LINE
8
BLACK
6
CONTINUOUS
10
3.24452
20
-6.61347
11
3.22202
21
-6.61347
0
LINE
8
BLACK
6
CONTINUOUS
10
3.22202
20
-6.61347
11
3.21077
21
-6.61909
0
LINE
8
BLACK
6
CONTINUOUS
10
3.21077
20
-6.61909
11
3.20515
21
-6.62472
0
LINE
8
BLACK
6
CONTINUOUS
10
3.20515
20
-6.62472
11
3.19952
21
-6.63597
0
LINE
8
BLACK
6
CONTINUOUS
10
3.19952
20
-6.63597
11
3.19952
21
-6.66409
0
LINE
8
BLACK
6
CONTINUOUS
10
3.19952
20
-6.66409
11
3.20515
21
-6.67534
0
LINE
8
BLACK
6
CONTINUOUS
10
3.20515
20
-6.67534
11
3.21077
21
-6.68096
0
LINE
8
BLACK
6
CONTINUOUS
10
3.21077
20
-6.68096
11
3.22202
21
-6.68659
0
LINE
8
BLACK
6
CONTINUOUS
10
3.22202
20
-6.68659
11
3.24452
21
-6.68659
0
LINE
8
BLACK
6
CONTINUOUS
10
3.24452
20
-6.68659
11
3.25576
21
-6.68096
0
LINE
8
BLACK
6
CONTINUOUS
10
3.25576
20
-6.68096
11
3.26139
21
-6.67534
0
LINE
8
BLACK
6
CONTINUOUS
10
3.26139
20
-6.67534
11
3.26701
21
-6.66409
0
LINE
8
BLACK
6
CONTINUOUS
10
3.30638
20
-6.61347
11
3.38512
21
-6.61347
0
LINE
8
BLACK
6
CONTINUOUS
10
3.38512
20
-6.61347
11
3.33451
21
-6.73158
0
LINE
8
BLACK
6
CONTINUOUS
10
3.42449
20
-6.61347
11
3.42449
21
-6.63597
0
LINE
8
BLACK
6
CONTINUOUS
10
3.46949
20
-6.61347
11
3.46949
21
-6.63597
0
LINE
8
BLACK
6
CONTINUOUS
10
3.64384
20
-6.77657
11
3.63822
21
-6.77095
0
LINE
8
BLACK
6
CONTINUOUS
10
3.63822
20
-6.77095
11
3.62697
21
-6.75408
0
LINE
8
BLACK
6
CONTINUOUS
10
3.62697
20
-6.75408
11
3.62134
21
-6.74283
0
LINE
8
BLACK
6
CONTINUOUS
10
3.62134
20
-6.74283
11
3.61572
21
-6.72596
0
LINE
8
BLACK
6
CONTINUOUS
10
3.61572
20
-6.72596
11
3.6101
21
-6.69783
0
LINE
8
BLACK
6
CONTINUOUS
10
3.6101
20
-6.69783
11
3.6101
21
-6.67534
0
LINE
8
BLACK
6
CONTINUOUS
10
3.6101
20
-6.67534
11
3.61572
21
-6.64722
0
LINE
8
BLACK
6
CONTINUOUS
10
3.61572
20
-6.64722
11
3.62134
21
-6.63034
0
LINE
8
BLACK
6
CONTINUOUS
10
3.62134
20
-6.63034
11
3.62697
21
-6.61909
0
LINE
8
BLACK
6
CONTINUOUS
10
3.62697
20
-6.61909
11
3.63822
21
-6.60222
0
LINE
8
BLACK
6
CONTINUOUS
10
3.63822
20
-6.60222
11
3.64384
21
-6.5966
0
LINE
8
BLACK
6
CONTINUOUS
10
3.67759
20
-6.61347
11
3.7507
21
-6.61347
0
LINE
8
BLACK
6
CONTINUOUS
10
3.7507
20
-6.61347
11
3.71133
21
-6.65846
0
LINE
8
BLACK
6
CONTINUOUS
10
3.71133
20
-6.65846
11
3.72821
21
-6.65846
0
LINE
8
BLACK
6
CONTINUOUS
10
3.72821
20
-6.65846
11
3.73945
21
-6.66409
0
LINE
8
BLACK
6
CONTINUOUS
10
3.73945
20
-6.66409
11
3.74508
21
-6.66971
0
LINE
8
BLACK
6
CONTINUOUS
10
3.74508
20
-6.66971
11
3.7507
21
-6.68096
0
LINE
8
BLACK
6
CONTINUOUS
10
3.7507
20
-6.68096
11
3.7507
21
-6.70908
0
LINE
8
BLACK
6
CONTINUOUS
10
3.7507
20
-6.70908
11
3.74508
21
-6.72033
0
LINE
8
BLACK
6
CONTINUOUS
10
3.74508
20
-6.72033
11
3.73945
21
-6.72596
0
LINE
8
BLACK
6
CONTINUOUS
10
3.73945
20
-6.72596
11
3.72821
21
-6.73158
0
LINE
8
BLACK
6
CONTINUOUS
10
3.72821
20
-6.73158
11
3.69446
21
-6.73158
0
LINE
8
BLACK
6
CONTINUOUS
10
3.69446
20
-6.73158
11
3.68321
21
-6.72596
0
LINE
8
BLACK
6
CONTINUOUS
10
3.68321
20
-6.72596
11
3.67759
21
-6.72033
0
LINE
8
BLACK
6
CONTINUOUS
10
3.7957
20
-6.62472
11
3.80132
21
-6.61909
0
LINE
8
BLACK
6
CONTINUOUS
10
3.80132
20
-6.61909
11
3.81257
21
-6.61347
0
LINE
8
BLACK
6
CONTINUOUS
10
3.81257
20
-6.61347
11
3.84069
21
-6.61347
0
LINE
8
BLACK
6
CONTINUOUS
10
3.84069
20
-6.61347
11
3.85194
21
-6.61909
0
LINE
8
BLACK
6
CONTINUOUS
10
3.85194
20
-6.61909
11
3.85756
21
-6.62472
0
LINE
8
BLACK
6
CONTINUOUS
10
3.85756
20
-6.62472
11
3.86319
21
-6.63597
0
LINE
8
BLACK
6
CONTINUOUS
10
3.86319
20
-6.63597
11
3.86319
21
-6.64722
0
LINE
8
BLACK
6
CONTINUOUS
10
3.86319
20
-6.64722
11
3.85756
21
-6.66409
0
LINE
8
BLACK
6
CONTINUOUS
10
3.85756
20
-6.66409
11
3.79007
21
-6.73158
0
LINE
8
BLACK
6
CONTINUOUS
10
3.79007
20
-6.73158
11
3.86319
21
-6.73158
0
LINE
8
BLACK
6
CONTINUOUS
10
4.0038
20
-6.73158
11
4.0038
21
-6.61347
0
LINE
8
BLACK
6
CONTINUOUS
10
4.05441
20
-6.73158
11
4.05441
21
-6.66971
0
LINE
8
BLACK
6
CONTINUOUS
10
4.05441
20
-6.66971
11
4.04879
21
-6.65846
0
LINE
8
BLACK
6
CONTINUOUS
10
4.04879
20
-6.65846
11
4.03754
21
-6.65284
0
LINE
8
BLACK
6
CONTINUOUS
10
4.03754
20
-6.65284
11
4.02067
21
-6.65284
0
LINE
8
BLACK
6
CONTINUOUS
10
4.02067
20
-6.65284
11
4.00942
21
-6.65846
0
LINE
8
BLACK
6
CONTINUOUS
10
4.00942
20
-6.65846
11
4.0038
21
-6.66409
0
LINE
8
BLACK
6
CONTINUOUS
10
4.12753
20
-6.73158
11
4.11628
21
-6.72596
0
LINE
8
BLACK
6
CONTINUOUS
10
4.11628
20
-6.72596
11
4.11066
21
-6.72033
0
LINE
8
BLACK
6
CONTINUOUS
10
4.11066
20
-6.72033
11
4.10503
21
-6.70908
0
LINE
8
BLACK
6
CONTINUOUS
10
4.10503
20
-6.70908
11
4.10503
21
-6.67534
0
LINE
8
BLACK
6
CONTINUOUS
10
4.10503
20
-6.67534
11
4.11066
21
-6.66409
0
LINE
8
BLACK
6
CONTINUOUS
10
4.11066
20
-6.66409
11
4.11628
21
-6.65846
0
LINE
8
BLACK
6
CONTINUOUS
10
4.11628
20
-6.65846
11
4.12753
21
-6.65284
0
LINE
8
BLACK
6
CONTINUOUS
10
4.12753
20
-6.65284
11
4.1444
21
-6.65284
0
LINE
8
BLACK
6
CONTINUOUS
10
4.1444
20
-6.65284
11
4.15565
21
-6.65846
0
LINE
8
BLACK
6
CONTINUOUS
10
4.15565
20
-6.65846
11
4.16128
21
-6.66409
0
LINE
8
BLACK
6
CONTINUOUS
10
4.16128
20
-6.66409
11
4.1669
21
-6.67534
0
LINE
8
BLACK
6
CONTINUOUS
10
4.1669
20
-6.67534
11
4.1669
21
-6.70908
0
LINE
8
BLACK
6
CONTINUOUS
10
4.1669
20
-6.70908
11
4.16128
21
-6.72033
0
LINE
8
BLACK
6
CONTINUOUS
10
4.16128
20
-6.72033
11
4.15565
21
-6.72596
0
LINE
8
BLACK
6
CONTINUOUS
10
4.15565
20
-6.72596
11
4.1444
21
-6.73158
0
LINE
8
BLACK
6
CONTINUOUS
10
4.1444
20
-6.73158
11
4.12753
21
-6.73158
0
LINE
8
BLACK
6
CONTINUOUS
10
4.23439
20
-6.73158
11
4.22314
21
-6.72596
0
LINE
8
BLACK
6
CONTINUOUS
10
4.22314
20
-6.72596
11
4.21752
21
-6.71471
0
LINE
8
BLACK
6
CONTINUOUS
10
4.21752
20
-6.71471
11
4.21752
21
-6.61347
0
LINE
8
BLACK
6
CONTINUOUS
10
4.32438
20
-6.72596
11
4.31313
21
-6.73158
0
LINE
8
BLACK
6
CONTINUOUS
10
4.31313
20
-6.73158
11
4.29064
21
-6.73158
0
LINE
8
BLACK
6
CONTINUOUS
10
4.29064
20
-6.73158
11
4.27939
21
-6.72596
0
LINE
8
BLACK
6
CONTINUOUS
10
4.27939
20
-6.72596
11
4.27376
21
-6.71471
0
LINE
8
BLACK
6
CONTINUOUS
10
4.27376
20
-6.71471
11
4.27376
21
-6.66971
0
LINE
8
BLACK
6
CONTINUOUS
10
4.27376
20
-6.66971
11
4.27939
21
-6.65846
0
LINE
8
BLACK
6
CONTINUOUS
10
4.27939
20
-6.65846
11
4.29064
21
-6.65284
0
LINE
8
BLACK
6
CONTINUOUS
10
4.29064
20
-6.65284
11
4.31313
21
-6.65284
0
LINE
8
BLACK
6
CONTINUOUS
10
4.31313
20
-6.65284
11
4.32438
21
-6.65846
0
LINE
8
BLACK
6
CONTINUOUS
10
4.32438
20
-6.65846
11
4.33001
21
-6.66971
0
LINE
8
BLACK
6
CONTINUOUS
10
4.33001
20
-6.66971
11
4.33001
21
-6.68096
0
LINE
8
BLACK
6
CONTINUOUS
10
4.33001
20
-6.68096
11
4.27376
21
-6.69221
0
LINE
8
BLACK
6
CONTINUOUS
10
4.375
20
-6.72596
11
4.38625
21
-6.73158
0
LINE
8
BLACK
6
CONTINUOUS
10
4.38625
20
-6.73158
11
4.40875
21
-6.73158
0
LINE
8
BLACK
6
CONTINUOUS
10
4.40875
20
-6.73158
11
4.41999
21
-6.72596
0
LINE
8
BLACK
6
CONTINUOUS
10
4.41999
20
-6.72596
11
4.42562
21
-6.71471
0
LINE
8
BLACK
6
CONTINUOUS
10
4.42562
20
-6.71471
11
4.42562
21
-6.70908
0
LINE
8
BLACK
6
CONTINUOUS
10
4.42562
20
-6.70908
11
4.41999
21
-6.69783
0
LINE
8
BLACK
6
CONTINUOUS
10
4.41999
20
-6.69783
11
4.40875
21
-6.69221
0
LINE
8
BLACK
6
CONTINUOUS
10
4.40875
20
-6.69221
11
4.39187
21
-6.69221
0
LINE
8
BLACK
6
CONTINUOUS
10
4.39187
20
-6.69221
11
4.38062
21
-6.68659
0
LINE
8
BLACK
6
CONTINUOUS
10
4.38062
20
-6.68659
11
4.375
21
-6.67534
0
LINE
8
BLACK
6
CONTINUOUS
10
4.375
20
-6.67534
11
4.375
21
-6.66971
0
LINE
8
BLACK
6
CONTINUOUS
10
4.375
20
-6.66971
11
4.38062
21
-6.65846
0
LINE
8
BLACK
6
CONTINUOUS
10
4.38062
20
-6.65846
11
4.39187
21
-6.65284
0
LINE
8
BLACK
6
CONTINUOUS
10
4.39187
20
-6.65284
11
4.40875
21
-6.65284
0
LINE
8
BLACK
6
CONTINUOUS
10
4.40875
20
-6.65284
11
4.41999
21
-6.65846
0
LINE
8
BLACK
6
CONTINUOUS
10
4.46499
20
-6.77657
11
4.47061
21
-6.77095
0
LINE
8
BLACK
6
CONTINUOUS
10
4.47061
20
-6.77095
11
4.48186
21
-6.75408
0
LINE
8
BLACK
6
CONTINUOUS
10
4.48186
20
-6.75408
11
4.48749
21
-6.74283
0
LINE
8
BLACK
6
CONTINUOUS
10
4.48749
20
-6.74283
11
4.49311
21
-6.72596
0
LINE
8
BLACK
6
CONTINUOUS
10
4.49311
20
-6.72596
11
4.49873
21
-6.69783
0
LINE
8
BLACK
6
CONTINUOUS
10
4.49873
20
-6.69783
11
4.49873
21
-6.67534
0
LINE
8
BLACK
6
CONTINUOUS
10
4.49873
20
-6.67534
11
4.49311
21
-6.64722
0
LINE
8
BLACK
6
CONTINUOUS
10
4.49311
20
-6.64722
11
4.48749
21
-6.63034
0
LINE
8
BLACK
6
CONTINUOUS
10
4.48749
20
-6.63034
11
4.48186
21
-6.61909
0
LINE
8
BLACK
6
CONTINUOUS
10
4.48186
20
-6.61909
11
4.47061
21
-6.60222
0
LINE
8
BLACK
6
CONTINUOUS
10
4.47061
20
-6.60222
11
4.46499
21
-6.5966
0
CIRCLE
8
BLACK
10
1.55807
20
-6.83406
40
0.015748
0
LINE
8
BLACK
6
CONTINUOUS
10
1.70908
20
-6.76938
11
1.72033
21
-6.76938
0
LINE
8
BLACK
6
CONTINUOUS
10
1.72033
20
-6.76938
11
1.73158
21
-6.775
0
LINE
8
BLACK
6
CONTINUOUS
10
1.73158
20
-6.775
11
1.7372
21
-6.78062
0
LINE
8
BLACK
6
CONTINUOUS
10
1.7372
20
-6.78062
11
1.74283
21
-6.79187
0
LINE
8
BLACK
6
CONTINUOUS
10
1.74283
20
-6.79187
11
1.74845
21
-6.81437
0
LINE
8
BLACK
6
CONTINUOUS
10
1.74845
20
-6.81437
11
1.74845
21
-6.84249
0
LINE
8
BLACK
6
CONTINUOUS
10
1.74845
20
-6.84249
11
1.74283
21
-6.86499
0
LINE
8
BLACK
6
CONTINUOUS
10
1.74283
20
-6.86499
11
1.7372
21
-6.87624
0
LINE
8
BLACK
6
CONTINUOUS
10
1.7372
20
-6.87624
11
1.73158
21
-6.88186
0
LINE
8
BLACK
6
CONTINUOUS
10
1.73158
20
-6.88186
11
1.72033
21
-6.88749
0
LINE
8
BLACK
6
CONTINUOUS
10
1.72033
20
-6.88749
11
1.70908
21
-6.88749
0
LINE
8
BLACK
6
CONTINUOUS
10
1.70908
20
-6.88749
11
1.69783
21
-6.88186
0
LINE
8
BLACK
6
CONTINUOUS
10
1.69783
20
-6.88186
11
1.69221
21
-6.87624
0
LINE
8
BLACK
6
CONTINUOUS
10
1.69221
20
-6.87624
11
1.68659
21
-6.86499
0
LINE
8
BLACK
6
CONTINUOUS
10
1.68659
20
-6.86499
11
1.68096
21
-6.84249
0
LINE
8
BLACK
6
CONTINUOUS
10
1.68096
20
-6.84249
11
1.68096
21
-6.81437
0
LINE
8
BLACK
6
CONTINUOUS
10
1.68096
20
-6.81437
11
1.68659
21
-6.79187
0
LINE
8
BLACK
6
CONTINUOUS
10
1.68659
20
-6.79187
11
1.69221
21
-6.78062
0
LINE
8
BLACK
6
CONTINUOUS
10
1.69221
20
-6.78062
11
1.69783
21
-6.775
0
LINE
8
BLACK
6
CONTINUOUS
10
1.69783
20
-6.775
11
1.70908
21
-6.76938
0
LINE
8
BLACK
6
CONTINUOUS
10
1.79907
20
-6.87624
11
1.8047
21
-6.88186
0
LINE
8
BLACK
6
CONTINUOUS
10
1.8047
20
-6.88186
11
1.79907
21
-6.88749
0
LINE
8
BLACK
6
CONTINUOUS
10
1.79907
20
-6.88749
11
1.79345
21
-6.88186
0
LINE
8
BLACK
6
CONTINUOUS
10
1.79345
20
-6.88186
11
1.79907
21
-6.87624
0
LINE
8
BLACK
6
CONTINUOUS
10
1.79907
20
-6.87624
11
1.79907
21
-6.88749
0
LINE
8
BLACK
6
CONTINUOUS
10
1.87219
20
-6.81999
11
1.86094
21
-6.81437
0
LINE
8
BLACK
6
CONTINUOUS
10
1.86094
20
-6.81437
11
1.85531
21
-6.80875
0
LINE
8
BLACK
6
CONTINUOUS
10
1.85531
20
-6.80875
11
1.84969
21
-6.7975
0
LINE
8
BLACK
6
CONTINUOUS
10
1.84969
20
-6.7975
11
1.84969
21
-6.79187
0
LINE
8
BLACK
6
CONTINUOUS
10
1.84969
20
-6.79187
11
1.85531
21
-6.78062
0
LINE
8
BLACK
6
CONTINUOUS
10
1.85531
20
-6.78062
11
1.86094
21
-6.775
0
LINE
8
BLACK
6
CONTINUOUS
10
1.86094
20
-6.775
11
1.87219
21
-6.76938
0
LINE
8
BLACK
6
CONTINUOUS
10
1.87219
20
-6.76938
11
1.89468
21
-6.76938
0
LINE
8
BLACK
6
CONTINUOUS
10
1.89468
20
-6.76938
11
1.90593
21
-6.775
0
LINE
8
BLACK
6
CONTINUOUS
10
1.90593
20
-6.775
11
1.91156
21
-6.78062
0
LINE
8
BLACK
6
CONTINUOUS
10
1.91156
20
-6.78062
11
1.91718
21
-6.79187
0
LINE
8
BLACK
6
CONTINUOUS
10
1.91718
20
-6.79187
11
1.91718
21
-6.7975
0
LINE
8
BLACK
6
CONTINUOUS
10
1.91718
20
-6.7975
11
1.91156
21
-6.80875
0
LINE
8
BLACK
6
CONTINUOUS
10
1.91156
20
-6.80875
11
1.90593
21
-6.81437
0
LINE
8
BLACK
6
CONTINUOUS
10
1.90593
20
-6.81437
11
1.89468
21
-6.81999
0
LINE
8
BLACK
6
CONTINUOUS
10
1.89468
20
-6.81999
11
1.87219
21
-6.81999
0
LINE
8
BLACK
6
CONTINUOUS
10
1.87219
20
-6.81999
11
1.86094
21
-6.82562
0
LINE
8
BLACK
6
CONTINUOUS
10
1.86094
20
-6.82562
11
1.85531
21
-6.83124
0
LINE
8
BLACK
6
CONTINUOUS
10
1.85531
20
-6.83124
11
1.84969
21
-6.84249
0
LINE
8
BLACK
6
CONTINUOUS
10
1.84969
20
-6.84249
11
1.84969
21
-6.86499
0
LINE
8
BLACK
6
CONTINUOUS
10
1.84969
20
-6.86499
11
1.85531
21
-6.87624
0
LINE
8
BLACK
6
CONTINUOUS
10
1.85531
20
-6.87624
11
1.86094
21
-6.88186
0
LINE
8
BLACK
6
CONTINUOUS
10
1.86094
20
-6.88186
11
1.87219
21
-6.88749
0
LINE
8
BLACK
6
CONTINUOUS
10
1.87219
20
-6.88749
11
1.89468
21
-6.88749
0
LINE
8
BLACK
6
CONTINUOUS
10
1.89468
20
-6.88749
11
1.90593
21
-6.88186
0
LINE
8
BLACK
6
CONTINUOUS
10
1.90593
20
-6.88186
11
1.91156
21
-6.87624
0
LINE
8
BLACK
6
CONTINUOUS
10
1.91156
20
-6.87624
11
1.91718
21
-6.86499
0
LINE
8
BLACK
6
CONTINUOUS
10
1.91718
20
-6.86499
11
1.91718
21
-6.84249
0
LINE
8
BLACK
6
CONTINUOUS
10
1.91718
20
-6.84249
11
1.91156
21
-6.83124
0
LINE
8
BLACK
6
CONTINUOUS
10
1.91156
20
-6.83124
11
1.90593
21
-6.82562
0
LINE
8
BLACK
6
CONTINUOUS
10
1.90593
20
-6.82562
11
1.89468
21
-6.81999
0
LINE
8
BLACK
6
CONTINUOUS
10
1.9903
20
-6.76938
11
2.00155
21
-6.76938
0
LINE
8
BLACK
6
CONTINUOUS
10
2.00155
20
-6.76938
11
2.0128
21
-6.775
0
LINE
8
BLACK
6
CONTINUOUS
10
2.0128
20
-6.775
11
2.01842
21
-6.78062
0
LINE
8
BLACK
6
CONTINUOUS
10
2.01842
20
-6.78062
11
2.02404
21
-6.79187
0
LINE
8
BLACK
6
CONTINUOUS
10
2.02404
20
-6.79187
11
2.02967
21
-6.81437
0
LINE
8
BLACK
6
CONTINUOUS
10
2.02967
20
-6.81437
11
2.02967
21
-6.84249
0
LINE
8
BLACK
6
CONTINUOUS
10
2.02967
20
-6.84249
11
2.02404
21
-6.86499
0
LINE
8
BLACK
6
CONTINUOUS
10
2.02404
20
-6.86499
11
2.01842
21
-6.87624
0
LINE
8
BLACK
6
CONTINUOUS
10
2.01842
20
-6.87624
11
2.0128
21
-6.88186
0
LINE
8
BLACK
6
CONTINUOUS
10
2.0128
20
-6.88186
11
2.00155
21
-6.88749
0
LINE
8
BLACK
6
CONTINUOUS
10
2.00155
20
-6.88749
11
1.9903
21
-6.88749
0
LINE
8
BLACK
6
CONTINUOUS
10
1.9903
20
-6.88749
11
1.97905
21
-6.88186
0
LINE
8
BLACK
6
CONTINUOUS
10
1.97905
20
-6.88186
11
1.97343
21
-6.87624
0
LINE
8
BLACK
6
CONTINUOUS
10
1.97343
20
-6.87624
11
1.9678
21
-6.86499
0
LINE
8
BLACK
6
CONTINUOUS
10
1.9678
20
-6.86499
11
1.96218
21
-6.84249
0
LINE
8
BLACK
6
CONTINUOUS
10
1.96218
20
-6.84249
11
1.96218
21
-6.81437
0
LINE
8
BLACK
6
CONTINUOUS
10
1.96218
20
-6.81437
11
1.9678
21
-6.79187
0
LINE
8
BLACK
6
CONTINUOUS
10
1.9678
20
-6.79187
11
1.97343
21
-6.78062
0
LINE
8
BLACK
6
CONTINUOUS
10
1.97343
20
-6.78062
11
1.97905
21
-6.775
0
LINE
8
BLACK
6
CONTINUOUS
10
1.97905
20
-6.775
11
1.9903
21
-6.76938
0
LINE
8
BLACK
6
CONTINUOUS
10
2.10278
20
-6.76938
11
2.11403
21
-6.76938
0
LINE
8
BLACK
6
CONTINUOUS
10
2.11403
20
-6.76938
11
2.12528
21
-6.775
0
LINE
8
BLACK
6
CONTINUOUS
10
2.12528
20
-6.775
11
2.13091
21
-6.78062
0
LINE
8
BLACK
6
CONTINUOUS
10
2.13091
20
-6.78062
11
2.13653
21
-6.79187
0
LINE
8
BLACK
6
CONTINUOUS
10
2.13653
20
-6.79187
11
2.14215
21
-6.81437
0
LINE
8
BLACK
6
CONTINUOUS
10
2.14215
20
-6.81437
11
2.14215
21
-6.84249
0
LINE
8
BLACK
6
CONTINUOUS
10
2.14215
20
-6.84249
11
2.13653
21
-6.86499
0
LINE
8
BLACK
6
CONTINUOUS
10
2.13653
20
-6.86499
11
2.13091
21
-6.87624
0
LINE
8
BLACK
6
CONTINUOUS
10
2.13091
20
-6.87624
11
2.12528
21
-6.88186
0
LINE
8
BLACK
6
CONTINUOUS
10
2.12528
20
-6.88186
11
2.11403
21
-6.88749
0
LINE
8
BLACK
6
CONTINUOUS
10
2.11403
20
-6.88749
11
2.10278
21
-6.88749
0
LINE
8
BLACK
6
CONTINUOUS
10
2.10278
20
-6.88749
11
2.09154
21
-6.88186
0
LINE
8
BLACK
6
CONTINUOUS
10
2.09154
20
-6.88186
11
2.08591
21
-6.87624
0
LINE
8
BLACK
6
CONTINUOUS
10
2.08591
20
-6.87624
11
2.08029
21
-6.86499
0
LINE
8
BLACK
6
CONTINUOUS
10
2.08029
20
-6.86499
11
2.07466
21
-6.84249
0
LINE
8
BLACK
6
CONTINUOUS
10
2.07466
20
-6.84249
11
2.07466
21
-6.81437
0
LINE
8
BLACK
6
CONTINUOUS
10
2.07466
20
-6.81437
11
2.08029
21
-6.79187
0
LINE
8
BLACK
6
CONTINUOUS
10
2.08029
20
-6.79187
11
2.08591
21
-6.78062
0
LINE
8
BLACK
6
CONTINUOUS
10
2.08591
20
-6.78062
11
2.09154
21
-6.775
0
LINE
8
BLACK
6
CONTINUOUS
10
2.09154
20
-6.775
11
2.10278
21
-6.76938
0
LINE
8
BLACK
6
CONTINUOUS
10
2.19277
20
-6.88749
11
2.19277
21
-6.80875
0
LINE
8
BLACK
6
CONTINUOUS
10
2.19277
20
-6.81999
11
2.1984
21
-6.81437
0
LINE
8
BLACK
6
CONTINUOUS
10
2.1984
20
-6.81437
11
2.20965
21
-6.80875
0
LINE
8
BLACK
6
CONTINUOUS
10
2.20965
20
-6.80875
11
2.22652
21
-6.80875
0
LINE
8
BLACK
6
CONTINUOUS
10
2.22652
20
-6.80875
11
2.23777
21
-6.81437
0
LINE
8
BLACK
6
CONTINUOUS
10
2.23777
20
-6.81437
11
2.24339
21
-6.82562
0
LINE
8
BLACK
6
CONTINUOUS
10
2.24339
20
-6.82562
11
2.24339
21
-6.88749
0
LINE
8
BLACK
6
CONTINUOUS
10
2.24339
20
-6.82562
11
2.24902
21
-6.81437
0
LINE
8
BLACK
6
CONTINUOUS
10
2.24902
20
-6.81437
11
2.26026
21
-6.80875
0
LINE
8
BLACK
6
CONTINUOUS
10
2.26026
20
-6.80875
11
2.27714
21
-6.80875
0
LINE
8
BLACK
6
CONTINUOUS
10
2.27714
20
-6.80875
11
2.28839
21
-6.81437
0
LINE
8
BLACK
6
CONTINUOUS
10
2.28839
20
-6.81437
11
2.29401
21
-6.82562
0
LINE
8
BLACK
6
CONTINUOUS
10
2.29401
20
-6.82562
11
2.29401
21
-6.88749
0
LINE
8
BLACK
6
CONTINUOUS
10
2.35025
20
-6.88749
11
2.35025
21
-6.80875
0
LINE
8
BLACK
6
CONTINUOUS
10
2.35025
20
-6.81999
11
2.35588
21
-6.81437
0
LINE
8
BLACK
6
CONTINUOUS
10
2.35588
20
-6.81437
11
2.36713
21
-6.80875
0
LINE
8
BLACK
6
CONTINUOUS
10
2.36713
20
-6.80875
11
2.384
21
-6.80875
0
LINE
8
BLACK
6
CONTINUOUS
10
2.384
20
-6.80875
11
2.39525
21
-6.81437
0
LINE
8
BLACK
6
CONTINUOUS
10
2.39525
20
-6.81437
11
2.40087
21
-6.82562
0
LINE
8
BLACK
6
CONTINUOUS
10
2.40087
20
-6.82562
11
2.40087
21
-6.88749
0
LINE
8
BLACK
6
CONTINUOUS
10
2.40087
20
-6.82562
11
2.4065
21
-6.81437
0
LINE
8
BLACK
6
CONTINUOUS
10
2.4065
20
-6.81437
11
2.41774
21
-6.80875
0
LINE
8
BLACK
6
CONTINUOUS
10
2.41774
20
-6.80875
11
2.43462
21
-6.80875
0
LINE
8
BLACK
6
CONTINUOUS
10
2.43462
20
-6.80875
11
2.44587
21
-6.81437
0
LINE
8
BLACK
6
CONTINUOUS
10
2.44587
20
-6.81437
11
2.45149
21
-6.82562
0
LINE
8
BLACK
6
CONTINUOUS
10
2.45149
20
-6.82562
11
2.45149
21
-6.88749
0
LINE
8
BLACK
6
CONTINUOUS
10
2.68209
20
-6.76375
11
2.58085
21
-6.91561
0
LINE
8
BLACK
6
CONTINUOUS
10
2.83394
20
-6.76938
11
2.84519
21
-6.76938
0
LINE
8
BLACK
6
CONTINUOUS
10
2.84519
20
-6.76938
11
2.85644
21
-6.775
0
LINE
8
BLACK
6
CONTINUOUS
10
2.85644
20
-6.775
11
2.86206
21
-6.78062
0
LINE
8
BLACK
6
CONTINUOUS
10
2.86206
20
-6.78062
11
2.86769
21
-6.79187
0
LINE
8
BLACK
6
CONTINUOUS
10
2.86769
20
-6.79187
11
2.87331
21
-6.81437
0
LINE
8
BLACK
6
CONTINUOUS
10
2.87331
20
-6.81437
11
2.87331
21
-6.84249
0
LINE
8
BLACK
6
CONTINUOUS
10
2.87331
20
-6.84249
11
2.86769
21
-6.86499
0
LINE
8
BLACK
6
CONTINUOUS
10
2.86769
20
-6.86499
11
2.86206
21
-6.87624
0
LINE
8
BLACK
6
CONTINUOUS
10
2.86206
20
-6.87624
11
2.85644
21
-6.88186
0
LINE
8
BLACK
6
CONTINUOUS
10
2.85644
20
-6.88186
11
2.84519
21
-6.88749
0
LINE
8
BLACK
6
CONTINUOUS
10
2.84519
20
-6.88749
11
2.83394
21
-6.88749
0
LINE
8
BLACK
6
CONTINUOUS
10
2.83394
20
-6.88749
11
2.82269
21
-6.88186
0
LINE
8
BLACK
6
CONTINUOUS
10
2.82269
20
-6.88186
11
2.81707
21
-6.87624
0
LINE
8
BLACK
6
CONTINUOUS
10
2.81707
20
-6.87624
11
2.81145
21
-6.86499
0
LINE
8
BLACK
6
CONTINUOUS
10
2.81145
20
-6.86499
11
2.80582
21
-6.84249
0
LINE
8
BLACK
6
CONTINUOUS
10
2.80582
20
-6.84249
11
2.80582
21
-6.81437
0
LINE
8
BLACK
6
CONTINUOUS
10
2.80582
20
-6.81437
11
2.81145
21
-6.79187
0
LINE
8
BLACK
6
CONTINUOUS
10
2.81145
20
-6.79187
11
2.81707
21
-6.78062
0
LINE
8
BLACK
6
CONTINUOUS
10
2.81707
20
-6.78062
11
2.82269
21
-6.775
0
LINE
8
BLACK
6
CONTINUOUS
10
2.82269
20
-6.775
11
2.83394
21
-6.76938
0
LINE
8
BLACK
6
CONTINUOUS
10
2.92393
20
-6.87624
11
2.92956
21
-6.88186
0
LINE
8
BLACK
6
CONTINUOUS
10
2.92956
20
-6.88186
11
2.92393
21
-6.88749
0
LINE
8
BLACK
6
CONTINUOUS
10
2.92393
20
-6.88749
11
2.91831
21
-6.88186
0
LINE
8
BLACK
6
CONTINUOUS
10
2.91831
20
-6.88186
11
2.92393
21
-6.87624
0
LINE
8
BLACK
6
CONTINUOUS
10
2.92393
20
-6.87624
11
2.92393
21
-6.88749
0
LINE
8
BLACK
6
CONTINUOUS
10
3.00267
20
-6.76938
11
3.01392
21
-6.76938
0
LINE
8
BLACK
6
CONTINUOUS
10
3.01392
20
-6.76938
11
3.02517
21
-6.775
0
LINE
8
BLACK
6
CONTINUOUS
10
3.02517
20
-6.775
11
3.03079
21
-6.78062
0
LINE
8
BLACK
6
CONTINUOUS
10
3.03079
20
-6.78062
11
3.03642
21
-6.79187
0
LINE
8
BLACK
6
CONTINUOUS
10
3.03642
20
-6.79187
11
3.04204
21
-6.81437
0
LINE
8
BLACK
6
CONTINUOUS
10
3.04204
20
-6.81437
11
3.04204
21
-6.84249
0
LINE
8
BLACK
6
CONTINUOUS
10
3.04204
20
-6.84249
11
3.03642
21
-6.86499
0
LINE
8
BLACK
6
CONTINUOUS
10
3.03642
20
-6.86499
11
3.03079
21
-6.87624
0
LINE
8
BLACK
6
CONTINUOUS
10
3.03079
20
-6.87624
11
3.02517
21
-6.88186
0
LINE
8
BLACK
6
CONTINUOUS
10
3.02517
20
-6.88186
11
3.01392
21
-6.88749
0
LINE
8
BLACK
6
CONTINUOUS
10
3.01392
20
-6.88749
11
3.00267
21
-6.88749
0
LINE
8
BLACK
6
CONTINUOUS
10
3.00267
20
-6.88749
11
2.99142
21
-6.88186
0
LINE
8
BLACK
6
CONTINUOUS
10
2.99142
20
-6.88186
11
2.9858
21
-6.87624
0
LINE
8
BLACK
6
CONTINUOUS
10
2.9858
20
-6.87624
11
2.98017
21
-6.86499
0
LINE
8
BLACK
6
CONTINUOUS
10
2.98017
20
-6.86499
11
2.97455
21
-6.84249
0
LINE
8
BLACK
6
CONTINUOUS
10
2.97455
20
-6.84249
11
2.97455
21
-6.81437
0
LINE
8
BLACK
6
CONTINUOUS
10
2.97455
20
-6.81437
11
2.98017
21
-6.79187
0
LINE
8
BLACK
6
CONTINUOUS
10
2.98017
20
-6.79187
11
2.9858
21
-6.78062
0
LINE
8
BLACK
6
CONTINUOUS
10
2.9858
20
-6.78062
11
2.99142
21
-6.775
0
LINE
8
BLACK
6
CONTINUOUS
10
2.99142
20
-6.775
11
3.00267
21
-6.76938
0
LINE
8
BLACK
6
CONTINUOUS
10
3.08141
20
-6.76938
11
3.15453
21
-6.76938
0
LINE
8
BLACK
6
CONTINUOUS
10
3.15453
20
-6.76938
11
3.11516
21
-6.81437
0
LINE
8
BLACK
6
CONTINUOUS
10
3.11516
20
-6.81437
11
3.13203
21
-6.81437
0
LINE
8
BLACK
6
CONTINUOUS
10
3.13203
20
-6.81437
11
3.14328
21
-6.81999
0
LINE
8
BLACK
6
CONTINUOUS
10
3.14328
20
-6.81999
11
3.1489
21
-6.82562
0
LINE
8
BLACK
6
CONTINUOUS
10
3.1489
20
-6.82562
11
3.15453
21
-6.83687
0
LINE
8
BLACK
6
CONTINUOUS
10
3.15453
20
-6.83687
11
3.15453
21
-6.86499
0
LINE
8
BLACK
6
CONTINUOUS
10
3.15453
20
-6.86499
11
3.1489
21
-6.87624
0
LINE
8
BLACK
6
CONTINUOUS
10
3.1489
20
-6.87624
11
3.14328
21
-6.88186
0
LINE
8
BLACK
6
CONTINUOUS
10
3.14328
20
-6.88186
11
3.13203
21
-6.88749
0
LINE
8
BLACK
6
CONTINUOUS
10
3.13203
20
-6.88749
11
3.09828
21
-6.88749
0
LINE
8
BLACK
6
CONTINUOUS
10
3.09828
20
-6.88749
11
3.08704
21
-6.88186
0
LINE
8
BLACK
6
CONTINUOUS
10
3.08704
20
-6.88186
11
3.08141
21
-6.87624
0
LINE
8
BLACK
6
CONTINUOUS
10
3.26701
20
-6.88749
11
3.19952
21
-6.88749
0
LINE
8
BLACK
6
CONTINUOUS
10
3.23327
20
-6.88749
11
3.23327
21
-6.76938
0
LINE
8
BLACK
6
CONTINUOUS
10
3.23327
20
-6.76938
11
3.22202
21
-6.78625
0
LINE
8
BLACK
6
CONTINUOUS
10
3.22202
20
-6.78625
11
3.21077
21
-6.7975
0
LINE
8
BLACK
6
CONTINUOUS
10
3.21077
20
-6.7975
11
3.19952
21
-6.80312
0
LINE
8
BLACK
6
CONTINUOUS
10
3.37388
20
-6.76938
11
3.31763
21
-6.76938
0
LINE
8
BLACK
6
CONTINUOUS
10
3.31763
20
-6.76938
11
3.31201
21
-6.82562
0
LINE
8
BLACK
6
CONTINUOUS
10
3.31201
20
-6.82562
11
3.31763
21
-6.81999
0
LINE
8
BLACK
6
CONTINUOUS
10
3.31763
20
-6.81999
11
3.32888
21
-6.81437
0
LINE
8
BLACK
6
CONTINUOUS
10
3.32888
20
-6.81437
11
3.357
21
-6.81437
0
LINE
8
BLACK
6
CONTINUOUS
10
3.357
20
-6.81437
11
3.36825
21
-6.81999
0
LINE
8
BLACK
6
CONTINUOUS
10
3.36825
20
-6.81999
11
3.37388
21
-6.82562
0
LINE
8
BLACK
6
CONTINUOUS
10
3.37388
20
-6.82562
11
3.3795
21
-6.83687
0
LINE
8
BLACK
6
CONTINUOUS
10
3.3795
20
-6.83687
11
3.3795
21
-6.86499
0
LINE
8
BLACK
6
CONTINUOUS
10
3.3795
20
-6.86499
11
3.37388
21
-6.87624
0
LINE
8
BLACK
6
CONTINUOUS
10
3.37388
20
-6.87624
11
3.36825
21
-6.88186
0
LINE
8
BLACK
6
CONTINUOUS
10
3.36825
20
-6.88186
11
3.357
21
-6.88749
0
LINE
8
BLACK
6
CONTINUOUS
10
3.357
20
-6.88749
11
3.32888
21
-6.88749
0
LINE
8
BLACK
6
CONTINUOUS
10
3.32888
20
-6.88749
11
3.31763
21
-6.88186
0
LINE
8
BLACK
6
CONTINUOUS
10
3.31763
20
-6.88186
11
3.31201
21
-6.87624
0
LINE
8
BLACK
6
CONTINUOUS
10
3.42449
20
-6.76938
11
3.42449
21
-6.79187
0
LINE
8
BLACK
6
CONTINUOUS
10
3.46949
20
-6.76938
11
3.46949
21
-6.79187
0
LINE
8
BLACK
6
CONTINUOUS
10
3.64384
20
-6.93248
11
3.63822
21
-6.92686
0
LINE
8
BLACK
6
CONTINUOUS
10
3.63822
20
-6.92686
11
3.62697
21
-6.90998
0
LINE
8
BLACK
6
CONTINUOUS
10
3.62697
20
-6.90998
11
3.62134
21
-6.89873
0
LINE
8
BLACK
6
CONTINUOUS
10
3.62134
20
-6.89873
11
3.61572
21
-6.88186
0
LINE
8
BLACK
6
CONTINUOUS
10
3.61572
20
-6.88186
11
3.6101
21
-6.85374
0
LINE
8
BLACK
6
CONTINUOUS
10
3.6101
20
-6.85374
11
3.6101
21
-6.83124
0
LINE
8
BLACK
6
CONTINUOUS
10
3.6101
20
-6.83124
11
3.61572
21
-6.80312
0
LINE
8
BLACK
6
CONTINUOUS
10
3.61572
20
-6.80312
11
3.62134
21
-6.78625
0
LINE
8
BLACK
6
CONTINUOUS
10
3.62134
20
-6.78625
11
3.62697
21
-6.775
0
LINE
8
BLACK
6
CONTINUOUS
10
3.62697
20
-6.775
11
3.63822
21
-6.75813
0
LINE
8
BLACK
6
CONTINUOUS
10
3.63822
20
-6.75813
11
3.64384
21
-6.7525
0
LINE
8
BLACK
6
CONTINUOUS
10
3.68321
20
-6.78062
11
3.68884
21
-6.775
0
LINE
8
BLACK
6
CONTINUOUS
10
3.68884
20
-6.775
11
3.70008
21
-6.76938
0
LINE
8
BLACK
6
CONTINUOUS
10
3.70008
20
-6.76938
11
3.72821
21
-6.76938
0
LINE
8
BLACK
6
CONTINUOUS
10
3.72821
20
-6.76938
11
3.73945
21
-6.775
0
LINE
8
BLACK
6
CONTINUOUS
10
3.73945
20
-6.775
11
3.74508
21
-6.78062
0
LINE
8
BLACK
6
CONTINUOUS
10
3.74508
20
-6.78062
11
3.7507
21
-6.79187
0
LINE
8
BLACK
6
CONTINUOUS
10
3.7507
20
-6.79187
11
3.7507
21
-6.80312
0
LINE
8
BLACK
6
CONTINUOUS
10
3.7507
20
-6.80312
11
3.74508
21
-6.81999
0
LINE
8
BLACK
6
CONTINUOUS
10
3.74508
20
-6.81999
11
3.67759
21
-6.88749
0
LINE
8
BLACK
6
CONTINUOUS
10
3.67759
20
-6.88749
11
3.7507
21
-6.88749
0
LINE
8
BLACK
6
CONTINUOUS
10
3.82382
20
-6.76938
11
3.83507
21
-6.76938
0
LINE
8
BLACK
6
CONTINUOUS
10
3.83507
20
-6.76938
11
3.84632
21
-6.775
0
LINE
8
BLACK
6
CONTINUOUS
10
3.84632
20
-6.775
11
3.85194
21
-6.78062
0
LINE
8
BLACK
6
CONTINUOUS
10
3.85194
20
-6.78062
11
3.85756
21
-6.79187
0
LINE
8
BLACK
6
CONTINUOUS
10
3.85756
20
-6.79187
11
3.86319
21
-6.81437
0
LINE
8
BLACK
6
CONTINUOUS
10
3.86319
20
-6.81437
11
3.86319
21
-6.84249
0
LINE
8
BLACK
6
CONTINUOUS
10
3.86319
20
-6.84249
11
3.85756
21
-6.86499
0
LINE
8
BLACK
6
CONTINUOUS
10
3.85756
20
-6.86499
11
3.85194
21
-6.87624
0
LINE
8
BLACK
6
CONTINUOUS
10
3.85194
20
-6.87624
11
3.84632
21
-6.88186
0
LINE
8
BLACK
6
CONTINUOUS
10
3.84632
20
-6.88186
11
3.83507
21
-6.88749
0
LINE
8
BLACK
6
CONTINUOUS
10
3.83507
20
-6.88749
11
3.82382
21
-6.88749
0
LINE
8
BLACK
6
CONTINUOUS
10
3.82382
20
-6.88749
11
3.81257
21
-6.88186
0
LINE
8
BLACK
6
CONTINUOUS
10
3.81257
20
-6.88186
11
3.80695
21
-6.87624
0
LINE
8
BLACK
6
CONTINUOUS
10
3.80695
20
-6.87624
11
3.80132
21
-6.86499
0
LINE
8
BLACK
6
CONTINUOUS
10
3.80132
20
-6.86499
11
3.7957
21
-6.84249
0
LINE
8
BLACK
6
CONTINUOUS
10
3.7957
20
-6.84249
11
3.7957
21
-6.81437
0
LINE
8
BLACK
6
CONTINUOUS
10
3.7957
20
-6.81437
11
3.80132
21
-6.79187
0
LINE
8
BLACK
6
CONTINUOUS
10
3.80132
20
-6.79187
11
3.80695
21
-6.78062
0
LINE
8
BLACK
6
CONTINUOUS
10
3.80695
20
-6.78062
11
3.81257
21
-6.775
0
LINE
8
BLACK
6
CONTINUOUS
10
3.81257
20
-6.775
11
3.82382
21
-6.76938
0
LINE
8
BLACK
6
CONTINUOUS
10
3.90256
20
-6.76938
11
3.97567
21
-6.76938
0
LINE
8
BLACK
6
CONTINUOUS
10
3.97567
20
-6.76938
11
3.9363
21
-6.81437
0
LINE
8
BLACK
6
CONTINUOUS
10
3.9363
20
-6.81437
11
3.95318
21
-6.81437
0
LINE
8
BLACK
6
CONTINUOUS
10
3.95318
20
-6.81437
11
3.96443
21
-6.81999
0
LINE
8
BLACK
6
CONTINUOUS
10
3.96443
20
-6.81999
11
3.97005
21
-6.82562
0
LINE
8
BLACK
6
CONTINUOUS
10
3.97005
20
-6.82562
11
3.97567
21
-6.83687
0
LINE
8
BLACK
6
CONTINUOUS
10
3.97567
20
-6.83687
11
3.97567
21
-6.86499
0
LINE
8
BLACK
6
CONTINUOUS
10
3.97567
20
-6.86499
11
3.97005
21
-6.87624
0
LINE
8
BLACK
6
CONTINUOUS
10
3.97005
20
-6.87624
11
3.96443
21
-6.88186
0
LINE
8
BLACK
6
CONTINUOUS
10
3.96443
20
-6.88186
11
3.95318
21
-6.88749
0
LINE
8
BLACK
6
CONTINUOUS
10
3.95318
20
-6.88749
11
3.91943
21
-6.88749
0
LINE
8
BLACK
6
CONTINUOUS
10
3.91943
20
-6.88749
11
3.90818
21
-6.88186
0
LINE
8
BLACK
6
CONTINUOUS
10
3.90818
20
-6.88186
11
3.90256
21
-6.87624
0
LINE
8
BLACK
6
CONTINUOUS
10
4.11628
20
-6.88749
11
4.11628
21
-6.76938
0
LINE
8
BLACK
6
CONTINUOUS
10
4.1669
20
-6.88749
11
4.1669
21
-6.82562
0
LINE
8
BLACK
6
CONTINUOUS
10
4.1669
20
-6.82562
11
4.16128
21
-6.81437
0
LINE
8
BLACK
6
CONTINUOUS
10
4.16128
20
-6.81437
11
4.15003
21
-6.80875
0
LINE
8
BLACK
6
CONTINUOUS
10
4.15003
20
-6.80875
11
4.13316
21
-6.80875
0
LINE
8
BLACK
6
CONTINUOUS
10
4.13316
20
-6.80875
11
4.12191
21
-6.81437
0
LINE
8
BLACK
6
CONTINUOUS
10
4.12191
20
-6.81437
11
4.11628
21
-6.81999
0
LINE
8
BLACK
6
CONTINUOUS
10
4.24002
20
-6.88749
11
4.22877
21
-6.88186
0
LINE
8
BLACK
6
CONTINUOUS
10
4.22877
20
-6.88186
11
4.22314
21
-6.87624
0
LINE
8
BLACK
6
CONTINUOUS
10
4.22314
20
-6.87624
11
4.21752
21
-6.86499
0
LINE
8
BLACK
6
CONTINUOUS
10
4.21752
20
-6.86499
11
4.21752
21
-6.83124
0
LINE
8
BLACK
6
CONTINUOUS
10
4.21752
20
-6.83124
11
4.22314
21
-6.81999
0
LINE
8
BLACK
6
CONTINUOUS
10
4.22314
20
-6.81999
11
4.22877
21
-6.81437
0
LINE
8
BLACK
6
CONTINUOUS
10
4.22877
20
-6.81437
11
4.24002
21
-6.80875
0
LINE
8
BLACK
6
CONTINUOUS
10
4.24002
20
-6.80875
11
4.25689
21
-6.80875
0
LINE
8
BLACK
6
CONTINUOUS
10
4.25689
20
-6.80875
11
4.26814
21
-6.81437
0
LINE
8
BLACK
6
CONTINUOUS
10
4.26814
20
-6.81437
11
4.27376
21
-6.81999
0
LINE
8
BLACK
6
CONTINUOUS
10
4.27376
20
-6.81999
11
4.27939
21
-6.83124
0
LINE
8
BLACK
6
CONTINUOUS
10
4.27939
20
-6.83124
11
4.27939
21
-6.86499
0
LINE
8
BLACK
6
CONTINUOUS
10
4.27939
20
-6.86499
11
4.27376
21
-6.87624
0
LINE
8
BLACK
6
CONTINUOUS
10
4.27376
20
-6.87624
11
4.26814
21
-6.88186
0
LINE
8
BLACK
6
CONTINUOUS
10
4.26814
20
-6.88186
11
4.25689
21
-6.88749
0
LINE
8
BLACK
6
CONTINUOUS
10
4.25689
20
-6.88749
11
4.24002
21
-6.88749
0
LINE
8
BLACK
6
CONTINUOUS
10
4.34688
20
-6.88749
11
4.33563
21
-6.88186
0
LINE
8
BLACK
6
CONTINUOUS
10
4.33563
20
-6.88186
11
4.33001
21
-6.87061
0
LINE
8
BLACK
6
CONTINUOUS
10
4.33001
20
-6.87061
11
4.33001
21
-6.76938
0
LINE
8
BLACK
6
CONTINUOUS
10
4.43687
20
-6.88186
11
4.42562
21
-6.88749
0
LINE
8
BLACK
6
CONTINUOUS
10
4.42562
20
-6.88749
11
4.40312
21
-6.88749
0
LINE
8
BLACK
6
CONTINUOUS
10
4.40312
20
-6.88749
11
4.39187
21
-6.88186
0
LINE
8
BLACK
6
CONTINUOUS
10
4.39187
20
-6.88186
11
4.38625
21
-6.87061
0
LINE
8
BLACK
6
CONTINUOUS
10
4.38625
20
-6.87061
11
4.38625
21
-6.82562
0
LINE
8
BLACK
6
CONTINUOUS
10
4.38625
20
-6.82562
11
4.39187
21
-6.81437
0
LINE
8
BLACK
6
CONTINUOUS
10
4.39187
20
-6.81437
11
4.40312
21
-6.80875
0
LINE
8
BLACK
6
CONTINUOUS
10
4.40312
20
-6.80875
11
4.42562
21
-6.80875
0
LINE
8
BLACK
6
CONTINUOUS
10
4.42562
20
-6.80875
11
4.43687
21
-6.81437
0
LINE
8
BLACK
6
CONTINUOUS
10
4.43687
20
-6.81437
11
4.44249
21
-6.82562
0
LINE
8
BLACK
6
CONTINUOUS
10
4.44249
20
-6.82562
11
4.44249
21
-6.83687
0
LINE
8
BLACK
6
CONTINUOUS
10
4.44249
20
-6.83687
11
4.38625
21
-6.84812
0
LINE
8
BLACK
6
CONTINUOUS
10
4.48749
20
-6.88186
11
4.49873
21
-6.88749
0
LINE
8
BLACK
6
CONTINUOUS
10
4.49873
20
-6.88749
11
4.52123
21
-6.88749
0
LINE
8
BLACK
6
CONTINUOUS
10
4.52123
20
-6.88749
11
4.53248
21
-6.88186
0
LINE
8
BLACK
6
CONTINUOUS
10
4.53248
20
-6.88186
11
4.5381
21
-6.87061
0
LINE
8
BLACK
6
CONTINUOUS
10
4.5381
20
-6.87061
11
4.5381
21
-6.86499
0
LINE
8
BLACK
6
CONTINUOUS
10
4.5381
20
-6.86499
11
4.53248
21
-6.85374
0
LINE
8
BLACK
6
CONTINUOUS
10
4.53248
20
-6.85374
11
4.52123
21
-6.84812
0
LINE
8
BLACK
6
CONTINUOUS
10
4.52123
20
-6.84812
11
4.50436
21
-6.84812
0
LINE
8
BLACK
6
CONTINUOUS
10
4.50436
20
-6.84812
11
4.49311
21
-6.84249
0
LINE
8
BLACK
6
CONTINUOUS
10
4.49311
20
-6.84249
11
4.48749
21
-6.83124
0
LINE
8
BLACK
6
CONTINUOUS
10
4.48749
20
-6.83124
11
4.48749
21
-6.82562
0
LINE
8
BLACK
6
CONTINUOUS
10
4.48749
20
-6.82562
11
4.49311
21
-6.81437
0
LINE
8
BLACK
6
CONTINUOUS
10
4.49311
20
-6.81437
11
4.50436
21
-6.80875
0
LINE
8
BLACK
6
CONTINUOUS
10
4.50436
20
-6.80875
11
4.52123
21
-6.80875
0
LINE
8
BLACK
6
CONTINUOUS
10
4.52123
20
-6.80875
11
4.53248
21
-6.81437
0
LINE
8
BLACK
6
CONTINUOUS
10
4.57747
20
-6.93248
11
4.5831
21
-6.92686
0
LINE
8
BLACK
6
CONTINUOUS
10
4.5831
20
-6.92686
11
4.59435
21
-6.90998
0
LINE
8
BLACK
6
CONTINUOUS
10
4.59435
20
-6.90998
11
4.59997
21
-6.89873
0
LINE
8
BLACK
6
CONTINUOUS
10
4.59997
20
-6.89873
11
4.6056
21
-6.88186
0
LINE
8
BLACK
6
CONTINUOUS
10
4.6056
20
-6.88186
11
4.61122
21
-6.85374
0
LINE
8
BLACK
6
CONTINUOUS
10
4.61122
20
-6.85374
11
4.61122
21
-6.83124
0
LINE
8
BLACK
6
CONTINUOUS
10
4.61122
20
-6.83124
11
4.6056
21
-6.80312
0
LINE
8
BLACK
6
CONTINUOUS
10
4.6056
20
-6.80312
11
4.59997
21
-6.78625
0
LINE
8
BLACK
6
CONTINUOUS
10
4.59997
20
-6.78625
11
4.59435
21
-6.775
0
LINE
8
BLACK
6
CONTINUOUS
10
4.59435
20
-6.775
11
4.5831
21
-6.75813
0
LINE
8
BLACK
6
CONTINUOUS
10
4.5831
20
-6.75813
11
4.57747
21
-6.7525
0
LINE
8
BLACK
6
CONTINUOUS
10
1.5561
20
-6.97224
11
1.5561
21
-7.00768
0
LINE
8
BLACK
6
CONTINUOUS
10
1.53839
20
-6.98996
11
1.57382
21
-6.98996
0
LINE
8
BLACK
6
CONTINUOUS
10
1.70908
20
-6.92528
11
1.72033
21
-6.92528
0
LINE
8
BLACK
6
CONTINUOUS
10
1.72033
20
-6.92528
11
1.73158
21
-6.93091
0
LINE
8
BLACK
6
CONTINUOUS
10
1.73158
20
-6.93091
11
1.7372
21
-6.93653
0
LINE
8
BLACK
6
CONTINUOUS
10
1.7372
20
-6.93653
11
1.74283
21
-6.94778
0
LINE
8
BLACK
6
CONTINUOUS
10
1.74283
20
-6.94778
11
1.74845
21
-6.97028
0
LINE
8
BLACK
6
CONTINUOUS
10
1.74845
20
-6.97028
11
1.74845
21
-6.9984
0
LINE
8
BLACK
6
CONTINUOUS
10
1.74845
20
-6.9984
11
1.74283
21
-7.02089
0
LINE
8
BLACK
6
CONTINUOUS
10
1.74283
20
-7.02089
11
1.7372
21
-7.03214
0
LINE
8
BLACK
6
CONTINUOUS
10
1.7372
20
-7.03214
11
1.73158
21
-7.03777
0
LINE
8
BLACK
6
CONTINUOUS
10
1.73158
20
-7.03777
11
1.72033
21
-7.04339
0
LINE
8
BLACK
6
CONTINUOUS
10
1.72033
20
-7.04339
11
1.70908
21
-7.04339
0
LINE
8
BLACK
6
CONTINUOUS
10
1.70908
20
-7.04339
11
1.69783
21
-7.03777
0
LINE
8
BLACK
6
CONTINUOUS
10
1.69783
20
-7.03777
11
1.69221
21
-7.03214
0
LINE
8
BLACK
6
CONTINUOUS
10
1.69221
20
-7.03214
11
1.68659
21
-7.02089
0
LINE
8
BLACK
6
CONTINUOUS
10
1.68659
20
-7.02089
11
1.68096
21
-6.9984
0
LINE
8
BLACK
6
CONTINUOUS
10
1.68096
20
-6.9984
11
1.68096
21
-6.97028
0
LINE
8
BLACK
6
CONTINUOUS
10
1.68096
20
-6.97028
11
1.68659
21
-6.94778
0
LINE
8
BLACK
6
CONTINUOUS
10
1.68659
20
-6.94778
11
1.69221
21
-6.93653
0
LINE
8
BLACK
6
CONTINUOUS
10
1.69221
20
-6.93653
11
1.69783
21
-6.93091
0
LINE
8
BLACK
6
CONTINUOUS
10
1.69783
20
-6.93091
11
1.70908
21
-6.92528
0
LINE
8
BLACK
6
CONTINUOUS
10
1.79907
20
-7.03214
11
1.8047
21
-7.03777
0
LINE
8
BLACK
6
CONTINUOUS
10
1.8047
20
-7.03777
11
1.79907
21
-7.04339
0
LINE
8
BLACK
6
CONTINUOUS
10
1.79907
20
-7.04339
11
1.79345
21
-7.03777
0
LINE
8
BLACK
6
CONTINUOUS
10
1.79345
20
-7.03777
11
1.79907
21
-7.03214
0
LINE
8
BLACK
6
CONTINUOUS
10
1.79907
20
-7.03214
11
1.79907
21
-7.04339
0
LINE
8
BLACK
6
CONTINUOUS
10
1.86094
20
-7.04339
11
1.88344
21
-7.04339
0
LINE
8
BLACK
6
CONTINUOUS
10
1.88344
20
-7.04339
11
1.89468
21
-7.03777
0
LINE
8
BLACK
6
CONTINUOUS
10
1.89468
20
-7.03777
11
1.90031
21
-7.03214
0
LINE
8
BLACK
6
CONTINUOUS
10
1.90031
20
-7.03214
11
1.91156
21
-7.01527
0
LINE
8
BLACK
6
CONTINUOUS
10
1.91156
20
-7.01527
11
1.91718
21
-6.99277
0
LINE
8
BLACK
6
CONTINUOUS
10
1.91718
20
-6.99277
11
1.91718
21
-6.94778
0
LINE
8
BLACK
6
CONTINUOUS
10
1.91718
20
-6.94778
11
1.91156
21
-6.93653
0
LINE
8
BLACK
6
CONTINUOUS
10
1.91156
20
-6.93653
11
1.90593
21
-6.93091
0
LINE
8
BLACK
6
CONTINUOUS
10
1.90593
20
-6.93091
11
1.89468
21
-6.92528
0
LINE
8
BLACK
6
CONTINUOUS
10
1.89468
20
-6.92528
11
1.87219
21
-6.92528
0
LINE
8
BLACK
6
CONTINUOUS
10
1.87219
20
-6.92528
11
1.86094
21
-6.93091
0
LINE
8
BLACK
6
CONTINUOUS
10
1.86094
20
-6.93091
11
1.85531
21
-6.93653
0
LINE
8
BLACK
6
CONTINUOUS
10
1.85531
20
-6.93653
11
1.84969
21
-6.94778
0
LINE
8
BLACK
6
CONTINUOUS
10
1.84969
20
-6.94778
11
1.84969
21
-6.9759
0
LINE
8
BLACK
6
CONTINUOUS
10
1.84969
20
-6.9759
11
1.85531
21
-6.98715
0
LINE
8
BLACK
6
CONTINUOUS
10
1.85531
20
-6.98715
11
1.86094
21
-6.99277
0
LINE
8
BLACK
6
CONTINUOUS
10
1.86094
20
-6.99277
11
1.87219
21
-6.9984
0
LINE
8
BLACK
6
CONTINUOUS
10
1.87219
20
-6.9984
11
1.89468
21
-6.9984
0
LINE
8
BLACK
6
CONTINUOUS
10
1.89468
20
-6.9984
11
1.90593
21
-6.99277
0
LINE
8
BLACK
6
CONTINUOUS
10
1.90593
20
-6.99277
11
1.91156
21
-6.98715
0
LINE
8
BLACK
6
CONTINUOUS
10
1.91156
20
-6.98715
11
1.91718
21
-6.9759
0
LINE
8
BLACK
6
CONTINUOUS
10
1.9903
20
-6.92528
11
2.00155
21
-6.92528
0
LINE
8
BLACK
6
CONTINUOUS
10
2.00155
20
-6.92528
11
2.0128
21
-6.93091
0
LINE
8
BLACK
6
CONTINUOUS
10
2.0128
20
-6.93091
11
2.01842
21
-6.93653
0
LINE
8
BLACK
6
CONTINUOUS
10
2.01842
20
-6.93653
11
2.02404
21
-6.94778
0
LINE
8
BLACK
6
CONTINUOUS
10
2.02404
20
-6.94778
11
2.02967
21
-6.97028
0
LINE
8
BLACK
6
CONTINUOUS
10
2.02967
20
-6.97028
11
2.02967
21
-6.9984
0
LINE
8
BLACK
6
CONTINUOUS
10
2.02967
20
-6.9984
11
2.02404
21
-7.02089
0
LINE
8
BLACK
6
CONTINUOUS
10
2.02404
20
-7.02089
11
2.01842
21
-7.03214
0
LINE
8
BLACK
6
CONTINUOUS
10
2.01842
20
-7.03214
11
2.0128
21
-7.03777
0
LINE
8
BLACK
6
CONTINUOUS
10
2.0128
20
-7.03777
11
2.00155
21
-7.04339
0
LINE
8
BLACK
6
CONTINUOUS
10
2.00155
20
-7.04339
11
1.9903
21
-7.04339
0
LINE
8
BLACK
6
CONTINUOUS
10
1.9903
20
-7.04339
11
1.97905
21
-7.03777
0
LINE
8
BLACK
6
CONTINUOUS
10
1.97905
20
-7.03777
11
1.97343
21
-7.03214
0
LINE
8
BLACK
6
CONTINUOUS
10
1.97343
20
-7.03214
11
1.9678
21
-7.02089
0
LINE
8
BLACK
6
CONTINUOUS
10
1.9678
20
-7.02089
11
1.96218
21
-6.9984
0
LINE
8
BLACK
6
CONTINUOUS
10
1.96218
20
-6.9984
11
1.96218
21
-6.97028
0
LINE
8
BLACK
6
CONTINUOUS
10
1.96218
20
-6.97028
11
1.9678
21
-6.94778
0
LINE
8
BLACK
6
CONTINUOUS
10
1.9678
20
-6.94778
11
1.97343
21
-6.93653
0
LINE
8
BLACK
6
CONTINUOUS
10
1.97343
20
-6.93653
11
1.97905
21
-6.93091
0
LINE
8
BLACK
6
CONTINUOUS
10
1.97905
20
-6.93091
11
1.9903
21
-6.92528
0
LINE
8
BLACK
6
CONTINUOUS
10
2.10278
20
-6.92528
11
2.11403
21
-6.92528
0
LINE
8
BLACK
6
CONTINUOUS
10
2.11403
20
-6.92528
11
2.12528
21
-6.93091
0
LINE
8
BLACK
6
CONTINUOUS
10
2.12528
20
-6.93091
11
2.13091
21
-6.93653
0
LINE
8
BLACK
6
CONTINUOUS
10
2.13091
20
-6.93653
11
2.13653
21
-6.94778
0
LINE
8
BLACK
6
CONTINUOUS
10
2.13653
20
-6.94778
11
2.14215
21
-6.97028
0
LINE
8
BLACK
6
CONTINUOUS
10
2.14215
20
-6.97028
11
2.14215
21
-6.9984
0
LINE
8
BLACK
6
CONTINUOUS
10
2.14215
20
-6.9984
11
2.13653
21
-7.02089
0
LINE
8
BLACK
6
CONTINUOUS
10
2.13653
20
-7.02089
11
2.13091
21
-7.03214
0
LINE
8
BLACK
6
CONTINUOUS
10
2.13091
20
-7.03214
11
2.12528
21
-7.03777
0
LINE
8
BLACK
6
CONTINUOUS
10
2.12528
20
-7.03777
11
2.11403
21
-7.04339
0
LINE
8
BLACK
6
CONTINUOUS
10
2.11403
20
-7.04339
11
2.10278
21
-7.04339
0
LINE
8
BLACK
6
CONTINUOUS
10
2.10278
20
-7.04339
11
2.09154
21
-7.03777
0
LINE
8
BLACK
6
CONTINUOUS
10
2.09154
20
-7.03777
11
2.08591
21
-7.03214
0
LINE
8
BLACK
6
CONTINUOUS
10
2.08591
20
-7.03214
11
2.08029
21
-7.02089
0
LINE
8
BLACK
6
CONTINUOUS
10
2.08029
20
-7.02089
11
2.07466
21
-6.9984
0
LINE
8
BLACK
6
CONTINUOUS
10
2.07466
20
-6.9984
11
2.07466
21
-6.97028
0
LINE
8
BLACK
6
CONTINUOUS
10
2.07466
20
-6.97028
11
2.08029
21
-6.94778
0
LINE
8
BLACK
6
CONTINUOUS
10
2.08029
20
-6.94778
11
2.08591
21
-6.93653
0
LINE
8
BLACK
6
CONTINUOUS
10
2.08591
20
-6.93653
11
2.09154
21
-6.93091
0
LINE
8
BLACK
6
CONTINUOUS
10
2.09154
20
-6.93091
11
2.10278
21
-6.92528
0
LINE
8
BLACK
6
CONTINUOUS
10
2.19277
20
-7.04339
11
2.19277
21
-6.96465
0
LINE
8
BLACK
6
CONTINUOUS
10
2.19277
20
-6.9759
11
2.1984
21
-6.97028
0
LINE
8
BLACK
6
CONTINUOUS
10
2.1984
20
-6.97028
11
2.20965
21
-6.96465
0
LINE
8
BLACK
6
CONTINUOUS
10
2.20965
20
-6.96465
11
2.22652
21
-6.96465
0
LINE
8
BLACK
6
CONTINUOUS
10
2.22652
20
-6.96465
11
2.23777
21
-6.97028
0
LINE
8
BLACK
6
CONTINUOUS
10
2.23777
20
-6.97028
11
2.24339
21
-6.98152
0
LINE
8
BLACK
6
CONTINUOUS
10
2.24339
20
-6.98152
11
2.24339
21
-7.04339
0
LINE
8
BLACK
6
CONTINUOUS
10
2.24339
20
-6.98152
11
2.24902
21
-6.97028
0
LINE
8
BLACK
6
CONTINUOUS
10
2.24902
20
-6.97028
11
2.26026
21
-6.96465
0
LINE
8
BLACK
6
CONTINUOUS
10
2.26026
20
-6.96465
11
2.27714
21
-6.96465
0
LINE
8
BLACK
6
CONTINUOUS
10
2.27714
20
-6.96465
11
2.28839
21
-6.97028
0
LINE
8
BLACK
6
CONTINUOUS
10
2.28839
20
-6.97028
11
2.29401
21
-6.98152
0
LINE
8
BLACK
6
CONTINUOUS
10
2.29401
20
-6.98152
11
2.29401
21
-7.04339
0
LINE
8
BLACK
6
CONTINUOUS
10
2.35025
20
-7.04339
11
2.35025
21
-6.96465
0
LINE
8
BLACK
6
CONTINUOUS
10
2.35025
20
-6.9759
11
2.35588
21
-6.97028
0
LINE
8
BLACK
6
CONTINUOUS
10
2.35588
20
-6.97028
11
2.36713
21
-6.96465
0
LINE
8
BLACK
6
CONTINUOUS
10
2.36713
20
-6.96465
11
2.384
21
-6.96465
0
LINE
8
BLACK
6
CONTINUOUS
10
2.384
20
-6.96465
11
2.39525
21
-6.97028
0
LINE
8
BLACK
6
CONTINUOUS
10
2.39525
20
-6.97028
11
2.40087
21
-6.98152
0
LINE
8
BLACK
6
CONTINUOUS
10
2.40087
20
-6.98152
11
2.40087
21
-7.04339
0
LINE
8
BLACK
6
CONTINUOUS
10
2.40087
20
-6.98152
11
2.4065
21
-6.97028
0
LINE
8
BLACK
6
CONTINUOUS
10
2.4065
20
-6.97028
11
2.41774
21
-6.96465
0
LINE
8
BLACK
6
CONTINUOUS
10
2.41774
20
-6.96465
11
2.43462
21
-6.96465
0
LINE
8
BLACK
6
CONTINUOUS
10
2.43462
20
-6.96465
11
2.44587
21
-6.97028
0
LINE
8
BLACK
6
CONTINUOUS
10
2.44587
20
-6.97028
11
2.45149
21
-6.98152
0
LINE
8
BLACK
6
CONTINUOUS
10
2.45149
20
-6.98152
11
2.45149
21
-7.04339
0
LINE
8
BLACK
6
CONTINUOUS
10
2.68209
20
-6.91966
11
2.58085
21
-7.07151
0
LINE
8
BLACK
6
CONTINUOUS
10
2.83394
20
-6.92528
11
2.84519
21
-6.92528
0
LINE
8
BLACK
6
CONTINUOUS
10
2.84519
20
-6.92528
11
2.85644
21
-6.93091
0
LINE
8
BLACK
6
CONTINUOUS
10
2.85644
20
-6.93091
11
2.86206
21
-6.93653
0
LINE
8
BLACK
6
CONTINUOUS
10
2.86206
20
-6.93653
11
2.86769
21
-6.94778
0
LINE
8
BLACK
6
CONTINUOUS
10
2.86769
20
-6.94778
11
2.87331
21
-6.97028
0
LINE
8
BLACK
6
CONTINUOUS
10
2.87331
20
-6.97028
11
2.87331
21
-6.9984
0
LINE
8
BLACK
6
CONTINUOUS
10
2.87331
20
-6.9984
11
2.86769
21
-7.02089
0
LINE
8
BLACK
6
CONTINUOUS
10
2.86769
20
-7.02089
11
2.86206
21
-7.03214
0
LINE
8
BLACK
6
CONTINUOUS
10
2.86206
20
-7.03214
11
2.85644
21
-7.03777
0
LINE
8
BLACK
6
CONTINUOUS
10
2.85644
20
-7.03777
11
2.84519
21
-7.04339
0
LINE
8
BLACK
6
CONTINUOUS
10
2.84519
20
-7.04339
11
2.83394
21
-7.04339
0
LINE
8
BLACK
6
CONTINUOUS
10
2.83394
20
-7.04339
11
2.82269
21
-7.03777
0
LINE
8
BLACK
6
CONTINUOUS
10
2.82269
20
-7.03777
11
2.81707
21
-7.03214
0
LINE
8
BLACK
6
CONTINUOUS
10
2.81707
20
-7.03214
11
2.81145
21
-7.02089
0
LINE
8
BLACK
6
CONTINUOUS
10
2.81145
20
-7.02089
11
2.80582
21
-6.9984
0
LINE
8
BLACK
6
CONTINUOUS
10
2.80582
20
-6.9984
11
2.80582
21
-6.97028
0
LINE
8
BLACK
6
CONTINUOUS
10
2.80582
20
-6.97028
11
2.81145
21
-6.94778
0
LINE
8
BLACK
6
CONTINUOUS
10
2.81145
20
-6.94778
11
2.81707
21
-6.93653
0
LINE
8
BLACK
6
CONTINUOUS
10
2.81707
20
-6.93653
11
2.82269
21
-6.93091
0
LINE
8
BLACK
6
CONTINUOUS
10
2.82269
20
-6.93091
11
2.83394
21
-6.92528
0
LINE
8
BLACK
6
CONTINUOUS
10
2.92393
20
-7.03214
11
2.92956
21
-7.03777
0
LINE
8
BLACK
6
CONTINUOUS
10
2.92956
20
-7.03777
11
2.92393
21
-7.04339
0
LINE
8
BLACK
6
CONTINUOUS
10
2.92393
20
-7.04339
11
2.91831
21
-7.03777
0
LINE
8
BLACK
6
CONTINUOUS
10
2.91831
20
-7.03777
11
2.92393
21
-7.03214
0
LINE
8
BLACK
6
CONTINUOUS
10
2.92393
20
-7.03214
11
2.92393
21
-7.04339
0
LINE
8
BLACK
6
CONTINUOUS
10
3.00267
20
-6.92528
11
3.01392
21
-6.92528
0
LINE
8
BLACK
6
CONTINUOUS
10
3.01392
20
-6.92528
11
3.02517
21
-6.93091
0
LINE
8
BLACK
6
CONTINUOUS
10
3.02517
20
-6.93091
11
3.03079
21
-6.93653
0
LINE
8
BLACK
6
CONTINUOUS
10
3.03079
20
-6.93653
11
3.03642
21
-6.94778
0
LINE
8
BLACK
6
CONTINUOUS
10
3.03642
20
-6.94778
11
3.04204
21
-6.97028
0
LINE
8
BLACK
6
CONTINUOUS
10
3.04204
20
-6.97028
11
3.04204
21
-6.9984
0
LINE
8
BLACK
6
CONTINUOUS
10
3.04204
20
-6.9984
11
3.03642
21
-7.02089
0
LINE
8
BLACK
6
CONTINUOUS
10
3.03642
20
-7.02089
11
3.03079
21
-7.03214
0
LINE
8
BLACK
6
CONTINUOUS
10
3.03079
20
-7.03214
11
3.02517
21
-7.03777
0
LINE
8
BLACK
6
CONTINUOUS
10
3.02517
20
-7.03777
11
3.01392
21
-7.04339
0
LINE
8
BLACK
6
CONTINUOUS
10
3.01392
20
-7.04339
11
3.00267
21
-7.04339
0
LINE
8
BLACK
6
CONTINUOUS
10
3.00267
20
-7.04339
11
2.99142
21
-7.03777
0
LINE
8
BLACK
6
CONTINUOUS
10
2.99142
20
-7.03777
11
2.9858
21
-7.03214
0
LINE
8
BLACK
6
CONTINUOUS
10
2.9858
20
-7.03214
11
2.98017
21
-7.02089
0
LINE
8
BLACK
6
CONTINUOUS
10
2.98017
20
-7.02089
11
2.97455
21
-6.9984
0
LINE
8
BLACK
6
CONTINUOUS
10
2.97455
20
-6.9984
11
2.97455
21
-6.97028
0
LINE
8
BLACK
6
CONTINUOUS
10
2.97455
20
-6.97028
11
2.98017
21
-6.94778
0
LINE
8
BLACK
6
CONTINUOUS
10
2.98017
20
-6.94778
11
2.9858
21
-6.93653
0
LINE
8
BLACK
6
CONTINUOUS
10
2.9858
20
-6.93653
11
2.99142
21
-6.93091
0
LINE
8
BLACK
6
CONTINUOUS
10
2.99142
20
-6.93091
11
3.00267
21
-6.92528
0
LINE
8
BLACK
6
CONTINUOUS
10
3.08141
20
-6.92528
11
3.15453
21
-6.92528
0
LINE
8
BLACK
6
CONTINUOUS
10
3.15453
20
-6.92528
11
3.11516
21
-6.97028
0
LINE
8
BLACK
6
CONTINUOUS
10
3.11516
20
-6.97028
11
3.13203
21
-6.97028
0
LINE
8
BLACK
6
CONTINUOUS
10
3.13203
20
-6.97028
11
3.14328
21
-6.9759
0
LINE
8
BLACK
6
CONTINUOUS
10
3.14328
20
-6.9759
11
3.1489
21
-6.98152
0
LINE
8
BLACK
6
CONTINUOUS
10
3.1489
20
-6.98152
11
3.15453
21
-6.99277
0
LINE
8
BLACK
6
CONTINUOUS
10
3.15453
20
-6.99277
11
3.15453
21
-7.02089
0
LINE
8
BLACK
6
CONTINUOUS
10
3.15453
20
-7.02089
11
3.1489
21
-7.03214
0
LINE
8
BLACK
6
CONTINUOUS
10
3.1489
20
-7.03214
11
3.14328
21
-7.03777
0
LINE
8
BLACK
6
CONTINUOUS
10
3.14328
20
-7.03777
11
3.13203
21
-7.04339
0
LINE
8
BLACK
6
CONTINUOUS
10
3.13203
20
-7.04339
11
3.09828
21
-7.04339
0
LINE
8
BLACK
6
CONTINUOUS
10
3.09828
20
-7.04339
11
3.08704
21
-7.03777
0
LINE
8
BLACK
6
CONTINUOUS
10
3.08704
20
-7.03777
11
3.08141
21
-7.03214
0
LINE
8
BLACK
6
CONTINUOUS
10
3.26139
20
-6.92528
11
3.20515
21
-6.92528
0
LINE
8
BLACK
6
CONTINUOUS
10
3.20515
20
-6.92528
11
3.19952
21
-6.98152
0
LINE
8
BLACK
6
CONTINUOUS
10
3.19952
20
-6.98152
11
3.20515
21
-6.9759
0
LINE
8
BLACK
6
CONTINUOUS
10
3.20515
20
-6.9759
11
3.21639
21
-6.97028
0
LINE
8
BLACK
6
CONTINUOUS
10
3.21639
20
-6.97028
11
3.24452
21
-6.97028
0
LINE
8
BLACK
6
CONTINUOUS
10
3.24452
20
-6.97028
11
3.25576
21
-6.9759
0
LINE
8
BLACK
6
CONTINUOUS
10
3.25576
20
-6.9759
11
3.26139
21
-6.98152
0
LINE
8
BLACK
6
CONTINUOUS
10
3.26139
20
-6.98152
11
3.26701
21
-6.99277
0
LINE
8
BLACK
6
CONTINUOUS
10
3.26701
20
-6.99277
11
3.26701
21
-7.02089
0
LINE
8
BLACK
6
CONTINUOUS
10
3.26701
20
-7.02089
11
3.26139
21
-7.03214
0
LINE
8
BLACK
6
CONTINUOUS
10
3.26139
20
-7.03214
11
3.25576
21
-7.03777
0
LINE
8
BLACK
6
CONTINUOUS
10
3.25576
20
-7.03777
11
3.24452
21
-7.04339
0
LINE
8
BLACK
6
CONTINUOUS
10
3.24452
20
-7.04339
11
3.21639
21
-7.04339
0
LINE
8
BLACK
6
CONTINUOUS
10
3.21639
20
-7.04339
11
3.20515
21
-7.03777
0
LINE
8
BLACK
6
CONTINUOUS
10
3.20515
20
-7.03777
11
3.19952
21
-7.03214
0
LINE
8
BLACK
6
CONTINUOUS
10
3.36825
20
-6.96465
11
3.36825
21
-7.04339
0
LINE
8
BLACK
6
CONTINUOUS
10
3.34013
20
-6.91966
11
3.31201
21
-7.00402
0
LINE
8
BLACK
6
CONTINUOUS
10
3.31201
20
-7.00402
11
3.38512
21
-7.00402
0
LINE
8
BLACK
6
CONTINUOUS
10
3.42449
20
-6.92528
11
3.42449
21
-6.94778
0
LINE
8
BLACK
6
CONTINUOUS
10
3.46949
20
-6.92528
11
3.46949
21
-6.94778
0
LINE
8
BLACK
6
CONTINUOUS
10
3.64384
20
-7.08839
11
3.63822
21
-7.08276
0
LINE
8
BLACK
6
CONTINUOUS
10
3.63822
20
-7.08276
11
3.62697
21
-7.06589
0
LINE
8
BLACK
6
CONTINUOUS
10
3.62697
20
-7.06589
11
3.62134
21
-7.05464
0
LINE
8
BLACK
6
CONTINUOUS
10
3.62134
20
-7.05464
11
3.61572
21
-7.03777
0
LINE
8
BLACK
6
CONTINUOUS
10
3.61572
20
-7.03777
11
3.6101
21
-7.00965
0
LINE
8
BLACK
6
CONTINUOUS
10
3.6101
20
-7.00965
11
3.6101
21
-6.98715
0
LINE
8
BLACK
6
CONTINUOUS
10
3.6101
20
-6.98715
11
3.61572
21
-6.95903
0
LINE
8
BLACK
6
CONTINUOUS
10
3.61572
20
-6.95903
11
3.62134
21
-6.94215
0
LINE
8
BLACK
6
CONTINUOUS
10
3.62134
20
-6.94215
11
3.62697
21
-6.93091
0
LINE
8
BLACK
6
CONTINUOUS
10
3.62697
20
-6.93091
11
3.63822
21
-6.91403
0
LINE
8
BLACK
6
CONTINUOUS
10
3.63822
20
-6.91403
11
3.64384
21
-6.90841
0
LINE
8
BLACK
6
CONTINUOUS
10
3.7507
20
-7.04339
11
3.68321
21
-7.04339
0
LINE
8
BLACK
6
CONTINUOUS
10
3.71696
20
-7.04339
11
3.71696
21
-6.92528
0
LINE
8
BLACK
6
CONTINUOUS
10
3.71696
20
-6.92528
11
3.70571
21
-6.94215
0
LINE
8
BLACK
6
CONTINUOUS
10
3.70571
20
-6.94215
11
3.69446
21
-6.9534
0
LINE
8
BLACK
6
CONTINUOUS
10
3.69446
20
-6.9534
11
3.68321
21
-6.95903
0
LINE
8
BLACK
6
CONTINUOUS
10
3.82382
20
-6.92528
11
3.83507
21
-6.92528
0
LINE
8
BLACK
6
CONTINUOUS
10
3.83507
20
-6.92528
11
3.84632
21
-6.93091
0
LINE
8
BLACK
6
CONTINUOUS
10
3.84632
20
-6.93091
11
3.85194
21
-6.93653
0
LINE
8
BLACK
6
CONTINUOUS
10
3.85194
20
-6.93653
11
3.85756
21
-6.94778
0
LINE
8
BLACK
6
CONTINUOUS
10
3.85756
20
-6.94778
11
3.86319
21
-6.97028
0
LINE
8
BLACK
6
CONTINUOUS
10
3.86319
20
-6.97028
11
3.86319
21
-6.9984
0
LINE
8
BLACK
6
CONTINUOUS
10
3.86319
20
-6.9984
11
3.85756
21
-7.02089
0
LINE
8
BLACK
6
CONTINUOUS
10
3.85756
20
-7.02089
11
3.85194
21
-7.03214
0
LINE
8
BLACK
6
CONTINUOUS
10
3.85194
20
-7.03214
11
3.84632
21
-7.03777
0
LINE
8
BLACK
6
CONTINUOUS
10
3.84632
20
-7.03777
11
3.83507
21
-7.04339
0
LINE
8
BLACK
6
CONTINUOUS
10
3.83507
20
-7.04339
11
3.82382
21
-7.04339
0
LINE
8
BLACK
6
CONTINUOUS
10
3.82382
20
-7.04339
11
3.81257
21
-7.03777
0
LINE
8
BLACK
6
CONTINUOUS
10
3.81257
20
-7.03777
11
3.80695
21
-7.03214
0
LINE
8
BLACK
6
CONTINUOUS
10
3.80695
20
-7.03214
11
3.80132
21
-7.02089
0
LINE
8
BLACK
6
CONTINUOUS
10
3.80132
20
-7.02089
11
3.7957
21
-6.9984
0
LINE
8
BLACK
6
CONTINUOUS
10
3.7957
20
-6.9984
11
3.7957
21
-6.97028
0
LINE
8
BLACK
6
CONTINUOUS
10
3.7957
20
-6.97028
11
3.80132
21
-6.94778
0
LINE
8
BLACK
6
CONTINUOUS
10
3.80132
20
-6.94778
11
3.80695
21
-6.93653
0
LINE
8
BLACK
6
CONTINUOUS
10
3.80695
20
-6.93653
11
3.81257
21
-6.93091
0
LINE
8
BLACK
6
CONTINUOUS
10
3.81257
20
-6.93091
11
3.82382
21
-6.92528
0
LINE
8
BLACK
6
CONTINUOUS
10
4.0038
20
-7.04339
11
4.0038
21
-6.92528
0
LINE
8
BLACK
6
CONTINUOUS
10
4.05441
20
-7.04339
11
4.05441
21
-6.98152
0
LINE
8
BLACK
6
CONTINUOUS
10
4.05441
20
-6.98152
11
4.04879
21
-6.97028
0
LINE
8
BLACK
6
CONTINUOUS
10
4.04879
20
-6.97028
11
4.03754
21
-6.96465
0
LINE
8
BLACK
6
CONTINUOUS
10
4.03754
20
-6.96465
11
4.02067
21
-6.96465
0
LINE
8
BLACK
6
CONTINUOUS
10
4.02067
20
-6.96465
11
4.00942
21
-6.97028
0
LINE
8
BLACK
6
CONTINUOUS
10
4.00942
20
-6.97028
11
4.0038
21
-6.9759
0
LINE
8
BLACK
6
CONTINUOUS
10
4.12753
20
-7.04339
11
4.11628
21
-7.03777
0
LINE
8
BLACK
6
CONTINUOUS
10
4.11628
20
-7.03777
11
4.11066
21
-7.03214
0
LINE
8
BLACK
6
CONTINUOUS
10
4.11066
20
-7.03214
11
4.10503
21
-7.02089
0
LINE
8
BLACK
6
CONTINUOUS
10
4.10503
20
-7.02089
11
4.10503
21
-6.98715
0
LINE
8
BLACK
6
CONTINUOUS
10
4.10503
20
-6.98715
11
4.11066
21
-6.9759
0
LINE
8
BLACK
6
CONTINUOUS
10
4.11066
20
-6.9759
11
4.11628
21
-6.97028
0
LINE
8
BLACK
6
CONTINUOUS
10
4.11628
20
-6.97028
11
4.12753
21
-6.96465
0
LINE
8
BLACK
6
CONTINUOUS
10
4.12753
20
-6.96465
11
4.1444
21
-6.96465
0
LINE
8
BLACK
6
CONTINUOUS
10
4.1444
20
-6.96465
11
4.15565
21
-6.97028
0
LINE
8
BLACK
6
CONTINUOUS
10
4.15565
20
-6.97028
11
4.16128
21
-6.9759
0
LINE
8
BLACK
6
CONTINUOUS
10
4.16128
20
-6.9759
11
4.1669
21
-6.98715
0
LINE
8
BLACK
6
CONTINUOUS
10
4.1669
20
-6.98715
11
4.1669
21
-7.02089
0
LINE
8
BLACK
6
CONTINUOUS
10
4.1669
20
-7.02089
11
4.16128
21
-7.03214
0
LINE
8
BLACK
6
CONTINUOUS
10
4.16128
20
-7.03214
11
4.15565
21
-7.03777
0
LINE
8
BLACK
6
CONTINUOUS
10
4.15565
20
-7.03777
11
4.1444
21
-7.04339
0
LINE
8
BLACK
6
CONTINUOUS
10
4.1444
20
-7.04339
11
4.12753
21
-7.04339
0
LINE
8
BLACK
6
CONTINUOUS
10
4.23439
20
-7.04339
11
4.22314
21
-7.03777
0
LINE
8
BLACK
6
CONTINUOUS
10
4.22314
20
-7.03777
11
4.21752
21
-7.02652
0
LINE
8
BLACK
6
CONTINUOUS
10
4.21752
20
-7.02652
11
4.21752
21
-6.92528
0
LINE
8
BLACK
6
CONTINUOUS
10
4.32438
20
-7.03777
11
4.31313
21
-7.04339
0
LINE
8
BLACK
6
CONTINUOUS
10
4.31313
20
-7.04339
11
4.29064
21
-7.04339
0
LINE
8
BLACK
6
CONTINUOUS
10
4.29064
20
-7.04339
11
4.27939
21
-7.03777
0
LINE
8
BLACK
6
CONTINUOUS
10
4.27939
20
-7.03777
11
4.27376
21
-7.02652
0
LINE
8
BLACK
6
CONTINUOUS
10
4.27376
20
-7.02652
11
4.27376
21
-6.98152
0
LINE
8
BLACK
6
CONTINUOUS
10
4.27376
20
-6.98152
11
4.27939
21
-6.97028
0
LINE
8
BLACK
6
CONTINUOUS
10
4.27939
20
-6.97028
11
4.29064
21
-6.96465
0
LINE
8
BLACK
6
CONTINUOUS
10
4.29064
20
-6.96465
11
4.31313
21
-6.96465
0
LINE
8
BLACK
6
CONTINUOUS
10
4.31313
20
-6.96465
11
4.32438
21
-6.97028
0
LINE
8
BLACK
6
CONTINUOUS
10
4.32438
20
-6.97028
11
4.33001
21
-6.98152
0
LINE
8
BLACK
6
CONTINUOUS
10
4.33001
20
-6.98152
11
4.33001
21
-6.99277
0
LINE
8
BLACK
6
CONTINUOUS
10
4.33001
20
-6.99277
11
4.27376
21
-7.00402
0
LINE
8
BLACK
6
CONTINUOUS
10
4.375
20
-7.03777
11
4.38625
21
-7.04339
0
LINE
8
BLACK
6
CONTINUOUS
10
4.38625
20
-7.04339
11
4.40875
21
-7.04339
0
LINE
8
BLACK
6
CONTINUOUS
10
4.40875
20
-7.04339
11
4.41999
21
-7.03777
0
LINE
8
BLACK
6
CONTINUOUS
10
4.41999
20
-7.03777
11
4.42562
21
-7.02652
0
LINE
8
BLACK
6
CONTINUOUS
10
4.42562
20
-7.02652
11
4.42562
21
-7.02089
0
LINE
8
BLACK
6
CONTINUOUS
10
4.42562
20
-7.02089
11
4.41999
21
-7.00965
0
LINE
8
BLACK
6
CONTINUOUS
10
4.41999
20
-7.00965
11
4.40875
21
-7.00402
0
LINE
8
BLACK
6
CONTINUOUS
10
4.40875
20
-7.00402
11
4.39187
21
-7.00402
0
LINE
8
BLACK
6
CONTINUOUS
10
4.39187
20
-7.00402
11
4.38062
21
-6.9984
0
LINE
8
BLACK
6
CONTINUOUS
10
4.38062
20
-6.9984
11
4.375
21
-6.98715
0
LINE
8
BLACK
6
CONTINUOUS
10
4.375
20
-6.98715
11
4.375
21
-6.98152
0
LINE
8
BLACK
6
CONTINUOUS
10
4.375
20
-6.98152
11
4.38062
21
-6.97028
0
LINE
8
BLACK
6
CONTINUOUS
10
4.38062
20
-6.97028
11
4.39187
21
-6.96465
0
LINE
8
BLACK
6
CONTINUOUS
10
4.39187
20
-6.96465
11
4.40875
21
-6.96465
0
LINE
8
BLACK
6
CONTINUOUS
10
4.40875
20
-6.96465
11
4.41999
21
-6.97028
0
LINE
8
BLACK
6
CONTINUOUS
10
4.46499
20
-7.08839
11
4.47061
21
-7.08276
0
LINE
8
BLACK
6
CONTINUOUS
10
4.47061
20
-7.08276
11
4.48186
21
-7.06589
0
LINE
8
BLACK
6
CONTINUOUS
10
4.48186
20
-7.06589
11
4.48749
21
-7.05464
0
LINE
8
BLACK
6
CONTINUOUS
10
4.48749
20
-7.05464
11
4.49311
21
-7.03777
0
LINE
8
BLACK
6
CONTINUOUS
10
4.49311
20
-7.03777
11
4.49873
21
-7.00965
0
LINE
8
BLACK
6
CONTINUOUS
10
4.49873
20
-7.00965
11
4.49873
21
-6.98715
0
LINE
8
BLACK
6
CONTINUOUS
10
4.49873
20
-6.98715
11
4.49311
21
-6.95903
0
LINE
8
BLACK
6
CONTINUOUS
10
4.49311
20
-6.95903
11
4.48749
21
-6.94215
0
LINE
8
BLACK
6
CONTINUOUS
10
4.48749
20
-6.94215
11
4.48186
21
-6.93091
0
LINE
8
BLACK
6
CONTINUOUS
10
4.48186
20
-6.93091
11
4.47061
21
-6.91403
0
LINE
8
BLACK
6
CONTINUOUS
10
4.47061
20
-6.91403
11
4.46499
21
-6.90841
0
LINE
8
BLACK
6
CONTINUOUS
10
1.56805
20
-7.15979
11
1.56805
21
-7.13195
0
LINE
8
BLACK
6
CONTINUOUS
10
1.56805
20
-7.13195
11
1.54021
21
-7.13195
0
LINE
8
BLACK
6
CONTINUOUS
10
1.54021
20
-7.13195
11
1.54021
21
-7.15979
0
LINE
8
BLACK
6
CONTINUOUS
10
1.54021
20
-7.15979
11
1.56805
21
-7.15979
0
LINE
8
BLACK
6
CONTINUOUS
10
1.74845
20
-7.1993
11
1.68096
21
-7.1993
0
LINE
8
BLACK
6
CONTINUOUS
10
1.71471
20
-7.1993
11
1.71471
21
-7.08119
0
LINE
8
BLACK
6
CONTINUOUS
10
1.71471
20
-7.08119
11
1.70346
21
-7.09806
0
LINE
8
BLACK
6
CONTINUOUS
10
1.70346
20
-7.09806
11
1.69221
21
-7.10931
0
LINE
8
BLACK
6
CONTINUOUS
10
1.69221
20
-7.10931
11
1.68096
21
-7.11493
0
LINE
8
BLACK
6
CONTINUOUS
10
1.79907
20
-7.18805
11
1.8047
21
-7.19367
0
LINE
8
BLACK
6
CONTINUOUS
10
1.8047
20
-7.19367
11
1.79907
21
-7.1993
0
LINE
8
BLACK
6
CONTINUOUS
10
1.79907
20
-7.1993
11
1.79345
21
-7.19367
0
LINE
8
BLACK
6
CONTINUOUS
10
1.79345
20
-7.19367
11
1.79907
21
-7.18805
0
LINE
8
BLACK
6
CONTINUOUS
10
1.79907
20
-7.18805
11
1.79907
21
-7.1993
0
LINE
8
BLACK
6
CONTINUOUS
10
1.87781
20
-7.08119
11
1.88906
21
-7.08119
0
LINE
8
BLACK
6
CONTINUOUS
10
1.88906
20
-7.08119
11
1.90031
21
-7.08681
0
LINE
8
BLACK
6
CONTINUOUS
10
1.90031
20
-7.08681
11
1.90593
21
-7.09244
0
LINE
8
BLACK
6
CONTINUOUS
10
1.90593
20
-7.09244
11
1.91156
21
-7.10368
0
LINE
8
BLACK
6
CONTINUOUS
10
1.91156
20
-7.10368
11
1.91718
21
-7.12618
0
LINE
8
BLACK
6
CONTINUOUS
10
1.91718
20
-7.12618
11
1.91718
21
-7.1543
0
LINE
8
BLACK
6
CONTINUOUS
10
1.91718
20
-7.1543
11
1.91156
21
-7.1768
0
LINE
8
BLACK
6
CONTINUOUS
10
1.91156
20
-7.1768
11
1.90593
21
-7.18805
0
LINE
8
BLACK
6
CONTINUOUS
10
1.90593
20
-7.18805
11
1.90031
21
-7.19367
0
LINE
8
BLACK
6
CONTINUOUS
10
1.90031
20
-7.19367
11
1.88906
21
-7.1993
0
LINE
8
BLACK
6
CONTINUOUS
10
1.88906
20
-7.1993
11
1.87781
21
-7.1993
0
LINE
8
BLACK
6
CONTINUOUS
10
1.87781
20
-7.1993
11
1.86656
21
-7.19367
0
LINE
8
BLACK
6
CONTINUOUS
10
1.86656
20
-7.19367
11
1.86094
21
-7.18805
0
LINE
8
BLACK
6
CONTINUOUS
10
1.86094
20
-7.18805
11
1.85531
21
-7.1768
0
LINE
8
BLACK
6
CONTINUOUS
10
1.85531
20
-7.1768
11
1.84969
21
-7.1543
0
LINE
8
BLACK
6
CONTINUOUS
10
1.84969
20
-7.1543
11
1.84969
21
-7.12618
0
LINE
8
BLACK
6
CONTINUOUS
10
1.84969
20
-7.12618
11
1.85531
21
-7.10368
0
LINE
8
BLACK
6
CONTINUOUS
10
1.85531
20
-7.10368
11
1.86094
21
-7.09244
0
LINE
8
BLACK
6
CONTINUOUS
10
1.86094
20
-7.09244
11
1.86656
21
-7.08681
0
LINE
8
BLACK
6
CONTINUOUS
10
1.86656
20
-7.08681
11
1.87781
21
-7.08119
0
LINE
8
BLACK
6
CONTINUOUS
10
1.9903
20
-7.08119
11
2.00155
21
-7.08119
0
LINE
8
BLACK
6
CONTINUOUS
10
2.00155
20
-7.08119
11
2.0128
21
-7.08681
0
LINE
8
BLACK
6
CONTINUOUS
10
2.0128
20
-7.08681
11
2.01842
21
-7.09244
0
LINE
8
BLACK
6
CONTINUOUS
10
2.01842
20
-7.09244
11
2.02404
21
-7.10368
0
LINE
8
BLACK
6
CONTINUOUS
10
2.02404
20
-7.10368
11
2.02967
21
-7.12618
0
LINE
8
BLACK
6
CONTINUOUS
10
2.02967
20
-7.12618
11
2.02967
21
-7.1543
0
LINE
8
BLACK
6
CONTINUOUS
10
2.02967
20
-7.1543
11
2.02404
21
-7.1768
0
LINE
8
BLACK
6
CONTINUOUS
10
2.02404
20
-7.1768
11
2.01842
21
-7.18805
0
LINE
8
BLACK
6
CONTINUOUS
10
2.01842
20
-7.18805
11
2.0128
21
-7.19367
0
LINE
8
BLACK
6
CONTINUOUS
10
2.0128
20
-7.19367
11
2.00155
21
-7.1993
0
LINE
8
BLACK
6
CONTINUOUS
10
2.00155
20
-7.1993
11
1.9903
21
-7.1993
0
LINE
8
BLACK
6
CONTINUOUS
10
1.9903
20
-7.1993
11
1.97905
21
-7.19367
0
LINE
8
BLACK
6
CONTINUOUS
10
1.97905
20
-7.19367
11
1.97343
21
-7.18805
0
LINE
8
BLACK
6
CONTINUOUS
10
1.97343
20
-7.18805
11
1.9678
21
-7.1768
0
LINE
8
BLACK
6
CONTINUOUS
10
1.9678
20
-7.1768
11
1.96218
21
-7.1543
0
LINE
8
BLACK
6
CONTINUOUS
10
1.96218
20
-7.1543
11
1.96218
21
-7.12618
0
LINE
8
BLACK
6
CONTINUOUS
10
1.96218
20
-7.12618
11
1.9678
21
-7.10368
0
LINE
8
BLACK
6
CONTINUOUS
10
1.9678
20
-7.10368
11
1.97343
21
-7.09244
0
LINE
8
BLACK
6
CONTINUOUS
10
1.97343
20
-7.09244
11
1.97905
21
-7.08681
0
LINE
8
BLACK
6
CONTINUOUS
10
1.97905
20
-7.08681
11
1.9903
21
-7.08119
0
LINE
8
BLACK
6
CONTINUOUS
10
2.10278
20
-7.08119
11
2.11403
21
-7.08119
0
LINE
8
BLACK
6
CONTINUOUS
10
2.11403
20
-7.08119
11
2.12528
21
-7.08681
0
LINE
8
BLACK
6
CONTINUOUS
10
2.12528
20
-7.08681
11
2.13091
21
-7.09244
0
LINE
8
BLACK
6
CONTINUOUS
10
2.13091
20
-7.09244
11
2.13653
21
-7.10368
0
LINE
8
BLACK
6
CONTINUOUS
10
2.13653
20
-7.10368
11
2.14215
21
-7.12618
0
LINE
8
BLACK
6
CONTINUOUS
10
2.14215
20
-7.12618
11
2.14215
21
-7.1543
0
LINE
8
BLACK
6
CONTINUOUS
10
2.14215
20
-7.1543
11
2.13653
21
-7.1768
0
LINE
8
BLACK
6
CONTINUOUS
10
2.13653
20
-7.1768
11
2.13091
21
-7.18805
0
LINE
8
BLACK
6
CONTINUOUS
10
2.13091
20
-7.18805
11
2.12528
21
-7.19367
0
LINE
8
BLACK
6
CONTINUOUS
10
2.12528
20
-7.19367
11
2.11403
21
-7.1993
0
LINE
8
BLACK
6
CONTINUOUS
10
2.11403
20
-7.1993
11
2.10278
21
-7.1993
0
LINE
8
BLACK
6
CONTINUOUS
10
2.10278
20
-7.1993
11
2.09154
21
-7.19367
0
LINE
8
BLACK
6
CONTINUOUS
10
2.09154
20
-7.19367
11
2.08591
21
-7.18805
0
LINE
8
BLACK
6
CONTINUOUS
10
2.08591
20
-7.18805
11
2.08029
21
-7.1768
0
LINE
8
BLACK
6
CONTINUOUS
10
2.08029
20
-7.1768
11
2.07466
21
-7.1543
0
LINE
8
BLACK
6
CONTINUOUS
10
2.07466
20
-7.1543
11
2.07466
21
-7.12618
0
LINE
8
BLACK
6
CONTINUOUS
10
2.07466
20
-7.12618
11
2.08029
21
-7.10368
0
LINE
8
BLACK
6
CONTINUOUS
10
2.08029
20
-7.10368
11
2.08591
21
-7.09244
0
LINE
8
BLACK
6
CONTINUOUS
10
2.08591
20
-7.09244
11
2.09154
21
-7.08681
0
LINE
8
BLACK
6
CONTINUOUS
10
2.09154
20
-7.08681
11
2.10278
21
-7.08119
0
LINE
8
BLACK
6
CONTINUOUS
10
2.19277
20
-7.1993
11
2.19277
21
-7.12056
0
LINE
8
BLACK
6
CONTINUOUS
10
2.19277
20
-7.13181
11
2.1984
21
-7.12618
0
LINE
8
BLACK
6
CONTINUOUS
10
2.1984
20
-7.12618
11
2.20965
21
-7.12056
0
LINE
8
BLACK
6
CONTINUOUS
10
2.20965
20
-7.12056
11
2.22652
21
-7.12056
0
LINE
8
BLACK
6
CONTINUOUS
10
2.22652
20
-7.12056
11
2.23777
21
-7.12618
0
LINE
8
BLACK
6
CONTINUOUS
10
2.23777
20
-7.12618
11
2.24339
21
-7.13743
0
LINE
8
BLACK
6
CONTINUOUS
10
2.24339
20
-7.13743
11
2.24339
21
-7.1993
0
LINE
8
BLACK
6
CONTINUOUS
10
2.24339
20
-7.13743
11
2.24902
21
-7.12618
0
LINE
8
BLACK
6
CONTINUOUS
10
2.24902
20
-7.12618
11
2.26026
21
-7.12056
0
LINE
8
BLACK
6
CONTINUOUS
10
2.26026
20
-7.12056
11
2.27714
21
-7.12056
0
LINE
8
BLACK
6
CONTINUOUS
10
2.27714
20
-7.12056
11
2.28839
21
-7.12618
0
LINE
8
BLACK
6
CONTINUOUS
10
2.28839
20
-7.12618
11
2.29401
21
-7.13743
0
LINE
8
BLACK
6
CONTINUOUS
10
2.29401
20
-7.13743
11
2.29401
21
-7.1993
0
LINE
8
BLACK
6
CONTINUOUS
10
2.35025
20
-7.1993
11
2.35025
21
-7.12056
0
LINE
8
BLACK
6
CONTINUOUS
10
2.35025
20
-7.13181
11
2.35588
21
-7.12618
0
LINE
8
BLACK
6
CONTINUOUS
10
2.35588
20
-7.12618
11
2.36713
21
-7.12056
0
LINE
8
BLACK
6
CONTINUOUS
10
2.36713
20
-7.12056
11
2.384
21
-7.12056
0
LINE
8
BLACK
6
CONTINUOUS
10
2.384
20
-7.12056
11
2.39525
21
-7.12618
0
LINE
8
BLACK
6
CONTINUOUS
10
2.39525
20
-7.12618
11
2.40087
21
-7.13743
0
LINE
8
BLACK
6
CONTINUOUS
10
2.40087
20
-7.13743
11
2.40087
21
-7.1993
0
LINE
8
BLACK
6
CONTINUOUS
10
2.40087
20
-7.13743
11
2.4065
21
-7.12618
0
LINE
8
BLACK
6
CONTINUOUS
10
2.4065
20
-7.12618
11
2.41774
21
-7.12056
0
LINE
8
BLACK
6
CONTINUOUS
10
2.41774
20
-7.12056
11
2.43462
21
-7.12056
0
LINE
8
BLACK
6
CONTINUOUS
10
2.43462
20
-7.12056
11
2.44587
21
-7.12618
0
LINE
8
BLACK
6
CONTINUOUS
10
2.44587
20
-7.12618
11
2.45149
21
-7.13743
0
LINE
8
BLACK
6
CONTINUOUS
10
2.45149
20
-7.13743
11
2.45149
21
-7.1993
0
LINE
8
BLACK
6
CONTINUOUS
10
2.68209
20
-7.07556
11
2.58085
21
-7.22742
0
LINE
8
BLACK
6
CONTINUOUS
10
2.83394
20
-7.08119
11
2.84519
21
-7.08119
0
LINE
8
BLACK
6
CONTINUOUS
10
2.84519
20
-7.08119
11
2.85644
21
-7.08681
0
LINE
8
BLACK
6
CONTINUOUS
10
2.85644
20
-7.08681
11
2.86206
21
-7.09244
0
LINE
8
BLACK
6
CONTINUOUS
10
2.86206
20
-7.09244
11
2.86769
21
-7.10368
0
LINE
8
BLACK
6
CONTINUOUS
10
2.86769
20
-7.10368
11
2.87331
21
-7.12618
0
LINE
8
BLACK
6
CONTINUOUS
10
2.87331
20
-7.12618
11
2.87331
21
-7.1543
0
LINE
8
BLACK
6
CONTINUOUS
10
2.87331
20
-7.1543
11
2.86769
21
-7.1768
0
LINE
8
BLACK
6
CONTINUOUS
10
2.86769
20
-7.1768
11
2.86206
21
-7.18805
0
LINE
8
BLACK
6
CONTINUOUS
10
2.86206
20
-7.18805
11
2.85644
21
-7.19367
0
LINE
8
BLACK
6
CONTINUOUS
10
2.85644
20
-7.19367
11
2.84519
21
-7.1993
0
LINE
8
BLACK
6
CONTINUOUS
10
2.84519
20
-7.1993
11
2.83394
21
-7.1993
0
LINE
8
BLACK
6
CONTINUOUS
10
2.83394
20
-7.1993
11
2.82269
21
-7.19367
0
LINE
8
BLACK
6
CONTINUOUS
10
2.82269
20
-7.19367
11
2.81707
21
-7.18805
0
LINE
8
BLACK
6
CONTINUOUS
10
2.81707
20
-7.18805
11
2.81145
21
-7.1768
0
LINE
8
BLACK
6
CONTINUOUS
10
2.81145
20
-7.1768
11
2.80582
21
-7.1543
0
LINE
8
BLACK
6
CONTINUOUS
10
2.80582
20
-7.1543
11
2.80582
21
-7.12618
0
LINE
8
BLACK
6
CONTINUOUS
10
2.80582
20
-7.12618
11
2.81145
21
-7.10368
0
LINE
8
BLACK
6
CONTINUOUS
10
2.81145
20
-7.10368
11
2.81707
21
-7.09244
0
LINE
8
BLACK
6
CONTINUOUS
10
2.81707
20
-7.09244
11
2.82269
21
-7.08681
0
LINE
8
BLACK
6
CONTINUOUS
10
2.82269
20
-7.08681
11
2.83394
21
-7.08119
0
LINE
8
BLACK
6
CONTINUOUS
10
2.92393
20
-7.18805
11
2.92956
21
-7.19367
0
LINE
8
BLACK
6
CONTINUOUS
10
2.92956
20
-7.19367
11
2.92393
21
-7.1993
0
LINE
8
BLACK
6
CONTINUOUS
10
2.92393
20
-7.1993
11
2.91831
21
-7.19367
0
LINE
8
BLACK
6
CONTINUOUS
10
2.91831
20
-7.19367
11
2.92393
21
-7.18805
0
LINE
8
BLACK
6
CONTINUOUS
10
2.92393
20
-7.18805
11
2.92393
21
-7.1993
0
LINE
8
BLACK
6
CONTINUOUS
10
3.00267
20
-7.08119
11
3.01392
21
-7.08119
0
LINE
8
BLACK
6
CONTINUOUS
10
3.01392
20
-7.08119
11
3.02517
21
-7.08681
0
LINE
8
BLACK
6
CONTINUOUS
10
3.02517
20
-7.08681
11
3.03079
21
-7.09244
0
LINE
8
BLACK
6
CONTINUOUS
10
3.03079
20
-7.09244
11
3.03642
21
-7.10368
0
LINE
8
BLACK
6
CONTINUOUS
10
3.03642
20
-7.10368
11
3.04204
21
-7.12618
0
LINE
8
BLACK
6
CONTINUOUS
10
3.04204
20
-7.12618
11
3.04204
21
-7.1543
0
LINE
8
BLACK
6
CONTINUOUS
10
3.04204
20
-7.1543
11
3.03642
21
-7.1768
0
LINE
8
BLACK
6
CONTINUOUS
10
3.03642
20
-7.1768
11
3.03079
21
-7.18805
0
LINE
8
BLACK
6
CONTINUOUS
10
3.03079
20
-7.18805
11
3.02517
21
-7.19367
0
LINE
8
BLACK
6
CONTINUOUS
10
3.02517
20
-7.19367
11
3.01392
21
-7.1993
0
LINE
8
BLACK
6
CONTINUOUS
10
3.01392
20
-7.1993
11
3.00267
21
-7.1993
0
LINE
8
BLACK
6
CONTINUOUS
10
3.00267
20
-7.1993
11
2.99142
21
-7.19367
0
LINE
8
BLACK
6
CONTINUOUS
10
2.99142
20
-7.19367
11
2.9858
21
-7.18805
0
LINE
8
BLACK
6
CONTINUOUS
10
2.9858
20
-7.18805
11
2.98017
21
-7.1768
0
LINE
8
BLACK
6
CONTINUOUS
10
2.98017
20
-7.1768
11
2.97455
21
-7.1543
0
LINE
8
BLACK
6
CONTINUOUS
10
2.97455
20
-7.1543
11
2.97455
21
-7.12618
0
LINE
8
BLACK
6
CONTINUOUS
10
2.97455
20
-7.12618
11
2.98017
21
-7.10368
0
LINE
8
BLACK
6
CONTINUOUS
10
2.98017
20
-7.10368
11
2.9858
21
-7.09244
0
LINE
8
BLACK
6
CONTINUOUS
10
2.9858
20
-7.09244
11
2.99142
21
-7.08681
0
LINE
8
BLACK
6
CONTINUOUS
10
2.99142
20
-7.08681
11
3.00267
21
-7.08119
0
LINE
8
BLACK
6
CONTINUOUS
10
3.08141
20
-7.08119
11
3.15453
21
-7.08119
0
LINE
8
BLACK
6
CONTINUOUS
10
3.15453
20
-7.08119
11
3.11516
21
-7.12618
0
LINE
8
BLACK
6
CONTINUOUS
10
3.11516
20
-7.12618
11
3.13203
21
-7.12618
0
LINE
8
BLACK
6
CONTINUOUS
10
3.13203
20
-7.12618
11
3.14328
21
-7.13181
0
LINE
8
BLACK
6
CONTINUOUS
10
3.14328
20
-7.13181
11
3.1489
21
-7.13743
0
LINE
8
BLACK
6
CONTINUOUS
10
3.1489
20
-7.13743
11
3.15453
21
-7.14868
0
LINE
8
BLACK
6
CONTINUOUS
10
3.15453
20
-7.14868
11
3.15453
21
-7.1768
0
LINE
8
BLACK
6
CONTINUOUS
10
3.15453
20
-7.1768
11
3.1489
21
-7.18805
0
LINE
8
BLACK
6
CONTINUOUS
10
3.1489
20
-7.18805
11
3.14328
21
-7.19367
0
LINE
8
BLACK
6
CONTINUOUS
10
3.14328
20
-7.19367
11
3.13203
21
-7.1993
0
LINE
8
BLACK
6
CONTINUOUS
10
3.13203
20
-7.1993
11
3.09828
21
-7.1993
0
LINE
8
BLACK
6
CONTINUOUS
10
3.09828
20
-7.1993
11
3.08704
21
-7.19367
0
LINE
8
BLACK
6
CONTINUOUS
10
3.08704
20
-7.19367
11
3.08141
21
-7.18805
0
LINE
8
BLACK
6
CONTINUOUS
10
3.21077
20
-7.1993
11
3.23327
21
-7.1993
0
LINE
8
BLACK
6
CONTINUOUS
10
3.23327
20
-7.1993
11
3.24452
21
-7.19367
0
LINE
8
BLACK
6
CONTINUOUS
10
3.24452
20
-7.19367
11
3.25014
21
-7.18805
0
LINE
8
BLACK
6
CONTINUOUS
10
3.25014
20
-7.18805
11
3.26139
21
-7.17118
0
LINE
8
BLACK
6
CONTINUOUS
10
3.26139
20
-7.17118
11
3.26701
21
-7.14868
0
LINE
8
BLACK
6
CONTINUOUS
10
3.26701
20
-7.14868
11
3.26701
21
-7.10368
0
LINE
8
BLACK
6
CONTINUOUS
10
3.26701
20
-7.10368
11
3.26139
21
-7.09244
0
LINE
8
BLACK
6
CONTINUOUS
10
3.26139
20
-7.09244
11
3.25576
21
-7.08681
0
LINE
8
BLACK
6
CONTINUOUS
10
3.25576
20
-7.08681
11
3.24452
21
-7.08119
0
LINE
8
BLACK
6
CONTINUOUS
10
3.24452
20
-7.08119
11
3.22202
21
-7.08119
0
LINE
8
BLACK
6
CONTINUOUS
10
3.22202
20
-7.08119
11
3.21077
21
-7.08681
0
LINE
8
BLACK
6
CONTINUOUS
10
3.21077
20
-7.08681
11
3.20515
21
-7.09244
0
LINE
8
BLACK
6
CONTINUOUS
10
3.20515
20
-7.09244
11
3.19952
21
-7.10368
0
LINE
8
BLACK
6
CONTINUOUS
10
3.19952
20
-7.10368
11
3.19952
21
-7.13181
0
LINE
8
BLACK
6
CONTINUOUS
10
3.19952
20
-7.13181
11
3.20515
21
-7.14305
0
LINE
8
BLACK
6
CONTINUOUS
10
3.20515
20
-7.14305
11
3.21077
21
-7.14868
0
LINE
8
BLACK
6
CONTINUOUS
10
3.21077
20
-7.14868
11
3.22202
21
-7.1543
0
LINE
8
BLACK
6
CONTINUOUS
10
3.22202
20
-7.1543
11
3.24452
21
-7.1543
0
LINE
8
BLACK
6
CONTINUOUS
10
3.24452
20
-7.1543
11
3.25576
21
-7.14868
0
LINE
8
BLACK
6
CONTINUOUS
10
3.25576
20
-7.14868
11
3.26139
21
-7.14305
0
LINE
8
BLACK
6
CONTINUOUS
10
3.26139
20
-7.14305
11
3.26701
21
-7.13181
0
LINE
8
BLACK
6
CONTINUOUS
10
3.36825
20
-7.12056
11
3.36825
21
-7.1993
0
LINE
8
BLACK
6
CONTINUOUS
10
3.34013
20
-7.07556
11
3.31201
21
-7.15993
0
LINE
8
BLACK
6
CONTINUOUS
10
3.31201
20
-7.15993
11
3.38512
21
-7.15993
0
LINE
8
BLACK
6
CONTINUOUS
10
3.42449
20
-7.08119
11
3.42449
21
-7.10368
0
LINE
8
BLACK
6
CONTINUOUS
10
3.46949
20
-7.08119
11
3.46949
21
-7.10368
0
LINE
8
BLACK
6
CONTINUOUS
10
3.64384
20
-7.24429
11
3.63822
21
-7.23867
0
LINE
8
BLACK
6
CONTINUOUS
10
3.63822
20
-7.23867
11
3.62697
21
-7.22179
0
LINE
8
BLACK
6
CONTINUOUS
10
3.62697
20
-7.22179
11
3.62134
21
-7.21055
0
LINE
8
BLACK
6
CONTINUOUS
10
3.62134
20
-7.21055
11
3.61572
21
-7.19367
0
LINE
8
BLACK
6
CONTINUOUS
10
3.61572
20
-7.19367
11
3.6101
21
-7.16555
0
LINE
8
BLACK
6
CONTINUOUS
10
3.6101
20
-7.16555
11
3.6101
21
-7.14305
0
LINE
8
BLACK
6
CONTINUOUS
10
3.6101
20
-7.14305
11
3.61572
21
-7.11493
0
LINE
8
BLACK
6
CONTINUOUS
10
3.61572
20
-7.11493
11
3.62134
21
-7.09806
0
LINE
8
BLACK
6
CONTINUOUS
10
3.62134
20
-7.09806
11
3.62697
21
-7.08681
0
LINE
8
BLACK
6
CONTINUOUS
10
3.62697
20
-7.08681
11
3.63822
21
-7.06994
0
LINE
8
BLACK
6
CONTINUOUS
10
3.63822
20
-7.06994
11
3.64384
21
-7.06431
0
LINE
8
BLACK
6
CONTINUOUS
10
3.7507
20
-7.1993
11
3.68321
21
-7.1993
0
LINE
8
BLACK
6
CONTINUOUS
10
3.71696
20
-7.1993
11
3.71696
21
-7.08119
0
LINE
8
BLACK
6
CONTINUOUS
10
3.71696
20
-7.08119
11
3.70571
21
-7.09806
0
LINE
8
BLACK
6
CONTINUOUS
10
3.70571
20
-7.09806
11
3.69446
21
-7.10931
0
LINE
8
BLACK
6
CONTINUOUS
10
3.69446
20
-7.10931
11
3.68321
21
-7.11493
0
LINE
8
BLACK
6
CONTINUOUS
10
3.79007
20
-7.08119
11
3.86881
21
-7.08119
0
LINE
8
BLACK
6
CONTINUOUS
10
3.86881
20
-7.08119
11
3.81819
21
-7.1993
0
LINE
8
BLACK
6
CONTINUOUS
10
4.0038
20
-7.1993
11
4.0038
21
-7.08119
0
LINE
8
BLACK
6
CONTINUOUS
10
4.05441
20
-7.1993
11
4.05441
21
-7.13743
0
LINE
8
BLACK
6
CONTINUOUS
10
4.05441
20
-7.13743
11
4.04879
21
-7.12618
0
LINE
8
BLACK
6
CONTINUOUS
10
4.04879
20
-7.12618
11
4.03754
21
-7.12056
0
LINE
8
BLACK
6
CONTINUOUS
10
4.03754
20
-7.12056
11
4.02067
21
-7.12056
0
LINE
8
BLACK
6
CONTINUOUS
10
4.02067
20
-7.12056
11
4.00942
21
-7.12618
0
LINE
8
BLACK
6
CONTINUOUS
10
4.00942
20
-7.12618
11
4.0038
21
-7.13181
0
LINE
8
BLACK
6
CONTINUOUS
10
4.12753
20
-7.1993
11
4.11628
21
-7.19367
0
LINE
8
BLACK
6
CONTINUOUS
10
4.11628
20
-7.19367
11
4.11066
21
-7.18805
0
LINE
8
BLACK
6
CONTINUOUS
10
4.11066
20
-7.18805
11
4.10503
21
-7.1768
0
LINE
8
BLACK
6
CONTINUOUS
10
4.10503
20
-7.1768
11
4.10503
21
-7.14305
0
LINE
8
BLACK
6
CONTINUOUS
10
4.10503
20
-7.14305
11
4.11066
21
-7.13181
0
LINE
8
BLACK
6
CONTINUOUS
10
4.11066
20
-7.13181
11
4.11628
21
-7.12618
0
LINE
8
BLACK
6
CONTINUOUS
10
4.11628
20
-7.12618
11
4.12753
21
-7.12056
0
LINE
8
BLACK
6
CONTINUOUS
10
4.12753
20
-7.12056
11
4.1444
21
-7.12056
0
LINE
8
BLACK
6
CONTINUOUS
10
4.1444
20
-7.12056
11
4.15565
21
-7.12618
0
LINE
8
BLACK
6
CONTINUOUS
10
4.15565
20
-7.12618
11
4.16128
21
-7.13181
0
LINE
8
BLACK
6
CONTINUOUS
10
4.16128
20
-7.13181
11
4.1669
21
-7.14305
0
LINE
8
BLACK
6
CONTINUOUS
10
4.1669
20
-7.14305
11
4.1669
21
-7.1768
0
LINE
8
BLACK
6
CONTINUOUS
10
4.1669
20
-7.1768
11
4.16128
21
-7.18805
0
LINE
8
BLACK
6
CONTINUOUS
10
4.16128
20
-7.18805
11
4.15565
21
-7.19367
0
LINE
8
BLACK
6
CONTINUOUS
10
4.15565
20
-7.19367
11
4.1444
21
-7.1993
0
LINE
8
BLACK
6
CONTINUOUS
10
4.1444
20
-7.1993
11
4.12753
21
-7.1993
0
LINE
8
BLACK
6
CONTINUOUS
10
4.23439
20
-7.1993
11
4.22314
21
-7.19367
0
LINE
8
BLACK
6
CONTINUOUS
10
4.22314
20
-7.19367
11
4.21752
21
-7.18242
0
LINE
8
BLACK
6
CONTINUOUS
10
4.21752
20
-7.18242
11
4.21752
21
-7.08119
0
LINE
8
BLACK
6
CONTINUOUS
10
4.32438
20
-7.19367
11
4.31313
21
-7.1993
0
LINE
8
BLACK
6
CONTINUOUS
10
4.31313
20
-7.1993
11
4.29064
21
-7.1993
0
LINE
8
BLACK
6
CONTINUOUS
10
4.29064
20
-7.1993
11
4.27939
21
-7.19367
0
LINE
8
BLACK
6
CONTINUOUS
10
4.27939
20
-7.19367
11
4.27376
21
-7.18242
0
LINE
8
BLACK
6
CONTINUOUS
10
4.27376
20
-7.18242
11
4.27376
21
-7.13743
0
LINE
8
BLACK
6
CONTINUOUS
10
4.27376
20
-7.13743
11
4.27939
21
-7.12618
0
LINE
8
BLACK
6
CONTINUOUS
10
4.27939
20
-7.12618
11
4.29064
21
-7.12056
0
LINE
8
BLACK
6
CONTINUOUS
10
4.29064
20
-7.12056
11
4.31313
21
-7.12056
0
LINE
8
BLACK
6
CONTINUOUS
10
4.31313
20
-7.12056
11
4.32438
21
-7.12618
0
LINE
8
BLACK
6
CONTINUOUS
10
4.32438
20
-7.12618
11
4.33001
21
-7.13743
0
LINE
8
BLACK
6
CONTINUOUS
10
4.33001
20
-7.13743
11
4.33001
21
-7.14868
0
LINE
8
BLACK
6
CONTINUOUS
10
4.33001
20
-7.14868
11
4.27376
21
-7.15993
0
LINE
8
BLACK
6
CONTINUOUS
10
4.375
20
-7.19367
11
4.38625
21
-7.1993
0
LINE
8
BLACK
6
CONTINUOUS
10
4.38625
20
-7.1993
11
4.40875
21
-7.1993
0
LINE
8
BLACK
6
CONTINUOUS
10
4.40875
20
-7.1993
11
4.41999
21
-7.19367
0
LINE
8
BLACK
6
CONTINUOUS
10
4.41999
20
-7.19367
11
4.42562
21
-7.18242
0
LINE
8
BLACK
6
CONTINUOUS
10
4.42562
20
-7.18242
11
4.42562
21
-7.1768
0
LINE
8
BLACK
6
CONTINUOUS
10
4.42562
20
-7.1768
11
4.41999
21
-7.16555
0
LINE
8
BLACK
6
CONTINUOUS
10
4.41999
20
-7.16555
11
4.40875
21
-7.15993
0
LINE
8
BLACK
6
CONTINUOUS
10
4.40875
20
-7.15993
11
4.39187
21
-7.15993
0
LINE
8
BLACK
6
CONTINUOUS
10
4.39187
20
-7.15993
11
4.38062
21
-7.1543
0
LINE
8
BLACK
6
CONTINUOUS
10
4.38062
20
-7.1543
11
4.375
21
-7.14305
0
LINE
8
BLACK
6
CONTINUOUS
10
4.375
20
-7.14305
11
4.375
21
-7.13743
0
LINE
8
BLACK
6
CONTINUOUS
10
4.375
20
-7.13743
11
4.38062
21
-7.12618
0
LINE
8
BLACK
6
CONTINUOUS
10
4.38062
20
-7.12618
11
4.39187
21
-7.12056
0
LINE
8
BLACK
6
CONTINUOUS
10
4.39187
20
-7.12056
11
4.40875
21
-7.12056
0
LINE
8
BLACK
6
CONTINUOUS
10
4.40875
20
-7.12056
11
4.41999
21
-7.12618
0
LINE
8
BLACK
6
CONTINUOUS
10
4.46499
20
-7.24429
11
4.47061
21
-7.23867
0
LINE
8
BLACK
6
CONTINUOUS
10
4.47061
20
-7.23867
11
4.48186
21
-7.22179
0
LINE
8
BLACK
6
CONTINUOUS
10
4.48186
20
-7.22179
11
4.48749
21
-7.21055
0
LINE
8
BLACK
6
CONTINUOUS
10
4.48749
20
-7.21055
11
4.49311
21
-7.19367
0
LINE
8
BLACK
6
CONTINUOUS
10
4.49311
20
-7.19367
11
4.49873
21
-7.16555
0
LINE
8
BLACK
6
CONTINUOUS
10
4.49873
20
-7.16555
11
4.49873
21
-7.14305
0
LINE
8
BLACK
6
CONTINUOUS
10
4.49873
20
-7.14305
11
4.49311
21
-7.11493
0
LINE
8
BLACK
6
CONTINUOUS
10
4.49311
20
-7.11493
11
4.48749
21
-7.09806
0
LINE
8
BLACK
6
CONTINUOUS
10
4.48749
20
-7.09806
11
4.48186
21
-7.08681
0
LINE
8
BLACK
6
CONTINUOUS
10
4.48186
20
-7.08681
11
4.47061
21
-7.06994
0
LINE
8
BLACK
6
CONTINUOUS
10
4.47061
20
-7.06994
11
4.46499
21
-7.06431
0
LINE
8
BLACK
6
CONTINUOUS
10
1.54823
20
-7.32736
11
1.57382
21
-7.30177
0
LINE
8
BLACK
6
CONTINUOUS
10
1.57382
20
-7.30177
11
1.54823
21
-7.27618
0
LINE
8
BLACK
6
CONTINUOUS
10
1.54823
20
-7.27618
11
1.52264
21
-7.30177
0
LINE
8
BLACK
6
CONTINUOUS
10
1.52264
20
-7.30177
11
1.54823
21
-7.32736
0
LINE
8
BLACK
6
CONTINUOUS
10
1.74845
20
-7.3552
11
1.68096
21
-7.3552
0
LINE
8
BLACK
6
CONTINUOUS
10
1.71471
20
-7.3552
11
1.71471
21
-7.23709
0
LINE
8
BLACK
6
CONTINUOUS
10
1.71471
20
-7.23709
11
1.70346
21
-7.25397
0
LINE
8
BLACK
6
CONTINUOUS
10
1.70346
20
-7.25397
11
1.69221
21
-7.26521
0
LINE
8
BLACK
6
CONTINUOUS
10
1.69221
20
-7.26521
11
1.68096
21
-7.27084
0
LINE
8
BLACK
6
CONTINUOUS
10
1.79907
20
-7.34395
11
1.8047
21
-7.34958
0
LINE
8
BLACK
6
CONTINUOUS
10
1.8047
20
-7.34958
11
1.79907
21
-7.3552
0
LINE
8
BLACK
6
CONTINUOUS
10
1.79907
20
-7.3552
11
1.79345
21
-7.34958
0
LINE
8
BLACK
6
CONTINUOUS
10
1.79345
20
-7.34958
11
1.79907
21
-7.34395
0
LINE
8
BLACK
6
CONTINUOUS
10
1.79907
20
-7.34395
11
1.79907
21
-7.3552
0
LINE
8
BLACK
6
CONTINUOUS
10
1.84407
20
-7.23709
11
1.91718
21
-7.23709
0
LINE
8
BLACK
6
CONTINUOUS
10
1.91718
20
-7.23709
11
1.87781
21
-7.28209
0
LINE
8
BLACK
6
CONTINUOUS
10
1.87781
20
-7.28209
11
1.89468
21
-7.28209
0
LINE
8
BLACK
6
CONTINUOUS
10
1.89468
20
-7.28209
11
1.90593
21
-7.28771
0
LINE
8
BLACK
6
CONTINUOUS
10
1.90593
20
-7.28771
11
1.91156
21
-7.29334
0
LINE
8
BLACK
6
CONTINUOUS
10
1.91156
20
-7.29334
11
1.91718
21
-7.30458
0
LINE
8
BLACK
6
CONTINUOUS
10
1.91718
20
-7.30458
11
1.91718
21
-7.33271
0
LINE
8
BLACK
6
CONTINUOUS
10
1.91718
20
-7.33271
11
1.91156
21
-7.34395
0
LINE
8
BLACK
6
CONTINUOUS
10
1.91156
20
-7.34395
11
1.90593
21
-7.34958
0
LINE
8
BLACK
6
CONTINUOUS
10
1.90593
20
-7.34958
11
1.89468
21
-7.3552
0
LINE
8
BLACK
6
CONTINUOUS
10
1.89468
20
-7.3552
11
1.86094
21
-7.3552
0
LINE
8
BLACK
6
CONTINUOUS
10
1.86094
20
-7.3552
11
1.84969
21
-7.34958
0
LINE
8
BLACK
6
CONTINUOUS
10
1.84969
20
-7.34958
11
1.84407
21
-7.34395
0
LINE
8
BLACK
6
CONTINUOUS
10
1.9903
20
-7.23709
11
2.00155
21
-7.23709
0
LINE
8
BLACK
6
CONTINUOUS
10
2.00155
20
-7.23709
11
2.0128
21
-7.24272
0
LINE
8
BLACK
6
CONTINUOUS
10
2.0128
20
-7.24272
11
2.01842
21
-7.24834
0
LINE
8
BLACK
6
CONTINUOUS
10
2.01842
20
-7.24834
11
2.02404
21
-7.25959
0
LINE
8
BLACK
6
CONTINUOUS
10
2.02404
20
-7.25959
11
2.02967
21
-7.28209
0
LINE
8
BLACK
6
CONTINUOUS
10
2.02967
20
-7.28209
11
2.02967
21
-7.31021
0
LINE
8
BLACK
6
CONTINUOUS
10
2.02967
20
-7.31021
11
2.02404
21
-7.33271
0
LINE
8
BLACK
6
CONTINUOUS
10
2.02404
20
-7.33271
11
2.01842
21
-7.34395
0
LINE
8
BLACK
6
CONTINUOUS
10
2.01842
20
-7.34395
11
2.0128
21
-7.34958
0
LINE
8
BLACK
6
CONTINUOUS
10
2.0128
20
-7.34958
11
2.00155
21
-7.3552
0
LINE
8
BLACK
6
CONTINUOUS
10
2.00155
20
-7.3552
11
1.9903
21
-7.3552
0
LINE
8
BLACK
6
CONTINUOUS
10
1.9903
20
-7.3552
11
1.97905
21
-7.34958
0
LINE
8
BLACK
6
CONTINUOUS
10
1.97905
20
-7.34958
11
1.97343
21
-7.34395
0
LINE
8
BLACK
6
CONTINUOUS
10
1.97343
20
-7.34395
11
1.9678
21
-7.33271
0
LINE
8
BLACK
6
CONTINUOUS
10
1.9678
20
-7.33271
11
1.96218
21
-7.31021
0
LINE
8
BLACK
6
CONTINUOUS
10
1.96218
20
-7.31021
11
1.96218
21
-7.28209
0
LINE
8
BLACK
6
CONTINUOUS
10
1.96218
20
-7.28209
11
1.9678
21
-7.25959
0
LINE
8
BLACK
6
CONTINUOUS
10
1.9678
20
-7.25959
11
1.97343
21
-7.24834
0
LINE
8
BLACK
6
CONTINUOUS
10
1.97343
20
-7.24834
11
1.97905
21
-7.24272
0
LINE
8
BLACK
6
CONTINUOUS
10
1.97905
20
-7.24272
11
1.9903
21
-7.23709
0
LINE
8
BLACK
6
CONTINUOUS
10
2.10278
20
-7.23709
11
2.11403
21
-7.23709
0
LINE
8
BLACK
6
CONTINUOUS
10
2.11403
20
-7.23709
11
2.12528
21
-7.24272
0
LINE
8
BLACK
6
CONTINUOUS
10
2.12528
20
-7.24272
11
2.13091
21
-7.24834
0
LINE
8
BLACK
6
CONTINUOUS
10
2.13091
20
-7.24834
11
2.13653
21
-7.25959
0
LINE
8
BLACK
6
CONTINUOUS
10
2.13653
20
-7.25959
11
2.14215
21
-7.28209
0
LINE
8
BLACK
6
CONTINUOUS
10
2.14215
20
-7.28209
11
2.14215
21
-7.31021
0
LINE
8
BLACK
6
CONTINUOUS
10
2.14215
20
-7.31021
11
2.13653
21
-7.33271
0
LINE
8
BLACK
6
CONTINUOUS
10
2.13653
20
-7.33271
11
2.13091
21
-7.34395
0
LINE
8
BLACK
6
CONTINUOUS
10
2.13091
20
-7.34395
11
2.12528
21
-7.34958
0
LINE
8
BLACK
6
CONTINUOUS
10
2.12528
20
-7.34958
11
2.11403
21
-7.3552
0
LINE
8
BLACK
6
CONTINUOUS
10
2.11403
20
-7.3552
11
2.10278
21
-7.3552
0
LINE
8
BLACK
6
CONTINUOUS
10
2.10278
20
-7.3552
11
2.09154
21
-7.34958
0
LINE
8
BLACK
6
CONTINUOUS
10
2.09154
20
-7.34958
11
2.08591
21
-7.34395
0
LINE
8
BLACK
6
CONTINUOUS
10
2.08591
20
-7.34395
11
2.08029
21
-7.33271
0
LINE
8
BLACK
6
CONTINUOUS
10
2.08029
20
-7.33271
11
2.07466
21
-7.31021
0
LINE
8
BLACK
6
CONTINUOUS
10
2.07466
20
-7.31021
11
2.07466
21
-7.28209
0
LINE
8
BLACK
6
CONTINUOUS
10
2.07466
20
-7.28209
11
2.08029
21
-7.25959
0
LINE
8
BLACK
6
CONTINUOUS
10
2.08029
20
-7.25959
11
2.08591
21
-7.24834
0
LINE
8
BLACK
6
CONTINUOUS
10
2.08591
20
-7.24834
11
2.09154
21
-7.24272
0
LINE
8
BLACK
6
CONTINUOUS
10
2.09154
20
-7.24272
11
2.10278
21
-7.23709
0
LINE
8
BLACK
6
CONTINUOUS
10
2.19277
20
-7.3552
11
2.19277
21
-7.27646
0
LINE
8
BLACK
6
CONTINUOUS
10
2.19277
20
-7.28771
11
2.1984
21
-7.28209
0
LINE
8
BLACK
6
CONTINUOUS
10
2.1984
20
-7.28209
11
2.20965
21
-7.27646
0
LINE
8
BLACK
6
CONTINUOUS
10
2.20965
20
-7.27646
11
2.22652
21
-7.27646
0
LINE
8
BLACK
6
CONTINUOUS
10
2.22652
20
-7.27646
11
2.23777
21
-7.28209
0
LINE
8
BLACK
6
CONTINUOUS
10
2.23777
20
-7.28209
11
2.24339
21
-7.29334
0
LINE
8
BLACK
6
CONTINUOUS
10
2.24339
20
-7.29334
11
2.24339
21
-7.3552
0
LINE
8
BLACK
6
CONTINUOUS
10
2.24339
20
-7.29334
11
2.24902
21
-7.28209
0
LINE
8
BLACK
6
CONTINUOUS
10
2.24902
20
-7.28209
11
2.26026
21
-7.27646
0
LINE
8
BLACK
6
CONTINUOUS
10
2.26026
20
-7.27646
11
2.27714
21
-7.27646
0
LINE
8
BLACK
6
CONTINUOUS
10
2.27714
20
-7.27646
11
2.28839
21
-7.28209
0
LINE
8
BLACK
6
CONTINUOUS
10
2.28839
20
-7.28209
11
2.29401
21
-7.29334
0
LINE
8
BLACK
6
CONTINUOUS
10
2.29401
20
-7.29334
11
2.29401
21
-7.3552
0
LINE
8
BLACK
6
CONTINUOUS
10
2.35025
20
-7.3552
11
2.35025
21
-7.27646
0
LINE
8
BLACK
6
CONTINUOUS
10
2.35025
20
-7.28771
11
2.35588
21
-7.28209
0
LINE
8
BLACK
6
CONTINUOUS
10
2.35588
20
-7.28209
11
2.36713
21
-7.27646
0
LINE
8
BLACK
6
CONTINUOUS
10
2.36713
20
-7.27646
11
2.384
21
-7.27646
0
LINE
8
BLACK
6
CONTINUOUS
10
2.384
20
-7.27646
11
2.39525
21
-7.28209
0
LINE
8
BLACK
6
CONTINUOUS
10
2.39525
20
-7.28209
11
2.40087
21
-7.29334
0
LINE
8
BLACK
6
CONTINUOUS
10
2.40087
20
-7.29334
11
2.40087
21
-7.3552
0
LINE
8
BLACK
6
CONTINUOUS
10
2.40087
20
-7.29334
11
2.4065
21
-7.28209
0
LINE
8
BLACK
6
CONTINUOUS
10
2.4065
20
-7.28209
11
2.41774
21
-7.27646
0
LINE
8
BLACK
6
CONTINUOUS
10
2.41774
20
-7.27646
11
2.43462
21
-7.27646
0
LINE
8
BLACK
6
CONTINUOUS
10
2.43462
20
-7.27646
11
2.44587
21
-7.28209
0
LINE
8
BLACK
6
CONTINUOUS
10
2.44587
20
-7.28209
11
2.45149
21
-7.29334
0
LINE
8
BLACK
6
CONTINUOUS
10
2.45149
20
-7.29334
11
2.45149
21
-7.3552
0
LINE
8
BLACK
6
CONTINUOUS
10
2.68209
20
-7.23147
11
2.58085
21
-7.38332
0
LINE
8
BLACK
6
CONTINUOUS
10
2.83394
20
-7.23709
11
2.84519
21
-7.23709
0
LINE
8
BLACK
6
CONTINUOUS
10
2.84519
20
-7.23709
11
2.85644
21
-7.24272
0
LINE
8
BLACK
6
CONTINUOUS
10
2.85644
20
-7.24272
11
2.86206
21
-7.24834
0
LINE
8
BLACK
6
CONTINUOUS
10
2.86206
20
-7.24834
11
2.86769
21
-7.25959
0
LINE
8
BLACK
6
CONTINUOUS
10
2.86769
20
-7.25959
11
2.87331
21
-7.28209
0
LINE
8
BLACK
6
CONTINUOUS
10
2.87331
20
-7.28209
11
2.87331
21
-7.31021
0
LINE
8
BLACK
6
CONTINUOUS
10
2.87331
20
-7.31021
11
2.86769
21
-7.33271
0
LINE
8
BLACK
6
CONTINUOUS
10
2.86769
20
-7.33271
11
2.86206
21
-7.34395
0
LINE
8
BLACK
6
CONTINUOUS
10
2.86206
20
-7.34395
11
2.85644
21
-7.34958
0
LINE
8
BLACK
6
CONTINUOUS
10
2.85644
20
-7.34958
11
2.84519
21
-7.3552
0
LINE
8
BLACK
6
CONTINUOUS
10
2.84519
20
-7.3552
11
2.83394
21
-7.3552
0
LINE
8
BLACK
6
CONTINUOUS
10
2.83394
20
-7.3552
11
2.82269
21
-7.34958
0
LINE
8
BLACK
6
CONTINUOUS
10
2.82269
20
-7.34958
11
2.81707
21
-7.34395
0
LINE
8
BLACK
6
CONTINUOUS
10
2.81707
20
-7.34395
11
2.81145
21
-7.33271
0
LINE
8
BLACK
6
CONTINUOUS
10
2.81145
20
-7.33271
11
2.80582
21
-7.31021
0
LINE
8
BLACK
6
CONTINUOUS
10
2.80582
20
-7.31021
11
2.80582
21
-7.28209
0
LINE
8
BLACK
6
CONTINUOUS
10
2.80582
20
-7.28209
11
2.81145
21
-7.25959
0
LINE
8
BLACK
6
CONTINUOUS
10
2.81145
20
-7.25959
11
2.81707
21
-7.24834
0
LINE
8
BLACK
6
CONTINUOUS
10
2.81707
20
-7.24834
11
2.82269
21
-7.24272
0
LINE
8
BLACK
6
CONTINUOUS
10
2.82269
20
-7.24272
11
2.83394
21
-7.23709
0
LINE
8
BLACK
6
CONTINUOUS
10
2.92393
20
-7.34395
11
2.92956
21
-7.34958
0
LINE
8
BLACK
6
CONTINUOUS
10
2.92956
20
-7.34958
11
2.92393
21
-7.3552
0
LINE
8
BLACK
6
CONTINUOUS
10
2.92393
20
-7.3552
11
2.91831
21
-7.34958
0
LINE
8
BLACK
6
CONTINUOUS
10
2.91831
20
-7.34958
11
2.92393
21
-7.34395
0
LINE
8
BLACK
6
CONTINUOUS
10
2.92393
20
-7.34395
11
2.92393
21
-7.3552
0
LINE
8
BLACK
6
CONTINUOUS
10
3.00267
20
-7.23709
11
3.01392
21
-7.23709
0
LINE
8
BLACK
6
CONTINUOUS
10
3.01392
20
-7.23709
11
3.02517
21
-7.24272
0
LINE
8
BLACK
6
CONTINUOUS
10
3.02517
20
-7.24272
11
3.03079
21
-7.24834
0
LINE
8
BLACK
6
CONTINUOUS
10
3.03079
20
-7.24834
11
3.03642
21
-7.25959
0
LINE
8
BLACK
6
CONTINUOUS
10
3.03642
20
-7.25959
11
3.04204
21
-7.28209
0
LINE
8
BLACK
6
CONTINUOUS
10
3.04204
20
-7.28209
11
3.04204
21
-7.31021
0
LINE
8
BLACK
6
CONTINUOUS
10
3.04204
20
-7.31021
11
3.03642
21
-7.33271
0
LINE
8
BLACK
6
CONTINUOUS
10
3.03642
20
-7.33271
11
3.03079
21
-7.34395
0
LINE
8
BLACK
6
CONTINUOUS
10
3.03079
20
-7.34395
11
3.02517
21
-7.34958
0
LINE
8
BLACK
6
CONTINUOUS
10
3.02517
20
-7.34958
11
3.01392
21
-7.3552
0
LINE
8
BLACK
6
CONTINUOUS
10
3.01392
20
-7.3552
11
3.00267
21
-7.3552
0
LINE
8
BLACK
6
CONTINUOUS
10
3.00267
20
-7.3552
11
2.99142
21
-7.34958
0
LINE
8
BLACK
6
CONTINUOUS
10
2.99142
20
-7.34958
11
2.9858
21
-7.34395
0
LINE
8
BLACK
6
CONTINUOUS
10
2.9858
20
-7.34395
11
2.98017
21
-7.33271
0
LINE
8
BLACK
6
CONTINUOUS
10
2.98017
20
-7.33271
11
2.97455
21
-7.31021
0
LINE
8
BLACK
6
CONTINUOUS
10
2.97455
20
-7.31021
11
2.97455
21
-7.28209
0
LINE
8
BLACK
6
CONTINUOUS
10
2.97455
20
-7.28209
11
2.98017
21
-7.25959
0
LINE
8
BLACK
6
CONTINUOUS
10
2.98017
20
-7.25959
11
2.9858
21
-7.24834
0
LINE
8
BLACK
6
CONTINUOUS
10
2.9858
20
-7.24834
11
2.99142
21
-7.24272
0
LINE
8
BLACK
6
CONTINUOUS
10
2.99142
20
-7.24272
11
3.00267
21
-7.23709
0
LINE
8
BLACK
6
CONTINUOUS
10
3.1489
20
-7.23709
11
3.09266
21
-7.23709
0
LINE
8
BLACK
6
CONTINUOUS
10
3.09266
20
-7.23709
11
3.08704
21
-7.29334
0
LINE
8
BLACK
6
CONTINUOUS
10
3.08704
20
-7.29334
11
3.09266
21
-7.28771
0
LINE
8
BLACK
6
CONTINUOUS
10
3.09266
20
-7.28771
11
3.10391
21
-7.28209
0
LINE
8
BLACK
6
CONTINUOUS
10
3.10391
20
-7.28209
11
3.13203
21
-7.28209
0
LINE
8
BLACK
6
CONTINUOUS
10
3.13203
20
-7.28209
11
3.14328
21
-7.28771
0
LINE
8
BLACK
6
CONTINUOUS
10
3.14328
20
-7.28771
11
3.1489
21
-7.29334
0
LINE
8
BLACK
6
CONTINUOUS
10
3.1489
20
-7.29334
11
3.15453
21
-7.30458
0
LINE
8
BLACK
6
CONTINUOUS
10
3.15453
20
-7.30458
11
3.15453
21
-7.33271
0
LINE
8
BLACK
6
CONTINUOUS
10
3.15453
20
-7.33271
11
3.1489
21
-7.34395
0
LINE
8
BLACK
6
CONTINUOUS
10
3.1489
20
-7.34395
11
3.14328
21
-7.34958
0
LINE
8
BLACK
6
CONTINUOUS
10
3.14328
20
-7.34958
11
3.13203
21
-7.3552
0
LINE
8
BLACK
6
CONTINUOUS
10
3.13203
20
-7.3552
11
3.10391
21
-7.3552
0
LINE
8
BLACK
6
CONTINUOUS
10
3.10391
20
-7.3552
11
3.09266
21
-7.34958
0
LINE
8
BLACK
6
CONTINUOUS
10
3.09266
20
-7.34958
11
3.08704
21
-7.34395
0
LINE
8
BLACK
6
CONTINUOUS
10
3.26701
20
-7.3552
11
3.19952
21
-7.3552
0
LINE
8
BLACK
6
CONTINUOUS
10
3.23327
20
-7.3552
11
3.23327
21
-7.23709
0
LINE
8
BLACK
6
CONTINUOUS
10
3.23327
20
-7.23709
11
3.22202
21
-7.25397
0
LINE
8
BLACK
6
CONTINUOUS
10
3.22202
20
-7.25397
11
3.21077
21
-7.26521
0
LINE
8
BLACK
6
CONTINUOUS
10
3.21077
20
-7.26521
11
3.19952
21
-7.27084
0
LINE
8
BLACK
6
CONTINUOUS
10
3.31201
20
-7.24834
11
3.31763
21
-7.24272
0
LINE
8
BLACK
6
CONTINUOUS
10
3.31763
20
-7.24272
11
3.32888
21
-7.23709
0
LINE
8
BLACK
6
CONTINUOUS
10
3.32888
20
-7.23709
11
3.357
21
-7.23709
0
LINE
8
BLACK
6
CONTINUOUS
10
3.357
20
-7.23709
11
3.36825
21
-7.24272
0
LINE
8
BLACK
6
CONTINUOUS
10
3.36825
20
-7.24272
11
3.37388
21
-7.24834
0
LINE
8
BLACK
6
CONTINUOUS
10
3.37388
20
-7.24834
11
3.3795
21
-7.25959
0
LINE
8
BLACK
6
CONTINUOUS
10
3.3795
20
-7.25959
11
3.3795
21
-7.27084
0
LINE
8
BLACK
6
CONTINUOUS
10
3.3795
20
-7.27084
11
3.37388
21
-7.28771
0
LINE
8
BLACK
6
CONTINUOUS
10
3.37388
20
-7.28771
11
3.30638
21
-7.3552
0
LINE
8
BLACK
6
CONTINUOUS
10
3.30638
20
-7.3552
11
3.3795
21
-7.3552
0
LINE
8
BLACK
6
CONTINUOUS
10
3.42449
20
-7.23709
11
3.42449
21
-7.25959
0
LINE
8
BLACK
6
CONTINUOUS
10
3.46949
20
-7.23709
11
3.46949
21
-7.25959
0
LINE
8
BLACK
6
CONTINUOUS
10
3.64384
20
-7.4002
11
3.63822
21
-7.39457
0
LINE
8
BLACK
6
CONTINUOUS
10
3.63822
20
-7.39457
11
3.62697
21
-7.3777
0
LINE
8
BLACK
6
CONTINUOUS
10
3.62697
20
-7.3777
11
3.62134
21
-7.36645
0
LINE
8
BLACK
6
CONTINUOUS
10
3.62134
20
-7.36645
11
3.61572
21
-7.34958
0
LINE
8
BLACK
6
CONTINUOUS
10
3.61572
20
-7.34958
11
3.6101
21
-7.32146
0
LINE
8
BLACK
6
CONTINUOUS
10
3.6101
20
-7.32146
11
3.6101
21
-7.29896
0
LINE
8
BLACK
6
CONTINUOUS
10
3.6101
20
-7.29896
11
3.61572
21
-7.27084
0
LINE
8
BLACK
6
CONTINUOUS
10
3.61572
20
-7.27084
11
3.62134
21
-7.25397
0
LINE
8
BLACK
6
CONTINUOUS
10
3.62134
20
-7.25397
11
3.62697
21
-7.24272
0
LINE
8
BLACK
6
CONTINUOUS
10
3.62697
20
-7.24272
11
3.63822
21
-7.22584
0
LINE
8
BLACK
6
CONTINUOUS
10
3.63822
20
-7.22584
11
3.64384
21
-7.22022
0
LINE
8
BLACK
6
CONTINUOUS
10
3.68321
20
-7.24834
11
3.68884
21
-7.24272
0
LINE
8
BLACK
6
CONTINUOUS
10
3.68884
20
-7.24272
11
3.70008
21
-7.23709
0
LINE
8
BLACK
6
CONTINUOUS
10
3.70008
20
-7.23709
11
3.72821
21
-7.23709
0
LINE
8
BLACK
6
CONTINUOUS
10
3.72821
20
-7.23709
11
3.73945
21
-7.24272
0
LINE
8
BLACK
6
CONTINUOUS
10
3.73945
20
-7.24272
11
3.74508
21
-7.24834
0
LINE
8
BLACK
6
CONTINUOUS
10
3.74508
20
-7.24834
11
3.7507
21
-7.25959
0
LINE
8
BLACK
6
CONTINUOUS
10
3.7507
20
-7.25959
11
3.7507
21
-7.27084
0
LINE
8
BLACK
6
CONTINUOUS
10
3.7507
20
-7.27084
11
3.74508
21
-7.28771
0
LINE
8
BLACK
6
CONTINUOUS
10
3.74508
20
-7.28771
11
3.67759
21
-7.3552
0
LINE
8
BLACK
6
CONTINUOUS
10
3.67759
20
-7.3552
11
3.7507
21
-7.3552
0
LINE
8
BLACK
6
CONTINUOUS
10
3.85756
20
-7.23709
11
3.80132
21
-7.23709
0
LINE
8
BLACK
6
CONTINUOUS
10
3.80132
20
-7.23709
11
3.7957
21
-7.29334
0
LINE
8
BLACK
6
CONTINUOUS
10
3.7957
20
-7.29334
11
3.80132
21
-7.28771
0
LINE
8
BLACK
6
CONTINUOUS
10
3.80132
20
-7.28771
11
3.81257
21
-7.28209
0
LINE
8
BLACK
6
CONTINUOUS
10
3.81257
20
-7.28209
11
3.84069
21
-7.28209
0
LINE
8
BLACK
6
CONTINUOUS
10
3.84069
20
-7.28209
11
3.85194
21
-7.28771
0
LINE
8
BLACK
6
CONTINUOUS
10
3.85194
20
-7.28771
11
3.85756
21
-7.29334
0
LINE
8
BLACK
6
CONTINUOUS
10
3.85756
20
-7.29334
11
3.86319
21
-7.30458
0
LINE
8
BLACK
6
CONTINUOUS
10
3.86319
20
-7.30458
11
3.86319
21
-7.33271
0
LINE
8
BLACK
6
CONTINUOUS
10
3.86319
20
-7.33271
11
3.85756
21
-7.34395
0
LINE
8
BLACK
6
CONTINUOUS
10
3.85756
20
-7.34395
11
3.85194
21
-7.34958
0
LINE
8
BLACK
6
CONTINUOUS
10
3.85194
20
-7.34958
11
3.84069
21
-7.3552
0
LINE
8
BLACK
6
CONTINUOUS
10
3.84069
20
-7.3552
11
3.81257
21
-7.3552
0
LINE
8
BLACK
6
CONTINUOUS
10
3.81257
20
-7.3552
11
3.80132
21
-7.34958
0
LINE
8
BLACK
6
CONTINUOUS
10
3.80132
20
-7.34958
11
3.7957
21
-7.34395
0
LINE
8
BLACK
6
CONTINUOUS
10
4.0038
20
-7.3552
11
4.0038
21
-7.23709
0
LINE
8
BLACK
6
CONTINUOUS
10
4.05441
20
-7.3552
11
4.05441
21
-7.29334
0
LINE
8
BLACK
6
CONTINUOUS
10
4.05441
20
-7.29334
11
4.04879
21
-7.28209
0
LINE
8
BLACK
6
CONTINUOUS
10
4.04879
20
-7.28209
11
4.03754
21
-7.27646
0
LINE
8
BLACK
6
CONTINUOUS
10
4.03754
20
-7.27646
11
4.02067
21
-7.27646
0
LINE
8
BLACK
6
CONTINUOUS
10
4.02067
20
-7.27646
11
4.00942
21
-7.28209
0
LINE
8
BLACK
6
CONTINUOUS
10
4.00942
20
-7.28209
11
4.0038
21
-7.28771
0
LINE
8
BLACK
6
CONTINUOUS
10
4.12753
20
-7.3552
11
4.11628
21
-7.34958
0
LINE
8
BLACK
6
CONTINUOUS
10
4.11628
20
-7.34958
11
4.11066
21
-7.34395
0
LINE
8
BLACK
6
CONTINUOUS
10
4.11066
20
-7.34395
11
4.10503
21
-7.33271
0
LINE
8
BLACK
6
CONTINUOUS
10
4.10503
20
-7.33271
11
4.10503
21
-7.29896
0
LINE
8
BLACK
6
CONTINUOUS
10
4.10503
20
-7.29896
11
4.11066
21
-7.28771
0
LINE
8
BLACK
6
CONTINUOUS
10
4.11066
20
-7.28771
11
4.11628
21
-7.28209
0
LINE
8
BLACK
6
CONTINUOUS
10
4.11628
20
-7.28209
11
4.12753
21
-7.27646
0
LINE
8
BLACK
6
CONTINUOUS
10
4.12753
20
-7.27646
11
4.1444
21
-7.27646
0
LINE
8
BLACK
6
CONTINUOUS
10
4.1444
20
-7.27646
11
4.15565
21
-7.28209
0
LINE
8
BLACK
6
CONTINUOUS
10
4.15565
20
-7.28209
11
4.16128
21
-7.28771
0
LINE
8
BLACK
6
CONTINUOUS
10
4.16128
20
-7.28771
11
4.1669
21
-7.29896
0
LINE
8
BLACK
6
CONTINUOUS
10
4.1669
20
-7.29896
11
4.1669
21
-7.33271
0
LINE
8
BLACK
6
CONTINUOUS
10
4.1669
20
-7.33271
11
4.16128
21
-7.34395
0
LINE
8
BLACK
6
CONTINUOUS
10
4.16128
20
-7.34395
11
4.15565
21
-7.34958
0
LINE
8
BLACK
6
CONTINUOUS
10
4.15565
20
-7.34958
11
4.1444
21
-7.3552
0
LINE
8
BLACK
6
CONTINUOUS
10
4.1444
20
-7.3552
11
4.12753
21
-7.3552
0
LINE
8
BLACK
6
CONTINUOUS
10
4.23439
20
-7.3552
11
4.22314
21
-7.34958
0
LINE
8
BLACK
6
CONTINUOUS
10
4.22314
20
-7.34958
11
4.21752
21
-7.33833
0
LINE
8
BLACK
6
CONTINUOUS
10
4.21752
20
-7.33833
11
4.21752
21
-7.23709
0
LINE
8
BLACK
6
CONTINUOUS
10
4.32438
20
-7.34958
11
4.31313
21
-7.3552
0
LINE
8
BLACK
6
CONTINUOUS
10
4.31313
20
-7.3552
11
4.29064
21
-7.3552
0
LINE
8
BLACK
6
CONTINUOUS
10
4.29064
20
-7.3552
11
4.27939
21
-7.34958
0
LINE
8
BLACK
6
CONTINUOUS
10
4.27939
20
-7.34958
11
4.27376
21
-7.33833
0
LINE
8
BLACK
6
CONTINUOUS
10
4.27376
20
-7.33833
11
4.27376
21
-7.29334
0
LINE
8
BLACK
6
CONTINUOUS
10
4.27376
20
-7.29334
11
4.27939
21
-7.28209
0
LINE
8
BLACK
6
CONTINUOUS
10
4.27939
20
-7.28209
11
4.29064
21
-7.27646
0
LINE
8
BLACK
6
CONTINUOUS
10
4.29064
20
-7.27646
11
4.31313
21
-7.27646
0
LINE
8
BLACK
6
CONTINUOUS
10
4.31313
20
-7.27646
11
4.32438
21
-7.28209
0
LINE
8
BLACK
6
CONTINUOUS
10
4.32438
20
-7.28209
11
4.33001
21
-7.29334
0
LINE
8
BLACK
6
CONTINUOUS
10
4.33001
20
-7.29334
11
4.33001
21
-7.30458
0
LINE
8
BLACK
6
CONTINUOUS
10
4.33001
20
-7.30458
11
4.27376
21
-7.31583
0
LINE
8
BLACK
6
CONTINUOUS
10
4.375
20
-7.34958
11
4.38625
21
-7.3552
0
LINE
8
BLACK
6
CONTINUOUS
10
4.38625
20
-7.3552
11
4.40875
21
-7.3552
0
LINE
8
BLACK
6
CONTINUOUS
10
4.40875
20
-7.3552
11
4.41999
21
-7.34958
0
LINE
8
BLACK
6
CONTINUOUS
10
4.41999
20
-7.34958
11
4.42562
21
-7.33833
0
LINE
8
BLACK
6
CONTINUOUS
10
4.42562
20
-7.33833
11
4.42562
21
-7.33271
0
LINE
8
BLACK
6
CONTINUOUS
10
4.42562
20
-7.33271
11
4.41999
21
-7.32146
0
LINE
8
BLACK
6
CONTINUOUS
10
4.41999
20
-7.32146
11
4.40875
21
-7.31583
0
LINE
8
BLACK
6
CONTINUOUS
10
4.40875
20
-7.31583
11
4.39187
21
-7.31583
0
LINE
8
BLACK
6
CONTINUOUS
10
4.39187
20
-7.31583
11
4.38062
21
-7.31021
0
LINE
8
BLACK
6
CONTINUOUS
10
4.38062
20
-7.31021
11
4.375
21
-7.29896
0
LINE
8
BLACK
6
CONTINUOUS
10
4.375
20
-7.29896
11
4.375
21
-7.29334
0
LINE
8
BLACK
6
CONTINUOUS
10
4.375
20
-7.29334
11
4.38062
21
-7.28209
0
LINE
8
BLACK
6
CONTINUOUS
10
4.38062
20
-7.28209
11
4.39187
21
-7.27646
0
LINE
8
BLACK
6
CONTINUOUS
10
4.39187
20
-7.27646
11
4.40875
21
-7.27646
0
LINE
8
BLACK
6
CONTINUOUS
10
4.40875
20
-7.27646
11
4.41999
21
-7.28209
0
LINE
8
BLACK
6
CONTINUOUS
10
4.46499
20
-7.4002
11
4.47061
21
-7.39457
0
LINE
8
BLACK
6
CONTINUOUS
10
4.47061
20
-7.39457
11
4.48186
21
-7.3777
0
LINE
8
BLACK
6
CONTINUOUS
10
4.48186
20
-7.3777
11
4.48749
21
-7.36645
0
LINE
8
BLACK
6
CONTINUOUS
10
4.48749
20
-7.36645
11
4.49311
21
-7.34958
0
LINE
8
BLACK
6
CONTINUOUS
10
4.49311
20
-7.34958
11
4.49873
21
-7.32146
0
LINE
8
BLACK
6
CONTINUOUS
10
4.49873
20
-7.32146
11
4.49873
21
-7.29896
0
LINE
8
BLACK
6
CONTINUOUS
10
4.49873
20
-7.29896
11
4.49311
21
-7.27084
0
LINE
8
BLACK
6
CONTINUOUS
10
4.49311
20
-7.27084
11
4.48749
21
-7.25397
0
LINE
8
BLACK
6
CONTINUOUS
10
4.48749
20
-7.25397
11
4.48186
21
-7.24272
0
LINE
8
BLACK
6
CONTINUOUS
10
4.48186
20
-7.24272
11
4.47061
21
-7.22584
0
LINE
8
BLACK
6
CONTINUOUS
10
4.47061
20
-7.22584
11
4.46499
21
-7.22022
0
LINE
8
BLACK
6
CONTINUOUS
10
1.44783
20
-7.39469
11
1.57382
21
-7.52067
0
LINE
8
BLACK
6
CONTINUOUS
10
1.57382
20
-7.39469
11
1.44783
21
-7.52067
0
CIRCLE
8
BLACK
10
1.51083
20
-7.45768
40
0.0629921
0
LINE
8
BLACK
6
CONTINUOUS
10
1.67534
20
-7.393
11
1.74845
21
-7.393
0
LINE
8
BLACK
6
CONTINUOUS
10
1.74845
20
-7.393
11
1.70908
21
-7.43799
0
LINE
8
BLACK
6
CONTINUOUS
10
1.70908
20
-7.43799
11
1.72596
21
-7.43799
0
LINE
8
BLACK
6
CONTINUOUS
10
1.72596
20
-7.43799
11
1.7372
21
-7.44362
0
LINE
8
BLACK
6
CONTINUOUS
10
1.7372
20
-7.44362
11
1.74283
21
-7.44924
0
LINE
8
BLACK
6
CONTINUOUS
10
1.74283
20
-7.44924
11
1.74845
21
-7.46049
0
LINE
8
BLACK
6
CONTINUOUS
10
1.74845
20
-7.46049
11
1.74845
21
-7.48861
0
LINE
8
BLACK
6
CONTINUOUS
10
1.74845
20
-7.48861
11
1.74283
21
-7.49986
0
LINE
8
BLACK
6
CONTINUOUS
10
1.74283
20
-7.49986
11
1.7372
21
-7.50548
0
LINE
8
BLACK
6
CONTINUOUS
10
1.7372
20
-7.50548
11
1.72596
21
-7.51111
0
LINE
8
BLACK
6
CONTINUOUS
10
1.72596
20
-7.51111
11
1.69221
21
-7.51111
0
LINE
8
BLACK
6
CONTINUOUS
10
1.69221
20
-7.51111
11
1.68096
21
-7.50548
0
LINE
8
BLACK
6
CONTINUOUS
10
1.68096
20
-7.50548
11
1.67534
21
-7.49986
0
LINE
8
BLACK
6
CONTINUOUS
10
1.79907
20
-7.49986
11
1.8047
21
-7.50548
0
LINE
8
BLACK
6
CONTINUOUS
10
1.8047
20
-7.50548
11
1.79907
21
-7.51111
0
LINE
8
BLACK
6
CONTINUOUS
10
1.79907
20
-7.51111
11
1.79345
21
-7.50548
0
LINE
8
BLACK
6
CONTINUOUS
10
1.79345
20
-7.50548
11
1.79907
21
-7.49986
0
LINE
8
BLACK
6
CONTINUOUS
10
1.79907
20
-7.49986
11
1.79907
21
-7.51111
0
LINE
8
BLACK
6
CONTINUOUS
10
1.84969
20
-7.40425
11
1.85531
21
-7.39862
0
LINE
8
BLACK
6
CONTINUOUS
10
1.85531
20
-7.39862
11
1.86656
21
-7.393
0
LINE
8
BLACK
6
CONTINUOUS
10
1.86656
20
-7.393
11
1.89468
21
-7.393
0
LINE
8
BLACK
6
CONTINUOUS
10
1.89468
20
-7.393
11
1.90593
21
-7.39862
0
LINE
8
BLACK
6
CONTINUOUS
10
1.90593
20
-7.39862
11
1.91156
21
-7.40425
0
LINE
8
BLACK
6
CONTINUOUS
10
1.91156
20
-7.40425
11
1.91718
21
-7.41549
0
LINE
8
BLACK
6
CONTINUOUS
10
1.91718
20
-7.41549
11
1.91718
21
-7.42674
0
LINE
8
BLACK
6
CONTINUOUS
10
1.91718
20
-7.42674
11
1.91156
21
-7.44362
0
LINE
8
BLACK
6
CONTINUOUS
10
1.91156
20
-7.44362
11
1.84407
21
-7.51111
0
LINE
8
BLACK
6
CONTINUOUS
10
1.84407
20
-7.51111
11
1.91718
21
-7.51111
0
LINE
8
BLACK
6
CONTINUOUS
10
1.9903
20
-7.393
11
2.00155
21
-7.393
0
LINE
8
BLACK
6
CONTINUOUS
10
2.00155
20
-7.393
11
2.0128
21
-7.39862
0
LINE
8
BLACK
6
CONTINUOUS
10
2.0128
20
-7.39862
11
2.01842
21
-7.40425
0
LINE
8
BLACK
6
CONTINUOUS
10
2.01842
20
-7.40425
11
2.02404
21
-7.41549
0
LINE
8
BLACK
6
CONTINUOUS
10
2.02404
20
-7.41549
11
2.02967
21
-7.43799
0
LINE
8
BLACK
6
CONTINUOUS
10
2.02967
20
-7.43799
11
2.02967
21
-7.46611
0
LINE
8
BLACK
6
CONTINUOUS
10
2.02967
20
-7.46611
11
2.02404
21
-7.48861
0
LINE
8
BLACK
6
CONTINUOUS
10
2.02404
20
-7.48861
11
2.01842
21
-7.49986
0
LINE
8
BLACK
6
CONTINUOUS
10
2.01842
20
-7.49986
11
2.0128
21
-7.50548
0
LINE
8
BLACK
6
CONTINUOUS
10
2.0128
20
-7.50548
11
2.00155
21
-7.51111
0
LINE
8
BLACK
6
CONTINUOUS
10
2.00155
20
-7.51111
11
1.9903
21
-7.51111
0
LINE
8
BLACK
6
CONTINUOUS
10
1.9903
20
-7.51111
11
1.97905
21
-7.50548
0
LINE
8
BLACK
6
CONTINUOUS
10
1.97905
20
-7.50548
11
1.97343
21
-7.49986
0
LINE
8
BLACK
6
CONTINUOUS
10
1.97343
20
-7.49986
11
1.9678
21
-7.48861
0
LINE
8
BLACK
6
CONTINUOUS
10
1.9678
20
-7.48861
11
1.96218
21
-7.46611
0
LINE
8
BLACK
6
CONTINUOUS
10
1.96218
20
-7.46611
11
1.96218
21
-7.43799
0
LINE
8
BLACK
6
CONTINUOUS
10
1.96218
20
-7.43799
11
1.9678
21
-7.41549
0
LINE
8
BLACK
6
CONTINUOUS
10
1.9678
20
-7.41549
11
1.97343
21
-7.40425
0
LINE
8
BLACK
6
CONTINUOUS
10
1.97343
20
-7.40425
11
1.97905
21
-7.39862
0
LINE
8
BLACK
6
CONTINUOUS
10
1.97905
20
-7.39862
11
1.9903
21
-7.393
0
LINE
8
BLACK
6
CONTINUOUS
10
2.10278
20
-7.393
11
2.11403
21
-7.393
0
LINE
8
BLACK
6
CONTINUOUS
10
2.11403
20
-7.393
11
2.12528
21
-7.39862
0
LINE
8
BLACK
6
CONTINUOUS
10
2.12528
20
-7.39862
11
2.13091
21
-7.40425
0
LINE
8
BLACK
6
CONTINUOUS
10
2.13091
20
-7.40425
11
2.13653
21
-7.41549
0
LINE
8
BLACK
6
CONTINUOUS
10
2.13653
20
-7.41549
11
2.14215
21
-7.43799
0
LINE
8
BLACK
6
CONTINUOUS
10
2.14215
20
-7.43799
11
2.14215
21
-7.46611
0
LINE
8
BLACK
6
CONTINUOUS
10
2.14215
20
-7.46611
11
2.13653
21
-7.48861
0
LINE
8
BLACK
6
CONTINUOUS
10
2.13653
20
-7.48861
11
2.13091
21
-7.49986
0
LINE
8
BLACK
6
CONTINUOUS
10
2.13091
20
-7.49986
11
2.12528
21
-7.50548
0
LINE
8
BLACK
6
CONTINUOUS
10
2.12528
20
-7.50548
11
2.11403
21
-7.51111
0
LINE
8
BLACK
6
CONTINUOUS
10
2.11403
20
-7.51111
11
2.10278
21
-7.51111
0
LINE
8
BLACK
6
CONTINUOUS
10
2.10278
20
-7.51111
11
2.09154
21
-7.50548
0
LINE
8
BLACK
6
CONTINUOUS
10
2.09154
20
-7.50548
11
2.08591
21
-7.49986
0
LINE
8
BLACK
6
CONTINUOUS
10
2.08591
20
-7.49986
11
2.08029
21
-7.48861
0
LINE
8
BLACK
6
CONTINUOUS
10
2.08029
20
-7.48861
11
2.07466
21
-7.46611
0
LINE
8
BLACK
6
CONTINUOUS
10
2.07466
20
-7.46611
11
2.07466
21
-7.43799
0
LINE
8
BLACK
6
CONTINUOUS
10
2.07466
20
-7.43799
11
2.08029
21
-7.41549
0
LINE
8
BLACK
6
CONTINUOUS
10
2.08029
20
-7.41549
11
2.08591
21
-7.40425
0
LINE
8
BLACK
6
CONTINUOUS
10
2.08591
20
-7.40425
11
2.09154
21
-7.39862
0
LINE
8
BLACK
6
CONTINUOUS
10
2.09154
20
-7.39862
11
2.10278
21
-7.393
0
LINE
8
BLACK
6
CONTINUOUS
10
2.19277
20
-7.51111
11
2.19277
21
-7.43237
0
LINE
8
BLACK
6
CONTINUOUS
10
2.19277
20
-7.44362
11
2.1984
21
-7.43799
0
LINE
8
BLACK
6
CONTINUOUS
10
2.1984
20
-7.43799
11
2.20965
21
-7.43237
0
LINE
8
BLACK
6
CONTINUOUS
10
2.20965
20
-7.43237
11
2.22652
21
-7.43237
0
LINE
8
BLACK
6
CONTINUOUS
10
2.22652
20
-7.43237
11
2.23777
21
-7.43799
0
LINE
8
BLACK
6
CONTINUOUS
10
2.23777
20
-7.43799
11
2.24339
21
-7.44924
0
LINE
8
BLACK
6
CONTINUOUS
10
2.24339
20
-7.44924
11
2.24339
21
-7.51111
0
LINE
8
BLACK
6
CONTINUOUS
10
2.24339
20
-7.44924
11
2.24902
21
-7.43799
0
LINE
8
BLACK
6
CONTINUOUS
10
2.24902
20
-7.43799
11
2.26026
21
-7.43237
0
LINE
8
BLACK
6
CONTINUOUS
10
2.26026
20
-7.43237
11
2.27714
21
-7.43237
0
LINE
8
BLACK
6
CONTINUOUS
10
2.27714
20
-7.43237
11
2.28839
21
-7.43799
0
LINE
8
BLACK
6
CONTINUOUS
10
2.28839
20
-7.43799
11
2.29401
21
-7.44924
0
LINE
8
BLACK
6
CONTINUOUS
10
2.29401
20
-7.44924
11
2.29401
21
-7.51111
0
LINE
8
BLACK
6
CONTINUOUS
10
2.35025
20
-7.51111
11
2.35025
21
-7.43237
0
LINE
8
BLACK
6
CONTINUOUS
10
2.35025
20
-7.44362
11
2.35588
21
-7.43799
0
LINE
8
BLACK
6
CONTINUOUS
10
2.35588
20
-7.43799
11
2.36713
21
-7.43237
0
LINE
8
BLACK
6
CONTINUOUS
10
2.36713
20
-7.43237
11
2.384
21
-7.43237
0
LINE
8
BLACK
6
CONTINUOUS
10
2.384
20
-7.43237
11
2.39525
21
-7.43799
0
LINE
8
BLACK
6
CONTINUOUS
10
2.39525
20
-7.43799
11
2.40087
21
-7.44924
0
LINE
8
BLACK
6
CONTINUOUS
10
2.40087
20
-7.44924
11
2.40087
21
-7.51111
0
LINE
8
BLACK
6
CONTINUOUS
10
2.40087
20
-7.44924
11
2.4065
21
-7.43799
0
LINE
8
BLACK
6
CONTINUOUS
10
2.4065
20
-7.43799
11
2.41774
21
-7.43237
0
LINE
8
BLACK
6
CONTINUOUS
10
2.41774
20
-7.43237
11
2.43462
21
-7.43237
0
LINE
8
BLACK
6
CONTINUOUS
10
2.43462
20
-7.43237
11
2.44587
21
-7.43799
0
LINE
8
BLACK
6
CONTINUOUS
10
2.44587
20
-7.43799
11
2.45149
21
-7.44924
0
LINE
8
BLACK
6
CONTINUOUS
10
2.45149
20
-7.44924
11
2.45149
21
-7.51111
0
LINE
8
BLACK
6
CONTINUOUS
10
2.68209
20
-7.38737
11
2.58085
21
-7.53923
0
LINE
8
BLACK
6
CONTINUOUS
10
2.83394
20
-7.393
11
2.84519
21
-7.393
0
LINE
8
BLACK
6
CONTINUOUS
10
2.84519
20
-7.393
11
2.85644
21
-7.39862
0
LINE
8
BLACK
6
CONTINUOUS
10
2.85644
20
-7.39862
11
2.86206
21
-7.40425
0
LINE
8
BLACK
6
CONTINUOUS
10
2.86206
20
-7.40425
11
2.86769
21
-7.41549
0
LINE
8
BLACK
6
CONTINUOUS
10
2.86769
20
-7.41549
11
2.87331
21
-7.43799
0
LINE
8
BLACK
6
CONTINUOUS
10
2.87331
20
-7.43799
11
2.87331
21
-7.46611
0
LINE
8
BLACK
6
CONTINUOUS
10
2.87331
20
-7.46611
11
2.86769
21
-7.48861
0
LINE
8
BLACK
6
CONTINUOUS
10
2.86769
20
-7.48861
11
2.86206
21
-7.49986
0
LINE
8
BLACK
6
CONTINUOUS
10
2.86206
20
-7.49986
11
2.85644
21
-7.50548
0
LINE
8
BLACK
6
CONTINUOUS
10
2.85644
20
-7.50548
11
2.84519
21
-7.51111
0
LINE
8
BLACK
6
CONTINUOUS
10
2.84519
20
-7.51111
11
2.83394
21
-7.51111
0
LINE
8
BLACK
6
CONTINUOUS
10
2.83394
20
-7.51111
11
2.82269
21
-7.50548
0
LINE
8
BLACK
6
CONTINUOUS
10
2.82269
20
-7.50548
11
2.81707
21
-7.49986
0
LINE
8
BLACK
6
CONTINUOUS
10
2.81707
20
-7.49986
11
2.81145
21
-7.48861
0
LINE
8
BLACK
6
CONTINUOUS
10
2.81145
20
-7.48861
11
2.80582
21
-7.46611
0
LINE
8
BLACK
6
CONTINUOUS
10
2.80582
20
-7.46611
11
2.80582
21
-7.43799
0
LINE
8
BLACK
6
CONTINUOUS
10
2.80582
20
-7.43799
11
2.81145
21
-7.41549
0
LINE
8
BLACK
6
CONTINUOUS
10
2.81145
20
-7.41549
11
2.81707
21
-7.40425
0
LINE
8
BLACK
6
CONTINUOUS
10
2.81707
20
-7.40425
11
2.82269
21
-7.39862
0
LINE
8
BLACK
6
CONTINUOUS
10
2.82269
20
-7.39862
11
2.83394
21
-7.393
0
LINE
8
BLACK
6
CONTINUOUS
10
2.92393
20
-7.49986
11
2.92956
21
-7.50548
0
LINE
8
BLACK
6
CONTINUOUS
10
2.92956
20
-7.50548
11
2.92393
21
-7.51111
0
LINE
8
BLACK
6
CONTINUOUS
10
2.92393
20
-7.51111
11
2.91831
21
-7.50548
0
LINE
8
BLACK
6
CONTINUOUS
10
2.91831
20
-7.50548
11
2.92393
21
-7.49986
0
LINE
8
BLACK
6
CONTINUOUS
10
2.92393
20
-7.49986
11
2.92393
21
-7.51111
0
LINE
8
BLACK
6
CONTINUOUS
10
3.04204
20
-7.51111
11
2.97455
21
-7.51111
0
LINE
8
BLACK
6
CONTINUOUS
10
3.0083
20
-7.51111
11
3.0083
21
-7.393
0
LINE
8
BLACK
6
CONTINUOUS
10
3.0083
20
-7.393
11
2.99705
21
-7.40987
0
LINE
8
BLACK
6
CONTINUOUS
10
2.99705
20
-7.40987
11
2.9858
21
-7.42112
0
LINE
8
BLACK
6
CONTINUOUS
10
2.9858
20
-7.42112
11
2.97455
21
-7.42674
0
LINE
8
BLACK
6
CONTINUOUS
10
3.08704
20
-7.40425
11
3.09266
21
-7.39862
0
LINE
8
BLACK
6
CONTINUOUS
10
3.09266
20
-7.39862
11
3.10391
21
-7.393
0
LINE
8
BLACK
6
CONTINUOUS
10
3.10391
20
-7.393
11
3.13203
21
-7.393
0
LINE
8
BLACK
6
CONTINUOUS
10
3.13203
20
-7.393
11
3.14328
21
-7.39862
0
LINE
8
BLACK
6
CONTINUOUS
10
3.14328
20
-7.39862
11
3.1489
21
-7.40425
0
LINE
8
BLACK
6
CONTINUOUS
10
3.1489
20
-7.40425
11
3.15453
21
-7.41549
0
LINE
8
BLACK
6
CONTINUOUS
10
3.15453
20
-7.41549
11
3.15453
21
-7.42674
0
LINE
8
BLACK
6
CONTINUOUS
10
3.15453
20
-7.42674
11
3.1489
21
-7.44362
0
LINE
8
BLACK
6
CONTINUOUS
10
3.1489
20
-7.44362
11
3.08141
21
-7.51111
0
LINE
8
BLACK
6
CONTINUOUS
10
3.08141
20
-7.51111
11
3.15453
21
-7.51111
0
LINE
8
BLACK
6
CONTINUOUS
10
3.25576
20
-7.393
11
3.23327
21
-7.393
0
LINE
8
BLACK
6
CONTINUOUS
10
3.23327
20
-7.393
11
3.22202
21
-7.39862
0
LINE
8
BLACK
6
CONTINUOUS
10
3.22202
20
-7.39862
11
3.21639
21
-7.40425
0
LINE
8
BLACK
6
CONTINUOUS
10
3.21639
20
-7.40425
11
3.20515
21
-7.42112
0
LINE
8
BLACK
6
CONTINUOUS
10
3.20515
20
-7.42112
11
3.19952
21
-7.44362
0
LINE
8
BLACK
6
CONTINUOUS
10
3.19952
20
-7.44362
11
3.19952
21
-7.48861
0
LINE
8
BLACK
6
CONTINUOUS
10
3.19952
20
-7.48861
11
3.20515
21
-7.49986
0
LINE
8
BLACK
6
CONTINUOUS
10
3.20515
20
-7.49986
11
3.21077
21
-7.50548
0
LINE
8
BLACK
6
CONTINUOUS
10
3.21077
20
-7.50548
11
3.22202
21
-7.51111
0
LINE
8
BLACK
6
CONTINUOUS
10
3.22202
20
-7.51111
11
3.24452
21
-7.51111
0
LINE
8
BLACK
6
CONTINUOUS
10
3.24452
20
-7.51111
11
3.25576
21
-7.50548
0
LINE
8
BLACK
6
CONTINUOUS
10
3.25576
20
-7.50548
11
3.26139
21
-7.49986
0
LINE
8
BLACK
6
CONTINUOUS
10
3.26139
20
-7.49986
11
3.26701
21
-7.48861
0
LINE
8
BLACK
6
CONTINUOUS
10
3.26701
20
-7.48861
11
3.26701
21
-7.46049
0
LINE
8
BLACK
6
CONTINUOUS
10
3.26701
20
-7.46049
11
3.26139
21
-7.44924
0
LINE
8
BLACK
6
CONTINUOUS
10
3.26139
20
-7.44924
11
3.25576
21
-7.44362
0
LINE
8
BLACK
6
CONTINUOUS
10
3.25576
20
-7.44362
11
3.24452
21
-7.43799
0
LINE
8
BLACK
6
CONTINUOUS
10
3.24452
20
-7.43799
11
3.22202
21
-7.43799
0
LINE
8
BLACK
6
CONTINUOUS
10
3.22202
20
-7.43799
11
3.21077
21
-7.44362
0
LINE
8
BLACK
6
CONTINUOUS
10
3.21077
20
-7.44362
11
3.20515
21
-7.44924
0
LINE
8
BLACK
6
CONTINUOUS
10
3.20515
20
-7.44924
11
3.19952
21
-7.46049
0
LINE
8
BLACK
6
CONTINUOUS
10
3.34013
20
-7.393
11
3.35138
21
-7.393
0
LINE
8
BLACK
6
CONTINUOUS
10
3.35138
20
-7.393
11
3.36263
21
-7.39862
0
LINE
8
BLACK
6
CONTINUOUS
10
3.36263
20
-7.39862
11
3.36825
21
-7.40425
0
LINE
8
BLACK
6
CONTINUOUS
10
3.36825
20
-7.40425
11
3.37388
21
-7.41549
0
LINE
8
BLACK
6
CONTINUOUS
10
3.37388
20
-7.41549
11
3.3795
21
-7.43799
0
LINE
8
BLACK
6
CONTINUOUS
10
3.3795
20
-7.43799
11
3.3795
21
-7.46611
0
LINE
8
BLACK
6
CONTINUOUS
10
3.3795
20
-7.46611
11
3.37388
21
-7.48861
0
LINE
8
BLACK
6
CONTINUOUS
10
3.37388
20
-7.48861
11
3.36825
21
-7.49986
0
LINE
8
BLACK
6
CONTINUOUS
10
3.36825
20
-7.49986
11
3.36263
21
-7.50548
0
LINE
8
BLACK
6
CONTINUOUS
10
3.36263
20
-7.50548
11
3.35138
21
-7.51111
0
LINE
8
BLACK
6
CONTINUOUS
10
3.35138
20
-7.51111
11
3.34013
21
-7.51111
0
LINE
8
BLACK
6
CONTINUOUS
10
3.34013
20
-7.51111
11
3.32888
21
-7.50548
0
LINE
8
BLACK
6
CONTINUOUS
10
3.32888
20
-7.50548
11
3.32326
21
-7.49986
0
LINE
8
BLACK
6
CONTINUOUS
10
3.32326
20
-7.49986
11
3.31763
21
-7.48861
0
LINE
8
BLACK
6
CONTINUOUS
10
3.31763
20
-7.48861
11
3.31201
21
-7.46611
0
LINE
8
BLACK
6
CONTINUOUS
10
3.31201
20
-7.46611
11
3.31201
21
-7.43799
0
LINE
8
BLACK
6
CONTINUOUS
10
3.31201
20
-7.43799
11
3.31763
21
-7.41549
0
LINE
8
BLACK
6
CONTINUOUS
10
3.31763
20
-7.41549
11
3.32326
21
-7.40425
0
LINE
8
BLACK
6
CONTINUOUS
10
3.32326
20
-7.40425
11
3.32888
21
-7.39862
0
LINE
8
BLACK
6
CONTINUOUS
10
3.32888
20
-7.39862
11
3.34013
21
-7.393
0
LINE
8
BLACK
6
CONTINUOUS
10
3.42449
20
-7.393
11
3.42449
21
-7.41549
0
LINE
8
BLACK
6
CONTINUOUS
10
3.46949
20
-7.393
11
3.46949
21
-7.41549
0
LINE
8
BLACK
6
CONTINUOUS
10
3.64384
20
-7.5561
11
3.63822
21
-7.55048
0
LINE
8
BLACK
6
CONTINUOUS
10
3.63822
20
-7.55048
11
3.62697
21
-7.53361
0
LINE
8
BLACK
6
CONTINUOUS
10
3.62697
20
-7.53361
11
3.62134
21
-7.52236
0
LINE
8
BLACK
6
CONTINUOUS
10
3.62134
20
-7.52236
11
3.61572
21
-7.50548
0
LINE
8
BLACK
6
CONTINUOUS
10
3.61572
20
-7.50548
11
3.6101
21
-7.47736
0
LINE
8
BLACK
6
CONTINUOUS
10
3.6101
20
-7.47736
11
3.6101
21
-7.45487
0
LINE
8
BLACK
6
CONTINUOUS
10
3.6101
20
-7.45487
11
3.61572
21
-7.42674
0
LINE
8
BLACK
6
CONTINUOUS
10
3.61572
20
-7.42674
11
3.62134
21
-7.40987
0
LINE
8
BLACK
6
CONTINUOUS
10
3.62134
20
-7.40987
11
3.62697
21
-7.39862
0
LINE
8
BLACK
6
CONTINUOUS
10
3.62697
20
-7.39862
11
3.63822
21
-7.38175
0
LINE
8
BLACK
6
CONTINUOUS
10
3.63822
20
-7.38175
11
3.64384
21
-7.37612
0
LINE
8
BLACK
6
CONTINUOUS
10
3.73945
20
-7.43237
11
3.73945
21
-7.51111
0
LINE
8
BLACK
6
CONTINUOUS
10
3.71133
20
-7.38737
11
3.68321
21
-7.47174
0
LINE
8
BLACK
6
CONTINUOUS
10
3.68321
20
-7.47174
11
3.75633
21
-7.47174
0
LINE
8
BLACK
6
CONTINUOUS
10
3.89131
20
-7.51111
11
3.89131
21
-7.393
0
LINE
8
BLACK
6
CONTINUOUS
10
3.94193
20
-7.51111
11
3.94193
21
-7.44924
0
LINE
8
BLACK
6
CONTINUOUS
10
3.94193
20
-7.44924
11
3.9363
21
-7.43799
0
LINE
8
BLACK
6
CONTINUOUS
10
3.9363
20
-7.43799
11
3.92506
21
-7.43237
0
LINE
8
BLACK
6
CONTINUOUS
10
3.92506
20
-7.43237
11
3.90818
21
-7.43237
0
LINE
8
BLACK
6
CONTINUOUS
10
3.90818
20
-7.43237
11
3.89693
21
-7.43799
0
LINE
8
BLACK
6
CONTINUOUS
10
3.89693
20
-7.43799
11
3.89131
21
-7.44362
0
LINE
8
BLACK
6
CONTINUOUS
10
4.01504
20
-7.51111
11
4.0038
21
-7.50548
0
LINE
8
BLACK
6
CONTINUOUS
10
4.0038
20
-7.50548
11
3.99817
21
-7.49986
0
LINE
8
BLACK
6
CONTINUOUS
10
3.99817
20
-7.49986
11
3.99255
21
-7.48861
0
LINE
8
BLACK
6
CONTINUOUS
10
3.99255
20
-7.48861
11
3.99255
21
-7.45487
0
LINE
8
BLACK
6
CONTINUOUS
10
3.99255
20
-7.45487
11
3.99817
21
-7.44362
0
LINE
8
BLACK
6
CONTINUOUS
10
3.99817
20
-7.44362
11
4.0038
21
-7.43799
0
LINE
8
BLACK
6
CONTINUOUS
10
4.0038
20
-7.43799
11
4.01504
21
-7.43237
0
LINE
8
BLACK
6
CONTINUOUS
10
4.01504
20
-7.43237
11
4.03192
21
-7.43237
0
LINE
8
BLACK
6
CONTINUOUS
10
4.03192
20
-7.43237
11
4.04317
21
-7.43799
0
LINE
8
BLACK
6
CONTINUOUS
10
4.04317
20
-7.43799
11
4.04879
21
-7.44362
0
LINE
8
BLACK
6
CONTINUOUS
10
4.04879
20
-7.44362
11
4.05441
21
-7.45487
0
LINE
8
BLACK
6
CONTINUOUS
10
4.05441
20
-7.45487
11
4.05441
21
-7.48861
0
LINE
8
BLACK
6
CONTINUOUS
10
4.05441
20
-7.48861
11
4.04879
21
-7.49986
0
LINE
8
BLACK
6
CONTINUOUS
10
4.04879
20
-7.49986
11
4.04317
21
-7.50548
0
LINE
8
BLACK
6
CONTINUOUS
10
4.04317
20
-7.50548
11
4.03192
21
-7.51111
0
LINE
8
BLACK
6
CONTINUOUS
10
4.03192
20
-7.51111
11
4.01504
21
-7.51111
0
LINE
8
BLACK
6
CONTINUOUS
10
4.12191
20
-7.51111
11
4.11066
21
-7.50548
0
LINE
8
BLACK
6
CONTINUOUS
10
4.11066
20
-7.50548
11
4.10503
21
-7.49424
0
LINE
8
BLACK
6
CONTINUOUS
10
4.10503
20
-7.49424
11
4.10503
21
-7.393
0
LINE
8
BLACK
6
CONTINUOUS
10
4.2119
20
-7.50548
11
4.20065
21
-7.51111
0
LINE
8
BLACK
6
CONTINUOUS
10
4.20065
20
-7.51111
11
4.17815
21
-7.51111
0
LINE
8
BLACK
6
CONTINUOUS
10
4.17815
20
-7.51111
11
4.1669
21
-7.50548
0
LINE
8
BLACK
6
CONTINUOUS
10
4.1669
20
-7.50548
11
4.16128
21
-7.49424
0
LINE
8
BLACK
6
CONTINUOUS
10
4.16128
20
-7.49424
11
4.16128
21
-7.44924
0
LINE
8
BLACK
6
CONTINUOUS
10
4.16128
20
-7.44924
11
4.1669
21
-7.43799
0
LINE
8
BLACK
6
CONTINUOUS
10
4.1669
20
-7.43799
11
4.17815
21
-7.43237
0
LINE
8
BLACK
6
CONTINUOUS
10
4.17815
20
-7.43237
11
4.20065
21
-7.43237
0
LINE
8
BLACK
6
CONTINUOUS
10
4.20065
20
-7.43237
11
4.2119
21
-7.43799
0
LINE
8
BLACK
6
CONTINUOUS
10
4.2119
20
-7.43799
11
4.21752
21
-7.44924
0
LINE
8
BLACK
6
CONTINUOUS
10
4.21752
20
-7.44924
11
4.21752
21
-7.46049
0
LINE
8
BLACK
6
CONTINUOUS
10
4.21752
20
-7.46049
11
4.16128
21
-7.47174
0
LINE
8
BLACK
6
CONTINUOUS
10
4.26251
20
-7.50548
11
4.27376
21
-7.51111
0
LINE
8
BLACK
6
CONTINUOUS
10
4.27376
20
-7.51111
11
4.29626
21
-7.51111
0
LINE
8
BLACK
6
CONTINUOUS
10
4.29626
20
-7.51111
11
4.30751
21
-7.50548
0
LINE
8
BLACK
6
CONTINUOUS
10
4.30751
20
-7.50548
11
4.31313
21
-7.49424
0
LINE
8
BLACK
6
CONTINUOUS
10
4.31313
20
-7.49424
11
4.31313
21
-7.48861
0
LINE
8
BLACK
6
CONTINUOUS
10
4.31313
20
-7.48861
11
4.30751
21
-7.47736
0
LINE
8
BLACK
6
CONTINUOUS
10
4.30751
20
-7.47736
11
4.29626
21
-7.47174
0
LINE
8
BLACK
6
CONTINUOUS
10
4.29626
20
-7.47174
11
4.27939
21
-7.47174
0
LINE
8
BLACK
6
CONTINUOUS
10
4.27939
20
-7.47174
11
4.26814
21
-7.46611
0
LINE
8
BLACK
6
CONTINUOUS
10
4.26814
20
-7.46611
11
4.26251
21
-7.45487
0
LINE
8
BLACK
6
CONTINUOUS
10
4.26251
20
-7.45487
11
4.26251
21
-7.44924
0
LINE
8
BLACK
6
CONTINUOUS
10
4.26251
20
-7.44924
11
4.26814
21
-7.43799
0
LINE
8
BLACK
6
CONTINUOUS
10
4.26814
20
-7.43799
11
4.27939
21
-7.43237
0
LINE
8
BLACK
6
CONTINUOUS
10
4.27939
20
-7.43237
11
4.29626
21
-7.43237
0
LINE
8
BLACK
6
CONTINUOUS
10
4.29626
20
-7.43237
11
4.30751
21
-7.43799
0
LINE
8
BLACK
6
CONTINUOUS
10
4.3525
20
-7.5561
11
4.35813
21
-7.55048
0
LINE
8
BLACK
6
CONTINUOUS
10
4.35813
20
-7.55048
11
4.36938
21
-7.53361
0
LINE
8
BLACK
6
CONTINUOUS
10
4.36938
20
-7.53361
11
4.375
21
-7.52236
0
LINE
8
BLACK
6
CONTINUOUS
10
4.375
20
-7.52236
11
4.38062
21
-7.50548
0
LINE
8
BLACK
6
CONTINUOUS
10
4.38062
20
-7.50548
11
4.38625
21
-7.47736
0
LINE
8
BLACK
6
CONTINUOUS
10
4.38625
20
-7.47736
11
4.38625
21
-7.45487
0
LINE
8
BLACK
6
CONTINUOUS
10
4.38625
20
-7.45487
11
4.38062
21
-7.42674
0
LINE
8
BLACK
6
CONTINUOUS
10
4.38062
20
-7.42674
11
4.375
21
-7.40987
0
LINE
8
BLACK
6
CONTINUOUS
10
4.375
20
-7.40987
11
4.36938
21
-7.39862
0
LINE
8
BLACK
6
CONTINUOUS
10
4.36938
20
-7.39862
11
4.35813
21
-7.38175
0
LINE
8
BLACK
6
CONTINUOUS
10
4.35813
20
-7.38175
11
4.3525
21
-7.37612
  0
ENDSEC
  0
EOF
