  0
SECTION
  2
HEADER
  9
$ANGBASE
  50
0.0
  9
$ANGDIR
  70
1
  9
$MEASUREMENT
  70
0
  0
ENDSEC
  0
SECTION
  2
TABLES
  0
TABLE
  2
LTYPE
  70
4
  0
LTYPE
  5
40F
  2
CONTINUOUS
  70
0
  3
Solid line
  72
65
  73
0
  40
0.0
  0
LTYPE
  5
410
  2
DASHDOT
 70
0
  3
Dash Dot ____ _ ____ _
 72
65
 73
4
 40
2.0
 49
1.25
 49
-0.25
 49
0.25
 49
-0.25
  0
LTYPE
  5
411
  2
DASHED
 70
0
  3
Dashed __ __ __ __ __
 72
65
 73
2
 40
0.75
 49
0.5
 49
-0.25
  0
LTYPE
  5
43B
  2
DOTTED
 70
0
  3
Dotted .  .  .  .
 72
65
 73
2
 40
0.2
 49
0.0
 49
-0.2
  0
ENDTAB
  0
TABLE
  2
STYLE
  70
4
  0
STYLE
  2
KICAD
  70
0
  40
0
  41
1
  42
1
  50
0
  71
0
  3
isocp.shx
  0
STYLE
  2
KICADB
  70
0
  40
0
  41
1
  42
1
  50
0
  71
0
  3
isocp.shx
  0
STYLE
  2
KICADI
  70
0
  40
0
  41
1
  42
1
  50
15
  71
0
  3
isocp.shx
  0
STYLE
  2
KICADBI
  70
0
  40
0
  41
1
  42
1
  50
15
  71
0
  3
isocp.shx
  0
ENDTAB
  0
TABLE
  2
LAYER
  70
1
  0
LAYER
  2
BLACK
  70
0
  62
7
  6
CONTINUOUS
  0
ENDTAB
  0
ENDSEC
  0
SECTION
  2
ENTITIES
0
LINE
8
BLACK
6
CONTINUOUS
10
1.5748
20
-1.85039
11
1.5748
21
-6.29921
0
LINE
8
BLACK
6
CONTINUOUS
10
6.49606
20
-1.85039
11
1.5748
21
-1.85039
0
LINE
8
BLACK
6
CONTINUOUS
10
6.49606
20
-6.29921
11
6.49606
21
-1.85039
0
LINE
8
BLACK
6
CONTINUOUS
10
1.5748
20
-6.29921
11
6.49606
21
-6.29921
0
LINE
8
BLACK
6
CONTINUOUS
10
1.68659
20
-6.48355
11
1.68659
21
-6.36544
0
LINE
8
BLACK
6
CONTINUOUS
10
1.68659
20
-6.36544
11
1.71471
21
-6.36544
0
LINE
8
BLACK
6
CONTINUOUS
10
1.71471
20
-6.36544
11
1.73158
21
-6.37106
0
LINE
8
BLACK
6
CONTINUOUS
10
1.73158
20
-6.37106
11
1.74283
21
-6.38231
0
LINE
8
BLACK
6
CONTINUOUS
10
1.74283
20
-6.38231
11
1.74845
21
-6.39356
0
LINE
8
BLACK
6
CONTINUOUS
10
1.74845
20
-6.39356
11
1.75408
21
-6.41606
0
LINE
8
BLACK
6
CONTINUOUS
10
1.75408
20
-6.41606
11
1.75408
21
-6.43293
0
LINE
8
BLACK
6
CONTINUOUS
10
1.75408
20
-6.43293
11
1.74845
21
-6.45543
0
LINE
8
BLACK
6
CONTINUOUS
10
1.74845
20
-6.45543
11
1.74283
21
-6.46668
0
LINE
8
BLACK
6
CONTINUOUS
10
1.74283
20
-6.46668
11
1.73158
21
-6.47792
0
LINE
8
BLACK
6
CONTINUOUS
10
1.73158
20
-6.47792
11
1.71471
21
-6.48355
0
LINE
8
BLACK
6
CONTINUOUS
10
1.71471
20
-6.48355
11
1.68659
21
-6.48355
0
LINE
8
BLACK
6
CONTINUOUS
10
1.8047
20
-6.48355
11
1.8047
21
-6.40481
0
LINE
8
BLACK
6
CONTINUOUS
10
1.8047
20
-6.42731
11
1.81032
21
-6.41606
0
LINE
8
BLACK
6
CONTINUOUS
10
1.81032
20
-6.41606
11
1.81594
21
-6.41043
0
LINE
8
BLACK
6
CONTINUOUS
10
1.81594
20
-6.41043
11
1.82719
21
-6.40481
0
LINE
8
BLACK
6
CONTINUOUS
10
1.82719
20
-6.40481
11
1.83844
21
-6.40481
0
LINE
8
BLACK
6
CONTINUOUS
10
1.87781
20
-6.48355
11
1.87781
21
-6.40481
0
LINE
8
BLACK
6
CONTINUOUS
10
1.87781
20
-6.36544
11
1.87219
21
-6.37106
0
LINE
8
BLACK
6
CONTINUOUS
10
1.87219
20
-6.37106
11
1.87781
21
-6.37669
0
LINE
8
BLACK
6
CONTINUOUS
10
1.87781
20
-6.37669
11
1.88344
21
-6.37106
0
LINE
8
BLACK
6
CONTINUOUS
10
1.88344
20
-6.37106
11
1.87781
21
-6.36544
0
LINE
8
BLACK
6
CONTINUOUS
10
1.87781
20
-6.36544
11
1.87781
21
-6.37669
0
LINE
8
BLACK
6
CONTINUOUS
10
1.95093
20
-6.48355
11
1.93968
21
-6.47792
0
LINE
8
BLACK
6
CONTINUOUS
10
1.93968
20
-6.47792
11
1.93406
21
-6.46668
0
LINE
8
BLACK
6
CONTINUOUS
10
1.93406
20
-6.46668
11
1.93406
21
-6.36544
0
LINE
8
BLACK
6
CONTINUOUS
10
2.0128
20
-6.48355
11
2.00155
21
-6.47792
0
LINE
8
BLACK
6
CONTINUOUS
10
2.00155
20
-6.47792
11
1.99592
21
-6.46668
0
LINE
8
BLACK
6
CONTINUOUS
10
1.99592
20
-6.46668
11
1.99592
21
-6.36544
0
LINE
8
BLACK
6
CONTINUOUS
10
2.14778
20
-6.48355
11
2.14778
21
-6.36544
0
LINE
8
BLACK
6
CONTINUOUS
10
2.14778
20
-6.36544
11
2.18715
21
-6.4498
0
LINE
8
BLACK
6
CONTINUOUS
10
2.18715
20
-6.4498
11
2.22652
21
-6.36544
0
LINE
8
BLACK
6
CONTINUOUS
10
2.22652
20
-6.36544
11
2.22652
21
-6.48355
0
LINE
8
BLACK
6
CONTINUOUS
10
2.33338
20
-6.48355
11
2.33338
21
-6.42168
0
LINE
8
BLACK
6
CONTINUOUS
10
2.33338
20
-6.42168
11
2.32776
21
-6.41043
0
LINE
8
BLACK
6
CONTINUOUS
10
2.32776
20
-6.41043
11
2.31651
21
-6.40481
0
LINE
8
BLACK
6
CONTINUOUS
10
2.31651
20
-6.40481
11
2.29401
21
-6.40481
0
LINE
8
BLACK
6
CONTINUOUS
10
2.29401
20
-6.40481
11
2.28276
21
-6.41043
0
LINE
8
BLACK
6
CONTINUOUS
10
2.33338
20
-6.47792
11
2.32213
21
-6.48355
0
LINE
8
BLACK
6
CONTINUOUS
10
2.32213
20
-6.48355
11
2.29401
21
-6.48355
0
LINE
8
BLACK
6
CONTINUOUS
10
2.29401
20
-6.48355
11
2.28276
21
-6.47792
0
LINE
8
BLACK
6
CONTINUOUS
10
2.28276
20
-6.47792
11
2.27714
21
-6.46668
0
LINE
8
BLACK
6
CONTINUOUS
10
2.27714
20
-6.46668
11
2.27714
21
-6.45543
0
LINE
8
BLACK
6
CONTINUOUS
10
2.27714
20
-6.45543
11
2.28276
21
-6.44418
0
LINE
8
BLACK
6
CONTINUOUS
10
2.28276
20
-6.44418
11
2.29401
21
-6.43855
0
LINE
8
BLACK
6
CONTINUOUS
10
2.29401
20
-6.43855
11
2.32213
21
-6.43855
0
LINE
8
BLACK
6
CONTINUOUS
10
2.32213
20
-6.43855
11
2.33338
21
-6.43293
0
LINE
8
BLACK
6
CONTINUOUS
10
2.38962
20
-6.40481
11
2.38962
21
-6.52292
0
LINE
8
BLACK
6
CONTINUOUS
10
2.38962
20
-6.41043
11
2.40087
21
-6.40481
0
LINE
8
BLACK
6
CONTINUOUS
10
2.40087
20
-6.40481
11
2.42337
21
-6.40481
0
LINE
8
BLACK
6
CONTINUOUS
10
2.42337
20
-6.40481
11
2.43462
21
-6.41043
0
LINE
8
BLACK
6
CONTINUOUS
10
2.43462
20
-6.41043
11
2.44024
21
-6.41606
0
LINE
8
BLACK
6
CONTINUOUS
10
2.44024
20
-6.41606
11
2.44587
21
-6.42731
0
LINE
8
BLACK
6
CONTINUOUS
10
2.44587
20
-6.42731
11
2.44587
21
-6.46105
0
LINE
8
BLACK
6
CONTINUOUS
10
2.44587
20
-6.46105
11
2.44024
21
-6.4723
0
LINE
8
BLACK
6
CONTINUOUS
10
2.44024
20
-6.4723
11
2.43462
21
-6.47792
0
LINE
8
BLACK
6
CONTINUOUS
10
2.43462
20
-6.47792
11
2.42337
21
-6.48355
0
LINE
8
BLACK
6
CONTINUOUS
10
2.42337
20
-6.48355
11
2.40087
21
-6.48355
0
LINE
8
BLACK
6
CONTINUOUS
10
2.40087
20
-6.48355
11
2.38962
21
-6.47792
0
LINE
8
BLACK
6
CONTINUOUS
10
2.49648
20
-6.4723
11
2.50211
21
-6.47792
0
LINE
8
BLACK
6
CONTINUOUS
10
2.50211
20
-6.47792
11
2.49648
21
-6.48355
0
LINE
8
BLACK
6
CONTINUOUS
10
2.49648
20
-6.48355
11
2.49086
21
-6.47792
0
LINE
8
BLACK
6
CONTINUOUS
10
2.49086
20
-6.47792
11
2.49648
21
-6.4723
0
LINE
8
BLACK
6
CONTINUOUS
10
2.49648
20
-6.4723
11
2.49648
21
-6.48355
0
LINE
8
BLACK
6
CONTINUOUS
10
2.49648
20
-6.41043
11
2.50211
21
-6.41606
0
LINE
8
BLACK
6
CONTINUOUS
10
2.50211
20
-6.41606
11
2.49648
21
-6.42168
0
LINE
8
BLACK
6
CONTINUOUS
10
2.49648
20
-6.42168
11
2.49086
21
-6.41606
0
LINE
8
BLACK
6
CONTINUOUS
10
2.49086
20
-6.41606
11
2.49648
21
-6.41043
0
LINE
8
BLACK
6
CONTINUOUS
10
2.49648
20
-6.41043
11
2.49648
21
-6.42168
  0
ENDSEC
  0
EOF
