M48
; DRILL file {KiCad (6.0.4-0)} date Tuesday, 14 May 2024 at 01:38:28 pm
; FORMAT={-:-/ absolute / inch / decimal}
; #@! TF.CreationDate,2024-05-14T13:38:28+10:00
; #@! TF.GenerationSoftware,Kicad,Pcbnew,(6.0.4-0)
; #@! TF.FileFunction,Plated,1,2,PTH
FMAT,2
INCH
; #@! TA.AperFunction,Plated,PTH,ViaDrill
T1C0.0157
; #@! TA.AperFunction,Plated,PTH,ComponentDrill
T2C0.0197
; #@! TA.AperFunction,Plated,PTH,ViaDrill
T3C0.0315
; #@! TA.AperFunction,Plated,PTH,ComponentDrill
T4C0.0315
; #@! TA.AperFunction,Plated,PTH,ComponentDrill
T5C0.0354
; #@! TA.AperFunction,Plated,PTH,ComponentDrill
T6C0.0374
; #@! TA.AperFunction,Plated,PTH,ComponentDrill
T7C0.0394
; #@! TA.AperFunction,Plated,PTH,ComponentDrill
T8C0.1260
%
G90
G05
T1
X5.8118Y-4.3882
T2
X2.0906Y-2.185
X2.0906Y-5.7087
X2.1182Y-2.1182
X2.1182Y-2.2519
X2.1182Y-5.6418
X2.1182Y-5.7755
X2.185Y-2.0906
X2.185Y-2.2795
X2.185Y-5.6142
X2.185Y-5.8031
X2.2519Y-2.1182
X2.2519Y-2.2519
X2.2519Y-5.6418
X2.2519Y-5.7755
X2.2795Y-2.185
X2.2795Y-5.7087
X5.8307Y-2.1731
X5.8307Y-5.7087
X5.8584Y-2.1063
X5.8584Y-2.2399
X5.8584Y-5.6418
X5.8584Y-5.7755
X5.9252Y-2.0786
X5.9252Y-2.2676
X5.9252Y-5.6142
X5.9252Y-5.8031
X5.992Y-2.1063
X5.992Y-2.2399
X5.992Y-5.6418
X5.992Y-5.7755
X6.0197Y-2.1731
X6.0197Y-5.7087
X7.5827Y-2.1654
X7.5827Y-5.7087
X7.6104Y-2.0985
X7.6104Y-2.2322
X7.6104Y-5.6418
X7.6104Y-5.7755
X7.6772Y-2.0709
X7.6772Y-2.2598
X7.6772Y-5.6142
X7.6772Y-5.8031
X7.744Y-2.0985
X7.744Y-2.2322
X7.744Y-5.6418
X7.744Y-5.7755
X7.7717Y-2.1654
X7.7717Y-5.7087
T3
X3.45Y-4.4
X3.45Y-4.875
X3.622Y-3.6614
X4.35Y-4.48
X4.6063Y-3.6614
X4.925Y-2.675
X5.05Y-3.8
X5.05Y-4.675
X5.125Y-3.8
X5.125Y-4.775
X5.5118Y-3.6614
X5.8268Y-2.6772
X6.1Y-3.75
X6.11Y-3.045
X6.1811Y-2.7559
X6.2Y-3.75
X6.378Y-2.6772
X6.62Y-3.045
X7.0079Y-3.6614
X7.2835Y-2.6772
T4
X2.34Y-3.45
X2.34Y-3.85
X2.35Y-4.875
X2.35Y-5.175
X2.45Y-4.975
X2.45Y-5.175
X2.475Y-3.45
X2.475Y-3.85
X2.55Y-4.675
X2.55Y-5.175
X2.6Y-3.45
X2.6Y-3.85
X2.65Y-4.775
X2.65Y-5.175
X2.725Y-3.45
X2.725Y-3.85
X2.75Y-4.675
X2.75Y-5.175
X2.85Y-3.45
X2.85Y-3.85
X2.85Y-4.775
X2.85Y-5.175
X2.95Y-4.875
X2.95Y-5.175
X2.975Y-3.45
X2.975Y-3.85
X3.05Y-4.975
X3.05Y-5.175
X3.15Y-4.875
X3.15Y-5.175
X3.25Y-4.675
X3.25Y-5.175
X3.3Y-2.675
X3.3Y-3.075
X3.35Y-4.675
X3.35Y-5.175
X3.45Y-4.975
X3.45Y-5.175
X3.46Y-2.8
X3.46Y-2.9969
X3.55Y-4.875
X3.55Y-5.175
X3.625Y-2.845
X3.625Y-2.945
X3.625Y-3.045
X3.625Y-3.145
X3.625Y-3.245
X3.625Y-3.345
X3.625Y-3.445
X3.625Y-3.545
X3.65Y-4.775
X3.65Y-5.175
X3.75Y-4.875
X3.75Y-5.175
X3.85Y-4.675
X3.85Y-5.175
X3.925Y-2.845
X3.925Y-2.945
X3.925Y-3.045
X3.925Y-3.145
X3.925Y-3.245
X3.925Y-3.345
X3.925Y-3.445
X3.925Y-3.545
X3.95Y-4.975
X3.95Y-5.175
X4.05Y-4.775
X4.05Y-5.175
X4.1339Y-2.6709
X4.1339Y-3.0709
X4.135Y-3.1766
X4.135Y-3.3734
X4.15Y-4.675
X4.15Y-5.175
X4.25Y-4.775
X4.25Y-5.175
X4.33Y-2.675
X4.33Y-3.075
X4.35Y-4.675
X4.35Y-5.175
X4.45Y-4.875
X4.45Y-5.175
X4.55Y-4.675
X4.55Y-5.175
X4.6063Y-2.9409
X4.6063Y-3.0409
X4.6063Y-3.1409
X4.6063Y-3.2409
X4.6063Y-3.3409
X4.6063Y-3.4409
X4.6063Y-3.5409
X4.65Y-4.775
X4.65Y-5.175
X4.75Y-4.675
X4.75Y-5.175
X4.85Y-4.675
X4.85Y-5.175
X4.9063Y-2.9409
X4.9063Y-3.0409
X4.9063Y-3.1409
X4.9063Y-3.2409
X4.9063Y-3.3409
X4.9063Y-3.4409
X4.9063Y-3.5409
X4.95Y-4.975
X4.95Y-5.175
X5.05Y-4.775
X5.05Y-5.175
X5.15Y-4.875
X5.15Y-5.175
X5.25Y-4.975
X5.25Y-5.175
X5.35Y-4.875
X5.35Y-5.175
X5.45Y-4.675
X5.45Y-5.175
X5.5118Y-2.9433
X5.5118Y-3.0433
X5.5118Y-3.1433
X5.5118Y-3.2433
X5.5118Y-3.3433
X5.5118Y-3.4433
X5.5118Y-3.5433
X5.55Y-4.975
X5.55Y-5.175
X5.65Y-4.675
X5.65Y-5.175
X5.75Y-4.775
X5.75Y-5.175
X5.8118Y-2.9433
X5.8118Y-3.0433
X5.8118Y-3.1433
X5.8118Y-3.2433
X5.8118Y-3.3433
X5.8118Y-3.4433
X5.8118Y-3.5433
X5.85Y-4.675
X5.85Y-5.175
X5.95Y-4.975
X5.95Y-5.175
X6.1417Y-4.3787
X6.1417Y-4.4787
X6.1417Y-4.5787
X6.1417Y-4.6787
X6.1417Y-4.7787
X6.1417Y-4.8787
X6.1417Y-4.9787
X6.1417Y-5.0787
X6.4417Y-4.3787
X6.4417Y-4.4787
X6.4417Y-4.5787
X6.4417Y-4.6787
X6.4417Y-4.7787
X6.4417Y-4.8787
X6.4417Y-4.9787
X6.4417Y-5.0787
X6.6929Y-4.4787
X6.6929Y-4.5787
X6.6929Y-4.6787
X6.6929Y-4.7787
X6.6929Y-4.8787
X6.6929Y-4.9787
X6.6929Y-5.0787
X6.9929Y-4.4787
X6.9929Y-4.5787
X6.9929Y-4.6787
X6.9929Y-4.7787
X6.9929Y-4.8787
X6.9929Y-4.9787
X6.9929Y-5.0787
X7.0079Y-2.9433
X7.0079Y-3.0433
X7.0079Y-3.1433
X7.0079Y-3.2433
X7.0079Y-3.3433
X7.0079Y-3.4433
X7.0079Y-3.5433
X7.1394Y-3.8858
X7.1394Y-4.1417
X7.1394Y-4.3976
X7.1394Y-4.6535
X7.1394Y-4.9094
X7.1394Y-5.1654
X7.3079Y-2.9433
X7.3079Y-3.0433
X7.3079Y-3.1433
X7.3079Y-3.2433
X7.3079Y-3.3433
X7.3079Y-3.4433
X7.3079Y-3.5433
X7.5394Y-3.8858
X7.5394Y-4.1417
X7.5394Y-4.3976
X7.5394Y-4.6535
X7.5394Y-4.9094
X7.5394Y-5.1654
T5
X7.6772Y-3.8858
X7.6772Y-3.9858
X7.6772Y-4.1402
X7.6772Y-4.2402
X7.6772Y-4.3976
X7.6772Y-4.4976
X7.6772Y-4.652
X7.6772Y-4.752
X7.6772Y-4.9094
X7.6772Y-5.0094
X7.6772Y-5.1638
X7.6772Y-5.2638
T6
X7.6757Y-2.9439
X7.6757Y-3.0424
X7.6757Y-3.1408
X7.6757Y-3.2392
X7.6757Y-3.3376
X7.6757Y-3.4361
T7
X2.9528Y-5.7087
X3.1496Y-5.7087
X3.2496Y-5.7087
X3.3496Y-5.7087
X3.4496Y-5.7087
X3.5496Y-5.7087
X3.6496Y-5.7087
X3.7496Y-5.7087
X3.8496Y-5.7087
X3.9496Y-5.7087
X4.0496Y-5.7087
X4.1496Y-5.7087
X4.2496Y-5.7087
X4.3496Y-5.7087
X4.4496Y-5.7087
X4.5496Y-5.7087
X4.6496Y-5.7087
T8
X2.185Y-2.185
X2.185Y-5.7087
X5.9252Y-2.1731
X5.9252Y-5.7087
X7.6772Y-2.1654
X7.6772Y-5.7087
T0
M30
