%TF.GenerationSoftware,KiCad,Pcbnew,(6.0.4-0)*%
%TF.CreationDate,2024-05-14T13:38:24+10:00*%
%TF.ProjectId,Keyboard interface,4b657962-6f61-4726-9420-696e74657266,rev?*%
%TF.SameCoordinates,Original*%
%TF.FileFunction,Copper,L2,Bot*%
%TF.FilePolarity,Positive*%
%FSLAX46Y46*%
G04 Gerber Fmt 4.6, Leading zero omitted, Abs format (unit mm)*
G04 Created by KiCad (PCBNEW (6.0.4-0)) date 2024-05-14 13:38:24*
%MOMM*%
%LPD*%
G01*
G04 APERTURE LIST*
G04 Aperture macros list*
%AMRoundRect*
0 Rectangle with rounded corners*
0 $1 Rounding radius*
0 $2 $3 $4 $5 $6 $7 $8 $9 X,Y pos of 4 corners*
0 Add a 4 corners polygon primitive as box body*
4,1,4,$2,$3,$4,$5,$6,$7,$8,$9,$2,$3,0*
0 Add four circle primitives for the rounded corners*
1,1,$1+$1,$2,$3*
1,1,$1+$1,$4,$5*
1,1,$1+$1,$6,$7*
1,1,$1+$1,$8,$9*
0 Add four rect primitives between the rounded corners*
20,1,$1+$1,$2,$3,$4,$5,0*
20,1,$1+$1,$4,$5,$6,$7,0*
20,1,$1+$1,$6,$7,$8,$9,0*
20,1,$1+$1,$8,$9,$2,$3,0*%
G04 Aperture macros list end*
%TA.AperFunction,ComponentPad*%
%ADD10R,2.400000X1.600000*%
%TD*%
%TA.AperFunction,ComponentPad*%
%ADD11O,2.400000X1.600000*%
%TD*%
%TA.AperFunction,ComponentPad*%
%ADD12R,1.800000X1.800000*%
%TD*%
%TA.AperFunction,ComponentPad*%
%ADD13C,1.800000*%
%TD*%
%TA.AperFunction,ComponentPad*%
%ADD14R,1.600000X1.600000*%
%TD*%
%TA.AperFunction,ComponentPad*%
%ADD15O,1.600000X1.600000*%
%TD*%
%TA.AperFunction,ComponentPad*%
%ADD16C,1.600000*%
%TD*%
%TA.AperFunction,ComponentPad*%
%ADD17C,0.800000*%
%TD*%
%TA.AperFunction,ComponentPad*%
%ADD18C,6.400000*%
%TD*%
%TA.AperFunction,ComponentPad*%
%ADD19R,1.700000X1.700000*%
%TD*%
%TA.AperFunction,ComponentPad*%
%ADD20O,1.700000X1.700000*%
%TD*%
%TA.AperFunction,ComponentPad*%
%ADD21RoundRect,0.250000X-0.725000X0.600000X-0.725000X-0.600000X0.725000X-0.600000X0.725000X0.600000X0*%
%TD*%
%TA.AperFunction,ComponentPad*%
%ADD22O,1.950000X1.700000*%
%TD*%
%TA.AperFunction,ViaPad*%
%ADD23C,1.500000*%
%TD*%
%TA.AperFunction,ViaPad*%
%ADD24C,0.800000*%
%TD*%
%TA.AperFunction,Conductor*%
%ADD25C,0.500000*%
%TD*%
%TA.AperFunction,Conductor*%
%ADD26C,1.500000*%
%TD*%
%TA.AperFunction,Conductor*%
%ADD27C,2.000000*%
%TD*%
G04 APERTURE END LIST*
D10*
%TO.P,U5,1,CLK*%
%TO.N,~{CLOCK}*%
X156000000Y-111220000D03*
D11*
%TO.P,U5,2,A*%
%TO.N,Net-(U3-Pad10)*%
X156000000Y-113760000D03*
%TO.P,U5,3,B*%
%TO.N,C*%
X156000000Y-116300000D03*
%TO.P,U5,4,C*%
%TO.N,D*%
X156000000Y-118840000D03*
%TO.P,U5,5,VCC*%
%TO.N,+5V*%
X156000000Y-121380000D03*
%TO.P,U5,6,D*%
%TO.N,E*%
X156000000Y-123920000D03*
%TO.P,U5,7,E*%
%TO.N,F*%
X156000000Y-126460000D03*
%TO.P,U5,8,PRE*%
%TO.N,Net-(U1-Pad6)*%
X156000000Y-129000000D03*
%TO.P,U5,9,SER*%
%TO.N,Net-(U3-Pad13)*%
X163620000Y-129000000D03*
%TO.P,U5,10,QE*%
%TO.N,Net-(U4-Pad1)*%
X163620000Y-126460000D03*
%TO.P,U5,11,QD*%
%TO.N,Net-(U5-Pad11)*%
X163620000Y-123920000D03*
%TO.P,U5,12,GND*%
%TO.N,GND*%
X163620000Y-121380000D03*
%TO.P,U5,13,QC*%
%TO.N,Net-(U5-Pad13)*%
X163620000Y-118840000D03*
%TO.P,U5,14,QB*%
%TO.N,Net-(U5-Pad14)*%
X163620000Y-116300000D03*
%TO.P,U5,15,QA*%
%TO.N,Net-(U5-Pad15)*%
X163620000Y-113760000D03*
%TO.P,U5,16,~{CLR}*%
%TO.N,~{FLAG_RESET}*%
X163620000Y-111220000D03*
%TD*%
D10*
%TO.P,U4,1*%
%TO.N,Net-(U4-Pad1)*%
X178000000Y-74760000D03*
D11*
%TO.P,U4,2*%
X178000000Y-77300000D03*
%TO.P,U4,3*%
%TO.N,Net-(U4-Pad3)*%
X178000000Y-79840000D03*
%TO.P,U4,4*%
X178000000Y-82380000D03*
%TO.P,U4,5*%
X178000000Y-84920000D03*
%TO.P,U4,6*%
%TO.N,DATA*%
X178000000Y-87460000D03*
%TO.P,U4,7,GND*%
%TO.N,GND*%
X178000000Y-90000000D03*
%TO.P,U4,8*%
%TO.N,unconnected-(U4-Pad8)*%
X185620000Y-90000000D03*
%TO.P,U4,9*%
%TO.N,unconnected-(U4-Pad9)*%
X185620000Y-87460000D03*
%TO.P,U4,10*%
%TO.N,unconnected-(U4-Pad10)*%
X185620000Y-84920000D03*
%TO.P,U4,11*%
%TO.N,~{FLAG}*%
X185620000Y-82380000D03*
%TO.P,U4,12*%
%TO.N,FLAG_OUT_LED*%
X185620000Y-79840000D03*
%TO.P,U4,13*%
X185620000Y-77300000D03*
%TO.P,U4,14,VCC*%
%TO.N,+5V*%
X185620000Y-74760000D03*
%TD*%
D10*
%TO.P,U6,1*%
%TO.N,Net-(U5-Pad13)*%
X170000000Y-113760000D03*
D11*
%TO.P,U6,2*%
%TO.N,Net-(D4-Pad1)*%
X170000000Y-116300000D03*
%TO.P,U6,3*%
%TO.N,Net-(U5-Pad11)*%
X170000000Y-118840000D03*
%TO.P,U6,4*%
%TO.N,Net-(D5-Pad1)*%
X170000000Y-121380000D03*
%TO.P,U6,5*%
%TO.N,Net-(U4-Pad1)*%
X170000000Y-123920000D03*
%TO.P,U6,6*%
%TO.N,Net-(D6-Pad1)*%
X170000000Y-126460000D03*
%TO.P,U6,7,GND*%
%TO.N,GND*%
X170000000Y-129000000D03*
%TO.P,U6,8*%
%TO.N,Net-(D3-Pad1)*%
X177620000Y-129000000D03*
%TO.P,U6,9*%
%TO.N,Net-(U5-Pad14)*%
X177620000Y-126460000D03*
%TO.P,U6,10*%
%TO.N,Net-(D2-Pad1)*%
X177620000Y-123920000D03*
%TO.P,U6,11*%
%TO.N,Net-(U5-Pad15)*%
X177620000Y-121380000D03*
%TO.P,U6,12*%
%TO.N,Net-(D1-Pad1)*%
X177620000Y-118840000D03*
%TO.P,U6,13*%
%TO.N,FLAG_OUT_LED*%
X177620000Y-116300000D03*
%TO.P,U6,14,VCC*%
%TO.N,+5V*%
X177620000Y-113760000D03*
%TD*%
D10*
%TO.P,U3,1*%
%TO.N,Net-(U1-Pad5)*%
X140000000Y-74760000D03*
D11*
%TO.P,U3,2*%
%TO.N,Net-(U2-Pad11)*%
X140000000Y-77300000D03*
%TO.P,U3,3*%
%TO.N,Net-(U2-Pad8)*%
X140000000Y-79840000D03*
%TO.P,U3,4*%
%TO.N,unconnected-(U3-Pad4)*%
X140000000Y-82380000D03*
%TO.P,U3,5*%
%TO.N,unconnected-(U3-Pad5)*%
X140000000Y-84920000D03*
%TO.P,U3,6*%
%TO.N,unconnected-(U3-Pad6)*%
X140000000Y-87460000D03*
%TO.P,U3,7,GND*%
%TO.N,GND*%
X140000000Y-90000000D03*
%TO.P,U3,8*%
%TO.N,CR*%
X147620000Y-90000000D03*
%TO.P,U3,9*%
%TO.N,GND*%
X147620000Y-87460000D03*
%TO.P,U3,10*%
%TO.N,Net-(U3-Pad10)*%
X147620000Y-84920000D03*
%TO.P,U3,11*%
%TO.N,GND*%
X147620000Y-82380000D03*
%TO.P,U3,12*%
%TO.N,A*%
X147620000Y-79840000D03*
%TO.P,U3,13*%
%TO.N,Net-(U3-Pad13)*%
X147620000Y-77300000D03*
%TO.P,U3,14,VCC*%
%TO.N,+5V*%
X147620000Y-74760000D03*
%TD*%
D12*
%TO.P,D1,1,K*%
%TO.N,Net-(D1-Pad1)*%
X195000000Y-101240000D03*
D13*
%TO.P,D1,2,A*%
%TO.N,Net-(D1-Pad2)*%
X195000000Y-98700000D03*
%TD*%
D12*
%TO.P,D2,1,K*%
%TO.N,Net-(D2-Pad1)*%
X195000000Y-107700000D03*
D13*
%TO.P,D2,2,A*%
%TO.N,Net-(D2-Pad2)*%
X195000000Y-105160000D03*
%TD*%
D12*
%TO.P,D3,1,K*%
%TO.N,Net-(D3-Pad1)*%
X195000000Y-114240000D03*
D13*
%TO.P,D3,2,A*%
%TO.N,Net-(D3-Pad2)*%
X195000000Y-111700000D03*
%TD*%
D12*
%TO.P,D4,1,K*%
%TO.N,Net-(D4-Pad1)*%
X195000000Y-120700000D03*
D13*
%TO.P,D4,2,A*%
%TO.N,Net-(D4-Pad2)*%
X195000000Y-118160000D03*
%TD*%
D12*
%TO.P,D5,1,K*%
%TO.N,Net-(D5-Pad1)*%
X195000000Y-127240000D03*
D13*
%TO.P,D5,2,A*%
%TO.N,Net-(D5-Pad2)*%
X195000000Y-124700000D03*
%TD*%
D12*
%TO.P,D6,1,K*%
%TO.N,Net-(D6-Pad1)*%
X195000000Y-133700000D03*
D13*
%TO.P,D6,2,A*%
%TO.N,Net-(D6-Pad2)*%
X195000000Y-131160000D03*
%TD*%
D10*
%TO.P,U1,1,Cext*%
%TO.N,Net-(C1-Pad1)*%
X92075000Y-72263000D03*
D11*
%TO.P,U1,2,RCext*%
%TO.N,Net-(C1-Pad2)*%
X92075000Y-74803000D03*
%TO.P,U1,3,Clr*%
%TO.N,unconnected-(U1-Pad3)*%
X92075000Y-77343000D03*
%TO.P,U1,4,B*%
%TO.N,GND*%
X92075000Y-79883000D03*
%TO.P,U1,5,A*%
%TO.N,Net-(U1-Pad5)*%
X92075000Y-82423000D03*
%TO.P,U1,6,Q*%
%TO.N,Net-(U1-Pad6)*%
X92075000Y-84963000D03*
%TO.P,U1,7,~{Q}*%
%TO.N,Net-(U1-Pad12)*%
X92075000Y-87503000D03*
%TO.P,U1,8,GND*%
%TO.N,GND*%
X92075000Y-90043000D03*
%TO.P,U1,9,~{Q}*%
%TO.N,Net-(U1-Pad9)*%
X99695000Y-90043000D03*
%TO.P,U1,10,Q*%
%TO.N,unconnected-(U1-Pad10)*%
X99695000Y-87503000D03*
%TO.P,U1,11,A*%
%TO.N,Net-(R15-Pad1)*%
X99695000Y-84963000D03*
%TO.P,U1,12,B*%
%TO.N,Net-(U1-Pad12)*%
X99695000Y-82423000D03*
%TO.P,U1,13,Clr*%
%TO.N,unconnected-(U1-Pad13)*%
X99695000Y-79883000D03*
%TO.P,U1,14,RCext*%
%TO.N,Net-(C2-Pad2)*%
X99695000Y-77343000D03*
%TO.P,U1,15,Cext*%
%TO.N,Net-(C2-Pad1)*%
X99695000Y-74803000D03*
%TO.P,U1,16,VCC*%
%TO.N,+5V*%
X99695000Y-72263000D03*
%TD*%
D14*
%TO.P,D8,1,K*%
%TO.N,0*%
X62230000Y-131445000D03*
D15*
%TO.P,D8,2,A*%
%TO.N,F*%
X62230000Y-126365000D03*
%TD*%
D16*
%TO.P,R1,1*%
%TO.N,+5V*%
X181340000Y-98700000D03*
D15*
%TO.P,R1,2*%
%TO.N,Net-(D1-Pad2)*%
X191500000Y-98700000D03*
%TD*%
D16*
%TO.P,R2,1*%
%TO.N,+5V*%
X181340000Y-105200000D03*
D15*
%TO.P,R2,2*%
%TO.N,Net-(D2-Pad2)*%
X191500000Y-105200000D03*
%TD*%
D16*
%TO.P,R3,1*%
%TO.N,+5V*%
X181340000Y-111700000D03*
D15*
%TO.P,R3,2*%
%TO.N,Net-(D3-Pad2)*%
X191500000Y-111700000D03*
%TD*%
D16*
%TO.P,R4,1*%
%TO.N,+5V*%
X181340000Y-118200000D03*
D15*
%TO.P,R4,2*%
%TO.N,Net-(D4-Pad2)*%
X191500000Y-118200000D03*
%TD*%
D16*
%TO.P,R5,1*%
%TO.N,+5V*%
X181340000Y-124700000D03*
D15*
%TO.P,R5,2*%
%TO.N,Net-(D5-Pad2)*%
X191500000Y-124700000D03*
%TD*%
D16*
%TO.P,R6,1*%
%TO.N,+5V*%
X181340000Y-131200000D03*
D15*
%TO.P,R6,2*%
%TO.N,Net-(D6-Pad2)*%
X191500000Y-131200000D03*
%TD*%
D16*
%TO.P,R7,1*%
%TO.N,Net-(C1-Pad1)*%
X83820000Y-78105000D03*
D15*
%TO.P,R7,2*%
%TO.N,+5V*%
X83820000Y-67945000D03*
%TD*%
D16*
%TO.P,R8,1*%
%TO.N,Net-(C2-Pad1)*%
X105000000Y-78000000D03*
D15*
%TO.P,R8,2*%
%TO.N,+5V*%
X105000000Y-67840000D03*
%TD*%
D16*
%TO.P,R9,1*%
%TO.N,GND*%
X75565000Y-87630000D03*
D15*
%TO.P,R9,2*%
%TO.N,A*%
X75565000Y-97790000D03*
%TD*%
D16*
%TO.P,R10,1*%
%TO.N,GND*%
X72390000Y-87630000D03*
D15*
%TO.P,R10,2*%
%TO.N,CR*%
X72390000Y-97790000D03*
%TD*%
D16*
%TO.P,R11,1*%
%TO.N,+5V*%
X69215000Y-87630000D03*
D15*
%TO.P,R11,2*%
%TO.N,C*%
X69215000Y-97790000D03*
%TD*%
D16*
%TO.P,R13,1*%
%TO.N,+5V*%
X62865000Y-87630000D03*
D15*
%TO.P,R13,2*%
%TO.N,E*%
X62865000Y-97790000D03*
%TD*%
D16*
%TO.P,R14,1*%
%TO.N,+5V*%
X59436000Y-87630000D03*
D15*
%TO.P,R14,2*%
%TO.N,F*%
X59436000Y-97790000D03*
%TD*%
D17*
%TO.P,H1,1,1*%
%TO.N,GND*%
X53802944Y-53802944D03*
X57900000Y-55500000D03*
X55500000Y-53100000D03*
X55500000Y-57900000D03*
X53100000Y-55500000D03*
X57197056Y-57197056D03*
X53802944Y-57197056D03*
D18*
X55500000Y-55500000D03*
D17*
X57197056Y-53802944D03*
%TD*%
%TO.P,H2,1,1*%
%TO.N,GND*%
X193302944Y-56697056D03*
D18*
X195000000Y-55000000D03*
D17*
X195000000Y-52600000D03*
X197400000Y-55000000D03*
X195000000Y-57400000D03*
X196697056Y-53302944D03*
X196697056Y-56697056D03*
X192600000Y-55000000D03*
X193302944Y-53302944D03*
%TD*%
%TO.P,H3,1,1*%
%TO.N,GND*%
X196697056Y-143302944D03*
X197400000Y-145000000D03*
X192600000Y-145000000D03*
X193302944Y-146697056D03*
X196697056Y-146697056D03*
X195000000Y-147400000D03*
X195000000Y-142600000D03*
D18*
X195000000Y-145000000D03*
D17*
X193302944Y-143302944D03*
%TD*%
%TO.P,H4,1,1*%
%TO.N,GND*%
X55500000Y-142600000D03*
X53100000Y-145000000D03*
X53802944Y-143302944D03*
D18*
X55500000Y-145000000D03*
D17*
X57900000Y-145000000D03*
X57197056Y-143302944D03*
X53802944Y-146697056D03*
X55500000Y-147400000D03*
X57197056Y-146697056D03*
%TD*%
D16*
%TO.P,R12,1*%
%TO.N,+5V*%
X66040000Y-87630000D03*
D15*
%TO.P,R12,2*%
%TO.N,D*%
X66040000Y-97790000D03*
%TD*%
D14*
%TO.P,D7,1,K*%
%TO.N,0*%
X59690000Y-131445000D03*
D15*
%TO.P,D7,2,A*%
%TO.N,E*%
X59690000Y-123825000D03*
%TD*%
D14*
%TO.P,D9,1,K*%
%TO.N,0*%
X64770000Y-131445000D03*
D15*
%TO.P,D9,2,A*%
%TO.N,C*%
X64770000Y-118745000D03*
%TD*%
D14*
%TO.P,D10,1,K*%
%TO.N,0*%
X67310000Y-131445000D03*
D15*
%TO.P,D10,2,A*%
%TO.N,D*%
X67310000Y-121285000D03*
%TD*%
D14*
%TO.P,D11,1,K*%
%TO.N,1*%
X69850000Y-131445000D03*
D15*
%TO.P,D11,2,A*%
%TO.N,C*%
X69850000Y-118745000D03*
%TD*%
D14*
%TO.P,D12,1,K*%
%TO.N,1*%
X72390000Y-131445000D03*
D15*
%TO.P,D12,2,A*%
%TO.N,D*%
X72390000Y-121285000D03*
%TD*%
D14*
%TO.P,D13,1,K*%
%TO.N,1*%
X74930000Y-131445000D03*
D15*
%TO.P,D13,2,A*%
%TO.N,E*%
X74930000Y-123825000D03*
%TD*%
D14*
%TO.P,D14,1,K*%
%TO.N,4*%
X77470000Y-131445000D03*
D15*
%TO.P,D14,2,A*%
%TO.N,F*%
X77470000Y-126365000D03*
%TD*%
D14*
%TO.P,D15,1,K*%
%TO.N,4*%
X80010000Y-131445000D03*
D15*
%TO.P,D15,2,A*%
%TO.N,E*%
X80010000Y-123825000D03*
%TD*%
D14*
%TO.P,D16,1,K*%
%TO.N,4*%
X82550000Y-131445000D03*
D15*
%TO.P,D16,2,A*%
%TO.N,C*%
X82550000Y-118745000D03*
%TD*%
D19*
%TO.P,J3,1,Pin_1*%
%TO.N,GND*%
X75000000Y-145000000D03*
%TD*%
D14*
%TO.P,D17,1,K*%
%TO.N,7*%
X85090000Y-131445000D03*
D15*
%TO.P,D17,2,A*%
%TO.N,C*%
X85090000Y-118745000D03*
%TD*%
D19*
%TO.P,J1,1,Pin_1*%
%TO.N,0*%
X80000000Y-145000000D03*
D20*
%TO.P,J1,2,Pin_2*%
%TO.N,1*%
X82540000Y-145000000D03*
%TO.P,J1,3,Pin_3*%
%TO.N,4*%
X85080000Y-145000000D03*
%TO.P,J1,4,Pin_4*%
%TO.N,7*%
X87620000Y-145000000D03*
%TO.P,J1,5,Pin_5*%
%TO.N,8*%
X90160000Y-145000000D03*
%TO.P,J1,6,Pin_6*%
%TO.N,5*%
X92700000Y-145000000D03*
%TO.P,J1,7,Pin_7*%
%TO.N,2*%
X95240000Y-145000000D03*
%TO.P,J1,8,Pin_8*%
%TO.N,+*%
X97780000Y-145000000D03*
%TO.P,J1,9,Pin_9*%
%TO.N,-*%
X100320000Y-145000000D03*
%TO.P,J1,10,Pin_10*%
%TO.N,3*%
X102860000Y-145000000D03*
%TO.P,J1,11,Pin_11*%
%TO.N,6*%
X105400000Y-145000000D03*
%TO.P,J1,12,Pin_12*%
%TO.N,9*%
X107940000Y-145000000D03*
%TO.P,J1,13,Pin_13*%
%TO.N,X*%
X110480000Y-145000000D03*
%TO.P,J1,14,Pin_14*%
%TO.N,DIV*%
X113020000Y-145000000D03*
%TO.P,J1,15,Pin_15*%
%TO.N,LF*%
X115560000Y-145000000D03*
%TO.P,J1,16,Pin_16*%
%TO.N,CR*%
X118100000Y-145000000D03*
%TD*%
D14*
%TO.P,D18,1,K*%
%TO.N,8*%
X87630000Y-131445000D03*
D15*
%TO.P,D18,2,A*%
%TO.N,F*%
X87630000Y-126365000D03*
%TD*%
D14*
%TO.P,D19,1,K*%
%TO.N,8*%
X90170000Y-131445000D03*
D15*
%TO.P,D19,2,A*%
%TO.N,E*%
X90170000Y-123825000D03*
%TD*%
D14*
%TO.P,D20,1,K*%
%TO.N,8*%
X92710000Y-131445000D03*
D15*
%TO.P,D20,2,A*%
%TO.N,D*%
X92710000Y-121285000D03*
%TD*%
D14*
%TO.P,D21,1,K*%
%TO.N,5*%
X95250000Y-131445000D03*
D15*
%TO.P,D21,2,A*%
%TO.N,E*%
X95250000Y-123825000D03*
%TD*%
D14*
%TO.P,D22,1,K*%
%TO.N,5*%
X97790000Y-131445000D03*
D15*
%TO.P,D22,2,A*%
%TO.N,C*%
X97790000Y-118745000D03*
%TD*%
D16*
%TO.P,R15,1*%
%TO.N,Net-(R15-Pad1)*%
X109982000Y-78105000D03*
D15*
%TO.P,R15,2*%
%TO.N,+5V*%
X109982000Y-67945000D03*
%TD*%
D14*
%TO.P,D23,1,K*%
%TO.N,2*%
X100330000Y-131445000D03*
D15*
%TO.P,D23,2,A*%
%TO.N,F*%
X100330000Y-126365000D03*
%TD*%
D14*
%TO.P,D24,1,K*%
%TO.N,2*%
X102870000Y-131445000D03*
D15*
%TO.P,D24,2,A*%
%TO.N,D*%
X102870000Y-121285000D03*
%TD*%
D14*
%TO.P,D25,1,K*%
%TO.N,2*%
X105410000Y-131445000D03*
D15*
%TO.P,D25,2,A*%
%TO.N,C*%
X105410000Y-118745000D03*
%TD*%
D14*
%TO.P,D26,1,K*%
%TO.N,+*%
X107950000Y-131445000D03*
D15*
%TO.P,D26,2,A*%
%TO.N,D*%
X107950000Y-121285000D03*
%TD*%
D14*
%TO.P,D27,1,K*%
%TO.N,+*%
X110490000Y-131445000D03*
D15*
%TO.P,D27,2,A*%
%TO.N,A*%
X110490000Y-118745000D03*
%TD*%
D14*
%TO.P,D28,1,K*%
%TO.N,-*%
X113030000Y-131445000D03*
D15*
%TO.P,D28,2,A*%
%TO.N,E*%
X113030000Y-123825000D03*
%TD*%
D14*
%TO.P,D29,1,K*%
%TO.N,-*%
X115570000Y-131445000D03*
D15*
%TO.P,D29,2,A*%
%TO.N,A*%
X115570000Y-118745000D03*
%TD*%
D14*
%TO.P,D30,1,K*%
%TO.N,3*%
X118110000Y-131445000D03*
D15*
%TO.P,D30,2,A*%
%TO.N,D*%
X118110000Y-121285000D03*
%TD*%
D14*
%TO.P,D31,1,K*%
%TO.N,3*%
X120650000Y-131445000D03*
D15*
%TO.P,D31,2,A*%
%TO.N,C*%
X120650000Y-118745000D03*
%TD*%
D14*
%TO.P,D32,1,K*%
%TO.N,6*%
X123190000Y-131445000D03*
D15*
%TO.P,D32,2,A*%
%TO.N,C*%
X123190000Y-118745000D03*
%TD*%
D14*
%TO.P,D33,1,K*%
%TO.N,6*%
X125730000Y-131445000D03*
D15*
%TO.P,D33,2,A*%
%TO.N,F*%
X125730000Y-126365000D03*
%TD*%
D14*
%TO.P,D34,1,K*%
%TO.N,9*%
X128270000Y-131445000D03*
D15*
%TO.P,D34,2,A*%
%TO.N,D*%
X128270000Y-121285000D03*
%TD*%
D14*
%TO.P,D35,1,K*%
%TO.N,9*%
X130810000Y-131445000D03*
D15*
%TO.P,D35,2,A*%
%TO.N,E*%
X130810000Y-123825000D03*
%TD*%
D14*
%TO.P,D36,1,K*%
%TO.N,X*%
X133350000Y-131445000D03*
D15*
%TO.P,D36,2,A*%
%TO.N,F*%
X133350000Y-126365000D03*
%TD*%
D14*
%TO.P,D37,1,K*%
%TO.N,X*%
X135890000Y-131445000D03*
D15*
%TO.P,D37,2,A*%
%TO.N,E*%
X135890000Y-123825000D03*
%TD*%
D14*
%TO.P,D38,1,K*%
%TO.N,X*%
X138430000Y-131445000D03*
D15*
%TO.P,D38,2,A*%
%TO.N,A*%
X138430000Y-118745000D03*
%TD*%
D14*
%TO.P,D39,1,K*%
%TO.N,DIV*%
X140970000Y-131445000D03*
D15*
%TO.P,D39,2,A*%
%TO.N,F*%
X140970000Y-126365000D03*
%TD*%
D14*
%TO.P,D40,1,K*%
%TO.N,DIV*%
X143510000Y-131445000D03*
D15*
%TO.P,D40,2,A*%
%TO.N,A*%
X143510000Y-118745000D03*
%TD*%
D14*
%TO.P,D41,1,K*%
%TO.N,LF*%
X146050000Y-131445000D03*
D15*
%TO.P,D41,2,A*%
%TO.N,D*%
X146050000Y-121285000D03*
%TD*%
D14*
%TO.P,D42,1,K*%
%TO.N,LF*%
X148590000Y-131445000D03*
D15*
%TO.P,D42,2,A*%
%TO.N,A*%
X148590000Y-118745000D03*
%TD*%
D14*
%TO.P,D43,1,K*%
%TO.N,LF*%
X151130000Y-131445000D03*
D15*
%TO.P,D43,2,A*%
%TO.N,F*%
X151130000Y-126365000D03*
%TD*%
D16*
%TO.P,C1,1*%
%TO.N,Net-(C1-Pad1)*%
X87884000Y-71120000D03*
%TO.P,C1,2*%
%TO.N,Net-(C1-Pad2)*%
X87884000Y-76120000D03*
%TD*%
%TO.P,C2,1*%
%TO.N,Net-(C2-Pad1)*%
X105029000Y-80685000D03*
%TO.P,C2,2*%
%TO.N,Net-(C2-Pad2)*%
X105029000Y-85685000D03*
%TD*%
D17*
%TO.P,H5,1,1*%
%TO.N,GND*%
X152900000Y-55197056D03*
X152197056Y-56894112D03*
X148802944Y-56894112D03*
X148100000Y-55197056D03*
X150500000Y-52797056D03*
X152197056Y-53500000D03*
D18*
X150500000Y-55197056D03*
D17*
X148802944Y-53500000D03*
X150500000Y-57597056D03*
%TD*%
%TO.P,H6,1,1*%
%TO.N,GND*%
X148802944Y-143302944D03*
D18*
X150500000Y-145000000D03*
D17*
X152197056Y-143302944D03*
X152900000Y-145000000D03*
X148100000Y-145000000D03*
X150500000Y-147400000D03*
X148802944Y-146697056D03*
X150500000Y-142600000D03*
X152197056Y-146697056D03*
%TD*%
D21*
%TO.P,J2,1,Pin_1*%
%TO.N,~{FLAG_RESET}*%
X194962000Y-74776000D03*
D22*
%TO.P,J2,2,Pin_2*%
%TO.N,~{FLAG}*%
X194962000Y-77276000D03*
%TO.P,J2,3,Pin_3*%
%TO.N,GND*%
X194962000Y-79776000D03*
%TO.P,J2,4,Pin_4*%
%TO.N,DATA*%
X194962000Y-82276000D03*
%TO.P,J2,5,Pin_5*%
%TO.N,~{CLOCK}*%
X194962000Y-84776000D03*
%TO.P,J2,6,Pin_6*%
%TO.N,+5V*%
X194962000Y-87276000D03*
%TD*%
D10*
%TO.P,U2,1*%
%TO.N,~{FLAG_RESET}*%
X117000000Y-74700000D03*
D11*
%TO.P,U2,2*%
%TO.N,FLAG_OUT_LED*%
X117000000Y-77240000D03*
%TO.P,U2,3*%
%TO.N,Net-(U2-Pad3)*%
X117000000Y-79780000D03*
%TO.P,U2,4*%
X117000000Y-82320000D03*
%TO.P,U2,5*%
%TO.N,Net-(U1-Pad9)*%
X117000000Y-84860000D03*
%TO.P,U2,6*%
%TO.N,FLAG_OUT_LED*%
X117000000Y-87400000D03*
%TO.P,U2,7,GND*%
%TO.N,GND*%
X117000000Y-89940000D03*
%TO.P,U2,8*%
%TO.N,Net-(U2-Pad8)*%
X124620000Y-89940000D03*
%TO.P,U2,9*%
%TO.N,C*%
X124620000Y-87400000D03*
%TO.P,U2,10*%
%TO.N,D*%
X124620000Y-84860000D03*
%TO.P,U2,11*%
%TO.N,Net-(U2-Pad11)*%
X124620000Y-82320000D03*
%TO.P,U2,12*%
%TO.N,E*%
X124620000Y-79780000D03*
%TO.P,U2,13*%
%TO.N,F*%
X124620000Y-77240000D03*
%TO.P,U2,14,VCC*%
%TO.N,+5V*%
X124620000Y-74700000D03*
%TD*%
D23*
%TO.N,A*%
X110490000Y-113792000D03*
%TO.N,~{FLAG_RESET}*%
X157000000Y-70000000D03*
%TO.N,+5V*%
X162000000Y-68000000D03*
X185000000Y-68000000D03*
X125095000Y-67945000D03*
X148000000Y-68000000D03*
%TO.N,GND*%
X92000000Y-93000000D03*
X178000000Y-93000000D03*
X140000000Y-93000000D03*
X117000000Y-93000000D03*
%TO.N,C*%
X128270000Y-96520000D03*
X128270000Y-118745000D03*
%TO.N,D*%
X130175000Y-96520000D03*
X130175000Y-121285000D03*
%TO.N,E*%
X87630000Y-111760000D03*
X87630000Y-123825000D03*
%TO.N,~{CLOCK}*%
X157480000Y-95250000D03*
%TO.N,Net-(U1-Pad6)*%
X154940000Y-95250000D03*
%TO.N,Net-(U4-Pad1)*%
X155194000Y-77343000D03*
X168148000Y-77343000D03*
D24*
%TO.N,CR*%
X147620000Y-111460000D03*
%TD*%
D25*
%TO.N,GND*%
X92075000Y-79883000D02*
X89941400Y-79883000D01*
X89941400Y-79883000D02*
X89458800Y-80365600D01*
X89458800Y-80365600D02*
X89458800Y-89255600D01*
X91948000Y-90170000D02*
X92075000Y-90043000D01*
X89458800Y-89255600D02*
X90373200Y-90170000D01*
X90373200Y-90170000D02*
X91948000Y-90170000D01*
%TO.N,Net-(U5-Pad14)*%
X163620000Y-116300000D02*
X163989000Y-116300000D01*
X163989000Y-116300000D02*
X168148000Y-112141000D01*
X168148000Y-112141000D02*
X171831000Y-112141000D01*
X171831000Y-112141000D02*
X172085000Y-112395000D01*
X172085000Y-112395000D02*
X172085000Y-114935000D01*
X172085000Y-114935000D02*
X174560489Y-117410489D01*
X174560489Y-117410489D02*
X174560489Y-123400489D01*
X174560489Y-123400489D02*
X177620000Y-126460000D01*
%TO.N,CR*%
X147620000Y-111460000D02*
X142875000Y-116205000D01*
X142875000Y-116205000D02*
X73660000Y-116205000D01*
X73660000Y-116205000D02*
X72390000Y-114935000D01*
X72390000Y-114935000D02*
X72390000Y-97790000D01*
%TO.N,A*%
X142008520Y-88750480D02*
X138579520Y-88750480D01*
X75565000Y-97790000D02*
X75565000Y-112395000D01*
X143637000Y-87122000D02*
X142008520Y-88750480D01*
X138579520Y-88750480D02*
X137160000Y-90170000D01*
X137160000Y-90170000D02*
X137160000Y-110490000D01*
X76962000Y-113792000D02*
X110490000Y-113792000D01*
X143637000Y-83823000D02*
X143637000Y-87122000D01*
X75565000Y-112395000D02*
X76962000Y-113792000D01*
X147620000Y-79840000D02*
X143637000Y-83823000D01*
X133858000Y-113792000D02*
X110490000Y-113792000D01*
X137160000Y-110490000D02*
X133858000Y-113792000D01*
%TO.N,GND*%
X142410000Y-90000000D02*
X140000000Y-90000000D01*
%TO.N,Net-(U5-Pad13)*%
X163620000Y-118840000D02*
X164624000Y-118840000D01*
X164624000Y-118840000D02*
X168275000Y-115189000D01*
X168275000Y-115189000D02*
X168275000Y-114300000D01*
X168275000Y-114300000D02*
X168815000Y-113760000D01*
X168815000Y-113760000D02*
X170000000Y-113760000D01*
%TO.N,Net-(D5-Pad1)*%
X172847000Y-122174000D02*
X172847000Y-126619000D01*
X172053000Y-121380000D02*
X172847000Y-122174000D01*
X170000000Y-121380000D02*
X172053000Y-121380000D01*
X172847000Y-126619000D02*
X173863000Y-127635000D01*
X173863000Y-127635000D02*
X173863000Y-132588000D01*
X193100000Y-127240000D02*
X194500000Y-127240000D01*
X173863000Y-132588000D02*
X175275000Y-134000000D01*
X175275000Y-134000000D02*
X186340000Y-134000000D01*
X186340000Y-134000000D02*
X193100000Y-127240000D01*
%TO.N,Net-(D4-Pad1)*%
X170000000Y-116300000D02*
X172180000Y-116300000D01*
X175768000Y-133223000D02*
X184912000Y-133223000D01*
X189202500Y-128932500D02*
X189202500Y-123797500D01*
X173736000Y-126238000D02*
X174625000Y-127127000D01*
X172180000Y-116300000D02*
X173736000Y-117856000D01*
X184912000Y-133223000D02*
X189202500Y-128932500D01*
X173736000Y-117856000D02*
X173736000Y-126238000D01*
X174625000Y-127127000D02*
X174625000Y-132080000D01*
X189202500Y-123797500D02*
X192300000Y-120700000D01*
X174625000Y-132080000D02*
X175768000Y-133223000D01*
X192300000Y-120700000D02*
X194500000Y-120700000D01*
%TO.N,Net-(D6-Pad1)*%
X171545000Y-126460000D02*
X173101000Y-128016000D01*
X173101000Y-128016000D02*
X173101000Y-132842000D01*
X188253000Y-134747000D02*
X189260000Y-133740000D01*
X173101000Y-132842000D02*
X175006000Y-134747000D01*
X170000000Y-126460000D02*
X171545000Y-126460000D01*
X189260000Y-133740000D02*
X194500000Y-133740000D01*
X175006000Y-134747000D02*
X188253000Y-134747000D01*
%TO.N,Net-(U5-Pad15)*%
X165005000Y-113760000D02*
X163620000Y-113760000D01*
X176625000Y-121380000D02*
X175260000Y-120015000D01*
X175260000Y-120015000D02*
X175260000Y-116840000D01*
X166370000Y-112395000D02*
X165005000Y-113760000D01*
X173355000Y-114935000D02*
X173355000Y-110490000D01*
X177620000Y-121380000D02*
X176625000Y-121380000D01*
X175260000Y-116840000D02*
X173355000Y-114935000D01*
X173355000Y-110490000D02*
X172085000Y-109220000D01*
X172085000Y-109220000D02*
X167005000Y-109220000D01*
X167005000Y-109220000D02*
X166370000Y-109855000D01*
X166370000Y-109855000D02*
X166370000Y-112395000D01*
%TO.N,FLAG_OUT_LED*%
X177620000Y-116300000D02*
X175863000Y-116300000D01*
X175863000Y-116300000D02*
X174985000Y-115422000D01*
X159385000Y-89535000D02*
X159385000Y-66675000D01*
X174985000Y-115422000D02*
X174985000Y-105135000D01*
X174985000Y-105135000D02*
X159385000Y-89535000D01*
D26*
%TO.N,+5V*%
X125000000Y-68040000D02*
X125095000Y-67945000D01*
X125000000Y-74380000D02*
X125000000Y-68040000D01*
X83820000Y-67945000D02*
X109982000Y-67945000D01*
X69215000Y-87630000D02*
X69215000Y-78994000D01*
X69215000Y-78994000D02*
X80264000Y-67945000D01*
X80264000Y-67945000D02*
X83820000Y-67945000D01*
X59436000Y-87630000D02*
X69215000Y-87630000D01*
D25*
%TO.N,F*%
X59436000Y-97790000D02*
X61341000Y-95885000D01*
X78759999Y-96539999D02*
X116185001Y-96539999D01*
X61341000Y-95885000D02*
X78105000Y-95885000D01*
X78105000Y-95885000D02*
X78759999Y-96539999D01*
X116185001Y-96539999D02*
X120650000Y-92075000D01*
X123360000Y-77300000D02*
X124620000Y-77300000D01*
X120650000Y-92075000D02*
X120650000Y-80010000D01*
X120650000Y-80010000D02*
X123360000Y-77300000D01*
X56705000Y-114110000D02*
X59436000Y-111379000D01*
X62230000Y-126365000D02*
X58190000Y-126365000D01*
X56705000Y-124880000D02*
X56705000Y-114110000D01*
X59436000Y-111379000D02*
X59436000Y-97790000D01*
X58190000Y-126365000D02*
X56705000Y-124880000D01*
X78105000Y-126365000D02*
X62230000Y-126365000D01*
%TO.N,Net-(U1-Pad6)*%
X156000000Y-129000000D02*
X157385000Y-129000000D01*
X157385000Y-129000000D02*
X158115000Y-128270000D01*
X158115000Y-128270000D02*
X158115000Y-98425000D01*
X158115000Y-98425000D02*
X154940000Y-95250000D01*
%TO.N,Net-(U4-Pad1)*%
X161290000Y-95250000D02*
X155194000Y-89154000D01*
X163620000Y-126460000D02*
X161290000Y-124130000D01*
X155194000Y-89154000D02*
X155194000Y-77343000D01*
X161290000Y-124130000D02*
X161290000Y-95250000D01*
X168191000Y-77300000D02*
X168148000Y-77343000D01*
X178000000Y-77300000D02*
X168191000Y-77300000D01*
D26*
%TO.N,GND*%
X194962000Y-79776000D02*
X197759000Y-79776000D01*
X198100000Y-93000000D02*
X178000000Y-93000000D01*
X197759000Y-79776000D02*
X198100000Y-80117000D01*
X198100000Y-80117000D02*
X198100000Y-93000000D01*
D25*
%TO.N,~{FLAG}*%
X185620000Y-82380000D02*
X187495000Y-82380000D01*
X187495000Y-82380000D02*
X192599000Y-77276000D01*
X192599000Y-77276000D02*
X194962000Y-77276000D01*
%TO.N,DATA*%
X178000000Y-87460000D02*
X183040000Y-87460000D01*
X183040000Y-87460000D02*
X184290000Y-86210000D01*
X184290000Y-86210000D02*
X188364000Y-86210000D01*
X188364000Y-86210000D02*
X192298000Y-82276000D01*
X192298000Y-82276000D02*
X194962000Y-82276000D01*
%TO.N,Net-(C1-Pad1)*%
X87884000Y-71120000D02*
X86360000Y-71120000D01*
X83820000Y-73660000D02*
X83820000Y-78105000D01*
X86360000Y-71120000D02*
X83820000Y-73660000D01*
%TO.N,Net-(C1-Pad2)*%
X92075000Y-74803000D02*
X89201000Y-74803000D01*
X89201000Y-74803000D02*
X87884000Y-76120000D01*
%TO.N,Net-(C1-Pad1)*%
X92075000Y-72263000D02*
X89027000Y-72263000D01*
X89027000Y-72263000D02*
X87884000Y-71120000D01*
%TO.N,Net-(U1-Pad12)*%
X92075000Y-87503000D02*
X94234000Y-87503000D01*
X96774000Y-82423000D02*
X99695000Y-82423000D01*
X94234000Y-87503000D02*
X95504000Y-86233000D01*
X95504000Y-86233000D02*
X95504000Y-83693000D01*
X95504000Y-83693000D02*
X96774000Y-82423000D01*
%TO.N,Net-(C2-Pad1)*%
X105000000Y-78000000D02*
X105000000Y-80656000D01*
X105000000Y-80656000D02*
X105029000Y-80685000D01*
%TO.N,Net-(R15-Pad1)*%
X99695000Y-84963000D02*
X100584000Y-84963000D01*
X100584000Y-84963000D02*
X103378000Y-87757000D01*
X103378000Y-87757000D02*
X107315000Y-87757000D01*
X107315000Y-87757000D02*
X109982000Y-85090000D01*
X109982000Y-85090000D02*
X109982000Y-78105000D01*
%TO.N,Net-(U1-Pad9)*%
X117000000Y-84920000D02*
X113962000Y-84920000D01*
X113962000Y-84920000D02*
X108839000Y-90043000D01*
X108839000Y-90043000D02*
X99695000Y-90043000D01*
%TO.N,Net-(C2-Pad2)*%
X99695000Y-77343000D02*
X101092000Y-77343000D01*
X101092000Y-77343000D02*
X102743000Y-78994000D01*
X102743000Y-83399000D02*
X105029000Y-85685000D01*
X102743000Y-78994000D02*
X102743000Y-83399000D01*
%TO.N,Net-(C2-Pad1)*%
X99695000Y-74803000D02*
X101803000Y-74803000D01*
X101803000Y-74803000D02*
X105000000Y-78000000D01*
%TO.N,Net-(D1-Pad1)*%
X180460000Y-116000000D02*
X182550002Y-116000000D01*
X185000000Y-113550002D02*
X185000000Y-109849998D01*
X185000000Y-109849998D02*
X193609998Y-101240000D01*
X177620000Y-118840000D02*
X180460000Y-116000000D01*
X193609998Y-101240000D02*
X194500000Y-101240000D01*
X182550002Y-116000000D02*
X185000000Y-113550002D01*
%TO.N,Net-(D1-Pad2)*%
X191500000Y-98700000D02*
X194500000Y-98700000D01*
%TO.N,Net-(D2-Pad2)*%
X191500000Y-105200000D02*
X194460000Y-105200000D01*
X194460000Y-105200000D02*
X194500000Y-105160000D01*
%TO.N,Net-(D2-Pad1)*%
X191385000Y-107700000D02*
X194500000Y-107700000D01*
X186690000Y-121285000D02*
X186690000Y-112395000D01*
X186690000Y-112395000D02*
X191385000Y-107700000D01*
X178985000Y-122555000D02*
X185420000Y-122555000D01*
X177620000Y-123920000D02*
X178985000Y-122555000D01*
X185420000Y-122555000D02*
X186690000Y-121285000D01*
%TO.N,Net-(D3-Pad2)*%
X191500000Y-111700000D02*
X194500000Y-111700000D01*
%TO.N,Net-(D3-Pad1)*%
X192760000Y-114240000D02*
X188107500Y-118892500D01*
X194500000Y-114240000D02*
X192760000Y-114240000D01*
X186595000Y-129000000D02*
X188107500Y-127487500D01*
X177620000Y-129000000D02*
X186595000Y-129000000D01*
X188107500Y-127487500D02*
X188107500Y-118892500D01*
%TO.N,Net-(D4-Pad2)*%
X194460000Y-118200000D02*
X194500000Y-118160000D01*
X191500000Y-118200000D02*
X194460000Y-118200000D01*
%TO.N,Net-(D5-Pad2)*%
X191500000Y-124700000D02*
X194500000Y-124700000D01*
%TO.N,Net-(D6-Pad2)*%
X191500000Y-131200000D02*
X194500000Y-131200000D01*
%TO.N,~{FLAG_RESET}*%
X117000000Y-68000000D02*
X117000000Y-74760000D01*
X153000000Y-66000000D02*
X119000000Y-66000000D01*
X157000000Y-89409964D02*
X157000000Y-70000000D01*
X119000000Y-66000000D02*
X117000000Y-68000000D01*
X157000000Y-70000000D02*
X153000000Y-66000000D01*
X163620000Y-96029964D02*
X157000000Y-89409964D01*
X163620000Y-111220000D02*
X163620000Y-96029964D01*
D26*
%TO.N,+5V*%
X148000000Y-74380000D02*
X147620000Y-74760000D01*
X162000000Y-90000000D02*
X162000000Y-68000000D01*
X177620000Y-113760000D02*
X179280000Y-113760000D01*
X177620000Y-113760000D02*
X177620000Y-105620000D01*
X177620000Y-105620000D02*
X162000000Y-90000000D01*
X181340000Y-105660000D02*
X181340000Y-111700000D01*
X99620000Y-68020000D02*
X99620000Y-72220000D01*
X185620000Y-74760000D02*
X185620000Y-68620000D01*
X179280000Y-113760000D02*
X181340000Y-111700000D01*
X185620000Y-68620000D02*
X185000000Y-68000000D01*
X181340000Y-98700000D02*
X181340000Y-105660000D01*
X148000000Y-68000000D02*
X148000000Y-74380000D01*
D27*
%TO.N,GND*%
X86650000Y-93000000D02*
X86705000Y-93000000D01*
X75565000Y-87630000D02*
X81280000Y-87630000D01*
D26*
X117000000Y-90000000D02*
X117000000Y-93000000D01*
D27*
X92000000Y-93000000D02*
X86705000Y-93000000D01*
D25*
X142410000Y-90000000D02*
X144950000Y-87460000D01*
D27*
X81280000Y-87630000D02*
X86650000Y-93000000D01*
D26*
X178000000Y-93000000D02*
X178000000Y-90000000D01*
D25*
X146220000Y-82380000D02*
X144950000Y-83650000D01*
D26*
X92000000Y-90000000D02*
X92000000Y-93000000D01*
D25*
X144950000Y-83650000D02*
X144950000Y-87460000D01*
D26*
X140000000Y-90000000D02*
X140000000Y-93000000D01*
D25*
X147620000Y-82380000D02*
X146220000Y-82380000D01*
X144950000Y-87460000D02*
X147620000Y-87460000D01*
D27*
X72390000Y-87630000D02*
X75565000Y-87630000D01*
D25*
%TO.N,C*%
X109220000Y-120015000D02*
X107950000Y-118745000D01*
X69215000Y-97790000D02*
X69215000Y-109220000D01*
X154210000Y-116300000D02*
X150495000Y-120015000D01*
X69215000Y-109220000D02*
X64770000Y-113665000D01*
X135890000Y-118745000D02*
X128270000Y-118745000D01*
X64770000Y-113665000D02*
X64770000Y-118745000D01*
X127465000Y-87460000D02*
X128270000Y-88265000D01*
X137160000Y-120015000D02*
X135890000Y-118745000D01*
X124620000Y-87460000D02*
X127465000Y-87460000D01*
X116840000Y-120015000D02*
X109220000Y-120015000D01*
X156000000Y-116300000D02*
X154210000Y-116300000D01*
X150495000Y-120015000D02*
X137160000Y-120015000D01*
X118110000Y-118745000D02*
X116840000Y-120015000D01*
X128270000Y-88265000D02*
X128270000Y-96520000D01*
X128270000Y-118745000D02*
X118110000Y-118745000D01*
X107950000Y-118745000D02*
X64770000Y-118745000D01*
%TO.N,D*%
X67310000Y-121285000D02*
X130175000Y-121285000D01*
X62865000Y-120650000D02*
X62865000Y-113030000D01*
X63500000Y-121285000D02*
X62865000Y-120650000D01*
X124620000Y-84920000D02*
X127465000Y-84920000D01*
X67310000Y-121285000D02*
X63500000Y-121285000D01*
X130175000Y-87630000D02*
X130175000Y-96520000D01*
X62865000Y-113030000D02*
X66040000Y-109855000D01*
X151955000Y-121285000D02*
X154400000Y-118840000D01*
X66040000Y-109855000D02*
X66040000Y-97790000D01*
X130175000Y-121285000D02*
X151955000Y-121285000D01*
X154400000Y-118840000D02*
X156000000Y-118840000D01*
X127465000Y-84920000D02*
X130175000Y-87630000D01*
%TO.N,E*%
X62865000Y-110490000D02*
X62865000Y-97790000D01*
X59690000Y-123825000D02*
X59690000Y-113665000D01*
X152825000Y-123920000D02*
X156000000Y-123920000D01*
X59785000Y-123920000D02*
X59690000Y-123825000D01*
X105040000Y-111760000D02*
X87630000Y-111760000D01*
X124620000Y-79840000D02*
X121920000Y-82540000D01*
X59690000Y-113665000D02*
X62865000Y-110490000D01*
X121920000Y-94880000D02*
X105040000Y-111760000D01*
X152825000Y-123920000D02*
X59785000Y-123920000D01*
X121920000Y-82540000D02*
X121920000Y-94880000D01*
%TO.N,F*%
X152825000Y-126460000D02*
X78200000Y-126460000D01*
X78200000Y-126460000D02*
X78105000Y-126365000D01*
X152825000Y-126460000D02*
X156000000Y-126460000D01*
%TO.N,~{CLOCK}*%
X153035000Y-93345000D02*
X152400000Y-93980000D01*
X152400000Y-93980000D02*
X152400000Y-95885000D01*
X155575000Y-93345000D02*
X153035000Y-93345000D01*
X157480000Y-95250000D02*
X155575000Y-93345000D01*
X156000000Y-99485000D02*
X156000000Y-111220000D01*
X152400000Y-95885000D02*
X156000000Y-99485000D01*
%TO.N,FLAG_OUT_LED*%
X159385000Y-66675000D02*
X175260000Y-66675000D01*
X183345000Y-77300000D02*
X185620000Y-77300000D01*
X182245000Y-76200000D02*
X183345000Y-77300000D01*
X115400000Y-77300000D02*
X117000000Y-77300000D01*
X157480000Y-64770000D02*
X115570000Y-64770000D01*
X114300000Y-76200000D02*
X115400000Y-77300000D01*
X119000000Y-78000000D02*
X119000000Y-85460000D01*
X118300000Y-77300000D02*
X119000000Y-78000000D01*
X175260000Y-66675000D02*
X182245000Y-73660000D01*
X117000000Y-77300000D02*
X118300000Y-77300000D01*
X115570000Y-64770000D02*
X114300000Y-66040000D01*
X114300000Y-66040000D02*
X114300000Y-76200000D01*
X159385000Y-66675000D02*
X157480000Y-64770000D01*
X185620000Y-77300000D02*
X185620000Y-79840000D01*
X182245000Y-73660000D02*
X182245000Y-76200000D01*
X119000000Y-85460000D02*
X117000000Y-87460000D01*
%TO.N,Net-(U2-Pad3)*%
X117000000Y-79840000D02*
X117000000Y-82380000D01*
%TO.N,Net-(U3-Pad13)*%
X151595000Y-77300000D02*
X147620000Y-77300000D01*
X163620000Y-129000000D02*
X162020000Y-129000000D01*
X153035000Y-78740000D02*
X151595000Y-77300000D01*
X160020000Y-95885000D02*
X153035000Y-88900000D01*
X153035000Y-88900000D02*
X153035000Y-78740000D01*
X162020000Y-129000000D02*
X160020000Y-127000000D01*
X160020000Y-127000000D02*
X160020000Y-95885000D01*
%TO.N,Net-(U3-Pad10)*%
X151130000Y-111125000D02*
X151130000Y-85725000D01*
X153765000Y-113760000D02*
X151130000Y-111125000D01*
X156000000Y-113760000D02*
X153765000Y-113760000D01*
X151130000Y-85725000D02*
X150325000Y-84920000D01*
X150325000Y-84920000D02*
X147620000Y-84920000D01*
%TO.N,Net-(U4-Pad1)*%
X163620000Y-126460000D02*
X165005000Y-126460000D01*
X167545000Y-123920000D02*
X170000000Y-123920000D01*
X178000000Y-74760000D02*
X178000000Y-77300000D01*
X165005000Y-126460000D02*
X167545000Y-123920000D01*
%TO.N,Net-(U4-Pad3)*%
X178000000Y-79840000D02*
X178000000Y-84920000D01*
%TO.N,Net-(U5-Pad11)*%
X164920000Y-123920000D02*
X163620000Y-123920000D01*
X170000000Y-118840000D02*
X164920000Y-123920000D01*
%TO.N,0*%
X67310000Y-131445000D02*
X67310000Y-133810000D01*
X67310000Y-133810000D02*
X78500000Y-145000000D01*
X78500000Y-145000000D02*
X80000000Y-145000000D01*
D26*
X59690000Y-131445000D02*
X67310000Y-131445000D01*
D25*
%TO.N,1*%
X74930000Y-131445000D02*
X74930000Y-135070000D01*
D26*
X69850000Y-131445000D02*
X74930000Y-131445000D01*
D25*
X82540000Y-143040000D02*
X82540000Y-145000000D01*
X74930000Y-135430000D02*
X74930000Y-135070000D01*
X82540000Y-143040000D02*
X74930000Y-135430000D01*
%TO.N,4*%
X85080000Y-141980000D02*
X82550000Y-139450000D01*
X82550000Y-131445000D02*
X82550000Y-139450000D01*
D26*
X82550000Y-131445000D02*
X77470000Y-131445000D01*
D25*
X85080000Y-145000000D02*
X85080000Y-141980000D01*
%TO.N,7*%
X87620000Y-141620000D02*
X87620000Y-145000000D01*
X85090000Y-139090000D02*
X87620000Y-141620000D01*
X85090000Y-131445000D02*
X85090000Y-139090000D01*
%TO.N,CR*%
X147620000Y-90000000D02*
X147620000Y-111460000D01*
D26*
%TO.N,LF*%
X146050000Y-131445000D02*
X150495000Y-131445000D01*
D25*
X137000000Y-142000000D02*
X116500000Y-142000000D01*
X115560000Y-145000000D02*
X115560000Y-142940000D01*
D26*
X150495000Y-131445000D02*
X151130000Y-131445000D01*
D25*
X146050000Y-132950000D02*
X137000000Y-142000000D01*
X146050000Y-131445000D02*
X146050000Y-132950000D01*
X115560000Y-142940000D02*
X116500000Y-142000000D01*
D26*
%TO.N,DIV*%
X140970000Y-131445000D02*
X143510000Y-131445000D01*
D25*
X140970000Y-131445000D02*
X140970000Y-134030000D01*
X113020000Y-142480000D02*
X113020000Y-145000000D01*
X140970000Y-134030000D02*
X134000000Y-141000000D01*
X114500000Y-141000000D02*
X113020000Y-142480000D01*
X134000000Y-141000000D02*
X114500000Y-141000000D01*
%TO.N,X*%
X133350000Y-131445000D02*
X124795000Y-140000000D01*
D26*
X133350000Y-131445000D02*
X138430000Y-131445000D01*
D25*
X110480000Y-141520000D02*
X110480000Y-145000000D01*
X124795000Y-140000000D02*
X112000000Y-140000000D01*
X112000000Y-140000000D02*
X110480000Y-141520000D01*
%TO.N,9*%
X123500000Y-139000000D02*
X109000000Y-139000000D01*
X109000000Y-139000000D02*
X107940000Y-140060000D01*
X128270000Y-134230000D02*
X123500000Y-139000000D01*
X107940000Y-140060000D02*
X107940000Y-145000000D01*
D26*
X128270000Y-131445000D02*
X130810000Y-131445000D01*
D25*
X128270000Y-131445000D02*
X128270000Y-134230000D01*
D26*
%TO.N,6*%
X123190000Y-131445000D02*
X125730000Y-131445000D01*
D25*
X123190000Y-132745000D02*
X117935000Y-138000000D01*
X107300000Y-138000000D02*
X105400000Y-139900000D01*
X105400000Y-139900000D02*
X105400000Y-145000000D01*
X117935000Y-138000000D02*
X107300000Y-138000000D01*
X123190000Y-131445000D02*
X123190000Y-132745000D01*
%TO.N,3*%
X118110000Y-131445000D02*
X118110000Y-133890000D01*
X104500000Y-137000000D02*
X102860000Y-138640000D01*
X118110000Y-133890000D02*
X115000000Y-137000000D01*
X115000000Y-137000000D02*
X104500000Y-137000000D01*
D26*
X118110000Y-131445000D02*
X120650000Y-131445000D01*
D25*
X102860000Y-138640000D02*
X102860000Y-145000000D01*
%TO.N,-*%
X100320000Y-137680000D02*
X100320000Y-145000000D01*
X113030000Y-131445000D02*
X113030000Y-133970000D01*
X111000000Y-136000000D02*
X102000000Y-136000000D01*
X113030000Y-133970000D02*
X111000000Y-136000000D01*
D26*
X113030000Y-131445000D02*
X115570000Y-131445000D01*
D25*
X102000000Y-136000000D02*
X100320000Y-137680000D01*
%TO.N,+*%
X97780000Y-137720000D02*
X97780000Y-145000000D01*
X107950000Y-133050000D02*
X106000000Y-135000000D01*
X107950000Y-131445000D02*
X107950000Y-133050000D01*
D26*
X109855000Y-131445000D02*
X110490000Y-131445000D01*
D25*
X100500000Y-135000000D02*
X97780000Y-137720000D01*
X106000000Y-135000000D02*
X100500000Y-135000000D01*
D26*
X107950000Y-131445000D02*
X109855000Y-131445000D01*
D25*
%TO.N,2*%
X95000000Y-144760000D02*
X95240000Y-145000000D01*
D26*
X100330000Y-131445000D02*
X105410000Y-131445000D01*
D25*
X100330000Y-131445000D02*
X100330000Y-132670000D01*
X95000000Y-138000000D02*
X95000000Y-144760000D01*
X100330000Y-132670000D02*
X95000000Y-138000000D01*
%TO.N,5*%
X92700000Y-136200000D02*
X92700000Y-145000000D01*
X95250000Y-131445000D02*
X95250000Y-133250000D01*
D26*
X97790000Y-131445000D02*
X95250000Y-131445000D01*
D25*
X95250000Y-133250000D02*
X92500000Y-136000000D01*
X92500000Y-136000000D02*
X92700000Y-136200000D01*
%TO.N,8*%
X90170000Y-131445000D02*
X90170000Y-144990000D01*
X90170000Y-144990000D02*
X90160000Y-145000000D01*
D26*
X92710000Y-131445000D02*
X87630000Y-131445000D01*
D25*
%TO.N,Net-(U2-Pad8)*%
X135425000Y-79840000D02*
X140000000Y-79840000D01*
X133985000Y-97790000D02*
X133985000Y-81280000D01*
X126365000Y-99695000D02*
X132080000Y-99695000D01*
X133985000Y-81280000D02*
X135425000Y-79840000D01*
X124620000Y-97950000D02*
X126365000Y-99695000D01*
X124620000Y-90000000D02*
X124620000Y-97950000D01*
X132080000Y-99695000D02*
X133985000Y-97790000D01*
%TO.N,Net-(U2-Pad11)*%
X124620000Y-82380000D02*
X129075000Y-82380000D01*
X134155000Y-77300000D02*
X140000000Y-77300000D01*
X129075000Y-82380000D02*
X134155000Y-77300000D01*
%TD*%
%TA.AperFunction,Conductor*%
%TO.N,GND*%
G36*
X168529512Y-128020002D02*
G01*
X168576005Y-128073658D01*
X168586109Y-128143932D01*
X168564604Y-128198271D01*
X168466069Y-128338993D01*
X168460586Y-128348489D01*
X168368510Y-128545947D01*
X168364764Y-128556239D01*
X168318606Y-128728503D01*
X168318942Y-128742599D01*
X168326884Y-128746000D01*
X170128000Y-128746000D01*
X170196121Y-128766002D01*
X170242614Y-128819658D01*
X170254000Y-128872000D01*
X170254000Y-130289885D01*
X170258475Y-130305124D01*
X170259865Y-130306329D01*
X170267548Y-130308000D01*
X170454365Y-130308000D01*
X170459830Y-130307762D01*
X170622519Y-130293528D01*
X170633312Y-130291625D01*
X170843761Y-130235236D01*
X170854053Y-130231490D01*
X171051511Y-130139414D01*
X171061007Y-130133931D01*
X171239467Y-130008972D01*
X171247875Y-130001916D01*
X171284905Y-129964886D01*
X171347217Y-129930860D01*
X171418032Y-129935925D01*
X171474868Y-129978472D01*
X171499679Y-130044992D01*
X171500000Y-130053981D01*
X171500000Y-135500000D01*
X172500000Y-136500000D01*
X199491500Y-136500000D01*
X199491500Y-149365500D01*
X199471498Y-149433621D01*
X199417842Y-149480114D01*
X199365500Y-149491500D01*
X64500000Y-149491500D01*
X64500000Y-147797386D01*
X148067759Y-147797386D01*
X148075216Y-147807753D01*
X148314935Y-148001874D01*
X148320272Y-148005751D01*
X148640685Y-148213830D01*
X148646394Y-148217127D01*
X148986811Y-148390578D01*
X148992836Y-148393260D01*
X149349502Y-148530171D01*
X149355784Y-148532212D01*
X149724816Y-148631094D01*
X149731266Y-148632465D01*
X150108629Y-148692234D01*
X150115167Y-148692920D01*
X150496699Y-148712916D01*
X150503301Y-148712916D01*
X150884833Y-148692920D01*
X150891371Y-148692234D01*
X151268734Y-148632465D01*
X151275184Y-148631094D01*
X151644216Y-148532212D01*
X151650498Y-148530171D01*
X152007164Y-148393260D01*
X152013189Y-148390578D01*
X152353606Y-148217127D01*
X152359315Y-148213830D01*
X152679728Y-148005751D01*
X152685065Y-148001874D01*
X152923835Y-147808522D01*
X152931527Y-147797386D01*
X192567759Y-147797386D01*
X192575216Y-147807753D01*
X192814935Y-148001874D01*
X192820272Y-148005751D01*
X193140685Y-148213830D01*
X193146394Y-148217127D01*
X193486811Y-148390578D01*
X193492836Y-148393260D01*
X193849502Y-148530171D01*
X193855784Y-148532212D01*
X194224816Y-148631094D01*
X194231266Y-148632465D01*
X194608629Y-148692234D01*
X194615167Y-148692920D01*
X194996699Y-148712916D01*
X195003301Y-148712916D01*
X195384833Y-148692920D01*
X195391371Y-148692234D01*
X195768734Y-148632465D01*
X195775184Y-148631094D01*
X196144216Y-148532212D01*
X196150498Y-148530171D01*
X196507164Y-148393260D01*
X196513189Y-148390578D01*
X196853606Y-148217127D01*
X196859315Y-148213830D01*
X197179728Y-148005751D01*
X197185065Y-148001874D01*
X197423835Y-147808522D01*
X197432300Y-147796267D01*
X197425966Y-147785176D01*
X195012812Y-145372022D01*
X194998868Y-145364408D01*
X194997035Y-145364539D01*
X194990420Y-145368790D01*
X192574900Y-147784310D01*
X192567759Y-147797386D01*
X152931527Y-147797386D01*
X152932300Y-147796267D01*
X152925966Y-147785176D01*
X150512812Y-145372022D01*
X150498868Y-145364408D01*
X150497035Y-145364539D01*
X150490420Y-145368790D01*
X148074900Y-147784310D01*
X148067759Y-147797386D01*
X64500000Y-147797386D01*
X64500000Y-145894669D01*
X73642001Y-145894669D01*
X73642371Y-145901490D01*
X73647895Y-145952352D01*
X73651521Y-145967604D01*
X73696676Y-146088054D01*
X73705214Y-146103649D01*
X73781715Y-146205724D01*
X73794276Y-146218285D01*
X73896351Y-146294786D01*
X73911946Y-146303324D01*
X74032394Y-146348478D01*
X74047649Y-146352105D01*
X74098514Y-146357631D01*
X74105328Y-146358000D01*
X74727885Y-146358000D01*
X74743124Y-146353525D01*
X74744329Y-146352135D01*
X74746000Y-146344452D01*
X74746000Y-145272115D01*
X74741525Y-145256876D01*
X74740135Y-145255671D01*
X74732452Y-145254000D01*
X73660116Y-145254000D01*
X73644877Y-145258475D01*
X73643672Y-145259865D01*
X73642001Y-145267548D01*
X73642001Y-145894669D01*
X64500000Y-145894669D01*
X64500000Y-136000000D01*
X65947810Y-136000000D01*
X66015931Y-136020002D01*
X66036905Y-136036905D01*
X73709851Y-143709851D01*
X73743877Y-143772163D01*
X73738812Y-143842978D01*
X73721583Y-143874510D01*
X73705214Y-143896352D01*
X73696676Y-143911946D01*
X73651522Y-144032394D01*
X73647895Y-144047649D01*
X73642369Y-144098514D01*
X73642000Y-144105328D01*
X73642000Y-144727885D01*
X73646475Y-144743124D01*
X73647865Y-144744329D01*
X73655548Y-144746000D01*
X74746000Y-144746000D01*
X75254000Y-145254000D01*
X75254000Y-146339884D01*
X75258475Y-146355123D01*
X75259865Y-146356328D01*
X75267548Y-146357999D01*
X75894669Y-146357999D01*
X75901490Y-146357629D01*
X75952352Y-146352105D01*
X75967604Y-146348479D01*
X76088054Y-146303324D01*
X76103648Y-146294786D01*
X76125490Y-146278417D01*
X76191997Y-146253570D01*
X76261379Y-146268624D01*
X76290149Y-146290149D01*
X77000000Y-147000000D01*
X121000000Y-147000000D01*
X122996699Y-145003301D01*
X146787084Y-145003301D01*
X146807080Y-145384833D01*
X146807766Y-145391371D01*
X146867535Y-145768734D01*
X146868906Y-145775184D01*
X146967788Y-146144216D01*
X146969829Y-146150498D01*
X147106740Y-146507164D01*
X147109422Y-146513189D01*
X147282872Y-146853603D01*
X147286169Y-146859313D01*
X147494253Y-147179735D01*
X147498123Y-147185061D01*
X147691478Y-147423835D01*
X147703733Y-147432300D01*
X147714824Y-147425966D01*
X150127978Y-145012812D01*
X150134356Y-145001132D01*
X150864408Y-145001132D01*
X150864539Y-145002965D01*
X150868790Y-145009580D01*
X153284310Y-147425100D01*
X153297386Y-147432241D01*
X153307753Y-147424784D01*
X153501877Y-147185061D01*
X153505747Y-147179735D01*
X153713831Y-146859313D01*
X153717128Y-146853603D01*
X153890578Y-146513189D01*
X153893260Y-146507164D01*
X154030171Y-146150498D01*
X154032212Y-146144216D01*
X154131094Y-145775184D01*
X154132465Y-145768734D01*
X154192234Y-145391371D01*
X154192920Y-145384833D01*
X154212916Y-145003301D01*
X191287084Y-145003301D01*
X191307080Y-145384833D01*
X191307766Y-145391371D01*
X191367535Y-145768734D01*
X191368906Y-145775184D01*
X191467788Y-146144216D01*
X191469829Y-146150498D01*
X191606740Y-146507164D01*
X191609422Y-146513189D01*
X191782872Y-146853603D01*
X191786169Y-146859313D01*
X191994253Y-147179735D01*
X191998123Y-147185061D01*
X192191478Y-147423835D01*
X192203733Y-147432300D01*
X192214824Y-147425966D01*
X194627978Y-145012812D01*
X194634356Y-145001132D01*
X195364408Y-145001132D01*
X195364539Y-145002965D01*
X195368790Y-145009580D01*
X197784310Y-147425100D01*
X197797386Y-147432241D01*
X197807753Y-147424784D01*
X198001877Y-147185061D01*
X198005747Y-147179735D01*
X198213831Y-146859313D01*
X198217128Y-146853603D01*
X198390578Y-146513189D01*
X198393260Y-146507164D01*
X198530171Y-146150498D01*
X198532212Y-146144216D01*
X198631094Y-145775184D01*
X198632465Y-145768734D01*
X198692234Y-145391371D01*
X198692920Y-145384833D01*
X198712916Y-145003301D01*
X198712916Y-144996699D01*
X198692920Y-144615167D01*
X198692234Y-144608629D01*
X198632465Y-144231266D01*
X198631094Y-144224816D01*
X198532212Y-143855784D01*
X198530171Y-143849502D01*
X198393260Y-143492836D01*
X198390578Y-143486811D01*
X198217128Y-143146397D01*
X198213831Y-143140687D01*
X198005747Y-142820265D01*
X198001877Y-142814939D01*
X197808522Y-142576165D01*
X197796267Y-142567700D01*
X197785176Y-142574034D01*
X195372022Y-144987188D01*
X195364408Y-145001132D01*
X194634356Y-145001132D01*
X194635592Y-144998868D01*
X194635461Y-144997035D01*
X194631210Y-144990420D01*
X192215690Y-142574900D01*
X192202614Y-142567759D01*
X192192247Y-142575216D01*
X191998123Y-142814939D01*
X191994253Y-142820265D01*
X191786169Y-143140687D01*
X191782872Y-143146397D01*
X191609422Y-143486811D01*
X191606740Y-143492836D01*
X191469829Y-143849502D01*
X191467788Y-143855784D01*
X191368906Y-144224816D01*
X191367535Y-144231266D01*
X191307766Y-144608629D01*
X191307080Y-144615167D01*
X191287084Y-144996699D01*
X191287084Y-145003301D01*
X154212916Y-145003301D01*
X154212916Y-144996699D01*
X154192920Y-144615167D01*
X154192234Y-144608629D01*
X154132465Y-144231266D01*
X154131094Y-144224816D01*
X154032212Y-143855784D01*
X154030171Y-143849502D01*
X153893260Y-143492836D01*
X153890578Y-143486811D01*
X153717128Y-143146397D01*
X153713831Y-143140687D01*
X153505747Y-142820265D01*
X153501877Y-142814939D01*
X153308522Y-142576165D01*
X153296267Y-142567700D01*
X153285176Y-142574034D01*
X150872022Y-144987188D01*
X150864408Y-145001132D01*
X150134356Y-145001132D01*
X150135592Y-144998868D01*
X150135461Y-144997035D01*
X150131210Y-144990420D01*
X147715690Y-142574900D01*
X147702614Y-142567759D01*
X147692247Y-142575216D01*
X147498123Y-142814939D01*
X147494253Y-142820265D01*
X147286169Y-143140687D01*
X147282872Y-143146397D01*
X147109422Y-143486811D01*
X147106740Y-143492836D01*
X146969829Y-143849502D01*
X146967788Y-143855784D01*
X146868906Y-144224816D01*
X146867535Y-144231266D01*
X146807766Y-144608629D01*
X146807080Y-144615167D01*
X146787084Y-144996699D01*
X146787084Y-145003301D01*
X122996699Y-145003301D01*
X124963095Y-143036905D01*
X125025407Y-143002879D01*
X125052190Y-143000000D01*
X138500000Y-143000000D01*
X139296267Y-142203733D01*
X148067700Y-142203733D01*
X148074034Y-142214824D01*
X150487188Y-144627978D01*
X150501132Y-144635592D01*
X150502965Y-144635461D01*
X150509580Y-144631210D01*
X152925100Y-142215690D01*
X152931630Y-142203733D01*
X192567700Y-142203733D01*
X192574034Y-142214824D01*
X194987188Y-144627978D01*
X195001132Y-144635592D01*
X195002965Y-144635461D01*
X195009580Y-144631210D01*
X197425100Y-142215690D01*
X197432241Y-142202614D01*
X197424784Y-142192247D01*
X197185065Y-141998126D01*
X197179728Y-141994249D01*
X196859315Y-141786170D01*
X196853606Y-141782873D01*
X196513189Y-141609422D01*
X196507164Y-141606740D01*
X196150498Y-141469829D01*
X196144216Y-141467788D01*
X195775184Y-141368906D01*
X195768734Y-141367535D01*
X195391371Y-141307766D01*
X195384833Y-141307080D01*
X195003301Y-141287084D01*
X194996699Y-141287084D01*
X194615167Y-141307080D01*
X194608629Y-141307766D01*
X194231266Y-141367535D01*
X194224816Y-141368906D01*
X193855784Y-141467788D01*
X193849502Y-141469829D01*
X193492836Y-141606740D01*
X193486811Y-141609422D01*
X193146397Y-141782872D01*
X193140687Y-141786169D01*
X192820265Y-141994253D01*
X192814939Y-141998123D01*
X192576165Y-142191478D01*
X192567700Y-142203733D01*
X152931630Y-142203733D01*
X152932241Y-142202614D01*
X152924784Y-142192247D01*
X152685065Y-141998126D01*
X152679728Y-141994249D01*
X152359315Y-141786170D01*
X152353606Y-141782873D01*
X152013189Y-141609422D01*
X152007164Y-141606740D01*
X151650498Y-141469829D01*
X151644216Y-141467788D01*
X151275184Y-141368906D01*
X151268734Y-141367535D01*
X150891371Y-141307766D01*
X150884833Y-141307080D01*
X150503301Y-141287084D01*
X150496699Y-141287084D01*
X150115167Y-141307080D01*
X150108629Y-141307766D01*
X149731266Y-141367535D01*
X149724816Y-141368906D01*
X149355784Y-141467788D01*
X149349502Y-141469829D01*
X148992836Y-141606740D01*
X148986811Y-141609422D01*
X148646397Y-141782872D01*
X148640687Y-141786169D01*
X148320265Y-141994253D01*
X148314939Y-141998123D01*
X148076165Y-142191478D01*
X148067700Y-142203733D01*
X139296267Y-142203733D01*
X146963095Y-134536905D01*
X147025407Y-134502879D01*
X147052190Y-134500000D01*
X165000000Y-134500000D01*
X166500000Y-133000000D01*
X166500000Y-129266522D01*
X168317273Y-129266522D01*
X168364764Y-129443761D01*
X168368510Y-129454053D01*
X168460586Y-129651511D01*
X168466069Y-129661007D01*
X168591028Y-129839467D01*
X168598084Y-129847875D01*
X168752125Y-130001916D01*
X168760533Y-130008972D01*
X168938993Y-130133931D01*
X168948489Y-130139414D01*
X169145947Y-130231490D01*
X169156239Y-130235236D01*
X169366688Y-130291625D01*
X169377481Y-130293528D01*
X169540170Y-130307762D01*
X169545635Y-130308000D01*
X169727885Y-130308000D01*
X169743124Y-130303525D01*
X169744329Y-130302135D01*
X169746000Y-130294452D01*
X169746000Y-129272115D01*
X169741525Y-129256876D01*
X169740135Y-129255671D01*
X169732452Y-129254000D01*
X168332033Y-129254000D01*
X168318502Y-129257973D01*
X168317273Y-129266522D01*
X166500000Y-129266522D01*
X166500000Y-128552190D01*
X166520002Y-128484069D01*
X166536905Y-128463095D01*
X166963095Y-128036905D01*
X167025407Y-128002879D01*
X167052190Y-128000000D01*
X168461391Y-128000000D01*
X168529512Y-128020002D01*
G37*
%TD.AperFunction*%
%TD*%
%TA.AperFunction,Conductor*%
%TO.N,GND*%
G36*
X199433621Y-50528502D02*
G01*
X199480114Y-50582158D01*
X199491500Y-50634500D01*
X199491500Y-149365500D01*
X199471498Y-149433621D01*
X199417842Y-149480114D01*
X199365500Y-149491500D01*
X190000000Y-149491500D01*
X190000000Y-147797386D01*
X192567759Y-147797386D01*
X192575216Y-147807753D01*
X192814935Y-148001874D01*
X192820272Y-148005751D01*
X193140685Y-148213830D01*
X193146394Y-148217127D01*
X193486811Y-148390578D01*
X193492836Y-148393260D01*
X193849502Y-148530171D01*
X193855784Y-148532212D01*
X194224816Y-148631094D01*
X194231266Y-148632465D01*
X194608629Y-148692234D01*
X194615167Y-148692920D01*
X194996699Y-148712916D01*
X195003301Y-148712916D01*
X195384833Y-148692920D01*
X195391371Y-148692234D01*
X195768734Y-148632465D01*
X195775184Y-148631094D01*
X196144216Y-148532212D01*
X196150498Y-148530171D01*
X196507164Y-148393260D01*
X196513189Y-148390578D01*
X196853606Y-148217127D01*
X196859315Y-148213830D01*
X197179728Y-148005751D01*
X197185065Y-148001874D01*
X197423835Y-147808522D01*
X197432300Y-147796267D01*
X197425966Y-147785176D01*
X195012812Y-145372022D01*
X194998868Y-145364408D01*
X194997035Y-145364539D01*
X194990420Y-145368790D01*
X192574900Y-147784310D01*
X192567759Y-147797386D01*
X190000000Y-147797386D01*
X190000000Y-145003301D01*
X191287084Y-145003301D01*
X191307080Y-145384833D01*
X191307766Y-145391371D01*
X191367535Y-145768734D01*
X191368906Y-145775184D01*
X191467788Y-146144216D01*
X191469829Y-146150498D01*
X191606740Y-146507164D01*
X191609422Y-146513189D01*
X191782872Y-146853603D01*
X191786169Y-146859313D01*
X191994253Y-147179735D01*
X191998123Y-147185061D01*
X192191478Y-147423835D01*
X192203733Y-147432300D01*
X192214824Y-147425966D01*
X194627978Y-145012812D01*
X194634356Y-145001132D01*
X195364408Y-145001132D01*
X195364539Y-145002965D01*
X195368790Y-145009580D01*
X197784310Y-147425100D01*
X197797386Y-147432241D01*
X197807753Y-147424784D01*
X198001877Y-147185061D01*
X198005747Y-147179735D01*
X198213831Y-146859313D01*
X198217128Y-146853603D01*
X198390578Y-146513189D01*
X198393260Y-146507164D01*
X198530171Y-146150498D01*
X198532212Y-146144216D01*
X198631094Y-145775184D01*
X198632465Y-145768734D01*
X198692234Y-145391371D01*
X198692920Y-145384833D01*
X198712916Y-145003301D01*
X198712916Y-144996699D01*
X198692920Y-144615167D01*
X198692234Y-144608629D01*
X198632465Y-144231266D01*
X198631094Y-144224816D01*
X198532212Y-143855784D01*
X198530171Y-143849502D01*
X198393260Y-143492836D01*
X198390578Y-143486811D01*
X198217128Y-143146397D01*
X198213831Y-143140687D01*
X198005747Y-142820265D01*
X198001877Y-142814939D01*
X197808522Y-142576165D01*
X197796267Y-142567700D01*
X197785176Y-142574034D01*
X195372022Y-144987188D01*
X195364408Y-145001132D01*
X194634356Y-145001132D01*
X194635592Y-144998868D01*
X194635461Y-144997035D01*
X194631210Y-144990420D01*
X192215690Y-142574900D01*
X192202614Y-142567759D01*
X192192247Y-142575216D01*
X191998123Y-142814939D01*
X191994253Y-142820265D01*
X191786169Y-143140687D01*
X191782872Y-143146397D01*
X191609422Y-143486811D01*
X191606740Y-143492836D01*
X191469829Y-143849502D01*
X191467788Y-143855784D01*
X191368906Y-144224816D01*
X191367535Y-144231266D01*
X191307766Y-144608629D01*
X191307080Y-144615167D01*
X191287084Y-144996699D01*
X191287084Y-145003301D01*
X190000000Y-145003301D01*
X190000000Y-142203733D01*
X192567700Y-142203733D01*
X192574034Y-142214824D01*
X194987188Y-144627978D01*
X195001132Y-144635592D01*
X195002965Y-144635461D01*
X195009580Y-144631210D01*
X197425100Y-142215690D01*
X197432241Y-142202614D01*
X197424784Y-142192247D01*
X197185065Y-141998126D01*
X197179728Y-141994249D01*
X196859315Y-141786170D01*
X196853606Y-141782873D01*
X196513189Y-141609422D01*
X196507164Y-141606740D01*
X196150498Y-141469829D01*
X196144216Y-141467788D01*
X195775184Y-141368906D01*
X195768734Y-141367535D01*
X195391371Y-141307766D01*
X195384833Y-141307080D01*
X195003301Y-141287084D01*
X194996699Y-141287084D01*
X194615167Y-141307080D01*
X194608629Y-141307766D01*
X194231266Y-141367535D01*
X194224816Y-141368906D01*
X193855784Y-141467788D01*
X193849502Y-141469829D01*
X193492836Y-141606740D01*
X193486811Y-141609422D01*
X193146397Y-141782872D01*
X193140687Y-141786169D01*
X192820265Y-141994253D01*
X192814939Y-141998123D01*
X192576165Y-142191478D01*
X192567700Y-142203733D01*
X190000000Y-142203733D01*
X190000000Y-138000000D01*
X197000000Y-138000000D01*
X197000000Y-74000000D01*
X196000000Y-73000000D01*
X190052190Y-73000000D01*
X189984069Y-72979998D01*
X189963095Y-72963095D01*
X188036905Y-71036905D01*
X188002879Y-70974593D01*
X188000000Y-70947810D01*
X188000000Y-67000000D01*
X186000000Y-65000000D01*
X161052190Y-65000000D01*
X160984069Y-64979998D01*
X160963095Y-64963095D01*
X159000000Y-63000000D01*
X50508500Y-63000000D01*
X50508500Y-58297386D01*
X53067759Y-58297386D01*
X53075216Y-58307753D01*
X53314935Y-58501874D01*
X53320272Y-58505751D01*
X53640685Y-58713830D01*
X53646394Y-58717127D01*
X53986811Y-58890578D01*
X53992836Y-58893260D01*
X54349502Y-59030171D01*
X54355784Y-59032212D01*
X54724816Y-59131094D01*
X54731266Y-59132465D01*
X55108629Y-59192234D01*
X55115167Y-59192920D01*
X55496699Y-59212916D01*
X55503301Y-59212916D01*
X55884833Y-59192920D01*
X55891371Y-59192234D01*
X56268734Y-59132465D01*
X56275184Y-59131094D01*
X56644216Y-59032212D01*
X56650498Y-59030171D01*
X57007164Y-58893260D01*
X57013189Y-58890578D01*
X57353606Y-58717127D01*
X57359315Y-58713830D01*
X57679728Y-58505751D01*
X57685065Y-58501874D01*
X57923835Y-58308522D01*
X57932300Y-58296267D01*
X57925966Y-58285176D01*
X57635232Y-57994442D01*
X148067759Y-57994442D01*
X148075216Y-58004809D01*
X148314935Y-58198930D01*
X148320272Y-58202807D01*
X148640685Y-58410886D01*
X148646394Y-58414183D01*
X148986811Y-58587634D01*
X148992836Y-58590316D01*
X149349502Y-58727227D01*
X149355784Y-58729268D01*
X149724816Y-58828150D01*
X149731266Y-58829521D01*
X150108629Y-58889290D01*
X150115167Y-58889976D01*
X150496699Y-58909972D01*
X150503301Y-58909972D01*
X150884833Y-58889976D01*
X150891371Y-58889290D01*
X151268734Y-58829521D01*
X151275184Y-58828150D01*
X151644216Y-58729268D01*
X151650498Y-58727227D01*
X152007164Y-58590316D01*
X152013189Y-58587634D01*
X152353606Y-58414183D01*
X152359315Y-58410886D01*
X152679728Y-58202807D01*
X152685065Y-58198930D01*
X152923835Y-58005578D01*
X152932300Y-57993323D01*
X152925966Y-57982232D01*
X152741120Y-57797386D01*
X192567759Y-57797386D01*
X192575216Y-57807753D01*
X192814935Y-58001874D01*
X192820272Y-58005751D01*
X193140685Y-58213830D01*
X193146394Y-58217127D01*
X193486811Y-58390578D01*
X193492836Y-58393260D01*
X193849502Y-58530171D01*
X193855784Y-58532212D01*
X194224816Y-58631094D01*
X194231266Y-58632465D01*
X194608629Y-58692234D01*
X194615167Y-58692920D01*
X194996699Y-58712916D01*
X195003301Y-58712916D01*
X195384833Y-58692920D01*
X195391371Y-58692234D01*
X195768734Y-58632465D01*
X195775184Y-58631094D01*
X196144216Y-58532212D01*
X196150498Y-58530171D01*
X196507164Y-58393260D01*
X196513189Y-58390578D01*
X196853606Y-58217127D01*
X196859315Y-58213830D01*
X197179728Y-58005751D01*
X197185065Y-58001874D01*
X197423835Y-57808522D01*
X197432300Y-57796267D01*
X197425966Y-57785176D01*
X195012812Y-55372022D01*
X194998868Y-55364408D01*
X194997035Y-55364539D01*
X194990420Y-55368790D01*
X192574900Y-57784310D01*
X192567759Y-57797386D01*
X152741120Y-57797386D01*
X150512812Y-55569078D01*
X150498868Y-55561464D01*
X150497035Y-55561595D01*
X150490420Y-55565846D01*
X148074900Y-57981366D01*
X148067759Y-57994442D01*
X57635232Y-57994442D01*
X55512812Y-55872022D01*
X55498868Y-55864408D01*
X55497035Y-55864539D01*
X55490420Y-55868790D01*
X53074900Y-58284310D01*
X53067759Y-58297386D01*
X50508500Y-58297386D01*
X50508500Y-55503301D01*
X51787084Y-55503301D01*
X51807080Y-55884833D01*
X51807766Y-55891371D01*
X51867535Y-56268734D01*
X51868906Y-56275184D01*
X51967788Y-56644216D01*
X51969829Y-56650498D01*
X52106740Y-57007164D01*
X52109422Y-57013189D01*
X52282872Y-57353603D01*
X52286169Y-57359313D01*
X52494253Y-57679735D01*
X52498123Y-57685061D01*
X52691478Y-57923835D01*
X52703733Y-57932300D01*
X52714824Y-57925966D01*
X55127978Y-55512812D01*
X55134356Y-55501132D01*
X55864408Y-55501132D01*
X55864539Y-55502965D01*
X55868790Y-55509580D01*
X58284310Y-57925100D01*
X58297386Y-57932241D01*
X58307753Y-57924784D01*
X58501877Y-57685061D01*
X58505747Y-57679735D01*
X58713831Y-57359313D01*
X58717128Y-57353603D01*
X58890578Y-57013189D01*
X58893260Y-57007164D01*
X59030171Y-56650498D01*
X59032212Y-56644216D01*
X59131094Y-56275184D01*
X59132465Y-56268734D01*
X59192234Y-55891371D01*
X59192920Y-55884833D01*
X59212916Y-55503301D01*
X59212916Y-55496699D01*
X59197385Y-55200357D01*
X146787084Y-55200357D01*
X146807080Y-55581889D01*
X146807766Y-55588427D01*
X146867535Y-55965790D01*
X146868906Y-55972240D01*
X146967788Y-56341272D01*
X146969829Y-56347554D01*
X147106740Y-56704220D01*
X147109422Y-56710245D01*
X147282872Y-57050659D01*
X147286169Y-57056369D01*
X147494253Y-57376791D01*
X147498123Y-57382117D01*
X147691478Y-57620891D01*
X147703733Y-57629356D01*
X147714824Y-57623022D01*
X150127978Y-55209868D01*
X150134356Y-55198188D01*
X150864408Y-55198188D01*
X150864539Y-55200021D01*
X150868790Y-55206636D01*
X153284310Y-57622156D01*
X153297386Y-57629297D01*
X153307753Y-57621840D01*
X153501877Y-57382117D01*
X153505747Y-57376791D01*
X153713831Y-57056369D01*
X153717128Y-57050659D01*
X153890578Y-56710245D01*
X153893260Y-56704220D01*
X154030171Y-56347554D01*
X154032212Y-56341272D01*
X154131094Y-55972240D01*
X154132465Y-55965790D01*
X154192234Y-55588427D01*
X154192920Y-55581889D01*
X154212916Y-55200357D01*
X154212916Y-55193755D01*
X154202934Y-55003301D01*
X191287084Y-55003301D01*
X191307080Y-55384833D01*
X191307766Y-55391371D01*
X191367535Y-55768734D01*
X191368906Y-55775184D01*
X191467788Y-56144216D01*
X191469829Y-56150498D01*
X191606740Y-56507164D01*
X191609422Y-56513189D01*
X191782872Y-56853603D01*
X191786169Y-56859313D01*
X191994253Y-57179735D01*
X191998123Y-57185061D01*
X192191478Y-57423835D01*
X192203733Y-57432300D01*
X192214824Y-57425966D01*
X194627978Y-55012812D01*
X194634356Y-55001132D01*
X195364408Y-55001132D01*
X195364539Y-55002965D01*
X195368790Y-55009580D01*
X197784310Y-57425100D01*
X197797386Y-57432241D01*
X197807753Y-57424784D01*
X198001877Y-57185061D01*
X198005747Y-57179735D01*
X198213831Y-56859313D01*
X198217128Y-56853603D01*
X198390578Y-56513189D01*
X198393260Y-56507164D01*
X198530171Y-56150498D01*
X198532212Y-56144216D01*
X198631094Y-55775184D01*
X198632465Y-55768734D01*
X198692234Y-55391371D01*
X198692920Y-55384833D01*
X198712916Y-55003301D01*
X198712916Y-54996699D01*
X198692920Y-54615167D01*
X198692234Y-54608629D01*
X198632465Y-54231266D01*
X198631094Y-54224816D01*
X198532212Y-53855784D01*
X198530171Y-53849502D01*
X198393260Y-53492836D01*
X198390578Y-53486811D01*
X198217128Y-53146397D01*
X198213831Y-53140687D01*
X198005747Y-52820265D01*
X198001877Y-52814939D01*
X197808522Y-52576165D01*
X197796267Y-52567700D01*
X197785176Y-52574034D01*
X195372022Y-54987188D01*
X195364408Y-55001132D01*
X194634356Y-55001132D01*
X194635592Y-54998868D01*
X194635461Y-54997035D01*
X194631210Y-54990420D01*
X192215690Y-52574900D01*
X192202614Y-52567759D01*
X192192247Y-52575216D01*
X191998123Y-52814939D01*
X191994253Y-52820265D01*
X191786169Y-53140687D01*
X191782872Y-53146397D01*
X191609422Y-53486811D01*
X191606740Y-53492836D01*
X191469829Y-53849502D01*
X191467788Y-53855784D01*
X191368906Y-54224816D01*
X191367535Y-54231266D01*
X191307766Y-54608629D01*
X191307080Y-54615167D01*
X191287084Y-54996699D01*
X191287084Y-55003301D01*
X154202934Y-55003301D01*
X154192920Y-54812223D01*
X154192234Y-54805685D01*
X154132465Y-54428322D01*
X154131094Y-54421872D01*
X154032212Y-54052840D01*
X154030171Y-54046558D01*
X153893260Y-53689892D01*
X153890578Y-53683867D01*
X153717128Y-53343453D01*
X153713831Y-53337743D01*
X153505747Y-53017321D01*
X153501877Y-53011995D01*
X153308522Y-52773221D01*
X153296267Y-52764756D01*
X153285176Y-52771090D01*
X150872022Y-55184244D01*
X150864408Y-55198188D01*
X150134356Y-55198188D01*
X150135592Y-55195924D01*
X150135461Y-55194091D01*
X150131210Y-55187476D01*
X147715690Y-52771956D01*
X147702614Y-52764815D01*
X147692247Y-52772272D01*
X147498123Y-53011995D01*
X147494253Y-53017321D01*
X147286169Y-53337743D01*
X147282872Y-53343453D01*
X147109422Y-53683867D01*
X147106740Y-53689892D01*
X146969829Y-54046558D01*
X146967788Y-54052840D01*
X146868906Y-54421872D01*
X146867535Y-54428322D01*
X146807766Y-54805685D01*
X146807080Y-54812223D01*
X146787084Y-55193755D01*
X146787084Y-55200357D01*
X59197385Y-55200357D01*
X59192920Y-55115167D01*
X59192234Y-55108629D01*
X59132465Y-54731266D01*
X59131094Y-54724816D01*
X59032212Y-54355784D01*
X59030171Y-54349502D01*
X58893260Y-53992836D01*
X58890578Y-53986811D01*
X58717128Y-53646397D01*
X58713831Y-53640687D01*
X58505747Y-53320265D01*
X58501877Y-53314939D01*
X58308522Y-53076165D01*
X58296267Y-53067700D01*
X58285176Y-53074034D01*
X55872022Y-55487188D01*
X55864408Y-55501132D01*
X55134356Y-55501132D01*
X55135592Y-55498868D01*
X55135461Y-55497035D01*
X55131210Y-55490420D01*
X52715690Y-53074900D01*
X52702614Y-53067759D01*
X52692247Y-53075216D01*
X52498123Y-53314939D01*
X52494253Y-53320265D01*
X52286169Y-53640687D01*
X52282872Y-53646397D01*
X52109422Y-53986811D01*
X52106740Y-53992836D01*
X51969829Y-54349502D01*
X51967788Y-54355784D01*
X51868906Y-54724816D01*
X51867535Y-54731266D01*
X51807766Y-55108629D01*
X51807080Y-55115167D01*
X51787084Y-55496699D01*
X51787084Y-55503301D01*
X50508500Y-55503301D01*
X50508500Y-52703733D01*
X53067700Y-52703733D01*
X53074034Y-52714824D01*
X55487188Y-55127978D01*
X55501132Y-55135592D01*
X55502965Y-55135461D01*
X55509580Y-55131210D01*
X57925100Y-52715690D01*
X57932241Y-52702614D01*
X57924784Y-52692247D01*
X57685065Y-52498126D01*
X57679728Y-52494249D01*
X57535812Y-52400789D01*
X148067700Y-52400789D01*
X148074034Y-52411880D01*
X150487188Y-54825034D01*
X150501132Y-54832648D01*
X150502965Y-54832517D01*
X150509580Y-54828266D01*
X152925100Y-52412746D01*
X152932241Y-52399670D01*
X152924784Y-52389303D01*
X152695625Y-52203733D01*
X192567700Y-52203733D01*
X192574034Y-52214824D01*
X194987188Y-54627978D01*
X195001132Y-54635592D01*
X195002965Y-54635461D01*
X195009580Y-54631210D01*
X197425100Y-52215690D01*
X197432241Y-52202614D01*
X197424784Y-52192247D01*
X197185065Y-51998126D01*
X197179728Y-51994249D01*
X196859315Y-51786170D01*
X196853606Y-51782873D01*
X196513189Y-51609422D01*
X196507164Y-51606740D01*
X196150498Y-51469829D01*
X196144216Y-51467788D01*
X195775184Y-51368906D01*
X195768734Y-51367535D01*
X195391371Y-51307766D01*
X195384833Y-51307080D01*
X195003301Y-51287084D01*
X194996699Y-51287084D01*
X194615167Y-51307080D01*
X194608629Y-51307766D01*
X194231266Y-51367535D01*
X194224816Y-51368906D01*
X193855784Y-51467788D01*
X193849502Y-51469829D01*
X193492836Y-51606740D01*
X193486811Y-51609422D01*
X193146397Y-51782872D01*
X193140687Y-51786169D01*
X192820265Y-51994253D01*
X192814939Y-51998123D01*
X192576165Y-52191478D01*
X192567700Y-52203733D01*
X152695625Y-52203733D01*
X152685065Y-52195182D01*
X152679728Y-52191305D01*
X152359315Y-51983226D01*
X152353606Y-51979929D01*
X152013189Y-51806478D01*
X152007164Y-51803796D01*
X151650498Y-51666885D01*
X151644216Y-51664844D01*
X151275184Y-51565962D01*
X151268734Y-51564591D01*
X150891371Y-51504822D01*
X150884833Y-51504136D01*
X150503301Y-51484140D01*
X150496699Y-51484140D01*
X150115167Y-51504136D01*
X150108629Y-51504822D01*
X149731266Y-51564591D01*
X149724816Y-51565962D01*
X149355784Y-51664844D01*
X149349502Y-51666885D01*
X148992836Y-51803796D01*
X148986811Y-51806478D01*
X148646397Y-51979928D01*
X148640687Y-51983225D01*
X148320265Y-52191309D01*
X148314939Y-52195179D01*
X148076165Y-52388534D01*
X148067700Y-52400789D01*
X57535812Y-52400789D01*
X57359315Y-52286170D01*
X57353606Y-52282873D01*
X57013189Y-52109422D01*
X57007164Y-52106740D01*
X56650498Y-51969829D01*
X56644216Y-51967788D01*
X56275184Y-51868906D01*
X56268734Y-51867535D01*
X55891371Y-51807766D01*
X55884833Y-51807080D01*
X55503301Y-51787084D01*
X55496699Y-51787084D01*
X55115167Y-51807080D01*
X55108629Y-51807766D01*
X54731266Y-51867535D01*
X54724816Y-51868906D01*
X54355784Y-51967788D01*
X54349502Y-51969829D01*
X53992836Y-52106740D01*
X53986811Y-52109422D01*
X53646397Y-52282872D01*
X53640687Y-52286169D01*
X53320265Y-52494253D01*
X53314939Y-52498123D01*
X53076165Y-52691478D01*
X53067700Y-52703733D01*
X50508500Y-52703733D01*
X50508500Y-50634500D01*
X50528502Y-50566379D01*
X50582158Y-50519886D01*
X50634500Y-50508500D01*
X199365500Y-50508500D01*
X199433621Y-50528502D01*
G37*
%TD.AperFunction*%
%TD*%
%TA.AperFunction,Conductor*%
%TO.N,GND*%
G36*
X58000000Y-52756096D02*
G01*
X57986885Y-52742981D01*
X57981966Y-52738552D01*
X57685070Y-52498130D01*
X57679727Y-52494248D01*
X57359315Y-52286170D01*
X57353606Y-52282873D01*
X57013189Y-52109422D01*
X57007164Y-52106740D01*
X56650498Y-51969829D01*
X56644216Y-51967788D01*
X56275184Y-51868906D01*
X56268734Y-51867535D01*
X55891371Y-51807766D01*
X55884833Y-51807080D01*
X55503301Y-51787084D01*
X55496699Y-51787084D01*
X55115167Y-51807080D01*
X55108629Y-51807766D01*
X54731266Y-51867535D01*
X54724816Y-51868906D01*
X54355784Y-51967788D01*
X54349502Y-51969829D01*
X53992836Y-52106740D01*
X53986811Y-52109422D01*
X53646397Y-52282872D01*
X53640687Y-52286169D01*
X53320265Y-52494253D01*
X53314939Y-52498123D01*
X53076165Y-52691478D01*
X53067700Y-52703733D01*
X53074034Y-52714824D01*
X55770115Y-55410905D01*
X55804141Y-55473217D01*
X55799076Y-55544032D01*
X55770115Y-55589095D01*
X53074900Y-58284310D01*
X53067759Y-58297386D01*
X53075216Y-58307753D01*
X53314935Y-58501874D01*
X53320272Y-58505751D01*
X53640685Y-58713830D01*
X53646394Y-58717127D01*
X53986811Y-58890578D01*
X53992836Y-58893260D01*
X54349502Y-59030171D01*
X54355784Y-59032212D01*
X54724816Y-59131094D01*
X54731266Y-59132465D01*
X55108629Y-59192234D01*
X55115167Y-59192920D01*
X55496699Y-59212916D01*
X55503301Y-59212916D01*
X55884833Y-59192920D01*
X55891371Y-59192234D01*
X56268734Y-59132465D01*
X56275184Y-59131094D01*
X56644216Y-59032212D01*
X56650498Y-59030171D01*
X57007164Y-58893260D01*
X57013189Y-58890578D01*
X57353606Y-58717127D01*
X57359315Y-58713830D01*
X57679727Y-58505752D01*
X57685070Y-58501870D01*
X57981966Y-58261448D01*
X57986885Y-58257019D01*
X58000000Y-58243904D01*
X58000000Y-89000000D01*
X59000000Y-90000000D01*
X70000000Y-90000000D01*
X71000000Y-89000000D01*
X71000000Y-88716062D01*
X71668493Y-88716062D01*
X71677789Y-88728077D01*
X71728994Y-88763931D01*
X71738489Y-88769414D01*
X71935947Y-88861490D01*
X71946239Y-88865236D01*
X72156688Y-88921625D01*
X72167481Y-88923528D01*
X72384525Y-88942517D01*
X72395475Y-88942517D01*
X72612519Y-88923528D01*
X72623312Y-88921625D01*
X72833761Y-88865236D01*
X72844053Y-88861490D01*
X73041511Y-88769414D01*
X73051006Y-88763931D01*
X73103048Y-88727491D01*
X73111424Y-88717012D01*
X73110925Y-88716062D01*
X74843493Y-88716062D01*
X74852789Y-88728077D01*
X74903994Y-88763931D01*
X74913489Y-88769414D01*
X75110947Y-88861490D01*
X75121239Y-88865236D01*
X75331688Y-88921625D01*
X75342481Y-88923528D01*
X75559525Y-88942517D01*
X75570475Y-88942517D01*
X75787519Y-88923528D01*
X75798312Y-88921625D01*
X76008761Y-88865236D01*
X76019053Y-88861490D01*
X76216511Y-88769414D01*
X76226006Y-88763931D01*
X76278048Y-88727491D01*
X76286424Y-88717012D01*
X76279356Y-88703566D01*
X75577812Y-88002022D01*
X75563868Y-87994408D01*
X75562035Y-87994539D01*
X75555420Y-87998790D01*
X74849923Y-88704287D01*
X74843493Y-88716062D01*
X73110925Y-88716062D01*
X73104356Y-88703566D01*
X72402812Y-88002022D01*
X72388868Y-87994408D01*
X72387035Y-87994539D01*
X72380420Y-87998790D01*
X71674923Y-88704287D01*
X71668493Y-88716062D01*
X71000000Y-88716062D01*
X71000000Y-88312476D01*
X71020002Y-88244355D01*
X71073658Y-88197862D01*
X71143932Y-88187758D01*
X71208512Y-88217252D01*
X71240195Y-88259227D01*
X71250584Y-88281507D01*
X71256069Y-88291006D01*
X71292509Y-88343048D01*
X71302988Y-88351424D01*
X71316434Y-88344356D01*
X72017978Y-87642812D01*
X72024356Y-87631132D01*
X72754408Y-87631132D01*
X72754539Y-87632965D01*
X72758790Y-87639580D01*
X73464287Y-88345077D01*
X73476062Y-88351507D01*
X73488077Y-88342211D01*
X73523931Y-88291006D01*
X73529414Y-88281511D01*
X73621490Y-88084053D01*
X73625236Y-88073761D01*
X73681625Y-87863312D01*
X73683528Y-87852519D01*
X73702517Y-87635475D01*
X74252483Y-87635475D01*
X74271472Y-87852519D01*
X74273375Y-87863312D01*
X74329764Y-88073761D01*
X74333510Y-88084053D01*
X74425586Y-88281511D01*
X74431069Y-88291006D01*
X74467509Y-88343048D01*
X74477988Y-88351424D01*
X74491434Y-88344356D01*
X75192978Y-87642812D01*
X75199356Y-87631132D01*
X75929408Y-87631132D01*
X75929539Y-87632965D01*
X75933790Y-87639580D01*
X76639287Y-88345077D01*
X76651062Y-88351507D01*
X76663077Y-88342211D01*
X76698931Y-88291006D01*
X76704414Y-88281511D01*
X76796490Y-88084053D01*
X76800236Y-88073761D01*
X76856625Y-87863312D01*
X76858528Y-87852519D01*
X76877517Y-87635475D01*
X76877517Y-87624525D01*
X76858528Y-87407481D01*
X76856625Y-87396688D01*
X76800236Y-87186239D01*
X76796490Y-87175947D01*
X76704414Y-86978489D01*
X76698931Y-86968994D01*
X76662491Y-86916952D01*
X76652012Y-86908576D01*
X76638566Y-86915644D01*
X75937022Y-87617188D01*
X75929408Y-87631132D01*
X75199356Y-87631132D01*
X75200592Y-87628868D01*
X75200461Y-87627035D01*
X75196210Y-87620420D01*
X74490713Y-86914923D01*
X74478938Y-86908493D01*
X74466923Y-86917789D01*
X74431069Y-86968994D01*
X74425586Y-86978489D01*
X74333510Y-87175947D01*
X74329764Y-87186239D01*
X74273375Y-87396688D01*
X74271472Y-87407481D01*
X74252483Y-87624525D01*
X74252483Y-87635475D01*
X73702517Y-87635475D01*
X73702517Y-87624525D01*
X73683528Y-87407481D01*
X73681625Y-87396688D01*
X73625236Y-87186239D01*
X73621490Y-87175947D01*
X73529414Y-86978489D01*
X73523931Y-86968994D01*
X73487491Y-86916952D01*
X73477012Y-86908576D01*
X73463566Y-86915644D01*
X72762022Y-87617188D01*
X72754408Y-87631132D01*
X72024356Y-87631132D01*
X72025592Y-87628868D01*
X72025461Y-87627035D01*
X72021210Y-87620420D01*
X71315713Y-86914923D01*
X71303938Y-86908493D01*
X71291923Y-86917789D01*
X71256069Y-86968994D01*
X71250584Y-86978493D01*
X71240195Y-87000773D01*
X71193278Y-87054059D01*
X71125001Y-87073520D01*
X71057041Y-87052978D01*
X71010975Y-86998956D01*
X71000000Y-86947524D01*
X71000000Y-86542988D01*
X71668576Y-86542988D01*
X71675644Y-86556434D01*
X72377188Y-87257978D01*
X72391132Y-87265592D01*
X72392965Y-87265461D01*
X72399580Y-87261210D01*
X73105077Y-86555713D01*
X73111507Y-86543938D01*
X73110772Y-86542988D01*
X74843576Y-86542988D01*
X74850644Y-86556434D01*
X75552188Y-87257978D01*
X75566132Y-87265592D01*
X75567965Y-87265461D01*
X75574580Y-87261210D01*
X76280077Y-86555713D01*
X76286507Y-86543938D01*
X76277211Y-86531923D01*
X76226006Y-86496069D01*
X76216511Y-86490586D01*
X76019053Y-86398510D01*
X76008761Y-86394764D01*
X75798312Y-86338375D01*
X75787519Y-86336472D01*
X75570475Y-86317483D01*
X75559525Y-86317483D01*
X75342481Y-86336472D01*
X75331688Y-86338375D01*
X75121239Y-86394764D01*
X75110947Y-86398510D01*
X74913489Y-86490586D01*
X74903994Y-86496069D01*
X74851952Y-86532509D01*
X74843576Y-86542988D01*
X73110772Y-86542988D01*
X73102211Y-86531923D01*
X73051006Y-86496069D01*
X73041511Y-86490586D01*
X72844053Y-86398510D01*
X72833761Y-86394764D01*
X72623312Y-86338375D01*
X72612519Y-86336472D01*
X72395475Y-86317483D01*
X72384525Y-86317483D01*
X72167481Y-86336472D01*
X72156688Y-86338375D01*
X71946239Y-86394764D01*
X71935947Y-86398510D01*
X71738489Y-86490586D01*
X71728994Y-86496069D01*
X71676952Y-86532509D01*
X71668576Y-86542988D01*
X71000000Y-86542988D01*
X71000000Y-85052190D01*
X71020002Y-84984069D01*
X71036905Y-84963095D01*
X72963095Y-83036905D01*
X73025407Y-83002879D01*
X73052190Y-83000000D01*
X83947810Y-83000000D01*
X84015931Y-83020002D01*
X84036905Y-83036905D01*
X90000000Y-89000000D01*
X90566604Y-89000000D01*
X90634725Y-89020002D01*
X90681218Y-89073658D01*
X90691322Y-89143932D01*
X90667288Y-89197692D01*
X90669187Y-89199022D01*
X90541069Y-89381993D01*
X90535586Y-89391489D01*
X90443510Y-89588947D01*
X90439764Y-89599239D01*
X90393606Y-89771503D01*
X90393942Y-89785599D01*
X90401884Y-89789000D01*
X92203000Y-89789000D01*
X92271121Y-89809002D01*
X92317614Y-89862658D01*
X92329000Y-89915000D01*
X92329000Y-91332885D01*
X92333475Y-91348124D01*
X92334865Y-91349329D01*
X92342548Y-91351000D01*
X92529365Y-91351000D01*
X92534830Y-91350762D01*
X92697527Y-91336528D01*
X92711507Y-91334063D01*
X92782066Y-91341933D01*
X92837169Y-91386702D01*
X92859321Y-91454154D01*
X92848525Y-91509319D01*
X92710000Y-91821000D01*
X93472000Y-91948000D01*
X93691175Y-91509651D01*
X93739530Y-91457667D01*
X93803873Y-91440000D01*
X94735713Y-91440000D01*
X94748250Y-91440625D01*
X95998022Y-91565602D01*
X96025329Y-91571443D01*
X96752682Y-91813894D01*
X96791548Y-91835039D01*
X97409000Y-92329000D01*
X97971422Y-92015909D01*
X98032708Y-92000000D01*
X101000000Y-92000000D01*
X102161595Y-90838405D01*
X102223907Y-90804379D01*
X102250690Y-90801500D01*
X108771930Y-90801500D01*
X108790880Y-90802933D01*
X108805115Y-90805099D01*
X108805119Y-90805099D01*
X108812349Y-90806199D01*
X108819641Y-90805606D01*
X108819644Y-90805606D01*
X108865018Y-90801915D01*
X108875233Y-90801500D01*
X108883293Y-90801500D01*
X108896583Y-90799951D01*
X108911507Y-90798211D01*
X108915882Y-90797778D01*
X108981339Y-90792454D01*
X108981342Y-90792453D01*
X108988637Y-90791860D01*
X108995601Y-90789604D01*
X109001560Y-90788413D01*
X109007415Y-90787029D01*
X109014681Y-90786182D01*
X109083327Y-90761265D01*
X109087455Y-90759848D01*
X109149936Y-90739607D01*
X109149938Y-90739606D01*
X109156899Y-90737351D01*
X109163154Y-90733555D01*
X109168628Y-90731049D01*
X109174058Y-90728330D01*
X109180937Y-90725833D01*
X109214227Y-90704007D01*
X109241976Y-90685814D01*
X109245680Y-90683477D01*
X109308107Y-90645595D01*
X109316484Y-90638197D01*
X109316508Y-90638224D01*
X109319500Y-90635571D01*
X109322733Y-90632868D01*
X109328852Y-90628856D01*
X109382128Y-90572617D01*
X109384506Y-90570175D01*
X109748159Y-90206522D01*
X115317273Y-90206522D01*
X115364764Y-90383761D01*
X115368510Y-90394053D01*
X115460586Y-90591511D01*
X115466069Y-90601007D01*
X115591028Y-90779467D01*
X115598084Y-90787875D01*
X115752125Y-90941916D01*
X115760533Y-90948972D01*
X115938993Y-91073931D01*
X115948489Y-91079414D01*
X116145947Y-91171490D01*
X116156239Y-91175236D01*
X116366688Y-91231625D01*
X116377481Y-91233528D01*
X116540170Y-91247762D01*
X116545635Y-91248000D01*
X116727885Y-91248000D01*
X116743124Y-91243525D01*
X116744329Y-91242135D01*
X116746000Y-91234452D01*
X116746000Y-91229885D01*
X117254000Y-91229885D01*
X117258475Y-91245124D01*
X117259865Y-91246329D01*
X117267548Y-91248000D01*
X117454365Y-91248000D01*
X117459830Y-91247762D01*
X117622519Y-91233528D01*
X117633312Y-91231625D01*
X117843761Y-91175236D01*
X117854053Y-91171490D01*
X118051511Y-91079414D01*
X118061007Y-91073931D01*
X118239467Y-90948972D01*
X118247875Y-90941916D01*
X118401916Y-90787875D01*
X118408972Y-90779467D01*
X118533931Y-90601007D01*
X118539414Y-90591511D01*
X118631490Y-90394053D01*
X118635236Y-90383761D01*
X118681394Y-90211497D01*
X118681058Y-90197401D01*
X118673116Y-90194000D01*
X117272115Y-90194000D01*
X117256876Y-90198475D01*
X117255671Y-90199865D01*
X117254000Y-90207548D01*
X117254000Y-91229885D01*
X116746000Y-91229885D01*
X116746000Y-90212115D01*
X116741525Y-90196876D01*
X116740135Y-90195671D01*
X116732452Y-90194000D01*
X115332033Y-90194000D01*
X115318502Y-90197973D01*
X115317273Y-90206522D01*
X109748159Y-90206522D01*
X110917776Y-89036905D01*
X110980088Y-89002879D01*
X111006871Y-89000000D01*
X115419378Y-89000000D01*
X115487499Y-89020002D01*
X115533992Y-89073658D01*
X115544096Y-89143932D01*
X115522591Y-89198270D01*
X115466072Y-89278988D01*
X115460586Y-89288489D01*
X115368510Y-89485947D01*
X115364764Y-89496239D01*
X115318606Y-89668503D01*
X115318942Y-89682599D01*
X115326884Y-89686000D01*
X118667967Y-89686000D01*
X118681498Y-89682027D01*
X118682727Y-89673478D01*
X118635236Y-89496239D01*
X118631490Y-89485947D01*
X118539414Y-89288489D01*
X118533928Y-89278988D01*
X118477409Y-89198270D01*
X118454721Y-89130996D01*
X118472006Y-89062136D01*
X118523776Y-89013552D01*
X118580622Y-89000000D01*
X118874000Y-89000000D01*
X118942121Y-89020002D01*
X118988614Y-89073658D01*
X119000000Y-89126000D01*
X119000000Y-91947810D01*
X118979998Y-92015931D01*
X118963095Y-92036905D01*
X116036905Y-94963095D01*
X115974593Y-94997121D01*
X115947810Y-95000000D01*
X80052190Y-95000000D01*
X79984069Y-94979998D01*
X79963095Y-94963095D01*
X79000000Y-94000000D01*
X61000000Y-94000000D01*
X58000000Y-97000000D01*
X58000000Y-109947810D01*
X57979998Y-110015931D01*
X57963095Y-110036905D01*
X55000000Y-113000000D01*
X55000000Y-126000000D01*
X57963095Y-128963095D01*
X57997121Y-129025407D01*
X58000000Y-129052190D01*
X58000000Y-136000000D01*
X65947810Y-136000000D01*
X66000000Y-136015324D01*
X66000000Y-149491500D01*
X50634500Y-149491500D01*
X50566379Y-149471498D01*
X50519886Y-149417842D01*
X50508500Y-149365500D01*
X50508500Y-147797386D01*
X53067759Y-147797386D01*
X53075216Y-147807753D01*
X53314935Y-148001874D01*
X53320272Y-148005751D01*
X53640685Y-148213830D01*
X53646394Y-148217127D01*
X53986811Y-148390578D01*
X53992836Y-148393260D01*
X54349502Y-148530171D01*
X54355784Y-148532212D01*
X54724816Y-148631094D01*
X54731266Y-148632465D01*
X55108629Y-148692234D01*
X55115167Y-148692920D01*
X55496699Y-148712916D01*
X55503301Y-148712916D01*
X55884833Y-148692920D01*
X55891371Y-148692234D01*
X56268734Y-148632465D01*
X56275184Y-148631094D01*
X56644216Y-148532212D01*
X56650498Y-148530171D01*
X57007164Y-148393260D01*
X57013189Y-148390578D01*
X57353606Y-148217127D01*
X57359315Y-148213830D01*
X57679728Y-148005751D01*
X57685065Y-148001874D01*
X57923835Y-147808522D01*
X57932300Y-147796267D01*
X57925966Y-147785176D01*
X55512812Y-145372022D01*
X55498868Y-145364408D01*
X55497035Y-145364539D01*
X55490420Y-145368790D01*
X53074900Y-147784310D01*
X53067759Y-147797386D01*
X50508500Y-147797386D01*
X50508500Y-145003301D01*
X51787084Y-145003301D01*
X51807080Y-145384833D01*
X51807766Y-145391371D01*
X51867535Y-145768734D01*
X51868906Y-145775184D01*
X51967788Y-146144216D01*
X51969829Y-146150498D01*
X52106740Y-146507164D01*
X52109422Y-146513189D01*
X52282872Y-146853603D01*
X52286169Y-146859313D01*
X52494253Y-147179735D01*
X52498123Y-147185061D01*
X52691478Y-147423835D01*
X52703733Y-147432300D01*
X52714824Y-147425966D01*
X55127978Y-145012812D01*
X55134356Y-145001132D01*
X55864408Y-145001132D01*
X55864539Y-145002965D01*
X55868790Y-145009580D01*
X58284310Y-147425100D01*
X58297386Y-147432241D01*
X58307753Y-147424784D01*
X58501877Y-147185061D01*
X58505747Y-147179735D01*
X58713831Y-146859313D01*
X58717128Y-146853603D01*
X58890578Y-146513189D01*
X58893260Y-146507164D01*
X59030171Y-146150498D01*
X59032212Y-146144216D01*
X59131094Y-145775184D01*
X59132465Y-145768734D01*
X59192234Y-145391371D01*
X59192920Y-145384833D01*
X59212916Y-145003301D01*
X59212916Y-144996699D01*
X59192920Y-144615167D01*
X59192234Y-144608629D01*
X59132465Y-144231266D01*
X59131094Y-144224816D01*
X59032212Y-143855784D01*
X59030171Y-143849502D01*
X58893260Y-143492836D01*
X58890578Y-143486811D01*
X58717128Y-143146397D01*
X58713831Y-143140687D01*
X58505747Y-142820265D01*
X58501877Y-142814939D01*
X58308522Y-142576165D01*
X58296267Y-142567700D01*
X58285176Y-142574034D01*
X55872022Y-144987188D01*
X55864408Y-145001132D01*
X55134356Y-145001132D01*
X55135592Y-144998868D01*
X55135461Y-144997035D01*
X55131210Y-144990420D01*
X52715690Y-142574900D01*
X52702614Y-142567759D01*
X52692247Y-142575216D01*
X52498123Y-142814939D01*
X52494253Y-142820265D01*
X52286169Y-143140687D01*
X52282872Y-143146397D01*
X52109422Y-143486811D01*
X52106740Y-143492836D01*
X51969829Y-143849502D01*
X51967788Y-143855784D01*
X51868906Y-144224816D01*
X51867535Y-144231266D01*
X51807766Y-144608629D01*
X51807080Y-144615167D01*
X51787084Y-144996699D01*
X51787084Y-145003301D01*
X50508500Y-145003301D01*
X50508500Y-142203733D01*
X53067700Y-142203733D01*
X53074034Y-142214824D01*
X55487188Y-144627978D01*
X55501132Y-144635592D01*
X55502965Y-144635461D01*
X55509580Y-144631210D01*
X57925100Y-142215690D01*
X57932241Y-142202614D01*
X57924784Y-142192247D01*
X57685065Y-141998126D01*
X57679728Y-141994249D01*
X57359315Y-141786170D01*
X57353606Y-141782873D01*
X57013189Y-141609422D01*
X57007164Y-141606740D01*
X56650498Y-141469829D01*
X56644216Y-141467788D01*
X56275184Y-141368906D01*
X56268734Y-141367535D01*
X55891371Y-141307766D01*
X55884833Y-141307080D01*
X55503301Y-141287084D01*
X55496699Y-141287084D01*
X55115167Y-141307080D01*
X55108629Y-141307766D01*
X54731266Y-141367535D01*
X54724816Y-141368906D01*
X54355784Y-141467788D01*
X54349502Y-141469829D01*
X53992836Y-141606740D01*
X53986811Y-141609422D01*
X53646397Y-141782872D01*
X53640687Y-141786169D01*
X53320265Y-141994253D01*
X53314939Y-141998123D01*
X53076165Y-142191478D01*
X53067700Y-142203733D01*
X50508500Y-142203733D01*
X50508500Y-90309522D01*
X90392273Y-90309522D01*
X90439764Y-90486761D01*
X90443510Y-90497053D01*
X90535586Y-90694511D01*
X90541069Y-90704007D01*
X90666028Y-90882467D01*
X90673084Y-90890875D01*
X90827125Y-91044916D01*
X90835533Y-91051972D01*
X91013993Y-91176931D01*
X91023489Y-91182414D01*
X91220947Y-91274490D01*
X91231239Y-91278236D01*
X91441688Y-91334625D01*
X91452481Y-91336528D01*
X91615170Y-91350762D01*
X91620635Y-91351000D01*
X91802885Y-91351000D01*
X91818124Y-91346525D01*
X91819329Y-91345135D01*
X91821000Y-91337452D01*
X91821000Y-90315115D01*
X91816525Y-90299876D01*
X91815135Y-90298671D01*
X91807452Y-90297000D01*
X90407033Y-90297000D01*
X90393502Y-90300973D01*
X90392273Y-90309522D01*
X50508500Y-90309522D01*
X50508500Y-55503301D01*
X51787084Y-55503301D01*
X51807080Y-55884833D01*
X51807766Y-55891371D01*
X51867535Y-56268734D01*
X51868906Y-56275184D01*
X51967788Y-56644216D01*
X51969829Y-56650498D01*
X52106740Y-57007164D01*
X52109422Y-57013189D01*
X52282872Y-57353603D01*
X52286169Y-57359313D01*
X52494253Y-57679735D01*
X52498123Y-57685061D01*
X52691478Y-57923835D01*
X52703733Y-57932300D01*
X52714824Y-57925966D01*
X55127978Y-55512812D01*
X55135592Y-55498868D01*
X55135461Y-55497035D01*
X55131210Y-55490420D01*
X52715690Y-53074900D01*
X52702614Y-53067759D01*
X52692247Y-53075216D01*
X52498123Y-53314939D01*
X52494253Y-53320265D01*
X52286169Y-53640687D01*
X52282872Y-53646397D01*
X52109422Y-53986811D01*
X52106740Y-53992836D01*
X51969829Y-54349502D01*
X51967788Y-54355784D01*
X51868906Y-54724816D01*
X51867535Y-54731266D01*
X51807766Y-55108629D01*
X51807080Y-55115167D01*
X51787084Y-55496699D01*
X51787084Y-55503301D01*
X50508500Y-55503301D01*
X50508500Y-50634500D01*
X50528502Y-50566379D01*
X50582158Y-50519886D01*
X50634500Y-50508500D01*
X58000000Y-50508500D01*
X58000000Y-52756096D01*
G37*
%TD.AperFunction*%
%TA.AperFunction,Conductor*%
G36*
X56750356Y-56407248D02*
G01*
X56795419Y-56436209D01*
X57957903Y-57598693D01*
X57991929Y-57661005D01*
X57986864Y-57731820D01*
X57957903Y-57776883D01*
X57776883Y-57957903D01*
X57714571Y-57991929D01*
X57643756Y-57986864D01*
X57598693Y-57957903D01*
X56436209Y-56795419D01*
X56402183Y-56733107D01*
X56407248Y-56662292D01*
X56436209Y-56617229D01*
X56617229Y-56436209D01*
X56679541Y-56402183D01*
X56750356Y-56407248D01*
G37*
%TD.AperFunction*%
%TA.AperFunction,Conductor*%
G36*
X57731820Y-53013136D02*
G01*
X57776883Y-53042097D01*
X57957903Y-53223117D01*
X57991929Y-53285429D01*
X57986864Y-53356244D01*
X57957903Y-53401307D01*
X56795419Y-54563791D01*
X56733107Y-54597817D01*
X56662292Y-54592752D01*
X56617229Y-54563791D01*
X56436209Y-54382771D01*
X56402183Y-54320459D01*
X56407248Y-54249644D01*
X56436209Y-54204581D01*
X57598693Y-53042097D01*
X57661005Y-53008071D01*
X57731820Y-53013136D01*
G37*
%TD.AperFunction*%
%TD*%
M02*
