%TF.GenerationSoftware,KiCad,Pcbnew,(6.0.4-0)*%
%TF.CreationDate,2024-05-14T13:38:24+10:00*%
%TF.ProjectId,Keyboard interface,4b657962-6f61-4726-9420-696e74657266,rev?*%
%TF.SameCoordinates,Original*%
%TF.FileFunction,Legend,Top*%
%TF.FilePolarity,Positive*%
%FSLAX46Y46*%
G04 Gerber Fmt 4.6, Leading zero omitted, Abs format (unit mm)*
G04 Created by KiCad (PCBNEW (6.0.4-0)) date 2024-05-14 13:38:24*
%MOMM*%
%LPD*%
G01*
G04 APERTURE LIST*
%ADD10C,0.150000*%
%ADD11C,0.120000*%
%ADD12C,0.300000*%
%ADD13C,0.240000*%
G04 APERTURE END LIST*
D10*
X95654028Y-112968066D02*
X96130219Y-112968066D01*
X95558790Y-113253780D02*
X95892123Y-112253780D01*
X96225457Y-113253780D01*
X96701647Y-113253780D02*
X96606409Y-113206161D01*
X96558790Y-113110923D01*
X96558790Y-112253780D01*
X97225457Y-113253780D02*
X97130219Y-113206161D01*
X97082600Y-113110923D01*
X97082600Y-112253780D01*
X98368314Y-113253780D02*
X98368314Y-112253780D01*
X98606409Y-112253780D01*
X98749266Y-112301400D01*
X98844504Y-112396638D01*
X98892123Y-112491876D01*
X98939742Y-112682352D01*
X98939742Y-112825209D01*
X98892123Y-113015685D01*
X98844504Y-113110923D01*
X98749266Y-113206161D01*
X98606409Y-113253780D01*
X98368314Y-113253780D01*
X99368314Y-113253780D02*
X99368314Y-112587114D01*
X99368314Y-112253780D02*
X99320695Y-112301400D01*
X99368314Y-112349019D01*
X99415933Y-112301400D01*
X99368314Y-112253780D01*
X99368314Y-112349019D01*
X99987361Y-113253780D02*
X99892123Y-113206161D01*
X99844504Y-113158542D01*
X99796885Y-113063304D01*
X99796885Y-112777590D01*
X99844504Y-112682352D01*
X99892123Y-112634733D01*
X99987361Y-112587114D01*
X100130219Y-112587114D01*
X100225457Y-112634733D01*
X100273076Y-112682352D01*
X100320695Y-112777590D01*
X100320695Y-113063304D01*
X100273076Y-113158542D01*
X100225457Y-113206161D01*
X100130219Y-113253780D01*
X99987361Y-113253780D01*
X101177838Y-113253780D02*
X101177838Y-112253780D01*
X101177838Y-113206161D02*
X101082600Y-113253780D01*
X100892123Y-113253780D01*
X100796885Y-113206161D01*
X100749266Y-113158542D01*
X100701647Y-113063304D01*
X100701647Y-112777590D01*
X100749266Y-112682352D01*
X100796885Y-112634733D01*
X100892123Y-112587114D01*
X101082600Y-112587114D01*
X101177838Y-112634733D01*
X102034980Y-113206161D02*
X101939742Y-113253780D01*
X101749266Y-113253780D01*
X101654028Y-113206161D01*
X101606409Y-113110923D01*
X101606409Y-112729971D01*
X101654028Y-112634733D01*
X101749266Y-112587114D01*
X101939742Y-112587114D01*
X102034980Y-112634733D01*
X102082600Y-112729971D01*
X102082600Y-112825209D01*
X101606409Y-112920447D01*
X102463552Y-113206161D02*
X102558790Y-113253780D01*
X102749266Y-113253780D01*
X102844504Y-113206161D01*
X102892123Y-113110923D01*
X102892123Y-113063304D01*
X102844504Y-112968066D01*
X102749266Y-112920447D01*
X102606409Y-112920447D01*
X102511171Y-112872828D01*
X102463552Y-112777590D01*
X102463552Y-112729971D01*
X102511171Y-112634733D01*
X102606409Y-112587114D01*
X102749266Y-112587114D01*
X102844504Y-112634733D01*
X104606409Y-113253780D02*
X104034980Y-113253780D01*
X104320695Y-113253780D02*
X104320695Y-112253780D01*
X104225457Y-112396638D01*
X104130219Y-112491876D01*
X104034980Y-112539495D01*
X105034980Y-113253780D02*
X105034980Y-112253780D01*
X105606409Y-113253780D01*
X105606409Y-112253780D01*
X106130219Y-113253780D02*
X106320695Y-113253780D01*
X106415933Y-113206161D01*
X106463552Y-113158542D01*
X106558790Y-113015685D01*
X106606409Y-112825209D01*
X106606409Y-112444257D01*
X106558790Y-112349019D01*
X106511171Y-112301400D01*
X106415933Y-112253780D01*
X106225457Y-112253780D01*
X106130219Y-112301400D01*
X106082600Y-112349019D01*
X106034980Y-112444257D01*
X106034980Y-112682352D01*
X106082600Y-112777590D01*
X106130219Y-112825209D01*
X106225457Y-112872828D01*
X106415933Y-112872828D01*
X106511171Y-112825209D01*
X106558790Y-112777590D01*
X106606409Y-112682352D01*
X107558790Y-113253780D02*
X106987361Y-113253780D01*
X107273076Y-113253780D02*
X107273076Y-112253780D01*
X107177838Y-112396638D01*
X107082600Y-112491876D01*
X106987361Y-112539495D01*
X108415933Y-112587114D02*
X108415933Y-113253780D01*
X108177838Y-112206161D02*
X107939742Y-112920447D01*
X108558790Y-112920447D01*
X188198285Y-87549028D02*
X188960190Y-87549028D01*
X188579238Y-87929980D02*
X188579238Y-87168076D01*
X189912571Y-86929980D02*
X189436380Y-86929980D01*
X189388761Y-87406171D01*
X189436380Y-87358552D01*
X189531619Y-87310933D01*
X189769714Y-87310933D01*
X189864952Y-87358552D01*
X189912571Y-87406171D01*
X189960190Y-87501409D01*
X189960190Y-87739504D01*
X189912571Y-87834742D01*
X189864952Y-87882361D01*
X189769714Y-87929980D01*
X189531619Y-87929980D01*
X189436380Y-87882361D01*
X189388761Y-87834742D01*
X190245904Y-86929980D02*
X190579238Y-87929980D01*
X190912571Y-86929980D01*
X188772895Y-79408400D02*
X188677657Y-79360780D01*
X188534800Y-79360780D01*
X188391942Y-79408400D01*
X188296704Y-79503638D01*
X188249085Y-79598876D01*
X188201466Y-79789352D01*
X188201466Y-79932209D01*
X188249085Y-80122685D01*
X188296704Y-80217923D01*
X188391942Y-80313161D01*
X188534800Y-80360780D01*
X188630038Y-80360780D01*
X188772895Y-80313161D01*
X188820514Y-80265542D01*
X188820514Y-79932209D01*
X188630038Y-79932209D01*
X189249085Y-80360780D02*
X189249085Y-79360780D01*
X189820514Y-80360780D01*
X189820514Y-79360780D01*
X190296704Y-80360780D02*
X190296704Y-79360780D01*
X190534800Y-79360780D01*
X190677657Y-79408400D01*
X190772895Y-79503638D01*
X190820514Y-79598876D01*
X190868133Y-79789352D01*
X190868133Y-79932209D01*
X190820514Y-80122685D01*
X190772895Y-80217923D01*
X190677657Y-80313161D01*
X190534800Y-80360780D01*
X190296704Y-80360780D01*
X195256114Y-71470780D02*
X194684685Y-71470780D01*
X194970400Y-71470780D02*
X194970400Y-70470780D01*
X194875161Y-70613638D01*
X194779923Y-70708876D01*
X194684685Y-70756495D01*
X188783980Y-73967780D02*
X188450647Y-73491590D01*
X188212552Y-73967780D02*
X188212552Y-72967780D01*
X188593504Y-72967780D01*
X188688742Y-73015400D01*
X188736361Y-73063019D01*
X188783980Y-73158257D01*
X188783980Y-73301114D01*
X188736361Y-73396352D01*
X188688742Y-73443971D01*
X188593504Y-73491590D01*
X188212552Y-73491590D01*
X189164933Y-73920161D02*
X189307790Y-73967780D01*
X189545885Y-73967780D01*
X189641123Y-73920161D01*
X189688742Y-73872542D01*
X189736361Y-73777304D01*
X189736361Y-73682066D01*
X189688742Y-73586828D01*
X189641123Y-73539209D01*
X189545885Y-73491590D01*
X189355409Y-73443971D01*
X189260171Y-73396352D01*
X189212552Y-73348733D01*
X189164933Y-73253495D01*
X189164933Y-73158257D01*
X189212552Y-73063019D01*
X189260171Y-73015400D01*
X189355409Y-72967780D01*
X189593504Y-72967780D01*
X189736361Y-73015400D01*
X190022076Y-72967780D02*
X190593504Y-72967780D01*
X190307790Y-73967780D02*
X190307790Y-72967780D01*
X188141123Y-75053971D02*
X187807790Y-75053971D01*
X187807790Y-75577780D02*
X187807790Y-74577780D01*
X188283980Y-74577780D01*
X189141123Y-75577780D02*
X188664933Y-75577780D01*
X188664933Y-74577780D01*
X189426838Y-75292066D02*
X189903028Y-75292066D01*
X189331600Y-75577780D02*
X189664933Y-74577780D01*
X189998266Y-75577780D01*
X190855409Y-74625400D02*
X190760171Y-74577780D01*
X190617314Y-74577780D01*
X190474457Y-74625400D01*
X190379219Y-74720638D01*
X190331600Y-74815876D01*
X190283980Y-75006352D01*
X190283980Y-75149209D01*
X190331600Y-75339685D01*
X190379219Y-75434923D01*
X190474457Y-75530161D01*
X190617314Y-75577780D01*
X190712552Y-75577780D01*
X190855409Y-75530161D01*
X190903028Y-75482542D01*
X190903028Y-75149209D01*
X190712552Y-75149209D01*
X188141123Y-77347771D02*
X187807790Y-77347771D01*
X187807790Y-77871580D02*
X187807790Y-76871580D01*
X188283980Y-76871580D01*
X189141123Y-77871580D02*
X188664933Y-77871580D01*
X188664933Y-76871580D01*
X189426838Y-77585866D02*
X189903028Y-77585866D01*
X189331600Y-77871580D02*
X189664933Y-76871580D01*
X189998266Y-77871580D01*
X190855409Y-76919200D02*
X190760171Y-76871580D01*
X190617314Y-76871580D01*
X190474457Y-76919200D01*
X190379219Y-77014438D01*
X190331600Y-77109676D01*
X190283980Y-77300152D01*
X190283980Y-77443009D01*
X190331600Y-77633485D01*
X190379219Y-77728723D01*
X190474457Y-77823961D01*
X190617314Y-77871580D01*
X190712552Y-77871580D01*
X190855409Y-77823961D01*
X190903028Y-77776342D01*
X190903028Y-77443009D01*
X190712552Y-77443009D01*
X189091961Y-85396342D02*
X189044342Y-85443961D01*
X188901485Y-85491580D01*
X188806247Y-85491580D01*
X188663390Y-85443961D01*
X188568152Y-85348723D01*
X188520533Y-85253485D01*
X188472914Y-85063009D01*
X188472914Y-84920152D01*
X188520533Y-84729676D01*
X188568152Y-84634438D01*
X188663390Y-84539200D01*
X188806247Y-84491580D01*
X188901485Y-84491580D01*
X189044342Y-84539200D01*
X189091961Y-84586819D01*
X189996723Y-85491580D02*
X189520533Y-85491580D01*
X189520533Y-84491580D01*
X190330057Y-85491580D02*
X190330057Y-84491580D01*
X190901485Y-85491580D02*
X190472914Y-84920152D01*
X190901485Y-84491580D02*
X190330057Y-85063009D01*
X190136495Y-83002380D02*
X190136495Y-82002380D01*
X190374590Y-82002380D01*
X190517447Y-82050000D01*
X190612685Y-82145238D01*
X190660304Y-82240476D01*
X190707923Y-82430952D01*
X190707923Y-82573809D01*
X190660304Y-82764285D01*
X190612685Y-82859523D01*
X190517447Y-82954761D01*
X190374590Y-83002380D01*
X190136495Y-83002380D01*
X116840000Y-132080000D02*
X116840000Y-132715000D01*
X99060000Y-132080000D02*
X99060000Y-135890000D01*
X111760000Y-132080000D02*
X111760000Y-135890000D01*
X93980000Y-132080000D02*
X93980000Y-135890000D01*
X122555000Y-135890000D02*
X102870000Y-135890000D01*
X116840000Y-132715000D02*
X116840000Y-135890000D01*
X139700000Y-132080000D02*
X139700000Y-135890000D01*
X83820000Y-132080000D02*
X83820000Y-135890000D01*
X144780000Y-132080000D02*
X144780000Y-135890000D01*
X121920000Y-132080000D02*
X121920000Y-135890000D01*
X106680000Y-132080000D02*
X106680000Y-135890000D01*
X57785000Y-135890000D02*
X57785000Y-132080000D01*
X132080000Y-135890000D02*
X152400000Y-135890000D01*
X152400000Y-135890000D02*
X152400000Y-132080000D01*
X102870000Y-135890000D02*
X57785000Y-135890000D01*
X122555000Y-135890000D02*
X132080000Y-135890000D01*
X132080000Y-135890000D02*
X132080000Y-132080000D01*
X127000000Y-132080000D02*
X127000000Y-135890000D01*
X86360000Y-132080000D02*
X86360000Y-135890000D01*
X76200000Y-132080000D02*
X76200000Y-135890000D01*
X68580000Y-132080000D02*
X68580000Y-135890000D01*
X198666666Y-112452380D02*
X199285714Y-112452380D01*
X198952380Y-112833333D01*
X199095238Y-112833333D01*
X199190476Y-112880952D01*
X199238095Y-112928571D01*
X199285714Y-113023809D01*
X199285714Y-113261904D01*
X199238095Y-113357142D01*
X199190476Y-113404761D01*
X199095238Y-113452380D01*
X198809523Y-113452380D01*
X198714285Y-113404761D01*
X198666666Y-113357142D01*
X72675714Y-135072380D02*
X72104285Y-135072380D01*
X72390000Y-135072380D02*
X72390000Y-134072380D01*
X72294761Y-134215238D01*
X72199523Y-134310476D01*
X72104285Y-134358095D01*
X55666666Y-131119047D02*
X55666666Y-130642857D01*
X55952380Y-131214285D02*
X54952380Y-130880952D01*
X55952380Y-130547619D01*
X55952380Y-129738095D02*
X55952380Y-130214285D01*
X54952380Y-130214285D01*
X55952380Y-128928571D02*
X55952380Y-129404761D01*
X54952380Y-129404761D01*
X55952380Y-127833333D02*
X54952380Y-127833333D01*
X54952380Y-127595238D01*
X55000000Y-127452380D01*
X55095238Y-127357142D01*
X55190476Y-127309523D01*
X55380952Y-127261904D01*
X55523809Y-127261904D01*
X55714285Y-127309523D01*
X55809523Y-127357142D01*
X55904761Y-127452380D01*
X55952380Y-127595238D01*
X55952380Y-127833333D01*
X55952380Y-126833333D02*
X54952380Y-126833333D01*
X54952380Y-126166666D02*
X54952380Y-125976190D01*
X55000000Y-125880952D01*
X55095238Y-125785714D01*
X55285714Y-125738095D01*
X55619047Y-125738095D01*
X55809523Y-125785714D01*
X55904761Y-125880952D01*
X55952380Y-125976190D01*
X55952380Y-126166666D01*
X55904761Y-126261904D01*
X55809523Y-126357142D01*
X55619047Y-126404761D01*
X55285714Y-126404761D01*
X55095238Y-126357142D01*
X55000000Y-126261904D01*
X54952380Y-126166666D01*
X55952380Y-125309523D02*
X54952380Y-125309523D01*
X54952380Y-125071428D01*
X55000000Y-124928571D01*
X55095238Y-124833333D01*
X55190476Y-124785714D01*
X55380952Y-124738095D01*
X55523809Y-124738095D01*
X55714285Y-124785714D01*
X55809523Y-124833333D01*
X55904761Y-124928571D01*
X55952380Y-125071428D01*
X55952380Y-125309523D01*
X55428571Y-124309523D02*
X55428571Y-123976190D01*
X55952380Y-123833333D02*
X55952380Y-124309523D01*
X54952380Y-124309523D01*
X54952380Y-123833333D01*
X55904761Y-123452380D02*
X55952380Y-123309523D01*
X55952380Y-123071428D01*
X55904761Y-122976190D01*
X55857142Y-122928571D01*
X55761904Y-122880952D01*
X55666666Y-122880952D01*
X55571428Y-122928571D01*
X55523809Y-122976190D01*
X55476190Y-123071428D01*
X55428571Y-123261904D01*
X55380952Y-123357142D01*
X55333333Y-123404761D01*
X55238095Y-123452380D01*
X55142857Y-123452380D01*
X55047619Y-123404761D01*
X55000000Y-123357142D01*
X54952380Y-123261904D01*
X54952380Y-123023809D01*
X55000000Y-122880952D01*
X135666666Y-134072380D02*
X136333333Y-135072380D01*
X136333333Y-134072380D02*
X135666666Y-135072380D01*
X153863657Y-126522171D02*
X153530323Y-126522171D01*
X153530323Y-127045980D02*
X153530323Y-126045980D01*
X154006514Y-126045980D01*
X199142857Y-100428571D02*
X198809523Y-100428571D01*
X198809523Y-100952380D02*
X198809523Y-99952380D01*
X199285714Y-99952380D01*
X142668571Y-134024761D02*
X141811428Y-135310476D01*
X129349523Y-135072380D02*
X129540000Y-135072380D01*
X129635238Y-135024761D01*
X129682857Y-134977142D01*
X129778095Y-134834285D01*
X129825714Y-134643809D01*
X129825714Y-134262857D01*
X129778095Y-134167619D01*
X129730476Y-134120000D01*
X129635238Y-134072380D01*
X129444761Y-134072380D01*
X129349523Y-134120000D01*
X129301904Y-134167619D01*
X129254285Y-134262857D01*
X129254285Y-134500952D01*
X129301904Y-134596190D01*
X129349523Y-134643809D01*
X129444761Y-134691428D01*
X129635238Y-134691428D01*
X129730476Y-134643809D01*
X129778095Y-134596190D01*
X129825714Y-134500952D01*
X84592113Y-55642857D02*
X86258779Y-55642857D01*
X86645684Y-58261904D02*
X84264732Y-58261904D01*
X84889732Y-53261904D01*
X87270684Y-53261904D01*
X89859970Y-55404761D02*
X89413541Y-55166666D01*
X89205208Y-54928571D01*
X89026636Y-54452380D01*
X89056398Y-54214285D01*
X89354017Y-53738095D01*
X89621875Y-53500000D01*
X90127827Y-53261904D01*
X91080208Y-53261904D01*
X91526636Y-53500000D01*
X91734970Y-53738095D01*
X91913541Y-54214285D01*
X91883779Y-54452380D01*
X91586160Y-54928571D01*
X91318303Y-55166666D01*
X90812351Y-55404761D01*
X89859970Y-55404761D01*
X89354017Y-55642857D01*
X89086160Y-55880952D01*
X88788541Y-56357142D01*
X88669494Y-57309523D01*
X88848065Y-57785714D01*
X89056398Y-58023809D01*
X89502827Y-58261904D01*
X90455208Y-58261904D01*
X90961160Y-58023809D01*
X91229017Y-57785714D01*
X91526636Y-57309523D01*
X91645684Y-56357142D01*
X91467113Y-55880952D01*
X91258779Y-55642857D01*
X90812351Y-55404761D01*
X97776636Y-53023809D02*
X92687351Y-59452380D01*
X98788541Y-58261904D02*
X99413541Y-53261904D01*
X101645684Y-58261904D02*
X99859970Y-55404761D01*
X102270684Y-53261904D02*
X99056398Y-56119047D01*
X103788541Y-58261904D02*
X104413541Y-53261904D01*
X119046666Y-134072380D02*
X119665714Y-134072380D01*
X119332380Y-134453333D01*
X119475238Y-134453333D01*
X119570476Y-134500952D01*
X119618095Y-134548571D01*
X119665714Y-134643809D01*
X119665714Y-134881904D01*
X119618095Y-134977142D01*
X119570476Y-135024761D01*
X119475238Y-135072380D01*
X119189523Y-135072380D01*
X119094285Y-135024761D01*
X119046666Y-134977142D01*
X199190476Y-106285714D02*
X199190476Y-106952380D01*
X198952380Y-105904761D02*
X198714285Y-106619047D01*
X199333333Y-106619047D01*
X84547619Y-99574761D02*
X84547619Y-97574761D01*
X85023809Y-97574761D01*
X85309523Y-97670000D01*
X85500000Y-97860476D01*
X85595238Y-98050952D01*
X85690476Y-98431904D01*
X85690476Y-98717619D01*
X85595238Y-99098571D01*
X85500000Y-99289047D01*
X85309523Y-99479523D01*
X85023809Y-99574761D01*
X84547619Y-99574761D01*
X87309523Y-99479523D02*
X87119047Y-99574761D01*
X86738095Y-99574761D01*
X86547619Y-99479523D01*
X86452380Y-99289047D01*
X86452380Y-98527142D01*
X86547619Y-98336666D01*
X86738095Y-98241428D01*
X87119047Y-98241428D01*
X87309523Y-98336666D01*
X87404761Y-98527142D01*
X87404761Y-98717619D01*
X86452380Y-98908095D01*
X88166666Y-99479523D02*
X88357142Y-99574761D01*
X88738095Y-99574761D01*
X88928571Y-99479523D01*
X89023809Y-99289047D01*
X89023809Y-99193809D01*
X88928571Y-99003333D01*
X88738095Y-98908095D01*
X88452380Y-98908095D01*
X88261904Y-98812857D01*
X88166666Y-98622380D01*
X88166666Y-98527142D01*
X88261904Y-98336666D01*
X88452380Y-98241428D01*
X88738095Y-98241428D01*
X88928571Y-98336666D01*
X89880952Y-99574761D02*
X89880952Y-98241428D01*
X89880952Y-97574761D02*
X89785714Y-97670000D01*
X89880952Y-97765238D01*
X89976190Y-97670000D01*
X89880952Y-97574761D01*
X89880952Y-97765238D01*
X91690476Y-98241428D02*
X91690476Y-99860476D01*
X91595238Y-100050952D01*
X91500000Y-100146190D01*
X91309523Y-100241428D01*
X91023809Y-100241428D01*
X90833333Y-100146190D01*
X91690476Y-99479523D02*
X91500000Y-99574761D01*
X91119047Y-99574761D01*
X90928571Y-99479523D01*
X90833333Y-99384285D01*
X90738095Y-99193809D01*
X90738095Y-98622380D01*
X90833333Y-98431904D01*
X90928571Y-98336666D01*
X91119047Y-98241428D01*
X91500000Y-98241428D01*
X91690476Y-98336666D01*
X92642857Y-98241428D02*
X92642857Y-99574761D01*
X92642857Y-98431904D02*
X92738095Y-98336666D01*
X92928571Y-98241428D01*
X93214285Y-98241428D01*
X93404761Y-98336666D01*
X93500000Y-98527142D01*
X93500000Y-99574761D01*
X95214285Y-99479523D02*
X95023809Y-99574761D01*
X94642857Y-99574761D01*
X94452380Y-99479523D01*
X94357142Y-99289047D01*
X94357142Y-98527142D01*
X94452380Y-98336666D01*
X94642857Y-98241428D01*
X95023809Y-98241428D01*
X95214285Y-98336666D01*
X95309523Y-98527142D01*
X95309523Y-98717619D01*
X94357142Y-98908095D01*
X97023809Y-99574761D02*
X97023809Y-97574761D01*
X97023809Y-99479523D02*
X96833333Y-99574761D01*
X96452380Y-99574761D01*
X96261904Y-99479523D01*
X96166666Y-99384285D01*
X96071428Y-99193809D01*
X96071428Y-98622380D01*
X96166666Y-98431904D01*
X96261904Y-98336666D01*
X96452380Y-98241428D01*
X96833333Y-98241428D01*
X97023809Y-98336666D01*
X99500000Y-99574761D02*
X99500000Y-97574761D01*
X99500000Y-98336666D02*
X99690476Y-98241428D01*
X100071428Y-98241428D01*
X100261904Y-98336666D01*
X100357142Y-98431904D01*
X100452380Y-98622380D01*
X100452380Y-99193809D01*
X100357142Y-99384285D01*
X100261904Y-99479523D01*
X100071428Y-99574761D01*
X99690476Y-99574761D01*
X99500000Y-99479523D01*
X101119047Y-98241428D02*
X101595238Y-99574761D01*
X102071428Y-98241428D02*
X101595238Y-99574761D01*
X101404761Y-100050952D01*
X101309523Y-100146190D01*
X101119047Y-100241428D01*
X104928571Y-97574761D02*
X104928571Y-99003333D01*
X104833333Y-99289047D01*
X104642857Y-99479523D01*
X104357142Y-99574761D01*
X104166666Y-99574761D01*
X106738095Y-99574761D02*
X106738095Y-98527142D01*
X106642857Y-98336666D01*
X106452380Y-98241428D01*
X106071428Y-98241428D01*
X105880952Y-98336666D01*
X106738095Y-99479523D02*
X106547619Y-99574761D01*
X106071428Y-99574761D01*
X105880952Y-99479523D01*
X105785714Y-99289047D01*
X105785714Y-99098571D01*
X105880952Y-98908095D01*
X106071428Y-98812857D01*
X106547619Y-98812857D01*
X106738095Y-98717619D01*
X107690476Y-99574761D02*
X107690476Y-98241428D01*
X107690476Y-98431904D02*
X107785714Y-98336666D01*
X107976190Y-98241428D01*
X108261904Y-98241428D01*
X108452380Y-98336666D01*
X108547619Y-98527142D01*
X108547619Y-99574761D01*
X108547619Y-98527142D02*
X108642857Y-98336666D01*
X108833333Y-98241428D01*
X109119047Y-98241428D01*
X109309523Y-98336666D01*
X109404761Y-98527142D01*
X109404761Y-99574761D01*
X110357142Y-99574761D02*
X110357142Y-98241428D01*
X110357142Y-97574761D02*
X110261904Y-97670000D01*
X110357142Y-97765238D01*
X110452380Y-97670000D01*
X110357142Y-97574761D01*
X110357142Y-97765238D01*
X112071428Y-99479523D02*
X111880952Y-99574761D01*
X111500000Y-99574761D01*
X111309523Y-99479523D01*
X111214285Y-99289047D01*
X111214285Y-98527142D01*
X111309523Y-98336666D01*
X111500000Y-98241428D01*
X111880952Y-98241428D01*
X112071428Y-98336666D01*
X112166666Y-98527142D01*
X112166666Y-98717619D01*
X111214285Y-98908095D01*
X112928571Y-99479523D02*
X113119047Y-99574761D01*
X113500000Y-99574761D01*
X113690476Y-99479523D01*
X113785714Y-99289047D01*
X113785714Y-99193809D01*
X113690476Y-99003333D01*
X113500000Y-98908095D01*
X113214285Y-98908095D01*
X113023809Y-98812857D01*
X112928571Y-98622380D01*
X112928571Y-98527142D01*
X113023809Y-98336666D01*
X113214285Y-98241428D01*
X113500000Y-98241428D01*
X113690476Y-98336666D01*
X114928571Y-99574761D02*
X114738095Y-99479523D01*
X114642857Y-99384285D01*
X114547619Y-99193809D01*
X114547619Y-98622380D01*
X114642857Y-98431904D01*
X114738095Y-98336666D01*
X114928571Y-98241428D01*
X115214285Y-98241428D01*
X115404761Y-98336666D01*
X115500000Y-98431904D01*
X115595238Y-98622380D01*
X115595238Y-99193809D01*
X115500000Y-99384285D01*
X115404761Y-99479523D01*
X115214285Y-99574761D01*
X114928571Y-99574761D01*
X116452380Y-98241428D02*
X116452380Y-99574761D01*
X116452380Y-98431904D02*
X116547619Y-98336666D01*
X116738095Y-98241428D01*
X117023809Y-98241428D01*
X117214285Y-98336666D01*
X117309523Y-98527142D01*
X117309523Y-99574761D01*
X120928571Y-99574761D02*
X120261904Y-98622380D01*
X119785714Y-99574761D02*
X119785714Y-97574761D01*
X120547619Y-97574761D01*
X120738095Y-97670000D01*
X120833333Y-97765238D01*
X120928571Y-97955714D01*
X120928571Y-98241428D01*
X120833333Y-98431904D01*
X120738095Y-98527142D01*
X120547619Y-98622380D01*
X119785714Y-98622380D01*
X122071428Y-99574761D02*
X121880952Y-99479523D01*
X121785714Y-99384285D01*
X121690476Y-99193809D01*
X121690476Y-98622380D01*
X121785714Y-98431904D01*
X121880952Y-98336666D01*
X122071428Y-98241428D01*
X122357142Y-98241428D01*
X122547619Y-98336666D01*
X122642857Y-98431904D01*
X122738095Y-98622380D01*
X122738095Y-99193809D01*
X122642857Y-99384285D01*
X122547619Y-99479523D01*
X122357142Y-99574761D01*
X122071428Y-99574761D01*
X123404761Y-98241428D02*
X123785714Y-99574761D01*
X124166666Y-98622380D01*
X124547619Y-99574761D01*
X124928571Y-98241428D01*
X126452380Y-99479523D02*
X126261904Y-99574761D01*
X125880952Y-99574761D01*
X125690476Y-99479523D01*
X125595238Y-99289047D01*
X125595238Y-98527142D01*
X125690476Y-98336666D01*
X125880952Y-98241428D01*
X126261904Y-98241428D01*
X126452380Y-98336666D01*
X126547619Y-98527142D01*
X126547619Y-98717619D01*
X125595238Y-98908095D01*
X85785714Y-101747142D02*
X86452380Y-101747142D01*
X86738095Y-102794761D02*
X85785714Y-102794761D01*
X85785714Y-100794761D01*
X86738095Y-100794761D01*
X87880952Y-102794761D02*
X87690476Y-102699523D01*
X87595238Y-102509047D01*
X87595238Y-100794761D01*
X89404761Y-102699523D02*
X89214285Y-102794761D01*
X88833333Y-102794761D01*
X88642857Y-102699523D01*
X88547619Y-102509047D01*
X88547619Y-101747142D01*
X88642857Y-101556666D01*
X88833333Y-101461428D01*
X89214285Y-101461428D01*
X89404761Y-101556666D01*
X89500000Y-101747142D01*
X89500000Y-101937619D01*
X88547619Y-102128095D01*
X91214285Y-102699523D02*
X91023809Y-102794761D01*
X90642857Y-102794761D01*
X90452380Y-102699523D01*
X90357142Y-102604285D01*
X90261904Y-102413809D01*
X90261904Y-101842380D01*
X90357142Y-101651904D01*
X90452380Y-101556666D01*
X90642857Y-101461428D01*
X91023809Y-101461428D01*
X91214285Y-101556666D01*
X91785714Y-101461428D02*
X92547619Y-101461428D01*
X92071428Y-100794761D02*
X92071428Y-102509047D01*
X92166666Y-102699523D01*
X92357142Y-102794761D01*
X92547619Y-102794761D01*
X93214285Y-102794761D02*
X93214285Y-101461428D01*
X93214285Y-101842380D02*
X93309523Y-101651904D01*
X93404761Y-101556666D01*
X93595238Y-101461428D01*
X93785714Y-101461428D01*
X94738095Y-102794761D02*
X94547619Y-102699523D01*
X94452380Y-102604285D01*
X94357142Y-102413809D01*
X94357142Y-101842380D01*
X94452380Y-101651904D01*
X94547619Y-101556666D01*
X94738095Y-101461428D01*
X95023809Y-101461428D01*
X95214285Y-101556666D01*
X95309523Y-101651904D01*
X95404761Y-101842380D01*
X95404761Y-102413809D01*
X95309523Y-102604285D01*
X95214285Y-102699523D01*
X95023809Y-102794761D01*
X94738095Y-102794761D01*
X96261904Y-101461428D02*
X96261904Y-102794761D01*
X96261904Y-101651904D02*
X96357142Y-101556666D01*
X96547619Y-101461428D01*
X96833333Y-101461428D01*
X97023809Y-101556666D01*
X97119047Y-101747142D01*
X97119047Y-102794761D01*
X98071428Y-102794761D02*
X98071428Y-101461428D01*
X98071428Y-100794761D02*
X97976190Y-100890000D01*
X98071428Y-100985238D01*
X98166666Y-100890000D01*
X98071428Y-100794761D01*
X98071428Y-100985238D01*
X99880952Y-102699523D02*
X99690476Y-102794761D01*
X99309523Y-102794761D01*
X99119047Y-102699523D01*
X99023809Y-102604285D01*
X98928571Y-102413809D01*
X98928571Y-101842380D01*
X99023809Y-101651904D01*
X99119047Y-101556666D01*
X99309523Y-101461428D01*
X99690476Y-101461428D01*
X99880952Y-101556666D01*
X100642857Y-102699523D02*
X100833333Y-102794761D01*
X101214285Y-102794761D01*
X101404761Y-102699523D01*
X101500000Y-102509047D01*
X101500000Y-102413809D01*
X101404761Y-102223333D01*
X101214285Y-102128095D01*
X100928571Y-102128095D01*
X100738095Y-102032857D01*
X100642857Y-101842380D01*
X100642857Y-101747142D01*
X100738095Y-101556666D01*
X100928571Y-101461428D01*
X101214285Y-101461428D01*
X101404761Y-101556666D01*
X103785714Y-102223333D02*
X104738095Y-102223333D01*
X103595238Y-102794761D02*
X104261904Y-100794761D01*
X104928571Y-102794761D01*
X106452380Y-101461428D02*
X106452380Y-102794761D01*
X105595238Y-101461428D02*
X105595238Y-102509047D01*
X105690476Y-102699523D01*
X105880952Y-102794761D01*
X106166666Y-102794761D01*
X106357142Y-102699523D01*
X106452380Y-102604285D01*
X107309523Y-102699523D02*
X107500000Y-102794761D01*
X107880952Y-102794761D01*
X108071428Y-102699523D01*
X108166666Y-102509047D01*
X108166666Y-102413809D01*
X108071428Y-102223333D01*
X107880952Y-102128095D01*
X107595238Y-102128095D01*
X107404761Y-102032857D01*
X107309523Y-101842380D01*
X107309523Y-101747142D01*
X107404761Y-101556666D01*
X107595238Y-101461428D01*
X107880952Y-101461428D01*
X108071428Y-101556666D01*
X108738095Y-101461428D02*
X109500000Y-101461428D01*
X109023809Y-100794761D02*
X109023809Y-102509047D01*
X109119047Y-102699523D01*
X109309523Y-102794761D01*
X109500000Y-102794761D01*
X110166666Y-102794761D02*
X110166666Y-101461428D01*
X110166666Y-101842380D02*
X110261904Y-101651904D01*
X110357142Y-101556666D01*
X110547619Y-101461428D01*
X110738095Y-101461428D01*
X112261904Y-102794761D02*
X112261904Y-101747142D01*
X112166666Y-101556666D01*
X111976190Y-101461428D01*
X111595238Y-101461428D01*
X111404761Y-101556666D01*
X112261904Y-102699523D02*
X112071428Y-102794761D01*
X111595238Y-102794761D01*
X111404761Y-102699523D01*
X111309523Y-102509047D01*
X111309523Y-102318571D01*
X111404761Y-102128095D01*
X111595238Y-102032857D01*
X112071428Y-102032857D01*
X112261904Y-101937619D01*
X113500000Y-102794761D02*
X113309523Y-102699523D01*
X113214285Y-102509047D01*
X113214285Y-100794761D01*
X114261904Y-102794761D02*
X114261904Y-101461428D01*
X114261904Y-100794761D02*
X114166666Y-100890000D01*
X114261904Y-100985238D01*
X114357142Y-100890000D01*
X114261904Y-100794761D01*
X114261904Y-100985238D01*
X116071428Y-102794761D02*
X116071428Y-101747142D01*
X115976190Y-101556666D01*
X115785714Y-101461428D01*
X115404761Y-101461428D01*
X115214285Y-101556666D01*
X116071428Y-102699523D02*
X115880952Y-102794761D01*
X115404761Y-102794761D01*
X115214285Y-102699523D01*
X115119047Y-102509047D01*
X115119047Y-102318571D01*
X115214285Y-102128095D01*
X115404761Y-102032857D01*
X115880952Y-102032857D01*
X116071428Y-101937619D01*
X119595238Y-102794761D02*
X118452380Y-102794761D01*
X119023809Y-102794761D02*
X119023809Y-100794761D01*
X118833333Y-101080476D01*
X118642857Y-101270952D01*
X118452380Y-101366190D01*
X120547619Y-102794761D02*
X120928571Y-102794761D01*
X121119047Y-102699523D01*
X121214285Y-102604285D01*
X121404761Y-102318571D01*
X121500000Y-101937619D01*
X121500000Y-101175714D01*
X121404761Y-100985238D01*
X121309523Y-100890000D01*
X121119047Y-100794761D01*
X120738095Y-100794761D01*
X120547619Y-100890000D01*
X120452380Y-100985238D01*
X120357142Y-101175714D01*
X120357142Y-101651904D01*
X120452380Y-101842380D01*
X120547619Y-101937619D01*
X120738095Y-102032857D01*
X121119047Y-102032857D01*
X121309523Y-101937619D01*
X121404761Y-101842380D01*
X121500000Y-101651904D01*
X122166666Y-100794761D02*
X123500000Y-100794761D01*
X122642857Y-102794761D01*
X125119047Y-101461428D02*
X125119047Y-102794761D01*
X124642857Y-100699523D02*
X124166666Y-102128095D01*
X125404761Y-102128095D01*
X89166666Y-109234761D02*
X89166666Y-107234761D01*
X89928571Y-107234761D01*
X90119047Y-107330000D01*
X90214285Y-107425238D01*
X90309523Y-107615714D01*
X90309523Y-107901428D01*
X90214285Y-108091904D01*
X90119047Y-108187142D01*
X89928571Y-108282380D01*
X89166666Y-108282380D01*
X92309523Y-109044285D02*
X92214285Y-109139523D01*
X91928571Y-109234761D01*
X91738095Y-109234761D01*
X91452380Y-109139523D01*
X91261904Y-108949047D01*
X91166666Y-108758571D01*
X91071428Y-108377619D01*
X91071428Y-108091904D01*
X91166666Y-107710952D01*
X91261904Y-107520476D01*
X91452380Y-107330000D01*
X91738095Y-107234761D01*
X91928571Y-107234761D01*
X92214285Y-107330000D01*
X92309523Y-107425238D01*
X93833333Y-108187142D02*
X94119047Y-108282380D01*
X94214285Y-108377619D01*
X94309523Y-108568095D01*
X94309523Y-108853809D01*
X94214285Y-109044285D01*
X94119047Y-109139523D01*
X93928571Y-109234761D01*
X93166666Y-109234761D01*
X93166666Y-107234761D01*
X93833333Y-107234761D01*
X94023809Y-107330000D01*
X94119047Y-107425238D01*
X94214285Y-107615714D01*
X94214285Y-107806190D01*
X94119047Y-107996666D01*
X94023809Y-108091904D01*
X93833333Y-108187142D01*
X93166666Y-108187142D01*
X96690476Y-109234761D02*
X96690476Y-107234761D01*
X96690476Y-107996666D02*
X96880952Y-107901428D01*
X97261904Y-107901428D01*
X97452380Y-107996666D01*
X97547619Y-108091904D01*
X97642857Y-108282380D01*
X97642857Y-108853809D01*
X97547619Y-109044285D01*
X97452380Y-109139523D01*
X97261904Y-109234761D01*
X96880952Y-109234761D01*
X96690476Y-109139523D01*
X98309523Y-107901428D02*
X98785714Y-109234761D01*
X99261904Y-107901428D02*
X98785714Y-109234761D01*
X98595238Y-109710952D01*
X98500000Y-109806190D01*
X98309523Y-109901428D01*
X102595238Y-107330000D02*
X102404761Y-107234761D01*
X102119047Y-107234761D01*
X101833333Y-107330000D01*
X101642857Y-107520476D01*
X101547619Y-107710952D01*
X101452380Y-108091904D01*
X101452380Y-108377619D01*
X101547619Y-108758571D01*
X101642857Y-108949047D01*
X101833333Y-109139523D01*
X102119047Y-109234761D01*
X102309523Y-109234761D01*
X102595238Y-109139523D01*
X102690476Y-109044285D01*
X102690476Y-108377619D01*
X102309523Y-108377619D01*
X103357142Y-107901428D02*
X103738095Y-109234761D01*
X104119047Y-108282380D01*
X104500000Y-109234761D01*
X104880952Y-107901428D01*
X105452380Y-107901428D02*
X105928571Y-109234761D01*
X106404761Y-107901428D02*
X105928571Y-109234761D01*
X105738095Y-109710952D01*
X105642857Y-109806190D01*
X105452380Y-109901428D01*
X107452380Y-109234761D02*
X107261904Y-109139523D01*
X107166666Y-108949047D01*
X107166666Y-107234761D01*
X108500000Y-109234761D02*
X108309523Y-109139523D01*
X108214285Y-108949047D01*
X108214285Y-107234761D01*
X109071428Y-107901428D02*
X109547619Y-109234761D01*
X110023809Y-107901428D02*
X109547619Y-109234761D01*
X109357142Y-109710952D01*
X109261904Y-109806190D01*
X109071428Y-109901428D01*
X110785714Y-109234761D02*
X110785714Y-107901428D01*
X110785714Y-108091904D02*
X110880952Y-107996666D01*
X111071428Y-107901428D01*
X111357142Y-107901428D01*
X111547619Y-107996666D01*
X111642857Y-108187142D01*
X111642857Y-109234761D01*
X111642857Y-108187142D02*
X111738095Y-107996666D01*
X111928571Y-107901428D01*
X112214285Y-107901428D01*
X112404761Y-107996666D01*
X112500000Y-108187142D01*
X112500000Y-109234761D01*
X114880952Y-109139523D02*
X115166666Y-109234761D01*
X115642857Y-109234761D01*
X115833333Y-109139523D01*
X115928571Y-109044285D01*
X116023809Y-108853809D01*
X116023809Y-108663333D01*
X115928571Y-108472857D01*
X115833333Y-108377619D01*
X115642857Y-108282380D01*
X115261904Y-108187142D01*
X115071428Y-108091904D01*
X114976190Y-107996666D01*
X114880952Y-107806190D01*
X114880952Y-107615714D01*
X114976190Y-107425238D01*
X115071428Y-107330000D01*
X115261904Y-107234761D01*
X115738095Y-107234761D01*
X116023809Y-107330000D01*
X117738095Y-107901428D02*
X117738095Y-109234761D01*
X116880952Y-107901428D02*
X116880952Y-108949047D01*
X116976190Y-109139523D01*
X117166666Y-109234761D01*
X117452380Y-109234761D01*
X117642857Y-109139523D01*
X117738095Y-109044285D01*
X118404761Y-107901428D02*
X119166666Y-107901428D01*
X118690476Y-107234761D02*
X118690476Y-108949047D01*
X118785714Y-109139523D01*
X118976190Y-109234761D01*
X119166666Y-109234761D01*
X120595238Y-109139523D02*
X120404761Y-109234761D01*
X120023809Y-109234761D01*
X119833333Y-109139523D01*
X119738095Y-108949047D01*
X119738095Y-108187142D01*
X119833333Y-107996666D01*
X120023809Y-107901428D01*
X120404761Y-107901428D01*
X120595238Y-107996666D01*
X120690476Y-108187142D01*
X120690476Y-108377619D01*
X119738095Y-108568095D01*
X121547619Y-109234761D02*
X121547619Y-107901428D01*
X121547619Y-108282380D02*
X121642857Y-108091904D01*
X121738095Y-107996666D01*
X121928571Y-107901428D01*
X122119047Y-107901428D01*
X63452380Y-134072380D02*
X63547619Y-134072380D01*
X63642857Y-134120000D01*
X63690476Y-134167619D01*
X63738095Y-134262857D01*
X63785714Y-134453333D01*
X63785714Y-134691428D01*
X63738095Y-134881904D01*
X63690476Y-134977142D01*
X63642857Y-135024761D01*
X63547619Y-135072380D01*
X63452380Y-135072380D01*
X63357142Y-135024761D01*
X63309523Y-134977142D01*
X63261904Y-134881904D01*
X63214285Y-134691428D01*
X63214285Y-134453333D01*
X63261904Y-134262857D01*
X63309523Y-134167619D01*
X63357142Y-134120000D01*
X63452380Y-134072380D01*
X108839047Y-134691428D02*
X109600952Y-134691428D01*
X109220000Y-135072380D02*
X109220000Y-134310476D01*
X199285714Y-126452380D02*
X198714285Y-126452380D01*
X199000000Y-126452380D02*
X199000000Y-125452380D01*
X198904761Y-125595238D01*
X198809523Y-125690476D01*
X198714285Y-125738095D01*
X198952380Y-131952380D02*
X199047619Y-131952380D01*
X199142857Y-132000000D01*
X199190476Y-132047619D01*
X199238095Y-132142857D01*
X199285714Y-132333333D01*
X199285714Y-132571428D01*
X199238095Y-132761904D01*
X199190476Y-132857142D01*
X199142857Y-132904761D01*
X199047619Y-132952380D01*
X198952380Y-132952380D01*
X198857142Y-132904761D01*
X198809523Y-132857142D01*
X198761904Y-132761904D01*
X198714285Y-132571428D01*
X198714285Y-132333333D01*
X198761904Y-132142857D01*
X198809523Y-132047619D01*
X198857142Y-132000000D01*
X198952380Y-131952380D01*
X80200476Y-134405714D02*
X80200476Y-135072380D01*
X79962380Y-134024761D02*
X79724285Y-134739047D01*
X80343333Y-134739047D01*
X124650476Y-134072380D02*
X124460000Y-134072380D01*
X124364761Y-134120000D01*
X124317142Y-134167619D01*
X124221904Y-134310476D01*
X124174285Y-134500952D01*
X124174285Y-134881904D01*
X124221904Y-134977142D01*
X124269523Y-135024761D01*
X124364761Y-135072380D01*
X124555238Y-135072380D01*
X124650476Y-135024761D01*
X124698095Y-134977142D01*
X124745714Y-134881904D01*
X124745714Y-134643809D01*
X124698095Y-134548571D01*
X124650476Y-134500952D01*
X124555238Y-134453333D01*
X124364761Y-134453333D01*
X124269523Y-134500952D01*
X124221904Y-134548571D01*
X124174285Y-134643809D01*
X153557314Y-123728171D02*
X153890647Y-123728171D01*
X154033504Y-124251980D02*
X153557314Y-124251980D01*
X153557314Y-123251980D01*
X154033504Y-123251980D01*
X154233523Y-116841542D02*
X154185904Y-116889161D01*
X154043047Y-116936780D01*
X153947809Y-116936780D01*
X153804952Y-116889161D01*
X153709714Y-116793923D01*
X153662095Y-116698685D01*
X153614476Y-116508209D01*
X153614476Y-116365352D01*
X153662095Y-116174876D01*
X153709714Y-116079638D01*
X153804952Y-115984400D01*
X153947809Y-115936780D01*
X154043047Y-115936780D01*
X154185904Y-115984400D01*
X154233523Y-116032019D01*
X90074761Y-134500952D02*
X89979523Y-134453333D01*
X89931904Y-134405714D01*
X89884285Y-134310476D01*
X89884285Y-134262857D01*
X89931904Y-134167619D01*
X89979523Y-134120000D01*
X90074761Y-134072380D01*
X90265238Y-134072380D01*
X90360476Y-134120000D01*
X90408095Y-134167619D01*
X90455714Y-134262857D01*
X90455714Y-134310476D01*
X90408095Y-134405714D01*
X90360476Y-134453333D01*
X90265238Y-134500952D01*
X90074761Y-134500952D01*
X89979523Y-134548571D01*
X89931904Y-134596190D01*
X89884285Y-134691428D01*
X89884285Y-134881904D01*
X89931904Y-134977142D01*
X89979523Y-135024761D01*
X90074761Y-135072380D01*
X90265238Y-135072380D01*
X90360476Y-135024761D01*
X90408095Y-134977142D01*
X90455714Y-134881904D01*
X90455714Y-134691428D01*
X90408095Y-134596190D01*
X90360476Y-134548571D01*
X90265238Y-134500952D01*
X84756666Y-134072380D02*
X85423333Y-134072380D01*
X84994761Y-135072380D01*
X102584285Y-134167619D02*
X102631904Y-134120000D01*
X102727142Y-134072380D01*
X102965238Y-134072380D01*
X103060476Y-134120000D01*
X103108095Y-134167619D01*
X103155714Y-134262857D01*
X103155714Y-134358095D01*
X103108095Y-134500952D01*
X102536666Y-135072380D01*
X103155714Y-135072380D01*
X153662095Y-119375180D02*
X153662095Y-118375180D01*
X153900190Y-118375180D01*
X154043047Y-118422800D01*
X154138285Y-118518038D01*
X154185904Y-118613276D01*
X154233523Y-118803752D01*
X154233523Y-118946609D01*
X154185904Y-119137085D01*
X154138285Y-119232323D01*
X154043047Y-119327561D01*
X153900190Y-119375180D01*
X153662095Y-119375180D01*
X96758095Y-134072380D02*
X96281904Y-134072380D01*
X96234285Y-134548571D01*
X96281904Y-134500952D01*
X96377142Y-134453333D01*
X96615238Y-134453333D01*
X96710476Y-134500952D01*
X96758095Y-134548571D01*
X96805714Y-134643809D01*
X96805714Y-134881904D01*
X96758095Y-134977142D01*
X96710476Y-135024761D01*
X96615238Y-135072380D01*
X96377142Y-135072380D01*
X96281904Y-135024761D01*
X96234285Y-134977142D01*
X113919047Y-134691428D02*
X114680952Y-134691428D01*
X198714285Y-119047619D02*
X198761904Y-119000000D01*
X198857142Y-118952380D01*
X199095238Y-118952380D01*
X199190476Y-119000000D01*
X199238095Y-119047619D01*
X199285714Y-119142857D01*
X199285714Y-119238095D01*
X199238095Y-119380952D01*
X198666666Y-119952380D01*
X199285714Y-119952380D01*
X148470952Y-135072380D02*
X147994761Y-135072380D01*
X147994761Y-134072380D01*
X149137619Y-134548571D02*
X148804285Y-134548571D01*
X148804285Y-135072380D02*
X148804285Y-134072380D01*
X149280476Y-134072380D01*
X76666666Y-60118452D02*
X77142857Y-60118452D01*
X77380952Y-60237500D01*
X77619047Y-60475595D01*
X77738095Y-60951785D01*
X77738095Y-61785119D01*
X77619047Y-62261309D01*
X77380952Y-62499404D01*
X77142857Y-62618452D01*
X76666666Y-62618452D01*
X76428571Y-62499404D01*
X76190476Y-62261309D01*
X76071428Y-61785119D01*
X76071428Y-60951785D01*
X76190476Y-60475595D01*
X76428571Y-60237500D01*
X76666666Y-60118452D01*
X79880952Y-62499404D02*
X79642857Y-62618452D01*
X79166666Y-62618452D01*
X78928571Y-62499404D01*
X78809523Y-62380357D01*
X78690476Y-62142261D01*
X78690476Y-61427976D01*
X78809523Y-61189880D01*
X78928571Y-61070833D01*
X79166666Y-60951785D01*
X79642857Y-60951785D01*
X79880952Y-61070833D01*
X80595238Y-60951785D02*
X81547619Y-60951785D01*
X80952380Y-60118452D02*
X80952380Y-62261309D01*
X81071428Y-62499404D01*
X81309523Y-62618452D01*
X81547619Y-62618452D01*
X83452380Y-62618452D02*
X83452380Y-61308928D01*
X83333333Y-61070833D01*
X83095238Y-60951785D01*
X82619047Y-60951785D01*
X82380952Y-61070833D01*
X83452380Y-62499404D02*
X83214285Y-62618452D01*
X82619047Y-62618452D01*
X82380952Y-62499404D01*
X82261904Y-62261309D01*
X82261904Y-62023214D01*
X82380952Y-61785119D01*
X82619047Y-61666071D01*
X83214285Y-61666071D01*
X83452380Y-61547023D01*
X85000000Y-62618452D02*
X84761904Y-62499404D01*
X84642857Y-62261309D01*
X84642857Y-60118452D01*
X87857142Y-62618452D02*
X87857142Y-60118452D01*
X89285714Y-62618452D02*
X88214285Y-61189880D01*
X89285714Y-60118452D02*
X87857142Y-61547023D01*
X91309523Y-62499404D02*
X91071428Y-62618452D01*
X90595238Y-62618452D01*
X90357142Y-62499404D01*
X90238095Y-62261309D01*
X90238095Y-61308928D01*
X90357142Y-61070833D01*
X90595238Y-60951785D01*
X91071428Y-60951785D01*
X91309523Y-61070833D01*
X91428571Y-61308928D01*
X91428571Y-61547023D01*
X90238095Y-61785119D01*
X92261904Y-60951785D02*
X92857142Y-62618452D01*
X93452380Y-60951785D02*
X92857142Y-62618452D01*
X92619047Y-63213690D01*
X92500000Y-63332738D01*
X92261904Y-63451785D01*
X94404761Y-62618452D02*
X94404761Y-60118452D01*
X94404761Y-61070833D02*
X94642857Y-60951785D01*
X95119047Y-60951785D01*
X95357142Y-61070833D01*
X95476190Y-61189880D01*
X95595238Y-61427976D01*
X95595238Y-62142261D01*
X95476190Y-62380357D01*
X95357142Y-62499404D01*
X95119047Y-62618452D01*
X94642857Y-62618452D01*
X94404761Y-62499404D01*
X97023809Y-62618452D02*
X96785714Y-62499404D01*
X96666666Y-62380357D01*
X96547619Y-62142261D01*
X96547619Y-61427976D01*
X96666666Y-61189880D01*
X96785714Y-61070833D01*
X97023809Y-60951785D01*
X97380952Y-60951785D01*
X97619047Y-61070833D01*
X97738095Y-61189880D01*
X97857142Y-61427976D01*
X97857142Y-62142261D01*
X97738095Y-62380357D01*
X97619047Y-62499404D01*
X97380952Y-62618452D01*
X97023809Y-62618452D01*
X100000000Y-62618452D02*
X100000000Y-61308928D01*
X99880952Y-61070833D01*
X99642857Y-60951785D01*
X99166666Y-60951785D01*
X98928571Y-61070833D01*
X100000000Y-62499404D02*
X99761904Y-62618452D01*
X99166666Y-62618452D01*
X98928571Y-62499404D01*
X98809523Y-62261309D01*
X98809523Y-62023214D01*
X98928571Y-61785119D01*
X99166666Y-61666071D01*
X99761904Y-61666071D01*
X100000000Y-61547023D01*
X101190476Y-62618452D02*
X101190476Y-60951785D01*
X101190476Y-61427976D02*
X101309523Y-61189880D01*
X101428571Y-61070833D01*
X101666666Y-60951785D01*
X101904761Y-60951785D01*
X103809523Y-62618452D02*
X103809523Y-60118452D01*
X103809523Y-62499404D02*
X103571428Y-62618452D01*
X103095238Y-62618452D01*
X102857142Y-62499404D01*
X102738095Y-62380357D01*
X102619047Y-62142261D01*
X102619047Y-61427976D01*
X102738095Y-61189880D01*
X102857142Y-61070833D01*
X103095238Y-60951785D01*
X103571428Y-60951785D01*
X103809523Y-61070833D01*
X82321428Y-66643452D02*
X82321428Y-64143452D01*
X83511904Y-64976785D02*
X83511904Y-66643452D01*
X83511904Y-65214880D02*
X83630952Y-65095833D01*
X83869047Y-64976785D01*
X84226190Y-64976785D01*
X84464285Y-65095833D01*
X84583333Y-65333928D01*
X84583333Y-66643452D01*
X85416666Y-64976785D02*
X86369047Y-64976785D01*
X85773809Y-64143452D02*
X85773809Y-66286309D01*
X85892857Y-66524404D01*
X86130952Y-66643452D01*
X86369047Y-66643452D01*
X88154761Y-66524404D02*
X87916666Y-66643452D01*
X87440476Y-66643452D01*
X87202380Y-66524404D01*
X87083333Y-66286309D01*
X87083333Y-65333928D01*
X87202380Y-65095833D01*
X87440476Y-64976785D01*
X87916666Y-64976785D01*
X88154761Y-65095833D01*
X88273809Y-65333928D01*
X88273809Y-65572023D01*
X87083333Y-65810119D01*
X89345238Y-66643452D02*
X89345238Y-64976785D01*
X89345238Y-65452976D02*
X89464285Y-65214880D01*
X89583333Y-65095833D01*
X89821428Y-64976785D01*
X90059523Y-64976785D01*
X90535714Y-64976785D02*
X91488095Y-64976785D01*
X90892857Y-66643452D02*
X90892857Y-64500595D01*
X91011904Y-64262500D01*
X91250000Y-64143452D01*
X91488095Y-64143452D01*
X93392857Y-66643452D02*
X93392857Y-65333928D01*
X93273809Y-65095833D01*
X93035714Y-64976785D01*
X92559523Y-64976785D01*
X92321428Y-65095833D01*
X93392857Y-66524404D02*
X93154761Y-66643452D01*
X92559523Y-66643452D01*
X92321428Y-66524404D01*
X92202380Y-66286309D01*
X92202380Y-66048214D01*
X92321428Y-65810119D01*
X92559523Y-65691071D01*
X93154761Y-65691071D01*
X93392857Y-65572023D01*
X95654761Y-66524404D02*
X95416666Y-66643452D01*
X94940476Y-66643452D01*
X94702380Y-66524404D01*
X94583333Y-66405357D01*
X94464285Y-66167261D01*
X94464285Y-65452976D01*
X94583333Y-65214880D01*
X94702380Y-65095833D01*
X94940476Y-64976785D01*
X95416666Y-64976785D01*
X95654761Y-65095833D01*
X97678571Y-66524404D02*
X97440476Y-66643452D01*
X96964285Y-66643452D01*
X96726190Y-66524404D01*
X96607142Y-66286309D01*
X96607142Y-65333928D01*
X96726190Y-65095833D01*
X96964285Y-64976785D01*
X97440476Y-64976785D01*
X97678571Y-65095833D01*
X97797619Y-65333928D01*
X97797619Y-65572023D01*
X96607142Y-65810119D01*
%TO.C,U5*%
X159048095Y-108342380D02*
X159048095Y-109151904D01*
X159095714Y-109247142D01*
X159143333Y-109294761D01*
X159238571Y-109342380D01*
X159429047Y-109342380D01*
X159524285Y-109294761D01*
X159571904Y-109247142D01*
X159619523Y-109151904D01*
X159619523Y-108342380D01*
X160571904Y-108342380D02*
X160095714Y-108342380D01*
X160048095Y-108818571D01*
X160095714Y-108770952D01*
X160190952Y-108723333D01*
X160429047Y-108723333D01*
X160524285Y-108770952D01*
X160571904Y-108818571D01*
X160619523Y-108913809D01*
X160619523Y-109151904D01*
X160571904Y-109247142D01*
X160524285Y-109294761D01*
X160429047Y-109342380D01*
X160190952Y-109342380D01*
X160095714Y-109294761D01*
X160048095Y-109247142D01*
%TO.C,U4*%
X181048095Y-71882380D02*
X181048095Y-72691904D01*
X181095714Y-72787142D01*
X181143333Y-72834761D01*
X181238571Y-72882380D01*
X181429047Y-72882380D01*
X181524285Y-72834761D01*
X181571904Y-72787142D01*
X181619523Y-72691904D01*
X181619523Y-71882380D01*
X182524285Y-72215714D02*
X182524285Y-72882380D01*
X182286190Y-71834761D02*
X182048095Y-72549047D01*
X182667142Y-72549047D01*
%TO.C,U6*%
X173048095Y-110882380D02*
X173048095Y-111691904D01*
X173095714Y-111787142D01*
X173143333Y-111834761D01*
X173238571Y-111882380D01*
X173429047Y-111882380D01*
X173524285Y-111834761D01*
X173571904Y-111787142D01*
X173619523Y-111691904D01*
X173619523Y-110882380D01*
X174524285Y-110882380D02*
X174333809Y-110882380D01*
X174238571Y-110930000D01*
X174190952Y-110977619D01*
X174095714Y-111120476D01*
X174048095Y-111310952D01*
X174048095Y-111691904D01*
X174095714Y-111787142D01*
X174143333Y-111834761D01*
X174238571Y-111882380D01*
X174429047Y-111882380D01*
X174524285Y-111834761D01*
X174571904Y-111787142D01*
X174619523Y-111691904D01*
X174619523Y-111453809D01*
X174571904Y-111358571D01*
X174524285Y-111310952D01*
X174429047Y-111263333D01*
X174238571Y-111263333D01*
X174143333Y-111310952D01*
X174095714Y-111358571D01*
X174048095Y-111453809D01*
%TO.C,U3*%
X143048095Y-71882380D02*
X143048095Y-72691904D01*
X143095714Y-72787142D01*
X143143333Y-72834761D01*
X143238571Y-72882380D01*
X143429047Y-72882380D01*
X143524285Y-72834761D01*
X143571904Y-72787142D01*
X143619523Y-72691904D01*
X143619523Y-71882380D01*
X144000476Y-71882380D02*
X144619523Y-71882380D01*
X144286190Y-72263333D01*
X144429047Y-72263333D01*
X144524285Y-72310952D01*
X144571904Y-72358571D01*
X144619523Y-72453809D01*
X144619523Y-72691904D01*
X144571904Y-72787142D01*
X144524285Y-72834761D01*
X144429047Y-72882380D01*
X144143333Y-72882380D01*
X144048095Y-72834761D01*
X144000476Y-72787142D01*
%TO.C,D1*%
X191307980Y-101830095D02*
X190307980Y-101830095D01*
X190307980Y-101592000D01*
X190355600Y-101449142D01*
X190450838Y-101353904D01*
X190546076Y-101306285D01*
X190736552Y-101258666D01*
X190879409Y-101258666D01*
X191069885Y-101306285D01*
X191165123Y-101353904D01*
X191260361Y-101449142D01*
X191307980Y-101592000D01*
X191307980Y-101830095D01*
X191307980Y-100306285D02*
X191307980Y-100877714D01*
X191307980Y-100592000D02*
X190307980Y-100592000D01*
X190450838Y-100687238D01*
X190546076Y-100782476D01*
X190593695Y-100877714D01*
%TO.C,D2*%
X191409580Y-108434095D02*
X190409580Y-108434095D01*
X190409580Y-108196000D01*
X190457200Y-108053142D01*
X190552438Y-107957904D01*
X190647676Y-107910285D01*
X190838152Y-107862666D01*
X190981009Y-107862666D01*
X191171485Y-107910285D01*
X191266723Y-107957904D01*
X191361961Y-108053142D01*
X191409580Y-108196000D01*
X191409580Y-108434095D01*
X190504819Y-107481714D02*
X190457200Y-107434095D01*
X190409580Y-107338857D01*
X190409580Y-107100761D01*
X190457200Y-107005523D01*
X190504819Y-106957904D01*
X190600057Y-106910285D01*
X190695295Y-106910285D01*
X190838152Y-106957904D01*
X191409580Y-107529333D01*
X191409580Y-106910285D01*
%TO.C,D3*%
X191460380Y-115038095D02*
X190460380Y-115038095D01*
X190460380Y-114800000D01*
X190508000Y-114657142D01*
X190603238Y-114561904D01*
X190698476Y-114514285D01*
X190888952Y-114466666D01*
X191031809Y-114466666D01*
X191222285Y-114514285D01*
X191317523Y-114561904D01*
X191412761Y-114657142D01*
X191460380Y-114800000D01*
X191460380Y-115038095D01*
X190460380Y-114133333D02*
X190460380Y-113514285D01*
X190841333Y-113847619D01*
X190841333Y-113704761D01*
X190888952Y-113609523D01*
X190936571Y-113561904D01*
X191031809Y-113514285D01*
X191269904Y-113514285D01*
X191365142Y-113561904D01*
X191412761Y-113609523D01*
X191460380Y-113704761D01*
X191460380Y-113990476D01*
X191412761Y-114085714D01*
X191365142Y-114133333D01*
%TO.C,D4*%
X191409580Y-121540495D02*
X190409580Y-121540495D01*
X190409580Y-121302400D01*
X190457200Y-121159542D01*
X190552438Y-121064304D01*
X190647676Y-121016685D01*
X190838152Y-120969066D01*
X190981009Y-120969066D01*
X191171485Y-121016685D01*
X191266723Y-121064304D01*
X191361961Y-121159542D01*
X191409580Y-121302400D01*
X191409580Y-121540495D01*
X190742914Y-120111923D02*
X191409580Y-120111923D01*
X190361961Y-120350019D02*
X191076247Y-120588114D01*
X191076247Y-119969066D01*
%TO.C,D5*%
X191587380Y-128119095D02*
X190587380Y-128119095D01*
X190587380Y-127881000D01*
X190635000Y-127738142D01*
X190730238Y-127642904D01*
X190825476Y-127595285D01*
X191015952Y-127547666D01*
X191158809Y-127547666D01*
X191349285Y-127595285D01*
X191444523Y-127642904D01*
X191539761Y-127738142D01*
X191587380Y-127881000D01*
X191587380Y-128119095D01*
X190587380Y-126642904D02*
X190587380Y-127119095D01*
X191063571Y-127166714D01*
X191015952Y-127119095D01*
X190968333Y-127023857D01*
X190968333Y-126785761D01*
X191015952Y-126690523D01*
X191063571Y-126642904D01*
X191158809Y-126595285D01*
X191396904Y-126595285D01*
X191492142Y-126642904D01*
X191539761Y-126690523D01*
X191587380Y-126785761D01*
X191587380Y-127023857D01*
X191539761Y-127119095D01*
X191492142Y-127166714D01*
%TO.C,D6*%
X191492380Y-133168095D02*
X190492380Y-133168095D01*
X190492380Y-132930000D01*
X190540000Y-132787142D01*
X190635238Y-132691904D01*
X190730476Y-132644285D01*
X190920952Y-132596666D01*
X191063809Y-132596666D01*
X191254285Y-132644285D01*
X191349523Y-132691904D01*
X191444761Y-132787142D01*
X191492380Y-132930000D01*
X191492380Y-133168095D01*
X190492380Y-131739523D02*
X190492380Y-131930000D01*
X190540000Y-132025238D01*
X190587619Y-132072857D01*
X190730476Y-132168095D01*
X190920952Y-132215714D01*
X191301904Y-132215714D01*
X191397142Y-132168095D01*
X191444761Y-132120476D01*
X191492380Y-132025238D01*
X191492380Y-131834761D01*
X191444761Y-131739523D01*
X191397142Y-131691904D01*
X191301904Y-131644285D01*
X191063809Y-131644285D01*
X190968571Y-131691904D01*
X190920952Y-131739523D01*
X190873333Y-131834761D01*
X190873333Y-132025238D01*
X190920952Y-132120476D01*
X190968571Y-132168095D01*
X191063809Y-132215714D01*
%TO.C,U1*%
X95123095Y-69385380D02*
X95123095Y-70194904D01*
X95170714Y-70290142D01*
X95218333Y-70337761D01*
X95313571Y-70385380D01*
X95504047Y-70385380D01*
X95599285Y-70337761D01*
X95646904Y-70290142D01*
X95694523Y-70194904D01*
X95694523Y-69385380D01*
X96694523Y-70385380D02*
X96123095Y-70385380D01*
X96408809Y-70385380D02*
X96408809Y-69385380D01*
X96313571Y-69528238D01*
X96218333Y-69623476D01*
X96123095Y-69671095D01*
X93146904Y-92825380D02*
X93146904Y-91825380D01*
X93385000Y-91825380D01*
X93527857Y-91873000D01*
X93623095Y-91968238D01*
X93670714Y-92063476D01*
X93718333Y-92253952D01*
X93718333Y-92396809D01*
X93670714Y-92587285D01*
X93623095Y-92682523D01*
X93527857Y-92777761D01*
X93385000Y-92825380D01*
X93146904Y-92825380D01*
X94146904Y-92825380D02*
X94146904Y-91825380D01*
X94480238Y-92539666D01*
X94813571Y-91825380D01*
X94813571Y-92825380D01*
X95337380Y-92825380D02*
X95527857Y-92825380D01*
X95623095Y-92777761D01*
X95670714Y-92730142D01*
X95765952Y-92587285D01*
X95813571Y-92396809D01*
X95813571Y-92015857D01*
X95765952Y-91920619D01*
X95718333Y-91873000D01*
X95623095Y-91825380D01*
X95432619Y-91825380D01*
X95337380Y-91873000D01*
X95289761Y-91920619D01*
X95242142Y-92015857D01*
X95242142Y-92253952D01*
X95289761Y-92349190D01*
X95337380Y-92396809D01*
X95432619Y-92444428D01*
X95623095Y-92444428D01*
X95718333Y-92396809D01*
X95765952Y-92349190D01*
X95813571Y-92253952D01*
X96670714Y-91825380D02*
X96480238Y-91825380D01*
X96385000Y-91873000D01*
X96337380Y-91920619D01*
X96242142Y-92063476D01*
X96194523Y-92253952D01*
X96194523Y-92634904D01*
X96242142Y-92730142D01*
X96289761Y-92777761D01*
X96385000Y-92825380D01*
X96575476Y-92825380D01*
X96670714Y-92777761D01*
X96718333Y-92730142D01*
X96765952Y-92634904D01*
X96765952Y-92396809D01*
X96718333Y-92301571D01*
X96670714Y-92253952D01*
X96575476Y-92206333D01*
X96385000Y-92206333D01*
X96289761Y-92253952D01*
X96242142Y-92301571D01*
X96194523Y-92396809D01*
X97385000Y-91825380D02*
X97480238Y-91825380D01*
X97575476Y-91873000D01*
X97623095Y-91920619D01*
X97670714Y-92015857D01*
X97718333Y-92206333D01*
X97718333Y-92444428D01*
X97670714Y-92634904D01*
X97623095Y-92730142D01*
X97575476Y-92777761D01*
X97480238Y-92825380D01*
X97385000Y-92825380D01*
X97289761Y-92777761D01*
X97242142Y-92730142D01*
X97194523Y-92634904D01*
X97146904Y-92444428D01*
X97146904Y-92206333D01*
X97194523Y-92015857D01*
X97242142Y-91920619D01*
X97289761Y-91873000D01*
X97385000Y-91825380D01*
X98099285Y-91920619D02*
X98146904Y-91873000D01*
X98242142Y-91825380D01*
X98480238Y-91825380D01*
X98575476Y-91873000D01*
X98623095Y-91920619D01*
X98670714Y-92015857D01*
X98670714Y-92111095D01*
X98623095Y-92253952D01*
X98051666Y-92825380D01*
X98670714Y-92825380D01*
%TO.C,D8*%
X62682380Y-123928095D02*
X61682380Y-123928095D01*
X61682380Y-123690000D01*
X61730000Y-123547142D01*
X61825238Y-123451904D01*
X61920476Y-123404285D01*
X62110952Y-123356666D01*
X62253809Y-123356666D01*
X62444285Y-123404285D01*
X62539523Y-123451904D01*
X62634761Y-123547142D01*
X62682380Y-123690000D01*
X62682380Y-123928095D01*
X62110952Y-122785238D02*
X62063333Y-122880476D01*
X62015714Y-122928095D01*
X61920476Y-122975714D01*
X61872857Y-122975714D01*
X61777619Y-122928095D01*
X61730000Y-122880476D01*
X61682380Y-122785238D01*
X61682380Y-122594761D01*
X61730000Y-122499523D01*
X61777619Y-122451904D01*
X61872857Y-122404285D01*
X61920476Y-122404285D01*
X62015714Y-122451904D01*
X62063333Y-122499523D01*
X62110952Y-122594761D01*
X62110952Y-122785238D01*
X62158571Y-122880476D01*
X62206190Y-122928095D01*
X62301428Y-122975714D01*
X62491904Y-122975714D01*
X62587142Y-122928095D01*
X62634761Y-122880476D01*
X62682380Y-122785238D01*
X62682380Y-122594761D01*
X62634761Y-122499523D01*
X62587142Y-122451904D01*
X62491904Y-122404285D01*
X62301428Y-122404285D01*
X62206190Y-122451904D01*
X62158571Y-122499523D01*
X62110952Y-122594761D01*
X57602380Y-129301666D02*
X57602380Y-129873095D01*
X57602380Y-129587380D02*
X56602380Y-129587380D01*
X56745238Y-129682619D01*
X56840476Y-129777857D01*
X56888095Y-129873095D01*
X57602380Y-128873095D02*
X56602380Y-128873095D01*
X57602380Y-128301666D01*
X56602380Y-128301666D01*
X57602380Y-127777857D02*
X57602380Y-127587380D01*
X57554761Y-127492142D01*
X57507142Y-127444523D01*
X57364285Y-127349285D01*
X57173809Y-127301666D01*
X56792857Y-127301666D01*
X56697619Y-127349285D01*
X56650000Y-127396904D01*
X56602380Y-127492142D01*
X56602380Y-127682619D01*
X56650000Y-127777857D01*
X56697619Y-127825476D01*
X56792857Y-127873095D01*
X57030952Y-127873095D01*
X57126190Y-127825476D01*
X57173809Y-127777857D01*
X57221428Y-127682619D01*
X57221428Y-127492142D01*
X57173809Y-127396904D01*
X57126190Y-127349285D01*
X57030952Y-127301666D01*
X57602380Y-126349285D02*
X57602380Y-126920714D01*
X57602380Y-126635000D02*
X56602380Y-126635000D01*
X56745238Y-126730238D01*
X56840476Y-126825476D01*
X56888095Y-126920714D01*
X56935714Y-125492142D02*
X57602380Y-125492142D01*
X56554761Y-125730238D02*
X57269047Y-125968333D01*
X57269047Y-125349285D01*
X62682380Y-133611904D02*
X61682380Y-133611904D01*
X62682380Y-133040476D02*
X62110952Y-133469047D01*
X61682380Y-133040476D02*
X62253809Y-133611904D01*
%TO.C,R1*%
X186253333Y-96782380D02*
X185920000Y-96306190D01*
X185681904Y-96782380D02*
X185681904Y-95782380D01*
X186062857Y-95782380D01*
X186158095Y-95830000D01*
X186205714Y-95877619D01*
X186253333Y-95972857D01*
X186253333Y-96115714D01*
X186205714Y-96210952D01*
X186158095Y-96258571D01*
X186062857Y-96306190D01*
X185681904Y-96306190D01*
X187205714Y-96782380D02*
X186634285Y-96782380D01*
X186920000Y-96782380D02*
X186920000Y-95782380D01*
X186824761Y-95925238D01*
X186729523Y-96020476D01*
X186634285Y-96068095D01*
%TO.C,R2*%
X186253333Y-103282380D02*
X185920000Y-102806190D01*
X185681904Y-103282380D02*
X185681904Y-102282380D01*
X186062857Y-102282380D01*
X186158095Y-102330000D01*
X186205714Y-102377619D01*
X186253333Y-102472857D01*
X186253333Y-102615714D01*
X186205714Y-102710952D01*
X186158095Y-102758571D01*
X186062857Y-102806190D01*
X185681904Y-102806190D01*
X186634285Y-102377619D02*
X186681904Y-102330000D01*
X186777142Y-102282380D01*
X187015238Y-102282380D01*
X187110476Y-102330000D01*
X187158095Y-102377619D01*
X187205714Y-102472857D01*
X187205714Y-102568095D01*
X187158095Y-102710952D01*
X186586666Y-103282380D01*
X187205714Y-103282380D01*
%TO.C,R3*%
X186253333Y-109782380D02*
X185920000Y-109306190D01*
X185681904Y-109782380D02*
X185681904Y-108782380D01*
X186062857Y-108782380D01*
X186158095Y-108830000D01*
X186205714Y-108877619D01*
X186253333Y-108972857D01*
X186253333Y-109115714D01*
X186205714Y-109210952D01*
X186158095Y-109258571D01*
X186062857Y-109306190D01*
X185681904Y-109306190D01*
X186586666Y-108782380D02*
X187205714Y-108782380D01*
X186872380Y-109163333D01*
X187015238Y-109163333D01*
X187110476Y-109210952D01*
X187158095Y-109258571D01*
X187205714Y-109353809D01*
X187205714Y-109591904D01*
X187158095Y-109687142D01*
X187110476Y-109734761D01*
X187015238Y-109782380D01*
X186729523Y-109782380D01*
X186634285Y-109734761D01*
X186586666Y-109687142D01*
%TO.C,R4*%
X186253333Y-116282380D02*
X185920000Y-115806190D01*
X185681904Y-116282380D02*
X185681904Y-115282380D01*
X186062857Y-115282380D01*
X186158095Y-115330000D01*
X186205714Y-115377619D01*
X186253333Y-115472857D01*
X186253333Y-115615714D01*
X186205714Y-115710952D01*
X186158095Y-115758571D01*
X186062857Y-115806190D01*
X185681904Y-115806190D01*
X187110476Y-115615714D02*
X187110476Y-116282380D01*
X186872380Y-115234761D02*
X186634285Y-115949047D01*
X187253333Y-115949047D01*
%TO.C,R5*%
X186253333Y-122782380D02*
X185920000Y-122306190D01*
X185681904Y-122782380D02*
X185681904Y-121782380D01*
X186062857Y-121782380D01*
X186158095Y-121830000D01*
X186205714Y-121877619D01*
X186253333Y-121972857D01*
X186253333Y-122115714D01*
X186205714Y-122210952D01*
X186158095Y-122258571D01*
X186062857Y-122306190D01*
X185681904Y-122306190D01*
X187158095Y-121782380D02*
X186681904Y-121782380D01*
X186634285Y-122258571D01*
X186681904Y-122210952D01*
X186777142Y-122163333D01*
X187015238Y-122163333D01*
X187110476Y-122210952D01*
X187158095Y-122258571D01*
X187205714Y-122353809D01*
X187205714Y-122591904D01*
X187158095Y-122687142D01*
X187110476Y-122734761D01*
X187015238Y-122782380D01*
X186777142Y-122782380D01*
X186681904Y-122734761D01*
X186634285Y-122687142D01*
%TO.C,R6*%
X186253333Y-129282380D02*
X185920000Y-128806190D01*
X185681904Y-129282380D02*
X185681904Y-128282380D01*
X186062857Y-128282380D01*
X186158095Y-128330000D01*
X186205714Y-128377619D01*
X186253333Y-128472857D01*
X186253333Y-128615714D01*
X186205714Y-128710952D01*
X186158095Y-128758571D01*
X186062857Y-128806190D01*
X185681904Y-128806190D01*
X187110476Y-128282380D02*
X186920000Y-128282380D01*
X186824761Y-128330000D01*
X186777142Y-128377619D01*
X186681904Y-128520476D01*
X186634285Y-128710952D01*
X186634285Y-129091904D01*
X186681904Y-129187142D01*
X186729523Y-129234761D01*
X186824761Y-129282380D01*
X187015238Y-129282380D01*
X187110476Y-129234761D01*
X187158095Y-129187142D01*
X187205714Y-129091904D01*
X187205714Y-128853809D01*
X187158095Y-128758571D01*
X187110476Y-128710952D01*
X187015238Y-128663333D01*
X186824761Y-128663333D01*
X186729523Y-128710952D01*
X186681904Y-128758571D01*
X186634285Y-128853809D01*
%TO.C,R7*%
X81902380Y-73191666D02*
X81426190Y-73525000D01*
X81902380Y-73763095D02*
X80902380Y-73763095D01*
X80902380Y-73382142D01*
X80950000Y-73286904D01*
X80997619Y-73239285D01*
X81092857Y-73191666D01*
X81235714Y-73191666D01*
X81330952Y-73239285D01*
X81378571Y-73286904D01*
X81426190Y-73382142D01*
X81426190Y-73763095D01*
X80902380Y-72858333D02*
X80902380Y-72191666D01*
X81902380Y-72620238D01*
%TO.C,R8*%
X105452380Y-65666666D02*
X104976190Y-66000000D01*
X105452380Y-66238095D02*
X104452380Y-66238095D01*
X104452380Y-65857142D01*
X104500000Y-65761904D01*
X104547619Y-65714285D01*
X104642857Y-65666666D01*
X104785714Y-65666666D01*
X104880952Y-65714285D01*
X104928571Y-65761904D01*
X104976190Y-65857142D01*
X104976190Y-66238095D01*
X104880952Y-65095238D02*
X104833333Y-65190476D01*
X104785714Y-65238095D01*
X104690476Y-65285714D01*
X104642857Y-65285714D01*
X104547619Y-65238095D01*
X104500000Y-65190476D01*
X104452380Y-65095238D01*
X104452380Y-64904761D01*
X104500000Y-64809523D01*
X104547619Y-64761904D01*
X104642857Y-64714285D01*
X104690476Y-64714285D01*
X104785714Y-64761904D01*
X104833333Y-64809523D01*
X104880952Y-64904761D01*
X104880952Y-65095238D01*
X104928571Y-65190476D01*
X104976190Y-65238095D01*
X105071428Y-65285714D01*
X105261904Y-65285714D01*
X105357142Y-65238095D01*
X105404761Y-65190476D01*
X105452380Y-65095238D01*
X105452380Y-64904761D01*
X105404761Y-64809523D01*
X105357142Y-64761904D01*
X105261904Y-64714285D01*
X105071428Y-64714285D01*
X104976190Y-64761904D01*
X104928571Y-64809523D01*
X104880952Y-64904761D01*
%TO.C,R9*%
X76017380Y-85256666D02*
X75541190Y-85590000D01*
X76017380Y-85828095D02*
X75017380Y-85828095D01*
X75017380Y-85447142D01*
X75065000Y-85351904D01*
X75112619Y-85304285D01*
X75207857Y-85256666D01*
X75350714Y-85256666D01*
X75445952Y-85304285D01*
X75493571Y-85351904D01*
X75541190Y-85447142D01*
X75541190Y-85828095D01*
X76017380Y-84780476D02*
X76017380Y-84590000D01*
X75969761Y-84494761D01*
X75922142Y-84447142D01*
X75779285Y-84351904D01*
X75588809Y-84304285D01*
X75207857Y-84304285D01*
X75112619Y-84351904D01*
X75065000Y-84399523D01*
X75017380Y-84494761D01*
X75017380Y-84685238D01*
X75065000Y-84780476D01*
X75112619Y-84828095D01*
X75207857Y-84875714D01*
X75445952Y-84875714D01*
X75541190Y-84828095D01*
X75588809Y-84780476D01*
X75636428Y-84685238D01*
X75636428Y-84494761D01*
X75588809Y-84399523D01*
X75541190Y-84351904D01*
X75445952Y-84304285D01*
X75112619Y-93876666D02*
X75065000Y-93829047D01*
X75017380Y-93733809D01*
X75017380Y-93495714D01*
X75065000Y-93400476D01*
X75112619Y-93352857D01*
X75207857Y-93305238D01*
X75303095Y-93305238D01*
X75445952Y-93352857D01*
X76017380Y-93924285D01*
X76017380Y-93305238D01*
X75017380Y-92971904D02*
X75017380Y-92305238D01*
X76017380Y-92733809D01*
X76017380Y-91924285D02*
X75017380Y-91924285D01*
X75636428Y-91829047D02*
X76017380Y-91543333D01*
X75350714Y-91543333D02*
X75731666Y-91924285D01*
%TO.C,R10*%
X72842380Y-85732857D02*
X72366190Y-86066190D01*
X72842380Y-86304285D02*
X71842380Y-86304285D01*
X71842380Y-85923333D01*
X71890000Y-85828095D01*
X71937619Y-85780476D01*
X72032857Y-85732857D01*
X72175714Y-85732857D01*
X72270952Y-85780476D01*
X72318571Y-85828095D01*
X72366190Y-85923333D01*
X72366190Y-86304285D01*
X72842380Y-84780476D02*
X72842380Y-85351904D01*
X72842380Y-85066190D02*
X71842380Y-85066190D01*
X71985238Y-85161428D01*
X72080476Y-85256666D01*
X72128095Y-85351904D01*
X71842380Y-84161428D02*
X71842380Y-84066190D01*
X71890000Y-83970952D01*
X71937619Y-83923333D01*
X72032857Y-83875714D01*
X72223333Y-83828095D01*
X72461428Y-83828095D01*
X72651904Y-83875714D01*
X72747142Y-83923333D01*
X72794761Y-83970952D01*
X72842380Y-84066190D01*
X72842380Y-84161428D01*
X72794761Y-84256666D01*
X72747142Y-84304285D01*
X72651904Y-84351904D01*
X72461428Y-84399523D01*
X72223333Y-84399523D01*
X72032857Y-84351904D01*
X71937619Y-84304285D01*
X71890000Y-84256666D01*
X71842380Y-84161428D01*
X71937619Y-93876666D02*
X71890000Y-93829047D01*
X71842380Y-93733809D01*
X71842380Y-93495714D01*
X71890000Y-93400476D01*
X71937619Y-93352857D01*
X72032857Y-93305238D01*
X72128095Y-93305238D01*
X72270952Y-93352857D01*
X72842380Y-93924285D01*
X72842380Y-93305238D01*
X71842380Y-92971904D02*
X71842380Y-92305238D01*
X72842380Y-92733809D01*
X72842380Y-91924285D02*
X71842380Y-91924285D01*
X72461428Y-91829047D02*
X72842380Y-91543333D01*
X72175714Y-91543333D02*
X72556666Y-91924285D01*
%TO.C,R11*%
X69477380Y-85732857D02*
X69001190Y-86066190D01*
X69477380Y-86304285D02*
X68477380Y-86304285D01*
X68477380Y-85923333D01*
X68525000Y-85828095D01*
X68572619Y-85780476D01*
X68667857Y-85732857D01*
X68810714Y-85732857D01*
X68905952Y-85780476D01*
X68953571Y-85828095D01*
X69001190Y-85923333D01*
X69001190Y-86304285D01*
X69477380Y-84780476D02*
X69477380Y-85351904D01*
X69477380Y-85066190D02*
X68477380Y-85066190D01*
X68620238Y-85161428D01*
X68715476Y-85256666D01*
X68763095Y-85351904D01*
X69477380Y-83828095D02*
X69477380Y-84399523D01*
X69477380Y-84113809D02*
X68477380Y-84113809D01*
X68620238Y-84209047D01*
X68715476Y-84304285D01*
X68763095Y-84399523D01*
X68762619Y-93876666D02*
X68715000Y-93829047D01*
X68667380Y-93733809D01*
X68667380Y-93495714D01*
X68715000Y-93400476D01*
X68762619Y-93352857D01*
X68857857Y-93305238D01*
X68953095Y-93305238D01*
X69095952Y-93352857D01*
X69667380Y-93924285D01*
X69667380Y-93305238D01*
X68667380Y-92971904D02*
X68667380Y-92305238D01*
X69667380Y-92733809D01*
X69667380Y-91924285D02*
X68667380Y-91924285D01*
X69286428Y-91829047D02*
X69667380Y-91543333D01*
X69000714Y-91543333D02*
X69381666Y-91924285D01*
%TO.C,R13*%
X63317380Y-85642857D02*
X62841190Y-85976190D01*
X63317380Y-86214285D02*
X62317380Y-86214285D01*
X62317380Y-85833333D01*
X62365000Y-85738095D01*
X62412619Y-85690476D01*
X62507857Y-85642857D01*
X62650714Y-85642857D01*
X62745952Y-85690476D01*
X62793571Y-85738095D01*
X62841190Y-85833333D01*
X62841190Y-86214285D01*
X63317380Y-84690476D02*
X63317380Y-85261904D01*
X63317380Y-84976190D02*
X62317380Y-84976190D01*
X62460238Y-85071428D01*
X62555476Y-85166666D01*
X62603095Y-85261904D01*
X62317380Y-84357142D02*
X62317380Y-83738095D01*
X62698333Y-84071428D01*
X62698333Y-83928571D01*
X62745952Y-83833333D01*
X62793571Y-83785714D01*
X62888809Y-83738095D01*
X63126904Y-83738095D01*
X63222142Y-83785714D01*
X63269761Y-83833333D01*
X63317380Y-83928571D01*
X63317380Y-84214285D01*
X63269761Y-84309523D01*
X63222142Y-84357142D01*
X62412619Y-93876666D02*
X62365000Y-93829047D01*
X62317380Y-93733809D01*
X62317380Y-93495714D01*
X62365000Y-93400476D01*
X62412619Y-93352857D01*
X62507857Y-93305238D01*
X62603095Y-93305238D01*
X62745952Y-93352857D01*
X63317380Y-93924285D01*
X63317380Y-93305238D01*
X62317380Y-92971904D02*
X62317380Y-92305238D01*
X63317380Y-92733809D01*
X63317380Y-91924285D02*
X62317380Y-91924285D01*
X62936428Y-91829047D02*
X63317380Y-91543333D01*
X62650714Y-91543333D02*
X63031666Y-91924285D01*
%TO.C,R14*%
X60008380Y-85642857D02*
X59532190Y-85976190D01*
X60008380Y-86214285D02*
X59008380Y-86214285D01*
X59008380Y-85833333D01*
X59056000Y-85738095D01*
X59103619Y-85690476D01*
X59198857Y-85642857D01*
X59341714Y-85642857D01*
X59436952Y-85690476D01*
X59484571Y-85738095D01*
X59532190Y-85833333D01*
X59532190Y-86214285D01*
X60008380Y-84690476D02*
X60008380Y-85261904D01*
X60008380Y-84976190D02*
X59008380Y-84976190D01*
X59151238Y-85071428D01*
X59246476Y-85166666D01*
X59294095Y-85261904D01*
X59341714Y-83833333D02*
X60008380Y-83833333D01*
X58960761Y-84071428D02*
X59675047Y-84309523D01*
X59675047Y-83690476D01*
X58793619Y-93876666D02*
X58746000Y-93829047D01*
X58698380Y-93733809D01*
X58698380Y-93495714D01*
X58746000Y-93400476D01*
X58793619Y-93352857D01*
X58888857Y-93305238D01*
X58984095Y-93305238D01*
X59126952Y-93352857D01*
X59698380Y-93924285D01*
X59698380Y-93305238D01*
X58698380Y-92971904D02*
X58698380Y-92305238D01*
X59698380Y-92733809D01*
X59698380Y-91924285D02*
X58698380Y-91924285D01*
X59317428Y-91829047D02*
X59698380Y-91543333D01*
X59031714Y-91543333D02*
X59412666Y-91924285D01*
%TO.C,H1*%
X54738095Y-51752380D02*
X54738095Y-50752380D01*
X54738095Y-51228571D02*
X55309523Y-51228571D01*
X55309523Y-51752380D02*
X55309523Y-50752380D01*
X56309523Y-51752380D02*
X55738095Y-51752380D01*
X56023809Y-51752380D02*
X56023809Y-50752380D01*
X55928571Y-50895238D01*
X55833333Y-50990476D01*
X55738095Y-51038095D01*
%TO.C,H2*%
X194238095Y-51252380D02*
X194238095Y-50252380D01*
X194238095Y-50728571D02*
X194809523Y-50728571D01*
X194809523Y-51252380D02*
X194809523Y-50252380D01*
X195238095Y-50347619D02*
X195285714Y-50300000D01*
X195380952Y-50252380D01*
X195619047Y-50252380D01*
X195714285Y-50300000D01*
X195761904Y-50347619D01*
X195809523Y-50442857D01*
X195809523Y-50538095D01*
X195761904Y-50680952D01*
X195190476Y-51252380D01*
X195809523Y-51252380D01*
%TO.C,H3*%
X194238095Y-141252380D02*
X194238095Y-140252380D01*
X194238095Y-140728571D02*
X194809523Y-140728571D01*
X194809523Y-141252380D02*
X194809523Y-140252380D01*
X195190476Y-140252380D02*
X195809523Y-140252380D01*
X195476190Y-140633333D01*
X195619047Y-140633333D01*
X195714285Y-140680952D01*
X195761904Y-140728571D01*
X195809523Y-140823809D01*
X195809523Y-141061904D01*
X195761904Y-141157142D01*
X195714285Y-141204761D01*
X195619047Y-141252380D01*
X195333333Y-141252380D01*
X195238095Y-141204761D01*
X195190476Y-141157142D01*
%TO.C,H4*%
X54738095Y-141252380D02*
X54738095Y-140252380D01*
X54738095Y-140728571D02*
X55309523Y-140728571D01*
X55309523Y-141252380D02*
X55309523Y-140252380D01*
X56214285Y-140585714D02*
X56214285Y-141252380D01*
X55976190Y-140204761D02*
X55738095Y-140919047D01*
X56357142Y-140919047D01*
%TO.C,R12*%
X66492380Y-85732857D02*
X66016190Y-86066190D01*
X66492380Y-86304285D02*
X65492380Y-86304285D01*
X65492380Y-85923333D01*
X65540000Y-85828095D01*
X65587619Y-85780476D01*
X65682857Y-85732857D01*
X65825714Y-85732857D01*
X65920952Y-85780476D01*
X65968571Y-85828095D01*
X66016190Y-85923333D01*
X66016190Y-86304285D01*
X66492380Y-84780476D02*
X66492380Y-85351904D01*
X66492380Y-85066190D02*
X65492380Y-85066190D01*
X65635238Y-85161428D01*
X65730476Y-85256666D01*
X65778095Y-85351904D01*
X65587619Y-84399523D02*
X65540000Y-84351904D01*
X65492380Y-84256666D01*
X65492380Y-84018571D01*
X65540000Y-83923333D01*
X65587619Y-83875714D01*
X65682857Y-83828095D01*
X65778095Y-83828095D01*
X65920952Y-83875714D01*
X66492380Y-84447142D01*
X66492380Y-83828095D01*
X65587619Y-93876666D02*
X65540000Y-93829047D01*
X65492380Y-93733809D01*
X65492380Y-93495714D01*
X65540000Y-93400476D01*
X65587619Y-93352857D01*
X65682857Y-93305238D01*
X65778095Y-93305238D01*
X65920952Y-93352857D01*
X66492380Y-93924285D01*
X66492380Y-93305238D01*
X65492380Y-92971904D02*
X65492380Y-92305238D01*
X66492380Y-92733809D01*
X66492380Y-91924285D02*
X65492380Y-91924285D01*
X66111428Y-91829047D02*
X66492380Y-91543333D01*
X65825714Y-91543333D02*
X66206666Y-91924285D01*
%TO.C,D7*%
X60142380Y-122023095D02*
X59142380Y-122023095D01*
X59142380Y-121785000D01*
X59190000Y-121642142D01*
X59285238Y-121546904D01*
X59380476Y-121499285D01*
X59570952Y-121451666D01*
X59713809Y-121451666D01*
X59904285Y-121499285D01*
X59999523Y-121546904D01*
X60094761Y-121642142D01*
X60142380Y-121785000D01*
X60142380Y-122023095D01*
X59142380Y-121118333D02*
X59142380Y-120451666D01*
X60142380Y-120880238D01*
X60142380Y-133611904D02*
X59142380Y-133611904D01*
X60142380Y-133040476D02*
X59570952Y-133469047D01*
X59142380Y-133040476D02*
X59713809Y-133611904D01*
%TO.C,D9*%
X65222380Y-116943095D02*
X64222380Y-116943095D01*
X64222380Y-116705000D01*
X64270000Y-116562142D01*
X64365238Y-116466904D01*
X64460476Y-116419285D01*
X64650952Y-116371666D01*
X64793809Y-116371666D01*
X64984285Y-116419285D01*
X65079523Y-116466904D01*
X65174761Y-116562142D01*
X65222380Y-116705000D01*
X65222380Y-116943095D01*
X65222380Y-115895476D02*
X65222380Y-115705000D01*
X65174761Y-115609761D01*
X65127142Y-115562142D01*
X64984285Y-115466904D01*
X64793809Y-115419285D01*
X64412857Y-115419285D01*
X64317619Y-115466904D01*
X64270000Y-115514523D01*
X64222380Y-115609761D01*
X64222380Y-115800238D01*
X64270000Y-115895476D01*
X64317619Y-115943095D01*
X64412857Y-115990714D01*
X64650952Y-115990714D01*
X64746190Y-115943095D01*
X64793809Y-115895476D01*
X64841428Y-115800238D01*
X64841428Y-115609761D01*
X64793809Y-115514523D01*
X64746190Y-115466904D01*
X64650952Y-115419285D01*
X65222380Y-133611904D02*
X64222380Y-133611904D01*
X65222380Y-133040476D02*
X64650952Y-133469047D01*
X64222380Y-133040476D02*
X64793809Y-133611904D01*
%TO.C,D10*%
X67762380Y-119324285D02*
X66762380Y-119324285D01*
X66762380Y-119086190D01*
X66810000Y-118943333D01*
X66905238Y-118848095D01*
X67000476Y-118800476D01*
X67190952Y-118752857D01*
X67333809Y-118752857D01*
X67524285Y-118800476D01*
X67619523Y-118848095D01*
X67714761Y-118943333D01*
X67762380Y-119086190D01*
X67762380Y-119324285D01*
X67762380Y-117800476D02*
X67762380Y-118371904D01*
X67762380Y-118086190D02*
X66762380Y-118086190D01*
X66905238Y-118181428D01*
X67000476Y-118276666D01*
X67048095Y-118371904D01*
X66762380Y-117181428D02*
X66762380Y-117086190D01*
X66810000Y-116990952D01*
X66857619Y-116943333D01*
X66952857Y-116895714D01*
X67143333Y-116848095D01*
X67381428Y-116848095D01*
X67571904Y-116895714D01*
X67667142Y-116943333D01*
X67714761Y-116990952D01*
X67762380Y-117086190D01*
X67762380Y-117181428D01*
X67714761Y-117276666D01*
X67667142Y-117324285D01*
X67571904Y-117371904D01*
X67381428Y-117419523D01*
X67143333Y-117419523D01*
X66952857Y-117371904D01*
X66857619Y-117324285D01*
X66810000Y-117276666D01*
X66762380Y-117181428D01*
X67762380Y-133611904D02*
X66762380Y-133611904D01*
X67762380Y-133040476D02*
X67190952Y-133469047D01*
X66762380Y-133040476D02*
X67333809Y-133611904D01*
%TO.C,D11*%
X70302380Y-117419285D02*
X69302380Y-117419285D01*
X69302380Y-117181190D01*
X69350000Y-117038333D01*
X69445238Y-116943095D01*
X69540476Y-116895476D01*
X69730952Y-116847857D01*
X69873809Y-116847857D01*
X70064285Y-116895476D01*
X70159523Y-116943095D01*
X70254761Y-117038333D01*
X70302380Y-117181190D01*
X70302380Y-117419285D01*
X70302380Y-115895476D02*
X70302380Y-116466904D01*
X70302380Y-116181190D02*
X69302380Y-116181190D01*
X69445238Y-116276428D01*
X69540476Y-116371666D01*
X69588095Y-116466904D01*
X70302380Y-114943095D02*
X70302380Y-115514523D01*
X70302380Y-115228809D02*
X69302380Y-115228809D01*
X69445238Y-115324047D01*
X69540476Y-115419285D01*
X69588095Y-115514523D01*
X70302380Y-133611904D02*
X69302380Y-133611904D01*
X70302380Y-133040476D02*
X69730952Y-133469047D01*
X69302380Y-133040476D02*
X69873809Y-133611904D01*
%TO.C,D12*%
X73102380Y-119324285D02*
X72102380Y-119324285D01*
X72102380Y-119086190D01*
X72150000Y-118943333D01*
X72245238Y-118848095D01*
X72340476Y-118800476D01*
X72530952Y-118752857D01*
X72673809Y-118752857D01*
X72864285Y-118800476D01*
X72959523Y-118848095D01*
X73054761Y-118943333D01*
X73102380Y-119086190D01*
X73102380Y-119324285D01*
X73102380Y-117800476D02*
X73102380Y-118371904D01*
X73102380Y-118086190D02*
X72102380Y-118086190D01*
X72245238Y-118181428D01*
X72340476Y-118276666D01*
X72388095Y-118371904D01*
X72197619Y-117419523D02*
X72150000Y-117371904D01*
X72102380Y-117276666D01*
X72102380Y-117038571D01*
X72150000Y-116943333D01*
X72197619Y-116895714D01*
X72292857Y-116848095D01*
X72388095Y-116848095D01*
X72530952Y-116895714D01*
X73102380Y-117467142D01*
X73102380Y-116848095D01*
X72467380Y-133611904D02*
X71467380Y-133611904D01*
X72467380Y-133040476D02*
X71895952Y-133469047D01*
X71467380Y-133040476D02*
X72038809Y-133611904D01*
%TO.C,D13*%
X75267380Y-122499285D02*
X74267380Y-122499285D01*
X74267380Y-122261190D01*
X74315000Y-122118333D01*
X74410238Y-122023095D01*
X74505476Y-121975476D01*
X74695952Y-121927857D01*
X74838809Y-121927857D01*
X75029285Y-121975476D01*
X75124523Y-122023095D01*
X75219761Y-122118333D01*
X75267380Y-122261190D01*
X75267380Y-122499285D01*
X75267380Y-120975476D02*
X75267380Y-121546904D01*
X75267380Y-121261190D02*
X74267380Y-121261190D01*
X74410238Y-121356428D01*
X74505476Y-121451666D01*
X74553095Y-121546904D01*
X74267380Y-120642142D02*
X74267380Y-120023095D01*
X74648333Y-120356428D01*
X74648333Y-120213571D01*
X74695952Y-120118333D01*
X74743571Y-120070714D01*
X74838809Y-120023095D01*
X75076904Y-120023095D01*
X75172142Y-120070714D01*
X75219761Y-120118333D01*
X75267380Y-120213571D01*
X75267380Y-120499285D01*
X75219761Y-120594523D01*
X75172142Y-120642142D01*
X75267380Y-133611904D02*
X74267380Y-133611904D01*
X75267380Y-133040476D02*
X74695952Y-133469047D01*
X74267380Y-133040476D02*
X74838809Y-133611904D01*
%TO.C,D14*%
X77922380Y-124404285D02*
X76922380Y-124404285D01*
X76922380Y-124166190D01*
X76970000Y-124023333D01*
X77065238Y-123928095D01*
X77160476Y-123880476D01*
X77350952Y-123832857D01*
X77493809Y-123832857D01*
X77684285Y-123880476D01*
X77779523Y-123928095D01*
X77874761Y-124023333D01*
X77922380Y-124166190D01*
X77922380Y-124404285D01*
X77922380Y-122880476D02*
X77922380Y-123451904D01*
X77922380Y-123166190D02*
X76922380Y-123166190D01*
X77065238Y-123261428D01*
X77160476Y-123356666D01*
X77208095Y-123451904D01*
X77255714Y-122023333D02*
X77922380Y-122023333D01*
X76874761Y-122261428D02*
X77589047Y-122499523D01*
X77589047Y-121880476D01*
X77922380Y-133611904D02*
X76922380Y-133611904D01*
X77922380Y-133040476D02*
X77350952Y-133469047D01*
X76922380Y-133040476D02*
X77493809Y-133611904D01*
%TO.C,D15*%
X80573751Y-121889285D02*
X79573751Y-121889285D01*
X79573751Y-121651190D01*
X79621371Y-121508333D01*
X79716609Y-121413095D01*
X79811847Y-121365476D01*
X80002323Y-121317857D01*
X80145180Y-121317857D01*
X80335656Y-121365476D01*
X80430894Y-121413095D01*
X80526132Y-121508333D01*
X80573751Y-121651190D01*
X80573751Y-121889285D01*
X80573751Y-120365476D02*
X80573751Y-120936904D01*
X80573751Y-120651190D02*
X79573751Y-120651190D01*
X79716609Y-120746428D01*
X79811847Y-120841666D01*
X79859466Y-120936904D01*
X79573751Y-119460714D02*
X79573751Y-119936904D01*
X80049942Y-119984523D01*
X80002323Y-119936904D01*
X79954704Y-119841666D01*
X79954704Y-119603571D01*
X80002323Y-119508333D01*
X80049942Y-119460714D01*
X80145180Y-119413095D01*
X80383275Y-119413095D01*
X80478513Y-119460714D01*
X80526132Y-119508333D01*
X80573751Y-119603571D01*
X80573751Y-119841666D01*
X80526132Y-119936904D01*
X80478513Y-119984523D01*
X80573751Y-133636904D02*
X79573751Y-133636904D01*
X80573751Y-133065476D02*
X80002323Y-133494047D01*
X79573751Y-133065476D02*
X80145180Y-133636904D01*
%TO.C,D16*%
X82853751Y-116809285D02*
X81853751Y-116809285D01*
X81853751Y-116571190D01*
X81901371Y-116428333D01*
X81996609Y-116333095D01*
X82091847Y-116285476D01*
X82282323Y-116237857D01*
X82425180Y-116237857D01*
X82615656Y-116285476D01*
X82710894Y-116333095D01*
X82806132Y-116428333D01*
X82853751Y-116571190D01*
X82853751Y-116809285D01*
X82853751Y-115285476D02*
X82853751Y-115856904D01*
X82853751Y-115571190D02*
X81853751Y-115571190D01*
X81996609Y-115666428D01*
X82091847Y-115761666D01*
X82139466Y-115856904D01*
X81853751Y-114428333D02*
X81853751Y-114618809D01*
X81901371Y-114714047D01*
X81948990Y-114761666D01*
X82091847Y-114856904D01*
X82282323Y-114904523D01*
X82663275Y-114904523D01*
X82758513Y-114856904D01*
X82806132Y-114809285D01*
X82853751Y-114714047D01*
X82853751Y-114523571D01*
X82806132Y-114428333D01*
X82758513Y-114380714D01*
X82663275Y-114333095D01*
X82425180Y-114333095D01*
X82329942Y-114380714D01*
X82282323Y-114428333D01*
X82234704Y-114523571D01*
X82234704Y-114714047D01*
X82282323Y-114809285D01*
X82329942Y-114856904D01*
X82425180Y-114904523D01*
X82853751Y-133636904D02*
X81853751Y-133636904D01*
X82853751Y-133065476D02*
X82282323Y-133494047D01*
X81853751Y-133065476D02*
X82425180Y-133636904D01*
%TO.C,J3*%
X74666666Y-142122380D02*
X74666666Y-142836666D01*
X74619047Y-142979523D01*
X74523809Y-143074761D01*
X74380952Y-143122380D01*
X74285714Y-143122380D01*
X75047619Y-142122380D02*
X75666666Y-142122380D01*
X75333333Y-142503333D01*
X75476190Y-142503333D01*
X75571428Y-142550952D01*
X75619047Y-142598571D01*
X75666666Y-142693809D01*
X75666666Y-142931904D01*
X75619047Y-143027142D01*
X75571428Y-143074761D01*
X75476190Y-143122380D01*
X75190476Y-143122380D01*
X75095238Y-143074761D01*
X75047619Y-143027142D01*
%TO.C,D17*%
X85542380Y-116784285D02*
X84542380Y-116784285D01*
X84542380Y-116546190D01*
X84590000Y-116403333D01*
X84685238Y-116308095D01*
X84780476Y-116260476D01*
X84970952Y-116212857D01*
X85113809Y-116212857D01*
X85304285Y-116260476D01*
X85399523Y-116308095D01*
X85494761Y-116403333D01*
X85542380Y-116546190D01*
X85542380Y-116784285D01*
X85542380Y-115260476D02*
X85542380Y-115831904D01*
X85542380Y-115546190D02*
X84542380Y-115546190D01*
X84685238Y-115641428D01*
X84780476Y-115736666D01*
X84828095Y-115831904D01*
X84542380Y-114927142D02*
X84542380Y-114260476D01*
X85542380Y-114689047D01*
X85542380Y-133611904D02*
X84542380Y-133611904D01*
X85542380Y-133040476D02*
X84970952Y-133469047D01*
X84542380Y-133040476D02*
X85113809Y-133611904D01*
%TO.C,J1*%
X77122380Y-145333333D02*
X77836666Y-145333333D01*
X77979523Y-145380952D01*
X78074761Y-145476190D01*
X78122380Y-145619047D01*
X78122380Y-145714285D01*
X78122380Y-144333333D02*
X78122380Y-144904761D01*
X78122380Y-144619047D02*
X77122380Y-144619047D01*
X77265238Y-144714285D01*
X77360476Y-144809523D01*
X77408095Y-144904761D01*
%TO.C,D18*%
X87887380Y-124569285D02*
X86887380Y-124569285D01*
X86887380Y-124331190D01*
X86935000Y-124188333D01*
X87030238Y-124093095D01*
X87125476Y-124045476D01*
X87315952Y-123997857D01*
X87458809Y-123997857D01*
X87649285Y-124045476D01*
X87744523Y-124093095D01*
X87839761Y-124188333D01*
X87887380Y-124331190D01*
X87887380Y-124569285D01*
X87887380Y-123045476D02*
X87887380Y-123616904D01*
X87887380Y-123331190D02*
X86887380Y-123331190D01*
X87030238Y-123426428D01*
X87125476Y-123521666D01*
X87173095Y-123616904D01*
X87315952Y-122474047D02*
X87268333Y-122569285D01*
X87220714Y-122616904D01*
X87125476Y-122664523D01*
X87077857Y-122664523D01*
X86982619Y-122616904D01*
X86935000Y-122569285D01*
X86887380Y-122474047D01*
X86887380Y-122283571D01*
X86935000Y-122188333D01*
X86982619Y-122140714D01*
X87077857Y-122093095D01*
X87125476Y-122093095D01*
X87220714Y-122140714D01*
X87268333Y-122188333D01*
X87315952Y-122283571D01*
X87315952Y-122474047D01*
X87363571Y-122569285D01*
X87411190Y-122616904D01*
X87506428Y-122664523D01*
X87696904Y-122664523D01*
X87792142Y-122616904D01*
X87839761Y-122569285D01*
X87887380Y-122474047D01*
X87887380Y-122283571D01*
X87839761Y-122188333D01*
X87792142Y-122140714D01*
X87696904Y-122093095D01*
X87506428Y-122093095D01*
X87411190Y-122140714D01*
X87363571Y-122188333D01*
X87315952Y-122283571D01*
X87887380Y-133776904D02*
X86887380Y-133776904D01*
X87887380Y-133205476D02*
X87315952Y-133634047D01*
X86887380Y-133205476D02*
X87458809Y-133776904D01*
%TO.C,D19*%
X90913751Y-122029285D02*
X89913751Y-122029285D01*
X89913751Y-121791190D01*
X89961371Y-121648333D01*
X90056609Y-121553095D01*
X90151847Y-121505476D01*
X90342323Y-121457857D01*
X90485180Y-121457857D01*
X90675656Y-121505476D01*
X90770894Y-121553095D01*
X90866132Y-121648333D01*
X90913751Y-121791190D01*
X90913751Y-122029285D01*
X90913751Y-120505476D02*
X90913751Y-121076904D01*
X90913751Y-120791190D02*
X89913751Y-120791190D01*
X90056609Y-120886428D01*
X90151847Y-120981666D01*
X90199466Y-121076904D01*
X90913751Y-120029285D02*
X90913751Y-119838809D01*
X90866132Y-119743571D01*
X90818513Y-119695952D01*
X90675656Y-119600714D01*
X90485180Y-119553095D01*
X90104228Y-119553095D01*
X90008990Y-119600714D01*
X89961371Y-119648333D01*
X89913751Y-119743571D01*
X89913751Y-119934047D01*
X89961371Y-120029285D01*
X90008990Y-120076904D01*
X90104228Y-120124523D01*
X90342323Y-120124523D01*
X90437561Y-120076904D01*
X90485180Y-120029285D01*
X90532799Y-119934047D01*
X90532799Y-119743571D01*
X90485180Y-119648333D01*
X90437561Y-119600714D01*
X90342323Y-119553095D01*
X90278751Y-133776904D02*
X89278751Y-133776904D01*
X90278751Y-133205476D02*
X89707323Y-133634047D01*
X89278751Y-133205476D02*
X89850180Y-133776904D01*
%TO.C,D20*%
X93193751Y-119489285D02*
X92193751Y-119489285D01*
X92193751Y-119251190D01*
X92241371Y-119108333D01*
X92336609Y-119013095D01*
X92431847Y-118965476D01*
X92622323Y-118917857D01*
X92765180Y-118917857D01*
X92955656Y-118965476D01*
X93050894Y-119013095D01*
X93146132Y-119108333D01*
X93193751Y-119251190D01*
X93193751Y-119489285D01*
X92288990Y-118536904D02*
X92241371Y-118489285D01*
X92193751Y-118394047D01*
X92193751Y-118155952D01*
X92241371Y-118060714D01*
X92288990Y-118013095D01*
X92384228Y-117965476D01*
X92479466Y-117965476D01*
X92622323Y-118013095D01*
X93193751Y-118584523D01*
X93193751Y-117965476D01*
X92193751Y-117346428D02*
X92193751Y-117251190D01*
X92241371Y-117155952D01*
X92288990Y-117108333D01*
X92384228Y-117060714D01*
X92574704Y-117013095D01*
X92812799Y-117013095D01*
X93003275Y-117060714D01*
X93098513Y-117108333D01*
X93146132Y-117155952D01*
X93193751Y-117251190D01*
X93193751Y-117346428D01*
X93146132Y-117441666D01*
X93098513Y-117489285D01*
X93003275Y-117536904D01*
X92812799Y-117584523D01*
X92574704Y-117584523D01*
X92384228Y-117536904D01*
X92288990Y-117489285D01*
X92241371Y-117441666D01*
X92193751Y-117346428D01*
X93193751Y-133776904D02*
X92193751Y-133776904D01*
X93193751Y-133205476D02*
X92622323Y-133634047D01*
X92193751Y-133205476D02*
X92765180Y-133776904D01*
%TO.C,D21*%
X95702380Y-121864285D02*
X94702380Y-121864285D01*
X94702380Y-121626190D01*
X94750000Y-121483333D01*
X94845238Y-121388095D01*
X94940476Y-121340476D01*
X95130952Y-121292857D01*
X95273809Y-121292857D01*
X95464285Y-121340476D01*
X95559523Y-121388095D01*
X95654761Y-121483333D01*
X95702380Y-121626190D01*
X95702380Y-121864285D01*
X94797619Y-120911904D02*
X94750000Y-120864285D01*
X94702380Y-120769047D01*
X94702380Y-120530952D01*
X94750000Y-120435714D01*
X94797619Y-120388095D01*
X94892857Y-120340476D01*
X94988095Y-120340476D01*
X95130952Y-120388095D01*
X95702380Y-120959523D01*
X95702380Y-120340476D01*
X95702380Y-119388095D02*
X95702380Y-119959523D01*
X95702380Y-119673809D02*
X94702380Y-119673809D01*
X94845238Y-119769047D01*
X94940476Y-119864285D01*
X94988095Y-119959523D01*
X95702380Y-133611904D02*
X94702380Y-133611904D01*
X95702380Y-133040476D02*
X95130952Y-133469047D01*
X94702380Y-133040476D02*
X95273809Y-133611904D01*
%TO.C,D22*%
X98242380Y-116784285D02*
X97242380Y-116784285D01*
X97242380Y-116546190D01*
X97290000Y-116403333D01*
X97385238Y-116308095D01*
X97480476Y-116260476D01*
X97670952Y-116212857D01*
X97813809Y-116212857D01*
X98004285Y-116260476D01*
X98099523Y-116308095D01*
X98194761Y-116403333D01*
X98242380Y-116546190D01*
X98242380Y-116784285D01*
X97337619Y-115831904D02*
X97290000Y-115784285D01*
X97242380Y-115689047D01*
X97242380Y-115450952D01*
X97290000Y-115355714D01*
X97337619Y-115308095D01*
X97432857Y-115260476D01*
X97528095Y-115260476D01*
X97670952Y-115308095D01*
X98242380Y-115879523D01*
X98242380Y-115260476D01*
X97337619Y-114879523D02*
X97290000Y-114831904D01*
X97242380Y-114736666D01*
X97242380Y-114498571D01*
X97290000Y-114403333D01*
X97337619Y-114355714D01*
X97432857Y-114308095D01*
X97528095Y-114308095D01*
X97670952Y-114355714D01*
X98242380Y-114927142D01*
X98242380Y-114308095D01*
X98242380Y-133611904D02*
X97242380Y-133611904D01*
X98242380Y-133040476D02*
X97670952Y-133469047D01*
X97242380Y-133040476D02*
X97813809Y-133611904D01*
%TO.C,R15*%
X108064380Y-73667857D02*
X107588190Y-74001190D01*
X108064380Y-74239285D02*
X107064380Y-74239285D01*
X107064380Y-73858333D01*
X107112000Y-73763095D01*
X107159619Y-73715476D01*
X107254857Y-73667857D01*
X107397714Y-73667857D01*
X107492952Y-73715476D01*
X107540571Y-73763095D01*
X107588190Y-73858333D01*
X107588190Y-74239285D01*
X108064380Y-72715476D02*
X108064380Y-73286904D01*
X108064380Y-73001190D02*
X107064380Y-73001190D01*
X107207238Y-73096428D01*
X107302476Y-73191666D01*
X107350095Y-73286904D01*
X107064380Y-71810714D02*
X107064380Y-72286904D01*
X107540571Y-72334523D01*
X107492952Y-72286904D01*
X107445333Y-72191666D01*
X107445333Y-71953571D01*
X107492952Y-71858333D01*
X107540571Y-71810714D01*
X107635809Y-71763095D01*
X107873904Y-71763095D01*
X107969142Y-71810714D01*
X108016761Y-71858333D01*
X108064380Y-71953571D01*
X108064380Y-72191666D01*
X108016761Y-72286904D01*
X107969142Y-72334523D01*
%TO.C,D23*%
X100782380Y-123769285D02*
X99782380Y-123769285D01*
X99782380Y-123531190D01*
X99830000Y-123388333D01*
X99925238Y-123293095D01*
X100020476Y-123245476D01*
X100210952Y-123197857D01*
X100353809Y-123197857D01*
X100544285Y-123245476D01*
X100639523Y-123293095D01*
X100734761Y-123388333D01*
X100782380Y-123531190D01*
X100782380Y-123769285D01*
X99877619Y-122816904D02*
X99830000Y-122769285D01*
X99782380Y-122674047D01*
X99782380Y-122435952D01*
X99830000Y-122340714D01*
X99877619Y-122293095D01*
X99972857Y-122245476D01*
X100068095Y-122245476D01*
X100210952Y-122293095D01*
X100782380Y-122864523D01*
X100782380Y-122245476D01*
X99782380Y-121912142D02*
X99782380Y-121293095D01*
X100163333Y-121626428D01*
X100163333Y-121483571D01*
X100210952Y-121388333D01*
X100258571Y-121340714D01*
X100353809Y-121293095D01*
X100591904Y-121293095D01*
X100687142Y-121340714D01*
X100734761Y-121388333D01*
X100782380Y-121483571D01*
X100782380Y-121769285D01*
X100734761Y-121864523D01*
X100687142Y-121912142D01*
X100782380Y-133611904D02*
X99782380Y-133611904D01*
X100782380Y-133040476D02*
X100210952Y-133469047D01*
X99782380Y-133040476D02*
X100353809Y-133611904D01*
%TO.C,D24*%
X103173751Y-119324285D02*
X102173751Y-119324285D01*
X102173751Y-119086190D01*
X102221371Y-118943333D01*
X102316609Y-118848095D01*
X102411847Y-118800476D01*
X102602323Y-118752857D01*
X102745180Y-118752857D01*
X102935656Y-118800476D01*
X103030894Y-118848095D01*
X103126132Y-118943333D01*
X103173751Y-119086190D01*
X103173751Y-119324285D01*
X102268990Y-118371904D02*
X102221371Y-118324285D01*
X102173751Y-118229047D01*
X102173751Y-117990952D01*
X102221371Y-117895714D01*
X102268990Y-117848095D01*
X102364228Y-117800476D01*
X102459466Y-117800476D01*
X102602323Y-117848095D01*
X103173751Y-118419523D01*
X103173751Y-117800476D01*
X102507085Y-116943333D02*
X103173751Y-116943333D01*
X102126132Y-117181428D02*
X102840418Y-117419523D01*
X102840418Y-116800476D01*
X103322380Y-133611904D02*
X102322380Y-133611904D01*
X103322380Y-133040476D02*
X102750952Y-133469047D01*
X102322380Y-133040476D02*
X102893809Y-133611904D01*
%TO.C,D25*%
X106088751Y-116784285D02*
X105088751Y-116784285D01*
X105088751Y-116546190D01*
X105136371Y-116403333D01*
X105231609Y-116308095D01*
X105326847Y-116260476D01*
X105517323Y-116212857D01*
X105660180Y-116212857D01*
X105850656Y-116260476D01*
X105945894Y-116308095D01*
X106041132Y-116403333D01*
X106088751Y-116546190D01*
X106088751Y-116784285D01*
X105183990Y-115831904D02*
X105136371Y-115784285D01*
X105088751Y-115689047D01*
X105088751Y-115450952D01*
X105136371Y-115355714D01*
X105183990Y-115308095D01*
X105279228Y-115260476D01*
X105374466Y-115260476D01*
X105517323Y-115308095D01*
X106088751Y-115879523D01*
X106088751Y-115260476D01*
X105088751Y-114355714D02*
X105088751Y-114831904D01*
X105564942Y-114879523D01*
X105517323Y-114831904D01*
X105469704Y-114736666D01*
X105469704Y-114498571D01*
X105517323Y-114403333D01*
X105564942Y-114355714D01*
X105660180Y-114308095D01*
X105898275Y-114308095D01*
X105993513Y-114355714D01*
X106041132Y-114403333D01*
X106088751Y-114498571D01*
X106088751Y-114736666D01*
X106041132Y-114831904D01*
X105993513Y-114879523D01*
X106088751Y-133611904D02*
X105088751Y-133611904D01*
X106088751Y-133040476D02*
X105517323Y-133469047D01*
X105088751Y-133040476D02*
X105660180Y-133611904D01*
%TO.C,D26*%
X108402380Y-119324285D02*
X107402380Y-119324285D01*
X107402380Y-119086190D01*
X107450000Y-118943333D01*
X107545238Y-118848095D01*
X107640476Y-118800476D01*
X107830952Y-118752857D01*
X107973809Y-118752857D01*
X108164285Y-118800476D01*
X108259523Y-118848095D01*
X108354761Y-118943333D01*
X108402380Y-119086190D01*
X108402380Y-119324285D01*
X107497619Y-118371904D02*
X107450000Y-118324285D01*
X107402380Y-118229047D01*
X107402380Y-117990952D01*
X107450000Y-117895714D01*
X107497619Y-117848095D01*
X107592857Y-117800476D01*
X107688095Y-117800476D01*
X107830952Y-117848095D01*
X108402380Y-118419523D01*
X108402380Y-117800476D01*
X107402380Y-116943333D02*
X107402380Y-117133809D01*
X107450000Y-117229047D01*
X107497619Y-117276666D01*
X107640476Y-117371904D01*
X107830952Y-117419523D01*
X108211904Y-117419523D01*
X108307142Y-117371904D01*
X108354761Y-117324285D01*
X108402380Y-117229047D01*
X108402380Y-117038571D01*
X108354761Y-116943333D01*
X108307142Y-116895714D01*
X108211904Y-116848095D01*
X107973809Y-116848095D01*
X107878571Y-116895714D01*
X107830952Y-116943333D01*
X107783333Y-117038571D01*
X107783333Y-117229047D01*
X107830952Y-117324285D01*
X107878571Y-117371904D01*
X107973809Y-117419523D01*
X108402380Y-133611904D02*
X107402380Y-133611904D01*
X108402380Y-133040476D02*
X107830952Y-133469047D01*
X107402380Y-133040476D02*
X107973809Y-133611904D01*
%TO.C,D27*%
X110942380Y-116784285D02*
X109942380Y-116784285D01*
X109942380Y-116546190D01*
X109990000Y-116403333D01*
X110085238Y-116308095D01*
X110180476Y-116260476D01*
X110370952Y-116212857D01*
X110513809Y-116212857D01*
X110704285Y-116260476D01*
X110799523Y-116308095D01*
X110894761Y-116403333D01*
X110942380Y-116546190D01*
X110942380Y-116784285D01*
X110037619Y-115831904D02*
X109990000Y-115784285D01*
X109942380Y-115689047D01*
X109942380Y-115450952D01*
X109990000Y-115355714D01*
X110037619Y-115308095D01*
X110132857Y-115260476D01*
X110228095Y-115260476D01*
X110370952Y-115308095D01*
X110942380Y-115879523D01*
X110942380Y-115260476D01*
X109942380Y-114927142D02*
X109942380Y-114260476D01*
X110942380Y-114689047D01*
X110942380Y-133611904D02*
X109942380Y-133611904D01*
X110942380Y-133040476D02*
X110370952Y-133469047D01*
X109942380Y-133040476D02*
X110513809Y-133611904D01*
%TO.C,D28*%
X113737379Y-122304286D02*
X112737379Y-122304286D01*
X112737379Y-122066191D01*
X112784999Y-121923334D01*
X112880237Y-121828096D01*
X112975475Y-121780477D01*
X113165951Y-121732858D01*
X113308808Y-121732858D01*
X113499284Y-121780477D01*
X113594522Y-121828096D01*
X113689760Y-121923334D01*
X113737379Y-122066191D01*
X113737379Y-122304286D01*
X112832618Y-121351905D02*
X112784999Y-121304286D01*
X112737379Y-121209048D01*
X112737379Y-120970953D01*
X112784999Y-120875715D01*
X112832618Y-120828096D01*
X112927856Y-120780477D01*
X113023094Y-120780477D01*
X113165951Y-120828096D01*
X113737379Y-121399524D01*
X113737379Y-120780477D01*
X113165951Y-120209048D02*
X113118332Y-120304286D01*
X113070713Y-120351905D01*
X112975475Y-120399524D01*
X112927856Y-120399524D01*
X112832618Y-120351905D01*
X112784999Y-120304286D01*
X112737379Y-120209048D01*
X112737379Y-120018572D01*
X112784999Y-119923334D01*
X112832618Y-119875715D01*
X112927856Y-119828096D01*
X112975475Y-119828096D01*
X113070713Y-119875715D01*
X113118332Y-119923334D01*
X113165951Y-120018572D01*
X113165951Y-120209048D01*
X113213570Y-120304286D01*
X113261189Y-120351905D01*
X113356427Y-120399524D01*
X113546903Y-120399524D01*
X113642141Y-120351905D01*
X113689760Y-120304286D01*
X113737379Y-120209048D01*
X113737379Y-120018572D01*
X113689760Y-119923334D01*
X113642141Y-119875715D01*
X113546903Y-119828096D01*
X113356427Y-119828096D01*
X113261189Y-119875715D01*
X113213570Y-119923334D01*
X113165951Y-120018572D01*
X113482380Y-133611904D02*
X112482380Y-133611904D01*
X113482380Y-133040476D02*
X112910952Y-133469047D01*
X112482380Y-133040476D02*
X113053809Y-133611904D01*
%TO.C,D29*%
X116017379Y-117224286D02*
X115017379Y-117224286D01*
X115017379Y-116986191D01*
X115064999Y-116843334D01*
X115160237Y-116748096D01*
X115255475Y-116700477D01*
X115445951Y-116652858D01*
X115588808Y-116652858D01*
X115779284Y-116700477D01*
X115874522Y-116748096D01*
X115969760Y-116843334D01*
X116017379Y-116986191D01*
X116017379Y-117224286D01*
X115112618Y-116271905D02*
X115064999Y-116224286D01*
X115017379Y-116129048D01*
X115017379Y-115890953D01*
X115064999Y-115795715D01*
X115112618Y-115748096D01*
X115207856Y-115700477D01*
X115303094Y-115700477D01*
X115445951Y-115748096D01*
X116017379Y-116319524D01*
X116017379Y-115700477D01*
X116017379Y-115224286D02*
X116017379Y-115033810D01*
X115969760Y-114938572D01*
X115922141Y-114890953D01*
X115779284Y-114795715D01*
X115588808Y-114748096D01*
X115207856Y-114748096D01*
X115112618Y-114795715D01*
X115064999Y-114843334D01*
X115017379Y-114938572D01*
X115017379Y-115129048D01*
X115064999Y-115224286D01*
X115112618Y-115271905D01*
X115207856Y-115319524D01*
X115445951Y-115319524D01*
X115541189Y-115271905D01*
X115588808Y-115224286D01*
X115636427Y-115129048D01*
X115636427Y-114938572D01*
X115588808Y-114843334D01*
X115541189Y-114795715D01*
X115445951Y-114748096D01*
X116017379Y-133611904D02*
X115017379Y-133611904D01*
X116017379Y-133040476D02*
X115445951Y-133469047D01*
X115017379Y-133040476D02*
X115588808Y-133611904D01*
%TO.C,D30*%
X118562380Y-119959285D02*
X117562380Y-119959285D01*
X117562380Y-119721190D01*
X117610000Y-119578333D01*
X117705238Y-119483095D01*
X117800476Y-119435476D01*
X117990952Y-119387857D01*
X118133809Y-119387857D01*
X118324285Y-119435476D01*
X118419523Y-119483095D01*
X118514761Y-119578333D01*
X118562380Y-119721190D01*
X118562380Y-119959285D01*
X117562380Y-119054523D02*
X117562380Y-118435476D01*
X117943333Y-118768809D01*
X117943333Y-118625952D01*
X117990952Y-118530714D01*
X118038571Y-118483095D01*
X118133809Y-118435476D01*
X118371904Y-118435476D01*
X118467142Y-118483095D01*
X118514761Y-118530714D01*
X118562380Y-118625952D01*
X118562380Y-118911666D01*
X118514761Y-119006904D01*
X118467142Y-119054523D01*
X117562380Y-117816428D02*
X117562380Y-117721190D01*
X117610000Y-117625952D01*
X117657619Y-117578333D01*
X117752857Y-117530714D01*
X117943333Y-117483095D01*
X118181428Y-117483095D01*
X118371904Y-117530714D01*
X118467142Y-117578333D01*
X118514761Y-117625952D01*
X118562380Y-117721190D01*
X118562380Y-117816428D01*
X118514761Y-117911666D01*
X118467142Y-117959285D01*
X118371904Y-118006904D01*
X118181428Y-118054523D01*
X117943333Y-118054523D01*
X117752857Y-118006904D01*
X117657619Y-117959285D01*
X117610000Y-117911666D01*
X117562380Y-117816428D01*
X118562380Y-133611904D02*
X117562380Y-133611904D01*
X118562380Y-133040476D02*
X117990952Y-133469047D01*
X117562380Y-133040476D02*
X118133809Y-133611904D01*
%TO.C,D31*%
X120842380Y-117419285D02*
X119842380Y-117419285D01*
X119842380Y-117181190D01*
X119890000Y-117038333D01*
X119985238Y-116943095D01*
X120080476Y-116895476D01*
X120270952Y-116847857D01*
X120413809Y-116847857D01*
X120604285Y-116895476D01*
X120699523Y-116943095D01*
X120794761Y-117038333D01*
X120842380Y-117181190D01*
X120842380Y-117419285D01*
X119842380Y-116514523D02*
X119842380Y-115895476D01*
X120223333Y-116228809D01*
X120223333Y-116085952D01*
X120270952Y-115990714D01*
X120318571Y-115943095D01*
X120413809Y-115895476D01*
X120651904Y-115895476D01*
X120747142Y-115943095D01*
X120794761Y-115990714D01*
X120842380Y-116085952D01*
X120842380Y-116371666D01*
X120794761Y-116466904D01*
X120747142Y-116514523D01*
X120842380Y-114943095D02*
X120842380Y-115514523D01*
X120842380Y-115228809D02*
X119842380Y-115228809D01*
X119985238Y-115324047D01*
X120080476Y-115419285D01*
X120128095Y-115514523D01*
X121102380Y-133611904D02*
X120102380Y-133611904D01*
X121102380Y-133040476D02*
X120530952Y-133469047D01*
X120102380Y-133040476D02*
X120673809Y-133611904D01*
%TO.C,D32*%
X123642380Y-117419285D02*
X122642380Y-117419285D01*
X122642380Y-117181190D01*
X122690000Y-117038333D01*
X122785238Y-116943095D01*
X122880476Y-116895476D01*
X123070952Y-116847857D01*
X123213809Y-116847857D01*
X123404285Y-116895476D01*
X123499523Y-116943095D01*
X123594761Y-117038333D01*
X123642380Y-117181190D01*
X123642380Y-117419285D01*
X122642380Y-116514523D02*
X122642380Y-115895476D01*
X123023333Y-116228809D01*
X123023333Y-116085952D01*
X123070952Y-115990714D01*
X123118571Y-115943095D01*
X123213809Y-115895476D01*
X123451904Y-115895476D01*
X123547142Y-115943095D01*
X123594761Y-115990714D01*
X123642380Y-116085952D01*
X123642380Y-116371666D01*
X123594761Y-116466904D01*
X123547142Y-116514523D01*
X122737619Y-115514523D02*
X122690000Y-115466904D01*
X122642380Y-115371666D01*
X122642380Y-115133571D01*
X122690000Y-115038333D01*
X122737619Y-114990714D01*
X122832857Y-114943095D01*
X122928095Y-114943095D01*
X123070952Y-114990714D01*
X123642380Y-115562142D01*
X123642380Y-114943095D01*
X123642380Y-133611904D02*
X122642380Y-133611904D01*
X123642380Y-133040476D02*
X123070952Y-133469047D01*
X122642380Y-133040476D02*
X123213809Y-133611904D01*
%TO.C,D33*%
X125956009Y-124379285D02*
X124956009Y-124379285D01*
X124956009Y-124141190D01*
X125003629Y-123998333D01*
X125098867Y-123903095D01*
X125194105Y-123855476D01*
X125384581Y-123807857D01*
X125527438Y-123807857D01*
X125717914Y-123855476D01*
X125813152Y-123903095D01*
X125908390Y-123998333D01*
X125956009Y-124141190D01*
X125956009Y-124379285D01*
X124956009Y-123474523D02*
X124956009Y-122855476D01*
X125336962Y-123188809D01*
X125336962Y-123045952D01*
X125384581Y-122950714D01*
X125432200Y-122903095D01*
X125527438Y-122855476D01*
X125765533Y-122855476D01*
X125860771Y-122903095D01*
X125908390Y-122950714D01*
X125956009Y-123045952D01*
X125956009Y-123331666D01*
X125908390Y-123426904D01*
X125860771Y-123474523D01*
X124956009Y-122522142D02*
X124956009Y-121903095D01*
X125336962Y-122236428D01*
X125336962Y-122093571D01*
X125384581Y-121998333D01*
X125432200Y-121950714D01*
X125527438Y-121903095D01*
X125765533Y-121903095D01*
X125860771Y-121950714D01*
X125908390Y-121998333D01*
X125956009Y-122093571D01*
X125956009Y-122379285D01*
X125908390Y-122474523D01*
X125860771Y-122522142D01*
X126182380Y-133611904D02*
X125182380Y-133611904D01*
X126182380Y-133040476D02*
X125610952Y-133469047D01*
X125182380Y-133040476D02*
X125753809Y-133611904D01*
%TO.C,D34*%
X128982380Y-119959285D02*
X127982380Y-119959285D01*
X127982380Y-119721190D01*
X128030000Y-119578333D01*
X128125238Y-119483095D01*
X128220476Y-119435476D01*
X128410952Y-119387857D01*
X128553809Y-119387857D01*
X128744285Y-119435476D01*
X128839523Y-119483095D01*
X128934761Y-119578333D01*
X128982380Y-119721190D01*
X128982380Y-119959285D01*
X127982380Y-119054523D02*
X127982380Y-118435476D01*
X128363333Y-118768809D01*
X128363333Y-118625952D01*
X128410952Y-118530714D01*
X128458571Y-118483095D01*
X128553809Y-118435476D01*
X128791904Y-118435476D01*
X128887142Y-118483095D01*
X128934761Y-118530714D01*
X128982380Y-118625952D01*
X128982380Y-118911666D01*
X128934761Y-119006904D01*
X128887142Y-119054523D01*
X128315714Y-117578333D02*
X128982380Y-117578333D01*
X127934761Y-117816428D02*
X128649047Y-118054523D01*
X128649047Y-117435476D01*
X128982380Y-133611904D02*
X127982380Y-133611904D01*
X128982380Y-133040476D02*
X128410952Y-133469047D01*
X127982380Y-133040476D02*
X128553809Y-133611904D01*
%TO.C,D35*%
X131147380Y-122499285D02*
X130147380Y-122499285D01*
X130147380Y-122261190D01*
X130195000Y-122118333D01*
X130290238Y-122023095D01*
X130385476Y-121975476D01*
X130575952Y-121927857D01*
X130718809Y-121927857D01*
X130909285Y-121975476D01*
X131004523Y-122023095D01*
X131099761Y-122118333D01*
X131147380Y-122261190D01*
X131147380Y-122499285D01*
X130147380Y-121594523D02*
X130147380Y-120975476D01*
X130528333Y-121308809D01*
X130528333Y-121165952D01*
X130575952Y-121070714D01*
X130623571Y-121023095D01*
X130718809Y-120975476D01*
X130956904Y-120975476D01*
X131052142Y-121023095D01*
X131099761Y-121070714D01*
X131147380Y-121165952D01*
X131147380Y-121451666D01*
X131099761Y-121546904D01*
X131052142Y-121594523D01*
X130147380Y-120070714D02*
X130147380Y-120546904D01*
X130623571Y-120594523D01*
X130575952Y-120546904D01*
X130528333Y-120451666D01*
X130528333Y-120213571D01*
X130575952Y-120118333D01*
X130623571Y-120070714D01*
X130718809Y-120023095D01*
X130956904Y-120023095D01*
X131052142Y-120070714D01*
X131099761Y-120118333D01*
X131147380Y-120213571D01*
X131147380Y-120451666D01*
X131099761Y-120546904D01*
X131052142Y-120594523D01*
X131147380Y-133611904D02*
X130147380Y-133611904D01*
X131147380Y-133040476D02*
X130575952Y-133469047D01*
X130147380Y-133040476D02*
X130718809Y-133611904D01*
%TO.C,D36*%
X133802380Y-124404285D02*
X132802380Y-124404285D01*
X132802380Y-124166190D01*
X132850000Y-124023333D01*
X132945238Y-123928095D01*
X133040476Y-123880476D01*
X133230952Y-123832857D01*
X133373809Y-123832857D01*
X133564285Y-123880476D01*
X133659523Y-123928095D01*
X133754761Y-124023333D01*
X133802380Y-124166190D01*
X133802380Y-124404285D01*
X132802380Y-123499523D02*
X132802380Y-122880476D01*
X133183333Y-123213809D01*
X133183333Y-123070952D01*
X133230952Y-122975714D01*
X133278571Y-122928095D01*
X133373809Y-122880476D01*
X133611904Y-122880476D01*
X133707142Y-122928095D01*
X133754761Y-122975714D01*
X133802380Y-123070952D01*
X133802380Y-123356666D01*
X133754761Y-123451904D01*
X133707142Y-123499523D01*
X132802380Y-122023333D02*
X132802380Y-122213809D01*
X132850000Y-122309047D01*
X132897619Y-122356666D01*
X133040476Y-122451904D01*
X133230952Y-122499523D01*
X133611904Y-122499523D01*
X133707142Y-122451904D01*
X133754761Y-122404285D01*
X133802380Y-122309047D01*
X133802380Y-122118571D01*
X133754761Y-122023333D01*
X133707142Y-121975714D01*
X133611904Y-121928095D01*
X133373809Y-121928095D01*
X133278571Y-121975714D01*
X133230952Y-122023333D01*
X133183333Y-122118571D01*
X133183333Y-122309047D01*
X133230952Y-122404285D01*
X133278571Y-122451904D01*
X133373809Y-122499523D01*
X133802380Y-133611904D02*
X132802380Y-133611904D01*
X133802380Y-133040476D02*
X133230952Y-133469047D01*
X132802380Y-133040476D02*
X133373809Y-133611904D01*
%TO.C,D37*%
X136453751Y-121889285D02*
X135453751Y-121889285D01*
X135453751Y-121651190D01*
X135501371Y-121508333D01*
X135596609Y-121413095D01*
X135691847Y-121365476D01*
X135882323Y-121317857D01*
X136025180Y-121317857D01*
X136215656Y-121365476D01*
X136310894Y-121413095D01*
X136406132Y-121508333D01*
X136453751Y-121651190D01*
X136453751Y-121889285D01*
X135453751Y-120984523D02*
X135453751Y-120365476D01*
X135834704Y-120698809D01*
X135834704Y-120555952D01*
X135882323Y-120460714D01*
X135929942Y-120413095D01*
X136025180Y-120365476D01*
X136263275Y-120365476D01*
X136358513Y-120413095D01*
X136406132Y-120460714D01*
X136453751Y-120555952D01*
X136453751Y-120841666D01*
X136406132Y-120936904D01*
X136358513Y-120984523D01*
X135453751Y-120032142D02*
X135453751Y-119365476D01*
X136453751Y-119794047D01*
X136453751Y-133636904D02*
X135453751Y-133636904D01*
X136453751Y-133065476D02*
X135882323Y-133494047D01*
X135453751Y-133065476D02*
X136025180Y-133636904D01*
%TO.C,D38*%
X138733751Y-116809285D02*
X137733751Y-116809285D01*
X137733751Y-116571190D01*
X137781371Y-116428333D01*
X137876609Y-116333095D01*
X137971847Y-116285476D01*
X138162323Y-116237857D01*
X138305180Y-116237857D01*
X138495656Y-116285476D01*
X138590894Y-116333095D01*
X138686132Y-116428333D01*
X138733751Y-116571190D01*
X138733751Y-116809285D01*
X137733751Y-115904523D02*
X137733751Y-115285476D01*
X138114704Y-115618809D01*
X138114704Y-115475952D01*
X138162323Y-115380714D01*
X138209942Y-115333095D01*
X138305180Y-115285476D01*
X138543275Y-115285476D01*
X138638513Y-115333095D01*
X138686132Y-115380714D01*
X138733751Y-115475952D01*
X138733751Y-115761666D01*
X138686132Y-115856904D01*
X138638513Y-115904523D01*
X138162323Y-114714047D02*
X138114704Y-114809285D01*
X138067085Y-114856904D01*
X137971847Y-114904523D01*
X137924228Y-114904523D01*
X137828990Y-114856904D01*
X137781371Y-114809285D01*
X137733751Y-114714047D01*
X137733751Y-114523571D01*
X137781371Y-114428333D01*
X137828990Y-114380714D01*
X137924228Y-114333095D01*
X137971847Y-114333095D01*
X138067085Y-114380714D01*
X138114704Y-114428333D01*
X138162323Y-114523571D01*
X138162323Y-114714047D01*
X138209942Y-114809285D01*
X138257561Y-114856904D01*
X138352799Y-114904523D01*
X138543275Y-114904523D01*
X138638513Y-114856904D01*
X138686132Y-114809285D01*
X138733751Y-114714047D01*
X138733751Y-114523571D01*
X138686132Y-114428333D01*
X138638513Y-114380714D01*
X138543275Y-114333095D01*
X138352799Y-114333095D01*
X138257561Y-114380714D01*
X138209942Y-114428333D01*
X138162323Y-114523571D01*
X138733751Y-133636904D02*
X137733751Y-133636904D01*
X138733751Y-133065476D02*
X138162323Y-133494047D01*
X137733751Y-133065476D02*
X138305180Y-133636904D01*
%TO.C,D39*%
X141422380Y-124404285D02*
X140422380Y-124404285D01*
X140422380Y-124166190D01*
X140470000Y-124023333D01*
X140565238Y-123928095D01*
X140660476Y-123880476D01*
X140850952Y-123832857D01*
X140993809Y-123832857D01*
X141184285Y-123880476D01*
X141279523Y-123928095D01*
X141374761Y-124023333D01*
X141422380Y-124166190D01*
X141422380Y-124404285D01*
X140422380Y-123499523D02*
X140422380Y-122880476D01*
X140803333Y-123213809D01*
X140803333Y-123070952D01*
X140850952Y-122975714D01*
X140898571Y-122928095D01*
X140993809Y-122880476D01*
X141231904Y-122880476D01*
X141327142Y-122928095D01*
X141374761Y-122975714D01*
X141422380Y-123070952D01*
X141422380Y-123356666D01*
X141374761Y-123451904D01*
X141327142Y-123499523D01*
X141422380Y-122404285D02*
X141422380Y-122213809D01*
X141374761Y-122118571D01*
X141327142Y-122070952D01*
X141184285Y-121975714D01*
X140993809Y-121928095D01*
X140612857Y-121928095D01*
X140517619Y-121975714D01*
X140470000Y-122023333D01*
X140422380Y-122118571D01*
X140422380Y-122309047D01*
X140470000Y-122404285D01*
X140517619Y-122451904D01*
X140612857Y-122499523D01*
X140850952Y-122499523D01*
X140946190Y-122451904D01*
X140993809Y-122404285D01*
X141041428Y-122309047D01*
X141041428Y-122118571D01*
X140993809Y-122023333D01*
X140946190Y-121975714D01*
X140850952Y-121928095D01*
X141422380Y-133611904D02*
X140422380Y-133611904D01*
X141422380Y-133040476D02*
X140850952Y-133469047D01*
X140422380Y-133040476D02*
X140993809Y-133611904D01*
%TO.C,D40*%
X143813751Y-116784285D02*
X142813751Y-116784285D01*
X142813751Y-116546190D01*
X142861371Y-116403333D01*
X142956609Y-116308095D01*
X143051847Y-116260476D01*
X143242323Y-116212857D01*
X143385180Y-116212857D01*
X143575656Y-116260476D01*
X143670894Y-116308095D01*
X143766132Y-116403333D01*
X143813751Y-116546190D01*
X143813751Y-116784285D01*
X143147085Y-115355714D02*
X143813751Y-115355714D01*
X142766132Y-115593809D02*
X143480418Y-115831904D01*
X143480418Y-115212857D01*
X142813751Y-114641428D02*
X142813751Y-114546190D01*
X142861371Y-114450952D01*
X142908990Y-114403333D01*
X143004228Y-114355714D01*
X143194704Y-114308095D01*
X143432799Y-114308095D01*
X143623275Y-114355714D01*
X143718513Y-114403333D01*
X143766132Y-114450952D01*
X143813751Y-114546190D01*
X143813751Y-114641428D01*
X143766132Y-114736666D01*
X143718513Y-114784285D01*
X143623275Y-114831904D01*
X143432799Y-114879523D01*
X143194704Y-114879523D01*
X143004228Y-114831904D01*
X142908990Y-114784285D01*
X142861371Y-114736666D01*
X142813751Y-114641428D01*
X143813751Y-133611904D02*
X142813751Y-133611904D01*
X143813751Y-133040476D02*
X143242323Y-133469047D01*
X142813751Y-133040476D02*
X143385180Y-133611904D01*
%TO.C,D41*%
X146502380Y-119959285D02*
X145502380Y-119959285D01*
X145502380Y-119721190D01*
X145550000Y-119578333D01*
X145645238Y-119483095D01*
X145740476Y-119435476D01*
X145930952Y-119387857D01*
X146073809Y-119387857D01*
X146264285Y-119435476D01*
X146359523Y-119483095D01*
X146454761Y-119578333D01*
X146502380Y-119721190D01*
X146502380Y-119959285D01*
X145835714Y-118530714D02*
X146502380Y-118530714D01*
X145454761Y-118768809D02*
X146169047Y-119006904D01*
X146169047Y-118387857D01*
X146502380Y-117483095D02*
X146502380Y-118054523D01*
X146502380Y-117768809D02*
X145502380Y-117768809D01*
X145645238Y-117864047D01*
X145740476Y-117959285D01*
X145788095Y-118054523D01*
X146502380Y-133611904D02*
X145502380Y-133611904D01*
X146502380Y-133040476D02*
X145930952Y-133469047D01*
X145502380Y-133040476D02*
X146073809Y-133611904D01*
%TO.C,D42*%
X149417380Y-117419285D02*
X148417380Y-117419285D01*
X148417380Y-117181190D01*
X148465000Y-117038333D01*
X148560238Y-116943095D01*
X148655476Y-116895476D01*
X148845952Y-116847857D01*
X148988809Y-116847857D01*
X149179285Y-116895476D01*
X149274523Y-116943095D01*
X149369761Y-117038333D01*
X149417380Y-117181190D01*
X149417380Y-117419285D01*
X148750714Y-115990714D02*
X149417380Y-115990714D01*
X148369761Y-116228809D02*
X149084047Y-116466904D01*
X149084047Y-115847857D01*
X148512619Y-115514523D02*
X148465000Y-115466904D01*
X148417380Y-115371666D01*
X148417380Y-115133571D01*
X148465000Y-115038333D01*
X148512619Y-114990714D01*
X148607857Y-114943095D01*
X148703095Y-114943095D01*
X148845952Y-114990714D01*
X149417380Y-115562142D01*
X149417380Y-114943095D01*
X149417380Y-133611904D02*
X148417380Y-133611904D01*
X149417380Y-133040476D02*
X148845952Y-133469047D01*
X148417380Y-133040476D02*
X148988809Y-133611904D01*
%TO.C,D43*%
X150871180Y-122423085D02*
X149871180Y-122423085D01*
X149871180Y-122184990D01*
X149918800Y-122042133D01*
X150014038Y-121946895D01*
X150109276Y-121899276D01*
X150299752Y-121851657D01*
X150442609Y-121851657D01*
X150633085Y-121899276D01*
X150728323Y-121946895D01*
X150823561Y-122042133D01*
X150871180Y-122184990D01*
X150871180Y-122423085D01*
X150204514Y-120994514D02*
X150871180Y-120994514D01*
X149823561Y-121232609D02*
X150537847Y-121470704D01*
X150537847Y-120851657D01*
X149871180Y-120565942D02*
X149871180Y-119946895D01*
X150252133Y-120280228D01*
X150252133Y-120137371D01*
X150299752Y-120042133D01*
X150347371Y-119994514D01*
X150442609Y-119946895D01*
X150680704Y-119946895D01*
X150775942Y-119994514D01*
X150823561Y-120042133D01*
X150871180Y-120137371D01*
X150871180Y-120423085D01*
X150823561Y-120518323D01*
X150775942Y-120565942D01*
X151731009Y-133611904D02*
X150731009Y-133611904D01*
X151731009Y-133040476D02*
X151159581Y-133469047D01*
X150731009Y-133040476D02*
X151302438Y-133611904D01*
%TO.C,C1*%
X88241142Y-68786666D02*
X88288761Y-68834285D01*
X88336380Y-68977142D01*
X88336380Y-69072380D01*
X88288761Y-69215238D01*
X88193523Y-69310476D01*
X88098285Y-69358095D01*
X87907809Y-69405714D01*
X87764952Y-69405714D01*
X87574476Y-69358095D01*
X87479238Y-69310476D01*
X87384000Y-69215238D01*
X87336380Y-69072380D01*
X87336380Y-68977142D01*
X87384000Y-68834285D01*
X87431619Y-68786666D01*
X88336380Y-67834285D02*
X88336380Y-68405714D01*
X88336380Y-68120000D02*
X87336380Y-68120000D01*
X87479238Y-68215238D01*
X87574476Y-68310476D01*
X87622095Y-68405714D01*
%TO.C,C2*%
X105386142Y-88351666D02*
X105433761Y-88399285D01*
X105481380Y-88542142D01*
X105481380Y-88637380D01*
X105433761Y-88780238D01*
X105338523Y-88875476D01*
X105243285Y-88923095D01*
X105052809Y-88970714D01*
X104909952Y-88970714D01*
X104719476Y-88923095D01*
X104624238Y-88875476D01*
X104529000Y-88780238D01*
X104481380Y-88637380D01*
X104481380Y-88542142D01*
X104529000Y-88399285D01*
X104576619Y-88351666D01*
X104576619Y-87970714D02*
X104529000Y-87923095D01*
X104481380Y-87827857D01*
X104481380Y-87589761D01*
X104529000Y-87494523D01*
X104576619Y-87446904D01*
X104671857Y-87399285D01*
X104767095Y-87399285D01*
X104909952Y-87446904D01*
X105481380Y-88018333D01*
X105481380Y-87399285D01*
%TO.C,H5*%
X149738095Y-51449436D02*
X149738095Y-50449436D01*
X149738095Y-50925627D02*
X150309523Y-50925627D01*
X150309523Y-51449436D02*
X150309523Y-50449436D01*
X151261904Y-50449436D02*
X150785714Y-50449436D01*
X150738095Y-50925627D01*
X150785714Y-50878008D01*
X150880952Y-50830389D01*
X151119047Y-50830389D01*
X151214285Y-50878008D01*
X151261904Y-50925627D01*
X151309523Y-51020865D01*
X151309523Y-51258960D01*
X151261904Y-51354198D01*
X151214285Y-51401817D01*
X151119047Y-51449436D01*
X150880952Y-51449436D01*
X150785714Y-51401817D01*
X150738095Y-51354198D01*
%TO.C,H6*%
X149738095Y-141252380D02*
X149738095Y-140252380D01*
X149738095Y-140728571D02*
X150309523Y-140728571D01*
X150309523Y-141252380D02*
X150309523Y-140252380D01*
X151214285Y-140252380D02*
X151023809Y-140252380D01*
X150928571Y-140300000D01*
X150880952Y-140347619D01*
X150785714Y-140490476D01*
X150738095Y-140680952D01*
X150738095Y-141061904D01*
X150785714Y-141157142D01*
X150833333Y-141204761D01*
X150928571Y-141252380D01*
X151119047Y-141252380D01*
X151214285Y-141204761D01*
X151261904Y-141157142D01*
X151309523Y-141061904D01*
X151309523Y-140823809D01*
X151261904Y-140728571D01*
X151214285Y-140680952D01*
X151119047Y-140633333D01*
X150928571Y-140633333D01*
X150833333Y-140680952D01*
X150785714Y-140728571D01*
X150738095Y-140823809D01*
%TO.C,J2*%
X197964380Y-81359333D02*
X198678666Y-81359333D01*
X198821523Y-81406952D01*
X198916761Y-81502190D01*
X198964380Y-81645047D01*
X198964380Y-81740285D01*
X198059619Y-80930761D02*
X198012000Y-80883142D01*
X197964380Y-80787904D01*
X197964380Y-80549809D01*
X198012000Y-80454571D01*
X198059619Y-80406952D01*
X198154857Y-80359333D01*
X198250095Y-80359333D01*
X198392952Y-80406952D01*
X198964380Y-80978380D01*
X198964380Y-80359333D01*
%TO.C,U2*%
X120048095Y-71822380D02*
X120048095Y-72631904D01*
X120095714Y-72727142D01*
X120143333Y-72774761D01*
X120238571Y-72822380D01*
X120429047Y-72822380D01*
X120524285Y-72774761D01*
X120571904Y-72727142D01*
X120619523Y-72631904D01*
X120619523Y-71822380D01*
X121048095Y-71917619D02*
X121095714Y-71870000D01*
X121190952Y-71822380D01*
X121429047Y-71822380D01*
X121524285Y-71870000D01*
X121571904Y-71917619D01*
X121619523Y-72012857D01*
X121619523Y-72108095D01*
X121571904Y-72250952D01*
X121000476Y-72822380D01*
X121619523Y-72822380D01*
X117690952Y-91722380D02*
X118357619Y-91722380D01*
X117929047Y-92722380D01*
X119167142Y-92055714D02*
X119167142Y-92722380D01*
X118929047Y-91674761D02*
X118690952Y-92389047D01*
X119310000Y-92389047D01*
X120167142Y-92722380D02*
X119690952Y-92722380D01*
X119690952Y-91722380D01*
X120452857Y-92674761D02*
X120595714Y-92722380D01*
X120833809Y-92722380D01*
X120929047Y-92674761D01*
X120976666Y-92627142D01*
X121024285Y-92531904D01*
X121024285Y-92436666D01*
X120976666Y-92341428D01*
X120929047Y-92293809D01*
X120833809Y-92246190D01*
X120643333Y-92198571D01*
X120548095Y-92150952D01*
X120500476Y-92103333D01*
X120452857Y-92008095D01*
X120452857Y-91912857D01*
X120500476Y-91817619D01*
X120548095Y-91770000D01*
X120643333Y-91722380D01*
X120881428Y-91722380D01*
X121024285Y-91770000D01*
X121976666Y-92722380D02*
X121405238Y-92722380D01*
X121690952Y-92722380D02*
X121690952Y-91722380D01*
X121595714Y-91865238D01*
X121500476Y-91960476D01*
X121405238Y-92008095D01*
X122310000Y-91722380D02*
X122929047Y-91722380D01*
X122595714Y-92103333D01*
X122738571Y-92103333D01*
X122833809Y-92150952D01*
X122881428Y-92198571D01*
X122929047Y-92293809D01*
X122929047Y-92531904D01*
X122881428Y-92627142D01*
X122833809Y-92674761D01*
X122738571Y-92722380D01*
X122452857Y-92722380D01*
X122357619Y-92674761D01*
X122310000Y-92627142D01*
X123310000Y-91817619D02*
X123357619Y-91770000D01*
X123452857Y-91722380D01*
X123690952Y-91722380D01*
X123786190Y-91770000D01*
X123833809Y-91817619D01*
X123881428Y-91912857D01*
X123881428Y-92008095D01*
X123833809Y-92150952D01*
X123262380Y-92722380D01*
X123881428Y-92722380D01*
D11*
%TO.C,U5*%
X162060000Y-109890000D02*
X160810000Y-109890000D01*
X157560000Y-109890000D02*
X157560000Y-130330000D01*
X162060000Y-130330000D02*
X162060000Y-109890000D01*
X158810000Y-109890000D02*
X157560000Y-109890000D01*
X157560000Y-130330000D02*
X162060000Y-130330000D01*
X158810000Y-109890000D02*
G75*
G03*
X160810000Y-109890000I1000000J0D01*
G01*
%TO.C,U4*%
X184060000Y-91330000D02*
X184060000Y-73430000D01*
X179560000Y-91330000D02*
X184060000Y-91330000D01*
X184060000Y-73430000D02*
X182810000Y-73430000D01*
X180810000Y-73430000D02*
X179560000Y-73430000D01*
X179560000Y-73430000D02*
X179560000Y-91330000D01*
X180810000Y-73430000D02*
G75*
G03*
X182810000Y-73430000I1000000J0D01*
G01*
%TO.C,U6*%
X176060000Y-130330000D02*
X176060000Y-112430000D01*
X171560000Y-130330000D02*
X176060000Y-130330000D01*
X176060000Y-112430000D02*
X174810000Y-112430000D01*
X172810000Y-112430000D02*
X171560000Y-112430000D01*
X171560000Y-112430000D02*
X171560000Y-130330000D01*
X172810000Y-112430000D02*
G75*
G03*
X174810000Y-112430000I1000000J0D01*
G01*
%TO.C,U3*%
X146060000Y-91330000D02*
X146060000Y-73430000D01*
X141560000Y-91330000D02*
X146060000Y-91330000D01*
X146060000Y-73430000D02*
X144810000Y-73430000D01*
X142810000Y-73430000D02*
X141560000Y-73430000D01*
X141560000Y-73430000D02*
X141560000Y-91330000D01*
X142810000Y-73430000D02*
G75*
G03*
X144810000Y-73430000I1000000J0D01*
G01*
%TO.C,D1*%
X193455000Y-102530000D02*
X196545000Y-102530000D01*
X196544830Y-102530000D02*
G75*
G03*
X194999538Y-96980000I-1544830J2560000D01*
G01*
X195000462Y-96980000D02*
G75*
G03*
X193455170Y-102530000I-462J-2990000D01*
G01*
X197500000Y-99970000D02*
G75*
G03*
X197500000Y-99970000I-2500000J0D01*
G01*
%TO.C,D2*%
X193455000Y-108990000D02*
X196545000Y-108990000D01*
X196544830Y-108990000D02*
G75*
G03*
X194999538Y-103440000I-1544830J2560000D01*
G01*
X195000462Y-103440000D02*
G75*
G03*
X193455170Y-108990000I-462J-2990000D01*
G01*
X197500000Y-106430000D02*
G75*
G03*
X197500000Y-106430000I-2500000J0D01*
G01*
%TO.C,D3*%
X193455000Y-115530000D02*
X196545000Y-115530000D01*
X196544830Y-115530000D02*
G75*
G03*
X194999538Y-109980000I-1544830J2560000D01*
G01*
X195000462Y-109980000D02*
G75*
G03*
X193455170Y-115530000I-462J-2990000D01*
G01*
X197500000Y-112970000D02*
G75*
G03*
X197500000Y-112970000I-2500000J0D01*
G01*
%TO.C,D4*%
X193455000Y-121990000D02*
X196545000Y-121990000D01*
X196544830Y-121990000D02*
G75*
G03*
X194999538Y-116440000I-1544830J2560000D01*
G01*
X195000462Y-116440000D02*
G75*
G03*
X193455170Y-121990000I-462J-2990000D01*
G01*
X197500000Y-119430000D02*
G75*
G03*
X197500000Y-119430000I-2500000J0D01*
G01*
%TO.C,D5*%
X193455000Y-128530000D02*
X196545000Y-128530000D01*
X196544830Y-128530000D02*
G75*
G03*
X194999538Y-122980000I-1544830J2560000D01*
G01*
X195000462Y-122980000D02*
G75*
G03*
X193455170Y-128530000I-462J-2990000D01*
G01*
X197500000Y-125970000D02*
G75*
G03*
X197500000Y-125970000I-2500000J0D01*
G01*
%TO.C,D6*%
X193455000Y-134990000D02*
X196545000Y-134990000D01*
X196544830Y-134990000D02*
G75*
G03*
X194999538Y-129440000I-1544830J2560000D01*
G01*
X195000462Y-129440000D02*
G75*
G03*
X193455170Y-134990000I-462J-2990000D01*
G01*
X197500000Y-132430000D02*
G75*
G03*
X197500000Y-132430000I-2500000J0D01*
G01*
%TO.C,U1*%
X94885000Y-70933000D02*
X93635000Y-70933000D01*
X101135000Y-91433000D02*
X101135000Y-70873000D01*
X93635000Y-91373000D02*
X98135000Y-91373000D01*
X90635000Y-70873000D02*
X90635000Y-91433000D01*
X98135000Y-91373000D02*
X98135000Y-70933000D01*
X98135000Y-70933000D02*
X96885000Y-70933000D01*
X90635000Y-91433000D02*
X101135000Y-91433000D01*
X93635000Y-70933000D02*
X93635000Y-91373000D01*
X101135000Y-70873000D02*
X90635000Y-70873000D01*
X94885000Y-70933000D02*
G75*
G03*
X96885000Y-70933000I1000000J0D01*
G01*
%TO.C,D8*%
X62230000Y-127691371D02*
X62230000Y-130345000D01*
X63556371Y-126365000D02*
G75*
G03*
X63556371Y-126365000I-1326371J0D01*
G01*
%TO.C,R1*%
X183150000Y-97330000D02*
X183150000Y-100070000D01*
X183150000Y-100070000D02*
X189690000Y-100070000D01*
X189690000Y-100070000D02*
X189690000Y-97330000D01*
X189690000Y-97330000D02*
X183150000Y-97330000D01*
X190460000Y-98700000D02*
X189690000Y-98700000D01*
X182380000Y-98700000D02*
X183150000Y-98700000D01*
%TO.C,R2*%
X190460000Y-105200000D02*
X189690000Y-105200000D01*
X183150000Y-106570000D02*
X189690000Y-106570000D01*
X183150000Y-103830000D02*
X183150000Y-106570000D01*
X182380000Y-105200000D02*
X183150000Y-105200000D01*
X189690000Y-103830000D02*
X183150000Y-103830000D01*
X189690000Y-106570000D02*
X189690000Y-103830000D01*
%TO.C,R3*%
X189690000Y-113070000D02*
X189690000Y-110330000D01*
X182380000Y-111700000D02*
X183150000Y-111700000D01*
X183150000Y-110330000D02*
X183150000Y-113070000D01*
X183150000Y-113070000D02*
X189690000Y-113070000D01*
X189690000Y-110330000D02*
X183150000Y-110330000D01*
X190460000Y-111700000D02*
X189690000Y-111700000D01*
%TO.C,R4*%
X183150000Y-119570000D02*
X189690000Y-119570000D01*
X182380000Y-118200000D02*
X183150000Y-118200000D01*
X189690000Y-119570000D02*
X189690000Y-116830000D01*
X189690000Y-116830000D02*
X183150000Y-116830000D01*
X183150000Y-116830000D02*
X183150000Y-119570000D01*
X190460000Y-118200000D02*
X189690000Y-118200000D01*
%TO.C,R5*%
X190460000Y-124700000D02*
X189690000Y-124700000D01*
X183150000Y-126070000D02*
X189690000Y-126070000D01*
X189690000Y-126070000D02*
X189690000Y-123330000D01*
X182380000Y-124700000D02*
X183150000Y-124700000D01*
X189690000Y-123330000D02*
X183150000Y-123330000D01*
X183150000Y-123330000D02*
X183150000Y-126070000D01*
%TO.C,R6*%
X182380000Y-131200000D02*
X183150000Y-131200000D01*
X183150000Y-129830000D02*
X183150000Y-132570000D01*
X189690000Y-129830000D02*
X183150000Y-129830000D01*
X183150000Y-132570000D02*
X189690000Y-132570000D01*
X190460000Y-131200000D02*
X189690000Y-131200000D01*
X189690000Y-132570000D02*
X189690000Y-129830000D01*
%TO.C,R7*%
X85190000Y-69755000D02*
X82450000Y-69755000D01*
X85190000Y-76295000D02*
X85190000Y-69755000D01*
X83820000Y-68985000D02*
X83820000Y-69755000D01*
X82450000Y-69755000D02*
X82450000Y-76295000D01*
X83820000Y-77065000D02*
X83820000Y-76295000D01*
X82450000Y-76295000D02*
X85190000Y-76295000D01*
%TO.C,R8*%
X103630000Y-69650000D02*
X103630000Y-76190000D01*
X105000000Y-76960000D02*
X105000000Y-76190000D01*
X106370000Y-76190000D02*
X106370000Y-69650000D01*
X106370000Y-69650000D02*
X103630000Y-69650000D01*
X103630000Y-76190000D02*
X106370000Y-76190000D01*
X105000000Y-68880000D02*
X105000000Y-69650000D01*
%TO.C,R9*%
X76935000Y-89440000D02*
X74195000Y-89440000D01*
X74195000Y-89440000D02*
X74195000Y-95980000D01*
X75565000Y-96750000D02*
X75565000Y-95980000D01*
X76935000Y-95980000D02*
X76935000Y-89440000D01*
X75565000Y-88670000D02*
X75565000Y-89440000D01*
X74195000Y-95980000D02*
X76935000Y-95980000D01*
%TO.C,R10*%
X72390000Y-96750000D02*
X72390000Y-95980000D01*
X73760000Y-95980000D02*
X73760000Y-89440000D01*
X73760000Y-89440000D02*
X71020000Y-89440000D01*
X72390000Y-88670000D02*
X72390000Y-89440000D01*
X71020000Y-95980000D02*
X73760000Y-95980000D01*
X71020000Y-89440000D02*
X71020000Y-95980000D01*
%TO.C,R11*%
X70585000Y-89440000D02*
X67845000Y-89440000D01*
X67845000Y-89440000D02*
X67845000Y-95980000D01*
X69215000Y-96750000D02*
X69215000Y-95980000D01*
X69215000Y-88670000D02*
X69215000Y-89440000D01*
X70585000Y-95980000D02*
X70585000Y-89440000D01*
X67845000Y-95980000D02*
X70585000Y-95980000D01*
%TO.C,R13*%
X61495000Y-95980000D02*
X64235000Y-95980000D01*
X64235000Y-89440000D02*
X61495000Y-89440000D01*
X64235000Y-95980000D02*
X64235000Y-89440000D01*
X61495000Y-89440000D02*
X61495000Y-95980000D01*
X62865000Y-88670000D02*
X62865000Y-89440000D01*
X62865000Y-96750000D02*
X62865000Y-95980000D01*
%TO.C,R14*%
X59436000Y-96750000D02*
X59436000Y-95980000D01*
X60806000Y-95980000D02*
X60806000Y-89440000D01*
X60806000Y-89440000D02*
X58066000Y-89440000D01*
X59436000Y-88670000D02*
X59436000Y-89440000D01*
X58066000Y-89440000D02*
X58066000Y-95980000D01*
X58066000Y-95980000D02*
X60806000Y-95980000D01*
%TO.C,R12*%
X64670000Y-89440000D02*
X64670000Y-95980000D01*
X64670000Y-95980000D02*
X67410000Y-95980000D01*
X66040000Y-88670000D02*
X66040000Y-89440000D01*
X67410000Y-95980000D02*
X67410000Y-89440000D01*
X67410000Y-89440000D02*
X64670000Y-89440000D01*
X66040000Y-96750000D02*
X66040000Y-95980000D01*
%TO.C,D7*%
X58570000Y-129155000D02*
X60810000Y-129155000D01*
X58570000Y-129755000D02*
X60810000Y-129755000D01*
X60810000Y-129755000D02*
X60810000Y-125515000D01*
X59690000Y-130405000D02*
X59690000Y-129755000D01*
X59690000Y-124865000D02*
X59690000Y-125515000D01*
X60810000Y-125515000D02*
X58570000Y-125515000D01*
X58570000Y-128915000D02*
X60810000Y-128915000D01*
X58570000Y-125515000D02*
X58570000Y-129755000D01*
X58570000Y-129035000D02*
X60810000Y-129035000D01*
%TO.C,D9*%
X65890000Y-127215000D02*
X65890000Y-122975000D01*
X63650000Y-126615000D02*
X65890000Y-126615000D01*
X63650000Y-126495000D02*
X65890000Y-126495000D01*
X63650000Y-122975000D02*
X63650000Y-127215000D01*
X63650000Y-127215000D02*
X65890000Y-127215000D01*
X64770000Y-119785000D02*
X64770000Y-122975000D01*
X64770000Y-130405000D02*
X64770000Y-127215000D01*
X63650000Y-126375000D02*
X65890000Y-126375000D01*
X65890000Y-122975000D02*
X63650000Y-122975000D01*
%TO.C,D10*%
X66190000Y-127885000D02*
X68430000Y-127885000D01*
X66190000Y-124245000D02*
X66190000Y-128485000D01*
X68430000Y-128485000D02*
X68430000Y-124245000D01*
X66190000Y-127765000D02*
X68430000Y-127765000D01*
X67310000Y-122325000D02*
X67310000Y-124245000D01*
X67310000Y-130405000D02*
X67310000Y-128485000D01*
X66190000Y-127645000D02*
X68430000Y-127645000D01*
X68430000Y-124245000D02*
X66190000Y-124245000D01*
X66190000Y-128485000D02*
X68430000Y-128485000D01*
%TO.C,D11*%
X68730000Y-127215000D02*
X70970000Y-127215000D01*
X69850000Y-130405000D02*
X69850000Y-127215000D01*
X68730000Y-122975000D02*
X68730000Y-127215000D01*
X70970000Y-127215000D02*
X70970000Y-122975000D01*
X69850000Y-119785000D02*
X69850000Y-122975000D01*
X68730000Y-126375000D02*
X70970000Y-126375000D01*
X68730000Y-126615000D02*
X70970000Y-126615000D01*
X70970000Y-122975000D02*
X68730000Y-122975000D01*
X68730000Y-126495000D02*
X70970000Y-126495000D01*
%TO.C,D12*%
X73510000Y-128485000D02*
X73510000Y-124245000D01*
X73510000Y-124245000D02*
X71270000Y-124245000D01*
X71270000Y-127765000D02*
X73510000Y-127765000D01*
X71270000Y-128485000D02*
X73510000Y-128485000D01*
X72390000Y-130405000D02*
X72390000Y-128485000D01*
X71270000Y-127645000D02*
X73510000Y-127645000D01*
X71270000Y-127885000D02*
X73510000Y-127885000D01*
X72390000Y-122325000D02*
X72390000Y-124245000D01*
X71270000Y-124245000D02*
X71270000Y-128485000D01*
%TO.C,D13*%
X73810000Y-129755000D02*
X76050000Y-129755000D01*
X73810000Y-128915000D02*
X76050000Y-128915000D01*
X73810000Y-129155000D02*
X76050000Y-129155000D01*
X74930000Y-130405000D02*
X74930000Y-129755000D01*
X74930000Y-124865000D02*
X74930000Y-125515000D01*
X73810000Y-125515000D02*
X73810000Y-129755000D01*
X76050000Y-129755000D02*
X76050000Y-125515000D01*
X73810000Y-129035000D02*
X76050000Y-129035000D01*
X76050000Y-125515000D02*
X73810000Y-125515000D01*
%TO.C,D14*%
X77470000Y-127691371D02*
X77470000Y-130345000D01*
X78796371Y-126365000D02*
G75*
G03*
X78796371Y-126365000I-1326371J0D01*
G01*
%TO.C,D15*%
X81130000Y-125515000D02*
X78890000Y-125515000D01*
X78890000Y-128915000D02*
X81130000Y-128915000D01*
X78890000Y-129155000D02*
X81130000Y-129155000D01*
X80010000Y-124865000D02*
X80010000Y-125515000D01*
X78890000Y-125515000D02*
X78890000Y-129755000D01*
X80010000Y-130405000D02*
X80010000Y-129755000D01*
X81130000Y-129755000D02*
X81130000Y-125515000D01*
X78890000Y-129755000D02*
X81130000Y-129755000D01*
X78890000Y-129035000D02*
X81130000Y-129035000D01*
%TO.C,D16*%
X81430000Y-126615000D02*
X83670000Y-126615000D01*
X83670000Y-122975000D02*
X81430000Y-122975000D01*
X81430000Y-122975000D02*
X81430000Y-127215000D01*
X82550000Y-130405000D02*
X82550000Y-127215000D01*
X81430000Y-126375000D02*
X83670000Y-126375000D01*
X83670000Y-127215000D02*
X83670000Y-122975000D01*
X82550000Y-119785000D02*
X82550000Y-122975000D01*
X81430000Y-127215000D02*
X83670000Y-127215000D01*
X81430000Y-126495000D02*
X83670000Y-126495000D01*
%TO.C,J3*%
X76330000Y-146270000D02*
X76330000Y-146330000D01*
X73670000Y-143670000D02*
X75000000Y-143670000D01*
X73670000Y-146270000D02*
X73670000Y-146330000D01*
X73670000Y-145000000D02*
X73670000Y-143670000D01*
X73670000Y-146270000D02*
X76330000Y-146270000D01*
X73670000Y-146330000D02*
X76330000Y-146330000D01*
%TO.C,D17*%
X86210000Y-127215000D02*
X86210000Y-122975000D01*
X85090000Y-130405000D02*
X85090000Y-127215000D01*
X83970000Y-126375000D02*
X86210000Y-126375000D01*
X83970000Y-126615000D02*
X86210000Y-126615000D01*
X83970000Y-122975000D02*
X83970000Y-127215000D01*
X85090000Y-119785000D02*
X85090000Y-122975000D01*
X86210000Y-122975000D02*
X83970000Y-122975000D01*
X83970000Y-127215000D02*
X86210000Y-127215000D01*
X83970000Y-126495000D02*
X86210000Y-126495000D01*
%TO.C,J1*%
X81270000Y-143670000D02*
X119430000Y-143670000D01*
X78670000Y-146330000D02*
X78670000Y-145000000D01*
X81270000Y-146330000D02*
X119430000Y-146330000D01*
X80000000Y-146330000D02*
X78670000Y-146330000D01*
X81270000Y-146330000D02*
X81270000Y-143670000D01*
X119430000Y-146330000D02*
X119430000Y-143670000D01*
%TO.C,D18*%
X87630000Y-127691371D02*
X87630000Y-130345000D01*
X88956371Y-126365000D02*
G75*
G03*
X88956371Y-126365000I-1326371J0D01*
G01*
%TO.C,D19*%
X89050000Y-129155000D02*
X91290000Y-129155000D01*
X90170000Y-124865000D02*
X90170000Y-125515000D01*
X89050000Y-129035000D02*
X91290000Y-129035000D01*
X91290000Y-125515000D02*
X89050000Y-125515000D01*
X91290000Y-129755000D02*
X91290000Y-125515000D01*
X89050000Y-128915000D02*
X91290000Y-128915000D01*
X89050000Y-125515000D02*
X89050000Y-129755000D01*
X89050000Y-129755000D02*
X91290000Y-129755000D01*
X90170000Y-130405000D02*
X90170000Y-129755000D01*
%TO.C,D20*%
X91590000Y-127885000D02*
X93830000Y-127885000D01*
X93830000Y-124245000D02*
X91590000Y-124245000D01*
X91590000Y-124245000D02*
X91590000Y-128485000D01*
X92710000Y-130405000D02*
X92710000Y-128485000D01*
X91590000Y-128485000D02*
X93830000Y-128485000D01*
X91590000Y-127765000D02*
X93830000Y-127765000D01*
X93830000Y-128485000D02*
X93830000Y-124245000D01*
X91590000Y-127645000D02*
X93830000Y-127645000D01*
X92710000Y-122325000D02*
X92710000Y-124245000D01*
%TO.C,D21*%
X94130000Y-129035000D02*
X96370000Y-129035000D01*
X95250000Y-130405000D02*
X95250000Y-129755000D01*
X96370000Y-129755000D02*
X96370000Y-125515000D01*
X95250000Y-124865000D02*
X95250000Y-125515000D01*
X94130000Y-128915000D02*
X96370000Y-128915000D01*
X94130000Y-125515000D02*
X94130000Y-129755000D01*
X96370000Y-125515000D02*
X94130000Y-125515000D01*
X94130000Y-129155000D02*
X96370000Y-129155000D01*
X94130000Y-129755000D02*
X96370000Y-129755000D01*
%TO.C,D22*%
X97790000Y-119785000D02*
X97790000Y-122975000D01*
X97790000Y-130405000D02*
X97790000Y-127215000D01*
X98910000Y-127215000D02*
X98910000Y-122975000D01*
X96670000Y-126495000D02*
X98910000Y-126495000D01*
X96670000Y-126615000D02*
X98910000Y-126615000D01*
X96670000Y-126375000D02*
X98910000Y-126375000D01*
X98910000Y-122975000D02*
X96670000Y-122975000D01*
X96670000Y-122975000D02*
X96670000Y-127215000D01*
X96670000Y-127215000D02*
X98910000Y-127215000D01*
%TO.C,R15*%
X108612000Y-76295000D02*
X111352000Y-76295000D01*
X108612000Y-69755000D02*
X108612000Y-76295000D01*
X109982000Y-68985000D02*
X109982000Y-69755000D01*
X109982000Y-77065000D02*
X109982000Y-76295000D01*
X111352000Y-69755000D02*
X108612000Y-69755000D01*
X111352000Y-76295000D02*
X111352000Y-69755000D01*
%TO.C,D23*%
X100330000Y-127691371D02*
X100330000Y-130345000D01*
X101656371Y-126365000D02*
G75*
G03*
X101656371Y-126365000I-1326371J0D01*
G01*
%TO.C,D24*%
X102870000Y-122325000D02*
X102870000Y-124245000D01*
X103990000Y-128485000D02*
X103990000Y-124245000D01*
X101750000Y-127645000D02*
X103990000Y-127645000D01*
X103990000Y-124245000D02*
X101750000Y-124245000D01*
X101750000Y-127765000D02*
X103990000Y-127765000D01*
X101750000Y-127885000D02*
X103990000Y-127885000D01*
X101750000Y-124245000D02*
X101750000Y-128485000D01*
X102870000Y-130405000D02*
X102870000Y-128485000D01*
X101750000Y-128485000D02*
X103990000Y-128485000D01*
%TO.C,D25*%
X104290000Y-122975000D02*
X104290000Y-127215000D01*
X106530000Y-122975000D02*
X104290000Y-122975000D01*
X104290000Y-126495000D02*
X106530000Y-126495000D01*
X104290000Y-126375000D02*
X106530000Y-126375000D01*
X105410000Y-119785000D02*
X105410000Y-122975000D01*
X106530000Y-127215000D02*
X106530000Y-122975000D01*
X104290000Y-126615000D02*
X106530000Y-126615000D01*
X105410000Y-130405000D02*
X105410000Y-127215000D01*
X104290000Y-127215000D02*
X106530000Y-127215000D01*
%TO.C,D26*%
X107950000Y-130405000D02*
X107950000Y-128485000D01*
X109070000Y-124245000D02*
X106830000Y-124245000D01*
X106830000Y-127885000D02*
X109070000Y-127885000D01*
X106830000Y-127645000D02*
X109070000Y-127645000D01*
X106830000Y-127765000D02*
X109070000Y-127765000D01*
X106830000Y-128485000D02*
X109070000Y-128485000D01*
X107950000Y-122325000D02*
X107950000Y-124245000D01*
X106830000Y-124245000D02*
X106830000Y-128485000D01*
X109070000Y-128485000D02*
X109070000Y-124245000D01*
%TO.C,D27*%
X111610000Y-127215000D02*
X111610000Y-122975000D01*
X109370000Y-126495000D02*
X111610000Y-126495000D01*
X109370000Y-127215000D02*
X111610000Y-127215000D01*
X109370000Y-126375000D02*
X111610000Y-126375000D01*
X109370000Y-126615000D02*
X111610000Y-126615000D01*
X111610000Y-122975000D02*
X109370000Y-122975000D01*
X109370000Y-122975000D02*
X109370000Y-127215000D01*
X110490000Y-119785000D02*
X110490000Y-122975000D01*
X110490000Y-130405000D02*
X110490000Y-127215000D01*
%TO.C,D28*%
X113030000Y-124865000D02*
X113030000Y-125515000D01*
X111910000Y-128915000D02*
X114150000Y-128915000D01*
X113030000Y-130405000D02*
X113030000Y-129755000D01*
X111910000Y-125515000D02*
X111910000Y-129755000D01*
X111910000Y-129155000D02*
X114150000Y-129155000D01*
X114150000Y-125515000D02*
X111910000Y-125515000D01*
X114150000Y-129755000D02*
X114150000Y-125515000D01*
X111910000Y-129755000D02*
X114150000Y-129755000D01*
X111910000Y-129035000D02*
X114150000Y-129035000D01*
%TO.C,D29*%
X114450000Y-126615000D02*
X116690000Y-126615000D01*
X114450000Y-126375000D02*
X116690000Y-126375000D01*
X115570000Y-119785000D02*
X115570000Y-122975000D01*
X116690000Y-127215000D02*
X116690000Y-122975000D01*
X114450000Y-126495000D02*
X116690000Y-126495000D01*
X116690000Y-122975000D02*
X114450000Y-122975000D01*
X114450000Y-127215000D02*
X116690000Y-127215000D01*
X115570000Y-130405000D02*
X115570000Y-127215000D01*
X114450000Y-122975000D02*
X114450000Y-127215000D01*
%TO.C,D30*%
X116990000Y-127645000D02*
X119230000Y-127645000D01*
X116990000Y-127885000D02*
X119230000Y-127885000D01*
X116990000Y-127765000D02*
X119230000Y-127765000D01*
X118110000Y-130405000D02*
X118110000Y-128485000D01*
X119230000Y-124245000D02*
X116990000Y-124245000D01*
X119230000Y-128485000D02*
X119230000Y-124245000D01*
X118110000Y-122325000D02*
X118110000Y-124245000D01*
X116990000Y-124245000D02*
X116990000Y-128485000D01*
X116990000Y-128485000D02*
X119230000Y-128485000D01*
%TO.C,D31*%
X121770000Y-122975000D02*
X119530000Y-122975000D01*
X119530000Y-122975000D02*
X119530000Y-127215000D01*
X120650000Y-130405000D02*
X120650000Y-127215000D01*
X120650000Y-119785000D02*
X120650000Y-122975000D01*
X119530000Y-127215000D02*
X121770000Y-127215000D01*
X119530000Y-126615000D02*
X121770000Y-126615000D01*
X119530000Y-126495000D02*
X121770000Y-126495000D01*
X119530000Y-126375000D02*
X121770000Y-126375000D01*
X121770000Y-127215000D02*
X121770000Y-122975000D01*
%TO.C,D32*%
X122070000Y-126495000D02*
X124310000Y-126495000D01*
X124310000Y-122975000D02*
X122070000Y-122975000D01*
X123190000Y-119785000D02*
X123190000Y-122975000D01*
X122070000Y-127215000D02*
X124310000Y-127215000D01*
X122070000Y-126615000D02*
X124310000Y-126615000D01*
X122070000Y-126375000D02*
X124310000Y-126375000D01*
X122070000Y-122975000D02*
X122070000Y-127215000D01*
X123190000Y-130405000D02*
X123190000Y-127215000D01*
X124310000Y-127215000D02*
X124310000Y-122975000D01*
%TO.C,D33*%
X125730000Y-127691371D02*
X125730000Y-130345000D01*
X127056371Y-126365000D02*
G75*
G03*
X127056371Y-126365000I-1326371J0D01*
G01*
%TO.C,D34*%
X128270000Y-130405000D02*
X128270000Y-128485000D01*
X127150000Y-128485000D02*
X129390000Y-128485000D01*
X127150000Y-127765000D02*
X129390000Y-127765000D01*
X127150000Y-127885000D02*
X129390000Y-127885000D01*
X128270000Y-122325000D02*
X128270000Y-124245000D01*
X129390000Y-128485000D02*
X129390000Y-124245000D01*
X127150000Y-124245000D02*
X127150000Y-128485000D01*
X129390000Y-124245000D02*
X127150000Y-124245000D01*
X127150000Y-127645000D02*
X129390000Y-127645000D01*
%TO.C,D35*%
X130810000Y-130405000D02*
X130810000Y-129755000D01*
X129690000Y-125515000D02*
X129690000Y-129755000D01*
X130810000Y-124865000D02*
X130810000Y-125515000D01*
X131930000Y-125515000D02*
X129690000Y-125515000D01*
X129690000Y-129155000D02*
X131930000Y-129155000D01*
X129690000Y-128915000D02*
X131930000Y-128915000D01*
X131930000Y-129755000D02*
X131930000Y-125515000D01*
X129690000Y-129755000D02*
X131930000Y-129755000D01*
X129690000Y-129035000D02*
X131930000Y-129035000D01*
%TO.C,D36*%
X133350000Y-127691371D02*
X133350000Y-130345000D01*
X134676371Y-126365000D02*
G75*
G03*
X134676371Y-126365000I-1326371J0D01*
G01*
%TO.C,D37*%
X137010000Y-125515000D02*
X134770000Y-125515000D01*
X137010000Y-129755000D02*
X137010000Y-125515000D01*
X134770000Y-125515000D02*
X134770000Y-129755000D01*
X135890000Y-124865000D02*
X135890000Y-125515000D01*
X134770000Y-129755000D02*
X137010000Y-129755000D01*
X134770000Y-128915000D02*
X137010000Y-128915000D01*
X135890000Y-130405000D02*
X135890000Y-129755000D01*
X134770000Y-129035000D02*
X137010000Y-129035000D01*
X134770000Y-129155000D02*
X137010000Y-129155000D01*
%TO.C,D38*%
X137310000Y-127215000D02*
X139550000Y-127215000D01*
X137310000Y-126375000D02*
X139550000Y-126375000D01*
X137310000Y-126495000D02*
X139550000Y-126495000D01*
X138430000Y-119785000D02*
X138430000Y-122975000D01*
X139550000Y-122975000D02*
X137310000Y-122975000D01*
X139550000Y-127215000D02*
X139550000Y-122975000D01*
X137310000Y-126615000D02*
X139550000Y-126615000D01*
X137310000Y-122975000D02*
X137310000Y-127215000D01*
X138430000Y-130405000D02*
X138430000Y-127215000D01*
%TO.C,D39*%
X140970000Y-127691371D02*
X140970000Y-130345000D01*
X142296371Y-126365000D02*
G75*
G03*
X142296371Y-126365000I-1326371J0D01*
G01*
%TO.C,D40*%
X144630000Y-122975000D02*
X142390000Y-122975000D01*
X142390000Y-126615000D02*
X144630000Y-126615000D01*
X143510000Y-119785000D02*
X143510000Y-122975000D01*
X143510000Y-130405000D02*
X143510000Y-127215000D01*
X144630000Y-127215000D02*
X144630000Y-122975000D01*
X142390000Y-126375000D02*
X144630000Y-126375000D01*
X142390000Y-127215000D02*
X144630000Y-127215000D01*
X142390000Y-126495000D02*
X144630000Y-126495000D01*
X142390000Y-122975000D02*
X142390000Y-127215000D01*
%TO.C,D41*%
X144930000Y-128485000D02*
X147170000Y-128485000D01*
X146050000Y-122325000D02*
X146050000Y-124245000D01*
X144930000Y-124245000D02*
X144930000Y-128485000D01*
X147170000Y-124245000D02*
X144930000Y-124245000D01*
X144930000Y-127645000D02*
X147170000Y-127645000D01*
X144930000Y-127765000D02*
X147170000Y-127765000D01*
X144930000Y-127885000D02*
X147170000Y-127885000D01*
X146050000Y-130405000D02*
X146050000Y-128485000D01*
X147170000Y-128485000D02*
X147170000Y-124245000D01*
%TO.C,D42*%
X148590000Y-130405000D02*
X148590000Y-127215000D01*
X149710000Y-122975000D02*
X147470000Y-122975000D01*
X149710000Y-127215000D02*
X149710000Y-122975000D01*
X147470000Y-126615000D02*
X149710000Y-126615000D01*
X147470000Y-126495000D02*
X149710000Y-126495000D01*
X147470000Y-122975000D02*
X147470000Y-127215000D01*
X147470000Y-126375000D02*
X149710000Y-126375000D01*
X148590000Y-119785000D02*
X148590000Y-122975000D01*
X147470000Y-127215000D02*
X149710000Y-127215000D01*
%TO.C,D43*%
X151130000Y-127691371D02*
X151130000Y-130345000D01*
X152456371Y-126365000D02*
G75*
G03*
X152456371Y-126365000I-1326371J0D01*
G01*
D12*
%TO.C,REF\u002A\u002A*%
X80000000Y-55000000D02*
X79200000Y-57400000D01*
D11*
X77250000Y-56450000D02*
X82950000Y-56450000D01*
D12*
X78000000Y-53500000D02*
X77300000Y-56400000D01*
D11*
X80040000Y-54990000D02*
X81000000Y-57460000D01*
X74910000Y-54970000D02*
X79110000Y-54970000D01*
X77960000Y-53430000D02*
X79570000Y-53430000D01*
D13*
X82000000Y-55500000D02*
G75*
G03*
X82000000Y-55500000I-3000000J0D01*
G01*
D11*
%TO.C,C1*%
X86829000Y-71000000D02*
X86514000Y-71000000D01*
X89254000Y-71000000D02*
X89254000Y-76240000D01*
X89254000Y-71000000D02*
X88939000Y-71000000D01*
X89254000Y-76240000D02*
X88939000Y-76240000D01*
X86514000Y-71000000D02*
X86514000Y-76240000D01*
X86829000Y-76240000D02*
X86514000Y-76240000D01*
%TO.C,C2*%
X106399000Y-85805000D02*
X106084000Y-85805000D01*
X103974000Y-85805000D02*
X103659000Y-85805000D01*
X103659000Y-80565000D02*
X103659000Y-85805000D01*
X106399000Y-80565000D02*
X106399000Y-85805000D01*
X106399000Y-80565000D02*
X106084000Y-80565000D01*
X103974000Y-80565000D02*
X103659000Y-80565000D01*
%TO.C,J2*%
X196662000Y-89826000D02*
X197412000Y-89826000D01*
X197412000Y-89826000D02*
X197412000Y-88026000D01*
X191452000Y-72216000D02*
X191452000Y-89836000D01*
X192212000Y-72976000D02*
X192212000Y-81026000D01*
X192212000Y-89076000D02*
X192212000Y-81026000D01*
X197712000Y-71926000D02*
X196462000Y-71926000D01*
X196662000Y-88026000D02*
X196662000Y-89826000D01*
X195162000Y-72226000D02*
X195162000Y-72976000D01*
X196662000Y-72226000D02*
X196662000Y-74026000D01*
X197712000Y-73176000D02*
X197712000Y-71926000D01*
X191452000Y-89836000D02*
X197422000Y-89836000D01*
X195162000Y-72976000D02*
X192212000Y-72976000D01*
X197412000Y-74026000D02*
X197412000Y-72226000D01*
X195162000Y-89076000D02*
X192212000Y-89076000D01*
X196662000Y-86526000D02*
X197412000Y-86526000D01*
X196662000Y-74026000D02*
X197412000Y-74026000D01*
X197422000Y-72216000D02*
X191452000Y-72216000D01*
X197422000Y-89836000D02*
X197422000Y-72216000D01*
X197412000Y-72226000D02*
X196662000Y-72226000D01*
X197412000Y-75526000D02*
X196662000Y-75526000D01*
X196662000Y-75526000D02*
X196662000Y-86526000D01*
X195162000Y-89826000D02*
X195162000Y-89076000D01*
X197412000Y-88026000D02*
X196662000Y-88026000D01*
X197412000Y-86526000D02*
X197412000Y-75526000D01*
%TO.C,U2*%
X123060000Y-73370000D02*
X121810000Y-73370000D01*
X123060000Y-91270000D02*
X123060000Y-73370000D01*
X118560000Y-73370000D02*
X118560000Y-91270000D01*
X119810000Y-73370000D02*
X118560000Y-73370000D01*
X118560000Y-91270000D02*
X123060000Y-91270000D01*
X119810000Y-73370000D02*
G75*
G03*
X121810000Y-73370000I1000000J0D01*
G01*
%TD*%
M02*
