  0
SECTION
  2
HEADER
  9
$ANGBASE
  50
0.0
  9
$ANGDIR
  70
1
  9
$MEASUREMENT
  70
0
  0
ENDSEC
  0
SECTION
  2
TABLES
  0
TABLE
  2
LTYPE
  70
4
  0
LTYPE
  5
40F
  2
CONTINUOUS
  70
0
  3
Solid line
  72
65
  73
0
  40
0.0
  0
LTYPE
  5
410
  2
DASHDOT
 70
0
  3
Dash Dot ____ _ ____ _
 72
65
 73
4
 40
2.0
 49
1.25
 49
-0.25
 49
0.25
 49
-0.25
  0
LTYPE
  5
411
  2
DASHED
 70
0
  3
Dashed __ __ __ __ __
 72
65
 73
2
 40
0.75
 49
0.5
 49
-0.25
  0
LTYPE
  5
43B
  2
DOTTED
 70
0
  3
Dotted .  .  .  .
 72
65
 73
2
 40
0.2
 49
0.0
 49
-0.2
  0
ENDTAB
  0
TABLE
  2
STYLE
  70
4
  0
STYLE
  2
KICAD
  70
0
  40
0
  41
1
  42
1
  50
0
  71
0
  3
isocp.shx
  0
STYLE
  2
KICADB
  70
0
  40
0
  41
1
  42
1
  50
0
  71
0
  3
isocp.shx
  0
STYLE
  2
KICADI
  70
0
  40
0
  41
1
  42
1
  50
15
  71
0
  3
isocp.shx
  0
STYLE
  2
KICADBI
  70
0
  40
0
  41
1
  42
1
  50
15
  71
0
  3
isocp.shx
  0
ENDTAB
  0
TABLE
  2
LAYER
  70
1
  0
LAYER
  2
BLACK
  70
0
  62
7
  6
CONTINUOUS
  0
ENDTAB
  0
ENDSEC
  0
SECTION
  2
ENTITIES
0
LINE
8
BLACK
6
CONTINUOUS
10
1.9685
20
-1.9685
11
1.9685
21
-5.90551
0
LINE
8
BLACK
6
CONTINUOUS
10
7.87402
20
-1.9685
11
1.9685
21
-1.9685
0
LINE
8
BLACK
6
CONTINUOUS
10
7.87402
20
-5.90551
11
7.87402
21
-1.9685
0
LINE
8
BLACK
6
CONTINUOUS
10
1.9685
20
-5.90551
11
7.87402
21
-5.90551
0
LINE
8
BLACK
6
CONTINUOUS
10
5.80394
20
-4.38031
11
5.81969
21
-4.39606
0
LINE
8
BLACK
6
CONTINUOUS
10
5.81969
20
-4.38031
11
5.80394
21
-4.39606
0
CIRCLE
8
BLACK
10
2.09055
20
-2.18504
40
0.00984252
0
CIRCLE
8
BLACK
10
2.09055
20
-5.70866
40
0.00984252
0
CIRCLE
8
BLACK
10
2.11823
20
-2.11823
40
0.00984252
0
CIRCLE
8
BLACK
10
2.11823
20
-2.25185
40
0.00984252
0
CIRCLE
8
BLACK
10
2.11823
20
-5.64185
40
0.00984252
0
CIRCLE
8
BLACK
10
2.11823
20
-5.77547
40
0.00984252
0
CIRCLE
8
BLACK
10
2.18504
20
-2.09055
40
0.00984252
0
CIRCLE
8
BLACK
10
2.18504
20
-2.27953
40
0.00984252
0
CIRCLE
8
BLACK
10
2.18504
20
-5.61417
40
0.00984252
0
CIRCLE
8
BLACK
10
2.18504
20
-5.80315
40
0.00984252
0
CIRCLE
8
BLACK
10
2.25185
20
-2.11823
40
0.00984252
0
CIRCLE
8
BLACK
10
2.25185
20
-2.25185
40
0.00984252
0
CIRCLE
8
BLACK
10
2.25185
20
-5.64185
40
0.00984252
0
CIRCLE
8
BLACK
10
2.25185
20
-5.77547
40
0.00984252
0
CIRCLE
8
BLACK
10
2.27953
20
-2.18504
40
0.00984252
0
CIRCLE
8
BLACK
10
2.27953
20
-5.70866
40
0.00984252
0
CIRCLE
8
BLACK
10
5.83071
20
-2.17311
40
0.00984252
0
CIRCLE
8
BLACK
10
5.83071
20
-5.70866
40
0.00984252
0
CIRCLE
8
BLACK
10
5.85838
20
-2.1063
40
0.00984252
0
CIRCLE
8
BLACK
10
5.85838
20
-2.23993
40
0.00984252
0
CIRCLE
8
BLACK
10
5.85838
20
-5.64185
40
0.00984252
0
CIRCLE
8
BLACK
10
5.85838
20
-5.77547
40
0.00984252
0
CIRCLE
8
BLACK
10
5.9252
20
-2.07862
40
0.00984252
0
CIRCLE
8
BLACK
10
5.9252
20
-2.2676
40
0.00984252
0
CIRCLE
8
BLACK
10
5.9252
20
-5.61417
40
0.00984252
0
CIRCLE
8
BLACK
10
5.9252
20
-5.80315
40
0.00984252
0
CIRCLE
8
BLACK
10
5.99201
20
-2.1063
40
0.00984252
0
CIRCLE
8
BLACK
10
5.99201
20
-2.23993
40
0.00984252
0
CIRCLE
8
BLACK
10
5.99201
20
-5.64185
40
0.00984252
0
CIRCLE
8
BLACK
10
5.99201
20
-5.77547
40
0.00984252
0
CIRCLE
8
BLACK
10
6.01969
20
-2.17311
40
0.00984252
0
CIRCLE
8
BLACK
10
6.01969
20
-5.70866
40
0.00984252
0
CIRCLE
8
BLACK
10
7.58268
20
-2.16535
40
0.00984252
0
CIRCLE
8
BLACK
10
7.58268
20
-5.70866
40
0.00984252
0
CIRCLE
8
BLACK
10
7.61035
20
-2.09854
40
0.00984252
0
CIRCLE
8
BLACK
10
7.61035
20
-2.23217
40
0.00984252
0
CIRCLE
8
BLACK
10
7.61035
20
-5.64185
40
0.00984252
0
CIRCLE
8
BLACK
10
7.61035
20
-5.77547
40
0.00984252
0
CIRCLE
8
BLACK
10
7.67717
20
-2.07087
40
0.00984252
0
CIRCLE
8
BLACK
10
7.67717
20
-2.25984
40
0.00984252
0
CIRCLE
8
BLACK
10
7.67717
20
-5.61417
40
0.00984252
0
CIRCLE
8
BLACK
10
7.67717
20
-5.80315
40
0.00984252
0
CIRCLE
8
BLACK
10
7.74398
20
-2.09854
40
0.00984252
0
CIRCLE
8
BLACK
10
7.74398
20
-2.23217
40
0.00984252
0
CIRCLE
8
BLACK
10
7.74398
20
-5.64185
40
0.00984252
0
CIRCLE
8
BLACK
10
7.74398
20
-5.77547
40
0.00984252
0
CIRCLE
8
BLACK
10
7.77165
20
-2.16535
40
0.00984252
0
CIRCLE
8
BLACK
10
7.77165
20
-5.70866
40
0.00984252
0
LINE
8
BLACK
6
CONTINUOUS
10
2.35
20
-4.85925
11
2.35
21
-4.89075
0
LINE
8
BLACK
6
CONTINUOUS
10
2.33425
20
-4.875
11
2.36575
21
-4.875
0
LINE
8
BLACK
6
CONTINUOUS
10
2.35
20
-5.15925
11
2.35
21
-5.19075
0
LINE
8
BLACK
6
CONTINUOUS
10
2.33425
20
-5.175
11
2.36575
21
-5.175
0
LINE
8
BLACK
6
CONTINUOUS
10
2.35748
20
-3.43425
11
2.35748
21
-3.46575
0
LINE
8
BLACK
6
CONTINUOUS
10
2.34173
20
-3.45
11
2.37323
21
-3.45
0
LINE
8
BLACK
6
CONTINUOUS
10
2.35748
20
-3.83425
11
2.35748
21
-3.86575
0
LINE
8
BLACK
6
CONTINUOUS
10
2.34173
20
-3.85
11
2.37323
21
-3.85
0
LINE
8
BLACK
6
CONTINUOUS
10
2.45
20
-4.95925
11
2.45
21
-4.99075
0
LINE
8
BLACK
6
CONTINUOUS
10
2.43425
20
-4.975
11
2.46575
21
-4.975
0
LINE
8
BLACK
6
CONTINUOUS
10
2.45
20
-5.15925
11
2.45
21
-5.19075
0
LINE
8
BLACK
6
CONTINUOUS
10
2.43425
20
-5.175
11
2.46575
21
-5.175
0
LINE
8
BLACK
6
CONTINUOUS
10
2.475
20
-3.43425
11
2.475
21
-3.46575
0
LINE
8
BLACK
6
CONTINUOUS
10
2.45925
20
-3.45
11
2.49075
21
-3.45
0
LINE
8
BLACK
6
CONTINUOUS
10
2.475
20
-3.83425
11
2.475
21
-3.86575
0
LINE
8
BLACK
6
CONTINUOUS
10
2.45925
20
-3.85
11
2.49075
21
-3.85
0
LINE
8
BLACK
6
CONTINUOUS
10
2.55
20
-4.65925
11
2.55
21
-4.69075
0
LINE
8
BLACK
6
CONTINUOUS
10
2.53425
20
-4.675
11
2.56575
21
-4.675
0
LINE
8
BLACK
6
CONTINUOUS
10
2.55
20
-5.15925
11
2.55
21
-5.19075
0
LINE
8
BLACK
6
CONTINUOUS
10
2.53425
20
-5.175
11
2.56575
21
-5.175
0
LINE
8
BLACK
6
CONTINUOUS
10
2.6
20
-3.43425
11
2.6
21
-3.46575
0
LINE
8
BLACK
6
CONTINUOUS
10
2.58425
20
-3.45
11
2.61575
21
-3.45
0
LINE
8
BLACK
6
CONTINUOUS
10
2.6
20
-3.83425
11
2.6
21
-3.86575
0
LINE
8
BLACK
6
CONTINUOUS
10
2.58425
20
-3.85
11
2.61575
21
-3.85
0
LINE
8
BLACK
6
CONTINUOUS
10
2.65
20
-4.75925
11
2.65
21
-4.79075
0
LINE
8
BLACK
6
CONTINUOUS
10
2.63425
20
-4.775
11
2.66575
21
-4.775
0
LINE
8
BLACK
6
CONTINUOUS
10
2.65
20
-5.15925
11
2.65
21
-5.19075
0
LINE
8
BLACK
6
CONTINUOUS
10
2.63425
20
-5.175
11
2.66575
21
-5.175
0
LINE
8
BLACK
6
CONTINUOUS
10
2.725
20
-3.43425
11
2.725
21
-3.46575
0
LINE
8
BLACK
6
CONTINUOUS
10
2.70925
20
-3.45
11
2.74075
21
-3.45
0
LINE
8
BLACK
6
CONTINUOUS
10
2.725
20
-3.83425
11
2.725
21
-3.86575
0
LINE
8
BLACK
6
CONTINUOUS
10
2.70925
20
-3.85
11
2.74075
21
-3.85
0
LINE
8
BLACK
6
CONTINUOUS
10
2.75
20
-4.65925
11
2.75
21
-4.69075
0
LINE
8
BLACK
6
CONTINUOUS
10
2.73425
20
-4.675
11
2.76575
21
-4.675
0
LINE
8
BLACK
6
CONTINUOUS
10
2.75
20
-5.15925
11
2.75
21
-5.19075
0
LINE
8
BLACK
6
CONTINUOUS
10
2.73425
20
-5.175
11
2.76575
21
-5.175
0
LINE
8
BLACK
6
CONTINUOUS
10
2.85
20
-3.43425
11
2.85
21
-3.46575
0
LINE
8
BLACK
6
CONTINUOUS
10
2.83425
20
-3.45
11
2.86575
21
-3.45
0
LINE
8
BLACK
6
CONTINUOUS
10
2.85
20
-3.83425
11
2.85
21
-3.86575
0
LINE
8
BLACK
6
CONTINUOUS
10
2.83425
20
-3.85
11
2.86575
21
-3.85
0
LINE
8
BLACK
6
CONTINUOUS
10
2.85
20
-4.75925
11
2.85
21
-4.79075
0
LINE
8
BLACK
6
CONTINUOUS
10
2.83425
20
-4.775
11
2.86575
21
-4.775
0
LINE
8
BLACK
6
CONTINUOUS
10
2.85
20
-5.15925
11
2.85
21
-5.19075
0
LINE
8
BLACK
6
CONTINUOUS
10
2.83425
20
-5.175
11
2.86575
21
-5.175
0
LINE
8
BLACK
6
CONTINUOUS
10
2.95
20
-4.85925
11
2.95
21
-4.89075
0
LINE
8
BLACK
6
CONTINUOUS
10
2.93425
20
-4.875
11
2.96575
21
-4.875
0
LINE
8
BLACK
6
CONTINUOUS
10
2.95
20
-5.15925
11
2.95
21
-5.19075
0
LINE
8
BLACK
6
CONTINUOUS
10
2.93425
20
-5.175
11
2.96575
21
-5.175
0
LINE
8
BLACK
6
CONTINUOUS
10
2.975
20
-2.85925
11
2.975
21
-2.89075
0
LINE
8
BLACK
6
CONTINUOUS
10
2.95925
20
-2.875
11
2.99075
21
-2.875
0
LINE
8
BLACK
6
CONTINUOUS
10
2.975
20
-3.13425
11
2.975
21
-3.16575
0
LINE
8
BLACK
6
CONTINUOUS
10
2.95925
20
-3.15
11
2.99075
21
-3.15
0
LINE
8
BLACK
6
CONTINUOUS
10
2.975
20
-3.43425
11
2.975
21
-3.46575
0
LINE
8
BLACK
6
CONTINUOUS
10
2.95925
20
-3.45
11
2.99075
21
-3.45
0
LINE
8
BLACK
6
CONTINUOUS
10
2.975
20
-3.83425
11
2.975
21
-3.86575
0
LINE
8
BLACK
6
CONTINUOUS
10
2.95925
20
-3.85
11
2.99075
21
-3.85
0
LINE
8
BLACK
6
CONTINUOUS
10
3.05
20
-4.95925
11
3.05
21
-4.99075
0
LINE
8
BLACK
6
CONTINUOUS
10
3.03425
20
-4.975
11
3.06575
21
-4.975
0
LINE
8
BLACK
6
CONTINUOUS
10
3.05
20
-5.15925
11
3.05
21
-5.19075
0
LINE
8
BLACK
6
CONTINUOUS
10
3.03425
20
-5.175
11
3.06575
21
-5.175
0
LINE
8
BLACK
6
CONTINUOUS
10
3.15
20
-4.85925
11
3.15
21
-4.89075
0
LINE
8
BLACK
6
CONTINUOUS
10
3.13425
20
-4.875
11
3.16575
21
-4.875
0
LINE
8
BLACK
6
CONTINUOUS
10
3.15
20
-5.15925
11
3.15
21
-5.19075
0
LINE
8
BLACK
6
CONTINUOUS
10
3.13425
20
-5.175
11
3.16575
21
-5.175
0
LINE
8
BLACK
6
CONTINUOUS
10
3.25
20
-4.65925
11
3.25
21
-4.69075
0
LINE
8
BLACK
6
CONTINUOUS
10
3.23425
20
-4.675
11
3.26575
21
-4.675
0
LINE
8
BLACK
6
CONTINUOUS
10
3.25
20
-5.15925
11
3.25
21
-5.19075
0
LINE
8
BLACK
6
CONTINUOUS
10
3.23425
20
-5.175
11
3.26575
21
-5.175
0
LINE
8
BLACK
6
CONTINUOUS
10
3.35
20
-4.65925
11
3.35
21
-4.69075
0
LINE
8
BLACK
6
CONTINUOUS
10
3.33425
20
-4.675
11
3.36575
21
-4.675
0
LINE
8
BLACK
6
CONTINUOUS
10
3.35
20
-5.15925
11
3.35
21
-5.19075
0
LINE
8
BLACK
6
CONTINUOUS
10
3.33425
20
-5.175
11
3.36575
21
-5.175
0
LINE
8
BLACK
6
CONTINUOUS
10
3.375
20
-2.85925
11
3.375
21
-2.89075
0
LINE
8
BLACK
6
CONTINUOUS
10
3.35925
20
-2.875
11
3.39075
21
-2.875
0
LINE
8
BLACK
6
CONTINUOUS
10
3.375
20
-3.13425
11
3.375
21
-3.16575
0
LINE
8
BLACK
6
CONTINUOUS
10
3.35925
20
-3.15
11
3.39075
21
-3.15
0
LINE
8
BLACK
6
CONTINUOUS
10
3.45
20
-4.38425
11
3.45
21
-4.41575
0
LINE
8
BLACK
6
CONTINUOUS
10
3.43425
20
-4.4
11
3.46575
21
-4.4
0
LINE
8
BLACK
6
CONTINUOUS
10
3.45
20
-4.85925
11
3.45
21
-4.89075
0
LINE
8
BLACK
6
CONTINUOUS
10
3.43425
20
-4.875
11
3.46575
21
-4.875
0
LINE
8
BLACK
6
CONTINUOUS
10
3.45
20
-4.95925
11
3.45
21
-4.99075
0
LINE
8
BLACK
6
CONTINUOUS
10
3.43425
20
-4.975
11
3.46575
21
-4.975
0
LINE
8
BLACK
6
CONTINUOUS
10
3.45
20
-5.15925
11
3.45
21
-5.19075
0
LINE
8
BLACK
6
CONTINUOUS
10
3.43425
20
-5.175
11
3.46575
21
-5.175
0
LINE
8
BLACK
6
CONTINUOUS
10
3.48425
20
-2.97638
11
3.48425
21
-3.00787
0
LINE
8
BLACK
6
CONTINUOUS
10
3.4685
20
-2.99213
11
3.5
21
-2.99213
0
LINE
8
BLACK
6
CONTINUOUS
10
3.48425
20
-3.17323
11
3.48425
21
-3.20472
0
LINE
8
BLACK
6
CONTINUOUS
10
3.4685
20
-3.18898
11
3.5
21
-3.18898
0
LINE
8
BLACK
6
CONTINUOUS
10
3.55
20
-4.85925
11
3.55
21
-4.89075
0
LINE
8
BLACK
6
CONTINUOUS
10
3.53425
20
-4.875
11
3.56575
21
-4.875
0
LINE
8
BLACK
6
CONTINUOUS
10
3.55
20
-5.15925
11
3.55
21
-5.19075
0
LINE
8
BLACK
6
CONTINUOUS
10
3.53425
20
-5.175
11
3.56575
21
-5.175
0
LINE
8
BLACK
6
CONTINUOUS
10
3.62205
20
-2.66142
11
3.62205
21
-2.69291
0
LINE
8
BLACK
6
CONTINUOUS
10
3.6063
20
-2.67717
11
3.6378
21
-2.67717
0
LINE
8
BLACK
6
CONTINUOUS
10
3.62205
20
-2.82756
11
3.62205
21
-2.85906
0
LINE
8
BLACK
6
CONTINUOUS
10
3.6063
20
-2.84331
11
3.6378
21
-2.84331
0
LINE
8
BLACK
6
CONTINUOUS
10
3.62205
20
-2.92756
11
3.62205
21
-2.95906
0
LINE
8
BLACK
6
CONTINUOUS
10
3.6063
20
-2.94331
11
3.6378
21
-2.94331
0
LINE
8
BLACK
6
CONTINUOUS
10
3.62205
20
-3.02756
11
3.62205
21
-3.05906
0
LINE
8
BLACK
6
CONTINUOUS
10
3.6063
20
-3.04331
11
3.6378
21
-3.04331
0
LINE
8
BLACK
6
CONTINUOUS
10
3.62205
20
-3.12756
11
3.62205
21
-3.15906
0
LINE
8
BLACK
6
CONTINUOUS
10
3.6063
20
-3.14331
11
3.6378
21
-3.14331
0
LINE
8
BLACK
6
CONTINUOUS
10
3.62205
20
-3.22756
11
3.62205
21
-3.25906
0
LINE
8
BLACK
6
CONTINUOUS
10
3.6063
20
-3.24331
11
3.6378
21
-3.24331
0
LINE
8
BLACK
6
CONTINUOUS
10
3.62205
20
-3.32756
11
3.62205
21
-3.35906
0
LINE
8
BLACK
6
CONTINUOUS
10
3.6063
20
-3.34331
11
3.6378
21
-3.34331
0
LINE
8
BLACK
6
CONTINUOUS
10
3.62205
20
-3.42756
11
3.62205
21
-3.45906
0
LINE
8
BLACK
6
CONTINUOUS
10
3.6063
20
-3.44331
11
3.6378
21
-3.44331
0
LINE
8
BLACK
6
CONTINUOUS
10
3.62205
20
-3.52756
11
3.62205
21
-3.55906
0
LINE
8
BLACK
6
CONTINUOUS
10
3.6063
20
-3.54331
11
3.6378
21
-3.54331
0
LINE
8
BLACK
6
CONTINUOUS
10
3.62205
20
-3.64567
11
3.62205
21
-3.67717
0
LINE
8
BLACK
6
CONTINUOUS
10
3.6063
20
-3.66142
11
3.6378
21
-3.66142
0
LINE
8
BLACK
6
CONTINUOUS
10
3.65
20
-4.75925
11
3.65
21
-4.79075
0
LINE
8
BLACK
6
CONTINUOUS
10
3.63425
20
-4.775
11
3.66575
21
-4.775
0
LINE
8
BLACK
6
CONTINUOUS
10
3.65
20
-5.15925
11
3.65
21
-5.19075
0
LINE
8
BLACK
6
CONTINUOUS
10
3.63425
20
-5.175
11
3.66575
21
-5.175
0
LINE
8
BLACK
6
CONTINUOUS
10
3.75
20
-4.85925
11
3.75
21
-4.89075
0
LINE
8
BLACK
6
CONTINUOUS
10
3.73425
20
-4.875
11
3.76575
21
-4.875
0
LINE
8
BLACK
6
CONTINUOUS
10
3.75
20
-5.15925
11
3.75
21
-5.19075
0
LINE
8
BLACK
6
CONTINUOUS
10
3.73425
20
-5.175
11
3.76575
21
-5.175
0
LINE
8
BLACK
6
CONTINUOUS
10
3.85
20
-4.65925
11
3.85
21
-4.69075
0
LINE
8
BLACK
6
CONTINUOUS
10
3.83425
20
-4.675
11
3.86575
21
-4.675
0
LINE
8
BLACK
6
CONTINUOUS
10
3.85
20
-5.15925
11
3.85
21
-5.19075
0
LINE
8
BLACK
6
CONTINUOUS
10
3.83425
20
-5.175
11
3.86575
21
-5.175
0
LINE
8
BLACK
6
CONTINUOUS
10
3.92205
20
-2.82756
11
3.92205
21
-2.85906
0
LINE
8
BLACK
6
CONTINUOUS
10
3.9063
20
-2.84331
11
3.9378
21
-2.84331
0
LINE
8
BLACK
6
CONTINUOUS
10
3.92205
20
-2.92756
11
3.92205
21
-2.95906
0
LINE
8
BLACK
6
CONTINUOUS
10
3.9063
20
-2.94331
11
3.9378
21
-2.94331
0
LINE
8
BLACK
6
CONTINUOUS
10
3.92205
20
-3.02756
11
3.92205
21
-3.05906
0
LINE
8
BLACK
6
CONTINUOUS
10
3.9063
20
-3.04331
11
3.9378
21
-3.04331
0
LINE
8
BLACK
6
CONTINUOUS
10
3.92205
20
-3.12756
11
3.92205
21
-3.15906
0
LINE
8
BLACK
6
CONTINUOUS
10
3.9063
20
-3.14331
11
3.9378
21
-3.14331
0
LINE
8
BLACK
6
CONTINUOUS
10
3.92205
20
-3.22756
11
3.92205
21
-3.25906
0
LINE
8
BLACK
6
CONTINUOUS
10
3.9063
20
-3.24331
11
3.9378
21
-3.24331
0
LINE
8
BLACK
6
CONTINUOUS
10
3.92205
20
-3.32756
11
3.92205
21
-3.35906
0
LINE
8
BLACK
6
CONTINUOUS
10
3.9063
20
-3.34331
11
3.9378
21
-3.34331
0
LINE
8
BLACK
6
CONTINUOUS
10
3.92205
20
-3.42756
11
3.92205
21
-3.45906
0
LINE
8
BLACK
6
CONTINUOUS
10
3.9063
20
-3.44331
11
3.9378
21
-3.44331
0
LINE
8
BLACK
6
CONTINUOUS
10
3.92205
20
-3.52756
11
3.92205
21
-3.55906
0
LINE
8
BLACK
6
CONTINUOUS
10
3.9063
20
-3.54331
11
3.9378
21
-3.54331
0
LINE
8
BLACK
6
CONTINUOUS
10
3.93701
20
-2.66142
11
3.93701
21
-2.69291
0
LINE
8
BLACK
6
CONTINUOUS
10
3.92126
20
-2.67717
11
3.95276
21
-2.67717
0
LINE
8
BLACK
6
CONTINUOUS
10
3.95
20
-4.95925
11
3.95
21
-4.99075
0
LINE
8
BLACK
6
CONTINUOUS
10
3.93425
20
-4.975
11
3.96575
21
-4.975
0
LINE
8
BLACK
6
CONTINUOUS
10
3.95
20
-5.15925
11
3.95
21
-5.19075
0
LINE
8
BLACK
6
CONTINUOUS
10
3.93425
20
-5.175
11
3.96575
21
-5.175
0
LINE
8
BLACK
6
CONTINUOUS
10
4.05
20
-4.75925
11
4.05
21
-4.79075
0
LINE
8
BLACK
6
CONTINUOUS
10
4.03425
20
-4.775
11
4.06575
21
-4.775
0
LINE
8
BLACK
6
CONTINUOUS
10
4.05
20
-5.15925
11
4.05
21
-5.19075
0
LINE
8
BLACK
6
CONTINUOUS
10
4.03425
20
-5.175
11
4.06575
21
-5.175
0
LINE
8
BLACK
6
CONTINUOUS
10
4.13386
20
-2.65512
11
4.13386
21
-2.68661
0
LINE
8
BLACK
6
CONTINUOUS
10
4.11811
20
-2.67087
11
4.14961
21
-2.67087
0
LINE
8
BLACK
6
CONTINUOUS
10
4.13386
20
-3.05512
11
4.13386
21
-3.08661
0
LINE
8
BLACK
6
CONTINUOUS
10
4.11811
20
-3.07087
11
4.14961
21
-3.07087
0
LINE
8
BLACK
6
CONTINUOUS
10
4.15
20
-4.65925
11
4.15
21
-4.69075
0
LINE
8
BLACK
6
CONTINUOUS
10
4.13425
20
-4.675
11
4.16575
21
-4.675
0
LINE
8
BLACK
6
CONTINUOUS
10
4.15
20
-5.15925
11
4.15
21
-5.19075
0
LINE
8
BLACK
6
CONTINUOUS
10
4.13425
20
-5.175
11
4.16575
21
-5.175
0
LINE
8
BLACK
6
CONTINUOUS
10
4.25
20
-4.75925
11
4.25
21
-4.79075
0
LINE
8
BLACK
6
CONTINUOUS
10
4.23425
20
-4.775
11
4.26575
21
-4.775
0
LINE
8
BLACK
6
CONTINUOUS
10
4.25
20
-5.15925
11
4.25
21
-5.19075
0
LINE
8
BLACK
6
CONTINUOUS
10
4.23425
20
-5.175
11
4.26575
21
-5.175
0
LINE
8
BLACK
6
CONTINUOUS
10
4.27165
20
-2.85827
11
4.27165
21
-2.88976
0
LINE
8
BLACK
6
CONTINUOUS
10
4.25591
20
-2.87402
11
4.2874
21
-2.87402
0
LINE
8
BLACK
6
CONTINUOUS
10
4.27165
20
-3.05512
11
4.27165
21
-3.08661
0
LINE
8
BLACK
6
CONTINUOUS
10
4.25591
20
-3.07087
11
4.2874
21
-3.07087
0
LINE
8
BLACK
6
CONTINUOUS
10
4.35
20
-4.45925
11
4.35
21
-4.49075
0
LINE
8
BLACK
6
CONTINUOUS
10
4.33425
20
-4.475
11
4.36575
21
-4.475
0
LINE
8
BLACK
6
CONTINUOUS
10
4.35
20
-4.65925
11
4.35
21
-4.69075
0
LINE
8
BLACK
6
CONTINUOUS
10
4.33425
20
-4.675
11
4.36575
21
-4.675
0
LINE
8
BLACK
6
CONTINUOUS
10
4.35
20
-5.15925
11
4.35
21
-5.19075
0
LINE
8
BLACK
6
CONTINUOUS
10
4.33425
20
-5.175
11
4.36575
21
-5.175
0
LINE
8
BLACK
6
CONTINUOUS
10
4.45
20
-4.85925
11
4.45
21
-4.89075
0
LINE
8
BLACK
6
CONTINUOUS
10
4.43425
20
-4.875
11
4.46575
21
-4.875
0
LINE
8
BLACK
6
CONTINUOUS
10
4.45
20
-5.15925
11
4.45
21
-5.19075
0
LINE
8
BLACK
6
CONTINUOUS
10
4.43425
20
-5.175
11
4.46575
21
-5.175
0
LINE
8
BLACK
6
CONTINUOUS
10
4.55
20
-4.65925
11
4.55
21
-4.69075
0
LINE
8
BLACK
6
CONTINUOUS
10
4.53425
20
-4.675
11
4.56575
21
-4.675
0
LINE
8
BLACK
6
CONTINUOUS
10
4.55
20
-5.15925
11
4.55
21
-5.19075
0
LINE
8
BLACK
6
CONTINUOUS
10
4.53425
20
-5.175
11
4.56575
21
-5.175
0
LINE
8
BLACK
6
CONTINUOUS
10
4.6063
20
-2.92756
11
4.6063
21
-2.95906
0
LINE
8
BLACK
6
CONTINUOUS
10
4.59055
20
-2.94331
11
4.62205
21
-2.94331
0
LINE
8
BLACK
6
CONTINUOUS
10
4.6063
20
-3.02756
11
4.6063
21
-3.05906
0
LINE
8
BLACK
6
CONTINUOUS
10
4.59055
20
-3.04331
11
4.62205
21
-3.04331
0
LINE
8
BLACK
6
CONTINUOUS
10
4.6063
20
-3.12756
11
4.6063
21
-3.15906
0
LINE
8
BLACK
6
CONTINUOUS
10
4.59055
20
-3.14331
11
4.62205
21
-3.14331
0
LINE
8
BLACK
6
CONTINUOUS
10
4.6063
20
-3.22756
11
4.6063
21
-3.25906
0
LINE
8
BLACK
6
CONTINUOUS
10
4.59055
20
-3.24331
11
4.62205
21
-3.24331
0
LINE
8
BLACK
6
CONTINUOUS
10
4.6063
20
-3.32756
11
4.6063
21
-3.35906
0
LINE
8
BLACK
6
CONTINUOUS
10
4.59055
20
-3.34331
11
4.62205
21
-3.34331
0
LINE
8
BLACK
6
CONTINUOUS
10
4.6063
20
-3.42756
11
4.6063
21
-3.45906
0
LINE
8
BLACK
6
CONTINUOUS
10
4.59055
20
-3.44331
11
4.62205
21
-3.44331
0
LINE
8
BLACK
6
CONTINUOUS
10
4.6063
20
-3.52756
11
4.6063
21
-3.55906
0
LINE
8
BLACK
6
CONTINUOUS
10
4.59055
20
-3.54331
11
4.62205
21
-3.54331
0
LINE
8
BLACK
6
CONTINUOUS
10
4.6063
20
-3.64567
11
4.6063
21
-3.67717
0
LINE
8
BLACK
6
CONTINUOUS
10
4.59055
20
-3.66142
11
4.62205
21
-3.66142
0
LINE
8
BLACK
6
CONTINUOUS
10
4.65
20
-4.75925
11
4.65
21
-4.79075
0
LINE
8
BLACK
6
CONTINUOUS
10
4.63425
20
-4.775
11
4.66575
21
-4.775
0
LINE
8
BLACK
6
CONTINUOUS
10
4.65
20
-5.15925
11
4.65
21
-5.19075
0
LINE
8
BLACK
6
CONTINUOUS
10
4.63425
20
-5.175
11
4.66575
21
-5.175
0
LINE
8
BLACK
6
CONTINUOUS
10
4.75
20
-4.65925
11
4.75
21
-4.69075
0
LINE
8
BLACK
6
CONTINUOUS
10
4.73425
20
-4.675
11
4.76575
21
-4.675
0
LINE
8
BLACK
6
CONTINUOUS
10
4.75
20
-5.15925
11
4.75
21
-5.19075
0
LINE
8
BLACK
6
CONTINUOUS
10
4.73425
20
-5.175
11
4.76575
21
-5.175
0
LINE
8
BLACK
6
CONTINUOUS
10
4.85
20
-4.65925
11
4.85
21
-4.69075
0
LINE
8
BLACK
6
CONTINUOUS
10
4.83425
20
-4.675
11
4.86575
21
-4.675
0
LINE
8
BLACK
6
CONTINUOUS
10
4.85
20
-5.15925
11
4.85
21
-5.19075
0
LINE
8
BLACK
6
CONTINUOUS
10
4.83425
20
-5.175
11
4.86575
21
-5.175
0
LINE
8
BLACK
6
CONTINUOUS
10
4.9063
20
-2.92756
11
4.9063
21
-2.95906
0
LINE
8
BLACK
6
CONTINUOUS
10
4.89055
20
-2.94331
11
4.92205
21
-2.94331
0
LINE
8
BLACK
6
CONTINUOUS
10
4.9063
20
-3.02756
11
4.9063
21
-3.05906
0
LINE
8
BLACK
6
CONTINUOUS
10
4.89055
20
-3.04331
11
4.92205
21
-3.04331
0
LINE
8
BLACK
6
CONTINUOUS
10
4.9063
20
-3.12756
11
4.9063
21
-3.15906
0
LINE
8
BLACK
6
CONTINUOUS
10
4.89055
20
-3.14331
11
4.92205
21
-3.14331
0
LINE
8
BLACK
6
CONTINUOUS
10
4.9063
20
-3.22756
11
4.9063
21
-3.25906
0
LINE
8
BLACK
6
CONTINUOUS
10
4.89055
20
-3.24331
11
4.92205
21
-3.24331
0
LINE
8
BLACK
6
CONTINUOUS
10
4.9063
20
-3.32756
11
4.9063
21
-3.35906
0
LINE
8
BLACK
6
CONTINUOUS
10
4.89055
20
-3.34331
11
4.92205
21
-3.34331
0
LINE
8
BLACK
6
CONTINUOUS
10
4.9063
20
-3.42756
11
4.9063
21
-3.45906
0
LINE
8
BLACK
6
CONTINUOUS
10
4.89055
20
-3.44331
11
4.92205
21
-3.44331
0
LINE
8
BLACK
6
CONTINUOUS
10
4.9063
20
-3.52756
11
4.9063
21
-3.55906
0
LINE
8
BLACK
6
CONTINUOUS
10
4.89055
20
-3.54331
11
4.92205
21
-3.54331
0
LINE
8
BLACK
6
CONTINUOUS
10
4.92126
20
-2.66142
11
4.92126
21
-2.69291
0
LINE
8
BLACK
6
CONTINUOUS
10
4.90551
20
-2.67717
11
4.93701
21
-2.67717
0
LINE
8
BLACK
6
CONTINUOUS
10
4.95
20
-4.95925
11
4.95
21
-4.99075
0
LINE
8
BLACK
6
CONTINUOUS
10
4.93425
20
-4.975
11
4.96575
21
-4.975
0
LINE
8
BLACK
6
CONTINUOUS
10
4.95
20
-5.15925
11
4.95
21
-5.19075
0
LINE
8
BLACK
6
CONTINUOUS
10
4.93425
20
-5.175
11
4.96575
21
-5.175
0
LINE
8
BLACK
6
CONTINUOUS
10
5.05
20
-3.78425
11
5.05
21
-3.81575
0
LINE
8
BLACK
6
CONTINUOUS
10
5.03425
20
-3.8
11
5.06575
21
-3.8
0
LINE
8
BLACK
6
CONTINUOUS
10
5.05
20
-4.65925
11
5.05
21
-4.69075
0
LINE
8
BLACK
6
CONTINUOUS
10
5.03425
20
-4.675
11
5.06575
21
-4.675
0
LINE
8
BLACK
6
CONTINUOUS
10
5.05
20
-4.75925
11
5.05
21
-4.79075
0
LINE
8
BLACK
6
CONTINUOUS
10
5.03425
20
-4.775
11
5.06575
21
-4.775
0
LINE
8
BLACK
6
CONTINUOUS
10
5.05
20
-5.15925
11
5.05
21
-5.19075
0
LINE
8
BLACK
6
CONTINUOUS
10
5.03425
20
-5.175
11
5.06575
21
-5.175
0
LINE
8
BLACK
6
CONTINUOUS
10
5.125
20
-3.78425
11
5.125
21
-3.81575
0
LINE
8
BLACK
6
CONTINUOUS
10
5.10925
20
-3.8
11
5.14075
21
-3.8
0
LINE
8
BLACK
6
CONTINUOUS
10
5.125
20
-4.75925
11
5.125
21
-4.79075
0
LINE
8
BLACK
6
CONTINUOUS
10
5.10925
20
-4.775
11
5.14075
21
-4.775
0
LINE
8
BLACK
6
CONTINUOUS
10
5.15
20
-4.85925
11
5.15
21
-4.89075
0
LINE
8
BLACK
6
CONTINUOUS
10
5.13425
20
-4.875
11
5.16575
21
-4.875
0
LINE
8
BLACK
6
CONTINUOUS
10
5.15
20
-5.15925
11
5.15
21
-5.19075
0
LINE
8
BLACK
6
CONTINUOUS
10
5.13425
20
-5.175
11
5.16575
21
-5.175
0
LINE
8
BLACK
6
CONTINUOUS
10
5.25
20
-4.95925
11
5.25
21
-4.99075
0
LINE
8
BLACK
6
CONTINUOUS
10
5.23425
20
-4.975
11
5.26575
21
-4.975
0
LINE
8
BLACK
6
CONTINUOUS
10
5.25
20
-5.15925
11
5.25
21
-5.19075
0
LINE
8
BLACK
6
CONTINUOUS
10
5.23425
20
-5.175
11
5.26575
21
-5.175
0
LINE
8
BLACK
6
CONTINUOUS
10
5.35
20
-4.85925
11
5.35
21
-4.89075
0
LINE
8
BLACK
6
CONTINUOUS
10
5.33425
20
-4.875
11
5.36575
21
-4.875
0
LINE
8
BLACK
6
CONTINUOUS
10
5.35
20
-5.15925
11
5.35
21
-5.19075
0
LINE
8
BLACK
6
CONTINUOUS
10
5.33425
20
-5.175
11
5.36575
21
-5.175
0
LINE
8
BLACK
6
CONTINUOUS
10
5.45
20
-4.65925
11
5.45
21
-4.69075
0
LINE
8
BLACK
6
CONTINUOUS
10
5.43425
20
-4.675
11
5.46575
21
-4.675
0
LINE
8
BLACK
6
CONTINUOUS
10
5.45
20
-5.15925
11
5.45
21
-5.19075
0
LINE
8
BLACK
6
CONTINUOUS
10
5.43425
20
-5.175
11
5.46575
21
-5.175
0
LINE
8
BLACK
6
CONTINUOUS
10
5.51181
20
-2.92756
11
5.51181
21
-2.95906
0
LINE
8
BLACK
6
CONTINUOUS
10
5.49606
20
-2.94331
11
5.52756
21
-2.94331
0
LINE
8
BLACK
6
CONTINUOUS
10
5.51181
20
-3.02756
11
5.51181
21
-3.05906
0
LINE
8
BLACK
6
CONTINUOUS
10
5.49606
20
-3.04331
11
5.52756
21
-3.04331
0
LINE
8
BLACK
6
CONTINUOUS
10
5.51181
20
-3.12756
11
5.51181
21
-3.15906
0
LINE
8
BLACK
6
CONTINUOUS
10
5.49606
20
-3.14331
11
5.52756
21
-3.14331
0
LINE
8
BLACK
6
CONTINUOUS
10
5.51181
20
-3.22756
11
5.51181
21
-3.25906
0
LINE
8
BLACK
6
CONTINUOUS
10
5.49606
20
-3.24331
11
5.52756
21
-3.24331
0
LINE
8
BLACK
6
CONTINUOUS
10
5.51181
20
-3.32756
11
5.51181
21
-3.35906
0
LINE
8
BLACK
6
CONTINUOUS
10
5.49606
20
-3.34331
11
5.52756
21
-3.34331
0
LINE
8
BLACK
6
CONTINUOUS
10
5.51181
20
-3.42756
11
5.51181
21
-3.45906
0
LINE
8
BLACK
6
CONTINUOUS
10
5.49606
20
-3.44331
11
5.52756
21
-3.44331
0
LINE
8
BLACK
6
CONTINUOUS
10
5.51181
20
-3.52756
11
5.51181
21
-3.55906
0
LINE
8
BLACK
6
CONTINUOUS
10
5.49606
20
-3.54331
11
5.52756
21
-3.54331
0
LINE
8
BLACK
6
CONTINUOUS
10
5.51181
20
-3.64567
11
5.51181
21
-3.67717
0
LINE
8
BLACK
6
CONTINUOUS
10
5.49606
20
-3.66142
11
5.52756
21
-3.66142
0
LINE
8
BLACK
6
CONTINUOUS
10
5.55
20
-4.95925
11
5.55
21
-4.99075
0
LINE
8
BLACK
6
CONTINUOUS
10
5.53425
20
-4.975
11
5.56575
21
-4.975
0
LINE
8
BLACK
6
CONTINUOUS
10
5.55
20
-5.15925
11
5.55
21
-5.19075
0
LINE
8
BLACK
6
CONTINUOUS
10
5.53425
20
-5.175
11
5.56575
21
-5.175
0
LINE
8
BLACK
6
CONTINUOUS
10
5.65
20
-4.65925
11
5.65
21
-4.69075
0
LINE
8
BLACK
6
CONTINUOUS
10
5.63425
20
-4.675
11
5.66575
21
-4.675
0
LINE
8
BLACK
6
CONTINUOUS
10
5.65
20
-5.15925
11
5.65
21
-5.19075
0
LINE
8
BLACK
6
CONTINUOUS
10
5.63425
20
-5.175
11
5.66575
21
-5.175
0
LINE
8
BLACK
6
CONTINUOUS
10
5.75
20
-4.75925
11
5.75
21
-4.79075
0
LINE
8
BLACK
6
CONTINUOUS
10
5.73425
20
-4.775
11
5.76575
21
-4.775
0
LINE
8
BLACK
6
CONTINUOUS
10
5.75
20
-5.15925
11
5.75
21
-5.19075
0
LINE
8
BLACK
6
CONTINUOUS
10
5.73425
20
-5.175
11
5.76575
21
-5.175
0
LINE
8
BLACK
6
CONTINUOUS
10
5.81181
20
-2.92756
11
5.81181
21
-2.95906
0
LINE
8
BLACK
6
CONTINUOUS
10
5.79606
20
-2.94331
11
5.82756
21
-2.94331
0
LINE
8
BLACK
6
CONTINUOUS
10
5.81181
20
-3.02756
11
5.81181
21
-3.05906
0
LINE
8
BLACK
6
CONTINUOUS
10
5.79606
20
-3.04331
11
5.82756
21
-3.04331
0
LINE
8
BLACK
6
CONTINUOUS
10
5.81181
20
-3.12756
11
5.81181
21
-3.15906
0
LINE
8
BLACK
6
CONTINUOUS
10
5.79606
20
-3.14331
11
5.82756
21
-3.14331
0
LINE
8
BLACK
6
CONTINUOUS
10
5.81181
20
-3.22756
11
5.81181
21
-3.25906
0
LINE
8
BLACK
6
CONTINUOUS
10
5.79606
20
-3.24331
11
5.82756
21
-3.24331
0
LINE
8
BLACK
6
CONTINUOUS
10
5.81181
20
-3.32756
11
5.81181
21
-3.35906
0
LINE
8
BLACK
6
CONTINUOUS
10
5.79606
20
-3.34331
11
5.82756
21
-3.34331
0
LINE
8
BLACK
6
CONTINUOUS
10
5.81181
20
-3.42756
11
5.81181
21
-3.45906
0
LINE
8
BLACK
6
CONTINUOUS
10
5.79606
20
-3.44331
11
5.82756
21
-3.44331
0
LINE
8
BLACK
6
CONTINUOUS
10
5.81181
20
-3.52756
11
5.81181
21
-3.55906
0
LINE
8
BLACK
6
CONTINUOUS
10
5.79606
20
-3.54331
11
5.82756
21
-3.54331
0
LINE
8
BLACK
6
CONTINUOUS
10
5.82677
20
-2.66142
11
5.82677
21
-2.69291
0
LINE
8
BLACK
6
CONTINUOUS
10
5.81102
20
-2.67717
11
5.84252
21
-2.67717
0
LINE
8
BLACK
6
CONTINUOUS
10
5.85
20
-4.65925
11
5.85
21
-4.69075
0
LINE
8
BLACK
6
CONTINUOUS
10
5.83425
20
-4.675
11
5.86575
21
-4.675
0
LINE
8
BLACK
6
CONTINUOUS
10
5.85
20
-5.15925
11
5.85
21
-5.19075
0
LINE
8
BLACK
6
CONTINUOUS
10
5.83425
20
-5.175
11
5.86575
21
-5.175
0
LINE
8
BLACK
6
CONTINUOUS
10
5.95
20
-4.95925
11
5.95
21
-4.99075
0
LINE
8
BLACK
6
CONTINUOUS
10
5.93425
20
-4.975
11
5.96575
21
-4.975
0
LINE
8
BLACK
6
CONTINUOUS
10
5.95
20
-5.15925
11
5.95
21
-5.19075
0
LINE
8
BLACK
6
CONTINUOUS
10
5.93425
20
-5.175
11
5.96575
21
-5.175
0
LINE
8
BLACK
6
CONTINUOUS
10
6.1
20
-3.00925
11
6.1
21
-3.04075
0
LINE
8
BLACK
6
CONTINUOUS
10
6.08425
20
-3.025
11
6.11575
21
-3.025
0
LINE
8
BLACK
6
CONTINUOUS
10
6.1
20
-3.73425
11
6.1
21
-3.76575
0
LINE
8
BLACK
6
CONTINUOUS
10
6.08425
20
-3.75
11
6.11575
21
-3.75
0
LINE
8
BLACK
6
CONTINUOUS
10
6.14173
20
-4.36299
11
6.14173
21
-4.39449
0
LINE
8
BLACK
6
CONTINUOUS
10
6.12598
20
-4.37874
11
6.15748
21
-4.37874
0
LINE
8
BLACK
6
CONTINUOUS
10
6.14173
20
-4.46299
11
6.14173
21
-4.49449
0
LINE
8
BLACK
6
CONTINUOUS
10
6.12598
20
-4.47874
11
6.15748
21
-4.47874
0
LINE
8
BLACK
6
CONTINUOUS
10
6.14173
20
-4.56299
11
6.14173
21
-4.59449
0
LINE
8
BLACK
6
CONTINUOUS
10
6.12598
20
-4.57874
11
6.15748
21
-4.57874
0
LINE
8
BLACK
6
CONTINUOUS
10
6.14173
20
-4.66299
11
6.14173
21
-4.69449
0
LINE
8
BLACK
6
CONTINUOUS
10
6.12598
20
-4.67874
11
6.15748
21
-4.67874
0
LINE
8
BLACK
6
CONTINUOUS
10
6.14173
20
-4.76299
11
6.14173
21
-4.79449
0
LINE
8
BLACK
6
CONTINUOUS
10
6.12598
20
-4.77874
11
6.15748
21
-4.77874
0
LINE
8
BLACK
6
CONTINUOUS
10
6.14173
20
-4.86299
11
6.14173
21
-4.89449
0
LINE
8
BLACK
6
CONTINUOUS
10
6.12598
20
-4.87874
11
6.15748
21
-4.87874
0
LINE
8
BLACK
6
CONTINUOUS
10
6.14173
20
-4.96299
11
6.14173
21
-4.99449
0
LINE
8
BLACK
6
CONTINUOUS
10
6.12598
20
-4.97874
11
6.15748
21
-4.97874
0
LINE
8
BLACK
6
CONTINUOUS
10
6.14173
20
-5.06299
11
6.14173
21
-5.09449
0
LINE
8
BLACK
6
CONTINUOUS
10
6.12598
20
-5.07874
11
6.15748
21
-5.07874
0
LINE
8
BLACK
6
CONTINUOUS
10
6.1811
20
-2.74016
11
6.1811
21
-2.77165
0
LINE
8
BLACK
6
CONTINUOUS
10
6.16535
20
-2.75591
11
6.19685
21
-2.75591
0
LINE
8
BLACK
6
CONTINUOUS
10
6.2
20
-3.73425
11
6.2
21
-3.76575
0
LINE
8
BLACK
6
CONTINUOUS
10
6.18425
20
-3.75
11
6.21575
21
-3.75
0
LINE
8
BLACK
6
CONTINUOUS
10
6.37795
20
-2.66142
11
6.37795
21
-2.69291
0
LINE
8
BLACK
6
CONTINUOUS
10
6.3622
20
-2.67717
11
6.3937
21
-2.67717
0
LINE
8
BLACK
6
CONTINUOUS
10
6.44173
20
-4.36299
11
6.44173
21
-4.39449
0
LINE
8
BLACK
6
CONTINUOUS
10
6.42598
20
-4.37874
11
6.45748
21
-4.37874
0
LINE
8
BLACK
6
CONTINUOUS
10
6.44173
20
-4.46299
11
6.44173
21
-4.49449
0
LINE
8
BLACK
6
CONTINUOUS
10
6.42598
20
-4.47874
11
6.45748
21
-4.47874
0
LINE
8
BLACK
6
CONTINUOUS
10
6.44173
20
-4.56299
11
6.44173
21
-4.59449
0
LINE
8
BLACK
6
CONTINUOUS
10
6.42598
20
-4.57874
11
6.45748
21
-4.57874
0
LINE
8
BLACK
6
CONTINUOUS
10
6.44173
20
-4.66299
11
6.44173
21
-4.69449
0
LINE
8
BLACK
6
CONTINUOUS
10
6.42598
20
-4.67874
11
6.45748
21
-4.67874
0
LINE
8
BLACK
6
CONTINUOUS
10
6.44173
20
-4.76299
11
6.44173
21
-4.79449
0
LINE
8
BLACK
6
CONTINUOUS
10
6.42598
20
-4.77874
11
6.45748
21
-4.77874
0
LINE
8
BLACK
6
CONTINUOUS
10
6.44173
20
-4.86299
11
6.44173
21
-4.89449
0
LINE
8
BLACK
6
CONTINUOUS
10
6.42598
20
-4.87874
11
6.45748
21
-4.87874
0
LINE
8
BLACK
6
CONTINUOUS
10
6.44173
20
-4.96299
11
6.44173
21
-4.99449
0
LINE
8
BLACK
6
CONTINUOUS
10
6.42598
20
-4.97874
11
6.45748
21
-4.97874
0
LINE
8
BLACK
6
CONTINUOUS
10
6.44173
20
-5.06299
11
6.44173
21
-5.09449
0
LINE
8
BLACK
6
CONTINUOUS
10
6.42598
20
-5.07874
11
6.45748
21
-5.07874
0
LINE
8
BLACK
6
CONTINUOUS
10
6.625
20
-3.00925
11
6.625
21
-3.04075
0
LINE
8
BLACK
6
CONTINUOUS
10
6.60925
20
-3.025
11
6.64075
21
-3.025
0
LINE
8
BLACK
6
CONTINUOUS
10
6.69291
20
-4.46299
11
6.69291
21
-4.49449
0
LINE
8
BLACK
6
CONTINUOUS
10
6.67717
20
-4.47874
11
6.70866
21
-4.47874
0
LINE
8
BLACK
6
CONTINUOUS
10
6.69291
20
-4.56299
11
6.69291
21
-4.59449
0
LINE
8
BLACK
6
CONTINUOUS
10
6.67717
20
-4.57874
11
6.70866
21
-4.57874
0
LINE
8
BLACK
6
CONTINUOUS
10
6.69291
20
-4.66299
11
6.69291
21
-4.69449
0
LINE
8
BLACK
6
CONTINUOUS
10
6.67717
20
-4.67874
11
6.70866
21
-4.67874
0
LINE
8
BLACK
6
CONTINUOUS
10
6.69291
20
-4.76299
11
6.69291
21
-4.79449
0
LINE
8
BLACK
6
CONTINUOUS
10
6.67717
20
-4.77874
11
6.70866
21
-4.77874
0
LINE
8
BLACK
6
CONTINUOUS
10
6.69291
20
-4.86299
11
6.69291
21
-4.89449
0
LINE
8
BLACK
6
CONTINUOUS
10
6.67717
20
-4.87874
11
6.70866
21
-4.87874
0
LINE
8
BLACK
6
CONTINUOUS
10
6.69291
20
-4.96299
11
6.69291
21
-4.99449
0
LINE
8
BLACK
6
CONTINUOUS
10
6.67717
20
-4.97874
11
6.70866
21
-4.97874
0
LINE
8
BLACK
6
CONTINUOUS
10
6.69291
20
-5.06299
11
6.69291
21
-5.09449
0
LINE
8
BLACK
6
CONTINUOUS
10
6.67717
20
-5.07874
11
6.70866
21
-5.07874
0
LINE
8
BLACK
6
CONTINUOUS
10
6.99291
20
-4.46299
11
6.99291
21
-4.49449
0
LINE
8
BLACK
6
CONTINUOUS
10
6.97717
20
-4.47874
11
7.00866
21
-4.47874
0
LINE
8
BLACK
6
CONTINUOUS
10
6.99291
20
-4.56299
11
6.99291
21
-4.59449
0
LINE
8
BLACK
6
CONTINUOUS
10
6.97717
20
-4.57874
11
7.00866
21
-4.57874
0
LINE
8
BLACK
6
CONTINUOUS
10
6.99291
20
-4.66299
11
6.99291
21
-4.69449
0
LINE
8
BLACK
6
CONTINUOUS
10
6.97717
20
-4.67874
11
7.00866
21
-4.67874
0
LINE
8
BLACK
6
CONTINUOUS
10
6.99291
20
-4.76299
11
6.99291
21
-4.79449
0
LINE
8
BLACK
6
CONTINUOUS
10
6.97717
20
-4.77874
11
7.00866
21
-4.77874
0
LINE
8
BLACK
6
CONTINUOUS
10
6.99291
20
-4.86299
11
6.99291
21
-4.89449
0
LINE
8
BLACK
6
CONTINUOUS
10
6.97717
20
-4.87874
11
7.00866
21
-4.87874
0
LINE
8
BLACK
6
CONTINUOUS
10
6.99291
20
-4.96299
11
6.99291
21
-4.99449
0
LINE
8
BLACK
6
CONTINUOUS
10
6.97717
20
-4.97874
11
7.00866
21
-4.97874
0
LINE
8
BLACK
6
CONTINUOUS
10
6.99291
20
-5.06299
11
6.99291
21
-5.09449
0
LINE
8
BLACK
6
CONTINUOUS
10
6.97717
20
-5.07874
11
7.00866
21
-5.07874
0
LINE
8
BLACK
6
CONTINUOUS
10
7.00787
20
-2.92756
11
7.00787
21
-2.95906
0
LINE
8
BLACK
6
CONTINUOUS
10
6.99213
20
-2.94331
11
7.02362
21
-2.94331
0
LINE
8
BLACK
6
CONTINUOUS
10
7.00787
20
-3.02756
11
7.00787
21
-3.05906
0
LINE
8
BLACK
6
CONTINUOUS
10
6.99213
20
-3.04331
11
7.02362
21
-3.04331
0
LINE
8
BLACK
6
CONTINUOUS
10
7.00787
20
-3.12756
11
7.00787
21
-3.15906
0
LINE
8
BLACK
6
CONTINUOUS
10
6.99213
20
-3.14331
11
7.02362
21
-3.14331
0
LINE
8
BLACK
6
CONTINUOUS
10
7.00787
20
-3.22756
11
7.00787
21
-3.25906
0
LINE
8
BLACK
6
CONTINUOUS
10
6.99213
20
-3.24331
11
7.02362
21
-3.24331
0
LINE
8
BLACK
6
CONTINUOUS
10
7.00787
20
-3.32756
11
7.00787
21
-3.35906
0
LINE
8
BLACK
6
CONTINUOUS
10
6.99213
20
-3.34331
11
7.02362
21
-3.34331
0
LINE
8
BLACK
6
CONTINUOUS
10
7.00787
20
-3.42756
11
7.00787
21
-3.45906
0
LINE
8
BLACK
6
CONTINUOUS
10
6.99213
20
-3.44331
11
7.02362
21
-3.44331
0
LINE
8
BLACK
6
CONTINUOUS
10
7.00787
20
-3.52756
11
7.00787
21
-3.55906
0
LINE
8
BLACK
6
CONTINUOUS
10
6.99213
20
-3.54331
11
7.02362
21
-3.54331
0
LINE
8
BLACK
6
CONTINUOUS
10
7.00787
20
-3.64567
11
7.00787
21
-3.67717
0
LINE
8
BLACK
6
CONTINUOUS
10
6.99213
20
-3.66142
11
7.02362
21
-3.66142
0
LINE
8
BLACK
6
CONTINUOUS
10
7.13937
20
-3.87008
11
7.13937
21
-3.90157
0
LINE
8
BLACK
6
CONTINUOUS
10
7.12362
20
-3.88583
11
7.15512
21
-3.88583
0
LINE
8
BLACK
6
CONTINUOUS
10
7.13937
20
-4.12598
11
7.13937
21
-4.15748
0
LINE
8
BLACK
6
CONTINUOUS
10
7.12362
20
-4.14173
11
7.15512
21
-4.14173
0
LINE
8
BLACK
6
CONTINUOUS
10
7.13937
20
-4.38189
11
7.13937
21
-4.41339
0
LINE
8
BLACK
6
CONTINUOUS
10
7.12362
20
-4.39764
11
7.15512
21
-4.39764
0
LINE
8
BLACK
6
CONTINUOUS
10
7.13937
20
-4.6378
11
7.13937
21
-4.66929
0
LINE
8
BLACK
6
CONTINUOUS
10
7.12362
20
-4.65354
11
7.15512
21
-4.65354
0
LINE
8
BLACK
6
CONTINUOUS
10
7.13937
20
-4.8937
11
7.13937
21
-4.9252
0
LINE
8
BLACK
6
CONTINUOUS
10
7.12362
20
-4.90945
11
7.15512
21
-4.90945
0
LINE
8
BLACK
6
CONTINUOUS
10
7.13937
20
-5.14961
11
7.13937
21
-5.1811
0
LINE
8
BLACK
6
CONTINUOUS
10
7.12362
20
-5.16535
11
7.15512
21
-5.16535
0
LINE
8
BLACK
6
CONTINUOUS
10
7.28346
20
-2.66142
11
7.28346
21
-2.69291
0
LINE
8
BLACK
6
CONTINUOUS
10
7.26772
20
-2.67717
11
7.29921
21
-2.67717
0
LINE
8
BLACK
6
CONTINUOUS
10
7.30787
20
-2.92756
11
7.30787
21
-2.95906
0
LINE
8
BLACK
6
CONTINUOUS
10
7.29213
20
-2.94331
11
7.32362
21
-2.94331
0
LINE
8
BLACK
6
CONTINUOUS
10
7.30787
20
-3.02756
11
7.30787
21
-3.05906
0
LINE
8
BLACK
6
CONTINUOUS
10
7.29213
20
-3.04331
11
7.32362
21
-3.04331
0
LINE
8
BLACK
6
CONTINUOUS
10
7.30787
20
-3.12756
11
7.30787
21
-3.15906
0
LINE
8
BLACK
6
CONTINUOUS
10
7.29213
20
-3.14331
11
7.32362
21
-3.14331
0
LINE
8
BLACK
6
CONTINUOUS
10
7.30787
20
-3.22756
11
7.30787
21
-3.25906
0
LINE
8
BLACK
6
CONTINUOUS
10
7.29213
20
-3.24331
11
7.32362
21
-3.24331
0
LINE
8
BLACK
6
CONTINUOUS
10
7.30787
20
-3.32756
11
7.30787
21
-3.35906
0
LINE
8
BLACK
6
CONTINUOUS
10
7.29213
20
-3.34331
11
7.32362
21
-3.34331
0
LINE
8
BLACK
6
CONTINUOUS
10
7.30787
20
-3.42756
11
7.30787
21
-3.45906
0
LINE
8
BLACK
6
CONTINUOUS
10
7.29213
20
-3.44331
11
7.32362
21
-3.44331
0
LINE
8
BLACK
6
CONTINUOUS
10
7.30787
20
-3.52756
11
7.30787
21
-3.55906
0
LINE
8
BLACK
6
CONTINUOUS
10
7.29213
20
-3.54331
11
7.32362
21
-3.54331
0
LINE
8
BLACK
6
CONTINUOUS
10
7.425
20
-3.73425
11
7.425
21
-3.76575
0
LINE
8
BLACK
6
CONTINUOUS
10
7.40925
20
-3.75
11
7.44075
21
-3.75
0
LINE
8
BLACK
6
CONTINUOUS
10
7.53937
20
-3.87008
11
7.53937
21
-3.90157
0
LINE
8
BLACK
6
CONTINUOUS
10
7.52362
20
-3.88583
11
7.55512
21
-3.88583
0
LINE
8
BLACK
6
CONTINUOUS
10
7.53937
20
-4.12598
11
7.53937
21
-4.15748
0
LINE
8
BLACK
6
CONTINUOUS
10
7.52362
20
-4.14173
11
7.55512
21
-4.14173
0
LINE
8
BLACK
6
CONTINUOUS
10
7.53937
20
-4.38189
11
7.53937
21
-4.41339
0
LINE
8
BLACK
6
CONTINUOUS
10
7.52362
20
-4.39764
11
7.55512
21
-4.39764
0
LINE
8
BLACK
6
CONTINUOUS
10
7.53937
20
-4.6378
11
7.53937
21
-4.66929
0
LINE
8
BLACK
6
CONTINUOUS
10
7.52362
20
-4.65354
11
7.55512
21
-4.65354
0
LINE
8
BLACK
6
CONTINUOUS
10
7.53937
20
-4.8937
11
7.53937
21
-4.9252
0
LINE
8
BLACK
6
CONTINUOUS
10
7.52362
20
-4.90945
11
7.55512
21
-4.90945
0
LINE
8
BLACK
6
CONTINUOUS
10
7.53937
20
-5.14961
11
7.53937
21
-5.1811
0
LINE
8
BLACK
6
CONTINUOUS
10
7.52362
20
-5.16535
11
7.55512
21
-5.16535
0
LINE
8
BLACK
6
CONTINUOUS
10
7.68969
20
-3.89835
11
7.68969
21
-3.8733
0
LINE
8
BLACK
6
CONTINUOUS
10
7.68969
20
-3.8733
11
7.66464
21
-3.8733
0
LINE
8
BLACK
6
CONTINUOUS
10
7.66464
20
-3.8733
11
7.66464
21
-3.89835
0
LINE
8
BLACK
6
CONTINUOUS
10
7.66464
20
-3.89835
11
7.68969
21
-3.89835
0
LINE
8
BLACK
6
CONTINUOUS
10
7.68969
20
-3.99835
11
7.68969
21
-3.9733
0
LINE
8
BLACK
6
CONTINUOUS
10
7.68969
20
-3.9733
11
7.66464
21
-3.9733
0
LINE
8
BLACK
6
CONTINUOUS
10
7.66464
20
-3.9733
11
7.66464
21
-3.99835
0
LINE
8
BLACK
6
CONTINUOUS
10
7.66464
20
-3.99835
11
7.68969
21
-3.99835
0
LINE
8
BLACK
6
CONTINUOUS
10
7.68969
20
-4.15269
11
7.68969
21
-4.12763
0
LINE
8
BLACK
6
CONTINUOUS
10
7.68969
20
-4.12763
11
7.66464
21
-4.12763
0
LINE
8
BLACK
6
CONTINUOUS
10
7.66464
20
-4.12763
11
7.66464
21
-4.15269
0
LINE
8
BLACK
6
CONTINUOUS
10
7.66464
20
-4.15269
11
7.68969
21
-4.15269
0
LINE
8
BLACK
6
CONTINUOUS
10
7.68969
20
-4.25269
11
7.68969
21
-4.22763
0
LINE
8
BLACK
6
CONTINUOUS
10
7.68969
20
-4.22763
11
7.66464
21
-4.22763
0
LINE
8
BLACK
6
CONTINUOUS
10
7.66464
20
-4.22763
11
7.66464
21
-4.25269
0
LINE
8
BLACK
6
CONTINUOUS
10
7.66464
20
-4.25269
11
7.68969
21
-4.25269
0
LINE
8
BLACK
6
CONTINUOUS
10
7.68969
20
-4.41017
11
7.68969
21
-4.38511
0
LINE
8
BLACK
6
CONTINUOUS
10
7.68969
20
-4.38511
11
7.66464
21
-4.38511
0
LINE
8
BLACK
6
CONTINUOUS
10
7.66464
20
-4.38511
11
7.66464
21
-4.41017
0
LINE
8
BLACK
6
CONTINUOUS
10
7.66464
20
-4.41017
11
7.68969
21
-4.41017
0
LINE
8
BLACK
6
CONTINUOUS
10
7.68969
20
-4.51017
11
7.68969
21
-4.48511
0
LINE
8
BLACK
6
CONTINUOUS
10
7.68969
20
-4.48511
11
7.66464
21
-4.48511
0
LINE
8
BLACK
6
CONTINUOUS
10
7.66464
20
-4.48511
11
7.66464
21
-4.51017
0
LINE
8
BLACK
6
CONTINUOUS
10
7.66464
20
-4.51017
11
7.68969
21
-4.51017
0
LINE
8
BLACK
6
CONTINUOUS
10
7.68969
20
-4.6645
11
7.68969
21
-4.63944
0
LINE
8
BLACK
6
CONTINUOUS
10
7.68969
20
-4.63944
11
7.66464
21
-4.63944
0
LINE
8
BLACK
6
CONTINUOUS
10
7.66464
20
-4.63944
11
7.66464
21
-4.6645
0
LINE
8
BLACK
6
CONTINUOUS
10
7.66464
20
-4.6645
11
7.68969
21
-4.6645
0
LINE
8
BLACK
6
CONTINUOUS
10
7.68969
20
-4.7645
11
7.68969
21
-4.73944
0
LINE
8
BLACK
6
CONTINUOUS
10
7.68969
20
-4.73944
11
7.66464
21
-4.73944
0
LINE
8
BLACK
6
CONTINUOUS
10
7.66464
20
-4.73944
11
7.66464
21
-4.7645
0
LINE
8
BLACK
6
CONTINUOUS
10
7.66464
20
-4.7645
11
7.68969
21
-4.7645
0
LINE
8
BLACK
6
CONTINUOUS
10
7.68969
20
-4.92198
11
7.68969
21
-4.89692
0
LINE
8
BLACK
6
CONTINUOUS
10
7.68969
20
-4.89692
11
7.66464
21
-4.89692
0
LINE
8
BLACK
6
CONTINUOUS
10
7.66464
20
-4.89692
11
7.66464
21
-4.92198
0
LINE
8
BLACK
6
CONTINUOUS
10
7.66464
20
-4.92198
11
7.68969
21
-4.92198
0
LINE
8
BLACK
6
CONTINUOUS
10
7.68969
20
-5.02198
11
7.68969
21
-4.99692
0
LINE
8
BLACK
6
CONTINUOUS
10
7.68969
20
-4.99692
11
7.66464
21
-4.99692
0
LINE
8
BLACK
6
CONTINUOUS
10
7.66464
20
-4.99692
11
7.66464
21
-5.02198
0
LINE
8
BLACK
6
CONTINUOUS
10
7.66464
20
-5.02198
11
7.68969
21
-5.02198
0
LINE
8
BLACK
6
CONTINUOUS
10
7.68969
20
-5.17631
11
7.68969
21
-5.15125
0
LINE
8
BLACK
6
CONTINUOUS
10
7.68969
20
-5.15125
11
7.66464
21
-5.15125
0
LINE
8
BLACK
6
CONTINUOUS
10
7.66464
20
-5.15125
11
7.66464
21
-5.17631
0
LINE
8
BLACK
6
CONTINUOUS
10
7.66464
20
-5.17631
11
7.68969
21
-5.17631
0
LINE
8
BLACK
6
CONTINUOUS
10
7.68969
20
-5.27631
11
7.68969
21
-5.25125
0
LINE
8
BLACK
6
CONTINUOUS
10
7.68969
20
-5.25125
11
7.66464
21
-5.25125
0
LINE
8
BLACK
6
CONTINUOUS
10
7.66464
20
-5.25125
11
7.66464
21
-5.27631
0
LINE
8
BLACK
6
CONTINUOUS
10
7.66464
20
-5.27631
11
7.68969
21
-5.27631
0
LINE
8
BLACK
6
CONTINUOUS
10
2.95276
20
-5.72835
11
2.97244
21
-5.70866
0
LINE
8
BLACK
6
CONTINUOUS
10
2.97244
20
-5.70866
11
2.95276
21
-5.68898
0
LINE
8
BLACK
6
CONTINUOUS
10
2.95276
20
-5.68898
11
2.93307
21
-5.70866
0
LINE
8
BLACK
6
CONTINUOUS
10
2.93307
20
-5.70866
11
2.95276
21
-5.72835
0
LINE
8
BLACK
6
CONTINUOUS
10
3.14961
20
-5.72835
11
3.16929
21
-5.70866
0
LINE
8
BLACK
6
CONTINUOUS
10
3.16929
20
-5.70866
11
3.14961
21
-5.68898
0
LINE
8
BLACK
6
CONTINUOUS
10
3.14961
20
-5.68898
11
3.12992
21
-5.70866
0
LINE
8
BLACK
6
CONTINUOUS
10
3.12992
20
-5.70866
11
3.14961
21
-5.72835
0
LINE
8
BLACK
6
CONTINUOUS
10
3.24961
20
-5.72835
11
3.26929
21
-5.70866
0
LINE
8
BLACK
6
CONTINUOUS
10
3.26929
20
-5.70866
11
3.24961
21
-5.68898
0
LINE
8
BLACK
6
CONTINUOUS
10
3.24961
20
-5.68898
11
3.22992
21
-5.70866
0
LINE
8
BLACK
6
CONTINUOUS
10
3.22992
20
-5.70866
11
3.24961
21
-5.72835
0
LINE
8
BLACK
6
CONTINUOUS
10
3.34961
20
-5.72835
11
3.36929
21
-5.70866
0
LINE
8
BLACK
6
CONTINUOUS
10
3.36929
20
-5.70866
11
3.34961
21
-5.68898
0
LINE
8
BLACK
6
CONTINUOUS
10
3.34961
20
-5.68898
11
3.32992
21
-5.70866
0
LINE
8
BLACK
6
CONTINUOUS
10
3.32992
20
-5.70866
11
3.34961
21
-5.72835
0
LINE
8
BLACK
6
CONTINUOUS
10
3.44961
20
-5.72835
11
3.46929
21
-5.70866
0
LINE
8
BLACK
6
CONTINUOUS
10
3.46929
20
-5.70866
11
3.44961
21
-5.68898
0
LINE
8
BLACK
6
CONTINUOUS
10
3.44961
20
-5.68898
11
3.42992
21
-5.70866
0
LINE
8
BLACK
6
CONTINUOUS
10
3.42992
20
-5.70866
11
3.44961
21
-5.72835
0
LINE
8
BLACK
6
CONTINUOUS
10
3.54961
20
-5.72835
11
3.56929
21
-5.70866
0
LINE
8
BLACK
6
CONTINUOUS
10
3.56929
20
-5.70866
11
3.54961
21
-5.68898
0
LINE
8
BLACK
6
CONTINUOUS
10
3.54961
20
-5.68898
11
3.52992
21
-5.70866
0
LINE
8
BLACK
6
CONTINUOUS
10
3.52992
20
-5.70866
11
3.54961
21
-5.72835
0
LINE
8
BLACK
6
CONTINUOUS
10
3.64961
20
-5.72835
11
3.66929
21
-5.70866
0
LINE
8
BLACK
6
CONTINUOUS
10
3.66929
20
-5.70866
11
3.64961
21
-5.68898
0
LINE
8
BLACK
6
CONTINUOUS
10
3.64961
20
-5.68898
11
3.62992
21
-5.70866
0
LINE
8
BLACK
6
CONTINUOUS
10
3.62992
20
-5.70866
11
3.64961
21
-5.72835
0
LINE
8
BLACK
6
CONTINUOUS
10
3.74961
20
-5.72835
11
3.76929
21
-5.70866
0
LINE
8
BLACK
6
CONTINUOUS
10
3.76929
20
-5.70866
11
3.74961
21
-5.68898
0
LINE
8
BLACK
6
CONTINUOUS
10
3.74961
20
-5.68898
11
3.72992
21
-5.70866
0
LINE
8
BLACK
6
CONTINUOUS
10
3.72992
20
-5.70866
11
3.74961
21
-5.72835
0
LINE
8
BLACK
6
CONTINUOUS
10
3.84961
20
-5.72835
11
3.86929
21
-5.70866
0
LINE
8
BLACK
6
CONTINUOUS
10
3.86929
20
-5.70866
11
3.84961
21
-5.68898
0
LINE
8
BLACK
6
CONTINUOUS
10
3.84961
20
-5.68898
11
3.82992
21
-5.70866
0
LINE
8
BLACK
6
CONTINUOUS
10
3.82992
20
-5.70866
11
3.84961
21
-5.72835
0
LINE
8
BLACK
6
CONTINUOUS
10
3.94961
20
-5.72835
11
3.96929
21
-5.70866
0
LINE
8
BLACK
6
CONTINUOUS
10
3.96929
20
-5.70866
11
3.94961
21
-5.68898
0
LINE
8
BLACK
6
CONTINUOUS
10
3.94961
20
-5.68898
11
3.92992
21
-5.70866
0
LINE
8
BLACK
6
CONTINUOUS
10
3.92992
20
-5.70866
11
3.94961
21
-5.72835
0
LINE
8
BLACK
6
CONTINUOUS
10
4.04961
20
-5.72835
11
4.06929
21
-5.70866
0
LINE
8
BLACK
6
CONTINUOUS
10
4.06929
20
-5.70866
11
4.04961
21
-5.68898
0
LINE
8
BLACK
6
CONTINUOUS
10
4.04961
20
-5.68898
11
4.02992
21
-5.70866
0
LINE
8
BLACK
6
CONTINUOUS
10
4.02992
20
-5.70866
11
4.04961
21
-5.72835
0
LINE
8
BLACK
6
CONTINUOUS
10
4.14961
20
-5.72835
11
4.16929
21
-5.70866
0
LINE
8
BLACK
6
CONTINUOUS
10
4.16929
20
-5.70866
11
4.14961
21
-5.68898
0
LINE
8
BLACK
6
CONTINUOUS
10
4.14961
20
-5.68898
11
4.12992
21
-5.70866
0
LINE
8
BLACK
6
CONTINUOUS
10
4.12992
20
-5.70866
11
4.14961
21
-5.72835
0
LINE
8
BLACK
6
CONTINUOUS
10
4.24961
20
-5.72835
11
4.26929
21
-5.70866
0
LINE
8
BLACK
6
CONTINUOUS
10
4.26929
20
-5.70866
11
4.24961
21
-5.68898
0
LINE
8
BLACK
6
CONTINUOUS
10
4.24961
20
-5.68898
11
4.22992
21
-5.70866
0
LINE
8
BLACK
6
CONTINUOUS
10
4.22992
20
-5.70866
11
4.24961
21
-5.72835
0
LINE
8
BLACK
6
CONTINUOUS
10
4.34961
20
-5.72835
11
4.36929
21
-5.70866
0
LINE
8
BLACK
6
CONTINUOUS
10
4.36929
20
-5.70866
11
4.34961
21
-5.68898
0
LINE
8
BLACK
6
CONTINUOUS
10
4.34961
20
-5.68898
11
4.32992
21
-5.70866
0
LINE
8
BLACK
6
CONTINUOUS
10
4.32992
20
-5.70866
11
4.34961
21
-5.72835
0
LINE
8
BLACK
6
CONTINUOUS
10
4.44961
20
-5.72835
11
4.46929
21
-5.70866
0
LINE
8
BLACK
6
CONTINUOUS
10
4.46929
20
-5.70866
11
4.44961
21
-5.68898
0
LINE
8
BLACK
6
CONTINUOUS
10
4.44961
20
-5.68898
11
4.42992
21
-5.70866
0
LINE
8
BLACK
6
CONTINUOUS
10
4.42992
20
-5.70866
11
4.44961
21
-5.72835
0
LINE
8
BLACK
6
CONTINUOUS
10
4.54961
20
-5.72835
11
4.56929
21
-5.70866
0
LINE
8
BLACK
6
CONTINUOUS
10
4.56929
20
-5.70866
11
4.54961
21
-5.68898
0
LINE
8
BLACK
6
CONTINUOUS
10
4.54961
20
-5.68898
11
4.52992
21
-5.70866
0
LINE
8
BLACK
6
CONTINUOUS
10
4.52992
20
-5.70866
11
4.54961
21
-5.72835
0
LINE
8
BLACK
6
CONTINUOUS
10
4.64961
20
-5.72835
11
4.66929
21
-5.70866
0
LINE
8
BLACK
6
CONTINUOUS
10
4.66929
20
-5.70866
11
4.64961
21
-5.68898
0
LINE
8
BLACK
6
CONTINUOUS
10
4.64961
20
-5.68898
11
4.62992
21
-5.70866
0
LINE
8
BLACK
6
CONTINUOUS
10
4.62992
20
-5.70866
11
4.64961
21
-5.72835
0
LINE
8
BLACK
6
CONTINUOUS
10
7.65748
20
-2.77559
11
7.67717
21
-2.75591
0
LINE
8
BLACK
6
CONTINUOUS
10
7.67717
20
-2.75591
11
7.65748
21
-2.73622
0
LINE
8
BLACK
6
CONTINUOUS
10
7.65748
20
-2.73622
11
7.6378
21
-2.75591
0
LINE
8
BLACK
6
CONTINUOUS
10
7.6378
20
-2.75591
11
7.65748
21
-2.77559
0
LINE
8
BLACK
6
CONTINUOUS
10
7.65748
20
-2.87559
11
7.67717
21
-2.85591
0
LINE
8
BLACK
6
CONTINUOUS
10
7.67717
20
-2.85591
11
7.65748
21
-2.83622
0
LINE
8
BLACK
6
CONTINUOUS
10
7.65748
20
-2.83622
11
7.6378
21
-2.85591
0
LINE
8
BLACK
6
CONTINUOUS
10
7.6378
20
-2.85591
11
7.65748
21
-2.87559
0
LINE
8
BLACK
6
CONTINUOUS
10
7.65748
20
-2.97559
11
7.67717
21
-2.95591
0
LINE
8
BLACK
6
CONTINUOUS
10
7.67717
20
-2.95591
11
7.65748
21
-2.93622
0
LINE
8
BLACK
6
CONTINUOUS
10
7.65748
20
-2.93622
11
7.6378
21
-2.95591
0
LINE
8
BLACK
6
CONTINUOUS
10
7.6378
20
-2.95591
11
7.65748
21
-2.97559
0
LINE
8
BLACK
6
CONTINUOUS
10
7.65748
20
-3.07559
11
7.67717
21
-3.05591
0
LINE
8
BLACK
6
CONTINUOUS
10
7.67717
20
-3.05591
11
7.65748
21
-3.03622
0
LINE
8
BLACK
6
CONTINUOUS
10
7.65748
20
-3.03622
11
7.6378
21
-3.05591
0
LINE
8
BLACK
6
CONTINUOUS
10
7.6378
20
-3.05591
11
7.65748
21
-3.07559
0
LINE
8
BLACK
6
CONTINUOUS
10
7.65748
20
-3.17559
11
7.67717
21
-3.15591
0
LINE
8
BLACK
6
CONTINUOUS
10
7.67717
20
-3.15591
11
7.65748
21
-3.13622
0
LINE
8
BLACK
6
CONTINUOUS
10
7.65748
20
-3.13622
11
7.6378
21
-3.15591
0
LINE
8
BLACK
6
CONTINUOUS
10
7.6378
20
-3.15591
11
7.65748
21
-3.17559
0
LINE
8
BLACK
6
CONTINUOUS
10
7.65748
20
-3.27559
11
7.67717
21
-3.25591
0
LINE
8
BLACK
6
CONTINUOUS
10
7.67717
20
-3.25591
11
7.65748
21
-3.23622
0
LINE
8
BLACK
6
CONTINUOUS
10
7.65748
20
-3.23622
11
7.6378
21
-3.25591
0
LINE
8
BLACK
6
CONTINUOUS
10
7.6378
20
-3.25591
11
7.65748
21
-3.27559
0
LINE
8
BLACK
6
CONTINUOUS
10
7.65748
20
-3.37559
11
7.67717
21
-3.35591
0
LINE
8
BLACK
6
CONTINUOUS
10
7.67717
20
-3.35591
11
7.65748
21
-3.33622
0
LINE
8
BLACK
6
CONTINUOUS
10
7.65748
20
-3.33622
11
7.6378
21
-3.35591
0
LINE
8
BLACK
6
CONTINUOUS
10
7.6378
20
-3.35591
11
7.65748
21
-3.37559
0
LINE
8
BLACK
6
CONTINUOUS
10
7.65748
20
-3.47559
11
7.67717
21
-3.45591
0
LINE
8
BLACK
6
CONTINUOUS
10
7.67717
20
-3.45591
11
7.65748
21
-3.43622
0
LINE
8
BLACK
6
CONTINUOUS
10
7.65748
20
-3.43622
11
7.6378
21
-3.45591
0
LINE
8
BLACK
6
CONTINUOUS
10
7.6378
20
-3.45591
11
7.65748
21
-3.47559
0
LINE
8
BLACK
6
CONTINUOUS
10
2.12205
20
-2.12205
11
2.24803
21
-2.24803
0
LINE
8
BLACK
6
CONTINUOUS
10
2.24803
20
-2.12205
11
2.12205
21
-2.24803
0
CIRCLE
8
BLACK
10
2.18504
20
-2.18504
40
0.0629921
0
LINE
8
BLACK
6
CONTINUOUS
10
2.12205
20
-5.64567
11
2.24803
21
-5.77165
0
LINE
8
BLACK
6
CONTINUOUS
10
2.24803
20
-5.64567
11
2.12205
21
-5.77165
0
CIRCLE
8
BLACK
10
2.18504
20
-5.70866
40
0.0629921
0
LINE
8
BLACK
6
CONTINUOUS
10
5.8622
20
-2.11012
11
5.98819
21
-2.2361
0
LINE
8
BLACK
6
CONTINUOUS
10
5.98819
20
-2.11012
11
5.8622
21
-2.2361
0
CIRCLE
8
BLACK
10
5.9252
20
-2.17311
40
0.0629921
0
LINE
8
BLACK
6
CONTINUOUS
10
5.8622
20
-5.64567
11
5.98819
21
-5.77165
0
LINE
8
BLACK
6
CONTINUOUS
10
5.98819
20
-5.64567
11
5.8622
21
-5.77165
0
CIRCLE
8
BLACK
10
5.9252
20
-5.70866
40
0.0629921
0
LINE
8
BLACK
6
CONTINUOUS
10
7.61417
20
-2.10236
11
7.74016
21
-2.22835
0
LINE
8
BLACK
6
CONTINUOUS
10
7.74016
20
-2.10236
11
7.61417
21
-2.22835
0
CIRCLE
8
BLACK
10
7.67717
20
-2.16535
40
0.0629921
0
LINE
8
BLACK
6
CONTINUOUS
10
7.61417
20
-5.64567
11
7.74016
21
-5.77165
0
LINE
8
BLACK
6
CONTINUOUS
10
7.74016
20
-5.64567
11
7.61417
21
-5.77165
0
CIRCLE
8
BLACK
10
7.67717
20
-5.70866
40
0.0629921
0
LINE
8
BLACK
6
CONTINUOUS
10
2.0793
20
-6.09083
11
2.0793
21
-5.97272
0
LINE
8
BLACK
6
CONTINUOUS
10
2.0793
20
-5.97272
11
2.10742
21
-5.97272
0
LINE
8
BLACK
6
CONTINUOUS
10
2.10742
20
-5.97272
11
2.1243
21
-5.97835
0
LINE
8
BLACK
6
CONTINUOUS
10
2.1243
20
-5.97835
11
2.13555
21
-5.9896
0
LINE
8
BLACK
6
CONTINUOUS
10
2.13555
20
-5.9896
11
2.14117
21
-6.00084
0
LINE
8
BLACK
6
CONTINUOUS
10
2.14117
20
-6.00084
11
2.14679
21
-6.02334
0
LINE
8
BLACK
6
CONTINUOUS
10
2.14679
20
-6.02334
11
2.14679
21
-6.04021
0
LINE
8
BLACK
6
CONTINUOUS
10
2.14679
20
-6.04021
11
2.14117
21
-6.06271
0
LINE
8
BLACK
6
CONTINUOUS
10
2.14117
20
-6.06271
11
2.13555
21
-6.07396
0
LINE
8
BLACK
6
CONTINUOUS
10
2.13555
20
-6.07396
11
2.1243
21
-6.08521
0
LINE
8
BLACK
6
CONTINUOUS
10
2.1243
20
-6.08521
11
2.10742
21
-6.09083
0
LINE
8
BLACK
6
CONTINUOUS
10
2.10742
20
-6.09083
11
2.0793
21
-6.09083
0
LINE
8
BLACK
6
CONTINUOUS
10
2.19741
20
-6.09083
11
2.19741
21
-6.01209
0
LINE
8
BLACK
6
CONTINUOUS
10
2.19741
20
-6.03459
11
2.20304
21
-6.02334
0
LINE
8
BLACK
6
CONTINUOUS
10
2.20304
20
-6.02334
11
2.20866
21
-6.01772
0
LINE
8
BLACK
6
CONTINUOUS
10
2.20866
20
-6.01772
11
2.21991
21
-6.01209
0
LINE
8
BLACK
6
CONTINUOUS
10
2.21991
20
-6.01209
11
2.23116
21
-6.01209
0
LINE
8
BLACK
6
CONTINUOUS
10
2.27053
20
-6.09083
11
2.27053
21
-6.01209
0
LINE
8
BLACK
6
CONTINUOUS
10
2.27053
20
-5.97272
11
2.2649
21
-5.97835
0
LINE
8
BLACK
6
CONTINUOUS
10
2.2649
20
-5.97835
11
2.27053
21
-5.98397
0
LINE
8
BLACK
6
CONTINUOUS
10
2.27053
20
-5.98397
11
2.27615
21
-5.97835
0
LINE
8
BLACK
6
CONTINUOUS
10
2.27615
20
-5.97835
11
2.27053
21
-5.97272
0
LINE
8
BLACK
6
CONTINUOUS
10
2.27053
20
-5.97272
11
2.27053
21
-5.98397
0
LINE
8
BLACK
6
CONTINUOUS
10
2.34364
20
-6.09083
11
2.3324
21
-6.08521
0
LINE
8
BLACK
6
CONTINUOUS
10
2.3324
20
-6.08521
11
2.32677
21
-6.07396
0
LINE
8
BLACK
6
CONTINUOUS
10
2.32677
20
-6.07396
11
2.32677
21
-5.97272
0
LINE
8
BLACK
6
CONTINUOUS
10
2.40551
20
-6.09083
11
2.39426
21
-6.08521
0
LINE
8
BLACK
6
CONTINUOUS
10
2.39426
20
-6.08521
11
2.38864
21
-6.07396
0
LINE
8
BLACK
6
CONTINUOUS
10
2.38864
20
-6.07396
11
2.38864
21
-5.97272
0
LINE
8
BLACK
6
CONTINUOUS
10
2.54049
20
-6.09083
11
2.54049
21
-5.97272
0
LINE
8
BLACK
6
CONTINUOUS
10
2.54049
20
-5.97272
11
2.57986
21
-6.05709
0
LINE
8
BLACK
6
CONTINUOUS
10
2.57986
20
-6.05709
11
2.61924
21
-5.97272
0
LINE
8
BLACK
6
CONTINUOUS
10
2.61924
20
-5.97272
11
2.61924
21
-6.09083
0
LINE
8
BLACK
6
CONTINUOUS
10
2.7261
20
-6.09083
11
2.7261
21
-6.02897
0
LINE
8
BLACK
6
CONTINUOUS
10
2.7261
20
-6.02897
11
2.72047
21
-6.01772
0
LINE
8
BLACK
6
CONTINUOUS
10
2.72047
20
-6.01772
11
2.70922
21
-6.01209
0
LINE
8
BLACK
6
CONTINUOUS
10
2.70922
20
-6.01209
11
2.68673
21
-6.01209
0
LINE
8
BLACK
6
CONTINUOUS
10
2.68673
20
-6.01209
11
2.67548
21
-6.01772
0
LINE
8
BLACK
6
CONTINUOUS
10
2.7261
20
-6.08521
11
2.71485
21
-6.09083
0
LINE
8
BLACK
6
CONTINUOUS
10
2.71485
20
-6.09083
11
2.68673
21
-6.09083
0
LINE
8
BLACK
6
CONTINUOUS
10
2.68673
20
-6.09083
11
2.67548
21
-6.08521
0
LINE
8
BLACK
6
CONTINUOUS
10
2.67548
20
-6.08521
11
2.66985
21
-6.07396
0
LINE
8
BLACK
6
CONTINUOUS
10
2.66985
20
-6.07396
11
2.66985
21
-6.06271
0
LINE
8
BLACK
6
CONTINUOUS
10
2.66985
20
-6.06271
11
2.67548
21
-6.05146
0
LINE
8
BLACK
6
CONTINUOUS
10
2.67548
20
-6.05146
11
2.68673
21
-6.04584
0
LINE
8
BLACK
6
CONTINUOUS
10
2.68673
20
-6.04584
11
2.71485
21
-6.04584
0
LINE
8
BLACK
6
CONTINUOUS
10
2.71485
20
-6.04584
11
2.7261
21
-6.04021
0
LINE
8
BLACK
6
CONTINUOUS
10
2.78234
20
-6.01209
11
2.78234
21
-6.1302
0
LINE
8
BLACK
6
CONTINUOUS
10
2.78234
20
-6.01772
11
2.79359
21
-6.01209
0
LINE
8
BLACK
6
CONTINUOUS
10
2.79359
20
-6.01209
11
2.81609
21
-6.01209
0
LINE
8
BLACK
6
CONTINUOUS
10
2.81609
20
-6.01209
11
2.82733
21
-6.01772
0
LINE
8
BLACK
6
CONTINUOUS
10
2.82733
20
-6.01772
11
2.83296
21
-6.02334
0
LINE
8
BLACK
6
CONTINUOUS
10
2.83296
20
-6.02334
11
2.83858
21
-6.03459
0
LINE
8
BLACK
6
CONTINUOUS
10
2.83858
20
-6.03459
11
2.83858
21
-6.06834
0
LINE
8
BLACK
6
CONTINUOUS
10
2.83858
20
-6.06834
11
2.83296
21
-6.07958
0
LINE
8
BLACK
6
CONTINUOUS
10
2.83296
20
-6.07958
11
2.82733
21
-6.08521
0
LINE
8
BLACK
6
CONTINUOUS
10
2.82733
20
-6.08521
11
2.81609
21
-6.09083
0
LINE
8
BLACK
6
CONTINUOUS
10
2.81609
20
-6.09083
11
2.79359
21
-6.09083
0
LINE
8
BLACK
6
CONTINUOUS
10
2.79359
20
-6.09083
11
2.78234
21
-6.08521
0
LINE
8
BLACK
6
CONTINUOUS
10
2.8892
20
-6.07958
11
2.89483
21
-6.08521
0
LINE
8
BLACK
6
CONTINUOUS
10
2.89483
20
-6.08521
11
2.8892
21
-6.09083
0
LINE
8
BLACK
6
CONTINUOUS
10
2.8892
20
-6.09083
11
2.88358
21
-6.08521
0
LINE
8
BLACK
6
CONTINUOUS
10
2.88358
20
-6.08521
11
2.8892
21
-6.07958
0
LINE
8
BLACK
6
CONTINUOUS
10
2.8892
20
-6.07958
11
2.8892
21
-6.09083
0
LINE
8
BLACK
6
CONTINUOUS
10
2.8892
20
-6.01772
11
2.89483
21
-6.02334
0
LINE
8
BLACK
6
CONTINUOUS
10
2.89483
20
-6.02334
11
2.8892
21
-6.02897
0
LINE
8
BLACK
6
CONTINUOUS
10
2.8892
20
-6.02897
11
2.88358
21
-6.02334
0
LINE
8
BLACK
6
CONTINUOUS
10
2.88358
20
-6.02334
11
2.8892
21
-6.01772
0
LINE
8
BLACK
6
CONTINUOUS
10
2.8892
20
-6.01772
11
2.8892
21
-6.02897
0
LINE
8
BLACK
6
CONTINUOUS
10
1.95079
20
-6.27756
11
1.96654
21
-6.29331
0
LINE
8
BLACK
6
CONTINUOUS
10
1.96654
20
-6.27756
11
1.95079
21
-6.29331
0
LINE
8
BLACK
6
CONTINUOUS
10
2.1018
20
-6.22075
11
2.11305
21
-6.22075
0
LINE
8
BLACK
6
CONTINUOUS
10
2.11305
20
-6.22075
11
2.1243
21
-6.22638
0
LINE
8
BLACK
6
CONTINUOUS
10
2.1243
20
-6.22638
11
2.12992
21
-6.232
0
LINE
8
BLACK
6
CONTINUOUS
10
2.12992
20
-6.232
11
2.13555
21
-6.24325
0
LINE
8
BLACK
6
CONTINUOUS
10
2.13555
20
-6.24325
11
2.14117
21
-6.26575
0
LINE
8
BLACK
6
CONTINUOUS
10
2.14117
20
-6.26575
11
2.14117
21
-6.29387
0
LINE
8
BLACK
6
CONTINUOUS
10
2.14117
20
-6.29387
11
2.13555
21
-6.31637
0
LINE
8
BLACK
6
CONTINUOUS
10
2.13555
20
-6.31637
11
2.12992
21
-6.32762
0
LINE
8
BLACK
6
CONTINUOUS
10
2.12992
20
-6.32762
11
2.1243
21
-6.33324
0
LINE
8
BLACK
6
CONTINUOUS
10
2.1243
20
-6.33324
11
2.11305
21
-6.33886
0
LINE
8
BLACK
6
CONTINUOUS
10
2.11305
20
-6.33886
11
2.1018
21
-6.33886
0
LINE
8
BLACK
6
CONTINUOUS
10
2.1018
20
-6.33886
11
2.09055
21
-6.33324
0
LINE
8
BLACK
6
CONTINUOUS
10
2.09055
20
-6.33324
11
2.08493
21
-6.32762
0
LINE
8
BLACK
6
CONTINUOUS
10
2.08493
20
-6.32762
11
2.0793
21
-6.31637
0
LINE
8
BLACK
6
CONTINUOUS
10
2.0793
20
-6.31637
11
2.07368
21
-6.29387
0
LINE
8
BLACK
6
CONTINUOUS
10
2.07368
20
-6.29387
11
2.07368
21
-6.26575
0
LINE
8
BLACK
6
CONTINUOUS
10
2.07368
20
-6.26575
11
2.0793
21
-6.24325
0
LINE
8
BLACK
6
CONTINUOUS
10
2.0793
20
-6.24325
11
2.08493
21
-6.232
0
LINE
8
BLACK
6
CONTINUOUS
10
2.08493
20
-6.232
11
2.09055
21
-6.22638
0
LINE
8
BLACK
6
CONTINUOUS
10
2.09055
20
-6.22638
11
2.1018
21
-6.22075
0
LINE
8
BLACK
6
CONTINUOUS
10
2.19179
20
-6.32762
11
2.19741
21
-6.33324
0
LINE
8
BLACK
6
CONTINUOUS
10
2.19741
20
-6.33324
11
2.19179
21
-6.33886
0
LINE
8
BLACK
6
CONTINUOUS
10
2.19179
20
-6.33886
11
2.18616
21
-6.33324
0
LINE
8
BLACK
6
CONTINUOUS
10
2.18616
20
-6.33324
11
2.19179
21
-6.32762
0
LINE
8
BLACK
6
CONTINUOUS
10
2.19179
20
-6.32762
11
2.19179
21
-6.33886
0
LINE
8
BLACK
6
CONTINUOUS
10
2.29865
20
-6.26012
11
2.29865
21
-6.33886
0
LINE
8
BLACK
6
CONTINUOUS
10
2.27053
20
-6.21513
11
2.24241
21
-6.29949
0
LINE
8
BLACK
6
CONTINUOUS
10
2.24241
20
-6.29949
11
2.31552
21
-6.29949
0
LINE
8
BLACK
6
CONTINUOUS
10
2.38301
20
-6.22075
11
2.39426
21
-6.22075
0
LINE
8
BLACK
6
CONTINUOUS
10
2.39426
20
-6.22075
11
2.40551
21
-6.22638
0
LINE
8
BLACK
6
CONTINUOUS
10
2.40551
20
-6.22638
11
2.41114
21
-6.232
0
LINE
8
BLACK
6
CONTINUOUS
10
2.41114
20
-6.232
11
2.41676
21
-6.24325
0
LINE
8
BLACK
6
CONTINUOUS
10
2.41676
20
-6.24325
11
2.42238
21
-6.26575
0
LINE
8
BLACK
6
CONTINUOUS
10
2.42238
20
-6.26575
11
2.42238
21
-6.29387
0
LINE
8
BLACK
6
CONTINUOUS
10
2.42238
20
-6.29387
11
2.41676
21
-6.31637
0
LINE
8
BLACK
6
CONTINUOUS
10
2.41676
20
-6.31637
11
2.41114
21
-6.32762
0
LINE
8
BLACK
6
CONTINUOUS
10
2.41114
20
-6.32762
11
2.40551
21
-6.33324
0
LINE
8
BLACK
6
CONTINUOUS
10
2.40551
20
-6.33324
11
2.39426
21
-6.33886
0
LINE
8
BLACK
6
CONTINUOUS
10
2.39426
20
-6.33886
11
2.38301
21
-6.33886
0
LINE
8
BLACK
6
CONTINUOUS
10
2.38301
20
-6.33886
11
2.37177
21
-6.33324
0
LINE
8
BLACK
6
CONTINUOUS
10
2.37177
20
-6.33324
11
2.36614
21
-6.32762
0
LINE
8
BLACK
6
CONTINUOUS
10
2.36614
20
-6.32762
11
2.36052
21
-6.31637
0
LINE
8
BLACK
6
CONTINUOUS
10
2.36052
20
-6.31637
11
2.35489
21
-6.29387
0
LINE
8
BLACK
6
CONTINUOUS
10
2.35489
20
-6.29387
11
2.35489
21
-6.26575
0
LINE
8
BLACK
6
CONTINUOUS
10
2.35489
20
-6.26575
11
2.36052
21
-6.24325
0
LINE
8
BLACK
6
CONTINUOUS
10
2.36052
20
-6.24325
11
2.36614
21
-6.232
0
LINE
8
BLACK
6
CONTINUOUS
10
2.36614
20
-6.232
11
2.37177
21
-6.22638
0
LINE
8
BLACK
6
CONTINUOUS
10
2.37177
20
-6.22638
11
2.38301
21
-6.22075
0
LINE
8
BLACK
6
CONTINUOUS
10
2.4955
20
-6.22075
11
2.50675
21
-6.22075
0
LINE
8
BLACK
6
CONTINUOUS
10
2.50675
20
-6.22075
11
2.518
21
-6.22638
0
LINE
8
BLACK
6
CONTINUOUS
10
2.518
20
-6.22638
11
2.52362
21
-6.232
0
LINE
8
BLACK
6
CONTINUOUS
10
2.52362
20
-6.232
11
2.52925
21
-6.24325
0
LINE
8
BLACK
6
CONTINUOUS
10
2.52925
20
-6.24325
11
2.53487
21
-6.26575
0
LINE
8
BLACK
6
CONTINUOUS
10
2.53487
20
-6.26575
11
2.53487
21
-6.29387
0
LINE
8
BLACK
6
CONTINUOUS
10
2.53487
20
-6.29387
11
2.52925
21
-6.31637
0
LINE
8
BLACK
6
CONTINUOUS
10
2.52925
20
-6.31637
11
2.52362
21
-6.32762
0
LINE
8
BLACK
6
CONTINUOUS
10
2.52362
20
-6.32762
11
2.518
21
-6.33324
0
LINE
8
BLACK
6
CONTINUOUS
10
2.518
20
-6.33324
11
2.50675
21
-6.33886
0
LINE
8
BLACK
6
CONTINUOUS
10
2.50675
20
-6.33886
11
2.4955
21
-6.33886
0
LINE
8
BLACK
6
CONTINUOUS
10
2.4955
20
-6.33886
11
2.48425
21
-6.33324
0
LINE
8
BLACK
6
CONTINUOUS
10
2.48425
20
-6.33324
11
2.47863
21
-6.32762
0
LINE
8
BLACK
6
CONTINUOUS
10
2.47863
20
-6.32762
11
2.473
21
-6.31637
0
LINE
8
BLACK
6
CONTINUOUS
10
2.473
20
-6.31637
11
2.46738
21
-6.29387
0
LINE
8
BLACK
6
CONTINUOUS
10
2.46738
20
-6.29387
11
2.46738
21
-6.26575
0
LINE
8
BLACK
6
CONTINUOUS
10
2.46738
20
-6.26575
11
2.473
21
-6.24325
0
LINE
8
BLACK
6
CONTINUOUS
10
2.473
20
-6.24325
11
2.47863
21
-6.232
0
LINE
8
BLACK
6
CONTINUOUS
10
2.47863
20
-6.232
11
2.48425
21
-6.22638
0
LINE
8
BLACK
6
CONTINUOUS
10
2.48425
20
-6.22638
11
2.4955
21
-6.22075
0
LINE
8
BLACK
6
CONTINUOUS
10
2.58549
20
-6.33886
11
2.58549
21
-6.26012
0
LINE
8
BLACK
6
CONTINUOUS
10
2.58549
20
-6.27137
11
2.59111
21
-6.26575
0
LINE
8
BLACK
6
CONTINUOUS
10
2.59111
20
-6.26575
11
2.60236
21
-6.26012
0
LINE
8
BLACK
6
CONTINUOUS
10
2.60236
20
-6.26012
11
2.61924
21
-6.26012
0
LINE
8
BLACK
6
CONTINUOUS
10
2.61924
20
-6.26012
11
2.63048
21
-6.26575
0
LINE
8
BLACK
6
CONTINUOUS
10
2.63048
20
-6.26575
11
2.63611
21
-6.277
0
LINE
8
BLACK
6
CONTINUOUS
10
2.63611
20
-6.277
11
2.63611
21
-6.33886
0
LINE
8
BLACK
6
CONTINUOUS
10
2.63611
20
-6.277
11
2.64173
21
-6.26575
0
LINE
8
BLACK
6
CONTINUOUS
10
2.64173
20
-6.26575
11
2.65298
21
-6.26012
0
LINE
8
BLACK
6
CONTINUOUS
10
2.65298
20
-6.26012
11
2.66985
21
-6.26012
0
LINE
8
BLACK
6
CONTINUOUS
10
2.66985
20
-6.26012
11
2.6811
21
-6.26575
0
LINE
8
BLACK
6
CONTINUOUS
10
2.6811
20
-6.26575
11
2.68673
21
-6.277
0
LINE
8
BLACK
6
CONTINUOUS
10
2.68673
20
-6.277
11
2.68673
21
-6.33886
0
LINE
8
BLACK
6
CONTINUOUS
10
2.74297
20
-6.33886
11
2.74297
21
-6.26012
0
LINE
8
BLACK
6
CONTINUOUS
10
2.74297
20
-6.27137
11
2.74859
21
-6.26575
0
LINE
8
BLACK
6
CONTINUOUS
10
2.74859
20
-6.26575
11
2.75984
21
-6.26012
0
LINE
8
BLACK
6
CONTINUOUS
10
2.75984
20
-6.26012
11
2.77672
21
-6.26012
0
LINE
8
BLACK
6
CONTINUOUS
10
2.77672
20
-6.26012
11
2.78796
21
-6.26575
0
LINE
8
BLACK
6
CONTINUOUS
10
2.78796
20
-6.26575
11
2.79359
21
-6.277
0
LINE
8
BLACK
6
CONTINUOUS
10
2.79359
20
-6.277
11
2.79359
21
-6.33886
0
LINE
8
BLACK
6
CONTINUOUS
10
2.79359
20
-6.277
11
2.79921
21
-6.26575
0
LINE
8
BLACK
6
CONTINUOUS
10
2.79921
20
-6.26575
11
2.81046
21
-6.26012
0
LINE
8
BLACK
6
CONTINUOUS
10
2.81046
20
-6.26012
11
2.82733
21
-6.26012
0
LINE
8
BLACK
6
CONTINUOUS
10
2.82733
20
-6.26012
11
2.83858
21
-6.26575
0
LINE
8
BLACK
6
CONTINUOUS
10
2.83858
20
-6.26575
11
2.84421
21
-6.277
0
LINE
8
BLACK
6
CONTINUOUS
10
2.84421
20
-6.277
11
2.84421
21
-6.33886
0
LINE
8
BLACK
6
CONTINUOUS
10
3.0748
20
-6.21513
11
2.97357
21
-6.36699
0
LINE
8
BLACK
6
CONTINUOUS
10
3.22666
20
-6.22075
11
3.23791
21
-6.22075
0
LINE
8
BLACK
6
CONTINUOUS
10
3.23791
20
-6.22075
11
3.24916
21
-6.22638
0
LINE
8
BLACK
6
CONTINUOUS
10
3.24916
20
-6.22638
11
3.25478
21
-6.232
0
LINE
8
BLACK
6
CONTINUOUS
10
3.25478
20
-6.232
11
3.2604
21
-6.24325
0
LINE
8
BLACK
6
CONTINUOUS
10
3.2604
20
-6.24325
11
3.26603
21
-6.26575
0
LINE
8
BLACK
6
CONTINUOUS
10
3.26603
20
-6.26575
11
3.26603
21
-6.29387
0
LINE
8
BLACK
6
CONTINUOUS
10
3.26603
20
-6.29387
11
3.2604
21
-6.31637
0
LINE
8
BLACK
6
CONTINUOUS
10
3.2604
20
-6.31637
11
3.25478
21
-6.32762
0
LINE
8
BLACK
6
CONTINUOUS
10
3.25478
20
-6.32762
11
3.24916
21
-6.33324
0
LINE
8
BLACK
6
CONTINUOUS
10
3.24916
20
-6.33324
11
3.23791
21
-6.33886
0
LINE
8
BLACK
6
CONTINUOUS
10
3.23791
20
-6.33886
11
3.22666
21
-6.33886
0
LINE
8
BLACK
6
CONTINUOUS
10
3.22666
20
-6.33886
11
3.21541
21
-6.33324
0
LINE
8
BLACK
6
CONTINUOUS
10
3.21541
20
-6.33324
11
3.20979
21
-6.32762
0
LINE
8
BLACK
6
CONTINUOUS
10
3.20979
20
-6.32762
11
3.20416
21
-6.31637
0
LINE
8
BLACK
6
CONTINUOUS
10
3.20416
20
-6.31637
11
3.19854
21
-6.29387
0
LINE
8
BLACK
6
CONTINUOUS
10
3.19854
20
-6.29387
11
3.19854
21
-6.26575
0
LINE
8
BLACK
6
CONTINUOUS
10
3.19854
20
-6.26575
11
3.20416
21
-6.24325
0
LINE
8
BLACK
6
CONTINUOUS
10
3.20416
20
-6.24325
11
3.20979
21
-6.232
0
LINE
8
BLACK
6
CONTINUOUS
10
3.20979
20
-6.232
11
3.21541
21
-6.22638
0
LINE
8
BLACK
6
CONTINUOUS
10
3.21541
20
-6.22638
11
3.22666
21
-6.22075
0
LINE
8
BLACK
6
CONTINUOUS
10
3.31665
20
-6.32762
11
3.32227
21
-6.33324
0
LINE
8
BLACK
6
CONTINUOUS
10
3.32227
20
-6.33324
11
3.31665
21
-6.33886
0
LINE
8
BLACK
6
CONTINUOUS
10
3.31665
20
-6.33886
11
3.31102
21
-6.33324
0
LINE
8
BLACK
6
CONTINUOUS
10
3.31102
20
-6.33324
11
3.31665
21
-6.32762
0
LINE
8
BLACK
6
CONTINUOUS
10
3.31665
20
-6.32762
11
3.31665
21
-6.33886
0
LINE
8
BLACK
6
CONTINUOUS
10
3.39539
20
-6.22075
11
3.40664
21
-6.22075
0
LINE
8
BLACK
6
CONTINUOUS
10
3.40664
20
-6.22075
11
3.41789
21
-6.22638
0
LINE
8
BLACK
6
CONTINUOUS
10
3.41789
20
-6.22638
11
3.42351
21
-6.232
0
LINE
8
BLACK
6
CONTINUOUS
10
3.42351
20
-6.232
11
3.42913
21
-6.24325
0
LINE
8
BLACK
6
CONTINUOUS
10
3.42913
20
-6.24325
11
3.43476
21
-6.26575
0
LINE
8
BLACK
6
CONTINUOUS
10
3.43476
20
-6.26575
11
3.43476
21
-6.29387
0
LINE
8
BLACK
6
CONTINUOUS
10
3.43476
20
-6.29387
11
3.42913
21
-6.31637
0
LINE
8
BLACK
6
CONTINUOUS
10
3.42913
20
-6.31637
11
3.42351
21
-6.32762
0
LINE
8
BLACK
6
CONTINUOUS
10
3.42351
20
-6.32762
11
3.41789
21
-6.33324
0
LINE
8
BLACK
6
CONTINUOUS
10
3.41789
20
-6.33324
11
3.40664
21
-6.33886
0
LINE
8
BLACK
6
CONTINUOUS
10
3.40664
20
-6.33886
11
3.39539
21
-6.33886
0
LINE
8
BLACK
6
CONTINUOUS
10
3.39539
20
-6.33886
11
3.38414
21
-6.33324
0
LINE
8
BLACK
6
CONTINUOUS
10
3.38414
20
-6.33324
11
3.37852
21
-6.32762
0
LINE
8
BLACK
6
CONTINUOUS
10
3.37852
20
-6.32762
11
3.37289
21
-6.31637
0
LINE
8
BLACK
6
CONTINUOUS
10
3.37289
20
-6.31637
11
3.36727
21
-6.29387
0
LINE
8
BLACK
6
CONTINUOUS
10
3.36727
20
-6.29387
11
3.36727
21
-6.26575
0
LINE
8
BLACK
6
CONTINUOUS
10
3.36727
20
-6.26575
11
3.37289
21
-6.24325
0
LINE
8
BLACK
6
CONTINUOUS
10
3.37289
20
-6.24325
11
3.37852
21
-6.232
0
LINE
8
BLACK
6
CONTINUOUS
10
3.37852
20
-6.232
11
3.38414
21
-6.22638
0
LINE
8
BLACK
6
CONTINUOUS
10
3.38414
20
-6.22638
11
3.39539
21
-6.22075
0
LINE
8
BLACK
6
CONTINUOUS
10
3.54724
20
-6.33886
11
3.47975
21
-6.33886
0
LINE
8
BLACK
6
CONTINUOUS
10
3.5135
20
-6.33886
11
3.5135
21
-6.22075
0
LINE
8
BLACK
6
CONTINUOUS
10
3.5135
20
-6.22075
11
3.50225
21
-6.23763
0
LINE
8
BLACK
6
CONTINUOUS
10
3.50225
20
-6.23763
11
3.491
21
-6.24888
0
LINE
8
BLACK
6
CONTINUOUS
10
3.491
20
-6.24888
11
3.47975
21
-6.2545
0
LINE
8
BLACK
6
CONTINUOUS
10
3.65411
20
-6.22075
11
3.59786
21
-6.22075
0
LINE
8
BLACK
6
CONTINUOUS
10
3.59786
20
-6.22075
11
3.59224
21
-6.277
0
LINE
8
BLACK
6
CONTINUOUS
10
3.59224
20
-6.277
11
3.59786
21
-6.27137
0
LINE
8
BLACK
6
CONTINUOUS
10
3.59786
20
-6.27137
11
3.60911
21
-6.26575
0
LINE
8
BLACK
6
CONTINUOUS
10
3.60911
20
-6.26575
11
3.63723
21
-6.26575
0
LINE
8
BLACK
6
CONTINUOUS
10
3.63723
20
-6.26575
11
3.64848
21
-6.27137
0
LINE
8
BLACK
6
CONTINUOUS
10
3.64848
20
-6.27137
11
3.65411
21
-6.277
0
LINE
8
BLACK
6
CONTINUOUS
10
3.65411
20
-6.277
11
3.65973
21
-6.28825
0
LINE
8
BLACK
6
CONTINUOUS
10
3.65973
20
-6.28825
11
3.65973
21
-6.31637
0
LINE
8
BLACK
6
CONTINUOUS
10
3.65973
20
-6.31637
11
3.65411
21
-6.32762
0
LINE
8
BLACK
6
CONTINUOUS
10
3.65411
20
-6.32762
11
3.64848
21
-6.33324
0
LINE
8
BLACK
6
CONTINUOUS
10
3.64848
20
-6.33324
11
3.63723
21
-6.33886
0
LINE
8
BLACK
6
CONTINUOUS
10
3.63723
20
-6.33886
11
3.60911
21
-6.33886
0
LINE
8
BLACK
6
CONTINUOUS
10
3.60911
20
-6.33886
11
3.59786
21
-6.33324
0
LINE
8
BLACK
6
CONTINUOUS
10
3.59786
20
-6.33324
11
3.59224
21
-6.32762
0
LINE
8
BLACK
6
CONTINUOUS
10
3.6991
20
-6.22075
11
3.77784
21
-6.22075
0
LINE
8
BLACK
6
CONTINUOUS
10
3.77784
20
-6.22075
11
3.72722
21
-6.33886
0
LINE
8
BLACK
6
CONTINUOUS
10
3.81721
20
-6.22075
11
3.81721
21
-6.24325
0
LINE
8
BLACK
6
CONTINUOUS
10
3.8622
20
-6.22075
11
3.8622
21
-6.24325
0
LINE
8
BLACK
6
CONTINUOUS
10
4.03656
20
-6.38386
11
4.03093
21
-6.37823
0
LINE
8
BLACK
6
CONTINUOUS
10
4.03093
20
-6.37823
11
4.01968
21
-6.36136
0
LINE
8
BLACK
6
CONTINUOUS
10
4.01968
20
-6.36136
11
4.01406
21
-6.35011
0
LINE
8
BLACK
6
CONTINUOUS
10
4.01406
20
-6.35011
11
4.00844
21
-6.33324
0
LINE
8
BLACK
6
CONTINUOUS
10
4.00844
20
-6.33324
11
4.00281
21
-6.30512
0
LINE
8
BLACK
6
CONTINUOUS
10
4.00281
20
-6.30512
11
4.00281
21
-6.28262
0
LINE
8
BLACK
6
CONTINUOUS
10
4.00281
20
-6.28262
11
4.00844
21
-6.2545
0
LINE
8
BLACK
6
CONTINUOUS
10
4.00844
20
-6.2545
11
4.01406
21
-6.23763
0
LINE
8
BLACK
6
CONTINUOUS
10
4.01406
20
-6.23763
11
4.01968
21
-6.22638
0
LINE
8
BLACK
6
CONTINUOUS
10
4.01968
20
-6.22638
11
4.03093
21
-6.20951
0
LINE
8
BLACK
6
CONTINUOUS
10
4.03093
20
-6.20951
11
4.03656
21
-6.20388
0
LINE
8
BLACK
6
CONTINUOUS
10
4.14342
20
-6.33886
11
4.07593
21
-6.33886
0
LINE
8
BLACK
6
CONTINUOUS
10
4.10967
20
-6.33886
11
4.10967
21
-6.22075
0
LINE
8
BLACK
6
CONTINUOUS
10
4.10967
20
-6.22075
11
4.09843
21
-6.23763
0
LINE
8
BLACK
6
CONTINUOUS
10
4.09843
20
-6.23763
11
4.08718
21
-6.24888
0
LINE
8
BLACK
6
CONTINUOUS
10
4.08718
20
-6.24888
11
4.07593
21
-6.2545
0
LINE
8
BLACK
6
CONTINUOUS
10
4.28403
20
-6.33886
11
4.28403
21
-6.22075
0
LINE
8
BLACK
6
CONTINUOUS
10
4.33465
20
-6.33886
11
4.33465
21
-6.277
0
LINE
8
BLACK
6
CONTINUOUS
10
4.33465
20
-6.277
11
4.32902
21
-6.26575
0
LINE
8
BLACK
6
CONTINUOUS
10
4.32902
20
-6.26575
11
4.31777
21
-6.26012
0
LINE
8
BLACK
6
CONTINUOUS
10
4.31777
20
-6.26012
11
4.3009
21
-6.26012
0
LINE
8
BLACK
6
CONTINUOUS
10
4.3009
20
-6.26012
11
4.28965
21
-6.26575
0
LINE
8
BLACK
6
CONTINUOUS
10
4.28965
20
-6.26575
11
4.28403
21
-6.27137
0
LINE
8
BLACK
6
CONTINUOUS
10
4.40776
20
-6.33886
11
4.39651
21
-6.33324
0
LINE
8
BLACK
6
CONTINUOUS
10
4.39651
20
-6.33324
11
4.39089
21
-6.32762
0
LINE
8
BLACK
6
CONTINUOUS
10
4.39089
20
-6.32762
11
4.38526
21
-6.31637
0
LINE
8
BLACK
6
CONTINUOUS
10
4.38526
20
-6.31637
11
4.38526
21
-6.28262
0
LINE
8
BLACK
6
CONTINUOUS
10
4.38526
20
-6.28262
11
4.39089
21
-6.27137
0
LINE
8
BLACK
6
CONTINUOUS
10
4.39089
20
-6.27137
11
4.39651
21
-6.26575
0
LINE
8
BLACK
6
CONTINUOUS
10
4.39651
20
-6.26575
11
4.40776
21
-6.26012
0
LINE
8
BLACK
6
CONTINUOUS
10
4.40776
20
-6.26012
11
4.42463
21
-6.26012
0
LINE
8
BLACK
6
CONTINUOUS
10
4.42463
20
-6.26012
11
4.43588
21
-6.26575
0
LINE
8
BLACK
6
CONTINUOUS
10
4.43588
20
-6.26575
11
4.44151
21
-6.27137
0
LINE
8
BLACK
6
CONTINUOUS
10
4.44151
20
-6.27137
11
4.44713
21
-6.28262
0
LINE
8
BLACK
6
CONTINUOUS
10
4.44713
20
-6.28262
11
4.44713
21
-6.31637
0
LINE
8
BLACK
6
CONTINUOUS
10
4.44713
20
-6.31637
11
4.44151
21
-6.32762
0
LINE
8
BLACK
6
CONTINUOUS
10
4.44151
20
-6.32762
11
4.43588
21
-6.33324
0
LINE
8
BLACK
6
CONTINUOUS
10
4.43588
20
-6.33324
11
4.42463
21
-6.33886
0
LINE
8
BLACK
6
CONTINUOUS
10
4.42463
20
-6.33886
11
4.40776
21
-6.33886
0
LINE
8
BLACK
6
CONTINUOUS
10
4.51462
20
-6.33886
11
4.50337
21
-6.33324
0
LINE
8
BLACK
6
CONTINUOUS
10
4.50337
20
-6.33324
11
4.49775
21
-6.32199
0
LINE
8
BLACK
6
CONTINUOUS
10
4.49775
20
-6.32199
11
4.49775
21
-6.22075
0
LINE
8
BLACK
6
CONTINUOUS
10
4.60461
20
-6.33324
11
4.59336
21
-6.33886
0
LINE
8
BLACK
6
CONTINUOUS
10
4.59336
20
-6.33886
11
4.57087
21
-6.33886
0
LINE
8
BLACK
6
CONTINUOUS
10
4.57087
20
-6.33886
11
4.55962
21
-6.33324
0
LINE
8
BLACK
6
CONTINUOUS
10
4.55962
20
-6.33324
11
4.55399
21
-6.32199
0
LINE
8
BLACK
6
CONTINUOUS
10
4.55399
20
-6.32199
11
4.55399
21
-6.277
0
LINE
8
BLACK
6
CONTINUOUS
10
4.55399
20
-6.277
11
4.55962
21
-6.26575
0
LINE
8
BLACK
6
CONTINUOUS
10
4.55962
20
-6.26575
11
4.57087
21
-6.26012
0
LINE
8
BLACK
6
CONTINUOUS
10
4.57087
20
-6.26012
11
4.59336
21
-6.26012
0
LINE
8
BLACK
6
CONTINUOUS
10
4.59336
20
-6.26012
11
4.60461
21
-6.26575
0
LINE
8
BLACK
6
CONTINUOUS
10
4.60461
20
-6.26575
11
4.61024
21
-6.277
0
LINE
8
BLACK
6
CONTINUOUS
10
4.61024
20
-6.277
11
4.61024
21
-6.28825
0
LINE
8
BLACK
6
CONTINUOUS
10
4.61024
20
-6.28825
11
4.55399
21
-6.29949
0
LINE
8
BLACK
6
CONTINUOUS
10
4.64961
20
-6.38386
11
4.65523
21
-6.37823
0
LINE
8
BLACK
6
CONTINUOUS
10
4.65523
20
-6.37823
11
4.66648
21
-6.36136
0
LINE
8
BLACK
6
CONTINUOUS
10
4.66648
20
-6.36136
11
4.6721
21
-6.35011
0
LINE
8
BLACK
6
CONTINUOUS
10
4.6721
20
-6.35011
11
4.67773
21
-6.33324
0
LINE
8
BLACK
6
CONTINUOUS
10
4.67773
20
-6.33324
11
4.68335
21
-6.30512
0
LINE
8
BLACK
6
CONTINUOUS
10
4.68335
20
-6.30512
11
4.68335
21
-6.28262
0
LINE
8
BLACK
6
CONTINUOUS
10
4.68335
20
-6.28262
11
4.67773
21
-6.2545
0
LINE
8
BLACK
6
CONTINUOUS
10
4.67773
20
-6.2545
11
4.6721
21
-6.23763
0
LINE
8
BLACK
6
CONTINUOUS
10
4.6721
20
-6.23763
11
4.66648
21
-6.22638
0
LINE
8
BLACK
6
CONTINUOUS
10
4.66648
20
-6.22638
11
4.65523
21
-6.20951
0
LINE
8
BLACK
6
CONTINUOUS
10
4.65523
20
-6.20951
11
4.64961
21
-6.20388
0
CIRCLE
8
BLACK
10
1.95669
20
-6.44134
40
0.00984252
0
LINE
8
BLACK
6
CONTINUOUS
10
2.1018
20
-6.37666
11
2.11305
21
-6.37666
0
LINE
8
BLACK
6
CONTINUOUS
10
2.11305
20
-6.37666
11
2.1243
21
-6.38228
0
LINE
8
BLACK
6
CONTINUOUS
10
2.1243
20
-6.38228
11
2.12992
21
-6.38791
0
LINE
8
BLACK
6
CONTINUOUS
10
2.12992
20
-6.38791
11
2.13555
21
-6.39916
0
LINE
8
BLACK
6
CONTINUOUS
10
2.13555
20
-6.39916
11
2.14117
21
-6.42165
0
LINE
8
BLACK
6
CONTINUOUS
10
2.14117
20
-6.42165
11
2.14117
21
-6.44978
0
LINE
8
BLACK
6
CONTINUOUS
10
2.14117
20
-6.44978
11
2.13555
21
-6.47227
0
LINE
8
BLACK
6
CONTINUOUS
10
2.13555
20
-6.47227
11
2.12992
21
-6.48352
0
LINE
8
BLACK
6
CONTINUOUS
10
2.12992
20
-6.48352
11
2.1243
21
-6.48915
0
LINE
8
BLACK
6
CONTINUOUS
10
2.1243
20
-6.48915
11
2.11305
21
-6.49477
0
LINE
8
BLACK
6
CONTINUOUS
10
2.11305
20
-6.49477
11
2.1018
21
-6.49477
0
LINE
8
BLACK
6
CONTINUOUS
10
2.1018
20
-6.49477
11
2.09055
21
-6.48915
0
LINE
8
BLACK
6
CONTINUOUS
10
2.09055
20
-6.48915
11
2.08493
21
-6.48352
0
LINE
8
BLACK
6
CONTINUOUS
10
2.08493
20
-6.48352
11
2.0793
21
-6.47227
0
LINE
8
BLACK
6
CONTINUOUS
10
2.0793
20
-6.47227
11
2.07368
21
-6.44978
0
LINE
8
BLACK
6
CONTINUOUS
10
2.07368
20
-6.44978
11
2.07368
21
-6.42165
0
LINE
8
BLACK
6
CONTINUOUS
10
2.07368
20
-6.42165
11
2.0793
21
-6.39916
0
LINE
8
BLACK
6
CONTINUOUS
10
2.0793
20
-6.39916
11
2.08493
21
-6.38791
0
LINE
8
BLACK
6
CONTINUOUS
10
2.08493
20
-6.38791
11
2.09055
21
-6.38228
0
LINE
8
BLACK
6
CONTINUOUS
10
2.09055
20
-6.38228
11
2.1018
21
-6.37666
0
LINE
8
BLACK
6
CONTINUOUS
10
2.19179
20
-6.48352
11
2.19741
21
-6.48915
0
LINE
8
BLACK
6
CONTINUOUS
10
2.19741
20
-6.48915
11
2.19179
21
-6.49477
0
LINE
8
BLACK
6
CONTINUOUS
10
2.19179
20
-6.49477
11
2.18616
21
-6.48915
0
LINE
8
BLACK
6
CONTINUOUS
10
2.18616
20
-6.48915
11
2.19179
21
-6.48352
0
LINE
8
BLACK
6
CONTINUOUS
10
2.19179
20
-6.48352
11
2.19179
21
-6.49477
0
LINE
8
BLACK
6
CONTINUOUS
10
2.30427
20
-6.37666
11
2.24803
21
-6.37666
0
LINE
8
BLACK
6
CONTINUOUS
10
2.24803
20
-6.37666
11
2.24241
21
-6.4329
0
LINE
8
BLACK
6
CONTINUOUS
10
2.24241
20
-6.4329
11
2.24803
21
-6.42728
0
LINE
8
BLACK
6
CONTINUOUS
10
2.24803
20
-6.42728
11
2.25928
21
-6.42165
0
LINE
8
BLACK
6
CONTINUOUS
10
2.25928
20
-6.42165
11
2.2874
21
-6.42165
0
LINE
8
BLACK
6
CONTINUOUS
10
2.2874
20
-6.42165
11
2.29865
21
-6.42728
0
LINE
8
BLACK
6
CONTINUOUS
10
2.29865
20
-6.42728
11
2.30427
21
-6.4329
0
LINE
8
BLACK
6
CONTINUOUS
10
2.30427
20
-6.4329
11
2.3099
21
-6.44415
0
LINE
8
BLACK
6
CONTINUOUS
10
2.3099
20
-6.44415
11
2.3099
21
-6.47227
0
LINE
8
BLACK
6
CONTINUOUS
10
2.3099
20
-6.47227
11
2.30427
21
-6.48352
0
LINE
8
BLACK
6
CONTINUOUS
10
2.30427
20
-6.48352
11
2.29865
21
-6.48915
0
LINE
8
BLACK
6
CONTINUOUS
10
2.29865
20
-6.48915
11
2.2874
21
-6.49477
0
LINE
8
BLACK
6
CONTINUOUS
10
2.2874
20
-6.49477
11
2.25928
21
-6.49477
0
LINE
8
BLACK
6
CONTINUOUS
10
2.25928
20
-6.49477
11
2.24803
21
-6.48915
0
LINE
8
BLACK
6
CONTINUOUS
10
2.24803
20
-6.48915
11
2.24241
21
-6.48352
0
LINE
8
BLACK
6
CONTINUOUS
10
2.38301
20
-6.37666
11
2.39426
21
-6.37666
0
LINE
8
BLACK
6
CONTINUOUS
10
2.39426
20
-6.37666
11
2.40551
21
-6.38228
0
LINE
8
BLACK
6
CONTINUOUS
10
2.40551
20
-6.38228
11
2.41114
21
-6.38791
0
LINE
8
BLACK
6
CONTINUOUS
10
2.41114
20
-6.38791
11
2.41676
21
-6.39916
0
LINE
8
BLACK
6
CONTINUOUS
10
2.41676
20
-6.39916
11
2.42238
21
-6.42165
0
LINE
8
BLACK
6
CONTINUOUS
10
2.42238
20
-6.42165
11
2.42238
21
-6.44978
0
LINE
8
BLACK
6
CONTINUOUS
10
2.42238
20
-6.44978
11
2.41676
21
-6.47227
0
LINE
8
BLACK
6
CONTINUOUS
10
2.41676
20
-6.47227
11
2.41114
21
-6.48352
0
LINE
8
BLACK
6
CONTINUOUS
10
2.41114
20
-6.48352
11
2.40551
21
-6.48915
0
LINE
8
BLACK
6
CONTINUOUS
10
2.40551
20
-6.48915
11
2.39426
21
-6.49477
0
LINE
8
BLACK
6
CONTINUOUS
10
2.39426
20
-6.49477
11
2.38301
21
-6.49477
0
LINE
8
BLACK
6
CONTINUOUS
10
2.38301
20
-6.49477
11
2.37177
21
-6.48915
0
LINE
8
BLACK
6
CONTINUOUS
10
2.37177
20
-6.48915
11
2.36614
21
-6.48352
0
LINE
8
BLACK
6
CONTINUOUS
10
2.36614
20
-6.48352
11
2.36052
21
-6.47227
0
LINE
8
BLACK
6
CONTINUOUS
10
2.36052
20
-6.47227
11
2.35489
21
-6.44978
0
LINE
8
BLACK
6
CONTINUOUS
10
2.35489
20
-6.44978
11
2.35489
21
-6.42165
0
LINE
8
BLACK
6
CONTINUOUS
10
2.35489
20
-6.42165
11
2.36052
21
-6.39916
0
LINE
8
BLACK
6
CONTINUOUS
10
2.36052
20
-6.39916
11
2.36614
21
-6.38791
0
LINE
8
BLACK
6
CONTINUOUS
10
2.36614
20
-6.38791
11
2.37177
21
-6.38228
0
LINE
8
BLACK
6
CONTINUOUS
10
2.37177
20
-6.38228
11
2.38301
21
-6.37666
0
LINE
8
BLACK
6
CONTINUOUS
10
2.4955
20
-6.37666
11
2.50675
21
-6.37666
0
LINE
8
BLACK
6
CONTINUOUS
10
2.50675
20
-6.37666
11
2.518
21
-6.38228
0
LINE
8
BLACK
6
CONTINUOUS
10
2.518
20
-6.38228
11
2.52362
21
-6.38791
0
LINE
8
BLACK
6
CONTINUOUS
10
2.52362
20
-6.38791
11
2.52925
21
-6.39916
0
LINE
8
BLACK
6
CONTINUOUS
10
2.52925
20
-6.39916
11
2.53487
21
-6.42165
0
LINE
8
BLACK
6
CONTINUOUS
10
2.53487
20
-6.42165
11
2.53487
21
-6.44978
0
LINE
8
BLACK
6
CONTINUOUS
10
2.53487
20
-6.44978
11
2.52925
21
-6.47227
0
LINE
8
BLACK
6
CONTINUOUS
10
2.52925
20
-6.47227
11
2.52362
21
-6.48352
0
LINE
8
BLACK
6
CONTINUOUS
10
2.52362
20
-6.48352
11
2.518
21
-6.48915
0
LINE
8
BLACK
6
CONTINUOUS
10
2.518
20
-6.48915
11
2.50675
21
-6.49477
0
LINE
8
BLACK
6
CONTINUOUS
10
2.50675
20
-6.49477
11
2.4955
21
-6.49477
0
LINE
8
BLACK
6
CONTINUOUS
10
2.4955
20
-6.49477
11
2.48425
21
-6.48915
0
LINE
8
BLACK
6
CONTINUOUS
10
2.48425
20
-6.48915
11
2.47863
21
-6.48352
0
LINE
8
BLACK
6
CONTINUOUS
10
2.47863
20
-6.48352
11
2.473
21
-6.47227
0
LINE
8
BLACK
6
CONTINUOUS
10
2.473
20
-6.47227
11
2.46738
21
-6.44978
0
LINE
8
BLACK
6
CONTINUOUS
10
2.46738
20
-6.44978
11
2.46738
21
-6.42165
0
LINE
8
BLACK
6
CONTINUOUS
10
2.46738
20
-6.42165
11
2.473
21
-6.39916
0
LINE
8
BLACK
6
CONTINUOUS
10
2.473
20
-6.39916
11
2.47863
21
-6.38791
0
LINE
8
BLACK
6
CONTINUOUS
10
2.47863
20
-6.38791
11
2.48425
21
-6.38228
0
LINE
8
BLACK
6
CONTINUOUS
10
2.48425
20
-6.38228
11
2.4955
21
-6.37666
0
LINE
8
BLACK
6
CONTINUOUS
10
2.58549
20
-6.49477
11
2.58549
21
-6.41603
0
LINE
8
BLACK
6
CONTINUOUS
10
2.58549
20
-6.42728
11
2.59111
21
-6.42165
0
LINE
8
BLACK
6
CONTINUOUS
10
2.59111
20
-6.42165
11
2.60236
21
-6.41603
0
LINE
8
BLACK
6
CONTINUOUS
10
2.60236
20
-6.41603
11
2.61924
21
-6.41603
0
LINE
8
BLACK
6
CONTINUOUS
10
2.61924
20
-6.41603
11
2.63048
21
-6.42165
0
LINE
8
BLACK
6
CONTINUOUS
10
2.63048
20
-6.42165
11
2.63611
21
-6.4329
0
LINE
8
BLACK
6
CONTINUOUS
10
2.63611
20
-6.4329
11
2.63611
21
-6.49477
0
LINE
8
BLACK
6
CONTINUOUS
10
2.63611
20
-6.4329
11
2.64173
21
-6.42165
0
LINE
8
BLACK
6
CONTINUOUS
10
2.64173
20
-6.42165
11
2.65298
21
-6.41603
0
LINE
8
BLACK
6
CONTINUOUS
10
2.65298
20
-6.41603
11
2.66985
21
-6.41603
0
LINE
8
BLACK
6
CONTINUOUS
10
2.66985
20
-6.41603
11
2.6811
21
-6.42165
0
LINE
8
BLACK
6
CONTINUOUS
10
2.6811
20
-6.42165
11
2.68673
21
-6.4329
0
LINE
8
BLACK
6
CONTINUOUS
10
2.68673
20
-6.4329
11
2.68673
21
-6.49477
0
LINE
8
BLACK
6
CONTINUOUS
10
2.74297
20
-6.49477
11
2.74297
21
-6.41603
0
LINE
8
BLACK
6
CONTINUOUS
10
2.74297
20
-6.42728
11
2.74859
21
-6.42165
0
LINE
8
BLACK
6
CONTINUOUS
10
2.74859
20
-6.42165
11
2.75984
21
-6.41603
0
LINE
8
BLACK
6
CONTINUOUS
10
2.75984
20
-6.41603
11
2.77672
21
-6.41603
0
LINE
8
BLACK
6
CONTINUOUS
10
2.77672
20
-6.41603
11
2.78796
21
-6.42165
0
LINE
8
BLACK
6
CONTINUOUS
10
2.78796
20
-6.42165
11
2.79359
21
-6.4329
0
LINE
8
BLACK
6
CONTINUOUS
10
2.79359
20
-6.4329
11
2.79359
21
-6.49477
0
LINE
8
BLACK
6
CONTINUOUS
10
2.79359
20
-6.4329
11
2.79921
21
-6.42165
0
LINE
8
BLACK
6
CONTINUOUS
10
2.79921
20
-6.42165
11
2.81046
21
-6.41603
0
LINE
8
BLACK
6
CONTINUOUS
10
2.81046
20
-6.41603
11
2.82733
21
-6.41603
0
LINE
8
BLACK
6
CONTINUOUS
10
2.82733
20
-6.41603
11
2.83858
21
-6.42165
0
LINE
8
BLACK
6
CONTINUOUS
10
2.83858
20
-6.42165
11
2.84421
21
-6.4329
0
LINE
8
BLACK
6
CONTINUOUS
10
2.84421
20
-6.4329
11
2.84421
21
-6.49477
0
LINE
8
BLACK
6
CONTINUOUS
10
3.0748
20
-6.37103
11
2.97357
21
-6.52289
0
LINE
8
BLACK
6
CONTINUOUS
10
3.22666
20
-6.37666
11
3.23791
21
-6.37666
0
LINE
8
BLACK
6
CONTINUOUS
10
3.23791
20
-6.37666
11
3.24916
21
-6.38228
0
LINE
8
BLACK
6
CONTINUOUS
10
3.24916
20
-6.38228
11
3.25478
21
-6.38791
0
LINE
8
BLACK
6
CONTINUOUS
10
3.25478
20
-6.38791
11
3.2604
21
-6.39916
0
LINE
8
BLACK
6
CONTINUOUS
10
3.2604
20
-6.39916
11
3.26603
21
-6.42165
0
LINE
8
BLACK
6
CONTINUOUS
10
3.26603
20
-6.42165
11
3.26603
21
-6.44978
0
LINE
8
BLACK
6
CONTINUOUS
10
3.26603
20
-6.44978
11
3.2604
21
-6.47227
0
LINE
8
BLACK
6
CONTINUOUS
10
3.2604
20
-6.47227
11
3.25478
21
-6.48352
0
LINE
8
BLACK
6
CONTINUOUS
10
3.25478
20
-6.48352
11
3.24916
21
-6.48915
0
LINE
8
BLACK
6
CONTINUOUS
10
3.24916
20
-6.48915
11
3.23791
21
-6.49477
0
LINE
8
BLACK
6
CONTINUOUS
10
3.23791
20
-6.49477
11
3.22666
21
-6.49477
0
LINE
8
BLACK
6
CONTINUOUS
10
3.22666
20
-6.49477
11
3.21541
21
-6.48915
0
LINE
8
BLACK
6
CONTINUOUS
10
3.21541
20
-6.48915
11
3.20979
21
-6.48352
0
LINE
8
BLACK
6
CONTINUOUS
10
3.20979
20
-6.48352
11
3.20416
21
-6.47227
0
LINE
8
BLACK
6
CONTINUOUS
10
3.20416
20
-6.47227
11
3.19854
21
-6.44978
0
LINE
8
BLACK
6
CONTINUOUS
10
3.19854
20
-6.44978
11
3.19854
21
-6.42165
0
LINE
8
BLACK
6
CONTINUOUS
10
3.19854
20
-6.42165
11
3.20416
21
-6.39916
0
LINE
8
BLACK
6
CONTINUOUS
10
3.20416
20
-6.39916
11
3.20979
21
-6.38791
0
LINE
8
BLACK
6
CONTINUOUS
10
3.20979
20
-6.38791
11
3.21541
21
-6.38228
0
LINE
8
BLACK
6
CONTINUOUS
10
3.21541
20
-6.38228
11
3.22666
21
-6.37666
0
LINE
8
BLACK
6
CONTINUOUS
10
3.31665
20
-6.48352
11
3.32227
21
-6.48915
0
LINE
8
BLACK
6
CONTINUOUS
10
3.32227
20
-6.48915
11
3.31665
21
-6.49477
0
LINE
8
BLACK
6
CONTINUOUS
10
3.31665
20
-6.49477
11
3.31102
21
-6.48915
0
LINE
8
BLACK
6
CONTINUOUS
10
3.31102
20
-6.48915
11
3.31665
21
-6.48352
0
LINE
8
BLACK
6
CONTINUOUS
10
3.31665
20
-6.48352
11
3.31665
21
-6.49477
0
LINE
8
BLACK
6
CONTINUOUS
10
3.39539
20
-6.37666
11
3.40664
21
-6.37666
0
LINE
8
BLACK
6
CONTINUOUS
10
3.40664
20
-6.37666
11
3.41789
21
-6.38228
0
LINE
8
BLACK
6
CONTINUOUS
10
3.41789
20
-6.38228
11
3.42351
21
-6.38791
0
LINE
8
BLACK
6
CONTINUOUS
10
3.42351
20
-6.38791
11
3.42913
21
-6.39916
0
LINE
8
BLACK
6
CONTINUOUS
10
3.42913
20
-6.39916
11
3.43476
21
-6.42165
0
LINE
8
BLACK
6
CONTINUOUS
10
3.43476
20
-6.42165
11
3.43476
21
-6.44978
0
LINE
8
BLACK
6
CONTINUOUS
10
3.43476
20
-6.44978
11
3.42913
21
-6.47227
0
LINE
8
BLACK
6
CONTINUOUS
10
3.42913
20
-6.47227
11
3.42351
21
-6.48352
0
LINE
8
BLACK
6
CONTINUOUS
10
3.42351
20
-6.48352
11
3.41789
21
-6.48915
0
LINE
8
BLACK
6
CONTINUOUS
10
3.41789
20
-6.48915
11
3.40664
21
-6.49477
0
LINE
8
BLACK
6
CONTINUOUS
10
3.40664
20
-6.49477
11
3.39539
21
-6.49477
0
LINE
8
BLACK
6
CONTINUOUS
10
3.39539
20
-6.49477
11
3.38414
21
-6.48915
0
LINE
8
BLACK
6
CONTINUOUS
10
3.38414
20
-6.48915
11
3.37852
21
-6.48352
0
LINE
8
BLACK
6
CONTINUOUS
10
3.37852
20
-6.48352
11
3.37289
21
-6.47227
0
LINE
8
BLACK
6
CONTINUOUS
10
3.37289
20
-6.47227
11
3.36727
21
-6.44978
0
LINE
8
BLACK
6
CONTINUOUS
10
3.36727
20
-6.44978
11
3.36727
21
-6.42165
0
LINE
8
BLACK
6
CONTINUOUS
10
3.36727
20
-6.42165
11
3.37289
21
-6.39916
0
LINE
8
BLACK
6
CONTINUOUS
10
3.37289
20
-6.39916
11
3.37852
21
-6.38791
0
LINE
8
BLACK
6
CONTINUOUS
10
3.37852
20
-6.38791
11
3.38414
21
-6.38228
0
LINE
8
BLACK
6
CONTINUOUS
10
3.38414
20
-6.38228
11
3.39539
21
-6.37666
0
LINE
8
BLACK
6
CONTINUOUS
10
3.54724
20
-6.49477
11
3.47975
21
-6.49477
0
LINE
8
BLACK
6
CONTINUOUS
10
3.5135
20
-6.49477
11
3.5135
21
-6.37666
0
LINE
8
BLACK
6
CONTINUOUS
10
3.5135
20
-6.37666
11
3.50225
21
-6.39353
0
LINE
8
BLACK
6
CONTINUOUS
10
3.50225
20
-6.39353
11
3.491
21
-6.40478
0
LINE
8
BLACK
6
CONTINUOUS
10
3.491
20
-6.40478
11
3.47975
21
-6.4104
0
LINE
8
BLACK
6
CONTINUOUS
10
3.60349
20
-6.49477
11
3.62598
21
-6.49477
0
LINE
8
BLACK
6
CONTINUOUS
10
3.62598
20
-6.49477
11
3.63723
21
-6.48915
0
LINE
8
BLACK
6
CONTINUOUS
10
3.63723
20
-6.48915
11
3.64286
21
-6.48352
0
LINE
8
BLACK
6
CONTINUOUS
10
3.64286
20
-6.48352
11
3.65411
21
-6.46665
0
LINE
8
BLACK
6
CONTINUOUS
10
3.65411
20
-6.46665
11
3.65973
21
-6.44415
0
LINE
8
BLACK
6
CONTINUOUS
10
3.65973
20
-6.44415
11
3.65973
21
-6.39916
0
LINE
8
BLACK
6
CONTINUOUS
10
3.65973
20
-6.39916
11
3.65411
21
-6.38791
0
LINE
8
BLACK
6
CONTINUOUS
10
3.65411
20
-6.38791
11
3.64848
21
-6.38228
0
LINE
8
BLACK
6
CONTINUOUS
10
3.64848
20
-6.38228
11
3.63723
21
-6.37666
0
LINE
8
BLACK
6
CONTINUOUS
10
3.63723
20
-6.37666
11
3.61474
21
-6.37666
0
LINE
8
BLACK
6
CONTINUOUS
10
3.61474
20
-6.37666
11
3.60349
21
-6.38228
0
LINE
8
BLACK
6
CONTINUOUS
10
3.60349
20
-6.38228
11
3.59786
21
-6.38791
0
LINE
8
BLACK
6
CONTINUOUS
10
3.59786
20
-6.38791
11
3.59224
21
-6.39916
0
LINE
8
BLACK
6
CONTINUOUS
10
3.59224
20
-6.39916
11
3.59224
21
-6.42728
0
LINE
8
BLACK
6
CONTINUOUS
10
3.59224
20
-6.42728
11
3.59786
21
-6.43853
0
LINE
8
BLACK
6
CONTINUOUS
10
3.59786
20
-6.43853
11
3.60349
21
-6.44415
0
LINE
8
BLACK
6
CONTINUOUS
10
3.60349
20
-6.44415
11
3.61474
21
-6.44978
0
LINE
8
BLACK
6
CONTINUOUS
10
3.61474
20
-6.44978
11
3.63723
21
-6.44978
0
LINE
8
BLACK
6
CONTINUOUS
10
3.63723
20
-6.44978
11
3.64848
21
-6.44415
0
LINE
8
BLACK
6
CONTINUOUS
10
3.64848
20
-6.44415
11
3.65411
21
-6.43853
0
LINE
8
BLACK
6
CONTINUOUS
10
3.65411
20
-6.43853
11
3.65973
21
-6.42728
0
LINE
8
BLACK
6
CONTINUOUS
10
3.6991
20
-6.37666
11
3.77784
21
-6.37666
0
LINE
8
BLACK
6
CONTINUOUS
10
3.77784
20
-6.37666
11
3.72722
21
-6.49477
0
LINE
8
BLACK
6
CONTINUOUS
10
3.81721
20
-6.37666
11
3.81721
21
-6.39916
0
LINE
8
BLACK
6
CONTINUOUS
10
3.8622
20
-6.37666
11
3.8622
21
-6.39916
0
LINE
8
BLACK
6
CONTINUOUS
10
4.03656
20
-6.53976
11
4.03093
21
-6.53414
0
LINE
8
BLACK
6
CONTINUOUS
10
4.03093
20
-6.53414
11
4.01968
21
-6.51727
0
LINE
8
BLACK
6
CONTINUOUS
10
4.01968
20
-6.51727
11
4.01406
21
-6.50602
0
LINE
8
BLACK
6
CONTINUOUS
10
4.01406
20
-6.50602
11
4.00844
21
-6.48915
0
LINE
8
BLACK
6
CONTINUOUS
10
4.00844
20
-6.48915
11
4.00281
21
-6.46102
0
LINE
8
BLACK
6
CONTINUOUS
10
4.00281
20
-6.46102
11
4.00281
21
-6.43853
0
LINE
8
BLACK
6
CONTINUOUS
10
4.00281
20
-6.43853
11
4.00844
21
-6.4104
0
LINE
8
BLACK
6
CONTINUOUS
10
4.00844
20
-6.4104
11
4.01406
21
-6.39353
0
LINE
8
BLACK
6
CONTINUOUS
10
4.01406
20
-6.39353
11
4.01968
21
-6.38228
0
LINE
8
BLACK
6
CONTINUOUS
10
4.01968
20
-6.38228
11
4.03093
21
-6.36541
0
LINE
8
BLACK
6
CONTINUOUS
10
4.03093
20
-6.36541
11
4.03656
21
-6.35979
0
LINE
8
BLACK
6
CONTINUOUS
10
4.13217
20
-6.41603
11
4.13217
21
-6.49477
0
LINE
8
BLACK
6
CONTINUOUS
10
4.10405
20
-6.37103
11
4.07593
21
-6.4554
0
LINE
8
BLACK
6
CONTINUOUS
10
4.07593
20
-6.4554
11
4.14904
21
-6.4554
0
LINE
8
BLACK
6
CONTINUOUS
10
4.21091
20
-6.42728
11
4.19966
21
-6.42165
0
LINE
8
BLACK
6
CONTINUOUS
10
4.19966
20
-6.42165
11
4.19404
21
-6.41603
0
LINE
8
BLACK
6
CONTINUOUS
10
4.19404
20
-6.41603
11
4.18841
21
-6.40478
0
LINE
8
BLACK
6
CONTINUOUS
10
4.18841
20
-6.40478
11
4.18841
21
-6.39916
0
LINE
8
BLACK
6
CONTINUOUS
10
4.18841
20
-6.39916
11
4.19404
21
-6.38791
0
LINE
8
BLACK
6
CONTINUOUS
10
4.19404
20
-6.38791
11
4.19966
21
-6.38228
0
LINE
8
BLACK
6
CONTINUOUS
10
4.19966
20
-6.38228
11
4.21091
21
-6.37666
0
LINE
8
BLACK
6
CONTINUOUS
10
4.21091
20
-6.37666
11
4.23341
21
-6.37666
0
LINE
8
BLACK
6
CONTINUOUS
10
4.23341
20
-6.37666
11
4.24466
21
-6.38228
0
LINE
8
BLACK
6
CONTINUOUS
10
4.24466
20
-6.38228
11
4.25028
21
-6.38791
0
LINE
8
BLACK
6
CONTINUOUS
10
4.25028
20
-6.38791
11
4.25591
21
-6.39916
0
LINE
8
BLACK
6
CONTINUOUS
10
4.25591
20
-6.39916
11
4.25591
21
-6.40478
0
LINE
8
BLACK
6
CONTINUOUS
10
4.25591
20
-6.40478
11
4.25028
21
-6.41603
0
LINE
8
BLACK
6
CONTINUOUS
10
4.25028
20
-6.41603
11
4.24466
21
-6.42165
0
LINE
8
BLACK
6
CONTINUOUS
10
4.24466
20
-6.42165
11
4.23341
21
-6.42728
0
LINE
8
BLACK
6
CONTINUOUS
10
4.23341
20
-6.42728
11
4.21091
21
-6.42728
0
LINE
8
BLACK
6
CONTINUOUS
10
4.21091
20
-6.42728
11
4.19966
21
-6.4329
0
LINE
8
BLACK
6
CONTINUOUS
10
4.19966
20
-6.4329
11
4.19404
21
-6.43853
0
LINE
8
BLACK
6
CONTINUOUS
10
4.19404
20
-6.43853
11
4.18841
21
-6.44978
0
LINE
8
BLACK
6
CONTINUOUS
10
4.18841
20
-6.44978
11
4.18841
21
-6.47227
0
LINE
8
BLACK
6
CONTINUOUS
10
4.18841
20
-6.47227
11
4.19404
21
-6.48352
0
LINE
8
BLACK
6
CONTINUOUS
10
4.19404
20
-6.48352
11
4.19966
21
-6.48915
0
LINE
8
BLACK
6
CONTINUOUS
10
4.19966
20
-6.48915
11
4.21091
21
-6.49477
0
LINE
8
BLACK
6
CONTINUOUS
10
4.21091
20
-6.49477
11
4.23341
21
-6.49477
0
LINE
8
BLACK
6
CONTINUOUS
10
4.23341
20
-6.49477
11
4.24466
21
-6.48915
0
LINE
8
BLACK
6
CONTINUOUS
10
4.24466
20
-6.48915
11
4.25028
21
-6.48352
0
LINE
8
BLACK
6
CONTINUOUS
10
4.25028
20
-6.48352
11
4.25591
21
-6.47227
0
LINE
8
BLACK
6
CONTINUOUS
10
4.25591
20
-6.47227
11
4.25591
21
-6.44978
0
LINE
8
BLACK
6
CONTINUOUS
10
4.25591
20
-6.44978
11
4.25028
21
-6.43853
0
LINE
8
BLACK
6
CONTINUOUS
10
4.25028
20
-6.43853
11
4.24466
21
-6.4329
0
LINE
8
BLACK
6
CONTINUOUS
10
4.24466
20
-6.4329
11
4.23341
21
-6.42728
0
LINE
8
BLACK
6
CONTINUOUS
10
4.39651
20
-6.49477
11
4.39651
21
-6.37666
0
LINE
8
BLACK
6
CONTINUOUS
10
4.44713
20
-6.49477
11
4.44713
21
-6.4329
0
LINE
8
BLACK
6
CONTINUOUS
10
4.44713
20
-6.4329
11
4.44151
21
-6.42165
0
LINE
8
BLACK
6
CONTINUOUS
10
4.44151
20
-6.42165
11
4.43026
21
-6.41603
0
LINE
8
BLACK
6
CONTINUOUS
10
4.43026
20
-6.41603
11
4.41339
21
-6.41603
0
LINE
8
BLACK
6
CONTINUOUS
10
4.41339
20
-6.41603
11
4.40214
21
-6.42165
0
LINE
8
BLACK
6
CONTINUOUS
10
4.40214
20
-6.42165
11
4.39651
21
-6.42728
0
LINE
8
BLACK
6
CONTINUOUS
10
4.52025
20
-6.49477
11
4.509
21
-6.48915
0
LINE
8
BLACK
6
CONTINUOUS
10
4.509
20
-6.48915
11
4.50337
21
-6.48352
0
LINE
8
BLACK
6
CONTINUOUS
10
4.50337
20
-6.48352
11
4.49775
21
-6.47227
0
LINE
8
BLACK
6
CONTINUOUS
10
4.49775
20
-6.47227
11
4.49775
21
-6.43853
0
LINE
8
BLACK
6
CONTINUOUS
10
4.49775
20
-6.43853
11
4.50337
21
-6.42728
0
LINE
8
BLACK
6
CONTINUOUS
10
4.50337
20
-6.42728
11
4.509
21
-6.42165
0
LINE
8
BLACK
6
CONTINUOUS
10
4.509
20
-6.42165
11
4.52025
21
-6.41603
0
LINE
8
BLACK
6
CONTINUOUS
10
4.52025
20
-6.41603
11
4.53712
21
-6.41603
0
LINE
8
BLACK
6
CONTINUOUS
10
4.53712
20
-6.41603
11
4.54837
21
-6.42165
0
LINE
8
BLACK
6
CONTINUOUS
10
4.54837
20
-6.42165
11
4.55399
21
-6.42728
0
LINE
8
BLACK
6
CONTINUOUS
10
4.55399
20
-6.42728
11
4.55962
21
-6.43853
0
LINE
8
BLACK
6
CONTINUOUS
10
4.55962
20
-6.43853
11
4.55962
21
-6.47227
0
LINE
8
BLACK
6
CONTINUOUS
10
4.55962
20
-6.47227
11
4.55399
21
-6.48352
0
LINE
8
BLACK
6
CONTINUOUS
10
4.55399
20
-6.48352
11
4.54837
21
-6.48915
0
LINE
8
BLACK
6
CONTINUOUS
10
4.54837
20
-6.48915
11
4.53712
21
-6.49477
0
LINE
8
BLACK
6
CONTINUOUS
10
4.53712
20
-6.49477
11
4.52025
21
-6.49477
0
LINE
8
BLACK
6
CONTINUOUS
10
4.62711
20
-6.49477
11
4.61586
21
-6.48915
0
LINE
8
BLACK
6
CONTINUOUS
10
4.61586
20
-6.48915
11
4.61024
21
-6.4779
0
LINE
8
BLACK
6
CONTINUOUS
10
4.61024
20
-6.4779
11
4.61024
21
-6.37666
0
LINE
8
BLACK
6
CONTINUOUS
10
4.7171
20
-6.48915
11
4.70585
21
-6.49477
0
LINE
8
BLACK
6
CONTINUOUS
10
4.70585
20
-6.49477
11
4.68335
21
-6.49477
0
LINE
8
BLACK
6
CONTINUOUS
10
4.68335
20
-6.49477
11
4.6721
21
-6.48915
0
LINE
8
BLACK
6
CONTINUOUS
10
4.6721
20
-6.48915
11
4.66648
21
-6.4779
0
LINE
8
BLACK
6
CONTINUOUS
10
4.66648
20
-6.4779
11
4.66648
21
-6.4329
0
LINE
8
BLACK
6
CONTINUOUS
10
4.66648
20
-6.4329
11
4.6721
21
-6.42165
0
LINE
8
BLACK
6
CONTINUOUS
10
4.6721
20
-6.42165
11
4.68335
21
-6.41603
0
LINE
8
BLACK
6
CONTINUOUS
10
4.68335
20
-6.41603
11
4.70585
21
-6.41603
0
LINE
8
BLACK
6
CONTINUOUS
10
4.70585
20
-6.41603
11
4.7171
21
-6.42165
0
LINE
8
BLACK
6
CONTINUOUS
10
4.7171
20
-6.42165
11
4.72272
21
-6.4329
0
LINE
8
BLACK
6
CONTINUOUS
10
4.72272
20
-6.4329
11
4.72272
21
-6.44415
0
LINE
8
BLACK
6
CONTINUOUS
10
4.72272
20
-6.44415
11
4.66648
21
-6.4554
0
LINE
8
BLACK
6
CONTINUOUS
10
4.76772
20
-6.48915
11
4.77897
21
-6.49477
0
LINE
8
BLACK
6
CONTINUOUS
10
4.77897
20
-6.49477
11
4.80146
21
-6.49477
0
LINE
8
BLACK
6
CONTINUOUS
10
4.80146
20
-6.49477
11
4.81271
21
-6.48915
0
LINE
8
BLACK
6
CONTINUOUS
10
4.81271
20
-6.48915
11
4.81834
21
-6.4779
0
LINE
8
BLACK
6
CONTINUOUS
10
4.81834
20
-6.4779
11
4.81834
21
-6.47227
0
LINE
8
BLACK
6
CONTINUOUS
10
4.81834
20
-6.47227
11
4.81271
21
-6.46102
0
LINE
8
BLACK
6
CONTINUOUS
10
4.81271
20
-6.46102
11
4.80146
21
-6.4554
0
LINE
8
BLACK
6
CONTINUOUS
10
4.80146
20
-6.4554
11
4.78459
21
-6.4554
0
LINE
8
BLACK
6
CONTINUOUS
10
4.78459
20
-6.4554
11
4.77334
21
-6.44978
0
LINE
8
BLACK
6
CONTINUOUS
10
4.77334
20
-6.44978
11
4.76772
21
-6.43853
0
LINE
8
BLACK
6
CONTINUOUS
10
4.76772
20
-6.43853
11
4.76772
21
-6.4329
0
LINE
8
BLACK
6
CONTINUOUS
10
4.76772
20
-6.4329
11
4.77334
21
-6.42165
0
LINE
8
BLACK
6
CONTINUOUS
10
4.77334
20
-6.42165
11
4.78459
21
-6.41603
0
LINE
8
BLACK
6
CONTINUOUS
10
4.78459
20
-6.41603
11
4.80146
21
-6.41603
0
LINE
8
BLACK
6
CONTINUOUS
10
4.80146
20
-6.41603
11
4.81271
21
-6.42165
0
LINE
8
BLACK
6
CONTINUOUS
10
4.85771
20
-6.53976
11
4.86333
21
-6.53414
0
LINE
8
BLACK
6
CONTINUOUS
10
4.86333
20
-6.53414
11
4.87458
21
-6.51727
0
LINE
8
BLACK
6
CONTINUOUS
10
4.87458
20
-6.51727
11
4.8802
21
-6.50602
0
LINE
8
BLACK
6
CONTINUOUS
10
4.8802
20
-6.50602
11
4.88583
21
-6.48915
0
LINE
8
BLACK
6
CONTINUOUS
10
4.88583
20
-6.48915
11
4.89145
21
-6.46102
0
LINE
8
BLACK
6
CONTINUOUS
10
4.89145
20
-6.46102
11
4.89145
21
-6.43853
0
LINE
8
BLACK
6
CONTINUOUS
10
4.89145
20
-6.43853
11
4.88583
21
-6.4104
0
LINE
8
BLACK
6
CONTINUOUS
10
4.88583
20
-6.4104
11
4.8802
21
-6.39353
0
LINE
8
BLACK
6
CONTINUOUS
10
4.8802
20
-6.39353
11
4.87458
21
-6.38228
0
LINE
8
BLACK
6
CONTINUOUS
10
4.87458
20
-6.38228
11
4.86333
21
-6.36541
0
LINE
8
BLACK
6
CONTINUOUS
10
4.86333
20
-6.36541
11
4.85771
21
-6.35979
0
LINE
8
BLACK
6
CONTINUOUS
10
1.95079
20
-6.5815
11
1.95079
21
-6.61299
0
LINE
8
BLACK
6
CONTINUOUS
10
1.93504
20
-6.59724
11
1.96654
21
-6.59724
0
LINE
8
BLACK
6
CONTINUOUS
10
2.1018
20
-6.53256
11
2.11305
21
-6.53256
0
LINE
8
BLACK
6
CONTINUOUS
10
2.11305
20
-6.53256
11
2.1243
21
-6.53819
0
LINE
8
BLACK
6
CONTINUOUS
10
2.1243
20
-6.53819
11
2.12992
21
-6.54381
0
LINE
8
BLACK
6
CONTINUOUS
10
2.12992
20
-6.54381
11
2.13555
21
-6.55506
0
LINE
8
BLACK
6
CONTINUOUS
10
2.13555
20
-6.55506
11
2.14117
21
-6.57756
0
LINE
8
BLACK
6
CONTINUOUS
10
2.14117
20
-6.57756
11
2.14117
21
-6.60568
0
LINE
8
BLACK
6
CONTINUOUS
10
2.14117
20
-6.60568
11
2.13555
21
-6.62818
0
LINE
8
BLACK
6
CONTINUOUS
10
2.13555
20
-6.62818
11
2.12992
21
-6.63943
0
LINE
8
BLACK
6
CONTINUOUS
10
2.12992
20
-6.63943
11
2.1243
21
-6.64505
0
LINE
8
BLACK
6
CONTINUOUS
10
2.1243
20
-6.64505
11
2.11305
21
-6.65067
0
LINE
8
BLACK
6
CONTINUOUS
10
2.11305
20
-6.65067
11
2.1018
21
-6.65067
0
LINE
8
BLACK
6
CONTINUOUS
10
2.1018
20
-6.65067
11
2.09055
21
-6.64505
0
LINE
8
BLACK
6
CONTINUOUS
10
2.09055
20
-6.64505
11
2.08493
21
-6.63943
0
LINE
8
BLACK
6
CONTINUOUS
10
2.08493
20
-6.63943
11
2.0793
21
-6.62818
0
LINE
8
BLACK
6
CONTINUOUS
10
2.0793
20
-6.62818
11
2.07368
21
-6.60568
0
LINE
8
BLACK
6
CONTINUOUS
10
2.07368
20
-6.60568
11
2.07368
21
-6.57756
0
LINE
8
BLACK
6
CONTINUOUS
10
2.07368
20
-6.57756
11
2.0793
21
-6.55506
0
LINE
8
BLACK
6
CONTINUOUS
10
2.0793
20
-6.55506
11
2.08493
21
-6.54381
0
LINE
8
BLACK
6
CONTINUOUS
10
2.08493
20
-6.54381
11
2.09055
21
-6.53819
0
LINE
8
BLACK
6
CONTINUOUS
10
2.09055
20
-6.53819
11
2.1018
21
-6.53256
0
LINE
8
BLACK
6
CONTINUOUS
10
2.19179
20
-6.63943
11
2.19741
21
-6.64505
0
LINE
8
BLACK
6
CONTINUOUS
10
2.19741
20
-6.64505
11
2.19179
21
-6.65067
0
LINE
8
BLACK
6
CONTINUOUS
10
2.19179
20
-6.65067
11
2.18616
21
-6.64505
0
LINE
8
BLACK
6
CONTINUOUS
10
2.18616
20
-6.64505
11
2.19179
21
-6.63943
0
LINE
8
BLACK
6
CONTINUOUS
10
2.19179
20
-6.63943
11
2.19179
21
-6.65067
0
LINE
8
BLACK
6
CONTINUOUS
10
2.2649
20
-6.58318
11
2.25366
21
-6.57756
0
LINE
8
BLACK
6
CONTINUOUS
10
2.25366
20
-6.57756
11
2.24803
21
-6.57193
0
LINE
8
BLACK
6
CONTINUOUS
10
2.24803
20
-6.57193
11
2.24241
21
-6.56069
0
LINE
8
BLACK
6
CONTINUOUS
10
2.24241
20
-6.56069
11
2.24241
21
-6.55506
0
LINE
8
BLACK
6
CONTINUOUS
10
2.24241
20
-6.55506
11
2.24803
21
-6.54381
0
LINE
8
BLACK
6
CONTINUOUS
10
2.24803
20
-6.54381
11
2.25366
21
-6.53819
0
LINE
8
BLACK
6
CONTINUOUS
10
2.25366
20
-6.53819
11
2.2649
21
-6.53256
0
LINE
8
BLACK
6
CONTINUOUS
10
2.2649
20
-6.53256
11
2.2874
21
-6.53256
0
LINE
8
BLACK
6
CONTINUOUS
10
2.2874
20
-6.53256
11
2.29865
21
-6.53819
0
LINE
8
BLACK
6
CONTINUOUS
10
2.29865
20
-6.53819
11
2.30427
21
-6.54381
0
LINE
8
BLACK
6
CONTINUOUS
10
2.30427
20
-6.54381
11
2.3099
21
-6.55506
0
LINE
8
BLACK
6
CONTINUOUS
10
2.3099
20
-6.55506
11
2.3099
21
-6.56069
0
LINE
8
BLACK
6
CONTINUOUS
10
2.3099
20
-6.56069
11
2.30427
21
-6.57193
0
LINE
8
BLACK
6
CONTINUOUS
10
2.30427
20
-6.57193
11
2.29865
21
-6.57756
0
LINE
8
BLACK
6
CONTINUOUS
10
2.29865
20
-6.57756
11
2.2874
21
-6.58318
0
LINE
8
BLACK
6
CONTINUOUS
10
2.2874
20
-6.58318
11
2.2649
21
-6.58318
0
LINE
8
BLACK
6
CONTINUOUS
10
2.2649
20
-6.58318
11
2.25366
21
-6.58881
0
LINE
8
BLACK
6
CONTINUOUS
10
2.25366
20
-6.58881
11
2.24803
21
-6.59443
0
LINE
8
BLACK
6
CONTINUOUS
10
2.24803
20
-6.59443
11
2.24241
21
-6.60568
0
LINE
8
BLACK
6
CONTINUOUS
10
2.24241
20
-6.60568
11
2.24241
21
-6.62818
0
LINE
8
BLACK
6
CONTINUOUS
10
2.24241
20
-6.62818
11
2.24803
21
-6.63943
0
LINE
8
BLACK
6
CONTINUOUS
10
2.24803
20
-6.63943
11
2.25366
21
-6.64505
0
LINE
8
BLACK
6
CONTINUOUS
10
2.25366
20
-6.64505
11
2.2649
21
-6.65067
0
LINE
8
BLACK
6
CONTINUOUS
10
2.2649
20
-6.65067
11
2.2874
21
-6.65067
0
LINE
8
BLACK
6
CONTINUOUS
10
2.2874
20
-6.65067
11
2.29865
21
-6.64505
0
LINE
8
BLACK
6
CONTINUOUS
10
2.29865
20
-6.64505
11
2.30427
21
-6.63943
0
LINE
8
BLACK
6
CONTINUOUS
10
2.30427
20
-6.63943
11
2.3099
21
-6.62818
0
LINE
8
BLACK
6
CONTINUOUS
10
2.3099
20
-6.62818
11
2.3099
21
-6.60568
0
LINE
8
BLACK
6
CONTINUOUS
10
2.3099
20
-6.60568
11
2.30427
21
-6.59443
0
LINE
8
BLACK
6
CONTINUOUS
10
2.30427
20
-6.59443
11
2.29865
21
-6.58881
0
LINE
8
BLACK
6
CONTINUOUS
10
2.29865
20
-6.58881
11
2.2874
21
-6.58318
0
LINE
8
BLACK
6
CONTINUOUS
10
2.38301
20
-6.53256
11
2.39426
21
-6.53256
0
LINE
8
BLACK
6
CONTINUOUS
10
2.39426
20
-6.53256
11
2.40551
21
-6.53819
0
LINE
8
BLACK
6
CONTINUOUS
10
2.40551
20
-6.53819
11
2.41114
21
-6.54381
0
LINE
8
BLACK
6
CONTINUOUS
10
2.41114
20
-6.54381
11
2.41676
21
-6.55506
0
LINE
8
BLACK
6
CONTINUOUS
10
2.41676
20
-6.55506
11
2.42238
21
-6.57756
0
LINE
8
BLACK
6
CONTINUOUS
10
2.42238
20
-6.57756
11
2.42238
21
-6.60568
0
LINE
8
BLACK
6
CONTINUOUS
10
2.42238
20
-6.60568
11
2.41676
21
-6.62818
0
LINE
8
BLACK
6
CONTINUOUS
10
2.41676
20
-6.62818
11
2.41114
21
-6.63943
0
LINE
8
BLACK
6
CONTINUOUS
10
2.41114
20
-6.63943
11
2.40551
21
-6.64505
0
LINE
8
BLACK
6
CONTINUOUS
10
2.40551
20
-6.64505
11
2.39426
21
-6.65067
0
LINE
8
BLACK
6
CONTINUOUS
10
2.39426
20
-6.65067
11
2.38301
21
-6.65067
0
LINE
8
BLACK
6
CONTINUOUS
10
2.38301
20
-6.65067
11
2.37177
21
-6.64505
0
LINE
8
BLACK
6
CONTINUOUS
10
2.37177
20
-6.64505
11
2.36614
21
-6.63943
0
LINE
8
BLACK
6
CONTINUOUS
10
2.36614
20
-6.63943
11
2.36052
21
-6.62818
0
LINE
8
BLACK
6
CONTINUOUS
10
2.36052
20
-6.62818
11
2.35489
21
-6.60568
0
LINE
8
BLACK
6
CONTINUOUS
10
2.35489
20
-6.60568
11
2.35489
21
-6.57756
0
LINE
8
BLACK
6
CONTINUOUS
10
2.35489
20
-6.57756
11
2.36052
21
-6.55506
0
LINE
8
BLACK
6
CONTINUOUS
10
2.36052
20
-6.55506
11
2.36614
21
-6.54381
0
LINE
8
BLACK
6
CONTINUOUS
10
2.36614
20
-6.54381
11
2.37177
21
-6.53819
0
LINE
8
BLACK
6
CONTINUOUS
10
2.37177
20
-6.53819
11
2.38301
21
-6.53256
0
LINE
8
BLACK
6
CONTINUOUS
10
2.4955
20
-6.53256
11
2.50675
21
-6.53256
0
LINE
8
BLACK
6
CONTINUOUS
10
2.50675
20
-6.53256
11
2.518
21
-6.53819
0
LINE
8
BLACK
6
CONTINUOUS
10
2.518
20
-6.53819
11
2.52362
21
-6.54381
0
LINE
8
BLACK
6
CONTINUOUS
10
2.52362
20
-6.54381
11
2.52925
21
-6.55506
0
LINE
8
BLACK
6
CONTINUOUS
10
2.52925
20
-6.55506
11
2.53487
21
-6.57756
0
LINE
8
BLACK
6
CONTINUOUS
10
2.53487
20
-6.57756
11
2.53487
21
-6.60568
0
LINE
8
BLACK
6
CONTINUOUS
10
2.53487
20
-6.60568
11
2.52925
21
-6.62818
0
LINE
8
BLACK
6
CONTINUOUS
10
2.52925
20
-6.62818
11
2.52362
21
-6.63943
0
LINE
8
BLACK
6
CONTINUOUS
10
2.52362
20
-6.63943
11
2.518
21
-6.64505
0
LINE
8
BLACK
6
CONTINUOUS
10
2.518
20
-6.64505
11
2.50675
21
-6.65067
0
LINE
8
BLACK
6
CONTINUOUS
10
2.50675
20
-6.65067
11
2.4955
21
-6.65067
0
LINE
8
BLACK
6
CONTINUOUS
10
2.4955
20
-6.65067
11
2.48425
21
-6.64505
0
LINE
8
BLACK
6
CONTINUOUS
10
2.48425
20
-6.64505
11
2.47863
21
-6.63943
0
LINE
8
BLACK
6
CONTINUOUS
10
2.47863
20
-6.63943
11
2.473
21
-6.62818
0
LINE
8
BLACK
6
CONTINUOUS
10
2.473
20
-6.62818
11
2.46738
21
-6.60568
0
LINE
8
BLACK
6
CONTINUOUS
10
2.46738
20
-6.60568
11
2.46738
21
-6.57756
0
LINE
8
BLACK
6
CONTINUOUS
10
2.46738
20
-6.57756
11
2.473
21
-6.55506
0
LINE
8
BLACK
6
CONTINUOUS
10
2.473
20
-6.55506
11
2.47863
21
-6.54381
0
LINE
8
BLACK
6
CONTINUOUS
10
2.47863
20
-6.54381
11
2.48425
21
-6.53819
0
LINE
8
BLACK
6
CONTINUOUS
10
2.48425
20
-6.53819
11
2.4955
21
-6.53256
0
LINE
8
BLACK
6
CONTINUOUS
10
2.58549
20
-6.65067
11
2.58549
21
-6.57193
0
LINE
8
BLACK
6
CONTINUOUS
10
2.58549
20
-6.58318
11
2.59111
21
-6.57756
0
LINE
8
BLACK
6
CONTINUOUS
10
2.59111
20
-6.57756
11
2.60236
21
-6.57193
0
LINE
8
BLACK
6
CONTINUOUS
10
2.60236
20
-6.57193
11
2.61924
21
-6.57193
0
LINE
8
BLACK
6
CONTINUOUS
10
2.61924
20
-6.57193
11
2.63048
21
-6.57756
0
LINE
8
BLACK
6
CONTINUOUS
10
2.63048
20
-6.57756
11
2.63611
21
-6.58881
0
LINE
8
BLACK
6
CONTINUOUS
10
2.63611
20
-6.58881
11
2.63611
21
-6.65067
0
LINE
8
BLACK
6
CONTINUOUS
10
2.63611
20
-6.58881
11
2.64173
21
-6.57756
0
LINE
8
BLACK
6
CONTINUOUS
10
2.64173
20
-6.57756
11
2.65298
21
-6.57193
0
LINE
8
BLACK
6
CONTINUOUS
10
2.65298
20
-6.57193
11
2.66985
21
-6.57193
0
LINE
8
BLACK
6
CONTINUOUS
10
2.66985
20
-6.57193
11
2.6811
21
-6.57756
0
LINE
8
BLACK
6
CONTINUOUS
10
2.6811
20
-6.57756
11
2.68673
21
-6.58881
0
LINE
8
BLACK
6
CONTINUOUS
10
2.68673
20
-6.58881
11
2.68673
21
-6.65067
0
LINE
8
BLACK
6
CONTINUOUS
10
2.74297
20
-6.65067
11
2.74297
21
-6.57193
0
LINE
8
BLACK
6
CONTINUOUS
10
2.74297
20
-6.58318
11
2.74859
21
-6.57756
0
LINE
8
BLACK
6
CONTINUOUS
10
2.74859
20
-6.57756
11
2.75984
21
-6.57193
0
LINE
8
BLACK
6
CONTINUOUS
10
2.75984
20
-6.57193
11
2.77672
21
-6.57193
0
LINE
8
BLACK
6
CONTINUOUS
10
2.77672
20
-6.57193
11
2.78796
21
-6.57756
0
LINE
8
BLACK
6
CONTINUOUS
10
2.78796
20
-6.57756
11
2.79359
21
-6.58881
0
LINE
8
BLACK
6
CONTINUOUS
10
2.79359
20
-6.58881
11
2.79359
21
-6.65067
0
LINE
8
BLACK
6
CONTINUOUS
10
2.79359
20
-6.58881
11
2.79921
21
-6.57756
0
LINE
8
BLACK
6
CONTINUOUS
10
2.79921
20
-6.57756
11
2.81046
21
-6.57193
0
LINE
8
BLACK
6
CONTINUOUS
10
2.81046
20
-6.57193
11
2.82733
21
-6.57193
0
LINE
8
BLACK
6
CONTINUOUS
10
2.82733
20
-6.57193
11
2.83858
21
-6.57756
0
LINE
8
BLACK
6
CONTINUOUS
10
2.83858
20
-6.57756
11
2.84421
21
-6.58881
0
LINE
8
BLACK
6
CONTINUOUS
10
2.84421
20
-6.58881
11
2.84421
21
-6.65067
0
LINE
8
BLACK
6
CONTINUOUS
10
3.0748
20
-6.52694
11
2.97357
21
-6.6788
0
LINE
8
BLACK
6
CONTINUOUS
10
3.22666
20
-6.53256
11
3.23791
21
-6.53256
0
LINE
8
BLACK
6
CONTINUOUS
10
3.23791
20
-6.53256
11
3.24916
21
-6.53819
0
LINE
8
BLACK
6
CONTINUOUS
10
3.24916
20
-6.53819
11
3.25478
21
-6.54381
0
LINE
8
BLACK
6
CONTINUOUS
10
3.25478
20
-6.54381
11
3.2604
21
-6.55506
0
LINE
8
BLACK
6
CONTINUOUS
10
3.2604
20
-6.55506
11
3.26603
21
-6.57756
0
LINE
8
BLACK
6
CONTINUOUS
10
3.26603
20
-6.57756
11
3.26603
21
-6.60568
0
LINE
8
BLACK
6
CONTINUOUS
10
3.26603
20
-6.60568
11
3.2604
21
-6.62818
0
LINE
8
BLACK
6
CONTINUOUS
10
3.2604
20
-6.62818
11
3.25478
21
-6.63943
0
LINE
8
BLACK
6
CONTINUOUS
10
3.25478
20
-6.63943
11
3.24916
21
-6.64505
0
LINE
8
BLACK
6
CONTINUOUS
10
3.24916
20
-6.64505
11
3.23791
21
-6.65067
0
LINE
8
BLACK
6
CONTINUOUS
10
3.23791
20
-6.65067
11
3.22666
21
-6.65067
0
LINE
8
BLACK
6
CONTINUOUS
10
3.22666
20
-6.65067
11
3.21541
21
-6.64505
0
LINE
8
BLACK
6
CONTINUOUS
10
3.21541
20
-6.64505
11
3.20979
21
-6.63943
0
LINE
8
BLACK
6
CONTINUOUS
10
3.20979
20
-6.63943
11
3.20416
21
-6.62818
0
LINE
8
BLACK
6
CONTINUOUS
10
3.20416
20
-6.62818
11
3.19854
21
-6.60568
0
LINE
8
BLACK
6
CONTINUOUS
10
3.19854
20
-6.60568
11
3.19854
21
-6.57756
0
LINE
8
BLACK
6
CONTINUOUS
10
3.19854
20
-6.57756
11
3.20416
21
-6.55506
0
LINE
8
BLACK
6
CONTINUOUS
10
3.20416
20
-6.55506
11
3.20979
21
-6.54381
0
LINE
8
BLACK
6
CONTINUOUS
10
3.20979
20
-6.54381
11
3.21541
21
-6.53819
0
LINE
8
BLACK
6
CONTINUOUS
10
3.21541
20
-6.53819
11
3.22666
21
-6.53256
0
LINE
8
BLACK
6
CONTINUOUS
10
3.31665
20
-6.63943
11
3.32227
21
-6.64505
0
LINE
8
BLACK
6
CONTINUOUS
10
3.32227
20
-6.64505
11
3.31665
21
-6.65067
0
LINE
8
BLACK
6
CONTINUOUS
10
3.31665
20
-6.65067
11
3.31102
21
-6.64505
0
LINE
8
BLACK
6
CONTINUOUS
10
3.31102
20
-6.64505
11
3.31665
21
-6.63943
0
LINE
8
BLACK
6
CONTINUOUS
10
3.31665
20
-6.63943
11
3.31665
21
-6.65067
0
LINE
8
BLACK
6
CONTINUOUS
10
3.39539
20
-6.53256
11
3.40664
21
-6.53256
0
LINE
8
BLACK
6
CONTINUOUS
10
3.40664
20
-6.53256
11
3.41789
21
-6.53819
0
LINE
8
BLACK
6
CONTINUOUS
10
3.41789
20
-6.53819
11
3.42351
21
-6.54381
0
LINE
8
BLACK
6
CONTINUOUS
10
3.42351
20
-6.54381
11
3.42913
21
-6.55506
0
LINE
8
BLACK
6
CONTINUOUS
10
3.42913
20
-6.55506
11
3.43476
21
-6.57756
0
LINE
8
BLACK
6
CONTINUOUS
10
3.43476
20
-6.57756
11
3.43476
21
-6.60568
0
LINE
8
BLACK
6
CONTINUOUS
10
3.43476
20
-6.60568
11
3.42913
21
-6.62818
0
LINE
8
BLACK
6
CONTINUOUS
10
3.42913
20
-6.62818
11
3.42351
21
-6.63943
0
LINE
8
BLACK
6
CONTINUOUS
10
3.42351
20
-6.63943
11
3.41789
21
-6.64505
0
LINE
8
BLACK
6
CONTINUOUS
10
3.41789
20
-6.64505
11
3.40664
21
-6.65067
0
LINE
8
BLACK
6
CONTINUOUS
10
3.40664
20
-6.65067
11
3.39539
21
-6.65067
0
LINE
8
BLACK
6
CONTINUOUS
10
3.39539
20
-6.65067
11
3.38414
21
-6.64505
0
LINE
8
BLACK
6
CONTINUOUS
10
3.38414
20
-6.64505
11
3.37852
21
-6.63943
0
LINE
8
BLACK
6
CONTINUOUS
10
3.37852
20
-6.63943
11
3.37289
21
-6.62818
0
LINE
8
BLACK
6
CONTINUOUS
10
3.37289
20
-6.62818
11
3.36727
21
-6.60568
0
LINE
8
BLACK
6
CONTINUOUS
10
3.36727
20
-6.60568
11
3.36727
21
-6.57756
0
LINE
8
BLACK
6
CONTINUOUS
10
3.36727
20
-6.57756
11
3.37289
21
-6.55506
0
LINE
8
BLACK
6
CONTINUOUS
10
3.37289
20
-6.55506
11
3.37852
21
-6.54381
0
LINE
8
BLACK
6
CONTINUOUS
10
3.37852
20
-6.54381
11
3.38414
21
-6.53819
0
LINE
8
BLACK
6
CONTINUOUS
10
3.38414
20
-6.53819
11
3.39539
21
-6.53256
0
LINE
8
BLACK
6
CONTINUOUS
10
3.47413
20
-6.53256
11
3.54724
21
-6.53256
0
LINE
8
BLACK
6
CONTINUOUS
10
3.54724
20
-6.53256
11
3.50787
21
-6.57756
0
LINE
8
BLACK
6
CONTINUOUS
10
3.50787
20
-6.57756
11
3.52475
21
-6.57756
0
LINE
8
BLACK
6
CONTINUOUS
10
3.52475
20
-6.57756
11
3.536
21
-6.58318
0
LINE
8
BLACK
6
CONTINUOUS
10
3.536
20
-6.58318
11
3.54162
21
-6.58881
0
LINE
8
BLACK
6
CONTINUOUS
10
3.54162
20
-6.58881
11
3.54724
21
-6.60006
0
LINE
8
BLACK
6
CONTINUOUS
10
3.54724
20
-6.60006
11
3.54724
21
-6.62818
0
LINE
8
BLACK
6
CONTINUOUS
10
3.54724
20
-6.62818
11
3.54162
21
-6.63943
0
LINE
8
BLACK
6
CONTINUOUS
10
3.54162
20
-6.63943
11
3.536
21
-6.64505
0
LINE
8
BLACK
6
CONTINUOUS
10
3.536
20
-6.64505
11
3.52475
21
-6.65067
0
LINE
8
BLACK
6
CONTINUOUS
10
3.52475
20
-6.65067
11
3.491
21
-6.65067
0
LINE
8
BLACK
6
CONTINUOUS
10
3.491
20
-6.65067
11
3.47975
21
-6.64505
0
LINE
8
BLACK
6
CONTINUOUS
10
3.47975
20
-6.64505
11
3.47413
21
-6.63943
0
LINE
8
BLACK
6
CONTINUOUS
10
3.65973
20
-6.65067
11
3.59224
21
-6.65067
0
LINE
8
BLACK
6
CONTINUOUS
10
3.62598
20
-6.65067
11
3.62598
21
-6.53256
0
LINE
8
BLACK
6
CONTINUOUS
10
3.62598
20
-6.53256
11
3.61474
21
-6.54944
0
LINE
8
BLACK
6
CONTINUOUS
10
3.61474
20
-6.54944
11
3.60349
21
-6.56069
0
LINE
8
BLACK
6
CONTINUOUS
10
3.60349
20
-6.56069
11
3.59224
21
-6.56631
0
LINE
8
BLACK
6
CONTINUOUS
10
3.76659
20
-6.53256
11
3.71035
21
-6.53256
0
LINE
8
BLACK
6
CONTINUOUS
10
3.71035
20
-6.53256
11
3.70472
21
-6.58881
0
LINE
8
BLACK
6
CONTINUOUS
10
3.70472
20
-6.58881
11
3.71035
21
-6.58318
0
LINE
8
BLACK
6
CONTINUOUS
10
3.71035
20
-6.58318
11
3.7216
21
-6.57756
0
LINE
8
BLACK
6
CONTINUOUS
10
3.7216
20
-6.57756
11
3.74972
21
-6.57756
0
LINE
8
BLACK
6
CONTINUOUS
10
3.74972
20
-6.57756
11
3.76097
21
-6.58318
0
LINE
8
BLACK
6
CONTINUOUS
10
3.76097
20
-6.58318
11
3.76659
21
-6.58881
0
LINE
8
BLACK
6
CONTINUOUS
10
3.76659
20
-6.58881
11
3.77222
21
-6.60006
0
LINE
8
BLACK
6
CONTINUOUS
10
3.77222
20
-6.60006
11
3.77222
21
-6.62818
0
LINE
8
BLACK
6
CONTINUOUS
10
3.77222
20
-6.62818
11
3.76659
21
-6.63943
0
LINE
8
BLACK
6
CONTINUOUS
10
3.76659
20
-6.63943
11
3.76097
21
-6.64505
0
LINE
8
BLACK
6
CONTINUOUS
10
3.76097
20
-6.64505
11
3.74972
21
-6.65067
0
LINE
8
BLACK
6
CONTINUOUS
10
3.74972
20
-6.65067
11
3.7216
21
-6.65067
0
LINE
8
BLACK
6
CONTINUOUS
10
3.7216
20
-6.65067
11
3.71035
21
-6.64505
0
LINE
8
BLACK
6
CONTINUOUS
10
3.71035
20
-6.64505
11
3.70472
21
-6.63943
0
LINE
8
BLACK
6
CONTINUOUS
10
3.81721
20
-6.53256
11
3.81721
21
-6.55506
0
LINE
8
BLACK
6
CONTINUOUS
10
3.8622
20
-6.53256
11
3.8622
21
-6.55506
0
LINE
8
BLACK
6
CONTINUOUS
10
4.03656
20
-6.69567
11
4.03093
21
-6.69004
0
LINE
8
BLACK
6
CONTINUOUS
10
4.03093
20
-6.69004
11
4.01968
21
-6.67317
0
LINE
8
BLACK
6
CONTINUOUS
10
4.01968
20
-6.67317
11
4.01406
21
-6.66192
0
LINE
8
BLACK
6
CONTINUOUS
10
4.01406
20
-6.66192
11
4.00844
21
-6.64505
0
LINE
8
BLACK
6
CONTINUOUS
10
4.00844
20
-6.64505
11
4.00281
21
-6.61693
0
LINE
8
BLACK
6
CONTINUOUS
10
4.00281
20
-6.61693
11
4.00281
21
-6.59443
0
LINE
8
BLACK
6
CONTINUOUS
10
4.00281
20
-6.59443
11
4.00844
21
-6.56631
0
LINE
8
BLACK
6
CONTINUOUS
10
4.00844
20
-6.56631
11
4.01406
21
-6.54944
0
LINE
8
BLACK
6
CONTINUOUS
10
4.01406
20
-6.54944
11
4.01968
21
-6.53819
0
LINE
8
BLACK
6
CONTINUOUS
10
4.01968
20
-6.53819
11
4.03093
21
-6.52132
0
LINE
8
BLACK
6
CONTINUOUS
10
4.03093
20
-6.52132
11
4.03656
21
-6.51569
0
LINE
8
BLACK
6
CONTINUOUS
10
4.07593
20
-6.54381
11
4.08155
21
-6.53819
0
LINE
8
BLACK
6
CONTINUOUS
10
4.08155
20
-6.53819
11
4.0928
21
-6.53256
0
LINE
8
BLACK
6
CONTINUOUS
10
4.0928
20
-6.53256
11
4.12092
21
-6.53256
0
LINE
8
BLACK
6
CONTINUOUS
10
4.12092
20
-6.53256
11
4.13217
21
-6.53819
0
LINE
8
BLACK
6
CONTINUOUS
10
4.13217
20
-6.53819
11
4.1378
21
-6.54381
0
LINE
8
BLACK
6
CONTINUOUS
10
4.1378
20
-6.54381
11
4.14342
21
-6.55506
0
LINE
8
BLACK
6
CONTINUOUS
10
4.14342
20
-6.55506
11
4.14342
21
-6.56631
0
LINE
8
BLACK
6
CONTINUOUS
10
4.14342
20
-6.56631
11
4.1378
21
-6.58318
0
LINE
8
BLACK
6
CONTINUOUS
10
4.1378
20
-6.58318
11
4.0703
21
-6.65067
0
LINE
8
BLACK
6
CONTINUOUS
10
4.0703
20
-6.65067
11
4.14342
21
-6.65067
0
LINE
8
BLACK
6
CONTINUOUS
10
4.25591
20
-6.65067
11
4.18841
21
-6.65067
0
LINE
8
BLACK
6
CONTINUOUS
10
4.22216
20
-6.65067
11
4.22216
21
-6.53256
0
LINE
8
BLACK
6
CONTINUOUS
10
4.22216
20
-6.53256
11
4.21091
21
-6.54944
0
LINE
8
BLACK
6
CONTINUOUS
10
4.21091
20
-6.54944
11
4.19966
21
-6.56069
0
LINE
8
BLACK
6
CONTINUOUS
10
4.19966
20
-6.56069
11
4.18841
21
-6.56631
0
LINE
8
BLACK
6
CONTINUOUS
10
4.31215
20
-6.65067
11
4.33465
21
-6.65067
0
LINE
8
BLACK
6
CONTINUOUS
10
4.33465
20
-6.65067
11
4.34589
21
-6.64505
0
LINE
8
BLACK
6
CONTINUOUS
10
4.34589
20
-6.64505
11
4.35152
21
-6.63943
0
LINE
8
BLACK
6
CONTINUOUS
10
4.35152
20
-6.63943
11
4.36277
21
-6.62255
0
LINE
8
BLACK
6
CONTINUOUS
10
4.36277
20
-6.62255
11
4.36839
21
-6.60006
0
LINE
8
BLACK
6
CONTINUOUS
10
4.36839
20
-6.60006
11
4.36839
21
-6.55506
0
LINE
8
BLACK
6
CONTINUOUS
10
4.36839
20
-6.55506
11
4.36277
21
-6.54381
0
LINE
8
BLACK
6
CONTINUOUS
10
4.36277
20
-6.54381
11
4.35714
21
-6.53819
0
LINE
8
BLACK
6
CONTINUOUS
10
4.35714
20
-6.53819
11
4.34589
21
-6.53256
0
LINE
8
BLACK
6
CONTINUOUS
10
4.34589
20
-6.53256
11
4.3234
21
-6.53256
0
LINE
8
BLACK
6
CONTINUOUS
10
4.3234
20
-6.53256
11
4.31215
21
-6.53819
0
LINE
8
BLACK
6
CONTINUOUS
10
4.31215
20
-6.53819
11
4.30652
21
-6.54381
0
LINE
8
BLACK
6
CONTINUOUS
10
4.30652
20
-6.54381
11
4.3009
21
-6.55506
0
LINE
8
BLACK
6
CONTINUOUS
10
4.3009
20
-6.55506
11
4.3009
21
-6.58318
0
LINE
8
BLACK
6
CONTINUOUS
10
4.3009
20
-6.58318
11
4.30652
21
-6.59443
0
LINE
8
BLACK
6
CONTINUOUS
10
4.30652
20
-6.59443
11
4.31215
21
-6.60006
0
LINE
8
BLACK
6
CONTINUOUS
10
4.31215
20
-6.60006
11
4.3234
21
-6.60568
0
LINE
8
BLACK
6
CONTINUOUS
10
4.3234
20
-6.60568
11
4.34589
21
-6.60568
0
LINE
8
BLACK
6
CONTINUOUS
10
4.34589
20
-6.60568
11
4.35714
21
-6.60006
0
LINE
8
BLACK
6
CONTINUOUS
10
4.35714
20
-6.60006
11
4.36277
21
-6.59443
0
LINE
8
BLACK
6
CONTINUOUS
10
4.36277
20
-6.59443
11
4.36839
21
-6.58318
0
LINE
8
BLACK
6
CONTINUOUS
10
4.509
20
-6.65067
11
4.509
21
-6.53256
0
LINE
8
BLACK
6
CONTINUOUS
10
4.55962
20
-6.65067
11
4.55962
21
-6.58881
0
LINE
8
BLACK
6
CONTINUOUS
10
4.55962
20
-6.58881
11
4.55399
21
-6.57756
0
LINE
8
BLACK
6
CONTINUOUS
10
4.55399
20
-6.57756
11
4.54274
21
-6.57193
0
LINE
8
BLACK
6
CONTINUOUS
10
4.54274
20
-6.57193
11
4.52587
21
-6.57193
0
LINE
8
BLACK
6
CONTINUOUS
10
4.52587
20
-6.57193
11
4.51462
21
-6.57756
0
LINE
8
BLACK
6
CONTINUOUS
10
4.51462
20
-6.57756
11
4.509
21
-6.58318
0
LINE
8
BLACK
6
CONTINUOUS
10
4.63273
20
-6.65067
11
4.62148
21
-6.64505
0
LINE
8
BLACK
6
CONTINUOUS
10
4.62148
20
-6.64505
11
4.61586
21
-6.63943
0
LINE
8
BLACK
6
CONTINUOUS
10
4.61586
20
-6.63943
11
4.61024
21
-6.62818
0
LINE
8
BLACK
6
CONTINUOUS
10
4.61024
20
-6.62818
11
4.61024
21
-6.59443
0
LINE
8
BLACK
6
CONTINUOUS
10
4.61024
20
-6.59443
11
4.61586
21
-6.58318
0
LINE
8
BLACK
6
CONTINUOUS
10
4.61586
20
-6.58318
11
4.62148
21
-6.57756
0
LINE
8
BLACK
6
CONTINUOUS
10
4.62148
20
-6.57756
11
4.63273
21
-6.57193
0
LINE
8
BLACK
6
CONTINUOUS
10
4.63273
20
-6.57193
11
4.64961
21
-6.57193
0
LINE
8
BLACK
6
CONTINUOUS
10
4.64961
20
-6.57193
11
4.66085
21
-6.57756
0
LINE
8
BLACK
6
CONTINUOUS
10
4.66085
20
-6.57756
11
4.66648
21
-6.58318
0
LINE
8
BLACK
6
CONTINUOUS
10
4.66648
20
-6.58318
11
4.6721
21
-6.59443
0
LINE
8
BLACK
6
CONTINUOUS
10
4.6721
20
-6.59443
11
4.6721
21
-6.62818
0
LINE
8
BLACK
6
CONTINUOUS
10
4.6721
20
-6.62818
11
4.66648
21
-6.63943
0
LINE
8
BLACK
6
CONTINUOUS
10
4.66648
20
-6.63943
11
4.66085
21
-6.64505
0
LINE
8
BLACK
6
CONTINUOUS
10
4.66085
20
-6.64505
11
4.64961
21
-6.65067
0
LINE
8
BLACK
6
CONTINUOUS
10
4.64961
20
-6.65067
11
4.63273
21
-6.65067
0
LINE
8
BLACK
6
CONTINUOUS
10
4.73959
20
-6.65067
11
4.72835
21
-6.64505
0
LINE
8
BLACK
6
CONTINUOUS
10
4.72835
20
-6.64505
11
4.72272
21
-6.6338
0
LINE
8
BLACK
6
CONTINUOUS
10
4.72272
20
-6.6338
11
4.72272
21
-6.53256
0
LINE
8
BLACK
6
CONTINUOUS
10
4.82958
20
-6.64505
11
4.81834
21
-6.65067
0
LINE
8
BLACK
6
CONTINUOUS
10
4.81834
20
-6.65067
11
4.79584
21
-6.65067
0
LINE
8
BLACK
6
CONTINUOUS
10
4.79584
20
-6.65067
11
4.78459
21
-6.64505
0
LINE
8
BLACK
6
CONTINUOUS
10
4.78459
20
-6.64505
11
4.77897
21
-6.6338
0
LINE
8
BLACK
6
CONTINUOUS
10
4.77897
20
-6.6338
11
4.77897
21
-6.58881
0
LINE
8
BLACK
6
CONTINUOUS
10
4.77897
20
-6.58881
11
4.78459
21
-6.57756
0
LINE
8
BLACK
6
CONTINUOUS
10
4.78459
20
-6.57756
11
4.79584
21
-6.57193
0
LINE
8
BLACK
6
CONTINUOUS
10
4.79584
20
-6.57193
11
4.81834
21
-6.57193
0
LINE
8
BLACK
6
CONTINUOUS
10
4.81834
20
-6.57193
11
4.82958
21
-6.57756
0
LINE
8
BLACK
6
CONTINUOUS
10
4.82958
20
-6.57756
11
4.83521
21
-6.58881
0
LINE
8
BLACK
6
CONTINUOUS
10
4.83521
20
-6.58881
11
4.83521
21
-6.60006
0
LINE
8
BLACK
6
CONTINUOUS
10
4.83521
20
-6.60006
11
4.77897
21
-6.6113
0
LINE
8
BLACK
6
CONTINUOUS
10
4.8802
20
-6.64505
11
4.89145
21
-6.65067
0
LINE
8
BLACK
6
CONTINUOUS
10
4.89145
20
-6.65067
11
4.91395
21
-6.65067
0
LINE
8
BLACK
6
CONTINUOUS
10
4.91395
20
-6.65067
11
4.9252
21
-6.64505
0
LINE
8
BLACK
6
CONTINUOUS
10
4.9252
20
-6.64505
11
4.93082
21
-6.6338
0
LINE
8
BLACK
6
CONTINUOUS
10
4.93082
20
-6.6338
11
4.93082
21
-6.62818
0
LINE
8
BLACK
6
CONTINUOUS
10
4.93082
20
-6.62818
11
4.9252
21
-6.61693
0
LINE
8
BLACK
6
CONTINUOUS
10
4.9252
20
-6.61693
11
4.91395
21
-6.6113
0
LINE
8
BLACK
6
CONTINUOUS
10
4.91395
20
-6.6113
11
4.89708
21
-6.6113
0
LINE
8
BLACK
6
CONTINUOUS
10
4.89708
20
-6.6113
11
4.88583
21
-6.60568
0
LINE
8
BLACK
6
CONTINUOUS
10
4.88583
20
-6.60568
11
4.8802
21
-6.59443
0
LINE
8
BLACK
6
CONTINUOUS
10
4.8802
20
-6.59443
11
4.8802
21
-6.58881
0
LINE
8
BLACK
6
CONTINUOUS
10
4.8802
20
-6.58881
11
4.88583
21
-6.57756
0
LINE
8
BLACK
6
CONTINUOUS
10
4.88583
20
-6.57756
11
4.89708
21
-6.57193
0
LINE
8
BLACK
6
CONTINUOUS
10
4.89708
20
-6.57193
11
4.91395
21
-6.57193
0
LINE
8
BLACK
6
CONTINUOUS
10
4.91395
20
-6.57193
11
4.9252
21
-6.57756
0
LINE
8
BLACK
6
CONTINUOUS
10
4.97019
20
-6.69567
11
4.97582
21
-6.69004
0
LINE
8
BLACK
6
CONTINUOUS
10
4.97582
20
-6.69004
11
4.98706
21
-6.67317
0
LINE
8
BLACK
6
CONTINUOUS
10
4.98706
20
-6.67317
11
4.99269
21
-6.66192
0
LINE
8
BLACK
6
CONTINUOUS
10
4.99269
20
-6.66192
11
4.99831
21
-6.64505
0
LINE
8
BLACK
6
CONTINUOUS
10
4.99831
20
-6.64505
11
5.00394
21
-6.61693
0
LINE
8
BLACK
6
CONTINUOUS
10
5.00394
20
-6.61693
11
5.00394
21
-6.59443
0
LINE
8
BLACK
6
CONTINUOUS
10
5.00394
20
-6.59443
11
4.99831
21
-6.56631
0
LINE
8
BLACK
6
CONTINUOUS
10
4.99831
20
-6.56631
11
4.99269
21
-6.54944
0
LINE
8
BLACK
6
CONTINUOUS
10
4.99269
20
-6.54944
11
4.98706
21
-6.53819
0
LINE
8
BLACK
6
CONTINUOUS
10
4.98706
20
-6.53819
11
4.97582
21
-6.52132
0
LINE
8
BLACK
6
CONTINUOUS
10
4.97582
20
-6.52132
11
4.97019
21
-6.51569
0
LINE
8
BLACK
6
CONTINUOUS
10
1.96135
20
-6.76568
11
1.96135
21
-6.74062
0
LINE
8
BLACK
6
CONTINUOUS
10
1.96135
20
-6.74062
11
1.93629
21
-6.74062
0
LINE
8
BLACK
6
CONTINUOUS
10
1.93629
20
-6.74062
11
1.93629
21
-6.76568
0
LINE
8
BLACK
6
CONTINUOUS
10
1.93629
20
-6.76568
11
1.96135
21
-6.76568
0
LINE
8
BLACK
6
CONTINUOUS
10
2.1018
20
-6.68847
11
2.11305
21
-6.68847
0
LINE
8
BLACK
6
CONTINUOUS
10
2.11305
20
-6.68847
11
2.1243
21
-6.69409
0
LINE
8
BLACK
6
CONTINUOUS
10
2.1243
20
-6.69409
11
2.12992
21
-6.69972
0
LINE
8
BLACK
6
CONTINUOUS
10
2.12992
20
-6.69972
11
2.13555
21
-6.71097
0
LINE
8
BLACK
6
CONTINUOUS
10
2.13555
20
-6.71097
11
2.14117
21
-6.73346
0
LINE
8
BLACK
6
CONTINUOUS
10
2.14117
20
-6.73346
11
2.14117
21
-6.76159
0
LINE
8
BLACK
6
CONTINUOUS
10
2.14117
20
-6.76159
11
2.13555
21
-6.78408
0
LINE
8
BLACK
6
CONTINUOUS
10
2.13555
20
-6.78408
11
2.12992
21
-6.79533
0
LINE
8
BLACK
6
CONTINUOUS
10
2.12992
20
-6.79533
11
2.1243
21
-6.80096
0
LINE
8
BLACK
6
CONTINUOUS
10
2.1243
20
-6.80096
11
2.11305
21
-6.80658
0
LINE
8
BLACK
6
CONTINUOUS
10
2.11305
20
-6.80658
11
2.1018
21
-6.80658
0
LINE
8
BLACK
6
CONTINUOUS
10
2.1018
20
-6.80658
11
2.09055
21
-6.80096
0
LINE
8
BLACK
6
CONTINUOUS
10
2.09055
20
-6.80096
11
2.08493
21
-6.79533
0
LINE
8
BLACK
6
CONTINUOUS
10
2.08493
20
-6.79533
11
2.0793
21
-6.78408
0
LINE
8
BLACK
6
CONTINUOUS
10
2.0793
20
-6.78408
11
2.07368
21
-6.76159
0
LINE
8
BLACK
6
CONTINUOUS
10
2.07368
20
-6.76159
11
2.07368
21
-6.73346
0
LINE
8
BLACK
6
CONTINUOUS
10
2.07368
20
-6.73346
11
2.0793
21
-6.71097
0
LINE
8
BLACK
6
CONTINUOUS
10
2.0793
20
-6.71097
11
2.08493
21
-6.69972
0
LINE
8
BLACK
6
CONTINUOUS
10
2.08493
20
-6.69972
11
2.09055
21
-6.69409
0
LINE
8
BLACK
6
CONTINUOUS
10
2.09055
20
-6.69409
11
2.1018
21
-6.68847
0
LINE
8
BLACK
6
CONTINUOUS
10
2.19179
20
-6.79533
11
2.19741
21
-6.80096
0
LINE
8
BLACK
6
CONTINUOUS
10
2.19741
20
-6.80096
11
2.19179
21
-6.80658
0
LINE
8
BLACK
6
CONTINUOUS
10
2.19179
20
-6.80658
11
2.18616
21
-6.80096
0
LINE
8
BLACK
6
CONTINUOUS
10
2.18616
20
-6.80096
11
2.19179
21
-6.79533
0
LINE
8
BLACK
6
CONTINUOUS
10
2.19179
20
-6.79533
11
2.19179
21
-6.80658
0
LINE
8
BLACK
6
CONTINUOUS
10
2.25366
20
-6.80658
11
2.27615
21
-6.80658
0
LINE
8
BLACK
6
CONTINUOUS
10
2.27615
20
-6.80658
11
2.2874
21
-6.80096
0
LINE
8
BLACK
6
CONTINUOUS
10
2.2874
20
-6.80096
11
2.29303
21
-6.79533
0
LINE
8
BLACK
6
CONTINUOUS
10
2.29303
20
-6.79533
11
2.30427
21
-6.77846
0
LINE
8
BLACK
6
CONTINUOUS
10
2.30427
20
-6.77846
11
2.3099
21
-6.75596
0
LINE
8
BLACK
6
CONTINUOUS
10
2.3099
20
-6.75596
11
2.3099
21
-6.71097
0
LINE
8
BLACK
6
CONTINUOUS
10
2.3099
20
-6.71097
11
2.30427
21
-6.69972
0
LINE
8
BLACK
6
CONTINUOUS
10
2.30427
20
-6.69972
11
2.29865
21
-6.69409
0
LINE
8
BLACK
6
CONTINUOUS
10
2.29865
20
-6.69409
11
2.2874
21
-6.68847
0
LINE
8
BLACK
6
CONTINUOUS
10
2.2874
20
-6.68847
11
2.2649
21
-6.68847
0
LINE
8
BLACK
6
CONTINUOUS
10
2.2649
20
-6.68847
11
2.25366
21
-6.69409
0
LINE
8
BLACK
6
CONTINUOUS
10
2.25366
20
-6.69409
11
2.24803
21
-6.69972
0
LINE
8
BLACK
6
CONTINUOUS
10
2.24803
20
-6.69972
11
2.24241
21
-6.71097
0
LINE
8
BLACK
6
CONTINUOUS
10
2.24241
20
-6.71097
11
2.24241
21
-6.73909
0
LINE
8
BLACK
6
CONTINUOUS
10
2.24241
20
-6.73909
11
2.24803
21
-6.75034
0
LINE
8
BLACK
6
CONTINUOUS
10
2.24803
20
-6.75034
11
2.25366
21
-6.75596
0
LINE
8
BLACK
6
CONTINUOUS
10
2.25366
20
-6.75596
11
2.2649
21
-6.76159
0
LINE
8
BLACK
6
CONTINUOUS
10
2.2649
20
-6.76159
11
2.2874
21
-6.76159
0
LINE
8
BLACK
6
CONTINUOUS
10
2.2874
20
-6.76159
11
2.29865
21
-6.75596
0
LINE
8
BLACK
6
CONTINUOUS
10
2.29865
20
-6.75596
11
2.30427
21
-6.75034
0
LINE
8
BLACK
6
CONTINUOUS
10
2.30427
20
-6.75034
11
2.3099
21
-6.73909
0
LINE
8
BLACK
6
CONTINUOUS
10
2.38301
20
-6.68847
11
2.39426
21
-6.68847
0
LINE
8
BLACK
6
CONTINUOUS
10
2.39426
20
-6.68847
11
2.40551
21
-6.69409
0
LINE
8
BLACK
6
CONTINUOUS
10
2.40551
20
-6.69409
11
2.41114
21
-6.69972
0
LINE
8
BLACK
6
CONTINUOUS
10
2.41114
20
-6.69972
11
2.41676
21
-6.71097
0
LINE
8
BLACK
6
CONTINUOUS
10
2.41676
20
-6.71097
11
2.42238
21
-6.73346
0
LINE
8
BLACK
6
CONTINUOUS
10
2.42238
20
-6.73346
11
2.42238
21
-6.76159
0
LINE
8
BLACK
6
CONTINUOUS
10
2.42238
20
-6.76159
11
2.41676
21
-6.78408
0
LINE
8
BLACK
6
CONTINUOUS
10
2.41676
20
-6.78408
11
2.41114
21
-6.79533
0
LINE
8
BLACK
6
CONTINUOUS
10
2.41114
20
-6.79533
11
2.40551
21
-6.80096
0
LINE
8
BLACK
6
CONTINUOUS
10
2.40551
20
-6.80096
11
2.39426
21
-6.80658
0
LINE
8
BLACK
6
CONTINUOUS
10
2.39426
20
-6.80658
11
2.38301
21
-6.80658
0
LINE
8
BLACK
6
CONTINUOUS
10
2.38301
20
-6.80658
11
2.37177
21
-6.80096
0
LINE
8
BLACK
6
CONTINUOUS
10
2.37177
20
-6.80096
11
2.36614
21
-6.79533
0
LINE
8
BLACK
6
CONTINUOUS
10
2.36614
20
-6.79533
11
2.36052
21
-6.78408
0
LINE
8
BLACK
6
CONTINUOUS
10
2.36052
20
-6.78408
11
2.35489
21
-6.76159
0
LINE
8
BLACK
6
CONTINUOUS
10
2.35489
20
-6.76159
11
2.35489
21
-6.73346
0
LINE
8
BLACK
6
CONTINUOUS
10
2.35489
20
-6.73346
11
2.36052
21
-6.71097
0
LINE
8
BLACK
6
CONTINUOUS
10
2.36052
20
-6.71097
11
2.36614
21
-6.69972
0
LINE
8
BLACK
6
CONTINUOUS
10
2.36614
20
-6.69972
11
2.37177
21
-6.69409
0
LINE
8
BLACK
6
CONTINUOUS
10
2.37177
20
-6.69409
11
2.38301
21
-6.68847
0
LINE
8
BLACK
6
CONTINUOUS
10
2.4955
20
-6.68847
11
2.50675
21
-6.68847
0
LINE
8
BLACK
6
CONTINUOUS
10
2.50675
20
-6.68847
11
2.518
21
-6.69409
0
LINE
8
BLACK
6
CONTINUOUS
10
2.518
20
-6.69409
11
2.52362
21
-6.69972
0
LINE
8
BLACK
6
CONTINUOUS
10
2.52362
20
-6.69972
11
2.52925
21
-6.71097
0
LINE
8
BLACK
6
CONTINUOUS
10
2.52925
20
-6.71097
11
2.53487
21
-6.73346
0
LINE
8
BLACK
6
CONTINUOUS
10
2.53487
20
-6.73346
11
2.53487
21
-6.76159
0
LINE
8
BLACK
6
CONTINUOUS
10
2.53487
20
-6.76159
11
2.52925
21
-6.78408
0
LINE
8
BLACK
6
CONTINUOUS
10
2.52925
20
-6.78408
11
2.52362
21
-6.79533
0
LINE
8
BLACK
6
CONTINUOUS
10
2.52362
20
-6.79533
11
2.518
21
-6.80096
0
LINE
8
BLACK
6
CONTINUOUS
10
2.518
20
-6.80096
11
2.50675
21
-6.80658
0
LINE
8
BLACK
6
CONTINUOUS
10
2.50675
20
-6.80658
11
2.4955
21
-6.80658
0
LINE
8
BLACK
6
CONTINUOUS
10
2.4955
20
-6.80658
11
2.48425
21
-6.80096
0
LINE
8
BLACK
6
CONTINUOUS
10
2.48425
20
-6.80096
11
2.47863
21
-6.79533
0
LINE
8
BLACK
6
CONTINUOUS
10
2.47863
20
-6.79533
11
2.473
21
-6.78408
0
LINE
8
BLACK
6
CONTINUOUS
10
2.473
20
-6.78408
11
2.46738
21
-6.76159
0
LINE
8
BLACK
6
CONTINUOUS
10
2.46738
20
-6.76159
11
2.46738
21
-6.73346
0
LINE
8
BLACK
6
CONTINUOUS
10
2.46738
20
-6.73346
11
2.473
21
-6.71097
0
LINE
8
BLACK
6
CONTINUOUS
10
2.473
20
-6.71097
11
2.47863
21
-6.69972
0
LINE
8
BLACK
6
CONTINUOUS
10
2.47863
20
-6.69972
11
2.48425
21
-6.69409
0
LINE
8
BLACK
6
CONTINUOUS
10
2.48425
20
-6.69409
11
2.4955
21
-6.68847
0
LINE
8
BLACK
6
CONTINUOUS
10
2.58549
20
-6.80658
11
2.58549
21
-6.72784
0
LINE
8
BLACK
6
CONTINUOUS
10
2.58549
20
-6.73909
11
2.59111
21
-6.73346
0
LINE
8
BLACK
6
CONTINUOUS
10
2.59111
20
-6.73346
11
2.60236
21
-6.72784
0
LINE
8
BLACK
6
CONTINUOUS
10
2.60236
20
-6.72784
11
2.61924
21
-6.72784
0
LINE
8
BLACK
6
CONTINUOUS
10
2.61924
20
-6.72784
11
2.63048
21
-6.73346
0
LINE
8
BLACK
6
CONTINUOUS
10
2.63048
20
-6.73346
11
2.63611
21
-6.74471
0
LINE
8
BLACK
6
CONTINUOUS
10
2.63611
20
-6.74471
11
2.63611
21
-6.80658
0
LINE
8
BLACK
6
CONTINUOUS
10
2.63611
20
-6.74471
11
2.64173
21
-6.73346
0
LINE
8
BLACK
6
CONTINUOUS
10
2.64173
20
-6.73346
11
2.65298
21
-6.72784
0
LINE
8
BLACK
6
CONTINUOUS
10
2.65298
20
-6.72784
11
2.66985
21
-6.72784
0
LINE
8
BLACK
6
CONTINUOUS
10
2.66985
20
-6.72784
11
2.6811
21
-6.73346
0
LINE
8
BLACK
6
CONTINUOUS
10
2.6811
20
-6.73346
11
2.68673
21
-6.74471
0
LINE
8
BLACK
6
CONTINUOUS
10
2.68673
20
-6.74471
11
2.68673
21
-6.80658
0
LINE
8
BLACK
6
CONTINUOUS
10
2.74297
20
-6.80658
11
2.74297
21
-6.72784
0
LINE
8
BLACK
6
CONTINUOUS
10
2.74297
20
-6.73909
11
2.74859
21
-6.73346
0
LINE
8
BLACK
6
CONTINUOUS
10
2.74859
20
-6.73346
11
2.75984
21
-6.72784
0
LINE
8
BLACK
6
CONTINUOUS
10
2.75984
20
-6.72784
11
2.77672
21
-6.72784
0
LINE
8
BLACK
6
CONTINUOUS
10
2.77672
20
-6.72784
11
2.78796
21
-6.73346
0
LINE
8
BLACK
6
CONTINUOUS
10
2.78796
20
-6.73346
11
2.79359
21
-6.74471
0
LINE
8
BLACK
6
CONTINUOUS
10
2.79359
20
-6.74471
11
2.79359
21
-6.80658
0
LINE
8
BLACK
6
CONTINUOUS
10
2.79359
20
-6.74471
11
2.79921
21
-6.73346
0
LINE
8
BLACK
6
CONTINUOUS
10
2.79921
20
-6.73346
11
2.81046
21
-6.72784
0
LINE
8
BLACK
6
CONTINUOUS
10
2.81046
20
-6.72784
11
2.82733
21
-6.72784
0
LINE
8
BLACK
6
CONTINUOUS
10
2.82733
20
-6.72784
11
2.83858
21
-6.73346
0
LINE
8
BLACK
6
CONTINUOUS
10
2.83858
20
-6.73346
11
2.84421
21
-6.74471
0
LINE
8
BLACK
6
CONTINUOUS
10
2.84421
20
-6.74471
11
2.84421
21
-6.80658
0
LINE
8
BLACK
6
CONTINUOUS
10
3.0748
20
-6.68285
11
2.97357
21
-6.8347
0
LINE
8
BLACK
6
CONTINUOUS
10
3.22666
20
-6.68847
11
3.23791
21
-6.68847
0
LINE
8
BLACK
6
CONTINUOUS
10
3.23791
20
-6.68847
11
3.24916
21
-6.69409
0
LINE
8
BLACK
6
CONTINUOUS
10
3.24916
20
-6.69409
11
3.25478
21
-6.69972
0
LINE
8
BLACK
6
CONTINUOUS
10
3.25478
20
-6.69972
11
3.2604
21
-6.71097
0
LINE
8
BLACK
6
CONTINUOUS
10
3.2604
20
-6.71097
11
3.26603
21
-6.73346
0
LINE
8
BLACK
6
CONTINUOUS
10
3.26603
20
-6.73346
11
3.26603
21
-6.76159
0
LINE
8
BLACK
6
CONTINUOUS
10
3.26603
20
-6.76159
11
3.2604
21
-6.78408
0
LINE
8
BLACK
6
CONTINUOUS
10
3.2604
20
-6.78408
11
3.25478
21
-6.79533
0
LINE
8
BLACK
6
CONTINUOUS
10
3.25478
20
-6.79533
11
3.24916
21
-6.80096
0
LINE
8
BLACK
6
CONTINUOUS
10
3.24916
20
-6.80096
11
3.23791
21
-6.80658
0
LINE
8
BLACK
6
CONTINUOUS
10
3.23791
20
-6.80658
11
3.22666
21
-6.80658
0
LINE
8
BLACK
6
CONTINUOUS
10
3.22666
20
-6.80658
11
3.21541
21
-6.80096
0
LINE
8
BLACK
6
CONTINUOUS
10
3.21541
20
-6.80096
11
3.20979
21
-6.79533
0
LINE
8
BLACK
6
CONTINUOUS
10
3.20979
20
-6.79533
11
3.20416
21
-6.78408
0
LINE
8
BLACK
6
CONTINUOUS
10
3.20416
20
-6.78408
11
3.19854
21
-6.76159
0
LINE
8
BLACK
6
CONTINUOUS
10
3.19854
20
-6.76159
11
3.19854
21
-6.73346
0
LINE
8
BLACK
6
CONTINUOUS
10
3.19854
20
-6.73346
11
3.20416
21
-6.71097
0
LINE
8
BLACK
6
CONTINUOUS
10
3.20416
20
-6.71097
11
3.20979
21
-6.69972
0
LINE
8
BLACK
6
CONTINUOUS
10
3.20979
20
-6.69972
11
3.21541
21
-6.69409
0
LINE
8
BLACK
6
CONTINUOUS
10
3.21541
20
-6.69409
11
3.22666
21
-6.68847
0
LINE
8
BLACK
6
CONTINUOUS
10
3.31665
20
-6.79533
11
3.32227
21
-6.80096
0
LINE
8
BLACK
6
CONTINUOUS
10
3.32227
20
-6.80096
11
3.31665
21
-6.80658
0
LINE
8
BLACK
6
CONTINUOUS
10
3.31665
20
-6.80658
11
3.31102
21
-6.80096
0
LINE
8
BLACK
6
CONTINUOUS
10
3.31102
20
-6.80096
11
3.31665
21
-6.79533
0
LINE
8
BLACK
6
CONTINUOUS
10
3.31665
20
-6.79533
11
3.31665
21
-6.80658
0
LINE
8
BLACK
6
CONTINUOUS
10
3.39539
20
-6.68847
11
3.40664
21
-6.68847
0
LINE
8
BLACK
6
CONTINUOUS
10
3.40664
20
-6.68847
11
3.41789
21
-6.69409
0
LINE
8
BLACK
6
CONTINUOUS
10
3.41789
20
-6.69409
11
3.42351
21
-6.69972
0
LINE
8
BLACK
6
CONTINUOUS
10
3.42351
20
-6.69972
11
3.42913
21
-6.71097
0
LINE
8
BLACK
6
CONTINUOUS
10
3.42913
20
-6.71097
11
3.43476
21
-6.73346
0
LINE
8
BLACK
6
CONTINUOUS
10
3.43476
20
-6.73346
11
3.43476
21
-6.76159
0
LINE
8
BLACK
6
CONTINUOUS
10
3.43476
20
-6.76159
11
3.42913
21
-6.78408
0
LINE
8
BLACK
6
CONTINUOUS
10
3.42913
20
-6.78408
11
3.42351
21
-6.79533
0
LINE
8
BLACK
6
CONTINUOUS
10
3.42351
20
-6.79533
11
3.41789
21
-6.80096
0
LINE
8
BLACK
6
CONTINUOUS
10
3.41789
20
-6.80096
11
3.40664
21
-6.80658
0
LINE
8
BLACK
6
CONTINUOUS
10
3.40664
20
-6.80658
11
3.39539
21
-6.80658
0
LINE
8
BLACK
6
CONTINUOUS
10
3.39539
20
-6.80658
11
3.38414
21
-6.80096
0
LINE
8
BLACK
6
CONTINUOUS
10
3.38414
20
-6.80096
11
3.37852
21
-6.79533
0
LINE
8
BLACK
6
CONTINUOUS
10
3.37852
20
-6.79533
11
3.37289
21
-6.78408
0
LINE
8
BLACK
6
CONTINUOUS
10
3.37289
20
-6.78408
11
3.36727
21
-6.76159
0
LINE
8
BLACK
6
CONTINUOUS
10
3.36727
20
-6.76159
11
3.36727
21
-6.73346
0
LINE
8
BLACK
6
CONTINUOUS
10
3.36727
20
-6.73346
11
3.37289
21
-6.71097
0
LINE
8
BLACK
6
CONTINUOUS
10
3.37289
20
-6.71097
11
3.37852
21
-6.69972
0
LINE
8
BLACK
6
CONTINUOUS
10
3.37852
20
-6.69972
11
3.38414
21
-6.69409
0
LINE
8
BLACK
6
CONTINUOUS
10
3.38414
20
-6.69409
11
3.39539
21
-6.68847
0
LINE
8
BLACK
6
CONTINUOUS
10
3.47413
20
-6.68847
11
3.54724
21
-6.68847
0
LINE
8
BLACK
6
CONTINUOUS
10
3.54724
20
-6.68847
11
3.50787
21
-6.73346
0
LINE
8
BLACK
6
CONTINUOUS
10
3.50787
20
-6.73346
11
3.52475
21
-6.73346
0
LINE
8
BLACK
6
CONTINUOUS
10
3.52475
20
-6.73346
11
3.536
21
-6.73909
0
LINE
8
BLACK
6
CONTINUOUS
10
3.536
20
-6.73909
11
3.54162
21
-6.74471
0
LINE
8
BLACK
6
CONTINUOUS
10
3.54162
20
-6.74471
11
3.54724
21
-6.75596
0
LINE
8
BLACK
6
CONTINUOUS
10
3.54724
20
-6.75596
11
3.54724
21
-6.78408
0
LINE
8
BLACK
6
CONTINUOUS
10
3.54724
20
-6.78408
11
3.54162
21
-6.79533
0
LINE
8
BLACK
6
CONTINUOUS
10
3.54162
20
-6.79533
11
3.536
21
-6.80096
0
LINE
8
BLACK
6
CONTINUOUS
10
3.536
20
-6.80096
11
3.52475
21
-6.80658
0
LINE
8
BLACK
6
CONTINUOUS
10
3.52475
20
-6.80658
11
3.491
21
-6.80658
0
LINE
8
BLACK
6
CONTINUOUS
10
3.491
20
-6.80658
11
3.47975
21
-6.80096
0
LINE
8
BLACK
6
CONTINUOUS
10
3.47975
20
-6.80096
11
3.47413
21
-6.79533
0
LINE
8
BLACK
6
CONTINUOUS
10
3.65411
20
-6.68847
11
3.59786
21
-6.68847
0
LINE
8
BLACK
6
CONTINUOUS
10
3.59786
20
-6.68847
11
3.59224
21
-6.74471
0
LINE
8
BLACK
6
CONTINUOUS
10
3.59224
20
-6.74471
11
3.59786
21
-6.73909
0
LINE
8
BLACK
6
CONTINUOUS
10
3.59786
20
-6.73909
11
3.60911
21
-6.73346
0
LINE
8
BLACK
6
CONTINUOUS
10
3.60911
20
-6.73346
11
3.63723
21
-6.73346
0
LINE
8
BLACK
6
CONTINUOUS
10
3.63723
20
-6.73346
11
3.64848
21
-6.73909
0
LINE
8
BLACK
6
CONTINUOUS
10
3.64848
20
-6.73909
11
3.65411
21
-6.74471
0
LINE
8
BLACK
6
CONTINUOUS
10
3.65411
20
-6.74471
11
3.65973
21
-6.75596
0
LINE
8
BLACK
6
CONTINUOUS
10
3.65973
20
-6.75596
11
3.65973
21
-6.78408
0
LINE
8
BLACK
6
CONTINUOUS
10
3.65973
20
-6.78408
11
3.65411
21
-6.79533
0
LINE
8
BLACK
6
CONTINUOUS
10
3.65411
20
-6.79533
11
3.64848
21
-6.80096
0
LINE
8
BLACK
6
CONTINUOUS
10
3.64848
20
-6.80096
11
3.63723
21
-6.80658
0
LINE
8
BLACK
6
CONTINUOUS
10
3.63723
20
-6.80658
11
3.60911
21
-6.80658
0
LINE
8
BLACK
6
CONTINUOUS
10
3.60911
20
-6.80658
11
3.59786
21
-6.80096
0
LINE
8
BLACK
6
CONTINUOUS
10
3.59786
20
-6.80096
11
3.59224
21
-6.79533
0
LINE
8
BLACK
6
CONTINUOUS
10
3.76097
20
-6.72784
11
3.76097
21
-6.80658
0
LINE
8
BLACK
6
CONTINUOUS
10
3.73285
20
-6.68285
11
3.70472
21
-6.76721
0
LINE
8
BLACK
6
CONTINUOUS
10
3.70472
20
-6.76721
11
3.77784
21
-6.76721
0
LINE
8
BLACK
6
CONTINUOUS
10
3.81721
20
-6.68847
11
3.81721
21
-6.71097
0
LINE
8
BLACK
6
CONTINUOUS
10
3.8622
20
-6.68847
11
3.8622
21
-6.71097
0
LINE
8
BLACK
6
CONTINUOUS
10
4.03656
20
-6.85157
11
4.03093
21
-6.84595
0
LINE
8
BLACK
6
CONTINUOUS
10
4.03093
20
-6.84595
11
4.01968
21
-6.82908
0
LINE
8
BLACK
6
CONTINUOUS
10
4.01968
20
-6.82908
11
4.01406
21
-6.81783
0
LINE
8
BLACK
6
CONTINUOUS
10
4.01406
20
-6.81783
11
4.00844
21
-6.80096
0
LINE
8
BLACK
6
CONTINUOUS
10
4.00844
20
-6.80096
11
4.00281
21
-6.77283
0
LINE
8
BLACK
6
CONTINUOUS
10
4.00281
20
-6.77283
11
4.00281
21
-6.75034
0
LINE
8
BLACK
6
CONTINUOUS
10
4.00281
20
-6.75034
11
4.00844
21
-6.72222
0
LINE
8
BLACK
6
CONTINUOUS
10
4.00844
20
-6.72222
11
4.01406
21
-6.70534
0
LINE
8
BLACK
6
CONTINUOUS
10
4.01406
20
-6.70534
11
4.01968
21
-6.69409
0
LINE
8
BLACK
6
CONTINUOUS
10
4.01968
20
-6.69409
11
4.03093
21
-6.67722
0
LINE
8
BLACK
6
CONTINUOUS
10
4.03093
20
-6.67722
11
4.03656
21
-6.6716
0
LINE
8
BLACK
6
CONTINUOUS
10
4.14342
20
-6.80658
11
4.07593
21
-6.80658
0
LINE
8
BLACK
6
CONTINUOUS
10
4.10967
20
-6.80658
11
4.10967
21
-6.68847
0
LINE
8
BLACK
6
CONTINUOUS
10
4.10967
20
-6.68847
11
4.09843
21
-6.70534
0
LINE
8
BLACK
6
CONTINUOUS
10
4.09843
20
-6.70534
11
4.08718
21
-6.71659
0
LINE
8
BLACK
6
CONTINUOUS
10
4.08718
20
-6.71659
11
4.07593
21
-6.72222
0
LINE
8
BLACK
6
CONTINUOUS
10
4.18841
20
-6.69972
11
4.19404
21
-6.69409
0
LINE
8
BLACK
6
CONTINUOUS
10
4.19404
20
-6.69409
11
4.20529
21
-6.68847
0
LINE
8
BLACK
6
CONTINUOUS
10
4.20529
20
-6.68847
11
4.23341
21
-6.68847
0
LINE
8
BLACK
6
CONTINUOUS
10
4.23341
20
-6.68847
11
4.24466
21
-6.69409
0
LINE
8
BLACK
6
CONTINUOUS
10
4.24466
20
-6.69409
11
4.25028
21
-6.69972
0
LINE
8
BLACK
6
CONTINUOUS
10
4.25028
20
-6.69972
11
4.25591
21
-6.71097
0
LINE
8
BLACK
6
CONTINUOUS
10
4.25591
20
-6.71097
11
4.25591
21
-6.72222
0
LINE
8
BLACK
6
CONTINUOUS
10
4.25591
20
-6.72222
11
4.25028
21
-6.73909
0
LINE
8
BLACK
6
CONTINUOUS
10
4.25028
20
-6.73909
11
4.18279
21
-6.80658
0
LINE
8
BLACK
6
CONTINUOUS
10
4.18279
20
-6.80658
11
4.25591
21
-6.80658
0
LINE
8
BLACK
6
CONTINUOUS
10
4.39651
20
-6.80658
11
4.39651
21
-6.68847
0
LINE
8
BLACK
6
CONTINUOUS
10
4.44713
20
-6.80658
11
4.44713
21
-6.74471
0
LINE
8
BLACK
6
CONTINUOUS
10
4.44713
20
-6.74471
11
4.44151
21
-6.73346
0
LINE
8
BLACK
6
CONTINUOUS
10
4.44151
20
-6.73346
11
4.43026
21
-6.72784
0
LINE
8
BLACK
6
CONTINUOUS
10
4.43026
20
-6.72784
11
4.41339
21
-6.72784
0
LINE
8
BLACK
6
CONTINUOUS
10
4.41339
20
-6.72784
11
4.40214
21
-6.73346
0
LINE
8
BLACK
6
CONTINUOUS
10
4.40214
20
-6.73346
11
4.39651
21
-6.73909
0
LINE
8
BLACK
6
CONTINUOUS
10
4.52025
20
-6.80658
11
4.509
21
-6.80096
0
LINE
8
BLACK
6
CONTINUOUS
10
4.509
20
-6.80096
11
4.50337
21
-6.79533
0
LINE
8
BLACK
6
CONTINUOUS
10
4.50337
20
-6.79533
11
4.49775
21
-6.78408
0
LINE
8
BLACK
6
CONTINUOUS
10
4.49775
20
-6.78408
11
4.49775
21
-6.75034
0
LINE
8
BLACK
6
CONTINUOUS
10
4.49775
20
-6.75034
11
4.50337
21
-6.73909
0
LINE
8
BLACK
6
CONTINUOUS
10
4.50337
20
-6.73909
11
4.509
21
-6.73346
0
LINE
8
BLACK
6
CONTINUOUS
10
4.509
20
-6.73346
11
4.52025
21
-6.72784
0
LINE
8
BLACK
6
CONTINUOUS
10
4.52025
20
-6.72784
11
4.53712
21
-6.72784
0
LINE
8
BLACK
6
CONTINUOUS
10
4.53712
20
-6.72784
11
4.54837
21
-6.73346
0
LINE
8
BLACK
6
CONTINUOUS
10
4.54837
20
-6.73346
11
4.55399
21
-6.73909
0
LINE
8
BLACK
6
CONTINUOUS
10
4.55399
20
-6.73909
11
4.55962
21
-6.75034
0
LINE
8
BLACK
6
CONTINUOUS
10
4.55962
20
-6.75034
11
4.55962
21
-6.78408
0
LINE
8
BLACK
6
CONTINUOUS
10
4.55962
20
-6.78408
11
4.55399
21
-6.79533
0
LINE
8
BLACK
6
CONTINUOUS
10
4.55399
20
-6.79533
11
4.54837
21
-6.80096
0
LINE
8
BLACK
6
CONTINUOUS
10
4.54837
20
-6.80096
11
4.53712
21
-6.80658
0
LINE
8
BLACK
6
CONTINUOUS
10
4.53712
20
-6.80658
11
4.52025
21
-6.80658
0
LINE
8
BLACK
6
CONTINUOUS
10
4.62711
20
-6.80658
11
4.61586
21
-6.80096
0
LINE
8
BLACK
6
CONTINUOUS
10
4.61586
20
-6.80096
11
4.61024
21
-6.78971
0
LINE
8
BLACK
6
CONTINUOUS
10
4.61024
20
-6.78971
11
4.61024
21
-6.68847
0
LINE
8
BLACK
6
CONTINUOUS
10
4.7171
20
-6.80096
11
4.70585
21
-6.80658
0
LINE
8
BLACK
6
CONTINUOUS
10
4.70585
20
-6.80658
11
4.68335
21
-6.80658
0
LINE
8
BLACK
6
CONTINUOUS
10
4.68335
20
-6.80658
11
4.6721
21
-6.80096
0
LINE
8
BLACK
6
CONTINUOUS
10
4.6721
20
-6.80096
11
4.66648
21
-6.78971
0
LINE
8
BLACK
6
CONTINUOUS
10
4.66648
20
-6.78971
11
4.66648
21
-6.74471
0
LINE
8
BLACK
6
CONTINUOUS
10
4.66648
20
-6.74471
11
4.6721
21
-6.73346
0
LINE
8
BLACK
6
CONTINUOUS
10
4.6721
20
-6.73346
11
4.68335
21
-6.72784
0
LINE
8
BLACK
6
CONTINUOUS
10
4.68335
20
-6.72784
11
4.70585
21
-6.72784
0
LINE
8
BLACK
6
CONTINUOUS
10
4.70585
20
-6.72784
11
4.7171
21
-6.73346
0
LINE
8
BLACK
6
CONTINUOUS
10
4.7171
20
-6.73346
11
4.72272
21
-6.74471
0
LINE
8
BLACK
6
CONTINUOUS
10
4.72272
20
-6.74471
11
4.72272
21
-6.75596
0
LINE
8
BLACK
6
CONTINUOUS
10
4.72272
20
-6.75596
11
4.66648
21
-6.76721
0
LINE
8
BLACK
6
CONTINUOUS
10
4.76772
20
-6.80096
11
4.77897
21
-6.80658
0
LINE
8
BLACK
6
CONTINUOUS
10
4.77897
20
-6.80658
11
4.80146
21
-6.80658
0
LINE
8
BLACK
6
CONTINUOUS
10
4.80146
20
-6.80658
11
4.81271
21
-6.80096
0
LINE
8
BLACK
6
CONTINUOUS
10
4.81271
20
-6.80096
11
4.81834
21
-6.78971
0
LINE
8
BLACK
6
CONTINUOUS
10
4.81834
20
-6.78971
11
4.81834
21
-6.78408
0
LINE
8
BLACK
6
CONTINUOUS
10
4.81834
20
-6.78408
11
4.81271
21
-6.77283
0
LINE
8
BLACK
6
CONTINUOUS
10
4.81271
20
-6.77283
11
4.80146
21
-6.76721
0
LINE
8
BLACK
6
CONTINUOUS
10
4.80146
20
-6.76721
11
4.78459
21
-6.76721
0
LINE
8
BLACK
6
CONTINUOUS
10
4.78459
20
-6.76721
11
4.77334
21
-6.76159
0
LINE
8
BLACK
6
CONTINUOUS
10
4.77334
20
-6.76159
11
4.76772
21
-6.75034
0
LINE
8
BLACK
6
CONTINUOUS
10
4.76772
20
-6.75034
11
4.76772
21
-6.74471
0
LINE
8
BLACK
6
CONTINUOUS
10
4.76772
20
-6.74471
11
4.77334
21
-6.73346
0
LINE
8
BLACK
6
CONTINUOUS
10
4.77334
20
-6.73346
11
4.78459
21
-6.72784
0
LINE
8
BLACK
6
CONTINUOUS
10
4.78459
20
-6.72784
11
4.80146
21
-6.72784
0
LINE
8
BLACK
6
CONTINUOUS
10
4.80146
20
-6.72784
11
4.81271
21
-6.73346
0
LINE
8
BLACK
6
CONTINUOUS
10
4.85771
20
-6.85157
11
4.86333
21
-6.84595
0
LINE
8
BLACK
6
CONTINUOUS
10
4.86333
20
-6.84595
11
4.87458
21
-6.82908
0
LINE
8
BLACK
6
CONTINUOUS
10
4.87458
20
-6.82908
11
4.8802
21
-6.81783
0
LINE
8
BLACK
6
CONTINUOUS
10
4.8802
20
-6.81783
11
4.88583
21
-6.80096
0
LINE
8
BLACK
6
CONTINUOUS
10
4.88583
20
-6.80096
11
4.89145
21
-6.77283
0
LINE
8
BLACK
6
CONTINUOUS
10
4.89145
20
-6.77283
11
4.89145
21
-6.75034
0
LINE
8
BLACK
6
CONTINUOUS
10
4.89145
20
-6.75034
11
4.88583
21
-6.72222
0
LINE
8
BLACK
6
CONTINUOUS
10
4.88583
20
-6.72222
11
4.8802
21
-6.70534
0
LINE
8
BLACK
6
CONTINUOUS
10
4.8802
20
-6.70534
11
4.87458
21
-6.69409
0
LINE
8
BLACK
6
CONTINUOUS
10
4.87458
20
-6.69409
11
4.86333
21
-6.67722
0
LINE
8
BLACK
6
CONTINUOUS
10
4.86333
20
-6.67722
11
4.85771
21
-6.6716
0
LINE
8
BLACK
6
CONTINUOUS
10
1.94685
20
-6.92874
11
1.96654
21
-6.90906
0
LINE
8
BLACK
6
CONTINUOUS
10
1.96654
20
-6.90906
11
1.94685
21
-6.88937
0
LINE
8
BLACK
6
CONTINUOUS
10
1.94685
20
-6.88937
11
1.92717
21
-6.90906
0
LINE
8
BLACK
6
CONTINUOUS
10
1.92717
20
-6.90906
11
1.94685
21
-6.92874
0
LINE
8
BLACK
6
CONTINUOUS
10
2.14117
20
-6.96249
11
2.07368
21
-6.96249
0
LINE
8
BLACK
6
CONTINUOUS
10
2.10742
20
-6.96249
11
2.10742
21
-6.84438
0
LINE
8
BLACK
6
CONTINUOUS
10
2.10742
20
-6.84438
11
2.09618
21
-6.86125
0
LINE
8
BLACK
6
CONTINUOUS
10
2.09618
20
-6.86125
11
2.08493
21
-6.8725
0
LINE
8
BLACK
6
CONTINUOUS
10
2.08493
20
-6.8725
11
2.07368
21
-6.87812
0
LINE
8
BLACK
6
CONTINUOUS
10
2.19179
20
-6.95124
11
2.19741
21
-6.95686
0
LINE
8
BLACK
6
CONTINUOUS
10
2.19741
20
-6.95686
11
2.19179
21
-6.96249
0
LINE
8
BLACK
6
CONTINUOUS
10
2.19179
20
-6.96249
11
2.18616
21
-6.95686
0
LINE
8
BLACK
6
CONTINUOUS
10
2.18616
20
-6.95686
11
2.19179
21
-6.95124
0
LINE
8
BLACK
6
CONTINUOUS
10
2.19179
20
-6.95124
11
2.19179
21
-6.96249
0
LINE
8
BLACK
6
CONTINUOUS
10
2.27053
20
-6.84438
11
2.28178
21
-6.84438
0
LINE
8
BLACK
6
CONTINUOUS
10
2.28178
20
-6.84438
11
2.29303
21
-6.85
0
LINE
8
BLACK
6
CONTINUOUS
10
2.29303
20
-6.85
11
2.29865
21
-6.85562
0
LINE
8
BLACK
6
CONTINUOUS
10
2.29865
20
-6.85562
11
2.30427
21
-6.86687
0
LINE
8
BLACK
6
CONTINUOUS
10
2.30427
20
-6.86687
11
2.3099
21
-6.88937
0
LINE
8
BLACK
6
CONTINUOUS
10
2.3099
20
-6.88937
11
2.3099
21
-6.91749
0
LINE
8
BLACK
6
CONTINUOUS
10
2.3099
20
-6.91749
11
2.30427
21
-6.93999
0
LINE
8
BLACK
6
CONTINUOUS
10
2.30427
20
-6.93999
11
2.29865
21
-6.95124
0
LINE
8
BLACK
6
CONTINUOUS
10
2.29865
20
-6.95124
11
2.29303
21
-6.95686
0
LINE
8
BLACK
6
CONTINUOUS
10
2.29303
20
-6.95686
11
2.28178
21
-6.96249
0
LINE
8
BLACK
6
CONTINUOUS
10
2.28178
20
-6.96249
11
2.27053
21
-6.96249
0
LINE
8
BLACK
6
CONTINUOUS
10
2.27053
20
-6.96249
11
2.25928
21
-6.95686
0
LINE
8
BLACK
6
CONTINUOUS
10
2.25928
20
-6.95686
11
2.25366
21
-6.95124
0
LINE
8
BLACK
6
CONTINUOUS
10
2.25366
20
-6.95124
11
2.24803
21
-6.93999
0
LINE
8
BLACK
6
CONTINUOUS
10
2.24803
20
-6.93999
11
2.24241
21
-6.91749
0
LINE
8
BLACK
6
CONTINUOUS
10
2.24241
20
-6.91749
11
2.24241
21
-6.88937
0
LINE
8
BLACK
6
CONTINUOUS
10
2.24241
20
-6.88937
11
2.24803
21
-6.86687
0
LINE
8
BLACK
6
CONTINUOUS
10
2.24803
20
-6.86687
11
2.25366
21
-6.85562
0
LINE
8
BLACK
6
CONTINUOUS
10
2.25366
20
-6.85562
11
2.25928
21
-6.85
0
LINE
8
BLACK
6
CONTINUOUS
10
2.25928
20
-6.85
11
2.27053
21
-6.84438
0
LINE
8
BLACK
6
CONTINUOUS
10
2.38301
20
-6.84438
11
2.39426
21
-6.84438
0
LINE
8
BLACK
6
CONTINUOUS
10
2.39426
20
-6.84438
11
2.40551
21
-6.85
0
LINE
8
BLACK
6
CONTINUOUS
10
2.40551
20
-6.85
11
2.41114
21
-6.85562
0
LINE
8
BLACK
6
CONTINUOUS
10
2.41114
20
-6.85562
11
2.41676
21
-6.86687
0
LINE
8
BLACK
6
CONTINUOUS
10
2.41676
20
-6.86687
11
2.42238
21
-6.88937
0
LINE
8
BLACK
6
CONTINUOUS
10
2.42238
20
-6.88937
11
2.42238
21
-6.91749
0
LINE
8
BLACK
6
CONTINUOUS
10
2.42238
20
-6.91749
11
2.41676
21
-6.93999
0
LINE
8
BLACK
6
CONTINUOUS
10
2.41676
20
-6.93999
11
2.41114
21
-6.95124
0
LINE
8
BLACK
6
CONTINUOUS
10
2.41114
20
-6.95124
11
2.40551
21
-6.95686
0
LINE
8
BLACK
6
CONTINUOUS
10
2.40551
20
-6.95686
11
2.39426
21
-6.96249
0
LINE
8
BLACK
6
CONTINUOUS
10
2.39426
20
-6.96249
11
2.38301
21
-6.96249
0
LINE
8
BLACK
6
CONTINUOUS
10
2.38301
20
-6.96249
11
2.37177
21
-6.95686
0
LINE
8
BLACK
6
CONTINUOUS
10
2.37177
20
-6.95686
11
2.36614
21
-6.95124
0
LINE
8
BLACK
6
CONTINUOUS
10
2.36614
20
-6.95124
11
2.36052
21
-6.93999
0
LINE
8
BLACK
6
CONTINUOUS
10
2.36052
20
-6.93999
11
2.35489
21
-6.91749
0
LINE
8
BLACK
6
CONTINUOUS
10
2.35489
20
-6.91749
11
2.35489
21
-6.88937
0
LINE
8
BLACK
6
CONTINUOUS
10
2.35489
20
-6.88937
11
2.36052
21
-6.86687
0
LINE
8
BLACK
6
CONTINUOUS
10
2.36052
20
-6.86687
11
2.36614
21
-6.85562
0
LINE
8
BLACK
6
CONTINUOUS
10
2.36614
20
-6.85562
11
2.37177
21
-6.85
0
LINE
8
BLACK
6
CONTINUOUS
10
2.37177
20
-6.85
11
2.38301
21
-6.84438
0
LINE
8
BLACK
6
CONTINUOUS
10
2.4955
20
-6.84438
11
2.50675
21
-6.84438
0
LINE
8
BLACK
6
CONTINUOUS
10
2.50675
20
-6.84438
11
2.518
21
-6.85
0
LINE
8
BLACK
6
CONTINUOUS
10
2.518
20
-6.85
11
2.52362
21
-6.85562
0
LINE
8
BLACK
6
CONTINUOUS
10
2.52362
20
-6.85562
11
2.52925
21
-6.86687
0
LINE
8
BLACK
6
CONTINUOUS
10
2.52925
20
-6.86687
11
2.53487
21
-6.88937
0
LINE
8
BLACK
6
CONTINUOUS
10
2.53487
20
-6.88937
11
2.53487
21
-6.91749
0
LINE
8
BLACK
6
CONTINUOUS
10
2.53487
20
-6.91749
11
2.52925
21
-6.93999
0
LINE
8
BLACK
6
CONTINUOUS
10
2.52925
20
-6.93999
11
2.52362
21
-6.95124
0
LINE
8
BLACK
6
CONTINUOUS
10
2.52362
20
-6.95124
11
2.518
21
-6.95686
0
LINE
8
BLACK
6
CONTINUOUS
10
2.518
20
-6.95686
11
2.50675
21
-6.96249
0
LINE
8
BLACK
6
CONTINUOUS
10
2.50675
20
-6.96249
11
2.4955
21
-6.96249
0
LINE
8
BLACK
6
CONTINUOUS
10
2.4955
20
-6.96249
11
2.48425
21
-6.95686
0
LINE
8
BLACK
6
CONTINUOUS
10
2.48425
20
-6.95686
11
2.47863
21
-6.95124
0
LINE
8
BLACK
6
CONTINUOUS
10
2.47863
20
-6.95124
11
2.473
21
-6.93999
0
LINE
8
BLACK
6
CONTINUOUS
10
2.473
20
-6.93999
11
2.46738
21
-6.91749
0
LINE
8
BLACK
6
CONTINUOUS
10
2.46738
20
-6.91749
11
2.46738
21
-6.88937
0
LINE
8
BLACK
6
CONTINUOUS
10
2.46738
20
-6.88937
11
2.473
21
-6.86687
0
LINE
8
BLACK
6
CONTINUOUS
10
2.473
20
-6.86687
11
2.47863
21
-6.85562
0
LINE
8
BLACK
6
CONTINUOUS
10
2.47863
20
-6.85562
11
2.48425
21
-6.85
0
LINE
8
BLACK
6
CONTINUOUS
10
2.48425
20
-6.85
11
2.4955
21
-6.84438
0
LINE
8
BLACK
6
CONTINUOUS
10
2.58549
20
-6.96249
11
2.58549
21
-6.88375
0
LINE
8
BLACK
6
CONTINUOUS
10
2.58549
20
-6.89499
11
2.59111
21
-6.88937
0
LINE
8
BLACK
6
CONTINUOUS
10
2.59111
20
-6.88937
11
2.60236
21
-6.88375
0
LINE
8
BLACK
6
CONTINUOUS
10
2.60236
20
-6.88375
11
2.61924
21
-6.88375
0
LINE
8
BLACK
6
CONTINUOUS
10
2.61924
20
-6.88375
11
2.63048
21
-6.88937
0
LINE
8
BLACK
6
CONTINUOUS
10
2.63048
20
-6.88937
11
2.63611
21
-6.90062
0
LINE
8
BLACK
6
CONTINUOUS
10
2.63611
20
-6.90062
11
2.63611
21
-6.96249
0
LINE
8
BLACK
6
CONTINUOUS
10
2.63611
20
-6.90062
11
2.64173
21
-6.88937
0
LINE
8
BLACK
6
CONTINUOUS
10
2.64173
20
-6.88937
11
2.65298
21
-6.88375
0
LINE
8
BLACK
6
CONTINUOUS
10
2.65298
20
-6.88375
11
2.66985
21
-6.88375
0
LINE
8
BLACK
6
CONTINUOUS
10
2.66985
20
-6.88375
11
2.6811
21
-6.88937
0
LINE
8
BLACK
6
CONTINUOUS
10
2.6811
20
-6.88937
11
2.68673
21
-6.90062
0
LINE
8
BLACK
6
CONTINUOUS
10
2.68673
20
-6.90062
11
2.68673
21
-6.96249
0
LINE
8
BLACK
6
CONTINUOUS
10
2.74297
20
-6.96249
11
2.74297
21
-6.88375
0
LINE
8
BLACK
6
CONTINUOUS
10
2.74297
20
-6.89499
11
2.74859
21
-6.88937
0
LINE
8
BLACK
6
CONTINUOUS
10
2.74859
20
-6.88937
11
2.75984
21
-6.88375
0
LINE
8
BLACK
6
CONTINUOUS
10
2.75984
20
-6.88375
11
2.77672
21
-6.88375
0
LINE
8
BLACK
6
CONTINUOUS
10
2.77672
20
-6.88375
11
2.78796
21
-6.88937
0
LINE
8
BLACK
6
CONTINUOUS
10
2.78796
20
-6.88937
11
2.79359
21
-6.90062
0
LINE
8
BLACK
6
CONTINUOUS
10
2.79359
20
-6.90062
11
2.79359
21
-6.96249
0
LINE
8
BLACK
6
CONTINUOUS
10
2.79359
20
-6.90062
11
2.79921
21
-6.88937
0
LINE
8
BLACK
6
CONTINUOUS
10
2.79921
20
-6.88937
11
2.81046
21
-6.88375
0
LINE
8
BLACK
6
CONTINUOUS
10
2.81046
20
-6.88375
11
2.82733
21
-6.88375
0
LINE
8
BLACK
6
CONTINUOUS
10
2.82733
20
-6.88375
11
2.83858
21
-6.88937
0
LINE
8
BLACK
6
CONTINUOUS
10
2.83858
20
-6.88937
11
2.84421
21
-6.90062
0
LINE
8
BLACK
6
CONTINUOUS
10
2.84421
20
-6.90062
11
2.84421
21
-6.96249
0
LINE
8
BLACK
6
CONTINUOUS
10
3.0748
20
-6.83875
11
2.97357
21
-6.99061
0
LINE
8
BLACK
6
CONTINUOUS
10
3.22666
20
-6.84438
11
3.23791
21
-6.84438
0
LINE
8
BLACK
6
CONTINUOUS
10
3.23791
20
-6.84438
11
3.24916
21
-6.85
0
LINE
8
BLACK
6
CONTINUOUS
10
3.24916
20
-6.85
11
3.25478
21
-6.85562
0
LINE
8
BLACK
6
CONTINUOUS
10
3.25478
20
-6.85562
11
3.2604
21
-6.86687
0
LINE
8
BLACK
6
CONTINUOUS
10
3.2604
20
-6.86687
11
3.26603
21
-6.88937
0
LINE
8
BLACK
6
CONTINUOUS
10
3.26603
20
-6.88937
11
3.26603
21
-6.91749
0
LINE
8
BLACK
6
CONTINUOUS
10
3.26603
20
-6.91749
11
3.2604
21
-6.93999
0
LINE
8
BLACK
6
CONTINUOUS
10
3.2604
20
-6.93999
11
3.25478
21
-6.95124
0
LINE
8
BLACK
6
CONTINUOUS
10
3.25478
20
-6.95124
11
3.24916
21
-6.95686
0
LINE
8
BLACK
6
CONTINUOUS
10
3.24916
20
-6.95686
11
3.23791
21
-6.96249
0
LINE
8
BLACK
6
CONTINUOUS
10
3.23791
20
-6.96249
11
3.22666
21
-6.96249
0
LINE
8
BLACK
6
CONTINUOUS
10
3.22666
20
-6.96249
11
3.21541
21
-6.95686
0
LINE
8
BLACK
6
CONTINUOUS
10
3.21541
20
-6.95686
11
3.20979
21
-6.95124
0
LINE
8
BLACK
6
CONTINUOUS
10
3.20979
20
-6.95124
11
3.20416
21
-6.93999
0
LINE
8
BLACK
6
CONTINUOUS
10
3.20416
20
-6.93999
11
3.19854
21
-6.91749
0
LINE
8
BLACK
6
CONTINUOUS
10
3.19854
20
-6.91749
11
3.19854
21
-6.88937
0
LINE
8
BLACK
6
CONTINUOUS
10
3.19854
20
-6.88937
11
3.20416
21
-6.86687
0
LINE
8
BLACK
6
CONTINUOUS
10
3.20416
20
-6.86687
11
3.20979
21
-6.85562
0
LINE
8
BLACK
6
CONTINUOUS
10
3.20979
20
-6.85562
11
3.21541
21
-6.85
0
LINE
8
BLACK
6
CONTINUOUS
10
3.21541
20
-6.85
11
3.22666
21
-6.84438
0
LINE
8
BLACK
6
CONTINUOUS
10
3.31665
20
-6.95124
11
3.32227
21
-6.95686
0
LINE
8
BLACK
6
CONTINUOUS
10
3.32227
20
-6.95686
11
3.31665
21
-6.96249
0
LINE
8
BLACK
6
CONTINUOUS
10
3.31665
20
-6.96249
11
3.31102
21
-6.95686
0
LINE
8
BLACK
6
CONTINUOUS
10
3.31102
20
-6.95686
11
3.31665
21
-6.95124
0
LINE
8
BLACK
6
CONTINUOUS
10
3.31665
20
-6.95124
11
3.31665
21
-6.96249
0
LINE
8
BLACK
6
CONTINUOUS
10
3.39539
20
-6.84438
11
3.40664
21
-6.84438
0
LINE
8
BLACK
6
CONTINUOUS
10
3.40664
20
-6.84438
11
3.41789
21
-6.85
0
LINE
8
BLACK
6
CONTINUOUS
10
3.41789
20
-6.85
11
3.42351
21
-6.85562
0
LINE
8
BLACK
6
CONTINUOUS
10
3.42351
20
-6.85562
11
3.42913
21
-6.86687
0
LINE
8
BLACK
6
CONTINUOUS
10
3.42913
20
-6.86687
11
3.43476
21
-6.88937
0
LINE
8
BLACK
6
CONTINUOUS
10
3.43476
20
-6.88937
11
3.43476
21
-6.91749
0
LINE
8
BLACK
6
CONTINUOUS
10
3.43476
20
-6.91749
11
3.42913
21
-6.93999
0
LINE
8
BLACK
6
CONTINUOUS
10
3.42913
20
-6.93999
11
3.42351
21
-6.95124
0
LINE
8
BLACK
6
CONTINUOUS
10
3.42351
20
-6.95124
11
3.41789
21
-6.95686
0
LINE
8
BLACK
6
CONTINUOUS
10
3.41789
20
-6.95686
11
3.40664
21
-6.96249
0
LINE
8
BLACK
6
CONTINUOUS
10
3.40664
20
-6.96249
11
3.39539
21
-6.96249
0
LINE
8
BLACK
6
CONTINUOUS
10
3.39539
20
-6.96249
11
3.38414
21
-6.95686
0
LINE
8
BLACK
6
CONTINUOUS
10
3.38414
20
-6.95686
11
3.37852
21
-6.95124
0
LINE
8
BLACK
6
CONTINUOUS
10
3.37852
20
-6.95124
11
3.37289
21
-6.93999
0
LINE
8
BLACK
6
CONTINUOUS
10
3.37289
20
-6.93999
11
3.36727
21
-6.91749
0
LINE
8
BLACK
6
CONTINUOUS
10
3.36727
20
-6.91749
11
3.36727
21
-6.88937
0
LINE
8
BLACK
6
CONTINUOUS
10
3.36727
20
-6.88937
11
3.37289
21
-6.86687
0
LINE
8
BLACK
6
CONTINUOUS
10
3.37289
20
-6.86687
11
3.37852
21
-6.85562
0
LINE
8
BLACK
6
CONTINUOUS
10
3.37852
20
-6.85562
11
3.38414
21
-6.85
0
LINE
8
BLACK
6
CONTINUOUS
10
3.38414
20
-6.85
11
3.39539
21
-6.84438
0
LINE
8
BLACK
6
CONTINUOUS
10
3.47413
20
-6.84438
11
3.54724
21
-6.84438
0
LINE
8
BLACK
6
CONTINUOUS
10
3.54724
20
-6.84438
11
3.50787
21
-6.88937
0
LINE
8
BLACK
6
CONTINUOUS
10
3.50787
20
-6.88937
11
3.52475
21
-6.88937
0
LINE
8
BLACK
6
CONTINUOUS
10
3.52475
20
-6.88937
11
3.536
21
-6.89499
0
LINE
8
BLACK
6
CONTINUOUS
10
3.536
20
-6.89499
11
3.54162
21
-6.90062
0
LINE
8
BLACK
6
CONTINUOUS
10
3.54162
20
-6.90062
11
3.54724
21
-6.91187
0
LINE
8
BLACK
6
CONTINUOUS
10
3.54724
20
-6.91187
11
3.54724
21
-6.93999
0
LINE
8
BLACK
6
CONTINUOUS
10
3.54724
20
-6.93999
11
3.54162
21
-6.95124
0
LINE
8
BLACK
6
CONTINUOUS
10
3.54162
20
-6.95124
11
3.536
21
-6.95686
0
LINE
8
BLACK
6
CONTINUOUS
10
3.536
20
-6.95686
11
3.52475
21
-6.96249
0
LINE
8
BLACK
6
CONTINUOUS
10
3.52475
20
-6.96249
11
3.491
21
-6.96249
0
LINE
8
BLACK
6
CONTINUOUS
10
3.491
20
-6.96249
11
3.47975
21
-6.95686
0
LINE
8
BLACK
6
CONTINUOUS
10
3.47975
20
-6.95686
11
3.47413
21
-6.95124
0
LINE
8
BLACK
6
CONTINUOUS
10
3.60349
20
-6.96249
11
3.62598
21
-6.96249
0
LINE
8
BLACK
6
CONTINUOUS
10
3.62598
20
-6.96249
11
3.63723
21
-6.95686
0
LINE
8
BLACK
6
CONTINUOUS
10
3.63723
20
-6.95686
11
3.64286
21
-6.95124
0
LINE
8
BLACK
6
CONTINUOUS
10
3.64286
20
-6.95124
11
3.65411
21
-6.93436
0
LINE
8
BLACK
6
CONTINUOUS
10
3.65411
20
-6.93436
11
3.65973
21
-6.91187
0
LINE
8
BLACK
6
CONTINUOUS
10
3.65973
20
-6.91187
11
3.65973
21
-6.86687
0
LINE
8
BLACK
6
CONTINUOUS
10
3.65973
20
-6.86687
11
3.65411
21
-6.85562
0
LINE
8
BLACK
6
CONTINUOUS
10
3.65411
20
-6.85562
11
3.64848
21
-6.85
0
LINE
8
BLACK
6
CONTINUOUS
10
3.64848
20
-6.85
11
3.63723
21
-6.84438
0
LINE
8
BLACK
6
CONTINUOUS
10
3.63723
20
-6.84438
11
3.61474
21
-6.84438
0
LINE
8
BLACK
6
CONTINUOUS
10
3.61474
20
-6.84438
11
3.60349
21
-6.85
0
LINE
8
BLACK
6
CONTINUOUS
10
3.60349
20
-6.85
11
3.59786
21
-6.85562
0
LINE
8
BLACK
6
CONTINUOUS
10
3.59786
20
-6.85562
11
3.59224
21
-6.86687
0
LINE
8
BLACK
6
CONTINUOUS
10
3.59224
20
-6.86687
11
3.59224
21
-6.89499
0
LINE
8
BLACK
6
CONTINUOUS
10
3.59224
20
-6.89499
11
3.59786
21
-6.90624
0
LINE
8
BLACK
6
CONTINUOUS
10
3.59786
20
-6.90624
11
3.60349
21
-6.91187
0
LINE
8
BLACK
6
CONTINUOUS
10
3.60349
20
-6.91187
11
3.61474
21
-6.91749
0
LINE
8
BLACK
6
CONTINUOUS
10
3.61474
20
-6.91749
11
3.63723
21
-6.91749
0
LINE
8
BLACK
6
CONTINUOUS
10
3.63723
20
-6.91749
11
3.64848
21
-6.91187
0
LINE
8
BLACK
6
CONTINUOUS
10
3.64848
20
-6.91187
11
3.65411
21
-6.90624
0
LINE
8
BLACK
6
CONTINUOUS
10
3.65411
20
-6.90624
11
3.65973
21
-6.89499
0
LINE
8
BLACK
6
CONTINUOUS
10
3.76097
20
-6.88375
11
3.76097
21
-6.96249
0
LINE
8
BLACK
6
CONTINUOUS
10
3.73285
20
-6.83875
11
3.70472
21
-6.92312
0
LINE
8
BLACK
6
CONTINUOUS
10
3.70472
20
-6.92312
11
3.77784
21
-6.92312
0
LINE
8
BLACK
6
CONTINUOUS
10
3.81721
20
-6.84438
11
3.81721
21
-6.86687
0
LINE
8
BLACK
6
CONTINUOUS
10
3.8622
20
-6.84438
11
3.8622
21
-6.86687
0
LINE
8
BLACK
6
CONTINUOUS
10
4.03656
20
-7.00748
11
4.03093
21
-7.00186
0
LINE
8
BLACK
6
CONTINUOUS
10
4.03093
20
-7.00186
11
4.01968
21
-6.98498
0
LINE
8
BLACK
6
CONTINUOUS
10
4.01968
20
-6.98498
11
4.01406
21
-6.97373
0
LINE
8
BLACK
6
CONTINUOUS
10
4.01406
20
-6.97373
11
4.00844
21
-6.95686
0
LINE
8
BLACK
6
CONTINUOUS
10
4.00844
20
-6.95686
11
4.00281
21
-6.92874
0
LINE
8
BLACK
6
CONTINUOUS
10
4.00281
20
-6.92874
11
4.00281
21
-6.90624
0
LINE
8
BLACK
6
CONTINUOUS
10
4.00281
20
-6.90624
11
4.00844
21
-6.87812
0
LINE
8
BLACK
6
CONTINUOUS
10
4.00844
20
-6.87812
11
4.01406
21
-6.86125
0
LINE
8
BLACK
6
CONTINUOUS
10
4.01406
20
-6.86125
11
4.01968
21
-6.85
0
LINE
8
BLACK
6
CONTINUOUS
10
4.01968
20
-6.85
11
4.03093
21
-6.83313
0
LINE
8
BLACK
6
CONTINUOUS
10
4.03093
20
-6.83313
11
4.03656
21
-6.8275
0
LINE
8
BLACK
6
CONTINUOUS
10
4.07593
20
-6.85562
11
4.08155
21
-6.85
0
LINE
8
BLACK
6
CONTINUOUS
10
4.08155
20
-6.85
11
4.0928
21
-6.84438
0
LINE
8
BLACK
6
CONTINUOUS
10
4.0928
20
-6.84438
11
4.12092
21
-6.84438
0
LINE
8
BLACK
6
CONTINUOUS
10
4.12092
20
-6.84438
11
4.13217
21
-6.85
0
LINE
8
BLACK
6
CONTINUOUS
10
4.13217
20
-6.85
11
4.1378
21
-6.85562
0
LINE
8
BLACK
6
CONTINUOUS
10
4.1378
20
-6.85562
11
4.14342
21
-6.86687
0
LINE
8
BLACK
6
CONTINUOUS
10
4.14342
20
-6.86687
11
4.14342
21
-6.87812
0
LINE
8
BLACK
6
CONTINUOUS
10
4.14342
20
-6.87812
11
4.1378
21
-6.89499
0
LINE
8
BLACK
6
CONTINUOUS
10
4.1378
20
-6.89499
11
4.0703
21
-6.96249
0
LINE
8
BLACK
6
CONTINUOUS
10
4.0703
20
-6.96249
11
4.14342
21
-6.96249
0
LINE
8
BLACK
6
CONTINUOUS
10
4.25028
20
-6.84438
11
4.19404
21
-6.84438
0
LINE
8
BLACK
6
CONTINUOUS
10
4.19404
20
-6.84438
11
4.18841
21
-6.90062
0
LINE
8
BLACK
6
CONTINUOUS
10
4.18841
20
-6.90062
11
4.19404
21
-6.89499
0
LINE
8
BLACK
6
CONTINUOUS
10
4.19404
20
-6.89499
11
4.20529
21
-6.88937
0
LINE
8
BLACK
6
CONTINUOUS
10
4.20529
20
-6.88937
11
4.23341
21
-6.88937
0
LINE
8
BLACK
6
CONTINUOUS
10
4.23341
20
-6.88937
11
4.24466
21
-6.89499
0
LINE
8
BLACK
6
CONTINUOUS
10
4.24466
20
-6.89499
11
4.25028
21
-6.90062
0
LINE
8
BLACK
6
CONTINUOUS
10
4.25028
20
-6.90062
11
4.25591
21
-6.91187
0
LINE
8
BLACK
6
CONTINUOUS
10
4.25591
20
-6.91187
11
4.25591
21
-6.93999
0
LINE
8
BLACK
6
CONTINUOUS
10
4.25591
20
-6.93999
11
4.25028
21
-6.95124
0
LINE
8
BLACK
6
CONTINUOUS
10
4.25028
20
-6.95124
11
4.24466
21
-6.95686
0
LINE
8
BLACK
6
CONTINUOUS
10
4.24466
20
-6.95686
11
4.23341
21
-6.96249
0
LINE
8
BLACK
6
CONTINUOUS
10
4.23341
20
-6.96249
11
4.20529
21
-6.96249
0
LINE
8
BLACK
6
CONTINUOUS
10
4.20529
20
-6.96249
11
4.19404
21
-6.95686
0
LINE
8
BLACK
6
CONTINUOUS
10
4.19404
20
-6.95686
11
4.18841
21
-6.95124
0
LINE
8
BLACK
6
CONTINUOUS
10
4.39651
20
-6.96249
11
4.39651
21
-6.84438
0
LINE
8
BLACK
6
CONTINUOUS
10
4.44713
20
-6.96249
11
4.44713
21
-6.90062
0
LINE
8
BLACK
6
CONTINUOUS
10
4.44713
20
-6.90062
11
4.44151
21
-6.88937
0
LINE
8
BLACK
6
CONTINUOUS
10
4.44151
20
-6.88937
11
4.43026
21
-6.88375
0
LINE
8
BLACK
6
CONTINUOUS
10
4.43026
20
-6.88375
11
4.41339
21
-6.88375
0
LINE
8
BLACK
6
CONTINUOUS
10
4.41339
20
-6.88375
11
4.40214
21
-6.88937
0
LINE
8
BLACK
6
CONTINUOUS
10
4.40214
20
-6.88937
11
4.39651
21
-6.89499
0
LINE
8
BLACK
6
CONTINUOUS
10
4.52025
20
-6.96249
11
4.509
21
-6.95686
0
LINE
8
BLACK
6
CONTINUOUS
10
4.509
20
-6.95686
11
4.50337
21
-6.95124
0
LINE
8
BLACK
6
CONTINUOUS
10
4.50337
20
-6.95124
11
4.49775
21
-6.93999
0
LINE
8
BLACK
6
CONTINUOUS
10
4.49775
20
-6.93999
11
4.49775
21
-6.90624
0
LINE
8
BLACK
6
CONTINUOUS
10
4.49775
20
-6.90624
11
4.50337
21
-6.89499
0
LINE
8
BLACK
6
CONTINUOUS
10
4.50337
20
-6.89499
11
4.509
21
-6.88937
0
LINE
8
BLACK
6
CONTINUOUS
10
4.509
20
-6.88937
11
4.52025
21
-6.88375
0
LINE
8
BLACK
6
CONTINUOUS
10
4.52025
20
-6.88375
11
4.53712
21
-6.88375
0
LINE
8
BLACK
6
CONTINUOUS
10
4.53712
20
-6.88375
11
4.54837
21
-6.88937
0
LINE
8
BLACK
6
CONTINUOUS
10
4.54837
20
-6.88937
11
4.55399
21
-6.89499
0
LINE
8
BLACK
6
CONTINUOUS
10
4.55399
20
-6.89499
11
4.55962
21
-6.90624
0
LINE
8
BLACK
6
CONTINUOUS
10
4.55962
20
-6.90624
11
4.55962
21
-6.93999
0
LINE
8
BLACK
6
CONTINUOUS
10
4.55962
20
-6.93999
11
4.55399
21
-6.95124
0
LINE
8
BLACK
6
CONTINUOUS
10
4.55399
20
-6.95124
11
4.54837
21
-6.95686
0
LINE
8
BLACK
6
CONTINUOUS
10
4.54837
20
-6.95686
11
4.53712
21
-6.96249
0
LINE
8
BLACK
6
CONTINUOUS
10
4.53712
20
-6.96249
11
4.52025
21
-6.96249
0
LINE
8
BLACK
6
CONTINUOUS
10
4.62711
20
-6.96249
11
4.61586
21
-6.95686
0
LINE
8
BLACK
6
CONTINUOUS
10
4.61586
20
-6.95686
11
4.61024
21
-6.94561
0
LINE
8
BLACK
6
CONTINUOUS
10
4.61024
20
-6.94561
11
4.61024
21
-6.84438
0
LINE
8
BLACK
6
CONTINUOUS
10
4.7171
20
-6.95686
11
4.70585
21
-6.96249
0
LINE
8
BLACK
6
CONTINUOUS
10
4.70585
20
-6.96249
11
4.68335
21
-6.96249
0
LINE
8
BLACK
6
CONTINUOUS
10
4.68335
20
-6.96249
11
4.6721
21
-6.95686
0
LINE
8
BLACK
6
CONTINUOUS
10
4.6721
20
-6.95686
11
4.66648
21
-6.94561
0
LINE
8
BLACK
6
CONTINUOUS
10
4.66648
20
-6.94561
11
4.66648
21
-6.90062
0
LINE
8
BLACK
6
CONTINUOUS
10
4.66648
20
-6.90062
11
4.6721
21
-6.88937
0
LINE
8
BLACK
6
CONTINUOUS
10
4.6721
20
-6.88937
11
4.68335
21
-6.88375
0
LINE
8
BLACK
6
CONTINUOUS
10
4.68335
20
-6.88375
11
4.70585
21
-6.88375
0
LINE
8
BLACK
6
CONTINUOUS
10
4.70585
20
-6.88375
11
4.7171
21
-6.88937
0
LINE
8
BLACK
6
CONTINUOUS
10
4.7171
20
-6.88937
11
4.72272
21
-6.90062
0
LINE
8
BLACK
6
CONTINUOUS
10
4.72272
20
-6.90062
11
4.72272
21
-6.91187
0
LINE
8
BLACK
6
CONTINUOUS
10
4.72272
20
-6.91187
11
4.66648
21
-6.92312
0
LINE
8
BLACK
6
CONTINUOUS
10
4.76772
20
-6.95686
11
4.77897
21
-6.96249
0
LINE
8
BLACK
6
CONTINUOUS
10
4.77897
20
-6.96249
11
4.80146
21
-6.96249
0
LINE
8
BLACK
6
CONTINUOUS
10
4.80146
20
-6.96249
11
4.81271
21
-6.95686
0
LINE
8
BLACK
6
CONTINUOUS
10
4.81271
20
-6.95686
11
4.81834
21
-6.94561
0
LINE
8
BLACK
6
CONTINUOUS
10
4.81834
20
-6.94561
11
4.81834
21
-6.93999
0
LINE
8
BLACK
6
CONTINUOUS
10
4.81834
20
-6.93999
11
4.81271
21
-6.92874
0
LINE
8
BLACK
6
CONTINUOUS
10
4.81271
20
-6.92874
11
4.80146
21
-6.92312
0
LINE
8
BLACK
6
CONTINUOUS
10
4.80146
20
-6.92312
11
4.78459
21
-6.92312
0
LINE
8
BLACK
6
CONTINUOUS
10
4.78459
20
-6.92312
11
4.77334
21
-6.91749
0
LINE
8
BLACK
6
CONTINUOUS
10
4.77334
20
-6.91749
11
4.76772
21
-6.90624
0
LINE
8
BLACK
6
CONTINUOUS
10
4.76772
20
-6.90624
11
4.76772
21
-6.90062
0
LINE
8
BLACK
6
CONTINUOUS
10
4.76772
20
-6.90062
11
4.77334
21
-6.88937
0
LINE
8
BLACK
6
CONTINUOUS
10
4.77334
20
-6.88937
11
4.78459
21
-6.88375
0
LINE
8
BLACK
6
CONTINUOUS
10
4.78459
20
-6.88375
11
4.80146
21
-6.88375
0
LINE
8
BLACK
6
CONTINUOUS
10
4.80146
20
-6.88375
11
4.81271
21
-6.88937
0
LINE
8
BLACK
6
CONTINUOUS
10
4.85771
20
-7.00748
11
4.86333
21
-7.00186
0
LINE
8
BLACK
6
CONTINUOUS
10
4.86333
20
-7.00186
11
4.87458
21
-6.98498
0
LINE
8
BLACK
6
CONTINUOUS
10
4.87458
20
-6.98498
11
4.8802
21
-6.97373
0
LINE
8
BLACK
6
CONTINUOUS
10
4.8802
20
-6.97373
11
4.88583
21
-6.95686
0
LINE
8
BLACK
6
CONTINUOUS
10
4.88583
20
-6.95686
11
4.89145
21
-6.92874
0
LINE
8
BLACK
6
CONTINUOUS
10
4.89145
20
-6.92874
11
4.89145
21
-6.90624
0
LINE
8
BLACK
6
CONTINUOUS
10
4.89145
20
-6.90624
11
4.88583
21
-6.87812
0
LINE
8
BLACK
6
CONTINUOUS
10
4.88583
20
-6.87812
11
4.8802
21
-6.86125
0
LINE
8
BLACK
6
CONTINUOUS
10
4.8802
20
-6.86125
11
4.87458
21
-6.85
0
LINE
8
BLACK
6
CONTINUOUS
10
4.87458
20
-6.85
11
4.86333
21
-6.83313
0
LINE
8
BLACK
6
CONTINUOUS
10
4.86333
20
-6.83313
11
4.85771
21
-6.8275
0
LINE
8
BLACK
6
CONTINUOUS
10
1.84055
20
-7.00197
11
1.96654
21
-7.12795
0
LINE
8
BLACK
6
CONTINUOUS
10
1.96654
20
-7.00197
11
1.84055
21
-7.12795
0
CIRCLE
8
BLACK
10
1.90354
20
-7.06496
40
0.0629921
0
LINE
8
BLACK
6
CONTINUOUS
10
2.06805
20
-7.00028
11
2.14117
21
-7.00028
0
LINE
8
BLACK
6
CONTINUOUS
10
2.14117
20
-7.00028
11
2.1018
21
-7.04528
0
LINE
8
BLACK
6
CONTINUOUS
10
2.1018
20
-7.04528
11
2.11867
21
-7.04528
0
LINE
8
BLACK
6
CONTINUOUS
10
2.11867
20
-7.04528
11
2.12992
21
-7.0509
0
LINE
8
BLACK
6
CONTINUOUS
10
2.12992
20
-7.0509
11
2.13555
21
-7.05652
0
LINE
8
BLACK
6
CONTINUOUS
10
2.13555
20
-7.05652
11
2.14117
21
-7.06777
0
LINE
8
BLACK
6
CONTINUOUS
10
2.14117
20
-7.06777
11
2.14117
21
-7.09589
0
LINE
8
BLACK
6
CONTINUOUS
10
2.14117
20
-7.09589
11
2.13555
21
-7.10714
0
LINE
8
BLACK
6
CONTINUOUS
10
2.13555
20
-7.10714
11
2.12992
21
-7.11277
0
LINE
8
BLACK
6
CONTINUOUS
10
2.12992
20
-7.11277
11
2.11867
21
-7.11839
0
LINE
8
BLACK
6
CONTINUOUS
10
2.11867
20
-7.11839
11
2.08493
21
-7.11839
0
LINE
8
BLACK
6
CONTINUOUS
10
2.08493
20
-7.11839
11
2.07368
21
-7.11277
0
LINE
8
BLACK
6
CONTINUOUS
10
2.07368
20
-7.11277
11
2.06805
21
-7.10714
0
LINE
8
BLACK
6
CONTINUOUS
10
2.19179
20
-7.10714
11
2.19741
21
-7.11277
0
LINE
8
BLACK
6
CONTINUOUS
10
2.19741
20
-7.11277
11
2.19179
21
-7.11839
0
LINE
8
BLACK
6
CONTINUOUS
10
2.19179
20
-7.11839
11
2.18616
21
-7.11277
0
LINE
8
BLACK
6
CONTINUOUS
10
2.18616
20
-7.11277
11
2.19179
21
-7.10714
0
LINE
8
BLACK
6
CONTINUOUS
10
2.19179
20
-7.10714
11
2.19179
21
-7.11839
0
LINE
8
BLACK
6
CONTINUOUS
10
2.24241
20
-7.01153
11
2.24803
21
-7.00591
0
LINE
8
BLACK
6
CONTINUOUS
10
2.24803
20
-7.00591
11
2.25928
21
-7.00028
0
LINE
8
BLACK
6
CONTINUOUS
10
2.25928
20
-7.00028
11
2.2874
21
-7.00028
0
LINE
8
BLACK
6
CONTINUOUS
10
2.2874
20
-7.00028
11
2.29865
21
-7.00591
0
LINE
8
BLACK
6
CONTINUOUS
10
2.29865
20
-7.00591
11
2.30427
21
-7.01153
0
LINE
8
BLACK
6
CONTINUOUS
10
2.30427
20
-7.01153
11
2.3099
21
-7.02278
0
LINE
8
BLACK
6
CONTINUOUS
10
2.3099
20
-7.02278
11
2.3099
21
-7.03403
0
LINE
8
BLACK
6
CONTINUOUS
10
2.3099
20
-7.03403
11
2.30427
21
-7.0509
0
LINE
8
BLACK
6
CONTINUOUS
10
2.30427
20
-7.0509
11
2.23678
21
-7.11839
0
LINE
8
BLACK
6
CONTINUOUS
10
2.23678
20
-7.11839
11
2.3099
21
-7.11839
0
LINE
8
BLACK
6
CONTINUOUS
10
2.38301
20
-7.00028
11
2.39426
21
-7.00028
0
LINE
8
BLACK
6
CONTINUOUS
10
2.39426
20
-7.00028
11
2.40551
21
-7.00591
0
LINE
8
BLACK
6
CONTINUOUS
10
2.40551
20
-7.00591
11
2.41114
21
-7.01153
0
LINE
8
BLACK
6
CONTINUOUS
10
2.41114
20
-7.01153
11
2.41676
21
-7.02278
0
LINE
8
BLACK
6
CONTINUOUS
10
2.41676
20
-7.02278
11
2.42238
21
-7.04528
0
LINE
8
BLACK
6
CONTINUOUS
10
2.42238
20
-7.04528
11
2.42238
21
-7.0734
0
LINE
8
BLACK
6
CONTINUOUS
10
2.42238
20
-7.0734
11
2.41676
21
-7.09589
0
LINE
8
BLACK
6
CONTINUOUS
10
2.41676
20
-7.09589
11
2.41114
21
-7.10714
0
LINE
8
BLACK
6
CONTINUOUS
10
2.41114
20
-7.10714
11
2.40551
21
-7.11277
0
LINE
8
BLACK
6
CONTINUOUS
10
2.40551
20
-7.11277
11
2.39426
21
-7.11839
0
LINE
8
BLACK
6
CONTINUOUS
10
2.39426
20
-7.11839
11
2.38301
21
-7.11839
0
LINE
8
BLACK
6
CONTINUOUS
10
2.38301
20
-7.11839
11
2.37177
21
-7.11277
0
LINE
8
BLACK
6
CONTINUOUS
10
2.37177
20
-7.11277
11
2.36614
21
-7.10714
0
LINE
8
BLACK
6
CONTINUOUS
10
2.36614
20
-7.10714
11
2.36052
21
-7.09589
0
LINE
8
BLACK
6
CONTINUOUS
10
2.36052
20
-7.09589
11
2.35489
21
-7.0734
0
LINE
8
BLACK
6
CONTINUOUS
10
2.35489
20
-7.0734
11
2.35489
21
-7.04528
0
LINE
8
BLACK
6
CONTINUOUS
10
2.35489
20
-7.04528
11
2.36052
21
-7.02278
0
LINE
8
BLACK
6
CONTINUOUS
10
2.36052
20
-7.02278
11
2.36614
21
-7.01153
0
LINE
8
BLACK
6
CONTINUOUS
10
2.36614
20
-7.01153
11
2.37177
21
-7.00591
0
LINE
8
BLACK
6
CONTINUOUS
10
2.37177
20
-7.00591
11
2.38301
21
-7.00028
0
LINE
8
BLACK
6
CONTINUOUS
10
2.4955
20
-7.00028
11
2.50675
21
-7.00028
0
LINE
8
BLACK
6
CONTINUOUS
10
2.50675
20
-7.00028
11
2.518
21
-7.00591
0
LINE
8
BLACK
6
CONTINUOUS
10
2.518
20
-7.00591
11
2.52362
21
-7.01153
0
LINE
8
BLACK
6
CONTINUOUS
10
2.52362
20
-7.01153
11
2.52925
21
-7.02278
0
LINE
8
BLACK
6
CONTINUOUS
10
2.52925
20
-7.02278
11
2.53487
21
-7.04528
0
LINE
8
BLACK
6
CONTINUOUS
10
2.53487
20
-7.04528
11
2.53487
21
-7.0734
0
LINE
8
BLACK
6
CONTINUOUS
10
2.53487
20
-7.0734
11
2.52925
21
-7.09589
0
LINE
8
BLACK
6
CONTINUOUS
10
2.52925
20
-7.09589
11
2.52362
21
-7.10714
0
LINE
8
BLACK
6
CONTINUOUS
10
2.52362
20
-7.10714
11
2.518
21
-7.11277
0
LINE
8
BLACK
6
CONTINUOUS
10
2.518
20
-7.11277
11
2.50675
21
-7.11839
0
LINE
8
BLACK
6
CONTINUOUS
10
2.50675
20
-7.11839
11
2.4955
21
-7.11839
0
LINE
8
BLACK
6
CONTINUOUS
10
2.4955
20
-7.11839
11
2.48425
21
-7.11277
0
LINE
8
BLACK
6
CONTINUOUS
10
2.48425
20
-7.11277
11
2.47863
21
-7.10714
0
LINE
8
BLACK
6
CONTINUOUS
10
2.47863
20
-7.10714
11
2.473
21
-7.09589
0
LINE
8
BLACK
6
CONTINUOUS
10
2.473
20
-7.09589
11
2.46738
21
-7.0734
0
LINE
8
BLACK
6
CONTINUOUS
10
2.46738
20
-7.0734
11
2.46738
21
-7.04528
0
LINE
8
BLACK
6
CONTINUOUS
10
2.46738
20
-7.04528
11
2.473
21
-7.02278
0
LINE
8
BLACK
6
CONTINUOUS
10
2.473
20
-7.02278
11
2.47863
21
-7.01153
0
LINE
8
BLACK
6
CONTINUOUS
10
2.47863
20
-7.01153
11
2.48425
21
-7.00591
0
LINE
8
BLACK
6
CONTINUOUS
10
2.48425
20
-7.00591
11
2.4955
21
-7.00028
0
LINE
8
BLACK
6
CONTINUOUS
10
2.58549
20
-7.11839
11
2.58549
21
-7.03965
0
LINE
8
BLACK
6
CONTINUOUS
10
2.58549
20
-7.0509
11
2.59111
21
-7.04528
0
LINE
8
BLACK
6
CONTINUOUS
10
2.59111
20
-7.04528
11
2.60236
21
-7.03965
0
LINE
8
BLACK
6
CONTINUOUS
10
2.60236
20
-7.03965
11
2.61924
21
-7.03965
0
LINE
8
BLACK
6
CONTINUOUS
10
2.61924
20
-7.03965
11
2.63048
21
-7.04528
0
LINE
8
BLACK
6
CONTINUOUS
10
2.63048
20
-7.04528
11
2.63611
21
-7.05652
0
LINE
8
BLACK
6
CONTINUOUS
10
2.63611
20
-7.05652
11
2.63611
21
-7.11839
0
LINE
8
BLACK
6
CONTINUOUS
10
2.63611
20
-7.05652
11
2.64173
21
-7.04528
0
LINE
8
BLACK
6
CONTINUOUS
10
2.64173
20
-7.04528
11
2.65298
21
-7.03965
0
LINE
8
BLACK
6
CONTINUOUS
10
2.65298
20
-7.03965
11
2.66985
21
-7.03965
0
LINE
8
BLACK
6
CONTINUOUS
10
2.66985
20
-7.03965
11
2.6811
21
-7.04528
0
LINE
8
BLACK
6
CONTINUOUS
10
2.6811
20
-7.04528
11
2.68673
21
-7.05652
0
LINE
8
BLACK
6
CONTINUOUS
10
2.68673
20
-7.05652
11
2.68673
21
-7.11839
0
LINE
8
BLACK
6
CONTINUOUS
10
2.74297
20
-7.11839
11
2.74297
21
-7.03965
0
LINE
8
BLACK
6
CONTINUOUS
10
2.74297
20
-7.0509
11
2.74859
21
-7.04528
0
LINE
8
BLACK
6
CONTINUOUS
10
2.74859
20
-7.04528
11
2.75984
21
-7.03965
0
LINE
8
BLACK
6
CONTINUOUS
10
2.75984
20
-7.03965
11
2.77672
21
-7.03965
0
LINE
8
BLACK
6
CONTINUOUS
10
2.77672
20
-7.03965
11
2.78796
21
-7.04528
0
LINE
8
BLACK
6
CONTINUOUS
10
2.78796
20
-7.04528
11
2.79359
21
-7.05652
0
LINE
8
BLACK
6
CONTINUOUS
10
2.79359
20
-7.05652
11
2.79359
21
-7.11839
0
LINE
8
BLACK
6
CONTINUOUS
10
2.79359
20
-7.05652
11
2.79921
21
-7.04528
0
LINE
8
BLACK
6
CONTINUOUS
10
2.79921
20
-7.04528
11
2.81046
21
-7.03965
0
LINE
8
BLACK
6
CONTINUOUS
10
2.81046
20
-7.03965
11
2.82733
21
-7.03965
0
LINE
8
BLACK
6
CONTINUOUS
10
2.82733
20
-7.03965
11
2.83858
21
-7.04528
0
LINE
8
BLACK
6
CONTINUOUS
10
2.83858
20
-7.04528
11
2.84421
21
-7.05652
0
LINE
8
BLACK
6
CONTINUOUS
10
2.84421
20
-7.05652
11
2.84421
21
-7.11839
0
LINE
8
BLACK
6
CONTINUOUS
10
3.0748
20
-6.99466
11
2.97357
21
-7.14651
0
LINE
8
BLACK
6
CONTINUOUS
10
3.22666
20
-7.00028
11
3.23791
21
-7.00028
0
LINE
8
BLACK
6
CONTINUOUS
10
3.23791
20
-7.00028
11
3.24916
21
-7.00591
0
LINE
8
BLACK
6
CONTINUOUS
10
3.24916
20
-7.00591
11
3.25478
21
-7.01153
0
LINE
8
BLACK
6
CONTINUOUS
10
3.25478
20
-7.01153
11
3.2604
21
-7.02278
0
LINE
8
BLACK
6
CONTINUOUS
10
3.2604
20
-7.02278
11
3.26603
21
-7.04528
0
LINE
8
BLACK
6
CONTINUOUS
10
3.26603
20
-7.04528
11
3.26603
21
-7.0734
0
LINE
8
BLACK
6
CONTINUOUS
10
3.26603
20
-7.0734
11
3.2604
21
-7.09589
0
LINE
8
BLACK
6
CONTINUOUS
10
3.2604
20
-7.09589
11
3.25478
21
-7.10714
0
LINE
8
BLACK
6
CONTINUOUS
10
3.25478
20
-7.10714
11
3.24916
21
-7.11277
0
LINE
8
BLACK
6
CONTINUOUS
10
3.24916
20
-7.11277
11
3.23791
21
-7.11839
0
LINE
8
BLACK
6
CONTINUOUS
10
3.23791
20
-7.11839
11
3.22666
21
-7.11839
0
LINE
8
BLACK
6
CONTINUOUS
10
3.22666
20
-7.11839
11
3.21541
21
-7.11277
0
LINE
8
BLACK
6
CONTINUOUS
10
3.21541
20
-7.11277
11
3.20979
21
-7.10714
0
LINE
8
BLACK
6
CONTINUOUS
10
3.20979
20
-7.10714
11
3.20416
21
-7.09589
0
LINE
8
BLACK
6
CONTINUOUS
10
3.20416
20
-7.09589
11
3.19854
21
-7.0734
0
LINE
8
BLACK
6
CONTINUOUS
10
3.19854
20
-7.0734
11
3.19854
21
-7.04528
0
LINE
8
BLACK
6
CONTINUOUS
10
3.19854
20
-7.04528
11
3.20416
21
-7.02278
0
LINE
8
BLACK
6
CONTINUOUS
10
3.20416
20
-7.02278
11
3.20979
21
-7.01153
0
LINE
8
BLACK
6
CONTINUOUS
10
3.20979
20
-7.01153
11
3.21541
21
-7.00591
0
LINE
8
BLACK
6
CONTINUOUS
10
3.21541
20
-7.00591
11
3.22666
21
-7.00028
0
LINE
8
BLACK
6
CONTINUOUS
10
3.31665
20
-7.10714
11
3.32227
21
-7.11277
0
LINE
8
BLACK
6
CONTINUOUS
10
3.32227
20
-7.11277
11
3.31665
21
-7.11839
0
LINE
8
BLACK
6
CONTINUOUS
10
3.31665
20
-7.11839
11
3.31102
21
-7.11277
0
LINE
8
BLACK
6
CONTINUOUS
10
3.31102
20
-7.11277
11
3.31665
21
-7.10714
0
LINE
8
BLACK
6
CONTINUOUS
10
3.31665
20
-7.10714
11
3.31665
21
-7.11839
0
LINE
8
BLACK
6
CONTINUOUS
10
3.43476
20
-7.11839
11
3.36727
21
-7.11839
0
LINE
8
BLACK
6
CONTINUOUS
10
3.40101
20
-7.11839
11
3.40101
21
-7.00028
0
LINE
8
BLACK
6
CONTINUOUS
10
3.40101
20
-7.00028
11
3.38976
21
-7.01715
0
LINE
8
BLACK
6
CONTINUOUS
10
3.38976
20
-7.01715
11
3.37852
21
-7.0284
0
LINE
8
BLACK
6
CONTINUOUS
10
3.37852
20
-7.0284
11
3.36727
21
-7.03403
0
LINE
8
BLACK
6
CONTINUOUS
10
3.47975
20
-7.01153
11
3.48538
21
-7.00591
0
LINE
8
BLACK
6
CONTINUOUS
10
3.48538
20
-7.00591
11
3.49663
21
-7.00028
0
LINE
8
BLACK
6
CONTINUOUS
10
3.49663
20
-7.00028
11
3.52475
21
-7.00028
0
LINE
8
BLACK
6
CONTINUOUS
10
3.52475
20
-7.00028
11
3.536
21
-7.00591
0
LINE
8
BLACK
6
CONTINUOUS
10
3.536
20
-7.00591
11
3.54162
21
-7.01153
0
LINE
8
BLACK
6
CONTINUOUS
10
3.54162
20
-7.01153
11
3.54724
21
-7.02278
0
LINE
8
BLACK
6
CONTINUOUS
10
3.54724
20
-7.02278
11
3.54724
21
-7.03403
0
LINE
8
BLACK
6
CONTINUOUS
10
3.54724
20
-7.03403
11
3.54162
21
-7.0509
0
LINE
8
BLACK
6
CONTINUOUS
10
3.54162
20
-7.0509
11
3.47413
21
-7.11839
0
LINE
8
BLACK
6
CONTINUOUS
10
3.47413
20
-7.11839
11
3.54724
21
-7.11839
0
LINE
8
BLACK
6
CONTINUOUS
10
3.64848
20
-7.00028
11
3.62598
21
-7.00028
0
LINE
8
BLACK
6
CONTINUOUS
10
3.62598
20
-7.00028
11
3.61474
21
-7.00591
0
LINE
8
BLACK
6
CONTINUOUS
10
3.61474
20
-7.00591
11
3.60911
21
-7.01153
0
LINE
8
BLACK
6
CONTINUOUS
10
3.60911
20
-7.01153
11
3.59786
21
-7.0284
0
LINE
8
BLACK
6
CONTINUOUS
10
3.59786
20
-7.0284
11
3.59224
21
-7.0509
0
LINE
8
BLACK
6
CONTINUOUS
10
3.59224
20
-7.0509
11
3.59224
21
-7.09589
0
LINE
8
BLACK
6
CONTINUOUS
10
3.59224
20
-7.09589
11
3.59786
21
-7.10714
0
LINE
8
BLACK
6
CONTINUOUS
10
3.59786
20
-7.10714
11
3.60349
21
-7.11277
0
LINE
8
BLACK
6
CONTINUOUS
10
3.60349
20
-7.11277
11
3.61474
21
-7.11839
0
LINE
8
BLACK
6
CONTINUOUS
10
3.61474
20
-7.11839
11
3.63723
21
-7.11839
0
LINE
8
BLACK
6
CONTINUOUS
10
3.63723
20
-7.11839
11
3.64848
21
-7.11277
0
LINE
8
BLACK
6
CONTINUOUS
10
3.64848
20
-7.11277
11
3.65411
21
-7.10714
0
LINE
8
BLACK
6
CONTINUOUS
10
3.65411
20
-7.10714
11
3.65973
21
-7.09589
0
LINE
8
BLACK
6
CONTINUOUS
10
3.65973
20
-7.09589
11
3.65973
21
-7.06777
0
LINE
8
BLACK
6
CONTINUOUS
10
3.65973
20
-7.06777
11
3.65411
21
-7.05652
0
LINE
8
BLACK
6
CONTINUOUS
10
3.65411
20
-7.05652
11
3.64848
21
-7.0509
0
LINE
8
BLACK
6
CONTINUOUS
10
3.64848
20
-7.0509
11
3.63723
21
-7.04528
0
LINE
8
BLACK
6
CONTINUOUS
10
3.63723
20
-7.04528
11
3.61474
21
-7.04528
0
LINE
8
BLACK
6
CONTINUOUS
10
3.61474
20
-7.04528
11
3.60349
21
-7.0509
0
LINE
8
BLACK
6
CONTINUOUS
10
3.60349
20
-7.0509
11
3.59786
21
-7.05652
0
LINE
8
BLACK
6
CONTINUOUS
10
3.59786
20
-7.05652
11
3.59224
21
-7.06777
0
LINE
8
BLACK
6
CONTINUOUS
10
3.73285
20
-7.00028
11
3.74409
21
-7.00028
0
LINE
8
BLACK
6
CONTINUOUS
10
3.74409
20
-7.00028
11
3.75534
21
-7.00591
0
LINE
8
BLACK
6
CONTINUOUS
10
3.75534
20
-7.00591
11
3.76097
21
-7.01153
0
LINE
8
BLACK
6
CONTINUOUS
10
3.76097
20
-7.01153
11
3.76659
21
-7.02278
0
LINE
8
BLACK
6
CONTINUOUS
10
3.76659
20
-7.02278
11
3.77222
21
-7.04528
0
LINE
8
BLACK
6
CONTINUOUS
10
3.77222
20
-7.04528
11
3.77222
21
-7.0734
0
LINE
8
BLACK
6
CONTINUOUS
10
3.77222
20
-7.0734
11
3.76659
21
-7.09589
0
LINE
8
BLACK
6
CONTINUOUS
10
3.76659
20
-7.09589
11
3.76097
21
-7.10714
0
LINE
8
BLACK
6
CONTINUOUS
10
3.76097
20
-7.10714
11
3.75534
21
-7.11277
0
LINE
8
BLACK
6
CONTINUOUS
10
3.75534
20
-7.11277
11
3.74409
21
-7.11839
0
LINE
8
BLACK
6
CONTINUOUS
10
3.74409
20
-7.11839
11
3.73285
21
-7.11839
0
LINE
8
BLACK
6
CONTINUOUS
10
3.73285
20
-7.11839
11
3.7216
21
-7.11277
0
LINE
8
BLACK
6
CONTINUOUS
10
3.7216
20
-7.11277
11
3.71597
21
-7.10714
0
LINE
8
BLACK
6
CONTINUOUS
10
3.71597
20
-7.10714
11
3.71035
21
-7.09589
0
LINE
8
BLACK
6
CONTINUOUS
10
3.71035
20
-7.09589
11
3.70472
21
-7.0734
0
LINE
8
BLACK
6
CONTINUOUS
10
3.70472
20
-7.0734
11
3.70472
21
-7.04528
0
LINE
8
BLACK
6
CONTINUOUS
10
3.70472
20
-7.04528
11
3.71035
21
-7.02278
0
LINE
8
BLACK
6
CONTINUOUS
10
3.71035
20
-7.02278
11
3.71597
21
-7.01153
0
LINE
8
BLACK
6
CONTINUOUS
10
3.71597
20
-7.01153
11
3.7216
21
-7.00591
0
LINE
8
BLACK
6
CONTINUOUS
10
3.7216
20
-7.00591
11
3.73285
21
-7.00028
0
LINE
8
BLACK
6
CONTINUOUS
10
3.81721
20
-7.00028
11
3.81721
21
-7.02278
0
LINE
8
BLACK
6
CONTINUOUS
10
3.8622
20
-7.00028
11
3.8622
21
-7.02278
0
LINE
8
BLACK
6
CONTINUOUS
10
4.03656
20
-7.16339
11
4.03093
21
-7.15776
0
LINE
8
BLACK
6
CONTINUOUS
10
4.03093
20
-7.15776
11
4.01968
21
-7.14089
0
LINE
8
BLACK
6
CONTINUOUS
10
4.01968
20
-7.14089
11
4.01406
21
-7.12964
0
LINE
8
BLACK
6
CONTINUOUS
10
4.01406
20
-7.12964
11
4.00844
21
-7.11277
0
LINE
8
BLACK
6
CONTINUOUS
10
4.00844
20
-7.11277
11
4.00281
21
-7.08465
0
LINE
8
BLACK
6
CONTINUOUS
10
4.00281
20
-7.08465
11
4.00281
21
-7.06215
0
LINE
8
BLACK
6
CONTINUOUS
10
4.00281
20
-7.06215
11
4.00844
21
-7.03403
0
LINE
8
BLACK
6
CONTINUOUS
10
4.00844
20
-7.03403
11
4.01406
21
-7.01715
0
LINE
8
BLACK
6
CONTINUOUS
10
4.01406
20
-7.01715
11
4.01968
21
-7.00591
0
LINE
8
BLACK
6
CONTINUOUS
10
4.01968
20
-7.00591
11
4.03093
21
-6.98903
0
LINE
8
BLACK
6
CONTINUOUS
10
4.03093
20
-6.98903
11
4.03656
21
-6.98341
0
LINE
8
BLACK
6
CONTINUOUS
10
4.13217
20
-7.00028
11
4.10967
21
-7.00028
0
LINE
8
BLACK
6
CONTINUOUS
10
4.10967
20
-7.00028
11
4.09843
21
-7.00591
0
LINE
8
BLACK
6
CONTINUOUS
10
4.09843
20
-7.00591
11
4.0928
21
-7.01153
0
LINE
8
BLACK
6
CONTINUOUS
10
4.0928
20
-7.01153
11
4.08155
21
-7.0284
0
LINE
8
BLACK
6
CONTINUOUS
10
4.08155
20
-7.0284
11
4.07593
21
-7.0509
0
LINE
8
BLACK
6
CONTINUOUS
10
4.07593
20
-7.0509
11
4.07593
21
-7.09589
0
LINE
8
BLACK
6
CONTINUOUS
10
4.07593
20
-7.09589
11
4.08155
21
-7.10714
0
LINE
8
BLACK
6
CONTINUOUS
10
4.08155
20
-7.10714
11
4.08718
21
-7.11277
0
LINE
8
BLACK
6
CONTINUOUS
10
4.08718
20
-7.11277
11
4.09843
21
-7.11839
0
LINE
8
BLACK
6
CONTINUOUS
10
4.09843
20
-7.11839
11
4.12092
21
-7.11839
0
LINE
8
BLACK
6
CONTINUOUS
10
4.12092
20
-7.11839
11
4.13217
21
-7.11277
0
LINE
8
BLACK
6
CONTINUOUS
10
4.13217
20
-7.11277
11
4.1378
21
-7.10714
0
LINE
8
BLACK
6
CONTINUOUS
10
4.1378
20
-7.10714
11
4.14342
21
-7.09589
0
LINE
8
BLACK
6
CONTINUOUS
10
4.14342
20
-7.09589
11
4.14342
21
-7.06777
0
LINE
8
BLACK
6
CONTINUOUS
10
4.14342
20
-7.06777
11
4.1378
21
-7.05652
0
LINE
8
BLACK
6
CONTINUOUS
10
4.1378
20
-7.05652
11
4.13217
21
-7.0509
0
LINE
8
BLACK
6
CONTINUOUS
10
4.13217
20
-7.0509
11
4.12092
21
-7.04528
0
LINE
8
BLACK
6
CONTINUOUS
10
4.12092
20
-7.04528
11
4.09843
21
-7.04528
0
LINE
8
BLACK
6
CONTINUOUS
10
4.09843
20
-7.04528
11
4.08718
21
-7.0509
0
LINE
8
BLACK
6
CONTINUOUS
10
4.08718
20
-7.0509
11
4.08155
21
-7.05652
0
LINE
8
BLACK
6
CONTINUOUS
10
4.08155
20
-7.05652
11
4.07593
21
-7.06777
0
LINE
8
BLACK
6
CONTINUOUS
10
4.28403
20
-7.11839
11
4.28403
21
-7.00028
0
LINE
8
BLACK
6
CONTINUOUS
10
4.33465
20
-7.11839
11
4.33465
21
-7.05652
0
LINE
8
BLACK
6
CONTINUOUS
10
4.33465
20
-7.05652
11
4.32902
21
-7.04528
0
LINE
8
BLACK
6
CONTINUOUS
10
4.32902
20
-7.04528
11
4.31777
21
-7.03965
0
LINE
8
BLACK
6
CONTINUOUS
10
4.31777
20
-7.03965
11
4.3009
21
-7.03965
0
LINE
8
BLACK
6
CONTINUOUS
10
4.3009
20
-7.03965
11
4.28965
21
-7.04528
0
LINE
8
BLACK
6
CONTINUOUS
10
4.28965
20
-7.04528
11
4.28403
21
-7.0509
0
LINE
8
BLACK
6
CONTINUOUS
10
4.40776
20
-7.11839
11
4.39651
21
-7.11277
0
LINE
8
BLACK
6
CONTINUOUS
10
4.39651
20
-7.11277
11
4.39089
21
-7.10714
0
LINE
8
BLACK
6
CONTINUOUS
10
4.39089
20
-7.10714
11
4.38526
21
-7.09589
0
LINE
8
BLACK
6
CONTINUOUS
10
4.38526
20
-7.09589
11
4.38526
21
-7.06215
0
LINE
8
BLACK
6
CONTINUOUS
10
4.38526
20
-7.06215
11
4.39089
21
-7.0509
0
LINE
8
BLACK
6
CONTINUOUS
10
4.39089
20
-7.0509
11
4.39651
21
-7.04528
0
LINE
8
BLACK
6
CONTINUOUS
10
4.39651
20
-7.04528
11
4.40776
21
-7.03965
0
LINE
8
BLACK
6
CONTINUOUS
10
4.40776
20
-7.03965
11
4.42463
21
-7.03965
0
LINE
8
BLACK
6
CONTINUOUS
10
4.42463
20
-7.03965
11
4.43588
21
-7.04528
0
LINE
8
BLACK
6
CONTINUOUS
10
4.43588
20
-7.04528
11
4.44151
21
-7.0509
0
LINE
8
BLACK
6
CONTINUOUS
10
4.44151
20
-7.0509
11
4.44713
21
-7.06215
0
LINE
8
BLACK
6
CONTINUOUS
10
4.44713
20
-7.06215
11
4.44713
21
-7.09589
0
LINE
8
BLACK
6
CONTINUOUS
10
4.44713
20
-7.09589
11
4.44151
21
-7.10714
0
LINE
8
BLACK
6
CONTINUOUS
10
4.44151
20
-7.10714
11
4.43588
21
-7.11277
0
LINE
8
BLACK
6
CONTINUOUS
10
4.43588
20
-7.11277
11
4.42463
21
-7.11839
0
LINE
8
BLACK
6
CONTINUOUS
10
4.42463
20
-7.11839
11
4.40776
21
-7.11839
0
LINE
8
BLACK
6
CONTINUOUS
10
4.51462
20
-7.11839
11
4.50337
21
-7.11277
0
LINE
8
BLACK
6
CONTINUOUS
10
4.50337
20
-7.11277
11
4.49775
21
-7.10152
0
LINE
8
BLACK
6
CONTINUOUS
10
4.49775
20
-7.10152
11
4.49775
21
-7.00028
0
LINE
8
BLACK
6
CONTINUOUS
10
4.60461
20
-7.11277
11
4.59336
21
-7.11839
0
LINE
8
BLACK
6
CONTINUOUS
10
4.59336
20
-7.11839
11
4.57087
21
-7.11839
0
LINE
8
BLACK
6
CONTINUOUS
10
4.57087
20
-7.11839
11
4.55962
21
-7.11277
0
LINE
8
BLACK
6
CONTINUOUS
10
4.55962
20
-7.11277
11
4.55399
21
-7.10152
0
LINE
8
BLACK
6
CONTINUOUS
10
4.55399
20
-7.10152
11
4.55399
21
-7.05652
0
LINE
8
BLACK
6
CONTINUOUS
10
4.55399
20
-7.05652
11
4.55962
21
-7.04528
0
LINE
8
BLACK
6
CONTINUOUS
10
4.55962
20
-7.04528
11
4.57087
21
-7.03965
0
LINE
8
BLACK
6
CONTINUOUS
10
4.57087
20
-7.03965
11
4.59336
21
-7.03965
0
LINE
8
BLACK
6
CONTINUOUS
10
4.59336
20
-7.03965
11
4.60461
21
-7.04528
0
LINE
8
BLACK
6
CONTINUOUS
10
4.60461
20
-7.04528
11
4.61024
21
-7.05652
0
LINE
8
BLACK
6
CONTINUOUS
10
4.61024
20
-7.05652
11
4.61024
21
-7.06777
0
LINE
8
BLACK
6
CONTINUOUS
10
4.61024
20
-7.06777
11
4.55399
21
-7.07902
0
LINE
8
BLACK
6
CONTINUOUS
10
4.65523
20
-7.11277
11
4.66648
21
-7.11839
0
LINE
8
BLACK
6
CONTINUOUS
10
4.66648
20
-7.11839
11
4.68898
21
-7.11839
0
LINE
8
BLACK
6
CONTINUOUS
10
4.68898
20
-7.11839
11
4.70022
21
-7.11277
0
LINE
8
BLACK
6
CONTINUOUS
10
4.70022
20
-7.11277
11
4.70585
21
-7.10152
0
LINE
8
BLACK
6
CONTINUOUS
10
4.70585
20
-7.10152
11
4.70585
21
-7.09589
0
LINE
8
BLACK
6
CONTINUOUS
10
4.70585
20
-7.09589
11
4.70022
21
-7.08465
0
LINE
8
BLACK
6
CONTINUOUS
10
4.70022
20
-7.08465
11
4.68898
21
-7.07902
0
LINE
8
BLACK
6
CONTINUOUS
10
4.68898
20
-7.07902
11
4.6721
21
-7.07902
0
LINE
8
BLACK
6
CONTINUOUS
10
4.6721
20
-7.07902
11
4.66085
21
-7.0734
0
LINE
8
BLACK
6
CONTINUOUS
10
4.66085
20
-7.0734
11
4.65523
21
-7.06215
0
LINE
8
BLACK
6
CONTINUOUS
10
4.65523
20
-7.06215
11
4.65523
21
-7.05652
0
LINE
8
BLACK
6
CONTINUOUS
10
4.65523
20
-7.05652
11
4.66085
21
-7.04528
0
LINE
8
BLACK
6
CONTINUOUS
10
4.66085
20
-7.04528
11
4.6721
21
-7.03965
0
LINE
8
BLACK
6
CONTINUOUS
10
4.6721
20
-7.03965
11
4.68898
21
-7.03965
0
LINE
8
BLACK
6
CONTINUOUS
10
4.68898
20
-7.03965
11
4.70022
21
-7.04528
0
LINE
8
BLACK
6
CONTINUOUS
10
4.74522
20
-7.16339
11
4.75084
21
-7.15776
0
LINE
8
BLACK
6
CONTINUOUS
10
4.75084
20
-7.15776
11
4.76209
21
-7.14089
0
LINE
8
BLACK
6
CONTINUOUS
10
4.76209
20
-7.14089
11
4.76772
21
-7.12964
0
LINE
8
BLACK
6
CONTINUOUS
10
4.76772
20
-7.12964
11
4.77334
21
-7.11277
0
LINE
8
BLACK
6
CONTINUOUS
10
4.77334
20
-7.11277
11
4.77897
21
-7.08465
0
LINE
8
BLACK
6
CONTINUOUS
10
4.77897
20
-7.08465
11
4.77897
21
-7.06215
0
LINE
8
BLACK
6
CONTINUOUS
10
4.77897
20
-7.06215
11
4.77334
21
-7.03403
0
LINE
8
BLACK
6
CONTINUOUS
10
4.77334
20
-7.03403
11
4.76772
21
-7.01715
0
LINE
8
BLACK
6
CONTINUOUS
10
4.76772
20
-7.01715
11
4.76209
21
-7.00591
0
LINE
8
BLACK
6
CONTINUOUS
10
4.76209
20
-7.00591
11
4.75084
21
-6.98903
0
LINE
8
BLACK
6
CONTINUOUS
10
4.75084
20
-6.98903
11
4.74522
21
-6.98341
  0
ENDSEC
  0
EOF
