  0
SECTION
  2
HEADER
  9
$ANGBASE
  50
0.0
  9
$ANGDIR
  70
1
  9
$MEASUREMENT
  70
0
  0
ENDSEC
  0
SECTION
  2
TABLES
  0
TABLE
  2
LTYPE
  70
4
  0
LTYPE
  5
40F
  2
CONTINUOUS
  70
0
  3
Solid line
  72
65
  73
0
  40
0.0
  0
LTYPE
  5
410
  2
DASHDOT
 70
0
  3
Dash Dot ____ _ ____ _
 72
65
 73
4
 40
2.0
 49
1.25
 49
-0.25
 49
0.25
 49
-0.25
  0
LTYPE
  5
411
  2
DASHED
 70
0
  3
Dashed __ __ __ __ __
 72
65
 73
2
 40
0.75
 49
0.5
 49
-0.25
  0
LTYPE
  5
43B
  2
DOTTED
 70
0
  3
Dotted .  .  .  .
 72
65
 73
2
 40
0.2
 49
0.0
 49
-0.2
  0
ENDTAB
  0
TABLE
  2
STYLE
  70
4
  0
STYLE
  2
KICAD
  70
0
  40
0
  41
1
  42
1
  50
0
  71
0
  3
isocp.shx
  0
STYLE
  2
KICADB
  70
0
  40
0
  41
1
  42
1
  50
0
  71
0
  3
isocp.shx
  0
STYLE
  2
KICADI
  70
0
  40
0
  41
1
  42
1
  50
15
  71
0
  3
isocp.shx
  0
STYLE
  2
KICADBI
  70
0
  40
0
  41
1
  42
1
  50
15
  71
0
  3
isocp.shx
  0
ENDTAB
  0
TABLE
  2
LAYER
  70
1
  0
LAYER
  2
BLACK
  70
0
  62
7
  6
CONTINUOUS
  0
ENDTAB
  0
ENDSEC
  0
SECTION
  2
ENTITIES
0
LINE
8
BLACK
6
CONTINUOUS
10
1.9685
20
-1.9685
11
1.9685
21
-5.90551
0
LINE
8
BLACK
6
CONTINUOUS
10
7.87402
20
-1.9685
11
1.9685
21
-1.9685
0
LINE
8
BLACK
6
CONTINUOUS
10
7.87402
20
-5.90551
11
7.87402
21
-1.9685
0
LINE
8
BLACK
6
CONTINUOUS
10
1.9685
20
-5.90551
11
7.87402
21
-5.90551
0
LINE
8
BLACK
6
CONTINUOUS
10
2.0793
20
-6.09083
11
2.0793
21
-5.97272
0
LINE
8
BLACK
6
CONTINUOUS
10
2.0793
20
-5.97272
11
2.10742
21
-5.97272
0
LINE
8
BLACK
6
CONTINUOUS
10
2.10742
20
-5.97272
11
2.1243
21
-5.97835
0
LINE
8
BLACK
6
CONTINUOUS
10
2.1243
20
-5.97835
11
2.13555
21
-5.9896
0
LINE
8
BLACK
6
CONTINUOUS
10
2.13555
20
-5.9896
11
2.14117
21
-6.00084
0
LINE
8
BLACK
6
CONTINUOUS
10
2.14117
20
-6.00084
11
2.14679
21
-6.02334
0
LINE
8
BLACK
6
CONTINUOUS
10
2.14679
20
-6.02334
11
2.14679
21
-6.04021
0
LINE
8
BLACK
6
CONTINUOUS
10
2.14679
20
-6.04021
11
2.14117
21
-6.06271
0
LINE
8
BLACK
6
CONTINUOUS
10
2.14117
20
-6.06271
11
2.13555
21
-6.07396
0
LINE
8
BLACK
6
CONTINUOUS
10
2.13555
20
-6.07396
11
2.1243
21
-6.08521
0
LINE
8
BLACK
6
CONTINUOUS
10
2.1243
20
-6.08521
11
2.10742
21
-6.09083
0
LINE
8
BLACK
6
CONTINUOUS
10
2.10742
20
-6.09083
11
2.0793
21
-6.09083
0
LINE
8
BLACK
6
CONTINUOUS
10
2.19741
20
-6.09083
11
2.19741
21
-6.01209
0
LINE
8
BLACK
6
CONTINUOUS
10
2.19741
20
-6.03459
11
2.20304
21
-6.02334
0
LINE
8
BLACK
6
CONTINUOUS
10
2.20304
20
-6.02334
11
2.20866
21
-6.01772
0
LINE
8
BLACK
6
CONTINUOUS
10
2.20866
20
-6.01772
11
2.21991
21
-6.01209
0
LINE
8
BLACK
6
CONTINUOUS
10
2.21991
20
-6.01209
11
2.23116
21
-6.01209
0
LINE
8
BLACK
6
CONTINUOUS
10
2.27053
20
-6.09083
11
2.27053
21
-6.01209
0
LINE
8
BLACK
6
CONTINUOUS
10
2.27053
20
-5.97272
11
2.2649
21
-5.97835
0
LINE
8
BLACK
6
CONTINUOUS
10
2.2649
20
-5.97835
11
2.27053
21
-5.98397
0
LINE
8
BLACK
6
CONTINUOUS
10
2.27053
20
-5.98397
11
2.27615
21
-5.97835
0
LINE
8
BLACK
6
CONTINUOUS
10
2.27615
20
-5.97835
11
2.27053
21
-5.97272
0
LINE
8
BLACK
6
CONTINUOUS
10
2.27053
20
-5.97272
11
2.27053
21
-5.98397
0
LINE
8
BLACK
6
CONTINUOUS
10
2.34364
20
-6.09083
11
2.3324
21
-6.08521
0
LINE
8
BLACK
6
CONTINUOUS
10
2.3324
20
-6.08521
11
2.32677
21
-6.07396
0
LINE
8
BLACK
6
CONTINUOUS
10
2.32677
20
-6.07396
11
2.32677
21
-5.97272
0
LINE
8
BLACK
6
CONTINUOUS
10
2.40551
20
-6.09083
11
2.39426
21
-6.08521
0
LINE
8
BLACK
6
CONTINUOUS
10
2.39426
20
-6.08521
11
2.38864
21
-6.07396
0
LINE
8
BLACK
6
CONTINUOUS
10
2.38864
20
-6.07396
11
2.38864
21
-5.97272
0
LINE
8
BLACK
6
CONTINUOUS
10
2.54049
20
-6.09083
11
2.54049
21
-5.97272
0
LINE
8
BLACK
6
CONTINUOUS
10
2.54049
20
-5.97272
11
2.57986
21
-6.05709
0
LINE
8
BLACK
6
CONTINUOUS
10
2.57986
20
-6.05709
11
2.61924
21
-5.97272
0
LINE
8
BLACK
6
CONTINUOUS
10
2.61924
20
-5.97272
11
2.61924
21
-6.09083
0
LINE
8
BLACK
6
CONTINUOUS
10
2.7261
20
-6.09083
11
2.7261
21
-6.02897
0
LINE
8
BLACK
6
CONTINUOUS
10
2.7261
20
-6.02897
11
2.72047
21
-6.01772
0
LINE
8
BLACK
6
CONTINUOUS
10
2.72047
20
-6.01772
11
2.70922
21
-6.01209
0
LINE
8
BLACK
6
CONTINUOUS
10
2.70922
20
-6.01209
11
2.68673
21
-6.01209
0
LINE
8
BLACK
6
CONTINUOUS
10
2.68673
20
-6.01209
11
2.67548
21
-6.01772
0
LINE
8
BLACK
6
CONTINUOUS
10
2.7261
20
-6.08521
11
2.71485
21
-6.09083
0
LINE
8
BLACK
6
CONTINUOUS
10
2.71485
20
-6.09083
11
2.68673
21
-6.09083
0
LINE
8
BLACK
6
CONTINUOUS
10
2.68673
20
-6.09083
11
2.67548
21
-6.08521
0
LINE
8
BLACK
6
CONTINUOUS
10
2.67548
20
-6.08521
11
2.66985
21
-6.07396
0
LINE
8
BLACK
6
CONTINUOUS
10
2.66985
20
-6.07396
11
2.66985
21
-6.06271
0
LINE
8
BLACK
6
CONTINUOUS
10
2.66985
20
-6.06271
11
2.67548
21
-6.05146
0
LINE
8
BLACK
6
CONTINUOUS
10
2.67548
20
-6.05146
11
2.68673
21
-6.04584
0
LINE
8
BLACK
6
CONTINUOUS
10
2.68673
20
-6.04584
11
2.71485
21
-6.04584
0
LINE
8
BLACK
6
CONTINUOUS
10
2.71485
20
-6.04584
11
2.7261
21
-6.04021
0
LINE
8
BLACK
6
CONTINUOUS
10
2.78234
20
-6.01209
11
2.78234
21
-6.1302
0
LINE
8
BLACK
6
CONTINUOUS
10
2.78234
20
-6.01772
11
2.79359
21
-6.01209
0
LINE
8
BLACK
6
CONTINUOUS
10
2.79359
20
-6.01209
11
2.81609
21
-6.01209
0
LINE
8
BLACK
6
CONTINUOUS
10
2.81609
20
-6.01209
11
2.82733
21
-6.01772
0
LINE
8
BLACK
6
CONTINUOUS
10
2.82733
20
-6.01772
11
2.83296
21
-6.02334
0
LINE
8
BLACK
6
CONTINUOUS
10
2.83296
20
-6.02334
11
2.83858
21
-6.03459
0
LINE
8
BLACK
6
CONTINUOUS
10
2.83858
20
-6.03459
11
2.83858
21
-6.06834
0
LINE
8
BLACK
6
CONTINUOUS
10
2.83858
20
-6.06834
11
2.83296
21
-6.07958
0
LINE
8
BLACK
6
CONTINUOUS
10
2.83296
20
-6.07958
11
2.82733
21
-6.08521
0
LINE
8
BLACK
6
CONTINUOUS
10
2.82733
20
-6.08521
11
2.81609
21
-6.09083
0
LINE
8
BLACK
6
CONTINUOUS
10
2.81609
20
-6.09083
11
2.79359
21
-6.09083
0
LINE
8
BLACK
6
CONTINUOUS
10
2.79359
20
-6.09083
11
2.78234
21
-6.08521
0
LINE
8
BLACK
6
CONTINUOUS
10
2.8892
20
-6.07958
11
2.89483
21
-6.08521
0
LINE
8
BLACK
6
CONTINUOUS
10
2.89483
20
-6.08521
11
2.8892
21
-6.09083
0
LINE
8
BLACK
6
CONTINUOUS
10
2.8892
20
-6.09083
11
2.88358
21
-6.08521
0
LINE
8
BLACK
6
CONTINUOUS
10
2.88358
20
-6.08521
11
2.8892
21
-6.07958
0
LINE
8
BLACK
6
CONTINUOUS
10
2.8892
20
-6.07958
11
2.8892
21
-6.09083
0
LINE
8
BLACK
6
CONTINUOUS
10
2.8892
20
-6.01772
11
2.89483
21
-6.02334
0
LINE
8
BLACK
6
CONTINUOUS
10
2.89483
20
-6.02334
11
2.8892
21
-6.02897
0
LINE
8
BLACK
6
CONTINUOUS
10
2.8892
20
-6.02897
11
2.88358
21
-6.02334
0
LINE
8
BLACK
6
CONTINUOUS
10
2.88358
20
-6.02334
11
2.8892
21
-6.01772
0
LINE
8
BLACK
6
CONTINUOUS
10
2.8892
20
-6.01772
11
2.8892
21
-6.02897
  0
ENDSEC
  0
EOF
