%TF.GenerationSoftware,KiCad,Pcbnew,(5.1.10-1-10_14)*%
%TF.CreationDate,2021-06-29T18:24:10+10:00*%
%TF.ProjectId,Keyboard interface,4b657962-6f61-4726-9420-696e74657266,rev?*%
%TF.SameCoordinates,Original*%
%TF.FileFunction,Copper,L2,Bot*%
%TF.FilePolarity,Positive*%
%FSLAX46Y46*%
G04 Gerber Fmt 4.6, Leading zero omitted, Abs format (unit mm)*
G04 Created by KiCad (PCBNEW (5.1.10-1-10_14)) date 2021-06-29 18:24:10*
%MOMM*%
%LPD*%
G01*
G04 APERTURE LIST*
%TA.AperFunction,ComponentPad*%
%ADD10R,1.700000X1.700000*%
%TD*%
%TA.AperFunction,ComponentPad*%
%ADD11C,1.800000*%
%TD*%
%TA.AperFunction,ComponentPad*%
%ADD12R,1.800000X1.800000*%
%TD*%
%TA.AperFunction,ComponentPad*%
%ADD13C,0.800000*%
%TD*%
%TA.AperFunction,ComponentPad*%
%ADD14C,6.400000*%
%TD*%
%TA.AperFunction,ComponentPad*%
%ADD15C,1.600000*%
%TD*%
%TA.AperFunction,ComponentPad*%
%ADD16O,1.600000X1.600000*%
%TD*%
%TA.AperFunction,ComponentPad*%
%ADD17R,1.600000X1.600000*%
%TD*%
%TA.AperFunction,ComponentPad*%
%ADD18O,1.700000X1.700000*%
%TD*%
%TA.AperFunction,ViaPad*%
%ADD19C,1.500000*%
%TD*%
%TA.AperFunction,ViaPad*%
%ADD20C,0.800000*%
%TD*%
%TA.AperFunction,Conductor*%
%ADD21C,0.500000*%
%TD*%
%TA.AperFunction,Conductor*%
%ADD22C,1.500000*%
%TD*%
%TA.AperFunction,Conductor*%
%ADD23C,2.000000*%
%TD*%
%TA.AperFunction,Conductor*%
%ADD24C,0.254000*%
%TD*%
%TA.AperFunction,Conductor*%
%ADD25C,0.100000*%
%TD*%
G04 APERTURE END LIST*
D10*
%TO.P,J3,1*%
%TO.N,GND*%
X75000000Y-145000000D03*
%TD*%
D11*
%TO.P,D6,2*%
%TO.N,Net-(D6-Pad2)*%
X195000000Y-131160000D03*
D12*
%TO.P,D6,1*%
%TO.N,Net-(D6-Pad1)*%
X195000000Y-133700000D03*
%TD*%
D11*
%TO.P,D5,2*%
%TO.N,Net-(D5-Pad2)*%
X195000000Y-124700000D03*
D12*
%TO.P,D5,1*%
%TO.N,Net-(D5-Pad1)*%
X195000000Y-127240000D03*
%TD*%
D11*
%TO.P,D4,2*%
%TO.N,Net-(D4-Pad2)*%
X195000000Y-118160000D03*
D12*
%TO.P,D4,1*%
%TO.N,Net-(D4-Pad1)*%
X195000000Y-120700000D03*
%TD*%
D11*
%TO.P,D3,2*%
%TO.N,Net-(D3-Pad2)*%
X195000000Y-111700000D03*
D12*
%TO.P,D3,1*%
%TO.N,Net-(D3-Pad1)*%
X195000000Y-114240000D03*
%TD*%
D11*
%TO.P,D2,2*%
%TO.N,Net-(D2-Pad2)*%
X195000000Y-105160000D03*
D12*
%TO.P,D2,1*%
%TO.N,Net-(D2-Pad1)*%
X195000000Y-107700000D03*
%TD*%
D11*
%TO.P,D1,2*%
%TO.N,Net-(D1-Pad2)*%
X195000000Y-98700000D03*
D12*
%TO.P,D1,1*%
%TO.N,Net-(D1-Pad1)*%
X195000000Y-101240000D03*
%TD*%
D13*
%TO.P,H6,1*%
%TO.N,GND*%
X152197056Y-143302944D03*
X150500000Y-142600000D03*
X148802944Y-143302944D03*
X148100000Y-145000000D03*
X148802944Y-146697056D03*
X150500000Y-147400000D03*
X152197056Y-146697056D03*
X152900000Y-145000000D03*
D14*
X150500000Y-145000000D03*
%TD*%
D13*
%TO.P,H5,1*%
%TO.N,GND*%
X152197056Y-53500000D03*
X150500000Y-52797056D03*
X148802944Y-53500000D03*
X148100000Y-55197056D03*
X148802944Y-56894112D03*
X150500000Y-57597056D03*
X152197056Y-56894112D03*
X152900000Y-55197056D03*
D14*
X150500000Y-55197056D03*
%TD*%
D15*
%TO.P,C2,2*%
%TO.N,Net-(C2-Pad2)*%
X108500000Y-73000000D03*
%TO.P,C2,1*%
%TO.N,Net-(C2-Pad1)*%
X108500000Y-78000000D03*
%TD*%
%TO.P,C1,2*%
%TO.N,Net-(C1-Pad2)*%
X88500000Y-81000000D03*
%TO.P,C1,1*%
%TO.N,Net-(C1-Pad1)*%
X88500000Y-76000000D03*
%TD*%
D16*
%TO.P,D43,2*%
%TO.N,F*%
X151130000Y-126365000D03*
D17*
%TO.P,D43,1*%
%TO.N,LF*%
X151130000Y-131445000D03*
%TD*%
D16*
%TO.P,D42,2*%
%TO.N,A*%
X148590000Y-118745000D03*
D17*
%TO.P,D42,1*%
%TO.N,LF*%
X148590000Y-131445000D03*
%TD*%
D16*
%TO.P,D41,2*%
%TO.N,D*%
X146050000Y-121285000D03*
D17*
%TO.P,D41,1*%
%TO.N,LF*%
X146050000Y-131445000D03*
%TD*%
D16*
%TO.P,D40,2*%
%TO.N,A*%
X143510000Y-118745000D03*
D17*
%TO.P,D40,1*%
%TO.N,DIV*%
X143510000Y-131445000D03*
%TD*%
D16*
%TO.P,D39,2*%
%TO.N,F*%
X140970000Y-126365000D03*
D17*
%TO.P,D39,1*%
%TO.N,DIV*%
X140970000Y-131445000D03*
%TD*%
D16*
%TO.P,D38,2*%
%TO.N,A*%
X138430000Y-118745000D03*
D17*
%TO.P,D38,1*%
%TO.N,X*%
X138430000Y-131445000D03*
%TD*%
D16*
%TO.P,D37,2*%
%TO.N,E*%
X135890000Y-123825000D03*
D17*
%TO.P,D37,1*%
%TO.N,X*%
X135890000Y-131445000D03*
%TD*%
D16*
%TO.P,D36,2*%
%TO.N,F*%
X133350000Y-126365000D03*
D17*
%TO.P,D36,1*%
%TO.N,X*%
X133350000Y-131445000D03*
%TD*%
D16*
%TO.P,D35,2*%
%TO.N,E*%
X130810000Y-123825000D03*
D17*
%TO.P,D35,1*%
%TO.N,9*%
X130810000Y-131445000D03*
%TD*%
D16*
%TO.P,D34,2*%
%TO.N,D*%
X128270000Y-121285000D03*
D17*
%TO.P,D34,1*%
%TO.N,9*%
X128270000Y-131445000D03*
%TD*%
D16*
%TO.P,D33,2*%
%TO.N,F*%
X125730000Y-126365000D03*
D17*
%TO.P,D33,1*%
%TO.N,6*%
X125730000Y-131445000D03*
%TD*%
D16*
%TO.P,D32,2*%
%TO.N,C*%
X123190000Y-118745000D03*
D17*
%TO.P,D32,1*%
%TO.N,6*%
X123190000Y-131445000D03*
%TD*%
D16*
%TO.P,D31,2*%
%TO.N,C*%
X120650000Y-118745000D03*
D17*
%TO.P,D31,1*%
%TO.N,3*%
X120650000Y-131445000D03*
%TD*%
D16*
%TO.P,D30,2*%
%TO.N,D*%
X118110000Y-121285000D03*
D17*
%TO.P,D30,1*%
%TO.N,3*%
X118110000Y-131445000D03*
%TD*%
D16*
%TO.P,D29,2*%
%TO.N,A*%
X115570000Y-118745000D03*
D17*
%TO.P,D29,1*%
%TO.N,-*%
X115570000Y-131445000D03*
%TD*%
D16*
%TO.P,D28,2*%
%TO.N,E*%
X113030000Y-123825000D03*
D17*
%TO.P,D28,1*%
%TO.N,-*%
X113030000Y-131445000D03*
%TD*%
D16*
%TO.P,D27,2*%
%TO.N,A*%
X110490000Y-118745000D03*
D17*
%TO.P,D27,1*%
%TO.N,+*%
X110490000Y-131445000D03*
%TD*%
D16*
%TO.P,D26,2*%
%TO.N,D*%
X107950000Y-121285000D03*
D17*
%TO.P,D26,1*%
%TO.N,+*%
X107950000Y-131445000D03*
%TD*%
D16*
%TO.P,D25,2*%
%TO.N,C*%
X105410000Y-118745000D03*
D17*
%TO.P,D25,1*%
%TO.N,2*%
X105410000Y-131445000D03*
%TD*%
D16*
%TO.P,D24,2*%
%TO.N,D*%
X102870000Y-121285000D03*
D17*
%TO.P,D24,1*%
%TO.N,2*%
X102870000Y-131445000D03*
%TD*%
D16*
%TO.P,D23,2*%
%TO.N,F*%
X100330000Y-126365000D03*
D17*
%TO.P,D23,1*%
%TO.N,2*%
X100330000Y-131445000D03*
%TD*%
D16*
%TO.P,R15,2*%
%TO.N,+5V*%
X75565000Y-73025000D03*
D15*
%TO.P,R15,1*%
%TO.N,Net-(R15-Pad1)*%
X85725000Y-73025000D03*
%TD*%
D16*
%TO.P,D22,2*%
%TO.N,C*%
X97790000Y-118745000D03*
D17*
%TO.P,D22,1*%
%TO.N,5*%
X97790000Y-131445000D03*
%TD*%
D16*
%TO.P,D21,2*%
%TO.N,E*%
X95250000Y-123825000D03*
D17*
%TO.P,D21,1*%
%TO.N,5*%
X95250000Y-131445000D03*
%TD*%
D16*
%TO.P,D20,2*%
%TO.N,D*%
X92710000Y-121285000D03*
D17*
%TO.P,D20,1*%
%TO.N,8*%
X92710000Y-131445000D03*
%TD*%
D16*
%TO.P,D19,2*%
%TO.N,E*%
X90170000Y-123825000D03*
D17*
%TO.P,D19,1*%
%TO.N,8*%
X90170000Y-131445000D03*
%TD*%
D16*
%TO.P,D18,2*%
%TO.N,F*%
X87630000Y-126365000D03*
D17*
%TO.P,D18,1*%
%TO.N,8*%
X87630000Y-131445000D03*
%TD*%
D18*
%TO.P,J1,16*%
%TO.N,CR*%
X118100000Y-145000000D03*
%TO.P,J1,15*%
%TO.N,LF*%
X115560000Y-145000000D03*
%TO.P,J1,14*%
%TO.N,DIV*%
X113020000Y-145000000D03*
%TO.P,J1,13*%
%TO.N,X*%
X110480000Y-145000000D03*
%TO.P,J1,12*%
%TO.N,9*%
X107940000Y-145000000D03*
%TO.P,J1,11*%
%TO.N,6*%
X105400000Y-145000000D03*
%TO.P,J1,10*%
%TO.N,3*%
X102860000Y-145000000D03*
%TO.P,J1,9*%
%TO.N,-*%
X100320000Y-145000000D03*
%TO.P,J1,8*%
%TO.N,+*%
X97780000Y-145000000D03*
%TO.P,J1,7*%
%TO.N,2*%
X95240000Y-145000000D03*
%TO.P,J1,6*%
%TO.N,5*%
X92700000Y-145000000D03*
%TO.P,J1,5*%
%TO.N,8*%
X90160000Y-145000000D03*
%TO.P,J1,4*%
%TO.N,7*%
X87620000Y-145000000D03*
%TO.P,J1,3*%
%TO.N,4*%
X85080000Y-145000000D03*
%TO.P,J1,2*%
%TO.N,1*%
X82540000Y-145000000D03*
D10*
%TO.P,J1,1*%
%TO.N,0*%
X80000000Y-145000000D03*
%TD*%
D16*
%TO.P,D17,2*%
%TO.N,C*%
X85090000Y-118745000D03*
D17*
%TO.P,D17,1*%
%TO.N,7*%
X85090000Y-131445000D03*
%TD*%
D16*
%TO.P,D16,2*%
%TO.N,C*%
X82550000Y-118745000D03*
D17*
%TO.P,D16,1*%
%TO.N,4*%
X82550000Y-131445000D03*
%TD*%
D16*
%TO.P,D15,2*%
%TO.N,E*%
X80010000Y-123825000D03*
D17*
%TO.P,D15,1*%
%TO.N,4*%
X80010000Y-131445000D03*
%TD*%
D16*
%TO.P,D14,2*%
%TO.N,F*%
X77470000Y-126365000D03*
D17*
%TO.P,D14,1*%
%TO.N,4*%
X77470000Y-131445000D03*
%TD*%
D16*
%TO.P,D13,2*%
%TO.N,E*%
X74930000Y-123825000D03*
D17*
%TO.P,D13,1*%
%TO.N,1*%
X74930000Y-131445000D03*
%TD*%
D16*
%TO.P,D12,2*%
%TO.N,D*%
X72390000Y-121285000D03*
D17*
%TO.P,D12,1*%
%TO.N,1*%
X72390000Y-131445000D03*
%TD*%
D16*
%TO.P,D11,2*%
%TO.N,C*%
X69850000Y-118745000D03*
D17*
%TO.P,D11,1*%
%TO.N,1*%
X69850000Y-131445000D03*
%TD*%
D16*
%TO.P,D8,2*%
%TO.N,F*%
X62230000Y-126365000D03*
D17*
%TO.P,D8,1*%
%TO.N,0*%
X62230000Y-131445000D03*
%TD*%
D16*
%TO.P,D7,2*%
%TO.N,E*%
X59690000Y-123825000D03*
D17*
%TO.P,D7,1*%
%TO.N,0*%
X59690000Y-131445000D03*
%TD*%
D16*
%TO.P,D9,2*%
%TO.N,C*%
X64770000Y-118745000D03*
D17*
%TO.P,D9,1*%
%TO.N,0*%
X64770000Y-131445000D03*
%TD*%
D16*
%TO.P,D10,2*%
%TO.N,D*%
X67310000Y-121285000D03*
D17*
%TO.P,D10,1*%
%TO.N,0*%
X67310000Y-131445000D03*
%TD*%
D13*
%TO.P,H4,1*%
%TO.N,GND*%
X57197056Y-143302944D03*
X55500000Y-142600000D03*
X53802944Y-143302944D03*
X53100000Y-145000000D03*
X53802944Y-146697056D03*
X55500000Y-147400000D03*
X57197056Y-146697056D03*
X57900000Y-145000000D03*
D14*
X55500000Y-145000000D03*
%TD*%
D13*
%TO.P,H3,1*%
%TO.N,GND*%
X196697056Y-143302944D03*
X195000000Y-142600000D03*
X193302944Y-143302944D03*
X192600000Y-145000000D03*
X193302944Y-146697056D03*
X195000000Y-147400000D03*
X196697056Y-146697056D03*
X197400000Y-145000000D03*
D14*
X195000000Y-145000000D03*
%TD*%
D13*
%TO.P,H2,1*%
%TO.N,GND*%
X196697056Y-53302944D03*
X195000000Y-52600000D03*
X193302944Y-53302944D03*
X192600000Y-55000000D03*
X193302944Y-56697056D03*
X195000000Y-57400000D03*
X196697056Y-56697056D03*
X197400000Y-55000000D03*
D14*
X195000000Y-55000000D03*
%TD*%
D13*
%TO.P,H1,1*%
%TO.N,GND*%
X57197056Y-53802944D03*
X55500000Y-53100000D03*
X53802944Y-53802944D03*
X53100000Y-55500000D03*
X53802944Y-57197056D03*
X55500000Y-57900000D03*
X57197056Y-57197056D03*
X57900000Y-55500000D03*
D14*
X55500000Y-55500000D03*
%TD*%
D10*
%TO.P,J2,1*%
%TO.N,DATA_OUT*%
X194500000Y-87780000D03*
D18*
%TO.P,J2,2*%
%TO.N,~SHIFT_CLOCK*%
X194500000Y-85240000D03*
%TO.P,J2,3*%
%TO.N,~FLAG_OUT*%
X194500000Y-82700000D03*
%TO.P,J2,4*%
%TO.N,~FLAG_RESET*%
X194500000Y-80160000D03*
%TO.P,J2,5*%
%TO.N,+5V*%
X194500000Y-77620000D03*
%TO.P,J2,6*%
X194500000Y-75080000D03*
%TO.P,J2,7*%
%TO.N,GND*%
X194500000Y-72540000D03*
%TO.P,J2,8*%
X194500000Y-70000000D03*
%TD*%
D16*
%TO.P,R1,2*%
%TO.N,Net-(D1-Pad2)*%
X191500000Y-98700000D03*
D15*
%TO.P,R1,1*%
%TO.N,+5V*%
X181340000Y-98700000D03*
%TD*%
D16*
%TO.P,R2,2*%
%TO.N,Net-(D2-Pad2)*%
X191500000Y-105200000D03*
D15*
%TO.P,R2,1*%
%TO.N,+5V*%
X181340000Y-105200000D03*
%TD*%
%TO.P,R3,1*%
%TO.N,+5V*%
X181340000Y-111700000D03*
D16*
%TO.P,R3,2*%
%TO.N,Net-(D3-Pad2)*%
X191500000Y-111700000D03*
%TD*%
%TO.P,R4,2*%
%TO.N,Net-(D4-Pad2)*%
X191500000Y-118200000D03*
D15*
%TO.P,R4,1*%
%TO.N,+5V*%
X181340000Y-118200000D03*
%TD*%
%TO.P,R5,1*%
%TO.N,+5V*%
X181340000Y-124700000D03*
D16*
%TO.P,R5,2*%
%TO.N,Net-(D5-Pad2)*%
X191500000Y-124700000D03*
%TD*%
%TO.P,R6,2*%
%TO.N,Net-(D6-Pad2)*%
X191500000Y-131200000D03*
D15*
%TO.P,R6,1*%
%TO.N,+5V*%
X181340000Y-131200000D03*
%TD*%
D16*
%TO.P,R7,2*%
%TO.N,+5V*%
X75565000Y-80010000D03*
D15*
%TO.P,R7,1*%
%TO.N,Net-(C1-Pad1)*%
X85725000Y-80010000D03*
%TD*%
%TO.P,R8,1*%
%TO.N,Net-(C2-Pad1)*%
X105000000Y-78000000D03*
D16*
%TO.P,R8,2*%
%TO.N,+5V*%
X105000000Y-67840000D03*
%TD*%
D15*
%TO.P,R9,1*%
%TO.N,GND*%
X75565000Y-87630000D03*
D16*
%TO.P,R9,2*%
%TO.N,A*%
X75565000Y-97790000D03*
%TD*%
%TO.P,R10,2*%
%TO.N,CR*%
X72390000Y-97790000D03*
D15*
%TO.P,R10,1*%
%TO.N,GND*%
X72390000Y-87630000D03*
%TD*%
%TO.P,R11,1*%
%TO.N,+5V*%
X69215000Y-87630000D03*
D16*
%TO.P,R11,2*%
%TO.N,C*%
X69215000Y-97790000D03*
%TD*%
%TO.P,R12,2*%
%TO.N,D*%
X66040000Y-97790000D03*
D15*
%TO.P,R12,1*%
%TO.N,+5V*%
X66040000Y-87630000D03*
%TD*%
%TO.P,R13,1*%
%TO.N,+5V*%
X62865000Y-87630000D03*
D16*
%TO.P,R13,2*%
%TO.N,E*%
X62865000Y-97790000D03*
%TD*%
D15*
%TO.P,R14,1*%
%TO.N,+5V*%
X59880000Y-87630000D03*
D16*
%TO.P,R14,2*%
%TO.N,F*%
X59880000Y-97790000D03*
%TD*%
D17*
%TO.P,U1,1*%
%TO.N,Net-(R15-Pad1)*%
X92000000Y-72220000D03*
D16*
%TO.P,U1,9*%
%TO.N,Net-(U1-Pad9)*%
X99620000Y-90000000D03*
%TO.P,U1,2*%
%TO.N,Net-(U1-Pad12)*%
X92000000Y-74760000D03*
%TO.P,U1,10*%
%TO.N,GND*%
X99620000Y-87460000D03*
%TO.P,U1,3*%
%TO.N,Net-(U1-Pad3)*%
X92000000Y-77300000D03*
%TO.P,U1,11*%
%TO.N,Net-(U1-Pad11)*%
X99620000Y-84920000D03*
%TO.P,U1,4*%
%TO.N,Net-(U1-Pad4)*%
X92000000Y-79840000D03*
%TO.P,U1,12*%
%TO.N,Net-(U1-Pad12)*%
X99620000Y-82380000D03*
%TO.P,U1,5*%
%TO.N,Net-(U1-Pad5)*%
X92000000Y-82380000D03*
%TO.P,U1,13*%
%TO.N,Net-(U1-Pad13)*%
X99620000Y-79840000D03*
%TO.P,U1,6*%
%TO.N,Net-(C1-Pad2)*%
X92000000Y-84920000D03*
%TO.P,U1,14*%
%TO.N,Net-(C2-Pad1)*%
X99620000Y-77300000D03*
%TO.P,U1,7*%
%TO.N,Net-(C1-Pad1)*%
X92000000Y-87460000D03*
%TO.P,U1,15*%
%TO.N,Net-(C2-Pad2)*%
X99620000Y-74760000D03*
%TO.P,U1,8*%
%TO.N,GND*%
X92000000Y-90000000D03*
%TO.P,U1,16*%
%TO.N,+5V*%
X99620000Y-72220000D03*
%TD*%
D17*
%TO.P,U2,1*%
%TO.N,~FLAG_RESET*%
X117000000Y-74760000D03*
D16*
%TO.P,U2,8*%
%TO.N,Net-(U2-Pad8)*%
X124620000Y-90000000D03*
%TO.P,U2,2*%
%TO.N,FLAG_OUT_LED*%
X117000000Y-77300000D03*
%TO.P,U2,9*%
%TO.N,C*%
X124620000Y-87460000D03*
%TO.P,U2,3*%
%TO.N,Net-(U2-Pad3)*%
X117000000Y-79840000D03*
%TO.P,U2,10*%
%TO.N,D*%
X124620000Y-84920000D03*
%TO.P,U2,4*%
%TO.N,Net-(U2-Pad3)*%
X117000000Y-82380000D03*
%TO.P,U2,11*%
%TO.N,Net-(U2-Pad11)*%
X124620000Y-82380000D03*
%TO.P,U2,5*%
%TO.N,Net-(U1-Pad4)*%
X117000000Y-84920000D03*
%TO.P,U2,12*%
%TO.N,E*%
X124620000Y-79840000D03*
%TO.P,U2,6*%
%TO.N,FLAG_OUT_LED*%
X117000000Y-87460000D03*
%TO.P,U2,13*%
%TO.N,F*%
X124620000Y-77300000D03*
%TO.P,U2,7*%
%TO.N,GND*%
X117000000Y-90000000D03*
%TO.P,U2,14*%
%TO.N,+5V*%
X124620000Y-74760000D03*
%TD*%
%TO.P,U3,14*%
%TO.N,+5V*%
X147620000Y-74760000D03*
%TO.P,U3,7*%
%TO.N,GND*%
X140000000Y-90000000D03*
%TO.P,U3,13*%
%TO.N,Net-(U3-Pad13)*%
X147620000Y-77300000D03*
%TO.P,U3,6*%
%TO.N,Net-(U3-Pad6)*%
X140000000Y-87460000D03*
%TO.P,U3,12*%
%TO.N,A*%
X147620000Y-79840000D03*
%TO.P,U3,5*%
%TO.N,Net-(U3-Pad5)*%
X140000000Y-84920000D03*
%TO.P,U3,11*%
%TO.N,GND*%
X147620000Y-82380000D03*
%TO.P,U3,4*%
%TO.N,Net-(U3-Pad4)*%
X140000000Y-82380000D03*
%TO.P,U3,10*%
%TO.N,Net-(U3-Pad10)*%
X147620000Y-84920000D03*
%TO.P,U3,3*%
%TO.N,Net-(U2-Pad8)*%
X140000000Y-79840000D03*
%TO.P,U3,9*%
%TO.N,GND*%
X147620000Y-87460000D03*
%TO.P,U3,2*%
%TO.N,Net-(U2-Pad11)*%
X140000000Y-77300000D03*
%TO.P,U3,8*%
%TO.N,CR*%
X147620000Y-90000000D03*
D17*
%TO.P,U3,1*%
%TO.N,Net-(U1-Pad9)*%
X140000000Y-74760000D03*
%TD*%
%TO.P,U4,1*%
%TO.N,Net-(U4-Pad1)*%
X178000000Y-74760000D03*
D16*
%TO.P,U4,8*%
%TO.N,Net-(U4-Pad8)*%
X185620000Y-90000000D03*
%TO.P,U4,2*%
%TO.N,Net-(U4-Pad1)*%
X178000000Y-77300000D03*
%TO.P,U4,9*%
%TO.N,Net-(U4-Pad9)*%
X185620000Y-87460000D03*
%TO.P,U4,3*%
%TO.N,Net-(U4-Pad3)*%
X178000000Y-79840000D03*
%TO.P,U4,10*%
%TO.N,Net-(U4-Pad10)*%
X185620000Y-84920000D03*
%TO.P,U4,4*%
%TO.N,Net-(U4-Pad3)*%
X178000000Y-82380000D03*
%TO.P,U4,11*%
%TO.N,~FLAG_OUT*%
X185620000Y-82380000D03*
%TO.P,U4,5*%
%TO.N,Net-(U4-Pad3)*%
X178000000Y-84920000D03*
%TO.P,U4,12*%
%TO.N,FLAG_OUT_LED*%
X185620000Y-79840000D03*
%TO.P,U4,6*%
%TO.N,DATA_OUT*%
X178000000Y-87460000D03*
%TO.P,U4,13*%
%TO.N,FLAG_OUT_LED*%
X185620000Y-77300000D03*
%TO.P,U4,7*%
%TO.N,GND*%
X178000000Y-90000000D03*
%TO.P,U4,14*%
%TO.N,+5V*%
X185620000Y-74760000D03*
%TD*%
%TO.P,U5,16*%
%TO.N,~FLAG_RESET*%
X163620000Y-111220000D03*
%TO.P,U5,8*%
%TO.N,Net-(U1-Pad5)*%
X156000000Y-129000000D03*
%TO.P,U5,15*%
%TO.N,Net-(U5-Pad15)*%
X163620000Y-113760000D03*
%TO.P,U5,7*%
%TO.N,F*%
X156000000Y-126460000D03*
%TO.P,U5,14*%
%TO.N,Net-(U5-Pad14)*%
X163620000Y-116300000D03*
%TO.P,U5,6*%
%TO.N,E*%
X156000000Y-123920000D03*
%TO.P,U5,13*%
%TO.N,Net-(U5-Pad13)*%
X163620000Y-118840000D03*
%TO.P,U5,5*%
%TO.N,Net-(U5-Pad5)*%
X156000000Y-121380000D03*
%TO.P,U5,12*%
%TO.N,Net-(U5-Pad12)*%
X163620000Y-121380000D03*
%TO.P,U5,4*%
%TO.N,D*%
X156000000Y-118840000D03*
%TO.P,U5,11*%
%TO.N,Net-(U5-Pad11)*%
X163620000Y-123920000D03*
%TO.P,U5,3*%
%TO.N,C*%
X156000000Y-116300000D03*
%TO.P,U5,10*%
%TO.N,Net-(U4-Pad1)*%
X163620000Y-126460000D03*
%TO.P,U5,2*%
%TO.N,Net-(U3-Pad10)*%
X156000000Y-113760000D03*
%TO.P,U5,9*%
%TO.N,Net-(U3-Pad13)*%
X163620000Y-129000000D03*
D17*
%TO.P,U5,1*%
%TO.N,~SHIFT_CLOCK*%
X156000000Y-111220000D03*
%TD*%
D16*
%TO.P,U6,14*%
%TO.N,+5V*%
X177620000Y-113760000D03*
%TO.P,U6,7*%
%TO.N,GND*%
X170000000Y-129000000D03*
%TO.P,U6,13*%
%TO.N,FLAG_OUT_LED*%
X177620000Y-116300000D03*
%TO.P,U6,6*%
%TO.N,Net-(D6-Pad1)*%
X170000000Y-126460000D03*
%TO.P,U6,12*%
%TO.N,Net-(D1-Pad1)*%
X177620000Y-118840000D03*
%TO.P,U6,5*%
%TO.N,Net-(U4-Pad1)*%
X170000000Y-123920000D03*
%TO.P,U6,11*%
%TO.N,Net-(U5-Pad15)*%
X177620000Y-121380000D03*
%TO.P,U6,4*%
%TO.N,Net-(D5-Pad1)*%
X170000000Y-121380000D03*
%TO.P,U6,10*%
%TO.N,Net-(D2-Pad1)*%
X177620000Y-123920000D03*
%TO.P,U6,3*%
%TO.N,Net-(U5-Pad11)*%
X170000000Y-118840000D03*
%TO.P,U6,9*%
%TO.N,Net-(U5-Pad14)*%
X177620000Y-126460000D03*
%TO.P,U6,2*%
%TO.N,Net-(D4-Pad1)*%
X170000000Y-116300000D03*
%TO.P,U6,8*%
%TO.N,Net-(D3-Pad1)*%
X177620000Y-129000000D03*
D17*
%TO.P,U6,1*%
%TO.N,Net-(U5-Pad13)*%
X170000000Y-113760000D03*
%TD*%
D19*
%TO.N,~FLAG_RESET*%
X157000000Y-70000000D03*
%TO.N,~SHIFT_CLOCK*%
X188595000Y-95250000D03*
X157480000Y-95250000D03*
%TO.N,+5V*%
X185000000Y-68000000D03*
X148000000Y-68000000D03*
X125000000Y-68000000D03*
X92000000Y-68000000D03*
X100000000Y-68000000D03*
X162000000Y-68000000D03*
%TO.N,GND*%
X92000000Y-93000000D03*
X178000000Y-93000000D03*
X140000000Y-93000000D03*
X117000000Y-93000000D03*
%TO.N,A*%
X110490000Y-113665000D03*
%TO.N,C*%
X128270000Y-96520000D03*
X128270000Y-118745000D03*
%TO.N,D*%
X130175000Y-96520000D03*
X130175000Y-121285000D03*
%TO.N,E*%
X87630000Y-111760000D03*
X87630000Y-123825000D03*
%TO.N,Net-(U1-Pad5)*%
X154940000Y-95250000D03*
%TO.N,Net-(U4-Pad1)*%
X168275000Y-76835000D03*
X154940000Y-76835000D03*
D20*
%TO.N,CR*%
X147620000Y-111460000D03*
%TD*%
D21*
%TO.N,Net-(D1-Pad1)*%
X193609998Y-101240000D02*
X194500000Y-101240000D01*
X185000000Y-109849998D02*
X193609998Y-101240000D01*
X185000000Y-113550002D02*
X185000000Y-109849998D01*
X180460000Y-116000000D02*
X182550002Y-116000000D01*
X182550002Y-116000000D02*
X185000000Y-113550002D01*
X177620000Y-118840000D02*
X180460000Y-116000000D01*
%TO.N,Net-(D1-Pad2)*%
X191500000Y-98700000D02*
X194500000Y-98700000D01*
%TO.N,Net-(D2-Pad2)*%
X194460000Y-105200000D02*
X194500000Y-105160000D01*
X191500000Y-105200000D02*
X194460000Y-105200000D01*
%TO.N,Net-(D2-Pad1)*%
X177620000Y-123920000D02*
X178985000Y-122555000D01*
X178985000Y-122555000D02*
X185420000Y-122555000D01*
X185420000Y-122555000D02*
X186690000Y-121285000D01*
X186690000Y-121285000D02*
X186690000Y-112395000D01*
X191385000Y-107700000D02*
X194500000Y-107700000D01*
X186690000Y-112395000D02*
X191385000Y-107700000D01*
%TO.N,Net-(D3-Pad2)*%
X191500000Y-111700000D02*
X194500000Y-111700000D01*
%TO.N,Net-(D3-Pad1)*%
X194500000Y-114240000D02*
X192760000Y-114240000D01*
X177620000Y-129000000D02*
X186595000Y-129000000D01*
X188107500Y-127487500D02*
X188107500Y-118892500D01*
X186595000Y-129000000D02*
X188107500Y-127487500D01*
X192760000Y-114240000D02*
X188107500Y-118892500D01*
%TO.N,Net-(D4-Pad1)*%
X189202500Y-128932500D02*
X189202500Y-123797500D01*
X189202500Y-123797500D02*
X192300000Y-120700000D01*
X174625000Y-125730000D02*
X174625000Y-132080000D01*
X185242500Y-132892500D02*
X189202500Y-128932500D01*
X175437500Y-132892500D02*
X185242500Y-132892500D01*
X173355000Y-124460000D02*
X174625000Y-125730000D01*
X171545000Y-116300000D02*
X173355000Y-118110000D01*
X192300000Y-120700000D02*
X194500000Y-120700000D01*
X173355000Y-118110000D02*
X173355000Y-124460000D01*
X174625000Y-132080000D02*
X175437500Y-132892500D01*
X170000000Y-116300000D02*
X171545000Y-116300000D01*
%TO.N,Net-(D4-Pad2)*%
X194460000Y-118200000D02*
X194500000Y-118160000D01*
X191500000Y-118200000D02*
X194460000Y-118200000D01*
%TO.N,Net-(D5-Pad1)*%
X175275000Y-134000000D02*
X186340000Y-134000000D01*
X193100000Y-127240000D02*
X194500000Y-127240000D01*
X173355000Y-132080000D02*
X175275000Y-134000000D01*
X172085000Y-125095000D02*
X173355000Y-126365000D01*
X170910000Y-121380000D02*
X172085000Y-122555000D01*
X172085000Y-122555000D02*
X172085000Y-125095000D01*
X186340000Y-134000000D02*
X193100000Y-127240000D01*
X173355000Y-126365000D02*
X173355000Y-132080000D01*
X170000000Y-121380000D02*
X170910000Y-121380000D01*
%TO.N,Net-(D5-Pad2)*%
X191500000Y-124700000D02*
X194500000Y-124700000D01*
%TO.N,Net-(D6-Pad2)*%
X191500000Y-131200000D02*
X194500000Y-131200000D01*
%TO.N,Net-(D6-Pad1)*%
X189260000Y-133740000D02*
X194500000Y-133740000D01*
X188000000Y-135000000D02*
X189260000Y-133740000D01*
X172085000Y-127000000D02*
X172085000Y-133350000D01*
X171545000Y-126460000D02*
X172085000Y-127000000D01*
X173735000Y-135000000D02*
X188000000Y-135000000D01*
X172085000Y-133350000D02*
X173735000Y-135000000D01*
X170000000Y-126460000D02*
X171545000Y-126460000D01*
%TO.N,~FLAG_RESET*%
X117000000Y-68000000D02*
X117000000Y-74760000D01*
X119000000Y-66000000D02*
X117000000Y-68000000D01*
X153000000Y-66000000D02*
X119000000Y-66000000D01*
X157000000Y-70000000D02*
X153000000Y-66000000D01*
X163620000Y-96029964D02*
X157000000Y-89409964D01*
X163620000Y-111220000D02*
X163620000Y-96029964D01*
X157000000Y-89409964D02*
X157000000Y-70000000D01*
%TO.N,~FLAG_OUT*%
X185620000Y-82380000D02*
X189380000Y-82380000D01*
X189700000Y-82700000D02*
X194500000Y-82700000D01*
X189380000Y-82380000D02*
X189700000Y-82700000D01*
%TO.N,~SHIFT_CLOCK*%
X194500000Y-85240000D02*
X190760000Y-85240000D01*
X190760000Y-85240000D02*
X189000000Y-87000000D01*
X189000000Y-87000000D02*
X189000000Y-94000000D01*
X189000000Y-94845000D02*
X188595000Y-95250000D01*
X189000000Y-94000000D02*
X189000000Y-94845000D01*
X156000000Y-99485000D02*
X156000000Y-111220000D01*
X157480000Y-95250000D02*
X155575000Y-93345000D01*
X152400000Y-93980000D02*
X152400000Y-95885000D01*
X153035000Y-93345000D02*
X152400000Y-93980000D01*
X152400000Y-95885000D02*
X156000000Y-99485000D01*
X155575000Y-93345000D02*
X153035000Y-93345000D01*
%TO.N,DATA_OUT*%
X194500000Y-90995000D02*
X194500000Y-87780000D01*
X191770000Y-96520000D02*
X194500000Y-93790000D01*
X178000000Y-87460000D02*
X179460000Y-87460000D01*
X183515000Y-96520000D02*
X191770000Y-96520000D01*
X194500000Y-93790000D02*
X194500000Y-90995000D01*
X181000000Y-89000000D02*
X181000000Y-94005000D01*
X179460000Y-87460000D02*
X181000000Y-89000000D01*
X181000000Y-94005000D02*
X183515000Y-96520000D01*
D22*
%TO.N,+5V*%
X194500000Y-75080000D02*
X190080000Y-75080000D01*
X189760000Y-74760000D02*
X185620000Y-74760000D01*
X190080000Y-75080000D02*
X189760000Y-74760000D01*
X185620000Y-68620000D02*
X185000000Y-68000000D01*
X185620000Y-74760000D02*
X185620000Y-68620000D01*
X148000000Y-74380000D02*
X147620000Y-74760000D01*
X148000000Y-68000000D02*
X148000000Y-74380000D01*
X125000000Y-68000000D02*
X125000000Y-74380000D01*
X99620000Y-68380000D02*
X100000000Y-68000000D01*
X99620000Y-72220000D02*
X99620000Y-68380000D01*
X177620000Y-113760000D02*
X177620000Y-105620000D01*
X162000000Y-90000000D02*
X162000000Y-68000000D01*
X177620000Y-105620000D02*
X162000000Y-90000000D01*
X181340000Y-98700000D02*
X181340000Y-105660000D01*
X181340000Y-105660000D02*
X181340000Y-111700000D01*
X179280000Y-113760000D02*
X181340000Y-111700000D01*
X177620000Y-113760000D02*
X179280000Y-113760000D01*
%TO.N,GND*%
X92000000Y-90000000D02*
X92000000Y-93000000D01*
X178000000Y-93000000D02*
X178000000Y-90000000D01*
X140000000Y-90000000D02*
X140000000Y-93000000D01*
X117000000Y-90000000D02*
X117000000Y-93000000D01*
D21*
X92000000Y-90000000D02*
X94150000Y-90000000D01*
X96690000Y-87460000D02*
X99620000Y-87460000D01*
X94150000Y-90000000D02*
X96690000Y-87460000D01*
X140000000Y-90000000D02*
X142410000Y-90000000D01*
X144950000Y-87460000D02*
X147620000Y-87460000D01*
X142410000Y-90000000D02*
X144950000Y-87460000D01*
X147620000Y-82380000D02*
X146220000Y-82380000D01*
X144950000Y-83650000D02*
X144950000Y-87460000D01*
X146220000Y-82380000D02*
X144950000Y-83650000D01*
D23*
X72390000Y-87630000D02*
X75565000Y-87630000D01*
X75565000Y-87630000D02*
X81280000Y-87630000D01*
X86650000Y-93000000D02*
X86705000Y-93000000D01*
X81280000Y-87630000D02*
X86650000Y-93000000D01*
X92000000Y-93000000D02*
X86705000Y-93000000D01*
D21*
%TO.N,Net-(C1-Pad1)*%
X92000000Y-87460000D02*
X90000000Y-87460000D01*
X85725000Y-83185000D02*
X85725000Y-80010000D01*
X90000000Y-87460000D02*
X85725000Y-83185000D01*
X88500000Y-76000000D02*
X86500000Y-76000000D01*
X85725000Y-76775000D02*
X85725000Y-80010000D01*
X86500000Y-76000000D02*
X85725000Y-76775000D01*
%TO.N,Net-(C2-Pad1)*%
X104300000Y-77300000D02*
X105000000Y-78000000D01*
X99620000Y-77300000D02*
X104300000Y-77300000D01*
X105000000Y-78000000D02*
X108500000Y-78000000D01*
%TO.N,A*%
X75565000Y-112395000D02*
X75565000Y-97790000D01*
X76835000Y-113665000D02*
X75565000Y-112395000D01*
X110490000Y-113665000D02*
X76835000Y-113665000D01*
X139439997Y-88710001D02*
X137160000Y-90989998D01*
X137160000Y-90989998D02*
X137160000Y-110490000D01*
X137160000Y-110490000D02*
X133985000Y-113665000D01*
X140600001Y-88710001D02*
X139439997Y-88710001D01*
X133985000Y-113665000D02*
X110490000Y-113665000D01*
X147620000Y-79840000D02*
X144950000Y-79840000D01*
X143547501Y-81242499D02*
X143547501Y-85762501D01*
X144950000Y-79840000D02*
X143547501Y-81242499D01*
X143547501Y-85762501D02*
X140600001Y-88710001D01*
%TO.N,C*%
X69215000Y-97790000D02*
X69215000Y-109220000D01*
X64770000Y-113665000D02*
X64770000Y-118745000D01*
X69215000Y-109220000D02*
X64770000Y-113665000D01*
X109220000Y-120015000D02*
X107950000Y-118745000D01*
X107950000Y-118745000D02*
X64770000Y-118745000D01*
X118110000Y-118745000D02*
X116840000Y-120015000D01*
X137160000Y-120015000D02*
X135890000Y-118745000D01*
X150495000Y-120015000D02*
X137160000Y-120015000D01*
X154210000Y-116300000D02*
X150495000Y-120015000D01*
X116840000Y-120015000D02*
X109220000Y-120015000D01*
X156000000Y-116300000D02*
X154210000Y-116300000D01*
X124620000Y-87460000D02*
X127465000Y-87460000D01*
X127465000Y-87460000D02*
X128270000Y-88265000D01*
X128270000Y-88265000D02*
X128270000Y-96520000D01*
X128270000Y-118745000D02*
X118110000Y-118745000D01*
X135890000Y-118745000D02*
X128270000Y-118745000D01*
%TO.N,D*%
X67310000Y-121285000D02*
X63500000Y-121285000D01*
X63500000Y-121285000D02*
X62865000Y-120650000D01*
X62865000Y-120650000D02*
X62865000Y-113030000D01*
X66040000Y-109855000D02*
X66040000Y-97790000D01*
X62865000Y-113030000D02*
X66040000Y-109855000D01*
X154400000Y-118840000D02*
X156000000Y-118840000D01*
X151955000Y-121285000D02*
X154400000Y-118840000D01*
X124620000Y-84920000D02*
X127465000Y-84920000D01*
X130175000Y-87630000D02*
X130175000Y-96520000D01*
X127465000Y-84920000D02*
X130175000Y-87630000D01*
X130175000Y-121285000D02*
X151955000Y-121285000D01*
X67310000Y-121285000D02*
X130175000Y-121285000D01*
%TO.N,E*%
X59785000Y-123920000D02*
X59690000Y-123825000D01*
X152825000Y-123920000D02*
X59785000Y-123920000D01*
X59690000Y-123825000D02*
X59690000Y-113665000D01*
X62865000Y-110490000D02*
X62865000Y-97790000D01*
X59690000Y-113665000D02*
X62865000Y-110490000D01*
X152825000Y-123920000D02*
X156000000Y-123920000D01*
X121920000Y-82540000D02*
X121920000Y-111760000D01*
X121920000Y-111760000D02*
X87630000Y-111760000D01*
X124620000Y-79840000D02*
X121920000Y-82540000D01*
%TO.N,F*%
X152825000Y-126460000D02*
X78200000Y-126460000D01*
X78200000Y-126460000D02*
X78105000Y-126365000D01*
X63595000Y-126460000D02*
X63500000Y-126365000D01*
X78200000Y-126460000D02*
X63595000Y-126460000D01*
X59880000Y-110935000D02*
X59880000Y-97790000D01*
X56705000Y-124880000D02*
X56705000Y-114110000D01*
X56705000Y-114110000D02*
X59880000Y-110935000D01*
X58190000Y-126365000D02*
X56705000Y-124880000D01*
X62230000Y-126365000D02*
X58190000Y-126365000D01*
X152825000Y-126460000D02*
X156000000Y-126460000D01*
X123360000Y-77300000D02*
X124620000Y-77300000D01*
X120650000Y-80010000D02*
X123360000Y-77300000D01*
X116185001Y-96539999D02*
X120650000Y-92075000D01*
X78759999Y-96539999D02*
X116185001Y-96539999D01*
X78105000Y-95885000D02*
X78759999Y-96539999D01*
X61785000Y-95885000D02*
X78105000Y-95885000D01*
X120650000Y-92075000D02*
X120650000Y-80010000D01*
X59880000Y-97790000D02*
X61785000Y-95885000D01*
%TO.N,Net-(U1-Pad12)*%
X92000000Y-74760000D02*
X93760000Y-74760000D01*
X93760000Y-74760000D02*
X97000000Y-78000000D01*
X97000000Y-79760000D02*
X99620000Y-82380000D01*
X97000000Y-78000000D02*
X97000000Y-79760000D01*
%TO.N,Net-(U1-Pad4)*%
X92000000Y-79840000D02*
X93810000Y-79840000D01*
X97639999Y-83669999D02*
X109069999Y-83669999D01*
X93810000Y-79840000D02*
X97639999Y-83669999D01*
X110320000Y-84920000D02*
X117000000Y-84920000D01*
X109069999Y-83669999D02*
X110320000Y-84920000D01*
%TO.N,Net-(U1-Pad5)*%
X155689999Y-95999999D02*
X154940000Y-95250000D01*
X158115000Y-128270000D02*
X158115000Y-98425000D01*
X158115000Y-98425000D02*
X154940000Y-95250000D01*
X157385000Y-129000000D02*
X158115000Y-128270000D01*
X156000000Y-129000000D02*
X157385000Y-129000000D01*
%TO.N,Net-(C1-Pad2)*%
X88500000Y-81000000D02*
X88500000Y-84000000D01*
X89420000Y-84920000D02*
X92000000Y-84920000D01*
X88500000Y-84000000D02*
X89420000Y-84920000D01*
%TO.N,Net-(C2-Pad2)*%
X106740000Y-74760000D02*
X108500000Y-73000000D01*
X99620000Y-74760000D02*
X106740000Y-74760000D01*
%TO.N,Net-(U2-Pad8)*%
X124620000Y-90000000D02*
X124620000Y-97950000D01*
X124620000Y-97950000D02*
X126365000Y-99695000D01*
X126365000Y-99695000D02*
X132080000Y-99695000D01*
X132080000Y-99695000D02*
X133985000Y-97790000D01*
X133985000Y-97790000D02*
X133985000Y-81280000D01*
X135425000Y-79840000D02*
X140000000Y-79840000D01*
X133985000Y-81280000D02*
X135425000Y-79840000D01*
%TO.N,FLAG_OUT_LED*%
X159385000Y-66675000D02*
X157480000Y-64770000D01*
X157480000Y-64770000D02*
X115570000Y-64770000D01*
X115570000Y-64770000D02*
X114300000Y-66040000D01*
X114300000Y-66040000D02*
X114300000Y-76200000D01*
X115400000Y-77300000D02*
X117000000Y-77300000D01*
X114300000Y-76200000D02*
X115400000Y-77300000D01*
X159385000Y-66675000D02*
X175260000Y-66675000D01*
X175260000Y-66675000D02*
X182245000Y-73660000D01*
X182245000Y-73660000D02*
X182245000Y-76200000D01*
X183345000Y-77300000D02*
X185620000Y-77300000D01*
X182245000Y-76200000D02*
X183345000Y-77300000D01*
X185620000Y-77300000D02*
X185620000Y-79840000D01*
X159385000Y-88265000D02*
X159385000Y-66675000D01*
X159385000Y-89535000D02*
X159385000Y-88265000D01*
X174985000Y-113665000D02*
X174985000Y-105135000D01*
X174985000Y-105135000D02*
X159385000Y-89535000D01*
X177620000Y-116300000D02*
X174985000Y-113665000D01*
X117000000Y-77300000D02*
X118300000Y-77300000D01*
X118300000Y-77300000D02*
X119000000Y-78000000D01*
X119000000Y-85460000D02*
X117000000Y-87460000D01*
X119000000Y-78000000D02*
X119000000Y-85460000D01*
%TO.N,Net-(U2-Pad3)*%
X117000000Y-79840000D02*
X117000000Y-82380000D01*
%TO.N,Net-(U2-Pad11)*%
X124620000Y-82380000D02*
X129075000Y-82380000D01*
X134155000Y-77300000D02*
X140000000Y-77300000D01*
X129075000Y-82380000D02*
X134155000Y-77300000D01*
%TO.N,Net-(U3-Pad13)*%
X151595000Y-77300000D02*
X147620000Y-77300000D01*
X153035000Y-88900000D02*
X153035000Y-78740000D01*
X160020000Y-95885000D02*
X153035000Y-88900000D01*
X160020000Y-127000000D02*
X160020000Y-95885000D01*
X153035000Y-78740000D02*
X151595000Y-77300000D01*
X162020000Y-129000000D02*
X160020000Y-127000000D01*
X163620000Y-129000000D02*
X162020000Y-129000000D01*
%TO.N,Net-(U3-Pad10)*%
X156000000Y-113760000D02*
X153765000Y-113760000D01*
X153765000Y-113760000D02*
X151130000Y-111125000D01*
X151130000Y-111125000D02*
X151130000Y-85725000D01*
X150325000Y-84920000D02*
X147620000Y-84920000D01*
X151130000Y-85725000D02*
X150325000Y-84920000D01*
%TO.N,Net-(U4-Pad1)*%
X163620000Y-126460000D02*
X165005000Y-126460000D01*
X167545000Y-123920000D02*
X170000000Y-123920000D01*
X165005000Y-126460000D02*
X167545000Y-123920000D01*
X178000000Y-74760000D02*
X178000000Y-77300000D01*
X168740000Y-77300000D02*
X168275000Y-76835000D01*
X178000000Y-77300000D02*
X168740000Y-77300000D01*
X162655000Y-126460000D02*
X163620000Y-126460000D01*
X161290000Y-125095000D02*
X162655000Y-126460000D01*
X161290000Y-95250000D02*
X161290000Y-125095000D01*
X154940000Y-88900000D02*
X161290000Y-95250000D01*
X154940000Y-76835000D02*
X154940000Y-88900000D01*
%TO.N,Net-(U4-Pad3)*%
X178000000Y-79840000D02*
X178000000Y-84920000D01*
%TO.N,Net-(U5-Pad15)*%
X177620000Y-121380000D02*
X175990000Y-121380000D01*
X177620000Y-121380000D02*
X176625000Y-121380000D01*
X176625000Y-121380000D02*
X175895000Y-120650000D01*
X175895000Y-120650000D02*
X175895000Y-117475000D01*
X175895000Y-117475000D02*
X173355000Y-114935000D01*
X173355000Y-114935000D02*
X173355000Y-110490000D01*
X163620000Y-113760000D02*
X165005000Y-113760000D01*
X165005000Y-113760000D02*
X166370000Y-112395000D01*
X166370000Y-112395000D02*
X166370000Y-109855000D01*
X166370000Y-109855000D02*
X167005000Y-109220000D01*
X172085000Y-109220000D02*
X173355000Y-110490000D01*
X167005000Y-109220000D02*
X172085000Y-109220000D01*
%TO.N,Net-(U5-Pad14)*%
X176435000Y-126460000D02*
X177620000Y-126460000D01*
X172085000Y-112395000D02*
X172085000Y-114935000D01*
X172085000Y-114935000D02*
X174625000Y-117475000D01*
X174625000Y-117475000D02*
X174625000Y-124650000D01*
X174625000Y-124650000D02*
X176435000Y-126460000D01*
X163620000Y-116300000D02*
X166275000Y-116300000D01*
X166275000Y-116300000D02*
X167005000Y-115570000D01*
X167005000Y-115570000D02*
X167005000Y-113030000D01*
X167005000Y-113030000D02*
X168275000Y-111760000D01*
X171450000Y-111760000D02*
X172085000Y-112395000D01*
X168275000Y-111760000D02*
X171450000Y-111760000D01*
%TO.N,Net-(U5-Pad13)*%
X168815000Y-113760000D02*
X170000000Y-113760000D01*
X168275000Y-114300000D02*
X168815000Y-113760000D01*
X168275000Y-118110000D02*
X168275000Y-114300000D01*
X167545000Y-118840000D02*
X168275000Y-118110000D01*
X163620000Y-118840000D02*
X167545000Y-118840000D01*
%TO.N,Net-(U5-Pad11)*%
X170000000Y-118840000D02*
X164920000Y-123920000D01*
X164920000Y-123920000D02*
X163620000Y-123920000D01*
D22*
%TO.N,0*%
X59690000Y-131445000D02*
X67310000Y-131445000D01*
D21*
X78500000Y-145000000D02*
X80000000Y-145000000D01*
X67310000Y-133810000D02*
X78500000Y-145000000D01*
X67310000Y-131445000D02*
X67310000Y-133810000D01*
D22*
%TO.N,1*%
X69850000Y-131445000D02*
X74930000Y-131445000D01*
D21*
X82540000Y-143040000D02*
X82540000Y-145000000D01*
X74930000Y-135430000D02*
X74930000Y-135070000D01*
X82540000Y-143040000D02*
X74930000Y-135430000D01*
X74930000Y-131445000D02*
X74930000Y-135070000D01*
D22*
%TO.N,4*%
X82550000Y-131445000D02*
X77470000Y-131445000D01*
D21*
X85080000Y-141980000D02*
X82550000Y-139450000D01*
X85080000Y-145000000D02*
X85080000Y-141980000D01*
X82550000Y-131445000D02*
X82550000Y-139450000D01*
%TO.N,7*%
X85090000Y-131445000D02*
X85090000Y-139090000D01*
X87620000Y-141620000D02*
X87620000Y-145000000D01*
X85090000Y-139090000D02*
X87620000Y-141620000D01*
%TO.N,CR*%
X72390000Y-114935000D02*
X71590001Y-114135001D01*
X71590001Y-114135001D02*
X71590001Y-98589999D01*
X71590001Y-98589999D02*
X72390000Y-97790000D01*
X142875000Y-116205000D02*
X73660000Y-116205000D01*
X73660000Y-116205000D02*
X72390000Y-114935000D01*
X147620000Y-111460000D02*
X143192500Y-115887500D01*
X143192500Y-115887500D02*
X142875000Y-116205000D01*
X147620000Y-90000000D02*
X147620000Y-111460000D01*
X144445000Y-114635000D02*
X143192500Y-115887500D01*
D22*
%TO.N,LF*%
X146050000Y-131445000D02*
X150495000Y-131445000D01*
X150495000Y-131445000D02*
X151130000Y-131445000D01*
D21*
X146050000Y-131445000D02*
X146050000Y-132950000D01*
X137000000Y-142000000D02*
X116500000Y-142000000D01*
X146050000Y-132950000D02*
X137000000Y-142000000D01*
X115560000Y-142940000D02*
X116500000Y-142000000D01*
X115560000Y-145000000D02*
X115560000Y-142940000D01*
D22*
%TO.N,DIV*%
X140970000Y-131445000D02*
X143510000Y-131445000D01*
D21*
X140970000Y-131445000D02*
X140970000Y-134030000D01*
X140970000Y-134030000D02*
X134000000Y-141000000D01*
X134000000Y-141000000D02*
X114500000Y-141000000D01*
X113020000Y-142480000D02*
X113020000Y-145000000D01*
X114500000Y-141000000D02*
X113020000Y-142480000D01*
D22*
%TO.N,X*%
X133350000Y-131445000D02*
X138430000Y-131445000D01*
D21*
X133350000Y-131445000D02*
X124795000Y-140000000D01*
X124795000Y-140000000D02*
X112000000Y-140000000D01*
X110480000Y-141520000D02*
X110480000Y-145000000D01*
X112000000Y-140000000D02*
X110480000Y-141520000D01*
D22*
%TO.N,9*%
X128270000Y-131445000D02*
X130810000Y-131445000D01*
D21*
X128270000Y-131445000D02*
X128270000Y-134230000D01*
X128270000Y-134230000D02*
X123500000Y-139000000D01*
X123500000Y-139000000D02*
X109000000Y-139000000D01*
X107940000Y-140060000D02*
X107940000Y-145000000D01*
X109000000Y-139000000D02*
X107940000Y-140060000D01*
D22*
%TO.N,6*%
X123190000Y-131445000D02*
X125730000Y-131445000D01*
D21*
X105400000Y-139900000D02*
X105400000Y-145000000D01*
X117935000Y-138000000D02*
X107300000Y-138000000D01*
X123190000Y-132745000D02*
X117935000Y-138000000D01*
X107300000Y-138000000D02*
X105400000Y-139900000D01*
X123190000Y-131445000D02*
X123190000Y-132745000D01*
D22*
%TO.N,3*%
X118110000Y-131445000D02*
X120650000Y-131445000D01*
D21*
X118110000Y-131445000D02*
X118110000Y-133890000D01*
X118110000Y-133890000D02*
X115000000Y-137000000D01*
X115000000Y-137000000D02*
X104500000Y-137000000D01*
X102860000Y-138640000D02*
X102860000Y-145000000D01*
X104500000Y-137000000D02*
X102860000Y-138640000D01*
D22*
%TO.N,-*%
X113030000Y-131445000D02*
X115570000Y-131445000D01*
D21*
X113030000Y-131445000D02*
X113030000Y-133970000D01*
X113030000Y-133970000D02*
X111000000Y-136000000D01*
X111000000Y-136000000D02*
X102000000Y-136000000D01*
X100320000Y-137680000D02*
X100320000Y-145000000D01*
X102000000Y-136000000D02*
X100320000Y-137680000D01*
D22*
%TO.N,+*%
X107950000Y-131445000D02*
X109855000Y-131445000D01*
X109855000Y-131445000D02*
X110490000Y-131445000D01*
D21*
X107950000Y-131445000D02*
X107950000Y-133050000D01*
X107950000Y-133050000D02*
X106000000Y-135000000D01*
X106000000Y-135000000D02*
X100500000Y-135000000D01*
X97780000Y-137720000D02*
X97780000Y-145000000D01*
X100500000Y-135000000D02*
X97780000Y-137720000D01*
D22*
%TO.N,2*%
X100330000Y-131445000D02*
X105410000Y-131445000D01*
D21*
X100330000Y-131445000D02*
X100330000Y-132670000D01*
X100330000Y-132670000D02*
X95000000Y-138000000D01*
X95000000Y-144760000D02*
X95240000Y-145000000D01*
X95000000Y-138000000D02*
X95000000Y-144760000D01*
D22*
%TO.N,5*%
X97790000Y-131445000D02*
X95250000Y-131445000D01*
D21*
X92700000Y-136200000D02*
X92700000Y-145000000D01*
X95250000Y-133250000D02*
X92500000Y-136000000D01*
X92500000Y-136000000D02*
X92700000Y-136200000D01*
X95250000Y-131445000D02*
X95250000Y-133250000D01*
D22*
%TO.N,8*%
X92710000Y-131445000D02*
X87630000Y-131445000D01*
D21*
X90170000Y-144990000D02*
X90160000Y-145000000D01*
X90170000Y-131445000D02*
X90170000Y-144990000D01*
%TO.N,Net-(R15-Pad1)*%
X92000000Y-72220000D02*
X89070000Y-72220000D01*
X88265000Y-73025000D02*
X85725000Y-73025000D01*
X89070000Y-72220000D02*
X88265000Y-73025000D01*
%TD*%
D24*
%TO.N,GND*%
X199315000Y-149315000D02*
X190127000Y-149315000D01*
X190127000Y-147700881D01*
X192478724Y-147700881D01*
X192838912Y-148190548D01*
X193502882Y-148550849D01*
X194224385Y-148774694D01*
X194975695Y-148853480D01*
X195727938Y-148784178D01*
X196452208Y-148569452D01*
X197120670Y-148217555D01*
X197161088Y-148190548D01*
X197521276Y-147700881D01*
X195000000Y-145179605D01*
X192478724Y-147700881D01*
X190127000Y-147700881D01*
X190127000Y-144975695D01*
X191146520Y-144975695D01*
X191215822Y-145727938D01*
X191430548Y-146452208D01*
X191782445Y-147120670D01*
X191809452Y-147161088D01*
X192299119Y-147521276D01*
X194820395Y-145000000D01*
X195179605Y-145000000D01*
X197700881Y-147521276D01*
X198190548Y-147161088D01*
X198550849Y-146497118D01*
X198774694Y-145775615D01*
X198853480Y-145024305D01*
X198784178Y-144272062D01*
X198569452Y-143547792D01*
X198217555Y-142879330D01*
X198190548Y-142838912D01*
X197700881Y-142478724D01*
X195179605Y-145000000D01*
X194820395Y-145000000D01*
X192299119Y-142478724D01*
X191809452Y-142838912D01*
X191449151Y-143502882D01*
X191225306Y-144224385D01*
X191146520Y-144975695D01*
X190127000Y-144975695D01*
X190127000Y-142299119D01*
X192478724Y-142299119D01*
X195000000Y-144820395D01*
X197521276Y-142299119D01*
X197161088Y-141809452D01*
X196497118Y-141449151D01*
X195775615Y-141225306D01*
X195024305Y-141146520D01*
X194272062Y-141215822D01*
X193547792Y-141430548D01*
X192879330Y-141782445D01*
X192838912Y-141809452D01*
X192478724Y-142299119D01*
X190127000Y-142299119D01*
X190127000Y-138127000D01*
X197000000Y-138127000D01*
X197024776Y-138124560D01*
X197048601Y-138117333D01*
X197070557Y-138105597D01*
X197089803Y-138089803D01*
X197105597Y-138070557D01*
X197117333Y-138048601D01*
X197124560Y-138024776D01*
X197127000Y-138000000D01*
X197127000Y-74000000D01*
X197124560Y-73975224D01*
X197117333Y-73951399D01*
X197105597Y-73929443D01*
X197089803Y-73910197D01*
X196089803Y-72910197D01*
X196070557Y-72894403D01*
X196048601Y-72882667D01*
X196024776Y-72875440D01*
X196000000Y-72873000D01*
X195928868Y-72873000D01*
X195820155Y-72667000D01*
X194627000Y-72667000D01*
X194627000Y-72687000D01*
X194373000Y-72687000D01*
X194373000Y-72667000D01*
X193179845Y-72667000D01*
X193071132Y-72873000D01*
X190052606Y-72873000D01*
X188127000Y-70947394D01*
X188127000Y-70356890D01*
X193058524Y-70356890D01*
X193103175Y-70504099D01*
X193228359Y-70766920D01*
X193402412Y-71000269D01*
X193618645Y-71195178D01*
X193744255Y-71270000D01*
X193618645Y-71344822D01*
X193402412Y-71539731D01*
X193228359Y-71773080D01*
X193103175Y-72035901D01*
X193058524Y-72183110D01*
X193179845Y-72413000D01*
X194373000Y-72413000D01*
X194373000Y-70127000D01*
X194627000Y-70127000D01*
X194627000Y-72413000D01*
X195820155Y-72413000D01*
X195941476Y-72183110D01*
X195896825Y-72035901D01*
X195771641Y-71773080D01*
X195597588Y-71539731D01*
X195381355Y-71344822D01*
X195255745Y-71270000D01*
X195381355Y-71195178D01*
X195597588Y-71000269D01*
X195771641Y-70766920D01*
X195896825Y-70504099D01*
X195941476Y-70356890D01*
X195820155Y-70127000D01*
X194627000Y-70127000D01*
X194373000Y-70127000D01*
X193179845Y-70127000D01*
X193058524Y-70356890D01*
X188127000Y-70356890D01*
X188127000Y-69643110D01*
X193058524Y-69643110D01*
X193179845Y-69873000D01*
X194373000Y-69873000D01*
X194373000Y-68679186D01*
X194627000Y-68679186D01*
X194627000Y-69873000D01*
X195820155Y-69873000D01*
X195941476Y-69643110D01*
X195896825Y-69495901D01*
X195771641Y-69233080D01*
X195597588Y-68999731D01*
X195381355Y-68804822D01*
X195131252Y-68655843D01*
X194856891Y-68558519D01*
X194627000Y-68679186D01*
X194373000Y-68679186D01*
X194143109Y-68558519D01*
X193868748Y-68655843D01*
X193618645Y-68804822D01*
X193402412Y-68999731D01*
X193228359Y-69233080D01*
X193103175Y-69495901D01*
X193058524Y-69643110D01*
X188127000Y-69643110D01*
X188127000Y-67000000D01*
X188124560Y-66975224D01*
X188117333Y-66951399D01*
X188105597Y-66929443D01*
X188089803Y-66910197D01*
X186089803Y-64910197D01*
X186070557Y-64894403D01*
X186048601Y-64882667D01*
X186024776Y-64875440D01*
X186000000Y-64873000D01*
X161052606Y-64873000D01*
X159089803Y-62910197D01*
X159070557Y-62894403D01*
X159048601Y-62882667D01*
X159024776Y-62875440D01*
X159000000Y-62873000D01*
X50685000Y-62873000D01*
X50685000Y-58200881D01*
X52978724Y-58200881D01*
X53338912Y-58690548D01*
X54002882Y-59050849D01*
X54724385Y-59274694D01*
X55475695Y-59353480D01*
X56227938Y-59284178D01*
X56952208Y-59069452D01*
X57620670Y-58717555D01*
X57661088Y-58690548D01*
X58021276Y-58200881D01*
X55500000Y-55679605D01*
X52978724Y-58200881D01*
X50685000Y-58200881D01*
X50685000Y-55475695D01*
X51646520Y-55475695D01*
X51715822Y-56227938D01*
X51930548Y-56952208D01*
X52282445Y-57620670D01*
X52309452Y-57661088D01*
X52799119Y-58021276D01*
X55320395Y-55500000D01*
X55679605Y-55500000D01*
X58200881Y-58021276D01*
X58368557Y-57897937D01*
X147978724Y-57897937D01*
X148338912Y-58387604D01*
X149002882Y-58747905D01*
X149724385Y-58971750D01*
X150475695Y-59050536D01*
X151227938Y-58981234D01*
X151952208Y-58766508D01*
X152620670Y-58414611D01*
X152661088Y-58387604D01*
X153021276Y-57897937D01*
X150500000Y-55376661D01*
X147978724Y-57897937D01*
X58368557Y-57897937D01*
X58690548Y-57661088D01*
X59050849Y-56997118D01*
X59274694Y-56275615D01*
X59353480Y-55524305D01*
X59321093Y-55172751D01*
X146646520Y-55172751D01*
X146715822Y-55924994D01*
X146930548Y-56649264D01*
X147282445Y-57317726D01*
X147309452Y-57358144D01*
X147799119Y-57718332D01*
X150320395Y-55197056D01*
X150679605Y-55197056D01*
X153200881Y-57718332D01*
X153224605Y-57700881D01*
X192478724Y-57700881D01*
X192838912Y-58190548D01*
X193502882Y-58550849D01*
X194224385Y-58774694D01*
X194975695Y-58853480D01*
X195727938Y-58784178D01*
X196452208Y-58569452D01*
X197120670Y-58217555D01*
X197161088Y-58190548D01*
X197521276Y-57700881D01*
X195000000Y-55179605D01*
X192478724Y-57700881D01*
X153224605Y-57700881D01*
X153690548Y-57358144D01*
X154050849Y-56694174D01*
X154274694Y-55972671D01*
X154353480Y-55221361D01*
X154330848Y-54975695D01*
X191146520Y-54975695D01*
X191215822Y-55727938D01*
X191430548Y-56452208D01*
X191782445Y-57120670D01*
X191809452Y-57161088D01*
X192299119Y-57521276D01*
X194820395Y-55000000D01*
X195179605Y-55000000D01*
X197700881Y-57521276D01*
X198190548Y-57161088D01*
X198550849Y-56497118D01*
X198774694Y-55775615D01*
X198853480Y-55024305D01*
X198784178Y-54272062D01*
X198569452Y-53547792D01*
X198217555Y-52879330D01*
X198190548Y-52838912D01*
X197700881Y-52478724D01*
X195179605Y-55000000D01*
X194820395Y-55000000D01*
X192299119Y-52478724D01*
X191809452Y-52838912D01*
X191449151Y-53502882D01*
X191225306Y-54224385D01*
X191146520Y-54975695D01*
X154330848Y-54975695D01*
X154284178Y-54469118D01*
X154069452Y-53744848D01*
X153717555Y-53076386D01*
X153690548Y-53035968D01*
X153200881Y-52675780D01*
X150679605Y-55197056D01*
X150320395Y-55197056D01*
X147799119Y-52675780D01*
X147309452Y-53035968D01*
X146949151Y-53699938D01*
X146725306Y-54421441D01*
X146646520Y-55172751D01*
X59321093Y-55172751D01*
X59284178Y-54772062D01*
X59069452Y-54047792D01*
X58717555Y-53379330D01*
X58690548Y-53338912D01*
X58200881Y-52978724D01*
X55679605Y-55500000D01*
X55320395Y-55500000D01*
X52799119Y-52978724D01*
X52309452Y-53338912D01*
X51949151Y-54002882D01*
X51725306Y-54724385D01*
X51646520Y-55475695D01*
X50685000Y-55475695D01*
X50685000Y-52799119D01*
X52978724Y-52799119D01*
X55500000Y-55320395D01*
X58021276Y-52799119D01*
X57798438Y-52496175D01*
X147978724Y-52496175D01*
X150500000Y-55017451D01*
X153021276Y-52496175D01*
X152876327Y-52299119D01*
X192478724Y-52299119D01*
X195000000Y-54820395D01*
X197521276Y-52299119D01*
X197161088Y-51809452D01*
X196497118Y-51449151D01*
X195775615Y-51225306D01*
X195024305Y-51146520D01*
X194272062Y-51215822D01*
X193547792Y-51430548D01*
X192879330Y-51782445D01*
X192838912Y-51809452D01*
X192478724Y-52299119D01*
X152876327Y-52299119D01*
X152661088Y-52006508D01*
X151997118Y-51646207D01*
X151275615Y-51422362D01*
X150524305Y-51343576D01*
X149772062Y-51412878D01*
X149047792Y-51627604D01*
X148379330Y-51979501D01*
X148338912Y-52006508D01*
X147978724Y-52496175D01*
X57798438Y-52496175D01*
X57661088Y-52309452D01*
X56997118Y-51949151D01*
X56275615Y-51725306D01*
X55524305Y-51646520D01*
X54772062Y-51715822D01*
X54047792Y-51930548D01*
X53379330Y-52282445D01*
X53338912Y-52309452D01*
X52978724Y-52799119D01*
X50685000Y-52799119D01*
X50685000Y-50685000D01*
X199315001Y-50685000D01*
X199315000Y-149315000D01*
%TA.AperFunction,Conductor*%
D25*
G36*
X199315000Y-149315000D02*
G01*
X190127000Y-149315000D01*
X190127000Y-147700881D01*
X192478724Y-147700881D01*
X192838912Y-148190548D01*
X193502882Y-148550849D01*
X194224385Y-148774694D01*
X194975695Y-148853480D01*
X195727938Y-148784178D01*
X196452208Y-148569452D01*
X197120670Y-148217555D01*
X197161088Y-148190548D01*
X197521276Y-147700881D01*
X195000000Y-145179605D01*
X192478724Y-147700881D01*
X190127000Y-147700881D01*
X190127000Y-144975695D01*
X191146520Y-144975695D01*
X191215822Y-145727938D01*
X191430548Y-146452208D01*
X191782445Y-147120670D01*
X191809452Y-147161088D01*
X192299119Y-147521276D01*
X194820395Y-145000000D01*
X195179605Y-145000000D01*
X197700881Y-147521276D01*
X198190548Y-147161088D01*
X198550849Y-146497118D01*
X198774694Y-145775615D01*
X198853480Y-145024305D01*
X198784178Y-144272062D01*
X198569452Y-143547792D01*
X198217555Y-142879330D01*
X198190548Y-142838912D01*
X197700881Y-142478724D01*
X195179605Y-145000000D01*
X194820395Y-145000000D01*
X192299119Y-142478724D01*
X191809452Y-142838912D01*
X191449151Y-143502882D01*
X191225306Y-144224385D01*
X191146520Y-144975695D01*
X190127000Y-144975695D01*
X190127000Y-142299119D01*
X192478724Y-142299119D01*
X195000000Y-144820395D01*
X197521276Y-142299119D01*
X197161088Y-141809452D01*
X196497118Y-141449151D01*
X195775615Y-141225306D01*
X195024305Y-141146520D01*
X194272062Y-141215822D01*
X193547792Y-141430548D01*
X192879330Y-141782445D01*
X192838912Y-141809452D01*
X192478724Y-142299119D01*
X190127000Y-142299119D01*
X190127000Y-138127000D01*
X197000000Y-138127000D01*
X197024776Y-138124560D01*
X197048601Y-138117333D01*
X197070557Y-138105597D01*
X197089803Y-138089803D01*
X197105597Y-138070557D01*
X197117333Y-138048601D01*
X197124560Y-138024776D01*
X197127000Y-138000000D01*
X197127000Y-74000000D01*
X197124560Y-73975224D01*
X197117333Y-73951399D01*
X197105597Y-73929443D01*
X197089803Y-73910197D01*
X196089803Y-72910197D01*
X196070557Y-72894403D01*
X196048601Y-72882667D01*
X196024776Y-72875440D01*
X196000000Y-72873000D01*
X195928868Y-72873000D01*
X195820155Y-72667000D01*
X194627000Y-72667000D01*
X194627000Y-72687000D01*
X194373000Y-72687000D01*
X194373000Y-72667000D01*
X193179845Y-72667000D01*
X193071132Y-72873000D01*
X190052606Y-72873000D01*
X188127000Y-70947394D01*
X188127000Y-70356890D01*
X193058524Y-70356890D01*
X193103175Y-70504099D01*
X193228359Y-70766920D01*
X193402412Y-71000269D01*
X193618645Y-71195178D01*
X193744255Y-71270000D01*
X193618645Y-71344822D01*
X193402412Y-71539731D01*
X193228359Y-71773080D01*
X193103175Y-72035901D01*
X193058524Y-72183110D01*
X193179845Y-72413000D01*
X194373000Y-72413000D01*
X194373000Y-70127000D01*
X194627000Y-70127000D01*
X194627000Y-72413000D01*
X195820155Y-72413000D01*
X195941476Y-72183110D01*
X195896825Y-72035901D01*
X195771641Y-71773080D01*
X195597588Y-71539731D01*
X195381355Y-71344822D01*
X195255745Y-71270000D01*
X195381355Y-71195178D01*
X195597588Y-71000269D01*
X195771641Y-70766920D01*
X195896825Y-70504099D01*
X195941476Y-70356890D01*
X195820155Y-70127000D01*
X194627000Y-70127000D01*
X194373000Y-70127000D01*
X193179845Y-70127000D01*
X193058524Y-70356890D01*
X188127000Y-70356890D01*
X188127000Y-69643110D01*
X193058524Y-69643110D01*
X193179845Y-69873000D01*
X194373000Y-69873000D01*
X194373000Y-68679186D01*
X194627000Y-68679186D01*
X194627000Y-69873000D01*
X195820155Y-69873000D01*
X195941476Y-69643110D01*
X195896825Y-69495901D01*
X195771641Y-69233080D01*
X195597588Y-68999731D01*
X195381355Y-68804822D01*
X195131252Y-68655843D01*
X194856891Y-68558519D01*
X194627000Y-68679186D01*
X194373000Y-68679186D01*
X194143109Y-68558519D01*
X193868748Y-68655843D01*
X193618645Y-68804822D01*
X193402412Y-68999731D01*
X193228359Y-69233080D01*
X193103175Y-69495901D01*
X193058524Y-69643110D01*
X188127000Y-69643110D01*
X188127000Y-67000000D01*
X188124560Y-66975224D01*
X188117333Y-66951399D01*
X188105597Y-66929443D01*
X188089803Y-66910197D01*
X186089803Y-64910197D01*
X186070557Y-64894403D01*
X186048601Y-64882667D01*
X186024776Y-64875440D01*
X186000000Y-64873000D01*
X161052606Y-64873000D01*
X159089803Y-62910197D01*
X159070557Y-62894403D01*
X159048601Y-62882667D01*
X159024776Y-62875440D01*
X159000000Y-62873000D01*
X50685000Y-62873000D01*
X50685000Y-58200881D01*
X52978724Y-58200881D01*
X53338912Y-58690548D01*
X54002882Y-59050849D01*
X54724385Y-59274694D01*
X55475695Y-59353480D01*
X56227938Y-59284178D01*
X56952208Y-59069452D01*
X57620670Y-58717555D01*
X57661088Y-58690548D01*
X58021276Y-58200881D01*
X55500000Y-55679605D01*
X52978724Y-58200881D01*
X50685000Y-58200881D01*
X50685000Y-55475695D01*
X51646520Y-55475695D01*
X51715822Y-56227938D01*
X51930548Y-56952208D01*
X52282445Y-57620670D01*
X52309452Y-57661088D01*
X52799119Y-58021276D01*
X55320395Y-55500000D01*
X55679605Y-55500000D01*
X58200881Y-58021276D01*
X58368557Y-57897937D01*
X147978724Y-57897937D01*
X148338912Y-58387604D01*
X149002882Y-58747905D01*
X149724385Y-58971750D01*
X150475695Y-59050536D01*
X151227938Y-58981234D01*
X151952208Y-58766508D01*
X152620670Y-58414611D01*
X152661088Y-58387604D01*
X153021276Y-57897937D01*
X150500000Y-55376661D01*
X147978724Y-57897937D01*
X58368557Y-57897937D01*
X58690548Y-57661088D01*
X59050849Y-56997118D01*
X59274694Y-56275615D01*
X59353480Y-55524305D01*
X59321093Y-55172751D01*
X146646520Y-55172751D01*
X146715822Y-55924994D01*
X146930548Y-56649264D01*
X147282445Y-57317726D01*
X147309452Y-57358144D01*
X147799119Y-57718332D01*
X150320395Y-55197056D01*
X150679605Y-55197056D01*
X153200881Y-57718332D01*
X153224605Y-57700881D01*
X192478724Y-57700881D01*
X192838912Y-58190548D01*
X193502882Y-58550849D01*
X194224385Y-58774694D01*
X194975695Y-58853480D01*
X195727938Y-58784178D01*
X196452208Y-58569452D01*
X197120670Y-58217555D01*
X197161088Y-58190548D01*
X197521276Y-57700881D01*
X195000000Y-55179605D01*
X192478724Y-57700881D01*
X153224605Y-57700881D01*
X153690548Y-57358144D01*
X154050849Y-56694174D01*
X154274694Y-55972671D01*
X154353480Y-55221361D01*
X154330848Y-54975695D01*
X191146520Y-54975695D01*
X191215822Y-55727938D01*
X191430548Y-56452208D01*
X191782445Y-57120670D01*
X191809452Y-57161088D01*
X192299119Y-57521276D01*
X194820395Y-55000000D01*
X195179605Y-55000000D01*
X197700881Y-57521276D01*
X198190548Y-57161088D01*
X198550849Y-56497118D01*
X198774694Y-55775615D01*
X198853480Y-55024305D01*
X198784178Y-54272062D01*
X198569452Y-53547792D01*
X198217555Y-52879330D01*
X198190548Y-52838912D01*
X197700881Y-52478724D01*
X195179605Y-55000000D01*
X194820395Y-55000000D01*
X192299119Y-52478724D01*
X191809452Y-52838912D01*
X191449151Y-53502882D01*
X191225306Y-54224385D01*
X191146520Y-54975695D01*
X154330848Y-54975695D01*
X154284178Y-54469118D01*
X154069452Y-53744848D01*
X153717555Y-53076386D01*
X153690548Y-53035968D01*
X153200881Y-52675780D01*
X150679605Y-55197056D01*
X150320395Y-55197056D01*
X147799119Y-52675780D01*
X147309452Y-53035968D01*
X146949151Y-53699938D01*
X146725306Y-54421441D01*
X146646520Y-55172751D01*
X59321093Y-55172751D01*
X59284178Y-54772062D01*
X59069452Y-54047792D01*
X58717555Y-53379330D01*
X58690548Y-53338912D01*
X58200881Y-52978724D01*
X55679605Y-55500000D01*
X55320395Y-55500000D01*
X52799119Y-52978724D01*
X52309452Y-53338912D01*
X51949151Y-54002882D01*
X51725306Y-54724385D01*
X51646520Y-55475695D01*
X50685000Y-55475695D01*
X50685000Y-52799119D01*
X52978724Y-52799119D01*
X55500000Y-55320395D01*
X58021276Y-52799119D01*
X57798438Y-52496175D01*
X147978724Y-52496175D01*
X150500000Y-55017451D01*
X153021276Y-52496175D01*
X152876327Y-52299119D01*
X192478724Y-52299119D01*
X195000000Y-54820395D01*
X197521276Y-52299119D01*
X197161088Y-51809452D01*
X196497118Y-51449151D01*
X195775615Y-51225306D01*
X195024305Y-51146520D01*
X194272062Y-51215822D01*
X193547792Y-51430548D01*
X192879330Y-51782445D01*
X192838912Y-51809452D01*
X192478724Y-52299119D01*
X152876327Y-52299119D01*
X152661088Y-52006508D01*
X151997118Y-51646207D01*
X151275615Y-51422362D01*
X150524305Y-51343576D01*
X149772062Y-51412878D01*
X149047792Y-51627604D01*
X148379330Y-51979501D01*
X148338912Y-52006508D01*
X147978724Y-52496175D01*
X57798438Y-52496175D01*
X57661088Y-52309452D01*
X56997118Y-51949151D01*
X56275615Y-51725306D01*
X55524305Y-51646520D01*
X54772062Y-51715822D01*
X54047792Y-51930548D01*
X53379330Y-52282445D01*
X53338912Y-52309452D01*
X52978724Y-52799119D01*
X50685000Y-52799119D01*
X50685000Y-50685000D01*
X199315001Y-50685000D01*
X199315000Y-149315000D01*
G37*
%TD.AperFunction*%
%TD*%
D24*
%TO.N,GND*%
X57873000Y-52597541D02*
X57661088Y-52309452D01*
X56997118Y-51949151D01*
X56275615Y-51725306D01*
X55524305Y-51646520D01*
X54772062Y-51715822D01*
X54047792Y-51930548D01*
X53379330Y-52282445D01*
X53338912Y-52309452D01*
X52978724Y-52799119D01*
X55500000Y-55320395D01*
X55514143Y-55306253D01*
X55693748Y-55485858D01*
X55679605Y-55500000D01*
X55693748Y-55514143D01*
X55514143Y-55693748D01*
X55500000Y-55679605D01*
X52978724Y-58200881D01*
X53338912Y-58690548D01*
X54002882Y-59050849D01*
X54724385Y-59274694D01*
X55475695Y-59353480D01*
X56227938Y-59284178D01*
X56952208Y-59069452D01*
X57620670Y-58717555D01*
X57661088Y-58690548D01*
X57873000Y-58402459D01*
X57873000Y-89000000D01*
X57875440Y-89024776D01*
X57882667Y-89048601D01*
X57894403Y-89070557D01*
X57910197Y-89089803D01*
X58910197Y-90089803D01*
X58929443Y-90105597D01*
X58951399Y-90117333D01*
X58975224Y-90124560D01*
X59000000Y-90127000D01*
X70000000Y-90127000D01*
X70024776Y-90124560D01*
X70048601Y-90117333D01*
X70070557Y-90105597D01*
X70089803Y-90089803D01*
X71089803Y-89089803D01*
X71105597Y-89070557D01*
X71117333Y-89048601D01*
X71124560Y-89024776D01*
X71127000Y-89000000D01*
X71127000Y-88622702D01*
X71576903Y-88622702D01*
X71648486Y-88866671D01*
X71903996Y-88987571D01*
X72178184Y-89056300D01*
X72460512Y-89070217D01*
X72740130Y-89028787D01*
X73006292Y-88933603D01*
X73131514Y-88866671D01*
X73203097Y-88622702D01*
X74751903Y-88622702D01*
X74823486Y-88866671D01*
X75078996Y-88987571D01*
X75353184Y-89056300D01*
X75635512Y-89070217D01*
X75915130Y-89028787D01*
X76181292Y-88933603D01*
X76306514Y-88866671D01*
X76378097Y-88622702D01*
X75565000Y-87809605D01*
X74751903Y-88622702D01*
X73203097Y-88622702D01*
X72390000Y-87809605D01*
X71576903Y-88622702D01*
X71127000Y-88622702D01*
X71127000Y-88322255D01*
X71153329Y-88371514D01*
X71397298Y-88443097D01*
X72210395Y-87630000D01*
X72569605Y-87630000D01*
X73382702Y-88443097D01*
X73626671Y-88371514D01*
X73747571Y-88116004D01*
X73816300Y-87841816D01*
X73823265Y-87700512D01*
X74124783Y-87700512D01*
X74166213Y-87980130D01*
X74261397Y-88246292D01*
X74328329Y-88371514D01*
X74572298Y-88443097D01*
X75385395Y-87630000D01*
X75744605Y-87630000D01*
X76557702Y-88443097D01*
X76801671Y-88371514D01*
X76922571Y-88116004D01*
X76991300Y-87841816D01*
X77005217Y-87559488D01*
X76963787Y-87279870D01*
X76868603Y-87013708D01*
X76801671Y-86888486D01*
X76557702Y-86816903D01*
X75744605Y-87630000D01*
X75385395Y-87630000D01*
X74572298Y-86816903D01*
X74328329Y-86888486D01*
X74207429Y-87143996D01*
X74138700Y-87418184D01*
X74124783Y-87700512D01*
X73823265Y-87700512D01*
X73830217Y-87559488D01*
X73788787Y-87279870D01*
X73693603Y-87013708D01*
X73626671Y-86888486D01*
X73382702Y-86816903D01*
X72569605Y-87630000D01*
X72210395Y-87630000D01*
X71397298Y-86816903D01*
X71153329Y-86888486D01*
X71127000Y-86944130D01*
X71127000Y-86637298D01*
X71576903Y-86637298D01*
X72390000Y-87450395D01*
X73203097Y-86637298D01*
X74751903Y-86637298D01*
X75565000Y-87450395D01*
X76378097Y-86637298D01*
X76306514Y-86393329D01*
X76051004Y-86272429D01*
X75776816Y-86203700D01*
X75494488Y-86189783D01*
X75214870Y-86231213D01*
X74948708Y-86326397D01*
X74823486Y-86393329D01*
X74751903Y-86637298D01*
X73203097Y-86637298D01*
X73131514Y-86393329D01*
X72876004Y-86272429D01*
X72601816Y-86203700D01*
X72319488Y-86189783D01*
X72039870Y-86231213D01*
X71773708Y-86326397D01*
X71648486Y-86393329D01*
X71576903Y-86637298D01*
X71127000Y-86637298D01*
X71127000Y-85052606D01*
X73052606Y-83127000D01*
X83947394Y-83127000D01*
X89910197Y-89089803D01*
X89929443Y-89105597D01*
X89951399Y-89117333D01*
X89975224Y-89124560D01*
X90000000Y-89127000D01*
X90869462Y-89127000D01*
X90768963Y-89262580D01*
X90648754Y-89516913D01*
X90608096Y-89650961D01*
X90730085Y-89873000D01*
X91873000Y-89873000D01*
X91873000Y-89853000D01*
X92127000Y-89853000D01*
X92127000Y-89873000D01*
X93269915Y-89873000D01*
X93391904Y-89650961D01*
X93351246Y-89516913D01*
X93231037Y-89262580D01*
X93097363Y-89082243D01*
X96052606Y-86127000D01*
X98843472Y-86127000D01*
X98940273Y-86191680D01*
X98950865Y-86196067D01*
X98764869Y-86307615D01*
X98556481Y-86496586D01*
X98388963Y-86722580D01*
X98268754Y-86976913D01*
X98228096Y-87110961D01*
X98350085Y-87333000D01*
X99493000Y-87333000D01*
X99493000Y-87313000D01*
X99747000Y-87313000D01*
X99747000Y-87333000D01*
X100889915Y-87333000D01*
X101011904Y-87110961D01*
X100971246Y-86976913D01*
X100851037Y-86722580D01*
X100683519Y-86496586D01*
X100475131Y-86307615D01*
X100289135Y-86196067D01*
X100299727Y-86191680D01*
X100396528Y-86127000D01*
X100947394Y-86127000D01*
X101873000Y-87052606D01*
X101873000Y-87947394D01*
X100947394Y-88873000D01*
X100516256Y-88873000D01*
X100299727Y-88728320D01*
X100289135Y-88723933D01*
X100475131Y-88612385D01*
X100683519Y-88423414D01*
X100851037Y-88197420D01*
X100971246Y-87943087D01*
X101011904Y-87809039D01*
X100889915Y-87587000D01*
X99747000Y-87587000D01*
X99747000Y-87607000D01*
X99493000Y-87607000D01*
X99493000Y-87587000D01*
X98350085Y-87587000D01*
X98228096Y-87809039D01*
X98268754Y-87943087D01*
X98388963Y-88197420D01*
X98556481Y-88423414D01*
X98764869Y-88612385D01*
X98950865Y-88723933D01*
X98940273Y-88728320D01*
X98723744Y-88873000D01*
X98000000Y-88873000D01*
X97975224Y-88875440D01*
X97951399Y-88882667D01*
X97929443Y-88894403D01*
X97910197Y-88910197D01*
X96910197Y-89910197D01*
X96894403Y-89929443D01*
X96882667Y-89951399D01*
X96875440Y-89975224D01*
X96873000Y-90000000D01*
X96873000Y-91000000D01*
X96875440Y-91024776D01*
X96882667Y-91048601D01*
X96894403Y-91070557D01*
X96910197Y-91089803D01*
X97910197Y-92089803D01*
X97929443Y-92105597D01*
X97951399Y-92117333D01*
X97975224Y-92124560D01*
X98000000Y-92127000D01*
X101000000Y-92127000D01*
X101024776Y-92124560D01*
X101048601Y-92117333D01*
X101070557Y-92105597D01*
X101089803Y-92089803D01*
X102830567Y-90349039D01*
X115608096Y-90349039D01*
X115648754Y-90483087D01*
X115768963Y-90737420D01*
X115936481Y-90963414D01*
X116144869Y-91152385D01*
X116386119Y-91297070D01*
X116650960Y-91391909D01*
X116873000Y-91270624D01*
X116873000Y-90127000D01*
X117127000Y-90127000D01*
X117127000Y-91270624D01*
X117349040Y-91391909D01*
X117613881Y-91297070D01*
X117855131Y-91152385D01*
X118063519Y-90963414D01*
X118231037Y-90737420D01*
X118351246Y-90483087D01*
X118391904Y-90349039D01*
X118269915Y-90127000D01*
X117127000Y-90127000D01*
X116873000Y-90127000D01*
X115730085Y-90127000D01*
X115608096Y-90349039D01*
X102830567Y-90349039D01*
X104052606Y-89127000D01*
X115869462Y-89127000D01*
X115768963Y-89262580D01*
X115648754Y-89516913D01*
X115608096Y-89650961D01*
X115730085Y-89873000D01*
X116873000Y-89873000D01*
X116873000Y-89853000D01*
X117127000Y-89853000D01*
X117127000Y-89873000D01*
X118269915Y-89873000D01*
X118391904Y-89650961D01*
X118351246Y-89516913D01*
X118231037Y-89262580D01*
X118130538Y-89127000D01*
X118873000Y-89127000D01*
X118873000Y-91947394D01*
X115947394Y-94873000D01*
X80052606Y-94873000D01*
X79089803Y-93910197D01*
X79070557Y-93894403D01*
X79048601Y-93882667D01*
X79024776Y-93875440D01*
X79000000Y-93873000D01*
X61000000Y-93873000D01*
X60975224Y-93875440D01*
X60951399Y-93882667D01*
X60929443Y-93894403D01*
X60910197Y-93910197D01*
X57910197Y-96910197D01*
X57894403Y-96929443D01*
X57882667Y-96951399D01*
X57875440Y-96975224D01*
X57873000Y-97000000D01*
X57873000Y-109947394D01*
X54910197Y-112910197D01*
X54894403Y-112929443D01*
X54882667Y-112951399D01*
X54875440Y-112975224D01*
X54873000Y-113000000D01*
X54873000Y-126000000D01*
X54875440Y-126024776D01*
X54882667Y-126048601D01*
X54894403Y-126070557D01*
X54910197Y-126089803D01*
X57873000Y-129052606D01*
X57873000Y-136000000D01*
X57875440Y-136024776D01*
X57882667Y-136048601D01*
X57894403Y-136070557D01*
X57910197Y-136089803D01*
X57929443Y-136105597D01*
X57951399Y-136117333D01*
X57975224Y-136124560D01*
X58000000Y-136127000D01*
X65873000Y-136127000D01*
X65873000Y-149315000D01*
X50685000Y-149315000D01*
X50685000Y-147700881D01*
X52978724Y-147700881D01*
X53338912Y-148190548D01*
X54002882Y-148550849D01*
X54724385Y-148774694D01*
X55475695Y-148853480D01*
X56227938Y-148784178D01*
X56952208Y-148569452D01*
X57620670Y-148217555D01*
X57661088Y-148190548D01*
X58021276Y-147700881D01*
X55500000Y-145179605D01*
X52978724Y-147700881D01*
X50685000Y-147700881D01*
X50685000Y-144975695D01*
X51646520Y-144975695D01*
X51715822Y-145727938D01*
X51930548Y-146452208D01*
X52282445Y-147120670D01*
X52309452Y-147161088D01*
X52799119Y-147521276D01*
X55320395Y-145000000D01*
X55679605Y-145000000D01*
X58200881Y-147521276D01*
X58690548Y-147161088D01*
X59050849Y-146497118D01*
X59274694Y-145775615D01*
X59353480Y-145024305D01*
X59284178Y-144272062D01*
X59069452Y-143547792D01*
X58717555Y-142879330D01*
X58690548Y-142838912D01*
X58200881Y-142478724D01*
X55679605Y-145000000D01*
X55320395Y-145000000D01*
X52799119Y-142478724D01*
X52309452Y-142838912D01*
X51949151Y-143502882D01*
X51725306Y-144224385D01*
X51646520Y-144975695D01*
X50685000Y-144975695D01*
X50685000Y-142299119D01*
X52978724Y-142299119D01*
X55500000Y-144820395D01*
X58021276Y-142299119D01*
X57661088Y-141809452D01*
X56997118Y-141449151D01*
X56275615Y-141225306D01*
X55524305Y-141146520D01*
X54772062Y-141215822D01*
X54047792Y-141430548D01*
X53379330Y-141782445D01*
X53338912Y-141809452D01*
X52978724Y-142299119D01*
X50685000Y-142299119D01*
X50685000Y-90349039D01*
X90608096Y-90349039D01*
X90648754Y-90483087D01*
X90768963Y-90737420D01*
X90936481Y-90963414D01*
X91144869Y-91152385D01*
X91386119Y-91297070D01*
X91650960Y-91391909D01*
X91873000Y-91270624D01*
X91873000Y-90127000D01*
X92127000Y-90127000D01*
X92127000Y-91270624D01*
X92349040Y-91391909D01*
X92613881Y-91297070D01*
X92855131Y-91152385D01*
X93063519Y-90963414D01*
X93231037Y-90737420D01*
X93351246Y-90483087D01*
X93391904Y-90349039D01*
X93269915Y-90127000D01*
X92127000Y-90127000D01*
X91873000Y-90127000D01*
X90730085Y-90127000D01*
X90608096Y-90349039D01*
X50685000Y-90349039D01*
X50685000Y-55475695D01*
X51646520Y-55475695D01*
X51715822Y-56227938D01*
X51930548Y-56952208D01*
X52282445Y-57620670D01*
X52309452Y-57661088D01*
X52799119Y-58021276D01*
X55320395Y-55500000D01*
X52799119Y-52978724D01*
X52309452Y-53338912D01*
X51949151Y-54002882D01*
X51725306Y-54724385D01*
X51646520Y-55475695D01*
X50685000Y-55475695D01*
X50685000Y-50685000D01*
X57873000Y-50685000D01*
X57873000Y-52597541D01*
%TA.AperFunction,Conductor*%
D25*
G36*
X57873000Y-52597541D02*
G01*
X57661088Y-52309452D01*
X56997118Y-51949151D01*
X56275615Y-51725306D01*
X55524305Y-51646520D01*
X54772062Y-51715822D01*
X54047792Y-51930548D01*
X53379330Y-52282445D01*
X53338912Y-52309452D01*
X52978724Y-52799119D01*
X55500000Y-55320395D01*
X55514143Y-55306253D01*
X55693748Y-55485858D01*
X55679605Y-55500000D01*
X55693748Y-55514143D01*
X55514143Y-55693748D01*
X55500000Y-55679605D01*
X52978724Y-58200881D01*
X53338912Y-58690548D01*
X54002882Y-59050849D01*
X54724385Y-59274694D01*
X55475695Y-59353480D01*
X56227938Y-59284178D01*
X56952208Y-59069452D01*
X57620670Y-58717555D01*
X57661088Y-58690548D01*
X57873000Y-58402459D01*
X57873000Y-89000000D01*
X57875440Y-89024776D01*
X57882667Y-89048601D01*
X57894403Y-89070557D01*
X57910197Y-89089803D01*
X58910197Y-90089803D01*
X58929443Y-90105597D01*
X58951399Y-90117333D01*
X58975224Y-90124560D01*
X59000000Y-90127000D01*
X70000000Y-90127000D01*
X70024776Y-90124560D01*
X70048601Y-90117333D01*
X70070557Y-90105597D01*
X70089803Y-90089803D01*
X71089803Y-89089803D01*
X71105597Y-89070557D01*
X71117333Y-89048601D01*
X71124560Y-89024776D01*
X71127000Y-89000000D01*
X71127000Y-88622702D01*
X71576903Y-88622702D01*
X71648486Y-88866671D01*
X71903996Y-88987571D01*
X72178184Y-89056300D01*
X72460512Y-89070217D01*
X72740130Y-89028787D01*
X73006292Y-88933603D01*
X73131514Y-88866671D01*
X73203097Y-88622702D01*
X74751903Y-88622702D01*
X74823486Y-88866671D01*
X75078996Y-88987571D01*
X75353184Y-89056300D01*
X75635512Y-89070217D01*
X75915130Y-89028787D01*
X76181292Y-88933603D01*
X76306514Y-88866671D01*
X76378097Y-88622702D01*
X75565000Y-87809605D01*
X74751903Y-88622702D01*
X73203097Y-88622702D01*
X72390000Y-87809605D01*
X71576903Y-88622702D01*
X71127000Y-88622702D01*
X71127000Y-88322255D01*
X71153329Y-88371514D01*
X71397298Y-88443097D01*
X72210395Y-87630000D01*
X72569605Y-87630000D01*
X73382702Y-88443097D01*
X73626671Y-88371514D01*
X73747571Y-88116004D01*
X73816300Y-87841816D01*
X73823265Y-87700512D01*
X74124783Y-87700512D01*
X74166213Y-87980130D01*
X74261397Y-88246292D01*
X74328329Y-88371514D01*
X74572298Y-88443097D01*
X75385395Y-87630000D01*
X75744605Y-87630000D01*
X76557702Y-88443097D01*
X76801671Y-88371514D01*
X76922571Y-88116004D01*
X76991300Y-87841816D01*
X77005217Y-87559488D01*
X76963787Y-87279870D01*
X76868603Y-87013708D01*
X76801671Y-86888486D01*
X76557702Y-86816903D01*
X75744605Y-87630000D01*
X75385395Y-87630000D01*
X74572298Y-86816903D01*
X74328329Y-86888486D01*
X74207429Y-87143996D01*
X74138700Y-87418184D01*
X74124783Y-87700512D01*
X73823265Y-87700512D01*
X73830217Y-87559488D01*
X73788787Y-87279870D01*
X73693603Y-87013708D01*
X73626671Y-86888486D01*
X73382702Y-86816903D01*
X72569605Y-87630000D01*
X72210395Y-87630000D01*
X71397298Y-86816903D01*
X71153329Y-86888486D01*
X71127000Y-86944130D01*
X71127000Y-86637298D01*
X71576903Y-86637298D01*
X72390000Y-87450395D01*
X73203097Y-86637298D01*
X74751903Y-86637298D01*
X75565000Y-87450395D01*
X76378097Y-86637298D01*
X76306514Y-86393329D01*
X76051004Y-86272429D01*
X75776816Y-86203700D01*
X75494488Y-86189783D01*
X75214870Y-86231213D01*
X74948708Y-86326397D01*
X74823486Y-86393329D01*
X74751903Y-86637298D01*
X73203097Y-86637298D01*
X73131514Y-86393329D01*
X72876004Y-86272429D01*
X72601816Y-86203700D01*
X72319488Y-86189783D01*
X72039870Y-86231213D01*
X71773708Y-86326397D01*
X71648486Y-86393329D01*
X71576903Y-86637298D01*
X71127000Y-86637298D01*
X71127000Y-85052606D01*
X73052606Y-83127000D01*
X83947394Y-83127000D01*
X89910197Y-89089803D01*
X89929443Y-89105597D01*
X89951399Y-89117333D01*
X89975224Y-89124560D01*
X90000000Y-89127000D01*
X90869462Y-89127000D01*
X90768963Y-89262580D01*
X90648754Y-89516913D01*
X90608096Y-89650961D01*
X90730085Y-89873000D01*
X91873000Y-89873000D01*
X91873000Y-89853000D01*
X92127000Y-89853000D01*
X92127000Y-89873000D01*
X93269915Y-89873000D01*
X93391904Y-89650961D01*
X93351246Y-89516913D01*
X93231037Y-89262580D01*
X93097363Y-89082243D01*
X96052606Y-86127000D01*
X98843472Y-86127000D01*
X98940273Y-86191680D01*
X98950865Y-86196067D01*
X98764869Y-86307615D01*
X98556481Y-86496586D01*
X98388963Y-86722580D01*
X98268754Y-86976913D01*
X98228096Y-87110961D01*
X98350085Y-87333000D01*
X99493000Y-87333000D01*
X99493000Y-87313000D01*
X99747000Y-87313000D01*
X99747000Y-87333000D01*
X100889915Y-87333000D01*
X101011904Y-87110961D01*
X100971246Y-86976913D01*
X100851037Y-86722580D01*
X100683519Y-86496586D01*
X100475131Y-86307615D01*
X100289135Y-86196067D01*
X100299727Y-86191680D01*
X100396528Y-86127000D01*
X100947394Y-86127000D01*
X101873000Y-87052606D01*
X101873000Y-87947394D01*
X100947394Y-88873000D01*
X100516256Y-88873000D01*
X100299727Y-88728320D01*
X100289135Y-88723933D01*
X100475131Y-88612385D01*
X100683519Y-88423414D01*
X100851037Y-88197420D01*
X100971246Y-87943087D01*
X101011904Y-87809039D01*
X100889915Y-87587000D01*
X99747000Y-87587000D01*
X99747000Y-87607000D01*
X99493000Y-87607000D01*
X99493000Y-87587000D01*
X98350085Y-87587000D01*
X98228096Y-87809039D01*
X98268754Y-87943087D01*
X98388963Y-88197420D01*
X98556481Y-88423414D01*
X98764869Y-88612385D01*
X98950865Y-88723933D01*
X98940273Y-88728320D01*
X98723744Y-88873000D01*
X98000000Y-88873000D01*
X97975224Y-88875440D01*
X97951399Y-88882667D01*
X97929443Y-88894403D01*
X97910197Y-88910197D01*
X96910197Y-89910197D01*
X96894403Y-89929443D01*
X96882667Y-89951399D01*
X96875440Y-89975224D01*
X96873000Y-90000000D01*
X96873000Y-91000000D01*
X96875440Y-91024776D01*
X96882667Y-91048601D01*
X96894403Y-91070557D01*
X96910197Y-91089803D01*
X97910197Y-92089803D01*
X97929443Y-92105597D01*
X97951399Y-92117333D01*
X97975224Y-92124560D01*
X98000000Y-92127000D01*
X101000000Y-92127000D01*
X101024776Y-92124560D01*
X101048601Y-92117333D01*
X101070557Y-92105597D01*
X101089803Y-92089803D01*
X102830567Y-90349039D01*
X115608096Y-90349039D01*
X115648754Y-90483087D01*
X115768963Y-90737420D01*
X115936481Y-90963414D01*
X116144869Y-91152385D01*
X116386119Y-91297070D01*
X116650960Y-91391909D01*
X116873000Y-91270624D01*
X116873000Y-90127000D01*
X117127000Y-90127000D01*
X117127000Y-91270624D01*
X117349040Y-91391909D01*
X117613881Y-91297070D01*
X117855131Y-91152385D01*
X118063519Y-90963414D01*
X118231037Y-90737420D01*
X118351246Y-90483087D01*
X118391904Y-90349039D01*
X118269915Y-90127000D01*
X117127000Y-90127000D01*
X116873000Y-90127000D01*
X115730085Y-90127000D01*
X115608096Y-90349039D01*
X102830567Y-90349039D01*
X104052606Y-89127000D01*
X115869462Y-89127000D01*
X115768963Y-89262580D01*
X115648754Y-89516913D01*
X115608096Y-89650961D01*
X115730085Y-89873000D01*
X116873000Y-89873000D01*
X116873000Y-89853000D01*
X117127000Y-89853000D01*
X117127000Y-89873000D01*
X118269915Y-89873000D01*
X118391904Y-89650961D01*
X118351246Y-89516913D01*
X118231037Y-89262580D01*
X118130538Y-89127000D01*
X118873000Y-89127000D01*
X118873000Y-91947394D01*
X115947394Y-94873000D01*
X80052606Y-94873000D01*
X79089803Y-93910197D01*
X79070557Y-93894403D01*
X79048601Y-93882667D01*
X79024776Y-93875440D01*
X79000000Y-93873000D01*
X61000000Y-93873000D01*
X60975224Y-93875440D01*
X60951399Y-93882667D01*
X60929443Y-93894403D01*
X60910197Y-93910197D01*
X57910197Y-96910197D01*
X57894403Y-96929443D01*
X57882667Y-96951399D01*
X57875440Y-96975224D01*
X57873000Y-97000000D01*
X57873000Y-109947394D01*
X54910197Y-112910197D01*
X54894403Y-112929443D01*
X54882667Y-112951399D01*
X54875440Y-112975224D01*
X54873000Y-113000000D01*
X54873000Y-126000000D01*
X54875440Y-126024776D01*
X54882667Y-126048601D01*
X54894403Y-126070557D01*
X54910197Y-126089803D01*
X57873000Y-129052606D01*
X57873000Y-136000000D01*
X57875440Y-136024776D01*
X57882667Y-136048601D01*
X57894403Y-136070557D01*
X57910197Y-136089803D01*
X57929443Y-136105597D01*
X57951399Y-136117333D01*
X57975224Y-136124560D01*
X58000000Y-136127000D01*
X65873000Y-136127000D01*
X65873000Y-149315000D01*
X50685000Y-149315000D01*
X50685000Y-147700881D01*
X52978724Y-147700881D01*
X53338912Y-148190548D01*
X54002882Y-148550849D01*
X54724385Y-148774694D01*
X55475695Y-148853480D01*
X56227938Y-148784178D01*
X56952208Y-148569452D01*
X57620670Y-148217555D01*
X57661088Y-148190548D01*
X58021276Y-147700881D01*
X55500000Y-145179605D01*
X52978724Y-147700881D01*
X50685000Y-147700881D01*
X50685000Y-144975695D01*
X51646520Y-144975695D01*
X51715822Y-145727938D01*
X51930548Y-146452208D01*
X52282445Y-147120670D01*
X52309452Y-147161088D01*
X52799119Y-147521276D01*
X55320395Y-145000000D01*
X55679605Y-145000000D01*
X58200881Y-147521276D01*
X58690548Y-147161088D01*
X59050849Y-146497118D01*
X59274694Y-145775615D01*
X59353480Y-145024305D01*
X59284178Y-144272062D01*
X59069452Y-143547792D01*
X58717555Y-142879330D01*
X58690548Y-142838912D01*
X58200881Y-142478724D01*
X55679605Y-145000000D01*
X55320395Y-145000000D01*
X52799119Y-142478724D01*
X52309452Y-142838912D01*
X51949151Y-143502882D01*
X51725306Y-144224385D01*
X51646520Y-144975695D01*
X50685000Y-144975695D01*
X50685000Y-142299119D01*
X52978724Y-142299119D01*
X55500000Y-144820395D01*
X58021276Y-142299119D01*
X57661088Y-141809452D01*
X56997118Y-141449151D01*
X56275615Y-141225306D01*
X55524305Y-141146520D01*
X54772062Y-141215822D01*
X54047792Y-141430548D01*
X53379330Y-141782445D01*
X53338912Y-141809452D01*
X52978724Y-142299119D01*
X50685000Y-142299119D01*
X50685000Y-90349039D01*
X90608096Y-90349039D01*
X90648754Y-90483087D01*
X90768963Y-90737420D01*
X90936481Y-90963414D01*
X91144869Y-91152385D01*
X91386119Y-91297070D01*
X91650960Y-91391909D01*
X91873000Y-91270624D01*
X91873000Y-90127000D01*
X92127000Y-90127000D01*
X92127000Y-91270624D01*
X92349040Y-91391909D01*
X92613881Y-91297070D01*
X92855131Y-91152385D01*
X93063519Y-90963414D01*
X93231037Y-90737420D01*
X93351246Y-90483087D01*
X93391904Y-90349039D01*
X93269915Y-90127000D01*
X92127000Y-90127000D01*
X91873000Y-90127000D01*
X90730085Y-90127000D01*
X90608096Y-90349039D01*
X50685000Y-90349039D01*
X50685000Y-55475695D01*
X51646520Y-55475695D01*
X51715822Y-56227938D01*
X51930548Y-56952208D01*
X52282445Y-57620670D01*
X52309452Y-57661088D01*
X52799119Y-58021276D01*
X55320395Y-55500000D01*
X52799119Y-52978724D01*
X52309452Y-53338912D01*
X51949151Y-54002882D01*
X51725306Y-54724385D01*
X51646520Y-55475695D01*
X50685000Y-55475695D01*
X50685000Y-50685000D01*
X57873000Y-50685000D01*
X57873000Y-52597541D01*
G37*
%TD.AperFunction*%
%TD*%
D24*
%TO.N,GND*%
X168768963Y-128262580D02*
X168648754Y-128516913D01*
X168608096Y-128650961D01*
X168730085Y-128873000D01*
X169873000Y-128873000D01*
X169873000Y-128853000D01*
X170127000Y-128853000D01*
X170127000Y-128873000D01*
X170147000Y-128873000D01*
X170147000Y-129127000D01*
X170127000Y-129127000D01*
X170127000Y-130270624D01*
X170349040Y-130391909D01*
X170613881Y-130297070D01*
X170855131Y-130152385D01*
X171063519Y-129963414D01*
X171200000Y-129779291D01*
X171200001Y-133306521D01*
X171195719Y-133350000D01*
X171212805Y-133523490D01*
X171263412Y-133690313D01*
X171345590Y-133844059D01*
X171373000Y-133877458D01*
X171373000Y-135500000D01*
X171375440Y-135524776D01*
X171382667Y-135548601D01*
X171394403Y-135570557D01*
X171410197Y-135589803D01*
X172410197Y-136589803D01*
X172429443Y-136605597D01*
X172451399Y-136617333D01*
X172475224Y-136624560D01*
X172500000Y-136627000D01*
X199315000Y-136627000D01*
X199315000Y-149315000D01*
X64627000Y-149315000D01*
X64627000Y-147700881D01*
X147978724Y-147700881D01*
X148338912Y-148190548D01*
X149002882Y-148550849D01*
X149724385Y-148774694D01*
X150475695Y-148853480D01*
X151227938Y-148784178D01*
X151952208Y-148569452D01*
X152620670Y-148217555D01*
X152661088Y-148190548D01*
X153021276Y-147700881D01*
X192478724Y-147700881D01*
X192838912Y-148190548D01*
X193502882Y-148550849D01*
X194224385Y-148774694D01*
X194975695Y-148853480D01*
X195727938Y-148784178D01*
X196452208Y-148569452D01*
X197120670Y-148217555D01*
X197161088Y-148190548D01*
X197521276Y-147700881D01*
X195000000Y-145179605D01*
X192478724Y-147700881D01*
X153021276Y-147700881D01*
X150500000Y-145179605D01*
X147978724Y-147700881D01*
X64627000Y-147700881D01*
X64627000Y-145850000D01*
X73511928Y-145850000D01*
X73524188Y-145974482D01*
X73560498Y-146094180D01*
X73619463Y-146204494D01*
X73698815Y-146301185D01*
X73795506Y-146380537D01*
X73905820Y-146439502D01*
X74025518Y-146475812D01*
X74150000Y-146488072D01*
X74714250Y-146485000D01*
X74873000Y-146326250D01*
X74873000Y-145127000D01*
X73673750Y-145127000D01*
X73515000Y-145285750D01*
X73511928Y-145850000D01*
X64627000Y-145850000D01*
X64627000Y-136127000D01*
X65947394Y-136127000D01*
X73618222Y-143797828D01*
X73560498Y-143905820D01*
X73524188Y-144025518D01*
X73511928Y-144150000D01*
X73515000Y-144714250D01*
X73673750Y-144873000D01*
X74693394Y-144873000D01*
X75127000Y-145306606D01*
X75127000Y-146326250D01*
X75285750Y-146485000D01*
X75850000Y-146488072D01*
X75974482Y-146475812D01*
X76094180Y-146439502D01*
X76202172Y-146381778D01*
X76910197Y-147089803D01*
X76929443Y-147105597D01*
X76951399Y-147117333D01*
X76975224Y-147124560D01*
X77000000Y-147127000D01*
X121000000Y-147127000D01*
X121024776Y-147124560D01*
X121048601Y-147117333D01*
X121070557Y-147105597D01*
X121089803Y-147089803D01*
X123203911Y-144975695D01*
X146646520Y-144975695D01*
X146715822Y-145727938D01*
X146930548Y-146452208D01*
X147282445Y-147120670D01*
X147309452Y-147161088D01*
X147799119Y-147521276D01*
X150320395Y-145000000D01*
X150679605Y-145000000D01*
X153200881Y-147521276D01*
X153690548Y-147161088D01*
X154050849Y-146497118D01*
X154274694Y-145775615D01*
X154353480Y-145024305D01*
X154349002Y-144975695D01*
X191146520Y-144975695D01*
X191215822Y-145727938D01*
X191430548Y-146452208D01*
X191782445Y-147120670D01*
X191809452Y-147161088D01*
X192299119Y-147521276D01*
X194820395Y-145000000D01*
X195179605Y-145000000D01*
X197700881Y-147521276D01*
X198190548Y-147161088D01*
X198550849Y-146497118D01*
X198774694Y-145775615D01*
X198853480Y-145024305D01*
X198784178Y-144272062D01*
X198569452Y-143547792D01*
X198217555Y-142879330D01*
X198190548Y-142838912D01*
X197700881Y-142478724D01*
X195179605Y-145000000D01*
X194820395Y-145000000D01*
X192299119Y-142478724D01*
X191809452Y-142838912D01*
X191449151Y-143502882D01*
X191225306Y-144224385D01*
X191146520Y-144975695D01*
X154349002Y-144975695D01*
X154284178Y-144272062D01*
X154069452Y-143547792D01*
X153717555Y-142879330D01*
X153690548Y-142838912D01*
X153200881Y-142478724D01*
X150679605Y-145000000D01*
X150320395Y-145000000D01*
X147799119Y-142478724D01*
X147309452Y-142838912D01*
X146949151Y-143502882D01*
X146725306Y-144224385D01*
X146646520Y-144975695D01*
X123203911Y-144975695D01*
X125052606Y-143127000D01*
X138500000Y-143127000D01*
X138524776Y-143124560D01*
X138548601Y-143117333D01*
X138570557Y-143105597D01*
X138589803Y-143089803D01*
X139380487Y-142299119D01*
X147978724Y-142299119D01*
X150500000Y-144820395D01*
X153021276Y-142299119D01*
X192478724Y-142299119D01*
X195000000Y-144820395D01*
X197521276Y-142299119D01*
X197161088Y-141809452D01*
X196497118Y-141449151D01*
X195775615Y-141225306D01*
X195024305Y-141146520D01*
X194272062Y-141215822D01*
X193547792Y-141430548D01*
X192879330Y-141782445D01*
X192838912Y-141809452D01*
X192478724Y-142299119D01*
X153021276Y-142299119D01*
X152661088Y-141809452D01*
X151997118Y-141449151D01*
X151275615Y-141225306D01*
X150524305Y-141146520D01*
X149772062Y-141215822D01*
X149047792Y-141430548D01*
X148379330Y-141782445D01*
X148338912Y-141809452D01*
X147978724Y-142299119D01*
X139380487Y-142299119D01*
X147052606Y-134627000D01*
X165000000Y-134627000D01*
X165024776Y-134624560D01*
X165048601Y-134617333D01*
X165070557Y-134605597D01*
X165089803Y-134589803D01*
X166589803Y-133089803D01*
X166605597Y-133070557D01*
X166617333Y-133048601D01*
X166624560Y-133024776D01*
X166627000Y-133000000D01*
X166627000Y-129349039D01*
X168608096Y-129349039D01*
X168648754Y-129483087D01*
X168768963Y-129737420D01*
X168936481Y-129963414D01*
X169144869Y-130152385D01*
X169386119Y-130297070D01*
X169650960Y-130391909D01*
X169873000Y-130270624D01*
X169873000Y-129127000D01*
X168730085Y-129127000D01*
X168608096Y-129349039D01*
X166627000Y-129349039D01*
X166627000Y-128552606D01*
X167052606Y-128127000D01*
X168869462Y-128127000D01*
X168768963Y-128262580D01*
%TA.AperFunction,Conductor*%
D25*
G36*
X168768963Y-128262580D02*
G01*
X168648754Y-128516913D01*
X168608096Y-128650961D01*
X168730085Y-128873000D01*
X169873000Y-128873000D01*
X169873000Y-128853000D01*
X170127000Y-128853000D01*
X170127000Y-128873000D01*
X170147000Y-128873000D01*
X170147000Y-129127000D01*
X170127000Y-129127000D01*
X170127000Y-130270624D01*
X170349040Y-130391909D01*
X170613881Y-130297070D01*
X170855131Y-130152385D01*
X171063519Y-129963414D01*
X171200000Y-129779291D01*
X171200001Y-133306521D01*
X171195719Y-133350000D01*
X171212805Y-133523490D01*
X171263412Y-133690313D01*
X171345590Y-133844059D01*
X171373000Y-133877458D01*
X171373000Y-135500000D01*
X171375440Y-135524776D01*
X171382667Y-135548601D01*
X171394403Y-135570557D01*
X171410197Y-135589803D01*
X172410197Y-136589803D01*
X172429443Y-136605597D01*
X172451399Y-136617333D01*
X172475224Y-136624560D01*
X172500000Y-136627000D01*
X199315000Y-136627000D01*
X199315000Y-149315000D01*
X64627000Y-149315000D01*
X64627000Y-147700881D01*
X147978724Y-147700881D01*
X148338912Y-148190548D01*
X149002882Y-148550849D01*
X149724385Y-148774694D01*
X150475695Y-148853480D01*
X151227938Y-148784178D01*
X151952208Y-148569452D01*
X152620670Y-148217555D01*
X152661088Y-148190548D01*
X153021276Y-147700881D01*
X192478724Y-147700881D01*
X192838912Y-148190548D01*
X193502882Y-148550849D01*
X194224385Y-148774694D01*
X194975695Y-148853480D01*
X195727938Y-148784178D01*
X196452208Y-148569452D01*
X197120670Y-148217555D01*
X197161088Y-148190548D01*
X197521276Y-147700881D01*
X195000000Y-145179605D01*
X192478724Y-147700881D01*
X153021276Y-147700881D01*
X150500000Y-145179605D01*
X147978724Y-147700881D01*
X64627000Y-147700881D01*
X64627000Y-145850000D01*
X73511928Y-145850000D01*
X73524188Y-145974482D01*
X73560498Y-146094180D01*
X73619463Y-146204494D01*
X73698815Y-146301185D01*
X73795506Y-146380537D01*
X73905820Y-146439502D01*
X74025518Y-146475812D01*
X74150000Y-146488072D01*
X74714250Y-146485000D01*
X74873000Y-146326250D01*
X74873000Y-145127000D01*
X73673750Y-145127000D01*
X73515000Y-145285750D01*
X73511928Y-145850000D01*
X64627000Y-145850000D01*
X64627000Y-136127000D01*
X65947394Y-136127000D01*
X73618222Y-143797828D01*
X73560498Y-143905820D01*
X73524188Y-144025518D01*
X73511928Y-144150000D01*
X73515000Y-144714250D01*
X73673750Y-144873000D01*
X74693394Y-144873000D01*
X75127000Y-145306606D01*
X75127000Y-146326250D01*
X75285750Y-146485000D01*
X75850000Y-146488072D01*
X75974482Y-146475812D01*
X76094180Y-146439502D01*
X76202172Y-146381778D01*
X76910197Y-147089803D01*
X76929443Y-147105597D01*
X76951399Y-147117333D01*
X76975224Y-147124560D01*
X77000000Y-147127000D01*
X121000000Y-147127000D01*
X121024776Y-147124560D01*
X121048601Y-147117333D01*
X121070557Y-147105597D01*
X121089803Y-147089803D01*
X123203911Y-144975695D01*
X146646520Y-144975695D01*
X146715822Y-145727938D01*
X146930548Y-146452208D01*
X147282445Y-147120670D01*
X147309452Y-147161088D01*
X147799119Y-147521276D01*
X150320395Y-145000000D01*
X150679605Y-145000000D01*
X153200881Y-147521276D01*
X153690548Y-147161088D01*
X154050849Y-146497118D01*
X154274694Y-145775615D01*
X154353480Y-145024305D01*
X154349002Y-144975695D01*
X191146520Y-144975695D01*
X191215822Y-145727938D01*
X191430548Y-146452208D01*
X191782445Y-147120670D01*
X191809452Y-147161088D01*
X192299119Y-147521276D01*
X194820395Y-145000000D01*
X195179605Y-145000000D01*
X197700881Y-147521276D01*
X198190548Y-147161088D01*
X198550849Y-146497118D01*
X198774694Y-145775615D01*
X198853480Y-145024305D01*
X198784178Y-144272062D01*
X198569452Y-143547792D01*
X198217555Y-142879330D01*
X198190548Y-142838912D01*
X197700881Y-142478724D01*
X195179605Y-145000000D01*
X194820395Y-145000000D01*
X192299119Y-142478724D01*
X191809452Y-142838912D01*
X191449151Y-143502882D01*
X191225306Y-144224385D01*
X191146520Y-144975695D01*
X154349002Y-144975695D01*
X154284178Y-144272062D01*
X154069452Y-143547792D01*
X153717555Y-142879330D01*
X153690548Y-142838912D01*
X153200881Y-142478724D01*
X150679605Y-145000000D01*
X150320395Y-145000000D01*
X147799119Y-142478724D01*
X147309452Y-142838912D01*
X146949151Y-143502882D01*
X146725306Y-144224385D01*
X146646520Y-144975695D01*
X123203911Y-144975695D01*
X125052606Y-143127000D01*
X138500000Y-143127000D01*
X138524776Y-143124560D01*
X138548601Y-143117333D01*
X138570557Y-143105597D01*
X138589803Y-143089803D01*
X139380487Y-142299119D01*
X147978724Y-142299119D01*
X150500000Y-144820395D01*
X153021276Y-142299119D01*
X192478724Y-142299119D01*
X195000000Y-144820395D01*
X197521276Y-142299119D01*
X197161088Y-141809452D01*
X196497118Y-141449151D01*
X195775615Y-141225306D01*
X195024305Y-141146520D01*
X194272062Y-141215822D01*
X193547792Y-141430548D01*
X192879330Y-141782445D01*
X192838912Y-141809452D01*
X192478724Y-142299119D01*
X153021276Y-142299119D01*
X152661088Y-141809452D01*
X151997118Y-141449151D01*
X151275615Y-141225306D01*
X150524305Y-141146520D01*
X149772062Y-141215822D01*
X149047792Y-141430548D01*
X148379330Y-141782445D01*
X148338912Y-141809452D01*
X147978724Y-142299119D01*
X139380487Y-142299119D01*
X147052606Y-134627000D01*
X165000000Y-134627000D01*
X165024776Y-134624560D01*
X165048601Y-134617333D01*
X165070557Y-134605597D01*
X165089803Y-134589803D01*
X166589803Y-133089803D01*
X166605597Y-133070557D01*
X166617333Y-133048601D01*
X166624560Y-133024776D01*
X166627000Y-133000000D01*
X166627000Y-129349039D01*
X168608096Y-129349039D01*
X168648754Y-129483087D01*
X168768963Y-129737420D01*
X168936481Y-129963414D01*
X169144869Y-130152385D01*
X169386119Y-130297070D01*
X169650960Y-130391909D01*
X169873000Y-130270624D01*
X169873000Y-129127000D01*
X168730085Y-129127000D01*
X168608096Y-129349039D01*
X166627000Y-129349039D01*
X166627000Y-128552606D01*
X167052606Y-128127000D01*
X168869462Y-128127000D01*
X168768963Y-128262580D01*
G37*
%TD.AperFunction*%
%TD*%
M02*
