%TF.GenerationSoftware,KiCad,Pcbnew,(5.1.10-1-10_14)*%
%TF.CreationDate,2021-06-29T18:24:10+10:00*%
%TF.ProjectId,Keyboard interface,4b657962-6f61-4726-9420-696e74657266,rev?*%
%TF.SameCoordinates,Original*%
%TF.FileFunction,Soldermask,Bot*%
%TF.FilePolarity,Negative*%
%FSLAX46Y46*%
G04 Gerber Fmt 4.6, Leading zero omitted, Abs format (unit mm)*
G04 Created by KiCad (PCBNEW (5.1.10-1-10_14)) date 2021-06-29 18:24:10*
%MOMM*%
%LPD*%
G01*
G04 APERTURE LIST*
%ADD10R,1.700000X1.700000*%
%ADD11C,1.800000*%
%ADD12R,1.800000X1.800000*%
%ADD13C,0.800000*%
%ADD14C,6.400000*%
%ADD15C,1.600000*%
%ADD16O,1.600000X1.600000*%
%ADD17R,1.600000X1.600000*%
%ADD18O,1.700000X1.700000*%
G04 APERTURE END LIST*
D10*
%TO.C,J3*%
X75000000Y-145000000D03*
%TD*%
D11*
%TO.C,D6*%
X195000000Y-131160000D03*
D12*
X195000000Y-133700000D03*
%TD*%
D11*
%TO.C,D5*%
X195000000Y-124700000D03*
D12*
X195000000Y-127240000D03*
%TD*%
D11*
%TO.C,D4*%
X195000000Y-118160000D03*
D12*
X195000000Y-120700000D03*
%TD*%
D11*
%TO.C,D3*%
X195000000Y-111700000D03*
D12*
X195000000Y-114240000D03*
%TD*%
D11*
%TO.C,D2*%
X195000000Y-105160000D03*
D12*
X195000000Y-107700000D03*
%TD*%
D11*
%TO.C,D1*%
X195000000Y-98700000D03*
D12*
X195000000Y-101240000D03*
%TD*%
D13*
%TO.C,H6*%
X152197056Y-143302944D03*
X150500000Y-142600000D03*
X148802944Y-143302944D03*
X148100000Y-145000000D03*
X148802944Y-146697056D03*
X150500000Y-147400000D03*
X152197056Y-146697056D03*
X152900000Y-145000000D03*
D14*
X150500000Y-145000000D03*
%TD*%
D13*
%TO.C,H5*%
X152197056Y-53500000D03*
X150500000Y-52797056D03*
X148802944Y-53500000D03*
X148100000Y-55197056D03*
X148802944Y-56894112D03*
X150500000Y-57597056D03*
X152197056Y-56894112D03*
X152900000Y-55197056D03*
D14*
X150500000Y-55197056D03*
%TD*%
D15*
%TO.C,C2*%
X108500000Y-73000000D03*
X108500000Y-78000000D03*
%TD*%
%TO.C,C1*%
X88500000Y-81000000D03*
X88500000Y-76000000D03*
%TD*%
D16*
%TO.C,D43*%
X151130000Y-126365000D03*
D17*
X151130000Y-131445000D03*
%TD*%
D16*
%TO.C,D42*%
X148590000Y-118745000D03*
D17*
X148590000Y-131445000D03*
%TD*%
D16*
%TO.C,D41*%
X146050000Y-121285000D03*
D17*
X146050000Y-131445000D03*
%TD*%
D16*
%TO.C,D40*%
X143510000Y-118745000D03*
D17*
X143510000Y-131445000D03*
%TD*%
D16*
%TO.C,D39*%
X140970000Y-126365000D03*
D17*
X140970000Y-131445000D03*
%TD*%
D16*
%TO.C,D38*%
X138430000Y-118745000D03*
D17*
X138430000Y-131445000D03*
%TD*%
D16*
%TO.C,D37*%
X135890000Y-123825000D03*
D17*
X135890000Y-131445000D03*
%TD*%
D16*
%TO.C,D36*%
X133350000Y-126365000D03*
D17*
X133350000Y-131445000D03*
%TD*%
D16*
%TO.C,D35*%
X130810000Y-123825000D03*
D17*
X130810000Y-131445000D03*
%TD*%
D16*
%TO.C,D34*%
X128270000Y-121285000D03*
D17*
X128270000Y-131445000D03*
%TD*%
D16*
%TO.C,D33*%
X125730000Y-126365000D03*
D17*
X125730000Y-131445000D03*
%TD*%
D16*
%TO.C,D32*%
X123190000Y-118745000D03*
D17*
X123190000Y-131445000D03*
%TD*%
D16*
%TO.C,D31*%
X120650000Y-118745000D03*
D17*
X120650000Y-131445000D03*
%TD*%
D16*
%TO.C,D30*%
X118110000Y-121285000D03*
D17*
X118110000Y-131445000D03*
%TD*%
D16*
%TO.C,D29*%
X115570000Y-118745000D03*
D17*
X115570000Y-131445000D03*
%TD*%
D16*
%TO.C,D28*%
X113030000Y-123825000D03*
D17*
X113030000Y-131445000D03*
%TD*%
D16*
%TO.C,D27*%
X110490000Y-118745000D03*
D17*
X110490000Y-131445000D03*
%TD*%
D16*
%TO.C,D26*%
X107950000Y-121285000D03*
D17*
X107950000Y-131445000D03*
%TD*%
D16*
%TO.C,D25*%
X105410000Y-118745000D03*
D17*
X105410000Y-131445000D03*
%TD*%
D16*
%TO.C,D24*%
X102870000Y-121285000D03*
D17*
X102870000Y-131445000D03*
%TD*%
D16*
%TO.C,D23*%
X100330000Y-126365000D03*
D17*
X100330000Y-131445000D03*
%TD*%
D16*
%TO.C,R15*%
X75565000Y-73025000D03*
D15*
X85725000Y-73025000D03*
%TD*%
D16*
%TO.C,D22*%
X97790000Y-118745000D03*
D17*
X97790000Y-131445000D03*
%TD*%
D16*
%TO.C,D21*%
X95250000Y-123825000D03*
D17*
X95250000Y-131445000D03*
%TD*%
D16*
%TO.C,D20*%
X92710000Y-121285000D03*
D17*
X92710000Y-131445000D03*
%TD*%
D16*
%TO.C,D19*%
X90170000Y-123825000D03*
D17*
X90170000Y-131445000D03*
%TD*%
D16*
%TO.C,D18*%
X87630000Y-126365000D03*
D17*
X87630000Y-131445000D03*
%TD*%
D18*
%TO.C,J1*%
X118100000Y-145000000D03*
X115560000Y-145000000D03*
X113020000Y-145000000D03*
X110480000Y-145000000D03*
X107940000Y-145000000D03*
X105400000Y-145000000D03*
X102860000Y-145000000D03*
X100320000Y-145000000D03*
X97780000Y-145000000D03*
X95240000Y-145000000D03*
X92700000Y-145000000D03*
X90160000Y-145000000D03*
X87620000Y-145000000D03*
X85080000Y-145000000D03*
X82540000Y-145000000D03*
D10*
X80000000Y-145000000D03*
%TD*%
D16*
%TO.C,D17*%
X85090000Y-118745000D03*
D17*
X85090000Y-131445000D03*
%TD*%
D16*
%TO.C,D16*%
X82550000Y-118745000D03*
D17*
X82550000Y-131445000D03*
%TD*%
D16*
%TO.C,D15*%
X80010000Y-123825000D03*
D17*
X80010000Y-131445000D03*
%TD*%
D16*
%TO.C,D14*%
X77470000Y-126365000D03*
D17*
X77470000Y-131445000D03*
%TD*%
D16*
%TO.C,D13*%
X74930000Y-123825000D03*
D17*
X74930000Y-131445000D03*
%TD*%
D16*
%TO.C,D12*%
X72390000Y-121285000D03*
D17*
X72390000Y-131445000D03*
%TD*%
D16*
%TO.C,D11*%
X69850000Y-118745000D03*
D17*
X69850000Y-131445000D03*
%TD*%
D16*
%TO.C,D8*%
X62230000Y-126365000D03*
D17*
X62230000Y-131445000D03*
%TD*%
D16*
%TO.C,D7*%
X59690000Y-123825000D03*
D17*
X59690000Y-131445000D03*
%TD*%
D16*
%TO.C,D9*%
X64770000Y-118745000D03*
D17*
X64770000Y-131445000D03*
%TD*%
D16*
%TO.C,D10*%
X67310000Y-121285000D03*
D17*
X67310000Y-131445000D03*
%TD*%
D13*
%TO.C,H4*%
X57197056Y-143302944D03*
X55500000Y-142600000D03*
X53802944Y-143302944D03*
X53100000Y-145000000D03*
X53802944Y-146697056D03*
X55500000Y-147400000D03*
X57197056Y-146697056D03*
X57900000Y-145000000D03*
D14*
X55500000Y-145000000D03*
%TD*%
D13*
%TO.C,H3*%
X196697056Y-143302944D03*
X195000000Y-142600000D03*
X193302944Y-143302944D03*
X192600000Y-145000000D03*
X193302944Y-146697056D03*
X195000000Y-147400000D03*
X196697056Y-146697056D03*
X197400000Y-145000000D03*
D14*
X195000000Y-145000000D03*
%TD*%
D13*
%TO.C,H2*%
X196697056Y-53302944D03*
X195000000Y-52600000D03*
X193302944Y-53302944D03*
X192600000Y-55000000D03*
X193302944Y-56697056D03*
X195000000Y-57400000D03*
X196697056Y-56697056D03*
X197400000Y-55000000D03*
D14*
X195000000Y-55000000D03*
%TD*%
D13*
%TO.C,H1*%
X57197056Y-53802944D03*
X55500000Y-53100000D03*
X53802944Y-53802944D03*
X53100000Y-55500000D03*
X53802944Y-57197056D03*
X55500000Y-57900000D03*
X57197056Y-57197056D03*
X57900000Y-55500000D03*
D14*
X55500000Y-55500000D03*
%TD*%
D10*
%TO.C,J2*%
X194500000Y-87780000D03*
D18*
X194500000Y-85240000D03*
X194500000Y-82700000D03*
X194500000Y-80160000D03*
X194500000Y-77620000D03*
X194500000Y-75080000D03*
X194500000Y-72540000D03*
X194500000Y-70000000D03*
%TD*%
D16*
%TO.C,R1*%
X191500000Y-98700000D03*
D15*
X181340000Y-98700000D03*
%TD*%
D16*
%TO.C,R2*%
X191500000Y-105200000D03*
D15*
X181340000Y-105200000D03*
%TD*%
%TO.C,R3*%
X181340000Y-111700000D03*
D16*
X191500000Y-111700000D03*
%TD*%
%TO.C,R4*%
X191500000Y-118200000D03*
D15*
X181340000Y-118200000D03*
%TD*%
%TO.C,R5*%
X181340000Y-124700000D03*
D16*
X191500000Y-124700000D03*
%TD*%
%TO.C,R6*%
X191500000Y-131200000D03*
D15*
X181340000Y-131200000D03*
%TD*%
D16*
%TO.C,R7*%
X75565000Y-80010000D03*
D15*
X85725000Y-80010000D03*
%TD*%
%TO.C,R8*%
X105000000Y-78000000D03*
D16*
X105000000Y-67840000D03*
%TD*%
D15*
%TO.C,R9*%
X75565000Y-87630000D03*
D16*
X75565000Y-97790000D03*
%TD*%
%TO.C,R10*%
X72390000Y-97790000D03*
D15*
X72390000Y-87630000D03*
%TD*%
%TO.C,R11*%
X69215000Y-87630000D03*
D16*
X69215000Y-97790000D03*
%TD*%
%TO.C,R12*%
X66040000Y-97790000D03*
D15*
X66040000Y-87630000D03*
%TD*%
%TO.C,R13*%
X62865000Y-87630000D03*
D16*
X62865000Y-97790000D03*
%TD*%
D15*
%TO.C,R14*%
X59880000Y-87630000D03*
D16*
X59880000Y-97790000D03*
%TD*%
D17*
%TO.C,U1*%
X92000000Y-72220000D03*
D16*
X99620000Y-90000000D03*
X92000000Y-74760000D03*
X99620000Y-87460000D03*
X92000000Y-77300000D03*
X99620000Y-84920000D03*
X92000000Y-79840000D03*
X99620000Y-82380000D03*
X92000000Y-82380000D03*
X99620000Y-79840000D03*
X92000000Y-84920000D03*
X99620000Y-77300000D03*
X92000000Y-87460000D03*
X99620000Y-74760000D03*
X92000000Y-90000000D03*
X99620000Y-72220000D03*
%TD*%
D17*
%TO.C,U2*%
X117000000Y-74760000D03*
D16*
X124620000Y-90000000D03*
X117000000Y-77300000D03*
X124620000Y-87460000D03*
X117000000Y-79840000D03*
X124620000Y-84920000D03*
X117000000Y-82380000D03*
X124620000Y-82380000D03*
X117000000Y-84920000D03*
X124620000Y-79840000D03*
X117000000Y-87460000D03*
X124620000Y-77300000D03*
X117000000Y-90000000D03*
X124620000Y-74760000D03*
%TD*%
%TO.C,U3*%
X147620000Y-74760000D03*
X140000000Y-90000000D03*
X147620000Y-77300000D03*
X140000000Y-87460000D03*
X147620000Y-79840000D03*
X140000000Y-84920000D03*
X147620000Y-82380000D03*
X140000000Y-82380000D03*
X147620000Y-84920000D03*
X140000000Y-79840000D03*
X147620000Y-87460000D03*
X140000000Y-77300000D03*
X147620000Y-90000000D03*
D17*
X140000000Y-74760000D03*
%TD*%
%TO.C,U4*%
X178000000Y-74760000D03*
D16*
X185620000Y-90000000D03*
X178000000Y-77300000D03*
X185620000Y-87460000D03*
X178000000Y-79840000D03*
X185620000Y-84920000D03*
X178000000Y-82380000D03*
X185620000Y-82380000D03*
X178000000Y-84920000D03*
X185620000Y-79840000D03*
X178000000Y-87460000D03*
X185620000Y-77300000D03*
X178000000Y-90000000D03*
X185620000Y-74760000D03*
%TD*%
%TO.C,U5*%
X163620000Y-111220000D03*
X156000000Y-129000000D03*
X163620000Y-113760000D03*
X156000000Y-126460000D03*
X163620000Y-116300000D03*
X156000000Y-123920000D03*
X163620000Y-118840000D03*
X156000000Y-121380000D03*
X163620000Y-121380000D03*
X156000000Y-118840000D03*
X163620000Y-123920000D03*
X156000000Y-116300000D03*
X163620000Y-126460000D03*
X156000000Y-113760000D03*
X163620000Y-129000000D03*
D17*
X156000000Y-111220000D03*
%TD*%
D16*
%TO.C,U6*%
X177620000Y-113760000D03*
X170000000Y-129000000D03*
X177620000Y-116300000D03*
X170000000Y-126460000D03*
X177620000Y-118840000D03*
X170000000Y-123920000D03*
X177620000Y-121380000D03*
X170000000Y-121380000D03*
X177620000Y-123920000D03*
X170000000Y-118840000D03*
X177620000Y-126460000D03*
X170000000Y-116300000D03*
X177620000Y-129000000D03*
D17*
X170000000Y-113760000D03*
%TD*%
M02*
