%TF.GenerationSoftware,KiCad,Pcbnew,(6.0.4-0)*%
%TF.CreationDate,2024-04-14T14:55:46+10:00*%
%TF.ProjectId,Input:Output Interface,496e7075-743a-44f7-9574-70757420496e,rev?*%
%TF.SameCoordinates,Original*%
%TF.FileFunction,Copper,L2,Bot*%
%TF.FilePolarity,Positive*%
%FSLAX46Y46*%
G04 Gerber Fmt 4.6, Leading zero omitted, Abs format (unit mm)*
G04 Created by KiCad (PCBNEW (6.0.4-0)) date 2024-04-14 14:55:46*
%MOMM*%
%LPD*%
G01*
G04 APERTURE LIST*
%TA.AperFunction,ConnectorPad*%
%ADD10R,2.540000X10.000000*%
%TD*%
%TA.AperFunction,ComponentPad*%
%ADD11R,1.600000X1.600000*%
%TD*%
%TA.AperFunction,ComponentPad*%
%ADD12O,1.600000X1.600000*%
%TD*%
%TA.AperFunction,ComponentPad*%
%ADD13C,2.000000*%
%TD*%
%TA.AperFunction,ComponentPad*%
%ADD14C,1.600000*%
%TD*%
%TA.AperFunction,ComponentPad*%
%ADD15C,5.000000*%
%TD*%
%TA.AperFunction,ComponentPad*%
%ADD16R,1.700000X1.700000*%
%TD*%
%TA.AperFunction,ComponentPad*%
%ADD17O,1.700000X1.700000*%
%TD*%
%TA.AperFunction,ViaPad*%
%ADD18C,2.000000*%
%TD*%
%TA.AperFunction,ViaPad*%
%ADD19C,1.270000*%
%TD*%
%TA.AperFunction,Conductor*%
%ADD20C,2.000000*%
%TD*%
%TA.AperFunction,Conductor*%
%ADD21C,0.500000*%
%TD*%
%TA.AperFunction,Conductor*%
%ADD22C,0.250000*%
%TD*%
G04 APERTURE END LIST*
D10*
%TO.P,J4,1*%
%TO.N,GND*%
X286006000Y-214070000D03*
%TO.P,J4,2*%
%TO.N,+5V*%
X282043600Y-214070000D03*
%TO.P,J4,3*%
X278081200Y-214070000D03*
%TO.P,J4,4*%
%TO.N,A-BUS*%
X274118800Y-214070000D03*
%TO.P,J4,5*%
%TO.N,I_O_DEVICE_SELECT*%
X270156400Y-214070000D03*
%TO.P,J4,6*%
%TO.N,I_O_GATING*%
X266194000Y-214070000D03*
%TO.P,J4,7*%
%TO.N,~{CLR_IOT_FLAG}*%
X262231600Y-214070000D03*
%TO.P,J4,8*%
%TO.N,SKIP_ON_IOT_FLAG*%
X258269200Y-214070000D03*
%TO.P,J4,9*%
%TO.N,~{IOT_SKIP}*%
X254306800Y-214070000D03*
%TO.P,J4,10*%
%TO.N,MCP*%
X250344400Y-214070000D03*
%TO.P,J4,11*%
%TO.N,~{IOT_SHIFT}*%
X246382000Y-214070000D03*
%TO.P,J4,12*%
%TO.N,AC_BIT_0*%
X242419600Y-214070000D03*
%TO.P,J4,13*%
%TO.N,T13*%
X238457200Y-214070000D03*
%TO.P,J4,14*%
%TO.N,T2-9*%
X234494800Y-214070000D03*
%TO.P,J4,15*%
%TO.N,T1*%
X230532400Y-214070000D03*
%TO.P,J4,16*%
%TO.N,GND*%
X226570000Y-214070000D03*
%TD*%
D11*
%TO.P,U2,1*%
%TO.N,Net-(U2-Pad1)*%
X145620000Y-119740000D03*
D12*
%TO.P,U2,2*%
%TO.N,Net-(U1-Pad10)*%
X145620000Y-117200000D03*
%TO.P,U2,3*%
%TO.N,I_O_DEVICE_SELECT*%
X145620000Y-114660000D03*
%TO.P,U2,4*%
%TO.N,Net-(U2-Pad4)*%
X145620000Y-112120000D03*
%TO.P,U2,5*%
%TO.N,I_O_GATING*%
X145620000Y-109580000D03*
%TO.P,U2,6*%
%TO.N,Net-(U2-Pad6)*%
X145620000Y-107040000D03*
%TO.P,U2,7,GND*%
%TO.N,GND*%
X145620000Y-104500000D03*
%TO.P,U2,8*%
%TO.N,Net-(U2-Pad8)*%
X138000000Y-104500000D03*
%TO.P,U2,9*%
%TO.N,Net-(U3-Pad11)*%
X138000000Y-107040000D03*
%TO.P,U2,10*%
%TO.N,Net-(U2-Pad10)*%
X138000000Y-109580000D03*
%TO.P,U2,11*%
%TO.N,Net-(U2-Pad11)*%
X138000000Y-112120000D03*
%TO.P,U2,12*%
%TO.N,Net-(U2-Pad12)*%
X138000000Y-114660000D03*
%TO.P,U2,13*%
%TO.N,Net-(U2-Pad13)*%
X138000000Y-117200000D03*
%TO.P,U2,14,VCC*%
%TO.N,+5V*%
X138000000Y-119740000D03*
%TD*%
D11*
%TO.P,U3,1*%
%TO.N,I_O_DEVICE_SELECT*%
X183120000Y-119740000D03*
D12*
%TO.P,U3,2*%
%TO.N,Net-(U2-Pad6)*%
X183120000Y-117200000D03*
%TO.P,U3,3*%
%TO.N,Net-(U2-Pad11)*%
X183120000Y-114660000D03*
%TO.P,U3,4*%
%TO.N,Net-(U2-Pad6)*%
X183120000Y-112120000D03*
%TO.P,U3,5*%
%TO.N,Net-(U2-Pad4)*%
X183120000Y-109580000D03*
%TO.P,U3,6*%
%TO.N,Net-(U2-Pad13)*%
X183120000Y-107040000D03*
%TO.P,U3,7,GND*%
%TO.N,GND*%
X183120000Y-104500000D03*
%TO.P,U3,8*%
%TO.N,Net-(U2-Pad1)*%
X175500000Y-104500000D03*
%TO.P,U3,9*%
%TO.N,I_O_DEVICE_SELECT*%
X175500000Y-107040000D03*
%TO.P,U3,10*%
%TO.N,I_O_GATING*%
X175500000Y-109580000D03*
%TO.P,U3,11*%
%TO.N,Net-(U3-Pad11)*%
X175500000Y-112120000D03*
%TO.P,U3,12*%
%TO.N,Net-(U2-Pad4)*%
X175500000Y-114660000D03*
%TO.P,U3,13*%
%TO.N,I_O_GATING*%
X175500000Y-117200000D03*
%TO.P,U3,14,VCC*%
%TO.N,+5V*%
X175500000Y-119740000D03*
%TD*%
D11*
%TO.P,U4,1*%
%TO.N,Net-(U4-Pad1)*%
X220620000Y-119740000D03*
D12*
%TO.P,U4,2*%
%TO.N,Net-(U1-Pad9)*%
X220620000Y-117200000D03*
%TO.P,U4,3*%
%TO.N,Net-(U4-Pad3)*%
X220620000Y-114660000D03*
%TO.P,U4,4*%
%TO.N,Net-(U4-Pad4)*%
X220620000Y-112120000D03*
%TO.P,U4,5*%
%TO.N,~{IOT_SHIFT}*%
X220620000Y-109580000D03*
%TO.P,U4,6*%
%TO.N,Net-(U4-Pad6)*%
X220620000Y-107040000D03*
%TO.P,U4,7,GND*%
%TO.N,GND*%
X220620000Y-104500000D03*
%TO.P,U4,8*%
%TO.N,/MCP_CLK*%
X213000000Y-104500000D03*
%TO.P,U4,9*%
%TO.N,Net-(U4-Pad9)*%
X213000000Y-107040000D03*
%TO.P,U4,10*%
%TO.N,Net-(U10-Pad2)*%
X213000000Y-109580000D03*
%TO.P,U4,11*%
%TO.N,Net-(U4-Pad11)*%
X213000000Y-112120000D03*
%TO.P,U4,12*%
%TO.N,Net-(U4-Pad12)*%
X213000000Y-114660000D03*
%TO.P,U4,13*%
%TO.N,Net-(U4-Pad13)*%
X213000000Y-117200000D03*
%TO.P,U4,14,VCC*%
%TO.N,+5V*%
X213000000Y-119740000D03*
%TD*%
D11*
%TO.P,U5,1*%
%TO.N,AC_BIT_0*%
X255620000Y-119740000D03*
D12*
%TO.P,U5,2*%
%TO.N,Net-(U10-Pad2)*%
X255620000Y-117200000D03*
%TO.P,U5,3*%
%TO.N,Net-(U4-Pad3)*%
X255620000Y-114660000D03*
%TO.P,U5,4*%
%TO.N,MCP*%
X255620000Y-112120000D03*
%TO.P,U5,5*%
%TO.N,Net-(U10-Pad2)*%
X255620000Y-109580000D03*
%TO.P,U5,6*%
%TO.N,Net-(U4-Pad9)*%
X255620000Y-107040000D03*
%TO.P,U5,7,GND*%
%TO.N,GND*%
X255620000Y-104500000D03*
%TO.P,U5,8*%
%TO.N,Net-(U4-Pad11)*%
X248000000Y-104500000D03*
%TO.P,U5,9*%
%TO.N,Net-(U4-Pad6)*%
X248000000Y-107040000D03*
%TO.P,U5,10*%
%TO.N,T2-9*%
X248000000Y-109580000D03*
%TO.P,U5,11*%
%TO.N,Net-(U4-Pad1)*%
X248000000Y-112120000D03*
%TO.P,U5,12*%
%TO.N,T13*%
X248000000Y-114660000D03*
%TO.P,U5,13*%
%TO.N,Net-(U10-Pad4)*%
X248000000Y-117200000D03*
%TO.P,U5,14,VCC*%
%TO.N,+5V*%
X248000000Y-119740000D03*
%TD*%
D11*
%TO.P,U8,1*%
%TO.N,Net-(U10-Pad8)*%
X183120000Y-166740000D03*
D12*
%TO.P,U8,2*%
%TO.N,Net-(U1-Pad10)*%
X183120000Y-164200000D03*
%TO.P,U8,3*%
%TO.N,Net-(U11-Pad6)*%
X183120000Y-161660000D03*
%TO.P,U8,4*%
%TO.N,Net-(U10-Pad8)*%
X183120000Y-159120000D03*
%TO.P,U8,5*%
%TO.N,Net-(U11-Pad8)*%
X183120000Y-156580000D03*
%TO.P,U8,6*%
%TO.N,Net-(U2-Pad8)*%
X183120000Y-154040000D03*
%TO.P,U8,7,GND*%
%TO.N,GND*%
X183120000Y-151500000D03*
%TO.P,U8,8*%
%TO.N,Net-(U2-Pad10)*%
X175500000Y-151500000D03*
%TO.P,U8,9*%
%TO.N,Net-(U11-Pad12)*%
X175500000Y-154040000D03*
%TO.P,U8,10*%
%TO.N,Net-(U10-Pad8)*%
X175500000Y-156580000D03*
%TO.P,U8,11*%
%TO.N,Net-(U2-Pad12)*%
X175500000Y-159120000D03*
%TO.P,U8,12*%
%TO.N,Net-(U11-Pad10)*%
X175500000Y-161660000D03*
%TO.P,U8,13*%
%TO.N,Net-(U10-Pad8)*%
X175500000Y-164200000D03*
%TO.P,U8,14,VCC*%
%TO.N,+5V*%
X175500000Y-166740000D03*
%TD*%
D11*
%TO.P,U10,1*%
%TO.N,A-BUS*%
X255620000Y-166740000D03*
D12*
%TO.P,U10,2*%
%TO.N,Net-(U10-Pad2)*%
X255620000Y-164200000D03*
%TO.P,U10,3*%
%TO.N,Net-(U10-Pad3)*%
X255620000Y-161660000D03*
%TO.P,U10,4*%
%TO.N,Net-(U10-Pad4)*%
X255620000Y-159120000D03*
%TO.P,U10,5*%
%TO.N,~{CLR_IOT_FLAG}*%
X255620000Y-156580000D03*
%TO.P,U10,6*%
X255620000Y-154040000D03*
%TO.P,U10,7,GND*%
%TO.N,GND*%
X255620000Y-151500000D03*
%TO.P,U10,8*%
%TO.N,Net-(U10-Pad8)*%
X248000000Y-151500000D03*
%TO.P,U10,9*%
X248000000Y-154040000D03*
%TO.P,U10,10*%
%TO.N,Net-(U10-Pad10)*%
X248000000Y-156580000D03*
%TO.P,U10,11*%
X248000000Y-159120000D03*
%TO.P,U10,12*%
%TO.N,SKIP_ON_IOT_FLAG*%
X248000000Y-161660000D03*
%TO.P,U10,13*%
%TO.N,~{IOT_SKIP}*%
X248000000Y-164200000D03*
%TO.P,U10,14,VCC*%
%TO.N,+5V*%
X248000000Y-166740000D03*
%TD*%
D11*
%TO.P,U11,1*%
%TO.N,N/C*%
X167880000Y-196800000D03*
D12*
%TO.P,U11,2*%
X170420000Y-196800000D03*
%TO.P,U11,3*%
X172960000Y-196800000D03*
%TO.P,U11,4*%
X175500000Y-196800000D03*
%TO.P,U11,5*%
%TO.N,I_D0_~{FLAG}*%
X178040000Y-196800000D03*
%TO.P,U11,6*%
%TO.N,Net-(U11-Pad6)*%
X180580000Y-196800000D03*
%TO.P,U11,7,GND*%
%TO.N,GND*%
X183120000Y-196800000D03*
%TO.P,U11,8*%
%TO.N,Net-(U11-Pad8)*%
X183120000Y-189180000D03*
%TO.P,U11,9*%
%TO.N,I_D1_~{FLAG}*%
X180580000Y-189180000D03*
%TO.P,U11,10*%
%TO.N,Net-(U11-Pad10)*%
X178040000Y-189180000D03*
%TO.P,U11,11*%
%TO.N,O_D1_~{FLAG}*%
X175500000Y-189180000D03*
%TO.P,U11,12*%
%TO.N,Net-(U11-Pad12)*%
X172960000Y-189180000D03*
%TO.P,U11,13*%
%TO.N,O_D0_~{FLAG}*%
X170420000Y-189180000D03*
%TO.P,U11,14,VCC*%
%TO.N,+5V*%
X167880000Y-189180000D03*
%TD*%
D11*
%TO.P,U1,1*%
%TO.N,unconnected-(U1-Pad1)*%
X110620000Y-119740000D03*
D12*
%TO.P,U1,2*%
%TO.N,unconnected-(U1-Pad2)*%
X110620000Y-117200000D03*
%TO.P,U1,3*%
%TO.N,unconnected-(U1-Pad3)*%
X110620000Y-114660000D03*
%TO.P,U1,4*%
%TO.N,unconnected-(U1-Pad4)*%
X110620000Y-112120000D03*
%TO.P,U1,5*%
%TO.N,unconnected-(U1-Pad5)*%
X110620000Y-109580000D03*
%TO.P,U1,6*%
%TO.N,unconnected-(U1-Pad6)*%
X110620000Y-107040000D03*
%TO.P,U1,7,GND*%
%TO.N,GND*%
X110620000Y-104500000D03*
%TO.P,U1,8*%
%TO.N,I_D0_~{FLAG_RESET}*%
X103000000Y-104500000D03*
%TO.P,U1,9*%
%TO.N,Net-(U1-Pad9)*%
X103000000Y-107040000D03*
%TO.P,U1,10*%
%TO.N,Net-(U1-Pad10)*%
X103000000Y-109580000D03*
%TO.P,U1,11*%
%TO.N,I_D0_~{CLOCK}*%
X103000000Y-112120000D03*
%TO.P,U1,12*%
%TO.N,Net-(U1-Pad10)*%
X103000000Y-114660000D03*
%TO.P,U1,13*%
%TO.N,/MCP_CLK*%
X103000000Y-117200000D03*
%TO.P,U1,14,VCC*%
%TO.N,+5V*%
X103000000Y-119740000D03*
%TD*%
D11*
%TO.P,U6,1*%
%TO.N,/MCP_CLK*%
X110620000Y-166740000D03*
D12*
%TO.P,U6,2*%
%TO.N,Net-(U2-Pad10)*%
X110620000Y-164200000D03*
%TO.P,U6,3*%
%TO.N,O_D0_~{CLOCK}*%
X110620000Y-161660000D03*
%TO.P,U6,4*%
%TO.N,Net-(U6-Pad4)*%
X110620000Y-159120000D03*
%TO.P,U6,5*%
%TO.N,Net-(U2-Pad10)*%
X110620000Y-156580000D03*
%TO.P,U6,6*%
%TO.N,O_D0_~{FLAG_RESET}*%
X110620000Y-154040000D03*
%TO.P,U6,7,GND*%
%TO.N,GND*%
X110620000Y-151500000D03*
%TO.P,U6,8*%
%TO.N,I_D1_~{CLOCK}*%
X103000000Y-151500000D03*
%TO.P,U6,9*%
%TO.N,/MCP_CLK*%
X103000000Y-154040000D03*
%TO.P,U6,10*%
%TO.N,Net-(U2-Pad8)*%
X103000000Y-156580000D03*
%TO.P,U6,11*%
%TO.N,I_D1_~{FLAG_RESET}*%
X103000000Y-159120000D03*
%TO.P,U6,12*%
%TO.N,Net-(U2-Pad8)*%
X103000000Y-161660000D03*
%TO.P,U6,13*%
%TO.N,Net-(U1-Pad9)*%
X103000000Y-164200000D03*
%TO.P,U6,14,VCC*%
%TO.N,+5V*%
X103000000Y-166740000D03*
%TD*%
D11*
%TO.P,U9,1*%
%TO.N,T1*%
X220620000Y-166740000D03*
D12*
%TO.P,U9,2*%
%TO.N,Net-(U10-Pad4)*%
X220620000Y-164200000D03*
%TO.P,U9,3*%
%TO.N,Net-(U4-Pad13)*%
X220620000Y-161660000D03*
%TO.P,U9,4*%
%TO.N,Net-(U9-Pad11)*%
X220620000Y-159120000D03*
%TO.P,U9,5*%
%TO.N,Net-(U9-Pad5)*%
X220620000Y-156580000D03*
%TO.P,U9,6*%
%TO.N,Net-(U10-Pad3)*%
X220620000Y-154040000D03*
%TO.P,U9,7,GND*%
%TO.N,GND*%
X220620000Y-151500000D03*
%TO.P,U9,8*%
%TO.N,Net-(U9-Pad5)*%
X213000000Y-151500000D03*
%TO.P,U9,9*%
%TO.N,Net-(U2-Pad8)*%
X213000000Y-154040000D03*
%TO.P,U9,10*%
%TO.N,I_D1_~{DATA}*%
X213000000Y-156580000D03*
%TO.P,U9,11*%
%TO.N,Net-(U9-Pad11)*%
X213000000Y-159120000D03*
%TO.P,U9,12*%
%TO.N,Net-(U1-Pad10)*%
X213000000Y-161660000D03*
%TO.P,U9,13*%
%TO.N,I_D0_~{DATA}*%
X213000000Y-164200000D03*
%TO.P,U9,14,VCC*%
%TO.N,+5V*%
X213000000Y-166740000D03*
%TD*%
D11*
%TO.P,U7,1*%
%TO.N,Net-(U7-Pad1)*%
X145620000Y-166740000D03*
D12*
%TO.P,U7,2*%
%TO.N,Net-(U2-Pad12)*%
X145620000Y-164200000D03*
%TO.P,U7,3*%
%TO.N,O_D1_~{FLAG_RESET}*%
X145620000Y-161660000D03*
%TO.P,U7,4*%
%TO.N,Net-(U2-Pad12)*%
X145620000Y-159120000D03*
%TO.P,U7,5*%
%TO.N,Net-(U4-Pad4)*%
X145620000Y-156580000D03*
%TO.P,U7,6*%
%TO.N,O_D1_~{DATA}*%
X145620000Y-154040000D03*
%TO.P,U7,7,GND*%
%TO.N,GND*%
X145620000Y-151500000D03*
%TO.P,U7,8*%
%TO.N,O_D0_~{DATA}*%
X138000000Y-151500000D03*
%TO.P,U7,9*%
%TO.N,Net-(U4-Pad4)*%
X138000000Y-154040000D03*
%TO.P,U7,10*%
%TO.N,Net-(U2-Pad10)*%
X138000000Y-156580000D03*
%TO.P,U7,11*%
%TO.N,O_D1_~{CLOCK}*%
X138000000Y-159120000D03*
%TO.P,U7,12*%
%TO.N,Net-(U2-Pad12)*%
X138000000Y-161660000D03*
%TO.P,U7,13*%
%TO.N,/MCP_CLK*%
X138000000Y-164200000D03*
%TO.P,U7,14,VCC*%
%TO.N,+5V*%
X138000000Y-166740000D03*
%TD*%
D10*
%TO.P,J3,1*%
%TO.N,O_D1_~{DATA}*%
X133413200Y-214078000D03*
%TO.P,J3,2*%
%TO.N,O_D1_~{FLAG}*%
X129450800Y-214078000D03*
%TO.P,J3,3*%
%TO.N,O_D1_~{FLAG_RESET}*%
X125488400Y-214078000D03*
%TO.P,J3,4*%
%TO.N,O_D1_~{CLOCK}*%
X121526000Y-214078000D03*
%TO.P,J3,5*%
%TO.N,O_D0_~{DATA}*%
X117563600Y-214078000D03*
%TO.P,J3,6*%
%TO.N,O_D0_~{FLAG}*%
X113601200Y-214078000D03*
%TO.P,J3,7*%
%TO.N,O_D0_~{FLAG_RESET}*%
X109638800Y-214078000D03*
%TO.P,J3,8*%
%TO.N,O_D0_~{CLOCK}*%
X105676400Y-214078000D03*
%TO.P,J3,9*%
%TO.N,I_D1_~{DATA}*%
X101714000Y-214078000D03*
%TO.P,J3,10*%
%TO.N,I_D1_~{FLAG}*%
X97751600Y-214078000D03*
%TO.P,J3,11*%
%TO.N,I_D1_~{FLAG_RESET}*%
X93789200Y-214078000D03*
%TO.P,J3,12*%
%TO.N,I_D1_~{CLOCK}*%
X89826800Y-214078000D03*
%TO.P,J3,13*%
%TO.N,I_D0_~{DATA}*%
X85864400Y-214078000D03*
%TO.P,J3,14*%
%TO.N,I_D0_~{FLAG}*%
X81902000Y-214078000D03*
%TO.P,J3,15*%
%TO.N,I_D0_~{FLAG_RESET}*%
X77939600Y-214078000D03*
%TO.P,J3,16*%
%TO.N,I_D0_~{CLOCK}*%
X73977200Y-214078000D03*
%TD*%
D13*
%TO.P,C1,1*%
%TO.N,+5V*%
X91440000Y-123190000D03*
%TO.P,C1,2*%
%TO.N,GND*%
X83940000Y-123190000D03*
%TD*%
%TO.P,C2,1*%
%TO.N,+5V*%
X91440000Y-169545000D03*
%TO.P,C2,2*%
%TO.N,GND*%
X83940000Y-169545000D03*
%TD*%
%TO.P,C3,1*%
%TO.N,+5V*%
X280035000Y-119380000D03*
%TO.P,C3,2*%
%TO.N,GND*%
X280035000Y-111880000D03*
%TD*%
%TO.P,C4,1*%
%TO.N,+5V*%
X278765000Y-193040000D03*
%TO.P,C4,2*%
%TO.N,GND*%
X286265000Y-193040000D03*
%TD*%
D14*
%TO.P,R1,1*%
%TO.N,+5V*%
X170500000Y-169360000D03*
D12*
%TO.P,R1,2*%
%TO.N,Net-(U10-Pad8)*%
X170500000Y-159200000D03*
%TD*%
D14*
%TO.P,R2,1*%
%TO.N,+5V*%
X244475000Y-169545000D03*
D12*
%TO.P,R2,2*%
%TO.N,Net-(U10-Pad10)*%
X244475000Y-159385000D03*
%TD*%
D14*
%TO.P,R3,1*%
%TO.N,+5V*%
X248920000Y-172720000D03*
D12*
%TO.P,R3,2*%
%TO.N,~{IOT_SKIP}*%
X248920000Y-182880000D03*
%TD*%
D14*
%TO.P,R4,1*%
%TO.N,+5V*%
X278130000Y-135890000D03*
D12*
%TO.P,R4,2*%
%TO.N,Net-(U10-Pad4)*%
X267970000Y-135890000D03*
%TD*%
D15*
%TO.P,H1,1*%
%TO.N,GND*%
X75000000Y-63000000D03*
X165000000Y-63000000D03*
%TD*%
%TO.P,H2,1*%
%TO.N,GND*%
X195000000Y-63000000D03*
X285000000Y-63000000D03*
%TD*%
D16*
%TO.P,J1,1,Pin_1*%
%TO.N,Net-(U4-Pad12)*%
X110744000Y-172212000D03*
D17*
%TO.P,J1,2,Pin_2*%
%TO.N,Net-(U6-Pad4)*%
X108204000Y-172212000D03*
%TO.P,J1,3,Pin_3*%
%TO.N,Net-(U1-Pad9)*%
X105664000Y-172212000D03*
%TD*%
D16*
%TO.P,J2,1,Pin_1*%
%TO.N,Net-(U4-Pad12)*%
X144780000Y-172212000D03*
D17*
%TO.P,J2,2,Pin_2*%
%TO.N,Net-(U7-Pad1)*%
X142240000Y-172212000D03*
%TO.P,J2,3,Pin_3*%
%TO.N,Net-(U1-Pad9)*%
X139700000Y-172212000D03*
%TD*%
D18*
%TO.N,GND*%
X112395000Y-148590000D03*
X256540000Y-101600000D03*
X111125000Y-101600000D03*
X145600000Y-148600000D03*
X255600000Y-148590000D03*
X286006000Y-200404000D03*
X220600000Y-148590000D03*
X145600000Y-101600000D03*
X225425000Y-200025000D03*
X221615000Y-101600000D03*
X286385000Y-101600000D03*
X82550000Y-101600000D03*
X286006000Y-148969000D03*
X183100000Y-148590000D03*
X183100000Y-101600000D03*
%TO.N,+5V*%
X248920000Y-169545000D03*
X137795000Y-123190000D03*
X280035000Y-123190000D03*
X247650000Y-123190000D03*
X174625000Y-169545000D03*
X280035000Y-169545000D03*
X212725000Y-123190000D03*
X213000000Y-169545000D03*
X135255000Y-169545000D03*
X102870000Y-169545000D03*
X102870000Y-123190000D03*
X175500000Y-123100000D03*
D19*
%TO.N,A-BUS*%
X259080000Y-179705000D03*
X273050000Y-179705000D03*
%TO.N,I_O_DEVICE_SELECT*%
X151915000Y-114590000D03*
X167500000Y-114600000D03*
%TO.N,~{IOT_SHIFT}*%
X233680000Y-193040000D03*
X246380000Y-193040000D03*
%TO.N,Net-(U2-Pad8)*%
X121412000Y-132080000D03*
X142240000Y-132080000D03*
%TO.N,Net-(U1-Pad10)*%
X113030000Y-138430000D03*
X188595000Y-138430000D03*
%TO.N,Net-(U2-Pad10)*%
X161290000Y-135890000D03*
X121666000Y-135890000D03*
%TO.N,Net-(U2-Pad4)*%
X167500000Y-112300000D03*
X151892000Y-112268000D03*
X186300000Y-118300000D03*
X186300000Y-112100000D03*
%TO.N,Net-(U4-Pad4)*%
X142875000Y-143510000D03*
X231140000Y-143510000D03*
X127000000Y-143510000D03*
%TO.N,Net-(U4-Pad3)*%
X259080000Y-128524000D03*
X229108000Y-128524000D03*
%TO.N,Net-(U4-Pad1)*%
X226060000Y-119888000D03*
X240792000Y-119888000D03*
%TO.N,Net-(U10-Pad3)*%
X257810000Y-140970000D03*
X215900000Y-140970000D03*
%TO.N,I_D1_~{FLAG}*%
X180975000Y-185420000D03*
X99695000Y-186055000D03*
%TO.N,O_D1_~{FLAG}*%
X156210000Y-193040000D03*
X129540000Y-193040000D03*
%TO.N,I_D0_~{FLAG}*%
X81915000Y-197485000D03*
X156210000Y-197485000D03*
%TO.N,O_D0_~{FLAG}*%
X170815000Y-183515000D03*
X118110000Y-183515000D03*
%TO.N,I_D0_~{DATA}*%
X198120000Y-201295000D03*
X85852000Y-201295000D03*
%TO.N,I_D1_~{DATA}*%
X203835000Y-180975000D03*
X102870000Y-180975000D03*
%TO.N,/MCP_CLK*%
X96520000Y-179070000D03*
X107188000Y-130556000D03*
X198628000Y-130556000D03*
X136525000Y-179070000D03*
X113665000Y-179070000D03*
%TO.N,Net-(U4-Pad12)*%
X110744000Y-174752000D03*
X224536000Y-174752000D03*
X144780000Y-174752000D03*
%TO.N,Net-(U1-Pad9)*%
X102870000Y-176530000D03*
X105410000Y-128270000D03*
X220980000Y-128270000D03*
X91440000Y-176530000D03*
X139700000Y-176276000D03*
%TO.N,Net-(U10-Pad8)*%
X191770000Y-179070000D03*
X242800000Y-179000000D03*
X163830000Y-179070000D03*
%TO.N,Net-(U10-Pad4)*%
X217805000Y-137160000D03*
X250190000Y-125730000D03*
X263705010Y-125716536D03*
X243840000Y-137160000D03*
%TD*%
D20*
%TO.N,GND*%
X286006000Y-200404000D02*
X286006000Y-112651000D01*
X220620000Y-104500000D02*
X220620000Y-102595000D01*
X226570000Y-209040000D02*
X225425000Y-207895000D01*
X145620000Y-151500000D02*
X145620000Y-148620000D01*
X286006000Y-214070000D02*
X286006000Y-200404000D01*
X220620000Y-151500000D02*
X220620000Y-148610000D01*
X110620000Y-104500000D02*
X110620000Y-102105000D01*
X183120000Y-101620000D02*
X183100000Y-101600000D01*
X112395000Y-149725000D02*
X110620000Y-151500000D01*
X225425000Y-207895000D02*
X225425000Y-200025000D01*
X220620000Y-148610000D02*
X220600000Y-148590000D01*
X145620000Y-104500000D02*
X145620000Y-101620000D01*
X220620000Y-102595000D02*
X221615000Y-101600000D01*
X255620000Y-104500000D02*
X255620000Y-102520000D01*
X286006000Y-112651000D02*
X286006000Y-101979000D01*
X255620000Y-102520000D02*
X256540000Y-101600000D01*
X110620000Y-102105000D02*
X111125000Y-101600000D01*
X145620000Y-148620000D02*
X145600000Y-148600000D01*
X183120000Y-104500000D02*
X183120000Y-101620000D01*
X183120000Y-196800000D02*
X183120000Y-204710000D01*
X255620000Y-148610000D02*
X255600000Y-148590000D01*
X286006000Y-101979000D02*
X286385000Y-101600000D01*
X255620000Y-151500000D02*
X255620000Y-148610000D01*
X226570000Y-214070000D02*
X226570000Y-209040000D01*
X183120000Y-148610000D02*
X183100000Y-148590000D01*
X112395000Y-148590000D02*
X112395000Y-149725000D01*
X145620000Y-101620000D02*
X145600000Y-101600000D01*
X183120000Y-151500000D02*
X183120000Y-148610000D01*
%TO.N,+5V*%
X248000000Y-121570000D02*
X248000000Y-119740000D01*
X135255000Y-169485000D02*
X138000000Y-166740000D01*
X175500000Y-119740000D02*
X175500000Y-123100000D01*
X278081200Y-214070000D02*
X278081200Y-171498800D01*
X213000000Y-166740000D02*
X213000000Y-169545000D01*
X175500000Y-168670000D02*
X174625000Y-169545000D01*
X175500000Y-166740000D02*
X175500000Y-168670000D01*
X167880000Y-189180000D02*
X167880000Y-176290000D01*
X248000000Y-166740000D02*
X248000000Y-168625000D01*
X137795000Y-123190000D02*
X137795000Y-119945000D01*
X103000000Y-169415000D02*
X102870000Y-169545000D01*
X137795000Y-119945000D02*
X138000000Y-119740000D01*
X167880000Y-176290000D02*
X174625000Y-169545000D01*
X278081200Y-171498800D02*
X280035000Y-169545000D01*
X212725000Y-120015000D02*
X213000000Y-119740000D01*
X248000000Y-168625000D02*
X248920000Y-169545000D01*
X103000000Y-166740000D02*
X103000000Y-169415000D01*
X102870000Y-119870000D02*
X103000000Y-119740000D01*
X278081200Y-214070000D02*
X282043600Y-214070000D01*
X135255000Y-169545000D02*
X135255000Y-169485000D01*
X102870000Y-123190000D02*
X102870000Y-119870000D01*
X212725000Y-123190000D02*
X212725000Y-120015000D01*
X247650000Y-123190000D02*
X248000000Y-121570000D01*
X248920000Y-169545000D02*
X248920000Y-172720000D01*
D21*
%TO.N,A-BUS*%
X274118800Y-214070000D02*
X274118800Y-180773800D01*
X259080000Y-170200000D02*
X255620000Y-166740000D01*
X259080000Y-179705000D02*
X259080000Y-170200000D01*
X274118800Y-180773800D02*
X273050000Y-179705000D01*
%TO.N,I_O_DEVICE_SELECT*%
X154810000Y-114590000D02*
X166900000Y-102500000D01*
X183120000Y-119740000D02*
X183120000Y-123880000D01*
X147320000Y-93980000D02*
X262255000Y-93980000D01*
X176700000Y-102500000D02*
X177600000Y-103400000D01*
X166900000Y-102500000D02*
X176700000Y-102500000D01*
X183120000Y-123880000D02*
X181800000Y-125200000D01*
X176560000Y-107040000D02*
X175500000Y-107040000D01*
X270156400Y-148308600D02*
X270156400Y-214070000D01*
X143510000Y-113665000D02*
X143510000Y-109855000D01*
X167440000Y-114660000D02*
X167500000Y-114600000D01*
X177600000Y-106000000D02*
X176560000Y-107040000D01*
X170700000Y-125200000D02*
X167500000Y-122000000D01*
X181800000Y-125200000D02*
X170700000Y-125200000D01*
X262255000Y-93980000D02*
X270156400Y-101881400D01*
X177600000Y-103400000D02*
X177600000Y-106000000D01*
X143510000Y-109855000D02*
X142240000Y-108585000D01*
X151915000Y-114590000D02*
X154810000Y-114590000D01*
X142240000Y-99060000D02*
X147320000Y-93980000D01*
X270156400Y-101881400D02*
X270156400Y-127281400D01*
X270156400Y-127281400D02*
X273685000Y-130810000D01*
X273685000Y-130810000D02*
X273685000Y-144780000D01*
X142240000Y-108585000D02*
X142240000Y-99060000D01*
X144505000Y-114660000D02*
X143510000Y-113665000D01*
X145620000Y-114660000D02*
X144505000Y-114660000D01*
X273685000Y-144780000D02*
X270156400Y-148308600D01*
X145620000Y-114660000D02*
X151845000Y-114660000D01*
X151845000Y-114660000D02*
X151915000Y-114590000D01*
X167500000Y-122000000D02*
X167500000Y-114600000D01*
%TO.N,I_O_GATING*%
X162400000Y-98400000D02*
X177600000Y-98400000D01*
X175500000Y-109580000D02*
X179120000Y-109580000D01*
X145620000Y-109580000D02*
X143510000Y-107470000D01*
X266194000Y-100459000D02*
X266194000Y-127764000D01*
X179500000Y-100300000D02*
X179500000Y-109200000D01*
X143510000Y-107470000D02*
X143510000Y-99695000D01*
X266194000Y-127764000D02*
X270510000Y-132080000D01*
X179500000Y-115900000D02*
X178200000Y-117200000D01*
X179500000Y-109200000D02*
X179500000Y-115900000D01*
X178200000Y-117200000D02*
X175500000Y-117200000D01*
X177600000Y-98400000D02*
X179500000Y-100300000D01*
X260985000Y-95250000D02*
X266194000Y-100459000D01*
X270510000Y-132080000D02*
X270510000Y-142498000D01*
X145620000Y-109580000D02*
X151220000Y-109580000D01*
X266194000Y-146814000D02*
X266194000Y-214070000D01*
X143510000Y-99695000D02*
X147955000Y-95250000D01*
X147955000Y-95250000D02*
X260985000Y-95250000D01*
X270510000Y-142498000D02*
X266194000Y-146814000D01*
X151220000Y-109580000D02*
X162400000Y-98400000D01*
X179120000Y-109580000D02*
X179500000Y-109200000D01*
%TO.N,~{CLR_IOT_FLAG}*%
X262255000Y-185420000D02*
X262255000Y-159385000D01*
X255620000Y-154040000D02*
X255620000Y-156580000D01*
X262231600Y-185443400D02*
X262255000Y-185420000D01*
X259450000Y-156580000D02*
X255620000Y-156580000D01*
X262255000Y-159385000D02*
X259450000Y-156580000D01*
X262231600Y-214070000D02*
X262231600Y-185443400D01*
%TO.N,SKIP_ON_IOT_FLAG*%
X252095000Y-178435000D02*
X252095000Y-164295000D01*
X258269200Y-214070000D02*
X258269200Y-184609200D01*
X249460000Y-161660000D02*
X248000000Y-161660000D01*
X252095000Y-164295000D02*
X249460000Y-161660000D01*
X258269200Y-184609200D02*
X252095000Y-178435000D01*
%TO.N,~{IOT_SKIP}*%
X250825000Y-165625000D02*
X249400000Y-164200000D01*
X249400000Y-164200000D02*
X248000000Y-164200000D01*
X254306800Y-214070000D02*
X254306800Y-189536800D01*
X248920000Y-184150000D02*
X254306800Y-189536800D01*
X248920000Y-179705000D02*
X250825000Y-177800000D01*
X250825000Y-177800000D02*
X250825000Y-165625000D01*
X248920000Y-182880000D02*
X248920000Y-179705000D01*
X248920000Y-182880000D02*
X248920000Y-184150000D01*
%TO.N,MCP*%
X260919989Y-124170046D02*
X260919989Y-129605011D01*
X260919989Y-129605011D02*
X241300000Y-149225000D01*
X258805000Y-112120000D02*
X260985000Y-114300000D01*
X241300000Y-183515000D02*
X250344400Y-192559400D01*
X241300000Y-149225000D02*
X241300000Y-183515000D01*
X255620000Y-112120000D02*
X258805000Y-112120000D01*
X260985000Y-124105035D02*
X260919989Y-124170046D01*
X250344400Y-192559400D02*
X250344400Y-214070000D01*
X260985000Y-114300000D02*
X260985000Y-124105035D01*
%TO.N,~{IOT_SHIFT}*%
X220620000Y-109580000D02*
X226420000Y-109580000D01*
X246382000Y-193042000D02*
X246380000Y-193040000D01*
X233680000Y-193040000D02*
X233680000Y-116840000D01*
X233680000Y-116840000D02*
X226420000Y-109580000D01*
X246382000Y-214070000D02*
X246382000Y-193042000D01*
%TO.N,AC_BIT_0*%
X255620000Y-119740000D02*
X255620000Y-132365000D01*
X239964989Y-206115389D02*
X242419600Y-208570000D01*
X242419600Y-208570000D02*
X242419600Y-214070000D01*
X239964989Y-148020011D02*
X239964989Y-206115389D01*
X255620000Y-132365000D02*
X239964989Y-148020011D01*
%TO.N,T13*%
X241935000Y-130175000D02*
X241935000Y-137795000D01*
X243840000Y-116205000D02*
X243840000Y-128270000D01*
X241935000Y-137795000D02*
X238457200Y-141272800D01*
X245385000Y-114660000D02*
X243840000Y-116205000D01*
X243840000Y-128270000D02*
X241935000Y-130175000D01*
X238457200Y-141272800D02*
X238457200Y-214070000D01*
X248000000Y-114660000D02*
X245385000Y-114660000D01*
%TO.N,T2-9*%
X242210000Y-109580000D02*
X236220000Y-115570000D01*
X236220000Y-115570000D02*
X236220000Y-203835000D01*
X248000000Y-109580000D02*
X242210000Y-109580000D01*
X236220000Y-203835000D02*
X234494800Y-205560200D01*
X234494800Y-205560200D02*
X234494800Y-214070000D01*
%TO.N,T1*%
X230532400Y-193702400D02*
X220620000Y-183790000D01*
X220620000Y-183790000D02*
X220620000Y-166740000D01*
X230532400Y-214070000D02*
X230532400Y-193702400D01*
%TO.N,Net-(U2-Pad1)*%
X151060000Y-119740000D02*
X166300000Y-104500000D01*
X166300000Y-104500000D02*
X175500000Y-104500000D01*
X145620000Y-119740000D02*
X151060000Y-119740000D01*
%TO.N,Net-(U2-Pad8)*%
X106680000Y-148336000D02*
X106680000Y-155956000D01*
X105664000Y-156972000D02*
X105664000Y-157480000D01*
X179578000Y-140462000D02*
X179832000Y-140716000D01*
X106056000Y-156580000D02*
X106235500Y-156400500D01*
X106680000Y-155956000D02*
X106235500Y-156400500D01*
X205105000Y-150495000D02*
X208650000Y-154040000D01*
X121412000Y-132080000D02*
X121412000Y-133604000D01*
X181345000Y-154040000D02*
X183120000Y-154040000D01*
X105664000Y-161036000D02*
X105664000Y-157480000D01*
X103000000Y-161660000D02*
X105040000Y-161660000D01*
X106235500Y-156400500D02*
X105664000Y-156972000D01*
X125624000Y-104500000D02*
X121412000Y-108712000D01*
X138000000Y-104500000D02*
X125624000Y-104500000D01*
X142240000Y-132080000D02*
X171196000Y-132080000D01*
X179832000Y-140716000D02*
X179832000Y-152527000D01*
X105040000Y-161660000D02*
X105664000Y-161036000D01*
X104764000Y-156580000D02*
X105664000Y-157480000D01*
X205105000Y-143510000D02*
X205105000Y-150495000D01*
X171196000Y-132080000D02*
X179578000Y-140462000D01*
X179578000Y-140462000D02*
X184785000Y-135255000D01*
X196850000Y-135255000D02*
X205105000Y-143510000D01*
X121412000Y-108712000D02*
X121412000Y-132080000D01*
X103000000Y-156580000D02*
X104764000Y-156580000D01*
X104764000Y-156580000D02*
X106056000Y-156580000D01*
X121412000Y-133604000D02*
X106680000Y-148336000D01*
X184785000Y-135255000D02*
X196850000Y-135255000D01*
X208650000Y-154040000D02*
X213000000Y-154040000D01*
X179832000Y-152527000D02*
X181345000Y-154040000D01*
%TO.N,Net-(U1-Pad10)*%
X107696000Y-121920000D02*
X107696000Y-115824000D01*
X125476000Y-101600000D02*
X140335000Y-101600000D01*
X140335000Y-101600000D02*
X141035011Y-102300011D01*
X180975000Y-175895000D02*
X188595000Y-183515000D01*
X118872000Y-108204000D02*
X125476000Y-101600000D01*
X107696000Y-115824000D02*
X106532000Y-114660000D01*
X118872000Y-132588000D02*
X118872000Y-124460000D01*
X99928000Y-114660000D02*
X99060000Y-113792000D01*
X99208000Y-109580000D02*
X103000000Y-109580000D01*
X200025000Y-149860000D02*
X200025000Y-183515000D01*
X141035011Y-109285011D02*
X142174989Y-110424989D01*
X113030000Y-138430000D02*
X118872000Y-132588000D01*
X118872000Y-124460000D02*
X118364000Y-124968000D01*
X99060000Y-113792000D02*
X99060000Y-109728000D01*
X118872000Y-124460000D02*
X118872000Y-108204000D01*
X183120000Y-164200000D02*
X181345000Y-164200000D01*
X118364000Y-124968000D02*
X110744000Y-124968000D01*
X141035011Y-102300011D02*
X141035011Y-109285011D01*
X180975000Y-175895000D02*
X180975000Y-164570000D01*
X188595000Y-183515000D02*
X200025000Y-183515000D01*
X213000000Y-161660000D02*
X207910000Y-161660000D01*
X207910000Y-161660000D02*
X206375000Y-163195000D01*
X144820001Y-116400001D02*
X145620000Y-117200000D01*
X99060000Y-109728000D02*
X99208000Y-109580000D01*
X204470000Y-183515000D02*
X206375000Y-181610000D01*
X142174989Y-110424989D02*
X142174989Y-113754989D01*
X206375000Y-163195000D02*
X206375000Y-181610000D01*
X180975000Y-164570000D02*
X181345000Y-164200000D01*
X103000000Y-114660000D02*
X99928000Y-114660000D01*
X106532000Y-114660000D02*
X103000000Y-114660000D01*
X142174989Y-113754989D02*
X144820001Y-116400001D01*
X110744000Y-124968000D02*
X107696000Y-121920000D01*
X204470000Y-183515000D02*
X200025000Y-183515000D01*
X188595000Y-138430000D02*
X200025000Y-149860000D01*
%TO.N,Net-(U2-Pad10)*%
X121666000Y-135890000D02*
X125476000Y-132080000D01*
X138000000Y-156580000D02*
X139584000Y-156580000D01*
X175500000Y-151500000D02*
X169788000Y-151500000D01*
X109336000Y-156580000D02*
X110620000Y-156580000D01*
X113792000Y-157480000D02*
X113792000Y-163576000D01*
X138000000Y-109580000D02*
X128164000Y-109580000D01*
X116840000Y-140716000D02*
X117602000Y-139954000D01*
X128164000Y-109580000D02*
X125476000Y-112268000D01*
X108204000Y-149352000D02*
X108204000Y-155448000D01*
X117602000Y-139954000D02*
X121666000Y-135890000D01*
X125476000Y-112268000D02*
X125476000Y-132080000D01*
X140716000Y-147320000D02*
X125476000Y-132080000D01*
X112892000Y-156580000D02*
X113792000Y-157480000D01*
X117602000Y-139954000D02*
X108204000Y-149352000D01*
X169788000Y-151500000D02*
X161290000Y-143002000D01*
X161290000Y-135890000D02*
X161290000Y-143002000D01*
X139584000Y-156580000D02*
X140716000Y-155448000D01*
X140716000Y-155448000D02*
X140716000Y-150876000D01*
X108204000Y-155448000D02*
X109336000Y-156580000D01*
X140716000Y-150876000D02*
X140716000Y-147320000D01*
X113792000Y-163576000D02*
X113168000Y-164200000D01*
X110620000Y-156580000D02*
X112892000Y-156580000D01*
X113168000Y-164200000D02*
X110620000Y-164200000D01*
%TO.N,Net-(U2-Pad4)*%
X171560000Y-114660000D02*
X169200000Y-112300000D01*
X184500000Y-126200000D02*
X186300000Y-124400000D01*
X167500000Y-112300000D02*
X166500000Y-112300000D01*
X185880000Y-109580000D02*
X183120000Y-109580000D01*
X168100000Y-126200000D02*
X184500000Y-126200000D01*
X164500000Y-122600000D02*
X168100000Y-126200000D01*
X166500000Y-112300000D02*
X164500000Y-114300000D01*
X186300000Y-124400000D02*
X186300000Y-118300000D01*
X151744000Y-112120000D02*
X151892000Y-112268000D01*
X164500000Y-114300000D02*
X164500000Y-122600000D01*
X175500000Y-114660000D02*
X171560000Y-114660000D01*
X186300000Y-112100000D02*
X186300000Y-110000000D01*
X169200000Y-112300000D02*
X167500000Y-112300000D01*
X186300000Y-110000000D02*
X185880000Y-109580000D01*
X175443004Y-114716996D02*
X175500000Y-114660000D01*
X145620000Y-112120000D02*
X151744000Y-112120000D01*
%TO.N,Net-(U2-Pad11)*%
X185631989Y-127355011D02*
X147675011Y-127355011D01*
X188468000Y-115443000D02*
X188468000Y-124519000D01*
X188468000Y-124519000D02*
X185631989Y-127355011D01*
X139700000Y-113420000D02*
X138400000Y-112120000D01*
X138400000Y-112120000D02*
X138000000Y-112120000D01*
X147675011Y-127355011D02*
X139700000Y-119380000D01*
X187685000Y-114660000D02*
X188468000Y-115443000D01*
X187685000Y-114660000D02*
X183120000Y-114660000D01*
X139700000Y-119380000D02*
X139700000Y-113420000D01*
%TO.N,Net-(U2-Pad12)*%
X130196000Y-114660000D02*
X130048000Y-114808000D01*
X129349500Y-133540500D02*
X129667000Y-133858000D01*
X170180000Y-133604000D02*
X130556000Y-133604000D01*
X128397000Y-114808000D02*
X127635000Y-115570000D01*
X129667000Y-133858000D02*
X141732000Y-145923000D01*
X141732000Y-163576000D02*
X142356000Y-164200000D01*
X142356000Y-164200000D02*
X145620000Y-164200000D01*
X138000000Y-161660000D02*
X141340000Y-161660000D01*
X178435000Y-158115000D02*
X178435000Y-141859000D01*
X130556000Y-133604000D02*
X129921000Y-133604000D01*
X127635000Y-115570000D02*
X127000000Y-116205000D01*
X141732000Y-145923000D02*
X141732000Y-159004000D01*
X175500000Y-159120000D02*
X177430000Y-159120000D01*
X138000000Y-114660000D02*
X128545000Y-114660000D01*
X141848000Y-159120000D02*
X141732000Y-159004000D01*
X141732000Y-159004000D02*
X141732000Y-162052000D01*
X138000000Y-114660000D02*
X130196000Y-114660000D01*
X128545000Y-114660000D02*
X127635000Y-115570000D01*
X127000000Y-116205000D02*
X127000000Y-131191000D01*
X145620000Y-159120000D02*
X141848000Y-159120000D01*
X177430000Y-159120000D02*
X178435000Y-158115000D01*
X178435000Y-141859000D02*
X170180000Y-133604000D01*
X130048000Y-114808000D02*
X128397000Y-114808000D01*
X141732000Y-162052000D02*
X141732000Y-163576000D01*
X129413000Y-133604000D02*
X128714500Y-132905500D01*
X130556000Y-133604000D02*
X129413000Y-133604000D01*
X129921000Y-133604000D02*
X129667000Y-133858000D01*
X127000000Y-131191000D02*
X128714500Y-132905500D01*
X128714500Y-132905500D02*
X129349500Y-133540500D01*
X141340000Y-161660000D02*
X141732000Y-162052000D01*
%TO.N,Net-(U2-Pad6)*%
X181900000Y-117200000D02*
X183120000Y-117200000D01*
X152260000Y-107040000D02*
X162300000Y-97000000D01*
X181120000Y-112120000D02*
X180800000Y-111800000D01*
X180800000Y-99600000D02*
X180800000Y-111800000D01*
X145620000Y-107040000D02*
X152260000Y-107040000D01*
X183120000Y-112120000D02*
X181120000Y-112120000D01*
X162300000Y-97000000D02*
X178200000Y-97000000D01*
X180800000Y-116100000D02*
X181900000Y-117200000D01*
X180800000Y-111800000D02*
X180800000Y-116100000D01*
X178200000Y-97000000D02*
X180800000Y-99600000D01*
%TO.N,Net-(U2-Pad13)*%
X190500000Y-109728000D02*
X190500000Y-125984000D01*
X187960000Y-128524000D02*
X131572000Y-128524000D01*
X187812000Y-107040000D02*
X190500000Y-109728000D01*
X190500000Y-125984000D02*
X187960000Y-128524000D01*
X131212000Y-117200000D02*
X138000000Y-117200000D01*
X187812000Y-107040000D02*
X183120000Y-107040000D01*
X131572000Y-128524000D02*
X129540000Y-126492000D01*
X129540000Y-126492000D02*
X129540000Y-118872000D01*
X129540000Y-118872000D02*
X131212000Y-117200000D01*
%TO.N,Net-(U4-Pad13)*%
X220620000Y-161660000D02*
X223150000Y-161660000D01*
X223520000Y-161290000D02*
X223520000Y-145415000D01*
X223150000Y-161660000D02*
X223520000Y-161290000D01*
X205740000Y-118745000D02*
X207285000Y-117200000D01*
X207285000Y-117200000D02*
X213000000Y-117200000D01*
X223520000Y-145415000D02*
X205740000Y-127635000D01*
X205740000Y-127635000D02*
X205740000Y-118745000D01*
%TO.N,Net-(U4-Pad6)*%
X220620000Y-107040000D02*
X248000000Y-107040000D01*
%TO.N,Net-(U4-Pad11)*%
X216916000Y-101854000D02*
X219710000Y-99060000D01*
X248000000Y-100680000D02*
X248000000Y-104500000D01*
X216916000Y-110448000D02*
X216916000Y-101854000D01*
X213000000Y-112120000D02*
X215244000Y-112120000D01*
X219710000Y-99060000D02*
X246380000Y-99060000D01*
X246380000Y-99060000D02*
X248000000Y-100680000D01*
X215244000Y-112120000D02*
X216916000Y-110448000D01*
%TO.N,Net-(U4-Pad4)*%
X231140000Y-117348000D02*
X225912000Y-112120000D01*
X127000000Y-152400000D02*
X128640000Y-154040000D01*
X142875000Y-144145000D02*
X143256000Y-144526000D01*
X231140000Y-143510000D02*
X231140000Y-117348000D01*
X143256000Y-144526000D02*
X143256000Y-155956000D01*
X143256000Y-155956000D02*
X143880000Y-156580000D01*
X127000000Y-143510000D02*
X127000000Y-152400000D01*
X143880000Y-156580000D02*
X145620000Y-156580000D01*
X142875000Y-143510000D02*
X142875000Y-144145000D01*
X128640000Y-154040000D02*
X138000000Y-154040000D01*
X225912000Y-112120000D02*
X220620000Y-112120000D01*
%TO.N,Net-(U10-Pad2)*%
X262255000Y-112395000D02*
X259440000Y-109580000D01*
X250190000Y-97790000D02*
X251460000Y-99060000D01*
X254360000Y-117200000D02*
X255620000Y-117200000D01*
X215032000Y-109580000D02*
X215900000Y-108712000D01*
X250200000Y-160400000D02*
X250200000Y-145405000D01*
X253852000Y-109580000D02*
X255620000Y-109580000D01*
X253428500Y-109156500D02*
X253428500Y-116268500D01*
X251460000Y-107188000D02*
X253428500Y-109156500D01*
X251460000Y-99060000D02*
X251460000Y-107188000D01*
X215900000Y-108712000D02*
X215900000Y-100330000D01*
X254000000Y-164200000D02*
X250200000Y-160400000D01*
X250200000Y-145405000D02*
X262255000Y-133350000D01*
X255620000Y-164200000D02*
X254000000Y-164200000D01*
X253428500Y-109156500D02*
X253852000Y-109580000D01*
X253428500Y-116268500D02*
X254360000Y-117200000D01*
X259440000Y-109580000D02*
X255620000Y-109580000D01*
X215900000Y-100330000D02*
X218440000Y-97790000D01*
X218440000Y-97790000D02*
X250190000Y-97790000D01*
X213000000Y-109580000D02*
X215032000Y-109580000D01*
X262255000Y-133350000D02*
X262255000Y-112395000D01*
%TO.N,Net-(U4-Pad3)*%
X229108000Y-118364000D02*
X229108000Y-128524000D01*
X259080000Y-115316000D02*
X258424000Y-114660000D01*
X259080000Y-128524000D02*
X259080000Y-115316000D01*
X225404000Y-114660000D02*
X229108000Y-118364000D01*
X220620000Y-114660000D02*
X225404000Y-114660000D01*
X258424000Y-114660000D02*
X255620000Y-114660000D01*
%TO.N,Net-(U4-Pad9)*%
X213000000Y-107040000D02*
X214524000Y-107040000D01*
X217805000Y-96520000D02*
X251460000Y-96520000D01*
X214884000Y-106680000D02*
X214884000Y-99441000D01*
X214884000Y-99441000D02*
X217805000Y-96520000D01*
X252984000Y-106172000D02*
X253852000Y-107040000D01*
X214524000Y-107040000D02*
X214884000Y-106680000D01*
X253852000Y-107040000D02*
X255620000Y-107040000D01*
X252984000Y-98044000D02*
X252984000Y-106172000D01*
X251460000Y-96520000D02*
X252984000Y-98044000D01*
%TO.N,Net-(U4-Pad1)*%
X240792000Y-119888000D02*
X240792000Y-114808000D01*
X220620000Y-119740000D02*
X225912000Y-119740000D01*
X243480000Y-112120000D02*
X248000000Y-112120000D01*
X225912000Y-119740000D02*
X226060000Y-119888000D01*
X240792000Y-114808000D02*
X243480000Y-112120000D01*
%TO.N,Net-(U11-Pad10)*%
X176900000Y-161660000D02*
X177400000Y-162160000D01*
X175500000Y-161660000D02*
X176900000Y-161660000D01*
X177400000Y-162160000D02*
X177400000Y-188540000D01*
X177400000Y-188540000D02*
X178040000Y-189180000D01*
%TO.N,Net-(U11-Pad8)*%
X181875000Y-156580000D02*
X178600000Y-159855000D01*
X183120000Y-182485000D02*
X183120000Y-189180000D01*
X178600000Y-177965000D02*
X183120000Y-182485000D01*
X178600000Y-159855000D02*
X178600000Y-177965000D01*
D22*
X181875000Y-156580000D02*
X183120000Y-156580000D01*
D21*
%TO.N,Net-(U11-Pad6)*%
X190500000Y-187325000D02*
X190500000Y-192405000D01*
X183070000Y-194310000D02*
X180580000Y-196800000D01*
X179800000Y-176625000D02*
X190500000Y-187325000D01*
X180605000Y-161660000D02*
X179800000Y-162465000D01*
X188595000Y-194310000D02*
X183070000Y-194310000D01*
X190500000Y-192405000D02*
X188595000Y-194310000D01*
X183120000Y-161660000D02*
X180605000Y-161660000D01*
X179800000Y-162465000D02*
X179800000Y-176625000D01*
%TO.N,Net-(U11-Pad12)*%
X160020000Y-186690000D02*
X160020000Y-161290000D01*
X172960000Y-190260000D02*
X172085000Y-191135000D01*
X167270000Y-154040000D02*
X175500000Y-154040000D01*
X160020000Y-161290000D02*
X167270000Y-154040000D01*
X164465000Y-191135000D02*
X160020000Y-186690000D01*
X172328000Y-154040000D02*
X175500000Y-154040000D01*
X172960000Y-189180000D02*
X172960000Y-190260000D01*
X172085000Y-191135000D02*
X164465000Y-191135000D01*
%TO.N,Net-(U10-Pad3)*%
X251500000Y-147280000D02*
X251500000Y-159100000D01*
X215900000Y-140970000D02*
X215900000Y-149320000D01*
X215900000Y-149320000D02*
X220620000Y-154040000D01*
X257810000Y-140970000D02*
X251500000Y-147280000D01*
X251500000Y-159100000D02*
X254060000Y-161660000D01*
X254060000Y-161660000D02*
X255620000Y-161660000D01*
%TO.N,I_D1_~{FLAG}*%
X180580000Y-185815000D02*
X180975000Y-185420000D01*
X180580000Y-189180000D02*
X180580000Y-185815000D01*
X97751600Y-187998400D02*
X97751600Y-214078000D01*
X99695000Y-186055000D02*
X97751600Y-187998400D01*
%TO.N,O_D1_~{FLAG}*%
X129400000Y-214027200D02*
X129450800Y-214078000D01*
X129540000Y-193040000D02*
X129400000Y-214027200D01*
X156210000Y-193040000D02*
X171640000Y-193040000D01*
X172815000Y-191865000D02*
X175500000Y-189180000D01*
X171640000Y-193040000D02*
X172815000Y-191865000D01*
%TO.N,I_D0_~{FLAG}*%
X177600000Y-194600000D02*
X178040000Y-195040000D01*
X156210000Y-197485000D02*
X159095000Y-194600000D01*
X81915000Y-197485000D02*
X81902000Y-204838000D01*
X159095000Y-194600000D02*
X177600000Y-194600000D01*
X178040000Y-195040000D02*
X178040000Y-196800000D01*
X81902000Y-204838000D02*
X81902000Y-214078000D01*
%TO.N,O_D0_~{FLAG}*%
X113665000Y-188595000D02*
X113665000Y-214014200D01*
X118110000Y-183515000D02*
X113665000Y-188595000D01*
X170815000Y-183515000D02*
X170815000Y-187325000D01*
X113665000Y-214014200D02*
X113601200Y-214078000D01*
X170815000Y-187325000D02*
X170420000Y-187720000D01*
X170420000Y-187720000D02*
X170420000Y-189180000D01*
%TO.N,I_D0_~{CLOCK}*%
X86360000Y-100965000D02*
X90805000Y-96520000D01*
X73977200Y-199707800D02*
X86360000Y-187325000D01*
X106045000Y-110490000D02*
X104415000Y-112120000D01*
X104415000Y-112120000D02*
X103000000Y-112120000D01*
X73977200Y-214078000D02*
X73977200Y-199707800D01*
X90805000Y-96520000D02*
X104140000Y-96520000D01*
X106045000Y-98425000D02*
X106045000Y-110490000D01*
X104140000Y-96520000D02*
X106045000Y-98425000D01*
X86360000Y-187325000D02*
X86360000Y-100965000D01*
%TO.N,I_D0_~{FLAG_RESET}*%
X87630000Y-108585000D02*
X91715000Y-104500000D01*
X91715000Y-104500000D02*
X103000000Y-104500000D01*
X77939600Y-214078000D02*
X77939600Y-197650400D01*
X87630000Y-187960000D02*
X87630000Y-108585000D01*
X77939600Y-197650400D02*
X87630000Y-187960000D01*
%TO.N,O_D0_~{FLAG_RESET}*%
X115824000Y-180848000D02*
X109638800Y-187033200D01*
X115824000Y-155956000D02*
X115824000Y-180848000D01*
X113908000Y-154040000D02*
X115824000Y-155956000D01*
X110620000Y-154040000D02*
X113908000Y-154040000D01*
X109638800Y-187033200D02*
X109638800Y-214078000D01*
%TO.N,I_D1_~{FLAG_RESET}*%
X99568000Y-160528000D02*
X99568000Y-181864000D01*
X93789200Y-187642800D02*
X93789200Y-214078000D01*
X103000000Y-159120000D02*
X100976000Y-159120000D01*
X100976000Y-159120000D02*
X99568000Y-160528000D01*
X99568000Y-181864000D02*
X93789200Y-187642800D01*
%TO.N,O_D0_~{CLOCK}*%
X109104000Y-161660000D02*
X107696000Y-163068000D01*
X111760000Y-169164000D02*
X112776000Y-170180000D01*
X107696000Y-168148000D02*
X108712000Y-169164000D01*
X110620000Y-161660000D02*
X109104000Y-161660000D01*
X105676400Y-182359600D02*
X105676400Y-214078000D01*
X112776000Y-175260000D02*
X105676400Y-182359600D01*
X107696000Y-163068000D02*
X107696000Y-168148000D01*
X112776000Y-170180000D02*
X112776000Y-175260000D01*
X108712000Y-169164000D02*
X111760000Y-169164000D01*
%TO.N,I_D1_~{CLOCK}*%
X98552000Y-180848000D02*
X98552000Y-153416000D01*
X89826800Y-214078000D02*
X89826800Y-189573200D01*
X98552000Y-153416000D02*
X100468000Y-151500000D01*
X100468000Y-151500000D02*
X103000000Y-151500000D01*
X89826800Y-189573200D02*
X98552000Y-180848000D01*
%TO.N,I_D0_~{DATA}*%
X198120000Y-201295000D02*
X201305000Y-201295000D01*
X201305000Y-201295000D02*
X208788000Y-193812000D01*
X208788000Y-193812000D02*
X208788000Y-165608000D01*
X85852000Y-201295000D02*
X85864400Y-206768400D01*
X85864400Y-206768400D02*
X85864400Y-214078000D01*
X208788000Y-165608000D02*
X210196000Y-164200000D01*
X210196000Y-164200000D02*
X213000000Y-164200000D01*
%TO.N,Net-(U9-Pad5)*%
X213000000Y-151500000D02*
X214365000Y-151500000D01*
X219445000Y-156580000D02*
X220620000Y-156580000D01*
X214365000Y-151500000D02*
X219445000Y-156580000D01*
%TO.N,Net-(U9-Pad11)*%
X213000000Y-159120000D02*
X220620000Y-159120000D01*
%TO.N,I_D1_~{DATA}*%
X101714000Y-189751000D02*
X102870000Y-188595000D01*
X203835000Y-158115000D02*
X205370000Y-156580000D01*
X205370000Y-156580000D02*
X213000000Y-156580000D01*
X203835000Y-180975000D02*
X203835000Y-158115000D01*
X102870000Y-188595000D02*
X102870000Y-180975000D01*
X101714000Y-214078000D02*
X101714000Y-189751000D01*
%TO.N,O_D1_~{DATA}*%
X150495000Y-187960000D02*
X150495000Y-156210000D01*
X133413200Y-214078000D02*
X133413200Y-205041800D01*
X148325000Y-154040000D02*
X145620000Y-154040000D01*
X133413200Y-205041800D02*
X150495000Y-187960000D01*
X150495000Y-156210000D02*
X148325000Y-154040000D01*
%TO.N,O_D1_~{CLOCK}*%
X121285000Y-187960000D02*
X121285000Y-213837000D01*
X128535000Y-159120000D02*
X125095000Y-162560000D01*
X121285000Y-213837000D02*
X121526000Y-214078000D01*
X125095000Y-184150000D02*
X121285000Y-187960000D01*
X138000000Y-159120000D02*
X128535000Y-159120000D01*
X125095000Y-162560000D02*
X125095000Y-184150000D01*
%TO.N,O_D1_~{FLAG_RESET}*%
X128270000Y-189230000D02*
X125488400Y-192011600D01*
X125488400Y-192011600D02*
X125488400Y-214078000D01*
X148325000Y-161660000D02*
X149225000Y-162560000D01*
X149225000Y-162560000D02*
X149225000Y-185420000D01*
X145415000Y-189230000D02*
X128270000Y-189230000D01*
X145620000Y-161660000D02*
X148325000Y-161660000D01*
X149225000Y-185420000D02*
X145415000Y-189230000D01*
%TO.N,O_D0_~{DATA}*%
X123444000Y-183896000D02*
X123444000Y-140716000D01*
X129540000Y-150368000D02*
X130672000Y-151500000D01*
X130672000Y-151500000D02*
X138000000Y-151500000D01*
X123444000Y-140716000D02*
X124460000Y-139700000D01*
X117563600Y-189776400D02*
X123444000Y-183896000D01*
X124460000Y-139700000D02*
X128270000Y-139700000D01*
X128270000Y-139700000D02*
X129540000Y-140970000D01*
X129540000Y-140970000D02*
X129540000Y-150368000D01*
X117563600Y-214078000D02*
X117563600Y-189776400D01*
%TO.N,/MCP_CLK*%
X107188000Y-130556000D02*
X107696000Y-130048000D01*
X105156000Y-148844000D02*
X105156000Y-132588000D01*
X99568000Y-148844000D02*
X100076000Y-148844000D01*
X105156000Y-132588000D02*
X107188000Y-130556000D01*
X138684000Y-169672000D02*
X140208000Y-169672000D01*
X113400000Y-166740000D02*
X110620000Y-166740000D01*
X105040000Y-154040000D02*
X105156000Y-153924000D01*
X104500000Y-117200000D02*
X103000000Y-117200000D01*
X136525000Y-179070000D02*
X136652000Y-171704000D01*
X100076000Y-148844000D02*
X105156000Y-148844000D01*
X140324000Y-164200000D02*
X138000000Y-164200000D01*
X140208000Y-169672000D02*
X140716000Y-169164000D01*
X107696000Y-126492000D02*
X105664000Y-124460000D01*
X96520000Y-179070000D02*
X96520000Y-151892000D01*
X140716000Y-169164000D02*
X140716000Y-164592000D01*
X105664000Y-118364000D02*
X104500000Y-117200000D01*
X113792000Y-167132000D02*
X113400000Y-166740000D01*
X140716000Y-164592000D02*
X140324000Y-164200000D01*
X198628000Y-130556000D02*
X198628000Y-113792000D01*
X105156000Y-153924000D02*
X105156000Y-148844000D01*
X96520000Y-151892000D02*
X99568000Y-148844000D01*
X113665000Y-179070000D02*
X113792000Y-167132000D01*
X198628000Y-113792000D02*
X207920000Y-104500000D01*
X107696000Y-130048000D02*
X107696000Y-126492000D01*
X207920000Y-104500000D02*
X213000000Y-104500000D01*
X105664000Y-124460000D02*
X105664000Y-118364000D01*
X136652000Y-171704000D02*
X138684000Y-169672000D01*
X103000000Y-154040000D02*
X105040000Y-154040000D01*
%TO.N,Net-(U4-Pad12)*%
X227076000Y-143256000D02*
X215392000Y-131572000D01*
X215392000Y-115824000D02*
X214228000Y-114660000D01*
X144780000Y-174752000D02*
X144780000Y-172212000D01*
X227076000Y-172212000D02*
X227076000Y-143256000D01*
X215392000Y-131572000D02*
X215392000Y-115824000D01*
X224536000Y-174752000D02*
X227076000Y-172212000D01*
X110744000Y-172212000D02*
X110744000Y-174752000D01*
X214228000Y-114660000D02*
X213000000Y-114660000D01*
%TO.N,Net-(U6-Pad4)*%
X108088000Y-159120000D02*
X110620000Y-159120000D01*
X106680000Y-170688000D02*
X106680000Y-160528000D01*
X108204000Y-172212000D02*
X106680000Y-170688000D01*
X106680000Y-160528000D02*
X108088000Y-159120000D01*
%TO.N,Net-(U1-Pad9)*%
X220345000Y-117475000D02*
X220620000Y-117200000D01*
X218440000Y-125730000D02*
X218440000Y-117475000D01*
X105664000Y-172212000D02*
X105664000Y-175641000D01*
X105664000Y-165100000D02*
X105664000Y-172212000D01*
X103000000Y-107040000D02*
X92985000Y-107040000D01*
X218440000Y-117475000D02*
X220345000Y-117475000D01*
X220980000Y-128270000D02*
X218440000Y-125730000D01*
X92075000Y-128270000D02*
X92710000Y-128270000D01*
X88900000Y-125095000D02*
X88900000Y-128016000D01*
X92710000Y-128270000D02*
X89154000Y-128270000D01*
X92985000Y-107040000D02*
X88900000Y-111125000D01*
X105664000Y-172212000D02*
X105664000Y-173736000D01*
X92710000Y-128270000D02*
X105410000Y-128270000D01*
X104775000Y-176530000D02*
X105410000Y-175895000D01*
X88900000Y-173990000D02*
X91440000Y-176530000D01*
X88900000Y-128016000D02*
X88900000Y-173990000D01*
X102870000Y-176530000D02*
X104775000Y-176530000D01*
X89154000Y-128270000D02*
X88900000Y-128016000D01*
X103000000Y-164200000D02*
X104764000Y-164200000D01*
X105664000Y-175641000D02*
X104775000Y-176530000D01*
X139700000Y-176276000D02*
X139700000Y-172212000D01*
X104510000Y-164200000D02*
X103000000Y-164200000D01*
X104764000Y-164200000D02*
X105664000Y-165100000D01*
X88900000Y-111125000D02*
X88900000Y-125095000D01*
%TO.N,Net-(U7-Pad1)*%
X142240000Y-172212000D02*
X142240000Y-168656000D01*
X142240000Y-168656000D02*
X144156000Y-166740000D01*
X144156000Y-166740000D02*
X145620000Y-166740000D01*
%TO.N,Net-(U10-Pad8)*%
X186055000Y-168275000D02*
X187960000Y-170180000D01*
X171715000Y-156580000D02*
X170550000Y-157745000D01*
X187325000Y-169545000D02*
X187960000Y-170180000D01*
X167005000Y-165100000D02*
X167640000Y-164465000D01*
X183490000Y-166370000D02*
X183120000Y-166740000D01*
X185420000Y-167640000D02*
X187325000Y-169545000D01*
X183120000Y-159120000D02*
X185155000Y-159120000D01*
X191770000Y-173990000D02*
X191770000Y-179070000D01*
X170550000Y-164200000D02*
X167905000Y-164200000D01*
X170550000Y-157745000D02*
X170550000Y-164200000D01*
X185420000Y-166370000D02*
X183490000Y-166370000D01*
X242800000Y-159240000D02*
X242800000Y-179000000D01*
X185420000Y-159385000D02*
X185420000Y-166370000D01*
X163830000Y-179070000D02*
X163830000Y-168275000D01*
X248000000Y-154040000D02*
X248000000Y-151500000D01*
X163830000Y-168275000D02*
X167005000Y-165100000D01*
X185420000Y-166370000D02*
X185420000Y-167640000D01*
X248000000Y-154040000D02*
X242800000Y-159240000D01*
X185155000Y-159120000D02*
X185420000Y-159385000D01*
X175500000Y-164200000D02*
X170550000Y-164200000D01*
X167905000Y-164200000D02*
X167005000Y-165100000D01*
X175500000Y-156580000D02*
X171715000Y-156580000D01*
X187960000Y-170180000D02*
X191770000Y-173990000D01*
%TO.N,Net-(U10-Pad10)*%
X244475000Y-159385000D02*
X247735000Y-159385000D01*
X247735000Y-159385000D02*
X248000000Y-159120000D01*
X248000000Y-156580000D02*
X248000000Y-159120000D01*
%TO.N,Net-(U10-Pad4)*%
X250190000Y-118110000D02*
X249280000Y-117200000D01*
X243840000Y-130810000D02*
X250190000Y-125730000D01*
X263525000Y-137795000D02*
X266065000Y-137795000D01*
X252900000Y-148420000D02*
X263525000Y-137795000D01*
X263525000Y-137795000D02*
X263705010Y-137614990D01*
X252900000Y-158100000D02*
X252900000Y-148420000D01*
X263705010Y-125716536D02*
X263705010Y-131625010D01*
X249280000Y-117200000D02*
X248000000Y-117200000D01*
X225425000Y-161925000D02*
X223150000Y-164200000D01*
X253920000Y-159120000D02*
X252900000Y-158100000D01*
X243840000Y-137160000D02*
X243840000Y-130810000D01*
X223150000Y-164200000D02*
X220620000Y-164200000D01*
X266065000Y-137795000D02*
X267970000Y-135890000D01*
X217805000Y-137160000D02*
X225425000Y-144780000D01*
X250190000Y-125730000D02*
X250190000Y-118110000D01*
X263705010Y-131625010D02*
X267970000Y-135890000D01*
X225425000Y-144780000D02*
X225425000Y-161925000D01*
X255620000Y-159120000D02*
X253920000Y-159120000D01*
%TO.N,Net-(U3-Pad11)*%
X144272000Y-121920000D02*
X150180000Y-121920000D01*
X171120000Y-112120000D02*
X175500000Y-112120000D01*
X138000000Y-107040000D02*
X138400000Y-107040000D01*
X140970000Y-114300000D02*
X142555989Y-115885989D01*
X139700000Y-110490000D02*
X140970000Y-111760000D01*
X142555989Y-115885989D02*
X142555989Y-120203989D01*
X139700000Y-108340000D02*
X139700000Y-110490000D01*
X138400000Y-107040000D02*
X139700000Y-108340000D01*
X169800000Y-110800000D02*
X171120000Y-112120000D01*
X140970000Y-111760000D02*
X140970000Y-114300000D01*
X142555989Y-120203989D02*
X144272000Y-121920000D01*
X150180000Y-121920000D02*
X161300000Y-110800000D01*
X161300000Y-110800000D02*
X169800000Y-110800000D01*
%TD*%
%TA.AperFunction,Conductor*%
%TO.N,GND*%
G36*
X140970000Y-98425000D02*
G01*
X140970000Y-99569000D01*
X140949998Y-99637121D01*
X140896342Y-99683614D01*
X140844000Y-99695000D01*
X125095000Y-99695000D01*
X119416905Y-105373095D01*
X119354593Y-105407121D01*
X119327810Y-105410000D01*
X109272190Y-105410000D01*
X109204069Y-105389998D01*
X109183095Y-105373095D01*
X108621905Y-104811905D01*
X108587879Y-104749593D01*
X108585000Y-104722810D01*
X108585000Y-97155000D01*
X106680000Y-95250000D01*
X144145000Y-95250000D01*
X140970000Y-98425000D01*
G37*
%TD.AperFunction*%
%TD*%
%TA.AperFunction,Conductor*%
%TO.N,+5V*%
G36*
X281310121Y-118130002D02*
G01*
X281342800Y-118160400D01*
X283184800Y-120616400D01*
X283209671Y-120682898D01*
X283210000Y-120692000D01*
X283210000Y-213869000D01*
X283189998Y-213937121D01*
X283136342Y-213983614D01*
X283084000Y-213995000D01*
X276986000Y-213995000D01*
X276917879Y-213974998D01*
X276871386Y-213921342D01*
X276860000Y-213869000D01*
X276860000Y-120053149D01*
X276881162Y-119983257D01*
X278092595Y-118166108D01*
X278147024Y-118120523D01*
X278197433Y-118110000D01*
X281242000Y-118110000D01*
X281310121Y-118130002D01*
G37*
%TD.AperFunction*%
%TD*%
%TA.AperFunction,Conductor*%
%TO.N,GND*%
G36*
X227907121Y-195600002D02*
G01*
X227953614Y-195653658D01*
X227965000Y-195706000D01*
X227965000Y-211964000D01*
X227944998Y-212032121D01*
X227891342Y-212078614D01*
X227839000Y-212090000D01*
X223134500Y-212090000D01*
X223066379Y-212069998D01*
X223019886Y-212016342D01*
X223008500Y-211964000D01*
X223008500Y-209008623D01*
X223008502Y-209007853D01*
X223008952Y-208934215D01*
X223008952Y-208934214D01*
X223008976Y-208930279D01*
X223008592Y-208928935D01*
X223008500Y-208927590D01*
X223008500Y-206463487D01*
X222993080Y-206355813D01*
X222932792Y-206223218D01*
X222837713Y-206112873D01*
X222715485Y-206033648D01*
X222575934Y-205991914D01*
X222566958Y-205991859D01*
X222566957Y-205991859D01*
X222505644Y-205991485D01*
X222430279Y-205991024D01*
X222290229Y-206031051D01*
X222167042Y-206108776D01*
X222070622Y-206217951D01*
X222008719Y-206349800D01*
X221991500Y-206460386D01*
X221991500Y-208365500D01*
X221971498Y-208433621D01*
X221917842Y-208480114D01*
X221865500Y-208491500D01*
X137921000Y-208491500D01*
X137852879Y-208471498D01*
X137806386Y-208417842D01*
X137795000Y-208365500D01*
X137795000Y-203326000D01*
X137815002Y-203257879D01*
X137868658Y-203211386D01*
X137921000Y-203200000D01*
X205740000Y-203200000D01*
X212052219Y-195625337D01*
X212111195Y-195585810D01*
X212149015Y-195580000D01*
X227839000Y-195580000D01*
X227907121Y-195600002D01*
G37*
%TD.AperFunction*%
%TD*%
%TA.AperFunction,Conductor*%
%TO.N,GND*%
G36*
X73026041Y-60528502D02*
G01*
X73072534Y-60582158D01*
X73082638Y-60652432D01*
X73064658Y-60697938D01*
X73064576Y-60700069D01*
X73071527Y-60712316D01*
X74987190Y-62627980D01*
X75001131Y-62635592D01*
X75002966Y-62635461D01*
X75009580Y-62631210D01*
X76927074Y-60713716D01*
X76934688Y-60699772D01*
X76934145Y-60692169D01*
X76916387Y-60639447D01*
X76933699Y-60570594D01*
X76985488Y-60522030D01*
X77042290Y-60508500D01*
X162957920Y-60508500D01*
X163026041Y-60528502D01*
X163072534Y-60582158D01*
X163082638Y-60652432D01*
X163064658Y-60697938D01*
X163064576Y-60700069D01*
X163071527Y-60712316D01*
X164987190Y-62627980D01*
X165001131Y-62635592D01*
X165002966Y-62635461D01*
X165009580Y-62631210D01*
X166927074Y-60713716D01*
X166934688Y-60699772D01*
X166934145Y-60692169D01*
X166916387Y-60639447D01*
X166933699Y-60570594D01*
X166985488Y-60522030D01*
X167042290Y-60508500D01*
X192957920Y-60508500D01*
X193026041Y-60528502D01*
X193072534Y-60582158D01*
X193082638Y-60652432D01*
X193064658Y-60697938D01*
X193064576Y-60700069D01*
X193071527Y-60712316D01*
X194987190Y-62627980D01*
X195001131Y-62635592D01*
X195002966Y-62635461D01*
X195009580Y-62631210D01*
X196927074Y-60713716D01*
X196934688Y-60699772D01*
X196934145Y-60692169D01*
X196916387Y-60639447D01*
X196933699Y-60570594D01*
X196985488Y-60522030D01*
X197042290Y-60508500D01*
X282957920Y-60508500D01*
X283026041Y-60528502D01*
X283072534Y-60582158D01*
X283082638Y-60652432D01*
X283064658Y-60697938D01*
X283064576Y-60700069D01*
X283071527Y-60712316D01*
X284987190Y-62627980D01*
X285001131Y-62635592D01*
X285002966Y-62635461D01*
X285009580Y-62631210D01*
X286927074Y-60713716D01*
X286934688Y-60699772D01*
X286934145Y-60692169D01*
X286916387Y-60639447D01*
X286933699Y-60570594D01*
X286985488Y-60522030D01*
X287042290Y-60508500D01*
X289365500Y-60508500D01*
X289433621Y-60528502D01*
X289480114Y-60582158D01*
X289491500Y-60634500D01*
X289491500Y-210059000D01*
X289471498Y-210127121D01*
X289417842Y-210173614D01*
X289365500Y-210185000D01*
X287909999Y-210185000D01*
X287841878Y-210164998D01*
X287795385Y-210111342D01*
X287783999Y-210059000D01*
X287783999Y-209025331D01*
X287783629Y-209018510D01*
X287778105Y-208967648D01*
X287774479Y-208952396D01*
X287729324Y-208831946D01*
X287720786Y-208816351D01*
X287644285Y-208714276D01*
X287631724Y-208701715D01*
X287529649Y-208625214D01*
X287514054Y-208616676D01*
X287393606Y-208571522D01*
X287378351Y-208567895D01*
X287327486Y-208562369D01*
X287320672Y-208562000D01*
X286278115Y-208562000D01*
X286262876Y-208566475D01*
X286261671Y-208567865D01*
X286260000Y-208575548D01*
X286260000Y-210185000D01*
X285752000Y-210185000D01*
X285752000Y-208580116D01*
X285747525Y-208564877D01*
X285746135Y-208563672D01*
X285738452Y-208562001D01*
X284691331Y-208562001D01*
X284684510Y-208562371D01*
X284625793Y-208568748D01*
X284625608Y-208567042D01*
X284564241Y-208563835D01*
X284506599Y-208522386D01*
X284480517Y-208456354D01*
X284480000Y-208444956D01*
X284480000Y-194272670D01*
X285397160Y-194272670D01*
X285402887Y-194280320D01*
X285574042Y-194385205D01*
X285582837Y-194389687D01*
X285792988Y-194476734D01*
X285802373Y-194479783D01*
X286023554Y-194532885D01*
X286033301Y-194534428D01*
X286260070Y-194552275D01*
X286269930Y-194552275D01*
X286496699Y-194534428D01*
X286506446Y-194532885D01*
X286727627Y-194479783D01*
X286737012Y-194476734D01*
X286947163Y-194389687D01*
X286955958Y-194385205D01*
X287123445Y-194282568D01*
X287132907Y-194272110D01*
X287129124Y-194263334D01*
X286277812Y-193412022D01*
X286263868Y-193404408D01*
X286262035Y-193404539D01*
X286255420Y-193408790D01*
X285403920Y-194260290D01*
X285397160Y-194272670D01*
X284480000Y-194272670D01*
X284480000Y-193044930D01*
X284752725Y-193044930D01*
X284770572Y-193271699D01*
X284772115Y-193281446D01*
X284825217Y-193502627D01*
X284828266Y-193512012D01*
X284915313Y-193722163D01*
X284919795Y-193730958D01*
X285022432Y-193898445D01*
X285032890Y-193907907D01*
X285041666Y-193904124D01*
X285892978Y-193052812D01*
X285899356Y-193041132D01*
X286629408Y-193041132D01*
X286629539Y-193042965D01*
X286633790Y-193049580D01*
X287485290Y-193901080D01*
X287497670Y-193907840D01*
X287505320Y-193902113D01*
X287610205Y-193730958D01*
X287614687Y-193722163D01*
X287701734Y-193512012D01*
X287704783Y-193502627D01*
X287757885Y-193281446D01*
X287759428Y-193271699D01*
X287777275Y-193044930D01*
X287777275Y-193035070D01*
X287759428Y-192808301D01*
X287757885Y-192798554D01*
X287704783Y-192577373D01*
X287701734Y-192567988D01*
X287614687Y-192357837D01*
X287610205Y-192349042D01*
X287507568Y-192181555D01*
X287497110Y-192172093D01*
X287488334Y-192175876D01*
X286637022Y-193027188D01*
X286629408Y-193041132D01*
X285899356Y-193041132D01*
X285900592Y-193038868D01*
X285900461Y-193037035D01*
X285896210Y-193030420D01*
X285044710Y-192178920D01*
X285032330Y-192172160D01*
X285024680Y-192177887D01*
X284919795Y-192349042D01*
X284915313Y-192357837D01*
X284828266Y-192567988D01*
X284825217Y-192577373D01*
X284772115Y-192798554D01*
X284770572Y-192808301D01*
X284752725Y-193035070D01*
X284752725Y-193044930D01*
X284480000Y-193044930D01*
X284480000Y-191807890D01*
X285397093Y-191807890D01*
X285400876Y-191816666D01*
X286252188Y-192667978D01*
X286266132Y-192675592D01*
X286267965Y-192675461D01*
X286274580Y-192671210D01*
X287126080Y-191819710D01*
X287132840Y-191807330D01*
X287127113Y-191799680D01*
X286955958Y-191694795D01*
X286947163Y-191690313D01*
X286737012Y-191603266D01*
X286727627Y-191600217D01*
X286506446Y-191547115D01*
X286496699Y-191545572D01*
X286269930Y-191527725D01*
X286260070Y-191527725D01*
X286033301Y-191545572D01*
X286023554Y-191547115D01*
X285802373Y-191600217D01*
X285792988Y-191603266D01*
X285582837Y-191690313D01*
X285574042Y-191694795D01*
X285406555Y-191797432D01*
X285397093Y-191807890D01*
X284480000Y-191807890D01*
X284480000Y-120015000D01*
X284469653Y-119999479D01*
X284469652Y-119999477D01*
X280182423Y-113568635D01*
X280161279Y-113500860D01*
X280180133Y-113432413D01*
X280233000Y-113385025D01*
X280267546Y-113374295D01*
X280276439Y-113372886D01*
X280497627Y-113319783D01*
X280507012Y-113316734D01*
X280717163Y-113229687D01*
X280725958Y-113225205D01*
X280893445Y-113122568D01*
X280902907Y-113112110D01*
X280899124Y-113103334D01*
X279676922Y-111881132D01*
X280399408Y-111881132D01*
X280399539Y-111882965D01*
X280403790Y-111889580D01*
X281255290Y-112741080D01*
X281267670Y-112747840D01*
X281275320Y-112742113D01*
X281380205Y-112570958D01*
X281384687Y-112562163D01*
X281471734Y-112352012D01*
X281474783Y-112342627D01*
X281527885Y-112121446D01*
X281529428Y-112111699D01*
X281547275Y-111884930D01*
X281547275Y-111875070D01*
X281529428Y-111648301D01*
X281527885Y-111638554D01*
X281474783Y-111417373D01*
X281471734Y-111407988D01*
X281384687Y-111197837D01*
X281380205Y-111189042D01*
X281277568Y-111021555D01*
X281267110Y-111012093D01*
X281258334Y-111015876D01*
X280407022Y-111867188D01*
X280399408Y-111881132D01*
X279676922Y-111881132D01*
X278814710Y-111018920D01*
X278802330Y-111012160D01*
X278794680Y-111017887D01*
X278747847Y-111094310D01*
X278695199Y-111141942D01*
X278625158Y-111153548D01*
X278559960Y-111125444D01*
X278535581Y-111098371D01*
X278235260Y-110647890D01*
X279167093Y-110647890D01*
X279170876Y-110656666D01*
X280022188Y-111507978D01*
X280036132Y-111515592D01*
X280037965Y-111515461D01*
X280044580Y-111511210D01*
X280896080Y-110659710D01*
X280902840Y-110647330D01*
X280897113Y-110639680D01*
X280725958Y-110534795D01*
X280717163Y-110530313D01*
X280507012Y-110443266D01*
X280497627Y-110440217D01*
X280276446Y-110387115D01*
X280266699Y-110385572D01*
X280039930Y-110367725D01*
X280030070Y-110367725D01*
X279803301Y-110385572D01*
X279793554Y-110387115D01*
X279572373Y-110440217D01*
X279562988Y-110443266D01*
X279352837Y-110530313D01*
X279344042Y-110534795D01*
X279176555Y-110637432D01*
X279167093Y-110647890D01*
X278235260Y-110647890D01*
X271780000Y-100965000D01*
X263525000Y-92710000D01*
X146685000Y-92710000D01*
X144145000Y-95250000D01*
X89535000Y-95250000D01*
X85090000Y-99695000D01*
X85090000Y-121915726D01*
X85069998Y-121983847D01*
X85016342Y-122030340D01*
X84946068Y-122040444D01*
X84882170Y-122011537D01*
X84832890Y-121969448D01*
X84824899Y-121963643D01*
X84630958Y-121844795D01*
X84622163Y-121840313D01*
X84412012Y-121753266D01*
X84402627Y-121750217D01*
X84181446Y-121697115D01*
X84171699Y-121695572D01*
X83944930Y-121677725D01*
X83935070Y-121677725D01*
X83708301Y-121695572D01*
X83698554Y-121697115D01*
X83477373Y-121750217D01*
X83467988Y-121753266D01*
X83257837Y-121840313D01*
X83249042Y-121844795D01*
X83081555Y-121947432D01*
X83072093Y-121957890D01*
X83075876Y-121966666D01*
X84210115Y-123100905D01*
X84244141Y-123163217D01*
X84239076Y-123234032D01*
X84210115Y-123279095D01*
X83078920Y-124410290D01*
X83072160Y-124422670D01*
X83077887Y-124430320D01*
X83249042Y-124535205D01*
X83257837Y-124539687D01*
X83467988Y-124626734D01*
X83477373Y-124629783D01*
X83698554Y-124682885D01*
X83708301Y-124684428D01*
X83935070Y-124702275D01*
X83944930Y-124702275D01*
X84171699Y-124684428D01*
X84181446Y-124682885D01*
X84402627Y-124629783D01*
X84412012Y-124626734D01*
X84622163Y-124539687D01*
X84630958Y-124535205D01*
X84824899Y-124416357D01*
X84832890Y-124410552D01*
X84882170Y-124368463D01*
X84946960Y-124339432D01*
X85017160Y-124350037D01*
X85070482Y-124396912D01*
X85090000Y-124464274D01*
X85090000Y-168270726D01*
X85069998Y-168338847D01*
X85016342Y-168385340D01*
X84946068Y-168395444D01*
X84882170Y-168366537D01*
X84832890Y-168324448D01*
X84824899Y-168318643D01*
X84630958Y-168199795D01*
X84622163Y-168195313D01*
X84412012Y-168108266D01*
X84402627Y-168105217D01*
X84181446Y-168052115D01*
X84171699Y-168050572D01*
X83944930Y-168032725D01*
X83935070Y-168032725D01*
X83708301Y-168050572D01*
X83698554Y-168052115D01*
X83477373Y-168105217D01*
X83467988Y-168108266D01*
X83257837Y-168195313D01*
X83249042Y-168199795D01*
X83081555Y-168302432D01*
X83072093Y-168312890D01*
X83075876Y-168321666D01*
X84210115Y-169455905D01*
X84244141Y-169518217D01*
X84239076Y-169589032D01*
X84210115Y-169634095D01*
X83078920Y-170765290D01*
X83072160Y-170777670D01*
X83077887Y-170785320D01*
X83249042Y-170890205D01*
X83257837Y-170894687D01*
X83467988Y-170981734D01*
X83477373Y-170984783D01*
X83698554Y-171037885D01*
X83708301Y-171039428D01*
X83935070Y-171057275D01*
X83944930Y-171057275D01*
X84171699Y-171039428D01*
X84181446Y-171037885D01*
X84402627Y-170984783D01*
X84412012Y-170981734D01*
X84622163Y-170894687D01*
X84630958Y-170890205D01*
X84824899Y-170771357D01*
X84832890Y-170765552D01*
X84882170Y-170723463D01*
X84946960Y-170694432D01*
X85017160Y-170705037D01*
X85070482Y-170751912D01*
X85090000Y-170819274D01*
X85090000Y-186637810D01*
X85069998Y-186705931D01*
X85053095Y-186726905D01*
X76871905Y-194908095D01*
X76809593Y-194942121D01*
X76782810Y-194945000D01*
X70634500Y-194945000D01*
X70566379Y-194924998D01*
X70519886Y-194871342D01*
X70508500Y-194819000D01*
X70508500Y-169549930D01*
X82427725Y-169549930D01*
X82445572Y-169776699D01*
X82447115Y-169786446D01*
X82500217Y-170007627D01*
X82503266Y-170017012D01*
X82590313Y-170227163D01*
X82594795Y-170235958D01*
X82697432Y-170403445D01*
X82707890Y-170412907D01*
X82716666Y-170409124D01*
X83567978Y-169557812D01*
X83575592Y-169543868D01*
X83575461Y-169542035D01*
X83571210Y-169535420D01*
X82719710Y-168683920D01*
X82707330Y-168677160D01*
X82699680Y-168682887D01*
X82594795Y-168854042D01*
X82590313Y-168862837D01*
X82503266Y-169072988D01*
X82500217Y-169082373D01*
X82447115Y-169303554D01*
X82445572Y-169313301D01*
X82427725Y-169540070D01*
X82427725Y-169549930D01*
X70508500Y-169549930D01*
X70508500Y-123194930D01*
X82427725Y-123194930D01*
X82445572Y-123421699D01*
X82447115Y-123431446D01*
X82500217Y-123652627D01*
X82503266Y-123662012D01*
X82590313Y-123872163D01*
X82594795Y-123880958D01*
X82697432Y-124048445D01*
X82707890Y-124057907D01*
X82716666Y-124054124D01*
X83567978Y-123202812D01*
X83575592Y-123188868D01*
X83575461Y-123187035D01*
X83571210Y-123180420D01*
X82719710Y-122328920D01*
X82707330Y-122322160D01*
X82699680Y-122327887D01*
X82594795Y-122499042D01*
X82590313Y-122507837D01*
X82503266Y-122717988D01*
X82500217Y-122727373D01*
X82447115Y-122948554D01*
X82445572Y-122958301D01*
X82427725Y-123185070D01*
X82427725Y-123194930D01*
X70508500Y-123194930D01*
X70508500Y-65301681D01*
X73063860Y-65301681D01*
X73063878Y-65301933D01*
X73069793Y-65310677D01*
X73101111Y-65339174D01*
X73106748Y-65343738D01*
X73382544Y-65541918D01*
X73388682Y-65545813D01*
X73685435Y-65710984D01*
X73691955Y-65714136D01*
X74005738Y-65844109D01*
X74012589Y-65846495D01*
X74339212Y-65939536D01*
X74346301Y-65941120D01*
X74681465Y-65996006D01*
X74688671Y-65996763D01*
X75027926Y-66012762D01*
X75035176Y-66012686D01*
X75374010Y-65989587D01*
X75381219Y-65988676D01*
X75715160Y-65926784D01*
X75722190Y-65925057D01*
X76046819Y-65825187D01*
X76053597Y-65822667D01*
X76364603Y-65686145D01*
X76371043Y-65682864D01*
X76664293Y-65511502D01*
X76670326Y-65507493D01*
X76928828Y-65313405D01*
X76937282Y-65302078D01*
X76937065Y-65301681D01*
X163063860Y-65301681D01*
X163063878Y-65301933D01*
X163069793Y-65310677D01*
X163101111Y-65339174D01*
X163106748Y-65343738D01*
X163382544Y-65541918D01*
X163388682Y-65545813D01*
X163685435Y-65710984D01*
X163691955Y-65714136D01*
X164005738Y-65844109D01*
X164012589Y-65846495D01*
X164339212Y-65939536D01*
X164346301Y-65941120D01*
X164681465Y-65996006D01*
X164688671Y-65996763D01*
X165027926Y-66012762D01*
X165035176Y-66012686D01*
X165374010Y-65989587D01*
X165381219Y-65988676D01*
X165715160Y-65926784D01*
X165722190Y-65925057D01*
X166046819Y-65825187D01*
X166053597Y-65822667D01*
X166364603Y-65686145D01*
X166371043Y-65682864D01*
X166664293Y-65511502D01*
X166670326Y-65507493D01*
X166928828Y-65313405D01*
X166937282Y-65302078D01*
X166937065Y-65301681D01*
X193063860Y-65301681D01*
X193063878Y-65301933D01*
X193069793Y-65310677D01*
X193101111Y-65339174D01*
X193106748Y-65343738D01*
X193382544Y-65541918D01*
X193388682Y-65545813D01*
X193685435Y-65710984D01*
X193691955Y-65714136D01*
X194005738Y-65844109D01*
X194012589Y-65846495D01*
X194339212Y-65939536D01*
X194346301Y-65941120D01*
X194681465Y-65996006D01*
X194688671Y-65996763D01*
X195027926Y-66012762D01*
X195035176Y-66012686D01*
X195374010Y-65989587D01*
X195381219Y-65988676D01*
X195715160Y-65926784D01*
X195722190Y-65925057D01*
X196046819Y-65825187D01*
X196053597Y-65822667D01*
X196364603Y-65686145D01*
X196371043Y-65682864D01*
X196664293Y-65511502D01*
X196670326Y-65507493D01*
X196928828Y-65313405D01*
X196937282Y-65302078D01*
X196937065Y-65301681D01*
X283063860Y-65301681D01*
X283063878Y-65301933D01*
X283069793Y-65310677D01*
X283101111Y-65339174D01*
X283106748Y-65343738D01*
X283382544Y-65541918D01*
X283388682Y-65545813D01*
X283685435Y-65710984D01*
X283691955Y-65714136D01*
X284005738Y-65844109D01*
X284012589Y-65846495D01*
X284339212Y-65939536D01*
X284346301Y-65941120D01*
X284681465Y-65996006D01*
X284688671Y-65996763D01*
X285027926Y-66012762D01*
X285035176Y-66012686D01*
X285374010Y-65989587D01*
X285381219Y-65988676D01*
X285715160Y-65926784D01*
X285722190Y-65925057D01*
X286046819Y-65825187D01*
X286053597Y-65822667D01*
X286364603Y-65686145D01*
X286371043Y-65682864D01*
X286664293Y-65511502D01*
X286670326Y-65507493D01*
X286928828Y-65313405D01*
X286937282Y-65302078D01*
X286930537Y-65289748D01*
X285012810Y-63372020D01*
X284998869Y-63364408D01*
X284997034Y-63364539D01*
X284990420Y-63368790D01*
X283071474Y-65287737D01*
X283063860Y-65301681D01*
X196937065Y-65301681D01*
X196930537Y-65289748D01*
X195012810Y-63372020D01*
X194998869Y-63364408D01*
X194997034Y-63364539D01*
X194990420Y-63368790D01*
X193071474Y-65287737D01*
X193063860Y-65301681D01*
X166937065Y-65301681D01*
X166930537Y-65289748D01*
X165012810Y-63372020D01*
X164998869Y-63364408D01*
X164997034Y-63364539D01*
X164990420Y-63368790D01*
X163071474Y-65287737D01*
X163063860Y-65301681D01*
X76937065Y-65301681D01*
X76930537Y-65289748D01*
X75012810Y-63372020D01*
X74998869Y-63364408D01*
X74997034Y-63364539D01*
X74990420Y-63368790D01*
X73071474Y-65287737D01*
X73063860Y-65301681D01*
X70508500Y-65301681D01*
X70508500Y-62908987D01*
X71988484Y-62908987D01*
X71997374Y-63248505D01*
X71997980Y-63255721D01*
X72045835Y-63591963D01*
X72047269Y-63599074D01*
X72133455Y-63927595D01*
X72135692Y-63934478D01*
X72259064Y-64250914D01*
X72262081Y-64257503D01*
X72421002Y-64557652D01*
X72424761Y-64563860D01*
X72617129Y-64843757D01*
X72621574Y-64849486D01*
X72688743Y-64926484D01*
X72701917Y-64934888D01*
X72711769Y-64929020D01*
X74627980Y-63012810D01*
X74634357Y-63001131D01*
X75364408Y-63001131D01*
X75364539Y-63002966D01*
X75368790Y-63009580D01*
X77286268Y-64927057D01*
X77299622Y-64934349D01*
X77309594Y-64927295D01*
X77416641Y-64799267D01*
X77420957Y-64793456D01*
X77607432Y-64509575D01*
X77611046Y-64503313D01*
X77763658Y-64199882D01*
X77766530Y-64193244D01*
X77883249Y-63874293D01*
X77885345Y-63867351D01*
X77964631Y-63537103D01*
X77965915Y-63529964D01*
X78006816Y-63191973D01*
X78007240Y-63186403D01*
X78013010Y-63002797D01*
X78012937Y-62997204D01*
X78007850Y-62908987D01*
X161988484Y-62908987D01*
X161997374Y-63248505D01*
X161997980Y-63255721D01*
X162045835Y-63591963D01*
X162047269Y-63599074D01*
X162133455Y-63927595D01*
X162135692Y-63934478D01*
X162259064Y-64250914D01*
X162262081Y-64257503D01*
X162421002Y-64557652D01*
X162424761Y-64563860D01*
X162617129Y-64843757D01*
X162621574Y-64849486D01*
X162688743Y-64926484D01*
X162701917Y-64934888D01*
X162711769Y-64929020D01*
X164627980Y-63012810D01*
X164634357Y-63001131D01*
X165364408Y-63001131D01*
X165364539Y-63002966D01*
X165368790Y-63009580D01*
X167286268Y-64927057D01*
X167299622Y-64934349D01*
X167309594Y-64927295D01*
X167416641Y-64799267D01*
X167420957Y-64793456D01*
X167607432Y-64509575D01*
X167611046Y-64503313D01*
X167763658Y-64199882D01*
X167766530Y-64193244D01*
X167883249Y-63874293D01*
X167885345Y-63867351D01*
X167964631Y-63537103D01*
X167965915Y-63529964D01*
X168006816Y-63191973D01*
X168007240Y-63186403D01*
X168013010Y-63002797D01*
X168012937Y-62997204D01*
X168007850Y-62908987D01*
X191988484Y-62908987D01*
X191997374Y-63248505D01*
X191997980Y-63255721D01*
X192045835Y-63591963D01*
X192047269Y-63599074D01*
X192133455Y-63927595D01*
X192135692Y-63934478D01*
X192259064Y-64250914D01*
X192262081Y-64257503D01*
X192421002Y-64557652D01*
X192424761Y-64563860D01*
X192617129Y-64843757D01*
X192621574Y-64849486D01*
X192688743Y-64926484D01*
X192701917Y-64934888D01*
X192711769Y-64929020D01*
X194627980Y-63012810D01*
X194634357Y-63001131D01*
X195364408Y-63001131D01*
X195364539Y-63002966D01*
X195368790Y-63009580D01*
X197286268Y-64927057D01*
X197299622Y-64934349D01*
X197309594Y-64927295D01*
X197416641Y-64799267D01*
X197420957Y-64793456D01*
X197607432Y-64509575D01*
X197611046Y-64503313D01*
X197763658Y-64199882D01*
X197766530Y-64193244D01*
X197883249Y-63874293D01*
X197885345Y-63867351D01*
X197964631Y-63537103D01*
X197965915Y-63529964D01*
X198006816Y-63191973D01*
X198007240Y-63186403D01*
X198013010Y-63002797D01*
X198012937Y-62997204D01*
X198007850Y-62908987D01*
X281988484Y-62908987D01*
X281997374Y-63248505D01*
X281997980Y-63255721D01*
X282045835Y-63591963D01*
X282047269Y-63599074D01*
X282133455Y-63927595D01*
X282135692Y-63934478D01*
X282259064Y-64250914D01*
X282262081Y-64257503D01*
X282421002Y-64557652D01*
X282424761Y-64563860D01*
X282617129Y-64843757D01*
X282621574Y-64849486D01*
X282688743Y-64926484D01*
X282701917Y-64934888D01*
X282711769Y-64929020D01*
X284627980Y-63012810D01*
X284634357Y-63001131D01*
X285364408Y-63001131D01*
X285364539Y-63002966D01*
X285368790Y-63009580D01*
X287286268Y-64927057D01*
X287299622Y-64934349D01*
X287309594Y-64927295D01*
X287416641Y-64799267D01*
X287420957Y-64793456D01*
X287607432Y-64509575D01*
X287611046Y-64503313D01*
X287763658Y-64199882D01*
X287766530Y-64193244D01*
X287883249Y-63874293D01*
X287885345Y-63867351D01*
X287964631Y-63537103D01*
X287965915Y-63529964D01*
X288006816Y-63191973D01*
X288007240Y-63186403D01*
X288013010Y-63002797D01*
X288012937Y-62997204D01*
X287993338Y-62657303D01*
X287992506Y-62650113D01*
X287934113Y-62315529D01*
X287932458Y-62308474D01*
X287835998Y-61982834D01*
X287833540Y-61976006D01*
X287700290Y-61663608D01*
X287697073Y-61657125D01*
X287528788Y-61362089D01*
X287524856Y-61356034D01*
X287323774Y-61082295D01*
X287319166Y-61076726D01*
X287313830Y-61070984D01*
X287300178Y-61062866D01*
X287299570Y-61062887D01*
X287291092Y-61068119D01*
X285372020Y-62987190D01*
X285364408Y-63001131D01*
X284634357Y-63001131D01*
X284635592Y-62998869D01*
X284635461Y-62997034D01*
X284631210Y-62990420D01*
X282712374Y-61071585D01*
X282699581Y-61064599D01*
X282688827Y-61072464D01*
X282528037Y-61277527D01*
X282523902Y-61283476D01*
X282346440Y-61573068D01*
X282343019Y-61579447D01*
X282200016Y-61887522D01*
X282197356Y-61894241D01*
X282090711Y-62216707D01*
X282088834Y-62223711D01*
X282019961Y-62556288D01*
X282018904Y-62563449D01*
X281988712Y-62901735D01*
X281988484Y-62908987D01*
X198007850Y-62908987D01*
X197993338Y-62657303D01*
X197992506Y-62650113D01*
X197934113Y-62315529D01*
X197932458Y-62308474D01*
X197835998Y-61982834D01*
X197833540Y-61976006D01*
X197700290Y-61663608D01*
X197697073Y-61657125D01*
X197528788Y-61362089D01*
X197524856Y-61356034D01*
X197323774Y-61082295D01*
X197319166Y-61076726D01*
X197313830Y-61070984D01*
X197300178Y-61062866D01*
X197299570Y-61062887D01*
X197291092Y-61068119D01*
X195372020Y-62987190D01*
X195364408Y-63001131D01*
X194634357Y-63001131D01*
X194635592Y-62998869D01*
X194635461Y-62997034D01*
X194631210Y-62990420D01*
X192712374Y-61071585D01*
X192699581Y-61064599D01*
X192688827Y-61072464D01*
X192528037Y-61277527D01*
X192523902Y-61283476D01*
X192346440Y-61573068D01*
X192343019Y-61579447D01*
X192200016Y-61887522D01*
X192197356Y-61894241D01*
X192090711Y-62216707D01*
X192088834Y-62223711D01*
X192019961Y-62556288D01*
X192018904Y-62563449D01*
X191988712Y-62901735D01*
X191988484Y-62908987D01*
X168007850Y-62908987D01*
X167993338Y-62657303D01*
X167992506Y-62650113D01*
X167934113Y-62315529D01*
X167932458Y-62308474D01*
X167835998Y-61982834D01*
X167833540Y-61976006D01*
X167700290Y-61663608D01*
X167697073Y-61657125D01*
X167528788Y-61362089D01*
X167524856Y-61356034D01*
X167323774Y-61082295D01*
X167319166Y-61076726D01*
X167313830Y-61070984D01*
X167300178Y-61062866D01*
X167299570Y-61062887D01*
X167291092Y-61068119D01*
X165372020Y-62987190D01*
X165364408Y-63001131D01*
X164634357Y-63001131D01*
X164635592Y-62998869D01*
X164635461Y-62997034D01*
X164631210Y-62990420D01*
X162712374Y-61071585D01*
X162699581Y-61064599D01*
X162688827Y-61072464D01*
X162528037Y-61277527D01*
X162523902Y-61283476D01*
X162346440Y-61573068D01*
X162343019Y-61579447D01*
X162200016Y-61887522D01*
X162197356Y-61894241D01*
X162090711Y-62216707D01*
X162088834Y-62223711D01*
X162019961Y-62556288D01*
X162018904Y-62563449D01*
X161988712Y-62901735D01*
X161988484Y-62908987D01*
X78007850Y-62908987D01*
X77993338Y-62657303D01*
X77992506Y-62650113D01*
X77934113Y-62315529D01*
X77932458Y-62308474D01*
X77835998Y-61982834D01*
X77833540Y-61976006D01*
X77700290Y-61663608D01*
X77697073Y-61657125D01*
X77528788Y-61362089D01*
X77524856Y-61356034D01*
X77323774Y-61082295D01*
X77319166Y-61076726D01*
X77313830Y-61070984D01*
X77300178Y-61062866D01*
X77299570Y-61062887D01*
X77291092Y-61068119D01*
X75372020Y-62987190D01*
X75364408Y-63001131D01*
X74634357Y-63001131D01*
X74635592Y-62998869D01*
X74635461Y-62997034D01*
X74631210Y-62990420D01*
X72712374Y-61071585D01*
X72699581Y-61064599D01*
X72688827Y-61072464D01*
X72528037Y-61277527D01*
X72523902Y-61283476D01*
X72346440Y-61573068D01*
X72343019Y-61579447D01*
X72200016Y-61887522D01*
X72197356Y-61894241D01*
X72090711Y-62216707D01*
X72088834Y-62223711D01*
X72019961Y-62556288D01*
X72018904Y-62563449D01*
X71988712Y-62901735D01*
X71988484Y-62908987D01*
X70508500Y-62908987D01*
X70508500Y-60634500D01*
X70528502Y-60566379D01*
X70582158Y-60519886D01*
X70634500Y-60508500D01*
X72957920Y-60508500D01*
X73026041Y-60528502D01*
G37*
%TD.AperFunction*%
%TD*%
M02*
