%TF.GenerationSoftware,KiCad,Pcbnew,(6.0.4-0)*%
%TF.CreationDate,2024-04-14T14:55:46+10:00*%
%TF.ProjectId,Input:Output Interface,496e7075-743a-44f7-9574-70757420496e,rev?*%
%TF.SameCoordinates,Original*%
%TF.FileFunction,Soldermask,Top*%
%TF.FilePolarity,Negative*%
%FSLAX46Y46*%
G04 Gerber Fmt 4.6, Leading zero omitted, Abs format (unit mm)*
G04 Created by KiCad (PCBNEW (6.0.4-0)) date 2024-04-14 14:55:46*
%MOMM*%
%LPD*%
G01*
G04 APERTURE LIST*
%ADD10R,1.600000X1.600000*%
%ADD11O,1.600000X1.600000*%
%ADD12C,2.000000*%
%ADD13C,1.600000*%
%ADD14C,5.000000*%
%ADD15R,1.700000X1.700000*%
%ADD16O,1.700000X1.700000*%
G04 APERTURE END LIST*
D10*
%TO.C,U2*%
X145620000Y-119740000D03*
D11*
X145620000Y-117200000D03*
X145620000Y-114660000D03*
X145620000Y-112120000D03*
X145620000Y-109580000D03*
X145620000Y-107040000D03*
X145620000Y-104500000D03*
X138000000Y-104500000D03*
X138000000Y-107040000D03*
X138000000Y-109580000D03*
X138000000Y-112120000D03*
X138000000Y-114660000D03*
X138000000Y-117200000D03*
X138000000Y-119740000D03*
%TD*%
D10*
%TO.C,U3*%
X183120000Y-119740000D03*
D11*
X183120000Y-117200000D03*
X183120000Y-114660000D03*
X183120000Y-112120000D03*
X183120000Y-109580000D03*
X183120000Y-107040000D03*
X183120000Y-104500000D03*
X175500000Y-104500000D03*
X175500000Y-107040000D03*
X175500000Y-109580000D03*
X175500000Y-112120000D03*
X175500000Y-114660000D03*
X175500000Y-117200000D03*
X175500000Y-119740000D03*
%TD*%
D10*
%TO.C,U4*%
X220620000Y-119740000D03*
D11*
X220620000Y-117200000D03*
X220620000Y-114660000D03*
X220620000Y-112120000D03*
X220620000Y-109580000D03*
X220620000Y-107040000D03*
X220620000Y-104500000D03*
X213000000Y-104500000D03*
X213000000Y-107040000D03*
X213000000Y-109580000D03*
X213000000Y-112120000D03*
X213000000Y-114660000D03*
X213000000Y-117200000D03*
X213000000Y-119740000D03*
%TD*%
D10*
%TO.C,U5*%
X255620000Y-119740000D03*
D11*
X255620000Y-117200000D03*
X255620000Y-114660000D03*
X255620000Y-112120000D03*
X255620000Y-109580000D03*
X255620000Y-107040000D03*
X255620000Y-104500000D03*
X248000000Y-104500000D03*
X248000000Y-107040000D03*
X248000000Y-109580000D03*
X248000000Y-112120000D03*
X248000000Y-114660000D03*
X248000000Y-117200000D03*
X248000000Y-119740000D03*
%TD*%
D10*
%TO.C,U8*%
X183120000Y-166740000D03*
D11*
X183120000Y-164200000D03*
X183120000Y-161660000D03*
X183120000Y-159120000D03*
X183120000Y-156580000D03*
X183120000Y-154040000D03*
X183120000Y-151500000D03*
X175500000Y-151500000D03*
X175500000Y-154040000D03*
X175500000Y-156580000D03*
X175500000Y-159120000D03*
X175500000Y-161660000D03*
X175500000Y-164200000D03*
X175500000Y-166740000D03*
%TD*%
D10*
%TO.C,U10*%
X255620000Y-166740000D03*
D11*
X255620000Y-164200000D03*
X255620000Y-161660000D03*
X255620000Y-159120000D03*
X255620000Y-156580000D03*
X255620000Y-154040000D03*
X255620000Y-151500000D03*
X248000000Y-151500000D03*
X248000000Y-154040000D03*
X248000000Y-156580000D03*
X248000000Y-159120000D03*
X248000000Y-161660000D03*
X248000000Y-164200000D03*
X248000000Y-166740000D03*
%TD*%
D10*
%TO.C,U11*%
X167880000Y-196800000D03*
D11*
X170420000Y-196800000D03*
X172960000Y-196800000D03*
X175500000Y-196800000D03*
X178040000Y-196800000D03*
X180580000Y-196800000D03*
X183120000Y-196800000D03*
X183120000Y-189180000D03*
X180580000Y-189180000D03*
X178040000Y-189180000D03*
X175500000Y-189180000D03*
X172960000Y-189180000D03*
X170420000Y-189180000D03*
X167880000Y-189180000D03*
%TD*%
D10*
%TO.C,U1*%
X110620000Y-119740000D03*
D11*
X110620000Y-117200000D03*
X110620000Y-114660000D03*
X110620000Y-112120000D03*
X110620000Y-109580000D03*
X110620000Y-107040000D03*
X110620000Y-104500000D03*
X103000000Y-104500000D03*
X103000000Y-107040000D03*
X103000000Y-109580000D03*
X103000000Y-112120000D03*
X103000000Y-114660000D03*
X103000000Y-117200000D03*
X103000000Y-119740000D03*
%TD*%
D10*
%TO.C,U6*%
X110620000Y-166740000D03*
D11*
X110620000Y-164200000D03*
X110620000Y-161660000D03*
X110620000Y-159120000D03*
X110620000Y-156580000D03*
X110620000Y-154040000D03*
X110620000Y-151500000D03*
X103000000Y-151500000D03*
X103000000Y-154040000D03*
X103000000Y-156580000D03*
X103000000Y-159120000D03*
X103000000Y-161660000D03*
X103000000Y-164200000D03*
X103000000Y-166740000D03*
%TD*%
D10*
%TO.C,U9*%
X220620000Y-166740000D03*
D11*
X220620000Y-164200000D03*
X220620000Y-161660000D03*
X220620000Y-159120000D03*
X220620000Y-156580000D03*
X220620000Y-154040000D03*
X220620000Y-151500000D03*
X213000000Y-151500000D03*
X213000000Y-154040000D03*
X213000000Y-156580000D03*
X213000000Y-159120000D03*
X213000000Y-161660000D03*
X213000000Y-164200000D03*
X213000000Y-166740000D03*
%TD*%
D10*
%TO.C,U7*%
X145620000Y-166740000D03*
D11*
X145620000Y-164200000D03*
X145620000Y-161660000D03*
X145620000Y-159120000D03*
X145620000Y-156580000D03*
X145620000Y-154040000D03*
X145620000Y-151500000D03*
X138000000Y-151500000D03*
X138000000Y-154040000D03*
X138000000Y-156580000D03*
X138000000Y-159120000D03*
X138000000Y-161660000D03*
X138000000Y-164200000D03*
X138000000Y-166740000D03*
%TD*%
D12*
%TO.C,C1*%
X91440000Y-123190000D03*
X83940000Y-123190000D03*
%TD*%
%TO.C,C2*%
X91440000Y-169545000D03*
X83940000Y-169545000D03*
%TD*%
%TO.C,C3*%
X280035000Y-119380000D03*
X280035000Y-111880000D03*
%TD*%
%TO.C,C4*%
X278765000Y-193040000D03*
X286265000Y-193040000D03*
%TD*%
D13*
%TO.C,R1*%
X170500000Y-169360000D03*
D11*
X170500000Y-159200000D03*
%TD*%
D13*
%TO.C,R2*%
X244475000Y-169545000D03*
D11*
X244475000Y-159385000D03*
%TD*%
D13*
%TO.C,R3*%
X248920000Y-172720000D03*
D11*
X248920000Y-182880000D03*
%TD*%
D13*
%TO.C,R4*%
X278130000Y-135890000D03*
D11*
X267970000Y-135890000D03*
%TD*%
D14*
%TO.C,H1*%
X75000000Y-63000000D03*
X165000000Y-63000000D03*
%TD*%
%TO.C,H2*%
X195000000Y-63000000D03*
X285000000Y-63000000D03*
%TD*%
D15*
%TO.C,J1*%
X110744000Y-172212000D03*
D16*
X108204000Y-172212000D03*
X105664000Y-172212000D03*
%TD*%
D15*
%TO.C,J2*%
X144780000Y-172212000D03*
D16*
X142240000Y-172212000D03*
X139700000Y-172212000D03*
%TD*%
M02*
