M48
; DRILL file {KiCad (6.0.4-0)} date Sunday, 14 April 2024 at 02:55:49 pm
; FORMAT={-:-/ absolute / inch / decimal}
; #@! TF.CreationDate,2024-04-14T14:55:49+10:00
; #@! TF.GenerationSoftware,Kicad,Pcbnew,(6.0.4-0)
; #@! TF.FileFunction,Plated,1,2,PTH
FMAT,2
INCH
; #@! TA.AperFunction,Plated,PTH,ViaDrill
T1C0.0276
; #@! TA.AperFunction,Plated,PTH,ViaDrill
T2C0.0315
; #@! TA.AperFunction,Plated,PTH,ComponentDrill
T3C0.0315
; #@! TA.AperFunction,Plated,PTH,ComponentDrill
T4C0.0394
; #@! TA.AperFunction,Plated,PTH,ComponentDrill
T5C0.1260
%
G90
G05
T1
X3.225Y-7.775
X3.38Y-7.925
X3.6Y-6.95
X3.8Y-7.05
X3.925Y-7.325
X4.05Y-6.95
X4.05Y-7.125
X4.15Y-5.05
X4.22Y-5.14
X4.36Y-6.88
X4.45Y-5.45
X4.475Y-7.05
X4.65Y-7.225
X4.78Y-5.2
X4.79Y-5.35
X5.0Y-5.65
X5.1Y-7.6
X5.375Y-7.05
X5.5Y-6.94
X5.6Y-5.2
X5.625Y-5.65
X5.7Y-6.88
X5.98Y-4.42
X5.9809Y-4.5114
X6.15Y-7.6
X6.15Y-7.775
X6.35Y-5.35
X6.45Y-7.05
X6.5945Y-4.4213
X6.5945Y-4.5118
X6.725Y-7.225
X7.125Y-7.3
X7.3346Y-4.4134
X7.3346Y-4.6575
X7.425Y-5.45
X7.55Y-7.05
X7.8Y-7.925
X7.82Y-5.14
X8.025Y-7.125
X8.5Y-5.55
X8.575Y-5.4
X8.7Y-5.05
X8.84Y-6.88
X8.9Y-4.72
X9.02Y-5.06
X9.1Y-5.65
X9.2Y-7.6
X9.48Y-4.72
X9.5591Y-7.0472
X9.6Y-5.4
X9.7Y-7.6
X9.85Y-4.95
X10.15Y-5.55
X10.2Y-5.06
X10.2Y-7.075
X10.3821Y-4.9495
X10.75Y-7.075
T2
X3.25Y-4.0
X4.05Y-4.85
X4.05Y-6.675
X4.375Y-4.0
X4.425Y-5.85
X5.325Y-6.675
X5.425Y-4.85
X5.7323Y-4.0
X5.7323Y-5.8504
X6.875Y-6.675
X6.9094Y-4.8465
X7.2087Y-4.0
X7.2087Y-5.85
X8.375Y-4.85
X8.3858Y-6.675
X8.685Y-5.85
X8.725Y-4.0
X8.875Y-7.875
X9.75Y-4.85
X9.8Y-6.675
X10.063Y-5.85
X10.1Y-4.0
X11.025Y-4.85
X11.025Y-6.675
X11.2601Y-5.8649
X11.2601Y-7.8899
X11.275Y-4.0
T3
X4.0551Y-4.1142
X4.0551Y-4.2142
X4.0551Y-4.3142
X4.0551Y-4.4142
X4.0551Y-4.5142
X4.0551Y-4.6142
X4.0551Y-4.7142
X4.0551Y-5.9646
X4.0551Y-6.0646
X4.0551Y-6.1646
X4.0551Y-6.2646
X4.0551Y-6.3646
X4.0551Y-6.4646
X4.0551Y-6.5646
X4.3551Y-4.1142
X4.3551Y-4.2142
X4.3551Y-4.3142
X4.3551Y-4.4142
X4.3551Y-4.5142
X4.3551Y-4.6142
X4.3551Y-4.7142
X4.3551Y-5.9646
X4.3551Y-6.0646
X4.3551Y-6.1646
X4.3551Y-6.2646
X4.3551Y-6.3646
X4.3551Y-6.4646
X4.3551Y-6.5646
X5.4331Y-4.1142
X5.4331Y-4.2142
X5.4331Y-4.3142
X5.4331Y-4.4142
X5.4331Y-4.5142
X5.4331Y-4.6142
X5.4331Y-4.7142
X5.4331Y-5.9646
X5.4331Y-6.0646
X5.4331Y-6.1646
X5.4331Y-6.2646
X5.4331Y-6.3646
X5.4331Y-6.4646
X5.4331Y-6.5646
X5.7331Y-4.1142
X5.7331Y-4.2142
X5.7331Y-4.3142
X5.7331Y-4.4142
X5.7331Y-4.5142
X5.7331Y-4.6142
X5.7331Y-4.7142
X5.7331Y-5.9646
X5.7331Y-6.0646
X5.7331Y-6.1646
X5.7331Y-6.2646
X5.7331Y-6.3646
X5.7331Y-6.4646
X5.7331Y-6.5646
X6.6094Y-7.448
X6.6094Y-7.748
X6.7094Y-7.448
X6.7094Y-7.748
X6.7126Y-6.2677
X6.7126Y-6.6677
X6.8094Y-7.448
X6.8094Y-7.748
X6.9094Y-4.1142
X6.9094Y-4.2142
X6.9094Y-4.3142
X6.9094Y-4.4142
X6.9094Y-4.5142
X6.9094Y-4.6142
X6.9094Y-4.7142
X6.9094Y-5.9646
X6.9094Y-6.0646
X6.9094Y-6.1646
X6.9094Y-6.2646
X6.9094Y-6.3646
X6.9094Y-6.4646
X6.9094Y-6.5646
X6.9094Y-7.448
X6.9094Y-7.748
X7.0094Y-7.448
X7.0094Y-7.748
X7.1094Y-7.448
X7.1094Y-7.748
X7.2094Y-4.1142
X7.2094Y-4.2142
X7.2094Y-4.3142
X7.2094Y-4.4142
X7.2094Y-4.5142
X7.2094Y-4.6142
X7.2094Y-4.7142
X7.2094Y-5.9646
X7.2094Y-6.0646
X7.2094Y-6.1646
X7.2094Y-6.2646
X7.2094Y-6.3646
X7.2094Y-6.4646
X7.2094Y-6.5646
X7.2094Y-7.448
X7.2094Y-7.748
X8.3858Y-4.1142
X8.3858Y-4.2142
X8.3858Y-4.3142
X8.3858Y-4.4142
X8.3858Y-4.5142
X8.3858Y-4.6142
X8.3858Y-4.7142
X8.3858Y-5.9646
X8.3858Y-6.0646
X8.3858Y-6.1646
X8.3858Y-6.2646
X8.3858Y-6.3646
X8.3858Y-6.4646
X8.3858Y-6.5646
X8.6858Y-4.1142
X8.6858Y-4.2142
X8.6858Y-4.3142
X8.6858Y-4.4142
X8.6858Y-4.5142
X8.6858Y-4.6142
X8.6858Y-4.7142
X8.6858Y-5.9646
X8.6858Y-6.0646
X8.6858Y-6.1646
X8.6858Y-6.2646
X8.6858Y-6.3646
X8.6858Y-6.4646
X8.6858Y-6.5646
X9.625Y-6.275
X9.625Y-6.675
X9.7638Y-4.1142
X9.7638Y-4.2142
X9.7638Y-4.3142
X9.7638Y-4.4142
X9.7638Y-4.5142
X9.7638Y-4.6142
X9.7638Y-4.7142
X9.7638Y-5.9646
X9.7638Y-6.0646
X9.7638Y-6.1646
X9.7638Y-6.2646
X9.7638Y-6.3646
X9.7638Y-6.4646
X9.7638Y-6.5646
X9.8Y-6.8
X9.8Y-7.2
X10.0638Y-4.1142
X10.0638Y-4.2142
X10.0638Y-4.3142
X10.0638Y-4.4142
X10.0638Y-4.5142
X10.0638Y-4.6142
X10.0638Y-4.7142
X10.0638Y-5.9646
X10.0638Y-6.0646
X10.0638Y-6.1646
X10.0638Y-6.2646
X10.0638Y-6.3646
X10.0638Y-6.4646
X10.0638Y-6.5646
X10.55Y-5.35
X10.95Y-5.35
T4
X3.3047Y-4.85
X3.3047Y-6.675
X3.6Y-4.85
X3.6Y-6.675
X4.16Y-6.78
X4.26Y-6.78
X4.36Y-6.78
X5.5Y-6.78
X5.6Y-6.78
X5.7Y-6.78
X10.975Y-7.6
X11.025Y-4.4047
X11.025Y-4.7
X11.2703Y-7.6
T5
X2.9528Y-2.4803
X6.4961Y-2.4803
X7.6772Y-2.4803
X11.2205Y-2.4803
T0
M30
