  0
SECTION
  2
HEADER
  9
$ANGBASE
  50
0.0
  9
$ANGDIR
  70
1
  9
$MEASUREMENT
  70
0
  0
ENDSEC
  0
SECTION
  2
TABLES
  0
TABLE
  2
LTYPE
  70
4
  0
LTYPE
  5
40F
  2
CONTINUOUS
  70
0
  3
Solid line
  72
65
  73
0
  40
0.0
  0
LTYPE
  5
410
  2
DASHDOT
 70
0
  3
Dash Dot ____ _ ____ _
 72
65
 73
4
 40
2.0
 49
1.25
 49
-0.25
 49
0.25
 49
-0.25
  0
LTYPE
  5
411
  2
DASHED
 70
0
  3
Dashed __ __ __ __ __
 72
65
 73
2
 40
0.75
 49
0.5
 49
-0.25
  0
LTYPE
  5
43B
  2
DOTTED
 70
0
  3
Dotted .  .  .  .
 72
65
 73
2
 40
0.2
 49
0.0
 49
-0.2
  0
ENDTAB
  0
TABLE
  2
STYLE
  70
4
  0
STYLE
  2
KICAD
  70
0
  40
0
  41
1
  42
1
  50
0
  71
0
  3
isocp.shx
  0
STYLE
  2
KICADB
  70
0
  40
0
  41
1
  42
1
  50
0
  71
0
  3
isocp.shx
  0
STYLE
  2
KICADI
  70
0
  40
0
  41
1
  42
1
  50
15
  71
0
  3
isocp.shx
  0
STYLE
  2
KICADBI
  70
0
  40
0
  41
1
  42
1
  50
15
  71
0
  3
isocp.shx
  0
ENDTAB
  0
TABLE
  2
LAYER
  70
1
  0
LAYER
  2
BLACK
  70
0
  62
7
  6
CONTINUOUS
  0
ENDTAB
  0
ENDSEC
  0
SECTION
  2
ENTITIES
0
LINE
8
BLACK
6
CONTINUOUS
10
2.90945
20
-0.787402
11
2.90945
21
-0.783465
0
LINE
8
BLACK
6
CONTINUOUS
10
0.787402
20
-0.787402
11
2.90945
21
-0.787402
0
LINE
8
BLACK
6
CONTINUOUS
10
2.90945
20
-0.350394
11
2.90945
21
-0.783465
0
LINE
8
BLACK
6
CONTINUOUS
10
5.87795
20
-0.350394
11
2.90945
21
-0.350394
0
LINE
8
BLACK
6
CONTINUOUS
10
5.87795
20
-0.787402
11
5.87795
21
-0.350394
0
LINE
8
BLACK
6
CONTINUOUS
10
9.42913
20
-0.787402
11
5.87795
21
-0.787402
0
LINE
8
BLACK
6
CONTINUOUS
10
9.42913
20
-7.08661
11
4.27165
21
-7.08661
0
LINE
8
BLACK
6
CONTINUOUS
10
9.42913
20
-7.08661
11
9.42913
21
-0.787402
0
LINE
8
BLACK
6
CONTINUOUS
10
0.767717
20
-0.787402
11
0.787402
21
-0.787402
0
LINE
8
BLACK
6
CONTINUOUS
10
0.767717
20
-7.08661
11
0.767717
21
-0.787402
0
LINE
8
BLACK
6
CONTINUOUS
10
0.787402
20
-7.08661
11
0.767717
21
-7.08661
0
LINE
8
BLACK
6
CONTINUOUS
10
4.27165
20
-6.65354
11
4.27165
21
-7.08661
0
LINE
8
BLACK
6
CONTINUOUS
10
3.4252
20
-6.65354
11
4.27165
21
-6.65354
0
LINE
8
BLACK
6
CONTINUOUS
10
3.4252
20
-7.08661
11
3.4252
21
-6.65354
0
LINE
8
BLACK
6
CONTINUOUS
10
0.787402
20
-7.08661
11
3.4252
21
-7.08661
0
LINE
8
BLACK
6
CONTINUOUS
10
0.879499
20
-7.27095
11
0.879499
21
-7.15284
0
LINE
8
BLACK
6
CONTINUOUS
10
0.879499
20
-7.15284
11
0.907621
21
-7.15284
0
LINE
8
BLACK
6
CONTINUOUS
10
0.907621
20
-7.15284
11
0.924494
21
-7.15846
0
LINE
8
BLACK
6
CONTINUOUS
10
0.924494
20
-7.15846
11
0.935742
21
-7.16971
0
LINE
8
BLACK
6
CONTINUOUS
10
0.935742
20
-7.16971
11
0.941367
21
-7.18096
0
LINE
8
BLACK
6
CONTINUOUS
10
0.941367
20
-7.18096
11
0.946991
21
-7.20346
0
LINE
8
BLACK
6
CONTINUOUS
10
0.946991
20
-7.20346
11
0.946991
21
-7.22033
0
LINE
8
BLACK
6
CONTINUOUS
10
0.946991
20
-7.22033
11
0.941367
21
-7.24283
0
LINE
8
BLACK
6
CONTINUOUS
10
0.941367
20
-7.24283
11
0.935742
21
-7.25408
0
LINE
8
BLACK
6
CONTINUOUS
10
0.935742
20
-7.25408
11
0.924494
21
-7.26533
0
LINE
8
BLACK
6
CONTINUOUS
10
0.924494
20
-7.26533
11
0.907621
21
-7.27095
0
LINE
8
BLACK
6
CONTINUOUS
10
0.907621
20
-7.27095
11
0.879499
21
-7.27095
0
LINE
8
BLACK
6
CONTINUOUS
10
0.99761
20
-7.27095
11
0.99761
21
-7.19221
0
LINE
8
BLACK
6
CONTINUOUS
10
0.99761
20
-7.21471
11
1.00323
21
-7.20346
0
LINE
8
BLACK
6
CONTINUOUS
10
1.00323
20
-7.20346
11
1.00886
21
-7.19783
0
LINE
8
BLACK
6
CONTINUOUS
10
1.00886
20
-7.19783
11
1.02011
21
-7.19221
0
LINE
8
BLACK
6
CONTINUOUS
10
1.02011
20
-7.19221
11
1.03136
21
-7.19221
0
LINE
8
BLACK
6
CONTINUOUS
10
1.07073
20
-7.27095
11
1.07073
21
-7.19221
0
LINE
8
BLACK
6
CONTINUOUS
10
1.07073
20
-7.15284
11
1.0651
21
-7.15846
0
LINE
8
BLACK
6
CONTINUOUS
10
1.0651
20
-7.15846
11
1.07073
21
-7.16409
0
LINE
8
BLACK
6
CONTINUOUS
10
1.07073
20
-7.16409
11
1.07635
21
-7.15846
0
LINE
8
BLACK
6
CONTINUOUS
10
1.07635
20
-7.15846
11
1.07073
21
-7.15284
0
LINE
8
BLACK
6
CONTINUOUS
10
1.07073
20
-7.15284
11
1.07073
21
-7.16409
0
LINE
8
BLACK
6
CONTINUOUS
10
1.14384
20
-7.27095
11
1.13259
21
-7.26533
0
LINE
8
BLACK
6
CONTINUOUS
10
1.13259
20
-7.26533
11
1.12697
21
-7.25408
0
LINE
8
BLACK
6
CONTINUOUS
10
1.12697
20
-7.25408
11
1.12697
21
-7.15284
0
LINE
8
BLACK
6
CONTINUOUS
10
1.20571
20
-7.27095
11
1.19446
21
-7.26533
0
LINE
8
BLACK
6
CONTINUOUS
10
1.19446
20
-7.26533
11
1.18884
21
-7.25408
0
LINE
8
BLACK
6
CONTINUOUS
10
1.18884
20
-7.25408
11
1.18884
21
-7.15284
0
LINE
8
BLACK
6
CONTINUOUS
10
1.34069
20
-7.27095
11
1.34069
21
-7.15284
0
LINE
8
BLACK
6
CONTINUOUS
10
1.34069
20
-7.15284
11
1.38006
21
-7.2372
0
LINE
8
BLACK
6
CONTINUOUS
10
1.38006
20
-7.2372
11
1.41943
21
-7.15284
0
LINE
8
BLACK
6
CONTINUOUS
10
1.41943
20
-7.15284
11
1.41943
21
-7.27095
0
LINE
8
BLACK
6
CONTINUOUS
10
1.52629
20
-7.27095
11
1.52629
21
-7.20908
0
LINE
8
BLACK
6
CONTINUOUS
10
1.52629
20
-7.20908
11
1.52067
21
-7.19783
0
LINE
8
BLACK
6
CONTINUOUS
10
1.52067
20
-7.19783
11
1.50942
21
-7.19221
0
LINE
8
BLACK
6
CONTINUOUS
10
1.50942
20
-7.19221
11
1.48692
21
-7.19221
0
LINE
8
BLACK
6
CONTINUOUS
10
1.48692
20
-7.19221
11
1.47567
21
-7.19783
0
LINE
8
BLACK
6
CONTINUOUS
10
1.52629
20
-7.26533
11
1.51504
21
-7.27095
0
LINE
8
BLACK
6
CONTINUOUS
10
1.51504
20
-7.27095
11
1.48692
21
-7.27095
0
LINE
8
BLACK
6
CONTINUOUS
10
1.48692
20
-7.27095
11
1.47567
21
-7.26533
0
LINE
8
BLACK
6
CONTINUOUS
10
1.47567
20
-7.26533
11
1.47005
21
-7.25408
0
LINE
8
BLACK
6
CONTINUOUS
10
1.47005
20
-7.25408
11
1.47005
21
-7.24283
0
LINE
8
BLACK
6
CONTINUOUS
10
1.47005
20
-7.24283
11
1.47567
21
-7.23158
0
LINE
8
BLACK
6
CONTINUOUS
10
1.47567
20
-7.23158
11
1.48692
21
-7.22596
0
LINE
8
BLACK
6
CONTINUOUS
10
1.48692
20
-7.22596
11
1.51504
21
-7.22596
0
LINE
8
BLACK
6
CONTINUOUS
10
1.51504
20
-7.22596
11
1.52629
21
-7.22033
0
LINE
8
BLACK
6
CONTINUOUS
10
1.58254
20
-7.19221
11
1.58254
21
-7.31032
0
LINE
8
BLACK
6
CONTINUOUS
10
1.58254
20
-7.19783
11
1.59379
21
-7.19221
0
LINE
8
BLACK
6
CONTINUOUS
10
1.59379
20
-7.19221
11
1.61628
21
-7.19221
0
LINE
8
BLACK
6
CONTINUOUS
10
1.61628
20
-7.19221
11
1.62753
21
-7.19783
0
LINE
8
BLACK
6
CONTINUOUS
10
1.62753
20
-7.19783
11
1.63316
21
-7.20346
0
LINE
8
BLACK
6
CONTINUOUS
10
1.63316
20
-7.20346
11
1.63878
21
-7.21471
0
LINE
8
BLACK
6
CONTINUOUS
10
1.63878
20
-7.21471
11
1.63878
21
-7.24845
0
LINE
8
BLACK
6
CONTINUOUS
10
1.63878
20
-7.24845
11
1.63316
21
-7.2597
0
LINE
8
BLACK
6
CONTINUOUS
10
1.63316
20
-7.2597
11
1.62753
21
-7.26533
0
LINE
8
BLACK
6
CONTINUOUS
10
1.62753
20
-7.26533
11
1.61628
21
-7.27095
0
LINE
8
BLACK
6
CONTINUOUS
10
1.61628
20
-7.27095
11
1.59379
21
-7.27095
0
LINE
8
BLACK
6
CONTINUOUS
10
1.59379
20
-7.27095
11
1.58254
21
-7.26533
0
LINE
8
BLACK
6
CONTINUOUS
10
1.6894
20
-7.2597
11
1.69502
21
-7.26533
0
LINE
8
BLACK
6
CONTINUOUS
10
1.69502
20
-7.26533
11
1.6894
21
-7.27095
0
LINE
8
BLACK
6
CONTINUOUS
10
1.6894
20
-7.27095
11
1.68377
21
-7.26533
0
LINE
8
BLACK
6
CONTINUOUS
10
1.68377
20
-7.26533
11
1.6894
21
-7.2597
0
LINE
8
BLACK
6
CONTINUOUS
10
1.6894
20
-7.2597
11
1.6894
21
-7.27095
0
LINE
8
BLACK
6
CONTINUOUS
10
1.6894
20
-7.19783
11
1.69502
21
-7.20346
0
LINE
8
BLACK
6
CONTINUOUS
10
1.69502
20
-7.20346
11
1.6894
21
-7.20908
0
LINE
8
BLACK
6
CONTINUOUS
10
1.6894
20
-7.20908
11
1.68377
21
-7.20346
0
LINE
8
BLACK
6
CONTINUOUS
10
1.68377
20
-7.20346
11
1.6894
21
-7.19783
0
LINE
8
BLACK
6
CONTINUOUS
10
1.6894
20
-7.19783
11
1.6894
21
-7.20908
  0
ENDSEC
  0
EOF
