  0
SECTION
  2
HEADER
  9
$ANGBASE
  50
0.0
  9
$ANGDIR
  70
1
  9
$MEASUREMENT
  70
0
  0
ENDSEC
  0
SECTION
  2
TABLES
  0
TABLE
  2
LTYPE
  70
4
  0
LTYPE
  5
40F
  2
CONTINUOUS
  70
0
  3
Solid line
  72
65
  73
0
  40
0.0
  0
LTYPE
  5
410
  2
DASHDOT
 70
0
  3
Dash Dot ____ _ ____ _
 72
65
 73
4
 40
2.0
 49
1.25
 49
-0.25
 49
0.25
 49
-0.25
  0
LTYPE
  5
411
  2
DASHED
 70
0
  3
Dashed __ __ __ __ __
 72
65
 73
2
 40
0.75
 49
0.5
 49
-0.25
  0
LTYPE
  5
43B
  2
DOTTED
 70
0
  3
Dotted .  .  .  .
 72
65
 73
2
 40
0.2
 49
0.0
 49
-0.2
  0
ENDTAB
  0
TABLE
  2
STYLE
  70
4
  0
STYLE
  2
KICAD
  70
0
  40
0
  41
1
  42
1
  50
0
  71
0
  3
isocp.shx
  0
STYLE
  2
KICADB
  70
0
  40
0
  41
1
  42
1
  50
0
  71
0
  3
isocp.shx
  0
STYLE
  2
KICADI
  70
0
  40
0
  41
1
  42
1
  50
15
  71
0
  3
isocp.shx
  0
STYLE
  2
KICADBI
  70
0
  40
0
  41
1
  42
1
  50
15
  71
0
  3
isocp.shx
  0
ENDTAB
  0
TABLE
  2
LAYER
  70
1
  0
LAYER
  2
BLACK
  70
0
  62
7
  6
CONTINUOUS
  0
ENDTAB
  0
ENDSEC
  0
SECTION
  2
ENTITIES
0
LINE
8
BLACK
6
CONTINUOUS
10
2.90945
20
-0.787402
11
2.90945
21
-0.783465
0
LINE
8
BLACK
6
CONTINUOUS
10
0.787402
20
-0.787402
11
2.90945
21
-0.787402
0
LINE
8
BLACK
6
CONTINUOUS
10
2.90945
20
-0.350394
11
2.90945
21
-0.783465
0
LINE
8
BLACK
6
CONTINUOUS
10
5.87795
20
-0.350394
11
2.90945
21
-0.350394
0
LINE
8
BLACK
6
CONTINUOUS
10
5.87795
20
-0.787402
11
5.87795
21
-0.350394
0
LINE
8
BLACK
6
CONTINUOUS
10
9.42913
20
-0.787402
11
5.87795
21
-0.787402
0
LINE
8
BLACK
6
CONTINUOUS
10
9.42913
20
-7.08661
11
4.27165
21
-7.08661
0
LINE
8
BLACK
6
CONTINUOUS
10
9.42913
20
-7.08661
11
9.42913
21
-0.787402
0
LINE
8
BLACK
6
CONTINUOUS
10
0.767717
20
-0.787402
11
0.787402
21
-0.787402
0
LINE
8
BLACK
6
CONTINUOUS
10
0.767717
20
-7.08661
11
0.767717
21
-0.787402
0
LINE
8
BLACK
6
CONTINUOUS
10
0.787402
20
-7.08661
11
0.767717
21
-7.08661
0
LINE
8
BLACK
6
CONTINUOUS
10
4.27165
20
-6.65354
11
4.27165
21
-7.08661
0
LINE
8
BLACK
6
CONTINUOUS
10
3.4252
20
-6.65354
11
4.27165
21
-6.65354
0
LINE
8
BLACK
6
CONTINUOUS
10
3.4252
20
-7.08661
11
3.4252
21
-6.65354
0
LINE
8
BLACK
6
CONTINUOUS
10
0.787402
20
-7.08661
11
3.4252
21
-7.08661
0
LINE
8
BLACK
6
CONTINUOUS
10
1.36122
20
-1.43622
11
1.38878
21
-1.46378
0
LINE
8
BLACK
6
CONTINUOUS
10
1.38878
20
-1.43622
11
1.36122
21
-1.46378
0
LINE
8
BLACK
6
CONTINUOUS
10
2.41122
20
-2.06122
11
2.43878
21
-2.08878
0
LINE
8
BLACK
6
CONTINUOUS
10
2.43878
20
-2.06122
11
2.41122
21
-2.08878
0
LINE
8
BLACK
6
CONTINUOUS
10
2.46122
20
-1.96122
11
2.48878
21
-1.98878
0
LINE
8
BLACK
6
CONTINUOUS
10
2.48878
20
-1.96122
11
2.46122
21
-1.98878
0
LINE
8
BLACK
6
CONTINUOUS
10
2.93622
20
-1.96122
11
2.96378
21
-1.98878
0
LINE
8
BLACK
6
CONTINUOUS
10
2.96378
20
-1.96122
11
2.93622
21
-1.98878
0
LINE
8
BLACK
6
CONTINUOUS
10
3.53799
20
-2.25945
11
3.56555
21
-2.28701
0
LINE
8
BLACK
6
CONTINUOUS
10
3.56555
20
-2.25945
11
3.53799
21
-2.28701
0
LINE
8
BLACK
6
CONTINUOUS
10
3.58622
20
-2.15945
11
3.61378
21
-2.18701
0
LINE
8
BLACK
6
CONTINUOUS
10
3.61378
20
-2.15945
11
3.58622
21
-2.18701
0
LINE
8
BLACK
6
CONTINUOUS
10
3.66122
20
-2.05945
11
3.68878
21
-2.08701
0
LINE
8
BLACK
6
CONTINUOUS
10
3.68878
20
-2.05945
11
3.66122
21
-2.08701
0
LINE
8
BLACK
6
CONTINUOUS
10
3.73622
20
-1.95945
11
3.76378
21
-1.98701
0
LINE
8
BLACK
6
CONTINUOUS
10
3.76378
20
-1.95945
11
3.73622
21
-1.98701
0
LINE
8
BLACK
6
CONTINUOUS
10
3.78799
20
-1.85945
11
3.81555
21
-1.88701
0
LINE
8
BLACK
6
CONTINUOUS
10
3.81555
20
-1.85945
11
3.78799
21
-1.88701
0
LINE
8
BLACK
6
CONTINUOUS
10
3.83799
20
-1.65945
11
3.86555
21
-1.68701
0
LINE
8
BLACK
6
CONTINUOUS
10
3.86555
20
-1.65945
11
3.83799
21
-1.68701
0
LINE
8
BLACK
6
CONTINUOUS
10
3.86122
20
-1.76122
11
3.88878
21
-1.78878
0
LINE
8
BLACK
6
CONTINUOUS
10
3.88878
20
-1.76122
11
3.86122
21
-1.78878
0
LINE
8
BLACK
6
CONTINUOUS
10
3.96299
20
-1.75945
11
3.99055
21
-1.78701
0
LINE
8
BLACK
6
CONTINUOUS
10
3.99055
20
-1.75945
11
3.96299
21
-1.78701
0
LINE
8
BLACK
6
CONTINUOUS
10
4.48622
20
-1.43622
11
4.51378
21
-1.46378
0
LINE
8
BLACK
6
CONTINUOUS
10
4.51378
20
-1.43622
11
4.48622
21
-1.46378
0
LINE
8
BLACK
6
CONTINUOUS
10
4.88622
20
-1.48622
11
4.91378
21
-1.51378
0
LINE
8
BLACK
6
CONTINUOUS
10
4.91378
20
-1.48622
11
4.88622
21
-1.51378
0
LINE
8
BLACK
6
CONTINUOUS
10
4.88622
20
-1.68622
11
4.91378
21
-1.71378
0
LINE
8
BLACK
6
CONTINUOUS
10
4.91378
20
-1.68622
11
4.88622
21
-1.71378
0
LINE
8
BLACK
6
CONTINUOUS
10
4.96122
20
-1.68622
11
4.98878
21
-1.71378
0
LINE
8
BLACK
6
CONTINUOUS
10
4.98878
20
-1.68622
11
4.96122
21
-1.71378
0
LINE
8
BLACK
6
CONTINUOUS
10
5.03102
20
-1.68102
11
5.05857
21
-1.70857
0
LINE
8
BLACK
6
CONTINUOUS
10
5.05857
20
-1.68102
11
5.03102
21
-1.70857
0
LINE
8
BLACK
6
CONTINUOUS
10
5.26122
20
-1.43622
11
5.28878
21
-1.46378
0
LINE
8
BLACK
6
CONTINUOUS
10
5.28878
20
-1.43622
11
5.26122
21
-1.46378
0
CIRCLE
8
BLACK
10
0.83315
20
-6.1
40
0.015748
0
CIRCLE
8
BLACK
10
0.91815
20
-4.64
40
0.015748
0
CIRCLE
8
BLACK
10
0.930646
20
-6.225
40
0.015748
0
CIRCLE
8
BLACK
10
1.01
20
-5.1
40
0.015748
0
CIRCLE
8
BLACK
10
1.03
20
-6.1
40
0.015748
0
CIRCLE
8
BLACK
10
1.035
20
-3.675
40
0.015748
0
CIRCLE
8
BLACK
10
1.08665
20
-6.375
40
0.015748
0
CIRCLE
8
BLACK
10
1.115
20
-4.64
40
0.015748
0
CIRCLE
8
BLACK
10
1.15
20
-2.65
40
0.015748
0
CIRCLE
8
BLACK
10
1.1625
20
-2.3775
40
0.015748
0
CIRCLE
8
BLACK
10
1.175
20
-4.8
40
0.015748
0
CIRCLE
8
BLACK
10
1.175
20
-5.2
40
0.015748
0
CIRCLE
8
BLACK
10
1.24265
20
-6.3
40
0.015748
0
CIRCLE
8
BLACK
10
1.24291
20
-1.39941
40
0.015748
0
CIRCLE
8
BLACK
10
1.275
20
-1.15
40
0.015748
0
CIRCLE
8
BLACK
10
1.275
20
-3.975
40
0.015748
0
CIRCLE
8
BLACK
10
1.275
20
-4.375
40
0.015748
0
CIRCLE
8
BLACK
10
1.29
20
-5.2
40
0.015748
0
CIRCLE
8
BLACK
10
1.34
20
-6.56
40
0.015748
0
CIRCLE
8
BLACK
10
1.35935
20
-2.3775
40
0.015748
0
CIRCLE
8
BLACK
10
1.375
20
-6.1
40
0.015748
0
CIRCLE
8
BLACK
10
1.38209
20
-3.325
40
0.015748
0
CIRCLE
8
BLACK
10
1.475
20
-2.375
40
0.015748
0
CIRCLE
8
BLACK
10
1.475
20
-3.225
40
0.015748
0
CIRCLE
8
BLACK
10
1.475
20
-4.575
40
0.015748
0
CIRCLE
8
BLACK
10
1.47638
20
-1.67323
40
0.015748
0
CIRCLE
8
BLACK
10
1.47638
20
-1.77323
40
0.015748
0
CIRCLE
8
BLACK
10
1.47638
20
-1.87323
40
0.015748
0
CIRCLE
8
BLACK
10
1.47638
20
-1.97323
40
0.015748
0
CIRCLE
8
BLACK
10
1.47638
20
-2.07323
40
0.015748
0
CIRCLE
8
BLACK
10
1.47638
20
-2.17323
40
0.015748
0
CIRCLE
8
BLACK
10
1.47638
20
-2.27323
40
0.015748
0
CIRCLE
8
BLACK
10
1.47638
20
-3.75984
40
0.015748
0
CIRCLE
8
BLACK
10
1.47638
20
-3.85984
40
0.015748
0
CIRCLE
8
BLACK
10
1.47638
20
-3.95984
40
0.015748
0
CIRCLE
8
BLACK
10
1.47638
20
-4.05984
40
0.015748
0
CIRCLE
8
BLACK
10
1.47638
20
-4.15984
40
0.015748
0
CIRCLE
8
BLACK
10
1.47638
20
-4.25984
40
0.015748
0
CIRCLE
8
BLACK
10
1.47638
20
-4.35984
40
0.015748
0
CIRCLE
8
BLACK
10
1.47638
20
-5.31496
40
0.015748
0
CIRCLE
8
BLACK
10
1.47638
20
-5.41496
40
0.015748
0
CIRCLE
8
BLACK
10
1.47638
20
-5.51496
40
0.015748
0
CIRCLE
8
BLACK
10
1.47638
20
-5.61496
40
0.015748
0
CIRCLE
8
BLACK
10
1.47638
20
-5.71496
40
0.015748
0
CIRCLE
8
BLACK
10
1.47638
20
-5.81496
40
0.015748
0
CIRCLE
8
BLACK
10
1.47638
20
-5.91496
40
0.015748
0
CIRCLE
8
BLACK
10
1.495
20
-5.2
40
0.015748
0
CIRCLE
8
BLACK
10
1.525
20
-5.025
40
0.015748
0
CIRCLE
8
BLACK
10
1.675
20
-4.925
40
0.015748
0
CIRCLE
8
BLACK
10
1.77
20
-3.575
40
0.015748
0
CIRCLE
8
BLACK
10
1.775
20
-5.2
40
0.015748
0
CIRCLE
8
BLACK
10
1.77508
20
-3.67508
40
0.015748
0
CIRCLE
8
BLACK
10
1.77638
20
-1.67323
40
0.015748
0
CIRCLE
8
BLACK
10
1.77638
20
-1.77323
40
0.015748
0
CIRCLE
8
BLACK
10
1.77638
20
-1.87323
40
0.015748
0
CIRCLE
8
BLACK
10
1.77638
20
-1.97323
40
0.015748
0
CIRCLE
8
BLACK
10
1.77638
20
-2.07323
40
0.015748
0
CIRCLE
8
BLACK
10
1.77638
20
-2.17323
40
0.015748
0
CIRCLE
8
BLACK
10
1.77638
20
-2.27323
40
0.015748
0
CIRCLE
8
BLACK
10
1.77638
20
-3.75984
40
0.015748
0
CIRCLE
8
BLACK
10
1.77638
20
-3.85984
40
0.015748
0
CIRCLE
8
BLACK
10
1.77638
20
-3.95984
40
0.015748
0
CIRCLE
8
BLACK
10
1.77638
20
-4.05984
40
0.015748
0
CIRCLE
8
BLACK
10
1.77638
20
-4.15984
40
0.015748
0
CIRCLE
8
BLACK
10
1.77638
20
-4.25984
40
0.015748
0
CIRCLE
8
BLACK
10
1.77638
20
-4.35984
40
0.015748
0
CIRCLE
8
BLACK
10
1.77638
20
-5.31496
40
0.015748
0
CIRCLE
8
BLACK
10
1.77638
20
-5.41496
40
0.015748
0
CIRCLE
8
BLACK
10
1.77638
20
-5.51496
40
0.015748
0
CIRCLE
8
BLACK
10
1.77638
20
-5.61496
40
0.015748
0
CIRCLE
8
BLACK
10
1.77638
20
-5.71496
40
0.015748
0
CIRCLE
8
BLACK
10
1.77638
20
-5.81496
40
0.015748
0
CIRCLE
8
BLACK
10
1.77638
20
-5.91496
40
0.015748
0
CIRCLE
8
BLACK
10
1.8
20
-4.75
40
0.015748
0
CIRCLE
8
BLACK
10
1.825
20
-4.85
40
0.015748
0
CIRCLE
8
BLACK
10
1.9
20
-2.95
40
0.015748
0
CIRCLE
8
BLACK
10
1.975
20
-2.875
40
0.015748
0
CIRCLE
8
BLACK
10
2
20
-3.96381
40
0.015748
0
CIRCLE
8
BLACK
10
2
20
-4.175
40
0.015748
0
CIRCLE
8
BLACK
10
2
20
-4.35
40
0.015748
0
CIRCLE
8
BLACK
10
2.04
20
-3.5
40
0.015748
0
CIRCLE
8
BLACK
10
2.05
20
-2.8
40
0.015748
0
CIRCLE
8
BLACK
10
2.075
20
-4.275
40
0.015748
0
CIRCLE
8
BLACK
10
2.075
20
-4.675
40
0.015748
0
CIRCLE
8
BLACK
10
2.1
20
-3.85
40
0.015748
0
CIRCLE
8
BLACK
10
2.35
20
-4.45
40
0.015748
0
CIRCLE
8
BLACK
10
2.65
20
-4.275
40
0.015748
0
CIRCLE
8
BLACK
10
2.7
20
-3.675
40
0.015748
0
CIRCLE
8
BLACK
10
2.75
20
-4.45
40
0.015748
0
CIRCLE
8
BLACK
10
2.85
20
-0.95
40
0.015748
0
CIRCLE
8
BLACK
10
2.85
20
-1.1
40
0.015748
0
CIRCLE
8
BLACK
10
2.875
20
-6.56
40
0.015748
0
CIRCLE
8
BLACK
10
2.9
20
-5.1
40
0.015748
0
CIRCLE
8
BLACK
10
2.95
20
-0.875
40
0.015748
0
CIRCLE
8
BLACK
10
2.95
20
-1.025
40
0.015748
0
CIRCLE
8
BLACK
10
2.95
20
-1.175
40
0.015748
0
CIRCLE
8
BLACK
10
2.975
20
-2.375
40
0.015748
0
CIRCLE
8
BLACK
10
3
20
-5.2
40
0.015748
0
CIRCLE
8
BLACK
10
3.025
20
-4.175
40
0.015748
0
CIRCLE
8
BLACK
10
3.025
20
-4.35
40
0.015748
0
CIRCLE
8
BLACK
10
3.03484
20
-3.95984
40
0.015748
0
CIRCLE
8
BLACK
10
3.05
20
-3.85
40
0.015748
0
CIRCLE
8
BLACK
10
3.05
20
-6.225
40
0.015748
0
CIRCLE
8
BLACK
10
3.05
20
-6.525
40
0.015748
0
CIRCLE
8
BLACK
10
3.125
20
-6.6
40
0.015748
0
CIRCLE
8
BLACK
10
3.14961
20
-1.67323
40
0.015748
0
CIRCLE
8
BLACK
10
3.14961
20
-1.77323
40
0.015748
0
CIRCLE
8
BLACK
10
3.14961
20
-1.87323
40
0.015748
0
CIRCLE
8
BLACK
10
3.14961
20
-1.97323
40
0.015748
0
CIRCLE
8
BLACK
10
3.14961
20
-2.07323
40
0.015748
0
CIRCLE
8
BLACK
10
3.14961
20
-2.17323
40
0.015748
0
CIRCLE
8
BLACK
10
3.14961
20
-2.27323
40
0.015748
0
CIRCLE
8
BLACK
10
3.14961
20
-2.37323
40
0.015748
0
CIRCLE
8
BLACK
10
3.14961
20
-3.75984
40
0.015748
0
CIRCLE
8
BLACK
10
3.14961
20
-3.85984
40
0.015748
0
CIRCLE
8
BLACK
10
3.14961
20
-3.95984
40
0.015748
0
CIRCLE
8
BLACK
10
3.14961
20
-4.05984
40
0.015748
0
CIRCLE
8
BLACK
10
3.14961
20
-4.15984
40
0.015748
0
CIRCLE
8
BLACK
10
3.14961
20
-4.25984
40
0.015748
0
CIRCLE
8
BLACK
10
3.14961
20
-4.35984
40
0.015748
0
CIRCLE
8
BLACK
10
3.14961
20
-4.45984
40
0.015748
0
CIRCLE
8
BLACK
10
3.14961
20
-5.31496
40
0.015748
0
CIRCLE
8
BLACK
10
3.14961
20
-5.41496
40
0.015748
0
CIRCLE
8
BLACK
10
3.14961
20
-5.51496
40
0.015748
0
CIRCLE
8
BLACK
10
3.14961
20
-5.61496
40
0.015748
0
CIRCLE
8
BLACK
10
3.14961
20
-5.71496
40
0.015748
0
CIRCLE
8
BLACK
10
3.14961
20
-5.81496
40
0.015748
0
CIRCLE
8
BLACK
10
3.14961
20
-5.91496
40
0.015748
0
CIRCLE
8
BLACK
10
3.14961
20
-6.01496
40
0.015748
0
CIRCLE
8
BLACK
10
3.15
20
-2.475
40
0.015748
0
CIRCLE
8
BLACK
10
3.15
20
-5.025
40
0.015748
0
CIRCLE
8
BLACK
10
3.15
20
-6.215
40
0.015748
0
CIRCLE
8
BLACK
10
3.28
20
-3.58
40
0.015748
0
CIRCLE
8
BLACK
10
3.34
20
-3.5
40
0.015748
0
CIRCLE
8
BLACK
10
3.375
20
-6.45
40
0.015748
0
CIRCLE
8
BLACK
10
3.425
20
-3.225
40
0.015748
0
CIRCLE
8
BLACK
10
3.425
20
-4.575
40
0.015748
0
CIRCLE
8
BLACK
10
3.44961
20
-1.67323
40
0.015748
0
CIRCLE
8
BLACK
10
3.44961
20
-1.77323
40
0.015748
0
CIRCLE
8
BLACK
10
3.44961
20
-1.87323
40
0.015748
0
CIRCLE
8
BLACK
10
3.44961
20
-1.97323
40
0.015748
0
CIRCLE
8
BLACK
10
3.44961
20
-2.07323
40
0.015748
0
CIRCLE
8
BLACK
10
3.44961
20
-2.17323
40
0.015748
0
CIRCLE
8
BLACK
10
3.44961
20
-2.27323
40
0.015748
0
CIRCLE
8
BLACK
10
3.44961
20
-2.37323
40
0.015748
0
CIRCLE
8
BLACK
10
3.44961
20
-3.75984
40
0.015748
0
CIRCLE
8
BLACK
10
3.44961
20
-3.85984
40
0.015748
0
CIRCLE
8
BLACK
10
3.44961
20
-3.95984
40
0.015748
0
CIRCLE
8
BLACK
10
3.44961
20
-4.05984
40
0.015748
0
CIRCLE
8
BLACK
10
3.44961
20
-4.15984
40
0.015748
0
CIRCLE
8
BLACK
10
3.44961
20
-4.25984
40
0.015748
0
CIRCLE
8
BLACK
10
3.44961
20
-4.35984
40
0.015748
0
CIRCLE
8
BLACK
10
3.44961
20
-4.45984
40
0.015748
0
CIRCLE
8
BLACK
10
3.44961
20
-5.31496
40
0.015748
0
CIRCLE
8
BLACK
10
3.44961
20
-5.41496
40
0.015748
0
CIRCLE
8
BLACK
10
3.44961
20
-5.51496
40
0.015748
0
CIRCLE
8
BLACK
10
3.44961
20
-5.61496
40
0.015748
0
CIRCLE
8
BLACK
10
3.44961
20
-5.71496
40
0.015748
0
CIRCLE
8
BLACK
10
3.44961
20
-5.81496
40
0.015748
0
CIRCLE
8
BLACK
10
3.44961
20
-5.91496
40
0.015748
0
CIRCLE
8
BLACK
10
3.44961
20
-6.01496
40
0.015748
0
CIRCLE
8
BLACK
10
3.45
20
-1.575
40
0.015748
0
CIRCLE
8
BLACK
10
3.45
20
-2.875
40
0.015748
0
CIRCLE
8
BLACK
10
3.475
20
-6.3
40
0.015748
0
CIRCLE
8
BLACK
10
3.625
20
-5.3
40
0.015748
0
CIRCLE
8
BLACK
10
3.625
20
-6.01339
40
0.015748
0
CIRCLE
8
BLACK
10
3.65
20
-6.375
40
0.015748
0
CIRCLE
8
BLACK
10
3.7
20
-3.775
40
0.015748
0
CIRCLE
8
BLACK
10
3.7
20
-4.45
40
0.015748
0
CIRCLE
8
BLACK
10
3.75
20
-5.725
40
0.015748
0
CIRCLE
8
BLACK
10
3.75
20
-5.825
40
0.015748
0
CIRCLE
8
BLACK
10
3.775
20
-6.375
40
0.015748
0
CIRCLE
8
BLACK
10
3.825
20
-4.85
40
0.015748
0
CIRCLE
8
BLACK
10
3.925
20
-3.8
40
0.015748
0
CIRCLE
8
BLACK
10
3.925
20
-4.35
40
0.015748
0
CIRCLE
8
BLACK
10
3.95
20
-6.275
40
0.015748
0
CIRCLE
8
BLACK
10
4.025
20
-2.575
40
0.015748
0
CIRCLE
8
BLACK
10
4.025
20
-5.725
40
0.015748
0
CIRCLE
8
BLACK
10
4.025
20
-5.825
40
0.015748
0
CIRCLE
8
BLACK
10
4.05
20
-4.75
40
0.015748
0
CIRCLE
8
BLACK
10
4.075
20
-4.925
40
0.015748
0
CIRCLE
8
BLACK
10
4.1
20
-5.4
40
0.015748
0
CIRCLE
8
BLACK
10
4.1
20
-5.9
40
0.015748
0
CIRCLE
8
BLACK
10
4.125
20
-2.65
40
0.015748
0
CIRCLE
8
BLACK
10
4.15
20
-6.1
40
0.015748
0
CIRCLE
8
BLACK
10
4.25
20
-4.575
40
0.015748
0
CIRCLE
8
BLACK
10
4.25
20
-6.125
40
0.015748
0
CIRCLE
8
BLACK
10
4.27165
20
-1.67323
40
0.015748
0
CIRCLE
8
BLACK
10
4.27165
20
-1.77323
40
0.015748
0
CIRCLE
8
BLACK
10
4.27165
20
-1.87323
40
0.015748
0
CIRCLE
8
BLACK
10
4.27165
20
-1.97323
40
0.015748
0
CIRCLE
8
BLACK
10
4.27165
20
-2.07323
40
0.015748
0
CIRCLE
8
BLACK
10
4.27165
20
-2.17323
40
0.015748
0
CIRCLE
8
BLACK
10
4.27165
20
-2.27323
40
0.015748
0
CIRCLE
8
BLACK
10
4.27165
20
-2.37323
40
0.015748
0
CIRCLE
8
BLACK
10
4.27165
20
-3.75984
40
0.015748
0
CIRCLE
8
BLACK
10
4.27165
20
-3.85984
40
0.015748
0
CIRCLE
8
BLACK
10
4.27165
20
-3.95984
40
0.015748
0
CIRCLE
8
BLACK
10
4.27165
20
-4.05984
40
0.015748
0
CIRCLE
8
BLACK
10
4.27165
20
-4.15984
40
0.015748
0
CIRCLE
8
BLACK
10
4.27165
20
-4.25984
40
0.015748
0
CIRCLE
8
BLACK
10
4.27165
20
-4.35984
40
0.015748
0
CIRCLE
8
BLACK
10
4.27165
20
-5.31496
40
0.015748
0
CIRCLE
8
BLACK
10
4.27165
20
-5.41496
40
0.015748
0
CIRCLE
8
BLACK
10
4.27165
20
-5.51496
40
0.015748
0
CIRCLE
8
BLACK
10
4.27165
20
-5.61496
40
0.015748
0
CIRCLE
8
BLACK
10
4.27165
20
-5.71496
40
0.015748
0
CIRCLE
8
BLACK
10
4.27165
20
-5.81496
40
0.015748
0
CIRCLE
8
BLACK
10
4.27165
20
-5.91496
40
0.015748
0
CIRCLE
8
BLACK
10
4.275
20
-2.475
40
0.015748
0
CIRCLE
8
BLACK
10
4.275
20
-3.575
40
0.015748
0
CIRCLE
8
BLACK
10
4.425
20
-5.025
40
0.015748
0
CIRCLE
8
BLACK
10
4.45
20
-3.25
40
0.015748
0
CIRCLE
8
BLACK
10
4.5
20
-6.375
40
0.015748
0
CIRCLE
8
BLACK
10
4.525
20
-6.6
40
0.015748
0
CIRCLE
8
BLACK
10
4.55
20
-6.45
40
0.015748
0
CIRCLE
8
BLACK
10
4.57165
20
-1.67323
40
0.015748
0
CIRCLE
8
BLACK
10
4.57165
20
-1.77323
40
0.015748
0
CIRCLE
8
BLACK
10
4.57165
20
-1.87323
40
0.015748
0
CIRCLE
8
BLACK
10
4.57165
20
-1.97323
40
0.015748
0
CIRCLE
8
BLACK
10
4.57165
20
-2.07323
40
0.015748
0
CIRCLE
8
BLACK
10
4.57165
20
-2.17323
40
0.015748
0
CIRCLE
8
BLACK
10
4.57165
20
-2.27323
40
0.015748
0
CIRCLE
8
BLACK
10
4.57165
20
-2.37323
40
0.015748
0
CIRCLE
8
BLACK
10
4.57165
20
-3.75984
40
0.015748
0
CIRCLE
8
BLACK
10
4.57165
20
-3.85984
40
0.015748
0
CIRCLE
8
BLACK
10
4.57165
20
-3.95984
40
0.015748
0
CIRCLE
8
BLACK
10
4.57165
20
-4.05984
40
0.015748
0
CIRCLE
8
BLACK
10
4.57165
20
-4.15984
40
0.015748
0
CIRCLE
8
BLACK
10
4.57165
20
-4.25984
40
0.015748
0
CIRCLE
8
BLACK
10
4.57165
20
-4.35984
40
0.015748
0
CIRCLE
8
BLACK
10
4.57165
20
-4.47835
40
0.015748
0
CIRCLE
8
BLACK
10
4.57165
20
-5.31496
40
0.015748
0
CIRCLE
8
BLACK
10
4.57165
20
-5.41496
40
0.015748
0
CIRCLE
8
BLACK
10
4.57165
20
-5.51496
40
0.015748
0
CIRCLE
8
BLACK
10
4.57165
20
-5.61496
40
0.015748
0
CIRCLE
8
BLACK
10
4.57165
20
-5.71496
40
0.015748
0
CIRCLE
8
BLACK
10
4.57165
20
-5.81496
40
0.015748
0
CIRCLE
8
BLACK
10
4.57165
20
-5.91496
40
0.015748
0
CIRCLE
8
BLACK
10
4.575
20
-1.575
40
0.015748
0
CIRCLE
8
BLACK
10
4.575
20
-2.8
40
0.015748
0
CIRCLE
8
BLACK
10
4.575
20
-3.675
40
0.015748
0
CIRCLE
8
BLACK
10
4.6
20
-5.2
40
0.015748
0
CIRCLE
8
BLACK
10
4.675
20
-4.85
40
0.015748
0
CIRCLE
8
BLACK
10
4.7
20
-2.8
40
0.015748
0
CIRCLE
8
BLACK
10
4.75
20
-5.925
40
0.015748
0
CIRCLE
8
BLACK
10
4.9
20
-4.675
40
0.015748
0
CIRCLE
8
BLACK
10
5
20
-6.45
40
0.015748
0
CIRCLE
8
BLACK
10
5.075
20
-2.875
40
0.015748
0
CIRCLE
8
BLACK
10
5.275
20
-1.875
40
0.015748
0
CIRCLE
8
BLACK
10
5.275
20
-5.425
40
0.015748
0
CIRCLE
8
BLACK
10
5.275
20
-5.6
40
0.015748
0
CIRCLE
8
BLACK
10
5.375
20
-6.125
40
0.015748
0
CIRCLE
8
BLACK
10
5.42913
20
-3.11417
40
0.015748
0
CIRCLE
8
BLACK
10
5.43
20
-4.575
40
0.015748
0
CIRCLE
8
BLACK
10
5.43307
20
-1.67323
40
0.015748
0
CIRCLE
8
BLACK
10
5.43307
20
-1.77323
40
0.015748
0
CIRCLE
8
BLACK
10
5.43307
20
-1.87323
40
0.015748
0
CIRCLE
8
BLACK
10
5.43307
20
-1.97323
40
0.015748
0
CIRCLE
8
BLACK
10
5.43307
20
-2.07323
40
0.015748
0
CIRCLE
8
BLACK
10
5.43307
20
-2.17323
40
0.015748
0
CIRCLE
8
BLACK
10
5.43307
20
-2.27323
40
0.015748
0
CIRCLE
8
BLACK
10
5.43307
20
-3.75984
40
0.015748
0
CIRCLE
8
BLACK
10
5.43307
20
-3.85984
40
0.015748
0
CIRCLE
8
BLACK
10
5.43307
20
-3.95984
40
0.015748
0
CIRCLE
8
BLACK
10
5.43307
20
-4.05984
40
0.015748
0
CIRCLE
8
BLACK
10
5.43307
20
-4.15984
40
0.015748
0
CIRCLE
8
BLACK
10
5.43307
20
-4.25984
40
0.015748
0
CIRCLE
8
BLACK
10
5.43307
20
-4.35984
40
0.015748
0
CIRCLE
8
BLACK
10
5.43307
20
-5.31496
40
0.015748
0
CIRCLE
8
BLACK
10
5.43307
20
-5.41496
40
0.015748
0
CIRCLE
8
BLACK
10
5.43307
20
-5.51496
40
0.015748
0
CIRCLE
8
BLACK
10
5.43307
20
-5.61496
40
0.015748
0
CIRCLE
8
BLACK
10
5.43307
20
-5.71496
40
0.015748
0
CIRCLE
8
BLACK
10
5.43307
20
-5.81496
40
0.015748
0
CIRCLE
8
BLACK
10
5.43307
20
-5.91496
40
0.015748
0
CIRCLE
8
BLACK
10
5.43307
20
-6.01496
40
0.015748
0
CIRCLE
8
BLACK
10
5.475
20
-5.1
40
0.015748
0
CIRCLE
8
BLACK
10
5.55
20
-2.95
40
0.015748
0
CIRCLE
8
BLACK
10
5.575
20
-0.875
40
0.015748
0
CIRCLE
8
BLACK
10
5.575
20
-0.975
40
0.015748
0
CIRCLE
8
BLACK
10
5.575
20
-1.1
40
0.015748
0
CIRCLE
8
BLACK
10
5.6
20
-2.475
40
0.015748
0
CIRCLE
8
BLACK
10
5.625
20
-3.025
40
0.015748
0
CIRCLE
8
BLACK
10
5.725
20
-0.925
40
0.015748
0
CIRCLE
8
BLACK
10
5.725
20
-1.05
40
0.015748
0
CIRCLE
8
BLACK
10
5.73307
20
-1.67323
40
0.015748
0
CIRCLE
8
BLACK
10
5.73307
20
-1.77323
40
0.015748
0
CIRCLE
8
BLACK
10
5.73307
20
-1.87323
40
0.015748
0
CIRCLE
8
BLACK
10
5.73307
20
-1.97323
40
0.015748
0
CIRCLE
8
BLACK
10
5.73307
20
-2.07323
40
0.015748
0
CIRCLE
8
BLACK
10
5.73307
20
-2.17323
40
0.015748
0
CIRCLE
8
BLACK
10
5.73307
20
-2.27323
40
0.015748
0
CIRCLE
8
BLACK
10
5.73307
20
-3.75984
40
0.015748
0
CIRCLE
8
BLACK
10
5.73307
20
-3.85984
40
0.015748
0
CIRCLE
8
BLACK
10
5.73307
20
-3.95984
40
0.015748
0
CIRCLE
8
BLACK
10
5.73307
20
-4.05984
40
0.015748
0
CIRCLE
8
BLACK
10
5.73307
20
-4.15984
40
0.015748
0
CIRCLE
8
BLACK
10
5.73307
20
-4.25984
40
0.015748
0
CIRCLE
8
BLACK
10
5.73307
20
-4.35984
40
0.015748
0
CIRCLE
8
BLACK
10
5.73307
20
-5.31496
40
0.015748
0
CIRCLE
8
BLACK
10
5.73307
20
-5.41496
40
0.015748
0
CIRCLE
8
BLACK
10
5.73307
20
-5.51496
40
0.015748
0
CIRCLE
8
BLACK
10
5.73307
20
-5.61496
40
0.015748
0
CIRCLE
8
BLACK
10
5.73307
20
-5.71496
40
0.015748
0
CIRCLE
8
BLACK
10
5.73307
20
-5.81496
40
0.015748
0
CIRCLE
8
BLACK
10
5.73307
20
-5.91496
40
0.015748
0
CIRCLE
8
BLACK
10
5.73307
20
-6.01496
40
0.015748
0
CIRCLE
8
BLACK
10
5.755
20
-3.675
40
0.015748
0
CIRCLE
8
BLACK
10
5.775
20
-5.2
40
0.015748
0
CIRCLE
8
BLACK
10
5.8
20
-2.725
40
0.015748
0
CIRCLE
8
BLACK
10
5.825
20
-1.4
40
0.015748
0
CIRCLE
8
BLACK
10
5.875
20
-1.88346
40
0.015748
0
CIRCLE
8
BLACK
10
5.875
20
-2.28346
40
0.015748
0
CIRCLE
8
BLACK
10
5.925
20
-2.475
40
0.015748
0
CIRCLE
8
BLACK
10
6
20
-1.88346
40
0.015748
0
CIRCLE
8
BLACK
10
6
20
-2.28346
40
0.015748
0
CIRCLE
8
BLACK
10
6.025
20
-6.45
40
0.015748
0
CIRCLE
8
BLACK
10
6.14173
20
-1.67323
40
0.015748
0
CIRCLE
8
BLACK
10
6.14173
20
-1.77323
40
0.015748
0
CIRCLE
8
BLACK
10
6.14173
20
-1.87323
40
0.015748
0
CIRCLE
8
BLACK
10
6.14173
20
-1.97323
40
0.015748
0
CIRCLE
8
BLACK
10
6.14173
20
-2.07323
40
0.015748
0
CIRCLE
8
BLACK
10
6.14173
20
-2.17323
40
0.015748
0
CIRCLE
8
BLACK
10
6.14173
20
-2.27323
40
0.015748
0
CIRCLE
8
BLACK
10
6.15
20
-2.475
40
0.015748
0
CIRCLE
8
BLACK
10
6.225
20
-2.725
40
0.015748
0
CIRCLE
8
BLACK
10
6.225
20
-6.525
40
0.015748
0
CIRCLE
8
BLACK
10
6.25
20
-4.675
40
0.015748
0
CIRCLE
8
BLACK
10
6.275
20
-4.475
40
0.015748
0
CIRCLE
8
BLACK
10
6.3
20
-2.875
40
0.015748
0
CIRCLE
8
BLACK
10
6.375
20
-4.9
40
0.015748
0
CIRCLE
8
BLACK
10
6.44173
20
-1.67323
40
0.015748
0
CIRCLE
8
BLACK
10
6.44173
20
-1.77323
40
0.015748
0
CIRCLE
8
BLACK
10
6.44173
20
-1.87323
40
0.015748
0
CIRCLE
8
BLACK
10
6.44173
20
-1.97323
40
0.015748
0
CIRCLE
8
BLACK
10
6.44173
20
-2.07323
40
0.015748
0
CIRCLE
8
BLACK
10
6.44173
20
-2.17323
40
0.015748
0
CIRCLE
8
BLACK
10
6.44173
20
-2.27323
40
0.015748
0
CIRCLE
8
BLACK
10
6.4565
20
-1.575
40
0.015748
0
CIRCLE
8
BLACK
10
6.475
20
-2.875
40
0.015748
0
CIRCLE
8
BLACK
10
6.5
20
-4.05
40
0.015748
0
CIRCLE
8
BLACK
10
6.525
20
-4.75
40
0.015748
0
CIRCLE
8
BLACK
10
6.55
20
-2.475
40
0.015748
0
CIRCLE
8
BLACK
10
6.5748
20
-1.88346
40
0.015748
0
CIRCLE
8
BLACK
10
6.5748
20
-2.28346
40
0.015748
0
CIRCLE
8
BLACK
10
6.575
20
-3.25
40
0.015748
0
CIRCLE
8
BLACK
10
6.625
20
-2.725
40
0.015748
0
CIRCLE
8
BLACK
10
6.625
20
-5.325
40
0.015748
0
CIRCLE
8
BLACK
10
6.69291
20
-3.11024
40
0.015748
0
CIRCLE
8
BLACK
10
6.725
20
-3.575
40
0.015748
0
CIRCLE
8
BLACK
10
6.725
20
-5.475
40
0.015748
0
CIRCLE
8
BLACK
10
6.725
20
-5.8
40
0.015748
0
CIRCLE
8
BLACK
10
6.75
20
-4.05
40
0.015748
0
CIRCLE
8
BLACK
10
6.78543
20
-2.95
40
0.015748
0
CIRCLE
8
BLACK
10
6.85
20
-2.575
40
0.015748
0
CIRCLE
8
BLACK
10
6.925
20
-6.125
40
0.015748
0
CIRCLE
8
BLACK
10
6.925
20
-6.525
40
0.015748
0
CIRCLE
8
BLACK
10
6.94882
20
-1.67323
40
0.015748
0
CIRCLE
8
BLACK
10
6.94882
20
-1.77323
40
0.015748
0
CIRCLE
8
BLACK
10
6.94882
20
-1.87323
40
0.015748
0
CIRCLE
8
BLACK
10
6.94882
20
-1.97323
40
0.015748
0
CIRCLE
8
BLACK
10
6.94882
20
-2.07323
40
0.015748
0
CIRCLE
8
BLACK
10
6.94882
20
-2.17323
40
0.015748
0
CIRCLE
8
BLACK
10
6.94882
20
-2.27323
40
0.015748
0
CIRCLE
8
BLACK
10
6.94882
20
-3.75984
40
0.015748
0
CIRCLE
8
BLACK
10
6.94882
20
-3.85984
40
0.015748
0
CIRCLE
8
BLACK
10
6.94882
20
-3.95984
40
0.015748
0
CIRCLE
8
BLACK
10
6.94882
20
-4.05984
40
0.015748
0
CIRCLE
8
BLACK
10
6.94882
20
-4.15984
40
0.015748
0
CIRCLE
8
BLACK
10
6.94882
20
-4.25984
40
0.015748
0
CIRCLE
8
BLACK
10
6.94882
20
-4.35984
40
0.015748
0
CIRCLE
8
BLACK
10
6.94882
20
-5.31496
40
0.015748
0
CIRCLE
8
BLACK
10
6.94882
20
-5.41496
40
0.015748
0
CIRCLE
8
BLACK
10
6.94882
20
-5.51496
40
0.015748
0
CIRCLE
8
BLACK
10
6.94882
20
-5.61496
40
0.015748
0
CIRCLE
8
BLACK
10
6.94882
20
-5.71496
40
0.015748
0
CIRCLE
8
BLACK
10
6.94882
20
-5.81496
40
0.015748
0
CIRCLE
8
BLACK
10
6.94882
20
-5.91496
40
0.015748
0
CIRCLE
8
BLACK
10
6.95
20
-4.575
40
0.015748
0
CIRCLE
8
BLACK
10
6.95
20
-4.975
40
0.015748
0
CIRCLE
8
BLACK
10
6.95799
20
-6.00799
40
0.015748
0
CIRCLE
8
BLACK
10
7.03681
20
-2.475
40
0.015748
0
CIRCLE
8
BLACK
10
7.24882
20
-1.67323
40
0.015748
0
CIRCLE
8
BLACK
10
7.24882
20
-1.77323
40
0.015748
0
CIRCLE
8
BLACK
10
7.24882
20
-1.87323
40
0.015748
0
CIRCLE
8
BLACK
10
7.24882
20
-1.97323
40
0.015748
0
CIRCLE
8
BLACK
10
7.24882
20
-2.07323
40
0.015748
0
CIRCLE
8
BLACK
10
7.24882
20
-2.17323
40
0.015748
0
CIRCLE
8
BLACK
10
7.24882
20
-2.27323
40
0.015748
0
CIRCLE
8
BLACK
10
7.24882
20
-3.75984
40
0.015748
0
CIRCLE
8
BLACK
10
7.24882
20
-3.85984
40
0.015748
0
CIRCLE
8
BLACK
10
7.24882
20
-3.95984
40
0.015748
0
CIRCLE
8
BLACK
10
7.24882
20
-4.05984
40
0.015748
0
CIRCLE
8
BLACK
10
7.24882
20
-4.15984
40
0.015748
0
CIRCLE
8
BLACK
10
7.24882
20
-4.25984
40
0.015748
0
CIRCLE
8
BLACK
10
7.24882
20
-4.35984
40
0.015748
0
CIRCLE
8
BLACK
10
7.24882
20
-5.31496
40
0.015748
0
CIRCLE
8
BLACK
10
7.24882
20
-5.41496
40
0.015748
0
CIRCLE
8
BLACK
10
7.24882
20
-5.51496
40
0.015748
0
CIRCLE
8
BLACK
10
7.24882
20
-5.61496
40
0.015748
0
CIRCLE
8
BLACK
10
7.24882
20
-5.71496
40
0.015748
0
CIRCLE
8
BLACK
10
7.24882
20
-5.81496
40
0.015748
0
CIRCLE
8
BLACK
10
7.24882
20
-5.91496
40
0.015748
0
CIRCLE
8
BLACK
10
7.25
20
-3.675
40
0.015748
0
CIRCLE
8
BLACK
10
7.25
20
-5.075
40
0.015748
0
CIRCLE
8
BLACK
10
7.25
20
-5.2
40
0.015748
0
CIRCLE
8
BLACK
10
7.25
20
-6.45
40
0.015748
0
CIRCLE
8
BLACK
10
7.2561
20
-1.575
40
0.015748
0
CIRCLE
8
BLACK
10
7.325
20
-6.525
40
0.015748
0
CIRCLE
8
BLACK
10
7.35
20
-2.875
40
0.015748
0
CIRCLE
8
BLACK
10
7.35
20
-5.425
40
0.015748
0
CIRCLE
8
BLACK
10
7.425
20
-4.825
40
0.015748
0
CIRCLE
8
BLACK
10
7.425
20
-6.1
40
0.015748
0
CIRCLE
8
BLACK
10
7.5
20
-4.75
40
0.015748
0
CIRCLE
8
BLACK
10
7.575
20
-6.525
40
0.015748
0
CIRCLE
8
BLACK
10
7.7
20
-3.775
40
0.015748
0
CIRCLE
8
BLACK
10
7.7
20
-4.475
40
0.015748
0
CIRCLE
8
BLACK
10
7.75
20
-2.875
40
0.015748
0
CIRCLE
8
BLACK
10
7.84894
20
-4.66791
40
0.015748
0
CIRCLE
8
BLACK
10
7.85
20
-3.325
40
0.015748
0
CIRCLE
8
BLACK
10
7.85
20
-3.775
40
0.015748
0
CIRCLE
8
BLACK
10
7.85
20
-4.475
40
0.015748
0
CIRCLE
8
BLACK
10
7.925
20
-3.025
40
0.015748
0
CIRCLE
8
BLACK
10
8.1
20
-5.425
40
0.015748
0
CIRCLE
8
BLACK
10
8.1
20
-6.275
40
0.015748
0
CIRCLE
8
BLACK
10
8.15
20
-4.9
40
0.015748
0
CIRCLE
8
BLACK
10
8.175
20
-5.8125
40
0.015748
0
CIRCLE
8
BLACK
10
8.18209
20
-5.19941
40
0.015748
0
CIRCLE
8
BLACK
10
8.22
20
-2.475
40
0.015748
0
CIRCLE
8
BLACK
10
8.25972
20
-6.00799
40
0.015748
0
CIRCLE
8
BLACK
10
8.26772
20
-1.67323
40
0.015748
0
CIRCLE
8
BLACK
10
8.26772
20
-1.77323
40
0.015748
0
CIRCLE
8
BLACK
10
8.26772
20
-1.87323
40
0.015748
0
CIRCLE
8
BLACK
10
8.26772
20
-1.97323
40
0.015748
0
CIRCLE
8
BLACK
10
8.26772
20
-2.07323
40
0.015748
0
CIRCLE
8
BLACK
10
8.26772
20
-2.17323
40
0.015748
0
CIRCLE
8
BLACK
10
8.26772
20
-2.27323
40
0.015748
0
CIRCLE
8
BLACK
10
8.26772
20
-3.75984
40
0.015748
0
CIRCLE
8
BLACK
10
8.26772
20
-3.85984
40
0.015748
0
CIRCLE
8
BLACK
10
8.26772
20
-3.95984
40
0.015748
0
CIRCLE
8
BLACK
10
8.26772
20
-4.05984
40
0.015748
0
CIRCLE
8
BLACK
10
8.26772
20
-4.15984
40
0.015748
0
CIRCLE
8
BLACK
10
8.26772
20
-4.25984
40
0.015748
0
CIRCLE
8
BLACK
10
8.26772
20
-4.35984
40
0.015748
0
CIRCLE
8
BLACK
10
8.26772
20
-5.31496
40
0.015748
0
CIRCLE
8
BLACK
10
8.26772
20
-5.41496
40
0.015748
0
CIRCLE
8
BLACK
10
8.26772
20
-5.51496
40
0.015748
0
CIRCLE
8
BLACK
10
8.26772
20
-5.61496
40
0.015748
0
CIRCLE
8
BLACK
10
8.26772
20
-5.71496
40
0.015748
0
CIRCLE
8
BLACK
10
8.26772
20
-5.81496
40
0.015748
0
CIRCLE
8
BLACK
10
8.26772
20
-5.91496
40
0.015748
0
CIRCLE
8
BLACK
10
8.27
20
-4.575
40
0.015748
0
CIRCLE
8
BLACK
10
8.275
20
-3.5
40
0.015748
0
CIRCLE
8
BLACK
10
8.275
20
-6.215
40
0.015748
0
CIRCLE
8
BLACK
10
8.4
20
-2.875
40
0.015748
0
CIRCLE
8
BLACK
10
8.525
20
-2.65
40
0.015748
0
CIRCLE
8
BLACK
10
8.55
20
-4.75
40
0.015748
0
CIRCLE
8
BLACK
10
8.56772
20
-1.67323
40
0.015748
0
CIRCLE
8
BLACK
10
8.56772
20
-1.77323
40
0.015748
0
CIRCLE
8
BLACK
10
8.56772
20
-1.87323
40
0.015748
0
CIRCLE
8
BLACK
10
8.56772
20
-1.97323
40
0.015748
0
CIRCLE
8
BLACK
10
8.56772
20
-2.07323
40
0.015748
0
CIRCLE
8
BLACK
10
8.56772
20
-2.17323
40
0.015748
0
CIRCLE
8
BLACK
10
8.56772
20
-2.27323
40
0.015748
0
CIRCLE
8
BLACK
10
8.56772
20
-3.75984
40
0.015748
0
CIRCLE
8
BLACK
10
8.56772
20
-3.85984
40
0.015748
0
CIRCLE
8
BLACK
10
8.56772
20
-3.95984
40
0.015748
0
CIRCLE
8
BLACK
10
8.56772
20
-4.05984
40
0.015748
0
CIRCLE
8
BLACK
10
8.56772
20
-4.15984
40
0.015748
0
CIRCLE
8
BLACK
10
8.56772
20
-4.25984
40
0.015748
0
CIRCLE
8
BLACK
10
8.56772
20
-4.35984
40
0.015748
0
CIRCLE
8
BLACK
10
8.56772
20
-5.31496
40
0.015748
0
CIRCLE
8
BLACK
10
8.56772
20
-5.41496
40
0.015748
0
CIRCLE
8
BLACK
10
8.56772
20
-5.51496
40
0.015748
0
CIRCLE
8
BLACK
10
8.56772
20
-5.61496
40
0.015748
0
CIRCLE
8
BLACK
10
8.56772
20
-5.71496
40
0.015748
0
CIRCLE
8
BLACK
10
8.56772
20
-5.81496
40
0.015748
0
CIRCLE
8
BLACK
10
8.56772
20
-5.91496
40
0.015748
0
CIRCLE
8
BLACK
10
8.575
20
-1.575
40
0.015748
0
CIRCLE
8
BLACK
10
8.575
20
-4.975
40
0.015748
0
CIRCLE
8
BLACK
10
8.58
20
-3.675
40
0.015748
0
CIRCLE
8
BLACK
10
8.6
20
-4.825
40
0.015748
0
CIRCLE
8
BLACK
10
8.605
20
-5.075
40
0.015748
0
CIRCLE
8
BLACK
10
8.62516
20
-2.8
40
0.015748
0
CIRCLE
8
BLACK
10
8.675
20
-6.1
40
0.015748
0
CIRCLE
8
BLACK
10
8.725
20
-2.875
40
0.015748
0
CIRCLE
8
BLACK
10
8.875
20
-2.875
40
0.015748
0
CIRCLE
8
BLACK
10
8.875
20
-6.525
40
0.015748
0
CIRCLE
8
BLACK
10
8.975
20
-2.475
40
0.015748
0
CIRCLE
8
BLACK
10
8.975
20
-4.575
40
0.015748
0
CIRCLE
8
BLACK
10
9.085
20
-2.37
40
0.015748
0
CIRCLE
8
BLACK
10
9.1025
20
-5.6025
40
0.015748
0
CIRCLE
8
BLACK
10
9.11701
20
-4.58299
40
0.015748
0
CIRCLE
8
BLACK
10
9.11701
20
-6.00799
40
0.015748
0
CIRCLE
8
BLACK
10
9.27301
20
-5.07301
40
0.015748
0
CIRCLE
8
BLACK
10
9.275
20
-1.575
40
0.015748
0
CIRCLE
8
BLACK
10
9.275
20
-3.675
40
0.015748
0
CIRCLE
8
BLACK
10
9.28185
20
-2.37
40
0.015748
0
CIRCLE
8
BLACK
10
9.29935
20
-5.6025
40
0.015748
0
LINE
8
BLACK
6
CONTINUOUS
10
1.1
20
-4.05531
11
1.1
21
-4.09469
0
LINE
8
BLACK
6
CONTINUOUS
10
1.08031
20
-4.075
11
1.11969
21
-4.075
0
LINE
8
BLACK
6
CONTINUOUS
10
1.1
20
-4.28976
11
1.1
21
-4.32913
0
LINE
8
BLACK
6
CONTINUOUS
10
1.08031
20
-4.30945
11
1.11969
21
-4.30945
0
LINE
8
BLACK
6
CONTINUOUS
10
1.15
20
-1.13031
11
1.15
21
-1.16969
0
LINE
8
BLACK
6
CONTINUOUS
10
1.13031
20
-1.15
11
1.16969
21
-1.15
0
LINE
8
BLACK
6
CONTINUOUS
10
4.35
20
-1.30531
11
4.35
21
-1.34469
0
LINE
8
BLACK
6
CONTINUOUS
10
4.33031
20
-1.325
11
4.36969
21
-1.325
0
LINE
8
BLACK
6
CONTINUOUS
10
4.425
20
-1.10531
11
4.425
21
-1.14469
0
LINE
8
BLACK
6
CONTINUOUS
10
4.40531
20
-1.125
11
4.44469
21
-1.125
0
LINE
8
BLACK
6
CONTINUOUS
10
6.825
20
-4.13386
11
6.825
21
-4.17323
0
LINE
8
BLACK
6
CONTINUOUS
10
6.80531
20
-4.15354
11
6.84469
21
-4.15354
0
LINE
8
BLACK
6
CONTINUOUS
10
0.879499
20
-7.27095
11
0.879499
21
-7.15284
0
LINE
8
BLACK
6
CONTINUOUS
10
0.879499
20
-7.15284
11
0.907621
21
-7.15284
0
LINE
8
BLACK
6
CONTINUOUS
10
0.907621
20
-7.15284
11
0.924494
21
-7.15846
0
LINE
8
BLACK
6
CONTINUOUS
10
0.924494
20
-7.15846
11
0.935742
21
-7.16971
0
LINE
8
BLACK
6
CONTINUOUS
10
0.935742
20
-7.16971
11
0.941367
21
-7.18096
0
LINE
8
BLACK
6
CONTINUOUS
10
0.941367
20
-7.18096
11
0.946991
21
-7.20346
0
LINE
8
BLACK
6
CONTINUOUS
10
0.946991
20
-7.20346
11
0.946991
21
-7.22033
0
LINE
8
BLACK
6
CONTINUOUS
10
0.946991
20
-7.22033
11
0.941367
21
-7.24283
0
LINE
8
BLACK
6
CONTINUOUS
10
0.941367
20
-7.24283
11
0.935742
21
-7.25408
0
LINE
8
BLACK
6
CONTINUOUS
10
0.935742
20
-7.25408
11
0.924494
21
-7.26533
0
LINE
8
BLACK
6
CONTINUOUS
10
0.924494
20
-7.26533
11
0.907621
21
-7.27095
0
LINE
8
BLACK
6
CONTINUOUS
10
0.907621
20
-7.27095
11
0.879499
21
-7.27095
0
LINE
8
BLACK
6
CONTINUOUS
10
0.99761
20
-7.27095
11
0.99761
21
-7.19221
0
LINE
8
BLACK
6
CONTINUOUS
10
0.99761
20
-7.21471
11
1.00323
21
-7.20346
0
LINE
8
BLACK
6
CONTINUOUS
10
1.00323
20
-7.20346
11
1.00886
21
-7.19783
0
LINE
8
BLACK
6
CONTINUOUS
10
1.00886
20
-7.19783
11
1.02011
21
-7.19221
0
LINE
8
BLACK
6
CONTINUOUS
10
1.02011
20
-7.19221
11
1.03136
21
-7.19221
0
LINE
8
BLACK
6
CONTINUOUS
10
1.07073
20
-7.27095
11
1.07073
21
-7.19221
0
LINE
8
BLACK
6
CONTINUOUS
10
1.07073
20
-7.15284
11
1.0651
21
-7.15846
0
LINE
8
BLACK
6
CONTINUOUS
10
1.0651
20
-7.15846
11
1.07073
21
-7.16409
0
LINE
8
BLACK
6
CONTINUOUS
10
1.07073
20
-7.16409
11
1.07635
21
-7.15846
0
LINE
8
BLACK
6
CONTINUOUS
10
1.07635
20
-7.15846
11
1.07073
21
-7.15284
0
LINE
8
BLACK
6
CONTINUOUS
10
1.07073
20
-7.15284
11
1.07073
21
-7.16409
0
LINE
8
BLACK
6
CONTINUOUS
10
1.14384
20
-7.27095
11
1.13259
21
-7.26533
0
LINE
8
BLACK
6
CONTINUOUS
10
1.13259
20
-7.26533
11
1.12697
21
-7.25408
0
LINE
8
BLACK
6
CONTINUOUS
10
1.12697
20
-7.25408
11
1.12697
21
-7.15284
0
LINE
8
BLACK
6
CONTINUOUS
10
1.20571
20
-7.27095
11
1.19446
21
-7.26533
0
LINE
8
BLACK
6
CONTINUOUS
10
1.19446
20
-7.26533
11
1.18884
21
-7.25408
0
LINE
8
BLACK
6
CONTINUOUS
10
1.18884
20
-7.25408
11
1.18884
21
-7.15284
0
LINE
8
BLACK
6
CONTINUOUS
10
1.34069
20
-7.27095
11
1.34069
21
-7.15284
0
LINE
8
BLACK
6
CONTINUOUS
10
1.34069
20
-7.15284
11
1.38006
21
-7.2372
0
LINE
8
BLACK
6
CONTINUOUS
10
1.38006
20
-7.2372
11
1.41943
21
-7.15284
0
LINE
8
BLACK
6
CONTINUOUS
10
1.41943
20
-7.15284
11
1.41943
21
-7.27095
0
LINE
8
BLACK
6
CONTINUOUS
10
1.52629
20
-7.27095
11
1.52629
21
-7.20908
0
LINE
8
BLACK
6
CONTINUOUS
10
1.52629
20
-7.20908
11
1.52067
21
-7.19783
0
LINE
8
BLACK
6
CONTINUOUS
10
1.52067
20
-7.19783
11
1.50942
21
-7.19221
0
LINE
8
BLACK
6
CONTINUOUS
10
1.50942
20
-7.19221
11
1.48692
21
-7.19221
0
LINE
8
BLACK
6
CONTINUOUS
10
1.48692
20
-7.19221
11
1.47567
21
-7.19783
0
LINE
8
BLACK
6
CONTINUOUS
10
1.52629
20
-7.26533
11
1.51504
21
-7.27095
0
LINE
8
BLACK
6
CONTINUOUS
10
1.51504
20
-7.27095
11
1.48692
21
-7.27095
0
LINE
8
BLACK
6
CONTINUOUS
10
1.48692
20
-7.27095
11
1.47567
21
-7.26533
0
LINE
8
BLACK
6
CONTINUOUS
10
1.47567
20
-7.26533
11
1.47005
21
-7.25408
0
LINE
8
BLACK
6
CONTINUOUS
10
1.47005
20
-7.25408
11
1.47005
21
-7.24283
0
LINE
8
BLACK
6
CONTINUOUS
10
1.47005
20
-7.24283
11
1.47567
21
-7.23158
0
LINE
8
BLACK
6
CONTINUOUS
10
1.47567
20
-7.23158
11
1.48692
21
-7.22596
0
LINE
8
BLACK
6
CONTINUOUS
10
1.48692
20
-7.22596
11
1.51504
21
-7.22596
0
LINE
8
BLACK
6
CONTINUOUS
10
1.51504
20
-7.22596
11
1.52629
21
-7.22033
0
LINE
8
BLACK
6
CONTINUOUS
10
1.58254
20
-7.19221
11
1.58254
21
-7.31032
0
LINE
8
BLACK
6
CONTINUOUS
10
1.58254
20
-7.19783
11
1.59379
21
-7.19221
0
LINE
8
BLACK
6
CONTINUOUS
10
1.59379
20
-7.19221
11
1.61628
21
-7.19221
0
LINE
8
BLACK
6
CONTINUOUS
10
1.61628
20
-7.19221
11
1.62753
21
-7.19783
0
LINE
8
BLACK
6
CONTINUOUS
10
1.62753
20
-7.19783
11
1.63316
21
-7.20346
0
LINE
8
BLACK
6
CONTINUOUS
10
1.63316
20
-7.20346
11
1.63878
21
-7.21471
0
LINE
8
BLACK
6
CONTINUOUS
10
1.63878
20
-7.21471
11
1.63878
21
-7.24845
0
LINE
8
BLACK
6
CONTINUOUS
10
1.63878
20
-7.24845
11
1.63316
21
-7.2597
0
LINE
8
BLACK
6
CONTINUOUS
10
1.63316
20
-7.2597
11
1.62753
21
-7.26533
0
LINE
8
BLACK
6
CONTINUOUS
10
1.62753
20
-7.26533
11
1.61628
21
-7.27095
0
LINE
8
BLACK
6
CONTINUOUS
10
1.61628
20
-7.27095
11
1.59379
21
-7.27095
0
LINE
8
BLACK
6
CONTINUOUS
10
1.59379
20
-7.27095
11
1.58254
21
-7.26533
0
LINE
8
BLACK
6
CONTINUOUS
10
1.6894
20
-7.2597
11
1.69502
21
-7.26533
0
LINE
8
BLACK
6
CONTINUOUS
10
1.69502
20
-7.26533
11
1.6894
21
-7.27095
0
LINE
8
BLACK
6
CONTINUOUS
10
1.6894
20
-7.27095
11
1.68377
21
-7.26533
0
LINE
8
BLACK
6
CONTINUOUS
10
1.68377
20
-7.26533
11
1.6894
21
-7.2597
0
LINE
8
BLACK
6
CONTINUOUS
10
1.6894
20
-7.2597
11
1.6894
21
-7.27095
0
LINE
8
BLACK
6
CONTINUOUS
10
1.6894
20
-7.19783
11
1.69502
21
-7.20346
0
LINE
8
BLACK
6
CONTINUOUS
10
1.69502
20
-7.20346
11
1.6894
21
-7.20908
0
LINE
8
BLACK
6
CONTINUOUS
10
1.6894
20
-7.20908
11
1.68377
21
-7.20346
0
LINE
8
BLACK
6
CONTINUOUS
10
1.68377
20
-7.20346
11
1.6894
21
-7.19783
0
LINE
8
BLACK
6
CONTINUOUS
10
1.6894
20
-7.19783
11
1.6894
21
-7.20908
0
LINE
8
BLACK
6
CONTINUOUS
10
0.739173
20
-7.45177
11
0.766732
21
-7.47933
0
LINE
8
BLACK
6
CONTINUOUS
10
0.766732
20
-7.45177
11
0.739173
21
-7.47933
0
LINE
8
BLACK
6
CONTINUOUS
10
0.901997
20
-7.40087
11
0.913245
21
-7.40087
0
LINE
8
BLACK
6
CONTINUOUS
10
0.913245
20
-7.40087
11
0.924494
21
-7.4065
0
LINE
8
BLACK
6
CONTINUOUS
10
0.924494
20
-7.4065
11
0.930118
21
-7.41212
0
LINE
8
BLACK
6
CONTINUOUS
10
0.930118
20
-7.41212
11
0.935742
21
-7.42337
0
LINE
8
BLACK
6
CONTINUOUS
10
0.935742
20
-7.42337
11
0.941367
21
-7.44587
0
LINE
8
BLACK
6
CONTINUOUS
10
0.941367
20
-7.44587
11
0.941367
21
-7.47399
0
LINE
8
BLACK
6
CONTINUOUS
10
0.941367
20
-7.47399
11
0.935742
21
-7.49648
0
LINE
8
BLACK
6
CONTINUOUS
10
0.935742
20
-7.49648
11
0.930118
21
-7.50773
0
LINE
8
BLACK
6
CONTINUOUS
10
0.930118
20
-7.50773
11
0.924494
21
-7.51336
0
LINE
8
BLACK
6
CONTINUOUS
10
0.924494
20
-7.51336
11
0.913245
21
-7.51898
0
LINE
8
BLACK
6
CONTINUOUS
10
0.913245
20
-7.51898
11
0.901997
21
-7.51898
0
LINE
8
BLACK
6
CONTINUOUS
10
0.901997
20
-7.51898
11
0.890748
21
-7.51336
0
LINE
8
BLACK
6
CONTINUOUS
10
0.890748
20
-7.51336
11
0.885124
21
-7.50773
0
LINE
8
BLACK
6
CONTINUOUS
10
0.885124
20
-7.50773
11
0.879499
21
-7.49648
0
LINE
8
BLACK
6
CONTINUOUS
10
0.879499
20
-7.49648
11
0.873875
21
-7.47399
0
LINE
8
BLACK
6
CONTINUOUS
10
0.873875
20
-7.47399
11
0.873875
21
-7.44587
0
LINE
8
BLACK
6
CONTINUOUS
10
0.873875
20
-7.44587
11
0.879499
21
-7.42337
0
LINE
8
BLACK
6
CONTINUOUS
10
0.879499
20
-7.42337
11
0.885124
21
-7.41212
0
LINE
8
BLACK
6
CONTINUOUS
10
0.885124
20
-7.41212
11
0.890748
21
-7.4065
0
LINE
8
BLACK
6
CONTINUOUS
10
0.890748
20
-7.4065
11
0.901997
21
-7.40087
0
LINE
8
BLACK
6
CONTINUOUS
10
0.991985
20
-7.50773
11
0.99761
21
-7.51336
0
LINE
8
BLACK
6
CONTINUOUS
10
0.99761
20
-7.51336
11
0.991985
21
-7.51898
0
LINE
8
BLACK
6
CONTINUOUS
10
0.991985
20
-7.51898
11
0.986361
21
-7.51336
0
LINE
8
BLACK
6
CONTINUOUS
10
0.986361
20
-7.51336
11
0.991985
21
-7.50773
0
LINE
8
BLACK
6
CONTINUOUS
10
0.991985
20
-7.50773
11
0.991985
21
-7.51898
0
LINE
8
BLACK
6
CONTINUOUS
10
1.03698
20
-7.40087
11
1.11572
21
-7.40087
0
LINE
8
BLACK
6
CONTINUOUS
10
1.11572
20
-7.40087
11
1.0651
21
-7.51898
0
LINE
8
BLACK
6
CONTINUOUS
10
1.18321
20
-7.40087
11
1.19446
21
-7.40087
0
LINE
8
BLACK
6
CONTINUOUS
10
1.19446
20
-7.40087
11
1.20571
21
-7.4065
0
LINE
8
BLACK
6
CONTINUOUS
10
1.20571
20
-7.4065
11
1.21133
21
-7.41212
0
LINE
8
BLACK
6
CONTINUOUS
10
1.21133
20
-7.41212
11
1.21696
21
-7.42337
0
LINE
8
BLACK
6
CONTINUOUS
10
1.21696
20
-7.42337
11
1.22258
21
-7.44587
0
LINE
8
BLACK
6
CONTINUOUS
10
1.22258
20
-7.44587
11
1.22258
21
-7.47399
0
LINE
8
BLACK
6
CONTINUOUS
10
1.22258
20
-7.47399
11
1.21696
21
-7.49648
0
LINE
8
BLACK
6
CONTINUOUS
10
1.21696
20
-7.49648
11
1.21133
21
-7.50773
0
LINE
8
BLACK
6
CONTINUOUS
10
1.21133
20
-7.50773
11
1.20571
21
-7.51336
0
LINE
8
BLACK
6
CONTINUOUS
10
1.20571
20
-7.51336
11
1.19446
21
-7.51898
0
LINE
8
BLACK
6
CONTINUOUS
10
1.19446
20
-7.51898
11
1.18321
21
-7.51898
0
LINE
8
BLACK
6
CONTINUOUS
10
1.18321
20
-7.51898
11
1.17196
21
-7.51336
0
LINE
8
BLACK
6
CONTINUOUS
10
1.17196
20
-7.51336
11
1.16634
21
-7.50773
0
LINE
8
BLACK
6
CONTINUOUS
10
1.16634
20
-7.50773
11
1.16071
21
-7.49648
0
LINE
8
BLACK
6
CONTINUOUS
10
1.16071
20
-7.49648
11
1.15509
21
-7.47399
0
LINE
8
BLACK
6
CONTINUOUS
10
1.15509
20
-7.47399
11
1.15509
21
-7.44587
0
LINE
8
BLACK
6
CONTINUOUS
10
1.15509
20
-7.44587
11
1.16071
21
-7.42337
0
LINE
8
BLACK
6
CONTINUOUS
10
1.16071
20
-7.42337
11
1.16634
21
-7.41212
0
LINE
8
BLACK
6
CONTINUOUS
10
1.16634
20
-7.41212
11
1.17196
21
-7.4065
0
LINE
8
BLACK
6
CONTINUOUS
10
1.17196
20
-7.4065
11
1.18321
21
-7.40087
0
LINE
8
BLACK
6
CONTINUOUS
10
1.2957
20
-7.40087
11
1.30695
21
-7.40087
0
LINE
8
BLACK
6
CONTINUOUS
10
1.30695
20
-7.40087
11
1.31819
21
-7.4065
0
LINE
8
BLACK
6
CONTINUOUS
10
1.31819
20
-7.4065
11
1.32382
21
-7.41212
0
LINE
8
BLACK
6
CONTINUOUS
10
1.32382
20
-7.41212
11
1.32944
21
-7.42337
0
LINE
8
BLACK
6
CONTINUOUS
10
1.32944
20
-7.42337
11
1.33507
21
-7.44587
0
LINE
8
BLACK
6
CONTINUOUS
10
1.33507
20
-7.44587
11
1.33507
21
-7.47399
0
LINE
8
BLACK
6
CONTINUOUS
10
1.33507
20
-7.47399
11
1.32944
21
-7.49648
0
LINE
8
BLACK
6
CONTINUOUS
10
1.32944
20
-7.49648
11
1.32382
21
-7.50773
0
LINE
8
BLACK
6
CONTINUOUS
10
1.32382
20
-7.50773
11
1.31819
21
-7.51336
0
LINE
8
BLACK
6
CONTINUOUS
10
1.31819
20
-7.51336
11
1.30695
21
-7.51898
0
LINE
8
BLACK
6
CONTINUOUS
10
1.30695
20
-7.51898
11
1.2957
21
-7.51898
0
LINE
8
BLACK
6
CONTINUOUS
10
1.2957
20
-7.51898
11
1.28445
21
-7.51336
0
LINE
8
BLACK
6
CONTINUOUS
10
1.28445
20
-7.51336
11
1.27882
21
-7.50773
0
LINE
8
BLACK
6
CONTINUOUS
10
1.27882
20
-7.50773
11
1.2732
21
-7.49648
0
LINE
8
BLACK
6
CONTINUOUS
10
1.2732
20
-7.49648
11
1.26758
21
-7.47399
0
LINE
8
BLACK
6
CONTINUOUS
10
1.26758
20
-7.47399
11
1.26758
21
-7.44587
0
LINE
8
BLACK
6
CONTINUOUS
10
1.26758
20
-7.44587
11
1.2732
21
-7.42337
0
LINE
8
BLACK
6
CONTINUOUS
10
1.2732
20
-7.42337
11
1.27882
21
-7.41212
0
LINE
8
BLACK
6
CONTINUOUS
10
1.27882
20
-7.41212
11
1.28445
21
-7.4065
0
LINE
8
BLACK
6
CONTINUOUS
10
1.28445
20
-7.4065
11
1.2957
21
-7.40087
0
LINE
8
BLACK
6
CONTINUOUS
10
1.38569
20
-7.51898
11
1.38569
21
-7.44024
0
LINE
8
BLACK
6
CONTINUOUS
10
1.38569
20
-7.45149
11
1.39131
21
-7.44587
0
LINE
8
BLACK
6
CONTINUOUS
10
1.39131
20
-7.44587
11
1.40256
21
-7.44024
0
LINE
8
BLACK
6
CONTINUOUS
10
1.40256
20
-7.44024
11
1.41943
21
-7.44024
0
LINE
8
BLACK
6
CONTINUOUS
10
1.41943
20
-7.44024
11
1.43068
21
-7.44587
0
LINE
8
BLACK
6
CONTINUOUS
10
1.43068
20
-7.44587
11
1.4363
21
-7.45711
0
LINE
8
BLACK
6
CONTINUOUS
10
1.4363
20
-7.45711
11
1.4363
21
-7.51898
0
LINE
8
BLACK
6
CONTINUOUS
10
1.4363
20
-7.45711
11
1.44193
21
-7.44587
0
LINE
8
BLACK
6
CONTINUOUS
10
1.44193
20
-7.44587
11
1.45318
21
-7.44024
0
LINE
8
BLACK
6
CONTINUOUS
10
1.45318
20
-7.44024
11
1.47005
21
-7.44024
0
LINE
8
BLACK
6
CONTINUOUS
10
1.47005
20
-7.44024
11
1.4813
21
-7.44587
0
LINE
8
BLACK
6
CONTINUOUS
10
1.4813
20
-7.44587
11
1.48692
21
-7.45711
0
LINE
8
BLACK
6
CONTINUOUS
10
1.48692
20
-7.45711
11
1.48692
21
-7.51898
0
LINE
8
BLACK
6
CONTINUOUS
10
1.54317
20
-7.51898
11
1.54317
21
-7.44024
0
LINE
8
BLACK
6
CONTINUOUS
10
1.54317
20
-7.45149
11
1.54879
21
-7.44587
0
LINE
8
BLACK
6
CONTINUOUS
10
1.54879
20
-7.44587
11
1.56004
21
-7.44024
0
LINE
8
BLACK
6
CONTINUOUS
10
1.56004
20
-7.44024
11
1.57691
21
-7.44024
0
LINE
8
BLACK
6
CONTINUOUS
10
1.57691
20
-7.44024
11
1.58816
21
-7.44587
0
LINE
8
BLACK
6
CONTINUOUS
10
1.58816
20
-7.44587
11
1.59379
21
-7.45711
0
LINE
8
BLACK
6
CONTINUOUS
10
1.59379
20
-7.45711
11
1.59379
21
-7.51898
0
LINE
8
BLACK
6
CONTINUOUS
10
1.59379
20
-7.45711
11
1.59941
21
-7.44587
0
LINE
8
BLACK
6
CONTINUOUS
10
1.59941
20
-7.44587
11
1.61066
21
-7.44024
0
LINE
8
BLACK
6
CONTINUOUS
10
1.61066
20
-7.44024
11
1.62753
21
-7.44024
0
LINE
8
BLACK
6
CONTINUOUS
10
1.62753
20
-7.44024
11
1.63878
21
-7.44587
0
LINE
8
BLACK
6
CONTINUOUS
10
1.63878
20
-7.44587
11
1.6444
21
-7.45711
0
LINE
8
BLACK
6
CONTINUOUS
10
1.6444
20
-7.45711
11
1.6444
21
-7.51898
0
LINE
8
BLACK
6
CONTINUOUS
10
1.875
20
-7.39525
11
1.77376
21
-7.5471
0
LINE
8
BLACK
6
CONTINUOUS
10
2.02686
20
-7.40087
11
2.0381
21
-7.40087
0
LINE
8
BLACK
6
CONTINUOUS
10
2.0381
20
-7.40087
11
2.04935
21
-7.4065
0
LINE
8
BLACK
6
CONTINUOUS
10
2.04935
20
-7.4065
11
2.05498
21
-7.41212
0
LINE
8
BLACK
6
CONTINUOUS
10
2.05498
20
-7.41212
11
2.0606
21
-7.42337
0
LINE
8
BLACK
6
CONTINUOUS
10
2.0606
20
-7.42337
11
2.06623
21
-7.44587
0
LINE
8
BLACK
6
CONTINUOUS
10
2.06623
20
-7.44587
11
2.06623
21
-7.47399
0
LINE
8
BLACK
6
CONTINUOUS
10
2.06623
20
-7.47399
11
2.0606
21
-7.49648
0
LINE
8
BLACK
6
CONTINUOUS
10
2.0606
20
-7.49648
11
2.05498
21
-7.50773
0
LINE
8
BLACK
6
CONTINUOUS
10
2.05498
20
-7.50773
11
2.04935
21
-7.51336
0
LINE
8
BLACK
6
CONTINUOUS
10
2.04935
20
-7.51336
11
2.0381
21
-7.51898
0
LINE
8
BLACK
6
CONTINUOUS
10
2.0381
20
-7.51898
11
2.02686
21
-7.51898
0
LINE
8
BLACK
6
CONTINUOUS
10
2.02686
20
-7.51898
11
2.01561
21
-7.51336
0
LINE
8
BLACK
6
CONTINUOUS
10
2.01561
20
-7.51336
11
2.00998
21
-7.50773
0
LINE
8
BLACK
6
CONTINUOUS
10
2.00998
20
-7.50773
11
2.00436
21
-7.49648
0
LINE
8
BLACK
6
CONTINUOUS
10
2.00436
20
-7.49648
11
1.99873
21
-7.47399
0
LINE
8
BLACK
6
CONTINUOUS
10
1.99873
20
-7.47399
11
1.99873
21
-7.44587
0
LINE
8
BLACK
6
CONTINUOUS
10
1.99873
20
-7.44587
11
2.00436
21
-7.42337
0
LINE
8
BLACK
6
CONTINUOUS
10
2.00436
20
-7.42337
11
2.00998
21
-7.41212
0
LINE
8
BLACK
6
CONTINUOUS
10
2.00998
20
-7.41212
11
2.01561
21
-7.4065
0
LINE
8
BLACK
6
CONTINUOUS
10
2.01561
20
-7.4065
11
2.02686
21
-7.40087
0
LINE
8
BLACK
6
CONTINUOUS
10
2.11684
20
-7.50773
11
2.12247
21
-7.51336
0
LINE
8
BLACK
6
CONTINUOUS
10
2.12247
20
-7.51336
11
2.11684
21
-7.51898
0
LINE
8
BLACK
6
CONTINUOUS
10
2.11684
20
-7.51898
11
2.11122
21
-7.51336
0
LINE
8
BLACK
6
CONTINUOUS
10
2.11122
20
-7.51336
11
2.11684
21
-7.50773
0
LINE
8
BLACK
6
CONTINUOUS
10
2.11684
20
-7.50773
11
2.11684
21
-7.51898
0
LINE
8
BLACK
6
CONTINUOUS
10
2.19558
20
-7.40087
11
2.20683
21
-7.40087
0
LINE
8
BLACK
6
CONTINUOUS
10
2.20683
20
-7.40087
11
2.21808
21
-7.4065
0
LINE
8
BLACK
6
CONTINUOUS
10
2.21808
20
-7.4065
11
2.22371
21
-7.41212
0
LINE
8
BLACK
6
CONTINUOUS
10
2.22371
20
-7.41212
11
2.22933
21
-7.42337
0
LINE
8
BLACK
6
CONTINUOUS
10
2.22933
20
-7.42337
11
2.23495
21
-7.44587
0
LINE
8
BLACK
6
CONTINUOUS
10
2.23495
20
-7.44587
11
2.23495
21
-7.47399
0
LINE
8
BLACK
6
CONTINUOUS
10
2.23495
20
-7.47399
11
2.22933
21
-7.49648
0
LINE
8
BLACK
6
CONTINUOUS
10
2.22933
20
-7.49648
11
2.22371
21
-7.50773
0
LINE
8
BLACK
6
CONTINUOUS
10
2.22371
20
-7.50773
11
2.21808
21
-7.51336
0
LINE
8
BLACK
6
CONTINUOUS
10
2.21808
20
-7.51336
11
2.20683
21
-7.51898
0
LINE
8
BLACK
6
CONTINUOUS
10
2.20683
20
-7.51898
11
2.19558
21
-7.51898
0
LINE
8
BLACK
6
CONTINUOUS
10
2.19558
20
-7.51898
11
2.18434
21
-7.51336
0
LINE
8
BLACK
6
CONTINUOUS
10
2.18434
20
-7.51336
11
2.17871
21
-7.50773
0
LINE
8
BLACK
6
CONTINUOUS
10
2.17871
20
-7.50773
11
2.17309
21
-7.49648
0
LINE
8
BLACK
6
CONTINUOUS
10
2.17309
20
-7.49648
11
2.16746
21
-7.47399
0
LINE
8
BLACK
6
CONTINUOUS
10
2.16746
20
-7.47399
11
2.16746
21
-7.44587
0
LINE
8
BLACK
6
CONTINUOUS
10
2.16746
20
-7.44587
11
2.17309
21
-7.42337
0
LINE
8
BLACK
6
CONTINUOUS
10
2.17309
20
-7.42337
11
2.17871
21
-7.41212
0
LINE
8
BLACK
6
CONTINUOUS
10
2.17871
20
-7.41212
11
2.18434
21
-7.4065
0
LINE
8
BLACK
6
CONTINUOUS
10
2.18434
20
-7.4065
11
2.19558
21
-7.40087
0
LINE
8
BLACK
6
CONTINUOUS
10
2.27995
20
-7.41212
11
2.28557
21
-7.4065
0
LINE
8
BLACK
6
CONTINUOUS
10
2.28557
20
-7.4065
11
2.29682
21
-7.40087
0
LINE
8
BLACK
6
CONTINUOUS
10
2.29682
20
-7.40087
11
2.32494
21
-7.40087
0
LINE
8
BLACK
6
CONTINUOUS
10
2.32494
20
-7.40087
11
2.33619
21
-7.4065
0
LINE
8
BLACK
6
CONTINUOUS
10
2.33619
20
-7.4065
11
2.34182
21
-7.41212
0
LINE
8
BLACK
6
CONTINUOUS
10
2.34182
20
-7.41212
11
2.34744
21
-7.42337
0
LINE
8
BLACK
6
CONTINUOUS
10
2.34744
20
-7.42337
11
2.34744
21
-7.43462
0
LINE
8
BLACK
6
CONTINUOUS
10
2.34744
20
-7.43462
11
2.34182
21
-7.45149
0
LINE
8
BLACK
6
CONTINUOUS
10
2.34182
20
-7.45149
11
2.27433
21
-7.51898
0
LINE
8
BLACK
6
CONTINUOUS
10
2.27433
20
-7.51898
11
2.34744
21
-7.51898
0
LINE
8
BLACK
6
CONTINUOUS
10
2.38681
20
-7.40087
11
2.46555
21
-7.40087
0
LINE
8
BLACK
6
CONTINUOUS
10
2.46555
20
-7.40087
11
2.41493
21
-7.51898
0
LINE
8
BLACK
6
CONTINUOUS
10
2.56116
20
-7.40087
11
2.53867
21
-7.40087
0
LINE
8
BLACK
6
CONTINUOUS
10
2.53867
20
-7.40087
11
2.52742
21
-7.4065
0
LINE
8
BLACK
6
CONTINUOUS
10
2.52742
20
-7.4065
11
2.52179
21
-7.41212
0
LINE
8
BLACK
6
CONTINUOUS
10
2.52179
20
-7.41212
11
2.51055
21
-7.42899
0
LINE
8
BLACK
6
CONTINUOUS
10
2.51055
20
-7.42899
11
2.50492
21
-7.45149
0
LINE
8
BLACK
6
CONTINUOUS
10
2.50492
20
-7.45149
11
2.50492
21
-7.49648
0
LINE
8
BLACK
6
CONTINUOUS
10
2.50492
20
-7.49648
11
2.51055
21
-7.50773
0
LINE
8
BLACK
6
CONTINUOUS
10
2.51055
20
-7.50773
11
2.51617
21
-7.51336
0
LINE
8
BLACK
6
CONTINUOUS
10
2.51617
20
-7.51336
11
2.52742
21
-7.51898
0
LINE
8
BLACK
6
CONTINUOUS
10
2.52742
20
-7.51898
11
2.54992
21
-7.51898
0
LINE
8
BLACK
6
CONTINUOUS
10
2.54992
20
-7.51898
11
2.56116
21
-7.51336
0
LINE
8
BLACK
6
CONTINUOUS
10
2.56116
20
-7.51336
11
2.56679
21
-7.50773
0
LINE
8
BLACK
6
CONTINUOUS
10
2.56679
20
-7.50773
11
2.57241
21
-7.49648
0
LINE
8
BLACK
6
CONTINUOUS
10
2.57241
20
-7.49648
11
2.57241
21
-7.46836
0
LINE
8
BLACK
6
CONTINUOUS
10
2.57241
20
-7.46836
11
2.56679
21
-7.45711
0
LINE
8
BLACK
6
CONTINUOUS
10
2.56679
20
-7.45711
11
2.56116
21
-7.45149
0
LINE
8
BLACK
6
CONTINUOUS
10
2.56116
20
-7.45149
11
2.54992
21
-7.44587
0
LINE
8
BLACK
6
CONTINUOUS
10
2.54992
20
-7.44587
11
2.52742
21
-7.44587
0
LINE
8
BLACK
6
CONTINUOUS
10
2.52742
20
-7.44587
11
2.51617
21
-7.45149
0
LINE
8
BLACK
6
CONTINUOUS
10
2.51617
20
-7.45149
11
2.51055
21
-7.45711
0
LINE
8
BLACK
6
CONTINUOUS
10
2.51055
20
-7.45711
11
2.50492
21
-7.46836
0
LINE
8
BLACK
6
CONTINUOUS
10
2.61741
20
-7.40087
11
2.61741
21
-7.42337
0
LINE
8
BLACK
6
CONTINUOUS
10
2.6624
20
-7.40087
11
2.6624
21
-7.42337
0
LINE
8
BLACK
6
CONTINUOUS
10
2.83675
20
-7.56398
11
2.83113
21
-7.55835
0
LINE
8
BLACK
6
CONTINUOUS
10
2.83113
20
-7.55835
11
2.81988
21
-7.54148
0
LINE
8
BLACK
6
CONTINUOUS
10
2.81988
20
-7.54148
11
2.81426
21
-7.53023
0
LINE
8
BLACK
6
CONTINUOUS
10
2.81426
20
-7.53023
11
2.80863
21
-7.51336
0
LINE
8
BLACK
6
CONTINUOUS
10
2.80863
20
-7.51336
11
2.80301
21
-7.48524
0
LINE
8
BLACK
6
CONTINUOUS
10
2.80301
20
-7.48524
11
2.80301
21
-7.46274
0
LINE
8
BLACK
6
CONTINUOUS
10
2.80301
20
-7.46274
11
2.80863
21
-7.43462
0
LINE
8
BLACK
6
CONTINUOUS
10
2.80863
20
-7.43462
11
2.81426
21
-7.41774
0
LINE
8
BLACK
6
CONTINUOUS
10
2.81426
20
-7.41774
11
2.81988
21
-7.4065
0
LINE
8
BLACK
6
CONTINUOUS
10
2.81988
20
-7.4065
11
2.83113
21
-7.38962
0
LINE
8
BLACK
6
CONTINUOUS
10
2.83113
20
-7.38962
11
2.83675
21
-7.384
0
LINE
8
BLACK
6
CONTINUOUS
10
2.94362
20
-7.51898
11
2.87612
21
-7.51898
0
LINE
8
BLACK
6
CONTINUOUS
10
2.90987
20
-7.51898
11
2.90987
21
-7.40087
0
LINE
8
BLACK
6
CONTINUOUS
10
2.90987
20
-7.40087
11
2.89862
21
-7.41774
0
LINE
8
BLACK
6
CONTINUOUS
10
2.89862
20
-7.41774
11
2.88737
21
-7.42899
0
LINE
8
BLACK
6
CONTINUOUS
10
2.88737
20
-7.42899
11
2.87612
21
-7.43462
0
LINE
8
BLACK
6
CONTINUOUS
10
3.01111
20
-7.45149
11
2.99986
21
-7.44587
0
LINE
8
BLACK
6
CONTINUOUS
10
2.99986
20
-7.44587
11
2.99424
21
-7.44024
0
LINE
8
BLACK
6
CONTINUOUS
10
2.99424
20
-7.44024
11
2.98861
21
-7.42899
0
LINE
8
BLACK
6
CONTINUOUS
10
2.98861
20
-7.42899
11
2.98861
21
-7.42337
0
LINE
8
BLACK
6
CONTINUOUS
10
2.98861
20
-7.42337
11
2.99424
21
-7.41212
0
LINE
8
BLACK
6
CONTINUOUS
10
2.99424
20
-7.41212
11
2.99986
21
-7.4065
0
LINE
8
BLACK
6
CONTINUOUS
10
2.99986
20
-7.4065
11
3.01111
21
-7.40087
0
LINE
8
BLACK
6
CONTINUOUS
10
3.01111
20
-7.40087
11
3.03361
21
-7.40087
0
LINE
8
BLACK
6
CONTINUOUS
10
3.03361
20
-7.40087
11
3.04485
21
-7.4065
0
LINE
8
BLACK
6
CONTINUOUS
10
3.04485
20
-7.4065
11
3.05048
21
-7.41212
0
LINE
8
BLACK
6
CONTINUOUS
10
3.05048
20
-7.41212
11
3.0561
21
-7.42337
0
LINE
8
BLACK
6
CONTINUOUS
10
3.0561
20
-7.42337
11
3.0561
21
-7.42899
0
LINE
8
BLACK
6
CONTINUOUS
10
3.0561
20
-7.42899
11
3.05048
21
-7.44024
0
LINE
8
BLACK
6
CONTINUOUS
10
3.05048
20
-7.44024
11
3.04485
21
-7.44587
0
LINE
8
BLACK
6
CONTINUOUS
10
3.04485
20
-7.44587
11
3.03361
21
-7.45149
0
LINE
8
BLACK
6
CONTINUOUS
10
3.03361
20
-7.45149
11
3.01111
21
-7.45149
0
LINE
8
BLACK
6
CONTINUOUS
10
3.01111
20
-7.45149
11
2.99986
21
-7.45711
0
LINE
8
BLACK
6
CONTINUOUS
10
2.99986
20
-7.45711
11
2.99424
21
-7.46274
0
LINE
8
BLACK
6
CONTINUOUS
10
2.99424
20
-7.46274
11
2.98861
21
-7.47399
0
LINE
8
BLACK
6
CONTINUOUS
10
2.98861
20
-7.47399
11
2.98861
21
-7.49648
0
LINE
8
BLACK
6
CONTINUOUS
10
2.98861
20
-7.49648
11
2.99424
21
-7.50773
0
LINE
8
BLACK
6
CONTINUOUS
10
2.99424
20
-7.50773
11
2.99986
21
-7.51336
0
LINE
8
BLACK
6
CONTINUOUS
10
2.99986
20
-7.51336
11
3.01111
21
-7.51898
0
LINE
8
BLACK
6
CONTINUOUS
10
3.01111
20
-7.51898
11
3.03361
21
-7.51898
0
LINE
8
BLACK
6
CONTINUOUS
10
3.03361
20
-7.51898
11
3.04485
21
-7.51336
0
LINE
8
BLACK
6
CONTINUOUS
10
3.04485
20
-7.51336
11
3.05048
21
-7.50773
0
LINE
8
BLACK
6
CONTINUOUS
10
3.05048
20
-7.50773
11
3.0561
21
-7.49648
0
LINE
8
BLACK
6
CONTINUOUS
10
3.0561
20
-7.49648
11
3.0561
21
-7.47399
0
LINE
8
BLACK
6
CONTINUOUS
10
3.0561
20
-7.47399
11
3.05048
21
-7.46274
0
LINE
8
BLACK
6
CONTINUOUS
10
3.05048
20
-7.46274
11
3.04485
21
-7.45711
0
LINE
8
BLACK
6
CONTINUOUS
10
3.04485
20
-7.45711
11
3.03361
21
-7.45149
0
LINE
8
BLACK
6
CONTINUOUS
10
3.19671
20
-7.51898
11
3.19671
21
-7.40087
0
LINE
8
BLACK
6
CONTINUOUS
10
3.24733
20
-7.51898
11
3.24733
21
-7.45711
0
LINE
8
BLACK
6
CONTINUOUS
10
3.24733
20
-7.45711
11
3.2417
21
-7.44587
0
LINE
8
BLACK
6
CONTINUOUS
10
3.2417
20
-7.44587
11
3.23046
21
-7.44024
0
LINE
8
BLACK
6
CONTINUOUS
10
3.23046
20
-7.44024
11
3.21358
21
-7.44024
0
LINE
8
BLACK
6
CONTINUOUS
10
3.21358
20
-7.44024
11
3.20233
21
-7.44587
0
LINE
8
BLACK
6
CONTINUOUS
10
3.20233
20
-7.44587
11
3.19671
21
-7.45149
0
LINE
8
BLACK
6
CONTINUOUS
10
3.32044
20
-7.51898
11
3.3092
21
-7.51336
0
LINE
8
BLACK
6
CONTINUOUS
10
3.3092
20
-7.51336
11
3.30357
21
-7.50773
0
LINE
8
BLACK
6
CONTINUOUS
10
3.30357
20
-7.50773
11
3.29795
21
-7.49648
0
LINE
8
BLACK
6
CONTINUOUS
10
3.29795
20
-7.49648
11
3.29795
21
-7.46274
0
LINE
8
BLACK
6
CONTINUOUS
10
3.29795
20
-7.46274
11
3.30357
21
-7.45149
0
LINE
8
BLACK
6
CONTINUOUS
10
3.30357
20
-7.45149
11
3.3092
21
-7.44587
0
LINE
8
BLACK
6
CONTINUOUS
10
3.3092
20
-7.44587
11
3.32044
21
-7.44024
0
LINE
8
BLACK
6
CONTINUOUS
10
3.32044
20
-7.44024
11
3.33732
21
-7.44024
0
LINE
8
BLACK
6
CONTINUOUS
10
3.33732
20
-7.44024
11
3.34857
21
-7.44587
0
LINE
8
BLACK
6
CONTINUOUS
10
3.34857
20
-7.44587
11
3.35419
21
-7.45149
0
LINE
8
BLACK
6
CONTINUOUS
10
3.35419
20
-7.45149
11
3.35981
21
-7.46274
0
LINE
8
BLACK
6
CONTINUOUS
10
3.35981
20
-7.46274
11
3.35981
21
-7.49648
0
LINE
8
BLACK
6
CONTINUOUS
10
3.35981
20
-7.49648
11
3.35419
21
-7.50773
0
LINE
8
BLACK
6
CONTINUOUS
10
3.35419
20
-7.50773
11
3.34857
21
-7.51336
0
LINE
8
BLACK
6
CONTINUOUS
10
3.34857
20
-7.51336
11
3.33732
21
-7.51898
0
LINE
8
BLACK
6
CONTINUOUS
10
3.33732
20
-7.51898
11
3.32044
21
-7.51898
0
LINE
8
BLACK
6
CONTINUOUS
10
3.42731
20
-7.51898
11
3.41606
21
-7.51336
0
LINE
8
BLACK
6
CONTINUOUS
10
3.41606
20
-7.51336
11
3.41043
21
-7.50211
0
LINE
8
BLACK
6
CONTINUOUS
10
3.41043
20
-7.50211
11
3.41043
21
-7.40087
0
LINE
8
BLACK
6
CONTINUOUS
10
3.51729
20
-7.51336
11
3.50605
21
-7.51898
0
LINE
8
BLACK
6
CONTINUOUS
10
3.50605
20
-7.51898
11
3.48355
21
-7.51898
0
LINE
8
BLACK
6
CONTINUOUS
10
3.48355
20
-7.51898
11
3.4723
21
-7.51336
0
LINE
8
BLACK
6
CONTINUOUS
10
3.4723
20
-7.51336
11
3.46668
21
-7.50211
0
LINE
8
BLACK
6
CONTINUOUS
10
3.46668
20
-7.50211
11
3.46668
21
-7.45711
0
LINE
8
BLACK
6
CONTINUOUS
10
3.46668
20
-7.45711
11
3.4723
21
-7.44587
0
LINE
8
BLACK
6
CONTINUOUS
10
3.4723
20
-7.44587
11
3.48355
21
-7.44024
0
LINE
8
BLACK
6
CONTINUOUS
10
3.48355
20
-7.44024
11
3.50605
21
-7.44024
0
LINE
8
BLACK
6
CONTINUOUS
10
3.50605
20
-7.44024
11
3.51729
21
-7.44587
0
LINE
8
BLACK
6
CONTINUOUS
10
3.51729
20
-7.44587
11
3.52292
21
-7.45711
0
LINE
8
BLACK
6
CONTINUOUS
10
3.52292
20
-7.45711
11
3.52292
21
-7.46836
0
LINE
8
BLACK
6
CONTINUOUS
10
3.52292
20
-7.46836
11
3.46668
21
-7.47961
0
LINE
8
BLACK
6
CONTINUOUS
10
3.56791
20
-7.51336
11
3.57916
21
-7.51898
0
LINE
8
BLACK
6
CONTINUOUS
10
3.57916
20
-7.51898
11
3.60166
21
-7.51898
0
LINE
8
BLACK
6
CONTINUOUS
10
3.60166
20
-7.51898
11
3.61291
21
-7.51336
0
LINE
8
BLACK
6
CONTINUOUS
10
3.61291
20
-7.51336
11
3.61853
21
-7.50211
0
LINE
8
BLACK
6
CONTINUOUS
10
3.61853
20
-7.50211
11
3.61853
21
-7.49648
0
LINE
8
BLACK
6
CONTINUOUS
10
3.61853
20
-7.49648
11
3.61291
21
-7.48524
0
LINE
8
BLACK
6
CONTINUOUS
10
3.61291
20
-7.48524
11
3.60166
21
-7.47961
0
LINE
8
BLACK
6
CONTINUOUS
10
3.60166
20
-7.47961
11
3.58479
21
-7.47961
0
LINE
8
BLACK
6
CONTINUOUS
10
3.58479
20
-7.47961
11
3.57354
21
-7.47399
0
LINE
8
BLACK
6
CONTINUOUS
10
3.57354
20
-7.47399
11
3.56791
21
-7.46274
0
LINE
8
BLACK
6
CONTINUOUS
10
3.56791
20
-7.46274
11
3.56791
21
-7.45711
0
LINE
8
BLACK
6
CONTINUOUS
10
3.56791
20
-7.45711
11
3.57354
21
-7.44587
0
LINE
8
BLACK
6
CONTINUOUS
10
3.57354
20
-7.44587
11
3.58479
21
-7.44024
0
LINE
8
BLACK
6
CONTINUOUS
10
3.58479
20
-7.44024
11
3.60166
21
-7.44024
0
LINE
8
BLACK
6
CONTINUOUS
10
3.60166
20
-7.44024
11
3.61291
21
-7.44587
0
LINE
8
BLACK
6
CONTINUOUS
10
3.6579
20
-7.56398
11
3.66353
21
-7.55835
0
LINE
8
BLACK
6
CONTINUOUS
10
3.66353
20
-7.55835
11
3.67477
21
-7.54148
0
LINE
8
BLACK
6
CONTINUOUS
10
3.67477
20
-7.54148
11
3.6804
21
-7.53023
0
LINE
8
BLACK
6
CONTINUOUS
10
3.6804
20
-7.53023
11
3.68602
21
-7.51336
0
LINE
8
BLACK
6
CONTINUOUS
10
3.68602
20
-7.51336
11
3.69165
21
-7.48524
0
LINE
8
BLACK
6
CONTINUOUS
10
3.69165
20
-7.48524
11
3.69165
21
-7.46274
0
LINE
8
BLACK
6
CONTINUOUS
10
3.69165
20
-7.46274
11
3.68602
21
-7.43462
0
LINE
8
BLACK
6
CONTINUOUS
10
3.68602
20
-7.43462
11
3.6804
21
-7.41774
0
LINE
8
BLACK
6
CONTINUOUS
10
3.6804
20
-7.41774
11
3.67477
21
-7.4065
0
LINE
8
BLACK
6
CONTINUOUS
10
3.67477
20
-7.4065
11
3.66353
21
-7.38962
0
LINE
8
BLACK
6
CONTINUOUS
10
3.66353
20
-7.38962
11
3.6579
21
-7.384
0
CIRCLE
8
BLACK
10
0.750984
20
-7.62146
40
0.015748
0
LINE
8
BLACK
6
CONTINUOUS
10
0.901997
20
-7.55678
11
0.913245
21
-7.55678
0
LINE
8
BLACK
6
CONTINUOUS
10
0.913245
20
-7.55678
11
0.924494
21
-7.5624
0
LINE
8
BLACK
6
CONTINUOUS
10
0.924494
20
-7.5624
11
0.930118
21
-7.56803
0
LINE
8
BLACK
6
CONTINUOUS
10
0.930118
20
-7.56803
11
0.935742
21
-7.57927
0
LINE
8
BLACK
6
CONTINUOUS
10
0.935742
20
-7.57927
11
0.941367
21
-7.60177
0
LINE
8
BLACK
6
CONTINUOUS
10
0.941367
20
-7.60177
11
0.941367
21
-7.62989
0
LINE
8
BLACK
6
CONTINUOUS
10
0.941367
20
-7.62989
11
0.935742
21
-7.65239
0
LINE
8
BLACK
6
CONTINUOUS
10
0.935742
20
-7.65239
11
0.930118
21
-7.66364
0
LINE
8
BLACK
6
CONTINUOUS
10
0.930118
20
-7.66364
11
0.924494
21
-7.66926
0
LINE
8
BLACK
6
CONTINUOUS
10
0.924494
20
-7.66926
11
0.913245
21
-7.67489
0
LINE
8
BLACK
6
CONTINUOUS
10
0.913245
20
-7.67489
11
0.901997
21
-7.67489
0
LINE
8
BLACK
6
CONTINUOUS
10
0.901997
20
-7.67489
11
0.890748
21
-7.66926
0
LINE
8
BLACK
6
CONTINUOUS
10
0.890748
20
-7.66926
11
0.885124
21
-7.66364
0
LINE
8
BLACK
6
CONTINUOUS
10
0.885124
20
-7.66364
11
0.879499
21
-7.65239
0
LINE
8
BLACK
6
CONTINUOUS
10
0.879499
20
-7.65239
11
0.873875
21
-7.62989
0
LINE
8
BLACK
6
CONTINUOUS
10
0.873875
20
-7.62989
11
0.873875
21
-7.60177
0
LINE
8
BLACK
6
CONTINUOUS
10
0.873875
20
-7.60177
11
0.879499
21
-7.57927
0
LINE
8
BLACK
6
CONTINUOUS
10
0.879499
20
-7.57927
11
0.885124
21
-7.56803
0
LINE
8
BLACK
6
CONTINUOUS
10
0.885124
20
-7.56803
11
0.890748
21
-7.5624
0
LINE
8
BLACK
6
CONTINUOUS
10
0.890748
20
-7.5624
11
0.901997
21
-7.55678
0
LINE
8
BLACK
6
CONTINUOUS
10
0.991985
20
-7.66364
11
0.99761
21
-7.66926
0
LINE
8
BLACK
6
CONTINUOUS
10
0.99761
20
-7.66926
11
0.991985
21
-7.67489
0
LINE
8
BLACK
6
CONTINUOUS
10
0.991985
20
-7.67489
11
0.986361
21
-7.66926
0
LINE
8
BLACK
6
CONTINUOUS
10
0.986361
20
-7.66926
11
0.991985
21
-7.66364
0
LINE
8
BLACK
6
CONTINUOUS
10
0.991985
20
-7.66364
11
0.991985
21
-7.67489
0
LINE
8
BLACK
6
CONTINUOUS
10
1.0651
20
-7.6074
11
1.05385
21
-7.60177
0
LINE
8
BLACK
6
CONTINUOUS
10
1.05385
20
-7.60177
11
1.04823
21
-7.59615
0
LINE
8
BLACK
6
CONTINUOUS
10
1.04823
20
-7.59615
11
1.0426
21
-7.5849
0
LINE
8
BLACK
6
CONTINUOUS
10
1.0426
20
-7.5849
11
1.0426
21
-7.57927
0
LINE
8
BLACK
6
CONTINUOUS
10
1.0426
20
-7.57927
11
1.04823
21
-7.56803
0
LINE
8
BLACK
6
CONTINUOUS
10
1.04823
20
-7.56803
11
1.05385
21
-7.5624
0
LINE
8
BLACK
6
CONTINUOUS
10
1.05385
20
-7.5624
11
1.0651
21
-7.55678
0
LINE
8
BLACK
6
CONTINUOUS
10
1.0651
20
-7.55678
11
1.0876
21
-7.55678
0
LINE
8
BLACK
6
CONTINUOUS
10
1.0876
20
-7.55678
11
1.09885
21
-7.5624
0
LINE
8
BLACK
6
CONTINUOUS
10
1.09885
20
-7.5624
11
1.10447
21
-7.56803
0
LINE
8
BLACK
6
CONTINUOUS
10
1.10447
20
-7.56803
11
1.1101
21
-7.57927
0
LINE
8
BLACK
6
CONTINUOUS
10
1.1101
20
-7.57927
11
1.1101
21
-7.5849
0
LINE
8
BLACK
6
CONTINUOUS
10
1.1101
20
-7.5849
11
1.10447
21
-7.59615
0
LINE
8
BLACK
6
CONTINUOUS
10
1.10447
20
-7.59615
11
1.09885
21
-7.60177
0
LINE
8
BLACK
6
CONTINUOUS
10
1.09885
20
-7.60177
11
1.0876
21
-7.6074
0
LINE
8
BLACK
6
CONTINUOUS
10
1.0876
20
-7.6074
11
1.0651
21
-7.6074
0
LINE
8
BLACK
6
CONTINUOUS
10
1.0651
20
-7.6074
11
1.05385
21
-7.61302
0
LINE
8
BLACK
6
CONTINUOUS
10
1.05385
20
-7.61302
11
1.04823
21
-7.61864
0
LINE
8
BLACK
6
CONTINUOUS
10
1.04823
20
-7.61864
11
1.0426
21
-7.62989
0
LINE
8
BLACK
6
CONTINUOUS
10
1.0426
20
-7.62989
11
1.0426
21
-7.65239
0
LINE
8
BLACK
6
CONTINUOUS
10
1.0426
20
-7.65239
11
1.04823
21
-7.66364
0
LINE
8
BLACK
6
CONTINUOUS
10
1.04823
20
-7.66364
11
1.05385
21
-7.66926
0
LINE
8
BLACK
6
CONTINUOUS
10
1.05385
20
-7.66926
11
1.0651
21
-7.67489
0
LINE
8
BLACK
6
CONTINUOUS
10
1.0651
20
-7.67489
11
1.0876
21
-7.67489
0
LINE
8
BLACK
6
CONTINUOUS
10
1.0876
20
-7.67489
11
1.09885
21
-7.66926
0
LINE
8
BLACK
6
CONTINUOUS
10
1.09885
20
-7.66926
11
1.10447
21
-7.66364
0
LINE
8
BLACK
6
CONTINUOUS
10
1.10447
20
-7.66364
11
1.1101
21
-7.65239
0
LINE
8
BLACK
6
CONTINUOUS
10
1.1101
20
-7.65239
11
1.1101
21
-7.62989
0
LINE
8
BLACK
6
CONTINUOUS
10
1.1101
20
-7.62989
11
1.10447
21
-7.61864
0
LINE
8
BLACK
6
CONTINUOUS
10
1.10447
20
-7.61864
11
1.09885
21
-7.61302
0
LINE
8
BLACK
6
CONTINUOUS
10
1.09885
20
-7.61302
11
1.0876
21
-7.6074
0
LINE
8
BLACK
6
CONTINUOUS
10
1.18321
20
-7.55678
11
1.19446
21
-7.55678
0
LINE
8
BLACK
6
CONTINUOUS
10
1.19446
20
-7.55678
11
1.20571
21
-7.5624
0
LINE
8
BLACK
6
CONTINUOUS
10
1.20571
20
-7.5624
11
1.21133
21
-7.56803
0
LINE
8
BLACK
6
CONTINUOUS
10
1.21133
20
-7.56803
11
1.21696
21
-7.57927
0
LINE
8
BLACK
6
CONTINUOUS
10
1.21696
20
-7.57927
11
1.22258
21
-7.60177
0
LINE
8
BLACK
6
CONTINUOUS
10
1.22258
20
-7.60177
11
1.22258
21
-7.62989
0
LINE
8
BLACK
6
CONTINUOUS
10
1.22258
20
-7.62989
11
1.21696
21
-7.65239
0
LINE
8
BLACK
6
CONTINUOUS
10
1.21696
20
-7.65239
11
1.21133
21
-7.66364
0
LINE
8
BLACK
6
CONTINUOUS
10
1.21133
20
-7.66364
11
1.20571
21
-7.66926
0
LINE
8
BLACK
6
CONTINUOUS
10
1.20571
20
-7.66926
11
1.19446
21
-7.67489
0
LINE
8
BLACK
6
CONTINUOUS
10
1.19446
20
-7.67489
11
1.18321
21
-7.67489
0
LINE
8
BLACK
6
CONTINUOUS
10
1.18321
20
-7.67489
11
1.17196
21
-7.66926
0
LINE
8
BLACK
6
CONTINUOUS
10
1.17196
20
-7.66926
11
1.16634
21
-7.66364
0
LINE
8
BLACK
6
CONTINUOUS
10
1.16634
20
-7.66364
11
1.16071
21
-7.65239
0
LINE
8
BLACK
6
CONTINUOUS
10
1.16071
20
-7.65239
11
1.15509
21
-7.62989
0
LINE
8
BLACK
6
CONTINUOUS
10
1.15509
20
-7.62989
11
1.15509
21
-7.60177
0
LINE
8
BLACK
6
CONTINUOUS
10
1.15509
20
-7.60177
11
1.16071
21
-7.57927
0
LINE
8
BLACK
6
CONTINUOUS
10
1.16071
20
-7.57927
11
1.16634
21
-7.56803
0
LINE
8
BLACK
6
CONTINUOUS
10
1.16634
20
-7.56803
11
1.17196
21
-7.5624
0
LINE
8
BLACK
6
CONTINUOUS
10
1.17196
20
-7.5624
11
1.18321
21
-7.55678
0
LINE
8
BLACK
6
CONTINUOUS
10
1.2957
20
-7.55678
11
1.30695
21
-7.55678
0
LINE
8
BLACK
6
CONTINUOUS
10
1.30695
20
-7.55678
11
1.31819
21
-7.5624
0
LINE
8
BLACK
6
CONTINUOUS
10
1.31819
20
-7.5624
11
1.32382
21
-7.56803
0
LINE
8
BLACK
6
CONTINUOUS
10
1.32382
20
-7.56803
11
1.32944
21
-7.57927
0
LINE
8
BLACK
6
CONTINUOUS
10
1.32944
20
-7.57927
11
1.33507
21
-7.60177
0
LINE
8
BLACK
6
CONTINUOUS
10
1.33507
20
-7.60177
11
1.33507
21
-7.62989
0
LINE
8
BLACK
6
CONTINUOUS
10
1.33507
20
-7.62989
11
1.32944
21
-7.65239
0
LINE
8
BLACK
6
CONTINUOUS
10
1.32944
20
-7.65239
11
1.32382
21
-7.66364
0
LINE
8
BLACK
6
CONTINUOUS
10
1.32382
20
-7.66364
11
1.31819
21
-7.66926
0
LINE
8
BLACK
6
CONTINUOUS
10
1.31819
20
-7.66926
11
1.30695
21
-7.67489
0
LINE
8
BLACK
6
CONTINUOUS
10
1.30695
20
-7.67489
11
1.2957
21
-7.67489
0
LINE
8
BLACK
6
CONTINUOUS
10
1.2957
20
-7.67489
11
1.28445
21
-7.66926
0
LINE
8
BLACK
6
CONTINUOUS
10
1.28445
20
-7.66926
11
1.27882
21
-7.66364
0
LINE
8
BLACK
6
CONTINUOUS
10
1.27882
20
-7.66364
11
1.2732
21
-7.65239
0
LINE
8
BLACK
6
CONTINUOUS
10
1.2732
20
-7.65239
11
1.26758
21
-7.62989
0
LINE
8
BLACK
6
CONTINUOUS
10
1.26758
20
-7.62989
11
1.26758
21
-7.60177
0
LINE
8
BLACK
6
CONTINUOUS
10
1.26758
20
-7.60177
11
1.2732
21
-7.57927
0
LINE
8
BLACK
6
CONTINUOUS
10
1.2732
20
-7.57927
11
1.27882
21
-7.56803
0
LINE
8
BLACK
6
CONTINUOUS
10
1.27882
20
-7.56803
11
1.28445
21
-7.5624
0
LINE
8
BLACK
6
CONTINUOUS
10
1.28445
20
-7.5624
11
1.2957
21
-7.55678
0
LINE
8
BLACK
6
CONTINUOUS
10
1.38569
20
-7.67489
11
1.38569
21
-7.59615
0
LINE
8
BLACK
6
CONTINUOUS
10
1.38569
20
-7.6074
11
1.39131
21
-7.60177
0
LINE
8
BLACK
6
CONTINUOUS
10
1.39131
20
-7.60177
11
1.40256
21
-7.59615
0
LINE
8
BLACK
6
CONTINUOUS
10
1.40256
20
-7.59615
11
1.41943
21
-7.59615
0
LINE
8
BLACK
6
CONTINUOUS
10
1.41943
20
-7.59615
11
1.43068
21
-7.60177
0
LINE
8
BLACK
6
CONTINUOUS
10
1.43068
20
-7.60177
11
1.4363
21
-7.61302
0
LINE
8
BLACK
6
CONTINUOUS
10
1.4363
20
-7.61302
11
1.4363
21
-7.67489
0
LINE
8
BLACK
6
CONTINUOUS
10
1.4363
20
-7.61302
11
1.44193
21
-7.60177
0
LINE
8
BLACK
6
CONTINUOUS
10
1.44193
20
-7.60177
11
1.45318
21
-7.59615
0
LINE
8
BLACK
6
CONTINUOUS
10
1.45318
20
-7.59615
11
1.47005
21
-7.59615
0
LINE
8
BLACK
6
CONTINUOUS
10
1.47005
20
-7.59615
11
1.4813
21
-7.60177
0
LINE
8
BLACK
6
CONTINUOUS
10
1.4813
20
-7.60177
11
1.48692
21
-7.61302
0
LINE
8
BLACK
6
CONTINUOUS
10
1.48692
20
-7.61302
11
1.48692
21
-7.67489
0
LINE
8
BLACK
6
CONTINUOUS
10
1.54317
20
-7.67489
11
1.54317
21
-7.59615
0
LINE
8
BLACK
6
CONTINUOUS
10
1.54317
20
-7.6074
11
1.54879
21
-7.60177
0
LINE
8
BLACK
6
CONTINUOUS
10
1.54879
20
-7.60177
11
1.56004
21
-7.59615
0
LINE
8
BLACK
6
CONTINUOUS
10
1.56004
20
-7.59615
11
1.57691
21
-7.59615
0
LINE
8
BLACK
6
CONTINUOUS
10
1.57691
20
-7.59615
11
1.58816
21
-7.60177
0
LINE
8
BLACK
6
CONTINUOUS
10
1.58816
20
-7.60177
11
1.59379
21
-7.61302
0
LINE
8
BLACK
6
CONTINUOUS
10
1.59379
20
-7.61302
11
1.59379
21
-7.67489
0
LINE
8
BLACK
6
CONTINUOUS
10
1.59379
20
-7.61302
11
1.59941
21
-7.60177
0
LINE
8
BLACK
6
CONTINUOUS
10
1.59941
20
-7.60177
11
1.61066
21
-7.59615
0
LINE
8
BLACK
6
CONTINUOUS
10
1.61066
20
-7.59615
11
1.62753
21
-7.59615
0
LINE
8
BLACK
6
CONTINUOUS
10
1.62753
20
-7.59615
11
1.63878
21
-7.60177
0
LINE
8
BLACK
6
CONTINUOUS
10
1.63878
20
-7.60177
11
1.6444
21
-7.61302
0
LINE
8
BLACK
6
CONTINUOUS
10
1.6444
20
-7.61302
11
1.6444
21
-7.67489
0
LINE
8
BLACK
6
CONTINUOUS
10
1.875
20
-7.55115
11
1.77376
21
-7.70301
0
LINE
8
BLACK
6
CONTINUOUS
10
2.02686
20
-7.55678
11
2.0381
21
-7.55678
0
LINE
8
BLACK
6
CONTINUOUS
10
2.0381
20
-7.55678
11
2.04935
21
-7.5624
0
LINE
8
BLACK
6
CONTINUOUS
10
2.04935
20
-7.5624
11
2.05498
21
-7.56803
0
LINE
8
BLACK
6
CONTINUOUS
10
2.05498
20
-7.56803
11
2.0606
21
-7.57927
0
LINE
8
BLACK
6
CONTINUOUS
10
2.0606
20
-7.57927
11
2.06623
21
-7.60177
0
LINE
8
BLACK
6
CONTINUOUS
10
2.06623
20
-7.60177
11
2.06623
21
-7.62989
0
LINE
8
BLACK
6
CONTINUOUS
10
2.06623
20
-7.62989
11
2.0606
21
-7.65239
0
LINE
8
BLACK
6
CONTINUOUS
10
2.0606
20
-7.65239
11
2.05498
21
-7.66364
0
LINE
8
BLACK
6
CONTINUOUS
10
2.05498
20
-7.66364
11
2.04935
21
-7.66926
0
LINE
8
BLACK
6
CONTINUOUS
10
2.04935
20
-7.66926
11
2.0381
21
-7.67489
0
LINE
8
BLACK
6
CONTINUOUS
10
2.0381
20
-7.67489
11
2.02686
21
-7.67489
0
LINE
8
BLACK
6
CONTINUOUS
10
2.02686
20
-7.67489
11
2.01561
21
-7.66926
0
LINE
8
BLACK
6
CONTINUOUS
10
2.01561
20
-7.66926
11
2.00998
21
-7.66364
0
LINE
8
BLACK
6
CONTINUOUS
10
2.00998
20
-7.66364
11
2.00436
21
-7.65239
0
LINE
8
BLACK
6
CONTINUOUS
10
2.00436
20
-7.65239
11
1.99873
21
-7.62989
0
LINE
8
BLACK
6
CONTINUOUS
10
1.99873
20
-7.62989
11
1.99873
21
-7.60177
0
LINE
8
BLACK
6
CONTINUOUS
10
1.99873
20
-7.60177
11
2.00436
21
-7.57927
0
LINE
8
BLACK
6
CONTINUOUS
10
2.00436
20
-7.57927
11
2.00998
21
-7.56803
0
LINE
8
BLACK
6
CONTINUOUS
10
2.00998
20
-7.56803
11
2.01561
21
-7.5624
0
LINE
8
BLACK
6
CONTINUOUS
10
2.01561
20
-7.5624
11
2.02686
21
-7.55678
0
LINE
8
BLACK
6
CONTINUOUS
10
2.11684
20
-7.66364
11
2.12247
21
-7.66926
0
LINE
8
BLACK
6
CONTINUOUS
10
2.12247
20
-7.66926
11
2.11684
21
-7.67489
0
LINE
8
BLACK
6
CONTINUOUS
10
2.11684
20
-7.67489
11
2.11122
21
-7.66926
0
LINE
8
BLACK
6
CONTINUOUS
10
2.11122
20
-7.66926
11
2.11684
21
-7.66364
0
LINE
8
BLACK
6
CONTINUOUS
10
2.11684
20
-7.66364
11
2.11684
21
-7.67489
0
LINE
8
BLACK
6
CONTINUOUS
10
2.19558
20
-7.55678
11
2.20683
21
-7.55678
0
LINE
8
BLACK
6
CONTINUOUS
10
2.20683
20
-7.55678
11
2.21808
21
-7.5624
0
LINE
8
BLACK
6
CONTINUOUS
10
2.21808
20
-7.5624
11
2.22371
21
-7.56803
0
LINE
8
BLACK
6
CONTINUOUS
10
2.22371
20
-7.56803
11
2.22933
21
-7.57927
0
LINE
8
BLACK
6
CONTINUOUS
10
2.22933
20
-7.57927
11
2.23495
21
-7.60177
0
LINE
8
BLACK
6
CONTINUOUS
10
2.23495
20
-7.60177
11
2.23495
21
-7.62989
0
LINE
8
BLACK
6
CONTINUOUS
10
2.23495
20
-7.62989
11
2.22933
21
-7.65239
0
LINE
8
BLACK
6
CONTINUOUS
10
2.22933
20
-7.65239
11
2.22371
21
-7.66364
0
LINE
8
BLACK
6
CONTINUOUS
10
2.22371
20
-7.66364
11
2.21808
21
-7.66926
0
LINE
8
BLACK
6
CONTINUOUS
10
2.21808
20
-7.66926
11
2.20683
21
-7.67489
0
LINE
8
BLACK
6
CONTINUOUS
10
2.20683
20
-7.67489
11
2.19558
21
-7.67489
0
LINE
8
BLACK
6
CONTINUOUS
10
2.19558
20
-7.67489
11
2.18434
21
-7.66926
0
LINE
8
BLACK
6
CONTINUOUS
10
2.18434
20
-7.66926
11
2.17871
21
-7.66364
0
LINE
8
BLACK
6
CONTINUOUS
10
2.17871
20
-7.66364
11
2.17309
21
-7.65239
0
LINE
8
BLACK
6
CONTINUOUS
10
2.17309
20
-7.65239
11
2.16746
21
-7.62989
0
LINE
8
BLACK
6
CONTINUOUS
10
2.16746
20
-7.62989
11
2.16746
21
-7.60177
0
LINE
8
BLACK
6
CONTINUOUS
10
2.16746
20
-7.60177
11
2.17309
21
-7.57927
0
LINE
8
BLACK
6
CONTINUOUS
10
2.17309
20
-7.57927
11
2.17871
21
-7.56803
0
LINE
8
BLACK
6
CONTINUOUS
10
2.17871
20
-7.56803
11
2.18434
21
-7.5624
0
LINE
8
BLACK
6
CONTINUOUS
10
2.18434
20
-7.5624
11
2.19558
21
-7.55678
0
LINE
8
BLACK
6
CONTINUOUS
10
2.27433
20
-7.55678
11
2.34744
21
-7.55678
0
LINE
8
BLACK
6
CONTINUOUS
10
2.34744
20
-7.55678
11
2.30807
21
-7.60177
0
LINE
8
BLACK
6
CONTINUOUS
10
2.30807
20
-7.60177
11
2.32494
21
-7.60177
0
LINE
8
BLACK
6
CONTINUOUS
10
2.32494
20
-7.60177
11
2.33619
21
-7.6074
0
LINE
8
BLACK
6
CONTINUOUS
10
2.33619
20
-7.6074
11
2.34182
21
-7.61302
0
LINE
8
BLACK
6
CONTINUOUS
10
2.34182
20
-7.61302
11
2.34744
21
-7.62427
0
LINE
8
BLACK
6
CONTINUOUS
10
2.34744
20
-7.62427
11
2.34744
21
-7.65239
0
LINE
8
BLACK
6
CONTINUOUS
10
2.34744
20
-7.65239
11
2.34182
21
-7.66364
0
LINE
8
BLACK
6
CONTINUOUS
10
2.34182
20
-7.66364
11
2.33619
21
-7.66926
0
LINE
8
BLACK
6
CONTINUOUS
10
2.33619
20
-7.66926
11
2.32494
21
-7.67489
0
LINE
8
BLACK
6
CONTINUOUS
10
2.32494
20
-7.67489
11
2.2912
21
-7.67489
0
LINE
8
BLACK
6
CONTINUOUS
10
2.2912
20
-7.67489
11
2.27995
21
-7.66926
0
LINE
8
BLACK
6
CONTINUOUS
10
2.27995
20
-7.66926
11
2.27433
21
-7.66364
0
LINE
8
BLACK
6
CONTINUOUS
10
2.45993
20
-7.67489
11
2.39244
21
-7.67489
0
LINE
8
BLACK
6
CONTINUOUS
10
2.42618
20
-7.67489
11
2.42618
21
-7.55678
0
LINE
8
BLACK
6
CONTINUOUS
10
2.42618
20
-7.55678
11
2.41493
21
-7.57365
0
LINE
8
BLACK
6
CONTINUOUS
10
2.41493
20
-7.57365
11
2.40368
21
-7.5849
0
LINE
8
BLACK
6
CONTINUOUS
10
2.40368
20
-7.5849
11
2.39244
21
-7.59052
0
LINE
8
BLACK
6
CONTINUOUS
10
2.56679
20
-7.55678
11
2.51055
21
-7.55678
0
LINE
8
BLACK
6
CONTINUOUS
10
2.51055
20
-7.55678
11
2.50492
21
-7.61302
0
LINE
8
BLACK
6
CONTINUOUS
10
2.50492
20
-7.61302
11
2.51055
21
-7.6074
0
LINE
8
BLACK
6
CONTINUOUS
10
2.51055
20
-7.6074
11
2.52179
21
-7.60177
0
LINE
8
BLACK
6
CONTINUOUS
10
2.52179
20
-7.60177
11
2.54992
21
-7.60177
0
LINE
8
BLACK
6
CONTINUOUS
10
2.54992
20
-7.60177
11
2.56116
21
-7.6074
0
LINE
8
BLACK
6
CONTINUOUS
10
2.56116
20
-7.6074
11
2.56679
21
-7.61302
0
LINE
8
BLACK
6
CONTINUOUS
10
2.56679
20
-7.61302
11
2.57241
21
-7.62427
0
LINE
8
BLACK
6
CONTINUOUS
10
2.57241
20
-7.62427
11
2.57241
21
-7.65239
0
LINE
8
BLACK
6
CONTINUOUS
10
2.57241
20
-7.65239
11
2.56679
21
-7.66364
0
LINE
8
BLACK
6
CONTINUOUS
10
2.56679
20
-7.66364
11
2.56116
21
-7.66926
0
LINE
8
BLACK
6
CONTINUOUS
10
2.56116
20
-7.66926
11
2.54992
21
-7.67489
0
LINE
8
BLACK
6
CONTINUOUS
10
2.54992
20
-7.67489
11
2.52179
21
-7.67489
0
LINE
8
BLACK
6
CONTINUOUS
10
2.52179
20
-7.67489
11
2.51055
21
-7.66926
0
LINE
8
BLACK
6
CONTINUOUS
10
2.51055
20
-7.66926
11
2.50492
21
-7.66364
0
LINE
8
BLACK
6
CONTINUOUS
10
2.61741
20
-7.55678
11
2.61741
21
-7.57927
0
LINE
8
BLACK
6
CONTINUOUS
10
2.6624
20
-7.55678
11
2.6624
21
-7.57927
0
LINE
8
BLACK
6
CONTINUOUS
10
2.83675
20
-7.71988
11
2.83113
21
-7.71426
0
LINE
8
BLACK
6
CONTINUOUS
10
2.83113
20
-7.71426
11
2.81988
21
-7.69738
0
LINE
8
BLACK
6
CONTINUOUS
10
2.81988
20
-7.69738
11
2.81426
21
-7.68614
0
LINE
8
BLACK
6
CONTINUOUS
10
2.81426
20
-7.68614
11
2.80863
21
-7.66926
0
LINE
8
BLACK
6
CONTINUOUS
10
2.80863
20
-7.66926
11
2.80301
21
-7.64114
0
LINE
8
BLACK
6
CONTINUOUS
10
2.80301
20
-7.64114
11
2.80301
21
-7.61864
0
LINE
8
BLACK
6
CONTINUOUS
10
2.80301
20
-7.61864
11
2.80863
21
-7.59052
0
LINE
8
BLACK
6
CONTINUOUS
10
2.80863
20
-7.59052
11
2.81426
21
-7.57365
0
LINE
8
BLACK
6
CONTINUOUS
10
2.81426
20
-7.57365
11
2.81988
21
-7.5624
0
LINE
8
BLACK
6
CONTINUOUS
10
2.81988
20
-7.5624
11
2.83113
21
-7.54553
0
LINE
8
BLACK
6
CONTINUOUS
10
2.83113
20
-7.54553
11
2.83675
21
-7.5399
0
LINE
8
BLACK
6
CONTINUOUS
10
2.93799
20
-7.55678
11
2.88175
21
-7.55678
0
LINE
8
BLACK
6
CONTINUOUS
10
2.88175
20
-7.55678
11
2.87612
21
-7.61302
0
LINE
8
BLACK
6
CONTINUOUS
10
2.87612
20
-7.61302
11
2.88175
21
-7.6074
0
LINE
8
BLACK
6
CONTINUOUS
10
2.88175
20
-7.6074
11
2.893
21
-7.60177
0
LINE
8
BLACK
6
CONTINUOUS
10
2.893
20
-7.60177
11
2.92112
21
-7.60177
0
LINE
8
BLACK
6
CONTINUOUS
10
2.92112
20
-7.60177
11
2.93237
21
-7.6074
0
LINE
8
BLACK
6
CONTINUOUS
10
2.93237
20
-7.6074
11
2.93799
21
-7.61302
0
LINE
8
BLACK
6
CONTINUOUS
10
2.93799
20
-7.61302
11
2.94362
21
-7.62427
0
LINE
8
BLACK
6
CONTINUOUS
10
2.94362
20
-7.62427
11
2.94362
21
-7.65239
0
LINE
8
BLACK
6
CONTINUOUS
10
2.94362
20
-7.65239
11
2.93799
21
-7.66364
0
LINE
8
BLACK
6
CONTINUOUS
10
2.93799
20
-7.66364
11
2.93237
21
-7.66926
0
LINE
8
BLACK
6
CONTINUOUS
10
2.93237
20
-7.66926
11
2.92112
21
-7.67489
0
LINE
8
BLACK
6
CONTINUOUS
10
2.92112
20
-7.67489
11
2.893
21
-7.67489
0
LINE
8
BLACK
6
CONTINUOUS
10
2.893
20
-7.67489
11
2.88175
21
-7.66926
0
LINE
8
BLACK
6
CONTINUOUS
10
2.88175
20
-7.66926
11
2.87612
21
-7.66364
0
LINE
8
BLACK
6
CONTINUOUS
10
3.01673
20
-7.55678
11
3.02798
21
-7.55678
0
LINE
8
BLACK
6
CONTINUOUS
10
3.02798
20
-7.55678
11
3.03923
21
-7.5624
0
LINE
8
BLACK
6
CONTINUOUS
10
3.03923
20
-7.5624
11
3.04485
21
-7.56803
0
LINE
8
BLACK
6
CONTINUOUS
10
3.04485
20
-7.56803
11
3.05048
21
-7.57927
0
LINE
8
BLACK
6
CONTINUOUS
10
3.05048
20
-7.57927
11
3.0561
21
-7.60177
0
LINE
8
BLACK
6
CONTINUOUS
10
3.0561
20
-7.60177
11
3.0561
21
-7.62989
0
LINE
8
BLACK
6
CONTINUOUS
10
3.0561
20
-7.62989
11
3.05048
21
-7.65239
0
LINE
8
BLACK
6
CONTINUOUS
10
3.05048
20
-7.65239
11
3.04485
21
-7.66364
0
LINE
8
BLACK
6
CONTINUOUS
10
3.04485
20
-7.66364
11
3.03923
21
-7.66926
0
LINE
8
BLACK
6
CONTINUOUS
10
3.03923
20
-7.66926
11
3.02798
21
-7.67489
0
LINE
8
BLACK
6
CONTINUOUS
10
3.02798
20
-7.67489
11
3.01673
21
-7.67489
0
LINE
8
BLACK
6
CONTINUOUS
10
3.01673
20
-7.67489
11
3.00548
21
-7.66926
0
LINE
8
BLACK
6
CONTINUOUS
10
3.00548
20
-7.66926
11
2.99986
21
-7.66364
0
LINE
8
BLACK
6
CONTINUOUS
10
2.99986
20
-7.66364
11
2.99424
21
-7.65239
0
LINE
8
BLACK
6
CONTINUOUS
10
2.99424
20
-7.65239
11
2.98861
21
-7.62989
0
LINE
8
BLACK
6
CONTINUOUS
10
2.98861
20
-7.62989
11
2.98861
21
-7.60177
0
LINE
8
BLACK
6
CONTINUOUS
10
2.98861
20
-7.60177
11
2.99424
21
-7.57927
0
LINE
8
BLACK
6
CONTINUOUS
10
2.99424
20
-7.57927
11
2.99986
21
-7.56803
0
LINE
8
BLACK
6
CONTINUOUS
10
2.99986
20
-7.56803
11
3.00548
21
-7.5624
0
LINE
8
BLACK
6
CONTINUOUS
10
3.00548
20
-7.5624
11
3.01673
21
-7.55678
0
LINE
8
BLACK
6
CONTINUOUS
10
3.12922
20
-7.55678
11
3.14047
21
-7.55678
0
LINE
8
BLACK
6
CONTINUOUS
10
3.14047
20
-7.55678
11
3.15172
21
-7.5624
0
LINE
8
BLACK
6
CONTINUOUS
10
3.15172
20
-7.5624
11
3.15734
21
-7.56803
0
LINE
8
BLACK
6
CONTINUOUS
10
3.15734
20
-7.56803
11
3.16296
21
-7.57927
0
LINE
8
BLACK
6
CONTINUOUS
10
3.16296
20
-7.57927
11
3.16859
21
-7.60177
0
LINE
8
BLACK
6
CONTINUOUS
10
3.16859
20
-7.60177
11
3.16859
21
-7.62989
0
LINE
8
BLACK
6
CONTINUOUS
10
3.16859
20
-7.62989
11
3.16296
21
-7.65239
0
LINE
8
BLACK
6
CONTINUOUS
10
3.16296
20
-7.65239
11
3.15734
21
-7.66364
0
LINE
8
BLACK
6
CONTINUOUS
10
3.15734
20
-7.66364
11
3.15172
21
-7.66926
0
LINE
8
BLACK
6
CONTINUOUS
10
3.15172
20
-7.66926
11
3.14047
21
-7.67489
0
LINE
8
BLACK
6
CONTINUOUS
10
3.14047
20
-7.67489
11
3.12922
21
-7.67489
0
LINE
8
BLACK
6
CONTINUOUS
10
3.12922
20
-7.67489
11
3.11797
21
-7.66926
0
LINE
8
BLACK
6
CONTINUOUS
10
3.11797
20
-7.66926
11
3.11235
21
-7.66364
0
LINE
8
BLACK
6
CONTINUOUS
10
3.11235
20
-7.66364
11
3.10672
21
-7.65239
0
LINE
8
BLACK
6
CONTINUOUS
10
3.10672
20
-7.65239
11
3.1011
21
-7.62989
0
LINE
8
BLACK
6
CONTINUOUS
10
3.1011
20
-7.62989
11
3.1011
21
-7.60177
0
LINE
8
BLACK
6
CONTINUOUS
10
3.1011
20
-7.60177
11
3.10672
21
-7.57927
0
LINE
8
BLACK
6
CONTINUOUS
10
3.10672
20
-7.57927
11
3.11235
21
-7.56803
0
LINE
8
BLACK
6
CONTINUOUS
10
3.11235
20
-7.56803
11
3.11797
21
-7.5624
0
LINE
8
BLACK
6
CONTINUOUS
10
3.11797
20
-7.5624
11
3.12922
21
-7.55678
0
LINE
8
BLACK
6
CONTINUOUS
10
3.3092
20
-7.67489
11
3.3092
21
-7.55678
0
LINE
8
BLACK
6
CONTINUOUS
10
3.35981
20
-7.67489
11
3.35981
21
-7.61302
0
LINE
8
BLACK
6
CONTINUOUS
10
3.35981
20
-7.61302
11
3.35419
21
-7.60177
0
LINE
8
BLACK
6
CONTINUOUS
10
3.35419
20
-7.60177
11
3.34294
21
-7.59615
0
LINE
8
BLACK
6
CONTINUOUS
10
3.34294
20
-7.59615
11
3.32607
21
-7.59615
0
LINE
8
BLACK
6
CONTINUOUS
10
3.32607
20
-7.59615
11
3.31482
21
-7.60177
0
LINE
8
BLACK
6
CONTINUOUS
10
3.31482
20
-7.60177
11
3.3092
21
-7.6074
0
LINE
8
BLACK
6
CONTINUOUS
10
3.43293
20
-7.67489
11
3.42168
21
-7.66926
0
LINE
8
BLACK
6
CONTINUOUS
10
3.42168
20
-7.66926
11
3.41606
21
-7.66364
0
LINE
8
BLACK
6
CONTINUOUS
10
3.41606
20
-7.66364
11
3.41043
21
-7.65239
0
LINE
8
BLACK
6
CONTINUOUS
10
3.41043
20
-7.65239
11
3.41043
21
-7.61864
0
LINE
8
BLACK
6
CONTINUOUS
10
3.41043
20
-7.61864
11
3.41606
21
-7.6074
0
LINE
8
BLACK
6
CONTINUOUS
10
3.41606
20
-7.6074
11
3.42168
21
-7.60177
0
LINE
8
BLACK
6
CONTINUOUS
10
3.42168
20
-7.60177
11
3.43293
21
-7.59615
0
LINE
8
BLACK
6
CONTINUOUS
10
3.43293
20
-7.59615
11
3.4498
21
-7.59615
0
LINE
8
BLACK
6
CONTINUOUS
10
3.4498
20
-7.59615
11
3.46105
21
-7.60177
0
LINE
8
BLACK
6
CONTINUOUS
10
3.46105
20
-7.60177
11
3.46668
21
-7.6074
0
LINE
8
BLACK
6
CONTINUOUS
10
3.46668
20
-7.6074
11
3.4723
21
-7.61864
0
LINE
8
BLACK
6
CONTINUOUS
10
3.4723
20
-7.61864
11
3.4723
21
-7.65239
0
LINE
8
BLACK
6
CONTINUOUS
10
3.4723
20
-7.65239
11
3.46668
21
-7.66364
0
LINE
8
BLACK
6
CONTINUOUS
10
3.46668
20
-7.66364
11
3.46105
21
-7.66926
0
LINE
8
BLACK
6
CONTINUOUS
10
3.46105
20
-7.66926
11
3.4498
21
-7.67489
0
LINE
8
BLACK
6
CONTINUOUS
10
3.4498
20
-7.67489
11
3.43293
21
-7.67489
0
LINE
8
BLACK
6
CONTINUOUS
10
3.53979
20
-7.67489
11
3.52854
21
-7.66926
0
LINE
8
BLACK
6
CONTINUOUS
10
3.52854
20
-7.66926
11
3.52292
21
-7.65801
0
LINE
8
BLACK
6
CONTINUOUS
10
3.52292
20
-7.65801
11
3.52292
21
-7.55678
0
LINE
8
BLACK
6
CONTINUOUS
10
3.62978
20
-7.66926
11
3.61853
21
-7.67489
0
LINE
8
BLACK
6
CONTINUOUS
10
3.61853
20
-7.67489
11
3.59603
21
-7.67489
0
LINE
8
BLACK
6
CONTINUOUS
10
3.59603
20
-7.67489
11
3.58479
21
-7.66926
0
LINE
8
BLACK
6
CONTINUOUS
10
3.58479
20
-7.66926
11
3.57916
21
-7.65801
0
LINE
8
BLACK
6
CONTINUOUS
10
3.57916
20
-7.65801
11
3.57916
21
-7.61302
0
LINE
8
BLACK
6
CONTINUOUS
10
3.57916
20
-7.61302
11
3.58479
21
-7.60177
0
LINE
8
BLACK
6
CONTINUOUS
10
3.58479
20
-7.60177
11
3.59603
21
-7.59615
0
LINE
8
BLACK
6
CONTINUOUS
10
3.59603
20
-7.59615
11
3.61853
21
-7.59615
0
LINE
8
BLACK
6
CONTINUOUS
10
3.61853
20
-7.59615
11
3.62978
21
-7.60177
0
LINE
8
BLACK
6
CONTINUOUS
10
3.62978
20
-7.60177
11
3.6354
21
-7.61302
0
LINE
8
BLACK
6
CONTINUOUS
10
3.6354
20
-7.61302
11
3.6354
21
-7.62427
0
LINE
8
BLACK
6
CONTINUOUS
10
3.6354
20
-7.62427
11
3.57916
21
-7.63552
0
LINE
8
BLACK
6
CONTINUOUS
10
3.6804
20
-7.66926
11
3.69165
21
-7.67489
0
LINE
8
BLACK
6
CONTINUOUS
10
3.69165
20
-7.67489
11
3.71415
21
-7.67489
0
LINE
8
BLACK
6
CONTINUOUS
10
3.71415
20
-7.67489
11
3.72539
21
-7.66926
0
LINE
8
BLACK
6
CONTINUOUS
10
3.72539
20
-7.66926
11
3.73102
21
-7.65801
0
LINE
8
BLACK
6
CONTINUOUS
10
3.73102
20
-7.65801
11
3.73102
21
-7.65239
0
LINE
8
BLACK
6
CONTINUOUS
10
3.73102
20
-7.65239
11
3.72539
21
-7.64114
0
LINE
8
BLACK
6
CONTINUOUS
10
3.72539
20
-7.64114
11
3.71415
21
-7.63552
0
LINE
8
BLACK
6
CONTINUOUS
10
3.71415
20
-7.63552
11
3.69727
21
-7.63552
0
LINE
8
BLACK
6
CONTINUOUS
10
3.69727
20
-7.63552
11
3.68602
21
-7.62989
0
LINE
8
BLACK
6
CONTINUOUS
10
3.68602
20
-7.62989
11
3.6804
21
-7.61864
0
LINE
8
BLACK
6
CONTINUOUS
10
3.6804
20
-7.61864
11
3.6804
21
-7.61302
0
LINE
8
BLACK
6
CONTINUOUS
10
3.6804
20
-7.61302
11
3.68602
21
-7.60177
0
LINE
8
BLACK
6
CONTINUOUS
10
3.68602
20
-7.60177
11
3.69727
21
-7.59615
0
LINE
8
BLACK
6
CONTINUOUS
10
3.69727
20
-7.59615
11
3.71415
21
-7.59615
0
LINE
8
BLACK
6
CONTINUOUS
10
3.71415
20
-7.59615
11
3.72539
21
-7.60177
0
LINE
8
BLACK
6
CONTINUOUS
10
3.77039
20
-7.71988
11
3.77601
21
-7.71426
0
LINE
8
BLACK
6
CONTINUOUS
10
3.77601
20
-7.71426
11
3.78726
21
-7.69738
0
LINE
8
BLACK
6
CONTINUOUS
10
3.78726
20
-7.69738
11
3.79289
21
-7.68614
0
LINE
8
BLACK
6
CONTINUOUS
10
3.79289
20
-7.68614
11
3.79851
21
-7.66926
0
LINE
8
BLACK
6
CONTINUOUS
10
3.79851
20
-7.66926
11
3.80413
21
-7.64114
0
LINE
8
BLACK
6
CONTINUOUS
10
3.80413
20
-7.64114
11
3.80413
21
-7.61864
0
LINE
8
BLACK
6
CONTINUOUS
10
3.80413
20
-7.61864
11
3.79851
21
-7.59052
0
LINE
8
BLACK
6
CONTINUOUS
10
3.79851
20
-7.59052
11
3.79289
21
-7.57365
0
LINE
8
BLACK
6
CONTINUOUS
10
3.79289
20
-7.57365
11
3.78726
21
-7.5624
0
LINE
8
BLACK
6
CONTINUOUS
10
3.78726
20
-7.5624
11
3.77601
21
-7.54553
0
LINE
8
BLACK
6
CONTINUOUS
10
3.77601
20
-7.54553
11
3.77039
21
-7.5399
0
LINE
8
BLACK
6
CONTINUOUS
10
0.747047
20
-7.75768
11
0.747047
21
-7.79705
0
LINE
8
BLACK
6
CONTINUOUS
10
0.727362
20
-7.77736
11
0.766732
21
-7.77736
0
LINE
8
BLACK
6
CONTINUOUS
10
0.941367
20
-7.83079
11
0.873875
21
-7.83079
0
LINE
8
BLACK
6
CONTINUOUS
10
0.907621
20
-7.83079
11
0.907621
21
-7.71268
0
LINE
8
BLACK
6
CONTINUOUS
10
0.907621
20
-7.71268
11
0.896372
21
-7.72956
0
LINE
8
BLACK
6
CONTINUOUS
10
0.896372
20
-7.72956
11
0.885124
21
-7.7408
0
LINE
8
BLACK
6
CONTINUOUS
10
0.885124
20
-7.7408
11
0.873875
21
-7.74643
0
LINE
8
BLACK
6
CONTINUOUS
10
0.991985
20
-7.81954
11
0.99761
21
-7.82517
0
LINE
8
BLACK
6
CONTINUOUS
10
0.99761
20
-7.82517
11
0.991985
21
-7.83079
0
LINE
8
BLACK
6
CONTINUOUS
10
0.991985
20
-7.83079
11
0.986361
21
-7.82517
0
LINE
8
BLACK
6
CONTINUOUS
10
0.986361
20
-7.82517
11
0.991985
21
-7.81954
0
LINE
8
BLACK
6
CONTINUOUS
10
0.991985
20
-7.81954
11
0.991985
21
-7.83079
0
LINE
8
BLACK
6
CONTINUOUS
10
1.07073
20
-7.71268
11
1.08197
21
-7.71268
0
LINE
8
BLACK
6
CONTINUOUS
10
1.08197
20
-7.71268
11
1.09322
21
-7.71831
0
LINE
8
BLACK
6
CONTINUOUS
10
1.09322
20
-7.71831
11
1.09885
21
-7.72393
0
LINE
8
BLACK
6
CONTINUOUS
10
1.09885
20
-7.72393
11
1.10447
21
-7.73518
0
LINE
8
BLACK
6
CONTINUOUS
10
1.10447
20
-7.73518
11
1.1101
21
-7.75768
0
LINE
8
BLACK
6
CONTINUOUS
10
1.1101
20
-7.75768
11
1.1101
21
-7.7858
0
LINE
8
BLACK
6
CONTINUOUS
10
1.1101
20
-7.7858
11
1.10447
21
-7.8083
0
LINE
8
BLACK
6
CONTINUOUS
10
1.10447
20
-7.8083
11
1.09885
21
-7.81954
0
LINE
8
BLACK
6
CONTINUOUS
10
1.09885
20
-7.81954
11
1.09322
21
-7.82517
0
LINE
8
BLACK
6
CONTINUOUS
10
1.09322
20
-7.82517
11
1.08197
21
-7.83079
0
LINE
8
BLACK
6
CONTINUOUS
10
1.08197
20
-7.83079
11
1.07073
21
-7.83079
0
LINE
8
BLACK
6
CONTINUOUS
10
1.07073
20
-7.83079
11
1.05948
21
-7.82517
0
LINE
8
BLACK
6
CONTINUOUS
10
1.05948
20
-7.82517
11
1.05385
21
-7.81954
0
LINE
8
BLACK
6
CONTINUOUS
10
1.05385
20
-7.81954
11
1.04823
21
-7.8083
0
LINE
8
BLACK
6
CONTINUOUS
10
1.04823
20
-7.8083
11
1.0426
21
-7.7858
0
LINE
8
BLACK
6
CONTINUOUS
10
1.0426
20
-7.7858
11
1.0426
21
-7.75768
0
LINE
8
BLACK
6
CONTINUOUS
10
1.0426
20
-7.75768
11
1.04823
21
-7.73518
0
LINE
8
BLACK
6
CONTINUOUS
10
1.04823
20
-7.73518
11
1.05385
21
-7.72393
0
LINE
8
BLACK
6
CONTINUOUS
10
1.05385
20
-7.72393
11
1.05948
21
-7.71831
0
LINE
8
BLACK
6
CONTINUOUS
10
1.05948
20
-7.71831
11
1.07073
21
-7.71268
0
LINE
8
BLACK
6
CONTINUOUS
10
1.18321
20
-7.71268
11
1.19446
21
-7.71268
0
LINE
8
BLACK
6
CONTINUOUS
10
1.19446
20
-7.71268
11
1.20571
21
-7.71831
0
LINE
8
BLACK
6
CONTINUOUS
10
1.20571
20
-7.71831
11
1.21133
21
-7.72393
0
LINE
8
BLACK
6
CONTINUOUS
10
1.21133
20
-7.72393
11
1.21696
21
-7.73518
0
LINE
8
BLACK
6
CONTINUOUS
10
1.21696
20
-7.73518
11
1.22258
21
-7.75768
0
LINE
8
BLACK
6
CONTINUOUS
10
1.22258
20
-7.75768
11
1.22258
21
-7.7858
0
LINE
8
BLACK
6
CONTINUOUS
10
1.22258
20
-7.7858
11
1.21696
21
-7.8083
0
LINE
8
BLACK
6
CONTINUOUS
10
1.21696
20
-7.8083
11
1.21133
21
-7.81954
0
LINE
8
BLACK
6
CONTINUOUS
10
1.21133
20
-7.81954
11
1.20571
21
-7.82517
0
LINE
8
BLACK
6
CONTINUOUS
10
1.20571
20
-7.82517
11
1.19446
21
-7.83079
0
LINE
8
BLACK
6
CONTINUOUS
10
1.19446
20
-7.83079
11
1.18321
21
-7.83079
0
LINE
8
BLACK
6
CONTINUOUS
10
1.18321
20
-7.83079
11
1.17196
21
-7.82517
0
LINE
8
BLACK
6
CONTINUOUS
10
1.17196
20
-7.82517
11
1.16634
21
-7.81954
0
LINE
8
BLACK
6
CONTINUOUS
10
1.16634
20
-7.81954
11
1.16071
21
-7.8083
0
LINE
8
BLACK
6
CONTINUOUS
10
1.16071
20
-7.8083
11
1.15509
21
-7.7858
0
LINE
8
BLACK
6
CONTINUOUS
10
1.15509
20
-7.7858
11
1.15509
21
-7.75768
0
LINE
8
BLACK
6
CONTINUOUS
10
1.15509
20
-7.75768
11
1.16071
21
-7.73518
0
LINE
8
BLACK
6
CONTINUOUS
10
1.16071
20
-7.73518
11
1.16634
21
-7.72393
0
LINE
8
BLACK
6
CONTINUOUS
10
1.16634
20
-7.72393
11
1.17196
21
-7.71831
0
LINE
8
BLACK
6
CONTINUOUS
10
1.17196
20
-7.71831
11
1.18321
21
-7.71268
0
LINE
8
BLACK
6
CONTINUOUS
10
1.2957
20
-7.71268
11
1.30695
21
-7.71268
0
LINE
8
BLACK
6
CONTINUOUS
10
1.30695
20
-7.71268
11
1.31819
21
-7.71831
0
LINE
8
BLACK
6
CONTINUOUS
10
1.31819
20
-7.71831
11
1.32382
21
-7.72393
0
LINE
8
BLACK
6
CONTINUOUS
10
1.32382
20
-7.72393
11
1.32944
21
-7.73518
0
LINE
8
BLACK
6
CONTINUOUS
10
1.32944
20
-7.73518
11
1.33507
21
-7.75768
0
LINE
8
BLACK
6
CONTINUOUS
10
1.33507
20
-7.75768
11
1.33507
21
-7.7858
0
LINE
8
BLACK
6
CONTINUOUS
10
1.33507
20
-7.7858
11
1.32944
21
-7.8083
0
LINE
8
BLACK
6
CONTINUOUS
10
1.32944
20
-7.8083
11
1.32382
21
-7.81954
0
LINE
8
BLACK
6
CONTINUOUS
10
1.32382
20
-7.81954
11
1.31819
21
-7.82517
0
LINE
8
BLACK
6
CONTINUOUS
10
1.31819
20
-7.82517
11
1.30695
21
-7.83079
0
LINE
8
BLACK
6
CONTINUOUS
10
1.30695
20
-7.83079
11
1.2957
21
-7.83079
0
LINE
8
BLACK
6
CONTINUOUS
10
1.2957
20
-7.83079
11
1.28445
21
-7.82517
0
LINE
8
BLACK
6
CONTINUOUS
10
1.28445
20
-7.82517
11
1.27882
21
-7.81954
0
LINE
8
BLACK
6
CONTINUOUS
10
1.27882
20
-7.81954
11
1.2732
21
-7.8083
0
LINE
8
BLACK
6
CONTINUOUS
10
1.2732
20
-7.8083
11
1.26758
21
-7.7858
0
LINE
8
BLACK
6
CONTINUOUS
10
1.26758
20
-7.7858
11
1.26758
21
-7.75768
0
LINE
8
BLACK
6
CONTINUOUS
10
1.26758
20
-7.75768
11
1.2732
21
-7.73518
0
LINE
8
BLACK
6
CONTINUOUS
10
1.2732
20
-7.73518
11
1.27882
21
-7.72393
0
LINE
8
BLACK
6
CONTINUOUS
10
1.27882
20
-7.72393
11
1.28445
21
-7.71831
0
LINE
8
BLACK
6
CONTINUOUS
10
1.28445
20
-7.71831
11
1.2957
21
-7.71268
0
LINE
8
BLACK
6
CONTINUOUS
10
1.38569
20
-7.83079
11
1.38569
21
-7.75205
0
LINE
8
BLACK
6
CONTINUOUS
10
1.38569
20
-7.7633
11
1.39131
21
-7.75768
0
LINE
8
BLACK
6
CONTINUOUS
10
1.39131
20
-7.75768
11
1.40256
21
-7.75205
0
LINE
8
BLACK
6
CONTINUOUS
10
1.40256
20
-7.75205
11
1.41943
21
-7.75205
0
LINE
8
BLACK
6
CONTINUOUS
10
1.41943
20
-7.75205
11
1.43068
21
-7.75768
0
LINE
8
BLACK
6
CONTINUOUS
10
1.43068
20
-7.75768
11
1.4363
21
-7.76893
0
LINE
8
BLACK
6
CONTINUOUS
10
1.4363
20
-7.76893
11
1.4363
21
-7.83079
0
LINE
8
BLACK
6
CONTINUOUS
10
1.4363
20
-7.76893
11
1.44193
21
-7.75768
0
LINE
8
BLACK
6
CONTINUOUS
10
1.44193
20
-7.75768
11
1.45318
21
-7.75205
0
LINE
8
BLACK
6
CONTINUOUS
10
1.45318
20
-7.75205
11
1.47005
21
-7.75205
0
LINE
8
BLACK
6
CONTINUOUS
10
1.47005
20
-7.75205
11
1.4813
21
-7.75768
0
LINE
8
BLACK
6
CONTINUOUS
10
1.4813
20
-7.75768
11
1.48692
21
-7.76893
0
LINE
8
BLACK
6
CONTINUOUS
10
1.48692
20
-7.76893
11
1.48692
21
-7.83079
0
LINE
8
BLACK
6
CONTINUOUS
10
1.54317
20
-7.83079
11
1.54317
21
-7.75205
0
LINE
8
BLACK
6
CONTINUOUS
10
1.54317
20
-7.7633
11
1.54879
21
-7.75768
0
LINE
8
BLACK
6
CONTINUOUS
10
1.54879
20
-7.75768
11
1.56004
21
-7.75205
0
LINE
8
BLACK
6
CONTINUOUS
10
1.56004
20
-7.75205
11
1.57691
21
-7.75205
0
LINE
8
BLACK
6
CONTINUOUS
10
1.57691
20
-7.75205
11
1.58816
21
-7.75768
0
LINE
8
BLACK
6
CONTINUOUS
10
1.58816
20
-7.75768
11
1.59379
21
-7.76893
0
LINE
8
BLACK
6
CONTINUOUS
10
1.59379
20
-7.76893
11
1.59379
21
-7.83079
0
LINE
8
BLACK
6
CONTINUOUS
10
1.59379
20
-7.76893
11
1.59941
21
-7.75768
0
LINE
8
BLACK
6
CONTINUOUS
10
1.59941
20
-7.75768
11
1.61066
21
-7.75205
0
LINE
8
BLACK
6
CONTINUOUS
10
1.61066
20
-7.75205
11
1.62753
21
-7.75205
0
LINE
8
BLACK
6
CONTINUOUS
10
1.62753
20
-7.75205
11
1.63878
21
-7.75768
0
LINE
8
BLACK
6
CONTINUOUS
10
1.63878
20
-7.75768
11
1.6444
21
-7.76893
0
LINE
8
BLACK
6
CONTINUOUS
10
1.6444
20
-7.76893
11
1.6444
21
-7.83079
0
LINE
8
BLACK
6
CONTINUOUS
10
1.875
20
-7.70706
11
1.77376
21
-7.85891
0
LINE
8
BLACK
6
CONTINUOUS
10
2.02686
20
-7.71268
11
2.0381
21
-7.71268
0
LINE
8
BLACK
6
CONTINUOUS
10
2.0381
20
-7.71268
11
2.04935
21
-7.71831
0
LINE
8
BLACK
6
CONTINUOUS
10
2.04935
20
-7.71831
11
2.05498
21
-7.72393
0
LINE
8
BLACK
6
CONTINUOUS
10
2.05498
20
-7.72393
11
2.0606
21
-7.73518
0
LINE
8
BLACK
6
CONTINUOUS
10
2.0606
20
-7.73518
11
2.06623
21
-7.75768
0
LINE
8
BLACK
6
CONTINUOUS
10
2.06623
20
-7.75768
11
2.06623
21
-7.7858
0
LINE
8
BLACK
6
CONTINUOUS
10
2.06623
20
-7.7858
11
2.0606
21
-7.8083
0
LINE
8
BLACK
6
CONTINUOUS
10
2.0606
20
-7.8083
11
2.05498
21
-7.81954
0
LINE
8
BLACK
6
CONTINUOUS
10
2.05498
20
-7.81954
11
2.04935
21
-7.82517
0
LINE
8
BLACK
6
CONTINUOUS
10
2.04935
20
-7.82517
11
2.0381
21
-7.83079
0
LINE
8
BLACK
6
CONTINUOUS
10
2.0381
20
-7.83079
11
2.02686
21
-7.83079
0
LINE
8
BLACK
6
CONTINUOUS
10
2.02686
20
-7.83079
11
2.01561
21
-7.82517
0
LINE
8
BLACK
6
CONTINUOUS
10
2.01561
20
-7.82517
11
2.00998
21
-7.81954
0
LINE
8
BLACK
6
CONTINUOUS
10
2.00998
20
-7.81954
11
2.00436
21
-7.8083
0
LINE
8
BLACK
6
CONTINUOUS
10
2.00436
20
-7.8083
11
1.99873
21
-7.7858
0
LINE
8
BLACK
6
CONTINUOUS
10
1.99873
20
-7.7858
11
1.99873
21
-7.75768
0
LINE
8
BLACK
6
CONTINUOUS
10
1.99873
20
-7.75768
11
2.00436
21
-7.73518
0
LINE
8
BLACK
6
CONTINUOUS
10
2.00436
20
-7.73518
11
2.00998
21
-7.72393
0
LINE
8
BLACK
6
CONTINUOUS
10
2.00998
20
-7.72393
11
2.01561
21
-7.71831
0
LINE
8
BLACK
6
CONTINUOUS
10
2.01561
20
-7.71831
11
2.02686
21
-7.71268
0
LINE
8
BLACK
6
CONTINUOUS
10
2.11684
20
-7.81954
11
2.12247
21
-7.82517
0
LINE
8
BLACK
6
CONTINUOUS
10
2.12247
20
-7.82517
11
2.11684
21
-7.83079
0
LINE
8
BLACK
6
CONTINUOUS
10
2.11684
20
-7.83079
11
2.11122
21
-7.82517
0
LINE
8
BLACK
6
CONTINUOUS
10
2.11122
20
-7.82517
11
2.11684
21
-7.81954
0
LINE
8
BLACK
6
CONTINUOUS
10
2.11684
20
-7.81954
11
2.11684
21
-7.83079
0
LINE
8
BLACK
6
CONTINUOUS
10
2.19558
20
-7.71268
11
2.20683
21
-7.71268
0
LINE
8
BLACK
6
CONTINUOUS
10
2.20683
20
-7.71268
11
2.21808
21
-7.71831
0
LINE
8
BLACK
6
CONTINUOUS
10
2.21808
20
-7.71831
11
2.22371
21
-7.72393
0
LINE
8
BLACK
6
CONTINUOUS
10
2.22371
20
-7.72393
11
2.22933
21
-7.73518
0
LINE
8
BLACK
6
CONTINUOUS
10
2.22933
20
-7.73518
11
2.23495
21
-7.75768
0
LINE
8
BLACK
6
CONTINUOUS
10
2.23495
20
-7.75768
11
2.23495
21
-7.7858
0
LINE
8
BLACK
6
CONTINUOUS
10
2.23495
20
-7.7858
11
2.22933
21
-7.8083
0
LINE
8
BLACK
6
CONTINUOUS
10
2.22933
20
-7.8083
11
2.22371
21
-7.81954
0
LINE
8
BLACK
6
CONTINUOUS
10
2.22371
20
-7.81954
11
2.21808
21
-7.82517
0
LINE
8
BLACK
6
CONTINUOUS
10
2.21808
20
-7.82517
11
2.20683
21
-7.83079
0
LINE
8
BLACK
6
CONTINUOUS
10
2.20683
20
-7.83079
11
2.19558
21
-7.83079
0
LINE
8
BLACK
6
CONTINUOUS
10
2.19558
20
-7.83079
11
2.18434
21
-7.82517
0
LINE
8
BLACK
6
CONTINUOUS
10
2.18434
20
-7.82517
11
2.17871
21
-7.81954
0
LINE
8
BLACK
6
CONTINUOUS
10
2.17871
20
-7.81954
11
2.17309
21
-7.8083
0
LINE
8
BLACK
6
CONTINUOUS
10
2.17309
20
-7.8083
11
2.16746
21
-7.7858
0
LINE
8
BLACK
6
CONTINUOUS
10
2.16746
20
-7.7858
11
2.16746
21
-7.75768
0
LINE
8
BLACK
6
CONTINUOUS
10
2.16746
20
-7.75768
11
2.17309
21
-7.73518
0
LINE
8
BLACK
6
CONTINUOUS
10
2.17309
20
-7.73518
11
2.17871
21
-7.72393
0
LINE
8
BLACK
6
CONTINUOUS
10
2.17871
20
-7.72393
11
2.18434
21
-7.71831
0
LINE
8
BLACK
6
CONTINUOUS
10
2.18434
20
-7.71831
11
2.19558
21
-7.71268
0
LINE
8
BLACK
6
CONTINUOUS
10
2.27433
20
-7.71268
11
2.34744
21
-7.71268
0
LINE
8
BLACK
6
CONTINUOUS
10
2.34744
20
-7.71268
11
2.30807
21
-7.75768
0
LINE
8
BLACK
6
CONTINUOUS
10
2.30807
20
-7.75768
11
2.32494
21
-7.75768
0
LINE
8
BLACK
6
CONTINUOUS
10
2.32494
20
-7.75768
11
2.33619
21
-7.7633
0
LINE
8
BLACK
6
CONTINUOUS
10
2.33619
20
-7.7633
11
2.34182
21
-7.76893
0
LINE
8
BLACK
6
CONTINUOUS
10
2.34182
20
-7.76893
11
2.34744
21
-7.78017
0
LINE
8
BLACK
6
CONTINUOUS
10
2.34744
20
-7.78017
11
2.34744
21
-7.8083
0
LINE
8
BLACK
6
CONTINUOUS
10
2.34744
20
-7.8083
11
2.34182
21
-7.81954
0
LINE
8
BLACK
6
CONTINUOUS
10
2.34182
20
-7.81954
11
2.33619
21
-7.82517
0
LINE
8
BLACK
6
CONTINUOUS
10
2.33619
20
-7.82517
11
2.32494
21
-7.83079
0
LINE
8
BLACK
6
CONTINUOUS
10
2.32494
20
-7.83079
11
2.2912
21
-7.83079
0
LINE
8
BLACK
6
CONTINUOUS
10
2.2912
20
-7.83079
11
2.27995
21
-7.82517
0
LINE
8
BLACK
6
CONTINUOUS
10
2.27995
20
-7.82517
11
2.27433
21
-7.81954
0
LINE
8
BLACK
6
CONTINUOUS
10
2.40368
20
-7.83079
11
2.42618
21
-7.83079
0
LINE
8
BLACK
6
CONTINUOUS
10
2.42618
20
-7.83079
11
2.43743
21
-7.82517
0
LINE
8
BLACK
6
CONTINUOUS
10
2.43743
20
-7.82517
11
2.44305
21
-7.81954
0
LINE
8
BLACK
6
CONTINUOUS
10
2.44305
20
-7.81954
11
2.4543
21
-7.80267
0
LINE
8
BLACK
6
CONTINUOUS
10
2.4543
20
-7.80267
11
2.45993
21
-7.78017
0
LINE
8
BLACK
6
CONTINUOUS
10
2.45993
20
-7.78017
11
2.45993
21
-7.73518
0
LINE
8
BLACK
6
CONTINUOUS
10
2.45993
20
-7.73518
11
2.4543
21
-7.72393
0
LINE
8
BLACK
6
CONTINUOUS
10
2.4543
20
-7.72393
11
2.44868
21
-7.71831
0
LINE
8
BLACK
6
CONTINUOUS
10
2.44868
20
-7.71831
11
2.43743
21
-7.71268
0
LINE
8
BLACK
6
CONTINUOUS
10
2.43743
20
-7.71268
11
2.41493
21
-7.71268
0
LINE
8
BLACK
6
CONTINUOUS
10
2.41493
20
-7.71268
11
2.40368
21
-7.71831
0
LINE
8
BLACK
6
CONTINUOUS
10
2.40368
20
-7.71831
11
2.39806
21
-7.72393
0
LINE
8
BLACK
6
CONTINUOUS
10
2.39806
20
-7.72393
11
2.39244
21
-7.73518
0
LINE
8
BLACK
6
CONTINUOUS
10
2.39244
20
-7.73518
11
2.39244
21
-7.7633
0
LINE
8
BLACK
6
CONTINUOUS
10
2.39244
20
-7.7633
11
2.39806
21
-7.77455
0
LINE
8
BLACK
6
CONTINUOUS
10
2.39806
20
-7.77455
11
2.40368
21
-7.78017
0
LINE
8
BLACK
6
CONTINUOUS
10
2.40368
20
-7.78017
11
2.41493
21
-7.7858
0
LINE
8
BLACK
6
CONTINUOUS
10
2.41493
20
-7.7858
11
2.43743
21
-7.7858
0
LINE
8
BLACK
6
CONTINUOUS
10
2.43743
20
-7.7858
11
2.44868
21
-7.78017
0
LINE
8
BLACK
6
CONTINUOUS
10
2.44868
20
-7.78017
11
2.4543
21
-7.77455
0
LINE
8
BLACK
6
CONTINUOUS
10
2.4543
20
-7.77455
11
2.45993
21
-7.7633
0
LINE
8
BLACK
6
CONTINUOUS
10
2.56116
20
-7.75205
11
2.56116
21
-7.83079
0
LINE
8
BLACK
6
CONTINUOUS
10
2.53304
20
-7.70706
11
2.50492
21
-7.79142
0
LINE
8
BLACK
6
CONTINUOUS
10
2.50492
20
-7.79142
11
2.57804
21
-7.79142
0
LINE
8
BLACK
6
CONTINUOUS
10
2.61741
20
-7.71268
11
2.61741
21
-7.73518
0
LINE
8
BLACK
6
CONTINUOUS
10
2.6624
20
-7.71268
11
2.6624
21
-7.73518
0
LINE
8
BLACK
6
CONTINUOUS
10
2.83675
20
-7.87579
11
2.83113
21
-7.87016
0
LINE
8
BLACK
6
CONTINUOUS
10
2.83113
20
-7.87016
11
2.81988
21
-7.85329
0
LINE
8
BLACK
6
CONTINUOUS
10
2.81988
20
-7.85329
11
2.81426
21
-7.84204
0
LINE
8
BLACK
6
CONTINUOUS
10
2.81426
20
-7.84204
11
2.80863
21
-7.82517
0
LINE
8
BLACK
6
CONTINUOUS
10
2.80863
20
-7.82517
11
2.80301
21
-7.79705
0
LINE
8
BLACK
6
CONTINUOUS
10
2.80301
20
-7.79705
11
2.80301
21
-7.77455
0
LINE
8
BLACK
6
CONTINUOUS
10
2.80301
20
-7.77455
11
2.80863
21
-7.74643
0
LINE
8
BLACK
6
CONTINUOUS
10
2.80863
20
-7.74643
11
2.81426
21
-7.72956
0
LINE
8
BLACK
6
CONTINUOUS
10
2.81426
20
-7.72956
11
2.81988
21
-7.71831
0
LINE
8
BLACK
6
CONTINUOUS
10
2.81988
20
-7.71831
11
2.83113
21
-7.70143
0
LINE
8
BLACK
6
CONTINUOUS
10
2.83113
20
-7.70143
11
2.83675
21
-7.69581
0
LINE
8
BLACK
6
CONTINUOUS
10
2.93237
20
-7.71268
11
2.90987
21
-7.71268
0
LINE
8
BLACK
6
CONTINUOUS
10
2.90987
20
-7.71268
11
2.89862
21
-7.71831
0
LINE
8
BLACK
6
CONTINUOUS
10
2.89862
20
-7.71831
11
2.893
21
-7.72393
0
LINE
8
BLACK
6
CONTINUOUS
10
2.893
20
-7.72393
11
2.88175
21
-7.7408
0
LINE
8
BLACK
6
CONTINUOUS
10
2.88175
20
-7.7408
11
2.87612
21
-7.7633
0
LINE
8
BLACK
6
CONTINUOUS
10
2.87612
20
-7.7633
11
2.87612
21
-7.8083
0
LINE
8
BLACK
6
CONTINUOUS
10
2.87612
20
-7.8083
11
2.88175
21
-7.81954
0
LINE
8
BLACK
6
CONTINUOUS
10
2.88175
20
-7.81954
11
2.88737
21
-7.82517
0
LINE
8
BLACK
6
CONTINUOUS
10
2.88737
20
-7.82517
11
2.89862
21
-7.83079
0
LINE
8
BLACK
6
CONTINUOUS
10
2.89862
20
-7.83079
11
2.92112
21
-7.83079
0
LINE
8
BLACK
6
CONTINUOUS
10
2.92112
20
-7.83079
11
2.93237
21
-7.82517
0
LINE
8
BLACK
6
CONTINUOUS
10
2.93237
20
-7.82517
11
2.93799
21
-7.81954
0
LINE
8
BLACK
6
CONTINUOUS
10
2.93799
20
-7.81954
11
2.94362
21
-7.8083
0
LINE
8
BLACK
6
CONTINUOUS
10
2.94362
20
-7.8083
11
2.94362
21
-7.78017
0
LINE
8
BLACK
6
CONTINUOUS
10
2.94362
20
-7.78017
11
2.93799
21
-7.76893
0
LINE
8
BLACK
6
CONTINUOUS
10
2.93799
20
-7.76893
11
2.93237
21
-7.7633
0
LINE
8
BLACK
6
CONTINUOUS
10
2.93237
20
-7.7633
11
2.92112
21
-7.75768
0
LINE
8
BLACK
6
CONTINUOUS
10
2.92112
20
-7.75768
11
2.89862
21
-7.75768
0
LINE
8
BLACK
6
CONTINUOUS
10
2.89862
20
-7.75768
11
2.88737
21
-7.7633
0
LINE
8
BLACK
6
CONTINUOUS
10
2.88737
20
-7.7633
11
2.88175
21
-7.76893
0
LINE
8
BLACK
6
CONTINUOUS
10
2.88175
20
-7.76893
11
2.87612
21
-7.78017
0
LINE
8
BLACK
6
CONTINUOUS
10
3.08422
20
-7.83079
11
3.08422
21
-7.71268
0
LINE
8
BLACK
6
CONTINUOUS
10
3.13484
20
-7.83079
11
3.13484
21
-7.76893
0
LINE
8
BLACK
6
CONTINUOUS
10
3.13484
20
-7.76893
11
3.12922
21
-7.75768
0
LINE
8
BLACK
6
CONTINUOUS
10
3.12922
20
-7.75768
11
3.11797
21
-7.75205
0
LINE
8
BLACK
6
CONTINUOUS
10
3.11797
20
-7.75205
11
3.1011
21
-7.75205
0
LINE
8
BLACK
6
CONTINUOUS
10
3.1011
20
-7.75205
11
3.08985
21
-7.75768
0
LINE
8
BLACK
6
CONTINUOUS
10
3.08985
20
-7.75768
11
3.08422
21
-7.7633
0
LINE
8
BLACK
6
CONTINUOUS
10
3.20796
20
-7.83079
11
3.19671
21
-7.82517
0
LINE
8
BLACK
6
CONTINUOUS
10
3.19671
20
-7.82517
11
3.19109
21
-7.81954
0
LINE
8
BLACK
6
CONTINUOUS
10
3.19109
20
-7.81954
11
3.18546
21
-7.8083
0
LINE
8
BLACK
6
CONTINUOUS
10
3.18546
20
-7.8083
11
3.18546
21
-7.77455
0
LINE
8
BLACK
6
CONTINUOUS
10
3.18546
20
-7.77455
11
3.19109
21
-7.7633
0
LINE
8
BLACK
6
CONTINUOUS
10
3.19109
20
-7.7633
11
3.19671
21
-7.75768
0
LINE
8
BLACK
6
CONTINUOUS
10
3.19671
20
-7.75768
11
3.20796
21
-7.75205
0
LINE
8
BLACK
6
CONTINUOUS
10
3.20796
20
-7.75205
11
3.22483
21
-7.75205
0
LINE
8
BLACK
6
CONTINUOUS
10
3.22483
20
-7.75205
11
3.23608
21
-7.75768
0
LINE
8
BLACK
6
CONTINUOUS
10
3.23608
20
-7.75768
11
3.2417
21
-7.7633
0
LINE
8
BLACK
6
CONTINUOUS
10
3.2417
20
-7.7633
11
3.24733
21
-7.77455
0
LINE
8
BLACK
6
CONTINUOUS
10
3.24733
20
-7.77455
11
3.24733
21
-7.8083
0
LINE
8
BLACK
6
CONTINUOUS
10
3.24733
20
-7.8083
11
3.2417
21
-7.81954
0
LINE
8
BLACK
6
CONTINUOUS
10
3.2417
20
-7.81954
11
3.23608
21
-7.82517
0
LINE
8
BLACK
6
CONTINUOUS
10
3.23608
20
-7.82517
11
3.22483
21
-7.83079
0
LINE
8
BLACK
6
CONTINUOUS
10
3.22483
20
-7.83079
11
3.20796
21
-7.83079
0
LINE
8
BLACK
6
CONTINUOUS
10
3.31482
20
-7.83079
11
3.30357
21
-7.82517
0
LINE
8
BLACK
6
CONTINUOUS
10
3.30357
20
-7.82517
11
3.29795
21
-7.81392
0
LINE
8
BLACK
6
CONTINUOUS
10
3.29795
20
-7.81392
11
3.29795
21
-7.71268
0
LINE
8
BLACK
6
CONTINUOUS
10
3.40481
20
-7.82517
11
3.39356
21
-7.83079
0
LINE
8
BLACK
6
CONTINUOUS
10
3.39356
20
-7.83079
11
3.37106
21
-7.83079
0
LINE
8
BLACK
6
CONTINUOUS
10
3.37106
20
-7.83079
11
3.35981
21
-7.82517
0
LINE
8
BLACK
6
CONTINUOUS
10
3.35981
20
-7.82517
11
3.35419
21
-7.81392
0
LINE
8
BLACK
6
CONTINUOUS
10
3.35419
20
-7.81392
11
3.35419
21
-7.76893
0
LINE
8
BLACK
6
CONTINUOUS
10
3.35419
20
-7.76893
11
3.35981
21
-7.75768
0
LINE
8
BLACK
6
CONTINUOUS
10
3.35981
20
-7.75768
11
3.37106
21
-7.75205
0
LINE
8
BLACK
6
CONTINUOUS
10
3.37106
20
-7.75205
11
3.39356
21
-7.75205
0
LINE
8
BLACK
6
CONTINUOUS
10
3.39356
20
-7.75205
11
3.40481
21
-7.75768
0
LINE
8
BLACK
6
CONTINUOUS
10
3.40481
20
-7.75768
11
3.41043
21
-7.76893
0
LINE
8
BLACK
6
CONTINUOUS
10
3.41043
20
-7.76893
11
3.41043
21
-7.78017
0
LINE
8
BLACK
6
CONTINUOUS
10
3.41043
20
-7.78017
11
3.35419
21
-7.79142
0
LINE
8
BLACK
6
CONTINUOUS
10
3.45543
20
-7.82517
11
3.46668
21
-7.83079
0
LINE
8
BLACK
6
CONTINUOUS
10
3.46668
20
-7.83079
11
3.48917
21
-7.83079
0
LINE
8
BLACK
6
CONTINUOUS
10
3.48917
20
-7.83079
11
3.50042
21
-7.82517
0
LINE
8
BLACK
6
CONTINUOUS
10
3.50042
20
-7.82517
11
3.50605
21
-7.81392
0
LINE
8
BLACK
6
CONTINUOUS
10
3.50605
20
-7.81392
11
3.50605
21
-7.8083
0
LINE
8
BLACK
6
CONTINUOUS
10
3.50605
20
-7.8083
11
3.50042
21
-7.79705
0
LINE
8
BLACK
6
CONTINUOUS
10
3.50042
20
-7.79705
11
3.48917
21
-7.79142
0
LINE
8
BLACK
6
CONTINUOUS
10
3.48917
20
-7.79142
11
3.4723
21
-7.79142
0
LINE
8
BLACK
6
CONTINUOUS
10
3.4723
20
-7.79142
11
3.46105
21
-7.7858
0
LINE
8
BLACK
6
CONTINUOUS
10
3.46105
20
-7.7858
11
3.45543
21
-7.77455
0
LINE
8
BLACK
6
CONTINUOUS
10
3.45543
20
-7.77455
11
3.45543
21
-7.76893
0
LINE
8
BLACK
6
CONTINUOUS
10
3.45543
20
-7.76893
11
3.46105
21
-7.75768
0
LINE
8
BLACK
6
CONTINUOUS
10
3.46105
20
-7.75768
11
3.4723
21
-7.75205
0
LINE
8
BLACK
6
CONTINUOUS
10
3.4723
20
-7.75205
11
3.48917
21
-7.75205
0
LINE
8
BLACK
6
CONTINUOUS
10
3.48917
20
-7.75205
11
3.50042
21
-7.75768
0
LINE
8
BLACK
6
CONTINUOUS
10
3.54542
20
-7.87579
11
3.55104
21
-7.87016
0
LINE
8
BLACK
6
CONTINUOUS
10
3.55104
20
-7.87016
11
3.56229
21
-7.85329
0
LINE
8
BLACK
6
CONTINUOUS
10
3.56229
20
-7.85329
11
3.56791
21
-7.84204
0
LINE
8
BLACK
6
CONTINUOUS
10
3.56791
20
-7.84204
11
3.57354
21
-7.82517
0
LINE
8
BLACK
6
CONTINUOUS
10
3.57354
20
-7.82517
11
3.57916
21
-7.79705
0
LINE
8
BLACK
6
CONTINUOUS
10
3.57916
20
-7.79705
11
3.57916
21
-7.77455
0
LINE
8
BLACK
6
CONTINUOUS
10
3.57916
20
-7.77455
11
3.57354
21
-7.74643
0
LINE
8
BLACK
6
CONTINUOUS
10
3.57354
20
-7.74643
11
3.56791
21
-7.72956
0
LINE
8
BLACK
6
CONTINUOUS
10
3.56791
20
-7.72956
11
3.56229
21
-7.71831
0
LINE
8
BLACK
6
CONTINUOUS
10
3.56229
20
-7.71831
11
3.55104
21
-7.70143
0
LINE
8
BLACK
6
CONTINUOUS
10
3.55104
20
-7.70143
11
3.54542
21
-7.69581
  0
ENDSEC
  0
EOF
