%TF.GenerationSoftware,KiCad,Pcbnew,(6.0.4-0)*%
%TF.CreationDate,2024-04-20T10:36:54+10:00*%
%TF.ProjectId,support PCB,73757070-6f72-4742-9050-43422e6b6963,rev?*%
%TF.SameCoordinates,Original*%
%TF.FileFunction,Copper,L1,Top*%
%TF.FilePolarity,Positive*%
%FSLAX46Y46*%
G04 Gerber Fmt 4.6, Leading zero omitted, Abs format (unit mm)*
G04 Created by KiCad (PCBNEW (6.0.4-0)) date 2024-04-20 10:36:54*
%MOMM*%
%LPD*%
G01*
G04 APERTURE LIST*
%TA.AperFunction,ComponentPad*%
%ADD10C,0.800000*%
%TD*%
%TA.AperFunction,ComponentPad*%
%ADD11C,6.400000*%
%TD*%
%TA.AperFunction,ComponentPad*%
%ADD12C,2.200000*%
%TD*%
%TA.AperFunction,ComponentPad*%
%ADD13C,5.500000*%
%TD*%
%TA.AperFunction,ComponentPad*%
%ADD14O,2.300000X1.600000*%
%TD*%
%TA.AperFunction,ComponentPad*%
%ADD15O,4.000000X2.500000*%
%TD*%
%TA.AperFunction,ComponentPad*%
%ADD16O,2.720000X3.500000*%
%TD*%
%TA.AperFunction,ComponentPad*%
%ADD17R,1.800000X1.800000*%
%TD*%
%TA.AperFunction,ComponentPad*%
%ADD18C,1.800000*%
%TD*%
%TA.AperFunction,ComponentPad*%
%ADD19O,1.600000X1.600000*%
%TD*%
%TA.AperFunction,ComponentPad*%
%ADD20C,1.600000*%
%TD*%
%TA.AperFunction,ComponentPad*%
%ADD21O,1.700000X1.700000*%
%TD*%
%TA.AperFunction,ComponentPad*%
%ADD22R,1.700000X1.700000*%
%TD*%
%TA.AperFunction,ViaPad*%
%ADD23C,2.000000*%
%TD*%
%TA.AperFunction,Conductor*%
%ADD24C,2.500000*%
%TD*%
%TA.AperFunction,Conductor*%
%ADD25C,0.400000*%
%TD*%
%TA.AperFunction,Conductor*%
%ADD26C,0.500000*%
%TD*%
G04 APERTURE END LIST*
D10*
%TO.P,H4,1*%
%TO.N,GND*%
X66697056Y-133302944D03*
X65000000Y-132600000D03*
X63302944Y-133302944D03*
X62600000Y-135000000D03*
X63302944Y-136697056D03*
X65000000Y-137400000D03*
X66697056Y-136697056D03*
X67400000Y-135000000D03*
D11*
X65000000Y-135000000D03*
%TD*%
D10*
%TO.P,H3,1*%
%TO.N,GND*%
X196697056Y-133302944D03*
X195000000Y-132600000D03*
X193302944Y-133302944D03*
X192600000Y-135000000D03*
X193302944Y-136697056D03*
X195000000Y-137400000D03*
X196697056Y-136697056D03*
X197400000Y-135000000D03*
D11*
X195000000Y-135000000D03*
%TD*%
D10*
%TO.P,H2,1*%
%TO.N,GND*%
X196697056Y-43302944D03*
X195000000Y-42600000D03*
X193302944Y-43302944D03*
X192600000Y-45000000D03*
X193302944Y-46697056D03*
X195000000Y-47400000D03*
X196697056Y-46697056D03*
X197400000Y-45000000D03*
D11*
X195000000Y-45000000D03*
%TD*%
D10*
%TO.P,H1,1*%
%TO.N,GND*%
X66697056Y-43302944D03*
X65000000Y-42600000D03*
X63302944Y-43302944D03*
X62600000Y-45000000D03*
X63302944Y-46697056D03*
X65000000Y-47400000D03*
X66697056Y-46697056D03*
X67400000Y-45000000D03*
D11*
X65000000Y-45000000D03*
%TD*%
D12*
%TO.P,J5,6*%
%TO.N,+5V*%
X90000000Y-101000000D03*
%TO.P,J5,5*%
%TO.N,~{FLAG_RESET}*%
X97250000Y-104250000D03*
%TO.P,J5,4*%
%TO.N,~{FLAG}*%
X97500000Y-115500000D03*
%TO.P,J5,3*%
%TO.N,GND*%
X90000000Y-119000000D03*
%TO.P,J5,2*%
%TO.N,~{DATA}*%
X82500000Y-115500000D03*
%TO.P,J5,1*%
%TO.N,~{CLOCK}*%
X82750000Y-104250000D03*
D13*
%TO.P,J5,0*%
%TO.N,GND*%
X101250000Y-110000000D03*
X78750000Y-110000000D03*
%TD*%
D14*
%TO.P,K3,10*%
%TO.N,Net-(K1-Pad10)*%
X144520000Y-61000000D03*
%TO.P,K3,9*%
%TO.N,Net-(K3-Pad9)*%
X144520000Y-63540000D03*
%TO.P,K3,8*%
%TO.N,Net-(K1-Pad10)*%
X144520000Y-66080000D03*
%TO.P,K3,7*%
%TO.N,Net-(K3-Pad7)*%
X144520000Y-68620000D03*
%TO.P,K3,6*%
%TO.N,N/C*%
X144520000Y-71160000D03*
%TO.P,K3,5*%
X136900000Y-71160000D03*
%TO.P,K3,4*%
%TO.N,GND*%
X136900000Y-68620000D03*
%TO.P,K3,3*%
%TO.N,~{RBI}*%
X136900000Y-66080000D03*
%TO.P,K3,2*%
%TO.N,Net-(K3-Pad2)*%
X136900000Y-63540000D03*
%TO.P,K3,1*%
%TO.N,+5V*%
X136900000Y-61000000D03*
%TD*%
%TO.P,K2,10*%
%TO.N,Net-(K1-Pad10)*%
X132820000Y-61000000D03*
%TO.P,K2,9*%
%TO.N,OH*%
X132820000Y-63540000D03*
%TO.P,K2,8*%
%TO.N,A2C*%
X132820000Y-66080000D03*
%TO.P,K2,7*%
%TO.N,GND*%
X132820000Y-68620000D03*
%TO.P,K2,6*%
%TO.N,N/C*%
X132820000Y-71160000D03*
%TO.P,K2,5*%
X125200000Y-71160000D03*
%TO.P,K2,4*%
%TO.N,OH*%
X125200000Y-68620000D03*
%TO.P,K2,3*%
%TO.N,A1C*%
X125200000Y-66080000D03*
%TO.P,K2,2*%
%TO.N,OG*%
X125200000Y-63540000D03*
%TO.P,K2,1*%
%TO.N,+5V*%
X125200000Y-61000000D03*
%TD*%
%TO.P,K1,10*%
%TO.N,Net-(K1-Pad10)*%
X121120000Y-61000000D03*
%TO.P,K1,9*%
%TO.N,OF*%
X121120000Y-63540000D03*
%TO.P,K1,8*%
%TO.N,A0C*%
X121120000Y-66080000D03*
%TO.P,K1,7*%
%TO.N,OG*%
X121120000Y-68620000D03*
%TO.P,K1,6*%
%TO.N,N/C*%
X121120000Y-71160000D03*
%TO.P,K1,5*%
X113500000Y-71160000D03*
%TO.P,K1,4*%
%TO.N,OF*%
X113500000Y-68620000D03*
%TO.P,K1,3*%
%TO.N,A2B*%
X113500000Y-66080000D03*
%TO.P,K1,2*%
%TO.N,GND*%
X113500000Y-63540000D03*
%TO.P,K1,1*%
%TO.N,+5V*%
X113500000Y-61000000D03*
%TD*%
D15*
%TO.P,SW1,6*%
%TO.N,N/C*%
X157600000Y-105300000D03*
%TO.P,SW1,5*%
X157600000Y-110000000D03*
%TO.P,SW1,4*%
X157600000Y-114700000D03*
%TO.P,SW1,3*%
%TO.N,Net-(K1-Pad10)*%
X162300000Y-105300000D03*
%TO.P,SW1,2*%
%TO.N,GND*%
X162400000Y-110000000D03*
%TO.P,SW1,1*%
%TO.N,Net-(SW1-Pad1)*%
X162400000Y-114700000D03*
%TD*%
D16*
%TO.P,RV1,0*%
%TO.N,N/C*%
X125200000Y-110000000D03*
X134800000Y-110000000D03*
D17*
%TO.P,RV1,1*%
%TO.N,Net-(J3-Pad4)*%
X132500000Y-102500000D03*
D18*
%TO.P,RV1,2*%
%TO.N,Net-(J3-Pad3)*%
X130000000Y-102500000D03*
%TO.P,RV1,3*%
%TO.N,Net-(J3-Pad2)*%
X127500000Y-102500000D03*
%TD*%
D19*
%TO.P,R2,2*%
%TO.N,Net-(K3-Pad7)*%
X151440000Y-68880000D03*
D20*
%TO.P,R2,1*%
%TO.N,Net-(D2-Pad1)*%
X161600000Y-68880000D03*
%TD*%
D19*
%TO.P,R1,2*%
%TO.N,Net-(K3-Pad9)*%
X151440000Y-63800000D03*
D20*
%TO.P,R1,1*%
%TO.N,Net-(D1-Pad1)*%
X161600000Y-63800000D03*
%TD*%
D21*
%TO.P,J4,4*%
%TO.N,~{FLAG_RESET}*%
X140880000Y-135000000D03*
%TO.P,J4,3*%
%TO.N,~{FLAG}*%
X143420000Y-135000000D03*
%TO.P,J4,2*%
%TO.N,~{DATA}*%
X145960000Y-135000000D03*
D22*
%TO.P,J4,1*%
%TO.N,~{CLOCK}*%
X148500000Y-135000000D03*
%TD*%
D21*
%TO.P,J3,4*%
%TO.N,Net-(J3-Pad4)*%
X82080000Y-135000000D03*
%TO.P,J3,3*%
%TO.N,Net-(J3-Pad3)*%
X79540000Y-135000000D03*
%TO.P,J3,2*%
%TO.N,Net-(J3-Pad2)*%
X77000000Y-135000000D03*
D22*
%TO.P,J3,1*%
%TO.N,GND*%
X74460000Y-135000000D03*
%TD*%
D21*
%TO.P,J2,8*%
%TO.N,GND*%
X65000000Y-89920000D03*
%TO.P,J2,7*%
X65000000Y-92460000D03*
%TO.P,J2,6*%
%TO.N,+5V*%
X65000000Y-95000000D03*
%TO.P,J2,5*%
X65000000Y-97540000D03*
%TO.P,J2,4*%
%TO.N,A1C*%
X65000000Y-100080000D03*
%TO.P,J2,3*%
%TO.N,A2C*%
X65000000Y-102620000D03*
%TO.P,J2,2*%
%TO.N,~{RBI}*%
X65000000Y-105160000D03*
D22*
%TO.P,J2,1*%
%TO.N,A0C*%
X65000000Y-107700000D03*
%TD*%
D21*
%TO.P,J1,4*%
%TO.N,OH*%
X170880000Y-135000000D03*
%TO.P,J1,3*%
%TO.N,OG*%
X173420000Y-135000000D03*
%TO.P,J1,2*%
%TO.N,OF*%
X175960000Y-135000000D03*
D22*
%TO.P,J1,1*%
%TO.N,A2B*%
X178500000Y-135000000D03*
%TD*%
D18*
%TO.P,D2,2*%
%TO.N,+5V*%
X173760000Y-104000000D03*
D17*
%TO.P,D2,1*%
%TO.N,Net-(D2-Pad1)*%
X176300000Y-104000000D03*
%TD*%
D18*
%TO.P,D1,2*%
%TO.N,+5V*%
X173760000Y-116000000D03*
D17*
%TO.P,D1,1*%
%TO.N,Net-(D1-Pad1)*%
X176300000Y-116000000D03*
%TD*%
D23*
%TO.N,OG*%
X143820000Y-75230000D03*
X119690000Y-75230000D03*
%TO.N,OF*%
X145725000Y-77770000D03*
X112705000Y-77770000D03*
%TO.N,A0C*%
X109530000Y-90470000D03*
X109530000Y-96185000D03*
%TO.N,Net-(K1-Pad10)*%
X176500000Y-119000000D03*
X171000000Y-119000000D03*
%TD*%
D24*
%TO.N,+5V*%
X90000000Y-101000000D02*
X75000000Y-101000000D01*
X71540000Y-97540000D02*
X65000000Y-97540000D01*
X75000000Y-101000000D02*
X71540000Y-97540000D01*
X65000000Y-95000000D02*
X65000000Y-97540000D01*
D25*
%TO.N,OH*%
X125200000Y-68620000D02*
X127570000Y-68620000D01*
X132650000Y-63540000D02*
X132820000Y-63540000D01*
X127570000Y-68620000D02*
X132650000Y-63540000D01*
%TO.N,OG*%
X122670010Y-67069990D02*
X121120000Y-68620000D01*
X122670010Y-66069990D02*
X122670010Y-67069990D01*
X125200000Y-63540000D02*
X122670010Y-66069990D01*
D26*
X143820000Y-75230000D02*
X119690000Y-75230000D01*
D25*
%TO.N,OF*%
X121120000Y-63540000D02*
X119950000Y-63540000D01*
X114870000Y-68620000D02*
X113500000Y-68620000D01*
X119950000Y-63540000D02*
X114870000Y-68620000D01*
D26*
X145725000Y-77770000D02*
X112705000Y-77770000D01*
D25*
%TO.N,GND*%
X136900000Y-68620000D02*
X132820000Y-68620000D01*
X132820000Y-68620000D02*
X131880000Y-68620000D01*
X131880000Y-68620000D02*
X128000000Y-72500000D01*
X128000000Y-72500000D02*
X110500000Y-72500000D01*
X110500000Y-72500000D02*
X109000000Y-71000000D01*
X109000000Y-71000000D02*
X109000000Y-66000000D01*
X111460000Y-63540000D02*
X113500000Y-63540000D01*
X109000000Y-66000000D02*
X111460000Y-63540000D01*
D26*
%TO.N,A0C*%
X109530000Y-90470000D02*
X109530000Y-96185000D01*
%TO.N,~{FLAG}*%
X97500000Y-115500000D02*
X139000000Y-115500000D01*
X143420000Y-119920000D02*
X143420000Y-135000000D01*
X139000000Y-115500000D02*
X143420000Y-119920000D01*
D25*
%TO.N,Net-(K1-Pad10)*%
X121120000Y-61000000D02*
X121970000Y-61000000D01*
X131619990Y-62200010D02*
X132820000Y-61000000D01*
X123170010Y-62200010D02*
X131619990Y-62200010D01*
X121970000Y-61000000D02*
X123170010Y-62200010D01*
X143319990Y-62200010D02*
X144520000Y-61000000D01*
X134020010Y-62200010D02*
X143319990Y-62200010D01*
X132820000Y-61000000D02*
X134020010Y-62200010D01*
D26*
X176500000Y-119000000D02*
X171000000Y-119000000D01*
%TD*%
%TA.AperFunction,Conductor*%
%TO.N,GND*%
G36*
X199433621Y-40528502D02*
G01*
X199480114Y-40582158D01*
X199491500Y-40634500D01*
X199491500Y-139365500D01*
X199471498Y-139433621D01*
X199417842Y-139480114D01*
X199365500Y-139491500D01*
X60634500Y-139491500D01*
X60566379Y-139471498D01*
X60519886Y-139417842D01*
X60508500Y-139365500D01*
X60508500Y-137797386D01*
X62567759Y-137797386D01*
X62575216Y-137807753D01*
X62814935Y-138001874D01*
X62820272Y-138005751D01*
X63140685Y-138213830D01*
X63146394Y-138217127D01*
X63486811Y-138390578D01*
X63492836Y-138393260D01*
X63849502Y-138530171D01*
X63855784Y-138532212D01*
X64224816Y-138631094D01*
X64231266Y-138632465D01*
X64608629Y-138692234D01*
X64615167Y-138692920D01*
X64996699Y-138712916D01*
X65003301Y-138712916D01*
X65384833Y-138692920D01*
X65391371Y-138692234D01*
X65768734Y-138632465D01*
X65775184Y-138631094D01*
X66144216Y-138532212D01*
X66150498Y-138530171D01*
X66507164Y-138393260D01*
X66513189Y-138390578D01*
X66853606Y-138217127D01*
X66859315Y-138213830D01*
X67179728Y-138005751D01*
X67185065Y-138001874D01*
X67423835Y-137808522D01*
X67431527Y-137797386D01*
X192567759Y-137797386D01*
X192575216Y-137807753D01*
X192814935Y-138001874D01*
X192820272Y-138005751D01*
X193140685Y-138213830D01*
X193146394Y-138217127D01*
X193486811Y-138390578D01*
X193492836Y-138393260D01*
X193849502Y-138530171D01*
X193855784Y-138532212D01*
X194224816Y-138631094D01*
X194231266Y-138632465D01*
X194608629Y-138692234D01*
X194615167Y-138692920D01*
X194996699Y-138712916D01*
X195003301Y-138712916D01*
X195384833Y-138692920D01*
X195391371Y-138692234D01*
X195768734Y-138632465D01*
X195775184Y-138631094D01*
X196144216Y-138532212D01*
X196150498Y-138530171D01*
X196507164Y-138393260D01*
X196513189Y-138390578D01*
X196853606Y-138217127D01*
X196859315Y-138213830D01*
X197179728Y-138005751D01*
X197185065Y-138001874D01*
X197423835Y-137808522D01*
X197432300Y-137796267D01*
X197425966Y-137785176D01*
X195012812Y-135372022D01*
X194998868Y-135364408D01*
X194997035Y-135364539D01*
X194990420Y-135368790D01*
X192574900Y-137784310D01*
X192567759Y-137797386D01*
X67431527Y-137797386D01*
X67432300Y-137796267D01*
X67425966Y-137785176D01*
X65012812Y-135372022D01*
X64998868Y-135364408D01*
X64997035Y-135364539D01*
X64990420Y-135368790D01*
X62574900Y-137784310D01*
X62567759Y-137797386D01*
X60508500Y-137797386D01*
X60508500Y-135003301D01*
X61287084Y-135003301D01*
X61307080Y-135384833D01*
X61307766Y-135391371D01*
X61367535Y-135768734D01*
X61368906Y-135775184D01*
X61467788Y-136144216D01*
X61469829Y-136150498D01*
X61606740Y-136507164D01*
X61609422Y-136513189D01*
X61782872Y-136853603D01*
X61786169Y-136859313D01*
X61994253Y-137179735D01*
X61998123Y-137185061D01*
X62191478Y-137423835D01*
X62203733Y-137432300D01*
X62214824Y-137425966D01*
X64627978Y-135012812D01*
X64634356Y-135001132D01*
X65364408Y-135001132D01*
X65364539Y-135002965D01*
X65368790Y-135009580D01*
X67784310Y-137425100D01*
X67797386Y-137432241D01*
X67807753Y-137424784D01*
X68001877Y-137185061D01*
X68005747Y-137179735D01*
X68213831Y-136859313D01*
X68217128Y-136853603D01*
X68390578Y-136513189D01*
X68393260Y-136507164D01*
X68530171Y-136150498D01*
X68532212Y-136144216D01*
X68599078Y-135894669D01*
X73102001Y-135894669D01*
X73102371Y-135901490D01*
X73107895Y-135952352D01*
X73111521Y-135967604D01*
X73156676Y-136088054D01*
X73165214Y-136103649D01*
X73241715Y-136205724D01*
X73254276Y-136218285D01*
X73356351Y-136294786D01*
X73371946Y-136303324D01*
X73492394Y-136348478D01*
X73507649Y-136352105D01*
X73558514Y-136357631D01*
X73565328Y-136358000D01*
X74187885Y-136358000D01*
X74203124Y-136353525D01*
X74204329Y-136352135D01*
X74206000Y-136344452D01*
X74206000Y-136339884D01*
X74714000Y-136339884D01*
X74718475Y-136355123D01*
X74719865Y-136356328D01*
X74727548Y-136357999D01*
X75354669Y-136357999D01*
X75361490Y-136357629D01*
X75412352Y-136352105D01*
X75427604Y-136348479D01*
X75548054Y-136303324D01*
X75563649Y-136294786D01*
X75665724Y-136218285D01*
X75678285Y-136205724D01*
X75754786Y-136103649D01*
X75763324Y-136088054D01*
X75804225Y-135978952D01*
X75846867Y-135922188D01*
X75913428Y-135897488D01*
X75982777Y-135912696D01*
X76017444Y-135940684D01*
X76042865Y-135970031D01*
X76042869Y-135970035D01*
X76046250Y-135973938D01*
X76218126Y-136116632D01*
X76411000Y-136229338D01*
X76619692Y-136309030D01*
X76624760Y-136310061D01*
X76624763Y-136310062D01*
X76732017Y-136331883D01*
X76838597Y-136353567D01*
X76843772Y-136353757D01*
X76843774Y-136353757D01*
X77056673Y-136361564D01*
X77056677Y-136361564D01*
X77061837Y-136361753D01*
X77066957Y-136361097D01*
X77066959Y-136361097D01*
X77278288Y-136334025D01*
X77278289Y-136334025D01*
X77283416Y-136333368D01*
X77288366Y-136331883D01*
X77492429Y-136270661D01*
X77492434Y-136270659D01*
X77497384Y-136269174D01*
X77697994Y-136170896D01*
X77879860Y-136041173D01*
X78038096Y-135883489D01*
X78097594Y-135800689D01*
X78168453Y-135702077D01*
X78169776Y-135703028D01*
X78216645Y-135659857D01*
X78286580Y-135647625D01*
X78352026Y-135675144D01*
X78379875Y-135706994D01*
X78439987Y-135805088D01*
X78586250Y-135973938D01*
X78758126Y-136116632D01*
X78951000Y-136229338D01*
X79159692Y-136309030D01*
X79164760Y-136310061D01*
X79164763Y-136310062D01*
X79272017Y-136331883D01*
X79378597Y-136353567D01*
X79383772Y-136353757D01*
X79383774Y-136353757D01*
X79596673Y-136361564D01*
X79596677Y-136361564D01*
X79601837Y-136361753D01*
X79606957Y-136361097D01*
X79606959Y-136361097D01*
X79818288Y-136334025D01*
X79818289Y-136334025D01*
X79823416Y-136333368D01*
X79828366Y-136331883D01*
X80032429Y-136270661D01*
X80032434Y-136270659D01*
X80037384Y-136269174D01*
X80237994Y-136170896D01*
X80419860Y-136041173D01*
X80578096Y-135883489D01*
X80637594Y-135800689D01*
X80708453Y-135702077D01*
X80709776Y-135703028D01*
X80756645Y-135659857D01*
X80826580Y-135647625D01*
X80892026Y-135675144D01*
X80919875Y-135706994D01*
X80979987Y-135805088D01*
X81126250Y-135973938D01*
X81298126Y-136116632D01*
X81491000Y-136229338D01*
X81699692Y-136309030D01*
X81704760Y-136310061D01*
X81704763Y-136310062D01*
X81812017Y-136331883D01*
X81918597Y-136353567D01*
X81923772Y-136353757D01*
X81923774Y-136353757D01*
X82136673Y-136361564D01*
X82136677Y-136361564D01*
X82141837Y-136361753D01*
X82146957Y-136361097D01*
X82146959Y-136361097D01*
X82358288Y-136334025D01*
X82358289Y-136334025D01*
X82363416Y-136333368D01*
X82368366Y-136331883D01*
X82572429Y-136270661D01*
X82572434Y-136270659D01*
X82577384Y-136269174D01*
X82777994Y-136170896D01*
X82959860Y-136041173D01*
X83118096Y-135883489D01*
X83177594Y-135800689D01*
X83245435Y-135706277D01*
X83248453Y-135702077D01*
X83269320Y-135659857D01*
X83345136Y-135506453D01*
X83345137Y-135506451D01*
X83347430Y-135501811D01*
X83412370Y-135288069D01*
X83441529Y-135066590D01*
X83443156Y-135000000D01*
X83424852Y-134777361D01*
X83370431Y-134560702D01*
X83281354Y-134355840D01*
X83241906Y-134294862D01*
X83162822Y-134172617D01*
X83162820Y-134172614D01*
X83160014Y-134168277D01*
X83009670Y-134003051D01*
X83005619Y-133999852D01*
X83005615Y-133999848D01*
X82838414Y-133867800D01*
X82838410Y-133867798D01*
X82834359Y-133864598D01*
X82818393Y-133855784D01*
X82782136Y-133835769D01*
X82638789Y-133756638D01*
X82633920Y-133754914D01*
X82633916Y-133754912D01*
X82433087Y-133683795D01*
X82433083Y-133683794D01*
X82428212Y-133682069D01*
X82423119Y-133681162D01*
X82423116Y-133681161D01*
X82213373Y-133643800D01*
X82213367Y-133643799D01*
X82208284Y-133642894D01*
X82134452Y-133641992D01*
X81990081Y-133640228D01*
X81990079Y-133640228D01*
X81984911Y-133640165D01*
X81764091Y-133673955D01*
X81551756Y-133743357D01*
X81353607Y-133846507D01*
X81349474Y-133849610D01*
X81349471Y-133849612D01*
X81266450Y-133911946D01*
X81174965Y-133980635D01*
X81135525Y-134021907D01*
X81081280Y-134078671D01*
X81020629Y-134142138D01*
X80913201Y-134299621D01*
X80858293Y-134344621D01*
X80787768Y-134352792D01*
X80724021Y-134321538D01*
X80703324Y-134297054D01*
X80622822Y-134172617D01*
X80622820Y-134172614D01*
X80620014Y-134168277D01*
X80469670Y-134003051D01*
X80465619Y-133999852D01*
X80465615Y-133999848D01*
X80298414Y-133867800D01*
X80298410Y-133867798D01*
X80294359Y-133864598D01*
X80278393Y-133855784D01*
X80242136Y-133835769D01*
X80098789Y-133756638D01*
X80093920Y-133754914D01*
X80093916Y-133754912D01*
X79893087Y-133683795D01*
X79893083Y-133683794D01*
X79888212Y-133682069D01*
X79883119Y-133681162D01*
X79883116Y-133681161D01*
X79673373Y-133643800D01*
X79673367Y-133643799D01*
X79668284Y-133642894D01*
X79594452Y-133641992D01*
X79450081Y-133640228D01*
X79450079Y-133640228D01*
X79444911Y-133640165D01*
X79224091Y-133673955D01*
X79011756Y-133743357D01*
X78813607Y-133846507D01*
X78809474Y-133849610D01*
X78809471Y-133849612D01*
X78726450Y-133911946D01*
X78634965Y-133980635D01*
X78595525Y-134021907D01*
X78541280Y-134078671D01*
X78480629Y-134142138D01*
X78373201Y-134299621D01*
X78318293Y-134344621D01*
X78247768Y-134352792D01*
X78184021Y-134321538D01*
X78163324Y-134297054D01*
X78082822Y-134172617D01*
X78082820Y-134172614D01*
X78080014Y-134168277D01*
X77929670Y-134003051D01*
X77925619Y-133999852D01*
X77925615Y-133999848D01*
X77758414Y-133867800D01*
X77758410Y-133867798D01*
X77754359Y-133864598D01*
X77738393Y-133855784D01*
X77702136Y-133835769D01*
X77558789Y-133756638D01*
X77553920Y-133754914D01*
X77553916Y-133754912D01*
X77353087Y-133683795D01*
X77353083Y-133683794D01*
X77348212Y-133682069D01*
X77343119Y-133681162D01*
X77343116Y-133681161D01*
X77133373Y-133643800D01*
X77133367Y-133643799D01*
X77128284Y-133642894D01*
X77054452Y-133641992D01*
X76910081Y-133640228D01*
X76910079Y-133640228D01*
X76904911Y-133640165D01*
X76684091Y-133673955D01*
X76471756Y-133743357D01*
X76273607Y-133846507D01*
X76269474Y-133849610D01*
X76269471Y-133849612D01*
X76186450Y-133911946D01*
X76094965Y-133980635D01*
X76091393Y-133984373D01*
X76013898Y-134065466D01*
X75952374Y-134100895D01*
X75881462Y-134097438D01*
X75823676Y-134056192D01*
X75804823Y-134022644D01*
X75763324Y-133911946D01*
X75754786Y-133896351D01*
X75678285Y-133794276D01*
X75665724Y-133781715D01*
X75563649Y-133705214D01*
X75548054Y-133696676D01*
X75427606Y-133651522D01*
X75412351Y-133647895D01*
X75361486Y-133642369D01*
X75354672Y-133642000D01*
X74732115Y-133642000D01*
X74716876Y-133646475D01*
X74715671Y-133647865D01*
X74714000Y-133655548D01*
X74714000Y-136339884D01*
X74206000Y-136339884D01*
X74206000Y-135272115D01*
X74201525Y-135256876D01*
X74200135Y-135255671D01*
X74192452Y-135254000D01*
X73120116Y-135254000D01*
X73104877Y-135258475D01*
X73103672Y-135259865D01*
X73102001Y-135267548D01*
X73102001Y-135894669D01*
X68599078Y-135894669D01*
X68631094Y-135775184D01*
X68632465Y-135768734D01*
X68692234Y-135391371D01*
X68692920Y-135384833D01*
X68712916Y-135003301D01*
X68712916Y-134996699D01*
X68698828Y-134727885D01*
X73102000Y-134727885D01*
X73106475Y-134743124D01*
X73107865Y-134744329D01*
X73115548Y-134746000D01*
X74187885Y-134746000D01*
X74203124Y-134741525D01*
X74204329Y-134740135D01*
X74206000Y-134732452D01*
X74206000Y-133660116D01*
X74201525Y-133644877D01*
X74200135Y-133643672D01*
X74192452Y-133642001D01*
X73565331Y-133642001D01*
X73558510Y-133642371D01*
X73507648Y-133647895D01*
X73492396Y-133651521D01*
X73371946Y-133696676D01*
X73356351Y-133705214D01*
X73254276Y-133781715D01*
X73241715Y-133794276D01*
X73165214Y-133896351D01*
X73156676Y-133911946D01*
X73111522Y-134032394D01*
X73107895Y-134047649D01*
X73102369Y-134098514D01*
X73102000Y-134105328D01*
X73102000Y-134727885D01*
X68698828Y-134727885D01*
X68692920Y-134615167D01*
X68692234Y-134608629D01*
X68632465Y-134231266D01*
X68631094Y-134224816D01*
X68532212Y-133855784D01*
X68530171Y-133849502D01*
X68393260Y-133492836D01*
X68390578Y-133486811D01*
X68217128Y-133146397D01*
X68213831Y-133140687D01*
X68005747Y-132820265D01*
X68001877Y-132814939D01*
X67808522Y-132576165D01*
X67796267Y-132567700D01*
X67785176Y-132574034D01*
X65372022Y-134987188D01*
X65364408Y-135001132D01*
X64634356Y-135001132D01*
X64635592Y-134998868D01*
X64635461Y-134997035D01*
X64631210Y-134990420D01*
X62215690Y-132574900D01*
X62202614Y-132567759D01*
X62192247Y-132575216D01*
X61998123Y-132814939D01*
X61994253Y-132820265D01*
X61786169Y-133140687D01*
X61782872Y-133146397D01*
X61609422Y-133486811D01*
X61606740Y-133492836D01*
X61469829Y-133849502D01*
X61467788Y-133855784D01*
X61368906Y-134224816D01*
X61367535Y-134231266D01*
X61307766Y-134608629D01*
X61307080Y-134615167D01*
X61287084Y-134996699D01*
X61287084Y-135003301D01*
X60508500Y-135003301D01*
X60508500Y-132203733D01*
X62567700Y-132203733D01*
X62574034Y-132214824D01*
X64987188Y-134627978D01*
X65001132Y-134635592D01*
X65002965Y-134635461D01*
X65009580Y-134631210D01*
X67425100Y-132215690D01*
X67432241Y-132202614D01*
X67424784Y-132192247D01*
X67185065Y-131998126D01*
X67179728Y-131994249D01*
X66859315Y-131786170D01*
X66853606Y-131782873D01*
X66513189Y-131609422D01*
X66507164Y-131606740D01*
X66150498Y-131469829D01*
X66144216Y-131467788D01*
X65775184Y-131368906D01*
X65768734Y-131367535D01*
X65391371Y-131307766D01*
X65384833Y-131307080D01*
X65003301Y-131287084D01*
X64996699Y-131287084D01*
X64615167Y-131307080D01*
X64608629Y-131307766D01*
X64231266Y-131367535D01*
X64224816Y-131368906D01*
X63855784Y-131467788D01*
X63849502Y-131469829D01*
X63492836Y-131606740D01*
X63486811Y-131609422D01*
X63146397Y-131782872D01*
X63140687Y-131786169D01*
X62820265Y-131994253D01*
X62814939Y-131998123D01*
X62576165Y-132191478D01*
X62567700Y-132203733D01*
X60508500Y-132203733D01*
X60508500Y-120305390D01*
X89059440Y-120305390D01*
X89065167Y-120313040D01*
X89263506Y-120434583D01*
X89272300Y-120439064D01*
X89496991Y-120532134D01*
X89506376Y-120535183D01*
X89742863Y-120591959D01*
X89752610Y-120593502D01*
X89995070Y-120612584D01*
X90004930Y-120612584D01*
X90247390Y-120593502D01*
X90257137Y-120591959D01*
X90493624Y-120535183D01*
X90503009Y-120532134D01*
X90727700Y-120439064D01*
X90736494Y-120434583D01*
X90931167Y-120315287D01*
X90940627Y-120304830D01*
X90936844Y-120296054D01*
X90012812Y-119372022D01*
X89998868Y-119364408D01*
X89997035Y-119364539D01*
X89990420Y-119368790D01*
X89066200Y-120293010D01*
X89059440Y-120305390D01*
X60508500Y-120305390D01*
X60508500Y-112479389D01*
X76635541Y-112479389D01*
X76643678Y-112490395D01*
X76903938Y-112690099D01*
X76909537Y-112693933D01*
X77205261Y-112873736D01*
X77211251Y-112876948D01*
X77524657Y-113023758D01*
X77530961Y-113026305D01*
X77858384Y-113138406D01*
X77864935Y-113140260D01*
X78202539Y-113216342D01*
X78209258Y-113217479D01*
X78553113Y-113256657D01*
X78559903Y-113257060D01*
X78905973Y-113258872D01*
X78912774Y-113258540D01*
X79257020Y-113222966D01*
X79263748Y-113221900D01*
X79602144Y-113149353D01*
X79608693Y-113147574D01*
X79937278Y-113038905D01*
X79943620Y-113036419D01*
X80258523Y-112892910D01*
X80264577Y-112889745D01*
X80562128Y-112713073D01*
X80567809Y-112709270D01*
X80844547Y-112501489D01*
X80849771Y-112497105D01*
X80856238Y-112491053D01*
X80864307Y-112477373D01*
X80864280Y-112476649D01*
X80859136Y-112468346D01*
X78762812Y-110372022D01*
X78748868Y-110364408D01*
X78747035Y-110364539D01*
X78740420Y-110368790D01*
X76642422Y-112466788D01*
X76635541Y-112479389D01*
X60508500Y-112479389D01*
X60508500Y-109992007D01*
X75487407Y-109992007D01*
X75504917Y-110337659D01*
X75505627Y-110344415D01*
X75560363Y-110686141D01*
X75561802Y-110692796D01*
X75653122Y-111026604D01*
X75655271Y-111033065D01*
X75782110Y-111355067D01*
X75784941Y-111361250D01*
X75945815Y-111667670D01*
X75949298Y-111673513D01*
X76142321Y-111960761D01*
X76146424Y-111966205D01*
X76261911Y-112103351D01*
X76274650Y-112111794D01*
X76285094Y-112105696D01*
X78377978Y-110012812D01*
X78385592Y-109998868D01*
X78385461Y-109997035D01*
X78381210Y-109990420D01*
X76286457Y-107895667D01*
X76272920Y-107888275D01*
X76263219Y-107895063D01*
X76160220Y-108015659D01*
X76156066Y-108021092D01*
X75961056Y-108306965D01*
X75957521Y-108312802D01*
X75794518Y-108618080D01*
X75791642Y-108624249D01*
X75662558Y-108945355D01*
X75660365Y-108951795D01*
X75566714Y-109284968D01*
X75565231Y-109291603D01*
X75508112Y-109632936D01*
X75507353Y-109639708D01*
X75487431Y-109985212D01*
X75487407Y-109992007D01*
X60508500Y-109992007D01*
X60508500Y-97647655D01*
X63239858Y-97647655D01*
X63246679Y-97697777D01*
X63249718Y-97720105D01*
X63250519Y-97727717D01*
X63255939Y-97800652D01*
X63266620Y-97847855D01*
X63268575Y-97858668D01*
X63275104Y-97906638D01*
X63276409Y-97911114D01*
X63276409Y-97911116D01*
X63295566Y-97976842D01*
X63297492Y-97984291D01*
X63313623Y-98055577D01*
X63331172Y-98100704D01*
X63334690Y-98111068D01*
X63348243Y-98157567D01*
X63378855Y-98223972D01*
X63381853Y-98231034D01*
X63408353Y-98299177D01*
X63410666Y-98303224D01*
X63410668Y-98303228D01*
X63432373Y-98341203D01*
X63437406Y-98350976D01*
X63457668Y-98394928D01*
X63497765Y-98456085D01*
X63501771Y-98462624D01*
X63538049Y-98526098D01*
X63540941Y-98529767D01*
X63540942Y-98529768D01*
X63568020Y-98564117D01*
X63574440Y-98573036D01*
X63600976Y-98613509D01*
X63604085Y-98616992D01*
X63604094Y-98617004D01*
X63649662Y-98668057D01*
X63654588Y-98673926D01*
X63699862Y-98731357D01*
X63703265Y-98734558D01*
X63703273Y-98734567D01*
X63735117Y-98764522D01*
X63742780Y-98772386D01*
X63775018Y-98808506D01*
X63778612Y-98811495D01*
X63778616Y-98811499D01*
X63831229Y-98855257D01*
X63836983Y-98860348D01*
X63890237Y-98910443D01*
X63894082Y-98913110D01*
X63894084Y-98913112D01*
X63929996Y-98938025D01*
X63938746Y-98944678D01*
X63975970Y-98975637D01*
X63977350Y-98976475D01*
X64020696Y-99031681D01*
X64027391Y-99102361D01*
X63994780Y-99165472D01*
X63940629Y-99222138D01*
X63937715Y-99226410D01*
X63937714Y-99226411D01*
X63860049Y-99340264D01*
X63814743Y-99406680D01*
X63720688Y-99609305D01*
X63660989Y-99824570D01*
X63637251Y-100046695D01*
X63637548Y-100051848D01*
X63637548Y-100051851D01*
X63642923Y-100145072D01*
X63650110Y-100269715D01*
X63651247Y-100274761D01*
X63651248Y-100274767D01*
X63671119Y-100362939D01*
X63699222Y-100487639D01*
X63783266Y-100694616D01*
X63899987Y-100885088D01*
X64046250Y-101053938D01*
X64218126Y-101196632D01*
X64239548Y-101209150D01*
X64291445Y-101239476D01*
X64340169Y-101291114D01*
X64353240Y-101360897D01*
X64326509Y-101426669D01*
X64286055Y-101460027D01*
X64273607Y-101466507D01*
X64269474Y-101469610D01*
X64269471Y-101469612D01*
X64150303Y-101559086D01*
X64094965Y-101600635D01*
X63940629Y-101762138D01*
X63814743Y-101946680D01*
X63782123Y-102016954D01*
X63739156Y-102109520D01*
X63720688Y-102149305D01*
X63660989Y-102364570D01*
X63637251Y-102586695D01*
X63637548Y-102591848D01*
X63637548Y-102591851D01*
X63647313Y-102761204D01*
X63650110Y-102809715D01*
X63651247Y-102814761D01*
X63651248Y-102814767D01*
X63671005Y-102902432D01*
X63699222Y-103027639D01*
X63751265Y-103155806D01*
X63770457Y-103203070D01*
X63783266Y-103234616D01*
X63785965Y-103239020D01*
X63865634Y-103369028D01*
X63899987Y-103425088D01*
X64046250Y-103593938D01*
X64218126Y-103736632D01*
X64243414Y-103751409D01*
X64291445Y-103779476D01*
X64340169Y-103831114D01*
X64353240Y-103900897D01*
X64326509Y-103966669D01*
X64286055Y-104000027D01*
X64273607Y-104006507D01*
X64269474Y-104009610D01*
X64269471Y-104009612D01*
X64099100Y-104137530D01*
X64094965Y-104140635D01*
X63940629Y-104302138D01*
X63937715Y-104306410D01*
X63937714Y-104306411D01*
X63891995Y-104373433D01*
X63814743Y-104486680D01*
X63720688Y-104689305D01*
X63660989Y-104904570D01*
X63637251Y-105126695D01*
X63637548Y-105131848D01*
X63637548Y-105131851D01*
X63643011Y-105226590D01*
X63650110Y-105349715D01*
X63651247Y-105354761D01*
X63651248Y-105354767D01*
X63663275Y-105408131D01*
X63699222Y-105567639D01*
X63783266Y-105774616D01*
X63789326Y-105784505D01*
X63894509Y-105956148D01*
X63899987Y-105965088D01*
X64046250Y-106133938D01*
X64050230Y-106137242D01*
X64054981Y-106141187D01*
X64094616Y-106200090D01*
X64096113Y-106271071D01*
X64058997Y-106331593D01*
X64018724Y-106356112D01*
X63903295Y-106399385D01*
X63786739Y-106486739D01*
X63699385Y-106603295D01*
X63648255Y-106739684D01*
X63641500Y-106801866D01*
X63641500Y-108598134D01*
X63648255Y-108660316D01*
X63699385Y-108796705D01*
X63786739Y-108913261D01*
X63903295Y-109000615D01*
X64039684Y-109051745D01*
X64101866Y-109058500D01*
X65898134Y-109058500D01*
X65960316Y-109051745D01*
X66096705Y-109000615D01*
X66213261Y-108913261D01*
X66300615Y-108796705D01*
X66351745Y-108660316D01*
X66358500Y-108598134D01*
X66358500Y-107522234D01*
X76635322Y-107522234D01*
X76635357Y-107523075D01*
X76640410Y-107531200D01*
X78737188Y-109627978D01*
X78751132Y-109635592D01*
X78752965Y-109635461D01*
X78759580Y-109631210D01*
X80857431Y-107533359D01*
X80865045Y-107519415D01*
X80864977Y-107518460D01*
X80861024Y-107512482D01*
X80586667Y-107303479D01*
X80581041Y-107299655D01*
X80284706Y-107120894D01*
X80278694Y-107117697D01*
X79964774Y-106971980D01*
X79958474Y-106969460D01*
X79630664Y-106858503D01*
X79624086Y-106856667D01*
X79286237Y-106781768D01*
X79279499Y-106780652D01*
X78935515Y-106742675D01*
X78928735Y-106742296D01*
X78582636Y-106741693D01*
X78575863Y-106742048D01*
X78231726Y-106778825D01*
X78225016Y-106779912D01*
X77886883Y-106853637D01*
X77880308Y-106855448D01*
X77552117Y-106965259D01*
X77545795Y-106967762D01*
X77231388Y-107112373D01*
X77225345Y-107115559D01*
X76928402Y-107293276D01*
X76922756Y-107297085D01*
X76646726Y-107505844D01*
X76643140Y-107508875D01*
X76635322Y-107522234D01*
X66358500Y-107522234D01*
X66358500Y-106801866D01*
X66351745Y-106739684D01*
X66300615Y-106603295D01*
X66213261Y-106486739D01*
X66096705Y-106399385D01*
X66036996Y-106377001D01*
X65978203Y-106354960D01*
X65921439Y-106312318D01*
X65896739Y-106245756D01*
X65911947Y-106176408D01*
X65933493Y-106147727D01*
X66034435Y-106047137D01*
X66038096Y-106043489D01*
X66097594Y-105960689D01*
X66165435Y-105866277D01*
X66168453Y-105862077D01*
X66174248Y-105850353D01*
X66265136Y-105666453D01*
X66265137Y-105666451D01*
X66267430Y-105661811D01*
X66332370Y-105448069D01*
X66361529Y-105226590D01*
X66361611Y-105223240D01*
X66363074Y-105163365D01*
X66363074Y-105163361D01*
X66363156Y-105160000D01*
X66344852Y-104937361D01*
X66290431Y-104720702D01*
X66201354Y-104515840D01*
X66142988Y-104425620D01*
X66082822Y-104332617D01*
X66082820Y-104332614D01*
X66080014Y-104328277D01*
X65929670Y-104163051D01*
X65925619Y-104159852D01*
X65925615Y-104159848D01*
X65758414Y-104027800D01*
X65758410Y-104027798D01*
X65754359Y-104024598D01*
X65713053Y-104001796D01*
X65663084Y-103951364D01*
X65648312Y-103881921D01*
X65673428Y-103815516D01*
X65700780Y-103788909D01*
X65768926Y-103740301D01*
X65879860Y-103661173D01*
X65889127Y-103651939D01*
X66031779Y-103509784D01*
X66038096Y-103503489D01*
X66055343Y-103479488D01*
X66165435Y-103326277D01*
X66168453Y-103322077D01*
X66178562Y-103301624D01*
X66265136Y-103126453D01*
X66265137Y-103126451D01*
X66267430Y-103121811D01*
X66327376Y-102924507D01*
X66330865Y-102913023D01*
X66330865Y-102913021D01*
X66332370Y-102908069D01*
X66361529Y-102686590D01*
X66362267Y-102656391D01*
X66363074Y-102623365D01*
X66363074Y-102623361D01*
X66363156Y-102620000D01*
X66344852Y-102397361D01*
X66290431Y-102180702D01*
X66201354Y-101975840D01*
X66149062Y-101895009D01*
X66082822Y-101792617D01*
X66082820Y-101792614D01*
X66080014Y-101788277D01*
X65929670Y-101623051D01*
X65925619Y-101619852D01*
X65925615Y-101619848D01*
X65758414Y-101487800D01*
X65758410Y-101487798D01*
X65754359Y-101484598D01*
X65713053Y-101461796D01*
X65663084Y-101411364D01*
X65648312Y-101341921D01*
X65673428Y-101275516D01*
X65700780Y-101248909D01*
X65756520Y-101209150D01*
X65879860Y-101121173D01*
X65910963Y-101090179D01*
X66034435Y-100967137D01*
X66038096Y-100963489D01*
X66097594Y-100880689D01*
X66165435Y-100786277D01*
X66168453Y-100782077D01*
X66239664Y-100637993D01*
X66265136Y-100586453D01*
X66265137Y-100586451D01*
X66267430Y-100581811D01*
X66332370Y-100368069D01*
X66361529Y-100146590D01*
X66363156Y-100080000D01*
X66344852Y-99857361D01*
X66290431Y-99640702D01*
X66218269Y-99474741D01*
X66209449Y-99404296D01*
X66240116Y-99340264D01*
X66300532Y-99302976D01*
X66333819Y-99298500D01*
X70759415Y-99298500D01*
X70827536Y-99318502D01*
X70848510Y-99335405D01*
X73717727Y-102204622D01*
X73722635Y-102209816D01*
X73745264Y-102235169D01*
X73775018Y-102268506D01*
X73809203Y-102296937D01*
X73862838Y-102341545D01*
X73864490Y-102342943D01*
X73951071Y-102417546D01*
X73957124Y-102421365D01*
X73970455Y-102431051D01*
X73972375Y-102432648D01*
X73972383Y-102432654D01*
X73975970Y-102435637D01*
X73979960Y-102438058D01*
X74073679Y-102494929D01*
X74075548Y-102496086D01*
X74122109Y-102525463D01*
X74172119Y-102557017D01*
X74176396Y-102558899D01*
X74176398Y-102558900D01*
X74178673Y-102559901D01*
X74193290Y-102567510D01*
X74199419Y-102571229D01*
X74203733Y-102573038D01*
X74304748Y-102615397D01*
X74306769Y-102616265D01*
X74322905Y-102623365D01*
X74411355Y-102662284D01*
X74415862Y-102663513D01*
X74415871Y-102663516D01*
X74418271Y-102664170D01*
X74433848Y-102669533D01*
X74440455Y-102672303D01*
X74444983Y-102673453D01*
X74444986Y-102673454D01*
X74551173Y-102700422D01*
X74553291Y-102700980D01*
X74663521Y-102731032D01*
X74668161Y-102731581D01*
X74668166Y-102731582D01*
X74670627Y-102731873D01*
X74686843Y-102734878D01*
X74693783Y-102736641D01*
X74743344Y-102741632D01*
X74807428Y-102748085D01*
X74809613Y-102748324D01*
X74907542Y-102759914D01*
X74923080Y-102761753D01*
X75027619Y-102758559D01*
X75031467Y-102758500D01*
X81678065Y-102758500D01*
X81746186Y-102778502D01*
X81792679Y-102832158D01*
X81802783Y-102902432D01*
X81773289Y-102967012D01*
X81759896Y-102980311D01*
X81698879Y-103032425D01*
X81609102Y-103109102D01*
X81444672Y-103301624D01*
X81312384Y-103517498D01*
X81310491Y-103522068D01*
X81310489Y-103522072D01*
X81233329Y-103708353D01*
X81215495Y-103751409D01*
X81214340Y-103756221D01*
X81176972Y-103911872D01*
X81156391Y-103997597D01*
X81136526Y-104250000D01*
X81156391Y-104502403D01*
X81157545Y-104507210D01*
X81157546Y-104507216D01*
X81189282Y-104639407D01*
X81215495Y-104748591D01*
X81217388Y-104753162D01*
X81217389Y-104753164D01*
X81295824Y-104942522D01*
X81312384Y-104982502D01*
X81444672Y-105198376D01*
X81609102Y-105390898D01*
X81801624Y-105555328D01*
X82017498Y-105687616D01*
X82022068Y-105689509D01*
X82022072Y-105689511D01*
X82238167Y-105779020D01*
X82251409Y-105784505D01*
X82336032Y-105804821D01*
X82492784Y-105842454D01*
X82492790Y-105842455D01*
X82497597Y-105843609D01*
X82750000Y-105863474D01*
X82754930Y-105863086D01*
X82916716Y-105850353D01*
X82986196Y-105864949D01*
X83036756Y-105914791D01*
X83052342Y-105984056D01*
X83037854Y-106035116D01*
X82912394Y-106271071D01*
X82800583Y-106481358D01*
X82797521Y-106487116D01*
X82796628Y-106489122D01*
X82796623Y-106489132D01*
X82583524Y-106967762D01*
X82570020Y-106998093D01*
X82569274Y-107000142D01*
X82569271Y-107000150D01*
X82525324Y-107120894D01*
X82378716Y-107523695D01*
X82378109Y-107525812D01*
X82378108Y-107525815D01*
X82273200Y-107891675D01*
X82224543Y-108061361D01*
X82108251Y-108608472D01*
X82107947Y-108610635D01*
X82068556Y-108890916D01*
X82039268Y-108955590D01*
X81979664Y-108994163D01*
X81908667Y-108994388D01*
X81848820Y-108956194D01*
X81826711Y-108919968D01*
X81713143Y-108634583D01*
X81710290Y-108628409D01*
X81548343Y-108322545D01*
X81544849Y-108316728D01*
X81350813Y-108030140D01*
X81346699Y-108024721D01*
X81238090Y-107896653D01*
X81225265Y-107888217D01*
X81214940Y-107894270D01*
X79122022Y-109987188D01*
X79114408Y-110001132D01*
X79114539Y-110002965D01*
X79118790Y-110009580D01*
X81213553Y-112104343D01*
X81227150Y-112111768D01*
X81236761Y-112105068D01*
X81332845Y-111993360D01*
X81337003Y-111987960D01*
X81533023Y-111702751D01*
X81536570Y-111696940D01*
X81700634Y-111392238D01*
X81703541Y-111386060D01*
X81827322Y-111081227D01*
X81871484Y-111025636D01*
X81938689Y-111002746D01*
X82007601Y-111019823D01*
X82056341Y-111071446D01*
X82068839Y-111111094D01*
X82108251Y-111391528D01*
X82224543Y-111938639D01*
X82225152Y-111940762D01*
X82225152Y-111940763D01*
X82309861Y-112236177D01*
X82378716Y-112476305D01*
X82456531Y-112690099D01*
X82555990Y-112963359D01*
X82570020Y-113001907D01*
X82570906Y-113003896D01*
X82570908Y-113003902D01*
X82762838Y-113434984D01*
X82797521Y-113512884D01*
X82798561Y-113514841D01*
X82798563Y-113514844D01*
X82912656Y-113729422D01*
X82926976Y-113798959D01*
X82901428Y-113865200D01*
X82844123Y-113907112D01*
X82771989Y-113911093D01*
X82757221Y-113907547D01*
X82757213Y-113907546D01*
X82752403Y-113906391D01*
X82500000Y-113886526D01*
X82247597Y-113906391D01*
X82242790Y-113907545D01*
X82242784Y-113907546D01*
X82086032Y-113945179D01*
X82001409Y-113965495D01*
X81996838Y-113967388D01*
X81996836Y-113967389D01*
X81772072Y-114060489D01*
X81772068Y-114060491D01*
X81767498Y-114062384D01*
X81551624Y-114194672D01*
X81359102Y-114359102D01*
X81194672Y-114551624D01*
X81134764Y-114649385D01*
X81066937Y-114760069D01*
X81062384Y-114767498D01*
X81060491Y-114772068D01*
X81060489Y-114772072D01*
X80967455Y-114996677D01*
X80965495Y-115001409D01*
X80952561Y-115055283D01*
X80938264Y-115114837D01*
X80906391Y-115247597D01*
X80886526Y-115500000D01*
X80906391Y-115752403D01*
X80907545Y-115757210D01*
X80907546Y-115757216D01*
X80920980Y-115813171D01*
X80965495Y-115998591D01*
X80967388Y-116003162D01*
X80967389Y-116003164D01*
X81049646Y-116201749D01*
X81062384Y-116232502D01*
X81194672Y-116448376D01*
X81359102Y-116640898D01*
X81551624Y-116805328D01*
X81767498Y-116937616D01*
X81772068Y-116939509D01*
X81772072Y-116939511D01*
X81960874Y-117017715D01*
X82001409Y-117034505D01*
X82086032Y-117054821D01*
X82242784Y-117092454D01*
X82242790Y-117092455D01*
X82247597Y-117093609D01*
X82500000Y-117113474D01*
X82752403Y-117093609D01*
X82757210Y-117092455D01*
X82757216Y-117092454D01*
X82913968Y-117054821D01*
X82998591Y-117034505D01*
X83039126Y-117017715D01*
X83227928Y-116939511D01*
X83227932Y-116939509D01*
X83232502Y-116937616D01*
X83448376Y-116805328D01*
X83640898Y-116640898D01*
X83805328Y-116448376D01*
X83937616Y-116232502D01*
X83950355Y-116201749D01*
X84032611Y-116003164D01*
X84032612Y-116003162D01*
X84034505Y-115998591D01*
X84079020Y-115813171D01*
X84092454Y-115757216D01*
X84092455Y-115757210D01*
X84093609Y-115752403D01*
X84096391Y-115717055D01*
X84121677Y-115650714D01*
X84178815Y-115608574D01*
X84249665Y-115604015D01*
X84312640Y-115639414D01*
X84433361Y-115764424D01*
X84849027Y-116138691D01*
X85289788Y-116483051D01*
X85291620Y-116484286D01*
X85291619Y-116484286D01*
X85524907Y-116641641D01*
X85753496Y-116795827D01*
X86237893Y-117075493D01*
X86239872Y-117076458D01*
X86239881Y-117076463D01*
X86726117Y-117313616D01*
X86740619Y-117320689D01*
X86742654Y-117321511D01*
X86742667Y-117321517D01*
X87257171Y-117529390D01*
X87257183Y-117529394D01*
X87259224Y-117530219D01*
X87261319Y-117530900D01*
X87261328Y-117530903D01*
X87789076Y-117702379D01*
X87789083Y-117702381D01*
X87791182Y-117703063D01*
X88333901Y-117838378D01*
X88336059Y-117838759D01*
X88336066Y-117838760D01*
X88595710Y-117884542D01*
X88659322Y-117916069D01*
X88695792Y-117976983D01*
X88693539Y-118047944D01*
X88681263Y-118074463D01*
X88565417Y-118263506D01*
X88560936Y-118272300D01*
X88467866Y-118496991D01*
X88464817Y-118506376D01*
X88408041Y-118742863D01*
X88406498Y-118752610D01*
X88387416Y-118995070D01*
X88387416Y-119004930D01*
X88406498Y-119247390D01*
X88408041Y-119257137D01*
X88464817Y-119493624D01*
X88467866Y-119503009D01*
X88560936Y-119727700D01*
X88565417Y-119736494D01*
X88684713Y-119931167D01*
X88695170Y-119940627D01*
X88703946Y-119936844D01*
X89910905Y-118729885D01*
X89973217Y-118695859D01*
X90044032Y-118700924D01*
X90089095Y-118729885D01*
X91293010Y-119933800D01*
X91305390Y-119940560D01*
X91313040Y-119934833D01*
X91434583Y-119736494D01*
X91439064Y-119727700D01*
X91532134Y-119503009D01*
X91535183Y-119493624D01*
X91591959Y-119257137D01*
X91593502Y-119247390D01*
X91612584Y-119004930D01*
X91612584Y-118995070D01*
X91593502Y-118752610D01*
X91591959Y-118742863D01*
X91535183Y-118506376D01*
X91532134Y-118496991D01*
X91439064Y-118272300D01*
X91434583Y-118263506D01*
X91318737Y-118074463D01*
X91300199Y-118005929D01*
X91321655Y-117938253D01*
X91376294Y-117892920D01*
X91404290Y-117884542D01*
X91663934Y-117838760D01*
X91663941Y-117838759D01*
X91666099Y-117838378D01*
X92208818Y-117703063D01*
X92210917Y-117702381D01*
X92210924Y-117702379D01*
X92738672Y-117530903D01*
X92738681Y-117530900D01*
X92740776Y-117530219D01*
X92742817Y-117529394D01*
X92742829Y-117529390D01*
X93257333Y-117321517D01*
X93257346Y-117321511D01*
X93259381Y-117320689D01*
X93273883Y-117313616D01*
X93760119Y-117076463D01*
X93760128Y-117076458D01*
X93762107Y-117075493D01*
X94246504Y-116795827D01*
X94475094Y-116641641D01*
X94708381Y-116484286D01*
X94708380Y-116484286D01*
X94710212Y-116483051D01*
X95150973Y-116138691D01*
X95566639Y-115764424D01*
X95687360Y-115639414D01*
X95749069Y-115604307D01*
X95819963Y-115608135D01*
X95877532Y-115649683D01*
X95903609Y-115717055D01*
X95906391Y-115752403D01*
X95907545Y-115757210D01*
X95907546Y-115757216D01*
X95920980Y-115813171D01*
X95965495Y-115998591D01*
X95967388Y-116003162D01*
X95967389Y-116003164D01*
X96049646Y-116201749D01*
X96062384Y-116232502D01*
X96194672Y-116448376D01*
X96359102Y-116640898D01*
X96551624Y-116805328D01*
X96767498Y-116937616D01*
X96772068Y-116939509D01*
X96772072Y-116939511D01*
X96960874Y-117017715D01*
X97001409Y-117034505D01*
X97086032Y-117054821D01*
X97242784Y-117092454D01*
X97242790Y-117092455D01*
X97247597Y-117093609D01*
X97500000Y-117113474D01*
X97752403Y-117093609D01*
X97757210Y-117092455D01*
X97757216Y-117092454D01*
X97913968Y-117054821D01*
X97998591Y-117034505D01*
X98039126Y-117017715D01*
X98227928Y-116939511D01*
X98227932Y-116939509D01*
X98232502Y-116937616D01*
X98448376Y-116805328D01*
X98640898Y-116640898D01*
X98805328Y-116448376D01*
X98884815Y-116318665D01*
X98937463Y-116271034D01*
X98992248Y-116258500D01*
X138633629Y-116258500D01*
X138701750Y-116278502D01*
X138722724Y-116295405D01*
X142624595Y-120197276D01*
X142658621Y-120259588D01*
X142661500Y-120286371D01*
X142661500Y-133807655D01*
X142641498Y-133875776D01*
X142611153Y-133908415D01*
X142519100Y-133977530D01*
X142514965Y-133980635D01*
X142475525Y-134021907D01*
X142421280Y-134078671D01*
X142360629Y-134142138D01*
X142253201Y-134299621D01*
X142198293Y-134344621D01*
X142127768Y-134352792D01*
X142064021Y-134321538D01*
X142043324Y-134297054D01*
X141962822Y-134172617D01*
X141962820Y-134172614D01*
X141960014Y-134168277D01*
X141809670Y-134003051D01*
X141805619Y-133999852D01*
X141805615Y-133999848D01*
X141638414Y-133867800D01*
X141638410Y-133867798D01*
X141634359Y-133864598D01*
X141618393Y-133855784D01*
X141582136Y-133835769D01*
X141438789Y-133756638D01*
X141433920Y-133754914D01*
X141433916Y-133754912D01*
X141233087Y-133683795D01*
X141233083Y-133683794D01*
X141228212Y-133682069D01*
X141223119Y-133681162D01*
X141223116Y-133681161D01*
X141013373Y-133643800D01*
X141013367Y-133643799D01*
X141008284Y-133642894D01*
X140934452Y-133641992D01*
X140790081Y-133640228D01*
X140790079Y-133640228D01*
X140784911Y-133640165D01*
X140564091Y-133673955D01*
X140351756Y-133743357D01*
X140153607Y-133846507D01*
X140149474Y-133849610D01*
X140149471Y-133849612D01*
X140066450Y-133911946D01*
X139974965Y-133980635D01*
X139935525Y-134021907D01*
X139881280Y-134078671D01*
X139820629Y-134142138D01*
X139694743Y-134326680D01*
X139600688Y-134529305D01*
X139540989Y-134744570D01*
X139517251Y-134966695D01*
X139517548Y-134971848D01*
X139517548Y-134971851D01*
X139523011Y-135066590D01*
X139530110Y-135189715D01*
X139531247Y-135194761D01*
X139531248Y-135194767D01*
X139545606Y-135258475D01*
X139579222Y-135407639D01*
X139663266Y-135614616D01*
X139700685Y-135675678D01*
X139777291Y-135800688D01*
X139779987Y-135805088D01*
X139926250Y-135973938D01*
X140098126Y-136116632D01*
X140291000Y-136229338D01*
X140499692Y-136309030D01*
X140504760Y-136310061D01*
X140504763Y-136310062D01*
X140612017Y-136331883D01*
X140718597Y-136353567D01*
X140723772Y-136353757D01*
X140723774Y-136353757D01*
X140936673Y-136361564D01*
X140936677Y-136361564D01*
X140941837Y-136361753D01*
X140946957Y-136361097D01*
X140946959Y-136361097D01*
X141158288Y-136334025D01*
X141158289Y-136334025D01*
X141163416Y-136333368D01*
X141168366Y-136331883D01*
X141372429Y-136270661D01*
X141372434Y-136270659D01*
X141377384Y-136269174D01*
X141577994Y-136170896D01*
X141759860Y-136041173D01*
X141918096Y-135883489D01*
X141977594Y-135800689D01*
X142048453Y-135702077D01*
X142049776Y-135703028D01*
X142096645Y-135659857D01*
X142166580Y-135647625D01*
X142232026Y-135675144D01*
X142259875Y-135706994D01*
X142319987Y-135805088D01*
X142466250Y-135973938D01*
X142638126Y-136116632D01*
X142831000Y-136229338D01*
X143039692Y-136309030D01*
X143044760Y-136310061D01*
X143044763Y-136310062D01*
X143152017Y-136331883D01*
X143258597Y-136353567D01*
X143263772Y-136353757D01*
X143263774Y-136353757D01*
X143476673Y-136361564D01*
X143476677Y-136361564D01*
X143481837Y-136361753D01*
X143486957Y-136361097D01*
X143486959Y-136361097D01*
X143698288Y-136334025D01*
X143698289Y-136334025D01*
X143703416Y-136333368D01*
X143708366Y-136331883D01*
X143912429Y-136270661D01*
X143912434Y-136270659D01*
X143917384Y-136269174D01*
X144117994Y-136170896D01*
X144299860Y-136041173D01*
X144458096Y-135883489D01*
X144517594Y-135800689D01*
X144588453Y-135702077D01*
X144589776Y-135703028D01*
X144636645Y-135659857D01*
X144706580Y-135647625D01*
X144772026Y-135675144D01*
X144799875Y-135706994D01*
X144859987Y-135805088D01*
X145006250Y-135973938D01*
X145178126Y-136116632D01*
X145371000Y-136229338D01*
X145579692Y-136309030D01*
X145584760Y-136310061D01*
X145584763Y-136310062D01*
X145692017Y-136331883D01*
X145798597Y-136353567D01*
X145803772Y-136353757D01*
X145803774Y-136353757D01*
X146016673Y-136361564D01*
X146016677Y-136361564D01*
X146021837Y-136361753D01*
X146026957Y-136361097D01*
X146026959Y-136361097D01*
X146238288Y-136334025D01*
X146238289Y-136334025D01*
X146243416Y-136333368D01*
X146248366Y-136331883D01*
X146452429Y-136270661D01*
X146452434Y-136270659D01*
X146457384Y-136269174D01*
X146657994Y-136170896D01*
X146839860Y-136041173D01*
X146948091Y-135933319D01*
X147010462Y-135899404D01*
X147081268Y-135904592D01*
X147138030Y-135947238D01*
X147155012Y-135978341D01*
X147199385Y-136096705D01*
X147286739Y-136213261D01*
X147403295Y-136300615D01*
X147539684Y-136351745D01*
X147601866Y-136358500D01*
X149398134Y-136358500D01*
X149460316Y-136351745D01*
X149596705Y-136300615D01*
X149713261Y-136213261D01*
X149800615Y-136096705D01*
X149851745Y-135960316D01*
X149858500Y-135898134D01*
X149858500Y-134966695D01*
X169517251Y-134966695D01*
X169517548Y-134971848D01*
X169517548Y-134971851D01*
X169523011Y-135066590D01*
X169530110Y-135189715D01*
X169531247Y-135194761D01*
X169531248Y-135194767D01*
X169545606Y-135258475D01*
X169579222Y-135407639D01*
X169663266Y-135614616D01*
X169700685Y-135675678D01*
X169777291Y-135800688D01*
X169779987Y-135805088D01*
X169926250Y-135973938D01*
X170098126Y-136116632D01*
X170291000Y-136229338D01*
X170499692Y-136309030D01*
X170504760Y-136310061D01*
X170504763Y-136310062D01*
X170612017Y-136331883D01*
X170718597Y-136353567D01*
X170723772Y-136353757D01*
X170723774Y-136353757D01*
X170936673Y-136361564D01*
X170936677Y-136361564D01*
X170941837Y-136361753D01*
X170946957Y-136361097D01*
X170946959Y-136361097D01*
X171158288Y-136334025D01*
X171158289Y-136334025D01*
X171163416Y-136333368D01*
X171168366Y-136331883D01*
X171372429Y-136270661D01*
X171372434Y-136270659D01*
X171377384Y-136269174D01*
X171577994Y-136170896D01*
X171759860Y-136041173D01*
X171918096Y-135883489D01*
X171977594Y-135800689D01*
X172048453Y-135702077D01*
X172049776Y-135703028D01*
X172096645Y-135659857D01*
X172166580Y-135647625D01*
X172232026Y-135675144D01*
X172259875Y-135706994D01*
X172319987Y-135805088D01*
X172466250Y-135973938D01*
X172638126Y-136116632D01*
X172831000Y-136229338D01*
X173039692Y-136309030D01*
X173044760Y-136310061D01*
X173044763Y-136310062D01*
X173152017Y-136331883D01*
X173258597Y-136353567D01*
X173263772Y-136353757D01*
X173263774Y-136353757D01*
X173476673Y-136361564D01*
X173476677Y-136361564D01*
X173481837Y-136361753D01*
X173486957Y-136361097D01*
X173486959Y-136361097D01*
X173698288Y-136334025D01*
X173698289Y-136334025D01*
X173703416Y-136333368D01*
X173708366Y-136331883D01*
X173912429Y-136270661D01*
X173912434Y-136270659D01*
X173917384Y-136269174D01*
X174117994Y-136170896D01*
X174299860Y-136041173D01*
X174458096Y-135883489D01*
X174517594Y-135800689D01*
X174588453Y-135702077D01*
X174589776Y-135703028D01*
X174636645Y-135659857D01*
X174706580Y-135647625D01*
X174772026Y-135675144D01*
X174799875Y-135706994D01*
X174859987Y-135805088D01*
X175006250Y-135973938D01*
X175178126Y-136116632D01*
X175371000Y-136229338D01*
X175579692Y-136309030D01*
X175584760Y-136310061D01*
X175584763Y-136310062D01*
X175692017Y-136331883D01*
X175798597Y-136353567D01*
X175803772Y-136353757D01*
X175803774Y-136353757D01*
X176016673Y-136361564D01*
X176016677Y-136361564D01*
X176021837Y-136361753D01*
X176026957Y-136361097D01*
X176026959Y-136361097D01*
X176238288Y-136334025D01*
X176238289Y-136334025D01*
X176243416Y-136333368D01*
X176248366Y-136331883D01*
X176452429Y-136270661D01*
X176452434Y-136270659D01*
X176457384Y-136269174D01*
X176657994Y-136170896D01*
X176839860Y-136041173D01*
X176948091Y-135933319D01*
X177010462Y-135899404D01*
X177081268Y-135904592D01*
X177138030Y-135947238D01*
X177155012Y-135978341D01*
X177199385Y-136096705D01*
X177286739Y-136213261D01*
X177403295Y-136300615D01*
X177539684Y-136351745D01*
X177601866Y-136358500D01*
X179398134Y-136358500D01*
X179460316Y-136351745D01*
X179596705Y-136300615D01*
X179713261Y-136213261D01*
X179800615Y-136096705D01*
X179851745Y-135960316D01*
X179858500Y-135898134D01*
X179858500Y-135003301D01*
X191287084Y-135003301D01*
X191307080Y-135384833D01*
X191307766Y-135391371D01*
X191367535Y-135768734D01*
X191368906Y-135775184D01*
X191467788Y-136144216D01*
X191469829Y-136150498D01*
X191606740Y-136507164D01*
X191609422Y-136513189D01*
X191782872Y-136853603D01*
X191786169Y-136859313D01*
X191994253Y-137179735D01*
X191998123Y-137185061D01*
X192191478Y-137423835D01*
X192203733Y-137432300D01*
X192214824Y-137425966D01*
X194627978Y-135012812D01*
X194634356Y-135001132D01*
X195364408Y-135001132D01*
X195364539Y-135002965D01*
X195368790Y-135009580D01*
X197784310Y-137425100D01*
X197797386Y-137432241D01*
X197807753Y-137424784D01*
X198001877Y-137185061D01*
X198005747Y-137179735D01*
X198213831Y-136859313D01*
X198217128Y-136853603D01*
X198390578Y-136513189D01*
X198393260Y-136507164D01*
X198530171Y-136150498D01*
X198532212Y-136144216D01*
X198631094Y-135775184D01*
X198632465Y-135768734D01*
X198692234Y-135391371D01*
X198692920Y-135384833D01*
X198712916Y-135003301D01*
X198712916Y-134996699D01*
X198692920Y-134615167D01*
X198692234Y-134608629D01*
X198632465Y-134231266D01*
X198631094Y-134224816D01*
X198532212Y-133855784D01*
X198530171Y-133849502D01*
X198393260Y-133492836D01*
X198390578Y-133486811D01*
X198217128Y-133146397D01*
X198213831Y-133140687D01*
X198005747Y-132820265D01*
X198001877Y-132814939D01*
X197808522Y-132576165D01*
X197796267Y-132567700D01*
X197785176Y-132574034D01*
X195372022Y-134987188D01*
X195364408Y-135001132D01*
X194634356Y-135001132D01*
X194635592Y-134998868D01*
X194635461Y-134997035D01*
X194631210Y-134990420D01*
X192215690Y-132574900D01*
X192202614Y-132567759D01*
X192192247Y-132575216D01*
X191998123Y-132814939D01*
X191994253Y-132820265D01*
X191786169Y-133140687D01*
X191782872Y-133146397D01*
X191609422Y-133486811D01*
X191606740Y-133492836D01*
X191469829Y-133849502D01*
X191467788Y-133855784D01*
X191368906Y-134224816D01*
X191367535Y-134231266D01*
X191307766Y-134608629D01*
X191307080Y-134615167D01*
X191287084Y-134996699D01*
X191287084Y-135003301D01*
X179858500Y-135003301D01*
X179858500Y-134101866D01*
X179851745Y-134039684D01*
X179800615Y-133903295D01*
X179713261Y-133786739D01*
X179596705Y-133699385D01*
X179460316Y-133648255D01*
X179398134Y-133641500D01*
X177601866Y-133641500D01*
X177539684Y-133648255D01*
X177403295Y-133699385D01*
X177286739Y-133786739D01*
X177199385Y-133903295D01*
X177196233Y-133911703D01*
X177154919Y-134021907D01*
X177112277Y-134078671D01*
X177045716Y-134103371D01*
X176976367Y-134088163D01*
X176943743Y-134062476D01*
X176893151Y-134006875D01*
X176893142Y-134006866D01*
X176889670Y-134003051D01*
X176885619Y-133999852D01*
X176885615Y-133999848D01*
X176718414Y-133867800D01*
X176718410Y-133867798D01*
X176714359Y-133864598D01*
X176698393Y-133855784D01*
X176662136Y-133835769D01*
X176518789Y-133756638D01*
X176513920Y-133754914D01*
X176513916Y-133754912D01*
X176313087Y-133683795D01*
X176313083Y-133683794D01*
X176308212Y-133682069D01*
X176303119Y-133681162D01*
X176303116Y-133681161D01*
X176093373Y-133643800D01*
X176093367Y-133643799D01*
X176088284Y-133642894D01*
X176014452Y-133641992D01*
X175870081Y-133640228D01*
X175870079Y-133640228D01*
X175864911Y-133640165D01*
X175644091Y-133673955D01*
X175431756Y-133743357D01*
X175233607Y-133846507D01*
X175229474Y-133849610D01*
X175229471Y-133849612D01*
X175146450Y-133911946D01*
X175054965Y-133980635D01*
X175015525Y-134021907D01*
X174961280Y-134078671D01*
X174900629Y-134142138D01*
X174793201Y-134299621D01*
X174738293Y-134344621D01*
X174667768Y-134352792D01*
X174604021Y-134321538D01*
X174583324Y-134297054D01*
X174502822Y-134172617D01*
X174502820Y-134172614D01*
X174500014Y-134168277D01*
X174349670Y-134003051D01*
X174345619Y-133999852D01*
X174345615Y-133999848D01*
X174178414Y-133867800D01*
X174178410Y-133867798D01*
X174174359Y-133864598D01*
X174158393Y-133855784D01*
X174122136Y-133835769D01*
X173978789Y-133756638D01*
X173973920Y-133754914D01*
X173973916Y-133754912D01*
X173773087Y-133683795D01*
X173773083Y-133683794D01*
X173768212Y-133682069D01*
X173763119Y-133681162D01*
X173763116Y-133681161D01*
X173553373Y-133643800D01*
X173553367Y-133643799D01*
X173548284Y-133642894D01*
X173474452Y-133641992D01*
X173330081Y-133640228D01*
X173330079Y-133640228D01*
X173324911Y-133640165D01*
X173104091Y-133673955D01*
X172891756Y-133743357D01*
X172693607Y-133846507D01*
X172689474Y-133849610D01*
X172689471Y-133849612D01*
X172606450Y-133911946D01*
X172514965Y-133980635D01*
X172475525Y-134021907D01*
X172421280Y-134078671D01*
X172360629Y-134142138D01*
X172253201Y-134299621D01*
X172198293Y-134344621D01*
X172127768Y-134352792D01*
X172064021Y-134321538D01*
X172043324Y-134297054D01*
X171962822Y-134172617D01*
X171962820Y-134172614D01*
X171960014Y-134168277D01*
X171809670Y-134003051D01*
X171805619Y-133999852D01*
X171805615Y-133999848D01*
X171638414Y-133867800D01*
X171638410Y-133867798D01*
X171634359Y-133864598D01*
X171618393Y-133855784D01*
X171582136Y-133835769D01*
X171438789Y-133756638D01*
X171433920Y-133754914D01*
X171433916Y-133754912D01*
X171233087Y-133683795D01*
X171233083Y-133683794D01*
X171228212Y-133682069D01*
X171223119Y-133681162D01*
X171223116Y-133681161D01*
X171013373Y-133643800D01*
X171013367Y-133643799D01*
X171008284Y-133642894D01*
X170934452Y-133641992D01*
X170790081Y-133640228D01*
X170790079Y-133640228D01*
X170784911Y-133640165D01*
X170564091Y-133673955D01*
X170351756Y-133743357D01*
X170153607Y-133846507D01*
X170149474Y-133849610D01*
X170149471Y-133849612D01*
X170066450Y-133911946D01*
X169974965Y-133980635D01*
X169935525Y-134021907D01*
X169881280Y-134078671D01*
X169820629Y-134142138D01*
X169694743Y-134326680D01*
X169600688Y-134529305D01*
X169540989Y-134744570D01*
X169517251Y-134966695D01*
X149858500Y-134966695D01*
X149858500Y-134101866D01*
X149851745Y-134039684D01*
X149800615Y-133903295D01*
X149713261Y-133786739D01*
X149596705Y-133699385D01*
X149460316Y-133648255D01*
X149398134Y-133641500D01*
X147601866Y-133641500D01*
X147539684Y-133648255D01*
X147403295Y-133699385D01*
X147286739Y-133786739D01*
X147199385Y-133903295D01*
X147196233Y-133911703D01*
X147154919Y-134021907D01*
X147112277Y-134078671D01*
X147045716Y-134103371D01*
X146976367Y-134088163D01*
X146943743Y-134062476D01*
X146893151Y-134006875D01*
X146893142Y-134006866D01*
X146889670Y-134003051D01*
X146885619Y-133999852D01*
X146885615Y-133999848D01*
X146718414Y-133867800D01*
X146718410Y-133867798D01*
X146714359Y-133864598D01*
X146698393Y-133855784D01*
X146662136Y-133835769D01*
X146518789Y-133756638D01*
X146513920Y-133754914D01*
X146513916Y-133754912D01*
X146313087Y-133683795D01*
X146313083Y-133683794D01*
X146308212Y-133682069D01*
X146303119Y-133681162D01*
X146303116Y-133681161D01*
X146093373Y-133643800D01*
X146093367Y-133643799D01*
X146088284Y-133642894D01*
X146014452Y-133641992D01*
X145870081Y-133640228D01*
X145870079Y-133640228D01*
X145864911Y-133640165D01*
X145644091Y-133673955D01*
X145431756Y-133743357D01*
X145233607Y-133846507D01*
X145229474Y-133849610D01*
X145229471Y-133849612D01*
X145146450Y-133911946D01*
X145054965Y-133980635D01*
X145015525Y-134021907D01*
X144961280Y-134078671D01*
X144900629Y-134142138D01*
X144793201Y-134299621D01*
X144738293Y-134344621D01*
X144667768Y-134352792D01*
X144604021Y-134321538D01*
X144583324Y-134297054D01*
X144502822Y-134172617D01*
X144502820Y-134172614D01*
X144500014Y-134168277D01*
X144349670Y-134003051D01*
X144345615Y-133999848D01*
X144226407Y-133905703D01*
X144185345Y-133847785D01*
X144178500Y-133806821D01*
X144178500Y-132203733D01*
X192567700Y-132203733D01*
X192574034Y-132214824D01*
X194987188Y-134627978D01*
X195001132Y-134635592D01*
X195002965Y-134635461D01*
X195009580Y-134631210D01*
X197425100Y-132215690D01*
X197432241Y-132202614D01*
X197424784Y-132192247D01*
X197185065Y-131998126D01*
X197179728Y-131994249D01*
X196859315Y-131786170D01*
X196853606Y-131782873D01*
X196513189Y-131609422D01*
X196507164Y-131606740D01*
X196150498Y-131469829D01*
X196144216Y-131467788D01*
X195775184Y-131368906D01*
X195768734Y-131367535D01*
X195391371Y-131307766D01*
X195384833Y-131307080D01*
X195003301Y-131287084D01*
X194996699Y-131287084D01*
X194615167Y-131307080D01*
X194608629Y-131307766D01*
X194231266Y-131367535D01*
X194224816Y-131368906D01*
X193855784Y-131467788D01*
X193849502Y-131469829D01*
X193492836Y-131606740D01*
X193486811Y-131609422D01*
X193146397Y-131782872D01*
X193140687Y-131786169D01*
X192820265Y-131994253D01*
X192814939Y-131998123D01*
X192576165Y-132191478D01*
X192567700Y-132203733D01*
X144178500Y-132203733D01*
X144178500Y-119987070D01*
X144179933Y-119968120D01*
X144182099Y-119953885D01*
X144182099Y-119953881D01*
X144183199Y-119946651D01*
X144182402Y-119936844D01*
X144178915Y-119893982D01*
X144178500Y-119883767D01*
X144178500Y-119875707D01*
X144175209Y-119847480D01*
X144174778Y-119843121D01*
X144172789Y-119818664D01*
X144168860Y-119770364D01*
X144166605Y-119763403D01*
X144165418Y-119757463D01*
X144164029Y-119751588D01*
X144163182Y-119744319D01*
X144138264Y-119675670D01*
X144136847Y-119671542D01*
X144116607Y-119609064D01*
X144116606Y-119609062D01*
X144114351Y-119602101D01*
X144110555Y-119595846D01*
X144108049Y-119590372D01*
X144105330Y-119584942D01*
X144102833Y-119578063D01*
X144062814Y-119517024D01*
X144060467Y-119513305D01*
X144022595Y-119450893D01*
X144015197Y-119442516D01*
X144015224Y-119442492D01*
X144012571Y-119439500D01*
X144009868Y-119436267D01*
X144005856Y-119430148D01*
X143949617Y-119376872D01*
X143947175Y-119374494D01*
X143572681Y-119000000D01*
X169486835Y-119000000D01*
X169505465Y-119236711D01*
X169506619Y-119241518D01*
X169506620Y-119241524D01*
X169536122Y-119364408D01*
X169560895Y-119467594D01*
X169651760Y-119686963D01*
X169654346Y-119691183D01*
X169773241Y-119885202D01*
X169773245Y-119885208D01*
X169775824Y-119889416D01*
X169930031Y-120069969D01*
X170110584Y-120224176D01*
X170114792Y-120226755D01*
X170114798Y-120226759D01*
X170255596Y-120313040D01*
X170313037Y-120348240D01*
X170317607Y-120350133D01*
X170317611Y-120350135D01*
X170527833Y-120437211D01*
X170532406Y-120439105D01*
X170612609Y-120458360D01*
X170758476Y-120493380D01*
X170758482Y-120493381D01*
X170763289Y-120494535D01*
X171000000Y-120513165D01*
X171236711Y-120494535D01*
X171241518Y-120493381D01*
X171241524Y-120493380D01*
X171387391Y-120458360D01*
X171467594Y-120439105D01*
X171472167Y-120437211D01*
X171682389Y-120350135D01*
X171682393Y-120350133D01*
X171686963Y-120348240D01*
X171744404Y-120313040D01*
X171885202Y-120226759D01*
X171885208Y-120226755D01*
X171889416Y-120224176D01*
X172069969Y-120069969D01*
X172224176Y-119889416D01*
X172267533Y-119818664D01*
X172320181Y-119771033D01*
X172374965Y-119758500D01*
X175125035Y-119758500D01*
X175193156Y-119778502D01*
X175232466Y-119818663D01*
X175275824Y-119889416D01*
X175430031Y-120069969D01*
X175610584Y-120224176D01*
X175614792Y-120226755D01*
X175614798Y-120226759D01*
X175755596Y-120313040D01*
X175813037Y-120348240D01*
X175817607Y-120350133D01*
X175817611Y-120350135D01*
X176027833Y-120437211D01*
X176032406Y-120439105D01*
X176112609Y-120458360D01*
X176258476Y-120493380D01*
X176258482Y-120493381D01*
X176263289Y-120494535D01*
X176500000Y-120513165D01*
X176736711Y-120494535D01*
X176741518Y-120493381D01*
X176741524Y-120493380D01*
X176887391Y-120458360D01*
X176967594Y-120439105D01*
X176972167Y-120437211D01*
X177182389Y-120350135D01*
X177182393Y-120350133D01*
X177186963Y-120348240D01*
X177244404Y-120313040D01*
X177385202Y-120226759D01*
X177385208Y-120226755D01*
X177389416Y-120224176D01*
X177569969Y-120069969D01*
X177724176Y-119889416D01*
X177726755Y-119885208D01*
X177726759Y-119885202D01*
X177845654Y-119691183D01*
X177848240Y-119686963D01*
X177939105Y-119467594D01*
X177963878Y-119364408D01*
X177993380Y-119241524D01*
X177993381Y-119241518D01*
X177994535Y-119236711D01*
X178013165Y-119000000D01*
X177994535Y-118763289D01*
X177991972Y-118752610D01*
X177940260Y-118537218D01*
X177939105Y-118532406D01*
X177848240Y-118313037D01*
X177792145Y-118221498D01*
X177726759Y-118114798D01*
X177726755Y-118114792D01*
X177724176Y-118110584D01*
X177569969Y-117930031D01*
X177389416Y-117775824D01*
X177385208Y-117773245D01*
X177385202Y-117773241D01*
X177191183Y-117654346D01*
X177186963Y-117651760D01*
X177182389Y-117649865D01*
X177177980Y-117647619D01*
X177178809Y-117645991D01*
X177129633Y-117606370D01*
X177107207Y-117539008D01*
X177124759Y-117470215D01*
X177176716Y-117421833D01*
X177233126Y-117408500D01*
X177248134Y-117408500D01*
X177310316Y-117401745D01*
X177446705Y-117350615D01*
X177563261Y-117263261D01*
X177650615Y-117146705D01*
X177701745Y-117010316D01*
X177708500Y-116948134D01*
X177708500Y-115051866D01*
X177701745Y-114989684D01*
X177650615Y-114853295D01*
X177563261Y-114736739D01*
X177446705Y-114649385D01*
X177310316Y-114598255D01*
X177248134Y-114591500D01*
X175351866Y-114591500D01*
X175289684Y-114598255D01*
X175153295Y-114649385D01*
X175036739Y-114736739D01*
X174949385Y-114853295D01*
X174946233Y-114861703D01*
X174946232Y-114861705D01*
X174925538Y-114916906D01*
X174882897Y-114973671D01*
X174816335Y-114998371D01*
X174746986Y-114983164D01*
X174724167Y-114966666D01*
X174723887Y-114966358D01*
X174661270Y-114916906D01*
X174546177Y-114826011D01*
X174546172Y-114826008D01*
X174542123Y-114822810D01*
X174537607Y-114820317D01*
X174537604Y-114820315D01*
X174343879Y-114713373D01*
X174343875Y-114713371D01*
X174339355Y-114710876D01*
X174334486Y-114709152D01*
X174334482Y-114709150D01*
X174125903Y-114635288D01*
X174125899Y-114635287D01*
X174121028Y-114633562D01*
X174115935Y-114632655D01*
X174115932Y-114632654D01*
X173898095Y-114593851D01*
X173898089Y-114593850D01*
X173893006Y-114592945D01*
X173820096Y-114592054D01*
X173666581Y-114590179D01*
X173666579Y-114590179D01*
X173661411Y-114590116D01*
X173432464Y-114625150D01*
X173212314Y-114697106D01*
X173207726Y-114699494D01*
X173207722Y-114699496D01*
X173051064Y-114781047D01*
X173006872Y-114804052D01*
X173002739Y-114807155D01*
X173002736Y-114807157D01*
X172825790Y-114940012D01*
X172821655Y-114943117D01*
X172661639Y-115110564D01*
X172531119Y-115301899D01*
X172433602Y-115511981D01*
X172371707Y-115735169D01*
X172347095Y-115965469D01*
X172347392Y-115970622D01*
X172347392Y-115970625D01*
X172357161Y-116140056D01*
X172360427Y-116196697D01*
X172361564Y-116201743D01*
X172361565Y-116201749D01*
X172381825Y-116291647D01*
X172411346Y-116422642D01*
X172413288Y-116427424D01*
X172413289Y-116427428D01*
X172436377Y-116484286D01*
X172498484Y-116637237D01*
X172619501Y-116834719D01*
X172771147Y-117009784D01*
X172949349Y-117157730D01*
X173149322Y-117274584D01*
X173365694Y-117357209D01*
X173370760Y-117358240D01*
X173370761Y-117358240D01*
X173423846Y-117369040D01*
X173592656Y-117403385D01*
X173722089Y-117408131D01*
X173818949Y-117411683D01*
X173818953Y-117411683D01*
X173824113Y-117411872D01*
X173829233Y-117411216D01*
X173829235Y-117411216D01*
X173903166Y-117401745D01*
X174053847Y-117382442D01*
X174058795Y-117380957D01*
X174058802Y-117380956D01*
X174270747Y-117317369D01*
X174275690Y-117315886D01*
X174356236Y-117276427D01*
X174479049Y-117216262D01*
X174479052Y-117216260D01*
X174483684Y-117213991D01*
X174672243Y-117079494D01*
X174717309Y-117034585D01*
X174779681Y-117000669D01*
X174850487Y-117005857D01*
X174907249Y-117048503D01*
X174924231Y-117079607D01*
X174949385Y-117146705D01*
X175036739Y-117263261D01*
X175153295Y-117350615D01*
X175289684Y-117401745D01*
X175351866Y-117408500D01*
X175766874Y-117408500D01*
X175834995Y-117428502D01*
X175881488Y-117482158D01*
X175891592Y-117552432D01*
X175862098Y-117617012D01*
X175821383Y-117646369D01*
X175822020Y-117647619D01*
X175817611Y-117649865D01*
X175813037Y-117651760D01*
X175808817Y-117654346D01*
X175614798Y-117773241D01*
X175614792Y-117773245D01*
X175610584Y-117775824D01*
X175430031Y-117930031D01*
X175275824Y-118110584D01*
X175232467Y-118181336D01*
X175179819Y-118228967D01*
X175125035Y-118241500D01*
X172374965Y-118241500D01*
X172306844Y-118221498D01*
X172267533Y-118181336D01*
X172224176Y-118110584D01*
X172069969Y-117930031D01*
X171889416Y-117775824D01*
X171885208Y-117773245D01*
X171885202Y-117773241D01*
X171691183Y-117654346D01*
X171686963Y-117651760D01*
X171682393Y-117649867D01*
X171682389Y-117649865D01*
X171472167Y-117562789D01*
X171472165Y-117562788D01*
X171467594Y-117560895D01*
X171376428Y-117539008D01*
X171241524Y-117506620D01*
X171241518Y-117506619D01*
X171236711Y-117505465D01*
X171000000Y-117486835D01*
X170763289Y-117505465D01*
X170758482Y-117506619D01*
X170758476Y-117506620D01*
X170623572Y-117539008D01*
X170532406Y-117560895D01*
X170527835Y-117562788D01*
X170527833Y-117562789D01*
X170317611Y-117649865D01*
X170317607Y-117649867D01*
X170313037Y-117651760D01*
X170308817Y-117654346D01*
X170114798Y-117773241D01*
X170114792Y-117773245D01*
X170110584Y-117775824D01*
X169930031Y-117930031D01*
X169775824Y-118110584D01*
X169773245Y-118114792D01*
X169773241Y-118114798D01*
X169707855Y-118221498D01*
X169651760Y-118313037D01*
X169560895Y-118532406D01*
X169559740Y-118537218D01*
X169508029Y-118752610D01*
X169505465Y-118763289D01*
X169486835Y-119000000D01*
X143572681Y-119000000D01*
X139583770Y-115011089D01*
X139571384Y-114996677D01*
X139562851Y-114985082D01*
X139562846Y-114985077D01*
X139558508Y-114979182D01*
X139552930Y-114974443D01*
X139552927Y-114974440D01*
X139518232Y-114944965D01*
X139510716Y-114938035D01*
X139505021Y-114932340D01*
X139485513Y-114916906D01*
X139482749Y-114914719D01*
X139479345Y-114911928D01*
X139429297Y-114869409D01*
X139429295Y-114869408D01*
X139423715Y-114864667D01*
X139417199Y-114861339D01*
X139412150Y-114857972D01*
X139407021Y-114854805D01*
X139401284Y-114850266D01*
X139335125Y-114819345D01*
X139331225Y-114817439D01*
X139312064Y-114807655D01*
X155089858Y-114807655D01*
X155125104Y-115066638D01*
X155126412Y-115071124D01*
X155126412Y-115071126D01*
X155145806Y-115137665D01*
X155198243Y-115317567D01*
X155307668Y-115554928D01*
X155310231Y-115558837D01*
X155448410Y-115769596D01*
X155448414Y-115769601D01*
X155450976Y-115773509D01*
X155625018Y-115968506D01*
X155825970Y-116135637D01*
X155829973Y-116138066D01*
X156045422Y-116268804D01*
X156045426Y-116268806D01*
X156049419Y-116271229D01*
X156290455Y-116372303D01*
X156543783Y-116436641D01*
X156548434Y-116437109D01*
X156548438Y-116437110D01*
X156741308Y-116456531D01*
X156760867Y-116458500D01*
X158416354Y-116458500D01*
X158418679Y-116458327D01*
X158418685Y-116458327D01*
X158606000Y-116444407D01*
X158606004Y-116444406D01*
X158610652Y-116444061D01*
X158615200Y-116443032D01*
X158615206Y-116443031D01*
X158801601Y-116400853D01*
X158865577Y-116386377D01*
X158901769Y-116372303D01*
X159104824Y-116293340D01*
X159104827Y-116293339D01*
X159109177Y-116291647D01*
X159336098Y-116161951D01*
X159541357Y-116000138D01*
X159720443Y-115809763D01*
X159862974Y-115604307D01*
X159866759Y-115598851D01*
X159866761Y-115598848D01*
X159869424Y-115595009D01*
X159885751Y-115561901D01*
X159933819Y-115509652D01*
X160002505Y-115491685D01*
X160070000Y-115513704D01*
X160107558Y-115555000D01*
X160107668Y-115554928D01*
X160110228Y-115558833D01*
X160110231Y-115558838D01*
X160248410Y-115769596D01*
X160248414Y-115769601D01*
X160250976Y-115773509D01*
X160425018Y-115968506D01*
X160625970Y-116135637D01*
X160629973Y-116138066D01*
X160845422Y-116268804D01*
X160845426Y-116268806D01*
X160849419Y-116271229D01*
X161090455Y-116372303D01*
X161343783Y-116436641D01*
X161348434Y-116437109D01*
X161348438Y-116437110D01*
X161541308Y-116456531D01*
X161560867Y-116458500D01*
X163216354Y-116458500D01*
X163218679Y-116458327D01*
X163218685Y-116458327D01*
X163406000Y-116444407D01*
X163406004Y-116444406D01*
X163410652Y-116444061D01*
X163415200Y-116443032D01*
X163415206Y-116443031D01*
X163601601Y-116400853D01*
X163665577Y-116386377D01*
X163701769Y-116372303D01*
X163904824Y-116293340D01*
X163904827Y-116293339D01*
X163909177Y-116291647D01*
X164136098Y-116161951D01*
X164341357Y-116000138D01*
X164520443Y-115809763D01*
X164662974Y-115604307D01*
X164666759Y-115598851D01*
X164666761Y-115598848D01*
X164669424Y-115595009D01*
X164687262Y-115558837D01*
X164782960Y-115364781D01*
X164782961Y-115364778D01*
X164785025Y-115360593D01*
X164798571Y-115318277D01*
X164863280Y-115116123D01*
X164864707Y-115111665D01*
X164906721Y-114853693D01*
X164909580Y-114635288D01*
X164910081Y-114597022D01*
X164910081Y-114597019D01*
X164910142Y-114592345D01*
X164874896Y-114333362D01*
X164860473Y-114283877D01*
X164853902Y-114261336D01*
X164801757Y-114082433D01*
X164793707Y-114064970D01*
X164720600Y-113906391D01*
X164692332Y-113845072D01*
X164616509Y-113729422D01*
X164551590Y-113630404D01*
X164551586Y-113630399D01*
X164549024Y-113626491D01*
X164374982Y-113431494D01*
X164174030Y-113264363D01*
X164104053Y-113221900D01*
X163954578Y-113131196D01*
X163954574Y-113131194D01*
X163950581Y-113128771D01*
X163709545Y-113027697D01*
X163456217Y-112963359D01*
X163451566Y-112962891D01*
X163451562Y-112962890D01*
X163242271Y-112941816D01*
X163239133Y-112941500D01*
X161583646Y-112941500D01*
X161581321Y-112941673D01*
X161581315Y-112941673D01*
X161394000Y-112955593D01*
X161393996Y-112955594D01*
X161389348Y-112955939D01*
X161384800Y-112956968D01*
X161384794Y-112956969D01*
X161198399Y-112999147D01*
X161134423Y-113013623D01*
X161130071Y-113015315D01*
X161130069Y-113015316D01*
X160895176Y-113106660D01*
X160895173Y-113106661D01*
X160890823Y-113108353D01*
X160663902Y-113238049D01*
X160458643Y-113399862D01*
X160279557Y-113590237D01*
X160183000Y-113729422D01*
X160134761Y-113798959D01*
X160130576Y-113804991D01*
X160128510Y-113809181D01*
X160128508Y-113809184D01*
X160114249Y-113838099D01*
X160066181Y-113890348D01*
X159997495Y-113908315D01*
X159930000Y-113886296D01*
X159892442Y-113845000D01*
X159892332Y-113845072D01*
X159891877Y-113844378D01*
X159889772Y-113841167D01*
X159889769Y-113841162D01*
X159751590Y-113630404D01*
X159751586Y-113630399D01*
X159749024Y-113626491D01*
X159574982Y-113431494D01*
X159374030Y-113264363D01*
X159304053Y-113221900D01*
X159154578Y-113131196D01*
X159154574Y-113131194D01*
X159150581Y-113128771D01*
X158909545Y-113027697D01*
X158656217Y-112963359D01*
X158651566Y-112962891D01*
X158651562Y-112962890D01*
X158442271Y-112941816D01*
X158439133Y-112941500D01*
X156783646Y-112941500D01*
X156781321Y-112941673D01*
X156781315Y-112941673D01*
X156594000Y-112955593D01*
X156593996Y-112955594D01*
X156589348Y-112955939D01*
X156584800Y-112956968D01*
X156584794Y-112956969D01*
X156398399Y-112999147D01*
X156334423Y-113013623D01*
X156330071Y-113015315D01*
X156330069Y-113015316D01*
X156095176Y-113106660D01*
X156095173Y-113106661D01*
X156090823Y-113108353D01*
X155863902Y-113238049D01*
X155658643Y-113399862D01*
X155479557Y-113590237D01*
X155383000Y-113729422D01*
X155334761Y-113798959D01*
X155330576Y-113804991D01*
X155328510Y-113809181D01*
X155328508Y-113809184D01*
X155280002Y-113907546D01*
X155214975Y-114039407D01*
X155213553Y-114043850D01*
X155213552Y-114043852D01*
X155201202Y-114082433D01*
X155135293Y-114288335D01*
X155093279Y-114546307D01*
X155092683Y-114591869D01*
X155090165Y-114784231D01*
X155089858Y-114807655D01*
X139312064Y-114807655D01*
X139266192Y-114784231D01*
X139259084Y-114782492D01*
X139253441Y-114780393D01*
X139247678Y-114778476D01*
X139241050Y-114775378D01*
X139169583Y-114760513D01*
X139165299Y-114759543D01*
X139094390Y-114742192D01*
X139088788Y-114741844D01*
X139088785Y-114741844D01*
X139083236Y-114741500D01*
X139083238Y-114741464D01*
X139079245Y-114741225D01*
X139075053Y-114740851D01*
X139067885Y-114739360D01*
X139001675Y-114741151D01*
X138990479Y-114741454D01*
X138987072Y-114741500D01*
X98992248Y-114741500D01*
X98924127Y-114721498D01*
X98884815Y-114681335D01*
X98850385Y-114625150D01*
X98805328Y-114551624D01*
X98640898Y-114359102D01*
X98448376Y-114194672D01*
X98232502Y-114062384D01*
X98227932Y-114060491D01*
X98227928Y-114060489D01*
X98003164Y-113967389D01*
X98003162Y-113967388D01*
X97998591Y-113965495D01*
X97913968Y-113945179D01*
X97757216Y-113907546D01*
X97757210Y-113907545D01*
X97752403Y-113906391D01*
X97500000Y-113886526D01*
X97247597Y-113906391D01*
X97242787Y-113907546D01*
X97242779Y-113907547D01*
X97228011Y-113911093D01*
X97157103Y-113907547D01*
X97099368Y-113866229D01*
X97073138Y-113800256D01*
X97087344Y-113729422D01*
X97201437Y-113514844D01*
X97201439Y-113514841D01*
X97202479Y-113512884D01*
X97237163Y-113434984D01*
X97429092Y-113003902D01*
X97429094Y-113003896D01*
X97429980Y-113001907D01*
X97444011Y-112963359D01*
X97543469Y-112690099D01*
X97620162Y-112479389D01*
X99135541Y-112479389D01*
X99143678Y-112490395D01*
X99403938Y-112690099D01*
X99409537Y-112693933D01*
X99705261Y-112873736D01*
X99711251Y-112876948D01*
X100024657Y-113023758D01*
X100030961Y-113026305D01*
X100358384Y-113138406D01*
X100364935Y-113140260D01*
X100702539Y-113216342D01*
X100709258Y-113217479D01*
X101053113Y-113256657D01*
X101059903Y-113257060D01*
X101405973Y-113258872D01*
X101412774Y-113258540D01*
X101757020Y-113222966D01*
X101763748Y-113221900D01*
X102102144Y-113149353D01*
X102108693Y-113147574D01*
X102437278Y-113038905D01*
X102443620Y-113036419D01*
X102758523Y-112892910D01*
X102764577Y-112889745D01*
X103062128Y-112713073D01*
X103067809Y-112709270D01*
X103344547Y-112501489D01*
X103349771Y-112497105D01*
X103356238Y-112491053D01*
X103364307Y-112477373D01*
X103364280Y-112476649D01*
X103359136Y-112468346D01*
X101262812Y-110372022D01*
X101248868Y-110364408D01*
X101247035Y-110364539D01*
X101240420Y-110368790D01*
X99142422Y-112466788D01*
X99135541Y-112479389D01*
X97620162Y-112479389D01*
X97621284Y-112476305D01*
X97690140Y-112236177D01*
X97774848Y-111940763D01*
X97774848Y-111940762D01*
X97775457Y-111938639D01*
X97891749Y-111391528D01*
X97931571Y-111108182D01*
X97960858Y-111043509D01*
X98020462Y-111004936D01*
X98091458Y-111004711D01*
X98151306Y-111042905D01*
X98173577Y-111079540D01*
X98282110Y-111355067D01*
X98284941Y-111361250D01*
X98445815Y-111667670D01*
X98449298Y-111673513D01*
X98642321Y-111960761D01*
X98646424Y-111966205D01*
X98761911Y-112103351D01*
X98774650Y-112111794D01*
X98785094Y-112105696D01*
X100877978Y-110012812D01*
X100884356Y-110001132D01*
X101614408Y-110001132D01*
X101614539Y-110002965D01*
X101618790Y-110009580D01*
X103713553Y-112104343D01*
X103727150Y-112111768D01*
X103736761Y-112105068D01*
X103832845Y-111993360D01*
X103837003Y-111987960D01*
X104033023Y-111702751D01*
X104036570Y-111696940D01*
X104200634Y-111392238D01*
X104203541Y-111386060D01*
X104333744Y-111065411D01*
X104335958Y-111058981D01*
X104430769Y-110726143D01*
X104432276Y-110719513D01*
X104476826Y-110458884D01*
X123331500Y-110458884D01*
X123331665Y-110461152D01*
X123331665Y-110461164D01*
X123339725Y-110572238D01*
X123346125Y-110660451D01*
X123347109Y-110664906D01*
X123347109Y-110664909D01*
X123390481Y-110861353D01*
X123404585Y-110925237D01*
X123434695Y-111004711D01*
X123459979Y-111071446D01*
X123500655Y-111178810D01*
X123632324Y-111415859D01*
X123649272Y-111438066D01*
X123767429Y-111592888D01*
X123796833Y-111631417D01*
X123800099Y-111634610D01*
X123800101Y-111634612D01*
X123839895Y-111673513D01*
X123990736Y-111820970D01*
X124209972Y-111980547D01*
X124449947Y-112106804D01*
X124454248Y-112108323D01*
X124454253Y-112108325D01*
X124587087Y-112155233D01*
X124705634Y-112197096D01*
X124803653Y-112216415D01*
X124967206Y-112248652D01*
X124967212Y-112248653D01*
X124971678Y-112249533D01*
X124976232Y-112249760D01*
X124976234Y-112249760D01*
X125237936Y-112262789D01*
X125237942Y-112262789D01*
X125242505Y-112263016D01*
X125512441Y-112237262D01*
X125516870Y-112236178D01*
X125516877Y-112236177D01*
X125676584Y-112197096D01*
X125775832Y-112172810D01*
X125935039Y-112108325D01*
X126022931Y-112072725D01*
X126022932Y-112072725D01*
X126027160Y-112071012D01*
X126249609Y-111940763D01*
X126257216Y-111936309D01*
X126257217Y-111936308D01*
X126261161Y-111933999D01*
X126472932Y-111764641D01*
X126545527Y-111686929D01*
X126654921Y-111569824D01*
X126654923Y-111569821D01*
X126658037Y-111566488D01*
X126812598Y-111343688D01*
X126834264Y-111300138D01*
X126931346Y-111104997D01*
X126931347Y-111104994D01*
X126933379Y-111100910D01*
X127017847Y-110843240D01*
X127050375Y-110655900D01*
X127063579Y-110579856D01*
X127063580Y-110579848D01*
X127064235Y-110576075D01*
X127068500Y-110490400D01*
X127068500Y-110458884D01*
X132931500Y-110458884D01*
X132931665Y-110461152D01*
X132931665Y-110461164D01*
X132939725Y-110572238D01*
X132946125Y-110660451D01*
X132947109Y-110664906D01*
X132947109Y-110664909D01*
X132990481Y-110861353D01*
X133004585Y-110925237D01*
X133034695Y-111004711D01*
X133059979Y-111071446D01*
X133100655Y-111178810D01*
X133232324Y-111415859D01*
X133249272Y-111438066D01*
X133367429Y-111592888D01*
X133396833Y-111631417D01*
X133400099Y-111634610D01*
X133400101Y-111634612D01*
X133439895Y-111673513D01*
X133590736Y-111820970D01*
X133809972Y-111980547D01*
X134049947Y-112106804D01*
X134054248Y-112108323D01*
X134054253Y-112108325D01*
X134187087Y-112155233D01*
X134305634Y-112197096D01*
X134403653Y-112216415D01*
X134567206Y-112248652D01*
X134567212Y-112248653D01*
X134571678Y-112249533D01*
X134576232Y-112249760D01*
X134576234Y-112249760D01*
X134837936Y-112262789D01*
X134837942Y-112262789D01*
X134842505Y-112263016D01*
X135112441Y-112237262D01*
X135116870Y-112236178D01*
X135116877Y-112236177D01*
X135276584Y-112197096D01*
X135375832Y-112172810D01*
X135535039Y-112108325D01*
X135622931Y-112072725D01*
X135622932Y-112072725D01*
X135627160Y-112071012D01*
X135849609Y-111940763D01*
X135857216Y-111936309D01*
X135857217Y-111936308D01*
X135861161Y-111933999D01*
X136072932Y-111764641D01*
X136145527Y-111686929D01*
X136254921Y-111569824D01*
X136254923Y-111569821D01*
X136258037Y-111566488D01*
X136412598Y-111343688D01*
X136434264Y-111300138D01*
X136531346Y-111104997D01*
X136531347Y-111104994D01*
X136533379Y-111100910D01*
X136617847Y-110843240D01*
X136650375Y-110655900D01*
X136663579Y-110579856D01*
X136663580Y-110579848D01*
X136664235Y-110576075D01*
X136668500Y-110490400D01*
X136668500Y-110107655D01*
X155089858Y-110107655D01*
X155125104Y-110366638D01*
X155198243Y-110617567D01*
X155307668Y-110854928D01*
X155331031Y-110890562D01*
X155448410Y-111069596D01*
X155448414Y-111069601D01*
X155450976Y-111073509D01*
X155625018Y-111268506D01*
X155825970Y-111435637D01*
X155829973Y-111438066D01*
X156045422Y-111568804D01*
X156045426Y-111568806D01*
X156049419Y-111571229D01*
X156290455Y-111672303D01*
X156543783Y-111736641D01*
X156548434Y-111737109D01*
X156548438Y-111737110D01*
X156739307Y-111756329D01*
X156760867Y-111758500D01*
X158416354Y-111758500D01*
X158418679Y-111758327D01*
X158418685Y-111758327D01*
X158606000Y-111744407D01*
X158606004Y-111744406D01*
X158610652Y-111744061D01*
X158615200Y-111743032D01*
X158615206Y-111743031D01*
X158801601Y-111700853D01*
X158865577Y-111686377D01*
X158869931Y-111684684D01*
X159104824Y-111593340D01*
X159104827Y-111593339D01*
X159109177Y-111591647D01*
X159114024Y-111588877D01*
X159193196Y-111543626D01*
X159336098Y-111461951D01*
X159541357Y-111300138D01*
X159720443Y-111109763D01*
X159869424Y-110895009D01*
X159886022Y-110861352D01*
X159934089Y-110809104D01*
X160002774Y-110791137D01*
X160070270Y-110813156D01*
X160108064Y-110854713D01*
X160108107Y-110854685D01*
X160108284Y-110854955D01*
X160109227Y-110855992D01*
X160110667Y-110858590D01*
X160248808Y-111069291D01*
X160254491Y-111076696D01*
X160422249Y-111264654D01*
X160428965Y-111271139D01*
X160622666Y-111432239D01*
X160630258Y-111437654D01*
X160845646Y-111568354D01*
X160853963Y-111572592D01*
X161086299Y-111670019D01*
X161095149Y-111672980D01*
X161339331Y-111734994D01*
X161348528Y-111736616D01*
X161557753Y-111757684D01*
X161564045Y-111758000D01*
X162127885Y-111758000D01*
X162143124Y-111753525D01*
X162144329Y-111752135D01*
X162146000Y-111744452D01*
X162146000Y-111739885D01*
X162654000Y-111739885D01*
X162658475Y-111755124D01*
X162659865Y-111756329D01*
X162667548Y-111758000D01*
X163213998Y-111758000D01*
X163218673Y-111757827D01*
X163405926Y-111743912D01*
X163415132Y-111742536D01*
X163660874Y-111686929D01*
X163669785Y-111684205D01*
X163904608Y-111592888D01*
X163913017Y-111588877D01*
X164131760Y-111463854D01*
X164139486Y-111458643D01*
X164337350Y-111302659D01*
X164344218Y-111296366D01*
X164516848Y-111112856D01*
X164522722Y-111105602D01*
X164666327Y-110898597D01*
X164671060Y-110890562D01*
X164782495Y-110664593D01*
X164785983Y-110655960D01*
X164862793Y-110416006D01*
X164864973Y-110406924D01*
X164886967Y-110271880D01*
X164885271Y-110258286D01*
X164871161Y-110254000D01*
X162672115Y-110254000D01*
X162656876Y-110258475D01*
X162655671Y-110259865D01*
X162654000Y-110267548D01*
X162654000Y-111739885D01*
X162146000Y-111739885D01*
X162146000Y-109727885D01*
X162654000Y-109727885D01*
X162658475Y-109743124D01*
X162659865Y-109744329D01*
X162667548Y-109746000D01*
X164871606Y-109746000D01*
X164885290Y-109741982D01*
X164887311Y-109728290D01*
X164875036Y-109638096D01*
X164873098Y-109628978D01*
X164802596Y-109387098D01*
X164799333Y-109378367D01*
X164693849Y-109149558D01*
X164689330Y-109141406D01*
X164551192Y-108930709D01*
X164545509Y-108923304D01*
X164377751Y-108735346D01*
X164371035Y-108728861D01*
X164177334Y-108567761D01*
X164169742Y-108562346D01*
X163954354Y-108431646D01*
X163946037Y-108427408D01*
X163713701Y-108329981D01*
X163704851Y-108327020D01*
X163460669Y-108265006D01*
X163451472Y-108263384D01*
X163242247Y-108242316D01*
X163235955Y-108242000D01*
X162672115Y-108242000D01*
X162656876Y-108246475D01*
X162655671Y-108247865D01*
X162654000Y-108255548D01*
X162654000Y-109727885D01*
X162146000Y-109727885D01*
X162146000Y-108260115D01*
X162141525Y-108244876D01*
X162140135Y-108243671D01*
X162132452Y-108242000D01*
X161586002Y-108242000D01*
X161581327Y-108242173D01*
X161394074Y-108256088D01*
X161384868Y-108257464D01*
X161139126Y-108313071D01*
X161130215Y-108315795D01*
X160895392Y-108407112D01*
X160886983Y-108411123D01*
X160668240Y-108536146D01*
X160660514Y-108541357D01*
X160462650Y-108697341D01*
X160455782Y-108703634D01*
X160283152Y-108887144D01*
X160277278Y-108894398D01*
X160133673Y-109101403D01*
X160128940Y-109109438D01*
X160114544Y-109138631D01*
X160066476Y-109190880D01*
X159997791Y-109208847D01*
X159930295Y-109186828D01*
X159892345Y-109145100D01*
X159892332Y-109145072D01*
X159888109Y-109138631D01*
X159751590Y-108930404D01*
X159751586Y-108930399D01*
X159749024Y-108926491D01*
X159574982Y-108731494D01*
X159374030Y-108564363D01*
X159326844Y-108535730D01*
X159154578Y-108431196D01*
X159154574Y-108431194D01*
X159150581Y-108428771D01*
X158909545Y-108327697D01*
X158656217Y-108263359D01*
X158651566Y-108262891D01*
X158651562Y-108262890D01*
X158447237Y-108242316D01*
X158439133Y-108241500D01*
X156783646Y-108241500D01*
X156781321Y-108241673D01*
X156781315Y-108241673D01*
X156594000Y-108255593D01*
X156593996Y-108255594D01*
X156589348Y-108255939D01*
X156584800Y-108256968D01*
X156584794Y-108256969D01*
X156398399Y-108299147D01*
X156334423Y-108313623D01*
X156330071Y-108315315D01*
X156330069Y-108315316D01*
X156095176Y-108406660D01*
X156095173Y-108406661D01*
X156090823Y-108408353D01*
X156086769Y-108410670D01*
X156086767Y-108410671D01*
X156050856Y-108431196D01*
X155863902Y-108538049D01*
X155658643Y-108699862D01*
X155479557Y-108890237D01*
X155406721Y-108995229D01*
X155366923Y-109052598D01*
X155330576Y-109104991D01*
X155328510Y-109109181D01*
X155328508Y-109109184D01*
X155290219Y-109186828D01*
X155214975Y-109339407D01*
X155213553Y-109343850D01*
X155213552Y-109343852D01*
X155160999Y-109508029D01*
X155135293Y-109588335D01*
X155093279Y-109846307D01*
X155089858Y-110107655D01*
X136668500Y-110107655D01*
X136668500Y-109541116D01*
X136666328Y-109511170D01*
X136657325Y-109387098D01*
X136653875Y-109339549D01*
X136644275Y-109296066D01*
X136596400Y-109079223D01*
X136596399Y-109079219D01*
X136595415Y-109074763D01*
X136499345Y-108821190D01*
X136375448Y-108598134D01*
X136369894Y-108588134D01*
X136369893Y-108588133D01*
X136367676Y-108584141D01*
X136233519Y-108408353D01*
X136205939Y-108372215D01*
X136205938Y-108372214D01*
X136203167Y-108368583D01*
X136160168Y-108326548D01*
X136073491Y-108241816D01*
X136009264Y-108179030D01*
X135797266Y-108024721D01*
X135793721Y-108022141D01*
X135790028Y-108019453D01*
X135550053Y-107893196D01*
X135545752Y-107891677D01*
X135545747Y-107891675D01*
X135367998Y-107828906D01*
X135294366Y-107802904D01*
X135196347Y-107783585D01*
X135032794Y-107751348D01*
X135032788Y-107751347D01*
X135028322Y-107750467D01*
X135023768Y-107750240D01*
X135023766Y-107750240D01*
X134762064Y-107737211D01*
X134762058Y-107737211D01*
X134757495Y-107736984D01*
X134487559Y-107762738D01*
X134483130Y-107763822D01*
X134483123Y-107763823D01*
X134353069Y-107795648D01*
X134224168Y-107827190D01*
X134219933Y-107828905D01*
X134219931Y-107828906D01*
X133977069Y-107927275D01*
X133972840Y-107928988D01*
X133809340Y-108024721D01*
X133746764Y-108061361D01*
X133738839Y-108066001D01*
X133527068Y-108235359D01*
X133523947Y-108238700D01*
X133346392Y-108428771D01*
X133341963Y-108433512D01*
X133187402Y-108656312D01*
X133185374Y-108660388D01*
X133185373Y-108660390D01*
X133070688Y-108890916D01*
X133066621Y-108899090D01*
X132982153Y-109156760D01*
X132981373Y-109161251D01*
X132981373Y-109161252D01*
X132956807Y-109302738D01*
X132935765Y-109423925D01*
X132931500Y-109509600D01*
X132931500Y-110458884D01*
X127068500Y-110458884D01*
X127068500Y-109541116D01*
X127066328Y-109511170D01*
X127057325Y-109387098D01*
X127053875Y-109339549D01*
X127044275Y-109296066D01*
X126996400Y-109079223D01*
X126996399Y-109079219D01*
X126995415Y-109074763D01*
X126899345Y-108821190D01*
X126775448Y-108598134D01*
X126769894Y-108588134D01*
X126769893Y-108588133D01*
X126767676Y-108584141D01*
X126633519Y-108408353D01*
X126605939Y-108372215D01*
X126605938Y-108372214D01*
X126603167Y-108368583D01*
X126560168Y-108326548D01*
X126473491Y-108241816D01*
X126409264Y-108179030D01*
X126197266Y-108024721D01*
X126193721Y-108022141D01*
X126190028Y-108019453D01*
X125950053Y-107893196D01*
X125945752Y-107891677D01*
X125945747Y-107891675D01*
X125767998Y-107828906D01*
X125694366Y-107802904D01*
X125596347Y-107783585D01*
X125432794Y-107751348D01*
X125432788Y-107751347D01*
X125428322Y-107750467D01*
X125423768Y-107750240D01*
X125423766Y-107750240D01*
X125162064Y-107737211D01*
X125162058Y-107737211D01*
X125157495Y-107736984D01*
X124887559Y-107762738D01*
X124883130Y-107763822D01*
X124883123Y-107763823D01*
X124753069Y-107795648D01*
X124624168Y-107827190D01*
X124619933Y-107828905D01*
X124619931Y-107828906D01*
X124377069Y-107927275D01*
X124372840Y-107928988D01*
X124209340Y-108024721D01*
X124146764Y-108061361D01*
X124138839Y-108066001D01*
X123927068Y-108235359D01*
X123923947Y-108238700D01*
X123746392Y-108428771D01*
X123741963Y-108433512D01*
X123587402Y-108656312D01*
X123585374Y-108660388D01*
X123585373Y-108660390D01*
X123470688Y-108890916D01*
X123466621Y-108899090D01*
X123382153Y-109156760D01*
X123381373Y-109161251D01*
X123381373Y-109161252D01*
X123356807Y-109302738D01*
X123335765Y-109423925D01*
X123331500Y-109509600D01*
X123331500Y-110458884D01*
X104476826Y-110458884D01*
X104490590Y-110378362D01*
X104491370Y-110371622D01*
X104512595Y-110024576D01*
X104512711Y-110020973D01*
X104512779Y-110001819D01*
X104512687Y-109998194D01*
X104493885Y-109651023D01*
X104493150Y-109644257D01*
X104437224Y-109302738D01*
X104435757Y-109296066D01*
X104343278Y-108962597D01*
X104341104Y-108956134D01*
X104213143Y-108634583D01*
X104210290Y-108628409D01*
X104048343Y-108322545D01*
X104044849Y-108316728D01*
X103850813Y-108030140D01*
X103846699Y-108024721D01*
X103738090Y-107896653D01*
X103725265Y-107888217D01*
X103714940Y-107894270D01*
X101622022Y-109987188D01*
X101614408Y-110001132D01*
X100884356Y-110001132D01*
X100885592Y-109998868D01*
X100885461Y-109997035D01*
X100881210Y-109990420D01*
X98786457Y-107895667D01*
X98772920Y-107888275D01*
X98763219Y-107895063D01*
X98660220Y-108015659D01*
X98656066Y-108021092D01*
X98461056Y-108306965D01*
X98457521Y-108312802D01*
X98294518Y-108618080D01*
X98291642Y-108624248D01*
X98172989Y-108919407D01*
X98129022Y-108975151D01*
X98061898Y-108998276D01*
X97992926Y-108981439D01*
X97944006Y-108929987D01*
X97931308Y-108889946D01*
X97892053Y-108610635D01*
X97891749Y-108608472D01*
X97775457Y-108061361D01*
X97726800Y-107891675D01*
X97621892Y-107525815D01*
X97621891Y-107525812D01*
X97621284Y-107523695D01*
X97620752Y-107522234D01*
X99135322Y-107522234D01*
X99135357Y-107523075D01*
X99140410Y-107531200D01*
X101237188Y-109627978D01*
X101251132Y-109635592D01*
X101252965Y-109635461D01*
X101259580Y-109631210D01*
X103357431Y-107533359D01*
X103365045Y-107519415D01*
X103364977Y-107518460D01*
X103361024Y-107512482D01*
X103086667Y-107303479D01*
X103081041Y-107299655D01*
X102784706Y-107120894D01*
X102778694Y-107117697D01*
X102464774Y-106971980D01*
X102458474Y-106969460D01*
X102130664Y-106858503D01*
X102124086Y-106856667D01*
X101786237Y-106781768D01*
X101779499Y-106780652D01*
X101435515Y-106742675D01*
X101428735Y-106742296D01*
X101082636Y-106741693D01*
X101075863Y-106742048D01*
X100731726Y-106778825D01*
X100725016Y-106779912D01*
X100386883Y-106853637D01*
X100380308Y-106855448D01*
X100052117Y-106965259D01*
X100045795Y-106967762D01*
X99731388Y-107112373D01*
X99725345Y-107115559D01*
X99428402Y-107293276D01*
X99422756Y-107297085D01*
X99146726Y-107505844D01*
X99143140Y-107508875D01*
X99135322Y-107522234D01*
X97620752Y-107522234D01*
X97474676Y-107120894D01*
X97430729Y-107000150D01*
X97430726Y-107000142D01*
X97429980Y-106998093D01*
X97416476Y-106967762D01*
X97203377Y-106489132D01*
X97203372Y-106489122D01*
X97202479Y-106487116D01*
X97199418Y-106481358D01*
X97087606Y-106271071D01*
X96962147Y-106035117D01*
X96947827Y-105965581D01*
X96973375Y-105899340D01*
X97030679Y-105857428D01*
X97083284Y-105850353D01*
X97245070Y-105863086D01*
X97250000Y-105863474D01*
X97502403Y-105843609D01*
X97507210Y-105842455D01*
X97507216Y-105842454D01*
X97663968Y-105804821D01*
X97748591Y-105784505D01*
X97761833Y-105779020D01*
X97977928Y-105689511D01*
X97977932Y-105689509D01*
X97982502Y-105687616D01*
X98198376Y-105555328D01*
X98371278Y-105407655D01*
X155089858Y-105407655D01*
X155125104Y-105666638D01*
X155126412Y-105671124D01*
X155126412Y-105671126D01*
X155146098Y-105738664D01*
X155198243Y-105917567D01*
X155307668Y-106154928D01*
X155310231Y-106158837D01*
X155448410Y-106369596D01*
X155448414Y-106369601D01*
X155450976Y-106373509D01*
X155625018Y-106568506D01*
X155825970Y-106735637D01*
X155829973Y-106738066D01*
X156045422Y-106868804D01*
X156045426Y-106868806D01*
X156049419Y-106871229D01*
X156290455Y-106972303D01*
X156543783Y-107036641D01*
X156548434Y-107037109D01*
X156548438Y-107037110D01*
X156741308Y-107056531D01*
X156760867Y-107058500D01*
X158416354Y-107058500D01*
X158418679Y-107058327D01*
X158418685Y-107058327D01*
X158606000Y-107044407D01*
X158606004Y-107044406D01*
X158610652Y-107044061D01*
X158615200Y-107043032D01*
X158615206Y-107043031D01*
X158813800Y-106998093D01*
X158865577Y-106986377D01*
X158901769Y-106972303D01*
X159104824Y-106893340D01*
X159104827Y-106893339D01*
X159109177Y-106891647D01*
X159336098Y-106761951D01*
X159541357Y-106600138D01*
X159720443Y-106409763D01*
X159847532Y-106226566D01*
X159902794Y-106181997D01*
X159973381Y-106174380D01*
X160036880Y-106206134D01*
X160056429Y-106229301D01*
X160083815Y-106271071D01*
X160148410Y-106369596D01*
X160148414Y-106369601D01*
X160150976Y-106373509D01*
X160325018Y-106568506D01*
X160525970Y-106735637D01*
X160529973Y-106738066D01*
X160745422Y-106868804D01*
X160745426Y-106868806D01*
X160749419Y-106871229D01*
X160990455Y-106972303D01*
X161243783Y-107036641D01*
X161248434Y-107037109D01*
X161248438Y-107037110D01*
X161441308Y-107056531D01*
X161460867Y-107058500D01*
X163116354Y-107058500D01*
X163118679Y-107058327D01*
X163118685Y-107058327D01*
X163306000Y-107044407D01*
X163306004Y-107044406D01*
X163310652Y-107044061D01*
X163315200Y-107043032D01*
X163315206Y-107043031D01*
X163513800Y-106998093D01*
X163565577Y-106986377D01*
X163601769Y-106972303D01*
X163804824Y-106893340D01*
X163804827Y-106893339D01*
X163809177Y-106891647D01*
X164036098Y-106761951D01*
X164241357Y-106600138D01*
X164420443Y-106409763D01*
X164547531Y-106226567D01*
X164566759Y-106198851D01*
X164566761Y-106198848D01*
X164569424Y-106195009D01*
X164595966Y-106141187D01*
X164682960Y-105964781D01*
X164682961Y-105964778D01*
X164685025Y-105960593D01*
X164722348Y-105843997D01*
X164763280Y-105716123D01*
X164764707Y-105711665D01*
X164806721Y-105453693D01*
X164810142Y-105192345D01*
X164774896Y-104933362D01*
X164760473Y-104883877D01*
X164721040Y-104748591D01*
X164701757Y-104682433D01*
X164592332Y-104445072D01*
X164515758Y-104328277D01*
X164451590Y-104230404D01*
X164451586Y-104230399D01*
X164449024Y-104226491D01*
X164274982Y-104031494D01*
X164195596Y-103965469D01*
X172347095Y-103965469D01*
X172347392Y-103970622D01*
X172347392Y-103970625D01*
X172358302Y-104159848D01*
X172360427Y-104196697D01*
X172361564Y-104201743D01*
X172361565Y-104201749D01*
X172371328Y-104245070D01*
X172411346Y-104422642D01*
X172413288Y-104427424D01*
X172413289Y-104427428D01*
X172470874Y-104569243D01*
X172498484Y-104637237D01*
X172619501Y-104834719D01*
X172771147Y-105009784D01*
X172905784Y-105121562D01*
X172941219Y-105150980D01*
X172949349Y-105157730D01*
X173149322Y-105274584D01*
X173365694Y-105357209D01*
X173370760Y-105358240D01*
X173370761Y-105358240D01*
X173423846Y-105369040D01*
X173592656Y-105403385D01*
X173722089Y-105408131D01*
X173818949Y-105411683D01*
X173818953Y-105411683D01*
X173824113Y-105411872D01*
X173829233Y-105411216D01*
X173829235Y-105411216D01*
X173903166Y-105401745D01*
X174053847Y-105382442D01*
X174058795Y-105380957D01*
X174058802Y-105380956D01*
X174270747Y-105317369D01*
X174275690Y-105315886D01*
X174356236Y-105276427D01*
X174479049Y-105216262D01*
X174479052Y-105216260D01*
X174483684Y-105213991D01*
X174672243Y-105079494D01*
X174717309Y-105034585D01*
X174779681Y-105000669D01*
X174850487Y-105005857D01*
X174907249Y-105048503D01*
X174924231Y-105079607D01*
X174941884Y-105126695D01*
X174949385Y-105146705D01*
X175036739Y-105263261D01*
X175153295Y-105350615D01*
X175289684Y-105401745D01*
X175351866Y-105408500D01*
X177248134Y-105408500D01*
X177310316Y-105401745D01*
X177446705Y-105350615D01*
X177563261Y-105263261D01*
X177650615Y-105146705D01*
X177701745Y-105010316D01*
X177708500Y-104948134D01*
X177708500Y-103051866D01*
X177701745Y-102989684D01*
X177650615Y-102853295D01*
X177563261Y-102736739D01*
X177446705Y-102649385D01*
X177310316Y-102598255D01*
X177248134Y-102591500D01*
X175351866Y-102591500D01*
X175289684Y-102598255D01*
X175153295Y-102649385D01*
X175036739Y-102736739D01*
X174949385Y-102853295D01*
X174946233Y-102861703D01*
X174946232Y-102861705D01*
X174925538Y-102916906D01*
X174882897Y-102973671D01*
X174816335Y-102998371D01*
X174746986Y-102983164D01*
X174724167Y-102966666D01*
X174723887Y-102966358D01*
X174672297Y-102925615D01*
X174546177Y-102826011D01*
X174546172Y-102826008D01*
X174542123Y-102822810D01*
X174537607Y-102820317D01*
X174537604Y-102820315D01*
X174343879Y-102713373D01*
X174343875Y-102713371D01*
X174339355Y-102710876D01*
X174334486Y-102709152D01*
X174334482Y-102709150D01*
X174125903Y-102635288D01*
X174125899Y-102635287D01*
X174121028Y-102633562D01*
X174115935Y-102632655D01*
X174115932Y-102632654D01*
X173898095Y-102593851D01*
X173898089Y-102593850D01*
X173893006Y-102592945D01*
X173820096Y-102592054D01*
X173666581Y-102590179D01*
X173666579Y-102590179D01*
X173661411Y-102590116D01*
X173432464Y-102625150D01*
X173212314Y-102697106D01*
X173207726Y-102699494D01*
X173207722Y-102699496D01*
X173055953Y-102778502D01*
X173006872Y-102804052D01*
X173002739Y-102807155D01*
X173002736Y-102807157D01*
X172825790Y-102940012D01*
X172821655Y-102943117D01*
X172661639Y-103110564D01*
X172531119Y-103301899D01*
X172433602Y-103511981D01*
X172371707Y-103735169D01*
X172347095Y-103965469D01*
X164195596Y-103965469D01*
X164074030Y-103864363D01*
X163993533Y-103815516D01*
X163854578Y-103731196D01*
X163854574Y-103731194D01*
X163850581Y-103728771D01*
X163609545Y-103627697D01*
X163356217Y-103563359D01*
X163351566Y-103562891D01*
X163351562Y-103562890D01*
X163142271Y-103541816D01*
X163139133Y-103541500D01*
X161483646Y-103541500D01*
X161481321Y-103541673D01*
X161481315Y-103541673D01*
X161294000Y-103555593D01*
X161293996Y-103555594D01*
X161289348Y-103555939D01*
X161284800Y-103556968D01*
X161284794Y-103556969D01*
X161106825Y-103597240D01*
X161034423Y-103613623D01*
X161030071Y-103615315D01*
X161030069Y-103615316D01*
X160795176Y-103706660D01*
X160795173Y-103706661D01*
X160790823Y-103708353D01*
X160786769Y-103710670D01*
X160786767Y-103710671D01*
X160723492Y-103746836D01*
X160563902Y-103838049D01*
X160358643Y-103999862D01*
X160179557Y-104190237D01*
X160098964Y-104306411D01*
X160052469Y-104373433D01*
X159997206Y-104418003D01*
X159926619Y-104425620D01*
X159863120Y-104393866D01*
X159843570Y-104370698D01*
X159751590Y-104230404D01*
X159751586Y-104230399D01*
X159749024Y-104226491D01*
X159574982Y-104031494D01*
X159374030Y-103864363D01*
X159293533Y-103815516D01*
X159154578Y-103731196D01*
X159154574Y-103731194D01*
X159150581Y-103728771D01*
X158909545Y-103627697D01*
X158656217Y-103563359D01*
X158651566Y-103562891D01*
X158651562Y-103562890D01*
X158442271Y-103541816D01*
X158439133Y-103541500D01*
X156783646Y-103541500D01*
X156781321Y-103541673D01*
X156781315Y-103541673D01*
X156594000Y-103555593D01*
X156593996Y-103555594D01*
X156589348Y-103555939D01*
X156584800Y-103556968D01*
X156584794Y-103556969D01*
X156406825Y-103597240D01*
X156334423Y-103613623D01*
X156330071Y-103615315D01*
X156330069Y-103615316D01*
X156095176Y-103706660D01*
X156095173Y-103706661D01*
X156090823Y-103708353D01*
X156086769Y-103710670D01*
X156086767Y-103710671D01*
X156023492Y-103746836D01*
X155863902Y-103838049D01*
X155658643Y-103999862D01*
X155479557Y-104190237D01*
X155441518Y-104245070D01*
X155338294Y-104393866D01*
X155330576Y-104404991D01*
X155328510Y-104409181D01*
X155328508Y-104409184D01*
X155278056Y-104511492D01*
X155214975Y-104639407D01*
X155213553Y-104643850D01*
X155213552Y-104643852D01*
X155151206Y-104838622D01*
X155135293Y-104888335D01*
X155093279Y-105146307D01*
X155092548Y-105202135D01*
X155089972Y-105398971D01*
X155089858Y-105407655D01*
X98371278Y-105407655D01*
X98390898Y-105390898D01*
X98555328Y-105198376D01*
X98687616Y-104982502D01*
X98704177Y-104942522D01*
X98782611Y-104753164D01*
X98782612Y-104753162D01*
X98784505Y-104748591D01*
X98810718Y-104639407D01*
X98842454Y-104507216D01*
X98842455Y-104507210D01*
X98843609Y-104502403D01*
X98863474Y-104250000D01*
X98843609Y-103997597D01*
X98823029Y-103911872D01*
X98785660Y-103756221D01*
X98784505Y-103751409D01*
X98766671Y-103708353D01*
X98689511Y-103522072D01*
X98689509Y-103522068D01*
X98687616Y-103517498D01*
X98555328Y-103301624D01*
X98390898Y-103109102D01*
X98198376Y-102944672D01*
X97982502Y-102812384D01*
X97977932Y-102810491D01*
X97977928Y-102810489D01*
X97753164Y-102717389D01*
X97753162Y-102717388D01*
X97748591Y-102715495D01*
X97628192Y-102686590D01*
X97507216Y-102657546D01*
X97507210Y-102657545D01*
X97502403Y-102656391D01*
X97250000Y-102636526D01*
X96997597Y-102656391D01*
X96992790Y-102657545D01*
X96992784Y-102657546D01*
X96871808Y-102686590D01*
X96751409Y-102715495D01*
X96746838Y-102717388D01*
X96746836Y-102717389D01*
X96522072Y-102810489D01*
X96522068Y-102810491D01*
X96517498Y-102812384D01*
X96301624Y-102944672D01*
X96109102Y-103109102D01*
X95944672Y-103301624D01*
X95812384Y-103517498D01*
X95810491Y-103522068D01*
X95810489Y-103522072D01*
X95733329Y-103708353D01*
X95715495Y-103751409D01*
X95714340Y-103756221D01*
X95676972Y-103911872D01*
X95656391Y-103997597D01*
X95654462Y-104022104D01*
X95653008Y-104040580D01*
X95627722Y-104106921D01*
X95570584Y-104149060D01*
X95499734Y-104153619D01*
X95443089Y-104124331D01*
X95150973Y-103861309D01*
X94710212Y-103516949D01*
X94490911Y-103369028D01*
X94248331Y-103205405D01*
X94248324Y-103205401D01*
X94246504Y-103204173D01*
X93762107Y-102924507D01*
X93760128Y-102923542D01*
X93760119Y-102923537D01*
X93261362Y-102680277D01*
X93261357Y-102680275D01*
X93259381Y-102679311D01*
X93257346Y-102678489D01*
X93257333Y-102678483D01*
X92742829Y-102470610D01*
X92742817Y-102470606D01*
X92740776Y-102469781D01*
X92738681Y-102469100D01*
X92738672Y-102469097D01*
X92727506Y-102465469D01*
X126087095Y-102465469D01*
X126087392Y-102470622D01*
X126087392Y-102470625D01*
X126099087Y-102673454D01*
X126100427Y-102696697D01*
X126101564Y-102701743D01*
X126101565Y-102701749D01*
X126133741Y-102844523D01*
X126151346Y-102922642D01*
X126153288Y-102927424D01*
X126153289Y-102927428D01*
X126232220Y-103121811D01*
X126238484Y-103137237D01*
X126359501Y-103334719D01*
X126511147Y-103509784D01*
X126689349Y-103657730D01*
X126889322Y-103774584D01*
X126894147Y-103776426D01*
X126894148Y-103776427D01*
X126968665Y-103804883D01*
X127105694Y-103857209D01*
X127110760Y-103858240D01*
X127110761Y-103858240D01*
X127125846Y-103861309D01*
X127332656Y-103903385D01*
X127463324Y-103908176D01*
X127558949Y-103911683D01*
X127558953Y-103911683D01*
X127564113Y-103911872D01*
X127569233Y-103911216D01*
X127569235Y-103911216D01*
X127649785Y-103900897D01*
X127793847Y-103882442D01*
X127798795Y-103880957D01*
X127798802Y-103880956D01*
X128010747Y-103817369D01*
X128015690Y-103815886D01*
X128070757Y-103788909D01*
X128219049Y-103716262D01*
X128219052Y-103716260D01*
X128223684Y-103713991D01*
X128412243Y-103579494D01*
X128576303Y-103416005D01*
X128583314Y-103406249D01*
X128645370Y-103319888D01*
X128701365Y-103276240D01*
X128772068Y-103269794D01*
X128835033Y-103302597D01*
X128855128Y-103327584D01*
X128856799Y-103330311D01*
X128856804Y-103330317D01*
X128859501Y-103334719D01*
X129011147Y-103509784D01*
X129189349Y-103657730D01*
X129389322Y-103774584D01*
X129394147Y-103776426D01*
X129394148Y-103776427D01*
X129468665Y-103804883D01*
X129605694Y-103857209D01*
X129610760Y-103858240D01*
X129610761Y-103858240D01*
X129625846Y-103861309D01*
X129832656Y-103903385D01*
X129963324Y-103908176D01*
X130058949Y-103911683D01*
X130058953Y-103911683D01*
X130064113Y-103911872D01*
X130069233Y-103911216D01*
X130069235Y-103911216D01*
X130149785Y-103900897D01*
X130293847Y-103882442D01*
X130298795Y-103880957D01*
X130298802Y-103880956D01*
X130510747Y-103817369D01*
X130515690Y-103815886D01*
X130570757Y-103788909D01*
X130719049Y-103716262D01*
X130719052Y-103716260D01*
X130723684Y-103713991D01*
X130912243Y-103579494D01*
X131076303Y-103416005D01*
X131079319Y-103411808D01*
X131082610Y-103407941D01*
X131141993Y-103369028D01*
X131212987Y-103368397D01*
X131273052Y-103406249D01*
X131300058Y-103456209D01*
X131301501Y-103461457D01*
X131302618Y-103470846D01*
X131348061Y-103573153D01*
X131427287Y-103652241D01*
X131437924Y-103656944D01*
X131437926Y-103656945D01*
X131497462Y-103683265D01*
X131529673Y-103697506D01*
X131555354Y-103700500D01*
X133444646Y-103700500D01*
X133448350Y-103700059D01*
X133448353Y-103700059D01*
X133455746Y-103699179D01*
X133470846Y-103697382D01*
X133552365Y-103661173D01*
X133562518Y-103656663D01*
X133573153Y-103651939D01*
X133652241Y-103572713D01*
X133659202Y-103556969D01*
X133693675Y-103478992D01*
X133697506Y-103470327D01*
X133700500Y-103444646D01*
X133700500Y-101555354D01*
X133697382Y-101529154D01*
X133670935Y-101469612D01*
X133656663Y-101437482D01*
X133651939Y-101426847D01*
X133641197Y-101416123D01*
X133580945Y-101355977D01*
X133572713Y-101347759D01*
X133562076Y-101343056D01*
X133562074Y-101343055D01*
X133502538Y-101316735D01*
X133470327Y-101302494D01*
X133444646Y-101299500D01*
X131555354Y-101299500D01*
X131551650Y-101299941D01*
X131551647Y-101299941D01*
X131544254Y-101300821D01*
X131529154Y-101302618D01*
X131520514Y-101306456D01*
X131520513Y-101306456D01*
X131440670Y-101341921D01*
X131426847Y-101348061D01*
X131418628Y-101356294D01*
X131418627Y-101356295D01*
X131398320Y-101376638D01*
X131347759Y-101427287D01*
X131343056Y-101437924D01*
X131343055Y-101437926D01*
X131306324Y-101521009D01*
X131302494Y-101529673D01*
X131301397Y-101539082D01*
X131299190Y-101547178D01*
X131261975Y-101607639D01*
X131197980Y-101638382D01*
X131127523Y-101629646D01*
X131084434Y-101598837D01*
X130967366Y-101470181D01*
X130967364Y-101470179D01*
X130963887Y-101466358D01*
X130959836Y-101463159D01*
X130959832Y-101463155D01*
X130786177Y-101326011D01*
X130786172Y-101326008D01*
X130782123Y-101322810D01*
X130777607Y-101320317D01*
X130777604Y-101320315D01*
X130583879Y-101213373D01*
X130583875Y-101213371D01*
X130579355Y-101210876D01*
X130574486Y-101209152D01*
X130574482Y-101209150D01*
X130365903Y-101135288D01*
X130365899Y-101135287D01*
X130361028Y-101133562D01*
X130355935Y-101132655D01*
X130355932Y-101132654D01*
X130138095Y-101093851D01*
X130138089Y-101093850D01*
X130133006Y-101092945D01*
X130060096Y-101092054D01*
X129906581Y-101090179D01*
X129906579Y-101090179D01*
X129901411Y-101090116D01*
X129672464Y-101125150D01*
X129452314Y-101197106D01*
X129447726Y-101199494D01*
X129447722Y-101199496D01*
X129255616Y-101299500D01*
X129246872Y-101304052D01*
X129242739Y-101307155D01*
X129242736Y-101307157D01*
X129065790Y-101440012D01*
X129061655Y-101443117D01*
X129043804Y-101461797D01*
X128912846Y-101598837D01*
X128901639Y-101610564D01*
X128854836Y-101679174D01*
X128799927Y-101724175D01*
X128729402Y-101732346D01*
X128665655Y-101701092D01*
X128644959Y-101676609D01*
X128622577Y-101642013D01*
X128622576Y-101642012D01*
X128619764Y-101637665D01*
X128612468Y-101629646D01*
X128513164Y-101520513D01*
X128463887Y-101466358D01*
X128459836Y-101463159D01*
X128459832Y-101463155D01*
X128286177Y-101326011D01*
X128286172Y-101326008D01*
X128282123Y-101322810D01*
X128277607Y-101320317D01*
X128277604Y-101320315D01*
X128083879Y-101213373D01*
X128083875Y-101213371D01*
X128079355Y-101210876D01*
X128074486Y-101209152D01*
X128074482Y-101209150D01*
X127865903Y-101135288D01*
X127865899Y-101135287D01*
X127861028Y-101133562D01*
X127855935Y-101132655D01*
X127855932Y-101132654D01*
X127638095Y-101093851D01*
X127638089Y-101093850D01*
X127633006Y-101092945D01*
X127560096Y-101092054D01*
X127406581Y-101090179D01*
X127406579Y-101090179D01*
X127401411Y-101090116D01*
X127172464Y-101125150D01*
X126952314Y-101197106D01*
X126947726Y-101199494D01*
X126947722Y-101199496D01*
X126755616Y-101299500D01*
X126746872Y-101304052D01*
X126742739Y-101307155D01*
X126742736Y-101307157D01*
X126565790Y-101440012D01*
X126561655Y-101443117D01*
X126543804Y-101461797D01*
X126412846Y-101598837D01*
X126401639Y-101610564D01*
X126398730Y-101614829D01*
X126398724Y-101614837D01*
X126364655Y-101664781D01*
X126271119Y-101801899D01*
X126173602Y-102011981D01*
X126111707Y-102235169D01*
X126087095Y-102465469D01*
X92727506Y-102465469D01*
X92210924Y-102297621D01*
X92210917Y-102297619D01*
X92208818Y-102296937D01*
X91666099Y-102161622D01*
X91624557Y-102154297D01*
X91564453Y-102143699D01*
X91500841Y-102112172D01*
X91464371Y-102051258D01*
X91466624Y-101980297D01*
X91482806Y-101947793D01*
X91516759Y-101898851D01*
X91516761Y-101898848D01*
X91519424Y-101895009D01*
X91565341Y-101801899D01*
X91632960Y-101664781D01*
X91632961Y-101664778D01*
X91635025Y-101660593D01*
X91640973Y-101642013D01*
X91713280Y-101416123D01*
X91714707Y-101411665D01*
X91756721Y-101153693D01*
X91760142Y-100892345D01*
X91724896Y-100633362D01*
X91651757Y-100382433D01*
X91542332Y-100145072D01*
X91474468Y-100041562D01*
X91401590Y-99930404D01*
X91401586Y-99930399D01*
X91399024Y-99926491D01*
X91224982Y-99731494D01*
X91024030Y-99564363D01*
X90876339Y-99474742D01*
X90804578Y-99431196D01*
X90804574Y-99431194D01*
X90800581Y-99428771D01*
X90559545Y-99327697D01*
X90306217Y-99263359D01*
X90301566Y-99262891D01*
X90301562Y-99262890D01*
X90092271Y-99241816D01*
X90089133Y-99241500D01*
X75780585Y-99241500D01*
X75712464Y-99221498D01*
X75691490Y-99204595D01*
X72822273Y-96335378D01*
X72817365Y-96330184D01*
X72768099Y-96274986D01*
X72768097Y-96274984D01*
X72764982Y-96271494D01*
X72677134Y-96198432D01*
X72675483Y-96197034D01*
X72667239Y-96189930D01*
X72661517Y-96185000D01*
X108016835Y-96185000D01*
X108035465Y-96421711D01*
X108090895Y-96652594D01*
X108181760Y-96871963D01*
X108184346Y-96876183D01*
X108303241Y-97070202D01*
X108303245Y-97070208D01*
X108305824Y-97074416D01*
X108460031Y-97254969D01*
X108640584Y-97409176D01*
X108644792Y-97411755D01*
X108644798Y-97411759D01*
X108823724Y-97521405D01*
X108843037Y-97533240D01*
X108847607Y-97535133D01*
X108847611Y-97535135D01*
X109057833Y-97622211D01*
X109062406Y-97624105D01*
X109141018Y-97642978D01*
X109288476Y-97678380D01*
X109288482Y-97678381D01*
X109293289Y-97679535D01*
X109530000Y-97698165D01*
X109766711Y-97679535D01*
X109771518Y-97678381D01*
X109771524Y-97678380D01*
X109918982Y-97642978D01*
X109997594Y-97624105D01*
X110002167Y-97622211D01*
X110212389Y-97535135D01*
X110212393Y-97535133D01*
X110216963Y-97533240D01*
X110236276Y-97521405D01*
X110415202Y-97411759D01*
X110415208Y-97411755D01*
X110419416Y-97409176D01*
X110599969Y-97254969D01*
X110754176Y-97074416D01*
X110756755Y-97070208D01*
X110756759Y-97070202D01*
X110875654Y-96876183D01*
X110878240Y-96871963D01*
X110969105Y-96652594D01*
X111024535Y-96421711D01*
X111043165Y-96185000D01*
X111024535Y-95948289D01*
X111018641Y-95923735D01*
X110983712Y-95778247D01*
X110969105Y-95717406D01*
X110967211Y-95712833D01*
X110880135Y-95502611D01*
X110880133Y-95502607D01*
X110878240Y-95498037D01*
X110875654Y-95493817D01*
X110756759Y-95299798D01*
X110756755Y-95299792D01*
X110754176Y-95295584D01*
X110599969Y-95115031D01*
X110419416Y-94960824D01*
X110348664Y-94917467D01*
X110301033Y-94864819D01*
X110288500Y-94810035D01*
X110288500Y-91844965D01*
X110308502Y-91776844D01*
X110348664Y-91737533D01*
X110419416Y-91694176D01*
X110423178Y-91690963D01*
X110596213Y-91543177D01*
X110599969Y-91539969D01*
X110754176Y-91359416D01*
X110756755Y-91355208D01*
X110756759Y-91355202D01*
X110875654Y-91161183D01*
X110878240Y-91156963D01*
X110888937Y-91131140D01*
X110967211Y-90942167D01*
X110967212Y-90942165D01*
X110969105Y-90937594D01*
X111002387Y-90798965D01*
X111023380Y-90711524D01*
X111023381Y-90711518D01*
X111024535Y-90706711D01*
X111043165Y-90470000D01*
X111024535Y-90233289D01*
X111019643Y-90212910D01*
X110970260Y-90007218D01*
X110969105Y-90002406D01*
X110878240Y-89783037D01*
X110875654Y-89778817D01*
X110756759Y-89584798D01*
X110756755Y-89584792D01*
X110754176Y-89580584D01*
X110599969Y-89400031D01*
X110419416Y-89245824D01*
X110415208Y-89243245D01*
X110415202Y-89243241D01*
X110221183Y-89124346D01*
X110216963Y-89121760D01*
X110212393Y-89119867D01*
X110212389Y-89119865D01*
X110002167Y-89032789D01*
X110002165Y-89032788D01*
X109997594Y-89030895D01*
X109917391Y-89011640D01*
X109771524Y-88976620D01*
X109771518Y-88976619D01*
X109766711Y-88975465D01*
X109530000Y-88956835D01*
X109293289Y-88975465D01*
X109288482Y-88976619D01*
X109288476Y-88976620D01*
X109142609Y-89011640D01*
X109062406Y-89030895D01*
X109057835Y-89032788D01*
X109057833Y-89032789D01*
X108847611Y-89119865D01*
X108847607Y-89119867D01*
X108843037Y-89121760D01*
X108838817Y-89124346D01*
X108644798Y-89243241D01*
X108644792Y-89243245D01*
X108640584Y-89245824D01*
X108460031Y-89400031D01*
X108305824Y-89580584D01*
X108303245Y-89584792D01*
X108303241Y-89584798D01*
X108184346Y-89778817D01*
X108181760Y-89783037D01*
X108090895Y-90002406D01*
X108089740Y-90007218D01*
X108040358Y-90212910D01*
X108035465Y-90233289D01*
X108016835Y-90470000D01*
X108035465Y-90706711D01*
X108036619Y-90711518D01*
X108036620Y-90711524D01*
X108057613Y-90798965D01*
X108090895Y-90937594D01*
X108092788Y-90942165D01*
X108092789Y-90942167D01*
X108171064Y-91131140D01*
X108181760Y-91156963D01*
X108184346Y-91161183D01*
X108303241Y-91355202D01*
X108303245Y-91355208D01*
X108305824Y-91359416D01*
X108460031Y-91539969D01*
X108463787Y-91543177D01*
X108636822Y-91690963D01*
X108640584Y-91694176D01*
X108711336Y-91737533D01*
X108758967Y-91790181D01*
X108771500Y-91844965D01*
X108771500Y-94810035D01*
X108751498Y-94878156D01*
X108711337Y-94917466D01*
X108640584Y-94960824D01*
X108460031Y-95115031D01*
X108305824Y-95295584D01*
X108303245Y-95299792D01*
X108303241Y-95299798D01*
X108184346Y-95493817D01*
X108181760Y-95498037D01*
X108179867Y-95502607D01*
X108179865Y-95502611D01*
X108092789Y-95712833D01*
X108090895Y-95717406D01*
X108076288Y-95778247D01*
X108041360Y-95923735D01*
X108035465Y-95948289D01*
X108016835Y-96185000D01*
X72661517Y-96185000D01*
X72588929Y-96122454D01*
X72582874Y-96118634D01*
X72569545Y-96108949D01*
X72567625Y-96107352D01*
X72567617Y-96107346D01*
X72564030Y-96104363D01*
X72532589Y-96085284D01*
X72466321Y-96045071D01*
X72464452Y-96043914D01*
X72417891Y-96014537D01*
X72367881Y-95982983D01*
X72361327Y-95980099D01*
X72346710Y-95972490D01*
X72340581Y-95968771D01*
X72235252Y-95924603D01*
X72233231Y-95923735D01*
X72215100Y-95915757D01*
X72128645Y-95877716D01*
X72124138Y-95876487D01*
X72124129Y-95876484D01*
X72121729Y-95875830D01*
X72106152Y-95870467D01*
X72099545Y-95867697D01*
X72095017Y-95866547D01*
X72095014Y-95866546D01*
X71988827Y-95839578D01*
X71986701Y-95839018D01*
X71876479Y-95808968D01*
X71871839Y-95808419D01*
X71871834Y-95808418D01*
X71869373Y-95808127D01*
X71853157Y-95805122D01*
X71846217Y-95803359D01*
X71796656Y-95798368D01*
X71732572Y-95791915D01*
X71730387Y-95791676D01*
X71631680Y-95779994D01*
X71616920Y-95778247D01*
X71512394Y-95781441D01*
X71508546Y-95781500D01*
X66884500Y-95781500D01*
X66816379Y-95761498D01*
X66769886Y-95707842D01*
X66758500Y-95655500D01*
X66758500Y-94933646D01*
X66754558Y-94880598D01*
X66744407Y-94744000D01*
X66744406Y-94743996D01*
X66744061Y-94739348D01*
X66732725Y-94689248D01*
X66687408Y-94488980D01*
X66686377Y-94484423D01*
X66591647Y-94240823D01*
X66461951Y-94013902D01*
X66300138Y-93808643D01*
X66109763Y-93629557D01*
X66105916Y-93626888D01*
X66021992Y-93568667D01*
X65977422Y-93513403D01*
X65969805Y-93442816D01*
X66004872Y-93375890D01*
X66034051Y-93346812D01*
X66040730Y-93338965D01*
X66165003Y-93166020D01*
X66170313Y-93157183D01*
X66264670Y-92966267D01*
X66268469Y-92956672D01*
X66330377Y-92752910D01*
X66332555Y-92742837D01*
X66333986Y-92731962D01*
X66331775Y-92717778D01*
X66318617Y-92714000D01*
X63683225Y-92714000D01*
X63669694Y-92717973D01*
X63668257Y-92727966D01*
X63698565Y-92862446D01*
X63701645Y-92872275D01*
X63781770Y-93069603D01*
X63786413Y-93078794D01*
X63897694Y-93260388D01*
X63903771Y-93268691D01*
X64001259Y-93381234D01*
X64030741Y-93445819D01*
X64020626Y-93516092D01*
X63975105Y-93569103D01*
X63930410Y-93598406D01*
X63930405Y-93598410D01*
X63926491Y-93600976D01*
X63731494Y-93775018D01*
X63564363Y-93975970D01*
X63428771Y-94199419D01*
X63327697Y-94440455D01*
X63263359Y-94693783D01*
X63241500Y-94910867D01*
X63241500Y-97521405D01*
X63241489Y-97523054D01*
X63239858Y-97647655D01*
X60508500Y-97647655D01*
X60508500Y-92194183D01*
X63664389Y-92194183D01*
X63665912Y-92202607D01*
X63678292Y-92206000D01*
X64727885Y-92206000D01*
X64743124Y-92201525D01*
X64744329Y-92200135D01*
X64746000Y-92192452D01*
X64746000Y-92187885D01*
X65254000Y-92187885D01*
X65258475Y-92203124D01*
X65259865Y-92204329D01*
X65267548Y-92206000D01*
X66318344Y-92206000D01*
X66331875Y-92202027D01*
X66333180Y-92192947D01*
X66291214Y-92025875D01*
X66287894Y-92016124D01*
X66202972Y-91820814D01*
X66198105Y-91811739D01*
X66082426Y-91632926D01*
X66076136Y-91624757D01*
X65932806Y-91467240D01*
X65925273Y-91460215D01*
X65758139Y-91328222D01*
X65749552Y-91322517D01*
X65712116Y-91301851D01*
X65662146Y-91251419D01*
X65647374Y-91181976D01*
X65672490Y-91115571D01*
X65699842Y-91088964D01*
X65875327Y-90963792D01*
X65883200Y-90957139D01*
X66034052Y-90806812D01*
X66040730Y-90798965D01*
X66165003Y-90626020D01*
X66170313Y-90617183D01*
X66264670Y-90426267D01*
X66268469Y-90416672D01*
X66330377Y-90212910D01*
X66332555Y-90202837D01*
X66333986Y-90191962D01*
X66331775Y-90177778D01*
X66318617Y-90174000D01*
X65272115Y-90174000D01*
X65256876Y-90178475D01*
X65255671Y-90179865D01*
X65254000Y-90187548D01*
X65254000Y-92187885D01*
X64746000Y-92187885D01*
X64746000Y-90192115D01*
X64741525Y-90176876D01*
X64740135Y-90175671D01*
X64732452Y-90174000D01*
X63683225Y-90174000D01*
X63669694Y-90177973D01*
X63668257Y-90187966D01*
X63698565Y-90322446D01*
X63701645Y-90332275D01*
X63781770Y-90529603D01*
X63786413Y-90538794D01*
X63897694Y-90720388D01*
X63903777Y-90728699D01*
X64043213Y-90889667D01*
X64050580Y-90896883D01*
X64214434Y-91032916D01*
X64222881Y-91038831D01*
X64292479Y-91079501D01*
X64341203Y-91131140D01*
X64354274Y-91200923D01*
X64327543Y-91266694D01*
X64287087Y-91300053D01*
X64278462Y-91304542D01*
X64269738Y-91310036D01*
X64099433Y-91437905D01*
X64091726Y-91444748D01*
X63944590Y-91598717D01*
X63938104Y-91606727D01*
X63818098Y-91782649D01*
X63813000Y-91791623D01*
X63723338Y-91984783D01*
X63719775Y-91994470D01*
X63664389Y-92194183D01*
X60508500Y-92194183D01*
X60508500Y-89654183D01*
X63664389Y-89654183D01*
X63665912Y-89662607D01*
X63678292Y-89666000D01*
X64727885Y-89666000D01*
X64743124Y-89661525D01*
X64744329Y-89660135D01*
X64746000Y-89652452D01*
X64746000Y-89647885D01*
X65254000Y-89647885D01*
X65258475Y-89663124D01*
X65259865Y-89664329D01*
X65267548Y-89666000D01*
X66318344Y-89666000D01*
X66331875Y-89662027D01*
X66333180Y-89652947D01*
X66291214Y-89485875D01*
X66287894Y-89476124D01*
X66202972Y-89280814D01*
X66198105Y-89271739D01*
X66082426Y-89092926D01*
X66076136Y-89084757D01*
X65932806Y-88927240D01*
X65925273Y-88920215D01*
X65758139Y-88788222D01*
X65749552Y-88782517D01*
X65563117Y-88679599D01*
X65553705Y-88675369D01*
X65352959Y-88604280D01*
X65342988Y-88601646D01*
X65271837Y-88588972D01*
X65258540Y-88590432D01*
X65254000Y-88604989D01*
X65254000Y-89647885D01*
X64746000Y-89647885D01*
X64746000Y-88603102D01*
X64742082Y-88589758D01*
X64727806Y-88587771D01*
X64689324Y-88593660D01*
X64679288Y-88596051D01*
X64476868Y-88662212D01*
X64467359Y-88666209D01*
X64278463Y-88764542D01*
X64269738Y-88770036D01*
X64099433Y-88897905D01*
X64091726Y-88904748D01*
X63944590Y-89058717D01*
X63938104Y-89066727D01*
X63818098Y-89242649D01*
X63813000Y-89251623D01*
X63723338Y-89444783D01*
X63719775Y-89454470D01*
X63664389Y-89654183D01*
X60508500Y-89654183D01*
X60508500Y-77770000D01*
X111191835Y-77770000D01*
X111210465Y-78006711D01*
X111265895Y-78237594D01*
X111356760Y-78456963D01*
X111359346Y-78461183D01*
X111478241Y-78655202D01*
X111478245Y-78655208D01*
X111480824Y-78659416D01*
X111635031Y-78839969D01*
X111815584Y-78994176D01*
X111819792Y-78996755D01*
X111819798Y-78996759D01*
X112013817Y-79115654D01*
X112018037Y-79118240D01*
X112022607Y-79120133D01*
X112022611Y-79120135D01*
X112232833Y-79207211D01*
X112237406Y-79209105D01*
X112317609Y-79228360D01*
X112463476Y-79263380D01*
X112463482Y-79263381D01*
X112468289Y-79264535D01*
X112705000Y-79283165D01*
X112941711Y-79264535D01*
X112946518Y-79263381D01*
X112946524Y-79263380D01*
X113092391Y-79228360D01*
X113172594Y-79209105D01*
X113177167Y-79207211D01*
X113387389Y-79120135D01*
X113387393Y-79120133D01*
X113391963Y-79118240D01*
X113396183Y-79115654D01*
X113590202Y-78996759D01*
X113590208Y-78996755D01*
X113594416Y-78994176D01*
X113774969Y-78839969D01*
X113929176Y-78659416D01*
X113972533Y-78588664D01*
X114025181Y-78541033D01*
X114079965Y-78528500D01*
X144350035Y-78528500D01*
X144418156Y-78548502D01*
X144457466Y-78588663D01*
X144500824Y-78659416D01*
X144655031Y-78839969D01*
X144835584Y-78994176D01*
X144839792Y-78996755D01*
X144839798Y-78996759D01*
X145033817Y-79115654D01*
X145038037Y-79118240D01*
X145042607Y-79120133D01*
X145042611Y-79120135D01*
X145252833Y-79207211D01*
X145257406Y-79209105D01*
X145337609Y-79228360D01*
X145483476Y-79263380D01*
X145483482Y-79263381D01*
X145488289Y-79264535D01*
X145725000Y-79283165D01*
X145961711Y-79264535D01*
X145966518Y-79263381D01*
X145966524Y-79263380D01*
X146112391Y-79228360D01*
X146192594Y-79209105D01*
X146197167Y-79207211D01*
X146407389Y-79120135D01*
X146407393Y-79120133D01*
X146411963Y-79118240D01*
X146416183Y-79115654D01*
X146610202Y-78996759D01*
X146610208Y-78996755D01*
X146614416Y-78994176D01*
X146794969Y-78839969D01*
X146949176Y-78659416D01*
X146951755Y-78655208D01*
X146951759Y-78655202D01*
X147070654Y-78461183D01*
X147073240Y-78456963D01*
X147164105Y-78237594D01*
X147219535Y-78006711D01*
X147238165Y-77770000D01*
X147219535Y-77533289D01*
X147164105Y-77302406D01*
X147073240Y-77083037D01*
X147017145Y-76991498D01*
X146951759Y-76884798D01*
X146951755Y-76884792D01*
X146949176Y-76880584D01*
X146794969Y-76700031D01*
X146614416Y-76545824D01*
X146610208Y-76543245D01*
X146610202Y-76543241D01*
X146416183Y-76424346D01*
X146411963Y-76421760D01*
X146407393Y-76419867D01*
X146407389Y-76419865D01*
X146197167Y-76332789D01*
X146197165Y-76332788D01*
X146192594Y-76330895D01*
X146112391Y-76311640D01*
X145966524Y-76276620D01*
X145966518Y-76276619D01*
X145961711Y-76275465D01*
X145725000Y-76256835D01*
X145488289Y-76275465D01*
X145483482Y-76276619D01*
X145483476Y-76276620D01*
X145337609Y-76311640D01*
X145257406Y-76330895D01*
X145132824Y-76382498D01*
X145062235Y-76390087D01*
X144998748Y-76358308D01*
X144962521Y-76297250D01*
X144965055Y-76226298D01*
X144988796Y-76184259D01*
X145040960Y-76123182D01*
X145040963Y-76123178D01*
X145044176Y-76119416D01*
X145046755Y-76115208D01*
X145046759Y-76115202D01*
X145165654Y-75921183D01*
X145168240Y-75916963D01*
X145259105Y-75697594D01*
X145314535Y-75466711D01*
X145333165Y-75230000D01*
X145314535Y-74993289D01*
X145259105Y-74762406D01*
X145168240Y-74543037D01*
X145112145Y-74451498D01*
X145046759Y-74344798D01*
X145046755Y-74344792D01*
X145044176Y-74340584D01*
X144889969Y-74160031D01*
X144709416Y-74005824D01*
X144705208Y-74003245D01*
X144705202Y-74003241D01*
X144511183Y-73884346D01*
X144506963Y-73881760D01*
X144502393Y-73879867D01*
X144502389Y-73879865D01*
X144292167Y-73792789D01*
X144292165Y-73792788D01*
X144287594Y-73790895D01*
X144207391Y-73771640D01*
X144061524Y-73736620D01*
X144061518Y-73736619D01*
X144056711Y-73735465D01*
X143820000Y-73716835D01*
X143583289Y-73735465D01*
X143578482Y-73736619D01*
X143578476Y-73736620D01*
X143432609Y-73771640D01*
X143352406Y-73790895D01*
X143347835Y-73792788D01*
X143347833Y-73792789D01*
X143137611Y-73879865D01*
X143137607Y-73879867D01*
X143133037Y-73881760D01*
X143128817Y-73884346D01*
X142934798Y-74003241D01*
X142934792Y-74003245D01*
X142930584Y-74005824D01*
X142750031Y-74160031D01*
X142595824Y-74340584D01*
X142552467Y-74411336D01*
X142499819Y-74458967D01*
X142445035Y-74471500D01*
X121064965Y-74471500D01*
X120996844Y-74451498D01*
X120957533Y-74411336D01*
X120914176Y-74340584D01*
X120759969Y-74160031D01*
X120579416Y-74005824D01*
X120575208Y-74003245D01*
X120575202Y-74003241D01*
X120381183Y-73884346D01*
X120376963Y-73881760D01*
X120372393Y-73879867D01*
X120372389Y-73879865D01*
X120162167Y-73792789D01*
X120162165Y-73792788D01*
X120157594Y-73790895D01*
X120077391Y-73771640D01*
X119931524Y-73736620D01*
X119931518Y-73736619D01*
X119926711Y-73735465D01*
X119690000Y-73716835D01*
X119453289Y-73735465D01*
X119448482Y-73736619D01*
X119448476Y-73736620D01*
X119302609Y-73771640D01*
X119222406Y-73790895D01*
X119217835Y-73792788D01*
X119217833Y-73792789D01*
X119007611Y-73879865D01*
X119007607Y-73879867D01*
X119003037Y-73881760D01*
X118998817Y-73884346D01*
X118804798Y-74003241D01*
X118804792Y-74003245D01*
X118800584Y-74005824D01*
X118620031Y-74160031D01*
X118465824Y-74340584D01*
X118463245Y-74344792D01*
X118463241Y-74344798D01*
X118397855Y-74451498D01*
X118341760Y-74543037D01*
X118250895Y-74762406D01*
X118195465Y-74993289D01*
X118176835Y-75230000D01*
X118195465Y-75466711D01*
X118250895Y-75697594D01*
X118341760Y-75916963D01*
X118344346Y-75921183D01*
X118463241Y-76115202D01*
X118463245Y-76115208D01*
X118465824Y-76119416D01*
X118620031Y-76299969D01*
X118800584Y-76454176D01*
X118804792Y-76456755D01*
X118804798Y-76456759D01*
X118945924Y-76543241D01*
X119003037Y-76578240D01*
X119007607Y-76580133D01*
X119007611Y-76580135D01*
X119217833Y-76667211D01*
X119222406Y-76669105D01*
X119302609Y-76688360D01*
X119448476Y-76723380D01*
X119448482Y-76723381D01*
X119453289Y-76724535D01*
X119690000Y-76743165D01*
X119926711Y-76724535D01*
X119931518Y-76723381D01*
X119931524Y-76723380D01*
X120077391Y-76688360D01*
X120157594Y-76669105D01*
X120162167Y-76667211D01*
X120372389Y-76580135D01*
X120372393Y-76580133D01*
X120376963Y-76578240D01*
X120434076Y-76543241D01*
X120575202Y-76456759D01*
X120575208Y-76456755D01*
X120579416Y-76454176D01*
X120759969Y-76299969D01*
X120914176Y-76119416D01*
X120957533Y-76048664D01*
X121010181Y-76001033D01*
X121064965Y-75988500D01*
X142445035Y-75988500D01*
X142513156Y-76008502D01*
X142552466Y-76048663D01*
X142595824Y-76119416D01*
X142750031Y-76299969D01*
X142930584Y-76454176D01*
X142934792Y-76456755D01*
X142934798Y-76456759D01*
X143075924Y-76543241D01*
X143133037Y-76578240D01*
X143137607Y-76580133D01*
X143137611Y-76580135D01*
X143347833Y-76667211D01*
X143352406Y-76669105D01*
X143432609Y-76688360D01*
X143578476Y-76723380D01*
X143578482Y-76723381D01*
X143583289Y-76724535D01*
X143820000Y-76743165D01*
X144056711Y-76724535D01*
X144061518Y-76723381D01*
X144061524Y-76723380D01*
X144207391Y-76688360D01*
X144287594Y-76669105D01*
X144412176Y-76617502D01*
X144482765Y-76609913D01*
X144546252Y-76641692D01*
X144582479Y-76702750D01*
X144579945Y-76773702D01*
X144556204Y-76815741D01*
X144504042Y-76876815D01*
X144504037Y-76876822D01*
X144500824Y-76880584D01*
X144457467Y-76951336D01*
X144404819Y-76998967D01*
X144350035Y-77011500D01*
X114079965Y-77011500D01*
X114011844Y-76991498D01*
X113972533Y-76951336D01*
X113929176Y-76880584D01*
X113774969Y-76700031D01*
X113594416Y-76545824D01*
X113590208Y-76543245D01*
X113590202Y-76543241D01*
X113396183Y-76424346D01*
X113391963Y-76421760D01*
X113387393Y-76419867D01*
X113387389Y-76419865D01*
X113177167Y-76332789D01*
X113177165Y-76332788D01*
X113172594Y-76330895D01*
X113092391Y-76311640D01*
X112946524Y-76276620D01*
X112946518Y-76276619D01*
X112941711Y-76275465D01*
X112705000Y-76256835D01*
X112468289Y-76275465D01*
X112463482Y-76276619D01*
X112463476Y-76276620D01*
X112317609Y-76311640D01*
X112237406Y-76330895D01*
X112232835Y-76332788D01*
X112232833Y-76332789D01*
X112022611Y-76419865D01*
X112022607Y-76419867D01*
X112018037Y-76421760D01*
X112013817Y-76424346D01*
X111819798Y-76543241D01*
X111819792Y-76543245D01*
X111815584Y-76545824D01*
X111635031Y-76700031D01*
X111480824Y-76880584D01*
X111478245Y-76884792D01*
X111478241Y-76884798D01*
X111412855Y-76991498D01*
X111356760Y-77083037D01*
X111265895Y-77302406D01*
X111210465Y-77533289D01*
X111191835Y-77770000D01*
X60508500Y-77770000D01*
X60508500Y-71160000D01*
X111836502Y-71160000D01*
X111856457Y-71388087D01*
X111915716Y-71609243D01*
X111918039Y-71614224D01*
X111918039Y-71614225D01*
X112010151Y-71811762D01*
X112010154Y-71811767D01*
X112012477Y-71816749D01*
X112143802Y-72004300D01*
X112305700Y-72166198D01*
X112310208Y-72169355D01*
X112310211Y-72169357D01*
X112388389Y-72224098D01*
X112493251Y-72297523D01*
X112498233Y-72299846D01*
X112498238Y-72299849D01*
X112695775Y-72391961D01*
X112700757Y-72394284D01*
X112706065Y-72395706D01*
X112706067Y-72395707D01*
X112916598Y-72452119D01*
X112916600Y-72452119D01*
X112921913Y-72453543D01*
X113021480Y-72462254D01*
X113090149Y-72468262D01*
X113090156Y-72468262D01*
X113092873Y-72468500D01*
X113907127Y-72468500D01*
X113909844Y-72468262D01*
X113909851Y-72468262D01*
X113978520Y-72462254D01*
X114078087Y-72453543D01*
X114083400Y-72452119D01*
X114083402Y-72452119D01*
X114293933Y-72395707D01*
X114293935Y-72395706D01*
X114299243Y-72394284D01*
X114304225Y-72391961D01*
X114501762Y-72299849D01*
X114501767Y-72299846D01*
X114506749Y-72297523D01*
X114611611Y-72224098D01*
X114689789Y-72169357D01*
X114689792Y-72169355D01*
X114694300Y-72166198D01*
X114856198Y-72004300D01*
X114987523Y-71816749D01*
X114989846Y-71811767D01*
X114989849Y-71811762D01*
X115081961Y-71614225D01*
X115081961Y-71614224D01*
X115084284Y-71609243D01*
X115143543Y-71388087D01*
X115163498Y-71160000D01*
X115143543Y-70931913D01*
X115084284Y-70710757D01*
X115081961Y-70705775D01*
X114989849Y-70508238D01*
X114989846Y-70508233D01*
X114987523Y-70503251D01*
X114856198Y-70315700D01*
X114694300Y-70153802D01*
X114689792Y-70150645D01*
X114689789Y-70150643D01*
X114611611Y-70095902D01*
X114506749Y-70022477D01*
X114501767Y-70020154D01*
X114501762Y-70020151D01*
X114467543Y-70004195D01*
X114414258Y-69957278D01*
X114394797Y-69889001D01*
X114415339Y-69821041D01*
X114467543Y-69775805D01*
X114501762Y-69759849D01*
X114501767Y-69759846D01*
X114506749Y-69757523D01*
X114611611Y-69684098D01*
X114689789Y-69629357D01*
X114689792Y-69629355D01*
X114694300Y-69626198D01*
X114856198Y-69464300D01*
X114922578Y-69369499D01*
X114978035Y-69325170D01*
X115010647Y-69316683D01*
X115040242Y-69313102D01*
X115047343Y-69310419D01*
X115049952Y-69309778D01*
X115066262Y-69305315D01*
X115068798Y-69304550D01*
X115076284Y-69303243D01*
X115134800Y-69277556D01*
X115140904Y-69275065D01*
X115149646Y-69271762D01*
X115200656Y-69252487D01*
X115206919Y-69248183D01*
X115209285Y-69246946D01*
X115224097Y-69238701D01*
X115226351Y-69237368D01*
X115233305Y-69234315D01*
X115284002Y-69195413D01*
X115289332Y-69191541D01*
X115335720Y-69159661D01*
X115335725Y-69159656D01*
X115341981Y-69155357D01*
X115383436Y-69108829D01*
X115388416Y-69103554D01*
X119862746Y-64629224D01*
X119925058Y-64595198D01*
X119995873Y-64600263D01*
X120024105Y-64615102D01*
X120113251Y-64677523D01*
X120118233Y-64679846D01*
X120118238Y-64679849D01*
X120152457Y-64695805D01*
X120205742Y-64742722D01*
X120225203Y-64810999D01*
X120204661Y-64878959D01*
X120152457Y-64924195D01*
X120118238Y-64940151D01*
X120118233Y-64940154D01*
X120113251Y-64942477D01*
X120008389Y-65015902D01*
X119930211Y-65070643D01*
X119930208Y-65070645D01*
X119925700Y-65073802D01*
X119763802Y-65235700D01*
X119760645Y-65240208D01*
X119760643Y-65240211D01*
X119705902Y-65318389D01*
X119632477Y-65423251D01*
X119630154Y-65428233D01*
X119630151Y-65428238D01*
X119538039Y-65625775D01*
X119535716Y-65630757D01*
X119476457Y-65851913D01*
X119456502Y-66080000D01*
X119476457Y-66308087D01*
X119477881Y-66313400D01*
X119477881Y-66313402D01*
X119526187Y-66493679D01*
X119535716Y-66529243D01*
X119538039Y-66534224D01*
X119538039Y-66534225D01*
X119630151Y-66731762D01*
X119630154Y-66731767D01*
X119632477Y-66736749D01*
X119763802Y-66924300D01*
X119925700Y-67086198D01*
X119930208Y-67089355D01*
X119930211Y-67089357D01*
X119966553Y-67114804D01*
X120113251Y-67217523D01*
X120118233Y-67219846D01*
X120118238Y-67219849D01*
X120152457Y-67235805D01*
X120205742Y-67282722D01*
X120225203Y-67350999D01*
X120204661Y-67418959D01*
X120152457Y-67464195D01*
X120118238Y-67480151D01*
X120118233Y-67480154D01*
X120113251Y-67482477D01*
X120029183Y-67541342D01*
X119930211Y-67610643D01*
X119930208Y-67610645D01*
X119925700Y-67613802D01*
X119763802Y-67775700D01*
X119632477Y-67963251D01*
X119630154Y-67968233D01*
X119630151Y-67968238D01*
X119596590Y-68040211D01*
X119535716Y-68170757D01*
X119476457Y-68391913D01*
X119456502Y-68620000D01*
X119476457Y-68848087D01*
X119535716Y-69069243D01*
X119538039Y-69074224D01*
X119538039Y-69074225D01*
X119630151Y-69271762D01*
X119630154Y-69271767D01*
X119632477Y-69276749D01*
X119666382Y-69325170D01*
X119760643Y-69459788D01*
X119763802Y-69464300D01*
X119925700Y-69626198D01*
X119930208Y-69629355D01*
X119930211Y-69629357D01*
X120008389Y-69684098D01*
X120113251Y-69757523D01*
X120118233Y-69759846D01*
X120118238Y-69759849D01*
X120152457Y-69775805D01*
X120205742Y-69822722D01*
X120225203Y-69890999D01*
X120204661Y-69958959D01*
X120152457Y-70004195D01*
X120118238Y-70020151D01*
X120118233Y-70020154D01*
X120113251Y-70022477D01*
X120008389Y-70095902D01*
X119930211Y-70150643D01*
X119930208Y-70150645D01*
X119925700Y-70153802D01*
X119763802Y-70315700D01*
X119632477Y-70503251D01*
X119630154Y-70508233D01*
X119630151Y-70508238D01*
X119538039Y-70705775D01*
X119535716Y-70710757D01*
X119476457Y-70931913D01*
X119456502Y-71160000D01*
X119476457Y-71388087D01*
X119535716Y-71609243D01*
X119538039Y-71614224D01*
X119538039Y-71614225D01*
X119630151Y-71811762D01*
X119630154Y-71811767D01*
X119632477Y-71816749D01*
X119763802Y-72004300D01*
X119925700Y-72166198D01*
X119930208Y-72169355D01*
X119930211Y-72169357D01*
X120008389Y-72224098D01*
X120113251Y-72297523D01*
X120118233Y-72299846D01*
X120118238Y-72299849D01*
X120315775Y-72391961D01*
X120320757Y-72394284D01*
X120326065Y-72395706D01*
X120326067Y-72395707D01*
X120536598Y-72452119D01*
X120536600Y-72452119D01*
X120541913Y-72453543D01*
X120641480Y-72462254D01*
X120710149Y-72468262D01*
X120710156Y-72468262D01*
X120712873Y-72468500D01*
X121527127Y-72468500D01*
X121529844Y-72468262D01*
X121529851Y-72468262D01*
X121598520Y-72462254D01*
X121698087Y-72453543D01*
X121703400Y-72452119D01*
X121703402Y-72452119D01*
X121913933Y-72395707D01*
X121913935Y-72395706D01*
X121919243Y-72394284D01*
X121924225Y-72391961D01*
X122121762Y-72299849D01*
X122121767Y-72299846D01*
X122126749Y-72297523D01*
X122231611Y-72224098D01*
X122309789Y-72169357D01*
X122309792Y-72169355D01*
X122314300Y-72166198D01*
X122476198Y-72004300D01*
X122607523Y-71816749D01*
X122609846Y-71811767D01*
X122609849Y-71811762D01*
X122701961Y-71614225D01*
X122701961Y-71614224D01*
X122704284Y-71609243D01*
X122763543Y-71388087D01*
X122783498Y-71160000D01*
X122763543Y-70931913D01*
X122704284Y-70710757D01*
X122701961Y-70705775D01*
X122609849Y-70508238D01*
X122609846Y-70508233D01*
X122607523Y-70503251D01*
X122476198Y-70315700D01*
X122314300Y-70153802D01*
X122309792Y-70150645D01*
X122309789Y-70150643D01*
X122231611Y-70095902D01*
X122126749Y-70022477D01*
X122121767Y-70020154D01*
X122121762Y-70020151D01*
X122087543Y-70004195D01*
X122034258Y-69957278D01*
X122014797Y-69889001D01*
X122035339Y-69821041D01*
X122087543Y-69775805D01*
X122121762Y-69759849D01*
X122121767Y-69759846D01*
X122126749Y-69757523D01*
X122231611Y-69684098D01*
X122309789Y-69629357D01*
X122309792Y-69629355D01*
X122314300Y-69626198D01*
X122476198Y-69464300D01*
X122479358Y-69459788D01*
X122573618Y-69325170D01*
X122607523Y-69276749D01*
X122609846Y-69271767D01*
X122609849Y-69271762D01*
X122701961Y-69074225D01*
X122701961Y-69074224D01*
X122704284Y-69069243D01*
X122763543Y-68848087D01*
X122783498Y-68620000D01*
X122763543Y-68391913D01*
X122704284Y-68170757D01*
X122699254Y-68159970D01*
X122688589Y-68089779D01*
X122717566Y-68024965D01*
X122724351Y-68017620D01*
X123150538Y-67591433D01*
X123156803Y-67585579D01*
X123194674Y-67552542D01*
X123194675Y-67552541D01*
X123200395Y-67547551D01*
X123237146Y-67495261D01*
X123241038Y-67490019D01*
X123280486Y-67439708D01*
X123283610Y-67432789D01*
X123284998Y-67430497D01*
X123293367Y-67415825D01*
X123294632Y-67413465D01*
X123299000Y-67407251D01*
X123322213Y-67347713D01*
X123324769Y-67341632D01*
X123337118Y-67314284D01*
X123351055Y-67283417D01*
X123352440Y-67275944D01*
X123353244Y-67273378D01*
X123357865Y-67257155D01*
X123358530Y-67254563D01*
X123361292Y-67247481D01*
X123369632Y-67184129D01*
X123370664Y-67177613D01*
X123380921Y-67122271D01*
X123382305Y-67114804D01*
X123378719Y-67052610D01*
X123378510Y-67045357D01*
X123378510Y-66588903D01*
X123398512Y-66520782D01*
X123452168Y-66474289D01*
X123522442Y-66464185D01*
X123587022Y-66493679D01*
X123618705Y-66535653D01*
X123710151Y-66731762D01*
X123710154Y-66731767D01*
X123712477Y-66736749D01*
X123843802Y-66924300D01*
X124005700Y-67086198D01*
X124010208Y-67089355D01*
X124010211Y-67089357D01*
X124046553Y-67114804D01*
X124193251Y-67217523D01*
X124198233Y-67219846D01*
X124198238Y-67219849D01*
X124232457Y-67235805D01*
X124285742Y-67282722D01*
X124305203Y-67350999D01*
X124284661Y-67418959D01*
X124232457Y-67464195D01*
X124198238Y-67480151D01*
X124198233Y-67480154D01*
X124193251Y-67482477D01*
X124109183Y-67541342D01*
X124010211Y-67610643D01*
X124010208Y-67610645D01*
X124005700Y-67613802D01*
X123843802Y-67775700D01*
X123712477Y-67963251D01*
X123710154Y-67968233D01*
X123710151Y-67968238D01*
X123676590Y-68040211D01*
X123615716Y-68170757D01*
X123556457Y-68391913D01*
X123536502Y-68620000D01*
X123556457Y-68848087D01*
X123615716Y-69069243D01*
X123618039Y-69074224D01*
X123618039Y-69074225D01*
X123710151Y-69271762D01*
X123710154Y-69271767D01*
X123712477Y-69276749D01*
X123746382Y-69325170D01*
X123840643Y-69459788D01*
X123843802Y-69464300D01*
X124005700Y-69626198D01*
X124010208Y-69629355D01*
X124010211Y-69629357D01*
X124088389Y-69684098D01*
X124193251Y-69757523D01*
X124198233Y-69759846D01*
X124198238Y-69759849D01*
X124232457Y-69775805D01*
X124285742Y-69822722D01*
X124305203Y-69890999D01*
X124284661Y-69958959D01*
X124232457Y-70004195D01*
X124198238Y-70020151D01*
X124198233Y-70020154D01*
X124193251Y-70022477D01*
X124088389Y-70095902D01*
X124010211Y-70150643D01*
X124010208Y-70150645D01*
X124005700Y-70153802D01*
X123843802Y-70315700D01*
X123712477Y-70503251D01*
X123710154Y-70508233D01*
X123710151Y-70508238D01*
X123618039Y-70705775D01*
X123615716Y-70710757D01*
X123556457Y-70931913D01*
X123536502Y-71160000D01*
X123556457Y-71388087D01*
X123615716Y-71609243D01*
X123618039Y-71614224D01*
X123618039Y-71614225D01*
X123710151Y-71811762D01*
X123710154Y-71811767D01*
X123712477Y-71816749D01*
X123843802Y-72004300D01*
X124005700Y-72166198D01*
X124010208Y-72169355D01*
X124010211Y-72169357D01*
X124088389Y-72224098D01*
X124193251Y-72297523D01*
X124198233Y-72299846D01*
X124198238Y-72299849D01*
X124395775Y-72391961D01*
X124400757Y-72394284D01*
X124406065Y-72395706D01*
X124406067Y-72395707D01*
X124616598Y-72452119D01*
X124616600Y-72452119D01*
X124621913Y-72453543D01*
X124721480Y-72462254D01*
X124790149Y-72468262D01*
X124790156Y-72468262D01*
X124792873Y-72468500D01*
X125607127Y-72468500D01*
X125609844Y-72468262D01*
X125609851Y-72468262D01*
X125678520Y-72462254D01*
X125778087Y-72453543D01*
X125783400Y-72452119D01*
X125783402Y-72452119D01*
X125993933Y-72395707D01*
X125993935Y-72395706D01*
X125999243Y-72394284D01*
X126004225Y-72391961D01*
X126201762Y-72299849D01*
X126201767Y-72299846D01*
X126206749Y-72297523D01*
X126311611Y-72224098D01*
X126389789Y-72169357D01*
X126389792Y-72169355D01*
X126394300Y-72166198D01*
X126556198Y-72004300D01*
X126687523Y-71816749D01*
X126689846Y-71811767D01*
X126689849Y-71811762D01*
X126781961Y-71614225D01*
X126781961Y-71614224D01*
X126784284Y-71609243D01*
X126843543Y-71388087D01*
X126863498Y-71160000D01*
X131156502Y-71160000D01*
X131176457Y-71388087D01*
X131235716Y-71609243D01*
X131238039Y-71614224D01*
X131238039Y-71614225D01*
X131330151Y-71811762D01*
X131330154Y-71811767D01*
X131332477Y-71816749D01*
X131463802Y-72004300D01*
X131625700Y-72166198D01*
X131630208Y-72169355D01*
X131630211Y-72169357D01*
X131708389Y-72224098D01*
X131813251Y-72297523D01*
X131818233Y-72299846D01*
X131818238Y-72299849D01*
X132015775Y-72391961D01*
X132020757Y-72394284D01*
X132026065Y-72395706D01*
X132026067Y-72395707D01*
X132236598Y-72452119D01*
X132236600Y-72452119D01*
X132241913Y-72453543D01*
X132341480Y-72462254D01*
X132410149Y-72468262D01*
X132410156Y-72468262D01*
X132412873Y-72468500D01*
X133227127Y-72468500D01*
X133229844Y-72468262D01*
X133229851Y-72468262D01*
X133298520Y-72462254D01*
X133398087Y-72453543D01*
X133403400Y-72452119D01*
X133403402Y-72452119D01*
X133613933Y-72395707D01*
X133613935Y-72395706D01*
X133619243Y-72394284D01*
X133624225Y-72391961D01*
X133821762Y-72299849D01*
X133821767Y-72299846D01*
X133826749Y-72297523D01*
X133931611Y-72224098D01*
X134009789Y-72169357D01*
X134009792Y-72169355D01*
X134014300Y-72166198D01*
X134176198Y-72004300D01*
X134307523Y-71816749D01*
X134309846Y-71811767D01*
X134309849Y-71811762D01*
X134401961Y-71614225D01*
X134401961Y-71614224D01*
X134404284Y-71609243D01*
X134463543Y-71388087D01*
X134483498Y-71160000D01*
X135236502Y-71160000D01*
X135256457Y-71388087D01*
X135315716Y-71609243D01*
X135318039Y-71614224D01*
X135318039Y-71614225D01*
X135410151Y-71811762D01*
X135410154Y-71811767D01*
X135412477Y-71816749D01*
X135543802Y-72004300D01*
X135705700Y-72166198D01*
X135710208Y-72169355D01*
X135710211Y-72169357D01*
X135788389Y-72224098D01*
X135893251Y-72297523D01*
X135898233Y-72299846D01*
X135898238Y-72299849D01*
X136095775Y-72391961D01*
X136100757Y-72394284D01*
X136106065Y-72395706D01*
X136106067Y-72395707D01*
X136316598Y-72452119D01*
X136316600Y-72452119D01*
X136321913Y-72453543D01*
X136421480Y-72462254D01*
X136490149Y-72468262D01*
X136490156Y-72468262D01*
X136492873Y-72468500D01*
X137307127Y-72468500D01*
X137309844Y-72468262D01*
X137309851Y-72468262D01*
X137378520Y-72462254D01*
X137478087Y-72453543D01*
X137483400Y-72452119D01*
X137483402Y-72452119D01*
X137693933Y-72395707D01*
X137693935Y-72395706D01*
X137699243Y-72394284D01*
X137704225Y-72391961D01*
X137901762Y-72299849D01*
X137901767Y-72299846D01*
X137906749Y-72297523D01*
X138011611Y-72224098D01*
X138089789Y-72169357D01*
X138089792Y-72169355D01*
X138094300Y-72166198D01*
X138256198Y-72004300D01*
X138387523Y-71816749D01*
X138389846Y-71811767D01*
X138389849Y-71811762D01*
X138481961Y-71614225D01*
X138481961Y-71614224D01*
X138484284Y-71609243D01*
X138543543Y-71388087D01*
X138563498Y-71160000D01*
X138543543Y-70931913D01*
X138484284Y-70710757D01*
X138481961Y-70705775D01*
X138389849Y-70508238D01*
X138389846Y-70508233D01*
X138387523Y-70503251D01*
X138256198Y-70315700D01*
X138094300Y-70153802D01*
X138089792Y-70150645D01*
X138089789Y-70150643D01*
X138011611Y-70095902D01*
X137906749Y-70022477D01*
X137901767Y-70020154D01*
X137901762Y-70020151D01*
X137866951Y-70003919D01*
X137813666Y-69957002D01*
X137794205Y-69888725D01*
X137814747Y-69820765D01*
X137866951Y-69775529D01*
X137901511Y-69759414D01*
X137911007Y-69753931D01*
X138089467Y-69628972D01*
X138097875Y-69621916D01*
X138251916Y-69467875D01*
X138258972Y-69459467D01*
X138383931Y-69281007D01*
X138389414Y-69271511D01*
X138481490Y-69074053D01*
X138485236Y-69063761D01*
X138531394Y-68891497D01*
X138531058Y-68877401D01*
X138523116Y-68874000D01*
X135282033Y-68874000D01*
X135268502Y-68877973D01*
X135267273Y-68886522D01*
X135314764Y-69063761D01*
X135318510Y-69074053D01*
X135410586Y-69271511D01*
X135416069Y-69281007D01*
X135541028Y-69459467D01*
X135548084Y-69467875D01*
X135702125Y-69621916D01*
X135710533Y-69628972D01*
X135888993Y-69753931D01*
X135898489Y-69759414D01*
X135933049Y-69775529D01*
X135986334Y-69822446D01*
X136005795Y-69890723D01*
X135985253Y-69958683D01*
X135933049Y-70003919D01*
X135898238Y-70020151D01*
X135898233Y-70020154D01*
X135893251Y-70022477D01*
X135788389Y-70095902D01*
X135710211Y-70150643D01*
X135710208Y-70150645D01*
X135705700Y-70153802D01*
X135543802Y-70315700D01*
X135412477Y-70503251D01*
X135410154Y-70508233D01*
X135410151Y-70508238D01*
X135318039Y-70705775D01*
X135315716Y-70710757D01*
X135256457Y-70931913D01*
X135236502Y-71160000D01*
X134483498Y-71160000D01*
X134463543Y-70931913D01*
X134404284Y-70710757D01*
X134401961Y-70705775D01*
X134309849Y-70508238D01*
X134309846Y-70508233D01*
X134307523Y-70503251D01*
X134176198Y-70315700D01*
X134014300Y-70153802D01*
X134009792Y-70150645D01*
X134009789Y-70150643D01*
X133931611Y-70095902D01*
X133826749Y-70022477D01*
X133821767Y-70020154D01*
X133821762Y-70020151D01*
X133786951Y-70003919D01*
X133733666Y-69957002D01*
X133714205Y-69888725D01*
X133734747Y-69820765D01*
X133786951Y-69775529D01*
X133821511Y-69759414D01*
X133831007Y-69753931D01*
X134009467Y-69628972D01*
X134017875Y-69621916D01*
X134171916Y-69467875D01*
X134178972Y-69459467D01*
X134303931Y-69281007D01*
X134309414Y-69271511D01*
X134401490Y-69074053D01*
X134405236Y-69063761D01*
X134451394Y-68891497D01*
X134451058Y-68877401D01*
X134443116Y-68874000D01*
X131202033Y-68874000D01*
X131188502Y-68877973D01*
X131187273Y-68886522D01*
X131234764Y-69063761D01*
X131238510Y-69074053D01*
X131330586Y-69271511D01*
X131336069Y-69281007D01*
X131461028Y-69459467D01*
X131468084Y-69467875D01*
X131622125Y-69621916D01*
X131630533Y-69628972D01*
X131808993Y-69753931D01*
X131818489Y-69759414D01*
X131853049Y-69775529D01*
X131906334Y-69822446D01*
X131925795Y-69890723D01*
X131905253Y-69958683D01*
X131853049Y-70003919D01*
X131818238Y-70020151D01*
X131818233Y-70020154D01*
X131813251Y-70022477D01*
X131708389Y-70095902D01*
X131630211Y-70150643D01*
X131630208Y-70150645D01*
X131625700Y-70153802D01*
X131463802Y-70315700D01*
X131332477Y-70503251D01*
X131330154Y-70508233D01*
X131330151Y-70508238D01*
X131238039Y-70705775D01*
X131235716Y-70710757D01*
X131176457Y-70931913D01*
X131156502Y-71160000D01*
X126863498Y-71160000D01*
X126843543Y-70931913D01*
X126784284Y-70710757D01*
X126781961Y-70705775D01*
X126689849Y-70508238D01*
X126689846Y-70508233D01*
X126687523Y-70503251D01*
X126556198Y-70315700D01*
X126394300Y-70153802D01*
X126389792Y-70150645D01*
X126389789Y-70150643D01*
X126311611Y-70095902D01*
X126206749Y-70022477D01*
X126201767Y-70020154D01*
X126201762Y-70020151D01*
X126167543Y-70004195D01*
X126114258Y-69957278D01*
X126094797Y-69889001D01*
X126115339Y-69821041D01*
X126167543Y-69775805D01*
X126201762Y-69759849D01*
X126201767Y-69759846D01*
X126206749Y-69757523D01*
X126311611Y-69684098D01*
X126389789Y-69629357D01*
X126389792Y-69629355D01*
X126394300Y-69626198D01*
X126556198Y-69464300D01*
X126559357Y-69459789D01*
X126613665Y-69382229D01*
X126669122Y-69337901D01*
X126716878Y-69328500D01*
X127541088Y-69328500D01*
X127549658Y-69328792D01*
X127599776Y-69332209D01*
X127599780Y-69332209D01*
X127607352Y-69332725D01*
X127614829Y-69331420D01*
X127614830Y-69331420D01*
X127641308Y-69326799D01*
X127670303Y-69321738D01*
X127676821Y-69320777D01*
X127740242Y-69313102D01*
X127747343Y-69310419D01*
X127749952Y-69309778D01*
X127766262Y-69305315D01*
X127768798Y-69304550D01*
X127776284Y-69303243D01*
X127834800Y-69277556D01*
X127840904Y-69275065D01*
X127849646Y-69271762D01*
X127900656Y-69252487D01*
X127906919Y-69248183D01*
X127909285Y-69246946D01*
X127924097Y-69238701D01*
X127926351Y-69237368D01*
X127933305Y-69234315D01*
X127984002Y-69195413D01*
X127989332Y-69191541D01*
X128035720Y-69159661D01*
X128035725Y-69159656D01*
X128041981Y-69155357D01*
X128083436Y-69108829D01*
X128088416Y-69103554D01*
X130961864Y-66230106D01*
X131024176Y-66196080D01*
X131094991Y-66201145D01*
X131151827Y-66243692D01*
X131175044Y-66297319D01*
X131175979Y-66302620D01*
X131176457Y-66308087D01*
X131177877Y-66313387D01*
X131177878Y-66313392D01*
X131233449Y-66520782D01*
X131235716Y-66529243D01*
X131238039Y-66534224D01*
X131238039Y-66534225D01*
X131330151Y-66731762D01*
X131330154Y-66731767D01*
X131332477Y-66736749D01*
X131463802Y-66924300D01*
X131625700Y-67086198D01*
X131630208Y-67089355D01*
X131630211Y-67089357D01*
X131666553Y-67114804D01*
X131813251Y-67217523D01*
X131818233Y-67219846D01*
X131818238Y-67219849D01*
X131853049Y-67236081D01*
X131906334Y-67282998D01*
X131925795Y-67351275D01*
X131905253Y-67419235D01*
X131853049Y-67464471D01*
X131818489Y-67480586D01*
X131808993Y-67486069D01*
X131630533Y-67611028D01*
X131622125Y-67618084D01*
X131468084Y-67772125D01*
X131461028Y-67780533D01*
X131336069Y-67958993D01*
X131330586Y-67968489D01*
X131238510Y-68165947D01*
X131234764Y-68176239D01*
X131188606Y-68348503D01*
X131188942Y-68362599D01*
X131196884Y-68366000D01*
X134437967Y-68366000D01*
X134451498Y-68362027D01*
X134452727Y-68353478D01*
X134405236Y-68176239D01*
X134401490Y-68165947D01*
X134309414Y-67968489D01*
X134303931Y-67958993D01*
X134178972Y-67780533D01*
X134171916Y-67772125D01*
X134017875Y-67618084D01*
X134009467Y-67611028D01*
X133831007Y-67486069D01*
X133821511Y-67480586D01*
X133786951Y-67464471D01*
X133733666Y-67417554D01*
X133714205Y-67349277D01*
X133734747Y-67281317D01*
X133786951Y-67236081D01*
X133821762Y-67219849D01*
X133821767Y-67219846D01*
X133826749Y-67217523D01*
X133973447Y-67114804D01*
X134009789Y-67089357D01*
X134009792Y-67089355D01*
X134014300Y-67086198D01*
X134176198Y-66924300D01*
X134307523Y-66736749D01*
X134309846Y-66731767D01*
X134309849Y-66731762D01*
X134401961Y-66534225D01*
X134401961Y-66534224D01*
X134404284Y-66529243D01*
X134413814Y-66493679D01*
X134462119Y-66313402D01*
X134462119Y-66313400D01*
X134463543Y-66308087D01*
X134483498Y-66080000D01*
X134463543Y-65851913D01*
X134404284Y-65630757D01*
X134401961Y-65625775D01*
X134309849Y-65428238D01*
X134309846Y-65428233D01*
X134307523Y-65423251D01*
X134234098Y-65318389D01*
X134179357Y-65240211D01*
X134179355Y-65240208D01*
X134176198Y-65235700D01*
X134014300Y-65073802D01*
X134009792Y-65070645D01*
X134009789Y-65070643D01*
X133931611Y-65015902D01*
X133826749Y-64942477D01*
X133821767Y-64940154D01*
X133821762Y-64940151D01*
X133787543Y-64924195D01*
X133734258Y-64877278D01*
X133714797Y-64809001D01*
X133735339Y-64741041D01*
X133787543Y-64695805D01*
X133821762Y-64679849D01*
X133821767Y-64679846D01*
X133826749Y-64677523D01*
X134002495Y-64554464D01*
X134009789Y-64549357D01*
X134009792Y-64549355D01*
X134014300Y-64546198D01*
X134176198Y-64384300D01*
X134307523Y-64196749D01*
X134309846Y-64191767D01*
X134309849Y-64191762D01*
X134401961Y-63994225D01*
X134401961Y-63994224D01*
X134404284Y-63989243D01*
X134463543Y-63768087D01*
X134483498Y-63540000D01*
X134463543Y-63311913D01*
X134404284Y-63090757D01*
X134401959Y-63085770D01*
X134400078Y-63080602D01*
X134401712Y-63080007D01*
X134392223Y-63017585D01*
X134421194Y-62952768D01*
X134480609Y-62913904D01*
X134517081Y-62908510D01*
X135202919Y-62908510D01*
X135271040Y-62928512D01*
X135317533Y-62982168D01*
X135327637Y-63052442D01*
X135319311Y-63080380D01*
X135319922Y-63080602D01*
X135318041Y-63085770D01*
X135315716Y-63090757D01*
X135256457Y-63311913D01*
X135236502Y-63540000D01*
X135256457Y-63768087D01*
X135315716Y-63989243D01*
X135318039Y-63994224D01*
X135318039Y-63994225D01*
X135410151Y-64191762D01*
X135410154Y-64191767D01*
X135412477Y-64196749D01*
X135543802Y-64384300D01*
X135705700Y-64546198D01*
X135710208Y-64549355D01*
X135710211Y-64549357D01*
X135717505Y-64554464D01*
X135893251Y-64677523D01*
X135898233Y-64679846D01*
X135898238Y-64679849D01*
X135932457Y-64695805D01*
X135985742Y-64742722D01*
X136005203Y-64810999D01*
X135984661Y-64878959D01*
X135932457Y-64924195D01*
X135898238Y-64940151D01*
X135898233Y-64940154D01*
X135893251Y-64942477D01*
X135788389Y-65015902D01*
X135710211Y-65070643D01*
X135710208Y-65070645D01*
X135705700Y-65073802D01*
X135543802Y-65235700D01*
X135540645Y-65240208D01*
X135540643Y-65240211D01*
X135485902Y-65318389D01*
X135412477Y-65423251D01*
X135410154Y-65428233D01*
X135410151Y-65428238D01*
X135318039Y-65625775D01*
X135315716Y-65630757D01*
X135256457Y-65851913D01*
X135236502Y-66080000D01*
X135256457Y-66308087D01*
X135257881Y-66313400D01*
X135257881Y-66313402D01*
X135306187Y-66493679D01*
X135315716Y-66529243D01*
X135318039Y-66534224D01*
X135318039Y-66534225D01*
X135410151Y-66731762D01*
X135410154Y-66731767D01*
X135412477Y-66736749D01*
X135543802Y-66924300D01*
X135705700Y-67086198D01*
X135710208Y-67089355D01*
X135710211Y-67089357D01*
X135746553Y-67114804D01*
X135893251Y-67217523D01*
X135898233Y-67219846D01*
X135898238Y-67219849D01*
X135933049Y-67236081D01*
X135986334Y-67282998D01*
X136005795Y-67351275D01*
X135985253Y-67419235D01*
X135933049Y-67464471D01*
X135898489Y-67480586D01*
X135888993Y-67486069D01*
X135710533Y-67611028D01*
X135702125Y-67618084D01*
X135548084Y-67772125D01*
X135541028Y-67780533D01*
X135416069Y-67958993D01*
X135410586Y-67968489D01*
X135318510Y-68165947D01*
X135314764Y-68176239D01*
X135268606Y-68348503D01*
X135268942Y-68362599D01*
X135276884Y-68366000D01*
X138517967Y-68366000D01*
X138531498Y-68362027D01*
X138532727Y-68353478D01*
X138485236Y-68176239D01*
X138481490Y-68165947D01*
X138389414Y-67968489D01*
X138383931Y-67958993D01*
X138258972Y-67780533D01*
X138251916Y-67772125D01*
X138097875Y-67618084D01*
X138089467Y-67611028D01*
X137911007Y-67486069D01*
X137901511Y-67480586D01*
X137866951Y-67464471D01*
X137813666Y-67417554D01*
X137794205Y-67349277D01*
X137814747Y-67281317D01*
X137866951Y-67236081D01*
X137901762Y-67219849D01*
X137901767Y-67219846D01*
X137906749Y-67217523D01*
X138053447Y-67114804D01*
X138089789Y-67089357D01*
X138089792Y-67089355D01*
X138094300Y-67086198D01*
X138256198Y-66924300D01*
X138387523Y-66736749D01*
X138389846Y-66731767D01*
X138389849Y-66731762D01*
X138481961Y-66534225D01*
X138481961Y-66534224D01*
X138484284Y-66529243D01*
X138493814Y-66493679D01*
X138542119Y-66313402D01*
X138542119Y-66313400D01*
X138543543Y-66308087D01*
X138563498Y-66080000D01*
X138543543Y-65851913D01*
X138484284Y-65630757D01*
X138481961Y-65625775D01*
X138389849Y-65428238D01*
X138389846Y-65428233D01*
X138387523Y-65423251D01*
X138314098Y-65318389D01*
X138259357Y-65240211D01*
X138259355Y-65240208D01*
X138256198Y-65235700D01*
X138094300Y-65073802D01*
X138089792Y-65070645D01*
X138089789Y-65070643D01*
X138011611Y-65015902D01*
X137906749Y-64942477D01*
X137901767Y-64940154D01*
X137901762Y-64940151D01*
X137867543Y-64924195D01*
X137814258Y-64877278D01*
X137794797Y-64809001D01*
X137815339Y-64741041D01*
X137867543Y-64695805D01*
X137901762Y-64679849D01*
X137901767Y-64679846D01*
X137906749Y-64677523D01*
X138082495Y-64554464D01*
X138089789Y-64549357D01*
X138089792Y-64549355D01*
X138094300Y-64546198D01*
X138256198Y-64384300D01*
X138387523Y-64196749D01*
X138389846Y-64191767D01*
X138389849Y-64191762D01*
X138481961Y-63994225D01*
X138481961Y-63994224D01*
X138484284Y-63989243D01*
X138543543Y-63768087D01*
X138563498Y-63540000D01*
X138543543Y-63311913D01*
X138484284Y-63090757D01*
X138481959Y-63085770D01*
X138480078Y-63080602D01*
X138481712Y-63080007D01*
X138472223Y-63017585D01*
X138501194Y-62952768D01*
X138560609Y-62913904D01*
X138597081Y-62908510D01*
X142822919Y-62908510D01*
X142891040Y-62928512D01*
X142937533Y-62982168D01*
X142947637Y-63052442D01*
X142939311Y-63080380D01*
X142939922Y-63080602D01*
X142938041Y-63085770D01*
X142935716Y-63090757D01*
X142876457Y-63311913D01*
X142856502Y-63540000D01*
X142876457Y-63768087D01*
X142935716Y-63989243D01*
X142938039Y-63994224D01*
X142938039Y-63994225D01*
X143030151Y-64191762D01*
X143030154Y-64191767D01*
X143032477Y-64196749D01*
X143163802Y-64384300D01*
X143325700Y-64546198D01*
X143330208Y-64549355D01*
X143330211Y-64549357D01*
X143337505Y-64554464D01*
X143513251Y-64677523D01*
X143518233Y-64679846D01*
X143518238Y-64679849D01*
X143552457Y-64695805D01*
X143605742Y-64742722D01*
X143625203Y-64810999D01*
X143604661Y-64878959D01*
X143552457Y-64924195D01*
X143518238Y-64940151D01*
X143518233Y-64940154D01*
X143513251Y-64942477D01*
X143408389Y-65015902D01*
X143330211Y-65070643D01*
X143330208Y-65070645D01*
X143325700Y-65073802D01*
X143163802Y-65235700D01*
X143160645Y-65240208D01*
X143160643Y-65240211D01*
X143105902Y-65318389D01*
X143032477Y-65423251D01*
X143030154Y-65428233D01*
X143030151Y-65428238D01*
X142938039Y-65625775D01*
X142935716Y-65630757D01*
X142876457Y-65851913D01*
X142856502Y-66080000D01*
X142876457Y-66308087D01*
X142877881Y-66313400D01*
X142877881Y-66313402D01*
X142926187Y-66493679D01*
X142935716Y-66529243D01*
X142938039Y-66534224D01*
X142938039Y-66534225D01*
X143030151Y-66731762D01*
X143030154Y-66731767D01*
X143032477Y-66736749D01*
X143163802Y-66924300D01*
X143325700Y-67086198D01*
X143330208Y-67089355D01*
X143330211Y-67089357D01*
X143366553Y-67114804D01*
X143513251Y-67217523D01*
X143518233Y-67219846D01*
X143518238Y-67219849D01*
X143552457Y-67235805D01*
X143605742Y-67282722D01*
X143625203Y-67350999D01*
X143604661Y-67418959D01*
X143552457Y-67464195D01*
X143518238Y-67480151D01*
X143518233Y-67480154D01*
X143513251Y-67482477D01*
X143429183Y-67541342D01*
X143330211Y-67610643D01*
X143330208Y-67610645D01*
X143325700Y-67613802D01*
X143163802Y-67775700D01*
X143032477Y-67963251D01*
X143030154Y-67968233D01*
X143030151Y-67968238D01*
X142996590Y-68040211D01*
X142935716Y-68170757D01*
X142876457Y-68391913D01*
X142856502Y-68620000D01*
X142876457Y-68848087D01*
X142935716Y-69069243D01*
X142938039Y-69074224D01*
X142938039Y-69074225D01*
X143030151Y-69271762D01*
X143030154Y-69271767D01*
X143032477Y-69276749D01*
X143066382Y-69325170D01*
X143160643Y-69459788D01*
X143163802Y-69464300D01*
X143325700Y-69626198D01*
X143330208Y-69629355D01*
X143330211Y-69629357D01*
X143408389Y-69684098D01*
X143513251Y-69757523D01*
X143518233Y-69759846D01*
X143518238Y-69759849D01*
X143552457Y-69775805D01*
X143605742Y-69822722D01*
X143625203Y-69890999D01*
X143604661Y-69958959D01*
X143552457Y-70004195D01*
X143518238Y-70020151D01*
X143518233Y-70020154D01*
X143513251Y-70022477D01*
X143408389Y-70095902D01*
X143330211Y-70150643D01*
X143330208Y-70150645D01*
X143325700Y-70153802D01*
X143163802Y-70315700D01*
X143032477Y-70503251D01*
X143030154Y-70508233D01*
X143030151Y-70508238D01*
X142938039Y-70705775D01*
X142935716Y-70710757D01*
X142876457Y-70931913D01*
X142856502Y-71160000D01*
X142876457Y-71388087D01*
X142935716Y-71609243D01*
X142938039Y-71614224D01*
X142938039Y-71614225D01*
X143030151Y-71811762D01*
X143030154Y-71811767D01*
X143032477Y-71816749D01*
X143163802Y-72004300D01*
X143325700Y-72166198D01*
X143330208Y-72169355D01*
X143330211Y-72169357D01*
X143408389Y-72224098D01*
X143513251Y-72297523D01*
X143518233Y-72299846D01*
X143518238Y-72299849D01*
X143715775Y-72391961D01*
X143720757Y-72394284D01*
X143726065Y-72395706D01*
X143726067Y-72395707D01*
X143936598Y-72452119D01*
X143936600Y-72452119D01*
X143941913Y-72453543D01*
X144041480Y-72462254D01*
X144110149Y-72468262D01*
X144110156Y-72468262D01*
X144112873Y-72468500D01*
X144927127Y-72468500D01*
X144929844Y-72468262D01*
X144929851Y-72468262D01*
X144998520Y-72462254D01*
X145098087Y-72453543D01*
X145103400Y-72452119D01*
X145103402Y-72452119D01*
X145313933Y-72395707D01*
X145313935Y-72395706D01*
X145319243Y-72394284D01*
X145324225Y-72391961D01*
X145521762Y-72299849D01*
X145521767Y-72299846D01*
X145526749Y-72297523D01*
X145631611Y-72224098D01*
X145709789Y-72169357D01*
X145709792Y-72169355D01*
X145714300Y-72166198D01*
X145876198Y-72004300D01*
X146007523Y-71816749D01*
X146009846Y-71811767D01*
X146009849Y-71811762D01*
X146101961Y-71614225D01*
X146101961Y-71614224D01*
X146104284Y-71609243D01*
X146163543Y-71388087D01*
X146183498Y-71160000D01*
X146163543Y-70931913D01*
X146104284Y-70710757D01*
X146101961Y-70705775D01*
X146009849Y-70508238D01*
X146009846Y-70508233D01*
X146007523Y-70503251D01*
X145876198Y-70315700D01*
X145714300Y-70153802D01*
X145709792Y-70150645D01*
X145709789Y-70150643D01*
X145631611Y-70095902D01*
X145526749Y-70022477D01*
X145521767Y-70020154D01*
X145521762Y-70020151D01*
X145487543Y-70004195D01*
X145434258Y-69957278D01*
X145414797Y-69889001D01*
X145435339Y-69821041D01*
X145487543Y-69775805D01*
X145521762Y-69759849D01*
X145521767Y-69759846D01*
X145526749Y-69757523D01*
X145631611Y-69684098D01*
X145709789Y-69629357D01*
X145709792Y-69629355D01*
X145714300Y-69626198D01*
X145876198Y-69464300D01*
X145879358Y-69459788D01*
X145973618Y-69325170D01*
X146007523Y-69276749D01*
X146009846Y-69271767D01*
X146009849Y-69271762D01*
X146101961Y-69074225D01*
X146101961Y-69074224D01*
X146104284Y-69069243D01*
X146154992Y-68880000D01*
X150126502Y-68880000D01*
X150146457Y-69108087D01*
X150147881Y-69113400D01*
X150147881Y-69113402D01*
X150191512Y-69276232D01*
X150205716Y-69329243D01*
X150208039Y-69334224D01*
X150208039Y-69334225D01*
X150300151Y-69531762D01*
X150300154Y-69531767D01*
X150302477Y-69536749D01*
X150433802Y-69724300D01*
X150595700Y-69886198D01*
X150600208Y-69889355D01*
X150600211Y-69889357D01*
X150652137Y-69925716D01*
X150783251Y-70017523D01*
X150788233Y-70019846D01*
X150788238Y-70019849D01*
X150985775Y-70111961D01*
X150990757Y-70114284D01*
X150996065Y-70115706D01*
X150996067Y-70115707D01*
X151206598Y-70172119D01*
X151206600Y-70172119D01*
X151211913Y-70173543D01*
X151440000Y-70193498D01*
X151668087Y-70173543D01*
X151673400Y-70172119D01*
X151673402Y-70172119D01*
X151883933Y-70115707D01*
X151883935Y-70115706D01*
X151889243Y-70114284D01*
X151894225Y-70111961D01*
X152091762Y-70019849D01*
X152091767Y-70019846D01*
X152096749Y-70017523D01*
X152227863Y-69925716D01*
X152279789Y-69889357D01*
X152279792Y-69889355D01*
X152284300Y-69886198D01*
X152446198Y-69724300D01*
X152577523Y-69536749D01*
X152579846Y-69531767D01*
X152579849Y-69531762D01*
X152671961Y-69334225D01*
X152671961Y-69334224D01*
X152674284Y-69329243D01*
X152688489Y-69276232D01*
X152732119Y-69113402D01*
X152732119Y-69113400D01*
X152733543Y-69108087D01*
X152753498Y-68880000D01*
X160286502Y-68880000D01*
X160306457Y-69108087D01*
X160307881Y-69113400D01*
X160307881Y-69113402D01*
X160351512Y-69276232D01*
X160365716Y-69329243D01*
X160368039Y-69334224D01*
X160368039Y-69334225D01*
X160460151Y-69531762D01*
X160460154Y-69531767D01*
X160462477Y-69536749D01*
X160593802Y-69724300D01*
X160755700Y-69886198D01*
X160760208Y-69889355D01*
X160760211Y-69889357D01*
X160812137Y-69925716D01*
X160943251Y-70017523D01*
X160948233Y-70019846D01*
X160948238Y-70019849D01*
X161145775Y-70111961D01*
X161150757Y-70114284D01*
X161156065Y-70115706D01*
X161156067Y-70115707D01*
X161366598Y-70172119D01*
X161366600Y-70172119D01*
X161371913Y-70173543D01*
X161600000Y-70193498D01*
X161828087Y-70173543D01*
X161833400Y-70172119D01*
X161833402Y-70172119D01*
X162043933Y-70115707D01*
X162043935Y-70115706D01*
X162049243Y-70114284D01*
X162054225Y-70111961D01*
X162251762Y-70019849D01*
X162251767Y-70019846D01*
X162256749Y-70017523D01*
X162387863Y-69925716D01*
X162439789Y-69889357D01*
X162439792Y-69889355D01*
X162444300Y-69886198D01*
X162606198Y-69724300D01*
X162737523Y-69536749D01*
X162739846Y-69531767D01*
X162739849Y-69531762D01*
X162831961Y-69334225D01*
X162831961Y-69334224D01*
X162834284Y-69329243D01*
X162848489Y-69276232D01*
X162892119Y-69113402D01*
X162892119Y-69113400D01*
X162893543Y-69108087D01*
X162913498Y-68880000D01*
X162893543Y-68651913D01*
X162834284Y-68430757D01*
X162816171Y-68391913D01*
X162739849Y-68228238D01*
X162739846Y-68228233D01*
X162737523Y-68223251D01*
X162606198Y-68035700D01*
X162444300Y-67873802D01*
X162439792Y-67870645D01*
X162439789Y-67870643D01*
X162311098Y-67780533D01*
X162256749Y-67742477D01*
X162251767Y-67740154D01*
X162251762Y-67740151D01*
X162054225Y-67648039D01*
X162054224Y-67648039D01*
X162049243Y-67645716D01*
X162043935Y-67644294D01*
X162043933Y-67644293D01*
X161833402Y-67587881D01*
X161833400Y-67587881D01*
X161828087Y-67586457D01*
X161600000Y-67566502D01*
X161371913Y-67586457D01*
X161366600Y-67587881D01*
X161366598Y-67587881D01*
X161156067Y-67644293D01*
X161156065Y-67644294D01*
X161150757Y-67645716D01*
X161145776Y-67648039D01*
X161145775Y-67648039D01*
X160948238Y-67740151D01*
X160948233Y-67740154D01*
X160943251Y-67742477D01*
X160888902Y-67780533D01*
X160760211Y-67870643D01*
X160760208Y-67870645D01*
X160755700Y-67873802D01*
X160593802Y-68035700D01*
X160462477Y-68223251D01*
X160460154Y-68228233D01*
X160460151Y-68228238D01*
X160383829Y-68391913D01*
X160365716Y-68430757D01*
X160306457Y-68651913D01*
X160286502Y-68880000D01*
X152753498Y-68880000D01*
X152733543Y-68651913D01*
X152674284Y-68430757D01*
X152656171Y-68391913D01*
X152579849Y-68228238D01*
X152579846Y-68228233D01*
X152577523Y-68223251D01*
X152446198Y-68035700D01*
X152284300Y-67873802D01*
X152279792Y-67870645D01*
X152279789Y-67870643D01*
X152151098Y-67780533D01*
X152096749Y-67742477D01*
X152091767Y-67740154D01*
X152091762Y-67740151D01*
X151894225Y-67648039D01*
X151894224Y-67648039D01*
X151889243Y-67645716D01*
X151883935Y-67644294D01*
X151883933Y-67644293D01*
X151673402Y-67587881D01*
X151673400Y-67587881D01*
X151668087Y-67586457D01*
X151440000Y-67566502D01*
X151211913Y-67586457D01*
X151206600Y-67587881D01*
X151206598Y-67587881D01*
X150996067Y-67644293D01*
X150996065Y-67644294D01*
X150990757Y-67645716D01*
X150985776Y-67648039D01*
X150985775Y-67648039D01*
X150788238Y-67740151D01*
X150788233Y-67740154D01*
X150783251Y-67742477D01*
X150728902Y-67780533D01*
X150600211Y-67870643D01*
X150600208Y-67870645D01*
X150595700Y-67873802D01*
X150433802Y-68035700D01*
X150302477Y-68223251D01*
X150300154Y-68228233D01*
X150300151Y-68228238D01*
X150223829Y-68391913D01*
X150205716Y-68430757D01*
X150146457Y-68651913D01*
X150126502Y-68880000D01*
X146154992Y-68880000D01*
X146163543Y-68848087D01*
X146183498Y-68620000D01*
X146163543Y-68391913D01*
X146104284Y-68170757D01*
X146043410Y-68040211D01*
X146009849Y-67968238D01*
X146009846Y-67968233D01*
X146007523Y-67963251D01*
X145876198Y-67775700D01*
X145714300Y-67613802D01*
X145709792Y-67610645D01*
X145709789Y-67610643D01*
X145610817Y-67541342D01*
X145526749Y-67482477D01*
X145521767Y-67480154D01*
X145521762Y-67480151D01*
X145487543Y-67464195D01*
X145434258Y-67417278D01*
X145414797Y-67349001D01*
X145435339Y-67281041D01*
X145487543Y-67235805D01*
X145521762Y-67219849D01*
X145521767Y-67219846D01*
X145526749Y-67217523D01*
X145673447Y-67114804D01*
X145709789Y-67089357D01*
X145709792Y-67089355D01*
X145714300Y-67086198D01*
X145876198Y-66924300D01*
X146007523Y-66736749D01*
X146009846Y-66731767D01*
X146009849Y-66731762D01*
X146101961Y-66534225D01*
X146101961Y-66534224D01*
X146104284Y-66529243D01*
X146113814Y-66493679D01*
X146162119Y-66313402D01*
X146162119Y-66313400D01*
X146163543Y-66308087D01*
X146183498Y-66080000D01*
X146163543Y-65851913D01*
X146104284Y-65630757D01*
X146101961Y-65625775D01*
X146009849Y-65428238D01*
X146009846Y-65428233D01*
X146007523Y-65423251D01*
X145934098Y-65318389D01*
X145879357Y-65240211D01*
X145879355Y-65240208D01*
X145876198Y-65235700D01*
X145714300Y-65073802D01*
X145709792Y-65070645D01*
X145709789Y-65070643D01*
X145631611Y-65015902D01*
X145526749Y-64942477D01*
X145521767Y-64940154D01*
X145521762Y-64940151D01*
X145487543Y-64924195D01*
X145434258Y-64877278D01*
X145414797Y-64809001D01*
X145435339Y-64741041D01*
X145487543Y-64695805D01*
X145521762Y-64679849D01*
X145521767Y-64679846D01*
X145526749Y-64677523D01*
X145702495Y-64554464D01*
X145709789Y-64549357D01*
X145709792Y-64549355D01*
X145714300Y-64546198D01*
X145876198Y-64384300D01*
X146007523Y-64196749D01*
X146009846Y-64191767D01*
X146009849Y-64191762D01*
X146101961Y-63994225D01*
X146101961Y-63994224D01*
X146104284Y-63989243D01*
X146154992Y-63800000D01*
X150126502Y-63800000D01*
X150146457Y-64028087D01*
X150147881Y-64033400D01*
X150147881Y-64033402D01*
X150190247Y-64191511D01*
X150205716Y-64249243D01*
X150208039Y-64254224D01*
X150208039Y-64254225D01*
X150300151Y-64451762D01*
X150300154Y-64451767D01*
X150302477Y-64456749D01*
X150305634Y-64461257D01*
X150423246Y-64629224D01*
X150433802Y-64644300D01*
X150595700Y-64806198D01*
X150600208Y-64809355D01*
X150600211Y-64809357D01*
X150652137Y-64845716D01*
X150783251Y-64937523D01*
X150788233Y-64939846D01*
X150788238Y-64939849D01*
X150985775Y-65031961D01*
X150990757Y-65034284D01*
X150996065Y-65035706D01*
X150996067Y-65035707D01*
X151206598Y-65092119D01*
X151206600Y-65092119D01*
X151211913Y-65093543D01*
X151440000Y-65113498D01*
X151668087Y-65093543D01*
X151673400Y-65092119D01*
X151673402Y-65092119D01*
X151883933Y-65035707D01*
X151883935Y-65035706D01*
X151889243Y-65034284D01*
X151894225Y-65031961D01*
X152091762Y-64939849D01*
X152091767Y-64939846D01*
X152096749Y-64937523D01*
X152227863Y-64845716D01*
X152279789Y-64809357D01*
X152279792Y-64809355D01*
X152284300Y-64806198D01*
X152446198Y-64644300D01*
X152456755Y-64629224D01*
X152574366Y-64461257D01*
X152577523Y-64456749D01*
X152579846Y-64451767D01*
X152579849Y-64451762D01*
X152671961Y-64254225D01*
X152671961Y-64254224D01*
X152674284Y-64249243D01*
X152689754Y-64191511D01*
X152732119Y-64033402D01*
X152732119Y-64033400D01*
X152733543Y-64028087D01*
X152753498Y-63800000D01*
X160286502Y-63800000D01*
X160306457Y-64028087D01*
X160307881Y-64033400D01*
X160307881Y-64033402D01*
X160350247Y-64191511D01*
X160365716Y-64249243D01*
X160368039Y-64254224D01*
X160368039Y-64254225D01*
X160460151Y-64451762D01*
X160460154Y-64451767D01*
X160462477Y-64456749D01*
X160465634Y-64461257D01*
X160583246Y-64629224D01*
X160593802Y-64644300D01*
X160755700Y-64806198D01*
X160760208Y-64809355D01*
X160760211Y-64809357D01*
X160812137Y-64845716D01*
X160943251Y-64937523D01*
X160948233Y-64939846D01*
X160948238Y-64939849D01*
X161145775Y-65031961D01*
X161150757Y-65034284D01*
X161156065Y-65035706D01*
X161156067Y-65035707D01*
X161366598Y-65092119D01*
X161366600Y-65092119D01*
X161371913Y-65093543D01*
X161600000Y-65113498D01*
X161828087Y-65093543D01*
X161833400Y-65092119D01*
X161833402Y-65092119D01*
X162043933Y-65035707D01*
X162043935Y-65035706D01*
X162049243Y-65034284D01*
X162054225Y-65031961D01*
X162251762Y-64939849D01*
X162251767Y-64939846D01*
X162256749Y-64937523D01*
X162387863Y-64845716D01*
X162439789Y-64809357D01*
X162439792Y-64809355D01*
X162444300Y-64806198D01*
X162606198Y-64644300D01*
X162616755Y-64629224D01*
X162734366Y-64461257D01*
X162737523Y-64456749D01*
X162739846Y-64451767D01*
X162739849Y-64451762D01*
X162831961Y-64254225D01*
X162831961Y-64254224D01*
X162834284Y-64249243D01*
X162849754Y-64191511D01*
X162892119Y-64033402D01*
X162892119Y-64033400D01*
X162893543Y-64028087D01*
X162913498Y-63800000D01*
X162893543Y-63571913D01*
X162834284Y-63350757D01*
X162816171Y-63311913D01*
X162739849Y-63148238D01*
X162739846Y-63148233D01*
X162737523Y-63143251D01*
X162664098Y-63038389D01*
X162609357Y-62960211D01*
X162609355Y-62960208D01*
X162606198Y-62955700D01*
X162444300Y-62793802D01*
X162439792Y-62790645D01*
X162439789Y-62790643D01*
X162311098Y-62700533D01*
X162256749Y-62662477D01*
X162251767Y-62660154D01*
X162251762Y-62660151D01*
X162054225Y-62568039D01*
X162054224Y-62568039D01*
X162049243Y-62565716D01*
X162043935Y-62564294D01*
X162043933Y-62564293D01*
X161833402Y-62507881D01*
X161833400Y-62507881D01*
X161828087Y-62506457D01*
X161600000Y-62486502D01*
X161371913Y-62506457D01*
X161366600Y-62507881D01*
X161366598Y-62507881D01*
X161156067Y-62564293D01*
X161156065Y-62564294D01*
X161150757Y-62565716D01*
X161145776Y-62568039D01*
X161145775Y-62568039D01*
X160948238Y-62660151D01*
X160948233Y-62660154D01*
X160943251Y-62662477D01*
X160888902Y-62700533D01*
X160760211Y-62790643D01*
X160760208Y-62790645D01*
X160755700Y-62793802D01*
X160593802Y-62955700D01*
X160590645Y-62960208D01*
X160590643Y-62960211D01*
X160535902Y-63038389D01*
X160462477Y-63143251D01*
X160460154Y-63148233D01*
X160460151Y-63148238D01*
X160383829Y-63311913D01*
X160365716Y-63350757D01*
X160306457Y-63571913D01*
X160286502Y-63800000D01*
X152753498Y-63800000D01*
X152733543Y-63571913D01*
X152674284Y-63350757D01*
X152656171Y-63311913D01*
X152579849Y-63148238D01*
X152579846Y-63148233D01*
X152577523Y-63143251D01*
X152504098Y-63038389D01*
X152449357Y-62960211D01*
X152449355Y-62960208D01*
X152446198Y-62955700D01*
X152284300Y-62793802D01*
X152279792Y-62790645D01*
X152279789Y-62790643D01*
X152151098Y-62700533D01*
X152096749Y-62662477D01*
X152091767Y-62660154D01*
X152091762Y-62660151D01*
X151894225Y-62568039D01*
X151894224Y-62568039D01*
X151889243Y-62565716D01*
X151883935Y-62564294D01*
X151883933Y-62564293D01*
X151673402Y-62507881D01*
X151673400Y-62507881D01*
X151668087Y-62506457D01*
X151440000Y-62486502D01*
X151211913Y-62506457D01*
X151206600Y-62507881D01*
X151206598Y-62507881D01*
X150996067Y-62564293D01*
X150996065Y-62564294D01*
X150990757Y-62565716D01*
X150985776Y-62568039D01*
X150985775Y-62568039D01*
X150788238Y-62660151D01*
X150788233Y-62660154D01*
X150783251Y-62662477D01*
X150728902Y-62700533D01*
X150600211Y-62790643D01*
X150600208Y-62790645D01*
X150595700Y-62793802D01*
X150433802Y-62955700D01*
X150430645Y-62960208D01*
X150430643Y-62960211D01*
X150375902Y-63038389D01*
X150302477Y-63143251D01*
X150300154Y-63148233D01*
X150300151Y-63148238D01*
X150223829Y-63311913D01*
X150205716Y-63350757D01*
X150146457Y-63571913D01*
X150126502Y-63800000D01*
X146154992Y-63800000D01*
X146163543Y-63768087D01*
X146183498Y-63540000D01*
X146163543Y-63311913D01*
X146104284Y-63090757D01*
X146086418Y-63052442D01*
X146009849Y-62888238D01*
X146009846Y-62888233D01*
X146007523Y-62883251D01*
X145876198Y-62695700D01*
X145714300Y-62533802D01*
X145709792Y-62530645D01*
X145709789Y-62530643D01*
X145631611Y-62475902D01*
X145526749Y-62402477D01*
X145521767Y-62400154D01*
X145521762Y-62400151D01*
X145487543Y-62384195D01*
X145434258Y-62337278D01*
X145414797Y-62269001D01*
X145435339Y-62201041D01*
X145487543Y-62155805D01*
X145521762Y-62139849D01*
X145521767Y-62139846D01*
X145526749Y-62137523D01*
X145631611Y-62064098D01*
X145709789Y-62009357D01*
X145709792Y-62009355D01*
X145714300Y-62006198D01*
X145876198Y-61844300D01*
X146007523Y-61656749D01*
X146009846Y-61651767D01*
X146009849Y-61651762D01*
X146101961Y-61454225D01*
X146101961Y-61454224D01*
X146104284Y-61449243D01*
X146115692Y-61406670D01*
X146162119Y-61233402D01*
X146162119Y-61233400D01*
X146163543Y-61228087D01*
X146183498Y-61000000D01*
X146163543Y-60771913D01*
X146104284Y-60550757D01*
X146101961Y-60545775D01*
X146009849Y-60348238D01*
X146009846Y-60348233D01*
X146007523Y-60343251D01*
X145876198Y-60155700D01*
X145714300Y-59993802D01*
X145709792Y-59990645D01*
X145709789Y-59990643D01*
X145631611Y-59935902D01*
X145526749Y-59862477D01*
X145521767Y-59860154D01*
X145521762Y-59860151D01*
X145324225Y-59768039D01*
X145324224Y-59768039D01*
X145319243Y-59765716D01*
X145313935Y-59764294D01*
X145313933Y-59764293D01*
X145103402Y-59707881D01*
X145103400Y-59707881D01*
X145098087Y-59706457D01*
X144998520Y-59697746D01*
X144929851Y-59691738D01*
X144929844Y-59691738D01*
X144927127Y-59691500D01*
X144112873Y-59691500D01*
X144110156Y-59691738D01*
X144110149Y-59691738D01*
X144041480Y-59697746D01*
X143941913Y-59706457D01*
X143936600Y-59707881D01*
X143936598Y-59707881D01*
X143726067Y-59764293D01*
X143726065Y-59764294D01*
X143720757Y-59765716D01*
X143715776Y-59768039D01*
X143715775Y-59768039D01*
X143518238Y-59860151D01*
X143518233Y-59860154D01*
X143513251Y-59862477D01*
X143408389Y-59935902D01*
X143330211Y-59990643D01*
X143330208Y-59990645D01*
X143325700Y-59993802D01*
X143163802Y-60155700D01*
X143032477Y-60343251D01*
X143030154Y-60348233D01*
X143030151Y-60348238D01*
X142938039Y-60545775D01*
X142935716Y-60550757D01*
X142876457Y-60771913D01*
X142856502Y-61000000D01*
X142876457Y-61228087D01*
X142877881Y-61233400D01*
X142877881Y-61233402D01*
X142904541Y-61332899D01*
X142902851Y-61403876D01*
X142863057Y-61462671D01*
X142797792Y-61490619D01*
X142782834Y-61491510D01*
X138637166Y-61491510D01*
X138569045Y-61471508D01*
X138522552Y-61417852D01*
X138512448Y-61347578D01*
X138515459Y-61332899D01*
X138542119Y-61233402D01*
X138542119Y-61233400D01*
X138543543Y-61228087D01*
X138563498Y-61000000D01*
X138543543Y-60771913D01*
X138484284Y-60550757D01*
X138481961Y-60545775D01*
X138389849Y-60348238D01*
X138389846Y-60348233D01*
X138387523Y-60343251D01*
X138256198Y-60155700D01*
X138094300Y-59993802D01*
X138089792Y-59990645D01*
X138089789Y-59990643D01*
X138011611Y-59935902D01*
X137906749Y-59862477D01*
X137901767Y-59860154D01*
X137901762Y-59860151D01*
X137704225Y-59768039D01*
X137704224Y-59768039D01*
X137699243Y-59765716D01*
X137693935Y-59764294D01*
X137693933Y-59764293D01*
X137483402Y-59707881D01*
X137483400Y-59707881D01*
X137478087Y-59706457D01*
X137378520Y-59697746D01*
X137309851Y-59691738D01*
X137309844Y-59691738D01*
X137307127Y-59691500D01*
X136492873Y-59691500D01*
X136490156Y-59691738D01*
X136490149Y-59691738D01*
X136421480Y-59697746D01*
X136321913Y-59706457D01*
X136316600Y-59707881D01*
X136316598Y-59707881D01*
X136106067Y-59764293D01*
X136106065Y-59764294D01*
X136100757Y-59765716D01*
X136095776Y-59768039D01*
X136095775Y-59768039D01*
X135898238Y-59860151D01*
X135898233Y-59860154D01*
X135893251Y-59862477D01*
X135788389Y-59935902D01*
X135710211Y-59990643D01*
X135710208Y-59990645D01*
X135705700Y-59993802D01*
X135543802Y-60155700D01*
X135412477Y-60343251D01*
X135410154Y-60348233D01*
X135410151Y-60348238D01*
X135318039Y-60545775D01*
X135315716Y-60550757D01*
X135256457Y-60771913D01*
X135236502Y-61000000D01*
X135256457Y-61228087D01*
X135257881Y-61233400D01*
X135257881Y-61233402D01*
X135284541Y-61332899D01*
X135282851Y-61403876D01*
X135243057Y-61462671D01*
X135177792Y-61490619D01*
X135162834Y-61491510D01*
X134557166Y-61491510D01*
X134489045Y-61471508D01*
X134442552Y-61417852D01*
X134432448Y-61347578D01*
X134435459Y-61332899D01*
X134462119Y-61233402D01*
X134462119Y-61233400D01*
X134463543Y-61228087D01*
X134483498Y-61000000D01*
X134463543Y-60771913D01*
X134404284Y-60550757D01*
X134401961Y-60545775D01*
X134309849Y-60348238D01*
X134309846Y-60348233D01*
X134307523Y-60343251D01*
X134176198Y-60155700D01*
X134014300Y-59993802D01*
X134009792Y-59990645D01*
X134009789Y-59990643D01*
X133931611Y-59935902D01*
X133826749Y-59862477D01*
X133821767Y-59860154D01*
X133821762Y-59860151D01*
X133624225Y-59768039D01*
X133624224Y-59768039D01*
X133619243Y-59765716D01*
X133613935Y-59764294D01*
X133613933Y-59764293D01*
X133403402Y-59707881D01*
X133403400Y-59707881D01*
X133398087Y-59706457D01*
X133298520Y-59697746D01*
X133229851Y-59691738D01*
X133229844Y-59691738D01*
X133227127Y-59691500D01*
X132412873Y-59691500D01*
X132410156Y-59691738D01*
X132410149Y-59691738D01*
X132341480Y-59697746D01*
X132241913Y-59706457D01*
X132236600Y-59707881D01*
X132236598Y-59707881D01*
X132026067Y-59764293D01*
X132026065Y-59764294D01*
X132020757Y-59765716D01*
X132015776Y-59768039D01*
X132015775Y-59768039D01*
X131818238Y-59860151D01*
X131818233Y-59860154D01*
X131813251Y-59862477D01*
X131708389Y-59935902D01*
X131630211Y-59990643D01*
X131630208Y-59990645D01*
X131625700Y-59993802D01*
X131463802Y-60155700D01*
X131332477Y-60343251D01*
X131330154Y-60348233D01*
X131330151Y-60348238D01*
X131238039Y-60545775D01*
X131235716Y-60550757D01*
X131176457Y-60771913D01*
X131156502Y-61000000D01*
X131176457Y-61228087D01*
X131177881Y-61233400D01*
X131177881Y-61233402D01*
X131204541Y-61332899D01*
X131202851Y-61403876D01*
X131163057Y-61462671D01*
X131097792Y-61490619D01*
X131082834Y-61491510D01*
X126937166Y-61491510D01*
X126869045Y-61471508D01*
X126822552Y-61417852D01*
X126812448Y-61347578D01*
X126815459Y-61332899D01*
X126842119Y-61233402D01*
X126842119Y-61233400D01*
X126843543Y-61228087D01*
X126863498Y-61000000D01*
X126843543Y-60771913D01*
X126784284Y-60550757D01*
X126781961Y-60545775D01*
X126689849Y-60348238D01*
X126689846Y-60348233D01*
X126687523Y-60343251D01*
X126556198Y-60155700D01*
X126394300Y-59993802D01*
X126389792Y-59990645D01*
X126389789Y-59990643D01*
X126311611Y-59935902D01*
X126206749Y-59862477D01*
X126201767Y-59860154D01*
X126201762Y-59860151D01*
X126004225Y-59768039D01*
X126004224Y-59768039D01*
X125999243Y-59765716D01*
X125993935Y-59764294D01*
X125993933Y-59764293D01*
X125783402Y-59707881D01*
X125783400Y-59707881D01*
X125778087Y-59706457D01*
X125678520Y-59697746D01*
X125609851Y-59691738D01*
X125609844Y-59691738D01*
X125607127Y-59691500D01*
X124792873Y-59691500D01*
X124790156Y-59691738D01*
X124790149Y-59691738D01*
X124721480Y-59697746D01*
X124621913Y-59706457D01*
X124616600Y-59707881D01*
X124616598Y-59707881D01*
X124406067Y-59764293D01*
X124406065Y-59764294D01*
X124400757Y-59765716D01*
X124395776Y-59768039D01*
X124395775Y-59768039D01*
X124198238Y-59860151D01*
X124198233Y-59860154D01*
X124193251Y-59862477D01*
X124088389Y-59935902D01*
X124010211Y-59990643D01*
X124010208Y-59990645D01*
X124005700Y-59993802D01*
X123843802Y-60155700D01*
X123712477Y-60343251D01*
X123710154Y-60348233D01*
X123710151Y-60348238D01*
X123618039Y-60545775D01*
X123615716Y-60550757D01*
X123556457Y-60771913D01*
X123536502Y-61000000D01*
X123556457Y-61228087D01*
X123557881Y-61233400D01*
X123557881Y-61233402D01*
X123565202Y-61260724D01*
X123563512Y-61331700D01*
X123523718Y-61390496D01*
X123458453Y-61418444D01*
X123388440Y-61406670D01*
X123354400Y-61382430D01*
X122794613Y-60822643D01*
X122762001Y-60766159D01*
X122705707Y-60556067D01*
X122705706Y-60556065D01*
X122704284Y-60550757D01*
X122701961Y-60545775D01*
X122609849Y-60348238D01*
X122609846Y-60348233D01*
X122607523Y-60343251D01*
X122476198Y-60155700D01*
X122314300Y-59993802D01*
X122309792Y-59990645D01*
X122309789Y-59990643D01*
X122231611Y-59935902D01*
X122126749Y-59862477D01*
X122121767Y-59860154D01*
X122121762Y-59860151D01*
X121924225Y-59768039D01*
X121924224Y-59768039D01*
X121919243Y-59765716D01*
X121913935Y-59764294D01*
X121913933Y-59764293D01*
X121703402Y-59707881D01*
X121703400Y-59707881D01*
X121698087Y-59706457D01*
X121598520Y-59697746D01*
X121529851Y-59691738D01*
X121529844Y-59691738D01*
X121527127Y-59691500D01*
X120712873Y-59691500D01*
X120710156Y-59691738D01*
X120710149Y-59691738D01*
X120641480Y-59697746D01*
X120541913Y-59706457D01*
X120536600Y-59707881D01*
X120536598Y-59707881D01*
X120326067Y-59764293D01*
X120326065Y-59764294D01*
X120320757Y-59765716D01*
X120315776Y-59768039D01*
X120315775Y-59768039D01*
X120118238Y-59860151D01*
X120118233Y-59860154D01*
X120113251Y-59862477D01*
X120008389Y-59935902D01*
X119930211Y-59990643D01*
X119930208Y-59990645D01*
X119925700Y-59993802D01*
X119763802Y-60155700D01*
X119632477Y-60343251D01*
X119630154Y-60348233D01*
X119630151Y-60348238D01*
X119538039Y-60545775D01*
X119535716Y-60550757D01*
X119476457Y-60771913D01*
X119456502Y-61000000D01*
X119476457Y-61228087D01*
X119477881Y-61233400D01*
X119477881Y-61233402D01*
X119524309Y-61406670D01*
X119535716Y-61449243D01*
X119538039Y-61454224D01*
X119538039Y-61454225D01*
X119630151Y-61651762D01*
X119630154Y-61651767D01*
X119632477Y-61656749D01*
X119763802Y-61844300D01*
X119925700Y-62006198D01*
X119930208Y-62009355D01*
X119930211Y-62009357D01*
X120008389Y-62064098D01*
X120113251Y-62137523D01*
X120118233Y-62139846D01*
X120118238Y-62139849D01*
X120152457Y-62155805D01*
X120205742Y-62202722D01*
X120225203Y-62270999D01*
X120204661Y-62338959D01*
X120152457Y-62384195D01*
X120118238Y-62400151D01*
X120118233Y-62400154D01*
X120113251Y-62402477D01*
X120008389Y-62475902D01*
X119930211Y-62530643D01*
X119930208Y-62530645D01*
X119925700Y-62533802D01*
X119763802Y-62695700D01*
X119635324Y-62879185D01*
X119635323Y-62879186D01*
X119632818Y-62882764D01*
X119632477Y-62883251D01*
X119631782Y-62882764D01*
X119591317Y-62923656D01*
X119586695Y-62925685D01*
X119535998Y-62964587D01*
X119530668Y-62968459D01*
X119484280Y-63000339D01*
X119484275Y-63000344D01*
X119478019Y-63004643D01*
X119472968Y-63010313D01*
X119472966Y-63010314D01*
X119436565Y-63051170D01*
X119431584Y-63056446D01*
X114873359Y-67614671D01*
X114811047Y-67648697D01*
X114740232Y-67643632D01*
X114703440Y-67619987D01*
X114702400Y-67621226D01*
X114698196Y-67617698D01*
X114694300Y-67613802D01*
X114689792Y-67610645D01*
X114689789Y-67610643D01*
X114590817Y-67541342D01*
X114506749Y-67482477D01*
X114501767Y-67480154D01*
X114501762Y-67480151D01*
X114467543Y-67464195D01*
X114414258Y-67417278D01*
X114394797Y-67349001D01*
X114415339Y-67281041D01*
X114467543Y-67235805D01*
X114501762Y-67219849D01*
X114501767Y-67219846D01*
X114506749Y-67217523D01*
X114653447Y-67114804D01*
X114689789Y-67089357D01*
X114689792Y-67089355D01*
X114694300Y-67086198D01*
X114856198Y-66924300D01*
X114987523Y-66736749D01*
X114989846Y-66731767D01*
X114989849Y-66731762D01*
X115081961Y-66534225D01*
X115081961Y-66534224D01*
X115084284Y-66529243D01*
X115093814Y-66493679D01*
X115142119Y-66313402D01*
X115142119Y-66313400D01*
X115143543Y-66308087D01*
X115163498Y-66080000D01*
X115143543Y-65851913D01*
X115084284Y-65630757D01*
X115081961Y-65625775D01*
X114989849Y-65428238D01*
X114989846Y-65428233D01*
X114987523Y-65423251D01*
X114914098Y-65318389D01*
X114859357Y-65240211D01*
X114859355Y-65240208D01*
X114856198Y-65235700D01*
X114694300Y-65073802D01*
X114689792Y-65070645D01*
X114689789Y-65070643D01*
X114611611Y-65015902D01*
X114506749Y-64942477D01*
X114501767Y-64940154D01*
X114501762Y-64940151D01*
X114466951Y-64923919D01*
X114413666Y-64877002D01*
X114394205Y-64808725D01*
X114414747Y-64740765D01*
X114466951Y-64695529D01*
X114501511Y-64679414D01*
X114511007Y-64673931D01*
X114689467Y-64548972D01*
X114697875Y-64541916D01*
X114851916Y-64387875D01*
X114858972Y-64379467D01*
X114983931Y-64201007D01*
X114989414Y-64191511D01*
X115081490Y-63994053D01*
X115085236Y-63983761D01*
X115131394Y-63811497D01*
X115131058Y-63797401D01*
X115123116Y-63794000D01*
X111882033Y-63794000D01*
X111868502Y-63797973D01*
X111867273Y-63806522D01*
X111914764Y-63983761D01*
X111918510Y-63994053D01*
X112010586Y-64191511D01*
X112016069Y-64201007D01*
X112141028Y-64379467D01*
X112148084Y-64387875D01*
X112302125Y-64541916D01*
X112310533Y-64548972D01*
X112488993Y-64673931D01*
X112498489Y-64679414D01*
X112533049Y-64695529D01*
X112586334Y-64742446D01*
X112605795Y-64810723D01*
X112585253Y-64878683D01*
X112533049Y-64923919D01*
X112498238Y-64940151D01*
X112498233Y-64940154D01*
X112493251Y-64942477D01*
X112388389Y-65015902D01*
X112310211Y-65070643D01*
X112310208Y-65070645D01*
X112305700Y-65073802D01*
X112143802Y-65235700D01*
X112140645Y-65240208D01*
X112140643Y-65240211D01*
X112085902Y-65318389D01*
X112012477Y-65423251D01*
X112010154Y-65428233D01*
X112010151Y-65428238D01*
X111918039Y-65625775D01*
X111915716Y-65630757D01*
X111856457Y-65851913D01*
X111836502Y-66080000D01*
X111856457Y-66308087D01*
X111857881Y-66313400D01*
X111857881Y-66313402D01*
X111906187Y-66493679D01*
X111915716Y-66529243D01*
X111918039Y-66534224D01*
X111918039Y-66534225D01*
X112010151Y-66731762D01*
X112010154Y-66731767D01*
X112012477Y-66736749D01*
X112143802Y-66924300D01*
X112305700Y-67086198D01*
X112310208Y-67089355D01*
X112310211Y-67089357D01*
X112346553Y-67114804D01*
X112493251Y-67217523D01*
X112498233Y-67219846D01*
X112498238Y-67219849D01*
X112532457Y-67235805D01*
X112585742Y-67282722D01*
X112605203Y-67350999D01*
X112584661Y-67418959D01*
X112532457Y-67464195D01*
X112498238Y-67480151D01*
X112498233Y-67480154D01*
X112493251Y-67482477D01*
X112409183Y-67541342D01*
X112310211Y-67610643D01*
X112310208Y-67610645D01*
X112305700Y-67613802D01*
X112143802Y-67775700D01*
X112012477Y-67963251D01*
X112010154Y-67968233D01*
X112010151Y-67968238D01*
X111976590Y-68040211D01*
X111915716Y-68170757D01*
X111856457Y-68391913D01*
X111836502Y-68620000D01*
X111856457Y-68848087D01*
X111915716Y-69069243D01*
X111918039Y-69074224D01*
X111918039Y-69074225D01*
X112010151Y-69271762D01*
X112010154Y-69271767D01*
X112012477Y-69276749D01*
X112046382Y-69325170D01*
X112140643Y-69459788D01*
X112143802Y-69464300D01*
X112305700Y-69626198D01*
X112310208Y-69629355D01*
X112310211Y-69629357D01*
X112388389Y-69684098D01*
X112493251Y-69757523D01*
X112498233Y-69759846D01*
X112498238Y-69759849D01*
X112532457Y-69775805D01*
X112585742Y-69822722D01*
X112605203Y-69890999D01*
X112584661Y-69958959D01*
X112532457Y-70004195D01*
X112498238Y-70020151D01*
X112498233Y-70020154D01*
X112493251Y-70022477D01*
X112388389Y-70095902D01*
X112310211Y-70150643D01*
X112310208Y-70150645D01*
X112305700Y-70153802D01*
X112143802Y-70315700D01*
X112012477Y-70503251D01*
X112010154Y-70508233D01*
X112010151Y-70508238D01*
X111918039Y-70705775D01*
X111915716Y-70710757D01*
X111856457Y-70931913D01*
X111836502Y-71160000D01*
X60508500Y-71160000D01*
X60508500Y-61000000D01*
X111836502Y-61000000D01*
X111856457Y-61228087D01*
X111857881Y-61233400D01*
X111857881Y-61233402D01*
X111904309Y-61406670D01*
X111915716Y-61449243D01*
X111918039Y-61454224D01*
X111918039Y-61454225D01*
X112010151Y-61651762D01*
X112010154Y-61651767D01*
X112012477Y-61656749D01*
X112143802Y-61844300D01*
X112305700Y-62006198D01*
X112310208Y-62009355D01*
X112310211Y-62009357D01*
X112388389Y-62064098D01*
X112493251Y-62137523D01*
X112498233Y-62139846D01*
X112498238Y-62139849D01*
X112533049Y-62156081D01*
X112586334Y-62202998D01*
X112605795Y-62271275D01*
X112585253Y-62339235D01*
X112533049Y-62384471D01*
X112498489Y-62400586D01*
X112488993Y-62406069D01*
X112310533Y-62531028D01*
X112302125Y-62538084D01*
X112148084Y-62692125D01*
X112141028Y-62700533D01*
X112016069Y-62878993D01*
X112010586Y-62888489D01*
X111918510Y-63085947D01*
X111914764Y-63096239D01*
X111868606Y-63268503D01*
X111868942Y-63282599D01*
X111876884Y-63286000D01*
X115117967Y-63286000D01*
X115131498Y-63282027D01*
X115132727Y-63273478D01*
X115085236Y-63096239D01*
X115081490Y-63085947D01*
X114989414Y-62888489D01*
X114983931Y-62878993D01*
X114858972Y-62700533D01*
X114851916Y-62692125D01*
X114697875Y-62538084D01*
X114689467Y-62531028D01*
X114511007Y-62406069D01*
X114501511Y-62400586D01*
X114466951Y-62384471D01*
X114413666Y-62337554D01*
X114394205Y-62269277D01*
X114414747Y-62201317D01*
X114466951Y-62156081D01*
X114501762Y-62139849D01*
X114501767Y-62139846D01*
X114506749Y-62137523D01*
X114611611Y-62064098D01*
X114689789Y-62009357D01*
X114689792Y-62009355D01*
X114694300Y-62006198D01*
X114856198Y-61844300D01*
X114987523Y-61656749D01*
X114989846Y-61651767D01*
X114989849Y-61651762D01*
X115081961Y-61454225D01*
X115081961Y-61454224D01*
X115084284Y-61449243D01*
X115095692Y-61406670D01*
X115142119Y-61233402D01*
X115142119Y-61233400D01*
X115143543Y-61228087D01*
X115163498Y-61000000D01*
X115143543Y-60771913D01*
X115084284Y-60550757D01*
X115081961Y-60545775D01*
X114989849Y-60348238D01*
X114989846Y-60348233D01*
X114987523Y-60343251D01*
X114856198Y-60155700D01*
X114694300Y-59993802D01*
X114689792Y-59990645D01*
X114689789Y-59990643D01*
X114611611Y-59935902D01*
X114506749Y-59862477D01*
X114501767Y-59860154D01*
X114501762Y-59860151D01*
X114304225Y-59768039D01*
X114304224Y-59768039D01*
X114299243Y-59765716D01*
X114293935Y-59764294D01*
X114293933Y-59764293D01*
X114083402Y-59707881D01*
X114083400Y-59707881D01*
X114078087Y-59706457D01*
X113978520Y-59697746D01*
X113909851Y-59691738D01*
X113909844Y-59691738D01*
X113907127Y-59691500D01*
X113092873Y-59691500D01*
X113090156Y-59691738D01*
X113090149Y-59691738D01*
X113021480Y-59697746D01*
X112921913Y-59706457D01*
X112916600Y-59707881D01*
X112916598Y-59707881D01*
X112706067Y-59764293D01*
X112706065Y-59764294D01*
X112700757Y-59765716D01*
X112695776Y-59768039D01*
X112695775Y-59768039D01*
X112498238Y-59860151D01*
X112498233Y-59860154D01*
X112493251Y-59862477D01*
X112388389Y-59935902D01*
X112310211Y-59990643D01*
X112310208Y-59990645D01*
X112305700Y-59993802D01*
X112143802Y-60155700D01*
X112012477Y-60343251D01*
X112010154Y-60348233D01*
X112010151Y-60348238D01*
X111918039Y-60545775D01*
X111915716Y-60550757D01*
X111856457Y-60771913D01*
X111836502Y-61000000D01*
X60508500Y-61000000D01*
X60508500Y-47797386D01*
X62567759Y-47797386D01*
X62575216Y-47807753D01*
X62814935Y-48001874D01*
X62820272Y-48005751D01*
X63140685Y-48213830D01*
X63146394Y-48217127D01*
X63486811Y-48390578D01*
X63492836Y-48393260D01*
X63849502Y-48530171D01*
X63855784Y-48532212D01*
X64224816Y-48631094D01*
X64231266Y-48632465D01*
X64608629Y-48692234D01*
X64615167Y-48692920D01*
X64996699Y-48712916D01*
X65003301Y-48712916D01*
X65384833Y-48692920D01*
X65391371Y-48692234D01*
X65768734Y-48632465D01*
X65775184Y-48631094D01*
X66144216Y-48532212D01*
X66150498Y-48530171D01*
X66507164Y-48393260D01*
X66513189Y-48390578D01*
X66853606Y-48217127D01*
X66859315Y-48213830D01*
X67179728Y-48005751D01*
X67185065Y-48001874D01*
X67423835Y-47808522D01*
X67431527Y-47797386D01*
X192567759Y-47797386D01*
X192575216Y-47807753D01*
X192814935Y-48001874D01*
X192820272Y-48005751D01*
X193140685Y-48213830D01*
X193146394Y-48217127D01*
X193486811Y-48390578D01*
X193492836Y-48393260D01*
X193849502Y-48530171D01*
X193855784Y-48532212D01*
X194224816Y-48631094D01*
X194231266Y-48632465D01*
X194608629Y-48692234D01*
X194615167Y-48692920D01*
X194996699Y-48712916D01*
X195003301Y-48712916D01*
X195384833Y-48692920D01*
X195391371Y-48692234D01*
X195768734Y-48632465D01*
X195775184Y-48631094D01*
X196144216Y-48532212D01*
X196150498Y-48530171D01*
X196507164Y-48393260D01*
X196513189Y-48390578D01*
X196853606Y-48217127D01*
X196859315Y-48213830D01*
X197179728Y-48005751D01*
X197185065Y-48001874D01*
X197423835Y-47808522D01*
X197432300Y-47796267D01*
X197425966Y-47785176D01*
X195012812Y-45372022D01*
X194998868Y-45364408D01*
X194997035Y-45364539D01*
X194990420Y-45368790D01*
X192574900Y-47784310D01*
X192567759Y-47797386D01*
X67431527Y-47797386D01*
X67432300Y-47796267D01*
X67425966Y-47785176D01*
X65012812Y-45372022D01*
X64998868Y-45364408D01*
X64997035Y-45364539D01*
X64990420Y-45368790D01*
X62574900Y-47784310D01*
X62567759Y-47797386D01*
X60508500Y-47797386D01*
X60508500Y-45003301D01*
X61287084Y-45003301D01*
X61307080Y-45384833D01*
X61307766Y-45391371D01*
X61367535Y-45768734D01*
X61368906Y-45775184D01*
X61467788Y-46144216D01*
X61469829Y-46150498D01*
X61606740Y-46507164D01*
X61609422Y-46513189D01*
X61782872Y-46853603D01*
X61786169Y-46859313D01*
X61994253Y-47179735D01*
X61998123Y-47185061D01*
X62191478Y-47423835D01*
X62203733Y-47432300D01*
X62214824Y-47425966D01*
X64627978Y-45012812D01*
X64634356Y-45001132D01*
X65364408Y-45001132D01*
X65364539Y-45002965D01*
X65368790Y-45009580D01*
X67784310Y-47425100D01*
X67797386Y-47432241D01*
X67807753Y-47424784D01*
X68001877Y-47185061D01*
X68005747Y-47179735D01*
X68213831Y-46859313D01*
X68217128Y-46853603D01*
X68390578Y-46513189D01*
X68393260Y-46507164D01*
X68530171Y-46150498D01*
X68532212Y-46144216D01*
X68631094Y-45775184D01*
X68632465Y-45768734D01*
X68692234Y-45391371D01*
X68692920Y-45384833D01*
X68712916Y-45003301D01*
X191287084Y-45003301D01*
X191307080Y-45384833D01*
X191307766Y-45391371D01*
X191367535Y-45768734D01*
X191368906Y-45775184D01*
X191467788Y-46144216D01*
X191469829Y-46150498D01*
X191606740Y-46507164D01*
X191609422Y-46513189D01*
X191782872Y-46853603D01*
X191786169Y-46859313D01*
X191994253Y-47179735D01*
X191998123Y-47185061D01*
X192191478Y-47423835D01*
X192203733Y-47432300D01*
X192214824Y-47425966D01*
X194627978Y-45012812D01*
X194634356Y-45001132D01*
X195364408Y-45001132D01*
X195364539Y-45002965D01*
X195368790Y-45009580D01*
X197784310Y-47425100D01*
X197797386Y-47432241D01*
X197807753Y-47424784D01*
X198001877Y-47185061D01*
X198005747Y-47179735D01*
X198213831Y-46859313D01*
X198217128Y-46853603D01*
X198390578Y-46513189D01*
X198393260Y-46507164D01*
X198530171Y-46150498D01*
X198532212Y-46144216D01*
X198631094Y-45775184D01*
X198632465Y-45768734D01*
X198692234Y-45391371D01*
X198692920Y-45384833D01*
X198712916Y-45003301D01*
X198712916Y-44996699D01*
X198692920Y-44615167D01*
X198692234Y-44608629D01*
X198632465Y-44231266D01*
X198631094Y-44224816D01*
X198532212Y-43855784D01*
X198530171Y-43849502D01*
X198393260Y-43492836D01*
X198390578Y-43486811D01*
X198217128Y-43146397D01*
X198213831Y-43140687D01*
X198005747Y-42820265D01*
X198001877Y-42814939D01*
X197808522Y-42576165D01*
X197796267Y-42567700D01*
X197785176Y-42574034D01*
X195372022Y-44987188D01*
X195364408Y-45001132D01*
X194634356Y-45001132D01*
X194635592Y-44998868D01*
X194635461Y-44997035D01*
X194631210Y-44990420D01*
X192215690Y-42574900D01*
X192202614Y-42567759D01*
X192192247Y-42575216D01*
X191998123Y-42814939D01*
X191994253Y-42820265D01*
X191786169Y-43140687D01*
X191782872Y-43146397D01*
X191609422Y-43486811D01*
X191606740Y-43492836D01*
X191469829Y-43849502D01*
X191467788Y-43855784D01*
X191368906Y-44224816D01*
X191367535Y-44231266D01*
X191307766Y-44608629D01*
X191307080Y-44615167D01*
X191287084Y-44996699D01*
X191287084Y-45003301D01*
X68712916Y-45003301D01*
X68712916Y-44996699D01*
X68692920Y-44615167D01*
X68692234Y-44608629D01*
X68632465Y-44231266D01*
X68631094Y-44224816D01*
X68532212Y-43855784D01*
X68530171Y-43849502D01*
X68393260Y-43492836D01*
X68390578Y-43486811D01*
X68217128Y-43146397D01*
X68213831Y-43140687D01*
X68005747Y-42820265D01*
X68001877Y-42814939D01*
X67808522Y-42576165D01*
X67796267Y-42567700D01*
X67785176Y-42574034D01*
X65372022Y-44987188D01*
X65364408Y-45001132D01*
X64634356Y-45001132D01*
X64635592Y-44998868D01*
X64635461Y-44997035D01*
X64631210Y-44990420D01*
X62215690Y-42574900D01*
X62202614Y-42567759D01*
X62192247Y-42575216D01*
X61998123Y-42814939D01*
X61994253Y-42820265D01*
X61786169Y-43140687D01*
X61782872Y-43146397D01*
X61609422Y-43486811D01*
X61606740Y-43492836D01*
X61469829Y-43849502D01*
X61467788Y-43855784D01*
X61368906Y-44224816D01*
X61367535Y-44231266D01*
X61307766Y-44608629D01*
X61307080Y-44615167D01*
X61287084Y-44996699D01*
X61287084Y-45003301D01*
X60508500Y-45003301D01*
X60508500Y-42203733D01*
X62567700Y-42203733D01*
X62574034Y-42214824D01*
X64987188Y-44627978D01*
X65001132Y-44635592D01*
X65002965Y-44635461D01*
X65009580Y-44631210D01*
X67425100Y-42215690D01*
X67431630Y-42203733D01*
X192567700Y-42203733D01*
X192574034Y-42214824D01*
X194987188Y-44627978D01*
X195001132Y-44635592D01*
X195002965Y-44635461D01*
X195009580Y-44631210D01*
X197425100Y-42215690D01*
X197432241Y-42202614D01*
X197424784Y-42192247D01*
X197185065Y-41998126D01*
X197179728Y-41994249D01*
X196859315Y-41786170D01*
X196853606Y-41782873D01*
X196513189Y-41609422D01*
X196507164Y-41606740D01*
X196150498Y-41469829D01*
X196144216Y-41467788D01*
X195775184Y-41368906D01*
X195768734Y-41367535D01*
X195391371Y-41307766D01*
X195384833Y-41307080D01*
X195003301Y-41287084D01*
X194996699Y-41287084D01*
X194615167Y-41307080D01*
X194608629Y-41307766D01*
X194231266Y-41367535D01*
X194224816Y-41368906D01*
X193855784Y-41467788D01*
X193849502Y-41469829D01*
X193492836Y-41606740D01*
X193486811Y-41609422D01*
X193146397Y-41782872D01*
X193140687Y-41786169D01*
X192820265Y-41994253D01*
X192814939Y-41998123D01*
X192576165Y-42191478D01*
X192567700Y-42203733D01*
X67431630Y-42203733D01*
X67432241Y-42202614D01*
X67424784Y-42192247D01*
X67185065Y-41998126D01*
X67179728Y-41994249D01*
X66859315Y-41786170D01*
X66853606Y-41782873D01*
X66513189Y-41609422D01*
X66507164Y-41606740D01*
X66150498Y-41469829D01*
X66144216Y-41467788D01*
X65775184Y-41368906D01*
X65768734Y-41367535D01*
X65391371Y-41307766D01*
X65384833Y-41307080D01*
X65003301Y-41287084D01*
X64996699Y-41287084D01*
X64615167Y-41307080D01*
X64608629Y-41307766D01*
X64231266Y-41367535D01*
X64224816Y-41368906D01*
X63855784Y-41467788D01*
X63849502Y-41469829D01*
X63492836Y-41606740D01*
X63486811Y-41609422D01*
X63146397Y-41782872D01*
X63140687Y-41786169D01*
X62820265Y-41994253D01*
X62814939Y-41998123D01*
X62576165Y-42191478D01*
X62567700Y-42203733D01*
X60508500Y-42203733D01*
X60508500Y-40634500D01*
X60528502Y-40566379D01*
X60582158Y-40519886D01*
X60634500Y-40508500D01*
X199365500Y-40508500D01*
X199433621Y-40528502D01*
G37*
%TD.AperFunction*%
%TD*%
M02*
