M48
; DRILL file {KiCad (5.1.10-1-10_14)} date Sunday, July 04, 2021 at 08:15:45 AM
; FORMAT={-:-/ absolute / inch / decimal}
; #@! TF.CreationDate,2021-07-04T08:15:45+10:00
; #@! TF.GenerationSoftware,Kicad,Pcbnew,(5.1.10-1-10_14)
; #@! TF.FileFunction,Plated,1,2,PTH
FMAT,2
INCH
T1C0.0276
T2C0.0315
T3C0.0394
T4C0.1260
%
G90
G05
T1
X2.425Y-2.075
X2.475Y-1.975
X2.6Y-1.3707
X2.7Y-1.325
X2.7Y-1.65
X2.7Y-1.925
X2.7Y-2.225
X2.8Y-1.65
X2.8Y-1.925
X2.8Y-2.125
X2.9Y-1.65
X2.9Y-1.925
X2.9Y-2.025
X2.95Y-1.975
X3.099Y-1.1921
X3.2Y-1.275
X3.2646Y-1.8732
X3.3Y-1.5
X3.375Y-1.325
X3.3768Y-1.8732
X3.45Y-1.325
X3.6Y-1.325
X3.6Y-2.325
X3.7482Y-1.9732
X3.75Y-1.3707
X3.925Y-2.375
X4.1Y-1.3707
X4.425Y-1.275
X4.425Y-1.2
X4.45Y-1.3707
T2
X0.8331Y-6.1
X0.9181Y-4.64
X0.9306Y-6.225
X1.01Y-5.1
X1.03Y-6.1
X1.035Y-3.675
X1.0866Y-6.375
X1.115Y-4.64
X1.15Y-2.65
X1.1625Y-2.3775
X1.175Y-4.8
X1.175Y-5.2
X1.2205Y-1.4528
X1.2426Y-6.3
X1.275Y-3.9606
X1.275Y-4.3606
X1.2874Y-1.3583
X1.29Y-5.2
X1.34Y-6.56
X1.3594Y-2.3775
X1.375Y-1.5321
X1.375Y-6.1
X1.475Y-2.375
X1.475Y-4.575
X1.4764Y-1.6732
X1.4764Y-1.7732
X1.4764Y-1.8732
X1.4764Y-1.9732
X1.4764Y-2.0732
X1.4764Y-2.1732
X1.4764Y-2.2732
X1.4764Y-3.7598
X1.4764Y-3.8598
X1.4764Y-3.9598
X1.4764Y-4.0598
X1.4764Y-4.1598
X1.4764Y-4.2598
X1.4764Y-4.3598
X1.4764Y-5.315
X1.4764Y-5.415
X1.4764Y-5.515
X1.4764Y-5.615
X1.4764Y-5.715
X1.4764Y-5.815
X1.4764Y-5.915
X1.49Y-3.325
X1.495Y-5.2
X1.525Y-5.025
X1.5978Y-3.225
X1.675Y-4.925
X1.77Y-3.575
X1.775Y-5.2
X1.7751Y-3.6751
X1.7764Y-1.6732
X1.7764Y-1.7732
X1.7764Y-1.8732
X1.7764Y-1.9732
X1.7764Y-2.0732
X1.7764Y-2.1732
X1.7764Y-2.2732
X1.7764Y-3.7598
X1.7764Y-3.8598
X1.7764Y-3.9598
X1.7764Y-4.0598
X1.7764Y-4.1598
X1.7764Y-4.2598
X1.7764Y-4.3598
X1.7764Y-5.315
X1.7764Y-5.415
X1.7764Y-5.515
X1.7764Y-5.615
X1.7764Y-5.715
X1.7764Y-5.815
X1.7764Y-5.915
X1.8Y-4.75
X1.8Y-1.575
X1.825Y-4.85
X1.9Y-2.95
X1.975Y-2.875
X2.0Y-4.35
X2.0096Y-4.1654
X2.0472Y-3.4882
X2.05Y-2.8
X2.0669Y-3.9528
X2.075Y-4.275
X2.075Y-4.675
X2.1492Y-3.85
X2.35Y-4.45
X2.65Y-4.275
X2.7Y-3.675
X2.75Y-4.45
X2.875Y-6.56
X2.9Y-5.1
X2.975Y-2.375
X3.0Y-5.2
X3.025Y-4.1654
X3.025Y-4.35
X3.0348Y-3.9598
X3.05Y-3.85
X3.05Y-6.225
X3.05Y-6.525
X3.125Y-6.6
X3.1496Y-1.6732
X3.1496Y-1.7732
X3.1496Y-1.8732
X3.1496Y-1.9732
X3.1496Y-2.0732
X3.1496Y-2.1732
X3.1496Y-2.2732
X3.1496Y-2.3732
X3.1496Y-3.7598
X3.1496Y-3.8598
X3.1496Y-3.9598
X3.1496Y-4.0598
X3.1496Y-4.1598
X3.1496Y-4.2598
X3.1496Y-4.3598
X3.1496Y-4.4598
X3.1496Y-5.315
X3.1496Y-5.415
X3.1496Y-5.515
X3.1496Y-5.615
X3.1496Y-5.715
X3.1496Y-5.815
X3.1496Y-5.915
X3.1496Y-6.015
X3.15Y-2.475
X3.15Y-5.025
X3.15Y-6.215
X3.28Y-3.58
X3.3543Y-3.5
X3.375Y-6.45
X3.425Y-3.225
X3.425Y-4.575
X3.4496Y-1.6732
X3.4496Y-1.7732
X3.4496Y-1.8732
X3.4496Y-1.9732
X3.4496Y-2.0732
X3.4496Y-2.1732
X3.4496Y-2.2732
X3.4496Y-2.3732
X3.4496Y-3.7598
X3.4496Y-3.8598
X3.4496Y-3.9598
X3.4496Y-4.0598
X3.4496Y-4.1598
X3.4496Y-4.2598
X3.4496Y-4.3598
X3.4496Y-4.4598
X3.4496Y-5.315
X3.4496Y-5.415
X3.4496Y-5.515
X3.4496Y-5.615
X3.4496Y-5.715
X3.4496Y-5.815
X3.4496Y-5.915
X3.4496Y-6.015
X3.45Y-1.59
X3.45Y-2.875
X3.475Y-6.3
X3.625Y-5.3
X3.625Y-6.0134
X3.65Y-6.375
X3.7Y-3.775
X3.7Y-4.45
X3.75Y-5.725
X3.75Y-5.825
X3.775Y-6.375
X3.825Y-4.85
X3.9094Y-6.2992
X3.925Y-3.8
X3.925Y-4.35
X4.025Y-2.575
X4.025Y-5.725
X4.025Y-5.825
X4.05Y-4.75
X4.075Y-4.925
X4.1Y-5.4
X4.1Y-5.9
X4.125Y-2.65
X4.15Y-6.1
X4.25Y-4.575
X4.25Y-6.125
X4.2717Y-1.6732
X4.2717Y-1.7732
X4.2717Y-1.8732
X4.2717Y-1.9732
X4.2717Y-2.0732
X4.2717Y-2.1732
X4.2717Y-2.2732
X4.2717Y-2.3732
X4.2717Y-3.7598
X4.2717Y-3.8598
X4.2717Y-3.9598
X4.2717Y-4.0598
X4.2717Y-4.1598
X4.2717Y-4.2598
X4.2717Y-4.3598
X4.2717Y-5.315
X4.2717Y-5.415
X4.2717Y-5.515
X4.2717Y-5.615
X4.2717Y-5.715
X4.2717Y-5.815
X4.2717Y-5.915
X4.275Y-2.475
X4.275Y-3.575
X4.425Y-5.025
X4.45Y-3.25
X4.5Y-6.375
X4.525Y-6.6
X4.55Y-6.45
X4.5717Y-1.6732
X4.5717Y-1.7732
X4.5717Y-1.8732
X4.5717Y-1.9732
X4.5717Y-2.0732
X4.5717Y-2.1732
X4.5717Y-2.2732
X4.5717Y-2.3732
X4.5717Y-3.7598
X4.5717Y-3.8598
X4.5717Y-3.9598
X4.5717Y-4.0598
X4.5717Y-4.1598
X4.5717Y-4.2598
X4.5717Y-4.3598
X4.5717Y-4.4783
X4.5717Y-5.315
X4.5717Y-5.415
X4.5717Y-5.515
X4.5717Y-5.615
X4.5717Y-5.715
X4.5717Y-5.815
X4.5717Y-5.915
X4.575Y-2.8
X4.575Y-3.675
X4.575Y-1.575
X4.6Y-5.2
X4.675Y-4.85
X4.7Y-2.8
X4.75Y-5.925
X4.9Y-4.675
X4.9685Y-6.4488
X5.075Y-2.875
X5.275Y-1.875
X5.275Y-5.425
X5.275Y-5.6
X5.375Y-6.125
X5.4291Y-3.1142
X5.43Y-4.575
X5.4331Y-1.6732
X5.4331Y-1.7732
X5.4331Y-1.8732
X5.4331Y-1.9732
X5.4331Y-2.0732
X5.4331Y-2.1732
X5.4331Y-2.2732
X5.4331Y-3.7598
X5.4331Y-3.8598
X5.4331Y-3.9598
X5.4331Y-4.0598
X5.4331Y-4.1598
X5.4331Y-4.2598
X5.4331Y-4.3598
X5.4331Y-5.315
X5.4331Y-5.415
X5.4331Y-5.515
X5.4331Y-5.615
X5.4331Y-5.715
X5.4331Y-5.815
X5.4331Y-5.915
X5.4331Y-6.015
X5.475Y-5.1
X5.55Y-2.95
X5.6Y-2.475
X5.625Y-3.025
X5.7331Y-1.6732
X5.7331Y-1.7732
X5.7331Y-1.8732
X5.7331Y-1.9732
X5.7331Y-2.0732
X5.7331Y-2.1732
X5.7331Y-2.2732
X5.7331Y-3.7598
X5.7331Y-3.8598
X5.7331Y-3.9598
X5.7331Y-4.0598
X5.7331Y-4.1598
X5.7331Y-4.2598
X5.7331Y-4.3598
X5.7331Y-5.315
X5.7331Y-5.415
X5.7331Y-5.515
X5.7331Y-5.615
X5.7331Y-5.715
X5.7331Y-5.815
X5.7331Y-5.915
X5.7331Y-6.015
X5.755Y-3.675
X5.775Y-5.2
X5.8Y-2.725
X5.8189Y-1.4528
X5.875Y-1.8835
X5.875Y-2.2835
X5.925Y-2.475
X6.0Y-1.8835
X6.0Y-2.2835
X6.025Y-6.45
X6.1417Y-1.6732
X6.1417Y-1.7732
X6.1417Y-1.8732
X6.1417Y-1.9732
X6.1417Y-2.0732
X6.1417Y-2.1732
X6.1417Y-2.2732
X6.15Y-2.475
X6.225Y-2.725
X6.225Y-6.525
X6.25Y-4.675
X6.275Y-4.475
X6.3Y-2.875
X6.375Y-4.9
X6.4417Y-1.6732
X6.4417Y-1.7732
X6.4417Y-1.8732
X6.4417Y-1.9732
X6.4417Y-2.0732
X6.4417Y-2.1732
X6.4417Y-2.2732
X6.4565Y-1.575
X6.475Y-2.875
X6.5Y-4.05
X6.55Y-2.475
X6.5512Y-4.752
X6.5748Y-1.8835
X6.5748Y-2.2835
X6.575Y-3.25
X6.625Y-2.725
X6.625Y-5.325
X6.6929Y-3.1102
X6.725Y-3.575
X6.725Y-5.4
X6.725Y-5.8
X6.75Y-4.05
X6.7854Y-2.95
X6.85Y-2.575
X6.925Y-6.125
X6.925Y-6.525
X6.9488Y-1.6732
X6.9488Y-1.7732
X6.9488Y-1.8732
X6.9488Y-1.9732
X6.9488Y-2.0732
X6.9488Y-2.1732
X6.9488Y-2.2732
X6.9488Y-3.7598
X6.9488Y-3.8598
X6.9488Y-3.9598
X6.9488Y-4.0598
X6.9488Y-4.1598
X6.9488Y-4.2598
X6.9488Y-4.3598
X6.9488Y-5.315
X6.9488Y-5.415
X6.9488Y-5.515
X6.9488Y-5.615
X6.9488Y-5.715
X6.9488Y-5.815
X6.9488Y-5.915
X6.95Y-4.575
X6.95Y-4.975
X6.958Y-6.008
X7.0368Y-2.475
X7.2488Y-1.6732
X7.2488Y-1.7732
X7.2488Y-1.8732
X7.2488Y-1.9732
X7.2488Y-2.0732
X7.2488Y-2.1732
X7.2488Y-2.2732
X7.2488Y-3.7598
X7.2488Y-3.8598
X7.2488Y-3.9598
X7.2488Y-4.0598
X7.2488Y-4.1598
X7.2488Y-4.2598
X7.2488Y-4.3598
X7.2488Y-5.315
X7.2488Y-5.415
X7.2488Y-5.515
X7.2488Y-5.615
X7.2488Y-5.715
X7.2488Y-5.815
X7.2488Y-5.915
X7.25Y-3.675
X7.25Y-5.075
X7.25Y-5.2
X7.25Y-6.45
X7.2561Y-1.575
X7.325Y-6.525
X7.35Y-2.875
X7.35Y-5.425
X7.425Y-4.825
X7.425Y-6.1
X7.5Y-4.75
X7.575Y-6.525
X7.7Y-3.775
X7.7Y-4.475
X7.75Y-2.875
X7.8489Y-4.6679
X7.85Y-3.325
X7.85Y-3.775
X7.85Y-4.475
X7.925Y-3.025
X8.089Y-4.9
X8.1Y-5.425
X8.1102Y-6.2953
X8.175Y-5.8125
X8.1821Y-5.1994
X8.22Y-2.475
X8.2597Y-6.008
X8.2677Y-1.6732
X8.2677Y-1.7732
X8.2677Y-1.8732
X8.2677Y-1.9732
X8.2677Y-2.0732
X8.2677Y-2.1732
X8.2677Y-2.2732
X8.2677Y-3.7598
X8.2677Y-3.8598
X8.2677Y-3.9598
X8.2677Y-4.0598
X8.2677Y-4.1598
X8.2677Y-4.2598
X8.2677Y-4.3598
X8.2677Y-5.315
X8.2677Y-5.415
X8.2677Y-5.515
X8.2677Y-5.615
X8.2677Y-5.715
X8.2677Y-5.815
X8.2677Y-5.915
X8.27Y-4.575
X8.275Y-3.5
X8.275Y-6.215
X8.4Y-2.875
X8.525Y-2.65
X8.5669Y-4.752
X8.5677Y-1.6732
X8.5677Y-1.7732
X8.5677Y-1.8732
X8.5677Y-1.9732
X8.5677Y-2.0732
X8.5677Y-2.1732
X8.5677Y-2.2732
X8.5677Y-3.7598
X8.5677Y-3.8598
X8.5677Y-3.9598
X8.5677Y-4.0598
X8.5677Y-4.1598
X8.5677Y-4.2598
X8.5677Y-4.3598
X8.5677Y-5.315
X8.5677Y-5.415
X8.5677Y-5.515
X8.5677Y-5.615
X8.5677Y-5.715
X8.5677Y-5.815
X8.5677Y-5.915
X8.5713Y-1.5787
X8.575Y-4.975
X8.58Y-3.675
X8.605Y-5.075
X8.6252Y-2.8
X8.6378Y-4.8268
X8.675Y-6.1
X8.725Y-2.875
X8.875Y-2.875
X8.875Y-6.525
X8.975Y-2.475
X8.975Y-4.575
X9.085Y-2.37
X9.1025Y-5.6025
X9.117Y-4.583
X9.117Y-6.008
X9.273Y-5.073
X9.275Y-1.575
X9.275Y-3.675
X9.2819Y-2.37
X9.2994Y-5.6025
T3
X1.1Y-4.075
X1.1Y-4.3094
X2.2Y-1.0
X2.2Y-1.1
X2.3Y-1.0
X2.3Y-1.1
X2.4Y-1.0
X2.4Y-1.1
X2.5Y-1.0
X2.5Y-1.1
X2.6Y-1.0
X2.6Y-1.1
X2.7Y-1.0
X2.7Y-1.1
X2.8Y-1.0
X2.8Y-1.1
X2.9Y-1.0
X2.9Y-1.1
X3.0Y-1.0
X3.0Y-1.1
X3.1Y-1.0
X3.1Y-1.1
X3.2Y-1.0
X3.2Y-1.1
X3.3Y-1.0
X3.3Y-1.1
X3.4Y-1.0
X3.4Y-1.1
X3.5Y-1.0
X3.5Y-1.1
X3.6Y-1.0
X3.6Y-1.1
X3.7Y-1.0
X3.7Y-1.1
X3.8Y-1.0
X3.8Y-1.1
X3.9Y-1.0
X3.9Y-1.1
X4.0Y-1.0
X4.0Y-1.1
X4.1Y-1.0
X4.1Y-1.1
X4.9Y-1.2
X5.1Y-1.2
X5.3Y-1.2
X6.825Y-4.1535
T4
X0.9646Y-0.9055
X4.5079Y-0.9055
X5.689Y-0.9055
X9.2323Y-0.9055
T0
M30
