%TF.GenerationSoftware,KiCad,Pcbnew,(5.1.10-1-10_14)*%
%TF.CreationDate,2021-07-04T08:15:42+10:00*%
%TF.ProjectId,256 word memory_2.0,32353620-776f-4726-9420-6d656d6f7279,rev?*%
%TF.SameCoordinates,Original*%
%TF.FileFunction,Copper,L1,Top*%
%TF.FilePolarity,Positive*%
%FSLAX46Y46*%
G04 Gerber Fmt 4.6, Leading zero omitted, Abs format (unit mm)*
G04 Created by KiCad (PCBNEW (5.1.10-1-10_14)) date 2021-07-04 08:15:42*
%MOMM*%
%LPD*%
G01*
G04 APERTURE LIST*
%TA.AperFunction,ComponentPad*%
%ADD10C,1.700000*%
%TD*%
%TA.AperFunction,ComponentPad*%
%ADD11C,2.000000*%
%TD*%
%TA.AperFunction,ComponentPad*%
%ADD12C,5.000000*%
%TD*%
%TA.AperFunction,ComponentPad*%
%ADD13R,1.700000X1.700000*%
%TD*%
%TA.AperFunction,ComponentPad*%
%ADD14C,1.600000*%
%TD*%
%TA.AperFunction,ComponentPad*%
%ADD15O,1.600000X1.600000*%
%TD*%
%TA.AperFunction,ComponentPad*%
%ADD16R,1.600000X1.600000*%
%TD*%
%TA.AperFunction,ViaPad*%
%ADD17C,2.000000*%
%TD*%
%TA.AperFunction,ViaPad*%
%ADD18C,1.270000*%
%TD*%
%TA.AperFunction,Conductor*%
%ADD19C,0.300000*%
%TD*%
%TA.AperFunction,Conductor*%
%ADD20C,0.500000*%
%TD*%
%TA.AperFunction,Conductor*%
%ADD21C,2.000000*%
%TD*%
G04 APERTURE END LIST*
D10*
%TO.P,J9,40*%
%TO.N,Net-(J9-Pad40)*%
X55880000Y-27940000D03*
%TO.P,J9,38*%
%TO.N,MA_A*%
X58420000Y-27940000D03*
%TO.P,J9,36*%
%TO.N,MA_B*%
X60960000Y-27940000D03*
%TO.P,J9,34*%
%TO.N,MA_C*%
X63500000Y-27940000D03*
%TO.P,J9,32*%
%TO.N,MA0*%
X66040000Y-27940000D03*
%TO.P,J9,30*%
%TO.N,MA1*%
X68580000Y-27940000D03*
%TO.P,J9,28*%
%TO.N,MA2*%
X71120000Y-27940000D03*
%TO.P,J9,26*%
%TO.N,MA3*%
X73660000Y-27940000D03*
%TO.P,J9,24*%
%TO.N,MA4*%
X76200000Y-27940000D03*
%TO.P,J9,22*%
%TO.N,MA5*%
X78740000Y-27940000D03*
%TO.P,J9,20*%
%TO.N,MA6*%
X81280000Y-27940000D03*
%TO.P,J9,18*%
%TO.N,MA7*%
X83820000Y-27940000D03*
%TO.P,J9,16*%
%TO.N,D-IN*%
X86360000Y-27940000D03*
%TO.P,J9,14*%
%TO.N,D-BUS*%
X88900000Y-27940000D03*
%TO.P,J9,12*%
%TO.N,~CS_H*%
X91440000Y-27940000D03*
%TO.P,J9,10*%
%TO.N,~CS_L*%
X93980000Y-27940000D03*
%TO.P,J9,8*%
%TO.N,~WE*%
X96520000Y-27940000D03*
%TO.P,J9,6*%
%TO.N,+5V*%
X99060000Y-27940000D03*
%TO.P,J9,4*%
X101600000Y-27940000D03*
%TO.P,J9,2*%
X104140000Y-27940000D03*
%TO.P,J9,39*%
%TO.N,GND*%
X55880000Y-25400000D03*
%TO.P,J9,37*%
X58420000Y-25400000D03*
%TO.P,J9,35*%
X60960000Y-25400000D03*
%TO.P,J9,33*%
X63500000Y-25400000D03*
%TO.P,J9,31*%
X66040000Y-25400000D03*
%TO.P,J9,29*%
X68580000Y-25400000D03*
%TO.P,J9,27*%
X71120000Y-25400000D03*
%TO.P,J9,25*%
X73660000Y-25400000D03*
%TO.P,J9,23*%
X76200000Y-25400000D03*
%TO.P,J9,21*%
X78740000Y-25400000D03*
%TO.P,J9,19*%
X81280000Y-25400000D03*
%TO.P,J9,17*%
X83820000Y-25400000D03*
%TO.P,J9,15*%
X86360000Y-25400000D03*
%TO.P,J9,13*%
X88900000Y-25400000D03*
%TO.P,J9,11*%
X91440000Y-25400000D03*
%TO.P,J9,9*%
X93980000Y-25400000D03*
%TO.P,J9,7*%
X96520000Y-25400000D03*
%TO.P,J9,5*%
X99060000Y-25400000D03*
%TO.P,J9,3*%
X101600000Y-25400000D03*
%TO.P,J9,1*%
%TA.AperFunction,ComponentPad*%
G36*
G01*
X103540000Y-24550000D02*
X104740000Y-24550000D01*
G75*
G02*
X104990000Y-24800000I0J-250000D01*
G01*
X104990000Y-26000000D01*
G75*
G02*
X104740000Y-26250000I-250000J0D01*
G01*
X103540000Y-26250000D01*
G75*
G02*
X103290000Y-26000000I0J250000D01*
G01*
X103290000Y-24800000D01*
G75*
G02*
X103540000Y-24550000I250000J0D01*
G01*
G37*
%TD.AperFunction*%
%TD*%
D11*
%TO.P,J3,1*%
%TO.N,MCP*%
X173355000Y-105500000D03*
%TD*%
D12*
%TO.P,H2,1*%
%TO.N,GND*%
X234500000Y-23000000D03*
X144500000Y-23000000D03*
%TD*%
%TO.P,H1,1*%
%TO.N,GND*%
X114500000Y-23000000D03*
X24500000Y-23000000D03*
%TD*%
D13*
%TO.P,J8,1*%
%TO.N,MA6*%
X129540000Y-30480000D03*
%TD*%
%TO.P,J7,1*%
%TO.N,MA5*%
X124460000Y-30480000D03*
%TD*%
%TO.P,J6,1*%
%TO.N,~MA7*%
X134620000Y-30480000D03*
%TD*%
%TO.P,J5,1*%
%TO.N,PC7*%
X27940000Y-109460000D03*
%TD*%
%TO.P,J4,1*%
%TO.N,~PC7*%
X27940000Y-103505000D03*
%TD*%
D14*
%TO.P,C5,2*%
%TO.N,GND*%
X236203500Y-142303500D03*
%TO.P,C5,1*%
%TO.N,+5V*%
X231203500Y-142303500D03*
%TD*%
%TO.P,C4,2*%
%TO.N,GND*%
X21162000Y-154940000D03*
%TO.P,C4,1*%
%TO.N,+5V*%
X26162000Y-154940000D03*
%TD*%
%TO.P,C3,2*%
%TO.N,GND*%
X23321000Y-117856000D03*
%TO.P,C3,1*%
%TO.N,+5V*%
X28321000Y-117856000D03*
%TD*%
%TO.P,C2,2*%
%TO.N,GND*%
X235759000Y-60198000D03*
%TO.P,C2,1*%
%TO.N,+5V*%
X230759000Y-60198000D03*
%TD*%
%TO.P,C1,2*%
%TO.N,GND*%
X29527500Y-60388500D03*
%TO.P,C1,1*%
%TO.N,+5V*%
X34527500Y-60388500D03*
%TD*%
D15*
%TO.P,U17,14*%
%TO.N,+5V*%
X176500000Y-150240000D03*
%TO.P,U17,7*%
%TO.N,GND*%
X184120000Y-135000000D03*
%TO.P,U17,13*%
%TO.N,~T14-21(JMS+JMP)*%
X176500000Y-147700000D03*
%TO.P,U17,6*%
%TO.N,Net-(U17-Pad6)*%
X184120000Y-137540000D03*
%TO.P,U17,12*%
%TO.N,Net-(U17-Pad12)*%
X176500000Y-145160000D03*
%TO.P,U17,5*%
%TO.N,Net-(U12-Pad3)*%
X184120000Y-140080000D03*
%TO.P,U17,11*%
%TO.N,~DEP*%
X176500000Y-142620000D03*
%TO.P,U17,4*%
%TO.N,Net-(U17-Pad4)*%
X184120000Y-142620000D03*
%TO.P,U17,10*%
%TO.N,Net-(U10-Pad5)*%
X176500000Y-140080000D03*
%TO.P,U17,3*%
%TO.N,OPR+IOT*%
X184120000Y-145160000D03*
%TO.P,U17,9*%
%TO.N,Net-(U11-Pad11)*%
X176500000Y-137540000D03*
%TO.P,U17,2*%
%TO.N,Net-(U17-Pad2)*%
X184120000Y-147700000D03*
%TO.P,U17,8*%
%TO.N,/WEIRD.NET*%
X176500000Y-135000000D03*
D16*
%TO.P,U17,1*%
%TO.N,~T2-9.ISZ*%
X184120000Y-150240000D03*
%TD*%
D15*
%TO.P,U6,14*%
%TO.N,+5V*%
X210000000Y-57740000D03*
%TO.P,U6,7*%
%TO.N,GND*%
X217620000Y-42500000D03*
%TO.P,U6,13*%
%TO.N,Net-(U17-Pad4)*%
X210000000Y-55200000D03*
%TO.P,U6,6*%
%TO.N,Net-(U1-Pad12)*%
X217620000Y-45040000D03*
%TO.P,U6,12*%
%TO.N,~F+D+E*%
X210000000Y-52660000D03*
%TO.P,U6,5*%
%TO.N,Net-(U6-Pad5)*%
X217620000Y-47580000D03*
%TO.P,U6,11*%
%TO.N,Net-(U6-Pad10)*%
X210000000Y-50120000D03*
%TO.P,U6,4*%
%TO.N,T1*%
X217620000Y-50120000D03*
%TO.P,U6,10*%
%TO.N,Net-(U6-Pad10)*%
X210000000Y-47580000D03*
%TO.P,U6,3*%
%TO.N,Net-(U12-Pad2)*%
X217620000Y-52660000D03*
%TO.P,U6,9*%
%TO.N,Net-(U6-Pad10)*%
X210000000Y-45040000D03*
%TO.P,U6,2*%
%TO.N,Net-(U5-Pad6)*%
X217620000Y-55200000D03*
%TO.P,U6,8*%
%TO.N,Net-(U6-Pad5)*%
X210000000Y-42500000D03*
D16*
%TO.P,U6,1*%
%TO.N,Net-(U5-Pad6)*%
X217620000Y-57740000D03*
%TD*%
D15*
%TO.P,U5,14*%
%TO.N,+5V*%
X176500000Y-57740000D03*
%TO.P,U5,7*%
%TO.N,GND*%
X184120000Y-42500000D03*
%TO.P,U5,13*%
%TO.N,Net-(U12-Pad10)*%
X176500000Y-55200000D03*
%TO.P,U5,6*%
%TO.N,Net-(U5-Pad6)*%
X184120000Y-45040000D03*
%TO.P,U5,12*%
%TO.N,Net-(U5-Pad12)*%
X176500000Y-52660000D03*
%TO.P,U5,5*%
%TO.N,MEMORY_ENABLE*%
X184120000Y-47580000D03*
%TO.P,U5,11*%
%TO.N,Net-(U11-Pad9)*%
X176500000Y-50120000D03*
%TO.P,U5,4*%
%TO.N,Net-(U5-Pad4)*%
X184120000Y-50120000D03*
%TO.P,U5,10*%
%TO.N,Net-(U11-Pad9)*%
X176500000Y-47580000D03*
%TO.P,U5,3*%
%TO.N,Net-(U5-Pad12)*%
X184120000Y-52660000D03*
%TO.P,U5,9*%
%TO.N,Net-(U11-Pad9)*%
X176500000Y-45040000D03*
%TO.P,U5,2*%
%TO.N,T2-9*%
X184120000Y-55200000D03*
%TO.P,U5,8*%
%TO.N,Net-(U5-Pad4)*%
X176500000Y-42500000D03*
D16*
%TO.P,U5,1*%
%TO.N,JMS+DCA*%
X184120000Y-57740000D03*
%TD*%
D15*
%TO.P,U10,14*%
%TO.N,+5V*%
X138000000Y-110740000D03*
%TO.P,U10,7*%
%TO.N,GND*%
X145620000Y-95500000D03*
%TO.P,U10,13*%
%TO.N,~F.23.OPR+IOT*%
X138000000Y-108200000D03*
%TO.P,U10,6*%
%TO.N,Net-(U10-Pad10)*%
X145620000Y-98040000D03*
%TO.P,U10,12*%
X138000000Y-105660000D03*
%TO.P,U10,5*%
%TO.N,Net-(U10-Pad5)*%
X145620000Y-100580000D03*
%TO.P,U10,11*%
%TO.N,Net-(U10-Pad11)*%
X138000000Y-103120000D03*
%TO.P,U10,4*%
%TO.N,T13*%
X145620000Y-103120000D03*
%TO.P,U10,10*%
%TO.N,Net-(U10-Pad10)*%
X138000000Y-100580000D03*
%TO.P,U10,3*%
%TO.N,Net-(U10-Pad3)*%
X145620000Y-105660000D03*
%TO.P,U10,9*%
%TO.N,Net-(U10-Pad10)*%
X138000000Y-98040000D03*
%TO.P,U10,2*%
%TO.N,~DEP*%
X145620000Y-108200000D03*
%TO.P,U10,8*%
%TO.N,Net-(U10-Pad8)*%
X138000000Y-95500000D03*
D16*
%TO.P,U10,1*%
%TO.N,~ISZ*%
X145620000Y-110740000D03*
%TD*%
D15*
%TO.P,U18,14*%
%TO.N,+5V*%
X210000000Y-150240000D03*
%TO.P,U18,7*%
%TO.N,GND*%
X217620000Y-135000000D03*
%TO.P,U18,13*%
%TO.N,C-BUS*%
X210000000Y-147700000D03*
%TO.P,U18,6*%
%TO.N,Net-(U17-Pad12)*%
X217620000Y-137540000D03*
%TO.P,U18,12*%
%TO.N,D-BUS*%
X210000000Y-145160000D03*
%TO.P,U18,5*%
%TO.N,MA0*%
X217620000Y-140080000D03*
%TO.P,U18,11*%
%TO.N,Net-(U17-Pad6)*%
X210000000Y-142620000D03*
%TO.P,U18,4*%
%TO.N,C-BUS*%
X217620000Y-142620000D03*
%TO.P,U18,10*%
X210000000Y-140080000D03*
%TO.P,U18,3*%
%TO.N,D-BUS*%
X217620000Y-145160000D03*
%TO.P,U18,9*%
%TO.N,Net-(U12-Pad8)*%
X210000000Y-137540000D03*
%TO.P,U18,2*%
%TO.N,Net-(U17-Pad2)*%
X217620000Y-147700000D03*
%TO.P,U18,8*%
%TO.N,MB0*%
X210000000Y-135000000D03*
D16*
%TO.P,U18,1*%
%TO.N,B-BUS*%
X217620000Y-150240000D03*
%TD*%
D15*
%TO.P,U12,14*%
%TO.N,+5V*%
X210000000Y-110740000D03*
%TO.P,U12,7*%
%TO.N,GND*%
X217620000Y-95500000D03*
%TO.P,U12,13*%
%TO.N,Net-(U10-Pad3)*%
X210000000Y-108200000D03*
%TO.P,U12,6*%
%TO.N,D-IN*%
X217620000Y-98040000D03*
%TO.P,U12,12*%
%TO.N,T14-21*%
X210000000Y-105660000D03*
%TO.P,U12,5*%
%TO.N,C-BUS*%
X217620000Y-100580000D03*
%TO.P,U12,11*%
%TO.N,Net-(U12-Pad10)*%
X210000000Y-103120000D03*
%TO.P,U12,4*%
%TO.N,C-BUS*%
X217620000Y-103120000D03*
%TO.P,U12,10*%
%TO.N,Net-(U12-Pad10)*%
X210000000Y-100580000D03*
%TO.P,U12,3*%
%TO.N,Net-(U12-Pad3)*%
X217620000Y-105660000D03*
%TO.P,U12,9*%
%TO.N,Net-(U12-Pad10)*%
X210000000Y-98040000D03*
%TO.P,U12,2*%
%TO.N,Net-(U12-Pad2)*%
X217620000Y-108200000D03*
%TO.P,U12,8*%
%TO.N,Net-(U12-Pad8)*%
X210000000Y-95500000D03*
D16*
%TO.P,U12,1*%
%TO.N,~T2-9.ISZ*%
X217620000Y-110740000D03*
%TD*%
D15*
%TO.P,U19,14*%
%TO.N,+5V*%
X156000000Y-57740000D03*
%TO.P,U19,7*%
%TO.N,GND*%
X163620000Y-42500000D03*
%TO.P,U19,13*%
%TO.N,Net-(R4-Pad2)*%
X156000000Y-55200000D03*
%TO.P,U19,6*%
%TO.N,MB3*%
X163620000Y-45040000D03*
%TO.P,U19,12*%
%TO.N,MB4*%
X156000000Y-52660000D03*
%TO.P,U19,5*%
%TO.N,MB3*%
X163620000Y-47580000D03*
%TO.P,U19,11*%
%TO.N,Net-(R3-Pad2)*%
X156000000Y-50120000D03*
%TO.P,U19,4*%
%TO.N,Z-BIT*%
X163620000Y-50120000D03*
%TO.P,U19,10*%
X156000000Y-47580000D03*
%TO.P,U19,3*%
%TO.N,Net-(R4-Pad2)*%
X163620000Y-52660000D03*
%TO.P,U19,9*%
%TO.N,~F.23.OPR+IOT*%
X156000000Y-45040000D03*
%TO.P,U19,2*%
%TO.N,MB7*%
X163620000Y-55200000D03*
%TO.P,U19,8*%
%TO.N,~F.23.OPR+IOT*%
X156000000Y-42500000D03*
D16*
%TO.P,U19,1*%
%TO.N,Z-BIT*%
X163620000Y-57740000D03*
%TD*%
D15*
%TO.P,R5,2*%
%TO.N,Z-BIT*%
X152400000Y-47840000D03*
D14*
%TO.P,R5,1*%
%TO.N,+5V*%
X152400000Y-58000000D03*
%TD*%
D15*
%TO.P,R4,2*%
%TO.N,Net-(R4-Pad2)*%
X167000000Y-47840000D03*
D14*
%TO.P,R4,1*%
%TO.N,+5V*%
X167000000Y-58000000D03*
%TD*%
D15*
%TO.P,R3,2*%
%TO.N,Net-(R3-Pad2)*%
X149225000Y-47840000D03*
D14*
%TO.P,R3,1*%
%TO.N,+5V*%
X149225000Y-58000000D03*
%TD*%
D15*
%TO.P,U2,16*%
%TO.N,+5V*%
X80000000Y-60280000D03*
%TO.P,U2,8*%
%TO.N,GND*%
X87620000Y-42500000D03*
%TO.P,U2,15*%
%TO.N,D-IN*%
X80000000Y-57740000D03*
%TO.P,U2,7*%
%TO.N,D-BUS*%
X87620000Y-45040000D03*
%TO.P,U2,14*%
%TO.N,~WE*%
X80000000Y-55200000D03*
%TO.P,U2,6*%
%TO.N,MA1*%
X87620000Y-47580000D03*
%TO.P,U2,13*%
%TO.N,MA6*%
X80000000Y-52660000D03*
%TO.P,U2,5*%
%TO.N,MA0*%
X87620000Y-50120000D03*
%TO.P,U2,12*%
%TO.N,MA5*%
X80000000Y-50120000D03*
%TO.P,U2,4*%
%TO.N,MA_C*%
X87620000Y-52660000D03*
%TO.P,U2,11*%
%TO.N,MA4*%
X80000000Y-47580000D03*
%TO.P,U2,3*%
%TO.N,MA_B*%
X87620000Y-55200000D03*
%TO.P,U2,10*%
%TO.N,MA3*%
X80000000Y-45040000D03*
%TO.P,U2,2*%
%TO.N,MA_A*%
X87620000Y-57740000D03*
%TO.P,U2,9*%
%TO.N,MA2*%
X80000000Y-42500000D03*
D16*
%TO.P,U2,1*%
%TO.N,~CS_H*%
X87620000Y-60280000D03*
%TD*%
D15*
%TO.P,U16,16*%
%TO.N,+5V*%
X138000000Y-152780000D03*
%TO.P,U16,8*%
%TO.N,GND*%
X145620000Y-135000000D03*
%TO.P,U16,15*%
%TO.N,Z-BIT*%
X138000000Y-150240000D03*
%TO.P,U16,7*%
%TO.N,Net-(U15-Pad5)*%
X145620000Y-137540000D03*
%TO.P,U16,14*%
%TO.N,MA7*%
X138000000Y-147700000D03*
%TO.P,U16,6*%
%TO.N,SR4*%
X145620000Y-140080000D03*
%TO.P,U16,13*%
%TO.N,SR7*%
X138000000Y-145160000D03*
%TO.P,U16,5*%
%TO.N,MA4*%
X145620000Y-142620000D03*
%TO.P,U16,12*%
%TO.N,Net-(U15-Pad2)*%
X138000000Y-142620000D03*
%TO.P,U16,4*%
%TO.N,Net-(U15-Pad4)*%
X145620000Y-145160000D03*
%TO.P,U16,11*%
%TO.N,MA6*%
X138000000Y-140080000D03*
%TO.P,U16,3*%
%TO.N,SR5*%
X145620000Y-147700000D03*
%TO.P,U16,10*%
%TO.N,SR6*%
X138000000Y-137540000D03*
%TO.P,U16,2*%
%TO.N,MA5*%
X145620000Y-150240000D03*
%TO.P,U16,9*%
%TO.N,Net-(U15-Pad3)*%
X138000000Y-135000000D03*
D16*
%TO.P,U16,1*%
%TO.N,~F.23.OPR+IOT*%
X145620000Y-152780000D03*
%TD*%
D15*
%TO.P,U13,14*%
%TO.N,+5V*%
X37500000Y-150240000D03*
%TO.P,U13,7*%
%TO.N,GND*%
X45120000Y-135000000D03*
%TO.P,U13,13*%
%TO.N,MB5*%
X37500000Y-147700000D03*
%TO.P,U13,6*%
%TO.N,MB=0*%
X45120000Y-137540000D03*
%TO.P,U13,12*%
X37500000Y-145160000D03*
%TO.P,U13,5*%
%TO.N,MB2*%
X45120000Y-140080000D03*
%TO.P,U13,11*%
%TO.N,MB6*%
X37500000Y-142620000D03*
%TO.P,U13,4*%
%TO.N,MB=0*%
X45120000Y-142620000D03*
%TO.P,U13,10*%
X37500000Y-140080000D03*
%TO.P,U13,3*%
%TO.N,MB3*%
X45120000Y-145160000D03*
%TO.P,U13,9*%
%TO.N,MB7*%
X37500000Y-137540000D03*
%TO.P,U13,2*%
%TO.N,MB=0*%
X45120000Y-147700000D03*
%TO.P,U13,8*%
X37500000Y-135000000D03*
D16*
%TO.P,U13,1*%
%TO.N,MB4*%
X45120000Y-150240000D03*
%TD*%
D15*
%TO.P,U7,14*%
%TO.N,+5V*%
X37500000Y-110740000D03*
%TO.P,U7,7*%
%TO.N,GND*%
X45120000Y-95500000D03*
%TO.P,U7,13*%
%TO.N,PC7*%
X37500000Y-108200000D03*
%TO.P,U7,6*%
%TO.N,MB=0*%
X45120000Y-98040000D03*
%TO.P,U7,12*%
%TO.N,~PC7*%
X37500000Y-105660000D03*
%TO.P,U7,5*%
%TO.N,MB0*%
X45120000Y-100580000D03*
%TO.P,U7,11*%
%TO.N,~T0.5*%
X37500000Y-103120000D03*
%TO.P,U7,4*%
%TO.N,Net-(R3-Pad2)*%
X45120000Y-103120000D03*
%TO.P,U7,10*%
%TO.N,/R0(1-20*%
X37500000Y-100580000D03*
%TO.P,U7,3*%
%TO.N,MB5*%
X45120000Y-105660000D03*
%TO.P,U7,9*%
%TO.N,MA7*%
X37500000Y-98040000D03*
%TO.P,U7,2*%
%TO.N,MB=0*%
X45120000Y-108200000D03*
%TO.P,U7,8*%
%TO.N,~MA7*%
X37500000Y-95500000D03*
D16*
%TO.P,U7,1*%
%TO.N,MB1*%
X45120000Y-110740000D03*
%TD*%
D15*
%TO.P,R1,2*%
%TO.N,/R0(1-20*%
X32385000Y-100600000D03*
D14*
%TO.P,R1,1*%
%TO.N,+5V*%
X32385000Y-110760000D03*
%TD*%
D15*
%TO.P,R2,2*%
%TO.N,MB=0*%
X29845000Y-132080000D03*
D14*
%TO.P,R2,1*%
%TO.N,+5V*%
X29845000Y-121920000D03*
%TD*%
D15*
%TO.P,U1,14*%
%TO.N,+5V*%
X37500000Y-57740000D03*
%TO.P,U1,7*%
%TO.N,GND*%
X45120000Y-42500000D03*
%TO.P,U1,13*%
%TO.N,Net-(U1-Pad12)*%
X37500000Y-55200000D03*
%TO.P,U1,6*%
%TO.N,~CS_L*%
X45120000Y-45040000D03*
%TO.P,U1,12*%
%TO.N,Net-(U1-Pad12)*%
X37500000Y-52660000D03*
%TO.P,U1,5*%
%TO.N,Net-(U1-Pad5)*%
X45120000Y-47580000D03*
%TO.P,U1,11*%
%TO.N,Net-(U1-Pad11)*%
X37500000Y-50120000D03*
%TO.P,U1,4*%
%TO.N,MEMORY_ENABLE*%
X45120000Y-50120000D03*
%TO.P,U1,10*%
%TO.N,MA7*%
X37500000Y-47580000D03*
%TO.P,U1,3*%
%TO.N,~CS_H*%
X45120000Y-52660000D03*
%TO.P,U1,9*%
%TO.N,MA7*%
X37500000Y-45040000D03*
%TO.P,U1,2*%
%TO.N,MEMORY_ENABLE*%
X45120000Y-55200000D03*
%TO.P,U1,8*%
%TO.N,Net-(U1-Pad5)*%
X37500000Y-42500000D03*
D16*
%TO.P,U1,1*%
%TO.N,MA7*%
X45120000Y-57740000D03*
%TD*%
D15*
%TO.P,U3,16*%
%TO.N,+5V*%
X108500000Y-60280000D03*
%TO.P,U3,8*%
%TO.N,GND*%
X116120000Y-42500000D03*
%TO.P,U3,15*%
%TO.N,D-IN*%
X108500000Y-57740000D03*
%TO.P,U3,7*%
%TO.N,D-BUS*%
X116120000Y-45040000D03*
%TO.P,U3,14*%
%TO.N,~WE*%
X108500000Y-55200000D03*
%TO.P,U3,6*%
%TO.N,MA1*%
X116120000Y-47580000D03*
%TO.P,U3,13*%
%TO.N,MA6*%
X108500000Y-52660000D03*
%TO.P,U3,5*%
%TO.N,MA0*%
X116120000Y-50120000D03*
%TO.P,U3,12*%
%TO.N,MA5*%
X108500000Y-50120000D03*
%TO.P,U3,4*%
%TO.N,MA_C*%
X116120000Y-52660000D03*
%TO.P,U3,11*%
%TO.N,MA4*%
X108500000Y-47580000D03*
%TO.P,U3,3*%
%TO.N,MA_B*%
X116120000Y-55200000D03*
%TO.P,U3,10*%
%TO.N,MA3*%
X108500000Y-45040000D03*
%TO.P,U3,2*%
%TO.N,MA_A*%
X116120000Y-57740000D03*
%TO.P,U3,9*%
%TO.N,MA2*%
X108500000Y-42500000D03*
D16*
%TO.P,U3,1*%
%TO.N,~CS_L*%
X116120000Y-60280000D03*
%TD*%
D15*
%TO.P,U4,14*%
%TO.N,Net-(U4-Pad14)*%
X138000000Y-57740000D03*
%TO.P,U4,7*%
%TO.N,N/C*%
X145620000Y-42500000D03*
%TO.P,U4,13*%
X138000000Y-55200000D03*
%TO.P,U4,6*%
X145620000Y-45040000D03*
%TO.P,U4,12*%
%TO.N,Net-(U4-Pad12)*%
X138000000Y-52660000D03*
%TO.P,U4,5*%
%TO.N,+5V*%
X145620000Y-47580000D03*
%TO.P,U4,11*%
%TO.N,MA_C*%
X138000000Y-50120000D03*
%TO.P,U4,4*%
%TO.N,N/C*%
X145620000Y-50120000D03*
%TO.P,U4,10*%
%TO.N,GND*%
X138000000Y-47580000D03*
%TO.P,U4,3*%
%TO.N,/R0(1-20*%
X145620000Y-52660000D03*
%TO.P,U4,9*%
%TO.N,MA_A*%
X138000000Y-45040000D03*
%TO.P,U4,2*%
%TO.N,/R0(1-20*%
X145620000Y-55200000D03*
%TO.P,U4,8*%
%TO.N,MA_B*%
X138000000Y-42500000D03*
D16*
%TO.P,U4,1*%
%TO.N,/WEIRD.NET*%
X145620000Y-57740000D03*
%TD*%
D15*
%TO.P,U8,16*%
%TO.N,~T0.5*%
X80000000Y-113280000D03*
%TO.P,U8,8*%
%TO.N,Net-(U1-Pad11)*%
X87620000Y-95500000D03*
%TO.P,U8,15*%
%TO.N,MA4*%
X80000000Y-110740000D03*
%TO.P,U8,7*%
%TO.N,MB0*%
X87620000Y-98040000D03*
%TO.P,U8,14*%
%TO.N,MA3*%
X80000000Y-108200000D03*
%TO.P,U8,6*%
%TO.N,MB1*%
X87620000Y-100580000D03*
%TO.P,U8,13*%
%TO.N,MA2*%
X80000000Y-105660000D03*
%TO.P,U8,5*%
%TO.N,+5V*%
X87620000Y-103120000D03*
%TO.P,U8,12*%
%TO.N,GND*%
X80000000Y-103120000D03*
%TO.P,U8,4*%
%TO.N,MB2*%
X87620000Y-105660000D03*
%TO.P,U8,11*%
%TO.N,MA1*%
X80000000Y-100580000D03*
%TO.P,U8,3*%
%TO.N,MB3*%
X87620000Y-108200000D03*
%TO.P,U8,10*%
%TO.N,MA0*%
X80000000Y-98040000D03*
%TO.P,U8,2*%
%TO.N,MB4*%
X87620000Y-110740000D03*
%TO.P,U8,9*%
%TO.N,MA5*%
X80000000Y-95500000D03*
D16*
%TO.P,U8,1*%
%TO.N,Net-(U11-Pad6)*%
X87620000Y-113280000D03*
%TD*%
D15*
%TO.P,U9,14*%
%TO.N,+5V*%
X108500000Y-110740000D03*
%TO.P,U9,7*%
%TO.N,GND*%
X116120000Y-95500000D03*
%TO.P,U9,13*%
%TO.N,MB3*%
X108500000Y-108200000D03*
%TO.P,U9,6*%
%TO.N,Net-(U10-Pad8)*%
X116120000Y-98040000D03*
%TO.P,U9,12*%
%TO.N,MB2*%
X108500000Y-105660000D03*
%TO.P,U9,5*%
%TO.N,SR0*%
X116120000Y-100580000D03*
%TO.P,U9,11*%
%TO.N,MB1*%
X108500000Y-103120000D03*
%TO.P,U9,4*%
%TO.N,SR1*%
X116120000Y-103120000D03*
%TO.P,U9,10*%
%TO.N,MB0*%
X108500000Y-100580000D03*
%TO.P,U9,3*%
%TO.N,SR2*%
X116120000Y-105660000D03*
%TO.P,U9,9*%
%TO.N,/WEIRD.NET*%
X108500000Y-98040000D03*
%TO.P,U9,2*%
%TO.N,SR3*%
X116120000Y-108200000D03*
%TO.P,U9,8*%
%TO.N,MCP*%
X108500000Y-95500000D03*
D16*
%TO.P,U9,1*%
%TO.N,MB4*%
X116120000Y-110740000D03*
%TD*%
D15*
%TO.P,U11,14*%
%TO.N,+5V*%
X176500000Y-110740000D03*
%TO.P,U11,7*%
%TO.N,GND*%
X184120000Y-95500000D03*
%TO.P,U11,13*%
%TO.N,MEMORY_ENABLE*%
X176500000Y-108200000D03*
%TO.P,U11,6*%
%TO.N,Net-(U11-Pad6)*%
X184120000Y-98040000D03*
%TO.P,U11,12*%
%TO.N,MCP*%
X176500000Y-105660000D03*
%TO.P,U11,5*%
X184120000Y-100580000D03*
%TO.P,U11,11*%
%TO.N,Net-(U11-Pad11)*%
X176500000Y-103120000D03*
%TO.P,U11,4*%
%TO.N,Net-(U11-Pad3)*%
X184120000Y-103120000D03*
%TO.P,U11,10*%
%TO.N,MCP*%
X176500000Y-100580000D03*
%TO.P,U11,3*%
%TO.N,Net-(U11-Pad3)*%
X184120000Y-105660000D03*
%TO.P,U11,9*%
%TO.N,Net-(U11-Pad9)*%
X176500000Y-98040000D03*
%TO.P,U11,2*%
%TO.N,~T14-21(JMS+JMP)*%
X184120000Y-108200000D03*
%TO.P,U11,8*%
%TO.N,~WE*%
X176500000Y-95500000D03*
D16*
%TO.P,U11,1*%
%TO.N,~T2-9(F+D+E)*%
X184120000Y-110740000D03*
%TD*%
D15*
%TO.P,U14,16*%
%TO.N,~T0.5*%
X80000000Y-152780000D03*
%TO.P,U14,8*%
%TO.N,Net-(U1-Pad11)*%
X87620000Y-135000000D03*
%TO.P,U14,15*%
%TO.N,MA7*%
X80000000Y-150240000D03*
%TO.P,U14,7*%
%TO.N,Net-(U14-Pad7)*%
X87620000Y-137540000D03*
%TO.P,U14,14*%
%TO.N,MA6*%
X80000000Y-147700000D03*
%TO.P,U14,6*%
%TO.N,Net-(U14-Pad6)*%
X87620000Y-140080000D03*
%TO.P,U14,13*%
%TO.N,MA5*%
X80000000Y-145160000D03*
%TO.P,U14,5*%
%TO.N,+5V*%
X87620000Y-142620000D03*
%TO.P,U14,12*%
%TO.N,GND*%
X80000000Y-142620000D03*
%TO.P,U14,4*%
%TO.N,MB5*%
X87620000Y-145160000D03*
%TO.P,U14,11*%
%TO.N,Net-(U14-Pad11)*%
X80000000Y-140080000D03*
%TO.P,U14,3*%
%TO.N,MB6*%
X87620000Y-147700000D03*
%TO.P,U14,10*%
%TO.N,Net-(U14-Pad10)*%
X80000000Y-137540000D03*
%TO.P,U14,2*%
%TO.N,MB7*%
X87620000Y-150240000D03*
%TO.P,U14,9*%
%TO.N,D-IN*%
X80000000Y-135000000D03*
D16*
%TO.P,U14,1*%
%TO.N,Net-(U11-Pad6)*%
X87620000Y-152780000D03*
%TD*%
D15*
%TO.P,U15,14*%
%TO.N,+5V*%
X108500000Y-150240000D03*
%TO.P,U15,7*%
%TO.N,GND*%
X116120000Y-135000000D03*
%TO.P,U15,13*%
%TO.N,MB7*%
X108500000Y-147700000D03*
%TO.P,U15,6*%
%TO.N,Net-(U10-Pad11)*%
X116120000Y-137540000D03*
%TO.P,U15,12*%
%TO.N,MB6*%
X108500000Y-145160000D03*
%TO.P,U15,5*%
%TO.N,Net-(U15-Pad5)*%
X116120000Y-140080000D03*
%TO.P,U15,11*%
%TO.N,MB5*%
X108500000Y-142620000D03*
%TO.P,U15,4*%
%TO.N,Net-(U15-Pad4)*%
X116120000Y-142620000D03*
%TO.P,U15,10*%
%TO.N,MB4*%
X108500000Y-140080000D03*
%TO.P,U15,3*%
%TO.N,Net-(U15-Pad3)*%
X116120000Y-145160000D03*
%TO.P,U15,9*%
%TO.N,/WEIRD.NET*%
X108500000Y-137540000D03*
%TO.P,U15,2*%
%TO.N,Net-(U15-Pad2)*%
X116120000Y-147700000D03*
%TO.P,U15,8*%
%TO.N,MCP*%
X108500000Y-135000000D03*
D16*
%TO.P,U15,1*%
%TO.N,D-IN*%
X116120000Y-150240000D03*
%TD*%
D17*
%TO.N,+5V*%
X75565000Y-60325000D03*
X37465000Y-60325000D03*
X80010000Y-62865000D03*
X108585000Y-62865000D03*
X142240000Y-62865000D03*
X107950000Y-116205000D03*
X37465000Y-116205000D03*
X86995000Y-116205000D03*
X231572000Y-116408000D03*
X136525000Y-155575000D03*
X107950000Y-155575000D03*
X231572000Y-152603000D03*
X176733000Y-152603000D03*
X175895000Y-155575000D03*
X227965000Y-62865000D03*
X150495000Y-62865000D03*
X166370000Y-62865000D03*
X156210000Y-62865000D03*
X227965000Y-116205000D03*
X34925000Y-154940000D03*
X105410000Y-154940000D03*
X137922000Y-116205000D03*
X176530000Y-116205000D03*
X210058000Y-116205000D03*
X208788000Y-62865000D03*
X178735000Y-62865000D03*
X209797000Y-152603000D03*
%TO.N,MA2*%
X76835000Y-105800012D03*
X51045012Y-105799988D03*
%TO.N,MA3*%
X67310000Y-108585000D03*
X52705000Y-108585000D03*
%TO.N,MA4*%
X76835000Y-110490000D03*
X124460000Y-118745000D03*
X52705000Y-118745000D03*
X50800000Y-110490000D03*
D18*
X82919996Y-47580000D03*
D17*
%TO.N,MA5*%
X139065000Y-129540000D03*
D18*
X74930000Y-50165000D03*
X62865000Y-50165000D03*
X112395000Y-30480000D03*
X78714952Y-30280203D03*
D17*
X73659990Y-129540000D03*
%TO.N,MA0*%
X77470000Y-97790000D03*
X119380000Y-71120000D03*
X219078993Y-71120000D03*
D18*
X95205000Y-50120000D03*
D17*
X54590000Y-97790000D03*
D18*
X95250000Y-34814990D03*
X66040000Y-34814990D03*
D17*
%TO.N,MA6*%
X95885000Y-161925000D03*
X114300000Y-161925000D03*
D18*
X61595000Y-52705000D03*
X112394982Y-32385000D03*
X81280000Y-32384994D03*
D17*
%TO.N,MA1*%
X77085000Y-100580000D03*
D18*
X85770000Y-47580000D03*
X85725000Y-33655000D03*
X68580000Y-33655000D03*
D17*
X52500000Y-100400000D03*
%TO.N,GND*%
X235585000Y-40005000D03*
X133985000Y-47625000D03*
X68580000Y-93345000D03*
X235585000Y-93345000D03*
X116205000Y-93345000D03*
X184150000Y-93345000D03*
X45087102Y-93347102D03*
X120650000Y-150495000D03*
X146685000Y-132080000D03*
X45085000Y-132080000D03*
X76200000Y-132080000D03*
X184150000Y-132080000D03*
X184150000Y-128905000D03*
X235534400Y-128854400D03*
X116840000Y-132080000D03*
X218567000Y-128905000D03*
X146177000Y-93345000D03*
X217932000Y-93345000D03*
X37973000Y-132080000D03*
X32766000Y-132080000D03*
X25654000Y-129540000D03*
X26289000Y-93345000D03*
X163995000Y-40005000D03*
X184305000Y-40005000D03*
X116205004Y-40004996D03*
X87629993Y-40385030D03*
X217712188Y-40097812D03*
X45720058Y-40005000D03*
%TO.N,~T0.5*%
X69850000Y-113030000D03*
X59690000Y-113030000D03*
X210185000Y-157861000D03*
X80010000Y-157861000D03*
%TO.N,MB0*%
X210185000Y-88900000D03*
X52000000Y-88600000D03*
X85199994Y-88900000D03*
%TO.N,MB1*%
X83312000Y-90932000D03*
X44958000Y-90805000D03*
%TO.N,MB2*%
X103505000Y-125095000D03*
X42544998Y-125095000D03*
%TO.N,MB3*%
X102870000Y-120650000D03*
X45720000Y-120650000D03*
X158115000Y-69215000D03*
X168275000Y-69215000D03*
X166400000Y-120700000D03*
%TO.N,MB4*%
X46355000Y-123190000D03*
X97155000Y-123190000D03*
X118745000Y-123190000D03*
X116120000Y-113750000D03*
X159385000Y-113665000D03*
%TO.N,MB7*%
X23638400Y-158115000D03*
X77470000Y-158115000D03*
X99695000Y-110490000D03*
X99695000Y-96520000D03*
X128905000Y-73025000D03*
X160020000Y-73025000D03*
X104140000Y-137160000D03*
X104140000Y-149860000D03*
%TO.N,MB6*%
X95250000Y-147955000D03*
X102235000Y-147955000D03*
X27600800Y-161925000D03*
X92710000Y-161925000D03*
%TO.N,MB5*%
X95250000Y-145415000D03*
X102235000Y-145415000D03*
X31563200Y-160020000D03*
X88265000Y-160020000D03*
%TO.N,Net-(U15-Pad2)*%
X133985000Y-137795000D03*
X133985000Y-142240000D03*
%TO.N,~F.23.OPR+IOT*%
X184150000Y-163830000D03*
X153035000Y-163830000D03*
X137900000Y-79100000D03*
X170000000Y-79000000D03*
X126200000Y-163800000D03*
%TO.N,MB=0*%
X34036000Y-166624000D03*
X73025000Y-166624000D03*
%TO.N,Net-(R3-Pad2)*%
X147320000Y-69215000D03*
%TO.N,Z-BIT*%
X79375000Y-167640000D03*
X114935000Y-167640000D03*
X168275000Y-135255000D03*
%TO.N,~ISZ*%
X77470000Y-165735000D03*
X158115000Y-165735000D03*
%TO.N,Net-(U17-Pad6)*%
X186690000Y-137795000D03*
X205740000Y-137795000D03*
%TO.N,Net-(U17-Pad12)*%
X217805000Y-126365000D03*
X176530000Y-126365000D03*
%TO.N,Net-(U17-Pad2)*%
X220345000Y-154940000D03*
X188595000Y-154940000D03*
%TO.N,C-BUS*%
X207645000Y-147637500D03*
X207825010Y-132064948D03*
%TO.N,Net-(U10-Pad3)*%
X161925000Y-124460000D03*
X205460000Y-124460000D03*
%TO.N,Net-(U5-Pad6)*%
X213360000Y-73025000D03*
X196850000Y-73025000D03*
%TO.N,Net-(U12-Pad3)*%
X188595000Y-122555000D03*
X219400000Y-122600000D03*
%TO.N,~T2-9.ISZ*%
X190500000Y-120650000D03*
X217600000Y-120700000D03*
%TO.N,/R0(1-20*%
X31000000Y-36900000D03*
X147800000Y-36899996D03*
%TO.N,MEMORY_ENABLE*%
X48260000Y-74930000D03*
X140970000Y-74930000D03*
X172350010Y-74930000D03*
%TO.N,T2-9*%
X199390000Y-113665000D03*
X199390000Y-95885000D03*
%TO.N,JMS+DCA*%
X170815000Y-147320000D03*
X164465000Y-73025000D03*
X186690000Y-73025000D03*
X170815000Y-137160000D03*
%TO.N,T13*%
X199363071Y-118564990D03*
X158750000Y-118745000D03*
%TO.N,MCP*%
X170815000Y-90805000D03*
X108585000Y-90805000D03*
%TO.N,Net-(U1-Pad11)*%
X86995000Y-81915000D03*
X93980000Y-113030000D03*
X93980000Y-95885000D03*
X40585000Y-81915000D03*
%TO.N,~MA7*%
X32700000Y-34500000D03*
%TO.N,MA7*%
X85725000Y-163830000D03*
X115570000Y-163830000D03*
X34925000Y-38915010D03*
D18*
X83820000Y-38100000D03*
D17*
%TO.N,~F+D+E*%
X142875000Y-76835000D03*
X201295000Y-76835000D03*
%TO.N,OPR+IOT*%
X175895000Y-165735000D03*
X186055000Y-165735000D03*
%TO.N,T1*%
X221615000Y-73025000D03*
X192405000Y-165735000D03*
X225425000Y-73025000D03*
X225425000Y-165735000D03*
%TO.N,~WE*%
X102235000Y-65405000D03*
X173990000Y-65405000D03*
%TO.N,~CS_L*%
X116205000Y-71120000D03*
X52070000Y-71120000D03*
D18*
X104140000Y-34814990D03*
X113030000Y-34814990D03*
D17*
%TO.N,~CS_H*%
X50165000Y-73025000D03*
X87630000Y-73025000D03*
D18*
X99695000Y-60325000D03*
D17*
%TO.N,D-IN*%
X104775000Y-67310000D03*
X216535000Y-67310000D03*
X80010000Y-127635000D03*
X38735000Y-127635000D03*
X29210000Y-67310000D03*
X112395000Y-127635000D03*
D18*
X87630000Y-33655000D03*
X91440000Y-33655000D03*
X91440000Y-59055000D03*
%TO.N,MA_C*%
X73660000Y-51435000D03*
X73660000Y-48895000D03*
X73660000Y-41910000D03*
%TO.N,MA_B*%
X71120000Y-53975000D03*
X71120000Y-48895000D03*
X71120000Y-41910000D03*
%TO.N,MA_A*%
X68580000Y-56515000D03*
X68580000Y-48895000D03*
X68580000Y-41910000D03*
D17*
%TO.N,Net-(U1-Pad12)*%
X199390000Y-84455000D03*
X37845000Y-84455000D03*
%TO.N,/WEIRD.NET*%
X113030000Y-82550000D03*
X167005000Y-82550000D03*
%TO.N,Net-(U17-Pad4)*%
X195580000Y-113665000D03*
X195580000Y-95885000D03*
%TO.N,Net-(U11-Pad6)*%
X92075000Y-134620000D03*
X92075000Y-152739990D03*
X99300000Y-160000000D03*
X206000000Y-159900000D03*
%TO.N,Net-(U11-Pad11)*%
X171450000Y-102870000D03*
X165100000Y-102870000D03*
%TD*%
D19*
%TO.N,D-BUS*%
X112230001Y-43650001D02*
X112395000Y-43815000D01*
D20*
X112395000Y-43815000D02*
X113665000Y-45085000D01*
X113710000Y-45040000D02*
X113665000Y-45085000D01*
X116120000Y-45040000D02*
X113710000Y-45040000D01*
X112330001Y-43750001D02*
X112395000Y-43815000D01*
X98489999Y-43750001D02*
X112330001Y-43750001D01*
X97200000Y-45040000D02*
X98489999Y-43750001D01*
X87620000Y-45040000D02*
X97200000Y-45040000D01*
D21*
%TO.N,+5V*%
X75565000Y-60325000D02*
X37465000Y-60325000D01*
X80010000Y-62865000D02*
X108585000Y-62865000D01*
X142240000Y-62865000D02*
X108585000Y-62865000D01*
X79964998Y-116205000D02*
X37465000Y-116205000D01*
X107950000Y-116205000D02*
X86995000Y-116205000D01*
X86995000Y-116205000D02*
X79964998Y-116205000D01*
X107950000Y-155575000D02*
X136525000Y-155575000D01*
X175895000Y-155575000D02*
X136525000Y-155575000D01*
X142240000Y-62865000D02*
X150495000Y-62865000D01*
X150495000Y-62865000D02*
X156210000Y-62865000D01*
X156210000Y-62865000D02*
X166370000Y-62865000D01*
X231369000Y-116205000D02*
X231572000Y-116408000D01*
X227965000Y-116205000D02*
X231369000Y-116205000D01*
X176733000Y-154737000D02*
X175895000Y-155575000D01*
X176733000Y-152603000D02*
X176733000Y-154737000D01*
X75565000Y-60325000D02*
X77851000Y-62611000D01*
X78105000Y-62865000D02*
X77851000Y-62611000D01*
X80010000Y-62865000D02*
X78105000Y-62865000D01*
X34925000Y-154940000D02*
X34925000Y-154940000D01*
X105410000Y-154940000D02*
X34925000Y-154940000D01*
X176530000Y-116205000D02*
X227965000Y-116205000D01*
X107950000Y-116205000D02*
X176530000Y-116205000D01*
X208788000Y-62865000D02*
X227965000Y-62865000D01*
X166370000Y-62865000D02*
X208788000Y-62865000D01*
X34925000Y-154940000D02*
X26162000Y-154940000D01*
X37401500Y-60388500D02*
X37465000Y-60325000D01*
X209797000Y-152603000D02*
X176733000Y-152603000D01*
X231572000Y-152603000D02*
X209797000Y-152603000D01*
X107315000Y-154940000D02*
X107950000Y-155575000D01*
X105410000Y-154940000D02*
X107315000Y-154940000D01*
D20*
%TO.N,MA2*%
X98425000Y-42500000D02*
X109090000Y-42500000D01*
X97219999Y-43750001D02*
X98470000Y-42500000D01*
X85025001Y-43750001D02*
X97219999Y-43750001D01*
X83775000Y-42500000D02*
X85025001Y-43750001D01*
X80000000Y-42500000D02*
X83775000Y-42500000D01*
X51045035Y-105800011D02*
X51045012Y-105799988D01*
X76835000Y-105800012D02*
X51045035Y-105800011D01*
%TO.N,MA3*%
X52705000Y-108585000D02*
X67310000Y-108585000D01*
X85064999Y-46329999D02*
X97180001Y-46329999D01*
X83775000Y-45040000D02*
X85064999Y-46329999D01*
X98470000Y-45040000D02*
X108500000Y-45040000D01*
X97180001Y-46329999D02*
X98470000Y-45040000D01*
X80000000Y-45040000D02*
X83775000Y-45040000D01*
%TO.N,MA4*%
X52705000Y-118745000D02*
X124460000Y-118745000D01*
X50800000Y-110490000D02*
X76835000Y-110490000D01*
X80000000Y-47580000D02*
X83775000Y-47580000D01*
X85090000Y-48895000D02*
X85115001Y-48869999D01*
X98470000Y-47580000D02*
X108500000Y-47580000D01*
X95859999Y-48869999D02*
X97180001Y-48869999D01*
X85115001Y-48869999D02*
X95859999Y-48869999D01*
X95859999Y-48869999D02*
X97129999Y-48869999D01*
X98470000Y-47580000D02*
X97180001Y-48869999D01*
X85090000Y-48895000D02*
X83775000Y-47580000D01*
X83775000Y-47580000D02*
X82919996Y-47580000D01*
%TO.N,MA5*%
X74930000Y-50165000D02*
X62865000Y-50165000D01*
X78914749Y-30480000D02*
X78714952Y-30280203D01*
X112395000Y-30480000D02*
X78914749Y-30480000D01*
X83775000Y-50120000D02*
X85090000Y-51435000D01*
X80000000Y-50120000D02*
X83775000Y-50120000D01*
X97180001Y-51409999D02*
X98470000Y-50120000D01*
X85115001Y-51409999D02*
X97180001Y-51409999D01*
X85090000Y-51435000D02*
X85115001Y-51409999D01*
X98470000Y-50120000D02*
X108500000Y-50120000D01*
X73660000Y-129540000D02*
X73659990Y-129540000D01*
X139065000Y-129540000D02*
X73660000Y-129540000D01*
%TO.N,MA0*%
X217792867Y-71120000D02*
X119380000Y-71120000D01*
X219078993Y-71120000D02*
X217792867Y-71120000D01*
X87620000Y-50120000D02*
X95205000Y-50120000D01*
X98360001Y-48869999D02*
X112459999Y-48869999D01*
X97110000Y-50120000D02*
X98360001Y-48869999D01*
X112459999Y-48869999D02*
X113710000Y-50120000D01*
X95205000Y-50120000D02*
X97110000Y-50120000D01*
X113710000Y-50120000D02*
X116120000Y-50120000D01*
X76055787Y-97790000D02*
X54590000Y-97790000D01*
X77470000Y-97790000D02*
X76055787Y-97790000D01*
X95250000Y-34814990D02*
X94351975Y-34814990D01*
X94351975Y-34814990D02*
X66040000Y-34814990D01*
%TO.N,MA6*%
X95885000Y-161925000D02*
X114300000Y-161925000D01*
X79955000Y-52705000D02*
X80000000Y-52660000D01*
X61595000Y-52705000D02*
X79955000Y-52705000D01*
X81280006Y-32385000D02*
X81280000Y-32384994D01*
X112394982Y-32385000D02*
X81280006Y-32385000D01*
X83140000Y-52660000D02*
X84290001Y-53810001D01*
X80000000Y-52660000D02*
X83140000Y-52660000D01*
X97219999Y-53910001D02*
X98425000Y-52705000D01*
X86919999Y-53810001D02*
X87019999Y-53910001D01*
X84290001Y-53810001D02*
X86919999Y-53810001D01*
X87019999Y-53910001D02*
X97219999Y-53910001D01*
X108455000Y-52705000D02*
X108500000Y-52660000D01*
X98425000Y-52705000D02*
X108455000Y-52705000D01*
%TO.N,MA1*%
X85725000Y-33655000D02*
X68580000Y-33655000D01*
X112220001Y-46329999D02*
X98450001Y-46329999D01*
X98450001Y-46329999D02*
X97200000Y-47580000D01*
X113470002Y-47580000D02*
X112220001Y-46329999D01*
X116120000Y-47580000D02*
X113470002Y-47580000D01*
X97200000Y-47580000D02*
X87620000Y-47580000D01*
X77085000Y-100580000D02*
X52680000Y-100580000D01*
X52680000Y-100580000D02*
X52500000Y-100400000D01*
D21*
%TO.N,GND*%
X133985000Y-47625000D02*
X133985000Y-40005000D01*
X116205000Y-93345000D02*
X184150000Y-93345000D01*
X184150000Y-93345000D02*
X235585000Y-93345000D01*
X68580000Y-93345000D02*
X45089204Y-93345000D01*
X45089204Y-93345000D02*
X45087102Y-93347102D01*
X146685000Y-132080000D02*
X184150000Y-132080000D01*
X76200000Y-132080000D02*
X45085000Y-132080000D01*
X235483800Y-128905000D02*
X235534400Y-128854400D01*
X184150000Y-128905000D02*
X235483800Y-128905000D01*
X109263245Y-132080000D02*
X76200000Y-132080000D01*
X116840000Y-132080000D02*
X109263245Y-132080000D01*
X120650000Y-132715000D02*
X120015000Y-132080000D01*
X120015000Y-132080000D02*
X116840000Y-132080000D01*
X120650000Y-150495000D02*
X120650000Y-132715000D01*
X146685000Y-132080000D02*
X120015000Y-132080000D01*
X184150000Y-128905000D02*
X184150000Y-132080000D01*
X45085000Y-132080000D02*
X37973000Y-132080000D01*
X32766000Y-132080000D02*
X32766000Y-130302000D01*
X32004000Y-129540000D02*
X25654000Y-129540000D01*
X32766000Y-130302000D02*
X32004000Y-129540000D01*
X26291102Y-93347102D02*
X26289000Y-93345000D01*
X45087102Y-93347102D02*
X26291102Y-93347102D01*
X133985000Y-40005000D02*
X163995000Y-40005000D01*
X184305000Y-40005000D02*
X235585000Y-40005000D01*
X163995000Y-40005000D02*
X184305000Y-40005000D01*
X116205000Y-40005000D02*
X116205004Y-40004996D01*
X133985000Y-40005000D02*
X116205000Y-40005000D01*
X116205000Y-40005000D02*
X88010023Y-40005000D01*
X88010023Y-40005000D02*
X87629993Y-40385030D01*
X68580000Y-93345000D02*
X116205000Y-93345000D01*
X86215780Y-40385030D02*
X85835750Y-40005000D01*
X87629993Y-40385030D02*
X86215780Y-40385030D01*
X85835750Y-40005000D02*
X45720058Y-40005000D01*
D20*
%TO.N,~T0.5*%
X69850000Y-113030000D02*
X59690000Y-113030000D01*
X102870000Y-157861000D02*
X210185000Y-157861000D01*
X80010000Y-157861000D02*
X102870000Y-157861000D01*
%TO.N,MB0*%
X210185000Y-88900000D02*
X85199994Y-88900000D01*
X52300000Y-88900000D02*
X85199994Y-88900000D01*
X52000000Y-88600000D02*
X52300000Y-88900000D01*
%TO.N,MB1*%
X83185000Y-90805000D02*
X83312000Y-90932000D01*
X44958000Y-90805000D02*
X83185000Y-90805000D01*
%TO.N,MB2*%
X103505000Y-125095000D02*
X42544998Y-125095000D01*
%TO.N,MB3*%
X102870000Y-120650000D02*
X45720000Y-120650000D01*
X158115000Y-69215000D02*
X168275000Y-69215000D01*
X102870000Y-120650000D02*
X166350000Y-120650000D01*
X166350000Y-120650000D02*
X166400000Y-120700000D01*
%TO.N,MB4*%
X46355000Y-123190000D02*
X97155000Y-123190000D01*
X97155000Y-123190000D02*
X118745000Y-123190000D01*
X159300000Y-113750000D02*
X159385000Y-113665000D01*
X116120000Y-113750000D02*
X159300000Y-113750000D01*
%TO.N,MB7*%
X23638400Y-158115000D02*
X77470000Y-158115000D01*
X99695000Y-110490000D02*
X99695000Y-96520000D01*
X128905000Y-73025000D02*
X160020000Y-73025000D01*
X104140000Y-137160000D02*
X104140000Y-149860000D01*
%TO.N,MB6*%
X95250000Y-147955000D02*
X102235000Y-147955000D01*
X27600800Y-161925000D02*
X92710000Y-161925000D01*
%TO.N,MB5*%
X95250000Y-145415000D02*
X102235000Y-145415000D01*
X45120000Y-105660000D02*
X42295000Y-105660000D01*
X42295000Y-105660000D02*
X40640000Y-107315000D01*
X40640000Y-107315000D02*
X40640000Y-111760000D01*
X40640000Y-111760000D02*
X38100000Y-114300000D01*
X38100000Y-114300000D02*
X35560000Y-114300000D01*
X35560000Y-114300000D02*
X34925000Y-114935000D01*
X34925000Y-114935000D02*
X34925000Y-147320000D01*
X35305000Y-147700000D02*
X37500000Y-147700000D01*
X34925000Y-147320000D02*
X35305000Y-147700000D01*
X88265000Y-160020000D02*
X31563200Y-160020000D01*
%TO.N,Net-(U15-Pad2)*%
X133985000Y-137795000D02*
X133985000Y-142240000D01*
%TO.N,~F.23.OPR+IOT*%
X153035000Y-163830000D02*
X184150000Y-163830000D01*
X169900000Y-79100000D02*
X170000000Y-79000000D01*
X137900000Y-79100000D02*
X169900000Y-79100000D01*
X153035000Y-163830000D02*
X126230000Y-163830000D01*
X126230000Y-163830000D02*
X126200000Y-163800000D01*
%TO.N,MB=0*%
X34036000Y-166624000D02*
X73406000Y-166624000D01*
%TO.N,Net-(R3-Pad2)*%
X147320000Y-69215000D02*
X46748996Y-69215000D01*
X41329999Y-99329999D02*
X29733999Y-99329999D01*
X45120000Y-103120000D02*
X41329999Y-99329999D01*
X29733999Y-99329999D02*
X21590000Y-91186000D01*
X21590000Y-91186000D02*
X21590000Y-74422000D01*
X26797000Y-69215000D02*
X46748996Y-69215000D01*
X21590000Y-74422000D02*
X26797000Y-69215000D01*
%TO.N,Z-BIT*%
X114935000Y-167640000D02*
X79375000Y-167640000D01*
X156000000Y-47580000D02*
X158070000Y-47580000D01*
X158070000Y-47580000D02*
X160655000Y-50165000D01*
X160655000Y-54775000D02*
X163620000Y-57740000D01*
X160655000Y-50165000D02*
X160655000Y-54775000D01*
X139250001Y-151490001D02*
X152039999Y-151490001D01*
X152039999Y-151490001D02*
X168275000Y-135255000D01*
X138000000Y-150240000D02*
X139250001Y-151490001D01*
%TO.N,~ISZ*%
X79375000Y-165735000D02*
X77470000Y-165735000D01*
X158115000Y-165735000D02*
X79375000Y-165735000D01*
%TO.N,Net-(U17-Pad6)*%
X186690000Y-137795000D02*
X205740000Y-137795000D01*
%TO.N,Net-(U17-Pad12)*%
X217805000Y-126365000D02*
X176530000Y-126365000D01*
%TO.N,Net-(U17-Pad2)*%
X220345000Y-154940000D02*
X188595000Y-154940000D01*
%TO.N,C-BUS*%
X207645000Y-132244958D02*
X207825010Y-132064948D01*
X207645000Y-147637500D02*
X207645000Y-132244958D01*
%TO.N,Net-(U10-Pad3)*%
X161925000Y-124460000D02*
X205460000Y-124460000D01*
%TO.N,Net-(U5-Pad6)*%
X213360000Y-73025000D02*
X196850000Y-73025000D01*
%TO.N,Net-(U12-Pad3)*%
X188595000Y-122555000D02*
X219355000Y-122555000D01*
X219355000Y-122555000D02*
X219400000Y-122600000D01*
%TO.N,~T2-9.ISZ*%
X217550000Y-120650000D02*
X217600000Y-120700000D01*
X190500000Y-120650000D02*
X217550000Y-120650000D01*
%TO.N,/R0(1-20*%
X31000000Y-36900000D02*
X147799996Y-36900000D01*
X147799996Y-36900000D02*
X147800000Y-36899996D01*
%TO.N,MEMORY_ENABLE*%
X48260000Y-74930000D02*
X140970000Y-74930000D01*
X140970000Y-74930000D02*
X172350010Y-74930000D01*
%TO.N,T2-9*%
X199390000Y-113665000D02*
X199390000Y-95885000D01*
%TO.N,JMS+DCA*%
X164465000Y-73025000D02*
X186690000Y-73025000D01*
X170815000Y-147320000D02*
X170815000Y-137160000D01*
%TO.N,T13*%
X199183061Y-118745000D02*
X199363071Y-118564990D01*
X158750000Y-118745000D02*
X199183061Y-118745000D01*
%TO.N,MCP*%
X170815000Y-90805000D02*
X108585000Y-90805000D01*
%TO.N,Net-(U1-Pad11)*%
X93980000Y-95885000D02*
X93980000Y-113030000D01*
X86995000Y-81915000D02*
X40585000Y-81915000D01*
%TO.N,~MA7*%
X129200000Y-35900000D02*
X34100000Y-35900000D01*
X34100000Y-35900000D02*
X32700000Y-34500000D01*
X134620000Y-30480000D02*
X129200000Y-35900000D01*
%TO.N,MA7*%
X85725000Y-163830000D02*
X115570000Y-163830000D01*
X83820000Y-38100000D02*
X83820000Y-38100000D01*
X83819992Y-38099992D02*
X83820000Y-38100000D01*
X35740018Y-38099992D02*
X83819992Y-38099992D01*
X34925000Y-38915010D02*
X35740018Y-38099992D01*
X83820000Y-38100000D02*
X77470000Y-38100000D01*
%TO.N,~F+D+E*%
X142875000Y-76835000D02*
X201295000Y-76835000D01*
%TO.N,OPR+IOT*%
X175895000Y-165735000D02*
X186055000Y-165735000D01*
%TO.N,T1*%
X221615000Y-73025000D02*
X225425000Y-73025000D01*
X193675000Y-165735000D02*
X192405000Y-165735000D01*
X225425000Y-165735000D02*
X193675000Y-165735000D01*
%TO.N,~WE*%
X102235000Y-65405000D02*
X173990000Y-65405000D01*
X83140000Y-55200000D02*
X84137500Y-56197500D01*
X80000000Y-55200000D02*
X83140000Y-55200000D01*
D19*
X84137500Y-56197500D02*
X84290001Y-56350001D01*
D20*
X97854999Y-56450001D02*
X99060000Y-55245000D01*
X84390001Y-56450001D02*
X97854999Y-56450001D01*
X84290001Y-56350001D02*
X84390001Y-56450001D01*
X108455000Y-55245000D02*
X108500000Y-55200000D01*
X99060000Y-55245000D02*
X108455000Y-55245000D01*
%TO.N,~CS_L*%
X52070000Y-71120000D02*
X116205000Y-71120000D01*
X113030000Y-34814990D02*
X112131975Y-34814990D01*
X112131975Y-34814990D02*
X104140000Y-34814990D01*
%TO.N,~CS_H*%
X50165000Y-73025000D02*
X87630000Y-73025000D01*
X87665000Y-60325000D02*
X87620000Y-60280000D01*
X99695000Y-60325000D02*
X87665000Y-60325000D01*
D19*
%TO.N,D-IN*%
X83140000Y-57740000D02*
X84455000Y-59055000D01*
D20*
X104775000Y-67310000D02*
X216535000Y-67310000D01*
X38735000Y-127635000D02*
X80010000Y-127635000D01*
X104775000Y-67310000D02*
X29210000Y-67310000D01*
X109014874Y-127635000D02*
X80010000Y-127635000D01*
X112395000Y-127635000D02*
X109014874Y-127635000D01*
X87630000Y-33655000D02*
X90805000Y-33655000D01*
X90805000Y-33655000D02*
X91440000Y-33655000D01*
D19*
X91440000Y-59055000D02*
X98425000Y-59055000D01*
X84455000Y-59055000D02*
X91440000Y-59055000D01*
X98425000Y-59055000D02*
X99695000Y-57785000D01*
D20*
X108455000Y-57785000D02*
X108500000Y-57740000D01*
X99695000Y-57785000D02*
X108455000Y-57785000D01*
X84429999Y-59029999D02*
X98450001Y-59029999D01*
X83140000Y-57740000D02*
X84429999Y-59029999D01*
X98450001Y-59029999D02*
X99695000Y-57785000D01*
X80000000Y-57740000D02*
X83140000Y-57740000D01*
D19*
%TO.N,MA_C*%
X87620000Y-52660000D02*
X94025000Y-52660000D01*
X94025000Y-52660000D02*
X97200000Y-52660000D01*
D20*
X87620000Y-52660000D02*
X84410000Y-52660000D01*
X73685001Y-51409999D02*
X73660000Y-51435000D01*
X83159999Y-51409999D02*
X73685001Y-51409999D01*
X84410000Y-52660000D02*
X83159999Y-51409999D01*
X73660000Y-48895000D02*
X73660000Y-41910000D01*
X87620000Y-52660000D02*
X97200000Y-52660000D01*
X112369999Y-51409999D02*
X113620000Y-52660000D01*
X98450001Y-51409999D02*
X112369999Y-51409999D01*
X97200000Y-52660000D02*
X98450001Y-51409999D01*
X113620000Y-52660000D02*
X116120000Y-52660000D01*
%TO.N,MA_B*%
X71120000Y-41910000D02*
X71120000Y-48895000D01*
X71145001Y-53949999D02*
X83159999Y-53949999D01*
X71120000Y-53975000D02*
X71145001Y-53949999D01*
X83159999Y-53949999D02*
X84410000Y-55200000D01*
X84410000Y-55200000D02*
X87620000Y-55200000D01*
X112369999Y-53949999D02*
X113620000Y-55200000D01*
X98360001Y-53949999D02*
X112369999Y-53949999D01*
X113620000Y-55200000D02*
X116120000Y-55200000D01*
X97110000Y-55200000D02*
X98360001Y-53949999D01*
X87620000Y-55200000D02*
X97110000Y-55200000D01*
%TO.N,MA_A*%
X68580000Y-48895000D02*
X68580000Y-41910000D01*
X83159999Y-56489999D02*
X68605001Y-56489999D01*
X83809999Y-57139999D02*
X83159999Y-56489999D01*
X83830001Y-57139999D02*
X83809999Y-57139999D01*
X68605001Y-56489999D02*
X68580000Y-56515000D01*
X84430002Y-57740000D02*
X83830001Y-57139999D01*
X87620000Y-57740000D02*
X84430002Y-57740000D01*
X111734999Y-56489999D02*
X112985000Y-57740000D01*
X98995001Y-56489999D02*
X111734999Y-56489999D01*
X97745000Y-57740000D02*
X98995001Y-56489999D01*
X87620000Y-57740000D02*
X97745000Y-57740000D01*
X112985000Y-57740000D02*
X116120000Y-57740000D01*
%TO.N,Net-(U1-Pad12)*%
X199390000Y-84455000D02*
X37845000Y-84455000D01*
%TO.N,/WEIRD.NET*%
X167005000Y-82550000D02*
X113030000Y-82550000D01*
%TO.N,Net-(U17-Pad4)*%
X195580000Y-113665000D02*
X195580000Y-95885000D01*
%TO.N,Net-(U11-Pad6)*%
X92330000Y-134875000D02*
X92075000Y-134620000D01*
X92075000Y-134620000D02*
X92075000Y-152739990D01*
X205900000Y-160000000D02*
X206000000Y-159900000D01*
X99300000Y-160000000D02*
X205900000Y-160000000D01*
%TO.N,Net-(U11-Pad11)*%
X171450000Y-102870000D02*
X165100000Y-102870000D01*
%TD*%
M02*
