%TF.GenerationSoftware,KiCad,Pcbnew,(5.1.10-1-10_14)*%
%TF.CreationDate,2021-07-04T08:15:42+10:00*%
%TF.ProjectId,256 word memory_2.0,32353620-776f-4726-9420-6d656d6f7279,rev?*%
%TF.SameCoordinates,Original*%
%TF.FileFunction,Copper,L2,Bot*%
%TF.FilePolarity,Positive*%
%FSLAX46Y46*%
G04 Gerber Fmt 4.6, Leading zero omitted, Abs format (unit mm)*
G04 Created by KiCad (PCBNEW (5.1.10-1-10_14)) date 2021-07-04 08:15:42*
%MOMM*%
%LPD*%
G01*
G04 APERTURE LIST*
%TA.AperFunction,ComponentPad*%
%ADD10C,1.700000*%
%TD*%
%TA.AperFunction,ComponentPad*%
%ADD11C,2.000000*%
%TD*%
%TA.AperFunction,ComponentPad*%
%ADD12C,5.000000*%
%TD*%
%TA.AperFunction,ComponentPad*%
%ADD13R,1.700000X1.700000*%
%TD*%
%TA.AperFunction,ComponentPad*%
%ADD14C,1.600000*%
%TD*%
%TA.AperFunction,ComponentPad*%
%ADD15O,1.600000X1.600000*%
%TD*%
%TA.AperFunction,ComponentPad*%
%ADD16R,1.600000X1.600000*%
%TD*%
%TA.AperFunction,ConnectorPad*%
%ADD17R,2.540000X10.000000*%
%TD*%
%TA.AperFunction,ViaPad*%
%ADD18C,2.000000*%
%TD*%
%TA.AperFunction,ViaPad*%
%ADD19C,1.270000*%
%TD*%
%TA.AperFunction,Conductor*%
%ADD20C,0.500000*%
%TD*%
%TA.AperFunction,Conductor*%
%ADD21C,2.000000*%
%TD*%
%TA.AperFunction,Conductor*%
%ADD22C,1.000000*%
%TD*%
%TA.AperFunction,Conductor*%
%ADD23C,1.500000*%
%TD*%
%TA.AperFunction,Conductor*%
%ADD24C,0.300000*%
%TD*%
%TA.AperFunction,Conductor*%
%ADD25C,0.250000*%
%TD*%
%TA.AperFunction,Conductor*%
%ADD26C,0.254000*%
%TD*%
%TA.AperFunction,Conductor*%
%ADD27C,0.100000*%
%TD*%
G04 APERTURE END LIST*
D10*
%TO.P,J9,40*%
%TO.N,Net-(J9-Pad40)*%
X55880000Y-27940000D03*
%TO.P,J9,38*%
%TO.N,MA_A*%
X58420000Y-27940000D03*
%TO.P,J9,36*%
%TO.N,MA_B*%
X60960000Y-27940000D03*
%TO.P,J9,34*%
%TO.N,MA_C*%
X63500000Y-27940000D03*
%TO.P,J9,32*%
%TO.N,MA0*%
X66040000Y-27940000D03*
%TO.P,J9,30*%
%TO.N,MA1*%
X68580000Y-27940000D03*
%TO.P,J9,28*%
%TO.N,MA2*%
X71120000Y-27940000D03*
%TO.P,J9,26*%
%TO.N,MA3*%
X73660000Y-27940000D03*
%TO.P,J9,24*%
%TO.N,MA4*%
X76200000Y-27940000D03*
%TO.P,J9,22*%
%TO.N,MA5*%
X78740000Y-27940000D03*
%TO.P,J9,20*%
%TO.N,MA6*%
X81280000Y-27940000D03*
%TO.P,J9,18*%
%TO.N,MA7*%
X83820000Y-27940000D03*
%TO.P,J9,16*%
%TO.N,D-IN*%
X86360000Y-27940000D03*
%TO.P,J9,14*%
%TO.N,D-BUS*%
X88900000Y-27940000D03*
%TO.P,J9,12*%
%TO.N,~CS_H*%
X91440000Y-27940000D03*
%TO.P,J9,10*%
%TO.N,~CS_L*%
X93980000Y-27940000D03*
%TO.P,J9,8*%
%TO.N,~WE*%
X96520000Y-27940000D03*
%TO.P,J9,6*%
%TO.N,+5V*%
X99060000Y-27940000D03*
%TO.P,J9,4*%
X101600000Y-27940000D03*
%TO.P,J9,2*%
X104140000Y-27940000D03*
%TO.P,J9,39*%
%TO.N,GND*%
X55880000Y-25400000D03*
%TO.P,J9,37*%
X58420000Y-25400000D03*
%TO.P,J9,35*%
X60960000Y-25400000D03*
%TO.P,J9,33*%
X63500000Y-25400000D03*
%TO.P,J9,31*%
X66040000Y-25400000D03*
%TO.P,J9,29*%
X68580000Y-25400000D03*
%TO.P,J9,27*%
X71120000Y-25400000D03*
%TO.P,J9,25*%
X73660000Y-25400000D03*
%TO.P,J9,23*%
X76200000Y-25400000D03*
%TO.P,J9,21*%
X78740000Y-25400000D03*
%TO.P,J9,19*%
X81280000Y-25400000D03*
%TO.P,J9,17*%
X83820000Y-25400000D03*
%TO.P,J9,15*%
X86360000Y-25400000D03*
%TO.P,J9,13*%
X88900000Y-25400000D03*
%TO.P,J9,11*%
X91440000Y-25400000D03*
%TO.P,J9,9*%
X93980000Y-25400000D03*
%TO.P,J9,7*%
X96520000Y-25400000D03*
%TO.P,J9,5*%
X99060000Y-25400000D03*
%TO.P,J9,3*%
X101600000Y-25400000D03*
%TO.P,J9,1*%
%TA.AperFunction,ComponentPad*%
G36*
G01*
X103540000Y-24550000D02*
X104740000Y-24550000D01*
G75*
G02*
X104990000Y-24800000I0J-250000D01*
G01*
X104990000Y-26000000D01*
G75*
G02*
X104740000Y-26250000I-250000J0D01*
G01*
X103540000Y-26250000D01*
G75*
G02*
X103290000Y-26000000I0J250000D01*
G01*
X103290000Y-24800000D01*
G75*
G02*
X103540000Y-24550000I250000J0D01*
G01*
G37*
%TD.AperFunction*%
%TD*%
D11*
%TO.P,J3,1*%
%TO.N,MCP*%
X173355000Y-105500000D03*
%TD*%
D12*
%TO.P,H2,1*%
%TO.N,GND*%
X234500000Y-23000000D03*
X144500000Y-23000000D03*
%TD*%
%TO.P,H1,1*%
%TO.N,GND*%
X114500000Y-23000000D03*
X24500000Y-23000000D03*
%TD*%
D13*
%TO.P,J8,1*%
%TO.N,MA6*%
X129540000Y-30480000D03*
%TD*%
%TO.P,J7,1*%
%TO.N,MA5*%
X124460000Y-30480000D03*
%TD*%
%TO.P,J6,1*%
%TO.N,~MA7*%
X134620000Y-30480000D03*
%TD*%
%TO.P,J5,1*%
%TO.N,PC7*%
X27940000Y-109460000D03*
%TD*%
%TO.P,J4,1*%
%TO.N,~PC7*%
X27940000Y-103505000D03*
%TD*%
D14*
%TO.P,C5,2*%
%TO.N,GND*%
X236203500Y-142303500D03*
%TO.P,C5,1*%
%TO.N,+5V*%
X231203500Y-142303500D03*
%TD*%
%TO.P,C4,2*%
%TO.N,GND*%
X21162000Y-154940000D03*
%TO.P,C4,1*%
%TO.N,+5V*%
X26162000Y-154940000D03*
%TD*%
%TO.P,C3,2*%
%TO.N,GND*%
X23321000Y-117856000D03*
%TO.P,C3,1*%
%TO.N,+5V*%
X28321000Y-117856000D03*
%TD*%
%TO.P,C2,2*%
%TO.N,GND*%
X235759000Y-60198000D03*
%TO.P,C2,1*%
%TO.N,+5V*%
X230759000Y-60198000D03*
%TD*%
%TO.P,C1,2*%
%TO.N,GND*%
X29527500Y-60388500D03*
%TO.P,C1,1*%
%TO.N,+5V*%
X34527500Y-60388500D03*
%TD*%
D15*
%TO.P,U17,14*%
%TO.N,+5V*%
X176500000Y-150240000D03*
%TO.P,U17,7*%
%TO.N,GND*%
X184120000Y-135000000D03*
%TO.P,U17,13*%
%TO.N,~T14-21(JMS+JMP)*%
X176500000Y-147700000D03*
%TO.P,U17,6*%
%TO.N,Net-(U17-Pad6)*%
X184120000Y-137540000D03*
%TO.P,U17,12*%
%TO.N,Net-(U17-Pad12)*%
X176500000Y-145160000D03*
%TO.P,U17,5*%
%TO.N,Net-(U12-Pad3)*%
X184120000Y-140080000D03*
%TO.P,U17,11*%
%TO.N,~DEP*%
X176500000Y-142620000D03*
%TO.P,U17,4*%
%TO.N,Net-(U17-Pad4)*%
X184120000Y-142620000D03*
%TO.P,U17,10*%
%TO.N,Net-(U10-Pad5)*%
X176500000Y-140080000D03*
%TO.P,U17,3*%
%TO.N,OPR+IOT*%
X184120000Y-145160000D03*
%TO.P,U17,9*%
%TO.N,Net-(U11-Pad11)*%
X176500000Y-137540000D03*
%TO.P,U17,2*%
%TO.N,Net-(U17-Pad2)*%
X184120000Y-147700000D03*
%TO.P,U17,8*%
%TO.N,/WEIRD.NET*%
X176500000Y-135000000D03*
D16*
%TO.P,U17,1*%
%TO.N,~T2-9.ISZ*%
X184120000Y-150240000D03*
%TD*%
D15*
%TO.P,U6,14*%
%TO.N,+5V*%
X210000000Y-57740000D03*
%TO.P,U6,7*%
%TO.N,GND*%
X217620000Y-42500000D03*
%TO.P,U6,13*%
%TO.N,Net-(U17-Pad4)*%
X210000000Y-55200000D03*
%TO.P,U6,6*%
%TO.N,Net-(U1-Pad12)*%
X217620000Y-45040000D03*
%TO.P,U6,12*%
%TO.N,~F+D+E*%
X210000000Y-52660000D03*
%TO.P,U6,5*%
%TO.N,Net-(U6-Pad5)*%
X217620000Y-47580000D03*
%TO.P,U6,11*%
%TO.N,Net-(U6-Pad10)*%
X210000000Y-50120000D03*
%TO.P,U6,4*%
%TO.N,T1*%
X217620000Y-50120000D03*
%TO.P,U6,10*%
%TO.N,Net-(U6-Pad10)*%
X210000000Y-47580000D03*
%TO.P,U6,3*%
%TO.N,Net-(U12-Pad2)*%
X217620000Y-52660000D03*
%TO.P,U6,9*%
%TO.N,Net-(U6-Pad10)*%
X210000000Y-45040000D03*
%TO.P,U6,2*%
%TO.N,Net-(U5-Pad6)*%
X217620000Y-55200000D03*
%TO.P,U6,8*%
%TO.N,Net-(U6-Pad5)*%
X210000000Y-42500000D03*
D16*
%TO.P,U6,1*%
%TO.N,Net-(U5-Pad6)*%
X217620000Y-57740000D03*
%TD*%
D15*
%TO.P,U5,14*%
%TO.N,+5V*%
X176500000Y-57740000D03*
%TO.P,U5,7*%
%TO.N,GND*%
X184120000Y-42500000D03*
%TO.P,U5,13*%
%TO.N,Net-(U12-Pad10)*%
X176500000Y-55200000D03*
%TO.P,U5,6*%
%TO.N,Net-(U5-Pad6)*%
X184120000Y-45040000D03*
%TO.P,U5,12*%
%TO.N,Net-(U5-Pad12)*%
X176500000Y-52660000D03*
%TO.P,U5,5*%
%TO.N,MEMORY_ENABLE*%
X184120000Y-47580000D03*
%TO.P,U5,11*%
%TO.N,Net-(U11-Pad9)*%
X176500000Y-50120000D03*
%TO.P,U5,4*%
%TO.N,Net-(U5-Pad4)*%
X184120000Y-50120000D03*
%TO.P,U5,10*%
%TO.N,Net-(U11-Pad9)*%
X176500000Y-47580000D03*
%TO.P,U5,3*%
%TO.N,Net-(U5-Pad12)*%
X184120000Y-52660000D03*
%TO.P,U5,9*%
%TO.N,Net-(U11-Pad9)*%
X176500000Y-45040000D03*
%TO.P,U5,2*%
%TO.N,T2-9*%
X184120000Y-55200000D03*
%TO.P,U5,8*%
%TO.N,Net-(U5-Pad4)*%
X176500000Y-42500000D03*
D16*
%TO.P,U5,1*%
%TO.N,JMS+DCA*%
X184120000Y-57740000D03*
%TD*%
D15*
%TO.P,U10,14*%
%TO.N,+5V*%
X138000000Y-110740000D03*
%TO.P,U10,7*%
%TO.N,GND*%
X145620000Y-95500000D03*
%TO.P,U10,13*%
%TO.N,~F.23.OPR+IOT*%
X138000000Y-108200000D03*
%TO.P,U10,6*%
%TO.N,Net-(U10-Pad10)*%
X145620000Y-98040000D03*
%TO.P,U10,12*%
X138000000Y-105660000D03*
%TO.P,U10,5*%
%TO.N,Net-(U10-Pad5)*%
X145620000Y-100580000D03*
%TO.P,U10,11*%
%TO.N,Net-(U10-Pad11)*%
X138000000Y-103120000D03*
%TO.P,U10,4*%
%TO.N,T13*%
X145620000Y-103120000D03*
%TO.P,U10,10*%
%TO.N,Net-(U10-Pad10)*%
X138000000Y-100580000D03*
%TO.P,U10,3*%
%TO.N,Net-(U10-Pad3)*%
X145620000Y-105660000D03*
%TO.P,U10,9*%
%TO.N,Net-(U10-Pad10)*%
X138000000Y-98040000D03*
%TO.P,U10,2*%
%TO.N,~DEP*%
X145620000Y-108200000D03*
%TO.P,U10,8*%
%TO.N,Net-(U10-Pad8)*%
X138000000Y-95500000D03*
D16*
%TO.P,U10,1*%
%TO.N,~ISZ*%
X145620000Y-110740000D03*
%TD*%
D15*
%TO.P,U18,14*%
%TO.N,+5V*%
X210000000Y-150240000D03*
%TO.P,U18,7*%
%TO.N,GND*%
X217620000Y-135000000D03*
%TO.P,U18,13*%
%TO.N,C-BUS*%
X210000000Y-147700000D03*
%TO.P,U18,6*%
%TO.N,Net-(U17-Pad12)*%
X217620000Y-137540000D03*
%TO.P,U18,12*%
%TO.N,D-BUS*%
X210000000Y-145160000D03*
%TO.P,U18,5*%
%TO.N,MA0*%
X217620000Y-140080000D03*
%TO.P,U18,11*%
%TO.N,Net-(U17-Pad6)*%
X210000000Y-142620000D03*
%TO.P,U18,4*%
%TO.N,C-BUS*%
X217620000Y-142620000D03*
%TO.P,U18,10*%
X210000000Y-140080000D03*
%TO.P,U18,3*%
%TO.N,D-BUS*%
X217620000Y-145160000D03*
%TO.P,U18,9*%
%TO.N,Net-(U12-Pad8)*%
X210000000Y-137540000D03*
%TO.P,U18,2*%
%TO.N,Net-(U17-Pad2)*%
X217620000Y-147700000D03*
%TO.P,U18,8*%
%TO.N,MB0*%
X210000000Y-135000000D03*
D16*
%TO.P,U18,1*%
%TO.N,B-BUS*%
X217620000Y-150240000D03*
%TD*%
D15*
%TO.P,U12,14*%
%TO.N,+5V*%
X210000000Y-110740000D03*
%TO.P,U12,7*%
%TO.N,GND*%
X217620000Y-95500000D03*
%TO.P,U12,13*%
%TO.N,Net-(U10-Pad3)*%
X210000000Y-108200000D03*
%TO.P,U12,6*%
%TO.N,D-IN*%
X217620000Y-98040000D03*
%TO.P,U12,12*%
%TO.N,T14-21*%
X210000000Y-105660000D03*
%TO.P,U12,5*%
%TO.N,C-BUS*%
X217620000Y-100580000D03*
%TO.P,U12,11*%
%TO.N,Net-(U12-Pad10)*%
X210000000Y-103120000D03*
%TO.P,U12,4*%
%TO.N,C-BUS*%
X217620000Y-103120000D03*
%TO.P,U12,10*%
%TO.N,Net-(U12-Pad10)*%
X210000000Y-100580000D03*
%TO.P,U12,3*%
%TO.N,Net-(U12-Pad3)*%
X217620000Y-105660000D03*
%TO.P,U12,9*%
%TO.N,Net-(U12-Pad10)*%
X210000000Y-98040000D03*
%TO.P,U12,2*%
%TO.N,Net-(U12-Pad2)*%
X217620000Y-108200000D03*
%TO.P,U12,8*%
%TO.N,Net-(U12-Pad8)*%
X210000000Y-95500000D03*
D16*
%TO.P,U12,1*%
%TO.N,~T2-9.ISZ*%
X217620000Y-110740000D03*
%TD*%
D15*
%TO.P,U19,14*%
%TO.N,+5V*%
X156000000Y-57740000D03*
%TO.P,U19,7*%
%TO.N,GND*%
X163620000Y-42500000D03*
%TO.P,U19,13*%
%TO.N,Net-(R4-Pad2)*%
X156000000Y-55200000D03*
%TO.P,U19,6*%
%TO.N,MB3*%
X163620000Y-45040000D03*
%TO.P,U19,12*%
%TO.N,MB4*%
X156000000Y-52660000D03*
%TO.P,U19,5*%
%TO.N,MB3*%
X163620000Y-47580000D03*
%TO.P,U19,11*%
%TO.N,Net-(R3-Pad2)*%
X156000000Y-50120000D03*
%TO.P,U19,4*%
%TO.N,Z-BIT*%
X163620000Y-50120000D03*
%TO.P,U19,10*%
X156000000Y-47580000D03*
%TO.P,U19,3*%
%TO.N,Net-(R4-Pad2)*%
X163620000Y-52660000D03*
%TO.P,U19,9*%
%TO.N,~F.23.OPR+IOT*%
X156000000Y-45040000D03*
%TO.P,U19,2*%
%TO.N,MB7*%
X163620000Y-55200000D03*
%TO.P,U19,8*%
%TO.N,~F.23.OPR+IOT*%
X156000000Y-42500000D03*
D16*
%TO.P,U19,1*%
%TO.N,Z-BIT*%
X163620000Y-57740000D03*
%TD*%
D15*
%TO.P,R5,2*%
%TO.N,Z-BIT*%
X152400000Y-47840000D03*
D14*
%TO.P,R5,1*%
%TO.N,+5V*%
X152400000Y-58000000D03*
%TD*%
D15*
%TO.P,R4,2*%
%TO.N,Net-(R4-Pad2)*%
X167000000Y-47840000D03*
D14*
%TO.P,R4,1*%
%TO.N,+5V*%
X167000000Y-58000000D03*
%TD*%
D15*
%TO.P,R3,2*%
%TO.N,Net-(R3-Pad2)*%
X149225000Y-47840000D03*
D14*
%TO.P,R3,1*%
%TO.N,+5V*%
X149225000Y-58000000D03*
%TD*%
D15*
%TO.P,U2,16*%
%TO.N,+5V*%
X80000000Y-60280000D03*
%TO.P,U2,8*%
%TO.N,GND*%
X87620000Y-42500000D03*
%TO.P,U2,15*%
%TO.N,D-IN*%
X80000000Y-57740000D03*
%TO.P,U2,7*%
%TO.N,D-BUS*%
X87620000Y-45040000D03*
%TO.P,U2,14*%
%TO.N,~WE*%
X80000000Y-55200000D03*
%TO.P,U2,6*%
%TO.N,MA1*%
X87620000Y-47580000D03*
%TO.P,U2,13*%
%TO.N,MA6*%
X80000000Y-52660000D03*
%TO.P,U2,5*%
%TO.N,MA0*%
X87620000Y-50120000D03*
%TO.P,U2,12*%
%TO.N,MA5*%
X80000000Y-50120000D03*
%TO.P,U2,4*%
%TO.N,MA_C*%
X87620000Y-52660000D03*
%TO.P,U2,11*%
%TO.N,MA4*%
X80000000Y-47580000D03*
%TO.P,U2,3*%
%TO.N,MA_B*%
X87620000Y-55200000D03*
%TO.P,U2,10*%
%TO.N,MA3*%
X80000000Y-45040000D03*
%TO.P,U2,2*%
%TO.N,MA_A*%
X87620000Y-57740000D03*
%TO.P,U2,9*%
%TO.N,MA2*%
X80000000Y-42500000D03*
D16*
%TO.P,U2,1*%
%TO.N,~CS_H*%
X87620000Y-60280000D03*
%TD*%
D17*
%TO.P,J2,16*%
%TO.N,MB7*%
X23464000Y-174100000D03*
%TO.P,J2,15*%
%TO.N,MB6*%
X27426400Y-174100000D03*
%TO.P,J2,14*%
%TO.N,MB5*%
X31388800Y-174100000D03*
%TO.P,J2,13*%
%TO.N,MB4*%
X35351200Y-174100000D03*
%TO.P,J2,12*%
%TO.N,MB3*%
X39313600Y-174100000D03*
%TO.P,J2,11*%
%TO.N,MB2*%
X43276000Y-174100000D03*
%TO.P,J2,10*%
%TO.N,MB1*%
X47238400Y-174100000D03*
%TO.P,J2,9*%
%TO.N,MB0*%
X51200800Y-174100000D03*
%TO.P,J2,8*%
%TO.N,MA4*%
X55163200Y-174100000D03*
%TO.P,J2,7*%
%TO.N,MA3*%
X59125600Y-174100000D03*
%TO.P,J2,6*%
%TO.N,MA2*%
X63088000Y-174100000D03*
%TO.P,J2,5*%
%TO.N,MA1*%
X67050400Y-174100000D03*
%TO.P,J2,4*%
%TO.N,MA0*%
X71012800Y-174100000D03*
%TO.P,J2,3*%
%TO.N,~ISZ*%
X74975200Y-174100000D03*
%TO.P,J2,2*%
%TO.N,Z-BIT*%
X78937600Y-174100000D03*
%TO.P,J2,1*%
%TO.N,MB=0*%
X82900000Y-174100000D03*
%TD*%
D15*
%TO.P,U16,16*%
%TO.N,+5V*%
X138000000Y-152780000D03*
%TO.P,U16,8*%
%TO.N,GND*%
X145620000Y-135000000D03*
%TO.P,U16,15*%
%TO.N,Z-BIT*%
X138000000Y-150240000D03*
%TO.P,U16,7*%
%TO.N,Net-(U15-Pad5)*%
X145620000Y-137540000D03*
%TO.P,U16,14*%
%TO.N,MA7*%
X138000000Y-147700000D03*
%TO.P,U16,6*%
%TO.N,SR4*%
X145620000Y-140080000D03*
%TO.P,U16,13*%
%TO.N,SR7*%
X138000000Y-145160000D03*
%TO.P,U16,5*%
%TO.N,MA4*%
X145620000Y-142620000D03*
%TO.P,U16,12*%
%TO.N,Net-(U15-Pad2)*%
X138000000Y-142620000D03*
%TO.P,U16,4*%
%TO.N,Net-(U15-Pad4)*%
X145620000Y-145160000D03*
%TO.P,U16,11*%
%TO.N,MA6*%
X138000000Y-140080000D03*
%TO.P,U16,3*%
%TO.N,SR5*%
X145620000Y-147700000D03*
%TO.P,U16,10*%
%TO.N,SR6*%
X138000000Y-137540000D03*
%TO.P,U16,2*%
%TO.N,MA5*%
X145620000Y-150240000D03*
%TO.P,U16,9*%
%TO.N,Net-(U15-Pad3)*%
X138000000Y-135000000D03*
D16*
%TO.P,U16,1*%
%TO.N,~F.23.OPR+IOT*%
X145620000Y-152780000D03*
%TD*%
D15*
%TO.P,U13,14*%
%TO.N,+5V*%
X37500000Y-150240000D03*
%TO.P,U13,7*%
%TO.N,GND*%
X45120000Y-135000000D03*
%TO.P,U13,13*%
%TO.N,MB5*%
X37500000Y-147700000D03*
%TO.P,U13,6*%
%TO.N,MB=0*%
X45120000Y-137540000D03*
%TO.P,U13,12*%
X37500000Y-145160000D03*
%TO.P,U13,5*%
%TO.N,MB2*%
X45120000Y-140080000D03*
%TO.P,U13,11*%
%TO.N,MB6*%
X37500000Y-142620000D03*
%TO.P,U13,4*%
%TO.N,MB=0*%
X45120000Y-142620000D03*
%TO.P,U13,10*%
X37500000Y-140080000D03*
%TO.P,U13,3*%
%TO.N,MB3*%
X45120000Y-145160000D03*
%TO.P,U13,9*%
%TO.N,MB7*%
X37500000Y-137540000D03*
%TO.P,U13,2*%
%TO.N,MB=0*%
X45120000Y-147700000D03*
%TO.P,U13,8*%
X37500000Y-135000000D03*
D16*
%TO.P,U13,1*%
%TO.N,MB4*%
X45120000Y-150240000D03*
%TD*%
D15*
%TO.P,U7,14*%
%TO.N,+5V*%
X37500000Y-110740000D03*
%TO.P,U7,7*%
%TO.N,GND*%
X45120000Y-95500000D03*
%TO.P,U7,13*%
%TO.N,PC7*%
X37500000Y-108200000D03*
%TO.P,U7,6*%
%TO.N,MB=0*%
X45120000Y-98040000D03*
%TO.P,U7,12*%
%TO.N,~PC7*%
X37500000Y-105660000D03*
%TO.P,U7,5*%
%TO.N,MB0*%
X45120000Y-100580000D03*
%TO.P,U7,11*%
%TO.N,~T0.5*%
X37500000Y-103120000D03*
%TO.P,U7,4*%
%TO.N,Net-(R3-Pad2)*%
X45120000Y-103120000D03*
%TO.P,U7,10*%
%TO.N,/R0(1-20*%
X37500000Y-100580000D03*
%TO.P,U7,3*%
%TO.N,MB5*%
X45120000Y-105660000D03*
%TO.P,U7,9*%
%TO.N,MA7*%
X37500000Y-98040000D03*
%TO.P,U7,2*%
%TO.N,MB=0*%
X45120000Y-108200000D03*
%TO.P,U7,8*%
%TO.N,~MA7*%
X37500000Y-95500000D03*
D16*
%TO.P,U7,1*%
%TO.N,MB1*%
X45120000Y-110740000D03*
%TD*%
D17*
%TO.P,J1,31*%
%TO.N,SR7*%
X116662400Y-174200000D03*
%TO.P,J1,32*%
%TO.N,GND*%
X112700000Y-174200000D03*
%TO.P,J1,20*%
%TO.N,Net-(J1-Pad20)*%
X160248800Y-174200000D03*
%TO.P,J1,21*%
%TO.N,Net-(J1-Pad21)*%
X156286400Y-174200000D03*
%TO.P,J1,22*%
%TO.N,~F+D+E*%
X152324000Y-174200000D03*
%TO.P,J1,23*%
%TO.N,MEMORY_ENABLE*%
X148361600Y-174200000D03*
%TO.P,J1,24*%
%TO.N,SR0*%
X144399200Y-174200000D03*
%TO.P,J1,25*%
%TO.N,SR1*%
X140436800Y-174200000D03*
%TO.P,J1,26*%
%TO.N,SR2*%
X136474400Y-174200000D03*
%TO.P,J1,27*%
%TO.N,SR3*%
X132512000Y-174200000D03*
%TO.P,J1,28*%
%TO.N,SR4*%
X128549600Y-174200000D03*
%TO.P,J1,29*%
%TO.N,SR5*%
X124587200Y-174200000D03*
%TO.P,J1,30*%
%TO.N,SR6*%
X120624800Y-174200000D03*
%TO.P,J1,19*%
%TO.N,~DEP*%
X164211200Y-174200000D03*
%TO.P,J1,18*%
%TO.N,JMS+DCA*%
X168173600Y-174200000D03*
%TO.P,J1,17*%
%TO.N,~T14-21(JMS+JMP)*%
X172136000Y-174200000D03*
%TO.P,J1,16*%
%TO.N,OPR+IOT*%
X176098400Y-174200000D03*
%TO.P,J1,15*%
%TO.N,~T2-9(F+D+E)*%
X180060800Y-174200000D03*
%TO.P,J1,14*%
%TO.N,~F.23.OPR+IOT*%
X184023200Y-174200000D03*
%TO.P,J1,13*%
%TO.N,~T2-9.ISZ*%
X187985600Y-174200000D03*
%TO.P,J1,12*%
%TO.N,T1*%
X191948000Y-174200000D03*
%TO.P,J1,11*%
%TO.N,T2-9*%
X195910400Y-174200000D03*
%TO.P,J1,10*%
%TO.N,T13*%
X199872800Y-174200000D03*
%TO.P,J1,9*%
%TO.N,MCP*%
X203835200Y-174200000D03*
%TO.P,J1,8*%
%TO.N,T14-21*%
X207797600Y-174200000D03*
%TO.P,J1,7*%
%TO.N,~T0.5*%
X211760000Y-174200000D03*
%TO.P,J1,6*%
%TO.N,D-BUS*%
X215722400Y-174200000D03*
%TO.P,J1,5*%
%TO.N,C-BUS*%
X219684800Y-174200000D03*
%TO.P,J1,4*%
%TO.N,B-BUS*%
X223647200Y-174200000D03*
%TO.P,J1,3*%
%TO.N,+5V*%
X227609600Y-174200000D03*
%TO.P,J1,2*%
X231572000Y-174200000D03*
%TO.P,J1,1*%
%TO.N,GND*%
X235534400Y-174200000D03*
%TD*%
D15*
%TO.P,R1,2*%
%TO.N,/R0(1-20*%
X32385000Y-100600000D03*
D14*
%TO.P,R1,1*%
%TO.N,+5V*%
X32385000Y-110760000D03*
%TD*%
D15*
%TO.P,R2,2*%
%TO.N,MB=0*%
X29845000Y-132080000D03*
D14*
%TO.P,R2,1*%
%TO.N,+5V*%
X29845000Y-121920000D03*
%TD*%
D15*
%TO.P,U1,14*%
%TO.N,+5V*%
X37500000Y-57740000D03*
%TO.P,U1,7*%
%TO.N,GND*%
X45120000Y-42500000D03*
%TO.P,U1,13*%
%TO.N,Net-(U1-Pad12)*%
X37500000Y-55200000D03*
%TO.P,U1,6*%
%TO.N,~CS_L*%
X45120000Y-45040000D03*
%TO.P,U1,12*%
%TO.N,Net-(U1-Pad12)*%
X37500000Y-52660000D03*
%TO.P,U1,5*%
%TO.N,Net-(U1-Pad5)*%
X45120000Y-47580000D03*
%TO.P,U1,11*%
%TO.N,Net-(U1-Pad11)*%
X37500000Y-50120000D03*
%TO.P,U1,4*%
%TO.N,MEMORY_ENABLE*%
X45120000Y-50120000D03*
%TO.P,U1,10*%
%TO.N,MA7*%
X37500000Y-47580000D03*
%TO.P,U1,3*%
%TO.N,~CS_H*%
X45120000Y-52660000D03*
%TO.P,U1,9*%
%TO.N,MA7*%
X37500000Y-45040000D03*
%TO.P,U1,2*%
%TO.N,MEMORY_ENABLE*%
X45120000Y-55200000D03*
%TO.P,U1,8*%
%TO.N,Net-(U1-Pad5)*%
X37500000Y-42500000D03*
D16*
%TO.P,U1,1*%
%TO.N,MA7*%
X45120000Y-57740000D03*
%TD*%
D15*
%TO.P,U3,16*%
%TO.N,+5V*%
X108500000Y-60280000D03*
%TO.P,U3,8*%
%TO.N,GND*%
X116120000Y-42500000D03*
%TO.P,U3,15*%
%TO.N,D-IN*%
X108500000Y-57740000D03*
%TO.P,U3,7*%
%TO.N,D-BUS*%
X116120000Y-45040000D03*
%TO.P,U3,14*%
%TO.N,~WE*%
X108500000Y-55200000D03*
%TO.P,U3,6*%
%TO.N,MA1*%
X116120000Y-47580000D03*
%TO.P,U3,13*%
%TO.N,MA6*%
X108500000Y-52660000D03*
%TO.P,U3,5*%
%TO.N,MA0*%
X116120000Y-50120000D03*
%TO.P,U3,12*%
%TO.N,MA5*%
X108500000Y-50120000D03*
%TO.P,U3,4*%
%TO.N,MA_C*%
X116120000Y-52660000D03*
%TO.P,U3,11*%
%TO.N,MA4*%
X108500000Y-47580000D03*
%TO.P,U3,3*%
%TO.N,MA_B*%
X116120000Y-55200000D03*
%TO.P,U3,10*%
%TO.N,MA3*%
X108500000Y-45040000D03*
%TO.P,U3,2*%
%TO.N,MA_A*%
X116120000Y-57740000D03*
%TO.P,U3,9*%
%TO.N,MA2*%
X108500000Y-42500000D03*
D16*
%TO.P,U3,1*%
%TO.N,~CS_L*%
X116120000Y-60280000D03*
%TD*%
D15*
%TO.P,U4,14*%
%TO.N,Net-(U4-Pad14)*%
X138000000Y-57740000D03*
%TO.P,U4,7*%
%TO.N,N/C*%
X145620000Y-42500000D03*
%TO.P,U4,13*%
X138000000Y-55200000D03*
%TO.P,U4,6*%
X145620000Y-45040000D03*
%TO.P,U4,12*%
%TO.N,Net-(U4-Pad12)*%
X138000000Y-52660000D03*
%TO.P,U4,5*%
%TO.N,+5V*%
X145620000Y-47580000D03*
%TO.P,U4,11*%
%TO.N,MA_C*%
X138000000Y-50120000D03*
%TO.P,U4,4*%
%TO.N,N/C*%
X145620000Y-50120000D03*
%TO.P,U4,10*%
%TO.N,GND*%
X138000000Y-47580000D03*
%TO.P,U4,3*%
%TO.N,/R0(1-20*%
X145620000Y-52660000D03*
%TO.P,U4,9*%
%TO.N,MA_A*%
X138000000Y-45040000D03*
%TO.P,U4,2*%
%TO.N,/R0(1-20*%
X145620000Y-55200000D03*
%TO.P,U4,8*%
%TO.N,MA_B*%
X138000000Y-42500000D03*
D16*
%TO.P,U4,1*%
%TO.N,/WEIRD.NET*%
X145620000Y-57740000D03*
%TD*%
D15*
%TO.P,U8,16*%
%TO.N,~T0.5*%
X80000000Y-113280000D03*
%TO.P,U8,8*%
%TO.N,Net-(U1-Pad11)*%
X87620000Y-95500000D03*
%TO.P,U8,15*%
%TO.N,MA4*%
X80000000Y-110740000D03*
%TO.P,U8,7*%
%TO.N,MB0*%
X87620000Y-98040000D03*
%TO.P,U8,14*%
%TO.N,MA3*%
X80000000Y-108200000D03*
%TO.P,U8,6*%
%TO.N,MB1*%
X87620000Y-100580000D03*
%TO.P,U8,13*%
%TO.N,MA2*%
X80000000Y-105660000D03*
%TO.P,U8,5*%
%TO.N,+5V*%
X87620000Y-103120000D03*
%TO.P,U8,12*%
%TO.N,GND*%
X80000000Y-103120000D03*
%TO.P,U8,4*%
%TO.N,MB2*%
X87620000Y-105660000D03*
%TO.P,U8,11*%
%TO.N,MA1*%
X80000000Y-100580000D03*
%TO.P,U8,3*%
%TO.N,MB3*%
X87620000Y-108200000D03*
%TO.P,U8,10*%
%TO.N,MA0*%
X80000000Y-98040000D03*
%TO.P,U8,2*%
%TO.N,MB4*%
X87620000Y-110740000D03*
%TO.P,U8,9*%
%TO.N,MA5*%
X80000000Y-95500000D03*
D16*
%TO.P,U8,1*%
%TO.N,Net-(U11-Pad6)*%
X87620000Y-113280000D03*
%TD*%
D15*
%TO.P,U9,14*%
%TO.N,+5V*%
X108500000Y-110740000D03*
%TO.P,U9,7*%
%TO.N,GND*%
X116120000Y-95500000D03*
%TO.P,U9,13*%
%TO.N,MB3*%
X108500000Y-108200000D03*
%TO.P,U9,6*%
%TO.N,Net-(U10-Pad8)*%
X116120000Y-98040000D03*
%TO.P,U9,12*%
%TO.N,MB2*%
X108500000Y-105660000D03*
%TO.P,U9,5*%
%TO.N,SR0*%
X116120000Y-100580000D03*
%TO.P,U9,11*%
%TO.N,MB1*%
X108500000Y-103120000D03*
%TO.P,U9,4*%
%TO.N,SR1*%
X116120000Y-103120000D03*
%TO.P,U9,10*%
%TO.N,MB0*%
X108500000Y-100580000D03*
%TO.P,U9,3*%
%TO.N,SR2*%
X116120000Y-105660000D03*
%TO.P,U9,9*%
%TO.N,/WEIRD.NET*%
X108500000Y-98040000D03*
%TO.P,U9,2*%
%TO.N,SR3*%
X116120000Y-108200000D03*
%TO.P,U9,8*%
%TO.N,MCP*%
X108500000Y-95500000D03*
D16*
%TO.P,U9,1*%
%TO.N,MB4*%
X116120000Y-110740000D03*
%TD*%
D15*
%TO.P,U11,14*%
%TO.N,+5V*%
X176500000Y-110740000D03*
%TO.P,U11,7*%
%TO.N,GND*%
X184120000Y-95500000D03*
%TO.P,U11,13*%
%TO.N,MEMORY_ENABLE*%
X176500000Y-108200000D03*
%TO.P,U11,6*%
%TO.N,Net-(U11-Pad6)*%
X184120000Y-98040000D03*
%TO.P,U11,12*%
%TO.N,MCP*%
X176500000Y-105660000D03*
%TO.P,U11,5*%
X184120000Y-100580000D03*
%TO.P,U11,11*%
%TO.N,Net-(U11-Pad11)*%
X176500000Y-103120000D03*
%TO.P,U11,4*%
%TO.N,Net-(U11-Pad3)*%
X184120000Y-103120000D03*
%TO.P,U11,10*%
%TO.N,MCP*%
X176500000Y-100580000D03*
%TO.P,U11,3*%
%TO.N,Net-(U11-Pad3)*%
X184120000Y-105660000D03*
%TO.P,U11,9*%
%TO.N,Net-(U11-Pad9)*%
X176500000Y-98040000D03*
%TO.P,U11,2*%
%TO.N,~T14-21(JMS+JMP)*%
X184120000Y-108200000D03*
%TO.P,U11,8*%
%TO.N,~WE*%
X176500000Y-95500000D03*
D16*
%TO.P,U11,1*%
%TO.N,~T2-9(F+D+E)*%
X184120000Y-110740000D03*
%TD*%
D15*
%TO.P,U14,16*%
%TO.N,~T0.5*%
X80000000Y-152780000D03*
%TO.P,U14,8*%
%TO.N,Net-(U1-Pad11)*%
X87620000Y-135000000D03*
%TO.P,U14,15*%
%TO.N,MA7*%
X80000000Y-150240000D03*
%TO.P,U14,7*%
%TO.N,Net-(U14-Pad7)*%
X87620000Y-137540000D03*
%TO.P,U14,14*%
%TO.N,MA6*%
X80000000Y-147700000D03*
%TO.P,U14,6*%
%TO.N,Net-(U14-Pad6)*%
X87620000Y-140080000D03*
%TO.P,U14,13*%
%TO.N,MA5*%
X80000000Y-145160000D03*
%TO.P,U14,5*%
%TO.N,+5V*%
X87620000Y-142620000D03*
%TO.P,U14,12*%
%TO.N,GND*%
X80000000Y-142620000D03*
%TO.P,U14,4*%
%TO.N,MB5*%
X87620000Y-145160000D03*
%TO.P,U14,11*%
%TO.N,Net-(U14-Pad11)*%
X80000000Y-140080000D03*
%TO.P,U14,3*%
%TO.N,MB6*%
X87620000Y-147700000D03*
%TO.P,U14,10*%
%TO.N,Net-(U14-Pad10)*%
X80000000Y-137540000D03*
%TO.P,U14,2*%
%TO.N,MB7*%
X87620000Y-150240000D03*
%TO.P,U14,9*%
%TO.N,D-IN*%
X80000000Y-135000000D03*
D16*
%TO.P,U14,1*%
%TO.N,Net-(U11-Pad6)*%
X87620000Y-152780000D03*
%TD*%
D15*
%TO.P,U15,14*%
%TO.N,+5V*%
X108500000Y-150240000D03*
%TO.P,U15,7*%
%TO.N,GND*%
X116120000Y-135000000D03*
%TO.P,U15,13*%
%TO.N,MB7*%
X108500000Y-147700000D03*
%TO.P,U15,6*%
%TO.N,Net-(U10-Pad11)*%
X116120000Y-137540000D03*
%TO.P,U15,12*%
%TO.N,MB6*%
X108500000Y-145160000D03*
%TO.P,U15,5*%
%TO.N,Net-(U15-Pad5)*%
X116120000Y-140080000D03*
%TO.P,U15,11*%
%TO.N,MB5*%
X108500000Y-142620000D03*
%TO.P,U15,4*%
%TO.N,Net-(U15-Pad4)*%
X116120000Y-142620000D03*
%TO.P,U15,10*%
%TO.N,MB4*%
X108500000Y-140080000D03*
%TO.P,U15,3*%
%TO.N,Net-(U15-Pad3)*%
X116120000Y-145160000D03*
%TO.P,U15,9*%
%TO.N,/WEIRD.NET*%
X108500000Y-137540000D03*
%TO.P,U15,2*%
%TO.N,Net-(U15-Pad2)*%
X116120000Y-147700000D03*
%TO.P,U15,8*%
%TO.N,MCP*%
X108500000Y-135000000D03*
D16*
%TO.P,U15,1*%
%TO.N,D-IN*%
X116120000Y-150240000D03*
%TD*%
D18*
%TO.N,+5V*%
X75565000Y-60325000D03*
X37465000Y-60325000D03*
X80010000Y-62865000D03*
X108585000Y-62865000D03*
X142240000Y-62865000D03*
X107950000Y-116205000D03*
X37465000Y-116205000D03*
X86995000Y-116205000D03*
X231572000Y-116408000D03*
X136525000Y-155575000D03*
X107950000Y-155575000D03*
X231572000Y-152603000D03*
X176733000Y-152603000D03*
X175895000Y-155575000D03*
X227965000Y-62865000D03*
X150495000Y-62865000D03*
X166370000Y-62865000D03*
X156210000Y-62865000D03*
X227965000Y-116205000D03*
X34925000Y-154940000D03*
X105410000Y-154940000D03*
X137922000Y-116205000D03*
X176530000Y-116205000D03*
X210058000Y-116205000D03*
X208788000Y-62865000D03*
X178735000Y-62865000D03*
X209797000Y-152603000D03*
%TO.N,MA2*%
X76835000Y-105800012D03*
X51045012Y-105799988D03*
%TO.N,MA3*%
X67310000Y-108585000D03*
X52705000Y-108585000D03*
%TO.N,MA4*%
X76835000Y-110490000D03*
X124460000Y-118745000D03*
X52705000Y-118745000D03*
X50800000Y-110490000D03*
D19*
X82919996Y-47580000D03*
D18*
%TO.N,MA5*%
X139065000Y-129540000D03*
D19*
X74930000Y-50165000D03*
X62865000Y-50165000D03*
X112395000Y-30480000D03*
X78714952Y-30280203D03*
D18*
X73659990Y-129540000D03*
%TO.N,MA0*%
X77470000Y-97790000D03*
X119380000Y-71120000D03*
X219078993Y-71120000D03*
D19*
X95205000Y-50120000D03*
D18*
X54590000Y-97790000D03*
D19*
X95250000Y-34814990D03*
X66040000Y-34814990D03*
D18*
%TO.N,MA6*%
X95885000Y-161925000D03*
X114300000Y-161925000D03*
D19*
X61595000Y-52705000D03*
X112394982Y-32385000D03*
X81280000Y-32384994D03*
D18*
%TO.N,MA1*%
X77085000Y-100580000D03*
D19*
X85770000Y-47580000D03*
X85725000Y-33655000D03*
X68580000Y-33655000D03*
D18*
X52500000Y-100400000D03*
%TO.N,GND*%
X235585000Y-40005000D03*
X133985000Y-47625000D03*
X68580000Y-93345000D03*
X235585000Y-93345000D03*
X116205000Y-93345000D03*
X184150000Y-93345000D03*
X45087102Y-93347102D03*
X120650000Y-150495000D03*
X146685000Y-132080000D03*
X45085000Y-132080000D03*
X76200000Y-132080000D03*
X184150000Y-132080000D03*
X184150000Y-128905000D03*
X235534400Y-128854400D03*
X116840000Y-132080000D03*
X218567000Y-128905000D03*
X146177000Y-93345000D03*
X217932000Y-93345000D03*
X37973000Y-132080000D03*
X32766000Y-132080000D03*
X25654000Y-129540000D03*
X26289000Y-93345000D03*
X163995000Y-40005000D03*
X184305000Y-40005000D03*
X116205004Y-40004996D03*
X87629993Y-40385030D03*
X217712188Y-40097812D03*
X45720058Y-40005000D03*
%TO.N,~T0.5*%
X69850000Y-113030000D03*
X59690000Y-113030000D03*
X210185000Y-157861000D03*
X80010000Y-157861000D03*
%TO.N,MB0*%
X210185000Y-88900000D03*
X52000000Y-88600000D03*
X85199994Y-88900000D03*
%TO.N,MB1*%
X83312000Y-90932000D03*
X44958000Y-90805000D03*
%TO.N,MB2*%
X103505000Y-125095000D03*
X42544998Y-125095000D03*
%TO.N,MB3*%
X102870000Y-120650000D03*
X45720000Y-120650000D03*
X158115000Y-69215000D03*
X168275000Y-69215000D03*
X166400000Y-120700000D03*
%TO.N,MB4*%
X46355000Y-123190000D03*
X97155000Y-123190000D03*
X118745000Y-123190000D03*
X116120000Y-113750000D03*
X159385000Y-113665000D03*
%TO.N,MB7*%
X23638400Y-158115000D03*
X77470000Y-158115000D03*
X99695000Y-110490000D03*
X99695000Y-96520000D03*
X128905000Y-73025000D03*
X160020000Y-73025000D03*
X104140000Y-137160000D03*
X104140000Y-149860000D03*
%TO.N,MB6*%
X95250000Y-147955000D03*
X102235000Y-147955000D03*
X27600800Y-161925000D03*
X92710000Y-161925000D03*
%TO.N,MB5*%
X95250000Y-145415000D03*
X102235000Y-145415000D03*
X31563200Y-160020000D03*
X88265000Y-160020000D03*
%TO.N,Net-(U15-Pad2)*%
X133985000Y-137795000D03*
X133985000Y-142240000D03*
%TO.N,~F.23.OPR+IOT*%
X184150000Y-163830000D03*
X153035000Y-163830000D03*
X137900000Y-79100000D03*
X170000000Y-79000000D03*
X126200000Y-163800000D03*
%TO.N,MB=0*%
X34036000Y-166624000D03*
X73025000Y-166624000D03*
%TO.N,Net-(R3-Pad2)*%
X147320000Y-69215000D03*
%TO.N,Z-BIT*%
X79375000Y-167640000D03*
X114935000Y-167640000D03*
X168275000Y-135255000D03*
%TO.N,~ISZ*%
X77470000Y-165735000D03*
X158115000Y-165735000D03*
%TO.N,Net-(U17-Pad6)*%
X186690000Y-137795000D03*
X205740000Y-137795000D03*
%TO.N,Net-(U17-Pad12)*%
X217805000Y-126365000D03*
X176530000Y-126365000D03*
%TO.N,Net-(U17-Pad2)*%
X220345000Y-154940000D03*
X188595000Y-154940000D03*
%TO.N,C-BUS*%
X207645000Y-147637500D03*
X207825010Y-132064948D03*
%TO.N,Net-(U10-Pad3)*%
X161925000Y-124460000D03*
X205460000Y-124460000D03*
%TO.N,Net-(U5-Pad6)*%
X213360000Y-73025000D03*
X196850000Y-73025000D03*
%TO.N,Net-(U12-Pad3)*%
X188595000Y-122555000D03*
X219400000Y-122600000D03*
%TO.N,~T2-9.ISZ*%
X190500000Y-120650000D03*
X217600000Y-120700000D03*
%TO.N,/R0(1-20*%
X31000000Y-36900000D03*
X147800000Y-36899996D03*
%TO.N,MEMORY_ENABLE*%
X48260000Y-74930000D03*
X140970000Y-74930000D03*
X172350010Y-74930000D03*
%TO.N,T2-9*%
X199390000Y-113665000D03*
X199390000Y-95885000D03*
%TO.N,JMS+DCA*%
X170815000Y-147320000D03*
X164465000Y-73025000D03*
X186690000Y-73025000D03*
X170815000Y-137160000D03*
%TO.N,T13*%
X199363071Y-118564990D03*
X158750000Y-118745000D03*
%TO.N,MCP*%
X170815000Y-90805000D03*
X108585000Y-90805000D03*
%TO.N,Net-(U1-Pad11)*%
X86995000Y-81915000D03*
X93980000Y-113030000D03*
X93980000Y-95885000D03*
X40585000Y-81915000D03*
%TO.N,~MA7*%
X32700000Y-34500000D03*
%TO.N,MA7*%
X85725000Y-163830000D03*
X115570000Y-163830000D03*
X34925000Y-38915010D03*
D19*
X83820000Y-38100000D03*
D18*
%TO.N,~F+D+E*%
X142875000Y-76835000D03*
X201295000Y-76835000D03*
%TO.N,OPR+IOT*%
X175895000Y-165735000D03*
X186055000Y-165735000D03*
%TO.N,T1*%
X221615000Y-73025000D03*
X192405000Y-165735000D03*
X225425000Y-73025000D03*
X225425000Y-165735000D03*
%TO.N,~WE*%
X102235000Y-65405000D03*
X173990000Y-65405000D03*
%TO.N,~CS_L*%
X116205000Y-71120000D03*
X52070000Y-71120000D03*
D19*
X104140000Y-34814990D03*
X113030000Y-34814990D03*
D18*
%TO.N,~CS_H*%
X50165000Y-73025000D03*
X87630000Y-73025000D03*
D19*
X99695000Y-60325000D03*
D18*
%TO.N,D-IN*%
X104775000Y-67310000D03*
X216535000Y-67310000D03*
X80010000Y-127635000D03*
X38735000Y-127635000D03*
X29210000Y-67310000D03*
X112395000Y-127635000D03*
D19*
X87630000Y-33655000D03*
X91440000Y-33655000D03*
X91440000Y-59055000D03*
%TO.N,MA_C*%
X73660000Y-51435000D03*
X73660000Y-48895000D03*
X73660000Y-41910000D03*
%TO.N,MA_B*%
X71120000Y-53975000D03*
X71120000Y-48895000D03*
X71120000Y-41910000D03*
%TO.N,MA_A*%
X68580000Y-56515000D03*
X68580000Y-48895000D03*
X68580000Y-41910000D03*
D18*
%TO.N,Net-(U1-Pad12)*%
X199390000Y-84455000D03*
X37845000Y-84455000D03*
%TO.N,/WEIRD.NET*%
X113030000Y-82550000D03*
X167005000Y-82550000D03*
%TO.N,Net-(U17-Pad4)*%
X195580000Y-113665000D03*
X195580000Y-95885000D03*
%TO.N,Net-(U11-Pad6)*%
X92075000Y-134620000D03*
X92075000Y-152739990D03*
X99300000Y-160000000D03*
X206000000Y-159900000D03*
%TO.N,Net-(U11-Pad11)*%
X171450000Y-102870000D03*
X165100000Y-102870000D03*
%TD*%
D20*
%TO.N,D-BUS*%
X217620000Y-145160000D02*
X210000000Y-145160000D01*
X87620000Y-45040000D02*
X88945000Y-45040000D01*
X88945000Y-45040000D02*
X89535000Y-44450000D01*
X89535000Y-44450000D02*
X89535000Y-38100000D01*
X88900000Y-37465000D02*
X88900000Y-27940000D01*
X89535000Y-38100000D02*
X88900000Y-37465000D01*
X205105000Y-146050000D02*
X205995000Y-145160000D01*
X209575000Y-155600000D02*
X205105000Y-151130000D01*
X211100000Y-155600000D02*
X209575000Y-155600000D01*
X205995000Y-145160000D02*
X210000000Y-145160000D01*
X205105000Y-151130000D02*
X205105000Y-146050000D01*
X215722400Y-160222400D02*
X211100000Y-155600000D01*
X215722400Y-174200000D02*
X215722400Y-160222400D01*
X217660000Y-145200000D02*
X217620000Y-145160000D01*
X223500000Y-143600000D02*
X221900000Y-145200000D01*
X221900000Y-145200000D02*
X217660000Y-145200000D01*
X223500000Y-37445000D02*
X223500000Y-143600000D01*
X132145000Y-33655000D02*
X219710000Y-33655000D01*
X120760000Y-45040000D02*
X132145000Y-33655000D01*
X219710000Y-33655000D02*
X223500000Y-37445000D01*
X116120000Y-45040000D02*
X120760000Y-45040000D01*
D21*
%TO.N,+5V*%
X75610000Y-60280000D02*
X75565000Y-60325000D01*
X80000000Y-60280000D02*
X75610000Y-60280000D01*
X80000000Y-62855000D02*
X80010000Y-62865000D01*
X80000000Y-60280000D02*
X80000000Y-62855000D01*
X145620000Y-47580000D02*
X142920000Y-47580000D01*
X142920000Y-47580000D02*
X142240000Y-48260000D01*
X142240000Y-48260000D02*
X142240000Y-62865000D01*
X108500000Y-115655000D02*
X107950000Y-116205000D01*
X108500000Y-110740000D02*
X108500000Y-115655000D01*
X32385000Y-111125000D02*
X32385000Y-114935000D01*
X29845000Y-117475000D02*
X29845000Y-121920000D01*
X31432500Y-115887500D02*
X37147500Y-115887500D01*
X32385000Y-114935000D02*
X31432500Y-115887500D01*
X37147500Y-115887500D02*
X37465000Y-116205000D01*
X31432500Y-115887500D02*
X29845000Y-117475000D01*
D22*
X85725000Y-103505000D02*
X85725000Y-114935000D01*
X86110000Y-103120000D02*
X85725000Y-103505000D01*
X85725000Y-114935000D02*
X86995000Y-116205000D01*
X87620000Y-103120000D02*
X86110000Y-103120000D01*
D21*
X136525000Y-155575000D02*
X138000000Y-154100000D01*
X138000000Y-154100000D02*
X138000000Y-152780000D01*
X108500000Y-155025000D02*
X107950000Y-155575000D01*
X108500000Y-150240000D02*
X108500000Y-155025000D01*
X227965000Y-173844600D02*
X227609600Y-174200000D01*
X166370000Y-58630000D02*
X167000000Y-58000000D01*
X166370000Y-62865000D02*
X166370000Y-58630000D01*
X150495000Y-59270000D02*
X149225000Y-58000000D01*
X150495000Y-62865000D02*
X150495000Y-59270000D01*
X149225000Y-58000000D02*
X152400000Y-58000000D01*
X108500000Y-62780000D02*
X108585000Y-62865000D01*
X108500000Y-60280000D02*
X108500000Y-62780000D01*
X34925000Y-152815000D02*
X37500000Y-150240000D01*
X34925000Y-154940000D02*
X34925000Y-152815000D01*
X99695000Y-145415000D02*
X96900000Y-142620000D01*
X96900000Y-142620000D02*
X87620000Y-142620000D01*
X99695000Y-149225000D02*
X99695000Y-145415000D01*
X105410000Y-154940000D02*
X99695000Y-149225000D01*
X32770000Y-110740000D02*
X32385000Y-111125000D01*
X37500000Y-110740000D02*
X32770000Y-110740000D01*
X138000000Y-116127000D02*
X137922000Y-116205000D01*
X138000000Y-110740000D02*
X138000000Y-116127000D01*
X176500000Y-116175000D02*
X176530000Y-116205000D01*
X176500000Y-110740000D02*
X176500000Y-116175000D01*
X210000000Y-116147000D02*
X210058000Y-116205000D01*
X210000000Y-110740000D02*
X210000000Y-116147000D01*
X37500000Y-60290000D02*
X37465000Y-60325000D01*
X37500000Y-57740000D02*
X37500000Y-60290000D01*
X210000000Y-61653000D02*
X208788000Y-62865000D01*
X210000000Y-57740000D02*
X210000000Y-61653000D01*
X29464000Y-117856000D02*
X29845000Y-117475000D01*
X28321000Y-117856000D02*
X29464000Y-117856000D01*
X34527500Y-60388500D02*
X37401500Y-60388500D01*
X176500000Y-60630000D02*
X178735000Y-62865000D01*
X176500000Y-57740000D02*
X176500000Y-60630000D01*
X176500000Y-152370000D02*
X176733000Y-152603000D01*
X176500000Y-150240000D02*
X176500000Y-152370000D01*
X156000000Y-62655000D02*
X156210000Y-62865000D01*
X156000000Y-57740000D02*
X156000000Y-62655000D01*
X210000000Y-152400000D02*
X209797000Y-152603000D01*
X210000000Y-150240000D02*
X210000000Y-152400000D01*
D23*
X226695000Y-56134000D02*
X230759000Y-60198000D01*
X226695000Y-35560000D02*
X226695000Y-56134000D01*
X222885000Y-31750000D02*
X226695000Y-35560000D01*
X139300002Y-31750000D02*
X222885000Y-31750000D01*
X135490002Y-27940000D02*
X139300002Y-31750000D01*
X104140000Y-27940000D02*
X135490002Y-27940000D01*
X99060000Y-27940000D02*
X104140000Y-27940000D01*
D21*
X227609600Y-174200000D02*
X231572000Y-174200000D01*
X227609600Y-174200000D02*
X227609600Y-172190400D01*
X231572000Y-168228000D02*
X231572000Y-152603000D01*
X227609600Y-172190400D02*
X231572000Y-168228000D01*
D20*
%TO.N,Net-(U1-Pad5)*%
X43135000Y-47580000D02*
X45120000Y-47580000D01*
X41910000Y-46355000D02*
X43135000Y-47580000D01*
X41910000Y-43910000D02*
X41910000Y-46355000D01*
X40500000Y-42500000D02*
X41910000Y-43910000D01*
X37500000Y-42500000D02*
X40500000Y-42500000D01*
%TO.N,MA2*%
X80000000Y-42500000D02*
X79200001Y-43299999D01*
X79200001Y-43299999D02*
X75049999Y-43299999D01*
X80000000Y-105660000D02*
X76975012Y-105660000D01*
X76975012Y-105660000D02*
X76835000Y-105800012D01*
X53199988Y-105799988D02*
X51045012Y-105799988D01*
X54610000Y-107210000D02*
X53199988Y-105799988D01*
X54610000Y-115570000D02*
X54610000Y-107210000D01*
X56515000Y-117475000D02*
X54610000Y-115570000D01*
X56515000Y-120650000D02*
X56515000Y-117475000D01*
X63262400Y-127397400D02*
X56515000Y-120650000D01*
X63262400Y-174100000D02*
X63262400Y-127397400D01*
X71120000Y-33020000D02*
X71120000Y-27940000D01*
X75049999Y-36949999D02*
X71120000Y-33020000D01*
X75049999Y-43299999D02*
X75049999Y-36949999D01*
X80040000Y-105700000D02*
X80000000Y-105660000D01*
X66040000Y-110490000D02*
X66040000Y-115570000D01*
X83185000Y-115815000D02*
X83185000Y-107185000D01*
X81700000Y-105700000D02*
X80040000Y-105700000D01*
X75049999Y-43299999D02*
X65920001Y-43299999D01*
X80890000Y-118110000D02*
X83185000Y-115815000D01*
X68580000Y-118110000D02*
X80890000Y-118110000D01*
X65920001Y-43299999D02*
X64135000Y-45085000D01*
X64135000Y-108585000D02*
X66040000Y-110490000D01*
X83185000Y-107185000D02*
X81700000Y-105700000D01*
X66040000Y-115570000D02*
X68580000Y-118110000D01*
X64135000Y-45085000D02*
X64135000Y-108585000D01*
%TO.N,MA3*%
X65405000Y-46355000D02*
X66720000Y-45040000D01*
X81915000Y-114935000D02*
X80010000Y-116840000D01*
X80895000Y-108200000D02*
X81915000Y-109220000D01*
X81915000Y-109220000D02*
X81915000Y-114935000D01*
X66720000Y-45040000D02*
X80000000Y-45040000D01*
X80000000Y-108200000D02*
X80895000Y-108200000D01*
X65405000Y-106680000D02*
X65405000Y-105410000D01*
X67310000Y-108585000D02*
X65405000Y-106680000D01*
X65405000Y-105410000D02*
X65405000Y-46355000D01*
X67310000Y-114300000D02*
X69850000Y-116840000D01*
X67310000Y-108585000D02*
X67310000Y-114300000D01*
X80010000Y-116840000D02*
X69850000Y-116840000D01*
X61595000Y-163830000D02*
X59300000Y-166125000D01*
X61595000Y-127635000D02*
X61595000Y-163830000D01*
X55245000Y-118745000D02*
X55245000Y-121285000D01*
X52700000Y-116200000D02*
X55245000Y-118745000D01*
X52705000Y-108585000D02*
X52700000Y-108590000D01*
X52700000Y-108590000D02*
X52700000Y-116200000D01*
X59300000Y-166125000D02*
X59300000Y-174100000D01*
X55245000Y-121285000D02*
X61595000Y-127635000D01*
X73660000Y-33020000D02*
X73660000Y-27940000D01*
X81915000Y-44450000D02*
X81915000Y-41275000D01*
X81915000Y-41275000D02*
X73660000Y-33020000D01*
X81325000Y-45040000D02*
X81915000Y-44450000D01*
X80000000Y-45040000D02*
X81325000Y-45040000D01*
D24*
%TO.N,MA4*%
X80000000Y-47580000D02*
X77515000Y-47580000D01*
D20*
X79750000Y-110490000D02*
X80000000Y-110740000D01*
X76835000Y-110490000D02*
X79750000Y-110490000D01*
X80000000Y-47580000D02*
X67990000Y-47580000D01*
X67990000Y-47580000D02*
X66675000Y-48895000D01*
X66675000Y-48895000D02*
X66675000Y-104140000D01*
X73025000Y-110490000D02*
X76835000Y-110490000D01*
X66675000Y-104140000D02*
X73025000Y-110490000D01*
X50800000Y-116840000D02*
X52705000Y-118745000D01*
X50800000Y-110490000D02*
X50800000Y-116840000D01*
X55163200Y-166451800D02*
X55163200Y-174100000D01*
X60325000Y-161290000D02*
X55163200Y-166451800D01*
X60325000Y-128270000D02*
X60325000Y-161290000D01*
X53975000Y-120015000D02*
X53975000Y-121920000D01*
X53975000Y-121920000D02*
X60325000Y-128270000D01*
X52705000Y-118745000D02*
X53975000Y-120015000D01*
X82919996Y-39739996D02*
X82919996Y-47580000D01*
X76200000Y-27940000D02*
X76200000Y-33020000D01*
X76200000Y-33020000D02*
X82919996Y-39739996D01*
X124460000Y-124260000D02*
X124460000Y-118745000D01*
X125600000Y-125400000D02*
X124460000Y-124260000D01*
X139370000Y-125400000D02*
X125600000Y-125400000D01*
X143422500Y-129452500D02*
X139370000Y-125400000D01*
X145620000Y-142620000D02*
X144120000Y-142620000D01*
X143422500Y-141922500D02*
X143422500Y-129452500D01*
X144120000Y-142620000D02*
X143422500Y-141922500D01*
%TO.N,MA5*%
X74975000Y-50120000D02*
X74930000Y-50165000D01*
X80000000Y-50120000D02*
X74975000Y-50120000D01*
X123110000Y-30480000D02*
X124460000Y-30480000D01*
X108500000Y-50120000D02*
X109265000Y-50120000D01*
X110490000Y-32385000D02*
X112395000Y-30480000D01*
X110490000Y-48895000D02*
X110490000Y-32385000D01*
X109265000Y-50120000D02*
X110490000Y-48895000D01*
X112395000Y-30480000D02*
X123110000Y-30480000D01*
X112395000Y-30480000D02*
X112395000Y-30480000D01*
X78740000Y-30255155D02*
X78714952Y-30280203D01*
X78740000Y-27940000D02*
X78740000Y-30255155D01*
X80000000Y-145160000D02*
X74675000Y-145160000D01*
X73659990Y-144144990D02*
X73659990Y-129540000D01*
X73659990Y-128125787D02*
X73659990Y-129540000D01*
X73600000Y-119500000D02*
X73659990Y-119559990D01*
X74675000Y-145160000D02*
X73659990Y-144144990D01*
X73659990Y-119559990D02*
X73659990Y-128125787D01*
X81530000Y-95500000D02*
X80000000Y-95500000D01*
X84455000Y-103355000D02*
X82550000Y-101450000D01*
X82550000Y-101450000D02*
X82550000Y-96520000D01*
X64770000Y-116870000D02*
X67280000Y-119380000D01*
X84455000Y-116840000D02*
X84455000Y-103355000D01*
X67280000Y-119380000D02*
X81915000Y-119380000D01*
X82550000Y-96520000D02*
X81530000Y-95500000D01*
X64770000Y-111125000D02*
X64770000Y-116870000D01*
X81915000Y-119380000D02*
X84455000Y-116840000D01*
X62865000Y-109220000D02*
X64770000Y-111125000D01*
X62865000Y-50165000D02*
X62865000Y-109220000D01*
X144525000Y-150240000D02*
X145620000Y-150240000D01*
X140970000Y-131445000D02*
X140970000Y-143605000D01*
X142300000Y-148015000D02*
X144525000Y-150240000D01*
X142300000Y-144935000D02*
X142300000Y-148015000D01*
X140970000Y-143605000D02*
X142300000Y-144935000D01*
X139065000Y-129540000D02*
X140970000Y-131445000D01*
%TO.N,MA0*%
X220820000Y-140080000D02*
X217620000Y-140080000D01*
X219075000Y-73025000D02*
X222250000Y-76200000D01*
X222250000Y-138650000D02*
X220820000Y-140080000D01*
X222250000Y-76200000D02*
X222250000Y-138650000D01*
X219078993Y-73021007D02*
X219075000Y-73025000D01*
X219078993Y-71120000D02*
X219078993Y-73021007D01*
X57150000Y-100350000D02*
X54590000Y-97790000D01*
X71187200Y-166437200D02*
X67945000Y-163195000D01*
X71187200Y-174100000D02*
X71187200Y-166437200D01*
X59055000Y-119380000D02*
X59055000Y-116205000D01*
X67945000Y-128270000D02*
X59055000Y-119380000D01*
X67945000Y-163195000D02*
X67945000Y-128270000D01*
X59055000Y-116205000D02*
X57150000Y-114300000D01*
X57150000Y-114300000D02*
X57150000Y-100350000D01*
X95205000Y-34859990D02*
X95250000Y-34814990D01*
X66040000Y-27940000D02*
X66040000Y-34814990D01*
X95205000Y-50120000D02*
X95205000Y-34859990D01*
X77720000Y-98040000D02*
X80000000Y-98040000D01*
X77500000Y-97820000D02*
X77720000Y-98040000D01*
X85800000Y-50600000D02*
X85800000Y-76125000D01*
X77500000Y-84425000D02*
X77500000Y-97820000D01*
X85800000Y-76125000D02*
X77500000Y-84425000D01*
X86280000Y-50120000D02*
X85800000Y-50600000D01*
X87620000Y-50120000D02*
X86280000Y-50120000D01*
X85900000Y-76000000D02*
X85800000Y-76100000D01*
X114500000Y-76000000D02*
X85900000Y-76000000D01*
X119380000Y-71120000D02*
X114500000Y-76000000D01*
%TO.N,MA6*%
X71755000Y-126365000D02*
X71755000Y-145415000D01*
X74040000Y-147700000D02*
X80000000Y-147700000D01*
X71755000Y-145415000D02*
X74040000Y-147700000D01*
X61595000Y-109855000D02*
X63500000Y-111760000D01*
X63500000Y-111760000D02*
X63500000Y-118110000D01*
X63500000Y-118110000D02*
X71755000Y-126365000D01*
X81660000Y-147700000D02*
X80000000Y-147700000D01*
X83185000Y-149225000D02*
X81660000Y-147700000D01*
X83185000Y-157480000D02*
X83185000Y-149225000D01*
X93980000Y-163830000D02*
X89535000Y-163830000D01*
X89535000Y-163830000D02*
X83185000Y-157480000D01*
X95885000Y-161925000D02*
X93980000Y-163830000D01*
X61595000Y-52705000D02*
X61595000Y-109855000D01*
X129540000Y-31830000D02*
X128985000Y-32385000D01*
X111760017Y-33019965D02*
X112394982Y-32385000D01*
X128985000Y-32385000D02*
X112394982Y-32385000D01*
X129540000Y-30480000D02*
X129540000Y-31830000D01*
X111760017Y-49399983D02*
X111760017Y-33019965D01*
X108500000Y-52660000D02*
X111760017Y-49399983D01*
X81280000Y-32384994D02*
X81280000Y-27940000D01*
X132560000Y-140080000D02*
X138000000Y-140080000D01*
X131800000Y-140840000D02*
X132560000Y-140080000D01*
X131800000Y-143155000D02*
X131800000Y-140840000D01*
X114300000Y-160655000D02*
X131800000Y-143155000D01*
X114300000Y-161925000D02*
X114300000Y-160655000D01*
%TO.N,MA1*%
X85770000Y-47580000D02*
X87620000Y-47580000D01*
X85770000Y-36875000D02*
X85770000Y-47580000D01*
X85770000Y-47580000D02*
X85770000Y-42590000D01*
X85770000Y-33700000D02*
X85725000Y-33655000D01*
X85770000Y-36875000D02*
X85770000Y-33700000D01*
X68580000Y-33655000D02*
X68580000Y-27940000D01*
X55880000Y-114935000D02*
X55880000Y-103780000D01*
X57785000Y-116840000D02*
X55880000Y-114935000D01*
X57785000Y-120015000D02*
X57785000Y-116840000D01*
X55880000Y-103780000D02*
X52500000Y-100400000D01*
X66600000Y-128830000D02*
X57785000Y-120015000D01*
X66600000Y-173475200D02*
X66600000Y-128830000D01*
X67224800Y-174100000D02*
X66600000Y-173475200D01*
X75565000Y-99695000D02*
X76450000Y-100580000D01*
X84500000Y-75520000D02*
X75565000Y-84455000D01*
X84500000Y-48800000D02*
X84500000Y-75520000D01*
X85720000Y-47580000D02*
X84500000Y-48800000D01*
X75565000Y-84455000D02*
X75565000Y-99695000D01*
X76450000Y-100580000D02*
X80000000Y-100580000D01*
X85770000Y-47580000D02*
X85720000Y-47580000D01*
D21*
%TO.N,GND*%
X134030000Y-47580000D02*
X133985000Y-47625000D01*
X138000000Y-47580000D02*
X134030000Y-47580000D01*
X80000000Y-103120000D02*
X70100000Y-103120000D01*
X68580000Y-101600000D02*
X68580000Y-93345000D01*
X70100000Y-103120000D02*
X68580000Y-101600000D01*
X120650000Y-150495000D02*
X107950000Y-163195000D01*
X107950000Y-163195000D02*
X102870000Y-163195000D01*
X102870000Y-163195000D02*
X101600000Y-164465000D01*
D22*
X112140000Y-167640000D02*
X112700000Y-168200000D01*
X112700000Y-168200000D02*
X112700000Y-174200000D01*
X101600000Y-167640000D02*
X102870000Y-167640000D01*
X102870000Y-167640000D02*
X112140000Y-167640000D01*
D21*
X235534400Y-93395600D02*
X235585000Y-93345000D01*
X145620000Y-133145000D02*
X146685000Y-132080000D01*
X145620000Y-135000000D02*
X145620000Y-133145000D01*
X80000000Y-142620000D02*
X77215000Y-142620000D01*
X76200000Y-141605000D02*
X76200000Y-132080000D01*
X77215000Y-142620000D02*
X76200000Y-141605000D01*
X29464000Y-60388500D02*
X25844500Y-60388500D01*
X25844500Y-60388500D02*
X25717500Y-60515500D01*
X116205000Y-95415000D02*
X116120000Y-95500000D01*
X116205000Y-93345000D02*
X116205000Y-95415000D01*
X116840000Y-132080000D02*
X116120000Y-135000000D01*
X217620000Y-129852000D02*
X218567000Y-128905000D01*
X217620000Y-135000000D02*
X217620000Y-129852000D01*
X184120000Y-132110000D02*
X184150000Y-132080000D01*
X184120000Y-135000000D02*
X184120000Y-132110000D01*
X45085000Y-134965000D02*
X45120000Y-135000000D01*
X45085000Y-132080000D02*
X45085000Y-134965000D01*
X45087102Y-95467102D02*
X45120000Y-95500000D01*
X45087102Y-93347102D02*
X45087102Y-95467102D01*
X145620000Y-93902000D02*
X146177000Y-93345000D01*
X145620000Y-95500000D02*
X145620000Y-93902000D01*
X184120000Y-93375000D02*
X184150000Y-93345000D01*
X184120000Y-95500000D02*
X184120000Y-93375000D01*
X217620000Y-93657000D02*
X217932000Y-93345000D01*
X217620000Y-95500000D02*
X217620000Y-93657000D01*
X37973000Y-132080000D02*
X32766000Y-132080000D01*
X21162000Y-154940000D02*
X21162000Y-137778500D01*
X25654000Y-133286500D02*
X25654000Y-129540000D01*
X21162000Y-137778500D02*
X25654000Y-133286500D01*
X163620000Y-40380000D02*
X163995000Y-40005000D01*
X163620000Y-42500000D02*
X163620000Y-40380000D01*
X184120000Y-42500000D02*
X184120000Y-40190000D01*
X184120000Y-40190000D02*
X184305000Y-40005000D01*
X235534400Y-174200000D02*
X235534400Y-169765600D01*
X141605000Y-22225000D02*
X141605000Y-22225000D01*
X116120000Y-42500000D02*
X116120000Y-40090000D01*
X116120000Y-40090000D02*
X116205004Y-40004996D01*
X87620000Y-40395023D02*
X87629993Y-40385030D01*
X87620000Y-42500000D02*
X87620000Y-40395023D01*
X217620000Y-42500000D02*
X217620000Y-40190000D01*
X217620000Y-40190000D02*
X217712188Y-40097812D01*
X45120000Y-42500000D02*
X45120000Y-40605058D01*
X45120000Y-40605058D02*
X45720058Y-40005000D01*
D20*
%TO.N,~T0.5*%
X80000000Y-152780000D02*
X80000000Y-153025000D01*
X39755000Y-103120000D02*
X37500000Y-103120000D01*
X80000000Y-152780000D02*
X73405000Y-152780000D01*
X40640000Y-86995000D02*
X40640000Y-102235000D01*
X57150000Y-85090000D02*
X42545000Y-85090000D01*
X59055000Y-86995000D02*
X57150000Y-85090000D01*
X60325000Y-113030000D02*
X59055000Y-111760000D01*
X59055000Y-111760000D02*
X59055000Y-86995000D01*
X69215000Y-127635000D02*
X60325000Y-118745000D01*
X60325000Y-118745000D02*
X60325000Y-113030000D01*
X73405000Y-152780000D02*
X69215000Y-148590000D01*
X40640000Y-102235000D02*
X39755000Y-103120000D01*
X42545000Y-85090000D02*
X40640000Y-86995000D01*
X69215000Y-148590000D02*
X69215000Y-127635000D01*
X70100000Y-113280000D02*
X69850000Y-113030000D01*
X80000000Y-113280000D02*
X70100000Y-113280000D01*
X80010000Y-157861000D02*
X80010000Y-152790000D01*
X80010000Y-152790000D02*
X80000000Y-152780000D01*
X211760000Y-159436000D02*
X211760000Y-174200000D01*
X210185000Y-157861000D02*
X211760000Y-159436000D01*
%TO.N,MB0*%
X108500000Y-100580000D02*
X99945000Y-100580000D01*
X97405000Y-98040000D02*
X87620000Y-98040000D01*
X99945000Y-100580000D02*
X97405000Y-98040000D01*
X51200800Y-166770800D02*
X51200800Y-174100000D01*
X59055000Y-158916600D02*
X51200800Y-166770800D01*
X59055000Y-129540000D02*
X59055000Y-158916600D01*
X52705000Y-121285000D02*
X52705000Y-123190000D01*
X48895000Y-100965000D02*
X48895000Y-117475000D01*
X52705000Y-123190000D02*
X59055000Y-129540000D01*
X48895000Y-117475000D02*
X52705000Y-121285000D01*
X48895000Y-100580000D02*
X48895000Y-100965000D01*
X45120000Y-100580000D02*
X48895000Y-100580000D01*
X52000000Y-97600000D02*
X52000000Y-88600000D01*
X48895000Y-100705000D02*
X52000000Y-97600000D01*
X48895000Y-100965000D02*
X48895000Y-100705000D01*
X213360000Y-92075000D02*
X210185000Y-88900000D01*
X207010000Y-128270000D02*
X210185000Y-128270000D01*
X206375000Y-133985000D02*
X206375000Y-128905000D01*
X207390000Y-135000000D02*
X206375000Y-133985000D01*
X213360000Y-125095000D02*
X213360000Y-92075000D01*
X210185000Y-128270000D02*
X213360000Y-125095000D01*
X206375000Y-128905000D02*
X207010000Y-128270000D01*
X210000000Y-135000000D02*
X207390000Y-135000000D01*
X85199994Y-97309994D02*
X85199994Y-88900000D01*
X85930000Y-98040000D02*
X85199994Y-97309994D01*
X87620000Y-98040000D02*
X85930000Y-98040000D01*
%TO.N,MB1*%
X108500000Y-103120000D02*
X99945000Y-103120000D01*
X97405000Y-100580000D02*
X87620000Y-100580000D01*
X99945000Y-103120000D02*
X97405000Y-100580000D01*
X46740000Y-110740000D02*
X47375000Y-111375000D01*
X45120000Y-110740000D02*
X46740000Y-110740000D01*
D24*
X46609000Y-104394000D02*
X47244000Y-105029000D01*
D25*
X47375000Y-105160000D02*
X47244000Y-105029000D01*
D20*
X51435000Y-121920000D02*
X47375000Y-117860000D01*
X51435000Y-123825000D02*
X51435000Y-121920000D01*
X57785000Y-130175000D02*
X51435000Y-123825000D01*
X49143400Y-166121600D02*
X57785000Y-157480000D01*
X47375000Y-117860000D02*
X47375000Y-111375000D01*
X57785000Y-157480000D02*
X57785000Y-130175000D01*
X49005200Y-166121600D02*
X47238400Y-167888400D01*
X49143400Y-166121600D02*
X49005200Y-166121600D01*
X47238400Y-174100000D02*
X47238400Y-167888400D01*
X44958000Y-90805000D02*
X43180000Y-92583000D01*
X43180000Y-104013000D02*
X43561000Y-104394000D01*
X43180000Y-92583000D02*
X43180000Y-104013000D01*
X47375000Y-105160000D02*
X46609000Y-104394000D01*
X47375000Y-111375000D02*
X47375000Y-105160000D01*
X43561000Y-104394000D02*
X46609000Y-104394000D01*
X84832000Y-100580000D02*
X87620000Y-100580000D01*
X83820000Y-95420000D02*
X83820000Y-99568000D01*
X83820000Y-99568000D02*
X84832000Y-100580000D01*
X83312000Y-94912000D02*
X83820000Y-95420000D01*
X83312000Y-90932000D02*
X83312000Y-94912000D01*
%TO.N,MB2*%
X108500000Y-105660000D02*
X87620000Y-105660000D01*
X110105000Y-105660000D02*
X108500000Y-105660000D01*
X110490000Y-118110000D02*
X110490000Y-106045000D01*
X110490000Y-106045000D02*
X110105000Y-105660000D01*
X103505000Y-125095000D02*
X110490000Y-118110000D01*
X43280000Y-140080000D02*
X42544998Y-139344998D01*
X42544998Y-139344998D02*
X42544998Y-125095000D01*
X45120000Y-140080000D02*
X43280000Y-140080000D01*
X46355000Y-118745000D02*
X43180000Y-118745000D01*
X50165000Y-122555000D02*
X46355000Y-118745000D01*
X56515000Y-130810000D02*
X50165000Y-124460000D01*
X50165000Y-124460000D02*
X50165000Y-122555000D01*
X56515000Y-154385000D02*
X56515000Y-130810000D01*
X43180000Y-118745000D02*
X42544998Y-119380002D01*
X43276000Y-167624000D02*
X56515000Y-154385000D01*
X42544998Y-119380002D02*
X42544998Y-125095000D01*
X43276000Y-174100000D02*
X43276000Y-167624000D01*
%TO.N,MB3*%
X163620000Y-47580000D02*
X163620000Y-45040000D01*
X103255000Y-120265000D02*
X102870000Y-120650000D01*
X103255000Y-108200000D02*
X103255000Y-120265000D01*
X108500000Y-108200000D02*
X103255000Y-108200000D01*
X103255000Y-108200000D02*
X87620000Y-108200000D01*
X46355000Y-120650000D02*
X47307500Y-121602500D01*
X45720000Y-120650000D02*
X46355000Y-120650000D01*
X47307500Y-121602500D02*
X46990000Y-121285000D01*
X48895000Y-123190000D02*
X47307500Y-121602500D01*
X48895000Y-125095000D02*
X48895000Y-123190000D01*
X55245000Y-151765000D02*
X55245000Y-131445000D01*
X39313600Y-167696400D02*
X55245000Y-151765000D01*
X55245000Y-131445000D02*
X48895000Y-125095000D01*
X39313600Y-174100000D02*
X39313600Y-167696400D01*
X49785000Y-145160000D02*
X45120000Y-145160000D01*
X50800000Y-144145000D02*
X49785000Y-145160000D01*
X50800000Y-130810000D02*
X50800000Y-144145000D01*
X44450000Y-124460000D02*
X50800000Y-130810000D01*
X44450000Y-121920000D02*
X44450000Y-124460000D01*
X45720000Y-120650000D02*
X44450000Y-121920000D01*
X168275000Y-69215000D02*
X168275000Y-60960000D01*
X168275000Y-60960000D02*
X169545000Y-59690000D01*
X169545000Y-59690000D02*
X169545000Y-46355000D01*
X168230000Y-45040000D02*
X163620000Y-45040000D01*
X169545000Y-46355000D02*
X168230000Y-45040000D01*
X158115000Y-109855000D02*
X166400000Y-118140000D01*
X158115000Y-69215000D02*
X158115000Y-109855000D01*
X166400000Y-118140000D02*
X166400000Y-120700000D01*
%TO.N,MB4*%
X108500000Y-140080000D02*
X99440000Y-140080000D01*
X99440000Y-140080000D02*
X97155000Y-137795000D01*
X97155000Y-137795000D02*
X97155000Y-111760000D01*
X96135000Y-110740000D02*
X87620000Y-110740000D01*
X97155000Y-111760000D02*
X96135000Y-110740000D01*
X116120000Y-120565000D02*
X118745000Y-123190000D01*
X116120000Y-110740000D02*
X116120000Y-113750000D01*
X116120000Y-113750000D02*
X116120000Y-120565000D01*
X53975000Y-147925000D02*
X51660000Y-150240000D01*
X53975000Y-132080000D02*
X53975000Y-147925000D01*
X46355000Y-124460000D02*
X53975000Y-132080000D01*
X51660000Y-150240000D02*
X45120000Y-150240000D01*
X46355000Y-123190000D02*
X46355000Y-124460000D01*
X45120000Y-153508000D02*
X45120000Y-150240000D01*
X37084000Y-161544000D02*
X45120000Y-153508000D01*
X35525600Y-168574400D02*
X37084000Y-167016000D01*
X37084000Y-167016000D02*
X37084000Y-161544000D01*
X35525600Y-174100000D02*
X35525600Y-168574400D01*
X154940000Y-52660000D02*
X156000000Y-52660000D01*
X154100000Y-108380000D02*
X154100000Y-53500000D01*
X154100000Y-53500000D02*
X154940000Y-52660000D01*
X159385000Y-113665000D02*
X154100000Y-108380000D01*
%TO.N,Net-(U11-Pad9)*%
X176500000Y-45040000D02*
X176500000Y-47580000D01*
X176500000Y-47580000D02*
X176500000Y-50120000D01*
X176500000Y-98040000D02*
X178185000Y-98040000D01*
X178185000Y-98040000D02*
X179070000Y-97155000D01*
X179070000Y-97155000D02*
X179070000Y-66675000D01*
X179070000Y-66675000D02*
X173990000Y-61595000D01*
X173990000Y-61595000D02*
X173990000Y-50800000D01*
X174670000Y-50120000D02*
X176500000Y-50120000D01*
X173990000Y-50800000D02*
X174670000Y-50120000D01*
%TO.N,MB7*%
X23638400Y-174100000D02*
X23638400Y-161781600D01*
X27560000Y-137540000D02*
X37500000Y-137540000D01*
X23638400Y-141461600D02*
X27560000Y-137540000D01*
X23638400Y-161781600D02*
X23638400Y-141461600D01*
X99695000Y-128270000D02*
X99695000Y-135255000D01*
X99695000Y-128905000D02*
X99695000Y-128270000D01*
X99695000Y-128270000D02*
X99695000Y-110490000D01*
X101600000Y-137160000D02*
X104140000Y-137160000D01*
X99695000Y-135255000D02*
X101600000Y-137160000D01*
X104140000Y-149860000D02*
X106045000Y-147955000D01*
X108245000Y-147955000D02*
X108500000Y-147700000D01*
X106045000Y-147955000D02*
X108245000Y-147955000D01*
X102520000Y-157480000D02*
X104140000Y-157480000D01*
X102500000Y-157500000D02*
X102520000Y-157480000D01*
X102400000Y-157400000D02*
X102500000Y-157500000D01*
X102400000Y-155105000D02*
X102400000Y-157400000D01*
X97535000Y-150240000D02*
X102400000Y-155105000D01*
X87620000Y-150240000D02*
X97535000Y-150240000D01*
X102400000Y-159855000D02*
X102400000Y-158315000D01*
X96520000Y-165735000D02*
X102400000Y-159855000D01*
X103235000Y-157480000D02*
X104140000Y-157480000D01*
X85090000Y-165735000D02*
X96520000Y-165735000D01*
X77470000Y-158115000D02*
X85090000Y-165735000D01*
X102400000Y-158335000D02*
X102400000Y-157300000D01*
X110050000Y-147700000D02*
X108500000Y-147700000D01*
X111600000Y-149250000D02*
X110050000Y-147700000D01*
X111600000Y-156100000D02*
X111600000Y-149250000D01*
X110220000Y-157480000D02*
X111600000Y-156100000D01*
X104140000Y-157480000D02*
X110220000Y-157480000D01*
X119380000Y-73025000D02*
X128905000Y-73025000D01*
X99695000Y-92710000D02*
X119380000Y-73025000D01*
X99695000Y-96520000D02*
X99695000Y-92710000D01*
X161900000Y-55200000D02*
X163620000Y-55200000D01*
X160020000Y-57080000D02*
X161900000Y-55200000D01*
X160020000Y-73025000D02*
X160020000Y-57080000D01*
%TO.N,MB6*%
X27600800Y-174100000D02*
X27600800Y-164169200D01*
X30100000Y-142620000D02*
X37500000Y-142620000D01*
X27600800Y-145119200D02*
X30100000Y-142620000D01*
X27600800Y-164169200D02*
X27600800Y-160994200D01*
X27600800Y-160994200D02*
X27600800Y-145119200D01*
X94995000Y-147700000D02*
X95250000Y-147955000D01*
X87620000Y-147700000D02*
X94995000Y-147700000D01*
X103505000Y-147955000D02*
X106300000Y-145160000D01*
X106300000Y-145160000D02*
X108500000Y-145160000D01*
X102235000Y-147955000D02*
X103505000Y-147955000D01*
X86200000Y-147700000D02*
X87620000Y-147700000D01*
X85725000Y-148175000D02*
X86200000Y-147700000D01*
X85725000Y-154825000D02*
X85725000Y-148175000D01*
X92710000Y-161810000D02*
X85725000Y-154825000D01*
X92710000Y-161925000D02*
X92710000Y-161810000D01*
%TO.N,MB5*%
X94995000Y-145160000D02*
X95250000Y-145415000D01*
X87620000Y-145160000D02*
X94995000Y-145160000D01*
X31563200Y-174100000D02*
X31563200Y-160020000D01*
X102235000Y-145415000D02*
X103505000Y-145415000D01*
X103505000Y-145415000D02*
X106300000Y-142620000D01*
X106300000Y-142620000D02*
X108500000Y-142620000D01*
X31563200Y-149536800D02*
X33400000Y-147700000D01*
X33400000Y-147700000D02*
X37500000Y-147700000D01*
X31563200Y-160020000D02*
X31563200Y-149536800D01*
X84455000Y-146445000D02*
X85740000Y-145160000D01*
X84455000Y-156210000D02*
X84455000Y-146445000D01*
X85740000Y-145160000D02*
X87620000Y-145160000D01*
X88265000Y-160020000D02*
X84455000Y-156210000D01*
%TO.N,Net-(U15-Pad5)*%
X145620000Y-137540000D02*
X146960000Y-137540000D01*
X132220000Y-123900000D02*
X141680000Y-123900000D01*
X122555000Y-137160000D02*
X122555000Y-117945000D01*
X123400000Y-117100000D02*
X125420000Y-117100000D01*
X119635000Y-140080000D02*
X122555000Y-137160000D01*
X148360000Y-137540000D02*
X145620000Y-137540000D01*
X149300000Y-136600000D02*
X148360000Y-137540000D01*
X149300000Y-131520000D02*
X149300000Y-136600000D01*
X141680000Y-123900000D02*
X149300000Y-131520000D01*
X122555000Y-117945000D02*
X123400000Y-117100000D01*
X125420000Y-117100000D02*
X132220000Y-123900000D01*
X116120000Y-140080000D02*
X119635000Y-140080000D01*
%TO.N,Net-(U15-Pad4)*%
X119635000Y-142620000D02*
X116120000Y-142620000D01*
X124460000Y-137795000D02*
X119635000Y-142620000D01*
X124460000Y-127635000D02*
X124460000Y-137795000D01*
X125295000Y-126800000D02*
X124460000Y-127635000D01*
X142152500Y-143152500D02*
X142152500Y-130087500D01*
X138865000Y-126800000D02*
X125295000Y-126800000D01*
X142152500Y-130087500D02*
X138865000Y-126800000D01*
X144160000Y-145160000D02*
X142152500Y-143152500D01*
X145620000Y-145160000D02*
X144160000Y-145160000D01*
%TO.N,Net-(U15-Pad3)*%
X116120000Y-145160000D02*
X120270000Y-145160000D01*
X130430000Y-135000000D02*
X138000000Y-135000000D01*
X120270000Y-145160000D02*
X130430000Y-135000000D01*
%TO.N,Net-(U15-Pad2)*%
X116120000Y-147700000D02*
X122175000Y-147700000D01*
X132080000Y-137795000D02*
X133985000Y-137795000D01*
X122175000Y-147700000D02*
X132080000Y-137795000D01*
X137620000Y-142240000D02*
X138000000Y-142620000D01*
X133985000Y-142240000D02*
X137620000Y-142240000D01*
%TO.N,~F.23.OPR+IOT*%
X184150000Y-174073200D02*
X184023200Y-174200000D01*
X184150000Y-163830000D02*
X184150000Y-174073200D01*
X156000000Y-42500000D02*
X156000000Y-45040000D01*
X138000000Y-108200000D02*
X141900000Y-108200000D01*
X142000000Y-83200000D02*
X137900000Y-79100000D01*
X155575000Y-161290000D02*
X155575000Y-128270000D01*
X142000000Y-114695000D02*
X142000000Y-83200000D01*
X155575000Y-128270000D02*
X142000000Y-114695000D01*
X153035000Y-163830000D02*
X155575000Y-161290000D01*
X145620000Y-157275000D02*
X143192500Y-159702500D01*
X143192500Y-159702500D02*
X130297500Y-159702500D01*
X145620000Y-152780000D02*
X145620000Y-157275000D01*
X130297500Y-159702500D02*
X126200000Y-163800000D01*
X170900000Y-73000000D02*
X170000000Y-73900000D01*
X170180002Y-38280002D02*
X170900000Y-39000000D01*
X170900000Y-39000000D02*
X170900000Y-73000000D01*
X170000000Y-73900000D02*
X170000000Y-79000000D01*
X156719998Y-38280002D02*
X170180002Y-38280002D01*
X156000000Y-39000000D02*
X156719998Y-38280002D01*
X156000000Y-42500000D02*
X156000000Y-39000000D01*
%TO.N,MB=0*%
X40385000Y-145160000D02*
X40640000Y-145415000D01*
X37500000Y-145160000D02*
X40385000Y-145160000D01*
X48895000Y-86995000D02*
X50165000Y-88265000D01*
X50165000Y-88265000D02*
X50165000Y-97155000D01*
X49280000Y-98040000D02*
X45120000Y-98040000D01*
X50165000Y-97155000D02*
X49280000Y-98040000D01*
X45120000Y-108200000D02*
X40890000Y-108200000D01*
X40890000Y-108200000D02*
X40640000Y-107950000D01*
X83185000Y-173815000D02*
X82900000Y-174100000D01*
X83185000Y-166370000D02*
X83185000Y-173815000D01*
X37500000Y-135000000D02*
X31495000Y-135000000D01*
X29845000Y-133350000D02*
X29845000Y-132080000D01*
X31495000Y-135000000D02*
X29845000Y-133350000D01*
X40640000Y-107950000D02*
X40640000Y-106045000D01*
X40640000Y-106045000D02*
X41910000Y-104775000D01*
X41910000Y-88900000D02*
X43815000Y-86995000D01*
X41910000Y-104775000D02*
X41910000Y-88900000D01*
X43815000Y-86995000D02*
X48895000Y-86995000D01*
X78740000Y-161925000D02*
X83185000Y-166370000D01*
X74295000Y-161925000D02*
X78740000Y-161925000D01*
X73025000Y-163195000D02*
X74295000Y-161925000D01*
X73025000Y-166370000D02*
X73025000Y-163195000D01*
X47625000Y-138430000D02*
X46735000Y-137540000D01*
X46735000Y-137540000D02*
X45120000Y-137540000D01*
X47625000Y-141875000D02*
X47625000Y-138430000D01*
X46880000Y-142620000D02*
X47625000Y-141875000D01*
X45120000Y-142620000D02*
X46880000Y-142620000D01*
X40600000Y-135000000D02*
X37500000Y-135000000D01*
X40600000Y-145455000D02*
X40600000Y-148600000D01*
X40640000Y-145415000D02*
X40600000Y-145455000D01*
X40700000Y-147700000D02*
X45120000Y-147700000D01*
X40600000Y-147800000D02*
X40700000Y-147700000D01*
X40600000Y-151932000D02*
X40600000Y-147800000D01*
X34036000Y-158496000D02*
X40600000Y-151932000D01*
X34036000Y-166624000D02*
X34036000Y-158496000D01*
X40600000Y-145375000D02*
X40640000Y-145415000D01*
X40600000Y-142280000D02*
X40600000Y-145375000D01*
X40640000Y-142240000D02*
X40600000Y-142280000D01*
X40600000Y-142200000D02*
X40640000Y-142240000D01*
X40600000Y-137835000D02*
X40600000Y-142200000D01*
X40620000Y-142620000D02*
X40600000Y-142600000D01*
X45120000Y-142620000D02*
X40620000Y-142620000D01*
X40600000Y-110530000D02*
X40640000Y-110490000D01*
X40640000Y-110490000D02*
X40640000Y-107950000D01*
X40600000Y-140100000D02*
X40600000Y-110530000D01*
X40580000Y-140080000D02*
X40600000Y-140100000D01*
X37500000Y-140080000D02*
X40580000Y-140080000D01*
%TO.N,Net-(R3-Pad2)*%
X147320000Y-57150000D02*
X147320000Y-69215000D01*
X149200000Y-55270000D02*
X147320000Y-57150000D01*
X149200000Y-50200000D02*
X149200000Y-55270000D01*
X150600000Y-50100000D02*
X149200000Y-50100000D01*
X150620000Y-50120000D02*
X150600000Y-50100000D01*
X156000000Y-50120000D02*
X150620000Y-50120000D01*
X149200000Y-47865000D02*
X149225000Y-47840000D01*
X149200000Y-49950000D02*
X149200000Y-47865000D01*
X149225000Y-49975000D02*
X149200000Y-49950000D01*
%TO.N,Net-(R4-Pad2)*%
X167000000Y-47840000D02*
X167000000Y-51820000D01*
X166160000Y-52660000D02*
X167000000Y-51820000D01*
X163620000Y-52660000D02*
X166160000Y-52660000D01*
X160640000Y-52660000D02*
X163620000Y-52660000D01*
X158100000Y-55200000D02*
X160640000Y-52660000D01*
X156000000Y-55200000D02*
X158100000Y-55200000D01*
%TO.N,Z-BIT*%
X155740000Y-47840000D02*
X156000000Y-47580000D01*
X153000000Y-47840000D02*
X155740000Y-47840000D01*
X163760000Y-57740000D02*
X163620000Y-57740000D01*
X79375000Y-173662600D02*
X78937600Y-174100000D01*
X79375000Y-167640000D02*
X79375000Y-173662600D01*
X114935000Y-167005000D02*
X131700000Y-150240000D01*
X131700000Y-150240000D02*
X138000000Y-150240000D01*
X114935000Y-167640000D02*
X114935000Y-167005000D01*
X163580000Y-57700000D02*
X163620000Y-57740000D01*
X161925000Y-58475000D02*
X162700000Y-57700000D01*
X161925000Y-109855000D02*
X161925000Y-58475000D01*
X168275000Y-116205000D02*
X161925000Y-109855000D01*
X162700000Y-57700000D02*
X163580000Y-57700000D01*
X168275000Y-135255000D02*
X168275000Y-116205000D01*
X158070000Y-47580000D02*
X156000000Y-47580000D01*
X160610000Y-50120000D02*
X158070000Y-47580000D01*
X163620000Y-50120000D02*
X160610000Y-50120000D01*
%TO.N,SR7*%
X139700000Y-156100000D02*
X139700000Y-146050000D01*
X138400000Y-157400000D02*
X139700000Y-156100000D01*
X139700000Y-146050000D02*
X138810000Y-145160000D01*
X127715000Y-157400000D02*
X138400000Y-157400000D01*
X116662400Y-168452600D02*
X127715000Y-157400000D01*
X138810000Y-145160000D02*
X138000000Y-145160000D01*
X116662400Y-174200000D02*
X116662400Y-168452600D01*
%TO.N,SR0*%
X143700000Y-118300000D02*
X136700000Y-118300000D01*
X147320000Y-167005000D02*
X154305000Y-160020000D01*
X136700000Y-118300000D02*
X118980000Y-100580000D01*
X154305000Y-128905000D02*
X143700000Y-118300000D01*
X154305000Y-160020000D02*
X154305000Y-128905000D01*
X118980000Y-100580000D02*
X116120000Y-100580000D01*
X145415000Y-167005000D02*
X147320000Y-167005000D01*
X144399200Y-168020800D02*
X145415000Y-167005000D01*
X144399200Y-174200000D02*
X144399200Y-168020800D01*
%TO.N,SR1*%
X118620000Y-103120000D02*
X116120000Y-103120000D01*
X129500000Y-114000000D02*
X118620000Y-103120000D01*
X129500000Y-114005000D02*
X129500000Y-114000000D01*
X142265000Y-165735000D02*
X146685000Y-165735000D01*
X135195000Y-119700000D02*
X129500000Y-114005000D01*
X153035000Y-159385000D02*
X153035000Y-129540000D01*
X140436800Y-167563200D02*
X142265000Y-165735000D01*
X153035000Y-129540000D02*
X143195000Y-119700000D01*
X146685000Y-165735000D02*
X153035000Y-159385000D01*
X143195000Y-119700000D02*
X135195000Y-119700000D01*
X140436800Y-174200000D02*
X140436800Y-167563200D01*
%TO.N,SR2*%
X118250000Y-105660000D02*
X116120000Y-105660000D01*
X133690000Y-121100000D02*
X118250000Y-105660000D01*
X151765000Y-130175000D02*
X142690000Y-121100000D01*
X136474400Y-174200000D02*
X136474400Y-166825600D01*
X151765000Y-158750000D02*
X151765000Y-130175000D01*
X146050000Y-164465000D02*
X151765000Y-158750000D01*
X142690000Y-121100000D02*
X133690000Y-121100000D01*
X138835000Y-164465000D02*
X146050000Y-164465000D01*
X136474400Y-166825600D02*
X138835000Y-164465000D01*
%TO.N,SR3*%
X132685000Y-122500000D02*
X118385000Y-108200000D01*
X150495000Y-130810000D02*
X142185000Y-122500000D01*
X118385000Y-108200000D02*
X116120000Y-108200000D01*
X150495000Y-158115000D02*
X150495000Y-130810000D01*
X134620000Y-163195000D02*
X145415000Y-163195000D01*
X132512000Y-165303000D02*
X134620000Y-163195000D01*
X145415000Y-163195000D02*
X150495000Y-158115000D01*
X142185000Y-122500000D02*
X132685000Y-122500000D01*
X132512000Y-174200000D02*
X132512000Y-165303000D01*
%TO.N,SR4*%
X144780000Y-161925000D02*
X149225000Y-157480000D01*
X133350000Y-161925000D02*
X144780000Y-161925000D01*
X149225000Y-157480000D02*
X149225000Y-140970000D01*
X128549600Y-166725400D02*
X133350000Y-161925000D01*
X148335000Y-140080000D02*
X145620000Y-140080000D01*
X149225000Y-140970000D02*
X148335000Y-140080000D01*
X128549600Y-174200000D02*
X128549600Y-166725400D01*
%TO.N,SR5*%
X147065000Y-147700000D02*
X145620000Y-147700000D01*
X124587200Y-168012800D02*
X131945000Y-160655000D01*
X147955000Y-156845000D02*
X147955000Y-148590000D01*
X147955000Y-148590000D02*
X147065000Y-147700000D01*
X144145000Y-160655000D02*
X147955000Y-156845000D01*
X131945000Y-160655000D02*
X144145000Y-160655000D01*
X124587200Y-174200000D02*
X124587200Y-168012800D01*
%TO.N,SR6*%
X138810000Y-137540000D02*
X138000000Y-137540000D01*
X139700000Y-138430000D02*
X138810000Y-137540000D01*
X140970000Y-145470000D02*
X139700000Y-144200000D01*
X120624800Y-167030200D02*
X129222500Y-158432500D01*
X140970000Y-156730000D02*
X140970000Y-145470000D01*
X139267500Y-158432500D02*
X140970000Y-156730000D01*
X139700000Y-144200000D02*
X139700000Y-138430000D01*
X129222500Y-158432500D02*
X139267500Y-158432500D01*
X120624800Y-174200000D02*
X120624800Y-167030200D01*
%TO.N,~ISZ*%
X77470000Y-165735000D02*
X74975200Y-168229800D01*
X74975200Y-168229800D02*
X74975200Y-174100000D01*
X159385000Y-164465000D02*
X158115000Y-165735000D01*
X159385000Y-126365000D02*
X159385000Y-164465000D01*
X145620000Y-112600000D02*
X159385000Y-126365000D01*
X145620000Y-110740000D02*
X145620000Y-112600000D01*
%TO.N,Net-(U12-Pad10)*%
X210000000Y-98040000D02*
X210000000Y-100580000D01*
X210000000Y-100580000D02*
X210000000Y-103120000D01*
X205990000Y-98040000D02*
X210000000Y-98040000D01*
X196850000Y-99695000D02*
X204335000Y-99695000D01*
X183515000Y-86360000D02*
X196850000Y-99695000D01*
X179300000Y-55200000D02*
X180340000Y-56240000D01*
X183515000Y-62865000D02*
X183515000Y-86360000D01*
X204335000Y-99695000D02*
X205990000Y-98040000D01*
X180340000Y-56240000D02*
X180340000Y-59690000D01*
X180340000Y-59690000D02*
X183515000Y-62865000D01*
X176500000Y-55200000D02*
X179300000Y-55200000D01*
%TO.N,Net-(U12-Pad8)*%
X211705000Y-95500000D02*
X210000000Y-95500000D01*
X212090000Y-95885000D02*
X211705000Y-95500000D01*
X212090000Y-124460000D02*
X212090000Y-95885000D01*
X205740000Y-127000000D02*
X209550000Y-127000000D01*
X209550000Y-127000000D02*
X212090000Y-124460000D01*
X208025000Y-137540000D02*
X205105000Y-134620000D01*
X205105000Y-127635000D02*
X205740000Y-127000000D01*
X205105000Y-134620000D02*
X205105000Y-127635000D01*
X210000000Y-137540000D02*
X208025000Y-137540000D01*
%TO.N,~T14-21(JMS+JMP)*%
X173610000Y-147700000D02*
X176500000Y-147700000D01*
X172100000Y-149210000D02*
X173610000Y-147700000D01*
X172100000Y-174164000D02*
X172100000Y-149210000D01*
X172136000Y-174200000D02*
X172100000Y-174164000D01*
X181300000Y-108200000D02*
X184120000Y-108200000D01*
X179004990Y-110495010D02*
X181300000Y-108200000D01*
X177900000Y-147700000D02*
X179004990Y-146595010D01*
X179004990Y-146595010D02*
X179004990Y-110495010D01*
X176500000Y-147700000D02*
X177900000Y-147700000D01*
%TO.N,Net-(U17-Pad6)*%
X186435000Y-137540000D02*
X186690000Y-137795000D01*
X184120000Y-137540000D02*
X186435000Y-137540000D01*
X205740000Y-137795000D02*
X205740000Y-140335000D01*
X208025000Y-142620000D02*
X210000000Y-142620000D01*
X205740000Y-140335000D02*
X208025000Y-142620000D01*
%TO.N,Net-(U17-Pad12)*%
X216735000Y-126365000D02*
X217805000Y-126365000D01*
X215265000Y-136525000D02*
X215265000Y-127835000D01*
X215265000Y-127835000D02*
X216735000Y-126365000D01*
X216280000Y-137540000D02*
X215265000Y-136525000D01*
X217620000Y-137540000D02*
X216280000Y-137540000D01*
X177440000Y-145160000D02*
X176500000Y-145160000D01*
X177900000Y-144700000D02*
X177440000Y-145160000D01*
X177900000Y-127735000D02*
X177900000Y-144700000D01*
X176530000Y-126365000D02*
X177900000Y-127735000D01*
%TO.N,Net-(U17-Pad2)*%
X217620000Y-147700000D02*
X219455000Y-147700000D01*
X220345000Y-148590000D02*
X220345000Y-154940000D01*
X219455000Y-147700000D02*
X220345000Y-148590000D01*
X188595000Y-154940000D02*
X188595000Y-148590000D01*
X187705000Y-147700000D02*
X184120000Y-147700000D01*
X188595000Y-148590000D02*
X187705000Y-147700000D01*
%TO.N,C-BUS*%
X217620000Y-103120000D02*
X217620000Y-100580000D01*
X207265000Y-147700000D02*
X210000000Y-147700000D01*
X207645000Y-147637500D02*
X207265000Y-147700000D01*
X209260062Y-133500000D02*
X207825010Y-132064948D01*
X214200000Y-133500000D02*
X209260062Y-133500000D01*
X214200000Y-141100000D02*
X214200000Y-133500000D01*
X214080000Y-140080000D02*
X210000000Y-140080000D01*
X215620000Y-142620000D02*
X214200000Y-141200000D01*
X214200000Y-140200000D02*
X214080000Y-140080000D01*
X214200000Y-141200000D02*
X214200000Y-140200000D01*
X217620000Y-142620000D02*
X215620000Y-142620000D01*
X214200000Y-126700000D02*
X214200000Y-134000000D01*
X220980000Y-123720000D02*
X220059998Y-124640002D01*
X216259998Y-124640002D02*
X214200000Y-126700000D01*
X220980000Y-104280000D02*
X220980000Y-123720000D01*
X220059998Y-124640002D02*
X216259998Y-124640002D01*
X219820000Y-103120000D02*
X220980000Y-104280000D01*
X217620000Y-103120000D02*
X219820000Y-103120000D01*
X212470000Y-147700000D02*
X210000000Y-147700000D01*
X213995000Y-149225000D02*
X212470000Y-147700000D01*
X213995000Y-155095000D02*
X213995000Y-149225000D01*
X219684800Y-160784800D02*
X213995000Y-155095000D01*
X219684800Y-174200000D02*
X219684800Y-160784800D01*
%TO.N,B-BUS*%
X217620000Y-155420000D02*
X217620000Y-150240000D01*
X223647200Y-161447200D02*
X217620000Y-155420000D01*
X223647200Y-174200000D02*
X223647200Y-161447200D01*
%TO.N,Net-(U10-Pad3)*%
X205460000Y-109940000D02*
X205460000Y-124460000D01*
X207200000Y-108200000D02*
X205460000Y-109940000D01*
X210000000Y-108200000D02*
X207200000Y-108200000D01*
X148975000Y-105660000D02*
X145620000Y-105660000D01*
X149800000Y-106485000D02*
X148975000Y-105660000D01*
X149800000Y-112335000D02*
X149800000Y-106485000D01*
X161925000Y-124460000D02*
X149800000Y-112335000D01*
%TO.N,T14-21*%
X203835000Y-107950000D02*
X206125000Y-105660000D01*
X203835000Y-153735000D02*
X203835000Y-107950000D01*
X207797600Y-157697600D02*
X203835000Y-153735000D01*
X206125000Y-105660000D02*
X210000000Y-105660000D01*
X207797600Y-174200000D02*
X207797600Y-157697600D01*
%TO.N,Net-(U5-Pad6)*%
X217620000Y-55200000D02*
X217620000Y-57740000D01*
X217620000Y-62680000D02*
X217620000Y-57740000D01*
X213360000Y-66940000D02*
X217620000Y-62680000D01*
X213360000Y-73025000D02*
X213360000Y-66940000D01*
X191725000Y-45040000D02*
X184120000Y-45040000D01*
X196850000Y-50165000D02*
X191725000Y-45040000D01*
X196850000Y-73025000D02*
X196850000Y-50165000D01*
%TO.N,Net-(U5-Pad4)*%
X176500000Y-42500000D02*
X179025000Y-42500000D01*
X179025000Y-42500000D02*
X179705000Y-43180000D01*
X179705000Y-43180000D02*
X179705000Y-48260000D01*
X181565000Y-50120000D02*
X184120000Y-50120000D01*
X179705000Y-48260000D02*
X181565000Y-50120000D01*
%TO.N,Net-(U12-Pad2)*%
X215310000Y-52660000D02*
X217620000Y-52660000D01*
X214630000Y-53340000D02*
X215310000Y-52660000D01*
X214630000Y-76835000D02*
X211455000Y-73660000D01*
X211455000Y-73660000D02*
X211455000Y-66675000D01*
X214630000Y-63500000D02*
X214630000Y-53340000D01*
X211455000Y-66675000D02*
X214630000Y-63500000D01*
X214630000Y-107315000D02*
X214630000Y-76835000D01*
X215515000Y-108200000D02*
X214630000Y-107315000D01*
X217620000Y-108200000D02*
X215515000Y-108200000D01*
%TO.N,Net-(U12-Pad3)*%
X187580000Y-140080000D02*
X184120000Y-140080000D01*
X188595000Y-139065000D02*
X187580000Y-140080000D01*
X188595000Y-122555000D02*
X188595000Y-139065000D01*
X219400000Y-107440000D02*
X219400000Y-122600000D01*
X217620000Y-105660000D02*
X219400000Y-107440000D01*
%TO.N,~T2-9.ISZ*%
X187960000Y-157480000D02*
X187960000Y-174174400D01*
X187960000Y-174174400D02*
X187985600Y-174200000D01*
X187960000Y-157480000D02*
X187325000Y-157480000D01*
X184120000Y-150240000D02*
X185800000Y-150240000D01*
X185800000Y-150240000D02*
X186690000Y-151130000D01*
X186690000Y-151130000D02*
X186690000Y-156845000D01*
X187325000Y-157480000D02*
X186690000Y-156845000D01*
X189865000Y-157480000D02*
X187960000Y-157480000D01*
X190500000Y-156845000D02*
X189865000Y-157480000D01*
X190500000Y-120650000D02*
X190500000Y-156845000D01*
X217620000Y-120680000D02*
X217600000Y-120700000D01*
X217620000Y-110740000D02*
X217620000Y-120680000D01*
%TO.N,/R0(1-20*%
X145620000Y-52660000D02*
X145620000Y-55200000D01*
X32385000Y-100965000D02*
X32385000Y-100785000D01*
X32385000Y-100785000D02*
X31000000Y-99400000D01*
X32770000Y-100580000D02*
X32385000Y-100965000D01*
X31000000Y-99400000D02*
X31000000Y-36900000D01*
X37500000Y-100580000D02*
X32770000Y-100580000D01*
X145620000Y-55200000D02*
X147800000Y-53020000D01*
X147800000Y-53020000D02*
X147800000Y-36899996D01*
%TO.N,MEMORY_ENABLE*%
X45120000Y-55200000D02*
X43770000Y-55200000D01*
X43770000Y-55200000D02*
X43180000Y-54610000D01*
X43180000Y-54610000D02*
X43180000Y-50800000D01*
X43860000Y-50120000D02*
X45120000Y-50120000D01*
X43180000Y-50800000D02*
X43860000Y-50120000D01*
X168910000Y-105410000D02*
X168910000Y-82550000D01*
X172350010Y-79109990D02*
X172350010Y-74930000D01*
X176500000Y-108200000D02*
X171700000Y-108200000D01*
X168910000Y-82550000D02*
X172350010Y-79109990D01*
X171700000Y-108200000D02*
X168910000Y-105410000D01*
X143000000Y-113790000D02*
X143000000Y-80770000D01*
X143000000Y-80770000D02*
X140970000Y-78740000D01*
X156845000Y-127635000D02*
X143000000Y-113790000D01*
X156845000Y-162560000D02*
X156845000Y-127635000D01*
X150495000Y-166370000D02*
X153035000Y-166370000D01*
X153035000Y-166370000D02*
X156845000Y-162560000D01*
X140970000Y-78740000D02*
X140970000Y-74930000D01*
X148361600Y-168503400D02*
X150495000Y-166370000D01*
X148361600Y-174200000D02*
X148361600Y-168503400D01*
X47300000Y-55200000D02*
X45120000Y-55200000D01*
X48260000Y-56160000D02*
X47300000Y-55200000D01*
X48260000Y-74930000D02*
X48260000Y-56160000D01*
X172350010Y-40949990D02*
X172350010Y-74930000D01*
X173295000Y-40005000D02*
X172350010Y-40949990D01*
X184120000Y-47580000D02*
X182180000Y-47580000D01*
X180975000Y-46375000D02*
X180975000Y-40975000D01*
X180005000Y-40005000D02*
X173295000Y-40005000D01*
X180975000Y-40975000D02*
X180005000Y-40005000D01*
X182180000Y-47580000D02*
X180975000Y-46375000D01*
%TO.N,Net-(U10-Pad8)*%
X116120000Y-98040000D02*
X127385000Y-98040000D01*
X129925000Y-95500000D02*
X138000000Y-95500000D01*
X127385000Y-98040000D02*
X129925000Y-95500000D01*
%TO.N,Net-(U5-Pad12)*%
X176500000Y-52660000D02*
X184120000Y-52660000D01*
%TO.N,T2-9*%
X199390000Y-95885000D02*
X199390000Y-91440000D01*
X199390000Y-91440000D02*
X193040000Y-85090000D01*
X193040000Y-85090000D02*
X193040000Y-56515000D01*
X191725000Y-55200000D02*
X184120000Y-55200000D01*
X193040000Y-56515000D02*
X191725000Y-55200000D01*
X197485000Y-115570000D02*
X199390000Y-113665000D01*
X197485000Y-159215000D02*
X197485000Y-115570000D01*
X195910400Y-160789600D02*
X197485000Y-159215000D01*
X195910400Y-174200000D02*
X195910400Y-160789600D01*
%TO.N,JMS+DCA*%
X184120000Y-57740000D02*
X185375000Y-57740000D01*
X186690000Y-59055000D02*
X186690000Y-73025000D01*
X185375000Y-57740000D02*
X186690000Y-59055000D01*
X170815000Y-116205000D02*
X170815000Y-137160000D01*
X163465001Y-108855001D02*
X170815000Y-116205000D01*
X163465001Y-74024999D02*
X163465001Y-108855001D01*
X164465000Y-73025000D02*
X163465001Y-74024999D01*
X170815000Y-158385000D02*
X170815000Y-147320000D01*
X168173600Y-161026400D02*
X170815000Y-158385000D01*
X168173600Y-174200000D02*
X168173600Y-161026400D01*
%TO.N,Net-(U10-Pad10)*%
X138000000Y-98040000D02*
X138000000Y-100580000D01*
X138250000Y-105410000D02*
X138000000Y-105660000D01*
X140030000Y-105410000D02*
X138250000Y-105410000D01*
X140900000Y-104540000D02*
X140030000Y-105410000D01*
X145620000Y-98040000D02*
X147705000Y-98040000D01*
X140900000Y-84700000D02*
X140900000Y-104540000D01*
X135400000Y-77300000D02*
X135400000Y-80600000D01*
X135400000Y-80600000D02*
X136700000Y-81900000D01*
X140310000Y-72390000D02*
X135400000Y-77300000D01*
X147320000Y-72390000D02*
X140310000Y-72390000D01*
X149225000Y-74295000D02*
X147320000Y-72390000D01*
X149225000Y-96520000D02*
X149225000Y-74295000D01*
X138100000Y-81900000D02*
X140900000Y-84700000D01*
X136700000Y-81900000D02*
X138100000Y-81900000D01*
X147705000Y-98040000D02*
X149225000Y-96520000D01*
X137750000Y-100330000D02*
X138000000Y-100580000D01*
X136140000Y-105660000D02*
X135255000Y-104775000D01*
X136030000Y-100330000D02*
X137750000Y-100330000D01*
X135255000Y-101105000D02*
X136030000Y-100330000D01*
X135255000Y-104775000D02*
X135255000Y-101105000D01*
X138000000Y-105660000D02*
X136140000Y-105660000D01*
%TO.N,Net-(U10-Pad5)*%
X152600000Y-103070000D02*
X150110000Y-100580000D01*
X150110000Y-100580000D02*
X145620000Y-100580000D01*
X152600000Y-109420000D02*
X152600000Y-103070000D01*
X163830000Y-135255000D02*
X163830000Y-120650000D01*
X163830000Y-120650000D02*
X152600000Y-109420000D01*
X172720000Y-140970000D02*
X169545000Y-140970000D01*
X169545000Y-140970000D02*
X163830000Y-135255000D01*
X173610000Y-140080000D02*
X172720000Y-140970000D01*
X176500000Y-140080000D02*
X173610000Y-140080000D01*
%TO.N,Net-(U10-Pad11)*%
X139700000Y-91440000D02*
X139700000Y-102400000D01*
X138109987Y-89849987D02*
X139700000Y-91440000D01*
X114385000Y-90714974D02*
X115249987Y-89849987D01*
X138980000Y-103120000D02*
X138000000Y-103120000D01*
X114385000Y-135805000D02*
X114385000Y-90714974D01*
X115249987Y-89849987D02*
X138109987Y-89849987D01*
X139700000Y-102400000D02*
X138980000Y-103120000D01*
X116120000Y-137540000D02*
X114385000Y-135805000D01*
%TO.N,T13*%
X199872800Y-119074719D02*
X199363071Y-118564990D01*
X199872800Y-174200000D02*
X199872800Y-119074719D01*
X149475000Y-103120000D02*
X145620000Y-103120000D01*
X151130000Y-104775000D02*
X149475000Y-103120000D01*
X151130000Y-111125000D02*
X151130000Y-104775000D01*
X158750000Y-118745000D02*
X151130000Y-111125000D01*
%TO.N,~DEP*%
X176500000Y-142620000D02*
X164210000Y-142620000D01*
X164211200Y-142621200D02*
X164147500Y-142557500D01*
X164211200Y-174200000D02*
X164211200Y-142621200D01*
X164210000Y-142620000D02*
X164147500Y-142557500D01*
X147600000Y-108200000D02*
X145620000Y-108200000D01*
X148400000Y-109000000D02*
X147600000Y-108200000D01*
X148400000Y-113475000D02*
X148400000Y-109000000D01*
X160655000Y-125730000D02*
X148400000Y-113475000D01*
X160655000Y-139055000D02*
X160655000Y-125730000D01*
X164147500Y-142547500D02*
X160655000Y-139055000D01*
X164147500Y-142557500D02*
X164147500Y-142547500D01*
%TO.N,MCP*%
X176500000Y-100580000D02*
X179455000Y-100580000D01*
X176500000Y-105660000D02*
X178185000Y-105660000D01*
X180090000Y-103755000D02*
X180090000Y-100580000D01*
X178185000Y-105660000D02*
X180090000Y-103755000D01*
X180090000Y-100580000D02*
X179455000Y-100580000D01*
X184120000Y-100580000D02*
X180090000Y-100580000D01*
X176500000Y-100580000D02*
X173105000Y-100580000D01*
X170815000Y-98290000D02*
X170815000Y-90805000D01*
X173105000Y-100580000D02*
X170815000Y-98290000D01*
X108585000Y-95415000D02*
X108500000Y-95500000D01*
X108585000Y-90805000D02*
X108585000Y-95415000D01*
X176340000Y-105500000D02*
X176500000Y-105660000D01*
X173355000Y-105500000D02*
X176340000Y-105500000D01*
X111375000Y-95500000D02*
X108500000Y-95500000D01*
X113030000Y-97155000D02*
X111375000Y-95500000D01*
X113030000Y-120650000D02*
X113030000Y-97155000D01*
X108500000Y-125180000D02*
X113030000Y-120650000D01*
X108500000Y-135000000D02*
X108500000Y-125180000D01*
X203835200Y-161335200D02*
X203835200Y-174200000D01*
X201295000Y-158795000D02*
X203835200Y-161335200D01*
X201295000Y-108695000D02*
X201295000Y-158795000D01*
X193180000Y-100580000D02*
X201295000Y-108695000D01*
X184120000Y-100580000D02*
X193180000Y-100580000D01*
%TO.N,Net-(U1-Pad11)*%
X93980000Y-113030000D02*
X93980000Y-135890000D01*
X93980000Y-135890000D02*
X93345000Y-136525000D01*
X93345000Y-136525000D02*
X90805000Y-136525000D01*
X89280000Y-135000000D02*
X87620000Y-135000000D01*
X90805000Y-136525000D02*
X89280000Y-135000000D01*
X93595000Y-95500000D02*
X93980000Y-95885000D01*
X90200000Y-96000000D02*
X89700000Y-95500000D01*
X93800000Y-96000000D02*
X90200000Y-96000000D01*
X89700000Y-95500000D02*
X87620000Y-95500000D01*
X86995000Y-81995000D02*
X93900000Y-88900000D01*
X93900000Y-95900000D02*
X93800000Y-96000000D01*
X93900000Y-88900000D02*
X93900000Y-95900000D01*
X86995000Y-81915000D02*
X86995000Y-81995000D01*
X40585000Y-51585000D02*
X40585000Y-81915000D01*
X39120000Y-50120000D02*
X40585000Y-51585000D01*
X37500000Y-50120000D02*
X39120000Y-50120000D01*
%TO.N,PC7*%
X27940000Y-109460000D02*
X29210000Y-108190000D01*
X37490000Y-108190000D02*
X37500000Y-108200000D01*
X29210000Y-108190000D02*
X37490000Y-108190000D01*
%TO.N,~PC7*%
X30095000Y-105660000D02*
X37500000Y-105660000D01*
X27940000Y-103505000D02*
X30095000Y-105660000D01*
%TO.N,~MA7*%
X32700000Y-94500000D02*
X32700000Y-34500000D01*
X33700000Y-95500000D02*
X32700000Y-94500000D01*
X37500000Y-95500000D02*
X33700000Y-95500000D01*
%TO.N,MA7*%
X37500000Y-47580000D02*
X37500000Y-45040000D01*
X80000000Y-150240000D02*
X73405000Y-150240000D01*
X73405000Y-150240000D02*
X70485000Y-147320000D01*
X70485000Y-147320000D02*
X70485000Y-127000000D01*
X60325000Y-85725000D02*
X58420000Y-83820000D01*
X60325000Y-110490000D02*
X62230000Y-112395000D01*
X60325000Y-110490000D02*
X60325000Y-85725000D01*
X62230000Y-112395000D02*
X62230000Y-118745000D01*
X70485000Y-127000000D02*
X62230000Y-118745000D01*
X45120000Y-83785000D02*
X45085000Y-83820000D01*
X45120000Y-57740000D02*
X45120000Y-83785000D01*
X58420000Y-83820000D02*
X45085000Y-83820000D01*
X82005865Y-160110865D02*
X85725000Y-163830000D01*
X81915000Y-151130000D02*
X81915000Y-160110865D01*
X81915000Y-160110865D02*
X82005865Y-160110865D01*
X81025000Y-150240000D02*
X81915000Y-151130000D01*
X80000000Y-150240000D02*
X81025000Y-150240000D01*
X131700000Y-147700000D02*
X131127500Y-148272500D01*
X131127500Y-148272500D02*
X115570000Y-163830000D01*
X138000000Y-147700000D02*
X131700000Y-147700000D01*
X83820000Y-38100000D02*
X83820000Y-27940000D01*
X39370000Y-97430000D02*
X38700000Y-98100000D01*
X38700000Y-98100000D02*
X37560000Y-98100000D01*
X37560000Y-98100000D02*
X37500000Y-98040000D01*
X39370000Y-86540001D02*
X39370000Y-97430000D01*
X42090001Y-83820000D02*
X39370000Y-86540001D01*
X45085000Y-83820000D02*
X42090001Y-83820000D01*
X34925000Y-43925000D02*
X34925000Y-38915010D01*
X36040000Y-45040000D02*
X34925000Y-43925000D01*
X37500000Y-45040000D02*
X36040000Y-45040000D01*
X41910000Y-57060000D02*
X42590000Y-57740000D01*
X40080000Y-47580000D02*
X41910000Y-49410000D01*
X42590000Y-57740000D02*
X45120000Y-57740000D01*
X41910000Y-49410000D02*
X41910000Y-57060000D01*
X37500000Y-47580000D02*
X40080000Y-47580000D01*
%TO.N,~F+D+E*%
X152324000Y-174200000D02*
X152324000Y-168986000D01*
X152324000Y-168986000D02*
X157480000Y-163830000D01*
X201295000Y-76835000D02*
X201295000Y-55880000D01*
X204515000Y-52660000D02*
X210000000Y-52660000D01*
X201295000Y-55880000D02*
X204515000Y-52660000D01*
X158115000Y-163195000D02*
X158115000Y-127000000D01*
X157480000Y-163830000D02*
X158115000Y-163195000D01*
X144145000Y-113030000D02*
X144145000Y-78105000D01*
X144145000Y-78105000D02*
X142875000Y-76835000D01*
X158115000Y-127000000D02*
X144145000Y-113030000D01*
%TO.N,OPR+IOT*%
X176098400Y-165938400D02*
X175895000Y-165735000D01*
X176098400Y-174200000D02*
X176098400Y-165938400D01*
X181500000Y-156735000D02*
X181500000Y-146100000D01*
X182440000Y-145160000D02*
X184120000Y-145160000D01*
X186055000Y-161290000D02*
X181500000Y-156735000D01*
X181500000Y-146100000D02*
X182440000Y-145160000D01*
X186055000Y-165735000D02*
X186055000Y-161290000D01*
%TO.N,~T2-9(F+D+E)*%
X180200000Y-174060800D02*
X180060800Y-174200000D01*
X180200000Y-112535000D02*
X180200000Y-174060800D01*
X181995000Y-110740000D02*
X180200000Y-112535000D01*
X184120000Y-110740000D02*
X181995000Y-110740000D01*
%TO.N,T1*%
X192405000Y-173743000D02*
X191948000Y-174200000D01*
X192405000Y-165735000D02*
X192405000Y-173743000D01*
X225425000Y-73025000D02*
X225425000Y-165735000D01*
X221615000Y-52705000D02*
X221615000Y-73025000D01*
X221615000Y-51435000D02*
X221615000Y-52705000D01*
X220300000Y-50120000D02*
X221615000Y-51435000D01*
X217620000Y-50120000D02*
X220300000Y-50120000D01*
%TO.N,~WE*%
X176530000Y-67945000D02*
X176500000Y-95500000D01*
X173990000Y-65405000D02*
X176530000Y-67945000D01*
X108500000Y-55200000D02*
X106635000Y-55200000D01*
X102235000Y-63990787D02*
X102235000Y-65405000D01*
X102235000Y-59600000D02*
X102235000Y-63990787D01*
X106635000Y-55200000D02*
X102235000Y-59600000D01*
X106680000Y-55155000D02*
X106635000Y-55200000D01*
X96520000Y-27940000D02*
X102235000Y-33655000D01*
X106680000Y-34925000D02*
X106680000Y-55155000D01*
X105410000Y-33655000D02*
X106680000Y-34925000D01*
X102235000Y-33655000D02*
X105410000Y-33655000D01*
%TO.N,~CS_L*%
X116205000Y-60365000D02*
X116120000Y-60280000D01*
X116205000Y-71120000D02*
X116205000Y-60365000D01*
X50120000Y-45040000D02*
X46400000Y-45040000D01*
X52070000Y-46990000D02*
X50120000Y-45040000D01*
X46400000Y-45040000D02*
X45120000Y-45040000D01*
X52070000Y-71120000D02*
X52070000Y-46990000D01*
X116120000Y-60280000D02*
X114255000Y-60280000D01*
X113030000Y-59055000D02*
X113030000Y-34814990D01*
X114255000Y-60280000D02*
X113030000Y-59055000D01*
X100854990Y-34814990D02*
X104140000Y-34814990D01*
X93980000Y-27940000D02*
X100854990Y-34814990D01*
%TO.N,~CS_H*%
X47580000Y-52660000D02*
X45120000Y-52660000D01*
X48850000Y-52660000D02*
X47580000Y-52660000D01*
X50165000Y-53975000D02*
X48850000Y-52660000D01*
X50165000Y-73025000D02*
X50165000Y-53975000D01*
X87630000Y-60290000D02*
X87620000Y-60280000D01*
X87630000Y-73025000D02*
X87630000Y-60290000D01*
X100965000Y-59055000D02*
X99695000Y-60325000D01*
X100965000Y-37465000D02*
X100965000Y-59055000D01*
X91440000Y-27940000D02*
X100965000Y-37465000D01*
%TO.N,D-IN*%
X108500000Y-57740000D02*
X106090000Y-57740000D01*
X104775000Y-59055000D02*
X104775000Y-67310000D01*
X106090000Y-57740000D02*
X104775000Y-59055000D01*
X220095000Y-98040000D02*
X217620000Y-98040000D01*
X220980000Y-97155000D02*
X220095000Y-98040000D01*
X220980000Y-76835000D02*
X220980000Y-97155000D01*
X216535000Y-72390000D02*
X220980000Y-76835000D01*
X216535000Y-67310000D02*
X216535000Y-72390000D01*
X80010000Y-134990000D02*
X80000000Y-135000000D01*
X80010000Y-127635000D02*
X80010000Y-134990000D01*
X27305000Y-127635000D02*
X38735000Y-127635000D01*
X26035000Y-97790000D02*
X26035000Y-126365000D01*
X26035000Y-126365000D02*
X27305000Y-127635000D01*
X29210000Y-67310000D02*
X29210000Y-94615000D01*
X29210000Y-94615000D02*
X26035000Y-97790000D01*
X86360000Y-32385000D02*
X87630000Y-33655000D01*
X86360000Y-27940000D02*
X86360000Y-32385000D01*
X91440000Y-33655000D02*
X91440000Y-59055000D01*
X114820000Y-150240000D02*
X116120000Y-150240000D01*
X112400000Y-147820000D02*
X114820000Y-150240000D01*
X112400000Y-127640000D02*
X112400000Y-147820000D01*
X112395000Y-127635000D02*
X112400000Y-127640000D01*
%TO.N,MA_C*%
X73660000Y-51435000D02*
X73660000Y-48895000D01*
X63500000Y-38100000D02*
X63500000Y-27940000D01*
X64770000Y-39370000D02*
X63500000Y-38100000D01*
X71120000Y-39370000D02*
X64770000Y-39370000D01*
X73660000Y-41910000D02*
X71120000Y-39370000D01*
X117251370Y-52660000D02*
X116120000Y-52660000D01*
X133060000Y-40640000D02*
X121040000Y-52660000D01*
X139700000Y-40640000D02*
X133060000Y-40640000D01*
X140245000Y-41185000D02*
X139700000Y-40640000D01*
X121040000Y-52660000D02*
X117251370Y-52660000D01*
X140245000Y-49255000D02*
X140245000Y-41185000D01*
X139380000Y-50120000D02*
X140245000Y-49255000D01*
X138000000Y-50120000D02*
X139380000Y-50120000D01*
%TO.N,MA_B*%
X134030000Y-42500000D02*
X138000000Y-42500000D01*
X120695000Y-55200000D02*
X133395000Y-42500000D01*
X133395000Y-42500000D02*
X134030000Y-42500000D01*
X116120000Y-55200000D02*
X120695000Y-55200000D01*
X71120000Y-53975000D02*
X71120000Y-48895000D01*
X60960000Y-39370000D02*
X60960000Y-27940000D01*
X62230000Y-40640000D02*
X60960000Y-39370000D01*
X69850000Y-40640000D02*
X62230000Y-40640000D01*
X71120000Y-41910000D02*
X69850000Y-40640000D01*
%TO.N,MA_A*%
X116120000Y-57740000D02*
X120695000Y-57740000D01*
X133395000Y-45040000D02*
X138000000Y-45040000D01*
X120695000Y-57740000D02*
X133395000Y-45040000D01*
X68580000Y-56515000D02*
X68580000Y-48895000D01*
X68580000Y-41910000D02*
X59690000Y-41910000D01*
X58420000Y-40640000D02*
X58420000Y-27940000D01*
X59690000Y-41910000D02*
X58420000Y-40640000D01*
%TO.N,Net-(U1-Pad12)*%
X217620000Y-45040000D02*
X215855000Y-45040000D01*
X215855000Y-45040000D02*
X215265000Y-44450000D01*
X215265000Y-44450000D02*
X215265000Y-40640000D01*
X215265000Y-40640000D02*
X214630000Y-40005000D01*
X214630000Y-40005000D02*
X205740000Y-40005000D01*
X199390000Y-46355000D02*
X199390000Y-84455000D01*
X205740000Y-40005000D02*
X199390000Y-46355000D01*
X39325000Y-55200000D02*
X39370000Y-55245000D01*
X37500000Y-55200000D02*
X39325000Y-55200000D01*
X38560000Y-52660000D02*
X37500000Y-52660000D01*
X39370000Y-53470000D02*
X38560000Y-52660000D01*
X39370000Y-55245000D02*
X39370000Y-53470000D01*
X37845000Y-80855000D02*
X37845000Y-84455000D01*
X39370000Y-79330000D02*
X37845000Y-80855000D01*
X39370000Y-55245000D02*
X39370000Y-79330000D01*
%TO.N,/WEIRD.NET*%
X105660000Y-98040000D02*
X108500000Y-98040000D01*
X104775000Y-97155000D02*
X105660000Y-98040000D01*
X104775000Y-90805000D02*
X104775000Y-97155000D01*
X113030000Y-82550000D02*
X104775000Y-90805000D01*
X110740000Y-98040000D02*
X108500000Y-98040000D01*
X108500000Y-137540000D02*
X106425000Y-137540000D01*
X106425000Y-124715000D02*
X111760000Y-119380000D01*
X111760000Y-99060000D02*
X110740000Y-98040000D01*
X111760000Y-119380000D02*
X111760000Y-99060000D01*
X106425000Y-137540000D02*
X106425000Y-124715000D01*
X176500000Y-132685000D02*
X173990000Y-130175000D01*
X167005000Y-100330000D02*
X167005000Y-82550000D01*
X173990000Y-113030000D02*
X167005000Y-106045000D01*
X176500000Y-135000000D02*
X176500000Y-132685000D01*
X167005000Y-106045000D02*
X167005000Y-100330000D01*
X173990000Y-130175000D02*
X173990000Y-113030000D01*
X120580000Y-75000000D02*
X113030000Y-82550000D01*
X136100000Y-75000000D02*
X120580000Y-75000000D01*
X145620000Y-65480000D02*
X136100000Y-75000000D01*
X145620000Y-57740000D02*
X145620000Y-65480000D01*
%TO.N,Net-(U17-Pad4)*%
X206375000Y-68580000D02*
X212090000Y-62865000D01*
X198120000Y-98425000D02*
X201295000Y-98425000D01*
X201295000Y-98425000D02*
X206375000Y-93345000D01*
X210799999Y-55999999D02*
X210000000Y-55200000D01*
X206375000Y-93345000D02*
X206375000Y-68580000D01*
X195580000Y-95885000D02*
X198120000Y-98425000D01*
X212090000Y-62865000D02*
X212090000Y-57290000D01*
X212090000Y-57290000D02*
X210799999Y-55999999D01*
X187960000Y-113665000D02*
X195580000Y-113665000D01*
X181400000Y-141710000D02*
X181400000Y-120225000D01*
X181400000Y-120225000D02*
X187960000Y-113665000D01*
X182310000Y-142620000D02*
X181400000Y-141710000D01*
X184120000Y-142620000D02*
X182310000Y-142620000D01*
%TO.N,Net-(U6-Pad5)*%
X215220000Y-47580000D02*
X217620000Y-47580000D01*
X213995000Y-46355000D02*
X215220000Y-47580000D01*
X213995000Y-43815000D02*
X213995000Y-46355000D01*
X212680000Y-42500000D02*
X213995000Y-43815000D01*
X210000000Y-42500000D02*
X212680000Y-42500000D01*
%TO.N,Net-(U6-Pad10)*%
X210000000Y-50120000D02*
X210000000Y-48710000D01*
X210000000Y-48710000D02*
X210000000Y-47580000D01*
X210000000Y-47580000D02*
X210000000Y-45040000D01*
%TO.N,Net-(U11-Pad6)*%
X91055000Y-113280000D02*
X87620000Y-113280000D01*
X92075000Y-114300000D02*
X91055000Y-113280000D01*
X92075000Y-134620000D02*
X92075000Y-114300000D01*
X87620000Y-152780000D02*
X92034990Y-152780000D01*
X92034990Y-152780000D02*
X92075000Y-152739990D01*
X92075000Y-152739990D02*
X99300000Y-159964990D01*
X99300000Y-159964990D02*
X99300000Y-160000000D01*
X202565000Y-156465000D02*
X206000000Y-159900000D01*
X202565000Y-107965000D02*
X202565000Y-156465000D01*
X184120000Y-98040000D02*
X192640000Y-98040000D01*
X192640000Y-98040000D02*
X202565000Y-107965000D01*
%TO.N,Net-(U11-Pad11)*%
X171700000Y-103120000D02*
X171450000Y-102870000D01*
X176500000Y-103120000D02*
X171700000Y-103120000D01*
X165100000Y-102870000D02*
X165100000Y-106680000D01*
X165100000Y-106680000D02*
X172720000Y-114300000D01*
X172720000Y-114300000D02*
X172720000Y-135255000D01*
X175005000Y-137540000D02*
X176500000Y-137540000D01*
X172720000Y-135255000D02*
X175005000Y-137540000D01*
%TO.N,Net-(U11-Pad3)*%
X184120000Y-105660000D02*
X184120000Y-103120000D01*
%TD*%
D26*
%TO.N,GND*%
X102984845Y-164297549D02*
X101891197Y-165391197D01*
X101875403Y-165410443D01*
X101863667Y-165432399D01*
X101856440Y-165456224D01*
X101854000Y-165481000D01*
X101854000Y-167132000D01*
X101856440Y-167156776D01*
X101863667Y-167180601D01*
X101875403Y-167202557D01*
X101891197Y-167221803D01*
X101910443Y-167237597D01*
X101932399Y-167249333D01*
X101956224Y-167256560D01*
X101981000Y-167259000D01*
X112215394Y-167259000D01*
X113157000Y-168200606D01*
X113157000Y-169164000D01*
X109160000Y-169164000D01*
X109160000Y-169032419D01*
X109163193Y-169000000D01*
X109150450Y-168870617D01*
X109112710Y-168746207D01*
X109051425Y-168631550D01*
X108968948Y-168531052D01*
X108868450Y-168448575D01*
X108753793Y-168387290D01*
X108629383Y-168349550D01*
X108532419Y-168340000D01*
X108500000Y-168336807D01*
X108467581Y-168340000D01*
X100330000Y-168340000D01*
X100330000Y-164637980D01*
X100889408Y-163966690D01*
X102984845Y-164297549D01*
%TA.AperFunction,Conductor*%
D27*
G36*
X102984845Y-164297549D02*
G01*
X101891197Y-165391197D01*
X101875403Y-165410443D01*
X101863667Y-165432399D01*
X101856440Y-165456224D01*
X101854000Y-165481000D01*
X101854000Y-167132000D01*
X101856440Y-167156776D01*
X101863667Y-167180601D01*
X101875403Y-167202557D01*
X101891197Y-167221803D01*
X101910443Y-167237597D01*
X101932399Y-167249333D01*
X101956224Y-167256560D01*
X101981000Y-167259000D01*
X112215394Y-167259000D01*
X113157000Y-168200606D01*
X113157000Y-169164000D01*
X109160000Y-169164000D01*
X109160000Y-169032419D01*
X109163193Y-169000000D01*
X109150450Y-168870617D01*
X109112710Y-168746207D01*
X109051425Y-168631550D01*
X108968948Y-168531052D01*
X108868450Y-168448575D01*
X108753793Y-168387290D01*
X108629383Y-168349550D01*
X108532419Y-168340000D01*
X108500000Y-168336807D01*
X108467581Y-168340000D01*
X100330000Y-168340000D01*
X100330000Y-164637980D01*
X100889408Y-163966690D01*
X102984845Y-164297549D01*
G37*
%TD.AperFunction*%
%TD*%
D26*
%TO.N,GND*%
X113157000Y-179070000D02*
X109160000Y-179070000D01*
X109160000Y-169032419D01*
X109163193Y-169000000D01*
X109150450Y-168870617D01*
X109112710Y-168746207D01*
X109051425Y-168631550D01*
X108968948Y-168531052D01*
X108966000Y-168528633D01*
X108966000Y-168275000D01*
X113157000Y-168275000D01*
X113157000Y-179070000D01*
%TA.AperFunction,Conductor*%
D27*
G36*
X113157000Y-179070000D02*
G01*
X109160000Y-179070000D01*
X109160000Y-169032419D01*
X109163193Y-169000000D01*
X109150450Y-168870617D01*
X109112710Y-168746207D01*
X109051425Y-168631550D01*
X108968948Y-168531052D01*
X108966000Y-168528633D01*
X108966000Y-168275000D01*
X113157000Y-168275000D01*
X113157000Y-179070000D01*
G37*
%TD.AperFunction*%
%TD*%
D26*
%TO.N,+5V*%
X232872911Y-57325908D02*
X232791089Y-173736000D01*
X227203000Y-173736000D01*
X227203000Y-168529145D01*
X227329854Y-57278099D01*
X232872911Y-57325908D01*
%TA.AperFunction,Conductor*%
D27*
G36*
X232872911Y-57325908D02*
G01*
X232791089Y-173736000D01*
X227203000Y-173736000D01*
X227203000Y-168529145D01*
X227329854Y-57278099D01*
X232872911Y-57325908D01*
G37*
%TD.AperFunction*%
%TD*%
D26*
%TO.N,GND*%
X142476457Y-20796852D02*
X144500000Y-22820395D01*
X146523543Y-20796852D01*
X146433119Y-20660000D01*
X232566881Y-20660000D01*
X232476457Y-20796852D01*
X234500000Y-22820395D01*
X236523543Y-20796852D01*
X236433119Y-20660000D01*
X238840001Y-20660000D01*
X238840000Y-174498000D01*
X237439408Y-174498000D01*
X237439400Y-174485750D01*
X237280650Y-174327000D01*
X235661400Y-174327000D01*
X235661400Y-174347000D01*
X235407400Y-174347000D01*
X235407400Y-174327000D01*
X235387400Y-174327000D01*
X235387400Y-174073000D01*
X235407400Y-174073000D01*
X235407400Y-168723750D01*
X235661400Y-168723750D01*
X235661400Y-174073000D01*
X237280650Y-174073000D01*
X237439400Y-173914250D01*
X237442472Y-169200000D01*
X237430212Y-169075518D01*
X237393902Y-168955820D01*
X237334937Y-168845506D01*
X237255585Y-168748815D01*
X237158894Y-168669463D01*
X237048580Y-168610498D01*
X236928882Y-168574188D01*
X236804400Y-168561928D01*
X235820150Y-168565000D01*
X235661400Y-168723750D01*
X235407400Y-168723750D01*
X235248650Y-168565000D01*
X234442000Y-168562482D01*
X234442000Y-143296202D01*
X235390403Y-143296202D01*
X235461986Y-143540171D01*
X235717496Y-143661071D01*
X235991684Y-143729800D01*
X236274012Y-143743717D01*
X236553630Y-143702287D01*
X236819792Y-143607103D01*
X236945014Y-143540171D01*
X237016597Y-143296202D01*
X236203500Y-142483105D01*
X235390403Y-143296202D01*
X234442000Y-143296202D01*
X234442000Y-142374012D01*
X234763283Y-142374012D01*
X234804713Y-142653630D01*
X234899897Y-142919792D01*
X234966829Y-143045014D01*
X235210798Y-143116597D01*
X236023895Y-142303500D01*
X236383105Y-142303500D01*
X237196202Y-143116597D01*
X237440171Y-143045014D01*
X237561071Y-142789504D01*
X237629800Y-142515316D01*
X237643717Y-142232988D01*
X237602287Y-141953370D01*
X237507103Y-141687208D01*
X237440171Y-141561986D01*
X237196202Y-141490403D01*
X236383105Y-142303500D01*
X236023895Y-142303500D01*
X235210798Y-141490403D01*
X234966829Y-141561986D01*
X234845929Y-141817496D01*
X234777200Y-142091684D01*
X234763283Y-142374012D01*
X234442000Y-142374012D01*
X234442000Y-141310798D01*
X235390403Y-141310798D01*
X236203500Y-142123895D01*
X237016597Y-141310798D01*
X236945014Y-141066829D01*
X236689504Y-140945929D01*
X236415316Y-140877200D01*
X236132988Y-140863283D01*
X235853370Y-140904713D01*
X235587208Y-140999897D01*
X235461986Y-141066829D01*
X235390403Y-141310798D01*
X234442000Y-141310798D01*
X234442000Y-61190702D01*
X234945903Y-61190702D01*
X235017486Y-61434671D01*
X235272996Y-61555571D01*
X235547184Y-61624300D01*
X235829512Y-61638217D01*
X236109130Y-61596787D01*
X236375292Y-61501603D01*
X236500514Y-61434671D01*
X236572097Y-61190702D01*
X235759000Y-60377605D01*
X234945903Y-61190702D01*
X234442000Y-61190702D01*
X234442000Y-60776830D01*
X234455397Y-60814292D01*
X234522329Y-60939514D01*
X234766298Y-61011097D01*
X235579395Y-60198000D01*
X235938605Y-60198000D01*
X236751702Y-61011097D01*
X236995671Y-60939514D01*
X237116571Y-60684004D01*
X237185300Y-60409816D01*
X237199217Y-60127488D01*
X237157787Y-59847870D01*
X237062603Y-59581708D01*
X236995671Y-59456486D01*
X236751702Y-59384903D01*
X235938605Y-60198000D01*
X235579395Y-60198000D01*
X234766298Y-59384903D01*
X234522329Y-59456486D01*
X234442000Y-59626253D01*
X234442000Y-59205298D01*
X234945903Y-59205298D01*
X235759000Y-60018395D01*
X236572097Y-59205298D01*
X236500514Y-58961329D01*
X236245004Y-58840429D01*
X235970816Y-58771700D01*
X235688488Y-58757783D01*
X235408870Y-58799213D01*
X235142708Y-58894397D01*
X235017486Y-58961329D01*
X234945903Y-59205298D01*
X234442000Y-59205298D01*
X234442000Y-56515000D01*
X234439560Y-56490224D01*
X234432333Y-56466399D01*
X234420597Y-56444443D01*
X234404803Y-56425197D01*
X233134803Y-55155197D01*
X233115557Y-55139403D01*
X233093601Y-55127667D01*
X233069776Y-55120440D01*
X233045000Y-55118000D01*
X230557606Y-55118000D01*
X228727000Y-53287394D01*
X228727000Y-32385000D01*
X228724560Y-32360224D01*
X228717333Y-32336399D01*
X228705597Y-32314443D01*
X228689803Y-32295197D01*
X226149803Y-29755197D01*
X226130557Y-29739403D01*
X226108601Y-29727667D01*
X226084776Y-29720440D01*
X226060000Y-29718000D01*
X139827000Y-29718000D01*
X139827000Y-25203148D01*
X142476457Y-25203148D01*
X142752627Y-25621118D01*
X143297557Y-25911649D01*
X143888696Y-26090287D01*
X144503328Y-26150168D01*
X145117831Y-26088990D01*
X145708592Y-25909103D01*
X146247373Y-25621118D01*
X146523543Y-25203148D01*
X232476457Y-25203148D01*
X232752627Y-25621118D01*
X233297557Y-25911649D01*
X233888696Y-26090287D01*
X234503328Y-26150168D01*
X235117831Y-26088990D01*
X235708592Y-25909103D01*
X236247373Y-25621118D01*
X236523543Y-25203148D01*
X234500000Y-23179605D01*
X232476457Y-25203148D01*
X146523543Y-25203148D01*
X144500000Y-23179605D01*
X142476457Y-25203148D01*
X139827000Y-25203148D01*
X139827000Y-23003328D01*
X141349832Y-23003328D01*
X141411010Y-23617831D01*
X141590897Y-24208592D01*
X141878882Y-24747373D01*
X142296852Y-25023543D01*
X144320395Y-23000000D01*
X144679605Y-23000000D01*
X146703148Y-25023543D01*
X147121118Y-24747373D01*
X147411649Y-24202443D01*
X147590287Y-23611304D01*
X147649519Y-23003328D01*
X231349832Y-23003328D01*
X231411010Y-23617831D01*
X231590897Y-24208592D01*
X231878882Y-24747373D01*
X232296852Y-25023543D01*
X234320395Y-23000000D01*
X234679605Y-23000000D01*
X236703148Y-25023543D01*
X237121118Y-24747373D01*
X237411649Y-24202443D01*
X237590287Y-23611304D01*
X237650168Y-22996672D01*
X237588990Y-22382169D01*
X237409103Y-21791408D01*
X237121118Y-21252627D01*
X236703148Y-20976457D01*
X234679605Y-23000000D01*
X234320395Y-23000000D01*
X232296852Y-20976457D01*
X231878882Y-21252627D01*
X231588351Y-21797557D01*
X231409713Y-22388696D01*
X231349832Y-23003328D01*
X147649519Y-23003328D01*
X147650168Y-22996672D01*
X147588990Y-22382169D01*
X147409103Y-21791408D01*
X147121118Y-21252627D01*
X146703148Y-20976457D01*
X144679605Y-23000000D01*
X144320395Y-23000000D01*
X142296852Y-20976457D01*
X141878882Y-21252627D01*
X141588351Y-21797557D01*
X141409713Y-22388696D01*
X141349832Y-23003328D01*
X139827000Y-23003328D01*
X139827000Y-20660000D01*
X142566881Y-20660000D01*
X142476457Y-20796852D01*
%TA.AperFunction,Conductor*%
D27*
G36*
X142476457Y-20796852D02*
G01*
X144500000Y-22820395D01*
X146523543Y-20796852D01*
X146433119Y-20660000D01*
X232566881Y-20660000D01*
X232476457Y-20796852D01*
X234500000Y-22820395D01*
X236523543Y-20796852D01*
X236433119Y-20660000D01*
X238840001Y-20660000D01*
X238840000Y-174498000D01*
X237439408Y-174498000D01*
X237439400Y-174485750D01*
X237280650Y-174327000D01*
X235661400Y-174327000D01*
X235661400Y-174347000D01*
X235407400Y-174347000D01*
X235407400Y-174327000D01*
X235387400Y-174327000D01*
X235387400Y-174073000D01*
X235407400Y-174073000D01*
X235407400Y-168723750D01*
X235661400Y-168723750D01*
X235661400Y-174073000D01*
X237280650Y-174073000D01*
X237439400Y-173914250D01*
X237442472Y-169200000D01*
X237430212Y-169075518D01*
X237393902Y-168955820D01*
X237334937Y-168845506D01*
X237255585Y-168748815D01*
X237158894Y-168669463D01*
X237048580Y-168610498D01*
X236928882Y-168574188D01*
X236804400Y-168561928D01*
X235820150Y-168565000D01*
X235661400Y-168723750D01*
X235407400Y-168723750D01*
X235248650Y-168565000D01*
X234442000Y-168562482D01*
X234442000Y-143296202D01*
X235390403Y-143296202D01*
X235461986Y-143540171D01*
X235717496Y-143661071D01*
X235991684Y-143729800D01*
X236274012Y-143743717D01*
X236553630Y-143702287D01*
X236819792Y-143607103D01*
X236945014Y-143540171D01*
X237016597Y-143296202D01*
X236203500Y-142483105D01*
X235390403Y-143296202D01*
X234442000Y-143296202D01*
X234442000Y-142374012D01*
X234763283Y-142374012D01*
X234804713Y-142653630D01*
X234899897Y-142919792D01*
X234966829Y-143045014D01*
X235210798Y-143116597D01*
X236023895Y-142303500D01*
X236383105Y-142303500D01*
X237196202Y-143116597D01*
X237440171Y-143045014D01*
X237561071Y-142789504D01*
X237629800Y-142515316D01*
X237643717Y-142232988D01*
X237602287Y-141953370D01*
X237507103Y-141687208D01*
X237440171Y-141561986D01*
X237196202Y-141490403D01*
X236383105Y-142303500D01*
X236023895Y-142303500D01*
X235210798Y-141490403D01*
X234966829Y-141561986D01*
X234845929Y-141817496D01*
X234777200Y-142091684D01*
X234763283Y-142374012D01*
X234442000Y-142374012D01*
X234442000Y-141310798D01*
X235390403Y-141310798D01*
X236203500Y-142123895D01*
X237016597Y-141310798D01*
X236945014Y-141066829D01*
X236689504Y-140945929D01*
X236415316Y-140877200D01*
X236132988Y-140863283D01*
X235853370Y-140904713D01*
X235587208Y-140999897D01*
X235461986Y-141066829D01*
X235390403Y-141310798D01*
X234442000Y-141310798D01*
X234442000Y-61190702D01*
X234945903Y-61190702D01*
X235017486Y-61434671D01*
X235272996Y-61555571D01*
X235547184Y-61624300D01*
X235829512Y-61638217D01*
X236109130Y-61596787D01*
X236375292Y-61501603D01*
X236500514Y-61434671D01*
X236572097Y-61190702D01*
X235759000Y-60377605D01*
X234945903Y-61190702D01*
X234442000Y-61190702D01*
X234442000Y-60776830D01*
X234455397Y-60814292D01*
X234522329Y-60939514D01*
X234766298Y-61011097D01*
X235579395Y-60198000D01*
X235938605Y-60198000D01*
X236751702Y-61011097D01*
X236995671Y-60939514D01*
X237116571Y-60684004D01*
X237185300Y-60409816D01*
X237199217Y-60127488D01*
X237157787Y-59847870D01*
X237062603Y-59581708D01*
X236995671Y-59456486D01*
X236751702Y-59384903D01*
X235938605Y-60198000D01*
X235579395Y-60198000D01*
X234766298Y-59384903D01*
X234522329Y-59456486D01*
X234442000Y-59626253D01*
X234442000Y-59205298D01*
X234945903Y-59205298D01*
X235759000Y-60018395D01*
X236572097Y-59205298D01*
X236500514Y-58961329D01*
X236245004Y-58840429D01*
X235970816Y-58771700D01*
X235688488Y-58757783D01*
X235408870Y-58799213D01*
X235142708Y-58894397D01*
X235017486Y-58961329D01*
X234945903Y-59205298D01*
X234442000Y-59205298D01*
X234442000Y-56515000D01*
X234439560Y-56490224D01*
X234432333Y-56466399D01*
X234420597Y-56444443D01*
X234404803Y-56425197D01*
X233134803Y-55155197D01*
X233115557Y-55139403D01*
X233093601Y-55127667D01*
X233069776Y-55120440D01*
X233045000Y-55118000D01*
X230557606Y-55118000D01*
X228727000Y-53287394D01*
X228727000Y-32385000D01*
X228724560Y-32360224D01*
X228717333Y-32336399D01*
X228705597Y-32314443D01*
X228689803Y-32295197D01*
X226149803Y-29755197D01*
X226130557Y-29739403D01*
X226108601Y-29727667D01*
X226084776Y-29720440D01*
X226060000Y-29718000D01*
X139827000Y-29718000D01*
X139827000Y-25203148D01*
X142476457Y-25203148D01*
X142752627Y-25621118D01*
X143297557Y-25911649D01*
X143888696Y-26090287D01*
X144503328Y-26150168D01*
X145117831Y-26088990D01*
X145708592Y-25909103D01*
X146247373Y-25621118D01*
X146523543Y-25203148D01*
X232476457Y-25203148D01*
X232752627Y-25621118D01*
X233297557Y-25911649D01*
X233888696Y-26090287D01*
X234503328Y-26150168D01*
X235117831Y-26088990D01*
X235708592Y-25909103D01*
X236247373Y-25621118D01*
X236523543Y-25203148D01*
X234500000Y-23179605D01*
X232476457Y-25203148D01*
X146523543Y-25203148D01*
X144500000Y-23179605D01*
X142476457Y-25203148D01*
X139827000Y-25203148D01*
X139827000Y-23003328D01*
X141349832Y-23003328D01*
X141411010Y-23617831D01*
X141590897Y-24208592D01*
X141878882Y-24747373D01*
X142296852Y-25023543D01*
X144320395Y-23000000D01*
X144679605Y-23000000D01*
X146703148Y-25023543D01*
X147121118Y-24747373D01*
X147411649Y-24202443D01*
X147590287Y-23611304D01*
X147649519Y-23003328D01*
X231349832Y-23003328D01*
X231411010Y-23617831D01*
X231590897Y-24208592D01*
X231878882Y-24747373D01*
X232296852Y-25023543D01*
X234320395Y-23000000D01*
X234679605Y-23000000D01*
X236703148Y-25023543D01*
X237121118Y-24747373D01*
X237411649Y-24202443D01*
X237590287Y-23611304D01*
X237650168Y-22996672D01*
X237588990Y-22382169D01*
X237409103Y-21791408D01*
X237121118Y-21252627D01*
X236703148Y-20976457D01*
X234679605Y-23000000D01*
X234320395Y-23000000D01*
X232296852Y-20976457D01*
X231878882Y-21252627D01*
X231588351Y-21797557D01*
X231409713Y-22388696D01*
X231349832Y-23003328D01*
X147649519Y-23003328D01*
X147650168Y-22996672D01*
X147588990Y-22382169D01*
X147409103Y-21791408D01*
X147121118Y-21252627D01*
X146703148Y-20976457D01*
X144679605Y-23000000D01*
X144320395Y-23000000D01*
X142296852Y-20976457D01*
X141878882Y-21252627D01*
X141588351Y-21797557D01*
X141409713Y-22388696D01*
X141349832Y-23003328D01*
X139827000Y-23003328D01*
X139827000Y-20660000D01*
X142566881Y-20660000D01*
X142476457Y-20796852D01*
G37*
%TD.AperFunction*%
%TD*%
D26*
%TO.N,GND*%
X22476457Y-20796852D02*
X24500000Y-22820395D01*
X26523543Y-20796852D01*
X26433119Y-20660000D01*
X112566881Y-20660000D01*
X112476457Y-20796852D01*
X114500000Y-22820395D01*
X116523543Y-20796852D01*
X116433119Y-20660000D01*
X140208000Y-20660000D01*
X140208000Y-25907974D01*
X115719969Y-25903022D01*
X116247373Y-25621118D01*
X116523543Y-25203148D01*
X114500000Y-23179605D01*
X112476457Y-25203148D01*
X112752627Y-25621118D01*
X113280450Y-25902529D01*
X105626172Y-25900981D01*
X105625000Y-25685750D01*
X105466250Y-25527000D01*
X104267000Y-25527000D01*
X104267000Y-25547000D01*
X104013000Y-25547000D01*
X104013000Y-25527000D01*
X103993000Y-25527000D01*
X103993000Y-25273000D01*
X104013000Y-25273000D01*
X104013000Y-24073750D01*
X104267000Y-24073750D01*
X104267000Y-25273000D01*
X105466250Y-25273000D01*
X105625000Y-25114250D01*
X105628072Y-24550000D01*
X105615812Y-24425518D01*
X105579502Y-24305820D01*
X105520537Y-24195506D01*
X105441185Y-24098815D01*
X105344494Y-24019463D01*
X105234180Y-23960498D01*
X105114482Y-23924188D01*
X104990000Y-23911928D01*
X104425750Y-23915000D01*
X104267000Y-24073750D01*
X104013000Y-24073750D01*
X103854250Y-23915000D01*
X103290000Y-23911928D01*
X103165518Y-23924188D01*
X103045820Y-23960498D01*
X102935506Y-24019463D01*
X102838815Y-24098815D01*
X102759463Y-24195506D01*
X102700498Y-24305820D01*
X102664188Y-24425518D01*
X102651928Y-24550000D01*
X102651975Y-24558557D01*
X102628397Y-24551208D01*
X101779605Y-25400000D01*
X101793748Y-25414143D01*
X101614143Y-25593748D01*
X101600000Y-25579605D01*
X101585858Y-25593748D01*
X101406253Y-25414143D01*
X101420395Y-25400000D01*
X100571603Y-24551208D01*
X100330000Y-24626514D01*
X100088397Y-24551208D01*
X99239605Y-25400000D01*
X99253748Y-25414143D01*
X99074143Y-25593748D01*
X99060000Y-25579605D01*
X99045858Y-25593748D01*
X98866253Y-25414143D01*
X98880395Y-25400000D01*
X98031603Y-24551208D01*
X97790000Y-24626514D01*
X97548397Y-24551208D01*
X96699605Y-25400000D01*
X96713748Y-25414143D01*
X96534143Y-25593748D01*
X96520000Y-25579605D01*
X96505858Y-25593748D01*
X96326253Y-25414143D01*
X96340395Y-25400000D01*
X95491603Y-24551208D01*
X95250000Y-24626514D01*
X95008397Y-24551208D01*
X94159605Y-25400000D01*
X94173748Y-25414143D01*
X93994143Y-25593748D01*
X93980000Y-25579605D01*
X93965858Y-25593748D01*
X93786253Y-25414143D01*
X93800395Y-25400000D01*
X92951603Y-24551208D01*
X92710000Y-24626514D01*
X92468397Y-24551208D01*
X91619605Y-25400000D01*
X91633748Y-25414143D01*
X91454143Y-25593748D01*
X91440000Y-25579605D01*
X91425858Y-25593748D01*
X91246253Y-25414143D01*
X91260395Y-25400000D01*
X90411603Y-24551208D01*
X90170000Y-24626514D01*
X89928397Y-24551208D01*
X89079605Y-25400000D01*
X89093748Y-25414143D01*
X88914143Y-25593748D01*
X88900000Y-25579605D01*
X88885858Y-25593748D01*
X88706253Y-25414143D01*
X88720395Y-25400000D01*
X87871603Y-24551208D01*
X87630000Y-24626514D01*
X87388397Y-24551208D01*
X86539605Y-25400000D01*
X86553748Y-25414143D01*
X86374143Y-25593748D01*
X86360000Y-25579605D01*
X86345858Y-25593748D01*
X86166253Y-25414143D01*
X86180395Y-25400000D01*
X85331603Y-24551208D01*
X85090000Y-24626514D01*
X84848397Y-24551208D01*
X83999605Y-25400000D01*
X84013748Y-25414143D01*
X83834143Y-25593748D01*
X83820000Y-25579605D01*
X83805858Y-25593748D01*
X83626253Y-25414143D01*
X83640395Y-25400000D01*
X82791603Y-24551208D01*
X82550000Y-24626514D01*
X82308397Y-24551208D01*
X81459605Y-25400000D01*
X81473748Y-25414143D01*
X81294143Y-25593748D01*
X81280000Y-25579605D01*
X81265858Y-25593748D01*
X81086253Y-25414143D01*
X81100395Y-25400000D01*
X80251603Y-24551208D01*
X80010000Y-24626514D01*
X79768397Y-24551208D01*
X78919605Y-25400000D01*
X78933748Y-25414143D01*
X78754143Y-25593748D01*
X78740000Y-25579605D01*
X78725858Y-25593748D01*
X78546253Y-25414143D01*
X78560395Y-25400000D01*
X77711603Y-24551208D01*
X77470000Y-24626514D01*
X77228397Y-24551208D01*
X76379605Y-25400000D01*
X76393748Y-25414143D01*
X76214143Y-25593748D01*
X76200000Y-25579605D01*
X76185858Y-25593748D01*
X76006253Y-25414143D01*
X76020395Y-25400000D01*
X75171603Y-24551208D01*
X74930000Y-24626514D01*
X74688397Y-24551208D01*
X73839605Y-25400000D01*
X73853748Y-25414143D01*
X73674143Y-25593748D01*
X73660000Y-25579605D01*
X73645858Y-25593748D01*
X73466253Y-25414143D01*
X73480395Y-25400000D01*
X72631603Y-24551208D01*
X72390000Y-24626514D01*
X72148397Y-24551208D01*
X71299605Y-25400000D01*
X71313748Y-25414143D01*
X71134143Y-25593748D01*
X71120000Y-25579605D01*
X71105858Y-25593748D01*
X70926253Y-25414143D01*
X70940395Y-25400000D01*
X70091603Y-24551208D01*
X69850000Y-24626514D01*
X69608397Y-24551208D01*
X68759605Y-25400000D01*
X68773748Y-25414143D01*
X68594143Y-25593748D01*
X68580000Y-25579605D01*
X68565858Y-25593748D01*
X68386253Y-25414143D01*
X68400395Y-25400000D01*
X67551603Y-24551208D01*
X67310000Y-24626514D01*
X67068397Y-24551208D01*
X66219605Y-25400000D01*
X66233748Y-25414143D01*
X66054143Y-25593748D01*
X66040000Y-25579605D01*
X66025858Y-25593748D01*
X65846253Y-25414143D01*
X65860395Y-25400000D01*
X65011603Y-24551208D01*
X64770000Y-24626514D01*
X64528397Y-24551208D01*
X63679605Y-25400000D01*
X63693748Y-25414143D01*
X63514143Y-25593748D01*
X63500000Y-25579605D01*
X63485858Y-25593748D01*
X63306253Y-25414143D01*
X63320395Y-25400000D01*
X62471603Y-24551208D01*
X62230000Y-24626514D01*
X61988397Y-24551208D01*
X61139605Y-25400000D01*
X61153748Y-25414143D01*
X60974143Y-25593748D01*
X60960000Y-25579605D01*
X60945858Y-25593748D01*
X60766253Y-25414143D01*
X60780395Y-25400000D01*
X59931603Y-24551208D01*
X59690000Y-24626514D01*
X59448397Y-24551208D01*
X58599605Y-25400000D01*
X58613748Y-25414143D01*
X58434143Y-25593748D01*
X58420000Y-25579605D01*
X58405858Y-25593748D01*
X58226253Y-25414143D01*
X58240395Y-25400000D01*
X57391603Y-24551208D01*
X57150000Y-24626514D01*
X56908397Y-24551208D01*
X56059605Y-25400000D01*
X56073748Y-25414143D01*
X55894143Y-25593748D01*
X55880000Y-25579605D01*
X55865858Y-25593748D01*
X55686253Y-25414143D01*
X55700395Y-25400000D01*
X54851603Y-24551208D01*
X54602528Y-24628843D01*
X54476629Y-24892883D01*
X54404661Y-25176411D01*
X54389389Y-25468531D01*
X54431401Y-25758019D01*
X54478383Y-25890637D01*
X53800026Y-25890500D01*
X53775249Y-25892935D01*
X53751423Y-25900157D01*
X53729464Y-25911889D01*
X53710216Y-25927679D01*
X53694418Y-25946921D01*
X53682677Y-25968875D01*
X53675445Y-25992698D01*
X53673000Y-26017500D01*
X53673000Y-33855632D01*
X37066443Y-33872931D01*
X35104373Y-31042645D01*
X35088251Y-31023673D01*
X35068739Y-31008210D01*
X35046584Y-30996852D01*
X35022640Y-30990034D01*
X35000000Y-30988000D01*
X31115000Y-30988000D01*
X31090224Y-30990440D01*
X31066399Y-30997667D01*
X31044443Y-31009403D01*
X31025197Y-31025197D01*
X31009330Y-31044553D01*
X29739330Y-32949553D01*
X29727617Y-32971522D01*
X29720414Y-32995354D01*
X29718000Y-33020000D01*
X29718000Y-35875727D01*
X29551082Y-36125537D01*
X29427832Y-36423088D01*
X29365000Y-36738967D01*
X29365000Y-37061033D01*
X29427832Y-37376912D01*
X29551082Y-37674463D01*
X29718000Y-37924273D01*
X29718000Y-58961149D01*
X29456988Y-58948283D01*
X29177370Y-58989713D01*
X28911208Y-59084897D01*
X28785986Y-59151829D01*
X28714403Y-59395798D01*
X29527500Y-60208895D01*
X29541643Y-60194753D01*
X29718000Y-60371110D01*
X29718000Y-60377605D01*
X29707105Y-60388500D01*
X29718000Y-60399395D01*
X29718000Y-60405890D01*
X29541643Y-60582248D01*
X29527500Y-60568105D01*
X28714403Y-61381202D01*
X28785986Y-61625171D01*
X29041496Y-61746071D01*
X29315684Y-61814800D01*
X29598012Y-61828717D01*
X29718000Y-61810939D01*
X29718000Y-63436500D01*
X27228800Y-65303400D01*
X27210443Y-65320218D01*
X27195720Y-65340294D01*
X27185196Y-65362857D01*
X27179276Y-65387039D01*
X27178000Y-65405000D01*
X27178000Y-94562394D01*
X24077394Y-97663000D01*
X20160000Y-97663000D01*
X20160000Y-60459012D01*
X28087283Y-60459012D01*
X28128713Y-60738630D01*
X28223897Y-61004792D01*
X28290829Y-61130014D01*
X28534798Y-61201597D01*
X29347895Y-60388500D01*
X28534798Y-59575403D01*
X28290829Y-59646986D01*
X28169929Y-59902496D01*
X28101200Y-60176684D01*
X28087283Y-60459012D01*
X20160000Y-60459012D01*
X20160000Y-25203148D01*
X22476457Y-25203148D01*
X22752627Y-25621118D01*
X23297557Y-25911649D01*
X23888696Y-26090287D01*
X24503328Y-26150168D01*
X25117831Y-26088990D01*
X25708592Y-25909103D01*
X26247373Y-25621118D01*
X26523543Y-25203148D01*
X24500000Y-23179605D01*
X22476457Y-25203148D01*
X20160000Y-25203148D01*
X20160000Y-23003328D01*
X21349832Y-23003328D01*
X21411010Y-23617831D01*
X21590897Y-24208592D01*
X21878882Y-24747373D01*
X22296852Y-25023543D01*
X24320395Y-23000000D01*
X24679605Y-23000000D01*
X26703148Y-25023543D01*
X27121118Y-24747373D01*
X27321460Y-24371603D01*
X55031208Y-24371603D01*
X55880000Y-25220395D01*
X56728792Y-24371603D01*
X57571208Y-24371603D01*
X58420000Y-25220395D01*
X59268792Y-24371603D01*
X60111208Y-24371603D01*
X60960000Y-25220395D01*
X61808792Y-24371603D01*
X62651208Y-24371603D01*
X63500000Y-25220395D01*
X64348792Y-24371603D01*
X65191208Y-24371603D01*
X66040000Y-25220395D01*
X66888792Y-24371603D01*
X67731208Y-24371603D01*
X68580000Y-25220395D01*
X69428792Y-24371603D01*
X70271208Y-24371603D01*
X71120000Y-25220395D01*
X71968792Y-24371603D01*
X72811208Y-24371603D01*
X73660000Y-25220395D01*
X74508792Y-24371603D01*
X75351208Y-24371603D01*
X76200000Y-25220395D01*
X77048792Y-24371603D01*
X77891208Y-24371603D01*
X78740000Y-25220395D01*
X79588792Y-24371603D01*
X80431208Y-24371603D01*
X81280000Y-25220395D01*
X82128792Y-24371603D01*
X82971208Y-24371603D01*
X83820000Y-25220395D01*
X84668792Y-24371603D01*
X85511208Y-24371603D01*
X86360000Y-25220395D01*
X87208792Y-24371603D01*
X88051208Y-24371603D01*
X88900000Y-25220395D01*
X89748792Y-24371603D01*
X90591208Y-24371603D01*
X91440000Y-25220395D01*
X92288792Y-24371603D01*
X93131208Y-24371603D01*
X93980000Y-25220395D01*
X94828792Y-24371603D01*
X95671208Y-24371603D01*
X96520000Y-25220395D01*
X97368792Y-24371603D01*
X98211208Y-24371603D01*
X99060000Y-25220395D01*
X99908792Y-24371603D01*
X100751208Y-24371603D01*
X101600000Y-25220395D01*
X102448792Y-24371603D01*
X102371157Y-24122528D01*
X102107117Y-23996629D01*
X101823589Y-23924661D01*
X101531469Y-23909389D01*
X101241981Y-23951401D01*
X100966253Y-24049081D01*
X100828843Y-24122528D01*
X100751208Y-24371603D01*
X99908792Y-24371603D01*
X99831157Y-24122528D01*
X99567117Y-23996629D01*
X99283589Y-23924661D01*
X98991469Y-23909389D01*
X98701981Y-23951401D01*
X98426253Y-24049081D01*
X98288843Y-24122528D01*
X98211208Y-24371603D01*
X97368792Y-24371603D01*
X97291157Y-24122528D01*
X97027117Y-23996629D01*
X96743589Y-23924661D01*
X96451469Y-23909389D01*
X96161981Y-23951401D01*
X95886253Y-24049081D01*
X95748843Y-24122528D01*
X95671208Y-24371603D01*
X94828792Y-24371603D01*
X94751157Y-24122528D01*
X94487117Y-23996629D01*
X94203589Y-23924661D01*
X93911469Y-23909389D01*
X93621981Y-23951401D01*
X93346253Y-24049081D01*
X93208843Y-24122528D01*
X93131208Y-24371603D01*
X92288792Y-24371603D01*
X92211157Y-24122528D01*
X91947117Y-23996629D01*
X91663589Y-23924661D01*
X91371469Y-23909389D01*
X91081981Y-23951401D01*
X90806253Y-24049081D01*
X90668843Y-24122528D01*
X90591208Y-24371603D01*
X89748792Y-24371603D01*
X89671157Y-24122528D01*
X89407117Y-23996629D01*
X89123589Y-23924661D01*
X88831469Y-23909389D01*
X88541981Y-23951401D01*
X88266253Y-24049081D01*
X88128843Y-24122528D01*
X88051208Y-24371603D01*
X87208792Y-24371603D01*
X87131157Y-24122528D01*
X86867117Y-23996629D01*
X86583589Y-23924661D01*
X86291469Y-23909389D01*
X86001981Y-23951401D01*
X85726253Y-24049081D01*
X85588843Y-24122528D01*
X85511208Y-24371603D01*
X84668792Y-24371603D01*
X84591157Y-24122528D01*
X84327117Y-23996629D01*
X84043589Y-23924661D01*
X83751469Y-23909389D01*
X83461981Y-23951401D01*
X83186253Y-24049081D01*
X83048843Y-24122528D01*
X82971208Y-24371603D01*
X82128792Y-24371603D01*
X82051157Y-24122528D01*
X81787117Y-23996629D01*
X81503589Y-23924661D01*
X81211469Y-23909389D01*
X80921981Y-23951401D01*
X80646253Y-24049081D01*
X80508843Y-24122528D01*
X80431208Y-24371603D01*
X79588792Y-24371603D01*
X79511157Y-24122528D01*
X79247117Y-23996629D01*
X78963589Y-23924661D01*
X78671469Y-23909389D01*
X78381981Y-23951401D01*
X78106253Y-24049081D01*
X77968843Y-24122528D01*
X77891208Y-24371603D01*
X77048792Y-24371603D01*
X76971157Y-24122528D01*
X76707117Y-23996629D01*
X76423589Y-23924661D01*
X76131469Y-23909389D01*
X75841981Y-23951401D01*
X75566253Y-24049081D01*
X75428843Y-24122528D01*
X75351208Y-24371603D01*
X74508792Y-24371603D01*
X74431157Y-24122528D01*
X74167117Y-23996629D01*
X73883589Y-23924661D01*
X73591469Y-23909389D01*
X73301981Y-23951401D01*
X73026253Y-24049081D01*
X72888843Y-24122528D01*
X72811208Y-24371603D01*
X71968792Y-24371603D01*
X71891157Y-24122528D01*
X71627117Y-23996629D01*
X71343589Y-23924661D01*
X71051469Y-23909389D01*
X70761981Y-23951401D01*
X70486253Y-24049081D01*
X70348843Y-24122528D01*
X70271208Y-24371603D01*
X69428792Y-24371603D01*
X69351157Y-24122528D01*
X69087117Y-23996629D01*
X68803589Y-23924661D01*
X68511469Y-23909389D01*
X68221981Y-23951401D01*
X67946253Y-24049081D01*
X67808843Y-24122528D01*
X67731208Y-24371603D01*
X66888792Y-24371603D01*
X66811157Y-24122528D01*
X66547117Y-23996629D01*
X66263589Y-23924661D01*
X65971469Y-23909389D01*
X65681981Y-23951401D01*
X65406253Y-24049081D01*
X65268843Y-24122528D01*
X65191208Y-24371603D01*
X64348792Y-24371603D01*
X64271157Y-24122528D01*
X64007117Y-23996629D01*
X63723589Y-23924661D01*
X63431469Y-23909389D01*
X63141981Y-23951401D01*
X62866253Y-24049081D01*
X62728843Y-24122528D01*
X62651208Y-24371603D01*
X61808792Y-24371603D01*
X61731157Y-24122528D01*
X61467117Y-23996629D01*
X61183589Y-23924661D01*
X60891469Y-23909389D01*
X60601981Y-23951401D01*
X60326253Y-24049081D01*
X60188843Y-24122528D01*
X60111208Y-24371603D01*
X59268792Y-24371603D01*
X59191157Y-24122528D01*
X58927117Y-23996629D01*
X58643589Y-23924661D01*
X58351469Y-23909389D01*
X58061981Y-23951401D01*
X57786253Y-24049081D01*
X57648843Y-24122528D01*
X57571208Y-24371603D01*
X56728792Y-24371603D01*
X56651157Y-24122528D01*
X56387117Y-23996629D01*
X56103589Y-23924661D01*
X55811469Y-23909389D01*
X55521981Y-23951401D01*
X55246253Y-24049081D01*
X55108843Y-24122528D01*
X55031208Y-24371603D01*
X27321460Y-24371603D01*
X27411649Y-24202443D01*
X27590287Y-23611304D01*
X27649519Y-23003328D01*
X111349832Y-23003328D01*
X111411010Y-23617831D01*
X111590897Y-24208592D01*
X111878882Y-24747373D01*
X112296852Y-25023543D01*
X114320395Y-23000000D01*
X114679605Y-23000000D01*
X116703148Y-25023543D01*
X117121118Y-24747373D01*
X117411649Y-24202443D01*
X117590287Y-23611304D01*
X117650168Y-22996672D01*
X117588990Y-22382169D01*
X117409103Y-21791408D01*
X117121118Y-21252627D01*
X116703148Y-20976457D01*
X114679605Y-23000000D01*
X114320395Y-23000000D01*
X112296852Y-20976457D01*
X111878882Y-21252627D01*
X111588351Y-21797557D01*
X111409713Y-22388696D01*
X111349832Y-23003328D01*
X27649519Y-23003328D01*
X27650168Y-22996672D01*
X27588990Y-22382169D01*
X27409103Y-21791408D01*
X27121118Y-21252627D01*
X26703148Y-20976457D01*
X24679605Y-23000000D01*
X24320395Y-23000000D01*
X22296852Y-20976457D01*
X21878882Y-21252627D01*
X21588351Y-21797557D01*
X21409713Y-22388696D01*
X21349832Y-23003328D01*
X20160000Y-23003328D01*
X20160000Y-20660000D01*
X22566881Y-20660000D01*
X22476457Y-20796852D01*
%TA.AperFunction,Conductor*%
D27*
G36*
X22476457Y-20796852D02*
G01*
X24500000Y-22820395D01*
X26523543Y-20796852D01*
X26433119Y-20660000D01*
X112566881Y-20660000D01*
X112476457Y-20796852D01*
X114500000Y-22820395D01*
X116523543Y-20796852D01*
X116433119Y-20660000D01*
X140208000Y-20660000D01*
X140208000Y-25907974D01*
X115719969Y-25903022D01*
X116247373Y-25621118D01*
X116523543Y-25203148D01*
X114500000Y-23179605D01*
X112476457Y-25203148D01*
X112752627Y-25621118D01*
X113280450Y-25902529D01*
X105626172Y-25900981D01*
X105625000Y-25685750D01*
X105466250Y-25527000D01*
X104267000Y-25527000D01*
X104267000Y-25547000D01*
X104013000Y-25547000D01*
X104013000Y-25527000D01*
X103993000Y-25527000D01*
X103993000Y-25273000D01*
X104013000Y-25273000D01*
X104013000Y-24073750D01*
X104267000Y-24073750D01*
X104267000Y-25273000D01*
X105466250Y-25273000D01*
X105625000Y-25114250D01*
X105628072Y-24550000D01*
X105615812Y-24425518D01*
X105579502Y-24305820D01*
X105520537Y-24195506D01*
X105441185Y-24098815D01*
X105344494Y-24019463D01*
X105234180Y-23960498D01*
X105114482Y-23924188D01*
X104990000Y-23911928D01*
X104425750Y-23915000D01*
X104267000Y-24073750D01*
X104013000Y-24073750D01*
X103854250Y-23915000D01*
X103290000Y-23911928D01*
X103165518Y-23924188D01*
X103045820Y-23960498D01*
X102935506Y-24019463D01*
X102838815Y-24098815D01*
X102759463Y-24195506D01*
X102700498Y-24305820D01*
X102664188Y-24425518D01*
X102651928Y-24550000D01*
X102651975Y-24558557D01*
X102628397Y-24551208D01*
X101779605Y-25400000D01*
X101793748Y-25414143D01*
X101614143Y-25593748D01*
X101600000Y-25579605D01*
X101585858Y-25593748D01*
X101406253Y-25414143D01*
X101420395Y-25400000D01*
X100571603Y-24551208D01*
X100330000Y-24626514D01*
X100088397Y-24551208D01*
X99239605Y-25400000D01*
X99253748Y-25414143D01*
X99074143Y-25593748D01*
X99060000Y-25579605D01*
X99045858Y-25593748D01*
X98866253Y-25414143D01*
X98880395Y-25400000D01*
X98031603Y-24551208D01*
X97790000Y-24626514D01*
X97548397Y-24551208D01*
X96699605Y-25400000D01*
X96713748Y-25414143D01*
X96534143Y-25593748D01*
X96520000Y-25579605D01*
X96505858Y-25593748D01*
X96326253Y-25414143D01*
X96340395Y-25400000D01*
X95491603Y-24551208D01*
X95250000Y-24626514D01*
X95008397Y-24551208D01*
X94159605Y-25400000D01*
X94173748Y-25414143D01*
X93994143Y-25593748D01*
X93980000Y-25579605D01*
X93965858Y-25593748D01*
X93786253Y-25414143D01*
X93800395Y-25400000D01*
X92951603Y-24551208D01*
X92710000Y-24626514D01*
X92468397Y-24551208D01*
X91619605Y-25400000D01*
X91633748Y-25414143D01*
X91454143Y-25593748D01*
X91440000Y-25579605D01*
X91425858Y-25593748D01*
X91246253Y-25414143D01*
X91260395Y-25400000D01*
X90411603Y-24551208D01*
X90170000Y-24626514D01*
X89928397Y-24551208D01*
X89079605Y-25400000D01*
X89093748Y-25414143D01*
X88914143Y-25593748D01*
X88900000Y-25579605D01*
X88885858Y-25593748D01*
X88706253Y-25414143D01*
X88720395Y-25400000D01*
X87871603Y-24551208D01*
X87630000Y-24626514D01*
X87388397Y-24551208D01*
X86539605Y-25400000D01*
X86553748Y-25414143D01*
X86374143Y-25593748D01*
X86360000Y-25579605D01*
X86345858Y-25593748D01*
X86166253Y-25414143D01*
X86180395Y-25400000D01*
X85331603Y-24551208D01*
X85090000Y-24626514D01*
X84848397Y-24551208D01*
X83999605Y-25400000D01*
X84013748Y-25414143D01*
X83834143Y-25593748D01*
X83820000Y-25579605D01*
X83805858Y-25593748D01*
X83626253Y-25414143D01*
X83640395Y-25400000D01*
X82791603Y-24551208D01*
X82550000Y-24626514D01*
X82308397Y-24551208D01*
X81459605Y-25400000D01*
X81473748Y-25414143D01*
X81294143Y-25593748D01*
X81280000Y-25579605D01*
X81265858Y-25593748D01*
X81086253Y-25414143D01*
X81100395Y-25400000D01*
X80251603Y-24551208D01*
X80010000Y-24626514D01*
X79768397Y-24551208D01*
X78919605Y-25400000D01*
X78933748Y-25414143D01*
X78754143Y-25593748D01*
X78740000Y-25579605D01*
X78725858Y-25593748D01*
X78546253Y-25414143D01*
X78560395Y-25400000D01*
X77711603Y-24551208D01*
X77470000Y-24626514D01*
X77228397Y-24551208D01*
X76379605Y-25400000D01*
X76393748Y-25414143D01*
X76214143Y-25593748D01*
X76200000Y-25579605D01*
X76185858Y-25593748D01*
X76006253Y-25414143D01*
X76020395Y-25400000D01*
X75171603Y-24551208D01*
X74930000Y-24626514D01*
X74688397Y-24551208D01*
X73839605Y-25400000D01*
X73853748Y-25414143D01*
X73674143Y-25593748D01*
X73660000Y-25579605D01*
X73645858Y-25593748D01*
X73466253Y-25414143D01*
X73480395Y-25400000D01*
X72631603Y-24551208D01*
X72390000Y-24626514D01*
X72148397Y-24551208D01*
X71299605Y-25400000D01*
X71313748Y-25414143D01*
X71134143Y-25593748D01*
X71120000Y-25579605D01*
X71105858Y-25593748D01*
X70926253Y-25414143D01*
X70940395Y-25400000D01*
X70091603Y-24551208D01*
X69850000Y-24626514D01*
X69608397Y-24551208D01*
X68759605Y-25400000D01*
X68773748Y-25414143D01*
X68594143Y-25593748D01*
X68580000Y-25579605D01*
X68565858Y-25593748D01*
X68386253Y-25414143D01*
X68400395Y-25400000D01*
X67551603Y-24551208D01*
X67310000Y-24626514D01*
X67068397Y-24551208D01*
X66219605Y-25400000D01*
X66233748Y-25414143D01*
X66054143Y-25593748D01*
X66040000Y-25579605D01*
X66025858Y-25593748D01*
X65846253Y-25414143D01*
X65860395Y-25400000D01*
X65011603Y-24551208D01*
X64770000Y-24626514D01*
X64528397Y-24551208D01*
X63679605Y-25400000D01*
X63693748Y-25414143D01*
X63514143Y-25593748D01*
X63500000Y-25579605D01*
X63485858Y-25593748D01*
X63306253Y-25414143D01*
X63320395Y-25400000D01*
X62471603Y-24551208D01*
X62230000Y-24626514D01*
X61988397Y-24551208D01*
X61139605Y-25400000D01*
X61153748Y-25414143D01*
X60974143Y-25593748D01*
X60960000Y-25579605D01*
X60945858Y-25593748D01*
X60766253Y-25414143D01*
X60780395Y-25400000D01*
X59931603Y-24551208D01*
X59690000Y-24626514D01*
X59448397Y-24551208D01*
X58599605Y-25400000D01*
X58613748Y-25414143D01*
X58434143Y-25593748D01*
X58420000Y-25579605D01*
X58405858Y-25593748D01*
X58226253Y-25414143D01*
X58240395Y-25400000D01*
X57391603Y-24551208D01*
X57150000Y-24626514D01*
X56908397Y-24551208D01*
X56059605Y-25400000D01*
X56073748Y-25414143D01*
X55894143Y-25593748D01*
X55880000Y-25579605D01*
X55865858Y-25593748D01*
X55686253Y-25414143D01*
X55700395Y-25400000D01*
X54851603Y-24551208D01*
X54602528Y-24628843D01*
X54476629Y-24892883D01*
X54404661Y-25176411D01*
X54389389Y-25468531D01*
X54431401Y-25758019D01*
X54478383Y-25890637D01*
X53800026Y-25890500D01*
X53775249Y-25892935D01*
X53751423Y-25900157D01*
X53729464Y-25911889D01*
X53710216Y-25927679D01*
X53694418Y-25946921D01*
X53682677Y-25968875D01*
X53675445Y-25992698D01*
X53673000Y-26017500D01*
X53673000Y-33855632D01*
X37066443Y-33872931D01*
X35104373Y-31042645D01*
X35088251Y-31023673D01*
X35068739Y-31008210D01*
X35046584Y-30996852D01*
X35022640Y-30990034D01*
X35000000Y-30988000D01*
X31115000Y-30988000D01*
X31090224Y-30990440D01*
X31066399Y-30997667D01*
X31044443Y-31009403D01*
X31025197Y-31025197D01*
X31009330Y-31044553D01*
X29739330Y-32949553D01*
X29727617Y-32971522D01*
X29720414Y-32995354D01*
X29718000Y-33020000D01*
X29718000Y-35875727D01*
X29551082Y-36125537D01*
X29427832Y-36423088D01*
X29365000Y-36738967D01*
X29365000Y-37061033D01*
X29427832Y-37376912D01*
X29551082Y-37674463D01*
X29718000Y-37924273D01*
X29718000Y-58961149D01*
X29456988Y-58948283D01*
X29177370Y-58989713D01*
X28911208Y-59084897D01*
X28785986Y-59151829D01*
X28714403Y-59395798D01*
X29527500Y-60208895D01*
X29541643Y-60194753D01*
X29718000Y-60371110D01*
X29718000Y-60377605D01*
X29707105Y-60388500D01*
X29718000Y-60399395D01*
X29718000Y-60405890D01*
X29541643Y-60582248D01*
X29527500Y-60568105D01*
X28714403Y-61381202D01*
X28785986Y-61625171D01*
X29041496Y-61746071D01*
X29315684Y-61814800D01*
X29598012Y-61828717D01*
X29718000Y-61810939D01*
X29718000Y-63436500D01*
X27228800Y-65303400D01*
X27210443Y-65320218D01*
X27195720Y-65340294D01*
X27185196Y-65362857D01*
X27179276Y-65387039D01*
X27178000Y-65405000D01*
X27178000Y-94562394D01*
X24077394Y-97663000D01*
X20160000Y-97663000D01*
X20160000Y-60459012D01*
X28087283Y-60459012D01*
X28128713Y-60738630D01*
X28223897Y-61004792D01*
X28290829Y-61130014D01*
X28534798Y-61201597D01*
X29347895Y-60388500D01*
X28534798Y-59575403D01*
X28290829Y-59646986D01*
X28169929Y-59902496D01*
X28101200Y-60176684D01*
X28087283Y-60459012D01*
X20160000Y-60459012D01*
X20160000Y-25203148D01*
X22476457Y-25203148D01*
X22752627Y-25621118D01*
X23297557Y-25911649D01*
X23888696Y-26090287D01*
X24503328Y-26150168D01*
X25117831Y-26088990D01*
X25708592Y-25909103D01*
X26247373Y-25621118D01*
X26523543Y-25203148D01*
X24500000Y-23179605D01*
X22476457Y-25203148D01*
X20160000Y-25203148D01*
X20160000Y-23003328D01*
X21349832Y-23003328D01*
X21411010Y-23617831D01*
X21590897Y-24208592D01*
X21878882Y-24747373D01*
X22296852Y-25023543D01*
X24320395Y-23000000D01*
X24679605Y-23000000D01*
X26703148Y-25023543D01*
X27121118Y-24747373D01*
X27321460Y-24371603D01*
X55031208Y-24371603D01*
X55880000Y-25220395D01*
X56728792Y-24371603D01*
X57571208Y-24371603D01*
X58420000Y-25220395D01*
X59268792Y-24371603D01*
X60111208Y-24371603D01*
X60960000Y-25220395D01*
X61808792Y-24371603D01*
X62651208Y-24371603D01*
X63500000Y-25220395D01*
X64348792Y-24371603D01*
X65191208Y-24371603D01*
X66040000Y-25220395D01*
X66888792Y-24371603D01*
X67731208Y-24371603D01*
X68580000Y-25220395D01*
X69428792Y-24371603D01*
X70271208Y-24371603D01*
X71120000Y-25220395D01*
X71968792Y-24371603D01*
X72811208Y-24371603D01*
X73660000Y-25220395D01*
X74508792Y-24371603D01*
X75351208Y-24371603D01*
X76200000Y-25220395D01*
X77048792Y-24371603D01*
X77891208Y-24371603D01*
X78740000Y-25220395D01*
X79588792Y-24371603D01*
X80431208Y-24371603D01*
X81280000Y-25220395D01*
X82128792Y-24371603D01*
X82971208Y-24371603D01*
X83820000Y-25220395D01*
X84668792Y-24371603D01*
X85511208Y-24371603D01*
X86360000Y-25220395D01*
X87208792Y-24371603D01*
X88051208Y-24371603D01*
X88900000Y-25220395D01*
X89748792Y-24371603D01*
X90591208Y-24371603D01*
X91440000Y-25220395D01*
X92288792Y-24371603D01*
X93131208Y-24371603D01*
X93980000Y-25220395D01*
X94828792Y-24371603D01*
X95671208Y-24371603D01*
X96520000Y-25220395D01*
X97368792Y-24371603D01*
X98211208Y-24371603D01*
X99060000Y-25220395D01*
X99908792Y-24371603D01*
X100751208Y-24371603D01*
X101600000Y-25220395D01*
X102448792Y-24371603D01*
X102371157Y-24122528D01*
X102107117Y-23996629D01*
X101823589Y-23924661D01*
X101531469Y-23909389D01*
X101241981Y-23951401D01*
X100966253Y-24049081D01*
X100828843Y-24122528D01*
X100751208Y-24371603D01*
X99908792Y-24371603D01*
X99831157Y-24122528D01*
X99567117Y-23996629D01*
X99283589Y-23924661D01*
X98991469Y-23909389D01*
X98701981Y-23951401D01*
X98426253Y-24049081D01*
X98288843Y-24122528D01*
X98211208Y-24371603D01*
X97368792Y-24371603D01*
X97291157Y-24122528D01*
X97027117Y-23996629D01*
X96743589Y-23924661D01*
X96451469Y-23909389D01*
X96161981Y-23951401D01*
X95886253Y-24049081D01*
X95748843Y-24122528D01*
X95671208Y-24371603D01*
X94828792Y-24371603D01*
X94751157Y-24122528D01*
X94487117Y-23996629D01*
X94203589Y-23924661D01*
X93911469Y-23909389D01*
X93621981Y-23951401D01*
X93346253Y-24049081D01*
X93208843Y-24122528D01*
X93131208Y-24371603D01*
X92288792Y-24371603D01*
X92211157Y-24122528D01*
X91947117Y-23996629D01*
X91663589Y-23924661D01*
X91371469Y-23909389D01*
X91081981Y-23951401D01*
X90806253Y-24049081D01*
X90668843Y-24122528D01*
X90591208Y-24371603D01*
X89748792Y-24371603D01*
X89671157Y-24122528D01*
X89407117Y-23996629D01*
X89123589Y-23924661D01*
X88831469Y-23909389D01*
X88541981Y-23951401D01*
X88266253Y-24049081D01*
X88128843Y-24122528D01*
X88051208Y-24371603D01*
X87208792Y-24371603D01*
X87131157Y-24122528D01*
X86867117Y-23996629D01*
X86583589Y-23924661D01*
X86291469Y-23909389D01*
X86001981Y-23951401D01*
X85726253Y-24049081D01*
X85588843Y-24122528D01*
X85511208Y-24371603D01*
X84668792Y-24371603D01*
X84591157Y-24122528D01*
X84327117Y-23996629D01*
X84043589Y-23924661D01*
X83751469Y-23909389D01*
X83461981Y-23951401D01*
X83186253Y-24049081D01*
X83048843Y-24122528D01*
X82971208Y-24371603D01*
X82128792Y-24371603D01*
X82051157Y-24122528D01*
X81787117Y-23996629D01*
X81503589Y-23924661D01*
X81211469Y-23909389D01*
X80921981Y-23951401D01*
X80646253Y-24049081D01*
X80508843Y-24122528D01*
X80431208Y-24371603D01*
X79588792Y-24371603D01*
X79511157Y-24122528D01*
X79247117Y-23996629D01*
X78963589Y-23924661D01*
X78671469Y-23909389D01*
X78381981Y-23951401D01*
X78106253Y-24049081D01*
X77968843Y-24122528D01*
X77891208Y-24371603D01*
X77048792Y-24371603D01*
X76971157Y-24122528D01*
X76707117Y-23996629D01*
X76423589Y-23924661D01*
X76131469Y-23909389D01*
X75841981Y-23951401D01*
X75566253Y-24049081D01*
X75428843Y-24122528D01*
X75351208Y-24371603D01*
X74508792Y-24371603D01*
X74431157Y-24122528D01*
X74167117Y-23996629D01*
X73883589Y-23924661D01*
X73591469Y-23909389D01*
X73301981Y-23951401D01*
X73026253Y-24049081D01*
X72888843Y-24122528D01*
X72811208Y-24371603D01*
X71968792Y-24371603D01*
X71891157Y-24122528D01*
X71627117Y-23996629D01*
X71343589Y-23924661D01*
X71051469Y-23909389D01*
X70761981Y-23951401D01*
X70486253Y-24049081D01*
X70348843Y-24122528D01*
X70271208Y-24371603D01*
X69428792Y-24371603D01*
X69351157Y-24122528D01*
X69087117Y-23996629D01*
X68803589Y-23924661D01*
X68511469Y-23909389D01*
X68221981Y-23951401D01*
X67946253Y-24049081D01*
X67808843Y-24122528D01*
X67731208Y-24371603D01*
X66888792Y-24371603D01*
X66811157Y-24122528D01*
X66547117Y-23996629D01*
X66263589Y-23924661D01*
X65971469Y-23909389D01*
X65681981Y-23951401D01*
X65406253Y-24049081D01*
X65268843Y-24122528D01*
X65191208Y-24371603D01*
X64348792Y-24371603D01*
X64271157Y-24122528D01*
X64007117Y-23996629D01*
X63723589Y-23924661D01*
X63431469Y-23909389D01*
X63141981Y-23951401D01*
X62866253Y-24049081D01*
X62728843Y-24122528D01*
X62651208Y-24371603D01*
X61808792Y-24371603D01*
X61731157Y-24122528D01*
X61467117Y-23996629D01*
X61183589Y-23924661D01*
X60891469Y-23909389D01*
X60601981Y-23951401D01*
X60326253Y-24049081D01*
X60188843Y-24122528D01*
X60111208Y-24371603D01*
X59268792Y-24371603D01*
X59191157Y-24122528D01*
X58927117Y-23996629D01*
X58643589Y-23924661D01*
X58351469Y-23909389D01*
X58061981Y-23951401D01*
X57786253Y-24049081D01*
X57648843Y-24122528D01*
X57571208Y-24371603D01*
X56728792Y-24371603D01*
X56651157Y-24122528D01*
X56387117Y-23996629D01*
X56103589Y-23924661D01*
X55811469Y-23909389D01*
X55521981Y-23951401D01*
X55246253Y-24049081D01*
X55108843Y-24122528D01*
X55031208Y-24371603D01*
X27321460Y-24371603D01*
X27411649Y-24202443D01*
X27590287Y-23611304D01*
X27649519Y-23003328D01*
X111349832Y-23003328D01*
X111411010Y-23617831D01*
X111590897Y-24208592D01*
X111878882Y-24747373D01*
X112296852Y-25023543D01*
X114320395Y-23000000D01*
X114679605Y-23000000D01*
X116703148Y-25023543D01*
X117121118Y-24747373D01*
X117411649Y-24202443D01*
X117590287Y-23611304D01*
X117650168Y-22996672D01*
X117588990Y-22382169D01*
X117409103Y-21791408D01*
X117121118Y-21252627D01*
X116703148Y-20976457D01*
X114679605Y-23000000D01*
X114320395Y-23000000D01*
X112296852Y-20976457D01*
X111878882Y-21252627D01*
X111588351Y-21797557D01*
X111409713Y-22388696D01*
X111349832Y-23003328D01*
X27649519Y-23003328D01*
X27650168Y-22996672D01*
X27588990Y-22382169D01*
X27409103Y-21791408D01*
X27121118Y-21252627D01*
X26703148Y-20976457D01*
X24679605Y-23000000D01*
X24320395Y-23000000D01*
X22296852Y-20976457D01*
X21878882Y-21252627D01*
X21588351Y-21797557D01*
X21409713Y-22388696D01*
X21349832Y-23003328D01*
X20160000Y-23003328D01*
X20160000Y-20660000D01*
X22566881Y-20660000D01*
X22476457Y-20796852D01*
G37*
%TD.AperFunction*%
%TD*%
D26*
%TO.N,GND*%
X24638000Y-117277170D02*
X24624603Y-117239708D01*
X24557671Y-117114486D01*
X24313702Y-117042903D01*
X23500605Y-117856000D01*
X24313702Y-118669097D01*
X24557671Y-118597514D01*
X24638000Y-118427747D01*
X24638000Y-127635000D01*
X24640440Y-127659776D01*
X24647667Y-127683601D01*
X24659403Y-127705557D01*
X24675197Y-127724803D01*
X24694553Y-127740670D01*
X26543000Y-128972968D01*
X26543000Y-134493000D01*
X20160000Y-134493000D01*
X20160000Y-118848702D01*
X22507903Y-118848702D01*
X22579486Y-119092671D01*
X22834996Y-119213571D01*
X23109184Y-119282300D01*
X23391512Y-119296217D01*
X23671130Y-119254787D01*
X23937292Y-119159603D01*
X24062514Y-119092671D01*
X24134097Y-118848702D01*
X23321000Y-118035605D01*
X22507903Y-118848702D01*
X20160000Y-118848702D01*
X20160000Y-117926512D01*
X21880783Y-117926512D01*
X21922213Y-118206130D01*
X22017397Y-118472292D01*
X22084329Y-118597514D01*
X22328298Y-118669097D01*
X23141395Y-117856000D01*
X22328298Y-117042903D01*
X22084329Y-117114486D01*
X21963429Y-117369996D01*
X21894700Y-117644184D01*
X21880783Y-117926512D01*
X20160000Y-117926512D01*
X20160000Y-116863298D01*
X22507903Y-116863298D01*
X23321000Y-117676395D01*
X24134097Y-116863298D01*
X24062514Y-116619329D01*
X23807004Y-116498429D01*
X23532816Y-116429700D01*
X23250488Y-116415783D01*
X22970870Y-116457213D01*
X22704708Y-116552397D01*
X22579486Y-116619329D01*
X22507903Y-116863298D01*
X20160000Y-116863298D01*
X20160000Y-96647000D01*
X24638000Y-96647000D01*
X24638000Y-117277170D01*
%TA.AperFunction,Conductor*%
D27*
G36*
X24638000Y-117277170D02*
G01*
X24624603Y-117239708D01*
X24557671Y-117114486D01*
X24313702Y-117042903D01*
X23500605Y-117856000D01*
X24313702Y-118669097D01*
X24557671Y-118597514D01*
X24638000Y-118427747D01*
X24638000Y-127635000D01*
X24640440Y-127659776D01*
X24647667Y-127683601D01*
X24659403Y-127705557D01*
X24675197Y-127724803D01*
X24694553Y-127740670D01*
X26543000Y-128972968D01*
X26543000Y-134493000D01*
X20160000Y-134493000D01*
X20160000Y-118848702D01*
X22507903Y-118848702D01*
X22579486Y-119092671D01*
X22834996Y-119213571D01*
X23109184Y-119282300D01*
X23391512Y-119296217D01*
X23671130Y-119254787D01*
X23937292Y-119159603D01*
X24062514Y-119092671D01*
X24134097Y-118848702D01*
X23321000Y-118035605D01*
X22507903Y-118848702D01*
X20160000Y-118848702D01*
X20160000Y-117926512D01*
X21880783Y-117926512D01*
X21922213Y-118206130D01*
X22017397Y-118472292D01*
X22084329Y-118597514D01*
X22328298Y-118669097D01*
X23141395Y-117856000D01*
X22328298Y-117042903D01*
X22084329Y-117114486D01*
X21963429Y-117369996D01*
X21894700Y-117644184D01*
X21880783Y-117926512D01*
X20160000Y-117926512D01*
X20160000Y-116863298D01*
X22507903Y-116863298D01*
X23321000Y-117676395D01*
X24134097Y-116863298D01*
X24062514Y-116619329D01*
X23807004Y-116498429D01*
X23532816Y-116429700D01*
X23250488Y-116415783D01*
X22970870Y-116457213D01*
X22704708Y-116552397D01*
X22579486Y-116619329D01*
X22507903Y-116863298D01*
X20160000Y-116863298D01*
X20160000Y-96647000D01*
X24638000Y-96647000D01*
X24638000Y-117277170D01*
G37*
%TD.AperFunction*%
%TD*%
M02*
