%TF.GenerationSoftware,KiCad,Pcbnew,(5.1.10-1-10_14)*%
%TF.CreationDate,2021-06-26T12:10:23+10:00*%
%TF.ProjectId,EXTENDER CARDS,45585445-4e44-4455-9220-43415244532e,rev?*%
%TF.SameCoordinates,Original*%
%TF.FileFunction,Soldermask,Bot*%
%TF.FilePolarity,Negative*%
%FSLAX46Y46*%
G04 Gerber Fmt 4.6, Leading zero omitted, Abs format (unit mm)*
G04 Created by KiCad (PCBNEW (5.1.10-1-10_14)) date 2021-06-26 12:10:23*
%MOMM*%
%LPD*%
G01*
G04 APERTURE LIST*
%ADD10R,2.540000X10.000000*%
%ADD11C,2.200000*%
%ADD12C,4.500000*%
%ADD13R,2.200000X2.200000*%
G04 APERTURE END LIST*
D10*
%TO.C,J3*%
X53164000Y-260000000D03*
X57126400Y-260000000D03*
X61088800Y-260000000D03*
X65051200Y-260000000D03*
X69013600Y-260000000D03*
X72976000Y-260000000D03*
X76938400Y-260000000D03*
X80900800Y-260000000D03*
X84863200Y-260000000D03*
X88825600Y-260000000D03*
X92788000Y-260000000D03*
X96750400Y-260000000D03*
X100712800Y-260000000D03*
X104675200Y-260000000D03*
X108637600Y-260000000D03*
X112600000Y-260000000D03*
%TD*%
D11*
%TO.C,J2*%
X142250000Y-94980000D03*
X142250000Y-91020000D03*
D12*
X290400000Y-93000000D03*
X132700000Y-93000000D03*
D13*
X280850000Y-91020000D03*
D11*
X276890000Y-91020000D03*
X272930000Y-91020000D03*
X268970000Y-91020000D03*
X265010000Y-91020000D03*
X261050000Y-91020000D03*
X257090000Y-91020000D03*
X253130000Y-91020000D03*
X249170000Y-91020000D03*
X245210000Y-91020000D03*
X241250000Y-91020000D03*
X237290000Y-91020000D03*
X233330000Y-91020000D03*
X229370000Y-91020000D03*
X225410000Y-91020000D03*
X221450000Y-91020000D03*
X217490000Y-91020000D03*
X213530000Y-91020000D03*
X209570000Y-91020000D03*
X205610000Y-91020000D03*
X201650000Y-91020000D03*
X197690000Y-91020000D03*
X193730000Y-91020000D03*
X189770000Y-91020000D03*
X185810000Y-91020000D03*
X181850000Y-91020000D03*
X177890000Y-91020000D03*
X173930000Y-91020000D03*
X169970000Y-91020000D03*
X166010000Y-91020000D03*
X162050000Y-91020000D03*
X158090000Y-91020000D03*
X154130000Y-91020000D03*
X150170000Y-91020000D03*
X146210000Y-91020000D03*
X280850000Y-94980000D03*
X276890000Y-94980000D03*
X272930000Y-94980000D03*
X268970000Y-94980000D03*
X265010000Y-94980000D03*
X261050000Y-94980000D03*
X257090000Y-94980000D03*
X253130000Y-94980000D03*
X249170000Y-94980000D03*
X245210000Y-94980000D03*
X241250000Y-94980000D03*
X237290000Y-94980000D03*
X233330000Y-94980000D03*
X229370000Y-94980000D03*
X225410000Y-94980000D03*
X221450000Y-94980000D03*
X217490000Y-94980000D03*
X213530000Y-94980000D03*
X209570000Y-94980000D03*
X205610000Y-94980000D03*
X201650000Y-94980000D03*
X197690000Y-94980000D03*
X193730000Y-94980000D03*
X189770000Y-94980000D03*
X185810000Y-94980000D03*
X181850000Y-94980000D03*
X177890000Y-94980000D03*
X173930000Y-94980000D03*
X169970000Y-94980000D03*
X166010000Y-94980000D03*
X162050000Y-94980000D03*
X158090000Y-94980000D03*
X154130000Y-94980000D03*
X150170000Y-94980000D03*
X146210000Y-94980000D03*
%TD*%
D12*
%TO.C,J4*%
X122100000Y-92990000D03*
X35680000Y-92990000D03*
D13*
X112550000Y-91010000D03*
D11*
X108590000Y-91010000D03*
X104630000Y-91010000D03*
X100670000Y-91010000D03*
X96710000Y-91010000D03*
X92750000Y-91010000D03*
X88790000Y-91010000D03*
X84830000Y-91010000D03*
X80870000Y-91010000D03*
X76910000Y-91010000D03*
X72950000Y-91010000D03*
X68990000Y-91010000D03*
X65030000Y-91010000D03*
X61070000Y-91010000D03*
X57110000Y-91010000D03*
X53150000Y-91010000D03*
X49190000Y-91010000D03*
X45230000Y-91010000D03*
X112550000Y-94970000D03*
X108590000Y-94970000D03*
X104630000Y-94970000D03*
X100670000Y-94970000D03*
X96710000Y-94970000D03*
X92750000Y-94970000D03*
X88790000Y-94970000D03*
X84830000Y-94970000D03*
X80870000Y-94970000D03*
X76910000Y-94970000D03*
X72950000Y-94970000D03*
X68990000Y-94970000D03*
X65030000Y-94970000D03*
X61070000Y-94970000D03*
X57110000Y-94970000D03*
X53150000Y-94970000D03*
X49190000Y-94970000D03*
X45230000Y-94970000D03*
%TD*%
D10*
%TO.C,J1*%
X146262400Y-259900000D03*
X142300000Y-259900000D03*
X189848800Y-259900000D03*
X185886400Y-259900000D03*
X181924000Y-259900000D03*
X177961600Y-259900000D03*
X173999200Y-259900000D03*
X170036800Y-259900000D03*
X166074400Y-259900000D03*
X162112000Y-259900000D03*
X158149600Y-259900000D03*
X154187200Y-259900000D03*
X150224800Y-259900000D03*
X193811200Y-259900000D03*
X197773600Y-259900000D03*
X201736000Y-259900000D03*
X205698400Y-259900000D03*
X209660800Y-259900000D03*
X213623200Y-259900000D03*
X217585600Y-259900000D03*
X221548000Y-259900000D03*
X225510400Y-259900000D03*
X229472800Y-259900000D03*
X233435200Y-259900000D03*
X237397600Y-259900000D03*
X241360000Y-259900000D03*
X245322400Y-259900000D03*
X249284800Y-259900000D03*
X253247200Y-259900000D03*
X257209600Y-259900000D03*
X261172000Y-259900000D03*
X265134400Y-259900000D03*
%TD*%
M02*
