  0
SECTION
  2
HEADER
  9
$ANGBASE
  50
0.0
  9
$ANGDIR
  70
1
  9
$MEASUREMENT
  70
0
  0
ENDSEC
  0
SECTION
  2
TABLES
  0
TABLE
  2
LTYPE
  70
4
  0
LTYPE
  5
40F
  2
CONTINUOUS
  70
0
  3
Solid line
  72
65
  73
0
  40
0.0
  0
LTYPE
  5
410
  2
DASHDOT
 70
0
  3
Dash Dot ____ _ ____ _
 72
65
 73
4
 40
2.0
 49
1.25
 49
-0.25
 49
0.25
 49
-0.25
  0
LTYPE
  5
411
  2
DASHED
 70
0
  3
Dashed __ __ __ __ __
 72
65
 73
2
 40
0.75
 49
0.5
 49
-0.25
  0
LTYPE
  5
43B
  2
DOTTED
 70
0
  3
Dotted .  .  .  .
 72
65
 73
2
 40
0.2
 49
0.0
 49
-0.2
  0
ENDTAB
  0
TABLE
  2
STYLE
  70
4
  0
STYLE
  2
KICAD
  70
0
  40
0
  41
1
  42
1
  50
0
  71
0
  3
isocp.shx
  0
STYLE
  2
KICADB
  70
0
  40
0
  41
1
  42
1
  50
0
  71
0
  3
isocp.shx
  0
STYLE
  2
KICADI
  70
0
  40
0
  41
1
  42
1
  50
15
  71
0
  3
isocp.shx
  0
STYLE
  2
KICADBI
  70
0
  40
0
  41
1
  42
1
  50
15
  71
0
  3
isocp.shx
  0
ENDTAB
  0
TABLE
  2
LAYER
  70
1
  0
LAYER
  2
BLACK
  70
0
  62
7
  6
CONTINUOUS
  0
ENDTAB
  0
ENDSEC
  0
SECTION
  2
ENTITIES
0
LINE
8
BLACK
6
CONTINUOUS
10
1.93701
20
-9.96063
11
1.62205
21
-9.96063
0
LINE
8
BLACK
6
CONTINUOUS
10
1.93701
20
-10.4685
11
1.93701
21
-9.96063
0
LINE
8
BLACK
6
CONTINUOUS
10
10.5945
20
-9.96063
11
10.5945
21
-10.4646
0
LINE
8
BLACK
6
CONTINUOUS
10
11.5748
20
-9.96063
11
10.5945
21
-9.96063
0
LINE
8
BLACK
6
CONTINUOUS
10
11.5748
20
-3.37795
11
11.5748
21
-9.96063
0
LINE
8
BLACK
6
CONTINUOUS
10
10.5945
20
-3.37795
11
11.5748
21
-3.37795
0
LINE
8
BLACK
6
CONTINUOUS
10
1.10236
20
-9.96063
11
1.62205
21
-9.96063
0
LINE
8
BLACK
6
CONTINUOUS
10
1.10236
20
-9.14173
11
1.10236
21
-9.96063
0
LINE
8
BLACK
6
CONTINUOUS
10
1.10236
20
-3.37795
11
1.10236
21
-9.14173
0
LINE
8
BLACK
6
CONTINUOUS
10
1.62205
20
-3.37795
11
1.10236
21
-3.37795
0
LINE
8
BLACK
6
CONTINUOUS
10
5.44488
20
-10.4646
11
10.5945
21
-10.4646
0
LINE
8
BLACK
6
CONTINUOUS
10
5.44488
20
-10.0354
11
5.44488
21
-10.4646
0
LINE
8
BLACK
6
CONTINUOUS
10
4.59055
20
-10.0354
11
5.44488
21
-10.0354
0
LINE
8
BLACK
6
CONTINUOUS
10
4.59055
20
-10.4685
11
4.59055
21
-10.0354
0
LINE
8
BLACK
6
CONTINUOUS
10
1.93701
20
-10.4685
11
4.59055
21
-10.4685
0
LINE
8
BLACK
6
CONTINUOUS
10
10.5945
20
-3.37795
11
1.62205
21
-3.37795
0
LINE
8
BLACK
6
CONTINUOUS
10
1.75709
20
-3.55945
11
1.80433
21
-3.60669
0
LINE
8
BLACK
6
CONTINUOUS
10
1.80433
20
-3.55945
11
1.75709
21
-3.60669
0
LINE
8
BLACK
6
CONTINUOUS
10
1.75709
20
-3.71535
11
1.80433
21
-3.7626
0
LINE
8
BLACK
6
CONTINUOUS
10
1.80433
20
-3.71535
11
1.75709
21
-3.7626
0
LINE
8
BLACK
6
CONTINUOUS
10
1.91299
20
-3.55945
11
1.96024
21
-3.60669
0
LINE
8
BLACK
6
CONTINUOUS
10
1.96024
20
-3.55945
11
1.91299
21
-3.60669
0
LINE
8
BLACK
6
CONTINUOUS
10
1.91299
20
-3.71535
11
1.96024
21
-3.7626
0
LINE
8
BLACK
6
CONTINUOUS
10
1.96024
20
-3.71535
11
1.91299
21
-3.7626
0
LINE
8
BLACK
6
CONTINUOUS
10
2.0689
20
-3.55945
11
2.11614
21
-3.60669
0
LINE
8
BLACK
6
CONTINUOUS
10
2.11614
20
-3.55945
11
2.0689
21
-3.60669
0
LINE
8
BLACK
6
CONTINUOUS
10
2.0689
20
-3.71535
11
2.11614
21
-3.7626
0
LINE
8
BLACK
6
CONTINUOUS
10
2.11614
20
-3.71535
11
2.0689
21
-3.7626
0
LINE
8
BLACK
6
CONTINUOUS
10
2.2248
20
-3.55945
11
2.27205
21
-3.60669
0
LINE
8
BLACK
6
CONTINUOUS
10
2.27205
20
-3.55945
11
2.2248
21
-3.60669
0
LINE
8
BLACK
6
CONTINUOUS
10
2.2248
20
-3.71535
11
2.27205
21
-3.7626
0
LINE
8
BLACK
6
CONTINUOUS
10
2.27205
20
-3.71535
11
2.2248
21
-3.7626
0
LINE
8
BLACK
6
CONTINUOUS
10
2.38071
20
-3.55945
11
2.42795
21
-3.60669
0
LINE
8
BLACK
6
CONTINUOUS
10
2.42795
20
-3.55945
11
2.38071
21
-3.60669
0
LINE
8
BLACK
6
CONTINUOUS
10
2.38071
20
-3.71535
11
2.42795
21
-3.7626
0
LINE
8
BLACK
6
CONTINUOUS
10
2.42795
20
-3.71535
11
2.38071
21
-3.7626
0
LINE
8
BLACK
6
CONTINUOUS
10
2.53661
20
-3.55945
11
2.58386
21
-3.60669
0
LINE
8
BLACK
6
CONTINUOUS
10
2.58386
20
-3.55945
11
2.53661
21
-3.60669
0
LINE
8
BLACK
6
CONTINUOUS
10
2.53661
20
-3.71535
11
2.58386
21
-3.7626
0
LINE
8
BLACK
6
CONTINUOUS
10
2.58386
20
-3.71535
11
2.53661
21
-3.7626
0
LINE
8
BLACK
6
CONTINUOUS
10
2.69252
20
-3.55945
11
2.73976
21
-3.60669
0
LINE
8
BLACK
6
CONTINUOUS
10
2.73976
20
-3.55945
11
2.69252
21
-3.60669
0
LINE
8
BLACK
6
CONTINUOUS
10
2.69252
20
-3.71535
11
2.73976
21
-3.7626
0
LINE
8
BLACK
6
CONTINUOUS
10
2.73976
20
-3.71535
11
2.69252
21
-3.7626
0
LINE
8
BLACK
6
CONTINUOUS
10
2.84843
20
-3.55945
11
2.89567
21
-3.60669
0
LINE
8
BLACK
6
CONTINUOUS
10
2.89567
20
-3.55945
11
2.84843
21
-3.60669
0
LINE
8
BLACK
6
CONTINUOUS
10
2.84843
20
-3.71535
11
2.89567
21
-3.7626
0
LINE
8
BLACK
6
CONTINUOUS
10
2.89567
20
-3.71535
11
2.84843
21
-3.7626
0
LINE
8
BLACK
6
CONTINUOUS
10
3.00433
20
-3.55945
11
3.05157
21
-3.60669
0
LINE
8
BLACK
6
CONTINUOUS
10
3.05157
20
-3.55945
11
3.00433
21
-3.60669
0
LINE
8
BLACK
6
CONTINUOUS
10
3.00433
20
-3.71535
11
3.05157
21
-3.7626
0
LINE
8
BLACK
6
CONTINUOUS
10
3.05157
20
-3.71535
11
3.00433
21
-3.7626
0
LINE
8
BLACK
6
CONTINUOUS
10
3.16024
20
-3.55945
11
3.20748
21
-3.60669
0
LINE
8
BLACK
6
CONTINUOUS
10
3.20748
20
-3.55945
11
3.16024
21
-3.60669
0
LINE
8
BLACK
6
CONTINUOUS
10
3.16024
20
-3.71535
11
3.20748
21
-3.7626
0
LINE
8
BLACK
6
CONTINUOUS
10
3.20748
20
-3.71535
11
3.16024
21
-3.7626
0
LINE
8
BLACK
6
CONTINUOUS
10
3.31614
20
-3.55945
11
3.36339
21
-3.60669
0
LINE
8
BLACK
6
CONTINUOUS
10
3.36339
20
-3.55945
11
3.31614
21
-3.60669
0
LINE
8
BLACK
6
CONTINUOUS
10
3.31614
20
-3.71535
11
3.36339
21
-3.7626
0
LINE
8
BLACK
6
CONTINUOUS
10
3.36339
20
-3.71535
11
3.31614
21
-3.7626
0
LINE
8
BLACK
6
CONTINUOUS
10
3.47205
20
-3.55945
11
3.51929
21
-3.60669
0
LINE
8
BLACK
6
CONTINUOUS
10
3.51929
20
-3.55945
11
3.47205
21
-3.60669
0
LINE
8
BLACK
6
CONTINUOUS
10
3.47205
20
-3.71535
11
3.51929
21
-3.7626
0
LINE
8
BLACK
6
CONTINUOUS
10
3.51929
20
-3.71535
11
3.47205
21
-3.7626
0
LINE
8
BLACK
6
CONTINUOUS
10
3.62795
20
-3.55945
11
3.6752
21
-3.60669
0
LINE
8
BLACK
6
CONTINUOUS
10
3.6752
20
-3.55945
11
3.62795
21
-3.60669
0
LINE
8
BLACK
6
CONTINUOUS
10
3.62795
20
-3.71535
11
3.6752
21
-3.7626
0
LINE
8
BLACK
6
CONTINUOUS
10
3.6752
20
-3.71535
11
3.62795
21
-3.7626
0
LINE
8
BLACK
6
CONTINUOUS
10
3.78386
20
-3.55945
11
3.8311
21
-3.60669
0
LINE
8
BLACK
6
CONTINUOUS
10
3.8311
20
-3.55945
11
3.78386
21
-3.60669
0
LINE
8
BLACK
6
CONTINUOUS
10
3.78386
20
-3.71535
11
3.8311
21
-3.7626
0
LINE
8
BLACK
6
CONTINUOUS
10
3.8311
20
-3.71535
11
3.78386
21
-3.7626
0
LINE
8
BLACK
6
CONTINUOUS
10
3.93976
20
-3.55945
11
3.98701
21
-3.60669
0
LINE
8
BLACK
6
CONTINUOUS
10
3.98701
20
-3.55945
11
3.93976
21
-3.60669
0
LINE
8
BLACK
6
CONTINUOUS
10
3.93976
20
-3.71535
11
3.98701
21
-3.7626
0
LINE
8
BLACK
6
CONTINUOUS
10
3.98701
20
-3.71535
11
3.93976
21
-3.7626
0
LINE
8
BLACK
6
CONTINUOUS
10
4.09567
20
-3.55945
11
4.14291
21
-3.60669
0
LINE
8
BLACK
6
CONTINUOUS
10
4.14291
20
-3.55945
11
4.09567
21
-3.60669
0
LINE
8
BLACK
6
CONTINUOUS
10
4.09567
20
-3.71535
11
4.14291
21
-3.7626
0
LINE
8
BLACK
6
CONTINUOUS
10
4.14291
20
-3.71535
11
4.09567
21
-3.7626
0
LINE
8
BLACK
6
CONTINUOUS
10
4.25157
20
-3.55945
11
4.29882
21
-3.60669
0
LINE
8
BLACK
6
CONTINUOUS
10
4.29882
20
-3.55945
11
4.25157
21
-3.60669
0
LINE
8
BLACK
6
CONTINUOUS
10
4.25157
20
-3.71535
11
4.29882
21
-3.7626
0
LINE
8
BLACK
6
CONTINUOUS
10
4.29882
20
-3.71535
11
4.25157
21
-3.7626
0
LINE
8
BLACK
6
CONTINUOUS
10
4.40748
20
-3.55945
11
4.45472
21
-3.60669
0
LINE
8
BLACK
6
CONTINUOUS
10
4.45472
20
-3.55945
11
4.40748
21
-3.60669
0
LINE
8
BLACK
6
CONTINUOUS
10
4.40748
20
-3.71535
11
4.45472
21
-3.7626
0
LINE
8
BLACK
6
CONTINUOUS
10
4.45472
20
-3.71535
11
4.40748
21
-3.7626
0
LINE
8
BLACK
6
CONTINUOUS
10
5.57677
20
-3.55984
11
5.62402
21
-3.60709
0
LINE
8
BLACK
6
CONTINUOUS
10
5.62402
20
-3.55984
11
5.57677
21
-3.60709
0
LINE
8
BLACK
6
CONTINUOUS
10
5.57677
20
-3.71575
11
5.62402
21
-3.76299
0
LINE
8
BLACK
6
CONTINUOUS
10
5.62402
20
-3.71575
11
5.57677
21
-3.76299
0
LINE
8
BLACK
6
CONTINUOUS
10
5.73268
20
-3.55984
11
5.77992
21
-3.60709
0
LINE
8
BLACK
6
CONTINUOUS
10
5.77992
20
-3.55984
11
5.73268
21
-3.60709
0
LINE
8
BLACK
6
CONTINUOUS
10
5.73268
20
-3.71575
11
5.77992
21
-3.76299
0
LINE
8
BLACK
6
CONTINUOUS
10
5.77992
20
-3.71575
11
5.73268
21
-3.76299
0
LINE
8
BLACK
6
CONTINUOUS
10
5.88858
20
-3.55984
11
5.93583
21
-3.60709
0
LINE
8
BLACK
6
CONTINUOUS
10
5.93583
20
-3.55984
11
5.88858
21
-3.60709
0
LINE
8
BLACK
6
CONTINUOUS
10
5.88858
20
-3.71575
11
5.93583
21
-3.76299
0
LINE
8
BLACK
6
CONTINUOUS
10
5.93583
20
-3.71575
11
5.88858
21
-3.76299
0
LINE
8
BLACK
6
CONTINUOUS
10
6.04449
20
-3.55984
11
6.09173
21
-3.60709
0
LINE
8
BLACK
6
CONTINUOUS
10
6.09173
20
-3.55984
11
6.04449
21
-3.60709
0
LINE
8
BLACK
6
CONTINUOUS
10
6.04449
20
-3.71575
11
6.09173
21
-3.76299
0
LINE
8
BLACK
6
CONTINUOUS
10
6.09173
20
-3.71575
11
6.04449
21
-3.76299
0
LINE
8
BLACK
6
CONTINUOUS
10
6.20039
20
-3.55984
11
6.24764
21
-3.60709
0
LINE
8
BLACK
6
CONTINUOUS
10
6.24764
20
-3.55984
11
6.20039
21
-3.60709
0
LINE
8
BLACK
6
CONTINUOUS
10
6.20039
20
-3.71575
11
6.24764
21
-3.76299
0
LINE
8
BLACK
6
CONTINUOUS
10
6.24764
20
-3.71575
11
6.20039
21
-3.76299
0
LINE
8
BLACK
6
CONTINUOUS
10
6.3563
20
-3.55984
11
6.40354
21
-3.60709
0
LINE
8
BLACK
6
CONTINUOUS
10
6.40354
20
-3.55984
11
6.3563
21
-3.60709
0
LINE
8
BLACK
6
CONTINUOUS
10
6.3563
20
-3.71575
11
6.40354
21
-3.76299
0
LINE
8
BLACK
6
CONTINUOUS
10
6.40354
20
-3.71575
11
6.3563
21
-3.76299
0
LINE
8
BLACK
6
CONTINUOUS
10
6.5122
20
-3.55984
11
6.55945
21
-3.60709
0
LINE
8
BLACK
6
CONTINUOUS
10
6.55945
20
-3.55984
11
6.5122
21
-3.60709
0
LINE
8
BLACK
6
CONTINUOUS
10
6.5122
20
-3.71575
11
6.55945
21
-3.76299
0
LINE
8
BLACK
6
CONTINUOUS
10
6.55945
20
-3.71575
11
6.5122
21
-3.76299
0
LINE
8
BLACK
6
CONTINUOUS
10
6.66811
20
-3.55984
11
6.71535
21
-3.60709
0
LINE
8
BLACK
6
CONTINUOUS
10
6.71535
20
-3.55984
11
6.66811
21
-3.60709
0
LINE
8
BLACK
6
CONTINUOUS
10
6.66811
20
-3.71575
11
6.71535
21
-3.76299
0
LINE
8
BLACK
6
CONTINUOUS
10
6.71535
20
-3.71575
11
6.66811
21
-3.76299
0
LINE
8
BLACK
6
CONTINUOUS
10
6.82402
20
-3.55984
11
6.87126
21
-3.60709
0
LINE
8
BLACK
6
CONTINUOUS
10
6.87126
20
-3.55984
11
6.82402
21
-3.60709
0
LINE
8
BLACK
6
CONTINUOUS
10
6.82402
20
-3.71575
11
6.87126
21
-3.76299
0
LINE
8
BLACK
6
CONTINUOUS
10
6.87126
20
-3.71575
11
6.82402
21
-3.76299
0
LINE
8
BLACK
6
CONTINUOUS
10
6.97992
20
-3.55984
11
7.02717
21
-3.60709
0
LINE
8
BLACK
6
CONTINUOUS
10
7.02717
20
-3.55984
11
6.97992
21
-3.60709
0
LINE
8
BLACK
6
CONTINUOUS
10
6.97992
20
-3.71575
11
7.02717
21
-3.76299
0
LINE
8
BLACK
6
CONTINUOUS
10
7.02717
20
-3.71575
11
6.97992
21
-3.76299
0
LINE
8
BLACK
6
CONTINUOUS
10
7.13583
20
-3.55984
11
7.18307
21
-3.60709
0
LINE
8
BLACK
6
CONTINUOUS
10
7.18307
20
-3.55984
11
7.13583
21
-3.60709
0
LINE
8
BLACK
6
CONTINUOUS
10
7.13583
20
-3.71575
11
7.18307
21
-3.76299
0
LINE
8
BLACK
6
CONTINUOUS
10
7.18307
20
-3.71575
11
7.13583
21
-3.76299
0
LINE
8
BLACK
6
CONTINUOUS
10
7.29173
20
-3.55984
11
7.33898
21
-3.60709
0
LINE
8
BLACK
6
CONTINUOUS
10
7.33898
20
-3.55984
11
7.29173
21
-3.60709
0
LINE
8
BLACK
6
CONTINUOUS
10
7.29173
20
-3.71575
11
7.33898
21
-3.76299
0
LINE
8
BLACK
6
CONTINUOUS
10
7.33898
20
-3.71575
11
7.29173
21
-3.76299
0
LINE
8
BLACK
6
CONTINUOUS
10
7.44764
20
-3.55984
11
7.49488
21
-3.60709
0
LINE
8
BLACK
6
CONTINUOUS
10
7.49488
20
-3.55984
11
7.44764
21
-3.60709
0
LINE
8
BLACK
6
CONTINUOUS
10
7.44764
20
-3.71575
11
7.49488
21
-3.76299
0
LINE
8
BLACK
6
CONTINUOUS
10
7.49488
20
-3.71575
11
7.44764
21
-3.76299
0
LINE
8
BLACK
6
CONTINUOUS
10
7.60354
20
-3.55984
11
7.65079
21
-3.60709
0
LINE
8
BLACK
6
CONTINUOUS
10
7.65079
20
-3.55984
11
7.60354
21
-3.60709
0
LINE
8
BLACK
6
CONTINUOUS
10
7.60354
20
-3.71575
11
7.65079
21
-3.76299
0
LINE
8
BLACK
6
CONTINUOUS
10
7.65079
20
-3.71575
11
7.60354
21
-3.76299
0
LINE
8
BLACK
6
CONTINUOUS
10
7.75945
20
-3.55984
11
7.80669
21
-3.60709
0
LINE
8
BLACK
6
CONTINUOUS
10
7.80669
20
-3.55984
11
7.75945
21
-3.60709
0
LINE
8
BLACK
6
CONTINUOUS
10
7.75945
20
-3.71575
11
7.80669
21
-3.76299
0
LINE
8
BLACK
6
CONTINUOUS
10
7.80669
20
-3.71575
11
7.75945
21
-3.76299
0
LINE
8
BLACK
6
CONTINUOUS
10
7.91535
20
-3.55984
11
7.9626
21
-3.60709
0
LINE
8
BLACK
6
CONTINUOUS
10
7.9626
20
-3.55984
11
7.91535
21
-3.60709
0
LINE
8
BLACK
6
CONTINUOUS
10
7.91535
20
-3.71575
11
7.9626
21
-3.76299
0
LINE
8
BLACK
6
CONTINUOUS
10
7.9626
20
-3.71575
11
7.91535
21
-3.76299
0
LINE
8
BLACK
6
CONTINUOUS
10
8.07126
20
-3.55984
11
8.1185
21
-3.60709
0
LINE
8
BLACK
6
CONTINUOUS
10
8.1185
20
-3.55984
11
8.07126
21
-3.60709
0
LINE
8
BLACK
6
CONTINUOUS
10
8.07126
20
-3.71575
11
8.1185
21
-3.76299
0
LINE
8
BLACK
6
CONTINUOUS
10
8.1185
20
-3.71575
11
8.07126
21
-3.76299
0
LINE
8
BLACK
6
CONTINUOUS
10
8.22717
20
-3.55984
11
8.27441
21
-3.60709
0
LINE
8
BLACK
6
CONTINUOUS
10
8.27441
20
-3.55984
11
8.22717
21
-3.60709
0
LINE
8
BLACK
6
CONTINUOUS
10
8.22717
20
-3.71575
11
8.27441
21
-3.76299
0
LINE
8
BLACK
6
CONTINUOUS
10
8.27441
20
-3.71575
11
8.22717
21
-3.76299
0
LINE
8
BLACK
6
CONTINUOUS
10
8.38307
20
-3.55984
11
8.43031
21
-3.60709
0
LINE
8
BLACK
6
CONTINUOUS
10
8.43031
20
-3.55984
11
8.38307
21
-3.60709
0
LINE
8
BLACK
6
CONTINUOUS
10
8.38307
20
-3.71575
11
8.43031
21
-3.76299
0
LINE
8
BLACK
6
CONTINUOUS
10
8.43031
20
-3.71575
11
8.38307
21
-3.76299
0
LINE
8
BLACK
6
CONTINUOUS
10
8.53898
20
-3.55984
11
8.58622
21
-3.60709
0
LINE
8
BLACK
6
CONTINUOUS
10
8.58622
20
-3.55984
11
8.53898
21
-3.60709
0
LINE
8
BLACK
6
CONTINUOUS
10
8.53898
20
-3.71575
11
8.58622
21
-3.76299
0
LINE
8
BLACK
6
CONTINUOUS
10
8.58622
20
-3.71575
11
8.53898
21
-3.76299
0
LINE
8
BLACK
6
CONTINUOUS
10
8.69488
20
-3.55984
11
8.74213
21
-3.60709
0
LINE
8
BLACK
6
CONTINUOUS
10
8.74213
20
-3.55984
11
8.69488
21
-3.60709
0
LINE
8
BLACK
6
CONTINUOUS
10
8.69488
20
-3.71575
11
8.74213
21
-3.76299
0
LINE
8
BLACK
6
CONTINUOUS
10
8.74213
20
-3.71575
11
8.69488
21
-3.76299
0
LINE
8
BLACK
6
CONTINUOUS
10
8.85079
20
-3.55984
11
8.89803
21
-3.60709
0
LINE
8
BLACK
6
CONTINUOUS
10
8.89803
20
-3.55984
11
8.85079
21
-3.60709
0
LINE
8
BLACK
6
CONTINUOUS
10
8.85079
20
-3.71575
11
8.89803
21
-3.76299
0
LINE
8
BLACK
6
CONTINUOUS
10
8.89803
20
-3.71575
11
8.85079
21
-3.76299
0
LINE
8
BLACK
6
CONTINUOUS
10
9.00669
20
-3.55984
11
9.05394
21
-3.60709
0
LINE
8
BLACK
6
CONTINUOUS
10
9.05394
20
-3.55984
11
9.00669
21
-3.60709
0
LINE
8
BLACK
6
CONTINUOUS
10
9.00669
20
-3.71575
11
9.05394
21
-3.76299
0
LINE
8
BLACK
6
CONTINUOUS
10
9.05394
20
-3.71575
11
9.00669
21
-3.76299
0
LINE
8
BLACK
6
CONTINUOUS
10
9.1626
20
-3.55984
11
9.20984
21
-3.60709
0
LINE
8
BLACK
6
CONTINUOUS
10
9.20984
20
-3.55984
11
9.1626
21
-3.60709
0
LINE
8
BLACK
6
CONTINUOUS
10
9.1626
20
-3.71575
11
9.20984
21
-3.76299
0
LINE
8
BLACK
6
CONTINUOUS
10
9.20984
20
-3.71575
11
9.1626
21
-3.76299
0
LINE
8
BLACK
6
CONTINUOUS
10
9.3185
20
-3.55984
11
9.36575
21
-3.60709
0
LINE
8
BLACK
6
CONTINUOUS
10
9.36575
20
-3.55984
11
9.3185
21
-3.60709
0
LINE
8
BLACK
6
CONTINUOUS
10
9.3185
20
-3.71575
11
9.36575
21
-3.76299
0
LINE
8
BLACK
6
CONTINUOUS
10
9.36575
20
-3.71575
11
9.3185
21
-3.76299
0
LINE
8
BLACK
6
CONTINUOUS
10
9.47441
20
-3.55984
11
9.52165
21
-3.60709
0
LINE
8
BLACK
6
CONTINUOUS
10
9.52165
20
-3.55984
11
9.47441
21
-3.60709
0
LINE
8
BLACK
6
CONTINUOUS
10
9.47441
20
-3.71575
11
9.52165
21
-3.76299
0
LINE
8
BLACK
6
CONTINUOUS
10
9.52165
20
-3.71575
11
9.47441
21
-3.76299
0
LINE
8
BLACK
6
CONTINUOUS
10
9.63031
20
-3.55984
11
9.67756
21
-3.60709
0
LINE
8
BLACK
6
CONTINUOUS
10
9.67756
20
-3.55984
11
9.63031
21
-3.60709
0
LINE
8
BLACK
6
CONTINUOUS
10
9.63031
20
-3.71575
11
9.67756
21
-3.76299
0
LINE
8
BLACK
6
CONTINUOUS
10
9.67756
20
-3.71575
11
9.63031
21
-3.76299
0
LINE
8
BLACK
6
CONTINUOUS
10
9.78622
20
-3.55984
11
9.83346
21
-3.60709
0
LINE
8
BLACK
6
CONTINUOUS
10
9.83346
20
-3.55984
11
9.78622
21
-3.60709
0
LINE
8
BLACK
6
CONTINUOUS
10
9.78622
20
-3.71575
11
9.83346
21
-3.76299
0
LINE
8
BLACK
6
CONTINUOUS
10
9.83346
20
-3.71575
11
9.78622
21
-3.76299
0
LINE
8
BLACK
6
CONTINUOUS
10
9.94213
20
-3.55984
11
9.98937
21
-3.60709
0
LINE
8
BLACK
6
CONTINUOUS
10
9.98937
20
-3.55984
11
9.94213
21
-3.60709
0
LINE
8
BLACK
6
CONTINUOUS
10
9.94213
20
-3.71575
11
9.98937
21
-3.76299
0
LINE
8
BLACK
6
CONTINUOUS
10
9.98937
20
-3.71575
11
9.94213
21
-3.76299
0
LINE
8
BLACK
6
CONTINUOUS
10
10.098
20
-3.55984
11
10.1453
21
-3.60709
0
LINE
8
BLACK
6
CONTINUOUS
10
10.1453
20
-3.55984
11
10.098
21
-3.60709
0
LINE
8
BLACK
6
CONTINUOUS
10
10.098
20
-3.71575
11
10.1453
21
-3.76299
0
LINE
8
BLACK
6
CONTINUOUS
10
10.1453
20
-3.71575
11
10.098
21
-3.76299
0
LINE
8
BLACK
6
CONTINUOUS
10
10.2539
20
-3.55984
11
10.3012
21
-3.60709
0
LINE
8
BLACK
6
CONTINUOUS
10
10.3012
20
-3.55984
11
10.2539
21
-3.60709
0
LINE
8
BLACK
6
CONTINUOUS
10
10.2539
20
-3.71575
11
10.3012
21
-3.76299
0
LINE
8
BLACK
6
CONTINUOUS
10
10.3012
20
-3.71575
11
10.2539
21
-3.76299
0
LINE
8
BLACK
6
CONTINUOUS
10
10.4098
20
-3.55984
11
10.4571
21
-3.60709
0
LINE
8
BLACK
6
CONTINUOUS
10
10.4571
20
-3.55984
11
10.4098
21
-3.60709
0
LINE
8
BLACK
6
CONTINUOUS
10
10.4098
20
-3.71575
11
10.4571
21
-3.76299
0
LINE
8
BLACK
6
CONTINUOUS
10
10.4571
20
-3.71575
11
10.4098
21
-3.76299
0
LINE
8
BLACK
6
CONTINUOUS
10
10.5657
20
-3.55984
11
10.613
21
-3.60709
0
LINE
8
BLACK
6
CONTINUOUS
10
10.613
20
-3.55984
11
10.5657
21
-3.60709
0
LINE
8
BLACK
6
CONTINUOUS
10
10.5657
20
-3.71575
11
10.613
21
-3.76299
0
LINE
8
BLACK
6
CONTINUOUS
10
10.613
20
-3.71575
11
10.5657
21
-3.76299
0
LINE
8
BLACK
6
CONTINUOUS
10
10.7217
20
-3.55984
11
10.7689
21
-3.60709
0
LINE
8
BLACK
6
CONTINUOUS
10
10.7689
20
-3.55984
11
10.7217
21
-3.60709
0
LINE
8
BLACK
6
CONTINUOUS
10
10.7217
20
-3.71575
11
10.7689
21
-3.76299
0
LINE
8
BLACK
6
CONTINUOUS
10
10.7689
20
-3.71575
11
10.7217
21
-3.76299
0
LINE
8
BLACK
6
CONTINUOUS
10
10.8776
20
-3.55984
11
10.9248
21
-3.60709
0
LINE
8
BLACK
6
CONTINUOUS
10
10.9248
20
-3.55984
11
10.8776
21
-3.60709
0
LINE
8
BLACK
6
CONTINUOUS
10
10.8776
20
-3.71575
11
10.9248
21
-3.76299
0
LINE
8
BLACK
6
CONTINUOUS
10
10.9248
20
-3.71575
11
10.8776
21
-3.76299
0
LINE
8
BLACK
6
CONTINUOUS
10
11.0335
20
-3.55984
11
11.0807
21
-3.60709
0
LINE
8
BLACK
6
CONTINUOUS
10
11.0807
20
-3.55984
11
11.0335
21
-3.60709
0
LINE
8
BLACK
6
CONTINUOUS
10
11.0335
20
-3.71575
11
11.0807
21
-3.76299
0
LINE
8
BLACK
6
CONTINUOUS
10
11.0807
20
-3.71575
11
11.0335
21
-3.76299
0
CIRCLE
8
BLACK
10
1.40472
20
-3.66102
40
0.0629921
0
CIRCLE
8
BLACK
10
4.80709
20
-3.66102
40
0.0629921
0
CIRCLE
8
BLACK
10
5.22441
20
-3.66142
40
0.0629921
0
CIRCLE
8
BLACK
10
11.4331
20
-3.66142
40
0.0629921
0
LINE
8
BLACK
6
CONTINUOUS
10
1.21415
20
-10.6528
11
1.21415
21
-10.5347
0
LINE
8
BLACK
6
CONTINUOUS
10
1.21415
20
-10.5347
11
1.24227
21
-10.5347
0
LINE
8
BLACK
6
CONTINUOUS
10
1.24227
20
-10.5347
11
1.25914
21
-10.5404
0
LINE
8
BLACK
6
CONTINUOUS
10
1.25914
20
-10.5404
11
1.27039
21
-10.5516
0
LINE
8
BLACK
6
CONTINUOUS
10
1.27039
20
-10.5516
11
1.27601
21
-10.5629
0
LINE
8
BLACK
6
CONTINUOUS
10
1.27601
20
-10.5629
11
1.28164
21
-10.5853
0
LINE
8
BLACK
6
CONTINUOUS
10
1.28164
20
-10.5853
11
1.28164
21
-10.6022
0
LINE
8
BLACK
6
CONTINUOUS
10
1.28164
20
-10.6022
11
1.27601
21
-10.6247
0
LINE
8
BLACK
6
CONTINUOUS
10
1.27601
20
-10.6247
11
1.27039
21
-10.636
0
LINE
8
BLACK
6
CONTINUOUS
10
1.27039
20
-10.636
11
1.25914
21
-10.6472
0
LINE
8
BLACK
6
CONTINUOUS
10
1.25914
20
-10.6472
11
1.24227
21
-10.6528
0
LINE
8
BLACK
6
CONTINUOUS
10
1.24227
20
-10.6528
11
1.21415
21
-10.6528
0
LINE
8
BLACK
6
CONTINUOUS
10
1.33226
20
-10.6528
11
1.33226
21
-10.5741
0
LINE
8
BLACK
6
CONTINUOUS
10
1.33226
20
-10.5966
11
1.33788
21
-10.5853
0
LINE
8
BLACK
6
CONTINUOUS
10
1.33788
20
-10.5853
11
1.3435
21
-10.5797
0
LINE
8
BLACK
6
CONTINUOUS
10
1.3435
20
-10.5797
11
1.35475
21
-10.5741
0
LINE
8
BLACK
6
CONTINUOUS
10
1.35475
20
-10.5741
11
1.366
21
-10.5741
0
LINE
8
BLACK
6
CONTINUOUS
10
1.40537
20
-10.6528
11
1.40537
21
-10.5741
0
LINE
8
BLACK
6
CONTINUOUS
10
1.40537
20
-10.5347
11
1.39975
21
-10.5404
0
LINE
8
BLACK
6
CONTINUOUS
10
1.39975
20
-10.5404
11
1.40537
21
-10.546
0
LINE
8
BLACK
6
CONTINUOUS
10
1.40537
20
-10.546
11
1.411
21
-10.5404
0
LINE
8
BLACK
6
CONTINUOUS
10
1.411
20
-10.5404
11
1.40537
21
-10.5347
0
LINE
8
BLACK
6
CONTINUOUS
10
1.40537
20
-10.5347
11
1.40537
21
-10.546
0
LINE
8
BLACK
6
CONTINUOUS
10
1.47849
20
-10.6528
11
1.46724
21
-10.6472
0
LINE
8
BLACK
6
CONTINUOUS
10
1.46724
20
-10.6472
11
1.46161
21
-10.636
0
LINE
8
BLACK
6
CONTINUOUS
10
1.46161
20
-10.636
11
1.46161
21
-10.5347
0
LINE
8
BLACK
6
CONTINUOUS
10
1.54035
20
-10.6528
11
1.52911
21
-10.6472
0
LINE
8
BLACK
6
CONTINUOUS
10
1.52911
20
-10.6472
11
1.52348
21
-10.636
0
LINE
8
BLACK
6
CONTINUOUS
10
1.52348
20
-10.636
11
1.52348
21
-10.5347
0
LINE
8
BLACK
6
CONTINUOUS
10
1.67534
20
-10.6528
11
1.67534
21
-10.5347
0
LINE
8
BLACK
6
CONTINUOUS
10
1.67534
20
-10.5347
11
1.71471
21
-10.6191
0
LINE
8
BLACK
6
CONTINUOUS
10
1.71471
20
-10.6191
11
1.75408
21
-10.5347
0
LINE
8
BLACK
6
CONTINUOUS
10
1.75408
20
-10.5347
11
1.75408
21
-10.6528
0
LINE
8
BLACK
6
CONTINUOUS
10
1.86094
20
-10.6528
11
1.86094
21
-10.591
0
LINE
8
BLACK
6
CONTINUOUS
10
1.86094
20
-10.591
11
1.85531
21
-10.5797
0
LINE
8
BLACK
6
CONTINUOUS
10
1.85531
20
-10.5797
11
1.84407
21
-10.5741
0
LINE
8
BLACK
6
CONTINUOUS
10
1.84407
20
-10.5741
11
1.82157
21
-10.5741
0
LINE
8
BLACK
6
CONTINUOUS
10
1.82157
20
-10.5741
11
1.81032
21
-10.5797
0
LINE
8
BLACK
6
CONTINUOUS
10
1.86094
20
-10.6472
11
1.84969
21
-10.6528
0
LINE
8
BLACK
6
CONTINUOUS
10
1.84969
20
-10.6528
11
1.82157
21
-10.6528
0
LINE
8
BLACK
6
CONTINUOUS
10
1.82157
20
-10.6528
11
1.81032
21
-10.6472
0
LINE
8
BLACK
6
CONTINUOUS
10
1.81032
20
-10.6472
11
1.8047
21
-10.636
0
LINE
8
BLACK
6
CONTINUOUS
10
1.8047
20
-10.636
11
1.8047
21
-10.6247
0
LINE
8
BLACK
6
CONTINUOUS
10
1.8047
20
-10.6247
11
1.81032
21
-10.6135
0
LINE
8
BLACK
6
CONTINUOUS
10
1.81032
20
-10.6135
11
1.82157
21
-10.6078
0
LINE
8
BLACK
6
CONTINUOUS
10
1.82157
20
-10.6078
11
1.84969
21
-10.6078
0
LINE
8
BLACK
6
CONTINUOUS
10
1.84969
20
-10.6078
11
1.86094
21
-10.6022
0
LINE
8
BLACK
6
CONTINUOUS
10
1.91718
20
-10.5741
11
1.91718
21
-10.6922
0
LINE
8
BLACK
6
CONTINUOUS
10
1.91718
20
-10.5797
11
1.92843
21
-10.5741
0
LINE
8
BLACK
6
CONTINUOUS
10
1.92843
20
-10.5741
11
1.95093
21
-10.5741
0
LINE
8
BLACK
6
CONTINUOUS
10
1.95093
20
-10.5741
11
1.96218
21
-10.5797
0
LINE
8
BLACK
6
CONTINUOUS
10
1.96218
20
-10.5797
11
1.9678
21
-10.5853
0
LINE
8
BLACK
6
CONTINUOUS
10
1.9678
20
-10.5853
11
1.97343
21
-10.5966
0
LINE
8
BLACK
6
CONTINUOUS
10
1.97343
20
-10.5966
11
1.97343
21
-10.6303
0
LINE
8
BLACK
6
CONTINUOUS
10
1.97343
20
-10.6303
11
1.9678
21
-10.6416
0
LINE
8
BLACK
6
CONTINUOUS
10
1.9678
20
-10.6416
11
1.96218
21
-10.6472
0
LINE
8
BLACK
6
CONTINUOUS
10
1.96218
20
-10.6472
11
1.95093
21
-10.6528
0
LINE
8
BLACK
6
CONTINUOUS
10
1.95093
20
-10.6528
11
1.92843
21
-10.6528
0
LINE
8
BLACK
6
CONTINUOUS
10
1.92843
20
-10.6528
11
1.91718
21
-10.6472
0
LINE
8
BLACK
6
CONTINUOUS
10
2.02404
20
-10.6416
11
2.02967
21
-10.6472
0
LINE
8
BLACK
6
CONTINUOUS
10
2.02967
20
-10.6472
11
2.02404
21
-10.6528
0
LINE
8
BLACK
6
CONTINUOUS
10
2.02404
20
-10.6528
11
2.01842
21
-10.6472
0
LINE
8
BLACK
6
CONTINUOUS
10
2.01842
20
-10.6472
11
2.02404
21
-10.6416
0
LINE
8
BLACK
6
CONTINUOUS
10
2.02404
20
-10.6416
11
2.02404
21
-10.6528
0
LINE
8
BLACK
6
CONTINUOUS
10
2.02404
20
-10.5797
11
2.02967
21
-10.5853
0
LINE
8
BLACK
6
CONTINUOUS
10
2.02967
20
-10.5853
11
2.02404
21
-10.591
0
LINE
8
BLACK
6
CONTINUOUS
10
2.02404
20
-10.591
11
2.01842
21
-10.5853
0
LINE
8
BLACK
6
CONTINUOUS
10
2.01842
20
-10.5853
11
2.02404
21
-10.5797
0
LINE
8
BLACK
6
CONTINUOUS
10
2.02404
20
-10.5797
11
2.02404
21
-10.591
0
LINE
8
BLACK
6
CONTINUOUS
10
1.05413
20
-10.8238
11
1.10138
21
-10.8711
0
LINE
8
BLACK
6
CONTINUOUS
10
1.10138
20
-10.8238
11
1.05413
21
-10.8711
0
LINE
8
BLACK
6
CONTINUOUS
10
1.27601
20
-10.9009
11
1.20852
21
-10.9009
0
LINE
8
BLACK
6
CONTINUOUS
10
1.24227
20
-10.9009
11
1.24227
21
-10.7828
0
LINE
8
BLACK
6
CONTINUOUS
10
1.24227
20
-10.7828
11
1.23102
21
-10.7996
0
LINE
8
BLACK
6
CONTINUOUS
10
1.23102
20
-10.7996
11
1.21977
21
-10.8109
0
LINE
8
BLACK
6
CONTINUOUS
10
1.21977
20
-10.8109
11
1.20852
21
-10.8165
0
LINE
8
BLACK
6
CONTINUOUS
10
1.32663
20
-10.8896
11
1.33226
21
-10.8952
0
LINE
8
BLACK
6
CONTINUOUS
10
1.33226
20
-10.8952
11
1.32663
21
-10.9009
0
LINE
8
BLACK
6
CONTINUOUS
10
1.32663
20
-10.9009
11
1.32101
21
-10.8952
0
LINE
8
BLACK
6
CONTINUOUS
10
1.32101
20
-10.8952
11
1.32663
21
-10.8896
0
LINE
8
BLACK
6
CONTINUOUS
10
1.32663
20
-10.8896
11
1.32663
21
-10.9009
0
LINE
8
BLACK
6
CONTINUOUS
10
1.37725
20
-10.794
11
1.38287
21
-10.7884
0
LINE
8
BLACK
6
CONTINUOUS
10
1.38287
20
-10.7884
11
1.39412
21
-10.7828
0
LINE
8
BLACK
6
CONTINUOUS
10
1.39412
20
-10.7828
11
1.42224
21
-10.7828
0
LINE
8
BLACK
6
CONTINUOUS
10
1.42224
20
-10.7828
11
1.43349
21
-10.7884
0
LINE
8
BLACK
6
CONTINUOUS
10
1.43349
20
-10.7884
11
1.43912
21
-10.794
0
LINE
8
BLACK
6
CONTINUOUS
10
1.43912
20
-10.794
11
1.44474
21
-10.8053
0
LINE
8
BLACK
6
CONTINUOUS
10
1.44474
20
-10.8053
11
1.44474
21
-10.8165
0
LINE
8
BLACK
6
CONTINUOUS
10
1.44474
20
-10.8165
11
1.43912
21
-10.8334
0
LINE
8
BLACK
6
CONTINUOUS
10
1.43912
20
-10.8334
11
1.37163
21
-10.9009
0
LINE
8
BLACK
6
CONTINUOUS
10
1.37163
20
-10.9009
11
1.44474
21
-10.9009
0
LINE
8
BLACK
6
CONTINUOUS
10
1.51786
20
-10.7828
11
1.52911
21
-10.7828
0
LINE
8
BLACK
6
CONTINUOUS
10
1.52911
20
-10.7828
11
1.54035
21
-10.7884
0
LINE
8
BLACK
6
CONTINUOUS
10
1.54035
20
-10.7884
11
1.54598
21
-10.794
0
LINE
8
BLACK
6
CONTINUOUS
10
1.54598
20
-10.794
11
1.5516
21
-10.8053
0
LINE
8
BLACK
6
CONTINUOUS
10
1.5516
20
-10.8053
11
1.55723
21
-10.8278
0
LINE
8
BLACK
6
CONTINUOUS
10
1.55723
20
-10.8278
11
1.55723
21
-10.8559
0
LINE
8
BLACK
6
CONTINUOUS
10
1.55723
20
-10.8559
11
1.5516
21
-10.8784
0
LINE
8
BLACK
6
CONTINUOUS
10
1.5516
20
-10.8784
11
1.54598
21
-10.8896
0
LINE
8
BLACK
6
CONTINUOUS
10
1.54598
20
-10.8896
11
1.54035
21
-10.8952
0
LINE
8
BLACK
6
CONTINUOUS
10
1.54035
20
-10.8952
11
1.52911
21
-10.9009
0
LINE
8
BLACK
6
CONTINUOUS
10
1.52911
20
-10.9009
11
1.51786
21
-10.9009
0
LINE
8
BLACK
6
CONTINUOUS
10
1.51786
20
-10.9009
11
1.50661
21
-10.8952
0
LINE
8
BLACK
6
CONTINUOUS
10
1.50661
20
-10.8952
11
1.50098
21
-10.8896
0
LINE
8
BLACK
6
CONTINUOUS
10
1.50098
20
-10.8896
11
1.49536
21
-10.8784
0
LINE
8
BLACK
6
CONTINUOUS
10
1.49536
20
-10.8784
11
1.48974
21
-10.8559
0
LINE
8
BLACK
6
CONTINUOUS
10
1.48974
20
-10.8559
11
1.48974
21
-10.8278
0
LINE
8
BLACK
6
CONTINUOUS
10
1.48974
20
-10.8278
11
1.49536
21
-10.8053
0
LINE
8
BLACK
6
CONTINUOUS
10
1.49536
20
-10.8053
11
1.50098
21
-10.794
0
LINE
8
BLACK
6
CONTINUOUS
10
1.50098
20
-10.794
11
1.50661
21
-10.7884
0
LINE
8
BLACK
6
CONTINUOUS
10
1.50661
20
-10.7884
11
1.51786
21
-10.7828
0
LINE
8
BLACK
6
CONTINUOUS
10
1.63034
20
-10.7828
11
1.64159
21
-10.7828
0
LINE
8
BLACK
6
CONTINUOUS
10
1.64159
20
-10.7828
11
1.65284
21
-10.7884
0
LINE
8
BLACK
6
CONTINUOUS
10
1.65284
20
-10.7884
11
1.65846
21
-10.794
0
LINE
8
BLACK
6
CONTINUOUS
10
1.65846
20
-10.794
11
1.66409
21
-10.8053
0
LINE
8
BLACK
6
CONTINUOUS
10
1.66409
20
-10.8053
11
1.66971
21
-10.8278
0
LINE
8
BLACK
6
CONTINUOUS
10
1.66971
20
-10.8278
11
1.66971
21
-10.8559
0
LINE
8
BLACK
6
CONTINUOUS
10
1.66971
20
-10.8559
11
1.66409
21
-10.8784
0
LINE
8
BLACK
6
CONTINUOUS
10
1.66409
20
-10.8784
11
1.65846
21
-10.8896
0
LINE
8
BLACK
6
CONTINUOUS
10
1.65846
20
-10.8896
11
1.65284
21
-10.8952
0
LINE
8
BLACK
6
CONTINUOUS
10
1.65284
20
-10.8952
11
1.64159
21
-10.9009
0
LINE
8
BLACK
6
CONTINUOUS
10
1.64159
20
-10.9009
11
1.63034
21
-10.9009
0
LINE
8
BLACK
6
CONTINUOUS
10
1.63034
20
-10.9009
11
1.61909
21
-10.8952
0
LINE
8
BLACK
6
CONTINUOUS
10
1.61909
20
-10.8952
11
1.61347
21
-10.8896
0
LINE
8
BLACK
6
CONTINUOUS
10
1.61347
20
-10.8896
11
1.60785
21
-10.8784
0
LINE
8
BLACK
6
CONTINUOUS
10
1.60785
20
-10.8784
11
1.60222
21
-10.8559
0
LINE
8
BLACK
6
CONTINUOUS
10
1.60222
20
-10.8559
11
1.60222
21
-10.8278
0
LINE
8
BLACK
6
CONTINUOUS
10
1.60222
20
-10.8278
11
1.60785
21
-10.8053
0
LINE
8
BLACK
6
CONTINUOUS
10
1.60785
20
-10.8053
11
1.61347
21
-10.794
0
LINE
8
BLACK
6
CONTINUOUS
10
1.61347
20
-10.794
11
1.61909
21
-10.7884
0
LINE
8
BLACK
6
CONTINUOUS
10
1.61909
20
-10.7884
11
1.63034
21
-10.7828
0
LINE
8
BLACK
6
CONTINUOUS
10
1.72033
20
-10.9009
11
1.72033
21
-10.8221
0
LINE
8
BLACK
6
CONTINUOUS
10
1.72033
20
-10.8334
11
1.72596
21
-10.8278
0
LINE
8
BLACK
6
CONTINUOUS
10
1.72596
20
-10.8278
11
1.7372
21
-10.8221
0
LINE
8
BLACK
6
CONTINUOUS
10
1.7372
20
-10.8221
11
1.75408
21
-10.8221
0
LINE
8
BLACK
6
CONTINUOUS
10
1.75408
20
-10.8221
11
1.76533
21
-10.8278
0
LINE
8
BLACK
6
CONTINUOUS
10
1.76533
20
-10.8278
11
1.77095
21
-10.839
0
LINE
8
BLACK
6
CONTINUOUS
10
1.77095
20
-10.839
11
1.77095
21
-10.9009
0
LINE
8
BLACK
6
CONTINUOUS
10
1.77095
20
-10.839
11
1.77657
21
-10.8278
0
LINE
8
BLACK
6
CONTINUOUS
10
1.77657
20
-10.8278
11
1.78782
21
-10.8221
0
LINE
8
BLACK
6
CONTINUOUS
10
1.78782
20
-10.8221
11
1.8047
21
-10.8221
0
LINE
8
BLACK
6
CONTINUOUS
10
1.8047
20
-10.8221
11
1.81594
21
-10.8278
0
LINE
8
BLACK
6
CONTINUOUS
10
1.81594
20
-10.8278
11
1.82157
21
-10.839
0
LINE
8
BLACK
6
CONTINUOUS
10
1.82157
20
-10.839
11
1.82157
21
-10.9009
0
LINE
8
BLACK
6
CONTINUOUS
10
1.87781
20
-10.9009
11
1.87781
21
-10.8221
0
LINE
8
BLACK
6
CONTINUOUS
10
1.87781
20
-10.8334
11
1.88344
21
-10.8278
0
LINE
8
BLACK
6
CONTINUOUS
10
1.88344
20
-10.8278
11
1.89468
21
-10.8221
0
LINE
8
BLACK
6
CONTINUOUS
10
1.89468
20
-10.8221
11
1.91156
21
-10.8221
0
LINE
8
BLACK
6
CONTINUOUS
10
1.91156
20
-10.8221
11
1.92281
21
-10.8278
0
LINE
8
BLACK
6
CONTINUOUS
10
1.92281
20
-10.8278
11
1.92843
21
-10.839
0
LINE
8
BLACK
6
CONTINUOUS
10
1.92843
20
-10.839
11
1.92843
21
-10.9009
0
LINE
8
BLACK
6
CONTINUOUS
10
1.92843
20
-10.839
11
1.93406
21
-10.8278
0
LINE
8
BLACK
6
CONTINUOUS
10
1.93406
20
-10.8278
11
1.9453
21
-10.8221
0
LINE
8
BLACK
6
CONTINUOUS
10
1.9453
20
-10.8221
11
1.96218
21
-10.8221
0
LINE
8
BLACK
6
CONTINUOUS
10
1.96218
20
-10.8221
11
1.97343
21
-10.8278
0
LINE
8
BLACK
6
CONTINUOUS
10
1.97343
20
-10.8278
11
1.97905
21
-10.839
0
LINE
8
BLACK
6
CONTINUOUS
10
1.97905
20
-10.839
11
1.97905
21
-10.9009
0
LINE
8
BLACK
6
CONTINUOUS
10
2.20965
20
-10.7771
11
2.10841
21
-10.929
0
LINE
8
BLACK
6
CONTINUOUS
10
2.3615
20
-10.7828
11
2.37275
21
-10.7828
0
LINE
8
BLACK
6
CONTINUOUS
10
2.37275
20
-10.7828
11
2.384
21
-10.7884
0
LINE
8
BLACK
6
CONTINUOUS
10
2.384
20
-10.7884
11
2.38962
21
-10.794
0
LINE
8
BLACK
6
CONTINUOUS
10
2.38962
20
-10.794
11
2.39525
21
-10.8053
0
LINE
8
BLACK
6
CONTINUOUS
10
2.39525
20
-10.8053
11
2.40087
21
-10.8278
0
LINE
8
BLACK
6
CONTINUOUS
10
2.40087
20
-10.8278
11
2.40087
21
-10.8559
0
LINE
8
BLACK
6
CONTINUOUS
10
2.40087
20
-10.8559
11
2.39525
21
-10.8784
0
LINE
8
BLACK
6
CONTINUOUS
10
2.39525
20
-10.8784
11
2.38962
21
-10.8896
0
LINE
8
BLACK
6
CONTINUOUS
10
2.38962
20
-10.8896
11
2.384
21
-10.8952
0
LINE
8
BLACK
6
CONTINUOUS
10
2.384
20
-10.8952
11
2.37275
21
-10.9009
0
LINE
8
BLACK
6
CONTINUOUS
10
2.37275
20
-10.9009
11
2.3615
21
-10.9009
0
LINE
8
BLACK
6
CONTINUOUS
10
2.3615
20
-10.9009
11
2.35025
21
-10.8952
0
LINE
8
BLACK
6
CONTINUOUS
10
2.35025
20
-10.8952
11
2.34463
21
-10.8896
0
LINE
8
BLACK
6
CONTINUOUS
10
2.34463
20
-10.8896
11
2.339
21
-10.8784
0
LINE
8
BLACK
6
CONTINUOUS
10
2.339
20
-10.8784
11
2.33338
21
-10.8559
0
LINE
8
BLACK
6
CONTINUOUS
10
2.33338
20
-10.8559
11
2.33338
21
-10.8278
0
LINE
8
BLACK
6
CONTINUOUS
10
2.33338
20
-10.8278
11
2.339
21
-10.8053
0
LINE
8
BLACK
6
CONTINUOUS
10
2.339
20
-10.8053
11
2.34463
21
-10.794
0
LINE
8
BLACK
6
CONTINUOUS
10
2.34463
20
-10.794
11
2.35025
21
-10.7884
0
LINE
8
BLACK
6
CONTINUOUS
10
2.35025
20
-10.7884
11
2.3615
21
-10.7828
0
LINE
8
BLACK
6
CONTINUOUS
10
2.45149
20
-10.8896
11
2.45711
21
-10.8952
0
LINE
8
BLACK
6
CONTINUOUS
10
2.45711
20
-10.8952
11
2.45149
21
-10.9009
0
LINE
8
BLACK
6
CONTINUOUS
10
2.45149
20
-10.9009
11
2.44587
21
-10.8952
0
LINE
8
BLACK
6
CONTINUOUS
10
2.44587
20
-10.8952
11
2.45149
21
-10.8896
0
LINE
8
BLACK
6
CONTINUOUS
10
2.45149
20
-10.8896
11
2.45149
21
-10.9009
0
LINE
8
BLACK
6
CONTINUOUS
10
2.53023
20
-10.7828
11
2.54148
21
-10.7828
0
LINE
8
BLACK
6
CONTINUOUS
10
2.54148
20
-10.7828
11
2.55273
21
-10.7884
0
LINE
8
BLACK
6
CONTINUOUS
10
2.55273
20
-10.7884
11
2.55835
21
-10.794
0
LINE
8
BLACK
6
CONTINUOUS
10
2.55835
20
-10.794
11
2.56398
21
-10.8053
0
LINE
8
BLACK
6
CONTINUOUS
10
2.56398
20
-10.8053
11
2.5696
21
-10.8278
0
LINE
8
BLACK
6
CONTINUOUS
10
2.5696
20
-10.8278
11
2.5696
21
-10.8559
0
LINE
8
BLACK
6
CONTINUOUS
10
2.5696
20
-10.8559
11
2.56398
21
-10.8784
0
LINE
8
BLACK
6
CONTINUOUS
10
2.56398
20
-10.8784
11
2.55835
21
-10.8896
0
LINE
8
BLACK
6
CONTINUOUS
10
2.55835
20
-10.8896
11
2.55273
21
-10.8952
0
LINE
8
BLACK
6
CONTINUOUS
10
2.55273
20
-10.8952
11
2.54148
21
-10.9009
0
LINE
8
BLACK
6
CONTINUOUS
10
2.54148
20
-10.9009
11
2.53023
21
-10.9009
0
LINE
8
BLACK
6
CONTINUOUS
10
2.53023
20
-10.9009
11
2.51898
21
-10.8952
0
LINE
8
BLACK
6
CONTINUOUS
10
2.51898
20
-10.8952
11
2.51336
21
-10.8896
0
LINE
8
BLACK
6
CONTINUOUS
10
2.51336
20
-10.8896
11
2.50773
21
-10.8784
0
LINE
8
BLACK
6
CONTINUOUS
10
2.50773
20
-10.8784
11
2.50211
21
-10.8559
0
LINE
8
BLACK
6
CONTINUOUS
10
2.50211
20
-10.8559
11
2.50211
21
-10.8278
0
LINE
8
BLACK
6
CONTINUOUS
10
2.50211
20
-10.8278
11
2.50773
21
-10.8053
0
LINE
8
BLACK
6
CONTINUOUS
10
2.50773
20
-10.8053
11
2.51336
21
-10.794
0
LINE
8
BLACK
6
CONTINUOUS
10
2.51336
20
-10.794
11
2.51898
21
-10.7884
0
LINE
8
BLACK
6
CONTINUOUS
10
2.51898
20
-10.7884
11
2.53023
21
-10.7828
0
LINE
8
BLACK
6
CONTINUOUS
10
2.67084
20
-10.8221
11
2.67084
21
-10.9009
0
LINE
8
BLACK
6
CONTINUOUS
10
2.64272
20
-10.7771
11
2.6146
21
-10.8615
0
LINE
8
BLACK
6
CONTINUOUS
10
2.6146
20
-10.8615
11
2.68771
21
-10.8615
0
LINE
8
BLACK
6
CONTINUOUS
10
2.72146
20
-10.7828
11
2.8002
21
-10.7828
0
LINE
8
BLACK
6
CONTINUOUS
10
2.8002
20
-10.7828
11
2.74958
21
-10.9009
0
LINE
8
BLACK
6
CONTINUOUS
10
2.83957
20
-10.794
11
2.84519
21
-10.7884
0
LINE
8
BLACK
6
CONTINUOUS
10
2.84519
20
-10.7884
11
2.85644
21
-10.7828
0
LINE
8
BLACK
6
CONTINUOUS
10
2.85644
20
-10.7828
11
2.88456
21
-10.7828
0
LINE
8
BLACK
6
CONTINUOUS
10
2.88456
20
-10.7828
11
2.89581
21
-10.7884
0
LINE
8
BLACK
6
CONTINUOUS
10
2.89581
20
-10.7884
11
2.90143
21
-10.794
0
LINE
8
BLACK
6
CONTINUOUS
10
2.90143
20
-10.794
11
2.90706
21
-10.8053
0
LINE
8
BLACK
6
CONTINUOUS
10
2.90706
20
-10.8053
11
2.90706
21
-10.8165
0
LINE
8
BLACK
6
CONTINUOUS
10
2.90706
20
-10.8165
11
2.90143
21
-10.8334
0
LINE
8
BLACK
6
CONTINUOUS
10
2.90143
20
-10.8334
11
2.83394
21
-10.9009
0
LINE
8
BLACK
6
CONTINUOUS
10
2.83394
20
-10.9009
11
2.90706
21
-10.9009
0
LINE
8
BLACK
6
CONTINUOUS
10
2.95205
20
-10.7828
11
2.95205
21
-10.8053
0
LINE
8
BLACK
6
CONTINUOUS
10
2.99705
20
-10.7828
11
2.99705
21
-10.8053
0
LINE
8
BLACK
6
CONTINUOUS
10
3.1714
20
-10.9459
11
3.16578
21
-10.9402
0
LINE
8
BLACK
6
CONTINUOUS
10
3.16578
20
-10.9402
11
3.15453
21
-10.9234
0
LINE
8
BLACK
6
CONTINUOUS
10
3.15453
20
-10.9234
11
3.1489
21
-10.9121
0
LINE
8
BLACK
6
CONTINUOUS
10
3.1489
20
-10.9121
11
3.14328
21
-10.8952
0
LINE
8
BLACK
6
CONTINUOUS
10
3.14328
20
-10.8952
11
3.13765
21
-10.8671
0
LINE
8
BLACK
6
CONTINUOUS
10
3.13765
20
-10.8671
11
3.13765
21
-10.8446
0
LINE
8
BLACK
6
CONTINUOUS
10
3.13765
20
-10.8446
11
3.14328
21
-10.8165
0
LINE
8
BLACK
6
CONTINUOUS
10
3.14328
20
-10.8165
11
3.1489
21
-10.7996
0
LINE
8
BLACK
6
CONTINUOUS
10
3.1489
20
-10.7996
11
3.15453
21
-10.7884
0
LINE
8
BLACK
6
CONTINUOUS
10
3.15453
20
-10.7884
11
3.16578
21
-10.7715
0
LINE
8
BLACK
6
CONTINUOUS
10
3.16578
20
-10.7715
11
3.1714
21
-10.7659
0
LINE
8
BLACK
6
CONTINUOUS
10
3.27826
20
-10.9009
11
3.21077
21
-10.9009
0
LINE
8
BLACK
6
CONTINUOUS
10
3.24452
20
-10.9009
11
3.24452
21
-10.7828
0
LINE
8
BLACK
6
CONTINUOUS
10
3.24452
20
-10.7828
11
3.23327
21
-10.7996
0
LINE
8
BLACK
6
CONTINUOUS
10
3.23327
20
-10.7996
11
3.22202
21
-10.8109
0
LINE
8
BLACK
6
CONTINUOUS
10
3.22202
20
-10.8109
11
3.21077
21
-10.8165
0
LINE
8
BLACK
6
CONTINUOUS
10
3.35138
20
-10.7828
11
3.36263
21
-10.7828
0
LINE
8
BLACK
6
CONTINUOUS
10
3.36263
20
-10.7828
11
3.37388
21
-10.7884
0
LINE
8
BLACK
6
CONTINUOUS
10
3.37388
20
-10.7884
11
3.3795
21
-10.794
0
LINE
8
BLACK
6
CONTINUOUS
10
3.3795
20
-10.794
11
3.38512
21
-10.8053
0
LINE
8
BLACK
6
CONTINUOUS
10
3.38512
20
-10.8053
11
3.39075
21
-10.8278
0
LINE
8
BLACK
6
CONTINUOUS
10
3.39075
20
-10.8278
11
3.39075
21
-10.8559
0
LINE
8
BLACK
6
CONTINUOUS
10
3.39075
20
-10.8559
11
3.38512
21
-10.8784
0
LINE
8
BLACK
6
CONTINUOUS
10
3.38512
20
-10.8784
11
3.3795
21
-10.8896
0
LINE
8
BLACK
6
CONTINUOUS
10
3.3795
20
-10.8896
11
3.37388
21
-10.8952
0
LINE
8
BLACK
6
CONTINUOUS
10
3.37388
20
-10.8952
11
3.36263
21
-10.9009
0
LINE
8
BLACK
6
CONTINUOUS
10
3.36263
20
-10.9009
11
3.35138
21
-10.9009
0
LINE
8
BLACK
6
CONTINUOUS
10
3.35138
20
-10.9009
11
3.34013
21
-10.8952
0
LINE
8
BLACK
6
CONTINUOUS
10
3.34013
20
-10.8952
11
3.33451
21
-10.8896
0
LINE
8
BLACK
6
CONTINUOUS
10
3.33451
20
-10.8896
11
3.32888
21
-10.8784
0
LINE
8
BLACK
6
CONTINUOUS
10
3.32888
20
-10.8784
11
3.32326
21
-10.8559
0
LINE
8
BLACK
6
CONTINUOUS
10
3.32326
20
-10.8559
11
3.32326
21
-10.8278
0
LINE
8
BLACK
6
CONTINUOUS
10
3.32326
20
-10.8278
11
3.32888
21
-10.8053
0
LINE
8
BLACK
6
CONTINUOUS
10
3.32888
20
-10.8053
11
3.33451
21
-10.794
0
LINE
8
BLACK
6
CONTINUOUS
10
3.33451
20
-10.794
11
3.34013
21
-10.7884
0
LINE
8
BLACK
6
CONTINUOUS
10
3.34013
20
-10.7884
11
3.35138
21
-10.7828
0
LINE
8
BLACK
6
CONTINUOUS
10
3.45824
20
-10.8334
11
3.44699
21
-10.8278
0
LINE
8
BLACK
6
CONTINUOUS
10
3.44699
20
-10.8278
11
3.44137
21
-10.8221
0
LINE
8
BLACK
6
CONTINUOUS
10
3.44137
20
-10.8221
11
3.43574
21
-10.8109
0
LINE
8
BLACK
6
CONTINUOUS
10
3.43574
20
-10.8109
11
3.43574
21
-10.8053
0
LINE
8
BLACK
6
CONTINUOUS
10
3.43574
20
-10.8053
11
3.44137
21
-10.794
0
LINE
8
BLACK
6
CONTINUOUS
10
3.44137
20
-10.794
11
3.44699
21
-10.7884
0
LINE
8
BLACK
6
CONTINUOUS
10
3.44699
20
-10.7884
11
3.45824
21
-10.7828
0
LINE
8
BLACK
6
CONTINUOUS
10
3.45824
20
-10.7828
11
3.48074
21
-10.7828
0
LINE
8
BLACK
6
CONTINUOUS
10
3.48074
20
-10.7828
11
3.49199
21
-10.7884
0
LINE
8
BLACK
6
CONTINUOUS
10
3.49199
20
-10.7884
11
3.49761
21
-10.794
0
LINE
8
BLACK
6
CONTINUOUS
10
3.49761
20
-10.794
11
3.50323
21
-10.8053
0
LINE
8
BLACK
6
CONTINUOUS
10
3.50323
20
-10.8053
11
3.50323
21
-10.8109
0
LINE
8
BLACK
6
CONTINUOUS
10
3.50323
20
-10.8109
11
3.49761
21
-10.8221
0
LINE
8
BLACK
6
CONTINUOUS
10
3.49761
20
-10.8221
11
3.49199
21
-10.8278
0
LINE
8
BLACK
6
CONTINUOUS
10
3.49199
20
-10.8278
11
3.48074
21
-10.8334
0
LINE
8
BLACK
6
CONTINUOUS
10
3.48074
20
-10.8334
11
3.45824
21
-10.8334
0
LINE
8
BLACK
6
CONTINUOUS
10
3.45824
20
-10.8334
11
3.44699
21
-10.839
0
LINE
8
BLACK
6
CONTINUOUS
10
3.44699
20
-10.839
11
3.44137
21
-10.8446
0
LINE
8
BLACK
6
CONTINUOUS
10
3.44137
20
-10.8446
11
3.43574
21
-10.8559
0
LINE
8
BLACK
6
CONTINUOUS
10
3.43574
20
-10.8559
11
3.43574
21
-10.8784
0
LINE
8
BLACK
6
CONTINUOUS
10
3.43574
20
-10.8784
11
3.44137
21
-10.8896
0
LINE
8
BLACK
6
CONTINUOUS
10
3.44137
20
-10.8896
11
3.44699
21
-10.8952
0
LINE
8
BLACK
6
CONTINUOUS
10
3.44699
20
-10.8952
11
3.45824
21
-10.9009
0
LINE
8
BLACK
6
CONTINUOUS
10
3.45824
20
-10.9009
11
3.48074
21
-10.9009
0
LINE
8
BLACK
6
CONTINUOUS
10
3.48074
20
-10.9009
11
3.49199
21
-10.8952
0
LINE
8
BLACK
6
CONTINUOUS
10
3.49199
20
-10.8952
11
3.49761
21
-10.8896
0
LINE
8
BLACK
6
CONTINUOUS
10
3.49761
20
-10.8896
11
3.50323
21
-10.8784
0
LINE
8
BLACK
6
CONTINUOUS
10
3.50323
20
-10.8784
11
3.50323
21
-10.8559
0
LINE
8
BLACK
6
CONTINUOUS
10
3.50323
20
-10.8559
11
3.49761
21
-10.8446
0
LINE
8
BLACK
6
CONTINUOUS
10
3.49761
20
-10.8446
11
3.49199
21
-10.839
0
LINE
8
BLACK
6
CONTINUOUS
10
3.49199
20
-10.839
11
3.48074
21
-10.8334
0
LINE
8
BLACK
6
CONTINUOUS
10
3.64384
20
-10.9009
11
3.64384
21
-10.7828
0
LINE
8
BLACK
6
CONTINUOUS
10
3.69446
20
-10.9009
11
3.69446
21
-10.839
0
LINE
8
BLACK
6
CONTINUOUS
10
3.69446
20
-10.839
11
3.68884
21
-10.8278
0
LINE
8
BLACK
6
CONTINUOUS
10
3.68884
20
-10.8278
11
3.67759
21
-10.8221
0
LINE
8
BLACK
6
CONTINUOUS
10
3.67759
20
-10.8221
11
3.66071
21
-10.8221
0
LINE
8
BLACK
6
CONTINUOUS
10
3.66071
20
-10.8221
11
3.64947
21
-10.8278
0
LINE
8
BLACK
6
CONTINUOUS
10
3.64947
20
-10.8278
11
3.64384
21
-10.8334
0
LINE
8
BLACK
6
CONTINUOUS
10
3.76758
20
-10.9009
11
3.75633
21
-10.8952
0
LINE
8
BLACK
6
CONTINUOUS
10
3.75633
20
-10.8952
11
3.7507
21
-10.8896
0
LINE
8
BLACK
6
CONTINUOUS
10
3.7507
20
-10.8896
11
3.74508
21
-10.8784
0
LINE
8
BLACK
6
CONTINUOUS
10
3.74508
20
-10.8784
11
3.74508
21
-10.8446
0
LINE
8
BLACK
6
CONTINUOUS
10
3.74508
20
-10.8446
11
3.7507
21
-10.8334
0
LINE
8
BLACK
6
CONTINUOUS
10
3.7507
20
-10.8334
11
3.75633
21
-10.8278
0
LINE
8
BLACK
6
CONTINUOUS
10
3.75633
20
-10.8278
11
3.76758
21
-10.8221
0
LINE
8
BLACK
6
CONTINUOUS
10
3.76758
20
-10.8221
11
3.78445
21
-10.8221
0
LINE
8
BLACK
6
CONTINUOUS
10
3.78445
20
-10.8221
11
3.7957
21
-10.8278
0
LINE
8
BLACK
6
CONTINUOUS
10
3.7957
20
-10.8278
11
3.80132
21
-10.8334
0
LINE
8
BLACK
6
CONTINUOUS
10
3.80132
20
-10.8334
11
3.80695
21
-10.8446
0
LINE
8
BLACK
6
CONTINUOUS
10
3.80695
20
-10.8446
11
3.80695
21
-10.8784
0
LINE
8
BLACK
6
CONTINUOUS
10
3.80695
20
-10.8784
11
3.80132
21
-10.8896
0
LINE
8
BLACK
6
CONTINUOUS
10
3.80132
20
-10.8896
11
3.7957
21
-10.8952
0
LINE
8
BLACK
6
CONTINUOUS
10
3.7957
20
-10.8952
11
3.78445
21
-10.9009
0
LINE
8
BLACK
6
CONTINUOUS
10
3.78445
20
-10.9009
11
3.76758
21
-10.9009
0
LINE
8
BLACK
6
CONTINUOUS
10
3.87444
20
-10.9009
11
3.86319
21
-10.8952
0
LINE
8
BLACK
6
CONTINUOUS
10
3.86319
20
-10.8952
11
3.85756
21
-10.884
0
LINE
8
BLACK
6
CONTINUOUS
10
3.85756
20
-10.884
11
3.85756
21
-10.7828
0
LINE
8
BLACK
6
CONTINUOUS
10
3.96443
20
-10.8952
11
3.95318
21
-10.9009
0
LINE
8
BLACK
6
CONTINUOUS
10
3.95318
20
-10.9009
11
3.93068
21
-10.9009
0
LINE
8
BLACK
6
CONTINUOUS
10
3.93068
20
-10.9009
11
3.91943
21
-10.8952
0
LINE
8
BLACK
6
CONTINUOUS
10
3.91943
20
-10.8952
11
3.91381
21
-10.884
0
LINE
8
BLACK
6
CONTINUOUS
10
3.91381
20
-10.884
11
3.91381
21
-10.839
0
LINE
8
BLACK
6
CONTINUOUS
10
3.91381
20
-10.839
11
3.91943
21
-10.8278
0
LINE
8
BLACK
6
CONTINUOUS
10
3.91943
20
-10.8278
11
3.93068
21
-10.8221
0
LINE
8
BLACK
6
CONTINUOUS
10
3.93068
20
-10.8221
11
3.95318
21
-10.8221
0
LINE
8
BLACK
6
CONTINUOUS
10
3.95318
20
-10.8221
11
3.96443
21
-10.8278
0
LINE
8
BLACK
6
CONTINUOUS
10
3.96443
20
-10.8278
11
3.97005
21
-10.839
0
LINE
8
BLACK
6
CONTINUOUS
10
3.97005
20
-10.839
11
3.97005
21
-10.8503
0
LINE
8
BLACK
6
CONTINUOUS
10
3.97005
20
-10.8503
11
3.91381
21
-10.8615
0
LINE
8
BLACK
6
CONTINUOUS
10
4.01504
20
-10.8952
11
4.02629
21
-10.9009
0
LINE
8
BLACK
6
CONTINUOUS
10
4.02629
20
-10.9009
11
4.04879
21
-10.9009
0
LINE
8
BLACK
6
CONTINUOUS
10
4.04879
20
-10.9009
11
4.06004
21
-10.8952
0
LINE
8
BLACK
6
CONTINUOUS
10
4.06004
20
-10.8952
11
4.06566
21
-10.884
0
LINE
8
BLACK
6
CONTINUOUS
10
4.06566
20
-10.884
11
4.06566
21
-10.8784
0
LINE
8
BLACK
6
CONTINUOUS
10
4.06566
20
-10.8784
11
4.06004
21
-10.8671
0
LINE
8
BLACK
6
CONTINUOUS
10
4.06004
20
-10.8671
11
4.04879
21
-10.8615
0
LINE
8
BLACK
6
CONTINUOUS
10
4.04879
20
-10.8615
11
4.03192
21
-10.8615
0
LINE
8
BLACK
6
CONTINUOUS
10
4.03192
20
-10.8615
11
4.02067
21
-10.8559
0
LINE
8
BLACK
6
CONTINUOUS
10
4.02067
20
-10.8559
11
4.01504
21
-10.8446
0
LINE
8
BLACK
6
CONTINUOUS
10
4.01504
20
-10.8446
11
4.01504
21
-10.839
0
LINE
8
BLACK
6
CONTINUOUS
10
4.01504
20
-10.839
11
4.02067
21
-10.8278
0
LINE
8
BLACK
6
CONTINUOUS
10
4.02067
20
-10.8278
11
4.03192
21
-10.8221
0
LINE
8
BLACK
6
CONTINUOUS
10
4.03192
20
-10.8221
11
4.04879
21
-10.8221
0
LINE
8
BLACK
6
CONTINUOUS
10
4.04879
20
-10.8221
11
4.06004
21
-10.8278
0
LINE
8
BLACK
6
CONTINUOUS
10
4.10503
20
-10.9459
11
4.11066
21
-10.9402
0
LINE
8
BLACK
6
CONTINUOUS
10
4.11066
20
-10.9402
11
4.12191
21
-10.9234
0
LINE
8
BLACK
6
CONTINUOUS
10
4.12191
20
-10.9234
11
4.12753
21
-10.9121
0
LINE
8
BLACK
6
CONTINUOUS
10
4.12753
20
-10.9121
11
4.13316
21
-10.8952
0
LINE
8
BLACK
6
CONTINUOUS
10
4.13316
20
-10.8952
11
4.13878
21
-10.8671
0
LINE
8
BLACK
6
CONTINUOUS
10
4.13878
20
-10.8671
11
4.13878
21
-10.8446
0
LINE
8
BLACK
6
CONTINUOUS
10
4.13878
20
-10.8446
11
4.13316
21
-10.8165
0
LINE
8
BLACK
6
CONTINUOUS
10
4.13316
20
-10.8165
11
4.12753
21
-10.7996
0
LINE
8
BLACK
6
CONTINUOUS
10
4.12753
20
-10.7996
11
4.12191
21
-10.7884
0
LINE
8
BLACK
6
CONTINUOUS
10
4.12191
20
-10.7884
11
4.11066
21
-10.7715
0
LINE
8
BLACK
6
CONTINUOUS
10
4.11066
20
-10.7715
11
4.10503
21
-10.7659
0
CIRCLE
8
BLACK
10
1.03839
20
-11.0033
40
0.0629921
0
LINE
8
BLACK
6
CONTINUOUS
10
1.2029
20
-10.9387
11
1.27601
21
-10.9387
0
LINE
8
BLACK
6
CONTINUOUS
10
1.27601
20
-10.9387
11
1.23664
21
-10.9837
0
LINE
8
BLACK
6
CONTINUOUS
10
1.23664
20
-10.9837
11
1.25352
21
-10.9837
0
LINE
8
BLACK
6
CONTINUOUS
10
1.25352
20
-10.9837
11
1.26476
21
-10.9893
0
LINE
8
BLACK
6
CONTINUOUS
10
1.26476
20
-10.9893
11
1.27039
21
-10.9949
0
LINE
8
BLACK
6
CONTINUOUS
10
1.27039
20
-10.9949
11
1.27601
21
-11.0062
0
LINE
8
BLACK
6
CONTINUOUS
10
1.27601
20
-11.0062
11
1.27601
21
-11.0343
0
LINE
8
BLACK
6
CONTINUOUS
10
1.27601
20
-11.0343
11
1.27039
21
-11.0455
0
LINE
8
BLACK
6
CONTINUOUS
10
1.27039
20
-11.0455
11
1.26476
21
-11.0512
0
LINE
8
BLACK
6
CONTINUOUS
10
1.26476
20
-11.0512
11
1.25352
21
-11.0568
0
LINE
8
BLACK
6
CONTINUOUS
10
1.25352
20
-11.0568
11
1.21977
21
-11.0568
0
LINE
8
BLACK
6
CONTINUOUS
10
1.21977
20
-11.0568
11
1.20852
21
-11.0512
0
LINE
8
BLACK
6
CONTINUOUS
10
1.20852
20
-11.0512
11
1.2029
21
-11.0455
0
LINE
8
BLACK
6
CONTINUOUS
10
1.32663
20
-11.0455
11
1.33226
21
-11.0512
0
LINE
8
BLACK
6
CONTINUOUS
10
1.33226
20
-11.0512
11
1.32663
21
-11.0568
0
LINE
8
BLACK
6
CONTINUOUS
10
1.32663
20
-11.0568
11
1.32101
21
-11.0512
0
LINE
8
BLACK
6
CONTINUOUS
10
1.32101
20
-11.0512
11
1.32663
21
-11.0455
0
LINE
8
BLACK
6
CONTINUOUS
10
1.32663
20
-11.0455
11
1.32663
21
-11.0568
0
LINE
8
BLACK
6
CONTINUOUS
10
1.37725
20
-10.9499
11
1.38287
21
-10.9443
0
LINE
8
BLACK
6
CONTINUOUS
10
1.38287
20
-10.9443
11
1.39412
21
-10.9387
0
LINE
8
BLACK
6
CONTINUOUS
10
1.39412
20
-10.9387
11
1.42224
21
-10.9387
0
LINE
8
BLACK
6
CONTINUOUS
10
1.42224
20
-10.9387
11
1.43349
21
-10.9443
0
LINE
8
BLACK
6
CONTINUOUS
10
1.43349
20
-10.9443
11
1.43912
21
-10.9499
0
LINE
8
BLACK
6
CONTINUOUS
10
1.43912
20
-10.9499
11
1.44474
21
-10.9612
0
LINE
8
BLACK
6
CONTINUOUS
10
1.44474
20
-10.9612
11
1.44474
21
-10.9724
0
LINE
8
BLACK
6
CONTINUOUS
10
1.44474
20
-10.9724
11
1.43912
21
-10.9893
0
LINE
8
BLACK
6
CONTINUOUS
10
1.43912
20
-10.9893
11
1.37163
21
-11.0568
0
LINE
8
BLACK
6
CONTINUOUS
10
1.37163
20
-11.0568
11
1.44474
21
-11.0568
0
LINE
8
BLACK
6
CONTINUOUS
10
1.51786
20
-10.9387
11
1.52911
21
-10.9387
0
LINE
8
BLACK
6
CONTINUOUS
10
1.52911
20
-10.9387
11
1.54035
21
-10.9443
0
LINE
8
BLACK
6
CONTINUOUS
10
1.54035
20
-10.9443
11
1.54598
21
-10.9499
0
LINE
8
BLACK
6
CONTINUOUS
10
1.54598
20
-10.9499
11
1.5516
21
-10.9612
0
LINE
8
BLACK
6
CONTINUOUS
10
1.5516
20
-10.9612
11
1.55723
21
-10.9837
0
LINE
8
BLACK
6
CONTINUOUS
10
1.55723
20
-10.9837
11
1.55723
21
-11.0118
0
LINE
8
BLACK
6
CONTINUOUS
10
1.55723
20
-11.0118
11
1.5516
21
-11.0343
0
LINE
8
BLACK
6
CONTINUOUS
10
1.5516
20
-11.0343
11
1.54598
21
-11.0455
0
LINE
8
BLACK
6
CONTINUOUS
10
1.54598
20
-11.0455
11
1.54035
21
-11.0512
0
LINE
8
BLACK
6
CONTINUOUS
10
1.54035
20
-11.0512
11
1.52911
21
-11.0568
0
LINE
8
BLACK
6
CONTINUOUS
10
1.52911
20
-11.0568
11
1.51786
21
-11.0568
0
LINE
8
BLACK
6
CONTINUOUS
10
1.51786
20
-11.0568
11
1.50661
21
-11.0512
0
LINE
8
BLACK
6
CONTINUOUS
10
1.50661
20
-11.0512
11
1.50098
21
-11.0455
0
LINE
8
BLACK
6
CONTINUOUS
10
1.50098
20
-11.0455
11
1.49536
21
-11.0343
0
LINE
8
BLACK
6
CONTINUOUS
10
1.49536
20
-11.0343
11
1.48974
21
-11.0118
0
LINE
8
BLACK
6
CONTINUOUS
10
1.48974
20
-11.0118
11
1.48974
21
-10.9837
0
LINE
8
BLACK
6
CONTINUOUS
10
1.48974
20
-10.9837
11
1.49536
21
-10.9612
0
LINE
8
BLACK
6
CONTINUOUS
10
1.49536
20
-10.9612
11
1.50098
21
-10.9499
0
LINE
8
BLACK
6
CONTINUOUS
10
1.50098
20
-10.9499
11
1.50661
21
-10.9443
0
LINE
8
BLACK
6
CONTINUOUS
10
1.50661
20
-10.9443
11
1.51786
21
-10.9387
0
LINE
8
BLACK
6
CONTINUOUS
10
1.63034
20
-10.9387
11
1.64159
21
-10.9387
0
LINE
8
BLACK
6
CONTINUOUS
10
1.64159
20
-10.9387
11
1.65284
21
-10.9443
0
LINE
8
BLACK
6
CONTINUOUS
10
1.65284
20
-10.9443
11
1.65846
21
-10.9499
0
LINE
8
BLACK
6
CONTINUOUS
10
1.65846
20
-10.9499
11
1.66409
21
-10.9612
0
LINE
8
BLACK
6
CONTINUOUS
10
1.66409
20
-10.9612
11
1.66971
21
-10.9837
0
LINE
8
BLACK
6
CONTINUOUS
10
1.66971
20
-10.9837
11
1.66971
21
-11.0118
0
LINE
8
BLACK
6
CONTINUOUS
10
1.66971
20
-11.0118
11
1.66409
21
-11.0343
0
LINE
8
BLACK
6
CONTINUOUS
10
1.66409
20
-11.0343
11
1.65846
21
-11.0455
0
LINE
8
BLACK
6
CONTINUOUS
10
1.65846
20
-11.0455
11
1.65284
21
-11.0512
0
LINE
8
BLACK
6
CONTINUOUS
10
1.65284
20
-11.0512
11
1.64159
21
-11.0568
0
LINE
8
BLACK
6
CONTINUOUS
10
1.64159
20
-11.0568
11
1.63034
21
-11.0568
0
LINE
8
BLACK
6
CONTINUOUS
10
1.63034
20
-11.0568
11
1.61909
21
-11.0512
0
LINE
8
BLACK
6
CONTINUOUS
10
1.61909
20
-11.0512
11
1.61347
21
-11.0455
0
LINE
8
BLACK
6
CONTINUOUS
10
1.61347
20
-11.0455
11
1.60785
21
-11.0343
0
LINE
8
BLACK
6
CONTINUOUS
10
1.60785
20
-11.0343
11
1.60222
21
-11.0118
0
LINE
8
BLACK
6
CONTINUOUS
10
1.60222
20
-11.0118
11
1.60222
21
-10.9837
0
LINE
8
BLACK
6
CONTINUOUS
10
1.60222
20
-10.9837
11
1.60785
21
-10.9612
0
LINE
8
BLACK
6
CONTINUOUS
10
1.60785
20
-10.9612
11
1.61347
21
-10.9499
0
LINE
8
BLACK
6
CONTINUOUS
10
1.61347
20
-10.9499
11
1.61909
21
-10.9443
0
LINE
8
BLACK
6
CONTINUOUS
10
1.61909
20
-10.9443
11
1.63034
21
-10.9387
0
LINE
8
BLACK
6
CONTINUOUS
10
1.72033
20
-11.0568
11
1.72033
21
-10.978
0
LINE
8
BLACK
6
CONTINUOUS
10
1.72033
20
-10.9893
11
1.72596
21
-10.9837
0
LINE
8
BLACK
6
CONTINUOUS
10
1.72596
20
-10.9837
11
1.7372
21
-10.978
0
LINE
8
BLACK
6
CONTINUOUS
10
1.7372
20
-10.978
11
1.75408
21
-10.978
0
LINE
8
BLACK
6
CONTINUOUS
10
1.75408
20
-10.978
11
1.76533
21
-10.9837
0
LINE
8
BLACK
6
CONTINUOUS
10
1.76533
20
-10.9837
11
1.77095
21
-10.9949
0
LINE
8
BLACK
6
CONTINUOUS
10
1.77095
20
-10.9949
11
1.77095
21
-11.0568
0
LINE
8
BLACK
6
CONTINUOUS
10
1.77095
20
-10.9949
11
1.77657
21
-10.9837
0
LINE
8
BLACK
6
CONTINUOUS
10
1.77657
20
-10.9837
11
1.78782
21
-10.978
0
LINE
8
BLACK
6
CONTINUOUS
10
1.78782
20
-10.978
11
1.8047
21
-10.978
0
LINE
8
BLACK
6
CONTINUOUS
10
1.8047
20
-10.978
11
1.81594
21
-10.9837
0
LINE
8
BLACK
6
CONTINUOUS
10
1.81594
20
-10.9837
11
1.82157
21
-10.9949
0
LINE
8
BLACK
6
CONTINUOUS
10
1.82157
20
-10.9949
11
1.82157
21
-11.0568
0
LINE
8
BLACK
6
CONTINUOUS
10
1.87781
20
-11.0568
11
1.87781
21
-10.978
0
LINE
8
BLACK
6
CONTINUOUS
10
1.87781
20
-10.9893
11
1.88344
21
-10.9837
0
LINE
8
BLACK
6
CONTINUOUS
10
1.88344
20
-10.9837
11
1.89468
21
-10.978
0
LINE
8
BLACK
6
CONTINUOUS
10
1.89468
20
-10.978
11
1.91156
21
-10.978
0
LINE
8
BLACK
6
CONTINUOUS
10
1.91156
20
-10.978
11
1.92281
21
-10.9837
0
LINE
8
BLACK
6
CONTINUOUS
10
1.92281
20
-10.9837
11
1.92843
21
-10.9949
0
LINE
8
BLACK
6
CONTINUOUS
10
1.92843
20
-10.9949
11
1.92843
21
-11.0568
0
LINE
8
BLACK
6
CONTINUOUS
10
1.92843
20
-10.9949
11
1.93406
21
-10.9837
0
LINE
8
BLACK
6
CONTINUOUS
10
1.93406
20
-10.9837
11
1.9453
21
-10.978
0
LINE
8
BLACK
6
CONTINUOUS
10
1.9453
20
-10.978
11
1.96218
21
-10.978
0
LINE
8
BLACK
6
CONTINUOUS
10
1.96218
20
-10.978
11
1.97343
21
-10.9837
0
LINE
8
BLACK
6
CONTINUOUS
10
1.97343
20
-10.9837
11
1.97905
21
-10.9949
0
LINE
8
BLACK
6
CONTINUOUS
10
1.97905
20
-10.9949
11
1.97905
21
-11.0568
0
LINE
8
BLACK
6
CONTINUOUS
10
2.20965
20
-10.933
11
2.10841
21
-11.0849
0
LINE
8
BLACK
6
CONTINUOUS
10
2.3615
20
-10.9387
11
2.37275
21
-10.9387
0
LINE
8
BLACK
6
CONTINUOUS
10
2.37275
20
-10.9387
11
2.384
21
-10.9443
0
LINE
8
BLACK
6
CONTINUOUS
10
2.384
20
-10.9443
11
2.38962
21
-10.9499
0
LINE
8
BLACK
6
CONTINUOUS
10
2.38962
20
-10.9499
11
2.39525
21
-10.9612
0
LINE
8
BLACK
6
CONTINUOUS
10
2.39525
20
-10.9612
11
2.40087
21
-10.9837
0
LINE
8
BLACK
6
CONTINUOUS
10
2.40087
20
-10.9837
11
2.40087
21
-11.0118
0
LINE
8
BLACK
6
CONTINUOUS
10
2.40087
20
-11.0118
11
2.39525
21
-11.0343
0
LINE
8
BLACK
6
CONTINUOUS
10
2.39525
20
-11.0343
11
2.38962
21
-11.0455
0
LINE
8
BLACK
6
CONTINUOUS
10
2.38962
20
-11.0455
11
2.384
21
-11.0512
0
LINE
8
BLACK
6
CONTINUOUS
10
2.384
20
-11.0512
11
2.37275
21
-11.0568
0
LINE
8
BLACK
6
CONTINUOUS
10
2.37275
20
-11.0568
11
2.3615
21
-11.0568
0
LINE
8
BLACK
6
CONTINUOUS
10
2.3615
20
-11.0568
11
2.35025
21
-11.0512
0
LINE
8
BLACK
6
CONTINUOUS
10
2.35025
20
-11.0512
11
2.34463
21
-11.0455
0
LINE
8
BLACK
6
CONTINUOUS
10
2.34463
20
-11.0455
11
2.339
21
-11.0343
0
LINE
8
BLACK
6
CONTINUOUS
10
2.339
20
-11.0343
11
2.33338
21
-11.0118
0
LINE
8
BLACK
6
CONTINUOUS
10
2.33338
20
-11.0118
11
2.33338
21
-10.9837
0
LINE
8
BLACK
6
CONTINUOUS
10
2.33338
20
-10.9837
11
2.339
21
-10.9612
0
LINE
8
BLACK
6
CONTINUOUS
10
2.339
20
-10.9612
11
2.34463
21
-10.9499
0
LINE
8
BLACK
6
CONTINUOUS
10
2.34463
20
-10.9499
11
2.35025
21
-10.9443
0
LINE
8
BLACK
6
CONTINUOUS
10
2.35025
20
-10.9443
11
2.3615
21
-10.9387
0
LINE
8
BLACK
6
CONTINUOUS
10
2.45149
20
-11.0455
11
2.45711
21
-11.0512
0
LINE
8
BLACK
6
CONTINUOUS
10
2.45711
20
-11.0512
11
2.45149
21
-11.0568
0
LINE
8
BLACK
6
CONTINUOUS
10
2.45149
20
-11.0568
11
2.44587
21
-11.0512
0
LINE
8
BLACK
6
CONTINUOUS
10
2.44587
20
-11.0512
11
2.45149
21
-11.0455
0
LINE
8
BLACK
6
CONTINUOUS
10
2.45149
20
-11.0455
11
2.45149
21
-11.0568
0
LINE
8
BLACK
6
CONTINUOUS
10
2.5696
20
-11.0568
11
2.50211
21
-11.0568
0
LINE
8
BLACK
6
CONTINUOUS
10
2.53585
20
-11.0568
11
2.53585
21
-10.9387
0
LINE
8
BLACK
6
CONTINUOUS
10
2.53585
20
-10.9387
11
2.52461
21
-10.9555
0
LINE
8
BLACK
6
CONTINUOUS
10
2.52461
20
-10.9555
11
2.51336
21
-10.9668
0
LINE
8
BLACK
6
CONTINUOUS
10
2.51336
20
-10.9668
11
2.50211
21
-10.9724
0
LINE
8
BLACK
6
CONTINUOUS
10
2.6146
20
-10.9499
11
2.62022
21
-10.9443
0
LINE
8
BLACK
6
CONTINUOUS
10
2.62022
20
-10.9443
11
2.63147
21
-10.9387
0
LINE
8
BLACK
6
CONTINUOUS
10
2.63147
20
-10.9387
11
2.65959
21
-10.9387
0
LINE
8
BLACK
6
CONTINUOUS
10
2.65959
20
-10.9387
11
2.67084
21
-10.9443
0
LINE
8
BLACK
6
CONTINUOUS
10
2.67084
20
-10.9443
11
2.67646
21
-10.9499
0
LINE
8
BLACK
6
CONTINUOUS
10
2.67646
20
-10.9499
11
2.68209
21
-10.9612
0
LINE
8
BLACK
6
CONTINUOUS
10
2.68209
20
-10.9612
11
2.68209
21
-10.9724
0
LINE
8
BLACK
6
CONTINUOUS
10
2.68209
20
-10.9724
11
2.67646
21
-10.9893
0
LINE
8
BLACK
6
CONTINUOUS
10
2.67646
20
-10.9893
11
2.60897
21
-11.0568
0
LINE
8
BLACK
6
CONTINUOUS
10
2.60897
20
-11.0568
11
2.68209
21
-11.0568
0
LINE
8
BLACK
6
CONTINUOUS
10
2.78332
20
-10.9387
11
2.76083
21
-10.9387
0
LINE
8
BLACK
6
CONTINUOUS
10
2.76083
20
-10.9387
11
2.74958
21
-10.9443
0
LINE
8
BLACK
6
CONTINUOUS
10
2.74958
20
-10.9443
11
2.74395
21
-10.9499
0
LINE
8
BLACK
6
CONTINUOUS
10
2.74395
20
-10.9499
11
2.73271
21
-10.9668
0
LINE
8
BLACK
6
CONTINUOUS
10
2.73271
20
-10.9668
11
2.72708
21
-10.9893
0
LINE
8
BLACK
6
CONTINUOUS
10
2.72708
20
-10.9893
11
2.72708
21
-11.0343
0
LINE
8
BLACK
6
CONTINUOUS
10
2.72708
20
-11.0343
11
2.73271
21
-11.0455
0
LINE
8
BLACK
6
CONTINUOUS
10
2.73271
20
-11.0455
11
2.73833
21
-11.0512
0
LINE
8
BLACK
6
CONTINUOUS
10
2.73833
20
-11.0512
11
2.74958
21
-11.0568
0
LINE
8
BLACK
6
CONTINUOUS
10
2.74958
20
-11.0568
11
2.77208
21
-11.0568
0
LINE
8
BLACK
6
CONTINUOUS
10
2.77208
20
-11.0568
11
2.78332
21
-11.0512
0
LINE
8
BLACK
6
CONTINUOUS
10
2.78332
20
-11.0512
11
2.78895
21
-11.0455
0
LINE
8
BLACK
6
CONTINUOUS
10
2.78895
20
-11.0455
11
2.79457
21
-11.0343
0
LINE
8
BLACK
6
CONTINUOUS
10
2.79457
20
-11.0343
11
2.79457
21
-11.0062
0
LINE
8
BLACK
6
CONTINUOUS
10
2.79457
20
-11.0062
11
2.78895
21
-10.9949
0
LINE
8
BLACK
6
CONTINUOUS
10
2.78895
20
-10.9949
11
2.78332
21
-10.9893
0
LINE
8
BLACK
6
CONTINUOUS
10
2.78332
20
-10.9893
11
2.77208
21
-10.9837
0
LINE
8
BLACK
6
CONTINUOUS
10
2.77208
20
-10.9837
11
2.74958
21
-10.9837
0
LINE
8
BLACK
6
CONTINUOUS
10
2.74958
20
-10.9837
11
2.73833
21
-10.9893
0
LINE
8
BLACK
6
CONTINUOUS
10
2.73833
20
-10.9893
11
2.73271
21
-10.9949
0
LINE
8
BLACK
6
CONTINUOUS
10
2.73271
20
-10.9949
11
2.72708
21
-11.0062
0
LINE
8
BLACK
6
CONTINUOUS
10
2.86769
20
-10.9387
11
2.87894
21
-10.9387
0
LINE
8
BLACK
6
CONTINUOUS
10
2.87894
20
-10.9387
11
2.89019
21
-10.9443
0
LINE
8
BLACK
6
CONTINUOUS
10
2.89019
20
-10.9443
11
2.89581
21
-10.9499
0
LINE
8
BLACK
6
CONTINUOUS
10
2.89581
20
-10.9499
11
2.90143
21
-10.9612
0
LINE
8
BLACK
6
CONTINUOUS
10
2.90143
20
-10.9612
11
2.90706
21
-10.9837
0
LINE
8
BLACK
6
CONTINUOUS
10
2.90706
20
-10.9837
11
2.90706
21
-11.0118
0
LINE
8
BLACK
6
CONTINUOUS
10
2.90706
20
-11.0118
11
2.90143
21
-11.0343
0
LINE
8
BLACK
6
CONTINUOUS
10
2.90143
20
-11.0343
11
2.89581
21
-11.0455
0
LINE
8
BLACK
6
CONTINUOUS
10
2.89581
20
-11.0455
11
2.89019
21
-11.0512
0
LINE
8
BLACK
6
CONTINUOUS
10
2.89019
20
-11.0512
11
2.87894
21
-11.0568
0
LINE
8
BLACK
6
CONTINUOUS
10
2.87894
20
-11.0568
11
2.86769
21
-11.0568
0
LINE
8
BLACK
6
CONTINUOUS
10
2.86769
20
-11.0568
11
2.85644
21
-11.0512
0
LINE
8
BLACK
6
CONTINUOUS
10
2.85644
20
-11.0512
11
2.85082
21
-11.0455
0
LINE
8
BLACK
6
CONTINUOUS
10
2.85082
20
-11.0455
11
2.84519
21
-11.0343
0
LINE
8
BLACK
6
CONTINUOUS
10
2.84519
20
-11.0343
11
2.83957
21
-11.0118
0
LINE
8
BLACK
6
CONTINUOUS
10
2.83957
20
-11.0118
11
2.83957
21
-10.9837
0
LINE
8
BLACK
6
CONTINUOUS
10
2.83957
20
-10.9837
11
2.84519
21
-10.9612
0
LINE
8
BLACK
6
CONTINUOUS
10
2.84519
20
-10.9612
11
2.85082
21
-10.9499
0
LINE
8
BLACK
6
CONTINUOUS
10
2.85082
20
-10.9499
11
2.85644
21
-10.9443
0
LINE
8
BLACK
6
CONTINUOUS
10
2.85644
20
-10.9443
11
2.86769
21
-10.9387
0
LINE
8
BLACK
6
CONTINUOUS
10
2.95205
20
-10.9387
11
2.95205
21
-10.9612
0
LINE
8
BLACK
6
CONTINUOUS
10
2.99705
20
-10.9387
11
2.99705
21
-10.9612
0
LINE
8
BLACK
6
CONTINUOUS
10
3.1714
20
-11.1018
11
3.16578
21
-11.0961
0
LINE
8
BLACK
6
CONTINUOUS
10
3.16578
20
-11.0961
11
3.15453
21
-11.0793
0
LINE
8
BLACK
6
CONTINUOUS
10
3.15453
20
-11.0793
11
3.1489
21
-11.068
0
LINE
8
BLACK
6
CONTINUOUS
10
3.1489
20
-11.068
11
3.14328
21
-11.0512
0
LINE
8
BLACK
6
CONTINUOUS
10
3.14328
20
-11.0512
11
3.13765
21
-11.023
0
LINE
8
BLACK
6
CONTINUOUS
10
3.13765
20
-11.023
11
3.13765
21
-11.0005
0
LINE
8
BLACK
6
CONTINUOUS
10
3.13765
20
-11.0005
11
3.14328
21
-10.9724
0
LINE
8
BLACK
6
CONTINUOUS
10
3.14328
20
-10.9724
11
3.1489
21
-10.9555
0
LINE
8
BLACK
6
CONTINUOUS
10
3.1489
20
-10.9555
11
3.15453
21
-10.9443
0
LINE
8
BLACK
6
CONTINUOUS
10
3.15453
20
-10.9443
11
3.16578
21
-10.9274
0
LINE
8
BLACK
6
CONTINUOUS
10
3.16578
20
-10.9274
11
3.1714
21
-10.9218
0
LINE
8
BLACK
6
CONTINUOUS
10
3.26701
20
-10.978
11
3.26701
21
-11.0568
0
LINE
8
BLACK
6
CONTINUOUS
10
3.23889
20
-10.933
11
3.21077
21
-11.0174
0
LINE
8
BLACK
6
CONTINUOUS
10
3.21077
20
-11.0174
11
3.28389
21
-11.0174
0
LINE
8
BLACK
6
CONTINUOUS
10
3.41887
20
-11.0568
11
3.41887
21
-10.9387
0
LINE
8
BLACK
6
CONTINUOUS
10
3.46949
20
-11.0568
11
3.46949
21
-10.9949
0
LINE
8
BLACK
6
CONTINUOUS
10
3.46949
20
-10.9949
11
3.46386
21
-10.9837
0
LINE
8
BLACK
6
CONTINUOUS
10
3.46386
20
-10.9837
11
3.45262
21
-10.978
0
LINE
8
BLACK
6
CONTINUOUS
10
3.45262
20
-10.978
11
3.43574
21
-10.978
0
LINE
8
BLACK
6
CONTINUOUS
10
3.43574
20
-10.978
11
3.42449
21
-10.9837
0
LINE
8
BLACK
6
CONTINUOUS
10
3.42449
20
-10.9837
11
3.41887
21
-10.9893
0
LINE
8
BLACK
6
CONTINUOUS
10
3.5426
20
-11.0568
11
3.53136
21
-11.0512
0
LINE
8
BLACK
6
CONTINUOUS
10
3.53136
20
-11.0512
11
3.52573
21
-11.0455
0
LINE
8
BLACK
6
CONTINUOUS
10
3.52573
20
-11.0455
11
3.52011
21
-11.0343
0
LINE
8
BLACK
6
CONTINUOUS
10
3.52011
20
-11.0343
11
3.52011
21
-11.0005
0
LINE
8
BLACK
6
CONTINUOUS
10
3.52011
20
-11.0005
11
3.52573
21
-10.9893
0
LINE
8
BLACK
6
CONTINUOUS
10
3.52573
20
-10.9893
11
3.53136
21
-10.9837
0
LINE
8
BLACK
6
CONTINUOUS
10
3.53136
20
-10.9837
11
3.5426
21
-10.978
0
LINE
8
BLACK
6
CONTINUOUS
10
3.5426
20
-10.978
11
3.55948
21
-10.978
0
LINE
8
BLACK
6
CONTINUOUS
10
3.55948
20
-10.978
11
3.57073
21
-10.9837
0
LINE
8
BLACK
6
CONTINUOUS
10
3.57073
20
-10.9837
11
3.57635
21
-10.9893
0
LINE
8
BLACK
6
CONTINUOUS
10
3.57635
20
-10.9893
11
3.58197
21
-11.0005
0
LINE
8
BLACK
6
CONTINUOUS
10
3.58197
20
-11.0005
11
3.58197
21
-11.0343
0
LINE
8
BLACK
6
CONTINUOUS
10
3.58197
20
-11.0343
11
3.57635
21
-11.0455
0
LINE
8
BLACK
6
CONTINUOUS
10
3.57635
20
-11.0455
11
3.57073
21
-11.0512
0
LINE
8
BLACK
6
CONTINUOUS
10
3.57073
20
-11.0512
11
3.55948
21
-11.0568
0
LINE
8
BLACK
6
CONTINUOUS
10
3.55948
20
-11.0568
11
3.5426
21
-11.0568
0
LINE
8
BLACK
6
CONTINUOUS
10
3.64947
20
-11.0568
11
3.63822
21
-11.0512
0
LINE
8
BLACK
6
CONTINUOUS
10
3.63822
20
-11.0512
11
3.63259
21
-11.0399
0
LINE
8
BLACK
6
CONTINUOUS
10
3.63259
20
-11.0399
11
3.63259
21
-10.9387
0
LINE
8
BLACK
6
CONTINUOUS
10
3.73945
20
-11.0512
11
3.72821
21
-11.0568
0
LINE
8
BLACK
6
CONTINUOUS
10
3.72821
20
-11.0568
11
3.70571
21
-11.0568
0
LINE
8
BLACK
6
CONTINUOUS
10
3.70571
20
-11.0568
11
3.69446
21
-11.0512
0
LINE
8
BLACK
6
CONTINUOUS
10
3.69446
20
-11.0512
11
3.68884
21
-11.0399
0
LINE
8
BLACK
6
CONTINUOUS
10
3.68884
20
-11.0399
11
3.68884
21
-10.9949
0
LINE
8
BLACK
6
CONTINUOUS
10
3.68884
20
-10.9949
11
3.69446
21
-10.9837
0
LINE
8
BLACK
6
CONTINUOUS
10
3.69446
20
-10.9837
11
3.70571
21
-10.978
0
LINE
8
BLACK
6
CONTINUOUS
10
3.70571
20
-10.978
11
3.72821
21
-10.978
0
LINE
8
BLACK
6
CONTINUOUS
10
3.72821
20
-10.978
11
3.73945
21
-10.9837
0
LINE
8
BLACK
6
CONTINUOUS
10
3.73945
20
-10.9837
11
3.74508
21
-10.9949
0
LINE
8
BLACK
6
CONTINUOUS
10
3.74508
20
-10.9949
11
3.74508
21
-11.0062
0
LINE
8
BLACK
6
CONTINUOUS
10
3.74508
20
-11.0062
11
3.68884
21
-11.0174
0
LINE
8
BLACK
6
CONTINUOUS
10
3.79007
20
-11.0512
11
3.80132
21
-11.0568
0
LINE
8
BLACK
6
CONTINUOUS
10
3.80132
20
-11.0568
11
3.82382
21
-11.0568
0
LINE
8
BLACK
6
CONTINUOUS
10
3.82382
20
-11.0568
11
3.83507
21
-11.0512
0
LINE
8
BLACK
6
CONTINUOUS
10
3.83507
20
-11.0512
11
3.84069
21
-11.0399
0
LINE
8
BLACK
6
CONTINUOUS
10
3.84069
20
-11.0399
11
3.84069
21
-11.0343
0
LINE
8
BLACK
6
CONTINUOUS
10
3.84069
20
-11.0343
11
3.83507
21
-11.023
0
LINE
8
BLACK
6
CONTINUOUS
10
3.83507
20
-11.023
11
3.82382
21
-11.0174
0
LINE
8
BLACK
6
CONTINUOUS
10
3.82382
20
-11.0174
11
3.80695
21
-11.0174
0
LINE
8
BLACK
6
CONTINUOUS
10
3.80695
20
-11.0174
11
3.7957
21
-11.0118
0
LINE
8
BLACK
6
CONTINUOUS
10
3.7957
20
-11.0118
11
3.79007
21
-11.0005
0
LINE
8
BLACK
6
CONTINUOUS
10
3.79007
20
-11.0005
11
3.79007
21
-10.9949
0
LINE
8
BLACK
6
CONTINUOUS
10
3.79007
20
-10.9949
11
3.7957
21
-10.9837
0
LINE
8
BLACK
6
CONTINUOUS
10
3.7957
20
-10.9837
11
3.80695
21
-10.978
0
LINE
8
BLACK
6
CONTINUOUS
10
3.80695
20
-10.978
11
3.82382
21
-10.978
0
LINE
8
BLACK
6
CONTINUOUS
10
3.82382
20
-10.978
11
3.83507
21
-10.9837
0
LINE
8
BLACK
6
CONTINUOUS
10
3.88006
20
-11.1018
11
3.88569
21
-11.0961
0
LINE
8
BLACK
6
CONTINUOUS
10
3.88569
20
-11.0961
11
3.89693
21
-11.0793
0
LINE
8
BLACK
6
CONTINUOUS
10
3.89693
20
-11.0793
11
3.90256
21
-11.068
0
LINE
8
BLACK
6
CONTINUOUS
10
3.90256
20
-11.068
11
3.90818
21
-11.0512
0
LINE
8
BLACK
6
CONTINUOUS
10
3.90818
20
-11.0512
11
3.91381
21
-11.023
0
LINE
8
BLACK
6
CONTINUOUS
10
3.91381
20
-11.023
11
3.91381
21
-11.0005
0
LINE
8
BLACK
6
CONTINUOUS
10
3.91381
20
-11.0005
11
3.90818
21
-10.9724
0
LINE
8
BLACK
6
CONTINUOUS
10
3.90818
20
-10.9724
11
3.90256
21
-10.9555
0
LINE
8
BLACK
6
CONTINUOUS
10
3.90256
20
-10.9555
11
3.89693
21
-10.9443
0
LINE
8
BLACK
6
CONTINUOUS
10
3.89693
20
-10.9443
11
3.88569
21
-10.9274
0
LINE
8
BLACK
6
CONTINUOUS
10
3.88569
20
-10.9274
11
3.88006
21
-10.9218
  0
ENDSEC
  0
EOF
