%TF.GenerationSoftware,KiCad,Pcbnew,(6.0.4-0)*%
%TF.CreationDate,2024-05-14T14:00:00+10:00*%
%TF.ProjectId,EXTENDER CARDS,45585445-4e44-4455-9220-43415244532e,rev?*%
%TF.SameCoordinates,Original*%
%TF.FileFunction,Soldermask,Top*%
%TF.FilePolarity,Negative*%
%FSLAX46Y46*%
G04 Gerber Fmt 4.6, Leading zero omitted, Abs format (unit mm)*
G04 Created by KiCad (PCBNEW (6.0.4-0)) date 2024-05-14 14:00:00*
%MOMM*%
%LPD*%
G01*
G04 APERTURE LIST*
%ADD10C,2.200000*%
%ADD11C,4.500000*%
%ADD12R,2.200000X2.200000*%
G04 APERTURE END LIST*
D10*
%TO.C,J2*%
X174250000Y-27780000D03*
X174250000Y-23820000D03*
D11*
X322400000Y-25800000D03*
X164700000Y-25800000D03*
D12*
X312850000Y-23820000D03*
D10*
X308890000Y-23820000D03*
X304930000Y-23820000D03*
X300970000Y-23820000D03*
X297010000Y-23820000D03*
X293050000Y-23820000D03*
X289090000Y-23820000D03*
X285130000Y-23820000D03*
X281170000Y-23820000D03*
X277210000Y-23820000D03*
X273250000Y-23820000D03*
X269290000Y-23820000D03*
X265330000Y-23820000D03*
X261370000Y-23820000D03*
X257410000Y-23820000D03*
X253450000Y-23820000D03*
X249490000Y-23820000D03*
X245530000Y-23820000D03*
X241570000Y-23820000D03*
X237610000Y-23820000D03*
X233650000Y-23820000D03*
X229690000Y-23820000D03*
X225730000Y-23820000D03*
X221770000Y-23820000D03*
X217810000Y-23820000D03*
X213850000Y-23820000D03*
X209890000Y-23820000D03*
X205930000Y-23820000D03*
X201970000Y-23820000D03*
X198010000Y-23820000D03*
X194050000Y-23820000D03*
X190090000Y-23820000D03*
X186130000Y-23820000D03*
X182170000Y-23820000D03*
X178210000Y-23820000D03*
X312850000Y-27780000D03*
X308890000Y-27780000D03*
X304930000Y-27780000D03*
X300970000Y-27780000D03*
X297010000Y-27780000D03*
X293050000Y-27780000D03*
X289090000Y-27780000D03*
X285130000Y-27780000D03*
X281170000Y-27780000D03*
X277210000Y-27780000D03*
X273250000Y-27780000D03*
X269290000Y-27780000D03*
X265330000Y-27780000D03*
X261370000Y-27780000D03*
X257410000Y-27780000D03*
X253450000Y-27780000D03*
X249490000Y-27780000D03*
X245530000Y-27780000D03*
X241570000Y-27780000D03*
X237610000Y-27780000D03*
X233650000Y-27780000D03*
X229690000Y-27780000D03*
X225730000Y-27780000D03*
X221770000Y-27780000D03*
X217810000Y-27780000D03*
X213850000Y-27780000D03*
X209890000Y-27780000D03*
X205930000Y-27780000D03*
X201970000Y-27780000D03*
X198010000Y-27780000D03*
X194050000Y-27780000D03*
X190090000Y-27780000D03*
X186130000Y-27780000D03*
X182170000Y-27780000D03*
X178210000Y-27780000D03*
%TD*%
D11*
%TO.C,J4*%
X154100000Y-25790000D03*
X67680000Y-25790000D03*
D12*
X144550000Y-23810000D03*
D10*
X140590000Y-23810000D03*
X136630000Y-23810000D03*
X132670000Y-23810000D03*
X128710000Y-23810000D03*
X124750000Y-23810000D03*
X120790000Y-23810000D03*
X116830000Y-23810000D03*
X112870000Y-23810000D03*
X108910000Y-23810000D03*
X104950000Y-23810000D03*
X100990000Y-23810000D03*
X97030000Y-23810000D03*
X93070000Y-23810000D03*
X89110000Y-23810000D03*
X85150000Y-23810000D03*
X81190000Y-23810000D03*
X77230000Y-23810000D03*
X144550000Y-27770000D03*
X140590000Y-27770000D03*
X136630000Y-27770000D03*
X132670000Y-27770000D03*
X128710000Y-27770000D03*
X124750000Y-27770000D03*
X120790000Y-27770000D03*
X116830000Y-27770000D03*
X112870000Y-27770000D03*
X108910000Y-27770000D03*
X104950000Y-27770000D03*
X100990000Y-27770000D03*
X97030000Y-27770000D03*
X93070000Y-27770000D03*
X89110000Y-27770000D03*
X85150000Y-27770000D03*
X81190000Y-27770000D03*
X77230000Y-27770000D03*
%TD*%
M02*
