%TF.GenerationSoftware,KiCad,Pcbnew,(6.0.4-0)*%
%TF.CreationDate,2024-05-14T14:00:00+10:00*%
%TF.ProjectId,EXTENDER CARDS,45585445-4e44-4455-9220-43415244532e,rev?*%
%TF.SameCoordinates,Original*%
%TF.FileFunction,Copper,L2,Bot*%
%TF.FilePolarity,Positive*%
%FSLAX46Y46*%
G04 Gerber Fmt 4.6, Leading zero omitted, Abs format (unit mm)*
G04 Created by KiCad (PCBNEW (6.0.4-0)) date 2024-05-14 14:00:00*
%MOMM*%
%LPD*%
G01*
G04 APERTURE LIST*
%TA.AperFunction,ConnectorPad*%
%ADD10R,2.540000X10.000000*%
%TD*%
%TA.AperFunction,ComponentPad*%
%ADD11C,2.200000*%
%TD*%
%TA.AperFunction,ComponentPad*%
%ADD12C,4.500000*%
%TD*%
%TA.AperFunction,ComponentPad*%
%ADD13R,2.200000X2.200000*%
%TD*%
%TA.AperFunction,Conductor*%
%ADD14C,2.000000*%
%TD*%
G04 APERTURE END LIST*
D10*
%TO.P,J3,16*%
%TO.N,Net-(J3-Pad16)*%
X85164000Y-212800000D03*
%TO.P,J3,15*%
%TO.N,Net-(J3-Pad15)*%
X89126400Y-212800000D03*
%TO.P,J3,14*%
%TO.N,Net-(J3-Pad14)*%
X93088800Y-212800000D03*
%TO.P,J3,13*%
%TO.N,Net-(J3-Pad13)*%
X97051200Y-212800000D03*
%TO.P,J3,12*%
%TO.N,Net-(J3-Pad12)*%
X101013600Y-212800000D03*
%TO.P,J3,11*%
%TO.N,Net-(J3-Pad11)*%
X104976000Y-212800000D03*
%TO.P,J3,10*%
%TO.N,Net-(J3-Pad10)*%
X108938400Y-212800000D03*
%TO.P,J3,9*%
%TO.N,Net-(J3-Pad9)*%
X112900800Y-212800000D03*
%TO.P,J3,8*%
%TO.N,Net-(J3-Pad8)*%
X116863200Y-212800000D03*
%TO.P,J3,7*%
%TO.N,Net-(J3-Pad7)*%
X120825600Y-212800000D03*
%TO.P,J3,6*%
%TO.N,Net-(J3-Pad6)*%
X124788000Y-212800000D03*
%TO.P,J3,5*%
%TO.N,Net-(J3-Pad5)*%
X128750400Y-212800000D03*
%TO.P,J3,4*%
%TO.N,Net-(J3-Pad4)*%
X132712800Y-212800000D03*
%TO.P,J3,3*%
%TO.N,Net-(J3-Pad3)*%
X136675200Y-212800000D03*
%TO.P,J3,2*%
%TO.N,Net-(J3-Pad2)*%
X140637600Y-212800000D03*
%TO.P,J3,1*%
%TO.N,Net-(J3-Pad1)*%
X144600000Y-212800000D03*
%TD*%
D11*
%TO.P,J2,A36*%
%TO.N,Net-(J1-Pad32)*%
X174250000Y-27780000D03*
%TO.P,J2,36*%
X174250000Y-23820000D03*
D12*
%TO.P,J2,H1*%
%TO.N,Net-(J2-PadH1)*%
X322400000Y-25800000D03*
%TO.P,J2,H2*%
%TO.N,Net-(J2-PadH2)*%
X164700000Y-25800000D03*
D13*
%TO.P,J2,1*%
%TO.N,Net-(J2-Pad1)*%
X312850000Y-23820000D03*
D11*
%TO.P,J2,2*%
%TO.N,Net-(J2-Pad2)*%
X308890000Y-23820000D03*
%TO.P,J2,3*%
%TO.N,Net-(J2-Pad3)*%
X304930000Y-23820000D03*
%TO.P,J2,4*%
%TO.N,Net-(J2-Pad4)*%
X300970000Y-23820000D03*
%TO.P,J2,5*%
%TO.N,Net-(J1-Pad1)*%
X297010000Y-23820000D03*
%TO.P,J2,6*%
%TO.N,Net-(J1-Pad2)*%
X293050000Y-23820000D03*
%TO.P,J2,7*%
%TO.N,Net-(J1-Pad3)*%
X289090000Y-23820000D03*
%TO.P,J2,8*%
%TO.N,Net-(J1-Pad4)*%
X285130000Y-23820000D03*
%TO.P,J2,9*%
%TO.N,Net-(J1-Pad5)*%
X281170000Y-23820000D03*
%TO.P,J2,10*%
%TO.N,Net-(J1-Pad6)*%
X277210000Y-23820000D03*
%TO.P,J2,11*%
%TO.N,Net-(J1-Pad7)*%
X273250000Y-23820000D03*
%TO.P,J2,12*%
%TO.N,Net-(J1-Pad8)*%
X269290000Y-23820000D03*
%TO.P,J2,13*%
%TO.N,Net-(J1-Pad9)*%
X265330000Y-23820000D03*
%TO.P,J2,14*%
%TO.N,Net-(J1-Pad10)*%
X261370000Y-23820000D03*
%TO.P,J2,15*%
%TO.N,Net-(J1-Pad11)*%
X257410000Y-23820000D03*
%TO.P,J2,16*%
%TO.N,Net-(J1-Pad12)*%
X253450000Y-23820000D03*
%TO.P,J2,17*%
%TO.N,Net-(J1-Pad13)*%
X249490000Y-23820000D03*
%TO.P,J2,18*%
%TO.N,Net-(J1-Pad14)*%
X245530000Y-23820000D03*
%TO.P,J2,19*%
%TO.N,Net-(J1-Pad15)*%
X241570000Y-23820000D03*
%TO.P,J2,20*%
%TO.N,Net-(J1-Pad16)*%
X237610000Y-23820000D03*
%TO.P,J2,21*%
%TO.N,Net-(J1-Pad17)*%
X233650000Y-23820000D03*
%TO.P,J2,22*%
%TO.N,Net-(J1-Pad18)*%
X229690000Y-23820000D03*
%TO.P,J2,23*%
%TO.N,Net-(J1-Pad19)*%
X225730000Y-23820000D03*
%TO.P,J2,24*%
%TO.N,Net-(J1-Pad20)*%
X221770000Y-23820000D03*
%TO.P,J2,25*%
%TO.N,Net-(J1-Pad21)*%
X217810000Y-23820000D03*
%TO.P,J2,26*%
%TO.N,Net-(J1-Pad22)*%
X213850000Y-23820000D03*
%TO.P,J2,27*%
%TO.N,Net-(J1-Pad23)*%
X209890000Y-23820000D03*
%TO.P,J2,28*%
%TO.N,Net-(J1-Pad24)*%
X205930000Y-23820000D03*
%TO.P,J2,29*%
%TO.N,Net-(J1-Pad25)*%
X201970000Y-23820000D03*
%TO.P,J2,30*%
%TO.N,Net-(J1-Pad26)*%
X198010000Y-23820000D03*
%TO.P,J2,31*%
%TO.N,Net-(J1-Pad27)*%
X194050000Y-23820000D03*
%TO.P,J2,32*%
%TO.N,Net-(J1-Pad28)*%
X190090000Y-23820000D03*
%TO.P,J2,33*%
%TO.N,Net-(J1-Pad29)*%
X186130000Y-23820000D03*
%TO.P,J2,34*%
%TO.N,Net-(J1-Pad30)*%
X182170000Y-23820000D03*
%TO.P,J2,35*%
%TO.N,Net-(J1-Pad31)*%
X178210000Y-23820000D03*
%TO.P,J2,A1*%
%TO.N,Net-(J2-PadA1)*%
X312850000Y-27780000D03*
%TO.P,J2,A2*%
%TO.N,Net-(J2-PadA2)*%
X308890000Y-27780000D03*
%TO.P,J2,A3*%
%TO.N,Net-(J2-PadA3)*%
X304930000Y-27780000D03*
%TO.P,J2,A4*%
%TO.N,Net-(J2-PadA4)*%
X300970000Y-27780000D03*
%TO.P,J2,A5*%
%TO.N,Net-(J1-Pad1)*%
X297010000Y-27780000D03*
%TO.P,J2,A6*%
%TO.N,Net-(J1-Pad2)*%
X293050000Y-27780000D03*
%TO.P,J2,A7*%
%TO.N,Net-(J1-Pad3)*%
X289090000Y-27780000D03*
%TO.P,J2,A8*%
%TO.N,Net-(J1-Pad4)*%
X285130000Y-27780000D03*
%TO.P,J2,A9*%
%TO.N,Net-(J1-Pad5)*%
X281170000Y-27780000D03*
%TO.P,J2,A10*%
%TO.N,Net-(J1-Pad6)*%
X277210000Y-27780000D03*
%TO.P,J2,A11*%
%TO.N,Net-(J1-Pad7)*%
X273250000Y-27780000D03*
%TO.P,J2,A12*%
%TO.N,Net-(J1-Pad8)*%
X269290000Y-27780000D03*
%TO.P,J2,A13*%
%TO.N,Net-(J1-Pad9)*%
X265330000Y-27780000D03*
%TO.P,J2,A14*%
%TO.N,Net-(J1-Pad10)*%
X261370000Y-27780000D03*
%TO.P,J2,A15*%
%TO.N,Net-(J1-Pad11)*%
X257410000Y-27780000D03*
%TO.P,J2,A16*%
%TO.N,Net-(J1-Pad12)*%
X253450000Y-27780000D03*
%TO.P,J2,A17*%
%TO.N,Net-(J1-Pad13)*%
X249490000Y-27780000D03*
%TO.P,J2,A18*%
%TO.N,Net-(J1-Pad14)*%
X245530000Y-27780000D03*
%TO.P,J2,A19*%
%TO.N,Net-(J1-Pad15)*%
X241570000Y-27780000D03*
%TO.P,J2,A20*%
%TO.N,Net-(J1-Pad16)*%
X237610000Y-27780000D03*
%TO.P,J2,A21*%
%TO.N,Net-(J1-Pad17)*%
X233650000Y-27780000D03*
%TO.P,J2,A22*%
%TO.N,Net-(J1-Pad18)*%
X229690000Y-27780000D03*
%TO.P,J2,A23*%
%TO.N,Net-(J1-Pad19)*%
X225730000Y-27780000D03*
%TO.P,J2,A24*%
%TO.N,Net-(J1-Pad20)*%
X221770000Y-27780000D03*
%TO.P,J2,A25*%
%TO.N,Net-(J1-Pad21)*%
X217810000Y-27780000D03*
%TO.P,J2,A26*%
%TO.N,Net-(J1-Pad22)*%
X213850000Y-27780000D03*
%TO.P,J2,A27*%
%TO.N,Net-(J1-Pad23)*%
X209890000Y-27780000D03*
%TO.P,J2,A28*%
%TO.N,Net-(J1-Pad24)*%
X205930000Y-27780000D03*
%TO.P,J2,A29*%
%TO.N,Net-(J1-Pad25)*%
X201970000Y-27780000D03*
%TO.P,J2,A30*%
%TO.N,Net-(J1-Pad26)*%
X198010000Y-27780000D03*
%TO.P,J2,A31*%
%TO.N,Net-(J1-Pad27)*%
X194050000Y-27780000D03*
%TO.P,J2,A32*%
%TO.N,Net-(J1-Pad28)*%
X190090000Y-27780000D03*
%TO.P,J2,A33*%
%TO.N,Net-(J1-Pad29)*%
X186130000Y-27780000D03*
%TO.P,J2,A34*%
%TO.N,Net-(J1-Pad30)*%
X182170000Y-27780000D03*
%TO.P,J2,A35*%
%TO.N,Net-(J1-Pad31)*%
X178210000Y-27780000D03*
%TD*%
D12*
%TO.P,J4,H1*%
%TO.N,Net-(J4-PadH1)*%
X154100000Y-25790000D03*
%TO.P,J4,H2*%
%TO.N,Net-(J4-PadH2)*%
X67680000Y-25790000D03*
D13*
%TO.P,J4,1*%
%TO.N,Net-(J3-Pad1)*%
X144550000Y-23810000D03*
D11*
%TO.P,J4,2*%
%TO.N,Net-(J3-Pad2)*%
X140590000Y-23810000D03*
%TO.P,J4,3*%
%TO.N,Net-(J3-Pad3)*%
X136630000Y-23810000D03*
%TO.P,J4,4*%
%TO.N,Net-(J3-Pad4)*%
X132670000Y-23810000D03*
%TO.P,J4,5*%
%TO.N,Net-(J3-Pad5)*%
X128710000Y-23810000D03*
%TO.P,J4,6*%
%TO.N,Net-(J3-Pad6)*%
X124750000Y-23810000D03*
%TO.P,J4,7*%
%TO.N,Net-(J3-Pad7)*%
X120790000Y-23810000D03*
%TO.P,J4,8*%
%TO.N,Net-(J3-Pad8)*%
X116830000Y-23810000D03*
%TO.P,J4,9*%
%TO.N,Net-(J3-Pad9)*%
X112870000Y-23810000D03*
%TO.P,J4,10*%
%TO.N,Net-(J3-Pad10)*%
X108910000Y-23810000D03*
%TO.P,J4,11*%
%TO.N,Net-(J3-Pad11)*%
X104950000Y-23810000D03*
%TO.P,J4,12*%
%TO.N,Net-(J3-Pad12)*%
X100990000Y-23810000D03*
%TO.P,J4,13*%
%TO.N,Net-(J3-Pad13)*%
X97030000Y-23810000D03*
%TO.P,J4,14*%
%TO.N,Net-(J3-Pad14)*%
X93070000Y-23810000D03*
%TO.P,J4,15*%
%TO.N,Net-(J3-Pad15)*%
X89110000Y-23810000D03*
%TO.P,J4,16*%
%TO.N,Net-(J3-Pad16)*%
X85150000Y-23810000D03*
%TO.P,J4,17*%
%TO.N,Net-(J4-Pad17)*%
X81190000Y-23810000D03*
%TO.P,J4,18*%
%TO.N,Net-(J4-Pad18)*%
X77230000Y-23810000D03*
%TO.P,J4,A*%
%TO.N,Net-(J3-Pad1)*%
X144550000Y-27770000D03*
%TO.P,J4,B*%
%TO.N,Net-(J3-Pad2)*%
X140590000Y-27770000D03*
%TO.P,J4,C*%
%TO.N,Net-(J3-Pad3)*%
X136630000Y-27770000D03*
%TO.P,J4,D*%
%TO.N,Net-(J3-Pad4)*%
X132670000Y-27770000D03*
%TO.P,J4,E*%
%TO.N,Net-(J3-Pad5)*%
X128710000Y-27770000D03*
%TO.P,J4,F*%
%TO.N,Net-(J3-Pad6)*%
X124750000Y-27770000D03*
%TO.P,J4,G*%
%TO.N,Net-(J3-Pad7)*%
X120790000Y-27770000D03*
%TO.P,J4,H*%
%TO.N,Net-(J3-Pad8)*%
X116830000Y-27770000D03*
%TO.P,J4,J*%
%TO.N,Net-(J3-Pad9)*%
X112870000Y-27770000D03*
%TO.P,J4,K*%
%TO.N,Net-(J3-Pad10)*%
X108910000Y-27770000D03*
%TO.P,J4,L*%
%TO.N,Net-(J3-Pad11)*%
X104950000Y-27770000D03*
%TO.P,J4,M*%
%TO.N,Net-(J3-Pad12)*%
X100990000Y-27770000D03*
%TO.P,J4,N*%
%TO.N,Net-(J3-Pad13)*%
X97030000Y-27770000D03*
%TO.P,J4,P*%
%TO.N,Net-(J3-Pad14)*%
X93070000Y-27770000D03*
%TO.P,J4,Q*%
%TO.N,Net-(J3-Pad15)*%
X89110000Y-27770000D03*
%TO.P,J4,R*%
%TO.N,Net-(J3-Pad16)*%
X85150000Y-27770000D03*
%TO.P,J4,S*%
%TO.N,Net-(J4-Pad17)*%
X81190000Y-27770000D03*
%TO.P,J4,T*%
%TO.N,Net-(J4-Pad18)*%
X77230000Y-27770000D03*
%TD*%
D10*
%TO.P,J1,31*%
%TO.N,Net-(J1-Pad31)*%
X178262400Y-212700000D03*
%TO.P,J1,32*%
%TO.N,Net-(J1-Pad32)*%
X174300000Y-212700000D03*
%TO.P,J1,20*%
%TO.N,Net-(J1-Pad20)*%
X221848800Y-212700000D03*
%TO.P,J1,21*%
%TO.N,Net-(J1-Pad21)*%
X217886400Y-212700000D03*
%TO.P,J1,22*%
%TO.N,Net-(J1-Pad22)*%
X213924000Y-212700000D03*
%TO.P,J1,23*%
%TO.N,Net-(J1-Pad23)*%
X209961600Y-212700000D03*
%TO.P,J1,24*%
%TO.N,Net-(J1-Pad24)*%
X205999200Y-212700000D03*
%TO.P,J1,25*%
%TO.N,Net-(J1-Pad25)*%
X202036800Y-212700000D03*
%TO.P,J1,26*%
%TO.N,Net-(J1-Pad26)*%
X198074400Y-212700000D03*
%TO.P,J1,27*%
%TO.N,Net-(J1-Pad27)*%
X194112000Y-212700000D03*
%TO.P,J1,28*%
%TO.N,Net-(J1-Pad28)*%
X190149600Y-212700000D03*
%TO.P,J1,29*%
%TO.N,Net-(J1-Pad29)*%
X186187200Y-212700000D03*
%TO.P,J1,30*%
%TO.N,Net-(J1-Pad30)*%
X182224800Y-212700000D03*
%TO.P,J1,19*%
%TO.N,Net-(J1-Pad19)*%
X225811200Y-212700000D03*
%TO.P,J1,18*%
%TO.N,Net-(J1-Pad18)*%
X229773600Y-212700000D03*
%TO.P,J1,17*%
%TO.N,Net-(J1-Pad17)*%
X233736000Y-212700000D03*
%TO.P,J1,16*%
%TO.N,Net-(J1-Pad16)*%
X237698400Y-212700000D03*
%TO.P,J1,15*%
%TO.N,Net-(J1-Pad15)*%
X241660800Y-212700000D03*
%TO.P,J1,14*%
%TO.N,Net-(J1-Pad14)*%
X245623200Y-212700000D03*
%TO.P,J1,13*%
%TO.N,Net-(J1-Pad13)*%
X249585600Y-212700000D03*
%TO.P,J1,12*%
%TO.N,Net-(J1-Pad12)*%
X253548000Y-212700000D03*
%TO.P,J1,11*%
%TO.N,Net-(J1-Pad11)*%
X257510400Y-212700000D03*
%TO.P,J1,10*%
%TO.N,Net-(J1-Pad10)*%
X261472800Y-212700000D03*
%TO.P,J1,9*%
%TO.N,Net-(J1-Pad9)*%
X265435200Y-212700000D03*
%TO.P,J1,8*%
%TO.N,Net-(J1-Pad8)*%
X269397600Y-212700000D03*
%TO.P,J1,7*%
%TO.N,Net-(J1-Pad7)*%
X273360000Y-212700000D03*
%TO.P,J1,6*%
%TO.N,Net-(J1-Pad6)*%
X277322400Y-212700000D03*
%TO.P,J1,5*%
%TO.N,Net-(J1-Pad5)*%
X281284800Y-212700000D03*
%TO.P,J1,4*%
%TO.N,Net-(J1-Pad4)*%
X285247200Y-212700000D03*
%TO.P,J1,3*%
%TO.N,Net-(J1-Pad3)*%
X289209600Y-212700000D03*
%TO.P,J1,2*%
%TO.N,Net-(J1-Pad2)*%
X293172000Y-212700000D03*
%TO.P,J1,1*%
%TO.N,Net-(J1-Pad1)*%
X297134400Y-212700000D03*
%TD*%
D14*
%TO.N,Net-(J3-Pad1)*%
X144550000Y-23810000D02*
X144550000Y-212789200D01*
X144550000Y-212789200D02*
X144560800Y-212800000D01*
%TO.N,Net-(J3-Pad2)*%
X140590000Y-23810000D02*
X140590000Y-212791600D01*
X140590000Y-212791600D02*
X140598400Y-212800000D01*
%TO.N,Net-(J3-Pad3)*%
X136630000Y-23810000D02*
X136630000Y-212794000D01*
X136630000Y-212794000D02*
X136636000Y-212800000D01*
%TO.N,Net-(J3-Pad4)*%
X132670000Y-23810000D02*
X132670000Y-212796400D01*
X132670000Y-212796400D02*
X132673600Y-212800000D01*
%TO.N,Net-(J3-Pad5)*%
X128710000Y-23810000D02*
X128710000Y-212798800D01*
X128710000Y-212798800D02*
X128711200Y-212800000D01*
%TO.N,Net-(J3-Pad6)*%
X124750000Y-23810000D02*
X124750000Y-212798800D01*
X124750000Y-212798800D02*
X124748800Y-212800000D01*
%TO.N,Net-(J3-Pad7)*%
X120790000Y-23810000D02*
X120790000Y-212796400D01*
X120790000Y-212796400D02*
X120786400Y-212800000D01*
%TO.N,Net-(J3-Pad8)*%
X116830000Y-23810000D02*
X116830000Y-212794000D01*
X116830000Y-212794000D02*
X116824000Y-212800000D01*
%TO.N,Net-(J3-Pad9)*%
X112870000Y-23810000D02*
X112870000Y-212791600D01*
X112870000Y-212791600D02*
X112861600Y-212800000D01*
%TO.N,Net-(J3-Pad10)*%
X108910000Y-23810000D02*
X108910000Y-212789200D01*
X108910000Y-212789200D02*
X108899200Y-212800000D01*
%TO.N,Net-(J3-Pad11)*%
X104950000Y-23810000D02*
X104950000Y-212786800D01*
X104950000Y-212786800D02*
X104936800Y-212800000D01*
%TO.N,Net-(J3-Pad12)*%
X100990000Y-23810000D02*
X100990000Y-212784400D01*
X100990000Y-212784400D02*
X100974400Y-212800000D01*
%TO.N,Net-(J3-Pad13)*%
X97012000Y-212800000D02*
X97012000Y-23828000D01*
X97012000Y-23828000D02*
X97030000Y-23810000D01*
X97030000Y-23810000D02*
X97030000Y-43810000D01*
%TO.N,Net-(J3-Pad14)*%
X93070000Y-23810000D02*
X93070000Y-211870000D01*
%TO.N,Net-(J3-Pad15)*%
X89087200Y-212800000D02*
X89087200Y-23832800D01*
X89087200Y-23832800D02*
X89110000Y-23810000D01*
X89110000Y-23810000D02*
X89110000Y-43810000D01*
%TO.N,Net-(J3-Pad16)*%
X85150000Y-23810000D02*
X85150000Y-212774800D01*
X85150000Y-212774800D02*
X85124800Y-212800000D01*
%TO.N,Net-(J1-Pad32)*%
X174300000Y-212700000D02*
X174300000Y-23870000D01*
X174300000Y-23870000D02*
X174250000Y-23820000D01*
X174250000Y-23820000D02*
X174250000Y-43820000D01*
%TO.N,Net-(J1-Pad31)*%
X178210000Y-23820000D02*
X178210000Y-212647600D01*
X178210000Y-212647600D02*
X178262400Y-212700000D01*
%TO.N,Net-(J1-Pad30)*%
X182170000Y-23820000D02*
X182170000Y-212645200D01*
X182170000Y-212645200D02*
X182224800Y-212700000D01*
%TO.N,Net-(J1-Pad29)*%
X186130000Y-23820000D02*
X186130000Y-212642800D01*
X186130000Y-212642800D02*
X186187200Y-212700000D01*
%TO.N,Net-(J1-Pad28)*%
X190090000Y-23820000D02*
X190090000Y-212640400D01*
X190090000Y-212640400D02*
X190149600Y-212700000D01*
%TO.N,Net-(J1-Pad27)*%
X194050000Y-23820000D02*
X194050000Y-212638000D01*
X194050000Y-212638000D02*
X194112000Y-212700000D01*
%TO.N,Net-(J1-Pad26)*%
X198010000Y-23820000D02*
X198010000Y-212635600D01*
X198010000Y-212635600D02*
X198074400Y-212700000D01*
%TO.N,Net-(J1-Pad25)*%
X201970000Y-23820000D02*
X201970000Y-212633200D01*
X201970000Y-212633200D02*
X202036800Y-212700000D01*
%TO.N,Net-(J1-Pad24)*%
X205930000Y-23820000D02*
X205930000Y-212630800D01*
X205930000Y-212630800D02*
X205999200Y-212700000D01*
%TO.N,Net-(J1-Pad23)*%
X209890000Y-23820000D02*
X209890000Y-212628400D01*
X209890000Y-212628400D02*
X209961600Y-212700000D01*
%TO.N,Net-(J1-Pad22)*%
X213850000Y-23820000D02*
X213850000Y-212626000D01*
X213850000Y-212626000D02*
X213924000Y-212700000D01*
%TO.N,Net-(J1-Pad21)*%
X217810000Y-23820000D02*
X217810000Y-212623600D01*
X217810000Y-212623600D02*
X217886400Y-212700000D01*
%TO.N,Net-(J1-Pad20)*%
X221770000Y-23820000D02*
X221770000Y-212621200D01*
X221770000Y-212621200D02*
X221848800Y-212700000D01*
%TO.N,Net-(J1-Pad19)*%
X225730000Y-23820000D02*
X225730000Y-212618800D01*
X225730000Y-212618800D02*
X225811200Y-212700000D01*
%TO.N,Net-(J1-Pad18)*%
X229690000Y-23820000D02*
X229690000Y-212616400D01*
X229690000Y-212616400D02*
X229773600Y-212700000D01*
%TO.N,Net-(J1-Pad17)*%
X233650000Y-23820000D02*
X233650000Y-212614000D01*
X233650000Y-212614000D02*
X233736000Y-212700000D01*
%TO.N,Net-(J1-Pad16)*%
X237610000Y-23820000D02*
X237610000Y-212611600D01*
X237610000Y-212611600D02*
X237698400Y-212700000D01*
%TO.N,Net-(J1-Pad15)*%
X241570000Y-23820000D02*
X241570000Y-212609200D01*
X241570000Y-212609200D02*
X241660800Y-212700000D01*
%TO.N,Net-(J1-Pad14)*%
X245530000Y-23820000D02*
X245530000Y-212606800D01*
X245530000Y-212606800D02*
X245623200Y-212700000D01*
%TO.N,Net-(J1-Pad13)*%
X249490000Y-23820000D02*
X249490000Y-212604400D01*
X249490000Y-212604400D02*
X249585600Y-212700000D01*
%TO.N,Net-(J1-Pad12)*%
X253450000Y-23820000D02*
X253450000Y-212602000D01*
X253450000Y-212602000D02*
X253548000Y-212700000D01*
%TO.N,Net-(J1-Pad11)*%
X257410000Y-23820000D02*
X257410000Y-212599600D01*
X257410000Y-212599600D02*
X257510400Y-212700000D01*
%TO.N,Net-(J1-Pad10)*%
X261370000Y-23820000D02*
X261370000Y-212597200D01*
X261370000Y-212597200D02*
X261472800Y-212700000D01*
%TO.N,Net-(J1-Pad9)*%
X265330000Y-23820000D02*
X265330000Y-212594800D01*
X265330000Y-212594800D02*
X265435200Y-212700000D01*
%TO.N,Net-(J1-Pad8)*%
X269290000Y-23820000D02*
X269290000Y-212592400D01*
X269290000Y-212592400D02*
X269397600Y-212700000D01*
%TO.N,Net-(J1-Pad7)*%
X273250000Y-23820000D02*
X273250000Y-212590000D01*
X273250000Y-212590000D02*
X273360000Y-212700000D01*
%TO.N,Net-(J1-Pad6)*%
X277210000Y-23820000D02*
X277210000Y-212587600D01*
X277210000Y-212587600D02*
X277322400Y-212700000D01*
%TO.N,Net-(J1-Pad5)*%
X281170000Y-23820000D02*
X281170000Y-212585200D01*
X281170000Y-212585200D02*
X281284800Y-212700000D01*
%TO.N,Net-(J1-Pad4)*%
X285130000Y-23820000D02*
X285130000Y-212582800D01*
X285130000Y-212582800D02*
X285247200Y-212700000D01*
%TO.N,Net-(J1-Pad3)*%
X289090000Y-23820000D02*
X289090000Y-212580400D01*
X289090000Y-212580400D02*
X289209600Y-212700000D01*
%TO.N,Net-(J1-Pad2)*%
X293050000Y-23820000D02*
X293050000Y-212578000D01*
X293050000Y-212578000D02*
X293172000Y-212700000D01*
%TO.N,Net-(J1-Pad1)*%
X297010000Y-23820000D02*
X297010000Y-212575600D01*
X297010000Y-212575600D02*
X297134400Y-212700000D01*
%TD*%
M02*
