  0
SECTION
  2
HEADER
  9
$ANGBASE
  50
0.0
  9
$ANGDIR
  70
1
  9
$MEASUREMENT
  70
0
  0
ENDSEC
  0
SECTION
  2
TABLES
  0
TABLE
  2
LTYPE
  70
4
  0
LTYPE
  5
40F
  2
CONTINUOUS
  70
0
  3
Solid line
  72
65
  73
0
  40
0.0
  0
LTYPE
  5
410
  2
DASHDOT
 70
0
  3
Dash Dot ____ _ ____ _
 72
65
 73
4
 40
2.0
 49
1.25
 49
-0.25
 49
0.25
 49
-0.25
  0
LTYPE
  5
411
  2
DASHED
 70
0
  3
Dashed __ __ __ __ __
 72
65
 73
2
 40
0.75
 49
0.5
 49
-0.25
  0
LTYPE
  5
43B
  2
DOTTED
 70
0
  3
Dotted .  .  .  .
 72
65
 73
2
 40
0.2
 49
0.0
 49
-0.2
  0
ENDTAB
  0
TABLE
  2
STYLE
  70
4
  0
STYLE
  2
KICAD
  70
0
  40
0
  41
1
  42
1
  50
0
  71
0
  3
isocp.shx
  0
STYLE
  2
KICADB
  70
0
  40
0
  41
1
  42
1
  50
0
  71
0
  3
isocp.shx
  0
STYLE
  2
KICADI
  70
0
  40
0
  41
1
  42
1
  50
15
  71
0
  3
isocp.shx
  0
STYLE
  2
KICADBI
  70
0
  40
0
  41
1
  42
1
  50
15
  71
0
  3
isocp.shx
  0
ENDTAB
  0
TABLE
  2
LAYER
  70
1
  0
LAYER
  2
BLACK
  70
0
  62
7
  6
CONTINUOUS
  0
ENDTAB
  0
ENDSEC
  0
SECTION
  2
ENTITIES
0
LINE
8
BLACK
6
CONTINUOUS
10
1.93701
20
-9.96063
11
1.62205
21
-9.96063
0
LINE
8
BLACK
6
CONTINUOUS
10
1.93701
20
-10.4685
11
1.93701
21
-9.96063
0
LINE
8
BLACK
6
CONTINUOUS
10
10.5945
20
-9.96063
11
10.5945
21
-10.4646
0
LINE
8
BLACK
6
CONTINUOUS
10
11.5748
20
-9.96063
11
10.5945
21
-9.96063
0
LINE
8
BLACK
6
CONTINUOUS
10
11.5748
20
-3.37795
11
11.5748
21
-9.96063
0
LINE
8
BLACK
6
CONTINUOUS
10
10.5945
20
-3.37795
11
11.5748
21
-3.37795
0
LINE
8
BLACK
6
CONTINUOUS
10
1.10236
20
-9.96063
11
1.62205
21
-9.96063
0
LINE
8
BLACK
6
CONTINUOUS
10
1.10236
20
-9.14173
11
1.10236
21
-9.96063
0
LINE
8
BLACK
6
CONTINUOUS
10
1.10236
20
-3.37795
11
1.10236
21
-9.14173
0
LINE
8
BLACK
6
CONTINUOUS
10
1.62205
20
-3.37795
11
1.10236
21
-3.37795
0
LINE
8
BLACK
6
CONTINUOUS
10
5.44488
20
-10.4646
11
10.5945
21
-10.4646
0
LINE
8
BLACK
6
CONTINUOUS
10
5.44488
20
-10.0354
11
5.44488
21
-10.4646
0
LINE
8
BLACK
6
CONTINUOUS
10
4.59055
20
-10.0354
11
5.44488
21
-10.0354
0
LINE
8
BLACK
6
CONTINUOUS
10
4.59055
20
-10.4685
11
4.59055
21
-10.0354
0
LINE
8
BLACK
6
CONTINUOUS
10
1.93701
20
-10.4685
11
4.59055
21
-10.4685
0
LINE
8
BLACK
6
CONTINUOUS
10
10.5945
20
-3.37795
11
1.62205
21
-3.37795
0
LINE
8
BLACK
6
CONTINUOUS
10
1.21415
20
-10.6528
11
1.21415
21
-10.5347
0
LINE
8
BLACK
6
CONTINUOUS
10
1.21415
20
-10.5347
11
1.24227
21
-10.5347
0
LINE
8
BLACK
6
CONTINUOUS
10
1.24227
20
-10.5347
11
1.25914
21
-10.5404
0
LINE
8
BLACK
6
CONTINUOUS
10
1.25914
20
-10.5404
11
1.27039
21
-10.5516
0
LINE
8
BLACK
6
CONTINUOUS
10
1.27039
20
-10.5516
11
1.27601
21
-10.5629
0
LINE
8
BLACK
6
CONTINUOUS
10
1.27601
20
-10.5629
11
1.28164
21
-10.5853
0
LINE
8
BLACK
6
CONTINUOUS
10
1.28164
20
-10.5853
11
1.28164
21
-10.6022
0
LINE
8
BLACK
6
CONTINUOUS
10
1.28164
20
-10.6022
11
1.27601
21
-10.6247
0
LINE
8
BLACK
6
CONTINUOUS
10
1.27601
20
-10.6247
11
1.27039
21
-10.636
0
LINE
8
BLACK
6
CONTINUOUS
10
1.27039
20
-10.636
11
1.25914
21
-10.6472
0
LINE
8
BLACK
6
CONTINUOUS
10
1.25914
20
-10.6472
11
1.24227
21
-10.6528
0
LINE
8
BLACK
6
CONTINUOUS
10
1.24227
20
-10.6528
11
1.21415
21
-10.6528
0
LINE
8
BLACK
6
CONTINUOUS
10
1.33226
20
-10.6528
11
1.33226
21
-10.5741
0
LINE
8
BLACK
6
CONTINUOUS
10
1.33226
20
-10.5966
11
1.33788
21
-10.5853
0
LINE
8
BLACK
6
CONTINUOUS
10
1.33788
20
-10.5853
11
1.3435
21
-10.5797
0
LINE
8
BLACK
6
CONTINUOUS
10
1.3435
20
-10.5797
11
1.35475
21
-10.5741
0
LINE
8
BLACK
6
CONTINUOUS
10
1.35475
20
-10.5741
11
1.366
21
-10.5741
0
LINE
8
BLACK
6
CONTINUOUS
10
1.40537
20
-10.6528
11
1.40537
21
-10.5741
0
LINE
8
BLACK
6
CONTINUOUS
10
1.40537
20
-10.5347
11
1.39975
21
-10.5404
0
LINE
8
BLACK
6
CONTINUOUS
10
1.39975
20
-10.5404
11
1.40537
21
-10.546
0
LINE
8
BLACK
6
CONTINUOUS
10
1.40537
20
-10.546
11
1.411
21
-10.5404
0
LINE
8
BLACK
6
CONTINUOUS
10
1.411
20
-10.5404
11
1.40537
21
-10.5347
0
LINE
8
BLACK
6
CONTINUOUS
10
1.40537
20
-10.5347
11
1.40537
21
-10.546
0
LINE
8
BLACK
6
CONTINUOUS
10
1.47849
20
-10.6528
11
1.46724
21
-10.6472
0
LINE
8
BLACK
6
CONTINUOUS
10
1.46724
20
-10.6472
11
1.46161
21
-10.636
0
LINE
8
BLACK
6
CONTINUOUS
10
1.46161
20
-10.636
11
1.46161
21
-10.5347
0
LINE
8
BLACK
6
CONTINUOUS
10
1.54035
20
-10.6528
11
1.52911
21
-10.6472
0
LINE
8
BLACK
6
CONTINUOUS
10
1.52911
20
-10.6472
11
1.52348
21
-10.636
0
LINE
8
BLACK
6
CONTINUOUS
10
1.52348
20
-10.636
11
1.52348
21
-10.5347
0
LINE
8
BLACK
6
CONTINUOUS
10
1.67534
20
-10.6528
11
1.67534
21
-10.5347
0
LINE
8
BLACK
6
CONTINUOUS
10
1.67534
20
-10.5347
11
1.71471
21
-10.6191
0
LINE
8
BLACK
6
CONTINUOUS
10
1.71471
20
-10.6191
11
1.75408
21
-10.5347
0
LINE
8
BLACK
6
CONTINUOUS
10
1.75408
20
-10.5347
11
1.75408
21
-10.6528
0
LINE
8
BLACK
6
CONTINUOUS
10
1.86094
20
-10.6528
11
1.86094
21
-10.591
0
LINE
8
BLACK
6
CONTINUOUS
10
1.86094
20
-10.591
11
1.85531
21
-10.5797
0
LINE
8
BLACK
6
CONTINUOUS
10
1.85531
20
-10.5797
11
1.84407
21
-10.5741
0
LINE
8
BLACK
6
CONTINUOUS
10
1.84407
20
-10.5741
11
1.82157
21
-10.5741
0
LINE
8
BLACK
6
CONTINUOUS
10
1.82157
20
-10.5741
11
1.81032
21
-10.5797
0
LINE
8
BLACK
6
CONTINUOUS
10
1.86094
20
-10.6472
11
1.84969
21
-10.6528
0
LINE
8
BLACK
6
CONTINUOUS
10
1.84969
20
-10.6528
11
1.82157
21
-10.6528
0
LINE
8
BLACK
6
CONTINUOUS
10
1.82157
20
-10.6528
11
1.81032
21
-10.6472
0
LINE
8
BLACK
6
CONTINUOUS
10
1.81032
20
-10.6472
11
1.8047
21
-10.636
0
LINE
8
BLACK
6
CONTINUOUS
10
1.8047
20
-10.636
11
1.8047
21
-10.6247
0
LINE
8
BLACK
6
CONTINUOUS
10
1.8047
20
-10.6247
11
1.81032
21
-10.6135
0
LINE
8
BLACK
6
CONTINUOUS
10
1.81032
20
-10.6135
11
1.82157
21
-10.6078
0
LINE
8
BLACK
6
CONTINUOUS
10
1.82157
20
-10.6078
11
1.84969
21
-10.6078
0
LINE
8
BLACK
6
CONTINUOUS
10
1.84969
20
-10.6078
11
1.86094
21
-10.6022
0
LINE
8
BLACK
6
CONTINUOUS
10
1.91718
20
-10.5741
11
1.91718
21
-10.6922
0
LINE
8
BLACK
6
CONTINUOUS
10
1.91718
20
-10.5797
11
1.92843
21
-10.5741
0
LINE
8
BLACK
6
CONTINUOUS
10
1.92843
20
-10.5741
11
1.95093
21
-10.5741
0
LINE
8
BLACK
6
CONTINUOUS
10
1.95093
20
-10.5741
11
1.96218
21
-10.5797
0
LINE
8
BLACK
6
CONTINUOUS
10
1.96218
20
-10.5797
11
1.9678
21
-10.5853
0
LINE
8
BLACK
6
CONTINUOUS
10
1.9678
20
-10.5853
11
1.97343
21
-10.5966
0
LINE
8
BLACK
6
CONTINUOUS
10
1.97343
20
-10.5966
11
1.97343
21
-10.6303
0
LINE
8
BLACK
6
CONTINUOUS
10
1.97343
20
-10.6303
11
1.9678
21
-10.6416
0
LINE
8
BLACK
6
CONTINUOUS
10
1.9678
20
-10.6416
11
1.96218
21
-10.6472
0
LINE
8
BLACK
6
CONTINUOUS
10
1.96218
20
-10.6472
11
1.95093
21
-10.6528
0
LINE
8
BLACK
6
CONTINUOUS
10
1.95093
20
-10.6528
11
1.92843
21
-10.6528
0
LINE
8
BLACK
6
CONTINUOUS
10
1.92843
20
-10.6528
11
1.91718
21
-10.6472
0
LINE
8
BLACK
6
CONTINUOUS
10
2.02404
20
-10.6416
11
2.02967
21
-10.6472
0
LINE
8
BLACK
6
CONTINUOUS
10
2.02967
20
-10.6472
11
2.02404
21
-10.6528
0
LINE
8
BLACK
6
CONTINUOUS
10
2.02404
20
-10.6528
11
2.01842
21
-10.6472
0
LINE
8
BLACK
6
CONTINUOUS
10
2.01842
20
-10.6472
11
2.02404
21
-10.6416
0
LINE
8
BLACK
6
CONTINUOUS
10
2.02404
20
-10.6416
11
2.02404
21
-10.6528
0
LINE
8
BLACK
6
CONTINUOUS
10
2.02404
20
-10.5797
11
2.02967
21
-10.5853
0
LINE
8
BLACK
6
CONTINUOUS
10
2.02967
20
-10.5853
11
2.02404
21
-10.591
0
LINE
8
BLACK
6
CONTINUOUS
10
2.02404
20
-10.591
11
2.01842
21
-10.5853
0
LINE
8
BLACK
6
CONTINUOUS
10
2.01842
20
-10.5853
11
2.02404
21
-10.5797
0
LINE
8
BLACK
6
CONTINUOUS
10
2.02404
20
-10.5797
11
2.02404
21
-10.591
  0
ENDSEC
  0
EOF
