  0
SECTION
  2
HEADER
  9
$ANGBASE
  50
0.0
  9
$ANGDIR
  70
1
  9
$MEASUREMENT
  70
0
  0
ENDSEC
  0
SECTION
  2
TABLES
  0
TABLE
  2
LTYPE
  70
4
  0
LTYPE
  5
40F
  2
CONTINUOUS
  70
0
  3
Solid line
  72
65
  73
0
  40
0.0
  0
LTYPE
  5
410
  2
DASHDOT
 70
0
  3
Dash Dot ____ _ ____ _
 72
65
 73
4
 40
2.0
 49
1.25
 49
-0.25
 49
0.25
 49
-0.25
  0
LTYPE
  5
411
  2
DASHED
 70
0
  3
Dashed __ __ __ __ __
 72
65
 73
2
 40
0.75
 49
0.5
 49
-0.25
  0
LTYPE
  5
43B
  2
DOTTED
 70
0
  3
Dotted .  .  .  .
 72
65
 73
2
 40
0.2
 49
0.0
 49
-0.2
  0
ENDTAB
  0
TABLE
  2
STYLE
  70
4
  0
STYLE
  2
KICAD
  70
0
  40
0
  41
1
  42
1
  50
0
  71
0
  3
isocp.shx
  0
STYLE
  2
KICADB
  70
0
  40
0
  41
1
  42
1
  50
0
  71
0
  3
isocp.shx
  0
STYLE
  2
KICADI
  70
0
  40
0
  41
1
  42
1
  50
15
  71
0
  3
isocp.shx
  0
STYLE
  2
KICADBI
  70
0
  40
0
  41
1
  42
1
  50
15
  71
0
  3
isocp.shx
  0
ENDTAB
  0
TABLE
  2
LAYER
  70
1
  0
LAYER
  2
BLACK
  70
0
  62
7
  6
CONTINUOUS
  0
ENDTAB
  0
ENDSEC
  0
SECTION
  2
ENTITIES
0
LINE
8
BLACK
6
CONTINUOUS
10
8.75984
20
-8.22835
11
8.75984
21
-8.66142
0
LINE
8
BLACK
6
CONTINUOUS
10
5.41339
20
-8.22835
11
8.75984
21
-8.22835
0
LINE
8
BLACK
6
CONTINUOUS
10
5.41339
20
-8.66142
11
5.41339
21
-8.22835
0
LINE
8
BLACK
6
CONTINUOUS
10
2.75591
20
-8.66142
11
5.41339
21
-8.66142
0
LINE
8
BLACK
6
CONTINUOUS
10
11.4173
20
-8.66142
11
8.75984
21
-8.66142
0
LINE
8
BLACK
6
CONTINUOUS
10
11.4173
20
-2.3622
11
11.4173
21
-8.66142
0
LINE
8
BLACK
6
CONTINUOUS
10
2.75591
20
-2.3622
11
11.4173
21
-2.3622
0
LINE
8
BLACK
6
CONTINUOUS
10
2.75591
20
-8.66142
11
2.75591
21
-2.3622
0
LINE
8
BLACK
6
CONTINUOUS
10
3.20925
20
-7.75925
11
3.24075
21
-7.79075
0
LINE
8
BLACK
6
CONTINUOUS
10
3.24075
20
-7.75925
11
3.20925
21
-7.79075
0
LINE
8
BLACK
6
CONTINUOUS
10
3.23425
20
-3.98425
11
3.26575
21
-4.01575
0
LINE
8
BLACK
6
CONTINUOUS
10
3.26575
20
-3.98425
11
3.23425
21
-4.01575
0
LINE
8
BLACK
6
CONTINUOUS
10
3.36425
20
-7.90925
11
3.39575
21
-7.94075
0
LINE
8
BLACK
6
CONTINUOUS
10
3.39575
20
-7.90925
11
3.36425
21
-7.94075
0
LINE
8
BLACK
6
CONTINUOUS
10
3.58425
20
-6.93425
11
3.61575
21
-6.96575
0
LINE
8
BLACK
6
CONTINUOUS
10
3.61575
20
-6.93425
11
3.58425
21
-6.96575
0
LINE
8
BLACK
6
CONTINUOUS
10
3.78425
20
-7.03425
11
3.81575
21
-7.06575
0
LINE
8
BLACK
6
CONTINUOUS
10
3.81575
20
-7.03425
11
3.78425
21
-7.06575
0
LINE
8
BLACK
6
CONTINUOUS
10
3.90925
20
-7.30925
11
3.94075
21
-7.34075
0
LINE
8
BLACK
6
CONTINUOUS
10
3.94075
20
-7.30925
11
3.90925
21
-7.34075
0
LINE
8
BLACK
6
CONTINUOUS
10
4.03425
20
-4.83425
11
4.06575
21
-4.86575
0
LINE
8
BLACK
6
CONTINUOUS
10
4.06575
20
-4.83425
11
4.03425
21
-4.86575
0
LINE
8
BLACK
6
CONTINUOUS
10
4.03425
20
-6.65925
11
4.06575
21
-6.69075
0
LINE
8
BLACK
6
CONTINUOUS
10
4.06575
20
-6.65925
11
4.03425
21
-6.69075
0
LINE
8
BLACK
6
CONTINUOUS
10
4.03425
20
-6.93425
11
4.06575
21
-6.96575
0
LINE
8
BLACK
6
CONTINUOUS
10
4.06575
20
-6.93425
11
4.03425
21
-6.96575
0
LINE
8
BLACK
6
CONTINUOUS
10
4.03425
20
-7.10925
11
4.06575
21
-7.14075
0
LINE
8
BLACK
6
CONTINUOUS
10
4.06575
20
-7.10925
11
4.03425
21
-7.14075
0
LINE
8
BLACK
6
CONTINUOUS
10
4.03937
20
-4.09843
11
4.07087
21
-4.12992
0
LINE
8
BLACK
6
CONTINUOUS
10
4.07087
20
-4.09843
11
4.03937
21
-4.12992
0
LINE
8
BLACK
6
CONTINUOUS
10
4.03937
20
-4.19843
11
4.07087
21
-4.22992
0
LINE
8
BLACK
6
CONTINUOUS
10
4.07087
20
-4.19843
11
4.03937
21
-4.22992
0
LINE
8
BLACK
6
CONTINUOUS
10
4.03937
20
-4.29843
11
4.07087
21
-4.32992
0
LINE
8
BLACK
6
CONTINUOUS
10
4.07087
20
-4.29843
11
4.03937
21
-4.32992
0
LINE
8
BLACK
6
CONTINUOUS
10
4.03937
20
-4.39843
11
4.07087
21
-4.42992
0
LINE
8
BLACK
6
CONTINUOUS
10
4.07087
20
-4.39843
11
4.03937
21
-4.42992
0
LINE
8
BLACK
6
CONTINUOUS
10
4.03937
20
-4.49843
11
4.07087
21
-4.52992
0
LINE
8
BLACK
6
CONTINUOUS
10
4.07087
20
-4.49843
11
4.03937
21
-4.52992
0
LINE
8
BLACK
6
CONTINUOUS
10
4.03937
20
-4.59843
11
4.07087
21
-4.62992
0
LINE
8
BLACK
6
CONTINUOUS
10
4.07087
20
-4.59843
11
4.03937
21
-4.62992
0
LINE
8
BLACK
6
CONTINUOUS
10
4.03937
20
-4.69843
11
4.07087
21
-4.72992
0
LINE
8
BLACK
6
CONTINUOUS
10
4.07087
20
-4.69843
11
4.03937
21
-4.72992
0
LINE
8
BLACK
6
CONTINUOUS
10
4.03937
20
-5.94882
11
4.07087
21
-5.98031
0
LINE
8
BLACK
6
CONTINUOUS
10
4.07087
20
-5.94882
11
4.03937
21
-5.98031
0
LINE
8
BLACK
6
CONTINUOUS
10
4.03937
20
-6.04882
11
4.07087
21
-6.08031
0
LINE
8
BLACK
6
CONTINUOUS
10
4.07087
20
-6.04882
11
4.03937
21
-6.08031
0
LINE
8
BLACK
6
CONTINUOUS
10
4.03937
20
-6.14882
11
4.07087
21
-6.18031
0
LINE
8
BLACK
6
CONTINUOUS
10
4.07087
20
-6.14882
11
4.03937
21
-6.18031
0
LINE
8
BLACK
6
CONTINUOUS
10
4.03937
20
-6.24882
11
4.07087
21
-6.28031
0
LINE
8
BLACK
6
CONTINUOUS
10
4.07087
20
-6.24882
11
4.03937
21
-6.28031
0
LINE
8
BLACK
6
CONTINUOUS
10
4.03937
20
-6.34882
11
4.07087
21
-6.38031
0
LINE
8
BLACK
6
CONTINUOUS
10
4.07087
20
-6.34882
11
4.03937
21
-6.38031
0
LINE
8
BLACK
6
CONTINUOUS
10
4.03937
20
-6.44882
11
4.07087
21
-6.48031
0
LINE
8
BLACK
6
CONTINUOUS
10
4.07087
20
-6.44882
11
4.03937
21
-6.48031
0
LINE
8
BLACK
6
CONTINUOUS
10
4.03937
20
-6.54882
11
4.07087
21
-6.58031
0
LINE
8
BLACK
6
CONTINUOUS
10
4.07087
20
-6.54882
11
4.03937
21
-6.58031
0
LINE
8
BLACK
6
CONTINUOUS
10
4.13425
20
-5.03425
11
4.16575
21
-5.06575
0
LINE
8
BLACK
6
CONTINUOUS
10
4.16575
20
-5.03425
11
4.13425
21
-5.06575
0
LINE
8
BLACK
6
CONTINUOUS
10
4.20425
20
-5.12425
11
4.23575
21
-5.15575
0
LINE
8
BLACK
6
CONTINUOUS
10
4.23575
20
-5.12425
11
4.20425
21
-5.15575
0
LINE
8
BLACK
6
CONTINUOUS
10
4.33937
20
-4.09843
11
4.37087
21
-4.12992
0
LINE
8
BLACK
6
CONTINUOUS
10
4.37087
20
-4.09843
11
4.33937
21
-4.12992
0
LINE
8
BLACK
6
CONTINUOUS
10
4.33937
20
-4.19843
11
4.37087
21
-4.22992
0
LINE
8
BLACK
6
CONTINUOUS
10
4.37087
20
-4.19843
11
4.33937
21
-4.22992
0
LINE
8
BLACK
6
CONTINUOUS
10
4.33937
20
-4.29843
11
4.37087
21
-4.32992
0
LINE
8
BLACK
6
CONTINUOUS
10
4.37087
20
-4.29843
11
4.33937
21
-4.32992
0
LINE
8
BLACK
6
CONTINUOUS
10
4.33937
20
-4.39843
11
4.37087
21
-4.42992
0
LINE
8
BLACK
6
CONTINUOUS
10
4.37087
20
-4.39843
11
4.33937
21
-4.42992
0
LINE
8
BLACK
6
CONTINUOUS
10
4.33937
20
-4.49843
11
4.37087
21
-4.52992
0
LINE
8
BLACK
6
CONTINUOUS
10
4.37087
20
-4.49843
11
4.33937
21
-4.52992
0
LINE
8
BLACK
6
CONTINUOUS
10
4.33937
20
-4.59843
11
4.37087
21
-4.62992
0
LINE
8
BLACK
6
CONTINUOUS
10
4.37087
20
-4.59843
11
4.33937
21
-4.62992
0
LINE
8
BLACK
6
CONTINUOUS
10
4.33937
20
-4.69843
11
4.37087
21
-4.72992
0
LINE
8
BLACK
6
CONTINUOUS
10
4.37087
20
-4.69843
11
4.33937
21
-4.72992
0
LINE
8
BLACK
6
CONTINUOUS
10
4.33937
20
-5.94882
11
4.37087
21
-5.98031
0
LINE
8
BLACK
6
CONTINUOUS
10
4.37087
20
-5.94882
11
4.33937
21
-5.98031
0
LINE
8
BLACK
6
CONTINUOUS
10
4.33937
20
-6.04882
11
4.37087
21
-6.08031
0
LINE
8
BLACK
6
CONTINUOUS
10
4.37087
20
-6.04882
11
4.33937
21
-6.08031
0
LINE
8
BLACK
6
CONTINUOUS
10
4.33937
20
-6.14882
11
4.37087
21
-6.18031
0
LINE
8
BLACK
6
CONTINUOUS
10
4.37087
20
-6.14882
11
4.33937
21
-6.18031
0
LINE
8
BLACK
6
CONTINUOUS
10
4.33937
20
-6.24882
11
4.37087
21
-6.28031
0
LINE
8
BLACK
6
CONTINUOUS
10
4.37087
20
-6.24882
11
4.33937
21
-6.28031
0
LINE
8
BLACK
6
CONTINUOUS
10
4.33937
20
-6.34882
11
4.37087
21
-6.38031
0
LINE
8
BLACK
6
CONTINUOUS
10
4.37087
20
-6.34882
11
4.33937
21
-6.38031
0
LINE
8
BLACK
6
CONTINUOUS
10
4.33937
20
-6.44882
11
4.37087
21
-6.48031
0
LINE
8
BLACK
6
CONTINUOUS
10
4.37087
20
-6.44882
11
4.33937
21
-6.48031
0
LINE
8
BLACK
6
CONTINUOUS
10
4.33937
20
-6.54882
11
4.37087
21
-6.58031
0
LINE
8
BLACK
6
CONTINUOUS
10
4.37087
20
-6.54882
11
4.33937
21
-6.58031
0
LINE
8
BLACK
6
CONTINUOUS
10
4.34425
20
-6.86425
11
4.37575
21
-6.89575
0
LINE
8
BLACK
6
CONTINUOUS
10
4.37575
20
-6.86425
11
4.34425
21
-6.89575
0
LINE
8
BLACK
6
CONTINUOUS
10
4.35925
20
-3.98425
11
4.39075
21
-4.01575
0
LINE
8
BLACK
6
CONTINUOUS
10
4.39075
20
-3.98425
11
4.35925
21
-4.01575
0
LINE
8
BLACK
6
CONTINUOUS
10
4.40925
20
-5.83425
11
4.44075
21
-5.86575
0
LINE
8
BLACK
6
CONTINUOUS
10
4.44075
20
-5.83425
11
4.40925
21
-5.86575
0
LINE
8
BLACK
6
CONTINUOUS
10
4.43425
20
-5.43425
11
4.46575
21
-5.46575
0
LINE
8
BLACK
6
CONTINUOUS
10
4.46575
20
-5.43425
11
4.43425
21
-5.46575
0
LINE
8
BLACK
6
CONTINUOUS
10
4.45925
20
-7.03425
11
4.49075
21
-7.06575
0
LINE
8
BLACK
6
CONTINUOUS
10
4.49075
20
-7.03425
11
4.45925
21
-7.06575
0
LINE
8
BLACK
6
CONTINUOUS
10
4.63425
20
-7.20925
11
4.66575
21
-7.24075
0
LINE
8
BLACK
6
CONTINUOUS
10
4.66575
20
-7.20925
11
4.63425
21
-7.24075
0
LINE
8
BLACK
6
CONTINUOUS
10
4.76425
20
-5.18425
11
4.79575
21
-5.21575
0
LINE
8
BLACK
6
CONTINUOUS
10
4.79575
20
-5.18425
11
4.76425
21
-5.21575
0
LINE
8
BLACK
6
CONTINUOUS
10
4.77425
20
-5.33425
11
4.80575
21
-5.36575
0
LINE
8
BLACK
6
CONTINUOUS
10
4.80575
20
-5.33425
11
4.77425
21
-5.36575
0
LINE
8
BLACK
6
CONTINUOUS
10
4.98425
20
-5.63425
11
5.01575
21
-5.66575
0
LINE
8
BLACK
6
CONTINUOUS
10
5.01575
20
-5.63425
11
4.98425
21
-5.66575
0
LINE
8
BLACK
6
CONTINUOUS
10
5.08425
20
-7.58425
11
5.11575
21
-7.61575
0
LINE
8
BLACK
6
CONTINUOUS
10
5.11575
20
-7.58425
11
5.08425
21
-7.61575
0
LINE
8
BLACK
6
CONTINUOUS
10
5.30925
20
-6.65925
11
5.34075
21
-6.69075
0
LINE
8
BLACK
6
CONTINUOUS
10
5.34075
20
-6.65925
11
5.30925
21
-6.69075
0
LINE
8
BLACK
6
CONTINUOUS
10
5.35925
20
-7.03425
11
5.39075
21
-7.06575
0
LINE
8
BLACK
6
CONTINUOUS
10
5.39075
20
-7.03425
11
5.35925
21
-7.06575
0
LINE
8
BLACK
6
CONTINUOUS
10
5.40925
20
-4.83425
11
5.44075
21
-4.86575
0
LINE
8
BLACK
6
CONTINUOUS
10
5.44075
20
-4.83425
11
5.40925
21
-4.86575
0
LINE
8
BLACK
6
CONTINUOUS
10
5.41732
20
-4.09843
11
5.44882
21
-4.12992
0
LINE
8
BLACK
6
CONTINUOUS
10
5.44882
20
-4.09843
11
5.41732
21
-4.12992
0
LINE
8
BLACK
6
CONTINUOUS
10
5.41732
20
-4.19843
11
5.44882
21
-4.22992
0
LINE
8
BLACK
6
CONTINUOUS
10
5.44882
20
-4.19843
11
5.41732
21
-4.22992
0
LINE
8
BLACK
6
CONTINUOUS
10
5.41732
20
-4.29843
11
5.44882
21
-4.32992
0
LINE
8
BLACK
6
CONTINUOUS
10
5.44882
20
-4.29843
11
5.41732
21
-4.32992
0
LINE
8
BLACK
6
CONTINUOUS
10
5.41732
20
-4.39843
11
5.44882
21
-4.42992
0
LINE
8
BLACK
6
CONTINUOUS
10
5.44882
20
-4.39843
11
5.41732
21
-4.42992
0
LINE
8
BLACK
6
CONTINUOUS
10
5.41732
20
-4.49843
11
5.44882
21
-4.52992
0
LINE
8
BLACK
6
CONTINUOUS
10
5.44882
20
-4.49843
11
5.41732
21
-4.52992
0
LINE
8
BLACK
6
CONTINUOUS
10
5.41732
20
-4.59843
11
5.44882
21
-4.62992
0
LINE
8
BLACK
6
CONTINUOUS
10
5.44882
20
-4.59843
11
5.41732
21
-4.62992
0
LINE
8
BLACK
6
CONTINUOUS
10
5.41732
20
-4.69843
11
5.44882
21
-4.72992
0
LINE
8
BLACK
6
CONTINUOUS
10
5.44882
20
-4.69843
11
5.41732
21
-4.72992
0
LINE
8
BLACK
6
CONTINUOUS
10
5.41732
20
-5.94882
11
5.44882
21
-5.98031
0
LINE
8
BLACK
6
CONTINUOUS
10
5.44882
20
-5.94882
11
5.41732
21
-5.98031
0
LINE
8
BLACK
6
CONTINUOUS
10
5.41732
20
-6.04882
11
5.44882
21
-6.08031
0
LINE
8
BLACK
6
CONTINUOUS
10
5.44882
20
-6.04882
11
5.41732
21
-6.08031
0
LINE
8
BLACK
6
CONTINUOUS
10
5.41732
20
-6.14882
11
5.44882
21
-6.18031
0
LINE
8
BLACK
6
CONTINUOUS
10
5.44882
20
-6.14882
11
5.41732
21
-6.18031
0
LINE
8
BLACK
6
CONTINUOUS
10
5.41732
20
-6.24882
11
5.44882
21
-6.28031
0
LINE
8
BLACK
6
CONTINUOUS
10
5.44882
20
-6.24882
11
5.41732
21
-6.28031
0
LINE
8
BLACK
6
CONTINUOUS
10
5.41732
20
-6.34882
11
5.44882
21
-6.38031
0
LINE
8
BLACK
6
CONTINUOUS
10
5.44882
20
-6.34882
11
5.41732
21
-6.38031
0
LINE
8
BLACK
6
CONTINUOUS
10
5.41732
20
-6.44882
11
5.44882
21
-6.48031
0
LINE
8
BLACK
6
CONTINUOUS
10
5.44882
20
-6.44882
11
5.41732
21
-6.48031
0
LINE
8
BLACK
6
CONTINUOUS
10
5.41732
20
-6.54882
11
5.44882
21
-6.58031
0
LINE
8
BLACK
6
CONTINUOUS
10
5.44882
20
-6.54882
11
5.41732
21
-6.58031
0
LINE
8
BLACK
6
CONTINUOUS
10
5.48425
20
-6.92425
11
5.51575
21
-6.95575
0
LINE
8
BLACK
6
CONTINUOUS
10
5.51575
20
-6.92425
11
5.48425
21
-6.95575
0
LINE
8
BLACK
6
CONTINUOUS
10
5.58425
20
-5.18425
11
5.61575
21
-5.21575
0
LINE
8
BLACK
6
CONTINUOUS
10
5.61575
20
-5.18425
11
5.58425
21
-5.21575
0
LINE
8
BLACK
6
CONTINUOUS
10
5.60925
20
-5.63425
11
5.64075
21
-5.66575
0
LINE
8
BLACK
6
CONTINUOUS
10
5.64075
20
-5.63425
11
5.60925
21
-5.66575
0
LINE
8
BLACK
6
CONTINUOUS
10
5.68425
20
-6.86425
11
5.71575
21
-6.89575
0
LINE
8
BLACK
6
CONTINUOUS
10
5.71575
20
-6.86425
11
5.68425
21
-6.89575
0
LINE
8
BLACK
6
CONTINUOUS
10
5.71732
20
-4.09843
11
5.74882
21
-4.12992
0
LINE
8
BLACK
6
CONTINUOUS
10
5.74882
20
-4.09843
11
5.71732
21
-4.12992
0
LINE
8
BLACK
6
CONTINUOUS
10
5.71732
20
-4.19843
11
5.74882
21
-4.22992
0
LINE
8
BLACK
6
CONTINUOUS
10
5.74882
20
-4.19843
11
5.71732
21
-4.22992
0
LINE
8
BLACK
6
CONTINUOUS
10
5.71732
20
-4.29843
11
5.74882
21
-4.32992
0
LINE
8
BLACK
6
CONTINUOUS
10
5.74882
20
-4.29843
11
5.71732
21
-4.32992
0
LINE
8
BLACK
6
CONTINUOUS
10
5.71732
20
-4.39843
11
5.74882
21
-4.42992
0
LINE
8
BLACK
6
CONTINUOUS
10
5.74882
20
-4.39843
11
5.71732
21
-4.42992
0
LINE
8
BLACK
6
CONTINUOUS
10
5.71732
20
-4.49843
11
5.74882
21
-4.52992
0
LINE
8
BLACK
6
CONTINUOUS
10
5.74882
20
-4.49843
11
5.71732
21
-4.52992
0
LINE
8
BLACK
6
CONTINUOUS
10
5.71732
20
-4.59843
11
5.74882
21
-4.62992
0
LINE
8
BLACK
6
CONTINUOUS
10
5.74882
20
-4.59843
11
5.71732
21
-4.62992
0
LINE
8
BLACK
6
CONTINUOUS
10
5.71732
20
-4.69843
11
5.74882
21
-4.72992
0
LINE
8
BLACK
6
CONTINUOUS
10
5.74882
20
-4.69843
11
5.71732
21
-4.72992
0
LINE
8
BLACK
6
CONTINUOUS
10
5.71732
20
-5.94882
11
5.74882
21
-5.98031
0
LINE
8
BLACK
6
CONTINUOUS
10
5.74882
20
-5.94882
11
5.71732
21
-5.98031
0
LINE
8
BLACK
6
CONTINUOUS
10
5.71732
20
-6.04882
11
5.74882
21
-6.08031
0
LINE
8
BLACK
6
CONTINUOUS
10
5.74882
20
-6.04882
11
5.71732
21
-6.08031
0
LINE
8
BLACK
6
CONTINUOUS
10
5.71732
20
-6.14882
11
5.74882
21
-6.18031
0
LINE
8
BLACK
6
CONTINUOUS
10
5.74882
20
-6.14882
11
5.71732
21
-6.18031
0
LINE
8
BLACK
6
CONTINUOUS
10
5.71732
20
-6.24882
11
5.74882
21
-6.28031
0
LINE
8
BLACK
6
CONTINUOUS
10
5.74882
20
-6.24882
11
5.71732
21
-6.28031
0
LINE
8
BLACK
6
CONTINUOUS
10
5.71732
20
-6.34882
11
5.74882
21
-6.38031
0
LINE
8
BLACK
6
CONTINUOUS
10
5.74882
20
-6.34882
11
5.71732
21
-6.38031
0
LINE
8
BLACK
6
CONTINUOUS
10
5.71732
20
-6.44882
11
5.74882
21
-6.48031
0
LINE
8
BLACK
6
CONTINUOUS
10
5.74882
20
-6.44882
11
5.71732
21
-6.48031
0
LINE
8
BLACK
6
CONTINUOUS
10
5.71732
20
-6.54882
11
5.74882
21
-6.58031
0
LINE
8
BLACK
6
CONTINUOUS
10
5.74882
20
-6.54882
11
5.71732
21
-6.58031
0
LINE
8
BLACK
6
CONTINUOUS
10
5.75925
20
-3.98425
11
5.79075
21
-4.01575
0
LINE
8
BLACK
6
CONTINUOUS
10
5.79075
20
-3.98425
11
5.75925
21
-4.01575
0
LINE
8
BLACK
6
CONTINUOUS
10
5.75925
20
-5.83425
11
5.79075
21
-5.86575
0
LINE
8
BLACK
6
CONTINUOUS
10
5.79075
20
-5.83425
11
5.75925
21
-5.86575
0
LINE
8
BLACK
6
CONTINUOUS
10
5.96425
20
-4.40425
11
5.99575
21
-4.43575
0
LINE
8
BLACK
6
CONTINUOUS
10
5.99575
20
-4.40425
11
5.96425
21
-4.43575
0
LINE
8
BLACK
6
CONTINUOUS
10
5.96425
20
-4.52425
11
5.99575
21
-4.55575
0
LINE
8
BLACK
6
CONTINUOUS
10
5.99575
20
-4.52425
11
5.96425
21
-4.55575
0
LINE
8
BLACK
6
CONTINUOUS
10
6.13425
20
-7.58425
11
6.16575
21
-7.61575
0
LINE
8
BLACK
6
CONTINUOUS
10
6.16575
20
-7.58425
11
6.13425
21
-7.61575
0
LINE
8
BLACK
6
CONTINUOUS
10
6.13425
20
-7.75925
11
6.16575
21
-7.79075
0
LINE
8
BLACK
6
CONTINUOUS
10
6.16575
20
-7.75925
11
6.13425
21
-7.79075
0
LINE
8
BLACK
6
CONTINUOUS
10
6.33425
20
-5.33425
11
6.36575
21
-5.36575
0
LINE
8
BLACK
6
CONTINUOUS
10
6.36575
20
-5.33425
11
6.33425
21
-5.36575
0
LINE
8
BLACK
6
CONTINUOUS
10
6.43425
20
-7.03425
11
6.46575
21
-7.06575
0
LINE
8
BLACK
6
CONTINUOUS
10
6.46575
20
-7.03425
11
6.43425
21
-7.06575
0
LINE
8
BLACK
6
CONTINUOUS
10
6.54425
20
-4.40425
11
6.57575
21
-4.43575
0
LINE
8
BLACK
6
CONTINUOUS
10
6.57575
20
-4.40425
11
6.54425
21
-4.43575
0
LINE
8
BLACK
6
CONTINUOUS
10
6.54425
20
-4.52425
11
6.57575
21
-4.55575
0
LINE
8
BLACK
6
CONTINUOUS
10
6.57575
20
-4.52425
11
6.54425
21
-4.55575
0
LINE
8
BLACK
6
CONTINUOUS
10
6.5937
20
-7.43228
11
6.6252
21
-7.46378
0
LINE
8
BLACK
6
CONTINUOUS
10
6.6252
20
-7.43228
11
6.5937
21
-7.46378
0
LINE
8
BLACK
6
CONTINUOUS
10
6.5937
20
-7.73228
11
6.6252
21
-7.76378
0
LINE
8
BLACK
6
CONTINUOUS
10
6.6252
20
-7.73228
11
6.5937
21
-7.76378
0
LINE
8
BLACK
6
CONTINUOUS
10
6.6937
20
-7.43228
11
6.7252
21
-7.46378
0
LINE
8
BLACK
6
CONTINUOUS
10
6.7252
20
-7.43228
11
6.6937
21
-7.46378
0
LINE
8
BLACK
6
CONTINUOUS
10
6.6937
20
-7.73228
11
6.7252
21
-7.76378
0
LINE
8
BLACK
6
CONTINUOUS
10
6.7252
20
-7.73228
11
6.6937
21
-7.76378
0
LINE
8
BLACK
6
CONTINUOUS
10
6.69685
20
-6.25197
11
6.72835
21
-6.28346
0
LINE
8
BLACK
6
CONTINUOUS
10
6.72835
20
-6.25197
11
6.69685
21
-6.28346
0
LINE
8
BLACK
6
CONTINUOUS
10
6.69685
20
-6.65197
11
6.72835
21
-6.68346
0
LINE
8
BLACK
6
CONTINUOUS
10
6.72835
20
-6.65197
11
6.69685
21
-6.68346
0
LINE
8
BLACK
6
CONTINUOUS
10
6.70925
20
-7.20925
11
6.74075
21
-7.24075
0
LINE
8
BLACK
6
CONTINUOUS
10
6.74075
20
-7.20925
11
6.70925
21
-7.24075
0
LINE
8
BLACK
6
CONTINUOUS
10
6.7937
20
-7.43228
11
6.8252
21
-7.46378
0
LINE
8
BLACK
6
CONTINUOUS
10
6.8252
20
-7.43228
11
6.7937
21
-7.46378
0
LINE
8
BLACK
6
CONTINUOUS
10
6.7937
20
-7.73228
11
6.8252
21
-7.76378
0
LINE
8
BLACK
6
CONTINUOUS
10
6.8252
20
-7.73228
11
6.7937
21
-7.76378
0
LINE
8
BLACK
6
CONTINUOUS
10
6.85925
20
-4.83425
11
6.89075
21
-4.86575
0
LINE
8
BLACK
6
CONTINUOUS
10
6.89075
20
-4.83425
11
6.85925
21
-4.86575
0
LINE
8
BLACK
6
CONTINUOUS
10
6.85925
20
-6.65925
11
6.89075
21
-6.69075
0
LINE
8
BLACK
6
CONTINUOUS
10
6.89075
20
-6.65925
11
6.85925
21
-6.69075
0
LINE
8
BLACK
6
CONTINUOUS
10
6.8937
20
-4.09843
11
6.9252
21
-4.12992
0
LINE
8
BLACK
6
CONTINUOUS
10
6.9252
20
-4.09843
11
6.8937
21
-4.12992
0
LINE
8
BLACK
6
CONTINUOUS
10
6.8937
20
-4.19843
11
6.9252
21
-4.22992
0
LINE
8
BLACK
6
CONTINUOUS
10
6.9252
20
-4.19843
11
6.8937
21
-4.22992
0
LINE
8
BLACK
6
CONTINUOUS
10
6.8937
20
-4.29843
11
6.9252
21
-4.32992
0
LINE
8
BLACK
6
CONTINUOUS
10
6.9252
20
-4.29843
11
6.8937
21
-4.32992
0
LINE
8
BLACK
6
CONTINUOUS
10
6.8937
20
-4.39843
11
6.9252
21
-4.42992
0
LINE
8
BLACK
6
CONTINUOUS
10
6.9252
20
-4.39843
11
6.8937
21
-4.42992
0
LINE
8
BLACK
6
CONTINUOUS
10
6.8937
20
-4.49843
11
6.9252
21
-4.52992
0
LINE
8
BLACK
6
CONTINUOUS
10
6.9252
20
-4.49843
11
6.8937
21
-4.52992
0
LINE
8
BLACK
6
CONTINUOUS
10
6.8937
20
-4.59843
11
6.9252
21
-4.62992
0
LINE
8
BLACK
6
CONTINUOUS
10
6.9252
20
-4.59843
11
6.8937
21
-4.62992
0
LINE
8
BLACK
6
CONTINUOUS
10
6.8937
20
-4.69843
11
6.9252
21
-4.72992
0
LINE
8
BLACK
6
CONTINUOUS
10
6.9252
20
-4.69843
11
6.8937
21
-4.72992
0
LINE
8
BLACK
6
CONTINUOUS
10
6.8937
20
-5.94882
11
6.9252
21
-5.98031
0
LINE
8
BLACK
6
CONTINUOUS
10
6.9252
20
-5.94882
11
6.8937
21
-5.98031
0
LINE
8
BLACK
6
CONTINUOUS
10
6.8937
20
-6.04882
11
6.9252
21
-6.08031
0
LINE
8
BLACK
6
CONTINUOUS
10
6.9252
20
-6.04882
11
6.8937
21
-6.08031
0
LINE
8
BLACK
6
CONTINUOUS
10
6.8937
20
-6.14882
11
6.9252
21
-6.18031
0
LINE
8
BLACK
6
CONTINUOUS
10
6.9252
20
-6.14882
11
6.8937
21
-6.18031
0
LINE
8
BLACK
6
CONTINUOUS
10
6.8937
20
-6.24882
11
6.9252
21
-6.28031
0
LINE
8
BLACK
6
CONTINUOUS
10
6.9252
20
-6.24882
11
6.8937
21
-6.28031
0
LINE
8
BLACK
6
CONTINUOUS
10
6.8937
20
-6.34882
11
6.9252
21
-6.38031
0
LINE
8
BLACK
6
CONTINUOUS
10
6.9252
20
-6.34882
11
6.8937
21
-6.38031
0
LINE
8
BLACK
6
CONTINUOUS
10
6.8937
20
-6.44882
11
6.9252
21
-6.48031
0
LINE
8
BLACK
6
CONTINUOUS
10
6.9252
20
-6.44882
11
6.8937
21
-6.48031
0
LINE
8
BLACK
6
CONTINUOUS
10
6.8937
20
-6.54882
11
6.9252
21
-6.58031
0
LINE
8
BLACK
6
CONTINUOUS
10
6.9252
20
-6.54882
11
6.8937
21
-6.58031
0
LINE
8
BLACK
6
CONTINUOUS
10
6.8937
20
-7.43228
11
6.9252
21
-7.46378
0
LINE
8
BLACK
6
CONTINUOUS
10
6.9252
20
-7.43228
11
6.8937
21
-7.46378
0
LINE
8
BLACK
6
CONTINUOUS
10
6.8937
20
-7.73228
11
6.9252
21
-7.76378
0
LINE
8
BLACK
6
CONTINUOUS
10
6.9252
20
-7.73228
11
6.8937
21
-7.76378
0
LINE
8
BLACK
6
CONTINUOUS
10
6.9937
20
-7.43228
11
7.0252
21
-7.46378
0
LINE
8
BLACK
6
CONTINUOUS
10
7.0252
20
-7.43228
11
6.9937
21
-7.46378
0
LINE
8
BLACK
6
CONTINUOUS
10
6.9937
20
-7.73228
11
7.0252
21
-7.76378
0
LINE
8
BLACK
6
CONTINUOUS
10
7.0252
20
-7.73228
11
6.9937
21
-7.76378
0
LINE
8
BLACK
6
CONTINUOUS
10
7.0937
20
-7.43228
11
7.1252
21
-7.46378
0
LINE
8
BLACK
6
CONTINUOUS
10
7.1252
20
-7.43228
11
7.0937
21
-7.46378
0
LINE
8
BLACK
6
CONTINUOUS
10
7.0937
20
-7.73228
11
7.1252
21
-7.76378
0
LINE
8
BLACK
6
CONTINUOUS
10
7.1252
20
-7.73228
11
7.0937
21
-7.76378
0
LINE
8
BLACK
6
CONTINUOUS
10
7.10925
20
-7.28425
11
7.14075
21
-7.31575
0
LINE
8
BLACK
6
CONTINUOUS
10
7.14075
20
-7.28425
11
7.10925
21
-7.31575
0
LINE
8
BLACK
6
CONTINUOUS
10
7.1937
20
-4.09843
11
7.2252
21
-4.12992
0
LINE
8
BLACK
6
CONTINUOUS
10
7.2252
20
-4.09843
11
7.1937
21
-4.12992
0
LINE
8
BLACK
6
CONTINUOUS
10
7.1937
20
-4.19843
11
7.2252
21
-4.22992
0
LINE
8
BLACK
6
CONTINUOUS
10
7.2252
20
-4.19843
11
7.1937
21
-4.22992
0
LINE
8
BLACK
6
CONTINUOUS
10
7.1937
20
-4.29843
11
7.2252
21
-4.32992
0
LINE
8
BLACK
6
CONTINUOUS
10
7.2252
20
-4.29843
11
7.1937
21
-4.32992
0
LINE
8
BLACK
6
CONTINUOUS
10
7.1937
20
-4.39843
11
7.2252
21
-4.42992
0
LINE
8
BLACK
6
CONTINUOUS
10
7.2252
20
-4.39843
11
7.1937
21
-4.42992
0
LINE
8
BLACK
6
CONTINUOUS
10
7.1937
20
-4.49843
11
7.2252
21
-4.52992
0
LINE
8
BLACK
6
CONTINUOUS
10
7.2252
20
-4.49843
11
7.1937
21
-4.52992
0
LINE
8
BLACK
6
CONTINUOUS
10
7.1937
20
-4.59843
11
7.2252
21
-4.62992
0
LINE
8
BLACK
6
CONTINUOUS
10
7.2252
20
-4.59843
11
7.1937
21
-4.62992
0
LINE
8
BLACK
6
CONTINUOUS
10
7.1937
20
-4.69843
11
7.2252
21
-4.72992
0
LINE
8
BLACK
6
CONTINUOUS
10
7.2252
20
-4.69843
11
7.1937
21
-4.72992
0
LINE
8
BLACK
6
CONTINUOUS
10
7.1937
20
-5.94882
11
7.2252
21
-5.98031
0
LINE
8
BLACK
6
CONTINUOUS
10
7.2252
20
-5.94882
11
7.1937
21
-5.98031
0
LINE
8
BLACK
6
CONTINUOUS
10
7.1937
20
-6.04882
11
7.2252
21
-6.08031
0
LINE
8
BLACK
6
CONTINUOUS
10
7.2252
20
-6.04882
11
7.1937
21
-6.08031
0
LINE
8
BLACK
6
CONTINUOUS
10
7.1937
20
-6.14882
11
7.2252
21
-6.18031
0
LINE
8
BLACK
6
CONTINUOUS
10
7.2252
20
-6.14882
11
7.1937
21
-6.18031
0
LINE
8
BLACK
6
CONTINUOUS
10
7.1937
20
-6.24882
11
7.2252
21
-6.28031
0
LINE
8
BLACK
6
CONTINUOUS
10
7.2252
20
-6.24882
11
7.1937
21
-6.28031
0
LINE
8
BLACK
6
CONTINUOUS
10
7.1937
20
-6.34882
11
7.2252
21
-6.38031
0
LINE
8
BLACK
6
CONTINUOUS
10
7.2252
20
-6.34882
11
7.1937
21
-6.38031
0
LINE
8
BLACK
6
CONTINUOUS
10
7.1937
20
-6.44882
11
7.2252
21
-6.48031
0
LINE
8
BLACK
6
CONTINUOUS
10
7.2252
20
-6.44882
11
7.1937
21
-6.48031
0
LINE
8
BLACK
6
CONTINUOUS
10
7.1937
20
-6.54882
11
7.2252
21
-6.58031
0
LINE
8
BLACK
6
CONTINUOUS
10
7.2252
20
-6.54882
11
7.1937
21
-6.58031
0
LINE
8
BLACK
6
CONTINUOUS
10
7.1937
20
-7.43228
11
7.2252
21
-7.46378
0
LINE
8
BLACK
6
CONTINUOUS
10
7.2252
20
-7.43228
11
7.1937
21
-7.46378
0
LINE
8
BLACK
6
CONTINUOUS
10
7.1937
20
-7.73228
11
7.2252
21
-7.76378
0
LINE
8
BLACK
6
CONTINUOUS
10
7.2252
20
-7.73228
11
7.1937
21
-7.76378
0
LINE
8
BLACK
6
CONTINUOUS
10
7.23425
20
-3.98425
11
7.26575
21
-4.01575
0
LINE
8
BLACK
6
CONTINUOUS
10
7.26575
20
-3.98425
11
7.23425
21
-4.01575
0
LINE
8
BLACK
6
CONTINUOUS
10
7.23425
20
-5.83425
11
7.26575
21
-5.86575
0
LINE
8
BLACK
6
CONTINUOUS
10
7.26575
20
-5.83425
11
7.23425
21
-5.86575
0
LINE
8
BLACK
6
CONTINUOUS
10
7.31843
20
-4.29843
11
7.34992
21
-4.32992
0
LINE
8
BLACK
6
CONTINUOUS
10
7.34992
20
-4.29843
11
7.31843
21
-4.32992
0
LINE
8
BLACK
6
CONTINUOUS
10
7.31843
20
-4.72508
11
7.34992
21
-4.75657
0
LINE
8
BLACK
6
CONTINUOUS
10
7.34992
20
-4.72508
11
7.31843
21
-4.75657
0
LINE
8
BLACK
6
CONTINUOUS
10
7.40925
20
-5.43425
11
7.44075
21
-5.46575
0
LINE
8
BLACK
6
CONTINUOUS
10
7.44075
20
-5.43425
11
7.40925
21
-5.46575
0
LINE
8
BLACK
6
CONTINUOUS
10
7.53425
20
-7.03425
11
7.56575
21
-7.06575
0
LINE
8
BLACK
6
CONTINUOUS
10
7.56575
20
-7.03425
11
7.53425
21
-7.06575
0
LINE
8
BLACK
6
CONTINUOUS
10
7.78425
20
-7.90925
11
7.81575
21
-7.94075
0
LINE
8
BLACK
6
CONTINUOUS
10
7.81575
20
-7.90925
11
7.78425
21
-7.94075
0
LINE
8
BLACK
6
CONTINUOUS
10
7.80425
20
-5.12425
11
7.83575
21
-5.15575
0
LINE
8
BLACK
6
CONTINUOUS
10
7.83575
20
-5.12425
11
7.80425
21
-5.15575
0
LINE
8
BLACK
6
CONTINUOUS
10
8.00925
20
-7.10925
11
8.04075
21
-7.14075
0
LINE
8
BLACK
6
CONTINUOUS
10
8.04075
20
-7.10925
11
8.00925
21
-7.14075
0
LINE
8
BLACK
6
CONTINUOUS
10
8.33425
20
-6.65925
11
8.36575
21
-6.69075
0
LINE
8
BLACK
6
CONTINUOUS
10
8.36575
20
-6.65925
11
8.33425
21
-6.69075
0
LINE
8
BLACK
6
CONTINUOUS
10
8.35925
20
-4.83425
11
8.39075
21
-4.86575
0
LINE
8
BLACK
6
CONTINUOUS
10
8.39075
20
-4.83425
11
8.35925
21
-4.86575
0
LINE
8
BLACK
6
CONTINUOUS
10
8.37008
20
-4.09843
11
8.40157
21
-4.12992
0
LINE
8
BLACK
6
CONTINUOUS
10
8.40157
20
-4.09843
11
8.37008
21
-4.12992
0
LINE
8
BLACK
6
CONTINUOUS
10
8.37008
20
-4.19843
11
8.40157
21
-4.22992
0
LINE
8
BLACK
6
CONTINUOUS
10
8.40157
20
-4.19843
11
8.37008
21
-4.22992
0
LINE
8
BLACK
6
CONTINUOUS
10
8.37008
20
-4.29843
11
8.40157
21
-4.32992
0
LINE
8
BLACK
6
CONTINUOUS
10
8.40157
20
-4.29843
11
8.37008
21
-4.32992
0
LINE
8
BLACK
6
CONTINUOUS
10
8.37008
20
-4.39843
11
8.40157
21
-4.42992
0
LINE
8
BLACK
6
CONTINUOUS
10
8.40157
20
-4.39843
11
8.37008
21
-4.42992
0
LINE
8
BLACK
6
CONTINUOUS
10
8.37008
20
-4.49843
11
8.40157
21
-4.52992
0
LINE
8
BLACK
6
CONTINUOUS
10
8.40157
20
-4.49843
11
8.37008
21
-4.52992
0
LINE
8
BLACK
6
CONTINUOUS
10
8.37008
20
-4.59843
11
8.40157
21
-4.62992
0
LINE
8
BLACK
6
CONTINUOUS
10
8.40157
20
-4.59843
11
8.37008
21
-4.62992
0
LINE
8
BLACK
6
CONTINUOUS
10
8.37008
20
-4.69843
11
8.40157
21
-4.72992
0
LINE
8
BLACK
6
CONTINUOUS
10
8.40157
20
-4.69843
11
8.37008
21
-4.72992
0
LINE
8
BLACK
6
CONTINUOUS
10
8.37008
20
-5.94882
11
8.40157
21
-5.98031
0
LINE
8
BLACK
6
CONTINUOUS
10
8.40157
20
-5.94882
11
8.37008
21
-5.98031
0
LINE
8
BLACK
6
CONTINUOUS
10
8.37008
20
-6.04882
11
8.40157
21
-6.08031
0
LINE
8
BLACK
6
CONTINUOUS
10
8.40157
20
-6.04882
11
8.37008
21
-6.08031
0
LINE
8
BLACK
6
CONTINUOUS
10
8.37008
20
-6.14882
11
8.40157
21
-6.18031
0
LINE
8
BLACK
6
CONTINUOUS
10
8.40157
20
-6.14882
11
8.37008
21
-6.18031
0
LINE
8
BLACK
6
CONTINUOUS
10
8.37008
20
-6.24882
11
8.40157
21
-6.28031
0
LINE
8
BLACK
6
CONTINUOUS
10
8.40157
20
-6.24882
11
8.37008
21
-6.28031
0
LINE
8
BLACK
6
CONTINUOUS
10
8.37008
20
-6.34882
11
8.40157
21
-6.38031
0
LINE
8
BLACK
6
CONTINUOUS
10
8.40157
20
-6.34882
11
8.37008
21
-6.38031
0
LINE
8
BLACK
6
CONTINUOUS
10
8.37008
20
-6.44882
11
8.40157
21
-6.48031
0
LINE
8
BLACK
6
CONTINUOUS
10
8.40157
20
-6.44882
11
8.37008
21
-6.48031
0
LINE
8
BLACK
6
CONTINUOUS
10
8.37008
20
-6.54882
11
8.40157
21
-6.58031
0
LINE
8
BLACK
6
CONTINUOUS
10
8.40157
20
-6.54882
11
8.37008
21
-6.58031
0
LINE
8
BLACK
6
CONTINUOUS
10
8.48425
20
-5.53425
11
8.51575
21
-5.56575
0
LINE
8
BLACK
6
CONTINUOUS
10
8.51575
20
-5.53425
11
8.48425
21
-5.56575
0
LINE
8
BLACK
6
CONTINUOUS
10
8.55925
20
-5.38425
11
8.59075
21
-5.41575
0
LINE
8
BLACK
6
CONTINUOUS
10
8.59075
20
-5.38425
11
8.55925
21
-5.41575
0
LINE
8
BLACK
6
CONTINUOUS
10
8.67008
20
-4.09843
11
8.70157
21
-4.12992
0
LINE
8
BLACK
6
CONTINUOUS
10
8.70157
20
-4.09843
11
8.67008
21
-4.12992
0
LINE
8
BLACK
6
CONTINUOUS
10
8.67008
20
-4.19843
11
8.70157
21
-4.22992
0
LINE
8
BLACK
6
CONTINUOUS
10
8.70157
20
-4.19843
11
8.67008
21
-4.22992
0
LINE
8
BLACK
6
CONTINUOUS
10
8.67008
20
-4.29843
11
8.70157
21
-4.32992
0
LINE
8
BLACK
6
CONTINUOUS
10
8.70157
20
-4.29843
11
8.67008
21
-4.32992
0
LINE
8
BLACK
6
CONTINUOUS
10
8.67008
20
-4.39843
11
8.70157
21
-4.42992
0
LINE
8
BLACK
6
CONTINUOUS
10
8.70157
20
-4.39843
11
8.67008
21
-4.42992
0
LINE
8
BLACK
6
CONTINUOUS
10
8.67008
20
-4.49843
11
8.70157
21
-4.52992
0
LINE
8
BLACK
6
CONTINUOUS
10
8.70157
20
-4.49843
11
8.67008
21
-4.52992
0
LINE
8
BLACK
6
CONTINUOUS
10
8.67008
20
-4.59843
11
8.70157
21
-4.62992
0
LINE
8
BLACK
6
CONTINUOUS
10
8.70157
20
-4.59843
11
8.67008
21
-4.62992
0
LINE
8
BLACK
6
CONTINUOUS
10
8.67008
20
-4.69843
11
8.70157
21
-4.72992
0
LINE
8
BLACK
6
CONTINUOUS
10
8.70157
20
-4.69843
11
8.67008
21
-4.72992
0
LINE
8
BLACK
6
CONTINUOUS
10
8.67008
20
-5.94882
11
8.70157
21
-5.98031
0
LINE
8
BLACK
6
CONTINUOUS
10
8.70157
20
-5.94882
11
8.67008
21
-5.98031
0
LINE
8
BLACK
6
CONTINUOUS
10
8.67008
20
-6.04882
11
8.70157
21
-6.08031
0
LINE
8
BLACK
6
CONTINUOUS
10
8.70157
20
-6.04882
11
8.67008
21
-6.08031
0
LINE
8
BLACK
6
CONTINUOUS
10
8.67008
20
-6.14882
11
8.70157
21
-6.18031
0
LINE
8
BLACK
6
CONTINUOUS
10
8.70157
20
-6.14882
11
8.67008
21
-6.18031
0
LINE
8
BLACK
6
CONTINUOUS
10
8.67008
20
-6.24882
11
8.70157
21
-6.28031
0
LINE
8
BLACK
6
CONTINUOUS
10
8.70157
20
-6.24882
11
8.67008
21
-6.28031
0
LINE
8
BLACK
6
CONTINUOUS
10
8.67008
20
-6.34882
11
8.70157
21
-6.38031
0
LINE
8
BLACK
6
CONTINUOUS
10
8.70157
20
-6.34882
11
8.67008
21
-6.38031
0
LINE
8
BLACK
6
CONTINUOUS
10
8.67008
20
-6.44882
11
8.70157
21
-6.48031
0
LINE
8
BLACK
6
CONTINUOUS
10
8.70157
20
-6.44882
11
8.67008
21
-6.48031
0
LINE
8
BLACK
6
CONTINUOUS
10
8.67008
20
-6.54882
11
8.70157
21
-6.58031
0
LINE
8
BLACK
6
CONTINUOUS
10
8.70157
20
-6.54882
11
8.67008
21
-6.58031
0
LINE
8
BLACK
6
CONTINUOUS
10
8.68425
20
-5.03425
11
8.71575
21
-5.06575
0
LINE
8
BLACK
6
CONTINUOUS
10
8.71575
20
-5.03425
11
8.68425
21
-5.06575
0
LINE
8
BLACK
6
CONTINUOUS
10
8.68425
20
-5.83425
11
8.71575
21
-5.86575
0
LINE
8
BLACK
6
CONTINUOUS
10
8.71575
20
-5.83425
11
8.68425
21
-5.86575
0
LINE
8
BLACK
6
CONTINUOUS
10
8.70925
20
-3.98425
11
8.74075
21
-4.01575
0
LINE
8
BLACK
6
CONTINUOUS
10
8.74075
20
-3.98425
11
8.70925
21
-4.01575
0
LINE
8
BLACK
6
CONTINUOUS
10
8.82425
20
-6.86425
11
8.85575
21
-6.89575
0
LINE
8
BLACK
6
CONTINUOUS
10
8.85575
20
-6.86425
11
8.82425
21
-6.89575
0
LINE
8
BLACK
6
CONTINUOUS
10
8.85925
20
-7.85925
11
8.89075
21
-7.89075
0
LINE
8
BLACK
6
CONTINUOUS
10
8.89075
20
-7.85925
11
8.85925
21
-7.89075
0
LINE
8
BLACK
6
CONTINUOUS
10
8.88425
20
-4.70425
11
8.91575
21
-4.73575
0
LINE
8
BLACK
6
CONTINUOUS
10
8.91575
20
-4.70425
11
8.88425
21
-4.73575
0
LINE
8
BLACK
6
CONTINUOUS
10
9.00425
20
-5.04425
11
9.03575
21
-5.07575
0
LINE
8
BLACK
6
CONTINUOUS
10
9.03575
20
-5.04425
11
9.00425
21
-5.07575
0
LINE
8
BLACK
6
CONTINUOUS
10
9.08425
20
-5.63425
11
9.11575
21
-5.66575
0
LINE
8
BLACK
6
CONTINUOUS
10
9.11575
20
-5.63425
11
9.08425
21
-5.66575
0
LINE
8
BLACK
6
CONTINUOUS
10
9.18425
20
-7.58425
11
9.21575
21
-7.61575
0
LINE
8
BLACK
6
CONTINUOUS
10
9.21575
20
-7.58425
11
9.18425
21
-7.61575
0
LINE
8
BLACK
6
CONTINUOUS
10
9.46425
20
-4.70425
11
9.49575
21
-4.73575
0
LINE
8
BLACK
6
CONTINUOUS
10
9.49575
20
-4.70425
11
9.46425
21
-4.73575
0
LINE
8
BLACK
6
CONTINUOUS
10
9.58425
20
-5.38425
11
9.61575
21
-5.41575
0
LINE
8
BLACK
6
CONTINUOUS
10
9.61575
20
-5.38425
11
9.58425
21
-5.41575
0
LINE
8
BLACK
6
CONTINUOUS
10
9.60925
20
-6.25925
11
9.64075
21
-6.29075
0
LINE
8
BLACK
6
CONTINUOUS
10
9.64075
20
-6.25925
11
9.60925
21
-6.29075
0
LINE
8
BLACK
6
CONTINUOUS
10
9.60925
20
-6.65925
11
9.64075
21
-6.69075
0
LINE
8
BLACK
6
CONTINUOUS
10
9.64075
20
-6.65925
11
9.60925
21
-6.69075
0
LINE
8
BLACK
6
CONTINUOUS
10
9.66634
20
-7.03425
11
9.69784
21
-7.06575
0
LINE
8
BLACK
6
CONTINUOUS
10
9.69784
20
-7.03425
11
9.66634
21
-7.06575
0
LINE
8
BLACK
6
CONTINUOUS
10
9.68425
20
-7.58425
11
9.71575
21
-7.61575
0
LINE
8
BLACK
6
CONTINUOUS
10
9.71575
20
-7.58425
11
9.68425
21
-7.61575
0
LINE
8
BLACK
6
CONTINUOUS
10
9.73425
20
-4.83425
11
9.76575
21
-4.86575
0
LINE
8
BLACK
6
CONTINUOUS
10
9.76575
20
-4.83425
11
9.73425
21
-4.86575
0
LINE
8
BLACK
6
CONTINUOUS
10
9.74803
20
-4.09843
11
9.77953
21
-4.12992
0
LINE
8
BLACK
6
CONTINUOUS
10
9.77953
20
-4.09843
11
9.74803
21
-4.12992
0
LINE
8
BLACK
6
CONTINUOUS
10
9.74803
20
-4.19843
11
9.77953
21
-4.22992
0
LINE
8
BLACK
6
CONTINUOUS
10
9.77953
20
-4.19843
11
9.74803
21
-4.22992
0
LINE
8
BLACK
6
CONTINUOUS
10
9.74803
20
-4.29843
11
9.77953
21
-4.32992
0
LINE
8
BLACK
6
CONTINUOUS
10
9.77953
20
-4.29843
11
9.74803
21
-4.32992
0
LINE
8
BLACK
6
CONTINUOUS
10
9.74803
20
-4.39843
11
9.77953
21
-4.42992
0
LINE
8
BLACK
6
CONTINUOUS
10
9.77953
20
-4.39843
11
9.74803
21
-4.42992
0
LINE
8
BLACK
6
CONTINUOUS
10
9.74803
20
-4.49843
11
9.77953
21
-4.52992
0
LINE
8
BLACK
6
CONTINUOUS
10
9.77953
20
-4.49843
11
9.74803
21
-4.52992
0
LINE
8
BLACK
6
CONTINUOUS
10
9.74803
20
-4.59843
11
9.77953
21
-4.62992
0
LINE
8
BLACK
6
CONTINUOUS
10
9.77953
20
-4.59843
11
9.74803
21
-4.62992
0
LINE
8
BLACK
6
CONTINUOUS
10
9.74803
20
-4.69843
11
9.77953
21
-4.72992
0
LINE
8
BLACK
6
CONTINUOUS
10
9.77953
20
-4.69843
11
9.74803
21
-4.72992
0
LINE
8
BLACK
6
CONTINUOUS
10
9.74803
20
-5.94882
11
9.77953
21
-5.98031
0
LINE
8
BLACK
6
CONTINUOUS
10
9.77953
20
-5.94882
11
9.74803
21
-5.98031
0
LINE
8
BLACK
6
CONTINUOUS
10
9.74803
20
-6.04882
11
9.77953
21
-6.08031
0
LINE
8
BLACK
6
CONTINUOUS
10
9.77953
20
-6.04882
11
9.74803
21
-6.08031
0
LINE
8
BLACK
6
CONTINUOUS
10
9.74803
20
-6.14882
11
9.77953
21
-6.18031
0
LINE
8
BLACK
6
CONTINUOUS
10
9.77953
20
-6.14882
11
9.74803
21
-6.18031
0
LINE
8
BLACK
6
CONTINUOUS
10
9.74803
20
-6.24882
11
9.77953
21
-6.28031
0
LINE
8
BLACK
6
CONTINUOUS
10
9.77953
20
-6.24882
11
9.74803
21
-6.28031
0
LINE
8
BLACK
6
CONTINUOUS
10
9.74803
20
-6.34882
11
9.77953
21
-6.38031
0
LINE
8
BLACK
6
CONTINUOUS
10
9.77953
20
-6.34882
11
9.74803
21
-6.38031
0
LINE
8
BLACK
6
CONTINUOUS
10
9.74803
20
-6.44882
11
9.77953
21
-6.48031
0
LINE
8
BLACK
6
CONTINUOUS
10
9.77953
20
-6.44882
11
9.74803
21
-6.48031
0
LINE
8
BLACK
6
CONTINUOUS
10
9.74803
20
-6.54882
11
9.77953
21
-6.58031
0
LINE
8
BLACK
6
CONTINUOUS
10
9.77953
20
-6.54882
11
9.74803
21
-6.58031
0
LINE
8
BLACK
6
CONTINUOUS
10
9.78425
20
-6.65925
11
9.81575
21
-6.69075
0
LINE
8
BLACK
6
CONTINUOUS
10
9.81575
20
-6.65925
11
9.78425
21
-6.69075
0
LINE
8
BLACK
6
CONTINUOUS
10
9.78425
20
-6.78425
11
9.81575
21
-6.81575
0
LINE
8
BLACK
6
CONTINUOUS
10
9.81575
20
-6.78425
11
9.78425
21
-6.81575
0
LINE
8
BLACK
6
CONTINUOUS
10
9.78425
20
-7.18425
11
9.81575
21
-7.21575
0
LINE
8
BLACK
6
CONTINUOUS
10
9.81575
20
-7.18425
11
9.78425
21
-7.21575
0
LINE
8
BLACK
6
CONTINUOUS
10
9.83425
20
-4.93425
11
9.86575
21
-4.96575
0
LINE
8
BLACK
6
CONTINUOUS
10
9.86575
20
-4.93425
11
9.83425
21
-4.96575
0
LINE
8
BLACK
6
CONTINUOUS
10
10.048
20
-4.09843
11
10.0795
21
-4.12992
0
LINE
8
BLACK
6
CONTINUOUS
10
10.0795
20
-4.09843
11
10.048
21
-4.12992
0
LINE
8
BLACK
6
CONTINUOUS
10
10.048
20
-4.19843
11
10.0795
21
-4.22992
0
LINE
8
BLACK
6
CONTINUOUS
10
10.0795
20
-4.19843
11
10.048
21
-4.22992
0
LINE
8
BLACK
6
CONTINUOUS
10
10.048
20
-4.29843
11
10.0795
21
-4.32992
0
LINE
8
BLACK
6
CONTINUOUS
10
10.0795
20
-4.29843
11
10.048
21
-4.32992
0
LINE
8
BLACK
6
CONTINUOUS
10
10.048
20
-4.39843
11
10.0795
21
-4.42992
0
LINE
8
BLACK
6
CONTINUOUS
10
10.0795
20
-4.39843
11
10.048
21
-4.42992
0
LINE
8
BLACK
6
CONTINUOUS
10
10.048
20
-4.49843
11
10.0795
21
-4.52992
0
LINE
8
BLACK
6
CONTINUOUS
10
10.0795
20
-4.49843
11
10.048
21
-4.52992
0
LINE
8
BLACK
6
CONTINUOUS
10
10.048
20
-4.59843
11
10.0795
21
-4.62992
0
LINE
8
BLACK
6
CONTINUOUS
10
10.0795
20
-4.59843
11
10.048
21
-4.62992
0
LINE
8
BLACK
6
CONTINUOUS
10
10.048
20
-4.69843
11
10.0795
21
-4.72992
0
LINE
8
BLACK
6
CONTINUOUS
10
10.0795
20
-4.69843
11
10.048
21
-4.72992
0
LINE
8
BLACK
6
CONTINUOUS
10
10.048
20
-5.94882
11
10.0795
21
-5.98031
0
LINE
8
BLACK
6
CONTINUOUS
10
10.0795
20
-5.94882
11
10.048
21
-5.98031
0
LINE
8
BLACK
6
CONTINUOUS
10
10.048
20
-6.04882
11
10.0795
21
-6.08031
0
LINE
8
BLACK
6
CONTINUOUS
10
10.0795
20
-6.04882
11
10.048
21
-6.08031
0
LINE
8
BLACK
6
CONTINUOUS
10
10.048
20
-6.14882
11
10.0795
21
-6.18031
0
LINE
8
BLACK
6
CONTINUOUS
10
10.0795
20
-6.14882
11
10.048
21
-6.18031
0
LINE
8
BLACK
6
CONTINUOUS
10
10.048
20
-6.24882
11
10.0795
21
-6.28031
0
LINE
8
BLACK
6
CONTINUOUS
10
10.0795
20
-6.24882
11
10.048
21
-6.28031
0
LINE
8
BLACK
6
CONTINUOUS
10
10.048
20
-6.34882
11
10.0795
21
-6.38031
0
LINE
8
BLACK
6
CONTINUOUS
10
10.0795
20
-6.34882
11
10.048
21
-6.38031
0
LINE
8
BLACK
6
CONTINUOUS
10
10.048
20
-6.44882
11
10.0795
21
-6.48031
0
LINE
8
BLACK
6
CONTINUOUS
10
10.0795
20
-6.44882
11
10.048
21
-6.48031
0
LINE
8
BLACK
6
CONTINUOUS
10
10.048
20
-6.54882
11
10.0795
21
-6.58031
0
LINE
8
BLACK
6
CONTINUOUS
10
10.0795
20
-6.54882
11
10.048
21
-6.58031
0
LINE
8
BLACK
6
CONTINUOUS
10
10.0843
20
-3.98425
11
10.1157
21
-4.01575
0
LINE
8
BLACK
6
CONTINUOUS
10
10.1157
20
-3.98425
11
10.0843
21
-4.01575
0
LINE
8
BLACK
6
CONTINUOUS
10
10.0843
20
-5.83425
11
10.1157
21
-5.86575
0
LINE
8
BLACK
6
CONTINUOUS
10
10.1157
20
-5.83425
11
10.0843
21
-5.86575
0
LINE
8
BLACK
6
CONTINUOUS
10
10.1343
20
-5.53425
11
10.1657
21
-5.56575
0
LINE
8
BLACK
6
CONTINUOUS
10
10.1657
20
-5.53425
11
10.1343
21
-5.56575
0
LINE
8
BLACK
6
CONTINUOUS
10
10.1843
20
-5.04425
11
10.2157
21
-5.07575
0
LINE
8
BLACK
6
CONTINUOUS
10
10.2157
20
-5.04425
11
10.1843
21
-5.07575
0
LINE
8
BLACK
6
CONTINUOUS
10
10.1843
20
-7.05925
11
10.2157
21
-7.09075
0
LINE
8
BLACK
6
CONTINUOUS
10
10.2157
20
-7.05925
11
10.1843
21
-7.09075
0
LINE
8
BLACK
6
CONTINUOUS
10
10.3663
20
-4.93372
11
10.3978
21
-4.96522
0
LINE
8
BLACK
6
CONTINUOUS
10
10.3978
20
-4.93372
11
10.3663
21
-4.96522
0
LINE
8
BLACK
6
CONTINUOUS
10
10.5343
20
-5.33425
11
10.5657
21
-5.36575
0
LINE
8
BLACK
6
CONTINUOUS
10
10.5657
20
-5.33425
11
10.5343
21
-5.36575
0
LINE
8
BLACK
6
CONTINUOUS
10
10.7343
20
-7.05925
11
10.7657
21
-7.09075
0
LINE
8
BLACK
6
CONTINUOUS
10
10.7657
20
-7.05925
11
10.7343
21
-7.09075
0
LINE
8
BLACK
6
CONTINUOUS
10
10.9343
20
-5.33425
11
10.9657
21
-5.36575
0
LINE
8
BLACK
6
CONTINUOUS
10
10.9657
20
-5.33425
11
10.9343
21
-5.36575
0
LINE
8
BLACK
6
CONTINUOUS
10
11.0093
20
-4.83425
11
11.0407
21
-4.86575
0
LINE
8
BLACK
6
CONTINUOUS
10
11.0407
20
-4.83425
11
11.0093
21
-4.86575
0
LINE
8
BLACK
6
CONTINUOUS
10
11.0093
20
-6.65925
11
11.0407
21
-6.69075
0
LINE
8
BLACK
6
CONTINUOUS
10
11.0407
20
-6.65925
11
11.0093
21
-6.69075
0
LINE
8
BLACK
6
CONTINUOUS
10
11.2443
20
-5.84917
11
11.2758
21
-5.88067
0
LINE
8
BLACK
6
CONTINUOUS
10
11.2758
20
-5.84917
11
11.2443
21
-5.88067
0
LINE
8
BLACK
6
CONTINUOUS
10
11.2443
20
-7.87417
11
11.2758
21
-7.90567
0
LINE
8
BLACK
6
CONTINUOUS
10
11.2758
20
-7.87417
11
11.2443
21
-7.90567
0
LINE
8
BLACK
6
CONTINUOUS
10
11.2593
20
-3.98425
11
11.2907
21
-4.01575
0
LINE
8
BLACK
6
CONTINUOUS
10
11.2907
20
-3.98425
11
11.2593
21
-4.01575
0
CIRCLE
8
BLACK
10
3.30472
20
-4.85
40
0.019685
0
CIRCLE
8
BLACK
10
3.30472
20
-6.675
40
0.019685
0
CIRCLE
8
BLACK
10
3.6
20
-4.85
40
0.019685
0
CIRCLE
8
BLACK
10
3.6
20
-6.675
40
0.019685
0
CIRCLE
8
BLACK
10
4.16
20
-6.78
40
0.019685
0
CIRCLE
8
BLACK
10
4.26
20
-6.78
40
0.019685
0
CIRCLE
8
BLACK
10
4.36
20
-6.78
40
0.019685
0
CIRCLE
8
BLACK
10
5.5
20
-6.78
40
0.019685
0
CIRCLE
8
BLACK
10
5.6
20
-6.78
40
0.019685
0
CIRCLE
8
BLACK
10
5.7
20
-6.78
40
0.019685
0
CIRCLE
8
BLACK
10
10.975
20
-7.6
40
0.019685
0
CIRCLE
8
BLACK
10
11.025
20
-4.40472
40
0.019685
0
CIRCLE
8
BLACK
10
11.025
20
-4.7
40
0.019685
0
CIRCLE
8
BLACK
10
11.2703
20
-7.6
40
0.019685
0
LINE
8
BLACK
6
CONTINUOUS
10
2.95276
20
-2.41732
11
2.95276
21
-2.54331
0
LINE
8
BLACK
6
CONTINUOUS
10
2.88976
20
-2.48031
11
3.01575
21
-2.48031
0
LINE
8
BLACK
6
CONTINUOUS
10
6.49606
20
-2.41732
11
6.49606
21
-2.54331
0
LINE
8
BLACK
6
CONTINUOUS
10
6.43307
20
-2.48031
11
6.55906
21
-2.48031
0
LINE
8
BLACK
6
CONTINUOUS
10
7.67717
20
-2.41732
11
7.67717
21
-2.54331
0
LINE
8
BLACK
6
CONTINUOUS
10
7.61417
20
-2.48031
11
7.74016
21
-2.48031
0
LINE
8
BLACK
6
CONTINUOUS
10
11.2205
20
-2.41732
11
11.2205
21
-2.54331
0
LINE
8
BLACK
6
CONTINUOUS
10
11.1575
20
-2.48031
11
11.2835
21
-2.48031
0
LINE
8
BLACK
6
CONTINUOUS
10
2.86769
20
-8.84575
11
2.86769
21
-8.72764
0
LINE
8
BLACK
6
CONTINUOUS
10
2.86769
20
-8.72764
11
2.89581
21
-8.72764
0
LINE
8
BLACK
6
CONTINUOUS
10
2.89581
20
-8.72764
11
2.91268
21
-8.73327
0
LINE
8
BLACK
6
CONTINUOUS
10
2.91268
20
-8.73327
11
2.92393
21
-8.74452
0
LINE
8
BLACK
6
CONTINUOUS
10
2.92393
20
-8.74452
11
2.92956
21
-8.75576
0
LINE
8
BLACK
6
CONTINUOUS
10
2.92956
20
-8.75576
11
2.93518
21
-8.77826
0
LINE
8
BLACK
6
CONTINUOUS
10
2.93518
20
-8.77826
11
2.93518
21
-8.79514
0
LINE
8
BLACK
6
CONTINUOUS
10
2.93518
20
-8.79514
11
2.92956
21
-8.81763
0
LINE
8
BLACK
6
CONTINUOUS
10
2.92956
20
-8.81763
11
2.92393
21
-8.82888
0
LINE
8
BLACK
6
CONTINUOUS
10
2.92393
20
-8.82888
11
2.91268
21
-8.84013
0
LINE
8
BLACK
6
CONTINUOUS
10
2.91268
20
-8.84013
11
2.89581
21
-8.84575
0
LINE
8
BLACK
6
CONTINUOUS
10
2.89581
20
-8.84575
11
2.86769
21
-8.84575
0
LINE
8
BLACK
6
CONTINUOUS
10
2.9858
20
-8.84575
11
2.9858
21
-8.76701
0
LINE
8
BLACK
6
CONTINUOUS
10
2.9858
20
-8.78951
11
2.99142
21
-8.77826
0
LINE
8
BLACK
6
CONTINUOUS
10
2.99142
20
-8.77826
11
2.99705
21
-8.77264
0
LINE
8
BLACK
6
CONTINUOUS
10
2.99705
20
-8.77264
11
3.0083
21
-8.76701
0
LINE
8
BLACK
6
CONTINUOUS
10
3.0083
20
-8.76701
11
3.01954
21
-8.76701
0
LINE
8
BLACK
6
CONTINUOUS
10
3.05891
20
-8.84575
11
3.05891
21
-8.76701
0
LINE
8
BLACK
6
CONTINUOUS
10
3.05891
20
-8.72764
11
3.05329
21
-8.73327
0
LINE
8
BLACK
6
CONTINUOUS
10
3.05329
20
-8.73327
11
3.05891
21
-8.73889
0
LINE
8
BLACK
6
CONTINUOUS
10
3.05891
20
-8.73889
11
3.06454
21
-8.73327
0
LINE
8
BLACK
6
CONTINUOUS
10
3.06454
20
-8.73327
11
3.05891
21
-8.72764
0
LINE
8
BLACK
6
CONTINUOUS
10
3.05891
20
-8.72764
11
3.05891
21
-8.73889
0
LINE
8
BLACK
6
CONTINUOUS
10
3.13203
20
-8.84575
11
3.12078
21
-8.84013
0
LINE
8
BLACK
6
CONTINUOUS
10
3.12078
20
-8.84013
11
3.11516
21
-8.82888
0
LINE
8
BLACK
6
CONTINUOUS
10
3.11516
20
-8.82888
11
3.11516
21
-8.72764
0
LINE
8
BLACK
6
CONTINUOUS
10
3.1939
20
-8.84575
11
3.18265
21
-8.84013
0
LINE
8
BLACK
6
CONTINUOUS
10
3.18265
20
-8.84013
11
3.17702
21
-8.82888
0
LINE
8
BLACK
6
CONTINUOUS
10
3.17702
20
-8.82888
11
3.17702
21
-8.72764
0
LINE
8
BLACK
6
CONTINUOUS
10
3.32888
20
-8.84575
11
3.32888
21
-8.72764
0
LINE
8
BLACK
6
CONTINUOUS
10
3.32888
20
-8.72764
11
3.36825
21
-8.81201
0
LINE
8
BLACK
6
CONTINUOUS
10
3.36825
20
-8.81201
11
3.40762
21
-8.72764
0
LINE
8
BLACK
6
CONTINUOUS
10
3.40762
20
-8.72764
11
3.40762
21
-8.84575
0
LINE
8
BLACK
6
CONTINUOUS
10
3.51448
20
-8.84575
11
3.51448
21
-8.78389
0
LINE
8
BLACK
6
CONTINUOUS
10
3.51448
20
-8.78389
11
3.50886
21
-8.77264
0
LINE
8
BLACK
6
CONTINUOUS
10
3.50886
20
-8.77264
11
3.49761
21
-8.76701
0
LINE
8
BLACK
6
CONTINUOUS
10
3.49761
20
-8.76701
11
3.47511
21
-8.76701
0
LINE
8
BLACK
6
CONTINUOUS
10
3.47511
20
-8.76701
11
3.46386
21
-8.77264
0
LINE
8
BLACK
6
CONTINUOUS
10
3.51448
20
-8.84013
11
3.50323
21
-8.84575
0
LINE
8
BLACK
6
CONTINUOUS
10
3.50323
20
-8.84575
11
3.47511
21
-8.84575
0
LINE
8
BLACK
6
CONTINUOUS
10
3.47511
20
-8.84575
11
3.46386
21
-8.84013
0
LINE
8
BLACK
6
CONTINUOUS
10
3.46386
20
-8.84013
11
3.45824
21
-8.82888
0
LINE
8
BLACK
6
CONTINUOUS
10
3.45824
20
-8.82888
11
3.45824
21
-8.81763
0
LINE
8
BLACK
6
CONTINUOUS
10
3.45824
20
-8.81763
11
3.46386
21
-8.80638
0
LINE
8
BLACK
6
CONTINUOUS
10
3.46386
20
-8.80638
11
3.47511
21
-8.80076
0
LINE
8
BLACK
6
CONTINUOUS
10
3.47511
20
-8.80076
11
3.50323
21
-8.80076
0
LINE
8
BLACK
6
CONTINUOUS
10
3.50323
20
-8.80076
11
3.51448
21
-8.79514
0
LINE
8
BLACK
6
CONTINUOUS
10
3.57073
20
-8.76701
11
3.57073
21
-8.88512
0
LINE
8
BLACK
6
CONTINUOUS
10
3.57073
20
-8.77264
11
3.58197
21
-8.76701
0
LINE
8
BLACK
6
CONTINUOUS
10
3.58197
20
-8.76701
11
3.60447
21
-8.76701
0
LINE
8
BLACK
6
CONTINUOUS
10
3.60447
20
-8.76701
11
3.61572
21
-8.77264
0
LINE
8
BLACK
6
CONTINUOUS
10
3.61572
20
-8.77264
11
3.62134
21
-8.77826
0
LINE
8
BLACK
6
CONTINUOUS
10
3.62134
20
-8.77826
11
3.62697
21
-8.78951
0
LINE
8
BLACK
6
CONTINUOUS
10
3.62697
20
-8.78951
11
3.62697
21
-8.82326
0
LINE
8
BLACK
6
CONTINUOUS
10
3.62697
20
-8.82326
11
3.62134
21
-8.83451
0
LINE
8
BLACK
6
CONTINUOUS
10
3.62134
20
-8.83451
11
3.61572
21
-8.84013
0
LINE
8
BLACK
6
CONTINUOUS
10
3.61572
20
-8.84013
11
3.60447
21
-8.84575
0
LINE
8
BLACK
6
CONTINUOUS
10
3.60447
20
-8.84575
11
3.58197
21
-8.84575
0
LINE
8
BLACK
6
CONTINUOUS
10
3.58197
20
-8.84575
11
3.57073
21
-8.84013
0
LINE
8
BLACK
6
CONTINUOUS
10
3.67759
20
-8.83451
11
3.68321
21
-8.84013
0
LINE
8
BLACK
6
CONTINUOUS
10
3.68321
20
-8.84013
11
3.67759
21
-8.84575
0
LINE
8
BLACK
6
CONTINUOUS
10
3.67759
20
-8.84575
11
3.67196
21
-8.84013
0
LINE
8
BLACK
6
CONTINUOUS
10
3.67196
20
-8.84013
11
3.67759
21
-8.83451
0
LINE
8
BLACK
6
CONTINUOUS
10
3.67759
20
-8.83451
11
3.67759
21
-8.84575
0
LINE
8
BLACK
6
CONTINUOUS
10
3.67759
20
-8.77264
11
3.68321
21
-8.77826
0
LINE
8
BLACK
6
CONTINUOUS
10
3.68321
20
-8.77826
11
3.67759
21
-8.78389
0
LINE
8
BLACK
6
CONTINUOUS
10
3.67759
20
-8.78389
11
3.67196
21
-8.77826
0
LINE
8
BLACK
6
CONTINUOUS
10
3.67196
20
-8.77826
11
3.67759
21
-8.77264
0
LINE
8
BLACK
6
CONTINUOUS
10
3.67759
20
-8.77264
11
3.67759
21
-8.78389
0
LINE
8
BLACK
6
CONTINUOUS
10
2.72343
20
-9.02461
11
2.75492
21
-9.0561
0
LINE
8
BLACK
6
CONTINUOUS
10
2.75492
20
-9.02461
11
2.72343
21
-9.0561
0
LINE
8
BLACK
6
CONTINUOUS
10
2.89019
20
-8.97567
11
2.90143
21
-8.97567
0
LINE
8
BLACK
6
CONTINUOUS
10
2.90143
20
-8.97567
11
2.91268
21
-8.9813
0
LINE
8
BLACK
6
CONTINUOUS
10
2.91268
20
-8.9813
11
2.91831
21
-8.98692
0
LINE
8
BLACK
6
CONTINUOUS
10
2.91831
20
-8.98692
11
2.92393
21
-8.99817
0
LINE
8
BLACK
6
CONTINUOUS
10
2.92393
20
-8.99817
11
2.92956
21
-9.02067
0
LINE
8
BLACK
6
CONTINUOUS
10
2.92956
20
-9.02067
11
2.92956
21
-9.04879
0
LINE
8
BLACK
6
CONTINUOUS
10
2.92956
20
-9.04879
11
2.92393
21
-9.07129
0
LINE
8
BLACK
6
CONTINUOUS
10
2.92393
20
-9.07129
11
2.91831
21
-9.08254
0
LINE
8
BLACK
6
CONTINUOUS
10
2.91831
20
-9.08254
11
2.91268
21
-9.08816
0
LINE
8
BLACK
6
CONTINUOUS
10
2.91268
20
-9.08816
11
2.90143
21
-9.09379
0
LINE
8
BLACK
6
CONTINUOUS
10
2.90143
20
-9.09379
11
2.89019
21
-9.09379
0
LINE
8
BLACK
6
CONTINUOUS
10
2.89019
20
-9.09379
11
2.87894
21
-9.08816
0
LINE
8
BLACK
6
CONTINUOUS
10
2.87894
20
-9.08816
11
2.87331
21
-9.08254
0
LINE
8
BLACK
6
CONTINUOUS
10
2.87331
20
-9.08254
11
2.86769
21
-9.07129
0
LINE
8
BLACK
6
CONTINUOUS
10
2.86769
20
-9.07129
11
2.86206
21
-9.04879
0
LINE
8
BLACK
6
CONTINUOUS
10
2.86206
20
-9.04879
11
2.86206
21
-9.02067
0
LINE
8
BLACK
6
CONTINUOUS
10
2.86206
20
-9.02067
11
2.86769
21
-8.99817
0
LINE
8
BLACK
6
CONTINUOUS
10
2.86769
20
-8.99817
11
2.87331
21
-8.98692
0
LINE
8
BLACK
6
CONTINUOUS
10
2.87331
20
-8.98692
11
2.87894
21
-8.9813
0
LINE
8
BLACK
6
CONTINUOUS
10
2.87894
20
-8.9813
11
2.89019
21
-8.97567
0
LINE
8
BLACK
6
CONTINUOUS
10
2.98017
20
-9.08254
11
2.9858
21
-9.08816
0
LINE
8
BLACK
6
CONTINUOUS
10
2.9858
20
-9.08816
11
2.98017
21
-9.09379
0
LINE
8
BLACK
6
CONTINUOUS
10
2.98017
20
-9.09379
11
2.97455
21
-9.08816
0
LINE
8
BLACK
6
CONTINUOUS
10
2.97455
20
-9.08816
11
2.98017
21
-9.08254
0
LINE
8
BLACK
6
CONTINUOUS
10
2.98017
20
-9.08254
11
2.98017
21
-9.09379
0
LINE
8
BLACK
6
CONTINUOUS
10
3.05329
20
-9.02629
11
3.04204
21
-9.02067
0
LINE
8
BLACK
6
CONTINUOUS
10
3.04204
20
-9.02067
11
3.03642
21
-9.01505
0
LINE
8
BLACK
6
CONTINUOUS
10
3.03642
20
-9.01505
11
3.03079
21
-9.0038
0
LINE
8
BLACK
6
CONTINUOUS
10
3.03079
20
-9.0038
11
3.03079
21
-8.99817
0
LINE
8
BLACK
6
CONTINUOUS
10
3.03079
20
-8.99817
11
3.03642
21
-8.98692
0
LINE
8
BLACK
6
CONTINUOUS
10
3.03642
20
-8.98692
11
3.04204
21
-8.9813
0
LINE
8
BLACK
6
CONTINUOUS
10
3.04204
20
-8.9813
11
3.05329
21
-8.97567
0
LINE
8
BLACK
6
CONTINUOUS
10
3.05329
20
-8.97567
11
3.07579
21
-8.97567
0
LINE
8
BLACK
6
CONTINUOUS
10
3.07579
20
-8.97567
11
3.08704
21
-8.9813
0
LINE
8
BLACK
6
CONTINUOUS
10
3.08704
20
-8.9813
11
3.09266
21
-8.98692
0
LINE
8
BLACK
6
CONTINUOUS
10
3.09266
20
-8.98692
11
3.09828
21
-8.99817
0
LINE
8
BLACK
6
CONTINUOUS
10
3.09828
20
-8.99817
11
3.09828
21
-9.0038
0
LINE
8
BLACK
6
CONTINUOUS
10
3.09828
20
-9.0038
11
3.09266
21
-9.01505
0
LINE
8
BLACK
6
CONTINUOUS
10
3.09266
20
-9.01505
11
3.08704
21
-9.02067
0
LINE
8
BLACK
6
CONTINUOUS
10
3.08704
20
-9.02067
11
3.07579
21
-9.02629
0
LINE
8
BLACK
6
CONTINUOUS
10
3.07579
20
-9.02629
11
3.05329
21
-9.02629
0
LINE
8
BLACK
6
CONTINUOUS
10
3.05329
20
-9.02629
11
3.04204
21
-9.03192
0
LINE
8
BLACK
6
CONTINUOUS
10
3.04204
20
-9.03192
11
3.03642
21
-9.03754
0
LINE
8
BLACK
6
CONTINUOUS
10
3.03642
20
-9.03754
11
3.03079
21
-9.04879
0
LINE
8
BLACK
6
CONTINUOUS
10
3.03079
20
-9.04879
11
3.03079
21
-9.07129
0
LINE
8
BLACK
6
CONTINUOUS
10
3.03079
20
-9.07129
11
3.03642
21
-9.08254
0
LINE
8
BLACK
6
CONTINUOUS
10
3.03642
20
-9.08254
11
3.04204
21
-9.08816
0
LINE
8
BLACK
6
CONTINUOUS
10
3.04204
20
-9.08816
11
3.05329
21
-9.09379
0
LINE
8
BLACK
6
CONTINUOUS
10
3.05329
20
-9.09379
11
3.07579
21
-9.09379
0
LINE
8
BLACK
6
CONTINUOUS
10
3.07579
20
-9.09379
11
3.08704
21
-9.08816
0
LINE
8
BLACK
6
CONTINUOUS
10
3.08704
20
-9.08816
11
3.09266
21
-9.08254
0
LINE
8
BLACK
6
CONTINUOUS
10
3.09266
20
-9.08254
11
3.09828
21
-9.07129
0
LINE
8
BLACK
6
CONTINUOUS
10
3.09828
20
-9.07129
11
3.09828
21
-9.04879
0
LINE
8
BLACK
6
CONTINUOUS
10
3.09828
20
-9.04879
11
3.09266
21
-9.03754
0
LINE
8
BLACK
6
CONTINUOUS
10
3.09266
20
-9.03754
11
3.08704
21
-9.03192
0
LINE
8
BLACK
6
CONTINUOUS
10
3.08704
20
-9.03192
11
3.07579
21
-9.02629
0
LINE
8
BLACK
6
CONTINUOUS
10
3.1714
20
-8.97567
11
3.18265
21
-8.97567
0
LINE
8
BLACK
6
CONTINUOUS
10
3.18265
20
-8.97567
11
3.1939
21
-8.9813
0
LINE
8
BLACK
6
CONTINUOUS
10
3.1939
20
-8.9813
11
3.19952
21
-8.98692
0
LINE
8
BLACK
6
CONTINUOUS
10
3.19952
20
-8.98692
11
3.20515
21
-8.99817
0
LINE
8
BLACK
6
CONTINUOUS
10
3.20515
20
-8.99817
11
3.21077
21
-9.02067
0
LINE
8
BLACK
6
CONTINUOUS
10
3.21077
20
-9.02067
11
3.21077
21
-9.04879
0
LINE
8
BLACK
6
CONTINUOUS
10
3.21077
20
-9.04879
11
3.20515
21
-9.07129
0
LINE
8
BLACK
6
CONTINUOUS
10
3.20515
20
-9.07129
11
3.19952
21
-9.08254
0
LINE
8
BLACK
6
CONTINUOUS
10
3.19952
20
-9.08254
11
3.1939
21
-9.08816
0
LINE
8
BLACK
6
CONTINUOUS
10
3.1939
20
-9.08816
11
3.18265
21
-9.09379
0
LINE
8
BLACK
6
CONTINUOUS
10
3.18265
20
-9.09379
11
3.1714
21
-9.09379
0
LINE
8
BLACK
6
CONTINUOUS
10
3.1714
20
-9.09379
11
3.16015
21
-9.08816
0
LINE
8
BLACK
6
CONTINUOUS
10
3.16015
20
-9.08816
11
3.15453
21
-9.08254
0
LINE
8
BLACK
6
CONTINUOUS
10
3.15453
20
-9.08254
11
3.1489
21
-9.07129
0
LINE
8
BLACK
6
CONTINUOUS
10
3.1489
20
-9.07129
11
3.14328
21
-9.04879
0
LINE
8
BLACK
6
CONTINUOUS
10
3.14328
20
-9.04879
11
3.14328
21
-9.02067
0
LINE
8
BLACK
6
CONTINUOUS
10
3.14328
20
-9.02067
11
3.1489
21
-8.99817
0
LINE
8
BLACK
6
CONTINUOUS
10
3.1489
20
-8.99817
11
3.15453
21
-8.98692
0
LINE
8
BLACK
6
CONTINUOUS
10
3.15453
20
-8.98692
11
3.16015
21
-8.9813
0
LINE
8
BLACK
6
CONTINUOUS
10
3.16015
20
-8.9813
11
3.1714
21
-8.97567
0
LINE
8
BLACK
6
CONTINUOUS
10
3.28389
20
-8.97567
11
3.29513
21
-8.97567
0
LINE
8
BLACK
6
CONTINUOUS
10
3.29513
20
-8.97567
11
3.30638
21
-8.9813
0
LINE
8
BLACK
6
CONTINUOUS
10
3.30638
20
-8.9813
11
3.31201
21
-8.98692
0
LINE
8
BLACK
6
CONTINUOUS
10
3.31201
20
-8.98692
11
3.31763
21
-8.99817
0
LINE
8
BLACK
6
CONTINUOUS
10
3.31763
20
-8.99817
11
3.32326
21
-9.02067
0
LINE
8
BLACK
6
CONTINUOUS
10
3.32326
20
-9.02067
11
3.32326
21
-9.04879
0
LINE
8
BLACK
6
CONTINUOUS
10
3.32326
20
-9.04879
11
3.31763
21
-9.07129
0
LINE
8
BLACK
6
CONTINUOUS
10
3.31763
20
-9.07129
11
3.31201
21
-9.08254
0
LINE
8
BLACK
6
CONTINUOUS
10
3.31201
20
-9.08254
11
3.30638
21
-9.08816
0
LINE
8
BLACK
6
CONTINUOUS
10
3.30638
20
-9.08816
11
3.29513
21
-9.09379
0
LINE
8
BLACK
6
CONTINUOUS
10
3.29513
20
-9.09379
11
3.28389
21
-9.09379
0
LINE
8
BLACK
6
CONTINUOUS
10
3.28389
20
-9.09379
11
3.27264
21
-9.08816
0
LINE
8
BLACK
6
CONTINUOUS
10
3.27264
20
-9.08816
11
3.26701
21
-9.08254
0
LINE
8
BLACK
6
CONTINUOUS
10
3.26701
20
-9.08254
11
3.26139
21
-9.07129
0
LINE
8
BLACK
6
CONTINUOUS
10
3.26139
20
-9.07129
11
3.25576
21
-9.04879
0
LINE
8
BLACK
6
CONTINUOUS
10
3.25576
20
-9.04879
11
3.25576
21
-9.02067
0
LINE
8
BLACK
6
CONTINUOUS
10
3.25576
20
-9.02067
11
3.26139
21
-8.99817
0
LINE
8
BLACK
6
CONTINUOUS
10
3.26139
20
-8.99817
11
3.26701
21
-8.98692
0
LINE
8
BLACK
6
CONTINUOUS
10
3.26701
20
-8.98692
11
3.27264
21
-8.9813
0
LINE
8
BLACK
6
CONTINUOUS
10
3.27264
20
-8.9813
11
3.28389
21
-8.97567
0
LINE
8
BLACK
6
CONTINUOUS
10
3.37388
20
-9.09379
11
3.37388
21
-9.01505
0
LINE
8
BLACK
6
CONTINUOUS
10
3.37388
20
-9.02629
11
3.3795
21
-9.02067
0
LINE
8
BLACK
6
CONTINUOUS
10
3.3795
20
-9.02067
11
3.39075
21
-9.01505
0
LINE
8
BLACK
6
CONTINUOUS
10
3.39075
20
-9.01505
11
3.40762
21
-9.01505
0
LINE
8
BLACK
6
CONTINUOUS
10
3.40762
20
-9.01505
11
3.41887
21
-9.02067
0
LINE
8
BLACK
6
CONTINUOUS
10
3.41887
20
-9.02067
11
3.42449
21
-9.03192
0
LINE
8
BLACK
6
CONTINUOUS
10
3.42449
20
-9.03192
11
3.42449
21
-9.09379
0
LINE
8
BLACK
6
CONTINUOUS
10
3.42449
20
-9.03192
11
3.43012
21
-9.02067
0
LINE
8
BLACK
6
CONTINUOUS
10
3.43012
20
-9.02067
11
3.44137
21
-9.01505
0
LINE
8
BLACK
6
CONTINUOUS
10
3.44137
20
-9.01505
11
3.45824
21
-9.01505
0
LINE
8
BLACK
6
CONTINUOUS
10
3.45824
20
-9.01505
11
3.46949
21
-9.02067
0
LINE
8
BLACK
6
CONTINUOUS
10
3.46949
20
-9.02067
11
3.47511
21
-9.03192
0
LINE
8
BLACK
6
CONTINUOUS
10
3.47511
20
-9.03192
11
3.47511
21
-9.09379
0
LINE
8
BLACK
6
CONTINUOUS
10
3.53136
20
-9.09379
11
3.53136
21
-9.01505
0
LINE
8
BLACK
6
CONTINUOUS
10
3.53136
20
-9.02629
11
3.53698
21
-9.02067
0
LINE
8
BLACK
6
CONTINUOUS
10
3.53698
20
-9.02067
11
3.54823
21
-9.01505
0
LINE
8
BLACK
6
CONTINUOUS
10
3.54823
20
-9.01505
11
3.5651
21
-9.01505
0
LINE
8
BLACK
6
CONTINUOUS
10
3.5651
20
-9.01505
11
3.57635
21
-9.02067
0
LINE
8
BLACK
6
CONTINUOUS
10
3.57635
20
-9.02067
11
3.58197
21
-9.03192
0
LINE
8
BLACK
6
CONTINUOUS
10
3.58197
20
-9.03192
11
3.58197
21
-9.09379
0
LINE
8
BLACK
6
CONTINUOUS
10
3.58197
20
-9.03192
11
3.5876
21
-9.02067
0
LINE
8
BLACK
6
CONTINUOUS
10
3.5876
20
-9.02067
11
3.59885
21
-9.01505
0
LINE
8
BLACK
6
CONTINUOUS
10
3.59885
20
-9.01505
11
3.61572
21
-9.01505
0
LINE
8
BLACK
6
CONTINUOUS
10
3.61572
20
-9.01505
11
3.62697
21
-9.02067
0
LINE
8
BLACK
6
CONTINUOUS
10
3.62697
20
-9.02067
11
3.63259
21
-9.03192
0
LINE
8
BLACK
6
CONTINUOUS
10
3.63259
20
-9.03192
11
3.63259
21
-9.09379
0
LINE
8
BLACK
6
CONTINUOUS
10
3.86319
20
-8.97005
11
3.76195
21
-9.12191
0
LINE
8
BLACK
6
CONTINUOUS
10
4.01504
20
-8.97567
11
4.02629
21
-8.97567
0
LINE
8
BLACK
6
CONTINUOUS
10
4.02629
20
-8.97567
11
4.03754
21
-8.9813
0
LINE
8
BLACK
6
CONTINUOUS
10
4.03754
20
-8.9813
11
4.04317
21
-8.98692
0
LINE
8
BLACK
6
CONTINUOUS
10
4.04317
20
-8.98692
11
4.04879
21
-8.99817
0
LINE
8
BLACK
6
CONTINUOUS
10
4.04879
20
-8.99817
11
4.05441
21
-9.02067
0
LINE
8
BLACK
6
CONTINUOUS
10
4.05441
20
-9.02067
11
4.05441
21
-9.04879
0
LINE
8
BLACK
6
CONTINUOUS
10
4.05441
20
-9.04879
11
4.04879
21
-9.07129
0
LINE
8
BLACK
6
CONTINUOUS
10
4.04879
20
-9.07129
11
4.04317
21
-9.08254
0
LINE
8
BLACK
6
CONTINUOUS
10
4.04317
20
-9.08254
11
4.03754
21
-9.08816
0
LINE
8
BLACK
6
CONTINUOUS
10
4.03754
20
-9.08816
11
4.02629
21
-9.09379
0
LINE
8
BLACK
6
CONTINUOUS
10
4.02629
20
-9.09379
11
4.01504
21
-9.09379
0
LINE
8
BLACK
6
CONTINUOUS
10
4.01504
20
-9.09379
11
4.0038
21
-9.08816
0
LINE
8
BLACK
6
CONTINUOUS
10
4.0038
20
-9.08816
11
3.99817
21
-9.08254
0
LINE
8
BLACK
6
CONTINUOUS
10
3.99817
20
-9.08254
11
3.99255
21
-9.07129
0
LINE
8
BLACK
6
CONTINUOUS
10
3.99255
20
-9.07129
11
3.98692
21
-9.04879
0
LINE
8
BLACK
6
CONTINUOUS
10
3.98692
20
-9.04879
11
3.98692
21
-9.02067
0
LINE
8
BLACK
6
CONTINUOUS
10
3.98692
20
-9.02067
11
3.99255
21
-8.99817
0
LINE
8
BLACK
6
CONTINUOUS
10
3.99255
20
-8.99817
11
3.99817
21
-8.98692
0
LINE
8
BLACK
6
CONTINUOUS
10
3.99817
20
-8.98692
11
4.0038
21
-8.9813
0
LINE
8
BLACK
6
CONTINUOUS
10
4.0038
20
-8.9813
11
4.01504
21
-8.97567
0
LINE
8
BLACK
6
CONTINUOUS
10
4.10503
20
-9.08254
11
4.11066
21
-9.08816
0
LINE
8
BLACK
6
CONTINUOUS
10
4.11066
20
-9.08816
11
4.10503
21
-9.09379
0
LINE
8
BLACK
6
CONTINUOUS
10
4.10503
20
-9.09379
11
4.09941
21
-9.08816
0
LINE
8
BLACK
6
CONTINUOUS
10
4.09941
20
-9.08816
11
4.10503
21
-9.08254
0
LINE
8
BLACK
6
CONTINUOUS
10
4.10503
20
-9.08254
11
4.10503
21
-9.09379
0
LINE
8
BLACK
6
CONTINUOUS
10
4.18377
20
-8.97567
11
4.19502
21
-8.97567
0
LINE
8
BLACK
6
CONTINUOUS
10
4.19502
20
-8.97567
11
4.20627
21
-8.9813
0
LINE
8
BLACK
6
CONTINUOUS
10
4.20627
20
-8.9813
11
4.2119
21
-8.98692
0
LINE
8
BLACK
6
CONTINUOUS
10
4.2119
20
-8.98692
11
4.21752
21
-8.99817
0
LINE
8
BLACK
6
CONTINUOUS
10
4.21752
20
-8.99817
11
4.22314
21
-9.02067
0
LINE
8
BLACK
6
CONTINUOUS
10
4.22314
20
-9.02067
11
4.22314
21
-9.04879
0
LINE
8
BLACK
6
CONTINUOUS
10
4.22314
20
-9.04879
11
4.21752
21
-9.07129
0
LINE
8
BLACK
6
CONTINUOUS
10
4.21752
20
-9.07129
11
4.2119
21
-9.08254
0
LINE
8
BLACK
6
CONTINUOUS
10
4.2119
20
-9.08254
11
4.20627
21
-9.08816
0
LINE
8
BLACK
6
CONTINUOUS
10
4.20627
20
-9.08816
11
4.19502
21
-9.09379
0
LINE
8
BLACK
6
CONTINUOUS
10
4.19502
20
-9.09379
11
4.18377
21
-9.09379
0
LINE
8
BLACK
6
CONTINUOUS
10
4.18377
20
-9.09379
11
4.17253
21
-9.08816
0
LINE
8
BLACK
6
CONTINUOUS
10
4.17253
20
-9.08816
11
4.1669
21
-9.08254
0
LINE
8
BLACK
6
CONTINUOUS
10
4.1669
20
-9.08254
11
4.16128
21
-9.07129
0
LINE
8
BLACK
6
CONTINUOUS
10
4.16128
20
-9.07129
11
4.15565
21
-9.04879
0
LINE
8
BLACK
6
CONTINUOUS
10
4.15565
20
-9.04879
11
4.15565
21
-9.02067
0
LINE
8
BLACK
6
CONTINUOUS
10
4.15565
20
-9.02067
11
4.16128
21
-8.99817
0
LINE
8
BLACK
6
CONTINUOUS
10
4.16128
20
-8.99817
11
4.1669
21
-8.98692
0
LINE
8
BLACK
6
CONTINUOUS
10
4.1669
20
-8.98692
11
4.17253
21
-8.9813
0
LINE
8
BLACK
6
CONTINUOUS
10
4.17253
20
-8.9813
11
4.18377
21
-8.97567
0
LINE
8
BLACK
6
CONTINUOUS
10
4.26251
20
-8.97567
11
4.33563
21
-8.97567
0
LINE
8
BLACK
6
CONTINUOUS
10
4.33563
20
-8.97567
11
4.29626
21
-9.02067
0
LINE
8
BLACK
6
CONTINUOUS
10
4.29626
20
-9.02067
11
4.31313
21
-9.02067
0
LINE
8
BLACK
6
CONTINUOUS
10
4.31313
20
-9.02067
11
4.32438
21
-9.02629
0
LINE
8
BLACK
6
CONTINUOUS
10
4.32438
20
-9.02629
11
4.33001
21
-9.03192
0
LINE
8
BLACK
6
CONTINUOUS
10
4.33001
20
-9.03192
11
4.33563
21
-9.04317
0
LINE
8
BLACK
6
CONTINUOUS
10
4.33563
20
-9.04317
11
4.33563
21
-9.07129
0
LINE
8
BLACK
6
CONTINUOUS
10
4.33563
20
-9.07129
11
4.33001
21
-9.08254
0
LINE
8
BLACK
6
CONTINUOUS
10
4.33001
20
-9.08254
11
4.32438
21
-9.08816
0
LINE
8
BLACK
6
CONTINUOUS
10
4.32438
20
-9.08816
11
4.31313
21
-9.09379
0
LINE
8
BLACK
6
CONTINUOUS
10
4.31313
20
-9.09379
11
4.27939
21
-9.09379
0
LINE
8
BLACK
6
CONTINUOUS
10
4.27939
20
-9.09379
11
4.26814
21
-9.08816
0
LINE
8
BLACK
6
CONTINUOUS
10
4.26814
20
-9.08816
11
4.26251
21
-9.08254
0
LINE
8
BLACK
6
CONTINUOUS
10
4.44812
20
-9.09379
11
4.38062
21
-9.09379
0
LINE
8
BLACK
6
CONTINUOUS
10
4.41437
20
-9.09379
11
4.41437
21
-8.97567
0
LINE
8
BLACK
6
CONTINUOUS
10
4.41437
20
-8.97567
11
4.40312
21
-8.99255
0
LINE
8
BLACK
6
CONTINUOUS
10
4.40312
20
-8.99255
11
4.39187
21
-9.0038
0
LINE
8
BLACK
6
CONTINUOUS
10
4.39187
20
-9.0038
11
4.38062
21
-9.00942
0
LINE
8
BLACK
6
CONTINUOUS
10
4.55498
20
-8.97567
11
4.49873
21
-8.97567
0
LINE
8
BLACK
6
CONTINUOUS
10
4.49873
20
-8.97567
11
4.49311
21
-9.03192
0
LINE
8
BLACK
6
CONTINUOUS
10
4.49311
20
-9.03192
11
4.49873
21
-9.02629
0
LINE
8
BLACK
6
CONTINUOUS
10
4.49873
20
-9.02629
11
4.50998
21
-9.02067
0
LINE
8
BLACK
6
CONTINUOUS
10
4.50998
20
-9.02067
11
4.5381
21
-9.02067
0
LINE
8
BLACK
6
CONTINUOUS
10
4.5381
20
-9.02067
11
4.54935
21
-9.02629
0
LINE
8
BLACK
6
CONTINUOUS
10
4.54935
20
-9.02629
11
4.55498
21
-9.03192
0
LINE
8
BLACK
6
CONTINUOUS
10
4.55498
20
-9.03192
11
4.5606
21
-9.04317
0
LINE
8
BLACK
6
CONTINUOUS
10
4.5606
20
-9.04317
11
4.5606
21
-9.07129
0
LINE
8
BLACK
6
CONTINUOUS
10
4.5606
20
-9.07129
11
4.55498
21
-9.08254
0
LINE
8
BLACK
6
CONTINUOUS
10
4.55498
20
-9.08254
11
4.54935
21
-9.08816
0
LINE
8
BLACK
6
CONTINUOUS
10
4.54935
20
-9.08816
11
4.5381
21
-9.09379
0
LINE
8
BLACK
6
CONTINUOUS
10
4.5381
20
-9.09379
11
4.50998
21
-9.09379
0
LINE
8
BLACK
6
CONTINUOUS
10
4.50998
20
-9.09379
11
4.49873
21
-9.08816
0
LINE
8
BLACK
6
CONTINUOUS
10
4.49873
20
-9.08816
11
4.49311
21
-9.08254
0
LINE
8
BLACK
6
CONTINUOUS
10
4.6056
20
-8.97567
11
4.6056
21
-8.99817
0
LINE
8
BLACK
6
CONTINUOUS
10
4.65059
20
-8.97567
11
4.65059
21
-8.99817
0
LINE
8
BLACK
6
CONTINUOUS
10
4.82494
20
-9.13878
11
4.81932
21
-9.13316
0
LINE
8
BLACK
6
CONTINUOUS
10
4.81932
20
-9.13316
11
4.80807
21
-9.11628
0
LINE
8
BLACK
6
CONTINUOUS
10
4.80807
20
-9.11628
11
4.80245
21
-9.10503
0
LINE
8
BLACK
6
CONTINUOUS
10
4.80245
20
-9.10503
11
4.79682
21
-9.08816
0
LINE
8
BLACK
6
CONTINUOUS
10
4.79682
20
-9.08816
11
4.7912
21
-9.06004
0
LINE
8
BLACK
6
CONTINUOUS
10
4.7912
20
-9.06004
11
4.7912
21
-9.03754
0
LINE
8
BLACK
6
CONTINUOUS
10
4.7912
20
-9.03754
11
4.79682
21
-9.00942
0
LINE
8
BLACK
6
CONTINUOUS
10
4.79682
20
-9.00942
11
4.80245
21
-8.99255
0
LINE
8
BLACK
6
CONTINUOUS
10
4.80245
20
-8.99255
11
4.80807
21
-8.9813
0
LINE
8
BLACK
6
CONTINUOUS
10
4.80807
20
-8.9813
11
4.81932
21
-8.96443
0
LINE
8
BLACK
6
CONTINUOUS
10
4.81932
20
-8.96443
11
4.82494
21
-8.9588
0
LINE
8
BLACK
6
CONTINUOUS
10
4.86431
20
-8.98692
11
4.86994
21
-8.9813
0
LINE
8
BLACK
6
CONTINUOUS
10
4.86994
20
-8.9813
11
4.88119
21
-8.97567
0
LINE
8
BLACK
6
CONTINUOUS
10
4.88119
20
-8.97567
11
4.90931
21
-8.97567
0
LINE
8
BLACK
6
CONTINUOUS
10
4.90931
20
-8.97567
11
4.92056
21
-8.9813
0
LINE
8
BLACK
6
CONTINUOUS
10
4.92056
20
-8.9813
11
4.92618
21
-8.98692
0
LINE
8
BLACK
6
CONTINUOUS
10
4.92618
20
-8.98692
11
4.93181
21
-8.99817
0
LINE
8
BLACK
6
CONTINUOUS
10
4.93181
20
-8.99817
11
4.93181
21
-9.00942
0
LINE
8
BLACK
6
CONTINUOUS
10
4.93181
20
-9.00942
11
4.92618
21
-9.02629
0
LINE
8
BLACK
6
CONTINUOUS
10
4.92618
20
-9.02629
11
4.85869
21
-9.09379
0
LINE
8
BLACK
6
CONTINUOUS
10
4.85869
20
-9.09379
11
4.93181
21
-9.09379
0
LINE
8
BLACK
6
CONTINUOUS
10
5.03304
20
-9.01505
11
5.03304
21
-9.09379
0
LINE
8
BLACK
6
CONTINUOUS
10
5.00492
20
-8.97005
11
4.9768
21
-9.05442
0
LINE
8
BLACK
6
CONTINUOUS
10
4.9768
20
-9.05442
11
5.04992
21
-9.05442
0
LINE
8
BLACK
6
CONTINUOUS
10
5.14553
20
-8.97567
11
5.12303
21
-8.97567
0
LINE
8
BLACK
6
CONTINUOUS
10
5.12303
20
-8.97567
11
5.11178
21
-8.9813
0
LINE
8
BLACK
6
CONTINUOUS
10
5.11178
20
-8.9813
11
5.10616
21
-8.98692
0
LINE
8
BLACK
6
CONTINUOUS
10
5.10616
20
-8.98692
11
5.09491
21
-9.0038
0
LINE
8
BLACK
6
CONTINUOUS
10
5.09491
20
-9.0038
11
5.08929
21
-9.02629
0
LINE
8
BLACK
6
CONTINUOUS
10
5.08929
20
-9.02629
11
5.08929
21
-9.07129
0
LINE
8
BLACK
6
CONTINUOUS
10
5.08929
20
-9.07129
11
5.09491
21
-9.08254
0
LINE
8
BLACK
6
CONTINUOUS
10
5.09491
20
-9.08254
11
5.10053
21
-9.08816
0
LINE
8
BLACK
6
CONTINUOUS
10
5.10053
20
-9.08816
11
5.11178
21
-9.09379
0
LINE
8
BLACK
6
CONTINUOUS
10
5.11178
20
-9.09379
11
5.13428
21
-9.09379
0
LINE
8
BLACK
6
CONTINUOUS
10
5.13428
20
-9.09379
11
5.14553
21
-9.08816
0
LINE
8
BLACK
6
CONTINUOUS
10
5.14553
20
-9.08816
11
5.15115
21
-9.08254
0
LINE
8
BLACK
6
CONTINUOUS
10
5.15115
20
-9.08254
11
5.15678
21
-9.07129
0
LINE
8
BLACK
6
CONTINUOUS
10
5.15678
20
-9.07129
11
5.15678
21
-9.04317
0
LINE
8
BLACK
6
CONTINUOUS
10
5.15678
20
-9.04317
11
5.15115
21
-9.03192
0
LINE
8
BLACK
6
CONTINUOUS
10
5.15115
20
-9.03192
11
5.14553
21
-9.02629
0
LINE
8
BLACK
6
CONTINUOUS
10
5.14553
20
-9.02629
11
5.13428
21
-9.02067
0
LINE
8
BLACK
6
CONTINUOUS
10
5.13428
20
-9.02067
11
5.11178
21
-9.02067
0
LINE
8
BLACK
6
CONTINUOUS
10
5.11178
20
-9.02067
11
5.10053
21
-9.02629
0
LINE
8
BLACK
6
CONTINUOUS
10
5.10053
20
-9.02629
11
5.09491
21
-9.03192
0
LINE
8
BLACK
6
CONTINUOUS
10
5.09491
20
-9.03192
11
5.08929
21
-9.04317
0
LINE
8
BLACK
6
CONTINUOUS
10
5.29738
20
-9.09379
11
5.29738
21
-8.97567
0
LINE
8
BLACK
6
CONTINUOUS
10
5.348
20
-9.09379
11
5.348
21
-9.03192
0
LINE
8
BLACK
6
CONTINUOUS
10
5.348
20
-9.03192
11
5.34238
21
-9.02067
0
LINE
8
BLACK
6
CONTINUOUS
10
5.34238
20
-9.02067
11
5.33113
21
-9.01505
0
LINE
8
BLACK
6
CONTINUOUS
10
5.33113
20
-9.01505
11
5.31426
21
-9.01505
0
LINE
8
BLACK
6
CONTINUOUS
10
5.31426
20
-9.01505
11
5.30301
21
-9.02067
0
LINE
8
BLACK
6
CONTINUOUS
10
5.30301
20
-9.02067
11
5.29738
21
-9.02629
0
LINE
8
BLACK
6
CONTINUOUS
10
5.42112
20
-9.09379
11
5.40987
21
-9.08816
0
LINE
8
BLACK
6
CONTINUOUS
10
5.40987
20
-9.08816
11
5.40425
21
-9.08254
0
LINE
8
BLACK
6
CONTINUOUS
10
5.40425
20
-9.08254
11
5.39862
21
-9.07129
0
LINE
8
BLACK
6
CONTINUOUS
10
5.39862
20
-9.07129
11
5.39862
21
-9.03754
0
LINE
8
BLACK
6
CONTINUOUS
10
5.39862
20
-9.03754
11
5.40425
21
-9.02629
0
LINE
8
BLACK
6
CONTINUOUS
10
5.40425
20
-9.02629
11
5.40987
21
-9.02067
0
LINE
8
BLACK
6
CONTINUOUS
10
5.40987
20
-9.02067
11
5.42112
21
-9.01505
0
LINE
8
BLACK
6
CONTINUOUS
10
5.42112
20
-9.01505
11
5.43799
21
-9.01505
0
LINE
8
BLACK
6
CONTINUOUS
10
5.43799
20
-9.01505
11
5.44924
21
-9.02067
0
LINE
8
BLACK
6
CONTINUOUS
10
5.44924
20
-9.02067
11
5.45486
21
-9.02629
0
LINE
8
BLACK
6
CONTINUOUS
10
5.45486
20
-9.02629
11
5.46049
21
-9.03754
0
LINE
8
BLACK
6
CONTINUOUS
10
5.46049
20
-9.03754
11
5.46049
21
-9.07129
0
LINE
8
BLACK
6
CONTINUOUS
10
5.46049
20
-9.07129
11
5.45486
21
-9.08254
0
LINE
8
BLACK
6
CONTINUOUS
10
5.45486
20
-9.08254
11
5.44924
21
-9.08816
0
LINE
8
BLACK
6
CONTINUOUS
10
5.44924
20
-9.08816
11
5.43799
21
-9.09379
0
LINE
8
BLACK
6
CONTINUOUS
10
5.43799
20
-9.09379
11
5.42112
21
-9.09379
0
LINE
8
BLACK
6
CONTINUOUS
10
5.52798
20
-9.09379
11
5.51673
21
-9.08816
0
LINE
8
BLACK
6
CONTINUOUS
10
5.51673
20
-9.08816
11
5.51111
21
-9.07691
0
LINE
8
BLACK
6
CONTINUOUS
10
5.51111
20
-9.07691
11
5.51111
21
-8.97567
0
LINE
8
BLACK
6
CONTINUOUS
10
5.61797
20
-9.08816
11
5.60672
21
-9.09379
0
LINE
8
BLACK
6
CONTINUOUS
10
5.60672
20
-9.09379
11
5.58422
21
-9.09379
0
LINE
8
BLACK
6
CONTINUOUS
10
5.58422
20
-9.09379
11
5.57298
21
-9.08816
0
LINE
8
BLACK
6
CONTINUOUS
10
5.57298
20
-9.08816
11
5.56735
21
-9.07691
0
LINE
8
BLACK
6
CONTINUOUS
10
5.56735
20
-9.07691
11
5.56735
21
-9.03192
0
LINE
8
BLACK
6
CONTINUOUS
10
5.56735
20
-9.03192
11
5.57298
21
-9.02067
0
LINE
8
BLACK
6
CONTINUOUS
10
5.57298
20
-9.02067
11
5.58422
21
-9.01505
0
LINE
8
BLACK
6
CONTINUOUS
10
5.58422
20
-9.01505
11
5.60672
21
-9.01505
0
LINE
8
BLACK
6
CONTINUOUS
10
5.60672
20
-9.01505
11
5.61797
21
-9.02067
0
LINE
8
BLACK
6
CONTINUOUS
10
5.61797
20
-9.02067
11
5.62359
21
-9.03192
0
LINE
8
BLACK
6
CONTINUOUS
10
5.62359
20
-9.03192
11
5.62359
21
-9.04317
0
LINE
8
BLACK
6
CONTINUOUS
10
5.62359
20
-9.04317
11
5.56735
21
-9.05442
0
LINE
8
BLACK
6
CONTINUOUS
10
5.66859
20
-9.08816
11
5.67984
21
-9.09379
0
LINE
8
BLACK
6
CONTINUOUS
10
5.67984
20
-9.09379
11
5.70233
21
-9.09379
0
LINE
8
BLACK
6
CONTINUOUS
10
5.70233
20
-9.09379
11
5.71358
21
-9.08816
0
LINE
8
BLACK
6
CONTINUOUS
10
5.71358
20
-9.08816
11
5.71921
21
-9.07691
0
LINE
8
BLACK
6
CONTINUOUS
10
5.71921
20
-9.07691
11
5.71921
21
-9.07129
0
LINE
8
BLACK
6
CONTINUOUS
10
5.71921
20
-9.07129
11
5.71358
21
-9.06004
0
LINE
8
BLACK
6
CONTINUOUS
10
5.71358
20
-9.06004
11
5.70233
21
-9.05442
0
LINE
8
BLACK
6
CONTINUOUS
10
5.70233
20
-9.05442
11
5.68546
21
-9.05442
0
LINE
8
BLACK
6
CONTINUOUS
10
5.68546
20
-9.05442
11
5.67421
21
-9.04879
0
LINE
8
BLACK
6
CONTINUOUS
10
5.67421
20
-9.04879
11
5.66859
21
-9.03754
0
LINE
8
BLACK
6
CONTINUOUS
10
5.66859
20
-9.03754
11
5.66859
21
-9.03192
0
LINE
8
BLACK
6
CONTINUOUS
10
5.66859
20
-9.03192
11
5.67421
21
-9.02067
0
LINE
8
BLACK
6
CONTINUOUS
10
5.67421
20
-9.02067
11
5.68546
21
-9.01505
0
LINE
8
BLACK
6
CONTINUOUS
10
5.68546
20
-9.01505
11
5.70233
21
-9.01505
0
LINE
8
BLACK
6
CONTINUOUS
10
5.70233
20
-9.01505
11
5.71358
21
-9.02067
0
LINE
8
BLACK
6
CONTINUOUS
10
5.75858
20
-9.13878
11
5.7642
21
-9.13316
0
LINE
8
BLACK
6
CONTINUOUS
10
5.7642
20
-9.13316
11
5.77545
21
-9.11628
0
LINE
8
BLACK
6
CONTINUOUS
10
5.77545
20
-9.11628
11
5.78107
21
-9.10503
0
LINE
8
BLACK
6
CONTINUOUS
10
5.78107
20
-9.10503
11
5.7867
21
-9.08816
0
LINE
8
BLACK
6
CONTINUOUS
10
5.7867
20
-9.08816
11
5.79232
21
-9.06004
0
LINE
8
BLACK
6
CONTINUOUS
10
5.79232
20
-9.06004
11
5.79232
21
-9.03754
0
LINE
8
BLACK
6
CONTINUOUS
10
5.79232
20
-9.03754
11
5.7867
21
-9.00942
0
LINE
8
BLACK
6
CONTINUOUS
10
5.7867
20
-9.00942
11
5.78107
21
-8.99255
0
LINE
8
BLACK
6
CONTINUOUS
10
5.78107
20
-8.99255
11
5.77545
21
-8.9813
0
LINE
8
BLACK
6
CONTINUOUS
10
5.77545
20
-8.9813
11
5.7642
21
-8.96443
0
LINE
8
BLACK
6
CONTINUOUS
10
5.7642
20
-8.96443
11
5.75858
21
-8.9588
0
CIRCLE
8
BLACK
10
2.73524
20
-9.19626
40
0.019685
0
LINE
8
BLACK
6
CONTINUOUS
10
2.92956
20
-9.24969
11
2.86206
21
-9.24969
0
LINE
8
BLACK
6
CONTINUOUS
10
2.89581
20
-9.24969
11
2.89581
21
-9.13158
0
LINE
8
BLACK
6
CONTINUOUS
10
2.89581
20
-9.13158
11
2.88456
21
-9.14845
0
LINE
8
BLACK
6
CONTINUOUS
10
2.88456
20
-9.14845
11
2.87331
21
-9.1597
0
LINE
8
BLACK
6
CONTINUOUS
10
2.87331
20
-9.1597
11
2.86206
21
-9.16533
0
LINE
8
BLACK
6
CONTINUOUS
10
2.98017
20
-9.23844
11
2.9858
21
-9.24407
0
LINE
8
BLACK
6
CONTINUOUS
10
2.9858
20
-9.24407
11
2.98017
21
-9.24969
0
LINE
8
BLACK
6
CONTINUOUS
10
2.98017
20
-9.24969
11
2.97455
21
-9.24407
0
LINE
8
BLACK
6
CONTINUOUS
10
2.97455
20
-9.24407
11
2.98017
21
-9.23844
0
LINE
8
BLACK
6
CONTINUOUS
10
2.98017
20
-9.23844
11
2.98017
21
-9.24969
0
LINE
8
BLACK
6
CONTINUOUS
10
3.05891
20
-9.13158
11
3.07016
21
-9.13158
0
LINE
8
BLACK
6
CONTINUOUS
10
3.07016
20
-9.13158
11
3.08141
21
-9.1372
0
LINE
8
BLACK
6
CONTINUOUS
10
3.08141
20
-9.1372
11
3.08704
21
-9.14283
0
LINE
8
BLACK
6
CONTINUOUS
10
3.08704
20
-9.14283
11
3.09266
21
-9.15408
0
LINE
8
BLACK
6
CONTINUOUS
10
3.09266
20
-9.15408
11
3.09828
21
-9.17657
0
LINE
8
BLACK
6
CONTINUOUS
10
3.09828
20
-9.17657
11
3.09828
21
-9.2047
0
LINE
8
BLACK
6
CONTINUOUS
10
3.09828
20
-9.2047
11
3.09266
21
-9.22719
0
LINE
8
BLACK
6
CONTINUOUS
10
3.09266
20
-9.22719
11
3.08704
21
-9.23844
0
LINE
8
BLACK
6
CONTINUOUS
10
3.08704
20
-9.23844
11
3.08141
21
-9.24407
0
LINE
8
BLACK
6
CONTINUOUS
10
3.08141
20
-9.24407
11
3.07016
21
-9.24969
0
LINE
8
BLACK
6
CONTINUOUS
10
3.07016
20
-9.24969
11
3.05891
21
-9.24969
0
LINE
8
BLACK
6
CONTINUOUS
10
3.05891
20
-9.24969
11
3.04767
21
-9.24407
0
LINE
8
BLACK
6
CONTINUOUS
10
3.04767
20
-9.24407
11
3.04204
21
-9.23844
0
LINE
8
BLACK
6
CONTINUOUS
10
3.04204
20
-9.23844
11
3.03642
21
-9.22719
0
LINE
8
BLACK
6
CONTINUOUS
10
3.03642
20
-9.22719
11
3.03079
21
-9.2047
0
LINE
8
BLACK
6
CONTINUOUS
10
3.03079
20
-9.2047
11
3.03079
21
-9.17657
0
LINE
8
BLACK
6
CONTINUOUS
10
3.03079
20
-9.17657
11
3.03642
21
-9.15408
0
LINE
8
BLACK
6
CONTINUOUS
10
3.03642
20
-9.15408
11
3.04204
21
-9.14283
0
LINE
8
BLACK
6
CONTINUOUS
10
3.04204
20
-9.14283
11
3.04767
21
-9.1372
0
LINE
8
BLACK
6
CONTINUOUS
10
3.04767
20
-9.1372
11
3.05891
21
-9.13158
0
LINE
8
BLACK
6
CONTINUOUS
10
3.1714
20
-9.13158
11
3.18265
21
-9.13158
0
LINE
8
BLACK
6
CONTINUOUS
10
3.18265
20
-9.13158
11
3.1939
21
-9.1372
0
LINE
8
BLACK
6
CONTINUOUS
10
3.1939
20
-9.1372
11
3.19952
21
-9.14283
0
LINE
8
BLACK
6
CONTINUOUS
10
3.19952
20
-9.14283
11
3.20515
21
-9.15408
0
LINE
8
BLACK
6
CONTINUOUS
10
3.20515
20
-9.15408
11
3.21077
21
-9.17657
0
LINE
8
BLACK
6
CONTINUOUS
10
3.21077
20
-9.17657
11
3.21077
21
-9.2047
0
LINE
8
BLACK
6
CONTINUOUS
10
3.21077
20
-9.2047
11
3.20515
21
-9.22719
0
LINE
8
BLACK
6
CONTINUOUS
10
3.20515
20
-9.22719
11
3.19952
21
-9.23844
0
LINE
8
BLACK
6
CONTINUOUS
10
3.19952
20
-9.23844
11
3.1939
21
-9.24407
0
LINE
8
BLACK
6
CONTINUOUS
10
3.1939
20
-9.24407
11
3.18265
21
-9.24969
0
LINE
8
BLACK
6
CONTINUOUS
10
3.18265
20
-9.24969
11
3.1714
21
-9.24969
0
LINE
8
BLACK
6
CONTINUOUS
10
3.1714
20
-9.24969
11
3.16015
21
-9.24407
0
LINE
8
BLACK
6
CONTINUOUS
10
3.16015
20
-9.24407
11
3.15453
21
-9.23844
0
LINE
8
BLACK
6
CONTINUOUS
10
3.15453
20
-9.23844
11
3.1489
21
-9.22719
0
LINE
8
BLACK
6
CONTINUOUS
10
3.1489
20
-9.22719
11
3.14328
21
-9.2047
0
LINE
8
BLACK
6
CONTINUOUS
10
3.14328
20
-9.2047
11
3.14328
21
-9.17657
0
LINE
8
BLACK
6
CONTINUOUS
10
3.14328
20
-9.17657
11
3.1489
21
-9.15408
0
LINE
8
BLACK
6
CONTINUOUS
10
3.1489
20
-9.15408
11
3.15453
21
-9.14283
0
LINE
8
BLACK
6
CONTINUOUS
10
3.15453
20
-9.14283
11
3.16015
21
-9.1372
0
LINE
8
BLACK
6
CONTINUOUS
10
3.16015
20
-9.1372
11
3.1714
21
-9.13158
0
LINE
8
BLACK
6
CONTINUOUS
10
3.28389
20
-9.13158
11
3.29513
21
-9.13158
0
LINE
8
BLACK
6
CONTINUOUS
10
3.29513
20
-9.13158
11
3.30638
21
-9.1372
0
LINE
8
BLACK
6
CONTINUOUS
10
3.30638
20
-9.1372
11
3.31201
21
-9.14283
0
LINE
8
BLACK
6
CONTINUOUS
10
3.31201
20
-9.14283
11
3.31763
21
-9.15408
0
LINE
8
BLACK
6
CONTINUOUS
10
3.31763
20
-9.15408
11
3.32326
21
-9.17657
0
LINE
8
BLACK
6
CONTINUOUS
10
3.32326
20
-9.17657
11
3.32326
21
-9.2047
0
LINE
8
BLACK
6
CONTINUOUS
10
3.32326
20
-9.2047
11
3.31763
21
-9.22719
0
LINE
8
BLACK
6
CONTINUOUS
10
3.31763
20
-9.22719
11
3.31201
21
-9.23844
0
LINE
8
BLACK
6
CONTINUOUS
10
3.31201
20
-9.23844
11
3.30638
21
-9.24407
0
LINE
8
BLACK
6
CONTINUOUS
10
3.30638
20
-9.24407
11
3.29513
21
-9.24969
0
LINE
8
BLACK
6
CONTINUOUS
10
3.29513
20
-9.24969
11
3.28389
21
-9.24969
0
LINE
8
BLACK
6
CONTINUOUS
10
3.28389
20
-9.24969
11
3.27264
21
-9.24407
0
LINE
8
BLACK
6
CONTINUOUS
10
3.27264
20
-9.24407
11
3.26701
21
-9.23844
0
LINE
8
BLACK
6
CONTINUOUS
10
3.26701
20
-9.23844
11
3.26139
21
-9.22719
0
LINE
8
BLACK
6
CONTINUOUS
10
3.26139
20
-9.22719
11
3.25576
21
-9.2047
0
LINE
8
BLACK
6
CONTINUOUS
10
3.25576
20
-9.2047
11
3.25576
21
-9.17657
0
LINE
8
BLACK
6
CONTINUOUS
10
3.25576
20
-9.17657
11
3.26139
21
-9.15408
0
LINE
8
BLACK
6
CONTINUOUS
10
3.26139
20
-9.15408
11
3.26701
21
-9.14283
0
LINE
8
BLACK
6
CONTINUOUS
10
3.26701
20
-9.14283
11
3.27264
21
-9.1372
0
LINE
8
BLACK
6
CONTINUOUS
10
3.27264
20
-9.1372
11
3.28389
21
-9.13158
0
LINE
8
BLACK
6
CONTINUOUS
10
3.37388
20
-9.24969
11
3.37388
21
-9.17095
0
LINE
8
BLACK
6
CONTINUOUS
10
3.37388
20
-9.1822
11
3.3795
21
-9.17657
0
LINE
8
BLACK
6
CONTINUOUS
10
3.3795
20
-9.17657
11
3.39075
21
-9.17095
0
LINE
8
BLACK
6
CONTINUOUS
10
3.39075
20
-9.17095
11
3.40762
21
-9.17095
0
LINE
8
BLACK
6
CONTINUOUS
10
3.40762
20
-9.17095
11
3.41887
21
-9.17657
0
LINE
8
BLACK
6
CONTINUOUS
10
3.41887
20
-9.17657
11
3.42449
21
-9.18782
0
LINE
8
BLACK
6
CONTINUOUS
10
3.42449
20
-9.18782
11
3.42449
21
-9.24969
0
LINE
8
BLACK
6
CONTINUOUS
10
3.42449
20
-9.18782
11
3.43012
21
-9.17657
0
LINE
8
BLACK
6
CONTINUOUS
10
3.43012
20
-9.17657
11
3.44137
21
-9.17095
0
LINE
8
BLACK
6
CONTINUOUS
10
3.44137
20
-9.17095
11
3.45824
21
-9.17095
0
LINE
8
BLACK
6
CONTINUOUS
10
3.45824
20
-9.17095
11
3.46949
21
-9.17657
0
LINE
8
BLACK
6
CONTINUOUS
10
3.46949
20
-9.17657
11
3.47511
21
-9.18782
0
LINE
8
BLACK
6
CONTINUOUS
10
3.47511
20
-9.18782
11
3.47511
21
-9.24969
0
LINE
8
BLACK
6
CONTINUOUS
10
3.53136
20
-9.24969
11
3.53136
21
-9.17095
0
LINE
8
BLACK
6
CONTINUOUS
10
3.53136
20
-9.1822
11
3.53698
21
-9.17657
0
LINE
8
BLACK
6
CONTINUOUS
10
3.53698
20
-9.17657
11
3.54823
21
-9.17095
0
LINE
8
BLACK
6
CONTINUOUS
10
3.54823
20
-9.17095
11
3.5651
21
-9.17095
0
LINE
8
BLACK
6
CONTINUOUS
10
3.5651
20
-9.17095
11
3.57635
21
-9.17657
0
LINE
8
BLACK
6
CONTINUOUS
10
3.57635
20
-9.17657
11
3.58197
21
-9.18782
0
LINE
8
BLACK
6
CONTINUOUS
10
3.58197
20
-9.18782
11
3.58197
21
-9.24969
0
LINE
8
BLACK
6
CONTINUOUS
10
3.58197
20
-9.18782
11
3.5876
21
-9.17657
0
LINE
8
BLACK
6
CONTINUOUS
10
3.5876
20
-9.17657
11
3.59885
21
-9.17095
0
LINE
8
BLACK
6
CONTINUOUS
10
3.59885
20
-9.17095
11
3.61572
21
-9.17095
0
LINE
8
BLACK
6
CONTINUOUS
10
3.61572
20
-9.17095
11
3.62697
21
-9.17657
0
LINE
8
BLACK
6
CONTINUOUS
10
3.62697
20
-9.17657
11
3.63259
21
-9.18782
0
LINE
8
BLACK
6
CONTINUOUS
10
3.63259
20
-9.18782
11
3.63259
21
-9.24969
0
LINE
8
BLACK
6
CONTINUOUS
10
3.86319
20
-9.12596
11
3.76195
21
-9.27781
0
LINE
8
BLACK
6
CONTINUOUS
10
4.01504
20
-9.13158
11
4.02629
21
-9.13158
0
LINE
8
BLACK
6
CONTINUOUS
10
4.02629
20
-9.13158
11
4.03754
21
-9.1372
0
LINE
8
BLACK
6
CONTINUOUS
10
4.03754
20
-9.1372
11
4.04317
21
-9.14283
0
LINE
8
BLACK
6
CONTINUOUS
10
4.04317
20
-9.14283
11
4.04879
21
-9.15408
0
LINE
8
BLACK
6
CONTINUOUS
10
4.04879
20
-9.15408
11
4.05441
21
-9.17657
0
LINE
8
BLACK
6
CONTINUOUS
10
4.05441
20
-9.17657
11
4.05441
21
-9.2047
0
LINE
8
BLACK
6
CONTINUOUS
10
4.05441
20
-9.2047
11
4.04879
21
-9.22719
0
LINE
8
BLACK
6
CONTINUOUS
10
4.04879
20
-9.22719
11
4.04317
21
-9.23844
0
LINE
8
BLACK
6
CONTINUOUS
10
4.04317
20
-9.23844
11
4.03754
21
-9.24407
0
LINE
8
BLACK
6
CONTINUOUS
10
4.03754
20
-9.24407
11
4.02629
21
-9.24969
0
LINE
8
BLACK
6
CONTINUOUS
10
4.02629
20
-9.24969
11
4.01504
21
-9.24969
0
LINE
8
BLACK
6
CONTINUOUS
10
4.01504
20
-9.24969
11
4.0038
21
-9.24407
0
LINE
8
BLACK
6
CONTINUOUS
10
4.0038
20
-9.24407
11
3.99817
21
-9.23844
0
LINE
8
BLACK
6
CONTINUOUS
10
3.99817
20
-9.23844
11
3.99255
21
-9.22719
0
LINE
8
BLACK
6
CONTINUOUS
10
3.99255
20
-9.22719
11
3.98692
21
-9.2047
0
LINE
8
BLACK
6
CONTINUOUS
10
3.98692
20
-9.2047
11
3.98692
21
-9.17657
0
LINE
8
BLACK
6
CONTINUOUS
10
3.98692
20
-9.17657
11
3.99255
21
-9.15408
0
LINE
8
BLACK
6
CONTINUOUS
10
3.99255
20
-9.15408
11
3.99817
21
-9.14283
0
LINE
8
BLACK
6
CONTINUOUS
10
3.99817
20
-9.14283
11
4.0038
21
-9.1372
0
LINE
8
BLACK
6
CONTINUOUS
10
4.0038
20
-9.1372
11
4.01504
21
-9.13158
0
LINE
8
BLACK
6
CONTINUOUS
10
4.10503
20
-9.23844
11
4.11066
21
-9.24407
0
LINE
8
BLACK
6
CONTINUOUS
10
4.11066
20
-9.24407
11
4.10503
21
-9.24969
0
LINE
8
BLACK
6
CONTINUOUS
10
4.10503
20
-9.24969
11
4.09941
21
-9.24407
0
LINE
8
BLACK
6
CONTINUOUS
10
4.09941
20
-9.24407
11
4.10503
21
-9.23844
0
LINE
8
BLACK
6
CONTINUOUS
10
4.10503
20
-9.23844
11
4.10503
21
-9.24969
0
LINE
8
BLACK
6
CONTINUOUS
10
4.18377
20
-9.13158
11
4.19502
21
-9.13158
0
LINE
8
BLACK
6
CONTINUOUS
10
4.19502
20
-9.13158
11
4.20627
21
-9.1372
0
LINE
8
BLACK
6
CONTINUOUS
10
4.20627
20
-9.1372
11
4.2119
21
-9.14283
0
LINE
8
BLACK
6
CONTINUOUS
10
4.2119
20
-9.14283
11
4.21752
21
-9.15408
0
LINE
8
BLACK
6
CONTINUOUS
10
4.21752
20
-9.15408
11
4.22314
21
-9.17657
0
LINE
8
BLACK
6
CONTINUOUS
10
4.22314
20
-9.17657
11
4.22314
21
-9.2047
0
LINE
8
BLACK
6
CONTINUOUS
10
4.22314
20
-9.2047
11
4.21752
21
-9.22719
0
LINE
8
BLACK
6
CONTINUOUS
10
4.21752
20
-9.22719
11
4.2119
21
-9.23844
0
LINE
8
BLACK
6
CONTINUOUS
10
4.2119
20
-9.23844
11
4.20627
21
-9.24407
0
LINE
8
BLACK
6
CONTINUOUS
10
4.20627
20
-9.24407
11
4.19502
21
-9.24969
0
LINE
8
BLACK
6
CONTINUOUS
10
4.19502
20
-9.24969
11
4.18377
21
-9.24969
0
LINE
8
BLACK
6
CONTINUOUS
10
4.18377
20
-9.24969
11
4.17253
21
-9.24407
0
LINE
8
BLACK
6
CONTINUOUS
10
4.17253
20
-9.24407
11
4.1669
21
-9.23844
0
LINE
8
BLACK
6
CONTINUOUS
10
4.1669
20
-9.23844
11
4.16128
21
-9.22719
0
LINE
8
BLACK
6
CONTINUOUS
10
4.16128
20
-9.22719
11
4.15565
21
-9.2047
0
LINE
8
BLACK
6
CONTINUOUS
10
4.15565
20
-9.2047
11
4.15565
21
-9.17657
0
LINE
8
BLACK
6
CONTINUOUS
10
4.15565
20
-9.17657
11
4.16128
21
-9.15408
0
LINE
8
BLACK
6
CONTINUOUS
10
4.16128
20
-9.15408
11
4.1669
21
-9.14283
0
LINE
8
BLACK
6
CONTINUOUS
10
4.1669
20
-9.14283
11
4.17253
21
-9.1372
0
LINE
8
BLACK
6
CONTINUOUS
10
4.17253
20
-9.1372
11
4.18377
21
-9.13158
0
LINE
8
BLACK
6
CONTINUOUS
10
4.26251
20
-9.13158
11
4.33563
21
-9.13158
0
LINE
8
BLACK
6
CONTINUOUS
10
4.33563
20
-9.13158
11
4.29626
21
-9.17657
0
LINE
8
BLACK
6
CONTINUOUS
10
4.29626
20
-9.17657
11
4.31313
21
-9.17657
0
LINE
8
BLACK
6
CONTINUOUS
10
4.31313
20
-9.17657
11
4.32438
21
-9.1822
0
LINE
8
BLACK
6
CONTINUOUS
10
4.32438
20
-9.1822
11
4.33001
21
-9.18782
0
LINE
8
BLACK
6
CONTINUOUS
10
4.33001
20
-9.18782
11
4.33563
21
-9.19907
0
LINE
8
BLACK
6
CONTINUOUS
10
4.33563
20
-9.19907
11
4.33563
21
-9.22719
0
LINE
8
BLACK
6
CONTINUOUS
10
4.33563
20
-9.22719
11
4.33001
21
-9.23844
0
LINE
8
BLACK
6
CONTINUOUS
10
4.33001
20
-9.23844
11
4.32438
21
-9.24407
0
LINE
8
BLACK
6
CONTINUOUS
10
4.32438
20
-9.24407
11
4.31313
21
-9.24969
0
LINE
8
BLACK
6
CONTINUOUS
10
4.31313
20
-9.24969
11
4.27939
21
-9.24969
0
LINE
8
BLACK
6
CONTINUOUS
10
4.27939
20
-9.24969
11
4.26814
21
-9.24407
0
LINE
8
BLACK
6
CONTINUOUS
10
4.26814
20
-9.24407
11
4.26251
21
-9.23844
0
LINE
8
BLACK
6
CONTINUOUS
10
4.39187
20
-9.24969
11
4.41437
21
-9.24969
0
LINE
8
BLACK
6
CONTINUOUS
10
4.41437
20
-9.24969
11
4.42562
21
-9.24407
0
LINE
8
BLACK
6
CONTINUOUS
10
4.42562
20
-9.24407
11
4.43124
21
-9.23844
0
LINE
8
BLACK
6
CONTINUOUS
10
4.43124
20
-9.23844
11
4.44249
21
-9.22157
0
LINE
8
BLACK
6
CONTINUOUS
10
4.44249
20
-9.22157
11
4.44812
21
-9.19907
0
LINE
8
BLACK
6
CONTINUOUS
10
4.44812
20
-9.19907
11
4.44812
21
-9.15408
0
LINE
8
BLACK
6
CONTINUOUS
10
4.44812
20
-9.15408
11
4.44249
21
-9.14283
0
LINE
8
BLACK
6
CONTINUOUS
10
4.44249
20
-9.14283
11
4.43687
21
-9.1372
0
LINE
8
BLACK
6
CONTINUOUS
10
4.43687
20
-9.1372
11
4.42562
21
-9.13158
0
LINE
8
BLACK
6
CONTINUOUS
10
4.42562
20
-9.13158
11
4.40312
21
-9.13158
0
LINE
8
BLACK
6
CONTINUOUS
10
4.40312
20
-9.13158
11
4.39187
21
-9.1372
0
LINE
8
BLACK
6
CONTINUOUS
10
4.39187
20
-9.1372
11
4.38625
21
-9.14283
0
LINE
8
BLACK
6
CONTINUOUS
10
4.38625
20
-9.14283
11
4.38062
21
-9.15408
0
LINE
8
BLACK
6
CONTINUOUS
10
4.38062
20
-9.15408
11
4.38062
21
-9.1822
0
LINE
8
BLACK
6
CONTINUOUS
10
4.38062
20
-9.1822
11
4.38625
21
-9.19345
0
LINE
8
BLACK
6
CONTINUOUS
10
4.38625
20
-9.19345
11
4.39187
21
-9.19907
0
LINE
8
BLACK
6
CONTINUOUS
10
4.39187
20
-9.19907
11
4.40312
21
-9.2047
0
LINE
8
BLACK
6
CONTINUOUS
10
4.40312
20
-9.2047
11
4.42562
21
-9.2047
0
LINE
8
BLACK
6
CONTINUOUS
10
4.42562
20
-9.2047
11
4.43687
21
-9.19907
0
LINE
8
BLACK
6
CONTINUOUS
10
4.43687
20
-9.19907
11
4.44249
21
-9.19345
0
LINE
8
BLACK
6
CONTINUOUS
10
4.44249
20
-9.19345
11
4.44812
21
-9.1822
0
LINE
8
BLACK
6
CONTINUOUS
10
4.54935
20
-9.17095
11
4.54935
21
-9.24969
0
LINE
8
BLACK
6
CONTINUOUS
10
4.52123
20
-9.12596
11
4.49311
21
-9.21032
0
LINE
8
BLACK
6
CONTINUOUS
10
4.49311
20
-9.21032
11
4.56623
21
-9.21032
0
LINE
8
BLACK
6
CONTINUOUS
10
4.6056
20
-9.13158
11
4.6056
21
-9.15408
0
LINE
8
BLACK
6
CONTINUOUS
10
4.65059
20
-9.13158
11
4.65059
21
-9.15408
0
LINE
8
BLACK
6
CONTINUOUS
10
4.82494
20
-9.29469
11
4.81932
21
-9.28906
0
LINE
8
BLACK
6
CONTINUOUS
10
4.81932
20
-9.28906
11
4.80807
21
-9.27219
0
LINE
8
BLACK
6
CONTINUOUS
10
4.80807
20
-9.27219
11
4.80245
21
-9.26094
0
LINE
8
BLACK
6
CONTINUOUS
10
4.80245
20
-9.26094
11
4.79682
21
-9.24407
0
LINE
8
BLACK
6
CONTINUOUS
10
4.79682
20
-9.24407
11
4.7912
21
-9.21594
0
LINE
8
BLACK
6
CONTINUOUS
10
4.7912
20
-9.21594
11
4.7912
21
-9.19345
0
LINE
8
BLACK
6
CONTINUOUS
10
4.7912
20
-9.19345
11
4.79682
21
-9.16533
0
LINE
8
BLACK
6
CONTINUOUS
10
4.79682
20
-9.16533
11
4.80245
21
-9.14845
0
LINE
8
BLACK
6
CONTINUOUS
10
4.80245
20
-9.14845
11
4.80807
21
-9.1372
0
LINE
8
BLACK
6
CONTINUOUS
10
4.80807
20
-9.1372
11
4.81932
21
-9.12033
0
LINE
8
BLACK
6
CONTINUOUS
10
4.81932
20
-9.12033
11
4.82494
21
-9.11471
0
LINE
8
BLACK
6
CONTINUOUS
10
4.93181
20
-9.24969
11
4.86431
21
-9.24969
0
LINE
8
BLACK
6
CONTINUOUS
10
4.89806
20
-9.24969
11
4.89806
21
-9.13158
0
LINE
8
BLACK
6
CONTINUOUS
10
4.89806
20
-9.13158
11
4.88681
21
-9.14845
0
LINE
8
BLACK
6
CONTINUOUS
10
4.88681
20
-9.14845
11
4.87556
21
-9.1597
0
LINE
8
BLACK
6
CONTINUOUS
10
4.87556
20
-9.1597
11
4.86431
21
-9.16533
0
LINE
8
BLACK
6
CONTINUOUS
10
5.03304
20
-9.17095
11
5.03304
21
-9.24969
0
LINE
8
BLACK
6
CONTINUOUS
10
5.00492
20
-9.12596
11
4.9768
21
-9.21032
0
LINE
8
BLACK
6
CONTINUOUS
10
4.9768
20
-9.21032
11
5.04992
21
-9.21032
0
LINE
8
BLACK
6
CONTINUOUS
10
5.1849
20
-9.24969
11
5.1849
21
-9.13158
0
LINE
8
BLACK
6
CONTINUOUS
10
5.23552
20
-9.24969
11
5.23552
21
-9.18782
0
LINE
8
BLACK
6
CONTINUOUS
10
5.23552
20
-9.18782
11
5.22989
21
-9.17657
0
LINE
8
BLACK
6
CONTINUOUS
10
5.22989
20
-9.17657
11
5.21864
21
-9.17095
0
LINE
8
BLACK
6
CONTINUOUS
10
5.21864
20
-9.17095
11
5.20177
21
-9.17095
0
LINE
8
BLACK
6
CONTINUOUS
10
5.20177
20
-9.17095
11
5.19052
21
-9.17657
0
LINE
8
BLACK
6
CONTINUOUS
10
5.19052
20
-9.17657
11
5.1849
21
-9.1822
0
LINE
8
BLACK
6
CONTINUOUS
10
5.30863
20
-9.24969
11
5.29738
21
-9.24407
0
LINE
8
BLACK
6
CONTINUOUS
10
5.29738
20
-9.24407
11
5.29176
21
-9.23844
0
LINE
8
BLACK
6
CONTINUOUS
10
5.29176
20
-9.23844
11
5.28614
21
-9.22719
0
LINE
8
BLACK
6
CONTINUOUS
10
5.28614
20
-9.22719
11
5.28614
21
-9.19345
0
LINE
8
BLACK
6
CONTINUOUS
10
5.28614
20
-9.19345
11
5.29176
21
-9.1822
0
LINE
8
BLACK
6
CONTINUOUS
10
5.29176
20
-9.1822
11
5.29738
21
-9.17657
0
LINE
8
BLACK
6
CONTINUOUS
10
5.29738
20
-9.17657
11
5.30863
21
-9.17095
0
LINE
8
BLACK
6
CONTINUOUS
10
5.30863
20
-9.17095
11
5.32551
21
-9.17095
0
LINE
8
BLACK
6
CONTINUOUS
10
5.32551
20
-9.17095
11
5.33675
21
-9.17657
0
LINE
8
BLACK
6
CONTINUOUS
10
5.33675
20
-9.17657
11
5.34238
21
-9.1822
0
LINE
8
BLACK
6
CONTINUOUS
10
5.34238
20
-9.1822
11
5.348
21
-9.19345
0
LINE
8
BLACK
6
CONTINUOUS
10
5.348
20
-9.19345
11
5.348
21
-9.22719
0
LINE
8
BLACK
6
CONTINUOUS
10
5.348
20
-9.22719
11
5.34238
21
-9.23844
0
LINE
8
BLACK
6
CONTINUOUS
10
5.34238
20
-9.23844
11
5.33675
21
-9.24407
0
LINE
8
BLACK
6
CONTINUOUS
10
5.33675
20
-9.24407
11
5.32551
21
-9.24969
0
LINE
8
BLACK
6
CONTINUOUS
10
5.32551
20
-9.24969
11
5.30863
21
-9.24969
0
LINE
8
BLACK
6
CONTINUOUS
10
5.41549
20
-9.24969
11
5.40425
21
-9.24407
0
LINE
8
BLACK
6
CONTINUOUS
10
5.40425
20
-9.24407
11
5.39862
21
-9.23282
0
LINE
8
BLACK
6
CONTINUOUS
10
5.39862
20
-9.23282
11
5.39862
21
-9.13158
0
LINE
8
BLACK
6
CONTINUOUS
10
5.50548
20
-9.24407
11
5.49424
21
-9.24969
0
LINE
8
BLACK
6
CONTINUOUS
10
5.49424
20
-9.24969
11
5.47174
21
-9.24969
0
LINE
8
BLACK
6
CONTINUOUS
10
5.47174
20
-9.24969
11
5.46049
21
-9.24407
0
LINE
8
BLACK
6
CONTINUOUS
10
5.46049
20
-9.24407
11
5.45486
21
-9.23282
0
LINE
8
BLACK
6
CONTINUOUS
10
5.45486
20
-9.23282
11
5.45486
21
-9.18782
0
LINE
8
BLACK
6
CONTINUOUS
10
5.45486
20
-9.18782
11
5.46049
21
-9.17657
0
LINE
8
BLACK
6
CONTINUOUS
10
5.46049
20
-9.17657
11
5.47174
21
-9.17095
0
LINE
8
BLACK
6
CONTINUOUS
10
5.47174
20
-9.17095
11
5.49424
21
-9.17095
0
LINE
8
BLACK
6
CONTINUOUS
10
5.49424
20
-9.17095
11
5.50548
21
-9.17657
0
LINE
8
BLACK
6
CONTINUOUS
10
5.50548
20
-9.17657
11
5.51111
21
-9.18782
0
LINE
8
BLACK
6
CONTINUOUS
10
5.51111
20
-9.18782
11
5.51111
21
-9.19907
0
LINE
8
BLACK
6
CONTINUOUS
10
5.51111
20
-9.19907
11
5.45486
21
-9.21032
0
LINE
8
BLACK
6
CONTINUOUS
10
5.5561
20
-9.24407
11
5.56735
21
-9.24969
0
LINE
8
BLACK
6
CONTINUOUS
10
5.56735
20
-9.24969
11
5.58985
21
-9.24969
0
LINE
8
BLACK
6
CONTINUOUS
10
5.58985
20
-9.24969
11
5.6011
21
-9.24407
0
LINE
8
BLACK
6
CONTINUOUS
10
5.6011
20
-9.24407
11
5.60672
21
-9.23282
0
LINE
8
BLACK
6
CONTINUOUS
10
5.60672
20
-9.23282
11
5.60672
21
-9.22719
0
LINE
8
BLACK
6
CONTINUOUS
10
5.60672
20
-9.22719
11
5.6011
21
-9.21594
0
LINE
8
BLACK
6
CONTINUOUS
10
5.6011
20
-9.21594
11
5.58985
21
-9.21032
0
LINE
8
BLACK
6
CONTINUOUS
10
5.58985
20
-9.21032
11
5.57298
21
-9.21032
0
LINE
8
BLACK
6
CONTINUOUS
10
5.57298
20
-9.21032
11
5.56173
21
-9.2047
0
LINE
8
BLACK
6
CONTINUOUS
10
5.56173
20
-9.2047
11
5.5561
21
-9.19345
0
LINE
8
BLACK
6
CONTINUOUS
10
5.5561
20
-9.19345
11
5.5561
21
-9.18782
0
LINE
8
BLACK
6
CONTINUOUS
10
5.5561
20
-9.18782
11
5.56173
21
-9.17657
0
LINE
8
BLACK
6
CONTINUOUS
10
5.56173
20
-9.17657
11
5.57298
21
-9.17095
0
LINE
8
BLACK
6
CONTINUOUS
10
5.57298
20
-9.17095
11
5.58985
21
-9.17095
0
LINE
8
BLACK
6
CONTINUOUS
10
5.58985
20
-9.17095
11
5.6011
21
-9.17657
0
LINE
8
BLACK
6
CONTINUOUS
10
5.64609
20
-9.29469
11
5.65172
21
-9.28906
0
LINE
8
BLACK
6
CONTINUOUS
10
5.65172
20
-9.28906
11
5.66296
21
-9.27219
0
LINE
8
BLACK
6
CONTINUOUS
10
5.66296
20
-9.27219
11
5.66859
21
-9.26094
0
LINE
8
BLACK
6
CONTINUOUS
10
5.66859
20
-9.26094
11
5.67421
21
-9.24407
0
LINE
8
BLACK
6
CONTINUOUS
10
5.67421
20
-9.24407
11
5.67984
21
-9.21594
0
LINE
8
BLACK
6
CONTINUOUS
10
5.67984
20
-9.21594
11
5.67984
21
-9.19345
0
LINE
8
BLACK
6
CONTINUOUS
10
5.67984
20
-9.19345
11
5.67421
21
-9.16533
0
LINE
8
BLACK
6
CONTINUOUS
10
5.67421
20
-9.16533
11
5.66859
21
-9.14845
0
LINE
8
BLACK
6
CONTINUOUS
10
5.66859
20
-9.14845
11
5.66296
21
-9.1372
0
LINE
8
BLACK
6
CONTINUOUS
10
5.66296
20
-9.1372
11
5.65172
21
-9.12033
0
LINE
8
BLACK
6
CONTINUOUS
10
5.65172
20
-9.12033
11
5.64609
21
-9.11471
0
LINE
8
BLACK
6
CONTINUOUS
10
2.69193
20
-9.28917
11
2.69193
21
-9.41516
0
LINE
8
BLACK
6
CONTINUOUS
10
2.62894
20
-9.35217
11
2.75492
21
-9.35217
0
LINE
8
BLACK
6
CONTINUOUS
10
2.85644
20
-9.28749
11
2.92956
21
-9.28749
0
LINE
8
BLACK
6
CONTINUOUS
10
2.92956
20
-9.28749
11
2.89019
21
-9.33248
0
LINE
8
BLACK
6
CONTINUOUS
10
2.89019
20
-9.33248
11
2.90706
21
-9.33248
0
LINE
8
BLACK
6
CONTINUOUS
10
2.90706
20
-9.33248
11
2.91831
21
-9.3381
0
LINE
8
BLACK
6
CONTINUOUS
10
2.91831
20
-9.3381
11
2.92393
21
-9.34373
0
LINE
8
BLACK
6
CONTINUOUS
10
2.92393
20
-9.34373
11
2.92956
21
-9.35498
0
LINE
8
BLACK
6
CONTINUOUS
10
2.92956
20
-9.35498
11
2.92956
21
-9.3831
0
LINE
8
BLACK
6
CONTINUOUS
10
2.92956
20
-9.3831
11
2.92393
21
-9.39435
0
LINE
8
BLACK
6
CONTINUOUS
10
2.92393
20
-9.39435
11
2.91831
21
-9.39997
0
LINE
8
BLACK
6
CONTINUOUS
10
2.91831
20
-9.39997
11
2.90706
21
-9.4056
0
LINE
8
BLACK
6
CONTINUOUS
10
2.90706
20
-9.4056
11
2.87331
21
-9.4056
0
LINE
8
BLACK
6
CONTINUOUS
10
2.87331
20
-9.4056
11
2.86206
21
-9.39997
0
LINE
8
BLACK
6
CONTINUOUS
10
2.86206
20
-9.39997
11
2.85644
21
-9.39435
0
LINE
8
BLACK
6
CONTINUOUS
10
2.98017
20
-9.39435
11
2.9858
21
-9.39997
0
LINE
8
BLACK
6
CONTINUOUS
10
2.9858
20
-9.39997
11
2.98017
21
-9.4056
0
LINE
8
BLACK
6
CONTINUOUS
10
2.98017
20
-9.4056
11
2.97455
21
-9.39997
0
LINE
8
BLACK
6
CONTINUOUS
10
2.97455
20
-9.39997
11
2.98017
21
-9.39435
0
LINE
8
BLACK
6
CONTINUOUS
10
2.98017
20
-9.39435
11
2.98017
21
-9.4056
0
LINE
8
BLACK
6
CONTINUOUS
10
3.03079
20
-9.29873
11
3.03642
21
-9.29311
0
LINE
8
BLACK
6
CONTINUOUS
10
3.03642
20
-9.29311
11
3.04767
21
-9.28749
0
LINE
8
BLACK
6
CONTINUOUS
10
3.04767
20
-9.28749
11
3.07579
21
-9.28749
0
LINE
8
BLACK
6
CONTINUOUS
10
3.07579
20
-9.28749
11
3.08704
21
-9.29311
0
LINE
8
BLACK
6
CONTINUOUS
10
3.08704
20
-9.29311
11
3.09266
21
-9.29873
0
LINE
8
BLACK
6
CONTINUOUS
10
3.09266
20
-9.29873
11
3.09828
21
-9.30998
0
LINE
8
BLACK
6
CONTINUOUS
10
3.09828
20
-9.30998
11
3.09828
21
-9.32123
0
LINE
8
BLACK
6
CONTINUOUS
10
3.09828
20
-9.32123
11
3.09266
21
-9.3381
0
LINE
8
BLACK
6
CONTINUOUS
10
3.09266
20
-9.3381
11
3.02517
21
-9.4056
0
LINE
8
BLACK
6
CONTINUOUS
10
3.02517
20
-9.4056
11
3.09828
21
-9.4056
0
LINE
8
BLACK
6
CONTINUOUS
10
3.1714
20
-9.28749
11
3.18265
21
-9.28749
0
LINE
8
BLACK
6
CONTINUOUS
10
3.18265
20
-9.28749
11
3.1939
21
-9.29311
0
LINE
8
BLACK
6
CONTINUOUS
10
3.1939
20
-9.29311
11
3.19952
21
-9.29873
0
LINE
8
BLACK
6
CONTINUOUS
10
3.19952
20
-9.29873
11
3.20515
21
-9.30998
0
LINE
8
BLACK
6
CONTINUOUS
10
3.20515
20
-9.30998
11
3.21077
21
-9.33248
0
LINE
8
BLACK
6
CONTINUOUS
10
3.21077
20
-9.33248
11
3.21077
21
-9.3606
0
LINE
8
BLACK
6
CONTINUOUS
10
3.21077
20
-9.3606
11
3.20515
21
-9.3831
0
LINE
8
BLACK
6
CONTINUOUS
10
3.20515
20
-9.3831
11
3.19952
21
-9.39435
0
LINE
8
BLACK
6
CONTINUOUS
10
3.19952
20
-9.39435
11
3.1939
21
-9.39997
0
LINE
8
BLACK
6
CONTINUOUS
10
3.1939
20
-9.39997
11
3.18265
21
-9.4056
0
LINE
8
BLACK
6
CONTINUOUS
10
3.18265
20
-9.4056
11
3.1714
21
-9.4056
0
LINE
8
BLACK
6
CONTINUOUS
10
3.1714
20
-9.4056
11
3.16015
21
-9.39997
0
LINE
8
BLACK
6
CONTINUOUS
10
3.16015
20
-9.39997
11
3.15453
21
-9.39435
0
LINE
8
BLACK
6
CONTINUOUS
10
3.15453
20
-9.39435
11
3.1489
21
-9.3831
0
LINE
8
BLACK
6
CONTINUOUS
10
3.1489
20
-9.3831
11
3.14328
21
-9.3606
0
LINE
8
BLACK
6
CONTINUOUS
10
3.14328
20
-9.3606
11
3.14328
21
-9.33248
0
LINE
8
BLACK
6
CONTINUOUS
10
3.14328
20
-9.33248
11
3.1489
21
-9.30998
0
LINE
8
BLACK
6
CONTINUOUS
10
3.1489
20
-9.30998
11
3.15453
21
-9.29873
0
LINE
8
BLACK
6
CONTINUOUS
10
3.15453
20
-9.29873
11
3.16015
21
-9.29311
0
LINE
8
BLACK
6
CONTINUOUS
10
3.16015
20
-9.29311
11
3.1714
21
-9.28749
0
LINE
8
BLACK
6
CONTINUOUS
10
3.28389
20
-9.28749
11
3.29513
21
-9.28749
0
LINE
8
BLACK
6
CONTINUOUS
10
3.29513
20
-9.28749
11
3.30638
21
-9.29311
0
LINE
8
BLACK
6
CONTINUOUS
10
3.30638
20
-9.29311
11
3.31201
21
-9.29873
0
LINE
8
BLACK
6
CONTINUOUS
10
3.31201
20
-9.29873
11
3.31763
21
-9.30998
0
LINE
8
BLACK
6
CONTINUOUS
10
3.31763
20
-9.30998
11
3.32326
21
-9.33248
0
LINE
8
BLACK
6
CONTINUOUS
10
3.32326
20
-9.33248
11
3.32326
21
-9.3606
0
LINE
8
BLACK
6
CONTINUOUS
10
3.32326
20
-9.3606
11
3.31763
21
-9.3831
0
LINE
8
BLACK
6
CONTINUOUS
10
3.31763
20
-9.3831
11
3.31201
21
-9.39435
0
LINE
8
BLACK
6
CONTINUOUS
10
3.31201
20
-9.39435
11
3.30638
21
-9.39997
0
LINE
8
BLACK
6
CONTINUOUS
10
3.30638
20
-9.39997
11
3.29513
21
-9.4056
0
LINE
8
BLACK
6
CONTINUOUS
10
3.29513
20
-9.4056
11
3.28389
21
-9.4056
0
LINE
8
BLACK
6
CONTINUOUS
10
3.28389
20
-9.4056
11
3.27264
21
-9.39997
0
LINE
8
BLACK
6
CONTINUOUS
10
3.27264
20
-9.39997
11
3.26701
21
-9.39435
0
LINE
8
BLACK
6
CONTINUOUS
10
3.26701
20
-9.39435
11
3.26139
21
-9.3831
0
LINE
8
BLACK
6
CONTINUOUS
10
3.26139
20
-9.3831
11
3.25576
21
-9.3606
0
LINE
8
BLACK
6
CONTINUOUS
10
3.25576
20
-9.3606
11
3.25576
21
-9.33248
0
LINE
8
BLACK
6
CONTINUOUS
10
3.25576
20
-9.33248
11
3.26139
21
-9.30998
0
LINE
8
BLACK
6
CONTINUOUS
10
3.26139
20
-9.30998
11
3.26701
21
-9.29873
0
LINE
8
BLACK
6
CONTINUOUS
10
3.26701
20
-9.29873
11
3.27264
21
-9.29311
0
LINE
8
BLACK
6
CONTINUOUS
10
3.27264
20
-9.29311
11
3.28389
21
-9.28749
0
LINE
8
BLACK
6
CONTINUOUS
10
3.37388
20
-9.4056
11
3.37388
21
-9.32686
0
LINE
8
BLACK
6
CONTINUOUS
10
3.37388
20
-9.3381
11
3.3795
21
-9.33248
0
LINE
8
BLACK
6
CONTINUOUS
10
3.3795
20
-9.33248
11
3.39075
21
-9.32686
0
LINE
8
BLACK
6
CONTINUOUS
10
3.39075
20
-9.32686
11
3.40762
21
-9.32686
0
LINE
8
BLACK
6
CONTINUOUS
10
3.40762
20
-9.32686
11
3.41887
21
-9.33248
0
LINE
8
BLACK
6
CONTINUOUS
10
3.41887
20
-9.33248
11
3.42449
21
-9.34373
0
LINE
8
BLACK
6
CONTINUOUS
10
3.42449
20
-9.34373
11
3.42449
21
-9.4056
0
LINE
8
BLACK
6
CONTINUOUS
10
3.42449
20
-9.34373
11
3.43012
21
-9.33248
0
LINE
8
BLACK
6
CONTINUOUS
10
3.43012
20
-9.33248
11
3.44137
21
-9.32686
0
LINE
8
BLACK
6
CONTINUOUS
10
3.44137
20
-9.32686
11
3.45824
21
-9.32686
0
LINE
8
BLACK
6
CONTINUOUS
10
3.45824
20
-9.32686
11
3.46949
21
-9.33248
0
LINE
8
BLACK
6
CONTINUOUS
10
3.46949
20
-9.33248
11
3.47511
21
-9.34373
0
LINE
8
BLACK
6
CONTINUOUS
10
3.47511
20
-9.34373
11
3.47511
21
-9.4056
0
LINE
8
BLACK
6
CONTINUOUS
10
3.53136
20
-9.4056
11
3.53136
21
-9.32686
0
LINE
8
BLACK
6
CONTINUOUS
10
3.53136
20
-9.3381
11
3.53698
21
-9.33248
0
LINE
8
BLACK
6
CONTINUOUS
10
3.53698
20
-9.33248
11
3.54823
21
-9.32686
0
LINE
8
BLACK
6
CONTINUOUS
10
3.54823
20
-9.32686
11
3.5651
21
-9.32686
0
LINE
8
BLACK
6
CONTINUOUS
10
3.5651
20
-9.32686
11
3.57635
21
-9.33248
0
LINE
8
BLACK
6
CONTINUOUS
10
3.57635
20
-9.33248
11
3.58197
21
-9.34373
0
LINE
8
BLACK
6
CONTINUOUS
10
3.58197
20
-9.34373
11
3.58197
21
-9.4056
0
LINE
8
BLACK
6
CONTINUOUS
10
3.58197
20
-9.34373
11
3.5876
21
-9.33248
0
LINE
8
BLACK
6
CONTINUOUS
10
3.5876
20
-9.33248
11
3.59885
21
-9.32686
0
LINE
8
BLACK
6
CONTINUOUS
10
3.59885
20
-9.32686
11
3.61572
21
-9.32686
0
LINE
8
BLACK
6
CONTINUOUS
10
3.61572
20
-9.32686
11
3.62697
21
-9.33248
0
LINE
8
BLACK
6
CONTINUOUS
10
3.62697
20
-9.33248
11
3.63259
21
-9.34373
0
LINE
8
BLACK
6
CONTINUOUS
10
3.63259
20
-9.34373
11
3.63259
21
-9.4056
0
LINE
8
BLACK
6
CONTINUOUS
10
3.86319
20
-9.28186
11
3.76195
21
-9.43372
0
LINE
8
BLACK
6
CONTINUOUS
10
4.01504
20
-9.28749
11
4.02629
21
-9.28749
0
LINE
8
BLACK
6
CONTINUOUS
10
4.02629
20
-9.28749
11
4.03754
21
-9.29311
0
LINE
8
BLACK
6
CONTINUOUS
10
4.03754
20
-9.29311
11
4.04317
21
-9.29873
0
LINE
8
BLACK
6
CONTINUOUS
10
4.04317
20
-9.29873
11
4.04879
21
-9.30998
0
LINE
8
BLACK
6
CONTINUOUS
10
4.04879
20
-9.30998
11
4.05441
21
-9.33248
0
LINE
8
BLACK
6
CONTINUOUS
10
4.05441
20
-9.33248
11
4.05441
21
-9.3606
0
LINE
8
BLACK
6
CONTINUOUS
10
4.05441
20
-9.3606
11
4.04879
21
-9.3831
0
LINE
8
BLACK
6
CONTINUOUS
10
4.04879
20
-9.3831
11
4.04317
21
-9.39435
0
LINE
8
BLACK
6
CONTINUOUS
10
4.04317
20
-9.39435
11
4.03754
21
-9.39997
0
LINE
8
BLACK
6
CONTINUOUS
10
4.03754
20
-9.39997
11
4.02629
21
-9.4056
0
LINE
8
BLACK
6
CONTINUOUS
10
4.02629
20
-9.4056
11
4.01504
21
-9.4056
0
LINE
8
BLACK
6
CONTINUOUS
10
4.01504
20
-9.4056
11
4.0038
21
-9.39997
0
LINE
8
BLACK
6
CONTINUOUS
10
4.0038
20
-9.39997
11
3.99817
21
-9.39435
0
LINE
8
BLACK
6
CONTINUOUS
10
3.99817
20
-9.39435
11
3.99255
21
-9.3831
0
LINE
8
BLACK
6
CONTINUOUS
10
3.99255
20
-9.3831
11
3.98692
21
-9.3606
0
LINE
8
BLACK
6
CONTINUOUS
10
3.98692
20
-9.3606
11
3.98692
21
-9.33248
0
LINE
8
BLACK
6
CONTINUOUS
10
3.98692
20
-9.33248
11
3.99255
21
-9.30998
0
LINE
8
BLACK
6
CONTINUOUS
10
3.99255
20
-9.30998
11
3.99817
21
-9.29873
0
LINE
8
BLACK
6
CONTINUOUS
10
3.99817
20
-9.29873
11
4.0038
21
-9.29311
0
LINE
8
BLACK
6
CONTINUOUS
10
4.0038
20
-9.29311
11
4.01504
21
-9.28749
0
LINE
8
BLACK
6
CONTINUOUS
10
4.10503
20
-9.39435
11
4.11066
21
-9.39997
0
LINE
8
BLACK
6
CONTINUOUS
10
4.11066
20
-9.39997
11
4.10503
21
-9.4056
0
LINE
8
BLACK
6
CONTINUOUS
10
4.10503
20
-9.4056
11
4.09941
21
-9.39997
0
LINE
8
BLACK
6
CONTINUOUS
10
4.09941
20
-9.39997
11
4.10503
21
-9.39435
0
LINE
8
BLACK
6
CONTINUOUS
10
4.10503
20
-9.39435
11
4.10503
21
-9.4056
0
LINE
8
BLACK
6
CONTINUOUS
10
4.22314
20
-9.4056
11
4.15565
21
-9.4056
0
LINE
8
BLACK
6
CONTINUOUS
10
4.1894
20
-9.4056
11
4.1894
21
-9.28749
0
LINE
8
BLACK
6
CONTINUOUS
10
4.1894
20
-9.28749
11
4.17815
21
-9.30436
0
LINE
8
BLACK
6
CONTINUOUS
10
4.17815
20
-9.30436
11
4.1669
21
-9.31561
0
LINE
8
BLACK
6
CONTINUOUS
10
4.1669
20
-9.31561
11
4.15565
21
-9.32123
0
LINE
8
BLACK
6
CONTINUOUS
10
4.26814
20
-9.29873
11
4.27376
21
-9.29311
0
LINE
8
BLACK
6
CONTINUOUS
10
4.27376
20
-9.29311
11
4.28501
21
-9.28749
0
LINE
8
BLACK
6
CONTINUOUS
10
4.28501
20
-9.28749
11
4.31313
21
-9.28749
0
LINE
8
BLACK
6
CONTINUOUS
10
4.31313
20
-9.28749
11
4.32438
21
-9.29311
0
LINE
8
BLACK
6
CONTINUOUS
10
4.32438
20
-9.29311
11
4.33001
21
-9.29873
0
LINE
8
BLACK
6
CONTINUOUS
10
4.33001
20
-9.29873
11
4.33563
21
-9.30998
0
LINE
8
BLACK
6
CONTINUOUS
10
4.33563
20
-9.30998
11
4.33563
21
-9.32123
0
LINE
8
BLACK
6
CONTINUOUS
10
4.33563
20
-9.32123
11
4.33001
21
-9.3381
0
LINE
8
BLACK
6
CONTINUOUS
10
4.33001
20
-9.3381
11
4.26251
21
-9.4056
0
LINE
8
BLACK
6
CONTINUOUS
10
4.26251
20
-9.4056
11
4.33563
21
-9.4056
0
LINE
8
BLACK
6
CONTINUOUS
10
4.43687
20
-9.28749
11
4.41437
21
-9.28749
0
LINE
8
BLACK
6
CONTINUOUS
10
4.41437
20
-9.28749
11
4.40312
21
-9.29311
0
LINE
8
BLACK
6
CONTINUOUS
10
4.40312
20
-9.29311
11
4.3975
21
-9.29873
0
LINE
8
BLACK
6
CONTINUOUS
10
4.3975
20
-9.29873
11
4.38625
21
-9.31561
0
LINE
8
BLACK
6
CONTINUOUS
10
4.38625
20
-9.31561
11
4.38062
21
-9.3381
0
LINE
8
BLACK
6
CONTINUOUS
10
4.38062
20
-9.3381
11
4.38062
21
-9.3831
0
LINE
8
BLACK
6
CONTINUOUS
10
4.38062
20
-9.3831
11
4.38625
21
-9.39435
0
LINE
8
BLACK
6
CONTINUOUS
10
4.38625
20
-9.39435
11
4.39187
21
-9.39997
0
LINE
8
BLACK
6
CONTINUOUS
10
4.39187
20
-9.39997
11
4.40312
21
-9.4056
0
LINE
8
BLACK
6
CONTINUOUS
10
4.40312
20
-9.4056
11
4.42562
21
-9.4056
0
LINE
8
BLACK
6
CONTINUOUS
10
4.42562
20
-9.4056
11
4.43687
21
-9.39997
0
LINE
8
BLACK
6
CONTINUOUS
10
4.43687
20
-9.39997
11
4.44249
21
-9.39435
0
LINE
8
BLACK
6
CONTINUOUS
10
4.44249
20
-9.39435
11
4.44812
21
-9.3831
0
LINE
8
BLACK
6
CONTINUOUS
10
4.44812
20
-9.3831
11
4.44812
21
-9.35498
0
LINE
8
BLACK
6
CONTINUOUS
10
4.44812
20
-9.35498
11
4.44249
21
-9.34373
0
LINE
8
BLACK
6
CONTINUOUS
10
4.44249
20
-9.34373
11
4.43687
21
-9.3381
0
LINE
8
BLACK
6
CONTINUOUS
10
4.43687
20
-9.3381
11
4.42562
21
-9.33248
0
LINE
8
BLACK
6
CONTINUOUS
10
4.42562
20
-9.33248
11
4.40312
21
-9.33248
0
LINE
8
BLACK
6
CONTINUOUS
10
4.40312
20
-9.33248
11
4.39187
21
-9.3381
0
LINE
8
BLACK
6
CONTINUOUS
10
4.39187
20
-9.3381
11
4.38625
21
-9.34373
0
LINE
8
BLACK
6
CONTINUOUS
10
4.38625
20
-9.34373
11
4.38062
21
-9.35498
0
LINE
8
BLACK
6
CONTINUOUS
10
4.52123
20
-9.28749
11
4.53248
21
-9.28749
0
LINE
8
BLACK
6
CONTINUOUS
10
4.53248
20
-9.28749
11
4.54373
21
-9.29311
0
LINE
8
BLACK
6
CONTINUOUS
10
4.54373
20
-9.29311
11
4.54935
21
-9.29873
0
LINE
8
BLACK
6
CONTINUOUS
10
4.54935
20
-9.29873
11
4.55498
21
-9.30998
0
LINE
8
BLACK
6
CONTINUOUS
10
4.55498
20
-9.30998
11
4.5606
21
-9.33248
0
LINE
8
BLACK
6
CONTINUOUS
10
4.5606
20
-9.33248
11
4.5606
21
-9.3606
0
LINE
8
BLACK
6
CONTINUOUS
10
4.5606
20
-9.3606
11
4.55498
21
-9.3831
0
LINE
8
BLACK
6
CONTINUOUS
10
4.55498
20
-9.3831
11
4.54935
21
-9.39435
0
LINE
8
BLACK
6
CONTINUOUS
10
4.54935
20
-9.39435
11
4.54373
21
-9.39997
0
LINE
8
BLACK
6
CONTINUOUS
10
4.54373
20
-9.39997
11
4.53248
21
-9.4056
0
LINE
8
BLACK
6
CONTINUOUS
10
4.53248
20
-9.4056
11
4.52123
21
-9.4056
0
LINE
8
BLACK
6
CONTINUOUS
10
4.52123
20
-9.4056
11
4.50998
21
-9.39997
0
LINE
8
BLACK
6
CONTINUOUS
10
4.50998
20
-9.39997
11
4.50436
21
-9.39435
0
LINE
8
BLACK
6
CONTINUOUS
10
4.50436
20
-9.39435
11
4.49873
21
-9.3831
0
LINE
8
BLACK
6
CONTINUOUS
10
4.49873
20
-9.3831
11
4.49311
21
-9.3606
0
LINE
8
BLACK
6
CONTINUOUS
10
4.49311
20
-9.3606
11
4.49311
21
-9.33248
0
LINE
8
BLACK
6
CONTINUOUS
10
4.49311
20
-9.33248
11
4.49873
21
-9.30998
0
LINE
8
BLACK
6
CONTINUOUS
10
4.49873
20
-9.30998
11
4.50436
21
-9.29873
0
LINE
8
BLACK
6
CONTINUOUS
10
4.50436
20
-9.29873
11
4.50998
21
-9.29311
0
LINE
8
BLACK
6
CONTINUOUS
10
4.50998
20
-9.29311
11
4.52123
21
-9.28749
0
LINE
8
BLACK
6
CONTINUOUS
10
4.6056
20
-9.28749
11
4.6056
21
-9.30998
0
LINE
8
BLACK
6
CONTINUOUS
10
4.65059
20
-9.28749
11
4.65059
21
-9.30998
0
LINE
8
BLACK
6
CONTINUOUS
10
4.82494
20
-9.45059
11
4.81932
21
-9.44497
0
LINE
8
BLACK
6
CONTINUOUS
10
4.81932
20
-9.44497
11
4.80807
21
-9.42809
0
LINE
8
BLACK
6
CONTINUOUS
10
4.80807
20
-9.42809
11
4.80245
21
-9.41684
0
LINE
8
BLACK
6
CONTINUOUS
10
4.80245
20
-9.41684
11
4.79682
21
-9.39997
0
LINE
8
BLACK
6
CONTINUOUS
10
4.79682
20
-9.39997
11
4.7912
21
-9.37185
0
LINE
8
BLACK
6
CONTINUOUS
10
4.7912
20
-9.37185
11
4.7912
21
-9.34935
0
LINE
8
BLACK
6
CONTINUOUS
10
4.7912
20
-9.34935
11
4.79682
21
-9.32123
0
LINE
8
BLACK
6
CONTINUOUS
10
4.79682
20
-9.32123
11
4.80245
21
-9.30436
0
LINE
8
BLACK
6
CONTINUOUS
10
4.80245
20
-9.30436
11
4.80807
21
-9.29311
0
LINE
8
BLACK
6
CONTINUOUS
10
4.80807
20
-9.29311
11
4.81932
21
-9.27624
0
LINE
8
BLACK
6
CONTINUOUS
10
4.81932
20
-9.27624
11
4.82494
21
-9.27061
0
LINE
8
BLACK
6
CONTINUOUS
10
4.92056
20
-9.32686
11
4.92056
21
-9.4056
0
LINE
8
BLACK
6
CONTINUOUS
10
4.89244
20
-9.28186
11
4.86431
21
-9.36623
0
LINE
8
BLACK
6
CONTINUOUS
10
4.86431
20
-9.36623
11
4.93743
21
-9.36623
0
LINE
8
BLACK
6
CONTINUOUS
10
5.07241
20
-9.4056
11
5.07241
21
-9.28749
0
LINE
8
BLACK
6
CONTINUOUS
10
5.12303
20
-9.4056
11
5.12303
21
-9.34373
0
LINE
8
BLACK
6
CONTINUOUS
10
5.12303
20
-9.34373
11
5.11741
21
-9.33248
0
LINE
8
BLACK
6
CONTINUOUS
10
5.11741
20
-9.33248
11
5.10616
21
-9.32686
0
LINE
8
BLACK
6
CONTINUOUS
10
5.10616
20
-9.32686
11
5.08929
21
-9.32686
0
LINE
8
BLACK
6
CONTINUOUS
10
5.08929
20
-9.32686
11
5.07804
21
-9.33248
0
LINE
8
BLACK
6
CONTINUOUS
10
5.07804
20
-9.33248
11
5.07241
21
-9.3381
0
LINE
8
BLACK
6
CONTINUOUS
10
5.19615
20
-9.4056
11
5.1849
21
-9.39997
0
LINE
8
BLACK
6
CONTINUOUS
10
5.1849
20
-9.39997
11
5.17927
21
-9.39435
0
LINE
8
BLACK
6
CONTINUOUS
10
5.17927
20
-9.39435
11
5.17365
21
-9.3831
0
LINE
8
BLACK
6
CONTINUOUS
10
5.17365
20
-9.3831
11
5.17365
21
-9.34935
0
LINE
8
BLACK
6
CONTINUOUS
10
5.17365
20
-9.34935
11
5.17927
21
-9.3381
0
LINE
8
BLACK
6
CONTINUOUS
10
5.17927
20
-9.3381
11
5.1849
21
-9.33248
0
LINE
8
BLACK
6
CONTINUOUS
10
5.1849
20
-9.33248
11
5.19615
21
-9.32686
0
LINE
8
BLACK
6
CONTINUOUS
10
5.19615
20
-9.32686
11
5.21302
21
-9.32686
0
LINE
8
BLACK
6
CONTINUOUS
10
5.21302
20
-9.32686
11
5.22427
21
-9.33248
0
LINE
8
BLACK
6
CONTINUOUS
10
5.22427
20
-9.33248
11
5.22989
21
-9.3381
0
LINE
8
BLACK
6
CONTINUOUS
10
5.22989
20
-9.3381
11
5.23552
21
-9.34935
0
LINE
8
BLACK
6
CONTINUOUS
10
5.23552
20
-9.34935
11
5.23552
21
-9.3831
0
LINE
8
BLACK
6
CONTINUOUS
10
5.23552
20
-9.3831
11
5.22989
21
-9.39435
0
LINE
8
BLACK
6
CONTINUOUS
10
5.22989
20
-9.39435
11
5.22427
21
-9.39997
0
LINE
8
BLACK
6
CONTINUOUS
10
5.22427
20
-9.39997
11
5.21302
21
-9.4056
0
LINE
8
BLACK
6
CONTINUOUS
10
5.21302
20
-9.4056
11
5.19615
21
-9.4056
0
LINE
8
BLACK
6
CONTINUOUS
10
5.30301
20
-9.4056
11
5.29176
21
-9.39997
0
LINE
8
BLACK
6
CONTINUOUS
10
5.29176
20
-9.39997
11
5.28614
21
-9.38872
0
LINE
8
BLACK
6
CONTINUOUS
10
5.28614
20
-9.38872
11
5.28614
21
-9.28749
0
LINE
8
BLACK
6
CONTINUOUS
10
5.393
20
-9.39997
11
5.38175
21
-9.4056
0
LINE
8
BLACK
6
CONTINUOUS
10
5.38175
20
-9.4056
11
5.35925
21
-9.4056
0
LINE
8
BLACK
6
CONTINUOUS
10
5.35925
20
-9.4056
11
5.348
21
-9.39997
0
LINE
8
BLACK
6
CONTINUOUS
10
5.348
20
-9.39997
11
5.34238
21
-9.38872
0
LINE
8
BLACK
6
CONTINUOUS
10
5.34238
20
-9.38872
11
5.34238
21
-9.34373
0
LINE
8
BLACK
6
CONTINUOUS
10
5.34238
20
-9.34373
11
5.348
21
-9.33248
0
LINE
8
BLACK
6
CONTINUOUS
10
5.348
20
-9.33248
11
5.35925
21
-9.32686
0
LINE
8
BLACK
6
CONTINUOUS
10
5.35925
20
-9.32686
11
5.38175
21
-9.32686
0
LINE
8
BLACK
6
CONTINUOUS
10
5.38175
20
-9.32686
11
5.393
21
-9.33248
0
LINE
8
BLACK
6
CONTINUOUS
10
5.393
20
-9.33248
11
5.39862
21
-9.34373
0
LINE
8
BLACK
6
CONTINUOUS
10
5.39862
20
-9.34373
11
5.39862
21
-9.35498
0
LINE
8
BLACK
6
CONTINUOUS
10
5.39862
20
-9.35498
11
5.34238
21
-9.36623
0
LINE
8
BLACK
6
CONTINUOUS
10
5.44362
20
-9.39997
11
5.45486
21
-9.4056
0
LINE
8
BLACK
6
CONTINUOUS
10
5.45486
20
-9.4056
11
5.47736
21
-9.4056
0
LINE
8
BLACK
6
CONTINUOUS
10
5.47736
20
-9.4056
11
5.48861
21
-9.39997
0
LINE
8
BLACK
6
CONTINUOUS
10
5.48861
20
-9.39997
11
5.49424
21
-9.38872
0
LINE
8
BLACK
6
CONTINUOUS
10
5.49424
20
-9.38872
11
5.49424
21
-9.3831
0
LINE
8
BLACK
6
CONTINUOUS
10
5.49424
20
-9.3831
11
5.48861
21
-9.37185
0
LINE
8
BLACK
6
CONTINUOUS
10
5.48861
20
-9.37185
11
5.47736
21
-9.36623
0
LINE
8
BLACK
6
CONTINUOUS
10
5.47736
20
-9.36623
11
5.46049
21
-9.36623
0
LINE
8
BLACK
6
CONTINUOUS
10
5.46049
20
-9.36623
11
5.44924
21
-9.3606
0
LINE
8
BLACK
6
CONTINUOUS
10
5.44924
20
-9.3606
11
5.44362
21
-9.34935
0
LINE
8
BLACK
6
CONTINUOUS
10
5.44362
20
-9.34935
11
5.44362
21
-9.34373
0
LINE
8
BLACK
6
CONTINUOUS
10
5.44362
20
-9.34373
11
5.44924
21
-9.33248
0
LINE
8
BLACK
6
CONTINUOUS
10
5.44924
20
-9.33248
11
5.46049
21
-9.32686
0
LINE
8
BLACK
6
CONTINUOUS
10
5.46049
20
-9.32686
11
5.47736
21
-9.32686
0
LINE
8
BLACK
6
CONTINUOUS
10
5.47736
20
-9.32686
11
5.48861
21
-9.33248
0
LINE
8
BLACK
6
CONTINUOUS
10
5.53361
20
-9.45059
11
5.53923
21
-9.44497
0
LINE
8
BLACK
6
CONTINUOUS
10
5.53923
20
-9.44497
11
5.55048
21
-9.42809
0
LINE
8
BLACK
6
CONTINUOUS
10
5.55048
20
-9.42809
11
5.5561
21
-9.41684
0
LINE
8
BLACK
6
CONTINUOUS
10
5.5561
20
-9.41684
11
5.56173
21
-9.39997
0
LINE
8
BLACK
6
CONTINUOUS
10
5.56173
20
-9.39997
11
5.56735
21
-9.37185
0
LINE
8
BLACK
6
CONTINUOUS
10
5.56735
20
-9.37185
11
5.56735
21
-9.34935
0
LINE
8
BLACK
6
CONTINUOUS
10
5.56735
20
-9.34935
11
5.56173
21
-9.32123
0
LINE
8
BLACK
6
CONTINUOUS
10
5.56173
20
-9.32123
11
5.5561
21
-9.30436
0
LINE
8
BLACK
6
CONTINUOUS
10
5.5561
20
-9.30436
11
5.55048
21
-9.29311
0
LINE
8
BLACK
6
CONTINUOUS
10
5.55048
20
-9.29311
11
5.53923
21
-9.27624
0
LINE
8
BLACK
6
CONTINUOUS
10
5.53923
20
-9.27624
11
5.53361
21
-9.27061
  0
ENDSEC
  0
EOF
