  0
SECTION
  2
HEADER
  9
$ANGBASE
  50
0.0
  9
$ANGDIR
  70
1
  9
$MEASUREMENT
  70
0
  0
ENDSEC
  0
SECTION
  2
TABLES
  0
TABLE
  2
LTYPE
  70
4
  0
LTYPE
  5
40F
  2
CONTINUOUS
  70
0
  3
Solid line
  72
65
  73
0
  40
0.0
  0
LTYPE
  5
410
  2
DASHDOT
 70
0
  3
Dash Dot ____ _ ____ _
 72
65
 73
4
 40
2.0
 49
1.25
 49
-0.25
 49
0.25
 49
-0.25
  0
LTYPE
  5
411
  2
DASHED
 70
0
  3
Dashed __ __ __ __ __
 72
65
 73
2
 40
0.75
 49
0.5
 49
-0.25
  0
LTYPE
  5
43B
  2
DOTTED
 70
0
  3
Dotted .  .  .  .
 72
65
 73
2
 40
0.2
 49
0.0
 49
-0.2
  0
ENDTAB
  0
TABLE
  2
STYLE
  70
4
  0
STYLE
  2
KICAD
  70
0
  40
0
  41
1
  42
1
  50
0
  71
0
  3
isocp.shx
  0
STYLE
  2
KICADB
  70
0
  40
0
  41
1
  42
1
  50
0
  71
0
  3
isocp.shx
  0
STYLE
  2
KICADI
  70
0
  40
0
  41
1
  42
1
  50
15
  71
0
  3
isocp.shx
  0
STYLE
  2
KICADBI
  70
0
  40
0
  41
1
  42
1
  50
15
  71
0
  3
isocp.shx
  0
ENDTAB
  0
TABLE
  2
LAYER
  70
1
  0
LAYER
  2
BLACK
  70
0
  62
7
  6
CONTINUOUS
  0
ENDTAB
  0
ENDSEC
  0
SECTION
  2
ENTITIES
0
LINE
8
BLACK
6
CONTINUOUS
10
8.75984
20
-8.22835
11
8.75984
21
-8.66142
0
LINE
8
BLACK
6
CONTINUOUS
10
5.41339
20
-8.22835
11
8.75984
21
-8.22835
0
LINE
8
BLACK
6
CONTINUOUS
10
5.41339
20
-8.66142
11
5.41339
21
-8.22835
0
LINE
8
BLACK
6
CONTINUOUS
10
2.75591
20
-8.66142
11
5.41339
21
-8.66142
0
LINE
8
BLACK
6
CONTINUOUS
10
11.4173
20
-8.66142
11
8.75984
21
-8.66142
0
LINE
8
BLACK
6
CONTINUOUS
10
11.4173
20
-2.3622
11
11.4173
21
-8.66142
0
LINE
8
BLACK
6
CONTINUOUS
10
2.75591
20
-2.3622
11
11.4173
21
-2.3622
0
LINE
8
BLACK
6
CONTINUOUS
10
2.75591
20
-8.66142
11
2.75591
21
-2.3622
0
LINE
8
BLACK
6
CONTINUOUS
10
2.86769
20
-8.84575
11
2.86769
21
-8.72764
0
LINE
8
BLACK
6
CONTINUOUS
10
2.86769
20
-8.72764
11
2.89581
21
-8.72764
0
LINE
8
BLACK
6
CONTINUOUS
10
2.89581
20
-8.72764
11
2.91268
21
-8.73327
0
LINE
8
BLACK
6
CONTINUOUS
10
2.91268
20
-8.73327
11
2.92393
21
-8.74452
0
LINE
8
BLACK
6
CONTINUOUS
10
2.92393
20
-8.74452
11
2.92956
21
-8.75576
0
LINE
8
BLACK
6
CONTINUOUS
10
2.92956
20
-8.75576
11
2.93518
21
-8.77826
0
LINE
8
BLACK
6
CONTINUOUS
10
2.93518
20
-8.77826
11
2.93518
21
-8.79514
0
LINE
8
BLACK
6
CONTINUOUS
10
2.93518
20
-8.79514
11
2.92956
21
-8.81763
0
LINE
8
BLACK
6
CONTINUOUS
10
2.92956
20
-8.81763
11
2.92393
21
-8.82888
0
LINE
8
BLACK
6
CONTINUOUS
10
2.92393
20
-8.82888
11
2.91268
21
-8.84013
0
LINE
8
BLACK
6
CONTINUOUS
10
2.91268
20
-8.84013
11
2.89581
21
-8.84575
0
LINE
8
BLACK
6
CONTINUOUS
10
2.89581
20
-8.84575
11
2.86769
21
-8.84575
0
LINE
8
BLACK
6
CONTINUOUS
10
2.9858
20
-8.84575
11
2.9858
21
-8.76701
0
LINE
8
BLACK
6
CONTINUOUS
10
2.9858
20
-8.78951
11
2.99142
21
-8.77826
0
LINE
8
BLACK
6
CONTINUOUS
10
2.99142
20
-8.77826
11
2.99705
21
-8.77264
0
LINE
8
BLACK
6
CONTINUOUS
10
2.99705
20
-8.77264
11
3.0083
21
-8.76701
0
LINE
8
BLACK
6
CONTINUOUS
10
3.0083
20
-8.76701
11
3.01954
21
-8.76701
0
LINE
8
BLACK
6
CONTINUOUS
10
3.05891
20
-8.84575
11
3.05891
21
-8.76701
0
LINE
8
BLACK
6
CONTINUOUS
10
3.05891
20
-8.72764
11
3.05329
21
-8.73327
0
LINE
8
BLACK
6
CONTINUOUS
10
3.05329
20
-8.73327
11
3.05891
21
-8.73889
0
LINE
8
BLACK
6
CONTINUOUS
10
3.05891
20
-8.73889
11
3.06454
21
-8.73327
0
LINE
8
BLACK
6
CONTINUOUS
10
3.06454
20
-8.73327
11
3.05891
21
-8.72764
0
LINE
8
BLACK
6
CONTINUOUS
10
3.05891
20
-8.72764
11
3.05891
21
-8.73889
0
LINE
8
BLACK
6
CONTINUOUS
10
3.13203
20
-8.84575
11
3.12078
21
-8.84013
0
LINE
8
BLACK
6
CONTINUOUS
10
3.12078
20
-8.84013
11
3.11516
21
-8.82888
0
LINE
8
BLACK
6
CONTINUOUS
10
3.11516
20
-8.82888
11
3.11516
21
-8.72764
0
LINE
8
BLACK
6
CONTINUOUS
10
3.1939
20
-8.84575
11
3.18265
21
-8.84013
0
LINE
8
BLACK
6
CONTINUOUS
10
3.18265
20
-8.84013
11
3.17702
21
-8.82888
0
LINE
8
BLACK
6
CONTINUOUS
10
3.17702
20
-8.82888
11
3.17702
21
-8.72764
0
LINE
8
BLACK
6
CONTINUOUS
10
3.32888
20
-8.84575
11
3.32888
21
-8.72764
0
LINE
8
BLACK
6
CONTINUOUS
10
3.32888
20
-8.72764
11
3.36825
21
-8.81201
0
LINE
8
BLACK
6
CONTINUOUS
10
3.36825
20
-8.81201
11
3.40762
21
-8.72764
0
LINE
8
BLACK
6
CONTINUOUS
10
3.40762
20
-8.72764
11
3.40762
21
-8.84575
0
LINE
8
BLACK
6
CONTINUOUS
10
3.51448
20
-8.84575
11
3.51448
21
-8.78389
0
LINE
8
BLACK
6
CONTINUOUS
10
3.51448
20
-8.78389
11
3.50886
21
-8.77264
0
LINE
8
BLACK
6
CONTINUOUS
10
3.50886
20
-8.77264
11
3.49761
21
-8.76701
0
LINE
8
BLACK
6
CONTINUOUS
10
3.49761
20
-8.76701
11
3.47511
21
-8.76701
0
LINE
8
BLACK
6
CONTINUOUS
10
3.47511
20
-8.76701
11
3.46386
21
-8.77264
0
LINE
8
BLACK
6
CONTINUOUS
10
3.51448
20
-8.84013
11
3.50323
21
-8.84575
0
LINE
8
BLACK
6
CONTINUOUS
10
3.50323
20
-8.84575
11
3.47511
21
-8.84575
0
LINE
8
BLACK
6
CONTINUOUS
10
3.47511
20
-8.84575
11
3.46386
21
-8.84013
0
LINE
8
BLACK
6
CONTINUOUS
10
3.46386
20
-8.84013
11
3.45824
21
-8.82888
0
LINE
8
BLACK
6
CONTINUOUS
10
3.45824
20
-8.82888
11
3.45824
21
-8.81763
0
LINE
8
BLACK
6
CONTINUOUS
10
3.45824
20
-8.81763
11
3.46386
21
-8.80638
0
LINE
8
BLACK
6
CONTINUOUS
10
3.46386
20
-8.80638
11
3.47511
21
-8.80076
0
LINE
8
BLACK
6
CONTINUOUS
10
3.47511
20
-8.80076
11
3.50323
21
-8.80076
0
LINE
8
BLACK
6
CONTINUOUS
10
3.50323
20
-8.80076
11
3.51448
21
-8.79514
0
LINE
8
BLACK
6
CONTINUOUS
10
3.57073
20
-8.76701
11
3.57073
21
-8.88512
0
LINE
8
BLACK
6
CONTINUOUS
10
3.57073
20
-8.77264
11
3.58197
21
-8.76701
0
LINE
8
BLACK
6
CONTINUOUS
10
3.58197
20
-8.76701
11
3.60447
21
-8.76701
0
LINE
8
BLACK
6
CONTINUOUS
10
3.60447
20
-8.76701
11
3.61572
21
-8.77264
0
LINE
8
BLACK
6
CONTINUOUS
10
3.61572
20
-8.77264
11
3.62134
21
-8.77826
0
LINE
8
BLACK
6
CONTINUOUS
10
3.62134
20
-8.77826
11
3.62697
21
-8.78951
0
LINE
8
BLACK
6
CONTINUOUS
10
3.62697
20
-8.78951
11
3.62697
21
-8.82326
0
LINE
8
BLACK
6
CONTINUOUS
10
3.62697
20
-8.82326
11
3.62134
21
-8.83451
0
LINE
8
BLACK
6
CONTINUOUS
10
3.62134
20
-8.83451
11
3.61572
21
-8.84013
0
LINE
8
BLACK
6
CONTINUOUS
10
3.61572
20
-8.84013
11
3.60447
21
-8.84575
0
LINE
8
BLACK
6
CONTINUOUS
10
3.60447
20
-8.84575
11
3.58197
21
-8.84575
0
LINE
8
BLACK
6
CONTINUOUS
10
3.58197
20
-8.84575
11
3.57073
21
-8.84013
0
LINE
8
BLACK
6
CONTINUOUS
10
3.67759
20
-8.83451
11
3.68321
21
-8.84013
0
LINE
8
BLACK
6
CONTINUOUS
10
3.68321
20
-8.84013
11
3.67759
21
-8.84575
0
LINE
8
BLACK
6
CONTINUOUS
10
3.67759
20
-8.84575
11
3.67196
21
-8.84013
0
LINE
8
BLACK
6
CONTINUOUS
10
3.67196
20
-8.84013
11
3.67759
21
-8.83451
0
LINE
8
BLACK
6
CONTINUOUS
10
3.67759
20
-8.83451
11
3.67759
21
-8.84575
0
LINE
8
BLACK
6
CONTINUOUS
10
3.67759
20
-8.77264
11
3.68321
21
-8.77826
0
LINE
8
BLACK
6
CONTINUOUS
10
3.68321
20
-8.77826
11
3.67759
21
-8.78389
0
LINE
8
BLACK
6
CONTINUOUS
10
3.67759
20
-8.78389
11
3.67196
21
-8.77826
0
LINE
8
BLACK
6
CONTINUOUS
10
3.67196
20
-8.77826
11
3.67759
21
-8.77264
0
LINE
8
BLACK
6
CONTINUOUS
10
3.67759
20
-8.77264
11
3.67759
21
-8.78389
  0
ENDSEC
  0
EOF
