  0
SECTION
  2
HEADER
  9
$ANGBASE
  50
0.0
  9
$ANGDIR
  70
1
  9
$MEASUREMENT
  70
0
  0
ENDSEC
  0
SECTION
  2
TABLES
  0
TABLE
  2
LTYPE
  70
4
  0
LTYPE
  5
40F
  2
CONTINUOUS
  70
0
  3
Solid line
  72
65
  73
0
  40
0.0
  0
LTYPE
  5
410
  2
DASHDOT
 70
0
  3
Dash Dot ____ _ ____ _
 72
65
 73
4
 40
2.0
 49
1.25
 49
-0.25
 49
0.25
 49
-0.25
  0
LTYPE
  5
411
  2
DASHED
 70
0
  3
Dashed __ __ __ __ __
 72
65
 73
2
 40
0.75
 49
0.5
 49
-0.25
  0
LTYPE
  5
43B
  2
DOTTED
 70
0
  3
Dotted .  .  .  .
 72
65
 73
2
 40
0.2
 49
0.0
 49
-0.2
  0
ENDTAB
  0
TABLE
  2
STYLE
  70
4
  0
STYLE
  2
KICAD
  70
0
  40
0
  41
1
  42
1
  50
0
  71
0
  3
isocp.shx
  0
STYLE
  2
KICADB
  70
0
  40
0
  41
1
  42
1
  50
0
  71
0
  3
isocp.shx
  0
STYLE
  2
KICADI
  70
0
  40
0
  41
1
  42
1
  50
15
  71
0
  3
isocp.shx
  0
STYLE
  2
KICADBI
  70
0
  40
0
  41
1
  42
1
  50
15
  71
0
  3
isocp.shx
  0
ENDTAB
  0
TABLE
  2
LAYER
  70
1
  0
LAYER
  2
BLACK
  70
0
  62
7
  6
CONTINUOUS
  0
ENDTAB
  0
ENDSEC
  0
SECTION
  2
ENTITIES
0
LINE
8
BLACK
6
CONTINUOUS
10
7.38976
20
-6.88976
11
10.0394
21
-6.88976
0
LINE
8
BLACK
6
CONTINUOUS
10
7.38976
20
-6.45276
11
7.38976
21
-6.88976
0
LINE
8
BLACK
6
CONTINUOUS
10
4.00787
20
-6.45276
11
7.38976
21
-6.45276
0
LINE
8
BLACK
6
CONTINUOUS
10
4.00787
20
-6.88976
11
4.00787
21
-6.45276
0
LINE
8
BLACK
6
CONTINUOUS
10
1.37795
20
-6.88976
11
4.00787
21
-6.88976
0
LINE
8
BLACK
6
CONTINUOUS
10
10.0394
20
-0.590551
11
10.0394
21
-6.88976
0
LINE
8
BLACK
6
CONTINUOUS
10
1.37795
20
-0.590551
11
10.0394
21
-0.590551
0
LINE
8
BLACK
6
CONTINUOUS
10
1.37795
20
-6.88976
11
1.37795
21
-0.590551
0
LINE
8
BLACK
6
CONTINUOUS
10
1.48974
20
-7.0741
11
1.48974
21
-6.95599
0
LINE
8
BLACK
6
CONTINUOUS
10
1.48974
20
-6.95599
11
1.51786
21
-6.95599
0
LINE
8
BLACK
6
CONTINUOUS
10
1.51786
20
-6.95599
11
1.53473
21
-6.96161
0
LINE
8
BLACK
6
CONTINUOUS
10
1.53473
20
-6.96161
11
1.54598
21
-6.97286
0
LINE
8
BLACK
6
CONTINUOUS
10
1.54598
20
-6.97286
11
1.5516
21
-6.98411
0
LINE
8
BLACK
6
CONTINUOUS
10
1.5516
20
-6.98411
11
1.55723
21
-7.00661
0
LINE
8
BLACK
6
CONTINUOUS
10
1.55723
20
-7.00661
11
1.55723
21
-7.02348
0
LINE
8
BLACK
6
CONTINUOUS
10
1.55723
20
-7.02348
11
1.5516
21
-7.04598
0
LINE
8
BLACK
6
CONTINUOUS
10
1.5516
20
-7.04598
11
1.54598
21
-7.05723
0
LINE
8
BLACK
6
CONTINUOUS
10
1.54598
20
-7.05723
11
1.53473
21
-7.06848
0
LINE
8
BLACK
6
CONTINUOUS
10
1.53473
20
-7.06848
11
1.51786
21
-7.0741
0
LINE
8
BLACK
6
CONTINUOUS
10
1.51786
20
-7.0741
11
1.48974
21
-7.0741
0
LINE
8
BLACK
6
CONTINUOUS
10
1.60785
20
-7.0741
11
1.60785
21
-6.99536
0
LINE
8
BLACK
6
CONTINUOUS
10
1.60785
20
-7.01786
11
1.61347
21
-7.00661
0
LINE
8
BLACK
6
CONTINUOUS
10
1.61347
20
-7.00661
11
1.61909
21
-7.00098
0
LINE
8
BLACK
6
CONTINUOUS
10
1.61909
20
-7.00098
11
1.63034
21
-6.99536
0
LINE
8
BLACK
6
CONTINUOUS
10
1.63034
20
-6.99536
11
1.64159
21
-6.99536
0
LINE
8
BLACK
6
CONTINUOUS
10
1.68096
20
-7.0741
11
1.68096
21
-6.99536
0
LINE
8
BLACK
6
CONTINUOUS
10
1.68096
20
-6.95599
11
1.67534
21
-6.96161
0
LINE
8
BLACK
6
CONTINUOUS
10
1.67534
20
-6.96161
11
1.68096
21
-6.96724
0
LINE
8
BLACK
6
CONTINUOUS
10
1.68096
20
-6.96724
11
1.68659
21
-6.96161
0
LINE
8
BLACK
6
CONTINUOUS
10
1.68659
20
-6.96161
11
1.68096
21
-6.95599
0
LINE
8
BLACK
6
CONTINUOUS
10
1.68096
20
-6.95599
11
1.68096
21
-6.96724
0
LINE
8
BLACK
6
CONTINUOUS
10
1.75408
20
-7.0741
11
1.74283
21
-7.06848
0
LINE
8
BLACK
6
CONTINUOUS
10
1.74283
20
-7.06848
11
1.7372
21
-7.05723
0
LINE
8
BLACK
6
CONTINUOUS
10
1.7372
20
-7.05723
11
1.7372
21
-6.95599
0
LINE
8
BLACK
6
CONTINUOUS
10
1.81594
20
-7.0741
11
1.8047
21
-7.06848
0
LINE
8
BLACK
6
CONTINUOUS
10
1.8047
20
-7.06848
11
1.79907
21
-7.05723
0
LINE
8
BLACK
6
CONTINUOUS
10
1.79907
20
-7.05723
11
1.79907
21
-6.95599
0
LINE
8
BLACK
6
CONTINUOUS
10
1.95093
20
-7.0741
11
1.95093
21
-6.95599
0
LINE
8
BLACK
6
CONTINUOUS
10
1.95093
20
-6.95599
11
1.9903
21
-7.04035
0
LINE
8
BLACK
6
CONTINUOUS
10
1.9903
20
-7.04035
11
2.02967
21
-6.95599
0
LINE
8
BLACK
6
CONTINUOUS
10
2.02967
20
-6.95599
11
2.02967
21
-7.0741
0
LINE
8
BLACK
6
CONTINUOUS
10
2.13653
20
-7.0741
11
2.13653
21
-7.01223
0
LINE
8
BLACK
6
CONTINUOUS
10
2.13653
20
-7.01223
11
2.13091
21
-7.00098
0
LINE
8
BLACK
6
CONTINUOUS
10
2.13091
20
-7.00098
11
2.11966
21
-6.99536
0
LINE
8
BLACK
6
CONTINUOUS
10
2.11966
20
-6.99536
11
2.09716
21
-6.99536
0
LINE
8
BLACK
6
CONTINUOUS
10
2.09716
20
-6.99536
11
2.08591
21
-7.00098
0
LINE
8
BLACK
6
CONTINUOUS
10
2.13653
20
-7.06848
11
2.12528
21
-7.0741
0
LINE
8
BLACK
6
CONTINUOUS
10
2.12528
20
-7.0741
11
2.09716
21
-7.0741
0
LINE
8
BLACK
6
CONTINUOUS
10
2.09716
20
-7.0741
11
2.08591
21
-7.06848
0
LINE
8
BLACK
6
CONTINUOUS
10
2.08591
20
-7.06848
11
2.08029
21
-7.05723
0
LINE
8
BLACK
6
CONTINUOUS
10
2.08029
20
-7.05723
11
2.08029
21
-7.04598
0
LINE
8
BLACK
6
CONTINUOUS
10
2.08029
20
-7.04598
11
2.08591
21
-7.03473
0
LINE
8
BLACK
6
CONTINUOUS
10
2.08591
20
-7.03473
11
2.09716
21
-7.02911
0
LINE
8
BLACK
6
CONTINUOUS
10
2.09716
20
-7.02911
11
2.12528
21
-7.02911
0
LINE
8
BLACK
6
CONTINUOUS
10
2.12528
20
-7.02911
11
2.13653
21
-7.02348
0
LINE
8
BLACK
6
CONTINUOUS
10
2.19277
20
-6.99536
11
2.19277
21
-7.11347
0
LINE
8
BLACK
6
CONTINUOUS
10
2.19277
20
-7.00098
11
2.20402
21
-6.99536
0
LINE
8
BLACK
6
CONTINUOUS
10
2.20402
20
-6.99536
11
2.22652
21
-6.99536
0
LINE
8
BLACK
6
CONTINUOUS
10
2.22652
20
-6.99536
11
2.23777
21
-7.00098
0
LINE
8
BLACK
6
CONTINUOUS
10
2.23777
20
-7.00098
11
2.24339
21
-7.00661
0
LINE
8
BLACK
6
CONTINUOUS
10
2.24339
20
-7.00661
11
2.24902
21
-7.01786
0
LINE
8
BLACK
6
CONTINUOUS
10
2.24902
20
-7.01786
11
2.24902
21
-7.0516
0
LINE
8
BLACK
6
CONTINUOUS
10
2.24902
20
-7.0516
11
2.24339
21
-7.06285
0
LINE
8
BLACK
6
CONTINUOUS
10
2.24339
20
-7.06285
11
2.23777
21
-7.06848
0
LINE
8
BLACK
6
CONTINUOUS
10
2.23777
20
-7.06848
11
2.22652
21
-7.0741
0
LINE
8
BLACK
6
CONTINUOUS
10
2.22652
20
-7.0741
11
2.20402
21
-7.0741
0
LINE
8
BLACK
6
CONTINUOUS
10
2.20402
20
-7.0741
11
2.19277
21
-7.06848
0
LINE
8
BLACK
6
CONTINUOUS
10
2.29963
20
-7.06285
11
2.30526
21
-7.06848
0
LINE
8
BLACK
6
CONTINUOUS
10
2.30526
20
-7.06848
11
2.29963
21
-7.0741
0
LINE
8
BLACK
6
CONTINUOUS
10
2.29963
20
-7.0741
11
2.29401
21
-7.06848
0
LINE
8
BLACK
6
CONTINUOUS
10
2.29401
20
-7.06848
11
2.29963
21
-7.06285
0
LINE
8
BLACK
6
CONTINUOUS
10
2.29963
20
-7.06285
11
2.29963
21
-7.0741
0
LINE
8
BLACK
6
CONTINUOUS
10
2.29963
20
-7.00098
11
2.30526
21
-7.00661
0
LINE
8
BLACK
6
CONTINUOUS
10
2.30526
20
-7.00661
11
2.29963
21
-7.01223
0
LINE
8
BLACK
6
CONTINUOUS
10
2.29963
20
-7.01223
11
2.29401
21
-7.00661
0
LINE
8
BLACK
6
CONTINUOUS
10
2.29401
20
-7.00661
11
2.29963
21
-7.00098
0
LINE
8
BLACK
6
CONTINUOUS
10
2.29963
20
-7.00098
11
2.29963
21
-7.01223
  0
ENDSEC
  0
EOF
