%TF.GenerationSoftware,KiCad,Pcbnew,(5.1.10-1-10_14)*%
%TF.CreationDate,2022-02-06T20:45:04+11:00*%
%TF.ProjectId,Accumulator,41636375-6d75-46c6-9174-6f722e6b6963,rev?*%
%TF.SameCoordinates,Original*%
%TF.FileFunction,Copper,L2,Bot*%
%TF.FilePolarity,Positive*%
%FSLAX46Y46*%
G04 Gerber Fmt 4.6, Leading zero omitted, Abs format (unit mm)*
G04 Created by KiCad (PCBNEW (5.1.10-1-10_14)) date 2022-02-06 20:45:04*
%MOMM*%
%LPD*%
G01*
G04 APERTURE LIST*
%TA.AperFunction,ComponentPad*%
%ADD10C,2.000000*%
%TD*%
%TA.AperFunction,ComponentPad*%
%ADD11C,5.000000*%
%TD*%
%TA.AperFunction,ComponentPad*%
%ADD12O,1.600000X1.600000*%
%TD*%
%TA.AperFunction,ComponentPad*%
%ADD13C,1.600000*%
%TD*%
%TA.AperFunction,ComponentPad*%
%ADD14O,2.400000X1.600000*%
%TD*%
%TA.AperFunction,ComponentPad*%
%ADD15R,2.400000X1.600000*%
%TD*%
%TA.AperFunction,ConnectorPad*%
%ADD16R,2.540000X10.000000*%
%TD*%
%TA.AperFunction,ViaPad*%
%ADD17C,2.200000*%
%TD*%
%TA.AperFunction,Conductor*%
%ADD18C,1.905000*%
%TD*%
%TA.AperFunction,Conductor*%
%ADD19C,0.500000*%
%TD*%
%TA.AperFunction,Conductor*%
%ADD20C,0.254000*%
%TD*%
%TA.AperFunction,Conductor*%
%ADD21C,0.100000*%
%TD*%
G04 APERTURE END LIST*
D10*
%TO.P,C1,2*%
%TO.N,GND*%
X188500000Y-90800000D03*
%TO.P,C1,1*%
%TO.N,+5V*%
X188500000Y-98300000D03*
%TD*%
%TO.P,C2,2*%
%TO.N,GND*%
X252500000Y-139440000D03*
%TO.P,C2,1*%
%TO.N,+5V*%
X245000000Y-139440000D03*
%TD*%
%TO.P,C3,2*%
%TO.N,GND*%
X146000000Y-147000000D03*
%TO.P,C3,1*%
%TO.N,+5V*%
X146000000Y-139500000D03*
%TD*%
%TO.P,C4,2*%
%TO.N,GND*%
X252000000Y-90600000D03*
%TO.P,C4,1*%
%TO.N,+5V*%
X244500000Y-90600000D03*
%TD*%
D11*
%TO.P,H2,1*%
%TO.N,GND*%
X250000000Y-18000000D03*
X160000000Y-18000000D03*
%TD*%
%TO.P,H1,1*%
%TO.N,GND*%
X130000000Y-18000000D03*
X40000000Y-18000000D03*
%TD*%
D12*
%TO.P,R4,2*%
%TO.N,Net-(R4-Pad2)*%
X102945000Y-85465000D03*
D13*
%TO.P,R4,1*%
%TO.N,+5V*%
X102945000Y-100705000D03*
%TD*%
D14*
%TO.P,U2,14*%
%TO.N,+5V*%
X107430000Y-65740000D03*
%TO.P,U2,7*%
%TO.N,GND*%
X115050000Y-50500000D03*
%TO.P,U2,13*%
%TO.N,AC2*%
X107430000Y-63200000D03*
%TO.P,U2,6*%
%TO.N,AC=0*%
X115050000Y-53040000D03*
%TO.P,U2,12*%
X107430000Y-60660000D03*
%TO.P,U2,5*%
%TO.N,AC7*%
X115050000Y-55580000D03*
%TO.P,U2,11*%
%TO.N,AC1*%
X107430000Y-58120000D03*
%TO.P,U2,4*%
%TO.N,N/C*%
X115050000Y-58120000D03*
%TO.P,U2,10*%
%TO.N,AC=0*%
X107430000Y-55580000D03*
%TO.P,U2,3*%
%TO.N,N/C*%
X115050000Y-60660000D03*
%TO.P,U2,9*%
%TO.N,AC0*%
X107430000Y-53040000D03*
%TO.P,U2,2*%
%TO.N,AC=0*%
X115050000Y-63200000D03*
%TO.P,U2,8*%
X107430000Y-50500000D03*
D15*
%TO.P,U2,1*%
%TO.N,AC3*%
X115050000Y-65740000D03*
%TD*%
D16*
%TO.P,J1,16*%
%TO.N,GND*%
X191650400Y-169000000D03*
%TO.P,J1,15*%
%TO.N,AC=0*%
X195612800Y-169000000D03*
%TO.P,J1,14*%
%TO.N,~T2-9(TAD+IAC+CMA)*%
X199575200Y-169000000D03*
%TO.P,J1,13*%
%TO.N,T1*%
X203537600Y-169000000D03*
%TO.P,J1,12*%
%TO.N,T2-9*%
X207500000Y-169000000D03*
%TO.P,J1,11*%
%TO.N,AC0*%
X211462400Y-169000000D03*
%TO.P,J1,10*%
%TO.N,~IOT_SHIFT*%
X215424800Y-169000000D03*
%TO.P,J1,9*%
%TO.N,MCP*%
X219387200Y-169000000D03*
%TO.P,J1,8*%
%TO.N,~T13.RAR*%
X223349600Y-169000000D03*
%TO.P,J1,7*%
%TO.N,D-BUS*%
X227312000Y-169000000D03*
%TO.P,J1,6*%
%TO.N,C-BUS*%
X231274400Y-169000000D03*
%TO.P,J1,5*%
%TO.N,B-BUS*%
X235236800Y-169000000D03*
%TO.P,J1,4*%
%TO.N,A-BUS*%
X239199200Y-169000000D03*
%TO.P,J1,3*%
%TO.N,+5V*%
X243161600Y-169000000D03*
%TO.P,J1,2*%
X247124000Y-169000000D03*
%TO.P,J1,1*%
%TO.N,GND*%
X251086400Y-169000000D03*
%TD*%
%TO.P,J2,16*%
%TO.N,AC7*%
X38364000Y-169000000D03*
%TO.P,J2,15*%
%TO.N,AC6*%
X42326400Y-169000000D03*
%TO.P,J2,14*%
%TO.N,AC5*%
X46288800Y-169000000D03*
%TO.P,J2,13*%
%TO.N,AC4*%
X50251200Y-169000000D03*
%TO.P,J2,12*%
%TO.N,AC3*%
X54213600Y-169000000D03*
%TO.P,J2,11*%
%TO.N,AC2*%
X58176000Y-169000000D03*
%TO.P,J2,10*%
%TO.N,AC1*%
X62138400Y-169000000D03*
%TO.P,J2,9*%
%TO.N,AC0*%
X66100800Y-169000000D03*
%TO.P,J2,8*%
%TO.N,~CLA*%
X70063200Y-169000000D03*
%TO.P,J2,7*%
%TO.N,~CMA*%
X74025600Y-169000000D03*
%TO.P,J2,6*%
%TO.N,~RAL*%
X77988000Y-169000000D03*
%TO.P,J2,5*%
%TO.N,~IAC*%
X81950400Y-169000000D03*
%TO.P,J2,4*%
%TO.N,~RAR*%
X85912800Y-169000000D03*
%TO.P,J2,3*%
%TO.N,~DCA*%
X89875200Y-169000000D03*
%TO.P,J2,2*%
%TO.N,~TAD*%
X93837600Y-169000000D03*
%TO.P,J2,1*%
%TO.N,~AND*%
X97800000Y-169000000D03*
%TD*%
D12*
%TO.P,R1,2*%
%TO.N,+5V*%
X102310000Y-65780000D03*
D13*
%TO.P,R1,1*%
%TO.N,AC=0*%
X102310000Y-55620000D03*
%TD*%
D12*
%TO.P,R2,2*%
%TO.N,Net-(R2-Pad2)*%
X202005000Y-98165000D03*
D13*
%TO.P,R2,1*%
%TO.N,+5V*%
X191845000Y-98165000D03*
%TD*%
D12*
%TO.P,R3,2*%
%TO.N,Net-(R3-Pad2)*%
X218500000Y-125500000D03*
D13*
%TO.P,R3,1*%
%TO.N,+5V*%
X218500000Y-135660000D03*
%TD*%
D14*
%TO.P,U1,14*%
%TO.N,+5V*%
X77500000Y-65740000D03*
%TO.P,U1,7*%
%TO.N,GND*%
X85120000Y-50500000D03*
%TO.P,U1,13*%
%TO.N,AC3*%
X77500000Y-63200000D03*
%TO.P,U1,6*%
%TO.N,RAL*%
X85120000Y-53040000D03*
%TO.P,U1,12*%
%TO.N,AC2*%
X77500000Y-60660000D03*
%TO.P,U1,5*%
%TO.N,AC7*%
X85120000Y-55580000D03*
%TO.P,U1,11*%
%TO.N,AC1*%
X77500000Y-58120000D03*
%TO.P,U1,4*%
%TO.N,AC0*%
X85120000Y-58120000D03*
%TO.P,U1,10*%
X77500000Y-55580000D03*
%TO.P,U1,3*%
%TO.N,AC1*%
X85120000Y-60660000D03*
%TO.P,U1,9*%
%TO.N,CPA*%
X77500000Y-53040000D03*
%TO.P,U1,2*%
%TO.N,AC2*%
X85120000Y-63200000D03*
%TO.P,U1,8*%
%TO.N,T1*%
X77500000Y-50500000D03*
D15*
%TO.P,U1,1*%
%TO.N,AC4*%
X85120000Y-65740000D03*
%TD*%
D14*
%TO.P,U3,14*%
%TO.N,+5V*%
X77500000Y-100740000D03*
%TO.P,U3,7*%
%TO.N,GND*%
X85120000Y-85500000D03*
%TO.P,U3,13*%
%TO.N,AC7*%
X77500000Y-98200000D03*
%TO.P,U3,6*%
%TO.N,RAL*%
X85120000Y-88040000D03*
%TO.P,U3,12*%
%TO.N,AC6*%
X77500000Y-95660000D03*
%TO.P,U3,5*%
%TO.N,AC3*%
X85120000Y-90580000D03*
%TO.P,U3,11*%
%TO.N,AC5*%
X77500000Y-93120000D03*
%TO.P,U3,4*%
%TO.N,AC4*%
X85120000Y-93120000D03*
%TO.P,U3,10*%
X77500000Y-90580000D03*
%TO.P,U3,3*%
%TO.N,AC5*%
X85120000Y-95660000D03*
%TO.P,U3,9*%
%TO.N,CPA*%
X77500000Y-88040000D03*
%TO.P,U3,2*%
%TO.N,AC6*%
X85120000Y-98200000D03*
%TO.P,U3,8*%
%TO.N,T1*%
X77500000Y-85500000D03*
D15*
%TO.P,U3,1*%
%TO.N,Net-(U3-Pad1)*%
X85120000Y-100740000D03*
%TD*%
D14*
%TO.P,U4,14*%
%TO.N,+5V*%
X107500000Y-100740000D03*
%TO.P,U4,7*%
%TO.N,GND*%
X115120000Y-85500000D03*
%TO.P,U4,13*%
%TO.N,AC6*%
X107500000Y-98200000D03*
%TO.P,U4,6*%
%TO.N,N/C*%
X115120000Y-88040000D03*
%TO.P,U4,12*%
%TO.N,AC=0*%
X107500000Y-95660000D03*
%TO.P,U4,5*%
%TO.N,N/C*%
X115120000Y-90580000D03*
%TO.P,U4,11*%
%TO.N,AC5*%
X107500000Y-93120000D03*
%TO.P,U4,4*%
%TO.N,N/C*%
X115120000Y-93120000D03*
%TO.P,U4,10*%
%TO.N,AC=0*%
X107500000Y-90580000D03*
%TO.P,U4,3*%
%TO.N,N/C*%
X115120000Y-95660000D03*
%TO.P,U4,9*%
%TO.N,AC4*%
X107500000Y-88040000D03*
%TO.P,U4,2*%
%TO.N,Net-(R4-Pad2)*%
X115120000Y-98200000D03*
%TO.P,U4,8*%
%TO.N,AC=0*%
X107500000Y-85500000D03*
D15*
%TO.P,U4,1*%
%TO.N,~CMA*%
X115120000Y-100740000D03*
%TD*%
D14*
%TO.P,U5,14*%
%TO.N,+5V*%
X223500000Y-100740000D03*
%TO.P,U5,7*%
%TO.N,GND*%
X231120000Y-85500000D03*
%TO.P,U5,13*%
%TO.N,Net-(R2-Pad2)*%
X223500000Y-98200000D03*
%TO.P,U5,6*%
%TO.N,Net-(U5-Pad6)*%
X231120000Y-88040000D03*
%TO.P,U5,12*%
%TO.N,~CLA*%
X223500000Y-95660000D03*
%TO.P,U5,5*%
%TO.N,Net-(U5-Pad5)*%
X231120000Y-90580000D03*
%TO.P,U5,11*%
%TO.N,Net-(U5-Pad11)*%
X223500000Y-93120000D03*
%TO.P,U5,4*%
%TO.N,A-BUS*%
X231120000Y-93120000D03*
%TO.P,U5,10*%
%TO.N,N/C*%
X223500000Y-90580000D03*
%TO.P,U5,3*%
%TO.N,Net-(R4-Pad2)*%
X231120000Y-95660000D03*
%TO.P,U5,9*%
%TO.N,N/C*%
X223500000Y-88040000D03*
%TO.P,U5,2*%
%TO.N,Net-(U5-Pad2)*%
X231120000Y-98200000D03*
%TO.P,U5,8*%
%TO.N,N/C*%
X223500000Y-85500000D03*
D15*
%TO.P,U5,1*%
%TO.N,B-BUS*%
X231120000Y-100740000D03*
%TD*%
D14*
%TO.P,U6,14*%
%TO.N,+5V*%
X77500000Y-135740000D03*
%TO.P,U6,7*%
%TO.N,GND*%
X85120000Y-120500000D03*
%TO.P,U6,13*%
%TO.N,~IAC*%
X77500000Y-133200000D03*
%TO.P,U6,6*%
%TO.N,Net-(U6-Pad6)*%
X85120000Y-123040000D03*
%TO.P,U6,12*%
%TO.N,Net-(U6-Pad12)*%
X77500000Y-130660000D03*
%TO.P,U6,5*%
%TO.N,RAL*%
X85120000Y-125580000D03*
%TO.P,U6,11*%
%TO.N,~RAL*%
X77500000Y-128120000D03*
%TO.P,U6,4*%
%TO.N,Net-(U10-Pad11)*%
X85120000Y-128120000D03*
%TO.P,U6,10*%
%TO.N,RAL*%
X77500000Y-125580000D03*
%TO.P,U6,3*%
%TO.N,~DCA*%
X85120000Y-130660000D03*
%TO.P,U6,9*%
%TO.N,A-BUS*%
X77500000Y-123040000D03*
%TO.P,U6,2*%
%TO.N,Net-(U5-Pad6)*%
X85120000Y-133200000D03*
%TO.P,U6,8*%
%TO.N,Net-(U3-Pad1)*%
X77500000Y-120500000D03*
D15*
%TO.P,U6,1*%
%TO.N,~AND*%
X85120000Y-135740000D03*
%TD*%
D14*
%TO.P,U7,14*%
%TO.N,+5V*%
X146000000Y-135740000D03*
%TO.P,U7,7*%
%TO.N,GND*%
X153620000Y-120500000D03*
%TO.P,U7,13*%
%TO.N,~TAD*%
X146000000Y-133200000D03*
%TO.P,U7,6*%
%TO.N,Net-(U5-Pad11)*%
X153620000Y-123040000D03*
%TO.P,U7,12*%
%TO.N,~RAR*%
X146000000Y-130660000D03*
%TO.P,U7,5*%
%TO.N,Net-(U7-Pad4)*%
X153620000Y-125580000D03*
%TO.P,U7,11*%
%TO.N,Net-(U10-Pad2)*%
X146000000Y-128120000D03*
%TO.P,U7,4*%
%TO.N,Net-(U7-Pad4)*%
X153620000Y-128120000D03*
%TO.P,U7,10*%
%TO.N,Net-(U7-Pad10)*%
X146000000Y-125580000D03*
%TO.P,U7,3*%
X153620000Y-130660000D03*
%TO.P,U7,9*%
X146000000Y-123040000D03*
%TO.P,U7,2*%
%TO.N,Net-(U7-Pad2)*%
X153620000Y-133200000D03*
%TO.P,U7,8*%
%TO.N,CPA*%
X146000000Y-120500000D03*
D15*
%TO.P,U7,1*%
%TO.N,MCP*%
X153620000Y-135740000D03*
%TD*%
D14*
%TO.P,U8,14*%
%TO.N,+5V*%
X170500000Y-135740000D03*
%TO.P,U8,7*%
%TO.N,GND*%
X178120000Y-120500000D03*
%TO.P,U8,13*%
%TO.N,~T2-9(TAD+IAC+CMA)*%
X170500000Y-133200000D03*
%TO.P,U8,6*%
%TO.N,Net-(U10-Pad8)*%
X178120000Y-123040000D03*
%TO.P,U8,12*%
%TO.N,Net-(U7-Pad2)*%
X170500000Y-130660000D03*
%TO.P,U8,5*%
%TO.N,~CLA*%
X178120000Y-125580000D03*
%TO.P,U8,11*%
%TO.N,IOT_SHIFT*%
X170500000Y-128120000D03*
%TO.P,U8,4*%
%TO.N,~CMA*%
X178120000Y-128120000D03*
%TO.P,U8,10*%
%TO.N,~AND*%
X170500000Y-125580000D03*
%TO.P,U8,3*%
%TO.N,Net-(U6-Pad12)*%
X178120000Y-130660000D03*
%TO.P,U8,9*%
%TO.N,~DCA*%
X170500000Y-123040000D03*
%TO.P,U8,2*%
%TO.N,Net-(U8-Pad2)*%
X178120000Y-133200000D03*
%TO.P,U8,8*%
%TO.N,Net-(U7-Pad4)*%
X170500000Y-120500000D03*
D15*
%TO.P,U8,1*%
%TO.N,~T13.RAR*%
X178120000Y-135740000D03*
%TD*%
D14*
%TO.P,U9,14*%
%TO.N,+5V*%
X194000000Y-135740000D03*
%TO.P,U9,7*%
%TO.N,GND*%
X201620000Y-120500000D03*
%TO.P,U9,13*%
%TO.N,AC0*%
X194000000Y-133200000D03*
%TO.P,U9,6*%
%TO.N,Net-(U5-Pad5)*%
X201620000Y-123040000D03*
%TO.P,U9,12*%
%TO.N,~CLA*%
X194000000Y-130660000D03*
%TO.P,U9,5*%
%TO.N,Net-(U9-Pad3)*%
X201620000Y-125580000D03*
%TO.P,U9,11*%
%TO.N,Net-(U5-Pad2)*%
X194000000Y-128120000D03*
%TO.P,U9,4*%
%TO.N,Net-(U9-Pad3)*%
X201620000Y-128120000D03*
%TO.P,U9,10*%
%TO.N,T2-9*%
X194000000Y-125580000D03*
%TO.P,U9,3*%
%TO.N,Net-(U9-Pad3)*%
X201620000Y-130660000D03*
%TO.P,U9,9*%
%TO.N,Net-(R2-Pad2)*%
X194000000Y-123040000D03*
%TO.P,U9,2*%
%TO.N,AC0*%
X201620000Y-133200000D03*
%TO.P,U9,8*%
%TO.N,Net-(U8-Pad2)*%
X194000000Y-120500000D03*
D15*
%TO.P,U9,1*%
%TO.N,D-BUS*%
X201620000Y-135740000D03*
%TD*%
D14*
%TO.P,U10,14*%
%TO.N,+5V*%
X223500000Y-135740000D03*
%TO.P,U10,7*%
%TO.N,GND*%
X231120000Y-120500000D03*
%TO.P,U10,13*%
%TO.N,C-BUS*%
X223500000Y-133200000D03*
%TO.P,U10,6*%
%TO.N,Net-(R3-Pad2)*%
X231120000Y-123040000D03*
%TO.P,U10,12*%
%TO.N,AC0*%
X223500000Y-130660000D03*
%TO.P,U10,5*%
X231120000Y-125580000D03*
%TO.P,U10,11*%
%TO.N,Net-(U10-Pad11)*%
X223500000Y-128120000D03*
%TO.P,U10,4*%
%TO.N,B-BUS*%
X231120000Y-128120000D03*
%TO.P,U10,10*%
%TO.N,Net-(R3-Pad2)*%
X223500000Y-125580000D03*
%TO.P,U10,3*%
%TO.N,AC0*%
X231120000Y-130660000D03*
%TO.P,U10,9*%
%TO.N,Net-(U10-Pad8)*%
X223500000Y-123040000D03*
%TO.P,U10,2*%
%TO.N,Net-(U10-Pad2)*%
X231120000Y-133200000D03*
%TO.P,U10,8*%
%TO.N,Net-(U10-Pad8)*%
X223500000Y-120500000D03*
D15*
%TO.P,U10,1*%
%TO.N,B-BUS*%
X231120000Y-135740000D03*
%TD*%
D17*
%TO.N,GND*%
X85165000Y-117215000D03*
X231215000Y-117215000D03*
X202005000Y-117215000D03*
X178510000Y-117215000D03*
X153745000Y-117215000D03*
X85165000Y-82290000D03*
X231215000Y-82290000D03*
X115645000Y-82290000D03*
X251535000Y-117215000D03*
X252170000Y-82290000D03*
X158825000Y-117215000D03*
X158825000Y-136265000D03*
X85165000Y-41015000D03*
X115010000Y-41015000D03*
X217880000Y-82290000D03*
X193115000Y-82290000D03*
X167715000Y-82290000D03*
X156285000Y-117215000D03*
%TO.N,+5V*%
X77545000Y-139440000D03*
X223595000Y-139440000D03*
X193750000Y-139440000D03*
X170255000Y-139440000D03*
X77545000Y-68955000D03*
X107390000Y-68955000D03*
X77545000Y-103880000D03*
X107390000Y-103880000D03*
X223595000Y-103880000D03*
X246455000Y-72130000D03*
X243161600Y-103998400D03*
%TO.N,A-BUS*%
X238835000Y-159760000D03*
X76275000Y-159760000D03*
%TO.N,~T13.RAR*%
X222325000Y-155315000D03*
X178510000Y-155315000D03*
%TO.N,MCP*%
X219000000Y-152775000D03*
X154000000Y-152775000D03*
%TO.N,AC0*%
X60400000Y-96260000D03*
X60400000Y-110865000D03*
X211000000Y-151000000D03*
X63000000Y-151000000D03*
%TO.N,T1*%
X71830000Y-84830000D03*
X61670000Y-84830000D03*
X71830000Y-49905000D03*
X59130000Y-49905000D03*
X172160000Y-155315000D03*
X112470000Y-155315000D03*
%TO.N,AC=0*%
X114375000Y-136900000D03*
X114375000Y-119755000D03*
%TO.N,AC5*%
X44525000Y-96260000D03*
X44525000Y-110865000D03*
%TO.N,AC4*%
X47700000Y-96260000D03*
X47700000Y-110865000D03*
X90245000Y-84830000D03*
X90280000Y-93120000D03*
%TO.N,AC3*%
X50875000Y-96260000D03*
X50875000Y-110865000D03*
%TO.N,AC2*%
X54050000Y-96260000D03*
X54050000Y-110865000D03*
%TO.N,AC1*%
X57225000Y-96260000D03*
X57225000Y-110865000D03*
%TO.N,~CLA*%
X118820000Y-75940000D03*
X163270000Y-75940000D03*
%TO.N,~CMA*%
X172795000Y-100705000D03*
X118820000Y-100705000D03*
%TO.N,~RAR*%
X85800000Y-144520000D03*
X131520000Y-144520000D03*
%TO.N,~DCA*%
X134695000Y-110865000D03*
X168985000Y-110865000D03*
%TO.N,~TAD*%
X94055000Y-147695000D03*
X131520000Y-147695000D03*
%TO.N,~AND*%
X138505000Y-112770000D03*
X171525000Y-112770000D03*
%TO.N,Net-(R4-Pad2)*%
X121360000Y-79750000D03*
X238200000Y-79750000D03*
%TO.N,RAL*%
X95325000Y-53080000D03*
X95325000Y-65780000D03*
%TO.N,CPA*%
X71830000Y-88640000D03*
X61670000Y-88640000D03*
X71830000Y-53715000D03*
X59130000Y-53715000D03*
%TO.N,Net-(U3-Pad1)*%
X101040000Y-112770000D03*
X77545000Y-112770000D03*
%TO.N,Net-(U5-Pad6)*%
X136600000Y-72130000D03*
X225500000Y-72130000D03*
%TO.N,Net-(U5-Pad2)*%
X198195000Y-110230000D03*
X233120000Y-110230000D03*
%TO.N,Net-(U10-Pad11)*%
X229310000Y-108325000D03*
X132790000Y-108325000D03*
%TO.N,Net-(U6-Pad12)*%
X77545000Y-142615000D03*
X180415000Y-142615000D03*
%TO.N,Net-(U10-Pad2)*%
X151205000Y-148330000D03*
X233120000Y-148330000D03*
%TO.N,Net-(U10-Pad8)*%
X223595000Y-114675000D03*
X183590000Y-114675000D03*
%TD*%
D18*
%TO.N,GND*%
X85120000Y-117260000D02*
X85165000Y-117215000D01*
X85120000Y-120500000D02*
X85120000Y-117260000D01*
X231215000Y-120405000D02*
X231120000Y-120500000D01*
X231215000Y-117215000D02*
X231215000Y-120405000D01*
X201620000Y-117600000D02*
X202005000Y-117215000D01*
X201620000Y-120500000D02*
X201620000Y-117600000D01*
X178120000Y-117605000D02*
X178510000Y-117215000D01*
X178120000Y-120500000D02*
X178120000Y-117605000D01*
X153620000Y-117340000D02*
X153745000Y-117215000D01*
X153620000Y-120500000D02*
X153620000Y-117340000D01*
X85120000Y-82335000D02*
X85165000Y-82290000D01*
X85120000Y-85500000D02*
X85120000Y-82335000D01*
X231215000Y-85405000D02*
X231120000Y-85500000D01*
X231215000Y-82290000D02*
X231215000Y-85405000D01*
X115120000Y-82815000D02*
X115645000Y-82290000D01*
X115120000Y-85500000D02*
X115120000Y-82815000D01*
X253090000Y-169000000D02*
X251086400Y-169000000D01*
X251086400Y-169000000D02*
X251086400Y-161216400D01*
%TO.N,+5V*%
X77500000Y-139395000D02*
X77545000Y-139440000D01*
X77500000Y-135740000D02*
X77500000Y-139395000D01*
X223595000Y-135835000D02*
X223500000Y-135740000D01*
X223595000Y-139440000D02*
X223595000Y-135835000D01*
X194000000Y-139190000D02*
X193750000Y-139440000D01*
X194000000Y-135740000D02*
X194000000Y-139190000D01*
X170500000Y-139195000D02*
X170255000Y-139440000D01*
X170500000Y-135740000D02*
X170500000Y-139195000D01*
X146000000Y-135740000D02*
X146000000Y-138930000D01*
X146000000Y-138930000D02*
X145490000Y-139440000D01*
X77500000Y-68910000D02*
X77545000Y-68955000D01*
X77500000Y-65740000D02*
X77500000Y-68910000D01*
X77500000Y-103835000D02*
X77545000Y-103880000D01*
X77500000Y-100740000D02*
X77500000Y-103835000D01*
X107390000Y-100850000D02*
X107500000Y-100740000D01*
X107390000Y-103880000D02*
X107390000Y-100850000D01*
X223595000Y-100835000D02*
X223500000Y-100740000D01*
X223595000Y-103880000D02*
X223595000Y-100835000D01*
X107465000Y-100705000D02*
X107500000Y-100740000D01*
X102945000Y-100705000D02*
X107465000Y-100705000D01*
D19*
X218580000Y-135740000D02*
X218500000Y-135660000D01*
X223500000Y-135740000D02*
X218580000Y-135740000D01*
X107390000Y-65780000D02*
X107430000Y-65740000D01*
X102310000Y-65780000D02*
X107390000Y-65780000D01*
D18*
X246455000Y-168331000D02*
X247124000Y-169000000D01*
X246455000Y-72130000D02*
X246455000Y-168331000D01*
X243161600Y-75423400D02*
X246455000Y-72130000D01*
X243161600Y-169000000D02*
X243161600Y-75423400D01*
X107430000Y-68915000D02*
X107390000Y-68955000D01*
X107430000Y-65740000D02*
X107430000Y-68915000D01*
X145490000Y-139440000D02*
X145490000Y-139440000D01*
D19*
%TO.N,A-BUS*%
X239199200Y-160124200D02*
X238835000Y-159760000D01*
X239199200Y-169000000D02*
X239199200Y-160124200D01*
X76275000Y-159760000D02*
X76275000Y-150870000D01*
X76275000Y-150870000D02*
X71195000Y-145790000D01*
X71195000Y-145790000D02*
X71195000Y-124835000D01*
X72990000Y-123040000D02*
X77500000Y-123040000D01*
X71195000Y-124835000D02*
X72990000Y-123040000D01*
X238835000Y-155950000D02*
X238835000Y-159760000D01*
X240740000Y-154045000D02*
X238835000Y-155950000D01*
X235660000Y-79115000D02*
X237247500Y-77527500D01*
X234990000Y-93120000D02*
X235660000Y-92450000D01*
X235660000Y-92450000D02*
X235660000Y-79115000D01*
X231120000Y-93120000D02*
X234990000Y-93120000D01*
X240740000Y-79115000D02*
X239152500Y-77527500D01*
X237247500Y-77527500D02*
X239152500Y-77527500D01*
X240740000Y-79115000D02*
X240740000Y-154045000D01*
%TO.N,B-BUS*%
X231120000Y-135740000D02*
X234915000Y-135740000D01*
X235236800Y-136061800D02*
X235236800Y-169000000D01*
X234915000Y-135740000D02*
X235236800Y-136061800D01*
X233790000Y-100740000D02*
X231120000Y-100740000D01*
X235236800Y-102186800D02*
X233790000Y-100740000D01*
X235135000Y-128120000D02*
X235236800Y-128221800D01*
X235236800Y-128221800D02*
X235236800Y-102186800D01*
X231120000Y-128120000D02*
X235135000Y-128120000D01*
X235236800Y-136061800D02*
X235236800Y-128221800D01*
%TO.N,C-BUS*%
X223500000Y-133200000D02*
X226245000Y-133200000D01*
X226245000Y-133200000D02*
X226770000Y-133725000D01*
X226770000Y-133725000D02*
X226770000Y-139440000D01*
X231274400Y-143944400D02*
X231274400Y-144460600D01*
X226770000Y-139440000D02*
X231274400Y-143944400D01*
X231274400Y-169000000D02*
X231274400Y-144460600D01*
%TO.N,D-BUS*%
X227312000Y-169000000D02*
X227312000Y-143312000D01*
X227312000Y-143312000D02*
X226000000Y-142000000D01*
X226000000Y-142000000D02*
X218000000Y-142000000D01*
X211740000Y-135740000D02*
X201620000Y-135740000D01*
X218000000Y-142000000D02*
X211740000Y-135740000D01*
%TO.N,~T13.RAR*%
X223349600Y-158349600D02*
X223349600Y-169000000D01*
X181740000Y-135740000D02*
X178120000Y-135740000D01*
X183000000Y-137000000D02*
X181740000Y-135740000D01*
X178510000Y-155315000D02*
X181685000Y-155315000D01*
X181685000Y-155315000D02*
X183000000Y-154000000D01*
X183000000Y-154000000D02*
X183000000Y-137000000D01*
X222325000Y-155315000D02*
X222325000Y-157201604D01*
X222325000Y-157201604D02*
X223286698Y-158163302D01*
X223286698Y-158163302D02*
X223349600Y-158349600D01*
%TO.N,MCP*%
X154000000Y-136120000D02*
X153620000Y-135740000D01*
X154000000Y-152775000D02*
X154000000Y-136120000D01*
X219000000Y-152775000D02*
X219000000Y-154530000D01*
X219387200Y-154917200D02*
X219387200Y-169000000D01*
X219000000Y-154530000D02*
X219387200Y-154917200D01*
%TO.N,AC0*%
X77500000Y-55580000D02*
X80045000Y-55580000D01*
X80045000Y-55580000D02*
X82625000Y-58160000D01*
X82665000Y-58120000D02*
X85120000Y-58120000D01*
X82625000Y-58160000D02*
X82665000Y-58120000D01*
X107390000Y-53080000D02*
X107430000Y-53040000D01*
X101080000Y-53040000D02*
X107430000Y-53040000D01*
X96000000Y-58120000D02*
X101080000Y-53040000D01*
X85120000Y-58120000D02*
X96000000Y-58120000D01*
X67425000Y-55580000D02*
X77500000Y-55580000D01*
X65480000Y-57525000D02*
X67425000Y-55580000D01*
X65480000Y-94990000D02*
X65480000Y-57525000D01*
X64210000Y-96260000D02*
X65480000Y-94990000D01*
X60400000Y-96260000D02*
X64210000Y-96260000D01*
X201620000Y-133200000D02*
X210785000Y-133200000D01*
X213325000Y-130660000D02*
X223500000Y-130660000D01*
X210785000Y-133200000D02*
X213325000Y-130660000D01*
X231120000Y-125580000D02*
X228565000Y-125580000D01*
X228565000Y-125580000D02*
X227295000Y-126850000D01*
X227295000Y-126850000D02*
X227295000Y-130660000D01*
X227295000Y-130660000D02*
X231120000Y-130660000D01*
X223500000Y-130660000D02*
X227295000Y-130660000D01*
X201620000Y-133200000D02*
X198200000Y-133200000D01*
X198200000Y-133200000D02*
X194000000Y-133200000D01*
X211000000Y-168537600D02*
X211462400Y-169000000D01*
X211000000Y-151000000D02*
X211000000Y-168537600D01*
X200000000Y-151000000D02*
X198200000Y-149200000D01*
X211000000Y-151000000D02*
X200000000Y-151000000D01*
X198200000Y-149200000D02*
X198200000Y-133200000D01*
X66100800Y-154100800D02*
X66100800Y-155100800D01*
X63000000Y-151000000D02*
X66100800Y-154100800D01*
X66100800Y-155100800D02*
X66100800Y-169000000D01*
X66100800Y-154665800D02*
X66100800Y-155100800D01*
X60400000Y-148400000D02*
X60400000Y-147600000D01*
X63000000Y-151000000D02*
X60400000Y-148400000D01*
X60400000Y-110865000D02*
X60400000Y-147600000D01*
X60400000Y-147600000D02*
X60400000Y-148330000D01*
%TO.N,T2-9*%
X190000000Y-127000000D02*
X191420000Y-125580000D01*
X191420000Y-125580000D02*
X194000000Y-125580000D01*
X207500000Y-169000000D02*
X207500000Y-154460000D01*
X207500000Y-154460000D02*
X205815000Y-152775000D01*
X192600000Y-152775000D02*
X190000000Y-150175000D01*
X205815000Y-152775000D02*
X192600000Y-152775000D01*
X190000000Y-150175000D02*
X190000000Y-127000000D01*
%TO.N,T1*%
X72500000Y-85500000D02*
X71830000Y-84830000D01*
X77500000Y-85500000D02*
X72500000Y-85500000D01*
X72425000Y-50500000D02*
X71830000Y-49905000D01*
X77500000Y-50500000D02*
X72425000Y-50500000D01*
X61670000Y-52445000D02*
X59130000Y-49905000D01*
X61670000Y-84830000D02*
X61670000Y-52445000D01*
X203537600Y-159387600D02*
X203537600Y-169000000D01*
X201370000Y-157220000D02*
X203537600Y-159387600D01*
X174065000Y-157220000D02*
X201370000Y-157220000D01*
X172160000Y-155315000D02*
X174065000Y-157220000D01*
X112470000Y-136265000D02*
X112470000Y-155315000D01*
X114057500Y-134677500D02*
X112470000Y-136265000D01*
X128027500Y-134677500D02*
X114057500Y-134677500D01*
X137235000Y-45460000D02*
X140410000Y-48635000D01*
X140410000Y-48635000D02*
X140410000Y-122295000D01*
X140410000Y-122295000D02*
X128027500Y-134677500D01*
X61035000Y-45460000D02*
X137235000Y-45460000D01*
X59130000Y-47365000D02*
X61035000Y-45460000D01*
X59130000Y-49905000D02*
X59130000Y-47365000D01*
%TO.N,~T2-9(TAD+IAC+CMA)*%
X166970000Y-133200000D02*
X170500000Y-133200000D01*
X165810000Y-134360000D02*
X166970000Y-133200000D01*
X165810000Y-157220000D02*
X165810000Y-134360000D01*
X167080000Y-158490000D02*
X165810000Y-157220000D01*
X198830000Y-158490000D02*
X167080000Y-158490000D01*
X199575200Y-159235200D02*
X198830000Y-158490000D01*
X199575200Y-169000000D02*
X199575200Y-159235200D01*
%TO.N,AC=0*%
X107430000Y-50500000D02*
X109255000Y-50500000D01*
X115050000Y-63200000D02*
X111795000Y-63200000D01*
X111795000Y-63200000D02*
X111200000Y-62605000D01*
X109255000Y-50500000D02*
X111200000Y-52445000D01*
X111160000Y-60660000D02*
X111200000Y-60700000D01*
X107430000Y-60660000D02*
X111160000Y-60660000D01*
X111200000Y-62605000D02*
X111200000Y-60700000D01*
X111240000Y-53040000D02*
X111200000Y-53080000D01*
X115050000Y-53040000D02*
X111240000Y-53040000D01*
X111200000Y-53080000D02*
X111200000Y-52445000D01*
X111160000Y-55580000D02*
X111200000Y-55620000D01*
X111200000Y-55620000D02*
X111200000Y-53080000D01*
X107430000Y-55580000D02*
X111160000Y-55580000D01*
X111200000Y-60700000D02*
X111200000Y-55620000D01*
X107500000Y-85500000D02*
X109330000Y-85500000D01*
X109330000Y-85500000D02*
X110565000Y-86735000D01*
X109895000Y-95660000D02*
X107500000Y-95660000D01*
X110565000Y-94990000D02*
X109895000Y-95660000D01*
X110530000Y-90580000D02*
X110565000Y-90545000D01*
X107500000Y-90580000D02*
X110530000Y-90580000D01*
X110565000Y-90545000D02*
X110565000Y-94990000D01*
X110565000Y-86735000D02*
X110565000Y-90545000D01*
X117510000Y-63200000D02*
X115050000Y-63200000D01*
X118185000Y-63875000D02*
X117510000Y-63200000D01*
X101040000Y-72765000D02*
X116915000Y-72765000D01*
X100405000Y-73400000D02*
X101040000Y-72765000D01*
X100405000Y-87370000D02*
X100405000Y-73400000D01*
X101040000Y-88005000D02*
X100405000Y-87370000D01*
X116915000Y-72765000D02*
X118185000Y-71495000D01*
X103580000Y-88005000D02*
X101040000Y-88005000D01*
X106085000Y-85500000D02*
X103580000Y-88005000D01*
X107500000Y-85500000D02*
X106085000Y-85500000D01*
X123265000Y-72765000D02*
X124535000Y-74035000D01*
X124535000Y-74035000D02*
X124535000Y-94990000D01*
X118185000Y-70860000D02*
X118185000Y-72765000D01*
X116915000Y-72765000D02*
X118185000Y-72765000D01*
X118185000Y-72765000D02*
X123265000Y-72765000D01*
X118185000Y-71495000D02*
X118185000Y-70860000D01*
X118185000Y-70860000D02*
X118185000Y-63875000D01*
X107390000Y-55620000D02*
X107430000Y-55580000D01*
X102310000Y-55620000D02*
X107390000Y-55620000D01*
X124535000Y-101975000D02*
X124535000Y-102610000D01*
X124535000Y-94990000D02*
X124535000Y-101975000D01*
X126440000Y-150870000D02*
X115645000Y-150870000D01*
X114375000Y-149600000D02*
X114375000Y-136900000D01*
X115645000Y-150870000D02*
X114375000Y-149600000D01*
X124535000Y-106420000D02*
X124535000Y-101975000D01*
X114375000Y-116580000D02*
X124535000Y-106420000D01*
X114375000Y-119755000D02*
X114375000Y-116580000D01*
X195612800Y-160987800D02*
X195612800Y-169000000D01*
X164540000Y-157855000D02*
X166445000Y-159760000D01*
X163270000Y-134360000D02*
X164540000Y-135630000D01*
X157555000Y-134360000D02*
X163270000Y-134360000D01*
X156285000Y-135630000D02*
X157555000Y-134360000D01*
X156285000Y-154680000D02*
X156285000Y-135630000D01*
X164540000Y-135630000D02*
X164540000Y-157855000D01*
X141045000Y-149600000D02*
X141045000Y-145790000D01*
X150570000Y-155315000D02*
X155650000Y-155315000D01*
X194385000Y-159760000D02*
X195612800Y-160987800D01*
X147395000Y-144520000D02*
X149300000Y-146425000D01*
X142315000Y-144520000D02*
X147395000Y-144520000D01*
X149300000Y-154045000D02*
X150570000Y-155315000D01*
X155650000Y-155315000D02*
X156285000Y-154680000D01*
X166445000Y-159760000D02*
X194385000Y-159760000D01*
X149300000Y-146425000D02*
X149300000Y-154045000D01*
X139775000Y-150870000D02*
X141045000Y-149600000D01*
X141045000Y-145790000D02*
X142315000Y-144520000D01*
X126440000Y-150870000D02*
X139775000Y-150870000D01*
%TO.N,AC7*%
X38364000Y-169000000D02*
X38364000Y-117661000D01*
X74335000Y-98200000D02*
X77500000Y-98200000D01*
X73100000Y-99435000D02*
X74335000Y-98200000D01*
X124535000Y-49270000D02*
X124535000Y-54985000D01*
X124535000Y-54985000D02*
X123940000Y-55580000D01*
X103580000Y-48000000D02*
X123265000Y-48000000D01*
X96000000Y-55580000D02*
X103580000Y-48000000D01*
X123265000Y-48000000D02*
X124535000Y-49270000D01*
X123940000Y-55580000D02*
X115050000Y-55580000D01*
X85120000Y-55580000D02*
X96000000Y-55580000D01*
X83220000Y-55580000D02*
X85120000Y-55580000D01*
X81990000Y-54350000D02*
X83220000Y-55580000D01*
X64210000Y-49270000D02*
X65480000Y-48000000D01*
X81990000Y-49270000D02*
X81990000Y-54350000D01*
X80720000Y-48000000D02*
X81990000Y-49270000D01*
X64210000Y-91180000D02*
X64210000Y-49270000D01*
X65480000Y-48000000D02*
X80720000Y-48000000D01*
X62940000Y-92450000D02*
X64210000Y-91180000D01*
X40715000Y-92450000D02*
X62940000Y-92450000D01*
X38364000Y-94801000D02*
X40715000Y-92450000D01*
X73100000Y-103245000D02*
X73100000Y-99435000D01*
X38364000Y-117661000D02*
X38364000Y-105339000D01*
X38553000Y-105150000D02*
X38364000Y-104961000D01*
X71195000Y-105150000D02*
X38553000Y-105150000D01*
X38364000Y-104961000D02*
X38364000Y-94801000D01*
X38364000Y-105339000D02*
X38364000Y-104961000D01*
X71195000Y-105150000D02*
X73100000Y-103245000D01*
%TO.N,AC6*%
X79485000Y-95660000D02*
X77500000Y-95660000D01*
X80085000Y-96260000D02*
X79485000Y-95660000D01*
X80085000Y-98165000D02*
X80085000Y-96260000D01*
X80120000Y-98200000D02*
X80085000Y-98165000D01*
X85120000Y-98200000D02*
X80120000Y-98200000D01*
X85120000Y-98200000D02*
X107500000Y-98200000D01*
X80085000Y-105150000D02*
X80085000Y-98165000D01*
X43255000Y-106420000D02*
X78815000Y-106420000D01*
X41350000Y-108325000D02*
X43255000Y-106420000D01*
X42326400Y-169000000D02*
X42326400Y-153751400D01*
X42326400Y-153751400D02*
X41350000Y-152775000D01*
X78815000Y-106420000D02*
X80085000Y-105150000D01*
X41350000Y-152775000D02*
X41350000Y-108325000D01*
%TO.N,AC5*%
X44525000Y-120390000D02*
X44525000Y-120390000D01*
X77500000Y-93120000D02*
X80120000Y-93120000D01*
X82660000Y-95660000D02*
X85120000Y-95660000D01*
X80120000Y-93120000D02*
X82660000Y-95660000D01*
X85120000Y-95660000D02*
X96560000Y-95660000D01*
X99100000Y-93120000D02*
X107500000Y-93120000D01*
X96560000Y-95660000D02*
X99100000Y-93120000D01*
X73135000Y-93120000D02*
X77500000Y-93120000D01*
X71900000Y-94355000D02*
X73135000Y-93120000D01*
X44525000Y-96260000D02*
X44525000Y-103245000D01*
X44525000Y-103245000D02*
X45160000Y-103880000D01*
X45160000Y-103880000D02*
X69925000Y-103880000D01*
X69925000Y-103880000D02*
X71900000Y-101905000D01*
X71900000Y-101905000D02*
X71900000Y-94355000D01*
X44525000Y-151505000D02*
X46288800Y-153268800D01*
X44525000Y-110865000D02*
X44525000Y-151505000D01*
X46288800Y-153268800D02*
X46288800Y-169000000D01*
%TO.N,AC4*%
X77500000Y-90580000D02*
X80120000Y-90580000D01*
X82660000Y-93120000D02*
X85120000Y-93120000D01*
X80120000Y-90580000D02*
X82660000Y-93120000D01*
X96560000Y-93120000D02*
X99135000Y-90545000D01*
X99135000Y-90545000D02*
X103580000Y-90545000D01*
X106085000Y-88040000D02*
X107500000Y-88040000D01*
X103580000Y-90545000D02*
X106085000Y-88040000D01*
X71795000Y-90580000D02*
X77500000Y-90580000D01*
X70560000Y-91815000D02*
X71795000Y-90580000D01*
X47700000Y-96260000D02*
X47700000Y-101340000D01*
X47700000Y-101340000D02*
X48970000Y-102610000D01*
X68655000Y-102610000D02*
X70560000Y-100705000D01*
X48970000Y-102610000D02*
X68655000Y-102610000D01*
X70560000Y-100705000D02*
X70560000Y-91815000D01*
X50251200Y-153421200D02*
X50251200Y-169000000D01*
X47700000Y-150870000D02*
X50251200Y-153421200D01*
X47700000Y-110865000D02*
X47700000Y-150870000D01*
X85120000Y-65740000D02*
X88935000Y-65740000D01*
X90245000Y-67050000D02*
X90245000Y-84830000D01*
X88935000Y-65740000D02*
X90245000Y-67050000D01*
X90280000Y-93120000D02*
X96560000Y-93120000D01*
X85120000Y-93120000D02*
X90280000Y-93120000D01*
%TO.N,AC3*%
X54213600Y-169000000D02*
X54213600Y-153573600D01*
X54213600Y-153573600D02*
X54050000Y-153410000D01*
X82660000Y-90580000D02*
X85120000Y-90580000D01*
X80720000Y-64510000D02*
X80720000Y-88640000D01*
X80720000Y-88640000D02*
X82660000Y-90580000D01*
X79410000Y-63200000D02*
X80720000Y-64510000D01*
X77500000Y-63200000D02*
X79410000Y-63200000D01*
X85120000Y-90580000D02*
X96560000Y-90580000D01*
X96560000Y-90580000D02*
X98500000Y-88640000D01*
X98500000Y-88640000D02*
X98500000Y-73400000D01*
X98500000Y-73400000D02*
X100405000Y-71495000D01*
X100405000Y-71495000D02*
X113740000Y-71495000D01*
X115050000Y-70185000D02*
X115050000Y-65740000D01*
X113740000Y-71495000D02*
X115050000Y-70185000D01*
X69290000Y-64510000D02*
X70600000Y-63200000D01*
X70600000Y-63200000D02*
X77500000Y-63200000D01*
X50875000Y-96260000D02*
X50875000Y-100070000D01*
X50875000Y-100070000D02*
X52145000Y-101340000D01*
X67385000Y-101340000D02*
X69290000Y-99435000D01*
X52145000Y-101340000D02*
X67385000Y-101340000D01*
X69290000Y-99435000D02*
X69290000Y-64510000D01*
X50875000Y-150235000D02*
X54213600Y-153573600D01*
X50875000Y-110865000D02*
X50875000Y-150235000D01*
%TO.N,AC2*%
X77500000Y-60660000D02*
X80045000Y-60660000D01*
X80045000Y-60660000D02*
X82625000Y-63240000D01*
X85080000Y-63240000D02*
X85120000Y-63200000D01*
X82625000Y-63240000D02*
X85080000Y-63240000D01*
X85120000Y-63200000D02*
X96000000Y-63200000D01*
X96000000Y-63200000D02*
X107430000Y-63200000D01*
X69330000Y-60660000D02*
X77500000Y-60660000D01*
X68020000Y-61970000D02*
X69330000Y-60660000D01*
X54050000Y-96260000D02*
X54050000Y-98800000D01*
X54050000Y-98800000D02*
X55320000Y-100070000D01*
X66115000Y-100070000D02*
X68020000Y-98165000D01*
X55320000Y-100070000D02*
X66115000Y-100070000D01*
X68020000Y-98165000D02*
X68020000Y-61970000D01*
X58176000Y-154361000D02*
X58176000Y-169000000D01*
X54050000Y-150235000D02*
X58176000Y-154361000D01*
X54050000Y-110865000D02*
X54050000Y-150235000D01*
%TO.N,AC1*%
X77500000Y-58120000D02*
X80045000Y-58120000D01*
X82585000Y-60660000D02*
X85120000Y-60660000D01*
X80045000Y-58120000D02*
X82585000Y-60660000D01*
X107390000Y-58160000D02*
X107430000Y-58120000D01*
X97230000Y-58160000D02*
X107390000Y-58160000D01*
X94730000Y-60660000D02*
X97230000Y-58160000D01*
X85120000Y-60660000D02*
X94730000Y-60660000D01*
X68695000Y-58120000D02*
X77500000Y-58120000D01*
X66750000Y-60065000D02*
X68695000Y-58120000D01*
X57225000Y-96260000D02*
X57225000Y-98165000D01*
X57225000Y-98165000D02*
X57860000Y-98800000D01*
X64845000Y-98800000D02*
X66750000Y-96895000D01*
X57860000Y-98800000D02*
X64845000Y-98800000D01*
X66750000Y-96895000D02*
X66750000Y-60065000D01*
X62138400Y-154513400D02*
X62138400Y-169000000D01*
X57225000Y-149600000D02*
X62138400Y-154513400D01*
X57225000Y-110865000D02*
X57225000Y-149600000D01*
%TO.N,~CLA*%
X163270000Y-75940000D02*
X163270000Y-94355000D01*
X163270000Y-94355000D02*
X164575000Y-95660000D01*
X164575000Y-95660000D02*
X175935000Y-95660000D01*
X113740000Y-75940000D02*
X118820000Y-75940000D01*
X111835000Y-112770000D02*
X111835000Y-77845000D01*
X68655000Y-147060000D02*
X68655000Y-109595000D01*
X98500000Y-113405000D02*
X99770000Y-114675000D01*
X98500000Y-109595000D02*
X98500000Y-113405000D01*
X111835000Y-77845000D02*
X113740000Y-75940000D01*
X70560000Y-107690000D02*
X96595000Y-107690000D01*
X96595000Y-107690000D02*
X98500000Y-109595000D01*
X68655000Y-109595000D02*
X70560000Y-107690000D01*
X99770000Y-114675000D02*
X109930000Y-114675000D01*
X109930000Y-114675000D02*
X111835000Y-112770000D01*
X70063200Y-169000000D02*
X70063200Y-148468200D01*
X70063200Y-148468200D02*
X68655000Y-147060000D01*
X194000000Y-130660000D02*
X198085000Y-130660000D01*
X198085000Y-130660000D02*
X199465000Y-129280000D01*
X199465000Y-129280000D02*
X199465000Y-112135000D01*
X221655000Y-95660000D02*
X223500000Y-95660000D01*
X175935000Y-95660000D02*
X221655000Y-95660000D01*
X175935000Y-123795000D02*
X175935000Y-95660000D01*
X178120000Y-125580000D02*
X177720000Y-125580000D01*
X177720000Y-125580000D02*
X175935000Y-123795000D01*
X202640000Y-108960000D02*
X200100000Y-111500000D01*
X223595000Y-108960000D02*
X202640000Y-108960000D01*
X225500000Y-107055000D02*
X223595000Y-108960000D01*
X224900000Y-95660000D02*
X225500000Y-96260000D01*
X200100000Y-111500000D02*
X200735000Y-110865000D01*
X225500000Y-96260000D02*
X225500000Y-107055000D01*
X223500000Y-95660000D02*
X224900000Y-95660000D01*
X199465000Y-112135000D02*
X200100000Y-111500000D01*
%TO.N,~CMA*%
X97230000Y-114040000D02*
X99135000Y-115945000D01*
X115120000Y-113930000D02*
X115120000Y-100740000D01*
X95960000Y-108960000D02*
X97230000Y-110230000D01*
X74025600Y-150525600D02*
X69925000Y-146425000D01*
X71830000Y-108960000D02*
X95960000Y-108960000D01*
X99135000Y-115945000D02*
X113105000Y-115945000D01*
X97230000Y-110230000D02*
X97230000Y-114040000D01*
X69925000Y-110865000D02*
X71830000Y-108960000D01*
X113105000Y-115945000D02*
X115120000Y-113930000D01*
X69925000Y-146425000D02*
X69925000Y-110865000D01*
X74025600Y-169000000D02*
X74025600Y-150525600D01*
X178120000Y-128120000D02*
X176715000Y-128120000D01*
X178120000Y-127747781D02*
X174700000Y-124327781D01*
X178120000Y-128120000D02*
X178120000Y-127747781D01*
X174700000Y-102610000D02*
X172795000Y-100705000D01*
X174700000Y-124327781D02*
X174700000Y-102610000D01*
X115155000Y-100705000D02*
X115120000Y-100740000D01*
X118820000Y-100705000D02*
X115155000Y-100705000D01*
%TO.N,~RAL*%
X76165000Y-128120000D02*
X77500000Y-128120000D01*
X73625000Y-128120000D02*
X76165000Y-128120000D01*
X77988000Y-150678000D02*
X72465000Y-145155000D01*
X72465000Y-129280000D02*
X73625000Y-128120000D01*
X72465000Y-145155000D02*
X72465000Y-129280000D01*
X77988000Y-169000000D02*
X77988000Y-150678000D01*
%TO.N,~IAC*%
X79560000Y-133200000D02*
X77500000Y-133200000D01*
X80720000Y-134360000D02*
X79560000Y-133200000D01*
X80720000Y-148965000D02*
X80720000Y-134360000D01*
X81950400Y-150195400D02*
X80720000Y-148965000D01*
X81950400Y-169000000D02*
X81950400Y-150195400D01*
%TO.N,~RAR*%
X85912800Y-144632800D02*
X85800000Y-144520000D01*
X85912800Y-169000000D02*
X85912800Y-144632800D01*
X131520000Y-144520000D02*
X131520000Y-133090000D01*
X133950000Y-130660000D02*
X146000000Y-130660000D01*
X131520000Y-133090000D02*
X133950000Y-130660000D01*
%TO.N,~DCA*%
X89875200Y-140340200D02*
X89875200Y-147960200D01*
X88975000Y-139440000D02*
X89875200Y-140340200D01*
X83895000Y-139440000D02*
X88975000Y-139440000D01*
X81990000Y-131820000D02*
X81990000Y-137535000D01*
X83150000Y-130660000D02*
X81990000Y-131820000D01*
X89875200Y-147960200D02*
X89875200Y-169000000D01*
X81990000Y-137535000D02*
X83895000Y-139440000D01*
X85120000Y-130660000D02*
X83150000Y-130660000D01*
X85120000Y-130660000D02*
X109185000Y-130660000D01*
X109185000Y-130660000D02*
X110565000Y-129280000D01*
X110565000Y-129280000D02*
X126440000Y-129280000D01*
X134695000Y-121025000D02*
X134695000Y-110865000D01*
X126440000Y-129280000D02*
X134695000Y-121025000D01*
X172050000Y-123040000D02*
X170500000Y-123040000D01*
X172795000Y-122295000D02*
X172050000Y-123040000D01*
X168985000Y-114675000D02*
X172795000Y-118485000D01*
X168985000Y-110865000D02*
X168985000Y-114675000D01*
X172795000Y-118485000D02*
X172795000Y-122295000D01*
%TO.N,~TAD*%
X93837600Y-147912400D02*
X94055000Y-147695000D01*
X93837600Y-169000000D02*
X93837600Y-147912400D01*
X135855000Y-133200000D02*
X146000000Y-133200000D01*
X134060000Y-134995000D02*
X135855000Y-133200000D01*
X133425000Y-147695000D02*
X134060000Y-147060000D01*
X134060000Y-147060000D02*
X134060000Y-134995000D01*
X131520000Y-147695000D02*
X133425000Y-147695000D01*
%TO.N,~AND*%
X97800000Y-169000000D02*
X97800000Y-135695000D01*
X97755000Y-135740000D02*
X85120000Y-135740000D01*
X97800000Y-135695000D02*
X97755000Y-135740000D01*
X97800000Y-135695000D02*
X110500000Y-135695000D01*
X110500000Y-135695000D02*
X113105000Y-133090000D01*
X113105000Y-133090000D02*
X127075000Y-133090000D01*
X138505000Y-121660000D02*
X138505000Y-112770000D01*
X127075000Y-133090000D02*
X138505000Y-121660000D01*
X173999989Y-122080011D02*
X170500000Y-125580000D01*
X171525000Y-112770000D02*
X173999989Y-115244989D01*
X173999989Y-115244989D02*
X173999989Y-122080011D01*
%TO.N,Net-(R2-Pad2)*%
X194000000Y-123040000D02*
X195545000Y-123040000D01*
X195650010Y-122934990D02*
X195650010Y-100074990D01*
X195545000Y-123040000D02*
X195650010Y-122934990D01*
X197525000Y-98200000D02*
X223500000Y-98200000D01*
X195650010Y-100074990D02*
X197525000Y-98200000D01*
%TO.N,Net-(R3-Pad2)*%
X223500000Y-125580000D02*
X225390000Y-125580000D01*
X227930000Y-123040000D02*
X231120000Y-123040000D01*
X225390000Y-125580000D02*
X227930000Y-123040000D01*
X218580000Y-125580000D02*
X218500000Y-125500000D01*
X223500000Y-125580000D02*
X218580000Y-125580000D01*
%TO.N,Net-(R4-Pad2)*%
X121360000Y-97530000D02*
X120690000Y-98200000D01*
X104215000Y-74035000D02*
X120090000Y-74035000D01*
X120090000Y-74035000D02*
X121360000Y-75305000D01*
X120690000Y-98200000D02*
X115120000Y-98200000D01*
X102945000Y-85465000D02*
X102945000Y-75305000D01*
X121360000Y-75305000D02*
X121360000Y-79750000D01*
X102945000Y-75305000D02*
X104215000Y-74035000D01*
X121360000Y-79750000D02*
X121360000Y-97530000D01*
X238200000Y-79750000D02*
X238200000Y-94990000D01*
X237530000Y-95660000D02*
X231120000Y-95660000D01*
X238200000Y-94990000D02*
X237530000Y-95660000D01*
%TO.N,RAL*%
X85120000Y-53040000D02*
X89015000Y-53040000D01*
X95285000Y-53040000D02*
X95325000Y-53080000D01*
X89015000Y-53040000D02*
X95285000Y-53040000D01*
X85120000Y-88040000D02*
X94020000Y-88040000D01*
X95325000Y-86735000D02*
X95325000Y-65780000D01*
X94020000Y-88040000D02*
X95325000Y-86735000D01*
X77500000Y-125580000D02*
X85120000Y-125580000D01*
X106755000Y-124835000D02*
X106010000Y-125580000D01*
X106010000Y-125580000D02*
X85120000Y-125580000D01*
X123900000Y-124835000D02*
X106755000Y-124835000D01*
X127075000Y-121660000D02*
X123900000Y-124835000D01*
X127075000Y-48000000D02*
X127075000Y-121660000D01*
X125805000Y-46730000D02*
X127075000Y-48000000D01*
X101675000Y-46730000D02*
X125805000Y-46730000D01*
X95325000Y-53080000D02*
X101675000Y-46730000D01*
%TO.N,CPA*%
X72430000Y-88040000D02*
X71830000Y-88640000D01*
X77500000Y-88040000D02*
X72430000Y-88040000D01*
X72505000Y-53040000D02*
X71830000Y-53715000D01*
X77500000Y-53040000D02*
X72505000Y-53040000D01*
X60400000Y-88640000D02*
X61670000Y-88640000D01*
X59765000Y-88640000D02*
X60400000Y-88640000D01*
X59130000Y-88005000D02*
X59765000Y-88640000D01*
X59130000Y-53715000D02*
X59130000Y-88005000D01*
X149825000Y-120500000D02*
X146000000Y-120500000D01*
X150570000Y-44190000D02*
X150570000Y-119755000D01*
X150570000Y-119755000D02*
X149825000Y-120500000D01*
X59130000Y-53715000D02*
X57225000Y-51810000D01*
X149935000Y-43555000D02*
X150570000Y-44190000D01*
X57225000Y-46730000D02*
X60400000Y-43555000D01*
X57225000Y-51810000D02*
X57225000Y-46730000D01*
X60400000Y-43555000D02*
X149935000Y-43555000D01*
%TO.N,Net-(U3-Pad1)*%
X95360000Y-100740000D02*
X85120000Y-100740000D01*
X101040000Y-106420000D02*
X95360000Y-100740000D01*
X101040000Y-112770000D02*
X101040000Y-106420000D01*
X77545000Y-120455000D02*
X77500000Y-120500000D01*
X77545000Y-112770000D02*
X77545000Y-120455000D01*
%TO.N,Net-(U5-Pad6)*%
X85120000Y-133200000D02*
X110455000Y-133200000D01*
X110455000Y-133200000D02*
X111835000Y-131820000D01*
X111835000Y-131820000D02*
X126440000Y-131820000D01*
X126440000Y-131820000D02*
X136600000Y-121660000D01*
X136600000Y-121660000D02*
X136600000Y-72130000D01*
X227405000Y-74035000D02*
X225500000Y-72130000D01*
X227405000Y-87370000D02*
X227405000Y-74035000D01*
X228075000Y-88040000D02*
X227405000Y-87370000D01*
X231120000Y-88040000D02*
X228075000Y-88040000D01*
%TO.N,Net-(U5-Pad5)*%
X228640000Y-90580000D02*
X231120000Y-90580000D01*
X227405000Y-91815000D02*
X228640000Y-90580000D01*
X227405000Y-107690000D02*
X227405000Y-91815000D01*
X224865000Y-110230000D02*
X227405000Y-107690000D01*
X211530000Y-120390000D02*
X211530000Y-112135000D01*
X213435000Y-110230000D02*
X224865000Y-110230000D01*
X211530000Y-112135000D02*
X213435000Y-110230000D01*
X208880000Y-123040000D02*
X211530000Y-120390000D01*
X201620000Y-123040000D02*
X208880000Y-123040000D01*
%TO.N,Net-(U5-Pad11)*%
X223500000Y-93120000D02*
X166480000Y-93120000D01*
X166480000Y-93120000D02*
X165175000Y-91815000D01*
X165175000Y-91815000D02*
X165175000Y-74670000D01*
X165175000Y-74670000D02*
X164540000Y-74035000D01*
X164540000Y-74035000D02*
X162000000Y-74035000D01*
X162000000Y-74035000D02*
X161365000Y-74670000D01*
X161365000Y-74670000D02*
X161365000Y-121660000D01*
X159985000Y-123040000D02*
X153620000Y-123040000D01*
X161365000Y-121660000D02*
X159985000Y-123040000D01*
%TO.N,Net-(U5-Pad2)*%
X194000000Y-128120000D02*
X196815000Y-128120000D01*
X196815000Y-128120000D02*
X198195000Y-126740000D01*
X198195000Y-126740000D02*
X198195000Y-110230000D01*
X229275000Y-98200000D02*
X228675000Y-98800000D01*
X231120000Y-98200000D02*
X229275000Y-98200000D01*
X228675000Y-102610000D02*
X229310000Y-102610000D01*
X228675000Y-98800000D02*
X228675000Y-102610000D01*
X233120000Y-106420000D02*
X233120000Y-110230000D01*
X229310000Y-102610000D02*
X233120000Y-106420000D01*
%TO.N,Net-(U10-Pad11)*%
X223500000Y-128120000D02*
X217990000Y-128120000D01*
X217249999Y-127379999D02*
X217249999Y-113400001D01*
X217990000Y-128120000D02*
X217249999Y-127379999D01*
X217249999Y-113400001D02*
X218515000Y-112135000D01*
X225500000Y-112135000D02*
X229310000Y-108325000D01*
X218515000Y-112135000D02*
X225500000Y-112135000D01*
X89500000Y-128120000D02*
X85120000Y-128120000D01*
X89500000Y-128120000D02*
X108550000Y-128120000D01*
X108550000Y-128120000D02*
X109930000Y-126740000D01*
X109930000Y-126740000D02*
X125805000Y-126740000D01*
X125805000Y-126740000D02*
X132790000Y-119755000D01*
X132790000Y-108325000D02*
X132790000Y-119755000D01*
%TO.N,Net-(U6-Pad12)*%
X175335000Y-131185000D02*
X175860000Y-130660000D01*
X175335000Y-141345000D02*
X175335000Y-131185000D01*
X175860000Y-130660000D02*
X178120000Y-130660000D01*
X176605000Y-142615000D02*
X175335000Y-141345000D01*
X180415000Y-142615000D02*
X176605000Y-142615000D01*
X74370000Y-141345000D02*
X74370000Y-131820000D01*
X74370000Y-131820000D02*
X75530000Y-130660000D01*
X75640000Y-142615000D02*
X74370000Y-141345000D01*
X75530000Y-130660000D02*
X77500000Y-130660000D01*
X77545000Y-142615000D02*
X75640000Y-142615000D01*
%TO.N,Net-(U7-Pad4)*%
X153620000Y-125580000D02*
X160420000Y-125580000D01*
X165500000Y-120500000D02*
X170500000Y-120500000D01*
X160420000Y-125580000D02*
X165500000Y-120500000D01*
D18*
X153620000Y-128120000D02*
X153620000Y-125580000D01*
D19*
%TO.N,Net-(U10-Pad2)*%
X146000000Y-128120000D02*
X148140000Y-128120000D01*
X148140000Y-128120000D02*
X148775000Y-128120000D01*
X151205000Y-130550000D02*
X151205000Y-148330000D01*
X148775000Y-128120000D02*
X151205000Y-130550000D01*
X233120000Y-148330000D02*
X233120000Y-142615000D01*
X233120000Y-142615000D02*
X228040000Y-137535000D01*
X228040000Y-137535000D02*
X228040000Y-133725000D01*
X228565000Y-133200000D02*
X231120000Y-133200000D01*
X228040000Y-133725000D02*
X228565000Y-133200000D01*
%TO.N,Net-(U7-Pad10)*%
X146000000Y-125580000D02*
X146000000Y-123040000D01*
X146000000Y-125580000D02*
X148540000Y-125580000D01*
X148540000Y-125580000D02*
X153620000Y-130660000D01*
%TO.N,Net-(U7-Pad2)*%
X170500000Y-130660000D02*
X164430000Y-130660000D01*
X161890000Y-133200000D02*
X153620000Y-133200000D01*
X164430000Y-130660000D02*
X161890000Y-133200000D01*
%TO.N,Net-(U8-Pad2)*%
X184800000Y-133200000D02*
X186000000Y-132000000D01*
X178120000Y-133200000D02*
X184800000Y-133200000D01*
X186000000Y-132000000D02*
X186000000Y-122000000D01*
X187500000Y-120500000D02*
X194000000Y-120500000D01*
X186000000Y-122000000D02*
X187500000Y-120500000D01*
%TO.N,Net-(U10-Pad8)*%
X223500000Y-123040000D02*
X223500000Y-120500000D01*
X223500000Y-114770000D02*
X223595000Y-114675000D01*
X223500000Y-120500000D02*
X223500000Y-114770000D01*
X183590000Y-114675000D02*
X183590000Y-122295000D01*
X182845000Y-123040000D02*
X178120000Y-123040000D01*
X183590000Y-122295000D02*
X182845000Y-123040000D01*
%TO.N,Net-(U9-Pad3)*%
X201620000Y-130660000D02*
X201620000Y-128120000D01*
X201620000Y-128120000D02*
X201620000Y-125580000D01*
%TD*%
D20*
%TO.N,GND*%
X254340001Y-173603000D02*
X249757000Y-173603000D01*
X249757000Y-70225000D01*
X249754560Y-70200224D01*
X249747333Y-70176399D01*
X249735597Y-70154443D01*
X249719803Y-70135197D01*
X249084803Y-69500197D01*
X249065557Y-69484403D01*
X249043601Y-69472667D01*
X249019776Y-69465440D01*
X248995000Y-69463000D01*
X221055000Y-69463000D01*
X221030224Y-69465440D01*
X221006399Y-69472667D01*
X220984443Y-69484403D01*
X220965197Y-69500197D01*
X219695197Y-70770197D01*
X219679403Y-70789443D01*
X219667667Y-70811399D01*
X219660440Y-70835224D01*
X219658000Y-70860000D01*
X219658000Y-90492394D01*
X218462394Y-91688000D01*
X167767606Y-91688000D01*
X166572000Y-90492394D01*
X166572000Y-74035000D01*
X166569560Y-74010224D01*
X166562333Y-73986399D01*
X166550597Y-73964443D01*
X166534803Y-73945197D01*
X165264803Y-72675197D01*
X165245557Y-72659403D01*
X165223601Y-72647667D01*
X165199776Y-72640440D01*
X165175000Y-72638000D01*
X161365000Y-72638000D01*
X161340224Y-72640440D01*
X161316399Y-72647667D01*
X161294443Y-72659403D01*
X161275197Y-72675197D01*
X160005197Y-73945197D01*
X159989403Y-73964443D01*
X159977667Y-73986399D01*
X159970440Y-74010224D01*
X159968000Y-74035000D01*
X159968000Y-117723000D01*
X151967000Y-117723000D01*
X151967000Y-44190000D01*
X151964560Y-44165224D01*
X151957333Y-44141399D01*
X151945597Y-44119443D01*
X151929803Y-44100197D01*
X150024803Y-42195197D01*
X150005557Y-42179403D01*
X149983601Y-42167667D01*
X149959776Y-42160440D01*
X149935000Y-42158000D01*
X59130000Y-42158000D01*
X59105224Y-42160440D01*
X59081399Y-42167667D01*
X59059443Y-42179403D01*
X59040197Y-42195197D01*
X55230197Y-46005197D01*
X55214403Y-46024443D01*
X55202667Y-46046399D01*
X55195440Y-46070224D01*
X55193000Y-46095000D01*
X55193000Y-53080000D01*
X55195440Y-53104776D01*
X55202667Y-53128601D01*
X55214403Y-53150557D01*
X55230197Y-53169803D01*
X57733000Y-55672606D01*
X57733000Y-89910000D01*
X57735440Y-89934776D01*
X57742667Y-89958601D01*
X57754403Y-89980557D01*
X57770197Y-89999803D01*
X58315394Y-90545000D01*
X57807394Y-91053000D01*
X35660000Y-91053000D01*
X35660000Y-15740093D01*
X63372013Y-15660000D01*
X254340000Y-15660000D01*
X254340001Y-173603000D01*
%TA.AperFunction,Conductor*%
D21*
G36*
X254340001Y-173603000D02*
G01*
X249757000Y-173603000D01*
X249757000Y-70225000D01*
X249754560Y-70200224D01*
X249747333Y-70176399D01*
X249735597Y-70154443D01*
X249719803Y-70135197D01*
X249084803Y-69500197D01*
X249065557Y-69484403D01*
X249043601Y-69472667D01*
X249019776Y-69465440D01*
X248995000Y-69463000D01*
X221055000Y-69463000D01*
X221030224Y-69465440D01*
X221006399Y-69472667D01*
X220984443Y-69484403D01*
X220965197Y-69500197D01*
X219695197Y-70770197D01*
X219679403Y-70789443D01*
X219667667Y-70811399D01*
X219660440Y-70835224D01*
X219658000Y-70860000D01*
X219658000Y-90492394D01*
X218462394Y-91688000D01*
X167767606Y-91688000D01*
X166572000Y-90492394D01*
X166572000Y-74035000D01*
X166569560Y-74010224D01*
X166562333Y-73986399D01*
X166550597Y-73964443D01*
X166534803Y-73945197D01*
X165264803Y-72675197D01*
X165245557Y-72659403D01*
X165223601Y-72647667D01*
X165199776Y-72640440D01*
X165175000Y-72638000D01*
X161365000Y-72638000D01*
X161340224Y-72640440D01*
X161316399Y-72647667D01*
X161294443Y-72659403D01*
X161275197Y-72675197D01*
X160005197Y-73945197D01*
X159989403Y-73964443D01*
X159977667Y-73986399D01*
X159970440Y-74010224D01*
X159968000Y-74035000D01*
X159968000Y-117723000D01*
X151967000Y-117723000D01*
X151967000Y-44190000D01*
X151964560Y-44165224D01*
X151957333Y-44141399D01*
X151945597Y-44119443D01*
X151929803Y-44100197D01*
X150024803Y-42195197D01*
X150005557Y-42179403D01*
X149983601Y-42167667D01*
X149959776Y-42160440D01*
X149935000Y-42158000D01*
X59130000Y-42158000D01*
X59105224Y-42160440D01*
X59081399Y-42167667D01*
X59059443Y-42179403D01*
X59040197Y-42195197D01*
X55230197Y-46005197D01*
X55214403Y-46024443D01*
X55202667Y-46046399D01*
X55195440Y-46070224D01*
X55193000Y-46095000D01*
X55193000Y-53080000D01*
X55195440Y-53104776D01*
X55202667Y-53128601D01*
X55214403Y-53150557D01*
X55230197Y-53169803D01*
X57733000Y-55672606D01*
X57733000Y-89910000D01*
X57735440Y-89934776D01*
X57742667Y-89958601D01*
X57754403Y-89980557D01*
X57770197Y-89999803D01*
X58315394Y-90545000D01*
X57807394Y-91053000D01*
X35660000Y-91053000D01*
X35660000Y-15740093D01*
X63372013Y-15660000D01*
X254340000Y-15660000D01*
X254340001Y-173603000D01*
G37*
%TD.AperFunction*%
%TD*%
D20*
%TO.N,+5V*%
X248233000Y-72182606D02*
X248233000Y-173603000D01*
X242137000Y-173603000D01*
X242137000Y-72182606D01*
X243332606Y-70987000D01*
X247037394Y-70987000D01*
X248233000Y-72182606D01*
%TA.AperFunction,Conductor*%
D21*
G36*
X248233000Y-72182606D02*
G01*
X248233000Y-173603000D01*
X242137000Y-173603000D01*
X242137000Y-72182606D01*
X243332606Y-70987000D01*
X247037394Y-70987000D01*
X248233000Y-72182606D01*
G37*
%TD.AperFunction*%
%TD*%
D20*
%TO.N,GND*%
X163143000Y-136929980D02*
X163143000Y-158490000D01*
X163145440Y-158514776D01*
X163152667Y-158538601D01*
X163164403Y-158560557D01*
X163180197Y-158579803D01*
X165720197Y-161119803D01*
X165739443Y-161135597D01*
X165761399Y-161147333D01*
X165785224Y-161154560D01*
X165810000Y-161157000D01*
X191792394Y-161157000D01*
X192988000Y-162352606D01*
X192988000Y-174340000D01*
X188360000Y-174340000D01*
X188360000Y-163932419D01*
X188363193Y-163900000D01*
X188350450Y-163770617D01*
X188312710Y-163646207D01*
X188251425Y-163531550D01*
X188168948Y-163431052D01*
X188068450Y-163348575D01*
X187953793Y-163287290D01*
X187829383Y-163249550D01*
X187732419Y-163240000D01*
X187700000Y-163236807D01*
X187667581Y-163240000D01*
X142442000Y-163240000D01*
X142442000Y-146477606D01*
X143002606Y-145917000D01*
X146707394Y-145917000D01*
X147903000Y-147112606D01*
X147903000Y-155950000D01*
X147905440Y-155974776D01*
X147912667Y-155998601D01*
X147924403Y-156020557D01*
X147940197Y-156039803D01*
X148575197Y-156674803D01*
X148594443Y-156690597D01*
X148616399Y-156702333D01*
X148640224Y-156709560D01*
X148665000Y-156712000D01*
X156285000Y-156712000D01*
X156309776Y-156709560D01*
X156333601Y-156702333D01*
X156355557Y-156690597D01*
X156374803Y-156674803D01*
X157644803Y-155404803D01*
X157660597Y-155385557D01*
X157672333Y-155363601D01*
X157679560Y-155339776D01*
X157682000Y-155315000D01*
X157682000Y-135757000D01*
X162556510Y-135757000D01*
X163143000Y-136929980D01*
%TA.AperFunction,Conductor*%
D21*
G36*
X163143000Y-136929980D02*
G01*
X163143000Y-158490000D01*
X163145440Y-158514776D01*
X163152667Y-158538601D01*
X163164403Y-158560557D01*
X163180197Y-158579803D01*
X165720197Y-161119803D01*
X165739443Y-161135597D01*
X165761399Y-161147333D01*
X165785224Y-161154560D01*
X165810000Y-161157000D01*
X191792394Y-161157000D01*
X192988000Y-162352606D01*
X192988000Y-174340000D01*
X188360000Y-174340000D01*
X188360000Y-163932419D01*
X188363193Y-163900000D01*
X188350450Y-163770617D01*
X188312710Y-163646207D01*
X188251425Y-163531550D01*
X188168948Y-163431052D01*
X188068450Y-163348575D01*
X187953793Y-163287290D01*
X187829383Y-163249550D01*
X187732419Y-163240000D01*
X187700000Y-163236807D01*
X187667581Y-163240000D01*
X142442000Y-163240000D01*
X142442000Y-146477606D01*
X143002606Y-145917000D01*
X146707394Y-145917000D01*
X147903000Y-147112606D01*
X147903000Y-155950000D01*
X147905440Y-155974776D01*
X147912667Y-155998601D01*
X147924403Y-156020557D01*
X147940197Y-156039803D01*
X148575197Y-156674803D01*
X148594443Y-156690597D01*
X148616399Y-156702333D01*
X148640224Y-156709560D01*
X148665000Y-156712000D01*
X156285000Y-156712000D01*
X156309776Y-156709560D01*
X156333601Y-156702333D01*
X156355557Y-156690597D01*
X156374803Y-156674803D01*
X157644803Y-155404803D01*
X157660597Y-155385557D01*
X157672333Y-155363601D01*
X157679560Y-155339776D01*
X157682000Y-155315000D01*
X157682000Y-135757000D01*
X162556510Y-135757000D01*
X163143000Y-136929980D01*
G37*
%TD.AperFunction*%
%TD*%
M02*
