  0
SECTION
  2
HEADER
  9
$ANGBASE
  50
0.0
  9
$ANGDIR
  70
1
  9
$MEASUREMENT
  70
0
  0
ENDSEC
  0
SECTION
  2
TABLES
  0
TABLE
  2
LTYPE
  70
4
  0
LTYPE
  5
40F
  2
CONTINUOUS
  70
0
  3
Solid line
  72
65
  73
0
  40
0.0
  0
LTYPE
  5
410
  2
DASHDOT
 70
0
  3
Dash Dot ____ _ ____ _
 72
65
 73
4
 40
2.0
 49
1.25
 49
-0.25
 49
0.25
 49
-0.25
  0
LTYPE
  5
411
  2
DASHED
 70
0
  3
Dashed __ __ __ __ __
 72
65
 73
2
 40
0.75
 49
0.5
 49
-0.25
  0
LTYPE
  5
43B
  2
DOTTED
 70
0
  3
Dotted .  .  .  .
 72
65
 73
2
 40
0.2
 49
0.0
 49
-0.2
  0
ENDTAB
  0
TABLE
  2
STYLE
  70
4
  0
STYLE
  2
KICAD
  70
0
  40
0
  41
1
  42
1
  50
0
  71
0
  3
isocp.shx
  0
STYLE
  2
KICADB
  70
0
  40
0
  41
1
  42
1
  50
0
  71
0
  3
isocp.shx
  0
STYLE
  2
KICADI
  70
0
  40
0
  41
1
  42
1
  50
15
  71
0
  3
isocp.shx
  0
STYLE
  2
KICADBI
  70
0
  40
0
  41
1
  42
1
  50
15
  71
0
  3
isocp.shx
  0
ENDTAB
  0
TABLE
  2
LAYER
  70
1
  0
LAYER
  2
BLACK
  70
0
  62
7
  6
CONTINUOUS
  0
ENDTAB
  0
ENDSEC
  0
SECTION
  2
ENTITIES
0
LINE
8
BLACK
6
CONTINUOUS
10
7.38976
20
-6.88976
11
10.0394
21
-6.88976
0
LINE
8
BLACK
6
CONTINUOUS
10
7.38976
20
-6.45276
11
7.38976
21
-6.88976
0
LINE
8
BLACK
6
CONTINUOUS
10
4.00787
20
-6.45276
11
7.38976
21
-6.45276
0
LINE
8
BLACK
6
CONTINUOUS
10
4.00787
20
-6.88976
11
4.00787
21
-6.45276
0
LINE
8
BLACK
6
CONTINUOUS
10
1.37795
20
-6.88976
11
4.00787
21
-6.88976
0
LINE
8
BLACK
6
CONTINUOUS
10
10.0394
20
-0.590551
11
10.0394
21
-6.88976
0
LINE
8
BLACK
6
CONTINUOUS
10
1.37795
20
-0.590551
11
10.0394
21
-0.590551
0
LINE
8
BLACK
6
CONTINUOUS
10
1.37795
20
-6.88976
11
1.37795
21
-0.590551
0
LINE
8
BLACK
6
CONTINUOUS
10
3.03543
20
-1.97244
11
3.06693
21
-2.00394
0
LINE
8
BLACK
6
CONTINUOUS
10
3.06693
20
-1.97244
11
3.03543
21
-2.00394
0
LINE
8
BLACK
6
CONTINUOUS
10
3.03543
20
-2.07244
11
3.06693
21
-2.10394
0
LINE
8
BLACK
6
CONTINUOUS
10
3.06693
20
-2.07244
11
3.03543
21
-2.10394
0
LINE
8
BLACK
6
CONTINUOUS
10
3.03543
20
-2.17244
11
3.06693
21
-2.20394
0
LINE
8
BLACK
6
CONTINUOUS
10
3.06693
20
-2.17244
11
3.03543
21
-2.20394
0
LINE
8
BLACK
6
CONTINUOUS
10
3.03543
20
-2.27244
11
3.06693
21
-2.30394
0
LINE
8
BLACK
6
CONTINUOUS
10
3.06693
20
-2.27244
11
3.03543
21
-2.30394
0
LINE
8
BLACK
6
CONTINUOUS
10
3.03543
20
-2.37244
11
3.06693
21
-2.40394
0
LINE
8
BLACK
6
CONTINUOUS
10
3.06693
20
-2.37244
11
3.03543
21
-2.40394
0
LINE
8
BLACK
6
CONTINUOUS
10
3.03543
20
-2.47244
11
3.06693
21
-2.50394
0
LINE
8
BLACK
6
CONTINUOUS
10
3.06693
20
-2.47244
11
3.03543
21
-2.50394
0
LINE
8
BLACK
6
CONTINUOUS
10
3.03543
20
-2.57244
11
3.06693
21
-2.60394
0
LINE
8
BLACK
6
CONTINUOUS
10
3.06693
20
-2.57244
11
3.03543
21
-2.60394
0
LINE
8
BLACK
6
CONTINUOUS
10
3.03543
20
-3.35039
11
3.06693
21
-3.38189
0
LINE
8
BLACK
6
CONTINUOUS
10
3.06693
20
-3.35039
11
3.03543
21
-3.38189
0
LINE
8
BLACK
6
CONTINUOUS
10
3.03543
20
-3.45039
11
3.06693
21
-3.48189
0
LINE
8
BLACK
6
CONTINUOUS
10
3.06693
20
-3.45039
11
3.03543
21
-3.48189
0
LINE
8
BLACK
6
CONTINUOUS
10
3.03543
20
-3.55039
11
3.06693
21
-3.58189
0
LINE
8
BLACK
6
CONTINUOUS
10
3.06693
20
-3.55039
11
3.03543
21
-3.58189
0
LINE
8
BLACK
6
CONTINUOUS
10
3.03543
20
-3.65039
11
3.06693
21
-3.68189
0
LINE
8
BLACK
6
CONTINUOUS
10
3.06693
20
-3.65039
11
3.03543
21
-3.68189
0
LINE
8
BLACK
6
CONTINUOUS
10
3.03543
20
-3.75039
11
3.06693
21
-3.78189
0
LINE
8
BLACK
6
CONTINUOUS
10
3.06693
20
-3.75039
11
3.03543
21
-3.78189
0
LINE
8
BLACK
6
CONTINUOUS
10
3.03543
20
-3.85039
11
3.06693
21
-3.88189
0
LINE
8
BLACK
6
CONTINUOUS
10
3.06693
20
-3.85039
11
3.03543
21
-3.88189
0
LINE
8
BLACK
6
CONTINUOUS
10
3.03543
20
-3.95039
11
3.06693
21
-3.98189
0
LINE
8
BLACK
6
CONTINUOUS
10
3.06693
20
-3.95039
11
3.03543
21
-3.98189
0
LINE
8
BLACK
6
CONTINUOUS
10
3.03543
20
-4.72835
11
3.06693
21
-4.75984
0
LINE
8
BLACK
6
CONTINUOUS
10
3.06693
20
-4.72835
11
3.03543
21
-4.75984
0
LINE
8
BLACK
6
CONTINUOUS
10
3.03543
20
-4.82835
11
3.06693
21
-4.85984
0
LINE
8
BLACK
6
CONTINUOUS
10
3.06693
20
-4.82835
11
3.03543
21
-4.85984
0
LINE
8
BLACK
6
CONTINUOUS
10
3.03543
20
-4.92835
11
3.06693
21
-4.95984
0
LINE
8
BLACK
6
CONTINUOUS
10
3.06693
20
-4.92835
11
3.03543
21
-4.95984
0
LINE
8
BLACK
6
CONTINUOUS
10
3.03543
20
-5.02835
11
3.06693
21
-5.05984
0
LINE
8
BLACK
6
CONTINUOUS
10
3.06693
20
-5.02835
11
3.03543
21
-5.05984
0
LINE
8
BLACK
6
CONTINUOUS
10
3.03543
20
-5.12835
11
3.06693
21
-5.15984
0
LINE
8
BLACK
6
CONTINUOUS
10
3.06693
20
-5.12835
11
3.03543
21
-5.15984
0
LINE
8
BLACK
6
CONTINUOUS
10
3.03543
20
-5.22835
11
3.06693
21
-5.25984
0
LINE
8
BLACK
6
CONTINUOUS
10
3.06693
20
-5.22835
11
3.03543
21
-5.25984
0
LINE
8
BLACK
6
CONTINUOUS
10
3.03543
20
-5.32835
11
3.06693
21
-5.35984
0
LINE
8
BLACK
6
CONTINUOUS
10
3.06693
20
-5.32835
11
3.03543
21
-5.35984
0
LINE
8
BLACK
6
CONTINUOUS
10
3.33543
20
-1.97244
11
3.36693
21
-2.00394
0
LINE
8
BLACK
6
CONTINUOUS
10
3.36693
20
-1.97244
11
3.33543
21
-2.00394
0
LINE
8
BLACK
6
CONTINUOUS
10
3.33543
20
-2.07244
11
3.36693
21
-2.10394
0
LINE
8
BLACK
6
CONTINUOUS
10
3.36693
20
-2.07244
11
3.33543
21
-2.10394
0
LINE
8
BLACK
6
CONTINUOUS
10
3.33543
20
-2.17244
11
3.36693
21
-2.20394
0
LINE
8
BLACK
6
CONTINUOUS
10
3.36693
20
-2.17244
11
3.33543
21
-2.20394
0
LINE
8
BLACK
6
CONTINUOUS
10
3.33543
20
-2.27244
11
3.36693
21
-2.30394
0
LINE
8
BLACK
6
CONTINUOUS
10
3.36693
20
-2.27244
11
3.33543
21
-2.30394
0
LINE
8
BLACK
6
CONTINUOUS
10
3.33543
20
-2.37244
11
3.36693
21
-2.40394
0
LINE
8
BLACK
6
CONTINUOUS
10
3.36693
20
-2.37244
11
3.33543
21
-2.40394
0
LINE
8
BLACK
6
CONTINUOUS
10
3.33543
20
-2.47244
11
3.36693
21
-2.50394
0
LINE
8
BLACK
6
CONTINUOUS
10
3.36693
20
-2.47244
11
3.33543
21
-2.50394
0
LINE
8
BLACK
6
CONTINUOUS
10
3.33543
20
-2.57244
11
3.36693
21
-2.60394
0
LINE
8
BLACK
6
CONTINUOUS
10
3.36693
20
-2.57244
11
3.33543
21
-2.60394
0
LINE
8
BLACK
6
CONTINUOUS
10
3.33543
20
-3.35039
11
3.36693
21
-3.38189
0
LINE
8
BLACK
6
CONTINUOUS
10
3.36693
20
-3.35039
11
3.33543
21
-3.38189
0
LINE
8
BLACK
6
CONTINUOUS
10
3.33543
20
-3.45039
11
3.36693
21
-3.48189
0
LINE
8
BLACK
6
CONTINUOUS
10
3.36693
20
-3.45039
11
3.33543
21
-3.48189
0
LINE
8
BLACK
6
CONTINUOUS
10
3.33543
20
-3.55039
11
3.36693
21
-3.58189
0
LINE
8
BLACK
6
CONTINUOUS
10
3.36693
20
-3.55039
11
3.33543
21
-3.58189
0
LINE
8
BLACK
6
CONTINUOUS
10
3.33543
20
-3.65039
11
3.36693
21
-3.68189
0
LINE
8
BLACK
6
CONTINUOUS
10
3.36693
20
-3.65039
11
3.33543
21
-3.68189
0
LINE
8
BLACK
6
CONTINUOUS
10
3.33543
20
-3.75039
11
3.36693
21
-3.78189
0
LINE
8
BLACK
6
CONTINUOUS
10
3.36693
20
-3.75039
11
3.33543
21
-3.78189
0
LINE
8
BLACK
6
CONTINUOUS
10
3.33543
20
-3.85039
11
3.36693
21
-3.88189
0
LINE
8
BLACK
6
CONTINUOUS
10
3.36693
20
-3.85039
11
3.33543
21
-3.88189
0
LINE
8
BLACK
6
CONTINUOUS
10
3.33543
20
-3.95039
11
3.36693
21
-3.98189
0
LINE
8
BLACK
6
CONTINUOUS
10
3.36693
20
-3.95039
11
3.33543
21
-3.98189
0
LINE
8
BLACK
6
CONTINUOUS
10
3.33543
20
-4.72835
11
3.36693
21
-4.75984
0
LINE
8
BLACK
6
CONTINUOUS
10
3.36693
20
-4.72835
11
3.33543
21
-4.75984
0
LINE
8
BLACK
6
CONTINUOUS
10
3.33543
20
-4.82835
11
3.36693
21
-4.85984
0
LINE
8
BLACK
6
CONTINUOUS
10
3.36693
20
-4.82835
11
3.33543
21
-4.85984
0
LINE
8
BLACK
6
CONTINUOUS
10
3.33543
20
-4.92835
11
3.36693
21
-4.95984
0
LINE
8
BLACK
6
CONTINUOUS
10
3.36693
20
-4.92835
11
3.33543
21
-4.95984
0
LINE
8
BLACK
6
CONTINUOUS
10
3.33543
20
-5.02835
11
3.36693
21
-5.05984
0
LINE
8
BLACK
6
CONTINUOUS
10
3.36693
20
-5.02835
11
3.33543
21
-5.05984
0
LINE
8
BLACK
6
CONTINUOUS
10
3.33543
20
-5.12835
11
3.36693
21
-5.15984
0
LINE
8
BLACK
6
CONTINUOUS
10
3.36693
20
-5.12835
11
3.33543
21
-5.15984
0
LINE
8
BLACK
6
CONTINUOUS
10
3.33543
20
-5.22835
11
3.36693
21
-5.25984
0
LINE
8
BLACK
6
CONTINUOUS
10
3.36693
20
-5.22835
11
3.33543
21
-5.25984
0
LINE
8
BLACK
6
CONTINUOUS
10
3.33543
20
-5.32835
11
3.36693
21
-5.35984
0
LINE
8
BLACK
6
CONTINUOUS
10
3.36693
20
-5.32835
11
3.33543
21
-5.35984
0
LINE
8
BLACK
6
CONTINUOUS
10
4.0122
20
-2.17402
11
4.0437
21
-2.20551
0
LINE
8
BLACK
6
CONTINUOUS
10
4.0437
20
-2.17402
11
4.0122
21
-2.20551
0
LINE
8
BLACK
6
CONTINUOUS
10
4.0122
20
-2.57402
11
4.0437
21
-2.60551
0
LINE
8
BLACK
6
CONTINUOUS
10
4.0437
20
-2.57402
11
4.0122
21
-2.60551
0
LINE
8
BLACK
6
CONTINUOUS
10
4.0372
20
-3.34902
11
4.0687
21
-3.38051
0
LINE
8
BLACK
6
CONTINUOUS
10
4.0687
20
-3.34902
11
4.0372
21
-3.38051
0
LINE
8
BLACK
6
CONTINUOUS
10
4.0372
20
-3.94902
11
4.0687
21
-3.98051
0
LINE
8
BLACK
6
CONTINUOUS
10
4.0687
20
-3.94902
11
4.0372
21
-3.98051
0
LINE
8
BLACK
6
CONTINUOUS
10
4.21378
20
-1.97244
11
4.24528
21
-2.00394
0
LINE
8
BLACK
6
CONTINUOUS
10
4.24528
20
-1.97244
11
4.21378
21
-2.00394
0
LINE
8
BLACK
6
CONTINUOUS
10
4.21378
20
-2.07244
11
4.24528
21
-2.10394
0
LINE
8
BLACK
6
CONTINUOUS
10
4.24528
20
-2.07244
11
4.21378
21
-2.10394
0
LINE
8
BLACK
6
CONTINUOUS
10
4.21378
20
-2.17244
11
4.24528
21
-2.20394
0
LINE
8
BLACK
6
CONTINUOUS
10
4.24528
20
-2.17244
11
4.21378
21
-2.20394
0
LINE
8
BLACK
6
CONTINUOUS
10
4.21378
20
-2.27244
11
4.24528
21
-2.30394
0
LINE
8
BLACK
6
CONTINUOUS
10
4.24528
20
-2.27244
11
4.21378
21
-2.30394
0
LINE
8
BLACK
6
CONTINUOUS
10
4.21378
20
-2.37244
11
4.24528
21
-2.40394
0
LINE
8
BLACK
6
CONTINUOUS
10
4.24528
20
-2.37244
11
4.21378
21
-2.40394
0
LINE
8
BLACK
6
CONTINUOUS
10
4.21378
20
-2.47244
11
4.24528
21
-2.50394
0
LINE
8
BLACK
6
CONTINUOUS
10
4.24528
20
-2.47244
11
4.21378
21
-2.50394
0
LINE
8
BLACK
6
CONTINUOUS
10
4.21378
20
-2.57244
11
4.24528
21
-2.60394
0
LINE
8
BLACK
6
CONTINUOUS
10
4.24528
20
-2.57244
11
4.21378
21
-2.60394
0
LINE
8
BLACK
6
CONTINUOUS
10
4.21654
20
-3.35039
11
4.24803
21
-3.38189
0
LINE
8
BLACK
6
CONTINUOUS
10
4.24803
20
-3.35039
11
4.21654
21
-3.38189
0
LINE
8
BLACK
6
CONTINUOUS
10
4.21654
20
-3.45039
11
4.24803
21
-3.48189
0
LINE
8
BLACK
6
CONTINUOUS
10
4.24803
20
-3.45039
11
4.21654
21
-3.48189
0
LINE
8
BLACK
6
CONTINUOUS
10
4.21654
20
-3.55039
11
4.24803
21
-3.58189
0
LINE
8
BLACK
6
CONTINUOUS
10
4.24803
20
-3.55039
11
4.21654
21
-3.58189
0
LINE
8
BLACK
6
CONTINUOUS
10
4.21654
20
-3.65039
11
4.24803
21
-3.68189
0
LINE
8
BLACK
6
CONTINUOUS
10
4.24803
20
-3.65039
11
4.21654
21
-3.68189
0
LINE
8
BLACK
6
CONTINUOUS
10
4.21654
20
-3.75039
11
4.24803
21
-3.78189
0
LINE
8
BLACK
6
CONTINUOUS
10
4.24803
20
-3.75039
11
4.21654
21
-3.78189
0
LINE
8
BLACK
6
CONTINUOUS
10
4.21654
20
-3.85039
11
4.24803
21
-3.88189
0
LINE
8
BLACK
6
CONTINUOUS
10
4.24803
20
-3.85039
11
4.21654
21
-3.88189
0
LINE
8
BLACK
6
CONTINUOUS
10
4.21654
20
-3.95039
11
4.24803
21
-3.98189
0
LINE
8
BLACK
6
CONTINUOUS
10
4.24803
20
-3.95039
11
4.21654
21
-3.98189
0
LINE
8
BLACK
6
CONTINUOUS
10
4.51378
20
-1.97244
11
4.54528
21
-2.00394
0
LINE
8
BLACK
6
CONTINUOUS
10
4.54528
20
-1.97244
11
4.51378
21
-2.00394
0
LINE
8
BLACK
6
CONTINUOUS
10
4.51378
20
-2.07244
11
4.54528
21
-2.10394
0
LINE
8
BLACK
6
CONTINUOUS
10
4.54528
20
-2.07244
11
4.51378
21
-2.10394
0
LINE
8
BLACK
6
CONTINUOUS
10
4.51378
20
-2.17244
11
4.54528
21
-2.20394
0
LINE
8
BLACK
6
CONTINUOUS
10
4.54528
20
-2.17244
11
4.51378
21
-2.20394
0
LINE
8
BLACK
6
CONTINUOUS
10
4.51378
20
-2.27244
11
4.54528
21
-2.30394
0
LINE
8
BLACK
6
CONTINUOUS
10
4.54528
20
-2.27244
11
4.51378
21
-2.30394
0
LINE
8
BLACK
6
CONTINUOUS
10
4.51378
20
-2.37244
11
4.54528
21
-2.40394
0
LINE
8
BLACK
6
CONTINUOUS
10
4.54528
20
-2.37244
11
4.51378
21
-2.40394
0
LINE
8
BLACK
6
CONTINUOUS
10
4.51378
20
-2.47244
11
4.54528
21
-2.50394
0
LINE
8
BLACK
6
CONTINUOUS
10
4.54528
20
-2.47244
11
4.51378
21
-2.50394
0
LINE
8
BLACK
6
CONTINUOUS
10
4.51378
20
-2.57244
11
4.54528
21
-2.60394
0
LINE
8
BLACK
6
CONTINUOUS
10
4.54528
20
-2.57244
11
4.51378
21
-2.60394
0
LINE
8
BLACK
6
CONTINUOUS
10
4.51654
20
-3.35039
11
4.54803
21
-3.38189
0
LINE
8
BLACK
6
CONTINUOUS
10
4.54803
20
-3.35039
11
4.51654
21
-3.38189
0
LINE
8
BLACK
6
CONTINUOUS
10
4.51654
20
-3.45039
11
4.54803
21
-3.48189
0
LINE
8
BLACK
6
CONTINUOUS
10
4.54803
20
-3.45039
11
4.51654
21
-3.48189
0
LINE
8
BLACK
6
CONTINUOUS
10
4.51654
20
-3.55039
11
4.54803
21
-3.58189
0
LINE
8
BLACK
6
CONTINUOUS
10
4.54803
20
-3.55039
11
4.51654
21
-3.58189
0
LINE
8
BLACK
6
CONTINUOUS
10
4.51654
20
-3.65039
11
4.54803
21
-3.68189
0
LINE
8
BLACK
6
CONTINUOUS
10
4.54803
20
-3.65039
11
4.51654
21
-3.68189
0
LINE
8
BLACK
6
CONTINUOUS
10
4.51654
20
-3.75039
11
4.54803
21
-3.78189
0
LINE
8
BLACK
6
CONTINUOUS
10
4.54803
20
-3.75039
11
4.51654
21
-3.78189
0
LINE
8
BLACK
6
CONTINUOUS
10
4.51654
20
-3.85039
11
4.54803
21
-3.88189
0
LINE
8
BLACK
6
CONTINUOUS
10
4.54803
20
-3.85039
11
4.51654
21
-3.88189
0
LINE
8
BLACK
6
CONTINUOUS
10
4.51654
20
-3.95039
11
4.54803
21
-3.98189
0
LINE
8
BLACK
6
CONTINUOUS
10
4.54803
20
-3.95039
11
4.51654
21
-3.98189
0
LINE
8
BLACK
6
CONTINUOUS
10
5.73228
20
-4.72835
11
5.76378
21
-4.75984
0
LINE
8
BLACK
6
CONTINUOUS
10
5.76378
20
-4.72835
11
5.73228
21
-4.75984
0
LINE
8
BLACK
6
CONTINUOUS
10
5.73228
20
-4.82835
11
5.76378
21
-4.85984
0
LINE
8
BLACK
6
CONTINUOUS
10
5.76378
20
-4.82835
11
5.73228
21
-4.85984
0
LINE
8
BLACK
6
CONTINUOUS
10
5.73228
20
-4.92835
11
5.76378
21
-4.95984
0
LINE
8
BLACK
6
CONTINUOUS
10
5.76378
20
-4.92835
11
5.73228
21
-4.95984
0
LINE
8
BLACK
6
CONTINUOUS
10
5.73228
20
-5.02835
11
5.76378
21
-5.05984
0
LINE
8
BLACK
6
CONTINUOUS
10
5.76378
20
-5.02835
11
5.73228
21
-5.05984
0
LINE
8
BLACK
6
CONTINUOUS
10
5.73228
20
-5.12835
11
5.76378
21
-5.15984
0
LINE
8
BLACK
6
CONTINUOUS
10
5.76378
20
-5.12835
11
5.73228
21
-5.15984
0
LINE
8
BLACK
6
CONTINUOUS
10
5.73228
20
-5.22835
11
5.76378
21
-5.25984
0
LINE
8
BLACK
6
CONTINUOUS
10
5.76378
20
-5.22835
11
5.73228
21
-5.25984
0
LINE
8
BLACK
6
CONTINUOUS
10
5.73228
20
-5.32835
11
5.76378
21
-5.35984
0
LINE
8
BLACK
6
CONTINUOUS
10
5.76378
20
-5.32835
11
5.73228
21
-5.35984
0
LINE
8
BLACK
6
CONTINUOUS
10
6.03228
20
-4.72835
11
6.06378
21
-4.75984
0
LINE
8
BLACK
6
CONTINUOUS
10
6.06378
20
-4.72835
11
6.03228
21
-4.75984
0
LINE
8
BLACK
6
CONTINUOUS
10
6.03228
20
-4.82835
11
6.06378
21
-4.85984
0
LINE
8
BLACK
6
CONTINUOUS
10
6.06378
20
-4.82835
11
6.03228
21
-4.85984
0
LINE
8
BLACK
6
CONTINUOUS
10
6.03228
20
-4.92835
11
6.06378
21
-4.95984
0
LINE
8
BLACK
6
CONTINUOUS
10
6.06378
20
-4.92835
11
6.03228
21
-4.95984
0
LINE
8
BLACK
6
CONTINUOUS
10
6.03228
20
-5.02835
11
6.06378
21
-5.05984
0
LINE
8
BLACK
6
CONTINUOUS
10
6.06378
20
-5.02835
11
6.03228
21
-5.05984
0
LINE
8
BLACK
6
CONTINUOUS
10
6.03228
20
-5.12835
11
6.06378
21
-5.15984
0
LINE
8
BLACK
6
CONTINUOUS
10
6.06378
20
-5.12835
11
6.03228
21
-5.15984
0
LINE
8
BLACK
6
CONTINUOUS
10
6.03228
20
-5.22835
11
6.06378
21
-5.25984
0
LINE
8
BLACK
6
CONTINUOUS
10
6.06378
20
-5.22835
11
6.03228
21
-5.25984
0
LINE
8
BLACK
6
CONTINUOUS
10
6.03228
20
-5.32835
11
6.06378
21
-5.35984
0
LINE
8
BLACK
6
CONTINUOUS
10
6.06378
20
-5.32835
11
6.03228
21
-5.35984
0
LINE
8
BLACK
6
CONTINUOUS
10
6.69685
20
-4.72835
11
6.72835
21
-4.75984
0
LINE
8
BLACK
6
CONTINUOUS
10
6.72835
20
-4.72835
11
6.69685
21
-4.75984
0
LINE
8
BLACK
6
CONTINUOUS
10
6.69685
20
-4.82835
11
6.72835
21
-4.85984
0
LINE
8
BLACK
6
CONTINUOUS
10
6.72835
20
-4.82835
11
6.69685
21
-4.85984
0
LINE
8
BLACK
6
CONTINUOUS
10
6.69685
20
-4.92835
11
6.72835
21
-4.95984
0
LINE
8
BLACK
6
CONTINUOUS
10
6.72835
20
-4.92835
11
6.69685
21
-4.95984
0
LINE
8
BLACK
6
CONTINUOUS
10
6.69685
20
-5.02835
11
6.72835
21
-5.05984
0
LINE
8
BLACK
6
CONTINUOUS
10
6.72835
20
-5.02835
11
6.69685
21
-5.05984
0
LINE
8
BLACK
6
CONTINUOUS
10
6.69685
20
-5.12835
11
6.72835
21
-5.15984
0
LINE
8
BLACK
6
CONTINUOUS
10
6.72835
20
-5.12835
11
6.69685
21
-5.15984
0
LINE
8
BLACK
6
CONTINUOUS
10
6.69685
20
-5.22835
11
6.72835
21
-5.25984
0
LINE
8
BLACK
6
CONTINUOUS
10
6.72835
20
-5.22835
11
6.69685
21
-5.25984
0
LINE
8
BLACK
6
CONTINUOUS
10
6.69685
20
-5.32835
11
6.72835
21
-5.35984
0
LINE
8
BLACK
6
CONTINUOUS
10
6.72835
20
-5.32835
11
6.69685
21
-5.35984
0
LINE
8
BLACK
6
CONTINUOUS
10
6.99685
20
-4.72835
11
7.02835
21
-4.75984
0
LINE
8
BLACK
6
CONTINUOUS
10
7.02835
20
-4.72835
11
6.99685
21
-4.75984
0
LINE
8
BLACK
6
CONTINUOUS
10
6.99685
20
-4.82835
11
7.02835
21
-4.85984
0
LINE
8
BLACK
6
CONTINUOUS
10
7.02835
20
-4.82835
11
6.99685
21
-4.85984
0
LINE
8
BLACK
6
CONTINUOUS
10
6.99685
20
-4.92835
11
7.02835
21
-4.95984
0
LINE
8
BLACK
6
CONTINUOUS
10
7.02835
20
-4.92835
11
6.99685
21
-4.95984
0
LINE
8
BLACK
6
CONTINUOUS
10
6.99685
20
-5.02835
11
7.02835
21
-5.05984
0
LINE
8
BLACK
6
CONTINUOUS
10
7.02835
20
-5.02835
11
6.99685
21
-5.05984
0
LINE
8
BLACK
6
CONTINUOUS
10
6.99685
20
-5.12835
11
7.02835
21
-5.15984
0
LINE
8
BLACK
6
CONTINUOUS
10
7.02835
20
-5.12835
11
6.99685
21
-5.15984
0
LINE
8
BLACK
6
CONTINUOUS
10
6.99685
20
-5.22835
11
7.02835
21
-5.25984
0
LINE
8
BLACK
6
CONTINUOUS
10
7.02835
20
-5.22835
11
6.99685
21
-5.25984
0
LINE
8
BLACK
6
CONTINUOUS
10
6.99685
20
-5.32835
11
7.02835
21
-5.35984
0
LINE
8
BLACK
6
CONTINUOUS
10
7.02835
20
-5.32835
11
6.99685
21
-5.35984
0
LINE
8
BLACK
6
CONTINUOUS
10
7.5372
20
-3.84902
11
7.5687
21
-3.88051
0
LINE
8
BLACK
6
CONTINUOUS
10
7.5687
20
-3.84902
11
7.5372
21
-3.88051
0
LINE
8
BLACK
6
CONTINUOUS
10
7.62205
20
-4.72835
11
7.65354
21
-4.75984
0
LINE
8
BLACK
6
CONTINUOUS
10
7.65354
20
-4.72835
11
7.62205
21
-4.75984
0
LINE
8
BLACK
6
CONTINUOUS
10
7.62205
20
-4.82835
11
7.65354
21
-4.85984
0
LINE
8
BLACK
6
CONTINUOUS
10
7.65354
20
-4.82835
11
7.62205
21
-4.85984
0
LINE
8
BLACK
6
CONTINUOUS
10
7.62205
20
-4.92835
11
7.65354
21
-4.95984
0
LINE
8
BLACK
6
CONTINUOUS
10
7.65354
20
-4.92835
11
7.62205
21
-4.95984
0
LINE
8
BLACK
6
CONTINUOUS
10
7.62205
20
-5.02835
11
7.65354
21
-5.05984
0
LINE
8
BLACK
6
CONTINUOUS
10
7.65354
20
-5.02835
11
7.62205
21
-5.05984
0
LINE
8
BLACK
6
CONTINUOUS
10
7.62205
20
-5.12835
11
7.65354
21
-5.15984
0
LINE
8
BLACK
6
CONTINUOUS
10
7.65354
20
-5.12835
11
7.62205
21
-5.15984
0
LINE
8
BLACK
6
CONTINUOUS
10
7.62205
20
-5.22835
11
7.65354
21
-5.25984
0
LINE
8
BLACK
6
CONTINUOUS
10
7.65354
20
-5.22835
11
7.62205
21
-5.25984
0
LINE
8
BLACK
6
CONTINUOUS
10
7.62205
20
-5.32835
11
7.65354
21
-5.35984
0
LINE
8
BLACK
6
CONTINUOUS
10
7.65354
20
-5.32835
11
7.62205
21
-5.35984
0
LINE
8
BLACK
6
CONTINUOUS
10
7.92205
20
-4.72835
11
7.95354
21
-4.75984
0
LINE
8
BLACK
6
CONTINUOUS
10
7.95354
20
-4.72835
11
7.92205
21
-4.75984
0
LINE
8
BLACK
6
CONTINUOUS
10
7.92205
20
-4.82835
11
7.95354
21
-4.85984
0
LINE
8
BLACK
6
CONTINUOUS
10
7.95354
20
-4.82835
11
7.92205
21
-4.85984
0
LINE
8
BLACK
6
CONTINUOUS
10
7.92205
20
-4.92835
11
7.95354
21
-4.95984
0
LINE
8
BLACK
6
CONTINUOUS
10
7.95354
20
-4.92835
11
7.92205
21
-4.95984
0
LINE
8
BLACK
6
CONTINUOUS
10
7.92205
20
-5.02835
11
7.95354
21
-5.05984
0
LINE
8
BLACK
6
CONTINUOUS
10
7.95354
20
-5.02835
11
7.92205
21
-5.05984
0
LINE
8
BLACK
6
CONTINUOUS
10
7.92205
20
-5.12835
11
7.95354
21
-5.15984
0
LINE
8
BLACK
6
CONTINUOUS
10
7.95354
20
-5.12835
11
7.92205
21
-5.15984
0
LINE
8
BLACK
6
CONTINUOUS
10
7.92205
20
-5.22835
11
7.95354
21
-5.25984
0
LINE
8
BLACK
6
CONTINUOUS
10
7.95354
20
-5.22835
11
7.92205
21
-5.25984
0
LINE
8
BLACK
6
CONTINUOUS
10
7.92205
20
-5.32835
11
7.95354
21
-5.35984
0
LINE
8
BLACK
6
CONTINUOUS
10
7.95354
20
-5.32835
11
7.92205
21
-5.35984
0
LINE
8
BLACK
6
CONTINUOUS
10
7.9372
20
-3.84902
11
7.9687
21
-3.88051
0
LINE
8
BLACK
6
CONTINUOUS
10
7.9687
20
-3.84902
11
7.9372
21
-3.88051
0
LINE
8
BLACK
6
CONTINUOUS
10
8.58661
20
-4.9252
11
8.61811
21
-4.95669
0
LINE
8
BLACK
6
CONTINUOUS
10
8.61811
20
-4.9252
11
8.58661
21
-4.95669
0
LINE
8
BLACK
6
CONTINUOUS
10
8.58661
20
-5.3252
11
8.61811
21
-5.35669
0
LINE
8
BLACK
6
CONTINUOUS
10
8.61811
20
-5.3252
11
8.58661
21
-5.35669
0
LINE
8
BLACK
6
CONTINUOUS
10
8.78346
20
-3.35039
11
8.81496
21
-3.38189
0
LINE
8
BLACK
6
CONTINUOUS
10
8.81496
20
-3.35039
11
8.78346
21
-3.38189
0
LINE
8
BLACK
6
CONTINUOUS
10
8.78346
20
-3.45039
11
8.81496
21
-3.48189
0
LINE
8
BLACK
6
CONTINUOUS
10
8.81496
20
-3.45039
11
8.78346
21
-3.48189
0
LINE
8
BLACK
6
CONTINUOUS
10
8.78346
20
-3.55039
11
8.81496
21
-3.58189
0
LINE
8
BLACK
6
CONTINUOUS
10
8.81496
20
-3.55039
11
8.78346
21
-3.58189
0
LINE
8
BLACK
6
CONTINUOUS
10
8.78346
20
-3.65039
11
8.81496
21
-3.68189
0
LINE
8
BLACK
6
CONTINUOUS
10
8.81496
20
-3.65039
11
8.78346
21
-3.68189
0
LINE
8
BLACK
6
CONTINUOUS
10
8.78346
20
-3.75039
11
8.81496
21
-3.78189
0
LINE
8
BLACK
6
CONTINUOUS
10
8.81496
20
-3.75039
11
8.78346
21
-3.78189
0
LINE
8
BLACK
6
CONTINUOUS
10
8.78346
20
-3.85039
11
8.81496
21
-3.88189
0
LINE
8
BLACK
6
CONTINUOUS
10
8.81496
20
-3.85039
11
8.78346
21
-3.88189
0
LINE
8
BLACK
6
CONTINUOUS
10
8.78346
20
-3.95039
11
8.81496
21
-3.98189
0
LINE
8
BLACK
6
CONTINUOUS
10
8.81496
20
-3.95039
11
8.78346
21
-3.98189
0
LINE
8
BLACK
6
CONTINUOUS
10
8.78346
20
-4.72835
11
8.81496
21
-4.75984
0
LINE
8
BLACK
6
CONTINUOUS
10
8.81496
20
-4.72835
11
8.78346
21
-4.75984
0
LINE
8
BLACK
6
CONTINUOUS
10
8.78346
20
-4.82835
11
8.81496
21
-4.85984
0
LINE
8
BLACK
6
CONTINUOUS
10
8.81496
20
-4.82835
11
8.78346
21
-4.85984
0
LINE
8
BLACK
6
CONTINUOUS
10
8.78346
20
-4.92835
11
8.81496
21
-4.95984
0
LINE
8
BLACK
6
CONTINUOUS
10
8.81496
20
-4.92835
11
8.78346
21
-4.95984
0
LINE
8
BLACK
6
CONTINUOUS
10
8.78346
20
-5.02835
11
8.81496
21
-5.05984
0
LINE
8
BLACK
6
CONTINUOUS
10
8.81496
20
-5.02835
11
8.78346
21
-5.05984
0
LINE
8
BLACK
6
CONTINUOUS
10
8.78346
20
-5.12835
11
8.81496
21
-5.15984
0
LINE
8
BLACK
6
CONTINUOUS
10
8.81496
20
-5.12835
11
8.78346
21
-5.15984
0
LINE
8
BLACK
6
CONTINUOUS
10
8.78346
20
-5.22835
11
8.81496
21
-5.25984
0
LINE
8
BLACK
6
CONTINUOUS
10
8.81496
20
-5.22835
11
8.78346
21
-5.25984
0
LINE
8
BLACK
6
CONTINUOUS
10
8.78346
20
-5.32835
11
8.81496
21
-5.35984
0
LINE
8
BLACK
6
CONTINUOUS
10
8.81496
20
-5.32835
11
8.78346
21
-5.35984
0
LINE
8
BLACK
6
CONTINUOUS
10
9.08346
20
-3.35039
11
9.11496
21
-3.38189
0
LINE
8
BLACK
6
CONTINUOUS
10
9.11496
20
-3.35039
11
9.08346
21
-3.38189
0
LINE
8
BLACK
6
CONTINUOUS
10
9.08346
20
-3.45039
11
9.11496
21
-3.48189
0
LINE
8
BLACK
6
CONTINUOUS
10
9.11496
20
-3.45039
11
9.08346
21
-3.48189
0
LINE
8
BLACK
6
CONTINUOUS
10
9.08346
20
-3.55039
11
9.11496
21
-3.58189
0
LINE
8
BLACK
6
CONTINUOUS
10
9.11496
20
-3.55039
11
9.08346
21
-3.58189
0
LINE
8
BLACK
6
CONTINUOUS
10
9.08346
20
-3.65039
11
9.11496
21
-3.68189
0
LINE
8
BLACK
6
CONTINUOUS
10
9.11496
20
-3.65039
11
9.08346
21
-3.68189
0
LINE
8
BLACK
6
CONTINUOUS
10
9.08346
20
-3.75039
11
9.11496
21
-3.78189
0
LINE
8
BLACK
6
CONTINUOUS
10
9.11496
20
-3.75039
11
9.08346
21
-3.78189
0
LINE
8
BLACK
6
CONTINUOUS
10
9.08346
20
-3.85039
11
9.11496
21
-3.88189
0
LINE
8
BLACK
6
CONTINUOUS
10
9.11496
20
-3.85039
11
9.08346
21
-3.88189
0
LINE
8
BLACK
6
CONTINUOUS
10
9.08346
20
-3.95039
11
9.11496
21
-3.98189
0
LINE
8
BLACK
6
CONTINUOUS
10
9.11496
20
-3.95039
11
9.08346
21
-3.98189
0
LINE
8
BLACK
6
CONTINUOUS
10
9.08346
20
-4.72835
11
9.11496
21
-4.75984
0
LINE
8
BLACK
6
CONTINUOUS
10
9.11496
20
-4.72835
11
9.08346
21
-4.75984
0
LINE
8
BLACK
6
CONTINUOUS
10
9.08346
20
-4.82835
11
9.11496
21
-4.85984
0
LINE
8
BLACK
6
CONTINUOUS
10
9.11496
20
-4.82835
11
9.08346
21
-4.85984
0
LINE
8
BLACK
6
CONTINUOUS
10
9.08346
20
-4.92835
11
9.11496
21
-4.95984
0
LINE
8
BLACK
6
CONTINUOUS
10
9.11496
20
-4.92835
11
9.08346
21
-4.95984
0
LINE
8
BLACK
6
CONTINUOUS
10
9.08346
20
-5.02835
11
9.11496
21
-5.05984
0
LINE
8
BLACK
6
CONTINUOUS
10
9.11496
20
-5.02835
11
9.08346
21
-5.05984
0
LINE
8
BLACK
6
CONTINUOUS
10
9.08346
20
-5.12835
11
9.11496
21
-5.15984
0
LINE
8
BLACK
6
CONTINUOUS
10
9.11496
20
-5.12835
11
9.08346
21
-5.15984
0
LINE
8
BLACK
6
CONTINUOUS
10
9.08346
20
-5.22835
11
9.11496
21
-5.25984
0
LINE
8
BLACK
6
CONTINUOUS
10
9.11496
20
-5.22835
11
9.08346
21
-5.25984
0
LINE
8
BLACK
6
CONTINUOUS
10
9.08346
20
-5.32835
11
9.11496
21
-5.35984
0
LINE
8
BLACK
6
CONTINUOUS
10
9.11496
20
-5.32835
11
9.08346
21
-5.35984
0
CIRCLE
8
BLACK
10
1.75295
20
-3.78976
40
0.019685
0
CIRCLE
8
BLACK
10
1.75295
20
-4.36476
40
0.019685
0
CIRCLE
8
BLACK
10
1.87795
20
-3.78976
40
0.019685
0
CIRCLE
8
BLACK
10
1.87795
20
-4.36476
40
0.019685
0
CIRCLE
8
BLACK
10
2.00295
20
-3.78976
40
0.019685
0
CIRCLE
8
BLACK
10
2.00295
20
-4.36476
40
0.019685
0
CIRCLE
8
BLACK
10
2.12795
20
-3.78976
40
0.019685
0
CIRCLE
8
BLACK
10
2.12795
20
-4.36476
40
0.019685
0
CIRCLE
8
BLACK
10
2.25295
20
-3.78976
40
0.019685
0
CIRCLE
8
BLACK
10
2.25295
20
-4.36476
40
0.019685
0
CIRCLE
8
BLACK
10
2.32795
20
-1.96476
40
0.019685
0
CIRCLE
8
BLACK
10
2.32795
20
-2.11476
40
0.019685
0
CIRCLE
8
BLACK
10
2.37795
20
-3.78976
40
0.019685
0
CIRCLE
8
BLACK
10
2.37795
20
-4.36476
40
0.019685
0
CIRCLE
8
BLACK
10
2.42795
20
-3.33976
40
0.019685
0
CIRCLE
8
BLACK
10
2.42795
20
-3.48976
40
0.019685
0
CIRCLE
8
BLACK
10
2.48031
20
-5.94488
40
0.019685
0
CIRCLE
8
BLACK
10
2.82795
20
-1.96476
40
0.019685
0
CIRCLE
8
BLACK
10
2.82795
20
-2.11476
40
0.019685
0
CIRCLE
8
BLACK
10
2.82795
20
-3.33976
40
0.019685
0
CIRCLE
8
BLACK
10
2.82795
20
-3.48976
40
0.019685
0
CIRCLE
8
BLACK
10
3.00295
20
-6.28976
40
0.019685
0
CIRCLE
8
BLACK
10
3.05295
20
-2.71476
40
0.019685
0
CIRCLE
8
BLACK
10
3.05295
20
-4.08976
40
0.019685
0
CIRCLE
8
BLACK
10
3.05295
20
-4.43976
40
0.019685
0
CIRCLE
8
BLACK
10
3.05295
20
-5.48976
40
0.019685
0
CIRCLE
8
BLACK
10
3.05295
20
-5.61476
40
0.019685
0
CIRCLE
8
BLACK
10
3.35295
20
-1.61476
40
0.019685
0
CIRCLE
8
BLACK
10
3.35295
20
-3.23976
40
0.019685
0
CIRCLE
8
BLACK
10
3.35295
20
-4.61476
40
0.019685
0
CIRCLE
8
BLACK
10
3.37795
20
-5.68976
40
0.019685
0
CIRCLE
8
BLACK
10
3.55295
20
-3.33976
40
0.019685
0
CIRCLE
8
BLACK
10
3.55433
20
-3.66614
40
0.019685
0
CIRCLE
8
BLACK
10
3.70295
20
-5.81476
40
0.019685
0
CIRCLE
8
BLACK
10
3.75295
20
-2.08976
40
0.019685
0
CIRCLE
8
BLACK
10
3.75295
20
-2.58976
40
0.019685
0
CIRCLE
8
BLACK
10
3.97795
20
-4.43976
40
0.019685
0
CIRCLE
8
BLACK
10
4.22795
20
-2.71476
40
0.019685
0
CIRCLE
8
BLACK
10
4.22795
20
-4.08976
40
0.019685
0
CIRCLE
8
BLACK
10
4.42795
20
-6.11476
40
0.019685
0
CIRCLE
8
BLACK
10
4.50295
20
-4.71476
40
0.019685
0
CIRCLE
8
BLACK
10
4.50295
20
-5.38976
40
0.019685
0
CIRCLE
8
BLACK
10
4.52795
20
-1.61476
40
0.019685
0
CIRCLE
8
BLACK
10
4.55295
20
-3.23976
40
0.019685
0
CIRCLE
8
BLACK
10
4.67795
20
-2.98976
40
0.019685
0
CIRCLE
8
BLACK
10
4.67795
20
-3.96476
40
0.019685
0
CIRCLE
8
BLACK
10
4.77795
20
-3.13976
40
0.019685
0
CIRCLE
8
BLACK
10
5.17795
20
-5.68976
40
0.019685
0
CIRCLE
8
BLACK
10
5.17795
20
-5.81476
40
0.019685
0
CIRCLE
8
BLACK
10
5.22795
20
-4.26476
40
0.019685
0
CIRCLE
8
BLACK
10
5.30295
20
-4.36476
40
0.019685
0
CIRCLE
8
BLACK
10
5.37795
20
-2.83976
40
0.019685
0
CIRCLE
8
BLACK
10
5.45295
20
-4.43976
40
0.019685
0
CIRCLE
8
BLACK
10
5.74803
20
-5.49213
40
0.019685
0
CIRCLE
8
BLACK
10
5.74803
20
-5.7874
40
0.019685
0
CIRCLE
8
BLACK
10
5.95295
20
-5.83976
40
0.019685
0
CIRCLE
8
BLACK
10
6.05295
20
-4.61476
40
0.019685
0
CIRCLE
8
BLACK
10
6.06299
20
-6.01476
40
0.019685
0
CIRCLE
8
BLACK
10
6.15295
20
-4.61476
40
0.019685
0
CIRCLE
8
BLACK
10
6.25295
20
-4.61476
40
0.019685
0
CIRCLE
8
BLACK
10
6.25295
20
-5.36476
40
0.019685
0
CIRCLE
8
BLACK
10
6.42795
20
-2.98976
40
0.019685
0
CIRCLE
8
BLACK
10
6.60295
20
-3.23976
40
0.019685
0
CIRCLE
8
BLACK
10
6.65295
20
-4.36476
40
0.019685
0
CIRCLE
8
BLACK
10
6.70295
20
-5.48976
40
0.019685
0
CIRCLE
8
BLACK
10
6.75295
20
-4.43976
40
0.019685
0
CIRCLE
8
BLACK
10
6.77795
20
-6.11476
40
0.019685
0
CIRCLE
8
BLACK
10
6.80295
20
-3.96476
40
0.019685
0
CIRCLE
8
BLACK
10
7.02795
20
-4.61476
40
0.019685
0
CIRCLE
8
BLACK
10
7.02795
20
-6.11476
40
0.019685
0
CIRCLE
8
BLACK
10
7.10295
20
-5.61476
40
0.019685
0
CIRCLE
8
BLACK
10
7.22795
20
-4.51476
40
0.019685
0
CIRCLE
8
BLACK
10
7.42126
20
-3.5748
40
0.019685
0
CIRCLE
8
BLACK
10
7.42126
20
-3.87008
40
0.019685
0
CIRCLE
8
BLACK
10
7.60295
20
-3.23976
40
0.019685
0
CIRCLE
8
BLACK
10
7.62795
20
-5.48976
40
0.019685
0
CIRCLE
8
BLACK
10
7.80295
20
-4.33976
40
0.019685
0
CIRCLE
8
BLACK
10
7.95295
20
-4.61476
40
0.019685
0
CIRCLE
8
BLACK
10
8.30709
20
-5.94488
40
0.019685
0
CIRCLE
8
BLACK
10
8.57795
20
-3.23976
40
0.019685
0
CIRCLE
8
BLACK
10
8.62205
20
-6.01476
40
0.019685
0
CIRCLE
8
BLACK
10
8.75295
20
-6.11476
40
0.019685
0
CIRCLE
8
BLACK
10
8.80295
20
-4.08976
40
0.019685
0
CIRCLE
8
BLACK
10
8.80295
20
-4.51476
40
0.019685
0
CIRCLE
8
BLACK
10
8.80295
20
-5.48976
40
0.019685
0
CIRCLE
8
BLACK
10
8.87795
20
-2.83976
40
0.019685
0
CIRCLE
8
BLACK
10
9.02795
20
-4.26476
40
0.019685
0
CIRCLE
8
BLACK
10
9.10295
20
-3.23976
40
0.019685
0
CIRCLE
8
BLACK
10
9.10295
20
-4.61476
40
0.019685
0
CIRCLE
8
BLACK
10
9.17795
20
-4.33976
40
0.019685
0
CIRCLE
8
BLACK
10
9.17795
20
-5.83976
40
0.019685
0
CIRCLE
8
BLACK
10
9.37795
20
-3.13976
40
0.019685
0
CIRCLE
8
BLACK
10
9.40295
20
-6.28976
40
0.019685
0
CIRCLE
8
BLACK
10
9.57329
20
-4.09443
40
0.019685
0
CIRCLE
8
BLACK
10
9.62598
20
-3.56693
40
0.019685
0
CIRCLE
8
BLACK
10
9.64567
20
-5.48976
40
0.019685
0
CIRCLE
8
BLACK
10
9.70295
20
-2.83976
40
0.019685
0
CIRCLE
8
BLACK
10
9.90295
20
-4.61476
40
0.019685
0
CIRCLE
8
BLACK
10
9.92126
20
-3.56693
40
0.019685
0
CIRCLE
8
BLACK
10
9.92795
20
-3.23976
40
0.019685
0
CIRCLE
8
BLACK
10
9.94094
20
-5.48976
40
0.019685
0
LINE
8
BLACK
6
CONTINUOUS
10
1.5748
20
-0.645669
11
1.5748
21
-0.771654
0
LINE
8
BLACK
6
CONTINUOUS
10
1.51181
20
-0.708661
11
1.6378
21
-0.708661
0
LINE
8
BLACK
6
CONTINUOUS
10
5.11811
20
-0.645669
11
5.11811
21
-0.771654
0
LINE
8
BLACK
6
CONTINUOUS
10
5.05512
20
-0.708661
11
5.1811
21
-0.708661
0
LINE
8
BLACK
6
CONTINUOUS
10
6.29921
20
-0.645669
11
6.29921
21
-0.771654
0
LINE
8
BLACK
6
CONTINUOUS
10
6.23622
20
-0.708661
11
6.3622
21
-0.708661
0
LINE
8
BLACK
6
CONTINUOUS
10
9.84252
20
-0.645669
11
9.84252
21
-0.771654
0
LINE
8
BLACK
6
CONTINUOUS
10
9.77953
20
-0.708661
11
9.90551
21
-0.708661
0
LINE
8
BLACK
6
CONTINUOUS
10
1.48974
20
-7.0741
11
1.48974
21
-6.95599
0
LINE
8
BLACK
6
CONTINUOUS
10
1.48974
20
-6.95599
11
1.51786
21
-6.95599
0
LINE
8
BLACK
6
CONTINUOUS
10
1.51786
20
-6.95599
11
1.53473
21
-6.96161
0
LINE
8
BLACK
6
CONTINUOUS
10
1.53473
20
-6.96161
11
1.54598
21
-6.97286
0
LINE
8
BLACK
6
CONTINUOUS
10
1.54598
20
-6.97286
11
1.5516
21
-6.98411
0
LINE
8
BLACK
6
CONTINUOUS
10
1.5516
20
-6.98411
11
1.55723
21
-7.00661
0
LINE
8
BLACK
6
CONTINUOUS
10
1.55723
20
-7.00661
11
1.55723
21
-7.02348
0
LINE
8
BLACK
6
CONTINUOUS
10
1.55723
20
-7.02348
11
1.5516
21
-7.04598
0
LINE
8
BLACK
6
CONTINUOUS
10
1.5516
20
-7.04598
11
1.54598
21
-7.05723
0
LINE
8
BLACK
6
CONTINUOUS
10
1.54598
20
-7.05723
11
1.53473
21
-7.06848
0
LINE
8
BLACK
6
CONTINUOUS
10
1.53473
20
-7.06848
11
1.51786
21
-7.0741
0
LINE
8
BLACK
6
CONTINUOUS
10
1.51786
20
-7.0741
11
1.48974
21
-7.0741
0
LINE
8
BLACK
6
CONTINUOUS
10
1.60785
20
-7.0741
11
1.60785
21
-6.99536
0
LINE
8
BLACK
6
CONTINUOUS
10
1.60785
20
-7.01786
11
1.61347
21
-7.00661
0
LINE
8
BLACK
6
CONTINUOUS
10
1.61347
20
-7.00661
11
1.61909
21
-7.00098
0
LINE
8
BLACK
6
CONTINUOUS
10
1.61909
20
-7.00098
11
1.63034
21
-6.99536
0
LINE
8
BLACK
6
CONTINUOUS
10
1.63034
20
-6.99536
11
1.64159
21
-6.99536
0
LINE
8
BLACK
6
CONTINUOUS
10
1.68096
20
-7.0741
11
1.68096
21
-6.99536
0
LINE
8
BLACK
6
CONTINUOUS
10
1.68096
20
-6.95599
11
1.67534
21
-6.96161
0
LINE
8
BLACK
6
CONTINUOUS
10
1.67534
20
-6.96161
11
1.68096
21
-6.96724
0
LINE
8
BLACK
6
CONTINUOUS
10
1.68096
20
-6.96724
11
1.68659
21
-6.96161
0
LINE
8
BLACK
6
CONTINUOUS
10
1.68659
20
-6.96161
11
1.68096
21
-6.95599
0
LINE
8
BLACK
6
CONTINUOUS
10
1.68096
20
-6.95599
11
1.68096
21
-6.96724
0
LINE
8
BLACK
6
CONTINUOUS
10
1.75408
20
-7.0741
11
1.74283
21
-7.06848
0
LINE
8
BLACK
6
CONTINUOUS
10
1.74283
20
-7.06848
11
1.7372
21
-7.05723
0
LINE
8
BLACK
6
CONTINUOUS
10
1.7372
20
-7.05723
11
1.7372
21
-6.95599
0
LINE
8
BLACK
6
CONTINUOUS
10
1.81594
20
-7.0741
11
1.8047
21
-7.06848
0
LINE
8
BLACK
6
CONTINUOUS
10
1.8047
20
-7.06848
11
1.79907
21
-7.05723
0
LINE
8
BLACK
6
CONTINUOUS
10
1.79907
20
-7.05723
11
1.79907
21
-6.95599
0
LINE
8
BLACK
6
CONTINUOUS
10
1.95093
20
-7.0741
11
1.95093
21
-6.95599
0
LINE
8
BLACK
6
CONTINUOUS
10
1.95093
20
-6.95599
11
1.9903
21
-7.04035
0
LINE
8
BLACK
6
CONTINUOUS
10
1.9903
20
-7.04035
11
2.02967
21
-6.95599
0
LINE
8
BLACK
6
CONTINUOUS
10
2.02967
20
-6.95599
11
2.02967
21
-7.0741
0
LINE
8
BLACK
6
CONTINUOUS
10
2.13653
20
-7.0741
11
2.13653
21
-7.01223
0
LINE
8
BLACK
6
CONTINUOUS
10
2.13653
20
-7.01223
11
2.13091
21
-7.00098
0
LINE
8
BLACK
6
CONTINUOUS
10
2.13091
20
-7.00098
11
2.11966
21
-6.99536
0
LINE
8
BLACK
6
CONTINUOUS
10
2.11966
20
-6.99536
11
2.09716
21
-6.99536
0
LINE
8
BLACK
6
CONTINUOUS
10
2.09716
20
-6.99536
11
2.08591
21
-7.00098
0
LINE
8
BLACK
6
CONTINUOUS
10
2.13653
20
-7.06848
11
2.12528
21
-7.0741
0
LINE
8
BLACK
6
CONTINUOUS
10
2.12528
20
-7.0741
11
2.09716
21
-7.0741
0
LINE
8
BLACK
6
CONTINUOUS
10
2.09716
20
-7.0741
11
2.08591
21
-7.06848
0
LINE
8
BLACK
6
CONTINUOUS
10
2.08591
20
-7.06848
11
2.08029
21
-7.05723
0
LINE
8
BLACK
6
CONTINUOUS
10
2.08029
20
-7.05723
11
2.08029
21
-7.04598
0
LINE
8
BLACK
6
CONTINUOUS
10
2.08029
20
-7.04598
11
2.08591
21
-7.03473
0
LINE
8
BLACK
6
CONTINUOUS
10
2.08591
20
-7.03473
11
2.09716
21
-7.02911
0
LINE
8
BLACK
6
CONTINUOUS
10
2.09716
20
-7.02911
11
2.12528
21
-7.02911
0
LINE
8
BLACK
6
CONTINUOUS
10
2.12528
20
-7.02911
11
2.13653
21
-7.02348
0
LINE
8
BLACK
6
CONTINUOUS
10
2.19277
20
-6.99536
11
2.19277
21
-7.11347
0
LINE
8
BLACK
6
CONTINUOUS
10
2.19277
20
-7.00098
11
2.20402
21
-6.99536
0
LINE
8
BLACK
6
CONTINUOUS
10
2.20402
20
-6.99536
11
2.22652
21
-6.99536
0
LINE
8
BLACK
6
CONTINUOUS
10
2.22652
20
-6.99536
11
2.23777
21
-7.00098
0
LINE
8
BLACK
6
CONTINUOUS
10
2.23777
20
-7.00098
11
2.24339
21
-7.00661
0
LINE
8
BLACK
6
CONTINUOUS
10
2.24339
20
-7.00661
11
2.24902
21
-7.01786
0
LINE
8
BLACK
6
CONTINUOUS
10
2.24902
20
-7.01786
11
2.24902
21
-7.0516
0
LINE
8
BLACK
6
CONTINUOUS
10
2.24902
20
-7.0516
11
2.24339
21
-7.06285
0
LINE
8
BLACK
6
CONTINUOUS
10
2.24339
20
-7.06285
11
2.23777
21
-7.06848
0
LINE
8
BLACK
6
CONTINUOUS
10
2.23777
20
-7.06848
11
2.22652
21
-7.0741
0
LINE
8
BLACK
6
CONTINUOUS
10
2.22652
20
-7.0741
11
2.20402
21
-7.0741
0
LINE
8
BLACK
6
CONTINUOUS
10
2.20402
20
-7.0741
11
2.19277
21
-7.06848
0
LINE
8
BLACK
6
CONTINUOUS
10
2.29963
20
-7.06285
11
2.30526
21
-7.06848
0
LINE
8
BLACK
6
CONTINUOUS
10
2.30526
20
-7.06848
11
2.29963
21
-7.0741
0
LINE
8
BLACK
6
CONTINUOUS
10
2.29963
20
-7.0741
11
2.29401
21
-7.06848
0
LINE
8
BLACK
6
CONTINUOUS
10
2.29401
20
-7.06848
11
2.29963
21
-7.06285
0
LINE
8
BLACK
6
CONTINUOUS
10
2.29963
20
-7.06285
11
2.29963
21
-7.0741
0
LINE
8
BLACK
6
CONTINUOUS
10
2.29963
20
-7.00098
11
2.30526
21
-7.00661
0
LINE
8
BLACK
6
CONTINUOUS
10
2.30526
20
-7.00661
11
2.29963
21
-7.01223
0
LINE
8
BLACK
6
CONTINUOUS
10
2.29963
20
-7.01223
11
2.29401
21
-7.00661
0
LINE
8
BLACK
6
CONTINUOUS
10
2.29401
20
-7.00661
11
2.29963
21
-7.00098
0
LINE
8
BLACK
6
CONTINUOUS
10
2.29963
20
-7.00098
11
2.29963
21
-7.01223
0
LINE
8
BLACK
6
CONTINUOUS
10
1.34547
20
-7.25295
11
1.37697
21
-7.28445
0
LINE
8
BLACK
6
CONTINUOUS
10
1.37697
20
-7.25295
11
1.34547
21
-7.28445
0
LINE
8
BLACK
6
CONTINUOUS
10
1.51223
20
-7.20402
11
1.52348
21
-7.20402
0
LINE
8
BLACK
6
CONTINUOUS
10
1.52348
20
-7.20402
11
1.53473
21
-7.20965
0
LINE
8
BLACK
6
CONTINUOUS
10
1.53473
20
-7.20965
11
1.54035
21
-7.21527
0
LINE
8
BLACK
6
CONTINUOUS
10
1.54035
20
-7.21527
11
1.54598
21
-7.22652
0
LINE
8
BLACK
6
CONTINUOUS
10
1.54598
20
-7.22652
11
1.5516
21
-7.24902
0
LINE
8
BLACK
6
CONTINUOUS
10
1.5516
20
-7.24902
11
1.5516
21
-7.27714
0
LINE
8
BLACK
6
CONTINUOUS
10
1.5516
20
-7.27714
11
1.54598
21
-7.29963
0
LINE
8
BLACK
6
CONTINUOUS
10
1.54598
20
-7.29963
11
1.54035
21
-7.31088
0
LINE
8
BLACK
6
CONTINUOUS
10
1.54035
20
-7.31088
11
1.53473
21
-7.31651
0
LINE
8
BLACK
6
CONTINUOUS
10
1.53473
20
-7.31651
11
1.52348
21
-7.32213
0
LINE
8
BLACK
6
CONTINUOUS
10
1.52348
20
-7.32213
11
1.51223
21
-7.32213
0
LINE
8
BLACK
6
CONTINUOUS
10
1.51223
20
-7.32213
11
1.50098
21
-7.31651
0
LINE
8
BLACK
6
CONTINUOUS
10
1.50098
20
-7.31651
11
1.49536
21
-7.31088
0
LINE
8
BLACK
6
CONTINUOUS
10
1.49536
20
-7.31088
11
1.48974
21
-7.29963
0
LINE
8
BLACK
6
CONTINUOUS
10
1.48974
20
-7.29963
11
1.48411
21
-7.27714
0
LINE
8
BLACK
6
CONTINUOUS
10
1.48411
20
-7.27714
11
1.48411
21
-7.24902
0
LINE
8
BLACK
6
CONTINUOUS
10
1.48411
20
-7.24902
11
1.48974
21
-7.22652
0
LINE
8
BLACK
6
CONTINUOUS
10
1.48974
20
-7.22652
11
1.49536
21
-7.21527
0
LINE
8
BLACK
6
CONTINUOUS
10
1.49536
20
-7.21527
11
1.50098
21
-7.20965
0
LINE
8
BLACK
6
CONTINUOUS
10
1.50098
20
-7.20965
11
1.51223
21
-7.20402
0
LINE
8
BLACK
6
CONTINUOUS
10
1.60222
20
-7.31088
11
1.60785
21
-7.31651
0
LINE
8
BLACK
6
CONTINUOUS
10
1.60785
20
-7.31651
11
1.60222
21
-7.32213
0
LINE
8
BLACK
6
CONTINUOUS
10
1.60222
20
-7.32213
11
1.5966
21
-7.31651
0
LINE
8
BLACK
6
CONTINUOUS
10
1.5966
20
-7.31651
11
1.60222
21
-7.31088
0
LINE
8
BLACK
6
CONTINUOUS
10
1.60222
20
-7.31088
11
1.60222
21
-7.32213
0
LINE
8
BLACK
6
CONTINUOUS
10
1.67534
20
-7.25464
11
1.66409
21
-7.24902
0
LINE
8
BLACK
6
CONTINUOUS
10
1.66409
20
-7.24902
11
1.65846
21
-7.24339
0
LINE
8
BLACK
6
CONTINUOUS
10
1.65846
20
-7.24339
11
1.65284
21
-7.23214
0
LINE
8
BLACK
6
CONTINUOUS
10
1.65284
20
-7.23214
11
1.65284
21
-7.22652
0
LINE
8
BLACK
6
CONTINUOUS
10
1.65284
20
-7.22652
11
1.65846
21
-7.21527
0
LINE
8
BLACK
6
CONTINUOUS
10
1.65846
20
-7.21527
11
1.66409
21
-7.20965
0
LINE
8
BLACK
6
CONTINUOUS
10
1.66409
20
-7.20965
11
1.67534
21
-7.20402
0
LINE
8
BLACK
6
CONTINUOUS
10
1.67534
20
-7.20402
11
1.69783
21
-7.20402
0
LINE
8
BLACK
6
CONTINUOUS
10
1.69783
20
-7.20402
11
1.70908
21
-7.20965
0
LINE
8
BLACK
6
CONTINUOUS
10
1.70908
20
-7.20965
11
1.71471
21
-7.21527
0
LINE
8
BLACK
6
CONTINUOUS
10
1.71471
20
-7.21527
11
1.72033
21
-7.22652
0
LINE
8
BLACK
6
CONTINUOUS
10
1.72033
20
-7.22652
11
1.72033
21
-7.23214
0
LINE
8
BLACK
6
CONTINUOUS
10
1.72033
20
-7.23214
11
1.71471
21
-7.24339
0
LINE
8
BLACK
6
CONTINUOUS
10
1.71471
20
-7.24339
11
1.70908
21
-7.24902
0
LINE
8
BLACK
6
CONTINUOUS
10
1.70908
20
-7.24902
11
1.69783
21
-7.25464
0
LINE
8
BLACK
6
CONTINUOUS
10
1.69783
20
-7.25464
11
1.67534
21
-7.25464
0
LINE
8
BLACK
6
CONTINUOUS
10
1.67534
20
-7.25464
11
1.66409
21
-7.26026
0
LINE
8
BLACK
6
CONTINUOUS
10
1.66409
20
-7.26026
11
1.65846
21
-7.26589
0
LINE
8
BLACK
6
CONTINUOUS
10
1.65846
20
-7.26589
11
1.65284
21
-7.27714
0
LINE
8
BLACK
6
CONTINUOUS
10
1.65284
20
-7.27714
11
1.65284
21
-7.29963
0
LINE
8
BLACK
6
CONTINUOUS
10
1.65284
20
-7.29963
11
1.65846
21
-7.31088
0
LINE
8
BLACK
6
CONTINUOUS
10
1.65846
20
-7.31088
11
1.66409
21
-7.31651
0
LINE
8
BLACK
6
CONTINUOUS
10
1.66409
20
-7.31651
11
1.67534
21
-7.32213
0
LINE
8
BLACK
6
CONTINUOUS
10
1.67534
20
-7.32213
11
1.69783
21
-7.32213
0
LINE
8
BLACK
6
CONTINUOUS
10
1.69783
20
-7.32213
11
1.70908
21
-7.31651
0
LINE
8
BLACK
6
CONTINUOUS
10
1.70908
20
-7.31651
11
1.71471
21
-7.31088
0
LINE
8
BLACK
6
CONTINUOUS
10
1.71471
20
-7.31088
11
1.72033
21
-7.29963
0
LINE
8
BLACK
6
CONTINUOUS
10
1.72033
20
-7.29963
11
1.72033
21
-7.27714
0
LINE
8
BLACK
6
CONTINUOUS
10
1.72033
20
-7.27714
11
1.71471
21
-7.26589
0
LINE
8
BLACK
6
CONTINUOUS
10
1.71471
20
-7.26589
11
1.70908
21
-7.26026
0
LINE
8
BLACK
6
CONTINUOUS
10
1.70908
20
-7.26026
11
1.69783
21
-7.25464
0
LINE
8
BLACK
6
CONTINUOUS
10
1.79345
20
-7.20402
11
1.8047
21
-7.20402
0
LINE
8
BLACK
6
CONTINUOUS
10
1.8047
20
-7.20402
11
1.81594
21
-7.20965
0
LINE
8
BLACK
6
CONTINUOUS
10
1.81594
20
-7.20965
11
1.82157
21
-7.21527
0
LINE
8
BLACK
6
CONTINUOUS
10
1.82157
20
-7.21527
11
1.82719
21
-7.22652
0
LINE
8
BLACK
6
CONTINUOUS
10
1.82719
20
-7.22652
11
1.83282
21
-7.24902
0
LINE
8
BLACK
6
CONTINUOUS
10
1.83282
20
-7.24902
11
1.83282
21
-7.27714
0
LINE
8
BLACK
6
CONTINUOUS
10
1.83282
20
-7.27714
11
1.82719
21
-7.29963
0
LINE
8
BLACK
6
CONTINUOUS
10
1.82719
20
-7.29963
11
1.82157
21
-7.31088
0
LINE
8
BLACK
6
CONTINUOUS
10
1.82157
20
-7.31088
11
1.81594
21
-7.31651
0
LINE
8
BLACK
6
CONTINUOUS
10
1.81594
20
-7.31651
11
1.8047
21
-7.32213
0
LINE
8
BLACK
6
CONTINUOUS
10
1.8047
20
-7.32213
11
1.79345
21
-7.32213
0
LINE
8
BLACK
6
CONTINUOUS
10
1.79345
20
-7.32213
11
1.7822
21
-7.31651
0
LINE
8
BLACK
6
CONTINUOUS
10
1.7822
20
-7.31651
11
1.77657
21
-7.31088
0
LINE
8
BLACK
6
CONTINUOUS
10
1.77657
20
-7.31088
11
1.77095
21
-7.29963
0
LINE
8
BLACK
6
CONTINUOUS
10
1.77095
20
-7.29963
11
1.76533
21
-7.27714
0
LINE
8
BLACK
6
CONTINUOUS
10
1.76533
20
-7.27714
11
1.76533
21
-7.24902
0
LINE
8
BLACK
6
CONTINUOUS
10
1.76533
20
-7.24902
11
1.77095
21
-7.22652
0
LINE
8
BLACK
6
CONTINUOUS
10
1.77095
20
-7.22652
11
1.77657
21
-7.21527
0
LINE
8
BLACK
6
CONTINUOUS
10
1.77657
20
-7.21527
11
1.7822
21
-7.20965
0
LINE
8
BLACK
6
CONTINUOUS
10
1.7822
20
-7.20965
11
1.79345
21
-7.20402
0
LINE
8
BLACK
6
CONTINUOUS
10
1.90593
20
-7.20402
11
1.91718
21
-7.20402
0
LINE
8
BLACK
6
CONTINUOUS
10
1.91718
20
-7.20402
11
1.92843
21
-7.20965
0
LINE
8
BLACK
6
CONTINUOUS
10
1.92843
20
-7.20965
11
1.93406
21
-7.21527
0
LINE
8
BLACK
6
CONTINUOUS
10
1.93406
20
-7.21527
11
1.93968
21
-7.22652
0
LINE
8
BLACK
6
CONTINUOUS
10
1.93968
20
-7.22652
11
1.9453
21
-7.24902
0
LINE
8
BLACK
6
CONTINUOUS
10
1.9453
20
-7.24902
11
1.9453
21
-7.27714
0
LINE
8
BLACK
6
CONTINUOUS
10
1.9453
20
-7.27714
11
1.93968
21
-7.29963
0
LINE
8
BLACK
6
CONTINUOUS
10
1.93968
20
-7.29963
11
1.93406
21
-7.31088
0
LINE
8
BLACK
6
CONTINUOUS
10
1.93406
20
-7.31088
11
1.92843
21
-7.31651
0
LINE
8
BLACK
6
CONTINUOUS
10
1.92843
20
-7.31651
11
1.91718
21
-7.32213
0
LINE
8
BLACK
6
CONTINUOUS
10
1.91718
20
-7.32213
11
1.90593
21
-7.32213
0
LINE
8
BLACK
6
CONTINUOUS
10
1.90593
20
-7.32213
11
1.89468
21
-7.31651
0
LINE
8
BLACK
6
CONTINUOUS
10
1.89468
20
-7.31651
11
1.88906
21
-7.31088
0
LINE
8
BLACK
6
CONTINUOUS
10
1.88906
20
-7.31088
11
1.88344
21
-7.29963
0
LINE
8
BLACK
6
CONTINUOUS
10
1.88344
20
-7.29963
11
1.87781
21
-7.27714
0
LINE
8
BLACK
6
CONTINUOUS
10
1.87781
20
-7.27714
11
1.87781
21
-7.24902
0
LINE
8
BLACK
6
CONTINUOUS
10
1.87781
20
-7.24902
11
1.88344
21
-7.22652
0
LINE
8
BLACK
6
CONTINUOUS
10
1.88344
20
-7.22652
11
1.88906
21
-7.21527
0
LINE
8
BLACK
6
CONTINUOUS
10
1.88906
20
-7.21527
11
1.89468
21
-7.20965
0
LINE
8
BLACK
6
CONTINUOUS
10
1.89468
20
-7.20965
11
1.90593
21
-7.20402
0
LINE
8
BLACK
6
CONTINUOUS
10
1.99592
20
-7.32213
11
1.99592
21
-7.24339
0
LINE
8
BLACK
6
CONTINUOUS
10
1.99592
20
-7.25464
11
2.00155
21
-7.24902
0
LINE
8
BLACK
6
CONTINUOUS
10
2.00155
20
-7.24902
11
2.0128
21
-7.24339
0
LINE
8
BLACK
6
CONTINUOUS
10
2.0128
20
-7.24339
11
2.02967
21
-7.24339
0
LINE
8
BLACK
6
CONTINUOUS
10
2.02967
20
-7.24339
11
2.04092
21
-7.24902
0
LINE
8
BLACK
6
CONTINUOUS
10
2.04092
20
-7.24902
11
2.04654
21
-7.26026
0
LINE
8
BLACK
6
CONTINUOUS
10
2.04654
20
-7.26026
11
2.04654
21
-7.32213
0
LINE
8
BLACK
6
CONTINUOUS
10
2.04654
20
-7.26026
11
2.05217
21
-7.24902
0
LINE
8
BLACK
6
CONTINUOUS
10
2.05217
20
-7.24902
11
2.06341
21
-7.24339
0
LINE
8
BLACK
6
CONTINUOUS
10
2.06341
20
-7.24339
11
2.08029
21
-7.24339
0
LINE
8
BLACK
6
CONTINUOUS
10
2.08029
20
-7.24339
11
2.09154
21
-7.24902
0
LINE
8
BLACK
6
CONTINUOUS
10
2.09154
20
-7.24902
11
2.09716
21
-7.26026
0
LINE
8
BLACK
6
CONTINUOUS
10
2.09716
20
-7.26026
11
2.09716
21
-7.32213
0
LINE
8
BLACK
6
CONTINUOUS
10
2.1534
20
-7.32213
11
2.1534
21
-7.24339
0
LINE
8
BLACK
6
CONTINUOUS
10
2.1534
20
-7.25464
11
2.15903
21
-7.24902
0
LINE
8
BLACK
6
CONTINUOUS
10
2.15903
20
-7.24902
11
2.17028
21
-7.24339
0
LINE
8
BLACK
6
CONTINUOUS
10
2.17028
20
-7.24339
11
2.18715
21
-7.24339
0
LINE
8
BLACK
6
CONTINUOUS
10
2.18715
20
-7.24339
11
2.1984
21
-7.24902
0
LINE
8
BLACK
6
CONTINUOUS
10
2.1984
20
-7.24902
11
2.20402
21
-7.26026
0
LINE
8
BLACK
6
CONTINUOUS
10
2.20402
20
-7.26026
11
2.20402
21
-7.32213
0
LINE
8
BLACK
6
CONTINUOUS
10
2.20402
20
-7.26026
11
2.20965
21
-7.24902
0
LINE
8
BLACK
6
CONTINUOUS
10
2.20965
20
-7.24902
11
2.22089
21
-7.24339
0
LINE
8
BLACK
6
CONTINUOUS
10
2.22089
20
-7.24339
11
2.23777
21
-7.24339
0
LINE
8
BLACK
6
CONTINUOUS
10
2.23777
20
-7.24339
11
2.24902
21
-7.24902
0
LINE
8
BLACK
6
CONTINUOUS
10
2.24902
20
-7.24902
11
2.25464
21
-7.26026
0
LINE
8
BLACK
6
CONTINUOUS
10
2.25464
20
-7.26026
11
2.25464
21
-7.32213
0
LINE
8
BLACK
6
CONTINUOUS
10
2.48524
20
-7.1984
11
2.384
21
-7.35025
0
LINE
8
BLACK
6
CONTINUOUS
10
2.63709
20
-7.20402
11
2.64834
21
-7.20402
0
LINE
8
BLACK
6
CONTINUOUS
10
2.64834
20
-7.20402
11
2.65959
21
-7.20965
0
LINE
8
BLACK
6
CONTINUOUS
10
2.65959
20
-7.20965
11
2.66521
21
-7.21527
0
LINE
8
BLACK
6
CONTINUOUS
10
2.66521
20
-7.21527
11
2.67084
21
-7.22652
0
LINE
8
BLACK
6
CONTINUOUS
10
2.67084
20
-7.22652
11
2.67646
21
-7.24902
0
LINE
8
BLACK
6
CONTINUOUS
10
2.67646
20
-7.24902
11
2.67646
21
-7.27714
0
LINE
8
BLACK
6
CONTINUOUS
10
2.67646
20
-7.27714
11
2.67084
21
-7.29963
0
LINE
8
BLACK
6
CONTINUOUS
10
2.67084
20
-7.29963
11
2.66521
21
-7.31088
0
LINE
8
BLACK
6
CONTINUOUS
10
2.66521
20
-7.31088
11
2.65959
21
-7.31651
0
LINE
8
BLACK
6
CONTINUOUS
10
2.65959
20
-7.31651
11
2.64834
21
-7.32213
0
LINE
8
BLACK
6
CONTINUOUS
10
2.64834
20
-7.32213
11
2.63709
21
-7.32213
0
LINE
8
BLACK
6
CONTINUOUS
10
2.63709
20
-7.32213
11
2.62584
21
-7.31651
0
LINE
8
BLACK
6
CONTINUOUS
10
2.62584
20
-7.31651
11
2.62022
21
-7.31088
0
LINE
8
BLACK
6
CONTINUOUS
10
2.62022
20
-7.31088
11
2.6146
21
-7.29963
0
LINE
8
BLACK
6
CONTINUOUS
10
2.6146
20
-7.29963
11
2.60897
21
-7.27714
0
LINE
8
BLACK
6
CONTINUOUS
10
2.60897
20
-7.27714
11
2.60897
21
-7.24902
0
LINE
8
BLACK
6
CONTINUOUS
10
2.60897
20
-7.24902
11
2.6146
21
-7.22652
0
LINE
8
BLACK
6
CONTINUOUS
10
2.6146
20
-7.22652
11
2.62022
21
-7.21527
0
LINE
8
BLACK
6
CONTINUOUS
10
2.62022
20
-7.21527
11
2.62584
21
-7.20965
0
LINE
8
BLACK
6
CONTINUOUS
10
2.62584
20
-7.20965
11
2.63709
21
-7.20402
0
LINE
8
BLACK
6
CONTINUOUS
10
2.72708
20
-7.31088
11
2.73271
21
-7.31651
0
LINE
8
BLACK
6
CONTINUOUS
10
2.73271
20
-7.31651
11
2.72708
21
-7.32213
0
LINE
8
BLACK
6
CONTINUOUS
10
2.72708
20
-7.32213
11
2.72146
21
-7.31651
0
LINE
8
BLACK
6
CONTINUOUS
10
2.72146
20
-7.31651
11
2.72708
21
-7.31088
0
LINE
8
BLACK
6
CONTINUOUS
10
2.72708
20
-7.31088
11
2.72708
21
-7.32213
0
LINE
8
BLACK
6
CONTINUOUS
10
2.80582
20
-7.20402
11
2.81707
21
-7.20402
0
LINE
8
BLACK
6
CONTINUOUS
10
2.81707
20
-7.20402
11
2.82832
21
-7.20965
0
LINE
8
BLACK
6
CONTINUOUS
10
2.82832
20
-7.20965
11
2.83394
21
-7.21527
0
LINE
8
BLACK
6
CONTINUOUS
10
2.83394
20
-7.21527
11
2.83957
21
-7.22652
0
LINE
8
BLACK
6
CONTINUOUS
10
2.83957
20
-7.22652
11
2.84519
21
-7.24902
0
LINE
8
BLACK
6
CONTINUOUS
10
2.84519
20
-7.24902
11
2.84519
21
-7.27714
0
LINE
8
BLACK
6
CONTINUOUS
10
2.84519
20
-7.27714
11
2.83957
21
-7.29963
0
LINE
8
BLACK
6
CONTINUOUS
10
2.83957
20
-7.29963
11
2.83394
21
-7.31088
0
LINE
8
BLACK
6
CONTINUOUS
10
2.83394
20
-7.31088
11
2.82832
21
-7.31651
0
LINE
8
BLACK
6
CONTINUOUS
10
2.82832
20
-7.31651
11
2.81707
21
-7.32213
0
LINE
8
BLACK
6
CONTINUOUS
10
2.81707
20
-7.32213
11
2.80582
21
-7.32213
0
LINE
8
BLACK
6
CONTINUOUS
10
2.80582
20
-7.32213
11
2.79457
21
-7.31651
0
LINE
8
BLACK
6
CONTINUOUS
10
2.79457
20
-7.31651
11
2.78895
21
-7.31088
0
LINE
8
BLACK
6
CONTINUOUS
10
2.78895
20
-7.31088
11
2.78332
21
-7.29963
0
LINE
8
BLACK
6
CONTINUOUS
10
2.78332
20
-7.29963
11
2.7777
21
-7.27714
0
LINE
8
BLACK
6
CONTINUOUS
10
2.7777
20
-7.27714
11
2.7777
21
-7.24902
0
LINE
8
BLACK
6
CONTINUOUS
10
2.7777
20
-7.24902
11
2.78332
21
-7.22652
0
LINE
8
BLACK
6
CONTINUOUS
10
2.78332
20
-7.22652
11
2.78895
21
-7.21527
0
LINE
8
BLACK
6
CONTINUOUS
10
2.78895
20
-7.21527
11
2.79457
21
-7.20965
0
LINE
8
BLACK
6
CONTINUOUS
10
2.79457
20
-7.20965
11
2.80582
21
-7.20402
0
LINE
8
BLACK
6
CONTINUOUS
10
2.88456
20
-7.20402
11
2.95768
21
-7.20402
0
LINE
8
BLACK
6
CONTINUOUS
10
2.95768
20
-7.20402
11
2.91831
21
-7.24902
0
LINE
8
BLACK
6
CONTINUOUS
10
2.91831
20
-7.24902
11
2.93518
21
-7.24902
0
LINE
8
BLACK
6
CONTINUOUS
10
2.93518
20
-7.24902
11
2.94643
21
-7.25464
0
LINE
8
BLACK
6
CONTINUOUS
10
2.94643
20
-7.25464
11
2.95205
21
-7.26026
0
LINE
8
BLACK
6
CONTINUOUS
10
2.95205
20
-7.26026
11
2.95768
21
-7.27151
0
LINE
8
BLACK
6
CONTINUOUS
10
2.95768
20
-7.27151
11
2.95768
21
-7.29963
0
LINE
8
BLACK
6
CONTINUOUS
10
2.95768
20
-7.29963
11
2.95205
21
-7.31088
0
LINE
8
BLACK
6
CONTINUOUS
10
2.95205
20
-7.31088
11
2.94643
21
-7.31651
0
LINE
8
BLACK
6
CONTINUOUS
10
2.94643
20
-7.31651
11
2.93518
21
-7.32213
0
LINE
8
BLACK
6
CONTINUOUS
10
2.93518
20
-7.32213
11
2.90143
21
-7.32213
0
LINE
8
BLACK
6
CONTINUOUS
10
2.90143
20
-7.32213
11
2.89019
21
-7.31651
0
LINE
8
BLACK
6
CONTINUOUS
10
2.89019
20
-7.31651
11
2.88456
21
-7.31088
0
LINE
8
BLACK
6
CONTINUOUS
10
3.07016
20
-7.32213
11
3.00267
21
-7.32213
0
LINE
8
BLACK
6
CONTINUOUS
10
3.03642
20
-7.32213
11
3.03642
21
-7.20402
0
LINE
8
BLACK
6
CONTINUOUS
10
3.03642
20
-7.20402
11
3.02517
21
-7.22089
0
LINE
8
BLACK
6
CONTINUOUS
10
3.02517
20
-7.22089
11
3.01392
21
-7.23214
0
LINE
8
BLACK
6
CONTINUOUS
10
3.01392
20
-7.23214
11
3.00267
21
-7.23777
0
LINE
8
BLACK
6
CONTINUOUS
10
3.17702
20
-7.20402
11
3.12078
21
-7.20402
0
LINE
8
BLACK
6
CONTINUOUS
10
3.12078
20
-7.20402
11
3.11516
21
-7.26026
0
LINE
8
BLACK
6
CONTINUOUS
10
3.11516
20
-7.26026
11
3.12078
21
-7.25464
0
LINE
8
BLACK
6
CONTINUOUS
10
3.12078
20
-7.25464
11
3.13203
21
-7.24902
0
LINE
8
BLACK
6
CONTINUOUS
10
3.13203
20
-7.24902
11
3.16015
21
-7.24902
0
LINE
8
BLACK
6
CONTINUOUS
10
3.16015
20
-7.24902
11
3.1714
21
-7.25464
0
LINE
8
BLACK
6
CONTINUOUS
10
3.1714
20
-7.25464
11
3.17702
21
-7.26026
0
LINE
8
BLACK
6
CONTINUOUS
10
3.17702
20
-7.26026
11
3.18265
21
-7.27151
0
LINE
8
BLACK
6
CONTINUOUS
10
3.18265
20
-7.27151
11
3.18265
21
-7.29963
0
LINE
8
BLACK
6
CONTINUOUS
10
3.18265
20
-7.29963
11
3.17702
21
-7.31088
0
LINE
8
BLACK
6
CONTINUOUS
10
3.17702
20
-7.31088
11
3.1714
21
-7.31651
0
LINE
8
BLACK
6
CONTINUOUS
10
3.1714
20
-7.31651
11
3.16015
21
-7.32213
0
LINE
8
BLACK
6
CONTINUOUS
10
3.16015
20
-7.32213
11
3.13203
21
-7.32213
0
LINE
8
BLACK
6
CONTINUOUS
10
3.13203
20
-7.32213
11
3.12078
21
-7.31651
0
LINE
8
BLACK
6
CONTINUOUS
10
3.12078
20
-7.31651
11
3.11516
21
-7.31088
0
LINE
8
BLACK
6
CONTINUOUS
10
3.22764
20
-7.20402
11
3.22764
21
-7.22652
0
LINE
8
BLACK
6
CONTINUOUS
10
3.27264
20
-7.20402
11
3.27264
21
-7.22652
0
LINE
8
BLACK
6
CONTINUOUS
10
3.44699
20
-7.36713
11
3.44137
21
-7.3615
0
LINE
8
BLACK
6
CONTINUOUS
10
3.44137
20
-7.3615
11
3.43012
21
-7.34463
0
LINE
8
BLACK
6
CONTINUOUS
10
3.43012
20
-7.34463
11
3.42449
21
-7.33338
0
LINE
8
BLACK
6
CONTINUOUS
10
3.42449
20
-7.33338
11
3.41887
21
-7.31651
0
LINE
8
BLACK
6
CONTINUOUS
10
3.41887
20
-7.31651
11
3.41325
21
-7.28839
0
LINE
8
BLACK
6
CONTINUOUS
10
3.41325
20
-7.28839
11
3.41325
21
-7.26589
0
LINE
8
BLACK
6
CONTINUOUS
10
3.41325
20
-7.26589
11
3.41887
21
-7.23777
0
LINE
8
BLACK
6
CONTINUOUS
10
3.41887
20
-7.23777
11
3.42449
21
-7.22089
0
LINE
8
BLACK
6
CONTINUOUS
10
3.42449
20
-7.22089
11
3.43012
21
-7.20965
0
LINE
8
BLACK
6
CONTINUOUS
10
3.43012
20
-7.20965
11
3.44137
21
-7.19277
0
LINE
8
BLACK
6
CONTINUOUS
10
3.44137
20
-7.19277
11
3.44699
21
-7.18715
0
LINE
8
BLACK
6
CONTINUOUS
10
3.55385
20
-7.32213
11
3.48636
21
-7.32213
0
LINE
8
BLACK
6
CONTINUOUS
10
3.52011
20
-7.32213
11
3.52011
21
-7.20402
0
LINE
8
BLACK
6
CONTINUOUS
10
3.52011
20
-7.20402
11
3.50886
21
-7.22089
0
LINE
8
BLACK
6
CONTINUOUS
10
3.50886
20
-7.22089
11
3.49761
21
-7.23214
0
LINE
8
BLACK
6
CONTINUOUS
10
3.49761
20
-7.23214
11
3.48636
21
-7.23777
0
LINE
8
BLACK
6
CONTINUOUS
10
3.65509
20
-7.24339
11
3.65509
21
-7.32213
0
LINE
8
BLACK
6
CONTINUOUS
10
3.62697
20
-7.1984
11
3.59885
21
-7.28276
0
LINE
8
BLACK
6
CONTINUOUS
10
3.59885
20
-7.28276
11
3.67196
21
-7.28276
0
LINE
8
BLACK
6
CONTINUOUS
10
3.73383
20
-7.25464
11
3.72258
21
-7.24902
0
LINE
8
BLACK
6
CONTINUOUS
10
3.72258
20
-7.24902
11
3.71696
21
-7.24339
0
LINE
8
BLACK
6
CONTINUOUS
10
3.71696
20
-7.24339
11
3.71133
21
-7.23214
0
LINE
8
BLACK
6
CONTINUOUS
10
3.71133
20
-7.23214
11
3.71133
21
-7.22652
0
LINE
8
BLACK
6
CONTINUOUS
10
3.71133
20
-7.22652
11
3.71696
21
-7.21527
0
LINE
8
BLACK
6
CONTINUOUS
10
3.71696
20
-7.21527
11
3.72258
21
-7.20965
0
LINE
8
BLACK
6
CONTINUOUS
10
3.72258
20
-7.20965
11
3.73383
21
-7.20402
0
LINE
8
BLACK
6
CONTINUOUS
10
3.73383
20
-7.20402
11
3.75633
21
-7.20402
0
LINE
8
BLACK
6
CONTINUOUS
10
3.75633
20
-7.20402
11
3.76758
21
-7.20965
0
LINE
8
BLACK
6
CONTINUOUS
10
3.76758
20
-7.20965
11
3.7732
21
-7.21527
0
LINE
8
BLACK
6
CONTINUOUS
10
3.7732
20
-7.21527
11
3.77882
21
-7.22652
0
LINE
8
BLACK
6
CONTINUOUS
10
3.77882
20
-7.22652
11
3.77882
21
-7.23214
0
LINE
8
BLACK
6
CONTINUOUS
10
3.77882
20
-7.23214
11
3.7732
21
-7.24339
0
LINE
8
BLACK
6
CONTINUOUS
10
3.7732
20
-7.24339
11
3.76758
21
-7.24902
0
LINE
8
BLACK
6
CONTINUOUS
10
3.76758
20
-7.24902
11
3.75633
21
-7.25464
0
LINE
8
BLACK
6
CONTINUOUS
10
3.75633
20
-7.25464
11
3.73383
21
-7.25464
0
LINE
8
BLACK
6
CONTINUOUS
10
3.73383
20
-7.25464
11
3.72258
21
-7.26026
0
LINE
8
BLACK
6
CONTINUOUS
10
3.72258
20
-7.26026
11
3.71696
21
-7.26589
0
LINE
8
BLACK
6
CONTINUOUS
10
3.71696
20
-7.26589
11
3.71133
21
-7.27714
0
LINE
8
BLACK
6
CONTINUOUS
10
3.71133
20
-7.27714
11
3.71133
21
-7.29963
0
LINE
8
BLACK
6
CONTINUOUS
10
3.71133
20
-7.29963
11
3.71696
21
-7.31088
0
LINE
8
BLACK
6
CONTINUOUS
10
3.71696
20
-7.31088
11
3.72258
21
-7.31651
0
LINE
8
BLACK
6
CONTINUOUS
10
3.72258
20
-7.31651
11
3.73383
21
-7.32213
0
LINE
8
BLACK
6
CONTINUOUS
10
3.73383
20
-7.32213
11
3.75633
21
-7.32213
0
LINE
8
BLACK
6
CONTINUOUS
10
3.75633
20
-7.32213
11
3.76758
21
-7.31651
0
LINE
8
BLACK
6
CONTINUOUS
10
3.76758
20
-7.31651
11
3.7732
21
-7.31088
0
LINE
8
BLACK
6
CONTINUOUS
10
3.7732
20
-7.31088
11
3.77882
21
-7.29963
0
LINE
8
BLACK
6
CONTINUOUS
10
3.77882
20
-7.29963
11
3.77882
21
-7.27714
0
LINE
8
BLACK
6
CONTINUOUS
10
3.77882
20
-7.27714
11
3.7732
21
-7.26589
0
LINE
8
BLACK
6
CONTINUOUS
10
3.7732
20
-7.26589
11
3.76758
21
-7.26026
0
LINE
8
BLACK
6
CONTINUOUS
10
3.76758
20
-7.26026
11
3.75633
21
-7.25464
0
LINE
8
BLACK
6
CONTINUOUS
10
3.91943
20
-7.32213
11
3.91943
21
-7.20402
0
LINE
8
BLACK
6
CONTINUOUS
10
3.97005
20
-7.32213
11
3.97005
21
-7.26026
0
LINE
8
BLACK
6
CONTINUOUS
10
3.97005
20
-7.26026
11
3.96443
21
-7.24902
0
LINE
8
BLACK
6
CONTINUOUS
10
3.96443
20
-7.24902
11
3.95318
21
-7.24339
0
LINE
8
BLACK
6
CONTINUOUS
10
3.95318
20
-7.24339
11
3.9363
21
-7.24339
0
LINE
8
BLACK
6
CONTINUOUS
10
3.9363
20
-7.24339
11
3.92506
21
-7.24902
0
LINE
8
BLACK
6
CONTINUOUS
10
3.92506
20
-7.24902
11
3.91943
21
-7.25464
0
LINE
8
BLACK
6
CONTINUOUS
10
4.04317
20
-7.32213
11
4.03192
21
-7.31651
0
LINE
8
BLACK
6
CONTINUOUS
10
4.03192
20
-7.31651
11
4.02629
21
-7.31088
0
LINE
8
BLACK
6
CONTINUOUS
10
4.02629
20
-7.31088
11
4.02067
21
-7.29963
0
LINE
8
BLACK
6
CONTINUOUS
10
4.02067
20
-7.29963
11
4.02067
21
-7.26589
0
LINE
8
BLACK
6
CONTINUOUS
10
4.02067
20
-7.26589
11
4.02629
21
-7.25464
0
LINE
8
BLACK
6
CONTINUOUS
10
4.02629
20
-7.25464
11
4.03192
21
-7.24902
0
LINE
8
BLACK
6
CONTINUOUS
10
4.03192
20
-7.24902
11
4.04317
21
-7.24339
0
LINE
8
BLACK
6
CONTINUOUS
10
4.04317
20
-7.24339
11
4.06004
21
-7.24339
0
LINE
8
BLACK
6
CONTINUOUS
10
4.06004
20
-7.24339
11
4.07129
21
-7.24902
0
LINE
8
BLACK
6
CONTINUOUS
10
4.07129
20
-7.24902
11
4.07691
21
-7.25464
0
LINE
8
BLACK
6
CONTINUOUS
10
4.07691
20
-7.25464
11
4.08254
21
-7.26589
0
LINE
8
BLACK
6
CONTINUOUS
10
4.08254
20
-7.26589
11
4.08254
21
-7.29963
0
LINE
8
BLACK
6
CONTINUOUS
10
4.08254
20
-7.29963
11
4.07691
21
-7.31088
0
LINE
8
BLACK
6
CONTINUOUS
10
4.07691
20
-7.31088
11
4.07129
21
-7.31651
0
LINE
8
BLACK
6
CONTINUOUS
10
4.07129
20
-7.31651
11
4.06004
21
-7.32213
0
LINE
8
BLACK
6
CONTINUOUS
10
4.06004
20
-7.32213
11
4.04317
21
-7.32213
0
LINE
8
BLACK
6
CONTINUOUS
10
4.15003
20
-7.32213
11
4.13878
21
-7.31651
0
LINE
8
BLACK
6
CONTINUOUS
10
4.13878
20
-7.31651
11
4.13316
21
-7.30526
0
LINE
8
BLACK
6
CONTINUOUS
10
4.13316
20
-7.30526
11
4.13316
21
-7.20402
0
LINE
8
BLACK
6
CONTINUOUS
10
4.24002
20
-7.31651
11
4.22877
21
-7.32213
0
LINE
8
BLACK
6
CONTINUOUS
10
4.22877
20
-7.32213
11
4.20627
21
-7.32213
0
LINE
8
BLACK
6
CONTINUOUS
10
4.20627
20
-7.32213
11
4.19502
21
-7.31651
0
LINE
8
BLACK
6
CONTINUOUS
10
4.19502
20
-7.31651
11
4.1894
21
-7.30526
0
LINE
8
BLACK
6
CONTINUOUS
10
4.1894
20
-7.30526
11
4.1894
21
-7.26026
0
LINE
8
BLACK
6
CONTINUOUS
10
4.1894
20
-7.26026
11
4.19502
21
-7.24902
0
LINE
8
BLACK
6
CONTINUOUS
10
4.19502
20
-7.24902
11
4.20627
21
-7.24339
0
LINE
8
BLACK
6
CONTINUOUS
10
4.20627
20
-7.24339
11
4.22877
21
-7.24339
0
LINE
8
BLACK
6
CONTINUOUS
10
4.22877
20
-7.24339
11
4.24002
21
-7.24902
0
LINE
8
BLACK
6
CONTINUOUS
10
4.24002
20
-7.24902
11
4.24564
21
-7.26026
0
LINE
8
BLACK
6
CONTINUOUS
10
4.24564
20
-7.26026
11
4.24564
21
-7.27151
0
LINE
8
BLACK
6
CONTINUOUS
10
4.24564
20
-7.27151
11
4.1894
21
-7.28276
0
LINE
8
BLACK
6
CONTINUOUS
10
4.29064
20
-7.31651
11
4.30188
21
-7.32213
0
LINE
8
BLACK
6
CONTINUOUS
10
4.30188
20
-7.32213
11
4.32438
21
-7.32213
0
LINE
8
BLACK
6
CONTINUOUS
10
4.32438
20
-7.32213
11
4.33563
21
-7.31651
0
LINE
8
BLACK
6
CONTINUOUS
10
4.33563
20
-7.31651
11
4.34125
21
-7.30526
0
LINE
8
BLACK
6
CONTINUOUS
10
4.34125
20
-7.30526
11
4.34125
21
-7.29963
0
LINE
8
BLACK
6
CONTINUOUS
10
4.34125
20
-7.29963
11
4.33563
21
-7.28839
0
LINE
8
BLACK
6
CONTINUOUS
10
4.33563
20
-7.28839
11
4.32438
21
-7.28276
0
LINE
8
BLACK
6
CONTINUOUS
10
4.32438
20
-7.28276
11
4.30751
21
-7.28276
0
LINE
8
BLACK
6
CONTINUOUS
10
4.30751
20
-7.28276
11
4.29626
21
-7.27714
0
LINE
8
BLACK
6
CONTINUOUS
10
4.29626
20
-7.27714
11
4.29064
21
-7.26589
0
LINE
8
BLACK
6
CONTINUOUS
10
4.29064
20
-7.26589
11
4.29064
21
-7.26026
0
LINE
8
BLACK
6
CONTINUOUS
10
4.29064
20
-7.26026
11
4.29626
21
-7.24902
0
LINE
8
BLACK
6
CONTINUOUS
10
4.29626
20
-7.24902
11
4.30751
21
-7.24339
0
LINE
8
BLACK
6
CONTINUOUS
10
4.30751
20
-7.24339
11
4.32438
21
-7.24339
0
LINE
8
BLACK
6
CONTINUOUS
10
4.32438
20
-7.24339
11
4.33563
21
-7.24902
0
LINE
8
BLACK
6
CONTINUOUS
10
4.38062
20
-7.36713
11
4.38625
21
-7.3615
0
LINE
8
BLACK
6
CONTINUOUS
10
4.38625
20
-7.3615
11
4.3975
21
-7.34463
0
LINE
8
BLACK
6
CONTINUOUS
10
4.3975
20
-7.34463
11
4.40312
21
-7.33338
0
LINE
8
BLACK
6
CONTINUOUS
10
4.40312
20
-7.33338
11
4.40875
21
-7.31651
0
LINE
8
BLACK
6
CONTINUOUS
10
4.40875
20
-7.31651
11
4.41437
21
-7.28839
0
LINE
8
BLACK
6
CONTINUOUS
10
4.41437
20
-7.28839
11
4.41437
21
-7.26589
0
LINE
8
BLACK
6
CONTINUOUS
10
4.41437
20
-7.26589
11
4.40875
21
-7.23777
0
LINE
8
BLACK
6
CONTINUOUS
10
4.40875
20
-7.23777
11
4.40312
21
-7.22089
0
LINE
8
BLACK
6
CONTINUOUS
10
4.40312
20
-7.22089
11
4.3975
21
-7.20965
0
LINE
8
BLACK
6
CONTINUOUS
10
4.3975
20
-7.20965
11
4.38625
21
-7.19277
0
LINE
8
BLACK
6
CONTINUOUS
10
4.38625
20
-7.19277
11
4.38062
21
-7.18715
0
CIRCLE
8
BLACK
10
1.35728
20
-7.42461
40
0.019685
0
LINE
8
BLACK
6
CONTINUOUS
10
1.5516
20
-7.47804
11
1.48411
21
-7.47804
0
LINE
8
BLACK
6
CONTINUOUS
10
1.51786
20
-7.47804
11
1.51786
21
-7.35993
0
LINE
8
BLACK
6
CONTINUOUS
10
1.51786
20
-7.35993
11
1.50661
21
-7.3768
0
LINE
8
BLACK
6
CONTINUOUS
10
1.50661
20
-7.3768
11
1.49536
21
-7.38805
0
LINE
8
BLACK
6
CONTINUOUS
10
1.49536
20
-7.38805
11
1.48411
21
-7.39367
0
LINE
8
BLACK
6
CONTINUOUS
10
1.60222
20
-7.46679
11
1.60785
21
-7.47241
0
LINE
8
BLACK
6
CONTINUOUS
10
1.60785
20
-7.47241
11
1.60222
21
-7.47804
0
LINE
8
BLACK
6
CONTINUOUS
10
1.60222
20
-7.47804
11
1.5966
21
-7.47241
0
LINE
8
BLACK
6
CONTINUOUS
10
1.5966
20
-7.47241
11
1.60222
21
-7.46679
0
LINE
8
BLACK
6
CONTINUOUS
10
1.60222
20
-7.46679
11
1.60222
21
-7.47804
0
LINE
8
BLACK
6
CONTINUOUS
10
1.68096
20
-7.35993
11
1.69221
21
-7.35993
0
LINE
8
BLACK
6
CONTINUOUS
10
1.69221
20
-7.35993
11
1.70346
21
-7.36555
0
LINE
8
BLACK
6
CONTINUOUS
10
1.70346
20
-7.36555
11
1.70908
21
-7.37118
0
LINE
8
BLACK
6
CONTINUOUS
10
1.70908
20
-7.37118
11
1.71471
21
-7.38242
0
LINE
8
BLACK
6
CONTINUOUS
10
1.71471
20
-7.38242
11
1.72033
21
-7.40492
0
LINE
8
BLACK
6
CONTINUOUS
10
1.72033
20
-7.40492
11
1.72033
21
-7.43304
0
LINE
8
BLACK
6
CONTINUOUS
10
1.72033
20
-7.43304
11
1.71471
21
-7.45554
0
LINE
8
BLACK
6
CONTINUOUS
10
1.71471
20
-7.45554
11
1.70908
21
-7.46679
0
LINE
8
BLACK
6
CONTINUOUS
10
1.70908
20
-7.46679
11
1.70346
21
-7.47241
0
LINE
8
BLACK
6
CONTINUOUS
10
1.70346
20
-7.47241
11
1.69221
21
-7.47804
0
LINE
8
BLACK
6
CONTINUOUS
10
1.69221
20
-7.47804
11
1.68096
21
-7.47804
0
LINE
8
BLACK
6
CONTINUOUS
10
1.68096
20
-7.47804
11
1.66971
21
-7.47241
0
LINE
8
BLACK
6
CONTINUOUS
10
1.66971
20
-7.47241
11
1.66409
21
-7.46679
0
LINE
8
BLACK
6
CONTINUOUS
10
1.66409
20
-7.46679
11
1.65846
21
-7.45554
0
LINE
8
BLACK
6
CONTINUOUS
10
1.65846
20
-7.45554
11
1.65284
21
-7.43304
0
LINE
8
BLACK
6
CONTINUOUS
10
1.65284
20
-7.43304
11
1.65284
21
-7.40492
0
LINE
8
BLACK
6
CONTINUOUS
10
1.65284
20
-7.40492
11
1.65846
21
-7.38242
0
LINE
8
BLACK
6
CONTINUOUS
10
1.65846
20
-7.38242
11
1.66409
21
-7.37118
0
LINE
8
BLACK
6
CONTINUOUS
10
1.66409
20
-7.37118
11
1.66971
21
-7.36555
0
LINE
8
BLACK
6
CONTINUOUS
10
1.66971
20
-7.36555
11
1.68096
21
-7.35993
0
LINE
8
BLACK
6
CONTINUOUS
10
1.79345
20
-7.35993
11
1.8047
21
-7.35993
0
LINE
8
BLACK
6
CONTINUOUS
10
1.8047
20
-7.35993
11
1.81594
21
-7.36555
0
LINE
8
BLACK
6
CONTINUOUS
10
1.81594
20
-7.36555
11
1.82157
21
-7.37118
0
LINE
8
BLACK
6
CONTINUOUS
10
1.82157
20
-7.37118
11
1.82719
21
-7.38242
0
LINE
8
BLACK
6
CONTINUOUS
10
1.82719
20
-7.38242
11
1.83282
21
-7.40492
0
LINE
8
BLACK
6
CONTINUOUS
10
1.83282
20
-7.40492
11
1.83282
21
-7.43304
0
LINE
8
BLACK
6
CONTINUOUS
10
1.83282
20
-7.43304
11
1.82719
21
-7.45554
0
LINE
8
BLACK
6
CONTINUOUS
10
1.82719
20
-7.45554
11
1.82157
21
-7.46679
0
LINE
8
BLACK
6
CONTINUOUS
10
1.82157
20
-7.46679
11
1.81594
21
-7.47241
0
LINE
8
BLACK
6
CONTINUOUS
10
1.81594
20
-7.47241
11
1.8047
21
-7.47804
0
LINE
8
BLACK
6
CONTINUOUS
10
1.8047
20
-7.47804
11
1.79345
21
-7.47804
0
LINE
8
BLACK
6
CONTINUOUS
10
1.79345
20
-7.47804
11
1.7822
21
-7.47241
0
LINE
8
BLACK
6
CONTINUOUS
10
1.7822
20
-7.47241
11
1.77657
21
-7.46679
0
LINE
8
BLACK
6
CONTINUOUS
10
1.77657
20
-7.46679
11
1.77095
21
-7.45554
0
LINE
8
BLACK
6
CONTINUOUS
10
1.77095
20
-7.45554
11
1.76533
21
-7.43304
0
LINE
8
BLACK
6
CONTINUOUS
10
1.76533
20
-7.43304
11
1.76533
21
-7.40492
0
LINE
8
BLACK
6
CONTINUOUS
10
1.76533
20
-7.40492
11
1.77095
21
-7.38242
0
LINE
8
BLACK
6
CONTINUOUS
10
1.77095
20
-7.38242
11
1.77657
21
-7.37118
0
LINE
8
BLACK
6
CONTINUOUS
10
1.77657
20
-7.37118
11
1.7822
21
-7.36555
0
LINE
8
BLACK
6
CONTINUOUS
10
1.7822
20
-7.36555
11
1.79345
21
-7.35993
0
LINE
8
BLACK
6
CONTINUOUS
10
1.90593
20
-7.35993
11
1.91718
21
-7.35993
0
LINE
8
BLACK
6
CONTINUOUS
10
1.91718
20
-7.35993
11
1.92843
21
-7.36555
0
LINE
8
BLACK
6
CONTINUOUS
10
1.92843
20
-7.36555
11
1.93406
21
-7.37118
0
LINE
8
BLACK
6
CONTINUOUS
10
1.93406
20
-7.37118
11
1.93968
21
-7.38242
0
LINE
8
BLACK
6
CONTINUOUS
10
1.93968
20
-7.38242
11
1.9453
21
-7.40492
0
LINE
8
BLACK
6
CONTINUOUS
10
1.9453
20
-7.40492
11
1.9453
21
-7.43304
0
LINE
8
BLACK
6
CONTINUOUS
10
1.9453
20
-7.43304
11
1.93968
21
-7.45554
0
LINE
8
BLACK
6
CONTINUOUS
10
1.93968
20
-7.45554
11
1.93406
21
-7.46679
0
LINE
8
BLACK
6
CONTINUOUS
10
1.93406
20
-7.46679
11
1.92843
21
-7.47241
0
LINE
8
BLACK
6
CONTINUOUS
10
1.92843
20
-7.47241
11
1.91718
21
-7.47804
0
LINE
8
BLACK
6
CONTINUOUS
10
1.91718
20
-7.47804
11
1.90593
21
-7.47804
0
LINE
8
BLACK
6
CONTINUOUS
10
1.90593
20
-7.47804
11
1.89468
21
-7.47241
0
LINE
8
BLACK
6
CONTINUOUS
10
1.89468
20
-7.47241
11
1.88906
21
-7.46679
0
LINE
8
BLACK
6
CONTINUOUS
10
1.88906
20
-7.46679
11
1.88344
21
-7.45554
0
LINE
8
BLACK
6
CONTINUOUS
10
1.88344
20
-7.45554
11
1.87781
21
-7.43304
0
LINE
8
BLACK
6
CONTINUOUS
10
1.87781
20
-7.43304
11
1.87781
21
-7.40492
0
LINE
8
BLACK
6
CONTINUOUS
10
1.87781
20
-7.40492
11
1.88344
21
-7.38242
0
LINE
8
BLACK
6
CONTINUOUS
10
1.88344
20
-7.38242
11
1.88906
21
-7.37118
0
LINE
8
BLACK
6
CONTINUOUS
10
1.88906
20
-7.37118
11
1.89468
21
-7.36555
0
LINE
8
BLACK
6
CONTINUOUS
10
1.89468
20
-7.36555
11
1.90593
21
-7.35993
0
LINE
8
BLACK
6
CONTINUOUS
10
1.99592
20
-7.47804
11
1.99592
21
-7.3993
0
LINE
8
BLACK
6
CONTINUOUS
10
1.99592
20
-7.41055
11
2.00155
21
-7.40492
0
LINE
8
BLACK
6
CONTINUOUS
10
2.00155
20
-7.40492
11
2.0128
21
-7.3993
0
LINE
8
BLACK
6
CONTINUOUS
10
2.0128
20
-7.3993
11
2.02967
21
-7.3993
0
LINE
8
BLACK
6
CONTINUOUS
10
2.02967
20
-7.3993
11
2.04092
21
-7.40492
0
LINE
8
BLACK
6
CONTINUOUS
10
2.04092
20
-7.40492
11
2.04654
21
-7.41617
0
LINE
8
BLACK
6
CONTINUOUS
10
2.04654
20
-7.41617
11
2.04654
21
-7.47804
0
LINE
8
BLACK
6
CONTINUOUS
10
2.04654
20
-7.41617
11
2.05217
21
-7.40492
0
LINE
8
BLACK
6
CONTINUOUS
10
2.05217
20
-7.40492
11
2.06341
21
-7.3993
0
LINE
8
BLACK
6
CONTINUOUS
10
2.06341
20
-7.3993
11
2.08029
21
-7.3993
0
LINE
8
BLACK
6
CONTINUOUS
10
2.08029
20
-7.3993
11
2.09154
21
-7.40492
0
LINE
8
BLACK
6
CONTINUOUS
10
2.09154
20
-7.40492
11
2.09716
21
-7.41617
0
LINE
8
BLACK
6
CONTINUOUS
10
2.09716
20
-7.41617
11
2.09716
21
-7.47804
0
LINE
8
BLACK
6
CONTINUOUS
10
2.1534
20
-7.47804
11
2.1534
21
-7.3993
0
LINE
8
BLACK
6
CONTINUOUS
10
2.1534
20
-7.41055
11
2.15903
21
-7.40492
0
LINE
8
BLACK
6
CONTINUOUS
10
2.15903
20
-7.40492
11
2.17028
21
-7.3993
0
LINE
8
BLACK
6
CONTINUOUS
10
2.17028
20
-7.3993
11
2.18715
21
-7.3993
0
LINE
8
BLACK
6
CONTINUOUS
10
2.18715
20
-7.3993
11
2.1984
21
-7.40492
0
LINE
8
BLACK
6
CONTINUOUS
10
2.1984
20
-7.40492
11
2.20402
21
-7.41617
0
LINE
8
BLACK
6
CONTINUOUS
10
2.20402
20
-7.41617
11
2.20402
21
-7.47804
0
LINE
8
BLACK
6
CONTINUOUS
10
2.20402
20
-7.41617
11
2.20965
21
-7.40492
0
LINE
8
BLACK
6
CONTINUOUS
10
2.20965
20
-7.40492
11
2.22089
21
-7.3993
0
LINE
8
BLACK
6
CONTINUOUS
10
2.22089
20
-7.3993
11
2.23777
21
-7.3993
0
LINE
8
BLACK
6
CONTINUOUS
10
2.23777
20
-7.3993
11
2.24902
21
-7.40492
0
LINE
8
BLACK
6
CONTINUOUS
10
2.24902
20
-7.40492
11
2.25464
21
-7.41617
0
LINE
8
BLACK
6
CONTINUOUS
10
2.25464
20
-7.41617
11
2.25464
21
-7.47804
0
LINE
8
BLACK
6
CONTINUOUS
10
2.48524
20
-7.3543
11
2.384
21
-7.50616
0
LINE
8
BLACK
6
CONTINUOUS
10
2.63709
20
-7.35993
11
2.64834
21
-7.35993
0
LINE
8
BLACK
6
CONTINUOUS
10
2.64834
20
-7.35993
11
2.65959
21
-7.36555
0
LINE
8
BLACK
6
CONTINUOUS
10
2.65959
20
-7.36555
11
2.66521
21
-7.37118
0
LINE
8
BLACK
6
CONTINUOUS
10
2.66521
20
-7.37118
11
2.67084
21
-7.38242
0
LINE
8
BLACK
6
CONTINUOUS
10
2.67084
20
-7.38242
11
2.67646
21
-7.40492
0
LINE
8
BLACK
6
CONTINUOUS
10
2.67646
20
-7.40492
11
2.67646
21
-7.43304
0
LINE
8
BLACK
6
CONTINUOUS
10
2.67646
20
-7.43304
11
2.67084
21
-7.45554
0
LINE
8
BLACK
6
CONTINUOUS
10
2.67084
20
-7.45554
11
2.66521
21
-7.46679
0
LINE
8
BLACK
6
CONTINUOUS
10
2.66521
20
-7.46679
11
2.65959
21
-7.47241
0
LINE
8
BLACK
6
CONTINUOUS
10
2.65959
20
-7.47241
11
2.64834
21
-7.47804
0
LINE
8
BLACK
6
CONTINUOUS
10
2.64834
20
-7.47804
11
2.63709
21
-7.47804
0
LINE
8
BLACK
6
CONTINUOUS
10
2.63709
20
-7.47804
11
2.62584
21
-7.47241
0
LINE
8
BLACK
6
CONTINUOUS
10
2.62584
20
-7.47241
11
2.62022
21
-7.46679
0
LINE
8
BLACK
6
CONTINUOUS
10
2.62022
20
-7.46679
11
2.6146
21
-7.45554
0
LINE
8
BLACK
6
CONTINUOUS
10
2.6146
20
-7.45554
11
2.60897
21
-7.43304
0
LINE
8
BLACK
6
CONTINUOUS
10
2.60897
20
-7.43304
11
2.60897
21
-7.40492
0
LINE
8
BLACK
6
CONTINUOUS
10
2.60897
20
-7.40492
11
2.6146
21
-7.38242
0
LINE
8
BLACK
6
CONTINUOUS
10
2.6146
20
-7.38242
11
2.62022
21
-7.37118
0
LINE
8
BLACK
6
CONTINUOUS
10
2.62022
20
-7.37118
11
2.62584
21
-7.36555
0
LINE
8
BLACK
6
CONTINUOUS
10
2.62584
20
-7.36555
11
2.63709
21
-7.35993
0
LINE
8
BLACK
6
CONTINUOUS
10
2.72708
20
-7.46679
11
2.73271
21
-7.47241
0
LINE
8
BLACK
6
CONTINUOUS
10
2.73271
20
-7.47241
11
2.72708
21
-7.47804
0
LINE
8
BLACK
6
CONTINUOUS
10
2.72708
20
-7.47804
11
2.72146
21
-7.47241
0
LINE
8
BLACK
6
CONTINUOUS
10
2.72146
20
-7.47241
11
2.72708
21
-7.46679
0
LINE
8
BLACK
6
CONTINUOUS
10
2.72708
20
-7.46679
11
2.72708
21
-7.47804
0
LINE
8
BLACK
6
CONTINUOUS
10
2.80582
20
-7.35993
11
2.81707
21
-7.35993
0
LINE
8
BLACK
6
CONTINUOUS
10
2.81707
20
-7.35993
11
2.82832
21
-7.36555
0
LINE
8
BLACK
6
CONTINUOUS
10
2.82832
20
-7.36555
11
2.83394
21
-7.37118
0
LINE
8
BLACK
6
CONTINUOUS
10
2.83394
20
-7.37118
11
2.83957
21
-7.38242
0
LINE
8
BLACK
6
CONTINUOUS
10
2.83957
20
-7.38242
11
2.84519
21
-7.40492
0
LINE
8
BLACK
6
CONTINUOUS
10
2.84519
20
-7.40492
11
2.84519
21
-7.43304
0
LINE
8
BLACK
6
CONTINUOUS
10
2.84519
20
-7.43304
11
2.83957
21
-7.45554
0
LINE
8
BLACK
6
CONTINUOUS
10
2.83957
20
-7.45554
11
2.83394
21
-7.46679
0
LINE
8
BLACK
6
CONTINUOUS
10
2.83394
20
-7.46679
11
2.82832
21
-7.47241
0
LINE
8
BLACK
6
CONTINUOUS
10
2.82832
20
-7.47241
11
2.81707
21
-7.47804
0
LINE
8
BLACK
6
CONTINUOUS
10
2.81707
20
-7.47804
11
2.80582
21
-7.47804
0
LINE
8
BLACK
6
CONTINUOUS
10
2.80582
20
-7.47804
11
2.79457
21
-7.47241
0
LINE
8
BLACK
6
CONTINUOUS
10
2.79457
20
-7.47241
11
2.78895
21
-7.46679
0
LINE
8
BLACK
6
CONTINUOUS
10
2.78895
20
-7.46679
11
2.78332
21
-7.45554
0
LINE
8
BLACK
6
CONTINUOUS
10
2.78332
20
-7.45554
11
2.7777
21
-7.43304
0
LINE
8
BLACK
6
CONTINUOUS
10
2.7777
20
-7.43304
11
2.7777
21
-7.40492
0
LINE
8
BLACK
6
CONTINUOUS
10
2.7777
20
-7.40492
11
2.78332
21
-7.38242
0
LINE
8
BLACK
6
CONTINUOUS
10
2.78332
20
-7.38242
11
2.78895
21
-7.37118
0
LINE
8
BLACK
6
CONTINUOUS
10
2.78895
20
-7.37118
11
2.79457
21
-7.36555
0
LINE
8
BLACK
6
CONTINUOUS
10
2.79457
20
-7.36555
11
2.80582
21
-7.35993
0
LINE
8
BLACK
6
CONTINUOUS
10
2.88456
20
-7.35993
11
2.95768
21
-7.35993
0
LINE
8
BLACK
6
CONTINUOUS
10
2.95768
20
-7.35993
11
2.91831
21
-7.40492
0
LINE
8
BLACK
6
CONTINUOUS
10
2.91831
20
-7.40492
11
2.93518
21
-7.40492
0
LINE
8
BLACK
6
CONTINUOUS
10
2.93518
20
-7.40492
11
2.94643
21
-7.41055
0
LINE
8
BLACK
6
CONTINUOUS
10
2.94643
20
-7.41055
11
2.95205
21
-7.41617
0
LINE
8
BLACK
6
CONTINUOUS
10
2.95205
20
-7.41617
11
2.95768
21
-7.42742
0
LINE
8
BLACK
6
CONTINUOUS
10
2.95768
20
-7.42742
11
2.95768
21
-7.45554
0
LINE
8
BLACK
6
CONTINUOUS
10
2.95768
20
-7.45554
11
2.95205
21
-7.46679
0
LINE
8
BLACK
6
CONTINUOUS
10
2.95205
20
-7.46679
11
2.94643
21
-7.47241
0
LINE
8
BLACK
6
CONTINUOUS
10
2.94643
20
-7.47241
11
2.93518
21
-7.47804
0
LINE
8
BLACK
6
CONTINUOUS
10
2.93518
20
-7.47804
11
2.90143
21
-7.47804
0
LINE
8
BLACK
6
CONTINUOUS
10
2.90143
20
-7.47804
11
2.89019
21
-7.47241
0
LINE
8
BLACK
6
CONTINUOUS
10
2.89019
20
-7.47241
11
2.88456
21
-7.46679
0
LINE
8
BLACK
6
CONTINUOUS
10
3.01392
20
-7.47804
11
3.03642
21
-7.47804
0
LINE
8
BLACK
6
CONTINUOUS
10
3.03642
20
-7.47804
11
3.04767
21
-7.47241
0
LINE
8
BLACK
6
CONTINUOUS
10
3.04767
20
-7.47241
11
3.05329
21
-7.46679
0
LINE
8
BLACK
6
CONTINUOUS
10
3.05329
20
-7.46679
11
3.06454
21
-7.44992
0
LINE
8
BLACK
6
CONTINUOUS
10
3.06454
20
-7.44992
11
3.07016
21
-7.42742
0
LINE
8
BLACK
6
CONTINUOUS
10
3.07016
20
-7.42742
11
3.07016
21
-7.38242
0
LINE
8
BLACK
6
CONTINUOUS
10
3.07016
20
-7.38242
11
3.06454
21
-7.37118
0
LINE
8
BLACK
6
CONTINUOUS
10
3.06454
20
-7.37118
11
3.05891
21
-7.36555
0
LINE
8
BLACK
6
CONTINUOUS
10
3.05891
20
-7.36555
11
3.04767
21
-7.35993
0
LINE
8
BLACK
6
CONTINUOUS
10
3.04767
20
-7.35993
11
3.02517
21
-7.35993
0
LINE
8
BLACK
6
CONTINUOUS
10
3.02517
20
-7.35993
11
3.01392
21
-7.36555
0
LINE
8
BLACK
6
CONTINUOUS
10
3.01392
20
-7.36555
11
3.0083
21
-7.37118
0
LINE
8
BLACK
6
CONTINUOUS
10
3.0083
20
-7.37118
11
3.00267
21
-7.38242
0
LINE
8
BLACK
6
CONTINUOUS
10
3.00267
20
-7.38242
11
3.00267
21
-7.41055
0
LINE
8
BLACK
6
CONTINUOUS
10
3.00267
20
-7.41055
11
3.0083
21
-7.42179
0
LINE
8
BLACK
6
CONTINUOUS
10
3.0083
20
-7.42179
11
3.01392
21
-7.42742
0
LINE
8
BLACK
6
CONTINUOUS
10
3.01392
20
-7.42742
11
3.02517
21
-7.43304
0
LINE
8
BLACK
6
CONTINUOUS
10
3.02517
20
-7.43304
11
3.04767
21
-7.43304
0
LINE
8
BLACK
6
CONTINUOUS
10
3.04767
20
-7.43304
11
3.05891
21
-7.42742
0
LINE
8
BLACK
6
CONTINUOUS
10
3.05891
20
-7.42742
11
3.06454
21
-7.42179
0
LINE
8
BLACK
6
CONTINUOUS
10
3.06454
20
-7.42179
11
3.07016
21
-7.41055
0
LINE
8
BLACK
6
CONTINUOUS
10
3.1714
20
-7.3993
11
3.1714
21
-7.47804
0
LINE
8
BLACK
6
CONTINUOUS
10
3.14328
20
-7.3543
11
3.11516
21
-7.43867
0
LINE
8
BLACK
6
CONTINUOUS
10
3.11516
20
-7.43867
11
3.18827
21
-7.43867
0
LINE
8
BLACK
6
CONTINUOUS
10
3.22764
20
-7.35993
11
3.22764
21
-7.38242
0
LINE
8
BLACK
6
CONTINUOUS
10
3.27264
20
-7.35993
11
3.27264
21
-7.38242
0
LINE
8
BLACK
6
CONTINUOUS
10
3.44699
20
-7.52303
11
3.44137
21
-7.51741
0
LINE
8
BLACK
6
CONTINUOUS
10
3.44137
20
-7.51741
11
3.43012
21
-7.50053
0
LINE
8
BLACK
6
CONTINUOUS
10
3.43012
20
-7.50053
11
3.42449
21
-7.48929
0
LINE
8
BLACK
6
CONTINUOUS
10
3.42449
20
-7.48929
11
3.41887
21
-7.47241
0
LINE
8
BLACK
6
CONTINUOUS
10
3.41887
20
-7.47241
11
3.41325
21
-7.44429
0
LINE
8
BLACK
6
CONTINUOUS
10
3.41325
20
-7.44429
11
3.41325
21
-7.42179
0
LINE
8
BLACK
6
CONTINUOUS
10
3.41325
20
-7.42179
11
3.41887
21
-7.39367
0
LINE
8
BLACK
6
CONTINUOUS
10
3.41887
20
-7.39367
11
3.42449
21
-7.3768
0
LINE
8
BLACK
6
CONTINUOUS
10
3.42449
20
-7.3768
11
3.43012
21
-7.36555
0
LINE
8
BLACK
6
CONTINUOUS
10
3.43012
20
-7.36555
11
3.44137
21
-7.34868
0
LINE
8
BLACK
6
CONTINUOUS
10
3.44137
20
-7.34868
11
3.44699
21
-7.34305
0
LINE
8
BLACK
6
CONTINUOUS
10
3.55385
20
-7.47804
11
3.48636
21
-7.47804
0
LINE
8
BLACK
6
CONTINUOUS
10
3.52011
20
-7.47804
11
3.52011
21
-7.35993
0
LINE
8
BLACK
6
CONTINUOUS
10
3.52011
20
-7.35993
11
3.50886
21
-7.3768
0
LINE
8
BLACK
6
CONTINUOUS
10
3.50886
20
-7.3768
11
3.49761
21
-7.38805
0
LINE
8
BLACK
6
CONTINUOUS
10
3.49761
20
-7.38805
11
3.48636
21
-7.39367
0
LINE
8
BLACK
6
CONTINUOUS
10
3.62697
20
-7.35993
11
3.63822
21
-7.35993
0
LINE
8
BLACK
6
CONTINUOUS
10
3.63822
20
-7.35993
11
3.64947
21
-7.36555
0
LINE
8
BLACK
6
CONTINUOUS
10
3.64947
20
-7.36555
11
3.65509
21
-7.37118
0
LINE
8
BLACK
6
CONTINUOUS
10
3.65509
20
-7.37118
11
3.66071
21
-7.38242
0
LINE
8
BLACK
6
CONTINUOUS
10
3.66071
20
-7.38242
11
3.66634
21
-7.40492
0
LINE
8
BLACK
6
CONTINUOUS
10
3.66634
20
-7.40492
11
3.66634
21
-7.43304
0
LINE
8
BLACK
6
CONTINUOUS
10
3.66634
20
-7.43304
11
3.66071
21
-7.45554
0
LINE
8
BLACK
6
CONTINUOUS
10
3.66071
20
-7.45554
11
3.65509
21
-7.46679
0
LINE
8
BLACK
6
CONTINUOUS
10
3.65509
20
-7.46679
11
3.64947
21
-7.47241
0
LINE
8
BLACK
6
CONTINUOUS
10
3.64947
20
-7.47241
11
3.63822
21
-7.47804
0
LINE
8
BLACK
6
CONTINUOUS
10
3.63822
20
-7.47804
11
3.62697
21
-7.47804
0
LINE
8
BLACK
6
CONTINUOUS
10
3.62697
20
-7.47804
11
3.61572
21
-7.47241
0
LINE
8
BLACK
6
CONTINUOUS
10
3.61572
20
-7.47241
11
3.6101
21
-7.46679
0
LINE
8
BLACK
6
CONTINUOUS
10
3.6101
20
-7.46679
11
3.60447
21
-7.45554
0
LINE
8
BLACK
6
CONTINUOUS
10
3.60447
20
-7.45554
11
3.59885
21
-7.43304
0
LINE
8
BLACK
6
CONTINUOUS
10
3.59885
20
-7.43304
11
3.59885
21
-7.40492
0
LINE
8
BLACK
6
CONTINUOUS
10
3.59885
20
-7.40492
11
3.60447
21
-7.38242
0
LINE
8
BLACK
6
CONTINUOUS
10
3.60447
20
-7.38242
11
3.6101
21
-7.37118
0
LINE
8
BLACK
6
CONTINUOUS
10
3.6101
20
-7.37118
11
3.61572
21
-7.36555
0
LINE
8
BLACK
6
CONTINUOUS
10
3.61572
20
-7.36555
11
3.62697
21
-7.35993
0
LINE
8
BLACK
6
CONTINUOUS
10
3.77882
20
-7.47804
11
3.71133
21
-7.47804
0
LINE
8
BLACK
6
CONTINUOUS
10
3.74508
20
-7.47804
11
3.74508
21
-7.35993
0
LINE
8
BLACK
6
CONTINUOUS
10
3.74508
20
-7.35993
11
3.73383
21
-7.3768
0
LINE
8
BLACK
6
CONTINUOUS
10
3.73383
20
-7.3768
11
3.72258
21
-7.38805
0
LINE
8
BLACK
6
CONTINUOUS
10
3.72258
20
-7.38805
11
3.71133
21
-7.39367
0
LINE
8
BLACK
6
CONTINUOUS
10
3.91943
20
-7.47804
11
3.91943
21
-7.35993
0
LINE
8
BLACK
6
CONTINUOUS
10
3.97005
20
-7.47804
11
3.97005
21
-7.41617
0
LINE
8
BLACK
6
CONTINUOUS
10
3.97005
20
-7.41617
11
3.96443
21
-7.40492
0
LINE
8
BLACK
6
CONTINUOUS
10
3.96443
20
-7.40492
11
3.95318
21
-7.3993
0
LINE
8
BLACK
6
CONTINUOUS
10
3.95318
20
-7.3993
11
3.9363
21
-7.3993
0
LINE
8
BLACK
6
CONTINUOUS
10
3.9363
20
-7.3993
11
3.92506
21
-7.40492
0
LINE
8
BLACK
6
CONTINUOUS
10
3.92506
20
-7.40492
11
3.91943
21
-7.41055
0
LINE
8
BLACK
6
CONTINUOUS
10
4.04317
20
-7.47804
11
4.03192
21
-7.47241
0
LINE
8
BLACK
6
CONTINUOUS
10
4.03192
20
-7.47241
11
4.02629
21
-7.46679
0
LINE
8
BLACK
6
CONTINUOUS
10
4.02629
20
-7.46679
11
4.02067
21
-7.45554
0
LINE
8
BLACK
6
CONTINUOUS
10
4.02067
20
-7.45554
11
4.02067
21
-7.42179
0
LINE
8
BLACK
6
CONTINUOUS
10
4.02067
20
-7.42179
11
4.02629
21
-7.41055
0
LINE
8
BLACK
6
CONTINUOUS
10
4.02629
20
-7.41055
11
4.03192
21
-7.40492
0
LINE
8
BLACK
6
CONTINUOUS
10
4.03192
20
-7.40492
11
4.04317
21
-7.3993
0
LINE
8
BLACK
6
CONTINUOUS
10
4.04317
20
-7.3993
11
4.06004
21
-7.3993
0
LINE
8
BLACK
6
CONTINUOUS
10
4.06004
20
-7.3993
11
4.07129
21
-7.40492
0
LINE
8
BLACK
6
CONTINUOUS
10
4.07129
20
-7.40492
11
4.07691
21
-7.41055
0
LINE
8
BLACK
6
CONTINUOUS
10
4.07691
20
-7.41055
11
4.08254
21
-7.42179
0
LINE
8
BLACK
6
CONTINUOUS
10
4.08254
20
-7.42179
11
4.08254
21
-7.45554
0
LINE
8
BLACK
6
CONTINUOUS
10
4.08254
20
-7.45554
11
4.07691
21
-7.46679
0
LINE
8
BLACK
6
CONTINUOUS
10
4.07691
20
-7.46679
11
4.07129
21
-7.47241
0
LINE
8
BLACK
6
CONTINUOUS
10
4.07129
20
-7.47241
11
4.06004
21
-7.47804
0
LINE
8
BLACK
6
CONTINUOUS
10
4.06004
20
-7.47804
11
4.04317
21
-7.47804
0
LINE
8
BLACK
6
CONTINUOUS
10
4.15003
20
-7.47804
11
4.13878
21
-7.47241
0
LINE
8
BLACK
6
CONTINUOUS
10
4.13878
20
-7.47241
11
4.13316
21
-7.46116
0
LINE
8
BLACK
6
CONTINUOUS
10
4.13316
20
-7.46116
11
4.13316
21
-7.35993
0
LINE
8
BLACK
6
CONTINUOUS
10
4.24002
20
-7.47241
11
4.22877
21
-7.47804
0
LINE
8
BLACK
6
CONTINUOUS
10
4.22877
20
-7.47804
11
4.20627
21
-7.47804
0
LINE
8
BLACK
6
CONTINUOUS
10
4.20627
20
-7.47804
11
4.19502
21
-7.47241
0
LINE
8
BLACK
6
CONTINUOUS
10
4.19502
20
-7.47241
11
4.1894
21
-7.46116
0
LINE
8
BLACK
6
CONTINUOUS
10
4.1894
20
-7.46116
11
4.1894
21
-7.41617
0
LINE
8
BLACK
6
CONTINUOUS
10
4.1894
20
-7.41617
11
4.19502
21
-7.40492
0
LINE
8
BLACK
6
CONTINUOUS
10
4.19502
20
-7.40492
11
4.20627
21
-7.3993
0
LINE
8
BLACK
6
CONTINUOUS
10
4.20627
20
-7.3993
11
4.22877
21
-7.3993
0
LINE
8
BLACK
6
CONTINUOUS
10
4.22877
20
-7.3993
11
4.24002
21
-7.40492
0
LINE
8
BLACK
6
CONTINUOUS
10
4.24002
20
-7.40492
11
4.24564
21
-7.41617
0
LINE
8
BLACK
6
CONTINUOUS
10
4.24564
20
-7.41617
11
4.24564
21
-7.42742
0
LINE
8
BLACK
6
CONTINUOUS
10
4.24564
20
-7.42742
11
4.1894
21
-7.43867
0
LINE
8
BLACK
6
CONTINUOUS
10
4.29064
20
-7.47241
11
4.30188
21
-7.47804
0
LINE
8
BLACK
6
CONTINUOUS
10
4.30188
20
-7.47804
11
4.32438
21
-7.47804
0
LINE
8
BLACK
6
CONTINUOUS
10
4.32438
20
-7.47804
11
4.33563
21
-7.47241
0
LINE
8
BLACK
6
CONTINUOUS
10
4.33563
20
-7.47241
11
4.34125
21
-7.46116
0
LINE
8
BLACK
6
CONTINUOUS
10
4.34125
20
-7.46116
11
4.34125
21
-7.45554
0
LINE
8
BLACK
6
CONTINUOUS
10
4.34125
20
-7.45554
11
4.33563
21
-7.44429
0
LINE
8
BLACK
6
CONTINUOUS
10
4.33563
20
-7.44429
11
4.32438
21
-7.43867
0
LINE
8
BLACK
6
CONTINUOUS
10
4.32438
20
-7.43867
11
4.30751
21
-7.43867
0
LINE
8
BLACK
6
CONTINUOUS
10
4.30751
20
-7.43867
11
4.29626
21
-7.43304
0
LINE
8
BLACK
6
CONTINUOUS
10
4.29626
20
-7.43304
11
4.29064
21
-7.42179
0
LINE
8
BLACK
6
CONTINUOUS
10
4.29064
20
-7.42179
11
4.29064
21
-7.41617
0
LINE
8
BLACK
6
CONTINUOUS
10
4.29064
20
-7.41617
11
4.29626
21
-7.40492
0
LINE
8
BLACK
6
CONTINUOUS
10
4.29626
20
-7.40492
11
4.30751
21
-7.3993
0
LINE
8
BLACK
6
CONTINUOUS
10
4.30751
20
-7.3993
11
4.32438
21
-7.3993
0
LINE
8
BLACK
6
CONTINUOUS
10
4.32438
20
-7.3993
11
4.33563
21
-7.40492
0
LINE
8
BLACK
6
CONTINUOUS
10
4.38062
20
-7.52303
11
4.38625
21
-7.51741
0
LINE
8
BLACK
6
CONTINUOUS
10
4.38625
20
-7.51741
11
4.3975
21
-7.50053
0
LINE
8
BLACK
6
CONTINUOUS
10
4.3975
20
-7.50053
11
4.40312
21
-7.48929
0
LINE
8
BLACK
6
CONTINUOUS
10
4.40312
20
-7.48929
11
4.40875
21
-7.47241
0
LINE
8
BLACK
6
CONTINUOUS
10
4.40875
20
-7.47241
11
4.41437
21
-7.44429
0
LINE
8
BLACK
6
CONTINUOUS
10
4.41437
20
-7.44429
11
4.41437
21
-7.42179
0
LINE
8
BLACK
6
CONTINUOUS
10
4.41437
20
-7.42179
11
4.40875
21
-7.39367
0
LINE
8
BLACK
6
CONTINUOUS
10
4.40875
20
-7.39367
11
4.40312
21
-7.3768
0
LINE
8
BLACK
6
CONTINUOUS
10
4.40312
20
-7.3768
11
4.3975
21
-7.36555
0
LINE
8
BLACK
6
CONTINUOUS
10
4.3975
20
-7.36555
11
4.38625
21
-7.34868
0
LINE
8
BLACK
6
CONTINUOUS
10
4.38625
20
-7.34868
11
4.38062
21
-7.34305
0
LINE
8
BLACK
6
CONTINUOUS
10
1.31398
20
-7.51752
11
1.31398
21
-7.6435
0
LINE
8
BLACK
6
CONTINUOUS
10
1.25098
20
-7.58051
11
1.37697
21
-7.58051
0
LINE
8
BLACK
6
CONTINUOUS
10
1.47849
20
-7.51583
11
1.5516
21
-7.51583
0
LINE
8
BLACK
6
CONTINUOUS
10
1.5516
20
-7.51583
11
1.51223
21
-7.56083
0
LINE
8
BLACK
6
CONTINUOUS
10
1.51223
20
-7.56083
11
1.52911
21
-7.56083
0
LINE
8
BLACK
6
CONTINUOUS
10
1.52911
20
-7.56083
11
1.54035
21
-7.56645
0
LINE
8
BLACK
6
CONTINUOUS
10
1.54035
20
-7.56645
11
1.54598
21
-7.57208
0
LINE
8
BLACK
6
CONTINUOUS
10
1.54598
20
-7.57208
11
1.5516
21
-7.58332
0
LINE
8
BLACK
6
CONTINUOUS
10
1.5516
20
-7.58332
11
1.5516
21
-7.61145
0
LINE
8
BLACK
6
CONTINUOUS
10
1.5516
20
-7.61145
11
1.54598
21
-7.62269
0
LINE
8
BLACK
6
CONTINUOUS
10
1.54598
20
-7.62269
11
1.54035
21
-7.62832
0
LINE
8
BLACK
6
CONTINUOUS
10
1.54035
20
-7.62832
11
1.52911
21
-7.63394
0
LINE
8
BLACK
6
CONTINUOUS
10
1.52911
20
-7.63394
11
1.49536
21
-7.63394
0
LINE
8
BLACK
6
CONTINUOUS
10
1.49536
20
-7.63394
11
1.48411
21
-7.62832
0
LINE
8
BLACK
6
CONTINUOUS
10
1.48411
20
-7.62832
11
1.47849
21
-7.62269
0
LINE
8
BLACK
6
CONTINUOUS
10
1.60222
20
-7.62269
11
1.60785
21
-7.62832
0
LINE
8
BLACK
6
CONTINUOUS
10
1.60785
20
-7.62832
11
1.60222
21
-7.63394
0
LINE
8
BLACK
6
CONTINUOUS
10
1.60222
20
-7.63394
11
1.5966
21
-7.62832
0
LINE
8
BLACK
6
CONTINUOUS
10
1.5966
20
-7.62832
11
1.60222
21
-7.62269
0
LINE
8
BLACK
6
CONTINUOUS
10
1.60222
20
-7.62269
11
1.60222
21
-7.63394
0
LINE
8
BLACK
6
CONTINUOUS
10
1.65284
20
-7.52708
11
1.65846
21
-7.52146
0
LINE
8
BLACK
6
CONTINUOUS
10
1.65846
20
-7.52146
11
1.66971
21
-7.51583
0
LINE
8
BLACK
6
CONTINUOUS
10
1.66971
20
-7.51583
11
1.69783
21
-7.51583
0
LINE
8
BLACK
6
CONTINUOUS
10
1.69783
20
-7.51583
11
1.70908
21
-7.52146
0
LINE
8
BLACK
6
CONTINUOUS
10
1.70908
20
-7.52146
11
1.71471
21
-7.52708
0
LINE
8
BLACK
6
CONTINUOUS
10
1.71471
20
-7.52708
11
1.72033
21
-7.53833
0
LINE
8
BLACK
6
CONTINUOUS
10
1.72033
20
-7.53833
11
1.72033
21
-7.54958
0
LINE
8
BLACK
6
CONTINUOUS
10
1.72033
20
-7.54958
11
1.71471
21
-7.56645
0
LINE
8
BLACK
6
CONTINUOUS
10
1.71471
20
-7.56645
11
1.64722
21
-7.63394
0
LINE
8
BLACK
6
CONTINUOUS
10
1.64722
20
-7.63394
11
1.72033
21
-7.63394
0
LINE
8
BLACK
6
CONTINUOUS
10
1.79345
20
-7.51583
11
1.8047
21
-7.51583
0
LINE
8
BLACK
6
CONTINUOUS
10
1.8047
20
-7.51583
11
1.81594
21
-7.52146
0
LINE
8
BLACK
6
CONTINUOUS
10
1.81594
20
-7.52146
11
1.82157
21
-7.52708
0
LINE
8
BLACK
6
CONTINUOUS
10
1.82157
20
-7.52708
11
1.82719
21
-7.53833
0
LINE
8
BLACK
6
CONTINUOUS
10
1.82719
20
-7.53833
11
1.83282
21
-7.56083
0
LINE
8
BLACK
6
CONTINUOUS
10
1.83282
20
-7.56083
11
1.83282
21
-7.58895
0
LINE
8
BLACK
6
CONTINUOUS
10
1.83282
20
-7.58895
11
1.82719
21
-7.61145
0
LINE
8
BLACK
6
CONTINUOUS
10
1.82719
20
-7.61145
11
1.82157
21
-7.62269
0
LINE
8
BLACK
6
CONTINUOUS
10
1.82157
20
-7.62269
11
1.81594
21
-7.62832
0
LINE
8
BLACK
6
CONTINUOUS
10
1.81594
20
-7.62832
11
1.8047
21
-7.63394
0
LINE
8
BLACK
6
CONTINUOUS
10
1.8047
20
-7.63394
11
1.79345
21
-7.63394
0
LINE
8
BLACK
6
CONTINUOUS
10
1.79345
20
-7.63394
11
1.7822
21
-7.62832
0
LINE
8
BLACK
6
CONTINUOUS
10
1.7822
20
-7.62832
11
1.77657
21
-7.62269
0
LINE
8
BLACK
6
CONTINUOUS
10
1.77657
20
-7.62269
11
1.77095
21
-7.61145
0
LINE
8
BLACK
6
CONTINUOUS
10
1.77095
20
-7.61145
11
1.76533
21
-7.58895
0
LINE
8
BLACK
6
CONTINUOUS
10
1.76533
20
-7.58895
11
1.76533
21
-7.56083
0
LINE
8
BLACK
6
CONTINUOUS
10
1.76533
20
-7.56083
11
1.77095
21
-7.53833
0
LINE
8
BLACK
6
CONTINUOUS
10
1.77095
20
-7.53833
11
1.77657
21
-7.52708
0
LINE
8
BLACK
6
CONTINUOUS
10
1.77657
20
-7.52708
11
1.7822
21
-7.52146
0
LINE
8
BLACK
6
CONTINUOUS
10
1.7822
20
-7.52146
11
1.79345
21
-7.51583
0
LINE
8
BLACK
6
CONTINUOUS
10
1.90593
20
-7.51583
11
1.91718
21
-7.51583
0
LINE
8
BLACK
6
CONTINUOUS
10
1.91718
20
-7.51583
11
1.92843
21
-7.52146
0
LINE
8
BLACK
6
CONTINUOUS
10
1.92843
20
-7.52146
11
1.93406
21
-7.52708
0
LINE
8
BLACK
6
CONTINUOUS
10
1.93406
20
-7.52708
11
1.93968
21
-7.53833
0
LINE
8
BLACK
6
CONTINUOUS
10
1.93968
20
-7.53833
11
1.9453
21
-7.56083
0
LINE
8
BLACK
6
CONTINUOUS
10
1.9453
20
-7.56083
11
1.9453
21
-7.58895
0
LINE
8
BLACK
6
CONTINUOUS
10
1.9453
20
-7.58895
11
1.93968
21
-7.61145
0
LINE
8
BLACK
6
CONTINUOUS
10
1.93968
20
-7.61145
11
1.93406
21
-7.62269
0
LINE
8
BLACK
6
CONTINUOUS
10
1.93406
20
-7.62269
11
1.92843
21
-7.62832
0
LINE
8
BLACK
6
CONTINUOUS
10
1.92843
20
-7.62832
11
1.91718
21
-7.63394
0
LINE
8
BLACK
6
CONTINUOUS
10
1.91718
20
-7.63394
11
1.90593
21
-7.63394
0
LINE
8
BLACK
6
CONTINUOUS
10
1.90593
20
-7.63394
11
1.89468
21
-7.62832
0
LINE
8
BLACK
6
CONTINUOUS
10
1.89468
20
-7.62832
11
1.88906
21
-7.62269
0
LINE
8
BLACK
6
CONTINUOUS
10
1.88906
20
-7.62269
11
1.88344
21
-7.61145
0
LINE
8
BLACK
6
CONTINUOUS
10
1.88344
20
-7.61145
11
1.87781
21
-7.58895
0
LINE
8
BLACK
6
CONTINUOUS
10
1.87781
20
-7.58895
11
1.87781
21
-7.56083
0
LINE
8
BLACK
6
CONTINUOUS
10
1.87781
20
-7.56083
11
1.88344
21
-7.53833
0
LINE
8
BLACK
6
CONTINUOUS
10
1.88344
20
-7.53833
11
1.88906
21
-7.52708
0
LINE
8
BLACK
6
CONTINUOUS
10
1.88906
20
-7.52708
11
1.89468
21
-7.52146
0
LINE
8
BLACK
6
CONTINUOUS
10
1.89468
20
-7.52146
11
1.90593
21
-7.51583
0
LINE
8
BLACK
6
CONTINUOUS
10
1.99592
20
-7.63394
11
1.99592
21
-7.5552
0
LINE
8
BLACK
6
CONTINUOUS
10
1.99592
20
-7.56645
11
2.00155
21
-7.56083
0
LINE
8
BLACK
6
CONTINUOUS
10
2.00155
20
-7.56083
11
2.0128
21
-7.5552
0
LINE
8
BLACK
6
CONTINUOUS
10
2.0128
20
-7.5552
11
2.02967
21
-7.5552
0
LINE
8
BLACK
6
CONTINUOUS
10
2.02967
20
-7.5552
11
2.04092
21
-7.56083
0
LINE
8
BLACK
6
CONTINUOUS
10
2.04092
20
-7.56083
11
2.04654
21
-7.57208
0
LINE
8
BLACK
6
CONTINUOUS
10
2.04654
20
-7.57208
11
2.04654
21
-7.63394
0
LINE
8
BLACK
6
CONTINUOUS
10
2.04654
20
-7.57208
11
2.05217
21
-7.56083
0
LINE
8
BLACK
6
CONTINUOUS
10
2.05217
20
-7.56083
11
2.06341
21
-7.5552
0
LINE
8
BLACK
6
CONTINUOUS
10
2.06341
20
-7.5552
11
2.08029
21
-7.5552
0
LINE
8
BLACK
6
CONTINUOUS
10
2.08029
20
-7.5552
11
2.09154
21
-7.56083
0
LINE
8
BLACK
6
CONTINUOUS
10
2.09154
20
-7.56083
11
2.09716
21
-7.57208
0
LINE
8
BLACK
6
CONTINUOUS
10
2.09716
20
-7.57208
11
2.09716
21
-7.63394
0
LINE
8
BLACK
6
CONTINUOUS
10
2.1534
20
-7.63394
11
2.1534
21
-7.5552
0
LINE
8
BLACK
6
CONTINUOUS
10
2.1534
20
-7.56645
11
2.15903
21
-7.56083
0
LINE
8
BLACK
6
CONTINUOUS
10
2.15903
20
-7.56083
11
2.17028
21
-7.5552
0
LINE
8
BLACK
6
CONTINUOUS
10
2.17028
20
-7.5552
11
2.18715
21
-7.5552
0
LINE
8
BLACK
6
CONTINUOUS
10
2.18715
20
-7.5552
11
2.1984
21
-7.56083
0
LINE
8
BLACK
6
CONTINUOUS
10
2.1984
20
-7.56083
11
2.20402
21
-7.57208
0
LINE
8
BLACK
6
CONTINUOUS
10
2.20402
20
-7.57208
11
2.20402
21
-7.63394
0
LINE
8
BLACK
6
CONTINUOUS
10
2.20402
20
-7.57208
11
2.20965
21
-7.56083
0
LINE
8
BLACK
6
CONTINUOUS
10
2.20965
20
-7.56083
11
2.22089
21
-7.5552
0
LINE
8
BLACK
6
CONTINUOUS
10
2.22089
20
-7.5552
11
2.23777
21
-7.5552
0
LINE
8
BLACK
6
CONTINUOUS
10
2.23777
20
-7.5552
11
2.24902
21
-7.56083
0
LINE
8
BLACK
6
CONTINUOUS
10
2.24902
20
-7.56083
11
2.25464
21
-7.57208
0
LINE
8
BLACK
6
CONTINUOUS
10
2.25464
20
-7.57208
11
2.25464
21
-7.63394
0
LINE
8
BLACK
6
CONTINUOUS
10
2.48524
20
-7.51021
11
2.384
21
-7.66206
0
LINE
8
BLACK
6
CONTINUOUS
10
2.63709
20
-7.51583
11
2.64834
21
-7.51583
0
LINE
8
BLACK
6
CONTINUOUS
10
2.64834
20
-7.51583
11
2.65959
21
-7.52146
0
LINE
8
BLACK
6
CONTINUOUS
10
2.65959
20
-7.52146
11
2.66521
21
-7.52708
0
LINE
8
BLACK
6
CONTINUOUS
10
2.66521
20
-7.52708
11
2.67084
21
-7.53833
0
LINE
8
BLACK
6
CONTINUOUS
10
2.67084
20
-7.53833
11
2.67646
21
-7.56083
0
LINE
8
BLACK
6
CONTINUOUS
10
2.67646
20
-7.56083
11
2.67646
21
-7.58895
0
LINE
8
BLACK
6
CONTINUOUS
10
2.67646
20
-7.58895
11
2.67084
21
-7.61145
0
LINE
8
BLACK
6
CONTINUOUS
10
2.67084
20
-7.61145
11
2.66521
21
-7.62269
0
LINE
8
BLACK
6
CONTINUOUS
10
2.66521
20
-7.62269
11
2.65959
21
-7.62832
0
LINE
8
BLACK
6
CONTINUOUS
10
2.65959
20
-7.62832
11
2.64834
21
-7.63394
0
LINE
8
BLACK
6
CONTINUOUS
10
2.64834
20
-7.63394
11
2.63709
21
-7.63394
0
LINE
8
BLACK
6
CONTINUOUS
10
2.63709
20
-7.63394
11
2.62584
21
-7.62832
0
LINE
8
BLACK
6
CONTINUOUS
10
2.62584
20
-7.62832
11
2.62022
21
-7.62269
0
LINE
8
BLACK
6
CONTINUOUS
10
2.62022
20
-7.62269
11
2.6146
21
-7.61145
0
LINE
8
BLACK
6
CONTINUOUS
10
2.6146
20
-7.61145
11
2.60897
21
-7.58895
0
LINE
8
BLACK
6
CONTINUOUS
10
2.60897
20
-7.58895
11
2.60897
21
-7.56083
0
LINE
8
BLACK
6
CONTINUOUS
10
2.60897
20
-7.56083
11
2.6146
21
-7.53833
0
LINE
8
BLACK
6
CONTINUOUS
10
2.6146
20
-7.53833
11
2.62022
21
-7.52708
0
LINE
8
BLACK
6
CONTINUOUS
10
2.62022
20
-7.52708
11
2.62584
21
-7.52146
0
LINE
8
BLACK
6
CONTINUOUS
10
2.62584
20
-7.52146
11
2.63709
21
-7.51583
0
LINE
8
BLACK
6
CONTINUOUS
10
2.72708
20
-7.62269
11
2.73271
21
-7.62832
0
LINE
8
BLACK
6
CONTINUOUS
10
2.73271
20
-7.62832
11
2.72708
21
-7.63394
0
LINE
8
BLACK
6
CONTINUOUS
10
2.72708
20
-7.63394
11
2.72146
21
-7.62832
0
LINE
8
BLACK
6
CONTINUOUS
10
2.72146
20
-7.62832
11
2.72708
21
-7.62269
0
LINE
8
BLACK
6
CONTINUOUS
10
2.72708
20
-7.62269
11
2.72708
21
-7.63394
0
LINE
8
BLACK
6
CONTINUOUS
10
2.84519
20
-7.63394
11
2.7777
21
-7.63394
0
LINE
8
BLACK
6
CONTINUOUS
10
2.81145
20
-7.63394
11
2.81145
21
-7.51583
0
LINE
8
BLACK
6
CONTINUOUS
10
2.81145
20
-7.51583
11
2.8002
21
-7.53271
0
LINE
8
BLACK
6
CONTINUOUS
10
2.8002
20
-7.53271
11
2.78895
21
-7.54395
0
LINE
8
BLACK
6
CONTINUOUS
10
2.78895
20
-7.54395
11
2.7777
21
-7.54958
0
LINE
8
BLACK
6
CONTINUOUS
10
2.89019
20
-7.52708
11
2.89581
21
-7.52146
0
LINE
8
BLACK
6
CONTINUOUS
10
2.89581
20
-7.52146
11
2.90706
21
-7.51583
0
LINE
8
BLACK
6
CONTINUOUS
10
2.90706
20
-7.51583
11
2.93518
21
-7.51583
0
LINE
8
BLACK
6
CONTINUOUS
10
2.93518
20
-7.51583
11
2.94643
21
-7.52146
0
LINE
8
BLACK
6
CONTINUOUS
10
2.94643
20
-7.52146
11
2.95205
21
-7.52708
0
LINE
8
BLACK
6
CONTINUOUS
10
2.95205
20
-7.52708
11
2.95768
21
-7.53833
0
LINE
8
BLACK
6
CONTINUOUS
10
2.95768
20
-7.53833
11
2.95768
21
-7.54958
0
LINE
8
BLACK
6
CONTINUOUS
10
2.95768
20
-7.54958
11
2.95205
21
-7.56645
0
LINE
8
BLACK
6
CONTINUOUS
10
2.95205
20
-7.56645
11
2.88456
21
-7.63394
0
LINE
8
BLACK
6
CONTINUOUS
10
2.88456
20
-7.63394
11
2.95768
21
-7.63394
0
LINE
8
BLACK
6
CONTINUOUS
10
3.05891
20
-7.51583
11
3.03642
21
-7.51583
0
LINE
8
BLACK
6
CONTINUOUS
10
3.03642
20
-7.51583
11
3.02517
21
-7.52146
0
LINE
8
BLACK
6
CONTINUOUS
10
3.02517
20
-7.52146
11
3.01954
21
-7.52708
0
LINE
8
BLACK
6
CONTINUOUS
10
3.01954
20
-7.52708
11
3.0083
21
-7.54395
0
LINE
8
BLACK
6
CONTINUOUS
10
3.0083
20
-7.54395
11
3.00267
21
-7.56645
0
LINE
8
BLACK
6
CONTINUOUS
10
3.00267
20
-7.56645
11
3.00267
21
-7.61145
0
LINE
8
BLACK
6
CONTINUOUS
10
3.00267
20
-7.61145
11
3.0083
21
-7.62269
0
LINE
8
BLACK
6
CONTINUOUS
10
3.0083
20
-7.62269
11
3.01392
21
-7.62832
0
LINE
8
BLACK
6
CONTINUOUS
10
3.01392
20
-7.62832
11
3.02517
21
-7.63394
0
LINE
8
BLACK
6
CONTINUOUS
10
3.02517
20
-7.63394
11
3.04767
21
-7.63394
0
LINE
8
BLACK
6
CONTINUOUS
10
3.04767
20
-7.63394
11
3.05891
21
-7.62832
0
LINE
8
BLACK
6
CONTINUOUS
10
3.05891
20
-7.62832
11
3.06454
21
-7.62269
0
LINE
8
BLACK
6
CONTINUOUS
10
3.06454
20
-7.62269
11
3.07016
21
-7.61145
0
LINE
8
BLACK
6
CONTINUOUS
10
3.07016
20
-7.61145
11
3.07016
21
-7.58332
0
LINE
8
BLACK
6
CONTINUOUS
10
3.07016
20
-7.58332
11
3.06454
21
-7.57208
0
LINE
8
BLACK
6
CONTINUOUS
10
3.06454
20
-7.57208
11
3.05891
21
-7.56645
0
LINE
8
BLACK
6
CONTINUOUS
10
3.05891
20
-7.56645
11
3.04767
21
-7.56083
0
LINE
8
BLACK
6
CONTINUOUS
10
3.04767
20
-7.56083
11
3.02517
21
-7.56083
0
LINE
8
BLACK
6
CONTINUOUS
10
3.02517
20
-7.56083
11
3.01392
21
-7.56645
0
LINE
8
BLACK
6
CONTINUOUS
10
3.01392
20
-7.56645
11
3.0083
21
-7.57208
0
LINE
8
BLACK
6
CONTINUOUS
10
3.0083
20
-7.57208
11
3.00267
21
-7.58332
0
LINE
8
BLACK
6
CONTINUOUS
10
3.14328
20
-7.51583
11
3.15453
21
-7.51583
0
LINE
8
BLACK
6
CONTINUOUS
10
3.15453
20
-7.51583
11
3.16578
21
-7.52146
0
LINE
8
BLACK
6
CONTINUOUS
10
3.16578
20
-7.52146
11
3.1714
21
-7.52708
0
LINE
8
BLACK
6
CONTINUOUS
10
3.1714
20
-7.52708
11
3.17702
21
-7.53833
0
LINE
8
BLACK
6
CONTINUOUS
10
3.17702
20
-7.53833
11
3.18265
21
-7.56083
0
LINE
8
BLACK
6
CONTINUOUS
10
3.18265
20
-7.56083
11
3.18265
21
-7.58895
0
LINE
8
BLACK
6
CONTINUOUS
10
3.18265
20
-7.58895
11
3.17702
21
-7.61145
0
LINE
8
BLACK
6
CONTINUOUS
10
3.17702
20
-7.61145
11
3.1714
21
-7.62269
0
LINE
8
BLACK
6
CONTINUOUS
10
3.1714
20
-7.62269
11
3.16578
21
-7.62832
0
LINE
8
BLACK
6
CONTINUOUS
10
3.16578
20
-7.62832
11
3.15453
21
-7.63394
0
LINE
8
BLACK
6
CONTINUOUS
10
3.15453
20
-7.63394
11
3.14328
21
-7.63394
0
LINE
8
BLACK
6
CONTINUOUS
10
3.14328
20
-7.63394
11
3.13203
21
-7.62832
0
LINE
8
BLACK
6
CONTINUOUS
10
3.13203
20
-7.62832
11
3.12641
21
-7.62269
0
LINE
8
BLACK
6
CONTINUOUS
10
3.12641
20
-7.62269
11
3.12078
21
-7.61145
0
LINE
8
BLACK
6
CONTINUOUS
10
3.12078
20
-7.61145
11
3.11516
21
-7.58895
0
LINE
8
BLACK
6
CONTINUOUS
10
3.11516
20
-7.58895
11
3.11516
21
-7.56083
0
LINE
8
BLACK
6
CONTINUOUS
10
3.11516
20
-7.56083
11
3.12078
21
-7.53833
0
LINE
8
BLACK
6
CONTINUOUS
10
3.12078
20
-7.53833
11
3.12641
21
-7.52708
0
LINE
8
BLACK
6
CONTINUOUS
10
3.12641
20
-7.52708
11
3.13203
21
-7.52146
0
LINE
8
BLACK
6
CONTINUOUS
10
3.13203
20
-7.52146
11
3.14328
21
-7.51583
0
LINE
8
BLACK
6
CONTINUOUS
10
3.22764
20
-7.51583
11
3.22764
21
-7.53833
0
LINE
8
BLACK
6
CONTINUOUS
10
3.27264
20
-7.51583
11
3.27264
21
-7.53833
0
LINE
8
BLACK
6
CONTINUOUS
10
3.44699
20
-7.67894
11
3.44137
21
-7.67331
0
LINE
8
BLACK
6
CONTINUOUS
10
3.44137
20
-7.67331
11
3.43012
21
-7.65644
0
LINE
8
BLACK
6
CONTINUOUS
10
3.43012
20
-7.65644
11
3.42449
21
-7.64519
0
LINE
8
BLACK
6
CONTINUOUS
10
3.42449
20
-7.64519
11
3.41887
21
-7.62832
0
LINE
8
BLACK
6
CONTINUOUS
10
3.41887
20
-7.62832
11
3.41325
21
-7.6002
0
LINE
8
BLACK
6
CONTINUOUS
10
3.41325
20
-7.6002
11
3.41325
21
-7.5777
0
LINE
8
BLACK
6
CONTINUOUS
10
3.41325
20
-7.5777
11
3.41887
21
-7.54958
0
LINE
8
BLACK
6
CONTINUOUS
10
3.41887
20
-7.54958
11
3.42449
21
-7.53271
0
LINE
8
BLACK
6
CONTINUOUS
10
3.42449
20
-7.53271
11
3.43012
21
-7.52146
0
LINE
8
BLACK
6
CONTINUOUS
10
3.43012
20
-7.52146
11
3.44137
21
-7.50458
0
LINE
8
BLACK
6
CONTINUOUS
10
3.44137
20
-7.50458
11
3.44699
21
-7.49896
0
LINE
8
BLACK
6
CONTINUOUS
10
3.5426
20
-7.5552
11
3.5426
21
-7.63394
0
LINE
8
BLACK
6
CONTINUOUS
10
3.51448
20
-7.51021
11
3.48636
21
-7.59457
0
LINE
8
BLACK
6
CONTINUOUS
10
3.48636
20
-7.59457
11
3.55948
21
-7.59457
0
LINE
8
BLACK
6
CONTINUOUS
10
3.69446
20
-7.63394
11
3.69446
21
-7.51583
0
LINE
8
BLACK
6
CONTINUOUS
10
3.74508
20
-7.63394
11
3.74508
21
-7.57208
0
LINE
8
BLACK
6
CONTINUOUS
10
3.74508
20
-7.57208
11
3.73945
21
-7.56083
0
LINE
8
BLACK
6
CONTINUOUS
10
3.73945
20
-7.56083
11
3.72821
21
-7.5552
0
LINE
8
BLACK
6
CONTINUOUS
10
3.72821
20
-7.5552
11
3.71133
21
-7.5552
0
LINE
8
BLACK
6
CONTINUOUS
10
3.71133
20
-7.5552
11
3.70008
21
-7.56083
0
LINE
8
BLACK
6
CONTINUOUS
10
3.70008
20
-7.56083
11
3.69446
21
-7.56645
0
LINE
8
BLACK
6
CONTINUOUS
10
3.81819
20
-7.63394
11
3.80695
21
-7.62832
0
LINE
8
BLACK
6
CONTINUOUS
10
3.80695
20
-7.62832
11
3.80132
21
-7.62269
0
LINE
8
BLACK
6
CONTINUOUS
10
3.80132
20
-7.62269
11
3.7957
21
-7.61145
0
LINE
8
BLACK
6
CONTINUOUS
10
3.7957
20
-7.61145
11
3.7957
21
-7.5777
0
LINE
8
BLACK
6
CONTINUOUS
10
3.7957
20
-7.5777
11
3.80132
21
-7.56645
0
LINE
8
BLACK
6
CONTINUOUS
10
3.80132
20
-7.56645
11
3.80695
21
-7.56083
0
LINE
8
BLACK
6
CONTINUOUS
10
3.80695
20
-7.56083
11
3.81819
21
-7.5552
0
LINE
8
BLACK
6
CONTINUOUS
10
3.81819
20
-7.5552
11
3.83507
21
-7.5552
0
LINE
8
BLACK
6
CONTINUOUS
10
3.83507
20
-7.5552
11
3.84632
21
-7.56083
0
LINE
8
BLACK
6
CONTINUOUS
10
3.84632
20
-7.56083
11
3.85194
21
-7.56645
0
LINE
8
BLACK
6
CONTINUOUS
10
3.85194
20
-7.56645
11
3.85756
21
-7.5777
0
LINE
8
BLACK
6
CONTINUOUS
10
3.85756
20
-7.5777
11
3.85756
21
-7.61145
0
LINE
8
BLACK
6
CONTINUOUS
10
3.85756
20
-7.61145
11
3.85194
21
-7.62269
0
LINE
8
BLACK
6
CONTINUOUS
10
3.85194
20
-7.62269
11
3.84632
21
-7.62832
0
LINE
8
BLACK
6
CONTINUOUS
10
3.84632
20
-7.62832
11
3.83507
21
-7.63394
0
LINE
8
BLACK
6
CONTINUOUS
10
3.83507
20
-7.63394
11
3.81819
21
-7.63394
0
LINE
8
BLACK
6
CONTINUOUS
10
3.92506
20
-7.63394
11
3.91381
21
-7.62832
0
LINE
8
BLACK
6
CONTINUOUS
10
3.91381
20
-7.62832
11
3.90818
21
-7.61707
0
LINE
8
BLACK
6
CONTINUOUS
10
3.90818
20
-7.61707
11
3.90818
21
-7.51583
0
LINE
8
BLACK
6
CONTINUOUS
10
4.01504
20
-7.62832
11
4.0038
21
-7.63394
0
LINE
8
BLACK
6
CONTINUOUS
10
4.0038
20
-7.63394
11
3.9813
21
-7.63394
0
LINE
8
BLACK
6
CONTINUOUS
10
3.9813
20
-7.63394
11
3.97005
21
-7.62832
0
LINE
8
BLACK
6
CONTINUOUS
10
3.97005
20
-7.62832
11
3.96443
21
-7.61707
0
LINE
8
BLACK
6
CONTINUOUS
10
3.96443
20
-7.61707
11
3.96443
21
-7.57208
0
LINE
8
BLACK
6
CONTINUOUS
10
3.96443
20
-7.57208
11
3.97005
21
-7.56083
0
LINE
8
BLACK
6
CONTINUOUS
10
3.97005
20
-7.56083
11
3.9813
21
-7.5552
0
LINE
8
BLACK
6
CONTINUOUS
10
3.9813
20
-7.5552
11
4.0038
21
-7.5552
0
LINE
8
BLACK
6
CONTINUOUS
10
4.0038
20
-7.5552
11
4.01504
21
-7.56083
0
LINE
8
BLACK
6
CONTINUOUS
10
4.01504
20
-7.56083
11
4.02067
21
-7.57208
0
LINE
8
BLACK
6
CONTINUOUS
10
4.02067
20
-7.57208
11
4.02067
21
-7.58332
0
LINE
8
BLACK
6
CONTINUOUS
10
4.02067
20
-7.58332
11
3.96443
21
-7.59457
0
LINE
8
BLACK
6
CONTINUOUS
10
4.06566
20
-7.62832
11
4.07691
21
-7.63394
0
LINE
8
BLACK
6
CONTINUOUS
10
4.07691
20
-7.63394
11
4.09941
21
-7.63394
0
LINE
8
BLACK
6
CONTINUOUS
10
4.09941
20
-7.63394
11
4.11066
21
-7.62832
0
LINE
8
BLACK
6
CONTINUOUS
10
4.11066
20
-7.62832
11
4.11628
21
-7.61707
0
LINE
8
BLACK
6
CONTINUOUS
10
4.11628
20
-7.61707
11
4.11628
21
-7.61145
0
LINE
8
BLACK
6
CONTINUOUS
10
4.11628
20
-7.61145
11
4.11066
21
-7.6002
0
LINE
8
BLACK
6
CONTINUOUS
10
4.11066
20
-7.6002
11
4.09941
21
-7.59457
0
LINE
8
BLACK
6
CONTINUOUS
10
4.09941
20
-7.59457
11
4.08254
21
-7.59457
0
LINE
8
BLACK
6
CONTINUOUS
10
4.08254
20
-7.59457
11
4.07129
21
-7.58895
0
LINE
8
BLACK
6
CONTINUOUS
10
4.07129
20
-7.58895
11
4.06566
21
-7.5777
0
LINE
8
BLACK
6
CONTINUOUS
10
4.06566
20
-7.5777
11
4.06566
21
-7.57208
0
LINE
8
BLACK
6
CONTINUOUS
10
4.06566
20
-7.57208
11
4.07129
21
-7.56083
0
LINE
8
BLACK
6
CONTINUOUS
10
4.07129
20
-7.56083
11
4.08254
21
-7.5552
0
LINE
8
BLACK
6
CONTINUOUS
10
4.08254
20
-7.5552
11
4.09941
21
-7.5552
0
LINE
8
BLACK
6
CONTINUOUS
10
4.09941
20
-7.5552
11
4.11066
21
-7.56083
0
LINE
8
BLACK
6
CONTINUOUS
10
4.15565
20
-7.67894
11
4.16128
21
-7.67331
0
LINE
8
BLACK
6
CONTINUOUS
10
4.16128
20
-7.67331
11
4.17253
21
-7.65644
0
LINE
8
BLACK
6
CONTINUOUS
10
4.17253
20
-7.65644
11
4.17815
21
-7.64519
0
LINE
8
BLACK
6
CONTINUOUS
10
4.17815
20
-7.64519
11
4.18377
21
-7.62832
0
LINE
8
BLACK
6
CONTINUOUS
10
4.18377
20
-7.62832
11
4.1894
21
-7.6002
0
LINE
8
BLACK
6
CONTINUOUS
10
4.1894
20
-7.6002
11
4.1894
21
-7.5777
0
LINE
8
BLACK
6
CONTINUOUS
10
4.1894
20
-7.5777
11
4.18377
21
-7.54958
0
LINE
8
BLACK
6
CONTINUOUS
10
4.18377
20
-7.54958
11
4.17815
21
-7.53271
0
LINE
8
BLACK
6
CONTINUOUS
10
4.17815
20
-7.53271
11
4.17253
21
-7.52146
0
LINE
8
BLACK
6
CONTINUOUS
10
4.17253
20
-7.52146
11
4.16128
21
-7.50458
0
LINE
8
BLACK
6
CONTINUOUS
10
4.16128
20
-7.50458
11
4.15565
21
-7.49896
  0
ENDSEC
  0
EOF
