%TF.GenerationSoftware,KiCad,Pcbnew,(5.1.10-1-10_14)*%
%TF.CreationDate,2022-01-24T17:11:52+11:00*%
%TF.ProjectId,Octal display,4f637461-6c20-4646-9973-706c61792e6b,rev?*%
%TF.SameCoordinates,Original*%
%TF.FileFunction,Soldermask,Bot*%
%TF.FilePolarity,Negative*%
%FSLAX46Y46*%
G04 Gerber Fmt 4.6, Leading zero omitted, Abs format (unit mm)*
G04 Created by KiCad (PCBNEW (5.1.10-1-10_14)) date 2022-01-24 17:11:52*
%MOMM*%
%LPD*%
G01*
G04 APERTURE LIST*
%ADD10O,1.802000X1.802000*%
%ADD11O,1.702000X2.502000*%
%ADD12C,1.702000*%
%ADD13O,1.702000X1.702000*%
%ADD14O,1.302000X1.302000*%
%ADD15O,1.702000X1.302000*%
%ADD16C,1.602000*%
%ADD17C,0.902000*%
%ADD18C,6.502000*%
%ADD19O,1.626000X2.626000*%
G04 APERTURE END LIST*
D10*
%TO.C,J3*%
X130880000Y-145000000D03*
X133420000Y-145000000D03*
X135960000Y-145000000D03*
G36*
G01*
X137650000Y-144099000D02*
X139350000Y-144099000D01*
G75*
G02*
X139401000Y-144150000I0J-51000D01*
G01*
X139401000Y-145850000D01*
G75*
G02*
X139350000Y-145901000I-51000J0D01*
G01*
X137650000Y-145901000D01*
G75*
G02*
X137599000Y-145850000I0J51000D01*
G01*
X137599000Y-144150000D01*
G75*
G02*
X137650000Y-144099000I51000J0D01*
G01*
G37*
%TD*%
D11*
%TO.C,U2*%
X65000000Y-105000000D03*
X82780000Y-112620000D03*
X67540000Y-105000000D03*
X80240000Y-112620000D03*
X70080000Y-105000000D03*
X77700000Y-112620000D03*
X72620000Y-105000000D03*
X75160000Y-112620000D03*
X75160000Y-105000000D03*
X72620000Y-112620000D03*
X77700000Y-105000000D03*
X70080000Y-112620000D03*
X80240000Y-105000000D03*
X67540000Y-112620000D03*
X82780000Y-105000000D03*
G36*
G01*
X65800000Y-113871000D02*
X64200000Y-113871000D01*
G75*
G02*
X64149000Y-113820000I0J51000D01*
G01*
X64149000Y-111420000D01*
G75*
G02*
X64200000Y-111369000I51000J0D01*
G01*
X65800000Y-111369000D01*
G75*
G02*
X65851000Y-111420000I0J-51000D01*
G01*
X65851000Y-113820000D01*
G75*
G02*
X65800000Y-113871000I-51000J0D01*
G01*
G37*
%TD*%
%TO.C,U4*%
X154000000Y-105000000D03*
X171780000Y-112620000D03*
X156540000Y-105000000D03*
X169240000Y-112620000D03*
X159080000Y-105000000D03*
X166700000Y-112620000D03*
X161620000Y-105000000D03*
X164160000Y-112620000D03*
X164160000Y-105000000D03*
X161620000Y-112620000D03*
X166700000Y-105000000D03*
X159080000Y-112620000D03*
X169240000Y-105000000D03*
X156540000Y-112620000D03*
X171780000Y-105000000D03*
G36*
G01*
X154800000Y-113871000D02*
X153200000Y-113871000D01*
G75*
G02*
X153149000Y-113820000I0J51000D01*
G01*
X153149000Y-111420000D01*
G75*
G02*
X153200000Y-111369000I51000J0D01*
G01*
X154800000Y-111369000D01*
G75*
G02*
X154851000Y-111420000I0J-51000D01*
G01*
X154851000Y-113820000D01*
G75*
G02*
X154800000Y-113871000I-51000J0D01*
G01*
G37*
%TD*%
%TO.C,U3*%
X110000000Y-105000000D03*
X127780000Y-112620000D03*
X112540000Y-105000000D03*
X125240000Y-112620000D03*
X115080000Y-105000000D03*
X122700000Y-112620000D03*
X117620000Y-105000000D03*
X120160000Y-112620000D03*
X120160000Y-105000000D03*
X117620000Y-112620000D03*
X122700000Y-105000000D03*
X115080000Y-112620000D03*
X125240000Y-105000000D03*
X112540000Y-112620000D03*
X127780000Y-105000000D03*
G36*
G01*
X110800000Y-113871000D02*
X109200000Y-113871000D01*
G75*
G02*
X109149000Y-113820000I0J51000D01*
G01*
X109149000Y-111420000D01*
G75*
G02*
X109200000Y-111369000I51000J0D01*
G01*
X110800000Y-111369000D01*
G75*
G02*
X110851000Y-111420000I0J-51000D01*
G01*
X110851000Y-113820000D01*
G75*
G02*
X110800000Y-113871000I-51000J0D01*
G01*
G37*
%TD*%
D10*
%TO.C,J4*%
X72120000Y-145000000D03*
X69580000Y-145000000D03*
X67040000Y-145000000D03*
G36*
G01*
X63650000Y-144099000D02*
X65350000Y-144099000D01*
G75*
G02*
X65401000Y-144150000I0J-51000D01*
G01*
X65401000Y-145850000D01*
G75*
G02*
X65350000Y-145901000I-51000J0D01*
G01*
X63650000Y-145901000D01*
G75*
G02*
X63599000Y-145850000I0J51000D01*
G01*
X63599000Y-144150000D01*
G75*
G02*
X63650000Y-144099000I51000J0D01*
G01*
G37*
%TD*%
D12*
%TO.C,C2*%
X115750000Y-127250000D03*
X115750000Y-132250000D03*
%TD*%
%TO.C,C3*%
X60250000Y-133000000D03*
G36*
G01*
X61050000Y-136351000D02*
X59450000Y-136351000D01*
G75*
G02*
X59399000Y-136300000I0J51000D01*
G01*
X59399000Y-134700000D01*
G75*
G02*
X59450000Y-134649000I51000J0D01*
G01*
X61050000Y-134649000D01*
G75*
G02*
X61101000Y-134700000I0J-51000D01*
G01*
X61101000Y-136300000D01*
G75*
G02*
X61050000Y-136351000I-51000J0D01*
G01*
G37*
%TD*%
D13*
%TO.C,R29*%
X67000000Y-129500000D03*
D12*
X67000000Y-139660000D03*
%TD*%
D13*
%TO.C,R28*%
X71750000Y-129590000D03*
D12*
X71750000Y-139750000D03*
%TD*%
D14*
%TO.C,Q24*%
X82210000Y-140000000D03*
X83480000Y-138730000D03*
D15*
X84750000Y-140000000D03*
%TD*%
D14*
%TO.C,Q23*%
X82210000Y-131750000D03*
X83480000Y-130480000D03*
D15*
X84750000Y-131750000D03*
%TD*%
%TO.C,D1*%
G36*
G01*
X87551000Y-122750000D02*
X87551000Y-124250000D01*
G75*
G02*
X87500000Y-124301000I-51000J0D01*
G01*
X86000000Y-124301000D01*
G75*
G02*
X85949000Y-124250000I0J51000D01*
G01*
X85949000Y-122750000D01*
G75*
G02*
X86000000Y-122699000I51000J0D01*
G01*
X87500000Y-122699000D01*
G75*
G02*
X87551000Y-122750000I0J-51000D01*
G01*
G37*
D16*
X81670000Y-123500000D03*
X84210000Y-123500000D03*
%TD*%
D13*
%TO.C,U6*%
X95000000Y-127000000D03*
X110240000Y-134620000D03*
X97540000Y-127000000D03*
X107700000Y-134620000D03*
X100080000Y-127000000D03*
X105160000Y-134620000D03*
X102620000Y-127000000D03*
X102620000Y-134620000D03*
X105160000Y-127000000D03*
X100080000Y-134620000D03*
X107700000Y-127000000D03*
X97540000Y-134620000D03*
X110240000Y-127000000D03*
G36*
G01*
X95800000Y-135471000D02*
X94200000Y-135471000D01*
G75*
G02*
X94149000Y-135420000I0J51000D01*
G01*
X94149000Y-133820000D01*
G75*
G02*
X94200000Y-133769000I51000J0D01*
G01*
X95800000Y-133769000D01*
G75*
G02*
X95851000Y-133820000I0J-51000D01*
G01*
X95851000Y-135420000D01*
G75*
G02*
X95800000Y-135471000I-51000J0D01*
G01*
G37*
%TD*%
%TO.C,R27*%
X98500000Y-106340000D03*
D12*
X98500000Y-116500000D03*
%TD*%
D13*
%TO.C,R26*%
X95000000Y-140000000D03*
D12*
X105160000Y-140000000D03*
%TD*%
D13*
%TO.C,R25*%
X76500000Y-129590000D03*
D12*
X76500000Y-139750000D03*
%TD*%
D13*
%TO.C,R24*%
X94840000Y-121000000D03*
D12*
X105000000Y-121000000D03*
%TD*%
D13*
%TO.C,R23*%
X119500000Y-135660000D03*
D12*
X119500000Y-125500000D03*
%TD*%
D13*
%TO.C,U5*%
X125500000Y-127000000D03*
X140740000Y-134620000D03*
X128040000Y-127000000D03*
X138200000Y-134620000D03*
X130580000Y-127000000D03*
X135660000Y-134620000D03*
X133120000Y-127000000D03*
X133120000Y-134620000D03*
X135660000Y-127000000D03*
X130580000Y-134620000D03*
X138200000Y-127000000D03*
X128040000Y-134620000D03*
X140740000Y-127000000D03*
G36*
G01*
X126300000Y-135471000D02*
X124700000Y-135471000D01*
G75*
G02*
X124649000Y-135420000I0J51000D01*
G01*
X124649000Y-133820000D01*
G75*
G02*
X124700000Y-133769000I51000J0D01*
G01*
X126300000Y-133769000D01*
G75*
G02*
X126351000Y-133820000I0J-51000D01*
G01*
X126351000Y-135420000D01*
G75*
G02*
X126300000Y-135471000I-51000J0D01*
G01*
G37*
%TD*%
%TO.C,R22*%
X165660000Y-123000000D03*
D12*
X155500000Y-123000000D03*
%TD*%
%TO.C,C1*%
X177000000Y-123000000D03*
X172000000Y-123000000D03*
%TD*%
D17*
%TO.C,H4*%
X56697056Y-143302944D03*
X55000000Y-142600000D03*
X53302944Y-143302944D03*
X52600000Y-145000000D03*
X53302944Y-146697056D03*
X55000000Y-147400000D03*
X56697056Y-146697056D03*
X57400000Y-145000000D03*
D18*
X55000000Y-145000000D03*
%TD*%
D17*
%TO.C,H3*%
X186697056Y-143302944D03*
X185000000Y-142600000D03*
X183302944Y-143302944D03*
X182600000Y-145000000D03*
X183302944Y-146697056D03*
X185000000Y-147400000D03*
X186697056Y-146697056D03*
X187400000Y-145000000D03*
D18*
X185000000Y-145000000D03*
%TD*%
D17*
%TO.C,H2*%
X186697056Y-53302944D03*
X185000000Y-52600000D03*
X183302944Y-53302944D03*
X182600000Y-55000000D03*
X183302944Y-56697056D03*
X185000000Y-57400000D03*
X186697056Y-56697056D03*
X187400000Y-55000000D03*
D18*
X185000000Y-55000000D03*
%TD*%
D17*
%TO.C,H1*%
X56697056Y-53302944D03*
X55000000Y-52600000D03*
X53302944Y-53302944D03*
X52600000Y-55000000D03*
X53302944Y-56697056D03*
X55000000Y-57400000D03*
X56697056Y-56697056D03*
X57400000Y-55000000D03*
D18*
X55000000Y-55000000D03*
%TD*%
D10*
%TO.C,J2*%
X160880000Y-145000000D03*
X163420000Y-145000000D03*
X165960000Y-145000000D03*
G36*
G01*
X169350000Y-145901000D02*
X167650000Y-145901000D01*
G75*
G02*
X167599000Y-145850000I0J51000D01*
G01*
X167599000Y-144150000D01*
G75*
G02*
X167650000Y-144099000I51000J0D01*
G01*
X169350000Y-144099000D01*
G75*
G02*
X169401000Y-144150000I0J-51000D01*
G01*
X169401000Y-145850000D01*
G75*
G02*
X169350000Y-145901000I-51000J0D01*
G01*
G37*
%TD*%
%TO.C,J1*%
X55000000Y-99920000D03*
X55000000Y-102460000D03*
X55000000Y-105000000D03*
X55000000Y-107540000D03*
X55000000Y-110080000D03*
X55000000Y-112620000D03*
X55000000Y-115160000D03*
G36*
G01*
X54099000Y-118550000D02*
X54099000Y-116850000D01*
G75*
G02*
X54150000Y-116799000I51000J0D01*
G01*
X55850000Y-116799000D01*
G75*
G02*
X55901000Y-116850000I0J-51000D01*
G01*
X55901000Y-118550000D01*
G75*
G02*
X55850000Y-118601000I-51000J0D01*
G01*
X54150000Y-118601000D01*
G75*
G02*
X54099000Y-118550000I0J51000D01*
G01*
G37*
%TD*%
%TO.C,AFF2*%
G36*
G01*
X110187000Y-74002000D02*
X110187000Y-71478000D01*
G75*
G02*
X110238000Y-71427000I51000J0D01*
G01*
X111762000Y-71427000D01*
G75*
G02*
X111813000Y-71478000I0J-51000D01*
G01*
X111813000Y-74002000D01*
G75*
G02*
X111762000Y-74053000I-51000J0D01*
G01*
X110238000Y-74053000D01*
G75*
G02*
X110187000Y-74002000I0J51000D01*
G01*
G37*
D19*
X113540000Y-72740000D03*
X116080000Y-72740000D03*
X118620000Y-72740000D03*
X121160000Y-72740000D03*
X121160000Y-57500000D03*
X118620000Y-57500000D03*
X116080000Y-57500000D03*
X113540000Y-57500000D03*
X111000000Y-57500000D03*
%TD*%
D13*
%TO.C,R2*%
X68840000Y-89000000D03*
D12*
X79000000Y-89000000D03*
%TD*%
D11*
%TO.C,U1*%
X156000000Y-127000000D03*
X171240000Y-134620000D03*
X158540000Y-127000000D03*
X168700000Y-134620000D03*
X161080000Y-127000000D03*
X166160000Y-134620000D03*
X163620000Y-127000000D03*
X163620000Y-134620000D03*
X166160000Y-127000000D03*
X161080000Y-134620000D03*
X168700000Y-127000000D03*
X158540000Y-134620000D03*
X171240000Y-127000000D03*
G36*
G01*
X156800000Y-135871000D02*
X155200000Y-135871000D01*
G75*
G02*
X155149000Y-135820000I0J51000D01*
G01*
X155149000Y-133420000D01*
G75*
G02*
X155200000Y-133369000I51000J0D01*
G01*
X156800000Y-133369000D01*
G75*
G02*
X156851000Y-133420000I0J-51000D01*
G01*
X156851000Y-135820000D01*
G75*
G02*
X156800000Y-135871000I-51000J0D01*
G01*
G37*
%TD*%
D13*
%TO.C,R21*%
X151500000Y-91000000D03*
D12*
X141340000Y-91000000D03*
%TD*%
D13*
%TO.C,R20*%
X138000000Y-81000000D03*
D12*
X138000000Y-91160000D03*
%TD*%
D13*
%TO.C,R19*%
X170750000Y-98250000D03*
D12*
X180910000Y-98250000D03*
%TD*%
D13*
%TO.C,R18*%
X166000000Y-94250000D03*
D12*
X176160000Y-94250000D03*
%TD*%
D13*
%TO.C,R17*%
X163250000Y-90250000D03*
D12*
X173410000Y-90250000D03*
%TD*%
D13*
%TO.C,R16*%
X158660000Y-98500000D03*
D12*
X148500000Y-98500000D03*
%TD*%
D13*
%TO.C,R15*%
X155750000Y-95000000D03*
D12*
X145590000Y-95000000D03*
%TD*%
D13*
%TO.C,R14*%
X106250000Y-95750000D03*
D12*
X96090000Y-95750000D03*
%TD*%
D13*
%TO.C,R13*%
X92000000Y-81000000D03*
D12*
X92000000Y-91160000D03*
%TD*%
D13*
%TO.C,R12*%
X133000000Y-81000000D03*
D12*
X133000000Y-91160000D03*
%TD*%
D13*
%TO.C,R11*%
X123000000Y-96000000D03*
D12*
X133160000Y-96000000D03*
%TD*%
D13*
%TO.C,R10*%
X116500000Y-93000000D03*
D12*
X126660000Y-93000000D03*
%TD*%
D13*
%TO.C,R9*%
X114590000Y-89750000D03*
D12*
X124750000Y-89750000D03*
%TD*%
D13*
%TO.C,R8*%
X106250000Y-90750000D03*
D12*
X96090000Y-90750000D03*
%TD*%
D13*
%TO.C,R7*%
X70000000Y-70750000D03*
D12*
X59840000Y-70750000D03*
%TD*%
D13*
%TO.C,R6*%
X70000000Y-67500000D03*
D12*
X59840000Y-67500000D03*
%TD*%
D13*
%TO.C,R5*%
X87000000Y-81000000D03*
D12*
X87000000Y-91160000D03*
%TD*%
D13*
%TO.C,R4*%
X77090000Y-95500000D03*
D12*
X87250000Y-95500000D03*
%TD*%
D13*
%TO.C,R3*%
X72090000Y-92250000D03*
D12*
X82250000Y-92250000D03*
%TD*%
D13*
%TO.C,R1*%
X66000000Y-96000000D03*
D12*
X55840000Y-96000000D03*
%TD*%
%TO.C,Q21*%
G36*
G01*
X148750000Y-86881000D02*
X147250000Y-86881000D01*
G75*
G02*
X147199000Y-86830000I0J51000D01*
G01*
X147199000Y-85330000D01*
G75*
G02*
X147250000Y-85279000I51000J0D01*
G01*
X148750000Y-85279000D01*
G75*
G02*
X148801000Y-85330000I0J-51000D01*
G01*
X148801000Y-86830000D01*
G75*
G02*
X148750000Y-86881000I-51000J0D01*
G01*
G37*
D16*
X148000000Y-81000000D03*
X148000000Y-83540000D03*
%TD*%
%TO.C,Q20*%
G36*
G01*
X143750000Y-86881000D02*
X142250000Y-86881000D01*
G75*
G02*
X142199000Y-86830000I0J51000D01*
G01*
X142199000Y-85330000D01*
G75*
G02*
X142250000Y-85279000I51000J0D01*
G01*
X143750000Y-85279000D01*
G75*
G02*
X143801000Y-85330000I0J-51000D01*
G01*
X143801000Y-86830000D01*
G75*
G02*
X143750000Y-86881000I-51000J0D01*
G01*
G37*
X143000000Y-81000000D03*
X143000000Y-83540000D03*
%TD*%
%TO.C,Q19*%
G36*
G01*
X173750000Y-86881000D02*
X172250000Y-86881000D01*
G75*
G02*
X172199000Y-86830000I0J51000D01*
G01*
X172199000Y-85330000D01*
G75*
G02*
X172250000Y-85279000I51000J0D01*
G01*
X173750000Y-85279000D01*
G75*
G02*
X173801000Y-85330000I0J-51000D01*
G01*
X173801000Y-86830000D01*
G75*
G02*
X173750000Y-86881000I-51000J0D01*
G01*
G37*
X173000000Y-81000000D03*
X173000000Y-83540000D03*
%TD*%
%TO.C,Q18*%
G36*
G01*
X168750000Y-86881000D02*
X167250000Y-86881000D01*
G75*
G02*
X167199000Y-86830000I0J51000D01*
G01*
X167199000Y-85330000D01*
G75*
G02*
X167250000Y-85279000I51000J0D01*
G01*
X168750000Y-85279000D01*
G75*
G02*
X168801000Y-85330000I0J-51000D01*
G01*
X168801000Y-86830000D01*
G75*
G02*
X168750000Y-86881000I-51000J0D01*
G01*
G37*
X168000000Y-81000000D03*
X168000000Y-83540000D03*
%TD*%
%TO.C,Q17*%
G36*
G01*
X163750000Y-86881000D02*
X162250000Y-86881000D01*
G75*
G02*
X162199000Y-86830000I0J51000D01*
G01*
X162199000Y-85330000D01*
G75*
G02*
X162250000Y-85279000I51000J0D01*
G01*
X163750000Y-85279000D01*
G75*
G02*
X163801000Y-85330000I0J-51000D01*
G01*
X163801000Y-86830000D01*
G75*
G02*
X163750000Y-86881000I-51000J0D01*
G01*
G37*
X163000000Y-81000000D03*
X163000000Y-83540000D03*
%TD*%
%TO.C,Q16*%
G36*
G01*
X158750000Y-86881000D02*
X157250000Y-86881000D01*
G75*
G02*
X157199000Y-86830000I0J51000D01*
G01*
X157199000Y-85330000D01*
G75*
G02*
X157250000Y-85279000I51000J0D01*
G01*
X158750000Y-85279000D01*
G75*
G02*
X158801000Y-85330000I0J-51000D01*
G01*
X158801000Y-86830000D01*
G75*
G02*
X158750000Y-86881000I-51000J0D01*
G01*
G37*
X158000000Y-81000000D03*
X158000000Y-83540000D03*
%TD*%
%TO.C,Q15*%
G36*
G01*
X153750000Y-86881000D02*
X152250000Y-86881000D01*
G75*
G02*
X152199000Y-86830000I0J51000D01*
G01*
X152199000Y-85330000D01*
G75*
G02*
X152250000Y-85279000I51000J0D01*
G01*
X153750000Y-85279000D01*
G75*
G02*
X153801000Y-85330000I0J-51000D01*
G01*
X153801000Y-86830000D01*
G75*
G02*
X153750000Y-86881000I-51000J0D01*
G01*
G37*
X153000000Y-81000000D03*
X153000000Y-83540000D03*
%TD*%
%TO.C,Q14*%
G36*
G01*
X102750000Y-86881000D02*
X101250000Y-86881000D01*
G75*
G02*
X101199000Y-86830000I0J51000D01*
G01*
X101199000Y-85330000D01*
G75*
G02*
X101250000Y-85279000I51000J0D01*
G01*
X102750000Y-85279000D01*
G75*
G02*
X102801000Y-85330000I0J-51000D01*
G01*
X102801000Y-86830000D01*
G75*
G02*
X102750000Y-86881000I-51000J0D01*
G01*
G37*
X102000000Y-81000000D03*
X102000000Y-83540000D03*
%TD*%
%TO.C,Q13*%
G36*
G01*
X97750000Y-86881000D02*
X96250000Y-86881000D01*
G75*
G02*
X96199000Y-86830000I0J51000D01*
G01*
X96199000Y-85330000D01*
G75*
G02*
X96250000Y-85279000I51000J0D01*
G01*
X97750000Y-85279000D01*
G75*
G02*
X97801000Y-85330000I0J-51000D01*
G01*
X97801000Y-86830000D01*
G75*
G02*
X97750000Y-86881000I-51000J0D01*
G01*
G37*
X97000000Y-81000000D03*
X97000000Y-83540000D03*
%TD*%
%TO.C,Q12*%
G36*
G01*
X128750000Y-86801000D02*
X127250000Y-86801000D01*
G75*
G02*
X127199000Y-86750000I0J51000D01*
G01*
X127199000Y-85250000D01*
G75*
G02*
X127250000Y-85199000I51000J0D01*
G01*
X128750000Y-85199000D01*
G75*
G02*
X128801000Y-85250000I0J-51000D01*
G01*
X128801000Y-86750000D01*
G75*
G02*
X128750000Y-86801000I-51000J0D01*
G01*
G37*
X128000000Y-80920000D03*
X128000000Y-83460000D03*
%TD*%
%TO.C,Q11*%
G36*
G01*
X122750000Y-86881000D02*
X121250000Y-86881000D01*
G75*
G02*
X121199000Y-86830000I0J51000D01*
G01*
X121199000Y-85330000D01*
G75*
G02*
X121250000Y-85279000I51000J0D01*
G01*
X122750000Y-85279000D01*
G75*
G02*
X122801000Y-85330000I0J-51000D01*
G01*
X122801000Y-86830000D01*
G75*
G02*
X122750000Y-86881000I-51000J0D01*
G01*
G37*
X122000000Y-81000000D03*
X122000000Y-83540000D03*
%TD*%
%TO.C,Q10*%
G36*
G01*
X117750000Y-86881000D02*
X116250000Y-86881000D01*
G75*
G02*
X116199000Y-86830000I0J51000D01*
G01*
X116199000Y-85330000D01*
G75*
G02*
X116250000Y-85279000I51000J0D01*
G01*
X117750000Y-85279000D01*
G75*
G02*
X117801000Y-85330000I0J-51000D01*
G01*
X117801000Y-86830000D01*
G75*
G02*
X117750000Y-86881000I-51000J0D01*
G01*
G37*
X117000000Y-81000000D03*
X117000000Y-83540000D03*
%TD*%
%TO.C,Q9*%
G36*
G01*
X112750000Y-86881000D02*
X111250000Y-86881000D01*
G75*
G02*
X111199000Y-86830000I0J51000D01*
G01*
X111199000Y-85330000D01*
G75*
G02*
X111250000Y-85279000I51000J0D01*
G01*
X112750000Y-85279000D01*
G75*
G02*
X112801000Y-85330000I0J-51000D01*
G01*
X112801000Y-86830000D01*
G75*
G02*
X112750000Y-86881000I-51000J0D01*
G01*
G37*
X112000000Y-81000000D03*
X112000000Y-83540000D03*
%TD*%
%TO.C,Q8*%
G36*
G01*
X107750000Y-86881000D02*
X106250000Y-86881000D01*
G75*
G02*
X106199000Y-86830000I0J51000D01*
G01*
X106199000Y-85330000D01*
G75*
G02*
X106250000Y-85279000I51000J0D01*
G01*
X107750000Y-85279000D01*
G75*
G02*
X107801000Y-85330000I0J-51000D01*
G01*
X107801000Y-86830000D01*
G75*
G02*
X107750000Y-86881000I-51000J0D01*
G01*
G37*
X107000000Y-81000000D03*
X107000000Y-83540000D03*
%TD*%
%TO.C,Q7*%
G36*
G01*
X82250000Y-67801000D02*
X80750000Y-67801000D01*
G75*
G02*
X80699000Y-67750000I0J51000D01*
G01*
X80699000Y-66250000D01*
G75*
G02*
X80750000Y-66199000I51000J0D01*
G01*
X82250000Y-66199000D01*
G75*
G02*
X82301000Y-66250000I0J-51000D01*
G01*
X82301000Y-67750000D01*
G75*
G02*
X82250000Y-67801000I-51000J0D01*
G01*
G37*
X81500000Y-61920000D03*
X81500000Y-64460000D03*
%TD*%
%TO.C,Q6*%
G36*
G01*
X75750000Y-67801000D02*
X74250000Y-67801000D01*
G75*
G02*
X74199000Y-67750000I0J51000D01*
G01*
X74199000Y-66250000D01*
G75*
G02*
X74250000Y-66199000I51000J0D01*
G01*
X75750000Y-66199000D01*
G75*
G02*
X75801000Y-66250000I0J-51000D01*
G01*
X75801000Y-67750000D01*
G75*
G02*
X75750000Y-67801000I-51000J0D01*
G01*
G37*
X75000000Y-61920000D03*
X75000000Y-64460000D03*
%TD*%
%TO.C,Q5*%
G36*
G01*
X82750000Y-86881000D02*
X81250000Y-86881000D01*
G75*
G02*
X81199000Y-86830000I0J51000D01*
G01*
X81199000Y-85330000D01*
G75*
G02*
X81250000Y-85279000I51000J0D01*
G01*
X82750000Y-85279000D01*
G75*
G02*
X82801000Y-85330000I0J-51000D01*
G01*
X82801000Y-86830000D01*
G75*
G02*
X82750000Y-86881000I-51000J0D01*
G01*
G37*
X82000000Y-81000000D03*
X82000000Y-83540000D03*
%TD*%
%TO.C,Q4*%
G36*
G01*
X77750000Y-86881000D02*
X76250000Y-86881000D01*
G75*
G02*
X76199000Y-86830000I0J51000D01*
G01*
X76199000Y-85330000D01*
G75*
G02*
X76250000Y-85279000I51000J0D01*
G01*
X77750000Y-85279000D01*
G75*
G02*
X77801000Y-85330000I0J-51000D01*
G01*
X77801000Y-86830000D01*
G75*
G02*
X77750000Y-86881000I-51000J0D01*
G01*
G37*
X77000000Y-81000000D03*
X77000000Y-83540000D03*
%TD*%
%TO.C,Q3*%
G36*
G01*
X72750000Y-86881000D02*
X71250000Y-86881000D01*
G75*
G02*
X71199000Y-86830000I0J51000D01*
G01*
X71199000Y-85330000D01*
G75*
G02*
X71250000Y-85279000I51000J0D01*
G01*
X72750000Y-85279000D01*
G75*
G02*
X72801000Y-85330000I0J-51000D01*
G01*
X72801000Y-86830000D01*
G75*
G02*
X72750000Y-86881000I-51000J0D01*
G01*
G37*
X72000000Y-81000000D03*
X72000000Y-83540000D03*
%TD*%
%TO.C,Q2*%
G36*
G01*
X67750000Y-86881000D02*
X66250000Y-86881000D01*
G75*
G02*
X66199000Y-86830000I0J51000D01*
G01*
X66199000Y-85330000D01*
G75*
G02*
X66250000Y-85279000I51000J0D01*
G01*
X67750000Y-85279000D01*
G75*
G02*
X67801000Y-85330000I0J-51000D01*
G01*
X67801000Y-86830000D01*
G75*
G02*
X67750000Y-86881000I-51000J0D01*
G01*
G37*
X67000000Y-81000000D03*
X67000000Y-83540000D03*
%TD*%
%TO.C,Q1*%
G36*
G01*
X62750000Y-86881000D02*
X61250000Y-86881000D01*
G75*
G02*
X61199000Y-86830000I0J51000D01*
G01*
X61199000Y-85330000D01*
G75*
G02*
X61250000Y-85279000I51000J0D01*
G01*
X62750000Y-85279000D01*
G75*
G02*
X62801000Y-85330000I0J-51000D01*
G01*
X62801000Y-86830000D01*
G75*
G02*
X62750000Y-86881000I-51000J0D01*
G01*
G37*
X62000000Y-81000000D03*
X62000000Y-83540000D03*
%TD*%
%TO.C,AFF3*%
G36*
G01*
X132187000Y-74002000D02*
X132187000Y-71478000D01*
G75*
G02*
X132238000Y-71427000I51000J0D01*
G01*
X133762000Y-71427000D01*
G75*
G02*
X133813000Y-71478000I0J-51000D01*
G01*
X133813000Y-74002000D01*
G75*
G02*
X133762000Y-74053000I-51000J0D01*
G01*
X132238000Y-74053000D01*
G75*
G02*
X132187000Y-74002000I0J51000D01*
G01*
G37*
D19*
X135540000Y-72740000D03*
X138080000Y-72740000D03*
X140620000Y-72740000D03*
X143160000Y-72740000D03*
X143160000Y-57500000D03*
X140620000Y-57500000D03*
X138080000Y-57500000D03*
X135540000Y-57500000D03*
X133000000Y-57500000D03*
%TD*%
%TO.C,AFF1*%
G36*
G01*
X88187000Y-74002000D02*
X88187000Y-71478000D01*
G75*
G02*
X88238000Y-71427000I51000J0D01*
G01*
X89762000Y-71427000D01*
G75*
G02*
X89813000Y-71478000I0J-51000D01*
G01*
X89813000Y-74002000D01*
G75*
G02*
X89762000Y-74053000I-51000J0D01*
G01*
X88238000Y-74053000D01*
G75*
G02*
X88187000Y-74002000I0J51000D01*
G01*
G37*
X91540000Y-72740000D03*
X94080000Y-72740000D03*
X96620000Y-72740000D03*
X99160000Y-72740000D03*
X99160000Y-57500000D03*
X96620000Y-57500000D03*
X94080000Y-57500000D03*
X91540000Y-57500000D03*
X89000000Y-57500000D03*
%TD*%
M02*
