%TF.GenerationSoftware,KiCad,Pcbnew,(6.0.4-0)*%
%TF.CreationDate,2024-05-14T12:27:25+10:00*%
%TF.ProjectId,Octal display,4f637461-6c20-4646-9973-706c61792e6b,rev?*%
%TF.SameCoordinates,Original*%
%TF.FileFunction,Copper,L2,Bot*%
%TF.FilePolarity,Positive*%
%FSLAX46Y46*%
G04 Gerber Fmt 4.6, Leading zero omitted, Abs format (unit mm)*
G04 Created by KiCad (PCBNEW (6.0.4-0)) date 2024-05-14 12:27:25*
%MOMM*%
%LPD*%
G01*
G04 APERTURE LIST*
%TA.AperFunction,ComponentPad*%
%ADD10R,1.500000X1.500000*%
%TD*%
%TA.AperFunction,ComponentPad*%
%ADD11C,1.500000*%
%TD*%
%TA.AperFunction,ComponentPad*%
%ADD12R,1.524000X2.524000*%
%TD*%
%TA.AperFunction,ComponentPad*%
%ADD13O,1.524000X2.524000*%
%TD*%
%TA.AperFunction,ComponentPad*%
%ADD14R,1.600000X1.600000*%
%TD*%
%TA.AperFunction,ComponentPad*%
%ADD15O,1.600000X1.600000*%
%TD*%
%TA.AperFunction,ComponentPad*%
%ADD16R,1.600000X2.400000*%
%TD*%
%TA.AperFunction,ComponentPad*%
%ADD17O,1.600000X2.400000*%
%TD*%
%TA.AperFunction,ComponentPad*%
%ADD18C,1.600000*%
%TD*%
%TA.AperFunction,ComponentPad*%
%ADD19C,6.400000*%
%TD*%
%TA.AperFunction,ComponentPad*%
%ADD20C,0.800000*%
%TD*%
%TA.AperFunction,ComponentPad*%
%ADD21O,1.600000X1.200000*%
%TD*%
%TA.AperFunction,ComponentPad*%
%ADD22O,1.200000X1.200000*%
%TD*%
%TA.AperFunction,ComponentPad*%
%ADD23R,1.700000X1.700000*%
%TD*%
%TA.AperFunction,ComponentPad*%
%ADD24O,1.700000X1.700000*%
%TD*%
%TA.AperFunction,ViaPad*%
%ADD25C,1.200000*%
%TD*%
%TA.AperFunction,ViaPad*%
%ADD26C,0.800000*%
%TD*%
%TA.AperFunction,Conductor*%
%ADD27C,0.500000*%
%TD*%
%TA.AperFunction,Conductor*%
%ADD28C,1.250000*%
%TD*%
%TA.AperFunction,Conductor*%
%ADD29C,2.000000*%
%TD*%
%TA.AperFunction,Conductor*%
%ADD30C,2.500000*%
%TD*%
G04 APERTURE END LIST*
D10*
%TO.P,Q7,1,C*%
%TO.N,Net-(Q7-Pad1)*%
X82385000Y-65545000D03*
D11*
%TO.P,Q7,2,B*%
%TO.N,Net-(Q7-Pad2)*%
X82385000Y-63005000D03*
%TO.P,Q7,3,E*%
%TO.N,Net-(AFF1-Pad10)*%
X82385000Y-60465000D03*
%TD*%
D10*
%TO.P,Q3,1,C*%
%TO.N,Net-(Q3-Pad1)*%
X71950000Y-85230000D03*
D11*
%TO.P,Q3,2,B*%
%TO.N,Net-(Q3-Pad2)*%
X71950000Y-82690000D03*
%TO.P,Q3,3,E*%
%TO.N,Net-(AFF1-Pad4)*%
X71950000Y-80150000D03*
%TD*%
D10*
%TO.P,Q11,1,C*%
%TO.N,Net-(Q11-Pad1)*%
X122000000Y-85230000D03*
D11*
%TO.P,Q11,2,B*%
%TO.N,Net-(Q11-Pad2)*%
X122000000Y-82690000D03*
%TO.P,Q11,3,E*%
%TO.N,Net-(AFF2-Pad2)*%
X122000000Y-80150000D03*
%TD*%
D10*
%TO.P,Q10,1,C*%
%TO.N,Net-(Q10-Pad1)*%
X117000000Y-85230000D03*
D11*
%TO.P,Q10,2,B*%
%TO.N,Net-(Q10-Pad2)*%
X117000000Y-82690000D03*
%TO.P,Q10,3,E*%
%TO.N,Net-(AFF2-Pad4)*%
X117000000Y-80150000D03*
%TD*%
D10*
%TO.P,Q21,1,C*%
%TO.N,Net-(Q21-Pad1)*%
X148000000Y-85230000D03*
D11*
%TO.P,Q21,2,B*%
%TO.N,Net-(Q21-Pad2)*%
X148000000Y-82690000D03*
%TO.P,Q21,3,E*%
%TO.N,Net-(AFF3-Pad10)*%
X148000000Y-80150000D03*
%TD*%
D10*
%TO.P,Q1,1,C*%
%TO.N,Net-(Q1-Pad1)*%
X62000000Y-85230000D03*
D11*
%TO.P,Q1,2,B*%
%TO.N,Net-(Q1-Pad2)*%
X62000000Y-82690000D03*
%TO.P,Q1,3,E*%
%TO.N,Net-(AFF1-Pad7)*%
X62000000Y-80150000D03*
%TD*%
D10*
%TO.P,Q20,1,C*%
%TO.N,Net-(Q20-Pad1)*%
X143000000Y-85230000D03*
D11*
%TO.P,Q20,2,B*%
%TO.N,Net-(Q20-Pad2)*%
X143000000Y-82690000D03*
%TO.P,Q20,3,E*%
%TO.N,Net-(AFF3-Pad9)*%
X143000000Y-80150000D03*
%TD*%
D10*
%TO.P,Q18,1,C*%
%TO.N,Net-(Q18-Pad1)*%
X168000000Y-85230000D03*
D11*
%TO.P,Q18,2,B*%
%TO.N,Net-(Q18-Pad2)*%
X168000000Y-82690000D03*
%TO.P,Q18,3,E*%
%TO.N,Net-(AFF3-Pad2)*%
X168000000Y-80150000D03*
%TD*%
D10*
%TO.P,Q5,1,C*%
%TO.N,Net-(Q5-Pad1)*%
X82110000Y-85230000D03*
D11*
%TO.P,Q5,2,B*%
%TO.N,Net-(Q5-Pad2)*%
X82110000Y-82690000D03*
%TO.P,Q5,3,E*%
%TO.N,Net-(AFF1-Pad1)*%
X82110000Y-80150000D03*
%TD*%
D10*
%TO.P,Q9,1,C*%
%TO.N,Net-(Q9-Pad1)*%
X112000000Y-85230000D03*
D11*
%TO.P,Q9,2,B*%
%TO.N,Net-(Q9-Pad2)*%
X112000000Y-82690000D03*
%TO.P,Q9,3,E*%
%TO.N,Net-(AFF2-Pad6)*%
X112000000Y-80150000D03*
%TD*%
D10*
%TO.P,Q4,1,C*%
%TO.N,Net-(Q4-Pad1)*%
X77000000Y-85230000D03*
D11*
%TO.P,Q4,2,B*%
%TO.N,Net-(Q4-Pad2)*%
X77000000Y-82690000D03*
%TO.P,Q4,3,E*%
%TO.N,Net-(AFF1-Pad2)*%
X77000000Y-80150000D03*
%TD*%
D10*
%TO.P,Q6,1,C*%
%TO.N,Net-(Q6-Pad1)*%
X75400000Y-66180000D03*
D11*
%TO.P,Q6,2,B*%
%TO.N,Net-(Q6-Pad2)*%
X75400000Y-63640000D03*
%TO.P,Q6,3,E*%
%TO.N,Net-(AFF1-Pad9)*%
X75400000Y-61100000D03*
%TD*%
D10*
%TO.P,Q12,1,C*%
%TO.N,Net-(Q12-Pad1)*%
X127195000Y-85230000D03*
D11*
%TO.P,Q12,2,B*%
%TO.N,Net-(Q12-Pad2)*%
X127195000Y-82690000D03*
%TO.P,Q12,3,E*%
%TO.N,Net-(AFF2-Pad1)*%
X127195000Y-80150000D03*
%TD*%
D10*
%TO.P,Q14,1,C*%
%TO.N,Net-(Q14-Pad1)*%
X102000000Y-85230000D03*
D11*
%TO.P,Q14,2,B*%
%TO.N,Net-(Q14-Pad2)*%
X102000000Y-82690000D03*
%TO.P,Q14,3,E*%
%TO.N,Net-(AFF2-Pad10)*%
X102000000Y-80150000D03*
%TD*%
D10*
%TO.P,Q13,1,C*%
%TO.N,Net-(Q13-Pad1)*%
X97000000Y-85230000D03*
D11*
%TO.P,Q13,2,B*%
%TO.N,Net-(Q13-Pad2)*%
X97000000Y-82690000D03*
%TO.P,Q13,3,E*%
%TO.N,Net-(AFF2-Pad9)*%
X97000000Y-80150000D03*
%TD*%
D10*
%TO.P,Q8,1,C*%
%TO.N,Net-(Q8-Pad1)*%
X107000000Y-85230000D03*
D11*
%TO.P,Q8,2,B*%
%TO.N,Net-(Q8-Pad2)*%
X107000000Y-82690000D03*
%TO.P,Q8,3,E*%
%TO.N,Net-(AFF2-Pad7)*%
X107000000Y-80150000D03*
%TD*%
D10*
%TO.P,Q17,1,C*%
%TO.N,Net-(Q17-Pad1)*%
X163030000Y-85230000D03*
D11*
%TO.P,Q17,2,B*%
%TO.N,Net-(Q17-Pad2)*%
X163030000Y-82690000D03*
%TO.P,Q17,3,E*%
%TO.N,Net-(AFF3-Pad4)*%
X163030000Y-80150000D03*
%TD*%
D10*
%TO.P,Q16,1,C*%
%TO.N,Net-(Q16-Pad1)*%
X158000000Y-85230000D03*
D11*
%TO.P,Q16,2,B*%
%TO.N,Net-(Q16-Pad2)*%
X158000000Y-82690000D03*
%TO.P,Q16,3,E*%
%TO.N,Net-(AFF3-Pad6)*%
X158000000Y-80150000D03*
%TD*%
D10*
%TO.P,Q15,1,C*%
%TO.N,Net-(Q15-Pad1)*%
X153000000Y-85230000D03*
D11*
%TO.P,Q15,2,B*%
%TO.N,Net-(Q15-Pad2)*%
X153000000Y-82690000D03*
%TO.P,Q15,3,E*%
%TO.N,Net-(AFF3-Pad7)*%
X153000000Y-80150000D03*
%TD*%
D10*
%TO.P,Q2,1,C*%
%TO.N,Net-(Q2-Pad1)*%
X67000000Y-85230000D03*
D11*
%TO.P,Q2,2,B*%
%TO.N,Net-(Q2-Pad2)*%
X67000000Y-82690000D03*
%TO.P,Q2,3,E*%
%TO.N,Net-(AFF1-Pad6)*%
X67000000Y-80150000D03*
%TD*%
D10*
%TO.P,Q19,1,C*%
%TO.N,Net-(Q19-Pad1)*%
X173000000Y-85230000D03*
D11*
%TO.P,Q19,2,B*%
%TO.N,Net-(Q19-Pad2)*%
X173000000Y-82690000D03*
%TO.P,Q19,3,E*%
%TO.N,Net-(AFF3-Pad1)*%
X173000000Y-80150000D03*
%TD*%
D12*
%TO.P,AFF1,1,e*%
%TO.N,Net-(AFF1-Pad1)*%
X89000000Y-72740000D03*
D13*
%TO.P,AFF1,2,d*%
%TO.N,Net-(AFF1-Pad2)*%
X91540000Y-72740000D03*
%TO.P,AFF1,3,C.K.*%
%TO.N,GND*%
X94080000Y-72740000D03*
%TO.P,AFF1,4,c*%
%TO.N,Net-(AFF1-Pad4)*%
X96620000Y-72740000D03*
%TO.P,AFF1,5,DP*%
%TO.N,unconnected-(AFF1-Pad5)*%
X99160000Y-72740000D03*
%TO.P,AFF1,6,b*%
%TO.N,Net-(AFF1-Pad6)*%
X99160000Y-57500000D03*
%TO.P,AFF1,7,a*%
%TO.N,Net-(AFF1-Pad7)*%
X96620000Y-57500000D03*
%TO.P,AFF1,8,C.K.*%
%TO.N,GND*%
X94080000Y-57500000D03*
%TO.P,AFF1,9,f*%
%TO.N,Net-(AFF1-Pad9)*%
X91540000Y-57500000D03*
%TO.P,AFF1,10,g*%
%TO.N,Net-(AFF1-Pad10)*%
X89000000Y-57500000D03*
%TD*%
D12*
%TO.P,AFF2,1,e*%
%TO.N,Net-(AFF2-Pad1)*%
X111000000Y-72740000D03*
D13*
%TO.P,AFF2,2,d*%
%TO.N,Net-(AFF2-Pad2)*%
X113540000Y-72740000D03*
%TO.P,AFF2,3,C.K.*%
%TO.N,GND*%
X116080000Y-72740000D03*
%TO.P,AFF2,4,c*%
%TO.N,Net-(AFF2-Pad4)*%
X118620000Y-72740000D03*
%TO.P,AFF2,5,DP*%
%TO.N,unconnected-(AFF2-Pad5)*%
X121160000Y-72740000D03*
%TO.P,AFF2,6,b*%
%TO.N,Net-(AFF2-Pad6)*%
X121160000Y-57500000D03*
%TO.P,AFF2,7,a*%
%TO.N,Net-(AFF2-Pad7)*%
X118620000Y-57500000D03*
%TO.P,AFF2,8,C.K.*%
%TO.N,GND*%
X116080000Y-57500000D03*
%TO.P,AFF2,9,f*%
%TO.N,Net-(AFF2-Pad9)*%
X113540000Y-57500000D03*
%TO.P,AFF2,10,g*%
%TO.N,Net-(AFF2-Pad10)*%
X111000000Y-57500000D03*
%TD*%
D12*
%TO.P,AFF3,1,e*%
%TO.N,Net-(AFF3-Pad1)*%
X133000000Y-72740000D03*
D13*
%TO.P,AFF3,2,d*%
%TO.N,Net-(AFF3-Pad2)*%
X135540000Y-72740000D03*
%TO.P,AFF3,3,C.K.*%
%TO.N,GND*%
X138080000Y-72740000D03*
%TO.P,AFF3,4,c*%
%TO.N,Net-(AFF3-Pad4)*%
X140620000Y-72740000D03*
%TO.P,AFF3,5,DP*%
%TO.N,unconnected-(AFF3-Pad5)*%
X143160000Y-72740000D03*
%TO.P,AFF3,6,b*%
%TO.N,Net-(AFF3-Pad6)*%
X143160000Y-57500000D03*
%TO.P,AFF3,7,a*%
%TO.N,Net-(AFF3-Pad7)*%
X140620000Y-57500000D03*
%TO.P,AFF3,8,C.K.*%
%TO.N,GND*%
X138080000Y-57500000D03*
%TO.P,AFF3,9,f*%
%TO.N,Net-(AFF3-Pad9)*%
X135540000Y-57500000D03*
%TO.P,AFF3,10,g*%
%TO.N,Net-(AFF3-Pad10)*%
X133000000Y-57500000D03*
%TD*%
D14*
%TO.P,U4,1,B*%
%TO.N,QG*%
X154000000Y-112620000D03*
D15*
%TO.P,U4,2,C*%
%TO.N,QF*%
X156540000Y-112620000D03*
%TO.P,U4,3,LT*%
%TO.N,unconnected-(U4-Pad3)*%
X159080000Y-112620000D03*
%TO.P,U4,4,BI/~{RBO}*%
%TO.N,unconnected-(U4-Pad4)*%
X161620000Y-112620000D03*
%TO.P,U4,5,RBI*%
%TO.N,Net-(U3-Pad4)*%
X164160000Y-112620000D03*
%TO.P,U4,6,D*%
%TO.N,GND*%
X166700000Y-112620000D03*
%TO.P,U4,7,A*%
%TO.N,QH*%
X169240000Y-112620000D03*
%TO.P,U4,8,GND*%
%TO.N,GND*%
X171780000Y-112620000D03*
%TO.P,U4,9,e*%
%TO.N,Net-(Q19-Pad2)*%
X171780000Y-105000000D03*
%TO.P,U4,10,d*%
%TO.N,Net-(Q18-Pad2)*%
X169240000Y-105000000D03*
%TO.P,U4,11,c*%
%TO.N,Net-(Q17-Pad2)*%
X166700000Y-105000000D03*
%TO.P,U4,12,b*%
%TO.N,Net-(Q16-Pad2)*%
X164160000Y-105000000D03*
%TO.P,U4,13,a*%
%TO.N,Net-(Q15-Pad2)*%
X161620000Y-105000000D03*
%TO.P,U4,14,g*%
%TO.N,Net-(Q21-Pad2)*%
X159080000Y-105000000D03*
%TO.P,U4,15,f*%
%TO.N,Net-(Q20-Pad2)*%
X156540000Y-105000000D03*
%TO.P,U4,16,VCC*%
%TO.N,+5V*%
X154000000Y-105000000D03*
%TD*%
D14*
%TO.P,U3,1,B*%
%TO.N,QD*%
X110000000Y-112620000D03*
D15*
%TO.P,U3,2,C*%
%TO.N,A2B*%
X112540000Y-112620000D03*
%TO.P,U3,3,LT*%
%TO.N,unconnected-(U3-Pad3)*%
X115080000Y-112620000D03*
%TO.P,U3,4,BI/~{RBO}*%
%TO.N,Net-(U3-Pad4)*%
X117620000Y-112620000D03*
%TO.P,U3,5,RBI*%
%TO.N,Net-(U2-Pad4)*%
X120160000Y-112620000D03*
%TO.P,U3,6,D*%
%TO.N,GND*%
X122700000Y-112620000D03*
%TO.P,U3,7,A*%
%TO.N,QE*%
X125240000Y-112620000D03*
%TO.P,U3,8,GND*%
%TO.N,GND*%
X127780000Y-112620000D03*
%TO.P,U3,9,e*%
%TO.N,Net-(Q12-Pad2)*%
X127780000Y-105000000D03*
%TO.P,U3,10,d*%
%TO.N,Net-(Q11-Pad2)*%
X125240000Y-105000000D03*
%TO.P,U3,11,c*%
%TO.N,Net-(Q10-Pad2)*%
X122700000Y-105000000D03*
%TO.P,U3,12,b*%
%TO.N,Net-(Q9-Pad2)*%
X120160000Y-105000000D03*
%TO.P,U3,13,a*%
%TO.N,Net-(Q8-Pad2)*%
X117620000Y-105000000D03*
%TO.P,U3,14,g*%
%TO.N,Net-(Q14-Pad2)*%
X115080000Y-105000000D03*
%TO.P,U3,15,f*%
%TO.N,Net-(Q13-Pad2)*%
X112540000Y-105000000D03*
%TO.P,U3,16,VCC*%
%TO.N,+5V*%
X110000000Y-105000000D03*
%TD*%
D16*
%TO.P,U1,1,A*%
%TO.N,Net-(U1-Pad1)*%
X156000000Y-134620000D03*
D17*
%TO.P,U1,2,B*%
X158540000Y-134620000D03*
%TO.P,U1,3,Qa*%
%TO.N,OH*%
X161080000Y-134620000D03*
%TO.P,U1,4,Qb*%
%TO.N,OG*%
X163620000Y-134620000D03*
%TO.P,U1,5,Qc*%
%TO.N,OF*%
X166160000Y-134620000D03*
%TO.P,U1,6,Qd*%
%TO.N,QD*%
X168700000Y-134620000D03*
%TO.P,U1,7,Vss*%
%TO.N,Vss*%
X171240000Y-134620000D03*
%TO.P,U1,8,CK*%
%TO.N,~{CLOCK}*%
X171240000Y-127000000D03*
%TO.P,U1,9,~{R}*%
%TO.N,Net-(C1-Pad1)*%
X168700000Y-127000000D03*
%TO.P,U1,10,Qe*%
%TO.N,QE*%
X166160000Y-127000000D03*
%TO.P,U1,11,Qf*%
%TO.N,QF*%
X163620000Y-127000000D03*
%TO.P,U1,12,Qg*%
%TO.N,QG*%
X161080000Y-127000000D03*
%TO.P,U1,13,Qh*%
%TO.N,QH*%
X158540000Y-127000000D03*
%TO.P,U1,14,Vdd*%
%TO.N,+5V*%
X156000000Y-127000000D03*
%TD*%
D18*
%TO.P,R21,1*%
%TO.N,+5V*%
X141340000Y-91000000D03*
D15*
%TO.P,R21,2*%
%TO.N,Net-(Q21-Pad1)*%
X151500000Y-91000000D03*
%TD*%
D18*
%TO.P,R13,1*%
%TO.N,+5V*%
X92000000Y-91160000D03*
D15*
%TO.P,R13,2*%
%TO.N,Net-(Q13-Pad1)*%
X92000000Y-81000000D03*
%TD*%
D18*
%TO.P,R8,1*%
%TO.N,+5V*%
X96090000Y-90750000D03*
D15*
%TO.P,R8,2*%
%TO.N,Net-(Q8-Pad1)*%
X106250000Y-90750000D03*
%TD*%
D18*
%TO.P,R14,1*%
%TO.N,+5V*%
X96090000Y-95750000D03*
D15*
%TO.P,R14,2*%
%TO.N,Net-(Q14-Pad1)*%
X106250000Y-95750000D03*
%TD*%
D18*
%TO.P,R10,1*%
%TO.N,+5V*%
X126660000Y-93000000D03*
D15*
%TO.P,R10,2*%
%TO.N,Net-(Q10-Pad1)*%
X116500000Y-93000000D03*
%TD*%
D18*
%TO.P,R9,1*%
%TO.N,+5V*%
X124750000Y-89750000D03*
D15*
%TO.P,R9,2*%
%TO.N,Net-(Q9-Pad1)*%
X114590000Y-89750000D03*
%TD*%
D18*
%TO.P,R20,1*%
%TO.N,+5V*%
X138000000Y-91160000D03*
D15*
%TO.P,R20,2*%
%TO.N,Net-(Q20-Pad1)*%
X138000000Y-81000000D03*
%TD*%
D18*
%TO.P,R19,1*%
%TO.N,+5V*%
X180910000Y-98250000D03*
D15*
%TO.P,R19,2*%
%TO.N,Net-(Q19-Pad1)*%
X170750000Y-98250000D03*
%TD*%
D18*
%TO.P,R18,1*%
%TO.N,+5V*%
X176160000Y-94250000D03*
D15*
%TO.P,R18,2*%
%TO.N,Net-(Q18-Pad1)*%
X166000000Y-94250000D03*
%TD*%
D18*
%TO.P,R17,1*%
%TO.N,+5V*%
X173410000Y-90250000D03*
D15*
%TO.P,R17,2*%
%TO.N,Net-(Q17-Pad1)*%
X163250000Y-90250000D03*
%TD*%
D18*
%TO.P,R7,1*%
%TO.N,+5V*%
X59840000Y-70750000D03*
D15*
%TO.P,R7,2*%
%TO.N,Net-(Q7-Pad1)*%
X70000000Y-70750000D03*
%TD*%
D18*
%TO.P,R15,1*%
%TO.N,+5V*%
X145590000Y-95000000D03*
D15*
%TO.P,R15,2*%
%TO.N,Net-(Q15-Pad1)*%
X155750000Y-95000000D03*
%TD*%
D18*
%TO.P,R12,1*%
%TO.N,+5V*%
X133000000Y-91160000D03*
D15*
%TO.P,R12,2*%
%TO.N,Net-(Q12-Pad1)*%
X133000000Y-81000000D03*
%TD*%
D18*
%TO.P,R6,1*%
%TO.N,+5V*%
X59840000Y-67500000D03*
D15*
%TO.P,R6,2*%
%TO.N,Net-(Q6-Pad1)*%
X70000000Y-67500000D03*
%TD*%
D18*
%TO.P,R5,1*%
%TO.N,+5V*%
X87000000Y-91160000D03*
D15*
%TO.P,R5,2*%
%TO.N,Net-(Q5-Pad1)*%
X87000000Y-81000000D03*
%TD*%
D18*
%TO.P,R16,1*%
%TO.N,+5V*%
X148500000Y-98500000D03*
D15*
%TO.P,R16,2*%
%TO.N,Net-(Q16-Pad1)*%
X158660000Y-98500000D03*
%TD*%
D18*
%TO.P,R4,1*%
%TO.N,+5V*%
X87250000Y-95500000D03*
D15*
%TO.P,R4,2*%
%TO.N,Net-(Q4-Pad1)*%
X77090000Y-95500000D03*
%TD*%
D18*
%TO.P,R3,1*%
%TO.N,+5V*%
X82250000Y-92250000D03*
D15*
%TO.P,R3,2*%
%TO.N,Net-(Q3-Pad1)*%
X72090000Y-92250000D03*
%TD*%
D18*
%TO.P,R1,1*%
%TO.N,+5V*%
X55840000Y-96000000D03*
D15*
%TO.P,R1,2*%
%TO.N,Net-(Q1-Pad1)*%
X66000000Y-96000000D03*
%TD*%
D18*
%TO.P,R2,1*%
%TO.N,+5V*%
X79000000Y-89000000D03*
D15*
%TO.P,R2,2*%
%TO.N,Net-(Q2-Pad1)*%
X68840000Y-89000000D03*
%TD*%
D18*
%TO.P,R11,1*%
%TO.N,+5V*%
X133160000Y-96000000D03*
D15*
%TO.P,R11,2*%
%TO.N,Net-(Q11-Pad1)*%
X123000000Y-96000000D03*
%TD*%
D14*
%TO.P,U2,1,B*%
%TO.N,A1C*%
X65000000Y-112620000D03*
D15*
%TO.P,U2,2,C*%
%TO.N,A2C*%
X67540000Y-112620000D03*
%TO.P,U2,3,LT*%
%TO.N,unconnected-(U2-Pad3)*%
X70080000Y-112620000D03*
%TO.P,U2,4,BI/~{RBO}*%
%TO.N,Net-(U2-Pad4)*%
X72620000Y-112620000D03*
%TO.P,U2,5,RBI*%
%TO.N,~{RBI}*%
X75160000Y-112620000D03*
%TO.P,U2,6,D*%
%TO.N,GND*%
X77700000Y-112620000D03*
%TO.P,U2,7,A*%
%TO.N,A0C*%
X80240000Y-112620000D03*
%TO.P,U2,8,GND*%
%TO.N,GND*%
X82780000Y-112620000D03*
%TO.P,U2,9,e*%
%TO.N,Net-(Q5-Pad2)*%
X82780000Y-105000000D03*
%TO.P,U2,10,d*%
%TO.N,Net-(Q4-Pad2)*%
X80240000Y-105000000D03*
%TO.P,U2,11,c*%
%TO.N,Net-(Q3-Pad2)*%
X77700000Y-105000000D03*
%TO.P,U2,12,b*%
%TO.N,Net-(Q2-Pad2)*%
X75160000Y-105000000D03*
%TO.P,U2,13,a*%
%TO.N,Net-(Q1-Pad2)*%
X72620000Y-105000000D03*
%TO.P,U2,14,g*%
%TO.N,Net-(Q7-Pad2)*%
X70080000Y-105000000D03*
%TO.P,U2,15,f*%
%TO.N,Net-(Q6-Pad2)*%
X67540000Y-105000000D03*
%TO.P,U2,16,VCC*%
%TO.N,+5V*%
X65000000Y-105000000D03*
%TD*%
D19*
%TO.P,H1,1,1*%
%TO.N,GND*%
X55000000Y-55000000D03*
D20*
X53302944Y-56697056D03*
X55000000Y-52600000D03*
X56697056Y-53302944D03*
X55000000Y-57400000D03*
X57400000Y-55000000D03*
X56697056Y-56697056D03*
X52600000Y-55000000D03*
X53302944Y-53302944D03*
%TD*%
%TO.P,H2,1,1*%
%TO.N,GND*%
X183302944Y-53302944D03*
X185000000Y-52600000D03*
X183302944Y-56697056D03*
D19*
X185000000Y-55000000D03*
D20*
X186697056Y-53302944D03*
X187400000Y-55000000D03*
X186697056Y-56697056D03*
X182600000Y-55000000D03*
X185000000Y-57400000D03*
%TD*%
%TO.P,H3,1,1*%
%TO.N,GND*%
X182600000Y-145000000D03*
X185000000Y-147400000D03*
D19*
X185000000Y-145000000D03*
D20*
X187400000Y-145000000D03*
X183302944Y-146697056D03*
X185000000Y-142600000D03*
X186697056Y-146697056D03*
X183302944Y-143302944D03*
X186697056Y-143302944D03*
%TD*%
%TO.P,H4,1,1*%
%TO.N,GND*%
X56697056Y-146697056D03*
X56697056Y-143302944D03*
X55000000Y-147400000D03*
X52600000Y-145000000D03*
D19*
X55000000Y-145000000D03*
D20*
X55000000Y-142600000D03*
X57400000Y-145000000D03*
X53302944Y-143302944D03*
X53302944Y-146697056D03*
%TD*%
D18*
%TO.P,C1,1*%
%TO.N,Net-(C1-Pad1)*%
X172000000Y-123000000D03*
%TO.P,C1,2*%
%TO.N,GND*%
X177000000Y-123000000D03*
%TD*%
%TO.P,R22,1*%
%TO.N,+5V*%
X155500000Y-123000000D03*
D15*
%TO.P,R22,2*%
%TO.N,Net-(C1-Pad1)*%
X165660000Y-123000000D03*
%TD*%
D14*
%TO.P,U5,1*%
%TO.N,Net-(U5-Pad1)*%
X125500000Y-134620000D03*
D15*
%TO.P,U5,2*%
X128040000Y-134620000D03*
%TO.P,U5,3*%
%TO.N,~{FLAG}*%
X130580000Y-134620000D03*
%TO.P,U5,4*%
%TO.N,~{DATA}*%
X133120000Y-134620000D03*
%TO.P,U5,5*%
X135660000Y-134620000D03*
%TO.P,U5,6*%
%TO.N,Net-(U1-Pad1)*%
X138200000Y-134620000D03*
%TO.P,U5,7,GND*%
%TO.N,GND*%
X140740000Y-134620000D03*
%TO.P,U5,8*%
%TO.N,Net-(U5-Pad1)*%
X140740000Y-127000000D03*
%TO.P,U5,9*%
%TO.N,Net-(C2-Pad2)*%
X138200000Y-127000000D03*
%TO.P,U5,10*%
%TO.N,Net-(U5-Pad10)*%
X135660000Y-127000000D03*
%TO.P,U5,11*%
X133120000Y-127000000D03*
%TO.P,U5,12*%
%TO.N,Net-(U5-Pad1)*%
X130580000Y-127000000D03*
%TO.P,U5,13*%
%TO.N,~{RESET_FLAG}*%
X128040000Y-127000000D03*
%TO.P,U5,14,VCC*%
%TO.N,+5V*%
X125500000Y-127000000D03*
%TD*%
D18*
%TO.P,R23,1*%
%TO.N,Net-(D1-Pad2)*%
X119500000Y-125500000D03*
D15*
%TO.P,R23,2*%
%TO.N,~{RESET_FLAG}*%
X119500000Y-135660000D03*
%TD*%
D18*
%TO.P,R24,1*%
%TO.N,Net-(D1-Pad2)*%
X105000000Y-121000000D03*
D15*
%TO.P,R24,2*%
%TO.N,+5V*%
X94840000Y-121000000D03*
%TD*%
D18*
%TO.P,R25,1*%
%TO.N,Net-(R25-Pad1)*%
X76500000Y-139750000D03*
D15*
%TO.P,R25,2*%
%TO.N,+5V*%
X76500000Y-129590000D03*
%TD*%
D18*
%TO.P,R26,1*%
%TO.N,GND*%
X105160000Y-140000000D03*
D15*
%TO.P,R26,2*%
%TO.N,Net-(Q24-Pad1)*%
X95000000Y-140000000D03*
%TD*%
D18*
%TO.P,R27,1*%
%TO.N,Net-(C2-Pad2)*%
X98500000Y-116500000D03*
D15*
%TO.P,R27,2*%
%TO.N,+5V*%
X98500000Y-106340000D03*
%TD*%
D14*
%TO.P,U6,1*%
%TO.N,Net-(Q24-Pad1)*%
X95000000Y-134620000D03*
D15*
%TO.P,U6,2*%
%TO.N,Net-(R25-Pad1)*%
X97540000Y-134620000D03*
%TO.P,U6,3*%
%TO.N,N/C*%
X100080000Y-134620000D03*
%TO.P,U6,4*%
%TO.N,Net-(R25-Pad1)*%
X102620000Y-134620000D03*
%TO.P,U6,5*%
X105160000Y-134620000D03*
%TO.P,U6,6*%
%TO.N,Net-(C2-Pad1)*%
X107700000Y-134620000D03*
%TO.P,U6,7,GND*%
%TO.N,GND*%
X110240000Y-134620000D03*
%TO.P,U6,8*%
%TO.N,N/C*%
X110240000Y-127000000D03*
%TO.P,U6,9*%
X107700000Y-127000000D03*
%TO.P,U6,10*%
X105160000Y-127000000D03*
%TO.P,U6,11*%
X102620000Y-127000000D03*
%TO.P,U6,12*%
X100080000Y-127000000D03*
%TO.P,U6,13*%
X97540000Y-127000000D03*
%TO.P,U6,14,VCC*%
%TO.N,+5V*%
X95000000Y-127000000D03*
%TD*%
D10*
%TO.P,D1,1,A*%
%TO.N,Net-(D1-Pad1)*%
X86750000Y-123500000D03*
D11*
%TO.P,D1,2,G*%
%TO.N,Net-(D1-Pad2)*%
X84210000Y-123500000D03*
%TO.P,D1,3,K*%
%TO.N,GND*%
X81670000Y-123500000D03*
%TD*%
D21*
%TO.P,Q23,1,E*%
%TO.N,Net-(Q23-Pad1)*%
X84750000Y-131750000D03*
D22*
%TO.P,Q23,2,B*%
%TO.N,Pot_b*%
X83480000Y-130480000D03*
%TO.P,Q23,3,C*%
%TO.N,+5V*%
X82210000Y-131750000D03*
%TD*%
D21*
%TO.P,Q24,1,E*%
%TO.N,Net-(Q24-Pad1)*%
X84750000Y-140000000D03*
D22*
%TO.P,Q24,2,B*%
%TO.N,Net-(Q23-Pad1)*%
X83480000Y-138730000D03*
%TO.P,Q24,3,C*%
%TO.N,+5V*%
X82210000Y-140000000D03*
%TD*%
D18*
%TO.P,R28,1*%
%TO.N,Pot_t*%
X71750000Y-139750000D03*
D15*
%TO.P,R28,2*%
%TO.N,+5V*%
X71750000Y-129590000D03*
%TD*%
D18*
%TO.P,R29,1*%
%TO.N,Pot_b*%
X67000000Y-139660000D03*
D15*
%TO.P,R29,2*%
%TO.N,Net-(D1-Pad1)*%
X67000000Y-129500000D03*
%TD*%
D14*
%TO.P,C3,1*%
%TO.N,Pot_b*%
X60250000Y-135500000D03*
D18*
%TO.P,C3,2*%
%TO.N,GND*%
X60250000Y-133000000D03*
%TD*%
%TO.P,C2,1*%
%TO.N,Net-(C2-Pad1)*%
X115750000Y-132250000D03*
%TO.P,C2,2*%
%TO.N,Net-(C2-Pad2)*%
X115750000Y-127250000D03*
%TD*%
D23*
%TO.P,J3,1,Pin_1*%
%TO.N,~{CLOCK}*%
X138500000Y-145000000D03*
D24*
%TO.P,J3,2,Pin_2*%
%TO.N,~{DATA}*%
X135960000Y-145000000D03*
%TO.P,J3,3,Pin_3*%
%TO.N,~{FLAG}*%
X133420000Y-145000000D03*
%TO.P,J3,4,Pin_4*%
%TO.N,~{RESET_FLAG}*%
X130880000Y-145000000D03*
%TD*%
D23*
%TO.P,J1,1,Pin_1*%
%TO.N,A0C*%
X55000000Y-117700000D03*
D24*
%TO.P,J1,2,Pin_2*%
%TO.N,~{RBI}*%
X55000000Y-115160000D03*
%TO.P,J1,3,Pin_3*%
%TO.N,A2C*%
X55000000Y-112620000D03*
%TO.P,J1,4,Pin_4*%
%TO.N,A1C*%
X55000000Y-110080000D03*
%TO.P,J1,5,Pin_5*%
%TO.N,+5V*%
X55000000Y-107540000D03*
%TO.P,J1,6,Pin_6*%
X55000000Y-105000000D03*
%TO.P,J1,7,Pin_7*%
%TO.N,GND*%
X55000000Y-102460000D03*
%TO.P,J1,8,Pin_8*%
X55000000Y-99920000D03*
%TD*%
D23*
%TO.P,J2,1,Pin_1*%
%TO.N,A2B*%
X168500000Y-145000000D03*
D24*
%TO.P,J2,2,Pin_2*%
%TO.N,OF*%
X165960000Y-145000000D03*
%TO.P,J2,3,Pin_3*%
%TO.N,OG*%
X163420000Y-145000000D03*
%TO.P,J2,4,Pin_4*%
%TO.N,OH*%
X160880000Y-145000000D03*
%TD*%
D23*
%TO.P,J4,1,Pin_1*%
%TO.N,GND*%
X64500000Y-145000000D03*
D24*
%TO.P,J4,2,Pin_2*%
%TO.N,Pot_b*%
X67040000Y-145000000D03*
%TO.P,J4,3,Pin_3*%
X69580000Y-145000000D03*
%TO.P,J4,4,Pin_4*%
%TO.N,Pot_t*%
X72120000Y-145000000D03*
%TD*%
D25*
%TO.N,+5V*%
X95000000Y-105500000D03*
X95000000Y-113750000D03*
X125500000Y-123000000D03*
%TO.N,Vss*%
X180000000Y-134500000D03*
D26*
%TO.N,~{CLOCK}*%
X143980000Y-130950000D03*
%TD*%
D27*
%TO.N,Net-(AFF1-Pad9)*%
X91540000Y-57500000D02*
X91540000Y-56290000D01*
X91540000Y-56290000D02*
X91037990Y-55787990D01*
X91037990Y-55787990D02*
X82998010Y-55787990D01*
X82998010Y-55787990D02*
X77686000Y-61100000D01*
X77686000Y-61100000D02*
X75400000Y-61100000D01*
%TO.N,Net-(AFF1-Pad10)*%
X89000000Y-57500000D02*
X85350000Y-57500000D01*
X85350000Y-57500000D02*
X82385000Y-60465000D01*
%TO.N,Net-(Q7-Pad2)*%
X82385000Y-63005000D02*
X81369000Y-63005000D01*
X70080000Y-103580000D02*
X70080000Y-105000000D01*
X77305000Y-69355000D02*
X65145000Y-69355000D01*
X80480000Y-63894000D02*
X80480000Y-66180000D01*
X80480000Y-66180000D02*
X77305000Y-69355000D01*
X81369000Y-63005000D02*
X80480000Y-63894000D01*
X65145000Y-69355000D02*
X59125000Y-75375000D01*
X59125000Y-75375000D02*
X59125000Y-92625000D01*
X59125000Y-92625000D02*
X70080000Y-103580000D01*
%TO.N,Net-(Q6-Pad2)*%
X67540000Y-105000000D02*
X67540000Y-103040000D01*
X67540000Y-103040000D02*
X58125000Y-93625000D01*
X58125000Y-74375000D02*
X68860000Y-63640000D01*
X58125000Y-93625000D02*
X58125000Y-74375000D01*
X68860000Y-63640000D02*
X75400000Y-63640000D01*
%TO.N,Net-(Q16-Pad2)*%
X164160000Y-105000000D02*
X164160000Y-103360000D01*
X159982000Y-82690000D02*
X158000000Y-82690000D01*
X164160000Y-103360000D02*
X160750000Y-99950000D01*
X160750000Y-99950000D02*
X160750000Y-83458000D01*
X160750000Y-83458000D02*
X159982000Y-82690000D01*
%TO.N,Net-(Q17-Pad2)*%
X166700000Y-105000000D02*
X166700000Y-103400000D01*
X166700000Y-103400000D02*
X164000000Y-100700000D01*
X164000000Y-100700000D02*
X164000000Y-92249998D01*
X164749999Y-91499999D02*
X164749999Y-83266999D01*
X164000000Y-92249998D02*
X164749999Y-91499999D01*
X164749999Y-83266999D02*
X164173000Y-82690000D01*
X164173000Y-82690000D02*
X163030000Y-82690000D01*
%TO.N,Net-(Q18-Pad2)*%
X169240000Y-105000000D02*
X169240000Y-88760000D01*
X169750000Y-88250000D02*
X169750000Y-83314000D01*
X169240000Y-88760000D02*
X169750000Y-88250000D01*
X169750000Y-83314000D02*
X169126000Y-82690000D01*
X169126000Y-82690000D02*
X168000000Y-82690000D01*
%TO.N,Net-(Q19-Pad2)*%
X171780000Y-105000000D02*
X172159999Y-104620001D01*
X172159999Y-104620001D02*
X172159999Y-88590001D01*
X174714000Y-83325000D02*
X174079000Y-82690000D01*
X174079000Y-82690000D02*
X173000000Y-82690000D01*
X172159999Y-88590001D02*
X174714000Y-86036000D01*
X174714000Y-86036000D02*
X174714000Y-83325000D01*
%TO.N,Net-(AFF3-Pad1)*%
X133000000Y-72740000D02*
X133000000Y-71000000D01*
X163000000Y-68500000D02*
X173000000Y-78500000D01*
X133000000Y-71000000D02*
X135500000Y-68500000D01*
X135500000Y-68500000D02*
X163000000Y-68500000D01*
X173000000Y-78500000D02*
X173000000Y-80150000D01*
%TO.N,Net-(AFF3-Pad2)*%
X168000000Y-80150000D02*
X168000000Y-75250000D01*
X168000000Y-75250000D02*
X162250000Y-69500000D01*
X162250000Y-69500000D02*
X137500000Y-69500000D01*
X137500000Y-69500000D02*
X135540000Y-71460000D01*
X135540000Y-71460000D02*
X135540000Y-72740000D01*
%TO.N,Net-(AFF3-Pad6)*%
X158000000Y-80150000D02*
X158000000Y-78549000D01*
X158000000Y-78549000D02*
X155951000Y-76500000D01*
X131000000Y-74500000D02*
X131000000Y-70500000D01*
X155951000Y-76500000D02*
X133000000Y-76500000D01*
X133000000Y-76500000D02*
X131000000Y-74500000D01*
X131000000Y-70500000D02*
X143160000Y-58340000D01*
X143160000Y-58340000D02*
X143160000Y-57500000D01*
%TO.N,Net-(AFF3-Pad4)*%
X140620000Y-72740000D02*
X140620000Y-74620000D01*
X140620000Y-74620000D02*
X141500000Y-75500000D01*
X141500000Y-75500000D02*
X159777000Y-75500000D01*
X159777000Y-75500000D02*
X163030000Y-78753000D01*
X163030000Y-78753000D02*
X163030000Y-80150000D01*
%TO.N,Net-(Q15-Pad2)*%
X161620000Y-103420000D02*
X157000000Y-98800000D01*
X154267000Y-82690000D02*
X153000000Y-82690000D01*
X157000000Y-88500000D02*
X155000000Y-86500000D01*
X161620000Y-105000000D02*
X161620000Y-103420000D01*
X155000000Y-83423000D02*
X154267000Y-82690000D01*
X157000000Y-98800000D02*
X157000000Y-88500000D01*
X155000000Y-86500000D02*
X155000000Y-83423000D01*
%TO.N,Net-(AFF3-Pad7)*%
X153000000Y-80150000D02*
X153000000Y-78500000D01*
X153000000Y-78500000D02*
X151875000Y-77375000D01*
X151875000Y-77375000D02*
X132375000Y-77375000D01*
X132375000Y-77375000D02*
X130000000Y-75000000D01*
X130000000Y-75000000D02*
X130000000Y-70000000D01*
X130000000Y-70000000D02*
X140620000Y-59380000D01*
X140620000Y-59380000D02*
X140620000Y-57500000D01*
%TO.N,Net-(Q20-Pad2)*%
X156540000Y-105000000D02*
X156540000Y-103440000D01*
X156540000Y-103440000D02*
X145000000Y-91900000D01*
X145000000Y-91900000D02*
X145000000Y-83710000D01*
X145000000Y-83710000D02*
X143980000Y-82690000D01*
X143980000Y-82690000D02*
X143000000Y-82690000D01*
%TO.N,Net-(Q21-Pad2)*%
X159080000Y-105000000D02*
X159080000Y-103380000D01*
X159080000Y-103380000D02*
X153250000Y-97550000D01*
X149441000Y-82690000D02*
X148000000Y-82690000D01*
X153250000Y-90500000D02*
X150250000Y-87500000D01*
X150250000Y-87500000D02*
X150250000Y-83499000D01*
X153250000Y-97550000D02*
X153250000Y-90500000D01*
X150250000Y-83499000D02*
X149441000Y-82690000D01*
%TO.N,Net-(AFF3-Pad10)*%
X148000000Y-80150000D02*
X148000000Y-79250000D01*
X148000000Y-79250000D02*
X146875000Y-78125000D01*
X146875000Y-78125000D02*
X131375000Y-78125000D01*
X131375000Y-78125000D02*
X129000000Y-75750000D01*
X129000000Y-75750000D02*
X129000000Y-69500000D01*
X129000000Y-69500000D02*
X133000000Y-65500000D01*
X133000000Y-65500000D02*
X133000000Y-57500000D01*
%TO.N,Net-(AFF3-Pad9)*%
X135540000Y-57500000D02*
X135540000Y-55540000D01*
X131000000Y-66000000D02*
X128000000Y-69000000D01*
X135540000Y-55540000D02*
X135000000Y-55000000D01*
X128000000Y-69000000D02*
X128000000Y-76500000D01*
X135000000Y-55000000D02*
X132000000Y-55000000D01*
X132000000Y-55000000D02*
X131000000Y-56000000D01*
X131000000Y-56000000D02*
X131000000Y-66000000D01*
X130500000Y-79000000D02*
X142250000Y-79000000D01*
X128000000Y-76500000D02*
X130500000Y-79000000D01*
X142250000Y-79000000D02*
X143000000Y-79750000D01*
X143000000Y-79750000D02*
X143000000Y-80150000D01*
%TO.N,Net-(Q12-Pad2)*%
X127195000Y-82690000D02*
X122750000Y-87135000D01*
X127780000Y-97530000D02*
X127780000Y-105000000D01*
X122750000Y-87135000D02*
X122750000Y-92500000D01*
X122750000Y-92500000D02*
X127780000Y-97530000D01*
%TO.N,Net-(Q11-Pad2)*%
X122000000Y-82690000D02*
X121120000Y-82690000D01*
X121120000Y-82690000D02*
X120500000Y-83310000D01*
X120500000Y-83310000D02*
X120500000Y-95350002D01*
X120500000Y-95350002D02*
X125240000Y-100090002D01*
X125240000Y-100090002D02*
X125240000Y-105000000D01*
%TO.N,Net-(Q13-Pad2)*%
X112540000Y-105000000D02*
X99300000Y-91760000D01*
X99300000Y-91760000D02*
X99300000Y-83603000D01*
X99300000Y-83603000D02*
X98387000Y-82690000D01*
X98387000Y-82690000D02*
X97000000Y-82690000D01*
%TO.N,Net-(Q14-Pad2)*%
X115080000Y-105000000D02*
X115080000Y-102080000D01*
X115080000Y-102080000D02*
X104200000Y-91200000D01*
X104200000Y-91200000D02*
X104200000Y-84185000D01*
X104200000Y-84185000D02*
X102705000Y-82690000D01*
X102705000Y-82690000D02*
X102000000Y-82690000D01*
%TO.N,Net-(Q8-Pad2)*%
X107000000Y-82690000D02*
X108293000Y-82690000D01*
X108293000Y-82690000D02*
X109100000Y-83497000D01*
X109100000Y-93850000D02*
X117620000Y-102370000D01*
X109100000Y-83497000D02*
X109100000Y-93850000D01*
X117620000Y-102370000D02*
X117620000Y-105000000D01*
%TO.N,Net-(Q9-Pad2)*%
X112000000Y-82690000D02*
X113246000Y-82690000D01*
X115800489Y-85244489D02*
X115800489Y-89193413D01*
X115839511Y-90910489D02*
X115249999Y-91500001D01*
X115800489Y-89193413D02*
X115839511Y-89232435D01*
X113246000Y-82690000D02*
X115800489Y-85244489D01*
X115839511Y-89232435D02*
X115839511Y-90910489D01*
X115249999Y-91500001D02*
X115249999Y-96999999D01*
X115249999Y-96999999D02*
X120160000Y-101910000D01*
X120160000Y-101910000D02*
X120160000Y-105000000D01*
%TO.N,Net-(Q10-Pad2)*%
X117000000Y-82690000D02*
X118453000Y-82690000D01*
X119299990Y-97049990D02*
X122700000Y-100450000D01*
X118453000Y-82690000D02*
X119299990Y-83536990D01*
X119299990Y-83536990D02*
X119299990Y-97049990D01*
X122700000Y-100450000D02*
X122700000Y-105000000D01*
%TO.N,Net-(AFF2-Pad1)*%
X127195000Y-80150000D02*
X127195000Y-71195000D01*
X113000000Y-68500000D02*
X111000000Y-70500000D01*
X127195000Y-71195000D02*
X124500000Y-68500000D01*
X124500000Y-68500000D02*
X113000000Y-68500000D01*
X111000000Y-70500000D02*
X111000000Y-72740000D01*
%TO.N,Net-(AFF2-Pad2)*%
X122000000Y-77500000D02*
X124500000Y-75000000D01*
X124500000Y-75000000D02*
X124500000Y-71500000D01*
X124500000Y-71500000D02*
X123000000Y-70000000D01*
X123000000Y-70000000D02*
X114500000Y-70000000D01*
X122000000Y-80150000D02*
X122000000Y-77500000D01*
X114500000Y-70000000D02*
X113540000Y-70960000D01*
X113540000Y-70960000D02*
X113540000Y-72740000D01*
%TO.N,Net-(AFF2-Pad4)*%
X117000000Y-80150000D02*
X117000000Y-77500000D01*
X117000000Y-77500000D02*
X118620000Y-75880000D01*
X118620000Y-75880000D02*
X118620000Y-72740000D01*
%TO.N,Net-(AFF2-Pad6)*%
X112000000Y-80150000D02*
X112000000Y-78000000D01*
X121160000Y-58840000D02*
X121160000Y-57500000D01*
X112000000Y-78000000D02*
X109500000Y-75500000D01*
X109500000Y-75500000D02*
X109500000Y-70500000D01*
X109500000Y-70500000D02*
X121160000Y-58840000D01*
%TO.N,Net-(AFF2-Pad7)*%
X118620000Y-57500000D02*
X118620000Y-59380000D01*
X118620000Y-59380000D02*
X107000000Y-71000000D01*
X107000000Y-71000000D02*
X107000000Y-80150000D01*
%TO.N,Net-(AFF2-Pad10)*%
X102000000Y-80150000D02*
X102000000Y-78569000D01*
X102000000Y-78569000D02*
X106000000Y-74569000D01*
X106000000Y-74569000D02*
X106000000Y-70500000D01*
X106000000Y-70500000D02*
X111000000Y-65500000D01*
X111000000Y-65500000D02*
X111000000Y-57740010D01*
X111000000Y-57740010D02*
X111240010Y-57500000D01*
%TO.N,Net-(AFF2-Pad9)*%
X97000000Y-80150000D02*
X97000000Y-78000000D01*
X97000000Y-78000000D02*
X109000000Y-66000000D01*
X109000000Y-56000000D02*
X110500000Y-54500000D01*
X109000000Y-66000000D02*
X109000000Y-56000000D01*
X110500000Y-54500000D02*
X113000000Y-54500000D01*
X113000000Y-54500000D02*
X113540000Y-55040000D01*
X113540000Y-55040000D02*
X113540000Y-57500000D01*
%TO.N,Net-(Q4-Pad1)*%
X77000000Y-86958742D02*
X76250000Y-87708742D01*
%TO.N,Net-(Q5-Pad2)*%
X82110000Y-82838000D02*
X77500000Y-87448000D01*
%TO.N,Net-(Q4-Pad1)*%
X76250000Y-87708742D02*
X76250000Y-94660000D01*
%TO.N,Net-(Q5-Pad2)*%
X77500000Y-87448000D02*
X77500000Y-94059998D01*
X77500000Y-94059998D02*
X82780000Y-99339998D01*
X82780000Y-99339998D02*
X82780000Y-105000000D01*
X82110000Y-82690000D02*
X82110000Y-82838000D01*
%TO.N,Net-(Q4-Pad1)*%
X77000000Y-85230000D02*
X77000000Y-86958742D01*
X76250000Y-94660000D02*
X77090000Y-95500000D01*
%TO.N,Net-(Q4-Pad2)*%
X75019000Y-85540000D02*
X75019000Y-84671000D01*
X75019000Y-84671000D02*
X77000000Y-82690000D01*
%TO.N,Net-(Q1-Pad2)*%
X72620000Y-105000000D02*
X72620000Y-103320000D01*
X64250000Y-91450000D02*
X64250000Y-83351000D01*
X72620000Y-103320000D02*
X68875000Y-99575000D01*
X68875000Y-99575000D02*
X68875000Y-96075000D01*
X68875000Y-96075000D02*
X64250000Y-91450000D01*
X64250000Y-83351000D02*
X63589000Y-82690000D01*
X63589000Y-82690000D02*
X62000000Y-82690000D01*
%TO.N,Net-(Q2-Pad2)*%
X75160000Y-105000000D02*
X75160000Y-103310000D01*
X68669000Y-82690000D02*
X67000000Y-82690000D01*
X69304000Y-85844000D02*
X69304000Y-83325000D01*
X75160000Y-103310000D02*
X70505012Y-98655012D01*
X70505012Y-98655012D02*
X70505012Y-87045012D01*
X70505012Y-87045012D02*
X69304000Y-85844000D01*
X69304000Y-83325000D02*
X68669000Y-82690000D01*
%TO.N,Net-(Q3-Pad2)*%
X77700000Y-105000000D02*
X77700000Y-103400000D01*
X77700000Y-103400000D02*
X73500000Y-99200000D01*
X73500000Y-83203000D02*
X72987000Y-82690000D01*
X73500000Y-99200000D02*
X73500000Y-83203000D01*
X72987000Y-82690000D02*
X71950000Y-82690000D01*
%TO.N,Net-(AFF1-Pad1)*%
X82110000Y-80150000D02*
X82110000Y-79028000D01*
X96750000Y-68250000D02*
X91250000Y-68250000D01*
X95525000Y-76975000D02*
X97832010Y-74667990D01*
X82110000Y-79028000D02*
X84163000Y-76975000D01*
X89000000Y-70500000D02*
X89000000Y-72740000D01*
X84163000Y-76975000D02*
X95525000Y-76975000D01*
X91250000Y-68250000D02*
X89000000Y-70500000D01*
X97832010Y-74667990D02*
X97832010Y-69332010D01*
X97832010Y-69332010D02*
X96750000Y-68250000D01*
%TO.N,Net-(AFF1-Pad2)*%
X77000000Y-80150000D02*
X77000000Y-78961500D01*
X79711500Y-76250000D02*
X90750000Y-76250000D01*
X77000000Y-78961500D02*
X79711500Y-76250000D01*
X90750000Y-76250000D02*
X91540000Y-75460000D01*
X91540000Y-75460000D02*
X91540000Y-72740000D01*
%TO.N,Net-(AFF1-Pad4)*%
X96620000Y-72740000D02*
X96620000Y-71120000D01*
X71950000Y-79028000D02*
X71950000Y-80150000D01*
X96620000Y-71120000D02*
X95750000Y-70250000D01*
X89074002Y-75500000D02*
X75478000Y-75500000D01*
X95750000Y-70250000D02*
X91750000Y-70250000D01*
X91750000Y-70250000D02*
X90212001Y-71787999D01*
X90212001Y-71787999D02*
X90212001Y-74362001D01*
X90212001Y-74362001D02*
X89074002Y-75500000D01*
X75478000Y-75500000D02*
X71950000Y-79028000D01*
%TO.N,Net-(AFF1-Pad6)*%
X99160000Y-57500000D02*
X99160000Y-58590000D01*
X99160000Y-58590000D02*
X83500000Y-74250000D01*
X71500000Y-74250000D02*
X67000000Y-78750000D01*
X83500000Y-74250000D02*
X71500000Y-74250000D01*
X67000000Y-78750000D02*
X67000000Y-80150000D01*
%TO.N,Net-(AFF1-Pad7)*%
X96620000Y-57500000D02*
X96620000Y-58880000D01*
X96620000Y-58880000D02*
X82500000Y-73000000D01*
X62000000Y-78500000D02*
X62000000Y-80150000D01*
X82500000Y-73000000D02*
X67500000Y-73000000D01*
X67500000Y-73000000D02*
X62000000Y-78500000D01*
D28*
%TO.N,GND*%
X94080000Y-57500000D02*
X94080000Y-55650000D01*
X82780000Y-112620000D02*
X82780000Y-117220000D01*
D27*
X136800000Y-53100000D02*
X117600000Y-53100000D01*
D28*
X126470000Y-110530000D02*
X147970000Y-110530000D01*
D29*
X82780000Y-110530000D02*
X122970000Y-110530000D01*
D27*
X177000000Y-115500000D02*
X177000000Y-114000000D01*
D28*
X127780000Y-110780000D02*
X127530000Y-110530000D01*
D27*
X60250000Y-127750000D02*
X60250000Y-133000000D01*
X64500000Y-145000000D02*
X55000000Y-145000000D01*
D28*
X82780000Y-112620000D02*
X82780000Y-110530000D01*
X147970000Y-110530000D02*
X148250000Y-110250000D01*
D27*
X105160000Y-140000000D02*
X109500000Y-140000000D01*
D28*
X127780000Y-112620000D02*
X127780000Y-110780000D01*
D27*
X81670000Y-123500000D02*
X64500000Y-123500000D01*
D28*
X82780000Y-110530000D02*
X82750000Y-110500000D01*
X170500000Y-109500000D02*
X149000000Y-109500000D01*
D27*
X64500000Y-123500000D02*
X60250000Y-127750000D01*
X138080000Y-57500000D02*
X138080000Y-54380000D01*
D28*
X122970000Y-110530000D02*
X126470000Y-110530000D01*
D27*
X122700000Y-110800000D02*
X122970000Y-110530000D01*
X166700000Y-114600000D02*
X167400000Y-115300000D01*
X177000000Y-123000000D02*
X177000000Y-115500000D01*
D28*
X149000000Y-109500000D02*
X148250000Y-110250000D01*
X77970000Y-110530000D02*
X77700000Y-110800000D01*
D27*
X116080000Y-57500000D02*
X116080000Y-55780000D01*
D29*
X82780000Y-110530000D02*
X77970000Y-110530000D01*
D27*
X116080000Y-54620000D02*
X116080000Y-57500000D01*
X138080000Y-54380000D02*
X136800000Y-53100000D01*
X167400000Y-115300000D02*
X171100000Y-115300000D01*
D28*
X171780000Y-110590000D02*
X171720000Y-110530000D01*
D27*
X122700000Y-112620000D02*
X122700000Y-110800000D01*
X166700000Y-112620000D02*
X166700000Y-114600000D01*
X171100000Y-115300000D02*
X171780000Y-114620000D01*
X117600000Y-53100000D02*
X116080000Y-54620000D01*
D28*
X82780000Y-117220000D02*
X81670000Y-118330000D01*
D27*
X116080000Y-55780000D02*
X116200000Y-55660000D01*
D28*
X171780000Y-110590000D02*
X171590000Y-110590000D01*
X171590000Y-110590000D02*
X170500000Y-109500000D01*
X126470000Y-110530000D02*
X127530000Y-110530000D01*
D29*
X77700000Y-110800000D02*
X77700000Y-112620000D01*
D28*
X81670000Y-118330000D02*
X81670000Y-123500000D01*
D27*
X171780000Y-114620000D02*
X171780000Y-112620000D01*
D28*
X171780000Y-112620000D02*
X171780000Y-110590000D01*
D27*
%TO.N,Net-(Q4-Pad2)*%
X80240000Y-105000000D02*
X80240000Y-103340000D01*
X80240000Y-103340000D02*
X75000000Y-98100000D01*
X75000000Y-98100000D02*
X75000000Y-85540000D01*
%TO.N,+5V*%
X94750000Y-127250000D02*
X95000000Y-127000000D01*
D28*
X125500000Y-127000000D02*
X125500000Y-123000000D01*
X76500000Y-129590000D02*
X78045000Y-128045000D01*
X79090000Y-127000000D02*
X78045000Y-128045000D01*
D30*
X64740000Y-107540000D02*
X65000000Y-107800000D01*
D28*
X71750000Y-129590000D02*
X76500000Y-129590000D01*
D27*
X156000000Y-127000000D02*
X156000000Y-123500000D01*
X78840000Y-127250000D02*
X94750000Y-127250000D01*
D28*
X55840000Y-96000000D02*
X64840000Y-105000000D01*
X81610001Y-139400001D02*
X82210000Y-140000000D01*
X96500000Y-130000000D02*
X95000000Y-128500000D01*
D27*
X156000000Y-123500000D02*
X155500000Y-123000000D01*
D28*
X95000000Y-128500000D02*
X95000000Y-127000000D01*
X59840000Y-67500000D02*
X59840000Y-70750000D01*
X95000000Y-127000000D02*
X95000000Y-113750000D01*
X125500000Y-127000000D02*
X122500000Y-130000000D01*
X122500000Y-130000000D02*
X96500000Y-130000000D01*
X81610001Y-132349999D02*
X81610001Y-139400001D01*
X64840000Y-105000000D02*
X65000000Y-105000000D01*
X55840000Y-96000000D02*
X55840000Y-74750000D01*
D30*
X153800000Y-105200000D02*
X154000000Y-105000000D01*
D28*
X82210000Y-131750000D02*
X81610001Y-132349999D01*
X55840000Y-74750000D02*
X59840000Y-70750000D01*
X78045000Y-128045000D02*
X78840000Y-127250000D01*
X95000000Y-127000000D02*
X79090000Y-127000000D01*
D27*
%TO.N,Net-(U3-Pad4)*%
X164000000Y-112780000D02*
X164160000Y-112620000D01*
%TO.N,Net-(U5-Pad1)*%
X128040000Y-131460000D02*
X128040000Y-134620000D01*
X137240000Y-130500000D02*
X130500000Y-130500000D01*
X130580000Y-130420000D02*
X130500000Y-130500000D01*
X130500000Y-130500000D02*
X129000000Y-130500000D01*
X129000000Y-130500000D02*
X128040000Y-131460000D01*
X125500000Y-134620000D02*
X128040000Y-134620000D01*
X130580000Y-127000000D02*
X130580000Y-130420000D01*
X140740000Y-127000000D02*
X137240000Y-130500000D01*
%TO.N,Net-(U1-Pad1)*%
X148620000Y-134620000D02*
X146000000Y-132000000D01*
X146000000Y-132000000D02*
X140820000Y-132000000D01*
X140820000Y-132000000D02*
X138200000Y-134620000D01*
X156000000Y-134620000D02*
X148620000Y-134620000D01*
X158540000Y-134620000D02*
X156000000Y-134620000D01*
%TO.N,Net-(Q1-Pad1)*%
X62000000Y-85230000D02*
X62000000Y-92000000D01*
X62000000Y-92000000D02*
X66000000Y-96000000D01*
%TO.N,Net-(Q2-Pad1)*%
X67145000Y-85375000D02*
X67000000Y-85230000D01*
X68840000Y-89000000D02*
X67145000Y-87305000D01*
X67145000Y-87305000D02*
X67145000Y-85375000D01*
%TO.N,Net-(Q3-Pad1)*%
X72000000Y-85280000D02*
X71950000Y-85230000D01*
X72000000Y-92000000D02*
X72000000Y-85280000D01*
%TO.N,Net-(Q5-Pad1)*%
X87000000Y-81000000D02*
X87000000Y-84250000D01*
X87000000Y-84250000D02*
X86020000Y-85230000D01*
X86020000Y-85230000D02*
X82110000Y-85230000D01*
%TO.N,Net-(Q6-Pad1)*%
X70000000Y-67500000D02*
X74080000Y-67500000D01*
X74080000Y-67500000D02*
X75400000Y-66180000D01*
%TO.N,Net-(Q7-Pad1)*%
X70000000Y-70750000D02*
X77750000Y-70750000D01*
X77750000Y-70750000D02*
X82385000Y-66115000D01*
X82385000Y-66115000D02*
X82385000Y-65545000D01*
%TO.N,Net-(Q8-Pad1)*%
X107000000Y-88250000D02*
X107000000Y-85230000D01*
X106250000Y-90750000D02*
X106250000Y-89000000D01*
X106250000Y-89000000D02*
X107000000Y-88250000D01*
%TO.N,Net-(Q9-Pad1)*%
X112000000Y-87160000D02*
X114590000Y-89750000D01*
X112000000Y-85230000D02*
X112000000Y-87160000D01*
%TO.N,Net-(Q10-Pad1)*%
X117000000Y-92500000D02*
X117000000Y-85230000D01*
X116500000Y-93000000D02*
X117000000Y-92500000D01*
%TO.N,Net-(Q11-Pad1)*%
X122000000Y-86890000D02*
X122000000Y-85230000D01*
X123000000Y-96000000D02*
X121750000Y-94750000D01*
X121750000Y-94750000D02*
X121750000Y-87140000D01*
X121750000Y-87140000D02*
X122000000Y-86890000D01*
%TO.N,Net-(Q12-Pad1)*%
X133000000Y-80840000D02*
X133000000Y-82750000D01*
X130520000Y-85230000D02*
X127195000Y-85230000D01*
X133000000Y-82750000D02*
X130520000Y-85230000D01*
%TO.N,Net-(Q13-Pad1)*%
X92000000Y-84250000D02*
X92980000Y-85230000D01*
X92980000Y-85230000D02*
X97000000Y-85230000D01*
X92000000Y-80750000D02*
X92000000Y-84250000D01*
%TO.N,Net-(Q14-Pad1)*%
X102000000Y-91500000D02*
X102000000Y-85230000D01*
X106250000Y-95750000D02*
X102000000Y-91500000D01*
%TO.N,Net-(Q15-Pad1)*%
X155750000Y-88830000D02*
X153000000Y-86080000D01*
X153000000Y-86080000D02*
X153000000Y-85230000D01*
X155750000Y-95000000D02*
X155750000Y-88830000D01*
%TO.N,Net-(Q16-Pad1)*%
X158660000Y-89910000D02*
X158660000Y-98500000D01*
X158000000Y-85230000D02*
X158000000Y-89250000D01*
X158000000Y-89250000D02*
X158660000Y-89910000D01*
%TO.N,Net-(Q17-Pad1)*%
X163000000Y-85260000D02*
X163000000Y-90000000D01*
X163030000Y-85230000D02*
X163000000Y-85260000D01*
X163000000Y-90000000D02*
X163250000Y-90250000D01*
%TO.N,Net-(Q18-Pad1)*%
X168000000Y-90000000D02*
X168000000Y-85230000D01*
X166000000Y-92000000D02*
X168000000Y-90000000D01*
X166000000Y-94250000D02*
X166000000Y-92000000D01*
%TO.N,Net-(Q19-Pad1)*%
X173000000Y-86080000D02*
X173000000Y-85230000D01*
X170750000Y-88330000D02*
X173000000Y-86080000D01*
X170750000Y-98250000D02*
X170750000Y-88330000D01*
%TO.N,Net-(Q20-Pad1)*%
X138000000Y-83500000D02*
X138000000Y-81000000D01*
X143000000Y-85230000D02*
X139730000Y-85230000D01*
X139730000Y-85230000D02*
X138000000Y-83500000D01*
%TO.N,Net-(Q21-Pad1)*%
X151500000Y-91000000D02*
X149750000Y-91000000D01*
X149750000Y-91000000D02*
X148000000Y-89250000D01*
X148000000Y-89250000D02*
X148000000Y-85230000D01*
%TO.N,~{RBI}*%
X56000000Y-115160000D02*
X56840000Y-115160000D01*
X55000000Y-115160000D02*
X56840000Y-115160000D01*
X75160000Y-115440000D02*
X74100000Y-116500000D01*
X59500000Y-116500000D02*
X74100000Y-116500000D01*
X56840000Y-115160000D02*
X58160000Y-115160000D01*
X58160000Y-115160000D02*
X59500000Y-116500000D01*
X75160000Y-112620000D02*
X75160000Y-115440000D01*
%TO.N,A1C*%
X57080000Y-110080000D02*
X56000000Y-110080000D01*
X65000000Y-112620000D02*
X59620000Y-112620000D01*
X55000000Y-110080000D02*
X56920000Y-110080000D01*
X59620000Y-112620000D02*
X57080000Y-110080000D01*
%TO.N,A2C*%
X57620000Y-112620000D02*
X56380000Y-112620000D01*
X55000000Y-112620000D02*
X56380000Y-112620000D01*
X67540000Y-114960000D02*
X67000000Y-115500000D01*
X60500000Y-115500000D02*
X57620000Y-112620000D01*
X56380000Y-112620000D02*
X56000000Y-112620000D01*
X67540000Y-112620000D02*
X67540000Y-114960000D01*
X67000000Y-115500000D02*
X60500000Y-115500000D01*
%TO.N,A0C*%
X80240000Y-115760000D02*
X80240000Y-112620000D01*
X55000000Y-117700000D02*
X78300000Y-117700000D01*
X78300000Y-117700000D02*
X80240000Y-115760000D01*
%TO.N,QH*%
X158250000Y-124250000D02*
X158500000Y-124500000D01*
X152000000Y-116000000D02*
X158540000Y-122540000D01*
X158540000Y-127000000D02*
X158540000Y-124540000D01*
X152800000Y-110700000D02*
X152000000Y-111500000D01*
X158540000Y-124540000D02*
X158250000Y-124250000D01*
X168200000Y-110700000D02*
X152800000Y-110700000D01*
X169240000Y-112620000D02*
X169240000Y-111740000D01*
X158540000Y-122540000D02*
X158540000Y-127000000D01*
X152000000Y-111500000D02*
X152000000Y-116000000D01*
X169240000Y-111740000D02*
X168200000Y-110700000D01*
%TO.N,QD*%
X168700000Y-132200000D02*
X168000000Y-131500000D01*
X144000000Y-127000000D02*
X148500000Y-131500000D01*
X168000000Y-131500000D02*
X148500000Y-131500000D01*
X142000000Y-119000000D02*
X144000000Y-121000000D01*
X111000000Y-119000000D02*
X142000000Y-119000000D01*
X168700000Y-134620000D02*
X168700000Y-132200000D01*
X144000000Y-121000000D02*
X144000000Y-127000000D01*
X110000000Y-118000000D02*
X111000000Y-119000000D01*
X110000000Y-112620000D02*
X110000000Y-118000000D01*
%TO.N,QG*%
X161080000Y-123080000D02*
X154000000Y-116000000D01*
X154000000Y-116000000D02*
X154000000Y-112620000D01*
X161080000Y-127000000D02*
X161080000Y-123080000D01*
%TO.N,OF*%
X165910000Y-138620000D02*
X165910000Y-144950000D01*
X165960000Y-134820000D02*
X166160000Y-134620000D01*
X165910000Y-144950000D02*
X165960000Y-145000000D01*
X165960000Y-145000000D02*
X165960000Y-134820000D01*
%TO.N,QF*%
X163620000Y-127000000D02*
X163620000Y-123620000D01*
X163620000Y-123120000D02*
X156540000Y-116040000D01*
X156540000Y-116040000D02*
X156540000Y-112620000D01*
X163620000Y-127000000D02*
X163620000Y-123120000D01*
%TO.N,OG*%
X163370000Y-144950000D02*
X163420000Y-145000000D01*
X163620000Y-137880000D02*
X163620000Y-134620000D01*
X163420000Y-138080000D02*
X163620000Y-137880000D01*
X163370000Y-138620000D02*
X163370000Y-144950000D01*
X163420000Y-145000000D02*
X163420000Y-138080000D01*
%TO.N,QE*%
X125240000Y-116240000D02*
X125240000Y-112620000D01*
X166160000Y-127000000D02*
X166160000Y-128840000D01*
X166160000Y-128840000D02*
X165500000Y-129500000D01*
X126000000Y-117000000D02*
X125240000Y-116240000D01*
X146000000Y-120000000D02*
X143000000Y-117000000D01*
X146000000Y-126000000D02*
X146000000Y-120000000D01*
X165500000Y-129500000D02*
X149500000Y-129500000D01*
X143000000Y-117000000D02*
X126000000Y-117000000D01*
X149500000Y-129500000D02*
X146000000Y-126000000D01*
%TO.N,OH*%
X160880000Y-138120000D02*
X161080000Y-137920000D01*
X161080000Y-137920000D02*
X161080000Y-134620000D01*
X160830000Y-138620000D02*
X160830000Y-144950000D01*
X160830000Y-144950000D02*
X160880000Y-145000000D01*
X160880000Y-145000000D02*
X160880000Y-138120000D01*
%TO.N,A2B*%
X112540000Y-112620000D02*
X112540000Y-117540000D01*
X142500000Y-118000000D02*
X145000000Y-120500000D01*
X175500000Y-145000000D02*
X168500000Y-145000000D01*
X145000000Y-126500000D02*
X149000000Y-130500000D01*
X145000000Y-120500000D02*
X145000000Y-126500000D01*
X174500000Y-130500000D02*
X177000000Y-133000000D01*
X112540000Y-117540000D02*
X113000000Y-118000000D01*
X149000000Y-130500000D02*
X174500000Y-130500000D01*
X113000000Y-118000000D02*
X142500000Y-118000000D01*
X177000000Y-143500000D02*
X175500000Y-145000000D01*
X177000000Y-133000000D02*
X177000000Y-143500000D01*
%TO.N,Net-(C1-Pad1)*%
X170500000Y-123000000D02*
X172000000Y-123000000D01*
X165660000Y-123000000D02*
X170500000Y-123000000D01*
X168700000Y-124700000D02*
X168700000Y-127000000D01*
X165660000Y-123000000D02*
X167000000Y-123000000D01*
X167000000Y-123000000D02*
X168700000Y-124700000D01*
X168800000Y-124700000D02*
X170500000Y-123000000D01*
X168700000Y-124700000D02*
X168800000Y-124700000D01*
%TO.N,~{DATA}*%
X135660000Y-134620000D02*
X133120000Y-134620000D01*
X135960000Y-140360000D02*
X135960000Y-145000000D01*
X135660000Y-134620000D02*
X135660000Y-140060000D01*
X135660000Y-140060000D02*
X135960000Y-140360000D01*
%TO.N,~{RESET_FLAG}*%
X130880000Y-145000000D02*
X128840000Y-145000000D01*
X119500000Y-135660000D02*
X128220000Y-144380000D01*
X128040000Y-127120000D02*
X128040000Y-127000000D01*
X128840000Y-145000000D02*
X128220000Y-144380000D01*
X130000000Y-145000000D02*
X130880000Y-145000000D01*
X128040000Y-127000000D02*
X123040000Y-132000000D01*
X119500000Y-135660000D02*
X128040000Y-127120000D01*
%TO.N,Net-(U5-Pad10)*%
X133120000Y-127000000D02*
X135660000Y-127000000D01*
%TO.N,~{FLAG}*%
X130580000Y-134620000D02*
X130580000Y-137180000D01*
X130645000Y-134685000D02*
X130580000Y-134620000D01*
X130580000Y-137180000D02*
X133420000Y-140020000D01*
X133420000Y-140020000D02*
X133420000Y-145000000D01*
%TO.N,~{CLOCK}*%
X138500000Y-140000000D02*
X138500000Y-145000000D01*
X136949999Y-132265001D02*
X136949999Y-138449999D01*
X138900000Y-130315000D02*
X143345000Y-130315000D01*
X136949999Y-132265001D02*
X138900000Y-130315000D01*
X136949999Y-138449999D02*
X138500000Y-140000000D01*
X143345000Y-130315000D02*
X143980000Y-130950000D01*
%TO.N,Net-(C2-Pad2)*%
X98500000Y-116000000D02*
X98500000Y-119750000D01*
X138200000Y-121950000D02*
X138200000Y-127000000D01*
X137250000Y-121000000D02*
X138200000Y-121950000D01*
X98500000Y-119750000D02*
X102750000Y-124000000D01*
X115750000Y-127250000D02*
X120500000Y-127250000D01*
X115750000Y-125500000D02*
X115750000Y-127250000D01*
X114250000Y-124000000D02*
X115750000Y-125500000D01*
X124500000Y-121000000D02*
X137250000Y-121000000D01*
X123000000Y-122500000D02*
X124500000Y-121000000D01*
X123000000Y-124750000D02*
X123000000Y-122500000D01*
X120500000Y-127250000D02*
X123000000Y-124750000D01*
X102750000Y-124000000D02*
X114250000Y-124000000D01*
%TO.N,Net-(C2-Pad1)*%
X107700000Y-133300000D02*
X108750000Y-132250000D01*
X108750000Y-132250000D02*
X115750000Y-132250000D01*
X107700000Y-134620000D02*
X107700000Y-133300000D01*
%TO.N,Net-(R25-Pad1)*%
X98500000Y-136750000D02*
X99000000Y-136750000D01*
X102620000Y-134620000D02*
X105160000Y-134620000D01*
X78250000Y-141500000D02*
X76500000Y-139750000D01*
X101500000Y-136750000D02*
X102620000Y-135630000D01*
X99000000Y-136750000D02*
X101500000Y-136750000D01*
X99000000Y-140250000D02*
X97750000Y-141500000D01*
X97540000Y-135790000D02*
X98500000Y-136750000D01*
X97540000Y-134620000D02*
X97540000Y-135790000D01*
X99000000Y-136750000D02*
X99000000Y-140250000D01*
X97750000Y-141500000D02*
X78250000Y-141500000D01*
X102620000Y-135630000D02*
X102620000Y-134620000D01*
%TO.N,Net-(D1-Pad1)*%
X86750000Y-125000000D02*
X86125000Y-125625000D01*
X67000000Y-128500000D02*
X67000000Y-129500000D01*
X86750000Y-123500000D02*
X86750000Y-125000000D01*
X69875000Y-125625000D02*
X67000000Y-128500000D01*
X86125000Y-125625000D02*
X69875000Y-125625000D01*
%TO.N,Net-(Q23-Pad1)*%
X84750000Y-134500000D02*
X84750000Y-131750000D01*
X83480000Y-138730000D02*
X83480000Y-135770000D01*
X83480000Y-135770000D02*
X84750000Y-134500000D01*
%TO.N,Net-(Q24-Pad1)*%
X95000000Y-134620000D02*
X95000000Y-140000000D01*
X84750000Y-140000000D02*
X95000000Y-140000000D01*
%TO.N,Net-(D1-Pad2)*%
X116000000Y-122000000D02*
X106000000Y-122000000D01*
X99600000Y-112600000D02*
X105000000Y-118000000D01*
X105000000Y-118000000D02*
X105000000Y-121000000D01*
X84210000Y-123500000D02*
X84210000Y-118790000D01*
X106000000Y-122000000D02*
X105000000Y-121000000D01*
X84210000Y-118790000D02*
X90400000Y-112600000D01*
X90400000Y-112600000D02*
X99600000Y-112600000D01*
X119500000Y-125500000D02*
X116000000Y-122000000D01*
%TO.N,Pot_b*%
X67000000Y-136000000D02*
X67500000Y-135500000D01*
X67000000Y-137250000D02*
X67000000Y-137750000D01*
X67000000Y-137750000D02*
X67000000Y-136000000D01*
X74199999Y-135449999D02*
X73899998Y-135750000D01*
X68500000Y-135750000D02*
X67000000Y-137250000D01*
D28*
X67000000Y-139660000D02*
X67000000Y-136000000D01*
X82880001Y-129880001D02*
X83480000Y-130480000D01*
X74149998Y-135500000D02*
X79169998Y-130480000D01*
D27*
X67000000Y-137750000D02*
X67000000Y-139660000D01*
X67000000Y-139660000D02*
X67000000Y-144960000D01*
X67040000Y-145000000D02*
X69580000Y-145000000D01*
X67500000Y-135500000D02*
X74149998Y-135500000D01*
D28*
X60250000Y-135500000D02*
X66500000Y-135500000D01*
X67000000Y-136000000D02*
X66500000Y-135500000D01*
X79769997Y-129880001D02*
X82880001Y-129880001D01*
D27*
X79169998Y-130480000D02*
X74199999Y-135449999D01*
X74149998Y-135500000D02*
X74199999Y-135449999D01*
X73899998Y-135750000D02*
X68500000Y-135750000D01*
D28*
X79169998Y-130480000D02*
X79769997Y-129880001D01*
D27*
X60250000Y-135500000D02*
X67500000Y-135500000D01*
X67000000Y-144960000D02*
X67040000Y-145000000D01*
D28*
X66500000Y-135500000D02*
X74149998Y-135500000D01*
D27*
%TO.N,Pot_t*%
X72120000Y-142370000D02*
X71750000Y-142000000D01*
X72120000Y-145000000D02*
X72120000Y-142370000D01*
X71750000Y-142000000D02*
X71750000Y-139750000D01*
%TO.N,Net-(U2-Pad4)*%
X120000000Y-112780000D02*
X120160000Y-112620000D01*
%TD*%
%TA.AperFunction,Conductor*%
%TO.N,GND*%
G36*
X67930666Y-57507595D02*
G01*
X67930665Y-57507595D01*
X54012938Y-71145368D01*
X53600000Y-71550000D01*
X53600000Y-57050000D01*
X71000000Y-54500000D01*
X67930666Y-57507595D01*
G37*
%TD.AperFunction*%
%TD*%
%TA.AperFunction,Conductor*%
%TO.N,GND*%
G36*
X53000000Y-119000000D02*
G01*
X53878812Y-119000000D01*
X53923041Y-119008018D01*
X54032282Y-119048971D01*
X54032288Y-119048973D01*
X54039684Y-119051745D01*
X54101866Y-119058500D01*
X55898134Y-119058500D01*
X55960316Y-119051745D01*
X55967712Y-119048973D01*
X55967718Y-119048971D01*
X56076959Y-119008018D01*
X56121188Y-119000000D01*
X81874000Y-119000000D01*
X81942121Y-119020002D01*
X81988614Y-119073658D01*
X82000000Y-119126000D01*
X82000000Y-123874000D01*
X81979998Y-123942121D01*
X81926342Y-123988614D01*
X81874000Y-124000000D01*
X67000000Y-124000000D01*
X62000000Y-129000000D01*
X62000000Y-133874000D01*
X61979998Y-133942121D01*
X61926342Y-133988614D01*
X61874000Y-134000000D01*
X59000000Y-134000000D01*
X59000000Y-134428812D01*
X58991982Y-134473041D01*
X58951029Y-134582282D01*
X58951027Y-134582288D01*
X58948255Y-134589684D01*
X58941500Y-134651866D01*
X58941500Y-136348134D01*
X58948255Y-136410316D01*
X58951027Y-136417712D01*
X58951029Y-136417718D01*
X58991982Y-136526959D01*
X59000000Y-136571188D01*
X59000000Y-138000000D01*
X62947810Y-138000000D01*
X63015931Y-138020002D01*
X63036905Y-138036905D01*
X65963095Y-140963095D01*
X65997121Y-141025407D01*
X66000000Y-141052190D01*
X66000000Y-144074859D01*
X65978088Y-144145863D01*
X65854743Y-144326680D01*
X65760688Y-144529305D01*
X65700989Y-144744570D01*
X65677251Y-144966695D01*
X65690110Y-145189715D01*
X65691247Y-145194761D01*
X65691248Y-145194767D01*
X65712275Y-145288069D01*
X65739222Y-145407639D01*
X65823266Y-145614616D01*
X65939987Y-145805088D01*
X65943368Y-145808991D01*
X65969237Y-145838855D01*
X65998720Y-145903441D01*
X66000000Y-145921353D01*
X66000000Y-147000000D01*
X75000000Y-147000000D01*
X75000000Y-143126000D01*
X75020002Y-143057879D01*
X75073658Y-143011386D01*
X75126000Y-143000000D01*
X110000000Y-143000000D01*
X110000000Y-149491500D01*
X50634500Y-149491500D01*
X50566379Y-149471498D01*
X50519886Y-149417842D01*
X50508500Y-149365500D01*
X50508500Y-103000000D01*
X53000000Y-103000000D01*
X53000000Y-119000000D01*
G37*
%TD.AperFunction*%
%TD*%
%TA.AperFunction,Conductor*%
%TO.N,GND*%
G36*
X189491500Y-149365500D02*
G01*
X189471498Y-149433621D01*
X189417842Y-149480114D01*
X189365500Y-149491500D01*
X109000000Y-149491500D01*
X109000000Y-134779790D01*
X109000479Y-134768808D01*
X109013019Y-134625475D01*
X109013498Y-134620000D01*
X109000479Y-134471192D01*
X109000000Y-134460210D01*
X109000000Y-134052190D01*
X109020002Y-133984069D01*
X109036905Y-133963095D01*
X109463095Y-133536905D01*
X109525407Y-133502879D01*
X109552190Y-133500000D01*
X111422127Y-133500000D01*
X111490248Y-133520002D01*
X111534825Y-133569651D01*
X111986698Y-134473396D01*
X112000000Y-134529745D01*
X112000000Y-146500000D01*
X112500000Y-147000000D01*
X141000000Y-147000000D01*
X141000000Y-142500000D01*
X140989173Y-142492782D01*
X140989172Y-142492781D01*
X139556108Y-141537405D01*
X139510523Y-141482976D01*
X139500000Y-141432567D01*
X139500000Y-134779790D01*
X139500479Y-134768808D01*
X139513019Y-134625475D01*
X139513498Y-134620000D01*
X139500479Y-134471192D01*
X139500000Y-134460212D01*
X139500000Y-134444871D01*
X139520002Y-134376750D01*
X139536905Y-134355776D01*
X140270902Y-133621779D01*
X140303648Y-133598176D01*
X140473396Y-133513302D01*
X140529745Y-133500000D01*
X144947810Y-133500000D01*
X145015931Y-133520002D01*
X145036905Y-133536905D01*
X149000000Y-137500000D01*
X156447810Y-137500000D01*
X156515931Y-137520002D01*
X156536905Y-137536905D01*
X157463095Y-138463095D01*
X157497121Y-138525407D01*
X157500000Y-138552190D01*
X157500000Y-146500000D01*
X158500000Y-147000000D01*
X175000000Y-147000000D01*
X178500000Y-143500000D01*
X178500000Y-134470859D01*
X178887132Y-134470859D01*
X178900457Y-134674151D01*
X178950605Y-134871610D01*
X179035898Y-135056624D01*
X179153479Y-135222997D01*
X179299410Y-135365157D01*
X179304206Y-135368362D01*
X179304209Y-135368364D01*
X179319379Y-135378500D01*
X179468803Y-135478342D01*
X179474106Y-135480620D01*
X179474109Y-135480622D01*
X179563115Y-135518862D01*
X179655987Y-135558763D01*
X179728817Y-135575243D01*
X179849055Y-135602450D01*
X179849060Y-135602451D01*
X179854692Y-135603725D01*
X179860463Y-135603952D01*
X179860465Y-135603952D01*
X179923470Y-135606427D01*
X180058263Y-135611723D01*
X180259883Y-135582490D01*
X180265347Y-135580635D01*
X180265352Y-135580634D01*
X180447327Y-135518862D01*
X180447332Y-135518860D01*
X180452799Y-135517004D01*
X180630551Y-135417458D01*
X180787186Y-135287186D01*
X180917458Y-135130551D01*
X180983883Y-135011941D01*
X181014180Y-134957842D01*
X181014181Y-134957840D01*
X181017004Y-134952799D01*
X181018860Y-134947332D01*
X181018862Y-134947327D01*
X181080634Y-134765352D01*
X181080635Y-134765347D01*
X181082490Y-134759883D01*
X181111723Y-134558263D01*
X181113249Y-134500000D01*
X181099145Y-134346502D01*
X181095137Y-134302880D01*
X181095136Y-134302877D01*
X181094608Y-134297126D01*
X181039307Y-134101047D01*
X181028680Y-134079496D01*
X180951756Y-133923510D01*
X180949201Y-133918329D01*
X180930796Y-133893681D01*
X180830758Y-133759715D01*
X180830758Y-133759714D01*
X180827305Y-133755091D01*
X180737646Y-133672211D01*
X180681943Y-133620719D01*
X180681940Y-133620717D01*
X180677703Y-133616800D01*
X180617194Y-133578622D01*
X180510288Y-133511169D01*
X180510283Y-133511167D01*
X180505404Y-133508088D01*
X180316180Y-133432595D01*
X180116366Y-133392849D01*
X180110592Y-133392773D01*
X180110588Y-133392773D01*
X180007452Y-133391424D01*
X179912655Y-133390183D01*
X179906958Y-133391162D01*
X179906957Y-133391162D01*
X179717567Y-133423705D01*
X179711870Y-133424684D01*
X179520734Y-133495198D01*
X179515773Y-133498150D01*
X179515772Y-133498150D01*
X179406348Y-133563251D01*
X179345649Y-133599363D01*
X179192478Y-133733690D01*
X179188911Y-133738215D01*
X179188906Y-133738220D01*
X179102331Y-133848040D01*
X179066351Y-133893681D01*
X179063662Y-133898792D01*
X179063660Y-133898795D01*
X179055817Y-133913702D01*
X178971492Y-134073978D01*
X178911078Y-134268543D01*
X178887132Y-134470859D01*
X178500000Y-134470859D01*
X178500000Y-132500000D01*
X175000000Y-129000000D01*
X174126000Y-129000000D01*
X174057879Y-128979998D01*
X174011386Y-128926342D01*
X174000000Y-128874000D01*
X174000000Y-122000000D01*
X173000000Y-121500000D01*
X171126000Y-121500000D01*
X171057879Y-121479998D01*
X171011386Y-121426342D01*
X171000000Y-121374000D01*
X171000000Y-115000000D01*
X189491500Y-115000000D01*
X189491500Y-149365500D01*
G37*
%TD.AperFunction*%
%TD*%
%TA.AperFunction,Conductor*%
%TO.N,GND*%
G36*
X185500000Y-111000000D02*
G01*
X171000000Y-110500000D01*
X169715095Y-109215095D01*
X169681069Y-109152783D01*
X169686134Y-109081968D01*
X169728681Y-109025132D01*
X169795201Y-109000321D01*
X169804190Y-109000000D01*
X185500000Y-109000000D01*
X185500000Y-111000000D01*
G37*
%TD.AperFunction*%
%TD*%
%TA.AperFunction,Conductor*%
%TO.N,GND*%
G36*
X189433621Y-50528502D02*
G01*
X189480114Y-50582158D01*
X189491500Y-50634500D01*
X189491500Y-115500000D01*
X171000000Y-115500000D01*
X171000000Y-110000000D01*
X184000000Y-110000000D01*
X185000000Y-109000000D01*
X185000000Y-96000000D01*
X178540537Y-90037418D01*
X178504048Y-89976517D01*
X178500000Y-89944834D01*
X178500000Y-50508500D01*
X189365500Y-50508500D01*
X189433621Y-50528502D01*
G37*
%TD.AperFunction*%
%TD*%
%TA.AperFunction,Conductor*%
%TO.N,+5V*%
G36*
X65942121Y-104020002D02*
G01*
X65988614Y-104073658D01*
X66000000Y-104126000D01*
X66000000Y-106436531D01*
X65979998Y-106504652D01*
X65949000Y-106537777D01*
X63948846Y-108019373D01*
X63333415Y-108475248D01*
X63266770Y-108499723D01*
X63258416Y-108500000D01*
X54626000Y-108500000D01*
X54557879Y-108479998D01*
X54511386Y-108426342D01*
X54500000Y-108374000D01*
X54500000Y-104326000D01*
X54520002Y-104257879D01*
X54573658Y-104211386D01*
X54626000Y-104200000D01*
X63500000Y-104200000D01*
X64487765Y-104002447D01*
X64512476Y-104000000D01*
X65874000Y-104000000D01*
X65942121Y-104020002D01*
G37*
%TD.AperFunction*%
%TD*%
%TA.AperFunction,Conductor*%
%TO.N,GND*%
G36*
X54000000Y-97500000D02*
G01*
X54008006Y-97506405D01*
X54008007Y-97506406D01*
X56452712Y-99462170D01*
X56493410Y-99520343D01*
X56500000Y-99560559D01*
X56500000Y-102947810D01*
X56479998Y-103015931D01*
X56463095Y-103036905D01*
X56036905Y-103463095D01*
X55974593Y-103497121D01*
X55947810Y-103500000D01*
X50508500Y-103500000D01*
X50508500Y-57000000D01*
X54000000Y-57000000D01*
X54000000Y-97500000D01*
G37*
%TD.AperFunction*%
%TD*%
%TA.AperFunction,Conductor*%
%TO.N,GND*%
G36*
X189433621Y-50528502D02*
G01*
X189480114Y-50582158D01*
X189491500Y-50634500D01*
X189491500Y-57500000D01*
X187743904Y-57500000D01*
X187757019Y-57486885D01*
X187761448Y-57481966D01*
X188001866Y-57185075D01*
X188005754Y-57179724D01*
X188213831Y-56859313D01*
X188217128Y-56853603D01*
X188390578Y-56513189D01*
X188393260Y-56507164D01*
X188530171Y-56150498D01*
X188532212Y-56144216D01*
X188631094Y-55775184D01*
X188632465Y-55768734D01*
X188692234Y-55391371D01*
X188692920Y-55384833D01*
X188712916Y-55003301D01*
X188712916Y-54996699D01*
X188692920Y-54615167D01*
X188692234Y-54608629D01*
X188632465Y-54231266D01*
X188631094Y-54224816D01*
X188532212Y-53855784D01*
X188530171Y-53849502D01*
X188393260Y-53492836D01*
X188390578Y-53486811D01*
X188217128Y-53146397D01*
X188213831Y-53140687D01*
X188005747Y-52820265D01*
X188001877Y-52814939D01*
X187808522Y-52576165D01*
X187796267Y-52567700D01*
X187785176Y-52574034D01*
X185089095Y-55270115D01*
X185026783Y-55304141D01*
X184955968Y-55299076D01*
X184910905Y-55270115D01*
X182215690Y-52574900D01*
X182202614Y-52567759D01*
X182192247Y-52575216D01*
X181998123Y-52814939D01*
X181994253Y-52820265D01*
X181786169Y-53140687D01*
X181782872Y-53146397D01*
X181609422Y-53486811D01*
X181606740Y-53492836D01*
X181469829Y-53849502D01*
X181467788Y-53855784D01*
X181368906Y-54224816D01*
X181367535Y-54231266D01*
X181307766Y-54608629D01*
X181307080Y-54615167D01*
X181287084Y-54996699D01*
X181287084Y-55003301D01*
X181307080Y-55384833D01*
X181307766Y-55391371D01*
X181367535Y-55768734D01*
X181368906Y-55775184D01*
X181467788Y-56144216D01*
X181469829Y-56150498D01*
X181606740Y-56507164D01*
X181609422Y-56513189D01*
X181782872Y-56853603D01*
X181786169Y-56859313D01*
X181994246Y-57179724D01*
X181998134Y-57185075D01*
X182238552Y-57481966D01*
X182242981Y-57486885D01*
X182256096Y-57500000D01*
X144556500Y-57500000D01*
X144488379Y-57479998D01*
X144441886Y-57426342D01*
X144430500Y-57374000D01*
X144430500Y-56942465D01*
X144427973Y-56914144D01*
X144419317Y-56817167D01*
X144415474Y-56774105D01*
X144355630Y-56555349D01*
X144351405Y-56546490D01*
X144260410Y-56355716D01*
X144260409Y-56355715D01*
X144257993Y-56350649D01*
X144125649Y-56166474D01*
X144021474Y-56065521D01*
X143966811Y-56012548D01*
X143966808Y-56012546D01*
X143962783Y-56008645D01*
X143859783Y-55939432D01*
X143779195Y-55885279D01*
X143779190Y-55885276D01*
X143774542Y-55882153D01*
X143769410Y-55879900D01*
X143769406Y-55879898D01*
X143630511Y-55818927D01*
X143566876Y-55790993D01*
X143533122Y-55782890D01*
X143351808Y-55739360D01*
X143351802Y-55739359D01*
X143346349Y-55738050D01*
X143233140Y-55731522D01*
X143125537Y-55725317D01*
X143125534Y-55725317D01*
X143119931Y-55724994D01*
X142894781Y-55752241D01*
X142889419Y-55753891D01*
X142889417Y-55753891D01*
X142870408Y-55759739D01*
X142678013Y-55818927D01*
X142673029Y-55821499D01*
X142673030Y-55821499D01*
X142520638Y-55900155D01*
X142476481Y-55922946D01*
X142472033Y-55926359D01*
X142464532Y-55932115D01*
X142296553Y-56061009D01*
X142245397Y-56117229D01*
X142203840Y-56162900D01*
X142143919Y-56228752D01*
X142140938Y-56233503D01*
X142140938Y-56233504D01*
X142064275Y-56355716D01*
X142023401Y-56420874D01*
X142021215Y-56426313D01*
X142006103Y-56463905D01*
X141962136Y-56519649D01*
X141895011Y-56542774D01*
X141826040Y-56525937D01*
X141775470Y-56471152D01*
X141720410Y-56355716D01*
X141720409Y-56355715D01*
X141717993Y-56350649D01*
X141585649Y-56166474D01*
X141481474Y-56065521D01*
X141426811Y-56012548D01*
X141426808Y-56012546D01*
X141422783Y-56008645D01*
X141319783Y-55939432D01*
X141239195Y-55885279D01*
X141239190Y-55885276D01*
X141234542Y-55882153D01*
X141229410Y-55879900D01*
X141229406Y-55879898D01*
X141090511Y-55818927D01*
X141026876Y-55790993D01*
X140993122Y-55782890D01*
X140811808Y-55739360D01*
X140811802Y-55739359D01*
X140806349Y-55738050D01*
X140693140Y-55731522D01*
X140585537Y-55725317D01*
X140585534Y-55725317D01*
X140579931Y-55724994D01*
X140354781Y-55752241D01*
X140349419Y-55753891D01*
X140349417Y-55753891D01*
X140330408Y-55759739D01*
X140138013Y-55818927D01*
X140133029Y-55821499D01*
X140133030Y-55821499D01*
X139980638Y-55900155D01*
X139936481Y-55922946D01*
X139932033Y-55926359D01*
X139924532Y-55932115D01*
X139756553Y-56061009D01*
X139705397Y-56117229D01*
X139663840Y-56162900D01*
X139603919Y-56228752D01*
X139600938Y-56233503D01*
X139600938Y-56233504D01*
X139524275Y-56355716D01*
X139483401Y-56420874D01*
X139465849Y-56464537D01*
X139421884Y-56520279D01*
X139354759Y-56543404D01*
X139285788Y-56526567D01*
X139235217Y-56471783D01*
X139179972Y-56355959D01*
X139174290Y-56346352D01*
X139048541Y-56171356D01*
X139041242Y-56162900D01*
X138886500Y-56012944D01*
X138877803Y-56005902D01*
X138698960Y-55885724D01*
X138689157Y-55880335D01*
X138491857Y-55793726D01*
X138481262Y-55790160D01*
X138351615Y-55759034D01*
X138337530Y-55759739D01*
X138334000Y-55768618D01*
X138334000Y-57500000D01*
X137826000Y-57500000D01*
X137826000Y-55769502D01*
X137821894Y-55755520D01*
X137811648Y-55753930D01*
X137809525Y-55754381D01*
X137603565Y-55817743D01*
X137593220Y-55821964D01*
X137401733Y-55920798D01*
X137392302Y-55926783D01*
X137221337Y-56057968D01*
X137213124Y-56065521D01*
X137068091Y-56224910D01*
X137061336Y-56233810D01*
X136946834Y-56416343D01*
X136941753Y-56426313D01*
X136926395Y-56464517D01*
X136882428Y-56520261D01*
X136815303Y-56543386D01*
X136746332Y-56526549D01*
X136695762Y-56471764D01*
X136640410Y-56355716D01*
X136640409Y-56355715D01*
X136637993Y-56350649D01*
X136505649Y-56166474D01*
X136401474Y-56065521D01*
X136346811Y-56012548D01*
X136346808Y-56012546D01*
X136342783Y-56008645D01*
X136343147Y-56008269D01*
X136304853Y-55952832D01*
X136298500Y-55913328D01*
X136298500Y-55607069D01*
X136299933Y-55588118D01*
X136302099Y-55573883D01*
X136302099Y-55573881D01*
X136303199Y-55566651D01*
X136298915Y-55513982D01*
X136298500Y-55503767D01*
X136298500Y-55495707D01*
X136295211Y-55467493D01*
X136294778Y-55463118D01*
X136289454Y-55397661D01*
X136289453Y-55397658D01*
X136288860Y-55390363D01*
X136286604Y-55383399D01*
X136285413Y-55377440D01*
X136284029Y-55371585D01*
X136283182Y-55364319D01*
X136258265Y-55295673D01*
X136256848Y-55291545D01*
X136236607Y-55229064D01*
X136236606Y-55229062D01*
X136234351Y-55222101D01*
X136230555Y-55215846D01*
X136228049Y-55210372D01*
X136225330Y-55204942D01*
X136222833Y-55198063D01*
X136182809Y-55137016D01*
X136180472Y-55133312D01*
X136145509Y-55075693D01*
X136145505Y-55075688D01*
X136142595Y-55070892D01*
X136138850Y-55066651D01*
X136135197Y-55062516D01*
X136135223Y-55062493D01*
X136132574Y-55059503D01*
X136129866Y-55056264D01*
X136125856Y-55050148D01*
X136120549Y-55045121D01*
X136120546Y-55045117D01*
X136069617Y-54996872D01*
X136067175Y-54994494D01*
X135583770Y-54511089D01*
X135571384Y-54496677D01*
X135562851Y-54485082D01*
X135562846Y-54485077D01*
X135558508Y-54479182D01*
X135552930Y-54474443D01*
X135552927Y-54474440D01*
X135518232Y-54444965D01*
X135510716Y-54438035D01*
X135505021Y-54432340D01*
X135488736Y-54419456D01*
X135482749Y-54414719D01*
X135479345Y-54411928D01*
X135429297Y-54369409D01*
X135429295Y-54369408D01*
X135423715Y-54364667D01*
X135417199Y-54361339D01*
X135412150Y-54357972D01*
X135407021Y-54354805D01*
X135401284Y-54350266D01*
X135335125Y-54319345D01*
X135331225Y-54317439D01*
X135266192Y-54284231D01*
X135259084Y-54282492D01*
X135253441Y-54280393D01*
X135247678Y-54278476D01*
X135241050Y-54275378D01*
X135169583Y-54260513D01*
X135165299Y-54259543D01*
X135094390Y-54242192D01*
X135088788Y-54241844D01*
X135088785Y-54241844D01*
X135083236Y-54241500D01*
X135083238Y-54241464D01*
X135079245Y-54241225D01*
X135075053Y-54240851D01*
X135067885Y-54239360D01*
X135004120Y-54241085D01*
X134990479Y-54241454D01*
X134987072Y-54241500D01*
X132067070Y-54241500D01*
X132048120Y-54240067D01*
X132033885Y-54237901D01*
X132033881Y-54237901D01*
X132026651Y-54236801D01*
X132019359Y-54237394D01*
X132019356Y-54237394D01*
X131973982Y-54241085D01*
X131963767Y-54241500D01*
X131955707Y-54241500D01*
X131952073Y-54241924D01*
X131952067Y-54241924D01*
X131939042Y-54243443D01*
X131927480Y-54244791D01*
X131923132Y-54245221D01*
X131901059Y-54247016D01*
X131857662Y-54250546D01*
X131857659Y-54250547D01*
X131850364Y-54251140D01*
X131843400Y-54253396D01*
X131837461Y-54254583D01*
X131831590Y-54255970D01*
X131824319Y-54256818D01*
X131817443Y-54259314D01*
X131817434Y-54259316D01*
X131755702Y-54281725D01*
X131751598Y-54283135D01*
X131682101Y-54305648D01*
X131675846Y-54309444D01*
X131670387Y-54311943D01*
X131664939Y-54314671D01*
X131658063Y-54317167D01*
X131597010Y-54357195D01*
X131593337Y-54359513D01*
X131530893Y-54397405D01*
X131522517Y-54404802D01*
X131522493Y-54404775D01*
X131519499Y-54407430D01*
X131516268Y-54410132D01*
X131510148Y-54414144D01*
X131480951Y-54444965D01*
X131456872Y-54470383D01*
X131454494Y-54472825D01*
X130511089Y-55416230D01*
X130496677Y-55428616D01*
X130485082Y-55437149D01*
X130485077Y-55437154D01*
X130479182Y-55441492D01*
X130474443Y-55447070D01*
X130474440Y-55447073D01*
X130444965Y-55481768D01*
X130438035Y-55489284D01*
X130432340Y-55494979D01*
X130430060Y-55497861D01*
X130414719Y-55517251D01*
X130411928Y-55520655D01*
X130369409Y-55570703D01*
X130364667Y-55576285D01*
X130361339Y-55582801D01*
X130357972Y-55587850D01*
X130354805Y-55592979D01*
X130350266Y-55598716D01*
X130319345Y-55664875D01*
X130317442Y-55668769D01*
X130284231Y-55733808D01*
X130282492Y-55740916D01*
X130280393Y-55746559D01*
X130278476Y-55752322D01*
X130275378Y-55758950D01*
X130261496Y-55825693D01*
X130260514Y-55830412D01*
X130259544Y-55834696D01*
X130242192Y-55905610D01*
X130241500Y-55916764D01*
X130241464Y-55916762D01*
X130241225Y-55920755D01*
X130240851Y-55924947D01*
X130239360Y-55932115D01*
X130239558Y-55939432D01*
X130241454Y-56009521D01*
X130241500Y-56012928D01*
X130241500Y-57374000D01*
X130221498Y-57442121D01*
X130167842Y-57488614D01*
X130115500Y-57500000D01*
X122556500Y-57500000D01*
X122488379Y-57479998D01*
X122441886Y-57426342D01*
X122430500Y-57374000D01*
X122430500Y-56942465D01*
X122427973Y-56914144D01*
X122419317Y-56817167D01*
X122415474Y-56774105D01*
X122355630Y-56555349D01*
X122351405Y-56546490D01*
X122260410Y-56355716D01*
X122260409Y-56355715D01*
X122257993Y-56350649D01*
X122125649Y-56166474D01*
X122021474Y-56065521D01*
X121966811Y-56012548D01*
X121966808Y-56012546D01*
X121962783Y-56008645D01*
X121859783Y-55939432D01*
X121779195Y-55885279D01*
X121779190Y-55885276D01*
X121774542Y-55882153D01*
X121769410Y-55879900D01*
X121769406Y-55879898D01*
X121630511Y-55818927D01*
X121566876Y-55790993D01*
X121533122Y-55782890D01*
X121351808Y-55739360D01*
X121351802Y-55739359D01*
X121346349Y-55738050D01*
X121233140Y-55731522D01*
X121125537Y-55725317D01*
X121125534Y-55725317D01*
X121119931Y-55724994D01*
X120894781Y-55752241D01*
X120889419Y-55753891D01*
X120889417Y-55753891D01*
X120870408Y-55759739D01*
X120678013Y-55818927D01*
X120673029Y-55821499D01*
X120673030Y-55821499D01*
X120520638Y-55900155D01*
X120476481Y-55922946D01*
X120472033Y-55926359D01*
X120464532Y-55932115D01*
X120296553Y-56061009D01*
X120245397Y-56117229D01*
X120203840Y-56162900D01*
X120143919Y-56228752D01*
X120140938Y-56233503D01*
X120140938Y-56233504D01*
X120064275Y-56355716D01*
X120023401Y-56420874D01*
X120021215Y-56426313D01*
X120006103Y-56463905D01*
X119962136Y-56519649D01*
X119895011Y-56542774D01*
X119826040Y-56525937D01*
X119775470Y-56471152D01*
X119720410Y-56355716D01*
X119720409Y-56355715D01*
X119717993Y-56350649D01*
X119585649Y-56166474D01*
X119481474Y-56065521D01*
X119426811Y-56012548D01*
X119426808Y-56012546D01*
X119422783Y-56008645D01*
X119319783Y-55939432D01*
X119239195Y-55885279D01*
X119239190Y-55885276D01*
X119234542Y-55882153D01*
X119229410Y-55879900D01*
X119229406Y-55879898D01*
X119090511Y-55818927D01*
X119026876Y-55790993D01*
X118993122Y-55782890D01*
X118811808Y-55739360D01*
X118811802Y-55739359D01*
X118806349Y-55738050D01*
X118693140Y-55731522D01*
X118585537Y-55725317D01*
X118585534Y-55725317D01*
X118579931Y-55724994D01*
X118354781Y-55752241D01*
X118349419Y-55753891D01*
X118349417Y-55753891D01*
X118330408Y-55759739D01*
X118138013Y-55818927D01*
X118133029Y-55821499D01*
X118133030Y-55821499D01*
X117980638Y-55900155D01*
X117936481Y-55922946D01*
X117932033Y-55926359D01*
X117924532Y-55932115D01*
X117756553Y-56061009D01*
X117705397Y-56117229D01*
X117663840Y-56162900D01*
X117603919Y-56228752D01*
X117600938Y-56233503D01*
X117600938Y-56233504D01*
X117524275Y-56355716D01*
X117483401Y-56420874D01*
X117465849Y-56464537D01*
X117421884Y-56520279D01*
X117354759Y-56543404D01*
X117285788Y-56526567D01*
X117235217Y-56471783D01*
X117179972Y-56355959D01*
X117174290Y-56346352D01*
X117048541Y-56171356D01*
X117041242Y-56162900D01*
X116886500Y-56012944D01*
X116877803Y-56005902D01*
X116698960Y-55885724D01*
X116689157Y-55880335D01*
X116491857Y-55793726D01*
X116481262Y-55790160D01*
X116351615Y-55759034D01*
X116337530Y-55759739D01*
X116334000Y-55768618D01*
X116334000Y-57500000D01*
X115826000Y-57500000D01*
X115826000Y-55769502D01*
X115821894Y-55755520D01*
X115811648Y-55753930D01*
X115809525Y-55754381D01*
X115603565Y-55817743D01*
X115593220Y-55821964D01*
X115401733Y-55920798D01*
X115392302Y-55926783D01*
X115221337Y-56057968D01*
X115213124Y-56065521D01*
X115068091Y-56224910D01*
X115061336Y-56233810D01*
X114946834Y-56416343D01*
X114941753Y-56426313D01*
X114926395Y-56464517D01*
X114882428Y-56520261D01*
X114815303Y-56543386D01*
X114746332Y-56526549D01*
X114695762Y-56471764D01*
X114640410Y-56355716D01*
X114640409Y-56355715D01*
X114637993Y-56350649D01*
X114505649Y-56166474D01*
X114401474Y-56065521D01*
X114346811Y-56012548D01*
X114346808Y-56012546D01*
X114342783Y-56008645D01*
X114343147Y-56008269D01*
X114304853Y-55952832D01*
X114298500Y-55913328D01*
X114298500Y-55107069D01*
X114299933Y-55088118D01*
X114302099Y-55073883D01*
X114302099Y-55073881D01*
X114303199Y-55066651D01*
X114301448Y-55045117D01*
X114298915Y-55013982D01*
X114298500Y-55003767D01*
X114298500Y-54995707D01*
X114295211Y-54967493D01*
X114294778Y-54963118D01*
X114289454Y-54897661D01*
X114289453Y-54897658D01*
X114288860Y-54890363D01*
X114286604Y-54883399D01*
X114285413Y-54877440D01*
X114284029Y-54871585D01*
X114283182Y-54864319D01*
X114258265Y-54795673D01*
X114256848Y-54791545D01*
X114236607Y-54729064D01*
X114236606Y-54729062D01*
X114234351Y-54722101D01*
X114230555Y-54715846D01*
X114228049Y-54710372D01*
X114225330Y-54704942D01*
X114222833Y-54698063D01*
X114182809Y-54637016D01*
X114180472Y-54633312D01*
X114177236Y-54627978D01*
X114165494Y-54608629D01*
X114145509Y-54575693D01*
X114145505Y-54575688D01*
X114142595Y-54570892D01*
X114135197Y-54562516D01*
X114135223Y-54562493D01*
X114132574Y-54559503D01*
X114129866Y-54556264D01*
X114125856Y-54550148D01*
X114120549Y-54545121D01*
X114120546Y-54545117D01*
X114069617Y-54496872D01*
X114067175Y-54494494D01*
X113583770Y-54011089D01*
X113571384Y-53996677D01*
X113562851Y-53985082D01*
X113562846Y-53985077D01*
X113558508Y-53979182D01*
X113552930Y-53974443D01*
X113552927Y-53974440D01*
X113518232Y-53944965D01*
X113510716Y-53938035D01*
X113505021Y-53932340D01*
X113498880Y-53927482D01*
X113482749Y-53914719D01*
X113479345Y-53911928D01*
X113429297Y-53869409D01*
X113429295Y-53869408D01*
X113423715Y-53864667D01*
X113417199Y-53861339D01*
X113412150Y-53857972D01*
X113407021Y-53854805D01*
X113401284Y-53850266D01*
X113335125Y-53819345D01*
X113331225Y-53817439D01*
X113266192Y-53784231D01*
X113259084Y-53782492D01*
X113253441Y-53780393D01*
X113247678Y-53778476D01*
X113241050Y-53775378D01*
X113169583Y-53760513D01*
X113165299Y-53759543D01*
X113130958Y-53751140D01*
X113094390Y-53742192D01*
X113088788Y-53741844D01*
X113088785Y-53741844D01*
X113083236Y-53741500D01*
X113083238Y-53741464D01*
X113079245Y-53741225D01*
X113075053Y-53740851D01*
X113067885Y-53739360D01*
X113004120Y-53741085D01*
X112990479Y-53741454D01*
X112987072Y-53741500D01*
X110567063Y-53741500D01*
X110548114Y-53740067D01*
X110547907Y-53740036D01*
X110526651Y-53736802D01*
X110519359Y-53737395D01*
X110519356Y-53737395D01*
X110473991Y-53741085D01*
X110463777Y-53741500D01*
X110455707Y-53741500D01*
X110452087Y-53741922D01*
X110452069Y-53741923D01*
X110427461Y-53744792D01*
X110423100Y-53745224D01*
X110397981Y-53747267D01*
X110357661Y-53750546D01*
X110357658Y-53750547D01*
X110350363Y-53751140D01*
X110343399Y-53753396D01*
X110337440Y-53754587D01*
X110331585Y-53755971D01*
X110324319Y-53756818D01*
X110255673Y-53781735D01*
X110251545Y-53783152D01*
X110189064Y-53803393D01*
X110189062Y-53803394D01*
X110182101Y-53805649D01*
X110175846Y-53809445D01*
X110170372Y-53811951D01*
X110164942Y-53814670D01*
X110158063Y-53817167D01*
X110097016Y-53857191D01*
X110093327Y-53859518D01*
X110084843Y-53864667D01*
X110035693Y-53894491D01*
X110035688Y-53894495D01*
X110030892Y-53897405D01*
X110022516Y-53904803D01*
X110022493Y-53904777D01*
X110019503Y-53907426D01*
X110016264Y-53910134D01*
X110010148Y-53914144D01*
X110005121Y-53919451D01*
X110005117Y-53919454D01*
X109956872Y-53970383D01*
X109954494Y-53972825D01*
X108511089Y-55416230D01*
X108496677Y-55428616D01*
X108485082Y-55437149D01*
X108485077Y-55437154D01*
X108479182Y-55441492D01*
X108474443Y-55447070D01*
X108474440Y-55447073D01*
X108444965Y-55481768D01*
X108438035Y-55489284D01*
X108432340Y-55494979D01*
X108430060Y-55497861D01*
X108414719Y-55517251D01*
X108411928Y-55520655D01*
X108369409Y-55570703D01*
X108364667Y-55576285D01*
X108361339Y-55582801D01*
X108357972Y-55587850D01*
X108354805Y-55592979D01*
X108350266Y-55598716D01*
X108319345Y-55664875D01*
X108317442Y-55668769D01*
X108284231Y-55733808D01*
X108282492Y-55740916D01*
X108280393Y-55746559D01*
X108278476Y-55752322D01*
X108275378Y-55758950D01*
X108261496Y-55825693D01*
X108260514Y-55830412D01*
X108259544Y-55834696D01*
X108242192Y-55905610D01*
X108241500Y-55916764D01*
X108241464Y-55916762D01*
X108241225Y-55920755D01*
X108240851Y-55924947D01*
X108239360Y-55932115D01*
X108239558Y-55939432D01*
X108241454Y-56009521D01*
X108241500Y-56012928D01*
X108241500Y-57374000D01*
X108221498Y-57442121D01*
X108167842Y-57488614D01*
X108115500Y-57500000D01*
X100556500Y-57500000D01*
X100488379Y-57479998D01*
X100441886Y-57426342D01*
X100430500Y-57374000D01*
X100430500Y-56942465D01*
X100427973Y-56914144D01*
X100419317Y-56817167D01*
X100415474Y-56774105D01*
X100355630Y-56555349D01*
X100351405Y-56546490D01*
X100260410Y-56355716D01*
X100260409Y-56355715D01*
X100257993Y-56350649D01*
X100125649Y-56166474D01*
X100021474Y-56065521D01*
X99966811Y-56012548D01*
X99966808Y-56012546D01*
X99962783Y-56008645D01*
X99859783Y-55939432D01*
X99779195Y-55885279D01*
X99779190Y-55885276D01*
X99774542Y-55882153D01*
X99769410Y-55879900D01*
X99769406Y-55879898D01*
X99630511Y-55818927D01*
X99566876Y-55790993D01*
X99533122Y-55782890D01*
X99351808Y-55739360D01*
X99351802Y-55739359D01*
X99346349Y-55738050D01*
X99233140Y-55731522D01*
X99125537Y-55725317D01*
X99125534Y-55725317D01*
X99119931Y-55724994D01*
X98894781Y-55752241D01*
X98889419Y-55753891D01*
X98889417Y-55753891D01*
X98870408Y-55759739D01*
X98678013Y-55818927D01*
X98673029Y-55821499D01*
X98673030Y-55821499D01*
X98520638Y-55900155D01*
X98476481Y-55922946D01*
X98472033Y-55926359D01*
X98464532Y-55932115D01*
X98296553Y-56061009D01*
X98245397Y-56117229D01*
X98203840Y-56162900D01*
X98143919Y-56228752D01*
X98140938Y-56233503D01*
X98140938Y-56233504D01*
X98064275Y-56355716D01*
X98023401Y-56420874D01*
X98021215Y-56426313D01*
X98006103Y-56463905D01*
X97962136Y-56519649D01*
X97895011Y-56542774D01*
X97826040Y-56525937D01*
X97775470Y-56471152D01*
X97720410Y-56355716D01*
X97720409Y-56355715D01*
X97717993Y-56350649D01*
X97585649Y-56166474D01*
X97481474Y-56065521D01*
X97426811Y-56012548D01*
X97426808Y-56012546D01*
X97422783Y-56008645D01*
X97319783Y-55939432D01*
X97239195Y-55885279D01*
X97239190Y-55885276D01*
X97234542Y-55882153D01*
X97229410Y-55879900D01*
X97229406Y-55879898D01*
X97090511Y-55818927D01*
X97026876Y-55790993D01*
X96993122Y-55782890D01*
X96811808Y-55739360D01*
X96811802Y-55739359D01*
X96806349Y-55738050D01*
X96693140Y-55731522D01*
X96585537Y-55725317D01*
X96585534Y-55725317D01*
X96579931Y-55724994D01*
X96354781Y-55752241D01*
X96349419Y-55753891D01*
X96349417Y-55753891D01*
X96330408Y-55759739D01*
X96138013Y-55818927D01*
X96133029Y-55821499D01*
X96133030Y-55821499D01*
X95980638Y-55900155D01*
X95936481Y-55922946D01*
X95932033Y-55926359D01*
X95924532Y-55932115D01*
X95756553Y-56061009D01*
X95705397Y-56117229D01*
X95663840Y-56162900D01*
X95603919Y-56228752D01*
X95600938Y-56233503D01*
X95600938Y-56233504D01*
X95524275Y-56355716D01*
X95483401Y-56420874D01*
X95465849Y-56464537D01*
X95421884Y-56520279D01*
X95354759Y-56543404D01*
X95285788Y-56526567D01*
X95235217Y-56471783D01*
X95179972Y-56355959D01*
X95174290Y-56346352D01*
X95048541Y-56171356D01*
X95041242Y-56162900D01*
X94886500Y-56012944D01*
X94877803Y-56005902D01*
X94698960Y-55885724D01*
X94689157Y-55880335D01*
X94491857Y-55793726D01*
X94481262Y-55790160D01*
X94351615Y-55759034D01*
X94337530Y-55759739D01*
X94334000Y-55768618D01*
X94334000Y-57500000D01*
X93826000Y-57500000D01*
X93826000Y-55769502D01*
X93821894Y-55755520D01*
X93811648Y-55753930D01*
X93809525Y-55754381D01*
X93603565Y-55817743D01*
X93593220Y-55821964D01*
X93401733Y-55920798D01*
X93392302Y-55926783D01*
X93221337Y-56057968D01*
X93213124Y-56065521D01*
X93068091Y-56224910D01*
X93061336Y-56233810D01*
X92946834Y-56416343D01*
X92941753Y-56426313D01*
X92926395Y-56464517D01*
X92882428Y-56520261D01*
X92815303Y-56543386D01*
X92746332Y-56526549D01*
X92695762Y-56471764D01*
X92640410Y-56355716D01*
X92640409Y-56355715D01*
X92637993Y-56350649D01*
X92505649Y-56166474D01*
X92401474Y-56065521D01*
X92346811Y-56012548D01*
X92346808Y-56012546D01*
X92342783Y-56008645D01*
X92239783Y-55939432D01*
X92220504Y-55926477D01*
X92185415Y-55890991D01*
X92182811Y-55887019D01*
X92180472Y-55883312D01*
X92178401Y-55879898D01*
X92148372Y-55830412D01*
X92145509Y-55825693D01*
X92145505Y-55825688D01*
X92142595Y-55820892D01*
X92135197Y-55812516D01*
X92135223Y-55812493D01*
X92132574Y-55809503D01*
X92129866Y-55806264D01*
X92125856Y-55800148D01*
X92120549Y-55795121D01*
X92120546Y-55795117D01*
X92069617Y-55746872D01*
X92067175Y-55744494D01*
X91621760Y-55299079D01*
X91609374Y-55284667D01*
X91600841Y-55273072D01*
X91600836Y-55273067D01*
X91596498Y-55267172D01*
X91590920Y-55262433D01*
X91590917Y-55262430D01*
X91556222Y-55232955D01*
X91548706Y-55226025D01*
X91543011Y-55220330D01*
X91530773Y-55210648D01*
X91520739Y-55202709D01*
X91517335Y-55199918D01*
X91467287Y-55157399D01*
X91467285Y-55157398D01*
X91461705Y-55152657D01*
X91455189Y-55149329D01*
X91450140Y-55145962D01*
X91445011Y-55142795D01*
X91439274Y-55138256D01*
X91373115Y-55107335D01*
X91369215Y-55105429D01*
X91304182Y-55072221D01*
X91297074Y-55070482D01*
X91291431Y-55068383D01*
X91285668Y-55066466D01*
X91279040Y-55063368D01*
X91260459Y-55059503D01*
X91207578Y-55048504D01*
X91203289Y-55047533D01*
X91132380Y-55030182D01*
X91126778Y-55029834D01*
X91126775Y-55029834D01*
X91121226Y-55029490D01*
X91121228Y-55029454D01*
X91117235Y-55029215D01*
X91113043Y-55028841D01*
X91105875Y-55027350D01*
X91042110Y-55029075D01*
X91028469Y-55029444D01*
X91025062Y-55029490D01*
X83065080Y-55029490D01*
X83046130Y-55028057D01*
X83031895Y-55025891D01*
X83031891Y-55025891D01*
X83024661Y-55024791D01*
X83017369Y-55025384D01*
X83017366Y-55025384D01*
X82971992Y-55029075D01*
X82961777Y-55029490D01*
X82953717Y-55029490D01*
X82950083Y-55029914D01*
X82950077Y-55029914D01*
X82937052Y-55031433D01*
X82925490Y-55032781D01*
X82921142Y-55033211D01*
X82899069Y-55035006D01*
X82855672Y-55038536D01*
X82855669Y-55038537D01*
X82848374Y-55039130D01*
X82841410Y-55041386D01*
X82835471Y-55042573D01*
X82829600Y-55043960D01*
X82822329Y-55044808D01*
X82815453Y-55047304D01*
X82815444Y-55047306D01*
X82753712Y-55069715D01*
X82749608Y-55071125D01*
X82680111Y-55093638D01*
X82673856Y-55097434D01*
X82668397Y-55099933D01*
X82662949Y-55102661D01*
X82656073Y-55105157D01*
X82595020Y-55145185D01*
X82591347Y-55147503D01*
X82528903Y-55185395D01*
X82520527Y-55192792D01*
X82520503Y-55192765D01*
X82517509Y-55195420D01*
X82514278Y-55198122D01*
X82508158Y-55202134D01*
X82478961Y-55232955D01*
X82454882Y-55258373D01*
X82452504Y-55260815D01*
X80250224Y-57463095D01*
X80187912Y-57497121D01*
X80161129Y-57500000D01*
X58011008Y-57500000D01*
X57942887Y-57479998D01*
X57896394Y-57426342D01*
X57886290Y-57356068D01*
X57913088Y-57294705D01*
X58001873Y-57185065D01*
X58005754Y-57179724D01*
X58213831Y-56859313D01*
X58217128Y-56853603D01*
X58390578Y-56513189D01*
X58393260Y-56507164D01*
X58530171Y-56150498D01*
X58532212Y-56144216D01*
X58631094Y-55775184D01*
X58632465Y-55768734D01*
X58692234Y-55391371D01*
X58692920Y-55384833D01*
X58712916Y-55003301D01*
X58712916Y-54996699D01*
X58692920Y-54615167D01*
X58692234Y-54608629D01*
X58632465Y-54231266D01*
X58631094Y-54224816D01*
X58532212Y-53855784D01*
X58530171Y-53849502D01*
X58393260Y-53492836D01*
X58390578Y-53486811D01*
X58217128Y-53146397D01*
X58213831Y-53140687D01*
X58005747Y-52820265D01*
X58001877Y-52814939D01*
X57808522Y-52576165D01*
X57796267Y-52567700D01*
X57785176Y-52574034D01*
X55089095Y-55270115D01*
X55026783Y-55304141D01*
X54955968Y-55299076D01*
X54910905Y-55270115D01*
X52215690Y-52574900D01*
X52202614Y-52567759D01*
X52192247Y-52575216D01*
X51998123Y-52814939D01*
X51994253Y-52820265D01*
X51786169Y-53140687D01*
X51782872Y-53146397D01*
X51609422Y-53486811D01*
X51606740Y-53492836D01*
X51469829Y-53849502D01*
X51467788Y-53855784D01*
X51368906Y-54224816D01*
X51367535Y-54231266D01*
X51307766Y-54608629D01*
X51307080Y-54615167D01*
X51287084Y-54996699D01*
X51287084Y-55003301D01*
X51307080Y-55384833D01*
X51307766Y-55391371D01*
X51367535Y-55768734D01*
X51368906Y-55775184D01*
X51467788Y-56144216D01*
X51469829Y-56150498D01*
X51606740Y-56507164D01*
X51609422Y-56513189D01*
X51782872Y-56853603D01*
X51786169Y-56859313D01*
X51994246Y-57179724D01*
X51998134Y-57185075D01*
X52238552Y-57481966D01*
X52242981Y-57486885D01*
X52256096Y-57500000D01*
X50508500Y-57500000D01*
X50508500Y-52203733D01*
X52567700Y-52203733D01*
X52574034Y-52214824D01*
X54987188Y-54627978D01*
X55001132Y-54635592D01*
X55002965Y-54635461D01*
X55009580Y-54631210D01*
X57425100Y-52215690D01*
X57431630Y-52203733D01*
X182567700Y-52203733D01*
X182574034Y-52214824D01*
X184987188Y-54627978D01*
X185001132Y-54635592D01*
X185002965Y-54635461D01*
X185009580Y-54631210D01*
X187425100Y-52215690D01*
X187432241Y-52202614D01*
X187424784Y-52192247D01*
X187185065Y-51998126D01*
X187179728Y-51994249D01*
X186859315Y-51786170D01*
X186853606Y-51782873D01*
X186513189Y-51609422D01*
X186507164Y-51606740D01*
X186150498Y-51469829D01*
X186144216Y-51467788D01*
X185775184Y-51368906D01*
X185768734Y-51367535D01*
X185391371Y-51307766D01*
X185384833Y-51307080D01*
X185003301Y-51287084D01*
X184996699Y-51287084D01*
X184615167Y-51307080D01*
X184608629Y-51307766D01*
X184231266Y-51367535D01*
X184224816Y-51368906D01*
X183855784Y-51467788D01*
X183849502Y-51469829D01*
X183492836Y-51606740D01*
X183486811Y-51609422D01*
X183146397Y-51782872D01*
X183140687Y-51786169D01*
X182820265Y-51994253D01*
X182814939Y-51998123D01*
X182576165Y-52191478D01*
X182567700Y-52203733D01*
X57431630Y-52203733D01*
X57432241Y-52202614D01*
X57424784Y-52192247D01*
X57185065Y-51998126D01*
X57179728Y-51994249D01*
X56859315Y-51786170D01*
X56853606Y-51782873D01*
X56513189Y-51609422D01*
X56507164Y-51606740D01*
X56150498Y-51469829D01*
X56144216Y-51467788D01*
X55775184Y-51368906D01*
X55768734Y-51367535D01*
X55391371Y-51307766D01*
X55384833Y-51307080D01*
X55003301Y-51287084D01*
X54996699Y-51287084D01*
X54615167Y-51307080D01*
X54608629Y-51307766D01*
X54231266Y-51367535D01*
X54224816Y-51368906D01*
X53855784Y-51467788D01*
X53849502Y-51469829D01*
X53492836Y-51606740D01*
X53486811Y-51609422D01*
X53146397Y-51782872D01*
X53140687Y-51786169D01*
X52820265Y-51994253D01*
X52814939Y-51998123D01*
X52576165Y-52191478D01*
X52567700Y-52203733D01*
X50508500Y-52203733D01*
X50508500Y-50634500D01*
X50528502Y-50566379D01*
X50582158Y-50519886D01*
X50634500Y-50508500D01*
X189365500Y-50508500D01*
X189433621Y-50528502D01*
G37*
%TD.AperFunction*%
%TA.AperFunction,Conductor*%
G36*
X53837708Y-55907248D02*
G01*
X53882771Y-55936209D01*
X54063791Y-56117229D01*
X54097817Y-56179541D01*
X54092752Y-56250356D01*
X54063791Y-56295419D01*
X52901307Y-57457903D01*
X52838995Y-57491929D01*
X52768180Y-57486864D01*
X52723117Y-57457903D01*
X52542097Y-57276883D01*
X52508071Y-57214571D01*
X52513136Y-57143756D01*
X52542097Y-57098693D01*
X53704581Y-55936209D01*
X53766893Y-55902183D01*
X53837708Y-55907248D01*
G37*
%TD.AperFunction*%
%TA.AperFunction,Conductor*%
G36*
X56250356Y-55907248D02*
G01*
X56295419Y-55936209D01*
X57457903Y-57098693D01*
X57491929Y-57161005D01*
X57486864Y-57231820D01*
X57457903Y-57276883D01*
X57276883Y-57457903D01*
X57214571Y-57491929D01*
X57143756Y-57486864D01*
X57098693Y-57457903D01*
X55936209Y-56295419D01*
X55902183Y-56233107D01*
X55907248Y-56162292D01*
X55936209Y-56117229D01*
X56117229Y-55936209D01*
X56179541Y-55902183D01*
X56250356Y-55907248D01*
G37*
%TD.AperFunction*%
%TA.AperFunction,Conductor*%
G36*
X183837708Y-55907248D02*
G01*
X183882771Y-55936209D01*
X184063791Y-56117229D01*
X184097817Y-56179541D01*
X184092752Y-56250356D01*
X184063791Y-56295419D01*
X182901307Y-57457903D01*
X182838995Y-57491929D01*
X182768180Y-57486864D01*
X182723117Y-57457903D01*
X182542097Y-57276883D01*
X182508071Y-57214571D01*
X182513136Y-57143756D01*
X182542097Y-57098693D01*
X183704581Y-55936209D01*
X183766893Y-55902183D01*
X183837708Y-55907248D01*
G37*
%TD.AperFunction*%
%TA.AperFunction,Conductor*%
G36*
X186250356Y-55907248D02*
G01*
X186295419Y-55936209D01*
X187457903Y-57098693D01*
X187491929Y-57161005D01*
X187486864Y-57231820D01*
X187457903Y-57276883D01*
X187276883Y-57457903D01*
X187214571Y-57491929D01*
X187143756Y-57486864D01*
X187098693Y-57457903D01*
X185936209Y-56295419D01*
X185902183Y-56233107D01*
X185907248Y-56162292D01*
X185936209Y-56117229D01*
X186117229Y-55936209D01*
X186179541Y-55902183D01*
X186250356Y-55907248D01*
G37*
%TD.AperFunction*%
%TD*%
%TA.AperFunction,Conductor*%
%TO.N,+5V*%
G36*
X175019522Y-89020002D02*
G01*
X175036012Y-89032636D01*
X176636758Y-90483312D01*
X182156123Y-95485236D01*
X182958611Y-96212491D01*
X182995656Y-96273056D01*
X183000000Y-96305855D01*
X183000000Y-107874000D01*
X182979998Y-107942121D01*
X182926342Y-107988614D01*
X182874000Y-108000000D01*
X154000000Y-108000000D01*
X154000000Y-106750000D01*
X174500000Y-106750000D01*
X174500000Y-103750000D01*
X174486798Y-103742456D01*
X172981986Y-102882563D01*
X172932764Y-102831399D01*
X172918499Y-102773164D01*
X172918499Y-99336062D01*
X180188493Y-99336062D01*
X180197789Y-99348077D01*
X180248994Y-99383931D01*
X180258489Y-99389414D01*
X180455947Y-99481490D01*
X180466239Y-99485236D01*
X180676688Y-99541625D01*
X180687481Y-99543528D01*
X180904525Y-99562517D01*
X180915475Y-99562517D01*
X181132519Y-99543528D01*
X181143312Y-99541625D01*
X181353761Y-99485236D01*
X181364053Y-99481490D01*
X181561511Y-99389414D01*
X181571006Y-99383931D01*
X181623048Y-99347491D01*
X181631424Y-99337012D01*
X181624356Y-99323566D01*
X180922812Y-98622022D01*
X180908868Y-98614408D01*
X180907035Y-98614539D01*
X180900420Y-98618790D01*
X180194923Y-99324287D01*
X180188493Y-99336062D01*
X172918499Y-99336062D01*
X172918499Y-98255475D01*
X179597483Y-98255475D01*
X179616472Y-98472519D01*
X179618375Y-98483312D01*
X179674764Y-98693761D01*
X179678510Y-98704053D01*
X179770586Y-98901511D01*
X179776069Y-98911006D01*
X179812509Y-98963048D01*
X179822988Y-98971424D01*
X179836434Y-98964356D01*
X180537978Y-98262812D01*
X180544356Y-98251132D01*
X181274408Y-98251132D01*
X181274539Y-98252965D01*
X181278790Y-98259580D01*
X181984287Y-98965077D01*
X181996062Y-98971507D01*
X182008077Y-98962211D01*
X182043931Y-98911006D01*
X182049414Y-98901511D01*
X182141490Y-98704053D01*
X182145236Y-98693761D01*
X182201625Y-98483312D01*
X182203528Y-98472519D01*
X182222517Y-98255475D01*
X182222517Y-98244525D01*
X182203528Y-98027481D01*
X182201625Y-98016688D01*
X182145236Y-97806239D01*
X182141490Y-97795947D01*
X182049414Y-97598489D01*
X182043931Y-97588994D01*
X182007491Y-97536952D01*
X181997012Y-97528576D01*
X181983566Y-97535644D01*
X181282022Y-98237188D01*
X181274408Y-98251132D01*
X180544356Y-98251132D01*
X180545592Y-98248868D01*
X180545461Y-98247035D01*
X180541210Y-98240420D01*
X179835713Y-97534923D01*
X179823938Y-97528493D01*
X179811923Y-97537789D01*
X179776069Y-97588994D01*
X179770586Y-97598489D01*
X179678510Y-97795947D01*
X179674764Y-97806239D01*
X179618375Y-98016688D01*
X179616472Y-98027481D01*
X179597483Y-98244525D01*
X179597483Y-98255475D01*
X172918499Y-98255475D01*
X172918499Y-97162988D01*
X180188576Y-97162988D01*
X180195644Y-97176434D01*
X180897188Y-97877978D01*
X180911132Y-97885592D01*
X180912965Y-97885461D01*
X180919580Y-97881210D01*
X181625077Y-97175713D01*
X181631507Y-97163938D01*
X181622211Y-97151923D01*
X181571006Y-97116069D01*
X181561511Y-97110586D01*
X181364053Y-97018510D01*
X181353761Y-97014764D01*
X181143312Y-96958375D01*
X181132519Y-96956472D01*
X180915475Y-96937483D01*
X180904525Y-96937483D01*
X180687481Y-96956472D01*
X180676688Y-96958375D01*
X180466239Y-97014764D01*
X180455947Y-97018510D01*
X180258489Y-97110586D01*
X180248994Y-97116069D01*
X180196952Y-97152509D01*
X180188576Y-97162988D01*
X172918499Y-97162988D01*
X172918499Y-95336062D01*
X175438493Y-95336062D01*
X175447789Y-95348077D01*
X175498994Y-95383931D01*
X175508489Y-95389414D01*
X175705947Y-95481490D01*
X175716239Y-95485236D01*
X175926688Y-95541625D01*
X175937481Y-95543528D01*
X176154525Y-95562517D01*
X176165475Y-95562517D01*
X176382519Y-95543528D01*
X176393312Y-95541625D01*
X176603761Y-95485236D01*
X176614053Y-95481490D01*
X176811511Y-95389414D01*
X176821006Y-95383931D01*
X176873048Y-95347491D01*
X176881424Y-95337012D01*
X176874356Y-95323566D01*
X176172812Y-94622022D01*
X176158868Y-94614408D01*
X176157035Y-94614539D01*
X176150420Y-94618790D01*
X175444923Y-95324287D01*
X175438493Y-95336062D01*
X172918499Y-95336062D01*
X172918499Y-94255475D01*
X174847483Y-94255475D01*
X174866472Y-94472519D01*
X174868375Y-94483312D01*
X174924764Y-94693761D01*
X174928510Y-94704053D01*
X175020586Y-94901511D01*
X175026069Y-94911006D01*
X175062509Y-94963048D01*
X175072988Y-94971424D01*
X175086434Y-94964356D01*
X175787978Y-94262812D01*
X175794356Y-94251132D01*
X176524408Y-94251132D01*
X176524539Y-94252965D01*
X176528790Y-94259580D01*
X177234287Y-94965077D01*
X177246062Y-94971507D01*
X177258077Y-94962211D01*
X177293931Y-94911006D01*
X177299414Y-94901511D01*
X177391490Y-94704053D01*
X177395236Y-94693761D01*
X177451625Y-94483312D01*
X177453528Y-94472519D01*
X177472517Y-94255475D01*
X177472517Y-94244525D01*
X177453528Y-94027481D01*
X177451625Y-94016688D01*
X177395236Y-93806239D01*
X177391490Y-93795947D01*
X177299414Y-93598489D01*
X177293931Y-93588994D01*
X177257491Y-93536952D01*
X177247012Y-93528576D01*
X177233566Y-93535644D01*
X176532022Y-94237188D01*
X176524408Y-94251132D01*
X175794356Y-94251132D01*
X175795592Y-94248868D01*
X175795461Y-94247035D01*
X175791210Y-94240420D01*
X175085713Y-93534923D01*
X175073938Y-93528493D01*
X175061923Y-93537789D01*
X175026069Y-93588994D01*
X175020586Y-93598489D01*
X174928510Y-93795947D01*
X174924764Y-93806239D01*
X174868375Y-94016688D01*
X174866472Y-94027481D01*
X174847483Y-94244525D01*
X174847483Y-94255475D01*
X172918499Y-94255475D01*
X172918499Y-93162988D01*
X175438576Y-93162988D01*
X175445644Y-93176434D01*
X176147188Y-93877978D01*
X176161132Y-93885592D01*
X176162965Y-93885461D01*
X176169580Y-93881210D01*
X176875077Y-93175713D01*
X176881507Y-93163938D01*
X176872211Y-93151923D01*
X176821006Y-93116069D01*
X176811511Y-93110586D01*
X176614053Y-93018510D01*
X176603761Y-93014764D01*
X176393312Y-92958375D01*
X176382519Y-92956472D01*
X176165475Y-92937483D01*
X176154525Y-92937483D01*
X175937481Y-92956472D01*
X175926688Y-92958375D01*
X175716239Y-93014764D01*
X175705947Y-93018510D01*
X175508489Y-93110586D01*
X175498994Y-93116069D01*
X175446952Y-93152509D01*
X175438576Y-93162988D01*
X172918499Y-93162988D01*
X172918499Y-91636651D01*
X172938501Y-91568530D01*
X172992157Y-91522037D01*
X173062431Y-91511933D01*
X173077110Y-91514944D01*
X173176687Y-91541625D01*
X173187481Y-91543528D01*
X173404525Y-91562517D01*
X173415475Y-91562517D01*
X173632519Y-91543528D01*
X173643312Y-91541625D01*
X173853761Y-91485236D01*
X173864053Y-91481490D01*
X174061511Y-91389414D01*
X174071006Y-91383931D01*
X174123048Y-91347491D01*
X174131424Y-91337012D01*
X174124356Y-91323566D01*
X173139885Y-90339095D01*
X173105859Y-90276783D01*
X173107694Y-90251132D01*
X173774408Y-90251132D01*
X173774539Y-90252965D01*
X173778790Y-90259580D01*
X174484287Y-90965077D01*
X174496062Y-90971507D01*
X174508077Y-90962211D01*
X174543931Y-90911006D01*
X174549414Y-90901511D01*
X174641490Y-90704053D01*
X174645236Y-90693761D01*
X174701625Y-90483312D01*
X174703528Y-90472519D01*
X174722517Y-90255475D01*
X174722517Y-90244525D01*
X174703528Y-90027481D01*
X174701625Y-90016688D01*
X174645236Y-89806239D01*
X174641490Y-89795947D01*
X174549414Y-89598489D01*
X174543931Y-89588994D01*
X174507491Y-89536952D01*
X174497012Y-89528576D01*
X174483566Y-89535644D01*
X173782022Y-90237188D01*
X173774408Y-90251132D01*
X173107694Y-90251132D01*
X173110924Y-90205968D01*
X173139885Y-90160905D01*
X174125077Y-89175713D01*
X174132691Y-89161769D01*
X174130776Y-89134989D01*
X174145867Y-89065615D01*
X174196069Y-89015413D01*
X174256455Y-89000000D01*
X174951401Y-89000000D01*
X175019522Y-89020002D01*
G37*
%TD.AperFunction*%
%TD*%
%TA.AperFunction,Conductor*%
%TO.N,+5V*%
G36*
X85000000Y-109000000D02*
G01*
X63926000Y-109000000D01*
X63857879Y-108979998D01*
X63811386Y-108926342D01*
X63800000Y-108874000D01*
X63800000Y-106800000D01*
X85000000Y-106800000D01*
X85000000Y-109000000D01*
G37*
%TD.AperFunction*%
%TD*%
%TA.AperFunction,Conductor*%
%TO.N,+5V*%
G36*
X130303478Y-108100000D02*
G01*
X130293512Y-108108245D01*
X129160168Y-109045904D01*
X129094932Y-109073916D01*
X129079355Y-109074821D01*
X123287021Y-109052106D01*
X123266069Y-109050268D01*
X123111074Y-109023496D01*
X123111068Y-109023495D01*
X123107164Y-109022821D01*
X123103203Y-109022641D01*
X123103202Y-109022641D01*
X123079494Y-109021564D01*
X123079475Y-109021564D01*
X123078075Y-109021500D01*
X115482739Y-109021500D01*
X115482245Y-109021499D01*
X115482246Y-109021499D01*
X110000000Y-109000000D01*
X110000000Y-106250000D01*
X110254000Y-106249438D01*
X110254000Y-106267967D01*
X110257973Y-106281498D01*
X110266522Y-106282727D01*
X110391897Y-106249133D01*
X112115081Y-106245321D01*
X112147963Y-106249613D01*
X112311913Y-106293543D01*
X112540000Y-106313498D01*
X112768087Y-106293543D01*
X112773400Y-106292119D01*
X112773402Y-106292119D01*
X112939105Y-106247719D01*
X112971437Y-106243426D01*
X114634277Y-106239747D01*
X114667166Y-106244040D01*
X114846598Y-106292119D01*
X114846600Y-106292119D01*
X114851913Y-106293543D01*
X115080000Y-106313498D01*
X115308087Y-106293543D01*
X115313400Y-106292119D01*
X115313402Y-106292119D01*
X115500251Y-106242053D01*
X115532583Y-106237760D01*
X117153476Y-106234174D01*
X117186366Y-106238467D01*
X117386598Y-106292119D01*
X117386600Y-106292119D01*
X117391913Y-106293543D01*
X117620000Y-106313498D01*
X117848087Y-106293543D01*
X117853400Y-106292119D01*
X117853402Y-106292119D01*
X117994124Y-106254412D01*
X118061399Y-106236386D01*
X118093726Y-106232094D01*
X119674038Y-106228597D01*
X119710566Y-106234997D01*
X119710757Y-106234284D01*
X119926598Y-106292119D01*
X119926600Y-106292119D01*
X119931913Y-106293543D01*
X120160000Y-106313498D01*
X120388087Y-106293543D01*
X120393400Y-106292119D01*
X120393402Y-106292119D01*
X120603929Y-106235708D01*
X120603932Y-106235707D01*
X120609243Y-106234284D01*
X120610551Y-106233674D01*
X120651346Y-106226435D01*
X122198695Y-106223012D01*
X122242067Y-106230611D01*
X122245772Y-106231959D01*
X122250757Y-106234284D01*
X122376463Y-106267967D01*
X122466598Y-106292119D01*
X122466600Y-106292119D01*
X122471913Y-106293543D01*
X122700000Y-106313498D01*
X122928087Y-106293543D01*
X122933400Y-106292119D01*
X122933402Y-106292119D01*
X123143930Y-106235708D01*
X123143934Y-106235707D01*
X123149243Y-106234284D01*
X123154230Y-106231958D01*
X123159393Y-106230079D01*
X123159748Y-106231055D01*
X123205848Y-106220784D01*
X123934084Y-106219172D01*
X124726379Y-106217420D01*
X124779907Y-106229225D01*
X124785770Y-106231959D01*
X124785775Y-106231961D01*
X124790757Y-106234284D01*
X124796065Y-106235706D01*
X124796067Y-106235707D01*
X125006598Y-106292119D01*
X125006600Y-106292119D01*
X125011913Y-106293543D01*
X125240000Y-106313498D01*
X125468087Y-106293543D01*
X125473400Y-106292119D01*
X125473402Y-106292119D01*
X125683933Y-106235707D01*
X125683935Y-106235706D01*
X125689243Y-106234284D01*
X125694222Y-106231962D01*
X125694231Y-106231959D01*
X125704992Y-106226941D01*
X125757959Y-106215137D01*
X127254386Y-106211827D01*
X127307913Y-106223632D01*
X127325770Y-106231959D01*
X127325775Y-106231961D01*
X127330757Y-106234284D01*
X127336065Y-106235706D01*
X127336067Y-106235707D01*
X127546598Y-106292119D01*
X127546600Y-106292119D01*
X127551913Y-106293543D01*
X127780000Y-106313498D01*
X128008087Y-106293543D01*
X128013400Y-106292119D01*
X128013402Y-106292119D01*
X128223933Y-106235707D01*
X128223935Y-106235706D01*
X128229243Y-106234284D01*
X128234220Y-106231963D01*
X128234226Y-106231961D01*
X128257099Y-106221295D01*
X128310068Y-106209491D01*
X132600000Y-106200000D01*
X130303478Y-108100000D01*
G37*
%TD.AperFunction*%
%TD*%
%TA.AperFunction,Conductor*%
%TO.N,+5V*%
G36*
X139264792Y-87520002D02*
G01*
X139287125Y-87538285D01*
X140159074Y-88437483D01*
X141184494Y-89494947D01*
X141217557Y-89557775D01*
X141211403Y-89628504D01*
X141167987Y-89684679D01*
X141115919Y-89706747D01*
X141106687Y-89708375D01*
X140896239Y-89764764D01*
X140885947Y-89768510D01*
X140688489Y-89860586D01*
X140678994Y-89866069D01*
X140626952Y-89902509D01*
X140618576Y-89912988D01*
X140625644Y-89926434D01*
X142414287Y-91715077D01*
X142426062Y-91721507D01*
X142438077Y-91712211D01*
X142473931Y-91661006D01*
X142479414Y-91651511D01*
X142571490Y-91454053D01*
X142575236Y-91443761D01*
X142625771Y-91255159D01*
X142662723Y-91194536D01*
X142726583Y-91163515D01*
X142797078Y-91171943D01*
X142837933Y-91200056D01*
X145145340Y-93579570D01*
X145178403Y-93642398D01*
X145172249Y-93713127D01*
X145128833Y-93769302D01*
X145108135Y-93781479D01*
X144938489Y-93860586D01*
X144928994Y-93866069D01*
X144876952Y-93902509D01*
X144868576Y-93912988D01*
X144875644Y-93926434D01*
X146664287Y-95715077D01*
X146676062Y-95721507D01*
X146688077Y-95712211D01*
X146723931Y-95661006D01*
X146729414Y-95651511D01*
X146790141Y-95521280D01*
X146837058Y-95467995D01*
X146905335Y-95448534D01*
X146973295Y-95469076D01*
X146994791Y-95486816D01*
X147163703Y-95661006D01*
X148447853Y-96985286D01*
X148480915Y-97048112D01*
X148474761Y-97118841D01*
X148431345Y-97175016D01*
X148368379Y-97198519D01*
X148277480Y-97206472D01*
X148266688Y-97208375D01*
X148056239Y-97264764D01*
X148045947Y-97268510D01*
X147848489Y-97360586D01*
X147838994Y-97366069D01*
X147786952Y-97402509D01*
X147778576Y-97412988D01*
X147785644Y-97426434D01*
X149574287Y-99215077D01*
X149586062Y-99221507D01*
X149598077Y-99212211D01*
X149633931Y-99161006D01*
X149639414Y-99151511D01*
X149731490Y-98954053D01*
X149735236Y-98943761D01*
X149791625Y-98733312D01*
X149793530Y-98722510D01*
X149797546Y-98676612D01*
X149823409Y-98610494D01*
X149880913Y-98568855D01*
X149951800Y-98564915D01*
X150013521Y-98599881D01*
X155213830Y-103962700D01*
X155246893Y-104025528D01*
X155249366Y-104051950D01*
X155248721Y-104104859D01*
X155227890Y-104172731D01*
X155173671Y-104218566D01*
X155103279Y-104227813D01*
X155039063Y-104197535D01*
X155019516Y-104175592D01*
X155008973Y-104160535D01*
X155001916Y-104152125D01*
X154847875Y-103998084D01*
X154839467Y-103991028D01*
X154661007Y-103866069D01*
X154651511Y-103860586D01*
X154454053Y-103768510D01*
X154443761Y-103764764D01*
X154271497Y-103718606D01*
X154257401Y-103718942D01*
X154254000Y-103726884D01*
X154254000Y-106267967D01*
X154257973Y-106281498D01*
X154266522Y-106282727D01*
X154443761Y-106235236D01*
X154454053Y-106231490D01*
X154651511Y-106139414D01*
X154661007Y-106133931D01*
X154839467Y-106008972D01*
X154847875Y-106001916D01*
X155001920Y-105847871D01*
X155003982Y-105845414D01*
X155005162Y-105844629D01*
X155005813Y-105843978D01*
X155005944Y-105844109D01*
X155063094Y-105806092D01*
X155134082Y-105804970D01*
X155194407Y-105842405D01*
X155224917Y-105906512D01*
X155226489Y-105927941D01*
X155201518Y-107975536D01*
X155180686Y-108043408D01*
X155126468Y-108089243D01*
X155075527Y-108100000D01*
X130200000Y-108100000D01*
X130215152Y-105266522D01*
X152717273Y-105266522D01*
X152764764Y-105443761D01*
X152768510Y-105454053D01*
X152860586Y-105651511D01*
X152866069Y-105661007D01*
X152991028Y-105839467D01*
X152998084Y-105847875D01*
X153152125Y-106001916D01*
X153160533Y-106008972D01*
X153338993Y-106133931D01*
X153348489Y-106139414D01*
X153545947Y-106231490D01*
X153556239Y-106235236D01*
X153728503Y-106281394D01*
X153742599Y-106281058D01*
X153746000Y-106273116D01*
X153746000Y-105272115D01*
X153741525Y-105256876D01*
X153740135Y-105255671D01*
X153732452Y-105254000D01*
X152732033Y-105254000D01*
X152718502Y-105257973D01*
X152717273Y-105266522D01*
X130215152Y-105266522D01*
X130218029Y-104728503D01*
X152718606Y-104728503D01*
X152718942Y-104742599D01*
X152726884Y-104746000D01*
X153727885Y-104746000D01*
X153743124Y-104741525D01*
X153744329Y-104740135D01*
X153746000Y-104732452D01*
X153746000Y-103732033D01*
X153742027Y-103718502D01*
X153733478Y-103717273D01*
X153556239Y-103764764D01*
X153545947Y-103768510D01*
X153348489Y-103860586D01*
X153338993Y-103866069D01*
X153160533Y-103991028D01*
X153152125Y-103998084D01*
X152998084Y-104152125D01*
X152991028Y-104160533D01*
X152866069Y-104338993D01*
X152860586Y-104348489D01*
X152768510Y-104545947D01*
X152764764Y-104556239D01*
X152718606Y-104728503D01*
X130218029Y-104728503D01*
X130245529Y-99586062D01*
X147778493Y-99586062D01*
X147787789Y-99598077D01*
X147838994Y-99633931D01*
X147848489Y-99639414D01*
X148045947Y-99731490D01*
X148056239Y-99735236D01*
X148266688Y-99791625D01*
X148277481Y-99793528D01*
X148494525Y-99812517D01*
X148505475Y-99812517D01*
X148722519Y-99793528D01*
X148733312Y-99791625D01*
X148943761Y-99735236D01*
X148954053Y-99731490D01*
X149151511Y-99639414D01*
X149161006Y-99633931D01*
X149213048Y-99597491D01*
X149221424Y-99587012D01*
X149214356Y-99573566D01*
X148512812Y-98872022D01*
X148498868Y-98864408D01*
X148497035Y-98864539D01*
X148490420Y-98868790D01*
X147784923Y-99574287D01*
X147778493Y-99586062D01*
X130245529Y-99586062D01*
X130250000Y-98750000D01*
X129996070Y-98505475D01*
X147187483Y-98505475D01*
X147206472Y-98722519D01*
X147208375Y-98733312D01*
X147264764Y-98943761D01*
X147268510Y-98954053D01*
X147360586Y-99151511D01*
X147366069Y-99161006D01*
X147402509Y-99213048D01*
X147412988Y-99221424D01*
X147426434Y-99214356D01*
X148127978Y-98512812D01*
X148135592Y-98498868D01*
X148135461Y-98497035D01*
X148131210Y-98490420D01*
X147425713Y-97784923D01*
X147413938Y-97778493D01*
X147401923Y-97787789D01*
X147366069Y-97838994D01*
X147360586Y-97848489D01*
X147268510Y-98045947D01*
X147264764Y-98056239D01*
X147208375Y-98266688D01*
X147206472Y-98277481D01*
X147187483Y-98494525D01*
X147187483Y-98505475D01*
X129996070Y-98505475D01*
X129313816Y-97848489D01*
X128522065Y-97086062D01*
X132438493Y-97086062D01*
X132447789Y-97098077D01*
X132498994Y-97133931D01*
X132508489Y-97139414D01*
X132705947Y-97231490D01*
X132716239Y-97235236D01*
X132926688Y-97291625D01*
X132937481Y-97293528D01*
X133154525Y-97312517D01*
X133165475Y-97312517D01*
X133382519Y-97293528D01*
X133393312Y-97291625D01*
X133603761Y-97235236D01*
X133614053Y-97231490D01*
X133811511Y-97139414D01*
X133821006Y-97133931D01*
X133873048Y-97097491D01*
X133881424Y-97087012D01*
X133874356Y-97073566D01*
X133172812Y-96372022D01*
X133158868Y-96364408D01*
X133157035Y-96364539D01*
X133150420Y-96368790D01*
X132444923Y-97074287D01*
X132438493Y-97086062D01*
X128522065Y-97086062D01*
X127399917Y-96005475D01*
X131847483Y-96005475D01*
X131866472Y-96222519D01*
X131868375Y-96233312D01*
X131924764Y-96443761D01*
X131928510Y-96454053D01*
X132020586Y-96651511D01*
X132026069Y-96661006D01*
X132062509Y-96713048D01*
X132072988Y-96721424D01*
X132086434Y-96714356D01*
X132787978Y-96012812D01*
X132794356Y-96001132D01*
X133524408Y-96001132D01*
X133524539Y-96002965D01*
X133528790Y-96009580D01*
X134234287Y-96715077D01*
X134246062Y-96721507D01*
X134258077Y-96712211D01*
X134293931Y-96661006D01*
X134299414Y-96651511D01*
X134391490Y-96454053D01*
X134395236Y-96443761D01*
X134451625Y-96233312D01*
X134453528Y-96222519D01*
X134465467Y-96086062D01*
X144868493Y-96086062D01*
X144877789Y-96098077D01*
X144928994Y-96133931D01*
X144938489Y-96139414D01*
X145135947Y-96231490D01*
X145146239Y-96235236D01*
X145356688Y-96291625D01*
X145367481Y-96293528D01*
X145584525Y-96312517D01*
X145595475Y-96312517D01*
X145812519Y-96293528D01*
X145823312Y-96291625D01*
X146033761Y-96235236D01*
X146044053Y-96231490D01*
X146241511Y-96139414D01*
X146251006Y-96133931D01*
X146303048Y-96097491D01*
X146311424Y-96087012D01*
X146304356Y-96073566D01*
X145602812Y-95372022D01*
X145588868Y-95364408D01*
X145587035Y-95364539D01*
X145580420Y-95368790D01*
X144874923Y-96074287D01*
X144868493Y-96086062D01*
X134465467Y-96086062D01*
X134472517Y-96005475D01*
X134472517Y-95994525D01*
X134453528Y-95777481D01*
X134451625Y-95766688D01*
X134395236Y-95556239D01*
X134391490Y-95545947D01*
X134299414Y-95348489D01*
X134293931Y-95338994D01*
X134257491Y-95286952D01*
X134247012Y-95278576D01*
X134233566Y-95285644D01*
X133532022Y-95987188D01*
X133524408Y-96001132D01*
X132794356Y-96001132D01*
X132795592Y-95998868D01*
X132795461Y-95997035D01*
X132791210Y-95990420D01*
X132085713Y-95284923D01*
X132073938Y-95278493D01*
X132061923Y-95287789D01*
X132026069Y-95338994D01*
X132020586Y-95348489D01*
X131928510Y-95545947D01*
X131924764Y-95556239D01*
X131868375Y-95766688D01*
X131866472Y-95777481D01*
X131847483Y-95994525D01*
X131847483Y-96005475D01*
X127399917Y-96005475D01*
X126265411Y-94912988D01*
X132438576Y-94912988D01*
X132445644Y-94926434D01*
X133147188Y-95627978D01*
X133161132Y-95635592D01*
X133162965Y-95635461D01*
X133169580Y-95631210D01*
X133795315Y-95005475D01*
X144277483Y-95005475D01*
X144296472Y-95222519D01*
X144298375Y-95233312D01*
X144354764Y-95443761D01*
X144358510Y-95454053D01*
X144450586Y-95651511D01*
X144456069Y-95661006D01*
X144492509Y-95713048D01*
X144502988Y-95721424D01*
X144516434Y-95714356D01*
X145217978Y-95012812D01*
X145225592Y-94998868D01*
X145225461Y-94997035D01*
X145221210Y-94990420D01*
X144515713Y-94284923D01*
X144503938Y-94278493D01*
X144491923Y-94287789D01*
X144456069Y-94338994D01*
X144450586Y-94348489D01*
X144358510Y-94545947D01*
X144354764Y-94556239D01*
X144298375Y-94766688D01*
X144296472Y-94777481D01*
X144277483Y-94994525D01*
X144277483Y-95005475D01*
X133795315Y-95005475D01*
X133875077Y-94925713D01*
X133881507Y-94913938D01*
X133872211Y-94901923D01*
X133821006Y-94866069D01*
X133811511Y-94860586D01*
X133614053Y-94768510D01*
X133603761Y-94764764D01*
X133393312Y-94708375D01*
X133382519Y-94706472D01*
X133165475Y-94687483D01*
X133154525Y-94687483D01*
X132937481Y-94706472D01*
X132926688Y-94708375D01*
X132716239Y-94764764D01*
X132705947Y-94768510D01*
X132508489Y-94860586D01*
X132498994Y-94866069D01*
X132446952Y-94902509D01*
X132438576Y-94912988D01*
X126265411Y-94912988D01*
X125463224Y-94140512D01*
X125461528Y-94138847D01*
X125408743Y-94086062D01*
X125938493Y-94086062D01*
X125947789Y-94098077D01*
X125998994Y-94133931D01*
X126008489Y-94139414D01*
X126205947Y-94231490D01*
X126216239Y-94235236D01*
X126426688Y-94291625D01*
X126437481Y-94293528D01*
X126654525Y-94312517D01*
X126665475Y-94312517D01*
X126882519Y-94293528D01*
X126893312Y-94291625D01*
X127103761Y-94235236D01*
X127114053Y-94231490D01*
X127311511Y-94139414D01*
X127321006Y-94133931D01*
X127373048Y-94097491D01*
X127381424Y-94087012D01*
X127374356Y-94073566D01*
X126672812Y-93372022D01*
X126658868Y-93364408D01*
X126657035Y-93364539D01*
X126650420Y-93368790D01*
X125944923Y-94074287D01*
X125938493Y-94086062D01*
X125408743Y-94086062D01*
X124328156Y-93005475D01*
X125347483Y-93005475D01*
X125366472Y-93222519D01*
X125368375Y-93233312D01*
X125424764Y-93443761D01*
X125428510Y-93454053D01*
X125520586Y-93651511D01*
X125526069Y-93661006D01*
X125562509Y-93713048D01*
X125572988Y-93721424D01*
X125586434Y-93714356D01*
X126287978Y-93012812D01*
X126294356Y-93001132D01*
X127024408Y-93001132D01*
X127024539Y-93002965D01*
X127028790Y-93009580D01*
X127734287Y-93715077D01*
X127746062Y-93721507D01*
X127758077Y-93712211D01*
X127793931Y-93661006D01*
X127799414Y-93651511D01*
X127891490Y-93454053D01*
X127895236Y-93443761D01*
X127951625Y-93233312D01*
X127953528Y-93222519D01*
X127972517Y-93005475D01*
X127972517Y-92994525D01*
X127953528Y-92777481D01*
X127951625Y-92766688D01*
X127895236Y-92556239D01*
X127891490Y-92545947D01*
X127799414Y-92348489D01*
X127793931Y-92338994D01*
X127757491Y-92286952D01*
X127747012Y-92278576D01*
X127733566Y-92285644D01*
X127032022Y-92987188D01*
X127024408Y-93001132D01*
X126294356Y-93001132D01*
X126295592Y-92998868D01*
X126295461Y-92997035D01*
X126291210Y-92990420D01*
X125585713Y-92284923D01*
X125573938Y-92278493D01*
X125561923Y-92287789D01*
X125526069Y-92338994D01*
X125520586Y-92348489D01*
X125428510Y-92545947D01*
X125424764Y-92556239D01*
X125368375Y-92766688D01*
X125366472Y-92777481D01*
X125347483Y-92994525D01*
X125347483Y-93005475D01*
X124328156Y-93005475D01*
X123545405Y-92222724D01*
X123511379Y-92160412D01*
X123508500Y-92133629D01*
X123508500Y-91912988D01*
X125938576Y-91912988D01*
X125945644Y-91926434D01*
X126647188Y-92627978D01*
X126661132Y-92635592D01*
X126662965Y-92635461D01*
X126669580Y-92631210D01*
X127054728Y-92246062D01*
X132278493Y-92246062D01*
X132287789Y-92258077D01*
X132338994Y-92293931D01*
X132348489Y-92299414D01*
X132545947Y-92391490D01*
X132556239Y-92395236D01*
X132766688Y-92451625D01*
X132777481Y-92453528D01*
X132994525Y-92472517D01*
X133005475Y-92472517D01*
X133222519Y-92453528D01*
X133233312Y-92451625D01*
X133443761Y-92395236D01*
X133454053Y-92391490D01*
X133651511Y-92299414D01*
X133661006Y-92293931D01*
X133713048Y-92257491D01*
X133721424Y-92247012D01*
X133720925Y-92246062D01*
X137278493Y-92246062D01*
X137287789Y-92258077D01*
X137338994Y-92293931D01*
X137348489Y-92299414D01*
X137545947Y-92391490D01*
X137556239Y-92395236D01*
X137766688Y-92451625D01*
X137777481Y-92453528D01*
X137994525Y-92472517D01*
X138005475Y-92472517D01*
X138222519Y-92453528D01*
X138233312Y-92451625D01*
X138443761Y-92395236D01*
X138454053Y-92391490D01*
X138651511Y-92299414D01*
X138661006Y-92293931D01*
X138713048Y-92257491D01*
X138721424Y-92247012D01*
X138714356Y-92233566D01*
X138566852Y-92086062D01*
X140618493Y-92086062D01*
X140627789Y-92098077D01*
X140678994Y-92133931D01*
X140688489Y-92139414D01*
X140885947Y-92231490D01*
X140896239Y-92235236D01*
X141106688Y-92291625D01*
X141117481Y-92293528D01*
X141334525Y-92312517D01*
X141345475Y-92312517D01*
X141562519Y-92293528D01*
X141573312Y-92291625D01*
X141783761Y-92235236D01*
X141794053Y-92231490D01*
X141991511Y-92139414D01*
X142001006Y-92133931D01*
X142053048Y-92097491D01*
X142061424Y-92087012D01*
X142054356Y-92073566D01*
X141352812Y-91372022D01*
X141338868Y-91364408D01*
X141337035Y-91364539D01*
X141330420Y-91368790D01*
X140624923Y-92074287D01*
X140618493Y-92086062D01*
X138566852Y-92086062D01*
X138012812Y-91532022D01*
X137998868Y-91524408D01*
X137997035Y-91524539D01*
X137990420Y-91528790D01*
X137284923Y-92234287D01*
X137278493Y-92246062D01*
X133720925Y-92246062D01*
X133714356Y-92233566D01*
X133012812Y-91532022D01*
X132998868Y-91524408D01*
X132997035Y-91524539D01*
X132990420Y-91528790D01*
X132284923Y-92234287D01*
X132278493Y-92246062D01*
X127054728Y-92246062D01*
X127375077Y-91925713D01*
X127381507Y-91913938D01*
X127372211Y-91901923D01*
X127321006Y-91866069D01*
X127311511Y-91860586D01*
X127114053Y-91768510D01*
X127103761Y-91764764D01*
X126893312Y-91708375D01*
X126882519Y-91706472D01*
X126665475Y-91687483D01*
X126654525Y-91687483D01*
X126437481Y-91706472D01*
X126426688Y-91708375D01*
X126216239Y-91764764D01*
X126205947Y-91768510D01*
X126008489Y-91860586D01*
X125998994Y-91866069D01*
X125946952Y-91902509D01*
X125938576Y-91912988D01*
X123508500Y-91912988D01*
X123508500Y-91165475D01*
X131687483Y-91165475D01*
X131706472Y-91382519D01*
X131708375Y-91393312D01*
X131764764Y-91603761D01*
X131768510Y-91614053D01*
X131860586Y-91811511D01*
X131866069Y-91821006D01*
X131902509Y-91873048D01*
X131912988Y-91881424D01*
X131926434Y-91874356D01*
X132627978Y-91172812D01*
X132634356Y-91161132D01*
X133364408Y-91161132D01*
X133364539Y-91162965D01*
X133368790Y-91169580D01*
X134074287Y-91875077D01*
X134086062Y-91881507D01*
X134098077Y-91872211D01*
X134133931Y-91821006D01*
X134139414Y-91811511D01*
X134231490Y-91614053D01*
X134235236Y-91603761D01*
X134291625Y-91393312D01*
X134293528Y-91382519D01*
X134312517Y-91165475D01*
X136687483Y-91165475D01*
X136706472Y-91382519D01*
X136708375Y-91393312D01*
X136764764Y-91603761D01*
X136768510Y-91614053D01*
X136860586Y-91811511D01*
X136866069Y-91821006D01*
X136902509Y-91873048D01*
X136912988Y-91881424D01*
X136926434Y-91874356D01*
X137627978Y-91172812D01*
X137634356Y-91161132D01*
X138364408Y-91161132D01*
X138364539Y-91162965D01*
X138368790Y-91169580D01*
X139074287Y-91875077D01*
X139086062Y-91881507D01*
X139098077Y-91872211D01*
X139133931Y-91821006D01*
X139139414Y-91811511D01*
X139231490Y-91614053D01*
X139235236Y-91603761D01*
X139291625Y-91393312D01*
X139293528Y-91382519D01*
X139312517Y-91165475D01*
X139312517Y-91154525D01*
X139299477Y-91005475D01*
X140027483Y-91005475D01*
X140046472Y-91222519D01*
X140048375Y-91233312D01*
X140104764Y-91443761D01*
X140108510Y-91454053D01*
X140200586Y-91651511D01*
X140206069Y-91661006D01*
X140242509Y-91713048D01*
X140252988Y-91721424D01*
X140266434Y-91714356D01*
X140967978Y-91012812D01*
X140975592Y-90998868D01*
X140975461Y-90997035D01*
X140971210Y-90990420D01*
X140265713Y-90284923D01*
X140253938Y-90278493D01*
X140241923Y-90287789D01*
X140206069Y-90338994D01*
X140200586Y-90348489D01*
X140108510Y-90545947D01*
X140104764Y-90556239D01*
X140048375Y-90766688D01*
X140046472Y-90777481D01*
X140027483Y-90994525D01*
X140027483Y-91005475D01*
X139299477Y-91005475D01*
X139293528Y-90937481D01*
X139291625Y-90926688D01*
X139235236Y-90716239D01*
X139231490Y-90705947D01*
X139139414Y-90508489D01*
X139133931Y-90498994D01*
X139097491Y-90446952D01*
X139087012Y-90438576D01*
X139073566Y-90445644D01*
X138372022Y-91147188D01*
X138364408Y-91161132D01*
X137634356Y-91161132D01*
X137635592Y-91158868D01*
X137635461Y-91157035D01*
X137631210Y-91150420D01*
X136925713Y-90444923D01*
X136913938Y-90438493D01*
X136901923Y-90447789D01*
X136866069Y-90498994D01*
X136860586Y-90508489D01*
X136768510Y-90705947D01*
X136764764Y-90716239D01*
X136708375Y-90926688D01*
X136706472Y-90937481D01*
X136687483Y-91154525D01*
X136687483Y-91165475D01*
X134312517Y-91165475D01*
X134312517Y-91154525D01*
X134293528Y-90937481D01*
X134291625Y-90926688D01*
X134235236Y-90716239D01*
X134231490Y-90705947D01*
X134139414Y-90508489D01*
X134133931Y-90498994D01*
X134097491Y-90446952D01*
X134087012Y-90438576D01*
X134073566Y-90445644D01*
X133372022Y-91147188D01*
X133364408Y-91161132D01*
X132634356Y-91161132D01*
X132635592Y-91158868D01*
X132635461Y-91157035D01*
X132631210Y-91150420D01*
X131925713Y-90444923D01*
X131913938Y-90438493D01*
X131901923Y-90447789D01*
X131866069Y-90498994D01*
X131860586Y-90508489D01*
X131768510Y-90705947D01*
X131764764Y-90716239D01*
X131708375Y-90926688D01*
X131706472Y-90937481D01*
X131687483Y-91154525D01*
X131687483Y-91165475D01*
X123508500Y-91165475D01*
X123508500Y-90836062D01*
X124028493Y-90836062D01*
X124037789Y-90848077D01*
X124088994Y-90883931D01*
X124098489Y-90889414D01*
X124295947Y-90981490D01*
X124306239Y-90985236D01*
X124516688Y-91041625D01*
X124527481Y-91043528D01*
X124744525Y-91062517D01*
X124755475Y-91062517D01*
X124972519Y-91043528D01*
X124983312Y-91041625D01*
X125193761Y-90985236D01*
X125204053Y-90981490D01*
X125401511Y-90889414D01*
X125411006Y-90883931D01*
X125463048Y-90847491D01*
X125471424Y-90837012D01*
X125464356Y-90823566D01*
X124762812Y-90122022D01*
X124748868Y-90114408D01*
X124747035Y-90114539D01*
X124740420Y-90118790D01*
X124034923Y-90824287D01*
X124028493Y-90836062D01*
X123508500Y-90836062D01*
X123508500Y-90596491D01*
X123528502Y-90528370D01*
X123582158Y-90481877D01*
X123647472Y-90471161D01*
X123660853Y-90472546D01*
X123676434Y-90464356D01*
X124389658Y-89751132D01*
X125114408Y-89751132D01*
X125114539Y-89752965D01*
X125118790Y-89759580D01*
X125824287Y-90465077D01*
X125836062Y-90471507D01*
X125848077Y-90462211D01*
X125883931Y-90411006D01*
X125889414Y-90401511D01*
X125981490Y-90204053D01*
X125985236Y-90193761D01*
X126017597Y-90072988D01*
X132278576Y-90072988D01*
X132285644Y-90086434D01*
X132987188Y-90787978D01*
X133001132Y-90795592D01*
X133002965Y-90795461D01*
X133009580Y-90791210D01*
X133715077Y-90085713D01*
X133721507Y-90073938D01*
X133720772Y-90072988D01*
X137278576Y-90072988D01*
X137285644Y-90086434D01*
X137987188Y-90787978D01*
X138001132Y-90795592D01*
X138002965Y-90795461D01*
X138009580Y-90791210D01*
X138715077Y-90085713D01*
X138721507Y-90073938D01*
X138712211Y-90061923D01*
X138661006Y-90026069D01*
X138651511Y-90020586D01*
X138454053Y-89928510D01*
X138443761Y-89924764D01*
X138233312Y-89868375D01*
X138222519Y-89866472D01*
X138005475Y-89847483D01*
X137994525Y-89847483D01*
X137777481Y-89866472D01*
X137766688Y-89868375D01*
X137556239Y-89924764D01*
X137545947Y-89928510D01*
X137348489Y-90020586D01*
X137338994Y-90026069D01*
X137286952Y-90062509D01*
X137278576Y-90072988D01*
X133720772Y-90072988D01*
X133712211Y-90061923D01*
X133661006Y-90026069D01*
X133651511Y-90020586D01*
X133454053Y-89928510D01*
X133443761Y-89924764D01*
X133233312Y-89868375D01*
X133222519Y-89866472D01*
X133005475Y-89847483D01*
X132994525Y-89847483D01*
X132777481Y-89866472D01*
X132766688Y-89868375D01*
X132556239Y-89924764D01*
X132545947Y-89928510D01*
X132348489Y-90020586D01*
X132338994Y-90026069D01*
X132286952Y-90062509D01*
X132278576Y-90072988D01*
X126017597Y-90072988D01*
X126041625Y-89983312D01*
X126043528Y-89972519D01*
X126062517Y-89755475D01*
X126062517Y-89744525D01*
X126043528Y-89527481D01*
X126041625Y-89516688D01*
X125985236Y-89306239D01*
X125981490Y-89295947D01*
X125889414Y-89098489D01*
X125883931Y-89088994D01*
X125847491Y-89036952D01*
X125837012Y-89028576D01*
X125823566Y-89035644D01*
X125122022Y-89737188D01*
X125114408Y-89751132D01*
X124389658Y-89751132D01*
X125465077Y-88675713D01*
X125471507Y-88663938D01*
X125462211Y-88651923D01*
X125411006Y-88616069D01*
X125401511Y-88610586D01*
X125204053Y-88518510D01*
X125193761Y-88514764D01*
X124983312Y-88458375D01*
X124972519Y-88456472D01*
X124755475Y-88437483D01*
X124744526Y-88437483D01*
X124615962Y-88448731D01*
X124546357Y-88434742D01*
X124495364Y-88385342D01*
X124479174Y-88316217D01*
X124502926Y-88249311D01*
X124515885Y-88234115D01*
X125213095Y-87536905D01*
X125275407Y-87502879D01*
X125302190Y-87500000D01*
X139196671Y-87500000D01*
X139264792Y-87520002D01*
G37*
%TD.AperFunction*%
%TD*%
%TA.AperFunction,Conductor*%
%TO.N,+5V*%
G36*
X98483621Y-87270002D02*
G01*
X98530114Y-87323658D01*
X98541500Y-87376000D01*
X98541500Y-91692930D01*
X98540067Y-91711880D01*
X98536801Y-91733349D01*
X98537394Y-91740641D01*
X98537394Y-91740644D01*
X98541085Y-91786018D01*
X98541500Y-91796233D01*
X98541500Y-91804293D01*
X98543049Y-91817583D01*
X98544789Y-91832507D01*
X98545222Y-91836882D01*
X98549174Y-91885461D01*
X98551140Y-91909637D01*
X98553396Y-91916601D01*
X98554587Y-91922560D01*
X98555971Y-91928415D01*
X98556818Y-91935681D01*
X98581735Y-92004327D01*
X98583152Y-92008455D01*
X98600984Y-92063498D01*
X98605649Y-92077899D01*
X98609445Y-92084154D01*
X98611951Y-92089628D01*
X98614670Y-92095058D01*
X98617167Y-92101937D01*
X98621180Y-92108057D01*
X98621180Y-92108058D01*
X98657186Y-92162976D01*
X98659523Y-92166680D01*
X98697405Y-92229107D01*
X98701121Y-92233315D01*
X98701122Y-92233316D01*
X98704803Y-92237484D01*
X98704776Y-92237508D01*
X98707429Y-92240499D01*
X98710129Y-92243728D01*
X98714144Y-92249852D01*
X98719462Y-92254890D01*
X98720662Y-92256325D01*
X98749014Y-92321415D01*
X98750000Y-92337149D01*
X98750000Y-95750000D01*
X98757390Y-95757054D01*
X98757390Y-95757055D01*
X104236896Y-100987492D01*
X104250000Y-101000000D01*
X107415129Y-101000000D01*
X107483250Y-101020002D01*
X107504224Y-101036905D01*
X109950842Y-103483523D01*
X109984868Y-103545835D01*
X109979803Y-103616650D01*
X109937256Y-103673486D01*
X109872728Y-103698139D01*
X109777480Y-103706472D01*
X109766688Y-103708375D01*
X109556239Y-103764764D01*
X109545947Y-103768510D01*
X109348489Y-103860586D01*
X109338993Y-103866069D01*
X109160533Y-103991028D01*
X109152125Y-103998084D01*
X108998084Y-104152125D01*
X108991028Y-104160533D01*
X108866069Y-104338993D01*
X108860586Y-104348489D01*
X108768510Y-104545947D01*
X108764764Y-104556239D01*
X108718606Y-104728503D01*
X108718942Y-104742599D01*
X108726884Y-104746000D01*
X110128000Y-104746000D01*
X110196121Y-104766002D01*
X110242614Y-104819658D01*
X110254000Y-104872000D01*
X110254000Y-106267967D01*
X110257973Y-106281498D01*
X110266522Y-106282727D01*
X110443761Y-106235236D01*
X110454053Y-106231490D01*
X110651511Y-106139414D01*
X110661007Y-106133931D01*
X110839467Y-106008972D01*
X110847875Y-106001916D01*
X111001916Y-105847875D01*
X111008972Y-105839467D01*
X111020787Y-105822593D01*
X111076244Y-105778265D01*
X111146864Y-105770956D01*
X111210224Y-105802987D01*
X111246209Y-105864188D01*
X111250000Y-105894864D01*
X111250000Y-109000000D01*
X84250000Y-109000000D01*
X84250000Y-106606522D01*
X97217273Y-106606522D01*
X97264764Y-106783761D01*
X97268510Y-106794053D01*
X97360586Y-106991511D01*
X97366069Y-107001007D01*
X97491028Y-107179467D01*
X97498084Y-107187875D01*
X97652125Y-107341916D01*
X97660533Y-107348972D01*
X97838993Y-107473931D01*
X97848489Y-107479414D01*
X98045947Y-107571490D01*
X98056239Y-107575236D01*
X98228503Y-107621394D01*
X98242599Y-107621058D01*
X98246000Y-107613116D01*
X98246000Y-107607967D01*
X98754000Y-107607967D01*
X98757973Y-107621498D01*
X98766522Y-107622727D01*
X98943761Y-107575236D01*
X98954053Y-107571490D01*
X99151511Y-107479414D01*
X99161007Y-107473931D01*
X99339467Y-107348972D01*
X99347875Y-107341916D01*
X99501916Y-107187875D01*
X99508972Y-107179467D01*
X99633931Y-107001007D01*
X99639414Y-106991511D01*
X99731490Y-106794053D01*
X99735236Y-106783761D01*
X99781394Y-106611497D01*
X99781058Y-106597401D01*
X99773116Y-106594000D01*
X98772115Y-106594000D01*
X98756876Y-106598475D01*
X98755671Y-106599865D01*
X98754000Y-106607548D01*
X98754000Y-107607967D01*
X98246000Y-107607967D01*
X98246000Y-106612115D01*
X98241525Y-106596876D01*
X98240135Y-106595671D01*
X98232452Y-106594000D01*
X97232033Y-106594000D01*
X97218502Y-106597973D01*
X97217273Y-106606522D01*
X84250000Y-106606522D01*
X84250000Y-106068503D01*
X97218606Y-106068503D01*
X97218942Y-106082599D01*
X97226884Y-106086000D01*
X98227885Y-106086000D01*
X98243124Y-106081525D01*
X98244329Y-106080135D01*
X98246000Y-106072452D01*
X98246000Y-106067885D01*
X98754000Y-106067885D01*
X98758475Y-106083124D01*
X98759865Y-106084329D01*
X98767548Y-106086000D01*
X99767967Y-106086000D01*
X99781498Y-106082027D01*
X99782727Y-106073478D01*
X99735236Y-105896239D01*
X99731490Y-105885947D01*
X99639414Y-105688489D01*
X99633931Y-105678993D01*
X99508972Y-105500533D01*
X99501916Y-105492125D01*
X99347875Y-105338084D01*
X99339467Y-105331028D01*
X99247343Y-105266522D01*
X108717273Y-105266522D01*
X108764764Y-105443761D01*
X108768510Y-105454053D01*
X108860586Y-105651511D01*
X108866069Y-105661007D01*
X108991028Y-105839467D01*
X108998084Y-105847875D01*
X109152125Y-106001916D01*
X109160533Y-106008972D01*
X109338993Y-106133931D01*
X109348489Y-106139414D01*
X109545947Y-106231490D01*
X109556239Y-106235236D01*
X109728503Y-106281394D01*
X109742599Y-106281058D01*
X109746000Y-106273116D01*
X109746000Y-105272115D01*
X109741525Y-105256876D01*
X109740135Y-105255671D01*
X109732452Y-105254000D01*
X108732033Y-105254000D01*
X108718502Y-105257973D01*
X108717273Y-105266522D01*
X99247343Y-105266522D01*
X99161007Y-105206069D01*
X99151511Y-105200586D01*
X98954053Y-105108510D01*
X98943761Y-105104764D01*
X98771497Y-105058606D01*
X98757401Y-105058942D01*
X98754000Y-105066884D01*
X98754000Y-106067885D01*
X98246000Y-106067885D01*
X98246000Y-105072033D01*
X98242027Y-105058502D01*
X98233478Y-105057273D01*
X98056239Y-105104764D01*
X98045947Y-105108510D01*
X97848489Y-105200586D01*
X97838993Y-105206069D01*
X97660533Y-105331028D01*
X97652125Y-105338084D01*
X97498084Y-105492125D01*
X97491028Y-105500533D01*
X97366069Y-105678993D01*
X97360586Y-105688489D01*
X97268510Y-105885947D01*
X97264764Y-105896239D01*
X97218606Y-106068503D01*
X84250000Y-106068503D01*
X84250000Y-99750000D01*
X83411401Y-98911401D01*
X83392782Y-98887678D01*
X83382595Y-98870891D01*
X83378885Y-98866689D01*
X83378882Y-98866686D01*
X83375198Y-98862515D01*
X83375225Y-98862491D01*
X83372570Y-98859497D01*
X83369868Y-98856266D01*
X83365856Y-98850146D01*
X83309617Y-98796870D01*
X83307175Y-98794492D01*
X81348745Y-96836062D01*
X95368493Y-96836062D01*
X95377789Y-96848077D01*
X95428994Y-96883931D01*
X95438489Y-96889414D01*
X95635947Y-96981490D01*
X95646239Y-96985236D01*
X95856688Y-97041625D01*
X95867481Y-97043528D01*
X96084525Y-97062517D01*
X96095475Y-97062517D01*
X96312519Y-97043528D01*
X96323312Y-97041625D01*
X96533761Y-96985236D01*
X96544053Y-96981490D01*
X96741511Y-96889414D01*
X96751006Y-96883931D01*
X96803048Y-96847491D01*
X96811424Y-96837012D01*
X96804356Y-96823566D01*
X96102812Y-96122022D01*
X96088868Y-96114408D01*
X96087035Y-96114539D01*
X96080420Y-96118790D01*
X95374923Y-96824287D01*
X95368493Y-96836062D01*
X81348745Y-96836062D01*
X81098745Y-96586062D01*
X86528493Y-96586062D01*
X86537789Y-96598077D01*
X86588994Y-96633931D01*
X86598489Y-96639414D01*
X86795947Y-96731490D01*
X86806239Y-96735236D01*
X87016688Y-96791625D01*
X87027481Y-96793528D01*
X87244525Y-96812517D01*
X87255475Y-96812517D01*
X87472519Y-96793528D01*
X87483312Y-96791625D01*
X87693761Y-96735236D01*
X87704053Y-96731490D01*
X87901511Y-96639414D01*
X87911006Y-96633931D01*
X87963048Y-96597491D01*
X87971424Y-96587012D01*
X87964356Y-96573566D01*
X87262812Y-95872022D01*
X87248868Y-95864408D01*
X87247035Y-95864539D01*
X87240420Y-95868790D01*
X86534923Y-96574287D01*
X86528493Y-96586062D01*
X81098745Y-96586062D01*
X80018158Y-95505475D01*
X85937483Y-95505475D01*
X85956472Y-95722519D01*
X85958375Y-95733312D01*
X86014764Y-95943761D01*
X86018510Y-95954053D01*
X86110586Y-96151511D01*
X86116069Y-96161006D01*
X86152509Y-96213048D01*
X86162988Y-96221424D01*
X86176434Y-96214356D01*
X86877978Y-95512812D01*
X86884356Y-95501132D01*
X87614408Y-95501132D01*
X87614539Y-95502965D01*
X87618790Y-95509580D01*
X88324287Y-96215077D01*
X88336062Y-96221507D01*
X88348077Y-96212211D01*
X88383931Y-96161006D01*
X88389414Y-96151511D01*
X88481490Y-95954053D01*
X88485236Y-95943761D01*
X88535687Y-95755475D01*
X94777483Y-95755475D01*
X94796472Y-95972519D01*
X94798375Y-95983312D01*
X94854764Y-96193761D01*
X94858510Y-96204053D01*
X94950586Y-96401511D01*
X94956069Y-96411006D01*
X94992509Y-96463048D01*
X95002988Y-96471424D01*
X95016434Y-96464356D01*
X95717978Y-95762812D01*
X95724356Y-95751132D01*
X96454408Y-95751132D01*
X96454539Y-95752965D01*
X96458790Y-95759580D01*
X97164287Y-96465077D01*
X97176062Y-96471507D01*
X97188077Y-96462211D01*
X97223931Y-96411006D01*
X97229414Y-96401511D01*
X97321490Y-96204053D01*
X97325236Y-96193761D01*
X97381625Y-95983312D01*
X97383528Y-95972519D01*
X97402517Y-95755475D01*
X97402517Y-95744525D01*
X97383528Y-95527481D01*
X97381625Y-95516688D01*
X97325236Y-95306239D01*
X97321490Y-95295947D01*
X97229414Y-95098489D01*
X97223931Y-95088994D01*
X97187491Y-95036952D01*
X97177012Y-95028576D01*
X97163566Y-95035644D01*
X96462022Y-95737188D01*
X96454408Y-95751132D01*
X95724356Y-95751132D01*
X95725592Y-95748868D01*
X95725461Y-95747035D01*
X95721210Y-95740420D01*
X95015713Y-95034923D01*
X95003938Y-95028493D01*
X94991923Y-95037789D01*
X94956069Y-95088994D01*
X94950586Y-95098489D01*
X94858510Y-95295947D01*
X94854764Y-95306239D01*
X94798375Y-95516688D01*
X94796472Y-95527481D01*
X94777483Y-95744525D01*
X94777483Y-95755475D01*
X88535687Y-95755475D01*
X88541625Y-95733312D01*
X88543528Y-95722519D01*
X88562517Y-95505475D01*
X88562517Y-95494525D01*
X88543528Y-95277481D01*
X88541625Y-95266688D01*
X88485236Y-95056239D01*
X88481490Y-95045947D01*
X88389414Y-94848489D01*
X88383931Y-94838994D01*
X88347491Y-94786952D01*
X88337012Y-94778576D01*
X88323566Y-94785644D01*
X87622022Y-95487188D01*
X87614408Y-95501132D01*
X86884356Y-95501132D01*
X86885592Y-95498868D01*
X86885461Y-95497035D01*
X86881210Y-95490420D01*
X86175713Y-94784923D01*
X86163938Y-94778493D01*
X86151923Y-94787789D01*
X86116069Y-94838994D01*
X86110586Y-94848489D01*
X86018510Y-95045947D01*
X86014764Y-95056239D01*
X85958375Y-95266688D01*
X85956472Y-95277481D01*
X85937483Y-95494525D01*
X85937483Y-95505475D01*
X80018158Y-95505475D01*
X78925671Y-94412988D01*
X86528576Y-94412988D01*
X86535644Y-94426434D01*
X87237188Y-95127978D01*
X87251132Y-95135592D01*
X87252965Y-95135461D01*
X87259580Y-95131210D01*
X87727802Y-94662988D01*
X95368576Y-94662988D01*
X95375644Y-94676434D01*
X96077188Y-95377978D01*
X96091132Y-95385592D01*
X96092965Y-95385461D01*
X96099580Y-95381210D01*
X96805077Y-94675713D01*
X96811507Y-94663938D01*
X96802211Y-94651923D01*
X96751006Y-94616069D01*
X96741511Y-94610586D01*
X96544053Y-94518510D01*
X96533761Y-94514764D01*
X96323312Y-94458375D01*
X96312519Y-94456472D01*
X96095475Y-94437483D01*
X96084525Y-94437483D01*
X95867481Y-94456472D01*
X95856688Y-94458375D01*
X95646239Y-94514764D01*
X95635947Y-94518510D01*
X95438489Y-94610586D01*
X95428994Y-94616069D01*
X95376952Y-94652509D01*
X95368576Y-94662988D01*
X87727802Y-94662988D01*
X87965077Y-94425713D01*
X87971507Y-94413938D01*
X87962211Y-94401923D01*
X87911006Y-94366069D01*
X87901511Y-94360586D01*
X87704053Y-94268510D01*
X87693761Y-94264764D01*
X87483312Y-94208375D01*
X87472519Y-94206472D01*
X87255475Y-94187483D01*
X87244525Y-94187483D01*
X87027481Y-94206472D01*
X87016688Y-94208375D01*
X86806239Y-94264764D01*
X86795947Y-94268510D01*
X86598489Y-94360586D01*
X86588994Y-94366069D01*
X86536952Y-94402509D01*
X86528576Y-94412988D01*
X78925671Y-94412988D01*
X78295405Y-93782722D01*
X78261379Y-93720410D01*
X78258500Y-93693627D01*
X78258500Y-93336062D01*
X81528493Y-93336062D01*
X81537789Y-93348077D01*
X81588994Y-93383931D01*
X81598489Y-93389414D01*
X81795947Y-93481490D01*
X81806239Y-93485236D01*
X82016688Y-93541625D01*
X82027481Y-93543528D01*
X82244525Y-93562517D01*
X82255475Y-93562517D01*
X82472519Y-93543528D01*
X82483312Y-93541625D01*
X82693761Y-93485236D01*
X82704053Y-93481490D01*
X82901511Y-93389414D01*
X82911006Y-93383931D01*
X82963048Y-93347491D01*
X82971424Y-93337012D01*
X82964356Y-93323566D01*
X82262812Y-92622022D01*
X82248868Y-92614408D01*
X82247035Y-92614539D01*
X82240420Y-92618790D01*
X81534923Y-93324287D01*
X81528493Y-93336062D01*
X78258500Y-93336062D01*
X78258500Y-92255475D01*
X80937483Y-92255475D01*
X80956471Y-92472517D01*
X80958375Y-92483312D01*
X81014764Y-92693761D01*
X81018510Y-92704053D01*
X81110586Y-92901511D01*
X81116069Y-92911006D01*
X81152509Y-92963048D01*
X81162988Y-92971424D01*
X81176434Y-92964356D01*
X81877978Y-92262812D01*
X81884356Y-92251132D01*
X82614408Y-92251132D01*
X82614539Y-92252965D01*
X82618790Y-92259580D01*
X83324287Y-92965077D01*
X83336062Y-92971507D01*
X83348077Y-92962211D01*
X83383931Y-92911006D01*
X83389414Y-92901511D01*
X83481490Y-92704053D01*
X83485236Y-92693761D01*
X83541625Y-92483312D01*
X83543529Y-92472517D01*
X83562517Y-92255475D01*
X83562517Y-92246062D01*
X86278493Y-92246062D01*
X86287789Y-92258077D01*
X86338994Y-92293931D01*
X86348489Y-92299414D01*
X86545947Y-92391490D01*
X86556239Y-92395236D01*
X86766688Y-92451625D01*
X86777481Y-92453528D01*
X86994525Y-92472517D01*
X87005475Y-92472517D01*
X87222519Y-92453528D01*
X87233312Y-92451625D01*
X87443761Y-92395236D01*
X87454053Y-92391490D01*
X87651511Y-92299414D01*
X87661006Y-92293931D01*
X87713048Y-92257491D01*
X87721424Y-92247012D01*
X87720925Y-92246062D01*
X91278493Y-92246062D01*
X91287789Y-92258077D01*
X91338994Y-92293931D01*
X91348489Y-92299414D01*
X91545947Y-92391490D01*
X91556239Y-92395236D01*
X91766688Y-92451625D01*
X91777481Y-92453528D01*
X91994525Y-92472517D01*
X92005475Y-92472517D01*
X92222519Y-92453528D01*
X92233312Y-92451625D01*
X92443761Y-92395236D01*
X92454053Y-92391490D01*
X92651511Y-92299414D01*
X92661006Y-92293931D01*
X92713048Y-92257491D01*
X92721424Y-92247012D01*
X92714356Y-92233566D01*
X92012812Y-91532022D01*
X91998868Y-91524408D01*
X91997035Y-91524539D01*
X91990420Y-91528790D01*
X91284923Y-92234287D01*
X91278493Y-92246062D01*
X87720925Y-92246062D01*
X87714356Y-92233566D01*
X87012812Y-91532022D01*
X86998868Y-91524408D01*
X86997035Y-91524539D01*
X86990420Y-91528790D01*
X86284923Y-92234287D01*
X86278493Y-92246062D01*
X83562517Y-92246062D01*
X83562517Y-92244525D01*
X83543528Y-92027481D01*
X83541625Y-92016688D01*
X83485236Y-91806239D01*
X83481490Y-91795947D01*
X83389414Y-91598489D01*
X83383931Y-91588994D01*
X83347491Y-91536952D01*
X83337012Y-91528576D01*
X83323566Y-91535644D01*
X82622022Y-92237188D01*
X82614408Y-92251132D01*
X81884356Y-92251132D01*
X81885592Y-92248868D01*
X81885461Y-92247035D01*
X81881210Y-92240420D01*
X81175713Y-91534923D01*
X81163938Y-91528493D01*
X81151923Y-91537789D01*
X81116069Y-91588994D01*
X81110586Y-91598489D01*
X81018510Y-91795947D01*
X81014764Y-91806239D01*
X80958375Y-92016688D01*
X80956472Y-92027481D01*
X80937483Y-92244525D01*
X80937483Y-92255475D01*
X78258500Y-92255475D01*
X78258500Y-91162988D01*
X81528576Y-91162988D01*
X81535644Y-91176434D01*
X82237188Y-91877978D01*
X82251132Y-91885592D01*
X82252965Y-91885461D01*
X82259580Y-91881210D01*
X82965077Y-91175713D01*
X82970668Y-91165475D01*
X85687483Y-91165475D01*
X85706472Y-91382519D01*
X85708375Y-91393312D01*
X85764764Y-91603761D01*
X85768510Y-91614053D01*
X85860586Y-91811511D01*
X85866069Y-91821006D01*
X85902509Y-91873048D01*
X85912988Y-91881424D01*
X85926434Y-91874356D01*
X86627978Y-91172812D01*
X86634356Y-91161132D01*
X87364408Y-91161132D01*
X87364539Y-91162965D01*
X87368790Y-91169580D01*
X88074287Y-91875077D01*
X88086062Y-91881507D01*
X88098077Y-91872211D01*
X88133931Y-91821006D01*
X88139414Y-91811511D01*
X88231490Y-91614053D01*
X88235236Y-91603761D01*
X88291625Y-91393312D01*
X88293528Y-91382519D01*
X88312517Y-91165475D01*
X90687483Y-91165475D01*
X90706472Y-91382519D01*
X90708375Y-91393312D01*
X90764764Y-91603761D01*
X90768510Y-91614053D01*
X90860586Y-91811511D01*
X90866069Y-91821006D01*
X90902509Y-91873048D01*
X90912988Y-91881424D01*
X90926434Y-91874356D01*
X91627978Y-91172812D01*
X91634356Y-91161132D01*
X92364408Y-91161132D01*
X92364539Y-91162965D01*
X92368790Y-91169580D01*
X93074287Y-91875077D01*
X93086062Y-91881507D01*
X93098077Y-91872211D01*
X93123389Y-91836062D01*
X95368493Y-91836062D01*
X95377789Y-91848077D01*
X95428994Y-91883931D01*
X95438489Y-91889414D01*
X95635947Y-91981490D01*
X95646239Y-91985236D01*
X95856688Y-92041625D01*
X95867481Y-92043528D01*
X96084525Y-92062517D01*
X96095475Y-92062517D01*
X96312519Y-92043528D01*
X96323312Y-92041625D01*
X96533761Y-91985236D01*
X96544053Y-91981490D01*
X96741511Y-91889414D01*
X96751006Y-91883931D01*
X96803048Y-91847491D01*
X96811424Y-91837012D01*
X96804356Y-91823566D01*
X96102812Y-91122022D01*
X96088868Y-91114408D01*
X96087035Y-91114539D01*
X96080420Y-91118790D01*
X95374923Y-91824287D01*
X95368493Y-91836062D01*
X93123389Y-91836062D01*
X93133931Y-91821006D01*
X93139414Y-91811511D01*
X93231490Y-91614053D01*
X93235236Y-91603761D01*
X93291625Y-91393312D01*
X93293528Y-91382519D01*
X93312517Y-91165475D01*
X93312517Y-91154525D01*
X93293528Y-90937481D01*
X93291625Y-90926688D01*
X93245749Y-90755475D01*
X94777483Y-90755475D01*
X94796472Y-90972519D01*
X94798375Y-90983312D01*
X94854764Y-91193761D01*
X94858510Y-91204053D01*
X94950586Y-91401511D01*
X94956069Y-91411006D01*
X94992509Y-91463048D01*
X95002988Y-91471424D01*
X95016434Y-91464356D01*
X95717978Y-90762812D01*
X95724356Y-90751132D01*
X96454408Y-90751132D01*
X96454539Y-90752965D01*
X96458790Y-90759580D01*
X97164287Y-91465077D01*
X97176062Y-91471507D01*
X97188077Y-91462211D01*
X97223931Y-91411006D01*
X97229414Y-91401511D01*
X97321490Y-91204053D01*
X97325236Y-91193761D01*
X97381625Y-90983312D01*
X97383528Y-90972519D01*
X97402517Y-90755475D01*
X97402517Y-90744525D01*
X97383528Y-90527481D01*
X97381625Y-90516688D01*
X97325236Y-90306239D01*
X97321490Y-90295947D01*
X97229414Y-90098489D01*
X97223931Y-90088994D01*
X97187491Y-90036952D01*
X97177012Y-90028576D01*
X97163566Y-90035644D01*
X96462022Y-90737188D01*
X96454408Y-90751132D01*
X95724356Y-90751132D01*
X95725592Y-90748868D01*
X95725461Y-90747035D01*
X95721210Y-90740420D01*
X95015713Y-90034923D01*
X95003938Y-90028493D01*
X94991923Y-90037789D01*
X94956069Y-90088994D01*
X94950586Y-90098489D01*
X94858510Y-90295947D01*
X94854764Y-90306239D01*
X94798375Y-90516688D01*
X94796472Y-90527481D01*
X94777483Y-90744525D01*
X94777483Y-90755475D01*
X93245749Y-90755475D01*
X93235236Y-90716239D01*
X93231490Y-90705947D01*
X93139414Y-90508489D01*
X93133931Y-90498994D01*
X93097491Y-90446952D01*
X93087012Y-90438576D01*
X93073566Y-90445644D01*
X92372022Y-91147188D01*
X92364408Y-91161132D01*
X91634356Y-91161132D01*
X91635592Y-91158868D01*
X91635461Y-91157035D01*
X91631210Y-91150420D01*
X90925713Y-90444923D01*
X90913938Y-90438493D01*
X90901923Y-90447789D01*
X90866069Y-90498994D01*
X90860586Y-90508489D01*
X90768510Y-90705947D01*
X90764764Y-90716239D01*
X90708375Y-90926688D01*
X90706472Y-90937481D01*
X90687483Y-91154525D01*
X90687483Y-91165475D01*
X88312517Y-91165475D01*
X88312517Y-91154525D01*
X88293528Y-90937481D01*
X88291625Y-90926688D01*
X88235236Y-90716239D01*
X88231490Y-90705947D01*
X88139414Y-90508489D01*
X88133931Y-90498994D01*
X88097491Y-90446952D01*
X88087012Y-90438576D01*
X88073566Y-90445644D01*
X87372022Y-91147188D01*
X87364408Y-91161132D01*
X86634356Y-91161132D01*
X86635592Y-91158868D01*
X86635461Y-91157035D01*
X86631210Y-91150420D01*
X85925713Y-90444923D01*
X85913938Y-90438493D01*
X85901923Y-90447789D01*
X85866069Y-90498994D01*
X85860586Y-90508489D01*
X85768510Y-90705947D01*
X85764764Y-90716239D01*
X85708375Y-90926688D01*
X85706472Y-90937481D01*
X85687483Y-91154525D01*
X85687483Y-91165475D01*
X82970668Y-91165475D01*
X82971507Y-91163938D01*
X82962211Y-91151923D01*
X82911006Y-91116069D01*
X82901511Y-91110586D01*
X82704053Y-91018510D01*
X82693761Y-91014764D01*
X82483312Y-90958375D01*
X82472519Y-90956472D01*
X82255475Y-90937483D01*
X82244525Y-90937483D01*
X82027481Y-90956472D01*
X82016688Y-90958375D01*
X81806239Y-91014764D01*
X81795947Y-91018510D01*
X81598489Y-91110586D01*
X81588994Y-91116069D01*
X81536952Y-91152509D01*
X81528576Y-91162988D01*
X78258500Y-91162988D01*
X78258500Y-90295232D01*
X78278502Y-90227111D01*
X78332158Y-90180618D01*
X78402432Y-90170514D01*
X78437750Y-90181037D01*
X78545947Y-90231490D01*
X78556239Y-90235236D01*
X78766688Y-90291625D01*
X78777481Y-90293528D01*
X78994525Y-90312517D01*
X79005475Y-90312517D01*
X79222519Y-90293528D01*
X79233312Y-90291625D01*
X79443761Y-90235236D01*
X79454053Y-90231490D01*
X79651511Y-90139414D01*
X79661006Y-90133931D01*
X79713048Y-90097491D01*
X79721424Y-90087012D01*
X79714356Y-90073566D01*
X79713778Y-90072988D01*
X86278576Y-90072988D01*
X86285644Y-90086434D01*
X86987188Y-90787978D01*
X87001132Y-90795592D01*
X87002965Y-90795461D01*
X87009580Y-90791210D01*
X87715077Y-90085713D01*
X87721507Y-90073938D01*
X87720772Y-90072988D01*
X91278576Y-90072988D01*
X91285644Y-90086434D01*
X91987188Y-90787978D01*
X92001132Y-90795592D01*
X92002965Y-90795461D01*
X92009580Y-90791210D01*
X92715077Y-90085713D01*
X92721507Y-90073938D01*
X92712211Y-90061923D01*
X92661006Y-90026069D01*
X92651511Y-90020586D01*
X92454053Y-89928510D01*
X92443761Y-89924764D01*
X92233312Y-89868375D01*
X92222519Y-89866472D01*
X92005475Y-89847483D01*
X91994525Y-89847483D01*
X91777481Y-89866472D01*
X91766688Y-89868375D01*
X91556239Y-89924764D01*
X91545947Y-89928510D01*
X91348489Y-90020586D01*
X91338994Y-90026069D01*
X91286952Y-90062509D01*
X91278576Y-90072988D01*
X87720772Y-90072988D01*
X87712211Y-90061923D01*
X87661006Y-90026069D01*
X87651511Y-90020586D01*
X87454053Y-89928510D01*
X87443761Y-89924764D01*
X87233312Y-89868375D01*
X87222519Y-89866472D01*
X87005475Y-89847483D01*
X86994525Y-89847483D01*
X86777481Y-89866472D01*
X86766688Y-89868375D01*
X86556239Y-89924764D01*
X86545947Y-89928510D01*
X86348489Y-90020586D01*
X86338994Y-90026069D01*
X86286952Y-90062509D01*
X86278576Y-90072988D01*
X79713778Y-90072988D01*
X78729885Y-89089095D01*
X78695859Y-89026783D01*
X78697694Y-89001132D01*
X79364408Y-89001132D01*
X79364539Y-89002965D01*
X79368790Y-89009580D01*
X80074287Y-89715077D01*
X80086062Y-89721507D01*
X80098077Y-89712211D01*
X80132543Y-89662988D01*
X95368576Y-89662988D01*
X95375644Y-89676434D01*
X96077188Y-90377978D01*
X96091132Y-90385592D01*
X96092965Y-90385461D01*
X96099580Y-90381210D01*
X96805077Y-89675713D01*
X96811507Y-89663938D01*
X96802211Y-89651923D01*
X96751006Y-89616069D01*
X96741511Y-89610586D01*
X96544053Y-89518510D01*
X96533761Y-89514764D01*
X96323312Y-89458375D01*
X96312519Y-89456472D01*
X96095475Y-89437483D01*
X96084525Y-89437483D01*
X95867481Y-89456472D01*
X95856688Y-89458375D01*
X95646239Y-89514764D01*
X95635947Y-89518510D01*
X95438489Y-89610586D01*
X95428994Y-89616069D01*
X95376952Y-89652509D01*
X95368576Y-89662988D01*
X80132543Y-89662988D01*
X80133931Y-89661006D01*
X80139414Y-89651511D01*
X80231490Y-89454053D01*
X80235236Y-89443761D01*
X80291625Y-89233312D01*
X80293528Y-89222519D01*
X80312517Y-89005475D01*
X80312517Y-88994525D01*
X80293528Y-88777481D01*
X80291625Y-88766688D01*
X80235236Y-88556239D01*
X80231490Y-88545947D01*
X80139414Y-88348489D01*
X80133931Y-88338994D01*
X80097491Y-88286952D01*
X80087012Y-88278576D01*
X80073566Y-88285644D01*
X79372022Y-88987188D01*
X79364408Y-89001132D01*
X78697694Y-89001132D01*
X78700924Y-88955968D01*
X78729885Y-88910905D01*
X79715077Y-87925713D01*
X79721507Y-87913938D01*
X79712211Y-87901923D01*
X79661006Y-87866069D01*
X79651511Y-87860586D01*
X79454053Y-87768510D01*
X79443761Y-87764764D01*
X79233312Y-87708375D01*
X79222520Y-87706472D01*
X79097220Y-87695510D01*
X79031102Y-87669647D01*
X78989462Y-87612143D01*
X78985521Y-87541256D01*
X79019106Y-87480894D01*
X79213095Y-87286905D01*
X79275407Y-87252879D01*
X79302190Y-87250000D01*
X98415500Y-87250000D01*
X98483621Y-87270002D01*
G37*
%TD.AperFunction*%
%TD*%
M02*
