  0
SECTION
  2
HEADER
  9
$ANGBASE
  50
0.0
  9
$ANGDIR
  70
1
  9
$MEASUREMENT
  70
0
  0
ENDSEC
  0
SECTION
  2
TABLES
  0
TABLE
  2
LTYPE
  70
4
  0
LTYPE
  5
40F
  2
CONTINUOUS
  70
0
  3
Solid line
  72
65
  73
0
  40
0.0
  0
LTYPE
  5
410
  2
DASHDOT
 70
0
  3
Dash Dot ____ _ ____ _
 72
65
 73
4
 40
2.0
 49
1.25
 49
-0.25
 49
0.25
 49
-0.25
  0
LTYPE
  5
411
  2
DASHED
 70
0
  3
Dashed __ __ __ __ __
 72
65
 73
2
 40
0.75
 49
0.5
 49
-0.25
  0
LTYPE
  5
43B
  2
DOTTED
 70
0
  3
Dotted .  .  .  .
 72
65
 73
2
 40
0.2
 49
0.0
 49
-0.2
  0
ENDTAB
  0
TABLE
  2
STYLE
  70
4
  0
STYLE
  2
KICAD
  70
0
  40
0
  41
1
  42
1
  50
0
  71
0
  3
isocp.shx
  0
STYLE
  2
KICADB
  70
0
  40
0
  41
1
  42
1
  50
0
  71
0
  3
isocp.shx
  0
STYLE
  2
KICADI
  70
0
  40
0
  41
1
  42
1
  50
15
  71
0
  3
isocp.shx
  0
STYLE
  2
KICADBI
  70
0
  40
0
  41
1
  42
1
  50
15
  71
0
  3
isocp.shx
  0
ENDTAB
  0
TABLE
  2
LAYER
  70
1
  0
LAYER
  2
BLACK
  70
0
  62
7
  6
CONTINUOUS
  0
ENDTAB
  0
ENDSEC
  0
SECTION
  2
ENTITIES
0
LINE
8
BLACK
6
CONTINUOUS
10
7.87402
20
-5.51181
11
2.3622
21
-5.51181
0
LINE
8
BLACK
6
CONTINUOUS
10
7.87402
20
-1.5748
11
7.87402
21
-5.51181
0
LINE
8
BLACK
6
CONTINUOUS
10
2.3622
20
-1.5748
11
7.87402
21
-1.5748
0
LINE
8
BLACK
6
CONTINUOUS
10
2.3622
20
-1.5748
11
2.3622
21
-5.51181
0
LINE
8
BLACK
6
CONTINUOUS
10
2.45472
20
-1.76181
11
2.47441
21
-1.7815
0
LINE
8
BLACK
6
CONTINUOUS
10
2.47441
20
-1.76181
11
2.45472
21
-1.7815
0
LINE
8
BLACK
6
CONTINUOUS
10
2.45472
20
-5.30512
11
2.47441
21
-5.3248
0
LINE
8
BLACK
6
CONTINUOUS
10
2.47441
20
-5.30512
11
2.45472
21
-5.3248
0
LINE
8
BLACK
6
CONTINUOUS
10
2.4824
20
-1.695
11
2.50208
21
-1.71468
0
LINE
8
BLACK
6
CONTINUOUS
10
2.50208
20
-1.695
11
2.4824
21
-1.71468
0
LINE
8
BLACK
6
CONTINUOUS
10
2.4824
20
-1.82862
11
2.50208
21
-1.84831
0
LINE
8
BLACK
6
CONTINUOUS
10
2.50208
20
-1.82862
11
2.4824
21
-1.84831
0
LINE
8
BLACK
6
CONTINUOUS
10
2.4824
20
-5.2383
11
2.50208
21
-5.25799
0
LINE
8
BLACK
6
CONTINUOUS
10
2.50208
20
-5.2383
11
2.4824
21
-5.25799
0
LINE
8
BLACK
6
CONTINUOUS
10
2.4824
20
-5.37193
11
2.50208
21
-5.39162
0
LINE
8
BLACK
6
CONTINUOUS
10
2.50208
20
-5.37193
11
2.4824
21
-5.39162
0
LINE
8
BLACK
6
CONTINUOUS
10
2.54921
20
-1.66732
11
2.5689
21
-1.68701
0
LINE
8
BLACK
6
CONTINUOUS
10
2.5689
20
-1.66732
11
2.54921
21
-1.68701
0
LINE
8
BLACK
6
CONTINUOUS
10
2.54921
20
-1.8563
11
2.5689
21
-1.87598
0
LINE
8
BLACK
6
CONTINUOUS
10
2.5689
20
-1.8563
11
2.54921
21
-1.87598
0
LINE
8
BLACK
6
CONTINUOUS
10
2.54921
20
-5.21063
11
2.5689
21
-5.23031
0
LINE
8
BLACK
6
CONTINUOUS
10
2.5689
20
-5.21063
11
2.54921
21
-5.23031
0
LINE
8
BLACK
6
CONTINUOUS
10
2.54921
20
-5.39961
11
2.5689
21
-5.41929
0
LINE
8
BLACK
6
CONTINUOUS
10
2.5689
20
-5.39961
11
2.54921
21
-5.41929
0
LINE
8
BLACK
6
CONTINUOUS
10
2.61603
20
-1.695
11
2.63571
21
-1.71468
0
LINE
8
BLACK
6
CONTINUOUS
10
2.63571
20
-1.695
11
2.61603
21
-1.71468
0
LINE
8
BLACK
6
CONTINUOUS
10
2.61603
20
-1.82862
11
2.63571
21
-1.84831
0
LINE
8
BLACK
6
CONTINUOUS
10
2.63571
20
-1.82862
11
2.61603
21
-1.84831
0
LINE
8
BLACK
6
CONTINUOUS
10
2.61603
20
-5.2383
11
2.63571
21
-5.25799
0
LINE
8
BLACK
6
CONTINUOUS
10
2.63571
20
-5.2383
11
2.61603
21
-5.25799
0
LINE
8
BLACK
6
CONTINUOUS
10
2.61603
20
-5.37193
11
2.63571
21
-5.39162
0
LINE
8
BLACK
6
CONTINUOUS
10
2.63571
20
-5.37193
11
2.61603
21
-5.39162
0
LINE
8
BLACK
6
CONTINUOUS
10
2.6437
20
-1.76181
11
2.66339
21
-1.7815
0
LINE
8
BLACK
6
CONTINUOUS
10
2.66339
20
-1.76181
11
2.6437
21
-1.7815
0
LINE
8
BLACK
6
CONTINUOUS
10
2.6437
20
-5.30512
11
2.66339
21
-5.3248
0
LINE
8
BLACK
6
CONTINUOUS
10
2.66339
20
-5.30512
11
2.6437
21
-5.3248
0
LINE
8
BLACK
6
CONTINUOUS
10
7.57283
20
-1.76181
11
7.59252
21
-1.7815
0
LINE
8
BLACK
6
CONTINUOUS
10
7.59252
20
-1.76181
11
7.57283
21
-1.7815
0
LINE
8
BLACK
6
CONTINUOUS
10
7.57283
20
-5.30512
11
7.59252
21
-5.3248
0
LINE
8
BLACK
6
CONTINUOUS
10
7.59252
20
-5.30512
11
7.57283
21
-5.3248
0
LINE
8
BLACK
6
CONTINUOUS
10
7.60051
20
-1.695
11
7.62019
21
-1.71468
0
LINE
8
BLACK
6
CONTINUOUS
10
7.62019
20
-1.695
11
7.60051
21
-1.71468
0
LINE
8
BLACK
6
CONTINUOUS
10
7.60051
20
-1.82862
11
7.62019
21
-1.84831
0
LINE
8
BLACK
6
CONTINUOUS
10
7.62019
20
-1.82862
11
7.60051
21
-1.84831
0
LINE
8
BLACK
6
CONTINUOUS
10
7.60051
20
-5.2383
11
7.62019
21
-5.25799
0
LINE
8
BLACK
6
CONTINUOUS
10
7.62019
20
-5.2383
11
7.60051
21
-5.25799
0
LINE
8
BLACK
6
CONTINUOUS
10
7.60051
20
-5.37193
11
7.62019
21
-5.39162
0
LINE
8
BLACK
6
CONTINUOUS
10
7.62019
20
-5.37193
11
7.60051
21
-5.39162
0
LINE
8
BLACK
6
CONTINUOUS
10
7.66732
20
-1.66732
11
7.68701
21
-1.68701
0
LINE
8
BLACK
6
CONTINUOUS
10
7.68701
20
-1.66732
11
7.66732
21
-1.68701
0
LINE
8
BLACK
6
CONTINUOUS
10
7.66732
20
-1.8563
11
7.68701
21
-1.87598
0
LINE
8
BLACK
6
CONTINUOUS
10
7.68701
20
-1.8563
11
7.66732
21
-1.87598
0
LINE
8
BLACK
6
CONTINUOUS
10
7.66732
20
-5.21063
11
7.68701
21
-5.23031
0
LINE
8
BLACK
6
CONTINUOUS
10
7.68701
20
-5.21063
11
7.66732
21
-5.23031
0
LINE
8
BLACK
6
CONTINUOUS
10
7.66732
20
-5.39961
11
7.68701
21
-5.41929
0
LINE
8
BLACK
6
CONTINUOUS
10
7.68701
20
-5.39961
11
7.66732
21
-5.41929
0
LINE
8
BLACK
6
CONTINUOUS
10
7.73414
20
-1.695
11
7.75382
21
-1.71468
0
LINE
8
BLACK
6
CONTINUOUS
10
7.75382
20
-1.695
11
7.73414
21
-1.71468
0
LINE
8
BLACK
6
CONTINUOUS
10
7.73414
20
-1.82862
11
7.75382
21
-1.84831
0
LINE
8
BLACK
6
CONTINUOUS
10
7.75382
20
-1.82862
11
7.73414
21
-1.84831
0
LINE
8
BLACK
6
CONTINUOUS
10
7.73414
20
-5.2383
11
7.75382
21
-5.25799
0
LINE
8
BLACK
6
CONTINUOUS
10
7.75382
20
-5.2383
11
7.73414
21
-5.25799
0
LINE
8
BLACK
6
CONTINUOUS
10
7.73414
20
-5.37193
11
7.75382
21
-5.39162
0
LINE
8
BLACK
6
CONTINUOUS
10
7.75382
20
-5.37193
11
7.73414
21
-5.39162
0
LINE
8
BLACK
6
CONTINUOUS
10
7.76181
20
-1.76181
11
7.7815
21
-1.7815
0
LINE
8
BLACK
6
CONTINUOUS
10
7.7815
20
-1.76181
11
7.76181
21
-1.7815
0
LINE
8
BLACK
6
CONTINUOUS
10
7.76181
20
-5.30512
11
7.7815
21
-5.3248
0
LINE
8
BLACK
6
CONTINUOUS
10
7.7815
20
-5.30512
11
7.76181
21
-5.3248
0
CIRCLE
8
BLACK
10
4.3122
20
-3.56181
40
0.015748
0
CIRCLE
8
BLACK
10
4.3122
20
-3.78681
40
0.015748
0
CIRCLE
8
BLACK
10
4.4372
20
-3.06181
40
0.015748
0
CIRCLE
8
BLACK
10
4.7122
20
-2.96181
40
0.015748
0
CIRCLE
8
BLACK
10
5.6622
20
-2.96181
40
0.015748
0
CIRCLE
8
BLACK
10
5.7372
20
-3.06181
40
0.015748
0
CIRCLE
8
BLACK
10
5.9622
20
-2.51181
40
0.015748
0
CIRCLE
8
BLACK
10
5.9622
20
-2.71181
40
0.015748
0
CIRCLE
8
BLACK
10
6.3622
20
-2.51181
40
0.015748
0
CIRCLE
8
BLACK
10
6.3622
20
-2.71181
40
0.015748
0
CIRCLE
8
BLACK
10
6.73228
20
-4.68504
40
0.015748
0
CIRCLE
8
BLACK
10
6.94882
20
-4.68504
40
0.015748
0
LINE
8
BLACK
6
CONTINUOUS
10
6.84094
20
-4.07677
11
6.84094
21
-4.1122
0
LINE
8
BLACK
6
CONTINUOUS
10
6.82323
20
-4.09449
11
6.85866
21
-4.09449
0
LINE
8
BLACK
6
CONTINUOUS
10
6.84094
20
-4.54921
11
6.84094
21
-4.58465
0
LINE
8
BLACK
6
CONTINUOUS
10
6.82323
20
-4.56693
11
6.85866
21
-4.56693
0
LINE
8
BLACK
6
CONTINUOUS
10
6.94094
20
-4.07677
11
6.94094
21
-4.1122
0
LINE
8
BLACK
6
CONTINUOUS
10
6.92323
20
-4.09449
11
6.95866
21
-4.09449
0
LINE
8
BLACK
6
CONTINUOUS
10
6.94094
20
-4.54921
11
6.94094
21
-4.58465
0
LINE
8
BLACK
6
CONTINUOUS
10
6.92323
20
-4.56693
11
6.95866
21
-4.56693
0
LINE
8
BLACK
6
CONTINUOUS
10
2.57297
20
-3.55408
11
2.57297
21
-3.52624
0
LINE
8
BLACK
6
CONTINUOUS
10
2.57297
20
-3.52624
11
2.54514
21
-3.52624
0
LINE
8
BLACK
6
CONTINUOUS
10
2.54514
20
-3.52624
11
2.54514
21
-3.55408
0
LINE
8
BLACK
6
CONTINUOUS
10
2.54514
20
-3.55408
11
2.57297
21
-3.55408
0
LINE
8
BLACK
6
CONTINUOUS
10
2.57297
20
-3.65408
11
2.57297
21
-3.62624
0
LINE
8
BLACK
6
CONTINUOUS
10
2.57297
20
-3.62624
11
2.54514
21
-3.62624
0
LINE
8
BLACK
6
CONTINUOUS
10
2.54514
20
-3.62624
11
2.54514
21
-3.65408
0
LINE
8
BLACK
6
CONTINUOUS
10
2.54514
20
-3.65408
11
2.57297
21
-3.65408
0
LINE
8
BLACK
6
CONTINUOUS
10
2.57297
20
-3.75408
11
2.57297
21
-3.72624
0
LINE
8
BLACK
6
CONTINUOUS
10
2.57297
20
-3.72624
11
2.54514
21
-3.72624
0
LINE
8
BLACK
6
CONTINUOUS
10
2.54514
20
-3.72624
11
2.54514
21
-3.75408
0
LINE
8
BLACK
6
CONTINUOUS
10
2.54514
20
-3.75408
11
2.57297
21
-3.75408
0
LINE
8
BLACK
6
CONTINUOUS
10
2.57297
20
-3.85408
11
2.57297
21
-3.82624
0
LINE
8
BLACK
6
CONTINUOUS
10
2.57297
20
-3.82624
11
2.54514
21
-3.82624
0
LINE
8
BLACK
6
CONTINUOUS
10
2.54514
20
-3.82624
11
2.54514
21
-3.85408
0
LINE
8
BLACK
6
CONTINUOUS
10
2.54514
20
-3.85408
11
2.57297
21
-3.85408
0
LINE
8
BLACK
6
CONTINUOUS
10
2.57297
20
-3.95408
11
2.57297
21
-3.92624
0
LINE
8
BLACK
6
CONTINUOUS
10
2.57297
20
-3.92624
11
2.54514
21
-3.92624
0
LINE
8
BLACK
6
CONTINUOUS
10
2.54514
20
-3.92624
11
2.54514
21
-3.95408
0
LINE
8
BLACK
6
CONTINUOUS
10
2.54514
20
-3.95408
11
2.57297
21
-3.95408
0
LINE
8
BLACK
6
CONTINUOUS
10
2.57297
20
-4.05408
11
2.57297
21
-4.02624
0
LINE
8
BLACK
6
CONTINUOUS
10
2.57297
20
-4.02624
11
2.54514
21
-4.02624
0
LINE
8
BLACK
6
CONTINUOUS
10
2.54514
20
-4.02624
11
2.54514
21
-4.05408
0
LINE
8
BLACK
6
CONTINUOUS
10
2.54514
20
-4.05408
11
2.57297
21
-4.05408
0
LINE
8
BLACK
6
CONTINUOUS
10
2.57297
20
-4.15408
11
2.57297
21
-4.12624
0
LINE
8
BLACK
6
CONTINUOUS
10
2.57297
20
-4.12624
11
2.54514
21
-4.12624
0
LINE
8
BLACK
6
CONTINUOUS
10
2.54514
20
-4.12624
11
2.54514
21
-4.15408
0
LINE
8
BLACK
6
CONTINUOUS
10
2.54514
20
-4.15408
11
2.57297
21
-4.15408
0
LINE
8
BLACK
6
CONTINUOUS
10
2.57297
20
-4.25408
11
2.57297
21
-4.22624
0
LINE
8
BLACK
6
CONTINUOUS
10
2.57297
20
-4.22624
11
2.54514
21
-4.22624
0
LINE
8
BLACK
6
CONTINUOUS
10
2.54514
20
-4.22624
11
2.54514
21
-4.25408
0
LINE
8
BLACK
6
CONTINUOUS
10
2.54514
20
-4.25408
11
2.57297
21
-4.25408
0
LINE
8
BLACK
6
CONTINUOUS
10
2.94542
20
-5.32888
11
2.94542
21
-5.30104
0
LINE
8
BLACK
6
CONTINUOUS
10
2.94542
20
-5.30104
11
2.91758
21
-5.30104
0
LINE
8
BLACK
6
CONTINUOUS
10
2.91758
20
-5.30104
11
2.91758
21
-5.32888
0
LINE
8
BLACK
6
CONTINUOUS
10
2.91758
20
-5.32888
11
2.94542
21
-5.32888
0
LINE
8
BLACK
6
CONTINUOUS
10
3.04542
20
-5.32888
11
3.04542
21
-5.30104
0
LINE
8
BLACK
6
CONTINUOUS
10
3.04542
20
-5.30104
11
3.01758
21
-5.30104
0
LINE
8
BLACK
6
CONTINUOUS
10
3.01758
20
-5.30104
11
3.01758
21
-5.32888
0
LINE
8
BLACK
6
CONTINUOUS
10
3.01758
20
-5.32888
11
3.04542
21
-5.32888
0
LINE
8
BLACK
6
CONTINUOUS
10
3.14542
20
-5.32888
11
3.14542
21
-5.30104
0
LINE
8
BLACK
6
CONTINUOUS
10
3.14542
20
-5.30104
11
3.11758
21
-5.30104
0
LINE
8
BLACK
6
CONTINUOUS
10
3.11758
20
-5.30104
11
3.11758
21
-5.32888
0
LINE
8
BLACK
6
CONTINUOUS
10
3.11758
20
-5.32888
11
3.14542
21
-5.32888
0
LINE
8
BLACK
6
CONTINUOUS
10
3.24542
20
-5.32888
11
3.24542
21
-5.30104
0
LINE
8
BLACK
6
CONTINUOUS
10
3.24542
20
-5.30104
11
3.21758
21
-5.30104
0
LINE
8
BLACK
6
CONTINUOUS
10
3.21758
20
-5.30104
11
3.21758
21
-5.32888
0
LINE
8
BLACK
6
CONTINUOUS
10
3.21758
20
-5.32888
11
3.24542
21
-5.32888
0
LINE
8
BLACK
6
CONTINUOUS
10
3.26195
20
-4.56116
11
3.26195
21
-4.53332
0
LINE
8
BLACK
6
CONTINUOUS
10
3.26195
20
-4.53332
11
3.23411
21
-4.53332
0
LINE
8
BLACK
6
CONTINUOUS
10
3.23411
20
-4.53332
11
3.23411
21
-4.56116
0
LINE
8
BLACK
6
CONTINUOUS
10
3.23411
20
-4.56116
11
3.26195
21
-4.56116
0
LINE
8
BLACK
6
CONTINUOUS
10
3.27179
20
-4.11825
11
3.27179
21
-4.09041
0
LINE
8
BLACK
6
CONTINUOUS
10
3.27179
20
-4.09041
11
3.24395
21
-4.09041
0
LINE
8
BLACK
6
CONTINUOUS
10
3.24395
20
-4.09041
11
3.24395
21
-4.11825
0
LINE
8
BLACK
6
CONTINUOUS
10
3.24395
20
-4.11825
11
3.27179
21
-4.11825
0
LINE
8
BLACK
6
CONTINUOUS
10
3.55723
20
-3.9903
11
3.55723
21
-3.96246
0
LINE
8
BLACK
6
CONTINUOUS
10
3.55723
20
-3.96246
11
3.52939
21
-3.96246
0
LINE
8
BLACK
6
CONTINUOUS
10
3.52939
20
-3.96246
11
3.52939
21
-3.9903
0
LINE
8
BLACK
6
CONTINUOUS
10
3.52939
20
-3.9903
11
3.55723
21
-3.9903
0
LINE
8
BLACK
6
CONTINUOUS
10
3.55723
20
-4.69896
11
3.55723
21
-4.67112
0
LINE
8
BLACK
6
CONTINUOUS
10
3.55723
20
-4.67112
11
3.52939
21
-4.67112
0
LINE
8
BLACK
6
CONTINUOUS
10
3.52939
20
-4.67112
11
3.52939
21
-4.69896
0
LINE
8
BLACK
6
CONTINUOUS
10
3.52939
20
-4.69896
11
3.55723
21
-4.69896
0
LINE
8
BLACK
6
CONTINUOUS
10
3.84266
20
-4.11825
11
3.84266
21
-4.09041
0
LINE
8
BLACK
6
CONTINUOUS
10
3.84266
20
-4.09041
11
3.81482
21
-4.09041
0
LINE
8
BLACK
6
CONTINUOUS
10
3.81482
20
-4.09041
11
3.81482
21
-4.11825
0
LINE
8
BLACK
6
CONTINUOUS
10
3.81482
20
-4.11825
11
3.84266
21
-4.11825
0
LINE
8
BLACK
6
CONTINUOUS
10
3.8525
20
-4.56116
11
3.8525
21
-4.53332
0
LINE
8
BLACK
6
CONTINUOUS
10
3.8525
20
-4.53332
11
3.82466
21
-4.53332
0
LINE
8
BLACK
6
CONTINUOUS
10
3.82466
20
-4.53332
11
3.82466
21
-4.56116
0
LINE
8
BLACK
6
CONTINUOUS
10
3.82466
20
-4.56116
11
3.8525
21
-4.56116
0
LINE
8
BLACK
6
CONTINUOUS
10
4.48242
20
-2.41549
11
4.48242
21
-2.38766
0
LINE
8
BLACK
6
CONTINUOUS
10
4.48242
20
-2.38766
11
4.45458
21
-2.38766
0
LINE
8
BLACK
6
CONTINUOUS
10
4.45458
20
-2.38766
11
4.45458
21
-2.41549
0
LINE
8
BLACK
6
CONTINUOUS
10
4.45458
20
-2.41549
11
4.48242
21
-2.41549
0
LINE
8
BLACK
6
CONTINUOUS
10
4.48242
20
-2.51549
11
4.48242
21
-2.48766
0
LINE
8
BLACK
6
CONTINUOUS
10
4.48242
20
-2.48766
11
4.45458
21
-2.48766
0
LINE
8
BLACK
6
CONTINUOUS
10
4.45458
20
-2.48766
11
4.45458
21
-2.51549
0
LINE
8
BLACK
6
CONTINUOUS
10
4.45458
20
-2.51549
11
4.48242
21
-2.51549
0
LINE
8
BLACK
6
CONTINUOUS
10
4.48242
20
-2.61549
11
4.48242
21
-2.58766
0
LINE
8
BLACK
6
CONTINUOUS
10
4.48242
20
-2.58766
11
4.45458
21
-2.58766
0
LINE
8
BLACK
6
CONTINUOUS
10
4.45458
20
-2.58766
11
4.45458
21
-2.61549
0
LINE
8
BLACK
6
CONTINUOUS
10
4.45458
20
-2.61549
11
4.48242
21
-2.61549
0
LINE
8
BLACK
6
CONTINUOUS
10
4.48242
20
-2.71549
11
4.48242
21
-2.68766
0
LINE
8
BLACK
6
CONTINUOUS
10
4.48242
20
-2.68766
11
4.45458
21
-2.68766
0
LINE
8
BLACK
6
CONTINUOUS
10
4.45458
20
-2.68766
11
4.45458
21
-2.71549
0
LINE
8
BLACK
6
CONTINUOUS
10
4.45458
20
-2.71549
11
4.48242
21
-2.71549
0
LINE
8
BLACK
6
CONTINUOUS
10
4.48242
20
-2.81549
11
4.48242
21
-2.78766
0
LINE
8
BLACK
6
CONTINUOUS
10
4.48242
20
-2.78766
11
4.45458
21
-2.78766
0
LINE
8
BLACK
6
CONTINUOUS
10
4.45458
20
-2.78766
11
4.45458
21
-2.81549
0
LINE
8
BLACK
6
CONTINUOUS
10
4.45458
20
-2.81549
11
4.48242
21
-2.81549
0
LINE
8
BLACK
6
CONTINUOUS
10
4.78242
20
-2.41549
11
4.78242
21
-2.38766
0
LINE
8
BLACK
6
CONTINUOUS
10
4.78242
20
-2.38766
11
4.75458
21
-2.38766
0
LINE
8
BLACK
6
CONTINUOUS
10
4.75458
20
-2.38766
11
4.75458
21
-2.41549
0
LINE
8
BLACK
6
CONTINUOUS
10
4.75458
20
-2.41549
11
4.78242
21
-2.41549
0
LINE
8
BLACK
6
CONTINUOUS
10
4.78242
20
-2.51549
11
4.78242
21
-2.48766
0
LINE
8
BLACK
6
CONTINUOUS
10
4.78242
20
-2.48766
11
4.75458
21
-2.48766
0
LINE
8
BLACK
6
CONTINUOUS
10
4.75458
20
-2.48766
11
4.75458
21
-2.51549
0
LINE
8
BLACK
6
CONTINUOUS
10
4.75458
20
-2.51549
11
4.78242
21
-2.51549
0
LINE
8
BLACK
6
CONTINUOUS
10
4.78242
20
-2.61549
11
4.78242
21
-2.58766
0
LINE
8
BLACK
6
CONTINUOUS
10
4.78242
20
-2.58766
11
4.75458
21
-2.58766
0
LINE
8
BLACK
6
CONTINUOUS
10
4.75458
20
-2.58766
11
4.75458
21
-2.61549
0
LINE
8
BLACK
6
CONTINUOUS
10
4.75458
20
-2.61549
11
4.78242
21
-2.61549
0
LINE
8
BLACK
6
CONTINUOUS
10
4.78242
20
-2.71549
11
4.78242
21
-2.68766
0
LINE
8
BLACK
6
CONTINUOUS
10
4.78242
20
-2.68766
11
4.75458
21
-2.68766
0
LINE
8
BLACK
6
CONTINUOUS
10
4.75458
20
-2.68766
11
4.75458
21
-2.71549
0
LINE
8
BLACK
6
CONTINUOUS
10
4.75458
20
-2.71549
11
4.78242
21
-2.71549
0
LINE
8
BLACK
6
CONTINUOUS
10
4.78242
20
-2.81549
11
4.78242
21
-2.78766
0
LINE
8
BLACK
6
CONTINUOUS
10
4.78242
20
-2.78766
11
4.75458
21
-2.78766
0
LINE
8
BLACK
6
CONTINUOUS
10
4.75458
20
-2.78766
11
4.75458
21
-2.81549
0
LINE
8
BLACK
6
CONTINUOUS
10
4.75458
20
-2.81549
11
4.78242
21
-2.81549
0
LINE
8
BLACK
6
CONTINUOUS
10
4.94305
20
-2.41549
11
4.94305
21
-2.38766
0
LINE
8
BLACK
6
CONTINUOUS
10
4.94305
20
-2.38766
11
4.91521
21
-2.38766
0
LINE
8
BLACK
6
CONTINUOUS
10
4.91521
20
-2.38766
11
4.91521
21
-2.41549
0
LINE
8
BLACK
6
CONTINUOUS
10
4.91521
20
-2.41549
11
4.94305
21
-2.41549
0
LINE
8
BLACK
6
CONTINUOUS
10
4.94305
20
-2.51549
11
4.94305
21
-2.48766
0
LINE
8
BLACK
6
CONTINUOUS
10
4.94305
20
-2.48766
11
4.91521
21
-2.48766
0
LINE
8
BLACK
6
CONTINUOUS
10
4.91521
20
-2.48766
11
4.91521
21
-2.51549
0
LINE
8
BLACK
6
CONTINUOUS
10
4.91521
20
-2.51549
11
4.94305
21
-2.51549
0
LINE
8
BLACK
6
CONTINUOUS
10
4.94305
20
-2.61549
11
4.94305
21
-2.58766
0
LINE
8
BLACK
6
CONTINUOUS
10
4.94305
20
-2.58766
11
4.91521
21
-2.58766
0
LINE
8
BLACK
6
CONTINUOUS
10
4.91521
20
-2.58766
11
4.91521
21
-2.61549
0
LINE
8
BLACK
6
CONTINUOUS
10
4.91521
20
-2.61549
11
4.94305
21
-2.61549
0
LINE
8
BLACK
6
CONTINUOUS
10
4.94305
20
-2.71549
11
4.94305
21
-2.68766
0
LINE
8
BLACK
6
CONTINUOUS
10
4.94305
20
-2.68766
11
4.91521
21
-2.68766
0
LINE
8
BLACK
6
CONTINUOUS
10
4.91521
20
-2.68766
11
4.91521
21
-2.71549
0
LINE
8
BLACK
6
CONTINUOUS
10
4.91521
20
-2.71549
11
4.94305
21
-2.71549
0
LINE
8
BLACK
6
CONTINUOUS
10
4.94305
20
-2.81549
11
4.94305
21
-2.78766
0
LINE
8
BLACK
6
CONTINUOUS
10
4.94305
20
-2.78766
11
4.91521
21
-2.78766
0
LINE
8
BLACK
6
CONTINUOUS
10
4.91521
20
-2.78766
11
4.91521
21
-2.81549
0
LINE
8
BLACK
6
CONTINUOUS
10
4.91521
20
-2.81549
11
4.94305
21
-2.81549
0
LINE
8
BLACK
6
CONTINUOUS
10
5.0336
20
-4.04935
11
5.0336
21
-4.02151
0
LINE
8
BLACK
6
CONTINUOUS
10
5.0336
20
-4.02151
11
5.00577
21
-4.02151
0
LINE
8
BLACK
6
CONTINUOUS
10
5.00577
20
-4.02151
11
5.00577
21
-4.04935
0
LINE
8
BLACK
6
CONTINUOUS
10
5.00577
20
-4.04935
11
5.0336
21
-4.04935
0
LINE
8
BLACK
6
CONTINUOUS
10
5.13203
20
-4.04935
11
5.13203
21
-4.02151
0
LINE
8
BLACK
6
CONTINUOUS
10
5.13203
20
-4.02151
11
5.10419
21
-4.02151
0
LINE
8
BLACK
6
CONTINUOUS
10
5.10419
20
-4.02151
11
5.10419
21
-4.04935
0
LINE
8
BLACK
6
CONTINUOUS
10
5.10419
20
-4.04935
11
5.13203
21
-4.04935
0
LINE
8
BLACK
6
CONTINUOUS
10
5.23046
20
-4.04935
11
5.23046
21
-4.02151
0
LINE
8
BLACK
6
CONTINUOUS
10
5.23046
20
-4.02151
11
5.20262
21
-4.02151
0
LINE
8
BLACK
6
CONTINUOUS
10
5.20262
20
-4.02151
11
5.20262
21
-4.04935
0
LINE
8
BLACK
6
CONTINUOUS
10
5.20262
20
-4.04935
11
5.23046
21
-4.04935
0
LINE
8
BLACK
6
CONTINUOUS
10
5.24305
20
-2.41549
11
5.24305
21
-2.38766
0
LINE
8
BLACK
6
CONTINUOUS
10
5.24305
20
-2.38766
11
5.21521
21
-2.38766
0
LINE
8
BLACK
6
CONTINUOUS
10
5.21521
20
-2.38766
11
5.21521
21
-2.41549
0
LINE
8
BLACK
6
CONTINUOUS
10
5.21521
20
-2.41549
11
5.24305
21
-2.41549
0
LINE
8
BLACK
6
CONTINUOUS
10
5.24305
20
-2.51549
11
5.24305
21
-2.48766
0
LINE
8
BLACK
6
CONTINUOUS
10
5.24305
20
-2.48766
11
5.21521
21
-2.48766
0
LINE
8
BLACK
6
CONTINUOUS
10
5.21521
20
-2.48766
11
5.21521
21
-2.51549
0
LINE
8
BLACK
6
CONTINUOUS
10
5.21521
20
-2.51549
11
5.24305
21
-2.51549
0
LINE
8
BLACK
6
CONTINUOUS
10
5.24305
20
-2.61549
11
5.24305
21
-2.58766
0
LINE
8
BLACK
6
CONTINUOUS
10
5.24305
20
-2.58766
11
5.21521
21
-2.58766
0
LINE
8
BLACK
6
CONTINUOUS
10
5.21521
20
-2.58766
11
5.21521
21
-2.61549
0
LINE
8
BLACK
6
CONTINUOUS
10
5.21521
20
-2.61549
11
5.24305
21
-2.61549
0
LINE
8
BLACK
6
CONTINUOUS
10
5.24305
20
-2.71549
11
5.24305
21
-2.68766
0
LINE
8
BLACK
6
CONTINUOUS
10
5.24305
20
-2.68766
11
5.21521
21
-2.68766
0
LINE
8
BLACK
6
CONTINUOUS
10
5.21521
20
-2.68766
11
5.21521
21
-2.71549
0
LINE
8
BLACK
6
CONTINUOUS
10
5.21521
20
-2.71549
11
5.24305
21
-2.71549
0
LINE
8
BLACK
6
CONTINUOUS
10
5.24305
20
-2.81549
11
5.24305
21
-2.78766
0
LINE
8
BLACK
6
CONTINUOUS
10
5.24305
20
-2.78766
11
5.21521
21
-2.78766
0
LINE
8
BLACK
6
CONTINUOUS
10
5.21521
20
-2.78766
11
5.21521
21
-2.81549
0
LINE
8
BLACK
6
CONTINUOUS
10
5.21521
20
-2.81549
11
5.24305
21
-2.81549
0
LINE
8
BLACK
6
CONTINUOUS
10
5.40368
20
-2.41549
11
5.40368
21
-2.38766
0
LINE
8
BLACK
6
CONTINUOUS
10
5.40368
20
-2.38766
11
5.37584
21
-2.38766
0
LINE
8
BLACK
6
CONTINUOUS
10
5.37584
20
-2.38766
11
5.37584
21
-2.41549
0
LINE
8
BLACK
6
CONTINUOUS
10
5.37584
20
-2.41549
11
5.40368
21
-2.41549
0
LINE
8
BLACK
6
CONTINUOUS
10
5.40368
20
-2.51549
11
5.40368
21
-2.48766
0
LINE
8
BLACK
6
CONTINUOUS
10
5.40368
20
-2.48766
11
5.37584
21
-2.48766
0
LINE
8
BLACK
6
CONTINUOUS
10
5.37584
20
-2.48766
11
5.37584
21
-2.51549
0
LINE
8
BLACK
6
CONTINUOUS
10
5.37584
20
-2.51549
11
5.40368
21
-2.51549
0
LINE
8
BLACK
6
CONTINUOUS
10
5.40368
20
-2.61549
11
5.40368
21
-2.58766
0
LINE
8
BLACK
6
CONTINUOUS
10
5.40368
20
-2.58766
11
5.37584
21
-2.58766
0
LINE
8
BLACK
6
CONTINUOUS
10
5.37584
20
-2.58766
11
5.37584
21
-2.61549
0
LINE
8
BLACK
6
CONTINUOUS
10
5.37584
20
-2.61549
11
5.40368
21
-2.61549
0
LINE
8
BLACK
6
CONTINUOUS
10
5.40368
20
-2.71549
11
5.40368
21
-2.68766
0
LINE
8
BLACK
6
CONTINUOUS
10
5.40368
20
-2.68766
11
5.37584
21
-2.68766
0
LINE
8
BLACK
6
CONTINUOUS
10
5.37584
20
-2.68766
11
5.37584
21
-2.71549
0
LINE
8
BLACK
6
CONTINUOUS
10
5.37584
20
-2.71549
11
5.40368
21
-2.71549
0
LINE
8
BLACK
6
CONTINUOUS
10
5.40368
20
-2.81549
11
5.40368
21
-2.78766
0
LINE
8
BLACK
6
CONTINUOUS
10
5.40368
20
-2.78766
11
5.37584
21
-2.78766
0
LINE
8
BLACK
6
CONTINUOUS
10
5.37584
20
-2.78766
11
5.37584
21
-2.81549
0
LINE
8
BLACK
6
CONTINUOUS
10
5.37584
20
-2.81549
11
5.40368
21
-2.81549
0
LINE
8
BLACK
6
CONTINUOUS
10
5.56038
20
-5.32888
11
5.56038
21
-5.30104
0
LINE
8
BLACK
6
CONTINUOUS
10
5.56038
20
-5.30104
11
5.53254
21
-5.30104
0
LINE
8
BLACK
6
CONTINUOUS
10
5.53254
20
-5.30104
11
5.53254
21
-5.32888
0
LINE
8
BLACK
6
CONTINUOUS
10
5.53254
20
-5.32888
11
5.56038
21
-5.32888
0
LINE
8
BLACK
6
CONTINUOUS
10
5.66038
20
-5.32888
11
5.66038
21
-5.30104
0
LINE
8
BLACK
6
CONTINUOUS
10
5.66038
20
-5.30104
11
5.63254
21
-5.30104
0
LINE
8
BLACK
6
CONTINUOUS
10
5.63254
20
-5.30104
11
5.63254
21
-5.32888
0
LINE
8
BLACK
6
CONTINUOUS
10
5.63254
20
-5.32888
11
5.66038
21
-5.32888
0
LINE
8
BLACK
6
CONTINUOUS
10
5.70368
20
-2.41549
11
5.70368
21
-2.38766
0
LINE
8
BLACK
6
CONTINUOUS
10
5.70368
20
-2.38766
11
5.67584
21
-2.38766
0
LINE
8
BLACK
6
CONTINUOUS
10
5.67584
20
-2.38766
11
5.67584
21
-2.41549
0
LINE
8
BLACK
6
CONTINUOUS
10
5.67584
20
-2.41549
11
5.70368
21
-2.41549
0
LINE
8
BLACK
6
CONTINUOUS
10
5.70368
20
-2.51549
11
5.70368
21
-2.48766
0
LINE
8
BLACK
6
CONTINUOUS
10
5.70368
20
-2.48766
11
5.67584
21
-2.48766
0
LINE
8
BLACK
6
CONTINUOUS
10
5.67584
20
-2.48766
11
5.67584
21
-2.51549
0
LINE
8
BLACK
6
CONTINUOUS
10
5.67584
20
-2.51549
11
5.70368
21
-2.51549
0
LINE
8
BLACK
6
CONTINUOUS
10
5.70368
20
-2.61549
11
5.70368
21
-2.58766
0
LINE
8
BLACK
6
CONTINUOUS
10
5.70368
20
-2.58766
11
5.67584
21
-2.58766
0
LINE
8
BLACK
6
CONTINUOUS
10
5.67584
20
-2.58766
11
5.67584
21
-2.61549
0
LINE
8
BLACK
6
CONTINUOUS
10
5.67584
20
-2.61549
11
5.70368
21
-2.61549
0
LINE
8
BLACK
6
CONTINUOUS
10
5.70368
20
-2.71549
11
5.70368
21
-2.68766
0
LINE
8
BLACK
6
CONTINUOUS
10
5.70368
20
-2.68766
11
5.67584
21
-2.68766
0
LINE
8
BLACK
6
CONTINUOUS
10
5.67584
20
-2.68766
11
5.67584
21
-2.71549
0
LINE
8
BLACK
6
CONTINUOUS
10
5.67584
20
-2.71549
11
5.70368
21
-2.71549
0
LINE
8
BLACK
6
CONTINUOUS
10
5.70368
20
-2.81549
11
5.70368
21
-2.78766
0
LINE
8
BLACK
6
CONTINUOUS
10
5.70368
20
-2.78766
11
5.67584
21
-2.78766
0
LINE
8
BLACK
6
CONTINUOUS
10
5.67584
20
-2.78766
11
5.67584
21
-2.81549
0
LINE
8
BLACK
6
CONTINUOUS
10
5.67584
20
-2.81549
11
5.70368
21
-2.81549
0
LINE
8
BLACK
6
CONTINUOUS
10
5.76038
20
-5.32888
11
5.76038
21
-5.30104
0
LINE
8
BLACK
6
CONTINUOUS
10
5.76038
20
-5.30104
11
5.73254
21
-5.30104
0
LINE
8
BLACK
6
CONTINUOUS
10
5.73254
20
-5.30104
11
5.73254
21
-5.32888
0
LINE
8
BLACK
6
CONTINUOUS
10
5.73254
20
-5.32888
11
5.76038
21
-5.32888
0
LINE
8
BLACK
6
CONTINUOUS
10
5.86038
20
-5.32888
11
5.86038
21
-5.30104
0
LINE
8
BLACK
6
CONTINUOUS
10
5.86038
20
-5.30104
11
5.83254
21
-5.30104
0
LINE
8
BLACK
6
CONTINUOUS
10
5.83254
20
-5.30104
11
5.83254
21
-5.32888
0
LINE
8
BLACK
6
CONTINUOUS
10
5.83254
20
-5.32888
11
5.86038
21
-5.32888
0
LINE
8
BLACK
6
CONTINUOUS
10
6.21864
20
-4.15959
11
6.21864
21
-4.13175
0
LINE
8
BLACK
6
CONTINUOUS
10
6.21864
20
-4.13175
11
6.1908
21
-4.13175
0
LINE
8
BLACK
6
CONTINUOUS
10
6.1908
20
-4.13175
11
6.1908
21
-4.15959
0
LINE
8
BLACK
6
CONTINUOUS
10
6.1908
20
-4.15959
11
6.21864
21
-4.15959
0
LINE
8
BLACK
6
CONTINUOUS
10
6.22638
20
-4.12598
11
6.18307
21
-4.12598
0
LINE
8
BLACK
6
CONTINUOUS
10
6.22638
20
-4.16535
11
6.18307
21
-4.16535
0
ARC
8
BLACK
10
6.18307
20
-4.14567
40
0.019685
50
450
51
630
0
ARC
8
BLACK
10
6.22638
20
-4.14567
40
0.019685
50
270
51
450
0
LINE
8
BLACK
6
CONTINUOUS
10
6.21864
20
-4.34463
11
6.21864
21
-4.31679
0
LINE
8
BLACK
6
CONTINUOUS
10
6.21864
20
-4.31679
11
6.1908
21
-4.31679
0
LINE
8
BLACK
6
CONTINUOUS
10
6.1908
20
-4.31679
11
6.1908
21
-4.34463
0
LINE
8
BLACK
6
CONTINUOUS
10
6.1908
20
-4.34463
11
6.21864
21
-4.34463
0
LINE
8
BLACK
6
CONTINUOUS
10
6.22638
20
-4.31102
11
6.18307
21
-4.31102
0
LINE
8
BLACK
6
CONTINUOUS
10
6.22638
20
-4.35039
11
6.18307
21
-4.35039
0
ARC
8
BLACK
10
6.18307
20
-4.33071
40
0.019685
50
450
51
630
0
ARC
8
BLACK
10
6.22638
20
-4.33071
40
0.019685
50
270
51
450
0
LINE
8
BLACK
6
CONTINUOUS
10
6.21864
20
-4.52967
11
6.21864
21
-4.50183
0
LINE
8
BLACK
6
CONTINUOUS
10
6.21864
20
-4.50183
11
6.1908
21
-4.50183
0
LINE
8
BLACK
6
CONTINUOUS
10
6.1908
20
-4.50183
11
6.1908
21
-4.52967
0
LINE
8
BLACK
6
CONTINUOUS
10
6.1908
20
-4.52967
11
6.21864
21
-4.52967
0
LINE
8
BLACK
6
CONTINUOUS
10
6.22638
20
-4.49606
11
6.18307
21
-4.49606
0
LINE
8
BLACK
6
CONTINUOUS
10
6.22638
20
-4.53543
11
6.18307
21
-4.53543
0
ARC
8
BLACK
10
6.18307
20
-4.51575
40
0.019685
50
450
51
630
0
ARC
8
BLACK
10
6.22638
20
-4.51575
40
0.019685
50
270
51
450
0
LINE
8
BLACK
6
CONTINUOUS
10
6.40368
20
-4.15959
11
6.40368
21
-4.13175
0
LINE
8
BLACK
6
CONTINUOUS
10
6.40368
20
-4.13175
11
6.37584
21
-4.13175
0
LINE
8
BLACK
6
CONTINUOUS
10
6.37584
20
-4.13175
11
6.37584
21
-4.15959
0
LINE
8
BLACK
6
CONTINUOUS
10
6.37584
20
-4.15959
11
6.40368
21
-4.15959
0
LINE
8
BLACK
6
CONTINUOUS
10
6.41142
20
-4.12598
11
6.36811
21
-4.12598
0
LINE
8
BLACK
6
CONTINUOUS
10
6.41142
20
-4.16535
11
6.36811
21
-4.16535
0
ARC
8
BLACK
10
6.36811
20
-4.14567
40
0.019685
50
450
51
630
0
ARC
8
BLACK
10
6.41142
20
-4.14567
40
0.019685
50
270
51
450
0
LINE
8
BLACK
6
CONTINUOUS
10
6.40762
20
-4.34463
11
6.40762
21
-4.31679
0
LINE
8
BLACK
6
CONTINUOUS
10
6.40762
20
-4.31679
11
6.37978
21
-4.31679
0
LINE
8
BLACK
6
CONTINUOUS
10
6.37978
20
-4.31679
11
6.37978
21
-4.34463
0
LINE
8
BLACK
6
CONTINUOUS
10
6.37978
20
-4.34463
11
6.40762
21
-4.34463
0
LINE
8
BLACK
6
CONTINUOUS
10
6.41535
20
-4.31102
11
6.37205
21
-4.31102
0
LINE
8
BLACK
6
CONTINUOUS
10
6.41535
20
-4.35039
11
6.37205
21
-4.35039
0
ARC
8
BLACK
10
6.37205
20
-4.33071
40
0.019685
50
450
51
630
0
ARC
8
BLACK
10
6.41535
20
-4.33071
40
0.019685
50
270
51
450
0
LINE
8
BLACK
6
CONTINUOUS
10
6.40762
20
-4.52967
11
6.40762
21
-4.50183
0
LINE
8
BLACK
6
CONTINUOUS
10
6.40762
20
-4.50183
11
6.37978
21
-4.50183
0
LINE
8
BLACK
6
CONTINUOUS
10
6.37978
20
-4.50183
11
6.37978
21
-4.52967
0
LINE
8
BLACK
6
CONTINUOUS
10
6.37978
20
-4.52967
11
6.40762
21
-4.52967
0
LINE
8
BLACK
6
CONTINUOUS
10
6.41535
20
-4.49606
11
6.37205
21
-4.49606
0
LINE
8
BLACK
6
CONTINUOUS
10
6.41535
20
-4.53543
11
6.37205
21
-4.53543
0
ARC
8
BLACK
10
6.37205
20
-4.51575
40
0.019685
50
450
51
630
0
ARC
8
BLACK
10
6.41535
20
-4.51575
40
0.019685
50
270
51
450
0
LINE
8
BLACK
6
CONTINUOUS
10
6.74148
20
-5.32888
11
6.74148
21
-5.30104
0
LINE
8
BLACK
6
CONTINUOUS
10
6.74148
20
-5.30104
11
6.71364
21
-5.30104
0
LINE
8
BLACK
6
CONTINUOUS
10
6.71364
20
-5.30104
11
6.71364
21
-5.32888
0
LINE
8
BLACK
6
CONTINUOUS
10
6.71364
20
-5.32888
11
6.74148
21
-5.32888
0
LINE
8
BLACK
6
CONTINUOUS
10
6.84148
20
-5.32888
11
6.84148
21
-5.30104
0
LINE
8
BLACK
6
CONTINUOUS
10
6.84148
20
-5.30104
11
6.81364
21
-5.30104
0
LINE
8
BLACK
6
CONTINUOUS
10
6.81364
20
-5.30104
11
6.81364
21
-5.32888
0
LINE
8
BLACK
6
CONTINUOUS
10
6.81364
20
-5.32888
11
6.84148
21
-5.32888
0
LINE
8
BLACK
6
CONTINUOUS
10
6.94148
20
-5.32888
11
6.94148
21
-5.30104
0
LINE
8
BLACK
6
CONTINUOUS
10
6.94148
20
-5.30104
11
6.91364
21
-5.30104
0
LINE
8
BLACK
6
CONTINUOUS
10
6.91364
20
-5.30104
11
6.91364
21
-5.32888
0
LINE
8
BLACK
6
CONTINUOUS
10
6.91364
20
-5.32888
11
6.94148
21
-5.32888
0
LINE
8
BLACK
6
CONTINUOUS
10
7.04148
20
-5.32888
11
7.04148
21
-5.30104
0
LINE
8
BLACK
6
CONTINUOUS
10
7.04148
20
-5.30104
11
7.01364
21
-5.30104
0
LINE
8
BLACK
6
CONTINUOUS
10
7.01364
20
-5.30104
11
7.01364
21
-5.32888
0
LINE
8
BLACK
6
CONTINUOUS
10
7.01364
20
-5.32888
11
7.04148
21
-5.32888
0
LINE
8
BLACK
6
CONTINUOUS
10
4.92913
20
-4.35236
11
4.95079
21
-4.33071
0
LINE
8
BLACK
6
CONTINUOUS
10
4.95079
20
-4.33071
11
4.92913
21
-4.30906
0
LINE
8
BLACK
6
CONTINUOUS
10
4.92913
20
-4.30906
11
4.90748
21
-4.33071
0
LINE
8
BLACK
6
CONTINUOUS
10
4.90748
20
-4.33071
11
4.92913
21
-4.35236
0
LINE
8
BLACK
6
CONTINUOUS
10
4.95079
20
-4.35039
11
4.95079
21
-4.31102
0
LINE
8
BLACK
6
CONTINUOUS
10
4.90748
20
-4.35039
11
4.90748
21
-4.31102
0
ARC
8
BLACK
10
4.92913
20
-4.31102
40
0.0216535
50
360
51
540
0
ARC
8
BLACK
10
4.92913
20
-4.35039
40
0.0216535
50
180
51
360
0
LINE
8
BLACK
6
CONTINUOUS
10
5.30709
20
-4.35236
11
5.32874
21
-4.33071
0
LINE
8
BLACK
6
CONTINUOUS
10
5.32874
20
-4.33071
11
5.30709
21
-4.30906
0
LINE
8
BLACK
6
CONTINUOUS
10
5.30709
20
-4.30906
11
5.28543
21
-4.33071
0
LINE
8
BLACK
6
CONTINUOUS
10
5.28543
20
-4.33071
11
5.30709
21
-4.35236
0
LINE
8
BLACK
6
CONTINUOUS
10
5.32874
20
-4.35039
11
5.32874
21
-4.31102
0
LINE
8
BLACK
6
CONTINUOUS
10
5.28543
20
-4.35039
11
5.28543
21
-4.31102
0
ARC
8
BLACK
10
5.30709
20
-4.31102
40
0.0216535
50
360
51
540
0
ARC
8
BLACK
10
5.30709
20
-4.35039
40
0.0216535
50
180
51
360
0
LINE
8
BLACK
6
CONTINUOUS
10
2.49606
20
-1.70866
11
2.62205
21
-1.83465
0
LINE
8
BLACK
6
CONTINUOUS
10
2.62205
20
-1.70866
11
2.49606
21
-1.83465
0
CIRCLE
8
BLACK
10
2.55906
20
-1.77165
40
0.0629921
0
LINE
8
BLACK
6
CONTINUOUS
10
2.49606
20
-5.25197
11
2.62205
21
-5.37795
0
LINE
8
BLACK
6
CONTINUOUS
10
2.62205
20
-5.25197
11
2.49606
21
-5.37795
0
CIRCLE
8
BLACK
10
2.55906
20
-5.31496
40
0.0629921
0
LINE
8
BLACK
6
CONTINUOUS
10
3.0374
20
-4.26772
11
3.16339
21
-4.3937
0
LINE
8
BLACK
6
CONTINUOUS
10
3.16339
20
-4.26772
11
3.0374
21
-4.3937
0
CIRCLE
8
BLACK
10
3.10039
20
-4.33071
40
0.0629921
0
LINE
8
BLACK
6
CONTINUOUS
10
3.92323
20
-4.26772
11
4.04921
21
-4.3937
0
LINE
8
BLACK
6
CONTINUOUS
10
4.04921
20
-4.26772
11
3.92323
21
-4.3937
0
CIRCLE
8
BLACK
10
3.98622
20
-4.33071
40
0.0629921
0
LINE
8
BLACK
6
CONTINUOUS
10
7.61417
20
-1.70866
11
7.74016
21
-1.83465
0
LINE
8
BLACK
6
CONTINUOUS
10
7.74016
20
-1.70866
11
7.61417
21
-1.83465
0
CIRCLE
8
BLACK
10
7.67717
20
-1.77165
40
0.0629921
0
LINE
8
BLACK
6
CONTINUOUS
10
7.61417
20
-5.25197
11
7.74016
21
-5.37795
0
LINE
8
BLACK
6
CONTINUOUS
10
7.74016
20
-5.25197
11
7.61417
21
-5.37795
0
CIRCLE
8
BLACK
10
7.67717
20
-5.31496
40
0.0629921
0
LINE
8
BLACK
6
CONTINUOUS
10
2.47399
20
-5.69615
11
2.47399
21
-5.57804
0
LINE
8
BLACK
6
CONTINUOUS
10
2.47399
20
-5.57804
11
2.50211
21
-5.57804
0
LINE
8
BLACK
6
CONTINUOUS
10
2.50211
20
-5.57804
11
2.51898
21
-5.58366
0
LINE
8
BLACK
6
CONTINUOUS
10
2.51898
20
-5.58366
11
2.53023
21
-5.59491
0
LINE
8
BLACK
6
CONTINUOUS
10
2.53023
20
-5.59491
11
2.53585
21
-5.60616
0
LINE
8
BLACK
6
CONTINUOUS
10
2.53585
20
-5.60616
11
2.54148
21
-5.62866
0
LINE
8
BLACK
6
CONTINUOUS
10
2.54148
20
-5.62866
11
2.54148
21
-5.64553
0
LINE
8
BLACK
6
CONTINUOUS
10
2.54148
20
-5.64553
11
2.53585
21
-5.66803
0
LINE
8
BLACK
6
CONTINUOUS
10
2.53585
20
-5.66803
11
2.53023
21
-5.67927
0
LINE
8
BLACK
6
CONTINUOUS
10
2.53023
20
-5.67927
11
2.51898
21
-5.69052
0
LINE
8
BLACK
6
CONTINUOUS
10
2.51898
20
-5.69052
11
2.50211
21
-5.69615
0
LINE
8
BLACK
6
CONTINUOUS
10
2.50211
20
-5.69615
11
2.47399
21
-5.69615
0
LINE
8
BLACK
6
CONTINUOUS
10
2.5921
20
-5.69615
11
2.5921
21
-5.61741
0
LINE
8
BLACK
6
CONTINUOUS
10
2.5921
20
-5.6399
11
2.59772
21
-5.62866
0
LINE
8
BLACK
6
CONTINUOUS
10
2.59772
20
-5.62866
11
2.60335
21
-5.62303
0
LINE
8
BLACK
6
CONTINUOUS
10
2.60335
20
-5.62303
11
2.6146
21
-5.61741
0
LINE
8
BLACK
6
CONTINUOUS
10
2.6146
20
-5.61741
11
2.62584
21
-5.61741
0
LINE
8
BLACK
6
CONTINUOUS
10
2.66521
20
-5.69615
11
2.66521
21
-5.61741
0
LINE
8
BLACK
6
CONTINUOUS
10
2.66521
20
-5.57804
11
2.65959
21
-5.58366
0
LINE
8
BLACK
6
CONTINUOUS
10
2.65959
20
-5.58366
11
2.66521
21
-5.58929
0
LINE
8
BLACK
6
CONTINUOUS
10
2.66521
20
-5.58929
11
2.67084
21
-5.58366
0
LINE
8
BLACK
6
CONTINUOUS
10
2.67084
20
-5.58366
11
2.66521
21
-5.57804
0
LINE
8
BLACK
6
CONTINUOUS
10
2.66521
20
-5.57804
11
2.66521
21
-5.58929
0
LINE
8
BLACK
6
CONTINUOUS
10
2.73833
20
-5.69615
11
2.72708
21
-5.69052
0
LINE
8
BLACK
6
CONTINUOUS
10
2.72708
20
-5.69052
11
2.72146
21
-5.67927
0
LINE
8
BLACK
6
CONTINUOUS
10
2.72146
20
-5.67927
11
2.72146
21
-5.57804
0
LINE
8
BLACK
6
CONTINUOUS
10
2.8002
20
-5.69615
11
2.78895
21
-5.69052
0
LINE
8
BLACK
6
CONTINUOUS
10
2.78895
20
-5.69052
11
2.78332
21
-5.67927
0
LINE
8
BLACK
6
CONTINUOUS
10
2.78332
20
-5.67927
11
2.78332
21
-5.57804
0
LINE
8
BLACK
6
CONTINUOUS
10
2.93518
20
-5.69615
11
2.93518
21
-5.57804
0
LINE
8
BLACK
6
CONTINUOUS
10
2.93518
20
-5.57804
11
2.97455
21
-5.6624
0
LINE
8
BLACK
6
CONTINUOUS
10
2.97455
20
-5.6624
11
3.01392
21
-5.57804
0
LINE
8
BLACK
6
CONTINUOUS
10
3.01392
20
-5.57804
11
3.01392
21
-5.69615
0
LINE
8
BLACK
6
CONTINUOUS
10
3.12078
20
-5.69615
11
3.12078
21
-5.63428
0
LINE
8
BLACK
6
CONTINUOUS
10
3.12078
20
-5.63428
11
3.11516
21
-5.62303
0
LINE
8
BLACK
6
CONTINUOUS
10
3.11516
20
-5.62303
11
3.10391
21
-5.61741
0
LINE
8
BLACK
6
CONTINUOUS
10
3.10391
20
-5.61741
11
3.08141
21
-5.61741
0
LINE
8
BLACK
6
CONTINUOUS
10
3.08141
20
-5.61741
11
3.07016
21
-5.62303
0
LINE
8
BLACK
6
CONTINUOUS
10
3.12078
20
-5.69052
11
3.10953
21
-5.69615
0
LINE
8
BLACK
6
CONTINUOUS
10
3.10953
20
-5.69615
11
3.08141
21
-5.69615
0
LINE
8
BLACK
6
CONTINUOUS
10
3.08141
20
-5.69615
11
3.07016
21
-5.69052
0
LINE
8
BLACK
6
CONTINUOUS
10
3.07016
20
-5.69052
11
3.06454
21
-5.67927
0
LINE
8
BLACK
6
CONTINUOUS
10
3.06454
20
-5.67927
11
3.06454
21
-5.66803
0
LINE
8
BLACK
6
CONTINUOUS
10
3.06454
20
-5.66803
11
3.07016
21
-5.65678
0
LINE
8
BLACK
6
CONTINUOUS
10
3.07016
20
-5.65678
11
3.08141
21
-5.65115
0
LINE
8
BLACK
6
CONTINUOUS
10
3.08141
20
-5.65115
11
3.10953
21
-5.65115
0
LINE
8
BLACK
6
CONTINUOUS
10
3.10953
20
-5.65115
11
3.12078
21
-5.64553
0
LINE
8
BLACK
6
CONTINUOUS
10
3.17702
20
-5.61741
11
3.17702
21
-5.73552
0
LINE
8
BLACK
6
CONTINUOUS
10
3.17702
20
-5.62303
11
3.18827
21
-5.61741
0
LINE
8
BLACK
6
CONTINUOUS
10
3.18827
20
-5.61741
11
3.21077
21
-5.61741
0
LINE
8
BLACK
6
CONTINUOUS
10
3.21077
20
-5.61741
11
3.22202
21
-5.62303
0
LINE
8
BLACK
6
CONTINUOUS
10
3.22202
20
-5.62303
11
3.22764
21
-5.62866
0
LINE
8
BLACK
6
CONTINUOUS
10
3.22764
20
-5.62866
11
3.23327
21
-5.6399
0
LINE
8
BLACK
6
CONTINUOUS
10
3.23327
20
-5.6399
11
3.23327
21
-5.67365
0
LINE
8
BLACK
6
CONTINUOUS
10
3.23327
20
-5.67365
11
3.22764
21
-5.6849
0
LINE
8
BLACK
6
CONTINUOUS
10
3.22764
20
-5.6849
11
3.22202
21
-5.69052
0
LINE
8
BLACK
6
CONTINUOUS
10
3.22202
20
-5.69052
11
3.21077
21
-5.69615
0
LINE
8
BLACK
6
CONTINUOUS
10
3.21077
20
-5.69615
11
3.18827
21
-5.69615
0
LINE
8
BLACK
6
CONTINUOUS
10
3.18827
20
-5.69615
11
3.17702
21
-5.69052
0
LINE
8
BLACK
6
CONTINUOUS
10
3.28389
20
-5.6849
11
3.28951
21
-5.69052
0
LINE
8
BLACK
6
CONTINUOUS
10
3.28951
20
-5.69052
11
3.28389
21
-5.69615
0
LINE
8
BLACK
6
CONTINUOUS
10
3.28389
20
-5.69615
11
3.27826
21
-5.69052
0
LINE
8
BLACK
6
CONTINUOUS
10
3.27826
20
-5.69052
11
3.28389
21
-5.6849
0
LINE
8
BLACK
6
CONTINUOUS
10
3.28389
20
-5.6849
11
3.28389
21
-5.69615
0
LINE
8
BLACK
6
CONTINUOUS
10
3.28389
20
-5.62303
11
3.28951
21
-5.62866
0
LINE
8
BLACK
6
CONTINUOUS
10
3.28951
20
-5.62866
11
3.28389
21
-5.63428
0
LINE
8
BLACK
6
CONTINUOUS
10
3.28389
20
-5.63428
11
3.27826
21
-5.62866
0
LINE
8
BLACK
6
CONTINUOUS
10
3.27826
20
-5.62866
11
3.28389
21
-5.62303
0
LINE
8
BLACK
6
CONTINUOUS
10
3.28389
20
-5.62303
11
3.28389
21
-5.63428
0
LINE
8
BLACK
6
CONTINUOUS
10
2.34154
20
-5.88091
11
2.36122
21
-5.90059
0
LINE
8
BLACK
6
CONTINUOUS
10
2.36122
20
-5.88091
11
2.34154
21
-5.90059
0
LINE
8
BLACK
6
CONTINUOUS
10
2.49648
20
-5.82607
11
2.50773
21
-5.82607
0
LINE
8
BLACK
6
CONTINUOUS
10
2.50773
20
-5.82607
11
2.51898
21
-5.83169
0
LINE
8
BLACK
6
CONTINUOUS
10
2.51898
20
-5.83169
11
2.52461
21
-5.83732
0
LINE
8
BLACK
6
CONTINUOUS
10
2.52461
20
-5.83732
11
2.53023
21
-5.84857
0
LINE
8
BLACK
6
CONTINUOUS
10
2.53023
20
-5.84857
11
2.53585
21
-5.87106
0
LINE
8
BLACK
6
CONTINUOUS
10
2.53585
20
-5.87106
11
2.53585
21
-5.89918
0
LINE
8
BLACK
6
CONTINUOUS
10
2.53585
20
-5.89918
11
2.53023
21
-5.92168
0
LINE
8
BLACK
6
CONTINUOUS
10
2.53023
20
-5.92168
11
2.52461
21
-5.93293
0
LINE
8
BLACK
6
CONTINUOUS
10
2.52461
20
-5.93293
11
2.51898
21
-5.93855
0
LINE
8
BLACK
6
CONTINUOUS
10
2.51898
20
-5.93855
11
2.50773
21
-5.94418
0
LINE
8
BLACK
6
CONTINUOUS
10
2.50773
20
-5.94418
11
2.49648
21
-5.94418
0
LINE
8
BLACK
6
CONTINUOUS
10
2.49648
20
-5.94418
11
2.48524
21
-5.93855
0
LINE
8
BLACK
6
CONTINUOUS
10
2.48524
20
-5.93855
11
2.47961
21
-5.93293
0
LINE
8
BLACK
6
CONTINUOUS
10
2.47961
20
-5.93293
11
2.47399
21
-5.92168
0
LINE
8
BLACK
6
CONTINUOUS
10
2.47399
20
-5.92168
11
2.46836
21
-5.89918
0
LINE
8
BLACK
6
CONTINUOUS
10
2.46836
20
-5.89918
11
2.46836
21
-5.87106
0
LINE
8
BLACK
6
CONTINUOUS
10
2.46836
20
-5.87106
11
2.47399
21
-5.84857
0
LINE
8
BLACK
6
CONTINUOUS
10
2.47399
20
-5.84857
11
2.47961
21
-5.83732
0
LINE
8
BLACK
6
CONTINUOUS
10
2.47961
20
-5.83732
11
2.48524
21
-5.83169
0
LINE
8
BLACK
6
CONTINUOUS
10
2.48524
20
-5.83169
11
2.49648
21
-5.82607
0
LINE
8
BLACK
6
CONTINUOUS
10
2.58647
20
-5.93293
11
2.5921
21
-5.93855
0
LINE
8
BLACK
6
CONTINUOUS
10
2.5921
20
-5.93855
11
2.58647
21
-5.94418
0
LINE
8
BLACK
6
CONTINUOUS
10
2.58647
20
-5.94418
11
2.58085
21
-5.93855
0
LINE
8
BLACK
6
CONTINUOUS
10
2.58085
20
-5.93855
11
2.58647
21
-5.93293
0
LINE
8
BLACK
6
CONTINUOUS
10
2.58647
20
-5.93293
11
2.58647
21
-5.94418
0
LINE
8
BLACK
6
CONTINUOUS
10
2.69896
20
-5.82607
11
2.64272
21
-5.82607
0
LINE
8
BLACK
6
CONTINUOUS
10
2.64272
20
-5.82607
11
2.63709
21
-5.88231
0
LINE
8
BLACK
6
CONTINUOUS
10
2.63709
20
-5.88231
11
2.64272
21
-5.87669
0
LINE
8
BLACK
6
CONTINUOUS
10
2.64272
20
-5.87669
11
2.65397
21
-5.87106
0
LINE
8
BLACK
6
CONTINUOUS
10
2.65397
20
-5.87106
11
2.68209
21
-5.87106
0
LINE
8
BLACK
6
CONTINUOUS
10
2.68209
20
-5.87106
11
2.69334
21
-5.87669
0
LINE
8
BLACK
6
CONTINUOUS
10
2.69334
20
-5.87669
11
2.69896
21
-5.88231
0
LINE
8
BLACK
6
CONTINUOUS
10
2.69896
20
-5.88231
11
2.70458
21
-5.89356
0
LINE
8
BLACK
6
CONTINUOUS
10
2.70458
20
-5.89356
11
2.70458
21
-5.92168
0
LINE
8
BLACK
6
CONTINUOUS
10
2.70458
20
-5.92168
11
2.69896
21
-5.93293
0
LINE
8
BLACK
6
CONTINUOUS
10
2.69896
20
-5.93293
11
2.69334
21
-5.93855
0
LINE
8
BLACK
6
CONTINUOUS
10
2.69334
20
-5.93855
11
2.68209
21
-5.94418
0
LINE
8
BLACK
6
CONTINUOUS
10
2.68209
20
-5.94418
11
2.65397
21
-5.94418
0
LINE
8
BLACK
6
CONTINUOUS
10
2.65397
20
-5.94418
11
2.64272
21
-5.93855
0
LINE
8
BLACK
6
CONTINUOUS
10
2.64272
20
-5.93855
11
2.63709
21
-5.93293
0
LINE
8
BLACK
6
CONTINUOUS
10
2.7777
20
-5.82607
11
2.78895
21
-5.82607
0
LINE
8
BLACK
6
CONTINUOUS
10
2.78895
20
-5.82607
11
2.8002
21
-5.83169
0
LINE
8
BLACK
6
CONTINUOUS
10
2.8002
20
-5.83169
11
2.80582
21
-5.83732
0
LINE
8
BLACK
6
CONTINUOUS
10
2.80582
20
-5.83732
11
2.81145
21
-5.84857
0
LINE
8
BLACK
6
CONTINUOUS
10
2.81145
20
-5.84857
11
2.81707
21
-5.87106
0
LINE
8
BLACK
6
CONTINUOUS
10
2.81707
20
-5.87106
11
2.81707
21
-5.89918
0
LINE
8
BLACK
6
CONTINUOUS
10
2.81707
20
-5.89918
11
2.81145
21
-5.92168
0
LINE
8
BLACK
6
CONTINUOUS
10
2.81145
20
-5.92168
11
2.80582
21
-5.93293
0
LINE
8
BLACK
6
CONTINUOUS
10
2.80582
20
-5.93293
11
2.8002
21
-5.93855
0
LINE
8
BLACK
6
CONTINUOUS
10
2.8002
20
-5.93855
11
2.78895
21
-5.94418
0
LINE
8
BLACK
6
CONTINUOUS
10
2.78895
20
-5.94418
11
2.7777
21
-5.94418
0
LINE
8
BLACK
6
CONTINUOUS
10
2.7777
20
-5.94418
11
2.76645
21
-5.93855
0
LINE
8
BLACK
6
CONTINUOUS
10
2.76645
20
-5.93855
11
2.76083
21
-5.93293
0
LINE
8
BLACK
6
CONTINUOUS
10
2.76083
20
-5.93293
11
2.7552
21
-5.92168
0
LINE
8
BLACK
6
CONTINUOUS
10
2.7552
20
-5.92168
11
2.74958
21
-5.89918
0
LINE
8
BLACK
6
CONTINUOUS
10
2.74958
20
-5.89918
11
2.74958
21
-5.87106
0
LINE
8
BLACK
6
CONTINUOUS
10
2.74958
20
-5.87106
11
2.7552
21
-5.84857
0
LINE
8
BLACK
6
CONTINUOUS
10
2.7552
20
-5.84857
11
2.76083
21
-5.83732
0
LINE
8
BLACK
6
CONTINUOUS
10
2.76083
20
-5.83732
11
2.76645
21
-5.83169
0
LINE
8
BLACK
6
CONTINUOUS
10
2.76645
20
-5.83169
11
2.7777
21
-5.82607
0
LINE
8
BLACK
6
CONTINUOUS
10
2.89019
20
-5.82607
11
2.90143
21
-5.82607
0
LINE
8
BLACK
6
CONTINUOUS
10
2.90143
20
-5.82607
11
2.91268
21
-5.83169
0
LINE
8
BLACK
6
CONTINUOUS
10
2.91268
20
-5.83169
11
2.91831
21
-5.83732
0
LINE
8
BLACK
6
CONTINUOUS
10
2.91831
20
-5.83732
11
2.92393
21
-5.84857
0
LINE
8
BLACK
6
CONTINUOUS
10
2.92393
20
-5.84857
11
2.92956
21
-5.87106
0
LINE
8
BLACK
6
CONTINUOUS
10
2.92956
20
-5.87106
11
2.92956
21
-5.89918
0
LINE
8
BLACK
6
CONTINUOUS
10
2.92956
20
-5.89918
11
2.92393
21
-5.92168
0
LINE
8
BLACK
6
CONTINUOUS
10
2.92393
20
-5.92168
11
2.91831
21
-5.93293
0
LINE
8
BLACK
6
CONTINUOUS
10
2.91831
20
-5.93293
11
2.91268
21
-5.93855
0
LINE
8
BLACK
6
CONTINUOUS
10
2.91268
20
-5.93855
11
2.90143
21
-5.94418
0
LINE
8
BLACK
6
CONTINUOUS
10
2.90143
20
-5.94418
11
2.89019
21
-5.94418
0
LINE
8
BLACK
6
CONTINUOUS
10
2.89019
20
-5.94418
11
2.87894
21
-5.93855
0
LINE
8
BLACK
6
CONTINUOUS
10
2.87894
20
-5.93855
11
2.87331
21
-5.93293
0
LINE
8
BLACK
6
CONTINUOUS
10
2.87331
20
-5.93293
11
2.86769
21
-5.92168
0
LINE
8
BLACK
6
CONTINUOUS
10
2.86769
20
-5.92168
11
2.86206
21
-5.89918
0
LINE
8
BLACK
6
CONTINUOUS
10
2.86206
20
-5.89918
11
2.86206
21
-5.87106
0
LINE
8
BLACK
6
CONTINUOUS
10
2.86206
20
-5.87106
11
2.86769
21
-5.84857
0
LINE
8
BLACK
6
CONTINUOUS
10
2.86769
20
-5.84857
11
2.87331
21
-5.83732
0
LINE
8
BLACK
6
CONTINUOUS
10
2.87331
20
-5.83732
11
2.87894
21
-5.83169
0
LINE
8
BLACK
6
CONTINUOUS
10
2.87894
20
-5.83169
11
2.89019
21
-5.82607
0
LINE
8
BLACK
6
CONTINUOUS
10
2.98017
20
-5.94418
11
2.98017
21
-5.86544
0
LINE
8
BLACK
6
CONTINUOUS
10
2.98017
20
-5.87669
11
2.9858
21
-5.87106
0
LINE
8
BLACK
6
CONTINUOUS
10
2.9858
20
-5.87106
11
2.99705
21
-5.86544
0
LINE
8
BLACK
6
CONTINUOUS
10
2.99705
20
-5.86544
11
3.01392
21
-5.86544
0
LINE
8
BLACK
6
CONTINUOUS
10
3.01392
20
-5.86544
11
3.02517
21
-5.87106
0
LINE
8
BLACK
6
CONTINUOUS
10
3.02517
20
-5.87106
11
3.03079
21
-5.88231
0
LINE
8
BLACK
6
CONTINUOUS
10
3.03079
20
-5.88231
11
3.03079
21
-5.94418
0
LINE
8
BLACK
6
CONTINUOUS
10
3.03079
20
-5.88231
11
3.03642
21
-5.87106
0
LINE
8
BLACK
6
CONTINUOUS
10
3.03642
20
-5.87106
11
3.04767
21
-5.86544
0
LINE
8
BLACK
6
CONTINUOUS
10
3.04767
20
-5.86544
11
3.06454
21
-5.86544
0
LINE
8
BLACK
6
CONTINUOUS
10
3.06454
20
-5.86544
11
3.07579
21
-5.87106
0
LINE
8
BLACK
6
CONTINUOUS
10
3.07579
20
-5.87106
11
3.08141
21
-5.88231
0
LINE
8
BLACK
6
CONTINUOUS
10
3.08141
20
-5.88231
11
3.08141
21
-5.94418
0
LINE
8
BLACK
6
CONTINUOUS
10
3.13765
20
-5.94418
11
3.13765
21
-5.86544
0
LINE
8
BLACK
6
CONTINUOUS
10
3.13765
20
-5.87669
11
3.14328
21
-5.87106
0
LINE
8
BLACK
6
CONTINUOUS
10
3.14328
20
-5.87106
11
3.15453
21
-5.86544
0
LINE
8
BLACK
6
CONTINUOUS
10
3.15453
20
-5.86544
11
3.1714
21
-5.86544
0
LINE
8
BLACK
6
CONTINUOUS
10
3.1714
20
-5.86544
11
3.18265
21
-5.87106
0
LINE
8
BLACK
6
CONTINUOUS
10
3.18265
20
-5.87106
11
3.18827
21
-5.88231
0
LINE
8
BLACK
6
CONTINUOUS
10
3.18827
20
-5.88231
11
3.18827
21
-5.94418
0
LINE
8
BLACK
6
CONTINUOUS
10
3.18827
20
-5.88231
11
3.1939
21
-5.87106
0
LINE
8
BLACK
6
CONTINUOUS
10
3.1939
20
-5.87106
11
3.20515
21
-5.86544
0
LINE
8
BLACK
6
CONTINUOUS
10
3.20515
20
-5.86544
11
3.22202
21
-5.86544
0
LINE
8
BLACK
6
CONTINUOUS
10
3.22202
20
-5.86544
11
3.23327
21
-5.87106
0
LINE
8
BLACK
6
CONTINUOUS
10
3.23327
20
-5.87106
11
3.23889
21
-5.88231
0
LINE
8
BLACK
6
CONTINUOUS
10
3.23889
20
-5.88231
11
3.23889
21
-5.94418
0
LINE
8
BLACK
6
CONTINUOUS
10
3.46949
20
-5.82044
11
3.36825
21
-5.9723
0
LINE
8
BLACK
6
CONTINUOUS
10
3.62134
20
-5.82607
11
3.63259
21
-5.82607
0
LINE
8
BLACK
6
CONTINUOUS
10
3.63259
20
-5.82607
11
3.64384
21
-5.83169
0
LINE
8
BLACK
6
CONTINUOUS
10
3.64384
20
-5.83169
11
3.64947
21
-5.83732
0
LINE
8
BLACK
6
CONTINUOUS
10
3.64947
20
-5.83732
11
3.65509
21
-5.84857
0
LINE
8
BLACK
6
CONTINUOUS
10
3.65509
20
-5.84857
11
3.66071
21
-5.87106
0
LINE
8
BLACK
6
CONTINUOUS
10
3.66071
20
-5.87106
11
3.66071
21
-5.89918
0
LINE
8
BLACK
6
CONTINUOUS
10
3.66071
20
-5.89918
11
3.65509
21
-5.92168
0
LINE
8
BLACK
6
CONTINUOUS
10
3.65509
20
-5.92168
11
3.64947
21
-5.93293
0
LINE
8
BLACK
6
CONTINUOUS
10
3.64947
20
-5.93293
11
3.64384
21
-5.93855
0
LINE
8
BLACK
6
CONTINUOUS
10
3.64384
20
-5.93855
11
3.63259
21
-5.94418
0
LINE
8
BLACK
6
CONTINUOUS
10
3.63259
20
-5.94418
11
3.62134
21
-5.94418
0
LINE
8
BLACK
6
CONTINUOUS
10
3.62134
20
-5.94418
11
3.6101
21
-5.93855
0
LINE
8
BLACK
6
CONTINUOUS
10
3.6101
20
-5.93855
11
3.60447
21
-5.93293
0
LINE
8
BLACK
6
CONTINUOUS
10
3.60447
20
-5.93293
11
3.59885
21
-5.92168
0
LINE
8
BLACK
6
CONTINUOUS
10
3.59885
20
-5.92168
11
3.59322
21
-5.89918
0
LINE
8
BLACK
6
CONTINUOUS
10
3.59322
20
-5.89918
11
3.59322
21
-5.87106
0
LINE
8
BLACK
6
CONTINUOUS
10
3.59322
20
-5.87106
11
3.59885
21
-5.84857
0
LINE
8
BLACK
6
CONTINUOUS
10
3.59885
20
-5.84857
11
3.60447
21
-5.83732
0
LINE
8
BLACK
6
CONTINUOUS
10
3.60447
20
-5.83732
11
3.6101
21
-5.83169
0
LINE
8
BLACK
6
CONTINUOUS
10
3.6101
20
-5.83169
11
3.62134
21
-5.82607
0
LINE
8
BLACK
6
CONTINUOUS
10
3.71133
20
-5.93293
11
3.71696
21
-5.93855
0
LINE
8
BLACK
6
CONTINUOUS
10
3.71696
20
-5.93855
11
3.71133
21
-5.94418
0
LINE
8
BLACK
6
CONTINUOUS
10
3.71133
20
-5.94418
11
3.70571
21
-5.93855
0
LINE
8
BLACK
6
CONTINUOUS
10
3.70571
20
-5.93855
11
3.71133
21
-5.93293
0
LINE
8
BLACK
6
CONTINUOUS
10
3.71133
20
-5.93293
11
3.71133
21
-5.94418
0
LINE
8
BLACK
6
CONTINUOUS
10
3.79007
20
-5.82607
11
3.80132
21
-5.82607
0
LINE
8
BLACK
6
CONTINUOUS
10
3.80132
20
-5.82607
11
3.81257
21
-5.83169
0
LINE
8
BLACK
6
CONTINUOUS
10
3.81257
20
-5.83169
11
3.81819
21
-5.83732
0
LINE
8
BLACK
6
CONTINUOUS
10
3.81819
20
-5.83732
11
3.82382
21
-5.84857
0
LINE
8
BLACK
6
CONTINUOUS
10
3.82382
20
-5.84857
11
3.82944
21
-5.87106
0
LINE
8
BLACK
6
CONTINUOUS
10
3.82944
20
-5.87106
11
3.82944
21
-5.89918
0
LINE
8
BLACK
6
CONTINUOUS
10
3.82944
20
-5.89918
11
3.82382
21
-5.92168
0
LINE
8
BLACK
6
CONTINUOUS
10
3.82382
20
-5.92168
11
3.81819
21
-5.93293
0
LINE
8
BLACK
6
CONTINUOUS
10
3.81819
20
-5.93293
11
3.81257
21
-5.93855
0
LINE
8
BLACK
6
CONTINUOUS
10
3.81257
20
-5.93855
11
3.80132
21
-5.94418
0
LINE
8
BLACK
6
CONTINUOUS
10
3.80132
20
-5.94418
11
3.79007
21
-5.94418
0
LINE
8
BLACK
6
CONTINUOUS
10
3.79007
20
-5.94418
11
3.77882
21
-5.93855
0
LINE
8
BLACK
6
CONTINUOUS
10
3.77882
20
-5.93855
11
3.7732
21
-5.93293
0
LINE
8
BLACK
6
CONTINUOUS
10
3.7732
20
-5.93293
11
3.76758
21
-5.92168
0
LINE
8
BLACK
6
CONTINUOUS
10
3.76758
20
-5.92168
11
3.76195
21
-5.89918
0
LINE
8
BLACK
6
CONTINUOUS
10
3.76195
20
-5.89918
11
3.76195
21
-5.87106
0
LINE
8
BLACK
6
CONTINUOUS
10
3.76195
20
-5.87106
11
3.76758
21
-5.84857
0
LINE
8
BLACK
6
CONTINUOUS
10
3.76758
20
-5.84857
11
3.7732
21
-5.83732
0
LINE
8
BLACK
6
CONTINUOUS
10
3.7732
20
-5.83732
11
3.77882
21
-5.83169
0
LINE
8
BLACK
6
CONTINUOUS
10
3.77882
20
-5.83169
11
3.79007
21
-5.82607
0
LINE
8
BLACK
6
CONTINUOUS
10
3.94193
20
-5.94418
11
3.87444
21
-5.94418
0
LINE
8
BLACK
6
CONTINUOUS
10
3.90818
20
-5.94418
11
3.90818
21
-5.82607
0
LINE
8
BLACK
6
CONTINUOUS
10
3.90818
20
-5.82607
11
3.89693
21
-5.84294
0
LINE
8
BLACK
6
CONTINUOUS
10
3.89693
20
-5.84294
11
3.88569
21
-5.85419
0
LINE
8
BLACK
6
CONTINUOUS
10
3.88569
20
-5.85419
11
3.87444
21
-5.85981
0
LINE
8
BLACK
6
CONTINUOUS
10
3.99817
20
-5.94418
11
4.02067
21
-5.94418
0
LINE
8
BLACK
6
CONTINUOUS
10
4.02067
20
-5.94418
11
4.03192
21
-5.93855
0
LINE
8
BLACK
6
CONTINUOUS
10
4.03192
20
-5.93855
11
4.03754
21
-5.93293
0
LINE
8
BLACK
6
CONTINUOUS
10
4.03754
20
-5.93293
11
4.04879
21
-5.91606
0
LINE
8
BLACK
6
CONTINUOUS
10
4.04879
20
-5.91606
11
4.05441
21
-5.89356
0
LINE
8
BLACK
6
CONTINUOUS
10
4.05441
20
-5.89356
11
4.05441
21
-5.84857
0
LINE
8
BLACK
6
CONTINUOUS
10
4.05441
20
-5.84857
11
4.04879
21
-5.83732
0
LINE
8
BLACK
6
CONTINUOUS
10
4.04879
20
-5.83732
11
4.04317
21
-5.83169
0
LINE
8
BLACK
6
CONTINUOUS
10
4.04317
20
-5.83169
11
4.03192
21
-5.82607
0
LINE
8
BLACK
6
CONTINUOUS
10
4.03192
20
-5.82607
11
4.00942
21
-5.82607
0
LINE
8
BLACK
6
CONTINUOUS
10
4.00942
20
-5.82607
11
3.99817
21
-5.83169
0
LINE
8
BLACK
6
CONTINUOUS
10
3.99817
20
-5.83169
11
3.99255
21
-5.83732
0
LINE
8
BLACK
6
CONTINUOUS
10
3.99255
20
-5.83732
11
3.98692
21
-5.84857
0
LINE
8
BLACK
6
CONTINUOUS
10
3.98692
20
-5.84857
11
3.98692
21
-5.87669
0
LINE
8
BLACK
6
CONTINUOUS
10
3.98692
20
-5.87669
11
3.99255
21
-5.88794
0
LINE
8
BLACK
6
CONTINUOUS
10
3.99255
20
-5.88794
11
3.99817
21
-5.89356
0
LINE
8
BLACK
6
CONTINUOUS
10
3.99817
20
-5.89356
11
4.00942
21
-5.89918
0
LINE
8
BLACK
6
CONTINUOUS
10
4.00942
20
-5.89918
11
4.03192
21
-5.89918
0
LINE
8
BLACK
6
CONTINUOUS
10
4.03192
20
-5.89918
11
4.04317
21
-5.89356
0
LINE
8
BLACK
6
CONTINUOUS
10
4.04317
20
-5.89356
11
4.04879
21
-5.88794
0
LINE
8
BLACK
6
CONTINUOUS
10
4.04879
20
-5.88794
11
4.05441
21
-5.87669
0
LINE
8
BLACK
6
CONTINUOUS
10
4.09379
20
-5.82607
11
4.17253
21
-5.82607
0
LINE
8
BLACK
6
CONTINUOUS
10
4.17253
20
-5.82607
11
4.12191
21
-5.94418
0
LINE
8
BLACK
6
CONTINUOUS
10
4.2119
20
-5.82607
11
4.2119
21
-5.84857
0
LINE
8
BLACK
6
CONTINUOUS
10
4.25689
20
-5.82607
11
4.25689
21
-5.84857
0
LINE
8
BLACK
6
CONTINUOUS
10
4.43124
20
-5.98917
11
4.42562
21
-5.98355
0
LINE
8
BLACK
6
CONTINUOUS
10
4.42562
20
-5.98355
11
4.41437
21
-5.96668
0
LINE
8
BLACK
6
CONTINUOUS
10
4.41437
20
-5.96668
11
4.40875
21
-5.95543
0
LINE
8
BLACK
6
CONTINUOUS
10
4.40875
20
-5.95543
11
4.40312
21
-5.93855
0
LINE
8
BLACK
6
CONTINUOUS
10
4.40312
20
-5.93855
11
4.3975
21
-5.91043
0
LINE
8
BLACK
6
CONTINUOUS
10
4.3975
20
-5.91043
11
4.3975
21
-5.88794
0
LINE
8
BLACK
6
CONTINUOUS
10
4.3975
20
-5.88794
11
4.40312
21
-5.85981
0
LINE
8
BLACK
6
CONTINUOUS
10
4.40312
20
-5.85981
11
4.40875
21
-5.84294
0
LINE
8
BLACK
6
CONTINUOUS
10
4.40875
20
-5.84294
11
4.41437
21
-5.83169
0
LINE
8
BLACK
6
CONTINUOUS
10
4.41437
20
-5.83169
11
4.42562
21
-5.81482
0
LINE
8
BLACK
6
CONTINUOUS
10
4.42562
20
-5.81482
11
4.43124
21
-5.8092
0
LINE
8
BLACK
6
CONTINUOUS
10
4.46499
20
-5.82607
11
4.5381
21
-5.82607
0
LINE
8
BLACK
6
CONTINUOUS
10
4.5381
20
-5.82607
11
4.49873
21
-5.87106
0
LINE
8
BLACK
6
CONTINUOUS
10
4.49873
20
-5.87106
11
4.51561
21
-5.87106
0
LINE
8
BLACK
6
CONTINUOUS
10
4.51561
20
-5.87106
11
4.52686
21
-5.87669
0
LINE
8
BLACK
6
CONTINUOUS
10
4.52686
20
-5.87669
11
4.53248
21
-5.88231
0
LINE
8
BLACK
6
CONTINUOUS
10
4.53248
20
-5.88231
11
4.5381
21
-5.89356
0
LINE
8
BLACK
6
CONTINUOUS
10
4.5381
20
-5.89356
11
4.5381
21
-5.92168
0
LINE
8
BLACK
6
CONTINUOUS
10
4.5381
20
-5.92168
11
4.53248
21
-5.93293
0
LINE
8
BLACK
6
CONTINUOUS
10
4.53248
20
-5.93293
11
4.52686
21
-5.93855
0
LINE
8
BLACK
6
CONTINUOUS
10
4.52686
20
-5.93855
11
4.51561
21
-5.94418
0
LINE
8
BLACK
6
CONTINUOUS
10
4.51561
20
-5.94418
11
4.48186
21
-5.94418
0
LINE
8
BLACK
6
CONTINUOUS
10
4.48186
20
-5.94418
11
4.47061
21
-5.93855
0
LINE
8
BLACK
6
CONTINUOUS
10
4.47061
20
-5.93855
11
4.46499
21
-5.93293
0
LINE
8
BLACK
6
CONTINUOUS
10
4.5831
20
-5.83732
11
4.58872
21
-5.83169
0
LINE
8
BLACK
6
CONTINUOUS
10
4.58872
20
-5.83169
11
4.59997
21
-5.82607
0
LINE
8
BLACK
6
CONTINUOUS
10
4.59997
20
-5.82607
11
4.62809
21
-5.82607
0
LINE
8
BLACK
6
CONTINUOUS
10
4.62809
20
-5.82607
11
4.63934
21
-5.83169
0
LINE
8
BLACK
6
CONTINUOUS
10
4.63934
20
-5.83169
11
4.64497
21
-5.83732
0
LINE
8
BLACK
6
CONTINUOUS
10
4.64497
20
-5.83732
11
4.65059
21
-5.84857
0
LINE
8
BLACK
6
CONTINUOUS
10
4.65059
20
-5.84857
11
4.65059
21
-5.85981
0
LINE
8
BLACK
6
CONTINUOUS
10
4.65059
20
-5.85981
11
4.64497
21
-5.87669
0
LINE
8
BLACK
6
CONTINUOUS
10
4.64497
20
-5.87669
11
4.57747
21
-5.94418
0
LINE
8
BLACK
6
CONTINUOUS
10
4.57747
20
-5.94418
11
4.65059
21
-5.94418
0
LINE
8
BLACK
6
CONTINUOUS
10
4.7912
20
-5.94418
11
4.7912
21
-5.82607
0
LINE
8
BLACK
6
CONTINUOUS
10
4.84182
20
-5.94418
11
4.84182
21
-5.88231
0
LINE
8
BLACK
6
CONTINUOUS
10
4.84182
20
-5.88231
11
4.83619
21
-5.87106
0
LINE
8
BLACK
6
CONTINUOUS
10
4.83619
20
-5.87106
11
4.82494
21
-5.86544
0
LINE
8
BLACK
6
CONTINUOUS
10
4.82494
20
-5.86544
11
4.80807
21
-5.86544
0
LINE
8
BLACK
6
CONTINUOUS
10
4.80807
20
-5.86544
11
4.79682
21
-5.87106
0
LINE
8
BLACK
6
CONTINUOUS
10
4.79682
20
-5.87106
11
4.7912
21
-5.87669
0
LINE
8
BLACK
6
CONTINUOUS
10
4.91493
20
-5.94418
11
4.90368
21
-5.93855
0
LINE
8
BLACK
6
CONTINUOUS
10
4.90368
20
-5.93855
11
4.89806
21
-5.93293
0
LINE
8
BLACK
6
CONTINUOUS
10
4.89806
20
-5.93293
11
4.89244
21
-5.92168
0
LINE
8
BLACK
6
CONTINUOUS
10
4.89244
20
-5.92168
11
4.89244
21
-5.88794
0
LINE
8
BLACK
6
CONTINUOUS
10
4.89244
20
-5.88794
11
4.89806
21
-5.87669
0
LINE
8
BLACK
6
CONTINUOUS
10
4.89806
20
-5.87669
11
4.90368
21
-5.87106
0
LINE
8
BLACK
6
CONTINUOUS
10
4.90368
20
-5.87106
11
4.91493
21
-5.86544
0
LINE
8
BLACK
6
CONTINUOUS
10
4.91493
20
-5.86544
11
4.93181
21
-5.86544
0
LINE
8
BLACK
6
CONTINUOUS
10
4.93181
20
-5.86544
11
4.94305
21
-5.87106
0
LINE
8
BLACK
6
CONTINUOUS
10
4.94305
20
-5.87106
11
4.94868
21
-5.87669
0
LINE
8
BLACK
6
CONTINUOUS
10
4.94868
20
-5.87669
11
4.9543
21
-5.88794
0
LINE
8
BLACK
6
CONTINUOUS
10
4.9543
20
-5.88794
11
4.9543
21
-5.92168
0
LINE
8
BLACK
6
CONTINUOUS
10
4.9543
20
-5.92168
11
4.94868
21
-5.93293
0
LINE
8
BLACK
6
CONTINUOUS
10
4.94868
20
-5.93293
11
4.94305
21
-5.93855
0
LINE
8
BLACK
6
CONTINUOUS
10
4.94305
20
-5.93855
11
4.93181
21
-5.94418
0
LINE
8
BLACK
6
CONTINUOUS
10
4.93181
20
-5.94418
11
4.91493
21
-5.94418
0
LINE
8
BLACK
6
CONTINUOUS
10
5.02179
20
-5.94418
11
5.01055
21
-5.93855
0
LINE
8
BLACK
6
CONTINUOUS
10
5.01055
20
-5.93855
11
5.00492
21
-5.92731
0
LINE
8
BLACK
6
CONTINUOUS
10
5.00492
20
-5.92731
11
5.00492
21
-5.82607
0
LINE
8
BLACK
6
CONTINUOUS
10
5.11178
20
-5.93855
11
5.10053
21
-5.94418
0
LINE
8
BLACK
6
CONTINUOUS
10
5.10053
20
-5.94418
11
5.07804
21
-5.94418
0
LINE
8
BLACK
6
CONTINUOUS
10
5.07804
20
-5.94418
11
5.06679
21
-5.93855
0
LINE
8
BLACK
6
CONTINUOUS
10
5.06679
20
-5.93855
11
5.06116
21
-5.92731
0
LINE
8
BLACK
6
CONTINUOUS
10
5.06116
20
-5.92731
11
5.06116
21
-5.88231
0
LINE
8
BLACK
6
CONTINUOUS
10
5.06116
20
-5.88231
11
5.06679
21
-5.87106
0
LINE
8
BLACK
6
CONTINUOUS
10
5.06679
20
-5.87106
11
5.07804
21
-5.86544
0
LINE
8
BLACK
6
CONTINUOUS
10
5.07804
20
-5.86544
11
5.10053
21
-5.86544
0
LINE
8
BLACK
6
CONTINUOUS
10
5.10053
20
-5.86544
11
5.11178
21
-5.87106
0
LINE
8
BLACK
6
CONTINUOUS
10
5.11178
20
-5.87106
11
5.11741
21
-5.88231
0
LINE
8
BLACK
6
CONTINUOUS
10
5.11741
20
-5.88231
11
5.11741
21
-5.89356
0
LINE
8
BLACK
6
CONTINUOUS
10
5.11741
20
-5.89356
11
5.06116
21
-5.90481
0
LINE
8
BLACK
6
CONTINUOUS
10
5.1624
20
-5.93855
11
5.17365
21
-5.94418
0
LINE
8
BLACK
6
CONTINUOUS
10
5.17365
20
-5.94418
11
5.19615
21
-5.94418
0
LINE
8
BLACK
6
CONTINUOUS
10
5.19615
20
-5.94418
11
5.2074
21
-5.93855
0
LINE
8
BLACK
6
CONTINUOUS
10
5.2074
20
-5.93855
11
5.21302
21
-5.92731
0
LINE
8
BLACK
6
CONTINUOUS
10
5.21302
20
-5.92731
11
5.21302
21
-5.92168
0
LINE
8
BLACK
6
CONTINUOUS
10
5.21302
20
-5.92168
11
5.2074
21
-5.91043
0
LINE
8
BLACK
6
CONTINUOUS
10
5.2074
20
-5.91043
11
5.19615
21
-5.90481
0
LINE
8
BLACK
6
CONTINUOUS
10
5.19615
20
-5.90481
11
5.17927
21
-5.90481
0
LINE
8
BLACK
6
CONTINUOUS
10
5.17927
20
-5.90481
11
5.16803
21
-5.89918
0
LINE
8
BLACK
6
CONTINUOUS
10
5.16803
20
-5.89918
11
5.1624
21
-5.88794
0
LINE
8
BLACK
6
CONTINUOUS
10
5.1624
20
-5.88794
11
5.1624
21
-5.88231
0
LINE
8
BLACK
6
CONTINUOUS
10
5.1624
20
-5.88231
11
5.16803
21
-5.87106
0
LINE
8
BLACK
6
CONTINUOUS
10
5.16803
20
-5.87106
11
5.17927
21
-5.86544
0
LINE
8
BLACK
6
CONTINUOUS
10
5.17927
20
-5.86544
11
5.19615
21
-5.86544
0
LINE
8
BLACK
6
CONTINUOUS
10
5.19615
20
-5.86544
11
5.2074
21
-5.87106
0
LINE
8
BLACK
6
CONTINUOUS
10
5.25239
20
-5.98917
11
5.25801
21
-5.98355
0
LINE
8
BLACK
6
CONTINUOUS
10
5.25801
20
-5.98355
11
5.26926
21
-5.96668
0
LINE
8
BLACK
6
CONTINUOUS
10
5.26926
20
-5.96668
11
5.27489
21
-5.95543
0
LINE
8
BLACK
6
CONTINUOUS
10
5.27489
20
-5.95543
11
5.28051
21
-5.93855
0
LINE
8
BLACK
6
CONTINUOUS
10
5.28051
20
-5.93855
11
5.28614
21
-5.91043
0
LINE
8
BLACK
6
CONTINUOUS
10
5.28614
20
-5.91043
11
5.28614
21
-5.88794
0
LINE
8
BLACK
6
CONTINUOUS
10
5.28614
20
-5.88794
11
5.28051
21
-5.85981
0
LINE
8
BLACK
6
CONTINUOUS
10
5.28051
20
-5.85981
11
5.27489
21
-5.84294
0
LINE
8
BLACK
6
CONTINUOUS
10
5.27489
20
-5.84294
11
5.26926
21
-5.83169
0
LINE
8
BLACK
6
CONTINUOUS
10
5.26926
20
-5.83169
11
5.25801
21
-5.81482
0
LINE
8
BLACK
6
CONTINUOUS
10
5.25801
20
-5.81482
11
5.25239
21
-5.8092
0
CIRCLE
8
BLACK
10
2.34547
20
-6.04665
40
0.015748
0
LINE
8
BLACK
6
CONTINUOUS
10
2.49648
20
-5.98197
11
2.50773
21
-5.98197
0
LINE
8
BLACK
6
CONTINUOUS
10
2.50773
20
-5.98197
11
2.51898
21
-5.9876
0
LINE
8
BLACK
6
CONTINUOUS
10
2.51898
20
-5.9876
11
2.52461
21
-5.99322
0
LINE
8
BLACK
6
CONTINUOUS
10
2.52461
20
-5.99322
11
2.53023
21
-6.00447
0
LINE
8
BLACK
6
CONTINUOUS
10
2.53023
20
-6.00447
11
2.53585
21
-6.02697
0
LINE
8
BLACK
6
CONTINUOUS
10
2.53585
20
-6.02697
11
2.53585
21
-6.05509
0
LINE
8
BLACK
6
CONTINUOUS
10
2.53585
20
-6.05509
11
2.53023
21
-6.07759
0
LINE
8
BLACK
6
CONTINUOUS
10
2.53023
20
-6.07759
11
2.52461
21
-6.08884
0
LINE
8
BLACK
6
CONTINUOUS
10
2.52461
20
-6.08884
11
2.51898
21
-6.09446
0
LINE
8
BLACK
6
CONTINUOUS
10
2.51898
20
-6.09446
11
2.50773
21
-6.10008
0
LINE
8
BLACK
6
CONTINUOUS
10
2.50773
20
-6.10008
11
2.49648
21
-6.10008
0
LINE
8
BLACK
6
CONTINUOUS
10
2.49648
20
-6.10008
11
2.48524
21
-6.09446
0
LINE
8
BLACK
6
CONTINUOUS
10
2.48524
20
-6.09446
11
2.47961
21
-6.08884
0
LINE
8
BLACK
6
CONTINUOUS
10
2.47961
20
-6.08884
11
2.47399
21
-6.07759
0
LINE
8
BLACK
6
CONTINUOUS
10
2.47399
20
-6.07759
11
2.46836
21
-6.05509
0
LINE
8
BLACK
6
CONTINUOUS
10
2.46836
20
-6.05509
11
2.46836
21
-6.02697
0
LINE
8
BLACK
6
CONTINUOUS
10
2.46836
20
-6.02697
11
2.47399
21
-6.00447
0
LINE
8
BLACK
6
CONTINUOUS
10
2.47399
20
-6.00447
11
2.47961
21
-5.99322
0
LINE
8
BLACK
6
CONTINUOUS
10
2.47961
20
-5.99322
11
2.48524
21
-5.9876
0
LINE
8
BLACK
6
CONTINUOUS
10
2.48524
20
-5.9876
11
2.49648
21
-5.98197
0
LINE
8
BLACK
6
CONTINUOUS
10
2.58647
20
-6.08884
11
2.5921
21
-6.09446
0
LINE
8
BLACK
6
CONTINUOUS
10
2.5921
20
-6.09446
11
2.58647
21
-6.10008
0
LINE
8
BLACK
6
CONTINUOUS
10
2.58647
20
-6.10008
11
2.58085
21
-6.09446
0
LINE
8
BLACK
6
CONTINUOUS
10
2.58085
20
-6.09446
11
2.58647
21
-6.08884
0
LINE
8
BLACK
6
CONTINUOUS
10
2.58647
20
-6.08884
11
2.58647
21
-6.10008
0
LINE
8
BLACK
6
CONTINUOUS
10
2.65959
20
-6.03259
11
2.64834
21
-6.02697
0
LINE
8
BLACK
6
CONTINUOUS
10
2.64834
20
-6.02697
11
2.64272
21
-6.02134
0
LINE
8
BLACK
6
CONTINUOUS
10
2.64272
20
-6.02134
11
2.63709
21
-6.0101
0
LINE
8
BLACK
6
CONTINUOUS
10
2.63709
20
-6.0101
11
2.63709
21
-6.00447
0
LINE
8
BLACK
6
CONTINUOUS
10
2.63709
20
-6.00447
11
2.64272
21
-5.99322
0
LINE
8
BLACK
6
CONTINUOUS
10
2.64272
20
-5.99322
11
2.64834
21
-5.9876
0
LINE
8
BLACK
6
CONTINUOUS
10
2.64834
20
-5.9876
11
2.65959
21
-5.98197
0
LINE
8
BLACK
6
CONTINUOUS
10
2.65959
20
-5.98197
11
2.68209
21
-5.98197
0
LINE
8
BLACK
6
CONTINUOUS
10
2.68209
20
-5.98197
11
2.69334
21
-5.9876
0
LINE
8
BLACK
6
CONTINUOUS
10
2.69334
20
-5.9876
11
2.69896
21
-5.99322
0
LINE
8
BLACK
6
CONTINUOUS
10
2.69896
20
-5.99322
11
2.70458
21
-6.00447
0
LINE
8
BLACK
6
CONTINUOUS
10
2.70458
20
-6.00447
11
2.70458
21
-6.0101
0
LINE
8
BLACK
6
CONTINUOUS
10
2.70458
20
-6.0101
11
2.69896
21
-6.02134
0
LINE
8
BLACK
6
CONTINUOUS
10
2.69896
20
-6.02134
11
2.69334
21
-6.02697
0
LINE
8
BLACK
6
CONTINUOUS
10
2.69334
20
-6.02697
11
2.68209
21
-6.03259
0
LINE
8
BLACK
6
CONTINUOUS
10
2.68209
20
-6.03259
11
2.65959
21
-6.03259
0
LINE
8
BLACK
6
CONTINUOUS
10
2.65959
20
-6.03259
11
2.64834
21
-6.03822
0
LINE
8
BLACK
6
CONTINUOUS
10
2.64834
20
-6.03822
11
2.64272
21
-6.04384
0
LINE
8
BLACK
6
CONTINUOUS
10
2.64272
20
-6.04384
11
2.63709
21
-6.05509
0
LINE
8
BLACK
6
CONTINUOUS
10
2.63709
20
-6.05509
11
2.63709
21
-6.07759
0
LINE
8
BLACK
6
CONTINUOUS
10
2.63709
20
-6.07759
11
2.64272
21
-6.08884
0
LINE
8
BLACK
6
CONTINUOUS
10
2.64272
20
-6.08884
11
2.64834
21
-6.09446
0
LINE
8
BLACK
6
CONTINUOUS
10
2.64834
20
-6.09446
11
2.65959
21
-6.10008
0
LINE
8
BLACK
6
CONTINUOUS
10
2.65959
20
-6.10008
11
2.68209
21
-6.10008
0
LINE
8
BLACK
6
CONTINUOUS
10
2.68209
20
-6.10008
11
2.69334
21
-6.09446
0
LINE
8
BLACK
6
CONTINUOUS
10
2.69334
20
-6.09446
11
2.69896
21
-6.08884
0
LINE
8
BLACK
6
CONTINUOUS
10
2.69896
20
-6.08884
11
2.70458
21
-6.07759
0
LINE
8
BLACK
6
CONTINUOUS
10
2.70458
20
-6.07759
11
2.70458
21
-6.05509
0
LINE
8
BLACK
6
CONTINUOUS
10
2.70458
20
-6.05509
11
2.69896
21
-6.04384
0
LINE
8
BLACK
6
CONTINUOUS
10
2.69896
20
-6.04384
11
2.69334
21
-6.03822
0
LINE
8
BLACK
6
CONTINUOUS
10
2.69334
20
-6.03822
11
2.68209
21
-6.03259
0
LINE
8
BLACK
6
CONTINUOUS
10
2.7777
20
-5.98197
11
2.78895
21
-5.98197
0
LINE
8
BLACK
6
CONTINUOUS
10
2.78895
20
-5.98197
11
2.8002
21
-5.9876
0
LINE
8
BLACK
6
CONTINUOUS
10
2.8002
20
-5.9876
11
2.80582
21
-5.99322
0
LINE
8
BLACK
6
CONTINUOUS
10
2.80582
20
-5.99322
11
2.81145
21
-6.00447
0
LINE
8
BLACK
6
CONTINUOUS
10
2.81145
20
-6.00447
11
2.81707
21
-6.02697
0
LINE
8
BLACK
6
CONTINUOUS
10
2.81707
20
-6.02697
11
2.81707
21
-6.05509
0
LINE
8
BLACK
6
CONTINUOUS
10
2.81707
20
-6.05509
11
2.81145
21
-6.07759
0
LINE
8
BLACK
6
CONTINUOUS
10
2.81145
20
-6.07759
11
2.80582
21
-6.08884
0
LINE
8
BLACK
6
CONTINUOUS
10
2.80582
20
-6.08884
11
2.8002
21
-6.09446
0
LINE
8
BLACK
6
CONTINUOUS
10
2.8002
20
-6.09446
11
2.78895
21
-6.10008
0
LINE
8
BLACK
6
CONTINUOUS
10
2.78895
20
-6.10008
11
2.7777
21
-6.10008
0
LINE
8
BLACK
6
CONTINUOUS
10
2.7777
20
-6.10008
11
2.76645
21
-6.09446
0
LINE
8
BLACK
6
CONTINUOUS
10
2.76645
20
-6.09446
11
2.76083
21
-6.08884
0
LINE
8
BLACK
6
CONTINUOUS
10
2.76083
20
-6.08884
11
2.7552
21
-6.07759
0
LINE
8
BLACK
6
CONTINUOUS
10
2.7552
20
-6.07759
11
2.74958
21
-6.05509
0
LINE
8
BLACK
6
CONTINUOUS
10
2.74958
20
-6.05509
11
2.74958
21
-6.02697
0
LINE
8
BLACK
6
CONTINUOUS
10
2.74958
20
-6.02697
11
2.7552
21
-6.00447
0
LINE
8
BLACK
6
CONTINUOUS
10
2.7552
20
-6.00447
11
2.76083
21
-5.99322
0
LINE
8
BLACK
6
CONTINUOUS
10
2.76083
20
-5.99322
11
2.76645
21
-5.9876
0
LINE
8
BLACK
6
CONTINUOUS
10
2.76645
20
-5.9876
11
2.7777
21
-5.98197
0
LINE
8
BLACK
6
CONTINUOUS
10
2.89019
20
-5.98197
11
2.90143
21
-5.98197
0
LINE
8
BLACK
6
CONTINUOUS
10
2.90143
20
-5.98197
11
2.91268
21
-5.9876
0
LINE
8
BLACK
6
CONTINUOUS
10
2.91268
20
-5.9876
11
2.91831
21
-5.99322
0
LINE
8
BLACK
6
CONTINUOUS
10
2.91831
20
-5.99322
11
2.92393
21
-6.00447
0
LINE
8
BLACK
6
CONTINUOUS
10
2.92393
20
-6.00447
11
2.92956
21
-6.02697
0
LINE
8
BLACK
6
CONTINUOUS
10
2.92956
20
-6.02697
11
2.92956
21
-6.05509
0
LINE
8
BLACK
6
CONTINUOUS
10
2.92956
20
-6.05509
11
2.92393
21
-6.07759
0
LINE
8
BLACK
6
CONTINUOUS
10
2.92393
20
-6.07759
11
2.91831
21
-6.08884
0
LINE
8
BLACK
6
CONTINUOUS
10
2.91831
20
-6.08884
11
2.91268
21
-6.09446
0
LINE
8
BLACK
6
CONTINUOUS
10
2.91268
20
-6.09446
11
2.90143
21
-6.10008
0
LINE
8
BLACK
6
CONTINUOUS
10
2.90143
20
-6.10008
11
2.89019
21
-6.10008
0
LINE
8
BLACK
6
CONTINUOUS
10
2.89019
20
-6.10008
11
2.87894
21
-6.09446
0
LINE
8
BLACK
6
CONTINUOUS
10
2.87894
20
-6.09446
11
2.87331
21
-6.08884
0
LINE
8
BLACK
6
CONTINUOUS
10
2.87331
20
-6.08884
11
2.86769
21
-6.07759
0
LINE
8
BLACK
6
CONTINUOUS
10
2.86769
20
-6.07759
11
2.86206
21
-6.05509
0
LINE
8
BLACK
6
CONTINUOUS
10
2.86206
20
-6.05509
11
2.86206
21
-6.02697
0
LINE
8
BLACK
6
CONTINUOUS
10
2.86206
20
-6.02697
11
2.86769
21
-6.00447
0
LINE
8
BLACK
6
CONTINUOUS
10
2.86769
20
-6.00447
11
2.87331
21
-5.99322
0
LINE
8
BLACK
6
CONTINUOUS
10
2.87331
20
-5.99322
11
2.87894
21
-5.9876
0
LINE
8
BLACK
6
CONTINUOUS
10
2.87894
20
-5.9876
11
2.89019
21
-5.98197
0
LINE
8
BLACK
6
CONTINUOUS
10
2.98017
20
-6.10008
11
2.98017
21
-6.02134
0
LINE
8
BLACK
6
CONTINUOUS
10
2.98017
20
-6.03259
11
2.9858
21
-6.02697
0
LINE
8
BLACK
6
CONTINUOUS
10
2.9858
20
-6.02697
11
2.99705
21
-6.02134
0
LINE
8
BLACK
6
CONTINUOUS
10
2.99705
20
-6.02134
11
3.01392
21
-6.02134
0
LINE
8
BLACK
6
CONTINUOUS
10
3.01392
20
-6.02134
11
3.02517
21
-6.02697
0
LINE
8
BLACK
6
CONTINUOUS
10
3.02517
20
-6.02697
11
3.03079
21
-6.03822
0
LINE
8
BLACK
6
CONTINUOUS
10
3.03079
20
-6.03822
11
3.03079
21
-6.10008
0
LINE
8
BLACK
6
CONTINUOUS
10
3.03079
20
-6.03822
11
3.03642
21
-6.02697
0
LINE
8
BLACK
6
CONTINUOUS
10
3.03642
20
-6.02697
11
3.04767
21
-6.02134
0
LINE
8
BLACK
6
CONTINUOUS
10
3.04767
20
-6.02134
11
3.06454
21
-6.02134
0
LINE
8
BLACK
6
CONTINUOUS
10
3.06454
20
-6.02134
11
3.07579
21
-6.02697
0
LINE
8
BLACK
6
CONTINUOUS
10
3.07579
20
-6.02697
11
3.08141
21
-6.03822
0
LINE
8
BLACK
6
CONTINUOUS
10
3.08141
20
-6.03822
11
3.08141
21
-6.10008
0
LINE
8
BLACK
6
CONTINUOUS
10
3.13765
20
-6.10008
11
3.13765
21
-6.02134
0
LINE
8
BLACK
6
CONTINUOUS
10
3.13765
20
-6.03259
11
3.14328
21
-6.02697
0
LINE
8
BLACK
6
CONTINUOUS
10
3.14328
20
-6.02697
11
3.15453
21
-6.02134
0
LINE
8
BLACK
6
CONTINUOUS
10
3.15453
20
-6.02134
11
3.1714
21
-6.02134
0
LINE
8
BLACK
6
CONTINUOUS
10
3.1714
20
-6.02134
11
3.18265
21
-6.02697
0
LINE
8
BLACK
6
CONTINUOUS
10
3.18265
20
-6.02697
11
3.18827
21
-6.03822
0
LINE
8
BLACK
6
CONTINUOUS
10
3.18827
20
-6.03822
11
3.18827
21
-6.10008
0
LINE
8
BLACK
6
CONTINUOUS
10
3.18827
20
-6.03822
11
3.1939
21
-6.02697
0
LINE
8
BLACK
6
CONTINUOUS
10
3.1939
20
-6.02697
11
3.20515
21
-6.02134
0
LINE
8
BLACK
6
CONTINUOUS
10
3.20515
20
-6.02134
11
3.22202
21
-6.02134
0
LINE
8
BLACK
6
CONTINUOUS
10
3.22202
20
-6.02134
11
3.23327
21
-6.02697
0
LINE
8
BLACK
6
CONTINUOUS
10
3.23327
20
-6.02697
11
3.23889
21
-6.03822
0
LINE
8
BLACK
6
CONTINUOUS
10
3.23889
20
-6.03822
11
3.23889
21
-6.10008
0
LINE
8
BLACK
6
CONTINUOUS
10
3.46949
20
-5.97635
11
3.36825
21
-6.12821
0
LINE
8
BLACK
6
CONTINUOUS
10
3.62134
20
-5.98197
11
3.63259
21
-5.98197
0
LINE
8
BLACK
6
CONTINUOUS
10
3.63259
20
-5.98197
11
3.64384
21
-5.9876
0
LINE
8
BLACK
6
CONTINUOUS
10
3.64384
20
-5.9876
11
3.64947
21
-5.99322
0
LINE
8
BLACK
6
CONTINUOUS
10
3.64947
20
-5.99322
11
3.65509
21
-6.00447
0
LINE
8
BLACK
6
CONTINUOUS
10
3.65509
20
-6.00447
11
3.66071
21
-6.02697
0
LINE
8
BLACK
6
CONTINUOUS
10
3.66071
20
-6.02697
11
3.66071
21
-6.05509
0
LINE
8
BLACK
6
CONTINUOUS
10
3.66071
20
-6.05509
11
3.65509
21
-6.07759
0
LINE
8
BLACK
6
CONTINUOUS
10
3.65509
20
-6.07759
11
3.64947
21
-6.08884
0
LINE
8
BLACK
6
CONTINUOUS
10
3.64947
20
-6.08884
11
3.64384
21
-6.09446
0
LINE
8
BLACK
6
CONTINUOUS
10
3.64384
20
-6.09446
11
3.63259
21
-6.10008
0
LINE
8
BLACK
6
CONTINUOUS
10
3.63259
20
-6.10008
11
3.62134
21
-6.10008
0
LINE
8
BLACK
6
CONTINUOUS
10
3.62134
20
-6.10008
11
3.6101
21
-6.09446
0
LINE
8
BLACK
6
CONTINUOUS
10
3.6101
20
-6.09446
11
3.60447
21
-6.08884
0
LINE
8
BLACK
6
CONTINUOUS
10
3.60447
20
-6.08884
11
3.59885
21
-6.07759
0
LINE
8
BLACK
6
CONTINUOUS
10
3.59885
20
-6.07759
11
3.59322
21
-6.05509
0
LINE
8
BLACK
6
CONTINUOUS
10
3.59322
20
-6.05509
11
3.59322
21
-6.02697
0
LINE
8
BLACK
6
CONTINUOUS
10
3.59322
20
-6.02697
11
3.59885
21
-6.00447
0
LINE
8
BLACK
6
CONTINUOUS
10
3.59885
20
-6.00447
11
3.60447
21
-5.99322
0
LINE
8
BLACK
6
CONTINUOUS
10
3.60447
20
-5.99322
11
3.6101
21
-5.9876
0
LINE
8
BLACK
6
CONTINUOUS
10
3.6101
20
-5.9876
11
3.62134
21
-5.98197
0
LINE
8
BLACK
6
CONTINUOUS
10
3.71133
20
-6.08884
11
3.71696
21
-6.09446
0
LINE
8
BLACK
6
CONTINUOUS
10
3.71696
20
-6.09446
11
3.71133
21
-6.10008
0
LINE
8
BLACK
6
CONTINUOUS
10
3.71133
20
-6.10008
11
3.70571
21
-6.09446
0
LINE
8
BLACK
6
CONTINUOUS
10
3.70571
20
-6.09446
11
3.71133
21
-6.08884
0
LINE
8
BLACK
6
CONTINUOUS
10
3.71133
20
-6.08884
11
3.71133
21
-6.10008
0
LINE
8
BLACK
6
CONTINUOUS
10
3.79007
20
-5.98197
11
3.80132
21
-5.98197
0
LINE
8
BLACK
6
CONTINUOUS
10
3.80132
20
-5.98197
11
3.81257
21
-5.9876
0
LINE
8
BLACK
6
CONTINUOUS
10
3.81257
20
-5.9876
11
3.81819
21
-5.99322
0
LINE
8
BLACK
6
CONTINUOUS
10
3.81819
20
-5.99322
11
3.82382
21
-6.00447
0
LINE
8
BLACK
6
CONTINUOUS
10
3.82382
20
-6.00447
11
3.82944
21
-6.02697
0
LINE
8
BLACK
6
CONTINUOUS
10
3.82944
20
-6.02697
11
3.82944
21
-6.05509
0
LINE
8
BLACK
6
CONTINUOUS
10
3.82944
20
-6.05509
11
3.82382
21
-6.07759
0
LINE
8
BLACK
6
CONTINUOUS
10
3.82382
20
-6.07759
11
3.81819
21
-6.08884
0
LINE
8
BLACK
6
CONTINUOUS
10
3.81819
20
-6.08884
11
3.81257
21
-6.09446
0
LINE
8
BLACK
6
CONTINUOUS
10
3.81257
20
-6.09446
11
3.80132
21
-6.10008
0
LINE
8
BLACK
6
CONTINUOUS
10
3.80132
20
-6.10008
11
3.79007
21
-6.10008
0
LINE
8
BLACK
6
CONTINUOUS
10
3.79007
20
-6.10008
11
3.77882
21
-6.09446
0
LINE
8
BLACK
6
CONTINUOUS
10
3.77882
20
-6.09446
11
3.7732
21
-6.08884
0
LINE
8
BLACK
6
CONTINUOUS
10
3.7732
20
-6.08884
11
3.76758
21
-6.07759
0
LINE
8
BLACK
6
CONTINUOUS
10
3.76758
20
-6.07759
11
3.76195
21
-6.05509
0
LINE
8
BLACK
6
CONTINUOUS
10
3.76195
20
-6.05509
11
3.76195
21
-6.02697
0
LINE
8
BLACK
6
CONTINUOUS
10
3.76195
20
-6.02697
11
3.76758
21
-6.00447
0
LINE
8
BLACK
6
CONTINUOUS
10
3.76758
20
-6.00447
11
3.7732
21
-5.99322
0
LINE
8
BLACK
6
CONTINUOUS
10
3.7732
20
-5.99322
11
3.77882
21
-5.9876
0
LINE
8
BLACK
6
CONTINUOUS
10
3.77882
20
-5.9876
11
3.79007
21
-5.98197
0
LINE
8
BLACK
6
CONTINUOUS
10
3.86881
20
-5.98197
11
3.94193
21
-5.98197
0
LINE
8
BLACK
6
CONTINUOUS
10
3.94193
20
-5.98197
11
3.90256
21
-6.02697
0
LINE
8
BLACK
6
CONTINUOUS
10
3.90256
20
-6.02697
11
3.91943
21
-6.02697
0
LINE
8
BLACK
6
CONTINUOUS
10
3.91943
20
-6.02697
11
3.93068
21
-6.03259
0
LINE
8
BLACK
6
CONTINUOUS
10
3.93068
20
-6.03259
11
3.9363
21
-6.03822
0
LINE
8
BLACK
6
CONTINUOUS
10
3.9363
20
-6.03822
11
3.94193
21
-6.04947
0
LINE
8
BLACK
6
CONTINUOUS
10
3.94193
20
-6.04947
11
3.94193
21
-6.07759
0
LINE
8
BLACK
6
CONTINUOUS
10
3.94193
20
-6.07759
11
3.9363
21
-6.08884
0
LINE
8
BLACK
6
CONTINUOUS
10
3.9363
20
-6.08884
11
3.93068
21
-6.09446
0
LINE
8
BLACK
6
CONTINUOUS
10
3.93068
20
-6.09446
11
3.91943
21
-6.10008
0
LINE
8
BLACK
6
CONTINUOUS
10
3.91943
20
-6.10008
11
3.88569
21
-6.10008
0
LINE
8
BLACK
6
CONTINUOUS
10
3.88569
20
-6.10008
11
3.87444
21
-6.09446
0
LINE
8
BLACK
6
CONTINUOUS
10
3.87444
20
-6.09446
11
3.86881
21
-6.08884
0
LINE
8
BLACK
6
CONTINUOUS
10
4.05441
20
-6.10008
11
3.98692
21
-6.10008
0
LINE
8
BLACK
6
CONTINUOUS
10
4.02067
20
-6.10008
11
4.02067
21
-5.98197
0
LINE
8
BLACK
6
CONTINUOUS
10
4.02067
20
-5.98197
11
4.00942
21
-5.99885
0
LINE
8
BLACK
6
CONTINUOUS
10
4.00942
20
-5.99885
11
3.99817
21
-6.0101
0
LINE
8
BLACK
6
CONTINUOUS
10
3.99817
20
-6.0101
11
3.98692
21
-6.01572
0
LINE
8
BLACK
6
CONTINUOUS
10
4.16128
20
-5.98197
11
4.10503
21
-5.98197
0
LINE
8
BLACK
6
CONTINUOUS
10
4.10503
20
-5.98197
11
4.09941
21
-6.03822
0
LINE
8
BLACK
6
CONTINUOUS
10
4.09941
20
-6.03822
11
4.10503
21
-6.03259
0
LINE
8
BLACK
6
CONTINUOUS
10
4.10503
20
-6.03259
11
4.11628
21
-6.02697
0
LINE
8
BLACK
6
CONTINUOUS
10
4.11628
20
-6.02697
11
4.1444
21
-6.02697
0
LINE
8
BLACK
6
CONTINUOUS
10
4.1444
20
-6.02697
11
4.15565
21
-6.03259
0
LINE
8
BLACK
6
CONTINUOUS
10
4.15565
20
-6.03259
11
4.16128
21
-6.03822
0
LINE
8
BLACK
6
CONTINUOUS
10
4.16128
20
-6.03822
11
4.1669
21
-6.04947
0
LINE
8
BLACK
6
CONTINUOUS
10
4.1669
20
-6.04947
11
4.1669
21
-6.07759
0
LINE
8
BLACK
6
CONTINUOUS
10
4.1669
20
-6.07759
11
4.16128
21
-6.08884
0
LINE
8
BLACK
6
CONTINUOUS
10
4.16128
20
-6.08884
11
4.15565
21
-6.09446
0
LINE
8
BLACK
6
CONTINUOUS
10
4.15565
20
-6.09446
11
4.1444
21
-6.10008
0
LINE
8
BLACK
6
CONTINUOUS
10
4.1444
20
-6.10008
11
4.11628
21
-6.10008
0
LINE
8
BLACK
6
CONTINUOUS
10
4.11628
20
-6.10008
11
4.10503
21
-6.09446
0
LINE
8
BLACK
6
CONTINUOUS
10
4.10503
20
-6.09446
11
4.09941
21
-6.08884
0
LINE
8
BLACK
6
CONTINUOUS
10
4.2119
20
-5.98197
11
4.2119
21
-6.00447
0
LINE
8
BLACK
6
CONTINUOUS
10
4.25689
20
-5.98197
11
4.25689
21
-6.00447
0
LINE
8
BLACK
6
CONTINUOUS
10
4.43124
20
-6.14508
11
4.42562
21
-6.13945
0
LINE
8
BLACK
6
CONTINUOUS
10
4.42562
20
-6.13945
11
4.41437
21
-6.12258
0
LINE
8
BLACK
6
CONTINUOUS
10
4.41437
20
-6.12258
11
4.40875
21
-6.11133
0
LINE
8
BLACK
6
CONTINUOUS
10
4.40875
20
-6.11133
11
4.40312
21
-6.09446
0
LINE
8
BLACK
6
CONTINUOUS
10
4.40312
20
-6.09446
11
4.3975
21
-6.06634
0
LINE
8
BLACK
6
CONTINUOUS
10
4.3975
20
-6.06634
11
4.3975
21
-6.04384
0
LINE
8
BLACK
6
CONTINUOUS
10
4.3975
20
-6.04384
11
4.40312
21
-6.01572
0
LINE
8
BLACK
6
CONTINUOUS
10
4.40312
20
-6.01572
11
4.40875
21
-5.99885
0
LINE
8
BLACK
6
CONTINUOUS
10
4.40875
20
-5.99885
11
4.41437
21
-5.9876
0
LINE
8
BLACK
6
CONTINUOUS
10
4.41437
20
-5.9876
11
4.42562
21
-5.97073
0
LINE
8
BLACK
6
CONTINUOUS
10
4.42562
20
-5.97073
11
4.43124
21
-5.9651
0
LINE
8
BLACK
6
CONTINUOUS
10
4.5381
20
-6.10008
11
4.47061
21
-6.10008
0
LINE
8
BLACK
6
CONTINUOUS
10
4.50436
20
-6.10008
11
4.50436
21
-5.98197
0
LINE
8
BLACK
6
CONTINUOUS
10
4.50436
20
-5.98197
11
4.49311
21
-5.99885
0
LINE
8
BLACK
6
CONTINUOUS
10
4.49311
20
-5.99885
11
4.48186
21
-6.0101
0
LINE
8
BLACK
6
CONTINUOUS
10
4.48186
20
-6.0101
11
4.47061
21
-6.01572
0
LINE
8
BLACK
6
CONTINUOUS
10
4.5831
20
-5.99322
11
4.58872
21
-5.9876
0
LINE
8
BLACK
6
CONTINUOUS
10
4.58872
20
-5.9876
11
4.59997
21
-5.98197
0
LINE
8
BLACK
6
CONTINUOUS
10
4.59997
20
-5.98197
11
4.62809
21
-5.98197
0
LINE
8
BLACK
6
CONTINUOUS
10
4.62809
20
-5.98197
11
4.63934
21
-5.9876
0
LINE
8
BLACK
6
CONTINUOUS
10
4.63934
20
-5.9876
11
4.64497
21
-5.99322
0
LINE
8
BLACK
6
CONTINUOUS
10
4.64497
20
-5.99322
11
4.65059
21
-6.00447
0
LINE
8
BLACK
6
CONTINUOUS
10
4.65059
20
-6.00447
11
4.65059
21
-6.01572
0
LINE
8
BLACK
6
CONTINUOUS
10
4.65059
20
-6.01572
11
4.64497
21
-6.03259
0
LINE
8
BLACK
6
CONTINUOUS
10
4.64497
20
-6.03259
11
4.57747
21
-6.10008
0
LINE
8
BLACK
6
CONTINUOUS
10
4.57747
20
-6.10008
11
4.65059
21
-6.10008
0
LINE
8
BLACK
6
CONTINUOUS
10
4.7912
20
-6.10008
11
4.7912
21
-5.98197
0
LINE
8
BLACK
6
CONTINUOUS
10
4.84182
20
-6.10008
11
4.84182
21
-6.03822
0
LINE
8
BLACK
6
CONTINUOUS
10
4.84182
20
-6.03822
11
4.83619
21
-6.02697
0
LINE
8
BLACK
6
CONTINUOUS
10
4.83619
20
-6.02697
11
4.82494
21
-6.02134
0
LINE
8
BLACK
6
CONTINUOUS
10
4.82494
20
-6.02134
11
4.80807
21
-6.02134
0
LINE
8
BLACK
6
CONTINUOUS
10
4.80807
20
-6.02134
11
4.79682
21
-6.02697
0
LINE
8
BLACK
6
CONTINUOUS
10
4.79682
20
-6.02697
11
4.7912
21
-6.03259
0
LINE
8
BLACK
6
CONTINUOUS
10
4.91493
20
-6.10008
11
4.90368
21
-6.09446
0
LINE
8
BLACK
6
CONTINUOUS
10
4.90368
20
-6.09446
11
4.89806
21
-6.08884
0
LINE
8
BLACK
6
CONTINUOUS
10
4.89806
20
-6.08884
11
4.89244
21
-6.07759
0
LINE
8
BLACK
6
CONTINUOUS
10
4.89244
20
-6.07759
11
4.89244
21
-6.04384
0
LINE
8
BLACK
6
CONTINUOUS
10
4.89244
20
-6.04384
11
4.89806
21
-6.03259
0
LINE
8
BLACK
6
CONTINUOUS
10
4.89806
20
-6.03259
11
4.90368
21
-6.02697
0
LINE
8
BLACK
6
CONTINUOUS
10
4.90368
20
-6.02697
11
4.91493
21
-6.02134
0
LINE
8
BLACK
6
CONTINUOUS
10
4.91493
20
-6.02134
11
4.93181
21
-6.02134
0
LINE
8
BLACK
6
CONTINUOUS
10
4.93181
20
-6.02134
11
4.94305
21
-6.02697
0
LINE
8
BLACK
6
CONTINUOUS
10
4.94305
20
-6.02697
11
4.94868
21
-6.03259
0
LINE
8
BLACK
6
CONTINUOUS
10
4.94868
20
-6.03259
11
4.9543
21
-6.04384
0
LINE
8
BLACK
6
CONTINUOUS
10
4.9543
20
-6.04384
11
4.9543
21
-6.07759
0
LINE
8
BLACK
6
CONTINUOUS
10
4.9543
20
-6.07759
11
4.94868
21
-6.08884
0
LINE
8
BLACK
6
CONTINUOUS
10
4.94868
20
-6.08884
11
4.94305
21
-6.09446
0
LINE
8
BLACK
6
CONTINUOUS
10
4.94305
20
-6.09446
11
4.93181
21
-6.10008
0
LINE
8
BLACK
6
CONTINUOUS
10
4.93181
20
-6.10008
11
4.91493
21
-6.10008
0
LINE
8
BLACK
6
CONTINUOUS
10
5.02179
20
-6.10008
11
5.01055
21
-6.09446
0
LINE
8
BLACK
6
CONTINUOUS
10
5.01055
20
-6.09446
11
5.00492
21
-6.08321
0
LINE
8
BLACK
6
CONTINUOUS
10
5.00492
20
-6.08321
11
5.00492
21
-5.98197
0
LINE
8
BLACK
6
CONTINUOUS
10
5.11178
20
-6.09446
11
5.10053
21
-6.10008
0
LINE
8
BLACK
6
CONTINUOUS
10
5.10053
20
-6.10008
11
5.07804
21
-6.10008
0
LINE
8
BLACK
6
CONTINUOUS
10
5.07804
20
-6.10008
11
5.06679
21
-6.09446
0
LINE
8
BLACK
6
CONTINUOUS
10
5.06679
20
-6.09446
11
5.06116
21
-6.08321
0
LINE
8
BLACK
6
CONTINUOUS
10
5.06116
20
-6.08321
11
5.06116
21
-6.03822
0
LINE
8
BLACK
6
CONTINUOUS
10
5.06116
20
-6.03822
11
5.06679
21
-6.02697
0
LINE
8
BLACK
6
CONTINUOUS
10
5.06679
20
-6.02697
11
5.07804
21
-6.02134
0
LINE
8
BLACK
6
CONTINUOUS
10
5.07804
20
-6.02134
11
5.10053
21
-6.02134
0
LINE
8
BLACK
6
CONTINUOUS
10
5.10053
20
-6.02134
11
5.11178
21
-6.02697
0
LINE
8
BLACK
6
CONTINUOUS
10
5.11178
20
-6.02697
11
5.11741
21
-6.03822
0
LINE
8
BLACK
6
CONTINUOUS
10
5.11741
20
-6.03822
11
5.11741
21
-6.04947
0
LINE
8
BLACK
6
CONTINUOUS
10
5.11741
20
-6.04947
11
5.06116
21
-6.06071
0
LINE
8
BLACK
6
CONTINUOUS
10
5.1624
20
-6.09446
11
5.17365
21
-6.10008
0
LINE
8
BLACK
6
CONTINUOUS
10
5.17365
20
-6.10008
11
5.19615
21
-6.10008
0
LINE
8
BLACK
6
CONTINUOUS
10
5.19615
20
-6.10008
11
5.2074
21
-6.09446
0
LINE
8
BLACK
6
CONTINUOUS
10
5.2074
20
-6.09446
11
5.21302
21
-6.08321
0
LINE
8
BLACK
6
CONTINUOUS
10
5.21302
20
-6.08321
11
5.21302
21
-6.07759
0
LINE
8
BLACK
6
CONTINUOUS
10
5.21302
20
-6.07759
11
5.2074
21
-6.06634
0
LINE
8
BLACK
6
CONTINUOUS
10
5.2074
20
-6.06634
11
5.19615
21
-6.06071
0
LINE
8
BLACK
6
CONTINUOUS
10
5.19615
20
-6.06071
11
5.17927
21
-6.06071
0
LINE
8
BLACK
6
CONTINUOUS
10
5.17927
20
-6.06071
11
5.16803
21
-6.05509
0
LINE
8
BLACK
6
CONTINUOUS
10
5.16803
20
-6.05509
11
5.1624
21
-6.04384
0
LINE
8
BLACK
6
CONTINUOUS
10
5.1624
20
-6.04384
11
5.1624
21
-6.03822
0
LINE
8
BLACK
6
CONTINUOUS
10
5.1624
20
-6.03822
11
5.16803
21
-6.02697
0
LINE
8
BLACK
6
CONTINUOUS
10
5.16803
20
-6.02697
11
5.17927
21
-6.02134
0
LINE
8
BLACK
6
CONTINUOUS
10
5.17927
20
-6.02134
11
5.19615
21
-6.02134
0
LINE
8
BLACK
6
CONTINUOUS
10
5.19615
20
-6.02134
11
5.2074
21
-6.02697
0
LINE
8
BLACK
6
CONTINUOUS
10
5.25239
20
-6.14508
11
5.25801
21
-6.13945
0
LINE
8
BLACK
6
CONTINUOUS
10
5.25801
20
-6.13945
11
5.26926
21
-6.12258
0
LINE
8
BLACK
6
CONTINUOUS
10
5.26926
20
-6.12258
11
5.27489
21
-6.11133
0
LINE
8
BLACK
6
CONTINUOUS
10
5.27489
20
-6.11133
11
5.28051
21
-6.09446
0
LINE
8
BLACK
6
CONTINUOUS
10
5.28051
20
-6.09446
11
5.28614
21
-6.06634
0
LINE
8
BLACK
6
CONTINUOUS
10
5.28614
20
-6.06634
11
5.28614
21
-6.04384
0
LINE
8
BLACK
6
CONTINUOUS
10
5.28614
20
-6.04384
11
5.28051
21
-6.01572
0
LINE
8
BLACK
6
CONTINUOUS
10
5.28051
20
-6.01572
11
5.27489
21
-5.99885
0
LINE
8
BLACK
6
CONTINUOUS
10
5.27489
20
-5.99885
11
5.26926
21
-5.9876
0
LINE
8
BLACK
6
CONTINUOUS
10
5.26926
20
-5.9876
11
5.25801
21
-5.97073
0
LINE
8
BLACK
6
CONTINUOUS
10
5.25801
20
-5.97073
11
5.25239
21
-5.9651
0
LINE
8
BLACK
6
CONTINUOUS
10
2.3435
20
-6.18484
11
2.3435
21
-6.22028
0
LINE
8
BLACK
6
CONTINUOUS
10
2.32579
20
-6.20256
11
2.36122
21
-6.20256
0
LINE
8
BLACK
6
CONTINUOUS
10
2.49648
20
-6.13788
11
2.50773
21
-6.13788
0
LINE
8
BLACK
6
CONTINUOUS
10
2.50773
20
-6.13788
11
2.51898
21
-6.1435
0
LINE
8
BLACK
6
CONTINUOUS
10
2.51898
20
-6.1435
11
2.52461
21
-6.14913
0
LINE
8
BLACK
6
CONTINUOUS
10
2.52461
20
-6.14913
11
2.53023
21
-6.16038
0
LINE
8
BLACK
6
CONTINUOUS
10
2.53023
20
-6.16038
11
2.53585
21
-6.18287
0
LINE
8
BLACK
6
CONTINUOUS
10
2.53585
20
-6.18287
11
2.53585
21
-6.211
0
LINE
8
BLACK
6
CONTINUOUS
10
2.53585
20
-6.211
11
2.53023
21
-6.23349
0
LINE
8
BLACK
6
CONTINUOUS
10
2.53023
20
-6.23349
11
2.52461
21
-6.24474
0
LINE
8
BLACK
6
CONTINUOUS
10
2.52461
20
-6.24474
11
2.51898
21
-6.25037
0
LINE
8
BLACK
6
CONTINUOUS
10
2.51898
20
-6.25037
11
2.50773
21
-6.25599
0
LINE
8
BLACK
6
CONTINUOUS
10
2.50773
20
-6.25599
11
2.49648
21
-6.25599
0
LINE
8
BLACK
6
CONTINUOUS
10
2.49648
20
-6.25599
11
2.48524
21
-6.25037
0
LINE
8
BLACK
6
CONTINUOUS
10
2.48524
20
-6.25037
11
2.47961
21
-6.24474
0
LINE
8
BLACK
6
CONTINUOUS
10
2.47961
20
-6.24474
11
2.47399
21
-6.23349
0
LINE
8
BLACK
6
CONTINUOUS
10
2.47399
20
-6.23349
11
2.46836
21
-6.211
0
LINE
8
BLACK
6
CONTINUOUS
10
2.46836
20
-6.211
11
2.46836
21
-6.18287
0
LINE
8
BLACK
6
CONTINUOUS
10
2.46836
20
-6.18287
11
2.47399
21
-6.16038
0
LINE
8
BLACK
6
CONTINUOUS
10
2.47399
20
-6.16038
11
2.47961
21
-6.14913
0
LINE
8
BLACK
6
CONTINUOUS
10
2.47961
20
-6.14913
11
2.48524
21
-6.1435
0
LINE
8
BLACK
6
CONTINUOUS
10
2.48524
20
-6.1435
11
2.49648
21
-6.13788
0
LINE
8
BLACK
6
CONTINUOUS
10
2.58647
20
-6.24474
11
2.5921
21
-6.25037
0
LINE
8
BLACK
6
CONTINUOUS
10
2.5921
20
-6.25037
11
2.58647
21
-6.25599
0
LINE
8
BLACK
6
CONTINUOUS
10
2.58647
20
-6.25599
11
2.58085
21
-6.25037
0
LINE
8
BLACK
6
CONTINUOUS
10
2.58085
20
-6.25037
11
2.58647
21
-6.24474
0
LINE
8
BLACK
6
CONTINUOUS
10
2.58647
20
-6.24474
11
2.58647
21
-6.25599
0
LINE
8
BLACK
6
CONTINUOUS
10
2.64834
20
-6.25599
11
2.67084
21
-6.25599
0
LINE
8
BLACK
6
CONTINUOUS
10
2.67084
20
-6.25599
11
2.68209
21
-6.25037
0
LINE
8
BLACK
6
CONTINUOUS
10
2.68209
20
-6.25037
11
2.68771
21
-6.24474
0
LINE
8
BLACK
6
CONTINUOUS
10
2.68771
20
-6.24474
11
2.69896
21
-6.22787
0
LINE
8
BLACK
6
CONTINUOUS
10
2.69896
20
-6.22787
11
2.70458
21
-6.20537
0
LINE
8
BLACK
6
CONTINUOUS
10
2.70458
20
-6.20537
11
2.70458
21
-6.16038
0
LINE
8
BLACK
6
CONTINUOUS
10
2.70458
20
-6.16038
11
2.69896
21
-6.14913
0
LINE
8
BLACK
6
CONTINUOUS
10
2.69896
20
-6.14913
11
2.69334
21
-6.1435
0
LINE
8
BLACK
6
CONTINUOUS
10
2.69334
20
-6.1435
11
2.68209
21
-6.13788
0
LINE
8
BLACK
6
CONTINUOUS
10
2.68209
20
-6.13788
11
2.65959
21
-6.13788
0
LINE
8
BLACK
6
CONTINUOUS
10
2.65959
20
-6.13788
11
2.64834
21
-6.1435
0
LINE
8
BLACK
6
CONTINUOUS
10
2.64834
20
-6.1435
11
2.64272
21
-6.14913
0
LINE
8
BLACK
6
CONTINUOUS
10
2.64272
20
-6.14913
11
2.63709
21
-6.16038
0
LINE
8
BLACK
6
CONTINUOUS
10
2.63709
20
-6.16038
11
2.63709
21
-6.1885
0
LINE
8
BLACK
6
CONTINUOUS
10
2.63709
20
-6.1885
11
2.64272
21
-6.19975
0
LINE
8
BLACK
6
CONTINUOUS
10
2.64272
20
-6.19975
11
2.64834
21
-6.20537
0
LINE
8
BLACK
6
CONTINUOUS
10
2.64834
20
-6.20537
11
2.65959
21
-6.211
0
LINE
8
BLACK
6
CONTINUOUS
10
2.65959
20
-6.211
11
2.68209
21
-6.211
0
LINE
8
BLACK
6
CONTINUOUS
10
2.68209
20
-6.211
11
2.69334
21
-6.20537
0
LINE
8
BLACK
6
CONTINUOUS
10
2.69334
20
-6.20537
11
2.69896
21
-6.19975
0
LINE
8
BLACK
6
CONTINUOUS
10
2.69896
20
-6.19975
11
2.70458
21
-6.1885
0
LINE
8
BLACK
6
CONTINUOUS
10
2.7777
20
-6.13788
11
2.78895
21
-6.13788
0
LINE
8
BLACK
6
CONTINUOUS
10
2.78895
20
-6.13788
11
2.8002
21
-6.1435
0
LINE
8
BLACK
6
CONTINUOUS
10
2.8002
20
-6.1435
11
2.80582
21
-6.14913
0
LINE
8
BLACK
6
CONTINUOUS
10
2.80582
20
-6.14913
11
2.81145
21
-6.16038
0
LINE
8
BLACK
6
CONTINUOUS
10
2.81145
20
-6.16038
11
2.81707
21
-6.18287
0
LINE
8
BLACK
6
CONTINUOUS
10
2.81707
20
-6.18287
11
2.81707
21
-6.211
0
LINE
8
BLACK
6
CONTINUOUS
10
2.81707
20
-6.211
11
2.81145
21
-6.23349
0
LINE
8
BLACK
6
CONTINUOUS
10
2.81145
20
-6.23349
11
2.80582
21
-6.24474
0
LINE
8
BLACK
6
CONTINUOUS
10
2.80582
20
-6.24474
11
2.8002
21
-6.25037
0
LINE
8
BLACK
6
CONTINUOUS
10
2.8002
20
-6.25037
11
2.78895
21
-6.25599
0
LINE
8
BLACK
6
CONTINUOUS
10
2.78895
20
-6.25599
11
2.7777
21
-6.25599
0
LINE
8
BLACK
6
CONTINUOUS
10
2.7777
20
-6.25599
11
2.76645
21
-6.25037
0
LINE
8
BLACK
6
CONTINUOUS
10
2.76645
20
-6.25037
11
2.76083
21
-6.24474
0
LINE
8
BLACK
6
CONTINUOUS
10
2.76083
20
-6.24474
11
2.7552
21
-6.23349
0
LINE
8
BLACK
6
CONTINUOUS
10
2.7552
20
-6.23349
11
2.74958
21
-6.211
0
LINE
8
BLACK
6
CONTINUOUS
10
2.74958
20
-6.211
11
2.74958
21
-6.18287
0
LINE
8
BLACK
6
CONTINUOUS
10
2.74958
20
-6.18287
11
2.7552
21
-6.16038
0
LINE
8
BLACK
6
CONTINUOUS
10
2.7552
20
-6.16038
11
2.76083
21
-6.14913
0
LINE
8
BLACK
6
CONTINUOUS
10
2.76083
20
-6.14913
11
2.76645
21
-6.1435
0
LINE
8
BLACK
6
CONTINUOUS
10
2.76645
20
-6.1435
11
2.7777
21
-6.13788
0
LINE
8
BLACK
6
CONTINUOUS
10
2.89019
20
-6.13788
11
2.90143
21
-6.13788
0
LINE
8
BLACK
6
CONTINUOUS
10
2.90143
20
-6.13788
11
2.91268
21
-6.1435
0
LINE
8
BLACK
6
CONTINUOUS
10
2.91268
20
-6.1435
11
2.91831
21
-6.14913
0
LINE
8
BLACK
6
CONTINUOUS
10
2.91831
20
-6.14913
11
2.92393
21
-6.16038
0
LINE
8
BLACK
6
CONTINUOUS
10
2.92393
20
-6.16038
11
2.92956
21
-6.18287
0
LINE
8
BLACK
6
CONTINUOUS
10
2.92956
20
-6.18287
11
2.92956
21
-6.211
0
LINE
8
BLACK
6
CONTINUOUS
10
2.92956
20
-6.211
11
2.92393
21
-6.23349
0
LINE
8
BLACK
6
CONTINUOUS
10
2.92393
20
-6.23349
11
2.91831
21
-6.24474
0
LINE
8
BLACK
6
CONTINUOUS
10
2.91831
20
-6.24474
11
2.91268
21
-6.25037
0
LINE
8
BLACK
6
CONTINUOUS
10
2.91268
20
-6.25037
11
2.90143
21
-6.25599
0
LINE
8
BLACK
6
CONTINUOUS
10
2.90143
20
-6.25599
11
2.89019
21
-6.25599
0
LINE
8
BLACK
6
CONTINUOUS
10
2.89019
20
-6.25599
11
2.87894
21
-6.25037
0
LINE
8
BLACK
6
CONTINUOUS
10
2.87894
20
-6.25037
11
2.87331
21
-6.24474
0
LINE
8
BLACK
6
CONTINUOUS
10
2.87331
20
-6.24474
11
2.86769
21
-6.23349
0
LINE
8
BLACK
6
CONTINUOUS
10
2.86769
20
-6.23349
11
2.86206
21
-6.211
0
LINE
8
BLACK
6
CONTINUOUS
10
2.86206
20
-6.211
11
2.86206
21
-6.18287
0
LINE
8
BLACK
6
CONTINUOUS
10
2.86206
20
-6.18287
11
2.86769
21
-6.16038
0
LINE
8
BLACK
6
CONTINUOUS
10
2.86769
20
-6.16038
11
2.87331
21
-6.14913
0
LINE
8
BLACK
6
CONTINUOUS
10
2.87331
20
-6.14913
11
2.87894
21
-6.1435
0
LINE
8
BLACK
6
CONTINUOUS
10
2.87894
20
-6.1435
11
2.89019
21
-6.13788
0
LINE
8
BLACK
6
CONTINUOUS
10
2.98017
20
-6.25599
11
2.98017
21
-6.17725
0
LINE
8
BLACK
6
CONTINUOUS
10
2.98017
20
-6.1885
11
2.9858
21
-6.18287
0
LINE
8
BLACK
6
CONTINUOUS
10
2.9858
20
-6.18287
11
2.99705
21
-6.17725
0
LINE
8
BLACK
6
CONTINUOUS
10
2.99705
20
-6.17725
11
3.01392
21
-6.17725
0
LINE
8
BLACK
6
CONTINUOUS
10
3.01392
20
-6.17725
11
3.02517
21
-6.18287
0
LINE
8
BLACK
6
CONTINUOUS
10
3.02517
20
-6.18287
11
3.03079
21
-6.19412
0
LINE
8
BLACK
6
CONTINUOUS
10
3.03079
20
-6.19412
11
3.03079
21
-6.25599
0
LINE
8
BLACK
6
CONTINUOUS
10
3.03079
20
-6.19412
11
3.03642
21
-6.18287
0
LINE
8
BLACK
6
CONTINUOUS
10
3.03642
20
-6.18287
11
3.04767
21
-6.17725
0
LINE
8
BLACK
6
CONTINUOUS
10
3.04767
20
-6.17725
11
3.06454
21
-6.17725
0
LINE
8
BLACK
6
CONTINUOUS
10
3.06454
20
-6.17725
11
3.07579
21
-6.18287
0
LINE
8
BLACK
6
CONTINUOUS
10
3.07579
20
-6.18287
11
3.08141
21
-6.19412
0
LINE
8
BLACK
6
CONTINUOUS
10
3.08141
20
-6.19412
11
3.08141
21
-6.25599
0
LINE
8
BLACK
6
CONTINUOUS
10
3.13765
20
-6.25599
11
3.13765
21
-6.17725
0
LINE
8
BLACK
6
CONTINUOUS
10
3.13765
20
-6.1885
11
3.14328
21
-6.18287
0
LINE
8
BLACK
6
CONTINUOUS
10
3.14328
20
-6.18287
11
3.15453
21
-6.17725
0
LINE
8
BLACK
6
CONTINUOUS
10
3.15453
20
-6.17725
11
3.1714
21
-6.17725
0
LINE
8
BLACK
6
CONTINUOUS
10
3.1714
20
-6.17725
11
3.18265
21
-6.18287
0
LINE
8
BLACK
6
CONTINUOUS
10
3.18265
20
-6.18287
11
3.18827
21
-6.19412
0
LINE
8
BLACK
6
CONTINUOUS
10
3.18827
20
-6.19412
11
3.18827
21
-6.25599
0
LINE
8
BLACK
6
CONTINUOUS
10
3.18827
20
-6.19412
11
3.1939
21
-6.18287
0
LINE
8
BLACK
6
CONTINUOUS
10
3.1939
20
-6.18287
11
3.20515
21
-6.17725
0
LINE
8
BLACK
6
CONTINUOUS
10
3.20515
20
-6.17725
11
3.22202
21
-6.17725
0
LINE
8
BLACK
6
CONTINUOUS
10
3.22202
20
-6.17725
11
3.23327
21
-6.18287
0
LINE
8
BLACK
6
CONTINUOUS
10
3.23327
20
-6.18287
11
3.23889
21
-6.19412
0
LINE
8
BLACK
6
CONTINUOUS
10
3.23889
20
-6.19412
11
3.23889
21
-6.25599
0
LINE
8
BLACK
6
CONTINUOUS
10
3.46949
20
-6.13226
11
3.36825
21
-6.28411
0
LINE
8
BLACK
6
CONTINUOUS
10
3.62134
20
-6.13788
11
3.63259
21
-6.13788
0
LINE
8
BLACK
6
CONTINUOUS
10
3.63259
20
-6.13788
11
3.64384
21
-6.1435
0
LINE
8
BLACK
6
CONTINUOUS
10
3.64384
20
-6.1435
11
3.64947
21
-6.14913
0
LINE
8
BLACK
6
CONTINUOUS
10
3.64947
20
-6.14913
11
3.65509
21
-6.16038
0
LINE
8
BLACK
6
CONTINUOUS
10
3.65509
20
-6.16038
11
3.66071
21
-6.18287
0
LINE
8
BLACK
6
CONTINUOUS
10
3.66071
20
-6.18287
11
3.66071
21
-6.211
0
LINE
8
BLACK
6
CONTINUOUS
10
3.66071
20
-6.211
11
3.65509
21
-6.23349
0
LINE
8
BLACK
6
CONTINUOUS
10
3.65509
20
-6.23349
11
3.64947
21
-6.24474
0
LINE
8
BLACK
6
CONTINUOUS
10
3.64947
20
-6.24474
11
3.64384
21
-6.25037
0
LINE
8
BLACK
6
CONTINUOUS
10
3.64384
20
-6.25037
11
3.63259
21
-6.25599
0
LINE
8
BLACK
6
CONTINUOUS
10
3.63259
20
-6.25599
11
3.62134
21
-6.25599
0
LINE
8
BLACK
6
CONTINUOUS
10
3.62134
20
-6.25599
11
3.6101
21
-6.25037
0
LINE
8
BLACK
6
CONTINUOUS
10
3.6101
20
-6.25037
11
3.60447
21
-6.24474
0
LINE
8
BLACK
6
CONTINUOUS
10
3.60447
20
-6.24474
11
3.59885
21
-6.23349
0
LINE
8
BLACK
6
CONTINUOUS
10
3.59885
20
-6.23349
11
3.59322
21
-6.211
0
LINE
8
BLACK
6
CONTINUOUS
10
3.59322
20
-6.211
11
3.59322
21
-6.18287
0
LINE
8
BLACK
6
CONTINUOUS
10
3.59322
20
-6.18287
11
3.59885
21
-6.16038
0
LINE
8
BLACK
6
CONTINUOUS
10
3.59885
20
-6.16038
11
3.60447
21
-6.14913
0
LINE
8
BLACK
6
CONTINUOUS
10
3.60447
20
-6.14913
11
3.6101
21
-6.1435
0
LINE
8
BLACK
6
CONTINUOUS
10
3.6101
20
-6.1435
11
3.62134
21
-6.13788
0
LINE
8
BLACK
6
CONTINUOUS
10
3.71133
20
-6.24474
11
3.71696
21
-6.25037
0
LINE
8
BLACK
6
CONTINUOUS
10
3.71696
20
-6.25037
11
3.71133
21
-6.25599
0
LINE
8
BLACK
6
CONTINUOUS
10
3.71133
20
-6.25599
11
3.70571
21
-6.25037
0
LINE
8
BLACK
6
CONTINUOUS
10
3.70571
20
-6.25037
11
3.71133
21
-6.24474
0
LINE
8
BLACK
6
CONTINUOUS
10
3.71133
20
-6.24474
11
3.71133
21
-6.25599
0
LINE
8
BLACK
6
CONTINUOUS
10
3.79007
20
-6.13788
11
3.80132
21
-6.13788
0
LINE
8
BLACK
6
CONTINUOUS
10
3.80132
20
-6.13788
11
3.81257
21
-6.1435
0
LINE
8
BLACK
6
CONTINUOUS
10
3.81257
20
-6.1435
11
3.81819
21
-6.14913
0
LINE
8
BLACK
6
CONTINUOUS
10
3.81819
20
-6.14913
11
3.82382
21
-6.16038
0
LINE
8
BLACK
6
CONTINUOUS
10
3.82382
20
-6.16038
11
3.82944
21
-6.18287
0
LINE
8
BLACK
6
CONTINUOUS
10
3.82944
20
-6.18287
11
3.82944
21
-6.211
0
LINE
8
BLACK
6
CONTINUOUS
10
3.82944
20
-6.211
11
3.82382
21
-6.23349
0
LINE
8
BLACK
6
CONTINUOUS
10
3.82382
20
-6.23349
11
3.81819
21
-6.24474
0
LINE
8
BLACK
6
CONTINUOUS
10
3.81819
20
-6.24474
11
3.81257
21
-6.25037
0
LINE
8
BLACK
6
CONTINUOUS
10
3.81257
20
-6.25037
11
3.80132
21
-6.25599
0
LINE
8
BLACK
6
CONTINUOUS
10
3.80132
20
-6.25599
11
3.79007
21
-6.25599
0
LINE
8
BLACK
6
CONTINUOUS
10
3.79007
20
-6.25599
11
3.77882
21
-6.25037
0
LINE
8
BLACK
6
CONTINUOUS
10
3.77882
20
-6.25037
11
3.7732
21
-6.24474
0
LINE
8
BLACK
6
CONTINUOUS
10
3.7732
20
-6.24474
11
3.76758
21
-6.23349
0
LINE
8
BLACK
6
CONTINUOUS
10
3.76758
20
-6.23349
11
3.76195
21
-6.211
0
LINE
8
BLACK
6
CONTINUOUS
10
3.76195
20
-6.211
11
3.76195
21
-6.18287
0
LINE
8
BLACK
6
CONTINUOUS
10
3.76195
20
-6.18287
11
3.76758
21
-6.16038
0
LINE
8
BLACK
6
CONTINUOUS
10
3.76758
20
-6.16038
11
3.7732
21
-6.14913
0
LINE
8
BLACK
6
CONTINUOUS
10
3.7732
20
-6.14913
11
3.77882
21
-6.1435
0
LINE
8
BLACK
6
CONTINUOUS
10
3.77882
20
-6.1435
11
3.79007
21
-6.13788
0
LINE
8
BLACK
6
CONTINUOUS
10
3.86881
20
-6.13788
11
3.94193
21
-6.13788
0
LINE
8
BLACK
6
CONTINUOUS
10
3.94193
20
-6.13788
11
3.90256
21
-6.18287
0
LINE
8
BLACK
6
CONTINUOUS
10
3.90256
20
-6.18287
11
3.91943
21
-6.18287
0
LINE
8
BLACK
6
CONTINUOUS
10
3.91943
20
-6.18287
11
3.93068
21
-6.1885
0
LINE
8
BLACK
6
CONTINUOUS
10
3.93068
20
-6.1885
11
3.9363
21
-6.19412
0
LINE
8
BLACK
6
CONTINUOUS
10
3.9363
20
-6.19412
11
3.94193
21
-6.20537
0
LINE
8
BLACK
6
CONTINUOUS
10
3.94193
20
-6.20537
11
3.94193
21
-6.23349
0
LINE
8
BLACK
6
CONTINUOUS
10
3.94193
20
-6.23349
11
3.9363
21
-6.24474
0
LINE
8
BLACK
6
CONTINUOUS
10
3.9363
20
-6.24474
11
3.93068
21
-6.25037
0
LINE
8
BLACK
6
CONTINUOUS
10
3.93068
20
-6.25037
11
3.91943
21
-6.25599
0
LINE
8
BLACK
6
CONTINUOUS
10
3.91943
20
-6.25599
11
3.88569
21
-6.25599
0
LINE
8
BLACK
6
CONTINUOUS
10
3.88569
20
-6.25599
11
3.87444
21
-6.25037
0
LINE
8
BLACK
6
CONTINUOUS
10
3.87444
20
-6.25037
11
3.86881
21
-6.24474
0
LINE
8
BLACK
6
CONTINUOUS
10
4.04879
20
-6.13788
11
3.99255
21
-6.13788
0
LINE
8
BLACK
6
CONTINUOUS
10
3.99255
20
-6.13788
11
3.98692
21
-6.19412
0
LINE
8
BLACK
6
CONTINUOUS
10
3.98692
20
-6.19412
11
3.99255
21
-6.1885
0
LINE
8
BLACK
6
CONTINUOUS
10
3.99255
20
-6.1885
11
4.0038
21
-6.18287
0
LINE
8
BLACK
6
CONTINUOUS
10
4.0038
20
-6.18287
11
4.03192
21
-6.18287
0
LINE
8
BLACK
6
CONTINUOUS
10
4.03192
20
-6.18287
11
4.04317
21
-6.1885
0
LINE
8
BLACK
6
CONTINUOUS
10
4.04317
20
-6.1885
11
4.04879
21
-6.19412
0
LINE
8
BLACK
6
CONTINUOUS
10
4.04879
20
-6.19412
11
4.05441
21
-6.20537
0
LINE
8
BLACK
6
CONTINUOUS
10
4.05441
20
-6.20537
11
4.05441
21
-6.23349
0
LINE
8
BLACK
6
CONTINUOUS
10
4.05441
20
-6.23349
11
4.04879
21
-6.24474
0
LINE
8
BLACK
6
CONTINUOUS
10
4.04879
20
-6.24474
11
4.04317
21
-6.25037
0
LINE
8
BLACK
6
CONTINUOUS
10
4.04317
20
-6.25037
11
4.03192
21
-6.25599
0
LINE
8
BLACK
6
CONTINUOUS
10
4.03192
20
-6.25599
11
4.0038
21
-6.25599
0
LINE
8
BLACK
6
CONTINUOUS
10
4.0038
20
-6.25599
11
3.99255
21
-6.25037
0
LINE
8
BLACK
6
CONTINUOUS
10
3.99255
20
-6.25037
11
3.98692
21
-6.24474
0
LINE
8
BLACK
6
CONTINUOUS
10
4.15565
20
-6.17725
11
4.15565
21
-6.25599
0
LINE
8
BLACK
6
CONTINUOUS
10
4.12753
20
-6.13226
11
4.09941
21
-6.21662
0
LINE
8
BLACK
6
CONTINUOUS
10
4.09941
20
-6.21662
11
4.17253
21
-6.21662
0
LINE
8
BLACK
6
CONTINUOUS
10
4.2119
20
-6.13788
11
4.2119
21
-6.16038
0
LINE
8
BLACK
6
CONTINUOUS
10
4.25689
20
-6.13788
11
4.25689
21
-6.16038
0
LINE
8
BLACK
6
CONTINUOUS
10
4.43124
20
-6.30098
11
4.42562
21
-6.29536
0
LINE
8
BLACK
6
CONTINUOUS
10
4.42562
20
-6.29536
11
4.41437
21
-6.27849
0
LINE
8
BLACK
6
CONTINUOUS
10
4.41437
20
-6.27849
11
4.40875
21
-6.26724
0
LINE
8
BLACK
6
CONTINUOUS
10
4.40875
20
-6.26724
11
4.40312
21
-6.25037
0
LINE
8
BLACK
6
CONTINUOUS
10
4.40312
20
-6.25037
11
4.3975
21
-6.22224
0
LINE
8
BLACK
6
CONTINUOUS
10
4.3975
20
-6.22224
11
4.3975
21
-6.19975
0
LINE
8
BLACK
6
CONTINUOUS
10
4.3975
20
-6.19975
11
4.40312
21
-6.17163
0
LINE
8
BLACK
6
CONTINUOUS
10
4.40312
20
-6.17163
11
4.40875
21
-6.15475
0
LINE
8
BLACK
6
CONTINUOUS
10
4.40875
20
-6.15475
11
4.41437
21
-6.1435
0
LINE
8
BLACK
6
CONTINUOUS
10
4.41437
20
-6.1435
11
4.42562
21
-6.12663
0
LINE
8
BLACK
6
CONTINUOUS
10
4.42562
20
-6.12663
11
4.43124
21
-6.12101
0
LINE
8
BLACK
6
CONTINUOUS
10
4.52686
20
-6.17725
11
4.52686
21
-6.25599
0
LINE
8
BLACK
6
CONTINUOUS
10
4.49873
20
-6.13226
11
4.47061
21
-6.21662
0
LINE
8
BLACK
6
CONTINUOUS
10
4.47061
20
-6.21662
11
4.54373
21
-6.21662
0
LINE
8
BLACK
6
CONTINUOUS
10
4.67871
20
-6.25599
11
4.67871
21
-6.13788
0
LINE
8
BLACK
6
CONTINUOUS
10
4.72933
20
-6.25599
11
4.72933
21
-6.19412
0
LINE
8
BLACK
6
CONTINUOUS
10
4.72933
20
-6.19412
11
4.72371
21
-6.18287
0
LINE
8
BLACK
6
CONTINUOUS
10
4.72371
20
-6.18287
11
4.71246
21
-6.17725
0
LINE
8
BLACK
6
CONTINUOUS
10
4.71246
20
-6.17725
11
4.69558
21
-6.17725
0
LINE
8
BLACK
6
CONTINUOUS
10
4.69558
20
-6.17725
11
4.68434
21
-6.18287
0
LINE
8
BLACK
6
CONTINUOUS
10
4.68434
20
-6.18287
11
4.67871
21
-6.1885
0
LINE
8
BLACK
6
CONTINUOUS
10
4.80245
20
-6.25599
11
4.7912
21
-6.25037
0
LINE
8
BLACK
6
CONTINUOUS
10
4.7912
20
-6.25037
11
4.78557
21
-6.24474
0
LINE
8
BLACK
6
CONTINUOUS
10
4.78557
20
-6.24474
11
4.77995
21
-6.23349
0
LINE
8
BLACK
6
CONTINUOUS
10
4.77995
20
-6.23349
11
4.77995
21
-6.19975
0
LINE
8
BLACK
6
CONTINUOUS
10
4.77995
20
-6.19975
11
4.78557
21
-6.1885
0
LINE
8
BLACK
6
CONTINUOUS
10
4.78557
20
-6.1885
11
4.7912
21
-6.18287
0
LINE
8
BLACK
6
CONTINUOUS
10
4.7912
20
-6.18287
11
4.80245
21
-6.17725
0
LINE
8
BLACK
6
CONTINUOUS
10
4.80245
20
-6.17725
11
4.81932
21
-6.17725
0
LINE
8
BLACK
6
CONTINUOUS
10
4.81932
20
-6.17725
11
4.83057
21
-6.18287
0
LINE
8
BLACK
6
CONTINUOUS
10
4.83057
20
-6.18287
11
4.83619
21
-6.1885
0
LINE
8
BLACK
6
CONTINUOUS
10
4.83619
20
-6.1885
11
4.84182
21
-6.19975
0
LINE
8
BLACK
6
CONTINUOUS
10
4.84182
20
-6.19975
11
4.84182
21
-6.23349
0
LINE
8
BLACK
6
CONTINUOUS
10
4.84182
20
-6.23349
11
4.83619
21
-6.24474
0
LINE
8
BLACK
6
CONTINUOUS
10
4.83619
20
-6.24474
11
4.83057
21
-6.25037
0
LINE
8
BLACK
6
CONTINUOUS
10
4.83057
20
-6.25037
11
4.81932
21
-6.25599
0
LINE
8
BLACK
6
CONTINUOUS
10
4.81932
20
-6.25599
11
4.80245
21
-6.25599
0
LINE
8
BLACK
6
CONTINUOUS
10
4.90931
20
-6.25599
11
4.89806
21
-6.25037
0
LINE
8
BLACK
6
CONTINUOUS
10
4.89806
20
-6.25037
11
4.89244
21
-6.23912
0
LINE
8
BLACK
6
CONTINUOUS
10
4.89244
20
-6.23912
11
4.89244
21
-6.13788
0
LINE
8
BLACK
6
CONTINUOUS
10
4.9993
20
-6.25037
11
4.98805
21
-6.25599
0
LINE
8
BLACK
6
CONTINUOUS
10
4.98805
20
-6.25599
11
4.96555
21
-6.25599
0
LINE
8
BLACK
6
CONTINUOUS
10
4.96555
20
-6.25599
11
4.9543
21
-6.25037
0
LINE
8
BLACK
6
CONTINUOUS
10
4.9543
20
-6.25037
11
4.94868
21
-6.23912
0
LINE
8
BLACK
6
CONTINUOUS
10
4.94868
20
-6.23912
11
4.94868
21
-6.19412
0
LINE
8
BLACK
6
CONTINUOUS
10
4.94868
20
-6.19412
11
4.9543
21
-6.18287
0
LINE
8
BLACK
6
CONTINUOUS
10
4.9543
20
-6.18287
11
4.96555
21
-6.17725
0
LINE
8
BLACK
6
CONTINUOUS
10
4.96555
20
-6.17725
11
4.98805
21
-6.17725
0
LINE
8
BLACK
6
CONTINUOUS
10
4.98805
20
-6.17725
11
4.9993
21
-6.18287
0
LINE
8
BLACK
6
CONTINUOUS
10
4.9993
20
-6.18287
11
5.00492
21
-6.19412
0
LINE
8
BLACK
6
CONTINUOUS
10
5.00492
20
-6.19412
11
5.00492
21
-6.20537
0
LINE
8
BLACK
6
CONTINUOUS
10
5.00492
20
-6.20537
11
4.94868
21
-6.21662
0
LINE
8
BLACK
6
CONTINUOUS
10
5.04992
20
-6.25037
11
5.06116
21
-6.25599
0
LINE
8
BLACK
6
CONTINUOUS
10
5.06116
20
-6.25599
11
5.08366
21
-6.25599
0
LINE
8
BLACK
6
CONTINUOUS
10
5.08366
20
-6.25599
11
5.09491
21
-6.25037
0
LINE
8
BLACK
6
CONTINUOUS
10
5.09491
20
-6.25037
11
5.10053
21
-6.23912
0
LINE
8
BLACK
6
CONTINUOUS
10
5.10053
20
-6.23912
11
5.10053
21
-6.23349
0
LINE
8
BLACK
6
CONTINUOUS
10
5.10053
20
-6.23349
11
5.09491
21
-6.22224
0
LINE
8
BLACK
6
CONTINUOUS
10
5.09491
20
-6.22224
11
5.08366
21
-6.21662
0
LINE
8
BLACK
6
CONTINUOUS
10
5.08366
20
-6.21662
11
5.06679
21
-6.21662
0
LINE
8
BLACK
6
CONTINUOUS
10
5.06679
20
-6.21662
11
5.05554
21
-6.211
0
LINE
8
BLACK
6
CONTINUOUS
10
5.05554
20
-6.211
11
5.04992
21
-6.19975
0
LINE
8
BLACK
6
CONTINUOUS
10
5.04992
20
-6.19975
11
5.04992
21
-6.19412
0
LINE
8
BLACK
6
CONTINUOUS
10
5.04992
20
-6.19412
11
5.05554
21
-6.18287
0
LINE
8
BLACK
6
CONTINUOUS
10
5.05554
20
-6.18287
11
5.06679
21
-6.17725
0
LINE
8
BLACK
6
CONTINUOUS
10
5.06679
20
-6.17725
11
5.08366
21
-6.17725
0
LINE
8
BLACK
6
CONTINUOUS
10
5.08366
20
-6.17725
11
5.09491
21
-6.18287
0
LINE
8
BLACK
6
CONTINUOUS
10
5.1399
20
-6.30098
11
5.14553
21
-6.29536
0
LINE
8
BLACK
6
CONTINUOUS
10
5.14553
20
-6.29536
11
5.15678
21
-6.27849
0
LINE
8
BLACK
6
CONTINUOUS
10
5.15678
20
-6.27849
11
5.1624
21
-6.26724
0
LINE
8
BLACK
6
CONTINUOUS
10
5.1624
20
-6.26724
11
5.16803
21
-6.25037
0
LINE
8
BLACK
6
CONTINUOUS
10
5.16803
20
-6.25037
11
5.17365
21
-6.22224
0
LINE
8
BLACK
6
CONTINUOUS
10
5.17365
20
-6.22224
11
5.17365
21
-6.19975
0
LINE
8
BLACK
6
CONTINUOUS
10
5.17365
20
-6.19975
11
5.16803
21
-6.17163
0
LINE
8
BLACK
6
CONTINUOUS
10
5.16803
20
-6.17163
11
5.1624
21
-6.15475
0
LINE
8
BLACK
6
CONTINUOUS
10
5.1624
20
-6.15475
11
5.15678
21
-6.1435
0
LINE
8
BLACK
6
CONTINUOUS
10
5.15678
20
-6.1435
11
5.14553
21
-6.12663
0
LINE
8
BLACK
6
CONTINUOUS
10
5.14553
20
-6.12663
11
5.1399
21
-6.12101
0
LINE
8
BLACK
6
CONTINUOUS
10
2.35545
20
-6.37238
11
2.35545
21
-6.34455
0
LINE
8
BLACK
6
CONTINUOUS
10
2.35545
20
-6.34455
11
2.32762
21
-6.34455
0
LINE
8
BLACK
6
CONTINUOUS
10
2.32762
20
-6.34455
11
2.32762
21
-6.37238
0
LINE
8
BLACK
6
CONTINUOUS
10
2.32762
20
-6.37238
11
2.35545
21
-6.37238
0
LINE
8
BLACK
6
CONTINUOUS
10
2.53585
20
-6.4119
11
2.46836
21
-6.4119
0
LINE
8
BLACK
6
CONTINUOUS
10
2.50211
20
-6.4119
11
2.50211
21
-6.29379
0
LINE
8
BLACK
6
CONTINUOUS
10
2.50211
20
-6.29379
11
2.49086
21
-6.31066
0
LINE
8
BLACK
6
CONTINUOUS
10
2.49086
20
-6.31066
11
2.47961
21
-6.32191
0
LINE
8
BLACK
6
CONTINUOUS
10
2.47961
20
-6.32191
11
2.46836
21
-6.32753
0
LINE
8
BLACK
6
CONTINUOUS
10
2.58647
20
-6.40065
11
2.5921
21
-6.40627
0
LINE
8
BLACK
6
CONTINUOUS
10
2.5921
20
-6.40627
11
2.58647
21
-6.4119
0
LINE
8
BLACK
6
CONTINUOUS
10
2.58647
20
-6.4119
11
2.58085
21
-6.40627
0
LINE
8
BLACK
6
CONTINUOUS
10
2.58085
20
-6.40627
11
2.58647
21
-6.40065
0
LINE
8
BLACK
6
CONTINUOUS
10
2.58647
20
-6.40065
11
2.58647
21
-6.4119
0
LINE
8
BLACK
6
CONTINUOUS
10
2.66521
20
-6.29379
11
2.67646
21
-6.29379
0
LINE
8
BLACK
6
CONTINUOUS
10
2.67646
20
-6.29379
11
2.68771
21
-6.29941
0
LINE
8
BLACK
6
CONTINUOUS
10
2.68771
20
-6.29941
11
2.69334
21
-6.30503
0
LINE
8
BLACK
6
CONTINUOUS
10
2.69334
20
-6.30503
11
2.69896
21
-6.31628
0
LINE
8
BLACK
6
CONTINUOUS
10
2.69896
20
-6.31628
11
2.70458
21
-6.33878
0
LINE
8
BLACK
6
CONTINUOUS
10
2.70458
20
-6.33878
11
2.70458
21
-6.3669
0
LINE
8
BLACK
6
CONTINUOUS
10
2.70458
20
-6.3669
11
2.69896
21
-6.3894
0
LINE
8
BLACK
6
CONTINUOUS
10
2.69896
20
-6.3894
11
2.69334
21
-6.40065
0
LINE
8
BLACK
6
CONTINUOUS
10
2.69334
20
-6.40065
11
2.68771
21
-6.40627
0
LINE
8
BLACK
6
CONTINUOUS
10
2.68771
20
-6.40627
11
2.67646
21
-6.4119
0
LINE
8
BLACK
6
CONTINUOUS
10
2.67646
20
-6.4119
11
2.66521
21
-6.4119
0
LINE
8
BLACK
6
CONTINUOUS
10
2.66521
20
-6.4119
11
2.65397
21
-6.40627
0
LINE
8
BLACK
6
CONTINUOUS
10
2.65397
20
-6.40627
11
2.64834
21
-6.40065
0
LINE
8
BLACK
6
CONTINUOUS
10
2.64834
20
-6.40065
11
2.64272
21
-6.3894
0
LINE
8
BLACK
6
CONTINUOUS
10
2.64272
20
-6.3894
11
2.63709
21
-6.3669
0
LINE
8
BLACK
6
CONTINUOUS
10
2.63709
20
-6.3669
11
2.63709
21
-6.33878
0
LINE
8
BLACK
6
CONTINUOUS
10
2.63709
20
-6.33878
11
2.64272
21
-6.31628
0
LINE
8
BLACK
6
CONTINUOUS
10
2.64272
20
-6.31628
11
2.64834
21
-6.30503
0
LINE
8
BLACK
6
CONTINUOUS
10
2.64834
20
-6.30503
11
2.65397
21
-6.29941
0
LINE
8
BLACK
6
CONTINUOUS
10
2.65397
20
-6.29941
11
2.66521
21
-6.29379
0
LINE
8
BLACK
6
CONTINUOUS
10
2.7777
20
-6.29379
11
2.78895
21
-6.29379
0
LINE
8
BLACK
6
CONTINUOUS
10
2.78895
20
-6.29379
11
2.8002
21
-6.29941
0
LINE
8
BLACK
6
CONTINUOUS
10
2.8002
20
-6.29941
11
2.80582
21
-6.30503
0
LINE
8
BLACK
6
CONTINUOUS
10
2.80582
20
-6.30503
11
2.81145
21
-6.31628
0
LINE
8
BLACK
6
CONTINUOUS
10
2.81145
20
-6.31628
11
2.81707
21
-6.33878
0
LINE
8
BLACK
6
CONTINUOUS
10
2.81707
20
-6.33878
11
2.81707
21
-6.3669
0
LINE
8
BLACK
6
CONTINUOUS
10
2.81707
20
-6.3669
11
2.81145
21
-6.3894
0
LINE
8
BLACK
6
CONTINUOUS
10
2.81145
20
-6.3894
11
2.80582
21
-6.40065
0
LINE
8
BLACK
6
CONTINUOUS
10
2.80582
20
-6.40065
11
2.8002
21
-6.40627
0
LINE
8
BLACK
6
CONTINUOUS
10
2.8002
20
-6.40627
11
2.78895
21
-6.4119
0
LINE
8
BLACK
6
CONTINUOUS
10
2.78895
20
-6.4119
11
2.7777
21
-6.4119
0
LINE
8
BLACK
6
CONTINUOUS
10
2.7777
20
-6.4119
11
2.76645
21
-6.40627
0
LINE
8
BLACK
6
CONTINUOUS
10
2.76645
20
-6.40627
11
2.76083
21
-6.40065
0
LINE
8
BLACK
6
CONTINUOUS
10
2.76083
20
-6.40065
11
2.7552
21
-6.3894
0
LINE
8
BLACK
6
CONTINUOUS
10
2.7552
20
-6.3894
11
2.74958
21
-6.3669
0
LINE
8
BLACK
6
CONTINUOUS
10
2.74958
20
-6.3669
11
2.74958
21
-6.33878
0
LINE
8
BLACK
6
CONTINUOUS
10
2.74958
20
-6.33878
11
2.7552
21
-6.31628
0
LINE
8
BLACK
6
CONTINUOUS
10
2.7552
20
-6.31628
11
2.76083
21
-6.30503
0
LINE
8
BLACK
6
CONTINUOUS
10
2.76083
20
-6.30503
11
2.76645
21
-6.29941
0
LINE
8
BLACK
6
CONTINUOUS
10
2.76645
20
-6.29941
11
2.7777
21
-6.29379
0
LINE
8
BLACK
6
CONTINUOUS
10
2.89019
20
-6.29379
11
2.90143
21
-6.29379
0
LINE
8
BLACK
6
CONTINUOUS
10
2.90143
20
-6.29379
11
2.91268
21
-6.29941
0
LINE
8
BLACK
6
CONTINUOUS
10
2.91268
20
-6.29941
11
2.91831
21
-6.30503
0
LINE
8
BLACK
6
CONTINUOUS
10
2.91831
20
-6.30503
11
2.92393
21
-6.31628
0
LINE
8
BLACK
6
CONTINUOUS
10
2.92393
20
-6.31628
11
2.92956
21
-6.33878
0
LINE
8
BLACK
6
CONTINUOUS
10
2.92956
20
-6.33878
11
2.92956
21
-6.3669
0
LINE
8
BLACK
6
CONTINUOUS
10
2.92956
20
-6.3669
11
2.92393
21
-6.3894
0
LINE
8
BLACK
6
CONTINUOUS
10
2.92393
20
-6.3894
11
2.91831
21
-6.40065
0
LINE
8
BLACK
6
CONTINUOUS
10
2.91831
20
-6.40065
11
2.91268
21
-6.40627
0
LINE
8
BLACK
6
CONTINUOUS
10
2.91268
20
-6.40627
11
2.90143
21
-6.4119
0
LINE
8
BLACK
6
CONTINUOUS
10
2.90143
20
-6.4119
11
2.89019
21
-6.4119
0
LINE
8
BLACK
6
CONTINUOUS
10
2.89019
20
-6.4119
11
2.87894
21
-6.40627
0
LINE
8
BLACK
6
CONTINUOUS
10
2.87894
20
-6.40627
11
2.87331
21
-6.40065
0
LINE
8
BLACK
6
CONTINUOUS
10
2.87331
20
-6.40065
11
2.86769
21
-6.3894
0
LINE
8
BLACK
6
CONTINUOUS
10
2.86769
20
-6.3894
11
2.86206
21
-6.3669
0
LINE
8
BLACK
6
CONTINUOUS
10
2.86206
20
-6.3669
11
2.86206
21
-6.33878
0
LINE
8
BLACK
6
CONTINUOUS
10
2.86206
20
-6.33878
11
2.86769
21
-6.31628
0
LINE
8
BLACK
6
CONTINUOUS
10
2.86769
20
-6.31628
11
2.87331
21
-6.30503
0
LINE
8
BLACK
6
CONTINUOUS
10
2.87331
20
-6.30503
11
2.87894
21
-6.29941
0
LINE
8
BLACK
6
CONTINUOUS
10
2.87894
20
-6.29941
11
2.89019
21
-6.29379
0
LINE
8
BLACK
6
CONTINUOUS
10
2.98017
20
-6.4119
11
2.98017
21
-6.33316
0
LINE
8
BLACK
6
CONTINUOUS
10
2.98017
20
-6.3444
11
2.9858
21
-6.33878
0
LINE
8
BLACK
6
CONTINUOUS
10
2.9858
20
-6.33878
11
2.99705
21
-6.33316
0
LINE
8
BLACK
6
CONTINUOUS
10
2.99705
20
-6.33316
11
3.01392
21
-6.33316
0
LINE
8
BLACK
6
CONTINUOUS
10
3.01392
20
-6.33316
11
3.02517
21
-6.33878
0
LINE
8
BLACK
6
CONTINUOUS
10
3.02517
20
-6.33878
11
3.03079
21
-6.35003
0
LINE
8
BLACK
6
CONTINUOUS
10
3.03079
20
-6.35003
11
3.03079
21
-6.4119
0
LINE
8
BLACK
6
CONTINUOUS
10
3.03079
20
-6.35003
11
3.03642
21
-6.33878
0
LINE
8
BLACK
6
CONTINUOUS
10
3.03642
20
-6.33878
11
3.04767
21
-6.33316
0
LINE
8
BLACK
6
CONTINUOUS
10
3.04767
20
-6.33316
11
3.06454
21
-6.33316
0
LINE
8
BLACK
6
CONTINUOUS
10
3.06454
20
-6.33316
11
3.07579
21
-6.33878
0
LINE
8
BLACK
6
CONTINUOUS
10
3.07579
20
-6.33878
11
3.08141
21
-6.35003
0
LINE
8
BLACK
6
CONTINUOUS
10
3.08141
20
-6.35003
11
3.08141
21
-6.4119
0
LINE
8
BLACK
6
CONTINUOUS
10
3.13765
20
-6.4119
11
3.13765
21
-6.33316
0
LINE
8
BLACK
6
CONTINUOUS
10
3.13765
20
-6.3444
11
3.14328
21
-6.33878
0
LINE
8
BLACK
6
CONTINUOUS
10
3.14328
20
-6.33878
11
3.15453
21
-6.33316
0
LINE
8
BLACK
6
CONTINUOUS
10
3.15453
20
-6.33316
11
3.1714
21
-6.33316
0
LINE
8
BLACK
6
CONTINUOUS
10
3.1714
20
-6.33316
11
3.18265
21
-6.33878
0
LINE
8
BLACK
6
CONTINUOUS
10
3.18265
20
-6.33878
11
3.18827
21
-6.35003
0
LINE
8
BLACK
6
CONTINUOUS
10
3.18827
20
-6.35003
11
3.18827
21
-6.4119
0
LINE
8
BLACK
6
CONTINUOUS
10
3.18827
20
-6.35003
11
3.1939
21
-6.33878
0
LINE
8
BLACK
6
CONTINUOUS
10
3.1939
20
-6.33878
11
3.20515
21
-6.33316
0
LINE
8
BLACK
6
CONTINUOUS
10
3.20515
20
-6.33316
11
3.22202
21
-6.33316
0
LINE
8
BLACK
6
CONTINUOUS
10
3.22202
20
-6.33316
11
3.23327
21
-6.33878
0
LINE
8
BLACK
6
CONTINUOUS
10
3.23327
20
-6.33878
11
3.23889
21
-6.35003
0
LINE
8
BLACK
6
CONTINUOUS
10
3.23889
20
-6.35003
11
3.23889
21
-6.4119
0
LINE
8
BLACK
6
CONTINUOUS
10
3.46949
20
-6.28816
11
3.36825
21
-6.44002
0
LINE
8
BLACK
6
CONTINUOUS
10
3.62134
20
-6.29379
11
3.63259
21
-6.29379
0
LINE
8
BLACK
6
CONTINUOUS
10
3.63259
20
-6.29379
11
3.64384
21
-6.29941
0
LINE
8
BLACK
6
CONTINUOUS
10
3.64384
20
-6.29941
11
3.64947
21
-6.30503
0
LINE
8
BLACK
6
CONTINUOUS
10
3.64947
20
-6.30503
11
3.65509
21
-6.31628
0
LINE
8
BLACK
6
CONTINUOUS
10
3.65509
20
-6.31628
11
3.66071
21
-6.33878
0
LINE
8
BLACK
6
CONTINUOUS
10
3.66071
20
-6.33878
11
3.66071
21
-6.3669
0
LINE
8
BLACK
6
CONTINUOUS
10
3.66071
20
-6.3669
11
3.65509
21
-6.3894
0
LINE
8
BLACK
6
CONTINUOUS
10
3.65509
20
-6.3894
11
3.64947
21
-6.40065
0
LINE
8
BLACK
6
CONTINUOUS
10
3.64947
20
-6.40065
11
3.64384
21
-6.40627
0
LINE
8
BLACK
6
CONTINUOUS
10
3.64384
20
-6.40627
11
3.63259
21
-6.4119
0
LINE
8
BLACK
6
CONTINUOUS
10
3.63259
20
-6.4119
11
3.62134
21
-6.4119
0
LINE
8
BLACK
6
CONTINUOUS
10
3.62134
20
-6.4119
11
3.6101
21
-6.40627
0
LINE
8
BLACK
6
CONTINUOUS
10
3.6101
20
-6.40627
11
3.60447
21
-6.40065
0
LINE
8
BLACK
6
CONTINUOUS
10
3.60447
20
-6.40065
11
3.59885
21
-6.3894
0
LINE
8
BLACK
6
CONTINUOUS
10
3.59885
20
-6.3894
11
3.59322
21
-6.3669
0
LINE
8
BLACK
6
CONTINUOUS
10
3.59322
20
-6.3669
11
3.59322
21
-6.33878
0
LINE
8
BLACK
6
CONTINUOUS
10
3.59322
20
-6.33878
11
3.59885
21
-6.31628
0
LINE
8
BLACK
6
CONTINUOUS
10
3.59885
20
-6.31628
11
3.60447
21
-6.30503
0
LINE
8
BLACK
6
CONTINUOUS
10
3.60447
20
-6.30503
11
3.6101
21
-6.29941
0
LINE
8
BLACK
6
CONTINUOUS
10
3.6101
20
-6.29941
11
3.62134
21
-6.29379
0
LINE
8
BLACK
6
CONTINUOUS
10
3.71133
20
-6.40065
11
3.71696
21
-6.40627
0
LINE
8
BLACK
6
CONTINUOUS
10
3.71696
20
-6.40627
11
3.71133
21
-6.4119
0
LINE
8
BLACK
6
CONTINUOUS
10
3.71133
20
-6.4119
11
3.70571
21
-6.40627
0
LINE
8
BLACK
6
CONTINUOUS
10
3.70571
20
-6.40627
11
3.71133
21
-6.40065
0
LINE
8
BLACK
6
CONTINUOUS
10
3.71133
20
-6.40065
11
3.71133
21
-6.4119
0
LINE
8
BLACK
6
CONTINUOUS
10
3.79007
20
-6.29379
11
3.80132
21
-6.29379
0
LINE
8
BLACK
6
CONTINUOUS
10
3.80132
20
-6.29379
11
3.81257
21
-6.29941
0
LINE
8
BLACK
6
CONTINUOUS
10
3.81257
20
-6.29941
11
3.81819
21
-6.30503
0
LINE
8
BLACK
6
CONTINUOUS
10
3.81819
20
-6.30503
11
3.82382
21
-6.31628
0
LINE
8
BLACK
6
CONTINUOUS
10
3.82382
20
-6.31628
11
3.82944
21
-6.33878
0
LINE
8
BLACK
6
CONTINUOUS
10
3.82944
20
-6.33878
11
3.82944
21
-6.3669
0
LINE
8
BLACK
6
CONTINUOUS
10
3.82944
20
-6.3669
11
3.82382
21
-6.3894
0
LINE
8
BLACK
6
CONTINUOUS
10
3.82382
20
-6.3894
11
3.81819
21
-6.40065
0
LINE
8
BLACK
6
CONTINUOUS
10
3.81819
20
-6.40065
11
3.81257
21
-6.40627
0
LINE
8
BLACK
6
CONTINUOUS
10
3.81257
20
-6.40627
11
3.80132
21
-6.4119
0
LINE
8
BLACK
6
CONTINUOUS
10
3.80132
20
-6.4119
11
3.79007
21
-6.4119
0
LINE
8
BLACK
6
CONTINUOUS
10
3.79007
20
-6.4119
11
3.77882
21
-6.40627
0
LINE
8
BLACK
6
CONTINUOUS
10
3.77882
20
-6.40627
11
3.7732
21
-6.40065
0
LINE
8
BLACK
6
CONTINUOUS
10
3.7732
20
-6.40065
11
3.76758
21
-6.3894
0
LINE
8
BLACK
6
CONTINUOUS
10
3.76758
20
-6.3894
11
3.76195
21
-6.3669
0
LINE
8
BLACK
6
CONTINUOUS
10
3.76195
20
-6.3669
11
3.76195
21
-6.33878
0
LINE
8
BLACK
6
CONTINUOUS
10
3.76195
20
-6.33878
11
3.76758
21
-6.31628
0
LINE
8
BLACK
6
CONTINUOUS
10
3.76758
20
-6.31628
11
3.7732
21
-6.30503
0
LINE
8
BLACK
6
CONTINUOUS
10
3.7732
20
-6.30503
11
3.77882
21
-6.29941
0
LINE
8
BLACK
6
CONTINUOUS
10
3.77882
20
-6.29941
11
3.79007
21
-6.29379
0
LINE
8
BLACK
6
CONTINUOUS
10
3.86881
20
-6.29379
11
3.94193
21
-6.29379
0
LINE
8
BLACK
6
CONTINUOUS
10
3.94193
20
-6.29379
11
3.90256
21
-6.33878
0
LINE
8
BLACK
6
CONTINUOUS
10
3.90256
20
-6.33878
11
3.91943
21
-6.33878
0
LINE
8
BLACK
6
CONTINUOUS
10
3.91943
20
-6.33878
11
3.93068
21
-6.3444
0
LINE
8
BLACK
6
CONTINUOUS
10
3.93068
20
-6.3444
11
3.9363
21
-6.35003
0
LINE
8
BLACK
6
CONTINUOUS
10
3.9363
20
-6.35003
11
3.94193
21
-6.36128
0
LINE
8
BLACK
6
CONTINUOUS
10
3.94193
20
-6.36128
11
3.94193
21
-6.3894
0
LINE
8
BLACK
6
CONTINUOUS
10
3.94193
20
-6.3894
11
3.9363
21
-6.40065
0
LINE
8
BLACK
6
CONTINUOUS
10
3.9363
20
-6.40065
11
3.93068
21
-6.40627
0
LINE
8
BLACK
6
CONTINUOUS
10
3.93068
20
-6.40627
11
3.91943
21
-6.4119
0
LINE
8
BLACK
6
CONTINUOUS
10
3.91943
20
-6.4119
11
3.88569
21
-6.4119
0
LINE
8
BLACK
6
CONTINUOUS
10
3.88569
20
-6.4119
11
3.87444
21
-6.40627
0
LINE
8
BLACK
6
CONTINUOUS
10
3.87444
20
-6.40627
11
3.86881
21
-6.40065
0
LINE
8
BLACK
6
CONTINUOUS
10
3.99817
20
-6.4119
11
4.02067
21
-6.4119
0
LINE
8
BLACK
6
CONTINUOUS
10
4.02067
20
-6.4119
11
4.03192
21
-6.40627
0
LINE
8
BLACK
6
CONTINUOUS
10
4.03192
20
-6.40627
11
4.03754
21
-6.40065
0
LINE
8
BLACK
6
CONTINUOUS
10
4.03754
20
-6.40065
11
4.04879
21
-6.38377
0
LINE
8
BLACK
6
CONTINUOUS
10
4.04879
20
-6.38377
11
4.05441
21
-6.36128
0
LINE
8
BLACK
6
CONTINUOUS
10
4.05441
20
-6.36128
11
4.05441
21
-6.31628
0
LINE
8
BLACK
6
CONTINUOUS
10
4.05441
20
-6.31628
11
4.04879
21
-6.30503
0
LINE
8
BLACK
6
CONTINUOUS
10
4.04879
20
-6.30503
11
4.04317
21
-6.29941
0
LINE
8
BLACK
6
CONTINUOUS
10
4.04317
20
-6.29941
11
4.03192
21
-6.29379
0
LINE
8
BLACK
6
CONTINUOUS
10
4.03192
20
-6.29379
11
4.00942
21
-6.29379
0
LINE
8
BLACK
6
CONTINUOUS
10
4.00942
20
-6.29379
11
3.99817
21
-6.29941
0
LINE
8
BLACK
6
CONTINUOUS
10
3.99817
20
-6.29941
11
3.99255
21
-6.30503
0
LINE
8
BLACK
6
CONTINUOUS
10
3.99255
20
-6.30503
11
3.98692
21
-6.31628
0
LINE
8
BLACK
6
CONTINUOUS
10
3.98692
20
-6.31628
11
3.98692
21
-6.3444
0
LINE
8
BLACK
6
CONTINUOUS
10
3.98692
20
-6.3444
11
3.99255
21
-6.35565
0
LINE
8
BLACK
6
CONTINUOUS
10
3.99255
20
-6.35565
11
3.99817
21
-6.36128
0
LINE
8
BLACK
6
CONTINUOUS
10
3.99817
20
-6.36128
11
4.00942
21
-6.3669
0
LINE
8
BLACK
6
CONTINUOUS
10
4.00942
20
-6.3669
11
4.03192
21
-6.3669
0
LINE
8
BLACK
6
CONTINUOUS
10
4.03192
20
-6.3669
11
4.04317
21
-6.36128
0
LINE
8
BLACK
6
CONTINUOUS
10
4.04317
20
-6.36128
11
4.04879
21
-6.35565
0
LINE
8
BLACK
6
CONTINUOUS
10
4.04879
20
-6.35565
11
4.05441
21
-6.3444
0
LINE
8
BLACK
6
CONTINUOUS
10
4.15565
20
-6.33316
11
4.15565
21
-6.4119
0
LINE
8
BLACK
6
CONTINUOUS
10
4.12753
20
-6.28816
11
4.09941
21
-6.37253
0
LINE
8
BLACK
6
CONTINUOUS
10
4.09941
20
-6.37253
11
4.17253
21
-6.37253
0
LINE
8
BLACK
6
CONTINUOUS
10
4.2119
20
-6.29379
11
4.2119
21
-6.31628
0
LINE
8
BLACK
6
CONTINUOUS
10
4.25689
20
-6.29379
11
4.25689
21
-6.31628
0
LINE
8
BLACK
6
CONTINUOUS
10
4.43124
20
-6.45689
11
4.42562
21
-6.45127
0
LINE
8
BLACK
6
CONTINUOUS
10
4.42562
20
-6.45127
11
4.41437
21
-6.43439
0
LINE
8
BLACK
6
CONTINUOUS
10
4.41437
20
-6.43439
11
4.40875
21
-6.42314
0
LINE
8
BLACK
6
CONTINUOUS
10
4.40875
20
-6.42314
11
4.40312
21
-6.40627
0
LINE
8
BLACK
6
CONTINUOUS
10
4.40312
20
-6.40627
11
4.3975
21
-6.37815
0
LINE
8
BLACK
6
CONTINUOUS
10
4.3975
20
-6.37815
11
4.3975
21
-6.35565
0
LINE
8
BLACK
6
CONTINUOUS
10
4.3975
20
-6.35565
11
4.40312
21
-6.32753
0
LINE
8
BLACK
6
CONTINUOUS
10
4.40312
20
-6.32753
11
4.40875
21
-6.31066
0
LINE
8
BLACK
6
CONTINUOUS
10
4.40875
20
-6.31066
11
4.41437
21
-6.29941
0
LINE
8
BLACK
6
CONTINUOUS
10
4.41437
20
-6.29941
11
4.42562
21
-6.28254
0
LINE
8
BLACK
6
CONTINUOUS
10
4.42562
20
-6.28254
11
4.43124
21
-6.27691
0
LINE
8
BLACK
6
CONTINUOUS
10
4.53248
20
-6.29379
11
4.47624
21
-6.29379
0
LINE
8
BLACK
6
CONTINUOUS
10
4.47624
20
-6.29379
11
4.47061
21
-6.35003
0
LINE
8
BLACK
6
CONTINUOUS
10
4.47061
20
-6.35003
11
4.47624
21
-6.3444
0
LINE
8
BLACK
6
CONTINUOUS
10
4.47624
20
-6.3444
11
4.48749
21
-6.33878
0
LINE
8
BLACK
6
CONTINUOUS
10
4.48749
20
-6.33878
11
4.51561
21
-6.33878
0
LINE
8
BLACK
6
CONTINUOUS
10
4.51561
20
-6.33878
11
4.52686
21
-6.3444
0
LINE
8
BLACK
6
CONTINUOUS
10
4.52686
20
-6.3444
11
4.53248
21
-6.35003
0
LINE
8
BLACK
6
CONTINUOUS
10
4.53248
20
-6.35003
11
4.5381
21
-6.36128
0
LINE
8
BLACK
6
CONTINUOUS
10
4.5381
20
-6.36128
11
4.5381
21
-6.3894
0
LINE
8
BLACK
6
CONTINUOUS
10
4.5381
20
-6.3894
11
4.53248
21
-6.40065
0
LINE
8
BLACK
6
CONTINUOUS
10
4.53248
20
-6.40065
11
4.52686
21
-6.40627
0
LINE
8
BLACK
6
CONTINUOUS
10
4.52686
20
-6.40627
11
4.51561
21
-6.4119
0
LINE
8
BLACK
6
CONTINUOUS
10
4.51561
20
-6.4119
11
4.48749
21
-6.4119
0
LINE
8
BLACK
6
CONTINUOUS
10
4.48749
20
-6.4119
11
4.47624
21
-6.40627
0
LINE
8
BLACK
6
CONTINUOUS
10
4.47624
20
-6.40627
11
4.47061
21
-6.40065
0
LINE
8
BLACK
6
CONTINUOUS
10
4.59435
20
-6.4119
11
4.61684
21
-6.4119
0
LINE
8
BLACK
6
CONTINUOUS
10
4.61684
20
-6.4119
11
4.62809
21
-6.40627
0
LINE
8
BLACK
6
CONTINUOUS
10
4.62809
20
-6.40627
11
4.63372
21
-6.40065
0
LINE
8
BLACK
6
CONTINUOUS
10
4.63372
20
-6.40065
11
4.64497
21
-6.38377
0
LINE
8
BLACK
6
CONTINUOUS
10
4.64497
20
-6.38377
11
4.65059
21
-6.36128
0
LINE
8
BLACK
6
CONTINUOUS
10
4.65059
20
-6.36128
11
4.65059
21
-6.31628
0
LINE
8
BLACK
6
CONTINUOUS
10
4.65059
20
-6.31628
11
4.64497
21
-6.30503
0
LINE
8
BLACK
6
CONTINUOUS
10
4.64497
20
-6.30503
11
4.63934
21
-6.29941
0
LINE
8
BLACK
6
CONTINUOUS
10
4.63934
20
-6.29941
11
4.62809
21
-6.29379
0
LINE
8
BLACK
6
CONTINUOUS
10
4.62809
20
-6.29379
11
4.6056
21
-6.29379
0
LINE
8
BLACK
6
CONTINUOUS
10
4.6056
20
-6.29379
11
4.59435
21
-6.29941
0
LINE
8
BLACK
6
CONTINUOUS
10
4.59435
20
-6.29941
11
4.58872
21
-6.30503
0
LINE
8
BLACK
6
CONTINUOUS
10
4.58872
20
-6.30503
11
4.5831
21
-6.31628
0
LINE
8
BLACK
6
CONTINUOUS
10
4.5831
20
-6.31628
11
4.5831
21
-6.3444
0
LINE
8
BLACK
6
CONTINUOUS
10
4.5831
20
-6.3444
11
4.58872
21
-6.35565
0
LINE
8
BLACK
6
CONTINUOUS
10
4.58872
20
-6.35565
11
4.59435
21
-6.36128
0
LINE
8
BLACK
6
CONTINUOUS
10
4.59435
20
-6.36128
11
4.6056
21
-6.3669
0
LINE
8
BLACK
6
CONTINUOUS
10
4.6056
20
-6.3669
11
4.62809
21
-6.3669
0
LINE
8
BLACK
6
CONTINUOUS
10
4.62809
20
-6.3669
11
4.63934
21
-6.36128
0
LINE
8
BLACK
6
CONTINUOUS
10
4.63934
20
-6.36128
11
4.64497
21
-6.35565
0
LINE
8
BLACK
6
CONTINUOUS
10
4.64497
20
-6.35565
11
4.65059
21
-6.3444
0
LINE
8
BLACK
6
CONTINUOUS
10
4.7912
20
-6.4119
11
4.7912
21
-6.29379
0
LINE
8
BLACK
6
CONTINUOUS
10
4.84182
20
-6.4119
11
4.84182
21
-6.35003
0
LINE
8
BLACK
6
CONTINUOUS
10
4.84182
20
-6.35003
11
4.83619
21
-6.33878
0
LINE
8
BLACK
6
CONTINUOUS
10
4.83619
20
-6.33878
11
4.82494
21
-6.33316
0
LINE
8
BLACK
6
CONTINUOUS
10
4.82494
20
-6.33316
11
4.80807
21
-6.33316
0
LINE
8
BLACK
6
CONTINUOUS
10
4.80807
20
-6.33316
11
4.79682
21
-6.33878
0
LINE
8
BLACK
6
CONTINUOUS
10
4.79682
20
-6.33878
11
4.7912
21
-6.3444
0
LINE
8
BLACK
6
CONTINUOUS
10
4.91493
20
-6.4119
11
4.90368
21
-6.40627
0
LINE
8
BLACK
6
CONTINUOUS
10
4.90368
20
-6.40627
11
4.89806
21
-6.40065
0
LINE
8
BLACK
6
CONTINUOUS
10
4.89806
20
-6.40065
11
4.89244
21
-6.3894
0
LINE
8
BLACK
6
CONTINUOUS
10
4.89244
20
-6.3894
11
4.89244
21
-6.35565
0
LINE
8
BLACK
6
CONTINUOUS
10
4.89244
20
-6.35565
11
4.89806
21
-6.3444
0
LINE
8
BLACK
6
CONTINUOUS
10
4.89806
20
-6.3444
11
4.90368
21
-6.33878
0
LINE
8
BLACK
6
CONTINUOUS
10
4.90368
20
-6.33878
11
4.91493
21
-6.33316
0
LINE
8
BLACK
6
CONTINUOUS
10
4.91493
20
-6.33316
11
4.93181
21
-6.33316
0
LINE
8
BLACK
6
CONTINUOUS
10
4.93181
20
-6.33316
11
4.94305
21
-6.33878
0
LINE
8
BLACK
6
CONTINUOUS
10
4.94305
20
-6.33878
11
4.94868
21
-6.3444
0
LINE
8
BLACK
6
CONTINUOUS
10
4.94868
20
-6.3444
11
4.9543
21
-6.35565
0
LINE
8
BLACK
6
CONTINUOUS
10
4.9543
20
-6.35565
11
4.9543
21
-6.3894
0
LINE
8
BLACK
6
CONTINUOUS
10
4.9543
20
-6.3894
11
4.94868
21
-6.40065
0
LINE
8
BLACK
6
CONTINUOUS
10
4.94868
20
-6.40065
11
4.94305
21
-6.40627
0
LINE
8
BLACK
6
CONTINUOUS
10
4.94305
20
-6.40627
11
4.93181
21
-6.4119
0
LINE
8
BLACK
6
CONTINUOUS
10
4.93181
20
-6.4119
11
4.91493
21
-6.4119
0
LINE
8
BLACK
6
CONTINUOUS
10
5.02179
20
-6.4119
11
5.01055
21
-6.40627
0
LINE
8
BLACK
6
CONTINUOUS
10
5.01055
20
-6.40627
11
5.00492
21
-6.39502
0
LINE
8
BLACK
6
CONTINUOUS
10
5.00492
20
-6.39502
11
5.00492
21
-6.29379
0
LINE
8
BLACK
6
CONTINUOUS
10
5.11178
20
-6.40627
11
5.10053
21
-6.4119
0
LINE
8
BLACK
6
CONTINUOUS
10
5.10053
20
-6.4119
11
5.07804
21
-6.4119
0
LINE
8
BLACK
6
CONTINUOUS
10
5.07804
20
-6.4119
11
5.06679
21
-6.40627
0
LINE
8
BLACK
6
CONTINUOUS
10
5.06679
20
-6.40627
11
5.06116
21
-6.39502
0
LINE
8
BLACK
6
CONTINUOUS
10
5.06116
20
-6.39502
11
5.06116
21
-6.35003
0
LINE
8
BLACK
6
CONTINUOUS
10
5.06116
20
-6.35003
11
5.06679
21
-6.33878
0
LINE
8
BLACK
6
CONTINUOUS
10
5.06679
20
-6.33878
11
5.07804
21
-6.33316
0
LINE
8
BLACK
6
CONTINUOUS
10
5.07804
20
-6.33316
11
5.10053
21
-6.33316
0
LINE
8
BLACK
6
CONTINUOUS
10
5.10053
20
-6.33316
11
5.11178
21
-6.33878
0
LINE
8
BLACK
6
CONTINUOUS
10
5.11178
20
-6.33878
11
5.11741
21
-6.35003
0
LINE
8
BLACK
6
CONTINUOUS
10
5.11741
20
-6.35003
11
5.11741
21
-6.36128
0
LINE
8
BLACK
6
CONTINUOUS
10
5.11741
20
-6.36128
11
5.06116
21
-6.37253
0
LINE
8
BLACK
6
CONTINUOUS
10
5.1624
20
-6.40627
11
5.17365
21
-6.4119
0
LINE
8
BLACK
6
CONTINUOUS
10
5.17365
20
-6.4119
11
5.19615
21
-6.4119
0
LINE
8
BLACK
6
CONTINUOUS
10
5.19615
20
-6.4119
11
5.2074
21
-6.40627
0
LINE
8
BLACK
6
CONTINUOUS
10
5.2074
20
-6.40627
11
5.21302
21
-6.39502
0
LINE
8
BLACK
6
CONTINUOUS
10
5.21302
20
-6.39502
11
5.21302
21
-6.3894
0
LINE
8
BLACK
6
CONTINUOUS
10
5.21302
20
-6.3894
11
5.2074
21
-6.37815
0
LINE
8
BLACK
6
CONTINUOUS
10
5.2074
20
-6.37815
11
5.19615
21
-6.37253
0
LINE
8
BLACK
6
CONTINUOUS
10
5.19615
20
-6.37253
11
5.17927
21
-6.37253
0
LINE
8
BLACK
6
CONTINUOUS
10
5.17927
20
-6.37253
11
5.16803
21
-6.3669
0
LINE
8
BLACK
6
CONTINUOUS
10
5.16803
20
-6.3669
11
5.1624
21
-6.35565
0
LINE
8
BLACK
6
CONTINUOUS
10
5.1624
20
-6.35565
11
5.1624
21
-6.35003
0
LINE
8
BLACK
6
CONTINUOUS
10
5.1624
20
-6.35003
11
5.16803
21
-6.33878
0
LINE
8
BLACK
6
CONTINUOUS
10
5.16803
20
-6.33878
11
5.17927
21
-6.33316
0
LINE
8
BLACK
6
CONTINUOUS
10
5.17927
20
-6.33316
11
5.19615
21
-6.33316
0
LINE
8
BLACK
6
CONTINUOUS
10
5.19615
20
-6.33316
11
5.2074
21
-6.33878
0
LINE
8
BLACK
6
CONTINUOUS
10
5.35363
20
-6.3669
11
5.44362
21
-6.3669
0
LINE
8
BLACK
6
CONTINUOUS
10
5.39862
20
-6.4119
11
5.39862
21
-6.32191
0
LINE
8
BLACK
6
CONTINUOUS
10
5.64047
20
-6.29379
11
5.61797
21
-6.29379
0
LINE
8
BLACK
6
CONTINUOUS
10
5.61797
20
-6.29379
11
5.60672
21
-6.29941
0
LINE
8
BLACK
6
CONTINUOUS
10
5.60672
20
-6.29941
11
5.6011
21
-6.30503
0
LINE
8
BLACK
6
CONTINUOUS
10
5.6011
20
-6.30503
11
5.58985
21
-6.32191
0
LINE
8
BLACK
6
CONTINUOUS
10
5.58985
20
-6.32191
11
5.58422
21
-6.3444
0
LINE
8
BLACK
6
CONTINUOUS
10
5.58422
20
-6.3444
11
5.58422
21
-6.3894
0
LINE
8
BLACK
6
CONTINUOUS
10
5.58422
20
-6.3894
11
5.58985
21
-6.40065
0
LINE
8
BLACK
6
CONTINUOUS
10
5.58985
20
-6.40065
11
5.59547
21
-6.40627
0
LINE
8
BLACK
6
CONTINUOUS
10
5.59547
20
-6.40627
11
5.60672
21
-6.4119
0
LINE
8
BLACK
6
CONTINUOUS
10
5.60672
20
-6.4119
11
5.62922
21
-6.4119
0
LINE
8
BLACK
6
CONTINUOUS
10
5.62922
20
-6.4119
11
5.64047
21
-6.40627
0
LINE
8
BLACK
6
CONTINUOUS
10
5.64047
20
-6.40627
11
5.64609
21
-6.40065
0
LINE
8
BLACK
6
CONTINUOUS
10
5.64609
20
-6.40065
11
5.65172
21
-6.3894
0
LINE
8
BLACK
6
CONTINUOUS
10
5.65172
20
-6.3894
11
5.65172
21
-6.36128
0
LINE
8
BLACK
6
CONTINUOUS
10
5.65172
20
-6.36128
11
5.64609
21
-6.35003
0
LINE
8
BLACK
6
CONTINUOUS
10
5.64609
20
-6.35003
11
5.64047
21
-6.3444
0
LINE
8
BLACK
6
CONTINUOUS
10
5.64047
20
-6.3444
11
5.62922
21
-6.33878
0
LINE
8
BLACK
6
CONTINUOUS
10
5.62922
20
-6.33878
11
5.60672
21
-6.33878
0
LINE
8
BLACK
6
CONTINUOUS
10
5.60672
20
-6.33878
11
5.59547
21
-6.3444
0
LINE
8
BLACK
6
CONTINUOUS
10
5.59547
20
-6.3444
11
5.58985
21
-6.35003
0
LINE
8
BLACK
6
CONTINUOUS
10
5.58985
20
-6.35003
11
5.58422
21
-6.36128
0
LINE
8
BLACK
6
CONTINUOUS
10
5.7867
20
-6.40627
11
5.79795
21
-6.4119
0
LINE
8
BLACK
6
CONTINUOUS
10
5.79795
20
-6.4119
11
5.82044
21
-6.4119
0
LINE
8
BLACK
6
CONTINUOUS
10
5.82044
20
-6.4119
11
5.83169
21
-6.40627
0
LINE
8
BLACK
6
CONTINUOUS
10
5.83169
20
-6.40627
11
5.83732
21
-6.39502
0
LINE
8
BLACK
6
CONTINUOUS
10
5.83732
20
-6.39502
11
5.83732
21
-6.3894
0
LINE
8
BLACK
6
CONTINUOUS
10
5.83732
20
-6.3894
11
5.83169
21
-6.37815
0
LINE
8
BLACK
6
CONTINUOUS
10
5.83169
20
-6.37815
11
5.82044
21
-6.37253
0
LINE
8
BLACK
6
CONTINUOUS
10
5.82044
20
-6.37253
11
5.80357
21
-6.37253
0
LINE
8
BLACK
6
CONTINUOUS
10
5.80357
20
-6.37253
11
5.79232
21
-6.3669
0
LINE
8
BLACK
6
CONTINUOUS
10
5.79232
20
-6.3669
11
5.7867
21
-6.35565
0
LINE
8
BLACK
6
CONTINUOUS
10
5.7867
20
-6.35565
11
5.7867
21
-6.35003
0
LINE
8
BLACK
6
CONTINUOUS
10
5.7867
20
-6.35003
11
5.79232
21
-6.33878
0
LINE
8
BLACK
6
CONTINUOUS
10
5.79232
20
-6.33878
11
5.80357
21
-6.33316
0
LINE
8
BLACK
6
CONTINUOUS
10
5.80357
20
-6.33316
11
5.82044
21
-6.33316
0
LINE
8
BLACK
6
CONTINUOUS
10
5.82044
20
-6.33316
11
5.83169
21
-6.33878
0
LINE
8
BLACK
6
CONTINUOUS
10
5.90481
20
-6.4119
11
5.89356
21
-6.40627
0
LINE
8
BLACK
6
CONTINUOUS
10
5.89356
20
-6.40627
11
5.88794
21
-6.39502
0
LINE
8
BLACK
6
CONTINUOUS
10
5.88794
20
-6.39502
11
5.88794
21
-6.29379
0
LINE
8
BLACK
6
CONTINUOUS
10
5.96668
20
-6.4119
11
5.95543
21
-6.40627
0
LINE
8
BLACK
6
CONTINUOUS
10
5.95543
20
-6.40627
11
5.9498
21
-6.40065
0
LINE
8
BLACK
6
CONTINUOUS
10
5.9498
20
-6.40065
11
5.94418
21
-6.3894
0
LINE
8
BLACK
6
CONTINUOUS
10
5.94418
20
-6.3894
11
5.94418
21
-6.35565
0
LINE
8
BLACK
6
CONTINUOUS
10
5.94418
20
-6.35565
11
5.9498
21
-6.3444
0
LINE
8
BLACK
6
CONTINUOUS
10
5.9498
20
-6.3444
11
5.95543
21
-6.33878
0
LINE
8
BLACK
6
CONTINUOUS
10
5.95543
20
-6.33878
11
5.96668
21
-6.33316
0
LINE
8
BLACK
6
CONTINUOUS
10
5.96668
20
-6.33316
11
5.98355
21
-6.33316
0
LINE
8
BLACK
6
CONTINUOUS
10
5.98355
20
-6.33316
11
5.9948
21
-6.33878
0
LINE
8
BLACK
6
CONTINUOUS
10
5.9948
20
-6.33878
11
6.00042
21
-6.3444
0
LINE
8
BLACK
6
CONTINUOUS
10
6.00042
20
-6.3444
11
6.00605
21
-6.35565
0
LINE
8
BLACK
6
CONTINUOUS
10
6.00605
20
-6.35565
11
6.00605
21
-6.3894
0
LINE
8
BLACK
6
CONTINUOUS
10
6.00605
20
-6.3894
11
6.00042
21
-6.40065
0
LINE
8
BLACK
6
CONTINUOUS
10
6.00042
20
-6.40065
11
5.9948
21
-6.40627
0
LINE
8
BLACK
6
CONTINUOUS
10
5.9948
20
-6.40627
11
5.98355
21
-6.4119
0
LINE
8
BLACK
6
CONTINUOUS
10
5.98355
20
-6.4119
11
5.96668
21
-6.4119
0
LINE
8
BLACK
6
CONTINUOUS
10
6.03979
20
-6.33316
11
6.08479
21
-6.33316
0
LINE
8
BLACK
6
CONTINUOUS
10
6.05666
20
-6.29379
11
6.05666
21
-6.39502
0
LINE
8
BLACK
6
CONTINUOUS
10
6.05666
20
-6.39502
11
6.06229
21
-6.40627
0
LINE
8
BLACK
6
CONTINUOUS
10
6.06229
20
-6.40627
11
6.07354
21
-6.4119
0
LINE
8
BLACK
6
CONTINUOUS
10
6.07354
20
-6.4119
11
6.08479
21
-6.4119
0
LINE
8
BLACK
6
CONTINUOUS
10
6.11853
20
-6.40627
11
6.12978
21
-6.4119
0
LINE
8
BLACK
6
CONTINUOUS
10
6.12978
20
-6.4119
11
6.15228
21
-6.4119
0
LINE
8
BLACK
6
CONTINUOUS
10
6.15228
20
-6.4119
11
6.16353
21
-6.40627
0
LINE
8
BLACK
6
CONTINUOUS
10
6.16353
20
-6.40627
11
6.16915
21
-6.39502
0
LINE
8
BLACK
6
CONTINUOUS
10
6.16915
20
-6.39502
11
6.16915
21
-6.3894
0
LINE
8
BLACK
6
CONTINUOUS
10
6.16915
20
-6.3894
11
6.16353
21
-6.37815
0
LINE
8
BLACK
6
CONTINUOUS
10
6.16353
20
-6.37815
11
6.15228
21
-6.37253
0
LINE
8
BLACK
6
CONTINUOUS
10
6.15228
20
-6.37253
11
6.1354
21
-6.37253
0
LINE
8
BLACK
6
CONTINUOUS
10
6.1354
20
-6.37253
11
6.12416
21
-6.3669
0
LINE
8
BLACK
6
CONTINUOUS
10
6.12416
20
-6.3669
11
6.11853
21
-6.35565
0
LINE
8
BLACK
6
CONTINUOUS
10
6.11853
20
-6.35565
11
6.11853
21
-6.35003
0
LINE
8
BLACK
6
CONTINUOUS
10
6.11853
20
-6.35003
11
6.12416
21
-6.33878
0
LINE
8
BLACK
6
CONTINUOUS
10
6.12416
20
-6.33878
11
6.1354
21
-6.33316
0
LINE
8
BLACK
6
CONTINUOUS
10
6.1354
20
-6.33316
11
6.15228
21
-6.33316
0
LINE
8
BLACK
6
CONTINUOUS
10
6.15228
20
-6.33316
11
6.16353
21
-6.33878
0
LINE
8
BLACK
6
CONTINUOUS
10
6.20852
20
-6.45689
11
6.21415
21
-6.45127
0
LINE
8
BLACK
6
CONTINUOUS
10
6.21415
20
-6.45127
11
6.22539
21
-6.43439
0
LINE
8
BLACK
6
CONTINUOUS
10
6.22539
20
-6.43439
11
6.23102
21
-6.42314
0
LINE
8
BLACK
6
CONTINUOUS
10
6.23102
20
-6.42314
11
6.23664
21
-6.40627
0
LINE
8
BLACK
6
CONTINUOUS
10
6.23664
20
-6.40627
11
6.24227
21
-6.37815
0
LINE
8
BLACK
6
CONTINUOUS
10
6.24227
20
-6.37815
11
6.24227
21
-6.35565
0
LINE
8
BLACK
6
CONTINUOUS
10
6.24227
20
-6.35565
11
6.23664
21
-6.32753
0
LINE
8
BLACK
6
CONTINUOUS
10
6.23664
20
-6.32753
11
6.23102
21
-6.31066
0
LINE
8
BLACK
6
CONTINUOUS
10
6.23102
20
-6.31066
11
6.22539
21
-6.29941
0
LINE
8
BLACK
6
CONTINUOUS
10
6.22539
20
-6.29941
11
6.21415
21
-6.28254
0
LINE
8
BLACK
6
CONTINUOUS
10
6.21415
20
-6.28254
11
6.20852
21
-6.27691
0
LINE
8
BLACK
6
CONTINUOUS
10
2.33957
20
-6.53602
11
2.36122
21
-6.51437
0
LINE
8
BLACK
6
CONTINUOUS
10
2.36122
20
-6.51437
11
2.33957
21
-6.49272
0
LINE
8
BLACK
6
CONTINUOUS
10
2.33957
20
-6.49272
11
2.31791
21
-6.51437
0
LINE
8
BLACK
6
CONTINUOUS
10
2.31791
20
-6.51437
11
2.33957
21
-6.53602
0
LINE
8
BLACK
6
CONTINUOUS
10
2.53585
20
-6.5678
11
2.46836
21
-6.5678
0
LINE
8
BLACK
6
CONTINUOUS
10
2.50211
20
-6.5678
11
2.50211
21
-6.44969
0
LINE
8
BLACK
6
CONTINUOUS
10
2.50211
20
-6.44969
11
2.49086
21
-6.46656
0
LINE
8
BLACK
6
CONTINUOUS
10
2.49086
20
-6.46656
11
2.47961
21
-6.47781
0
LINE
8
BLACK
6
CONTINUOUS
10
2.47961
20
-6.47781
11
2.46836
21
-6.48344
0
LINE
8
BLACK
6
CONTINUOUS
10
2.58647
20
-6.55655
11
2.5921
21
-6.56218
0
LINE
8
BLACK
6
CONTINUOUS
10
2.5921
20
-6.56218
11
2.58647
21
-6.5678
0
LINE
8
BLACK
6
CONTINUOUS
10
2.58647
20
-6.5678
11
2.58085
21
-6.56218
0
LINE
8
BLACK
6
CONTINUOUS
10
2.58085
20
-6.56218
11
2.58647
21
-6.55655
0
LINE
8
BLACK
6
CONTINUOUS
10
2.58647
20
-6.55655
11
2.58647
21
-6.5678
0
LINE
8
BLACK
6
CONTINUOUS
10
2.70458
20
-6.5678
11
2.63709
21
-6.5678
0
LINE
8
BLACK
6
CONTINUOUS
10
2.67084
20
-6.5678
11
2.67084
21
-6.44969
0
LINE
8
BLACK
6
CONTINUOUS
10
2.67084
20
-6.44969
11
2.65959
21
-6.46656
0
LINE
8
BLACK
6
CONTINUOUS
10
2.65959
20
-6.46656
11
2.64834
21
-6.47781
0
LINE
8
BLACK
6
CONTINUOUS
10
2.64834
20
-6.47781
11
2.63709
21
-6.48344
0
LINE
8
BLACK
6
CONTINUOUS
10
2.7777
20
-6.44969
11
2.78895
21
-6.44969
0
LINE
8
BLACK
6
CONTINUOUS
10
2.78895
20
-6.44969
11
2.8002
21
-6.45531
0
LINE
8
BLACK
6
CONTINUOUS
10
2.8002
20
-6.45531
11
2.80582
21
-6.46094
0
LINE
8
BLACK
6
CONTINUOUS
10
2.80582
20
-6.46094
11
2.81145
21
-6.47219
0
LINE
8
BLACK
6
CONTINUOUS
10
2.81145
20
-6.47219
11
2.81707
21
-6.49469
0
LINE
8
BLACK
6
CONTINUOUS
10
2.81707
20
-6.49469
11
2.81707
21
-6.52281
0
LINE
8
BLACK
6
CONTINUOUS
10
2.81707
20
-6.52281
11
2.81145
21
-6.5453
0
LINE
8
BLACK
6
CONTINUOUS
10
2.81145
20
-6.5453
11
2.80582
21
-6.55655
0
LINE
8
BLACK
6
CONTINUOUS
10
2.80582
20
-6.55655
11
2.8002
21
-6.56218
0
LINE
8
BLACK
6
CONTINUOUS
10
2.8002
20
-6.56218
11
2.78895
21
-6.5678
0
LINE
8
BLACK
6
CONTINUOUS
10
2.78895
20
-6.5678
11
2.7777
21
-6.5678
0
LINE
8
BLACK
6
CONTINUOUS
10
2.7777
20
-6.5678
11
2.76645
21
-6.56218
0
LINE
8
BLACK
6
CONTINUOUS
10
2.76645
20
-6.56218
11
2.76083
21
-6.55655
0
LINE
8
BLACK
6
CONTINUOUS
10
2.76083
20
-6.55655
11
2.7552
21
-6.5453
0
LINE
8
BLACK
6
CONTINUOUS
10
2.7552
20
-6.5453
11
2.74958
21
-6.52281
0
LINE
8
BLACK
6
CONTINUOUS
10
2.74958
20
-6.52281
11
2.74958
21
-6.49469
0
LINE
8
BLACK
6
CONTINUOUS
10
2.74958
20
-6.49469
11
2.7552
21
-6.47219
0
LINE
8
BLACK
6
CONTINUOUS
10
2.7552
20
-6.47219
11
2.76083
21
-6.46094
0
LINE
8
BLACK
6
CONTINUOUS
10
2.76083
20
-6.46094
11
2.76645
21
-6.45531
0
LINE
8
BLACK
6
CONTINUOUS
10
2.76645
20
-6.45531
11
2.7777
21
-6.44969
0
LINE
8
BLACK
6
CONTINUOUS
10
2.89019
20
-6.44969
11
2.90143
21
-6.44969
0
LINE
8
BLACK
6
CONTINUOUS
10
2.90143
20
-6.44969
11
2.91268
21
-6.45531
0
LINE
8
BLACK
6
CONTINUOUS
10
2.91268
20
-6.45531
11
2.91831
21
-6.46094
0
LINE
8
BLACK
6
CONTINUOUS
10
2.91831
20
-6.46094
11
2.92393
21
-6.47219
0
LINE
8
BLACK
6
CONTINUOUS
10
2.92393
20
-6.47219
11
2.92956
21
-6.49469
0
LINE
8
BLACK
6
CONTINUOUS
10
2.92956
20
-6.49469
11
2.92956
21
-6.52281
0
LINE
8
BLACK
6
CONTINUOUS
10
2.92956
20
-6.52281
11
2.92393
21
-6.5453
0
LINE
8
BLACK
6
CONTINUOUS
10
2.92393
20
-6.5453
11
2.91831
21
-6.55655
0
LINE
8
BLACK
6
CONTINUOUS
10
2.91831
20
-6.55655
11
2.91268
21
-6.56218
0
LINE
8
BLACK
6
CONTINUOUS
10
2.91268
20
-6.56218
11
2.90143
21
-6.5678
0
LINE
8
BLACK
6
CONTINUOUS
10
2.90143
20
-6.5678
11
2.89019
21
-6.5678
0
LINE
8
BLACK
6
CONTINUOUS
10
2.89019
20
-6.5678
11
2.87894
21
-6.56218
0
LINE
8
BLACK
6
CONTINUOUS
10
2.87894
20
-6.56218
11
2.87331
21
-6.55655
0
LINE
8
BLACK
6
CONTINUOUS
10
2.87331
20
-6.55655
11
2.86769
21
-6.5453
0
LINE
8
BLACK
6
CONTINUOUS
10
2.86769
20
-6.5453
11
2.86206
21
-6.52281
0
LINE
8
BLACK
6
CONTINUOUS
10
2.86206
20
-6.52281
11
2.86206
21
-6.49469
0
LINE
8
BLACK
6
CONTINUOUS
10
2.86206
20
-6.49469
11
2.86769
21
-6.47219
0
LINE
8
BLACK
6
CONTINUOUS
10
2.86769
20
-6.47219
11
2.87331
21
-6.46094
0
LINE
8
BLACK
6
CONTINUOUS
10
2.87331
20
-6.46094
11
2.87894
21
-6.45531
0
LINE
8
BLACK
6
CONTINUOUS
10
2.87894
20
-6.45531
11
2.89019
21
-6.44969
0
LINE
8
BLACK
6
CONTINUOUS
10
2.98017
20
-6.5678
11
2.98017
21
-6.48906
0
LINE
8
BLACK
6
CONTINUOUS
10
2.98017
20
-6.50031
11
2.9858
21
-6.49469
0
LINE
8
BLACK
6
CONTINUOUS
10
2.9858
20
-6.49469
11
2.99705
21
-6.48906
0
LINE
8
BLACK
6
CONTINUOUS
10
2.99705
20
-6.48906
11
3.01392
21
-6.48906
0
LINE
8
BLACK
6
CONTINUOUS
10
3.01392
20
-6.48906
11
3.02517
21
-6.49469
0
LINE
8
BLACK
6
CONTINUOUS
10
3.02517
20
-6.49469
11
3.03079
21
-6.50593
0
LINE
8
BLACK
6
CONTINUOUS
10
3.03079
20
-6.50593
11
3.03079
21
-6.5678
0
LINE
8
BLACK
6
CONTINUOUS
10
3.03079
20
-6.50593
11
3.03642
21
-6.49469
0
LINE
8
BLACK
6
CONTINUOUS
10
3.03642
20
-6.49469
11
3.04767
21
-6.48906
0
LINE
8
BLACK
6
CONTINUOUS
10
3.04767
20
-6.48906
11
3.06454
21
-6.48906
0
LINE
8
BLACK
6
CONTINUOUS
10
3.06454
20
-6.48906
11
3.07579
21
-6.49469
0
LINE
8
BLACK
6
CONTINUOUS
10
3.07579
20
-6.49469
11
3.08141
21
-6.50593
0
LINE
8
BLACK
6
CONTINUOUS
10
3.08141
20
-6.50593
11
3.08141
21
-6.5678
0
LINE
8
BLACK
6
CONTINUOUS
10
3.13765
20
-6.5678
11
3.13765
21
-6.48906
0
LINE
8
BLACK
6
CONTINUOUS
10
3.13765
20
-6.50031
11
3.14328
21
-6.49469
0
LINE
8
BLACK
6
CONTINUOUS
10
3.14328
20
-6.49469
11
3.15453
21
-6.48906
0
LINE
8
BLACK
6
CONTINUOUS
10
3.15453
20
-6.48906
11
3.1714
21
-6.48906
0
LINE
8
BLACK
6
CONTINUOUS
10
3.1714
20
-6.48906
11
3.18265
21
-6.49469
0
LINE
8
BLACK
6
CONTINUOUS
10
3.18265
20
-6.49469
11
3.18827
21
-6.50593
0
LINE
8
BLACK
6
CONTINUOUS
10
3.18827
20
-6.50593
11
3.18827
21
-6.5678
0
LINE
8
BLACK
6
CONTINUOUS
10
3.18827
20
-6.50593
11
3.1939
21
-6.49469
0
LINE
8
BLACK
6
CONTINUOUS
10
3.1939
20
-6.49469
11
3.20515
21
-6.48906
0
LINE
8
BLACK
6
CONTINUOUS
10
3.20515
20
-6.48906
11
3.22202
21
-6.48906
0
LINE
8
BLACK
6
CONTINUOUS
10
3.22202
20
-6.48906
11
3.23327
21
-6.49469
0
LINE
8
BLACK
6
CONTINUOUS
10
3.23327
20
-6.49469
11
3.23889
21
-6.50593
0
LINE
8
BLACK
6
CONTINUOUS
10
3.23889
20
-6.50593
11
3.23889
21
-6.5678
0
LINE
8
BLACK
6
CONTINUOUS
10
3.46949
20
-6.44407
11
3.36825
21
-6.59592
0
LINE
8
BLACK
6
CONTINUOUS
10
3.62134
20
-6.44969
11
3.63259
21
-6.44969
0
LINE
8
BLACK
6
CONTINUOUS
10
3.63259
20
-6.44969
11
3.64384
21
-6.45531
0
LINE
8
BLACK
6
CONTINUOUS
10
3.64384
20
-6.45531
11
3.64947
21
-6.46094
0
LINE
8
BLACK
6
CONTINUOUS
10
3.64947
20
-6.46094
11
3.65509
21
-6.47219
0
LINE
8
BLACK
6
CONTINUOUS
10
3.65509
20
-6.47219
11
3.66071
21
-6.49469
0
LINE
8
BLACK
6
CONTINUOUS
10
3.66071
20
-6.49469
11
3.66071
21
-6.52281
0
LINE
8
BLACK
6
CONTINUOUS
10
3.66071
20
-6.52281
11
3.65509
21
-6.5453
0
LINE
8
BLACK
6
CONTINUOUS
10
3.65509
20
-6.5453
11
3.64947
21
-6.55655
0
LINE
8
BLACK
6
CONTINUOUS
10
3.64947
20
-6.55655
11
3.64384
21
-6.56218
0
LINE
8
BLACK
6
CONTINUOUS
10
3.64384
20
-6.56218
11
3.63259
21
-6.5678
0
LINE
8
BLACK
6
CONTINUOUS
10
3.63259
20
-6.5678
11
3.62134
21
-6.5678
0
LINE
8
BLACK
6
CONTINUOUS
10
3.62134
20
-6.5678
11
3.6101
21
-6.56218
0
LINE
8
BLACK
6
CONTINUOUS
10
3.6101
20
-6.56218
11
3.60447
21
-6.55655
0
LINE
8
BLACK
6
CONTINUOUS
10
3.60447
20
-6.55655
11
3.59885
21
-6.5453
0
LINE
8
BLACK
6
CONTINUOUS
10
3.59885
20
-6.5453
11
3.59322
21
-6.52281
0
LINE
8
BLACK
6
CONTINUOUS
10
3.59322
20
-6.52281
11
3.59322
21
-6.49469
0
LINE
8
BLACK
6
CONTINUOUS
10
3.59322
20
-6.49469
11
3.59885
21
-6.47219
0
LINE
8
BLACK
6
CONTINUOUS
10
3.59885
20
-6.47219
11
3.60447
21
-6.46094
0
LINE
8
BLACK
6
CONTINUOUS
10
3.60447
20
-6.46094
11
3.6101
21
-6.45531
0
LINE
8
BLACK
6
CONTINUOUS
10
3.6101
20
-6.45531
11
3.62134
21
-6.44969
0
LINE
8
BLACK
6
CONTINUOUS
10
3.71133
20
-6.55655
11
3.71696
21
-6.56218
0
LINE
8
BLACK
6
CONTINUOUS
10
3.71696
20
-6.56218
11
3.71133
21
-6.5678
0
LINE
8
BLACK
6
CONTINUOUS
10
3.71133
20
-6.5678
11
3.70571
21
-6.56218
0
LINE
8
BLACK
6
CONTINUOUS
10
3.70571
20
-6.56218
11
3.71133
21
-6.55655
0
LINE
8
BLACK
6
CONTINUOUS
10
3.71133
20
-6.55655
11
3.71133
21
-6.5678
0
LINE
8
BLACK
6
CONTINUOUS
10
3.79007
20
-6.44969
11
3.80132
21
-6.44969
0
LINE
8
BLACK
6
CONTINUOUS
10
3.80132
20
-6.44969
11
3.81257
21
-6.45531
0
LINE
8
BLACK
6
CONTINUOUS
10
3.81257
20
-6.45531
11
3.81819
21
-6.46094
0
LINE
8
BLACK
6
CONTINUOUS
10
3.81819
20
-6.46094
11
3.82382
21
-6.47219
0
LINE
8
BLACK
6
CONTINUOUS
10
3.82382
20
-6.47219
11
3.82944
21
-6.49469
0
LINE
8
BLACK
6
CONTINUOUS
10
3.82944
20
-6.49469
11
3.82944
21
-6.52281
0
LINE
8
BLACK
6
CONTINUOUS
10
3.82944
20
-6.52281
11
3.82382
21
-6.5453
0
LINE
8
BLACK
6
CONTINUOUS
10
3.82382
20
-6.5453
11
3.81819
21
-6.55655
0
LINE
8
BLACK
6
CONTINUOUS
10
3.81819
20
-6.55655
11
3.81257
21
-6.56218
0
LINE
8
BLACK
6
CONTINUOUS
10
3.81257
20
-6.56218
11
3.80132
21
-6.5678
0
LINE
8
BLACK
6
CONTINUOUS
10
3.80132
20
-6.5678
11
3.79007
21
-6.5678
0
LINE
8
BLACK
6
CONTINUOUS
10
3.79007
20
-6.5678
11
3.77882
21
-6.56218
0
LINE
8
BLACK
6
CONTINUOUS
10
3.77882
20
-6.56218
11
3.7732
21
-6.55655
0
LINE
8
BLACK
6
CONTINUOUS
10
3.7732
20
-6.55655
11
3.76758
21
-6.5453
0
LINE
8
BLACK
6
CONTINUOUS
10
3.76758
20
-6.5453
11
3.76195
21
-6.52281
0
LINE
8
BLACK
6
CONTINUOUS
10
3.76195
20
-6.52281
11
3.76195
21
-6.49469
0
LINE
8
BLACK
6
CONTINUOUS
10
3.76195
20
-6.49469
11
3.76758
21
-6.47219
0
LINE
8
BLACK
6
CONTINUOUS
10
3.76758
20
-6.47219
11
3.7732
21
-6.46094
0
LINE
8
BLACK
6
CONTINUOUS
10
3.7732
20
-6.46094
11
3.77882
21
-6.45531
0
LINE
8
BLACK
6
CONTINUOUS
10
3.77882
20
-6.45531
11
3.79007
21
-6.44969
0
LINE
8
BLACK
6
CONTINUOUS
10
3.93068
20
-6.48906
11
3.93068
21
-6.5678
0
LINE
8
BLACK
6
CONTINUOUS
10
3.90256
20
-6.44407
11
3.87444
21
-6.52843
0
LINE
8
BLACK
6
CONTINUOUS
10
3.87444
20
-6.52843
11
3.94755
21
-6.52843
0
LINE
8
BLACK
6
CONTINUOUS
10
3.9813
20
-6.44969
11
4.05441
21
-6.44969
0
LINE
8
BLACK
6
CONTINUOUS
10
4.05441
20
-6.44969
11
4.01504
21
-6.49469
0
LINE
8
BLACK
6
CONTINUOUS
10
4.01504
20
-6.49469
11
4.03192
21
-6.49469
0
LINE
8
BLACK
6
CONTINUOUS
10
4.03192
20
-6.49469
11
4.04317
21
-6.50031
0
LINE
8
BLACK
6
CONTINUOUS
10
4.04317
20
-6.50031
11
4.04879
21
-6.50593
0
LINE
8
BLACK
6
CONTINUOUS
10
4.04879
20
-6.50593
11
4.05441
21
-6.51718
0
LINE
8
BLACK
6
CONTINUOUS
10
4.05441
20
-6.51718
11
4.05441
21
-6.5453
0
LINE
8
BLACK
6
CONTINUOUS
10
4.05441
20
-6.5453
11
4.04879
21
-6.55655
0
LINE
8
BLACK
6
CONTINUOUS
10
4.04879
20
-6.55655
11
4.04317
21
-6.56218
0
LINE
8
BLACK
6
CONTINUOUS
10
4.04317
20
-6.56218
11
4.03192
21
-6.5678
0
LINE
8
BLACK
6
CONTINUOUS
10
4.03192
20
-6.5678
11
3.99817
21
-6.5678
0
LINE
8
BLACK
6
CONTINUOUS
10
3.99817
20
-6.5678
11
3.98692
21
-6.56218
0
LINE
8
BLACK
6
CONTINUOUS
10
3.98692
20
-6.56218
11
3.9813
21
-6.55655
0
LINE
8
BLACK
6
CONTINUOUS
10
4.09379
20
-6.44969
11
4.1669
21
-6.44969
0
LINE
8
BLACK
6
CONTINUOUS
10
4.1669
20
-6.44969
11
4.12753
21
-6.49469
0
LINE
8
BLACK
6
CONTINUOUS
10
4.12753
20
-6.49469
11
4.1444
21
-6.49469
0
LINE
8
BLACK
6
CONTINUOUS
10
4.1444
20
-6.49469
11
4.15565
21
-6.50031
0
LINE
8
BLACK
6
CONTINUOUS
10
4.15565
20
-6.50031
11
4.16128
21
-6.50593
0
LINE
8
BLACK
6
CONTINUOUS
10
4.16128
20
-6.50593
11
4.1669
21
-6.51718
0
LINE
8
BLACK
6
CONTINUOUS
10
4.1669
20
-6.51718
11
4.1669
21
-6.5453
0
LINE
8
BLACK
6
CONTINUOUS
10
4.1669
20
-6.5453
11
4.16128
21
-6.55655
0
LINE
8
BLACK
6
CONTINUOUS
10
4.16128
20
-6.55655
11
4.15565
21
-6.56218
0
LINE
8
BLACK
6
CONTINUOUS
10
4.15565
20
-6.56218
11
4.1444
21
-6.5678
0
LINE
8
BLACK
6
CONTINUOUS
10
4.1444
20
-6.5678
11
4.11066
21
-6.5678
0
LINE
8
BLACK
6
CONTINUOUS
10
4.11066
20
-6.5678
11
4.09941
21
-6.56218
0
LINE
8
BLACK
6
CONTINUOUS
10
4.09941
20
-6.56218
11
4.09379
21
-6.55655
0
LINE
8
BLACK
6
CONTINUOUS
10
4.2119
20
-6.44969
11
4.2119
21
-6.47219
0
LINE
8
BLACK
6
CONTINUOUS
10
4.25689
20
-6.44969
11
4.25689
21
-6.47219
0
LINE
8
BLACK
6
CONTINUOUS
10
4.43124
20
-6.6128
11
4.42562
21
-6.60717
0
LINE
8
BLACK
6
CONTINUOUS
10
4.42562
20
-6.60717
11
4.41437
21
-6.5903
0
LINE
8
BLACK
6
CONTINUOUS
10
4.41437
20
-6.5903
11
4.40875
21
-6.57905
0
LINE
8
BLACK
6
CONTINUOUS
10
4.40875
20
-6.57905
11
4.40312
21
-6.56218
0
LINE
8
BLACK
6
CONTINUOUS
10
4.40312
20
-6.56218
11
4.3975
21
-6.53406
0
LINE
8
BLACK
6
CONTINUOUS
10
4.3975
20
-6.53406
11
4.3975
21
-6.51156
0
LINE
8
BLACK
6
CONTINUOUS
10
4.3975
20
-6.51156
11
4.40312
21
-6.48344
0
LINE
8
BLACK
6
CONTINUOUS
10
4.40312
20
-6.48344
11
4.40875
21
-6.46656
0
LINE
8
BLACK
6
CONTINUOUS
10
4.40875
20
-6.46656
11
4.41437
21
-6.45531
0
LINE
8
BLACK
6
CONTINUOUS
10
4.41437
20
-6.45531
11
4.42562
21
-6.43844
0
LINE
8
BLACK
6
CONTINUOUS
10
4.42562
20
-6.43844
11
4.43124
21
-6.43282
0
LINE
8
BLACK
6
CONTINUOUS
10
4.49873
20
-6.44969
11
4.50998
21
-6.44969
0
LINE
8
BLACK
6
CONTINUOUS
10
4.50998
20
-6.44969
11
4.52123
21
-6.45531
0
LINE
8
BLACK
6
CONTINUOUS
10
4.52123
20
-6.45531
11
4.52686
21
-6.46094
0
LINE
8
BLACK
6
CONTINUOUS
10
4.52686
20
-6.46094
11
4.53248
21
-6.47219
0
LINE
8
BLACK
6
CONTINUOUS
10
4.53248
20
-6.47219
11
4.5381
21
-6.49469
0
LINE
8
BLACK
6
CONTINUOUS
10
4.5381
20
-6.49469
11
4.5381
21
-6.52281
0
LINE
8
BLACK
6
CONTINUOUS
10
4.5381
20
-6.52281
11
4.53248
21
-6.5453
0
LINE
8
BLACK
6
CONTINUOUS
10
4.53248
20
-6.5453
11
4.52686
21
-6.55655
0
LINE
8
BLACK
6
CONTINUOUS
10
4.52686
20
-6.55655
11
4.52123
21
-6.56218
0
LINE
8
BLACK
6
CONTINUOUS
10
4.52123
20
-6.56218
11
4.50998
21
-6.5678
0
LINE
8
BLACK
6
CONTINUOUS
10
4.50998
20
-6.5678
11
4.49873
21
-6.5678
0
LINE
8
BLACK
6
CONTINUOUS
10
4.49873
20
-6.5678
11
4.48749
21
-6.56218
0
LINE
8
BLACK
6
CONTINUOUS
10
4.48749
20
-6.56218
11
4.48186
21
-6.55655
0
LINE
8
BLACK
6
CONTINUOUS
10
4.48186
20
-6.55655
11
4.47624
21
-6.5453
0
LINE
8
BLACK
6
CONTINUOUS
10
4.47624
20
-6.5453
11
4.47061
21
-6.52281
0
LINE
8
BLACK
6
CONTINUOUS
10
4.47061
20
-6.52281
11
4.47061
21
-6.49469
0
LINE
8
BLACK
6
CONTINUOUS
10
4.47061
20
-6.49469
11
4.47624
21
-6.47219
0
LINE
8
BLACK
6
CONTINUOUS
10
4.47624
20
-6.47219
11
4.48186
21
-6.46094
0
LINE
8
BLACK
6
CONTINUOUS
10
4.48186
20
-6.46094
11
4.48749
21
-6.45531
0
LINE
8
BLACK
6
CONTINUOUS
10
4.48749
20
-6.45531
11
4.49873
21
-6.44969
0
LINE
8
BLACK
6
CONTINUOUS
10
4.67871
20
-6.5678
11
4.67871
21
-6.44969
0
LINE
8
BLACK
6
CONTINUOUS
10
4.72933
20
-6.5678
11
4.72933
21
-6.50593
0
LINE
8
BLACK
6
CONTINUOUS
10
4.72933
20
-6.50593
11
4.72371
21
-6.49469
0
LINE
8
BLACK
6
CONTINUOUS
10
4.72371
20
-6.49469
11
4.71246
21
-6.48906
0
LINE
8
BLACK
6
CONTINUOUS
10
4.71246
20
-6.48906
11
4.69558
21
-6.48906
0
LINE
8
BLACK
6
CONTINUOUS
10
4.69558
20
-6.48906
11
4.68434
21
-6.49469
0
LINE
8
BLACK
6
CONTINUOUS
10
4.68434
20
-6.49469
11
4.67871
21
-6.50031
0
LINE
8
BLACK
6
CONTINUOUS
10
4.80245
20
-6.5678
11
4.7912
21
-6.56218
0
LINE
8
BLACK
6
CONTINUOUS
10
4.7912
20
-6.56218
11
4.78557
21
-6.55655
0
LINE
8
BLACK
6
CONTINUOUS
10
4.78557
20
-6.55655
11
4.77995
21
-6.5453
0
LINE
8
BLACK
6
CONTINUOUS
10
4.77995
20
-6.5453
11
4.77995
21
-6.51156
0
LINE
8
BLACK
6
CONTINUOUS
10
4.77995
20
-6.51156
11
4.78557
21
-6.50031
0
LINE
8
BLACK
6
CONTINUOUS
10
4.78557
20
-6.50031
11
4.7912
21
-6.49469
0
LINE
8
BLACK
6
CONTINUOUS
10
4.7912
20
-6.49469
11
4.80245
21
-6.48906
0
LINE
8
BLACK
6
CONTINUOUS
10
4.80245
20
-6.48906
11
4.81932
21
-6.48906
0
LINE
8
BLACK
6
CONTINUOUS
10
4.81932
20
-6.48906
11
4.83057
21
-6.49469
0
LINE
8
BLACK
6
CONTINUOUS
10
4.83057
20
-6.49469
11
4.83619
21
-6.50031
0
LINE
8
BLACK
6
CONTINUOUS
10
4.83619
20
-6.50031
11
4.84182
21
-6.51156
0
LINE
8
BLACK
6
CONTINUOUS
10
4.84182
20
-6.51156
11
4.84182
21
-6.5453
0
LINE
8
BLACK
6
CONTINUOUS
10
4.84182
20
-6.5453
11
4.83619
21
-6.55655
0
LINE
8
BLACK
6
CONTINUOUS
10
4.83619
20
-6.55655
11
4.83057
21
-6.56218
0
LINE
8
BLACK
6
CONTINUOUS
10
4.83057
20
-6.56218
11
4.81932
21
-6.5678
0
LINE
8
BLACK
6
CONTINUOUS
10
4.81932
20
-6.5678
11
4.80245
21
-6.5678
0
LINE
8
BLACK
6
CONTINUOUS
10
4.90931
20
-6.5678
11
4.89806
21
-6.56218
0
LINE
8
BLACK
6
CONTINUOUS
10
4.89806
20
-6.56218
11
4.89244
21
-6.55093
0
LINE
8
BLACK
6
CONTINUOUS
10
4.89244
20
-6.55093
11
4.89244
21
-6.44969
0
LINE
8
BLACK
6
CONTINUOUS
10
4.9993
20
-6.56218
11
4.98805
21
-6.5678
0
LINE
8
BLACK
6
CONTINUOUS
10
4.98805
20
-6.5678
11
4.96555
21
-6.5678
0
LINE
8
BLACK
6
CONTINUOUS
10
4.96555
20
-6.5678
11
4.9543
21
-6.56218
0
LINE
8
BLACK
6
CONTINUOUS
10
4.9543
20
-6.56218
11
4.94868
21
-6.55093
0
LINE
8
BLACK
6
CONTINUOUS
10
4.94868
20
-6.55093
11
4.94868
21
-6.50593
0
LINE
8
BLACK
6
CONTINUOUS
10
4.94868
20
-6.50593
11
4.9543
21
-6.49469
0
LINE
8
BLACK
6
CONTINUOUS
10
4.9543
20
-6.49469
11
4.96555
21
-6.48906
0
LINE
8
BLACK
6
CONTINUOUS
10
4.96555
20
-6.48906
11
4.98805
21
-6.48906
0
LINE
8
BLACK
6
CONTINUOUS
10
4.98805
20
-6.48906
11
4.9993
21
-6.49469
0
LINE
8
BLACK
6
CONTINUOUS
10
4.9993
20
-6.49469
11
5.00492
21
-6.50593
0
LINE
8
BLACK
6
CONTINUOUS
10
5.00492
20
-6.50593
11
5.00492
21
-6.51718
0
LINE
8
BLACK
6
CONTINUOUS
10
5.00492
20
-6.51718
11
4.94868
21
-6.52843
0
LINE
8
BLACK
6
CONTINUOUS
10
5.04992
20
-6.56218
11
5.06116
21
-6.5678
0
LINE
8
BLACK
6
CONTINUOUS
10
5.06116
20
-6.5678
11
5.08366
21
-6.5678
0
LINE
8
BLACK
6
CONTINUOUS
10
5.08366
20
-6.5678
11
5.09491
21
-6.56218
0
LINE
8
BLACK
6
CONTINUOUS
10
5.09491
20
-6.56218
11
5.10053
21
-6.55093
0
LINE
8
BLACK
6
CONTINUOUS
10
5.10053
20
-6.55093
11
5.10053
21
-6.5453
0
LINE
8
BLACK
6
CONTINUOUS
10
5.10053
20
-6.5453
11
5.09491
21
-6.53406
0
LINE
8
BLACK
6
CONTINUOUS
10
5.09491
20
-6.53406
11
5.08366
21
-6.52843
0
LINE
8
BLACK
6
CONTINUOUS
10
5.08366
20
-6.52843
11
5.06679
21
-6.52843
0
LINE
8
BLACK
6
CONTINUOUS
10
5.06679
20
-6.52843
11
5.05554
21
-6.52281
0
LINE
8
BLACK
6
CONTINUOUS
10
5.05554
20
-6.52281
11
5.04992
21
-6.51156
0
LINE
8
BLACK
6
CONTINUOUS
10
5.04992
20
-6.51156
11
5.04992
21
-6.50593
0
LINE
8
BLACK
6
CONTINUOUS
10
5.04992
20
-6.50593
11
5.05554
21
-6.49469
0
LINE
8
BLACK
6
CONTINUOUS
10
5.05554
20
-6.49469
11
5.06679
21
-6.48906
0
LINE
8
BLACK
6
CONTINUOUS
10
5.06679
20
-6.48906
11
5.08366
21
-6.48906
0
LINE
8
BLACK
6
CONTINUOUS
10
5.08366
20
-6.48906
11
5.09491
21
-6.49469
0
LINE
8
BLACK
6
CONTINUOUS
10
5.24114
20
-6.52281
11
5.33113
21
-6.52281
0
LINE
8
BLACK
6
CONTINUOUS
10
5.28614
20
-6.5678
11
5.28614
21
-6.47781
0
LINE
8
BLACK
6
CONTINUOUS
10
5.47174
20
-6.46094
11
5.47736
21
-6.45531
0
LINE
8
BLACK
6
CONTINUOUS
10
5.47736
20
-6.45531
11
5.48861
21
-6.44969
0
LINE
8
BLACK
6
CONTINUOUS
10
5.48861
20
-6.44969
11
5.51673
21
-6.44969
0
LINE
8
BLACK
6
CONTINUOUS
10
5.51673
20
-6.44969
11
5.52798
21
-6.45531
0
LINE
8
BLACK
6
CONTINUOUS
10
5.52798
20
-6.45531
11
5.53361
21
-6.46094
0
LINE
8
BLACK
6
CONTINUOUS
10
5.53361
20
-6.46094
11
5.53923
21
-6.47219
0
LINE
8
BLACK
6
CONTINUOUS
10
5.53923
20
-6.47219
11
5.53923
21
-6.48344
0
LINE
8
BLACK
6
CONTINUOUS
10
5.53923
20
-6.48344
11
5.53361
21
-6.50031
0
LINE
8
BLACK
6
CONTINUOUS
10
5.53361
20
-6.50031
11
5.46611
21
-6.5678
0
LINE
8
BLACK
6
CONTINUOUS
10
5.46611
20
-6.5678
11
5.53923
21
-6.5678
0
LINE
8
BLACK
6
CONTINUOUS
10
5.67421
20
-6.56218
11
5.68546
21
-6.5678
0
LINE
8
BLACK
6
CONTINUOUS
10
5.68546
20
-6.5678
11
5.70796
21
-6.5678
0
LINE
8
BLACK
6
CONTINUOUS
10
5.70796
20
-6.5678
11
5.71921
21
-6.56218
0
LINE
8
BLACK
6
CONTINUOUS
10
5.71921
20
-6.56218
11
5.72483
21
-6.55093
0
LINE
8
BLACK
6
CONTINUOUS
10
5.72483
20
-6.55093
11
5.72483
21
-6.5453
0
LINE
8
BLACK
6
CONTINUOUS
10
5.72483
20
-6.5453
11
5.71921
21
-6.53406
0
LINE
8
BLACK
6
CONTINUOUS
10
5.71921
20
-6.53406
11
5.70796
21
-6.52843
0
LINE
8
BLACK
6
CONTINUOUS
10
5.70796
20
-6.52843
11
5.69109
21
-6.52843
0
LINE
8
BLACK
6
CONTINUOUS
10
5.69109
20
-6.52843
11
5.67984
21
-6.52281
0
LINE
8
BLACK
6
CONTINUOUS
10
5.67984
20
-6.52281
11
5.67421
21
-6.51156
0
LINE
8
BLACK
6
CONTINUOUS
10
5.67421
20
-6.51156
11
5.67421
21
-6.50593
0
LINE
8
BLACK
6
CONTINUOUS
10
5.67421
20
-6.50593
11
5.67984
21
-6.49469
0
LINE
8
BLACK
6
CONTINUOUS
10
5.67984
20
-6.49469
11
5.69109
21
-6.48906
0
LINE
8
BLACK
6
CONTINUOUS
10
5.69109
20
-6.48906
11
5.70796
21
-6.48906
0
LINE
8
BLACK
6
CONTINUOUS
10
5.70796
20
-6.48906
11
5.71921
21
-6.49469
0
LINE
8
BLACK
6
CONTINUOUS
10
5.79232
20
-6.5678
11
5.78107
21
-6.56218
0
LINE
8
BLACK
6
CONTINUOUS
10
5.78107
20
-6.56218
11
5.77545
21
-6.55093
0
LINE
8
BLACK
6
CONTINUOUS
10
5.77545
20
-6.55093
11
5.77545
21
-6.44969
0
LINE
8
BLACK
6
CONTINUOUS
10
5.85419
20
-6.5678
11
5.84294
21
-6.56218
0
LINE
8
BLACK
6
CONTINUOUS
10
5.84294
20
-6.56218
11
5.83732
21
-6.55655
0
LINE
8
BLACK
6
CONTINUOUS
10
5.83732
20
-6.55655
11
5.83169
21
-6.5453
0
LINE
8
BLACK
6
CONTINUOUS
10
5.83169
20
-6.5453
11
5.83169
21
-6.51156
0
LINE
8
BLACK
6
CONTINUOUS
10
5.83169
20
-6.51156
11
5.83732
21
-6.50031
0
LINE
8
BLACK
6
CONTINUOUS
10
5.83732
20
-6.50031
11
5.84294
21
-6.49469
0
LINE
8
BLACK
6
CONTINUOUS
10
5.84294
20
-6.49469
11
5.85419
21
-6.48906
0
LINE
8
BLACK
6
CONTINUOUS
10
5.85419
20
-6.48906
11
5.87106
21
-6.48906
0
LINE
8
BLACK
6
CONTINUOUS
10
5.87106
20
-6.48906
11
5.88231
21
-6.49469
0
LINE
8
BLACK
6
CONTINUOUS
10
5.88231
20
-6.49469
11
5.88794
21
-6.50031
0
LINE
8
BLACK
6
CONTINUOUS
10
5.88794
20
-6.50031
11
5.89356
21
-6.51156
0
LINE
8
BLACK
6
CONTINUOUS
10
5.89356
20
-6.51156
11
5.89356
21
-6.5453
0
LINE
8
BLACK
6
CONTINUOUS
10
5.89356
20
-6.5453
11
5.88794
21
-6.55655
0
LINE
8
BLACK
6
CONTINUOUS
10
5.88794
20
-6.55655
11
5.88231
21
-6.56218
0
LINE
8
BLACK
6
CONTINUOUS
10
5.88231
20
-6.56218
11
5.87106
21
-6.5678
0
LINE
8
BLACK
6
CONTINUOUS
10
5.87106
20
-6.5678
11
5.85419
21
-6.5678
0
LINE
8
BLACK
6
CONTINUOUS
10
5.92731
20
-6.48906
11
5.9723
21
-6.48906
0
LINE
8
BLACK
6
CONTINUOUS
10
5.94418
20
-6.44969
11
5.94418
21
-6.55093
0
LINE
8
BLACK
6
CONTINUOUS
10
5.94418
20
-6.55093
11
5.9498
21
-6.56218
0
LINE
8
BLACK
6
CONTINUOUS
10
5.9498
20
-6.56218
11
5.96105
21
-6.5678
0
LINE
8
BLACK
6
CONTINUOUS
10
5.96105
20
-6.5678
11
5.9723
21
-6.5678
0
LINE
8
BLACK
6
CONTINUOUS
10
6.00605
20
-6.56218
11
6.01729
21
-6.5678
0
LINE
8
BLACK
6
CONTINUOUS
10
6.01729
20
-6.5678
11
6.03979
21
-6.5678
0
LINE
8
BLACK
6
CONTINUOUS
10
6.03979
20
-6.5678
11
6.05104
21
-6.56218
0
LINE
8
BLACK
6
CONTINUOUS
10
6.05104
20
-6.56218
11
6.05666
21
-6.55093
0
LINE
8
BLACK
6
CONTINUOUS
10
6.05666
20
-6.55093
11
6.05666
21
-6.5453
0
LINE
8
BLACK
6
CONTINUOUS
10
6.05666
20
-6.5453
11
6.05104
21
-6.53406
0
LINE
8
BLACK
6
CONTINUOUS
10
6.05104
20
-6.53406
11
6.03979
21
-6.52843
0
LINE
8
BLACK
6
CONTINUOUS
10
6.03979
20
-6.52843
11
6.02292
21
-6.52843
0
LINE
8
BLACK
6
CONTINUOUS
10
6.02292
20
-6.52843
11
6.01167
21
-6.52281
0
LINE
8
BLACK
6
CONTINUOUS
10
6.01167
20
-6.52281
11
6.00605
21
-6.51156
0
LINE
8
BLACK
6
CONTINUOUS
10
6.00605
20
-6.51156
11
6.00605
21
-6.50593
0
LINE
8
BLACK
6
CONTINUOUS
10
6.00605
20
-6.50593
11
6.01167
21
-6.49469
0
LINE
8
BLACK
6
CONTINUOUS
10
6.01167
20
-6.49469
11
6.02292
21
-6.48906
0
LINE
8
BLACK
6
CONTINUOUS
10
6.02292
20
-6.48906
11
6.03979
21
-6.48906
0
LINE
8
BLACK
6
CONTINUOUS
10
6.03979
20
-6.48906
11
6.05104
21
-6.49469
0
LINE
8
BLACK
6
CONTINUOUS
10
6.09603
20
-6.6128
11
6.10166
21
-6.60717
0
LINE
8
BLACK
6
CONTINUOUS
10
6.10166
20
-6.60717
11
6.11291
21
-6.5903
0
LINE
8
BLACK
6
CONTINUOUS
10
6.11291
20
-6.5903
11
6.11853
21
-6.57905
0
LINE
8
BLACK
6
CONTINUOUS
10
6.11853
20
-6.57905
11
6.12416
21
-6.56218
0
LINE
8
BLACK
6
CONTINUOUS
10
6.12416
20
-6.56218
11
6.12978
21
-6.53406
0
LINE
8
BLACK
6
CONTINUOUS
10
6.12978
20
-6.53406
11
6.12978
21
-6.51156
0
LINE
8
BLACK
6
CONTINUOUS
10
6.12978
20
-6.51156
11
6.12416
21
-6.48344
0
LINE
8
BLACK
6
CONTINUOUS
10
6.12416
20
-6.48344
11
6.11853
21
-6.46656
0
LINE
8
BLACK
6
CONTINUOUS
10
6.11853
20
-6.46656
11
6.11291
21
-6.45531
0
LINE
8
BLACK
6
CONTINUOUS
10
6.11291
20
-6.45531
11
6.10166
21
-6.43844
0
LINE
8
BLACK
6
CONTINUOUS
10
6.10166
20
-6.43844
11
6.09603
21
-6.43282
0
LINE
8
BLACK
6
CONTINUOUS
10
2.23524
20
-6.60728
11
2.36122
21
-6.73327
0
LINE
8
BLACK
6
CONTINUOUS
10
2.36122
20
-6.60728
11
2.23524
21
-6.73327
0
CIRCLE
8
BLACK
10
2.29823
20
-6.67028
40
0.0629921
0
LINE
8
BLACK
6
CONTINUOUS
10
2.46274
20
-6.6056
11
2.53585
21
-6.6056
0
LINE
8
BLACK
6
CONTINUOUS
10
2.53585
20
-6.6056
11
2.49648
21
-6.65059
0
LINE
8
BLACK
6
CONTINUOUS
10
2.49648
20
-6.65059
11
2.51336
21
-6.65059
0
LINE
8
BLACK
6
CONTINUOUS
10
2.51336
20
-6.65059
11
2.52461
21
-6.65621
0
LINE
8
BLACK
6
CONTINUOUS
10
2.52461
20
-6.65621
11
2.53023
21
-6.66184
0
LINE
8
BLACK
6
CONTINUOUS
10
2.53023
20
-6.66184
11
2.53585
21
-6.67309
0
LINE
8
BLACK
6
CONTINUOUS
10
2.53585
20
-6.67309
11
2.53585
21
-6.70121
0
LINE
8
BLACK
6
CONTINUOUS
10
2.53585
20
-6.70121
11
2.53023
21
-6.71246
0
LINE
8
BLACK
6
CONTINUOUS
10
2.53023
20
-6.71246
11
2.52461
21
-6.71808
0
LINE
8
BLACK
6
CONTINUOUS
10
2.52461
20
-6.71808
11
2.51336
21
-6.72371
0
LINE
8
BLACK
6
CONTINUOUS
10
2.51336
20
-6.72371
11
2.47961
21
-6.72371
0
LINE
8
BLACK
6
CONTINUOUS
10
2.47961
20
-6.72371
11
2.46836
21
-6.71808
0
LINE
8
BLACK
6
CONTINUOUS
10
2.46836
20
-6.71808
11
2.46274
21
-6.71246
0
LINE
8
BLACK
6
CONTINUOUS
10
2.58647
20
-6.71246
11
2.5921
21
-6.71808
0
LINE
8
BLACK
6
CONTINUOUS
10
2.5921
20
-6.71808
11
2.58647
21
-6.72371
0
LINE
8
BLACK
6
CONTINUOUS
10
2.58647
20
-6.72371
11
2.58085
21
-6.71808
0
LINE
8
BLACK
6
CONTINUOUS
10
2.58085
20
-6.71808
11
2.58647
21
-6.71246
0
LINE
8
BLACK
6
CONTINUOUS
10
2.58647
20
-6.71246
11
2.58647
21
-6.72371
0
LINE
8
BLACK
6
CONTINUOUS
10
2.63709
20
-6.61684
11
2.64272
21
-6.61122
0
LINE
8
BLACK
6
CONTINUOUS
10
2.64272
20
-6.61122
11
2.65397
21
-6.6056
0
LINE
8
BLACK
6
CONTINUOUS
10
2.65397
20
-6.6056
11
2.68209
21
-6.6056
0
LINE
8
BLACK
6
CONTINUOUS
10
2.68209
20
-6.6056
11
2.69334
21
-6.61122
0
LINE
8
BLACK
6
CONTINUOUS
10
2.69334
20
-6.61122
11
2.69896
21
-6.61684
0
LINE
8
BLACK
6
CONTINUOUS
10
2.69896
20
-6.61684
11
2.70458
21
-6.62809
0
LINE
8
BLACK
6
CONTINUOUS
10
2.70458
20
-6.62809
11
2.70458
21
-6.63934
0
LINE
8
BLACK
6
CONTINUOUS
10
2.70458
20
-6.63934
11
2.69896
21
-6.65621
0
LINE
8
BLACK
6
CONTINUOUS
10
2.69896
20
-6.65621
11
2.63147
21
-6.72371
0
LINE
8
BLACK
6
CONTINUOUS
10
2.63147
20
-6.72371
11
2.70458
21
-6.72371
0
LINE
8
BLACK
6
CONTINUOUS
10
2.7777
20
-6.6056
11
2.78895
21
-6.6056
0
LINE
8
BLACK
6
CONTINUOUS
10
2.78895
20
-6.6056
11
2.8002
21
-6.61122
0
LINE
8
BLACK
6
CONTINUOUS
10
2.8002
20
-6.61122
11
2.80582
21
-6.61684
0
LINE
8
BLACK
6
CONTINUOUS
10
2.80582
20
-6.61684
11
2.81145
21
-6.62809
0
LINE
8
BLACK
6
CONTINUOUS
10
2.81145
20
-6.62809
11
2.81707
21
-6.65059
0
LINE
8
BLACK
6
CONTINUOUS
10
2.81707
20
-6.65059
11
2.81707
21
-6.67871
0
LINE
8
BLACK
6
CONTINUOUS
10
2.81707
20
-6.67871
11
2.81145
21
-6.70121
0
LINE
8
BLACK
6
CONTINUOUS
10
2.81145
20
-6.70121
11
2.80582
21
-6.71246
0
LINE
8
BLACK
6
CONTINUOUS
10
2.80582
20
-6.71246
11
2.8002
21
-6.71808
0
LINE
8
BLACK
6
CONTINUOUS
10
2.8002
20
-6.71808
11
2.78895
21
-6.72371
0
LINE
8
BLACK
6
CONTINUOUS
10
2.78895
20
-6.72371
11
2.7777
21
-6.72371
0
LINE
8
BLACK
6
CONTINUOUS
10
2.7777
20
-6.72371
11
2.76645
21
-6.71808
0
LINE
8
BLACK
6
CONTINUOUS
10
2.76645
20
-6.71808
11
2.76083
21
-6.71246
0
LINE
8
BLACK
6
CONTINUOUS
10
2.76083
20
-6.71246
11
2.7552
21
-6.70121
0
LINE
8
BLACK
6
CONTINUOUS
10
2.7552
20
-6.70121
11
2.74958
21
-6.67871
0
LINE
8
BLACK
6
CONTINUOUS
10
2.74958
20
-6.67871
11
2.74958
21
-6.65059
0
LINE
8
BLACK
6
CONTINUOUS
10
2.74958
20
-6.65059
11
2.7552
21
-6.62809
0
LINE
8
BLACK
6
CONTINUOUS
10
2.7552
20
-6.62809
11
2.76083
21
-6.61684
0
LINE
8
BLACK
6
CONTINUOUS
10
2.76083
20
-6.61684
11
2.76645
21
-6.61122
0
LINE
8
BLACK
6
CONTINUOUS
10
2.76645
20
-6.61122
11
2.7777
21
-6.6056
0
LINE
8
BLACK
6
CONTINUOUS
10
2.89019
20
-6.6056
11
2.90143
21
-6.6056
0
LINE
8
BLACK
6
CONTINUOUS
10
2.90143
20
-6.6056
11
2.91268
21
-6.61122
0
LINE
8
BLACK
6
CONTINUOUS
10
2.91268
20
-6.61122
11
2.91831
21
-6.61684
0
LINE
8
BLACK
6
CONTINUOUS
10
2.91831
20
-6.61684
11
2.92393
21
-6.62809
0
LINE
8
BLACK
6
CONTINUOUS
10
2.92393
20
-6.62809
11
2.92956
21
-6.65059
0
LINE
8
BLACK
6
CONTINUOUS
10
2.92956
20
-6.65059
11
2.92956
21
-6.67871
0
LINE
8
BLACK
6
CONTINUOUS
10
2.92956
20
-6.67871
11
2.92393
21
-6.70121
0
LINE
8
BLACK
6
CONTINUOUS
10
2.92393
20
-6.70121
11
2.91831
21
-6.71246
0
LINE
8
BLACK
6
CONTINUOUS
10
2.91831
20
-6.71246
11
2.91268
21
-6.71808
0
LINE
8
BLACK
6
CONTINUOUS
10
2.91268
20
-6.71808
11
2.90143
21
-6.72371
0
LINE
8
BLACK
6
CONTINUOUS
10
2.90143
20
-6.72371
11
2.89019
21
-6.72371
0
LINE
8
BLACK
6
CONTINUOUS
10
2.89019
20
-6.72371
11
2.87894
21
-6.71808
0
LINE
8
BLACK
6
CONTINUOUS
10
2.87894
20
-6.71808
11
2.87331
21
-6.71246
0
LINE
8
BLACK
6
CONTINUOUS
10
2.87331
20
-6.71246
11
2.86769
21
-6.70121
0
LINE
8
BLACK
6
CONTINUOUS
10
2.86769
20
-6.70121
11
2.86206
21
-6.67871
0
LINE
8
BLACK
6
CONTINUOUS
10
2.86206
20
-6.67871
11
2.86206
21
-6.65059
0
LINE
8
BLACK
6
CONTINUOUS
10
2.86206
20
-6.65059
11
2.86769
21
-6.62809
0
LINE
8
BLACK
6
CONTINUOUS
10
2.86769
20
-6.62809
11
2.87331
21
-6.61684
0
LINE
8
BLACK
6
CONTINUOUS
10
2.87331
20
-6.61684
11
2.87894
21
-6.61122
0
LINE
8
BLACK
6
CONTINUOUS
10
2.87894
20
-6.61122
11
2.89019
21
-6.6056
0
LINE
8
BLACK
6
CONTINUOUS
10
2.98017
20
-6.72371
11
2.98017
21
-6.64497
0
LINE
8
BLACK
6
CONTINUOUS
10
2.98017
20
-6.65621
11
2.9858
21
-6.65059
0
LINE
8
BLACK
6
CONTINUOUS
10
2.9858
20
-6.65059
11
2.99705
21
-6.64497
0
LINE
8
BLACK
6
CONTINUOUS
10
2.99705
20
-6.64497
11
3.01392
21
-6.64497
0
LINE
8
BLACK
6
CONTINUOUS
10
3.01392
20
-6.64497
11
3.02517
21
-6.65059
0
LINE
8
BLACK
6
CONTINUOUS
10
3.02517
20
-6.65059
11
3.03079
21
-6.66184
0
LINE
8
BLACK
6
CONTINUOUS
10
3.03079
20
-6.66184
11
3.03079
21
-6.72371
0
LINE
8
BLACK
6
CONTINUOUS
10
3.03079
20
-6.66184
11
3.03642
21
-6.65059
0
LINE
8
BLACK
6
CONTINUOUS
10
3.03642
20
-6.65059
11
3.04767
21
-6.64497
0
LINE
8
BLACK
6
CONTINUOUS
10
3.04767
20
-6.64497
11
3.06454
21
-6.64497
0
LINE
8
BLACK
6
CONTINUOUS
10
3.06454
20
-6.64497
11
3.07579
21
-6.65059
0
LINE
8
BLACK
6
CONTINUOUS
10
3.07579
20
-6.65059
11
3.08141
21
-6.66184
0
LINE
8
BLACK
6
CONTINUOUS
10
3.08141
20
-6.66184
11
3.08141
21
-6.72371
0
LINE
8
BLACK
6
CONTINUOUS
10
3.13765
20
-6.72371
11
3.13765
21
-6.64497
0
LINE
8
BLACK
6
CONTINUOUS
10
3.13765
20
-6.65621
11
3.14328
21
-6.65059
0
LINE
8
BLACK
6
CONTINUOUS
10
3.14328
20
-6.65059
11
3.15453
21
-6.64497
0
LINE
8
BLACK
6
CONTINUOUS
10
3.15453
20
-6.64497
11
3.1714
21
-6.64497
0
LINE
8
BLACK
6
CONTINUOUS
10
3.1714
20
-6.64497
11
3.18265
21
-6.65059
0
LINE
8
BLACK
6
CONTINUOUS
10
3.18265
20
-6.65059
11
3.18827
21
-6.66184
0
LINE
8
BLACK
6
CONTINUOUS
10
3.18827
20
-6.66184
11
3.18827
21
-6.72371
0
LINE
8
BLACK
6
CONTINUOUS
10
3.18827
20
-6.66184
11
3.1939
21
-6.65059
0
LINE
8
BLACK
6
CONTINUOUS
10
3.1939
20
-6.65059
11
3.20515
21
-6.64497
0
LINE
8
BLACK
6
CONTINUOUS
10
3.20515
20
-6.64497
11
3.22202
21
-6.64497
0
LINE
8
BLACK
6
CONTINUOUS
10
3.22202
20
-6.64497
11
3.23327
21
-6.65059
0
LINE
8
BLACK
6
CONTINUOUS
10
3.23327
20
-6.65059
11
3.23889
21
-6.66184
0
LINE
8
BLACK
6
CONTINUOUS
10
3.23889
20
-6.66184
11
3.23889
21
-6.72371
0
LINE
8
BLACK
6
CONTINUOUS
10
3.46949
20
-6.59997
11
3.36825
21
-6.75183
0
LINE
8
BLACK
6
CONTINUOUS
10
3.62134
20
-6.6056
11
3.63259
21
-6.6056
0
LINE
8
BLACK
6
CONTINUOUS
10
3.63259
20
-6.6056
11
3.64384
21
-6.61122
0
LINE
8
BLACK
6
CONTINUOUS
10
3.64384
20
-6.61122
11
3.64947
21
-6.61684
0
LINE
8
BLACK
6
CONTINUOUS
10
3.64947
20
-6.61684
11
3.65509
21
-6.62809
0
LINE
8
BLACK
6
CONTINUOUS
10
3.65509
20
-6.62809
11
3.66071
21
-6.65059
0
LINE
8
BLACK
6
CONTINUOUS
10
3.66071
20
-6.65059
11
3.66071
21
-6.67871
0
LINE
8
BLACK
6
CONTINUOUS
10
3.66071
20
-6.67871
11
3.65509
21
-6.70121
0
LINE
8
BLACK
6
CONTINUOUS
10
3.65509
20
-6.70121
11
3.64947
21
-6.71246
0
LINE
8
BLACK
6
CONTINUOUS
10
3.64947
20
-6.71246
11
3.64384
21
-6.71808
0
LINE
8
BLACK
6
CONTINUOUS
10
3.64384
20
-6.71808
11
3.63259
21
-6.72371
0
LINE
8
BLACK
6
CONTINUOUS
10
3.63259
20
-6.72371
11
3.62134
21
-6.72371
0
LINE
8
BLACK
6
CONTINUOUS
10
3.62134
20
-6.72371
11
3.6101
21
-6.71808
0
LINE
8
BLACK
6
CONTINUOUS
10
3.6101
20
-6.71808
11
3.60447
21
-6.71246
0
LINE
8
BLACK
6
CONTINUOUS
10
3.60447
20
-6.71246
11
3.59885
21
-6.70121
0
LINE
8
BLACK
6
CONTINUOUS
10
3.59885
20
-6.70121
11
3.59322
21
-6.67871
0
LINE
8
BLACK
6
CONTINUOUS
10
3.59322
20
-6.67871
11
3.59322
21
-6.65059
0
LINE
8
BLACK
6
CONTINUOUS
10
3.59322
20
-6.65059
11
3.59885
21
-6.62809
0
LINE
8
BLACK
6
CONTINUOUS
10
3.59885
20
-6.62809
11
3.60447
21
-6.61684
0
LINE
8
BLACK
6
CONTINUOUS
10
3.60447
20
-6.61684
11
3.6101
21
-6.61122
0
LINE
8
BLACK
6
CONTINUOUS
10
3.6101
20
-6.61122
11
3.62134
21
-6.6056
0
LINE
8
BLACK
6
CONTINUOUS
10
3.71133
20
-6.71246
11
3.71696
21
-6.71808
0
LINE
8
BLACK
6
CONTINUOUS
10
3.71696
20
-6.71808
11
3.71133
21
-6.72371
0
LINE
8
BLACK
6
CONTINUOUS
10
3.71133
20
-6.72371
11
3.70571
21
-6.71808
0
LINE
8
BLACK
6
CONTINUOUS
10
3.70571
20
-6.71808
11
3.71133
21
-6.71246
0
LINE
8
BLACK
6
CONTINUOUS
10
3.71133
20
-6.71246
11
3.71133
21
-6.72371
0
LINE
8
BLACK
6
CONTINUOUS
10
3.82944
20
-6.72371
11
3.76195
21
-6.72371
0
LINE
8
BLACK
6
CONTINUOUS
10
3.7957
20
-6.72371
11
3.7957
21
-6.6056
0
LINE
8
BLACK
6
CONTINUOUS
10
3.7957
20
-6.6056
11
3.78445
21
-6.62247
0
LINE
8
BLACK
6
CONTINUOUS
10
3.78445
20
-6.62247
11
3.7732
21
-6.63372
0
LINE
8
BLACK
6
CONTINUOUS
10
3.7732
20
-6.63372
11
3.76195
21
-6.63934
0
LINE
8
BLACK
6
CONTINUOUS
10
3.87444
20
-6.61684
11
3.88006
21
-6.61122
0
LINE
8
BLACK
6
CONTINUOUS
10
3.88006
20
-6.61122
11
3.89131
21
-6.6056
0
LINE
8
BLACK
6
CONTINUOUS
10
3.89131
20
-6.6056
11
3.91943
21
-6.6056
0
LINE
8
BLACK
6
CONTINUOUS
10
3.91943
20
-6.6056
11
3.93068
21
-6.61122
0
LINE
8
BLACK
6
CONTINUOUS
10
3.93068
20
-6.61122
11
3.9363
21
-6.61684
0
LINE
8
BLACK
6
CONTINUOUS
10
3.9363
20
-6.61684
11
3.94193
21
-6.62809
0
LINE
8
BLACK
6
CONTINUOUS
10
3.94193
20
-6.62809
11
3.94193
21
-6.63934
0
LINE
8
BLACK
6
CONTINUOUS
10
3.94193
20
-6.63934
11
3.9363
21
-6.65621
0
LINE
8
BLACK
6
CONTINUOUS
10
3.9363
20
-6.65621
11
3.86881
21
-6.72371
0
LINE
8
BLACK
6
CONTINUOUS
10
3.86881
20
-6.72371
11
3.94193
21
-6.72371
0
LINE
8
BLACK
6
CONTINUOUS
10
4.04317
20
-6.6056
11
4.02067
21
-6.6056
0
LINE
8
BLACK
6
CONTINUOUS
10
4.02067
20
-6.6056
11
4.00942
21
-6.61122
0
LINE
8
BLACK
6
CONTINUOUS
10
4.00942
20
-6.61122
11
4.0038
21
-6.61684
0
LINE
8
BLACK
6
CONTINUOUS
10
4.0038
20
-6.61684
11
3.99255
21
-6.63372
0
LINE
8
BLACK
6
CONTINUOUS
10
3.99255
20
-6.63372
11
3.98692
21
-6.65621
0
LINE
8
BLACK
6
CONTINUOUS
10
3.98692
20
-6.65621
11
3.98692
21
-6.70121
0
LINE
8
BLACK
6
CONTINUOUS
10
3.98692
20
-6.70121
11
3.99255
21
-6.71246
0
LINE
8
BLACK
6
CONTINUOUS
10
3.99255
20
-6.71246
11
3.99817
21
-6.71808
0
LINE
8
BLACK
6
CONTINUOUS
10
3.99817
20
-6.71808
11
4.00942
21
-6.72371
0
LINE
8
BLACK
6
CONTINUOUS
10
4.00942
20
-6.72371
11
4.03192
21
-6.72371
0
LINE
8
BLACK
6
CONTINUOUS
10
4.03192
20
-6.72371
11
4.04317
21
-6.71808
0
LINE
8
BLACK
6
CONTINUOUS
10
4.04317
20
-6.71808
11
4.04879
21
-6.71246
0
LINE
8
BLACK
6
CONTINUOUS
10
4.04879
20
-6.71246
11
4.05441
21
-6.70121
0
LINE
8
BLACK
6
CONTINUOUS
10
4.05441
20
-6.70121
11
4.05441
21
-6.67309
0
LINE
8
BLACK
6
CONTINUOUS
10
4.05441
20
-6.67309
11
4.04879
21
-6.66184
0
LINE
8
BLACK
6
CONTINUOUS
10
4.04879
20
-6.66184
11
4.04317
21
-6.65621
0
LINE
8
BLACK
6
CONTINUOUS
10
4.04317
20
-6.65621
11
4.03192
21
-6.65059
0
LINE
8
BLACK
6
CONTINUOUS
10
4.03192
20
-6.65059
11
4.00942
21
-6.65059
0
LINE
8
BLACK
6
CONTINUOUS
10
4.00942
20
-6.65059
11
3.99817
21
-6.65621
0
LINE
8
BLACK
6
CONTINUOUS
10
3.99817
20
-6.65621
11
3.99255
21
-6.66184
0
LINE
8
BLACK
6
CONTINUOUS
10
3.99255
20
-6.66184
11
3.98692
21
-6.67309
0
LINE
8
BLACK
6
CONTINUOUS
10
4.12753
20
-6.6056
11
4.13878
21
-6.6056
0
LINE
8
BLACK
6
CONTINUOUS
10
4.13878
20
-6.6056
11
4.15003
21
-6.61122
0
LINE
8
BLACK
6
CONTINUOUS
10
4.15003
20
-6.61122
11
4.15565
21
-6.61684
0
LINE
8
BLACK
6
CONTINUOUS
10
4.15565
20
-6.61684
11
4.16128
21
-6.62809
0
LINE
8
BLACK
6
CONTINUOUS
10
4.16128
20
-6.62809
11
4.1669
21
-6.65059
0
LINE
8
BLACK
6
CONTINUOUS
10
4.1669
20
-6.65059
11
4.1669
21
-6.67871
0
LINE
8
BLACK
6
CONTINUOUS
10
4.1669
20
-6.67871
11
4.16128
21
-6.70121
0
LINE
8
BLACK
6
CONTINUOUS
10
4.16128
20
-6.70121
11
4.15565
21
-6.71246
0
LINE
8
BLACK
6
CONTINUOUS
10
4.15565
20
-6.71246
11
4.15003
21
-6.71808
0
LINE
8
BLACK
6
CONTINUOUS
10
4.15003
20
-6.71808
11
4.13878
21
-6.72371
0
LINE
8
BLACK
6
CONTINUOUS
10
4.13878
20
-6.72371
11
4.12753
21
-6.72371
0
LINE
8
BLACK
6
CONTINUOUS
10
4.12753
20
-6.72371
11
4.11628
21
-6.71808
0
LINE
8
BLACK
6
CONTINUOUS
10
4.11628
20
-6.71808
11
4.11066
21
-6.71246
0
LINE
8
BLACK
6
CONTINUOUS
10
4.11066
20
-6.71246
11
4.10503
21
-6.70121
0
LINE
8
BLACK
6
CONTINUOUS
10
4.10503
20
-6.70121
11
4.09941
21
-6.67871
0
LINE
8
BLACK
6
CONTINUOUS
10
4.09941
20
-6.67871
11
4.09941
21
-6.65059
0
LINE
8
BLACK
6
CONTINUOUS
10
4.09941
20
-6.65059
11
4.10503
21
-6.62809
0
LINE
8
BLACK
6
CONTINUOUS
10
4.10503
20
-6.62809
11
4.11066
21
-6.61684
0
LINE
8
BLACK
6
CONTINUOUS
10
4.11066
20
-6.61684
11
4.11628
21
-6.61122
0
LINE
8
BLACK
6
CONTINUOUS
10
4.11628
20
-6.61122
11
4.12753
21
-6.6056
0
LINE
8
BLACK
6
CONTINUOUS
10
4.2119
20
-6.6056
11
4.2119
21
-6.62809
0
LINE
8
BLACK
6
CONTINUOUS
10
4.25689
20
-6.6056
11
4.25689
21
-6.62809
0
LINE
8
BLACK
6
CONTINUOUS
10
4.43124
20
-6.7687
11
4.42562
21
-6.76308
0
LINE
8
BLACK
6
CONTINUOUS
10
4.42562
20
-6.76308
11
4.41437
21
-6.7462
0
LINE
8
BLACK
6
CONTINUOUS
10
4.41437
20
-6.7462
11
4.40875
21
-6.73496
0
LINE
8
BLACK
6
CONTINUOUS
10
4.40875
20
-6.73496
11
4.40312
21
-6.71808
0
LINE
8
BLACK
6
CONTINUOUS
10
4.40312
20
-6.71808
11
4.3975
21
-6.68996
0
LINE
8
BLACK
6
CONTINUOUS
10
4.3975
20
-6.68996
11
4.3975
21
-6.66746
0
LINE
8
BLACK
6
CONTINUOUS
10
4.3975
20
-6.66746
11
4.40312
21
-6.63934
0
LINE
8
BLACK
6
CONTINUOUS
10
4.40312
20
-6.63934
11
4.40875
21
-6.62247
0
LINE
8
BLACK
6
CONTINUOUS
10
4.40875
20
-6.62247
11
4.41437
21
-6.61122
0
LINE
8
BLACK
6
CONTINUOUS
10
4.41437
20
-6.61122
11
4.42562
21
-6.59435
0
LINE
8
BLACK
6
CONTINUOUS
10
4.42562
20
-6.59435
11
4.43124
21
-6.58872
0
LINE
8
BLACK
6
CONTINUOUS
10
4.52686
20
-6.6056
11
4.50436
21
-6.6056
0
LINE
8
BLACK
6
CONTINUOUS
10
4.50436
20
-6.6056
11
4.49311
21
-6.61122
0
LINE
8
BLACK
6
CONTINUOUS
10
4.49311
20
-6.61122
11
4.48749
21
-6.61684
0
LINE
8
BLACK
6
CONTINUOUS
10
4.48749
20
-6.61684
11
4.47624
21
-6.63372
0
LINE
8
BLACK
6
CONTINUOUS
10
4.47624
20
-6.63372
11
4.47061
21
-6.65621
0
LINE
8
BLACK
6
CONTINUOUS
10
4.47061
20
-6.65621
11
4.47061
21
-6.70121
0
LINE
8
BLACK
6
CONTINUOUS
10
4.47061
20
-6.70121
11
4.47624
21
-6.71246
0
LINE
8
BLACK
6
CONTINUOUS
10
4.47624
20
-6.71246
11
4.48186
21
-6.71808
0
LINE
8
BLACK
6
CONTINUOUS
10
4.48186
20
-6.71808
11
4.49311
21
-6.72371
0
LINE
8
BLACK
6
CONTINUOUS
10
4.49311
20
-6.72371
11
4.51561
21
-6.72371
0
LINE
8
BLACK
6
CONTINUOUS
10
4.51561
20
-6.72371
11
4.52686
21
-6.71808
0
LINE
8
BLACK
6
CONTINUOUS
10
4.52686
20
-6.71808
11
4.53248
21
-6.71246
0
LINE
8
BLACK
6
CONTINUOUS
10
4.53248
20
-6.71246
11
4.5381
21
-6.70121
0
LINE
8
BLACK
6
CONTINUOUS
10
4.5381
20
-6.70121
11
4.5381
21
-6.67309
0
LINE
8
BLACK
6
CONTINUOUS
10
4.5381
20
-6.67309
11
4.53248
21
-6.66184
0
LINE
8
BLACK
6
CONTINUOUS
10
4.53248
20
-6.66184
11
4.52686
21
-6.65621
0
LINE
8
BLACK
6
CONTINUOUS
10
4.52686
20
-6.65621
11
4.51561
21
-6.65059
0
LINE
8
BLACK
6
CONTINUOUS
10
4.51561
20
-6.65059
11
4.49311
21
-6.65059
0
LINE
8
BLACK
6
CONTINUOUS
10
4.49311
20
-6.65059
11
4.48186
21
-6.65621
0
LINE
8
BLACK
6
CONTINUOUS
10
4.48186
20
-6.65621
11
4.47624
21
-6.66184
0
LINE
8
BLACK
6
CONTINUOUS
10
4.47624
20
-6.66184
11
4.47061
21
-6.67309
0
LINE
8
BLACK
6
CONTINUOUS
10
4.67871
20
-6.72371
11
4.67871
21
-6.6056
0
LINE
8
BLACK
6
CONTINUOUS
10
4.72933
20
-6.72371
11
4.72933
21
-6.66184
0
LINE
8
BLACK
6
CONTINUOUS
10
4.72933
20
-6.66184
11
4.72371
21
-6.65059
0
LINE
8
BLACK
6
CONTINUOUS
10
4.72371
20
-6.65059
11
4.71246
21
-6.64497
0
LINE
8
BLACK
6
CONTINUOUS
10
4.71246
20
-6.64497
11
4.69558
21
-6.64497
0
LINE
8
BLACK
6
CONTINUOUS
10
4.69558
20
-6.64497
11
4.68434
21
-6.65059
0
LINE
8
BLACK
6
CONTINUOUS
10
4.68434
20
-6.65059
11
4.67871
21
-6.65621
0
LINE
8
BLACK
6
CONTINUOUS
10
4.80245
20
-6.72371
11
4.7912
21
-6.71808
0
LINE
8
BLACK
6
CONTINUOUS
10
4.7912
20
-6.71808
11
4.78557
21
-6.71246
0
LINE
8
BLACK
6
CONTINUOUS
10
4.78557
20
-6.71246
11
4.77995
21
-6.70121
0
LINE
8
BLACK
6
CONTINUOUS
10
4.77995
20
-6.70121
11
4.77995
21
-6.66746
0
LINE
8
BLACK
6
CONTINUOUS
10
4.77995
20
-6.66746
11
4.78557
21
-6.65621
0
LINE
8
BLACK
6
CONTINUOUS
10
4.78557
20
-6.65621
11
4.7912
21
-6.65059
0
LINE
8
BLACK
6
CONTINUOUS
10
4.7912
20
-6.65059
11
4.80245
21
-6.64497
0
LINE
8
BLACK
6
CONTINUOUS
10
4.80245
20
-6.64497
11
4.81932
21
-6.64497
0
LINE
8
BLACK
6
CONTINUOUS
10
4.81932
20
-6.64497
11
4.83057
21
-6.65059
0
LINE
8
BLACK
6
CONTINUOUS
10
4.83057
20
-6.65059
11
4.83619
21
-6.65621
0
LINE
8
BLACK
6
CONTINUOUS
10
4.83619
20
-6.65621
11
4.84182
21
-6.66746
0
LINE
8
BLACK
6
CONTINUOUS
10
4.84182
20
-6.66746
11
4.84182
21
-6.70121
0
LINE
8
BLACK
6
CONTINUOUS
10
4.84182
20
-6.70121
11
4.83619
21
-6.71246
0
LINE
8
BLACK
6
CONTINUOUS
10
4.83619
20
-6.71246
11
4.83057
21
-6.71808
0
LINE
8
BLACK
6
CONTINUOUS
10
4.83057
20
-6.71808
11
4.81932
21
-6.72371
0
LINE
8
BLACK
6
CONTINUOUS
10
4.81932
20
-6.72371
11
4.80245
21
-6.72371
0
LINE
8
BLACK
6
CONTINUOUS
10
4.90931
20
-6.72371
11
4.89806
21
-6.71808
0
LINE
8
BLACK
6
CONTINUOUS
10
4.89806
20
-6.71808
11
4.89244
21
-6.70683
0
LINE
8
BLACK
6
CONTINUOUS
10
4.89244
20
-6.70683
11
4.89244
21
-6.6056
0
LINE
8
BLACK
6
CONTINUOUS
10
4.9993
20
-6.71808
11
4.98805
21
-6.72371
0
LINE
8
BLACK
6
CONTINUOUS
10
4.98805
20
-6.72371
11
4.96555
21
-6.72371
0
LINE
8
BLACK
6
CONTINUOUS
10
4.96555
20
-6.72371
11
4.9543
21
-6.71808
0
LINE
8
BLACK
6
CONTINUOUS
10
4.9543
20
-6.71808
11
4.94868
21
-6.70683
0
LINE
8
BLACK
6
CONTINUOUS
10
4.94868
20
-6.70683
11
4.94868
21
-6.66184
0
LINE
8
BLACK
6
CONTINUOUS
10
4.94868
20
-6.66184
11
4.9543
21
-6.65059
0
LINE
8
BLACK
6
CONTINUOUS
10
4.9543
20
-6.65059
11
4.96555
21
-6.64497
0
LINE
8
BLACK
6
CONTINUOUS
10
4.96555
20
-6.64497
11
4.98805
21
-6.64497
0
LINE
8
BLACK
6
CONTINUOUS
10
4.98805
20
-6.64497
11
4.9993
21
-6.65059
0
LINE
8
BLACK
6
CONTINUOUS
10
4.9993
20
-6.65059
11
5.00492
21
-6.66184
0
LINE
8
BLACK
6
CONTINUOUS
10
5.00492
20
-6.66184
11
5.00492
21
-6.67309
0
LINE
8
BLACK
6
CONTINUOUS
10
5.00492
20
-6.67309
11
4.94868
21
-6.68434
0
LINE
8
BLACK
6
CONTINUOUS
10
5.04992
20
-6.71808
11
5.06116
21
-6.72371
0
LINE
8
BLACK
6
CONTINUOUS
10
5.06116
20
-6.72371
11
5.08366
21
-6.72371
0
LINE
8
BLACK
6
CONTINUOUS
10
5.08366
20
-6.72371
11
5.09491
21
-6.71808
0
LINE
8
BLACK
6
CONTINUOUS
10
5.09491
20
-6.71808
11
5.10053
21
-6.70683
0
LINE
8
BLACK
6
CONTINUOUS
10
5.10053
20
-6.70683
11
5.10053
21
-6.70121
0
LINE
8
BLACK
6
CONTINUOUS
10
5.10053
20
-6.70121
11
5.09491
21
-6.68996
0
LINE
8
BLACK
6
CONTINUOUS
10
5.09491
20
-6.68996
11
5.08366
21
-6.68434
0
LINE
8
BLACK
6
CONTINUOUS
10
5.08366
20
-6.68434
11
5.06679
21
-6.68434
0
LINE
8
BLACK
6
CONTINUOUS
10
5.06679
20
-6.68434
11
5.05554
21
-6.67871
0
LINE
8
BLACK
6
CONTINUOUS
10
5.05554
20
-6.67871
11
5.04992
21
-6.66746
0
LINE
8
BLACK
6
CONTINUOUS
10
5.04992
20
-6.66746
11
5.04992
21
-6.66184
0
LINE
8
BLACK
6
CONTINUOUS
10
5.04992
20
-6.66184
11
5.05554
21
-6.65059
0
LINE
8
BLACK
6
CONTINUOUS
10
5.05554
20
-6.65059
11
5.06679
21
-6.64497
0
LINE
8
BLACK
6
CONTINUOUS
10
5.06679
20
-6.64497
11
5.08366
21
-6.64497
0
LINE
8
BLACK
6
CONTINUOUS
10
5.08366
20
-6.64497
11
5.09491
21
-6.65059
0
LINE
8
BLACK
6
CONTINUOUS
10
5.1399
20
-6.7687
11
5.14553
21
-6.76308
0
LINE
8
BLACK
6
CONTINUOUS
10
5.14553
20
-6.76308
11
5.15678
21
-6.7462
0
LINE
8
BLACK
6
CONTINUOUS
10
5.15678
20
-6.7462
11
5.1624
21
-6.73496
0
LINE
8
BLACK
6
CONTINUOUS
10
5.1624
20
-6.73496
11
5.16803
21
-6.71808
0
LINE
8
BLACK
6
CONTINUOUS
10
5.16803
20
-6.71808
11
5.17365
21
-6.68996
0
LINE
8
BLACK
6
CONTINUOUS
10
5.17365
20
-6.68996
11
5.17365
21
-6.66746
0
LINE
8
BLACK
6
CONTINUOUS
10
5.17365
20
-6.66746
11
5.16803
21
-6.63934
0
LINE
8
BLACK
6
CONTINUOUS
10
5.16803
20
-6.63934
11
5.1624
21
-6.62247
0
LINE
8
BLACK
6
CONTINUOUS
10
5.1624
20
-6.62247
11
5.15678
21
-6.61122
0
LINE
8
BLACK
6
CONTINUOUS
10
5.15678
20
-6.61122
11
5.14553
21
-6.59435
0
LINE
8
BLACK
6
CONTINUOUS
10
5.14553
20
-6.59435
11
5.1399
21
-6.58872
  0
ENDSEC
  0
EOF
