%TF.GenerationSoftware,KiCad,Pcbnew,(5.1.10-1-10_14)*%
%TF.CreationDate,2022-02-21T21:09:16+11:00*%
%TF.ProjectId,FSK,46534b2e-6b69-4636-9164-5f7063625858,rev?*%
%TF.SameCoordinates,Original*%
%TF.FileFunction,Legend,Bot*%
%TF.FilePolarity,Positive*%
%FSLAX46Y46*%
G04 Gerber Fmt 4.6, Leading zero omitted, Abs format (unit mm)*
G04 Created by KiCad (PCBNEW (5.1.10-1-10_14)) date 2022-02-21 21:09:16*
%MOMM*%
%LPD*%
G01*
G04 APERTURE LIST*
%ADD10C,0.120000*%
%ADD11C,0.150000*%
G04 APERTURE END LIST*
D10*
%TO.C,J5*%
X151345000Y-83270000D02*
X148685000Y-83270000D01*
X151345000Y-83270000D02*
X151345000Y-90950000D01*
X151345000Y-90950000D02*
X148685000Y-90950000D01*
X148685000Y-83270000D02*
X148685000Y-90950000D01*
X148685000Y-80670000D02*
X148685000Y-82000000D01*
X150015000Y-80670000D02*
X148685000Y-80670000D01*
%TO.C,J9*%
X84330000Y-25000000D02*
X84330000Y-23670000D01*
X84330000Y-23670000D02*
X83000000Y-23670000D01*
X81730000Y-23670000D02*
X74050000Y-23670000D01*
X74050000Y-26330000D02*
X74050000Y-23670000D01*
X81730000Y-26330000D02*
X74050000Y-26330000D01*
X81730000Y-26330000D02*
X81730000Y-23670000D01*
%TO.C,J7*%
X84330000Y-128000000D02*
X84330000Y-126670000D01*
X84330000Y-126670000D02*
X83000000Y-126670000D01*
X81730000Y-126670000D02*
X74050000Y-126670000D01*
X74050000Y-129330000D02*
X74050000Y-126670000D01*
X81730000Y-129330000D02*
X74050000Y-129330000D01*
X81730000Y-129330000D02*
X81730000Y-126670000D01*
%TO.C,J6*%
X48670000Y-128000000D02*
X48670000Y-129330000D01*
X48670000Y-129330000D02*
X50000000Y-129330000D01*
X51270000Y-129330000D02*
X58950000Y-129330000D01*
X58950000Y-126670000D02*
X58950000Y-129330000D01*
X51270000Y-126670000D02*
X58950000Y-126670000D01*
X51270000Y-126670000D02*
X51270000Y-129330000D01*
%TO.C,J5*%
D11*
X150348333Y-78682380D02*
X150348333Y-79396666D01*
X150395952Y-79539523D01*
X150491190Y-79634761D01*
X150634047Y-79682380D01*
X150729285Y-79682380D01*
X149395952Y-78682380D02*
X149872142Y-78682380D01*
X149919761Y-79158571D01*
X149872142Y-79110952D01*
X149776904Y-79063333D01*
X149538809Y-79063333D01*
X149443571Y-79110952D01*
X149395952Y-79158571D01*
X149348333Y-79253809D01*
X149348333Y-79491904D01*
X149395952Y-79587142D01*
X149443571Y-79634761D01*
X149538809Y-79682380D01*
X149776904Y-79682380D01*
X149872142Y-79634761D01*
X149919761Y-79587142D01*
%TO.C,J9*%
X86317619Y-25333333D02*
X85603333Y-25333333D01*
X85460476Y-25380952D01*
X85365238Y-25476190D01*
X85317619Y-25619047D01*
X85317619Y-25714285D01*
X85317619Y-24809523D02*
X85317619Y-24619047D01*
X85365238Y-24523809D01*
X85412857Y-24476190D01*
X85555714Y-24380952D01*
X85746190Y-24333333D01*
X86127142Y-24333333D01*
X86222380Y-24380952D01*
X86270000Y-24428571D01*
X86317619Y-24523809D01*
X86317619Y-24714285D01*
X86270000Y-24809523D01*
X86222380Y-24857142D01*
X86127142Y-24904761D01*
X85889047Y-24904761D01*
X85793809Y-24857142D01*
X85746190Y-24809523D01*
X85698571Y-24714285D01*
X85698571Y-24523809D01*
X85746190Y-24428571D01*
X85793809Y-24380952D01*
X85889047Y-24333333D01*
%TO.C,J7*%
X86317619Y-128333333D02*
X85603333Y-128333333D01*
X85460476Y-128380952D01*
X85365238Y-128476190D01*
X85317619Y-128619047D01*
X85317619Y-128714285D01*
X86317619Y-127952380D02*
X86317619Y-127285714D01*
X85317619Y-127714285D01*
%TO.C,J6*%
X46682380Y-127666666D02*
X47396666Y-127666666D01*
X47539523Y-127619047D01*
X47634761Y-127523809D01*
X47682380Y-127380952D01*
X47682380Y-127285714D01*
X46682380Y-128571428D02*
X46682380Y-128380952D01*
X46730000Y-128285714D01*
X46777619Y-128238095D01*
X46920476Y-128142857D01*
X47110952Y-128095238D01*
X47491904Y-128095238D01*
X47587142Y-128142857D01*
X47634761Y-128190476D01*
X47682380Y-128285714D01*
X47682380Y-128476190D01*
X47634761Y-128571428D01*
X47587142Y-128619047D01*
X47491904Y-128666666D01*
X47253809Y-128666666D01*
X47158571Y-128619047D01*
X47110952Y-128571428D01*
X47063333Y-128476190D01*
X47063333Y-128285714D01*
X47110952Y-128190476D01*
X47158571Y-128142857D01*
X47253809Y-128095238D01*
%TD*%
M02*
