  0
SECTION
  2
HEADER
  9
$ANGBASE
  50
0.0
  9
$ANGDIR
  70
1
  9
$MEASUREMENT
  70
0
  0
ENDSEC
  0
SECTION
  2
TABLES
  0
TABLE
  2
LTYPE
  70
4
  0
LTYPE
  5
40F
  2
CONTINUOUS
  70
0
  3
Solid line
  72
65
  73
0
  40
0.0
  0
LTYPE
  5
410
  2
DASHDOT
 70
0
  3
Dash Dot ____ _ ____ _
 72
65
 73
4
 40
2.0
 49
1.25
 49
-0.25
 49
0.25
 49
-0.25
  0
LTYPE
  5
411
  2
DASHED
 70
0
  3
Dashed __ __ __ __ __
 72
65
 73
2
 40
0.75
 49
0.5
 49
-0.25
  0
LTYPE
  5
43B
  2
DOTTED
 70
0
  3
Dotted .  .  .  .
 72
65
 73
2
 40
0.2
 49
0.0
 49
-0.2
  0
ENDTAB
  0
TABLE
  2
STYLE
  70
4
  0
STYLE
  2
KICAD
  70
0
  40
0
  41
1
  42
1
  50
0
  71
0
  3
isocp.shx
  0
STYLE
  2
KICADB
  70
0
  40
0
  41
1
  42
1
  50
0
  71
0
  3
isocp.shx
  0
STYLE
  2
KICADI
  70
0
  40
0
  41
1
  42
1
  50
15
  71
0
  3
isocp.shx
  0
STYLE
  2
KICADBI
  70
0
  40
0
  41
1
  42
1
  50
15
  71
0
  3
isocp.shx
  0
ENDTAB
  0
TABLE
  2
LAYER
  70
1
  0
LAYER
  2
BLACK
  70
0
  62
7
  6
CONTINUOUS
  0
ENDTAB
  0
ENDSEC
  0
SECTION
  2
ENTITIES
0
LINE
8
BLACK
6
CONTINUOUS
10
2.16535
20
-1.53543
11
2.16535
21
-3.26772
0
LINE
8
BLACK
6
CONTINUOUS
10
1.1811
20
-1.53543
11
2.16535
21
-1.53543
0
LINE
8
BLACK
6
CONTINUOUS
10
1.1811
20
-1.29921
11
1.1811
21
-1.53543
0
LINE
8
BLACK
6
CONTINUOUS
10
1.1811
20
-1.29921
11
1.1811
21
-0.787402
0
LINE
8
BLACK
6
CONTINUOUS
10
1.1811
20
-3.26772
11
2.16535
21
-3.26772
0
LINE
8
BLACK
6
CONTINUOUS
10
1.1811
20
-5.23622
11
1.1811
21
-3.26772
0
LINE
8
BLACK
6
CONTINUOUS
10
6.10236
20
-5.23622
11
1.1811
21
-5.23622
0
LINE
8
BLACK
6
CONTINUOUS
10
6.10236
20
-0.787402
11
6.10236
21
-5.23622
0
LINE
8
BLACK
6
CONTINUOUS
10
1.1811
20
-0.787402
11
6.10236
21
-0.787402
0
LINE
8
BLACK
6
CONTINUOUS
10
1.27362
20
-0.974409
11
1.29331
21
-0.994094
0
LINE
8
BLACK
6
CONTINUOUS
10
1.29331
20
-0.974409
11
1.27362
21
-0.994094
0
LINE
8
BLACK
6
CONTINUOUS
10
1.27362
20
-5.02953
11
1.29331
21
-5.04921
0
LINE
8
BLACK
6
CONTINUOUS
10
1.29331
20
-5.02953
11
1.27362
21
-5.04921
0
LINE
8
BLACK
6
CONTINUOUS
10
1.3013
20
-0.907596
11
1.32098
21
-0.927281
0
LINE
8
BLACK
6
CONTINUOUS
10
1.32098
20
-0.907596
11
1.3013
21
-0.927281
0
LINE
8
BLACK
6
CONTINUOUS
10
1.3013
20
-1.04122
11
1.32098
21
-1.06091
0
LINE
8
BLACK
6
CONTINUOUS
10
1.32098
20
-1.04122
11
1.3013
21
-1.06091
0
LINE
8
BLACK
6
CONTINUOUS
10
1.3013
20
-4.96271
11
1.32098
21
-4.9824
0
LINE
8
BLACK
6
CONTINUOUS
10
1.32098
20
-4.96271
11
1.3013
21
-4.9824
0
LINE
8
BLACK
6
CONTINUOUS
10
1.3013
20
-5.09634
11
1.32098
21
-5.11603
0
LINE
8
BLACK
6
CONTINUOUS
10
1.32098
20
-5.09634
11
1.3013
21
-5.11603
0
LINE
8
BLACK
6
CONTINUOUS
10
1.36811
20
-0.879921
11
1.3878
21
-0.899606
0
LINE
8
BLACK
6
CONTINUOUS
10
1.3878
20
-0.879921
11
1.36811
21
-0.899606
0
LINE
8
BLACK
6
CONTINUOUS
10
1.36811
20
-1.0689
11
1.3878
21
-1.08858
0
LINE
8
BLACK
6
CONTINUOUS
10
1.3878
20
-1.0689
11
1.36811
21
-1.08858
0
LINE
8
BLACK
6
CONTINUOUS
10
1.36811
20
-4.93504
11
1.3878
21
-4.95472
0
LINE
8
BLACK
6
CONTINUOUS
10
1.3878
20
-4.93504
11
1.36811
21
-4.95472
0
LINE
8
BLACK
6
CONTINUOUS
10
1.36811
20
-5.12402
11
1.3878
21
-5.1437
0
LINE
8
BLACK
6
CONTINUOUS
10
1.3878
20
-5.12402
11
1.36811
21
-5.1437
0
LINE
8
BLACK
6
CONTINUOUS
10
1.43492
20
-0.907596
11
1.45461
21
-0.927281
0
LINE
8
BLACK
6
CONTINUOUS
10
1.45461
20
-0.907596
11
1.43492
21
-0.927281
0
LINE
8
BLACK
6
CONTINUOUS
10
1.43492
20
-1.04122
11
1.45461
21
-1.06091
0
LINE
8
BLACK
6
CONTINUOUS
10
1.45461
20
-1.04122
11
1.43492
21
-1.06091
0
LINE
8
BLACK
6
CONTINUOUS
10
1.43492
20
-4.96271
11
1.45461
21
-4.9824
0
LINE
8
BLACK
6
CONTINUOUS
10
1.45461
20
-4.96271
11
1.43492
21
-4.9824
0
LINE
8
BLACK
6
CONTINUOUS
10
1.43492
20
-5.09634
11
1.45461
21
-5.11603
0
LINE
8
BLACK
6
CONTINUOUS
10
1.45461
20
-5.09634
11
1.43492
21
-5.11603
0
LINE
8
BLACK
6
CONTINUOUS
10
1.4626
20
-0.974409
11
1.48228
21
-0.994094
0
LINE
8
BLACK
6
CONTINUOUS
10
1.48228
20
-0.974409
11
1.4626
21
-0.994094
0
LINE
8
BLACK
6
CONTINUOUS
10
1.4626
20
-5.02953
11
1.48228
21
-5.04921
0
LINE
8
BLACK
6
CONTINUOUS
10
1.48228
20
-5.02953
11
1.4626
21
-5.04921
0
LINE
8
BLACK
6
CONTINUOUS
10
5.80118
20
-0.974409
11
5.82087
21
-0.994094
0
LINE
8
BLACK
6
CONTINUOUS
10
5.82087
20
-0.974409
11
5.80118
21
-0.994094
0
LINE
8
BLACK
6
CONTINUOUS
10
5.80118
20
-5.02953
11
5.82087
21
-5.04921
0
LINE
8
BLACK
6
CONTINUOUS
10
5.82087
20
-5.02953
11
5.80118
21
-5.04921
0
LINE
8
BLACK
6
CONTINUOUS
10
5.82886
20
-0.907596
11
5.84854
21
-0.927281
0
LINE
8
BLACK
6
CONTINUOUS
10
5.84854
20
-0.907596
11
5.82886
21
-0.927281
0
LINE
8
BLACK
6
CONTINUOUS
10
5.82886
20
-1.04122
11
5.84854
21
-1.06091
0
LINE
8
BLACK
6
CONTINUOUS
10
5.84854
20
-1.04122
11
5.82886
21
-1.06091
0
LINE
8
BLACK
6
CONTINUOUS
10
5.82886
20
-4.96271
11
5.84854
21
-4.9824
0
LINE
8
BLACK
6
CONTINUOUS
10
5.84854
20
-4.96271
11
5.82886
21
-4.9824
0
LINE
8
BLACK
6
CONTINUOUS
10
5.82886
20
-5.09634
11
5.84854
21
-5.11603
0
LINE
8
BLACK
6
CONTINUOUS
10
5.84854
20
-5.09634
11
5.82886
21
-5.11603
0
LINE
8
BLACK
6
CONTINUOUS
10
5.89567
20
-0.879921
11
5.91535
21
-0.899606
0
LINE
8
BLACK
6
CONTINUOUS
10
5.91535
20
-0.879921
11
5.89567
21
-0.899606
0
LINE
8
BLACK
6
CONTINUOUS
10
5.89567
20
-1.0689
11
5.91535
21
-1.08858
0
LINE
8
BLACK
6
CONTINUOUS
10
5.91535
20
-1.0689
11
5.89567
21
-1.08858
0
LINE
8
BLACK
6
CONTINUOUS
10
5.89567
20
-4.93504
11
5.91535
21
-4.95472
0
LINE
8
BLACK
6
CONTINUOUS
10
5.91535
20
-4.93504
11
5.89567
21
-4.95472
0
LINE
8
BLACK
6
CONTINUOUS
10
5.89567
20
-5.12402
11
5.91535
21
-5.1437
0
LINE
8
BLACK
6
CONTINUOUS
10
5.91535
20
-5.12402
11
5.89567
21
-5.1437
0
LINE
8
BLACK
6
CONTINUOUS
10
5.96248
20
-0.907596
11
5.98217
21
-0.927281
0
LINE
8
BLACK
6
CONTINUOUS
10
5.98217
20
-0.907596
11
5.96248
21
-0.927281
0
LINE
8
BLACK
6
CONTINUOUS
10
5.96248
20
-1.04122
11
5.98217
21
-1.06091
0
LINE
8
BLACK
6
CONTINUOUS
10
5.98217
20
-1.04122
11
5.96248
21
-1.06091
0
LINE
8
BLACK
6
CONTINUOUS
10
5.96248
20
-4.96271
11
5.98217
21
-4.9824
0
LINE
8
BLACK
6
CONTINUOUS
10
5.98217
20
-4.96271
11
5.96248
21
-4.9824
0
LINE
8
BLACK
6
CONTINUOUS
10
5.96248
20
-5.09634
11
5.98217
21
-5.11603
0
LINE
8
BLACK
6
CONTINUOUS
10
5.98217
20
-5.09634
11
5.96248
21
-5.11603
0
LINE
8
BLACK
6
CONTINUOUS
10
5.99016
20
-0.974409
11
6.00984
21
-0.994094
0
LINE
8
BLACK
6
CONTINUOUS
10
6.00984
20
-0.974409
11
5.99016
21
-0.994094
0
LINE
8
BLACK
6
CONTINUOUS
10
5.99016
20
-5.02953
11
6.00984
21
-5.04921
0
LINE
8
BLACK
6
CONTINUOUS
10
6.00984
20
-5.02953
11
5.99016
21
-5.04921
0
CIRCLE
8
BLACK
10
4.3561
20
-1.8878
40
0.015748
0
CIRCLE
8
BLACK
10
4.3561
20
-1.98622
40
0.015748
0
CIRCLE
8
BLACK
10
4.3561
20
-2.13622
40
0.015748
0
CIRCLE
8
BLACK
10
4.3561
20
-2.23465
40
0.015748
0
CIRCLE
8
BLACK
10
4.3561
20
-2.38622
40
0.015748
0
CIRCLE
8
BLACK
10
4.3561
20
-2.48465
40
0.015748
0
CIRCLE
8
BLACK
10
4.5811
20
-4.08622
40
0.015748
0
CIRCLE
8
BLACK
10
4.6311
20
-1.83622
40
0.015748
0
CIRCLE
8
BLACK
10
4.6311
20
-1.93622
40
0.015748
0
CIRCLE
8
BLACK
10
4.6311
20
-2.03622
40
0.015748
0
CIRCLE
8
BLACK
10
4.6311
20
-2.13622
40
0.015748
0
CIRCLE
8
BLACK
10
4.6311
20
-2.23622
40
0.015748
0
CIRCLE
8
BLACK
10
4.6311
20
-2.33622
40
0.015748
0
CIRCLE
8
BLACK
10
4.6311
20
-2.43622
40
0.015748
0
CIRCLE
8
BLACK
10
4.6311
20
-2.53622
40
0.015748
0
CIRCLE
8
BLACK
10
4.76299
20
-1.56516
40
0.015748
0
CIRCLE
8
BLACK
10
4.86142
20
-1.56516
40
0.015748
0
CIRCLE
8
BLACK
10
4.8811
20
-3.83622
40
0.015748
0
CIRCLE
8
BLACK
10
4.8811
20
-4.28622
40
0.015748
0
CIRCLE
8
BLACK
10
4.9311
20
-1.83622
40
0.015748
0
CIRCLE
8
BLACK
10
4.9311
20
-1.93622
40
0.015748
0
CIRCLE
8
BLACK
10
4.9311
20
-2.03622
40
0.015748
0
CIRCLE
8
BLACK
10
4.9311
20
-2.13622
40
0.015748
0
CIRCLE
8
BLACK
10
4.9311
20
-2.23622
40
0.015748
0
CIRCLE
8
BLACK
10
4.9311
20
-2.33622
40
0.015748
0
CIRCLE
8
BLACK
10
4.9311
20
-2.43622
40
0.015748
0
CIRCLE
8
BLACK
10
4.9311
20
-2.53622
40
0.015748
0
CIRCLE
8
BLACK
10
4.9561
20
-3.33622
40
0.015748
0
CIRCLE
8
BLACK
10
4.9811
20
-3.83622
40
0.015748
0
CIRCLE
8
BLACK
10
4.9811
20
-4.08622
40
0.015748
0
CIRCLE
8
BLACK
10
4.9811
20
-4.28622
40
0.015748
0
CIRCLE
8
BLACK
10
5.0811
20
-3.83622
40
0.015748
0
CIRCLE
8
BLACK
10
5.0811
20
-4.28622
40
0.015748
0
CIRCLE
8
BLACK
10
5.3561
20
-3.33622
40
0.015748
0
CIRCLE
8
BLACK
10
5.3561
20
-3.93622
40
0.015748
0
CIRCLE
8
BLACK
10
5.3561
20
-4.28622
40
0.015748
0
CIRCLE
8
BLACK
10
5.7561
20
-3.93622
40
0.015748
0
CIRCLE
8
BLACK
10
5.7561
20
-4.28622
40
0.015748
0
LINE
8
BLACK
6
CONTINUOUS
10
5.9061
20
-3.8185
11
5.9061
21
-3.85394
0
LINE
8
BLACK
6
CONTINUOUS
10
5.88839
20
-3.83622
11
5.92382
21
-3.83622
0
LINE
8
BLACK
6
CONTINUOUS
10
5.9061
20
-3.9185
11
5.9061
21
-3.95394
0
LINE
8
BLACK
6
CONTINUOUS
10
5.88839
20
-3.93622
11
5.92382
21
-3.93622
0
LINE
8
BLACK
6
CONTINUOUS
10
5.9061
20
-4.1685
11
5.9061
21
-4.20394
0
LINE
8
BLACK
6
CONTINUOUS
10
5.88839
20
-4.18622
11
5.92382
21
-4.18622
0
LINE
8
BLACK
6
CONTINUOUS
10
5.9061
20
-4.2685
11
5.9061
21
-4.30394
0
LINE
8
BLACK
6
CONTINUOUS
10
5.88839
20
-4.28622
11
5.92382
21
-4.28622
0
LINE
8
BLACK
6
CONTINUOUS
10
2.6961
20
-1.36322
11
2.6961
21
-1.33678
0
LINE
8
BLACK
6
CONTINUOUS
10
2.6961
20
-1.33678
11
2.66965
21
-1.33678
0
LINE
8
BLACK
6
CONTINUOUS
10
2.66965
20
-1.33678
11
2.66965
21
-1.36322
0
LINE
8
BLACK
6
CONTINUOUS
10
2.66965
20
-1.36322
11
2.6961
21
-1.36322
0
LINE
8
BLACK
6
CONTINUOUS
10
2.6961
20
-4.61322
11
2.6961
21
-4.58678
0
LINE
8
BLACK
6
CONTINUOUS
10
2.6961
20
-4.58678
11
2.66965
21
-4.58678
0
LINE
8
BLACK
6
CONTINUOUS
10
2.66965
20
-4.58678
11
2.66965
21
-4.61322
0
LINE
8
BLACK
6
CONTINUOUS
10
2.66965
20
-4.61322
11
2.6961
21
-4.61322
0
LINE
8
BLACK
6
CONTINUOUS
10
2.79452
20
-1.36322
11
2.79452
21
-1.33678
0
LINE
8
BLACK
6
CONTINUOUS
10
2.79452
20
-1.33678
11
2.76808
21
-1.33678
0
LINE
8
BLACK
6
CONTINUOUS
10
2.76808
20
-1.33678
11
2.76808
21
-1.36322
0
LINE
8
BLACK
6
CONTINUOUS
10
2.76808
20
-1.36322
11
2.79452
21
-1.36322
0
LINE
8
BLACK
6
CONTINUOUS
10
2.79452
20
-4.61322
11
2.79452
21
-4.58678
0
LINE
8
BLACK
6
CONTINUOUS
10
2.79452
20
-4.58678
11
2.76808
21
-4.58678
0
LINE
8
BLACK
6
CONTINUOUS
10
2.76808
20
-4.58678
11
2.76808
21
-4.61322
0
LINE
8
BLACK
6
CONTINUOUS
10
2.76808
20
-4.61322
11
2.79452
21
-4.61322
0
LINE
8
BLACK
6
CONTINUOUS
10
2.89295
20
-1.36322
11
2.89295
21
-1.33678
0
LINE
8
BLACK
6
CONTINUOUS
10
2.89295
20
-1.33678
11
2.8665
21
-1.33678
0
LINE
8
BLACK
6
CONTINUOUS
10
2.8665
20
-1.33678
11
2.8665
21
-1.36322
0
LINE
8
BLACK
6
CONTINUOUS
10
2.8665
20
-1.36322
11
2.89295
21
-1.36322
0
LINE
8
BLACK
6
CONTINUOUS
10
2.89295
20
-4.61322
11
2.89295
21
-4.58678
0
LINE
8
BLACK
6
CONTINUOUS
10
2.89295
20
-4.58678
11
2.8665
21
-4.58678
0
LINE
8
BLACK
6
CONTINUOUS
10
2.8665
20
-4.58678
11
2.8665
21
-4.61322
0
LINE
8
BLACK
6
CONTINUOUS
10
2.8665
20
-4.61322
11
2.89295
21
-4.61322
0
LINE
8
BLACK
6
CONTINUOUS
10
2.99137
20
-1.36322
11
2.99137
21
-1.33678
0
LINE
8
BLACK
6
CONTINUOUS
10
2.99137
20
-1.33678
11
2.96493
21
-1.33678
0
LINE
8
BLACK
6
CONTINUOUS
10
2.96493
20
-1.33678
11
2.96493
21
-1.36322
0
LINE
8
BLACK
6
CONTINUOUS
10
2.96493
20
-1.36322
11
2.99137
21
-1.36322
0
LINE
8
BLACK
6
CONTINUOUS
10
2.99137
20
-4.61322
11
2.99137
21
-4.58678
0
LINE
8
BLACK
6
CONTINUOUS
10
2.99137
20
-4.58678
11
2.96493
21
-4.58678
0
LINE
8
BLACK
6
CONTINUOUS
10
2.96493
20
-4.58678
11
2.96493
21
-4.61322
0
LINE
8
BLACK
6
CONTINUOUS
10
2.96493
20
-4.61322
11
2.99137
21
-4.61322
0
LINE
8
BLACK
6
CONTINUOUS
10
3.0898
20
-1.36322
11
3.0898
21
-1.33678
0
LINE
8
BLACK
6
CONTINUOUS
10
3.0898
20
-1.33678
11
3.06335
21
-1.33678
0
LINE
8
BLACK
6
CONTINUOUS
10
3.06335
20
-1.33678
11
3.06335
21
-1.36322
0
LINE
8
BLACK
6
CONTINUOUS
10
3.06335
20
-1.36322
11
3.0898
21
-1.36322
0
LINE
8
BLACK
6
CONTINUOUS
10
3.0898
20
-4.61322
11
3.0898
21
-4.58678
0
LINE
8
BLACK
6
CONTINUOUS
10
3.0898
20
-4.58678
11
3.06335
21
-4.58678
0
LINE
8
BLACK
6
CONTINUOUS
10
3.06335
20
-4.58678
11
3.06335
21
-4.61322
0
LINE
8
BLACK
6
CONTINUOUS
10
3.06335
20
-4.61322
11
3.0898
21
-4.61322
0
LINE
8
BLACK
6
CONTINUOUS
10
3.18822
20
-1.36322
11
3.18822
21
-1.33678
0
LINE
8
BLACK
6
CONTINUOUS
10
3.18822
20
-1.33678
11
3.16178
21
-1.33678
0
LINE
8
BLACK
6
CONTINUOUS
10
3.16178
20
-1.33678
11
3.16178
21
-1.36322
0
LINE
8
BLACK
6
CONTINUOUS
10
3.16178
20
-1.36322
11
3.18822
21
-1.36322
0
LINE
8
BLACK
6
CONTINUOUS
10
3.18822
20
-4.61322
11
3.18822
21
-4.58678
0
LINE
8
BLACK
6
CONTINUOUS
10
3.18822
20
-4.58678
11
3.16178
21
-4.58678
0
LINE
8
BLACK
6
CONTINUOUS
10
3.16178
20
-4.58678
11
3.16178
21
-4.61322
0
LINE
8
BLACK
6
CONTINUOUS
10
3.16178
20
-4.61322
11
3.18822
21
-4.61322
0
LINE
8
BLACK
6
CONTINUOUS
10
1.9685
20
-5.05906
11
1.98819
21
-5.03937
0
LINE
8
BLACK
6
CONTINUOUS
10
1.98819
20
-5.03937
11
1.9685
21
-5.01969
0
LINE
8
BLACK
6
CONTINUOUS
10
1.9685
20
-5.01969
11
1.94882
21
-5.03937
0
LINE
8
BLACK
6
CONTINUOUS
10
1.94882
20
-5.03937
11
1.9685
21
-5.05906
0
LINE
8
BLACK
6
CONTINUOUS
10
2.0685
20
-5.05906
11
2.08819
21
-5.03937
0
LINE
8
BLACK
6
CONTINUOUS
10
2.08819
20
-5.03937
11
2.0685
21
-5.01969
0
LINE
8
BLACK
6
CONTINUOUS
10
2.0685
20
-5.01969
11
2.04882
21
-5.03937
0
LINE
8
BLACK
6
CONTINUOUS
10
2.04882
20
-5.03937
11
2.0685
21
-5.05906
0
LINE
8
BLACK
6
CONTINUOUS
10
2.1685
20
-5.05906
11
2.18819
21
-5.03937
0
LINE
8
BLACK
6
CONTINUOUS
10
2.18819
20
-5.03937
11
2.1685
21
-5.01969
0
LINE
8
BLACK
6
CONTINUOUS
10
2.1685
20
-5.01969
11
2.14882
21
-5.03937
0
LINE
8
BLACK
6
CONTINUOUS
10
2.14882
20
-5.03937
11
2.1685
21
-5.05906
0
LINE
8
BLACK
6
CONTINUOUS
10
2.2685
20
-5.05906
11
2.28819
21
-5.03937
0
LINE
8
BLACK
6
CONTINUOUS
10
2.28819
20
-5.03937
11
2.2685
21
-5.01969
0
LINE
8
BLACK
6
CONTINUOUS
10
2.2685
20
-5.01969
11
2.24882
21
-5.03937
0
LINE
8
BLACK
6
CONTINUOUS
10
2.24882
20
-5.03937
11
2.2685
21
-5.05906
0
LINE
8
BLACK
6
CONTINUOUS
10
2.96772
20
-1.00394
11
2.9874
21
-0.984252
0
LINE
8
BLACK
6
CONTINUOUS
10
2.9874
20
-0.984252
11
2.96772
21
-0.964567
0
LINE
8
BLACK
6
CONTINUOUS
10
2.96772
20
-0.964567
11
2.94803
21
-0.984252
0
LINE
8
BLACK
6
CONTINUOUS
10
2.94803
20
-0.984252
11
2.96772
21
-1.00394
0
LINE
8
BLACK
6
CONTINUOUS
10
2.96772
20
-5.05906
11
2.9874
21
-5.03937
0
LINE
8
BLACK
6
CONTINUOUS
10
2.9874
20
-5.03937
11
2.96772
21
-5.01969
0
LINE
8
BLACK
6
CONTINUOUS
10
2.96772
20
-5.01969
11
2.94803
21
-5.03937
0
LINE
8
BLACK
6
CONTINUOUS
10
2.94803
20
-5.03937
11
2.96772
21
-5.05906
0
LINE
8
BLACK
6
CONTINUOUS
10
3.06772
20
-1.00394
11
3.0874
21
-0.984252
0
LINE
8
BLACK
6
CONTINUOUS
10
3.0874
20
-0.984252
11
3.06772
21
-0.964567
0
LINE
8
BLACK
6
CONTINUOUS
10
3.06772
20
-0.964567
11
3.04803
21
-0.984252
0
LINE
8
BLACK
6
CONTINUOUS
10
3.04803
20
-0.984252
11
3.06772
21
-1.00394
0
LINE
8
BLACK
6
CONTINUOUS
10
3.06772
20
-5.05906
11
3.0874
21
-5.03937
0
LINE
8
BLACK
6
CONTINUOUS
10
3.0874
20
-5.03937
11
3.06772
21
-5.01969
0
LINE
8
BLACK
6
CONTINUOUS
10
3.06772
20
-5.01969
11
3.04803
21
-5.03937
0
LINE
8
BLACK
6
CONTINUOUS
10
3.04803
20
-5.03937
11
3.06772
21
-5.05906
0
LINE
8
BLACK
6
CONTINUOUS
10
3.16772
20
-1.00394
11
3.1874
21
-0.984252
0
LINE
8
BLACK
6
CONTINUOUS
10
3.1874
20
-0.984252
11
3.16772
21
-0.964567
0
LINE
8
BLACK
6
CONTINUOUS
10
3.16772
20
-0.964567
11
3.14803
21
-0.984252
0
LINE
8
BLACK
6
CONTINUOUS
10
3.14803
20
-0.984252
11
3.16772
21
-1.00394
0
LINE
8
BLACK
6
CONTINUOUS
10
3.16772
20
-5.05906
11
3.1874
21
-5.03937
0
LINE
8
BLACK
6
CONTINUOUS
10
3.1874
20
-5.03937
11
3.16772
21
-5.01969
0
LINE
8
BLACK
6
CONTINUOUS
10
3.16772
20
-5.01969
11
3.14803
21
-5.03937
0
LINE
8
BLACK
6
CONTINUOUS
10
3.14803
20
-5.03937
11
3.16772
21
-5.05906
0
LINE
8
BLACK
6
CONTINUOUS
10
3.26772
20
-1.00394
11
3.2874
21
-0.984252
0
LINE
8
BLACK
6
CONTINUOUS
10
3.2874
20
-0.984252
11
3.26772
21
-0.964567
0
LINE
8
BLACK
6
CONTINUOUS
10
3.26772
20
-0.964567
11
3.24803
21
-0.984252
0
LINE
8
BLACK
6
CONTINUOUS
10
3.24803
20
-0.984252
11
3.26772
21
-1.00394
0
LINE
8
BLACK
6
CONTINUOUS
10
3.26772
20
-5.05906
11
3.2874
21
-5.03937
0
LINE
8
BLACK
6
CONTINUOUS
10
3.2874
20
-5.03937
11
3.26772
21
-5.01969
0
LINE
8
BLACK
6
CONTINUOUS
10
3.26772
20
-5.01969
11
3.24803
21
-5.03937
0
LINE
8
BLACK
6
CONTINUOUS
10
3.24803
20
-5.03937
11
3.26772
21
-5.05906
0
LINE
8
BLACK
6
CONTINUOUS
10
5.4811
20
-3.25591
11
5.50079
21
-3.23622
0
LINE
8
BLACK
6
CONTINUOUS
10
5.50079
20
-3.23622
11
5.4811
21
-3.21654
0
LINE
8
BLACK
6
CONTINUOUS
10
5.4811
20
-3.21654
11
5.46142
21
-3.23622
0
LINE
8
BLACK
6
CONTINUOUS
10
5.46142
20
-3.23622
11
5.4811
21
-3.25591
0
LINE
8
BLACK
6
CONTINUOUS
10
5.4811
20
-3.35591
11
5.50079
21
-3.33622
0
LINE
8
BLACK
6
CONTINUOUS
10
5.50079
20
-3.33622
11
5.4811
21
-3.31654
0
LINE
8
BLACK
6
CONTINUOUS
10
5.4811
20
-3.31654
11
5.46142
21
-3.33622
0
LINE
8
BLACK
6
CONTINUOUS
10
5.46142
20
-3.33622
11
5.4811
21
-3.35591
0
LINE
8
BLACK
6
CONTINUOUS
10
5.4811
20
-3.45591
11
5.50079
21
-3.43622
0
LINE
8
BLACK
6
CONTINUOUS
10
5.50079
20
-3.43622
11
5.4811
21
-3.41654
0
LINE
8
BLACK
6
CONTINUOUS
10
5.4811
20
-3.41654
11
5.46142
21
-3.43622
0
LINE
8
BLACK
6
CONTINUOUS
10
5.46142
20
-3.43622
11
5.4811
21
-3.45591
0
LINE
8
BLACK
6
CONTINUOUS
10
5.66417
20
-3.25591
11
5.68386
21
-3.23622
0
LINE
8
BLACK
6
CONTINUOUS
10
5.68386
20
-3.23622
11
5.66417
21
-3.21654
0
LINE
8
BLACK
6
CONTINUOUS
10
5.66417
20
-3.21654
11
5.64449
21
-3.23622
0
LINE
8
BLACK
6
CONTINUOUS
10
5.64449
20
-3.23622
11
5.66417
21
-3.25591
0
LINE
8
BLACK
6
CONTINUOUS
10
5.66417
20
-3.35591
11
5.68386
21
-3.33622
0
LINE
8
BLACK
6
CONTINUOUS
10
5.68386
20
-3.33622
11
5.66417
21
-3.31654
0
LINE
8
BLACK
6
CONTINUOUS
10
5.66417
20
-3.31654
11
5.64449
21
-3.33622
0
LINE
8
BLACK
6
CONTINUOUS
10
5.64449
20
-3.33622
11
5.66417
21
-3.35591
0
LINE
8
BLACK
6
CONTINUOUS
10
5.66417
20
-3.45591
11
5.68386
21
-3.43622
0
LINE
8
BLACK
6
CONTINUOUS
10
5.68386
20
-3.43622
11
5.66417
21
-3.41654
0
LINE
8
BLACK
6
CONTINUOUS
10
5.66417
20
-3.41654
11
5.64449
21
-3.43622
0
LINE
8
BLACK
6
CONTINUOUS
10
5.64449
20
-3.43622
11
5.66417
21
-3.45591
0
LINE
8
BLACK
6
CONTINUOUS
10
5.78268
20
-1.90059
11
5.80236
21
-1.88091
0
LINE
8
BLACK
6
CONTINUOUS
10
5.80236
20
-1.88091
11
5.78268
21
-1.86122
0
LINE
8
BLACK
6
CONTINUOUS
10
5.78268
20
-1.86122
11
5.76299
21
-1.88091
0
LINE
8
BLACK
6
CONTINUOUS
10
5.76299
20
-1.88091
11
5.78268
21
-1.90059
0
LINE
8
BLACK
6
CONTINUOUS
10
5.78268
20
-2.00965
11
5.80236
21
-1.98996
0
LINE
8
BLACK
6
CONTINUOUS
10
5.80236
20
-1.98996
11
5.78268
21
-1.97028
0
LINE
8
BLACK
6
CONTINUOUS
10
5.78268
20
-1.97028
11
5.76299
21
-1.98996
0
LINE
8
BLACK
6
CONTINUOUS
10
5.76299
20
-1.98996
11
5.78268
21
-2.00965
0
LINE
8
BLACK
6
CONTINUOUS
10
5.78268
20
-2.1187
11
5.80236
21
-2.09902
0
LINE
8
BLACK
6
CONTINUOUS
10
5.80236
20
-2.09902
11
5.78268
21
-2.07933
0
LINE
8
BLACK
6
CONTINUOUS
10
5.78268
20
-2.07933
11
5.76299
21
-2.09902
0
LINE
8
BLACK
6
CONTINUOUS
10
5.76299
20
-2.09902
11
5.78268
21
-2.1187
0
LINE
8
BLACK
6
CONTINUOUS
10
5.78268
20
-2.22776
11
5.80236
21
-2.20807
0
LINE
8
BLACK
6
CONTINUOUS
10
5.80236
20
-2.20807
11
5.78268
21
-2.18839
0
LINE
8
BLACK
6
CONTINUOUS
10
5.78268
20
-2.18839
11
5.76299
21
-2.20807
0
LINE
8
BLACK
6
CONTINUOUS
10
5.76299
20
-2.20807
11
5.78268
21
-2.22776
0
LINE
8
BLACK
6
CONTINUOUS
10
5.78268
20
-2.33681
11
5.80236
21
-2.31713
0
LINE
8
BLACK
6
CONTINUOUS
10
5.80236
20
-2.31713
11
5.78268
21
-2.29744
0
LINE
8
BLACK
6
CONTINUOUS
10
5.78268
20
-2.29744
11
5.76299
21
-2.31713
0
LINE
8
BLACK
6
CONTINUOUS
10
5.76299
20
-2.31713
11
5.78268
21
-2.33681
0
LINE
8
BLACK
6
CONTINUOUS
10
5.89449
20
-1.95512
11
5.91417
21
-1.93543
0
LINE
8
BLACK
6
CONTINUOUS
10
5.91417
20
-1.93543
11
5.89449
21
-1.91575
0
LINE
8
BLACK
6
CONTINUOUS
10
5.89449
20
-1.91575
11
5.8748
21
-1.93543
0
LINE
8
BLACK
6
CONTINUOUS
10
5.8748
20
-1.93543
11
5.89449
21
-1.95512
0
LINE
8
BLACK
6
CONTINUOUS
10
5.89449
20
-2.06417
11
5.91417
21
-2.04449
0
LINE
8
BLACK
6
CONTINUOUS
10
5.91417
20
-2.04449
11
5.89449
21
-2.0248
0
LINE
8
BLACK
6
CONTINUOUS
10
5.89449
20
-2.0248
11
5.8748
21
-2.04449
0
LINE
8
BLACK
6
CONTINUOUS
10
5.8748
20
-2.04449
11
5.89449
21
-2.06417
0
LINE
8
BLACK
6
CONTINUOUS
10
5.89449
20
-2.17323
11
5.91417
21
-2.15354
0
LINE
8
BLACK
6
CONTINUOUS
10
5.91417
20
-2.15354
11
5.89449
21
-2.13386
0
LINE
8
BLACK
6
CONTINUOUS
10
5.89449
20
-2.13386
11
5.8748
21
-2.15354
0
LINE
8
BLACK
6
CONTINUOUS
10
5.8748
20
-2.15354
11
5.89449
21
-2.17323
0
LINE
8
BLACK
6
CONTINUOUS
10
5.89449
20
-2.28228
11
5.91417
21
-2.2626
0
LINE
8
BLACK
6
CONTINUOUS
10
5.91417
20
-2.2626
11
5.89449
21
-2.24291
0
LINE
8
BLACK
6
CONTINUOUS
10
5.89449
20
-2.24291
11
5.8748
21
-2.2626
0
LINE
8
BLACK
6
CONTINUOUS
10
5.8748
20
-2.2626
11
5.89449
21
-2.28228
0
LINE
8
BLACK
6
CONTINUOUS
10
5.9061
20
-3.24803
11
5.92579
21
-3.22835
0
LINE
8
BLACK
6
CONTINUOUS
10
5.92579
20
-3.22835
11
5.9061
21
-3.20866
0
LINE
8
BLACK
6
CONTINUOUS
10
5.9061
20
-3.20866
11
5.88642
21
-3.22835
0
LINE
8
BLACK
6
CONTINUOUS
10
5.88642
20
-3.22835
11
5.9061
21
-3.24803
0
LINE
8
BLACK
6
CONTINUOUS
10
5.9061
20
-3.34803
11
5.92579
21
-3.32835
0
LINE
8
BLACK
6
CONTINUOUS
10
5.92579
20
-3.32835
11
5.9061
21
-3.30866
0
LINE
8
BLACK
6
CONTINUOUS
10
5.9061
20
-3.30866
11
5.88642
21
-3.32835
0
LINE
8
BLACK
6
CONTINUOUS
10
5.88642
20
-3.32835
11
5.9061
21
-3.34803
0
LINE
8
BLACK
6
CONTINUOUS
10
5.9061
20
-3.44803
11
5.92579
21
-3.42835
0
LINE
8
BLACK
6
CONTINUOUS
10
5.92579
20
-3.42835
11
5.9061
21
-3.40866
0
LINE
8
BLACK
6
CONTINUOUS
10
5.9061
20
-3.40866
11
5.88642
21
-3.42835
0
LINE
8
BLACK
6
CONTINUOUS
10
5.88642
20
-3.42835
11
5.9061
21
-3.44803
0
LINE
8
BLACK
6
CONTINUOUS
10
5.9061
20
-3.54803
11
5.92579
21
-3.52835
0
LINE
8
BLACK
6
CONTINUOUS
10
5.92579
20
-3.52835
11
5.9061
21
-3.50866
0
LINE
8
BLACK
6
CONTINUOUS
10
5.9061
20
-3.50866
11
5.88642
21
-3.52835
0
LINE
8
BLACK
6
CONTINUOUS
10
5.88642
20
-3.52835
11
5.9061
21
-3.54803
0
LINE
8
BLACK
6
CONTINUOUS
10
2.25335
20
-4.85335
11
2.29665
21
-4.89665
0
LINE
8
BLACK
6
CONTINUOUS
10
2.29665
20
-4.85335
11
2.25335
21
-4.89665
0
CIRCLE
8
BLACK
10
2.275
20
-4.875
40
0.0216535
0
LINE
8
BLACK
6
CONTINUOUS
10
2.65335
20
-4.85335
11
2.69665
21
-4.89665
0
LINE
8
BLACK
6
CONTINUOUS
10
2.69665
20
-4.85335
11
2.65335
21
-4.89665
0
CIRCLE
8
BLACK
10
2.675
20
-4.875
40
0.0216535
0
LINE
8
BLACK
6
CONTINUOUS
10
1.97638
20
-3.86772
11
2.02362
21
-3.91496
0
LINE
8
BLACK
6
CONTINUOUS
10
2.02362
20
-3.86772
11
1.97638
21
-3.91496
0
LINE
8
BLACK
6
CONTINUOUS
10
2
20
-3.86772
11
2
21
-3.91496
0
LINE
8
BLACK
6
CONTINUOUS
10
1.97638
20
-3.89134
11
2.02362
21
-3.89134
0
LINE
8
BLACK
6
CONTINUOUS
10
1.97638
20
-4.57638
11
2.02362
21
-4.62362
0
LINE
8
BLACK
6
CONTINUOUS
10
2.02362
20
-4.57638
11
1.97638
21
-4.62362
0
LINE
8
BLACK
6
CONTINUOUS
10
2
20
-4.57638
11
2
21
-4.62362
0
LINE
8
BLACK
6
CONTINUOUS
10
1.97638
20
-4.6
11
2.02362
21
-4.6
0
LINE
8
BLACK
6
CONTINUOUS
10
2.25138
20
-3.86772
11
2.29862
21
-3.91496
0
LINE
8
BLACK
6
CONTINUOUS
10
2.29862
20
-3.86772
11
2.25138
21
-3.91496
0
LINE
8
BLACK
6
CONTINUOUS
10
2.275
20
-3.86772
11
2.275
21
-3.91496
0
LINE
8
BLACK
6
CONTINUOUS
10
2.25138
20
-3.89134
11
2.29862
21
-3.89134
0
LINE
8
BLACK
6
CONTINUOUS
10
2.25138
20
-4.57638
11
2.29862
21
-4.62362
0
LINE
8
BLACK
6
CONTINUOUS
10
2.29862
20
-4.57638
11
2.25138
21
-4.62362
0
LINE
8
BLACK
6
CONTINUOUS
10
2.275
20
-4.57638
11
2.275
21
-4.62362
0
LINE
8
BLACK
6
CONTINUOUS
10
2.25138
20
-4.6
11
2.29862
21
-4.6
0
LINE
8
BLACK
6
CONTINUOUS
10
1.31496
20
-0.92126
11
1.44094
21
-1.04724
0
LINE
8
BLACK
6
CONTINUOUS
10
1.44094
20
-0.92126
11
1.31496
21
-1.04724
0
LINE
8
BLACK
6
CONTINUOUS
10
1.4225
20
-1.02879
11
1.4225
21
-0.939709
0
LINE
8
BLACK
6
CONTINUOUS
10
1.4225
20
-0.939709
11
1.33341
21
-0.939709
0
LINE
8
BLACK
6
CONTINUOUS
10
1.33341
20
-0.939709
11
1.33341
21
-1.02879
0
LINE
8
BLACK
6
CONTINUOUS
10
1.33341
20
-1.02879
11
1.4225
21
-1.02879
0
LINE
8
BLACK
6
CONTINUOUS
10
1.31496
20
-4.97638
11
1.44094
21
-5.10236
0
LINE
8
BLACK
6
CONTINUOUS
10
1.44094
20
-4.97638
11
1.31496
21
-5.10236
0
LINE
8
BLACK
6
CONTINUOUS
10
1.4225
20
-5.08391
11
1.4225
21
-4.99483
0
LINE
8
BLACK
6
CONTINUOUS
10
1.4225
20
-4.99483
11
1.33341
21
-4.99483
0
LINE
8
BLACK
6
CONTINUOUS
10
1.33341
20
-4.99483
11
1.33341
21
-5.08391
0
LINE
8
BLACK
6
CONTINUOUS
10
1.33341
20
-5.08391
11
1.4225
21
-5.08391
0
LINE
8
BLACK
6
CONTINUOUS
10
5.7315
20
-1.5439
11
5.85748
21
-1.66988
0
LINE
8
BLACK
6
CONTINUOUS
10
5.85748
20
-1.5439
11
5.7315
21
-1.66988
0
LINE
8
BLACK
6
CONTINUOUS
10
5.83903
20
-1.65143
11
5.83903
21
-1.56235
0
LINE
8
BLACK
6
CONTINUOUS
10
5.83903
20
-1.56235
11
5.74995
21
-1.56235
0
LINE
8
BLACK
6
CONTINUOUS
10
5.74995
20
-1.56235
11
5.74995
21
-1.65143
0
LINE
8
BLACK
6
CONTINUOUS
10
5.74995
20
-1.65143
11
5.83903
21
-1.65143
0
LINE
8
BLACK
6
CONTINUOUS
10
5.7315
20
-2.52815
11
5.85748
21
-2.65413
0
LINE
8
BLACK
6
CONTINUOUS
10
5.85748
20
-2.52815
11
5.7315
21
-2.65413
0
LINE
8
BLACK
6
CONTINUOUS
10
5.83903
20
-2.63568
11
5.83903
21
-2.5466
0
LINE
8
BLACK
6
CONTINUOUS
10
5.83903
20
-2.5466
11
5.74995
21
-2.5466
0
LINE
8
BLACK
6
CONTINUOUS
10
5.74995
20
-2.5466
11
5.74995
21
-2.63568
0
LINE
8
BLACK
6
CONTINUOUS
10
5.74995
20
-2.63568
11
5.83903
21
-2.63568
0
LINE
8
BLACK
6
CONTINUOUS
10
5.84252
20
-0.92126
11
5.9685
21
-1.04724
0
LINE
8
BLACK
6
CONTINUOUS
10
5.9685
20
-0.92126
11
5.84252
21
-1.04724
0
LINE
8
BLACK
6
CONTINUOUS
10
5.95005
20
-1.02879
11
5.95005
21
-0.939709
0
LINE
8
BLACK
6
CONTINUOUS
10
5.95005
20
-0.939709
11
5.86097
21
-0.939709
0
LINE
8
BLACK
6
CONTINUOUS
10
5.86097
20
-0.939709
11
5.86097
21
-1.02879
0
LINE
8
BLACK
6
CONTINUOUS
10
5.86097
20
-1.02879
11
5.95005
21
-1.02879
0
LINE
8
BLACK
6
CONTINUOUS
10
5.84252
20
-4.97638
11
5.9685
21
-5.10236
0
LINE
8
BLACK
6
CONTINUOUS
10
5.9685
20
-4.97638
11
5.84252
21
-5.10236
0
LINE
8
BLACK
6
CONTINUOUS
10
5.95005
20
-5.08391
11
5.95005
21
-4.99483
0
LINE
8
BLACK
6
CONTINUOUS
10
5.95005
20
-4.99483
11
5.86097
21
-4.99483
0
LINE
8
BLACK
6
CONTINUOUS
10
5.86097
20
-4.99483
11
5.86097
21
-5.08391
0
LINE
8
BLACK
6
CONTINUOUS
10
5.86097
20
-5.08391
11
5.95005
21
-5.08391
0
LINE
8
BLACK
6
CONTINUOUS
10
1.29289
20
-5.42056
11
1.29289
21
-5.30245
0
LINE
8
BLACK
6
CONTINUOUS
10
1.29289
20
-5.30245
11
1.32101
21
-5.30245
0
LINE
8
BLACK
6
CONTINUOUS
10
1.32101
20
-5.30245
11
1.33788
21
-5.30807
0
LINE
8
BLACK
6
CONTINUOUS
10
1.33788
20
-5.30807
11
1.34913
21
-5.31932
0
LINE
8
BLACK
6
CONTINUOUS
10
1.34913
20
-5.31932
11
1.35475
21
-5.33057
0
LINE
8
BLACK
6
CONTINUOUS
10
1.35475
20
-5.33057
11
1.36038
21
-5.35307
0
LINE
8
BLACK
6
CONTINUOUS
10
1.36038
20
-5.35307
11
1.36038
21
-5.36994
0
LINE
8
BLACK
6
CONTINUOUS
10
1.36038
20
-5.36994
11
1.35475
21
-5.39244
0
LINE
8
BLACK
6
CONTINUOUS
10
1.35475
20
-5.39244
11
1.34913
21
-5.40368
0
LINE
8
BLACK
6
CONTINUOUS
10
1.34913
20
-5.40368
11
1.33788
21
-5.41493
0
LINE
8
BLACK
6
CONTINUOUS
10
1.33788
20
-5.41493
11
1.32101
21
-5.42056
0
LINE
8
BLACK
6
CONTINUOUS
10
1.32101
20
-5.42056
11
1.29289
21
-5.42056
0
LINE
8
BLACK
6
CONTINUOUS
10
1.411
20
-5.42056
11
1.411
21
-5.34182
0
LINE
8
BLACK
6
CONTINUOUS
10
1.411
20
-5.36431
11
1.41662
21
-5.35307
0
LINE
8
BLACK
6
CONTINUOUS
10
1.41662
20
-5.35307
11
1.42224
21
-5.34744
0
LINE
8
BLACK
6
CONTINUOUS
10
1.42224
20
-5.34744
11
1.43349
21
-5.34182
0
LINE
8
BLACK
6
CONTINUOUS
10
1.43349
20
-5.34182
11
1.44474
21
-5.34182
0
LINE
8
BLACK
6
CONTINUOUS
10
1.48411
20
-5.42056
11
1.48411
21
-5.34182
0
LINE
8
BLACK
6
CONTINUOUS
10
1.48411
20
-5.30245
11
1.47849
21
-5.30807
0
LINE
8
BLACK
6
CONTINUOUS
10
1.47849
20
-5.30807
11
1.48411
21
-5.3137
0
LINE
8
BLACK
6
CONTINUOUS
10
1.48411
20
-5.3137
11
1.48974
21
-5.30807
0
LINE
8
BLACK
6
CONTINUOUS
10
1.48974
20
-5.30807
11
1.48411
21
-5.30245
0
LINE
8
BLACK
6
CONTINUOUS
10
1.48411
20
-5.30245
11
1.48411
21
-5.3137
0
LINE
8
BLACK
6
CONTINUOUS
10
1.55723
20
-5.42056
11
1.54598
21
-5.41493
0
LINE
8
BLACK
6
CONTINUOUS
10
1.54598
20
-5.41493
11
1.54035
21
-5.40368
0
LINE
8
BLACK
6
CONTINUOUS
10
1.54035
20
-5.40368
11
1.54035
21
-5.30245
0
LINE
8
BLACK
6
CONTINUOUS
10
1.61909
20
-5.42056
11
1.60785
21
-5.41493
0
LINE
8
BLACK
6
CONTINUOUS
10
1.60785
20
-5.41493
11
1.60222
21
-5.40368
0
LINE
8
BLACK
6
CONTINUOUS
10
1.60222
20
-5.40368
11
1.60222
21
-5.30245
0
LINE
8
BLACK
6
CONTINUOUS
10
1.75408
20
-5.42056
11
1.75408
21
-5.30245
0
LINE
8
BLACK
6
CONTINUOUS
10
1.75408
20
-5.30245
11
1.79345
21
-5.38681
0
LINE
8
BLACK
6
CONTINUOUS
10
1.79345
20
-5.38681
11
1.83282
21
-5.30245
0
LINE
8
BLACK
6
CONTINUOUS
10
1.83282
20
-5.30245
11
1.83282
21
-5.42056
0
LINE
8
BLACK
6
CONTINUOUS
10
1.93968
20
-5.42056
11
1.93968
21
-5.35869
0
LINE
8
BLACK
6
CONTINUOUS
10
1.93968
20
-5.35869
11
1.93406
21
-5.34744
0
LINE
8
BLACK
6
CONTINUOUS
10
1.93406
20
-5.34744
11
1.92281
21
-5.34182
0
LINE
8
BLACK
6
CONTINUOUS
10
1.92281
20
-5.34182
11
1.90031
21
-5.34182
0
LINE
8
BLACK
6
CONTINUOUS
10
1.90031
20
-5.34182
11
1.88906
21
-5.34744
0
LINE
8
BLACK
6
CONTINUOUS
10
1.93968
20
-5.41493
11
1.92843
21
-5.42056
0
LINE
8
BLACK
6
CONTINUOUS
10
1.92843
20
-5.42056
11
1.90031
21
-5.42056
0
LINE
8
BLACK
6
CONTINUOUS
10
1.90031
20
-5.42056
11
1.88906
21
-5.41493
0
LINE
8
BLACK
6
CONTINUOUS
10
1.88906
20
-5.41493
11
1.88344
21
-5.40368
0
LINE
8
BLACK
6
CONTINUOUS
10
1.88344
20
-5.40368
11
1.88344
21
-5.39244
0
LINE
8
BLACK
6
CONTINUOUS
10
1.88344
20
-5.39244
11
1.88906
21
-5.38119
0
LINE
8
BLACK
6
CONTINUOUS
10
1.88906
20
-5.38119
11
1.90031
21
-5.37556
0
LINE
8
BLACK
6
CONTINUOUS
10
1.90031
20
-5.37556
11
1.92843
21
-5.37556
0
LINE
8
BLACK
6
CONTINUOUS
10
1.92843
20
-5.37556
11
1.93968
21
-5.36994
0
LINE
8
BLACK
6
CONTINUOUS
10
1.99592
20
-5.34182
11
1.99592
21
-5.45993
0
LINE
8
BLACK
6
CONTINUOUS
10
1.99592
20
-5.34744
11
2.00717
21
-5.34182
0
LINE
8
BLACK
6
CONTINUOUS
10
2.00717
20
-5.34182
11
2.02967
21
-5.34182
0
LINE
8
BLACK
6
CONTINUOUS
10
2.02967
20
-5.34182
11
2.04092
21
-5.34744
0
LINE
8
BLACK
6
CONTINUOUS
10
2.04092
20
-5.34744
11
2.04654
21
-5.35307
0
LINE
8
BLACK
6
CONTINUOUS
10
2.04654
20
-5.35307
11
2.05217
21
-5.36431
0
LINE
8
BLACK
6
CONTINUOUS
10
2.05217
20
-5.36431
11
2.05217
21
-5.39806
0
LINE
8
BLACK
6
CONTINUOUS
10
2.05217
20
-5.39806
11
2.04654
21
-5.40931
0
LINE
8
BLACK
6
CONTINUOUS
10
2.04654
20
-5.40931
11
2.04092
21
-5.41493
0
LINE
8
BLACK
6
CONTINUOUS
10
2.04092
20
-5.41493
11
2.02967
21
-5.42056
0
LINE
8
BLACK
6
CONTINUOUS
10
2.02967
20
-5.42056
11
2.00717
21
-5.42056
0
LINE
8
BLACK
6
CONTINUOUS
10
2.00717
20
-5.42056
11
1.99592
21
-5.41493
0
LINE
8
BLACK
6
CONTINUOUS
10
2.10278
20
-5.40931
11
2.10841
21
-5.41493
0
LINE
8
BLACK
6
CONTINUOUS
10
2.10841
20
-5.41493
11
2.10278
21
-5.42056
0
LINE
8
BLACK
6
CONTINUOUS
10
2.10278
20
-5.42056
11
2.09716
21
-5.41493
0
LINE
8
BLACK
6
CONTINUOUS
10
2.09716
20
-5.41493
11
2.10278
21
-5.40931
0
LINE
8
BLACK
6
CONTINUOUS
10
2.10278
20
-5.40931
11
2.10278
21
-5.42056
0
LINE
8
BLACK
6
CONTINUOUS
10
2.10278
20
-5.34744
11
2.10841
21
-5.35307
0
LINE
8
BLACK
6
CONTINUOUS
10
2.10841
20
-5.35307
11
2.10278
21
-5.35869
0
LINE
8
BLACK
6
CONTINUOUS
10
2.10278
20
-5.35869
11
2.09716
21
-5.35307
0
LINE
8
BLACK
6
CONTINUOUS
10
2.09716
20
-5.35307
11
2.10278
21
-5.34744
0
LINE
8
BLACK
6
CONTINUOUS
10
2.10278
20
-5.34744
11
2.10278
21
-5.35869
0
LINE
8
BLACK
6
CONTINUOUS
10
1.16043
20
-5.60532
11
1.18012
21
-5.625
0
LINE
8
BLACK
6
CONTINUOUS
10
1.18012
20
-5.60532
11
1.16043
21
-5.625
0
LINE
8
BLACK
6
CONTINUOUS
10
1.31538
20
-5.55048
11
1.32663
21
-5.55048
0
LINE
8
BLACK
6
CONTINUOUS
10
1.32663
20
-5.55048
11
1.33788
21
-5.5561
0
LINE
8
BLACK
6
CONTINUOUS
10
1.33788
20
-5.5561
11
1.3435
21
-5.56173
0
LINE
8
BLACK
6
CONTINUOUS
10
1.3435
20
-5.56173
11
1.34913
21
-5.57298
0
LINE
8
BLACK
6
CONTINUOUS
10
1.34913
20
-5.57298
11
1.35475
21
-5.59547
0
LINE
8
BLACK
6
CONTINUOUS
10
1.35475
20
-5.59547
11
1.35475
21
-5.62359
0
LINE
8
BLACK
6
CONTINUOUS
10
1.35475
20
-5.62359
11
1.34913
21
-5.64609
0
LINE
8
BLACK
6
CONTINUOUS
10
1.34913
20
-5.64609
11
1.3435
21
-5.65734
0
LINE
8
BLACK
6
CONTINUOUS
10
1.3435
20
-5.65734
11
1.33788
21
-5.66296
0
LINE
8
BLACK
6
CONTINUOUS
10
1.33788
20
-5.66296
11
1.32663
21
-5.66859
0
LINE
8
BLACK
6
CONTINUOUS
10
1.32663
20
-5.66859
11
1.31538
21
-5.66859
0
LINE
8
BLACK
6
CONTINUOUS
10
1.31538
20
-5.66859
11
1.30413
21
-5.66296
0
LINE
8
BLACK
6
CONTINUOUS
10
1.30413
20
-5.66296
11
1.29851
21
-5.65734
0
LINE
8
BLACK
6
CONTINUOUS
10
1.29851
20
-5.65734
11
1.29289
21
-5.64609
0
LINE
8
BLACK
6
CONTINUOUS
10
1.29289
20
-5.64609
11
1.28726
21
-5.62359
0
LINE
8
BLACK
6
CONTINUOUS
10
1.28726
20
-5.62359
11
1.28726
21
-5.59547
0
LINE
8
BLACK
6
CONTINUOUS
10
1.28726
20
-5.59547
11
1.29289
21
-5.57298
0
LINE
8
BLACK
6
CONTINUOUS
10
1.29289
20
-5.57298
11
1.29851
21
-5.56173
0
LINE
8
BLACK
6
CONTINUOUS
10
1.29851
20
-5.56173
11
1.30413
21
-5.5561
0
LINE
8
BLACK
6
CONTINUOUS
10
1.30413
20
-5.5561
11
1.31538
21
-5.55048
0
LINE
8
BLACK
6
CONTINUOUS
10
1.40537
20
-5.65734
11
1.411
21
-5.66296
0
LINE
8
BLACK
6
CONTINUOUS
10
1.411
20
-5.66296
11
1.40537
21
-5.66859
0
LINE
8
BLACK
6
CONTINUOUS
10
1.40537
20
-5.66859
11
1.39975
21
-5.66296
0
LINE
8
BLACK
6
CONTINUOUS
10
1.39975
20
-5.66296
11
1.40537
21
-5.65734
0
LINE
8
BLACK
6
CONTINUOUS
10
1.40537
20
-5.65734
11
1.40537
21
-5.66859
0
LINE
8
BLACK
6
CONTINUOUS
10
1.51786
20
-5.55048
11
1.46161
21
-5.55048
0
LINE
8
BLACK
6
CONTINUOUS
10
1.46161
20
-5.55048
11
1.45599
21
-5.60672
0
LINE
8
BLACK
6
CONTINUOUS
10
1.45599
20
-5.60672
11
1.46161
21
-5.6011
0
LINE
8
BLACK
6
CONTINUOUS
10
1.46161
20
-5.6011
11
1.47286
21
-5.59547
0
LINE
8
BLACK
6
CONTINUOUS
10
1.47286
20
-5.59547
11
1.50098
21
-5.59547
0
LINE
8
BLACK
6
CONTINUOUS
10
1.50098
20
-5.59547
11
1.51223
21
-5.6011
0
LINE
8
BLACK
6
CONTINUOUS
10
1.51223
20
-5.6011
11
1.51786
21
-5.60672
0
LINE
8
BLACK
6
CONTINUOUS
10
1.51786
20
-5.60672
11
1.52348
21
-5.61797
0
LINE
8
BLACK
6
CONTINUOUS
10
1.52348
20
-5.61797
11
1.52348
21
-5.64609
0
LINE
8
BLACK
6
CONTINUOUS
10
1.52348
20
-5.64609
11
1.51786
21
-5.65734
0
LINE
8
BLACK
6
CONTINUOUS
10
1.51786
20
-5.65734
11
1.51223
21
-5.66296
0
LINE
8
BLACK
6
CONTINUOUS
10
1.51223
20
-5.66296
11
1.50098
21
-5.66859
0
LINE
8
BLACK
6
CONTINUOUS
10
1.50098
20
-5.66859
11
1.47286
21
-5.66859
0
LINE
8
BLACK
6
CONTINUOUS
10
1.47286
20
-5.66859
11
1.46161
21
-5.66296
0
LINE
8
BLACK
6
CONTINUOUS
10
1.46161
20
-5.66296
11
1.45599
21
-5.65734
0
LINE
8
BLACK
6
CONTINUOUS
10
1.5966
20
-5.55048
11
1.60785
21
-5.55048
0
LINE
8
BLACK
6
CONTINUOUS
10
1.60785
20
-5.55048
11
1.61909
21
-5.5561
0
LINE
8
BLACK
6
CONTINUOUS
10
1.61909
20
-5.5561
11
1.62472
21
-5.56173
0
LINE
8
BLACK
6
CONTINUOUS
10
1.62472
20
-5.56173
11
1.63034
21
-5.57298
0
LINE
8
BLACK
6
CONTINUOUS
10
1.63034
20
-5.57298
11
1.63597
21
-5.59547
0
LINE
8
BLACK
6
CONTINUOUS
10
1.63597
20
-5.59547
11
1.63597
21
-5.62359
0
LINE
8
BLACK
6
CONTINUOUS
10
1.63597
20
-5.62359
11
1.63034
21
-5.64609
0
LINE
8
BLACK
6
CONTINUOUS
10
1.63034
20
-5.64609
11
1.62472
21
-5.65734
0
LINE
8
BLACK
6
CONTINUOUS
10
1.62472
20
-5.65734
11
1.61909
21
-5.66296
0
LINE
8
BLACK
6
CONTINUOUS
10
1.61909
20
-5.66296
11
1.60785
21
-5.66859
0
LINE
8
BLACK
6
CONTINUOUS
10
1.60785
20
-5.66859
11
1.5966
21
-5.66859
0
LINE
8
BLACK
6
CONTINUOUS
10
1.5966
20
-5.66859
11
1.58535
21
-5.66296
0
LINE
8
BLACK
6
CONTINUOUS
10
1.58535
20
-5.66296
11
1.57972
21
-5.65734
0
LINE
8
BLACK
6
CONTINUOUS
10
1.57972
20
-5.65734
11
1.5741
21
-5.64609
0
LINE
8
BLACK
6
CONTINUOUS
10
1.5741
20
-5.64609
11
1.56848
21
-5.62359
0
LINE
8
BLACK
6
CONTINUOUS
10
1.56848
20
-5.62359
11
1.56848
21
-5.59547
0
LINE
8
BLACK
6
CONTINUOUS
10
1.56848
20
-5.59547
11
1.5741
21
-5.57298
0
LINE
8
BLACK
6
CONTINUOUS
10
1.5741
20
-5.57298
11
1.57972
21
-5.56173
0
LINE
8
BLACK
6
CONTINUOUS
10
1.57972
20
-5.56173
11
1.58535
21
-5.5561
0
LINE
8
BLACK
6
CONTINUOUS
10
1.58535
20
-5.5561
11
1.5966
21
-5.55048
0
LINE
8
BLACK
6
CONTINUOUS
10
1.70908
20
-5.55048
11
1.72033
21
-5.55048
0
LINE
8
BLACK
6
CONTINUOUS
10
1.72033
20
-5.55048
11
1.73158
21
-5.5561
0
LINE
8
BLACK
6
CONTINUOUS
10
1.73158
20
-5.5561
11
1.7372
21
-5.56173
0
LINE
8
BLACK
6
CONTINUOUS
10
1.7372
20
-5.56173
11
1.74283
21
-5.57298
0
LINE
8
BLACK
6
CONTINUOUS
10
1.74283
20
-5.57298
11
1.74845
21
-5.59547
0
LINE
8
BLACK
6
CONTINUOUS
10
1.74845
20
-5.59547
11
1.74845
21
-5.62359
0
LINE
8
BLACK
6
CONTINUOUS
10
1.74845
20
-5.62359
11
1.74283
21
-5.64609
0
LINE
8
BLACK
6
CONTINUOUS
10
1.74283
20
-5.64609
11
1.7372
21
-5.65734
0
LINE
8
BLACK
6
CONTINUOUS
10
1.7372
20
-5.65734
11
1.73158
21
-5.66296
0
LINE
8
BLACK
6
CONTINUOUS
10
1.73158
20
-5.66296
11
1.72033
21
-5.66859
0
LINE
8
BLACK
6
CONTINUOUS
10
1.72033
20
-5.66859
11
1.70908
21
-5.66859
0
LINE
8
BLACK
6
CONTINUOUS
10
1.70908
20
-5.66859
11
1.69783
21
-5.66296
0
LINE
8
BLACK
6
CONTINUOUS
10
1.69783
20
-5.66296
11
1.69221
21
-5.65734
0
LINE
8
BLACK
6
CONTINUOUS
10
1.69221
20
-5.65734
11
1.68659
21
-5.64609
0
LINE
8
BLACK
6
CONTINUOUS
10
1.68659
20
-5.64609
11
1.68096
21
-5.62359
0
LINE
8
BLACK
6
CONTINUOUS
10
1.68096
20
-5.62359
11
1.68096
21
-5.59547
0
LINE
8
BLACK
6
CONTINUOUS
10
1.68096
20
-5.59547
11
1.68659
21
-5.57298
0
LINE
8
BLACK
6
CONTINUOUS
10
1.68659
20
-5.57298
11
1.69221
21
-5.56173
0
LINE
8
BLACK
6
CONTINUOUS
10
1.69221
20
-5.56173
11
1.69783
21
-5.5561
0
LINE
8
BLACK
6
CONTINUOUS
10
1.69783
20
-5.5561
11
1.70908
21
-5.55048
0
LINE
8
BLACK
6
CONTINUOUS
10
1.79907
20
-5.66859
11
1.79907
21
-5.58985
0
LINE
8
BLACK
6
CONTINUOUS
10
1.79907
20
-5.6011
11
1.8047
21
-5.59547
0
LINE
8
BLACK
6
CONTINUOUS
10
1.8047
20
-5.59547
11
1.81594
21
-5.58985
0
LINE
8
BLACK
6
CONTINUOUS
10
1.81594
20
-5.58985
11
1.83282
21
-5.58985
0
LINE
8
BLACK
6
CONTINUOUS
10
1.83282
20
-5.58985
11
1.84407
21
-5.59547
0
LINE
8
BLACK
6
CONTINUOUS
10
1.84407
20
-5.59547
11
1.84969
21
-5.60672
0
LINE
8
BLACK
6
CONTINUOUS
10
1.84969
20
-5.60672
11
1.84969
21
-5.66859
0
LINE
8
BLACK
6
CONTINUOUS
10
1.84969
20
-5.60672
11
1.85531
21
-5.59547
0
LINE
8
BLACK
6
CONTINUOUS
10
1.85531
20
-5.59547
11
1.86656
21
-5.58985
0
LINE
8
BLACK
6
CONTINUOUS
10
1.86656
20
-5.58985
11
1.88344
21
-5.58985
0
LINE
8
BLACK
6
CONTINUOUS
10
1.88344
20
-5.58985
11
1.89468
21
-5.59547
0
LINE
8
BLACK
6
CONTINUOUS
10
1.89468
20
-5.59547
11
1.90031
21
-5.60672
0
LINE
8
BLACK
6
CONTINUOUS
10
1.90031
20
-5.60672
11
1.90031
21
-5.66859
0
LINE
8
BLACK
6
CONTINUOUS
10
1.95655
20
-5.66859
11
1.95655
21
-5.58985
0
LINE
8
BLACK
6
CONTINUOUS
10
1.95655
20
-5.6011
11
1.96218
21
-5.59547
0
LINE
8
BLACK
6
CONTINUOUS
10
1.96218
20
-5.59547
11
1.97343
21
-5.58985
0
LINE
8
BLACK
6
CONTINUOUS
10
1.97343
20
-5.58985
11
1.9903
21
-5.58985
0
LINE
8
BLACK
6
CONTINUOUS
10
1.9903
20
-5.58985
11
2.00155
21
-5.59547
0
LINE
8
BLACK
6
CONTINUOUS
10
2.00155
20
-5.59547
11
2.00717
21
-5.60672
0
LINE
8
BLACK
6
CONTINUOUS
10
2.00717
20
-5.60672
11
2.00717
21
-5.66859
0
LINE
8
BLACK
6
CONTINUOUS
10
2.00717
20
-5.60672
11
2.0128
21
-5.59547
0
LINE
8
BLACK
6
CONTINUOUS
10
2.0128
20
-5.59547
11
2.02404
21
-5.58985
0
LINE
8
BLACK
6
CONTINUOUS
10
2.02404
20
-5.58985
11
2.04092
21
-5.58985
0
LINE
8
BLACK
6
CONTINUOUS
10
2.04092
20
-5.58985
11
2.05217
21
-5.59547
0
LINE
8
BLACK
6
CONTINUOUS
10
2.05217
20
-5.59547
11
2.05779
21
-5.60672
0
LINE
8
BLACK
6
CONTINUOUS
10
2.05779
20
-5.60672
11
2.05779
21
-5.66859
0
LINE
8
BLACK
6
CONTINUOUS
10
2.28839
20
-5.54485
11
2.18715
21
-5.69671
0
LINE
8
BLACK
6
CONTINUOUS
10
2.44024
20
-5.55048
11
2.45149
21
-5.55048
0
LINE
8
BLACK
6
CONTINUOUS
10
2.45149
20
-5.55048
11
2.46274
21
-5.5561
0
LINE
8
BLACK
6
CONTINUOUS
10
2.46274
20
-5.5561
11
2.46836
21
-5.56173
0
LINE
8
BLACK
6
CONTINUOUS
10
2.46836
20
-5.56173
11
2.47399
21
-5.57298
0
LINE
8
BLACK
6
CONTINUOUS
10
2.47399
20
-5.57298
11
2.47961
21
-5.59547
0
LINE
8
BLACK
6
CONTINUOUS
10
2.47961
20
-5.59547
11
2.47961
21
-5.62359
0
LINE
8
BLACK
6
CONTINUOUS
10
2.47961
20
-5.62359
11
2.47399
21
-5.64609
0
LINE
8
BLACK
6
CONTINUOUS
10
2.47399
20
-5.64609
11
2.46836
21
-5.65734
0
LINE
8
BLACK
6
CONTINUOUS
10
2.46836
20
-5.65734
11
2.46274
21
-5.66296
0
LINE
8
BLACK
6
CONTINUOUS
10
2.46274
20
-5.66296
11
2.45149
21
-5.66859
0
LINE
8
BLACK
6
CONTINUOUS
10
2.45149
20
-5.66859
11
2.44024
21
-5.66859
0
LINE
8
BLACK
6
CONTINUOUS
10
2.44024
20
-5.66859
11
2.42899
21
-5.66296
0
LINE
8
BLACK
6
CONTINUOUS
10
2.42899
20
-5.66296
11
2.42337
21
-5.65734
0
LINE
8
BLACK
6
CONTINUOUS
10
2.42337
20
-5.65734
11
2.41774
21
-5.64609
0
LINE
8
BLACK
6
CONTINUOUS
10
2.41774
20
-5.64609
11
2.41212
21
-5.62359
0
LINE
8
BLACK
6
CONTINUOUS
10
2.41212
20
-5.62359
11
2.41212
21
-5.59547
0
LINE
8
BLACK
6
CONTINUOUS
10
2.41212
20
-5.59547
11
2.41774
21
-5.57298
0
LINE
8
BLACK
6
CONTINUOUS
10
2.41774
20
-5.57298
11
2.42337
21
-5.56173
0
LINE
8
BLACK
6
CONTINUOUS
10
2.42337
20
-5.56173
11
2.42899
21
-5.5561
0
LINE
8
BLACK
6
CONTINUOUS
10
2.42899
20
-5.5561
11
2.44024
21
-5.55048
0
LINE
8
BLACK
6
CONTINUOUS
10
2.53023
20
-5.65734
11
2.53585
21
-5.66296
0
LINE
8
BLACK
6
CONTINUOUS
10
2.53585
20
-5.66296
11
2.53023
21
-5.66859
0
LINE
8
BLACK
6
CONTINUOUS
10
2.53023
20
-5.66859
11
2.52461
21
-5.66296
0
LINE
8
BLACK
6
CONTINUOUS
10
2.52461
20
-5.66296
11
2.53023
21
-5.65734
0
LINE
8
BLACK
6
CONTINUOUS
10
2.53023
20
-5.65734
11
2.53023
21
-5.66859
0
LINE
8
BLACK
6
CONTINUOUS
10
2.60897
20
-5.55048
11
2.62022
21
-5.55048
0
LINE
8
BLACK
6
CONTINUOUS
10
2.62022
20
-5.55048
11
2.63147
21
-5.5561
0
LINE
8
BLACK
6
CONTINUOUS
10
2.63147
20
-5.5561
11
2.63709
21
-5.56173
0
LINE
8
BLACK
6
CONTINUOUS
10
2.63709
20
-5.56173
11
2.64272
21
-5.57298
0
LINE
8
BLACK
6
CONTINUOUS
10
2.64272
20
-5.57298
11
2.64834
21
-5.59547
0
LINE
8
BLACK
6
CONTINUOUS
10
2.64834
20
-5.59547
11
2.64834
21
-5.62359
0
LINE
8
BLACK
6
CONTINUOUS
10
2.64834
20
-5.62359
11
2.64272
21
-5.64609
0
LINE
8
BLACK
6
CONTINUOUS
10
2.64272
20
-5.64609
11
2.63709
21
-5.65734
0
LINE
8
BLACK
6
CONTINUOUS
10
2.63709
20
-5.65734
11
2.63147
21
-5.66296
0
LINE
8
BLACK
6
CONTINUOUS
10
2.63147
20
-5.66296
11
2.62022
21
-5.66859
0
LINE
8
BLACK
6
CONTINUOUS
10
2.62022
20
-5.66859
11
2.60897
21
-5.66859
0
LINE
8
BLACK
6
CONTINUOUS
10
2.60897
20
-5.66859
11
2.59772
21
-5.66296
0
LINE
8
BLACK
6
CONTINUOUS
10
2.59772
20
-5.66296
11
2.5921
21
-5.65734
0
LINE
8
BLACK
6
CONTINUOUS
10
2.5921
20
-5.65734
11
2.58647
21
-5.64609
0
LINE
8
BLACK
6
CONTINUOUS
10
2.58647
20
-5.64609
11
2.58085
21
-5.62359
0
LINE
8
BLACK
6
CONTINUOUS
10
2.58085
20
-5.62359
11
2.58085
21
-5.59547
0
LINE
8
BLACK
6
CONTINUOUS
10
2.58085
20
-5.59547
11
2.58647
21
-5.57298
0
LINE
8
BLACK
6
CONTINUOUS
10
2.58647
20
-5.57298
11
2.5921
21
-5.56173
0
LINE
8
BLACK
6
CONTINUOUS
10
2.5921
20
-5.56173
11
2.59772
21
-5.5561
0
LINE
8
BLACK
6
CONTINUOUS
10
2.59772
20
-5.5561
11
2.60897
21
-5.55048
0
LINE
8
BLACK
6
CONTINUOUS
10
2.76083
20
-5.66859
11
2.69334
21
-5.66859
0
LINE
8
BLACK
6
CONTINUOUS
10
2.72708
20
-5.66859
11
2.72708
21
-5.55048
0
LINE
8
BLACK
6
CONTINUOUS
10
2.72708
20
-5.55048
11
2.71583
21
-5.56735
0
LINE
8
BLACK
6
CONTINUOUS
10
2.71583
20
-5.56735
11
2.70458
21
-5.5786
0
LINE
8
BLACK
6
CONTINUOUS
10
2.70458
20
-5.5786
11
2.69334
21
-5.58422
0
LINE
8
BLACK
6
CONTINUOUS
10
2.81707
20
-5.66859
11
2.83957
21
-5.66859
0
LINE
8
BLACK
6
CONTINUOUS
10
2.83957
20
-5.66859
11
2.85082
21
-5.66296
0
LINE
8
BLACK
6
CONTINUOUS
10
2.85082
20
-5.66296
11
2.85644
21
-5.65734
0
LINE
8
BLACK
6
CONTINUOUS
10
2.85644
20
-5.65734
11
2.86769
21
-5.64047
0
LINE
8
BLACK
6
CONTINUOUS
10
2.86769
20
-5.64047
11
2.87331
21
-5.61797
0
LINE
8
BLACK
6
CONTINUOUS
10
2.87331
20
-5.61797
11
2.87331
21
-5.57298
0
LINE
8
BLACK
6
CONTINUOUS
10
2.87331
20
-5.57298
11
2.86769
21
-5.56173
0
LINE
8
BLACK
6
CONTINUOUS
10
2.86769
20
-5.56173
11
2.86206
21
-5.5561
0
LINE
8
BLACK
6
CONTINUOUS
10
2.86206
20
-5.5561
11
2.85082
21
-5.55048
0
LINE
8
BLACK
6
CONTINUOUS
10
2.85082
20
-5.55048
11
2.82832
21
-5.55048
0
LINE
8
BLACK
6
CONTINUOUS
10
2.82832
20
-5.55048
11
2.81707
21
-5.5561
0
LINE
8
BLACK
6
CONTINUOUS
10
2.81707
20
-5.5561
11
2.81145
21
-5.56173
0
LINE
8
BLACK
6
CONTINUOUS
10
2.81145
20
-5.56173
11
2.80582
21
-5.57298
0
LINE
8
BLACK
6
CONTINUOUS
10
2.80582
20
-5.57298
11
2.80582
21
-5.6011
0
LINE
8
BLACK
6
CONTINUOUS
10
2.80582
20
-5.6011
11
2.81145
21
-5.61235
0
LINE
8
BLACK
6
CONTINUOUS
10
2.81145
20
-5.61235
11
2.81707
21
-5.61797
0
LINE
8
BLACK
6
CONTINUOUS
10
2.81707
20
-5.61797
11
2.82832
21
-5.62359
0
LINE
8
BLACK
6
CONTINUOUS
10
2.82832
20
-5.62359
11
2.85082
21
-5.62359
0
LINE
8
BLACK
6
CONTINUOUS
10
2.85082
20
-5.62359
11
2.86206
21
-5.61797
0
LINE
8
BLACK
6
CONTINUOUS
10
2.86206
20
-5.61797
11
2.86769
21
-5.61235
0
LINE
8
BLACK
6
CONTINUOUS
10
2.86769
20
-5.61235
11
2.87331
21
-5.6011
0
LINE
8
BLACK
6
CONTINUOUS
10
2.91268
20
-5.55048
11
2.99142
21
-5.55048
0
LINE
8
BLACK
6
CONTINUOUS
10
2.99142
20
-5.55048
11
2.9408
21
-5.66859
0
LINE
8
BLACK
6
CONTINUOUS
10
3.03079
20
-5.55048
11
3.03079
21
-5.57298
0
LINE
8
BLACK
6
CONTINUOUS
10
3.07579
20
-5.55048
11
3.07579
21
-5.57298
0
LINE
8
BLACK
6
CONTINUOUS
10
3.25014
20
-5.71358
11
3.24452
21
-5.70796
0
LINE
8
BLACK
6
CONTINUOUS
10
3.24452
20
-5.70796
11
3.23327
21
-5.69109
0
LINE
8
BLACK
6
CONTINUOUS
10
3.23327
20
-5.69109
11
3.22764
21
-5.67984
0
LINE
8
BLACK
6
CONTINUOUS
10
3.22764
20
-5.67984
11
3.22202
21
-5.66296
0
LINE
8
BLACK
6
CONTINUOUS
10
3.22202
20
-5.66296
11
3.21639
21
-5.63484
0
LINE
8
BLACK
6
CONTINUOUS
10
3.21639
20
-5.63484
11
3.21639
21
-5.61235
0
LINE
8
BLACK
6
CONTINUOUS
10
3.21639
20
-5.61235
11
3.22202
21
-5.58422
0
LINE
8
BLACK
6
CONTINUOUS
10
3.22202
20
-5.58422
11
3.22764
21
-5.56735
0
LINE
8
BLACK
6
CONTINUOUS
10
3.22764
20
-5.56735
11
3.23327
21
-5.5561
0
LINE
8
BLACK
6
CONTINUOUS
10
3.23327
20
-5.5561
11
3.24452
21
-5.53923
0
LINE
8
BLACK
6
CONTINUOUS
10
3.24452
20
-5.53923
11
3.25014
21
-5.53361
0
LINE
8
BLACK
6
CONTINUOUS
10
3.28389
20
-5.55048
11
3.357
21
-5.55048
0
LINE
8
BLACK
6
CONTINUOUS
10
3.357
20
-5.55048
11
3.31763
21
-5.59547
0
LINE
8
BLACK
6
CONTINUOUS
10
3.31763
20
-5.59547
11
3.33451
21
-5.59547
0
LINE
8
BLACK
6
CONTINUOUS
10
3.33451
20
-5.59547
11
3.34575
21
-5.6011
0
LINE
8
BLACK
6
CONTINUOUS
10
3.34575
20
-5.6011
11
3.35138
21
-5.60672
0
LINE
8
BLACK
6
CONTINUOUS
10
3.35138
20
-5.60672
11
3.357
21
-5.61797
0
LINE
8
BLACK
6
CONTINUOUS
10
3.357
20
-5.61797
11
3.357
21
-5.64609
0
LINE
8
BLACK
6
CONTINUOUS
10
3.357
20
-5.64609
11
3.35138
21
-5.65734
0
LINE
8
BLACK
6
CONTINUOUS
10
3.35138
20
-5.65734
11
3.34575
21
-5.66296
0
LINE
8
BLACK
6
CONTINUOUS
10
3.34575
20
-5.66296
11
3.33451
21
-5.66859
0
LINE
8
BLACK
6
CONTINUOUS
10
3.33451
20
-5.66859
11
3.30076
21
-5.66859
0
LINE
8
BLACK
6
CONTINUOUS
10
3.30076
20
-5.66859
11
3.28951
21
-5.66296
0
LINE
8
BLACK
6
CONTINUOUS
10
3.28951
20
-5.66296
11
3.28389
21
-5.65734
0
LINE
8
BLACK
6
CONTINUOUS
10
3.402
20
-5.56173
11
3.40762
21
-5.5561
0
LINE
8
BLACK
6
CONTINUOUS
10
3.40762
20
-5.5561
11
3.41887
21
-5.55048
0
LINE
8
BLACK
6
CONTINUOUS
10
3.41887
20
-5.55048
11
3.44699
21
-5.55048
0
LINE
8
BLACK
6
CONTINUOUS
10
3.44699
20
-5.55048
11
3.45824
21
-5.5561
0
LINE
8
BLACK
6
CONTINUOUS
10
3.45824
20
-5.5561
11
3.46386
21
-5.56173
0
LINE
8
BLACK
6
CONTINUOUS
10
3.46386
20
-5.56173
11
3.46949
21
-5.57298
0
LINE
8
BLACK
6
CONTINUOUS
10
3.46949
20
-5.57298
11
3.46949
21
-5.58422
0
LINE
8
BLACK
6
CONTINUOUS
10
3.46949
20
-5.58422
11
3.46386
21
-5.6011
0
LINE
8
BLACK
6
CONTINUOUS
10
3.46386
20
-5.6011
11
3.39637
21
-5.66859
0
LINE
8
BLACK
6
CONTINUOUS
10
3.39637
20
-5.66859
11
3.46949
21
-5.66859
0
LINE
8
BLACK
6
CONTINUOUS
10
3.6101
20
-5.66859
11
3.6101
21
-5.55048
0
LINE
8
BLACK
6
CONTINUOUS
10
3.66071
20
-5.66859
11
3.66071
21
-5.60672
0
LINE
8
BLACK
6
CONTINUOUS
10
3.66071
20
-5.60672
11
3.65509
21
-5.59547
0
LINE
8
BLACK
6
CONTINUOUS
10
3.65509
20
-5.59547
11
3.64384
21
-5.58985
0
LINE
8
BLACK
6
CONTINUOUS
10
3.64384
20
-5.58985
11
3.62697
21
-5.58985
0
LINE
8
BLACK
6
CONTINUOUS
10
3.62697
20
-5.58985
11
3.61572
21
-5.59547
0
LINE
8
BLACK
6
CONTINUOUS
10
3.61572
20
-5.59547
11
3.6101
21
-5.6011
0
LINE
8
BLACK
6
CONTINUOUS
10
3.73383
20
-5.66859
11
3.72258
21
-5.66296
0
LINE
8
BLACK
6
CONTINUOUS
10
3.72258
20
-5.66296
11
3.71696
21
-5.65734
0
LINE
8
BLACK
6
CONTINUOUS
10
3.71696
20
-5.65734
11
3.71133
21
-5.64609
0
LINE
8
BLACK
6
CONTINUOUS
10
3.71133
20
-5.64609
11
3.71133
21
-5.61235
0
LINE
8
BLACK
6
CONTINUOUS
10
3.71133
20
-5.61235
11
3.71696
21
-5.6011
0
LINE
8
BLACK
6
CONTINUOUS
10
3.71696
20
-5.6011
11
3.72258
21
-5.59547
0
LINE
8
BLACK
6
CONTINUOUS
10
3.72258
20
-5.59547
11
3.73383
21
-5.58985
0
LINE
8
BLACK
6
CONTINUOUS
10
3.73383
20
-5.58985
11
3.7507
21
-5.58985
0
LINE
8
BLACK
6
CONTINUOUS
10
3.7507
20
-5.58985
11
3.76195
21
-5.59547
0
LINE
8
BLACK
6
CONTINUOUS
10
3.76195
20
-5.59547
11
3.76758
21
-5.6011
0
LINE
8
BLACK
6
CONTINUOUS
10
3.76758
20
-5.6011
11
3.7732
21
-5.61235
0
LINE
8
BLACK
6
CONTINUOUS
10
3.7732
20
-5.61235
11
3.7732
21
-5.64609
0
LINE
8
BLACK
6
CONTINUOUS
10
3.7732
20
-5.64609
11
3.76758
21
-5.65734
0
LINE
8
BLACK
6
CONTINUOUS
10
3.76758
20
-5.65734
11
3.76195
21
-5.66296
0
LINE
8
BLACK
6
CONTINUOUS
10
3.76195
20
-5.66296
11
3.7507
21
-5.66859
0
LINE
8
BLACK
6
CONTINUOUS
10
3.7507
20
-5.66859
11
3.73383
21
-5.66859
0
LINE
8
BLACK
6
CONTINUOUS
10
3.84069
20
-5.66859
11
3.82944
21
-5.66296
0
LINE
8
BLACK
6
CONTINUOUS
10
3.82944
20
-5.66296
11
3.82382
21
-5.65172
0
LINE
8
BLACK
6
CONTINUOUS
10
3.82382
20
-5.65172
11
3.82382
21
-5.55048
0
LINE
8
BLACK
6
CONTINUOUS
10
3.93068
20
-5.66296
11
3.91943
21
-5.66859
0
LINE
8
BLACK
6
CONTINUOUS
10
3.91943
20
-5.66859
11
3.89693
21
-5.66859
0
LINE
8
BLACK
6
CONTINUOUS
10
3.89693
20
-5.66859
11
3.88569
21
-5.66296
0
LINE
8
BLACK
6
CONTINUOUS
10
3.88569
20
-5.66296
11
3.88006
21
-5.65172
0
LINE
8
BLACK
6
CONTINUOUS
10
3.88006
20
-5.65172
11
3.88006
21
-5.60672
0
LINE
8
BLACK
6
CONTINUOUS
10
3.88006
20
-5.60672
11
3.88569
21
-5.59547
0
LINE
8
BLACK
6
CONTINUOUS
10
3.88569
20
-5.59547
11
3.89693
21
-5.58985
0
LINE
8
BLACK
6
CONTINUOUS
10
3.89693
20
-5.58985
11
3.91943
21
-5.58985
0
LINE
8
BLACK
6
CONTINUOUS
10
3.91943
20
-5.58985
11
3.93068
21
-5.59547
0
LINE
8
BLACK
6
CONTINUOUS
10
3.93068
20
-5.59547
11
3.9363
21
-5.60672
0
LINE
8
BLACK
6
CONTINUOUS
10
3.9363
20
-5.60672
11
3.9363
21
-5.61797
0
LINE
8
BLACK
6
CONTINUOUS
10
3.9363
20
-5.61797
11
3.88006
21
-5.62922
0
LINE
8
BLACK
6
CONTINUOUS
10
3.9813
20
-5.66296
11
3.99255
21
-5.66859
0
LINE
8
BLACK
6
CONTINUOUS
10
3.99255
20
-5.66859
11
4.01504
21
-5.66859
0
LINE
8
BLACK
6
CONTINUOUS
10
4.01504
20
-5.66859
11
4.02629
21
-5.66296
0
LINE
8
BLACK
6
CONTINUOUS
10
4.02629
20
-5.66296
11
4.03192
21
-5.65172
0
LINE
8
BLACK
6
CONTINUOUS
10
4.03192
20
-5.65172
11
4.03192
21
-5.64609
0
LINE
8
BLACK
6
CONTINUOUS
10
4.03192
20
-5.64609
11
4.02629
21
-5.63484
0
LINE
8
BLACK
6
CONTINUOUS
10
4.02629
20
-5.63484
11
4.01504
21
-5.62922
0
LINE
8
BLACK
6
CONTINUOUS
10
4.01504
20
-5.62922
11
3.99817
21
-5.62922
0
LINE
8
BLACK
6
CONTINUOUS
10
3.99817
20
-5.62922
11
3.98692
21
-5.62359
0
LINE
8
BLACK
6
CONTINUOUS
10
3.98692
20
-5.62359
11
3.9813
21
-5.61235
0
LINE
8
BLACK
6
CONTINUOUS
10
3.9813
20
-5.61235
11
3.9813
21
-5.60672
0
LINE
8
BLACK
6
CONTINUOUS
10
3.9813
20
-5.60672
11
3.98692
21
-5.59547
0
LINE
8
BLACK
6
CONTINUOUS
10
3.98692
20
-5.59547
11
3.99817
21
-5.58985
0
LINE
8
BLACK
6
CONTINUOUS
10
3.99817
20
-5.58985
11
4.01504
21
-5.58985
0
LINE
8
BLACK
6
CONTINUOUS
10
4.01504
20
-5.58985
11
4.02629
21
-5.59547
0
LINE
8
BLACK
6
CONTINUOUS
10
4.07129
20
-5.71358
11
4.07691
21
-5.70796
0
LINE
8
BLACK
6
CONTINUOUS
10
4.07691
20
-5.70796
11
4.08816
21
-5.69109
0
LINE
8
BLACK
6
CONTINUOUS
10
4.08816
20
-5.69109
11
4.09379
21
-5.67984
0
LINE
8
BLACK
6
CONTINUOUS
10
4.09379
20
-5.67984
11
4.09941
21
-5.66296
0
LINE
8
BLACK
6
CONTINUOUS
10
4.09941
20
-5.66296
11
4.10503
21
-5.63484
0
LINE
8
BLACK
6
CONTINUOUS
10
4.10503
20
-5.63484
11
4.10503
21
-5.61235
0
LINE
8
BLACK
6
CONTINUOUS
10
4.10503
20
-5.61235
11
4.09941
21
-5.58422
0
LINE
8
BLACK
6
CONTINUOUS
10
4.09941
20
-5.58422
11
4.09379
21
-5.56735
0
LINE
8
BLACK
6
CONTINUOUS
10
4.09379
20
-5.56735
11
4.08816
21
-5.5561
0
LINE
8
BLACK
6
CONTINUOUS
10
4.08816
20
-5.5561
11
4.07691
21
-5.53923
0
LINE
8
BLACK
6
CONTINUOUS
10
4.07691
20
-5.53923
11
4.07129
21
-5.53361
0
CIRCLE
8
BLACK
10
1.16437
20
-5.77106
40
0.015748
0
LINE
8
BLACK
6
CONTINUOUS
10
1.31538
20
-5.70638
11
1.32663
21
-5.70638
0
LINE
8
BLACK
6
CONTINUOUS
10
1.32663
20
-5.70638
11
1.33788
21
-5.71201
0
LINE
8
BLACK
6
CONTINUOUS
10
1.33788
20
-5.71201
11
1.3435
21
-5.71763
0
LINE
8
BLACK
6
CONTINUOUS
10
1.3435
20
-5.71763
11
1.34913
21
-5.72888
0
LINE
8
BLACK
6
CONTINUOUS
10
1.34913
20
-5.72888
11
1.35475
21
-5.75138
0
LINE
8
BLACK
6
CONTINUOUS
10
1.35475
20
-5.75138
11
1.35475
21
-5.7795
0
LINE
8
BLACK
6
CONTINUOUS
10
1.35475
20
-5.7795
11
1.34913
21
-5.802
0
LINE
8
BLACK
6
CONTINUOUS
10
1.34913
20
-5.802
11
1.3435
21
-5.81325
0
LINE
8
BLACK
6
CONTINUOUS
10
1.3435
20
-5.81325
11
1.33788
21
-5.81887
0
LINE
8
BLACK
6
CONTINUOUS
10
1.33788
20
-5.81887
11
1.32663
21
-5.82449
0
LINE
8
BLACK
6
CONTINUOUS
10
1.32663
20
-5.82449
11
1.31538
21
-5.82449
0
LINE
8
BLACK
6
CONTINUOUS
10
1.31538
20
-5.82449
11
1.30413
21
-5.81887
0
LINE
8
BLACK
6
CONTINUOUS
10
1.30413
20
-5.81887
11
1.29851
21
-5.81325
0
LINE
8
BLACK
6
CONTINUOUS
10
1.29851
20
-5.81325
11
1.29289
21
-5.802
0
LINE
8
BLACK
6
CONTINUOUS
10
1.29289
20
-5.802
11
1.28726
21
-5.7795
0
LINE
8
BLACK
6
CONTINUOUS
10
1.28726
20
-5.7795
11
1.28726
21
-5.75138
0
LINE
8
BLACK
6
CONTINUOUS
10
1.28726
20
-5.75138
11
1.29289
21
-5.72888
0
LINE
8
BLACK
6
CONTINUOUS
10
1.29289
20
-5.72888
11
1.29851
21
-5.71763
0
LINE
8
BLACK
6
CONTINUOUS
10
1.29851
20
-5.71763
11
1.30413
21
-5.71201
0
LINE
8
BLACK
6
CONTINUOUS
10
1.30413
20
-5.71201
11
1.31538
21
-5.70638
0
LINE
8
BLACK
6
CONTINUOUS
10
1.40537
20
-5.81325
11
1.411
21
-5.81887
0
LINE
8
BLACK
6
CONTINUOUS
10
1.411
20
-5.81887
11
1.40537
21
-5.82449
0
LINE
8
BLACK
6
CONTINUOUS
10
1.40537
20
-5.82449
11
1.39975
21
-5.81887
0
LINE
8
BLACK
6
CONTINUOUS
10
1.39975
20
-5.81887
11
1.40537
21
-5.81325
0
LINE
8
BLACK
6
CONTINUOUS
10
1.40537
20
-5.81325
11
1.40537
21
-5.82449
0
LINE
8
BLACK
6
CONTINUOUS
10
1.47849
20
-5.757
11
1.46724
21
-5.75138
0
LINE
8
BLACK
6
CONTINUOUS
10
1.46724
20
-5.75138
11
1.46161
21
-5.74575
0
LINE
8
BLACK
6
CONTINUOUS
10
1.46161
20
-5.74575
11
1.45599
21
-5.73451
0
LINE
8
BLACK
6
CONTINUOUS
10
1.45599
20
-5.73451
11
1.45599
21
-5.72888
0
LINE
8
BLACK
6
CONTINUOUS
10
1.45599
20
-5.72888
11
1.46161
21
-5.71763
0
LINE
8
BLACK
6
CONTINUOUS
10
1.46161
20
-5.71763
11
1.46724
21
-5.71201
0
LINE
8
BLACK
6
CONTINUOUS
10
1.46724
20
-5.71201
11
1.47849
21
-5.70638
0
LINE
8
BLACK
6
CONTINUOUS
10
1.47849
20
-5.70638
11
1.50098
21
-5.70638
0
LINE
8
BLACK
6
CONTINUOUS
10
1.50098
20
-5.70638
11
1.51223
21
-5.71201
0
LINE
8
BLACK
6
CONTINUOUS
10
1.51223
20
-5.71201
11
1.51786
21
-5.71763
0
LINE
8
BLACK
6
CONTINUOUS
10
1.51786
20
-5.71763
11
1.52348
21
-5.72888
0
LINE
8
BLACK
6
CONTINUOUS
10
1.52348
20
-5.72888
11
1.52348
21
-5.73451
0
LINE
8
BLACK
6
CONTINUOUS
10
1.52348
20
-5.73451
11
1.51786
21
-5.74575
0
LINE
8
BLACK
6
CONTINUOUS
10
1.51786
20
-5.74575
11
1.51223
21
-5.75138
0
LINE
8
BLACK
6
CONTINUOUS
10
1.51223
20
-5.75138
11
1.50098
21
-5.757
0
LINE
8
BLACK
6
CONTINUOUS
10
1.50098
20
-5.757
11
1.47849
21
-5.757
0
LINE
8
BLACK
6
CONTINUOUS
10
1.47849
20
-5.757
11
1.46724
21
-5.76263
0
LINE
8
BLACK
6
CONTINUOUS
10
1.46724
20
-5.76263
11
1.46161
21
-5.76825
0
LINE
8
BLACK
6
CONTINUOUS
10
1.46161
20
-5.76825
11
1.45599
21
-5.7795
0
LINE
8
BLACK
6
CONTINUOUS
10
1.45599
20
-5.7795
11
1.45599
21
-5.802
0
LINE
8
BLACK
6
CONTINUOUS
10
1.45599
20
-5.802
11
1.46161
21
-5.81325
0
LINE
8
BLACK
6
CONTINUOUS
10
1.46161
20
-5.81325
11
1.46724
21
-5.81887
0
LINE
8
BLACK
6
CONTINUOUS
10
1.46724
20
-5.81887
11
1.47849
21
-5.82449
0
LINE
8
BLACK
6
CONTINUOUS
10
1.47849
20
-5.82449
11
1.50098
21
-5.82449
0
LINE
8
BLACK
6
CONTINUOUS
10
1.50098
20
-5.82449
11
1.51223
21
-5.81887
0
LINE
8
BLACK
6
CONTINUOUS
10
1.51223
20
-5.81887
11
1.51786
21
-5.81325
0
LINE
8
BLACK
6
CONTINUOUS
10
1.51786
20
-5.81325
11
1.52348
21
-5.802
0
LINE
8
BLACK
6
CONTINUOUS
10
1.52348
20
-5.802
11
1.52348
21
-5.7795
0
LINE
8
BLACK
6
CONTINUOUS
10
1.52348
20
-5.7795
11
1.51786
21
-5.76825
0
LINE
8
BLACK
6
CONTINUOUS
10
1.51786
20
-5.76825
11
1.51223
21
-5.76263
0
LINE
8
BLACK
6
CONTINUOUS
10
1.51223
20
-5.76263
11
1.50098
21
-5.757
0
LINE
8
BLACK
6
CONTINUOUS
10
1.5966
20
-5.70638
11
1.60785
21
-5.70638
0
LINE
8
BLACK
6
CONTINUOUS
10
1.60785
20
-5.70638
11
1.61909
21
-5.71201
0
LINE
8
BLACK
6
CONTINUOUS
10
1.61909
20
-5.71201
11
1.62472
21
-5.71763
0
LINE
8
BLACK
6
CONTINUOUS
10
1.62472
20
-5.71763
11
1.63034
21
-5.72888
0
LINE
8
BLACK
6
CONTINUOUS
10
1.63034
20
-5.72888
11
1.63597
21
-5.75138
0
LINE
8
BLACK
6
CONTINUOUS
10
1.63597
20
-5.75138
11
1.63597
21
-5.7795
0
LINE
8
BLACK
6
CONTINUOUS
10
1.63597
20
-5.7795
11
1.63034
21
-5.802
0
LINE
8
BLACK
6
CONTINUOUS
10
1.63034
20
-5.802
11
1.62472
21
-5.81325
0
LINE
8
BLACK
6
CONTINUOUS
10
1.62472
20
-5.81325
11
1.61909
21
-5.81887
0
LINE
8
BLACK
6
CONTINUOUS
10
1.61909
20
-5.81887
11
1.60785
21
-5.82449
0
LINE
8
BLACK
6
CONTINUOUS
10
1.60785
20
-5.82449
11
1.5966
21
-5.82449
0
LINE
8
BLACK
6
CONTINUOUS
10
1.5966
20
-5.82449
11
1.58535
21
-5.81887
0
LINE
8
BLACK
6
CONTINUOUS
10
1.58535
20
-5.81887
11
1.57972
21
-5.81325
0
LINE
8
BLACK
6
CONTINUOUS
10
1.57972
20
-5.81325
11
1.5741
21
-5.802
0
LINE
8
BLACK
6
CONTINUOUS
10
1.5741
20
-5.802
11
1.56848
21
-5.7795
0
LINE
8
BLACK
6
CONTINUOUS
10
1.56848
20
-5.7795
11
1.56848
21
-5.75138
0
LINE
8
BLACK
6
CONTINUOUS
10
1.56848
20
-5.75138
11
1.5741
21
-5.72888
0
LINE
8
BLACK
6
CONTINUOUS
10
1.5741
20
-5.72888
11
1.57972
21
-5.71763
0
LINE
8
BLACK
6
CONTINUOUS
10
1.57972
20
-5.71763
11
1.58535
21
-5.71201
0
LINE
8
BLACK
6
CONTINUOUS
10
1.58535
20
-5.71201
11
1.5966
21
-5.70638
0
LINE
8
BLACK
6
CONTINUOUS
10
1.70908
20
-5.70638
11
1.72033
21
-5.70638
0
LINE
8
BLACK
6
CONTINUOUS
10
1.72033
20
-5.70638
11
1.73158
21
-5.71201
0
LINE
8
BLACK
6
CONTINUOUS
10
1.73158
20
-5.71201
11
1.7372
21
-5.71763
0
LINE
8
BLACK
6
CONTINUOUS
10
1.7372
20
-5.71763
11
1.74283
21
-5.72888
0
LINE
8
BLACK
6
CONTINUOUS
10
1.74283
20
-5.72888
11
1.74845
21
-5.75138
0
LINE
8
BLACK
6
CONTINUOUS
10
1.74845
20
-5.75138
11
1.74845
21
-5.7795
0
LINE
8
BLACK
6
CONTINUOUS
10
1.74845
20
-5.7795
11
1.74283
21
-5.802
0
LINE
8
BLACK
6
CONTINUOUS
10
1.74283
20
-5.802
11
1.7372
21
-5.81325
0
LINE
8
BLACK
6
CONTINUOUS
10
1.7372
20
-5.81325
11
1.73158
21
-5.81887
0
LINE
8
BLACK
6
CONTINUOUS
10
1.73158
20
-5.81887
11
1.72033
21
-5.82449
0
LINE
8
BLACK
6
CONTINUOUS
10
1.72033
20
-5.82449
11
1.70908
21
-5.82449
0
LINE
8
BLACK
6
CONTINUOUS
10
1.70908
20
-5.82449
11
1.69783
21
-5.81887
0
LINE
8
BLACK
6
CONTINUOUS
10
1.69783
20
-5.81887
11
1.69221
21
-5.81325
0
LINE
8
BLACK
6
CONTINUOUS
10
1.69221
20
-5.81325
11
1.68659
21
-5.802
0
LINE
8
BLACK
6
CONTINUOUS
10
1.68659
20
-5.802
11
1.68096
21
-5.7795
0
LINE
8
BLACK
6
CONTINUOUS
10
1.68096
20
-5.7795
11
1.68096
21
-5.75138
0
LINE
8
BLACK
6
CONTINUOUS
10
1.68096
20
-5.75138
11
1.68659
21
-5.72888
0
LINE
8
BLACK
6
CONTINUOUS
10
1.68659
20
-5.72888
11
1.69221
21
-5.71763
0
LINE
8
BLACK
6
CONTINUOUS
10
1.69221
20
-5.71763
11
1.69783
21
-5.71201
0
LINE
8
BLACK
6
CONTINUOUS
10
1.69783
20
-5.71201
11
1.70908
21
-5.70638
0
LINE
8
BLACK
6
CONTINUOUS
10
1.79907
20
-5.82449
11
1.79907
21
-5.74575
0
LINE
8
BLACK
6
CONTINUOUS
10
1.79907
20
-5.757
11
1.8047
21
-5.75138
0
LINE
8
BLACK
6
CONTINUOUS
10
1.8047
20
-5.75138
11
1.81594
21
-5.74575
0
LINE
8
BLACK
6
CONTINUOUS
10
1.81594
20
-5.74575
11
1.83282
21
-5.74575
0
LINE
8
BLACK
6
CONTINUOUS
10
1.83282
20
-5.74575
11
1.84407
21
-5.75138
0
LINE
8
BLACK
6
CONTINUOUS
10
1.84407
20
-5.75138
11
1.84969
21
-5.76263
0
LINE
8
BLACK
6
CONTINUOUS
10
1.84969
20
-5.76263
11
1.84969
21
-5.82449
0
LINE
8
BLACK
6
CONTINUOUS
10
1.84969
20
-5.76263
11
1.85531
21
-5.75138
0
LINE
8
BLACK
6
CONTINUOUS
10
1.85531
20
-5.75138
11
1.86656
21
-5.74575
0
LINE
8
BLACK
6
CONTINUOUS
10
1.86656
20
-5.74575
11
1.88344
21
-5.74575
0
LINE
8
BLACK
6
CONTINUOUS
10
1.88344
20
-5.74575
11
1.89468
21
-5.75138
0
LINE
8
BLACK
6
CONTINUOUS
10
1.89468
20
-5.75138
11
1.90031
21
-5.76263
0
LINE
8
BLACK
6
CONTINUOUS
10
1.90031
20
-5.76263
11
1.90031
21
-5.82449
0
LINE
8
BLACK
6
CONTINUOUS
10
1.95655
20
-5.82449
11
1.95655
21
-5.74575
0
LINE
8
BLACK
6
CONTINUOUS
10
1.95655
20
-5.757
11
1.96218
21
-5.75138
0
LINE
8
BLACK
6
CONTINUOUS
10
1.96218
20
-5.75138
11
1.97343
21
-5.74575
0
LINE
8
BLACK
6
CONTINUOUS
10
1.97343
20
-5.74575
11
1.9903
21
-5.74575
0
LINE
8
BLACK
6
CONTINUOUS
10
1.9903
20
-5.74575
11
2.00155
21
-5.75138
0
LINE
8
BLACK
6
CONTINUOUS
10
2.00155
20
-5.75138
11
2.00717
21
-5.76263
0
LINE
8
BLACK
6
CONTINUOUS
10
2.00717
20
-5.76263
11
2.00717
21
-5.82449
0
LINE
8
BLACK
6
CONTINUOUS
10
2.00717
20
-5.76263
11
2.0128
21
-5.75138
0
LINE
8
BLACK
6
CONTINUOUS
10
2.0128
20
-5.75138
11
2.02404
21
-5.74575
0
LINE
8
BLACK
6
CONTINUOUS
10
2.02404
20
-5.74575
11
2.04092
21
-5.74575
0
LINE
8
BLACK
6
CONTINUOUS
10
2.04092
20
-5.74575
11
2.05217
21
-5.75138
0
LINE
8
BLACK
6
CONTINUOUS
10
2.05217
20
-5.75138
11
2.05779
21
-5.76263
0
LINE
8
BLACK
6
CONTINUOUS
10
2.05779
20
-5.76263
11
2.05779
21
-5.82449
0
LINE
8
BLACK
6
CONTINUOUS
10
2.28839
20
-5.70076
11
2.18715
21
-5.85262
0
LINE
8
BLACK
6
CONTINUOUS
10
2.44024
20
-5.70638
11
2.45149
21
-5.70638
0
LINE
8
BLACK
6
CONTINUOUS
10
2.45149
20
-5.70638
11
2.46274
21
-5.71201
0
LINE
8
BLACK
6
CONTINUOUS
10
2.46274
20
-5.71201
11
2.46836
21
-5.71763
0
LINE
8
BLACK
6
CONTINUOUS
10
2.46836
20
-5.71763
11
2.47399
21
-5.72888
0
LINE
8
BLACK
6
CONTINUOUS
10
2.47399
20
-5.72888
11
2.47961
21
-5.75138
0
LINE
8
BLACK
6
CONTINUOUS
10
2.47961
20
-5.75138
11
2.47961
21
-5.7795
0
LINE
8
BLACK
6
CONTINUOUS
10
2.47961
20
-5.7795
11
2.47399
21
-5.802
0
LINE
8
BLACK
6
CONTINUOUS
10
2.47399
20
-5.802
11
2.46836
21
-5.81325
0
LINE
8
BLACK
6
CONTINUOUS
10
2.46836
20
-5.81325
11
2.46274
21
-5.81887
0
LINE
8
BLACK
6
CONTINUOUS
10
2.46274
20
-5.81887
11
2.45149
21
-5.82449
0
LINE
8
BLACK
6
CONTINUOUS
10
2.45149
20
-5.82449
11
2.44024
21
-5.82449
0
LINE
8
BLACK
6
CONTINUOUS
10
2.44024
20
-5.82449
11
2.42899
21
-5.81887
0
LINE
8
BLACK
6
CONTINUOUS
10
2.42899
20
-5.81887
11
2.42337
21
-5.81325
0
LINE
8
BLACK
6
CONTINUOUS
10
2.42337
20
-5.81325
11
2.41774
21
-5.802
0
LINE
8
BLACK
6
CONTINUOUS
10
2.41774
20
-5.802
11
2.41212
21
-5.7795
0
LINE
8
BLACK
6
CONTINUOUS
10
2.41212
20
-5.7795
11
2.41212
21
-5.75138
0
LINE
8
BLACK
6
CONTINUOUS
10
2.41212
20
-5.75138
11
2.41774
21
-5.72888
0
LINE
8
BLACK
6
CONTINUOUS
10
2.41774
20
-5.72888
11
2.42337
21
-5.71763
0
LINE
8
BLACK
6
CONTINUOUS
10
2.42337
20
-5.71763
11
2.42899
21
-5.71201
0
LINE
8
BLACK
6
CONTINUOUS
10
2.42899
20
-5.71201
11
2.44024
21
-5.70638
0
LINE
8
BLACK
6
CONTINUOUS
10
2.53023
20
-5.81325
11
2.53585
21
-5.81887
0
LINE
8
BLACK
6
CONTINUOUS
10
2.53585
20
-5.81887
11
2.53023
21
-5.82449
0
LINE
8
BLACK
6
CONTINUOUS
10
2.53023
20
-5.82449
11
2.52461
21
-5.81887
0
LINE
8
BLACK
6
CONTINUOUS
10
2.52461
20
-5.81887
11
2.53023
21
-5.81325
0
LINE
8
BLACK
6
CONTINUOUS
10
2.53023
20
-5.81325
11
2.53023
21
-5.82449
0
LINE
8
BLACK
6
CONTINUOUS
10
2.60897
20
-5.70638
11
2.62022
21
-5.70638
0
LINE
8
BLACK
6
CONTINUOUS
10
2.62022
20
-5.70638
11
2.63147
21
-5.71201
0
LINE
8
BLACK
6
CONTINUOUS
10
2.63147
20
-5.71201
11
2.63709
21
-5.71763
0
LINE
8
BLACK
6
CONTINUOUS
10
2.63709
20
-5.71763
11
2.64272
21
-5.72888
0
LINE
8
BLACK
6
CONTINUOUS
10
2.64272
20
-5.72888
11
2.64834
21
-5.75138
0
LINE
8
BLACK
6
CONTINUOUS
10
2.64834
20
-5.75138
11
2.64834
21
-5.7795
0
LINE
8
BLACK
6
CONTINUOUS
10
2.64834
20
-5.7795
11
2.64272
21
-5.802
0
LINE
8
BLACK
6
CONTINUOUS
10
2.64272
20
-5.802
11
2.63709
21
-5.81325
0
LINE
8
BLACK
6
CONTINUOUS
10
2.63709
20
-5.81325
11
2.63147
21
-5.81887
0
LINE
8
BLACK
6
CONTINUOUS
10
2.63147
20
-5.81887
11
2.62022
21
-5.82449
0
LINE
8
BLACK
6
CONTINUOUS
10
2.62022
20
-5.82449
11
2.60897
21
-5.82449
0
LINE
8
BLACK
6
CONTINUOUS
10
2.60897
20
-5.82449
11
2.59772
21
-5.81887
0
LINE
8
BLACK
6
CONTINUOUS
10
2.59772
20
-5.81887
11
2.5921
21
-5.81325
0
LINE
8
BLACK
6
CONTINUOUS
10
2.5921
20
-5.81325
11
2.58647
21
-5.802
0
LINE
8
BLACK
6
CONTINUOUS
10
2.58647
20
-5.802
11
2.58085
21
-5.7795
0
LINE
8
BLACK
6
CONTINUOUS
10
2.58085
20
-5.7795
11
2.58085
21
-5.75138
0
LINE
8
BLACK
6
CONTINUOUS
10
2.58085
20
-5.75138
11
2.58647
21
-5.72888
0
LINE
8
BLACK
6
CONTINUOUS
10
2.58647
20
-5.72888
11
2.5921
21
-5.71763
0
LINE
8
BLACK
6
CONTINUOUS
10
2.5921
20
-5.71763
11
2.59772
21
-5.71201
0
LINE
8
BLACK
6
CONTINUOUS
10
2.59772
20
-5.71201
11
2.60897
21
-5.70638
0
LINE
8
BLACK
6
CONTINUOUS
10
2.68771
20
-5.70638
11
2.76083
21
-5.70638
0
LINE
8
BLACK
6
CONTINUOUS
10
2.76083
20
-5.70638
11
2.72146
21
-5.75138
0
LINE
8
BLACK
6
CONTINUOUS
10
2.72146
20
-5.75138
11
2.73833
21
-5.75138
0
LINE
8
BLACK
6
CONTINUOUS
10
2.73833
20
-5.75138
11
2.74958
21
-5.757
0
LINE
8
BLACK
6
CONTINUOUS
10
2.74958
20
-5.757
11
2.7552
21
-5.76263
0
LINE
8
BLACK
6
CONTINUOUS
10
2.7552
20
-5.76263
11
2.76083
21
-5.77388
0
LINE
8
BLACK
6
CONTINUOUS
10
2.76083
20
-5.77388
11
2.76083
21
-5.802
0
LINE
8
BLACK
6
CONTINUOUS
10
2.76083
20
-5.802
11
2.7552
21
-5.81325
0
LINE
8
BLACK
6
CONTINUOUS
10
2.7552
20
-5.81325
11
2.74958
21
-5.81887
0
LINE
8
BLACK
6
CONTINUOUS
10
2.74958
20
-5.81887
11
2.73833
21
-5.82449
0
LINE
8
BLACK
6
CONTINUOUS
10
2.73833
20
-5.82449
11
2.70458
21
-5.82449
0
LINE
8
BLACK
6
CONTINUOUS
10
2.70458
20
-5.82449
11
2.69334
21
-5.81887
0
LINE
8
BLACK
6
CONTINUOUS
10
2.69334
20
-5.81887
11
2.68771
21
-5.81325
0
LINE
8
BLACK
6
CONTINUOUS
10
2.87331
20
-5.82449
11
2.80582
21
-5.82449
0
LINE
8
BLACK
6
CONTINUOUS
10
2.83957
20
-5.82449
11
2.83957
21
-5.70638
0
LINE
8
BLACK
6
CONTINUOUS
10
2.83957
20
-5.70638
11
2.82832
21
-5.72326
0
LINE
8
BLACK
6
CONTINUOUS
10
2.82832
20
-5.72326
11
2.81707
21
-5.73451
0
LINE
8
BLACK
6
CONTINUOUS
10
2.81707
20
-5.73451
11
2.80582
21
-5.74013
0
LINE
8
BLACK
6
CONTINUOUS
10
2.98017
20
-5.70638
11
2.92393
21
-5.70638
0
LINE
8
BLACK
6
CONTINUOUS
10
2.92393
20
-5.70638
11
2.91831
21
-5.76263
0
LINE
8
BLACK
6
CONTINUOUS
10
2.91831
20
-5.76263
11
2.92393
21
-5.757
0
LINE
8
BLACK
6
CONTINUOUS
10
2.92393
20
-5.757
11
2.93518
21
-5.75138
0
LINE
8
BLACK
6
CONTINUOUS
10
2.93518
20
-5.75138
11
2.9633
21
-5.75138
0
LINE
8
BLACK
6
CONTINUOUS
10
2.9633
20
-5.75138
11
2.97455
21
-5.757
0
LINE
8
BLACK
6
CONTINUOUS
10
2.97455
20
-5.757
11
2.98017
21
-5.76263
0
LINE
8
BLACK
6
CONTINUOUS
10
2.98017
20
-5.76263
11
2.9858
21
-5.77388
0
LINE
8
BLACK
6
CONTINUOUS
10
2.9858
20
-5.77388
11
2.9858
21
-5.802
0
LINE
8
BLACK
6
CONTINUOUS
10
2.9858
20
-5.802
11
2.98017
21
-5.81325
0
LINE
8
BLACK
6
CONTINUOUS
10
2.98017
20
-5.81325
11
2.97455
21
-5.81887
0
LINE
8
BLACK
6
CONTINUOUS
10
2.97455
20
-5.81887
11
2.9633
21
-5.82449
0
LINE
8
BLACK
6
CONTINUOUS
10
2.9633
20
-5.82449
11
2.93518
21
-5.82449
0
LINE
8
BLACK
6
CONTINUOUS
10
2.93518
20
-5.82449
11
2.92393
21
-5.81887
0
LINE
8
BLACK
6
CONTINUOUS
10
2.92393
20
-5.81887
11
2.91831
21
-5.81325
0
LINE
8
BLACK
6
CONTINUOUS
10
3.03079
20
-5.70638
11
3.03079
21
-5.72888
0
LINE
8
BLACK
6
CONTINUOUS
10
3.07579
20
-5.70638
11
3.07579
21
-5.72888
0
LINE
8
BLACK
6
CONTINUOUS
10
3.25014
20
-5.86949
11
3.24452
21
-5.86386
0
LINE
8
BLACK
6
CONTINUOUS
10
3.24452
20
-5.86386
11
3.23327
21
-5.84699
0
LINE
8
BLACK
6
CONTINUOUS
10
3.23327
20
-5.84699
11
3.22764
21
-5.83574
0
LINE
8
BLACK
6
CONTINUOUS
10
3.22764
20
-5.83574
11
3.22202
21
-5.81887
0
LINE
8
BLACK
6
CONTINUOUS
10
3.22202
20
-5.81887
11
3.21639
21
-5.79075
0
LINE
8
BLACK
6
CONTINUOUS
10
3.21639
20
-5.79075
11
3.21639
21
-5.76825
0
LINE
8
BLACK
6
CONTINUOUS
10
3.21639
20
-5.76825
11
3.22202
21
-5.74013
0
LINE
8
BLACK
6
CONTINUOUS
10
3.22202
20
-5.74013
11
3.22764
21
-5.72326
0
LINE
8
BLACK
6
CONTINUOUS
10
3.22764
20
-5.72326
11
3.23327
21
-5.71201
0
LINE
8
BLACK
6
CONTINUOUS
10
3.23327
20
-5.71201
11
3.24452
21
-5.69513
0
LINE
8
BLACK
6
CONTINUOUS
10
3.24452
20
-5.69513
11
3.25014
21
-5.68951
0
LINE
8
BLACK
6
CONTINUOUS
10
3.28389
20
-5.70638
11
3.357
21
-5.70638
0
LINE
8
BLACK
6
CONTINUOUS
10
3.357
20
-5.70638
11
3.31763
21
-5.75138
0
LINE
8
BLACK
6
CONTINUOUS
10
3.31763
20
-5.75138
11
3.33451
21
-5.75138
0
LINE
8
BLACK
6
CONTINUOUS
10
3.33451
20
-5.75138
11
3.34575
21
-5.757
0
LINE
8
BLACK
6
CONTINUOUS
10
3.34575
20
-5.757
11
3.35138
21
-5.76263
0
LINE
8
BLACK
6
CONTINUOUS
10
3.35138
20
-5.76263
11
3.357
21
-5.77388
0
LINE
8
BLACK
6
CONTINUOUS
10
3.357
20
-5.77388
11
3.357
21
-5.802
0
LINE
8
BLACK
6
CONTINUOUS
10
3.357
20
-5.802
11
3.35138
21
-5.81325
0
LINE
8
BLACK
6
CONTINUOUS
10
3.35138
20
-5.81325
11
3.34575
21
-5.81887
0
LINE
8
BLACK
6
CONTINUOUS
10
3.34575
20
-5.81887
11
3.33451
21
-5.82449
0
LINE
8
BLACK
6
CONTINUOUS
10
3.33451
20
-5.82449
11
3.30076
21
-5.82449
0
LINE
8
BLACK
6
CONTINUOUS
10
3.30076
20
-5.82449
11
3.28951
21
-5.81887
0
LINE
8
BLACK
6
CONTINUOUS
10
3.28951
20
-5.81887
11
3.28389
21
-5.81325
0
LINE
8
BLACK
6
CONTINUOUS
10
3.42449
20
-5.757
11
3.41325
21
-5.75138
0
LINE
8
BLACK
6
CONTINUOUS
10
3.41325
20
-5.75138
11
3.40762
21
-5.74575
0
LINE
8
BLACK
6
CONTINUOUS
10
3.40762
20
-5.74575
11
3.402
21
-5.73451
0
LINE
8
BLACK
6
CONTINUOUS
10
3.402
20
-5.73451
11
3.402
21
-5.72888
0
LINE
8
BLACK
6
CONTINUOUS
10
3.402
20
-5.72888
11
3.40762
21
-5.71763
0
LINE
8
BLACK
6
CONTINUOUS
10
3.40762
20
-5.71763
11
3.41325
21
-5.71201
0
LINE
8
BLACK
6
CONTINUOUS
10
3.41325
20
-5.71201
11
3.42449
21
-5.70638
0
LINE
8
BLACK
6
CONTINUOUS
10
3.42449
20
-5.70638
11
3.44699
21
-5.70638
0
LINE
8
BLACK
6
CONTINUOUS
10
3.44699
20
-5.70638
11
3.45824
21
-5.71201
0
LINE
8
BLACK
6
CONTINUOUS
10
3.45824
20
-5.71201
11
3.46386
21
-5.71763
0
LINE
8
BLACK
6
CONTINUOUS
10
3.46386
20
-5.71763
11
3.46949
21
-5.72888
0
LINE
8
BLACK
6
CONTINUOUS
10
3.46949
20
-5.72888
11
3.46949
21
-5.73451
0
LINE
8
BLACK
6
CONTINUOUS
10
3.46949
20
-5.73451
11
3.46386
21
-5.74575
0
LINE
8
BLACK
6
CONTINUOUS
10
3.46386
20
-5.74575
11
3.45824
21
-5.75138
0
LINE
8
BLACK
6
CONTINUOUS
10
3.45824
20
-5.75138
11
3.44699
21
-5.757
0
LINE
8
BLACK
6
CONTINUOUS
10
3.44699
20
-5.757
11
3.42449
21
-5.757
0
LINE
8
BLACK
6
CONTINUOUS
10
3.42449
20
-5.757
11
3.41325
21
-5.76263
0
LINE
8
BLACK
6
CONTINUOUS
10
3.41325
20
-5.76263
11
3.40762
21
-5.76825
0
LINE
8
BLACK
6
CONTINUOUS
10
3.40762
20
-5.76825
11
3.402
21
-5.7795
0
LINE
8
BLACK
6
CONTINUOUS
10
3.402
20
-5.7795
11
3.402
21
-5.802
0
LINE
8
BLACK
6
CONTINUOUS
10
3.402
20
-5.802
11
3.40762
21
-5.81325
0
LINE
8
BLACK
6
CONTINUOUS
10
3.40762
20
-5.81325
11
3.41325
21
-5.81887
0
LINE
8
BLACK
6
CONTINUOUS
10
3.41325
20
-5.81887
11
3.42449
21
-5.82449
0
LINE
8
BLACK
6
CONTINUOUS
10
3.42449
20
-5.82449
11
3.44699
21
-5.82449
0
LINE
8
BLACK
6
CONTINUOUS
10
3.44699
20
-5.82449
11
3.45824
21
-5.81887
0
LINE
8
BLACK
6
CONTINUOUS
10
3.45824
20
-5.81887
11
3.46386
21
-5.81325
0
LINE
8
BLACK
6
CONTINUOUS
10
3.46386
20
-5.81325
11
3.46949
21
-5.802
0
LINE
8
BLACK
6
CONTINUOUS
10
3.46949
20
-5.802
11
3.46949
21
-5.7795
0
LINE
8
BLACK
6
CONTINUOUS
10
3.46949
20
-5.7795
11
3.46386
21
-5.76825
0
LINE
8
BLACK
6
CONTINUOUS
10
3.46386
20
-5.76825
11
3.45824
21
-5.76263
0
LINE
8
BLACK
6
CONTINUOUS
10
3.45824
20
-5.76263
11
3.44699
21
-5.757
0
LINE
8
BLACK
6
CONTINUOUS
10
3.6101
20
-5.82449
11
3.6101
21
-5.70638
0
LINE
8
BLACK
6
CONTINUOUS
10
3.66071
20
-5.82449
11
3.66071
21
-5.76263
0
LINE
8
BLACK
6
CONTINUOUS
10
3.66071
20
-5.76263
11
3.65509
21
-5.75138
0
LINE
8
BLACK
6
CONTINUOUS
10
3.65509
20
-5.75138
11
3.64384
21
-5.74575
0
LINE
8
BLACK
6
CONTINUOUS
10
3.64384
20
-5.74575
11
3.62697
21
-5.74575
0
LINE
8
BLACK
6
CONTINUOUS
10
3.62697
20
-5.74575
11
3.61572
21
-5.75138
0
LINE
8
BLACK
6
CONTINUOUS
10
3.61572
20
-5.75138
11
3.6101
21
-5.757
0
LINE
8
BLACK
6
CONTINUOUS
10
3.73383
20
-5.82449
11
3.72258
21
-5.81887
0
LINE
8
BLACK
6
CONTINUOUS
10
3.72258
20
-5.81887
11
3.71696
21
-5.81325
0
LINE
8
BLACK
6
CONTINUOUS
10
3.71696
20
-5.81325
11
3.71133
21
-5.802
0
LINE
8
BLACK
6
CONTINUOUS
10
3.71133
20
-5.802
11
3.71133
21
-5.76825
0
LINE
8
BLACK
6
CONTINUOUS
10
3.71133
20
-5.76825
11
3.71696
21
-5.757
0
LINE
8
BLACK
6
CONTINUOUS
10
3.71696
20
-5.757
11
3.72258
21
-5.75138
0
LINE
8
BLACK
6
CONTINUOUS
10
3.72258
20
-5.75138
11
3.73383
21
-5.74575
0
LINE
8
BLACK
6
CONTINUOUS
10
3.73383
20
-5.74575
11
3.7507
21
-5.74575
0
LINE
8
BLACK
6
CONTINUOUS
10
3.7507
20
-5.74575
11
3.76195
21
-5.75138
0
LINE
8
BLACK
6
CONTINUOUS
10
3.76195
20
-5.75138
11
3.76758
21
-5.757
0
LINE
8
BLACK
6
CONTINUOUS
10
3.76758
20
-5.757
11
3.7732
21
-5.76825
0
LINE
8
BLACK
6
CONTINUOUS
10
3.7732
20
-5.76825
11
3.7732
21
-5.802
0
LINE
8
BLACK
6
CONTINUOUS
10
3.7732
20
-5.802
11
3.76758
21
-5.81325
0
LINE
8
BLACK
6
CONTINUOUS
10
3.76758
20
-5.81325
11
3.76195
21
-5.81887
0
LINE
8
BLACK
6
CONTINUOUS
10
3.76195
20
-5.81887
11
3.7507
21
-5.82449
0
LINE
8
BLACK
6
CONTINUOUS
10
3.7507
20
-5.82449
11
3.73383
21
-5.82449
0
LINE
8
BLACK
6
CONTINUOUS
10
3.84069
20
-5.82449
11
3.82944
21
-5.81887
0
LINE
8
BLACK
6
CONTINUOUS
10
3.82944
20
-5.81887
11
3.82382
21
-5.80762
0
LINE
8
BLACK
6
CONTINUOUS
10
3.82382
20
-5.80762
11
3.82382
21
-5.70638
0
LINE
8
BLACK
6
CONTINUOUS
10
3.93068
20
-5.81887
11
3.91943
21
-5.82449
0
LINE
8
BLACK
6
CONTINUOUS
10
3.91943
20
-5.82449
11
3.89693
21
-5.82449
0
LINE
8
BLACK
6
CONTINUOUS
10
3.89693
20
-5.82449
11
3.88569
21
-5.81887
0
LINE
8
BLACK
6
CONTINUOUS
10
3.88569
20
-5.81887
11
3.88006
21
-5.80762
0
LINE
8
BLACK
6
CONTINUOUS
10
3.88006
20
-5.80762
11
3.88006
21
-5.76263
0
LINE
8
BLACK
6
CONTINUOUS
10
3.88006
20
-5.76263
11
3.88569
21
-5.75138
0
LINE
8
BLACK
6
CONTINUOUS
10
3.88569
20
-5.75138
11
3.89693
21
-5.74575
0
LINE
8
BLACK
6
CONTINUOUS
10
3.89693
20
-5.74575
11
3.91943
21
-5.74575
0
LINE
8
BLACK
6
CONTINUOUS
10
3.91943
20
-5.74575
11
3.93068
21
-5.75138
0
LINE
8
BLACK
6
CONTINUOUS
10
3.93068
20
-5.75138
11
3.9363
21
-5.76263
0
LINE
8
BLACK
6
CONTINUOUS
10
3.9363
20
-5.76263
11
3.9363
21
-5.77388
0
LINE
8
BLACK
6
CONTINUOUS
10
3.9363
20
-5.77388
11
3.88006
21
-5.78512
0
LINE
8
BLACK
6
CONTINUOUS
10
3.9813
20
-5.81887
11
3.99255
21
-5.82449
0
LINE
8
BLACK
6
CONTINUOUS
10
3.99255
20
-5.82449
11
4.01504
21
-5.82449
0
LINE
8
BLACK
6
CONTINUOUS
10
4.01504
20
-5.82449
11
4.02629
21
-5.81887
0
LINE
8
BLACK
6
CONTINUOUS
10
4.02629
20
-5.81887
11
4.03192
21
-5.80762
0
LINE
8
BLACK
6
CONTINUOUS
10
4.03192
20
-5.80762
11
4.03192
21
-5.802
0
LINE
8
BLACK
6
CONTINUOUS
10
4.03192
20
-5.802
11
4.02629
21
-5.79075
0
LINE
8
BLACK
6
CONTINUOUS
10
4.02629
20
-5.79075
11
4.01504
21
-5.78512
0
LINE
8
BLACK
6
CONTINUOUS
10
4.01504
20
-5.78512
11
3.99817
21
-5.78512
0
LINE
8
BLACK
6
CONTINUOUS
10
3.99817
20
-5.78512
11
3.98692
21
-5.7795
0
LINE
8
BLACK
6
CONTINUOUS
10
3.98692
20
-5.7795
11
3.9813
21
-5.76825
0
LINE
8
BLACK
6
CONTINUOUS
10
3.9813
20
-5.76825
11
3.9813
21
-5.76263
0
LINE
8
BLACK
6
CONTINUOUS
10
3.9813
20
-5.76263
11
3.98692
21
-5.75138
0
LINE
8
BLACK
6
CONTINUOUS
10
3.98692
20
-5.75138
11
3.99817
21
-5.74575
0
LINE
8
BLACK
6
CONTINUOUS
10
3.99817
20
-5.74575
11
4.01504
21
-5.74575
0
LINE
8
BLACK
6
CONTINUOUS
10
4.01504
20
-5.74575
11
4.02629
21
-5.75138
0
LINE
8
BLACK
6
CONTINUOUS
10
4.07129
20
-5.86949
11
4.07691
21
-5.86386
0
LINE
8
BLACK
6
CONTINUOUS
10
4.07691
20
-5.86386
11
4.08816
21
-5.84699
0
LINE
8
BLACK
6
CONTINUOUS
10
4.08816
20
-5.84699
11
4.09379
21
-5.83574
0
LINE
8
BLACK
6
CONTINUOUS
10
4.09379
20
-5.83574
11
4.09941
21
-5.81887
0
LINE
8
BLACK
6
CONTINUOUS
10
4.09941
20
-5.81887
11
4.10503
21
-5.79075
0
LINE
8
BLACK
6
CONTINUOUS
10
4.10503
20
-5.79075
11
4.10503
21
-5.76825
0
LINE
8
BLACK
6
CONTINUOUS
10
4.10503
20
-5.76825
11
4.09941
21
-5.74013
0
LINE
8
BLACK
6
CONTINUOUS
10
4.09941
20
-5.74013
11
4.09379
21
-5.72326
0
LINE
8
BLACK
6
CONTINUOUS
10
4.09379
20
-5.72326
11
4.08816
21
-5.71201
0
LINE
8
BLACK
6
CONTINUOUS
10
4.08816
20
-5.71201
11
4.07691
21
-5.69513
0
LINE
8
BLACK
6
CONTINUOUS
10
4.07691
20
-5.69513
11
4.07129
21
-5.68951
0
LINE
8
BLACK
6
CONTINUOUS
10
1.1624
20
-5.90925
11
1.1624
21
-5.94469
0
LINE
8
BLACK
6
CONTINUOUS
10
1.14468
20
-5.92697
11
1.18012
21
-5.92697
0
LINE
8
BLACK
6
CONTINUOUS
10
1.31538
20
-5.86229
11
1.32663
21
-5.86229
0
LINE
8
BLACK
6
CONTINUOUS
10
1.32663
20
-5.86229
11
1.33788
21
-5.86791
0
LINE
8
BLACK
6
CONTINUOUS
10
1.33788
20
-5.86791
11
1.3435
21
-5.87354
0
LINE
8
BLACK
6
CONTINUOUS
10
1.3435
20
-5.87354
11
1.34913
21
-5.88479
0
LINE
8
BLACK
6
CONTINUOUS
10
1.34913
20
-5.88479
11
1.35475
21
-5.90728
0
LINE
8
BLACK
6
CONTINUOUS
10
1.35475
20
-5.90728
11
1.35475
21
-5.9354
0
LINE
8
BLACK
6
CONTINUOUS
10
1.35475
20
-5.9354
11
1.34913
21
-5.9579
0
LINE
8
BLACK
6
CONTINUOUS
10
1.34913
20
-5.9579
11
1.3435
21
-5.96915
0
LINE
8
BLACK
6
CONTINUOUS
10
1.3435
20
-5.96915
11
1.33788
21
-5.97478
0
LINE
8
BLACK
6
CONTINUOUS
10
1.33788
20
-5.97478
11
1.32663
21
-5.9804
0
LINE
8
BLACK
6
CONTINUOUS
10
1.32663
20
-5.9804
11
1.31538
21
-5.9804
0
LINE
8
BLACK
6
CONTINUOUS
10
1.31538
20
-5.9804
11
1.30413
21
-5.97478
0
LINE
8
BLACK
6
CONTINUOUS
10
1.30413
20
-5.97478
11
1.29851
21
-5.96915
0
LINE
8
BLACK
6
CONTINUOUS
10
1.29851
20
-5.96915
11
1.29289
21
-5.9579
0
LINE
8
BLACK
6
CONTINUOUS
10
1.29289
20
-5.9579
11
1.28726
21
-5.9354
0
LINE
8
BLACK
6
CONTINUOUS
10
1.28726
20
-5.9354
11
1.28726
21
-5.90728
0
LINE
8
BLACK
6
CONTINUOUS
10
1.28726
20
-5.90728
11
1.29289
21
-5.88479
0
LINE
8
BLACK
6
CONTINUOUS
10
1.29289
20
-5.88479
11
1.29851
21
-5.87354
0
LINE
8
BLACK
6
CONTINUOUS
10
1.29851
20
-5.87354
11
1.30413
21
-5.86791
0
LINE
8
BLACK
6
CONTINUOUS
10
1.30413
20
-5.86791
11
1.31538
21
-5.86229
0
LINE
8
BLACK
6
CONTINUOUS
10
1.40537
20
-5.96915
11
1.411
21
-5.97478
0
LINE
8
BLACK
6
CONTINUOUS
10
1.411
20
-5.97478
11
1.40537
21
-5.9804
0
LINE
8
BLACK
6
CONTINUOUS
10
1.40537
20
-5.9804
11
1.39975
21
-5.97478
0
LINE
8
BLACK
6
CONTINUOUS
10
1.39975
20
-5.97478
11
1.40537
21
-5.96915
0
LINE
8
BLACK
6
CONTINUOUS
10
1.40537
20
-5.96915
11
1.40537
21
-5.9804
0
LINE
8
BLACK
6
CONTINUOUS
10
1.46724
20
-5.9804
11
1.48974
21
-5.9804
0
LINE
8
BLACK
6
CONTINUOUS
10
1.48974
20
-5.9804
11
1.50098
21
-5.97478
0
LINE
8
BLACK
6
CONTINUOUS
10
1.50098
20
-5.97478
11
1.50661
21
-5.96915
0
LINE
8
BLACK
6
CONTINUOUS
10
1.50661
20
-5.96915
11
1.51786
21
-5.95228
0
LINE
8
BLACK
6
CONTINUOUS
10
1.51786
20
-5.95228
11
1.52348
21
-5.92978
0
LINE
8
BLACK
6
CONTINUOUS
10
1.52348
20
-5.92978
11
1.52348
21
-5.88479
0
LINE
8
BLACK
6
CONTINUOUS
10
1.52348
20
-5.88479
11
1.51786
21
-5.87354
0
LINE
8
BLACK
6
CONTINUOUS
10
1.51786
20
-5.87354
11
1.51223
21
-5.86791
0
LINE
8
BLACK
6
CONTINUOUS
10
1.51223
20
-5.86791
11
1.50098
21
-5.86229
0
LINE
8
BLACK
6
CONTINUOUS
10
1.50098
20
-5.86229
11
1.47849
21
-5.86229
0
LINE
8
BLACK
6
CONTINUOUS
10
1.47849
20
-5.86229
11
1.46724
21
-5.86791
0
LINE
8
BLACK
6
CONTINUOUS
10
1.46724
20
-5.86791
11
1.46161
21
-5.87354
0
LINE
8
BLACK
6
CONTINUOUS
10
1.46161
20
-5.87354
11
1.45599
21
-5.88479
0
LINE
8
BLACK
6
CONTINUOUS
10
1.45599
20
-5.88479
11
1.45599
21
-5.91291
0
LINE
8
BLACK
6
CONTINUOUS
10
1.45599
20
-5.91291
11
1.46161
21
-5.92416
0
LINE
8
BLACK
6
CONTINUOUS
10
1.46161
20
-5.92416
11
1.46724
21
-5.92978
0
LINE
8
BLACK
6
CONTINUOUS
10
1.46724
20
-5.92978
11
1.47849
21
-5.9354
0
LINE
8
BLACK
6
CONTINUOUS
10
1.47849
20
-5.9354
11
1.50098
21
-5.9354
0
LINE
8
BLACK
6
CONTINUOUS
10
1.50098
20
-5.9354
11
1.51223
21
-5.92978
0
LINE
8
BLACK
6
CONTINUOUS
10
1.51223
20
-5.92978
11
1.51786
21
-5.92416
0
LINE
8
BLACK
6
CONTINUOUS
10
1.51786
20
-5.92416
11
1.52348
21
-5.91291
0
LINE
8
BLACK
6
CONTINUOUS
10
1.5966
20
-5.86229
11
1.60785
21
-5.86229
0
LINE
8
BLACK
6
CONTINUOUS
10
1.60785
20
-5.86229
11
1.61909
21
-5.86791
0
LINE
8
BLACK
6
CONTINUOUS
10
1.61909
20
-5.86791
11
1.62472
21
-5.87354
0
LINE
8
BLACK
6
CONTINUOUS
10
1.62472
20
-5.87354
11
1.63034
21
-5.88479
0
LINE
8
BLACK
6
CONTINUOUS
10
1.63034
20
-5.88479
11
1.63597
21
-5.90728
0
LINE
8
BLACK
6
CONTINUOUS
10
1.63597
20
-5.90728
11
1.63597
21
-5.9354
0
LINE
8
BLACK
6
CONTINUOUS
10
1.63597
20
-5.9354
11
1.63034
21
-5.9579
0
LINE
8
BLACK
6
CONTINUOUS
10
1.63034
20
-5.9579
11
1.62472
21
-5.96915
0
LINE
8
BLACK
6
CONTINUOUS
10
1.62472
20
-5.96915
11
1.61909
21
-5.97478
0
LINE
8
BLACK
6
CONTINUOUS
10
1.61909
20
-5.97478
11
1.60785
21
-5.9804
0
LINE
8
BLACK
6
CONTINUOUS
10
1.60785
20
-5.9804
11
1.5966
21
-5.9804
0
LINE
8
BLACK
6
CONTINUOUS
10
1.5966
20
-5.9804
11
1.58535
21
-5.97478
0
LINE
8
BLACK
6
CONTINUOUS
10
1.58535
20
-5.97478
11
1.57972
21
-5.96915
0
LINE
8
BLACK
6
CONTINUOUS
10
1.57972
20
-5.96915
11
1.5741
21
-5.9579
0
LINE
8
BLACK
6
CONTINUOUS
10
1.5741
20
-5.9579
11
1.56848
21
-5.9354
0
LINE
8
BLACK
6
CONTINUOUS
10
1.56848
20
-5.9354
11
1.56848
21
-5.90728
0
LINE
8
BLACK
6
CONTINUOUS
10
1.56848
20
-5.90728
11
1.5741
21
-5.88479
0
LINE
8
BLACK
6
CONTINUOUS
10
1.5741
20
-5.88479
11
1.57972
21
-5.87354
0
LINE
8
BLACK
6
CONTINUOUS
10
1.57972
20
-5.87354
11
1.58535
21
-5.86791
0
LINE
8
BLACK
6
CONTINUOUS
10
1.58535
20
-5.86791
11
1.5966
21
-5.86229
0
LINE
8
BLACK
6
CONTINUOUS
10
1.70908
20
-5.86229
11
1.72033
21
-5.86229
0
LINE
8
BLACK
6
CONTINUOUS
10
1.72033
20
-5.86229
11
1.73158
21
-5.86791
0
LINE
8
BLACK
6
CONTINUOUS
10
1.73158
20
-5.86791
11
1.7372
21
-5.87354
0
LINE
8
BLACK
6
CONTINUOUS
10
1.7372
20
-5.87354
11
1.74283
21
-5.88479
0
LINE
8
BLACK
6
CONTINUOUS
10
1.74283
20
-5.88479
11
1.74845
21
-5.90728
0
LINE
8
BLACK
6
CONTINUOUS
10
1.74845
20
-5.90728
11
1.74845
21
-5.9354
0
LINE
8
BLACK
6
CONTINUOUS
10
1.74845
20
-5.9354
11
1.74283
21
-5.9579
0
LINE
8
BLACK
6
CONTINUOUS
10
1.74283
20
-5.9579
11
1.7372
21
-5.96915
0
LINE
8
BLACK
6
CONTINUOUS
10
1.7372
20
-5.96915
11
1.73158
21
-5.97478
0
LINE
8
BLACK
6
CONTINUOUS
10
1.73158
20
-5.97478
11
1.72033
21
-5.9804
0
LINE
8
BLACK
6
CONTINUOUS
10
1.72033
20
-5.9804
11
1.70908
21
-5.9804
0
LINE
8
BLACK
6
CONTINUOUS
10
1.70908
20
-5.9804
11
1.69783
21
-5.97478
0
LINE
8
BLACK
6
CONTINUOUS
10
1.69783
20
-5.97478
11
1.69221
21
-5.96915
0
LINE
8
BLACK
6
CONTINUOUS
10
1.69221
20
-5.96915
11
1.68659
21
-5.9579
0
LINE
8
BLACK
6
CONTINUOUS
10
1.68659
20
-5.9579
11
1.68096
21
-5.9354
0
LINE
8
BLACK
6
CONTINUOUS
10
1.68096
20
-5.9354
11
1.68096
21
-5.90728
0
LINE
8
BLACK
6
CONTINUOUS
10
1.68096
20
-5.90728
11
1.68659
21
-5.88479
0
LINE
8
BLACK
6
CONTINUOUS
10
1.68659
20
-5.88479
11
1.69221
21
-5.87354
0
LINE
8
BLACK
6
CONTINUOUS
10
1.69221
20
-5.87354
11
1.69783
21
-5.86791
0
LINE
8
BLACK
6
CONTINUOUS
10
1.69783
20
-5.86791
11
1.70908
21
-5.86229
0
LINE
8
BLACK
6
CONTINUOUS
10
1.79907
20
-5.9804
11
1.79907
21
-5.90166
0
LINE
8
BLACK
6
CONTINUOUS
10
1.79907
20
-5.91291
11
1.8047
21
-5.90728
0
LINE
8
BLACK
6
CONTINUOUS
10
1.8047
20
-5.90728
11
1.81594
21
-5.90166
0
LINE
8
BLACK
6
CONTINUOUS
10
1.81594
20
-5.90166
11
1.83282
21
-5.90166
0
LINE
8
BLACK
6
CONTINUOUS
10
1.83282
20
-5.90166
11
1.84407
21
-5.90728
0
LINE
8
BLACK
6
CONTINUOUS
10
1.84407
20
-5.90728
11
1.84969
21
-5.91853
0
LINE
8
BLACK
6
CONTINUOUS
10
1.84969
20
-5.91853
11
1.84969
21
-5.9804
0
LINE
8
BLACK
6
CONTINUOUS
10
1.84969
20
-5.91853
11
1.85531
21
-5.90728
0
LINE
8
BLACK
6
CONTINUOUS
10
1.85531
20
-5.90728
11
1.86656
21
-5.90166
0
LINE
8
BLACK
6
CONTINUOUS
10
1.86656
20
-5.90166
11
1.88344
21
-5.90166
0
LINE
8
BLACK
6
CONTINUOUS
10
1.88344
20
-5.90166
11
1.89468
21
-5.90728
0
LINE
8
BLACK
6
CONTINUOUS
10
1.89468
20
-5.90728
11
1.90031
21
-5.91853
0
LINE
8
BLACK
6
CONTINUOUS
10
1.90031
20
-5.91853
11
1.90031
21
-5.9804
0
LINE
8
BLACK
6
CONTINUOUS
10
1.95655
20
-5.9804
11
1.95655
21
-5.90166
0
LINE
8
BLACK
6
CONTINUOUS
10
1.95655
20
-5.91291
11
1.96218
21
-5.90728
0
LINE
8
BLACK
6
CONTINUOUS
10
1.96218
20
-5.90728
11
1.97343
21
-5.90166
0
LINE
8
BLACK
6
CONTINUOUS
10
1.97343
20
-5.90166
11
1.9903
21
-5.90166
0
LINE
8
BLACK
6
CONTINUOUS
10
1.9903
20
-5.90166
11
2.00155
21
-5.90728
0
LINE
8
BLACK
6
CONTINUOUS
10
2.00155
20
-5.90728
11
2.00717
21
-5.91853
0
LINE
8
BLACK
6
CONTINUOUS
10
2.00717
20
-5.91853
11
2.00717
21
-5.9804
0
LINE
8
BLACK
6
CONTINUOUS
10
2.00717
20
-5.91853
11
2.0128
21
-5.90728
0
LINE
8
BLACK
6
CONTINUOUS
10
2.0128
20
-5.90728
11
2.02404
21
-5.90166
0
LINE
8
BLACK
6
CONTINUOUS
10
2.02404
20
-5.90166
11
2.04092
21
-5.90166
0
LINE
8
BLACK
6
CONTINUOUS
10
2.04092
20
-5.90166
11
2.05217
21
-5.90728
0
LINE
8
BLACK
6
CONTINUOUS
10
2.05217
20
-5.90728
11
2.05779
21
-5.91853
0
LINE
8
BLACK
6
CONTINUOUS
10
2.05779
20
-5.91853
11
2.05779
21
-5.9804
0
LINE
8
BLACK
6
CONTINUOUS
10
2.28839
20
-5.85666
11
2.18715
21
-6.00852
0
LINE
8
BLACK
6
CONTINUOUS
10
2.44024
20
-5.86229
11
2.45149
21
-5.86229
0
LINE
8
BLACK
6
CONTINUOUS
10
2.45149
20
-5.86229
11
2.46274
21
-5.86791
0
LINE
8
BLACK
6
CONTINUOUS
10
2.46274
20
-5.86791
11
2.46836
21
-5.87354
0
LINE
8
BLACK
6
CONTINUOUS
10
2.46836
20
-5.87354
11
2.47399
21
-5.88479
0
LINE
8
BLACK
6
CONTINUOUS
10
2.47399
20
-5.88479
11
2.47961
21
-5.90728
0
LINE
8
BLACK
6
CONTINUOUS
10
2.47961
20
-5.90728
11
2.47961
21
-5.9354
0
LINE
8
BLACK
6
CONTINUOUS
10
2.47961
20
-5.9354
11
2.47399
21
-5.9579
0
LINE
8
BLACK
6
CONTINUOUS
10
2.47399
20
-5.9579
11
2.46836
21
-5.96915
0
LINE
8
BLACK
6
CONTINUOUS
10
2.46836
20
-5.96915
11
2.46274
21
-5.97478
0
LINE
8
BLACK
6
CONTINUOUS
10
2.46274
20
-5.97478
11
2.45149
21
-5.9804
0
LINE
8
BLACK
6
CONTINUOUS
10
2.45149
20
-5.9804
11
2.44024
21
-5.9804
0
LINE
8
BLACK
6
CONTINUOUS
10
2.44024
20
-5.9804
11
2.42899
21
-5.97478
0
LINE
8
BLACK
6
CONTINUOUS
10
2.42899
20
-5.97478
11
2.42337
21
-5.96915
0
LINE
8
BLACK
6
CONTINUOUS
10
2.42337
20
-5.96915
11
2.41774
21
-5.9579
0
LINE
8
BLACK
6
CONTINUOUS
10
2.41774
20
-5.9579
11
2.41212
21
-5.9354
0
LINE
8
BLACK
6
CONTINUOUS
10
2.41212
20
-5.9354
11
2.41212
21
-5.90728
0
LINE
8
BLACK
6
CONTINUOUS
10
2.41212
20
-5.90728
11
2.41774
21
-5.88479
0
LINE
8
BLACK
6
CONTINUOUS
10
2.41774
20
-5.88479
11
2.42337
21
-5.87354
0
LINE
8
BLACK
6
CONTINUOUS
10
2.42337
20
-5.87354
11
2.42899
21
-5.86791
0
LINE
8
BLACK
6
CONTINUOUS
10
2.42899
20
-5.86791
11
2.44024
21
-5.86229
0
LINE
8
BLACK
6
CONTINUOUS
10
2.53023
20
-5.96915
11
2.53585
21
-5.97478
0
LINE
8
BLACK
6
CONTINUOUS
10
2.53585
20
-5.97478
11
2.53023
21
-5.9804
0
LINE
8
BLACK
6
CONTINUOUS
10
2.53023
20
-5.9804
11
2.52461
21
-5.97478
0
LINE
8
BLACK
6
CONTINUOUS
10
2.52461
20
-5.97478
11
2.53023
21
-5.96915
0
LINE
8
BLACK
6
CONTINUOUS
10
2.53023
20
-5.96915
11
2.53023
21
-5.9804
0
LINE
8
BLACK
6
CONTINUOUS
10
2.60897
20
-5.86229
11
2.62022
21
-5.86229
0
LINE
8
BLACK
6
CONTINUOUS
10
2.62022
20
-5.86229
11
2.63147
21
-5.86791
0
LINE
8
BLACK
6
CONTINUOUS
10
2.63147
20
-5.86791
11
2.63709
21
-5.87354
0
LINE
8
BLACK
6
CONTINUOUS
10
2.63709
20
-5.87354
11
2.64272
21
-5.88479
0
LINE
8
BLACK
6
CONTINUOUS
10
2.64272
20
-5.88479
11
2.64834
21
-5.90728
0
LINE
8
BLACK
6
CONTINUOUS
10
2.64834
20
-5.90728
11
2.64834
21
-5.9354
0
LINE
8
BLACK
6
CONTINUOUS
10
2.64834
20
-5.9354
11
2.64272
21
-5.9579
0
LINE
8
BLACK
6
CONTINUOUS
10
2.64272
20
-5.9579
11
2.63709
21
-5.96915
0
LINE
8
BLACK
6
CONTINUOUS
10
2.63709
20
-5.96915
11
2.63147
21
-5.97478
0
LINE
8
BLACK
6
CONTINUOUS
10
2.63147
20
-5.97478
11
2.62022
21
-5.9804
0
LINE
8
BLACK
6
CONTINUOUS
10
2.62022
20
-5.9804
11
2.60897
21
-5.9804
0
LINE
8
BLACK
6
CONTINUOUS
10
2.60897
20
-5.9804
11
2.59772
21
-5.97478
0
LINE
8
BLACK
6
CONTINUOUS
10
2.59772
20
-5.97478
11
2.5921
21
-5.96915
0
LINE
8
BLACK
6
CONTINUOUS
10
2.5921
20
-5.96915
11
2.58647
21
-5.9579
0
LINE
8
BLACK
6
CONTINUOUS
10
2.58647
20
-5.9579
11
2.58085
21
-5.9354
0
LINE
8
BLACK
6
CONTINUOUS
10
2.58085
20
-5.9354
11
2.58085
21
-5.90728
0
LINE
8
BLACK
6
CONTINUOUS
10
2.58085
20
-5.90728
11
2.58647
21
-5.88479
0
LINE
8
BLACK
6
CONTINUOUS
10
2.58647
20
-5.88479
11
2.5921
21
-5.87354
0
LINE
8
BLACK
6
CONTINUOUS
10
2.5921
20
-5.87354
11
2.59772
21
-5.86791
0
LINE
8
BLACK
6
CONTINUOUS
10
2.59772
20
-5.86791
11
2.60897
21
-5.86229
0
LINE
8
BLACK
6
CONTINUOUS
10
2.68771
20
-5.86229
11
2.76083
21
-5.86229
0
LINE
8
BLACK
6
CONTINUOUS
10
2.76083
20
-5.86229
11
2.72146
21
-5.90728
0
LINE
8
BLACK
6
CONTINUOUS
10
2.72146
20
-5.90728
11
2.73833
21
-5.90728
0
LINE
8
BLACK
6
CONTINUOUS
10
2.73833
20
-5.90728
11
2.74958
21
-5.91291
0
LINE
8
BLACK
6
CONTINUOUS
10
2.74958
20
-5.91291
11
2.7552
21
-5.91853
0
LINE
8
BLACK
6
CONTINUOUS
10
2.7552
20
-5.91853
11
2.76083
21
-5.92978
0
LINE
8
BLACK
6
CONTINUOUS
10
2.76083
20
-5.92978
11
2.76083
21
-5.9579
0
LINE
8
BLACK
6
CONTINUOUS
10
2.76083
20
-5.9579
11
2.7552
21
-5.96915
0
LINE
8
BLACK
6
CONTINUOUS
10
2.7552
20
-5.96915
11
2.74958
21
-5.97478
0
LINE
8
BLACK
6
CONTINUOUS
10
2.74958
20
-5.97478
11
2.73833
21
-5.9804
0
LINE
8
BLACK
6
CONTINUOUS
10
2.73833
20
-5.9804
11
2.70458
21
-5.9804
0
LINE
8
BLACK
6
CONTINUOUS
10
2.70458
20
-5.9804
11
2.69334
21
-5.97478
0
LINE
8
BLACK
6
CONTINUOUS
10
2.69334
20
-5.97478
11
2.68771
21
-5.96915
0
LINE
8
BLACK
6
CONTINUOUS
10
2.86769
20
-5.86229
11
2.81145
21
-5.86229
0
LINE
8
BLACK
6
CONTINUOUS
10
2.81145
20
-5.86229
11
2.80582
21
-5.91853
0
LINE
8
BLACK
6
CONTINUOUS
10
2.80582
20
-5.91853
11
2.81145
21
-5.91291
0
LINE
8
BLACK
6
CONTINUOUS
10
2.81145
20
-5.91291
11
2.82269
21
-5.90728
0
LINE
8
BLACK
6
CONTINUOUS
10
2.82269
20
-5.90728
11
2.85082
21
-5.90728
0
LINE
8
BLACK
6
CONTINUOUS
10
2.85082
20
-5.90728
11
2.86206
21
-5.91291
0
LINE
8
BLACK
6
CONTINUOUS
10
2.86206
20
-5.91291
11
2.86769
21
-5.91853
0
LINE
8
BLACK
6
CONTINUOUS
10
2.86769
20
-5.91853
11
2.87331
21
-5.92978
0
LINE
8
BLACK
6
CONTINUOUS
10
2.87331
20
-5.92978
11
2.87331
21
-5.9579
0
LINE
8
BLACK
6
CONTINUOUS
10
2.87331
20
-5.9579
11
2.86769
21
-5.96915
0
LINE
8
BLACK
6
CONTINUOUS
10
2.86769
20
-5.96915
11
2.86206
21
-5.97478
0
LINE
8
BLACK
6
CONTINUOUS
10
2.86206
20
-5.97478
11
2.85082
21
-5.9804
0
LINE
8
BLACK
6
CONTINUOUS
10
2.85082
20
-5.9804
11
2.82269
21
-5.9804
0
LINE
8
BLACK
6
CONTINUOUS
10
2.82269
20
-5.9804
11
2.81145
21
-5.97478
0
LINE
8
BLACK
6
CONTINUOUS
10
2.81145
20
-5.97478
11
2.80582
21
-5.96915
0
LINE
8
BLACK
6
CONTINUOUS
10
2.97455
20
-5.90166
11
2.97455
21
-5.9804
0
LINE
8
BLACK
6
CONTINUOUS
10
2.94643
20
-5.85666
11
2.91831
21
-5.94103
0
LINE
8
BLACK
6
CONTINUOUS
10
2.91831
20
-5.94103
11
2.99142
21
-5.94103
0
LINE
8
BLACK
6
CONTINUOUS
10
3.03079
20
-5.86229
11
3.03079
21
-5.88479
0
LINE
8
BLACK
6
CONTINUOUS
10
3.07579
20
-5.86229
11
3.07579
21
-5.88479
0
LINE
8
BLACK
6
CONTINUOUS
10
3.25014
20
-6.02539
11
3.24452
21
-6.01977
0
LINE
8
BLACK
6
CONTINUOUS
10
3.24452
20
-6.01977
11
3.23327
21
-6.0029
0
LINE
8
BLACK
6
CONTINUOUS
10
3.23327
20
-6.0029
11
3.22764
21
-5.99165
0
LINE
8
BLACK
6
CONTINUOUS
10
3.22764
20
-5.99165
11
3.22202
21
-5.97478
0
LINE
8
BLACK
6
CONTINUOUS
10
3.22202
20
-5.97478
11
3.21639
21
-5.94665
0
LINE
8
BLACK
6
CONTINUOUS
10
3.21639
20
-5.94665
11
3.21639
21
-5.92416
0
LINE
8
BLACK
6
CONTINUOUS
10
3.21639
20
-5.92416
11
3.22202
21
-5.89603
0
LINE
8
BLACK
6
CONTINUOUS
10
3.22202
20
-5.89603
11
3.22764
21
-5.87916
0
LINE
8
BLACK
6
CONTINUOUS
10
3.22764
20
-5.87916
11
3.23327
21
-5.86791
0
LINE
8
BLACK
6
CONTINUOUS
10
3.23327
20
-5.86791
11
3.24452
21
-5.85104
0
LINE
8
BLACK
6
CONTINUOUS
10
3.24452
20
-5.85104
11
3.25014
21
-5.84542
0
LINE
8
BLACK
6
CONTINUOUS
10
3.34575
20
-5.90166
11
3.34575
21
-5.9804
0
LINE
8
BLACK
6
CONTINUOUS
10
3.31763
20
-5.85666
11
3.28951
21
-5.94103
0
LINE
8
BLACK
6
CONTINUOUS
10
3.28951
20
-5.94103
11
3.36263
21
-5.94103
0
LINE
8
BLACK
6
CONTINUOUS
10
3.49761
20
-5.9804
11
3.49761
21
-5.86229
0
LINE
8
BLACK
6
CONTINUOUS
10
3.54823
20
-5.9804
11
3.54823
21
-5.91853
0
LINE
8
BLACK
6
CONTINUOUS
10
3.54823
20
-5.91853
11
3.5426
21
-5.90728
0
LINE
8
BLACK
6
CONTINUOUS
10
3.5426
20
-5.90728
11
3.53136
21
-5.90166
0
LINE
8
BLACK
6
CONTINUOUS
10
3.53136
20
-5.90166
11
3.51448
21
-5.90166
0
LINE
8
BLACK
6
CONTINUOUS
10
3.51448
20
-5.90166
11
3.50323
21
-5.90728
0
LINE
8
BLACK
6
CONTINUOUS
10
3.50323
20
-5.90728
11
3.49761
21
-5.91291
0
LINE
8
BLACK
6
CONTINUOUS
10
3.62134
20
-5.9804
11
3.6101
21
-5.97478
0
LINE
8
BLACK
6
CONTINUOUS
10
3.6101
20
-5.97478
11
3.60447
21
-5.96915
0
LINE
8
BLACK
6
CONTINUOUS
10
3.60447
20
-5.96915
11
3.59885
21
-5.9579
0
LINE
8
BLACK
6
CONTINUOUS
10
3.59885
20
-5.9579
11
3.59885
21
-5.92416
0
LINE
8
BLACK
6
CONTINUOUS
10
3.59885
20
-5.92416
11
3.60447
21
-5.91291
0
LINE
8
BLACK
6
CONTINUOUS
10
3.60447
20
-5.91291
11
3.6101
21
-5.90728
0
LINE
8
BLACK
6
CONTINUOUS
10
3.6101
20
-5.90728
11
3.62134
21
-5.90166
0
LINE
8
BLACK
6
CONTINUOUS
10
3.62134
20
-5.90166
11
3.63822
21
-5.90166
0
LINE
8
BLACK
6
CONTINUOUS
10
3.63822
20
-5.90166
11
3.64947
21
-5.90728
0
LINE
8
BLACK
6
CONTINUOUS
10
3.64947
20
-5.90728
11
3.65509
21
-5.91291
0
LINE
8
BLACK
6
CONTINUOUS
10
3.65509
20
-5.91291
11
3.66071
21
-5.92416
0
LINE
8
BLACK
6
CONTINUOUS
10
3.66071
20
-5.92416
11
3.66071
21
-5.9579
0
LINE
8
BLACK
6
CONTINUOUS
10
3.66071
20
-5.9579
11
3.65509
21
-5.96915
0
LINE
8
BLACK
6
CONTINUOUS
10
3.65509
20
-5.96915
11
3.64947
21
-5.97478
0
LINE
8
BLACK
6
CONTINUOUS
10
3.64947
20
-5.97478
11
3.63822
21
-5.9804
0
LINE
8
BLACK
6
CONTINUOUS
10
3.63822
20
-5.9804
11
3.62134
21
-5.9804
0
LINE
8
BLACK
6
CONTINUOUS
10
3.72821
20
-5.9804
11
3.71696
21
-5.97478
0
LINE
8
BLACK
6
CONTINUOUS
10
3.71696
20
-5.97478
11
3.71133
21
-5.96353
0
LINE
8
BLACK
6
CONTINUOUS
10
3.71133
20
-5.96353
11
3.71133
21
-5.86229
0
LINE
8
BLACK
6
CONTINUOUS
10
3.81819
20
-5.97478
11
3.80695
21
-5.9804
0
LINE
8
BLACK
6
CONTINUOUS
10
3.80695
20
-5.9804
11
3.78445
21
-5.9804
0
LINE
8
BLACK
6
CONTINUOUS
10
3.78445
20
-5.9804
11
3.7732
21
-5.97478
0
LINE
8
BLACK
6
CONTINUOUS
10
3.7732
20
-5.97478
11
3.76758
21
-5.96353
0
LINE
8
BLACK
6
CONTINUOUS
10
3.76758
20
-5.96353
11
3.76758
21
-5.91853
0
LINE
8
BLACK
6
CONTINUOUS
10
3.76758
20
-5.91853
11
3.7732
21
-5.90728
0
LINE
8
BLACK
6
CONTINUOUS
10
3.7732
20
-5.90728
11
3.78445
21
-5.90166
0
LINE
8
BLACK
6
CONTINUOUS
10
3.78445
20
-5.90166
11
3.80695
21
-5.90166
0
LINE
8
BLACK
6
CONTINUOUS
10
3.80695
20
-5.90166
11
3.81819
21
-5.90728
0
LINE
8
BLACK
6
CONTINUOUS
10
3.81819
20
-5.90728
11
3.82382
21
-5.91853
0
LINE
8
BLACK
6
CONTINUOUS
10
3.82382
20
-5.91853
11
3.82382
21
-5.92978
0
LINE
8
BLACK
6
CONTINUOUS
10
3.82382
20
-5.92978
11
3.76758
21
-5.94103
0
LINE
8
BLACK
6
CONTINUOUS
10
3.86881
20
-5.97478
11
3.88006
21
-5.9804
0
LINE
8
BLACK
6
CONTINUOUS
10
3.88006
20
-5.9804
11
3.90256
21
-5.9804
0
LINE
8
BLACK
6
CONTINUOUS
10
3.90256
20
-5.9804
11
3.91381
21
-5.97478
0
LINE
8
BLACK
6
CONTINUOUS
10
3.91381
20
-5.97478
11
3.91943
21
-5.96353
0
LINE
8
BLACK
6
CONTINUOUS
10
3.91943
20
-5.96353
11
3.91943
21
-5.9579
0
LINE
8
BLACK
6
CONTINUOUS
10
3.91943
20
-5.9579
11
3.91381
21
-5.94665
0
LINE
8
BLACK
6
CONTINUOUS
10
3.91381
20
-5.94665
11
3.90256
21
-5.94103
0
LINE
8
BLACK
6
CONTINUOUS
10
3.90256
20
-5.94103
11
3.88569
21
-5.94103
0
LINE
8
BLACK
6
CONTINUOUS
10
3.88569
20
-5.94103
11
3.87444
21
-5.9354
0
LINE
8
BLACK
6
CONTINUOUS
10
3.87444
20
-5.9354
11
3.86881
21
-5.92416
0
LINE
8
BLACK
6
CONTINUOUS
10
3.86881
20
-5.92416
11
3.86881
21
-5.91853
0
LINE
8
BLACK
6
CONTINUOUS
10
3.86881
20
-5.91853
11
3.87444
21
-5.90728
0
LINE
8
BLACK
6
CONTINUOUS
10
3.87444
20
-5.90728
11
3.88569
21
-5.90166
0
LINE
8
BLACK
6
CONTINUOUS
10
3.88569
20
-5.90166
11
3.90256
21
-5.90166
0
LINE
8
BLACK
6
CONTINUOUS
10
3.90256
20
-5.90166
11
3.91381
21
-5.90728
0
LINE
8
BLACK
6
CONTINUOUS
10
3.9588
20
-6.02539
11
3.96443
21
-6.01977
0
LINE
8
BLACK
6
CONTINUOUS
10
3.96443
20
-6.01977
11
3.97567
21
-6.0029
0
LINE
8
BLACK
6
CONTINUOUS
10
3.97567
20
-6.0029
11
3.9813
21
-5.99165
0
LINE
8
BLACK
6
CONTINUOUS
10
3.9813
20
-5.99165
11
3.98692
21
-5.97478
0
LINE
8
BLACK
6
CONTINUOUS
10
3.98692
20
-5.97478
11
3.99255
21
-5.94665
0
LINE
8
BLACK
6
CONTINUOUS
10
3.99255
20
-5.94665
11
3.99255
21
-5.92416
0
LINE
8
BLACK
6
CONTINUOUS
10
3.99255
20
-5.92416
11
3.98692
21
-5.89603
0
LINE
8
BLACK
6
CONTINUOUS
10
3.98692
20
-5.89603
11
3.9813
21
-5.87916
0
LINE
8
BLACK
6
CONTINUOUS
10
3.9813
20
-5.87916
11
3.97567
21
-5.86791
0
LINE
8
BLACK
6
CONTINUOUS
10
3.97567
20
-5.86791
11
3.96443
21
-5.85104
0
LINE
8
BLACK
6
CONTINUOUS
10
3.96443
20
-5.85104
11
3.9588
21
-5.84542
0
LINE
8
BLACK
6
CONTINUOUS
10
1.17464
20
-6.0961
11
1.17464
21
-6.06965
0
LINE
8
BLACK
6
CONTINUOUS
10
1.17464
20
-6.06965
11
1.14819
21
-6.06965
0
LINE
8
BLACK
6
CONTINUOUS
10
1.14819
20
-6.06965
11
1.14819
21
-6.0961
0
LINE
8
BLACK
6
CONTINUOUS
10
1.14819
20
-6.0961
11
1.17464
21
-6.0961
0
LINE
8
BLACK
6
CONTINUOUS
10
1.31538
20
-6.01819
11
1.32663
21
-6.01819
0
LINE
8
BLACK
6
CONTINUOUS
10
1.32663
20
-6.01819
11
1.33788
21
-6.02382
0
LINE
8
BLACK
6
CONTINUOUS
10
1.33788
20
-6.02382
11
1.3435
21
-6.02944
0
LINE
8
BLACK
6
CONTINUOUS
10
1.3435
20
-6.02944
11
1.34913
21
-6.04069
0
LINE
8
BLACK
6
CONTINUOUS
10
1.34913
20
-6.04069
11
1.35475
21
-6.06319
0
LINE
8
BLACK
6
CONTINUOUS
10
1.35475
20
-6.06319
11
1.35475
21
-6.09131
0
LINE
8
BLACK
6
CONTINUOUS
10
1.35475
20
-6.09131
11
1.34913
21
-6.11381
0
LINE
8
BLACK
6
CONTINUOUS
10
1.34913
20
-6.11381
11
1.3435
21
-6.12506
0
LINE
8
BLACK
6
CONTINUOUS
10
1.3435
20
-6.12506
11
1.33788
21
-6.13068
0
LINE
8
BLACK
6
CONTINUOUS
10
1.33788
20
-6.13068
11
1.32663
21
-6.1363
0
LINE
8
BLACK
6
CONTINUOUS
10
1.32663
20
-6.1363
11
1.31538
21
-6.1363
0
LINE
8
BLACK
6
CONTINUOUS
10
1.31538
20
-6.1363
11
1.30413
21
-6.13068
0
LINE
8
BLACK
6
CONTINUOUS
10
1.30413
20
-6.13068
11
1.29851
21
-6.12506
0
LINE
8
BLACK
6
CONTINUOUS
10
1.29851
20
-6.12506
11
1.29289
21
-6.11381
0
LINE
8
BLACK
6
CONTINUOUS
10
1.29289
20
-6.11381
11
1.28726
21
-6.09131
0
LINE
8
BLACK
6
CONTINUOUS
10
1.28726
20
-6.09131
11
1.28726
21
-6.06319
0
LINE
8
BLACK
6
CONTINUOUS
10
1.28726
20
-6.06319
11
1.29289
21
-6.04069
0
LINE
8
BLACK
6
CONTINUOUS
10
1.29289
20
-6.04069
11
1.29851
21
-6.02944
0
LINE
8
BLACK
6
CONTINUOUS
10
1.29851
20
-6.02944
11
1.30413
21
-6.02382
0
LINE
8
BLACK
6
CONTINUOUS
10
1.30413
20
-6.02382
11
1.31538
21
-6.01819
0
LINE
8
BLACK
6
CONTINUOUS
10
1.40537
20
-6.12506
11
1.411
21
-6.13068
0
LINE
8
BLACK
6
CONTINUOUS
10
1.411
20
-6.13068
11
1.40537
21
-6.1363
0
LINE
8
BLACK
6
CONTINUOUS
10
1.40537
20
-6.1363
11
1.39975
21
-6.13068
0
LINE
8
BLACK
6
CONTINUOUS
10
1.39975
20
-6.13068
11
1.40537
21
-6.12506
0
LINE
8
BLACK
6
CONTINUOUS
10
1.40537
20
-6.12506
11
1.40537
21
-6.1363
0
LINE
8
BLACK
6
CONTINUOUS
10
1.46724
20
-6.1363
11
1.48974
21
-6.1363
0
LINE
8
BLACK
6
CONTINUOUS
10
1.48974
20
-6.1363
11
1.50098
21
-6.13068
0
LINE
8
BLACK
6
CONTINUOUS
10
1.50098
20
-6.13068
11
1.50661
21
-6.12506
0
LINE
8
BLACK
6
CONTINUOUS
10
1.50661
20
-6.12506
11
1.51786
21
-6.10818
0
LINE
8
BLACK
6
CONTINUOUS
10
1.51786
20
-6.10818
11
1.52348
21
-6.08569
0
LINE
8
BLACK
6
CONTINUOUS
10
1.52348
20
-6.08569
11
1.52348
21
-6.04069
0
LINE
8
BLACK
6
CONTINUOUS
10
1.52348
20
-6.04069
11
1.51786
21
-6.02944
0
LINE
8
BLACK
6
CONTINUOUS
10
1.51786
20
-6.02944
11
1.51223
21
-6.02382
0
LINE
8
BLACK
6
CONTINUOUS
10
1.51223
20
-6.02382
11
1.50098
21
-6.01819
0
LINE
8
BLACK
6
CONTINUOUS
10
1.50098
20
-6.01819
11
1.47849
21
-6.01819
0
LINE
8
BLACK
6
CONTINUOUS
10
1.47849
20
-6.01819
11
1.46724
21
-6.02382
0
LINE
8
BLACK
6
CONTINUOUS
10
1.46724
20
-6.02382
11
1.46161
21
-6.02944
0
LINE
8
BLACK
6
CONTINUOUS
10
1.46161
20
-6.02944
11
1.45599
21
-6.04069
0
LINE
8
BLACK
6
CONTINUOUS
10
1.45599
20
-6.04069
11
1.45599
21
-6.06881
0
LINE
8
BLACK
6
CONTINUOUS
10
1.45599
20
-6.06881
11
1.46161
21
-6.08006
0
LINE
8
BLACK
6
CONTINUOUS
10
1.46161
20
-6.08006
11
1.46724
21
-6.08569
0
LINE
8
BLACK
6
CONTINUOUS
10
1.46724
20
-6.08569
11
1.47849
21
-6.09131
0
LINE
8
BLACK
6
CONTINUOUS
10
1.47849
20
-6.09131
11
1.50098
21
-6.09131
0
LINE
8
BLACK
6
CONTINUOUS
10
1.50098
20
-6.09131
11
1.51223
21
-6.08569
0
LINE
8
BLACK
6
CONTINUOUS
10
1.51223
20
-6.08569
11
1.51786
21
-6.08006
0
LINE
8
BLACK
6
CONTINUOUS
10
1.51786
20
-6.08006
11
1.52348
21
-6.06881
0
LINE
8
BLACK
6
CONTINUOUS
10
1.63034
20
-6.01819
11
1.5741
21
-6.01819
0
LINE
8
BLACK
6
CONTINUOUS
10
1.5741
20
-6.01819
11
1.56848
21
-6.07444
0
LINE
8
BLACK
6
CONTINUOUS
10
1.56848
20
-6.07444
11
1.5741
21
-6.06881
0
LINE
8
BLACK
6
CONTINUOUS
10
1.5741
20
-6.06881
11
1.58535
21
-6.06319
0
LINE
8
BLACK
6
CONTINUOUS
10
1.58535
20
-6.06319
11
1.61347
21
-6.06319
0
LINE
8
BLACK
6
CONTINUOUS
10
1.61347
20
-6.06319
11
1.62472
21
-6.06881
0
LINE
8
BLACK
6
CONTINUOUS
10
1.62472
20
-6.06881
11
1.63034
21
-6.07444
0
LINE
8
BLACK
6
CONTINUOUS
10
1.63034
20
-6.07444
11
1.63597
21
-6.08569
0
LINE
8
BLACK
6
CONTINUOUS
10
1.63597
20
-6.08569
11
1.63597
21
-6.11381
0
LINE
8
BLACK
6
CONTINUOUS
10
1.63597
20
-6.11381
11
1.63034
21
-6.12506
0
LINE
8
BLACK
6
CONTINUOUS
10
1.63034
20
-6.12506
11
1.62472
21
-6.13068
0
LINE
8
BLACK
6
CONTINUOUS
10
1.62472
20
-6.13068
11
1.61347
21
-6.1363
0
LINE
8
BLACK
6
CONTINUOUS
10
1.61347
20
-6.1363
11
1.58535
21
-6.1363
0
LINE
8
BLACK
6
CONTINUOUS
10
1.58535
20
-6.1363
11
1.5741
21
-6.13068
0
LINE
8
BLACK
6
CONTINUOUS
10
1.5741
20
-6.13068
11
1.56848
21
-6.12506
0
LINE
8
BLACK
6
CONTINUOUS
10
1.70908
20
-6.01819
11
1.72033
21
-6.01819
0
LINE
8
BLACK
6
CONTINUOUS
10
1.72033
20
-6.01819
11
1.73158
21
-6.02382
0
LINE
8
BLACK
6
CONTINUOUS
10
1.73158
20
-6.02382
11
1.7372
21
-6.02944
0
LINE
8
BLACK
6
CONTINUOUS
10
1.7372
20
-6.02944
11
1.74283
21
-6.04069
0
LINE
8
BLACK
6
CONTINUOUS
10
1.74283
20
-6.04069
11
1.74845
21
-6.06319
0
LINE
8
BLACK
6
CONTINUOUS
10
1.74845
20
-6.06319
11
1.74845
21
-6.09131
0
LINE
8
BLACK
6
CONTINUOUS
10
1.74845
20
-6.09131
11
1.74283
21
-6.11381
0
LINE
8
BLACK
6
CONTINUOUS
10
1.74283
20
-6.11381
11
1.7372
21
-6.12506
0
LINE
8
BLACK
6
CONTINUOUS
10
1.7372
20
-6.12506
11
1.73158
21
-6.13068
0
LINE
8
BLACK
6
CONTINUOUS
10
1.73158
20
-6.13068
11
1.72033
21
-6.1363
0
LINE
8
BLACK
6
CONTINUOUS
10
1.72033
20
-6.1363
11
1.70908
21
-6.1363
0
LINE
8
BLACK
6
CONTINUOUS
10
1.70908
20
-6.1363
11
1.69783
21
-6.13068
0
LINE
8
BLACK
6
CONTINUOUS
10
1.69783
20
-6.13068
11
1.69221
21
-6.12506
0
LINE
8
BLACK
6
CONTINUOUS
10
1.69221
20
-6.12506
11
1.68659
21
-6.11381
0
LINE
8
BLACK
6
CONTINUOUS
10
1.68659
20
-6.11381
11
1.68096
21
-6.09131
0
LINE
8
BLACK
6
CONTINUOUS
10
1.68096
20
-6.09131
11
1.68096
21
-6.06319
0
LINE
8
BLACK
6
CONTINUOUS
10
1.68096
20
-6.06319
11
1.68659
21
-6.04069
0
LINE
8
BLACK
6
CONTINUOUS
10
1.68659
20
-6.04069
11
1.69221
21
-6.02944
0
LINE
8
BLACK
6
CONTINUOUS
10
1.69221
20
-6.02944
11
1.69783
21
-6.02382
0
LINE
8
BLACK
6
CONTINUOUS
10
1.69783
20
-6.02382
11
1.70908
21
-6.01819
0
LINE
8
BLACK
6
CONTINUOUS
10
1.79907
20
-6.1363
11
1.79907
21
-6.05756
0
LINE
8
BLACK
6
CONTINUOUS
10
1.79907
20
-6.06881
11
1.8047
21
-6.06319
0
LINE
8
BLACK
6
CONTINUOUS
10
1.8047
20
-6.06319
11
1.81594
21
-6.05756
0
LINE
8
BLACK
6
CONTINUOUS
10
1.81594
20
-6.05756
11
1.83282
21
-6.05756
0
LINE
8
BLACK
6
CONTINUOUS
10
1.83282
20
-6.05756
11
1.84407
21
-6.06319
0
LINE
8
BLACK
6
CONTINUOUS
10
1.84407
20
-6.06319
11
1.84969
21
-6.07444
0
LINE
8
BLACK
6
CONTINUOUS
10
1.84969
20
-6.07444
11
1.84969
21
-6.1363
0
LINE
8
BLACK
6
CONTINUOUS
10
1.84969
20
-6.07444
11
1.85531
21
-6.06319
0
LINE
8
BLACK
6
CONTINUOUS
10
1.85531
20
-6.06319
11
1.86656
21
-6.05756
0
LINE
8
BLACK
6
CONTINUOUS
10
1.86656
20
-6.05756
11
1.88344
21
-6.05756
0
LINE
8
BLACK
6
CONTINUOUS
10
1.88344
20
-6.05756
11
1.89468
21
-6.06319
0
LINE
8
BLACK
6
CONTINUOUS
10
1.89468
20
-6.06319
11
1.90031
21
-6.07444
0
LINE
8
BLACK
6
CONTINUOUS
10
1.90031
20
-6.07444
11
1.90031
21
-6.1363
0
LINE
8
BLACK
6
CONTINUOUS
10
1.95655
20
-6.1363
11
1.95655
21
-6.05756
0
LINE
8
BLACK
6
CONTINUOUS
10
1.95655
20
-6.06881
11
1.96218
21
-6.06319
0
LINE
8
BLACK
6
CONTINUOUS
10
1.96218
20
-6.06319
11
1.97343
21
-6.05756
0
LINE
8
BLACK
6
CONTINUOUS
10
1.97343
20
-6.05756
11
1.9903
21
-6.05756
0
LINE
8
BLACK
6
CONTINUOUS
10
1.9903
20
-6.05756
11
2.00155
21
-6.06319
0
LINE
8
BLACK
6
CONTINUOUS
10
2.00155
20
-6.06319
11
2.00717
21
-6.07444
0
LINE
8
BLACK
6
CONTINUOUS
10
2.00717
20
-6.07444
11
2.00717
21
-6.1363
0
LINE
8
BLACK
6
CONTINUOUS
10
2.00717
20
-6.07444
11
2.0128
21
-6.06319
0
LINE
8
BLACK
6
CONTINUOUS
10
2.0128
20
-6.06319
11
2.02404
21
-6.05756
0
LINE
8
BLACK
6
CONTINUOUS
10
2.02404
20
-6.05756
11
2.04092
21
-6.05756
0
LINE
8
BLACK
6
CONTINUOUS
10
2.04092
20
-6.05756
11
2.05217
21
-6.06319
0
LINE
8
BLACK
6
CONTINUOUS
10
2.05217
20
-6.06319
11
2.05779
21
-6.07444
0
LINE
8
BLACK
6
CONTINUOUS
10
2.05779
20
-6.07444
11
2.05779
21
-6.1363
0
LINE
8
BLACK
6
CONTINUOUS
10
2.28839
20
-6.01257
11
2.18715
21
-6.16443
0
LINE
8
BLACK
6
CONTINUOUS
10
2.44024
20
-6.01819
11
2.45149
21
-6.01819
0
LINE
8
BLACK
6
CONTINUOUS
10
2.45149
20
-6.01819
11
2.46274
21
-6.02382
0
LINE
8
BLACK
6
CONTINUOUS
10
2.46274
20
-6.02382
11
2.46836
21
-6.02944
0
LINE
8
BLACK
6
CONTINUOUS
10
2.46836
20
-6.02944
11
2.47399
21
-6.04069
0
LINE
8
BLACK
6
CONTINUOUS
10
2.47399
20
-6.04069
11
2.47961
21
-6.06319
0
LINE
8
BLACK
6
CONTINUOUS
10
2.47961
20
-6.06319
11
2.47961
21
-6.09131
0
LINE
8
BLACK
6
CONTINUOUS
10
2.47961
20
-6.09131
11
2.47399
21
-6.11381
0
LINE
8
BLACK
6
CONTINUOUS
10
2.47399
20
-6.11381
11
2.46836
21
-6.12506
0
LINE
8
BLACK
6
CONTINUOUS
10
2.46836
20
-6.12506
11
2.46274
21
-6.13068
0
LINE
8
BLACK
6
CONTINUOUS
10
2.46274
20
-6.13068
11
2.45149
21
-6.1363
0
LINE
8
BLACK
6
CONTINUOUS
10
2.45149
20
-6.1363
11
2.44024
21
-6.1363
0
LINE
8
BLACK
6
CONTINUOUS
10
2.44024
20
-6.1363
11
2.42899
21
-6.13068
0
LINE
8
BLACK
6
CONTINUOUS
10
2.42899
20
-6.13068
11
2.42337
21
-6.12506
0
LINE
8
BLACK
6
CONTINUOUS
10
2.42337
20
-6.12506
11
2.41774
21
-6.11381
0
LINE
8
BLACK
6
CONTINUOUS
10
2.41774
20
-6.11381
11
2.41212
21
-6.09131
0
LINE
8
BLACK
6
CONTINUOUS
10
2.41212
20
-6.09131
11
2.41212
21
-6.06319
0
LINE
8
BLACK
6
CONTINUOUS
10
2.41212
20
-6.06319
11
2.41774
21
-6.04069
0
LINE
8
BLACK
6
CONTINUOUS
10
2.41774
20
-6.04069
11
2.42337
21
-6.02944
0
LINE
8
BLACK
6
CONTINUOUS
10
2.42337
20
-6.02944
11
2.42899
21
-6.02382
0
LINE
8
BLACK
6
CONTINUOUS
10
2.42899
20
-6.02382
11
2.44024
21
-6.01819
0
LINE
8
BLACK
6
CONTINUOUS
10
2.53023
20
-6.12506
11
2.53585
21
-6.13068
0
LINE
8
BLACK
6
CONTINUOUS
10
2.53585
20
-6.13068
11
2.53023
21
-6.1363
0
LINE
8
BLACK
6
CONTINUOUS
10
2.53023
20
-6.1363
11
2.52461
21
-6.13068
0
LINE
8
BLACK
6
CONTINUOUS
10
2.52461
20
-6.13068
11
2.53023
21
-6.12506
0
LINE
8
BLACK
6
CONTINUOUS
10
2.53023
20
-6.12506
11
2.53023
21
-6.1363
0
LINE
8
BLACK
6
CONTINUOUS
10
2.60897
20
-6.01819
11
2.62022
21
-6.01819
0
LINE
8
BLACK
6
CONTINUOUS
10
2.62022
20
-6.01819
11
2.63147
21
-6.02382
0
LINE
8
BLACK
6
CONTINUOUS
10
2.63147
20
-6.02382
11
2.63709
21
-6.02944
0
LINE
8
BLACK
6
CONTINUOUS
10
2.63709
20
-6.02944
11
2.64272
21
-6.04069
0
LINE
8
BLACK
6
CONTINUOUS
10
2.64272
20
-6.04069
11
2.64834
21
-6.06319
0
LINE
8
BLACK
6
CONTINUOUS
10
2.64834
20
-6.06319
11
2.64834
21
-6.09131
0
LINE
8
BLACK
6
CONTINUOUS
10
2.64834
20
-6.09131
11
2.64272
21
-6.11381
0
LINE
8
BLACK
6
CONTINUOUS
10
2.64272
20
-6.11381
11
2.63709
21
-6.12506
0
LINE
8
BLACK
6
CONTINUOUS
10
2.63709
20
-6.12506
11
2.63147
21
-6.13068
0
LINE
8
BLACK
6
CONTINUOUS
10
2.63147
20
-6.13068
11
2.62022
21
-6.1363
0
LINE
8
BLACK
6
CONTINUOUS
10
2.62022
20
-6.1363
11
2.60897
21
-6.1363
0
LINE
8
BLACK
6
CONTINUOUS
10
2.60897
20
-6.1363
11
2.59772
21
-6.13068
0
LINE
8
BLACK
6
CONTINUOUS
10
2.59772
20
-6.13068
11
2.5921
21
-6.12506
0
LINE
8
BLACK
6
CONTINUOUS
10
2.5921
20
-6.12506
11
2.58647
21
-6.11381
0
LINE
8
BLACK
6
CONTINUOUS
10
2.58647
20
-6.11381
11
2.58085
21
-6.09131
0
LINE
8
BLACK
6
CONTINUOUS
10
2.58085
20
-6.09131
11
2.58085
21
-6.06319
0
LINE
8
BLACK
6
CONTINUOUS
10
2.58085
20
-6.06319
11
2.58647
21
-6.04069
0
LINE
8
BLACK
6
CONTINUOUS
10
2.58647
20
-6.04069
11
2.5921
21
-6.02944
0
LINE
8
BLACK
6
CONTINUOUS
10
2.5921
20
-6.02944
11
2.59772
21
-6.02382
0
LINE
8
BLACK
6
CONTINUOUS
10
2.59772
20
-6.02382
11
2.60897
21
-6.01819
0
LINE
8
BLACK
6
CONTINUOUS
10
2.68771
20
-6.01819
11
2.76083
21
-6.01819
0
LINE
8
BLACK
6
CONTINUOUS
10
2.76083
20
-6.01819
11
2.72146
21
-6.06319
0
LINE
8
BLACK
6
CONTINUOUS
10
2.72146
20
-6.06319
11
2.73833
21
-6.06319
0
LINE
8
BLACK
6
CONTINUOUS
10
2.73833
20
-6.06319
11
2.74958
21
-6.06881
0
LINE
8
BLACK
6
CONTINUOUS
10
2.74958
20
-6.06881
11
2.7552
21
-6.07444
0
LINE
8
BLACK
6
CONTINUOUS
10
2.7552
20
-6.07444
11
2.76083
21
-6.08569
0
LINE
8
BLACK
6
CONTINUOUS
10
2.76083
20
-6.08569
11
2.76083
21
-6.11381
0
LINE
8
BLACK
6
CONTINUOUS
10
2.76083
20
-6.11381
11
2.7552
21
-6.12506
0
LINE
8
BLACK
6
CONTINUOUS
10
2.7552
20
-6.12506
11
2.74958
21
-6.13068
0
LINE
8
BLACK
6
CONTINUOUS
10
2.74958
20
-6.13068
11
2.73833
21
-6.1363
0
LINE
8
BLACK
6
CONTINUOUS
10
2.73833
20
-6.1363
11
2.70458
21
-6.1363
0
LINE
8
BLACK
6
CONTINUOUS
10
2.70458
20
-6.1363
11
2.69334
21
-6.13068
0
LINE
8
BLACK
6
CONTINUOUS
10
2.69334
20
-6.13068
11
2.68771
21
-6.12506
0
LINE
8
BLACK
6
CONTINUOUS
10
2.8002
20
-6.01819
11
2.87894
21
-6.01819
0
LINE
8
BLACK
6
CONTINUOUS
10
2.87894
20
-6.01819
11
2.82832
21
-6.1363
0
LINE
8
BLACK
6
CONTINUOUS
10
2.97455
20
-6.05756
11
2.97455
21
-6.1363
0
LINE
8
BLACK
6
CONTINUOUS
10
2.94643
20
-6.01257
11
2.91831
21
-6.09693
0
LINE
8
BLACK
6
CONTINUOUS
10
2.91831
20
-6.09693
11
2.99142
21
-6.09693
0
LINE
8
BLACK
6
CONTINUOUS
10
3.03079
20
-6.01819
11
3.03079
21
-6.04069
0
LINE
8
BLACK
6
CONTINUOUS
10
3.07579
20
-6.01819
11
3.07579
21
-6.04069
0
LINE
8
BLACK
6
CONTINUOUS
10
3.25014
20
-6.1813
11
3.24452
21
-6.17567
0
LINE
8
BLACK
6
CONTINUOUS
10
3.24452
20
-6.17567
11
3.23327
21
-6.1588
0
LINE
8
BLACK
6
CONTINUOUS
10
3.23327
20
-6.1588
11
3.22764
21
-6.14755
0
LINE
8
BLACK
6
CONTINUOUS
10
3.22764
20
-6.14755
11
3.22202
21
-6.13068
0
LINE
8
BLACK
6
CONTINUOUS
10
3.22202
20
-6.13068
11
3.21639
21
-6.10256
0
LINE
8
BLACK
6
CONTINUOUS
10
3.21639
20
-6.10256
11
3.21639
21
-6.08006
0
LINE
8
BLACK
6
CONTINUOUS
10
3.21639
20
-6.08006
11
3.22202
21
-6.05194
0
LINE
8
BLACK
6
CONTINUOUS
10
3.22202
20
-6.05194
11
3.22764
21
-6.03507
0
LINE
8
BLACK
6
CONTINUOUS
10
3.22764
20
-6.03507
11
3.23327
21
-6.02382
0
LINE
8
BLACK
6
CONTINUOUS
10
3.23327
20
-6.02382
11
3.24452
21
-6.00695
0
LINE
8
BLACK
6
CONTINUOUS
10
3.24452
20
-6.00695
11
3.25014
21
-6.00132
0
LINE
8
BLACK
6
CONTINUOUS
10
3.357
20
-6.1363
11
3.28951
21
-6.1363
0
LINE
8
BLACK
6
CONTINUOUS
10
3.32326
20
-6.1363
11
3.32326
21
-6.01819
0
LINE
8
BLACK
6
CONTINUOUS
10
3.32326
20
-6.01819
11
3.31201
21
-6.03507
0
LINE
8
BLACK
6
CONTINUOUS
10
3.31201
20
-6.03507
11
3.30076
21
-6.04632
0
LINE
8
BLACK
6
CONTINUOUS
10
3.30076
20
-6.04632
11
3.28951
21
-6.05194
0
LINE
8
BLACK
6
CONTINUOUS
10
3.402
20
-6.02944
11
3.40762
21
-6.02382
0
LINE
8
BLACK
6
CONTINUOUS
10
3.40762
20
-6.02382
11
3.41887
21
-6.01819
0
LINE
8
BLACK
6
CONTINUOUS
10
3.41887
20
-6.01819
11
3.44699
21
-6.01819
0
LINE
8
BLACK
6
CONTINUOUS
10
3.44699
20
-6.01819
11
3.45824
21
-6.02382
0
LINE
8
BLACK
6
CONTINUOUS
10
3.45824
20
-6.02382
11
3.46386
21
-6.02944
0
LINE
8
BLACK
6
CONTINUOUS
10
3.46386
20
-6.02944
11
3.46949
21
-6.04069
0
LINE
8
BLACK
6
CONTINUOUS
10
3.46949
20
-6.04069
11
3.46949
21
-6.05194
0
LINE
8
BLACK
6
CONTINUOUS
10
3.46949
20
-6.05194
11
3.46386
21
-6.06881
0
LINE
8
BLACK
6
CONTINUOUS
10
3.46386
20
-6.06881
11
3.39637
21
-6.1363
0
LINE
8
BLACK
6
CONTINUOUS
10
3.39637
20
-6.1363
11
3.46949
21
-6.1363
0
LINE
8
BLACK
6
CONTINUOUS
10
3.6101
20
-6.1363
11
3.6101
21
-6.01819
0
LINE
8
BLACK
6
CONTINUOUS
10
3.66071
20
-6.1363
11
3.66071
21
-6.07444
0
LINE
8
BLACK
6
CONTINUOUS
10
3.66071
20
-6.07444
11
3.65509
21
-6.06319
0
LINE
8
BLACK
6
CONTINUOUS
10
3.65509
20
-6.06319
11
3.64384
21
-6.05756
0
LINE
8
BLACK
6
CONTINUOUS
10
3.64384
20
-6.05756
11
3.62697
21
-6.05756
0
LINE
8
BLACK
6
CONTINUOUS
10
3.62697
20
-6.05756
11
3.61572
21
-6.06319
0
LINE
8
BLACK
6
CONTINUOUS
10
3.61572
20
-6.06319
11
3.6101
21
-6.06881
0
LINE
8
BLACK
6
CONTINUOUS
10
3.73383
20
-6.1363
11
3.72258
21
-6.13068
0
LINE
8
BLACK
6
CONTINUOUS
10
3.72258
20
-6.13068
11
3.71696
21
-6.12506
0
LINE
8
BLACK
6
CONTINUOUS
10
3.71696
20
-6.12506
11
3.71133
21
-6.11381
0
LINE
8
BLACK
6
CONTINUOUS
10
3.71133
20
-6.11381
11
3.71133
21
-6.08006
0
LINE
8
BLACK
6
CONTINUOUS
10
3.71133
20
-6.08006
11
3.71696
21
-6.06881
0
LINE
8
BLACK
6
CONTINUOUS
10
3.71696
20
-6.06881
11
3.72258
21
-6.06319
0
LINE
8
BLACK
6
CONTINUOUS
10
3.72258
20
-6.06319
11
3.73383
21
-6.05756
0
LINE
8
BLACK
6
CONTINUOUS
10
3.73383
20
-6.05756
11
3.7507
21
-6.05756
0
LINE
8
BLACK
6
CONTINUOUS
10
3.7507
20
-6.05756
11
3.76195
21
-6.06319
0
LINE
8
BLACK
6
CONTINUOUS
10
3.76195
20
-6.06319
11
3.76758
21
-6.06881
0
LINE
8
BLACK
6
CONTINUOUS
10
3.76758
20
-6.06881
11
3.7732
21
-6.08006
0
LINE
8
BLACK
6
CONTINUOUS
10
3.7732
20
-6.08006
11
3.7732
21
-6.11381
0
LINE
8
BLACK
6
CONTINUOUS
10
3.7732
20
-6.11381
11
3.76758
21
-6.12506
0
LINE
8
BLACK
6
CONTINUOUS
10
3.76758
20
-6.12506
11
3.76195
21
-6.13068
0
LINE
8
BLACK
6
CONTINUOUS
10
3.76195
20
-6.13068
11
3.7507
21
-6.1363
0
LINE
8
BLACK
6
CONTINUOUS
10
3.7507
20
-6.1363
11
3.73383
21
-6.1363
0
LINE
8
BLACK
6
CONTINUOUS
10
3.84069
20
-6.1363
11
3.82944
21
-6.13068
0
LINE
8
BLACK
6
CONTINUOUS
10
3.82944
20
-6.13068
11
3.82382
21
-6.11943
0
LINE
8
BLACK
6
CONTINUOUS
10
3.82382
20
-6.11943
11
3.82382
21
-6.01819
0
LINE
8
BLACK
6
CONTINUOUS
10
3.93068
20
-6.13068
11
3.91943
21
-6.1363
0
LINE
8
BLACK
6
CONTINUOUS
10
3.91943
20
-6.1363
11
3.89693
21
-6.1363
0
LINE
8
BLACK
6
CONTINUOUS
10
3.89693
20
-6.1363
11
3.88569
21
-6.13068
0
LINE
8
BLACK
6
CONTINUOUS
10
3.88569
20
-6.13068
11
3.88006
21
-6.11943
0
LINE
8
BLACK
6
CONTINUOUS
10
3.88006
20
-6.11943
11
3.88006
21
-6.07444
0
LINE
8
BLACK
6
CONTINUOUS
10
3.88006
20
-6.07444
11
3.88569
21
-6.06319
0
LINE
8
BLACK
6
CONTINUOUS
10
3.88569
20
-6.06319
11
3.89693
21
-6.05756
0
LINE
8
BLACK
6
CONTINUOUS
10
3.89693
20
-6.05756
11
3.91943
21
-6.05756
0
LINE
8
BLACK
6
CONTINUOUS
10
3.91943
20
-6.05756
11
3.93068
21
-6.06319
0
LINE
8
BLACK
6
CONTINUOUS
10
3.93068
20
-6.06319
11
3.9363
21
-6.07444
0
LINE
8
BLACK
6
CONTINUOUS
10
3.9363
20
-6.07444
11
3.9363
21
-6.08569
0
LINE
8
BLACK
6
CONTINUOUS
10
3.9363
20
-6.08569
11
3.88006
21
-6.09693
0
LINE
8
BLACK
6
CONTINUOUS
10
3.9813
20
-6.13068
11
3.99255
21
-6.1363
0
LINE
8
BLACK
6
CONTINUOUS
10
3.99255
20
-6.1363
11
4.01504
21
-6.1363
0
LINE
8
BLACK
6
CONTINUOUS
10
4.01504
20
-6.1363
11
4.02629
21
-6.13068
0
LINE
8
BLACK
6
CONTINUOUS
10
4.02629
20
-6.13068
11
4.03192
21
-6.11943
0
LINE
8
BLACK
6
CONTINUOUS
10
4.03192
20
-6.11943
11
4.03192
21
-6.11381
0
LINE
8
BLACK
6
CONTINUOUS
10
4.03192
20
-6.11381
11
4.02629
21
-6.10256
0
LINE
8
BLACK
6
CONTINUOUS
10
4.02629
20
-6.10256
11
4.01504
21
-6.09693
0
LINE
8
BLACK
6
CONTINUOUS
10
4.01504
20
-6.09693
11
3.99817
21
-6.09693
0
LINE
8
BLACK
6
CONTINUOUS
10
3.99817
20
-6.09693
11
3.98692
21
-6.09131
0
LINE
8
BLACK
6
CONTINUOUS
10
3.98692
20
-6.09131
11
3.9813
21
-6.08006
0
LINE
8
BLACK
6
CONTINUOUS
10
3.9813
20
-6.08006
11
3.9813
21
-6.07444
0
LINE
8
BLACK
6
CONTINUOUS
10
3.9813
20
-6.07444
11
3.98692
21
-6.06319
0
LINE
8
BLACK
6
CONTINUOUS
10
3.98692
20
-6.06319
11
3.99817
21
-6.05756
0
LINE
8
BLACK
6
CONTINUOUS
10
3.99817
20
-6.05756
11
4.01504
21
-6.05756
0
LINE
8
BLACK
6
CONTINUOUS
10
4.01504
20
-6.05756
11
4.02629
21
-6.06319
0
LINE
8
BLACK
6
CONTINUOUS
10
4.07129
20
-6.1813
11
4.07691
21
-6.17567
0
LINE
8
BLACK
6
CONTINUOUS
10
4.07691
20
-6.17567
11
4.08816
21
-6.1588
0
LINE
8
BLACK
6
CONTINUOUS
10
4.08816
20
-6.1588
11
4.09379
21
-6.14755
0
LINE
8
BLACK
6
CONTINUOUS
10
4.09379
20
-6.14755
11
4.09941
21
-6.13068
0
LINE
8
BLACK
6
CONTINUOUS
10
4.09941
20
-6.13068
11
4.10503
21
-6.10256
0
LINE
8
BLACK
6
CONTINUOUS
10
4.10503
20
-6.10256
11
4.10503
21
-6.08006
0
LINE
8
BLACK
6
CONTINUOUS
10
4.10503
20
-6.08006
11
4.09941
21
-6.05194
0
LINE
8
BLACK
6
CONTINUOUS
10
4.09941
20
-6.05194
11
4.09379
21
-6.03507
0
LINE
8
BLACK
6
CONTINUOUS
10
4.09379
20
-6.03507
11
4.08816
21
-6.02382
0
LINE
8
BLACK
6
CONTINUOUS
10
4.08816
20
-6.02382
11
4.07691
21
-6.00695
0
LINE
8
BLACK
6
CONTINUOUS
10
4.07691
20
-6.00695
11
4.07129
21
-6.00132
0
LINE
8
BLACK
6
CONTINUOUS
10
1.16043
20
-6.25846
11
1.18012
21
-6.23878
0
LINE
8
BLACK
6
CONTINUOUS
10
1.18012
20
-6.23878
11
1.16043
21
-6.21909
0
LINE
8
BLACK
6
CONTINUOUS
10
1.16043
20
-6.21909
11
1.14075
21
-6.23878
0
LINE
8
BLACK
6
CONTINUOUS
10
1.14075
20
-6.23878
11
1.16043
21
-6.25846
0
LINE
8
BLACK
6
CONTINUOUS
10
1.35475
20
-6.29221
11
1.28726
21
-6.29221
0
LINE
8
BLACK
6
CONTINUOUS
10
1.32101
20
-6.29221
11
1.32101
21
-6.1741
0
LINE
8
BLACK
6
CONTINUOUS
10
1.32101
20
-6.1741
11
1.30976
21
-6.19097
0
LINE
8
BLACK
6
CONTINUOUS
10
1.30976
20
-6.19097
11
1.29851
21
-6.20222
0
LINE
8
BLACK
6
CONTINUOUS
10
1.29851
20
-6.20222
11
1.28726
21
-6.20785
0
LINE
8
BLACK
6
CONTINUOUS
10
1.40537
20
-6.28096
11
1.411
21
-6.28659
0
LINE
8
BLACK
6
CONTINUOUS
10
1.411
20
-6.28659
11
1.40537
21
-6.29221
0
LINE
8
BLACK
6
CONTINUOUS
10
1.40537
20
-6.29221
11
1.39975
21
-6.28659
0
LINE
8
BLACK
6
CONTINUOUS
10
1.39975
20
-6.28659
11
1.40537
21
-6.28096
0
LINE
8
BLACK
6
CONTINUOUS
10
1.40537
20
-6.28096
11
1.40537
21
-6.29221
0
LINE
8
BLACK
6
CONTINUOUS
10
1.48411
20
-6.1741
11
1.49536
21
-6.1741
0
LINE
8
BLACK
6
CONTINUOUS
10
1.49536
20
-6.1741
11
1.50661
21
-6.17972
0
LINE
8
BLACK
6
CONTINUOUS
10
1.50661
20
-6.17972
11
1.51223
21
-6.18535
0
LINE
8
BLACK
6
CONTINUOUS
10
1.51223
20
-6.18535
11
1.51786
21
-6.1966
0
LINE
8
BLACK
6
CONTINUOUS
10
1.51786
20
-6.1966
11
1.52348
21
-6.21909
0
LINE
8
BLACK
6
CONTINUOUS
10
1.52348
20
-6.21909
11
1.52348
21
-6.24722
0
LINE
8
BLACK
6
CONTINUOUS
10
1.52348
20
-6.24722
11
1.51786
21
-6.26971
0
LINE
8
BLACK
6
CONTINUOUS
10
1.51786
20
-6.26971
11
1.51223
21
-6.28096
0
LINE
8
BLACK
6
CONTINUOUS
10
1.51223
20
-6.28096
11
1.50661
21
-6.28659
0
LINE
8
BLACK
6
CONTINUOUS
10
1.50661
20
-6.28659
11
1.49536
21
-6.29221
0
LINE
8
BLACK
6
CONTINUOUS
10
1.49536
20
-6.29221
11
1.48411
21
-6.29221
0
LINE
8
BLACK
6
CONTINUOUS
10
1.48411
20
-6.29221
11
1.47286
21
-6.28659
0
LINE
8
BLACK
6
CONTINUOUS
10
1.47286
20
-6.28659
11
1.46724
21
-6.28096
0
LINE
8
BLACK
6
CONTINUOUS
10
1.46724
20
-6.28096
11
1.46161
21
-6.26971
0
LINE
8
BLACK
6
CONTINUOUS
10
1.46161
20
-6.26971
11
1.45599
21
-6.24722
0
LINE
8
BLACK
6
CONTINUOUS
10
1.45599
20
-6.24722
11
1.45599
21
-6.21909
0
LINE
8
BLACK
6
CONTINUOUS
10
1.45599
20
-6.21909
11
1.46161
21
-6.1966
0
LINE
8
BLACK
6
CONTINUOUS
10
1.46161
20
-6.1966
11
1.46724
21
-6.18535
0
LINE
8
BLACK
6
CONTINUOUS
10
1.46724
20
-6.18535
11
1.47286
21
-6.17972
0
LINE
8
BLACK
6
CONTINUOUS
10
1.47286
20
-6.17972
11
1.48411
21
-6.1741
0
LINE
8
BLACK
6
CONTINUOUS
10
1.5966
20
-6.1741
11
1.60785
21
-6.1741
0
LINE
8
BLACK
6
CONTINUOUS
10
1.60785
20
-6.1741
11
1.61909
21
-6.17972
0
LINE
8
BLACK
6
CONTINUOUS
10
1.61909
20
-6.17972
11
1.62472
21
-6.18535
0
LINE
8
BLACK
6
CONTINUOUS
10
1.62472
20
-6.18535
11
1.63034
21
-6.1966
0
LINE
8
BLACK
6
CONTINUOUS
10
1.63034
20
-6.1966
11
1.63597
21
-6.21909
0
LINE
8
BLACK
6
CONTINUOUS
10
1.63597
20
-6.21909
11
1.63597
21
-6.24722
0
LINE
8
BLACK
6
CONTINUOUS
10
1.63597
20
-6.24722
11
1.63034
21
-6.26971
0
LINE
8
BLACK
6
CONTINUOUS
10
1.63034
20
-6.26971
11
1.62472
21
-6.28096
0
LINE
8
BLACK
6
CONTINUOUS
10
1.62472
20
-6.28096
11
1.61909
21
-6.28659
0
LINE
8
BLACK
6
CONTINUOUS
10
1.61909
20
-6.28659
11
1.60785
21
-6.29221
0
LINE
8
BLACK
6
CONTINUOUS
10
1.60785
20
-6.29221
11
1.5966
21
-6.29221
0
LINE
8
BLACK
6
CONTINUOUS
10
1.5966
20
-6.29221
11
1.58535
21
-6.28659
0
LINE
8
BLACK
6
CONTINUOUS
10
1.58535
20
-6.28659
11
1.57972
21
-6.28096
0
LINE
8
BLACK
6
CONTINUOUS
10
1.57972
20
-6.28096
11
1.5741
21
-6.26971
0
LINE
8
BLACK
6
CONTINUOUS
10
1.5741
20
-6.26971
11
1.56848
21
-6.24722
0
LINE
8
BLACK
6
CONTINUOUS
10
1.56848
20
-6.24722
11
1.56848
21
-6.21909
0
LINE
8
BLACK
6
CONTINUOUS
10
1.56848
20
-6.21909
11
1.5741
21
-6.1966
0
LINE
8
BLACK
6
CONTINUOUS
10
1.5741
20
-6.1966
11
1.57972
21
-6.18535
0
LINE
8
BLACK
6
CONTINUOUS
10
1.57972
20
-6.18535
11
1.58535
21
-6.17972
0
LINE
8
BLACK
6
CONTINUOUS
10
1.58535
20
-6.17972
11
1.5966
21
-6.1741
0
LINE
8
BLACK
6
CONTINUOUS
10
1.70908
20
-6.1741
11
1.72033
21
-6.1741
0
LINE
8
BLACK
6
CONTINUOUS
10
1.72033
20
-6.1741
11
1.73158
21
-6.17972
0
LINE
8
BLACK
6
CONTINUOUS
10
1.73158
20
-6.17972
11
1.7372
21
-6.18535
0
LINE
8
BLACK
6
CONTINUOUS
10
1.7372
20
-6.18535
11
1.74283
21
-6.1966
0
LINE
8
BLACK
6
CONTINUOUS
10
1.74283
20
-6.1966
11
1.74845
21
-6.21909
0
LINE
8
BLACK
6
CONTINUOUS
10
1.74845
20
-6.21909
11
1.74845
21
-6.24722
0
LINE
8
BLACK
6
CONTINUOUS
10
1.74845
20
-6.24722
11
1.74283
21
-6.26971
0
LINE
8
BLACK
6
CONTINUOUS
10
1.74283
20
-6.26971
11
1.7372
21
-6.28096
0
LINE
8
BLACK
6
CONTINUOUS
10
1.7372
20
-6.28096
11
1.73158
21
-6.28659
0
LINE
8
BLACK
6
CONTINUOUS
10
1.73158
20
-6.28659
11
1.72033
21
-6.29221
0
LINE
8
BLACK
6
CONTINUOUS
10
1.72033
20
-6.29221
11
1.70908
21
-6.29221
0
LINE
8
BLACK
6
CONTINUOUS
10
1.70908
20
-6.29221
11
1.69783
21
-6.28659
0
LINE
8
BLACK
6
CONTINUOUS
10
1.69783
20
-6.28659
11
1.69221
21
-6.28096
0
LINE
8
BLACK
6
CONTINUOUS
10
1.69221
20
-6.28096
11
1.68659
21
-6.26971
0
LINE
8
BLACK
6
CONTINUOUS
10
1.68659
20
-6.26971
11
1.68096
21
-6.24722
0
LINE
8
BLACK
6
CONTINUOUS
10
1.68096
20
-6.24722
11
1.68096
21
-6.21909
0
LINE
8
BLACK
6
CONTINUOUS
10
1.68096
20
-6.21909
11
1.68659
21
-6.1966
0
LINE
8
BLACK
6
CONTINUOUS
10
1.68659
20
-6.1966
11
1.69221
21
-6.18535
0
LINE
8
BLACK
6
CONTINUOUS
10
1.69221
20
-6.18535
11
1.69783
21
-6.17972
0
LINE
8
BLACK
6
CONTINUOUS
10
1.69783
20
-6.17972
11
1.70908
21
-6.1741
0
LINE
8
BLACK
6
CONTINUOUS
10
1.79907
20
-6.29221
11
1.79907
21
-6.21347
0
LINE
8
BLACK
6
CONTINUOUS
10
1.79907
20
-6.22472
11
1.8047
21
-6.21909
0
LINE
8
BLACK
6
CONTINUOUS
10
1.8047
20
-6.21909
11
1.81594
21
-6.21347
0
LINE
8
BLACK
6
CONTINUOUS
10
1.81594
20
-6.21347
11
1.83282
21
-6.21347
0
LINE
8
BLACK
6
CONTINUOUS
10
1.83282
20
-6.21347
11
1.84407
21
-6.21909
0
LINE
8
BLACK
6
CONTINUOUS
10
1.84407
20
-6.21909
11
1.84969
21
-6.23034
0
LINE
8
BLACK
6
CONTINUOUS
10
1.84969
20
-6.23034
11
1.84969
21
-6.29221
0
LINE
8
BLACK
6
CONTINUOUS
10
1.84969
20
-6.23034
11
1.85531
21
-6.21909
0
LINE
8
BLACK
6
CONTINUOUS
10
1.85531
20
-6.21909
11
1.86656
21
-6.21347
0
LINE
8
BLACK
6
CONTINUOUS
10
1.86656
20
-6.21347
11
1.88344
21
-6.21347
0
LINE
8
BLACK
6
CONTINUOUS
10
1.88344
20
-6.21347
11
1.89468
21
-6.21909
0
LINE
8
BLACK
6
CONTINUOUS
10
1.89468
20
-6.21909
11
1.90031
21
-6.23034
0
LINE
8
BLACK
6
CONTINUOUS
10
1.90031
20
-6.23034
11
1.90031
21
-6.29221
0
LINE
8
BLACK
6
CONTINUOUS
10
1.95655
20
-6.29221
11
1.95655
21
-6.21347
0
LINE
8
BLACK
6
CONTINUOUS
10
1.95655
20
-6.22472
11
1.96218
21
-6.21909
0
LINE
8
BLACK
6
CONTINUOUS
10
1.96218
20
-6.21909
11
1.97343
21
-6.21347
0
LINE
8
BLACK
6
CONTINUOUS
10
1.97343
20
-6.21347
11
1.9903
21
-6.21347
0
LINE
8
BLACK
6
CONTINUOUS
10
1.9903
20
-6.21347
11
2.00155
21
-6.21909
0
LINE
8
BLACK
6
CONTINUOUS
10
2.00155
20
-6.21909
11
2.00717
21
-6.23034
0
LINE
8
BLACK
6
CONTINUOUS
10
2.00717
20
-6.23034
11
2.00717
21
-6.29221
0
LINE
8
BLACK
6
CONTINUOUS
10
2.00717
20
-6.23034
11
2.0128
21
-6.21909
0
LINE
8
BLACK
6
CONTINUOUS
10
2.0128
20
-6.21909
11
2.02404
21
-6.21347
0
LINE
8
BLACK
6
CONTINUOUS
10
2.02404
20
-6.21347
11
2.04092
21
-6.21347
0
LINE
8
BLACK
6
CONTINUOUS
10
2.04092
20
-6.21347
11
2.05217
21
-6.21909
0
LINE
8
BLACK
6
CONTINUOUS
10
2.05217
20
-6.21909
11
2.05779
21
-6.23034
0
LINE
8
BLACK
6
CONTINUOUS
10
2.05779
20
-6.23034
11
2.05779
21
-6.29221
0
LINE
8
BLACK
6
CONTINUOUS
10
2.28839
20
-6.16848
11
2.18715
21
-6.32033
0
LINE
8
BLACK
6
CONTINUOUS
10
2.44024
20
-6.1741
11
2.45149
21
-6.1741
0
LINE
8
BLACK
6
CONTINUOUS
10
2.45149
20
-6.1741
11
2.46274
21
-6.17972
0
LINE
8
BLACK
6
CONTINUOUS
10
2.46274
20
-6.17972
11
2.46836
21
-6.18535
0
LINE
8
BLACK
6
CONTINUOUS
10
2.46836
20
-6.18535
11
2.47399
21
-6.1966
0
LINE
8
BLACK
6
CONTINUOUS
10
2.47399
20
-6.1966
11
2.47961
21
-6.21909
0
LINE
8
BLACK
6
CONTINUOUS
10
2.47961
20
-6.21909
11
2.47961
21
-6.24722
0
LINE
8
BLACK
6
CONTINUOUS
10
2.47961
20
-6.24722
11
2.47399
21
-6.26971
0
LINE
8
BLACK
6
CONTINUOUS
10
2.47399
20
-6.26971
11
2.46836
21
-6.28096
0
LINE
8
BLACK
6
CONTINUOUS
10
2.46836
20
-6.28096
11
2.46274
21
-6.28659
0
LINE
8
BLACK
6
CONTINUOUS
10
2.46274
20
-6.28659
11
2.45149
21
-6.29221
0
LINE
8
BLACK
6
CONTINUOUS
10
2.45149
20
-6.29221
11
2.44024
21
-6.29221
0
LINE
8
BLACK
6
CONTINUOUS
10
2.44024
20
-6.29221
11
2.42899
21
-6.28659
0
LINE
8
BLACK
6
CONTINUOUS
10
2.42899
20
-6.28659
11
2.42337
21
-6.28096
0
LINE
8
BLACK
6
CONTINUOUS
10
2.42337
20
-6.28096
11
2.41774
21
-6.26971
0
LINE
8
BLACK
6
CONTINUOUS
10
2.41774
20
-6.26971
11
2.41212
21
-6.24722
0
LINE
8
BLACK
6
CONTINUOUS
10
2.41212
20
-6.24722
11
2.41212
21
-6.21909
0
LINE
8
BLACK
6
CONTINUOUS
10
2.41212
20
-6.21909
11
2.41774
21
-6.1966
0
LINE
8
BLACK
6
CONTINUOUS
10
2.41774
20
-6.1966
11
2.42337
21
-6.18535
0
LINE
8
BLACK
6
CONTINUOUS
10
2.42337
20
-6.18535
11
2.42899
21
-6.17972
0
LINE
8
BLACK
6
CONTINUOUS
10
2.42899
20
-6.17972
11
2.44024
21
-6.1741
0
LINE
8
BLACK
6
CONTINUOUS
10
2.53023
20
-6.28096
11
2.53585
21
-6.28659
0
LINE
8
BLACK
6
CONTINUOUS
10
2.53585
20
-6.28659
11
2.53023
21
-6.29221
0
LINE
8
BLACK
6
CONTINUOUS
10
2.53023
20
-6.29221
11
2.52461
21
-6.28659
0
LINE
8
BLACK
6
CONTINUOUS
10
2.52461
20
-6.28659
11
2.53023
21
-6.28096
0
LINE
8
BLACK
6
CONTINUOUS
10
2.53023
20
-6.28096
11
2.53023
21
-6.29221
0
LINE
8
BLACK
6
CONTINUOUS
10
2.60897
20
-6.1741
11
2.62022
21
-6.1741
0
LINE
8
BLACK
6
CONTINUOUS
10
2.62022
20
-6.1741
11
2.63147
21
-6.17972
0
LINE
8
BLACK
6
CONTINUOUS
10
2.63147
20
-6.17972
11
2.63709
21
-6.18535
0
LINE
8
BLACK
6
CONTINUOUS
10
2.63709
20
-6.18535
11
2.64272
21
-6.1966
0
LINE
8
BLACK
6
CONTINUOUS
10
2.64272
20
-6.1966
11
2.64834
21
-6.21909
0
LINE
8
BLACK
6
CONTINUOUS
10
2.64834
20
-6.21909
11
2.64834
21
-6.24722
0
LINE
8
BLACK
6
CONTINUOUS
10
2.64834
20
-6.24722
11
2.64272
21
-6.26971
0
LINE
8
BLACK
6
CONTINUOUS
10
2.64272
20
-6.26971
11
2.63709
21
-6.28096
0
LINE
8
BLACK
6
CONTINUOUS
10
2.63709
20
-6.28096
11
2.63147
21
-6.28659
0
LINE
8
BLACK
6
CONTINUOUS
10
2.63147
20
-6.28659
11
2.62022
21
-6.29221
0
LINE
8
BLACK
6
CONTINUOUS
10
2.62022
20
-6.29221
11
2.60897
21
-6.29221
0
LINE
8
BLACK
6
CONTINUOUS
10
2.60897
20
-6.29221
11
2.59772
21
-6.28659
0
LINE
8
BLACK
6
CONTINUOUS
10
2.59772
20
-6.28659
11
2.5921
21
-6.28096
0
LINE
8
BLACK
6
CONTINUOUS
10
2.5921
20
-6.28096
11
2.58647
21
-6.26971
0
LINE
8
BLACK
6
CONTINUOUS
10
2.58647
20
-6.26971
11
2.58085
21
-6.24722
0
LINE
8
BLACK
6
CONTINUOUS
10
2.58085
20
-6.24722
11
2.58085
21
-6.21909
0
LINE
8
BLACK
6
CONTINUOUS
10
2.58085
20
-6.21909
11
2.58647
21
-6.1966
0
LINE
8
BLACK
6
CONTINUOUS
10
2.58647
20
-6.1966
11
2.5921
21
-6.18535
0
LINE
8
BLACK
6
CONTINUOUS
10
2.5921
20
-6.18535
11
2.59772
21
-6.17972
0
LINE
8
BLACK
6
CONTINUOUS
10
2.59772
20
-6.17972
11
2.60897
21
-6.1741
0
LINE
8
BLACK
6
CONTINUOUS
10
2.68771
20
-6.1741
11
2.76083
21
-6.1741
0
LINE
8
BLACK
6
CONTINUOUS
10
2.76083
20
-6.1741
11
2.72146
21
-6.21909
0
LINE
8
BLACK
6
CONTINUOUS
10
2.72146
20
-6.21909
11
2.73833
21
-6.21909
0
LINE
8
BLACK
6
CONTINUOUS
10
2.73833
20
-6.21909
11
2.74958
21
-6.22472
0
LINE
8
BLACK
6
CONTINUOUS
10
2.74958
20
-6.22472
11
2.7552
21
-6.23034
0
LINE
8
BLACK
6
CONTINUOUS
10
2.7552
20
-6.23034
11
2.76083
21
-6.24159
0
LINE
8
BLACK
6
CONTINUOUS
10
2.76083
20
-6.24159
11
2.76083
21
-6.26971
0
LINE
8
BLACK
6
CONTINUOUS
10
2.76083
20
-6.26971
11
2.7552
21
-6.28096
0
LINE
8
BLACK
6
CONTINUOUS
10
2.7552
20
-6.28096
11
2.74958
21
-6.28659
0
LINE
8
BLACK
6
CONTINUOUS
10
2.74958
20
-6.28659
11
2.73833
21
-6.29221
0
LINE
8
BLACK
6
CONTINUOUS
10
2.73833
20
-6.29221
11
2.70458
21
-6.29221
0
LINE
8
BLACK
6
CONTINUOUS
10
2.70458
20
-6.29221
11
2.69334
21
-6.28659
0
LINE
8
BLACK
6
CONTINUOUS
10
2.69334
20
-6.28659
11
2.68771
21
-6.28096
0
LINE
8
BLACK
6
CONTINUOUS
10
2.81707
20
-6.29221
11
2.83957
21
-6.29221
0
LINE
8
BLACK
6
CONTINUOUS
10
2.83957
20
-6.29221
11
2.85082
21
-6.28659
0
LINE
8
BLACK
6
CONTINUOUS
10
2.85082
20
-6.28659
11
2.85644
21
-6.28096
0
LINE
8
BLACK
6
CONTINUOUS
10
2.85644
20
-6.28096
11
2.86769
21
-6.26409
0
LINE
8
BLACK
6
CONTINUOUS
10
2.86769
20
-6.26409
11
2.87331
21
-6.24159
0
LINE
8
BLACK
6
CONTINUOUS
10
2.87331
20
-6.24159
11
2.87331
21
-6.1966
0
LINE
8
BLACK
6
CONTINUOUS
10
2.87331
20
-6.1966
11
2.86769
21
-6.18535
0
LINE
8
BLACK
6
CONTINUOUS
10
2.86769
20
-6.18535
11
2.86206
21
-6.17972
0
LINE
8
BLACK
6
CONTINUOUS
10
2.86206
20
-6.17972
11
2.85082
21
-6.1741
0
LINE
8
BLACK
6
CONTINUOUS
10
2.85082
20
-6.1741
11
2.82832
21
-6.1741
0
LINE
8
BLACK
6
CONTINUOUS
10
2.82832
20
-6.1741
11
2.81707
21
-6.17972
0
LINE
8
BLACK
6
CONTINUOUS
10
2.81707
20
-6.17972
11
2.81145
21
-6.18535
0
LINE
8
BLACK
6
CONTINUOUS
10
2.81145
20
-6.18535
11
2.80582
21
-6.1966
0
LINE
8
BLACK
6
CONTINUOUS
10
2.80582
20
-6.1966
11
2.80582
21
-6.22472
0
LINE
8
BLACK
6
CONTINUOUS
10
2.80582
20
-6.22472
11
2.81145
21
-6.23597
0
LINE
8
BLACK
6
CONTINUOUS
10
2.81145
20
-6.23597
11
2.81707
21
-6.24159
0
LINE
8
BLACK
6
CONTINUOUS
10
2.81707
20
-6.24159
11
2.82832
21
-6.24722
0
LINE
8
BLACK
6
CONTINUOUS
10
2.82832
20
-6.24722
11
2.85082
21
-6.24722
0
LINE
8
BLACK
6
CONTINUOUS
10
2.85082
20
-6.24722
11
2.86206
21
-6.24159
0
LINE
8
BLACK
6
CONTINUOUS
10
2.86206
20
-6.24159
11
2.86769
21
-6.23597
0
LINE
8
BLACK
6
CONTINUOUS
10
2.86769
20
-6.23597
11
2.87331
21
-6.22472
0
LINE
8
BLACK
6
CONTINUOUS
10
2.97455
20
-6.21347
11
2.97455
21
-6.29221
0
LINE
8
BLACK
6
CONTINUOUS
10
2.94643
20
-6.16848
11
2.91831
21
-6.25284
0
LINE
8
BLACK
6
CONTINUOUS
10
2.91831
20
-6.25284
11
2.99142
21
-6.25284
0
LINE
8
BLACK
6
CONTINUOUS
10
3.03079
20
-6.1741
11
3.03079
21
-6.1966
0
LINE
8
BLACK
6
CONTINUOUS
10
3.07579
20
-6.1741
11
3.07579
21
-6.1966
0
LINE
8
BLACK
6
CONTINUOUS
10
3.25014
20
-6.3372
11
3.24452
21
-6.33158
0
LINE
8
BLACK
6
CONTINUOUS
10
3.24452
20
-6.33158
11
3.23327
21
-6.31471
0
LINE
8
BLACK
6
CONTINUOUS
10
3.23327
20
-6.31471
11
3.22764
21
-6.30346
0
LINE
8
BLACK
6
CONTINUOUS
10
3.22764
20
-6.30346
11
3.22202
21
-6.28659
0
LINE
8
BLACK
6
CONTINUOUS
10
3.22202
20
-6.28659
11
3.21639
21
-6.25846
0
LINE
8
BLACK
6
CONTINUOUS
10
3.21639
20
-6.25846
11
3.21639
21
-6.23597
0
LINE
8
BLACK
6
CONTINUOUS
10
3.21639
20
-6.23597
11
3.22202
21
-6.20785
0
LINE
8
BLACK
6
CONTINUOUS
10
3.22202
20
-6.20785
11
3.22764
21
-6.19097
0
LINE
8
BLACK
6
CONTINUOUS
10
3.22764
20
-6.19097
11
3.23327
21
-6.17972
0
LINE
8
BLACK
6
CONTINUOUS
10
3.23327
20
-6.17972
11
3.24452
21
-6.16285
0
LINE
8
BLACK
6
CONTINUOUS
10
3.24452
20
-6.16285
11
3.25014
21
-6.15723
0
LINE
8
BLACK
6
CONTINUOUS
10
3.28389
20
-6.1741
11
3.357
21
-6.1741
0
LINE
8
BLACK
6
CONTINUOUS
10
3.357
20
-6.1741
11
3.31763
21
-6.21909
0
LINE
8
BLACK
6
CONTINUOUS
10
3.31763
20
-6.21909
11
3.33451
21
-6.21909
0
LINE
8
BLACK
6
CONTINUOUS
10
3.33451
20
-6.21909
11
3.34575
21
-6.22472
0
LINE
8
BLACK
6
CONTINUOUS
10
3.34575
20
-6.22472
11
3.35138
21
-6.23034
0
LINE
8
BLACK
6
CONTINUOUS
10
3.35138
20
-6.23034
11
3.357
21
-6.24159
0
LINE
8
BLACK
6
CONTINUOUS
10
3.357
20
-6.24159
11
3.357
21
-6.26971
0
LINE
8
BLACK
6
CONTINUOUS
10
3.357
20
-6.26971
11
3.35138
21
-6.28096
0
LINE
8
BLACK
6
CONTINUOUS
10
3.35138
20
-6.28096
11
3.34575
21
-6.28659
0
LINE
8
BLACK
6
CONTINUOUS
10
3.34575
20
-6.28659
11
3.33451
21
-6.29221
0
LINE
8
BLACK
6
CONTINUOUS
10
3.33451
20
-6.29221
11
3.30076
21
-6.29221
0
LINE
8
BLACK
6
CONTINUOUS
10
3.30076
20
-6.29221
11
3.28951
21
-6.28659
0
LINE
8
BLACK
6
CONTINUOUS
10
3.28951
20
-6.28659
11
3.28389
21
-6.28096
0
LINE
8
BLACK
6
CONTINUOUS
10
3.46949
20
-6.29221
11
3.402
21
-6.29221
0
LINE
8
BLACK
6
CONTINUOUS
10
3.43574
20
-6.29221
11
3.43574
21
-6.1741
0
LINE
8
BLACK
6
CONTINUOUS
10
3.43574
20
-6.1741
11
3.42449
21
-6.19097
0
LINE
8
BLACK
6
CONTINUOUS
10
3.42449
20
-6.19097
11
3.41325
21
-6.20222
0
LINE
8
BLACK
6
CONTINUOUS
10
3.41325
20
-6.20222
11
3.402
21
-6.20785
0
LINE
8
BLACK
6
CONTINUOUS
10
3.6101
20
-6.29221
11
3.6101
21
-6.1741
0
LINE
8
BLACK
6
CONTINUOUS
10
3.66071
20
-6.29221
11
3.66071
21
-6.23034
0
LINE
8
BLACK
6
CONTINUOUS
10
3.66071
20
-6.23034
11
3.65509
21
-6.21909
0
LINE
8
BLACK
6
CONTINUOUS
10
3.65509
20
-6.21909
11
3.64384
21
-6.21347
0
LINE
8
BLACK
6
CONTINUOUS
10
3.64384
20
-6.21347
11
3.62697
21
-6.21347
0
LINE
8
BLACK
6
CONTINUOUS
10
3.62697
20
-6.21347
11
3.61572
21
-6.21909
0
LINE
8
BLACK
6
CONTINUOUS
10
3.61572
20
-6.21909
11
3.6101
21
-6.22472
0
LINE
8
BLACK
6
CONTINUOUS
10
3.73383
20
-6.29221
11
3.72258
21
-6.28659
0
LINE
8
BLACK
6
CONTINUOUS
10
3.72258
20
-6.28659
11
3.71696
21
-6.28096
0
LINE
8
BLACK
6
CONTINUOUS
10
3.71696
20
-6.28096
11
3.71133
21
-6.26971
0
LINE
8
BLACK
6
CONTINUOUS
10
3.71133
20
-6.26971
11
3.71133
21
-6.23597
0
LINE
8
BLACK
6
CONTINUOUS
10
3.71133
20
-6.23597
11
3.71696
21
-6.22472
0
LINE
8
BLACK
6
CONTINUOUS
10
3.71696
20
-6.22472
11
3.72258
21
-6.21909
0
LINE
8
BLACK
6
CONTINUOUS
10
3.72258
20
-6.21909
11
3.73383
21
-6.21347
0
LINE
8
BLACK
6
CONTINUOUS
10
3.73383
20
-6.21347
11
3.7507
21
-6.21347
0
LINE
8
BLACK
6
CONTINUOUS
10
3.7507
20
-6.21347
11
3.76195
21
-6.21909
0
LINE
8
BLACK
6
CONTINUOUS
10
3.76195
20
-6.21909
11
3.76758
21
-6.22472
0
LINE
8
BLACK
6
CONTINUOUS
10
3.76758
20
-6.22472
11
3.7732
21
-6.23597
0
LINE
8
BLACK
6
CONTINUOUS
10
3.7732
20
-6.23597
11
3.7732
21
-6.26971
0
LINE
8
BLACK
6
CONTINUOUS
10
3.7732
20
-6.26971
11
3.76758
21
-6.28096
0
LINE
8
BLACK
6
CONTINUOUS
10
3.76758
20
-6.28096
11
3.76195
21
-6.28659
0
LINE
8
BLACK
6
CONTINUOUS
10
3.76195
20
-6.28659
11
3.7507
21
-6.29221
0
LINE
8
BLACK
6
CONTINUOUS
10
3.7507
20
-6.29221
11
3.73383
21
-6.29221
0
LINE
8
BLACK
6
CONTINUOUS
10
3.84069
20
-6.29221
11
3.82944
21
-6.28659
0
LINE
8
BLACK
6
CONTINUOUS
10
3.82944
20
-6.28659
11
3.82382
21
-6.27534
0
LINE
8
BLACK
6
CONTINUOUS
10
3.82382
20
-6.27534
11
3.82382
21
-6.1741
0
LINE
8
BLACK
6
CONTINUOUS
10
3.93068
20
-6.28659
11
3.91943
21
-6.29221
0
LINE
8
BLACK
6
CONTINUOUS
10
3.91943
20
-6.29221
11
3.89693
21
-6.29221
0
LINE
8
BLACK
6
CONTINUOUS
10
3.89693
20
-6.29221
11
3.88569
21
-6.28659
0
LINE
8
BLACK
6
CONTINUOUS
10
3.88569
20
-6.28659
11
3.88006
21
-6.27534
0
LINE
8
BLACK
6
CONTINUOUS
10
3.88006
20
-6.27534
11
3.88006
21
-6.23034
0
LINE
8
BLACK
6
CONTINUOUS
10
3.88006
20
-6.23034
11
3.88569
21
-6.21909
0
LINE
8
BLACK
6
CONTINUOUS
10
3.88569
20
-6.21909
11
3.89693
21
-6.21347
0
LINE
8
BLACK
6
CONTINUOUS
10
3.89693
20
-6.21347
11
3.91943
21
-6.21347
0
LINE
8
BLACK
6
CONTINUOUS
10
3.91943
20
-6.21347
11
3.93068
21
-6.21909
0
LINE
8
BLACK
6
CONTINUOUS
10
3.93068
20
-6.21909
11
3.9363
21
-6.23034
0
LINE
8
BLACK
6
CONTINUOUS
10
3.9363
20
-6.23034
11
3.9363
21
-6.24159
0
LINE
8
BLACK
6
CONTINUOUS
10
3.9363
20
-6.24159
11
3.88006
21
-6.25284
0
LINE
8
BLACK
6
CONTINUOUS
10
3.9813
20
-6.28659
11
3.99255
21
-6.29221
0
LINE
8
BLACK
6
CONTINUOUS
10
3.99255
20
-6.29221
11
4.01504
21
-6.29221
0
LINE
8
BLACK
6
CONTINUOUS
10
4.01504
20
-6.29221
11
4.02629
21
-6.28659
0
LINE
8
BLACK
6
CONTINUOUS
10
4.02629
20
-6.28659
11
4.03192
21
-6.27534
0
LINE
8
BLACK
6
CONTINUOUS
10
4.03192
20
-6.27534
11
4.03192
21
-6.26971
0
LINE
8
BLACK
6
CONTINUOUS
10
4.03192
20
-6.26971
11
4.02629
21
-6.25846
0
LINE
8
BLACK
6
CONTINUOUS
10
4.02629
20
-6.25846
11
4.01504
21
-6.25284
0
LINE
8
BLACK
6
CONTINUOUS
10
4.01504
20
-6.25284
11
3.99817
21
-6.25284
0
LINE
8
BLACK
6
CONTINUOUS
10
3.99817
20
-6.25284
11
3.98692
21
-6.24722
0
LINE
8
BLACK
6
CONTINUOUS
10
3.98692
20
-6.24722
11
3.9813
21
-6.23597
0
LINE
8
BLACK
6
CONTINUOUS
10
3.9813
20
-6.23597
11
3.9813
21
-6.23034
0
LINE
8
BLACK
6
CONTINUOUS
10
3.9813
20
-6.23034
11
3.98692
21
-6.21909
0
LINE
8
BLACK
6
CONTINUOUS
10
3.98692
20
-6.21909
11
3.99817
21
-6.21347
0
LINE
8
BLACK
6
CONTINUOUS
10
3.99817
20
-6.21347
11
4.01504
21
-6.21347
0
LINE
8
BLACK
6
CONTINUOUS
10
4.01504
20
-6.21347
11
4.02629
21
-6.21909
0
LINE
8
BLACK
6
CONTINUOUS
10
4.07129
20
-6.3372
11
4.07691
21
-6.33158
0
LINE
8
BLACK
6
CONTINUOUS
10
4.07691
20
-6.33158
11
4.08816
21
-6.31471
0
LINE
8
BLACK
6
CONTINUOUS
10
4.08816
20
-6.31471
11
4.09379
21
-6.30346
0
LINE
8
BLACK
6
CONTINUOUS
10
4.09379
20
-6.30346
11
4.09941
21
-6.28659
0
LINE
8
BLACK
6
CONTINUOUS
10
4.09941
20
-6.28659
11
4.10503
21
-6.25846
0
LINE
8
BLACK
6
CONTINUOUS
10
4.10503
20
-6.25846
11
4.10503
21
-6.23597
0
LINE
8
BLACK
6
CONTINUOUS
10
4.10503
20
-6.23597
11
4.09941
21
-6.20785
0
LINE
8
BLACK
6
CONTINUOUS
10
4.09941
20
-6.20785
11
4.09379
21
-6.19097
0
LINE
8
BLACK
6
CONTINUOUS
10
4.09379
20
-6.19097
11
4.08816
21
-6.17972
0
LINE
8
BLACK
6
CONTINUOUS
10
4.08816
20
-6.17972
11
4.07691
21
-6.16285
0
LINE
8
BLACK
6
CONTINUOUS
10
4.07691
20
-6.16285
11
4.07129
21
-6.15723
0
LINE
8
BLACK
6
CONTINUOUS
10
1.13681
20
-6.37303
11
1.18012
21
-6.41634
0
LINE
8
BLACK
6
CONTINUOUS
10
1.18012
20
-6.37303
11
1.13681
21
-6.41634
0
CIRCLE
8
BLACK
10
1.15846
20
-6.39469
40
0.0216535
0
LINE
8
BLACK
6
CONTINUOUS
10
1.35475
20
-6.44812
11
1.28726
21
-6.44812
0
LINE
8
BLACK
6
CONTINUOUS
10
1.32101
20
-6.44812
11
1.32101
21
-6.33001
0
LINE
8
BLACK
6
CONTINUOUS
10
1.32101
20
-6.33001
11
1.30976
21
-6.34688
0
LINE
8
BLACK
6
CONTINUOUS
10
1.30976
20
-6.34688
11
1.29851
21
-6.35813
0
LINE
8
BLACK
6
CONTINUOUS
10
1.29851
20
-6.35813
11
1.28726
21
-6.36375
0
LINE
8
BLACK
6
CONTINUOUS
10
1.40537
20
-6.43687
11
1.411
21
-6.44249
0
LINE
8
BLACK
6
CONTINUOUS
10
1.411
20
-6.44249
11
1.40537
21
-6.44812
0
LINE
8
BLACK
6
CONTINUOUS
10
1.40537
20
-6.44812
11
1.39975
21
-6.44249
0
LINE
8
BLACK
6
CONTINUOUS
10
1.39975
20
-6.44249
11
1.40537
21
-6.43687
0
LINE
8
BLACK
6
CONTINUOUS
10
1.40537
20
-6.43687
11
1.40537
21
-6.44812
0
LINE
8
BLACK
6
CONTINUOUS
10
1.52348
20
-6.44812
11
1.45599
21
-6.44812
0
LINE
8
BLACK
6
CONTINUOUS
10
1.48974
20
-6.44812
11
1.48974
21
-6.33001
0
LINE
8
BLACK
6
CONTINUOUS
10
1.48974
20
-6.33001
11
1.47849
21
-6.34688
0
LINE
8
BLACK
6
CONTINUOUS
10
1.47849
20
-6.34688
11
1.46724
21
-6.35813
0
LINE
8
BLACK
6
CONTINUOUS
10
1.46724
20
-6.35813
11
1.45599
21
-6.36375
0
LINE
8
BLACK
6
CONTINUOUS
10
1.5966
20
-6.33001
11
1.60785
21
-6.33001
0
LINE
8
BLACK
6
CONTINUOUS
10
1.60785
20
-6.33001
11
1.61909
21
-6.33563
0
LINE
8
BLACK
6
CONTINUOUS
10
1.61909
20
-6.33563
11
1.62472
21
-6.34125
0
LINE
8
BLACK
6
CONTINUOUS
10
1.62472
20
-6.34125
11
1.63034
21
-6.3525
0
LINE
8
BLACK
6
CONTINUOUS
10
1.63034
20
-6.3525
11
1.63597
21
-6.375
0
LINE
8
BLACK
6
CONTINUOUS
10
1.63597
20
-6.375
11
1.63597
21
-6.40312
0
LINE
8
BLACK
6
CONTINUOUS
10
1.63597
20
-6.40312
11
1.63034
21
-6.42562
0
LINE
8
BLACK
6
CONTINUOUS
10
1.63034
20
-6.42562
11
1.62472
21
-6.43687
0
LINE
8
BLACK
6
CONTINUOUS
10
1.62472
20
-6.43687
11
1.61909
21
-6.44249
0
LINE
8
BLACK
6
CONTINUOUS
10
1.61909
20
-6.44249
11
1.60785
21
-6.44812
0
LINE
8
BLACK
6
CONTINUOUS
10
1.60785
20
-6.44812
11
1.5966
21
-6.44812
0
LINE
8
BLACK
6
CONTINUOUS
10
1.5966
20
-6.44812
11
1.58535
21
-6.44249
0
LINE
8
BLACK
6
CONTINUOUS
10
1.58535
20
-6.44249
11
1.57972
21
-6.43687
0
LINE
8
BLACK
6
CONTINUOUS
10
1.57972
20
-6.43687
11
1.5741
21
-6.42562
0
LINE
8
BLACK
6
CONTINUOUS
10
1.5741
20
-6.42562
11
1.56848
21
-6.40312
0
LINE
8
BLACK
6
CONTINUOUS
10
1.56848
20
-6.40312
11
1.56848
21
-6.375
0
LINE
8
BLACK
6
CONTINUOUS
10
1.56848
20
-6.375
11
1.5741
21
-6.3525
0
LINE
8
BLACK
6
CONTINUOUS
10
1.5741
20
-6.3525
11
1.57972
21
-6.34125
0
LINE
8
BLACK
6
CONTINUOUS
10
1.57972
20
-6.34125
11
1.58535
21
-6.33563
0
LINE
8
BLACK
6
CONTINUOUS
10
1.58535
20
-6.33563
11
1.5966
21
-6.33001
0
LINE
8
BLACK
6
CONTINUOUS
10
1.70908
20
-6.33001
11
1.72033
21
-6.33001
0
LINE
8
BLACK
6
CONTINUOUS
10
1.72033
20
-6.33001
11
1.73158
21
-6.33563
0
LINE
8
BLACK
6
CONTINUOUS
10
1.73158
20
-6.33563
11
1.7372
21
-6.34125
0
LINE
8
BLACK
6
CONTINUOUS
10
1.7372
20
-6.34125
11
1.74283
21
-6.3525
0
LINE
8
BLACK
6
CONTINUOUS
10
1.74283
20
-6.3525
11
1.74845
21
-6.375
0
LINE
8
BLACK
6
CONTINUOUS
10
1.74845
20
-6.375
11
1.74845
21
-6.40312
0
LINE
8
BLACK
6
CONTINUOUS
10
1.74845
20
-6.40312
11
1.74283
21
-6.42562
0
LINE
8
BLACK
6
CONTINUOUS
10
1.74283
20
-6.42562
11
1.7372
21
-6.43687
0
LINE
8
BLACK
6
CONTINUOUS
10
1.7372
20
-6.43687
11
1.73158
21
-6.44249
0
LINE
8
BLACK
6
CONTINUOUS
10
1.73158
20
-6.44249
11
1.72033
21
-6.44812
0
LINE
8
BLACK
6
CONTINUOUS
10
1.72033
20
-6.44812
11
1.70908
21
-6.44812
0
LINE
8
BLACK
6
CONTINUOUS
10
1.70908
20
-6.44812
11
1.69783
21
-6.44249
0
LINE
8
BLACK
6
CONTINUOUS
10
1.69783
20
-6.44249
11
1.69221
21
-6.43687
0
LINE
8
BLACK
6
CONTINUOUS
10
1.69221
20
-6.43687
11
1.68659
21
-6.42562
0
LINE
8
BLACK
6
CONTINUOUS
10
1.68659
20
-6.42562
11
1.68096
21
-6.40312
0
LINE
8
BLACK
6
CONTINUOUS
10
1.68096
20
-6.40312
11
1.68096
21
-6.375
0
LINE
8
BLACK
6
CONTINUOUS
10
1.68096
20
-6.375
11
1.68659
21
-6.3525
0
LINE
8
BLACK
6
CONTINUOUS
10
1.68659
20
-6.3525
11
1.69221
21
-6.34125
0
LINE
8
BLACK
6
CONTINUOUS
10
1.69221
20
-6.34125
11
1.69783
21
-6.33563
0
LINE
8
BLACK
6
CONTINUOUS
10
1.69783
20
-6.33563
11
1.70908
21
-6.33001
0
LINE
8
BLACK
6
CONTINUOUS
10
1.79907
20
-6.44812
11
1.79907
21
-6.36938
0
LINE
8
BLACK
6
CONTINUOUS
10
1.79907
20
-6.38062
11
1.8047
21
-6.375
0
LINE
8
BLACK
6
CONTINUOUS
10
1.8047
20
-6.375
11
1.81594
21
-6.36938
0
LINE
8
BLACK
6
CONTINUOUS
10
1.81594
20
-6.36938
11
1.83282
21
-6.36938
0
LINE
8
BLACK
6
CONTINUOUS
10
1.83282
20
-6.36938
11
1.84407
21
-6.375
0
LINE
8
BLACK
6
CONTINUOUS
10
1.84407
20
-6.375
11
1.84969
21
-6.38625
0
LINE
8
BLACK
6
CONTINUOUS
10
1.84969
20
-6.38625
11
1.84969
21
-6.44812
0
LINE
8
BLACK
6
CONTINUOUS
10
1.84969
20
-6.38625
11
1.85531
21
-6.375
0
LINE
8
BLACK
6
CONTINUOUS
10
1.85531
20
-6.375
11
1.86656
21
-6.36938
0
LINE
8
BLACK
6
CONTINUOUS
10
1.86656
20
-6.36938
11
1.88344
21
-6.36938
0
LINE
8
BLACK
6
CONTINUOUS
10
1.88344
20
-6.36938
11
1.89468
21
-6.375
0
LINE
8
BLACK
6
CONTINUOUS
10
1.89468
20
-6.375
11
1.90031
21
-6.38625
0
LINE
8
BLACK
6
CONTINUOUS
10
1.90031
20
-6.38625
11
1.90031
21
-6.44812
0
LINE
8
BLACK
6
CONTINUOUS
10
1.95655
20
-6.44812
11
1.95655
21
-6.36938
0
LINE
8
BLACK
6
CONTINUOUS
10
1.95655
20
-6.38062
11
1.96218
21
-6.375
0
LINE
8
BLACK
6
CONTINUOUS
10
1.96218
20
-6.375
11
1.97343
21
-6.36938
0
LINE
8
BLACK
6
CONTINUOUS
10
1.97343
20
-6.36938
11
1.9903
21
-6.36938
0
LINE
8
BLACK
6
CONTINUOUS
10
1.9903
20
-6.36938
11
2.00155
21
-6.375
0
LINE
8
BLACK
6
CONTINUOUS
10
2.00155
20
-6.375
11
2.00717
21
-6.38625
0
LINE
8
BLACK
6
CONTINUOUS
10
2.00717
20
-6.38625
11
2.00717
21
-6.44812
0
LINE
8
BLACK
6
CONTINUOUS
10
2.00717
20
-6.38625
11
2.0128
21
-6.375
0
LINE
8
BLACK
6
CONTINUOUS
10
2.0128
20
-6.375
11
2.02404
21
-6.36938
0
LINE
8
BLACK
6
CONTINUOUS
10
2.02404
20
-6.36938
11
2.04092
21
-6.36938
0
LINE
8
BLACK
6
CONTINUOUS
10
2.04092
20
-6.36938
11
2.05217
21
-6.375
0
LINE
8
BLACK
6
CONTINUOUS
10
2.05217
20
-6.375
11
2.05779
21
-6.38625
0
LINE
8
BLACK
6
CONTINUOUS
10
2.05779
20
-6.38625
11
2.05779
21
-6.44812
0
LINE
8
BLACK
6
CONTINUOUS
10
2.28839
20
-6.32438
11
2.18715
21
-6.47624
0
LINE
8
BLACK
6
CONTINUOUS
10
2.44024
20
-6.33001
11
2.45149
21
-6.33001
0
LINE
8
BLACK
6
CONTINUOUS
10
2.45149
20
-6.33001
11
2.46274
21
-6.33563
0
LINE
8
BLACK
6
CONTINUOUS
10
2.46274
20
-6.33563
11
2.46836
21
-6.34125
0
LINE
8
BLACK
6
CONTINUOUS
10
2.46836
20
-6.34125
11
2.47399
21
-6.3525
0
LINE
8
BLACK
6
CONTINUOUS
10
2.47399
20
-6.3525
11
2.47961
21
-6.375
0
LINE
8
BLACK
6
CONTINUOUS
10
2.47961
20
-6.375
11
2.47961
21
-6.40312
0
LINE
8
BLACK
6
CONTINUOUS
10
2.47961
20
-6.40312
11
2.47399
21
-6.42562
0
LINE
8
BLACK
6
CONTINUOUS
10
2.47399
20
-6.42562
11
2.46836
21
-6.43687
0
LINE
8
BLACK
6
CONTINUOUS
10
2.46836
20
-6.43687
11
2.46274
21
-6.44249
0
LINE
8
BLACK
6
CONTINUOUS
10
2.46274
20
-6.44249
11
2.45149
21
-6.44812
0
LINE
8
BLACK
6
CONTINUOUS
10
2.45149
20
-6.44812
11
2.44024
21
-6.44812
0
LINE
8
BLACK
6
CONTINUOUS
10
2.44024
20
-6.44812
11
2.42899
21
-6.44249
0
LINE
8
BLACK
6
CONTINUOUS
10
2.42899
20
-6.44249
11
2.42337
21
-6.43687
0
LINE
8
BLACK
6
CONTINUOUS
10
2.42337
20
-6.43687
11
2.41774
21
-6.42562
0
LINE
8
BLACK
6
CONTINUOUS
10
2.41774
20
-6.42562
11
2.41212
21
-6.40312
0
LINE
8
BLACK
6
CONTINUOUS
10
2.41212
20
-6.40312
11
2.41212
21
-6.375
0
LINE
8
BLACK
6
CONTINUOUS
10
2.41212
20
-6.375
11
2.41774
21
-6.3525
0
LINE
8
BLACK
6
CONTINUOUS
10
2.41774
20
-6.3525
11
2.42337
21
-6.34125
0
LINE
8
BLACK
6
CONTINUOUS
10
2.42337
20
-6.34125
11
2.42899
21
-6.33563
0
LINE
8
BLACK
6
CONTINUOUS
10
2.42899
20
-6.33563
11
2.44024
21
-6.33001
0
LINE
8
BLACK
6
CONTINUOUS
10
2.53023
20
-6.43687
11
2.53585
21
-6.44249
0
LINE
8
BLACK
6
CONTINUOUS
10
2.53585
20
-6.44249
11
2.53023
21
-6.44812
0
LINE
8
BLACK
6
CONTINUOUS
10
2.53023
20
-6.44812
11
2.52461
21
-6.44249
0
LINE
8
BLACK
6
CONTINUOUS
10
2.52461
20
-6.44249
11
2.53023
21
-6.43687
0
LINE
8
BLACK
6
CONTINUOUS
10
2.53023
20
-6.43687
11
2.53023
21
-6.44812
0
LINE
8
BLACK
6
CONTINUOUS
10
2.60897
20
-6.33001
11
2.62022
21
-6.33001
0
LINE
8
BLACK
6
CONTINUOUS
10
2.62022
20
-6.33001
11
2.63147
21
-6.33563
0
LINE
8
BLACK
6
CONTINUOUS
10
2.63147
20
-6.33563
11
2.63709
21
-6.34125
0
LINE
8
BLACK
6
CONTINUOUS
10
2.63709
20
-6.34125
11
2.64272
21
-6.3525
0
LINE
8
BLACK
6
CONTINUOUS
10
2.64272
20
-6.3525
11
2.64834
21
-6.375
0
LINE
8
BLACK
6
CONTINUOUS
10
2.64834
20
-6.375
11
2.64834
21
-6.40312
0
LINE
8
BLACK
6
CONTINUOUS
10
2.64834
20
-6.40312
11
2.64272
21
-6.42562
0
LINE
8
BLACK
6
CONTINUOUS
10
2.64272
20
-6.42562
11
2.63709
21
-6.43687
0
LINE
8
BLACK
6
CONTINUOUS
10
2.63709
20
-6.43687
11
2.63147
21
-6.44249
0
LINE
8
BLACK
6
CONTINUOUS
10
2.63147
20
-6.44249
11
2.62022
21
-6.44812
0
LINE
8
BLACK
6
CONTINUOUS
10
2.62022
20
-6.44812
11
2.60897
21
-6.44812
0
LINE
8
BLACK
6
CONTINUOUS
10
2.60897
20
-6.44812
11
2.59772
21
-6.44249
0
LINE
8
BLACK
6
CONTINUOUS
10
2.59772
20
-6.44249
11
2.5921
21
-6.43687
0
LINE
8
BLACK
6
CONTINUOUS
10
2.5921
20
-6.43687
11
2.58647
21
-6.42562
0
LINE
8
BLACK
6
CONTINUOUS
10
2.58647
20
-6.42562
11
2.58085
21
-6.40312
0
LINE
8
BLACK
6
CONTINUOUS
10
2.58085
20
-6.40312
11
2.58085
21
-6.375
0
LINE
8
BLACK
6
CONTINUOUS
10
2.58085
20
-6.375
11
2.58647
21
-6.3525
0
LINE
8
BLACK
6
CONTINUOUS
10
2.58647
20
-6.3525
11
2.5921
21
-6.34125
0
LINE
8
BLACK
6
CONTINUOUS
10
2.5921
20
-6.34125
11
2.59772
21
-6.33563
0
LINE
8
BLACK
6
CONTINUOUS
10
2.59772
20
-6.33563
11
2.60897
21
-6.33001
0
LINE
8
BLACK
6
CONTINUOUS
10
2.74958
20
-6.36938
11
2.74958
21
-6.44812
0
LINE
8
BLACK
6
CONTINUOUS
10
2.72146
20
-6.32438
11
2.69334
21
-6.40875
0
LINE
8
BLACK
6
CONTINUOUS
10
2.69334
20
-6.40875
11
2.76645
21
-6.40875
0
LINE
8
BLACK
6
CONTINUOUS
10
2.8002
20
-6.33001
11
2.87331
21
-6.33001
0
LINE
8
BLACK
6
CONTINUOUS
10
2.87331
20
-6.33001
11
2.83394
21
-6.375
0
LINE
8
BLACK
6
CONTINUOUS
10
2.83394
20
-6.375
11
2.85082
21
-6.375
0
LINE
8
BLACK
6
CONTINUOUS
10
2.85082
20
-6.375
11
2.86206
21
-6.38062
0
LINE
8
BLACK
6
CONTINUOUS
10
2.86206
20
-6.38062
11
2.86769
21
-6.38625
0
LINE
8
BLACK
6
CONTINUOUS
10
2.86769
20
-6.38625
11
2.87331
21
-6.3975
0
LINE
8
BLACK
6
CONTINUOUS
10
2.87331
20
-6.3975
11
2.87331
21
-6.42562
0
LINE
8
BLACK
6
CONTINUOUS
10
2.87331
20
-6.42562
11
2.86769
21
-6.43687
0
LINE
8
BLACK
6
CONTINUOUS
10
2.86769
20
-6.43687
11
2.86206
21
-6.44249
0
LINE
8
BLACK
6
CONTINUOUS
10
2.86206
20
-6.44249
11
2.85082
21
-6.44812
0
LINE
8
BLACK
6
CONTINUOUS
10
2.85082
20
-6.44812
11
2.81707
21
-6.44812
0
LINE
8
BLACK
6
CONTINUOUS
10
2.81707
20
-6.44812
11
2.80582
21
-6.44249
0
LINE
8
BLACK
6
CONTINUOUS
10
2.80582
20
-6.44249
11
2.8002
21
-6.43687
0
LINE
8
BLACK
6
CONTINUOUS
10
2.91268
20
-6.33001
11
2.9858
21
-6.33001
0
LINE
8
BLACK
6
CONTINUOUS
10
2.9858
20
-6.33001
11
2.94643
21
-6.375
0
LINE
8
BLACK
6
CONTINUOUS
10
2.94643
20
-6.375
11
2.9633
21
-6.375
0
LINE
8
BLACK
6
CONTINUOUS
10
2.9633
20
-6.375
11
2.97455
21
-6.38062
0
LINE
8
BLACK
6
CONTINUOUS
10
2.97455
20
-6.38062
11
2.98017
21
-6.38625
0
LINE
8
BLACK
6
CONTINUOUS
10
2.98017
20
-6.38625
11
2.9858
21
-6.3975
0
LINE
8
BLACK
6
CONTINUOUS
10
2.9858
20
-6.3975
11
2.9858
21
-6.42562
0
LINE
8
BLACK
6
CONTINUOUS
10
2.9858
20
-6.42562
11
2.98017
21
-6.43687
0
LINE
8
BLACK
6
CONTINUOUS
10
2.98017
20
-6.43687
11
2.97455
21
-6.44249
0
LINE
8
BLACK
6
CONTINUOUS
10
2.97455
20
-6.44249
11
2.9633
21
-6.44812
0
LINE
8
BLACK
6
CONTINUOUS
10
2.9633
20
-6.44812
11
2.92956
21
-6.44812
0
LINE
8
BLACK
6
CONTINUOUS
10
2.92956
20
-6.44812
11
2.91831
21
-6.44249
0
LINE
8
BLACK
6
CONTINUOUS
10
2.91831
20
-6.44249
11
2.91268
21
-6.43687
0
LINE
8
BLACK
6
CONTINUOUS
10
3.03079
20
-6.33001
11
3.03079
21
-6.3525
0
LINE
8
BLACK
6
CONTINUOUS
10
3.07579
20
-6.33001
11
3.07579
21
-6.3525
0
LINE
8
BLACK
6
CONTINUOUS
10
3.25014
20
-6.49311
11
3.24452
21
-6.48749
0
LINE
8
BLACK
6
CONTINUOUS
10
3.24452
20
-6.48749
11
3.23327
21
-6.47061
0
LINE
8
BLACK
6
CONTINUOUS
10
3.23327
20
-6.47061
11
3.22764
21
-6.45936
0
LINE
8
BLACK
6
CONTINUOUS
10
3.22764
20
-6.45936
11
3.22202
21
-6.44249
0
LINE
8
BLACK
6
CONTINUOUS
10
3.22202
20
-6.44249
11
3.21639
21
-6.41437
0
LINE
8
BLACK
6
CONTINUOUS
10
3.21639
20
-6.41437
11
3.21639
21
-6.39187
0
LINE
8
BLACK
6
CONTINUOUS
10
3.21639
20
-6.39187
11
3.22202
21
-6.36375
0
LINE
8
BLACK
6
CONTINUOUS
10
3.22202
20
-6.36375
11
3.22764
21
-6.34688
0
LINE
8
BLACK
6
CONTINUOUS
10
3.22764
20
-6.34688
11
3.23327
21
-6.33563
0
LINE
8
BLACK
6
CONTINUOUS
10
3.23327
20
-6.33563
11
3.24452
21
-6.31876
0
LINE
8
BLACK
6
CONTINUOUS
10
3.24452
20
-6.31876
11
3.25014
21
-6.31313
0
LINE
8
BLACK
6
CONTINUOUS
10
3.28951
20
-6.34125
11
3.29513
21
-6.33563
0
LINE
8
BLACK
6
CONTINUOUS
10
3.29513
20
-6.33563
11
3.30638
21
-6.33001
0
LINE
8
BLACK
6
CONTINUOUS
10
3.30638
20
-6.33001
11
3.33451
21
-6.33001
0
LINE
8
BLACK
6
CONTINUOUS
10
3.33451
20
-6.33001
11
3.34575
21
-6.33563
0
LINE
8
BLACK
6
CONTINUOUS
10
3.34575
20
-6.33563
11
3.35138
21
-6.34125
0
LINE
8
BLACK
6
CONTINUOUS
10
3.35138
20
-6.34125
11
3.357
21
-6.3525
0
LINE
8
BLACK
6
CONTINUOUS
10
3.357
20
-6.3525
11
3.357
21
-6.36375
0
LINE
8
BLACK
6
CONTINUOUS
10
3.357
20
-6.36375
11
3.35138
21
-6.38062
0
LINE
8
BLACK
6
CONTINUOUS
10
3.35138
20
-6.38062
11
3.28389
21
-6.44812
0
LINE
8
BLACK
6
CONTINUOUS
10
3.28389
20
-6.44812
11
3.357
21
-6.44812
0
LINE
8
BLACK
6
CONTINUOUS
10
3.49761
20
-6.44812
11
3.49761
21
-6.33001
0
LINE
8
BLACK
6
CONTINUOUS
10
3.54823
20
-6.44812
11
3.54823
21
-6.38625
0
LINE
8
BLACK
6
CONTINUOUS
10
3.54823
20
-6.38625
11
3.5426
21
-6.375
0
LINE
8
BLACK
6
CONTINUOUS
10
3.5426
20
-6.375
11
3.53136
21
-6.36938
0
LINE
8
BLACK
6
CONTINUOUS
10
3.53136
20
-6.36938
11
3.51448
21
-6.36938
0
LINE
8
BLACK
6
CONTINUOUS
10
3.51448
20
-6.36938
11
3.50323
21
-6.375
0
LINE
8
BLACK
6
CONTINUOUS
10
3.50323
20
-6.375
11
3.49761
21
-6.38062
0
LINE
8
BLACK
6
CONTINUOUS
10
3.62134
20
-6.44812
11
3.6101
21
-6.44249
0
LINE
8
BLACK
6
CONTINUOUS
10
3.6101
20
-6.44249
11
3.60447
21
-6.43687
0
LINE
8
BLACK
6
CONTINUOUS
10
3.60447
20
-6.43687
11
3.59885
21
-6.42562
0
LINE
8
BLACK
6
CONTINUOUS
10
3.59885
20
-6.42562
11
3.59885
21
-6.39187
0
LINE
8
BLACK
6
CONTINUOUS
10
3.59885
20
-6.39187
11
3.60447
21
-6.38062
0
LINE
8
BLACK
6
CONTINUOUS
10
3.60447
20
-6.38062
11
3.6101
21
-6.375
0
LINE
8
BLACK
6
CONTINUOUS
10
3.6101
20
-6.375
11
3.62134
21
-6.36938
0
LINE
8
BLACK
6
CONTINUOUS
10
3.62134
20
-6.36938
11
3.63822
21
-6.36938
0
LINE
8
BLACK
6
CONTINUOUS
10
3.63822
20
-6.36938
11
3.64947
21
-6.375
0
LINE
8
BLACK
6
CONTINUOUS
10
3.64947
20
-6.375
11
3.65509
21
-6.38062
0
LINE
8
BLACK
6
CONTINUOUS
10
3.65509
20
-6.38062
11
3.66071
21
-6.39187
0
LINE
8
BLACK
6
CONTINUOUS
10
3.66071
20
-6.39187
11
3.66071
21
-6.42562
0
LINE
8
BLACK
6
CONTINUOUS
10
3.66071
20
-6.42562
11
3.65509
21
-6.43687
0
LINE
8
BLACK
6
CONTINUOUS
10
3.65509
20
-6.43687
11
3.64947
21
-6.44249
0
LINE
8
BLACK
6
CONTINUOUS
10
3.64947
20
-6.44249
11
3.63822
21
-6.44812
0
LINE
8
BLACK
6
CONTINUOUS
10
3.63822
20
-6.44812
11
3.62134
21
-6.44812
0
LINE
8
BLACK
6
CONTINUOUS
10
3.72821
20
-6.44812
11
3.71696
21
-6.44249
0
LINE
8
BLACK
6
CONTINUOUS
10
3.71696
20
-6.44249
11
3.71133
21
-6.43124
0
LINE
8
BLACK
6
CONTINUOUS
10
3.71133
20
-6.43124
11
3.71133
21
-6.33001
0
LINE
8
BLACK
6
CONTINUOUS
10
3.81819
20
-6.44249
11
3.80695
21
-6.44812
0
LINE
8
BLACK
6
CONTINUOUS
10
3.80695
20
-6.44812
11
3.78445
21
-6.44812
0
LINE
8
BLACK
6
CONTINUOUS
10
3.78445
20
-6.44812
11
3.7732
21
-6.44249
0
LINE
8
BLACK
6
CONTINUOUS
10
3.7732
20
-6.44249
11
3.76758
21
-6.43124
0
LINE
8
BLACK
6
CONTINUOUS
10
3.76758
20
-6.43124
11
3.76758
21
-6.38625
0
LINE
8
BLACK
6
CONTINUOUS
10
3.76758
20
-6.38625
11
3.7732
21
-6.375
0
LINE
8
BLACK
6
CONTINUOUS
10
3.7732
20
-6.375
11
3.78445
21
-6.36938
0
LINE
8
BLACK
6
CONTINUOUS
10
3.78445
20
-6.36938
11
3.80695
21
-6.36938
0
LINE
8
BLACK
6
CONTINUOUS
10
3.80695
20
-6.36938
11
3.81819
21
-6.375
0
LINE
8
BLACK
6
CONTINUOUS
10
3.81819
20
-6.375
11
3.82382
21
-6.38625
0
LINE
8
BLACK
6
CONTINUOUS
10
3.82382
20
-6.38625
11
3.82382
21
-6.3975
0
LINE
8
BLACK
6
CONTINUOUS
10
3.82382
20
-6.3975
11
3.76758
21
-6.40875
0
LINE
8
BLACK
6
CONTINUOUS
10
3.86881
20
-6.44249
11
3.88006
21
-6.44812
0
LINE
8
BLACK
6
CONTINUOUS
10
3.88006
20
-6.44812
11
3.90256
21
-6.44812
0
LINE
8
BLACK
6
CONTINUOUS
10
3.90256
20
-6.44812
11
3.91381
21
-6.44249
0
LINE
8
BLACK
6
CONTINUOUS
10
3.91381
20
-6.44249
11
3.91943
21
-6.43124
0
LINE
8
BLACK
6
CONTINUOUS
10
3.91943
20
-6.43124
11
3.91943
21
-6.42562
0
LINE
8
BLACK
6
CONTINUOUS
10
3.91943
20
-6.42562
11
3.91381
21
-6.41437
0
LINE
8
BLACK
6
CONTINUOUS
10
3.91381
20
-6.41437
11
3.90256
21
-6.40875
0
LINE
8
BLACK
6
CONTINUOUS
10
3.90256
20
-6.40875
11
3.88569
21
-6.40875
0
LINE
8
BLACK
6
CONTINUOUS
10
3.88569
20
-6.40875
11
3.87444
21
-6.40312
0
LINE
8
BLACK
6
CONTINUOUS
10
3.87444
20
-6.40312
11
3.86881
21
-6.39187
0
LINE
8
BLACK
6
CONTINUOUS
10
3.86881
20
-6.39187
11
3.86881
21
-6.38625
0
LINE
8
BLACK
6
CONTINUOUS
10
3.86881
20
-6.38625
11
3.87444
21
-6.375
0
LINE
8
BLACK
6
CONTINUOUS
10
3.87444
20
-6.375
11
3.88569
21
-6.36938
0
LINE
8
BLACK
6
CONTINUOUS
10
3.88569
20
-6.36938
11
3.90256
21
-6.36938
0
LINE
8
BLACK
6
CONTINUOUS
10
3.90256
20
-6.36938
11
3.91381
21
-6.375
0
LINE
8
BLACK
6
CONTINUOUS
10
3.9588
20
-6.49311
11
3.96443
21
-6.48749
0
LINE
8
BLACK
6
CONTINUOUS
10
3.96443
20
-6.48749
11
3.97567
21
-6.47061
0
LINE
8
BLACK
6
CONTINUOUS
10
3.97567
20
-6.47061
11
3.9813
21
-6.45936
0
LINE
8
BLACK
6
CONTINUOUS
10
3.9813
20
-6.45936
11
3.98692
21
-6.44249
0
LINE
8
BLACK
6
CONTINUOUS
10
3.98692
20
-6.44249
11
3.99255
21
-6.41437
0
LINE
8
BLACK
6
CONTINUOUS
10
3.99255
20
-6.41437
11
3.99255
21
-6.39187
0
LINE
8
BLACK
6
CONTINUOUS
10
3.99255
20
-6.39187
11
3.98692
21
-6.36375
0
LINE
8
BLACK
6
CONTINUOUS
10
3.98692
20
-6.36375
11
3.9813
21
-6.34688
0
LINE
8
BLACK
6
CONTINUOUS
10
3.9813
20
-6.34688
11
3.97567
21
-6.33563
0
LINE
8
BLACK
6
CONTINUOUS
10
3.97567
20
-6.33563
11
3.96443
21
-6.31876
0
LINE
8
BLACK
6
CONTINUOUS
10
3.96443
20
-6.31876
11
3.9588
21
-6.31313
0
LINE
8
BLACK
6
CONTINUOUS
10
1.13287
20
-6.52697
11
1.18012
21
-6.57421
0
LINE
8
BLACK
6
CONTINUOUS
10
1.18012
20
-6.52697
11
1.13287
21
-6.57421
0
LINE
8
BLACK
6
CONTINUOUS
10
1.1565
20
-6.52697
11
1.1565
21
-6.57421
0
LINE
8
BLACK
6
CONTINUOUS
10
1.13287
20
-6.55059
11
1.18012
21
-6.55059
0
LINE
8
BLACK
6
CONTINUOUS
10
1.35475
20
-6.60402
11
1.28726
21
-6.60402
0
LINE
8
BLACK
6
CONTINUOUS
10
1.32101
20
-6.60402
11
1.32101
21
-6.48591
0
LINE
8
BLACK
6
CONTINUOUS
10
1.32101
20
-6.48591
11
1.30976
21
-6.50278
0
LINE
8
BLACK
6
CONTINUOUS
10
1.30976
20
-6.50278
11
1.29851
21
-6.51403
0
LINE
8
BLACK
6
CONTINUOUS
10
1.29851
20
-6.51403
11
1.28726
21
-6.51966
0
LINE
8
BLACK
6
CONTINUOUS
10
1.40537
20
-6.59277
11
1.411
21
-6.5984
0
LINE
8
BLACK
6
CONTINUOUS
10
1.411
20
-6.5984
11
1.40537
21
-6.60402
0
LINE
8
BLACK
6
CONTINUOUS
10
1.40537
20
-6.60402
11
1.39975
21
-6.5984
0
LINE
8
BLACK
6
CONTINUOUS
10
1.39975
20
-6.5984
11
1.40537
21
-6.59277
0
LINE
8
BLACK
6
CONTINUOUS
10
1.40537
20
-6.59277
11
1.40537
21
-6.60402
0
LINE
8
BLACK
6
CONTINUOUS
10
1.45599
20
-6.49716
11
1.46161
21
-6.49154
0
LINE
8
BLACK
6
CONTINUOUS
10
1.46161
20
-6.49154
11
1.47286
21
-6.48591
0
LINE
8
BLACK
6
CONTINUOUS
10
1.47286
20
-6.48591
11
1.50098
21
-6.48591
0
LINE
8
BLACK
6
CONTINUOUS
10
1.50098
20
-6.48591
11
1.51223
21
-6.49154
0
LINE
8
BLACK
6
CONTINUOUS
10
1.51223
20
-6.49154
11
1.51786
21
-6.49716
0
LINE
8
BLACK
6
CONTINUOUS
10
1.51786
20
-6.49716
11
1.52348
21
-6.50841
0
LINE
8
BLACK
6
CONTINUOUS
10
1.52348
20
-6.50841
11
1.52348
21
-6.51966
0
LINE
8
BLACK
6
CONTINUOUS
10
1.52348
20
-6.51966
11
1.51786
21
-6.53653
0
LINE
8
BLACK
6
CONTINUOUS
10
1.51786
20
-6.53653
11
1.45037
21
-6.60402
0
LINE
8
BLACK
6
CONTINUOUS
10
1.45037
20
-6.60402
11
1.52348
21
-6.60402
0
LINE
8
BLACK
6
CONTINUOUS
10
1.5966
20
-6.48591
11
1.60785
21
-6.48591
0
LINE
8
BLACK
6
CONTINUOUS
10
1.60785
20
-6.48591
11
1.61909
21
-6.49154
0
LINE
8
BLACK
6
CONTINUOUS
10
1.61909
20
-6.49154
11
1.62472
21
-6.49716
0
LINE
8
BLACK
6
CONTINUOUS
10
1.62472
20
-6.49716
11
1.63034
21
-6.50841
0
LINE
8
BLACK
6
CONTINUOUS
10
1.63034
20
-6.50841
11
1.63597
21
-6.53091
0
LINE
8
BLACK
6
CONTINUOUS
10
1.63597
20
-6.53091
11
1.63597
21
-6.55903
0
LINE
8
BLACK
6
CONTINUOUS
10
1.63597
20
-6.55903
11
1.63034
21
-6.58152
0
LINE
8
BLACK
6
CONTINUOUS
10
1.63034
20
-6.58152
11
1.62472
21
-6.59277
0
LINE
8
BLACK
6
CONTINUOUS
10
1.62472
20
-6.59277
11
1.61909
21
-6.5984
0
LINE
8
BLACK
6
CONTINUOUS
10
1.61909
20
-6.5984
11
1.60785
21
-6.60402
0
LINE
8
BLACK
6
CONTINUOUS
10
1.60785
20
-6.60402
11
1.5966
21
-6.60402
0
LINE
8
BLACK
6
CONTINUOUS
10
1.5966
20
-6.60402
11
1.58535
21
-6.5984
0
LINE
8
BLACK
6
CONTINUOUS
10
1.58535
20
-6.5984
11
1.57972
21
-6.59277
0
LINE
8
BLACK
6
CONTINUOUS
10
1.57972
20
-6.59277
11
1.5741
21
-6.58152
0
LINE
8
BLACK
6
CONTINUOUS
10
1.5741
20
-6.58152
11
1.56848
21
-6.55903
0
LINE
8
BLACK
6
CONTINUOUS
10
1.56848
20
-6.55903
11
1.56848
21
-6.53091
0
LINE
8
BLACK
6
CONTINUOUS
10
1.56848
20
-6.53091
11
1.5741
21
-6.50841
0
LINE
8
BLACK
6
CONTINUOUS
10
1.5741
20
-6.50841
11
1.57972
21
-6.49716
0
LINE
8
BLACK
6
CONTINUOUS
10
1.57972
20
-6.49716
11
1.58535
21
-6.49154
0
LINE
8
BLACK
6
CONTINUOUS
10
1.58535
20
-6.49154
11
1.5966
21
-6.48591
0
LINE
8
BLACK
6
CONTINUOUS
10
1.70908
20
-6.48591
11
1.72033
21
-6.48591
0
LINE
8
BLACK
6
CONTINUOUS
10
1.72033
20
-6.48591
11
1.73158
21
-6.49154
0
LINE
8
BLACK
6
CONTINUOUS
10
1.73158
20
-6.49154
11
1.7372
21
-6.49716
0
LINE
8
BLACK
6
CONTINUOUS
10
1.7372
20
-6.49716
11
1.74283
21
-6.50841
0
LINE
8
BLACK
6
CONTINUOUS
10
1.74283
20
-6.50841
11
1.74845
21
-6.53091
0
LINE
8
BLACK
6
CONTINUOUS
10
1.74845
20
-6.53091
11
1.74845
21
-6.55903
0
LINE
8
BLACK
6
CONTINUOUS
10
1.74845
20
-6.55903
11
1.74283
21
-6.58152
0
LINE
8
BLACK
6
CONTINUOUS
10
1.74283
20
-6.58152
11
1.7372
21
-6.59277
0
LINE
8
BLACK
6
CONTINUOUS
10
1.7372
20
-6.59277
11
1.73158
21
-6.5984
0
LINE
8
BLACK
6
CONTINUOUS
10
1.73158
20
-6.5984
11
1.72033
21
-6.60402
0
LINE
8
BLACK
6
CONTINUOUS
10
1.72033
20
-6.60402
11
1.70908
21
-6.60402
0
LINE
8
BLACK
6
CONTINUOUS
10
1.70908
20
-6.60402
11
1.69783
21
-6.5984
0
LINE
8
BLACK
6
CONTINUOUS
10
1.69783
20
-6.5984
11
1.69221
21
-6.59277
0
LINE
8
BLACK
6
CONTINUOUS
10
1.69221
20
-6.59277
11
1.68659
21
-6.58152
0
LINE
8
BLACK
6
CONTINUOUS
10
1.68659
20
-6.58152
11
1.68096
21
-6.55903
0
LINE
8
BLACK
6
CONTINUOUS
10
1.68096
20
-6.55903
11
1.68096
21
-6.53091
0
LINE
8
BLACK
6
CONTINUOUS
10
1.68096
20
-6.53091
11
1.68659
21
-6.50841
0
LINE
8
BLACK
6
CONTINUOUS
10
1.68659
20
-6.50841
11
1.69221
21
-6.49716
0
LINE
8
BLACK
6
CONTINUOUS
10
1.69221
20
-6.49716
11
1.69783
21
-6.49154
0
LINE
8
BLACK
6
CONTINUOUS
10
1.69783
20
-6.49154
11
1.70908
21
-6.48591
0
LINE
8
BLACK
6
CONTINUOUS
10
1.79907
20
-6.60402
11
1.79907
21
-6.52528
0
LINE
8
BLACK
6
CONTINUOUS
10
1.79907
20
-6.53653
11
1.8047
21
-6.53091
0
LINE
8
BLACK
6
CONTINUOUS
10
1.8047
20
-6.53091
11
1.81594
21
-6.52528
0
LINE
8
BLACK
6
CONTINUOUS
10
1.81594
20
-6.52528
11
1.83282
21
-6.52528
0
LINE
8
BLACK
6
CONTINUOUS
10
1.83282
20
-6.52528
11
1.84407
21
-6.53091
0
LINE
8
BLACK
6
CONTINUOUS
10
1.84407
20
-6.53091
11
1.84969
21
-6.54215
0
LINE
8
BLACK
6
CONTINUOUS
10
1.84969
20
-6.54215
11
1.84969
21
-6.60402
0
LINE
8
BLACK
6
CONTINUOUS
10
1.84969
20
-6.54215
11
1.85531
21
-6.53091
0
LINE
8
BLACK
6
CONTINUOUS
10
1.85531
20
-6.53091
11
1.86656
21
-6.52528
0
LINE
8
BLACK
6
CONTINUOUS
10
1.86656
20
-6.52528
11
1.88344
21
-6.52528
0
LINE
8
BLACK
6
CONTINUOUS
10
1.88344
20
-6.52528
11
1.89468
21
-6.53091
0
LINE
8
BLACK
6
CONTINUOUS
10
1.89468
20
-6.53091
11
1.90031
21
-6.54215
0
LINE
8
BLACK
6
CONTINUOUS
10
1.90031
20
-6.54215
11
1.90031
21
-6.60402
0
LINE
8
BLACK
6
CONTINUOUS
10
1.95655
20
-6.60402
11
1.95655
21
-6.52528
0
LINE
8
BLACK
6
CONTINUOUS
10
1.95655
20
-6.53653
11
1.96218
21
-6.53091
0
LINE
8
BLACK
6
CONTINUOUS
10
1.96218
20
-6.53091
11
1.97343
21
-6.52528
0
LINE
8
BLACK
6
CONTINUOUS
10
1.97343
20
-6.52528
11
1.9903
21
-6.52528
0
LINE
8
BLACK
6
CONTINUOUS
10
1.9903
20
-6.52528
11
2.00155
21
-6.53091
0
LINE
8
BLACK
6
CONTINUOUS
10
2.00155
20
-6.53091
11
2.00717
21
-6.54215
0
LINE
8
BLACK
6
CONTINUOUS
10
2.00717
20
-6.54215
11
2.00717
21
-6.60402
0
LINE
8
BLACK
6
CONTINUOUS
10
2.00717
20
-6.54215
11
2.0128
21
-6.53091
0
LINE
8
BLACK
6
CONTINUOUS
10
2.0128
20
-6.53091
11
2.02404
21
-6.52528
0
LINE
8
BLACK
6
CONTINUOUS
10
2.02404
20
-6.52528
11
2.04092
21
-6.52528
0
LINE
8
BLACK
6
CONTINUOUS
10
2.04092
20
-6.52528
11
2.05217
21
-6.53091
0
LINE
8
BLACK
6
CONTINUOUS
10
2.05217
20
-6.53091
11
2.05779
21
-6.54215
0
LINE
8
BLACK
6
CONTINUOUS
10
2.05779
20
-6.54215
11
2.05779
21
-6.60402
0
LINE
8
BLACK
6
CONTINUOUS
10
2.28839
20
-6.48029
11
2.18715
21
-6.63214
0
LINE
8
BLACK
6
CONTINUOUS
10
2.44024
20
-6.48591
11
2.45149
21
-6.48591
0
LINE
8
BLACK
6
CONTINUOUS
10
2.45149
20
-6.48591
11
2.46274
21
-6.49154
0
LINE
8
BLACK
6
CONTINUOUS
10
2.46274
20
-6.49154
11
2.46836
21
-6.49716
0
LINE
8
BLACK
6
CONTINUOUS
10
2.46836
20
-6.49716
11
2.47399
21
-6.50841
0
LINE
8
BLACK
6
CONTINUOUS
10
2.47399
20
-6.50841
11
2.47961
21
-6.53091
0
LINE
8
BLACK
6
CONTINUOUS
10
2.47961
20
-6.53091
11
2.47961
21
-6.55903
0
LINE
8
BLACK
6
CONTINUOUS
10
2.47961
20
-6.55903
11
2.47399
21
-6.58152
0
LINE
8
BLACK
6
CONTINUOUS
10
2.47399
20
-6.58152
11
2.46836
21
-6.59277
0
LINE
8
BLACK
6
CONTINUOUS
10
2.46836
20
-6.59277
11
2.46274
21
-6.5984
0
LINE
8
BLACK
6
CONTINUOUS
10
2.46274
20
-6.5984
11
2.45149
21
-6.60402
0
LINE
8
BLACK
6
CONTINUOUS
10
2.45149
20
-6.60402
11
2.44024
21
-6.60402
0
LINE
8
BLACK
6
CONTINUOUS
10
2.44024
20
-6.60402
11
2.42899
21
-6.5984
0
LINE
8
BLACK
6
CONTINUOUS
10
2.42899
20
-6.5984
11
2.42337
21
-6.59277
0
LINE
8
BLACK
6
CONTINUOUS
10
2.42337
20
-6.59277
11
2.41774
21
-6.58152
0
LINE
8
BLACK
6
CONTINUOUS
10
2.41774
20
-6.58152
11
2.41212
21
-6.55903
0
LINE
8
BLACK
6
CONTINUOUS
10
2.41212
20
-6.55903
11
2.41212
21
-6.53091
0
LINE
8
BLACK
6
CONTINUOUS
10
2.41212
20
-6.53091
11
2.41774
21
-6.50841
0
LINE
8
BLACK
6
CONTINUOUS
10
2.41774
20
-6.50841
11
2.42337
21
-6.49716
0
LINE
8
BLACK
6
CONTINUOUS
10
2.42337
20
-6.49716
11
2.42899
21
-6.49154
0
LINE
8
BLACK
6
CONTINUOUS
10
2.42899
20
-6.49154
11
2.44024
21
-6.48591
0
LINE
8
BLACK
6
CONTINUOUS
10
2.53023
20
-6.59277
11
2.53585
21
-6.5984
0
LINE
8
BLACK
6
CONTINUOUS
10
2.53585
20
-6.5984
11
2.53023
21
-6.60402
0
LINE
8
BLACK
6
CONTINUOUS
10
2.53023
20
-6.60402
11
2.52461
21
-6.5984
0
LINE
8
BLACK
6
CONTINUOUS
10
2.52461
20
-6.5984
11
2.53023
21
-6.59277
0
LINE
8
BLACK
6
CONTINUOUS
10
2.53023
20
-6.59277
11
2.53023
21
-6.60402
0
LINE
8
BLACK
6
CONTINUOUS
10
2.60897
20
-6.48591
11
2.62022
21
-6.48591
0
LINE
8
BLACK
6
CONTINUOUS
10
2.62022
20
-6.48591
11
2.63147
21
-6.49154
0
LINE
8
BLACK
6
CONTINUOUS
10
2.63147
20
-6.49154
11
2.63709
21
-6.49716
0
LINE
8
BLACK
6
CONTINUOUS
10
2.63709
20
-6.49716
11
2.64272
21
-6.50841
0
LINE
8
BLACK
6
CONTINUOUS
10
2.64272
20
-6.50841
11
2.64834
21
-6.53091
0
LINE
8
BLACK
6
CONTINUOUS
10
2.64834
20
-6.53091
11
2.64834
21
-6.55903
0
LINE
8
BLACK
6
CONTINUOUS
10
2.64834
20
-6.55903
11
2.64272
21
-6.58152
0
LINE
8
BLACK
6
CONTINUOUS
10
2.64272
20
-6.58152
11
2.63709
21
-6.59277
0
LINE
8
BLACK
6
CONTINUOUS
10
2.63709
20
-6.59277
11
2.63147
21
-6.5984
0
LINE
8
BLACK
6
CONTINUOUS
10
2.63147
20
-6.5984
11
2.62022
21
-6.60402
0
LINE
8
BLACK
6
CONTINUOUS
10
2.62022
20
-6.60402
11
2.60897
21
-6.60402
0
LINE
8
BLACK
6
CONTINUOUS
10
2.60897
20
-6.60402
11
2.59772
21
-6.5984
0
LINE
8
BLACK
6
CONTINUOUS
10
2.59772
20
-6.5984
11
2.5921
21
-6.59277
0
LINE
8
BLACK
6
CONTINUOUS
10
2.5921
20
-6.59277
11
2.58647
21
-6.58152
0
LINE
8
BLACK
6
CONTINUOUS
10
2.58647
20
-6.58152
11
2.58085
21
-6.55903
0
LINE
8
BLACK
6
CONTINUOUS
10
2.58085
20
-6.55903
11
2.58085
21
-6.53091
0
LINE
8
BLACK
6
CONTINUOUS
10
2.58085
20
-6.53091
11
2.58647
21
-6.50841
0
LINE
8
BLACK
6
CONTINUOUS
10
2.58647
20
-6.50841
11
2.5921
21
-6.49716
0
LINE
8
BLACK
6
CONTINUOUS
10
2.5921
20
-6.49716
11
2.59772
21
-6.49154
0
LINE
8
BLACK
6
CONTINUOUS
10
2.59772
20
-6.49154
11
2.60897
21
-6.48591
0
LINE
8
BLACK
6
CONTINUOUS
10
2.74958
20
-6.52528
11
2.74958
21
-6.60402
0
LINE
8
BLACK
6
CONTINUOUS
10
2.72146
20
-6.48029
11
2.69334
21
-6.56465
0
LINE
8
BLACK
6
CONTINUOUS
10
2.69334
20
-6.56465
11
2.76645
21
-6.56465
0
LINE
8
BLACK
6
CONTINUOUS
10
2.8002
20
-6.48591
11
2.87894
21
-6.48591
0
LINE
8
BLACK
6
CONTINUOUS
10
2.87894
20
-6.48591
11
2.82832
21
-6.60402
0
LINE
8
BLACK
6
CONTINUOUS
10
2.91831
20
-6.49716
11
2.92393
21
-6.49154
0
LINE
8
BLACK
6
CONTINUOUS
10
2.92393
20
-6.49154
11
2.93518
21
-6.48591
0
LINE
8
BLACK
6
CONTINUOUS
10
2.93518
20
-6.48591
11
2.9633
21
-6.48591
0
LINE
8
BLACK
6
CONTINUOUS
10
2.9633
20
-6.48591
11
2.97455
21
-6.49154
0
LINE
8
BLACK
6
CONTINUOUS
10
2.97455
20
-6.49154
11
2.98017
21
-6.49716
0
LINE
8
BLACK
6
CONTINUOUS
10
2.98017
20
-6.49716
11
2.9858
21
-6.50841
0
LINE
8
BLACK
6
CONTINUOUS
10
2.9858
20
-6.50841
11
2.9858
21
-6.51966
0
LINE
8
BLACK
6
CONTINUOUS
10
2.9858
20
-6.51966
11
2.98017
21
-6.53653
0
LINE
8
BLACK
6
CONTINUOUS
10
2.98017
20
-6.53653
11
2.91268
21
-6.60402
0
LINE
8
BLACK
6
CONTINUOUS
10
2.91268
20
-6.60402
11
2.9858
21
-6.60402
0
LINE
8
BLACK
6
CONTINUOUS
10
3.03079
20
-6.48591
11
3.03079
21
-6.50841
0
LINE
8
BLACK
6
CONTINUOUS
10
3.07579
20
-6.48591
11
3.07579
21
-6.50841
0
LINE
8
BLACK
6
CONTINUOUS
10
3.25014
20
-6.64902
11
3.24452
21
-6.64339
0
LINE
8
BLACK
6
CONTINUOUS
10
3.24452
20
-6.64339
11
3.23327
21
-6.62652
0
LINE
8
BLACK
6
CONTINUOUS
10
3.23327
20
-6.62652
11
3.22764
21
-6.61527
0
LINE
8
BLACK
6
CONTINUOUS
10
3.22764
20
-6.61527
11
3.22202
21
-6.5984
0
LINE
8
BLACK
6
CONTINUOUS
10
3.22202
20
-6.5984
11
3.21639
21
-6.57028
0
LINE
8
BLACK
6
CONTINUOUS
10
3.21639
20
-6.57028
11
3.21639
21
-6.54778
0
LINE
8
BLACK
6
CONTINUOUS
10
3.21639
20
-6.54778
11
3.22202
21
-6.51966
0
LINE
8
BLACK
6
CONTINUOUS
10
3.22202
20
-6.51966
11
3.22764
21
-6.50278
0
LINE
8
BLACK
6
CONTINUOUS
10
3.22764
20
-6.50278
11
3.23327
21
-6.49154
0
LINE
8
BLACK
6
CONTINUOUS
10
3.23327
20
-6.49154
11
3.24452
21
-6.47466
0
LINE
8
BLACK
6
CONTINUOUS
10
3.24452
20
-6.47466
11
3.25014
21
-6.46904
0
LINE
8
BLACK
6
CONTINUOUS
10
3.34575
20
-6.52528
11
3.34575
21
-6.60402
0
LINE
8
BLACK
6
CONTINUOUS
10
3.31763
20
-6.48029
11
3.28951
21
-6.56465
0
LINE
8
BLACK
6
CONTINUOUS
10
3.28951
20
-6.56465
11
3.36263
21
-6.56465
0
LINE
8
BLACK
6
CONTINUOUS
10
3.49761
20
-6.60402
11
3.49761
21
-6.48591
0
LINE
8
BLACK
6
CONTINUOUS
10
3.54823
20
-6.60402
11
3.54823
21
-6.54215
0
LINE
8
BLACK
6
CONTINUOUS
10
3.54823
20
-6.54215
11
3.5426
21
-6.53091
0
LINE
8
BLACK
6
CONTINUOUS
10
3.5426
20
-6.53091
11
3.53136
21
-6.52528
0
LINE
8
BLACK
6
CONTINUOUS
10
3.53136
20
-6.52528
11
3.51448
21
-6.52528
0
LINE
8
BLACK
6
CONTINUOUS
10
3.51448
20
-6.52528
11
3.50323
21
-6.53091
0
LINE
8
BLACK
6
CONTINUOUS
10
3.50323
20
-6.53091
11
3.49761
21
-6.53653
0
LINE
8
BLACK
6
CONTINUOUS
10
3.62134
20
-6.60402
11
3.6101
21
-6.5984
0
LINE
8
BLACK
6
CONTINUOUS
10
3.6101
20
-6.5984
11
3.60447
21
-6.59277
0
LINE
8
BLACK
6
CONTINUOUS
10
3.60447
20
-6.59277
11
3.59885
21
-6.58152
0
LINE
8
BLACK
6
CONTINUOUS
10
3.59885
20
-6.58152
11
3.59885
21
-6.54778
0
LINE
8
BLACK
6
CONTINUOUS
10
3.59885
20
-6.54778
11
3.60447
21
-6.53653
0
LINE
8
BLACK
6
CONTINUOUS
10
3.60447
20
-6.53653
11
3.6101
21
-6.53091
0
LINE
8
BLACK
6
CONTINUOUS
10
3.6101
20
-6.53091
11
3.62134
21
-6.52528
0
LINE
8
BLACK
6
CONTINUOUS
10
3.62134
20
-6.52528
11
3.63822
21
-6.52528
0
LINE
8
BLACK
6
CONTINUOUS
10
3.63822
20
-6.52528
11
3.64947
21
-6.53091
0
LINE
8
BLACK
6
CONTINUOUS
10
3.64947
20
-6.53091
11
3.65509
21
-6.53653
0
LINE
8
BLACK
6
CONTINUOUS
10
3.65509
20
-6.53653
11
3.66071
21
-6.54778
0
LINE
8
BLACK
6
CONTINUOUS
10
3.66071
20
-6.54778
11
3.66071
21
-6.58152
0
LINE
8
BLACK
6
CONTINUOUS
10
3.66071
20
-6.58152
11
3.65509
21
-6.59277
0
LINE
8
BLACK
6
CONTINUOUS
10
3.65509
20
-6.59277
11
3.64947
21
-6.5984
0
LINE
8
BLACK
6
CONTINUOUS
10
3.64947
20
-6.5984
11
3.63822
21
-6.60402
0
LINE
8
BLACK
6
CONTINUOUS
10
3.63822
20
-6.60402
11
3.62134
21
-6.60402
0
LINE
8
BLACK
6
CONTINUOUS
10
3.72821
20
-6.60402
11
3.71696
21
-6.5984
0
LINE
8
BLACK
6
CONTINUOUS
10
3.71696
20
-6.5984
11
3.71133
21
-6.58715
0
LINE
8
BLACK
6
CONTINUOUS
10
3.71133
20
-6.58715
11
3.71133
21
-6.48591
0
LINE
8
BLACK
6
CONTINUOUS
10
3.81819
20
-6.5984
11
3.80695
21
-6.60402
0
LINE
8
BLACK
6
CONTINUOUS
10
3.80695
20
-6.60402
11
3.78445
21
-6.60402
0
LINE
8
BLACK
6
CONTINUOUS
10
3.78445
20
-6.60402
11
3.7732
21
-6.5984
0
LINE
8
BLACK
6
CONTINUOUS
10
3.7732
20
-6.5984
11
3.76758
21
-6.58715
0
LINE
8
BLACK
6
CONTINUOUS
10
3.76758
20
-6.58715
11
3.76758
21
-6.54215
0
LINE
8
BLACK
6
CONTINUOUS
10
3.76758
20
-6.54215
11
3.7732
21
-6.53091
0
LINE
8
BLACK
6
CONTINUOUS
10
3.7732
20
-6.53091
11
3.78445
21
-6.52528
0
LINE
8
BLACK
6
CONTINUOUS
10
3.78445
20
-6.52528
11
3.80695
21
-6.52528
0
LINE
8
BLACK
6
CONTINUOUS
10
3.80695
20
-6.52528
11
3.81819
21
-6.53091
0
LINE
8
BLACK
6
CONTINUOUS
10
3.81819
20
-6.53091
11
3.82382
21
-6.54215
0
LINE
8
BLACK
6
CONTINUOUS
10
3.82382
20
-6.54215
11
3.82382
21
-6.5534
0
LINE
8
BLACK
6
CONTINUOUS
10
3.82382
20
-6.5534
11
3.76758
21
-6.56465
0
LINE
8
BLACK
6
CONTINUOUS
10
3.86881
20
-6.5984
11
3.88006
21
-6.60402
0
LINE
8
BLACK
6
CONTINUOUS
10
3.88006
20
-6.60402
11
3.90256
21
-6.60402
0
LINE
8
BLACK
6
CONTINUOUS
10
3.90256
20
-6.60402
11
3.91381
21
-6.5984
0
LINE
8
BLACK
6
CONTINUOUS
10
3.91381
20
-6.5984
11
3.91943
21
-6.58715
0
LINE
8
BLACK
6
CONTINUOUS
10
3.91943
20
-6.58715
11
3.91943
21
-6.58152
0
LINE
8
BLACK
6
CONTINUOUS
10
3.91943
20
-6.58152
11
3.91381
21
-6.57028
0
LINE
8
BLACK
6
CONTINUOUS
10
3.91381
20
-6.57028
11
3.90256
21
-6.56465
0
LINE
8
BLACK
6
CONTINUOUS
10
3.90256
20
-6.56465
11
3.88569
21
-6.56465
0
LINE
8
BLACK
6
CONTINUOUS
10
3.88569
20
-6.56465
11
3.87444
21
-6.55903
0
LINE
8
BLACK
6
CONTINUOUS
10
3.87444
20
-6.55903
11
3.86881
21
-6.54778
0
LINE
8
BLACK
6
CONTINUOUS
10
3.86881
20
-6.54778
11
3.86881
21
-6.54215
0
LINE
8
BLACK
6
CONTINUOUS
10
3.86881
20
-6.54215
11
3.87444
21
-6.53091
0
LINE
8
BLACK
6
CONTINUOUS
10
3.87444
20
-6.53091
11
3.88569
21
-6.52528
0
LINE
8
BLACK
6
CONTINUOUS
10
3.88569
20
-6.52528
11
3.90256
21
-6.52528
0
LINE
8
BLACK
6
CONTINUOUS
10
3.90256
20
-6.52528
11
3.91381
21
-6.53091
0
LINE
8
BLACK
6
CONTINUOUS
10
3.9588
20
-6.64902
11
3.96443
21
-6.64339
0
LINE
8
BLACK
6
CONTINUOUS
10
3.96443
20
-6.64339
11
3.97567
21
-6.62652
0
LINE
8
BLACK
6
CONTINUOUS
10
3.97567
20
-6.62652
11
3.9813
21
-6.61527
0
LINE
8
BLACK
6
CONTINUOUS
10
3.9813
20
-6.61527
11
3.98692
21
-6.5984
0
LINE
8
BLACK
6
CONTINUOUS
10
3.98692
20
-6.5984
11
3.99255
21
-6.57028
0
LINE
8
BLACK
6
CONTINUOUS
10
3.99255
20
-6.57028
11
3.99255
21
-6.54778
0
LINE
8
BLACK
6
CONTINUOUS
10
3.99255
20
-6.54778
11
3.98692
21
-6.51966
0
LINE
8
BLACK
6
CONTINUOUS
10
3.98692
20
-6.51966
11
3.9813
21
-6.50278
0
LINE
8
BLACK
6
CONTINUOUS
10
3.9813
20
-6.50278
11
3.97567
21
-6.49154
0
LINE
8
BLACK
6
CONTINUOUS
10
3.97567
20
-6.49154
11
3.96443
21
-6.47466
0
LINE
8
BLACK
6
CONTINUOUS
10
3.96443
20
-6.47466
11
3.9588
21
-6.46904
0
LINE
8
BLACK
6
CONTINUOUS
10
1.05413
20
-6.6435
11
1.18012
21
-6.76949
0
LINE
8
BLACK
6
CONTINUOUS
10
1.18012
20
-6.6435
11
1.05413
21
-6.76949
0
LINE
8
BLACK
6
CONTINUOUS
10
1.16167
20
-6.75104
11
1.16167
21
-6.66195
0
LINE
8
BLACK
6
CONTINUOUS
10
1.16167
20
-6.66195
11
1.07258
21
-6.66195
0
LINE
8
BLACK
6
CONTINUOUS
10
1.07258
20
-6.66195
11
1.07258
21
-6.75104
0
LINE
8
BLACK
6
CONTINUOUS
10
1.07258
20
-6.75104
11
1.16167
21
-6.75104
0
LINE
8
BLACK
6
CONTINUOUS
10
1.28164
20
-6.64182
11
1.35475
21
-6.64182
0
LINE
8
BLACK
6
CONTINUOUS
10
1.35475
20
-6.64182
11
1.31538
21
-6.68681
0
LINE
8
BLACK
6
CONTINUOUS
10
1.31538
20
-6.68681
11
1.33226
21
-6.68681
0
LINE
8
BLACK
6
CONTINUOUS
10
1.33226
20
-6.68681
11
1.3435
21
-6.69244
0
LINE
8
BLACK
6
CONTINUOUS
10
1.3435
20
-6.69244
11
1.34913
21
-6.69806
0
LINE
8
BLACK
6
CONTINUOUS
10
1.34913
20
-6.69806
11
1.35475
21
-6.70931
0
LINE
8
BLACK
6
CONTINUOUS
10
1.35475
20
-6.70931
11
1.35475
21
-6.73743
0
LINE
8
BLACK
6
CONTINUOUS
10
1.35475
20
-6.73743
11
1.34913
21
-6.74868
0
LINE
8
BLACK
6
CONTINUOUS
10
1.34913
20
-6.74868
11
1.3435
21
-6.7543
0
LINE
8
BLACK
6
CONTINUOUS
10
1.3435
20
-6.7543
11
1.33226
21
-6.75993
0
LINE
8
BLACK
6
CONTINUOUS
10
1.33226
20
-6.75993
11
1.29851
21
-6.75993
0
LINE
8
BLACK
6
CONTINUOUS
10
1.29851
20
-6.75993
11
1.28726
21
-6.7543
0
LINE
8
BLACK
6
CONTINUOUS
10
1.28726
20
-6.7543
11
1.28164
21
-6.74868
0
LINE
8
BLACK
6
CONTINUOUS
10
1.40537
20
-6.74868
11
1.411
21
-6.7543
0
LINE
8
BLACK
6
CONTINUOUS
10
1.411
20
-6.7543
11
1.40537
21
-6.75993
0
LINE
8
BLACK
6
CONTINUOUS
10
1.40537
20
-6.75993
11
1.39975
21
-6.7543
0
LINE
8
BLACK
6
CONTINUOUS
10
1.39975
20
-6.7543
11
1.40537
21
-6.74868
0
LINE
8
BLACK
6
CONTINUOUS
10
1.40537
20
-6.74868
11
1.40537
21
-6.75993
0
LINE
8
BLACK
6
CONTINUOUS
10
1.45599
20
-6.65307
11
1.46161
21
-6.64744
0
LINE
8
BLACK
6
CONTINUOUS
10
1.46161
20
-6.64744
11
1.47286
21
-6.64182
0
LINE
8
BLACK
6
CONTINUOUS
10
1.47286
20
-6.64182
11
1.50098
21
-6.64182
0
LINE
8
BLACK
6
CONTINUOUS
10
1.50098
20
-6.64182
11
1.51223
21
-6.64744
0
LINE
8
BLACK
6
CONTINUOUS
10
1.51223
20
-6.64744
11
1.51786
21
-6.65307
0
LINE
8
BLACK
6
CONTINUOUS
10
1.51786
20
-6.65307
11
1.52348
21
-6.66431
0
LINE
8
BLACK
6
CONTINUOUS
10
1.52348
20
-6.66431
11
1.52348
21
-6.67556
0
LINE
8
BLACK
6
CONTINUOUS
10
1.52348
20
-6.67556
11
1.51786
21
-6.69244
0
LINE
8
BLACK
6
CONTINUOUS
10
1.51786
20
-6.69244
11
1.45037
21
-6.75993
0
LINE
8
BLACK
6
CONTINUOUS
10
1.45037
20
-6.75993
11
1.52348
21
-6.75993
0
LINE
8
BLACK
6
CONTINUOUS
10
1.5966
20
-6.64182
11
1.60785
21
-6.64182
0
LINE
8
BLACK
6
CONTINUOUS
10
1.60785
20
-6.64182
11
1.61909
21
-6.64744
0
LINE
8
BLACK
6
CONTINUOUS
10
1.61909
20
-6.64744
11
1.62472
21
-6.65307
0
LINE
8
BLACK
6
CONTINUOUS
10
1.62472
20
-6.65307
11
1.63034
21
-6.66431
0
LINE
8
BLACK
6
CONTINUOUS
10
1.63034
20
-6.66431
11
1.63597
21
-6.68681
0
LINE
8
BLACK
6
CONTINUOUS
10
1.63597
20
-6.68681
11
1.63597
21
-6.71493
0
LINE
8
BLACK
6
CONTINUOUS
10
1.63597
20
-6.71493
11
1.63034
21
-6.73743
0
LINE
8
BLACK
6
CONTINUOUS
10
1.63034
20
-6.73743
11
1.62472
21
-6.74868
0
LINE
8
BLACK
6
CONTINUOUS
10
1.62472
20
-6.74868
11
1.61909
21
-6.7543
0
LINE
8
BLACK
6
CONTINUOUS
10
1.61909
20
-6.7543
11
1.60785
21
-6.75993
0
LINE
8
BLACK
6
CONTINUOUS
10
1.60785
20
-6.75993
11
1.5966
21
-6.75993
0
LINE
8
BLACK
6
CONTINUOUS
10
1.5966
20
-6.75993
11
1.58535
21
-6.7543
0
LINE
8
BLACK
6
CONTINUOUS
10
1.58535
20
-6.7543
11
1.57972
21
-6.74868
0
LINE
8
BLACK
6
CONTINUOUS
10
1.57972
20
-6.74868
11
1.5741
21
-6.73743
0
LINE
8
BLACK
6
CONTINUOUS
10
1.5741
20
-6.73743
11
1.56848
21
-6.71493
0
LINE
8
BLACK
6
CONTINUOUS
10
1.56848
20
-6.71493
11
1.56848
21
-6.68681
0
LINE
8
BLACK
6
CONTINUOUS
10
1.56848
20
-6.68681
11
1.5741
21
-6.66431
0
LINE
8
BLACK
6
CONTINUOUS
10
1.5741
20
-6.66431
11
1.57972
21
-6.65307
0
LINE
8
BLACK
6
CONTINUOUS
10
1.57972
20
-6.65307
11
1.58535
21
-6.64744
0
LINE
8
BLACK
6
CONTINUOUS
10
1.58535
20
-6.64744
11
1.5966
21
-6.64182
0
LINE
8
BLACK
6
CONTINUOUS
10
1.70908
20
-6.64182
11
1.72033
21
-6.64182
0
LINE
8
BLACK
6
CONTINUOUS
10
1.72033
20
-6.64182
11
1.73158
21
-6.64744
0
LINE
8
BLACK
6
CONTINUOUS
10
1.73158
20
-6.64744
11
1.7372
21
-6.65307
0
LINE
8
BLACK
6
CONTINUOUS
10
1.7372
20
-6.65307
11
1.74283
21
-6.66431
0
LINE
8
BLACK
6
CONTINUOUS
10
1.74283
20
-6.66431
11
1.74845
21
-6.68681
0
LINE
8
BLACK
6
CONTINUOUS
10
1.74845
20
-6.68681
11
1.74845
21
-6.71493
0
LINE
8
BLACK
6
CONTINUOUS
10
1.74845
20
-6.71493
11
1.74283
21
-6.73743
0
LINE
8
BLACK
6
CONTINUOUS
10
1.74283
20
-6.73743
11
1.7372
21
-6.74868
0
LINE
8
BLACK
6
CONTINUOUS
10
1.7372
20
-6.74868
11
1.73158
21
-6.7543
0
LINE
8
BLACK
6
CONTINUOUS
10
1.73158
20
-6.7543
11
1.72033
21
-6.75993
0
LINE
8
BLACK
6
CONTINUOUS
10
1.72033
20
-6.75993
11
1.70908
21
-6.75993
0
LINE
8
BLACK
6
CONTINUOUS
10
1.70908
20
-6.75993
11
1.69783
21
-6.7543
0
LINE
8
BLACK
6
CONTINUOUS
10
1.69783
20
-6.7543
11
1.69221
21
-6.74868
0
LINE
8
BLACK
6
CONTINUOUS
10
1.69221
20
-6.74868
11
1.68659
21
-6.73743
0
LINE
8
BLACK
6
CONTINUOUS
10
1.68659
20
-6.73743
11
1.68096
21
-6.71493
0
LINE
8
BLACK
6
CONTINUOUS
10
1.68096
20
-6.71493
11
1.68096
21
-6.68681
0
LINE
8
BLACK
6
CONTINUOUS
10
1.68096
20
-6.68681
11
1.68659
21
-6.66431
0
LINE
8
BLACK
6
CONTINUOUS
10
1.68659
20
-6.66431
11
1.69221
21
-6.65307
0
LINE
8
BLACK
6
CONTINUOUS
10
1.69221
20
-6.65307
11
1.69783
21
-6.64744
0
LINE
8
BLACK
6
CONTINUOUS
10
1.69783
20
-6.64744
11
1.70908
21
-6.64182
0
LINE
8
BLACK
6
CONTINUOUS
10
1.79907
20
-6.75993
11
1.79907
21
-6.68119
0
LINE
8
BLACK
6
CONTINUOUS
10
1.79907
20
-6.69244
11
1.8047
21
-6.68681
0
LINE
8
BLACK
6
CONTINUOUS
10
1.8047
20
-6.68681
11
1.81594
21
-6.68119
0
LINE
8
BLACK
6
CONTINUOUS
10
1.81594
20
-6.68119
11
1.83282
21
-6.68119
0
LINE
8
BLACK
6
CONTINUOUS
10
1.83282
20
-6.68119
11
1.84407
21
-6.68681
0
LINE
8
BLACK
6
CONTINUOUS
10
1.84407
20
-6.68681
11
1.84969
21
-6.69806
0
LINE
8
BLACK
6
CONTINUOUS
10
1.84969
20
-6.69806
11
1.84969
21
-6.75993
0
LINE
8
BLACK
6
CONTINUOUS
10
1.84969
20
-6.69806
11
1.85531
21
-6.68681
0
LINE
8
BLACK
6
CONTINUOUS
10
1.85531
20
-6.68681
11
1.86656
21
-6.68119
0
LINE
8
BLACK
6
CONTINUOUS
10
1.86656
20
-6.68119
11
1.88344
21
-6.68119
0
LINE
8
BLACK
6
CONTINUOUS
10
1.88344
20
-6.68119
11
1.89468
21
-6.68681
0
LINE
8
BLACK
6
CONTINUOUS
10
1.89468
20
-6.68681
11
1.90031
21
-6.69806
0
LINE
8
BLACK
6
CONTINUOUS
10
1.90031
20
-6.69806
11
1.90031
21
-6.75993
0
LINE
8
BLACK
6
CONTINUOUS
10
1.95655
20
-6.75993
11
1.95655
21
-6.68119
0
LINE
8
BLACK
6
CONTINUOUS
10
1.95655
20
-6.69244
11
1.96218
21
-6.68681
0
LINE
8
BLACK
6
CONTINUOUS
10
1.96218
20
-6.68681
11
1.97343
21
-6.68119
0
LINE
8
BLACK
6
CONTINUOUS
10
1.97343
20
-6.68119
11
1.9903
21
-6.68119
0
LINE
8
BLACK
6
CONTINUOUS
10
1.9903
20
-6.68119
11
2.00155
21
-6.68681
0
LINE
8
BLACK
6
CONTINUOUS
10
2.00155
20
-6.68681
11
2.00717
21
-6.69806
0
LINE
8
BLACK
6
CONTINUOUS
10
2.00717
20
-6.69806
11
2.00717
21
-6.75993
0
LINE
8
BLACK
6
CONTINUOUS
10
2.00717
20
-6.69806
11
2.0128
21
-6.68681
0
LINE
8
BLACK
6
CONTINUOUS
10
2.0128
20
-6.68681
11
2.02404
21
-6.68119
0
LINE
8
BLACK
6
CONTINUOUS
10
2.02404
20
-6.68119
11
2.04092
21
-6.68119
0
LINE
8
BLACK
6
CONTINUOUS
10
2.04092
20
-6.68119
11
2.05217
21
-6.68681
0
LINE
8
BLACK
6
CONTINUOUS
10
2.05217
20
-6.68681
11
2.05779
21
-6.69806
0
LINE
8
BLACK
6
CONTINUOUS
10
2.05779
20
-6.69806
11
2.05779
21
-6.75993
0
LINE
8
BLACK
6
CONTINUOUS
10
2.28839
20
-6.63619
11
2.18715
21
-6.78805
0
LINE
8
BLACK
6
CONTINUOUS
10
2.44024
20
-6.64182
11
2.45149
21
-6.64182
0
LINE
8
BLACK
6
CONTINUOUS
10
2.45149
20
-6.64182
11
2.46274
21
-6.64744
0
LINE
8
BLACK
6
CONTINUOUS
10
2.46274
20
-6.64744
11
2.46836
21
-6.65307
0
LINE
8
BLACK
6
CONTINUOUS
10
2.46836
20
-6.65307
11
2.47399
21
-6.66431
0
LINE
8
BLACK
6
CONTINUOUS
10
2.47399
20
-6.66431
11
2.47961
21
-6.68681
0
LINE
8
BLACK
6
CONTINUOUS
10
2.47961
20
-6.68681
11
2.47961
21
-6.71493
0
LINE
8
BLACK
6
CONTINUOUS
10
2.47961
20
-6.71493
11
2.47399
21
-6.73743
0
LINE
8
BLACK
6
CONTINUOUS
10
2.47399
20
-6.73743
11
2.46836
21
-6.74868
0
LINE
8
BLACK
6
CONTINUOUS
10
2.46836
20
-6.74868
11
2.46274
21
-6.7543
0
LINE
8
BLACK
6
CONTINUOUS
10
2.46274
20
-6.7543
11
2.45149
21
-6.75993
0
LINE
8
BLACK
6
CONTINUOUS
10
2.45149
20
-6.75993
11
2.44024
21
-6.75993
0
LINE
8
BLACK
6
CONTINUOUS
10
2.44024
20
-6.75993
11
2.42899
21
-6.7543
0
LINE
8
BLACK
6
CONTINUOUS
10
2.42899
20
-6.7543
11
2.42337
21
-6.74868
0
LINE
8
BLACK
6
CONTINUOUS
10
2.42337
20
-6.74868
11
2.41774
21
-6.73743
0
LINE
8
BLACK
6
CONTINUOUS
10
2.41774
20
-6.73743
11
2.41212
21
-6.71493
0
LINE
8
BLACK
6
CONTINUOUS
10
2.41212
20
-6.71493
11
2.41212
21
-6.68681
0
LINE
8
BLACK
6
CONTINUOUS
10
2.41212
20
-6.68681
11
2.41774
21
-6.66431
0
LINE
8
BLACK
6
CONTINUOUS
10
2.41774
20
-6.66431
11
2.42337
21
-6.65307
0
LINE
8
BLACK
6
CONTINUOUS
10
2.42337
20
-6.65307
11
2.42899
21
-6.64744
0
LINE
8
BLACK
6
CONTINUOUS
10
2.42899
20
-6.64744
11
2.44024
21
-6.64182
0
LINE
8
BLACK
6
CONTINUOUS
10
2.53023
20
-6.74868
11
2.53585
21
-6.7543
0
LINE
8
BLACK
6
CONTINUOUS
10
2.53585
20
-6.7543
11
2.53023
21
-6.75993
0
LINE
8
BLACK
6
CONTINUOUS
10
2.53023
20
-6.75993
11
2.52461
21
-6.7543
0
LINE
8
BLACK
6
CONTINUOUS
10
2.52461
20
-6.7543
11
2.53023
21
-6.74868
0
LINE
8
BLACK
6
CONTINUOUS
10
2.53023
20
-6.74868
11
2.53023
21
-6.75993
0
LINE
8
BLACK
6
CONTINUOUS
10
2.64834
20
-6.75993
11
2.58085
21
-6.75993
0
LINE
8
BLACK
6
CONTINUOUS
10
2.6146
20
-6.75993
11
2.6146
21
-6.64182
0
LINE
8
BLACK
6
CONTINUOUS
10
2.6146
20
-6.64182
11
2.60335
21
-6.65869
0
LINE
8
BLACK
6
CONTINUOUS
10
2.60335
20
-6.65869
11
2.5921
21
-6.66994
0
LINE
8
BLACK
6
CONTINUOUS
10
2.5921
20
-6.66994
11
2.58085
21
-6.67556
0
LINE
8
BLACK
6
CONTINUOUS
10
2.69334
20
-6.65307
11
2.69896
21
-6.64744
0
LINE
8
BLACK
6
CONTINUOUS
10
2.69896
20
-6.64744
11
2.71021
21
-6.64182
0
LINE
8
BLACK
6
CONTINUOUS
10
2.71021
20
-6.64182
11
2.73833
21
-6.64182
0
LINE
8
BLACK
6
CONTINUOUS
10
2.73833
20
-6.64182
11
2.74958
21
-6.64744
0
LINE
8
BLACK
6
CONTINUOUS
10
2.74958
20
-6.64744
11
2.7552
21
-6.65307
0
LINE
8
BLACK
6
CONTINUOUS
10
2.7552
20
-6.65307
11
2.76083
21
-6.66431
0
LINE
8
BLACK
6
CONTINUOUS
10
2.76083
20
-6.66431
11
2.76083
21
-6.67556
0
LINE
8
BLACK
6
CONTINUOUS
10
2.76083
20
-6.67556
11
2.7552
21
-6.69244
0
LINE
8
BLACK
6
CONTINUOUS
10
2.7552
20
-6.69244
11
2.68771
21
-6.75993
0
LINE
8
BLACK
6
CONTINUOUS
10
2.68771
20
-6.75993
11
2.76083
21
-6.75993
0
LINE
8
BLACK
6
CONTINUOUS
10
2.86206
20
-6.64182
11
2.83957
21
-6.64182
0
LINE
8
BLACK
6
CONTINUOUS
10
2.83957
20
-6.64182
11
2.82832
21
-6.64744
0
LINE
8
BLACK
6
CONTINUOUS
10
2.82832
20
-6.64744
11
2.82269
21
-6.65307
0
LINE
8
BLACK
6
CONTINUOUS
10
2.82269
20
-6.65307
11
2.81145
21
-6.66994
0
LINE
8
BLACK
6
CONTINUOUS
10
2.81145
20
-6.66994
11
2.80582
21
-6.69244
0
LINE
8
BLACK
6
CONTINUOUS
10
2.80582
20
-6.69244
11
2.80582
21
-6.73743
0
LINE
8
BLACK
6
CONTINUOUS
10
2.80582
20
-6.73743
11
2.81145
21
-6.74868
0
LINE
8
BLACK
6
CONTINUOUS
10
2.81145
20
-6.74868
11
2.81707
21
-6.7543
0
LINE
8
BLACK
6
CONTINUOUS
10
2.81707
20
-6.7543
11
2.82832
21
-6.75993
0
LINE
8
BLACK
6
CONTINUOUS
10
2.82832
20
-6.75993
11
2.85082
21
-6.75993
0
LINE
8
BLACK
6
CONTINUOUS
10
2.85082
20
-6.75993
11
2.86206
21
-6.7543
0
LINE
8
BLACK
6
CONTINUOUS
10
2.86206
20
-6.7543
11
2.86769
21
-6.74868
0
LINE
8
BLACK
6
CONTINUOUS
10
2.86769
20
-6.74868
11
2.87331
21
-6.73743
0
LINE
8
BLACK
6
CONTINUOUS
10
2.87331
20
-6.73743
11
2.87331
21
-6.70931
0
LINE
8
BLACK
6
CONTINUOUS
10
2.87331
20
-6.70931
11
2.86769
21
-6.69806
0
LINE
8
BLACK
6
CONTINUOUS
10
2.86769
20
-6.69806
11
2.86206
21
-6.69244
0
LINE
8
BLACK
6
CONTINUOUS
10
2.86206
20
-6.69244
11
2.85082
21
-6.68681
0
LINE
8
BLACK
6
CONTINUOUS
10
2.85082
20
-6.68681
11
2.82832
21
-6.68681
0
LINE
8
BLACK
6
CONTINUOUS
10
2.82832
20
-6.68681
11
2.81707
21
-6.69244
0
LINE
8
BLACK
6
CONTINUOUS
10
2.81707
20
-6.69244
11
2.81145
21
-6.69806
0
LINE
8
BLACK
6
CONTINUOUS
10
2.81145
20
-6.69806
11
2.80582
21
-6.70931
0
LINE
8
BLACK
6
CONTINUOUS
10
2.94643
20
-6.64182
11
2.95768
21
-6.64182
0
LINE
8
BLACK
6
CONTINUOUS
10
2.95768
20
-6.64182
11
2.96893
21
-6.64744
0
LINE
8
BLACK
6
CONTINUOUS
10
2.96893
20
-6.64744
11
2.97455
21
-6.65307
0
LINE
8
BLACK
6
CONTINUOUS
10
2.97455
20
-6.65307
11
2.98017
21
-6.66431
0
LINE
8
BLACK
6
CONTINUOUS
10
2.98017
20
-6.66431
11
2.9858
21
-6.68681
0
LINE
8
BLACK
6
CONTINUOUS
10
2.9858
20
-6.68681
11
2.9858
21
-6.71493
0
LINE
8
BLACK
6
CONTINUOUS
10
2.9858
20
-6.71493
11
2.98017
21
-6.73743
0
LINE
8
BLACK
6
CONTINUOUS
10
2.98017
20
-6.73743
11
2.97455
21
-6.74868
0
LINE
8
BLACK
6
CONTINUOUS
10
2.97455
20
-6.74868
11
2.96893
21
-6.7543
0
LINE
8
BLACK
6
CONTINUOUS
10
2.96893
20
-6.7543
11
2.95768
21
-6.75993
0
LINE
8
BLACK
6
CONTINUOUS
10
2.95768
20
-6.75993
11
2.94643
21
-6.75993
0
LINE
8
BLACK
6
CONTINUOUS
10
2.94643
20
-6.75993
11
2.93518
21
-6.7543
0
LINE
8
BLACK
6
CONTINUOUS
10
2.93518
20
-6.7543
11
2.92956
21
-6.74868
0
LINE
8
BLACK
6
CONTINUOUS
10
2.92956
20
-6.74868
11
2.92393
21
-6.73743
0
LINE
8
BLACK
6
CONTINUOUS
10
2.92393
20
-6.73743
11
2.91831
21
-6.71493
0
LINE
8
BLACK
6
CONTINUOUS
10
2.91831
20
-6.71493
11
2.91831
21
-6.68681
0
LINE
8
BLACK
6
CONTINUOUS
10
2.91831
20
-6.68681
11
2.92393
21
-6.66431
0
LINE
8
BLACK
6
CONTINUOUS
10
2.92393
20
-6.66431
11
2.92956
21
-6.65307
0
LINE
8
BLACK
6
CONTINUOUS
10
2.92956
20
-6.65307
11
2.93518
21
-6.64744
0
LINE
8
BLACK
6
CONTINUOUS
10
2.93518
20
-6.64744
11
2.94643
21
-6.64182
0
LINE
8
BLACK
6
CONTINUOUS
10
3.03079
20
-6.64182
11
3.03079
21
-6.66431
0
LINE
8
BLACK
6
CONTINUOUS
10
3.07579
20
-6.64182
11
3.07579
21
-6.66431
0
LINE
8
BLACK
6
CONTINUOUS
10
3.25014
20
-6.80492
11
3.24452
21
-6.7993
0
LINE
8
BLACK
6
CONTINUOUS
10
3.24452
20
-6.7993
11
3.23327
21
-6.78242
0
LINE
8
BLACK
6
CONTINUOUS
10
3.23327
20
-6.78242
11
3.22764
21
-6.77118
0
LINE
8
BLACK
6
CONTINUOUS
10
3.22764
20
-6.77118
11
3.22202
21
-6.7543
0
LINE
8
BLACK
6
CONTINUOUS
10
3.22202
20
-6.7543
11
3.21639
21
-6.72618
0
LINE
8
BLACK
6
CONTINUOUS
10
3.21639
20
-6.72618
11
3.21639
21
-6.70368
0
LINE
8
BLACK
6
CONTINUOUS
10
3.21639
20
-6.70368
11
3.22202
21
-6.67556
0
LINE
8
BLACK
6
CONTINUOUS
10
3.22202
20
-6.67556
11
3.22764
21
-6.65869
0
LINE
8
BLACK
6
CONTINUOUS
10
3.22764
20
-6.65869
11
3.23327
21
-6.64744
0
LINE
8
BLACK
6
CONTINUOUS
10
3.23327
20
-6.64744
11
3.24452
21
-6.63057
0
LINE
8
BLACK
6
CONTINUOUS
10
3.24452
20
-6.63057
11
3.25014
21
-6.62494
0
LINE
8
BLACK
6
CONTINUOUS
10
3.34575
20
-6.64182
11
3.32326
21
-6.64182
0
LINE
8
BLACK
6
CONTINUOUS
10
3.32326
20
-6.64182
11
3.31201
21
-6.64744
0
LINE
8
BLACK
6
CONTINUOUS
10
3.31201
20
-6.64744
11
3.30638
21
-6.65307
0
LINE
8
BLACK
6
CONTINUOUS
10
3.30638
20
-6.65307
11
3.29513
21
-6.66994
0
LINE
8
BLACK
6
CONTINUOUS
10
3.29513
20
-6.66994
11
3.28951
21
-6.69244
0
LINE
8
BLACK
6
CONTINUOUS
10
3.28951
20
-6.69244
11
3.28951
21
-6.73743
0
LINE
8
BLACK
6
CONTINUOUS
10
3.28951
20
-6.73743
11
3.29513
21
-6.74868
0
LINE
8
BLACK
6
CONTINUOUS
10
3.29513
20
-6.74868
11
3.30076
21
-6.7543
0
LINE
8
BLACK
6
CONTINUOUS
10
3.30076
20
-6.7543
11
3.31201
21
-6.75993
0
LINE
8
BLACK
6
CONTINUOUS
10
3.31201
20
-6.75993
11
3.33451
21
-6.75993
0
LINE
8
BLACK
6
CONTINUOUS
10
3.33451
20
-6.75993
11
3.34575
21
-6.7543
0
LINE
8
BLACK
6
CONTINUOUS
10
3.34575
20
-6.7543
11
3.35138
21
-6.74868
0
LINE
8
BLACK
6
CONTINUOUS
10
3.35138
20
-6.74868
11
3.357
21
-6.73743
0
LINE
8
BLACK
6
CONTINUOUS
10
3.357
20
-6.73743
11
3.357
21
-6.70931
0
LINE
8
BLACK
6
CONTINUOUS
10
3.357
20
-6.70931
11
3.35138
21
-6.69806
0
LINE
8
BLACK
6
CONTINUOUS
10
3.35138
20
-6.69806
11
3.34575
21
-6.69244
0
LINE
8
BLACK
6
CONTINUOUS
10
3.34575
20
-6.69244
11
3.33451
21
-6.68681
0
LINE
8
BLACK
6
CONTINUOUS
10
3.33451
20
-6.68681
11
3.31201
21
-6.68681
0
LINE
8
BLACK
6
CONTINUOUS
10
3.31201
20
-6.68681
11
3.30076
21
-6.69244
0
LINE
8
BLACK
6
CONTINUOUS
10
3.30076
20
-6.69244
11
3.29513
21
-6.69806
0
LINE
8
BLACK
6
CONTINUOUS
10
3.29513
20
-6.69806
11
3.28951
21
-6.70931
0
LINE
8
BLACK
6
CONTINUOUS
10
3.49761
20
-6.75993
11
3.49761
21
-6.64182
0
LINE
8
BLACK
6
CONTINUOUS
10
3.54823
20
-6.75993
11
3.54823
21
-6.69806
0
LINE
8
BLACK
6
CONTINUOUS
10
3.54823
20
-6.69806
11
3.5426
21
-6.68681
0
LINE
8
BLACK
6
CONTINUOUS
10
3.5426
20
-6.68681
11
3.53136
21
-6.68119
0
LINE
8
BLACK
6
CONTINUOUS
10
3.53136
20
-6.68119
11
3.51448
21
-6.68119
0
LINE
8
BLACK
6
CONTINUOUS
10
3.51448
20
-6.68119
11
3.50323
21
-6.68681
0
LINE
8
BLACK
6
CONTINUOUS
10
3.50323
20
-6.68681
11
3.49761
21
-6.69244
0
LINE
8
BLACK
6
CONTINUOUS
10
3.62134
20
-6.75993
11
3.6101
21
-6.7543
0
LINE
8
BLACK
6
CONTINUOUS
10
3.6101
20
-6.7543
11
3.60447
21
-6.74868
0
LINE
8
BLACK
6
CONTINUOUS
10
3.60447
20
-6.74868
11
3.59885
21
-6.73743
0
LINE
8
BLACK
6
CONTINUOUS
10
3.59885
20
-6.73743
11
3.59885
21
-6.70368
0
LINE
8
BLACK
6
CONTINUOUS
10
3.59885
20
-6.70368
11
3.60447
21
-6.69244
0
LINE
8
BLACK
6
CONTINUOUS
10
3.60447
20
-6.69244
11
3.6101
21
-6.68681
0
LINE
8
BLACK
6
CONTINUOUS
10
3.6101
20
-6.68681
11
3.62134
21
-6.68119
0
LINE
8
BLACK
6
CONTINUOUS
10
3.62134
20
-6.68119
11
3.63822
21
-6.68119
0
LINE
8
BLACK
6
CONTINUOUS
10
3.63822
20
-6.68119
11
3.64947
21
-6.68681
0
LINE
8
BLACK
6
CONTINUOUS
10
3.64947
20
-6.68681
11
3.65509
21
-6.69244
0
LINE
8
BLACK
6
CONTINUOUS
10
3.65509
20
-6.69244
11
3.66071
21
-6.70368
0
LINE
8
BLACK
6
CONTINUOUS
10
3.66071
20
-6.70368
11
3.66071
21
-6.73743
0
LINE
8
BLACK
6
CONTINUOUS
10
3.66071
20
-6.73743
11
3.65509
21
-6.74868
0
LINE
8
BLACK
6
CONTINUOUS
10
3.65509
20
-6.74868
11
3.64947
21
-6.7543
0
LINE
8
BLACK
6
CONTINUOUS
10
3.64947
20
-6.7543
11
3.63822
21
-6.75993
0
LINE
8
BLACK
6
CONTINUOUS
10
3.63822
20
-6.75993
11
3.62134
21
-6.75993
0
LINE
8
BLACK
6
CONTINUOUS
10
3.72821
20
-6.75993
11
3.71696
21
-6.7543
0
LINE
8
BLACK
6
CONTINUOUS
10
3.71696
20
-6.7543
11
3.71133
21
-6.74305
0
LINE
8
BLACK
6
CONTINUOUS
10
3.71133
20
-6.74305
11
3.71133
21
-6.64182
0
LINE
8
BLACK
6
CONTINUOUS
10
3.81819
20
-6.7543
11
3.80695
21
-6.75993
0
LINE
8
BLACK
6
CONTINUOUS
10
3.80695
20
-6.75993
11
3.78445
21
-6.75993
0
LINE
8
BLACK
6
CONTINUOUS
10
3.78445
20
-6.75993
11
3.7732
21
-6.7543
0
LINE
8
BLACK
6
CONTINUOUS
10
3.7732
20
-6.7543
11
3.76758
21
-6.74305
0
LINE
8
BLACK
6
CONTINUOUS
10
3.76758
20
-6.74305
11
3.76758
21
-6.69806
0
LINE
8
BLACK
6
CONTINUOUS
10
3.76758
20
-6.69806
11
3.7732
21
-6.68681
0
LINE
8
BLACK
6
CONTINUOUS
10
3.7732
20
-6.68681
11
3.78445
21
-6.68119
0
LINE
8
BLACK
6
CONTINUOUS
10
3.78445
20
-6.68119
11
3.80695
21
-6.68119
0
LINE
8
BLACK
6
CONTINUOUS
10
3.80695
20
-6.68119
11
3.81819
21
-6.68681
0
LINE
8
BLACK
6
CONTINUOUS
10
3.81819
20
-6.68681
11
3.82382
21
-6.69806
0
LINE
8
BLACK
6
CONTINUOUS
10
3.82382
20
-6.69806
11
3.82382
21
-6.70931
0
LINE
8
BLACK
6
CONTINUOUS
10
3.82382
20
-6.70931
11
3.76758
21
-6.72056
0
LINE
8
BLACK
6
CONTINUOUS
10
3.86881
20
-6.7543
11
3.88006
21
-6.75993
0
LINE
8
BLACK
6
CONTINUOUS
10
3.88006
20
-6.75993
11
3.90256
21
-6.75993
0
LINE
8
BLACK
6
CONTINUOUS
10
3.90256
20
-6.75993
11
3.91381
21
-6.7543
0
LINE
8
BLACK
6
CONTINUOUS
10
3.91381
20
-6.7543
11
3.91943
21
-6.74305
0
LINE
8
BLACK
6
CONTINUOUS
10
3.91943
20
-6.74305
11
3.91943
21
-6.73743
0
LINE
8
BLACK
6
CONTINUOUS
10
3.91943
20
-6.73743
11
3.91381
21
-6.72618
0
LINE
8
BLACK
6
CONTINUOUS
10
3.91381
20
-6.72618
11
3.90256
21
-6.72056
0
LINE
8
BLACK
6
CONTINUOUS
10
3.90256
20
-6.72056
11
3.88569
21
-6.72056
0
LINE
8
BLACK
6
CONTINUOUS
10
3.88569
20
-6.72056
11
3.87444
21
-6.71493
0
LINE
8
BLACK
6
CONTINUOUS
10
3.87444
20
-6.71493
11
3.86881
21
-6.70368
0
LINE
8
BLACK
6
CONTINUOUS
10
3.86881
20
-6.70368
11
3.86881
21
-6.69806
0
LINE
8
BLACK
6
CONTINUOUS
10
3.86881
20
-6.69806
11
3.87444
21
-6.68681
0
LINE
8
BLACK
6
CONTINUOUS
10
3.87444
20
-6.68681
11
3.88569
21
-6.68119
0
LINE
8
BLACK
6
CONTINUOUS
10
3.88569
20
-6.68119
11
3.90256
21
-6.68119
0
LINE
8
BLACK
6
CONTINUOUS
10
3.90256
20
-6.68119
11
3.91381
21
-6.68681
0
LINE
8
BLACK
6
CONTINUOUS
10
3.9588
20
-6.80492
11
3.96443
21
-6.7993
0
LINE
8
BLACK
6
CONTINUOUS
10
3.96443
20
-6.7993
11
3.97567
21
-6.78242
0
LINE
8
BLACK
6
CONTINUOUS
10
3.97567
20
-6.78242
11
3.9813
21
-6.77118
0
LINE
8
BLACK
6
CONTINUOUS
10
3.9813
20
-6.77118
11
3.98692
21
-6.7543
0
LINE
8
BLACK
6
CONTINUOUS
10
3.98692
20
-6.7543
11
3.99255
21
-6.72618
0
LINE
8
BLACK
6
CONTINUOUS
10
3.99255
20
-6.72618
11
3.99255
21
-6.70368
0
LINE
8
BLACK
6
CONTINUOUS
10
3.99255
20
-6.70368
11
3.98692
21
-6.67556
0
LINE
8
BLACK
6
CONTINUOUS
10
3.98692
20
-6.67556
11
3.9813
21
-6.65869
0
LINE
8
BLACK
6
CONTINUOUS
10
3.9813
20
-6.65869
11
3.97567
21
-6.64744
0
LINE
8
BLACK
6
CONTINUOUS
10
3.97567
20
-6.64744
11
3.96443
21
-6.63057
0
LINE
8
BLACK
6
CONTINUOUS
10
3.96443
20
-6.63057
11
3.9588
21
-6.62494
  0
ENDSEC
  0
EOF
