%TF.GenerationSoftware,KiCad,Pcbnew,(5.1.10-1-10_14)*%
%TF.CreationDate,2022-02-21T21:09:16+11:00*%
%TF.ProjectId,FSK,46534b2e-6b69-4636-9164-5f7063625858,rev?*%
%TF.SameCoordinates,Original*%
%TF.FileFunction,Legend,Top*%
%TF.FilePolarity,Positive*%
%FSLAX46Y46*%
G04 Gerber Fmt 4.6, Leading zero omitted, Abs format (unit mm)*
G04 Created by KiCad (PCBNEW (5.1.10-1-10_14)) date 2022-02-21 21:09:16*
%MOMM*%
%LPD*%
G01*
G04 APERTURE LIST*
%ADD10C,0.150000*%
%ADD11C,0.120000*%
%ADD12C,0.300000*%
%ADD13C,0.240000*%
G04 APERTURE END LIST*
D10*
X79136428Y-103233214D02*
X79136428Y-102376071D01*
X79136428Y-102804642D02*
X80636428Y-102804642D01*
X80422142Y-102661785D01*
X80279285Y-102518928D01*
X80207857Y-102376071D01*
X81090000Y-104661785D02*
X81090000Y-106161785D01*
X79279285Y-105876071D02*
X79207857Y-105804642D01*
X79136428Y-105590357D01*
X79136428Y-105447500D01*
X79207857Y-105233214D01*
X79350714Y-105090357D01*
X79493571Y-105018928D01*
X79779285Y-104947500D01*
X79993571Y-104947500D01*
X80279285Y-105018928D01*
X80422142Y-105090357D01*
X80565000Y-105233214D01*
X80636428Y-105447500D01*
X80636428Y-105590357D01*
X80565000Y-105804642D01*
X80493571Y-105876071D01*
X81090000Y-106161785D02*
X81090000Y-107376071D01*
X79136428Y-107233214D02*
X79136428Y-106518928D01*
X80636428Y-106518928D01*
X81090000Y-107376071D02*
X81090000Y-108947500D01*
X80636428Y-108018928D02*
X80636428Y-108304642D01*
X80565000Y-108447500D01*
X80422142Y-108590357D01*
X80136428Y-108661785D01*
X79636428Y-108661785D01*
X79350714Y-108590357D01*
X79207857Y-108447500D01*
X79136428Y-108304642D01*
X79136428Y-108018928D01*
X79207857Y-107876071D01*
X79350714Y-107733214D01*
X79636428Y-107661785D01*
X80136428Y-107661785D01*
X80422142Y-107733214D01*
X80565000Y-107876071D01*
X80636428Y-108018928D01*
X81090000Y-108947500D02*
X81090000Y-110447500D01*
X79279285Y-110161785D02*
X79207857Y-110090357D01*
X79136428Y-109876071D01*
X79136428Y-109733214D01*
X79207857Y-109518928D01*
X79350714Y-109376071D01*
X79493571Y-109304642D01*
X79779285Y-109233214D01*
X79993571Y-109233214D01*
X80279285Y-109304642D01*
X80422142Y-109376071D01*
X80565000Y-109518928D01*
X80636428Y-109733214D01*
X80636428Y-109876071D01*
X80565000Y-110090357D01*
X80493571Y-110161785D01*
X81090000Y-110447500D02*
X81090000Y-111947500D01*
X79136428Y-110804642D02*
X80636428Y-110804642D01*
X79136428Y-111661785D02*
X79993571Y-111018928D01*
X80636428Y-111661785D02*
X79779285Y-110804642D01*
X78093571Y-104447500D02*
X78165000Y-104518928D01*
X78236428Y-104661785D01*
X78236428Y-105018928D01*
X78165000Y-105161785D01*
X78093571Y-105233214D01*
X77950714Y-105304642D01*
X77807857Y-105304642D01*
X77593571Y-105233214D01*
X76736428Y-104376071D01*
X76736428Y-105304642D01*
X78690000Y-106733214D02*
X78690000Y-108233214D01*
X76736428Y-107090357D02*
X78236428Y-107090357D01*
X78236428Y-107447500D01*
X78165000Y-107661785D01*
X78022142Y-107804642D01*
X77879285Y-107876071D01*
X77593571Y-107947500D01*
X77379285Y-107947500D01*
X77093571Y-107876071D01*
X76950714Y-107804642D01*
X76807857Y-107661785D01*
X76736428Y-107447500D01*
X76736428Y-107090357D01*
X78690000Y-108233214D02*
X78690000Y-109518928D01*
X77165000Y-108518928D02*
X77165000Y-109233214D01*
X76736428Y-108376071D02*
X78236428Y-108876071D01*
X76736428Y-109376071D01*
X78690000Y-109518928D02*
X78690000Y-110661785D01*
X78236428Y-109661785D02*
X78236428Y-110518928D01*
X76736428Y-110090357D02*
X78236428Y-110090357D01*
X78690000Y-110661785D02*
X78690000Y-111947500D01*
X77165000Y-110947500D02*
X77165000Y-111661785D01*
X76736428Y-110804642D02*
X78236428Y-111304642D01*
X76736428Y-111804642D01*
X75836428Y-103876071D02*
X75836428Y-104804642D01*
X75265000Y-104304642D01*
X75265000Y-104518928D01*
X75193571Y-104661785D01*
X75122142Y-104733214D01*
X74979285Y-104804642D01*
X74622142Y-104804642D01*
X74479285Y-104733214D01*
X74407857Y-104661785D01*
X74336428Y-104518928D01*
X74336428Y-104090357D01*
X74407857Y-103947500D01*
X74479285Y-103876071D01*
X75765000Y-108518928D02*
X75836428Y-108376071D01*
X75836428Y-108161785D01*
X75765000Y-107947500D01*
X75622142Y-107804642D01*
X75479285Y-107733214D01*
X75193571Y-107661785D01*
X74979285Y-107661785D01*
X74693571Y-107733214D01*
X74550714Y-107804642D01*
X74407857Y-107947500D01*
X74336428Y-108161785D01*
X74336428Y-108304642D01*
X74407857Y-108518928D01*
X74479285Y-108590357D01*
X74979285Y-108590357D01*
X74979285Y-108304642D01*
X74336428Y-109233214D02*
X75836428Y-109233214D01*
X74336428Y-110090357D01*
X75836428Y-110090357D01*
X74336428Y-110804642D02*
X75836428Y-110804642D01*
X75836428Y-111161785D01*
X75765000Y-111376071D01*
X75622142Y-111518928D01*
X75479285Y-111590357D01*
X75193571Y-111661785D01*
X74979285Y-111661785D01*
X74693571Y-111590357D01*
X74550714Y-111518928D01*
X74407857Y-111376071D01*
X74336428Y-111161785D01*
X74336428Y-110804642D01*
X72936428Y-105090357D02*
X71936428Y-105090357D01*
X73507857Y-104733214D02*
X72436428Y-104376071D01*
X72436428Y-105304642D01*
X73890000Y-106661785D02*
X73890000Y-107947500D01*
X72722142Y-107518928D02*
X72722142Y-107018928D01*
X71936428Y-107018928D02*
X73436428Y-107018928D01*
X73436428Y-107733214D01*
X73890000Y-107947500D02*
X73890000Y-109161785D01*
X71936428Y-109018928D02*
X71936428Y-108304642D01*
X73436428Y-108304642D01*
X73890000Y-109161785D02*
X73890000Y-110447500D01*
X72365000Y-109447500D02*
X72365000Y-110161785D01*
X71936428Y-109304642D02*
X73436428Y-109804642D01*
X71936428Y-110304642D01*
X73890000Y-110447500D02*
X73890000Y-111947500D01*
X73365000Y-111590357D02*
X73436428Y-111447500D01*
X73436428Y-111233214D01*
X73365000Y-111018928D01*
X73222142Y-110876071D01*
X73079285Y-110804642D01*
X72793571Y-110733214D01*
X72579285Y-110733214D01*
X72293571Y-110804642D01*
X72150714Y-110876071D01*
X72007857Y-111018928D01*
X71936428Y-111233214D01*
X71936428Y-111376071D01*
X72007857Y-111590357D01*
X72079285Y-111661785D01*
X72579285Y-111661785D01*
X72579285Y-111376071D01*
X71036428Y-97233214D02*
X71036428Y-96518928D01*
X70322142Y-96447500D01*
X70393571Y-96518928D01*
X70465000Y-96661785D01*
X70465000Y-97018928D01*
X70393571Y-97161785D01*
X70322142Y-97233214D01*
X70179285Y-97304642D01*
X69822142Y-97304642D01*
X69679285Y-97233214D01*
X69607857Y-97161785D01*
X69536428Y-97018928D01*
X69536428Y-96661785D01*
X69607857Y-96518928D01*
X69679285Y-96447500D01*
X71490000Y-98733214D02*
X71490000Y-100233214D01*
X69536428Y-99947500D02*
X70250714Y-99447500D01*
X69536428Y-99090357D02*
X71036428Y-99090357D01*
X71036428Y-99661785D01*
X70965000Y-99804642D01*
X70893571Y-99876071D01*
X70750714Y-99947500D01*
X70536428Y-99947500D01*
X70393571Y-99876071D01*
X70322142Y-99804642D01*
X70250714Y-99661785D01*
X70250714Y-99090357D01*
X71490000Y-100233214D02*
X71490000Y-101590357D01*
X70322142Y-100590357D02*
X70322142Y-101090357D01*
X69536428Y-101304642D02*
X69536428Y-100590357D01*
X71036428Y-100590357D01*
X71036428Y-101304642D01*
X71490000Y-101590357D02*
X71490000Y-103018928D01*
X69607857Y-101876071D02*
X69536428Y-102090357D01*
X69536428Y-102447500D01*
X69607857Y-102590357D01*
X69679285Y-102661785D01*
X69822142Y-102733214D01*
X69965000Y-102733214D01*
X70107857Y-102661785D01*
X70179285Y-102590357D01*
X70250714Y-102447500D01*
X70322142Y-102161785D01*
X70393571Y-102018928D01*
X70465000Y-101947500D01*
X70607857Y-101876071D01*
X70750714Y-101876071D01*
X70893571Y-101947500D01*
X70965000Y-102018928D01*
X71036428Y-102161785D01*
X71036428Y-102518928D01*
X70965000Y-102733214D01*
X71490000Y-103018928D02*
X71490000Y-104376071D01*
X70322142Y-103376071D02*
X70322142Y-103876071D01*
X69536428Y-104090357D02*
X69536428Y-103376071D01*
X71036428Y-103376071D01*
X71036428Y-104090357D01*
X71490000Y-104376071D02*
X71490000Y-105518928D01*
X71036428Y-104518928D02*
X71036428Y-105376071D01*
X69536428Y-104947500D02*
X71036428Y-104947500D01*
X71490000Y-105518928D02*
X71490000Y-106661785D01*
X71490000Y-106661785D02*
X71490000Y-107947500D01*
X70322142Y-107518928D02*
X70322142Y-107018928D01*
X69536428Y-107018928D02*
X71036428Y-107018928D01*
X71036428Y-107733214D01*
X71490000Y-107947500D02*
X71490000Y-109161785D01*
X69536428Y-109018928D02*
X69536428Y-108304642D01*
X71036428Y-108304642D01*
X71490000Y-109161785D02*
X71490000Y-110447500D01*
X69965000Y-109447500D02*
X69965000Y-110161785D01*
X69536428Y-109304642D02*
X71036428Y-109804642D01*
X69536428Y-110304642D01*
X71490000Y-110447500D02*
X71490000Y-111947500D01*
X70965000Y-111590357D02*
X71036428Y-111447500D01*
X71036428Y-111233214D01*
X70965000Y-111018928D01*
X70822142Y-110876071D01*
X70679285Y-110804642D01*
X70393571Y-110733214D01*
X70179285Y-110733214D01*
X69893571Y-110804642D01*
X69750714Y-110876071D01*
X69607857Y-111018928D01*
X69536428Y-111233214D01*
X69536428Y-111376071D01*
X69607857Y-111590357D01*
X69679285Y-111661785D01*
X70179285Y-111661785D01*
X70179285Y-111376071D01*
X68636428Y-104661785D02*
X68636428Y-104376071D01*
X68565000Y-104233214D01*
X68493571Y-104161785D01*
X68279285Y-104018928D01*
X67993571Y-103947500D01*
X67422142Y-103947500D01*
X67279285Y-104018928D01*
X67207857Y-104090357D01*
X67136428Y-104233214D01*
X67136428Y-104518928D01*
X67207857Y-104661785D01*
X67279285Y-104733214D01*
X67422142Y-104804642D01*
X67779285Y-104804642D01*
X67922142Y-104733214D01*
X67993571Y-104661785D01*
X68065000Y-104518928D01*
X68065000Y-104233214D01*
X67993571Y-104090357D01*
X67922142Y-104018928D01*
X67779285Y-103947500D01*
X67707857Y-107733214D02*
X67707857Y-108876071D01*
X67136428Y-108304642D02*
X68279285Y-108304642D01*
X68636428Y-110304642D02*
X68636428Y-109590357D01*
X67922142Y-109518928D01*
X67993571Y-109590357D01*
X68065000Y-109733214D01*
X68065000Y-110090357D01*
X67993571Y-110233214D01*
X67922142Y-110304642D01*
X67779285Y-110376071D01*
X67422142Y-110376071D01*
X67279285Y-110304642D01*
X67207857Y-110233214D01*
X67136428Y-110090357D01*
X67136428Y-109733214D01*
X67207857Y-109590357D01*
X67279285Y-109518928D01*
X68636428Y-110804642D02*
X67136428Y-111304642D01*
X68636428Y-111804642D01*
D11*
X137890000Y-83470000D02*
X141125000Y-83470000D01*
X137890000Y-88610000D02*
X137890000Y-83470000D01*
X134775000Y-88550000D02*
X137890000Y-88610000D01*
X134775000Y-91725000D02*
X134775000Y-88550000D01*
X141125000Y-91725000D02*
X134775000Y-91725000D01*
X141125000Y-83470000D02*
X141125000Y-91725000D01*
X148110000Y-79660000D02*
X146840000Y-79660000D01*
X148110000Y-77120000D02*
X148110000Y-79660000D01*
X141760000Y-77120000D02*
X148110000Y-77120000D01*
X141760000Y-77755000D02*
X141760000Y-77120000D01*
X141760000Y-86010000D02*
X144935000Y-86010000D01*
X141760000Y-77755000D02*
X141760000Y-86010000D01*
X146840000Y-86010000D02*
X144935000Y-86010000D01*
X146840000Y-79660000D02*
X146840000Y-86010000D01*
D10*
X135497619Y-78842380D02*
X135164285Y-78366190D01*
X134926190Y-78842380D02*
X134926190Y-77842380D01*
X135307142Y-77842380D01*
X135402380Y-77890000D01*
X135450000Y-77937619D01*
X135497619Y-78032857D01*
X135497619Y-78175714D01*
X135450000Y-78270952D01*
X135402380Y-78318571D01*
X135307142Y-78366190D01*
X134926190Y-78366190D01*
X135926190Y-78318571D02*
X136259523Y-78318571D01*
X136402380Y-78842380D02*
X135926190Y-78842380D01*
X135926190Y-77842380D01*
X136402380Y-77842380D01*
X136688095Y-77842380D02*
X137021428Y-78842380D01*
X137354761Y-77842380D01*
X137688095Y-78318571D02*
X138021428Y-78318571D01*
X138164285Y-78842380D02*
X137688095Y-78842380D01*
X137688095Y-77842380D01*
X138164285Y-77842380D01*
X139164285Y-78842380D02*
X138830952Y-78366190D01*
X138592857Y-78842380D02*
X138592857Y-77842380D01*
X138973809Y-77842380D01*
X139069047Y-77890000D01*
X139116666Y-77937619D01*
X139164285Y-78032857D01*
X139164285Y-78175714D01*
X139116666Y-78270952D01*
X139069047Y-78318571D01*
X138973809Y-78366190D01*
X138592857Y-78366190D01*
X139545238Y-78794761D02*
X139688095Y-78842380D01*
X139926190Y-78842380D01*
X140021428Y-78794761D01*
X140069047Y-78747142D01*
X140116666Y-78651904D01*
X140116666Y-78556666D01*
X140069047Y-78461428D01*
X140021428Y-78413809D01*
X139926190Y-78366190D01*
X139735714Y-78318571D01*
X139640476Y-78270952D01*
X139592857Y-78223333D01*
X139545238Y-78128095D01*
X139545238Y-78032857D01*
X139592857Y-77937619D01*
X139640476Y-77890000D01*
X139735714Y-77842380D01*
X139973809Y-77842380D01*
X140116666Y-77890000D01*
X140545238Y-78318571D02*
X140878571Y-78318571D01*
X141021428Y-78842380D02*
X140545238Y-78842380D01*
X140545238Y-77842380D01*
X141021428Y-77842380D01*
X142482619Y-90907380D02*
X142149285Y-90431190D01*
X141911190Y-90907380D02*
X141911190Y-89907380D01*
X142292142Y-89907380D01*
X142387380Y-89955000D01*
X142435000Y-90002619D01*
X142482619Y-90097857D01*
X142482619Y-90240714D01*
X142435000Y-90335952D01*
X142387380Y-90383571D01*
X142292142Y-90431190D01*
X141911190Y-90431190D01*
X142911190Y-90383571D02*
X143244523Y-90383571D01*
X143387380Y-90907380D02*
X142911190Y-90907380D01*
X142911190Y-89907380D01*
X143387380Y-89907380D01*
X143673095Y-89907380D02*
X144006428Y-90907380D01*
X144339761Y-89907380D01*
X144673095Y-90383571D02*
X145006428Y-90383571D01*
X145149285Y-90907380D02*
X144673095Y-90907380D01*
X144673095Y-89907380D01*
X145149285Y-89907380D01*
X146149285Y-90907380D02*
X145815952Y-90431190D01*
X145577857Y-90907380D02*
X145577857Y-89907380D01*
X145958809Y-89907380D01*
X146054047Y-89955000D01*
X146101666Y-90002619D01*
X146149285Y-90097857D01*
X146149285Y-90240714D01*
X146101666Y-90335952D01*
X146054047Y-90383571D01*
X145958809Y-90431190D01*
X145577857Y-90431190D01*
X146530238Y-90859761D02*
X146673095Y-90907380D01*
X146911190Y-90907380D01*
X147006428Y-90859761D01*
X147054047Y-90812142D01*
X147101666Y-90716904D01*
X147101666Y-90621666D01*
X147054047Y-90526428D01*
X147006428Y-90478809D01*
X146911190Y-90431190D01*
X146720714Y-90383571D01*
X146625476Y-90335952D01*
X146577857Y-90288333D01*
X146530238Y-90193095D01*
X146530238Y-90097857D01*
X146577857Y-90002619D01*
X146625476Y-89955000D01*
X146720714Y-89907380D01*
X146958809Y-89907380D01*
X147101666Y-89955000D01*
X147530238Y-90383571D02*
X147863571Y-90383571D01*
X148006428Y-90907380D02*
X147530238Y-90907380D01*
X147530238Y-89907380D01*
X148006428Y-89907380D01*
X142220714Y-78842380D02*
X142220714Y-77842380D01*
X142792142Y-78842380D01*
X142792142Y-77842380D01*
X143458809Y-77842380D02*
X143649285Y-77842380D01*
X143744523Y-77890000D01*
X143839761Y-77985238D01*
X143887380Y-78175714D01*
X143887380Y-78509047D01*
X143839761Y-78699523D01*
X143744523Y-78794761D01*
X143649285Y-78842380D01*
X143458809Y-78842380D01*
X143363571Y-78794761D01*
X143268333Y-78699523D01*
X143220714Y-78509047D01*
X143220714Y-78175714D01*
X143268333Y-77985238D01*
X143363571Y-77890000D01*
X143458809Y-77842380D01*
X144887380Y-78842380D02*
X144554047Y-78366190D01*
X144315952Y-78842380D02*
X144315952Y-77842380D01*
X144696904Y-77842380D01*
X144792142Y-77890000D01*
X144839761Y-77937619D01*
X144887380Y-78032857D01*
X144887380Y-78175714D01*
X144839761Y-78270952D01*
X144792142Y-78318571D01*
X144696904Y-78366190D01*
X144315952Y-78366190D01*
X145315952Y-78842380D02*
X145315952Y-77842380D01*
X145649285Y-78556666D01*
X145982619Y-77842380D01*
X145982619Y-78842380D01*
X146411190Y-78556666D02*
X146887380Y-78556666D01*
X146315952Y-78842380D02*
X146649285Y-77842380D01*
X146982619Y-78842380D01*
X147792142Y-78842380D02*
X147315952Y-78842380D01*
X147315952Y-77842380D01*
X135235714Y-90907380D02*
X135235714Y-89907380D01*
X135807142Y-90907380D01*
X135807142Y-89907380D01*
X136473809Y-89907380D02*
X136664285Y-89907380D01*
X136759523Y-89955000D01*
X136854761Y-90050238D01*
X136902380Y-90240714D01*
X136902380Y-90574047D01*
X136854761Y-90764523D01*
X136759523Y-90859761D01*
X136664285Y-90907380D01*
X136473809Y-90907380D01*
X136378571Y-90859761D01*
X136283333Y-90764523D01*
X136235714Y-90574047D01*
X136235714Y-90240714D01*
X136283333Y-90050238D01*
X136378571Y-89955000D01*
X136473809Y-89907380D01*
X137902380Y-90907380D02*
X137569047Y-90431190D01*
X137330952Y-90907380D02*
X137330952Y-89907380D01*
X137711904Y-89907380D01*
X137807142Y-89955000D01*
X137854761Y-90002619D01*
X137902380Y-90097857D01*
X137902380Y-90240714D01*
X137854761Y-90335952D01*
X137807142Y-90383571D01*
X137711904Y-90431190D01*
X137330952Y-90431190D01*
X138330952Y-90907380D02*
X138330952Y-89907380D01*
X138664285Y-90621666D01*
X138997619Y-89907380D01*
X138997619Y-90907380D01*
X139426190Y-90621666D02*
X139902380Y-90621666D01*
X139330952Y-90907380D02*
X139664285Y-89907380D01*
X139997619Y-90907380D01*
X140807142Y-90907380D02*
X140330952Y-90907380D01*
X140330952Y-89907380D01*
X148038809Y-92812380D02*
X147705476Y-92336190D01*
X147467380Y-92812380D02*
X147467380Y-91812380D01*
X147848333Y-91812380D01*
X147943571Y-91860000D01*
X147991190Y-91907619D01*
X148038809Y-92002857D01*
X148038809Y-92145714D01*
X147991190Y-92240952D01*
X147943571Y-92288571D01*
X147848333Y-92336190D01*
X147467380Y-92336190D01*
X148372142Y-91812380D02*
X149038809Y-92812380D01*
X149038809Y-91812380D02*
X148372142Y-92812380D01*
X150372142Y-91812380D02*
X150562619Y-91812380D01*
X150657857Y-91860000D01*
X150753095Y-91955238D01*
X150800714Y-92145714D01*
X150800714Y-92479047D01*
X150753095Y-92669523D01*
X150657857Y-92764761D01*
X150562619Y-92812380D01*
X150372142Y-92812380D01*
X150276904Y-92764761D01*
X150181666Y-92669523D01*
X150134047Y-92479047D01*
X150134047Y-92145714D01*
X150181666Y-91955238D01*
X150276904Y-91860000D01*
X150372142Y-91812380D01*
X151229285Y-91812380D02*
X151229285Y-92621904D01*
X151276904Y-92717142D01*
X151324523Y-92764761D01*
X151419761Y-92812380D01*
X151610238Y-92812380D01*
X151705476Y-92764761D01*
X151753095Y-92717142D01*
X151800714Y-92621904D01*
X151800714Y-91812380D01*
X152134047Y-91812380D02*
X152705476Y-91812380D01*
X152419761Y-92812380D02*
X152419761Y-91812380D01*
X148110238Y-79112380D02*
X148681666Y-79112380D01*
X148395952Y-80112380D02*
X148395952Y-79112380D01*
X148919761Y-79112380D02*
X149586428Y-80112380D01*
X149586428Y-79112380D02*
X148919761Y-80112380D01*
X150729285Y-80112380D02*
X150729285Y-79112380D01*
X151205476Y-80112380D02*
X151205476Y-79112380D01*
X151776904Y-80112380D01*
X151776904Y-79112380D01*
X151833333Y-94452380D02*
X151500000Y-93976190D01*
X151261904Y-94452380D02*
X151261904Y-93452380D01*
X151642857Y-93452380D01*
X151738095Y-93500000D01*
X151785714Y-93547619D01*
X151833333Y-93642857D01*
X151833333Y-93785714D01*
X151785714Y-93880952D01*
X151738095Y-93928571D01*
X151642857Y-93976190D01*
X151261904Y-93976190D01*
X152166666Y-93452380D02*
X152833333Y-94452380D01*
X152833333Y-93452380D02*
X152166666Y-94452380D01*
X151238095Y-111452380D02*
X151809523Y-111452380D01*
X151523809Y-112452380D02*
X151523809Y-111452380D01*
X152047619Y-111452380D02*
X152714285Y-112452380D01*
X152714285Y-111452380D02*
X152047619Y-112452380D01*
X79616428Y-39340357D02*
X79616428Y-38483214D01*
X79616428Y-38911785D02*
X81116428Y-38911785D01*
X80902142Y-38768928D01*
X80759285Y-38626071D01*
X80687857Y-38483214D01*
X81570000Y-40768928D02*
X81570000Y-42268928D01*
X79759285Y-41983214D02*
X79687857Y-41911785D01*
X79616428Y-41697500D01*
X79616428Y-41554642D01*
X79687857Y-41340357D01*
X79830714Y-41197500D01*
X79973571Y-41126071D01*
X80259285Y-41054642D01*
X80473571Y-41054642D01*
X80759285Y-41126071D01*
X80902142Y-41197500D01*
X81045000Y-41340357D01*
X81116428Y-41554642D01*
X81116428Y-41697500D01*
X81045000Y-41911785D01*
X80973571Y-41983214D01*
X81570000Y-42268928D02*
X81570000Y-43483214D01*
X79616428Y-43340357D02*
X79616428Y-42626071D01*
X81116428Y-42626071D01*
X81570000Y-43483214D02*
X81570000Y-45054642D01*
X81116428Y-44126071D02*
X81116428Y-44411785D01*
X81045000Y-44554642D01*
X80902142Y-44697500D01*
X80616428Y-44768928D01*
X80116428Y-44768928D01*
X79830714Y-44697500D01*
X79687857Y-44554642D01*
X79616428Y-44411785D01*
X79616428Y-44126071D01*
X79687857Y-43983214D01*
X79830714Y-43840357D01*
X80116428Y-43768928D01*
X80616428Y-43768928D01*
X80902142Y-43840357D01*
X81045000Y-43983214D01*
X81116428Y-44126071D01*
X81570000Y-45054642D02*
X81570000Y-46554642D01*
X79759285Y-46268928D02*
X79687857Y-46197500D01*
X79616428Y-45983214D01*
X79616428Y-45840357D01*
X79687857Y-45626071D01*
X79830714Y-45483214D01*
X79973571Y-45411785D01*
X80259285Y-45340357D01*
X80473571Y-45340357D01*
X80759285Y-45411785D01*
X80902142Y-45483214D01*
X81045000Y-45626071D01*
X81116428Y-45840357D01*
X81116428Y-45983214D01*
X81045000Y-46197500D01*
X80973571Y-46268928D01*
X81570000Y-46554642D02*
X81570000Y-48054642D01*
X79616428Y-46911785D02*
X81116428Y-46911785D01*
X79616428Y-47768928D02*
X80473571Y-47126071D01*
X81116428Y-47768928D02*
X80259285Y-46911785D01*
X78573571Y-38483214D02*
X78645000Y-38554642D01*
X78716428Y-38697500D01*
X78716428Y-39054642D01*
X78645000Y-39197500D01*
X78573571Y-39268928D01*
X78430714Y-39340357D01*
X78287857Y-39340357D01*
X78073571Y-39268928D01*
X77216428Y-38411785D01*
X77216428Y-39340357D01*
X79170000Y-40768928D02*
X79170000Y-42268928D01*
X77216428Y-41126071D02*
X78716428Y-41126071D01*
X78716428Y-41483214D01*
X78645000Y-41697500D01*
X78502142Y-41840357D01*
X78359285Y-41911785D01*
X78073571Y-41983214D01*
X77859285Y-41983214D01*
X77573571Y-41911785D01*
X77430714Y-41840357D01*
X77287857Y-41697500D01*
X77216428Y-41483214D01*
X77216428Y-41126071D01*
X79170000Y-42268928D02*
X79170000Y-43554642D01*
X77645000Y-42554642D02*
X77645000Y-43268928D01*
X77216428Y-42411785D02*
X78716428Y-42911785D01*
X77216428Y-43411785D01*
X79170000Y-43554642D02*
X79170000Y-44697500D01*
X78716428Y-43697500D02*
X78716428Y-44554642D01*
X77216428Y-44126071D02*
X78716428Y-44126071D01*
X79170000Y-44697500D02*
X79170000Y-45983214D01*
X77645000Y-44983214D02*
X77645000Y-45697500D01*
X77216428Y-44840357D02*
X78716428Y-45340357D01*
X77216428Y-45840357D01*
X76316428Y-38411785D02*
X76316428Y-39340357D01*
X75745000Y-38840357D01*
X75745000Y-39054642D01*
X75673571Y-39197500D01*
X75602142Y-39268928D01*
X75459285Y-39340357D01*
X75102142Y-39340357D01*
X74959285Y-39268928D01*
X74887857Y-39197500D01*
X74816428Y-39054642D01*
X74816428Y-38626071D01*
X74887857Y-38483214D01*
X74959285Y-38411785D01*
X76245000Y-43054642D02*
X76316428Y-42911785D01*
X76316428Y-42697500D01*
X76245000Y-42483214D01*
X76102142Y-42340357D01*
X75959285Y-42268928D01*
X75673571Y-42197500D01*
X75459285Y-42197500D01*
X75173571Y-42268928D01*
X75030714Y-42340357D01*
X74887857Y-42483214D01*
X74816428Y-42697500D01*
X74816428Y-42840357D01*
X74887857Y-43054642D01*
X74959285Y-43126071D01*
X75459285Y-43126071D01*
X75459285Y-42840357D01*
X74816428Y-43768928D02*
X76316428Y-43768928D01*
X74816428Y-44626071D01*
X76316428Y-44626071D01*
X74816428Y-45340357D02*
X76316428Y-45340357D01*
X76316428Y-45697500D01*
X76245000Y-45911785D01*
X76102142Y-46054642D01*
X75959285Y-46126071D01*
X75673571Y-46197500D01*
X75459285Y-46197500D01*
X75173571Y-46126071D01*
X75030714Y-46054642D01*
X74887857Y-45911785D01*
X74816428Y-45697500D01*
X74816428Y-45340357D01*
X73416428Y-39197500D02*
X72416428Y-39197500D01*
X73987857Y-38840357D02*
X72916428Y-38483214D01*
X72916428Y-39411785D01*
X74370000Y-40768928D02*
X74370000Y-42054642D01*
X73202142Y-41626071D02*
X73202142Y-41126071D01*
X72416428Y-41126071D02*
X73916428Y-41126071D01*
X73916428Y-41840357D01*
X74370000Y-42054642D02*
X74370000Y-43268928D01*
X72416428Y-43126071D02*
X72416428Y-42411785D01*
X73916428Y-42411785D01*
X74370000Y-43268928D02*
X74370000Y-44554642D01*
X72845000Y-43554642D02*
X72845000Y-44268928D01*
X72416428Y-43411785D02*
X73916428Y-43911785D01*
X72416428Y-44411785D01*
X74370000Y-44554642D02*
X74370000Y-46054642D01*
X73845000Y-45697500D02*
X73916428Y-45554642D01*
X73916428Y-45340357D01*
X73845000Y-45126071D01*
X73702142Y-44983214D01*
X73559285Y-44911785D01*
X73273571Y-44840357D01*
X73059285Y-44840357D01*
X72773571Y-44911785D01*
X72630714Y-44983214D01*
X72487857Y-45126071D01*
X72416428Y-45340357D01*
X72416428Y-45483214D01*
X72487857Y-45697500D01*
X72559285Y-45768928D01*
X73059285Y-45768928D01*
X73059285Y-45483214D01*
X71516428Y-39268928D02*
X71516428Y-38554642D01*
X70802142Y-38483214D01*
X70873571Y-38554642D01*
X70945000Y-38697500D01*
X70945000Y-39054642D01*
X70873571Y-39197500D01*
X70802142Y-39268928D01*
X70659285Y-39340357D01*
X70302142Y-39340357D01*
X70159285Y-39268928D01*
X70087857Y-39197500D01*
X70016428Y-39054642D01*
X70016428Y-38697500D01*
X70087857Y-38554642D01*
X70159285Y-38483214D01*
X71970000Y-40768928D02*
X71970000Y-42268928D01*
X70016428Y-41983214D02*
X70730714Y-41483214D01*
X70016428Y-41126071D02*
X71516428Y-41126071D01*
X71516428Y-41697500D01*
X71445000Y-41840357D01*
X71373571Y-41911785D01*
X71230714Y-41983214D01*
X71016428Y-41983214D01*
X70873571Y-41911785D01*
X70802142Y-41840357D01*
X70730714Y-41697500D01*
X70730714Y-41126071D01*
X71970000Y-42268928D02*
X71970000Y-43626071D01*
X70802142Y-42626071D02*
X70802142Y-43126071D01*
X70016428Y-43340357D02*
X70016428Y-42626071D01*
X71516428Y-42626071D01*
X71516428Y-43340357D01*
X71970000Y-43626071D02*
X71970000Y-45054642D01*
X70087857Y-43911785D02*
X70016428Y-44126071D01*
X70016428Y-44483214D01*
X70087857Y-44626071D01*
X70159285Y-44697500D01*
X70302142Y-44768928D01*
X70445000Y-44768928D01*
X70587857Y-44697500D01*
X70659285Y-44626071D01*
X70730714Y-44483214D01*
X70802142Y-44197500D01*
X70873571Y-44054642D01*
X70945000Y-43983214D01*
X71087857Y-43911785D01*
X71230714Y-43911785D01*
X71373571Y-43983214D01*
X71445000Y-44054642D01*
X71516428Y-44197500D01*
X71516428Y-44554642D01*
X71445000Y-44768928D01*
X71970000Y-45054642D02*
X71970000Y-46411785D01*
X70802142Y-45411785D02*
X70802142Y-45911785D01*
X70016428Y-46126071D02*
X70016428Y-45411785D01*
X71516428Y-45411785D01*
X71516428Y-46126071D01*
X71970000Y-46411785D02*
X71970000Y-47554642D01*
X71516428Y-46554642D02*
X71516428Y-47411785D01*
X70016428Y-46983214D02*
X71516428Y-46983214D01*
X71970000Y-47554642D02*
X71970000Y-48697500D01*
X71970000Y-48697500D02*
X71970000Y-49983214D01*
X70802142Y-49554642D02*
X70802142Y-49054642D01*
X70016428Y-49054642D02*
X71516428Y-49054642D01*
X71516428Y-49768928D01*
X71970000Y-49983214D02*
X71970000Y-51197500D01*
X70016428Y-51054642D02*
X70016428Y-50340357D01*
X71516428Y-50340357D01*
X71970000Y-51197500D02*
X71970000Y-52483214D01*
X70445000Y-51483214D02*
X70445000Y-52197500D01*
X70016428Y-51340357D02*
X71516428Y-51840357D01*
X70016428Y-52340357D01*
X71970000Y-52483214D02*
X71970000Y-53983214D01*
X71445000Y-53626071D02*
X71516428Y-53483214D01*
X71516428Y-53268928D01*
X71445000Y-53054642D01*
X71302142Y-52911785D01*
X71159285Y-52840357D01*
X70873571Y-52768928D01*
X70659285Y-52768928D01*
X70373571Y-52840357D01*
X70230714Y-52911785D01*
X70087857Y-53054642D01*
X70016428Y-53268928D01*
X70016428Y-53411785D01*
X70087857Y-53626071D01*
X70159285Y-53697500D01*
X70659285Y-53697500D01*
X70659285Y-53411785D01*
X69116428Y-39197500D02*
X69116428Y-38911785D01*
X69045000Y-38768928D01*
X68973571Y-38697500D01*
X68759285Y-38554642D01*
X68473571Y-38483214D01*
X67902142Y-38483214D01*
X67759285Y-38554642D01*
X67687857Y-38626071D01*
X67616428Y-38768928D01*
X67616428Y-39054642D01*
X67687857Y-39197500D01*
X67759285Y-39268928D01*
X67902142Y-39340357D01*
X68259285Y-39340357D01*
X68402142Y-39268928D01*
X68473571Y-39197500D01*
X68545000Y-39054642D01*
X68545000Y-38768928D01*
X68473571Y-38626071D01*
X68402142Y-38554642D01*
X68259285Y-38483214D01*
X68187857Y-42268928D02*
X68187857Y-43411785D01*
X67616428Y-42840357D02*
X68759285Y-42840357D01*
X69116428Y-44840357D02*
X69116428Y-44126071D01*
X68402142Y-44054642D01*
X68473571Y-44126071D01*
X68545000Y-44268928D01*
X68545000Y-44626071D01*
X68473571Y-44768928D01*
X68402142Y-44840357D01*
X68259285Y-44911785D01*
X67902142Y-44911785D01*
X67759285Y-44840357D01*
X67687857Y-44768928D01*
X67616428Y-44626071D01*
X67616428Y-44268928D01*
X67687857Y-44126071D01*
X67759285Y-44054642D01*
X69116428Y-45340357D02*
X67616428Y-45840357D01*
X69116428Y-46340357D01*
D12*
X104410148Y-24714285D02*
X105743482Y-24714285D01*
X106053005Y-26809523D02*
X104148244Y-26809523D01*
X104648244Y-22809523D01*
X106553005Y-22809523D01*
X108624434Y-24523809D02*
X108267291Y-24333333D01*
X108100625Y-24142857D01*
X107957767Y-23761904D01*
X107981577Y-23571428D01*
X108219672Y-23190476D01*
X108433958Y-23000000D01*
X108838720Y-22809523D01*
X109600625Y-22809523D01*
X109957767Y-23000000D01*
X110124434Y-23190476D01*
X110267291Y-23571428D01*
X110243482Y-23761904D01*
X110005386Y-24142857D01*
X109791101Y-24333333D01*
X109386339Y-24523809D01*
X108624434Y-24523809D01*
X108219672Y-24714285D01*
X108005386Y-24904761D01*
X107767291Y-25285714D01*
X107672053Y-26047619D01*
X107814910Y-26428571D01*
X107981577Y-26619047D01*
X108338720Y-26809523D01*
X109100625Y-26809523D01*
X109505386Y-26619047D01*
X109719672Y-26428571D01*
X109957767Y-26047619D01*
X110053005Y-25285714D01*
X109910148Y-24904761D01*
X109743482Y-24714285D01*
X109386339Y-24523809D01*
X114957767Y-22619047D02*
X110886339Y-27761904D01*
X118053005Y-26809523D02*
X116957767Y-24904761D01*
X115767291Y-26809523D02*
X116267291Y-22809523D01*
X117791101Y-22809523D01*
X118148244Y-23000000D01*
X118314910Y-23190476D01*
X118457767Y-23571428D01*
X118386339Y-24142857D01*
X118148244Y-24523809D01*
X117933958Y-24714285D01*
X117529196Y-24904761D01*
X116005386Y-24904761D01*
X119600625Y-26619047D02*
X120148244Y-26809523D01*
X121100625Y-26809523D01*
X121505386Y-26619047D01*
X121719672Y-26428571D01*
X121957767Y-26047619D01*
X122005386Y-25666666D01*
X121862529Y-25285714D01*
X121695863Y-25095238D01*
X121338720Y-24904761D01*
X120600625Y-24714285D01*
X120243482Y-24523809D01*
X120076815Y-24333333D01*
X119933958Y-23952380D01*
X119981577Y-23571428D01*
X120219672Y-23190476D01*
X120433958Y-23000000D01*
X120838720Y-22809523D01*
X121791101Y-22809523D01*
X122338720Y-23000000D01*
X123838720Y-23190476D02*
X124053005Y-23000000D01*
X124457767Y-22809523D01*
X125410148Y-22809523D01*
X125767291Y-23000000D01*
X125933958Y-23190476D01*
X126076815Y-23571428D01*
X126029196Y-23952380D01*
X125767291Y-24523809D01*
X123195863Y-26809523D01*
X125672053Y-26809523D01*
X127505386Y-22809523D02*
X129981577Y-22809523D01*
X128457767Y-24333333D01*
X129029196Y-24333333D01*
X129386339Y-24523809D01*
X129553005Y-24714285D01*
X129695863Y-25095238D01*
X129576815Y-26047619D01*
X129338720Y-26428571D01*
X129124434Y-26619047D01*
X128719672Y-26809523D01*
X127576815Y-26809523D01*
X127219672Y-26619047D01*
X127053005Y-26428571D01*
X131457767Y-23190476D02*
X131672053Y-23000000D01*
X132076815Y-22809523D01*
X133029196Y-22809523D01*
X133386339Y-23000000D01*
X133553005Y-23190476D01*
X133695863Y-23571428D01*
X133648244Y-23952380D01*
X133386339Y-24523809D01*
X130814910Y-26809523D01*
X133291101Y-26809523D01*
D10*
X71890238Y-120547380D02*
X72080714Y-120547380D01*
X72175952Y-120595000D01*
X72271190Y-120690238D01*
X72318809Y-120880714D01*
X72318809Y-121214047D01*
X72271190Y-121404523D01*
X72175952Y-121499761D01*
X72080714Y-121547380D01*
X71890238Y-121547380D01*
X71795000Y-121499761D01*
X71699761Y-121404523D01*
X71652142Y-121214047D01*
X71652142Y-120880714D01*
X71699761Y-120690238D01*
X71795000Y-120595000D01*
X71890238Y-120547380D01*
X72747380Y-120547380D02*
X72747380Y-121356904D01*
X72795000Y-121452142D01*
X72842619Y-121499761D01*
X72937857Y-121547380D01*
X73128333Y-121547380D01*
X73223571Y-121499761D01*
X73271190Y-121452142D01*
X73318809Y-121356904D01*
X73318809Y-120547380D01*
X73652142Y-120547380D02*
X74223571Y-120547380D01*
X73937857Y-121547380D02*
X73937857Y-120547380D01*
X74556904Y-121547380D02*
X74556904Y-120547380D01*
X74937857Y-120547380D01*
X75033095Y-120595000D01*
X75080714Y-120642619D01*
X75128333Y-120737857D01*
X75128333Y-120880714D01*
X75080714Y-120975952D01*
X75033095Y-121023571D01*
X74937857Y-121071190D01*
X74556904Y-121071190D01*
X75556904Y-120547380D02*
X75556904Y-121356904D01*
X75604523Y-121452142D01*
X75652142Y-121499761D01*
X75747380Y-121547380D01*
X75937857Y-121547380D01*
X76033095Y-121499761D01*
X76080714Y-121452142D01*
X76128333Y-121356904D01*
X76128333Y-120547380D01*
X76461666Y-120547380D02*
X77033095Y-120547380D01*
X76747380Y-121547380D02*
X76747380Y-120547380D01*
X70033095Y-122197380D02*
X70604523Y-122197380D01*
X70318809Y-123197380D02*
X70318809Y-122197380D01*
X71128333Y-122197380D02*
X71318809Y-122197380D01*
X71414047Y-122245000D01*
X71509285Y-122340238D01*
X71556904Y-122530714D01*
X71556904Y-122864047D01*
X71509285Y-123054523D01*
X71414047Y-123149761D01*
X71318809Y-123197380D01*
X71128333Y-123197380D01*
X71033095Y-123149761D01*
X70937857Y-123054523D01*
X70890238Y-122864047D01*
X70890238Y-122530714D01*
X70937857Y-122340238D01*
X71033095Y-122245000D01*
X71128333Y-122197380D01*
X72747380Y-122673571D02*
X73080714Y-122673571D01*
X73223571Y-123197380D02*
X72747380Y-123197380D01*
X72747380Y-122197380D01*
X73223571Y-122197380D01*
X73652142Y-123197380D02*
X73652142Y-122197380D01*
X73890238Y-122197380D01*
X74033095Y-122245000D01*
X74128333Y-122340238D01*
X74175952Y-122435476D01*
X74223571Y-122625952D01*
X74223571Y-122768809D01*
X74175952Y-122959285D01*
X74128333Y-123054523D01*
X74033095Y-123149761D01*
X73890238Y-123197380D01*
X73652142Y-123197380D01*
X74652142Y-122197380D02*
X74652142Y-123006904D01*
X74699761Y-123102142D01*
X74747380Y-123149761D01*
X74842619Y-123197380D01*
X75033095Y-123197380D01*
X75128333Y-123149761D01*
X75175952Y-123102142D01*
X75223571Y-123006904D01*
X75223571Y-122197380D01*
X76271190Y-123102142D02*
X76223571Y-123149761D01*
X76080714Y-123197380D01*
X75985476Y-123197380D01*
X75842619Y-123149761D01*
X75747380Y-123054523D01*
X75699761Y-122959285D01*
X75652142Y-122768809D01*
X75652142Y-122625952D01*
X75699761Y-122435476D01*
X75747380Y-122340238D01*
X75842619Y-122245000D01*
X75985476Y-122197380D01*
X76080714Y-122197380D01*
X76223571Y-122245000D01*
X76271190Y-122292619D01*
X76699761Y-122816428D02*
X77461666Y-122816428D01*
X78080714Y-122625952D02*
X77985476Y-122578333D01*
X77937857Y-122530714D01*
X77890238Y-122435476D01*
X77890238Y-122387857D01*
X77937857Y-122292619D01*
X77985476Y-122245000D01*
X78080714Y-122197380D01*
X78271190Y-122197380D01*
X78366428Y-122245000D01*
X78414047Y-122292619D01*
X78461666Y-122387857D01*
X78461666Y-122435476D01*
X78414047Y-122530714D01*
X78366428Y-122578333D01*
X78271190Y-122625952D01*
X78080714Y-122625952D01*
X77985476Y-122673571D01*
X77937857Y-122721190D01*
X77890238Y-122816428D01*
X77890238Y-123006904D01*
X77937857Y-123102142D01*
X77985476Y-123149761D01*
X78080714Y-123197380D01*
X78271190Y-123197380D01*
X78366428Y-123149761D01*
X78414047Y-123102142D01*
X78461666Y-123006904D01*
X78461666Y-122816428D01*
X78414047Y-122721190D01*
X78366428Y-122673571D01*
X78271190Y-122625952D01*
X64246666Y-26297380D02*
X64246666Y-25297380D01*
X64722857Y-26297380D02*
X64722857Y-25297380D01*
X65294285Y-26297380D01*
X65294285Y-25297380D01*
X65770476Y-26297380D02*
X65770476Y-25297380D01*
X66151428Y-25297380D01*
X66246666Y-25345000D01*
X66294285Y-25392619D01*
X66341904Y-25487857D01*
X66341904Y-25630714D01*
X66294285Y-25725952D01*
X66246666Y-25773571D01*
X66151428Y-25821190D01*
X65770476Y-25821190D01*
X66770476Y-25297380D02*
X66770476Y-26106904D01*
X66818095Y-26202142D01*
X66865714Y-26249761D01*
X66960952Y-26297380D01*
X67151428Y-26297380D01*
X67246666Y-26249761D01*
X67294285Y-26202142D01*
X67341904Y-26106904D01*
X67341904Y-25297380D01*
X67675238Y-25297380D02*
X68246666Y-25297380D01*
X67960952Y-26297380D02*
X67960952Y-25297380D01*
X69675238Y-25773571D02*
X69341904Y-25773571D01*
X69341904Y-26297380D02*
X69341904Y-25297380D01*
X69818095Y-25297380D01*
X70770476Y-26297380D02*
X70437142Y-25821190D01*
X70199047Y-26297380D02*
X70199047Y-25297380D01*
X70580000Y-25297380D01*
X70675238Y-25345000D01*
X70722857Y-25392619D01*
X70770476Y-25487857D01*
X70770476Y-25630714D01*
X70722857Y-25725952D01*
X70675238Y-25773571D01*
X70580000Y-25821190D01*
X70199047Y-25821190D01*
X71389523Y-25297380D02*
X71580000Y-25297380D01*
X71675238Y-25345000D01*
X71770476Y-25440238D01*
X71818095Y-25630714D01*
X71818095Y-25964047D01*
X71770476Y-26154523D01*
X71675238Y-26249761D01*
X71580000Y-26297380D01*
X71389523Y-26297380D01*
X71294285Y-26249761D01*
X71199047Y-26154523D01*
X71151428Y-25964047D01*
X71151428Y-25630714D01*
X71199047Y-25440238D01*
X71294285Y-25345000D01*
X71389523Y-25297380D01*
X72246666Y-26297380D02*
X72246666Y-25297380D01*
X72580000Y-26011666D01*
X72913333Y-25297380D01*
X72913333Y-26297380D01*
X65746666Y-27423571D02*
X66080000Y-27423571D01*
X66222857Y-27947380D02*
X65746666Y-27947380D01*
X65746666Y-26947380D01*
X66222857Y-26947380D01*
X66651428Y-27947380D02*
X66651428Y-26947380D01*
X66889523Y-26947380D01*
X67032380Y-26995000D01*
X67127619Y-27090238D01*
X67175238Y-27185476D01*
X67222857Y-27375952D01*
X67222857Y-27518809D01*
X67175238Y-27709285D01*
X67127619Y-27804523D01*
X67032380Y-27899761D01*
X66889523Y-27947380D01*
X66651428Y-27947380D01*
X67651428Y-26947380D02*
X67651428Y-27756904D01*
X67699047Y-27852142D01*
X67746666Y-27899761D01*
X67841904Y-27947380D01*
X68032380Y-27947380D01*
X68127619Y-27899761D01*
X68175238Y-27852142D01*
X68222857Y-27756904D01*
X68222857Y-26947380D01*
X69270476Y-27852142D02*
X69222857Y-27899761D01*
X69080000Y-27947380D01*
X68984761Y-27947380D01*
X68841904Y-27899761D01*
X68746666Y-27804523D01*
X68699047Y-27709285D01*
X68651428Y-27518809D01*
X68651428Y-27375952D01*
X68699047Y-27185476D01*
X68746666Y-27090238D01*
X68841904Y-26995000D01*
X68984761Y-26947380D01*
X69080000Y-26947380D01*
X69222857Y-26995000D01*
X69270476Y-27042619D01*
X69699047Y-27566428D02*
X70460952Y-27566428D01*
X71080000Y-27375952D02*
X70984761Y-27328333D01*
X70937142Y-27280714D01*
X70889523Y-27185476D01*
X70889523Y-27137857D01*
X70937142Y-27042619D01*
X70984761Y-26995000D01*
X71080000Y-26947380D01*
X71270476Y-26947380D01*
X71365714Y-26995000D01*
X71413333Y-27042619D01*
X71460952Y-27137857D01*
X71460952Y-27185476D01*
X71413333Y-27280714D01*
X71365714Y-27328333D01*
X71270476Y-27375952D01*
X71080000Y-27375952D01*
X70984761Y-27423571D01*
X70937142Y-27471190D01*
X70889523Y-27566428D01*
X70889523Y-27756904D01*
X70937142Y-27852142D01*
X70984761Y-27899761D01*
X71080000Y-27947380D01*
X71270476Y-27947380D01*
X71365714Y-27899761D01*
X71413333Y-27852142D01*
X71460952Y-27756904D01*
X71460952Y-27566428D01*
X71413333Y-27471190D01*
X71365714Y-27423571D01*
X71270476Y-27375952D01*
D11*
%TO.C,J11*%
X83495000Y-37040000D02*
X83495000Y-35790000D01*
X82245000Y-37040000D02*
X83495000Y-37040000D01*
X66345000Y-31540000D02*
X74395000Y-31540000D01*
X66345000Y-34490000D02*
X66345000Y-31540000D01*
X65595000Y-34490000D02*
X66345000Y-34490000D01*
X82445000Y-31540000D02*
X74395000Y-31540000D01*
X82445000Y-34490000D02*
X82445000Y-31540000D01*
X83195000Y-34490000D02*
X82445000Y-34490000D01*
X65595000Y-36740000D02*
X67395000Y-36740000D01*
X65595000Y-35990000D02*
X65595000Y-36740000D01*
X67395000Y-35990000D02*
X65595000Y-35990000D01*
X67395000Y-36740000D02*
X67395000Y-35990000D01*
X81395000Y-36740000D02*
X83195000Y-36740000D01*
X81395000Y-35990000D02*
X81395000Y-36740000D01*
X83195000Y-35990000D02*
X81395000Y-35990000D01*
X83195000Y-36740000D02*
X83195000Y-35990000D01*
X68895000Y-36740000D02*
X79895000Y-36740000D01*
X68895000Y-35990000D02*
X68895000Y-36740000D01*
X79895000Y-35990000D02*
X68895000Y-35990000D01*
X79895000Y-36740000D02*
X79895000Y-35990000D01*
X65585000Y-36750000D02*
X83205000Y-36750000D01*
X65585000Y-30780000D02*
X65585000Y-36750000D01*
X83205000Y-30780000D02*
X65585000Y-30780000D01*
X83205000Y-36750000D02*
X83205000Y-30780000D01*
%TO.C,J10*%
X83495000Y-119590000D02*
X83495000Y-118340000D01*
X82245000Y-119590000D02*
X83495000Y-119590000D01*
X66345000Y-114090000D02*
X74395000Y-114090000D01*
X66345000Y-117040000D02*
X66345000Y-114090000D01*
X65595000Y-117040000D02*
X66345000Y-117040000D01*
X82445000Y-114090000D02*
X74395000Y-114090000D01*
X82445000Y-117040000D02*
X82445000Y-114090000D01*
X83195000Y-117040000D02*
X82445000Y-117040000D01*
X65595000Y-119290000D02*
X67395000Y-119290000D01*
X65595000Y-118540000D02*
X65595000Y-119290000D01*
X67395000Y-118540000D02*
X65595000Y-118540000D01*
X67395000Y-119290000D02*
X67395000Y-118540000D01*
X81395000Y-119290000D02*
X83195000Y-119290000D01*
X81395000Y-118540000D02*
X81395000Y-119290000D01*
X83195000Y-118540000D02*
X81395000Y-118540000D01*
X83195000Y-119290000D02*
X83195000Y-118540000D01*
X68895000Y-119290000D02*
X79895000Y-119290000D01*
X68895000Y-118540000D02*
X68895000Y-119290000D01*
X79895000Y-118540000D02*
X68895000Y-118540000D01*
X79895000Y-119290000D02*
X79895000Y-118540000D01*
X65585000Y-119300000D02*
X83205000Y-119300000D01*
X65585000Y-113330000D02*
X65585000Y-119300000D01*
X83205000Y-113330000D02*
X65585000Y-113330000D01*
X83205000Y-119300000D02*
X83205000Y-113330000D01*
%TO.C,J3*%
X142540000Y-80870000D02*
X143870000Y-80870000D01*
X142540000Y-82200000D02*
X142540000Y-80870000D01*
X142540000Y-83470000D02*
X145200000Y-83470000D01*
X145200000Y-83470000D02*
X145200000Y-88610000D01*
X142540000Y-83470000D02*
X142540000Y-88610000D01*
X142540000Y-88610000D02*
X145200000Y-88610000D01*
%TO.C,J2*%
X137890000Y-80870000D02*
X139220000Y-80870000D01*
X137890000Y-82200000D02*
X137890000Y-80870000D01*
X137890000Y-83470000D02*
X140550000Y-83470000D01*
X140550000Y-83470000D02*
X140550000Y-88610000D01*
X137890000Y-83470000D02*
X137890000Y-88610000D01*
X137890000Y-88610000D02*
X140550000Y-88610000D01*
%TO.C,R10*%
X137855000Y-107500000D02*
X137855000Y-110240000D01*
X137855000Y-110240000D02*
X144395000Y-110240000D01*
X144395000Y-110240000D02*
X144395000Y-107500000D01*
X144395000Y-107500000D02*
X137855000Y-107500000D01*
X137085000Y-108870000D02*
X137855000Y-108870000D01*
X145165000Y-108870000D02*
X144395000Y-108870000D01*
%TO.C,R3*%
X134235000Y-86110000D02*
X134235000Y-83370000D01*
X134235000Y-83370000D02*
X127695000Y-83370000D01*
X127695000Y-83370000D02*
X127695000Y-86110000D01*
X127695000Y-86110000D02*
X134235000Y-86110000D01*
X135005000Y-84740000D02*
X134235000Y-84740000D01*
X126925000Y-84740000D02*
X127695000Y-84740000D01*
%TO.C,R2*%
X118170000Y-102420000D02*
X118170000Y-105160000D01*
X118170000Y-105160000D02*
X124710000Y-105160000D01*
X124710000Y-105160000D02*
X124710000Y-102420000D01*
X124710000Y-102420000D02*
X118170000Y-102420000D01*
X117400000Y-103790000D02*
X118170000Y-103790000D01*
X125480000Y-103790000D02*
X124710000Y-103790000D01*
%TO.C,R1*%
X137855000Y-98610000D02*
X137855000Y-101350000D01*
X137855000Y-101350000D02*
X144395000Y-101350000D01*
X144395000Y-101350000D02*
X144395000Y-98610000D01*
X144395000Y-98610000D02*
X137855000Y-98610000D01*
X137085000Y-99980000D02*
X137855000Y-99980000D01*
X145165000Y-99980000D02*
X144395000Y-99980000D01*
%TO.C,Q2*%
X128320000Y-95590000D02*
X124720000Y-95590000D01*
X124195816Y-96317205D02*
G75*
G02*
X124720000Y-95590000I2324184J-1122795D01*
G01*
X124163600Y-98538807D02*
G75*
G03*
X126520000Y-100040000I2356400J1098807D01*
G01*
X128876400Y-98538807D02*
G75*
G02*
X126520000Y-100040000I-2356400J1098807D01*
G01*
X128844184Y-96317205D02*
G75*
G03*
X128320000Y-95590000I-2324184J-1122795D01*
G01*
%TO.C,Q1*%
X128320000Y-107020000D02*
X124720000Y-107020000D01*
X124195816Y-107747205D02*
G75*
G02*
X124720000Y-107020000I2324184J-1122795D01*
G01*
X124163600Y-109968807D02*
G75*
G03*
X126520000Y-111470000I2356400J1098807D01*
G01*
X128876400Y-109968807D02*
G75*
G02*
X126520000Y-111470000I-2356400J1098807D01*
G01*
X128844184Y-107747205D02*
G75*
G03*
X128320000Y-107020000I-2324184J-1122795D01*
G01*
%TO.C,D3*%
X151225000Y-101270000D02*
X157385000Y-101270000D01*
X151225000Y-96150000D02*
X157385000Y-96150000D01*
X151225000Y-101270000D02*
X151225000Y-96150000D01*
X151225000Y-95750000D02*
X152345000Y-95750000D01*
X152345000Y-95750000D02*
X152345000Y-96150000D01*
X152345000Y-96150000D02*
X151225000Y-96150000D01*
X151225000Y-96150000D02*
X151225000Y-95750000D01*
X151095000Y-99980000D02*
X151225000Y-99980000D01*
X151225000Y-99980000D02*
X151225000Y-99980000D01*
X151225000Y-99980000D02*
X151095000Y-99980000D01*
X151095000Y-99980000D02*
X151095000Y-99980000D01*
X151095000Y-97440000D02*
X151225000Y-97440000D01*
X151225000Y-97440000D02*
X151225000Y-97440000D01*
X151225000Y-97440000D02*
X151095000Y-97440000D01*
X151095000Y-97440000D02*
X151095000Y-97440000D01*
X157385000Y-96150000D02*
G75*
G02*
X157385000Y-101270000I0J-2560000D01*
G01*
%TO.C,D1*%
X151225000Y-110160000D02*
X157385000Y-110160000D01*
X151225000Y-105040000D02*
X157385000Y-105040000D01*
X151225000Y-110160000D02*
X151225000Y-105040000D01*
X151225000Y-104640000D02*
X152345000Y-104640000D01*
X152345000Y-104640000D02*
X152345000Y-105040000D01*
X152345000Y-105040000D02*
X151225000Y-105040000D01*
X151225000Y-105040000D02*
X151225000Y-104640000D01*
X151095000Y-108870000D02*
X151225000Y-108870000D01*
X151225000Y-108870000D02*
X151225000Y-108870000D01*
X151225000Y-108870000D02*
X151095000Y-108870000D01*
X151095000Y-108870000D02*
X151095000Y-108870000D01*
X151095000Y-106330000D02*
X151225000Y-106330000D01*
X151225000Y-106330000D02*
X151225000Y-106330000D01*
X151225000Y-106330000D02*
X151095000Y-106330000D01*
X151095000Y-106330000D02*
X151095000Y-106330000D01*
X157385000Y-105040000D02*
G75*
G02*
X157385000Y-110160000I0J-2560000D01*
G01*
%TO.C,U1*%
X120440000Y-45310000D02*
X118790000Y-45310000D01*
X118790000Y-45310000D02*
X118790000Y-65750000D01*
X118790000Y-65750000D02*
X124090000Y-65750000D01*
X124090000Y-65750000D02*
X124090000Y-45310000D01*
X124090000Y-45310000D02*
X122440000Y-45310000D01*
X122440000Y-45310000D02*
G75*
G02*
X120440000Y-45310000I-1000000J0D01*
G01*
%TO.C,J1*%
X154600000Y-68800000D02*
X144120000Y-68800000D01*
X144120000Y-68800000D02*
X144120000Y-37830000D01*
X144120000Y-37830000D02*
X154600000Y-37830000D01*
X143225662Y-59105000D02*
X143225662Y-58605000D01*
X143225662Y-58605000D02*
X143658675Y-58855000D01*
X143658675Y-58855000D02*
X143225662Y-59105000D01*
%TO.C,C4*%
X113265000Y-55510000D02*
G75*
G03*
X113265000Y-55510000I-2620000J0D01*
G01*
X113225000Y-55510000D02*
X108065000Y-55510000D01*
X113225000Y-55550000D02*
X108065000Y-55550000D01*
X113224000Y-55590000D02*
X108066000Y-55590000D01*
X113223000Y-55630000D02*
X108067000Y-55630000D01*
X113221000Y-55670000D02*
X108069000Y-55670000D01*
X113218000Y-55710000D02*
X108072000Y-55710000D01*
X113214000Y-55750000D02*
X111685000Y-55750000D01*
X109605000Y-55750000D02*
X108076000Y-55750000D01*
X113210000Y-55790000D02*
X111685000Y-55790000D01*
X109605000Y-55790000D02*
X108080000Y-55790000D01*
X113206000Y-55830000D02*
X111685000Y-55830000D01*
X109605000Y-55830000D02*
X108084000Y-55830000D01*
X113201000Y-55870000D02*
X111685000Y-55870000D01*
X109605000Y-55870000D02*
X108089000Y-55870000D01*
X113195000Y-55910000D02*
X111685000Y-55910000D01*
X109605000Y-55910000D02*
X108095000Y-55910000D01*
X113188000Y-55950000D02*
X111685000Y-55950000D01*
X109605000Y-55950000D02*
X108102000Y-55950000D01*
X113181000Y-55990000D02*
X111685000Y-55990000D01*
X109605000Y-55990000D02*
X108109000Y-55990000D01*
X113173000Y-56030000D02*
X111685000Y-56030000D01*
X109605000Y-56030000D02*
X108117000Y-56030000D01*
X113165000Y-56070000D02*
X111685000Y-56070000D01*
X109605000Y-56070000D02*
X108125000Y-56070000D01*
X113156000Y-56110000D02*
X111685000Y-56110000D01*
X109605000Y-56110000D02*
X108134000Y-56110000D01*
X113146000Y-56150000D02*
X111685000Y-56150000D01*
X109605000Y-56150000D02*
X108144000Y-56150000D01*
X113136000Y-56190000D02*
X111685000Y-56190000D01*
X109605000Y-56190000D02*
X108154000Y-56190000D01*
X113125000Y-56231000D02*
X111685000Y-56231000D01*
X109605000Y-56231000D02*
X108165000Y-56231000D01*
X113113000Y-56271000D02*
X111685000Y-56271000D01*
X109605000Y-56271000D02*
X108177000Y-56271000D01*
X113100000Y-56311000D02*
X111685000Y-56311000D01*
X109605000Y-56311000D02*
X108190000Y-56311000D01*
X113087000Y-56351000D02*
X111685000Y-56351000D01*
X109605000Y-56351000D02*
X108203000Y-56351000D01*
X113073000Y-56391000D02*
X111685000Y-56391000D01*
X109605000Y-56391000D02*
X108217000Y-56391000D01*
X113059000Y-56431000D02*
X111685000Y-56431000D01*
X109605000Y-56431000D02*
X108231000Y-56431000D01*
X113043000Y-56471000D02*
X111685000Y-56471000D01*
X109605000Y-56471000D02*
X108247000Y-56471000D01*
X113027000Y-56511000D02*
X111685000Y-56511000D01*
X109605000Y-56511000D02*
X108263000Y-56511000D01*
X113010000Y-56551000D02*
X111685000Y-56551000D01*
X109605000Y-56551000D02*
X108280000Y-56551000D01*
X112993000Y-56591000D02*
X111685000Y-56591000D01*
X109605000Y-56591000D02*
X108297000Y-56591000D01*
X112974000Y-56631000D02*
X111685000Y-56631000D01*
X109605000Y-56631000D02*
X108316000Y-56631000D01*
X112955000Y-56671000D02*
X111685000Y-56671000D01*
X109605000Y-56671000D02*
X108335000Y-56671000D01*
X112935000Y-56711000D02*
X111685000Y-56711000D01*
X109605000Y-56711000D02*
X108355000Y-56711000D01*
X112913000Y-56751000D02*
X111685000Y-56751000D01*
X109605000Y-56751000D02*
X108377000Y-56751000D01*
X112892000Y-56791000D02*
X111685000Y-56791000D01*
X109605000Y-56791000D02*
X108398000Y-56791000D01*
X112869000Y-56831000D02*
X111685000Y-56831000D01*
X109605000Y-56831000D02*
X108421000Y-56831000D01*
X112845000Y-56871000D02*
X111685000Y-56871000D01*
X109605000Y-56871000D02*
X108445000Y-56871000D01*
X112820000Y-56911000D02*
X111685000Y-56911000D01*
X109605000Y-56911000D02*
X108470000Y-56911000D01*
X112794000Y-56951000D02*
X111685000Y-56951000D01*
X109605000Y-56951000D02*
X108496000Y-56951000D01*
X112767000Y-56991000D02*
X111685000Y-56991000D01*
X109605000Y-56991000D02*
X108523000Y-56991000D01*
X112740000Y-57031000D02*
X111685000Y-57031000D01*
X109605000Y-57031000D02*
X108550000Y-57031000D01*
X112710000Y-57071000D02*
X111685000Y-57071000D01*
X109605000Y-57071000D02*
X108580000Y-57071000D01*
X112680000Y-57111000D02*
X111685000Y-57111000D01*
X109605000Y-57111000D02*
X108610000Y-57111000D01*
X112649000Y-57151000D02*
X111685000Y-57151000D01*
X109605000Y-57151000D02*
X108641000Y-57151000D01*
X112616000Y-57191000D02*
X111685000Y-57191000D01*
X109605000Y-57191000D02*
X108674000Y-57191000D01*
X112582000Y-57231000D02*
X111685000Y-57231000D01*
X109605000Y-57231000D02*
X108708000Y-57231000D01*
X112546000Y-57271000D02*
X111685000Y-57271000D01*
X109605000Y-57271000D02*
X108744000Y-57271000D01*
X112509000Y-57311000D02*
X111685000Y-57311000D01*
X109605000Y-57311000D02*
X108781000Y-57311000D01*
X112471000Y-57351000D02*
X111685000Y-57351000D01*
X109605000Y-57351000D02*
X108819000Y-57351000D01*
X112430000Y-57391000D02*
X111685000Y-57391000D01*
X109605000Y-57391000D02*
X108860000Y-57391000D01*
X112388000Y-57431000D02*
X111685000Y-57431000D01*
X109605000Y-57431000D02*
X108902000Y-57431000D01*
X112344000Y-57471000D02*
X111685000Y-57471000D01*
X109605000Y-57471000D02*
X108946000Y-57471000D01*
X112298000Y-57511000D02*
X111685000Y-57511000D01*
X109605000Y-57511000D02*
X108992000Y-57511000D01*
X112250000Y-57551000D02*
X111685000Y-57551000D01*
X109605000Y-57551000D02*
X109040000Y-57551000D01*
X112199000Y-57591000D02*
X111685000Y-57591000D01*
X109605000Y-57591000D02*
X109091000Y-57591000D01*
X112145000Y-57631000D02*
X111685000Y-57631000D01*
X109605000Y-57631000D02*
X109145000Y-57631000D01*
X112088000Y-57671000D02*
X111685000Y-57671000D01*
X109605000Y-57671000D02*
X109202000Y-57671000D01*
X112028000Y-57711000D02*
X111685000Y-57711000D01*
X109605000Y-57711000D02*
X109262000Y-57711000D01*
X111964000Y-57751000D02*
X111685000Y-57751000D01*
X109605000Y-57751000D02*
X109326000Y-57751000D01*
X111896000Y-57791000D02*
X111685000Y-57791000D01*
X109605000Y-57791000D02*
X109394000Y-57791000D01*
X111823000Y-57831000D02*
X109467000Y-57831000D01*
X111743000Y-57871000D02*
X109547000Y-57871000D01*
X111656000Y-57911000D02*
X109634000Y-57911000D01*
X111560000Y-57951000D02*
X109730000Y-57951000D01*
X111450000Y-57991000D02*
X109840000Y-57991000D01*
X111322000Y-58031000D02*
X109968000Y-58031000D01*
X111163000Y-58071000D02*
X110127000Y-58071000D01*
X110929000Y-58111000D02*
X110361000Y-58111000D01*
X112120000Y-52705225D02*
X112120000Y-53205225D01*
X112370000Y-52955225D02*
X111870000Y-52955225D01*
%TO.C,C3*%
X113265000Y-61860000D02*
G75*
G03*
X113265000Y-61860000I-2620000J0D01*
G01*
X113225000Y-61860000D02*
X108065000Y-61860000D01*
X113225000Y-61900000D02*
X108065000Y-61900000D01*
X113224000Y-61940000D02*
X108066000Y-61940000D01*
X113223000Y-61980000D02*
X108067000Y-61980000D01*
X113221000Y-62020000D02*
X108069000Y-62020000D01*
X113218000Y-62060000D02*
X108072000Y-62060000D01*
X113214000Y-62100000D02*
X111685000Y-62100000D01*
X109605000Y-62100000D02*
X108076000Y-62100000D01*
X113210000Y-62140000D02*
X111685000Y-62140000D01*
X109605000Y-62140000D02*
X108080000Y-62140000D01*
X113206000Y-62180000D02*
X111685000Y-62180000D01*
X109605000Y-62180000D02*
X108084000Y-62180000D01*
X113201000Y-62220000D02*
X111685000Y-62220000D01*
X109605000Y-62220000D02*
X108089000Y-62220000D01*
X113195000Y-62260000D02*
X111685000Y-62260000D01*
X109605000Y-62260000D02*
X108095000Y-62260000D01*
X113188000Y-62300000D02*
X111685000Y-62300000D01*
X109605000Y-62300000D02*
X108102000Y-62300000D01*
X113181000Y-62340000D02*
X111685000Y-62340000D01*
X109605000Y-62340000D02*
X108109000Y-62340000D01*
X113173000Y-62380000D02*
X111685000Y-62380000D01*
X109605000Y-62380000D02*
X108117000Y-62380000D01*
X113165000Y-62420000D02*
X111685000Y-62420000D01*
X109605000Y-62420000D02*
X108125000Y-62420000D01*
X113156000Y-62460000D02*
X111685000Y-62460000D01*
X109605000Y-62460000D02*
X108134000Y-62460000D01*
X113146000Y-62500000D02*
X111685000Y-62500000D01*
X109605000Y-62500000D02*
X108144000Y-62500000D01*
X113136000Y-62540000D02*
X111685000Y-62540000D01*
X109605000Y-62540000D02*
X108154000Y-62540000D01*
X113125000Y-62581000D02*
X111685000Y-62581000D01*
X109605000Y-62581000D02*
X108165000Y-62581000D01*
X113113000Y-62621000D02*
X111685000Y-62621000D01*
X109605000Y-62621000D02*
X108177000Y-62621000D01*
X113100000Y-62661000D02*
X111685000Y-62661000D01*
X109605000Y-62661000D02*
X108190000Y-62661000D01*
X113087000Y-62701000D02*
X111685000Y-62701000D01*
X109605000Y-62701000D02*
X108203000Y-62701000D01*
X113073000Y-62741000D02*
X111685000Y-62741000D01*
X109605000Y-62741000D02*
X108217000Y-62741000D01*
X113059000Y-62781000D02*
X111685000Y-62781000D01*
X109605000Y-62781000D02*
X108231000Y-62781000D01*
X113043000Y-62821000D02*
X111685000Y-62821000D01*
X109605000Y-62821000D02*
X108247000Y-62821000D01*
X113027000Y-62861000D02*
X111685000Y-62861000D01*
X109605000Y-62861000D02*
X108263000Y-62861000D01*
X113010000Y-62901000D02*
X111685000Y-62901000D01*
X109605000Y-62901000D02*
X108280000Y-62901000D01*
X112993000Y-62941000D02*
X111685000Y-62941000D01*
X109605000Y-62941000D02*
X108297000Y-62941000D01*
X112974000Y-62981000D02*
X111685000Y-62981000D01*
X109605000Y-62981000D02*
X108316000Y-62981000D01*
X112955000Y-63021000D02*
X111685000Y-63021000D01*
X109605000Y-63021000D02*
X108335000Y-63021000D01*
X112935000Y-63061000D02*
X111685000Y-63061000D01*
X109605000Y-63061000D02*
X108355000Y-63061000D01*
X112913000Y-63101000D02*
X111685000Y-63101000D01*
X109605000Y-63101000D02*
X108377000Y-63101000D01*
X112892000Y-63141000D02*
X111685000Y-63141000D01*
X109605000Y-63141000D02*
X108398000Y-63141000D01*
X112869000Y-63181000D02*
X111685000Y-63181000D01*
X109605000Y-63181000D02*
X108421000Y-63181000D01*
X112845000Y-63221000D02*
X111685000Y-63221000D01*
X109605000Y-63221000D02*
X108445000Y-63221000D01*
X112820000Y-63261000D02*
X111685000Y-63261000D01*
X109605000Y-63261000D02*
X108470000Y-63261000D01*
X112794000Y-63301000D02*
X111685000Y-63301000D01*
X109605000Y-63301000D02*
X108496000Y-63301000D01*
X112767000Y-63341000D02*
X111685000Y-63341000D01*
X109605000Y-63341000D02*
X108523000Y-63341000D01*
X112740000Y-63381000D02*
X111685000Y-63381000D01*
X109605000Y-63381000D02*
X108550000Y-63381000D01*
X112710000Y-63421000D02*
X111685000Y-63421000D01*
X109605000Y-63421000D02*
X108580000Y-63421000D01*
X112680000Y-63461000D02*
X111685000Y-63461000D01*
X109605000Y-63461000D02*
X108610000Y-63461000D01*
X112649000Y-63501000D02*
X111685000Y-63501000D01*
X109605000Y-63501000D02*
X108641000Y-63501000D01*
X112616000Y-63541000D02*
X111685000Y-63541000D01*
X109605000Y-63541000D02*
X108674000Y-63541000D01*
X112582000Y-63581000D02*
X111685000Y-63581000D01*
X109605000Y-63581000D02*
X108708000Y-63581000D01*
X112546000Y-63621000D02*
X111685000Y-63621000D01*
X109605000Y-63621000D02*
X108744000Y-63621000D01*
X112509000Y-63661000D02*
X111685000Y-63661000D01*
X109605000Y-63661000D02*
X108781000Y-63661000D01*
X112471000Y-63701000D02*
X111685000Y-63701000D01*
X109605000Y-63701000D02*
X108819000Y-63701000D01*
X112430000Y-63741000D02*
X111685000Y-63741000D01*
X109605000Y-63741000D02*
X108860000Y-63741000D01*
X112388000Y-63781000D02*
X111685000Y-63781000D01*
X109605000Y-63781000D02*
X108902000Y-63781000D01*
X112344000Y-63821000D02*
X111685000Y-63821000D01*
X109605000Y-63821000D02*
X108946000Y-63821000D01*
X112298000Y-63861000D02*
X111685000Y-63861000D01*
X109605000Y-63861000D02*
X108992000Y-63861000D01*
X112250000Y-63901000D02*
X111685000Y-63901000D01*
X109605000Y-63901000D02*
X109040000Y-63901000D01*
X112199000Y-63941000D02*
X111685000Y-63941000D01*
X109605000Y-63941000D02*
X109091000Y-63941000D01*
X112145000Y-63981000D02*
X111685000Y-63981000D01*
X109605000Y-63981000D02*
X109145000Y-63981000D01*
X112088000Y-64021000D02*
X111685000Y-64021000D01*
X109605000Y-64021000D02*
X109202000Y-64021000D01*
X112028000Y-64061000D02*
X111685000Y-64061000D01*
X109605000Y-64061000D02*
X109262000Y-64061000D01*
X111964000Y-64101000D02*
X111685000Y-64101000D01*
X109605000Y-64101000D02*
X109326000Y-64101000D01*
X111896000Y-64141000D02*
X111685000Y-64141000D01*
X109605000Y-64141000D02*
X109394000Y-64141000D01*
X111823000Y-64181000D02*
X109467000Y-64181000D01*
X111743000Y-64221000D02*
X109547000Y-64221000D01*
X111656000Y-64261000D02*
X109634000Y-64261000D01*
X111560000Y-64301000D02*
X109730000Y-64301000D01*
X111450000Y-64341000D02*
X109840000Y-64341000D01*
X111322000Y-64381000D02*
X109968000Y-64381000D01*
X111163000Y-64421000D02*
X110127000Y-64421000D01*
X110929000Y-64461000D02*
X110361000Y-64461000D01*
X112120000Y-59055225D02*
X112120000Y-59555225D01*
X112370000Y-59305225D02*
X111870000Y-59305225D01*
%TO.C,C2*%
X124850000Y-39755000D02*
G75*
G03*
X124850000Y-39755000I-2620000J0D01*
G01*
X122230000Y-37175000D02*
X122230000Y-42335000D01*
X122270000Y-37175000D02*
X122270000Y-42335000D01*
X122310000Y-37176000D02*
X122310000Y-42334000D01*
X122350000Y-37177000D02*
X122350000Y-42333000D01*
X122390000Y-37179000D02*
X122390000Y-42331000D01*
X122430000Y-37182000D02*
X122430000Y-42328000D01*
X122470000Y-37186000D02*
X122470000Y-38715000D01*
X122470000Y-40795000D02*
X122470000Y-42324000D01*
X122510000Y-37190000D02*
X122510000Y-38715000D01*
X122510000Y-40795000D02*
X122510000Y-42320000D01*
X122550000Y-37194000D02*
X122550000Y-38715000D01*
X122550000Y-40795000D02*
X122550000Y-42316000D01*
X122590000Y-37199000D02*
X122590000Y-38715000D01*
X122590000Y-40795000D02*
X122590000Y-42311000D01*
X122630000Y-37205000D02*
X122630000Y-38715000D01*
X122630000Y-40795000D02*
X122630000Y-42305000D01*
X122670000Y-37212000D02*
X122670000Y-38715000D01*
X122670000Y-40795000D02*
X122670000Y-42298000D01*
X122710000Y-37219000D02*
X122710000Y-38715000D01*
X122710000Y-40795000D02*
X122710000Y-42291000D01*
X122750000Y-37227000D02*
X122750000Y-38715000D01*
X122750000Y-40795000D02*
X122750000Y-42283000D01*
X122790000Y-37235000D02*
X122790000Y-38715000D01*
X122790000Y-40795000D02*
X122790000Y-42275000D01*
X122830000Y-37244000D02*
X122830000Y-38715000D01*
X122830000Y-40795000D02*
X122830000Y-42266000D01*
X122870000Y-37254000D02*
X122870000Y-38715000D01*
X122870000Y-40795000D02*
X122870000Y-42256000D01*
X122910000Y-37264000D02*
X122910000Y-38715000D01*
X122910000Y-40795000D02*
X122910000Y-42246000D01*
X122951000Y-37275000D02*
X122951000Y-38715000D01*
X122951000Y-40795000D02*
X122951000Y-42235000D01*
X122991000Y-37287000D02*
X122991000Y-38715000D01*
X122991000Y-40795000D02*
X122991000Y-42223000D01*
X123031000Y-37300000D02*
X123031000Y-38715000D01*
X123031000Y-40795000D02*
X123031000Y-42210000D01*
X123071000Y-37313000D02*
X123071000Y-38715000D01*
X123071000Y-40795000D02*
X123071000Y-42197000D01*
X123111000Y-37327000D02*
X123111000Y-38715000D01*
X123111000Y-40795000D02*
X123111000Y-42183000D01*
X123151000Y-37341000D02*
X123151000Y-38715000D01*
X123151000Y-40795000D02*
X123151000Y-42169000D01*
X123191000Y-37357000D02*
X123191000Y-38715000D01*
X123191000Y-40795000D02*
X123191000Y-42153000D01*
X123231000Y-37373000D02*
X123231000Y-38715000D01*
X123231000Y-40795000D02*
X123231000Y-42137000D01*
X123271000Y-37390000D02*
X123271000Y-38715000D01*
X123271000Y-40795000D02*
X123271000Y-42120000D01*
X123311000Y-37407000D02*
X123311000Y-38715000D01*
X123311000Y-40795000D02*
X123311000Y-42103000D01*
X123351000Y-37426000D02*
X123351000Y-38715000D01*
X123351000Y-40795000D02*
X123351000Y-42084000D01*
X123391000Y-37445000D02*
X123391000Y-38715000D01*
X123391000Y-40795000D02*
X123391000Y-42065000D01*
X123431000Y-37465000D02*
X123431000Y-38715000D01*
X123431000Y-40795000D02*
X123431000Y-42045000D01*
X123471000Y-37487000D02*
X123471000Y-38715000D01*
X123471000Y-40795000D02*
X123471000Y-42023000D01*
X123511000Y-37508000D02*
X123511000Y-38715000D01*
X123511000Y-40795000D02*
X123511000Y-42002000D01*
X123551000Y-37531000D02*
X123551000Y-38715000D01*
X123551000Y-40795000D02*
X123551000Y-41979000D01*
X123591000Y-37555000D02*
X123591000Y-38715000D01*
X123591000Y-40795000D02*
X123591000Y-41955000D01*
X123631000Y-37580000D02*
X123631000Y-38715000D01*
X123631000Y-40795000D02*
X123631000Y-41930000D01*
X123671000Y-37606000D02*
X123671000Y-38715000D01*
X123671000Y-40795000D02*
X123671000Y-41904000D01*
X123711000Y-37633000D02*
X123711000Y-38715000D01*
X123711000Y-40795000D02*
X123711000Y-41877000D01*
X123751000Y-37660000D02*
X123751000Y-38715000D01*
X123751000Y-40795000D02*
X123751000Y-41850000D01*
X123791000Y-37690000D02*
X123791000Y-38715000D01*
X123791000Y-40795000D02*
X123791000Y-41820000D01*
X123831000Y-37720000D02*
X123831000Y-38715000D01*
X123831000Y-40795000D02*
X123831000Y-41790000D01*
X123871000Y-37751000D02*
X123871000Y-38715000D01*
X123871000Y-40795000D02*
X123871000Y-41759000D01*
X123911000Y-37784000D02*
X123911000Y-38715000D01*
X123911000Y-40795000D02*
X123911000Y-41726000D01*
X123951000Y-37818000D02*
X123951000Y-38715000D01*
X123951000Y-40795000D02*
X123951000Y-41692000D01*
X123991000Y-37854000D02*
X123991000Y-38715000D01*
X123991000Y-40795000D02*
X123991000Y-41656000D01*
X124031000Y-37891000D02*
X124031000Y-38715000D01*
X124031000Y-40795000D02*
X124031000Y-41619000D01*
X124071000Y-37929000D02*
X124071000Y-38715000D01*
X124071000Y-40795000D02*
X124071000Y-41581000D01*
X124111000Y-37970000D02*
X124111000Y-38715000D01*
X124111000Y-40795000D02*
X124111000Y-41540000D01*
X124151000Y-38012000D02*
X124151000Y-38715000D01*
X124151000Y-40795000D02*
X124151000Y-41498000D01*
X124191000Y-38056000D02*
X124191000Y-38715000D01*
X124191000Y-40795000D02*
X124191000Y-41454000D01*
X124231000Y-38102000D02*
X124231000Y-38715000D01*
X124231000Y-40795000D02*
X124231000Y-41408000D01*
X124271000Y-38150000D02*
X124271000Y-38715000D01*
X124271000Y-40795000D02*
X124271000Y-41360000D01*
X124311000Y-38201000D02*
X124311000Y-38715000D01*
X124311000Y-40795000D02*
X124311000Y-41309000D01*
X124351000Y-38255000D02*
X124351000Y-38715000D01*
X124351000Y-40795000D02*
X124351000Y-41255000D01*
X124391000Y-38312000D02*
X124391000Y-38715000D01*
X124391000Y-40795000D02*
X124391000Y-41198000D01*
X124431000Y-38372000D02*
X124431000Y-38715000D01*
X124431000Y-40795000D02*
X124431000Y-41138000D01*
X124471000Y-38436000D02*
X124471000Y-38715000D01*
X124471000Y-40795000D02*
X124471000Y-41074000D01*
X124511000Y-38504000D02*
X124511000Y-38715000D01*
X124511000Y-40795000D02*
X124511000Y-41006000D01*
X124551000Y-38577000D02*
X124551000Y-40933000D01*
X124591000Y-38657000D02*
X124591000Y-40853000D01*
X124631000Y-38744000D02*
X124631000Y-40766000D01*
X124671000Y-38840000D02*
X124671000Y-40670000D01*
X124711000Y-38950000D02*
X124711000Y-40560000D01*
X124751000Y-39078000D02*
X124751000Y-40432000D01*
X124791000Y-39237000D02*
X124791000Y-40273000D01*
X124831000Y-39471000D02*
X124831000Y-40039000D01*
X119425225Y-38280000D02*
X119925225Y-38280000D01*
X119675225Y-38030000D02*
X119675225Y-38530000D01*
%TO.C,C1*%
X113265000Y-49200000D02*
G75*
G03*
X113265000Y-49200000I-2620000J0D01*
G01*
X113225000Y-49200000D02*
X108065000Y-49200000D01*
X113225000Y-49240000D02*
X108065000Y-49240000D01*
X113224000Y-49280000D02*
X108066000Y-49280000D01*
X113223000Y-49320000D02*
X108067000Y-49320000D01*
X113221000Y-49360000D02*
X108069000Y-49360000D01*
X113218000Y-49400000D02*
X108072000Y-49400000D01*
X113214000Y-49440000D02*
X111685000Y-49440000D01*
X109605000Y-49440000D02*
X108076000Y-49440000D01*
X113210000Y-49480000D02*
X111685000Y-49480000D01*
X109605000Y-49480000D02*
X108080000Y-49480000D01*
X113206000Y-49520000D02*
X111685000Y-49520000D01*
X109605000Y-49520000D02*
X108084000Y-49520000D01*
X113201000Y-49560000D02*
X111685000Y-49560000D01*
X109605000Y-49560000D02*
X108089000Y-49560000D01*
X113195000Y-49600000D02*
X111685000Y-49600000D01*
X109605000Y-49600000D02*
X108095000Y-49600000D01*
X113188000Y-49640000D02*
X111685000Y-49640000D01*
X109605000Y-49640000D02*
X108102000Y-49640000D01*
X113181000Y-49680000D02*
X111685000Y-49680000D01*
X109605000Y-49680000D02*
X108109000Y-49680000D01*
X113173000Y-49720000D02*
X111685000Y-49720000D01*
X109605000Y-49720000D02*
X108117000Y-49720000D01*
X113165000Y-49760000D02*
X111685000Y-49760000D01*
X109605000Y-49760000D02*
X108125000Y-49760000D01*
X113156000Y-49800000D02*
X111685000Y-49800000D01*
X109605000Y-49800000D02*
X108134000Y-49800000D01*
X113146000Y-49840000D02*
X111685000Y-49840000D01*
X109605000Y-49840000D02*
X108144000Y-49840000D01*
X113136000Y-49880000D02*
X111685000Y-49880000D01*
X109605000Y-49880000D02*
X108154000Y-49880000D01*
X113125000Y-49921000D02*
X111685000Y-49921000D01*
X109605000Y-49921000D02*
X108165000Y-49921000D01*
X113113000Y-49961000D02*
X111685000Y-49961000D01*
X109605000Y-49961000D02*
X108177000Y-49961000D01*
X113100000Y-50001000D02*
X111685000Y-50001000D01*
X109605000Y-50001000D02*
X108190000Y-50001000D01*
X113087000Y-50041000D02*
X111685000Y-50041000D01*
X109605000Y-50041000D02*
X108203000Y-50041000D01*
X113073000Y-50081000D02*
X111685000Y-50081000D01*
X109605000Y-50081000D02*
X108217000Y-50081000D01*
X113059000Y-50121000D02*
X111685000Y-50121000D01*
X109605000Y-50121000D02*
X108231000Y-50121000D01*
X113043000Y-50161000D02*
X111685000Y-50161000D01*
X109605000Y-50161000D02*
X108247000Y-50161000D01*
X113027000Y-50201000D02*
X111685000Y-50201000D01*
X109605000Y-50201000D02*
X108263000Y-50201000D01*
X113010000Y-50241000D02*
X111685000Y-50241000D01*
X109605000Y-50241000D02*
X108280000Y-50241000D01*
X112993000Y-50281000D02*
X111685000Y-50281000D01*
X109605000Y-50281000D02*
X108297000Y-50281000D01*
X112974000Y-50321000D02*
X111685000Y-50321000D01*
X109605000Y-50321000D02*
X108316000Y-50321000D01*
X112955000Y-50361000D02*
X111685000Y-50361000D01*
X109605000Y-50361000D02*
X108335000Y-50361000D01*
X112935000Y-50401000D02*
X111685000Y-50401000D01*
X109605000Y-50401000D02*
X108355000Y-50401000D01*
X112913000Y-50441000D02*
X111685000Y-50441000D01*
X109605000Y-50441000D02*
X108377000Y-50441000D01*
X112892000Y-50481000D02*
X111685000Y-50481000D01*
X109605000Y-50481000D02*
X108398000Y-50481000D01*
X112869000Y-50521000D02*
X111685000Y-50521000D01*
X109605000Y-50521000D02*
X108421000Y-50521000D01*
X112845000Y-50561000D02*
X111685000Y-50561000D01*
X109605000Y-50561000D02*
X108445000Y-50561000D01*
X112820000Y-50601000D02*
X111685000Y-50601000D01*
X109605000Y-50601000D02*
X108470000Y-50601000D01*
X112794000Y-50641000D02*
X111685000Y-50641000D01*
X109605000Y-50641000D02*
X108496000Y-50641000D01*
X112767000Y-50681000D02*
X111685000Y-50681000D01*
X109605000Y-50681000D02*
X108523000Y-50681000D01*
X112740000Y-50721000D02*
X111685000Y-50721000D01*
X109605000Y-50721000D02*
X108550000Y-50721000D01*
X112710000Y-50761000D02*
X111685000Y-50761000D01*
X109605000Y-50761000D02*
X108580000Y-50761000D01*
X112680000Y-50801000D02*
X111685000Y-50801000D01*
X109605000Y-50801000D02*
X108610000Y-50801000D01*
X112649000Y-50841000D02*
X111685000Y-50841000D01*
X109605000Y-50841000D02*
X108641000Y-50841000D01*
X112616000Y-50881000D02*
X111685000Y-50881000D01*
X109605000Y-50881000D02*
X108674000Y-50881000D01*
X112582000Y-50921000D02*
X111685000Y-50921000D01*
X109605000Y-50921000D02*
X108708000Y-50921000D01*
X112546000Y-50961000D02*
X111685000Y-50961000D01*
X109605000Y-50961000D02*
X108744000Y-50961000D01*
X112509000Y-51001000D02*
X111685000Y-51001000D01*
X109605000Y-51001000D02*
X108781000Y-51001000D01*
X112471000Y-51041000D02*
X111685000Y-51041000D01*
X109605000Y-51041000D02*
X108819000Y-51041000D01*
X112430000Y-51081000D02*
X111685000Y-51081000D01*
X109605000Y-51081000D02*
X108860000Y-51081000D01*
X112388000Y-51121000D02*
X111685000Y-51121000D01*
X109605000Y-51121000D02*
X108902000Y-51121000D01*
X112344000Y-51161000D02*
X111685000Y-51161000D01*
X109605000Y-51161000D02*
X108946000Y-51161000D01*
X112298000Y-51201000D02*
X111685000Y-51201000D01*
X109605000Y-51201000D02*
X108992000Y-51201000D01*
X112250000Y-51241000D02*
X111685000Y-51241000D01*
X109605000Y-51241000D02*
X109040000Y-51241000D01*
X112199000Y-51281000D02*
X111685000Y-51281000D01*
X109605000Y-51281000D02*
X109091000Y-51281000D01*
X112145000Y-51321000D02*
X111685000Y-51321000D01*
X109605000Y-51321000D02*
X109145000Y-51321000D01*
X112088000Y-51361000D02*
X111685000Y-51361000D01*
X109605000Y-51361000D02*
X109202000Y-51361000D01*
X112028000Y-51401000D02*
X111685000Y-51401000D01*
X109605000Y-51401000D02*
X109262000Y-51401000D01*
X111964000Y-51441000D02*
X111685000Y-51441000D01*
X109605000Y-51441000D02*
X109326000Y-51441000D01*
X111896000Y-51481000D02*
X111685000Y-51481000D01*
X109605000Y-51481000D02*
X109394000Y-51481000D01*
X111823000Y-51521000D02*
X109467000Y-51521000D01*
X111743000Y-51561000D02*
X109547000Y-51561000D01*
X111656000Y-51601000D02*
X109634000Y-51601000D01*
X111560000Y-51641000D02*
X109730000Y-51641000D01*
X111450000Y-51681000D02*
X109840000Y-51681000D01*
X111322000Y-51721000D02*
X109968000Y-51721000D01*
X111163000Y-51761000D02*
X110127000Y-51761000D01*
X110929000Y-51801000D02*
X110361000Y-51801000D01*
X112120000Y-46395225D02*
X112120000Y-46895225D01*
X112370000Y-46645225D02*
X111870000Y-46645225D01*
%TO.C,D2*%
X60925000Y-122355000D02*
X60925000Y-125295000D01*
X61165000Y-122355000D02*
X61165000Y-125295000D01*
X61045000Y-122355000D02*
X61045000Y-125295000D01*
X66605000Y-123825000D02*
X65585000Y-123825000D01*
X59125000Y-123825000D02*
X60145000Y-123825000D01*
X65585000Y-122355000D02*
X60145000Y-122355000D01*
X65585000Y-125295000D02*
X65585000Y-122355000D01*
X60145000Y-125295000D02*
X65585000Y-125295000D01*
X60145000Y-122355000D02*
X60145000Y-125295000D01*
%TO.C,C8*%
X50800000Y-100280000D02*
X50800000Y-102220000D01*
X50800000Y-115400000D02*
X50800000Y-113460000D01*
X53920000Y-109860000D02*
X53920000Y-102220000D01*
X53020000Y-110760000D02*
X53920000Y-109860000D01*
X53920000Y-111660000D02*
X53020000Y-110760000D01*
X53920000Y-113460000D02*
X53920000Y-111660000D01*
X47680000Y-109860000D02*
X47680000Y-102220000D01*
X48580000Y-110760000D02*
X47680000Y-109860000D01*
X47680000Y-111660000D02*
X48580000Y-110760000D01*
X47680000Y-113460000D02*
X47680000Y-111660000D01*
X47680000Y-102220000D02*
X53920000Y-102220000D01*
X47680000Y-113460000D02*
X53920000Y-113460000D01*
X47300000Y-114660000D02*
X49100000Y-114660000D01*
X48200000Y-115560000D02*
X48200000Y-113760000D01*
%TO.C,C6*%
X57785000Y-100280000D02*
X57785000Y-102220000D01*
X57785000Y-115400000D02*
X57785000Y-113460000D01*
X60905000Y-109860000D02*
X60905000Y-102220000D01*
X60005000Y-110760000D02*
X60905000Y-109860000D01*
X60905000Y-111660000D02*
X60005000Y-110760000D01*
X60905000Y-113460000D02*
X60905000Y-111660000D01*
X54665000Y-109860000D02*
X54665000Y-102220000D01*
X55565000Y-110760000D02*
X54665000Y-109860000D01*
X54665000Y-111660000D02*
X55565000Y-110760000D01*
X54665000Y-113460000D02*
X54665000Y-111660000D01*
X54665000Y-102220000D02*
X60905000Y-102220000D01*
X54665000Y-113460000D02*
X60905000Y-113460000D01*
X54285000Y-114660000D02*
X56085000Y-114660000D01*
X55185000Y-115560000D02*
X55185000Y-113760000D01*
D13*
%TO.C,REF\u002A\u002A*%
X101000000Y-25000000D02*
G75*
G03*
X101000000Y-25000000I-3000000J0D01*
G01*
D12*
X97000000Y-23000000D02*
X96300000Y-25900000D01*
D11*
X96960000Y-22930000D02*
X98570000Y-22930000D01*
X93910000Y-24470000D02*
X98110000Y-24470000D01*
X96250000Y-25950000D02*
X101950000Y-25950000D01*
D12*
X99000000Y-24500000D02*
X98200000Y-26900000D01*
D11*
X99040000Y-24490000D02*
X100000000Y-26960000D01*
%TO.C,J11*%
D10*
X83645476Y-33742380D02*
X83645476Y-34456666D01*
X83597857Y-34599523D01*
X83502619Y-34694761D01*
X83359761Y-34742380D01*
X83264523Y-34742380D01*
X84645476Y-34742380D02*
X84074047Y-34742380D01*
X84359761Y-34742380D02*
X84359761Y-33742380D01*
X84264523Y-33885238D01*
X84169285Y-33980476D01*
X84074047Y-34028095D01*
X85597857Y-34742380D02*
X85026428Y-34742380D01*
X85312142Y-34742380D02*
X85312142Y-33742380D01*
X85216904Y-33885238D01*
X85121666Y-33980476D01*
X85026428Y-34028095D01*
%TO.C,J10*%
X83010476Y-116292380D02*
X83010476Y-117006666D01*
X82962857Y-117149523D01*
X82867619Y-117244761D01*
X82724761Y-117292380D01*
X82629523Y-117292380D01*
X84010476Y-117292380D02*
X83439047Y-117292380D01*
X83724761Y-117292380D02*
X83724761Y-116292380D01*
X83629523Y-116435238D01*
X83534285Y-116530476D01*
X83439047Y-116578095D01*
X84629523Y-116292380D02*
X84724761Y-116292380D01*
X84820000Y-116340000D01*
X84867619Y-116387619D01*
X84915238Y-116482857D01*
X84962857Y-116673333D01*
X84962857Y-116911428D01*
X84915238Y-117101904D01*
X84867619Y-117197142D01*
X84820000Y-117244761D01*
X84724761Y-117292380D01*
X84629523Y-117292380D01*
X84534285Y-117244761D01*
X84486666Y-117197142D01*
X84439047Y-117101904D01*
X84391428Y-116911428D01*
X84391428Y-116673333D01*
X84439047Y-116482857D01*
X84486666Y-116387619D01*
X84534285Y-116340000D01*
X84629523Y-116292380D01*
%TO.C,J3*%
X143536666Y-79322380D02*
X143536666Y-80036666D01*
X143489047Y-80179523D01*
X143393809Y-80274761D01*
X143250952Y-80322380D01*
X143155714Y-80322380D01*
X143917619Y-79322380D02*
X144536666Y-79322380D01*
X144203333Y-79703333D01*
X144346190Y-79703333D01*
X144441428Y-79750952D01*
X144489047Y-79798571D01*
X144536666Y-79893809D01*
X144536666Y-80131904D01*
X144489047Y-80227142D01*
X144441428Y-80274761D01*
X144346190Y-80322380D01*
X144060476Y-80322380D01*
X143965238Y-80274761D01*
X143917619Y-80227142D01*
%TO.C,J2*%
X138886666Y-79322380D02*
X138886666Y-80036666D01*
X138839047Y-80179523D01*
X138743809Y-80274761D01*
X138600952Y-80322380D01*
X138505714Y-80322380D01*
X139315238Y-79417619D02*
X139362857Y-79370000D01*
X139458095Y-79322380D01*
X139696190Y-79322380D01*
X139791428Y-79370000D01*
X139839047Y-79417619D01*
X139886666Y-79512857D01*
X139886666Y-79608095D01*
X139839047Y-79750952D01*
X139267619Y-80322380D01*
X139886666Y-80322380D01*
%TO.C,R10*%
X140482142Y-106952380D02*
X140148809Y-106476190D01*
X139910714Y-106952380D02*
X139910714Y-105952380D01*
X140291666Y-105952380D01*
X140386904Y-106000000D01*
X140434523Y-106047619D01*
X140482142Y-106142857D01*
X140482142Y-106285714D01*
X140434523Y-106380952D01*
X140386904Y-106428571D01*
X140291666Y-106476190D01*
X139910714Y-106476190D01*
X141434523Y-106952380D02*
X140863095Y-106952380D01*
X141148809Y-106952380D02*
X141148809Y-105952380D01*
X141053571Y-106095238D01*
X140958333Y-106190476D01*
X140863095Y-106238095D01*
X142053571Y-105952380D02*
X142148809Y-105952380D01*
X142244047Y-106000000D01*
X142291666Y-106047619D01*
X142339285Y-106142857D01*
X142386904Y-106333333D01*
X142386904Y-106571428D01*
X142339285Y-106761904D01*
X142291666Y-106857142D01*
X142244047Y-106904761D01*
X142148809Y-106952380D01*
X142053571Y-106952380D01*
X141958333Y-106904761D01*
X141910714Y-106857142D01*
X141863095Y-106761904D01*
X141815476Y-106571428D01*
X141815476Y-106333333D01*
X141863095Y-106142857D01*
X141910714Y-106047619D01*
X141958333Y-106000000D01*
X142053571Y-105952380D01*
%TO.C,R3*%
X130798333Y-87562380D02*
X130465000Y-87086190D01*
X130226904Y-87562380D02*
X130226904Y-86562380D01*
X130607857Y-86562380D01*
X130703095Y-86610000D01*
X130750714Y-86657619D01*
X130798333Y-86752857D01*
X130798333Y-86895714D01*
X130750714Y-86990952D01*
X130703095Y-87038571D01*
X130607857Y-87086190D01*
X130226904Y-87086190D01*
X131131666Y-86562380D02*
X131750714Y-86562380D01*
X131417380Y-86943333D01*
X131560238Y-86943333D01*
X131655476Y-86990952D01*
X131703095Y-87038571D01*
X131750714Y-87133809D01*
X131750714Y-87371904D01*
X131703095Y-87467142D01*
X131655476Y-87514761D01*
X131560238Y-87562380D01*
X131274523Y-87562380D01*
X131179285Y-87514761D01*
X131131666Y-87467142D01*
%TO.C,R2*%
X121273333Y-101872380D02*
X120940000Y-101396190D01*
X120701904Y-101872380D02*
X120701904Y-100872380D01*
X121082857Y-100872380D01*
X121178095Y-100920000D01*
X121225714Y-100967619D01*
X121273333Y-101062857D01*
X121273333Y-101205714D01*
X121225714Y-101300952D01*
X121178095Y-101348571D01*
X121082857Y-101396190D01*
X120701904Y-101396190D01*
X121654285Y-100967619D02*
X121701904Y-100920000D01*
X121797142Y-100872380D01*
X122035238Y-100872380D01*
X122130476Y-100920000D01*
X122178095Y-100967619D01*
X122225714Y-101062857D01*
X122225714Y-101158095D01*
X122178095Y-101300952D01*
X121606666Y-101872380D01*
X122225714Y-101872380D01*
%TO.C,R1*%
X140958333Y-98062380D02*
X140625000Y-97586190D01*
X140386904Y-98062380D02*
X140386904Y-97062380D01*
X140767857Y-97062380D01*
X140863095Y-97110000D01*
X140910714Y-97157619D01*
X140958333Y-97252857D01*
X140958333Y-97395714D01*
X140910714Y-97490952D01*
X140863095Y-97538571D01*
X140767857Y-97586190D01*
X140386904Y-97586190D01*
X141910714Y-98062380D02*
X141339285Y-98062380D01*
X141625000Y-98062380D02*
X141625000Y-97062380D01*
X141529761Y-97205238D01*
X141434523Y-97300476D01*
X141339285Y-97348095D01*
%TO.C,Q2*%
X126424761Y-101547619D02*
X126329523Y-101500000D01*
X126234285Y-101404761D01*
X126091428Y-101261904D01*
X125996190Y-101214285D01*
X125900952Y-101214285D01*
X125948571Y-101452380D02*
X125853333Y-101404761D01*
X125758095Y-101309523D01*
X125710476Y-101119047D01*
X125710476Y-100785714D01*
X125758095Y-100595238D01*
X125853333Y-100500000D01*
X125948571Y-100452380D01*
X126139047Y-100452380D01*
X126234285Y-100500000D01*
X126329523Y-100595238D01*
X126377142Y-100785714D01*
X126377142Y-101119047D01*
X126329523Y-101309523D01*
X126234285Y-101404761D01*
X126139047Y-101452380D01*
X125948571Y-101452380D01*
X126758095Y-100547619D02*
X126805714Y-100500000D01*
X126900952Y-100452380D01*
X127139047Y-100452380D01*
X127234285Y-100500000D01*
X127281904Y-100547619D01*
X127329523Y-100642857D01*
X127329523Y-100738095D01*
X127281904Y-100880952D01*
X126710476Y-101452380D01*
X127329523Y-101452380D01*
%TO.C,Q1*%
X126424761Y-112977619D02*
X126329523Y-112930000D01*
X126234285Y-112834761D01*
X126091428Y-112691904D01*
X125996190Y-112644285D01*
X125900952Y-112644285D01*
X125948571Y-112882380D02*
X125853333Y-112834761D01*
X125758095Y-112739523D01*
X125710476Y-112549047D01*
X125710476Y-112215714D01*
X125758095Y-112025238D01*
X125853333Y-111930000D01*
X125948571Y-111882380D01*
X126139047Y-111882380D01*
X126234285Y-111930000D01*
X126329523Y-112025238D01*
X126377142Y-112215714D01*
X126377142Y-112549047D01*
X126329523Y-112739523D01*
X126234285Y-112834761D01*
X126139047Y-112882380D01*
X125948571Y-112882380D01*
X127329523Y-112882380D02*
X126758095Y-112882380D01*
X127043809Y-112882380D02*
X127043809Y-111882380D01*
X126948571Y-112025238D01*
X126853333Y-112120476D01*
X126758095Y-112168095D01*
%TO.C,D3*%
X148507380Y-99448095D02*
X147507380Y-99448095D01*
X147507380Y-99210000D01*
X147555000Y-99067142D01*
X147650238Y-98971904D01*
X147745476Y-98924285D01*
X147935952Y-98876666D01*
X148078809Y-98876666D01*
X148269285Y-98924285D01*
X148364523Y-98971904D01*
X148459761Y-99067142D01*
X148507380Y-99210000D01*
X148507380Y-99448095D01*
X147507380Y-98543333D02*
X147507380Y-97924285D01*
X147888333Y-98257619D01*
X147888333Y-98114761D01*
X147935952Y-98019523D01*
X147983571Y-97971904D01*
X148078809Y-97924285D01*
X148316904Y-97924285D01*
X148412142Y-97971904D01*
X148459761Y-98019523D01*
X148507380Y-98114761D01*
X148507380Y-98400476D01*
X148459761Y-98495714D01*
X148412142Y-98543333D01*
%TO.C,D1*%
X148507380Y-108338095D02*
X147507380Y-108338095D01*
X147507380Y-108100000D01*
X147555000Y-107957142D01*
X147650238Y-107861904D01*
X147745476Y-107814285D01*
X147935952Y-107766666D01*
X148078809Y-107766666D01*
X148269285Y-107814285D01*
X148364523Y-107861904D01*
X148459761Y-107957142D01*
X148507380Y-108100000D01*
X148507380Y-108338095D01*
X148507380Y-106814285D02*
X148507380Y-107385714D01*
X148507380Y-107100000D02*
X147507380Y-107100000D01*
X147650238Y-107195238D01*
X147745476Y-107290476D01*
X147793095Y-107385714D01*
%TO.C,U1*%
X120678095Y-43762380D02*
X120678095Y-44571904D01*
X120725714Y-44667142D01*
X120773333Y-44714761D01*
X120868571Y-44762380D01*
X121059047Y-44762380D01*
X121154285Y-44714761D01*
X121201904Y-44667142D01*
X121249523Y-44571904D01*
X121249523Y-43762380D01*
X122249523Y-44762380D02*
X121678095Y-44762380D01*
X121963809Y-44762380D02*
X121963809Y-43762380D01*
X121868571Y-43905238D01*
X121773333Y-44000476D01*
X121678095Y-44048095D01*
X118773333Y-67202380D02*
X118773333Y-66202380D01*
X119106666Y-66916666D01*
X119440000Y-66202380D01*
X119440000Y-67202380D01*
X119868571Y-66916666D02*
X120344761Y-66916666D01*
X119773333Y-67202380D02*
X120106666Y-66202380D01*
X120440000Y-67202380D01*
X120678095Y-66202380D02*
X121344761Y-67202380D01*
X121344761Y-66202380D02*
X120678095Y-67202380D01*
X121678095Y-66297619D02*
X121725714Y-66250000D01*
X121820952Y-66202380D01*
X122059047Y-66202380D01*
X122154285Y-66250000D01*
X122201904Y-66297619D01*
X122249523Y-66392857D01*
X122249523Y-66488095D01*
X122201904Y-66630952D01*
X121630476Y-67202380D01*
X122249523Y-67202380D01*
X122582857Y-66202380D02*
X123201904Y-66202380D01*
X122868571Y-66583333D01*
X123011428Y-66583333D01*
X123106666Y-66630952D01*
X123154285Y-66678571D01*
X123201904Y-66773809D01*
X123201904Y-67011904D01*
X123154285Y-67107142D01*
X123106666Y-67154761D01*
X123011428Y-67202380D01*
X122725714Y-67202380D01*
X122630476Y-67154761D01*
X122582857Y-67107142D01*
X123582857Y-66297619D02*
X123630476Y-66250000D01*
X123725714Y-66202380D01*
X123963809Y-66202380D01*
X124059047Y-66250000D01*
X124106666Y-66297619D01*
X124154285Y-66392857D01*
X124154285Y-66488095D01*
X124106666Y-66630952D01*
X123535238Y-67202380D01*
X124154285Y-67202380D01*
%TO.C,J1*%
X142632380Y-53648333D02*
X143346666Y-53648333D01*
X143489523Y-53695952D01*
X143584761Y-53791190D01*
X143632380Y-53934047D01*
X143632380Y-54029285D01*
X143632380Y-52648333D02*
X143632380Y-53219761D01*
X143632380Y-52934047D02*
X142632380Y-52934047D01*
X142775238Y-53029285D01*
X142870476Y-53124523D01*
X142918095Y-53219761D01*
%TO.C,C4*%
X114752142Y-55676666D02*
X114799761Y-55724285D01*
X114847380Y-55867142D01*
X114847380Y-55962380D01*
X114799761Y-56105238D01*
X114704523Y-56200476D01*
X114609285Y-56248095D01*
X114418809Y-56295714D01*
X114275952Y-56295714D01*
X114085476Y-56248095D01*
X113990238Y-56200476D01*
X113895000Y-56105238D01*
X113847380Y-55962380D01*
X113847380Y-55867142D01*
X113895000Y-55724285D01*
X113942619Y-55676666D01*
X114180714Y-54819523D02*
X114847380Y-54819523D01*
X113799761Y-55057619D02*
X114514047Y-55295714D01*
X114514047Y-54676666D01*
X107347380Y-56105238D02*
X107347380Y-56676666D01*
X107347380Y-56390952D02*
X106347380Y-56390952D01*
X106490238Y-56486190D01*
X106585476Y-56581428D01*
X106633095Y-56676666D01*
X106680714Y-55248095D02*
X107347380Y-55248095D01*
X106680714Y-55676666D02*
X107204523Y-55676666D01*
X107299761Y-55629047D01*
X107347380Y-55533809D01*
X107347380Y-55390952D01*
X107299761Y-55295714D01*
X107252142Y-55248095D01*
X106823571Y-54438571D02*
X106823571Y-54771904D01*
X107347380Y-54771904D02*
X106347380Y-54771904D01*
X106347380Y-54295714D01*
%TO.C,C3*%
X114752142Y-62026666D02*
X114799761Y-62074285D01*
X114847380Y-62217142D01*
X114847380Y-62312380D01*
X114799761Y-62455238D01*
X114704523Y-62550476D01*
X114609285Y-62598095D01*
X114418809Y-62645714D01*
X114275952Y-62645714D01*
X114085476Y-62598095D01*
X113990238Y-62550476D01*
X113895000Y-62455238D01*
X113847380Y-62312380D01*
X113847380Y-62217142D01*
X113895000Y-62074285D01*
X113942619Y-62026666D01*
X113847380Y-61693333D02*
X113847380Y-61074285D01*
X114228333Y-61407619D01*
X114228333Y-61264761D01*
X114275952Y-61169523D01*
X114323571Y-61121904D01*
X114418809Y-61074285D01*
X114656904Y-61074285D01*
X114752142Y-61121904D01*
X114799761Y-61169523D01*
X114847380Y-61264761D01*
X114847380Y-61550476D01*
X114799761Y-61645714D01*
X114752142Y-61693333D01*
X107347380Y-62455238D02*
X107347380Y-63026666D01*
X107347380Y-62740952D02*
X106347380Y-62740952D01*
X106490238Y-62836190D01*
X106585476Y-62931428D01*
X106633095Y-63026666D01*
X106680714Y-61598095D02*
X107347380Y-61598095D01*
X106680714Y-62026666D02*
X107204523Y-62026666D01*
X107299761Y-61979047D01*
X107347380Y-61883809D01*
X107347380Y-61740952D01*
X107299761Y-61645714D01*
X107252142Y-61598095D01*
X106823571Y-60788571D02*
X106823571Y-61121904D01*
X107347380Y-61121904D02*
X106347380Y-61121904D01*
X106347380Y-60645714D01*
%TO.C,C2*%
X122063333Y-36362142D02*
X122015714Y-36409761D01*
X121872857Y-36457380D01*
X121777619Y-36457380D01*
X121634761Y-36409761D01*
X121539523Y-36314523D01*
X121491904Y-36219285D01*
X121444285Y-36028809D01*
X121444285Y-35885952D01*
X121491904Y-35695476D01*
X121539523Y-35600238D01*
X121634761Y-35505000D01*
X121777619Y-35457380D01*
X121872857Y-35457380D01*
X122015714Y-35505000D01*
X122063333Y-35552619D01*
X122444285Y-35552619D02*
X122491904Y-35505000D01*
X122587142Y-35457380D01*
X122825238Y-35457380D01*
X122920476Y-35505000D01*
X122968095Y-35552619D01*
X123015714Y-35647857D01*
X123015714Y-35743095D01*
X122968095Y-35885952D01*
X122396666Y-36457380D01*
X123015714Y-36457380D01*
X126404761Y-40452380D02*
X125833333Y-40452380D01*
X126119047Y-40452380D02*
X126119047Y-39452380D01*
X126023809Y-39595238D01*
X125928571Y-39690476D01*
X125833333Y-39738095D01*
X127261904Y-39785714D02*
X127261904Y-40452380D01*
X126833333Y-39785714D02*
X126833333Y-40309523D01*
X126880952Y-40404761D01*
X126976190Y-40452380D01*
X127119047Y-40452380D01*
X127214285Y-40404761D01*
X127261904Y-40357142D01*
X128071428Y-39928571D02*
X127738095Y-39928571D01*
X127738095Y-40452380D02*
X127738095Y-39452380D01*
X128214285Y-39452380D01*
%TO.C,C1*%
X114752142Y-49366666D02*
X114799761Y-49414285D01*
X114847380Y-49557142D01*
X114847380Y-49652380D01*
X114799761Y-49795238D01*
X114704523Y-49890476D01*
X114609285Y-49938095D01*
X114418809Y-49985714D01*
X114275952Y-49985714D01*
X114085476Y-49938095D01*
X113990238Y-49890476D01*
X113895000Y-49795238D01*
X113847380Y-49652380D01*
X113847380Y-49557142D01*
X113895000Y-49414285D01*
X113942619Y-49366666D01*
X114847380Y-48414285D02*
X114847380Y-48985714D01*
X114847380Y-48700000D02*
X113847380Y-48700000D01*
X113990238Y-48795238D01*
X114085476Y-48890476D01*
X114133095Y-48985714D01*
X107347380Y-49795238D02*
X107347380Y-50366666D01*
X107347380Y-50080952D02*
X106347380Y-50080952D01*
X106490238Y-50176190D01*
X106585476Y-50271428D01*
X106633095Y-50366666D01*
X106680714Y-48938095D02*
X107347380Y-48938095D01*
X106680714Y-49366666D02*
X107204523Y-49366666D01*
X107299761Y-49319047D01*
X107347380Y-49223809D01*
X107347380Y-49080952D01*
X107299761Y-48985714D01*
X107252142Y-48938095D01*
X106823571Y-48128571D02*
X106823571Y-48461904D01*
X107347380Y-48461904D02*
X106347380Y-48461904D01*
X106347380Y-47985714D01*
%TO.C,D2*%
X52601904Y-124277380D02*
X52601904Y-123277380D01*
X52840000Y-123277380D01*
X52982857Y-123325000D01*
X53078095Y-123420238D01*
X53125714Y-123515476D01*
X53173333Y-123705952D01*
X53173333Y-123848809D01*
X53125714Y-124039285D01*
X53078095Y-124134523D01*
X52982857Y-124229761D01*
X52840000Y-124277380D01*
X52601904Y-124277380D01*
X53554285Y-123372619D02*
X53601904Y-123325000D01*
X53697142Y-123277380D01*
X53935238Y-123277380D01*
X54030476Y-123325000D01*
X54078095Y-123372619D01*
X54125714Y-123467857D01*
X54125714Y-123563095D01*
X54078095Y-123705952D01*
X53506666Y-124277380D01*
X54125714Y-124277380D01*
X60722142Y-126747380D02*
X60150714Y-126747380D01*
X60436428Y-126747380D02*
X60436428Y-125747380D01*
X60341190Y-125890238D01*
X60245952Y-125985476D01*
X60150714Y-126033095D01*
X61150714Y-126747380D02*
X61150714Y-125747380D01*
X61722142Y-126747380D01*
X61722142Y-125747380D01*
X62674523Y-125747380D02*
X62198333Y-125747380D01*
X62150714Y-126223571D01*
X62198333Y-126175952D01*
X62293571Y-126128333D01*
X62531666Y-126128333D01*
X62626904Y-126175952D01*
X62674523Y-126223571D01*
X62722142Y-126318809D01*
X62722142Y-126556904D01*
X62674523Y-126652142D01*
X62626904Y-126699761D01*
X62531666Y-126747380D01*
X62293571Y-126747380D01*
X62198333Y-126699761D01*
X62150714Y-126652142D01*
X63293571Y-126175952D02*
X63198333Y-126128333D01*
X63150714Y-126080714D01*
X63103095Y-125985476D01*
X63103095Y-125937857D01*
X63150714Y-125842619D01*
X63198333Y-125795000D01*
X63293571Y-125747380D01*
X63484047Y-125747380D01*
X63579285Y-125795000D01*
X63626904Y-125842619D01*
X63674523Y-125937857D01*
X63674523Y-125985476D01*
X63626904Y-126080714D01*
X63579285Y-126128333D01*
X63484047Y-126175952D01*
X63293571Y-126175952D01*
X63198333Y-126223571D01*
X63150714Y-126271190D01*
X63103095Y-126366428D01*
X63103095Y-126556904D01*
X63150714Y-126652142D01*
X63198333Y-126699761D01*
X63293571Y-126747380D01*
X63484047Y-126747380D01*
X63579285Y-126699761D01*
X63626904Y-126652142D01*
X63674523Y-126556904D01*
X63674523Y-126366428D01*
X63626904Y-126271190D01*
X63579285Y-126223571D01*
X63484047Y-126175952D01*
X64626904Y-126747380D02*
X64055476Y-126747380D01*
X64341190Y-126747380D02*
X64341190Y-125747380D01*
X64245952Y-125890238D01*
X64150714Y-125985476D01*
X64055476Y-126033095D01*
X65103095Y-126747380D02*
X65293571Y-126747380D01*
X65388809Y-126699761D01*
X65436428Y-126652142D01*
X65531666Y-126509285D01*
X65579285Y-126318809D01*
X65579285Y-125937857D01*
X65531666Y-125842619D01*
X65484047Y-125795000D01*
X65388809Y-125747380D01*
X65198333Y-125747380D01*
X65103095Y-125795000D01*
X65055476Y-125842619D01*
X65007857Y-125937857D01*
X65007857Y-126175952D01*
X65055476Y-126271190D01*
X65103095Y-126318809D01*
X65198333Y-126366428D01*
X65388809Y-126366428D01*
X65484047Y-126318809D01*
X65531666Y-126271190D01*
X65579285Y-126175952D01*
X54983095Y-124277380D02*
X54983095Y-123277380D01*
X55554523Y-124277380D02*
X55125952Y-123705952D01*
X55554523Y-123277380D02*
X54983095Y-123848809D01*
%TO.C,C8*%
X51157142Y-120181666D02*
X51204761Y-120229285D01*
X51252380Y-120372142D01*
X51252380Y-120467380D01*
X51204761Y-120610238D01*
X51109523Y-120705476D01*
X51014285Y-120753095D01*
X50823809Y-120800714D01*
X50680952Y-120800714D01*
X50490476Y-120753095D01*
X50395238Y-120705476D01*
X50300000Y-120610238D01*
X50252380Y-120467380D01*
X50252380Y-120372142D01*
X50300000Y-120229285D01*
X50347619Y-120181666D01*
X50680952Y-119610238D02*
X50633333Y-119705476D01*
X50585714Y-119753095D01*
X50490476Y-119800714D01*
X50442857Y-119800714D01*
X50347619Y-119753095D01*
X50300000Y-119705476D01*
X50252380Y-119610238D01*
X50252380Y-119419761D01*
X50300000Y-119324523D01*
X50347619Y-119276904D01*
X50442857Y-119229285D01*
X50490476Y-119229285D01*
X50585714Y-119276904D01*
X50633333Y-119324523D01*
X50680952Y-119419761D01*
X50680952Y-119610238D01*
X50728571Y-119705476D01*
X50776190Y-119753095D01*
X50871428Y-119800714D01*
X51061904Y-119800714D01*
X51157142Y-119753095D01*
X51204761Y-119705476D01*
X51252380Y-119610238D01*
X51252380Y-119419761D01*
X51204761Y-119324523D01*
X51157142Y-119276904D01*
X51061904Y-119229285D01*
X50871428Y-119229285D01*
X50776190Y-119276904D01*
X50728571Y-119324523D01*
X50680952Y-119419761D01*
X50585714Y-109354761D02*
X51252380Y-109354761D01*
X50204761Y-109592857D02*
X50919047Y-109830952D01*
X50919047Y-109211904D01*
X51157142Y-108830952D02*
X51204761Y-108783333D01*
X51252380Y-108830952D01*
X51204761Y-108878571D01*
X51157142Y-108830952D01*
X51252380Y-108830952D01*
X50252380Y-108449999D02*
X50252380Y-107783333D01*
X51252380Y-108211904D01*
X50585714Y-106973809D02*
X51252380Y-106973809D01*
X50585714Y-107402380D02*
X51109523Y-107402380D01*
X51204761Y-107354761D01*
X51252380Y-107259523D01*
X51252380Y-107116666D01*
X51204761Y-107021428D01*
X51157142Y-106973809D01*
X50728571Y-106164285D02*
X50728571Y-106497619D01*
X51252380Y-106497619D02*
X50252380Y-106497619D01*
X50252380Y-106021428D01*
%TO.C,C6*%
X58142142Y-120181666D02*
X58189761Y-120229285D01*
X58237380Y-120372142D01*
X58237380Y-120467380D01*
X58189761Y-120610238D01*
X58094523Y-120705476D01*
X57999285Y-120753095D01*
X57808809Y-120800714D01*
X57665952Y-120800714D01*
X57475476Y-120753095D01*
X57380238Y-120705476D01*
X57285000Y-120610238D01*
X57237380Y-120467380D01*
X57237380Y-120372142D01*
X57285000Y-120229285D01*
X57332619Y-120181666D01*
X57237380Y-119324523D02*
X57237380Y-119515000D01*
X57285000Y-119610238D01*
X57332619Y-119657857D01*
X57475476Y-119753095D01*
X57665952Y-119800714D01*
X58046904Y-119800714D01*
X58142142Y-119753095D01*
X58189761Y-119705476D01*
X58237380Y-119610238D01*
X58237380Y-119419761D01*
X58189761Y-119324523D01*
X58142142Y-119276904D01*
X58046904Y-119229285D01*
X57808809Y-119229285D01*
X57713571Y-119276904D01*
X57665952Y-119324523D01*
X57618333Y-119419761D01*
X57618333Y-119610238D01*
X57665952Y-119705476D01*
X57713571Y-119753095D01*
X57808809Y-119800714D01*
X57570714Y-109354761D02*
X58237380Y-109354761D01*
X57189761Y-109592857D02*
X57904047Y-109830952D01*
X57904047Y-109211904D01*
X58142142Y-108830952D02*
X58189761Y-108783333D01*
X58237380Y-108830952D01*
X58189761Y-108878571D01*
X58142142Y-108830952D01*
X58237380Y-108830952D01*
X57237380Y-108449999D02*
X57237380Y-107783333D01*
X58237380Y-108211904D01*
X57570714Y-106973809D02*
X58237380Y-106973809D01*
X57570714Y-107402380D02*
X58094523Y-107402380D01*
X58189761Y-107354761D01*
X58237380Y-107259523D01*
X58237380Y-107116666D01*
X58189761Y-107021428D01*
X58142142Y-106973809D01*
X57713571Y-106164285D02*
X57713571Y-106497619D01*
X58237380Y-106497619D02*
X57237380Y-106497619D01*
X57237380Y-106021428D01*
%TO.C,H4*%
X149238095Y-21252380D02*
X149238095Y-20252380D01*
X149238095Y-20728571D02*
X149809523Y-20728571D01*
X149809523Y-21252380D02*
X149809523Y-20252380D01*
X150714285Y-20585714D02*
X150714285Y-21252380D01*
X150476190Y-20204761D02*
X150238095Y-20919047D01*
X150857142Y-20919047D01*
%TO.C,H3*%
X34238095Y-124252380D02*
X34238095Y-123252380D01*
X34238095Y-123728571D02*
X34809523Y-123728571D01*
X34809523Y-124252380D02*
X34809523Y-123252380D01*
X35190476Y-123252380D02*
X35809523Y-123252380D01*
X35476190Y-123633333D01*
X35619047Y-123633333D01*
X35714285Y-123680952D01*
X35761904Y-123728571D01*
X35809523Y-123823809D01*
X35809523Y-124061904D01*
X35761904Y-124157142D01*
X35714285Y-124204761D01*
X35619047Y-124252380D01*
X35333333Y-124252380D01*
X35238095Y-124204761D01*
X35190476Y-124157142D01*
%TO.C,H2*%
X34238095Y-21252380D02*
X34238095Y-20252380D01*
X34238095Y-20728571D02*
X34809523Y-20728571D01*
X34809523Y-21252380D02*
X34809523Y-20252380D01*
X35238095Y-20347619D02*
X35285714Y-20300000D01*
X35380952Y-20252380D01*
X35619047Y-20252380D01*
X35714285Y-20300000D01*
X35761904Y-20347619D01*
X35809523Y-20442857D01*
X35809523Y-20538095D01*
X35761904Y-20680952D01*
X35190476Y-21252380D01*
X35809523Y-21252380D01*
%TO.C,H1*%
X149238095Y-124252380D02*
X149238095Y-123252380D01*
X149238095Y-123728571D02*
X149809523Y-123728571D01*
X149809523Y-124252380D02*
X149809523Y-123252380D01*
X150809523Y-124252380D02*
X150238095Y-124252380D01*
X150523809Y-124252380D02*
X150523809Y-123252380D01*
X150428571Y-123395238D01*
X150333333Y-123490476D01*
X150238095Y-123538095D01*
%TD*%
M02*
