%TF.GenerationSoftware,KiCad,Pcbnew,(6.0.4-0)*%
%TF.CreationDate,2024-04-14T15:40:16+10:00*%
%TF.ProjectId,PC and ADDER 74LS74 MOD,50432061-6e64-4204-9144-444552203734,rev?*%
%TF.SameCoordinates,Original*%
%TF.FileFunction,Copper,L2,Bot*%
%TF.FilePolarity,Positive*%
%FSLAX46Y46*%
G04 Gerber Fmt 4.6, Leading zero omitted, Abs format (unit mm)*
G04 Created by KiCad (PCBNEW (6.0.4-0)) date 2024-04-14 15:40:16*
%MOMM*%
%LPD*%
G01*
G04 APERTURE LIST*
G04 Aperture macros list*
%AMRoundRect*
0 Rectangle with rounded corners*
0 $1 Rounding radius*
0 $2 $3 $4 $5 $6 $7 $8 $9 X,Y pos of 4 corners*
0 Add a 4 corners polygon primitive as box body*
4,1,4,$2,$3,$4,$5,$6,$7,$8,$9,$2,$3,0*
0 Add four circle primitives for the rounded corners*
1,1,$1+$1,$2,$3*
1,1,$1+$1,$4,$5*
1,1,$1+$1,$6,$7*
1,1,$1+$1,$8,$9*
0 Add four rect primitives between the rounded corners*
20,1,$1+$1,$2,$3,$4,$5,0*
20,1,$1+$1,$4,$5,$6,$7,0*
20,1,$1+$1,$6,$7,$8,$9,0*
20,1,$1+$1,$8,$9,$2,$3,0*%
G04 Aperture macros list end*
%TA.AperFunction,ConnectorPad*%
%ADD10R,2.540000X10.000000*%
%TD*%
%TA.AperFunction,ComponentPad*%
%ADD11R,1.600000X1.600000*%
%TD*%
%TA.AperFunction,ComponentPad*%
%ADD12O,1.600000X1.600000*%
%TD*%
%TA.AperFunction,ComponentPad*%
%ADD13C,1.600000*%
%TD*%
%TA.AperFunction,ComponentPad*%
%ADD14C,5.000000*%
%TD*%
%TA.AperFunction,ComponentPad*%
%ADD15RoundRect,0.250000X0.600000X0.725000X-0.600000X0.725000X-0.600000X-0.725000X0.600000X-0.725000X0*%
%TD*%
%TA.AperFunction,ComponentPad*%
%ADD16O,1.700000X1.950000*%
%TD*%
%TA.AperFunction,ComponentPad*%
%ADD17C,2.000000*%
%TD*%
%TA.AperFunction,ComponentPad*%
%ADD18RoundRect,0.250000X0.600000X0.750000X-0.600000X0.750000X-0.600000X-0.750000X0.600000X-0.750000X0*%
%TD*%
%TA.AperFunction,ComponentPad*%
%ADD19O,1.700000X2.000000*%
%TD*%
%TA.AperFunction,ComponentPad*%
%ADD20R,2.400000X1.600000*%
%TD*%
%TA.AperFunction,ComponentPad*%
%ADD21O,2.400000X1.600000*%
%TD*%
%TA.AperFunction,ViaPad*%
%ADD22C,2.000000*%
%TD*%
%TA.AperFunction,ViaPad*%
%ADD23C,1.270000*%
%TD*%
%TA.AperFunction,ViaPad*%
%ADD24C,1.500000*%
%TD*%
%TA.AperFunction,Conductor*%
%ADD25C,2.000000*%
%TD*%
%TA.AperFunction,Conductor*%
%ADD26C,0.500000*%
%TD*%
G04 APERTURE END LIST*
D10*
%TO.P,J1,1,1*%
%TO.N,GND*%
X251050000Y-174170000D03*
%TO.P,J1,2,2*%
%TO.N,+5V*%
X247087600Y-174170000D03*
%TO.P,J1,3,3*%
X243125200Y-174170000D03*
%TO.P,J1,4,4*%
%TO.N,A-BUS*%
X239162800Y-174170000D03*
%TO.P,J1,5,5*%
%TO.N,B-BUS*%
X235200400Y-174170000D03*
%TO.P,J1,6,6*%
%TO.N,C-BUS*%
X231238000Y-174170000D03*
%TO.P,J1,7,7*%
%TO.N,unconnected-(J1-Pad7)*%
X227275600Y-174170000D03*
%TO.P,J1,8,8*%
%TO.N,~{T0+T12}*%
X223313200Y-174170000D03*
%TO.P,J1,9,9*%
%TO.N,~{T13.RAR}*%
X219350800Y-174170000D03*
%TO.P,J1,10,10*%
%TO.N,~{IOT.SKP}*%
X215388400Y-174170000D03*
%TO.P,J1,11,11*%
%TO.N,MCP*%
X211426000Y-174170000D03*
%TO.P,J1,12,12*%
%TO.N,T13*%
X207463600Y-174170000D03*
%TO.P,J1,13,13*%
%TO.N,T2-9*%
X203501200Y-174170000D03*
%TO.P,J1,14,14*%
%TO.N,T1*%
X199538800Y-174170000D03*
%TO.P,J1,15,15*%
%TO.N,~{T2-9(TAD+IAC+CMA})*%
X195576400Y-174170000D03*
%TO.P,J1,16,16*%
%TO.N,AC=0*%
X191614000Y-174170000D03*
%TO.P,J1,17,17*%
%TO.N,~{LA1}*%
X187651600Y-174170000D03*
%TO.P,J1,18,18*%
%TO.N,LA2*%
X183689200Y-174170000D03*
%TO.P,J1,19,19*%
%TO.N,~{T2-9.ISZ}*%
X179726800Y-174170000D03*
%TO.P,J1,20,20*%
%TO.N,~{T2-9(F+D+E})*%
X175764400Y-174170000D03*
%TO.P,J1,21,21*%
%TO.N,~{T14-21(JMP+JMS})*%
X171802000Y-174170000D03*
%TO.P,J1,22,22*%
%TO.N,~{T14-21.SKP}*%
X167839600Y-174170000D03*
%TO.P,J1,23,23*%
%TO.N,~{F+D+E}*%
X163877200Y-174170000D03*
%TO.P,J1,24,24*%
%TO.N,SR0*%
X159914800Y-174170000D03*
%TO.P,J1,25,25*%
%TO.N,SR1*%
X155952400Y-174170000D03*
%TO.P,J1,26,26*%
%TO.N,SR2*%
X151990000Y-174170000D03*
%TO.P,J1,27,27*%
%TO.N,SR3*%
X148027600Y-174170000D03*
%TO.P,J1,28,28*%
%TO.N,SR4*%
X144065200Y-174170000D03*
%TO.P,J1,29,29*%
%TO.N,unconnected-(J1-Pad29)*%
X140102800Y-174170000D03*
%TO.P,J1,30,30*%
%TO.N,~{SMA}*%
X136140400Y-174170000D03*
%TO.P,J1,31,31*%
%TO.N,~{SZA}*%
X132178000Y-174170000D03*
%TO.P,J1,32,32*%
%TO.N,unconnected-(J1-Pad32)*%
X128215600Y-174170000D03*
%TD*%
%TO.P,J5,1,1*%
%TO.N,MB=0*%
X98423200Y-174058000D03*
%TO.P,J5,2,2*%
%TO.N,~{TAD}*%
X94460800Y-174058000D03*
%TO.P,J5,3,3*%
%TO.N,~{ISZ}*%
X90498400Y-174058000D03*
%TO.P,J5,4,4*%
%TO.N,~{JMS}*%
X86536000Y-174058000D03*
%TO.P,J5,5,5*%
%TO.N,~{RAR}*%
X82573600Y-174058000D03*
%TO.P,J5,6,6*%
%TO.N,~{IAC}*%
X78611200Y-174058000D03*
%TO.P,J5,7,7*%
%TO.N,unconnected-(J5-Pad7)*%
X74648800Y-174058000D03*
%TO.P,J5,8,8*%
%TO.N,AC=-VE*%
X70686400Y-174058000D03*
%TO.P,J5,9,9*%
%TO.N,PC0*%
X66724000Y-174058000D03*
%TO.P,J5,10,10*%
%TO.N,PC1*%
X62761600Y-174058000D03*
%TO.P,J5,11,11*%
%TO.N,PC2*%
X58799200Y-174058000D03*
%TO.P,J5,12,12*%
%TO.N,PC3*%
X54836800Y-174058000D03*
%TO.P,J5,13,13*%
%TO.N,PC4*%
X50874400Y-174058000D03*
%TO.P,J5,14,14*%
%TO.N,unconnected-(J5-Pad14)*%
X46912000Y-174058000D03*
%TO.P,J5,15,15*%
%TO.N,GND*%
X42949600Y-174058000D03*
%TO.P,J5,16,16*%
X38987200Y-174058000D03*
%TD*%
D11*
%TO.P,U5,1*%
%TO.N,Net-(U10-Pad6)*%
X99120000Y-101740000D03*
D12*
%TO.P,U5,2*%
%TO.N,Net-(U10-Pad11)*%
X99120000Y-99200000D03*
%TO.P,U5,3*%
%TO.N,~{IOT.SKP}*%
X99120000Y-96660000D03*
%TO.P,U5,4*%
%TO.N,Net-(U11-Pad3)*%
X99120000Y-94120000D03*
%TO.P,U5,5*%
%TO.N,Net-(U11-Pad6)*%
X99120000Y-91580000D03*
%TO.P,U5,6*%
%TO.N,Net-(U10-Pad4)*%
X99120000Y-89040000D03*
%TO.P,U5,7,GND*%
%TO.N,GND*%
X99120000Y-86500000D03*
%TO.P,U5,8*%
%TO.N,Net-(U10-Pad9)*%
X91500000Y-86500000D03*
%TO.P,U5,9*%
%TO.N,~{IAC}*%
X91500000Y-89040000D03*
%TO.P,U5,10*%
%TO.N,~{ISZ}*%
X91500000Y-91580000D03*
%TO.P,U5,11*%
%TO.N,~{F+D+E}*%
X91500000Y-94120000D03*
%TO.P,U5,12*%
%TO.N,SET_CARRY_FLAG*%
X91500000Y-96660000D03*
%TO.P,U5,13*%
%TO.N,Net-(U10-Pad8)*%
X91500000Y-99200000D03*
%TO.P,U5,14,VCC*%
%TO.N,+5V*%
X91500000Y-101740000D03*
%TD*%
D11*
%TO.P,U6,1*%
%TO.N,~{T2-9.ISZ}*%
X173620000Y-101740000D03*
D12*
%TO.P,U6,2*%
%TO.N,Net-(U12-Pad4)*%
X173620000Y-99200000D03*
%TO.P,U6,3*%
%TO.N,Net-(U6-Pad3)*%
X173620000Y-96660000D03*
%TO.P,U6,4*%
%TO.N,~{T14-21.SKP}*%
X173620000Y-94120000D03*
%TO.P,U6,5*%
%TO.N,~{T14-21(JMP+JMS})*%
X173620000Y-91580000D03*
%TO.P,U6,6*%
%TO.N,Net-(U12-Pad5)*%
X173620000Y-89040000D03*
%TO.P,U6,7,GND*%
%TO.N,GND*%
X173620000Y-86500000D03*
%TO.P,U6,8*%
%TO.N,~{T2-9.JMS}*%
X166000000Y-86500000D03*
%TO.P,U6,9*%
%TO.N,T2-9*%
X166000000Y-89040000D03*
%TO.P,U6,10*%
%TO.N,Net-(U6-Pad10)*%
X166000000Y-91580000D03*
%TO.P,U6,11*%
%TO.N,~{T2-9.TAD}*%
X166000000Y-94120000D03*
%TO.P,U6,12*%
%TO.N,T2-9*%
X166000000Y-96660000D03*
%TO.P,U6,13*%
%TO.N,Net-(U6-Pad13)*%
X166000000Y-99200000D03*
%TO.P,U6,14,VCC*%
%TO.N,+5V*%
X166000000Y-101740000D03*
%TD*%
D11*
%TO.P,U9,1*%
%TO.N,~{SMA}*%
X70620000Y-141740000D03*
D12*
%TO.P,U9,2*%
%TO.N,Net-(U11-Pad1)*%
X70620000Y-139200000D03*
%TO.P,U9,3*%
%TO.N,~{SZA}*%
X70620000Y-136660000D03*
%TO.P,U9,4*%
%TO.N,Net-(U11-Pad5)*%
X70620000Y-134120000D03*
%TO.P,U9,5*%
%TO.N,~{TAD}*%
X70620000Y-131580000D03*
%TO.P,U9,6*%
%TO.N,Net-(U6-Pad13)*%
X70620000Y-129040000D03*
%TO.P,U9,7,GND*%
%TO.N,GND*%
X70620000Y-126500000D03*
%TO.P,U9,8*%
%TO.N,Net-(U10-Pad2)*%
X63000000Y-126500000D03*
%TO.P,U9,9*%
%TO.N,~{RAR}*%
X63000000Y-129040000D03*
%TO.P,U9,10*%
%TO.N,Net-(U6-Pad10)*%
X63000000Y-131580000D03*
%TO.P,U9,11*%
%TO.N,~{JMS}*%
X63000000Y-134120000D03*
%TO.P,U9,12*%
%TO.N,Net-(U11-Pad10)*%
X63000000Y-136660000D03*
%TO.P,U9,13*%
%TO.N,~{ISZ}*%
X63000000Y-139200000D03*
%TO.P,U9,14,VCC*%
%TO.N,+5V*%
X63000000Y-141740000D03*
%TD*%
D11*
%TO.P,U10,1*%
%TO.N,T13*%
X99120000Y-141740000D03*
D12*
%TO.P,U10,2*%
%TO.N,Net-(U10-Pad2)*%
X99120000Y-139200000D03*
%TO.P,U10,3*%
%TO.N,~{T13.RAR}*%
X99120000Y-136660000D03*
%TO.P,U10,4*%
%TO.N,Net-(U10-Pad4)*%
X99120000Y-134120000D03*
%TO.P,U10,5*%
%TO.N,T13*%
X99120000Y-131580000D03*
%TO.P,U10,6*%
%TO.N,Net-(U10-Pad6)*%
X99120000Y-129040000D03*
%TO.P,U10,7,GND*%
%TO.N,GND*%
X99120000Y-126500000D03*
%TO.P,U10,8*%
%TO.N,Net-(U10-Pad8)*%
X91500000Y-126500000D03*
%TO.P,U10,9*%
%TO.N,Net-(U10-Pad9)*%
X91500000Y-129040000D03*
%TO.P,U10,10*%
%TO.N,T1*%
X91500000Y-131580000D03*
%TO.P,U10,11*%
%TO.N,Net-(U10-Pad11)*%
X91500000Y-134120000D03*
%TO.P,U10,12*%
%TO.N,T13*%
X91500000Y-136660000D03*
%TO.P,U10,13*%
%TO.N,Net-(U10-Pad13)*%
X91500000Y-139200000D03*
%TO.P,U10,14,VCC*%
%TO.N,+5V*%
X91500000Y-141740000D03*
%TD*%
D11*
%TO.P,U11,1*%
%TO.N,Net-(U11-Pad1)*%
X128120000Y-141740000D03*
D12*
%TO.P,U11,2*%
%TO.N,AC=-VE*%
X128120000Y-139200000D03*
%TO.P,U11,3*%
%TO.N,Net-(U11-Pad3)*%
X128120000Y-136660000D03*
%TO.P,U11,4*%
%TO.N,AC=0*%
X128120000Y-134120000D03*
%TO.P,U11,5*%
%TO.N,Net-(U11-Pad5)*%
X128120000Y-131580000D03*
%TO.P,U11,6*%
%TO.N,Net-(U11-Pad6)*%
X128120000Y-129040000D03*
%TO.P,U11,7,GND*%
%TO.N,GND*%
X128120000Y-126500000D03*
%TO.P,U11,8*%
%TO.N,Net-(U11-Pad12)*%
X120500000Y-126500000D03*
%TO.P,U11,9*%
%TO.N,MB=0*%
X120500000Y-129040000D03*
%TO.P,U11,10*%
%TO.N,Net-(U11-Pad10)*%
X120500000Y-131580000D03*
%TO.P,U11,11*%
%TO.N,Net-(U10-Pad13)*%
X120500000Y-134120000D03*
%TO.P,U11,12*%
%TO.N,Net-(U11-Pad12)*%
X120500000Y-136660000D03*
%TO.P,U11,13*%
%TO.N,~{JMS}*%
X120500000Y-139200000D03*
%TO.P,U11,14,VCC*%
%TO.N,+5V*%
X120500000Y-141740000D03*
%TD*%
D11*
%TO.P,U12,1*%
%TO.N,~{T2-9.ISZ}*%
X173620000Y-141740000D03*
D12*
%TO.P,U12,2*%
%TO.N,T2-9.ISZ*%
X173620000Y-139200000D03*
%TO.P,U12,3*%
%TO.N,X1*%
X173620000Y-136660000D03*
%TO.P,U12,4*%
%TO.N,Net-(U12-Pad4)*%
X173620000Y-134120000D03*
%TO.P,U12,5*%
%TO.N,Net-(U12-Pad5)*%
X173620000Y-131580000D03*
%TO.P,U12,6*%
%TO.N,Net-(U12-Pad6)*%
X173620000Y-129040000D03*
%TO.P,U12,7,GND*%
%TO.N,GND*%
X173620000Y-126500000D03*
%TO.P,U12,8*%
%TO.N,/~{SET_CARRY_FLAG}*%
X166000000Y-126500000D03*
%TO.P,U12,9*%
%TO.N,SET_CARRY_FLAG*%
X166000000Y-129040000D03*
%TO.P,U12,10*%
%TO.N,unconnected-(U12-Pad10)*%
X166000000Y-131580000D03*
%TO.P,U12,11*%
%TO.N,~{T14-21(JMP+JMS})*%
X166000000Y-134120000D03*
%TO.P,U12,12*%
%TO.N,Net-(U12-Pad12)*%
X166000000Y-136660000D03*
%TO.P,U12,13*%
%TO.N,~{T14-21.SKP}*%
X166000000Y-139200000D03*
%TO.P,U12,14,VCC*%
%TO.N,+5V*%
X166000000Y-141740000D03*
%TD*%
D11*
%TO.P,U13,1*%
%TO.N,~{T2-9(F+D+E})*%
X201620000Y-141740000D03*
D12*
%TO.P,U13,2*%
%TO.N,~{T2-9(TAD+IAC+CMA})*%
X201620000Y-139200000D03*
%TO.P,U13,3*%
%TO.N,N/C*%
X201620000Y-136660000D03*
%TO.P,U13,4*%
%TO.N,~{T13.RAR}*%
X201620000Y-134120000D03*
%TO.P,U13,5*%
%TO.N,Net-(U12-Pad6)*%
X201620000Y-131580000D03*
%TO.P,U13,6*%
%TO.N,X1*%
X201620000Y-129040000D03*
%TO.P,U13,7,GND*%
%TO.N,GND*%
X201620000Y-126500000D03*
%TO.P,U13,8*%
%TO.N,Net-(U13-Pad8)*%
X194000000Y-126500000D03*
%TO.P,U13,9*%
%TO.N,~{T13.RAR}*%
X194000000Y-129040000D03*
%TO.P,U13,10*%
%TO.N,~{T14-21.SKP}*%
X194000000Y-131580000D03*
%TO.P,U13,11*%
%TO.N,N/C*%
X194000000Y-134120000D03*
%TO.P,U13,12*%
%TO.N,~{T2-9.ISZ}*%
X194000000Y-136660000D03*
%TO.P,U13,13*%
%TO.N,~{T2-9(TAD+IAC+CMA})*%
X194000000Y-139200000D03*
%TO.P,U13,14,VCC*%
%TO.N,+5V*%
X194000000Y-141740000D03*
%TD*%
D11*
%TO.P,U14,1*%
%TO.N,A-BUS*%
X230620000Y-141740000D03*
D12*
%TO.P,U14,2*%
%TO.N,X1*%
X230620000Y-139200000D03*
%TO.P,U14,3*%
%TO.N,SUM*%
X230620000Y-136660000D03*
%TO.P,U14,4*%
%TO.N,C-BUS*%
X230620000Y-134120000D03*
%TO.P,U14,5*%
%TO.N,T2-9.ISZ*%
X230620000Y-131580000D03*
%TO.P,U14,6*%
%TO.N,SUM*%
X230620000Y-129040000D03*
%TO.P,U14,7,GND*%
%TO.N,GND*%
X230620000Y-126500000D03*
%TO.P,U14,8*%
%TO.N,Net-(U14-Pad8)*%
X223000000Y-126500000D03*
%TO.P,U14,9*%
%TO.N,PC0*%
X223000000Y-129040000D03*
%TO.P,U14,10*%
%TO.N,C-BUS*%
X223000000Y-131580000D03*
%TO.P,U14,11*%
%TO.N,PC0*%
X223000000Y-134120000D03*
%TO.P,U14,12*%
%TO.N,Net-(U12-Pad12)*%
X223000000Y-136660000D03*
%TO.P,U14,13*%
%TO.N,B-BUS*%
X223000000Y-139200000D03*
%TO.P,U14,14,VCC*%
%TO.N,+5V*%
X223000000Y-141740000D03*
%TD*%
D11*
%TO.P,U1,1,CLK*%
%TO.N,CLK*%
X70620000Y-63780000D03*
D12*
%TO.P,U1,2,A*%
%TO.N,SR4*%
X70620000Y-61240000D03*
%TO.P,U1,3,B*%
%TO.N,SR3*%
X70620000Y-58700000D03*
%TO.P,U1,4,C*%
%TO.N,SR2*%
X70620000Y-56160000D03*
%TO.P,U1,5,VCC*%
%TO.N,+5V*%
X70620000Y-53620000D03*
%TO.P,U1,6,D*%
%TO.N,SR1*%
X70620000Y-51080000D03*
%TO.P,U1,7,E*%
%TO.N,SR0*%
X70620000Y-48540000D03*
%TO.P,U1,8,PRE*%
%TO.N,LA2*%
X70620000Y-46000000D03*
%TO.P,U1,9,SER*%
%TO.N,PC5*%
X63000000Y-46000000D03*
%TO.P,U1,10,QE*%
%TO.N,PC0*%
X63000000Y-48540000D03*
%TO.P,U1,11,QD*%
%TO.N,PC1*%
X63000000Y-51080000D03*
%TO.P,U1,12,GND*%
%TO.N,GND*%
X63000000Y-53620000D03*
%TO.P,U1,13,QC*%
%TO.N,PC2*%
X63000000Y-56160000D03*
%TO.P,U1,14,QB*%
%TO.N,PC3*%
X63000000Y-58700000D03*
%TO.P,U1,15,QA*%
%TO.N,PC4*%
X63000000Y-61240000D03*
%TO.P,U1,16,~{CLR}*%
%TO.N,~{LA1}*%
X63000000Y-63780000D03*
%TD*%
D11*
%TO.P,U2,1,CLK*%
%TO.N,CLK*%
X125000000Y-48000000D03*
D12*
%TO.P,U2,2,A*%
%TO.N,SR7*%
X127540000Y-48000000D03*
%TO.P,U2,3,B*%
%TO.N,SR6*%
X130080000Y-48000000D03*
%TO.P,U2,4,C*%
%TO.N,SR5*%
X132620000Y-48000000D03*
%TO.P,U2,5,VCC*%
%TO.N,+5V*%
X135160000Y-48000000D03*
%TO.P,U2,6,D*%
%TO.N,GND*%
X137700000Y-48000000D03*
%TO.P,U2,7,E*%
X140240000Y-48000000D03*
%TO.P,U2,8,PRE*%
%TO.N,LA2*%
X142780000Y-48000000D03*
%TO.P,U2,9,SER*%
%TO.N,/~{A-BUS}*%
X142780000Y-40380000D03*
%TO.P,U2,10,QE*%
%TO.N,unconnected-(U2-Pad10)*%
X140240000Y-40380000D03*
%TO.P,U2,11,QD*%
%TO.N,unconnected-(U2-Pad11)*%
X137700000Y-40380000D03*
%TO.P,U2,12,GND*%
%TO.N,GND*%
X135160000Y-40380000D03*
%TO.P,U2,13,QC*%
%TO.N,PC5*%
X132620000Y-40380000D03*
%TO.P,U2,14,QB*%
%TO.N,PC6*%
X130080000Y-40380000D03*
%TO.P,U2,15,QA*%
%TO.N,PC7*%
X127540000Y-40380000D03*
%TO.P,U2,16,~{CLR}*%
%TO.N,~{LA1}*%
X125000000Y-40380000D03*
%TD*%
D11*
%TO.P,U7,1*%
%TO.N,Net-(U6-Pad3)*%
X201620000Y-101740000D03*
D12*
%TO.P,U7,2*%
%TO.N,MCP*%
X201620000Y-99200000D03*
%TO.P,U7,3*%
%TO.N,Net-(U7-Pad3)*%
X201620000Y-96660000D03*
%TO.P,U7,4*%
%TO.N,MCP*%
X201620000Y-94120000D03*
%TO.P,U7,5*%
%TO.N,Net-(U3-Pad8)*%
X201620000Y-91580000D03*
%TO.P,U7,6*%
%TO.N,CLK*%
X201620000Y-89040000D03*
%TO.P,U7,7,GND*%
%TO.N,GND*%
X201620000Y-86500000D03*
%TO.P,U7,8*%
%TO.N,N/C*%
X194000000Y-86500000D03*
%TO.P,U7,9*%
X194000000Y-89040000D03*
%TO.P,U7,10*%
X194000000Y-91580000D03*
%TO.P,U7,11*%
%TO.N,/~{A-BUS}*%
X194000000Y-94120000D03*
%TO.P,U7,12*%
%TO.N,A-BUS*%
X194000000Y-96660000D03*
%TO.P,U7,13*%
X194000000Y-99200000D03*
%TO.P,U7,14,VCC*%
%TO.N,+5V*%
X194000000Y-101740000D03*
%TD*%
D13*
%TO.P,R2,1*%
%TO.N,+5V*%
X217805000Y-101600000D03*
D12*
%TO.P,R2,2*%
%TO.N,Net-(R2-Pad2)*%
X217805000Y-91440000D03*
%TD*%
D11*
%TO.P,U8,1,\u002AB*%
%TO.N,unconnected-(U8-Pad1)*%
X230620000Y-101740000D03*
D12*
%TO.P,U8,2,BC*%
%TO.N,Net-(U3-Pad6)*%
X230620000Y-99200000D03*
%TO.P,U8,3,CN*%
%TO.N,Net-(U8-Pad3)*%
X230620000Y-96660000D03*
%TO.P,U8,4,~{C}N+1*%
%TO.N,Net-(U8-Pad4)*%
X230620000Y-94120000D03*
%TO.P,U8,5,~{SUM}*%
%TO.N,unconnected-(U8-Pad5)*%
X230620000Y-91580000D03*
%TO.P,U8,6,SUM*%
%TO.N,SUM*%
X230620000Y-89040000D03*
%TO.P,U8,7,GND*%
%TO.N,GND*%
X230620000Y-86500000D03*
%TO.P,U8,8,A1*%
%TO.N,B-BUS*%
X223000000Y-86500000D03*
%TO.P,U8,9,A2*%
%TO.N,Net-(R2-Pad2)*%
X223000000Y-89040000D03*
%TO.P,U8,10,\u002AA*%
%TO.N,unconnected-(U8-Pad10)*%
X223000000Y-91580000D03*
%TO.P,U8,11,AC*%
%TO.N,Net-(U13-Pad8)*%
X223000000Y-94120000D03*
%TO.P,U8,12,B1*%
%TO.N,Net-(R2-Pad2)*%
X223000000Y-96660000D03*
%TO.P,U8,13,B2*%
%TO.N,C-BUS*%
X223000000Y-99200000D03*
%TO.P,U8,14,VCC*%
%TO.N,+5V*%
X223000000Y-101740000D03*
%TD*%
D13*
%TO.P,C5,1*%
%TO.N,+5V*%
X72390000Y-39370000D03*
%TO.P,C5,2*%
%TO.N,GND*%
X72390000Y-34370000D03*
%TD*%
D11*
%TO.P,U3,1*%
%TO.N,~{T2-9.JMS}*%
X201620000Y-61340000D03*
D12*
%TO.P,U3,2*%
%TO.N,~{T2-9(F+D+E})*%
X201620000Y-58800000D03*
%TO.P,U3,3*%
%TO.N,~{T2-9.TAD}*%
X201620000Y-56260000D03*
%TO.P,U3,4*%
%TO.N,~{T2-9(F+D+E})*%
X201620000Y-53720000D03*
%TO.P,U3,5*%
%TO.N,~{T14-21(JMP+JMS})*%
X201620000Y-51180000D03*
%TO.P,U3,6*%
%TO.N,Net-(U3-Pad6)*%
X201620000Y-48640000D03*
%TO.P,U3,7,GND*%
%TO.N,GND*%
X201620000Y-46100000D03*
%TO.P,U3,8*%
%TO.N,Net-(U3-Pad8)*%
X194000000Y-46100000D03*
%TO.P,U3,9*%
%TO.N,~{T2-9.JMS}*%
X194000000Y-48640000D03*
%TO.P,U3,10*%
%TO.N,Net-(U12-Pad6)*%
X194000000Y-51180000D03*
%TO.P,U3,11*%
%TO.N,~{T2-9(F+D+E})*%
X194000000Y-53720000D03*
%TO.P,U3,12*%
%TO.N,Net-(U14-Pad8)*%
X194000000Y-56260000D03*
%TO.P,U3,13*%
%TO.N,~{T2-9.JMS}*%
X194000000Y-58800000D03*
%TO.P,U3,14,VCC*%
%TO.N,+5V*%
X194000000Y-61340000D03*
%TD*%
D14*
%TO.P,H1,1,GND*%
%TO.N,GND*%
X40000000Y-23000000D03*
X130000000Y-23000000D03*
%TD*%
%TO.P,H2,1,GND*%
%TO.N,GND*%
X160000000Y-23000000D03*
X250000000Y-23000000D03*
%TD*%
D15*
%TO.P,J3,1,Pin_1*%
%TO.N,PC5*%
X123400000Y-30700000D03*
D16*
%TO.P,J3,2,Pin_2*%
%TO.N,PC6*%
X120900000Y-30700000D03*
%TO.P,J3,3,Pin_3*%
%TO.N,~{PC7}*%
X118400000Y-30700000D03*
%TD*%
D17*
%TO.P,C1,1*%
%TO.N,+5V*%
X81900000Y-134650000D03*
%TO.P,C1,2*%
%TO.N,GND*%
X81900000Y-127150000D03*
%TD*%
%TO.P,C3,1*%
%TO.N,+5V*%
X81750000Y-104200000D03*
%TO.P,C3,2*%
%TO.N,GND*%
X74250000Y-104200000D03*
%TD*%
%TO.P,C5,1*%
%TO.N,+5V*%
X243250000Y-93100000D03*
%TO.P,C5,2*%
%TO.N,GND*%
X250750000Y-93100000D03*
%TD*%
%TO.P,C4,1*%
%TO.N,+5V*%
X182300000Y-41350000D03*
%TO.P,C4,2*%
%TO.N,GND*%
X182300000Y-33850000D03*
%TD*%
D18*
%TO.P,J4,1,Pin_1*%
%TO.N,~{PC7}*%
X108200000Y-30700000D03*
D19*
%TO.P,J4,2,Pin_2*%
%TO.N,PC7*%
X105700000Y-30700000D03*
%TD*%
D17*
%TO.P,C2,1*%
%TO.N,+5V*%
X243450000Y-46200000D03*
%TO.P,C2,2*%
%TO.N,GND*%
X250950000Y-46200000D03*
%TD*%
%TO.P,C6,1*%
%TO.N,+5V*%
X243350000Y-158500000D03*
%TO.P,C6,2*%
%TO.N,GND*%
X250850000Y-158500000D03*
%TD*%
D15*
%TO.P,J2,1,Pin_1*%
%TO.N,SR5*%
X171500000Y-30750000D03*
D16*
%TO.P,J2,2,Pin_2*%
%TO.N,SR6*%
X169000000Y-30750000D03*
%TO.P,J2,3,Pin_3*%
%TO.N,SR7*%
X166500000Y-30750000D03*
%TD*%
D20*
%TO.P,U4,1,~{R}*%
%TO.N,~{T0+T12}*%
X230625000Y-61225000D03*
D21*
%TO.P,U4,2,D*%
%TO.N,Net-(U8-Pad4)*%
X230625000Y-58685000D03*
%TO.P,U4,3,C*%
%TO.N,Net-(U7-Pad3)*%
X230625000Y-56145000D03*
%TO.P,U4,4,~{S}*%
%TO.N,/~{SET_CARRY_FLAG}*%
X230625000Y-53605000D03*
%TO.P,U4,5,Q*%
%TO.N,unconnected-(U4-Pad5)*%
X230625000Y-51065000D03*
%TO.P,U4,6,~{Q}*%
%TO.N,Net-(U8-Pad3)*%
X230625000Y-48525000D03*
%TO.P,U4,7,GND*%
%TO.N,GND*%
X230625000Y-45985000D03*
%TO.P,U4,8,~{Q}*%
%TO.N,unconnected-(U4-Pad8)*%
X223005000Y-45985000D03*
%TO.P,U4,9,Q*%
%TO.N,unconnected-(U4-Pad9)*%
X223005000Y-48525000D03*
%TO.P,U4,10,~{S}*%
%TO.N,unconnected-(U4-Pad10)*%
X223005000Y-51065000D03*
%TO.P,U4,11,C*%
%TO.N,unconnected-(U4-Pad11)*%
X223005000Y-53605000D03*
%TO.P,U4,12,D*%
%TO.N,unconnected-(U4-Pad12)*%
X223005000Y-56145000D03*
%TO.P,U4,13,~{R}*%
%TO.N,unconnected-(U4-Pad13)*%
X223005000Y-58685000D03*
%TO.P,U4,14,VCC*%
%TO.N,+5V*%
X223005000Y-61225000D03*
%TD*%
D22*
%TO.N,GND*%
X201807800Y-123702800D03*
X99182200Y-123702800D03*
X70997800Y-123702800D03*
X42545000Y-83820000D03*
X230627200Y-123702800D03*
X173600000Y-83800000D03*
X173867800Y-123702800D03*
X76322200Y-123702800D03*
X42667200Y-123702800D03*
X230505000Y-83820000D03*
X128392200Y-123702800D03*
X250947200Y-123702800D03*
X250947200Y-83820000D03*
X201930000Y-83820000D03*
X99554427Y-83960573D03*
%TO.N,+5V*%
X222885000Y-104140000D03*
X182245000Y-64135000D03*
X165735000Y-144780000D03*
X243022400Y-64317600D03*
X81990000Y-53635000D03*
X135584000Y-53254000D03*
X182193000Y-53508000D03*
X91440000Y-144780000D03*
X91440000Y-104140000D03*
X194000000Y-104100000D03*
X243022400Y-143692600D03*
X222885000Y-144780000D03*
X222885000Y-64135000D03*
X193675000Y-64135000D03*
X62865000Y-144780000D03*
X120015000Y-144780000D03*
X193675000Y-144780000D03*
X165735000Y-104140000D03*
X243022400Y-104322600D03*
%TO.N,A-BUS*%
X185420000Y-81280000D03*
X239099990Y-81280000D03*
%TO.N,C-BUS*%
X226060000Y-109220000D03*
X216535000Y-109220000D03*
%TO.N,~{T13.RAR}*%
X208915000Y-147320000D03*
X104775000Y-147320000D03*
X208915000Y-161290000D03*
X219075000Y-161290000D03*
%TO.N,~{IOT.SKP}*%
X207645000Y-107315000D03*
X101600000Y-107315000D03*
%TO.N,T13*%
X108585000Y-151130000D03*
X207010000Y-151130000D03*
%TO.N,T2-9*%
X193675000Y-164465000D03*
X203835000Y-164465000D03*
%TO.N,T1*%
X199390000Y-156845000D03*
X104775000Y-156845000D03*
%TO.N,AC=0*%
X127635000Y-162560000D03*
X191500000Y-162600000D03*
%TO.N,~{LA1}*%
X124460000Y-66675000D03*
X59055000Y-66675000D03*
X187325000Y-164465000D03*
X165735000Y-164465000D03*
%TO.N,LA2*%
X149405001Y-116840000D03*
X94615000Y-56515000D03*
X184785000Y-116840000D03*
X142875000Y-56515000D03*
%TO.N,~{F+D+E}*%
X83820000Y-114935000D03*
X146864500Y-114900000D03*
%TO.N,~{T14-21.SKP}*%
X184150000Y-88265000D03*
D23*
X172200000Y-69200000D03*
D22*
X152400000Y-69199948D03*
X179070000Y-88265000D03*
%TO.N,~{T2-9(F+D+E})*%
X201295000Y-167005000D03*
X175895000Y-167005000D03*
X189230000Y-69850000D03*
D23*
X205105000Y-69850000D03*
D22*
%TO.N,MB=0*%
X98425000Y-162560000D03*
X113014948Y-162379990D03*
%TO.N,~{JMS}*%
X110490000Y-160020000D03*
X73660000Y-160020000D03*
%TO.N,PC0*%
X236220000Y-154940000D03*
X55320000Y-154940000D03*
D23*
%TO.N,Net-(U3-Pad6)*%
X213360000Y-72390000D03*
X225879990Y-72390000D03*
%TO.N,~{T0+T12}*%
X223200000Y-66500000D03*
X230600000Y-66500000D03*
D22*
%TO.N,~{T2-9.ISZ}*%
X179705000Y-141605000D03*
X188140010Y-141620052D03*
%TO.N,Net-(U6-Pad3)*%
X186055000Y-96520000D03*
X177165000Y-96520000D03*
%TO.N,Net-(U6-Pad10)*%
X163778000Y-81321000D03*
X70485000Y-81280000D03*
%TO.N,CLK*%
X178435000Y-64770000D03*
X75565000Y-64770000D03*
X127000000Y-64770000D03*
D23*
%TO.N,Net-(U7-Pad3)*%
X234100000Y-69800000D03*
X209550000Y-69850000D03*
D22*
%TO.N,Net-(U13-Pad8)*%
X227965000Y-111125000D03*
X194945000Y-111125000D03*
%TO.N,Net-(U10-Pad2)*%
X62865000Y-118745000D03*
X107315000Y-118745000D03*
%TO.N,Net-(U11-Pad10)*%
X66675000Y-116840000D03*
X114300000Y-116840000D03*
%TO.N,X1*%
X237490000Y-119380000D03*
X198780004Y-119380000D03*
X181429990Y-119395052D03*
%TO.N,T2-9.ISZ*%
X227965000Y-121285000D03*
X168275000Y-121285000D03*
D24*
%TO.N,SR5*%
X165300000Y-33000000D03*
X171500000Y-33000000D03*
D22*
%TO.N,/~{A-BUS}*%
X176710010Y-44465052D03*
X150495000Y-44450000D03*
%TO.N,~{T14-21(JMP+JMS})*%
X169874000Y-114976000D03*
X154305000Y-114935000D03*
%TO.N,Net-(U12-Pad6)*%
X207645000Y-101939990D03*
X201295000Y-114935000D03*
X177165000Y-114935000D03*
X207645000Y-92710000D03*
%TO.N,Net-(U14-Pad8)*%
X220980000Y-107315000D03*
X211455000Y-107315000D03*
%TO.N,Net-(U12-Pad12)*%
X230505000Y-149225000D03*
X167027500Y-149266000D03*
%TO.N,Net-(U6-Pad13)*%
X159205500Y-78100000D03*
X78105000Y-78105000D03*
D23*
%TO.N,/~{SET_CARRY_FLAG}*%
X157000000Y-68000000D03*
X235600000Y-68000000D03*
D22*
%TO.N,SET_CARRY_FLAG*%
X160020000Y-120650000D03*
X87630000Y-120650000D03*
%TD*%
D25*
%TO.N,GND*%
X250947200Y-84967800D02*
X250947200Y-37587200D01*
X250947200Y-123702800D02*
X250947200Y-84967800D01*
X230620000Y-46000000D02*
X230620000Y-38215000D01*
X137700000Y-45625000D02*
X135160000Y-43085000D01*
X137160000Y-25400000D02*
X135700000Y-25400000D01*
X140240000Y-48000000D02*
X137700000Y-48000000D01*
X230620000Y-126500000D02*
X230620000Y-123710000D01*
X135160000Y-43085000D02*
X135160000Y-40380000D01*
X52070000Y-50800000D02*
X40640000Y-50800000D01*
X173620000Y-123950600D02*
X173867800Y-123702800D01*
X135700000Y-25400000D02*
X135160000Y-25940000D01*
X52070000Y-24130000D02*
X52070000Y-50800000D01*
X54890000Y-53620000D02*
X63000000Y-53620000D01*
X201620000Y-84130000D02*
X201930000Y-83820000D01*
X201620000Y-126500000D02*
X201620000Y-123890600D01*
X40640000Y-50800000D02*
X40640000Y-172405200D01*
X76322200Y-123702800D02*
X70997800Y-123702800D01*
X137700000Y-48000000D02*
X137700000Y-45625000D01*
X201620000Y-86500000D02*
X201620000Y-84130000D01*
X99120000Y-86500000D02*
X99120000Y-84395000D01*
X38987200Y-174058000D02*
X42949600Y-174058000D01*
X54610000Y-21590000D02*
X52070000Y-24130000D01*
X128120000Y-126500000D02*
X128120000Y-123975000D01*
X230505000Y-83820000D02*
X230505000Y-86385000D01*
X128120000Y-123975000D02*
X128392200Y-123702800D01*
X81915000Y-127080000D02*
X79699400Y-127080000D01*
X74500000Y-121880600D02*
X76322200Y-123702800D01*
X74500000Y-120200600D02*
X70997800Y-123702800D01*
X137160000Y-25400000D02*
X137160000Y-21590000D01*
X70620000Y-126500000D02*
X70620000Y-124080600D01*
X74250000Y-104200000D02*
X74500000Y-104450000D01*
X135160000Y-25940000D02*
X135160000Y-40380000D01*
X230505000Y-86385000D02*
X230620000Y-86500000D01*
X99120000Y-126500000D02*
X99120000Y-123765000D01*
X70620000Y-124080600D02*
X70997800Y-123702800D01*
X40640000Y-172405200D02*
X38987200Y-174058000D01*
X99120000Y-84395000D02*
X99554427Y-83960573D01*
X79699400Y-127080000D02*
X76322200Y-123702800D01*
X250947200Y-174118000D02*
X250947200Y-123702800D01*
X137160000Y-21590000D02*
X54610000Y-21590000D01*
X173620000Y-83820000D02*
X173600000Y-83800000D01*
X173620000Y-86500000D02*
X173620000Y-83820000D01*
X201620000Y-123890600D02*
X201807800Y-123702800D01*
X52070000Y-50800000D02*
X54890000Y-53620000D01*
X74500000Y-119900000D02*
X74500000Y-121880600D01*
X74500000Y-104450000D02*
X74500000Y-120200600D01*
X99120000Y-123765000D02*
X99182200Y-123702800D01*
X173620000Y-126500000D02*
X173620000Y-123950600D01*
X230620000Y-123710000D02*
X230627200Y-123702800D01*
%TO.N,+5V*%
X182245000Y-64135000D02*
X182245000Y-53560000D01*
X217805000Y-101600000D02*
X222860000Y-101600000D01*
X165735000Y-144780000D02*
X165735000Y-142005000D01*
X165735000Y-142005000D02*
X166000000Y-141740000D01*
X194000000Y-101740000D02*
X194000000Y-104100000D01*
X222885000Y-61355000D02*
X223000000Y-61240000D01*
X222885000Y-101855000D02*
X223000000Y-101740000D01*
X81915000Y-134665000D02*
X81915000Y-139700000D01*
D26*
X68935000Y-53620000D02*
X70620000Y-53620000D01*
X72390000Y-39370000D02*
X67945000Y-43815000D01*
X67945000Y-43815000D02*
X67945000Y-52630000D01*
D25*
X63000000Y-141740000D02*
X63000000Y-144645000D01*
X182245000Y-53560000D02*
X182193000Y-53508000D01*
X182300000Y-41350000D02*
X182300000Y-53401000D01*
X222885000Y-104140000D02*
X222885000Y-101855000D01*
X223000000Y-141740000D02*
X223000000Y-144665000D01*
X91440000Y-144780000D02*
X91440000Y-141800000D01*
D26*
X67945000Y-52630000D02*
X68935000Y-53620000D01*
D25*
X194000000Y-61340000D02*
X194000000Y-63810000D01*
X165735000Y-102005000D02*
X166000000Y-101740000D01*
X222885000Y-64135000D02*
X222885000Y-61355000D01*
X91500000Y-104080000D02*
X91440000Y-104140000D01*
X83955000Y-141740000D02*
X91500000Y-141740000D01*
X135160000Y-52830000D02*
X135584000Y-53254000D01*
X182300000Y-53401000D02*
X182193000Y-53508000D01*
X81990000Y-53635000D02*
X81560000Y-53620000D01*
X91500000Y-101740000D02*
X91500000Y-104080000D01*
X81900000Y-134650000D02*
X81915000Y-134665000D01*
X222860000Y-101600000D02*
X223000000Y-101740000D01*
X223000000Y-144665000D02*
X222885000Y-144780000D01*
X135160000Y-48000000D02*
X135160000Y-52830000D01*
X165735000Y-104140000D02*
X165735000Y-102005000D01*
X194000000Y-63810000D02*
X193675000Y-64135000D01*
X193675000Y-144780000D02*
X193675000Y-142065000D01*
X91440000Y-141800000D02*
X91500000Y-141740000D01*
X81915000Y-139700000D02*
X83955000Y-141740000D01*
X120015000Y-144780000D02*
X120015000Y-142225000D01*
X193675000Y-142065000D02*
X194000000Y-141740000D01*
X63000000Y-144645000D02*
X62865000Y-144780000D01*
X120015000Y-142225000D02*
X120500000Y-141740000D01*
X81560000Y-53620000D02*
X70620000Y-53620000D01*
D26*
%TO.N,A-BUS*%
X238895000Y-141740000D02*
X239060000Y-141905000D01*
X239099990Y-81280000D02*
X239060000Y-81934991D01*
X239060000Y-81934991D02*
X239060000Y-141905000D01*
X187325000Y-95250000D02*
X188735000Y-96660000D01*
X188735000Y-96660000D02*
X194000000Y-96660000D01*
X230620000Y-141740000D02*
X238895000Y-141740000D01*
X239060000Y-174118000D02*
X239060000Y-141905000D01*
X194000000Y-96660000D02*
X194000000Y-99200000D01*
X187325000Y-83185000D02*
X187325000Y-95250000D01*
X185420000Y-81280000D02*
X187325000Y-83185000D01*
%TO.N,B-BUS*%
X215900000Y-103505000D02*
X215900000Y-88545000D01*
X215900000Y-88545000D02*
X217945000Y-86500000D01*
X224790000Y-146050000D02*
X224790000Y-139700000D01*
X223000000Y-139200000D02*
X219210000Y-139200000D01*
X235097600Y-174118000D02*
X235097600Y-156357600D01*
X217945000Y-86500000D02*
X223000000Y-86500000D01*
X235097600Y-156357600D02*
X224790000Y-146050000D01*
X224290000Y-139200000D02*
X223000000Y-139200000D01*
X218440000Y-138430000D02*
X218440000Y-106045000D01*
X224790000Y-139700000D02*
X224290000Y-139200000D01*
X219210000Y-139200000D02*
X218440000Y-138430000D01*
X218440000Y-106045000D02*
X215900000Y-103505000D01*
%TO.N,C-BUS*%
X224930000Y-99200000D02*
X223000000Y-99200000D01*
X226060000Y-109220000D02*
X226060000Y-131445000D01*
X225560000Y-131580000D02*
X226060000Y-132080000D01*
X216535000Y-109220000D02*
X216535000Y-140576002D01*
X226060000Y-131445000D02*
X226060000Y-132080000D01*
X226060000Y-100330000D02*
X224930000Y-99200000D01*
X216535000Y-140576002D02*
X231135200Y-155176202D01*
X229735000Y-134120000D02*
X230620000Y-134120000D01*
X223000000Y-131580000D02*
X225560000Y-131580000D01*
X226060000Y-131445000D02*
X225695000Y-131445000D01*
X226060000Y-109220000D02*
X226060000Y-100330000D01*
X225695000Y-131445000D02*
X225560000Y-131580000D01*
X226060000Y-132080000D02*
X226060000Y-133350000D01*
X226060000Y-133350000D02*
X226830000Y-134120000D01*
X226830000Y-134120000D02*
X229735000Y-134120000D01*
X231135200Y-155176202D02*
X231135200Y-174118000D01*
%TO.N,~{T13.RAR}*%
X208915000Y-147320000D02*
X208915000Y-161290000D01*
X219075000Y-161290000D02*
X219075000Y-173945000D01*
X104775000Y-147320000D02*
X104775000Y-138430000D01*
X208915000Y-137160000D02*
X208915000Y-147320000D01*
X198120000Y-133350000D02*
X198120000Y-130175000D01*
X104775000Y-138430000D02*
X103005000Y-136660000D01*
X198890000Y-134120000D02*
X198120000Y-133350000D01*
X198120000Y-130175000D02*
X196985000Y-129040000D01*
X205875000Y-134120000D02*
X208915000Y-137160000D01*
X196985000Y-129040000D02*
X194000000Y-129040000D01*
X201620000Y-134120000D02*
X205875000Y-134120000D01*
X103005000Y-136660000D02*
X99120000Y-136660000D01*
X219075000Y-173945000D02*
X219248000Y-174118000D01*
X201620000Y-134120000D02*
X198890000Y-134120000D01*
%TO.N,~{IOT.SKP}*%
X100470000Y-96660000D02*
X99120000Y-96660000D01*
X101600000Y-107315000D02*
X101600000Y-97790000D01*
X101600000Y-97790000D02*
X100470000Y-96660000D01*
X212090000Y-143510000D02*
X212090000Y-111760000D01*
X215285600Y-174118000D02*
X215285600Y-146705600D01*
X215285600Y-146705600D02*
X212090000Y-143510000D01*
X212090000Y-111760000D02*
X207645000Y-107315000D01*
%TO.N,MCP*%
X207645000Y-104140000D02*
X204470000Y-107315000D01*
X210185000Y-102870000D02*
X208915000Y-104140000D01*
X199390000Y-94895000D02*
X199390000Y-98425000D01*
X208915000Y-104140000D02*
X207645000Y-104140000D01*
X200165000Y-94120000D02*
X199390000Y-94895000D01*
X211323200Y-146181800D02*
X211323200Y-174118000D01*
X199390000Y-98425000D02*
X200165000Y-99200000D01*
X209055000Y-99200000D02*
X210185000Y-100330000D01*
X204470000Y-115570000D02*
X210185000Y-121285000D01*
X201620000Y-99200000D02*
X209055000Y-99200000D01*
X204470000Y-107315000D02*
X204470000Y-115570000D01*
X210185000Y-100330000D02*
X210185000Y-102870000D01*
X210185000Y-145043600D02*
X211323200Y-146181800D01*
X201620000Y-94120000D02*
X200165000Y-94120000D01*
X200165000Y-99200000D02*
X201620000Y-99200000D01*
X210185000Y-121285000D02*
X210185000Y-145043600D01*
%TO.N,T13*%
X207360800Y-174118000D02*
X207360800Y-151480800D01*
X99120000Y-141740000D02*
X96020000Y-141740000D01*
X95250000Y-136525000D02*
X95250000Y-135450000D01*
X98320001Y-132379999D02*
X99120000Y-131580000D01*
X99120000Y-146110000D02*
X99120000Y-141740000D01*
X95250000Y-135450000D02*
X98320001Y-132379999D01*
X95115000Y-136660000D02*
X95250000Y-136525000D01*
X108585000Y-151130000D02*
X104140000Y-151130000D01*
X207360800Y-151480800D02*
X207010000Y-151130000D01*
X104140000Y-151130000D02*
X99120000Y-146110000D01*
X91500000Y-136660000D02*
X95115000Y-136660000D01*
X96020000Y-141740000D02*
X95250000Y-140970000D01*
X95250000Y-140970000D02*
X95250000Y-136525000D01*
%TO.N,T2-9*%
X169227500Y-67627500D02*
X172402500Y-67627500D01*
X168135000Y-89040000D02*
X168275000Y-89180000D01*
X186690000Y-153670000D02*
X193675000Y-160655000D01*
X181610000Y-76835000D02*
X181610000Y-100965000D01*
X168275000Y-95885000D02*
X167500000Y-96660000D01*
X168275000Y-89180000D02*
X168275000Y-95885000D01*
X181610000Y-100965000D02*
X186690000Y-106045000D01*
X172402500Y-67627500D02*
X181610000Y-76835000D01*
X168275000Y-89180000D02*
X168275000Y-68580000D01*
X203835000Y-164465000D02*
X203835000Y-173681400D01*
X167500000Y-96660000D02*
X166000000Y-96660000D01*
X166000000Y-89040000D02*
X168135000Y-89040000D01*
X203835000Y-173681400D02*
X203398400Y-174118000D01*
X193675000Y-160655000D02*
X193675000Y-164465000D01*
X186690000Y-106045000D02*
X186690000Y-153670000D01*
X169227500Y-67627500D02*
X168275000Y-68580000D01*
%TO.N,T1*%
X77470000Y-143510000D02*
X77470000Y-132715000D01*
X92075000Y-149860000D02*
X83820000Y-149860000D01*
X83820000Y-149860000D02*
X77470000Y-143510000D01*
X86495000Y-131580000D02*
X91500000Y-131580000D01*
X77470000Y-132715000D02*
X80010000Y-130175000D01*
X199390000Y-156845000D02*
X199436000Y-160701000D01*
X97155000Y-154940000D02*
X92075000Y-149860000D01*
X104775000Y-156845000D02*
X104775000Y-156210000D01*
X80010000Y-130175000D02*
X85090000Y-130175000D01*
X104775000Y-156210000D02*
X103505000Y-154940000D01*
X199436000Y-160701000D02*
X199436000Y-174118000D01*
X85090000Y-130175000D02*
X86495000Y-131580000D01*
X103505000Y-154940000D02*
X97155000Y-154940000D01*
%TO.N,~{T2-9(TAD+IAC+CMA})*%
X197350000Y-152535000D02*
X195473600Y-154411400D01*
X194000000Y-139200000D02*
X197350000Y-139200000D01*
X197350000Y-139200000D02*
X201620000Y-139200000D01*
X197350000Y-139200000D02*
X197350000Y-152535000D01*
X195473600Y-154411400D02*
X195473600Y-174118000D01*
%TO.N,AC=0*%
X127000000Y-133985000D02*
X127135000Y-134120000D01*
X126365000Y-145415000D02*
X126365000Y-134620000D01*
X127635000Y-146685000D02*
X126365000Y-145415000D01*
X127635000Y-162560000D02*
X127635000Y-146685000D01*
X191511200Y-162611200D02*
X191500000Y-162600000D01*
X191511200Y-174118000D02*
X191511200Y-162611200D01*
X127135000Y-134120000D02*
X128120000Y-134120000D01*
X126365000Y-134620000D02*
X127000000Y-133985000D01*
%TO.N,~{LA1}*%
X187325000Y-173894200D02*
X187548800Y-174118000D01*
X121920000Y-43460000D02*
X125000000Y-40380000D01*
X63000000Y-63780000D02*
X60045000Y-63780000D01*
X124460000Y-66675000D02*
X150855011Y-93070011D01*
X187325000Y-164465000D02*
X187325000Y-173894200D01*
X60045000Y-63780000D02*
X59055000Y-64770000D01*
X124460000Y-66675000D02*
X121920000Y-64135000D01*
X150855011Y-149585011D02*
X150855011Y-93070011D01*
X59055000Y-64770000D02*
X59055000Y-66675000D01*
X121920000Y-64135000D02*
X121920000Y-43460000D01*
X165735000Y-164465000D02*
X150855011Y-149585011D01*
%TO.N,LA2*%
X84100000Y-46000000D02*
X70620000Y-46000000D01*
X149405001Y-111305001D02*
X149405001Y-116840000D01*
X184785000Y-116840000D02*
X184785000Y-139700000D01*
X142780000Y-55785000D02*
X142780000Y-48000000D01*
X94615000Y-56515000D02*
X149405001Y-111305001D01*
X142875000Y-56515000D02*
X142780000Y-55785000D01*
X183586400Y-140898600D02*
X183586400Y-174118000D01*
X184785000Y-139700000D02*
X183586400Y-140898600D01*
X94615000Y-56515000D02*
X84100000Y-46000000D01*
%TO.N,~{SMA}*%
X136037600Y-168422600D02*
X136037600Y-174118000D01*
X70620000Y-141740000D02*
X70620000Y-147455000D01*
X99856000Y-159385000D02*
X106841000Y-166370000D01*
X106841000Y-166370000D02*
X133985000Y-166370000D01*
X88310000Y-156210000D02*
X91485000Y-159385000D01*
X79375000Y-156210000D02*
X88310000Y-156210000D01*
X70620000Y-147455000D02*
X79375000Y-156210000D01*
X133985000Y-166370000D02*
X136037600Y-168422600D01*
X91485000Y-159385000D02*
X99856000Y-159385000D01*
%TO.N,SR4*%
X140335000Y-113030000D02*
X88545000Y-61240000D01*
X140335000Y-154271000D02*
X140335000Y-113030000D01*
X143962400Y-157898400D02*
X140335000Y-154271000D01*
X88545000Y-61240000D02*
X70620000Y-61240000D01*
X143962400Y-174118000D02*
X143962400Y-157898400D01*
%TO.N,SR3*%
X88265000Y-59055000D02*
X70975000Y-59055000D01*
X141605000Y-153509000D02*
X141605000Y-112395000D01*
X70975000Y-59055000D02*
X70620000Y-58700000D01*
X141605000Y-112395000D02*
X88265000Y-59055000D01*
X147924800Y-174118000D02*
X147924800Y-159828800D01*
X147924800Y-159828800D02*
X141605000Y-153509000D01*
%TO.N,SR2*%
X151887200Y-174118000D02*
X151887200Y-162013200D01*
X142875000Y-111760000D02*
X87630000Y-56515000D01*
X87630000Y-56515000D02*
X70975000Y-56515000D01*
X70975000Y-56515000D02*
X70620000Y-56160000D01*
X142875000Y-153001000D02*
X142875000Y-111760000D01*
X151887200Y-162013200D02*
X142875000Y-153001000D01*
%TO.N,SR1*%
X70975000Y-51435000D02*
X70620000Y-51080000D01*
X155849600Y-164070600D02*
X144145000Y-152366000D01*
X144145000Y-111125000D02*
X84455000Y-51435000D01*
X155849600Y-174118000D02*
X155849600Y-164070600D01*
X144145000Y-152366000D02*
X144145000Y-111125000D01*
X84455000Y-51435000D02*
X70975000Y-51435000D01*
%TO.N,SR0*%
X145415000Y-151765000D02*
X145415000Y-110490000D01*
X159812000Y-166162000D02*
X145415000Y-151765000D01*
X159812000Y-174118000D02*
X159812000Y-166162000D01*
X145415000Y-110490000D02*
X83820000Y-48895000D01*
X83820000Y-48895000D02*
X70975000Y-48895000D01*
X70975000Y-48895000D02*
X70620000Y-48540000D01*
%TO.N,~{F+D+E}*%
X83820000Y-114935000D02*
X83820000Y-95885000D01*
X83820000Y-95885000D02*
X85585000Y-94120000D01*
X146685000Y-115079500D02*
X146685000Y-150715000D01*
X146864500Y-114900000D02*
X146685000Y-115079500D01*
X163774400Y-167804400D02*
X163774400Y-174118000D01*
X146685000Y-150715000D02*
X163774400Y-167804400D01*
X85585000Y-94120000D02*
X91500000Y-94120000D01*
%TO.N,~{T14-21.SKP}*%
X179070000Y-88265000D02*
X179070000Y-90805000D01*
X179070000Y-76070000D02*
X172200000Y-69200000D01*
X152535000Y-139200000D02*
X152400000Y-139065000D01*
X167736800Y-164036800D02*
X152400000Y-148700000D01*
X173620000Y-94120000D02*
X175755000Y-94120000D01*
X179070000Y-88265000D02*
X179070000Y-76070000D01*
X167736800Y-174118000D02*
X167736800Y-164036800D01*
X188595000Y-129540000D02*
X190635000Y-131580000D01*
X190635000Y-131580000D02*
X194000000Y-131580000D01*
X184150000Y-88265000D02*
X184150000Y-99695000D01*
X152535000Y-139200000D02*
X166000000Y-139200000D01*
X188595000Y-104140000D02*
X188595000Y-129540000D01*
X152400000Y-69199948D02*
X152400000Y-139065000D01*
X152400000Y-148700000D02*
X152400000Y-139065000D01*
X184150000Y-99695000D02*
X188595000Y-104140000D01*
X175755000Y-94120000D02*
X179070000Y-90805000D01*
%TO.N,~{T2-9(F+D+E})*%
X204825000Y-58700000D02*
X205105000Y-58420000D01*
X199745000Y-53620000D02*
X204750000Y-53620000D01*
X167900000Y-125990000D02*
X163195000Y-121285000D01*
X198185011Y-52060011D02*
X199745000Y-53620000D01*
X204750000Y-53620000D02*
X205105000Y-53975000D01*
X201620000Y-166680000D02*
X201295000Y-167005000D01*
X159385000Y-67945000D02*
X172720000Y-54610000D01*
X159385000Y-71815000D02*
X159385000Y-67945000D01*
X157500000Y-104795000D02*
X157500000Y-73700000D01*
X163195000Y-121285000D02*
X163195000Y-110490000D01*
X175895000Y-173884600D02*
X175661600Y-174118000D01*
X175500000Y-37200000D02*
X194680000Y-37200000D01*
X167900000Y-132560000D02*
X167900000Y-125990000D01*
X175895000Y-167005000D02*
X175895000Y-173884600D01*
X201620000Y-58700000D02*
X204825000Y-58700000D01*
X169557510Y-154410510D02*
X169557510Y-134217510D01*
X194680000Y-37200000D02*
X198185011Y-40705011D01*
X198185011Y-40705011D02*
X198185011Y-52060011D01*
X190220000Y-53620000D02*
X194000000Y-53620000D01*
X157500000Y-73700000D02*
X159385000Y-71815000D01*
X163195000Y-110490000D02*
X157500000Y-104795000D01*
X175895000Y-167005000D02*
X175895000Y-160748000D01*
X205105000Y-53975000D02*
X205105000Y-58420000D01*
X205105000Y-69850000D02*
X205105000Y-58420000D01*
X201620000Y-141740000D02*
X201620000Y-166680000D01*
X172720000Y-39980000D02*
X175500000Y-37200000D01*
X172720000Y-54610000D02*
X172720000Y-39980000D01*
X189230000Y-54610000D02*
X190220000Y-53620000D01*
X169557510Y-134217510D02*
X167900000Y-132560000D01*
X189230000Y-69850000D02*
X189230000Y-54610000D01*
X175895000Y-160748000D02*
X169557510Y-154410510D01*
%TO.N,~{SZA}*%
X69080000Y-136660000D02*
X68580000Y-137160000D01*
X78740000Y-157480000D02*
X87480000Y-157480000D01*
X130810000Y-167640000D02*
X132075200Y-168905200D01*
X68580000Y-137160000D02*
X68580000Y-147320000D01*
X106333000Y-167640000D02*
X130810000Y-167640000D01*
X70620000Y-136660000D02*
X69080000Y-136660000D01*
X68580000Y-147320000D02*
X78740000Y-157480000D01*
X99348000Y-160655000D02*
X106333000Y-167640000D01*
X132075200Y-168905200D02*
X132075200Y-174118000D01*
X90655000Y-160655000D02*
X99348000Y-160655000D01*
X87480000Y-157480000D02*
X90655000Y-160655000D01*
%TO.N,MB=0*%
X98425000Y-162560000D02*
X98425000Y-174056200D01*
X123825000Y-125730000D02*
X123825000Y-151569938D01*
X117475000Y-125095000D02*
X118110000Y-124460000D01*
X118110000Y-124460000D02*
X122555000Y-124460000D01*
X120500000Y-129040000D02*
X117475000Y-126015000D01*
X122555000Y-124460000D02*
X123825000Y-125730000D01*
X98425000Y-174056200D02*
X98423200Y-174058000D01*
X123825000Y-151569938D02*
X113014948Y-162379990D01*
X117475000Y-126015000D02*
X117475000Y-125095000D01*
%TO.N,~{TAD}*%
X70620000Y-131580000D02*
X69080000Y-131580000D01*
X94460800Y-166560800D02*
X94460800Y-174058000D01*
X86600000Y-158700000D02*
X94460800Y-166560800D01*
X78200000Y-158700000D02*
X86600000Y-158700000D01*
X67310000Y-147810000D02*
X78200000Y-158700000D01*
X67310000Y-133350000D02*
X67310000Y-147810000D01*
X69080000Y-131580000D02*
X67310000Y-133350000D01*
%TO.N,~{ISZ}*%
X75565000Y-76200000D02*
X80010000Y-76200000D01*
X63000000Y-139200000D02*
X56800000Y-139200000D01*
X83561000Y-160061000D02*
X90498400Y-166998400D01*
X56000000Y-146170000D02*
X67930000Y-158100000D01*
X68580000Y-130175000D02*
X68580000Y-97155000D01*
X82690000Y-91580000D02*
X90368630Y-91580000D01*
X80645000Y-89535000D02*
X82690000Y-91580000D01*
X66040000Y-132715000D02*
X68580000Y-130175000D01*
X56800000Y-139200000D02*
X56000000Y-140000000D01*
X80645000Y-76835000D02*
X80645000Y-89535000D01*
X68580000Y-97155000D02*
X74930000Y-90805000D01*
X63000000Y-139200000D02*
X65270000Y-139200000D01*
X77561000Y-160061000D02*
X83561000Y-160061000D01*
X67930000Y-158100000D02*
X75600000Y-158100000D01*
X65270000Y-139200000D02*
X66040000Y-138430000D01*
X74930000Y-90805000D02*
X74930000Y-76835000D01*
X90498400Y-166998400D02*
X90498400Y-174058000D01*
X56000000Y-140000000D02*
X56000000Y-146170000D01*
X90368630Y-91580000D02*
X91500000Y-91580000D01*
X74930000Y-76835000D02*
X75565000Y-76200000D01*
X80010000Y-76200000D02*
X80645000Y-76835000D01*
X66040000Y-138430000D02*
X66040000Y-132715000D01*
X75600000Y-158100000D02*
X77561000Y-160061000D01*
%TO.N,~{JMS}*%
X122555000Y-150495000D02*
X113030000Y-160020000D01*
X113030000Y-160020000D02*
X110490000Y-160020000D01*
X86536000Y-166512000D02*
X82626500Y-162602500D01*
X82626500Y-162602500D02*
X76242500Y-162602500D01*
X122555000Y-139700000D02*
X122555000Y-150495000D01*
X55000000Y-146750000D02*
X55000000Y-135000000D01*
X68250000Y-160000000D02*
X55000000Y-146750000D01*
X55880000Y-134120000D02*
X63000000Y-134120000D01*
X73640000Y-160000000D02*
X68250000Y-160000000D01*
X55000000Y-135000000D02*
X55880000Y-134120000D01*
X122055000Y-139200000D02*
X122555000Y-139700000D01*
X120500000Y-139200000D02*
X122055000Y-139200000D01*
X76242500Y-162602500D02*
X73660000Y-160020000D01*
X86536000Y-174058000D02*
X86536000Y-166512000D01*
X73660000Y-160020000D02*
X73640000Y-160000000D01*
%TO.N,~{RAR}*%
X70757500Y-164102500D02*
X79102500Y-164102500D01*
X82573600Y-167573600D02*
X82573600Y-174058000D01*
X54960000Y-129040000D02*
X54000000Y-130000000D01*
X79102500Y-164102500D02*
X82573600Y-167573600D01*
X54000000Y-130000000D02*
X54000000Y-147345000D01*
X54000000Y-147345000D02*
X70757500Y-164102500D01*
X63000000Y-129040000D02*
X54960000Y-129040000D01*
%TO.N,~{IAC}*%
X54610000Y-74930000D02*
X80645000Y-74930000D01*
X53000000Y-76540000D02*
X54610000Y-74930000D01*
X76717500Y-165217500D02*
X70102500Y-165217500D01*
X70102500Y-165217500D02*
X53000000Y-148115000D01*
X81915000Y-86995000D02*
X83960000Y-89040000D01*
X80645000Y-74930000D02*
X81915000Y-76200000D01*
X53000000Y-148115000D02*
X53000000Y-76540000D01*
X81915000Y-76200000D02*
X81915000Y-86995000D01*
X83960000Y-89040000D02*
X91500000Y-89040000D01*
X78611200Y-167111200D02*
X76717500Y-165217500D01*
X78611200Y-174058000D02*
X78611200Y-167111200D01*
%TO.N,AC=-VE*%
X53975000Y-73660000D02*
X52000000Y-75635000D01*
X52000000Y-75635000D02*
X52000000Y-149155000D01*
X139065000Y-113665000D02*
X99060000Y-73660000D01*
X137660000Y-139200000D02*
X139065000Y-137795000D01*
X139065000Y-137795000D02*
X139065000Y-113665000D01*
X52000000Y-149155000D02*
X70686400Y-167841400D01*
X99060000Y-73660000D02*
X53975000Y-73660000D01*
X128120000Y-139200000D02*
X137660000Y-139200000D01*
X70686400Y-167841400D02*
X70686400Y-174058000D01*
%TO.N,PC0*%
X50800000Y-150420000D02*
X66724000Y-166344000D01*
X64770000Y-72390000D02*
X52705000Y-72390000D01*
X68000000Y-69160000D02*
X64770000Y-72390000D01*
X66724000Y-166344000D02*
X66724000Y-174058000D01*
X63000000Y-48540000D02*
X65050000Y-48540000D01*
X221480000Y-129040000D02*
X220980000Y-129540000D01*
X220980000Y-129540000D02*
X220980000Y-133350000D01*
X224925000Y-134120000D02*
X227965000Y-137160000D01*
X227965000Y-137160000D02*
X227965000Y-143510000D01*
X220980000Y-133350000D02*
X221750000Y-134120000D01*
X223000000Y-134120000D02*
X224925000Y-134120000D01*
X50800000Y-74295000D02*
X50800000Y-150420000D01*
X66675000Y-53975000D02*
X68000000Y-55300000D01*
X52705000Y-72390000D02*
X50800000Y-74295000D01*
X223000000Y-129040000D02*
X221480000Y-129040000D01*
X227965000Y-143510000D02*
X236220000Y-151765000D01*
X68000000Y-55300000D02*
X68000000Y-69160000D01*
X66675000Y-50165000D02*
X66675000Y-53975000D01*
X236220000Y-151765000D02*
X236220000Y-154940000D01*
X65050000Y-48540000D02*
X66675000Y-50165000D01*
X221750000Y-134120000D02*
X223000000Y-134120000D01*
%TO.N,PC1*%
X49530000Y-153035000D02*
X62761600Y-166266600D01*
X62761600Y-166266600D02*
X62761600Y-174058000D01*
X52070000Y-71120000D02*
X49530000Y-73660000D01*
X65405000Y-52070000D02*
X65405000Y-54610000D01*
X67000000Y-68255000D02*
X64135000Y-71120000D01*
X65405000Y-54610000D02*
X67000000Y-56205000D01*
X49530000Y-73660000D02*
X49530000Y-153035000D01*
X64135000Y-71120000D02*
X52070000Y-71120000D01*
X63000000Y-51080000D02*
X64415000Y-51080000D01*
X67000000Y-56205000D02*
X67000000Y-68255000D01*
X64415000Y-51080000D02*
X65405000Y-52070000D01*
%TO.N,PC2*%
X65160000Y-56160000D02*
X66000000Y-57000000D01*
X51435000Y-69850000D02*
X48260000Y-73025000D01*
X48260000Y-156210000D02*
X58799200Y-166749200D01*
X58799200Y-166749200D02*
X58799200Y-174058000D01*
X63500000Y-69850000D02*
X51435000Y-69850000D01*
X63000000Y-56160000D02*
X65160000Y-56160000D01*
X66000000Y-67350000D02*
X63500000Y-69850000D01*
X66000000Y-57000000D02*
X66000000Y-67350000D01*
X48260000Y-73025000D02*
X48260000Y-156210000D01*
%TO.N,PC3*%
X50800000Y-68580000D02*
X46990000Y-72390000D01*
X46990000Y-72390000D02*
X46990000Y-159385000D01*
X46990000Y-159385000D02*
X54836800Y-167231800D01*
X62865000Y-68580000D02*
X50800000Y-68580000D01*
X63000000Y-58700000D02*
X64200000Y-58700000D01*
X54836800Y-167231800D02*
X54836800Y-174058000D01*
X65000000Y-66445000D02*
X62865000Y-68580000D01*
X65000000Y-59500000D02*
X65000000Y-66445000D01*
X64200000Y-58700000D02*
X65000000Y-59500000D01*
%TO.N,PC4*%
X45720000Y-63280000D02*
X47760000Y-61240000D01*
X47760000Y-61240000D02*
X63000000Y-61240000D01*
X50874400Y-174058000D02*
X50874400Y-167079400D01*
X50874400Y-167079400D02*
X45720000Y-161925000D01*
X45720000Y-161925000D02*
X45720000Y-63280000D01*
%TO.N,~{T2-9.TAD}*%
X196850000Y-53340000D02*
X199670000Y-56160000D01*
X176430000Y-38200000D02*
X193775000Y-38200000D01*
X193775000Y-38200000D02*
X196850000Y-41275000D01*
X166000000Y-94120000D02*
X162320000Y-94120000D01*
X161400000Y-93200000D02*
X161400000Y-67800000D01*
X199670000Y-56160000D02*
X201620000Y-56160000D01*
X162320000Y-94120000D02*
X161400000Y-93200000D01*
X173990000Y-40640000D02*
X176430000Y-38200000D01*
X196850000Y-41275000D02*
X196850000Y-53340000D01*
X173990000Y-55210000D02*
X173990000Y-40640000D01*
X161400000Y-67800000D02*
X173990000Y-55210000D01*
%TO.N,~{T2-9.JMS}*%
X194000000Y-48640000D02*
X195370000Y-48640000D01*
X195370000Y-48640000D02*
X195602500Y-48872500D01*
X195730000Y-49000000D02*
X195602500Y-48872500D01*
X166000000Y-65100000D02*
X175260000Y-55840000D01*
X195800000Y-49000000D02*
X195730000Y-49000000D01*
X192770000Y-39100000D02*
X195800000Y-42130000D01*
X201620000Y-61240000D02*
X199670000Y-61240000D01*
X166000000Y-85799990D02*
X166000000Y-65100000D01*
X175260000Y-55840000D02*
X175260000Y-41275000D01*
X199670000Y-61240000D02*
X197130000Y-58700000D01*
X175260000Y-41275000D02*
X177435000Y-39100000D01*
X195800000Y-57370000D02*
X197130000Y-58700000D01*
X195800000Y-42130000D02*
X195800000Y-49000000D01*
X194000000Y-58700000D02*
X197130000Y-58700000D01*
X177435000Y-39100000D02*
X192770000Y-39100000D01*
X195800000Y-49070000D02*
X195800000Y-57370000D01*
X195602500Y-48872500D02*
X195800000Y-49070000D01*
%TO.N,Net-(U3-Pad6)*%
X225879990Y-94080026D02*
X225879990Y-72390000D01*
X201620000Y-48540000D02*
X210465000Y-48540000D01*
X230620000Y-99200000D02*
X228740000Y-99200000D01*
X226300000Y-96760000D02*
X226300000Y-94500036D01*
X213360000Y-51435000D02*
X213360000Y-72390000D01*
X228740000Y-99200000D02*
X226300000Y-96760000D01*
X226300000Y-94500036D02*
X225879990Y-94080026D01*
X210465000Y-48540000D02*
X213360000Y-51435000D01*
%TO.N,~{T0+T12}*%
X223210400Y-150185400D02*
X213995000Y-140970000D01*
X213995000Y-140970000D02*
X213995000Y-74930000D01*
X230625000Y-66475000D02*
X230600000Y-66500000D01*
X213995000Y-74930000D02*
X222425000Y-66500000D01*
X230625000Y-61225000D02*
X230625000Y-66475000D01*
X222425000Y-66500000D02*
X223200000Y-66500000D01*
X223210400Y-174118000D02*
X223210400Y-150185400D01*
%TO.N,Net-(U11-Pad3)*%
X95250000Y-92710000D02*
X95250000Y-79375000D01*
X128120000Y-136660000D02*
X135755000Y-136660000D01*
X99120000Y-94120000D02*
X96660000Y-94120000D01*
X95250000Y-79375000D02*
X96520000Y-78105000D01*
X137795000Y-114300000D02*
X137795000Y-134620000D01*
X96520000Y-78105000D02*
X101600000Y-78105000D01*
X96660000Y-94120000D02*
X95250000Y-92710000D01*
X137795000Y-134620000D02*
X135755000Y-136660000D01*
X137795000Y-114300000D02*
X101600000Y-78105000D01*
%TO.N,Net-(U11-Pad6)*%
X97295000Y-91580000D02*
X96520000Y-90805000D01*
X97790000Y-79375000D02*
X100965000Y-79375000D01*
X125095000Y-127635000D02*
X126500000Y-129040000D01*
X96520000Y-80645000D02*
X97790000Y-79375000D01*
X125095000Y-103505000D02*
X125095000Y-127635000D01*
X96520000Y-90805000D02*
X96520000Y-80645000D01*
X126500000Y-129040000D02*
X128120000Y-129040000D01*
X99120000Y-91580000D02*
X97295000Y-91580000D01*
X100965000Y-79375000D02*
X125095000Y-103505000D01*
%TO.N,Net-(U10-Pad4)*%
X105410000Y-116840000D02*
X105410000Y-133350000D01*
X106045000Y-116205000D02*
X105410000Y-116840000D01*
X105410000Y-133350000D02*
X104640000Y-134120000D01*
X104640000Y-134120000D02*
X99120000Y-134120000D01*
X106045000Y-89535000D02*
X106045000Y-116205000D01*
X99120000Y-89040000D02*
X105550000Y-89040000D01*
X105550000Y-89040000D02*
X106045000Y-89535000D01*
%TO.N,~{T2-9.ISZ}*%
X179543000Y-141605000D02*
X179624000Y-141686000D01*
X194000000Y-136660000D02*
X189039948Y-141620052D01*
X182880000Y-138430000D02*
X179705000Y-141605000D01*
X179705000Y-141605000D02*
X173755000Y-141605000D01*
X182880000Y-104775000D02*
X182880000Y-138430000D01*
X173620000Y-101740000D02*
X179845000Y-101740000D01*
X179705000Y-141605000D02*
X179543000Y-141605000D01*
X189039948Y-141620052D02*
X188140010Y-141620052D01*
X179845000Y-101740000D02*
X182880000Y-104775000D01*
X173755000Y-141605000D02*
X173620000Y-141740000D01*
X179624000Y-141686000D02*
X179624000Y-174118000D01*
%TO.N,Net-(U12-Pad4)*%
X173620000Y-134120000D02*
X179705000Y-128035000D01*
X170815000Y-103505000D02*
X170815000Y-100330000D01*
X174625000Y-105410000D02*
X172720000Y-105410000D01*
X171945000Y-99200000D02*
X173620000Y-99200000D01*
X179705000Y-128035000D02*
X179705000Y-110490000D01*
X172720000Y-105410000D02*
X170815000Y-103505000D01*
X170815000Y-100330000D02*
X171945000Y-99200000D01*
X179705000Y-110490000D02*
X174625000Y-105410000D01*
%TO.N,Net-(U6-Pad3)*%
X192405000Y-106680000D02*
X190500000Y-104775000D01*
X186055000Y-98425000D02*
X186055000Y-96520000D01*
X190500000Y-102870000D02*
X186055000Y-98425000D01*
X201620000Y-105720000D02*
X200660000Y-106680000D01*
X173620000Y-96660000D02*
X177025000Y-96660000D01*
X190500000Y-104775000D02*
X190500000Y-102870000D01*
X201620000Y-101740000D02*
X201620000Y-105720000D01*
X200660000Y-106680000D02*
X192405000Y-106680000D01*
X177025000Y-96660000D02*
X177165000Y-96520000D01*
%TO.N,Net-(U6-Pad10)*%
X64770000Y-129810000D02*
X63000000Y-131580000D01*
X163800000Y-81343000D02*
X163800000Y-91000000D01*
X163778000Y-81321000D02*
X163800000Y-81343000D01*
X164380000Y-91580000D02*
X163800000Y-91000000D01*
X64770000Y-86995000D02*
X64770000Y-129810000D01*
X70485000Y-81280000D02*
X64770000Y-86995000D01*
X166000000Y-91580000D02*
X164380000Y-91580000D01*
%TO.N,CLK*%
X74575000Y-63780000D02*
X75565000Y-64770000D01*
X127000000Y-64770000D02*
X125095000Y-62865000D01*
X125095000Y-62865000D02*
X125095000Y-48095000D01*
X191955000Y-79375000D02*
X201620000Y-89040000D01*
X178435000Y-64770000D02*
X178435000Y-69735000D01*
X70620000Y-63780000D02*
X74575000Y-63780000D01*
X188075000Y-79375000D02*
X191955000Y-79375000D01*
X125095000Y-48095000D02*
X125000000Y-48000000D01*
X178435000Y-69735000D02*
X188075000Y-79375000D01*
%TO.N,Net-(U7-Pad3)*%
X209550000Y-94615000D02*
X207505000Y-96660000D01*
X234100000Y-69800000D02*
X234100000Y-57400000D01*
X232845000Y-56145000D02*
X230625000Y-56145000D01*
X207505000Y-96660000D02*
X201620000Y-96660000D01*
X234100000Y-57400000D02*
X232845000Y-56145000D01*
X209550000Y-69850000D02*
X209550000Y-94615000D01*
%TO.N,Net-(U13-Pad8)*%
X223000000Y-94120000D02*
X224295000Y-94120000D01*
X194945000Y-125555000D02*
X194000000Y-126500000D01*
X227965000Y-100330000D02*
X227965000Y-111125000D01*
X194945000Y-111125000D02*
X194945000Y-125555000D01*
X225425000Y-97790000D02*
X227965000Y-100330000D01*
X225425000Y-95250000D02*
X225425000Y-97790000D01*
X224295000Y-94120000D02*
X225425000Y-95250000D01*
%TO.N,Net-(U10-Pad2)*%
X107315000Y-147955000D02*
X107315000Y-118745000D01*
X103505000Y-149225000D02*
X106045000Y-149225000D01*
X62865000Y-118745000D02*
X62865000Y-126365000D01*
X106045000Y-149225000D02*
X107315000Y-147955000D01*
X101100000Y-139200000D02*
X102235000Y-140335000D01*
X102235000Y-147955000D02*
X103505000Y-149225000D01*
X99120000Y-139200000D02*
X101100000Y-139200000D01*
X102235000Y-140335000D02*
X102235000Y-147955000D01*
X62865000Y-126365000D02*
X63000000Y-126500000D01*
%TO.N,Net-(U11-Pad1)*%
X80645000Y-154940000D02*
X74930000Y-149225000D01*
X74930000Y-140970000D02*
X73160000Y-139200000D01*
X131445000Y-142875000D02*
X131445000Y-163830000D01*
X128120000Y-141740000D02*
X130310000Y-141740000D01*
X107222000Y-165100000D02*
X100237000Y-158115000D01*
X131445000Y-163830000D02*
X130175000Y-165100000D01*
X74930000Y-149225000D02*
X74930000Y-140970000D01*
X100237000Y-158115000D02*
X92115000Y-158115000D01*
X88940000Y-154940000D02*
X80645000Y-154940000D01*
X92115000Y-158115000D02*
X88940000Y-154940000D01*
X73160000Y-139200000D02*
X70620000Y-139200000D01*
X130175000Y-165100000D02*
X107222000Y-165100000D01*
X130310000Y-141740000D02*
X131445000Y-142875000D01*
%TO.N,Net-(U11-Pad10)*%
X114300000Y-128905000D02*
X114300000Y-116840000D01*
X64770000Y-135890000D02*
X64770000Y-132080000D01*
X63000000Y-136660000D02*
X64000000Y-136660000D01*
X116975000Y-131580000D02*
X114300000Y-128905000D01*
X64000000Y-136660000D02*
X64770000Y-135890000D01*
X66675000Y-130175000D02*
X66675000Y-116840000D01*
X120500000Y-131580000D02*
X116975000Y-131580000D01*
X64770000Y-132080000D02*
X66675000Y-130175000D01*
%TO.N,Net-(U10-Pad11)*%
X94615000Y-132715000D02*
X94615000Y-131445000D01*
X96520000Y-129540000D02*
X96520000Y-99695000D01*
X91500000Y-134120000D02*
X93210000Y-134120000D01*
X97015000Y-99200000D02*
X99120000Y-99200000D01*
X96520000Y-99695000D02*
X97015000Y-99200000D01*
X93210000Y-134120000D02*
X94615000Y-132715000D01*
X94615000Y-131445000D02*
X96520000Y-129540000D01*
%TO.N,Net-(U10-Pad6)*%
X99120000Y-101740000D02*
X99120000Y-108010000D01*
X102100000Y-129040000D02*
X99120000Y-129040000D01*
X102870000Y-111760000D02*
X102870000Y-128270000D01*
X102870000Y-128270000D02*
X102100000Y-129040000D01*
X99120000Y-108010000D02*
X102870000Y-111760000D01*
%TO.N,Net-(U10-Pad13)*%
X99060000Y-153670000D02*
X109220000Y-153670000D01*
X108585000Y-147955000D02*
X108585000Y-134620000D01*
X110490000Y-149860000D02*
X108585000Y-147955000D01*
X110490000Y-152400000D02*
X110490000Y-149860000D01*
X108585000Y-134620000D02*
X109085000Y-134120000D01*
X109085000Y-134120000D02*
X120500000Y-134120000D01*
X91500000Y-139200000D02*
X93480000Y-139200000D01*
X109220000Y-153670000D02*
X110490000Y-152400000D01*
X93980000Y-148590000D02*
X99060000Y-153670000D01*
X93980000Y-139700000D02*
X93980000Y-148590000D01*
X93480000Y-139200000D02*
X93980000Y-139700000D01*
%TO.N,Net-(U11-Pad12)*%
X122555000Y-135890000D02*
X121785000Y-136660000D01*
X122555000Y-127635000D02*
X122555000Y-135890000D01*
X120500000Y-126500000D02*
X121420000Y-126500000D01*
X121420000Y-126500000D02*
X122555000Y-127635000D01*
X121785000Y-136660000D02*
X120500000Y-136660000D01*
%TO.N,X1*%
X201620000Y-129040000D02*
X199920000Y-129040000D01*
X237490000Y-119380000D02*
X237490000Y-138430000D01*
X237490000Y-138430000D02*
X236720000Y-139200000D01*
X181429990Y-128850010D02*
X181429990Y-119395052D01*
X199920000Y-129040000D02*
X198780004Y-127900004D01*
X173620000Y-136660000D02*
X181429990Y-128850010D01*
X198780004Y-127900004D02*
X198780004Y-119380000D01*
X236720000Y-139200000D02*
X230620000Y-139200000D01*
%TO.N,T2-9.ISZ*%
X168910000Y-132173000D02*
X168910000Y-121920000D01*
X227965000Y-121285000D02*
X227965000Y-131445000D01*
X228100000Y-131580000D02*
X230620000Y-131580000D01*
X170892021Y-136472021D02*
X170892021Y-134155021D01*
X168910000Y-121920000D02*
X168275000Y-121285000D01*
X170892021Y-134155021D02*
X168910000Y-132173000D01*
X173620000Y-139200000D02*
X170892021Y-136472021D01*
X227965000Y-131445000D02*
X228100000Y-131580000D01*
%TO.N,PC7*%
X127540000Y-40380000D02*
X127540000Y-37590000D01*
X118046000Y-34700000D02*
X107800000Y-34700000D01*
X105700000Y-32600000D02*
X107800000Y-34700000D01*
X105700000Y-30700000D02*
X105700000Y-32600000D01*
X126186000Y-36236000D02*
X119582000Y-36236000D01*
X127540000Y-37590000D02*
X126186000Y-36236000D01*
X119582000Y-36236000D02*
X118046000Y-34700000D01*
%TO.N,PC6*%
X120900000Y-31500000D02*
X120900000Y-30700000D01*
X130080000Y-40380000D02*
X130080000Y-36320000D01*
X123690000Y-34290000D02*
X120900000Y-31500000D01*
X128050000Y-34290000D02*
X123690000Y-34290000D01*
X130080000Y-36320000D02*
X128050000Y-34290000D01*
%TO.N,PC5*%
X123400000Y-30775000D02*
X127075000Y-30775000D01*
X132620000Y-36320000D02*
X132620000Y-40380000D01*
X96000000Y-37000000D02*
X103876000Y-29124000D01*
X63000000Y-40000000D02*
X66000000Y-37000000D01*
X122970000Y-27940000D02*
X123400000Y-28370000D01*
X63000000Y-46000000D02*
X63000000Y-40000000D01*
X123400000Y-28370000D02*
X123400000Y-30775000D01*
X127075000Y-30775000D02*
X132620000Y-36320000D01*
X116702000Y-27940000D02*
X122970000Y-27940000D01*
X115518000Y-29124000D02*
X116702000Y-27940000D01*
X103876000Y-29124000D02*
X115518000Y-29124000D01*
X66000000Y-37000000D02*
X96000000Y-37000000D01*
%TO.N,SR5*%
X161800000Y-51600000D02*
X161800000Y-36229959D01*
X155100000Y-58300000D02*
X161800000Y-51600000D01*
X165029959Y-33000000D02*
X165300000Y-33000000D01*
X161800000Y-36229959D02*
X165029959Y-33000000D01*
X132620000Y-55920000D02*
X135000000Y-58300000D01*
X171500000Y-30750000D02*
X171500000Y-33000000D01*
X135000000Y-58300000D02*
X155100000Y-58300000D01*
X132620000Y-48000000D02*
X132620000Y-55920000D01*
%TO.N,SR6*%
X163100000Y-51900000D02*
X155310000Y-59690000D01*
X169000000Y-30750000D02*
X169000000Y-31700000D01*
X130080000Y-55150000D02*
X130080000Y-48000000D01*
X155310000Y-59690000D02*
X134620000Y-59690000D01*
X169000000Y-31700000D02*
X163100000Y-37600000D01*
X163100000Y-37600000D02*
X163100000Y-51900000D01*
X134620000Y-59690000D02*
X130080000Y-55150000D01*
%TO.N,SR7*%
X173100000Y-28500000D02*
X167300000Y-28500000D01*
X127540000Y-48000000D02*
X127540000Y-55150000D01*
X167300000Y-28500000D02*
X166500000Y-29300000D01*
X173600000Y-29000000D02*
X173100000Y-28500000D01*
X127540000Y-55150000D02*
X133350000Y-60960000D01*
X164500000Y-38900000D02*
X168500000Y-34900000D01*
X166500000Y-29300000D02*
X166500000Y-30750000D01*
X133350000Y-60960000D02*
X156040000Y-60960000D01*
X168500000Y-34900000D02*
X171800000Y-34900000D01*
X164500000Y-52500000D02*
X164500000Y-38900000D01*
X156040000Y-60960000D02*
X164500000Y-52500000D01*
X173600000Y-33100000D02*
X173600000Y-29000000D01*
X171800000Y-34900000D02*
X173600000Y-33100000D01*
%TO.N,/~{A-BUS}*%
X189865000Y-89985000D02*
X189865000Y-82965000D01*
X176710010Y-69810010D02*
X176710010Y-44465052D01*
X142780000Y-40380000D02*
X146425000Y-40380000D01*
X146425000Y-40380000D02*
X150495000Y-44450000D01*
X194000000Y-94120000D02*
X189865000Y-89985000D01*
X189865000Y-82965000D02*
X176710010Y-69810010D01*
%TO.N,Net-(U10-Pad9)*%
X93980000Y-93980000D02*
X93980000Y-86995000D01*
X93980000Y-86995000D02*
X93485000Y-86500000D01*
X95250000Y-127635000D02*
X95250000Y-95250000D01*
X93845000Y-129040000D02*
X95250000Y-127635000D01*
X95250000Y-95250000D02*
X93980000Y-93980000D01*
X91500000Y-129040000D02*
X93845000Y-129040000D01*
X93485000Y-86500000D02*
X91500000Y-86500000D01*
%TO.N,Net-(U10-Pad8)*%
X93980000Y-125730000D02*
X93980000Y-100330000D01*
X93210000Y-126500000D02*
X93980000Y-125730000D01*
X91500000Y-126500000D02*
X93210000Y-126500000D01*
X92850000Y-99200000D02*
X91500000Y-99200000D01*
X93980000Y-100330000D02*
X92850000Y-99200000D01*
%TO.N,~{T14-21(JMP+JMS})*%
X199390000Y-50165000D02*
X200305000Y-51080000D01*
X166000000Y-134120000D02*
X157615000Y-134120000D01*
X169874000Y-98731000D02*
X169874000Y-114976000D01*
X200305000Y-51080000D02*
X201620000Y-51080000D01*
X163195000Y-62230000D02*
X171450000Y-53975000D01*
X168604000Y-135042000D02*
X168604000Y-154854000D01*
X166000000Y-134120000D02*
X167682000Y-134120000D01*
X171802000Y-158052000D02*
X171802000Y-174170000D01*
X167682000Y-134120000D02*
X168604000Y-135042000D01*
X199390000Y-39890000D02*
X199390000Y-50165000D01*
X159370000Y-62230000D02*
X163195000Y-62230000D01*
X168604000Y-154854000D02*
X171802000Y-158052000D01*
X154305000Y-114935000D02*
X154305000Y-130810000D01*
X154305000Y-67295000D02*
X159370000Y-62230000D01*
X171450000Y-97155000D02*
X169874000Y-98731000D01*
X171450000Y-93750000D02*
X171450000Y-97155000D01*
X171450000Y-53975000D02*
X171450000Y-39450000D01*
X173620000Y-91580000D02*
X171450000Y-93750000D01*
X174600000Y-36300000D02*
X195800000Y-36300000D01*
X154305000Y-130810000D02*
X157615000Y-134120000D01*
X195800000Y-36300000D02*
X199390000Y-39890000D01*
X154305000Y-114935000D02*
X154305000Y-67295000D01*
X171450000Y-39450000D02*
X174600000Y-36300000D01*
%TO.N,Net-(U3-Pad8)*%
X188950000Y-46000000D02*
X186055000Y-48895000D01*
X205105000Y-78105000D02*
X206375000Y-79375000D01*
X188605000Y-78105000D02*
X205105000Y-78105000D01*
X194000000Y-46000000D02*
X188950000Y-46000000D01*
X206375000Y-90805000D02*
X205600000Y-91580000D01*
X205600000Y-91580000D02*
X201620000Y-91580000D01*
X186055000Y-48895000D02*
X186055000Y-75555000D01*
X186055000Y-75555000D02*
X188605000Y-78105000D01*
X206375000Y-79375000D02*
X206375000Y-90805000D01*
%TO.N,Net-(U12-Pad6)*%
X206875000Y-131580000D02*
X201620000Y-131580000D01*
X188950000Y-51080000D02*
X187325000Y-52705000D01*
X201295000Y-114935000D02*
X207645000Y-123190000D01*
X201295000Y-114935000D02*
X201295000Y-108289990D01*
X207645000Y-130810000D02*
X206875000Y-131580000D01*
X207645000Y-78845000D02*
X207645000Y-92710000D01*
X194000000Y-51080000D02*
X188950000Y-51080000D01*
X187325000Y-74930000D02*
X189230000Y-76835000D01*
X189230000Y-76835000D02*
X205635000Y-76835000D01*
X177165000Y-114935000D02*
X177165000Y-125495000D01*
X207645000Y-123190000D02*
X207645000Y-130810000D01*
X205635000Y-76835000D02*
X207645000Y-78845000D01*
X201295000Y-108289990D02*
X207645000Y-101939990D01*
X177165000Y-125495000D02*
X173620000Y-129040000D01*
X187325000Y-52705000D02*
X187325000Y-74930000D01*
%TO.N,Net-(U14-Pad8)*%
X191135000Y-56515000D02*
X191490000Y-56160000D01*
X220980000Y-107315000D02*
X220980000Y-124480000D01*
X193040000Y-75565000D02*
X191135000Y-73660000D01*
X220980000Y-124480000D02*
X223000000Y-126500000D01*
X207645000Y-69215000D02*
X207645000Y-73660000D01*
X207645000Y-73660000D02*
X205740000Y-75565000D01*
X191135000Y-73660000D02*
X191135000Y-56515000D01*
X210185000Y-67945000D02*
X208915000Y-67945000D01*
X205740000Y-75565000D02*
X193040000Y-75565000D01*
X208915000Y-67945000D02*
X207645000Y-69215000D01*
X191490000Y-56160000D02*
X194000000Y-56160000D01*
X211455000Y-69215000D02*
X210185000Y-67945000D01*
X211455000Y-107315000D02*
X211455000Y-69215000D01*
%TO.N,Net-(U12-Pad5)*%
X170180000Y-118745000D02*
X168275000Y-116840000D01*
X172220000Y-131580000D02*
X170180000Y-129540000D01*
X168275000Y-116840000D02*
X168275000Y-97790000D01*
X171310000Y-89040000D02*
X173620000Y-89040000D01*
X170180000Y-90170000D02*
X171310000Y-89040000D01*
X170180000Y-95885000D02*
X170180000Y-90170000D01*
X168275000Y-97790000D02*
X170180000Y-95885000D01*
X173620000Y-131580000D02*
X172220000Y-131580000D01*
X170180000Y-129540000D02*
X170180000Y-118745000D01*
%TO.N,Net-(U12-Pad12)*%
X167535500Y-148758000D02*
X167027500Y-149266000D01*
X229870000Y-149225000D02*
X230505000Y-149225000D01*
X166000000Y-136660000D02*
X167535500Y-138195500D01*
X223000000Y-136660000D02*
X224925000Y-136660000D01*
X226060000Y-145415000D02*
X229870000Y-149225000D01*
X226060000Y-137795000D02*
X226060000Y-145415000D01*
X167535500Y-138195500D02*
X167535500Y-148758000D01*
X224925000Y-136660000D02*
X226060000Y-137795000D01*
%TO.N,SUM*%
X233185000Y-89040000D02*
X230620000Y-89040000D01*
X230620000Y-129040000D02*
X235450000Y-129040000D01*
X235450000Y-129405000D02*
X235450000Y-136025000D01*
X234815000Y-136660000D02*
X230620000Y-136660000D01*
X235450000Y-129040000D02*
X235450000Y-91305000D01*
X235450000Y-129675000D02*
X235450000Y-136025000D01*
X235450000Y-129040000D02*
X235450000Y-129405000D01*
X235450000Y-91305000D02*
X233185000Y-89040000D01*
X235450000Y-129405000D02*
X235450000Y-129675000D01*
X235450000Y-136025000D02*
X234815000Y-136660000D01*
%TO.N,Net-(R2-Pad2)*%
X217805000Y-91440000D02*
X220345000Y-88900000D01*
X222860000Y-88900000D02*
X223000000Y-89040000D01*
X222860000Y-96520000D02*
X223000000Y-96660000D01*
X217805000Y-93980000D02*
X220345000Y-96520000D01*
X217805000Y-91440000D02*
X217805000Y-93980000D01*
X220345000Y-88900000D02*
X222860000Y-88900000D01*
X220345000Y-96520000D02*
X222860000Y-96520000D01*
%TO.N,Net-(U8-Pad3)*%
X228775000Y-48525000D02*
X227329501Y-49970499D01*
X227329501Y-95249501D02*
X228740000Y-96660000D01*
X227329501Y-49970499D02*
X227329501Y-95249501D01*
X230625000Y-48525000D02*
X228775000Y-48525000D01*
X228740000Y-96660000D02*
X230620000Y-96660000D01*
%TO.N,Net-(U8-Pad4)*%
X229375000Y-94120000D02*
X230620000Y-94120000D01*
X228600000Y-93345000D02*
X229375000Y-94120000D01*
X230625000Y-58685000D02*
X230265978Y-58685000D01*
X230265978Y-58685000D02*
X228600000Y-60350978D01*
X228600000Y-60350978D02*
X228600000Y-93345000D01*
%TO.N,Net-(U11-Pad5)*%
X107857000Y-163830000D02*
X100872000Y-156845000D01*
X74430000Y-134120000D02*
X70620000Y-134120000D01*
X76200000Y-148590000D02*
X76200000Y-135890000D01*
X125595000Y-131580000D02*
X125095000Y-132080000D01*
X100872000Y-156845000D02*
X92744000Y-156845000D01*
X89569000Y-153670000D02*
X81280000Y-153670000D01*
X76200000Y-135890000D02*
X74430000Y-134120000D01*
X92744000Y-156845000D02*
X89569000Y-153670000D01*
X128120000Y-131580000D02*
X125595000Y-131580000D01*
X81280000Y-153670000D02*
X76200000Y-148590000D01*
X125095000Y-132080000D02*
X125095000Y-160655000D01*
X121920000Y-163830000D02*
X107857000Y-163830000D01*
X125095000Y-160655000D02*
X121920000Y-163830000D01*
%TO.N,Net-(U6-Pad13)*%
X78124999Y-83800001D02*
X78124999Y-120669999D01*
X80010000Y-122555000D02*
X83820000Y-122555000D01*
X78124999Y-120669999D02*
X80010000Y-122555000D01*
X161100000Y-99200000D02*
X166000000Y-99200000D01*
X85090000Y-128270000D02*
X84320000Y-129040000D01*
X159200000Y-97300000D02*
X161100000Y-99200000D01*
X78105000Y-78105000D02*
X78124999Y-83800001D01*
X85090000Y-123825000D02*
X85090000Y-128270000D01*
X84320000Y-129040000D02*
X70620000Y-129040000D01*
X159205500Y-78100000D02*
X159200000Y-78105500D01*
X159200000Y-78105500D02*
X159200000Y-97300000D01*
X83820000Y-122555000D02*
X85090000Y-123825000D01*
%TO.N,/~{SET_CARRY_FLAG}*%
X235600000Y-55400000D02*
X235600000Y-68000000D01*
X230625000Y-53605000D02*
X233805000Y-53605000D01*
X166000000Y-126500000D02*
X161925000Y-122425000D01*
X156210000Y-105410000D02*
X156210000Y-68790000D01*
X161925000Y-111125000D02*
X156210000Y-105410000D01*
X156210000Y-68790000D02*
X157000000Y-68000000D01*
X233805000Y-53605000D02*
X235600000Y-55400000D01*
X161925000Y-122425000D02*
X161925000Y-111125000D01*
%TO.N,SET_CARRY_FLAG*%
X162060000Y-129040000D02*
X160020000Y-127000000D01*
X91500000Y-96660000D02*
X88760000Y-96660000D01*
X160020000Y-127000000D02*
X160020000Y-120650000D01*
X87630000Y-97790000D02*
X87630000Y-120650000D01*
X88760000Y-96660000D02*
X87630000Y-97790000D01*
X166000000Y-129040000D02*
X162060000Y-129040000D01*
%TO.N,~{PC7}*%
X108200000Y-30700000D02*
X118400000Y-30700000D01*
%TD*%
%TA.AperFunction,Conductor*%
%TO.N,GND*%
G36*
X254491500Y-168784000D02*
G01*
X254471498Y-168852121D01*
X254417842Y-168898614D01*
X254365500Y-168910000D01*
X249681000Y-168910000D01*
X249612879Y-168889998D01*
X249566386Y-168836342D01*
X249555000Y-168784000D01*
X249555000Y-38735000D01*
X254491500Y-38735000D01*
X254491500Y-168784000D01*
G37*
%TD.AperFunction*%
%TD*%
%TA.AperFunction,Conductor*%
%TO.N,+5V*%
G36*
X248285000Y-174499000D02*
G01*
X248264998Y-174567121D01*
X248211342Y-174613614D01*
X248159000Y-174625000D01*
X242061000Y-174625000D01*
X241992879Y-174604998D01*
X241946386Y-174551342D01*
X241935000Y-174499000D01*
X241935000Y-169545000D01*
X248285000Y-169545000D01*
X248285000Y-174499000D01*
G37*
%TD.AperFunction*%
%TD*%
%TA.AperFunction,Conductor*%
%TO.N,+5V*%
G36*
X248227121Y-44470002D02*
G01*
X248273614Y-44523658D01*
X248285000Y-44576000D01*
X248285000Y-169545000D01*
X241935000Y-169545000D01*
X241935000Y-44576000D01*
X241955002Y-44507879D01*
X242008658Y-44461386D01*
X242061000Y-44450000D01*
X248159000Y-44450000D01*
X248227121Y-44470002D01*
G37*
%TD.AperFunction*%
%TD*%
%TA.AperFunction,Conductor*%
%TO.N,GND*%
G36*
X221615000Y-38735000D02*
G01*
X216535000Y-38735000D01*
X214630000Y-40640000D01*
X214630000Y-46864000D01*
X214609998Y-46932121D01*
X214556342Y-46978614D01*
X214504000Y-46990000D01*
X202835632Y-46990000D01*
X202767511Y-46969998D01*
X202721018Y-46916342D01*
X202710914Y-46846068D01*
X202732419Y-46791729D01*
X202753931Y-46761007D01*
X202759414Y-46751511D01*
X202851490Y-46554053D01*
X202855236Y-46543761D01*
X202901394Y-46371497D01*
X202901058Y-46357401D01*
X202893116Y-46354000D01*
X201492000Y-46354000D01*
X201423879Y-46333998D01*
X201377386Y-46280342D01*
X201366000Y-46228000D01*
X201366000Y-45827885D01*
X201874000Y-45827885D01*
X201878475Y-45843124D01*
X201879865Y-45844329D01*
X201887548Y-45846000D01*
X202887967Y-45846000D01*
X202901498Y-45842027D01*
X202902727Y-45833478D01*
X202855236Y-45656239D01*
X202851490Y-45645947D01*
X202759414Y-45448489D01*
X202753931Y-45438993D01*
X202628972Y-45260533D01*
X202621916Y-45252125D01*
X202467875Y-45098084D01*
X202459467Y-45091028D01*
X202281007Y-44966069D01*
X202271511Y-44960586D01*
X202074053Y-44868510D01*
X202063761Y-44864764D01*
X201891497Y-44818606D01*
X201877401Y-44818942D01*
X201874000Y-44826884D01*
X201874000Y-45827885D01*
X201366000Y-45827885D01*
X201366000Y-44832033D01*
X201362027Y-44818502D01*
X201353478Y-44817273D01*
X201176239Y-44864764D01*
X201165947Y-44868510D01*
X200968489Y-44960586D01*
X200958994Y-44966069D01*
X200858271Y-45036596D01*
X200790997Y-45059284D01*
X200722137Y-45041999D01*
X200673552Y-44990230D01*
X200660000Y-44933383D01*
X200660000Y-38735000D01*
X197485000Y-35560000D01*
X195982358Y-35560000D01*
X195952410Y-35556389D01*
X195928535Y-35550547D01*
X195894390Y-35542192D01*
X195888788Y-35541844D01*
X195888785Y-35541844D01*
X195883236Y-35541500D01*
X195883238Y-35541464D01*
X195879245Y-35541225D01*
X195875053Y-35540851D01*
X195867885Y-35539360D01*
X195804120Y-35541085D01*
X195790479Y-35541454D01*
X195787072Y-35541500D01*
X182778722Y-35541500D01*
X182710601Y-35521498D01*
X182664108Y-35467842D01*
X182654004Y-35397568D01*
X182683498Y-35332988D01*
X182749307Y-35292982D01*
X182762618Y-35289786D01*
X182772012Y-35286734D01*
X182982163Y-35199687D01*
X182990958Y-35195205D01*
X183158445Y-35092568D01*
X183167907Y-35082110D01*
X183164124Y-35073334D01*
X182312812Y-34222022D01*
X182298868Y-34214408D01*
X182297035Y-34214539D01*
X182290420Y-34218790D01*
X181438920Y-35070290D01*
X181432160Y-35082670D01*
X181437887Y-35090320D01*
X181609042Y-35195205D01*
X181617837Y-35199687D01*
X181827988Y-35286734D01*
X181837382Y-35289786D01*
X181850693Y-35292982D01*
X181912262Y-35328334D01*
X181944944Y-35391361D01*
X181938363Y-35462052D01*
X181894609Y-35517963D01*
X181821278Y-35541500D01*
X174667070Y-35541500D01*
X174648120Y-35540067D01*
X174633885Y-35537901D01*
X174633881Y-35537901D01*
X174626651Y-35536801D01*
X174619359Y-35537394D01*
X174619356Y-35537394D01*
X174573982Y-35541085D01*
X174563767Y-35541500D01*
X174555707Y-35541500D01*
X174552073Y-35541924D01*
X174552067Y-35541924D01*
X174539042Y-35543443D01*
X174527480Y-35544791D01*
X174523132Y-35545221D01*
X174450364Y-35551140D01*
X174443400Y-35553396D01*
X174437456Y-35554584D01*
X174431591Y-35555970D01*
X174424319Y-35556818D01*
X174422982Y-35557303D01*
X174399855Y-35560000D01*
X174116000Y-35560000D01*
X174047879Y-35539998D01*
X174001386Y-35486342D01*
X173990000Y-35434000D01*
X173990000Y-33854930D01*
X180787725Y-33854930D01*
X180805572Y-34081699D01*
X180807115Y-34091446D01*
X180860217Y-34312627D01*
X180863266Y-34322012D01*
X180950313Y-34532163D01*
X180954795Y-34540958D01*
X181057432Y-34708445D01*
X181067890Y-34717907D01*
X181076666Y-34714124D01*
X181927978Y-33862812D01*
X181934356Y-33851132D01*
X182664408Y-33851132D01*
X182664539Y-33852965D01*
X182668790Y-33859580D01*
X183520290Y-34711080D01*
X183532670Y-34717840D01*
X183540320Y-34712113D01*
X183645205Y-34540958D01*
X183649687Y-34532163D01*
X183736734Y-34322012D01*
X183739783Y-34312627D01*
X183792885Y-34091446D01*
X183794428Y-34081699D01*
X183812275Y-33854930D01*
X183812275Y-33845070D01*
X183794428Y-33618301D01*
X183792885Y-33608554D01*
X183739783Y-33387373D01*
X183736734Y-33377988D01*
X183649687Y-33167837D01*
X183645205Y-33159042D01*
X183542568Y-32991555D01*
X183532110Y-32982093D01*
X183523334Y-32985876D01*
X182672022Y-33837188D01*
X182664408Y-33851132D01*
X181934356Y-33851132D01*
X181935592Y-33848868D01*
X181935461Y-33847035D01*
X181931210Y-33840420D01*
X181079710Y-32988920D01*
X181067330Y-32982160D01*
X181059680Y-32987887D01*
X180954795Y-33159042D01*
X180950313Y-33167837D01*
X180863266Y-33377988D01*
X180860217Y-33387373D01*
X180807115Y-33608554D01*
X180805572Y-33618301D01*
X180787725Y-33845070D01*
X180787725Y-33854930D01*
X173990000Y-33854930D01*
X173990000Y-33834871D01*
X174010002Y-33766750D01*
X174026905Y-33745776D01*
X174088911Y-33683770D01*
X174103323Y-33671384D01*
X174114918Y-33662851D01*
X174114923Y-33662846D01*
X174120818Y-33658508D01*
X174125557Y-33652930D01*
X174125560Y-33652927D01*
X174155035Y-33618232D01*
X174161965Y-33610716D01*
X174167660Y-33605021D01*
X174185281Y-33582749D01*
X174188072Y-33579345D01*
X174230591Y-33529297D01*
X174230592Y-33529295D01*
X174235333Y-33523715D01*
X174238661Y-33517199D01*
X174242028Y-33512150D01*
X174245195Y-33507021D01*
X174249734Y-33501284D01*
X174280655Y-33435125D01*
X174282561Y-33431225D01*
X174304953Y-33387373D01*
X174315769Y-33366192D01*
X174317508Y-33359084D01*
X174319607Y-33353441D01*
X174321524Y-33347678D01*
X174324622Y-33341050D01*
X174339487Y-33269583D01*
X174340457Y-33265299D01*
X174356473Y-33199845D01*
X174357808Y-33194390D01*
X174358500Y-33183236D01*
X174358536Y-33183238D01*
X174358775Y-33179245D01*
X174359149Y-33175053D01*
X174360640Y-33167885D01*
X174358546Y-33090479D01*
X174358500Y-33087072D01*
X174358500Y-32617890D01*
X181432093Y-32617890D01*
X181435876Y-32626666D01*
X182287188Y-33477978D01*
X182301132Y-33485592D01*
X182302965Y-33485461D01*
X182309580Y-33481210D01*
X183161080Y-32629710D01*
X183167840Y-32617330D01*
X183162113Y-32609680D01*
X182990958Y-32504795D01*
X182982163Y-32500313D01*
X182772012Y-32413266D01*
X182762627Y-32410217D01*
X182541446Y-32357115D01*
X182531699Y-32355572D01*
X182304930Y-32337725D01*
X182295070Y-32337725D01*
X182068301Y-32355572D01*
X182058554Y-32357115D01*
X181837373Y-32410217D01*
X181827988Y-32413266D01*
X181617837Y-32500313D01*
X181609042Y-32504795D01*
X181441555Y-32607432D01*
X181432093Y-32617890D01*
X174358500Y-32617890D01*
X174358500Y-29067070D01*
X174359933Y-29048120D01*
X174362099Y-29033885D01*
X174362099Y-29033881D01*
X174363199Y-29026651D01*
X174358915Y-28973982D01*
X174358500Y-28963767D01*
X174358500Y-28955707D01*
X174355209Y-28927480D01*
X174354778Y-28923121D01*
X174348860Y-28850364D01*
X174346605Y-28843403D01*
X174345418Y-28837463D01*
X174344029Y-28831588D01*
X174343182Y-28824319D01*
X174318264Y-28755670D01*
X174316847Y-28751542D01*
X174296607Y-28689064D01*
X174296606Y-28689062D01*
X174294351Y-28682101D01*
X174290555Y-28675846D01*
X174288049Y-28670372D01*
X174285330Y-28664942D01*
X174282833Y-28658063D01*
X174242814Y-28597024D01*
X174240467Y-28593305D01*
X174202595Y-28530893D01*
X174198878Y-28526684D01*
X174195554Y-28522167D01*
X174197282Y-28520896D01*
X174174421Y-28476867D01*
X174154281Y-28393299D01*
X174154280Y-28393297D01*
X174152875Y-28387466D01*
X174065326Y-28194913D01*
X174013230Y-28121471D01*
X173990000Y-28048571D01*
X173990000Y-26670000D01*
X221615000Y-26670000D01*
X221615000Y-38735000D01*
G37*
%TD.AperFunction*%
%TD*%
%TA.AperFunction,Conductor*%
%TO.N,GND*%
G36*
X224155000Y-29210000D02*
G01*
X219075000Y-29210000D01*
X219075000Y-25400000D01*
X224155000Y-25400000D01*
X224155000Y-29210000D01*
G37*
%TD.AperFunction*%
%TD*%
%TA.AperFunction,Conductor*%
%TO.N,GND*%
G36*
X153035000Y-28575000D02*
G01*
X153035000Y-36777810D01*
X153014998Y-36845931D01*
X152998095Y-36866905D01*
X152436905Y-37428095D01*
X152374593Y-37462121D01*
X152347810Y-37465000D01*
X137160000Y-37465000D01*
X136561905Y-38063095D01*
X136499593Y-38097121D01*
X136472810Y-38100000D01*
X134111000Y-38100000D01*
X134042879Y-38079998D01*
X133996386Y-38026342D01*
X133985000Y-37974000D01*
X133985000Y-26670000D01*
X155575000Y-26670000D01*
X153035000Y-28575000D01*
G37*
%TD.AperFunction*%
%TD*%
%TA.AperFunction,Conductor*%
%TO.N,GND*%
G36*
X134620000Y-28575000D02*
G01*
X133976994Y-28060595D01*
X133976993Y-28060594D01*
X133371355Y-27576084D01*
X131445000Y-26035000D01*
X134620000Y-26035000D01*
X134620000Y-28575000D01*
G37*
%TD.AperFunction*%
%TD*%
%TA.AperFunction,Conductor*%
%TO.N,GND*%
G36*
X135393500Y-26838000D02*
G01*
X114628000Y-26838000D01*
X114559879Y-26817998D01*
X114513386Y-26764342D01*
X114502000Y-26712000D01*
X114502000Y-25301681D01*
X128063860Y-25301681D01*
X128063878Y-25301933D01*
X128069793Y-25310677D01*
X128101111Y-25339174D01*
X128106748Y-25343738D01*
X128382544Y-25541918D01*
X128388682Y-25545813D01*
X128685435Y-25710984D01*
X128691955Y-25714136D01*
X129005738Y-25844109D01*
X129012589Y-25846495D01*
X129339212Y-25939536D01*
X129346301Y-25941120D01*
X129681465Y-25996006D01*
X129688671Y-25996763D01*
X130027926Y-26012762D01*
X130035176Y-26012686D01*
X130374010Y-25989587D01*
X130381219Y-25988676D01*
X130715160Y-25926784D01*
X130722190Y-25925057D01*
X131046819Y-25825187D01*
X131053597Y-25822667D01*
X131364603Y-25686145D01*
X131371043Y-25682864D01*
X131664293Y-25511502D01*
X131670326Y-25507493D01*
X131928828Y-25313405D01*
X131937282Y-25302078D01*
X131930537Y-25289748D01*
X130012810Y-23372020D01*
X129998869Y-23364408D01*
X129997034Y-23364539D01*
X129990420Y-23368790D01*
X128071474Y-25287737D01*
X128063860Y-25301681D01*
X114502000Y-25301681D01*
X114502000Y-22901000D01*
X126990980Y-22876327D01*
X126988712Y-22901735D01*
X126988484Y-22908987D01*
X126997374Y-23248505D01*
X126997980Y-23255721D01*
X127045835Y-23591963D01*
X127047269Y-23599074D01*
X127133455Y-23927595D01*
X127135692Y-23934478D01*
X127259064Y-24250914D01*
X127262081Y-24257503D01*
X127421002Y-24557652D01*
X127424761Y-24563860D01*
X127617129Y-24843757D01*
X127621574Y-24849486D01*
X127688743Y-24926484D01*
X127701917Y-24934888D01*
X127711769Y-24929020D01*
X129769954Y-22870836D01*
X130229139Y-22869929D01*
X132286268Y-24927057D01*
X132299622Y-24934349D01*
X132309594Y-24927295D01*
X132416641Y-24799267D01*
X132420957Y-24793456D01*
X132607432Y-24509575D01*
X132611046Y-24503313D01*
X132763658Y-24199882D01*
X132766530Y-24193244D01*
X132883249Y-23874293D01*
X132885345Y-23867351D01*
X132964631Y-23537103D01*
X132965915Y-23529964D01*
X133006816Y-23191973D01*
X133007240Y-23186403D01*
X133013010Y-23002797D01*
X133012937Y-22997204D01*
X133005282Y-22864445D01*
X135255000Y-22860000D01*
X135393500Y-26838000D01*
G37*
%TD.AperFunction*%
%TD*%
%TA.AperFunction,Conductor*%
%TO.N,GND*%
G36*
X254433621Y-20528502D02*
G01*
X254480114Y-20582158D01*
X254491500Y-20634500D01*
X254491500Y-38735000D01*
X221615000Y-38735000D01*
X221615000Y-26670000D01*
X152400000Y-26670000D01*
X152400000Y-36830000D01*
X134620000Y-36830000D01*
X134620000Y-23495000D01*
X114502000Y-23440425D01*
X114488544Y-23440388D01*
X114488542Y-23440388D01*
X99618116Y-23400049D01*
X99600000Y-23400000D01*
X99600000Y-31546795D01*
X99579998Y-31614916D01*
X99561867Y-31637102D01*
X95936026Y-35164947D01*
X95873253Y-35198116D01*
X95849739Y-35200630D01*
X77005418Y-35436923D01*
X64000000Y-35600000D01*
X63992530Y-35607635D01*
X63992529Y-35607635D01*
X59702670Y-39992050D01*
X59702669Y-39992052D01*
X59690000Y-40005000D01*
X59690000Y-57659000D01*
X59669998Y-57727121D01*
X59616342Y-57773614D01*
X59564000Y-57785000D01*
X48895000Y-57785000D01*
X44450000Y-62230000D01*
X44450000Y-169419000D01*
X44429998Y-169487121D01*
X44376342Y-169533614D01*
X44324000Y-169545000D01*
X35634500Y-169545000D01*
X35566379Y-169524998D01*
X35519886Y-169471342D01*
X35508500Y-169419000D01*
X35508500Y-20634500D01*
X35528502Y-20566379D01*
X35582158Y-20519886D01*
X35634500Y-20508500D01*
X254365500Y-20508500D01*
X254433621Y-20528502D01*
G37*
%TD.AperFunction*%
%TD*%
M02*
